<?xml version="1.0" encoding="utf-8" ?>
<svg baseProfile="full" height="216" style="background-color: transparent;" version="1.1" viewBox="0,0,256,216" width="256" xmlns="http://www.w3.org/2000/svg" xmlns:ev="http://www.w3.org/2001/xml-events" xmlns:xlink="http://www.w3.org/1999/xlink"><defs><style type="text/css"><![CDATA[
                svg {
                    shape-rendering: geometricPrecision;
                    border: none;
                    outline: none;
                }
                path, ellipse {
                    vector-effect: non-scaling-stroke;
                }
            ]]></style></defs><path d="M 69,139 L 66,142 L 65,148 L 68,152 L 74,152 L 79,147 L 79,144 L 76,140 Z" fill="none" stroke="black" stroke-width="5" /><path d="M 182,83 L 179,86 L 179,91 L 181,94 L 186,95 L 190,92 L 191,87 L 187,83 Z" fill="none" stroke="black" stroke-width="5" /><path d="M 32,79 L 29,82 L 28,87 L 31,91 L 36,92 L 41,88 L 41,83 L 36,79 Z" fill="none" stroke="black" stroke-width="5" /><path d="M 151,69 L 147,72 L 146,75 L 151,81 L 154,82 L 158,79 L 159,73 L 158,71 Z" fill="none" stroke="black" stroke-width="5" /><path d="M 116,54 L 113,56 L 112,61 L 114,65 L 120,67 L 123,65 L 124,59 L 120,54 Z" fill="none" stroke="black" stroke-width="5" /><path d="M 232,21 L 78,41 L 167,166 Z" fill="none" stroke="black" stroke-width="5" /></svg>