<?xml version="1.0" encoding="utf-8" ?>
<svg baseProfile="full" height="217" style="background-color: transparent;" version="1.1" viewBox="0,0,255,217" width="255" xmlns="http://www.w3.org/2000/svg" xmlns:ev="http://www.w3.org/2001/xml-events" xmlns:xlink="http://www.w3.org/1999/xlink"><defs><style type="text/css"><![CDATA[
                svg {
                    shape-rendering: geometricPrecision;
                    border: none;
                    outline: none;
                }
                path, ellipse {
                    vector-effect: non-scaling-stroke;
                }
            ]]></style></defs><path d="M 213,154 L 205,162 L 204,173 L 210,183 L 221,185 L 234,174 L 234,164 L 224,154 Z" fill="none" stroke="black" stroke-width="5" /><path d="M 53,144 L 38,152 L 32,168 L 43,187 L 57,190 L 73,181 L 77,162 L 72,152 Z" fill="none" stroke="black" stroke-width="5" /><path d="M 116,87 L 131,120 L 135,120 L 151,91 Z" fill="none" stroke="black" stroke-width="5" /><ellipse cx="141.82009887695312" cy="110.62727355957031" fill="none" rx="55.288917541503906" ry="56.065277099609375" stroke="black" stroke-width="5" transform="rotate(16.531160354614258, 141.82009887695312, 110.62727355957031)" /><path d="M 229,14 L 176,18 L 206,64 Z" fill="none" stroke="black" stroke-width="5" /><ellipse cx="52.34526824951172" cy="39.86211395263672" fill="none" rx="36.13077163696289" ry="36.251895904541016" stroke="black" stroke-width="5" transform="rotate(18.128376007080078, 52.34526824951172, 39.86211395263672)" /></svg>