<?xml version="1.0" encoding="utf-8" ?>
<svg baseProfile="full" height="214" style="background-color: transparent;" version="1.1" viewBox="0,0,258,214" width="258" xmlns="http://www.w3.org/2000/svg" xmlns:ev="http://www.w3.org/2001/xml-events" xmlns:xlink="http://www.w3.org/1999/xlink"><defs><style type="text/css"><![CDATA[
                svg {
                    shape-rendering: geometricPrecision;
                    border: none;
                    outline: none;
                }
                path, ellipse {
                    vector-effect: non-scaling-stroke;
                }
            ]]></style></defs><path d="M 154,196 L 134,166 L 114,197 Z" fill="none" stroke="black" stroke-width="5" /><path d="M 236,158 L 216,125 L 195,157 Z" fill="none" stroke="black" stroke-width="5" /><path d="M 33,121 L 34,144 L 62,144 L 60,121 Z" fill="none" stroke="black" stroke-width="5" /><path d="M 130,80 L 120,87 L 117,97 L 126,109 L 135,110 L 144,105 L 147,92 L 140,83 Z" fill="none" stroke="black" stroke-width="5" /><path d="M 198,21 L 199,47 L 224,48 L 224,20 Z" fill="none" stroke="black" stroke-width="5" /><path d="M 44,15 L 37,24 L 38,34 L 46,42 L 55,42 L 63,36 L 65,25 L 58,15 Z" fill="none" stroke="black" stroke-width="5" /></svg>