<?xml version="1.0" encoding="utf-8" ?>
<svg baseProfile="full" height="217" style="background-color: transparent;" version="1.1" viewBox="0,0,258,217" width="258" xmlns="http://www.w3.org/2000/svg" xmlns:ev="http://www.w3.org/2001/xml-events" xmlns:xlink="http://www.w3.org/1999/xlink"><defs><style type="text/css"><![CDATA[
                svg {
                    shape-rendering: geometricPrecision;
                    border: none;
                    outline: none;
                }
                path, ellipse {
                    vector-effect: non-scaling-stroke;
                }
            ]]></style></defs><path d="M 153,123 L 150,128 L 152,134 L 156,137 L 164,136 L 167,129 L 165,125 L 160,122 Z" fill="none" stroke="black" stroke-width="5" /><path d="M 102,118 L 98,121 L 96,129 L 100,134 L 107,134 L 111,132 L 113,124 L 111,120 Z" fill="none" stroke="black" stroke-width="5" /><path d="M 154,78 L 148,83 L 148,88 L 151,93 L 159,94 L 165,87 L 165,81 L 162,79 Z" fill="none" stroke="black" stroke-width="5" /><path d="M 103,77 L 98,81 L 98,90 L 107,94 L 113,88 L 113,82 L 111,79 Z" fill="none" stroke="black" stroke-width="5" /></svg>