<?xml version="1.0" encoding="utf-8" ?>
<svg baseProfile="full" height="218" style="background-color: transparent;" version="1.1" viewBox="0,0,258,218" width="258" xmlns="http://www.w3.org/2000/svg" xmlns:ev="http://www.w3.org/2001/xml-events" xmlns:xlink="http://www.w3.org/1999/xlink"><defs><style type="text/css"><![CDATA[
                svg {
                    shape-rendering: geometricPrecision;
                    border: none;
                    outline: none;
                }
                path, ellipse {
                    vector-effect: non-scaling-stroke;
                }
            ]]></style></defs><path d="M 173,188 L 171,190 L 171,197 L 173,200 L 177,202 L 184,201 L 188,195 L 186,188 L 182,186 Z" fill="none" stroke="black" stroke-width="5" /><path d="M 24,143 L 21,146 L 21,155 L 24,158 L 33,157 L 36,153 L 37,148 L 31,142 Z" fill="none" stroke="black" stroke-width="5" /><path d="M 229,78 L 225,83 L 226,90 L 230,94 L 240,91 L 242,86 L 240,80 L 238,78 Z" fill="none" stroke="black" stroke-width="5" /><path d="M 129,14 L 126,19 L 127,27 L 130,27 L 131,29 L 138,29 L 142,23 L 142,18 L 139,14 Z" fill="none" stroke="black" stroke-width="5" /></svg>