<?xml version="1.0" encoding="utf-8" ?>
<svg baseProfile="full" height="219" style="background-color: transparent;" version="1.1" viewBox="0,0,263,219" width="263" xmlns="http://www.w3.org/2000/svg" xmlns:ev="http://www.w3.org/2001/xml-events" xmlns:xlink="http://www.w3.org/1999/xlink"><defs><style type="text/css"><![CDATA[
                svg {
                    shape-rendering: geometricPrecision;
                    border: none;
                    outline: none;
                }
                path, ellipse {
                    vector-effect: non-scaling-stroke;
                }
            ]]></style></defs><path d="M 161,191 L 157,198 L 160,204 L 163,206 L 168,206 L 172,204 L 173,194 L 166,190 Z" fill="none" stroke="black" stroke-width="5" /><path d="M 57,108 L 51,109 L 47,112 L 46,118 L 50,124 L 55,125 L 60,123 L 62,120 L 62,114 Z" fill="none" stroke="black" stroke-width="5" /><path d="M 93,68 L 87,69 L 85,72 L 85,80 L 88,84 L 96,84 L 100,79 L 100,73 Z" fill="none" stroke="black" stroke-width="5" /><path d="M 234,28 L 231,32 L 231,40 L 236,44 L 241,44 L 246,39 L 245,30 Z" fill="none" stroke="black" stroke-width="5" /></svg>