<?xml version="1.0" encoding="utf-8" ?>
<svg baseProfile="full" height="217" style="background-color: transparent;" version="1.1" viewBox="0,0,259,217" width="259" xmlns="http://www.w3.org/2000/svg" xmlns:ev="http://www.w3.org/2001/xml-events" xmlns:xlink="http://www.w3.org/1999/xlink"><defs><style type="text/css"><![CDATA[
                svg {
                    shape-rendering: geometricPrecision;
                    border: none;
                    outline: none;
                }
                path, ellipse {
                    vector-effect: non-scaling-stroke;
                }
            ]]></style></defs><path d="M 226,181 L 222,186 L 222,194 L 225,196 L 233,196 L 236,192 L 237,186 L 231,181 Z" fill="none" stroke="black" stroke-width="5" /><path d="M 106,157 L 106,162 L 109,167 L 118,168 L 121,166 L 121,157 L 117,153 L 112,153 Z" fill="none" stroke="black" stroke-width="5" /><path d="M 224,35 L 219,41 L 219,47 L 223,50 L 230,50 L 235,44 L 235,39 L 230,35 Z" fill="none" stroke="black" stroke-width="5" /><path d="M 78,32 L 71,33 L 68,38 L 68,43 L 72,48 L 79,48 L 83,44 L 83,37 Z" fill="none" stroke="black" stroke-width="5" /></svg>