<?xml version="1.0" encoding="utf-8" ?>
<svg baseProfile="full" height="220" style="background-color: transparent;" version="1.1" viewBox="0,0,260,220" width="260" xmlns="http://www.w3.org/2000/svg" xmlns:ev="http://www.w3.org/2001/xml-events" xmlns:xlink="http://www.w3.org/1999/xlink"><defs><style type="text/css"><![CDATA[
                svg {
                    shape-rendering: geometricPrecision;
                    border: none;
                    outline: none;
                }
                path, ellipse {
                    vector-effect: non-scaling-stroke;
                }
            ]]></style></defs><path d="M 36,185 L 30,189 L 29,193 L 31,199 L 38,202 L 41,201 L 45,196 L 45,190 L 42,186 Z" fill="none" stroke="black" stroke-width="5" /><path d="M 92,183 L 85,188 L 86,197 L 90,200 L 96,200 L 101,194 L 101,189 L 98,185 Z" fill="none" stroke="black" stroke-width="5" /><path d="M 214,68 L 210,73 L 213,81 L 216,83 L 221,83 L 227,79 L 227,72 L 223,68 Z" fill="none" stroke="black" stroke-width="5" /><path d="M 198,18 L 198,26 L 200,29 L 205,31 L 213,28 L 215,22 L 211,16 L 202,14 Z" fill="none" stroke="black" stroke-width="5" /></svg>