<?xml version="1.0" encoding="utf-8" ?>
<svg baseProfile="full" height="222" style="background-color: transparent;" version="1.1" viewBox="0,0,260,222" width="260" xmlns="http://www.w3.org/2000/svg" xmlns:ev="http://www.w3.org/2001/xml-events" xmlns:xlink="http://www.w3.org/1999/xlink"><defs><style type="text/css"><![CDATA[
                svg {
                    shape-rendering: geometricPrecision;
                    border: none;
                    outline: none;
                }
                path, ellipse {
                    vector-effect: non-scaling-stroke;
                }
            ]]></style></defs><path d="M 155,159 L 150,163 L 148,168 L 152,175 L 159,175 L 165,170 L 165,163 L 160,159 Z" fill="none" stroke="black" stroke-width="5" /><ellipse cx="235.5163116455078" cy="160.21217346191406" fill="none" rx="8.336268424987793" ry="8.715248107910156" stroke="black" stroke-width="5" transform="rotate(80.78173065185547, 235.5163116455078, 160.21217346191406)" /><path d="M 66,129 L 64,135 L 68,142 L 76,142 L 80,137 L 77,128 L 70,127 Z" fill="none" stroke="black" stroke-width="5" /><path d="M 202,97 L 191,119 L 196,121 L 217,120 L 207,99 Z" fill="none" stroke="black" stroke-width="5" /><path d="M 148,92 L 138,114 L 163,114 L 151,92 Z" fill="none" stroke="black" stroke-width="5" /><path d="M 179,67 L 176,71 L 176,78 L 180,82 L 187,82 L 192,75 L 191,69 L 184,66 Z" fill="none" stroke="black" stroke-width="5" /><path d="M 231,64 L 221,85 L 227,87 L 246,86 L 235,65 Z" fill="none" stroke="black" stroke-width="5" /><path d="M 105,63 L 94,83 L 94,88 L 119,88 Z" fill="none" stroke="black" stroke-width="5" /><path d="M 52,62 L 37,87 L 66,87 Z" fill="none" stroke="black" stroke-width="5" /><path d="M 133,47 L 130,51 L 133,60 L 136,62 L 143,61 L 147,56 L 146,49 L 141,46 Z" fill="none" stroke="black" stroke-width="5" /><path d="M 72,26 L 72,28 L 70,30 L 70,31 L 71,32 L 71,36 L 73,38 L 77,40 L 78,39 L 82,39 L 86,36 L 87,34 L 87,29 L 82,24 L 76,24 Z" fill="none" stroke="black" stroke-width="5" /><path d="M 223,11 L 218,14 L 216,22 L 219,26 L 226,27 L 230,23 L 230,14 Z" fill="none" stroke="black" stroke-width="5" /></svg>