<?xml version="1.0" encoding="utf-8" ?>
<svg baseProfile="full" height="214" style="background-color: transparent;" version="1.1" viewBox="0,0,261,214" width="261" xmlns="http://www.w3.org/2000/svg" xmlns:ev="http://www.w3.org/2001/xml-events" xmlns:xlink="http://www.w3.org/1999/xlink"><defs><style type="text/css"><![CDATA[
                svg {
                    shape-rendering: geometricPrecision;
                    border: none;
                    outline: none;
                }
                path, ellipse {
                    vector-effect: non-scaling-stroke;
                }
            ]]></style></defs><path d="M 98,194 L 92,199 L 92,207 L 96,211 L 103,211 L 107,208 L 109,201 L 102,194 Z" fill="none" stroke="black" stroke-width="5" /><path d="M 202,186 L 198,191 L 198,197 L 202,201 L 209,201 L 213,196 L 213,190 L 210,186 Z" fill="none" stroke="black" stroke-width="5" /><path d="M 156,175 L 142,196 L 142,201 L 170,200 Z" fill="none" stroke="black" stroke-width="5" /><path d="M 50,164 L 49,165 L 46,165 L 44,166 L 42,169 L 42,176 L 44,179 L 52,181 L 56,179 L 57,176 L 59,174 L 59,171 L 57,169 L 56,166 L 53,164 Z" fill="none" stroke="black" stroke-width="5" /><path d="M 108,149 L 96,164 L 93,174 L 120,173 Z" fill="none" stroke="black" stroke-width="5" /><path d="M 165,138 L 162,142 L 162,149 L 166,153 L 172,153 L 177,149 L 177,142 L 174,138 Z" fill="none" stroke="black" stroke-width="5" /><ellipse cx="219.80201721191406" cy="114.31012725830078" fill="none" rx="7.53253173828125" ry="8.469075202941895" stroke="black" stroke-width="5" transform="rotate(88.60429382324219, 219.80201721191406, 114.31012725830078)" /><path d="M 95,104 L 88,110 L 88,116 L 90,119 L 98,121 L 103,118 L 105,112 L 102,106 Z" fill="none" stroke="black" stroke-width="5" /><path d="M 143,93 L 131,118 L 158,118 L 147,94 Z" fill="none" stroke="black" stroke-width="5" /><path d="M 162,57 L 158,60 L 157,68 L 160,73 L 168,73 L 171,70 L 173,63 L 169,58 Z" fill="none" stroke="black" stroke-width="5" /><path d="M 110,56 L 100,69 L 98,77 L 120,77 L 119,71 Z" fill="none" stroke="black" stroke-width="5" /><path d="M 48,25 L 42,30 L 42,37 L 47,41 L 53,41 L 57,37 L 59,31 L 54,25 Z" fill="none" stroke="black" stroke-width="5" /><path d="M 212,22 L 206,20 L 199,24 L 198,31 L 200,35 L 207,36 L 212,33 L 214,29 Z" fill="none" stroke="black" stroke-width="5" /><path d="M 146,11 L 132,35 L 159,35 Z" fill="none" stroke="black" stroke-width="5" /></svg>