<?xml version="1.0" encoding="utf-8" ?>
<svg baseProfile="full" height="216" style="background-color: transparent;" version="1.1" viewBox="0,0,256,216" width="256" xmlns="http://www.w3.org/2000/svg" xmlns:ev="http://www.w3.org/2001/xml-events" xmlns:xlink="http://www.w3.org/1999/xlink"><defs><style type="text/css"><![CDATA[
                svg {
                    shape-rendering: geometricPrecision;
                    border: none;
                    outline: none;
                }
                path, ellipse {
                    vector-effect: non-scaling-stroke;
                }
            ]]></style></defs><path d="M 75,142 L 72,148 L 72,150 L 70,152 L 68,156 L 69,157 L 78,157 L 79,158 L 82,158 L 83,157 L 83,155 L 80,152 L 79,149 L 77,147 L 77,144 Z" fill="none" stroke="black" stroke-width="5" /><path d="M 190,130 L 167,175 L 217,176 Z" fill="none" stroke="black" stroke-width="5" /><path d="M 80,97 L 79,106 L 80,110 L 90,109 L 91,98 Z" fill="none" stroke="black" stroke-width="5" /><ellipse cx="84.51962280273438" cy="102.45700073242188" fill="none" rx="22.74100685119629" ry="23.496061325073242" stroke="black" stroke-width="5" transform="rotate(115.37247467041016, 84.51962280273438, 102.45700073242188)" /><ellipse cx="83.92412567138672" cy="103.16204071044922" fill="none" rx="66.64842987060547" ry="67.28054809570312" stroke="black" stroke-width="5" transform="rotate(16.928234100341797, 83.92412567138672, 103.16204071044922)" /></svg>