<?xml version="1.0" encoding="utf-8" ?>
<svg baseProfile="full" height="222" style="background-color: transparent;" version="1.1" viewBox="0,0,259,222" width="259" xmlns="http://www.w3.org/2000/svg" xmlns:ev="http://www.w3.org/2001/xml-events" xmlns:xlink="http://www.w3.org/1999/xlink"><defs><style type="text/css"><![CDATA[
                svg {
                    shape-rendering: geometricPrecision;
                    border: none;
                    outline: none;
                }
                path, ellipse {
                    vector-effect: non-scaling-stroke;
                }
            ]]></style></defs><path d="M 38,174 L 30,180 L 30,190 L 37,199 L 47,199 L 53,194 L 54,182 L 49,176 Z" fill="none" stroke="black" stroke-width="5" /><path d="M 108,154 L 104,155 L 92,174 L 92,178 L 120,176 Z" fill="none" stroke="black" stroke-width="5" /><path d="M 24,120 L 18,127 L 20,139 L 29,144 L 37,143 L 43,135 L 43,126 L 37,120 Z" fill="none" stroke="black" stroke-width="5" /><path d="M 157,89 L 143,98 L 141,109 L 147,119 L 160,123 L 171,116 L 174,103 L 169,94 Z" fill="none" stroke="black" stroke-width="5" /><path d="M 86,86 L 82,87 L 71,105 L 72,109 L 98,106 Z" fill="none" stroke="black" stroke-width="5" /><path d="M 196,95 L 230,96 L 212,68 Z" fill="none" stroke="black" stroke-width="5" /><path d="M 129,39 L 119,46 L 116,59 L 122,69 L 136,72 L 145,66 L 149,53 L 143,42 Z" fill="none" stroke="black" stroke-width="5" /><path d="M 162,23 L 179,48 L 192,22 Z" fill="none" stroke="black" stroke-width="5" /></svg>