<?xml version="1.0" encoding="utf-8" ?>
<svg baseProfile="full" height="222" style="background-color: transparent;" version="1.1" viewBox="0,0,261,222" width="261" xmlns="http://www.w3.org/2000/svg" xmlns:ev="http://www.w3.org/2001/xml-events" xmlns:xlink="http://www.w3.org/1999/xlink"><defs><style type="text/css"><![CDATA[
                svg {
                    shape-rendering: geometricPrecision;
                    border: none;
                    outline: none;
                }
                path, ellipse {
                    vector-effect: non-scaling-stroke;
                }
            ]]></style></defs><path d="M 125,200 L 124,201 L 124,205 L 125,206 L 130,206 L 132,203 L 132,201 L 129,199 Z" fill="none" stroke="black" stroke-width="5" /><path d="M 95,194 L 93,196 L 93,199 L 94,200 L 97,200 L 99,202 L 101,200 L 101,196 L 99,194 Z" fill="none" stroke="black" stroke-width="5" /><path d="M 152,189 L 149,192 L 149,194 L 151,197 L 154,197 L 156,194 L 156,191 L 154,189 Z" fill="none" stroke="black" stroke-width="5" /><path d="M 67,182 L 65,184 L 65,187 L 66,188 L 71,188 L 72,187 L 72,183 L 71,182 Z" fill="none" stroke="black" stroke-width="5" /><path d="M 176,169 L 174,171 L 175,175 L 176,176 L 180,176 L 181,175 L 182,170 L 181,169 Z" fill="none" stroke="black" stroke-width="5" /><path d="M 51,156 L 48,159 L 48,161 L 50,163 L 54,163 L 56,161 L 56,158 L 54,156 Z" fill="none" stroke="black" stroke-width="5" /><path d="M 191,145 L 190,146 L 190,149 L 193,152 L 194,152 L 197,149 L 197,146 L 196,145 Z" fill="none" stroke="black" stroke-width="5" /><path d="M 38,127 L 37,129 L 37,132 L 39,134 L 42,134 L 45,131 L 45,128 L 44,127 Z" fill="none" stroke="black" stroke-width="5" /><path d="M 208,117 L 206,117 L 202,121 L 202,123 L 204,125 L 204,126 L 208,126 L 209,125 L 209,118 Z" fill="none" stroke="black" stroke-width="5" /><path d="M 33,95 L 31,97 L 31,101 L 32,102 L 37,102 L 38,101 L 38,97 L 37,95 Z" fill="none" stroke="black" stroke-width="5" /><path d="M 76,93 L 76,112 L 95,112 L 97,110 L 96,93 Z" fill="none" stroke="black" stroke-width="5" /><path d="M 212,91 L 212,93 L 213,94 L 213,95 L 214,96 L 218,96 L 219,95 L 219,94 L 220,93 L 220,90 L 219,89 L 215,89 L 213,91 Z" fill="none" stroke="black" stroke-width="5" /><path d="M 42,65 L 39,68 L 39,70 L 40,72 L 44,73 L 46,72 L 46,67 L 44,65 Z" fill="none" stroke="black" stroke-width="5" /><path d="M 216,59 L 214,59 L 212,61 L 211,61 L 211,66 L 212,67 L 216,67 L 218,65 L 218,61 Z" fill="none" stroke="black" stroke-width="5" /><path d="M 65,45 L 60,45 L 58,49 L 61,52 L 64,51 L 66,48 L 66,46 Z" fill="none" stroke="black" stroke-width="5" /><path d="M 186,39 L 185,40 L 185,44 L 186,45 L 191,45 L 193,43 L 192,40 L 190,38 Z" fill="none" stroke="black" stroke-width="5" /><path d="M 88,29 L 88,32 L 90,34 L 95,34 L 95,29 L 94,28 L 90,28 Z" fill="none" stroke="black" stroke-width="5" /><path d="M 156,27 L 154,30 L 154,32 L 156,34 L 161,34 L 163,32 L 163,29 L 159,26 Z" fill="none" stroke="black" stroke-width="5" /><path d="M 122,24 L 120,26 L 120,30 L 124,32 L 127,31 L 128,29 L 127,25 L 125,24 Z" fill="none" stroke="black" stroke-width="5" /></svg>