<?xml version="1.0" encoding="utf-8" ?>
<svg baseProfile="full" height="218" style="background-color: transparent;" version="1.1" viewBox="0,0,254,218" width="254" xmlns="http://www.w3.org/2000/svg" xmlns:ev="http://www.w3.org/2001/xml-events" xmlns:xlink="http://www.w3.org/1999/xlink"><defs><style type="text/css"><![CDATA[
                svg {
                    shape-rendering: geometricPrecision;
                    border: none;
                    outline: none;
                }
                path, ellipse {
                    vector-effect: non-scaling-stroke;
                }
            ]]></style></defs><path d="M 188,193 L 184,193 L 183,194 L 182,194 L 182,195 L 180,197 L 183,200 L 183,201 L 186,201 L 189,198 L 189,194 Z" fill="none" stroke="black" stroke-width="5" /><path d="M 158,193 L 156,195 L 156,199 L 157,200 L 162,200 L 163,199 L 163,194 L 162,193 Z" fill="none" stroke="black" stroke-width="5" /><path d="M 135,192 L 133,194 L 133,199 L 137,201 L 139,199 L 140,195 L 137,192 Z" fill="none" stroke="black" stroke-width="5" /><path d="M 115,192 L 112,190 L 107,193 L 108,199 L 111,199 L 115,196 Z" fill="none" stroke="black" stroke-width="5" /><path d="M 211,186 L 209,188 L 209,190 L 210,191 L 210,193 L 212,195 L 216,195 L 218,193 L 218,192 L 216,190 L 216,189 L 217,188 L 214,186 Z" fill="none" stroke="black" stroke-width="5" /><path d="M 79,186 L 78,187 L 78,191 L 80,193 L 84,194 L 87,188 L 85,186 Z" fill="none" stroke="black" stroke-width="5" /><path d="M 229,167 L 228,168 L 228,173 L 229,174 L 234,174 L 235,173 L 235,168 L 232,166 Z" fill="none" stroke="black" stroke-width="5" /><path d="M 92,160 L 90,162 L 90,167 L 91,168 L 95,168 L 97,167 L 97,162 L 95,160 Z" fill="none" stroke="black" stroke-width="5" /><path d="M 114,156 L 114,158 L 117,161 L 121,161 L 123,159 L 122,157 L 122,154 L 117,154 Z" fill="none" stroke="black" stroke-width="5" /><path d="M 239,142 L 238,143 L 238,147 L 240,149 L 244,149 L 245,148 L 245,142 Z" fill="none" stroke="black" stroke-width="5" /><path d="M 136,140 L 135,142 L 135,146 L 136,147 L 141,147 L 143,145 L 143,141 L 142,140 Z" fill="none" stroke="black" stroke-width="5" /><path d="M 144,114 L 142,118 L 144,121 L 147,121 L 148,122 L 151,119 L 151,116 L 149,114 Z" fill="none" stroke="black" stroke-width="5" /><path d="M 240,112 L 240,113 L 239,114 L 238,114 L 238,118 L 240,120 L 243,120 L 244,119 L 245,119 L 246,118 L 246,114 L 243,112 Z" fill="none" stroke="black" stroke-width="5" /><path d="M 99,103 L 100,123 L 120,122 L 120,104 L 118,102 Z" fill="none" stroke="black" stroke-width="5" /><path d="M 237,92 L 233,93 L 232,94 L 232,99 L 233,100 L 238,100 L 239,99 L 239,94 Z" fill="none" stroke="black" stroke-width="5" /><path d="M 142,88 L 140,90 L 140,94 L 141,95 L 146,95 L 148,92 L 148,90 L 146,88 Z" fill="none" stroke="black" stroke-width="5" /><path d="M 121,75 L 120,76 L 120,81 L 122,83 L 126,82 L 127,81 L 127,76 L 126,75 Z" fill="none" stroke="black" stroke-width="5" /><path d="M 216,72 L 215,73 L 215,79 L 221,79 L 223,77 L 223,74 L 221,72 Z" fill="none" stroke="black" stroke-width="5" /><path d="M 98,66 L 96,68 L 96,72 L 98,74 L 103,73 L 103,68 L 102,68 L 100,66 Z" fill="none" stroke="black" stroke-width="5" /><path d="M 76,54 L 74,58 L 77,62 L 80,62 L 82,60 L 82,55 L 81,54 Z" fill="none" stroke="black" stroke-width="5" /><path d="M 200,52 L 198,54 L 198,58 L 200,60 L 204,60 L 205,59 L 205,54 L 203,52 Z" fill="none" stroke="black" stroke-width="5" /><path d="M 99,38 L 94,38 L 92,42 L 92,44 L 93,44 L 95,47 L 99,45 L 101,41 Z" fill="none" stroke="black" stroke-width="5" /><path d="M 176,36 L 175,37 L 174,37 L 172,39 L 172,40 L 174,42 L 174,43 L 175,43 L 177,45 L 179,45 L 181,43 L 181,42 L 182,41 L 182,39 L 179,36 Z" fill="none" stroke="black" stroke-width="5" /><path d="M 145,28 L 145,32 L 147,34 L 153,33 L 153,28 L 151,26 L 147,26 Z" fill="none" stroke="black" stroke-width="5" /><path d="M 120,24 L 118,26 L 118,31 L 120,32 L 123,32 L 125,31 L 125,26 L 123,24 Z" fill="none" stroke="black" stroke-width="5" /></svg>