<?xml version="1.0" encoding="utf-8" ?>
<svg baseProfile="full" height="216" style="background-color: transparent;" version="1.1" viewBox="0,0,256,216" width="256" xmlns="http://www.w3.org/2000/svg" xmlns:ev="http://www.w3.org/2001/xml-events" xmlns:xlink="http://www.w3.org/1999/xlink"><defs><style type="text/css"><![CDATA[
                svg {
                    shape-rendering: geometricPrecision;
                    border: none;
                    outline: none;
                }
                path, ellipse {
                    vector-effect: non-scaling-stroke;
                }
            ]]></style></defs><path d="M 73,202 L 72,203 L 72,208 L 75,210 L 79,209 L 81,206 L 78,202 Z" fill="none" stroke="black" stroke-width="5" /><path d="M 107,200 L 104,203 L 104,205 L 106,208 L 110,208 L 113,205 L 113,204 L 110,200 Z" fill="none" stroke="black" stroke-width="5" /><path d="M 134,194 L 134,199 L 137,201 L 140,199 L 142,199 L 142,194 L 138,192 L 136,192 Z" fill="none" stroke="black" stroke-width="5" /><path d="M 46,186 L 43,188 L 42,192 L 46,195 L 49,195 L 51,193 L 51,188 Z" fill="none" stroke="black" stroke-width="5" /><path d="M 165,182 L 160,182 L 160,183 L 158,184 L 158,188 L 161,191 L 166,189 L 166,184 Z" fill="none" stroke="black" stroke-width="5" /><path d="M 213,171 L 214,191 L 235,191 L 235,172 L 233,170 Z" fill="none" stroke="black" stroke-width="5" /><path d="M 186,160 L 184,162 L 183,166 L 185,168 L 190,168 L 191,167 L 190,162 L 189,160 Z" fill="none" stroke="black" stroke-width="5" /><path d="M 32,161 L 32,166 L 36,168 L 38,168 L 40,166 L 39,160 L 34,160 Z" fill="none" stroke="black" stroke-width="5" /><path d="M 204,138 L 202,140 L 202,145 L 203,146 L 207,146 L 208,145 L 209,145 L 209,142 L 210,141 L 210,140 L 209,139 L 209,138 Z" fill="none" stroke="black" stroke-width="5" /><path d="M 34,128 L 33,130 L 34,134 L 35,135 L 39,135 L 41,133 L 40,129 L 38,127 Z" fill="none" stroke="black" stroke-width="5" /><path d="M 218,118 L 218,122 L 220,124 L 225,124 L 227,123 L 227,117 L 226,116 L 220,116 Z" fill="none" stroke="black" stroke-width="5" /><path d="M 49,95 L 46,98 L 46,101 L 47,101 L 49,103 L 53,103 L 54,102 L 54,97 L 53,96 L 52,96 L 51,95 Z" fill="none" stroke="black" stroke-width="5" /><path d="M 228,88 L 227,89 L 227,94 L 228,95 L 233,95 L 235,93 L 234,88 Z" fill="none" stroke="black" stroke-width="5" /><path d="M 66,70 L 64,73 L 64,76 L 66,78 L 69,78 L 72,76 L 71,72 L 68,70 Z" fill="none" stroke="black" stroke-width="5" /><path d="M 226,58 L 227,65 L 233,65 L 234,63 L 234,60 L 232,57 L 228,57 Z" fill="none" stroke="black" stroke-width="5" /><path d="M 85,50 L 84,51 L 84,56 L 86,58 L 89,58 L 91,57 L 91,51 L 90,50 Z" fill="none" stroke="black" stroke-width="5" /><path d="M 215,28 L 214,29 L 214,34 L 215,35 L 220,35 L 221,34 L 221,28 Z" fill="none" stroke="black" stroke-width="5" /><path d="M 117,28 L 110,30 L 110,35 L 111,36 L 114,37 L 117,35 L 118,33 L 118,30 Z" fill="none" stroke="black" stroke-width="5" /><path d="M 137,18 L 136,19 L 134,19 L 132,22 L 132,24 L 134,27 L 138,27 L 140,25 L 140,24 L 141,23 L 141,21 L 139,19 L 138,19 Z" fill="none" stroke="black" stroke-width="5" /><path d="M 189,10 L 187,15 L 192,18 L 195,17 L 195,10 Z" fill="none" stroke="black" stroke-width="5" /><path d="M 158,13 L 159,16 L 162,18 L 167,17 L 167,11 L 166,10 L 161,10 Z" fill="none" stroke="black" stroke-width="5" /></svg>