<?xml version="1.0" encoding="utf-8" ?>
<svg baseProfile="full" height="222" style="background-color: transparent;" version="1.1" viewBox="0,0,257,222" width="257" xmlns="http://www.w3.org/2000/svg" xmlns:ev="http://www.w3.org/2001/xml-events" xmlns:xlink="http://www.w3.org/1999/xlink"><defs><style type="text/css"><![CDATA[
                svg {
                    shape-rendering: geometricPrecision;
                    border: none;
                    outline: none;
                }
                path, ellipse {
                    vector-effect: non-scaling-stroke;
                }
            ]]></style></defs><path d="M 202,187 L 200,189 L 200,194 L 201,195 L 206,195 L 207,194 L 207,189 L 205,187 Z" fill="none" stroke="black" stroke-width="5" /><path d="M 173,179 L 172,180 L 170,180 L 168,182 L 168,183 L 167,184 L 167,186 L 169,188 L 169,189 L 173,189 L 173,188 L 175,186 L 175,183 L 174,182 L 174,180 Z" fill="none" stroke="black" stroke-width="5" /><path d="M 224,176 L 222,178 L 222,183 L 227,185 L 229,183 L 230,179 L 229,177 Z" fill="none" stroke="black" stroke-width="5" /><path d="M 136,167 L 136,172 L 139,175 L 141,175 L 145,172 L 145,170 L 141,167 Z" fill="none" stroke="black" stroke-width="5" /><path d="M 54,164 L 55,185 L 73,185 L 74,165 Z" fill="none" stroke="black" stroke-width="5" /><path d="M 224,152 L 224,153 L 222,155 L 222,156 L 223,157 L 223,158 L 224,159 L 230,159 L 231,158 L 231,156 L 230,155 L 230,154 L 231,153 L 230,152 Z" fill="none" stroke="black" stroke-width="5" /><path d="M 117,151 L 115,155 L 117,159 L 121,159 L 123,158 L 123,152 L 122,151 Z" fill="none" stroke="black" stroke-width="5" /><path d="M 94,134 L 92,136 L 92,139 L 96,142 L 99,141 L 100,140 L 100,137 L 98,134 Z" fill="none" stroke="black" stroke-width="5" /><path d="M 222,124 L 221,125 L 221,126 L 220,127 L 220,128 L 221,129 L 221,130 L 222,131 L 227,131 L 228,130 L 228,127 L 229,126 L 227,124 Z" fill="none" stroke="black" stroke-width="5" /><path d="M 72,115 L 70,117 L 70,120 L 73,122 L 77,122 L 79,119 L 79,117 L 76,114 Z" fill="none" stroke="black" stroke-width="5" /><path d="M 223,96 L 221,98 L 221,101 L 223,103 L 228,103 L 229,102 L 229,98 L 227,96 Z" fill="none" stroke="black" stroke-width="5" /><path d="M 49,92 L 46,95 L 46,99 L 47,99 L 49,101 L 51,101 L 53,99 L 53,94 Z" fill="none" stroke="black" stroke-width="5" /><path d="M 30,69 L 28,71 L 28,75 L 30,77 L 33,77 L 35,75 L 36,71 L 33,69 Z" fill="none" stroke="black" stroke-width="5" /><path d="M 226,64 L 224,68 L 224,71 L 226,73 L 230,73 L 231,72 L 231,66 L 228,66 Z" fill="none" stroke="black" stroke-width="5" /><path d="M 143,39 L 140,42 L 140,45 L 142,47 L 145,47 L 147,45 L 147,40 L 146,39 Z" fill="none" stroke="black" stroke-width="5" /><path d="M 29,40 L 28,41 L 28,43 L 29,43 L 30,44 L 30,46 L 31,47 L 35,47 L 37,45 L 37,41 L 35,39 L 31,39 L 30,40 Z" fill="none" stroke="black" stroke-width="5" /><path d="M 174,38 L 172,38 L 169,40 L 168,42 L 169,47 L 175,47 L 176,46 L 177,41 Z" fill="none" stroke="black" stroke-width="5" /><path d="M 112,38 L 110,40 L 110,44 L 111,45 L 116,45 L 117,44 L 117,38 Z" fill="none" stroke="black" stroke-width="5" /><path d="M 84,38 L 82,41 L 83,45 L 85,47 L 89,46 L 90,45 L 90,40 L 88,38 Z" fill="none" stroke="black" stroke-width="5" /><path d="M 61,38 L 56,38 L 55,39 L 56,45 L 58,48 L 64,44 L 63,39 Z" fill="none" stroke="black" stroke-width="5" /><path d="M 222,38 L 221,42 L 224,45 L 227,45 L 229,43 L 229,38 L 227,37 L 224,37 Z" fill="none" stroke="black" stroke-width="5" /><path d="M 199,36 L 197,38 L 196,38 L 196,43 L 198,45 L 201,45 L 204,42 L 204,41 L 203,40 L 203,38 L 202,38 L 200,36 Z" fill="none" stroke="black" stroke-width="5" /></svg>