<?xml version="1.0" encoding="utf-8" ?>
<svg baseProfile="full" height="217" style="background-color: transparent;" version="1.1" viewBox="0,0,258,217" width="258" xmlns="http://www.w3.org/2000/svg" xmlns:ev="http://www.w3.org/2001/xml-events" xmlns:xlink="http://www.w3.org/1999/xlink"><defs><style type="text/css"><![CDATA[
                svg {
                    shape-rendering: geometricPrecision;
                    border: none;
                    outline: none;
                }
                path, ellipse {
                    vector-effect: non-scaling-stroke;
                }
            ]]></style></defs><path d="M 204,189 L 202,192 L 203,196 L 205,197 L 209,197 L 211,194 L 211,191 L 209,189 Z" fill="none" stroke="black" stroke-width="5" /><path d="M 142,189 L 140,192 L 140,194 L 144,197 L 147,197 L 148,196 L 148,190 L 147,189 Z" fill="none" stroke="black" stroke-width="5" /><path d="M 112,189 L 108,191 L 108,196 L 111,198 L 112,197 L 114,197 L 116,194 L 116,191 Z" fill="none" stroke="black" stroke-width="5" /><path d="M 46,190 L 46,196 L 49,197 L 53,195 L 53,191 L 51,189 L 47,189 Z" fill="none" stroke="black" stroke-width="5" /><path d="M 236,187 L 234,189 L 234,194 L 239,196 L 241,194 L 241,188 L 239,187 Z" fill="none" stroke="black" stroke-width="5" /><path d="M 48,159 L 47,161 L 47,165 L 48,166 L 53,166 L 55,164 L 54,161 L 52,159 Z" fill="none" stroke="black" stroke-width="5" /><path d="M 234,155 L 234,158 L 236,160 L 241,160 L 243,158 L 243,155 L 241,152 L 238,152 Z" fill="none" stroke="black" stroke-width="5" /><path d="M 51,122 L 50,122 L 49,123 L 48,123 L 46,125 L 46,127 L 48,129 L 48,130 L 52,130 L 54,128 L 53,127 L 53,124 Z" fill="none" stroke="black" stroke-width="5" /><path d="M 238,118 L 235,121 L 235,124 L 236,126 L 241,126 L 243,124 L 243,121 L 241,119 Z" fill="none" stroke="black" stroke-width="5" /><path d="M 151,113 L 150,114 L 150,118 L 152,120 L 155,120 L 157,118 L 157,113 Z" fill="none" stroke="black" stroke-width="5" /><path d="M 174,101 L 172,103 L 172,108 L 174,110 L 176,110 L 180,107 L 180,103 L 177,101 Z" fill="none" stroke="black" stroke-width="5" /><path d="M 124,101 L 122,103 L 122,107 L 124,109 L 126,109 L 127,110 L 128,109 L 129,109 L 129,103 L 128,102 L 127,102 L 126,101 Z" fill="none" stroke="black" stroke-width="5" /><path d="M 52,89 L 49,89 L 46,92 L 46,94 L 49,97 L 53,96 L 55,94 L 55,91 Z" fill="none" stroke="black" stroke-width="5" /><path d="M 232,89 L 232,94 L 234,96 L 236,96 L 238,94 L 240,94 L 240,93 L 239,92 L 239,90 L 237,88 L 234,88 L 233,89 Z" fill="none" stroke="black" stroke-width="5" /><path d="M 192,83 L 191,86 L 193,90 L 197,90 L 200,88 L 201,86 L 197,82 Z" fill="none" stroke="black" stroke-width="5" /><path d="M 104,81 L 102,81 L 99,84 L 99,87 L 100,88 L 104,88 L 106,85 L 106,83 Z" fill="none" stroke="black" stroke-width="5" /><path d="M 234,59 L 230,62 L 230,66 L 232,68 L 237,68 L 239,66 L 239,62 L 236,59 Z" fill="none" stroke="black" stroke-width="5" /><path d="M 48,57 L 46,59 L 46,63 L 48,65 L 48,66 L 51,66 L 54,64 L 54,60 L 53,59 L 53,58 L 52,58 L 51,57 Z" fill="none" stroke="black" stroke-width="5" /><path d="M 201,54 L 198,57 L 198,59 L 200,62 L 205,62 L 207,58 L 207,55 Z" fill="none" stroke="black" stroke-width="5" /><path d="M 92,55 L 91,55 L 90,54 L 89,55 L 86,55 L 85,56 L 85,60 L 87,62 L 89,62 L 90,61 L 91,61 L 93,59 L 93,56 Z" fill="none" stroke="black" stroke-width="5" /><path d="M 139,53 L 139,74 L 157,73 L 157,53 Z" fill="none" stroke="black" stroke-width="5" /><path d="M 234,31 L 232,33 L 232,34 L 231,35 L 231,36 L 232,37 L 231,38 L 233,40 L 239,40 L 239,39 L 240,38 L 240,35 L 239,34 L 239,33 L 236,31 Z" fill="none" stroke="black" stroke-width="5" /><path d="M 207,30 L 204,33 L 204,35 L 206,38 L 212,38 L 213,37 L 213,32 L 211,30 Z" fill="none" stroke="black" stroke-width="5" /><path d="M 76,28 L 74,30 L 74,32 L 73,33 L 76,36 L 80,36 L 82,34 L 82,33 L 83,32 L 83,31 L 81,29 L 80,29 L 79,28 Z" fill="none" stroke="black" stroke-width="5" /><path d="M 48,25 L 46,28 L 46,30 L 50,33 L 55,32 L 55,29 L 53,25 Z" fill="none" stroke="black" stroke-width="5" /></svg>