<?xml version="1.0" encoding="utf-8" ?>
<svg baseProfile="full" height="216" style="background-color: transparent;" version="1.1" viewBox="0,0,260,216" width="260" xmlns="http://www.w3.org/2000/svg" xmlns:ev="http://www.w3.org/2001/xml-events" xmlns:xlink="http://www.w3.org/1999/xlink"><defs><style type="text/css"><![CDATA[
                svg {
                    shape-rendering: geometricPrecision;
                    border: none;
                    outline: none;
                }
                path, ellipse {
                    vector-effect: non-scaling-stroke;
                }
            ]]></style></defs><path d="M 52,78 L 49,90 L 50,109 L 54,117 L 65,119 L 69,113 L 67,84 L 61,78 Z" fill="none" stroke="black" stroke-width="5" /><path d="M 83,77 L 73,82 L 75,114 L 89,118 L 97,114 L 94,81 Z" fill="none" stroke="black" stroke-width="5" /><path d="M 161,75 L 155,80 L 153,91 L 154,113 L 158,120 L 163,121 L 172,114 L 171,80 Z" fill="none" stroke="black" stroke-width="5" /><path d="M 108,75 L 100,80 L 102,109 L 108,119 L 118,119 L 121,115 L 117,79 Z" fill="none" stroke="black" stroke-width="5" /><path d="M 131,74 L 126,80 L 128,113 L 132,118 L 139,119 L 147,112 L 144,80 L 139,74 Z" fill="none" stroke="black" stroke-width="5" /></svg>