<?xml version="1.0" encoding="utf-8" ?>
<svg baseProfile="full" height="221" style="background-color: transparent;" version="1.1" viewBox="0,0,256,221" width="256" xmlns="http://www.w3.org/2000/svg" xmlns:ev="http://www.w3.org/2001/xml-events" xmlns:xlink="http://www.w3.org/1999/xlink"><defs><style type="text/css"><![CDATA[
                svg {
                    shape-rendering: geometricPrecision;
                    border: none;
                    outline: none;
                }
                path, ellipse {
                    vector-effect: non-scaling-stroke;
                }
            ]]></style></defs><path d="M 185,158 L 179,160 L 179,197 L 193,199 L 201,194 L 198,179 L 200,162 Z" fill="none" stroke="black" stroke-width="5" /><path d="M 212,157 L 204,167 L 206,190 L 212,196 L 219,197 L 226,186 L 225,163 L 219,157 Z" fill="none" stroke="black" stroke-width="5" /><path d="M 162,156 L 156,160 L 154,167 L 156,176 L 156,194 L 160,199 L 169,200 L 173,197 L 174,188 L 173,162 L 169,157 Z" fill="none" stroke="black" stroke-width="5" /><path d="M 134,155 L 129,165 L 130,192 L 141,199 L 150,190 L 149,165 L 144,155 Z" fill="none" stroke="black" stroke-width="5" /><path d="M 54,151 L 46,159 L 46,192 L 49,197 L 57,199 L 64,195 L 66,160 L 60,152 Z" fill="none" stroke="black" stroke-width="5" /><path d="M 192,38 L 184,40 L 180,47 L 180,70 L 188,80 L 197,76 L 201,66 L 199,42 Z" fill="none" stroke="black" stroke-width="5" /><path d="M 158,37 L 152,45 L 152,67 L 156,74 L 166,76 L 173,66 L 173,49 L 169,39 Z" fill="none" stroke="black" stroke-width="5" /><path d="M 79,36 L 73,43 L 72,63 L 76,75 L 85,80 L 92,74 L 91,43 L 86,37 Z" fill="none" stroke="black" stroke-width="5" /><path d="M 132,35 L 124,41 L 124,66 L 131,78 L 138,78 L 146,67 L 145,45 L 139,37 Z" fill="none" stroke="black" stroke-width="5" /><path d="M 106,35 L 96,39 L 98,76 L 110,79 L 120,74 L 118,40 Z" fill="none" stroke="black" stroke-width="5" /><path d="M 55,35 L 50,37 L 49,66 L 52,77 L 62,81 L 67,72 L 66,43 L 63,37 Z" fill="none" stroke="black" stroke-width="5" /></svg>