<?xml version="1.0" encoding="utf-8" ?>
<svg baseProfile="full" height="219" style="background-color: transparent;" version="1.1" viewBox="0,0,256,219" width="256" xmlns="http://www.w3.org/2000/svg" xmlns:ev="http://www.w3.org/2001/xml-events" xmlns:xlink="http://www.w3.org/1999/xlink"><defs><style type="text/css"><![CDATA[
                svg {
                    shape-rendering: geometricPrecision;
                    border: none;
                    outline: none;
                }
                path, ellipse {
                    vector-effect: non-scaling-stroke;
                }
            ]]></style></defs><path d="M 199,186 L 197,188 L 197,192 L 198,193 L 198,194 L 199,194 L 200,195 L 202,195 L 203,194 L 205,194 L 206,193 L 206,188 L 203,186 Z" fill="none" stroke="black" stroke-width="5" /><path d="M 226,177 L 223,181 L 223,184 L 225,186 L 230,186 L 232,184 L 232,179 L 229,177 Z" fill="none" stroke="black" stroke-width="5" /><path d="M 179,168 L 175,171 L 175,175 L 179,178 L 182,178 L 184,176 L 185,172 L 183,169 Z" fill="none" stroke="black" stroke-width="5" /><path d="M 237,150 L 235,152 L 234,155 L 235,156 L 235,158 L 237,158 L 239,160 L 240,160 L 244,156 L 244,153 L 241,150 Z" fill="none" stroke="black" stroke-width="5" /><path d="M 154,152 L 155,153 L 155,156 L 156,156 L 157,157 L 161,157 L 164,155 L 164,151 L 162,149 L 156,149 Z" fill="none" stroke="black" stroke-width="5" /><path d="M 11,123 L 8,127 L 9,132 L 16,132 L 18,128 L 14,123 Z" fill="none" stroke="black" stroke-width="5" /><path d="M 140,121 L 137,123 L 136,128 L 138,130 L 142,131 L 144,130 L 145,125 L 144,123 Z" fill="none" stroke="black" stroke-width="5" /><path d="M 122,96 L 119,100 L 119,104 L 121,106 L 125,107 L 128,105 L 128,100 L 125,97 Z" fill="none" stroke="black" stroke-width="5" /><path d="M 15,93 L 13,94 L 12,99 L 15,102 L 18,102 L 21,100 L 21,95 L 19,93 Z" fill="none" stroke="black" stroke-width="5" /><path d="M 147,79 L 145,81 L 145,85 L 147,88 L 152,88 L 154,86 L 154,81 L 152,79 Z" fill="none" stroke="black" stroke-width="5" /><path d="M 108,74 L 103,78 L 105,81 L 105,83 L 110,84 L 113,80 L 113,77 L 112,75 Z" fill="none" stroke="black" stroke-width="5" /><path d="M 26,64 L 22,64 L 19,66 L 19,70 L 21,73 L 23,74 L 28,72 L 28,65 Z" fill="none" stroke="black" stroke-width="5" /><path d="M 171,54 L 167,57 L 167,60 L 169,63 L 174,64 L 176,62 L 176,56 L 174,54 Z" fill="none" stroke="black" stroke-width="5" /><path d="M 77,53 L 75,55 L 75,60 L 76,60 L 77,61 L 77,62 L 82,62 L 86,58 L 85,55 L 83,53 Z" fill="none" stroke="black" stroke-width="5" /><path d="M 52,48 L 48,48 L 45,50 L 45,56 L 48,58 L 50,58 L 54,55 L 54,50 Z" fill="none" stroke="black" stroke-width="5" /><path d="M 241,37 L 239,39 L 239,44 L 242,46 L 244,46 L 247,44 L 248,40 L 245,37 Z" fill="none" stroke="black" stroke-width="5" /><path d="M 198,36 L 194,36 L 191,38 L 191,44 L 196,45 L 200,42 L 200,39 Z" fill="none" stroke="black" stroke-width="5" /><path d="M 214,17 L 213,18 L 213,24 L 214,24 L 215,25 L 215,26 L 219,26 L 222,23 L 222,19 L 221,18 L 221,17 Z" fill="none" stroke="black" stroke-width="5" /></svg>