<?xml version="1.0" encoding="utf-8" ?>
<svg baseProfile="full" height="218" style="background-color: transparent;" version="1.1" viewBox="0,0,261,218" width="261" xmlns="http://www.w3.org/2000/svg" xmlns:ev="http://www.w3.org/2001/xml-events" xmlns:xlink="http://www.w3.org/1999/xlink"><defs><style type="text/css"><![CDATA[
                svg {
                    shape-rendering: geometricPrecision;
                    border: none;
                    outline: none;
                }
                path, ellipse {
                    vector-effect: non-scaling-stroke;
                }
            ]]></style></defs><path d="M 127,198 L 124,198 L 120,201 L 120,206 L 121,207 L 127,207 L 129,205 L 129,200 Z" fill="none" stroke="black" stroke-width="5" /><path d="M 163,197 L 160,200 L 160,204 L 164,206 L 168,206 L 169,205 L 169,198 L 167,197 Z" fill="none" stroke="black" stroke-width="5" /><path d="M 90,196 L 88,196 L 87,197 L 86,197 L 84,199 L 84,203 L 86,205 L 88,205 L 89,206 L 90,205 L 91,205 L 93,203 L 93,199 Z" fill="none" stroke="black" stroke-width="5" /><path d="M 49,194 L 45,197 L 45,202 L 46,203 L 52,204 L 54,202 L 54,198 L 51,194 Z" fill="none" stroke="black" stroke-width="5" /><path d="M 10,194 L 7,197 L 7,200 L 11,203 L 14,203 L 17,199 L 17,196 L 15,194 Z" fill="none" stroke="black" stroke-width="5" /><path d="M 191,195 L 191,197 L 194,201 L 199,201 L 201,198 L 201,195 L 198,192 L 195,192 Z" fill="none" stroke="black" stroke-width="5" /><path d="M 200,162 L 198,164 L 198,168 L 200,170 L 201,170 L 202,171 L 203,171 L 204,170 L 205,170 L 205,169 L 207,167 L 207,164 L 205,162 Z" fill="none" stroke="black" stroke-width="5" /><path d="M 178,136 L 178,140 L 180,143 L 186,143 L 187,142 L 187,136 L 185,135 Z" fill="none" stroke="black" stroke-width="5" /><path d="M 158,113 L 156,115 L 156,120 L 159,122 L 161,122 L 165,119 L 165,116 L 162,113 Z" fill="none" stroke="black" stroke-width="5" /><path d="M 139,88 L 136,88 L 132,92 L 133,97 L 137,98 L 141,96 L 141,90 Z" fill="none" stroke="black" stroke-width="5" /><path d="M 110,70 L 106,73 L 106,75 L 108,79 L 113,79 L 115,77 L 115,71 L 114,70 Z" fill="none" stroke="black" stroke-width="5" /><path d="M 81,53 L 80,54 L 79,60 L 81,62 L 85,63 L 89,59 L 89,56 L 85,53 Z" fill="none" stroke="black" stroke-width="5" /><path d="M 55,34 L 52,37 L 52,39 L 58,43 L 61,41 L 62,37 L 60,34 Z" fill="none" stroke="black" stroke-width="5" /><path d="M 22,20 L 22,25 L 24,27 L 29,27 L 31,25 L 31,21 L 28,18 L 25,18 Z" fill="none" stroke="black" stroke-width="5" /></svg>