<?xml version="1.0" encoding="utf-8" ?>
<svg baseProfile="full" height="221" style="background-color: transparent;" version="1.1" viewBox="0,0,261,221" width="261" xmlns="http://www.w3.org/2000/svg" xmlns:ev="http://www.w3.org/2001/xml-events" xmlns:xlink="http://www.w3.org/1999/xlink"><defs><style type="text/css"><![CDATA[
                svg {
                    shape-rendering: geometricPrecision;
                    border: none;
                    outline: none;
                }
                path, ellipse {
                    vector-effect: non-scaling-stroke;
                }
            ]]></style></defs><path d="M 177,200 L 174,200 L 173,199 L 172,200 L 170,200 L 169,201 L 169,206 L 170,207 L 176,207 L 178,205 L 178,202 L 177,201 Z" fill="none" stroke="black" stroke-width="5" /><path d="M 141,194 L 137,198 L 137,201 L 140,204 L 143,204 L 146,201 L 146,196 L 143,194 Z" fill="none" stroke="black" stroke-width="5" /><path d="M 207,191 L 206,192 L 205,192 L 205,193 L 204,194 L 204,199 L 205,199 L 207,201 L 210,201 L 212,199 L 212,198 L 213,197 L 213,194 L 212,193 L 212,192 L 210,192 L 209,191 Z" fill="none" stroke="black" stroke-width="5" /><path d="M 111,188 L 109,190 L 109,196 L 110,197 L 116,197 L 117,195 L 117,191 L 116,189 Z" fill="none" stroke="black" stroke-width="5" /><path d="M 229,167 L 227,169 L 227,175 L 230,177 L 232,177 L 235,175 L 235,170 L 234,168 Z" fill="none" stroke="black" stroke-width="5" /><path d="M 118,159 L 116,161 L 116,165 L 119,168 L 121,168 L 124,165 L 124,160 L 123,159 Z" fill="none" stroke="black" stroke-width="5" /><path d="M 207,144 L 204,148 L 204,151 L 205,153 L 211,153 L 213,150 L 213,147 L 211,145 Z" fill="none" stroke="black" stroke-width="5" /><path d="M 179,126 L 177,128 L 177,134 L 178,135 L 184,135 L 186,133 L 186,128 L 184,126 Z" fill="none" stroke="black" stroke-width="5" /><path d="M 155,109 L 151,112 L 151,115 L 154,118 L 158,119 L 160,116 L 160,112 L 158,109 Z" fill="none" stroke="black" stroke-width="5" /><path d="M 100,100 L 99,100 L 97,98 L 96,99 L 93,99 L 91,101 L 91,103 L 92,104 L 92,106 L 93,107 L 98,107 L 100,105 Z" fill="none" stroke="black" stroke-width="5" /><path d="M 127,94 L 124,96 L 124,101 L 126,103 L 130,103 L 132,102 L 133,98 L 130,94 Z" fill="none" stroke="black" stroke-width="5" /><path d="M 61,96 L 61,101 L 63,103 L 68,103 L 70,101 L 70,96 L 67,94 L 65,94 Z" fill="none" stroke="black" stroke-width="5" /><path d="M 36,80 L 35,81 L 35,84 L 37,86 L 40,85 L 41,84 L 41,81 L 40,80 Z" fill="none" stroke="black" stroke-width="5" /><path d="M 157,71 L 154,70 L 150,73 L 150,77 L 151,79 L 156,79 L 158,77 L 158,72 Z" fill="none" stroke="black" stroke-width="5" /><path d="M 242,68 L 239,71 L 240,75 L 242,77 L 246,77 L 248,75 L 248,70 L 246,68 Z" fill="none" stroke="black" stroke-width="5" /><path d="M 172,46 L 169,48 L 169,55 L 175,57 L 178,54 L 178,48 L 175,46 Z" fill="none" stroke="black" stroke-width="5" /><path d="M 41,46 L 41,53 L 43,55 L 47,55 L 50,51 L 48,46 Z" fill="none" stroke="black" stroke-width="5" /><path d="M 245,36 L 243,38 L 243,42 L 245,45 L 250,45 L 253,41 L 252,37 L 250,36 Z" fill="none" stroke="black" stroke-width="5" /><path d="M 108,30 L 106,33 L 106,37 L 108,39 L 111,39 L 114,37 L 115,33 L 111,30 Z" fill="none" stroke="black" stroke-width="5" /><path d="M 193,26 L 190,30 L 190,33 L 191,35 L 196,35 L 198,33 L 198,28 L 196,26 Z" fill="none" stroke="black" stroke-width="5" /><path d="M 62,22 L 59,24 L 59,31 L 64,32 L 68,29 L 68,27 L 65,23 Z" fill="none" stroke="black" stroke-width="5" /><path d="M 227,11 L 224,13 L 224,18 L 227,21 L 230,21 L 232,19 L 232,13 L 229,11 Z" fill="none" stroke="black" stroke-width="5" /><path d="M 90,7 L 87,9 L 87,14 L 89,16 L 93,17 L 96,13 L 96,8 L 94,7 Z" fill="none" stroke="black" stroke-width="5" /></svg>