<?xml version="1.0" encoding="utf-8" ?>
<svg baseProfile="full" height="222" style="background-color: transparent;" version="1.1" viewBox="0,0,264,222" width="264" xmlns="http://www.w3.org/2000/svg" xmlns:ev="http://www.w3.org/2001/xml-events" xmlns:xlink="http://www.w3.org/1999/xlink"><defs><style type="text/css"><![CDATA[
                svg {
                    shape-rendering: geometricPrecision;
                    border: none;
                    outline: none;
                }
                path, ellipse {
                    vector-effect: non-scaling-stroke;
                }
            ]]></style></defs><path d="M 69,197 L 66,200 L 66,204 L 69,207 L 73,207 L 75,205 L 75,200 L 73,198 L 70,198 Z" fill="none" stroke="black" stroke-width="5" /><path d="M 103,194 L 101,197 L 102,203 L 104,204 L 109,203 L 110,202 L 110,197 L 109,195 Z" fill="none" stroke="black" stroke-width="5" /><path d="M 38,190 L 36,192 L 36,198 L 38,200 L 41,200 L 45,197 L 45,194 L 41,190 Z" fill="none" stroke="black" stroke-width="5" /><path d="M 128,180 L 126,182 L 126,188 L 128,189 L 133,189 L 135,187 L 135,182 L 133,180 Z" fill="none" stroke="black" stroke-width="5" /><path d="M 27,165 L 25,165 L 24,166 L 22,166 L 20,168 L 20,172 L 21,173 L 22,173 L 24,175 L 26,175 L 28,173 L 29,173 L 29,171 L 30,170 L 29,169 L 29,167 Z" fill="none" stroke="black" stroke-width="5" /><path d="M 135,147 L 132,150 L 132,153 L 135,156 L 140,156 L 141,155 L 141,153 L 142,152 L 141,151 L 141,149 L 139,147 Z" fill="none" stroke="black" stroke-width="5" /><path d="M 104,114 L 101,116 L 101,122 L 102,123 L 107,123 L 109,121 L 109,116 L 107,114 Z" fill="none" stroke="black" stroke-width="5" /><path d="M 165,114 L 163,114 L 162,113 L 161,114 L 160,114 L 158,116 L 158,121 L 160,123 L 163,123 L 166,121 L 166,120 L 167,119 L 167,116 Z" fill="none" stroke="black" stroke-width="5" /><path d="M 132,112 L 130,114 L 130,119 L 132,121 L 136,122 L 139,119 L 139,115 L 137,112 Z" fill="none" stroke="black" stroke-width="5" /><path d="M 74,112 L 70,112 L 68,114 L 68,118 L 69,119 L 72,120 L 75,118 L 76,115 Z" fill="none" stroke="black" stroke-width="5" /><path d="M 192,108 L 190,111 L 190,113 L 194,117 L 197,117 L 199,115 L 199,110 L 197,108 Z" fill="none" stroke="black" stroke-width="5" /><path d="M 41,97 L 38,101 L 39,103 L 41,104 L 44,104 L 46,102 L 46,98 L 44,97 Z" fill="none" stroke="black" stroke-width="5" /><path d="M 221,89 L 218,92 L 218,97 L 220,99 L 223,99 L 224,98 L 225,98 L 226,97 L 227,97 L 227,93 L 224,90 L 222,90 Z" fill="none" stroke="black" stroke-width="5" /><path d="M 138,81 L 136,81 L 133,83 L 133,87 L 135,91 L 137,91 L 141,89 L 141,83 Z" fill="none" stroke="black" stroke-width="5" /><path d="M 37,66 L 34,69 L 34,74 L 36,76 L 39,76 L 40,75 L 41,75 L 43,73 L 43,72 L 42,71 L 42,70 L 41,69 L 41,68 L 39,66 Z" fill="none" stroke="black" stroke-width="5" /><path d="M 230,58 L 227,62 L 227,65 L 230,68 L 233,68 L 237,65 L 237,62 L 234,59 Z" fill="none" stroke="black" stroke-width="5" /><path d="M 135,48 L 132,51 L 132,56 L 134,58 L 137,58 L 141,55 L 141,52 L 137,48 Z" fill="none" stroke="black" stroke-width="5" /><path d="M 36,40 L 35,41 L 35,45 L 38,49 L 43,48 L 44,47 L 44,42 L 42,40 Z" fill="none" stroke="black" stroke-width="5" /><path d="M 239,30 L 238,31 L 238,34 L 240,36 L 244,36 L 245,35 L 245,32 L 243,30 Z" fill="none" stroke="black" stroke-width="5" /><path d="M 132,14 L 131,15 L 130,15 L 128,18 L 129,19 L 129,22 L 132,24 L 135,24 L 136,23 L 137,23 L 137,22 L 138,21 L 139,18 L 138,17 L 138,16 L 136,14 Z" fill="none" stroke="black" stroke-width="5" /></svg>