<?xml version="1.0" encoding="utf-8" ?>
<svg baseProfile="full" height="222" style="background-color: transparent;" version="1.1" viewBox="0,0,262,222" width="262" xmlns="http://www.w3.org/2000/svg" xmlns:ev="http://www.w3.org/2001/xml-events" xmlns:xlink="http://www.w3.org/1999/xlink"><defs><style type="text/css"><![CDATA[
                svg {
                    shape-rendering: geometricPrecision;
                    border: none;
                    outline: none;
                }
                path, ellipse {
                    vector-effect: non-scaling-stroke;
                }
            ]]></style></defs><path d="M 200,214 L 197,210 L 197,207 L 192,202 L 184,215 Z" fill="none" stroke="black" stroke-width="5" /><path d="M 146,201 L 144,203 L 140,213 L 153,213 L 153,208 L 151,207 L 149,202 Z" fill="none" stroke="black" stroke-width="5" /><path d="M 69,201 L 66,205 L 66,208 L 70,212 L 72,212 L 76,208 L 76,205 L 73,201 Z" fill="none" stroke="black" stroke-width="5" /><path d="M 26,192 L 24,194 L 24,199 L 26,201 L 32,201 L 34,199 L 34,195 L 31,192 Z" fill="none" stroke="black" stroke-width="5" /><path d="M 101,180 L 96,188 L 96,192 L 102,191 L 108,192 L 109,191 L 108,188 Z" fill="none" stroke="black" stroke-width="5" /><path d="M 123,180 L 122,182 L 126,187 L 133,187 L 134,181 L 132,178 L 127,177 Z" fill="none" stroke="black" stroke-width="5" /><path d="M 225,175 L 223,174 L 220,177 L 215,187 L 220,188 L 229,187 L 229,182 L 225,178 Z" fill="none" stroke="black" stroke-width="5" /><path d="M 31,157 L 30,158 L 30,165 L 33,167 L 37,166 L 39,164 L 39,160 L 36,157 Z" fill="none" stroke="black" stroke-width="5" /><path d="M 69,162 L 70,163 L 76,163 L 77,164 L 80,164 L 80,161 L 77,159 L 76,156 L 73,156 L 72,159 Z" fill="none" stroke="black" stroke-width="5" /><path d="M 174,146 L 170,148 L 170,155 L 173,157 L 176,157 L 179,153 L 179,149 L 177,147 Z" fill="none" stroke="black" stroke-width="5" /><path d="M 202,129 L 202,131 L 198,136 L 198,140 L 201,141 L 209,140 L 209,136 L 204,129 Z" fill="none" stroke="black" stroke-width="5" /><path d="M 53,130 L 47,122 L 44,121 L 37,132 L 37,135 L 47,135 L 53,133 Z" fill="none" stroke="black" stroke-width="5" /><path d="M 225,98 L 221,101 L 221,106 L 222,107 L 228,108 L 231,105 L 231,103 L 227,98 Z" fill="none" stroke="black" stroke-width="5" /><path d="M 163,110 L 179,111 L 179,108 L 173,98 L 171,98 Z" fill="none" stroke="black" stroke-width="5" /><path d="M 64,98 L 61,102 L 62,106 L 63,107 L 70,107 L 71,106 L 71,101 L 69,98 Z" fill="none" stroke="black" stroke-width="5" /><path d="M 29,80 L 25,77 L 23,79 L 22,83 L 19,85 L 19,88 L 31,88 L 31,84 Z" fill="none" stroke="black" stroke-width="5" /><path d="M 91,71 L 87,74 L 87,78 L 91,81 L 94,81 L 97,78 L 96,73 L 94,71 Z" fill="none" stroke="black" stroke-width="5" /><path d="M 131,63 L 130,64 L 129,67 L 125,71 L 125,74 L 126,74 L 127,75 L 131,75 L 134,73 L 136,73 L 136,71 L 135,70 L 135,68 L 133,66 L 133,64 L 132,64 Z" fill="none" stroke="black" stroke-width="5" /><path d="M 238,62 L 236,64 L 235,70 L 236,71 L 242,71 L 245,68 L 245,65 L 242,62 Z" fill="none" stroke="black" stroke-width="5" /><path d="M 90,36 L 83,49 L 98,49 L 97,44 L 92,36 Z" fill="none" stroke="black" stroke-width="5" /><path d="M 146,34 L 142,37 L 142,39 L 145,43 L 149,43 L 151,41 L 152,36 L 150,34 Z" fill="none" stroke="black" stroke-width="5" /><path d="M 33,32 L 28,37 L 24,44 L 25,45 L 39,45 L 39,40 Z" fill="none" stroke="black" stroke-width="5" /><path d="M 217,27 L 218,33 L 220,35 L 224,35 L 226,33 L 226,27 L 224,25 L 220,25 Z" fill="none" stroke="black" stroke-width="5" /><path d="M 187,24 L 184,27 L 185,32 L 186,33 L 191,33 L 194,30 L 194,27 L 191,24 Z" fill="none" stroke="black" stroke-width="5" /></svg>