<?xml version='1.0' encoding='utf-8'?>
<svg width="256" height="219" xmlns="http://www.w3.org/2000/svg" viewBox="0 0 256 219"><rect width="256" height="219" fill="white" /><path d="M 96,121 L 95,122 L 45,122 L 44,123 L 34,123 L 33,124 L 32,124 L 31,123 L 30,123 L 29,122 L 27,124 L 30,127 L 30,129 L 32,131 L 32,133 L 33,134 L 33,135 L 34,136 L 34,137 L 35,138 L 35,139 L 36,140 L 36,141 L 37,142 L 37,143 L 38,144 L 38,145 L 39,146 L 39,147 L 40,148 L 40,150 L 42,152 L 42,154 L 44,156 L 44,158 L 46,160 L 46,163 L 48,165 L 48,167 L 50,169 L 50,170 L 51,171 L 51,172 L 52,173 L 52,175 L 54,177 L 54,179 L 56,181 L 56,183 L 57,184 L 61,180 L 61,179 L 63,177 L 63,176 L 65,174 L 65,173 L 67,171 L 67,170 L 69,168 L 69,167 L 71,165 L 71,163 L 73,161 L 73,160 L 75,158 L 75,157 L 77,155 L 77,154 L 78,153 L 78,152 L 79,151 L 79,150 L 81,148 L 81,147 L 83,145 L 83,144 L 85,142 L 85,141 L 87,139 L 87,138 L 89,136 L 89,135 L 91,133 L 91,132 L 92,131 L 92,130 L 93,129 L 93,128 L 95,126 L 95,125 L 97,123 L 98,123 L 98,122 L 97,121 Z" fill="black" /><path d="M 0,0 L 0,218 L 255,218 L 255,0 Z" fill="none" stroke="black" stroke-width="1" /></svg>