<?xml version='1.0' encoding='utf-8'?>
<svg width="256" height="218" xmlns="http://www.w3.org/2000/svg" viewBox="0 0 256 218"><rect width="256" height="218" fill="white" /><path d="M 177,88 L 177,89 L 176,90 L 176,91 L 175,92 L 175,93 L 173,95 L 173,96 L 172,97 L 169,97 L 164,92 L 163,92 L 160,89 L 158,91 L 158,95 L 157,96 L 156,96 L 155,97 L 149,91 L 149,90 L 147,90 L 146,91 L 146,94 L 145,95 L 145,96 L 143,98 L 142,98 L 138,94 L 138,93 L 137,92 L 137,91 L 135,91 L 135,92 L 133,94 L 132,94 L 130,96 L 130,101 L 129,102 L 129,103 L 128,104 L 128,108 L 129,109 L 129,110 L 130,111 L 130,113 L 131,113 L 132,114 L 132,116 L 134,118 L 134,119 L 135,120 L 135,121 L 136,122 L 136,123 L 138,125 L 138,127 L 140,129 L 140,130 L 142,132 L 142,133 L 143,134 L 143,135 L 144,136 L 144,137 L 146,139 L 146,140 L 148,142 L 148,143 L 149,144 L 149,145 L 150,146 L 150,147 L 151,148 L 151,149 L 152,150 L 152,151 L 154,153 L 154,154 L 156,156 L 156,157 L 157,158 L 157,159 L 158,160 L 158,161 L 159,161 L 160,162 L 160,163 L 161,163 L 162,164 L 162,165 L 163,165 L 165,167 L 167,167 L 170,170 L 171,169 L 171,161 L 170,160 L 170,158 L 171,157 L 173,157 L 175,159 L 176,159 L 177,160 L 178,160 L 179,159 L 180,159 L 180,156 L 179,155 L 179,154 L 178,153 L 178,152 L 177,151 L 177,150 L 179,148 L 180,148 L 182,150 L 182,151 L 183,151 L 184,152 L 186,152 L 187,151 L 187,149 L 183,145 L 183,144 L 182,143 L 182,141 L 184,139 L 185,140 L 186,140 L 187,141 L 188,141 L 190,143 L 193,143 L 193,141 L 192,140 L 192,139 L 191,138 L 191,137 L 190,136 L 192,134 L 194,134 L 195,135 L 196,135 L 198,137 L 200,137 L 201,136 L 201,132 L 200,131 L 200,130 L 199,129 L 199,127 L 198,126 L 198,123 L 199,122 L 211,122 L 211,116 L 210,115 L 210,114 L 209,113 L 209,110 L 210,109 L 210,107 L 211,106 L 211,105 L 213,103 L 213,100 L 212,99 L 210,99 L 209,100 L 206,100 L 203,103 L 199,99 L 199,98 L 197,96 L 197,95 L 196,94 L 195,94 L 193,92 L 192,92 L 190,94 L 189,94 L 189,95 L 188,96 L 186,96 L 183,93 L 183,92 L 180,89 L 180,88 Z" fill="black" /></svg>