<?xml version='1.0' encoding='utf-8'?>
<svg width="257" height="216" xmlns="http://www.w3.org/2000/svg" viewBox="0 0 257 216"><rect width="257" height="216" fill="white" /><path d="M 116,20 L 115,21 L 114,21 L 114,22 L 113,23 L 113,24 L 111,26 L 111,27 L 109,29 L 109,30 L 108,31 L 108,32 L 107,33 L 107,34 L 105,36 L 105,38 L 103,40 L 103,42 L 102,43 L 101,43 L 101,45 L 99,47 L 99,49 L 97,51 L 97,52 L 96,53 L 96,54 L 95,55 L 95,56 L 93,58 L 93,60 L 91,62 L 91,63 L 89,65 L 89,66 L 88,67 L 88,68 L 87,69 L 87,71 L 85,73 L 85,74 L 84,75 L 84,76 L 83,77 L 83,78 L 81,80 L 81,82 L 79,84 L 79,85 L 77,87 L 77,89 L 75,91 L 75,92 L 74,93 L 74,94 L 73,95 L 73,96 L 72,97 L 72,98 L 71,99 L 71,100 L 69,102 L 69,104 L 67,106 L 67,108 L 66,109 L 65,109 L 65,110 L 64,111 L 64,112 L 63,113 L 63,114 L 62,115 L 62,116 L 61,117 L 61,118 L 59,120 L 59,122 L 57,124 L 57,125 L 55,127 L 55,129 L 53,131 L 53,132 L 52,133 L 52,134 L 51,135 L 51,136 L 49,138 L 49,140 L 47,142 L 47,144 L 46,145 L 45,145 L 45,148 L 44,149 L 43,149 L 43,151 L 41,153 L 41,154 L 40,155 L 40,156 L 39,157 L 39,158 L 38,159 L 38,160 L 37,161 L 37,162 L 36,163 L 36,164 L 35,165 L 35,166 L 33,168 L 33,170 L 32,171 L 31,171 L 31,173 L 28,176 L 29,177 L 29,178 L 31,178 L 32,177 L 40,177 L 41,178 L 46,178 L 47,177 L 48,178 L 59,178 L 60,177 L 70,177 L 71,176 L 89,176 L 90,177 L 174,177 L 175,176 L 176,176 L 177,177 L 208,177 L 209,176 L 212,176 L 213,177 L 215,177 L 216,176 L 216,174 L 215,173 L 215,172 L 214,171 L 214,169 L 213,169 L 212,168 L 212,167 L 211,166 L 211,165 L 208,162 L 208,161 L 207,160 L 207,159 L 204,156 L 204,155 L 202,153 L 202,151 L 201,151 L 200,150 L 200,149 L 199,148 L 199,147 L 198,146 L 198,145 L 196,143 L 196,142 L 194,140 L 194,139 L 192,137 L 192,136 L 190,134 L 190,133 L 188,131 L 188,130 L 186,128 L 186,127 L 184,125 L 184,124 L 182,122 L 182,121 L 181,120 L 181,119 L 180,118 L 180,117 L 179,117 L 178,116 L 178,115 L 177,114 L 177,113 L 176,112 L 176,111 L 174,109 L 174,108 L 172,106 L 172,105 L 171,105 L 170,104 L 170,102 L 168,100 L 168,99 L 165,96 L 165,95 L 162,92 L 162,90 L 160,88 L 160,87 L 159,86 L 159,85 L 158,85 L 157,84 L 157,83 L 156,82 L 156,81 L 155,81 L 154,80 L 154,78 L 150,74 L 150,72 L 148,70 L 148,69 L 146,67 L 146,66 L 144,64 L 144,63 L 143,62 L 143,61 L 142,60 L 142,59 L 141,59 L 140,58 L 140,57 L 138,55 L 138,53 L 137,53 L 136,52 L 136,50 L 134,48 L 134,47 L 132,45 L 132,43 L 131,43 L 130,42 L 130,41 L 129,40 L 129,39 L 128,38 L 128,37 L 127,37 L 126,36 L 126,35 L 125,34 L 125,33 L 123,31 L 123,30 L 121,28 L 121,27 L 120,26 L 120,25 L 118,25 L 117,24 L 117,21 Z" fill="black" /><path d="M 0,0 L 0,215 L 256,215 L 256,0 Z" fill="none" stroke="black" stroke-width="1" /></svg>