<?xml version='1.0' encoding='utf-8'?>
<svg width="259" height="216" xmlns="http://www.w3.org/2000/svg" viewBox="0 0 259 216"><rect width="259" height="216" fill="white" /><path d="M 110,35 L 109,36 L 107,36 L 106,37 L 106,38 L 105,39 L 105,40 L 107,42 L 107,43 L 111,47 L 111,49 L 112,50 L 110,52 L 93,52 L 91,54 L 91,55 L 93,57 L 94,57 L 97,60 L 97,61 L 100,64 L 97,67 L 94,67 L 93,66 L 90,66 L 89,67 L 85,67 L 83,69 L 91,77 L 91,78 L 92,79 L 92,82 L 91,83 L 77,83 L 76,84 L 73,84 L 72,85 L 72,86 L 75,89 L 76,89 L 82,95 L 82,96 L 83,97 L 82,98 L 81,98 L 80,99 L 79,98 L 77,98 L 76,99 L 75,99 L 74,100 L 69,100 L 68,99 L 66,99 L 65,100 L 63,100 L 62,101 L 62,104 L 63,105 L 63,106 L 65,108 L 66,108 L 67,109 L 68,109 L 69,110 L 69,111 L 70,112 L 67,115 L 63,115 L 62,114 L 55,114 L 54,115 L 54,117 L 55,118 L 55,119 L 54,120 L 54,121 L 60,127 L 60,128 L 61,129 L 59,131 L 58,131 L 57,130 L 53,130 L 52,131 L 44,131 L 44,134 L 45,135 L 46,135 L 47,136 L 47,137 L 53,143 L 53,145 L 52,146 L 51,146 L 50,147 L 46,147 L 45,148 L 33,148 L 33,154 L 34,155 L 34,156 L 35,157 L 35,158 L 36,159 L 36,160 L 37,161 L 37,164 L 39,166 L 39,169 L 40,170 L 40,171 L 41,172 L 41,175 L 43,177 L 43,179 L 44,180 L 44,181 L 45,182 L 45,183 L 48,183 L 50,181 L 50,180 L 51,179 L 51,178 L 52,177 L 52,174 L 53,173 L 53,170 L 55,168 L 57,168 L 59,170 L 59,172 L 61,174 L 61,179 L 62,180 L 62,183 L 63,184 L 64,184 L 65,183 L 66,183 L 66,179 L 67,178 L 67,177 L 68,176 L 68,172 L 69,171 L 69,170 L 71,168 L 72,168 L 74,170 L 74,171 L 77,174 L 77,175 L 78,176 L 78,178 L 79,179 L 83,179 L 83,178 L 85,176 L 85,175 L 86,174 L 86,171 L 87,170 L 90,170 L 91,171 L 91,172 L 93,174 L 93,175 L 94,176 L 94,177 L 95,178 L 95,179 L 97,181 L 100,181 L 100,179 L 101,178 L 101,176 L 102,175 L 102,172 L 104,170 L 106,170 L 108,172 L 108,173 L 109,174 L 109,175 L 110,175 L 111,176 L 111,177 L 112,178 L 112,180 L 113,181 L 113,182 L 116,182 L 117,181 L 118,181 L 120,179 L 120,177 L 121,176 L 121,175 L 123,173 L 125,173 L 127,175 L 127,178 L 129,180 L 128,181 L 128,182 L 129,183 L 133,183 L 134,182 L 134,180 L 136,178 L 136,176 L 137,175 L 139,175 L 141,177 L 141,180 L 143,182 L 143,185 L 148,185 L 148,182 L 149,181 L 149,180 L 150,179 L 150,178 L 151,177 L 151,175 L 153,173 L 154,173 L 156,175 L 156,177 L 157,178 L 157,179 L 158,180 L 158,181 L 159,182 L 159,183 L 160,184 L 160,185 L 163,185 L 166,182 L 166,180 L 167,179 L 167,178 L 168,177 L 168,174 L 169,173 L 170,173 L 171,172 L 174,175 L 174,177 L 177,180 L 177,183 L 178,184 L 178,185 L 181,185 L 184,182 L 184,180 L 186,178 L 186,176 L 188,174 L 189,175 L 190,175 L 191,176 L 191,178 L 193,180 L 193,181 L 194,182 L 194,183 L 195,184 L 195,185 L 197,187 L 199,187 L 200,186 L 200,182 L 201,181 L 201,178 L 202,177 L 202,174 L 203,173 L 203,172 L 204,171 L 204,166 L 206,164 L 206,162 L 208,160 L 208,158 L 211,155 L 211,154 L 212,153 L 212,152 L 213,151 L 214,151 L 215,150 L 215,147 L 211,147 L 210,148 L 209,148 L 208,149 L 207,149 L 206,150 L 202,150 L 201,151 L 200,151 L 198,149 L 199,148 L 199,147 L 201,145 L 201,144 L 203,142 L 204,142 L 204,141 L 205,140 L 205,137 L 204,136 L 193,136 L 192,137 L 191,137 L 189,135 L 190,134 L 190,133 L 191,132 L 191,131 L 193,129 L 194,129 L 194,128 L 195,127 L 195,126 L 197,124 L 197,122 L 196,121 L 194,121 L 193,122 L 190,122 L 189,123 L 186,123 L 185,124 L 184,124 L 183,125 L 182,125 L 180,123 L 180,121 L 182,119 L 183,119 L 184,118 L 184,116 L 185,115 L 185,114 L 187,112 L 189,112 L 189,109 L 185,109 L 184,108 L 181,108 L 180,109 L 171,109 L 170,108 L 170,107 L 171,106 L 171,105 L 174,102 L 174,101 L 178,97 L 178,94 L 177,93 L 175,93 L 174,94 L 166,94 L 165,95 L 163,95 L 161,93 L 162,92 L 162,91 L 166,87 L 166,85 L 168,83 L 168,82 L 170,80 L 170,76 L 162,76 L 161,77 L 160,77 L 159,78 L 158,78 L 157,79 L 155,77 L 155,76 L 156,75 L 156,74 L 160,70 L 160,68 L 161,67 L 162,67 L 163,66 L 163,64 L 162,63 L 157,63 L 156,64 L 151,64 L 150,65 L 148,65 L 147,66 L 145,66 L 143,64 L 143,61 L 146,58 L 146,57 L 147,56 L 147,55 L 148,54 L 148,52 L 147,51 L 146,51 L 145,50 L 142,50 L 141,51 L 138,51 L 137,52 L 136,52 L 135,53 L 133,51 L 133,50 L 134,49 L 134,46 L 133,45 L 133,43 L 134,42 L 133,41 L 133,40 L 132,39 L 132,38 L 129,35 L 128,35 L 127,36 L 113,36 L 112,35 Z" fill="black" /><path d="M 0,0 L 0,215 L 258,215 L 258,0 Z" fill="none" stroke="black" stroke-width="1" /></svg>