<?xml version='1.0' encoding='utf-8'?>
<svg width="260" height="220" xmlns="http://www.w3.org/2000/svg" viewBox="0 0 260 220"><rect width="260" height="220" fill="white" /><path d="M 131,89 L 130,90 L 128,90 L 127,91 L 126,91 L 121,96 L 120,96 L 118,98 L 118,101 L 117,102 L 117,103 L 116,104 L 116,114 L 117,115 L 117,116 L 118,117 L 118,119 L 119,119 L 120,120 L 120,122 L 122,124 L 123,124 L 124,125 L 125,125 L 126,126 L 127,126 L 128,127 L 133,127 L 134,128 L 139,128 L 140,127 L 143,127 L 145,125 L 147,125 L 149,123 L 149,122 L 150,121 L 151,121 L 151,120 L 153,118 L 153,116 L 154,115 L 154,112 L 155,111 L 155,107 L 154,106 L 154,104 L 153,103 L 153,100 L 152,99 L 152,98 L 147,93 L 146,93 L 143,90 L 139,90 L 138,89 Z" fill="black" /></svg>