<?xml version='1.0' encoding='utf-8'?>
<svg width="255" height="217" xmlns="http://www.w3.org/2000/svg" viewBox="0 0 255 217"><rect width="255" height="217" fill="white" /><path d="M 122,60 L 121,61 L 120,61 L 118,63 L 118,64 L 115,67 L 115,68 L 110,73 L 110,74 L 109,75 L 108,75 L 108,76 L 107,77 L 106,77 L 106,78 L 98,86 L 98,87 L 93,92 L 91,92 L 90,93 L 90,95 L 91,95 L 92,96 L 93,96 L 94,97 L 95,97 L 96,98 L 97,98 L 99,100 L 100,100 L 102,102 L 104,102 L 106,104 L 107,104 L 108,105 L 109,105 L 110,106 L 111,106 L 113,108 L 114,108 L 116,110 L 117,110 L 118,111 L 119,111 L 120,112 L 121,112 L 123,114 L 124,114 L 126,116 L 128,116 L 129,117 L 130,117 L 131,118 L 132,118 L 134,116 L 135,116 L 135,115 L 136,114 L 137,114 L 137,113 L 138,112 L 139,112 L 139,111 L 142,108 L 142,107 L 149,100 L 149,99 L 152,96 L 153,96 L 153,95 L 154,94 L 155,94 L 155,93 L 160,88 L 160,87 L 161,86 L 161,85 L 163,83 L 163,82 L 162,82 L 161,81 L 160,81 L 159,80 L 158,80 L 157,79 L 156,79 L 155,78 L 155,77 L 153,77 L 151,75 L 150,75 L 148,73 L 146,73 L 144,71 L 143,71 L 141,69 L 140,69 L 138,67 L 137,67 L 135,65 L 134,65 L 133,64 L 132,64 L 131,63 L 130,63 L 128,61 L 126,61 L 125,60 Z" fill="black" /></svg>