<?xml version='1.0' encoding='utf-8'?>
<svg width="258" height="216" xmlns="http://www.w3.org/2000/svg" viewBox="0 0 258 216"><rect width="258" height="216" fill="white" /><path d="M 24,19 L 23,20 L 22,20 L 23,21 L 23,22 L 24,23 L 25,23 L 26,24 L 26,25 L 29,28 L 29,29 L 36,36 L 36,37 L 37,37 L 38,38 L 38,39 L 39,39 L 42,42 L 42,43 L 46,47 L 46,48 L 54,56 L 54,57 L 61,64 L 61,65 L 66,70 L 66,71 L 67,71 L 68,72 L 68,73 L 69,73 L 70,74 L 70,75 L 76,81 L 76,82 L 80,86 L 80,87 L 82,89 L 82,90 L 84,92 L 85,92 L 88,95 L 88,96 L 98,106 L 98,107 L 99,107 L 100,108 L 100,109 L 101,109 L 102,110 L 102,111 L 106,115 L 106,116 L 110,120 L 110,121 L 111,121 L 112,122 L 112,123 L 113,123 L 114,124 L 114,125 L 118,129 L 119,129 L 122,132 L 122,133 L 127,138 L 127,139 L 134,146 L 134,147 L 135,147 L 136,148 L 136,149 L 137,149 L 138,150 L 138,151 L 139,151 L 142,154 L 142,155 L 150,163 L 150,164 L 158,172 L 158,173 L 159,173 L 160,174 L 160,175 L 161,175 L 164,178 L 164,179 L 169,184 L 169,185 L 174,190 L 174,191 L 175,191 L 176,192 L 176,194 L 178,196 L 180,194 L 180,193 L 181,192 L 181,191 L 183,189 L 183,188 L 186,185 L 186,184 L 187,183 L 187,182 L 188,181 L 189,181 L 189,180 L 193,176 L 193,175 L 195,173 L 195,172 L 196,171 L 197,171 L 197,170 L 199,168 L 199,167 L 201,165 L 201,164 L 204,161 L 205,161 L 205,160 L 208,157 L 208,156 L 211,153 L 211,152 L 214,149 L 215,149 L 215,148 L 218,145 L 218,144 L 220,142 L 220,140 L 219,139 L 218,139 L 215,136 L 213,136 L 211,134 L 210,134 L 208,132 L 207,132 L 205,130 L 204,130 L 203,129 L 202,129 L 201,128 L 200,128 L 199,127 L 199,126 L 197,126 L 195,124 L 194,124 L 193,123 L 193,122 L 191,122 L 189,120 L 188,120 L 186,118 L 184,118 L 183,117 L 183,116 L 182,116 L 180,114 L 178,114 L 176,112 L 174,112 L 173,111 L 173,110 L 172,110 L 170,108 L 168,108 L 167,107 L 167,106 L 165,106 L 163,104 L 162,104 L 160,102 L 159,102 L 157,100 L 156,100 L 154,98 L 153,98 L 152,97 L 151,97 L 150,96 L 149,96 L 147,94 L 146,94 L 144,92 L 143,92 L 141,90 L 140,90 L 139,89 L 138,89 L 137,88 L 136,88 L 135,87 L 135,86 L 134,86 L 133,85 L 132,85 L 131,84 L 130,84 L 128,82 L 127,82 L 125,80 L 124,80 L 123,79 L 122,79 L 119,76 L 118,76 L 117,75 L 116,75 L 115,74 L 114,74 L 112,72 L 111,72 L 109,70 L 108,70 L 106,68 L 105,68 L 103,66 L 102,66 L 101,65 L 100,65 L 99,64 L 98,64 L 96,62 L 95,62 L 93,60 L 92,60 L 90,58 L 88,58 L 87,57 L 87,56 L 86,56 L 85,55 L 84,55 L 83,54 L 82,54 L 81,53 L 81,52 L 80,52 L 79,51 L 78,51 L 77,50 L 76,50 L 74,48 L 73,48 L 71,46 L 70,46 L 68,44 L 67,44 L 65,42 L 64,42 L 63,41 L 62,41 L 61,40 L 60,40 L 59,39 L 59,38 L 57,38 L 55,36 L 54,36 L 52,34 L 51,34 L 49,32 L 48,32 L 47,31 L 46,31 L 45,30 L 44,30 L 42,28 L 41,28 L 39,26 L 38,26 L 36,24 L 35,24 L 33,22 L 31,22 L 29,20 L 25,20 Z" fill="black" /><path d="M 0,0 L 0,215 L 257,215 L 257,0 Z" fill="none" stroke="black" stroke-width="1" /></svg>