<?xml version='1.0' encoding='utf-8'?>
<svg width="258" height="222" xmlns="http://www.w3.org/2000/svg" viewBox="0 0 258 222"><rect width="258" height="222" fill="white" /><path d="M 100,15 L 100,16 L 99,17 L 99,20 L 98,21 L 98,24 L 97,25 L 97,26 L 96,27 L 96,30 L 95,31 L 95,32 L 94,33 L 94,36 L 92,38 L 92,41 L 91,42 L 91,43 L 90,44 L 90,46 L 89,47 L 89,48 L 88,49 L 88,52 L 87,53 L 87,54 L 86,55 L 86,58 L 84,60 L 84,63 L 83,64 L 83,65 L 82,66 L 82,69 L 80,71 L 80,75 L 78,77 L 78,81 L 76,83 L 76,86 L 75,87 L 75,88 L 74,89 L 74,92 L 72,94 L 72,98 L 70,100 L 70,103 L 69,104 L 69,105 L 68,106 L 68,108 L 67,109 L 67,113 L 68,114 L 68,117 L 69,118 L 69,119 L 70,120 L 70,123 L 71,124 L 71,125 L 72,126 L 72,129 L 73,130 L 73,131 L 74,132 L 74,135 L 75,136 L 75,137 L 76,138 L 76,142 L 77,143 L 77,144 L 78,145 L 78,148 L 79,149 L 79,150 L 80,151 L 80,154 L 81,155 L 81,156 L 82,157 L 82,160 L 83,161 L 83,162 L 84,163 L 84,166 L 85,167 L 85,168 L 86,169 L 86,172 L 87,173 L 87,174 L 88,175 L 88,178 L 89,179 L 89,180 L 90,181 L 90,183 L 91,184 L 91,185 L 92,186 L 92,189 L 94,191 L 94,194 L 95,195 L 95,196 L 96,197 L 96,201 L 97,202 L 97,203 L 98,204 L 98,207 L 99,207 L 103,203 L 103,199 L 104,198 L 104,197 L 105,196 L 105,193 L 106,192 L 106,191 L 107,190 L 107,187 L 108,186 L 108,185 L 109,184 L 109,181 L 110,180 L 110,179 L 111,178 L 111,175 L 112,174 L 112,173 L 113,172 L 113,169 L 114,168 L 114,167 L 115,166 L 115,163 L 116,162 L 116,161 L 117,160 L 117,157 L 118,156 L 118,155 L 119,154 L 119,151 L 120,150 L 120,149 L 121,148 L 121,144 L 122,143 L 122,142 L 123,141 L 123,138 L 124,137 L 124,135 L 125,134 L 125,131 L 126,130 L 126,129 L 127,128 L 127,125 L 128,124 L 128,122 L 129,121 L 129,117 L 130,116 L 130,115 L 131,114 L 131,107 L 130,106 L 130,105 L 129,104 L 129,100 L 128,99 L 128,98 L 127,97 L 127,95 L 126,94 L 126,91 L 125,90 L 125,87 L 124,86 L 124,85 L 123,84 L 123,81 L 122,80 L 122,79 L 121,78 L 121,75 L 120,74 L 120,73 L 119,72 L 119,68 L 118,67 L 118,66 L 117,65 L 117,61 L 116,60 L 116,59 L 115,58 L 115,54 L 114,53 L 114,51 L 113,50 L 113,48 L 112,47 L 112,46 L 111,45 L 111,42 L 110,41 L 110,40 L 109,39 L 109,35 L 108,34 L 108,33 L 107,32 L 107,29 L 106,28 L 106,27 L 105,26 L 105,23 L 104,22 L 104,21 L 103,20 L 103,15 Z" fill="black" /><path d="M 0,0 L 0,221 L 257,221 L 257,0 Z" fill="none" stroke="black" stroke-width="1" /></svg>