<?xml version='1.0' encoding='utf-8'?>
<svg width="253" height="218" xmlns="http://www.w3.org/2000/svg" viewBox="0 0 253 218"><rect width="253" height="218" fill="white" /><path d="M 127,49 L 126,50 L 118,50 L 117,51 L 116,51 L 115,52 L 111,52 L 110,53 L 109,53 L 108,54 L 107,54 L 106,55 L 105,55 L 104,56 L 102,56 L 100,58 L 99,58 L 98,59 L 97,59 L 96,60 L 95,60 L 91,64 L 90,64 L 84,70 L 84,71 L 79,76 L 79,77 L 78,78 L 77,78 L 77,79 L 76,80 L 76,81 L 75,82 L 75,83 L 74,84 L 74,85 L 73,86 L 73,88 L 72,89 L 72,90 L 71,91 L 71,93 L 70,94 L 70,95 L 69,96 L 69,97 L 68,98 L 68,100 L 67,101 L 67,105 L 66,106 L 66,111 L 67,112 L 66,113 L 66,121 L 67,122 L 67,131 L 68,132 L 68,133 L 69,134 L 69,137 L 70,138 L 70,139 L 71,140 L 71,142 L 73,144 L 73,146 L 75,148 L 75,150 L 77,152 L 77,153 L 78,154 L 78,155 L 81,158 L 81,159 L 82,159 L 83,160 L 83,161 L 84,161 L 85,162 L 85,163 L 86,163 L 87,164 L 87,165 L 88,165 L 93,170 L 94,170 L 97,173 L 99,173 L 101,175 L 102,175 L 104,177 L 107,177 L 108,178 L 110,178 L 111,179 L 112,179 L 113,180 L 114,180 L 115,181 L 119,181 L 120,182 L 124,182 L 125,183 L 127,183 L 128,182 L 134,182 L 135,183 L 140,183 L 141,182 L 146,182 L 147,181 L 151,181 L 152,180 L 154,180 L 155,179 L 158,179 L 161,176 L 164,176 L 165,175 L 166,175 L 169,172 L 170,172 L 171,171 L 172,171 L 174,169 L 176,169 L 178,167 L 178,166 L 179,165 L 180,165 L 180,164 L 181,163 L 182,163 L 182,162 L 183,161 L 184,161 L 184,160 L 187,157 L 187,156 L 188,155 L 188,154 L 189,153 L 190,153 L 190,151 L 191,150 L 191,149 L 194,146 L 194,143 L 195,142 L 195,140 L 196,139 L 196,138 L 198,136 L 198,131 L 199,130 L 199,124 L 200,123 L 200,106 L 199,105 L 199,103 L 198,102 L 198,97 L 196,95 L 196,92 L 195,91 L 195,89 L 194,88 L 194,86 L 192,84 L 192,83 L 190,81 L 190,80 L 188,78 L 188,77 L 186,75 L 186,74 L 184,72 L 183,72 L 182,71 L 182,70 L 179,67 L 179,66 L 178,66 L 176,64 L 175,64 L 172,61 L 171,61 L 170,60 L 169,60 L 167,58 L 166,58 L 164,56 L 163,56 L 162,55 L 161,55 L 160,54 L 158,54 L 157,53 L 156,53 L 155,52 L 152,52 L 151,51 L 150,51 L 149,50 L 141,50 L 140,49 Z" fill="black" /></svg>