<?xml version='1.0' encoding='utf-8'?>
<svg width="255" height="219" xmlns="http://www.w3.org/2000/svg" viewBox="0 0 255 219"><rect width="255" height="219" fill="white" /><path d="M 184,14 L 181,17 L 181,18 L 180,19 L 179,19 L 179,20 L 176,23 L 175,23 L 175,24 L 174,25 L 173,25 L 173,26 L 172,27 L 171,27 L 171,28 L 170,29 L 169,29 L 169,30 L 168,31 L 167,31 L 167,32 L 166,33 L 165,33 L 165,34 L 164,35 L 163,35 L 163,36 L 162,37 L 161,37 L 161,38 L 160,39 L 159,39 L 159,40 L 158,41 L 157,41 L 157,42 L 156,43 L 155,43 L 155,44 L 154,45 L 153,45 L 153,46 L 152,47 L 151,47 L 151,48 L 148,51 L 147,51 L 147,52 L 142,57 L 141,57 L 141,58 L 126,73 L 126,74 L 115,85 L 115,86 L 112,89 L 111,89 L 111,90 L 110,91 L 109,91 L 109,92 L 108,93 L 107,93 L 107,94 L 106,95 L 105,95 L 105,96 L 104,97 L 103,97 L 103,98 L 102,99 L 101,99 L 101,100 L 100,101 L 99,101 L 99,102 L 90,111 L 90,112 L 73,129 L 73,130 L 72,131 L 71,131 L 71,132 L 70,133 L 69,133 L 69,134 L 68,135 L 67,135 L 67,136 L 66,137 L 65,137 L 65,138 L 64,139 L 63,139 L 55,147 L 55,148 L 52,151 L 51,151 L 39,163 L 39,177 L 38,178 L 38,189 L 39,190 L 39,196 L 40,196 L 41,195 L 42,195 L 45,198 L 45,199 L 57,199 L 58,198 L 59,198 L 60,199 L 62,199 L 63,198 L 66,198 L 67,199 L 70,199 L 71,198 L 82,198 L 82,197 L 99,180 L 100,180 L 100,179 L 106,173 L 106,172 L 112,166 L 112,165 L 115,162 L 116,162 L 118,160 L 118,159 L 119,158 L 120,158 L 120,157 L 121,156 L 122,156 L 122,155 L 123,154 L 124,154 L 124,153 L 125,152 L 126,152 L 126,151 L 127,150 L 128,150 L 128,149 L 131,146 L 132,146 L 132,145 L 145,132 L 145,131 L 146,130 L 147,130 L 147,129 L 160,116 L 160,115 L 161,114 L 162,114 L 164,112 L 164,111 L 167,108 L 168,108 L 170,106 L 170,105 L 171,104 L 172,104 L 172,103 L 179,96 L 180,96 L 180,95 L 188,87 L 188,86 L 192,82 L 192,81 L 195,78 L 196,78 L 196,77 L 199,74 L 200,74 L 202,72 L 202,71 L 205,68 L 206,68 L 206,67 L 215,58 L 216,58 L 216,57 L 219,54 L 221,54 L 222,53 L 222,51 L 187,51 L 186,50 L 186,14 Z" fill="black" /><path d="M 0,0 L 0,218 L 254,218 L 254,0 Z" fill="none" stroke="black" stroke-width="1" /></svg>