<?xml version='1.0' encoding='utf-8'?>
<svg width="256" height="220" xmlns="http://www.w3.org/2000/svg" viewBox="0 0 256 220"><rect width="256" height="220" fill="white" /><path d="M 31,33 L 30,34 L 27,34 L 26,35 L 25,35 L 24,36 L 22,36 L 20,38 L 19,38 L 17,40 L 17,41 L 16,42 L 16,43 L 15,44 L 15,51 L 18,54 L 20,54 L 21,55 L 26,55 L 27,56 L 36,56 L 37,57 L 46,57 L 47,58 L 48,58 L 49,59 L 50,59 L 51,60 L 52,60 L 53,61 L 54,61 L 55,62 L 55,63 L 56,63 L 58,65 L 59,65 L 61,67 L 61,68 L 63,70 L 63,71 L 65,73 L 65,87 L 66,88 L 66,93 L 67,94 L 67,96 L 69,98 L 69,100 L 71,102 L 71,103 L 73,105 L 73,107 L 75,109 L 76,109 L 77,110 L 78,110 L 79,111 L 80,111 L 81,112 L 82,112 L 83,113 L 84,113 L 85,114 L 86,114 L 87,115 L 91,115 L 92,116 L 94,116 L 95,117 L 100,117 L 101,116 L 108,116 L 109,117 L 112,117 L 113,118 L 114,118 L 115,119 L 117,119 L 119,121 L 120,121 L 121,122 L 121,123 L 122,123 L 123,124 L 123,125 L 124,125 L 127,128 L 127,130 L 129,132 L 129,133 L 130,134 L 130,135 L 131,136 L 131,141 L 133,143 L 132,144 L 132,147 L 133,148 L 133,152 L 135,154 L 135,156 L 137,158 L 137,159 L 139,161 L 140,161 L 144,165 L 145,165 L 147,167 L 148,167 L 149,168 L 149,169 L 150,169 L 151,170 L 152,170 L 153,171 L 155,171 L 156,172 L 158,172 L 159,173 L 170,173 L 171,174 L 172,174 L 173,173 L 177,173 L 178,174 L 181,174 L 182,175 L 184,175 L 185,176 L 186,176 L 190,180 L 190,181 L 191,182 L 191,183 L 192,183 L 193,184 L 193,185 L 194,186 L 194,187 L 195,188 L 195,190 L 197,192 L 197,197 L 198,198 L 198,201 L 199,202 L 199,205 L 200,206 L 200,208 L 201,209 L 201,210 L 202,211 L 204,211 L 205,212 L 205,213 L 206,213 L 207,214 L 208,214 L 209,215 L 218,215 L 220,213 L 222,213 L 224,211 L 225,211 L 226,210 L 226,207 L 227,206 L 227,205 L 228,204 L 228,193 L 227,192 L 227,189 L 226,188 L 226,183 L 225,182 L 225,179 L 224,178 L 224,176 L 223,175 L 223,174 L 222,173 L 222,171 L 221,170 L 221,169 L 220,168 L 220,166 L 218,164 L 218,163 L 215,160 L 214,160 L 206,152 L 201,152 L 200,151 L 199,151 L 198,150 L 196,150 L 195,149 L 191,149 L 190,150 L 189,149 L 187,149 L 186,148 L 175,148 L 174,147 L 174,146 L 172,146 L 170,144 L 169,144 L 166,141 L 166,140 L 165,140 L 162,137 L 162,136 L 160,134 L 160,132 L 158,130 L 158,120 L 157,119 L 157,118 L 156,117 L 156,115 L 154,113 L 154,110 L 153,110 L 152,109 L 152,106 L 151,106 L 150,105 L 150,104 L 146,100 L 146,99 L 145,99 L 144,98 L 143,98 L 141,96 L 140,96 L 139,95 L 137,95 L 136,94 L 133,94 L 132,93 L 129,93 L 128,94 L 114,94 L 113,93 L 112,93 L 111,92 L 109,92 L 107,90 L 105,90 L 104,89 L 104,88 L 102,86 L 101,86 L 96,81 L 96,80 L 95,79 L 95,78 L 94,77 L 94,70 L 93,69 L 93,68 L 92,67 L 92,61 L 90,59 L 90,56 L 89,56 L 88,55 L 88,52 L 86,50 L 86,49 L 83,46 L 83,45 L 82,44 L 81,44 L 80,43 L 80,42 L 79,42 L 77,40 L 75,40 L 73,38 L 67,38 L 66,37 L 66,36 L 65,36 L 64,35 L 59,35 L 58,34 L 47,34 L 46,33 L 43,33 L 42,34 L 41,34 L 40,33 L 35,33 L 34,34 L 32,34 Z" fill="black" /><path d="M 0,0 L 0,219 L 255,219 L 255,0 Z" fill="none" stroke="black" stroke-width="1" /></svg>