<?xml version='1.0' encoding='utf-8'?>
<svg width="256" height="217" xmlns="http://www.w3.org/2000/svg" viewBox="0 0 256 217"><rect width="256" height="217" fill="white" /><path d="M 64,52 L 62,54 L 62,168 L 61,169 L 61,171 L 63,173 L 183,173 L 184,172 L 184,168 L 185,167 L 185,53 L 181,53 L 180,52 L 179,53 L 176,53 L 175,52 L 167,52 L 166,53 L 160,53 L 159,52 L 158,52 L 157,53 L 109,53 L 108,52 L 107,53 L 98,53 L 97,52 L 89,52 L 88,53 L 73,53 L 72,52 L 69,52 L 68,53 L 67,52 Z" fill="black" /><path d="M 0,0 L 0,216 L 255,216 L 255,0 Z" fill="none" stroke="black" stroke-width="1" /></svg>