<?xml version='1.0' encoding='utf-8'?>
<svg width="263" height="224" xmlns="http://www.w3.org/2000/svg" viewBox="0 0 263 224"><rect width="263" height="224" fill="white" /><path d="M 147,75 L 146,76 L 131,76 L 130,77 L 122,77 L 121,78 L 116,78 L 115,79 L 114,79 L 113,80 L 104,80 L 103,81 L 101,81 L 100,82 L 94,82 L 93,83 L 92,83 L 91,84 L 85,84 L 84,85 L 83,85 L 82,86 L 77,86 L 76,87 L 74,87 L 73,88 L 70,88 L 69,89 L 68,89 L 67,90 L 63,90 L 62,91 L 61,91 L 60,92 L 57,92 L 56,93 L 55,93 L 54,94 L 52,94 L 50,96 L 48,96 L 47,97 L 46,97 L 45,98 L 43,98 L 42,99 L 41,99 L 40,100 L 38,100 L 36,102 L 34,102 L 33,103 L 32,103 L 31,104 L 29,104 L 27,106 L 25,106 L 22,109 L 20,109 L 19,108 L 17,108 L 17,112 L 18,113 L 19,113 L 21,115 L 25,115 L 27,117 L 31,117 L 33,119 L 36,119 L 37,120 L 38,120 L 39,121 L 44,121 L 45,122 L 46,122 L 47,123 L 51,123 L 52,124 L 54,124 L 55,125 L 61,125 L 63,127 L 72,127 L 73,128 L 79,128 L 80,129 L 105,129 L 106,130 L 115,130 L 116,129 L 117,129 L 118,130 L 119,130 L 120,129 L 133,129 L 134,128 L 140,128 L 141,127 L 151,127 L 152,126 L 157,126 L 158,125 L 163,125 L 164,124 L 165,124 L 166,123 L 173,123 L 174,122 L 176,122 L 177,121 L 182,121 L 183,120 L 185,120 L 186,119 L 189,119 L 190,118 L 191,118 L 192,117 L 195,117 L 196,116 L 197,116 L 198,115 L 201,115 L 202,114 L 205,114 L 206,113 L 209,113 L 210,112 L 211,112 L 212,111 L 214,111 L 216,109 L 217,109 L 218,108 L 219,108 L 220,107 L 223,107 L 224,106 L 225,106 L 226,105 L 228,105 L 230,103 L 232,103 L 233,102 L 234,102 L 235,101 L 236,101 L 237,100 L 238,100 L 239,99 L 241,99 L 243,97 L 244,97 L 246,95 L 251,95 L 251,94 L 252,93 L 251,92 L 251,91 L 246,91 L 245,90 L 243,90 L 241,88 L 238,88 L 236,86 L 233,86 L 232,85 L 230,85 L 229,84 L 222,84 L 221,83 L 219,83 L 218,82 L 216,82 L 215,81 L 211,81 L 210,80 L 205,80 L 204,79 L 201,79 L 200,78 L 192,78 L 191,77 L 189,77 L 188,76 L 164,76 L 163,75 L 162,75 L 161,76 L 158,76 L 157,75 Z" fill="black" /><path d="M 0,0 L 0,223 L 262,223 L 262,0 Z" fill="none" stroke="black" stroke-width="1" /></svg>