<?xml version='1.0' encoding='utf-8'?>
<svg width="256" height="217" xmlns="http://www.w3.org/2000/svg" viewBox="0 0 256 217"><rect width="256" height="217" fill="white" /><path d="M 113,54 L 112,55 L 110,55 L 109,56 L 104,56 L 103,57 L 102,57 L 101,58 L 99,58 L 98,59 L 97,59 L 96,60 L 94,60 L 92,62 L 91,62 L 90,63 L 89,63 L 88,64 L 87,64 L 87,65 L 86,66 L 85,66 L 83,68 L 82,68 L 72,78 L 72,79 L 71,80 L 71,81 L 70,82 L 69,82 L 69,83 L 68,84 L 68,85 L 67,86 L 67,87 L 65,89 L 65,92 L 63,94 L 63,97 L 62,98 L 62,99 L 61,100 L 61,103 L 60,104 L 60,107 L 59,108 L 59,125 L 61,127 L 61,131 L 62,132 L 62,134 L 63,135 L 63,137 L 64,138 L 64,139 L 65,140 L 65,142 L 67,144 L 67,145 L 69,147 L 69,149 L 75,155 L 75,156 L 76,157 L 77,157 L 78,158 L 78,159 L 79,159 L 85,165 L 86,165 L 88,167 L 90,167 L 92,169 L 93,169 L 95,171 L 98,171 L 99,172 L 100,172 L 101,173 L 105,173 L 106,174 L 109,174 L 110,173 L 111,174 L 114,174 L 115,175 L 130,175 L 131,174 L 132,174 L 133,173 L 136,173 L 138,171 L 143,171 L 145,169 L 147,169 L 149,167 L 150,167 L 151,166 L 152,166 L 153,165 L 154,165 L 154,164 L 155,163 L 156,163 L 157,162 L 158,162 L 161,159 L 162,159 L 162,158 L 163,157 L 164,157 L 164,156 L 166,154 L 166,153 L 168,151 L 168,150 L 169,149 L 170,149 L 170,147 L 172,145 L 172,142 L 176,138 L 176,132 L 178,130 L 178,128 L 179,127 L 179,126 L 178,125 L 178,124 L 179,123 L 179,122 L 180,121 L 180,114 L 179,113 L 179,106 L 178,105 L 178,98 L 177,97 L 177,96 L 176,95 L 176,92 L 175,91 L 175,90 L 174,89 L 174,88 L 173,87 L 173,86 L 172,85 L 172,84 L 170,82 L 170,80 L 169,80 L 168,79 L 168,78 L 165,75 L 165,74 L 159,68 L 158,68 L 156,66 L 155,66 L 154,65 L 154,64 L 153,64 L 151,62 L 149,62 L 147,60 L 145,60 L 144,59 L 143,59 L 142,58 L 139,58 L 138,57 L 137,57 L 136,56 L 132,56 L 131,55 L 127,55 L 126,54 Z" fill="black" /></svg>