<?xml version='1.0' encoding='utf-8'?>
<svg width="262" height="225" xmlns="http://www.w3.org/2000/svg" viewBox="0 0 262 225"><rect width="262" height="225" fill="white" /><path d="M 110,29 L 109,30 L 109,53 L 108,54 L 108,80 L 107,81 L 78,81 L 77,80 L 72,80 L 71,79 L 71,53 L 72,52 L 72,32 L 69,32 L 68,31 L 62,31 L 61,32 L 59,32 L 58,31 L 43,31 L 42,30 L 39,30 L 37,32 L 37,161 L 36,162 L 36,173 L 40,173 L 41,174 L 70,174 L 70,168 L 71,167 L 71,166 L 70,165 L 70,128 L 71,127 L 71,122 L 73,120 L 96,120 L 97,121 L 106,121 L 107,122 L 107,132 L 106,133 L 106,138 L 107,139 L 107,154 L 106,155 L 107,156 L 107,165 L 106,166 L 106,167 L 107,168 L 107,174 L 114,174 L 115,175 L 117,175 L 118,174 L 122,174 L 123,175 L 129,175 L 130,174 L 132,174 L 133,175 L 134,175 L 135,174 L 136,174 L 137,175 L 140,175 L 140,171 L 141,170 L 141,140 L 142,139 L 142,137 L 141,136 L 141,131 L 142,130 L 142,121 L 143,120 L 172,120 L 173,121 L 173,131 L 174,132 L 174,135 L 173,136 L 173,171 L 172,172 L 172,175 L 204,175 L 206,173 L 206,119 L 207,118 L 207,94 L 208,93 L 207,92 L 207,85 L 208,84 L 208,37 L 209,36 L 209,35 L 208,34 L 208,33 L 191,33 L 190,32 L 175,32 L 175,39 L 176,40 L 176,44 L 175,45 L 176,46 L 176,49 L 175,50 L 175,78 L 172,81 L 166,81 L 165,80 L 164,81 L 161,81 L 160,80 L 144,80 L 143,79 L 143,76 L 142,75 L 142,69 L 143,68 L 143,66 L 142,65 L 142,64 L 143,63 L 143,60 L 142,59 L 143,58 L 143,53 L 142,52 L 143,51 L 143,50 L 144,49 L 144,42 L 143,41 L 143,40 L 144,39 L 144,33 L 142,31 L 138,31 L 137,30 L 136,31 L 119,31 L 118,32 L 117,32 L 116,31 L 112,31 Z" fill="black" /><path d="M 0,0 L 0,224 L 261,224 L 261,0 Z" fill="none" stroke="black" stroke-width="1" /></svg>