<?xml version='1.0' encoding='utf-8'?>
<svg width="254" height="224" xmlns="http://www.w3.org/2000/svg" viewBox="0 0 254 224"><rect width="254" height="224" fill="white" /><path d="M 188,110 L 188,118 L 189,119 L 189,121 L 188,122 L 188,185 L 187,186 L 187,193 L 199,193 L 200,194 L 201,194 L 202,193 L 203,193 L 204,194 L 205,194 L 206,193 L 208,193 L 209,194 L 211,194 L 212,193 L 211,192 L 211,177 L 212,176 L 211,175 L 211,172 L 212,171 L 212,124 L 213,123 L 213,113 L 212,112 L 212,110 Z" fill="black" /><path d="M 0,0 L 0,223 L 253,223 L 253,0 Z" fill="none" stroke="black" stroke-width="1" /></svg>