<?xml version='1.0' encoding='utf-8'?>
<svg width="260" height="217" xmlns="http://www.w3.org/2000/svg" viewBox="0 0 260 217"><rect width="260" height="217" fill="white" /><path d="M 221,40 L 219,42 L 217,42 L 216,43 L 215,43 L 213,45 L 212,45 L 211,46 L 210,46 L 208,48 L 206,48 L 204,50 L 203,50 L 201,52 L 200,52 L 199,53 L 198,53 L 197,54 L 196,54 L 194,56 L 192,56 L 190,58 L 188,58 L 188,59 L 187,60 L 185,60 L 183,62 L 181,62 L 179,64 L 177,64 L 175,66 L 174,66 L 173,67 L 172,67 L 171,68 L 170,68 L 168,70 L 167,70 L 165,72 L 164,72 L 163,73 L 162,73 L 161,74 L 160,74 L 159,75 L 158,75 L 157,76 L 156,76 L 154,78 L 153,78 L 151,80 L 148,80 L 146,82 L 145,82 L 143,84 L 142,84 L 140,86 L 138,86 L 137,87 L 136,87 L 135,88 L 134,88 L 132,90 L 130,90 L 130,91 L 129,92 L 128,92 L 127,93 L 126,93 L 125,94 L 124,94 L 122,96 L 120,96 L 120,97 L 119,98 L 117,98 L 115,100 L 113,100 L 111,102 L 110,102 L 109,103 L 108,103 L 107,104 L 106,104 L 104,106 L 103,106 L 101,108 L 99,108 L 97,110 L 96,110 L 94,112 L 92,112 L 90,114 L 89,114 L 87,116 L 84,116 L 82,118 L 81,118 L 79,120 L 76,120 L 76,121 L 75,122 L 74,122 L 73,123 L 72,123 L 71,124 L 70,124 L 68,126 L 66,126 L 65,127 L 64,127 L 62,129 L 61,129 L 60,130 L 59,130 L 57,132 L 56,132 L 54,134 L 53,134 L 51,136 L 48,136 L 46,138 L 45,138 L 43,140 L 42,140 L 41,141 L 40,141 L 39,142 L 37,142 L 35,144 L 34,144 L 32,146 L 31,146 L 29,148 L 28,148 L 27,149 L 26,149 L 25,150 L 23,150 L 21,152 L 18,152 L 16,154 L 15,154 L 15,156 L 19,160 L 19,161 L 20,162 L 20,163 L 21,163 L 22,164 L 22,165 L 26,169 L 26,170 L 28,172 L 28,173 L 29,173 L 30,174 L 30,175 L 33,178 L 33,179 L 36,182 L 36,183 L 37,183 L 38,184 L 38,185 L 41,188 L 41,189 L 44,192 L 44,193 L 45,193 L 46,194 L 46,195 L 48,197 L 48,198 L 50,200 L 50,201 L 51,201 L 52,202 L 52,203 L 54,205 L 57,205 L 59,203 L 59,202 L 60,201 L 61,201 L 61,200 L 70,191 L 71,191 L 71,190 L 72,189 L 73,189 L 73,188 L 74,187 L 75,187 L 75,186 L 76,185 L 77,185 L 77,184 L 78,183 L 79,183 L 79,182 L 80,181 L 81,181 L 81,180 L 82,179 L 83,179 L 83,178 L 84,177 L 85,177 L 85,176 L 86,175 L 87,175 L 87,174 L 88,173 L 89,173 L 89,172 L 90,171 L 91,171 L 91,170 L 94,167 L 95,167 L 99,163 L 99,162 L 100,161 L 101,161 L 103,159 L 104,159 L 105,158 L 105,156 L 110,151 L 113,151 L 113,149 L 121,141 L 122,141 L 125,138 L 125,137 L 126,136 L 127,136 L 140,123 L 141,123 L 141,122 L 144,119 L 145,119 L 145,117 L 146,116 L 147,116 L 148,115 L 149,115 L 149,114 L 162,101 L 163,101 L 163,100 L 164,99 L 165,99 L 165,98 L 166,97 L 167,97 L 167,96 L 170,93 L 171,93 L 171,92 L 172,91 L 173,91 L 173,90 L 174,89 L 175,89 L 175,88 L 176,87 L 177,87 L 177,86 L 178,85 L 179,85 L 179,84 L 180,83 L 181,83 L 183,81 L 183,80 L 184,79 L 185,79 L 186,78 L 187,78 L 187,77 L 193,71 L 194,71 L 194,70 L 195,69 L 196,69 L 208,57 L 209,57 L 209,56 L 210,55 L 211,55 L 211,54 L 212,53 L 213,53 L 213,52 L 214,51 L 215,51 L 215,50 L 216,49 L 217,49 L 217,48 L 218,47 L 219,47 L 223,43 L 223,42 L 224,41 L 223,40 Z" fill="black" /><path d="M 0,0 L 0,216 L 259,216 L 259,0 Z" fill="none" stroke="black" stroke-width="1" /></svg>