<?xml version='1.0' encoding='utf-8'?>
<svg width="257" height="222" xmlns="http://www.w3.org/2000/svg" viewBox="0 0 257 222"><rect width="257" height="222" fill="white" /><path d="M 131,23 L 130,24 L 129,24 L 128,25 L 120,25 L 119,26 L 118,26 L 117,27 L 113,27 L 112,28 L 111,28 L 110,29 L 108,29 L 107,30 L 105,30 L 104,31 L 103,31 L 102,32 L 101,32 L 100,33 L 99,33 L 98,34 L 97,34 L 96,35 L 95,35 L 95,36 L 94,37 L 92,37 L 90,39 L 89,39 L 89,40 L 88,41 L 87,41 L 86,42 L 85,42 L 84,43 L 83,43 L 81,45 L 81,46 L 80,47 L 79,47 L 79,48 L 78,49 L 77,49 L 77,50 L 76,51 L 75,51 L 75,52 L 71,56 L 71,57 L 69,59 L 69,60 L 68,61 L 67,61 L 67,62 L 65,64 L 65,65 L 63,67 L 63,69 L 61,71 L 61,72 L 60,73 L 60,74 L 59,75 L 59,76 L 57,78 L 57,80 L 56,81 L 55,81 L 55,89 L 54,90 L 54,92 L 53,93 L 53,99 L 52,100 L 52,103 L 51,104 L 51,107 L 52,108 L 52,110 L 51,111 L 51,118 L 52,119 L 52,125 L 53,126 L 53,130 L 54,131 L 54,134 L 55,135 L 55,137 L 56,138 L 56,140 L 57,141 L 57,144 L 58,145 L 58,146 L 59,147 L 59,150 L 60,151 L 60,152 L 61,152 L 62,153 L 62,154 L 65,157 L 65,159 L 66,160 L 67,160 L 68,161 L 68,162 L 69,162 L 72,165 L 73,165 L 75,167 L 77,167 L 78,168 L 82,168 L 83,169 L 86,169 L 87,168 L 90,168 L 92,166 L 92,165 L 93,164 L 94,164 L 98,160 L 98,159 L 100,157 L 100,147 L 98,145 L 98,143 L 97,143 L 96,142 L 96,141 L 94,139 L 94,138 L 92,136 L 92,134 L 90,132 L 90,129 L 88,127 L 88,125 L 87,124 L 87,123 L 86,122 L 86,117 L 85,116 L 85,115 L 84,114 L 84,103 L 85,102 L 85,101 L 86,100 L 86,95 L 87,94 L 87,93 L 88,92 L 88,91 L 89,90 L 89,89 L 90,88 L 90,87 L 92,85 L 92,83 L 93,82 L 94,82 L 94,81 L 95,80 L 95,79 L 96,78 L 97,78 L 97,77 L 98,76 L 98,75 L 101,72 L 102,72 L 102,71 L 103,70 L 104,70 L 104,69 L 105,68 L 106,68 L 108,66 L 109,66 L 111,64 L 112,64 L 113,63 L 114,63 L 117,60 L 118,60 L 118,59 L 119,58 L 124,58 L 125,57 L 128,57 L 129,56 L 134,56 L 135,55 L 143,55 L 144,56 L 150,56 L 151,57 L 152,57 L 153,58 L 156,58 L 157,59 L 158,59 L 159,60 L 162,60 L 163,61 L 164,61 L 167,64 L 168,64 L 169,65 L 170,65 L 171,66 L 172,66 L 173,67 L 174,67 L 181,74 L 181,75 L 183,77 L 183,78 L 185,80 L 185,82 L 187,84 L 187,86 L 189,88 L 189,90 L 190,91 L 190,92 L 191,93 L 191,96 L 192,97 L 192,98 L 193,99 L 193,101 L 194,102 L 194,105 L 195,106 L 195,120 L 194,121 L 194,122 L 193,123 L 193,126 L 192,127 L 192,128 L 191,129 L 191,132 L 189,134 L 189,135 L 187,137 L 187,138 L 186,139 L 186,140 L 183,143 L 183,144 L 182,145 L 182,146 L 177,151 L 176,151 L 172,155 L 171,155 L 169,157 L 168,157 L 166,159 L 165,159 L 164,160 L 163,160 L 162,161 L 159,161 L 158,162 L 155,162 L 154,163 L 148,163 L 147,164 L 146,164 L 145,165 L 133,165 L 132,166 L 131,166 L 130,167 L 128,167 L 126,169 L 125,169 L 124,170 L 123,170 L 120,173 L 119,173 L 119,175 L 118,176 L 118,177 L 117,178 L 117,188 L 118,189 L 118,190 L 119,191 L 119,192 L 123,196 L 124,196 L 126,198 L 127,198 L 128,197 L 129,197 L 130,198 L 134,198 L 135,197 L 136,198 L 150,198 L 151,197 L 154,197 L 155,196 L 162,196 L 163,195 L 164,195 L 165,194 L 168,194 L 170,192 L 173,192 L 175,190 L 178,190 L 179,189 L 180,189 L 181,188 L 183,188 L 185,186 L 186,186 L 186,185 L 187,184 L 188,184 L 190,182 L 191,182 L 193,180 L 194,180 L 195,179 L 196,179 L 199,176 L 199,175 L 201,173 L 202,173 L 205,170 L 205,169 L 208,166 L 208,165 L 209,164 L 210,164 L 210,163 L 212,161 L 212,160 L 214,158 L 214,157 L 215,156 L 215,155 L 216,154 L 216,153 L 217,152 L 217,151 L 218,150 L 218,149 L 220,147 L 220,144 L 222,142 L 222,139 L 223,138 L 223,137 L 224,136 L 223,135 L 224,134 L 224,133 L 225,132 L 225,131 L 226,130 L 226,121 L 227,120 L 227,117 L 228,116 L 228,111 L 229,110 L 229,107 L 228,106 L 228,105 L 227,104 L 227,101 L 226,100 L 226,95 L 225,94 L 225,90 L 224,89 L 224,85 L 223,84 L 223,82 L 222,81 L 222,78 L 220,76 L 220,75 L 219,74 L 219,73 L 218,72 L 218,70 L 216,68 L 216,66 L 214,64 L 214,63 L 212,61 L 212,60 L 211,60 L 210,59 L 210,58 L 208,56 L 208,55 L 207,55 L 206,54 L 206,52 L 202,48 L 201,48 L 196,43 L 195,43 L 191,39 L 190,39 L 188,37 L 187,37 L 186,36 L 186,35 L 184,35 L 182,33 L 181,33 L 180,32 L 179,32 L 178,31 L 175,31 L 173,29 L 171,29 L 170,28 L 169,28 L 168,27 L 165,27 L 164,26 L 163,26 L 162,25 L 157,25 L 156,24 L 148,24 L 147,23 L 137,23 L 136,24 L 133,24 L 132,23 Z" fill="black" /><path d="M 0,0 L 0,221 L 256,221 L 256,0 Z" fill="none" stroke="black" stroke-width="1" /></svg>