<?xml version='1.0' encoding='utf-8'?>
<svg width="261" height="216" xmlns="http://www.w3.org/2000/svg" viewBox="0 0 261 216"><rect width="261" height="216" fill="white" /><path d="M 142,28 L 141,29 L 141,30 L 140,31 L 140,32 L 139,33 L 139,36 L 138,37 L 138,38 L 137,39 L 137,41 L 136,42 L 136,43 L 135,44 L 135,46 L 133,48 L 133,51 L 132,52 L 132,53 L 131,54 L 131,57 L 129,59 L 129,62 L 127,64 L 127,67 L 125,69 L 125,71 L 123,73 L 123,75 L 122,76 L 122,77 L 121,78 L 121,80 L 119,82 L 118,81 L 117,81 L 114,78 L 113,78 L 112,77 L 112,76 L 110,76 L 106,72 L 105,72 L 103,70 L 102,70 L 100,68 L 99,68 L 97,66 L 96,66 L 94,64 L 93,64 L 91,62 L 90,62 L 88,60 L 87,60 L 84,57 L 83,57 L 82,56 L 81,56 L 78,53 L 77,53 L 73,49 L 72,49 L 71,48 L 70,48 L 70,50 L 71,51 L 71,54 L 73,56 L 73,58 L 75,60 L 75,62 L 77,64 L 77,67 L 79,69 L 79,71 L 81,73 L 81,75 L 83,77 L 83,79 L 84,80 L 84,81 L 85,82 L 85,83 L 86,84 L 86,85 L 87,86 L 87,87 L 88,88 L 88,89 L 89,90 L 89,91 L 90,92 L 90,93 L 91,94 L 91,97 L 94,100 L 92,102 L 89,102 L 88,103 L 87,103 L 86,104 L 82,104 L 81,105 L 79,105 L 78,106 L 75,106 L 74,107 L 73,107 L 72,108 L 67,108 L 66,109 L 65,109 L 64,110 L 61,110 L 60,111 L 59,111 L 58,112 L 54,112 L 53,113 L 52,113 L 51,114 L 46,114 L 45,115 L 44,115 L 43,116 L 41,116 L 40,117 L 39,117 L 38,118 L 35,118 L 35,121 L 37,123 L 41,123 L 42,124 L 46,124 L 47,125 L 52,125 L 53,126 L 56,126 L 57,127 L 62,127 L 63,128 L 66,128 L 67,129 L 74,129 L 75,130 L 78,130 L 79,131 L 84,131 L 85,132 L 87,132 L 88,133 L 92,133 L 94,135 L 93,136 L 93,137 L 91,139 L 91,140 L 89,142 L 89,143 L 88,144 L 88,145 L 87,146 L 87,147 L 86,148 L 85,148 L 85,149 L 83,151 L 83,152 L 81,154 L 81,155 L 78,158 L 78,159 L 77,160 L 77,161 L 75,163 L 75,164 L 73,166 L 73,167 L 70,170 L 70,171 L 69,172 L 69,173 L 68,174 L 67,174 L 67,175 L 65,177 L 65,179 L 63,181 L 63,183 L 67,183 L 69,181 L 72,181 L 72,180 L 73,179 L 75,179 L 77,177 L 78,177 L 80,175 L 81,175 L 83,173 L 84,173 L 85,172 L 86,172 L 87,171 L 88,171 L 88,170 L 89,169 L 90,169 L 92,167 L 93,167 L 95,165 L 96,165 L 97,164 L 98,164 L 99,163 L 100,163 L 100,162 L 101,161 L 103,161 L 105,159 L 106,159 L 108,157 L 109,157 L 111,155 L 114,155 L 115,156 L 115,158 L 117,160 L 117,161 L 119,163 L 119,165 L 120,165 L 121,166 L 121,168 L 123,170 L 123,171 L 124,172 L 124,173 L 127,176 L 127,177 L 128,178 L 128,179 L 129,180 L 129,181 L 131,183 L 131,184 L 133,186 L 133,187 L 134,188 L 134,189 L 135,190 L 135,191 L 137,193 L 137,194 L 139,196 L 139,197 L 140,198 L 140,199 L 141,200 L 141,201 L 143,203 L 143,204 L 145,206 L 145,207 L 146,208 L 146,209 L 149,209 L 150,208 L 150,201 L 149,200 L 149,198 L 148,197 L 148,196 L 149,195 L 149,193 L 148,192 L 148,182 L 147,181 L 147,174 L 146,173 L 146,158 L 145,157 L 145,154 L 144,153 L 144,152 L 145,151 L 145,150 L 144,149 L 144,146 L 145,145 L 149,145 L 150,146 L 152,146 L 153,147 L 161,147 L 162,148 L 164,148 L 165,149 L 171,149 L 172,150 L 175,150 L 176,151 L 182,151 L 183,152 L 186,152 L 187,153 L 193,153 L 194,154 L 196,154 L 197,155 L 204,155 L 205,156 L 208,156 L 209,157 L 212,157 L 213,156 L 214,156 L 214,153 L 212,151 L 211,151 L 210,150 L 209,150 L 207,148 L 207,147 L 206,146 L 204,146 L 202,144 L 201,144 L 199,142 L 198,142 L 196,140 L 195,140 L 194,139 L 194,138 L 193,138 L 192,137 L 191,137 L 190,136 L 189,136 L 188,135 L 188,134 L 187,134 L 186,133 L 185,133 L 184,132 L 183,132 L 182,131 L 182,130 L 181,130 L 180,129 L 179,129 L 178,128 L 177,128 L 176,127 L 176,126 L 175,126 L 173,124 L 171,124 L 169,122 L 168,122 L 167,121 L 166,121 L 165,120 L 165,117 L 166,116 L 167,116 L 168,115 L 169,115 L 171,113 L 172,113 L 172,112 L 173,111 L 174,111 L 176,109 L 177,109 L 179,107 L 180,107 L 180,106 L 181,105 L 182,105 L 185,102 L 186,102 L 189,99 L 190,99 L 194,95 L 195,95 L 197,93 L 198,93 L 198,92 L 199,91 L 200,91 L 203,88 L 204,88 L 207,85 L 208,85 L 208,84 L 209,83 L 210,83 L 213,80 L 214,80 L 214,78 L 213,77 L 212,77 L 210,75 L 209,75 L 208,76 L 203,76 L 202,77 L 200,77 L 199,78 L 191,78 L 190,79 L 188,79 L 187,80 L 181,80 L 180,81 L 178,81 L 177,82 L 171,82 L 170,83 L 168,83 L 167,84 L 161,84 L 160,85 L 158,85 L 157,86 L 153,86 L 152,85 L 152,81 L 151,80 L 151,77 L 150,76 L 150,63 L 149,62 L 149,59 L 148,58 L 148,51 L 147,50 L 147,41 L 146,40 L 146,30 L 145,29 L 145,28 Z" fill="black" /><path d="M 0,0 L 0,215 L 260,215 L 260,0 Z" fill="none" stroke="black" stroke-width="1" /></svg>