<?xml version='1.0' encoding='utf-8'?>
<svg width="255" height="216" xmlns="http://www.w3.org/2000/svg" viewBox="0 0 255 216"><rect width="255" height="216" fill="white" /><path d="M 196,79 L 193,82 L 192,82 L 192,83 L 191,84 L 190,84 L 190,85 L 189,86 L 187,86 L 183,90 L 182,90 L 182,91 L 181,92 L 180,92 L 177,95 L 176,95 L 171,100 L 167,100 L 165,98 L 164,98 L 160,94 L 159,94 L 155,90 L 154,90 L 152,88 L 151,88 L 149,86 L 148,86 L 145,83 L 144,83 L 142,81 L 141,81 L 140,80 L 139,80 L 137,82 L 136,82 L 135,83 L 134,83 L 129,88 L 128,88 L 128,89 L 127,90 L 126,90 L 124,92 L 123,92 L 121,94 L 120,94 L 117,97 L 116,97 L 113,100 L 110,100 L 108,98 L 107,98 L 105,96 L 104,96 L 103,95 L 103,94 L 102,94 L 99,91 L 98,91 L 95,88 L 94,88 L 90,84 L 89,84 L 87,82 L 86,82 L 84,80 L 83,80 L 79,84 L 78,84 L 78,85 L 77,86 L 76,86 L 74,88 L 72,88 L 72,89 L 71,90 L 70,90 L 68,92 L 67,92 L 63,96 L 62,96 L 60,98 L 59,98 L 57,100 L 55,100 L 54,99 L 54,98 L 51,95 L 50,95 L 47,92 L 46,92 L 45,91 L 45,90 L 44,90 L 42,88 L 41,88 L 39,86 L 38,86 L 37,85 L 37,84 L 36,84 L 32,80 L 29,80 L 29,81 L 28,82 L 28,146 L 29,147 L 29,148 L 31,148 L 32,147 L 33,147 L 33,146 L 34,145 L 35,145 L 37,143 L 38,143 L 40,141 L 41,141 L 41,140 L 42,139 L 43,139 L 45,137 L 46,137 L 48,135 L 49,135 L 49,134 L 50,133 L 51,133 L 55,129 L 57,129 L 62,134 L 63,134 L 68,139 L 69,139 L 70,140 L 70,141 L 71,141 L 73,143 L 74,143 L 76,145 L 77,145 L 78,146 L 78,147 L 79,147 L 82,150 L 84,150 L 86,148 L 87,148 L 90,145 L 91,145 L 93,143 L 94,143 L 96,141 L 97,141 L 99,139 L 100,139 L 102,137 L 103,137 L 103,136 L 104,135 L 105,135 L 107,133 L 108,133 L 112,129 L 114,129 L 115,130 L 115,131 L 116,131 L 118,133 L 119,133 L 120,134 L 120,135 L 121,135 L 122,136 L 123,136 L 126,139 L 127,139 L 130,142 L 131,142 L 134,145 L 136,145 L 138,147 L 141,147 L 146,142 L 147,142 L 150,139 L 151,139 L 151,138 L 152,137 L 153,137 L 156,134 L 157,134 L 160,131 L 161,131 L 161,130 L 162,129 L 163,129 L 167,125 L 170,125 L 174,129 L 175,129 L 176,130 L 177,130 L 178,131 L 179,131 L 180,132 L 180,133 L 181,133 L 183,135 L 184,135 L 188,139 L 189,139 L 191,141 L 192,141 L 198,147 L 200,147 L 204,143 L 205,143 L 205,142 L 206,141 L 207,141 L 207,140 L 208,139 L 209,139 L 213,135 L 214,135 L 220,129 L 221,129 L 221,128 L 222,127 L 223,127 L 229,121 L 230,121 L 234,117 L 235,117 L 237,115 L 237,113 L 238,112 L 238,109 L 237,108 L 236,108 L 234,106 L 233,106 L 231,104 L 230,104 L 229,103 L 229,102 L 228,102 L 227,101 L 226,101 L 223,98 L 222,98 L 221,97 L 221,96 L 220,96 L 218,94 L 217,94 L 215,92 L 214,92 L 210,88 L 209,88 L 207,86 L 206,86 L 202,82 L 201,82 L 199,80 L 199,79 Z" fill="black" /><path d="M 0,0 L 0,215 L 254,215 L 254,0 Z" fill="none" stroke="black" stroke-width="1" /></svg>