<?xml version='1.0' encoding='utf-8'?>
<svg width="264" height="222" xmlns="http://www.w3.org/2000/svg" viewBox="0 0 264 222"><rect width="264" height="222" fill="white" /><path d="M 101,14 L 100,15 L 92,15 L 91,16 L 88,16 L 87,15 L 86,16 L 75,16 L 73,18 L 68,18 L 67,19 L 64,19 L 63,20 L 59,20 L 58,21 L 57,21 L 56,22 L 52,22 L 50,24 L 48,24 L 47,25 L 46,25 L 45,26 L 44,26 L 43,27 L 42,27 L 41,28 L 40,28 L 38,30 L 34,30 L 28,36 L 28,37 L 27,38 L 27,40 L 26,41 L 26,51 L 28,53 L 28,54 L 29,55 L 30,55 L 32,57 L 34,57 L 35,58 L 36,58 L 37,59 L 39,59 L 41,61 L 45,61 L 46,62 L 49,62 L 50,63 L 54,63 L 55,64 L 57,64 L 58,65 L 63,65 L 64,66 L 73,66 L 74,67 L 86,67 L 87,68 L 88,67 L 107,67 L 108,66 L 112,66 L 113,65 L 122,65 L 123,64 L 126,64 L 127,63 L 132,63 L 133,62 L 135,62 L 136,61 L 138,61 L 140,59 L 143,59 L 144,58 L 145,58 L 146,57 L 147,57 L 148,56 L 149,56 L 150,55 L 151,55 L 154,52 L 155,52 L 158,49 L 159,49 L 159,48 L 160,47 L 161,47 L 163,45 L 163,42 L 164,41 L 164,33 L 163,32 L 163,31 L 162,30 L 161,30 L 157,26 L 155,26 L 153,24 L 152,24 L 151,23 L 150,23 L 149,22 L 147,22 L 146,21 L 145,21 L 144,20 L 142,20 L 141,19 L 138,19 L 137,18 L 132,18 L 131,17 L 126,17 L 125,16 L 114,16 L 113,15 L 112,15 L 111,14 L 110,15 L 107,15 L 106,14 Z" fill="black" /><path d="M 0,0 L 0,221 L 263,221 L 263,0 Z" fill="none" stroke="black" stroke-width="1" /></svg>