<?xml version='1.0' encoding='utf-8'?>
<svg width="258" height="216" xmlns="http://www.w3.org/2000/svg" viewBox="0 0 258 216"><rect width="258" height="216" fill="white" /><path d="M 127,33 L 126,34 L 124,34 L 123,35 L 116,35 L 115,36 L 114,36 L 113,35 L 110,35 L 109,36 L 108,36 L 107,35 L 106,35 L 105,36 L 103,36 L 102,35 L 96,35 L 95,36 L 91,36 L 90,35 L 88,35 L 87,36 L 74,36 L 74,71 L 75,72 L 75,77 L 74,78 L 74,82 L 75,83 L 75,85 L 74,86 L 74,89 L 75,90 L 75,92 L 76,93 L 75,94 L 75,110 L 76,111 L 76,113 L 75,114 L 75,117 L 76,118 L 76,121 L 75,122 L 76,123 L 76,176 L 78,178 L 91,178 L 92,177 L 96,177 L 97,178 L 99,178 L 100,177 L 107,177 L 108,178 L 111,178 L 112,177 L 116,177 L 117,178 L 120,178 L 121,177 L 127,177 L 128,178 L 131,178 L 131,174 L 132,173 L 132,167 L 131,166 L 131,108 L 130,107 L 130,104 L 131,103 L 131,96 L 130,95 L 130,92 L 131,91 L 131,81 L 130,80 L 130,77 L 131,76 L 131,73 L 130,72 L 130,47 L 131,46 L 130,45 L 130,41 L 129,40 L 129,33 Z" fill="black" /><path d="M 0,0 L 0,215 L 257,215 L 257,0 Z" fill="none" stroke="black" stroke-width="1" /></svg>