<?xml version='1.0' encoding='utf-8'?>
<svg width="258" height="219" xmlns="http://www.w3.org/2000/svg" viewBox="0 0 258 219"><rect width="258" height="219" fill="white" /><path d="M 157,31 L 156,32 L 148,32 L 148,149 L 147,150 L 147,188 L 148,189 L 148,191 L 225,191 L 226,192 L 227,192 L 228,191 L 229,191 L 229,176 L 230,175 L 230,174 L 229,173 L 229,168 L 230,167 L 230,110 L 231,109 L 231,103 L 230,102 L 230,101 L 231,100 L 231,99 L 230,98 L 230,89 L 231,88 L 231,86 L 230,85 L 230,84 L 231,83 L 231,78 L 230,77 L 230,76 L 231,75 L 231,62 L 230,61 L 230,60 L 231,59 L 231,56 L 230,55 L 230,54 L 231,53 L 231,52 L 230,51 L 230,45 L 231,44 L 231,42 L 230,41 L 230,39 L 231,38 L 231,37 L 230,36 L 230,32 L 159,32 L 158,31 Z" fill="black" /><path d="M 0,0 L 0,218 L 257,218 L 257,0 Z" fill="none" stroke="black" stroke-width="1" /></svg>