<?xml version='1.0' encoding='utf-8'?>
<svg width="257" height="229" xmlns="http://www.w3.org/2000/svg" viewBox="0 0 257 229"><rect width="257" height="229" fill="white" /><path d="M 201,52 L 200,53 L 199,53 L 198,54 L 197,54 L 193,58 L 193,59 L 191,61 L 191,62 L 190,63 L 190,65 L 189,66 L 189,68 L 188,69 L 188,70 L 187,71 L 187,74 L 186,75 L 185,75 L 185,79 L 184,80 L 184,82 L 183,83 L 183,87 L 182,88 L 182,92 L 181,93 L 181,98 L 179,100 L 179,106 L 178,107 L 178,113 L 177,114 L 177,138 L 179,140 L 179,142 L 178,143 L 178,144 L 179,145 L 179,151 L 180,152 L 180,153 L 181,154 L 181,158 L 182,159 L 182,163 L 183,164 L 183,168 L 185,170 L 185,172 L 186,173 L 186,174 L 187,175 L 187,178 L 188,179 L 188,180 L 189,181 L 189,182 L 191,184 L 192,184 L 193,185 L 193,186 L 196,189 L 196,190 L 198,190 L 199,191 L 201,191 L 202,192 L 206,192 L 207,191 L 210,191 L 211,190 L 212,190 L 214,188 L 215,188 L 217,186 L 217,185 L 218,184 L 218,183 L 220,181 L 220,179 L 222,177 L 222,175 L 223,174 L 223,173 L 224,172 L 224,171 L 225,170 L 225,167 L 226,166 L 226,163 L 227,162 L 227,161 L 228,160 L 228,155 L 229,154 L 229,152 L 230,151 L 230,147 L 231,146 L 231,145 L 232,144 L 232,135 L 233,134 L 233,119 L 232,118 L 232,102 L 231,101 L 231,97 L 230,96 L 230,92 L 229,91 L 229,89 L 228,88 L 228,84 L 227,83 L 227,82 L 226,81 L 226,79 L 225,78 L 225,77 L 224,76 L 224,71 L 222,69 L 222,68 L 221,67 L 221,66 L 220,65 L 220,63 L 218,61 L 218,60 L 214,56 L 214,55 L 213,55 L 211,53 L 209,53 L 208,52 L 206,52 L 205,53 L 204,53 L 203,52 Z" fill="black" /><path d="M 0,0 L 0,228 L 256,228 L 256,0 Z" fill="none" stroke="black" stroke-width="1" /></svg>