<?xml version='1.0' encoding='utf-8'?>
<svg width="254" height="219" xmlns="http://www.w3.org/2000/svg" viewBox="0 0 254 219"><rect width="254" height="219" fill="white" /><path d="M 104,40 L 103,41 L 102,41 L 99,44 L 98,44 L 98,45 L 96,47 L 96,50 L 94,52 L 94,55 L 92,57 L 92,59 L 90,61 L 90,62 L 88,64 L 88,69 L 87,70 L 87,72 L 86,73 L 86,77 L 85,78 L 85,79 L 84,80 L 84,85 L 83,86 L 83,87 L 82,88 L 82,97 L 80,99 L 81,100 L 81,104 L 80,105 L 80,122 L 81,123 L 81,125 L 82,126 L 82,133 L 83,134 L 83,137 L 84,138 L 84,143 L 85,144 L 85,145 L 86,146 L 86,150 L 87,151 L 87,152 L 88,153 L 88,156 L 89,157 L 89,158 L 90,159 L 90,161 L 91,162 L 91,164 L 92,165 L 92,167 L 94,169 L 94,170 L 95,171 L 95,172 L 96,173 L 96,175 L 98,177 L 99,177 L 101,179 L 105,179 L 106,180 L 111,180 L 112,179 L 115,179 L 116,178 L 117,178 L 118,177 L 118,176 L 121,173 L 121,172 L 123,170 L 123,168 L 124,167 L 124,166 L 125,165 L 125,164 L 127,162 L 127,160 L 129,158 L 129,155 L 130,154 L 130,152 L 131,151 L 131,148 L 132,147 L 132,144 L 133,143 L 133,138 L 134,137 L 134,136 L 135,135 L 135,124 L 136,123 L 136,121 L 137,120 L 137,91 L 136,90 L 136,86 L 135,85 L 135,79 L 134,78 L 134,76 L 133,75 L 133,72 L 132,71 L 132,70 L 131,69 L 131,66 L 130,65 L 130,64 L 129,63 L 129,61 L 127,59 L 127,57 L 126,56 L 126,55 L 125,54 L 125,52 L 124,51 L 124,50 L 123,49 L 123,48 L 122,48 L 121,47 L 121,45 L 118,42 L 117,42 L 115,40 Z" fill="black" /><path d="M 0,0 L 0,218 L 253,218 L 253,0 Z" fill="none" stroke="black" stroke-width="1" /></svg>