<?xml version='1.0' encoding='utf-8'?>
<svg width="259" height="214" xmlns="http://www.w3.org/2000/svg" viewBox="0 0 259 214"><rect width="259" height="214" fill="white" /><path d="M 96,53 L 95,54 L 94,54 L 93,55 L 91,55 L 90,56 L 89,56 L 88,57 L 88,60 L 89,61 L 89,62 L 92,62 L 94,60 L 95,60 L 96,59 L 97,59 L 98,58 L 105,58 L 107,60 L 109,60 L 112,63 L 112,64 L 114,66 L 114,68 L 115,69 L 115,74 L 114,75 L 114,78 L 112,80 L 111,79 L 110,79 L 109,78 L 108,78 L 107,77 L 97,77 L 95,79 L 94,79 L 93,80 L 92,80 L 91,81 L 90,81 L 87,84 L 87,88 L 89,90 L 91,90 L 92,91 L 93,91 L 94,92 L 97,92 L 98,93 L 102,93 L 103,92 L 105,92 L 106,91 L 107,91 L 108,90 L 111,90 L 113,88 L 115,88 L 117,90 L 117,91 L 118,92 L 118,96 L 119,97 L 119,99 L 118,100 L 118,101 L 116,103 L 112,103 L 111,102 L 110,102 L 109,101 L 103,101 L 102,102 L 98,102 L 97,103 L 96,103 L 95,104 L 94,104 L 93,105 L 92,105 L 89,108 L 89,112 L 91,114 L 92,114 L 94,116 L 97,116 L 98,117 L 100,117 L 101,116 L 102,117 L 109,117 L 110,116 L 113,116 L 116,113 L 117,113 L 118,112 L 119,112 L 120,113 L 120,118 L 121,119 L 121,120 L 120,121 L 120,126 L 119,127 L 116,127 L 115,126 L 114,126 L 113,125 L 110,125 L 109,124 L 104,124 L 103,125 L 98,125 L 96,127 L 95,127 L 95,128 L 94,129 L 94,130 L 93,131 L 92,131 L 92,136 L 94,138 L 95,138 L 96,139 L 97,139 L 98,140 L 100,140 L 101,141 L 103,141 L 104,142 L 105,142 L 106,141 L 109,141 L 110,140 L 113,140 L 115,138 L 116,138 L 117,137 L 120,137 L 123,140 L 123,146 L 122,147 L 122,149 L 120,151 L 120,152 L 116,156 L 116,157 L 114,159 L 98,159 L 97,160 L 98,161 L 98,162 L 100,164 L 104,164 L 105,165 L 107,165 L 108,164 L 114,164 L 116,162 L 117,162 L 119,160 L 121,160 L 121,159 L 124,156 L 124,155 L 125,154 L 125,153 L 126,152 L 126,151 L 127,150 L 127,146 L 128,145 L 128,143 L 127,142 L 127,137 L 126,136 L 126,135 L 125,134 L 125,133 L 124,132 L 124,129 L 125,128 L 125,125 L 126,124 L 126,120 L 125,119 L 125,115 L 124,114 L 124,113 L 123,112 L 123,109 L 122,108 L 122,105 L 123,104 L 123,89 L 122,89 L 121,88 L 121,86 L 118,83 L 118,82 L 119,81 L 119,77 L 120,76 L 120,74 L 121,73 L 121,70 L 120,69 L 120,67 L 119,66 L 119,64 L 117,62 L 117,61 L 115,59 L 115,58 L 114,58 L 111,55 L 109,55 L 107,53 Z" fill="black" /><path d="M 0,0 L 0,213 L 258,213 L 258,0 Z" fill="none" stroke="black" stroke-width="1" /></svg>