<?xml version='1.0' encoding='utf-8'?>
<svg width="260" height="218" xmlns="http://www.w3.org/2000/svg" viewBox="0 0 260 218"><rect width="260" height="218" fill="white" /><path d="M 134,17 L 133,18 L 122,18 L 121,19 L 119,19 L 118,20 L 114,20 L 113,21 L 111,21 L 110,22 L 108,22 L 107,23 L 105,23 L 104,24 L 102,24 L 101,25 L 100,25 L 99,26 L 97,26 L 95,28 L 93,28 L 91,30 L 90,30 L 89,31 L 88,31 L 87,32 L 86,32 L 85,33 L 84,33 L 81,36 L 80,36 L 74,42 L 72,42 L 72,43 L 67,48 L 67,49 L 66,50 L 65,50 L 65,51 L 62,54 L 62,55 L 61,56 L 60,56 L 60,57 L 58,59 L 58,60 L 56,62 L 56,64 L 54,66 L 54,68 L 52,70 L 52,71 L 50,73 L 50,76 L 48,78 L 48,81 L 47,82 L 47,83 L 46,84 L 46,87 L 45,88 L 45,90 L 44,91 L 44,94 L 43,95 L 43,97 L 42,98 L 42,101 L 43,102 L 43,105 L 42,106 L 42,129 L 43,130 L 43,131 L 44,132 L 44,137 L 46,139 L 46,145 L 47,145 L 48,146 L 48,148 L 49,149 L 49,150 L 50,151 L 50,153 L 51,154 L 51,155 L 52,156 L 52,158 L 54,160 L 54,161 L 58,165 L 58,168 L 60,170 L 60,172 L 64,176 L 64,177 L 65,177 L 66,178 L 66,179 L 68,181 L 69,181 L 70,182 L 70,183 L 71,183 L 72,184 L 72,185 L 73,185 L 74,186 L 74,187 L 75,187 L 79,191 L 80,191 L 84,195 L 85,195 L 86,196 L 87,196 L 88,197 L 89,197 L 91,199 L 92,199 L 93,200 L 94,200 L 97,203 L 99,203 L 100,204 L 101,204 L 102,205 L 105,205 L 107,207 L 111,207 L 112,208 L 113,208 L 114,209 L 120,209 L 121,210 L 125,210 L 126,211 L 129,211 L 130,212 L 136,212 L 137,213 L 139,213 L 140,212 L 150,212 L 151,211 L 159,211 L 160,210 L 161,210 L 162,209 L 167,209 L 168,208 L 170,208 L 171,207 L 173,207 L 175,205 L 177,205 L 178,204 L 179,204 L 180,203 L 181,203 L 182,202 L 183,202 L 184,201 L 185,201 L 186,200 L 187,200 L 188,199 L 189,199 L 190,198 L 191,198 L 192,197 L 193,197 L 193,196 L 194,195 L 195,195 L 197,193 L 199,193 L 203,189 L 203,188 L 204,187 L 205,187 L 217,175 L 217,174 L 219,172 L 219,170 L 223,166 L 223,164 L 225,162 L 225,160 L 226,159 L 227,159 L 227,158 L 228,157 L 228,156 L 229,155 L 229,152 L 231,150 L 231,148 L 232,147 L 232,144 L 233,143 L 233,140 L 234,139 L 234,136 L 235,135 L 235,130 L 236,129 L 236,122 L 237,121 L 237,108 L 236,107 L 236,104 L 237,103 L 237,102 L 236,101 L 236,100 L 235,99 L 235,94 L 234,93 L 234,92 L 233,91 L 233,88 L 232,87 L 232,86 L 231,85 L 231,82 L 230,81 L 230,80 L 229,79 L 229,76 L 228,75 L 228,74 L 226,72 L 226,71 L 225,70 L 225,68 L 224,68 L 223,67 L 223,65 L 221,63 L 221,62 L 220,61 L 220,60 L 217,57 L 217,56 L 216,56 L 215,55 L 215,54 L 214,53 L 214,52 L 213,51 L 213,50 L 212,50 L 211,49 L 211,48 L 210,48 L 209,47 L 209,46 L 208,46 L 207,45 L 207,44 L 206,44 L 205,43 L 205,42 L 204,42 L 202,40 L 200,40 L 197,37 L 197,36 L 195,34 L 193,34 L 191,32 L 190,32 L 189,31 L 188,31 L 187,30 L 185,30 L 184,29 L 184,28 L 182,28 L 180,26 L 179,26 L 178,25 L 176,25 L 175,24 L 174,24 L 173,23 L 172,23 L 171,22 L 167,22 L 165,20 L 159,20 L 158,19 L 157,19 L 156,18 L 141,18 L 140,17 Z" fill="black" /></svg>