<?xml version='1.0' encoding='utf-8'?>
<svg width="257" height="216" xmlns="http://www.w3.org/2000/svg" viewBox="0 0 257 216"><rect width="257" height="216" fill="white" /><path d="M 212,188 L 211,189 L 210,189 L 208,191 L 208,195 L 207,196 L 207,197 L 208,198 L 208,201 L 212,205 L 217,205 L 219,203 L 221,203 L 223,201 L 223,192 L 221,190 L 221,189 L 220,188 Z" fill="black" /><path d="M 17,165 L 15,167 L 15,168 L 14,169 L 14,171 L 13,172 L 13,173 L 12,174 L 12,177 L 11,178 L 11,179 L 10,180 L 10,182 L 8,184 L 8,185 L 7,186 L 7,187 L 6,188 L 6,190 L 4,192 L 4,195 L 6,197 L 8,197 L 9,196 L 13,196 L 14,197 L 15,196 L 21,196 L 22,197 L 23,197 L 24,196 L 27,196 L 28,197 L 29,197 L 30,196 L 41,196 L 42,195 L 43,195 L 44,194 L 41,191 L 41,190 L 39,188 L 38,188 L 37,187 L 37,186 L 35,184 L 35,183 L 34,183 L 23,172 L 23,171 L 19,167 L 19,166 L 18,165 Z" fill="black" /><path d="M 75,80 L 74,81 L 72,81 L 71,82 L 68,82 L 67,83 L 66,83 L 65,84 L 64,84 L 62,86 L 62,87 L 61,88 L 60,88 L 60,89 L 59,90 L 59,91 L 58,92 L 58,93 L 56,95 L 56,108 L 58,110 L 58,113 L 60,115 L 61,115 L 62,116 L 62,117 L 63,117 L 64,118 L 65,118 L 68,121 L 71,121 L 72,122 L 79,122 L 80,121 L 83,121 L 84,120 L 85,120 L 86,119 L 87,119 L 93,113 L 93,112 L 94,111 L 94,110 L 95,109 L 95,106 L 96,105 L 96,104 L 97,103 L 97,101 L 96,100 L 96,96 L 95,95 L 95,92 L 93,90 L 93,89 L 91,87 L 91,86 L 89,86 L 87,84 L 86,84 L 85,83 L 84,83 L 83,82 L 81,82 L 80,81 L 78,81 L 77,80 Z" fill="black" /><path d="M 134,64 L 134,69 L 133,70 L 133,73 L 132,74 L 132,81 L 131,82 L 131,85 L 130,86 L 130,91 L 129,92 L 129,95 L 128,96 L 128,99 L 130,101 L 158,101 L 159,100 L 161,100 L 162,101 L 171,101 L 172,100 L 174,100 L 176,98 L 172,94 L 171,94 L 169,92 L 168,92 L 165,89 L 165,88 L 163,86 L 162,86 L 153,77 L 152,77 L 151,76 L 150,76 L 147,73 L 147,72 L 145,72 L 144,71 L 144,70 L 143,69 L 143,68 L 142,68 L 141,67 L 141,66 L 140,66 L 138,64 Z" fill="black" /></svg>