<?xml version='1.0' encoding='utf-8'?>
<svg width="258" height="223" xmlns="http://www.w3.org/2000/svg" viewBox="0 0 258 223"><rect width="258" height="223" fill="white" /><path d="M 91,54 L 90,55 L 89,55 L 86,58 L 86,59 L 85,60 L 85,62 L 84,63 L 83,63 L 83,64 L 81,66 L 81,68 L 80,69 L 79,69 L 79,71 L 77,73 L 77,75 L 76,76 L 76,77 L 75,78 L 72,78 L 71,77 L 71,75 L 70,74 L 70,73 L 67,70 L 67,69 L 66,68 L 66,66 L 63,63 L 59,63 L 59,66 L 60,67 L 60,68 L 61,69 L 61,70 L 62,70 L 63,71 L 63,73 L 65,75 L 65,76 L 66,76 L 67,77 L 67,78 L 69,80 L 69,82 L 70,82 L 71,83 L 71,88 L 67,92 L 67,95 L 65,97 L 65,98 L 63,100 L 63,102 L 61,104 L 61,106 L 60,107 L 57,107 L 56,108 L 53,108 L 52,107 L 51,107 L 50,108 L 45,108 L 44,109 L 34,109 L 33,110 L 32,110 L 32,113 L 33,114 L 40,114 L 41,113 L 46,113 L 47,112 L 54,112 L 55,111 L 57,113 L 57,115 L 55,117 L 55,119 L 53,121 L 53,122 L 51,124 L 51,125 L 49,127 L 49,128 L 48,129 L 50,131 L 52,131 L 54,129 L 54,127 L 55,126 L 56,126 L 56,124 L 58,122 L 58,119 L 59,118 L 60,118 L 60,116 L 62,114 L 62,113 L 64,111 L 68,111 L 69,110 L 77,110 L 78,111 L 80,111 L 81,110 L 88,110 L 90,112 L 90,113 L 91,114 L 91,115 L 93,117 L 93,118 L 97,122 L 97,123 L 99,125 L 99,126 L 100,127 L 100,128 L 103,131 L 104,130 L 105,130 L 105,125 L 104,124 L 104,123 L 103,123 L 102,122 L 102,121 L 100,119 L 100,118 L 98,116 L 98,115 L 95,112 L 95,111 L 97,109 L 100,109 L 101,110 L 102,110 L 103,109 L 110,109 L 111,108 L 115,108 L 116,109 L 119,109 L 119,108 L 120,107 L 120,106 L 119,105 L 118,105 L 117,104 L 112,104 L 111,105 L 91,105 L 89,103 L 89,102 L 88,101 L 88,100 L 86,98 L 86,97 L 85,97 L 84,96 L 84,94 L 82,92 L 82,91 L 80,89 L 80,88 L 78,86 L 78,82 L 80,80 L 80,79 L 82,77 L 82,75 L 84,73 L 84,72 L 86,70 L 86,69 L 87,68 L 87,67 L 88,66 L 88,65 L 89,64 L 89,63 L 90,62 L 90,61 L 91,60 L 91,59 L 92,58 L 92,57 L 93,56 Z" fill="black" /><path d="M 0,0 L 0,222 L 257,222 L 257,0 Z" fill="none" stroke="black" stroke-width="1" /></svg>