<?xml version='1.0' encoding='utf-8'?>
<svg width="257" height="220" xmlns="http://www.w3.org/2000/svg" viewBox="0 0 257 220"><rect width="257" height="220" fill="white" /><path d="M 84,78 L 81,81 L 81,82 L 80,83 L 80,84 L 79,85 L 79,86 L 78,87 L 78,88 L 77,89 L 77,90 L 76,91 L 76,92 L 75,93 L 75,95 L 73,97 L 73,98 L 72,99 L 72,100 L 71,101 L 71,104 L 69,106 L 69,108 L 67,110 L 67,112 L 66,113 L 66,114 L 65,115 L 65,118 L 66,119 L 69,119 L 70,118 L 75,118 L 76,119 L 80,119 L 81,118 L 82,118 L 83,119 L 89,119 L 90,118 L 111,118 L 112,119 L 113,118 L 120,118 L 120,115 L 118,113 L 117,113 L 116,112 L 116,111 L 112,107 L 112,106 L 111,106 L 110,105 L 110,104 L 100,94 L 100,93 L 99,93 L 98,92 L 98,91 L 91,84 L 91,83 L 90,82 L 90,81 L 88,79 L 86,79 L 85,78 Z" fill="black" /><path d="M 0,0 L 0,219 L 256,219 L 256,0 Z" fill="none" stroke="black" stroke-width="1" /></svg>