<?xml version='1.0' encoding='utf-8'?>
<svg width="257" height="223" xmlns="http://www.w3.org/2000/svg" viewBox="0 0 257 223"><rect width="257" height="223" fill="white" /><path d="M 176,34 L 175,35 L 170,35 L 169,36 L 166,36 L 165,37 L 163,37 L 162,38 L 161,38 L 160,39 L 159,39 L 158,40 L 157,40 L 156,41 L 155,41 L 154,42 L 153,42 L 151,44 L 150,44 L 148,46 L 147,46 L 147,48 L 145,50 L 144,50 L 143,51 L 143,53 L 142,54 L 141,54 L 141,55 L 140,56 L 140,57 L 139,58 L 139,60 L 137,62 L 135,62 L 132,59 L 132,57 L 130,55 L 130,54 L 127,51 L 127,50 L 126,50 L 118,42 L 115,42 L 113,40 L 112,40 L 110,38 L 107,38 L 106,37 L 99,37 L 98,36 L 89,36 L 88,37 L 84,37 L 83,38 L 75,38 L 74,39 L 73,39 L 72,40 L 69,40 L 67,42 L 65,42 L 65,43 L 64,44 L 61,44 L 59,46 L 57,46 L 54,49 L 53,49 L 52,50 L 51,50 L 49,52 L 48,52 L 44,56 L 43,56 L 43,57 L 42,58 L 42,59 L 37,64 L 37,65 L 36,66 L 35,66 L 35,67 L 32,70 L 32,71 L 31,72 L 31,73 L 30,74 L 30,75 L 29,76 L 29,77 L 27,79 L 27,80 L 26,81 L 26,82 L 25,83 L 25,86 L 24,87 L 24,88 L 23,89 L 23,95 L 22,96 L 22,97 L 21,98 L 21,109 L 20,110 L 20,124 L 21,125 L 21,133 L 22,134 L 22,135 L 23,136 L 23,141 L 24,142 L 24,144 L 25,145 L 25,148 L 27,150 L 27,152 L 28,153 L 28,154 L 30,156 L 30,157 L 31,158 L 31,159 L 33,161 L 33,162 L 40,169 L 41,169 L 43,171 L 44,171 L 45,172 L 46,172 L 47,173 L 48,173 L 49,174 L 50,174 L 51,175 L 58,175 L 59,176 L 60,175 L 66,175 L 67,174 L 68,174 L 69,173 L 72,173 L 74,171 L 74,170 L 75,169 L 76,169 L 77,168 L 78,168 L 79,167 L 80,167 L 88,159 L 88,157 L 92,153 L 92,152 L 93,151 L 94,151 L 94,146 L 97,143 L 97,140 L 98,139 L 98,138 L 99,137 L 99,135 L 100,134 L 100,133 L 101,132 L 101,130 L 100,129 L 100,128 L 101,127 L 101,126 L 102,125 L 102,123 L 103,122 L 104,122 L 105,121 L 107,123 L 107,124 L 109,126 L 109,128 L 111,130 L 111,131 L 112,131 L 113,132 L 113,133 L 115,135 L 115,136 L 116,137 L 118,137 L 119,138 L 119,139 L 121,141 L 122,141 L 123,142 L 123,143 L 125,143 L 127,145 L 128,145 L 130,147 L 131,147 L 133,149 L 135,149 L 136,150 L 137,150 L 138,151 L 140,151 L 142,153 L 144,153 L 145,154 L 147,154 L 148,155 L 152,155 L 153,156 L 154,156 L 155,157 L 158,157 L 159,158 L 160,158 L 161,157 L 162,157 L 163,158 L 164,158 L 165,159 L 172,159 L 173,160 L 175,160 L 176,159 L 182,159 L 183,158 L 184,158 L 185,157 L 189,157 L 191,155 L 192,155 L 193,154 L 194,154 L 195,153 L 196,153 L 198,151 L 199,151 L 203,147 L 204,147 L 204,146 L 206,144 L 206,143 L 208,141 L 208,140 L 210,138 L 210,136 L 213,133 L 213,132 L 214,131 L 214,130 L 215,129 L 215,128 L 216,127 L 216,125 L 217,124 L 217,123 L 218,122 L 218,119 L 219,118 L 219,116 L 220,115 L 220,108 L 221,107 L 221,101 L 222,100 L 222,98 L 221,97 L 221,88 L 222,87 L 222,85 L 221,84 L 221,82 L 220,81 L 220,72 L 219,71 L 219,69 L 218,68 L 218,66 L 217,65 L 217,64 L 216,63 L 216,60 L 214,58 L 214,57 L 213,56 L 213,55 L 212,54 L 212,52 L 210,50 L 209,50 L 208,49 L 208,48 L 207,47 L 207,46 L 206,46 L 200,40 L 199,40 L 198,39 L 197,39 L 196,38 L 195,38 L 194,37 L 193,37 L 192,36 L 188,36 L 187,35 L 181,35 L 180,34 Z" fill="black" /><path d="M 0,0 L 0,222 L 256,222 L 256,0 Z" fill="none" stroke="black" stroke-width="1" /></svg>