<?xml version='1.0' encoding='utf-8'?>
<svg width="256" height="222" xmlns="http://www.w3.org/2000/svg" viewBox="0 0 256 222"><rect width="256" height="222" fill="white" /><path d="M 75,21 L 74,22 L 74,23 L 73,24 L 73,25 L 72,26 L 72,27 L 70,29 L 70,30 L 68,32 L 68,33 L 67,34 L 67,35 L 66,36 L 66,37 L 64,39 L 64,41 L 63,42 L 62,42 L 62,43 L 61,44 L 61,45 L 60,46 L 60,47 L 58,49 L 58,50 L 56,52 L 56,53 L 55,54 L 55,55 L 54,56 L 54,57 L 52,59 L 52,61 L 50,63 L 50,64 L 48,66 L 48,68 L 46,70 L 46,71 L 45,72 L 45,73 L 44,74 L 44,75 L 42,77 L 42,78 L 40,80 L 40,81 L 39,82 L 39,83 L 38,84 L 38,85 L 37,86 L 36,86 L 36,87 L 35,88 L 35,89 L 34,90 L 34,91 L 32,93 L 32,95 L 31,96 L 30,96 L 30,97 L 29,98 L 29,99 L 28,100 L 28,101 L 26,103 L 26,104 L 24,106 L 24,108 L 22,110 L 22,111 L 21,112 L 21,113 L 20,114 L 20,115 L 19,116 L 18,116 L 18,118 L 16,120 L 16,121 L 13,124 L 13,126 L 14,127 L 17,127 L 18,128 L 19,128 L 20,129 L 25,129 L 26,130 L 27,130 L 28,131 L 31,131 L 32,132 L 33,132 L 34,133 L 37,133 L 38,134 L 39,134 L 40,135 L 44,135 L 45,136 L 47,136 L 48,137 L 52,137 L 54,139 L 58,139 L 59,140 L 60,140 L 61,141 L 65,141 L 66,142 L 67,142 L 68,143 L 71,143 L 72,144 L 73,144 L 74,145 L 77,145 L 78,146 L 79,146 L 80,147 L 84,147 L 86,149 L 90,149 L 91,150 L 92,150 L 93,151 L 97,151 L 99,153 L 102,153 L 103,154 L 105,154 L 106,155 L 109,155 L 111,157 L 114,157 L 115,158 L 116,158 L 117,159 L 123,159 L 124,160 L 125,160 L 126,161 L 128,161 L 130,163 L 134,163 L 135,164 L 136,164 L 137,165 L 140,165 L 141,166 L 142,166 L 143,167 L 149,167 L 150,168 L 151,168 L 152,169 L 154,169 L 156,171 L 160,171 L 161,172 L 163,172 L 164,173 L 167,173 L 168,174 L 169,174 L 170,175 L 174,175 L 175,176 L 176,176 L 177,177 L 180,177 L 181,178 L 182,178 L 183,179 L 186,179 L 188,181 L 191,181 L 191,178 L 192,177 L 193,177 L 193,176 L 195,174 L 195,171 L 197,169 L 197,166 L 198,165 L 198,164 L 199,163 L 199,162 L 201,160 L 201,158 L 203,156 L 203,154 L 204,153 L 204,152 L 205,151 L 205,150 L 206,149 L 206,148 L 207,147 L 207,145 L 209,143 L 209,141 L 211,139 L 211,137 L 213,135 L 213,132 L 215,130 L 215,128 L 217,126 L 217,124 L 219,122 L 219,120 L 221,118 L 221,116 L 222,115 L 222,114 L 223,113 L 223,112 L 224,111 L 224,110 L 225,109 L 225,108 L 227,106 L 227,104 L 228,103 L 228,102 L 229,101 L 229,100 L 230,99 L 230,98 L 231,97 L 231,95 L 233,93 L 233,92 L 232,92 L 231,91 L 230,91 L 229,90 L 228,90 L 227,89 L 226,89 L 225,88 L 222,88 L 221,87 L 221,86 L 219,86 L 217,84 L 215,84 L 214,83 L 212,83 L 211,82 L 210,82 L 209,81 L 208,81 L 207,80 L 204,80 L 202,78 L 200,78 L 199,77 L 199,76 L 196,76 L 195,75 L 194,75 L 193,74 L 191,74 L 189,72 L 187,72 L 185,70 L 183,70 L 181,68 L 178,68 L 176,66 L 174,66 L 173,65 L 172,65 L 171,64 L 170,64 L 169,63 L 168,63 L 167,62 L 166,62 L 165,61 L 164,61 L 163,60 L 162,60 L 161,59 L 160,59 L 159,58 L 157,58 L 156,57 L 155,57 L 154,56 L 152,56 L 150,54 L 148,54 L 147,53 L 146,53 L 145,52 L 143,52 L 141,50 L 139,50 L 137,48 L 134,48 L 132,46 L 130,46 L 129,45 L 128,45 L 127,44 L 126,44 L 123,41 L 121,41 L 120,40 L 117,40 L 115,38 L 113,38 L 111,36 L 108,36 L 107,35 L 106,35 L 105,34 L 104,34 L 102,32 L 100,32 L 99,31 L 98,31 L 97,30 L 96,30 L 95,29 L 94,29 L 93,28 L 91,28 L 89,26 L 87,26 L 85,24 L 83,24 L 82,23 L 81,23 L 80,22 L 78,22 L 77,21 Z" fill="black" /><path d="M 0,0 L 0,221 L 255,221 L 255,0 Z" fill="none" stroke="black" stroke-width="1" /></svg>