<?xml version='1.0' encoding='utf-8'?>
<svg width="259" height="224" xmlns="http://www.w3.org/2000/svg" viewBox="0 0 259 224"><rect width="259" height="224" fill="white" /><path d="M 94,23 L 93,24 L 92,24 L 91,25 L 88,25 L 86,27 L 84,27 L 82,29 L 80,29 L 80,30 L 79,31 L 78,31 L 76,33 L 76,34 L 74,36 L 74,37 L 72,39 L 72,40 L 71,41 L 71,42 L 70,43 L 70,46 L 69,47 L 69,50 L 68,51 L 68,80 L 69,81 L 69,92 L 70,93 L 70,95 L 71,96 L 70,97 L 70,100 L 71,101 L 71,108 L 72,109 L 72,156 L 71,157 L 71,158 L 70,159 L 70,164 L 69,165 L 69,172 L 68,173 L 68,177 L 67,178 L 67,180 L 66,181 L 66,184 L 64,186 L 64,189 L 62,191 L 62,194 L 63,195 L 63,196 L 66,196 L 68,194 L 69,194 L 70,193 L 71,193 L 72,192 L 73,192 L 74,191 L 75,191 L 76,190 L 77,190 L 78,189 L 79,189 L 80,188 L 81,188 L 82,187 L 83,187 L 84,186 L 85,186 L 86,185 L 87,185 L 88,184 L 89,184 L 90,183 L 91,183 L 92,182 L 95,182 L 96,181 L 97,181 L 98,180 L 101,180 L 102,179 L 105,179 L 106,178 L 111,178 L 112,177 L 117,177 L 118,176 L 126,176 L 128,174 L 142,174 L 143,173 L 145,173 L 146,172 L 155,172 L 156,171 L 165,171 L 166,170 L 177,170 L 178,169 L 185,169 L 186,168 L 195,168 L 196,167 L 199,167 L 200,166 L 203,166 L 204,165 L 205,165 L 206,164 L 208,164 L 209,163 L 210,163 L 211,162 L 212,162 L 214,160 L 215,160 L 217,158 L 217,157 L 218,156 L 219,156 L 219,153 L 221,151 L 221,150 L 220,149 L 220,148 L 218,146 L 216,146 L 214,148 L 214,151 L 210,155 L 209,155 L 207,157 L 206,157 L 205,158 L 204,158 L 203,159 L 202,159 L 201,160 L 199,160 L 198,161 L 190,161 L 189,162 L 182,162 L 181,163 L 172,163 L 171,164 L 169,164 L 168,165 L 161,165 L 160,166 L 156,166 L 155,167 L 140,167 L 139,168 L 135,168 L 134,169 L 132,169 L 131,168 L 130,168 L 129,169 L 122,169 L 121,170 L 118,170 L 117,171 L 116,171 L 115,172 L 113,172 L 112,171 L 110,171 L 109,172 L 108,172 L 107,173 L 103,173 L 101,175 L 95,175 L 93,177 L 90,177 L 89,178 L 88,178 L 87,179 L 85,179 L 83,181 L 80,181 L 79,182 L 78,182 L 76,184 L 73,184 L 72,183 L 72,178 L 73,177 L 73,172 L 74,171 L 74,169 L 75,168 L 75,163 L 76,162 L 76,157 L 77,156 L 77,105 L 76,104 L 76,97 L 75,96 L 75,88 L 74,87 L 74,84 L 73,83 L 73,78 L 74,77 L 73,76 L 73,69 L 72,68 L 72,64 L 73,63 L 73,54 L 74,53 L 74,47 L 75,46 L 75,45 L 76,44 L 76,43 L 77,42 L 77,39 L 78,38 L 79,38 L 84,33 L 85,33 L 86,32 L 87,32 L 88,31 L 89,31 L 90,30 L 93,30 L 94,29 L 98,29 L 99,28 L 107,28 L 108,29 L 113,29 L 114,30 L 115,30 L 116,31 L 117,31 L 118,32 L 120,32 L 122,34 L 123,34 L 124,35 L 124,36 L 125,36 L 128,39 L 128,41 L 130,43 L 130,44 L 131,45 L 131,46 L 132,47 L 132,49 L 134,51 L 134,54 L 136,56 L 136,58 L 137,59 L 137,60 L 138,61 L 138,64 L 139,65 L 139,66 L 140,67 L 140,70 L 142,72 L 142,77 L 144,79 L 144,82 L 146,84 L 146,86 L 148,88 L 148,90 L 150,92 L 150,94 L 151,95 L 151,96 L 152,97 L 152,98 L 153,98 L 154,99 L 154,100 L 155,100 L 159,104 L 160,104 L 162,106 L 163,106 L 165,108 L 167,108 L 168,109 L 170,109 L 171,110 L 195,110 L 196,111 L 197,111 L 198,112 L 202,112 L 204,114 L 205,114 L 206,115 L 207,115 L 213,121 L 215,121 L 216,120 L 216,117 L 215,116 L 215,114 L 211,110 L 210,110 L 209,109 L 208,109 L 206,107 L 203,107 L 202,106 L 200,106 L 199,105 L 195,105 L 194,104 L 188,104 L 187,105 L 177,105 L 176,104 L 174,104 L 173,103 L 169,103 L 167,101 L 165,101 L 163,99 L 162,99 L 159,96 L 159,95 L 158,95 L 155,92 L 155,90 L 153,88 L 153,87 L 152,86 L 152,85 L 151,84 L 151,83 L 150,82 L 150,79 L 149,78 L 149,77 L 148,76 L 148,75 L 147,74 L 147,73 L 146,72 L 146,70 L 145,69 L 145,66 L 144,65 L 144,64 L 143,63 L 143,59 L 142,59 L 141,58 L 141,53 L 140,52 L 140,51 L 139,50 L 139,48 L 137,46 L 137,43 L 136,43 L 135,42 L 135,41 L 133,39 L 133,38 L 131,36 L 131,35 L 130,35 L 129,34 L 129,33 L 128,33 L 127,32 L 127,31 L 126,31 L 125,30 L 125,29 L 124,29 L 123,28 L 122,28 L 121,27 L 120,27 L 118,25 L 110,25 L 109,24 L 108,24 L 107,23 Z" fill="black" /><path d="M 0,0 L 0,223 L 258,223 L 258,0 Z" fill="none" stroke="black" stroke-width="1" /></svg>