<?xml version='1.0' encoding='utf-8'?>
<svg width="258" height="221" xmlns="http://www.w3.org/2000/svg" viewBox="0 0 258 221"><rect width="258" height="221" fill="white" /><path d="M 84,5 L 83,6 L 78,6 L 76,8 L 75,8 L 73,10 L 72,10 L 70,12 L 69,12 L 67,14 L 66,14 L 63,17 L 62,17 L 59,20 L 59,21 L 58,22 L 58,23 L 57,24 L 56,24 L 56,25 L 55,26 L 55,27 L 54,28 L 54,29 L 52,31 L 52,33 L 51,34 L 51,39 L 50,40 L 50,43 L 49,44 L 49,55 L 48,56 L 48,63 L 47,64 L 47,72 L 46,73 L 46,85 L 47,86 L 47,90 L 46,91 L 46,112 L 47,113 L 46,114 L 46,137 L 47,138 L 47,156 L 48,157 L 48,158 L 47,159 L 47,165 L 48,166 L 48,172 L 47,173 L 47,181 L 46,182 L 46,189 L 45,190 L 45,191 L 44,192 L 44,196 L 43,197 L 43,198 L 42,199 L 42,200 L 40,202 L 40,204 L 41,205 L 44,205 L 46,203 L 47,203 L 48,202 L 49,202 L 50,201 L 51,201 L 51,200 L 52,199 L 53,199 L 54,198 L 55,198 L 56,197 L 57,197 L 59,195 L 61,195 L 62,194 L 63,194 L 64,193 L 65,193 L 67,191 L 69,191 L 70,190 L 71,190 L 72,189 L 73,189 L 74,188 L 75,188 L 76,187 L 79,187 L 80,186 L 81,186 L 82,185 L 84,185 L 85,184 L 87,184 L 88,183 L 94,183 L 96,181 L 99,181 L 100,180 L 101,180 L 102,179 L 105,179 L 106,178 L 109,178 L 110,177 L 111,177 L 112,176 L 115,176 L 116,175 L 124,175 L 125,174 L 129,174 L 130,173 L 143,173 L 144,172 L 147,172 L 148,171 L 164,171 L 166,169 L 169,169 L 170,168 L 171,168 L 172,167 L 173,167 L 174,166 L 175,166 L 176,165 L 178,165 L 180,163 L 181,163 L 183,161 L 185,161 L 186,160 L 187,160 L 188,159 L 189,159 L 189,158 L 193,154 L 193,153 L 195,151 L 195,149 L 196,148 L 196,147 L 197,146 L 197,142 L 198,141 L 198,136 L 197,135 L 197,130 L 196,129 L 196,128 L 195,127 L 195,124 L 194,123 L 194,122 L 193,121 L 193,120 L 192,120 L 189,117 L 189,116 L 188,116 L 187,115 L 187,114 L 186,114 L 184,112 L 183,112 L 181,110 L 178,110 L 177,109 L 176,109 L 175,108 L 174,108 L 173,107 L 173,106 L 170,106 L 167,103 L 167,102 L 166,102 L 165,101 L 165,100 L 164,100 L 161,97 L 161,96 L 160,96 L 159,95 L 159,94 L 157,92 L 157,91 L 155,89 L 155,88 L 154,87 L 154,86 L 153,85 L 153,82 L 151,80 L 151,78 L 150,77 L 150,75 L 149,74 L 149,73 L 148,72 L 148,71 L 147,70 L 147,62 L 146,61 L 146,58 L 145,57 L 145,54 L 144,54 L 143,53 L 143,50 L 142,49 L 142,47 L 141,46 L 141,41 L 140,40 L 140,39 L 139,38 L 139,36 L 137,34 L 137,33 L 135,31 L 135,30 L 134,30 L 133,29 L 133,28 L 131,26 L 131,25 L 122,16 L 121,16 L 119,14 L 118,14 L 116,12 L 114,12 L 112,10 L 111,10 L 109,8 L 106,8 L 105,7 L 102,7 L 101,6 L 90,6 L 89,5 Z" fill="black" /><path d="M 0,0 L 0,220 L 257,220 L 257,0 Z" fill="none" stroke="black" stroke-width="1" /></svg>