<?xml version='1.0' encoding='utf-8'?>
<svg width="256" height="222" xmlns="http://www.w3.org/2000/svg" viewBox="0 0 256 222"><rect width="256" height="222" fill="white" /><path d="M 129,32 L 128,33 L 123,33 L 122,34 L 116,34 L 115,35 L 113,35 L 112,36 L 109,36 L 108,37 L 107,37 L 106,38 L 104,38 L 102,40 L 100,40 L 99,41 L 98,41 L 97,42 L 96,42 L 95,43 L 94,43 L 93,44 L 92,44 L 91,45 L 90,45 L 88,47 L 87,47 L 86,48 L 86,49 L 83,52 L 82,52 L 76,58 L 76,63 L 77,64 L 78,63 L 79,63 L 81,61 L 81,60 L 82,59 L 83,59 L 91,51 L 93,51 L 93,50 L 96,47 L 98,47 L 100,45 L 102,45 L 104,43 L 107,43 L 107,42 L 108,41 L 112,41 L 113,40 L 115,40 L 116,39 L 122,39 L 123,38 L 128,38 L 129,37 L 137,37 L 138,38 L 143,38 L 144,39 L 150,39 L 152,41 L 155,41 L 157,43 L 160,43 L 162,45 L 164,45 L 166,47 L 167,47 L 169,49 L 171,49 L 177,55 L 178,55 L 181,58 L 181,59 L 182,59 L 184,61 L 184,62 L 190,68 L 190,69 L 192,71 L 192,73 L 194,75 L 194,77 L 196,79 L 196,81 L 198,83 L 198,87 L 199,87 L 200,88 L 200,95 L 201,96 L 201,97 L 202,98 L 202,99 L 201,100 L 201,101 L 202,102 L 202,119 L 200,121 L 200,124 L 199,125 L 199,127 L 198,128 L 198,131 L 197,132 L 197,134 L 196,135 L 196,136 L 195,137 L 195,138 L 194,139 L 194,141 L 193,142 L 193,143 L 190,146 L 190,147 L 189,148 L 189,149 L 184,154 L 184,155 L 179,160 L 178,160 L 178,161 L 177,162 L 176,162 L 174,164 L 173,164 L 169,168 L 167,168 L 165,170 L 163,170 L 161,172 L 159,172 L 158,173 L 157,173 L 156,174 L 154,174 L 153,175 L 151,175 L 150,176 L 149,176 L 148,177 L 145,177 L 144,178 L 133,178 L 132,179 L 131,179 L 130,178 L 120,178 L 119,177 L 116,177 L 115,176 L 112,176 L 111,175 L 110,175 L 109,174 L 106,174 L 105,173 L 104,173 L 103,172 L 102,172 L 99,169 L 98,169 L 97,168 L 95,168 L 93,166 L 92,166 L 91,165 L 91,164 L 90,164 L 88,162 L 87,162 L 81,156 L 81,155 L 77,151 L 77,150 L 74,147 L 74,146 L 73,145 L 73,144 L 71,142 L 71,141 L 69,139 L 69,136 L 68,135 L 68,134 L 67,133 L 67,132 L 66,131 L 66,130 L 65,129 L 65,124 L 64,123 L 64,121 L 63,120 L 63,99 L 59,99 L 58,100 L 58,102 L 57,103 L 57,105 L 58,106 L 58,110 L 57,111 L 57,114 L 58,115 L 58,121 L 60,123 L 60,129 L 62,131 L 62,134 L 63,135 L 63,138 L 64,139 L 64,141 L 65,141 L 66,142 L 66,143 L 67,144 L 67,145 L 68,146 L 68,148 L 72,152 L 72,153 L 73,153 L 74,154 L 74,156 L 76,158 L 76,159 L 77,159 L 80,162 L 81,162 L 83,164 L 83,165 L 84,166 L 85,166 L 86,167 L 86,168 L 87,168 L 88,169 L 89,169 L 91,171 L 92,171 L 94,173 L 95,173 L 96,174 L 96,175 L 99,175 L 100,176 L 101,176 L 102,177 L 103,177 L 104,178 L 105,178 L 106,179 L 110,179 L 111,180 L 112,180 L 113,181 L 117,181 L 118,182 L 121,182 L 122,183 L 143,183 L 144,182 L 145,182 L 146,181 L 150,181 L 151,180 L 152,180 L 153,179 L 157,179 L 159,177 L 163,177 L 163,176 L 164,175 L 166,175 L 168,173 L 170,173 L 172,171 L 173,171 L 175,169 L 176,169 L 180,165 L 181,165 L 183,163 L 183,162 L 186,159 L 187,159 L 189,157 L 189,156 L 190,155 L 190,154 L 193,151 L 193,150 L 196,147 L 196,146 L 197,145 L 197,143 L 199,141 L 199,140 L 201,138 L 201,134 L 203,132 L 203,128 L 204,127 L 204,125 L 205,124 L 205,120 L 206,119 L 206,113 L 207,112 L 207,102 L 206,101 L 206,100 L 205,99 L 205,91 L 204,90 L 204,89 L 203,88 L 203,84 L 202,83 L 202,80 L 201,79 L 201,78 L 200,77 L 200,76 L 199,75 L 199,74 L 197,72 L 197,70 L 195,68 L 195,67 L 193,65 L 193,64 L 189,60 L 189,59 L 180,50 L 179,50 L 177,48 L 176,48 L 175,47 L 175,46 L 173,46 L 171,44 L 170,44 L 168,42 L 167,42 L 165,40 L 160,40 L 159,39 L 159,38 L 157,38 L 155,36 L 150,36 L 149,35 L 148,35 L 147,34 L 140,34 L 139,33 L 130,33 Z" fill="black" /><path d="M 0,0 L 0,221 L 255,221 L 255,0 Z" fill="none" stroke="black" stroke-width="1" /></svg>