<?xml version='1.0' encoding='utf-8'?>
<svg width="260" height="222" xmlns="http://www.w3.org/2000/svg" viewBox="0 0 260 222"><rect width="260" height="222" fill="white" /><path d="M 169,36 L 168,37 L 165,37 L 164,38 L 158,38 L 157,39 L 156,39 L 155,40 L 152,40 L 151,41 L 150,41 L 149,42 L 146,42 L 145,43 L 143,43 L 142,44 L 141,44 L 140,45 L 138,45 L 137,46 L 135,46 L 134,47 L 133,47 L 132,48 L 130,48 L 129,49 L 128,49 L 125,52 L 122,52 L 119,55 L 118,55 L 117,56 L 116,56 L 113,59 L 112,59 L 111,60 L 110,60 L 108,62 L 107,62 L 106,63 L 105,63 L 98,70 L 97,70 L 87,80 L 87,81 L 86,82 L 85,82 L 85,83 L 84,84 L 84,85 L 81,88 L 80,88 L 78,90 L 78,91 L 77,92 L 77,93 L 74,96 L 74,98 L 72,100 L 72,101 L 70,103 L 70,104 L 68,106 L 68,108 L 66,110 L 66,111 L 65,112 L 65,113 L 64,114 L 64,115 L 63,116 L 63,117 L 62,118 L 62,120 L 60,122 L 60,124 L 59,125 L 59,126 L 58,127 L 58,129 L 57,130 L 57,132 L 56,133 L 56,137 L 54,139 L 54,144 L 53,145 L 53,147 L 52,148 L 52,156 L 51,157 L 51,159 L 52,160 L 52,169 L 53,170 L 53,171 L 54,172 L 54,173 L 56,175 L 56,177 L 59,180 L 59,181 L 65,187 L 66,187 L 68,189 L 70,189 L 72,191 L 75,191 L 77,193 L 89,193 L 90,192 L 95,192 L 96,191 L 103,191 L 104,190 L 105,190 L 106,189 L 111,189 L 112,188 L 113,188 L 114,187 L 116,187 L 118,185 L 121,185 L 123,183 L 125,183 L 126,182 L 127,182 L 128,181 L 130,181 L 132,179 L 134,179 L 136,177 L 138,177 L 140,175 L 142,175 L 144,173 L 145,173 L 147,171 L 149,171 L 149,170 L 150,169 L 151,169 L 153,167 L 154,167 L 156,165 L 157,165 L 160,162 L 161,162 L 168,155 L 169,155 L 169,154 L 170,153 L 171,153 L 171,152 L 172,151 L 173,151 L 173,150 L 174,149 L 175,149 L 175,148 L 179,144 L 179,143 L 183,139 L 183,138 L 184,137 L 185,137 L 185,136 L 187,134 L 187,133 L 189,131 L 189,130 L 193,126 L 193,123 L 195,121 L 195,120 L 197,118 L 197,116 L 198,115 L 198,114 L 199,113 L 199,112 L 200,111 L 200,110 L 201,109 L 201,107 L 203,105 L 203,102 L 204,101 L 204,100 L 205,99 L 205,97 L 206,96 L 206,95 L 207,94 L 207,92 L 208,91 L 208,90 L 209,89 L 209,84 L 210,83 L 210,80 L 211,79 L 211,75 L 212,74 L 212,67 L 213,66 L 213,60 L 212,60 L 211,59 L 211,56 L 209,54 L 209,52 L 207,50 L 207,49 L 203,45 L 203,44 L 202,44 L 201,43 L 201,42 L 199,40 L 196,40 L 195,39 L 195,38 L 191,38 L 189,36 Z" fill="black" /><path d="M 0,0 L 0,221 L 259,221 L 259,0 Z" fill="none" stroke="black" stroke-width="1" /></svg>