<?xml version='1.0' encoding='utf-8'?>
<svg width="257" height="222" xmlns="http://www.w3.org/2000/svg" viewBox="0 0 257 222"><rect width="257" height="222" fill="white" /><path d="M 114,32 L 113,33 L 109,33 L 108,34 L 103,34 L 102,35 L 100,35 L 99,36 L 95,36 L 94,37 L 86,37 L 85,38 L 79,38 L 78,39 L 74,39 L 73,40 L 67,40 L 66,41 L 63,41 L 62,42 L 54,42 L 53,43 L 51,43 L 50,44 L 42,44 L 41,45 L 36,45 L 35,46 L 31,46 L 31,53 L 32,54 L 32,61 L 33,62 L 33,73 L 34,74 L 34,75 L 33,76 L 33,77 L 34,78 L 34,79 L 35,80 L 35,92 L 36,93 L 36,97 L 37,98 L 37,112 L 38,113 L 38,118 L 39,119 L 39,123 L 38,124 L 38,125 L 39,126 L 39,136 L 40,137 L 40,145 L 41,146 L 41,153 L 42,154 L 42,161 L 43,162 L 43,175 L 44,176 L 44,182 L 46,184 L 54,184 L 55,183 L 66,183 L 67,182 L 72,182 L 73,181 L 84,181 L 85,180 L 90,180 L 91,179 L 101,179 L 102,178 L 108,178 L 109,177 L 119,177 L 120,176 L 126,176 L 127,175 L 140,175 L 141,174 L 143,174 L 144,173 L 145,173 L 146,174 L 148,174 L 149,173 L 156,173 L 157,172 L 161,172 L 162,171 L 176,171 L 177,170 L 182,170 L 183,169 L 194,169 L 195,168 L 201,168 L 203,166 L 203,165 L 204,164 L 204,158 L 205,157 L 205,155 L 206,154 L 206,144 L 207,143 L 207,139 L 208,138 L 208,129 L 209,128 L 209,123 L 210,122 L 210,112 L 211,111 L 211,108 L 207,108 L 205,110 L 205,119 L 204,120 L 204,123 L 203,124 L 203,135 L 202,136 L 202,140 L 201,141 L 201,151 L 200,152 L 200,156 L 199,157 L 199,163 L 198,164 L 185,164 L 184,165 L 177,165 L 176,166 L 168,166 L 167,167 L 163,167 L 162,168 L 150,168 L 149,169 L 145,169 L 144,170 L 133,170 L 132,171 L 126,171 L 125,172 L 111,172 L 110,173 L 107,173 L 106,174 L 91,174 L 90,175 L 81,175 L 80,176 L 65,176 L 64,177 L 61,177 L 60,178 L 50,178 L 48,176 L 48,161 L 47,160 L 47,154 L 46,153 L 46,138 L 45,137 L 45,132 L 44,131 L 44,119 L 43,118 L 43,111 L 42,110 L 42,96 L 41,95 L 41,92 L 40,91 L 40,77 L 39,76 L 39,74 L 38,73 L 38,60 L 37,59 L 37,52 L 38,51 L 41,51 L 42,50 L 44,50 L 45,49 L 51,49 L 52,48 L 55,48 L 56,47 L 64,47 L 65,46 L 66,46 L 67,45 L 75,45 L 77,43 L 79,43 L 80,44 L 81,44 L 82,43 L 88,43 L 89,42 L 92,42 L 93,41 L 98,41 L 99,40 L 100,40 L 101,39 L 113,39 L 114,38 L 116,38 L 117,37 L 120,37 L 121,38 L 127,38 L 128,39 L 133,39 L 134,40 L 135,40 L 136,41 L 138,41 L 139,42 L 140,42 L 141,43 L 143,43 L 145,45 L 146,45 L 147,46 L 148,46 L 149,47 L 150,47 L 153,50 L 153,51 L 154,51 L 155,52 L 155,53 L 156,53 L 157,54 L 157,55 L 159,57 L 159,59 L 160,59 L 163,62 L 163,63 L 165,65 L 165,66 L 167,68 L 167,71 L 168,72 L 168,74 L 169,75 L 169,77 L 170,78 L 170,83 L 171,84 L 171,93 L 170,94 L 170,95 L 171,96 L 171,98 L 169,100 L 169,105 L 168,106 L 168,107 L 167,108 L 167,109 L 166,110 L 166,111 L 165,112 L 165,113 L 164,114 L 164,115 L 163,116 L 163,117 L 161,119 L 161,120 L 157,124 L 157,125 L 156,126 L 155,126 L 153,128 L 152,128 L 148,132 L 147,132 L 147,133 L 146,134 L 145,134 L 144,135 L 143,135 L 142,136 L 137,136 L 136,137 L 133,137 L 132,138 L 125,138 L 124,139 L 115,139 L 114,138 L 109,138 L 107,136 L 105,136 L 103,134 L 102,134 L 100,132 L 99,132 L 98,131 L 98,130 L 97,130 L 92,125 L 92,124 L 91,123 L 91,122 L 90,121 L 90,118 L 88,116 L 88,114 L 86,112 L 86,98 L 87,97 L 87,95 L 88,94 L 88,90 L 89,89 L 89,88 L 90,87 L 90,86 L 91,85 L 91,84 L 92,83 L 92,82 L 95,79 L 96,79 L 96,78 L 97,77 L 98,77 L 98,76 L 101,73 L 102,73 L 104,71 L 107,71 L 108,70 L 109,70 L 110,69 L 124,69 L 125,70 L 126,70 L 127,71 L 128,71 L 130,73 L 131,73 L 133,75 L 133,76 L 137,80 L 137,82 L 138,83 L 138,84 L 139,85 L 139,89 L 138,90 L 138,94 L 137,95 L 137,99 L 135,101 L 135,102 L 131,106 L 130,106 L 128,108 L 125,108 L 123,110 L 121,110 L 120,111 L 116,111 L 116,113 L 118,115 L 124,115 L 125,114 L 126,114 L 127,113 L 130,113 L 132,111 L 134,111 L 136,109 L 136,108 L 137,107 L 138,107 L 138,106 L 139,105 L 140,105 L 140,104 L 141,103 L 141,102 L 142,101 L 142,100 L 144,98 L 144,94 L 145,93 L 145,90 L 146,89 L 146,88 L 144,86 L 144,80 L 142,78 L 142,75 L 140,73 L 139,73 L 138,72 L 138,71 L 135,68 L 134,68 L 132,66 L 130,66 L 129,65 L 128,65 L 127,64 L 123,64 L 122,63 L 121,63 L 120,62 L 115,62 L 114,63 L 111,63 L 110,64 L 107,64 L 105,66 L 102,66 L 100,68 L 99,68 L 98,69 L 97,69 L 96,70 L 95,70 L 95,71 L 94,72 L 93,72 L 91,74 L 91,75 L 88,78 L 88,79 L 87,80 L 87,81 L 86,82 L 85,82 L 85,83 L 83,85 L 83,88 L 81,90 L 81,94 L 80,95 L 80,101 L 79,102 L 80,103 L 80,106 L 79,107 L 79,109 L 81,111 L 81,115 L 82,116 L 82,118 L 83,119 L 83,121 L 85,123 L 85,125 L 86,126 L 86,127 L 87,128 L 87,129 L 88,129 L 89,130 L 89,131 L 90,131 L 91,132 L 91,133 L 92,133 L 93,134 L 93,135 L 94,135 L 96,137 L 97,137 L 99,139 L 101,139 L 103,141 L 104,141 L 105,142 L 106,142 L 107,143 L 110,143 L 112,145 L 130,145 L 131,144 L 132,144 L 133,143 L 138,143 L 139,142 L 140,142 L 141,141 L 142,141 L 144,139 L 147,139 L 148,138 L 149,138 L 150,137 L 151,137 L 155,133 L 156,133 L 156,132 L 157,131 L 158,131 L 162,127 L 162,126 L 163,125 L 164,125 L 164,123 L 168,119 L 168,118 L 170,116 L 170,115 L 172,113 L 172,110 L 173,109 L 173,108 L 174,107 L 174,104 L 175,103 L 175,102 L 176,101 L 176,90 L 177,89 L 177,80 L 176,79 L 176,72 L 174,70 L 174,68 L 172,66 L 172,65 L 168,61 L 168,60 L 166,58 L 166,57 L 164,55 L 164,54 L 154,44 L 153,44 L 152,43 L 152,42 L 151,42 L 149,40 L 147,40 L 145,38 L 144,38 L 142,36 L 139,36 L 138,35 L 137,35 L 136,34 L 131,34 L 130,33 L 125,33 L 124,32 Z" fill="black" /><path d="M 0,0 L 0,221 L 256,221 L 256,0 Z" fill="none" stroke="black" stroke-width="1" /></svg>