<?xml version='1.0' encoding='utf-8'?>
<svg width="255" height="220" xmlns="http://www.w3.org/2000/svg" viewBox="0 0 255 220"><rect width="255" height="220" fill="white" /><path d="M 102,22 L 101,23 L 98,23 L 98,27 L 99,28 L 101,28 L 102,29 L 115,29 L 116,30 L 117,30 L 118,31 L 121,31 L 122,32 L 123,32 L 124,33 L 127,33 L 129,35 L 131,35 L 133,37 L 134,37 L 136,39 L 137,39 L 140,42 L 140,43 L 141,43 L 148,50 L 149,50 L 152,53 L 152,54 L 154,56 L 154,57 L 155,58 L 155,59 L 158,62 L 158,65 L 160,67 L 160,69 L 161,70 L 161,71 L 162,72 L 162,78 L 163,79 L 163,80 L 164,81 L 164,86 L 165,87 L 165,101 L 164,102 L 164,108 L 162,110 L 162,113 L 161,114 L 161,116 L 160,117 L 160,119 L 159,120 L 159,121 L 158,122 L 158,123 L 156,125 L 156,126 L 154,128 L 154,129 L 152,131 L 152,132 L 150,134 L 150,135 L 149,136 L 148,136 L 148,137 L 145,140 L 144,140 L 144,141 L 143,142 L 142,142 L 138,146 L 137,146 L 135,148 L 134,148 L 132,150 L 129,150 L 127,152 L 124,152 L 123,153 L 122,153 L 121,154 L 119,154 L 118,155 L 117,155 L 116,156 L 92,156 L 91,155 L 89,155 L 88,154 L 84,154 L 83,153 L 82,153 L 81,152 L 78,152 L 77,151 L 77,150 L 75,150 L 73,148 L 72,148 L 71,147 L 70,147 L 65,142 L 64,142 L 59,137 L 59,136 L 58,136 L 57,135 L 57,134 L 55,132 L 55,131 L 53,129 L 53,128 L 52,127 L 52,126 L 51,125 L 51,124 L 49,122 L 49,120 L 48,119 L 48,118 L 47,117 L 47,113 L 46,112 L 46,108 L 45,107 L 45,104 L 46,103 L 46,93 L 45,92 L 46,91 L 46,87 L 47,86 L 47,82 L 49,80 L 49,78 L 50,77 L 50,75 L 51,74 L 51,73 L 53,71 L 53,70 L 54,69 L 54,68 L 55,67 L 55,66 L 56,65 L 57,65 L 57,64 L 59,62 L 59,61 L 61,59 L 61,58 L 62,57 L 63,57 L 65,55 L 66,55 L 68,53 L 69,53 L 69,52 L 70,51 L 72,51 L 74,49 L 75,49 L 76,48 L 77,48 L 78,47 L 79,47 L 81,45 L 85,45 L 86,44 L 87,44 L 88,43 L 90,43 L 91,42 L 95,42 L 96,41 L 101,41 L 102,42 L 106,42 L 107,41 L 108,41 L 109,42 L 111,42 L 112,43 L 116,43 L 117,44 L 119,44 L 120,45 L 122,45 L 124,47 L 125,47 L 127,49 L 128,49 L 130,51 L 131,51 L 132,52 L 132,53 L 133,53 L 137,57 L 138,57 L 142,61 L 142,62 L 144,64 L 144,65 L 145,66 L 145,67 L 148,70 L 148,71 L 149,72 L 149,73 L 150,74 L 150,78 L 152,80 L 152,85 L 153,86 L 153,92 L 152,93 L 152,103 L 151,104 L 151,106 L 150,107 L 150,109 L 149,110 L 149,111 L 148,112 L 148,114 L 146,116 L 146,118 L 144,120 L 144,121 L 143,122 L 143,123 L 138,128 L 138,129 L 137,130 L 136,130 L 135,131 L 134,131 L 131,134 L 130,134 L 128,136 L 126,136 L 125,137 L 124,137 L 123,138 L 122,138 L 120,140 L 116,140 L 115,141 L 112,141 L 111,142 L 90,142 L 88,140 L 85,140 L 84,139 L 83,139 L 82,138 L 81,138 L 79,136 L 78,136 L 76,134 L 75,134 L 72,131 L 72,130 L 71,129 L 70,129 L 69,128 L 69,127 L 65,123 L 65,120 L 64,120 L 63,119 L 63,116 L 62,115 L 62,114 L 61,113 L 61,110 L 60,109 L 60,108 L 59,107 L 59,90 L 60,89 L 60,87 L 61,86 L 61,84 L 62,83 L 62,82 L 63,81 L 63,80 L 65,78 L 65,77 L 67,75 L 67,73 L 71,69 L 71,68 L 72,67 L 74,67 L 74,66 L 75,65 L 76,65 L 78,63 L 79,63 L 81,61 L 83,61 L 85,59 L 88,59 L 89,58 L 90,58 L 91,57 L 94,57 L 95,56 L 104,56 L 105,57 L 113,57 L 114,58 L 115,58 L 116,59 L 117,59 L 118,60 L 118,61 L 120,61 L 122,63 L 123,63 L 124,64 L 124,65 L 125,65 L 132,72 L 132,74 L 134,76 L 134,77 L 136,79 L 136,89 L 137,90 L 137,97 L 136,98 L 136,103 L 135,104 L 135,107 L 134,108 L 134,109 L 132,111 L 132,113 L 125,120 L 124,120 L 124,121 L 123,122 L 122,122 L 121,123 L 120,123 L 119,124 L 118,124 L 117,125 L 116,125 L 115,126 L 113,126 L 112,127 L 110,127 L 109,128 L 96,128 L 95,127 L 93,127 L 92,126 L 90,126 L 88,124 L 87,124 L 85,122 L 84,122 L 81,119 L 81,118 L 80,117 L 80,116 L 79,115 L 79,114 L 77,112 L 77,111 L 75,109 L 75,106 L 74,105 L 74,94 L 75,93 L 75,89 L 77,87 L 77,85 L 78,84 L 78,83 L 80,81 L 80,80 L 84,76 L 85,76 L 88,73 L 89,73 L 90,72 L 93,72 L 94,71 L 98,71 L 99,70 L 107,70 L 108,71 L 112,71 L 116,75 L 117,75 L 118,76 L 118,77 L 119,78 L 119,79 L 120,80 L 120,81 L 121,81 L 122,82 L 122,83 L 123,84 L 123,85 L 124,86 L 124,95 L 123,96 L 123,97 L 122,98 L 122,101 L 121,102 L 121,103 L 120,104 L 120,106 L 116,110 L 114,110 L 113,111 L 112,111 L 111,112 L 109,112 L 107,114 L 105,114 L 104,113 L 98,113 L 97,112 L 95,112 L 93,110 L 92,110 L 89,107 L 89,106 L 88,105 L 88,104 L 87,103 L 87,96 L 88,95 L 88,94 L 89,93 L 89,92 L 90,91 L 91,91 L 91,90 L 94,87 L 96,87 L 97,86 L 98,86 L 99,85 L 102,85 L 103,86 L 105,86 L 105,81 L 100,81 L 99,80 L 97,80 L 95,82 L 92,82 L 91,83 L 90,83 L 88,85 L 88,86 L 86,88 L 86,89 L 85,90 L 85,91 L 84,92 L 84,93 L 83,94 L 83,95 L 82,96 L 82,101 L 83,102 L 83,104 L 84,105 L 84,107 L 86,109 L 86,110 L 90,114 L 91,114 L 94,117 L 97,117 L 98,118 L 99,118 L 100,119 L 107,119 L 108,118 L 111,118 L 112,117 L 114,117 L 115,116 L 117,116 L 117,115 L 120,112 L 121,112 L 122,111 L 123,111 L 123,110 L 126,107 L 126,106 L 127,105 L 127,104 L 128,103 L 128,102 L 129,101 L 129,87 L 128,86 L 128,83 L 127,82 L 127,80 L 126,79 L 126,78 L 125,77 L 125,76 L 124,76 L 123,75 L 123,74 L 122,74 L 121,73 L 121,72 L 117,68 L 116,68 L 115,67 L 114,67 L 113,66 L 109,66 L 108,65 L 102,65 L 101,64 L 100,64 L 99,65 L 96,65 L 95,66 L 94,66 L 93,67 L 92,67 L 91,68 L 88,68 L 86,70 L 84,70 L 84,71 L 83,72 L 82,72 L 80,74 L 79,74 L 76,77 L 76,78 L 74,80 L 74,81 L 72,83 L 72,85 L 71,86 L 71,87 L 70,88 L 70,91 L 69,92 L 69,95 L 68,96 L 68,105 L 69,106 L 69,108 L 70,109 L 70,112 L 72,114 L 72,115 L 74,117 L 74,119 L 75,119 L 76,120 L 76,121 L 79,124 L 79,125 L 81,127 L 82,127 L 84,129 L 86,129 L 87,130 L 88,130 L 89,131 L 91,131 L 93,133 L 98,133 L 99,134 L 103,134 L 104,133 L 110,133 L 111,132 L 113,132 L 114,131 L 117,131 L 119,129 L 121,129 L 122,128 L 123,128 L 126,125 L 127,125 L 129,123 L 130,123 L 135,118 L 135,117 L 137,115 L 137,114 L 138,113 L 138,112 L 139,111 L 139,109 L 141,107 L 141,104 L 142,103 L 142,102 L 143,101 L 143,91 L 142,90 L 142,86 L 141,85 L 141,78 L 140,77 L 140,76 L 139,75 L 139,73 L 137,71 L 137,70 L 136,69 L 136,68 L 133,65 L 133,64 L 132,64 L 131,63 L 131,62 L 130,62 L 127,59 L 127,58 L 126,58 L 125,57 L 124,57 L 123,56 L 122,56 L 120,54 L 118,54 L 117,53 L 114,53 L 113,52 L 110,52 L 109,51 L 104,51 L 103,50 L 96,50 L 94,52 L 88,52 L 87,53 L 86,53 L 85,54 L 82,54 L 80,56 L 79,56 L 77,58 L 75,58 L 73,60 L 72,60 L 72,61 L 71,62 L 70,62 L 64,68 L 64,69 L 63,70 L 62,70 L 62,72 L 60,74 L 60,75 L 58,77 L 58,79 L 57,80 L 57,81 L 56,82 L 56,86 L 54,88 L 54,94 L 53,95 L 53,97 L 54,98 L 54,107 L 55,108 L 55,112 L 56,113 L 56,115 L 57,116 L 57,117 L 58,118 L 58,119 L 59,120 L 59,121 L 60,122 L 60,123 L 61,124 L 61,125 L 62,126 L 62,127 L 63,128 L 63,129 L 64,130 L 64,131 L 65,131 L 66,132 L 66,133 L 67,133 L 70,136 L 70,137 L 71,137 L 72,138 L 72,139 L 73,139 L 75,141 L 77,141 L 78,142 L 79,142 L 80,143 L 82,143 L 83,144 L 84,144 L 85,145 L 87,145 L 88,146 L 91,146 L 92,147 L 97,147 L 98,148 L 101,148 L 102,147 L 115,147 L 116,146 L 117,146 L 118,145 L 121,145 L 122,144 L 123,144 L 124,143 L 125,143 L 126,142 L 127,142 L 129,140 L 130,140 L 131,139 L 133,139 L 134,138 L 135,138 L 136,137 L 137,137 L 141,133 L 142,133 L 142,132 L 145,129 L 145,128 L 146,127 L 147,127 L 147,126 L 149,124 L 149,123 L 151,121 L 151,120 L 152,119 L 152,118 L 153,117 L 153,114 L 154,113 L 155,113 L 155,110 L 156,109 L 156,107 L 157,106 L 157,99 L 158,98 L 158,90 L 157,89 L 157,79 L 156,78 L 156,77 L 155,76 L 155,73 L 153,71 L 153,68 L 152,67 L 152,66 L 151,65 L 151,64 L 147,60 L 147,59 L 146,59 L 145,58 L 145,57 L 143,55 L 143,54 L 142,54 L 141,53 L 141,52 L 139,50 L 138,50 L 137,49 L 137,48 L 136,48 L 134,46 L 133,46 L 131,44 L 130,44 L 128,42 L 124,42 L 122,40 L 120,40 L 118,38 L 114,38 L 113,37 L 111,37 L 110,36 L 93,36 L 92,37 L 91,37 L 90,38 L 85,38 L 84,39 L 83,39 L 82,40 L 78,40 L 76,42 L 74,42 L 73,43 L 72,43 L 69,46 L 68,46 L 65,49 L 64,49 L 63,50 L 62,50 L 62,51 L 61,52 L 60,52 L 60,53 L 59,54 L 58,54 L 56,56 L 56,57 L 55,58 L 54,58 L 54,59 L 52,61 L 52,62 L 50,64 L 50,65 L 48,67 L 48,68 L 46,70 L 46,72 L 44,74 L 44,77 L 42,79 L 42,82 L 41,83 L 41,85 L 40,86 L 40,93 L 39,94 L 39,96 L 40,97 L 40,99 L 39,100 L 39,105 L 40,106 L 40,108 L 41,109 L 41,111 L 42,112 L 42,118 L 44,120 L 44,122 L 46,124 L 46,128 L 48,130 L 48,132 L 50,134 L 50,135 L 51,135 L 52,136 L 52,137 L 53,138 L 53,139 L 55,141 L 56,141 L 58,143 L 58,144 L 59,145 L 60,145 L 66,151 L 67,151 L 69,153 L 71,153 L 72,154 L 73,154 L 74,155 L 75,155 L 76,156 L 77,156 L 78,157 L 80,157 L 81,158 L 82,158 L 83,159 L 89,159 L 90,160 L 91,160 L 92,161 L 95,161 L 96,162 L 98,162 L 99,163 L 100,162 L 105,162 L 106,161 L 113,161 L 114,160 L 115,160 L 116,161 L 117,161 L 118,160 L 119,160 L 120,159 L 122,159 L 123,158 L 126,158 L 127,157 L 129,157 L 131,155 L 132,155 L 133,154 L 136,154 L 139,151 L 141,151 L 143,149 L 144,149 L 148,145 L 149,145 L 149,144 L 150,143 L 151,143 L 151,142 L 154,139 L 155,139 L 155,138 L 156,137 L 157,137 L 157,136 L 158,135 L 158,134 L 159,133 L 160,133 L 161,132 L 161,130 L 163,128 L 163,126 L 165,124 L 165,122 L 166,121 L 167,121 L 167,117 L 168,116 L 168,115 L 169,114 L 169,108 L 170,107 L 170,106 L 171,105 L 171,82 L 170,81 L 170,79 L 169,78 L 169,76 L 168,75 L 168,72 L 167,71 L 167,69 L 165,67 L 165,65 L 163,63 L 163,60 L 161,58 L 161,56 L 160,56 L 159,55 L 159,54 L 158,53 L 158,52 L 157,51 L 157,50 L 156,50 L 155,49 L 155,48 L 152,45 L 152,44 L 151,43 L 150,43 L 147,40 L 146,40 L 145,39 L 145,38 L 144,38 L 142,36 L 141,36 L 139,34 L 138,34 L 136,32 L 135,32 L 133,30 L 131,30 L 129,28 L 126,28 L 125,27 L 124,27 L 123,26 L 118,26 L 117,25 L 116,25 L 115,24 L 108,24 L 107,23 L 106,23 L 105,22 Z" fill="black" /><path d="M 0,0 L 0,219 L 254,219 L 254,0 Z" fill="none" stroke="black" stroke-width="1" /></svg>