<?xml version='1.0' encoding='utf-8'?>
<svg width="262" height="223" xmlns="http://www.w3.org/2000/svg" viewBox="0 0 262 223"><rect width="262" height="223" fill="white" /><path d="M 169,47 L 168,48 L 165,48 L 164,49 L 162,49 L 161,50 L 158,50 L 157,51 L 156,51 L 155,52 L 152,52 L 150,54 L 148,54 L 147,55 L 146,55 L 145,56 L 144,56 L 142,58 L 140,58 L 140,59 L 139,60 L 138,60 L 137,61 L 136,61 L 133,64 L 132,64 L 129,67 L 128,67 L 126,69 L 126,70 L 120,76 L 120,77 L 118,79 L 118,80 L 116,82 L 116,83 L 114,85 L 114,87 L 112,89 L 112,91 L 111,92 L 110,92 L 107,89 L 107,87 L 103,83 L 103,82 L 91,70 L 90,70 L 89,69 L 89,68 L 88,68 L 86,66 L 85,66 L 83,64 L 82,64 L 81,63 L 81,62 L 80,62 L 79,61 L 78,61 L 77,60 L 75,60 L 73,58 L 71,58 L 69,56 L 67,56 L 66,55 L 65,55 L 64,54 L 61,54 L 60,53 L 59,53 L 58,52 L 53,52 L 52,51 L 50,51 L 49,50 L 48,51 L 46,51 L 45,50 L 43,50 L 43,51 L 42,52 L 42,58 L 41,59 L 41,61 L 40,62 L 40,72 L 41,73 L 41,77 L 42,78 L 42,89 L 43,90 L 43,91 L 44,92 L 44,98 L 45,99 L 45,100 L 46,101 L 46,104 L 47,105 L 47,106 L 48,107 L 48,109 L 49,110 L 49,111 L 50,112 L 50,113 L 51,114 L 51,115 L 52,116 L 52,117 L 54,119 L 54,121 L 55,121 L 56,122 L 56,124 L 58,126 L 58,127 L 60,129 L 60,130 L 62,132 L 62,133 L 63,133 L 64,134 L 64,135 L 66,137 L 66,138 L 67,138 L 68,139 L 68,140 L 69,141 L 70,141 L 76,147 L 77,147 L 78,148 L 78,149 L 79,149 L 83,153 L 85,153 L 86,154 L 86,155 L 87,155 L 88,156 L 89,156 L 91,158 L 92,158 L 93,159 L 95,159 L 96,160 L 96,161 L 99,161 L 100,162 L 101,162 L 102,163 L 103,163 L 104,164 L 105,164 L 106,165 L 108,165 L 109,166 L 110,166 L 111,167 L 112,167 L 113,168 L 117,168 L 118,169 L 120,169 L 122,171 L 133,171 L 134,172 L 136,172 L 137,173 L 146,173 L 147,172 L 149,172 L 150,173 L 151,172 L 155,172 L 156,171 L 160,171 L 161,170 L 164,170 L 165,169 L 171,169 L 172,168 L 173,168 L 174,167 L 179,167 L 181,165 L 184,165 L 186,163 L 188,163 L 189,162 L 190,162 L 191,161 L 193,161 L 195,159 L 196,159 L 198,157 L 199,157 L 201,155 L 202,155 L 204,153 L 205,153 L 205,152 L 206,151 L 207,151 L 207,150 L 208,149 L 209,149 L 217,141 L 217,139 L 216,138 L 215,138 L 213,136 L 212,136 L 211,135 L 211,134 L 209,132 L 208,132 L 201,125 L 200,125 L 197,122 L 197,121 L 195,119 L 195,118 L 191,114 L 191,113 L 189,111 L 189,110 L 188,109 L 188,108 L 185,105 L 185,103 L 183,101 L 183,99 L 181,97 L 181,94 L 180,94 L 179,93 L 179,90 L 178,89 L 178,88 L 177,87 L 177,84 L 176,83 L 176,81 L 175,80 L 175,77 L 174,76 L 174,74 L 173,73 L 173,60 L 172,59 L 173,58 L 173,55 L 172,54 L 172,49 L 171,48 L 171,47 Z" fill="black" /><path d="M 0,0 L 0,222 L 261,222 L 261,0 Z" fill="none" stroke="black" stroke-width="1" /></svg>