<?xml version='1.0' encoding='utf-8'?>
<svg width="261" height="222" xmlns="http://www.w3.org/2000/svg" viewBox="0 0 261 222"><rect width="261" height="222" fill="white" /><path d="M 216,21 L 215,22 L 212,22 L 211,23 L 210,23 L 209,24 L 207,24 L 206,25 L 204,25 L 203,26 L 202,26 L 201,27 L 200,27 L 199,28 L 196,28 L 195,29 L 194,29 L 193,30 L 190,30 L 189,31 L 188,31 L 187,32 L 185,32 L 183,34 L 180,34 L 179,35 L 178,35 L 177,36 L 174,36 L 173,37 L 172,37 L 171,38 L 168,38 L 166,40 L 164,40 L 163,41 L 162,41 L 161,42 L 158,42 L 157,43 L 156,43 L 155,44 L 152,44 L 151,45 L 150,45 L 149,46 L 147,46 L 145,48 L 142,48 L 141,49 L 140,49 L 139,50 L 136,50 L 135,51 L 134,51 L 133,52 L 131,52 L 130,53 L 129,53 L 128,54 L 126,54 L 125,55 L 123,55 L 122,56 L 120,56 L 119,57 L 118,57 L 117,58 L 114,58 L 113,59 L 112,59 L 111,60 L 109,60 L 108,61 L 107,61 L 106,62 L 104,62 L 103,63 L 102,63 L 101,64 L 98,64 L 97,65 L 96,65 L 95,66 L 93,66 L 92,67 L 91,67 L 90,68 L 87,68 L 86,69 L 85,69 L 84,70 L 82,70 L 81,71 L 80,71 L 79,72 L 76,72 L 75,73 L 74,73 L 73,74 L 70,74 L 68,76 L 65,76 L 64,77 L 63,77 L 62,78 L 59,78 L 58,79 L 57,79 L 56,80 L 54,80 L 53,81 L 52,81 L 51,82 L 49,82 L 47,84 L 44,84 L 44,85 L 46,87 L 51,87 L 52,88 L 55,88 L 56,89 L 59,89 L 60,90 L 63,90 L 64,91 L 69,91 L 70,92 L 73,92 L 74,93 L 80,93 L 81,94 L 86,94 L 87,95 L 93,95 L 94,96 L 97,96 L 98,97 L 105,97 L 106,98 L 110,98 L 111,99 L 117,99 L 118,100 L 121,100 L 122,101 L 129,101 L 130,102 L 133,102 L 134,103 L 139,103 L 141,105 L 141,107 L 142,108 L 142,113 L 143,114 L 143,118 L 144,119 L 144,125 L 145,126 L 145,128 L 146,129 L 146,135 L 147,136 L 147,138 L 148,139 L 148,144 L 149,145 L 149,148 L 150,149 L 150,156 L 151,157 L 151,159 L 152,160 L 152,167 L 153,168 L 153,171 L 154,172 L 154,179 L 155,180 L 155,181 L 156,182 L 156,187 L 157,188 L 157,189 L 158,190 L 158,191 L 160,193 L 160,194 L 163,194 L 163,192 L 165,190 L 165,187 L 166,186 L 166,185 L 167,184 L 167,181 L 168,180 L 168,179 L 169,178 L 169,175 L 170,174 L 170,173 L 171,172 L 171,169 L 173,167 L 173,164 L 174,163 L 174,162 L 175,161 L 175,158 L 176,157 L 176,156 L 177,155 L 177,152 L 178,151 L 178,150 L 179,149 L 179,147 L 181,145 L 181,141 L 182,140 L 182,139 L 183,138 L 183,134 L 184,133 L 184,132 L 185,131 L 185,128 L 186,127 L 186,126 L 187,125 L 187,122 L 188,121 L 188,120 L 189,119 L 189,117 L 190,116 L 190,115 L 191,114 L 191,111 L 192,110 L 192,109 L 193,108 L 193,105 L 194,104 L 194,103 L 195,102 L 195,99 L 196,98 L 196,97 L 197,96 L 197,92 L 199,90 L 199,87 L 200,86 L 200,85 L 201,84 L 201,81 L 202,80 L 202,79 L 203,78 L 203,74 L 205,72 L 205,68 L 207,66 L 207,63 L 208,62 L 208,61 L 209,60 L 209,58 L 210,57 L 210,56 L 211,55 L 211,52 L 212,51 L 212,50 L 213,49 L 213,46 L 214,45 L 214,44 L 215,43 L 215,40 L 216,39 L 216,38 L 217,37 L 217,34 L 218,33 L 218,32 L 219,31 L 219,28 L 220,27 L 220,26 L 221,25 L 221,23 L 219,21 Z" fill="black" /><path d="M 0,0 L 0,221 L 260,221 L 260,0 Z" fill="none" stroke="black" stroke-width="1" /></svg>