<?xml version='1.0' encoding='utf-8'?>
<svg width="259" height="221" xmlns="http://www.w3.org/2000/svg" viewBox="0 0 259 221"><rect width="259" height="221" fill="white" /><path d="M 195,63 L 194,64 L 191,64 L 190,65 L 188,65 L 187,66 L 182,66 L 182,67 L 181,68 L 178,68 L 177,69 L 176,69 L 173,72 L 172,72 L 171,73 L 170,73 L 169,74 L 168,74 L 167,75 L 166,75 L 165,76 L 162,76 L 161,77 L 160,77 L 159,78 L 158,78 L 157,79 L 156,79 L 155,80 L 154,80 L 153,81 L 152,81 L 151,82 L 146,82 L 145,83 L 142,83 L 141,84 L 134,84 L 133,85 L 132,85 L 131,86 L 127,86 L 126,87 L 121,87 L 120,86 L 108,86 L 107,85 L 106,85 L 105,84 L 100,84 L 99,83 L 98,83 L 97,82 L 94,82 L 93,81 L 91,81 L 90,80 L 88,80 L 87,79 L 86,79 L 85,78 L 84,78 L 82,76 L 81,76 L 79,74 L 76,74 L 75,73 L 74,73 L 73,72 L 70,72 L 69,71 L 66,71 L 65,70 L 54,70 L 53,71 L 51,71 L 50,72 L 48,72 L 47,73 L 46,73 L 45,74 L 44,74 L 43,75 L 42,75 L 37,80 L 36,80 L 36,81 L 35,82 L 34,82 L 34,83 L 33,84 L 32,84 L 32,85 L 30,87 L 30,88 L 28,90 L 28,92 L 26,94 L 26,97 L 25,98 L 25,99 L 24,100 L 24,105 L 23,106 L 23,109 L 22,110 L 23,111 L 23,120 L 24,121 L 24,124 L 26,126 L 26,129 L 28,131 L 28,132 L 29,133 L 29,134 L 31,136 L 31,137 L 34,140 L 34,141 L 38,145 L 40,145 L 42,147 L 43,147 L 44,148 L 45,148 L 46,149 L 48,149 L 49,150 L 51,150 L 52,151 L 70,151 L 71,150 L 73,150 L 74,149 L 77,149 L 79,147 L 81,147 L 83,145 L 85,145 L 95,135 L 97,135 L 97,134 L 98,133 L 99,133 L 102,130 L 103,130 L 104,129 L 105,129 L 106,128 L 107,128 L 108,127 L 109,127 L 110,126 L 111,126 L 112,125 L 117,125 L 118,124 L 121,124 L 122,123 L 141,123 L 142,124 L 144,124 L 145,125 L 149,125 L 151,127 L 153,127 L 154,128 L 155,128 L 156,129 L 158,129 L 160,131 L 161,131 L 162,132 L 162,133 L 164,133 L 166,135 L 169,135 L 171,137 L 173,137 L 174,138 L 175,138 L 176,139 L 179,139 L 181,141 L 186,141 L 187,142 L 191,142 L 192,143 L 203,143 L 204,142 L 207,142 L 208,141 L 213,141 L 215,139 L 217,139 L 218,138 L 219,138 L 224,133 L 224,132 L 225,131 L 227,131 L 227,130 L 229,128 L 229,127 L 231,125 L 231,124 L 232,123 L 233,123 L 233,121 L 235,119 L 235,116 L 236,115 L 236,113 L 237,112 L 237,98 L 236,97 L 236,96 L 235,95 L 235,92 L 234,91 L 234,88 L 233,87 L 233,86 L 232,85 L 232,84 L 231,83 L 231,82 L 230,81 L 230,80 L 227,77 L 227,76 L 221,70 L 219,70 L 217,68 L 216,68 L 215,67 L 214,67 L 213,66 L 211,66 L 209,64 L 203,64 L 202,63 Z" fill="black" /><path d="M 0,0 L 0,220 L 258,220 L 258,0 Z" fill="none" stroke="black" stroke-width="1" /></svg>