<?xml version='1.0' encoding='utf-8'?>
<svg width="256" height="222" xmlns="http://www.w3.org/2000/svg" viewBox="0 0 256 222"><rect width="256" height="222" fill="white" /><path d="M 108,62 L 107,63 L 106,63 L 105,64 L 104,64 L 103,65 L 101,65 L 100,66 L 98,66 L 97,67 L 96,67 L 95,68 L 94,68 L 93,69 L 92,69 L 91,70 L 90,70 L 90,71 L 89,72 L 88,72 L 87,73 L 86,73 L 82,77 L 82,78 L 80,80 L 80,81 L 79,82 L 78,82 L 78,83 L 77,84 L 77,85 L 74,88 L 74,89 L 73,90 L 73,91 L 72,92 L 72,95 L 71,96 L 71,99 L 70,100 L 70,104 L 69,105 L 69,118 L 70,119 L 70,123 L 71,124 L 71,125 L 72,126 L 72,128 L 74,130 L 74,134 L 76,136 L 76,137 L 78,139 L 78,140 L 82,144 L 82,145 L 83,145 L 84,146 L 84,147 L 85,147 L 87,149 L 88,149 L 90,151 L 91,151 L 93,153 L 95,153 L 96,154 L 96,155 L 98,155 L 100,157 L 103,157 L 104,158 L 105,158 L 106,159 L 115,159 L 116,160 L 122,160 L 123,159 L 129,159 L 130,158 L 131,158 L 132,157 L 135,157 L 136,156 L 137,156 L 138,155 L 141,155 L 143,153 L 145,153 L 147,151 L 148,151 L 150,149 L 150,148 L 152,146 L 153,146 L 153,144 L 156,141 L 157,141 L 157,139 L 159,137 L 159,136 L 160,135 L 160,134 L 161,133 L 161,132 L 163,130 L 163,128 L 164,127 L 164,126 L 165,125 L 165,121 L 166,120 L 166,110 L 167,109 L 167,104 L 166,103 L 166,99 L 165,98 L 165,94 L 164,93 L 164,92 L 163,91 L 163,88 L 161,86 L 161,85 L 159,83 L 159,82 L 158,82 L 157,81 L 157,80 L 153,76 L 152,76 L 151,75 L 151,74 L 150,74 L 147,71 L 146,71 L 143,68 L 142,68 L 140,66 L 137,66 L 135,64 L 134,64 L 133,63 L 129,63 L 128,62 Z" fill="black" /></svg>