<?xml version='1.0' encoding='utf-8'?>
<svg width="259" height="222" xmlns="http://www.w3.org/2000/svg" viewBox="0 0 259 222"><rect width="259" height="222" fill="white" /><path d="M 202,27 L 201,28 L 195,28 L 194,29 L 190,29 L 189,30 L 188,30 L 187,31 L 184,31 L 183,32 L 181,32 L 180,33 L 178,33 L 177,34 L 176,34 L 175,35 L 172,35 L 170,37 L 168,37 L 167,38 L 165,38 L 164,39 L 163,39 L 162,40 L 161,40 L 160,41 L 158,41 L 157,42 L 156,42 L 155,43 L 152,43 L 150,45 L 148,45 L 146,47 L 144,47 L 143,48 L 142,48 L 141,49 L 140,49 L 138,51 L 136,51 L 134,53 L 132,53 L 130,55 L 129,55 L 127,57 L 125,57 L 123,59 L 122,59 L 120,61 L 119,61 L 117,63 L 115,63 L 113,65 L 112,65 L 110,67 L 109,67 L 107,69 L 106,69 L 104,71 L 102,71 L 102,72 L 101,73 L 100,73 L 98,75 L 97,75 L 91,81 L 90,81 L 89,82 L 88,82 L 83,87 L 82,87 L 79,90 L 78,90 L 77,91 L 76,91 L 76,92 L 75,93 L 74,93 L 74,94 L 73,95 L 72,95 L 72,96 L 71,97 L 70,97 L 67,100 L 66,100 L 62,104 L 62,105 L 59,108 L 58,108 L 54,112 L 54,113 L 52,115 L 52,116 L 51,117 L 50,117 L 46,121 L 46,122 L 45,123 L 44,123 L 44,125 L 42,127 L 42,128 L 40,130 L 40,131 L 38,133 L 38,134 L 37,135 L 36,135 L 36,137 L 34,139 L 34,141 L 32,143 L 32,157 L 34,159 L 34,160 L 35,160 L 36,161 L 36,162 L 38,164 L 39,164 L 41,166 L 45,166 L 46,167 L 47,167 L 48,168 L 53,168 L 54,167 L 62,167 L 63,166 L 67,166 L 68,165 L 69,165 L 70,164 L 73,164 L 74,163 L 75,163 L 76,162 L 79,162 L 80,161 L 81,161 L 82,160 L 83,160 L 84,159 L 87,159 L 88,158 L 89,158 L 90,157 L 91,157 L 92,156 L 94,156 L 95,155 L 96,155 L 97,154 L 99,154 L 100,153 L 101,153 L 102,152 L 103,152 L 104,151 L 105,151 L 106,150 L 108,150 L 110,148 L 111,148 L 113,146 L 115,146 L 116,145 L 117,145 L 118,144 L 119,144 L 120,143 L 121,143 L 124,140 L 126,140 L 128,138 L 131,138 L 131,137 L 132,136 L 133,136 L 135,134 L 136,134 L 138,132 L 139,132 L 140,131 L 141,131 L 142,130 L 143,130 L 145,128 L 147,128 L 152,123 L 153,123 L 156,120 L 157,120 L 159,118 L 160,118 L 162,116 L 163,116 L 163,115 L 164,114 L 165,114 L 167,112 L 168,112 L 172,108 L 173,108 L 173,107 L 174,106 L 175,106 L 175,105 L 176,104 L 177,104 L 179,102 L 179,101 L 180,100 L 181,100 L 191,90 L 191,89 L 194,86 L 195,86 L 199,82 L 199,81 L 200,80 L 201,80 L 201,79 L 202,78 L 203,78 L 203,77 L 204,76 L 205,76 L 205,75 L 212,68 L 212,67 L 215,64 L 215,63 L 216,62 L 217,62 L 217,61 L 218,60 L 218,59 L 219,58 L 219,57 L 220,56 L 220,55 L 221,54 L 221,50 L 223,48 L 223,42 L 222,41 L 222,40 L 221,39 L 221,37 L 219,35 L 218,35 L 217,34 L 217,33 L 216,33 L 213,30 L 212,30 L 211,29 L 207,29 L 206,28 L 204,28 L 203,27 Z" fill="black" /><path d="M 0,0 L 0,221 L 258,221 L 258,0 Z" fill="none" stroke="black" stroke-width="1" /></svg>