<?xml version='1.0' encoding='utf-8'?>
<svg width="264" height="227" xmlns="http://www.w3.org/2000/svg" viewBox="0 0 264 227"><rect width="264" height="227" fill="white" /><path d="M 81,23 L 80,24 L 80,26 L 81,26 L 84,29 L 84,30 L 85,30 L 88,33 L 88,34 L 92,38 L 92,39 L 94,41 L 95,41 L 96,42 L 96,43 L 102,49 L 102,50 L 103,50 L 104,51 L 104,52 L 105,52 L 106,53 L 106,54 L 115,63 L 115,64 L 118,67 L 118,68 L 119,68 L 120,69 L 120,70 L 121,70 L 122,71 L 122,72 L 124,74 L 125,74 L 127,76 L 127,102 L 126,103 L 126,106 L 127,107 L 127,109 L 126,110 L 126,112 L 127,113 L 127,115 L 126,116 L 126,118 L 127,119 L 127,128 L 126,129 L 126,138 L 127,139 L 127,153 L 126,154 L 126,155 L 124,157 L 124,158 L 123,159 L 122,159 L 116,165 L 116,166 L 113,169 L 112,169 L 98,183 L 97,183 L 96,184 L 96,185 L 92,189 L 91,189 L 79,201 L 79,205 L 83,205 L 84,206 L 86,206 L 87,205 L 88,205 L 89,206 L 92,206 L 93,205 L 95,205 L 96,206 L 118,206 L 119,207 L 120,206 L 139,206 L 140,207 L 151,207 L 152,208 L 166,208 L 167,207 L 168,207 L 169,208 L 186,208 L 187,207 L 187,205 L 185,203 L 185,202 L 181,198 L 181,197 L 180,197 L 179,196 L 179,195 L 176,192 L 176,191 L 173,188 L 173,187 L 172,187 L 171,186 L 171,185 L 168,182 L 168,181 L 165,178 L 165,177 L 164,177 L 163,176 L 163,175 L 162,175 L 161,174 L 161,173 L 158,170 L 158,169 L 155,166 L 155,165 L 154,165 L 153,164 L 153,163 L 151,161 L 151,160 L 148,157 L 148,129 L 149,128 L 149,127 L 148,126 L 148,125 L 149,124 L 149,123 L 148,122 L 148,121 L 149,120 L 149,119 L 148,118 L 148,116 L 149,115 L 149,79 L 151,77 L 151,76 L 159,68 L 159,67 L 160,66 L 161,66 L 161,65 L 162,64 L 163,64 L 163,63 L 169,57 L 169,56 L 173,52 L 173,51 L 174,50 L 175,50 L 175,49 L 176,48 L 177,48 L 177,47 L 178,46 L 179,46 L 179,45 L 183,41 L 183,40 L 189,34 L 189,33 L 190,32 L 190,31 L 191,30 L 192,30 L 194,28 L 194,25 L 172,25 L 171,24 L 157,24 L 156,23 Z" fill="black" /><path d="M 0,0 L 0,226 L 263,226 L 263,0 Z" fill="none" stroke="black" stroke-width="1" /></svg>