<?xml version='1.0' encoding='utf-8'?>
<svg width="258" height="221" xmlns="http://www.w3.org/2000/svg" viewBox="0 0 258 221"><rect width="258" height="221" fill="white" /><path d="M 130,77 L 128,79 L 128,80 L 127,81 L 127,86 L 126,87 L 126,99 L 125,100 L 125,101 L 124,102 L 124,103 L 123,104 L 122,104 L 120,106 L 118,106 L 117,107 L 114,107 L 113,108 L 109,108 L 108,109 L 106,109 L 105,110 L 104,110 L 103,109 L 100,109 L 99,110 L 95,110 L 93,112 L 91,112 L 89,114 L 88,114 L 88,115 L 87,116 L 86,116 L 86,117 L 84,119 L 84,121 L 83,122 L 82,122 L 82,123 L 80,125 L 80,129 L 79,130 L 79,135 L 80,136 L 80,141 L 82,143 L 82,145 L 86,149 L 86,150 L 88,152 L 89,152 L 90,153 L 91,153 L 92,154 L 93,154 L 94,155 L 95,155 L 97,157 L 102,157 L 103,158 L 108,158 L 109,157 L 111,157 L 113,155 L 117,155 L 117,154 L 118,153 L 119,153 L 124,148 L 125,148 L 125,146 L 126,145 L 127,145 L 127,142 L 128,141 L 129,141 L 129,138 L 131,136 L 131,133 L 132,132 L 132,130 L 133,129 L 133,126 L 136,123 L 136,122 L 137,121 L 137,120 L 140,117 L 142,117 L 144,115 L 145,115 L 146,114 L 147,114 L 148,113 L 149,113 L 150,112 L 153,112 L 154,111 L 161,111 L 162,110 L 164,110 L 165,109 L 166,109 L 166,108 L 162,104 L 161,104 L 157,100 L 156,100 L 155,99 L 155,98 L 154,98 L 153,97 L 153,96 L 152,96 L 148,92 L 147,92 L 146,91 L 146,90 L 144,88 L 143,88 L 132,77 Z" fill="black" /><path d="M 0,0 L 0,220 L 257,220 L 257,0 Z" fill="none" stroke="black" stroke-width="1" /></svg>