<?xml version='1.0' encoding='utf-8'?>
<svg width="261" height="227" xmlns="http://www.w3.org/2000/svg" viewBox="0 0 261 227"><rect width="261" height="227" fill="white" /><path d="M 54,32 L 53,33 L 49,33 L 48,34 L 47,34 L 46,35 L 43,35 L 42,36 L 41,36 L 40,37 L 39,37 L 37,39 L 36,39 L 32,43 L 32,44 L 31,45 L 31,46 L 30,47 L 30,48 L 29,49 L 29,50 L 28,51 L 27,51 L 27,55 L 26,56 L 26,57 L 25,58 L 25,66 L 26,67 L 26,72 L 27,73 L 27,77 L 28,78 L 28,79 L 29,80 L 29,82 L 30,83 L 30,84 L 31,85 L 31,88 L 33,90 L 33,92 L 34,93 L 34,94 L 35,95 L 35,97 L 37,99 L 37,100 L 39,102 L 39,104 L 40,104 L 41,105 L 41,107 L 43,109 L 43,110 L 45,112 L 45,113 L 47,115 L 47,116 L 49,118 L 49,119 L 51,121 L 51,122 L 52,122 L 53,123 L 53,124 L 54,124 L 55,125 L 55,126 L 58,129 L 58,130 L 61,133 L 61,134 L 62,134 L 63,135 L 63,136 L 64,136 L 69,141 L 70,141 L 76,147 L 76,148 L 77,149 L 78,149 L 81,152 L 82,152 L 85,155 L 85,156 L 86,156 L 88,158 L 89,158 L 93,162 L 94,162 L 98,166 L 99,166 L 101,168 L 103,168 L 105,170 L 106,170 L 109,173 L 110,173 L 113,176 L 114,176 L 115,177 L 116,177 L 117,178 L 118,178 L 119,179 L 120,179 L 121,180 L 122,180 L 123,181 L 124,181 L 125,182 L 126,182 L 128,184 L 129,184 L 131,186 L 133,186 L 135,188 L 137,188 L 139,190 L 142,190 L 144,192 L 146,192 L 147,193 L 148,193 L 149,194 L 151,194 L 152,195 L 153,195 L 154,196 L 157,196 L 158,197 L 159,197 L 160,198 L 163,198 L 164,199 L 165,199 L 166,200 L 170,200 L 171,201 L 172,201 L 173,202 L 182,202 L 183,203 L 189,203 L 190,204 L 212,204 L 213,203 L 214,203 L 215,202 L 219,202 L 220,201 L 222,201 L 223,200 L 227,200 L 228,199 L 229,199 L 230,198 L 232,198 L 233,197 L 234,197 L 235,196 L 236,196 L 237,195 L 238,195 L 239,194 L 240,194 L 240,193 L 241,192 L 242,192 L 242,191 L 243,190 L 244,190 L 244,189 L 246,187 L 246,177 L 244,175 L 244,173 L 242,171 L 242,170 L 240,168 L 239,168 L 238,167 L 237,167 L 236,166 L 236,165 L 234,165 L 232,163 L 228,163 L 227,162 L 226,162 L 225,161 L 219,161 L 218,160 L 214,160 L 213,159 L 209,159 L 208,158 L 206,158 L 205,157 L 201,157 L 200,156 L 198,156 L 197,155 L 194,155 L 193,154 L 192,154 L 191,153 L 189,153 L 188,152 L 187,152 L 186,151 L 184,151 L 182,149 L 181,149 L 180,148 L 179,148 L 178,147 L 175,147 L 173,145 L 172,145 L 170,143 L 169,143 L 167,141 L 166,141 L 164,139 L 163,139 L 161,137 L 159,137 L 158,136 L 158,135 L 157,135 L 152,130 L 151,130 L 146,125 L 145,125 L 142,122 L 142,121 L 141,121 L 140,120 L 140,119 L 139,119 L 138,118 L 138,117 L 137,117 L 136,116 L 136,115 L 135,114 L 135,113 L 132,110 L 132,109 L 131,109 L 130,108 L 130,107 L 128,105 L 128,104 L 126,102 L 126,100 L 124,98 L 124,97 L 123,96 L 123,95 L 122,94 L 122,92 L 120,90 L 120,88 L 118,86 L 118,84 L 116,82 L 116,81 L 115,80 L 115,79 L 112,76 L 112,75 L 111,74 L 111,73 L 108,70 L 108,69 L 105,66 L 105,65 L 102,62 L 102,61 L 101,61 L 100,60 L 100,59 L 99,58 L 99,57 L 90,48 L 90,47 L 89,47 L 86,44 L 86,43 L 85,43 L 84,42 L 83,42 L 82,41 L 81,41 L 80,40 L 80,39 L 79,39 L 77,37 L 76,37 L 74,35 L 72,35 L 70,33 L 65,33 L 64,32 Z" fill="black" /><path d="M 0,0 L 0,226 L 260,226 L 260,1 L 255,1 L 254,0 Z" fill="none" stroke="black" stroke-width="1" /></svg>