<?xml version='1.0' encoding='utf-8'?>
<svg width="264" height="221" xmlns="http://www.w3.org/2000/svg" viewBox="0 0 264 221"><rect width="264" height="221" fill="white" /><path d="M 79,16 L 77,18 L 77,20 L 76,21 L 76,22 L 75,23 L 75,25 L 74,26 L 73,26 L 73,29 L 71,31 L 71,33 L 69,35 L 69,36 L 67,38 L 67,41 L 64,44 L 64,45 L 63,46 L 63,48 L 61,50 L 61,52 L 60,53 L 60,54 L 59,55 L 59,57 L 58,58 L 57,58 L 57,60 L 55,62 L 55,64 L 53,66 L 53,68 L 51,70 L 51,72 L 50,73 L 50,74 L 49,75 L 49,76 L 48,77 L 48,78 L 47,79 L 47,80 L 45,82 L 45,84 L 43,86 L 43,87 L 42,88 L 42,89 L 41,90 L 41,92 L 39,94 L 39,95 L 38,96 L 38,97 L 37,98 L 37,99 L 36,100 L 36,101 L 35,102 L 35,104 L 34,105 L 34,106 L 33,107 L 33,108 L 31,110 L 31,111 L 30,112 L 30,113 L 29,114 L 29,117 L 37,117 L 38,116 L 46,116 L 47,115 L 66,115 L 67,114 L 76,114 L 77,113 L 94,113 L 95,112 L 102,112 L 103,111 L 122,111 L 123,110 L 132,110 L 133,111 L 133,115 L 135,117 L 135,119 L 136,120 L 136,122 L 137,123 L 137,125 L 138,126 L 138,127 L 139,128 L 139,131 L 140,132 L 140,133 L 141,134 L 141,137 L 142,138 L 142,140 L 143,141 L 143,143 L 144,144 L 144,145 L 145,146 L 145,150 L 146,151 L 146,152 L 147,153 L 147,156 L 148,157 L 148,159 L 149,160 L 149,162 L 150,163 L 150,165 L 151,166 L 151,169 L 152,170 L 152,171 L 153,172 L 153,174 L 154,175 L 154,177 L 155,178 L 155,181 L 157,183 L 157,186 L 158,187 L 158,189 L 159,190 L 159,193 L 160,194 L 160,195 L 161,196 L 161,199 L 162,200 L 164,200 L 164,199 L 168,195 L 168,194 L 169,193 L 170,193 L 170,191 L 172,189 L 172,188 L 174,186 L 174,185 L 176,183 L 176,182 L 177,181 L 178,181 L 178,180 L 180,178 L 180,177 L 182,175 L 182,174 L 186,170 L 186,169 L 188,167 L 188,166 L 190,164 L 190,163 L 192,161 L 192,160 L 193,159 L 194,159 L 194,158 L 195,157 L 195,156 L 196,155 L 196,154 L 198,152 L 198,151 L 200,149 L 200,148 L 201,147 L 202,147 L 202,146 L 203,145 L 204,145 L 204,144 L 206,142 L 206,141 L 208,139 L 208,138 L 209,137 L 210,137 L 210,134 L 217,127 L 217,126 L 218,125 L 218,124 L 219,123 L 219,120 L 217,118 L 215,118 L 214,117 L 213,117 L 212,116 L 211,116 L 210,115 L 209,115 L 208,114 L 206,114 L 204,112 L 202,112 L 200,110 L 197,110 L 195,108 L 193,108 L 192,107 L 191,107 L 190,106 L 189,106 L 188,105 L 187,105 L 186,104 L 185,104 L 184,103 L 183,103 L 182,102 L 181,102 L 180,101 L 179,101 L 178,100 L 177,100 L 176,99 L 175,99 L 174,98 L 173,98 L 171,96 L 169,96 L 167,94 L 166,94 L 164,92 L 163,92 L 160,89 L 159,89 L 158,88 L 157,88 L 154,85 L 153,85 L 152,84 L 151,84 L 150,83 L 150,82 L 149,82 L 147,80 L 146,80 L 144,78 L 143,78 L 142,77 L 142,76 L 141,76 L 138,73 L 137,73 L 132,68 L 131,68 L 128,65 L 128,64 L 127,64 L 126,63 L 126,62 L 125,62 L 119,56 L 118,56 L 117,55 L 117,54 L 104,41 L 104,40 L 103,40 L 102,39 L 102,38 L 99,35 L 99,34 L 96,31 L 96,30 L 92,26 L 92,25 L 91,25 L 90,24 L 90,23 L 88,21 L 88,20 L 86,18 L 83,18 L 82,17 L 82,16 Z" fill="black" /><path d="M 0,0 L 0,220 L 263,220 L 263,0 Z" fill="none" stroke="black" stroke-width="1" /></svg>