<?xml version='1.0' encoding='utf-8'?>
<svg width="259" height="219" xmlns="http://www.w3.org/2000/svg" viewBox="0 0 259 219"><rect width="259" height="219" fill="white" /><path d="M 121,14 L 120,15 L 107,15 L 106,16 L 105,16 L 104,15 L 100,15 L 98,17 L 91,17 L 90,18 L 89,18 L 88,19 L 84,19 L 83,20 L 82,20 L 81,21 L 76,21 L 74,23 L 71,23 L 69,25 L 68,25 L 66,27 L 64,27 L 63,28 L 62,28 L 61,29 L 59,29 L 53,35 L 52,35 L 50,37 L 49,37 L 49,38 L 48,39 L 47,39 L 45,41 L 45,42 L 44,43 L 43,43 L 39,47 L 39,48 L 38,49 L 37,49 L 37,51 L 35,53 L 35,55 L 34,56 L 34,57 L 31,60 L 31,63 L 30,64 L 30,66 L 29,67 L 29,71 L 28,72 L 28,73 L 27,74 L 28,75 L 28,78 L 29,79 L 29,90 L 31,92 L 31,94 L 33,96 L 33,98 L 41,106 L 42,106 L 44,108 L 46,108 L 48,110 L 53,110 L 54,111 L 56,111 L 57,112 L 60,112 L 61,111 L 64,111 L 65,110 L 69,110 L 70,109 L 72,109 L 73,108 L 76,108 L 78,106 L 80,106 L 81,105 L 82,105 L 83,104 L 85,104 L 87,102 L 90,102 L 91,101 L 92,101 L 93,100 L 95,100 L 96,99 L 98,99 L 99,98 L 100,98 L 101,97 L 103,99 L 103,105 L 104,106 L 104,112 L 105,113 L 105,124 L 104,125 L 104,130 L 102,132 L 101,132 L 99,134 L 97,134 L 96,135 L 89,135 L 88,136 L 85,136 L 84,137 L 65,137 L 64,138 L 63,138 L 62,139 L 59,139 L 58,140 L 57,140 L 56,141 L 55,141 L 55,142 L 52,145 L 51,145 L 50,146 L 49,146 L 49,147 L 47,149 L 46,149 L 43,152 L 43,154 L 41,156 L 41,157 L 39,159 L 39,161 L 37,163 L 37,167 L 36,168 L 36,180 L 37,181 L 37,184 L 39,186 L 39,188 L 40,188 L 41,189 L 41,191 L 47,197 L 47,198 L 48,198 L 50,200 L 52,200 L 54,202 L 55,202 L 57,204 L 59,204 L 60,205 L 61,205 L 62,206 L 64,206 L 65,207 L 67,207 L 68,208 L 74,208 L 75,209 L 77,209 L 78,210 L 92,210 L 93,211 L 102,211 L 103,212 L 106,212 L 107,211 L 112,211 L 113,212 L 130,212 L 131,213 L 135,213 L 136,212 L 147,212 L 149,210 L 158,210 L 159,209 L 162,209 L 163,208 L 165,208 L 166,207 L 170,207 L 171,206 L 176,206 L 177,205 L 178,205 L 179,204 L 181,204 L 183,202 L 186,202 L 188,200 L 189,200 L 190,199 L 191,199 L 192,198 L 193,198 L 195,196 L 196,196 L 196,195 L 197,194 L 198,194 L 200,192 L 201,192 L 206,187 L 206,186 L 210,182 L 210,179 L 211,178 L 211,177 L 212,176 L 212,173 L 213,172 L 213,171 L 214,170 L 214,169 L 213,168 L 213,163 L 212,162 L 212,157 L 210,155 L 210,153 L 208,151 L 208,150 L 207,149 L 206,149 L 205,148 L 205,147 L 203,145 L 202,145 L 200,143 L 198,143 L 197,142 L 195,142 L 194,141 L 190,141 L 189,140 L 188,140 L 187,141 L 186,140 L 185,140 L 184,139 L 181,139 L 180,138 L 179,138 L 178,137 L 168,137 L 167,136 L 163,136 L 162,135 L 151,135 L 150,134 L 149,134 L 148,133 L 140,133 L 139,132 L 137,132 L 136,131 L 135,131 L 132,128 L 132,108 L 131,107 L 131,104 L 132,103 L 132,99 L 133,98 L 143,98 L 145,100 L 147,100 L 149,102 L 150,102 L 151,103 L 152,103 L 153,104 L 154,104 L 157,107 L 157,108 L 158,108 L 162,112 L 163,112 L 165,114 L 166,114 L 167,115 L 168,115 L 169,116 L 170,116 L 171,117 L 173,117 L 174,118 L 182,118 L 183,119 L 184,119 L 185,118 L 186,118 L 187,119 L 192,119 L 193,118 L 196,118 L 197,117 L 198,117 L 199,116 L 202,116 L 203,115 L 204,115 L 205,114 L 207,114 L 209,112 L 210,112 L 213,109 L 214,109 L 221,102 L 221,101 L 224,98 L 224,96 L 226,94 L 226,91 L 227,90 L 227,89 L 228,88 L 228,85 L 229,84 L 229,83 L 230,82 L 230,67 L 229,66 L 229,63 L 228,62 L 228,61 L 227,60 L 227,56 L 226,55 L 226,53 L 225,53 L 224,52 L 224,51 L 222,49 L 222,47 L 221,47 L 218,44 L 218,43 L 217,43 L 216,42 L 216,41 L 215,41 L 214,40 L 214,39 L 213,39 L 211,37 L 209,37 L 207,35 L 206,35 L 204,33 L 201,33 L 200,32 L 199,32 L 198,31 L 195,31 L 194,30 L 193,30 L 192,29 L 189,29 L 187,27 L 185,27 L 184,26 L 183,26 L 182,25 L 177,25 L 176,24 L 174,24 L 173,23 L 171,23 L 170,22 L 169,22 L 168,21 L 163,21 L 162,20 L 160,20 L 159,19 L 152,19 L 151,18 L 149,18 L 148,17 L 141,17 L 140,16 L 136,16 L 135,15 L 129,15 L 128,14 Z" fill="black" /><path d="M 0,0 L 0,218 L 258,218 L 258,0 Z" fill="none" stroke="black" stroke-width="1" /></svg>