<?xml version='1.0' encoding='utf-8'?>
<svg width="265" height="222" xmlns="http://www.w3.org/2000/svg" viewBox="0 0 265 222"><rect width="265" height="222" fill="white" /><path d="M 62,2 L 61,3 L 60,3 L 59,4 L 56,4 L 55,5 L 54,5 L 53,6 L 52,6 L 46,12 L 46,13 L 44,15 L 44,17 L 43,18 L 43,19 L 42,20 L 42,23 L 41,24 L 41,27 L 40,28 L 40,35 L 41,36 L 41,37 L 42,38 L 42,45 L 43,46 L 43,47 L 42,48 L 42,49 L 43,50 L 43,61 L 42,62 L 42,72 L 40,74 L 40,79 L 39,80 L 39,81 L 38,82 L 38,85 L 39,86 L 39,90 L 40,91 L 40,97 L 42,99 L 42,102 L 44,104 L 44,105 L 45,106 L 45,107 L 46,108 L 46,109 L 48,111 L 48,112 L 50,114 L 50,117 L 52,119 L 52,123 L 53,124 L 53,125 L 54,126 L 54,139 L 53,140 L 53,143 L 52,144 L 52,148 L 50,150 L 50,154 L 48,156 L 48,159 L 47,160 L 47,163 L 46,164 L 46,176 L 47,177 L 47,178 L 48,179 L 48,181 L 50,183 L 50,184 L 52,186 L 52,187 L 53,187 L 55,189 L 57,189 L 59,191 L 61,191 L 63,193 L 73,193 L 74,192 L 75,192 L 76,191 L 77,191 L 79,189 L 81,189 L 81,188 L 82,187 L 83,187 L 84,186 L 85,186 L 89,182 L 89,181 L 91,179 L 91,178 L 93,176 L 93,174 L 95,172 L 95,170 L 96,169 L 96,168 L 97,167 L 97,165 L 99,163 L 99,160 L 100,159 L 100,158 L 101,157 L 101,154 L 102,153 L 102,152 L 103,151 L 103,149 L 104,148 L 104,146 L 105,145 L 105,136 L 106,135 L 106,130 L 105,129 L 105,120 L 104,119 L 104,118 L 103,117 L 103,115 L 102,114 L 102,109 L 101,108 L 101,106 L 100,105 L 100,104 L 99,103 L 99,98 L 98,97 L 98,93 L 97,92 L 97,87 L 96,86 L 96,78 L 95,77 L 95,75 L 97,73 L 97,72 L 100,69 L 104,69 L 105,68 L 109,68 L 110,69 L 111,69 L 112,68 L 119,68 L 120,67 L 122,67 L 123,68 L 137,68 L 138,67 L 158,67 L 160,69 L 160,74 L 158,76 L 158,77 L 156,79 L 156,81 L 155,82 L 154,82 L 154,83 L 152,85 L 152,88 L 150,90 L 150,93 L 149,94 L 148,94 L 148,95 L 147,96 L 147,97 L 146,98 L 146,99 L 145,100 L 145,101 L 144,102 L 144,104 L 142,106 L 142,108 L 141,109 L 141,110 L 140,111 L 140,113 L 139,114 L 139,115 L 138,116 L 138,119 L 137,120 L 137,121 L 136,122 L 136,125 L 135,126 L 135,147 L 136,148 L 136,153 L 138,155 L 138,158 L 140,160 L 140,163 L 142,165 L 142,167 L 143,167 L 144,168 L 144,169 L 148,173 L 149,173 L 153,177 L 155,177 L 157,179 L 159,179 L 160,180 L 161,180 L 162,181 L 167,181 L 168,182 L 169,182 L 170,183 L 177,183 L 178,184 L 179,184 L 180,183 L 184,183 L 185,184 L 186,183 L 197,183 L 198,182 L 199,182 L 200,181 L 201,181 L 202,180 L 203,180 L 204,179 L 206,179 L 208,177 L 209,177 L 213,173 L 214,173 L 216,171 L 216,170 L 219,167 L 219,166 L 220,165 L 221,165 L 221,164 L 222,163 L 222,162 L 223,161 L 223,160 L 224,159 L 224,158 L 225,157 L 225,156 L 226,155 L 226,154 L 227,153 L 227,152 L 228,151 L 228,150 L 229,149 L 229,148 L 230,147 L 230,146 L 231,145 L 231,142 L 232,141 L 232,139 L 233,138 L 233,128 L 234,127 L 234,124 L 235,123 L 235,76 L 234,75 L 234,71 L 233,70 L 233,66 L 232,65 L 232,62 L 231,61 L 231,57 L 230,56 L 230,54 L 229,53 L 229,50 L 228,49 L 228,48 L 227,47 L 227,45 L 225,43 L 225,42 L 223,40 L 223,39 L 220,36 L 219,36 L 217,34 L 216,34 L 215,33 L 214,33 L 213,32 L 199,32 L 198,33 L 196,33 L 195,34 L 190,34 L 190,35 L 189,36 L 185,36 L 183,38 L 182,38 L 178,42 L 176,42 L 174,44 L 173,43 L 172,43 L 171,44 L 112,44 L 111,45 L 107,45 L 105,43 L 105,42 L 104,41 L 104,40 L 103,39 L 103,32 L 101,30 L 101,28 L 99,26 L 99,24 L 98,23 L 98,22 L 97,21 L 97,20 L 95,18 L 95,16 L 94,16 L 93,15 L 93,14 L 91,12 L 90,12 L 89,11 L 89,10 L 87,10 L 85,8 L 84,8 L 83,7 L 82,7 L 81,6 L 80,6 L 79,5 L 78,5 L 77,4 L 73,4 L 72,3 L 70,3 L 69,2 Z" fill="black" /><path d="M 0,0 L 0,221 L 264,221 L 264,0 Z" fill="none" stroke="black" stroke-width="1" /></svg>