<?xml version='1.0' encoding='utf-8'?>
<svg width="264" height="222" xmlns="http://www.w3.org/2000/svg" viewBox="0 0 264 222"><rect width="264" height="222" fill="white" /><path d="M 70,6 L 70,7 L 69,8 L 68,8 L 67,9 L 66,9 L 65,10 L 64,10 L 61,13 L 60,13 L 59,14 L 57,14 L 55,16 L 53,16 L 51,18 L 50,18 L 48,20 L 47,20 L 45,22 L 44,22 L 43,23 L 42,23 L 41,24 L 40,24 L 39,25 L 38,25 L 37,26 L 36,26 L 34,28 L 33,28 L 31,30 L 30,30 L 30,31 L 29,32 L 28,32 L 26,34 L 26,49 L 27,50 L 27,62 L 28,63 L 28,81 L 29,82 L 29,93 L 30,94 L 30,120 L 31,121 L 31,133 L 32,134 L 32,153 L 33,154 L 33,164 L 34,165 L 34,188 L 35,189 L 35,191 L 36,192 L 36,193 L 38,195 L 40,195 L 42,197 L 43,197 L 45,199 L 47,199 L 48,200 L 49,200 L 50,201 L 51,201 L 52,202 L 53,202 L 54,203 L 57,203 L 59,205 L 61,205 L 62,206 L 63,206 L 64,207 L 67,207 L 68,208 L 69,208 L 70,209 L 71,209 L 72,210 L 77,210 L 78,209 L 79,209 L 83,205 L 84,205 L 88,201 L 89,201 L 89,200 L 92,197 L 93,197 L 93,196 L 94,195 L 95,195 L 99,191 L 100,191 L 106,185 L 107,185 L 110,182 L 110,181 L 111,180 L 111,178 L 110,177 L 110,174 L 109,173 L 109,172 L 110,171 L 110,167 L 109,166 L 109,138 L 108,137 L 108,136 L 109,135 L 109,129 L 108,128 L 108,121 L 110,119 L 140,119 L 141,118 L 142,118 L 143,117 L 147,117 L 148,118 L 150,118 L 151,117 L 162,117 L 165,120 L 165,121 L 166,122 L 166,123 L 168,125 L 168,127 L 170,129 L 170,131 L 171,131 L 172,132 L 172,135 L 174,137 L 174,139 L 175,140 L 175,141 L 176,142 L 176,143 L 177,144 L 177,145 L 178,146 L 178,147 L 180,149 L 180,152 L 181,153 L 181,155 L 178,158 L 178,159 L 177,160 L 176,160 L 176,161 L 172,165 L 172,166 L 170,168 L 170,169 L 169,170 L 168,170 L 165,173 L 164,173 L 164,175 L 158,181 L 158,182 L 154,186 L 154,187 L 153,188 L 152,188 L 150,190 L 150,192 L 147,195 L 146,195 L 145,196 L 145,197 L 140,202 L 140,203 L 138,205 L 138,206 L 136,208 L 136,209 L 137,210 L 139,210 L 140,211 L 153,211 L 154,210 L 187,210 L 188,209 L 189,209 L 190,210 L 192,210 L 193,209 L 199,209 L 200,210 L 210,210 L 211,209 L 223,209 L 227,205 L 228,205 L 232,201 L 233,201 L 233,200 L 234,199 L 235,199 L 245,189 L 245,186 L 243,184 L 242,184 L 235,177 L 234,177 L 233,176 L 233,174 L 234,173 L 235,173 L 245,163 L 246,163 L 247,162 L 247,160 L 245,158 L 244,158 L 243,157 L 243,156 L 241,156 L 239,154 L 238,154 L 236,152 L 235,152 L 233,150 L 232,150 L 229,147 L 229,145 L 233,141 L 234,141 L 234,140 L 235,139 L 236,139 L 237,138 L 237,137 L 239,135 L 240,135 L 242,133 L 243,133 L 243,132 L 244,131 L 245,131 L 245,130 L 246,129 L 247,129 L 247,128 L 249,126 L 249,124 L 244,119 L 244,118 L 242,116 L 241,116 L 240,115 L 240,114 L 235,109 L 235,108 L 234,108 L 233,107 L 233,106 L 231,104 L 231,103 L 228,100 L 231,97 L 231,96 L 234,93 L 235,93 L 235,92 L 236,91 L 237,91 L 237,90 L 240,87 L 240,86 L 242,84 L 243,84 L 244,83 L 245,83 L 245,80 L 243,78 L 242,78 L 241,77 L 240,77 L 239,76 L 238,76 L 237,75 L 237,74 L 236,74 L 234,72 L 232,72 L 230,70 L 229,70 L 228,69 L 228,67 L 229,66 L 229,63 L 230,62 L 230,61 L 231,60 L 231,57 L 233,55 L 233,52 L 235,50 L 235,41 L 234,40 L 231,40 L 230,39 L 228,39 L 227,40 L 222,40 L 221,39 L 220,40 L 202,40 L 201,39 L 200,39 L 199,40 L 182,40 L 180,42 L 180,44 L 178,46 L 178,49 L 177,50 L 177,51 L 176,52 L 176,53 L 175,54 L 175,55 L 174,56 L 174,58 L 172,60 L 172,62 L 170,64 L 170,65 L 169,66 L 169,67 L 168,68 L 168,71 L 166,73 L 166,75 L 165,76 L 164,76 L 164,79 L 163,80 L 162,80 L 162,81 L 161,82 L 161,85 L 158,88 L 158,91 L 156,93 L 137,93 L 136,94 L 108,94 L 107,93 L 107,90 L 108,89 L 108,88 L 107,87 L 107,84 L 108,83 L 108,82 L 107,81 L 107,62 L 106,61 L 106,60 L 107,59 L 107,46 L 106,45 L 106,29 L 105,28 L 104,28 L 103,27 L 102,27 L 101,26 L 100,26 L 99,25 L 99,24 L 98,24 L 97,23 L 96,23 L 95,22 L 94,22 L 93,21 L 93,20 L 92,20 L 90,18 L 89,18 L 87,16 L 86,16 L 84,14 L 83,14 L 81,12 L 80,12 L 77,9 L 76,9 L 73,6 Z" fill="black" /><path d="M 0,0 L 0,221 L 263,221 L 263,0 Z" fill="none" stroke="black" stroke-width="1" /></svg>