<?xml version='1.0' encoding='utf-8'?>
<svg width="260" height="218" xmlns="http://www.w3.org/2000/svg" viewBox="0 0 260 218"><rect width="260" height="218" fill="white" /><path d="M 152,13 L 151,14 L 123,14 L 122,15 L 120,15 L 119,16 L 111,16 L 110,17 L 105,17 L 104,18 L 101,18 L 99,20 L 96,20 L 94,22 L 90,22 L 88,24 L 86,24 L 83,27 L 82,27 L 81,28 L 80,28 L 78,30 L 77,30 L 75,32 L 74,32 L 66,40 L 66,41 L 65,42 L 65,43 L 64,44 L 64,45 L 63,46 L 62,46 L 62,47 L 61,48 L 61,49 L 60,50 L 60,51 L 59,52 L 59,53 L 58,54 L 58,55 L 57,56 L 57,59 L 58,60 L 58,61 L 57,62 L 56,62 L 56,74 L 58,76 L 58,77 L 57,78 L 57,79 L 58,80 L 58,81 L 59,82 L 59,84 L 60,85 L 60,88 L 62,90 L 62,91 L 64,93 L 64,95 L 65,95 L 66,96 L 66,97 L 69,100 L 69,101 L 72,104 L 72,105 L 73,105 L 75,107 L 76,107 L 80,111 L 81,111 L 83,113 L 84,113 L 85,114 L 87,114 L 88,115 L 89,115 L 90,116 L 90,117 L 93,117 L 94,118 L 95,118 L 96,119 L 101,119 L 102,120 L 103,120 L 104,121 L 115,121 L 116,122 L 122,122 L 123,121 L 124,121 L 125,122 L 127,122 L 128,121 L 130,121 L 131,122 L 157,122 L 158,123 L 159,123 L 162,126 L 162,133 L 161,134 L 161,135 L 160,136 L 160,139 L 159,140 L 159,141 L 158,142 L 158,145 L 156,147 L 156,148 L 154,150 L 154,151 L 150,155 L 150,156 L 144,162 L 144,163 L 143,164 L 143,165 L 140,168 L 140,169 L 139,170 L 139,171 L 138,172 L 138,176 L 137,177 L 137,178 L 136,179 L 136,190 L 138,192 L 138,194 L 140,196 L 140,197 L 142,199 L 143,199 L 144,200 L 144,201 L 145,201 L 146,202 L 148,202 L 149,203 L 152,203 L 153,204 L 154,204 L 155,205 L 164,205 L 165,206 L 173,206 L 174,205 L 180,205 L 181,204 L 185,204 L 186,203 L 191,203 L 192,202 L 194,202 L 195,201 L 197,201 L 199,199 L 202,199 L 204,197 L 205,197 L 209,193 L 210,193 L 212,191 L 213,191 L 213,190 L 214,189 L 215,189 L 217,187 L 217,186 L 218,185 L 219,185 L 219,184 L 220,183 L 221,183 L 221,182 L 224,179 L 224,178 L 225,177 L 225,175 L 227,173 L 227,172 L 228,171 L 228,170 L 229,169 L 229,168 L 231,166 L 231,164 L 232,163 L 232,162 L 233,161 L 233,158 L 234,157 L 234,155 L 235,154 L 235,139 L 236,138 L 235,137 L 235,115 L 234,114 L 234,110 L 233,109 L 233,104 L 232,103 L 232,100 L 231,99 L 231,96 L 230,96 L 229,95 L 229,93 L 227,91 L 227,89 L 223,85 L 223,84 L 221,82 L 220,82 L 218,80 L 217,80 L 215,78 L 206,78 L 205,77 L 203,77 L 202,78 L 200,78 L 199,79 L 198,79 L 197,80 L 194,80 L 193,81 L 192,81 L 191,82 L 190,82 L 188,84 L 187,84 L 187,85 L 186,86 L 185,86 L 184,87 L 183,87 L 182,88 L 181,88 L 179,90 L 178,90 L 178,91 L 177,92 L 176,92 L 174,94 L 173,94 L 173,95 L 170,98 L 168,98 L 167,99 L 165,99 L 164,98 L 150,98 L 149,99 L 142,99 L 141,98 L 136,98 L 135,99 L 129,99 L 128,98 L 127,99 L 125,99 L 124,100 L 120,100 L 119,99 L 112,99 L 111,100 L 108,100 L 107,99 L 103,99 L 102,98 L 101,98 L 99,96 L 99,95 L 98,94 L 98,93 L 97,92 L 97,89 L 96,88 L 96,82 L 97,81 L 97,80 L 106,71 L 107,71 L 109,69 L 111,69 L 113,67 L 115,67 L 116,66 L 117,66 L 118,65 L 128,65 L 129,64 L 130,65 L 135,65 L 136,64 L 145,64 L 146,65 L 156,65 L 157,66 L 159,66 L 160,67 L 169,67 L 170,68 L 172,68 L 173,69 L 183,69 L 184,70 L 194,70 L 195,69 L 197,69 L 198,68 L 201,68 L 204,65 L 207,65 L 207,64 L 208,63 L 209,63 L 211,61 L 211,60 L 214,57 L 214,56 L 215,55 L 215,54 L 216,53 L 217,53 L 217,50 L 218,49 L 218,46 L 219,45 L 219,36 L 217,34 L 217,33 L 216,32 L 216,31 L 215,30 L 215,29 L 211,25 L 211,24 L 210,24 L 208,22 L 206,22 L 205,21 L 205,20 L 204,20 L 202,18 L 198,18 L 197,17 L 194,17 L 193,16 L 189,16 L 188,15 L 183,15 L 182,16 L 181,15 L 181,14 L 168,14 L 167,13 L 166,14 L 160,14 L 159,13 Z" fill="black" /><path d="M 0,0 L 0,217 L 259,217 L 259,0 Z" fill="none" stroke="black" stroke-width="1" /></svg>