<?xml version='1.0' encoding='utf-8'?>
<svg width="254" height="220" xmlns="http://www.w3.org/2000/svg" viewBox="0 0 254 220"><rect width="254" height="220" fill="white" /><path d="M 151,10 L 150,11 L 142,11 L 141,12 L 130,12 L 130,13 L 129,14 L 120,14 L 119,15 L 114,15 L 113,16 L 110,16 L 109,17 L 108,17 L 107,18 L 104,18 L 103,19 L 101,19 L 100,20 L 98,20 L 97,21 L 96,21 L 95,22 L 93,22 L 92,23 L 91,23 L 90,24 L 88,24 L 88,25 L 87,26 L 86,26 L 84,28 L 82,28 L 82,29 L 81,30 L 80,30 L 79,31 L 78,31 L 75,34 L 75,35 L 73,37 L 72,37 L 70,39 L 70,40 L 68,42 L 68,44 L 66,46 L 66,48 L 62,52 L 62,54 L 61,55 L 61,56 L 60,57 L 60,60 L 59,61 L 59,62 L 58,63 L 59,64 L 59,66 L 58,67 L 58,71 L 57,72 L 57,77 L 58,78 L 58,84 L 59,85 L 59,86 L 60,87 L 60,88 L 61,89 L 61,91 L 62,92 L 62,93 L 64,95 L 64,96 L 67,99 L 69,99 L 70,100 L 70,101 L 72,101 L 74,103 L 79,103 L 80,104 L 98,104 L 99,103 L 108,103 L 109,102 L 110,102 L 111,101 L 117,101 L 118,100 L 119,100 L 120,99 L 124,99 L 125,98 L 128,98 L 129,97 L 133,97 L 134,96 L 135,96 L 136,95 L 139,95 L 141,93 L 143,93 L 144,92 L 145,92 L 146,91 L 149,91 L 150,90 L 151,90 L 152,89 L 156,89 L 157,88 L 158,88 L 159,87 L 173,87 L 174,88 L 175,88 L 176,89 L 180,89 L 183,92 L 183,96 L 184,97 L 184,113 L 185,114 L 185,120 L 186,121 L 186,139 L 185,140 L 142,140 L 141,141 L 112,141 L 111,142 L 79,142 L 78,141 L 77,142 L 74,142 L 72,144 L 70,144 L 68,146 L 67,146 L 65,148 L 65,149 L 59,155 L 58,155 L 55,158 L 55,159 L 54,160 L 54,161 L 51,164 L 50,164 L 50,165 L 49,166 L 48,166 L 48,167 L 47,168 L 46,168 L 46,169 L 45,170 L 44,170 L 44,171 L 43,172 L 42,172 L 40,174 L 40,176 L 38,178 L 38,180 L 40,182 L 40,183 L 44,187 L 44,189 L 46,191 L 47,191 L 48,192 L 48,193 L 50,195 L 50,196 L 51,197 L 51,198 L 54,201 L 54,202 L 55,202 L 56,203 L 56,204 L 58,206 L 59,206 L 60,207 L 63,207 L 64,206 L 99,206 L 100,205 L 104,205 L 105,206 L 111,206 L 112,205 L 169,205 L 170,204 L 197,204 L 198,203 L 213,203 L 214,204 L 217,204 L 218,203 L 244,203 L 245,202 L 246,202 L 249,205 L 252,205 L 252,201 L 249,198 L 249,197 L 247,195 L 247,194 L 245,192 L 245,191 L 243,189 L 243,187 L 241,185 L 241,184 L 240,183 L 240,182 L 239,181 L 239,180 L 238,180 L 237,179 L 237,177 L 235,175 L 235,174 L 233,172 L 233,171 L 231,169 L 231,167 L 229,165 L 229,164 L 228,163 L 228,162 L 227,161 L 227,160 L 226,160 L 225,159 L 225,158 L 224,157 L 224,156 L 223,155 L 223,154 L 222,153 L 222,152 L 221,151 L 221,150 L 219,148 L 219,146 L 217,144 L 217,143 L 215,141 L 215,140 L 213,138 L 213,137 L 211,135 L 211,134 L 209,132 L 209,128 L 208,127 L 208,126 L 207,125 L 207,102 L 206,101 L 206,94 L 207,93 L 207,90 L 208,89 L 209,89 L 209,88 L 210,87 L 210,86 L 211,85 L 211,82 L 213,80 L 213,79 L 215,77 L 215,74 L 217,72 L 217,68 L 219,66 L 219,58 L 218,57 L 218,54 L 217,53 L 217,48 L 215,46 L 215,43 L 213,41 L 213,40 L 212,39 L 212,38 L 211,37 L 211,35 L 209,33 L 209,32 L 207,30 L 206,30 L 205,29 L 205,28 L 204,27 L 204,26 L 203,26 L 199,22 L 198,22 L 196,20 L 195,20 L 193,18 L 191,18 L 189,16 L 186,16 L 185,15 L 183,15 L 182,14 L 181,14 L 180,13 L 179,13 L 178,12 L 174,12 L 173,11 L 170,11 L 169,10 L 156,10 L 155,11 L 154,10 Z" fill="black" /><path d="M 0,0 L 0,219 L 253,219 L 253,0 Z" fill="none" stroke="black" stroke-width="1" /></svg>