<?xml version='1.0' encoding='utf-8'?>
<svg width="259" height="219" xmlns="http://www.w3.org/2000/svg" viewBox="0 0 259 219"><rect width="259" height="219" fill="white" /><path d="M 163,4 L 162,5 L 161,5 L 160,6 L 159,6 L 158,5 L 145,5 L 144,6 L 135,6 L 134,7 L 129,7 L 128,8 L 126,8 L 125,7 L 124,8 L 122,8 L 121,9 L 112,9 L 111,10 L 105,10 L 104,11 L 102,11 L 101,12 L 100,12 L 99,13 L 94,13 L 93,14 L 91,14 L 90,15 L 89,15 L 88,16 L 86,16 L 84,18 L 83,18 L 82,19 L 81,19 L 80,20 L 79,20 L 78,21 L 77,21 L 76,22 L 75,22 L 75,23 L 74,24 L 72,24 L 67,29 L 67,30 L 65,32 L 65,33 L 63,35 L 63,36 L 61,38 L 61,39 L 60,40 L 60,41 L 59,42 L 59,43 L 58,44 L 58,45 L 57,46 L 57,51 L 56,52 L 56,57 L 57,58 L 57,60 L 59,62 L 59,64 L 60,65 L 60,66 L 62,68 L 62,69 L 65,72 L 65,73 L 69,77 L 70,77 L 71,78 L 71,79 L 72,79 L 77,84 L 78,84 L 79,85 L 80,85 L 81,86 L 81,87 L 82,87 L 84,89 L 85,89 L 87,91 L 88,91 L 89,92 L 90,92 L 91,93 L 92,93 L 93,94 L 94,94 L 95,95 L 96,95 L 100,99 L 102,99 L 105,102 L 105,105 L 106,106 L 106,115 L 107,116 L 107,128 L 106,129 L 107,130 L 107,146 L 103,150 L 102,150 L 98,154 L 97,154 L 96,155 L 95,155 L 94,156 L 93,156 L 93,157 L 92,158 L 91,158 L 90,159 L 89,159 L 88,160 L 85,160 L 84,161 L 79,161 L 78,162 L 64,162 L 62,164 L 61,163 L 55,163 L 54,164 L 52,164 L 51,165 L 49,165 L 48,166 L 41,166 L 41,167 L 40,168 L 36,168 L 35,169 L 34,169 L 33,170 L 32,170 L 31,171 L 30,171 L 29,172 L 27,172 L 26,173 L 25,173 L 20,178 L 20,179 L 19,180 L 17,180 L 15,182 L 15,184 L 13,186 L 13,187 L 11,189 L 11,191 L 10,192 L 10,197 L 11,198 L 11,202 L 13,204 L 13,205 L 14,205 L 15,206 L 15,207 L 19,211 L 20,211 L 22,213 L 24,213 L 25,214 L 26,214 L 27,215 L 28,215 L 29,216 L 30,216 L 31,217 L 36,217 L 37,218 L 58,218 L 59,217 L 72,217 L 73,216 L 75,216 L 76,215 L 91,215 L 92,214 L 94,214 L 95,213 L 107,213 L 108,212 L 109,212 L 110,211 L 121,211 L 122,210 L 123,210 L 124,209 L 127,209 L 128,208 L 130,208 L 131,207 L 133,207 L 135,205 L 137,205 L 139,203 L 141,203 L 148,196 L 148,195 L 150,193 L 150,190 L 152,188 L 152,182 L 153,181 L 153,170 L 152,169 L 152,166 L 151,165 L 151,164 L 150,164 L 149,163 L 149,162 L 148,161 L 148,160 L 142,154 L 141,154 L 138,151 L 138,150 L 136,148 L 136,146 L 135,145 L 135,144 L 134,143 L 134,141 L 133,140 L 133,139 L 132,138 L 133,137 L 133,125 L 132,124 L 132,123 L 133,122 L 133,120 L 132,119 L 132,112 L 133,111 L 133,110 L 132,109 L 132,103 L 133,102 L 133,101 L 135,99 L 139,99 L 140,98 L 142,98 L 143,97 L 150,97 L 151,96 L 153,96 L 154,95 L 159,95 L 160,94 L 161,94 L 162,93 L 166,93 L 167,92 L 168,92 L 169,91 L 172,91 L 173,90 L 176,90 L 177,89 L 180,89 L 181,88 L 184,88 L 185,87 L 188,87 L 189,86 L 190,86 L 191,85 L 193,85 L 194,84 L 195,84 L 196,83 L 199,83 L 200,82 L 201,82 L 202,81 L 204,81 L 206,79 L 208,79 L 210,77 L 212,77 L 213,76 L 214,76 L 215,75 L 216,75 L 216,74 L 217,73 L 219,73 L 221,71 L 222,71 L 225,68 L 226,68 L 227,67 L 228,67 L 228,66 L 234,60 L 234,58 L 235,57 L 236,57 L 236,56 L 237,55 L 237,54 L 238,53 L 238,50 L 239,49 L 239,47 L 240,46 L 240,32 L 239,31 L 239,30 L 238,29 L 238,28 L 237,28 L 236,27 L 236,26 L 232,22 L 231,22 L 230,21 L 230,20 L 229,20 L 228,19 L 228,18 L 227,18 L 225,16 L 223,16 L 222,15 L 221,15 L 220,14 L 217,14 L 215,12 L 213,12 L 212,11 L 211,11 L 210,10 L 209,10 L 208,9 L 205,9 L 204,8 L 198,8 L 197,7 L 195,7 L 194,6 L 185,6 L 184,5 L 178,5 L 177,4 L 176,5 L 174,5 L 173,6 L 167,6 L 166,5 L 164,5 Z" fill="black" /><path d="M 156,11 L 155,12 L 130,12 L 129,13 L 125,13 L 124,14 L 113,14 L 112,15 L 111,15 L 110,16 L 106,16 L 105,17 L 104,17 L 103,18 L 99,18 L 98,19 L 96,19 L 95,20 L 93,20 L 92,21 L 91,21 L 90,22 L 88,22 L 86,24 L 85,24 L 85,25 L 84,26 L 82,26 L 80,28 L 79,28 L 79,29 L 76,32 L 75,32 L 73,34 L 73,35 L 72,36 L 71,36 L 71,37 L 69,39 L 69,40 L 67,42 L 67,43 L 66,44 L 66,45 L 65,46 L 65,50 L 63,52 L 63,54 L 65,56 L 65,60 L 67,62 L 67,63 L 68,64 L 68,65 L 69,66 L 69,67 L 75,73 L 76,73 L 77,74 L 77,75 L 79,77 L 80,77 L 82,79 L 83,79 L 89,85 L 91,85 L 92,86 L 93,86 L 94,87 L 96,87 L 97,88 L 98,88 L 99,89 L 100,89 L 101,90 L 101,91 L 102,91 L 103,92 L 104,92 L 105,93 L 106,93 L 111,98 L 111,99 L 113,101 L 113,139 L 112,140 L 112,141 L 113,142 L 113,147 L 111,149 L 111,150 L 109,152 L 108,152 L 108,153 L 105,156 L 104,156 L 100,160 L 99,160 L 99,161 L 98,162 L 97,162 L 96,163 L 95,163 L 92,166 L 89,166 L 87,168 L 77,168 L 76,169 L 75,169 L 74,170 L 57,170 L 56,171 L 53,171 L 52,172 L 45,172 L 43,174 L 40,174 L 38,176 L 35,176 L 34,177 L 33,177 L 32,178 L 31,178 L 30,179 L 29,179 L 28,180 L 27,180 L 26,181 L 25,181 L 23,183 L 23,184 L 21,186 L 21,187 L 20,188 L 19,188 L 19,189 L 18,190 L 18,191 L 17,192 L 17,195 L 18,196 L 18,198 L 19,199 L 19,201 L 20,202 L 20,203 L 22,205 L 23,205 L 27,209 L 30,209 L 31,210 L 31,211 L 32,211 L 33,210 L 34,210 L 35,211 L 49,211 L 50,212 L 51,212 L 52,211 L 63,211 L 64,210 L 70,210 L 71,209 L 72,209 L 73,210 L 74,209 L 76,209 L 77,208 L 83,208 L 84,207 L 96,207 L 97,206 L 99,206 L 100,205 L 110,205 L 111,204 L 114,204 L 115,203 L 120,203 L 121,202 L 122,202 L 123,201 L 128,201 L 130,199 L 132,199 L 133,198 L 134,198 L 135,197 L 136,197 L 138,195 L 138,194 L 139,193 L 140,193 L 142,191 L 142,189 L 144,187 L 144,184 L 145,183 L 145,178 L 146,177 L 146,175 L 145,174 L 145,171 L 144,170 L 144,168 L 143,168 L 142,167 L 142,165 L 132,155 L 132,154 L 131,153 L 131,152 L 130,151 L 130,150 L 128,148 L 128,143 L 127,142 L 127,107 L 126,106 L 126,101 L 127,100 L 127,97 L 128,96 L 128,94 L 130,92 L 136,92 L 137,91 L 142,91 L 143,90 L 144,90 L 145,89 L 151,89 L 152,88 L 153,88 L 154,87 L 155,87 L 156,86 L 158,86 L 159,85 L 168,85 L 170,83 L 173,83 L 174,82 L 176,82 L 177,81 L 183,81 L 185,79 L 187,79 L 188,78 L 189,78 L 190,77 L 192,77 L 193,76 L 195,76 L 196,75 L 198,75 L 200,73 L 202,73 L 203,72 L 204,72 L 205,71 L 208,71 L 208,70 L 209,69 L 210,69 L 211,68 L 212,68 L 213,67 L 214,67 L 215,66 L 216,66 L 219,63 L 221,63 L 223,61 L 223,60 L 224,59 L 225,59 L 226,58 L 226,57 L 228,55 L 228,54 L 229,53 L 230,53 L 230,51 L 232,49 L 232,44 L 234,42 L 234,40 L 233,39 L 233,35 L 232,34 L 232,31 L 228,27 L 227,27 L 224,24 L 223,24 L 222,23 L 222,22 L 221,22 L 220,21 L 219,21 L 218,20 L 215,20 L 214,19 L 214,18 L 210,18 L 208,16 L 205,16 L 204,15 L 203,15 L 202,14 L 196,14 L 195,13 L 191,13 L 190,12 L 174,12 L 173,11 Z" fill="none" stroke="black" stroke-width="1" /><path d="M 0,0 L 0,218 L 36,218 L 31,218 L 30,217 L 29,217 L 28,216 L 27,216 L 26,215 L 25,215 L 24,214 L 22,214 L 20,212 L 19,212 L 14,207 L 14,206 L 13,206 L 12,205 L 12,204 L 10,202 L 10,198 L 9,197 L 9,192 L 10,191 L 10,189 L 12,187 L 12,186 L 14,184 L 14,182 L 17,179 L 19,179 L 19,178 L 25,172 L 26,172 L 27,171 L 29,171 L 30,170 L 31,170 L 32,169 L 33,169 L 34,168 L 35,168 L 36,167 L 40,167 L 40,166 L 41,165 L 48,165 L 49,164 L 51,164 L 52,163 L 54,163 L 55,162 L 61,162 L 62,163 L 64,161 L 78,161 L 79,160 L 84,160 L 85,159 L 88,159 L 89,158 L 90,158 L 91,157 L 92,157 L 92,156 L 93,155 L 94,155 L 95,154 L 96,154 L 97,153 L 98,153 L 102,149 L 103,149 L 106,146 L 106,130 L 105,129 L 106,128 L 106,116 L 105,115 L 105,106 L 104,105 L 104,102 L 102,100 L 100,100 L 96,96 L 95,96 L 94,95 L 93,95 L 92,94 L 91,94 L 90,93 L 89,93 L 88,92 L 87,92 L 85,90 L 84,90 L 82,88 L 81,88 L 80,87 L 80,86 L 79,86 L 78,85 L 77,85 L 72,80 L 71,80 L 70,79 L 70,78 L 69,78 L 64,73 L 64,72 L 61,69 L 61,68 L 59,66 L 59,65 L 58,64 L 58,62 L 56,60 L 56,58 L 55,57 L 55,52 L 56,51 L 56,46 L 57,45 L 57,44 L 58,43 L 58,42 L 59,41 L 59,40 L 60,39 L 60,38 L 62,36 L 62,35 L 64,33 L 64,32 L 66,30 L 66,29 L 72,23 L 74,23 L 74,22 L 75,21 L 76,21 L 77,20 L 78,20 L 79,19 L 80,19 L 81,18 L 82,18 L 83,17 L 84,17 L 86,15 L 88,15 L 89,14 L 90,14 L 91,13 L 93,13 L 94,12 L 99,12 L 100,11 L 101,11 L 102,10 L 104,10 L 105,9 L 111,9 L 112,8 L 121,8 L 122,7 L 124,7 L 125,6 L 126,7 L 128,7 L 129,6 L 134,6 L 135,5 L 144,5 L 145,4 L 158,4 L 159,5 L 160,5 L 161,4 L 162,4 L 163,3 L 164,4 L 166,4 L 167,5 L 173,5 L 174,4 L 176,4 L 177,3 L 178,4 L 184,4 L 185,5 L 194,5 L 195,6 L 197,6 L 198,7 L 204,7 L 205,8 L 208,8 L 209,9 L 210,9 L 211,10 L 212,10 L 213,11 L 215,11 L 217,13 L 220,13 L 221,14 L 222,14 L 223,15 L 225,15 L 227,17 L 228,17 L 229,18 L 229,19 L 230,19 L 231,20 L 231,21 L 232,21 L 237,26 L 237,27 L 238,27 L 239,28 L 239,29 L 240,30 L 240,31 L 241,32 L 241,46 L 240,47 L 240,49 L 239,50 L 239,53 L 238,54 L 238,55 L 237,56 L 237,57 L 236,58 L 235,58 L 235,60 L 229,66 L 229,67 L 228,68 L 227,68 L 226,69 L 225,69 L 222,72 L 221,72 L 219,74 L 217,74 L 217,75 L 216,76 L 215,76 L 214,77 L 213,77 L 212,78 L 210,78 L 208,80 L 206,80 L 204,82 L 202,82 L 201,83 L 200,83 L 199,84 L 196,84 L 195,85 L 194,85 L 193,86 L 191,86 L 190,87 L 189,87 L 188,88 L 185,88 L 184,89 L 181,89 L 180,90 L 177,90 L 176,91 L 173,91 L 172,92 L 169,92 L 168,93 L 167,93 L 166,94 L 162,94 L 161,95 L 160,95 L 159,96 L 154,96 L 153,97 L 151,97 L 150,98 L 143,98 L 142,99 L 140,99 L 139,100 L 135,100 L 134,101 L 134,102 L 133,103 L 133,109 L 134,110 L 134,111 L 133,112 L 133,119 L 134,120 L 134,122 L 133,123 L 133,124 L 134,125 L 134,137 L 133,138 L 134,139 L 134,140 L 135,141 L 135,143 L 136,144 L 136,145 L 137,146 L 137,148 L 139,150 L 139,151 L 141,153 L 142,153 L 149,160 L 149,161 L 150,162 L 150,163 L 151,163 L 152,164 L 152,165 L 153,166 L 153,169 L 154,170 L 154,181 L 153,182 L 153,188 L 151,190 L 151,193 L 149,195 L 149,196 L 141,204 L 139,204 L 137,206 L 135,206 L 133,208 L 131,208 L 130,209 L 128,209 L 127,210 L 124,210 L 123,211 L 122,211 L 121,212 L 110,212 L 109,213 L 108,213 L 107,214 L 95,214 L 94,215 L 92,215 L 91,216 L 76,216 L 75,217 L 73,217 L 72,218 L 59,218 L 258,218 L 258,0 Z" fill="none" stroke="black" stroke-width="1" /></svg>