<?xml version="1.0" encoding="utf-8" ?>
<svg baseProfile="full" height="220" version="1.1" width="261" xmlns="http://www.w3.org/2000/svg" xmlns:ev="http://www.w3.org/2001/xml-events" xmlns:xlink="http://www.w3.org/1999/xlink"><defs /><rect fill="white" height="220" width="261" x="0" y="0" /><circle cx="138.0" cy="190.0" fill="none" r="3.6056511402130127" stroke="black" stroke-width="1" /><path d="M 206,183 L 206,188 L 212,187 L 211,183 Z" fill="none" stroke="black" stroke-width="1" /><circle cx="138.08824157714844" cy="189.60784912109375" fill="black" r="9.455099105834961" stroke="black" stroke-width="1" /><path d="M 53,180 L 53,184 L 60,183 L 58,179 Z" fill="none" stroke="black" stroke-width="1" /><circle cx="209.38780212402344" cy="184.97317504882812" fill="black" r="10.58378791809082" stroke="black" stroke-width="1" /><circle cx="55.5" cy="182.0" fill="black" r="10.920265197753906" stroke="black" stroke-width="1" /><circle cx="112.0" cy="122.30000305175781" fill="none" r="3.448286294937134" stroke="black" stroke-width="1" /><circle cx="111.59782409667969" cy="121.68478393554688" fill="black" r="9.620061874389648" stroke="black" stroke-width="1" /><circle cx="204.1666717529297" cy="110.5" fill="none" r="3.2059926986694336" stroke="black" stroke-width="1" /><circle cx="203.85714721679688" cy="110.5" fill="black" r="9.789986610412598" stroke="black" stroke-width="1" /><path d="M 45,66 L 43,69 L 45,71 L 48,71 L 50,68 L 48,66 L 47,67 Z" fill="none" stroke="black" stroke-width="1" /><circle cx="46.32758712768555" cy="68.1551742553711" fill="black" r="9.846877098083496" stroke="black" stroke-width="1" /><path d="M 147,38 L 144,40 L 144,43 L 147,45 L 149,44 L 149,39 Z" fill="none" stroke="black" stroke-width="1" /><circle cx="146.82608032226562" cy="40.619564056396484" fill="black" r="10.758356094360352" stroke="black" stroke-width="1" /><path d="M 215,24 L 212,28 L 213,30 L 216,31 L 217,30 L 217,25 Z" fill="none" stroke="black" stroke-width="1" /><circle cx="214.72579956054688" cy="27.112903594970703" fill="black" r="10.145370483398438" stroke="black" stroke-width="1" /><path d="M 0,0 L 0,219 L 260,219 L 260,0 Z" fill="none" stroke="black" stroke-width="1" /></svg>