<?xml version='1.0' encoding='utf-8'?>
<svg width="259" height="220" xmlns="http://www.w3.org/2000/svg" viewBox="0 0 259 220"><rect width="259" height="220" fill="white" /><path d="M 100,140 L 100,141 L 99,142 L 99,143 L 98,144 L 98,145 L 95,148 L 95,151 L 93,153 L 93,155 L 92,156 L 92,157 L 91,158 L 91,160 L 89,162 L 89,163 L 88,164 L 88,165 L 87,166 L 87,167 L 86,168 L 85,168 L 85,170 L 83,172 L 83,173 L 82,174 L 82,175 L 81,176 L 81,177 L 80,178 L 79,178 L 79,179 L 78,180 L 78,181 L 77,182 L 77,183 L 76,184 L 75,184 L 74,185 L 74,187 L 73,188 L 74,189 L 79,189 L 80,188 L 81,188 L 82,189 L 83,189 L 84,188 L 86,188 L 87,187 L 132,187 L 133,186 L 132,185 L 132,184 L 131,183 L 131,182 L 128,179 L 128,178 L 124,174 L 124,173 L 122,171 L 122,170 L 120,168 L 120,167 L 118,165 L 118,164 L 116,162 L 116,161 L 114,159 L 114,158 L 112,156 L 112,155 L 110,153 L 110,152 L 109,151 L 109,150 L 108,149 L 108,148 L 106,146 L 106,144 L 105,144 L 104,143 L 104,142 L 103,141 L 103,140 Z" fill="black" /><path d="M 159,61 L 158,62 L 158,63 L 157,64 L 157,73 L 156,74 L 156,75 L 157,76 L 157,91 L 156,92 L 156,99 L 157,100 L 157,101 L 156,102 L 156,105 L 160,105 L 161,106 L 168,106 L 169,105 L 174,105 L 175,106 L 176,105 L 186,105 L 187,106 L 190,106 L 191,105 L 194,105 L 195,106 L 197,106 L 197,102 L 198,101 L 198,64 L 189,64 L 188,63 L 187,63 L 186,64 L 183,64 L 182,63 L 161,63 Z" fill="black" /><path d="M 61,42 L 59,44 L 55,44 L 53,46 L 51,46 L 47,50 L 47,51 L 46,52 L 46,53 L 45,54 L 45,56 L 44,57 L 44,59 L 43,60 L 43,66 L 41,68 L 41,69 L 42,70 L 42,72 L 43,73 L 43,77 L 44,77 L 45,78 L 45,80 L 49,84 L 50,84 L 51,85 L 52,85 L 53,86 L 54,86 L 55,87 L 58,87 L 59,88 L 70,88 L 71,87 L 74,87 L 76,85 L 77,85 L 79,83 L 80,83 L 80,82 L 81,81 L 82,81 L 82,80 L 83,79 L 84,79 L 84,78 L 85,77 L 85,76 L 86,75 L 86,74 L 87,73 L 87,72 L 88,71 L 88,57 L 86,55 L 86,54 L 78,46 L 77,46 L 75,44 L 72,44 L 71,43 L 70,43 L 69,42 Z" fill="black" /><path d="M 0,0 L 0,219 L 258,219 L 258,0 Z" fill="none" stroke="black" stroke-width="1" /></svg>