<?xml version='1.0' encoding='utf-8'?>
<svg width="257" height="218" xmlns="http://www.w3.org/2000/svg" viewBox="0 0 257 218"><rect width="257" height="218" fill="white" /><path d="M 127,48 L 126,49 L 111,49 L 110,50 L 107,50 L 106,51 L 103,51 L 102,52 L 101,52 L 100,53 L 99,53 L 98,54 L 97,54 L 96,55 L 95,55 L 94,56 L 93,56 L 92,57 L 89,57 L 87,59 L 86,59 L 84,61 L 83,61 L 83,62 L 82,63 L 81,63 L 81,64 L 80,65 L 79,65 L 79,66 L 78,67 L 77,67 L 77,68 L 76,69 L 75,69 L 75,70 L 71,74 L 71,75 L 69,77 L 69,79 L 67,81 L 67,82 L 65,84 L 65,87 L 64,88 L 64,89 L 63,90 L 63,93 L 62,94 L 62,97 L 61,98 L 61,105 L 60,106 L 60,110 L 61,111 L 61,118 L 62,119 L 62,121 L 63,122 L 63,129 L 64,130 L 64,131 L 66,133 L 66,134 L 67,135 L 67,138 L 68,138 L 69,139 L 69,140 L 72,143 L 72,144 L 73,145 L 73,146 L 75,148 L 75,149 L 78,152 L 80,152 L 81,153 L 81,155 L 83,157 L 84,157 L 85,158 L 86,158 L 87,159 L 88,159 L 89,160 L 89,161 L 90,162 L 92,162 L 93,163 L 94,163 L 95,164 L 96,164 L 97,165 L 98,165 L 99,166 L 103,166 L 104,167 L 106,167 L 107,168 L 108,168 L 109,169 L 114,169 L 115,170 L 130,170 L 131,169 L 133,169 L 134,168 L 139,168 L 141,166 L 144,166 L 145,165 L 146,165 L 147,164 L 149,164 L 151,162 L 152,162 L 154,160 L 155,160 L 157,158 L 158,158 L 159,157 L 160,157 L 165,152 L 165,151 L 172,144 L 172,143 L 173,142 L 173,141 L 174,140 L 174,139 L 176,137 L 176,135 L 178,133 L 178,131 L 179,130 L 179,129 L 180,128 L 180,123 L 181,122 L 181,119 L 182,118 L 182,98 L 181,97 L 181,95 L 180,94 L 180,89 L 178,87 L 178,85 L 177,84 L 177,83 L 176,82 L 176,81 L 175,80 L 175,79 L 173,77 L 173,76 L 172,75 L 172,74 L 170,72 L 170,71 L 169,71 L 168,70 L 168,69 L 167,69 L 166,68 L 166,67 L 164,65 L 163,65 L 162,64 L 162,63 L 160,63 L 158,61 L 158,60 L 157,60 L 154,57 L 153,57 L 152,56 L 151,56 L 150,55 L 149,55 L 148,54 L 147,54 L 146,53 L 145,53 L 144,52 L 143,52 L 142,51 L 140,51 L 139,50 L 137,50 L 136,49 L 128,49 Z" fill="black" /></svg>