<?xml version='1.0' encoding='utf-8'?>
<svg width="261" height="220" xmlns="http://www.w3.org/2000/svg" viewBox="0 0 261 220"><rect width="261" height="220" fill="white" /><path d="M 137,182 L 136,183 L 135,183 L 133,185 L 132,185 L 130,187 L 130,191 L 131,192 L 131,193 L 132,194 L 132,195 L 133,196 L 135,196 L 137,198 L 139,198 L 140,197 L 141,197 L 142,196 L 143,196 L 145,194 L 145,191 L 146,190 L 145,189 L 145,186 L 144,185 L 144,184 L 142,182 Z" fill="black" /><path d="M 206,177 L 204,179 L 203,179 L 202,180 L 202,182 L 201,183 L 201,184 L 200,185 L 200,187 L 202,189 L 202,190 L 203,191 L 203,192 L 204,192 L 206,194 L 210,194 L 212,192 L 214,192 L 216,190 L 216,189 L 217,188 L 217,181 L 216,180 L 216,178 L 215,177 Z" fill="black" /><path d="M 54,174 L 53,175 L 50,175 L 49,176 L 48,176 L 47,177 L 47,178 L 46,179 L 46,180 L 47,181 L 47,182 L 48,183 L 48,186 L 50,188 L 51,188 L 52,189 L 53,189 L 54,190 L 59,190 L 60,189 L 61,189 L 62,188 L 63,188 L 63,187 L 65,185 L 65,181 L 64,180 L 64,179 L 63,178 L 63,177 L 61,175 L 60,175 L 59,174 Z" fill="black" /><path d="M 110,114 L 109,115 L 107,115 L 106,116 L 106,118 L 105,119 L 104,119 L 104,126 L 106,128 L 107,128 L 108,129 L 110,129 L 111,130 L 114,130 L 116,128 L 117,128 L 119,126 L 119,117 L 117,115 L 115,115 L 114,114 Z" fill="black" /><path d="M 199,103 L 198,104 L 198,105 L 196,107 L 196,114 L 197,114 L 198,115 L 198,117 L 199,118 L 201,118 L 202,119 L 203,119 L 204,118 L 208,118 L 209,117 L 209,116 L 211,114 L 211,111 L 212,110 L 212,107 L 209,104 L 208,104 L 207,103 Z" fill="black" /><path d="M 44,60 L 43,61 L 42,61 L 38,65 L 38,70 L 39,71 L 39,72 L 40,73 L 40,74 L 42,76 L 50,76 L 54,72 L 54,71 L 55,70 L 55,67 L 54,66 L 54,65 L 53,64 L 53,63 L 51,61 L 50,61 L 49,60 Z" fill="black" /><path d="M 146,33 L 145,34 L 144,34 L 143,35 L 140,35 L 139,36 L 139,38 L 138,39 L 138,45 L 140,47 L 141,47 L 142,48 L 143,48 L 144,49 L 144,50 L 149,50 L 151,48 L 152,48 L 153,47 L 153,46 L 154,45 L 154,43 L 155,42 L 155,35 L 153,35 L 152,34 L 151,34 L 150,33 Z" fill="black" /><path d="M 214,19 L 213,20 L 212,20 L 211,21 L 209,21 L 207,23 L 207,24 L 206,25 L 206,30 L 207,31 L 207,32 L 209,34 L 211,34 L 213,36 L 217,36 L 219,34 L 220,34 L 223,31 L 223,23 L 221,21 L 220,21 L 219,20 L 218,20 L 217,19 Z" fill="black" /></svg>