<?xml version='1.0' encoding='utf-8'?>
<svg width="260" height="218" xmlns="http://www.w3.org/2000/svg" viewBox="0 0 260 218"><rect width="260" height="218" fill="white" /><path d="M 144,68 L 144,71 L 143,72 L 143,73 L 142,74 L 142,75 L 141,76 L 141,78 L 142,79 L 139,82 L 139,83 L 138,84 L 138,86 L 137,87 L 137,89 L 136,90 L 136,91 L 137,92 L 135,94 L 134,94 L 134,97 L 133,98 L 133,101 L 130,104 L 130,110 L 128,112 L 128,114 L 126,116 L 126,120 L 124,122 L 124,124 L 123,125 L 123,126 L 122,127 L 122,133 L 118,137 L 118,139 L 117,140 L 117,142 L 116,143 L 116,144 L 115,145 L 115,146 L 114,147 L 114,151 L 112,153 L 112,155 L 111,156 L 111,160 L 113,162 L 117,162 L 118,163 L 120,163 L 122,165 L 127,165 L 129,167 L 131,167 L 132,168 L 134,168 L 135,169 L 137,169 L 138,170 L 141,170 L 142,171 L 144,171 L 145,172 L 146,172 L 147,173 L 149,173 L 150,174 L 150,175 L 156,175 L 158,177 L 160,177 L 161,178 L 162,178 L 163,179 L 167,179 L 169,181 L 172,181 L 173,182 L 174,182 L 175,183 L 178,183 L 180,185 L 183,185 L 184,186 L 185,186 L 186,187 L 189,187 L 190,188 L 191,188 L 192,189 L 195,189 L 196,190 L 199,190 L 199,187 L 200,186 L 200,184 L 201,183 L 201,182 L 202,181 L 202,180 L 203,179 L 203,176 L 205,174 L 205,171 L 207,169 L 207,166 L 208,165 L 208,164 L 209,163 L 209,162 L 210,161 L 210,160 L 211,159 L 211,157 L 213,155 L 213,152 L 214,151 L 214,150 L 215,149 L 215,146 L 217,144 L 217,141 L 219,139 L 219,136 L 220,135 L 220,133 L 221,132 L 221,131 L 222,130 L 222,128 L 223,127 L 223,126 L 224,125 L 224,124 L 225,123 L 225,122 L 226,121 L 226,120 L 227,119 L 227,116 L 228,115 L 228,114 L 229,113 L 229,111 L 230,110 L 230,108 L 231,107 L 231,105 L 232,104 L 232,101 L 233,100 L 233,98 L 230,98 L 228,96 L 226,96 L 225,95 L 223,95 L 222,94 L 219,94 L 217,92 L 214,92 L 213,91 L 212,91 L 211,90 L 209,90 L 208,89 L 206,89 L 205,88 L 201,88 L 199,86 L 197,86 L 195,84 L 192,84 L 191,83 L 189,83 L 188,82 L 186,82 L 184,80 L 180,80 L 179,79 L 177,79 L 176,78 L 174,78 L 173,77 L 172,77 L 171,76 L 168,76 L 166,74 L 159,74 L 157,72 L 156,72 L 155,71 L 155,70 L 152,70 L 150,68 Z" fill="black" /></svg>