<?xml version='1.0' encoding='utf-8'?>
<svg width="261" height="222" xmlns="http://www.w3.org/2000/svg" viewBox="0 0 261 222"><rect width="261" height="222" fill="white" /><path d="M 135,20 L 134,21 L 129,21 L 128,22 L 124,22 L 123,23 L 122,23 L 121,24 L 120,24 L 118,26 L 116,26 L 115,27 L 114,27 L 113,28 L 112,28 L 112,29 L 111,30 L 110,30 L 110,31 L 108,33 L 108,35 L 107,36 L 106,36 L 106,38 L 104,40 L 104,42 L 103,43 L 103,44 L 102,45 L 102,54 L 103,55 L 103,57 L 104,58 L 104,62 L 105,63 L 105,64 L 106,65 L 106,69 L 107,70 L 107,71 L 108,72 L 108,74 L 110,76 L 110,78 L 112,80 L 112,83 L 113,84 L 113,85 L 114,86 L 114,87 L 115,87 L 116,88 L 116,89 L 117,90 L 117,91 L 118,92 L 118,93 L 119,94 L 119,95 L 120,96 L 120,97 L 122,99 L 124,99 L 125,100 L 125,102 L 126,103 L 126,104 L 128,106 L 128,109 L 129,109 L 130,110 L 130,111 L 131,112 L 131,113 L 132,114 L 132,124 L 133,125 L 133,131 L 132,132 L 132,136 L 131,137 L 131,138 L 130,139 L 130,142 L 128,144 L 128,147 L 127,148 L 126,148 L 126,151 L 125,152 L 125,153 L 124,154 L 124,155 L 123,156 L 123,157 L 122,158 L 122,161 L 121,162 L 121,163 L 120,164 L 120,167 L 119,168 L 119,173 L 118,174 L 118,175 L 119,176 L 119,179 L 120,180 L 120,182 L 119,183 L 119,184 L 120,185 L 120,189 L 122,191 L 122,193 L 124,195 L 124,197 L 132,205 L 134,205 L 135,206 L 137,206 L 138,207 L 141,207 L 142,208 L 150,208 L 151,207 L 155,207 L 156,206 L 157,206 L 158,205 L 159,205 L 161,203 L 162,203 L 164,201 L 166,201 L 171,206 L 172,206 L 173,207 L 182,207 L 184,205 L 185,205 L 187,203 L 187,200 L 188,199 L 188,198 L 189,197 L 189,194 L 188,193 L 188,192 L 187,191 L 187,190 L 185,188 L 184,188 L 183,187 L 183,186 L 176,186 L 175,187 L 173,187 L 172,186 L 171,186 L 170,185 L 170,176 L 169,175 L 169,172 L 168,171 L 168,168 L 167,167 L 167,162 L 165,160 L 165,158 L 164,157 L 164,155 L 163,154 L 163,151 L 161,149 L 161,145 L 160,144 L 160,142 L 159,141 L 159,134 L 158,133 L 158,128 L 157,127 L 157,114 L 158,113 L 158,110 L 159,109 L 159,104 L 160,103 L 160,102 L 161,101 L 161,98 L 162,97 L 162,96 L 163,95 L 163,93 L 165,91 L 165,89 L 167,87 L 167,84 L 168,83 L 168,82 L 169,81 L 169,78 L 170,77 L 170,76 L 171,75 L 171,73 L 173,71 L 173,68 L 174,67 L 174,66 L 175,65 L 179,65 L 180,66 L 181,66 L 182,67 L 183,67 L 185,69 L 186,68 L 187,68 L 188,69 L 189,69 L 190,68 L 191,68 L 192,67 L 194,67 L 196,65 L 196,64 L 197,63 L 197,62 L 198,61 L 198,55 L 197,54 L 197,52 L 193,48 L 190,48 L 189,47 L 188,47 L 187,48 L 181,48 L 179,46 L 179,40 L 178,39 L 178,38 L 177,37 L 177,36 L 176,35 L 176,34 L 175,33 L 175,32 L 172,29 L 171,29 L 168,26 L 167,26 L 166,25 L 164,25 L 163,24 L 162,24 L 161,23 L 158,23 L 157,22 L 152,22 L 151,21 L 150,21 L 149,20 Z" fill="black" /><path d="M 0,0 L 0,221 L 260,221 L 260,0 Z" fill="none" stroke="black" stroke-width="1" /></svg>