<?xml version='1.0' encoding='utf-8'?>
<svg width="256" height="221" xmlns="http://www.w3.org/2000/svg" viewBox="0 0 256 221"><rect width="256" height="221" fill="white" /><path d="M 99,30 L 98,31 L 96,31 L 91,36 L 91,44 L 90,45 L 84,45 L 83,44 L 82,44 L 81,43 L 69,43 L 68,42 L 67,42 L 66,43 L 61,43 L 60,44 L 59,44 L 58,45 L 52,45 L 50,47 L 49,47 L 47,49 L 46,49 L 42,53 L 41,53 L 41,54 L 40,55 L 39,55 L 39,56 L 35,60 L 35,61 L 33,63 L 33,64 L 32,65 L 32,66 L 31,67 L 31,68 L 30,69 L 30,70 L 29,71 L 29,79 L 30,80 L 30,82 L 31,83 L 31,86 L 32,87 L 32,88 L 33,89 L 33,90 L 34,91 L 34,92 L 37,95 L 37,96 L 38,96 L 39,97 L 39,98 L 40,98 L 43,101 L 43,102 L 44,102 L 45,103 L 45,104 L 46,104 L 49,107 L 50,107 L 51,108 L 52,108 L 55,111 L 56,111 L 57,112 L 58,112 L 60,114 L 62,114 L 63,115 L 64,115 L 65,116 L 69,116 L 70,117 L 73,117 L 74,118 L 76,118 L 77,119 L 78,119 L 79,120 L 84,120 L 85,121 L 86,121 L 87,122 L 90,122 L 91,123 L 92,123 L 93,124 L 97,124 L 98,125 L 100,125 L 101,126 L 104,126 L 105,127 L 107,127 L 108,128 L 112,128 L 113,129 L 114,129 L 115,130 L 117,130 L 119,132 L 121,132 L 123,134 L 124,134 L 127,137 L 127,138 L 129,140 L 129,141 L 130,141 L 131,142 L 131,143 L 133,145 L 133,146 L 135,148 L 135,150 L 136,150 L 139,153 L 139,154 L 142,157 L 142,158 L 143,159 L 143,162 L 145,164 L 145,166 L 147,168 L 147,169 L 149,171 L 149,173 L 151,175 L 151,176 L 153,178 L 153,179 L 155,181 L 155,186 L 154,187 L 152,187 L 151,188 L 150,188 L 148,190 L 148,191 L 147,192 L 147,195 L 146,196 L 147,197 L 147,201 L 148,202 L 148,203 L 149,204 L 150,204 L 151,205 L 151,206 L 152,206 L 153,207 L 160,207 L 161,206 L 163,206 L 164,205 L 164,204 L 166,202 L 166,201 L 168,199 L 168,192 L 169,191 L 171,191 L 172,192 L 190,192 L 191,191 L 192,191 L 193,190 L 195,190 L 197,188 L 200,188 L 202,186 L 203,186 L 207,182 L 208,182 L 208,181 L 209,180 L 210,180 L 210,179 L 211,178 L 212,178 L 212,177 L 215,174 L 215,173 L 216,172 L 216,171 L 218,169 L 218,167 L 219,166 L 219,165 L 220,164 L 220,163 L 219,162 L 219,161 L 220,160 L 220,146 L 218,144 L 218,143 L 216,141 L 216,139 L 215,138 L 215,137 L 210,132 L 209,132 L 208,131 L 207,131 L 205,129 L 204,129 L 202,127 L 199,127 L 198,126 L 197,126 L 196,125 L 195,125 L 194,124 L 193,124 L 192,123 L 188,123 L 187,122 L 184,122 L 183,121 L 181,121 L 180,120 L 178,120 L 177,119 L 173,119 L 172,118 L 170,118 L 169,117 L 163,117 L 161,115 L 158,115 L 157,114 L 155,114 L 154,113 L 147,113 L 146,112 L 146,111 L 144,111 L 143,110 L 142,110 L 140,108 L 140,107 L 138,107 L 134,103 L 134,102 L 133,101 L 132,101 L 131,100 L 131,99 L 130,98 L 130,97 L 128,95 L 128,94 L 126,92 L 126,90 L 124,88 L 124,87 L 123,86 L 123,85 L 122,84 L 122,83 L 121,82 L 121,81 L 120,80 L 120,76 L 118,74 L 118,71 L 117,71 L 116,70 L 116,69 L 115,68 L 115,67 L 114,66 L 114,65 L 112,63 L 112,62 L 110,60 L 110,59 L 109,58 L 109,57 L 108,56 L 107,56 L 105,54 L 105,51 L 111,45 L 111,39 L 110,38 L 110,36 L 108,34 L 108,33 L 106,31 L 103,31 L 102,30 Z" fill="black" /><path d="M 0,0 L 0,220 L 255,220 L 255,0 Z" fill="none" stroke="black" stroke-width="1" /></svg>