<?xml version='1.0' encoding='utf-8'?>
<svg width="260" height="220" xmlns="http://www.w3.org/2000/svg" viewBox="0 0 260 220"><rect width="260" height="220" fill="white" /><path d="M 166,6 L 165,7 L 164,7 L 163,8 L 158,8 L 157,9 L 156,9 L 153,12 L 152,12 L 152,13 L 151,14 L 150,14 L 149,15 L 148,15 L 148,16 L 146,18 L 146,19 L 145,20 L 144,20 L 144,21 L 143,22 L 143,23 L 142,24 L 142,25 L 140,27 L 140,28 L 138,30 L 138,31 L 137,32 L 137,33 L 136,34 L 136,36 L 135,37 L 135,38 L 134,39 L 134,41 L 133,42 L 133,43 L 132,44 L 132,46 L 131,47 L 131,50 L 130,51 L 130,57 L 129,58 L 129,61 L 128,62 L 128,67 L 127,68 L 127,69 L 126,70 L 126,73 L 125,74 L 125,75 L 124,76 L 124,79 L 122,81 L 122,82 L 118,86 L 117,86 L 116,87 L 112,87 L 111,86 L 107,86 L 106,87 L 105,87 L 103,85 L 102,85 L 101,84 L 100,84 L 97,81 L 97,80 L 96,80 L 95,79 L 95,78 L 93,78 L 92,77 L 92,76 L 88,72 L 87,72 L 85,70 L 84,70 L 82,68 L 81,68 L 80,67 L 79,67 L 78,66 L 74,66 L 73,65 L 73,64 L 69,64 L 68,63 L 66,63 L 65,62 L 62,62 L 61,63 L 58,63 L 57,64 L 55,64 L 53,66 L 51,66 L 50,67 L 49,67 L 48,68 L 47,68 L 43,72 L 42,72 L 41,73 L 40,73 L 37,76 L 36,76 L 36,77 L 35,78 L 34,78 L 34,79 L 33,80 L 32,80 L 29,83 L 26,80 L 26,78 L 25,77 L 25,76 L 22,73 L 22,72 L 20,72 L 19,71 L 18,71 L 17,70 L 15,70 L 13,72 L 9,72 L 8,73 L 8,74 L 6,76 L 6,79 L 5,80 L 5,81 L 4,82 L 4,83 L 5,84 L 5,85 L 6,86 L 6,88 L 9,91 L 10,91 L 12,93 L 19,93 L 20,94 L 20,98 L 19,99 L 19,101 L 18,102 L 18,107 L 17,108 L 17,109 L 16,110 L 16,117 L 17,118 L 17,120 L 18,121 L 18,125 L 19,126 L 19,127 L 20,128 L 20,129 L 22,131 L 22,133 L 26,137 L 26,138 L 28,140 L 28,141 L 29,141 L 32,144 L 32,145 L 33,145 L 34,146 L 34,147 L 35,148 L 35,149 L 37,151 L 38,151 L 46,159 L 47,159 L 49,161 L 50,161 L 51,162 L 51,163 L 52,163 L 54,165 L 55,165 L 64,174 L 64,175 L 65,176 L 65,177 L 66,178 L 66,179 L 68,181 L 68,183 L 70,185 L 70,186 L 72,188 L 72,189 L 73,190 L 73,191 L 78,196 L 78,197 L 79,197 L 80,198 L 80,199 L 81,199 L 84,202 L 85,202 L 86,203 L 87,203 L 89,205 L 92,205 L 93,206 L 97,206 L 98,207 L 103,207 L 104,208 L 108,208 L 109,207 L 115,207 L 117,205 L 119,205 L 120,204 L 121,204 L 122,203 L 123,203 L 123,202 L 126,199 L 127,199 L 129,197 L 129,196 L 130,195 L 131,195 L 131,194 L 134,191 L 134,190 L 135,189 L 135,187 L 137,185 L 137,184 L 138,183 L 138,182 L 139,181 L 139,176 L 140,175 L 140,174 L 141,173 L 141,171 L 143,169 L 143,163 L 144,162 L 144,158 L 145,157 L 145,150 L 146,149 L 146,148 L 147,147 L 147,143 L 149,141 L 149,140 L 151,138 L 151,137 L 153,135 L 155,135 L 155,134 L 156,133 L 158,133 L 160,131 L 163,131 L 164,130 L 165,130 L 166,129 L 173,129 L 174,128 L 187,128 L 188,129 L 213,129 L 215,127 L 224,127 L 226,129 L 225,130 L 225,131 L 224,132 L 224,135 L 225,136 L 225,137 L 226,138 L 226,139 L 231,144 L 232,144 L 233,145 L 236,145 L 237,144 L 239,144 L 240,143 L 242,143 L 244,141 L 244,140 L 245,139 L 245,138 L 247,136 L 247,132 L 246,131 L 246,129 L 245,128 L 245,126 L 243,124 L 242,124 L 241,123 L 236,123 L 235,122 L 234,122 L 232,120 L 233,119 L 233,118 L 234,117 L 234,116 L 235,115 L 235,99 L 238,96 L 239,96 L 246,89 L 246,88 L 247,87 L 247,86 L 248,85 L 248,84 L 249,83 L 249,74 L 248,73 L 248,72 L 247,71 L 247,68 L 246,67 L 246,66 L 245,65 L 245,64 L 244,63 L 244,62 L 241,59 L 241,58 L 240,58 L 239,57 L 239,56 L 229,46 L 229,45 L 225,41 L 225,40 L 224,40 L 223,39 L 223,38 L 222,38 L 219,35 L 219,34 L 206,21 L 206,20 L 205,19 L 202,19 L 201,18 L 201,17 L 198,14 L 197,14 L 195,12 L 193,12 L 191,10 L 188,10 L 186,8 L 182,8 L 181,7 L 178,7 L 177,6 Z" fill="black" /><path d="M 0,0 L 0,219 L 259,219 L 259,0 Z" fill="none" stroke="black" stroke-width="1" /></svg>