<?xml version='1.0' encoding='utf-8'?>
<svg width="262" height="221" xmlns="http://www.w3.org/2000/svg" viewBox="0 0 262 221"><rect width="262" height="221" fill="white" /><path d="M 158,44 L 157,45 L 154,45 L 153,46 L 148,46 L 147,47 L 142,47 L 141,48 L 128,48 L 127,49 L 120,49 L 119,50 L 116,50 L 115,51 L 111,51 L 110,52 L 105,52 L 103,54 L 97,54 L 96,55 L 95,55 L 94,56 L 92,56 L 91,57 L 90,57 L 89,58 L 88,58 L 87,59 L 86,59 L 85,60 L 82,60 L 80,62 L 78,62 L 78,63 L 77,64 L 76,64 L 71,69 L 70,69 L 69,70 L 66,70 L 66,71 L 65,72 L 63,72 L 63,73 L 60,76 L 59,76 L 58,77 L 57,77 L 56,78 L 55,78 L 50,83 L 50,85 L 47,88 L 46,88 L 46,89 L 45,90 L 44,90 L 44,91 L 41,94 L 41,95 L 34,102 L 34,103 L 33,104 L 33,105 L 32,106 L 32,108 L 30,110 L 30,113 L 29,114 L 29,115 L 30,116 L 29,117 L 29,119 L 28,120 L 28,133 L 29,134 L 29,136 L 30,137 L 30,140 L 31,141 L 31,142 L 32,143 L 32,144 L 34,146 L 34,151 L 35,152 L 35,153 L 36,154 L 36,155 L 37,156 L 37,157 L 38,158 L 38,159 L 39,159 L 40,160 L 40,161 L 43,164 L 41,166 L 39,166 L 37,168 L 36,168 L 36,169 L 35,170 L 34,170 L 32,172 L 32,173 L 31,174 L 31,178 L 32,179 L 32,182 L 36,186 L 37,186 L 38,187 L 48,187 L 49,186 L 49,185 L 51,183 L 51,182 L 53,180 L 53,174 L 52,173 L 52,172 L 54,170 L 55,171 L 56,171 L 58,173 L 59,173 L 60,174 L 60,175 L 63,175 L 64,176 L 65,176 L 66,177 L 70,177 L 71,178 L 72,178 L 73,179 L 77,179 L 78,180 L 85,180 L 86,181 L 96,181 L 97,180 L 104,180 L 105,179 L 107,179 L 109,177 L 111,177 L 111,176 L 112,175 L 113,175 L 114,174 L 116,174 L 117,175 L 117,177 L 118,178 L 118,179 L 120,181 L 121,181 L 122,182 L 123,182 L 124,183 L 131,183 L 132,182 L 133,182 L 136,179 L 136,178 L 137,177 L 137,169 L 135,167 L 135,166 L 134,166 L 132,164 L 131,164 L 130,163 L 128,163 L 127,162 L 122,162 L 120,160 L 122,158 L 122,156 L 121,155 L 121,150 L 120,149 L 120,148 L 119,147 L 119,142 L 118,142 L 117,141 L 117,139 L 116,138 L 114,138 L 113,137 L 113,135 L 112,134 L 111,134 L 109,132 L 108,132 L 107,131 L 106,131 L 105,130 L 102,130 L 101,129 L 100,129 L 99,128 L 91,128 L 90,127 L 88,127 L 87,126 L 80,126 L 79,125 L 78,125 L 77,124 L 75,124 L 73,122 L 73,121 L 72,120 L 71,120 L 67,116 L 67,106 L 69,104 L 69,102 L 72,99 L 72,98 L 77,93 L 78,93 L 80,91 L 81,91 L 83,89 L 85,89 L 85,88 L 86,87 L 88,87 L 90,85 L 93,85 L 94,84 L 95,84 L 96,83 L 97,83 L 98,82 L 99,82 L 100,81 L 104,81 L 105,80 L 106,80 L 107,79 L 111,79 L 112,78 L 113,78 L 114,77 L 117,77 L 118,76 L 119,76 L 120,75 L 123,75 L 124,74 L 127,74 L 128,73 L 139,73 L 140,72 L 145,72 L 146,73 L 147,72 L 153,72 L 154,73 L 159,73 L 160,74 L 162,74 L 163,75 L 165,75 L 166,76 L 166,77 L 168,77 L 170,79 L 171,79 L 172,80 L 173,80 L 174,81 L 175,81 L 178,84 L 178,85 L 179,86 L 179,87 L 178,88 L 178,92 L 176,94 L 176,95 L 175,96 L 175,97 L 174,98 L 174,99 L 173,100 L 173,101 L 172,102 L 172,103 L 171,104 L 170,104 L 168,106 L 168,107 L 167,108 L 167,109 L 166,110 L 165,110 L 163,112 L 162,112 L 162,113 L 160,115 L 160,116 L 158,118 L 158,119 L 157,120 L 156,120 L 156,123 L 155,124 L 155,125 L 154,126 L 154,129 L 153,130 L 153,137 L 152,138 L 152,141 L 153,142 L 153,143 L 154,144 L 154,147 L 155,148 L 155,149 L 156,150 L 156,152 L 158,154 L 158,155 L 160,157 L 160,158 L 163,161 L 164,161 L 166,163 L 167,163 L 168,164 L 168,165 L 169,165 L 171,167 L 173,167 L 174,168 L 175,168 L 176,169 L 180,169 L 181,170 L 189,170 L 190,169 L 195,169 L 196,168 L 197,168 L 198,167 L 202,167 L 203,166 L 204,166 L 205,165 L 207,165 L 209,163 L 211,163 L 213,161 L 214,161 L 216,159 L 217,159 L 217,158 L 218,157 L 219,157 L 220,156 L 221,156 L 231,146 L 231,145 L 232,144 L 233,144 L 234,143 L 234,142 L 235,141 L 235,140 L 236,139 L 237,139 L 237,138 L 238,137 L 238,136 L 241,133 L 241,131 L 243,129 L 243,128 L 244,127 L 244,126 L 245,125 L 245,122 L 246,121 L 246,120 L 247,119 L 247,111 L 248,110 L 248,109 L 249,108 L 249,104 L 248,103 L 248,95 L 247,94 L 247,91 L 246,90 L 246,88 L 245,87 L 245,85 L 243,83 L 243,81 L 241,79 L 241,78 L 239,76 L 239,74 L 238,73 L 237,73 L 235,71 L 235,68 L 234,68 L 232,66 L 230,66 L 229,65 L 229,64 L 228,64 L 227,63 L 226,63 L 225,62 L 224,62 L 223,61 L 223,60 L 222,60 L 221,59 L 220,59 L 219,58 L 218,58 L 216,56 L 215,56 L 214,55 L 213,56 L 212,56 L 211,55 L 210,55 L 209,54 L 208,54 L 207,53 L 206,53 L 205,52 L 202,52 L 201,51 L 198,51 L 197,50 L 196,50 L 195,49 L 191,49 L 190,48 L 182,48 L 181,47 L 180,47 L 179,48 L 178,48 L 177,47 L 173,47 L 172,46 L 161,46 L 160,45 L 159,45 Z" fill="black" /><path d="M 0,0 L 0,220 L 261,220 L 261,0 Z" fill="none" stroke="black" stroke-width="1" /></svg>