<?xml version='1.0' encoding='utf-8'?>
<svg width="256" height="220" xmlns="http://www.w3.org/2000/svg" viewBox="0 0 256 220"><rect width="256" height="220" fill="white" /><path d="M 122,0 L 120,2 L 109,2 L 108,3 L 106,3 L 105,4 L 102,4 L 101,5 L 99,5 L 98,6 L 96,6 L 95,7 L 94,7 L 93,8 L 89,8 L 88,9 L 87,9 L 86,10 L 84,10 L 82,12 L 80,12 L 79,13 L 78,13 L 76,15 L 76,16 L 75,17 L 74,17 L 71,20 L 71,21 L 66,26 L 66,27 L 65,28 L 64,28 L 64,29 L 63,30 L 63,31 L 62,32 L 62,33 L 61,34 L 61,35 L 60,36 L 60,39 L 59,40 L 59,42 L 58,43 L 58,48 L 57,49 L 57,50 L 56,51 L 57,52 L 57,53 L 56,54 L 56,65 L 58,67 L 58,78 L 60,80 L 60,81 L 61,82 L 61,83 L 62,84 L 62,85 L 63,86 L 63,87 L 64,88 L 64,89 L 65,89 L 66,90 L 66,91 L 67,91 L 68,92 L 68,93 L 69,93 L 71,95 L 74,95 L 76,97 L 79,97 L 80,98 L 88,98 L 89,99 L 98,99 L 99,98 L 101,98 L 102,97 L 107,97 L 108,96 L 109,96 L 110,95 L 113,95 L 114,94 L 115,94 L 116,93 L 118,93 L 120,91 L 122,91 L 124,89 L 126,89 L 131,84 L 135,84 L 136,85 L 136,90 L 138,92 L 138,93 L 140,95 L 144,95 L 145,96 L 149,96 L 150,95 L 152,95 L 155,92 L 155,90 L 157,88 L 157,81 L 156,80 L 156,79 L 155,78 L 155,77 L 154,76 L 153,76 L 152,75 L 151,75 L 150,74 L 148,74 L 147,75 L 145,73 L 145,72 L 147,70 L 148,70 L 155,63 L 156,63 L 160,59 L 163,59 L 163,58 L 164,57 L 167,57 L 168,56 L 169,56 L 170,55 L 174,55 L 175,56 L 178,56 L 179,57 L 182,57 L 184,59 L 187,59 L 190,62 L 190,63 L 191,63 L 196,68 L 196,71 L 198,73 L 198,75 L 199,76 L 199,77 L 200,78 L 200,81 L 202,83 L 202,89 L 203,90 L 203,91 L 204,92 L 204,99 L 205,100 L 205,103 L 206,104 L 206,112 L 207,113 L 207,125 L 206,126 L 206,135 L 205,136 L 205,138 L 204,139 L 204,146 L 202,148 L 202,149 L 201,150 L 201,151 L 200,152 L 200,153 L 198,155 L 198,156 L 196,158 L 196,159 L 193,162 L 190,162 L 189,163 L 188,163 L 187,164 L 184,164 L 183,165 L 182,165 L 181,166 L 179,166 L 178,165 L 177,165 L 176,164 L 175,165 L 172,165 L 171,164 L 167,164 L 165,162 L 163,162 L 162,161 L 160,161 L 159,160 L 158,160 L 155,157 L 154,157 L 152,155 L 152,153 L 154,151 L 157,151 L 159,149 L 159,147 L 160,146 L 161,146 L 161,144 L 162,143 L 162,139 L 161,138 L 161,136 L 157,132 L 155,132 L 154,131 L 147,131 L 146,132 L 145,132 L 143,134 L 143,135 L 142,136 L 142,139 L 140,141 L 137,141 L 135,139 L 135,138 L 131,134 L 130,134 L 129,133 L 129,132 L 128,132 L 127,131 L 127,130 L 126,130 L 124,128 L 122,128 L 121,127 L 121,126 L 120,126 L 119,125 L 118,125 L 117,124 L 114,124 L 112,122 L 111,122 L 110,121 L 106,121 L 105,120 L 98,120 L 97,121 L 96,121 L 95,122 L 92,122 L 91,123 L 90,123 L 88,125 L 86,125 L 85,126 L 84,126 L 84,127 L 83,128 L 82,128 L 81,129 L 80,129 L 74,135 L 74,136 L 72,138 L 72,139 L 71,140 L 71,141 L 70,142 L 70,144 L 68,146 L 68,150 L 67,151 L 67,152 L 66,153 L 66,164 L 67,165 L 67,168 L 68,169 L 68,171 L 70,173 L 70,175 L 71,176 L 71,177 L 72,178 L 72,179 L 74,181 L 74,182 L 76,184 L 76,185 L 77,185 L 78,186 L 78,187 L 79,187 L 80,188 L 80,189 L 82,191 L 82,192 L 86,196 L 86,197 L 87,197 L 88,198 L 88,199 L 89,199 L 92,202 L 93,202 L 94,203 L 95,203 L 96,204 L 96,205 L 97,205 L 99,207 L 100,207 L 102,209 L 103,209 L 104,210 L 105,210 L 106,211 L 107,211 L 108,212 L 110,212 L 111,213 L 114,213 L 116,215 L 119,215 L 120,216 L 121,216 L 122,217 L 128,217 L 129,218 L 147,218 L 148,217 L 161,217 L 162,216 L 163,216 L 164,215 L 166,215 L 167,214 L 168,214 L 169,213 L 171,213 L 173,211 L 174,211 L 176,209 L 178,209 L 182,205 L 185,205 L 185,204 L 186,203 L 188,203 L 192,199 L 193,199 L 193,198 L 196,195 L 196,194 L 197,193 L 198,193 L 204,187 L 204,186 L 205,185 L 205,184 L 207,182 L 207,180 L 208,179 L 209,179 L 209,177 L 211,175 L 211,173 L 212,172 L 212,171 L 215,168 L 215,166 L 217,164 L 217,161 L 218,160 L 218,158 L 219,157 L 219,156 L 220,155 L 220,153 L 221,152 L 221,146 L 223,144 L 223,141 L 225,139 L 225,131 L 226,130 L 226,128 L 227,127 L 227,101 L 228,100 L 228,86 L 227,85 L 227,82 L 226,81 L 226,77 L 225,76 L 225,70 L 224,69 L 224,68 L 223,67 L 223,64 L 222,63 L 222,62 L 221,61 L 221,58 L 220,57 L 220,55 L 219,54 L 219,53 L 218,52 L 218,51 L 217,50 L 217,48 L 215,46 L 215,44 L 213,42 L 213,41 L 212,40 L 212,39 L 211,38 L 211,36 L 209,34 L 209,33 L 207,31 L 207,30 L 206,30 L 205,29 L 205,28 L 204,28 L 203,27 L 203,26 L 201,24 L 200,24 L 199,23 L 198,23 L 195,20 L 195,19 L 194,18 L 193,18 L 191,16 L 190,16 L 188,14 L 186,14 L 185,13 L 184,13 L 183,12 L 182,12 L 180,10 L 178,10 L 177,9 L 176,9 L 175,8 L 172,8 L 171,7 L 170,7 L 169,6 L 163,6 L 162,5 L 161,5 L 160,4 L 158,4 L 157,3 L 152,3 L 151,2 L 146,2 L 145,1 L 144,1 L 143,2 L 140,2 L 139,1 L 138,1 L 137,0 L 136,0 L 135,1 L 132,1 L 131,0 Z" fill="black" /><path d="M 150,136 L 149,137 L 148,137 L 148,138 L 147,139 L 147,140 L 146,141 L 146,142 L 143,145 L 142,145 L 148,151 L 148,150 L 151,147 L 152,147 L 153,146 L 154,146 L 154,145 L 156,143 L 156,139 L 154,137 L 152,137 L 151,136 Z" fill="none" stroke="black" stroke-width="1" /><path d="M 142,76 L 141,77 L 140,77 L 137,80 L 140,83 L 140,84 L 141,85 L 141,87 L 142,88 L 142,89 L 143,89 L 144,90 L 149,90 L 150,89 L 150,88 L 151,87 L 151,85 L 152,84 L 151,83 L 151,81 L 150,80 L 148,80 L 147,79 L 146,79 L 145,78 L 144,78 Z" fill="none" stroke="black" stroke-width="1" /><path d="M 122,7 L 121,8 L 114,8 L 113,9 L 112,9 L 111,10 L 104,10 L 103,11 L 102,11 L 101,12 L 97,12 L 96,13 L 94,13 L 93,14 L 91,14 L 89,16 L 87,16 L 85,18 L 84,18 L 83,19 L 82,19 L 81,20 L 80,20 L 78,22 L 78,23 L 77,24 L 76,24 L 76,25 L 75,26 L 74,26 L 74,27 L 73,28 L 72,28 L 70,30 L 70,31 L 69,32 L 69,33 L 68,34 L 68,36 L 66,38 L 66,41 L 65,42 L 65,45 L 64,46 L 64,51 L 63,52 L 63,64 L 64,65 L 64,72 L 65,73 L 65,75 L 66,76 L 66,79 L 67,79 L 68,80 L 68,82 L 70,84 L 70,85 L 71,86 L 71,87 L 72,87 L 74,89 L 76,89 L 78,91 L 80,91 L 81,92 L 85,92 L 86,93 L 93,93 L 94,92 L 97,92 L 98,91 L 99,91 L 100,92 L 104,92 L 105,91 L 106,91 L 107,90 L 108,90 L 110,88 L 111,88 L 112,87 L 113,87 L 114,86 L 117,86 L 118,85 L 119,85 L 121,83 L 122,83 L 126,79 L 128,79 L 130,77 L 131,77 L 131,76 L 132,75 L 133,75 L 135,73 L 136,73 L 146,63 L 147,63 L 150,60 L 151,60 L 153,58 L 153,57 L 155,55 L 157,55 L 159,53 L 160,53 L 161,52 L 163,52 L 164,51 L 169,51 L 171,49 L 175,49 L 176,50 L 177,50 L 178,51 L 185,51 L 187,53 L 189,53 L 190,54 L 190,55 L 191,55 L 192,56 L 193,56 L 194,57 L 194,58 L 195,59 L 196,59 L 199,62 L 199,63 L 200,63 L 201,64 L 201,65 L 202,66 L 202,67 L 203,68 L 203,69 L 204,70 L 204,73 L 206,75 L 206,77 L 207,78 L 207,79 L 208,80 L 208,87 L 209,87 L 210,88 L 210,94 L 212,96 L 212,105 L 213,106 L 213,113 L 214,114 L 214,130 L 213,131 L 213,132 L 212,133 L 212,139 L 211,140 L 211,143 L 210,144 L 210,149 L 208,151 L 208,154 L 206,156 L 206,157 L 205,158 L 204,158 L 204,159 L 203,160 L 203,161 L 202,162 L 201,162 L 195,168 L 193,168 L 191,170 L 188,170 L 187,171 L 186,171 L 185,172 L 178,172 L 177,171 L 176,171 L 175,170 L 174,170 L 173,171 L 168,171 L 167,170 L 164,170 L 163,169 L 162,169 L 161,168 L 158,168 L 157,167 L 157,166 L 155,166 L 153,164 L 152,164 L 146,158 L 145,158 L 143,156 L 143,155 L 138,150 L 137,150 L 136,149 L 136,148 L 129,141 L 128,141 L 125,138 L 124,138 L 123,137 L 123,136 L 122,136 L 118,132 L 116,132 L 114,130 L 112,130 L 111,129 L 110,129 L 109,128 L 106,128 L 105,127 L 103,127 L 102,126 L 101,127 L 98,127 L 97,128 L 94,128 L 92,130 L 91,130 L 89,132 L 88,132 L 85,135 L 84,135 L 78,141 L 78,142 L 76,144 L 76,146 L 75,147 L 75,148 L 74,149 L 74,153 L 73,154 L 73,159 L 74,160 L 74,168 L 76,170 L 76,171 L 78,173 L 78,175 L 80,177 L 80,178 L 82,180 L 82,181 L 83,181 L 84,182 L 84,184 L 86,186 L 86,187 L 87,187 L 90,190 L 90,191 L 92,193 L 93,193 L 94,194 L 94,195 L 96,197 L 97,197 L 100,200 L 101,200 L 103,202 L 105,202 L 106,203 L 107,203 L 108,204 L 109,204 L 110,205 L 111,205 L 112,206 L 113,206 L 114,207 L 115,207 L 117,209 L 125,209 L 126,210 L 126,211 L 139,211 L 140,212 L 141,212 L 142,211 L 150,211 L 151,210 L 155,210 L 156,209 L 163,209 L 165,207 L 167,207 L 168,206 L 169,206 L 170,205 L 171,205 L 173,203 L 174,203 L 176,201 L 178,201 L 180,199 L 181,199 L 181,198 L 182,197 L 183,197 L 185,195 L 187,195 L 189,193 L 189,192 L 196,185 L 197,185 L 199,183 L 199,182 L 200,181 L 200,180 L 201,179 L 201,178 L 203,176 L 203,175 L 205,173 L 205,172 L 206,171 L 206,170 L 207,169 L 207,168 L 208,167 L 208,166 L 209,165 L 209,162 L 210,161 L 210,160 L 211,159 L 211,157 L 213,155 L 213,151 L 214,150 L 214,149 L 215,148 L 215,144 L 216,143 L 216,142 L 217,141 L 217,138 L 218,137 L 218,134 L 219,133 L 219,125 L 220,124 L 220,117 L 221,116 L 221,112 L 220,111 L 220,110 L 221,109 L 221,106 L 220,105 L 220,98 L 222,96 L 222,94 L 221,93 L 221,84 L 220,83 L 220,80 L 219,79 L 219,74 L 218,73 L 218,72 L 217,71 L 217,66 L 216,65 L 216,64 L 215,63 L 215,61 L 214,60 L 214,58 L 213,57 L 213,55 L 212,54 L 212,53 L 211,52 L 211,50 L 209,48 L 209,47 L 207,45 L 207,43 L 205,41 L 205,40 L 203,38 L 203,36 L 192,25 L 191,25 L 190,24 L 189,24 L 187,22 L 186,22 L 184,20 L 183,20 L 181,18 L 178,18 L 177,17 L 176,17 L 175,16 L 174,16 L 173,15 L 172,15 L 171,14 L 169,14 L 168,13 L 166,13 L 165,12 L 162,12 L 161,11 L 160,11 L 159,10 L 152,10 L 151,9 L 150,9 L 149,8 L 138,8 L 137,7 Z" fill="none" stroke="black" stroke-width="1" /><circle cx="127" cy="109" r="168" fill="none" stroke="black" stroke-width="1" /></svg>