<?xml version='1.0' encoding='utf-8'?>
<svg width="260" height="220" xmlns="http://www.w3.org/2000/svg" viewBox="0 0 260 220"><rect width="260" height="220" fill="white" /><path d="M 225,14 L 224,15 L 224,16 L 223,17 L 223,18 L 222,19 L 222,29 L 221,30 L 216,30 L 215,29 L 214,29 L 213,28 L 212,28 L 211,27 L 211,26 L 208,26 L 206,24 L 200,24 L 199,23 L 199,22 L 192,22 L 191,21 L 189,21 L 188,20 L 177,20 L 176,19 L 173,19 L 172,18 L 166,18 L 165,17 L 155,17 L 154,16 L 122,16 L 121,15 L 120,15 L 119,16 L 111,16 L 110,17 L 107,17 L 106,18 L 103,18 L 102,19 L 100,19 L 99,20 L 98,20 L 97,21 L 96,21 L 95,22 L 94,22 L 93,23 L 90,23 L 89,24 L 88,24 L 87,25 L 86,25 L 84,27 L 83,27 L 82,28 L 80,28 L 78,30 L 77,30 L 75,32 L 74,32 L 73,33 L 72,33 L 71,34 L 70,34 L 70,35 L 67,38 L 66,38 L 65,39 L 64,39 L 61,42 L 61,43 L 58,46 L 58,47 L 57,48 L 56,48 L 56,49 L 53,52 L 53,53 L 52,54 L 52,55 L 50,57 L 50,58 L 48,60 L 48,61 L 47,62 L 47,63 L 46,64 L 46,65 L 45,66 L 45,67 L 44,68 L 42,68 L 40,66 L 38,66 L 37,65 L 31,65 L 30,66 L 29,66 L 27,68 L 27,69 L 26,70 L 26,71 L 25,72 L 25,73 L 24,74 L 24,78 L 25,79 L 25,81 L 26,82 L 26,83 L 28,85 L 29,85 L 30,86 L 32,86 L 33,87 L 37,87 L 39,85 L 41,85 L 43,87 L 43,91 L 42,92 L 42,97 L 43,98 L 43,106 L 44,107 L 44,111 L 45,112 L 45,115 L 46,116 L 46,118 L 48,120 L 48,123 L 50,125 L 51,125 L 52,126 L 52,128 L 54,130 L 54,131 L 55,131 L 56,132 L 56,133 L 57,133 L 60,136 L 61,136 L 62,137 L 64,137 L 66,139 L 67,139 L 68,140 L 69,140 L 70,141 L 87,141 L 88,140 L 89,140 L 90,139 L 93,139 L 94,138 L 95,138 L 96,137 L 98,137 L 100,135 L 101,135 L 102,134 L 103,134 L 104,133 L 106,133 L 108,131 L 111,131 L 112,130 L 113,130 L 114,129 L 119,129 L 121,131 L 123,131 L 124,132 L 125,132 L 128,135 L 128,139 L 127,140 L 127,141 L 126,142 L 126,143 L 125,144 L 125,145 L 124,146 L 123,146 L 122,147 L 122,149 L 121,150 L 120,150 L 118,152 L 118,153 L 117,154 L 117,156 L 116,157 L 116,159 L 114,161 L 114,171 L 115,172 L 115,174 L 116,175 L 116,176 L 118,178 L 118,179 L 119,179 L 120,180 L 120,181 L 122,183 L 123,183 L 125,185 L 126,185 L 127,186 L 128,186 L 129,187 L 147,187 L 148,186 L 150,186 L 151,185 L 155,185 L 157,183 L 158,183 L 160,181 L 161,181 L 161,180 L 163,178 L 163,177 L 164,176 L 164,175 L 165,174 L 165,172 L 166,171 L 166,163 L 165,162 L 165,160 L 163,158 L 163,157 L 161,155 L 161,154 L 160,154 L 159,153 L 159,152 L 158,152 L 157,151 L 157,150 L 156,150 L 155,149 L 155,148 L 154,148 L 151,145 L 151,136 L 154,133 L 159,133 L 160,132 L 163,132 L 164,133 L 167,133 L 168,134 L 169,134 L 170,135 L 173,135 L 174,136 L 175,136 L 176,137 L 178,137 L 180,139 L 185,139 L 186,140 L 189,140 L 190,139 L 197,139 L 198,138 L 199,138 L 200,137 L 201,137 L 202,136 L 203,136 L 204,135 L 206,135 L 208,133 L 209,133 L 210,132 L 211,132 L 212,131 L 213,131 L 213,130 L 214,129 L 215,129 L 215,128 L 216,127 L 217,127 L 217,126 L 222,121 L 222,120 L 223,119 L 223,117 L 225,115 L 225,114 L 227,112 L 227,111 L 229,109 L 229,107 L 230,106 L 230,105 L 231,104 L 231,102 L 233,100 L 233,98 L 235,96 L 235,94 L 237,92 L 237,89 L 238,88 L 238,87 L 239,86 L 239,75 L 240,74 L 240,72 L 241,71 L 240,70 L 240,64 L 239,63 L 239,53 L 237,51 L 237,50 L 236,49 L 236,47 L 235,46 L 235,44 L 234,44 L 233,43 L 233,42 L 229,38 L 229,36 L 230,35 L 235,35 L 236,34 L 237,34 L 238,33 L 239,33 L 241,31 L 241,30 L 243,28 L 243,21 L 241,19 L 241,18 L 238,15 L 236,15 L 235,14 Z" fill="black" /><path d="M 0,0 L 0,219 L 259,219 L 259,0 Z" fill="none" stroke="black" stroke-width="1" /></svg>