<?xml version='1.0' encoding='utf-8'?>
<svg width="262" height="220" xmlns="http://www.w3.org/2000/svg" viewBox="0 0 262 220"><rect width="262" height="220" fill="white" /><path d="M 202,19 L 201,20 L 198,20 L 194,24 L 194,28 L 192,30 L 183,30 L 182,29 L 181,29 L 180,28 L 179,28 L 178,29 L 173,29 L 172,30 L 168,30 L 164,34 L 163,34 L 161,36 L 160,36 L 157,39 L 156,39 L 154,41 L 154,42 L 150,46 L 150,47 L 146,51 L 146,52 L 144,54 L 144,55 L 142,57 L 142,58 L 140,60 L 140,62 L 138,64 L 138,66 L 137,67 L 137,68 L 136,69 L 136,71 L 135,72 L 135,73 L 132,76 L 132,77 L 128,81 L 128,82 L 126,84 L 126,85 L 125,86 L 124,86 L 122,88 L 120,88 L 116,92 L 115,92 L 113,94 L 111,94 L 111,95 L 110,96 L 109,96 L 108,97 L 107,97 L 105,99 L 104,99 L 103,100 L 102,100 L 102,101 L 101,102 L 95,102 L 94,103 L 89,103 L 88,104 L 85,104 L 84,103 L 82,103 L 81,104 L 69,104 L 68,105 L 63,105 L 62,106 L 55,106 L 53,108 L 51,108 L 49,110 L 48,110 L 47,111 L 46,111 L 43,114 L 40,114 L 37,117 L 36,117 L 36,119 L 35,120 L 34,120 L 32,122 L 32,123 L 28,127 L 28,130 L 26,132 L 26,133 L 25,134 L 25,135 L 24,136 L 24,145 L 23,146 L 23,147 L 24,148 L 24,155 L 25,156 L 25,157 L 26,158 L 26,159 L 28,161 L 28,163 L 29,163 L 30,164 L 30,165 L 33,168 L 33,169 L 34,170 L 34,171 L 35,171 L 36,172 L 36,173 L 42,179 L 43,179 L 44,180 L 44,181 L 47,181 L 48,182 L 49,182 L 50,183 L 51,183 L 52,184 L 53,184 L 54,185 L 59,185 L 60,186 L 63,186 L 64,185 L 69,185 L 70,184 L 71,184 L 72,183 L 75,183 L 76,182 L 77,182 L 78,181 L 80,181 L 82,179 L 83,179 L 85,177 L 86,177 L 88,175 L 90,175 L 99,166 L 99,165 L 101,163 L 101,162 L 102,161 L 102,160 L 103,159 L 103,158 L 105,156 L 105,155 L 107,153 L 107,151 L 109,149 L 109,148 L 110,147 L 110,146 L 112,144 L 112,143 L 113,142 L 113,140 L 114,139 L 115,139 L 115,138 L 116,137 L 116,136 L 117,135 L 117,134 L 118,133 L 119,133 L 119,131 L 128,122 L 129,122 L 132,119 L 133,119 L 134,118 L 135,118 L 140,113 L 141,113 L 142,112 L 143,112 L 146,109 L 147,109 L 148,108 L 149,108 L 150,107 L 151,107 L 152,106 L 153,106 L 154,105 L 155,105 L 155,104 L 156,103 L 158,103 L 160,101 L 162,101 L 164,99 L 166,99 L 168,97 L 169,97 L 170,96 L 171,96 L 172,95 L 175,95 L 177,93 L 179,93 L 180,92 L 181,92 L 182,91 L 185,91 L 186,90 L 189,90 L 190,91 L 190,98 L 192,100 L 192,101 L 193,101 L 194,102 L 194,103 L 195,103 L 196,104 L 197,104 L 198,105 L 203,105 L 205,103 L 206,103 L 209,100 L 209,98 L 210,97 L 210,90 L 209,89 L 209,88 L 208,87 L 208,86 L 206,84 L 205,84 L 204,83 L 202,83 L 201,82 L 201,81 L 200,80 L 203,77 L 203,76 L 205,74 L 205,72 L 206,71 L 205,70 L 205,66 L 206,65 L 206,64 L 207,63 L 207,50 L 205,48 L 205,47 L 203,45 L 203,41 L 204,40 L 205,40 L 206,39 L 209,39 L 210,38 L 211,38 L 215,34 L 215,32 L 216,31 L 216,29 L 215,28 L 215,27 L 213,25 L 213,24 L 212,24 L 211,23 L 211,22 L 210,22 L 209,21 L 208,21 L 207,20 L 203,20 Z" fill="black" /><path d="M 0,0 L 0,219 L 261,219 L 261,0 Z" fill="none" stroke="black" stroke-width="1" /></svg>