<?xml version='1.0' encoding='utf-8'?>
<svg width="260" height="223" xmlns="http://www.w3.org/2000/svg" viewBox="0 0 260 223"><rect width="260" height="223" fill="white" /><path d="M 143,20 L 142,21 L 132,21 L 131,22 L 121,22 L 120,23 L 119,23 L 118,24 L 117,23 L 111,23 L 110,24 L 106,24 L 106,25 L 105,26 L 99,26 L 97,28 L 94,28 L 91,31 L 90,31 L 89,32 L 88,32 L 87,33 L 86,33 L 83,36 L 81,36 L 79,38 L 78,38 L 78,39 L 77,40 L 75,40 L 71,44 L 70,44 L 68,46 L 67,46 L 67,47 L 66,48 L 66,49 L 63,52 L 62,52 L 62,53 L 61,54 L 60,54 L 60,55 L 58,57 L 58,58 L 56,60 L 56,61 L 54,63 L 54,68 L 53,69 L 53,77 L 54,78 L 54,83 L 55,84 L 55,85 L 56,86 L 56,87 L 58,89 L 58,91 L 59,91 L 60,92 L 60,93 L 64,97 L 65,97 L 66,98 L 66,99 L 67,99 L 69,101 L 70,101 L 72,103 L 74,103 L 76,105 L 78,105 L 80,107 L 83,107 L 85,109 L 87,109 L 88,110 L 90,110 L 91,111 L 92,111 L 94,113 L 96,113 L 97,114 L 98,114 L 99,115 L 100,115 L 102,117 L 103,117 L 106,120 L 107,120 L 110,123 L 110,124 L 111,125 L 111,126 L 112,127 L 112,132 L 110,134 L 110,137 L 109,138 L 109,139 L 108,140 L 108,141 L 103,146 L 102,146 L 100,148 L 99,148 L 97,150 L 96,150 L 96,151 L 94,153 L 93,153 L 92,154 L 91,153 L 90,153 L 89,154 L 86,154 L 84,156 L 82,156 L 80,158 L 78,158 L 78,159 L 77,160 L 75,160 L 68,167 L 68,168 L 67,169 L 67,170 L 66,171 L 66,173 L 64,175 L 64,179 L 63,180 L 63,184 L 64,185 L 64,188 L 66,190 L 66,193 L 67,193 L 70,196 L 70,197 L 71,197 L 73,199 L 75,199 L 76,200 L 76,201 L 79,201 L 80,202 L 81,202 L 82,203 L 85,203 L 87,205 L 90,205 L 91,206 L 92,206 L 93,207 L 97,207 L 98,208 L 99,208 L 100,209 L 107,209 L 108,210 L 129,210 L 130,209 L 139,209 L 140,208 L 141,209 L 144,209 L 145,208 L 147,208 L 148,207 L 155,207 L 156,206 L 157,206 L 158,205 L 163,205 L 164,204 L 165,204 L 166,203 L 169,203 L 170,202 L 171,202 L 172,201 L 175,201 L 176,200 L 177,200 L 178,199 L 181,199 L 181,198 L 182,197 L 184,197 L 186,195 L 188,195 L 190,193 L 192,193 L 194,191 L 196,191 L 198,189 L 199,189 L 199,188 L 200,187 L 201,187 L 202,186 L 203,186 L 204,185 L 205,185 L 205,184 L 206,183 L 207,183 L 211,179 L 211,178 L 213,176 L 213,175 L 215,173 L 215,171 L 216,170 L 216,168 L 217,167 L 217,160 L 216,159 L 216,157 L 215,156 L 215,152 L 213,150 L 213,147 L 214,146 L 215,146 L 216,145 L 218,145 L 221,142 L 221,141 L 223,139 L 223,133 L 222,132 L 222,131 L 221,130 L 221,128 L 220,128 L 217,125 L 216,125 L 215,124 L 210,124 L 209,125 L 205,125 L 204,126 L 204,127 L 203,128 L 203,129 L 201,131 L 201,132 L 200,133 L 200,135 L 199,136 L 195,136 L 194,135 L 193,135 L 192,134 L 190,134 L 189,133 L 187,133 L 186,132 L 183,132 L 181,130 L 178,130 L 177,129 L 176,129 L 175,128 L 174,128 L 172,126 L 171,126 L 167,122 L 167,116 L 172,111 L 173,111 L 177,107 L 179,107 L 183,103 L 185,103 L 185,102 L 186,101 L 191,101 L 194,104 L 194,105 L 196,107 L 197,107 L 198,108 L 198,109 L 205,109 L 206,108 L 207,108 L 208,107 L 209,107 L 213,103 L 213,98 L 214,97 L 213,96 L 213,94 L 212,93 L 212,92 L 208,88 L 206,88 L 205,87 L 205,83 L 207,81 L 207,80 L 208,79 L 208,78 L 209,77 L 209,76 L 210,75 L 210,74 L 211,73 L 211,69 L 212,68 L 212,67 L 213,66 L 213,53 L 212,52 L 212,51 L 211,50 L 211,44 L 210,43 L 210,42 L 209,41 L 209,40 L 207,38 L 207,34 L 206,34 L 205,33 L 205,32 L 204,31 L 204,30 L 202,28 L 201,28 L 200,27 L 199,27 L 198,26 L 197,26 L 195,24 L 190,24 L 189,23 L 188,23 L 187,22 L 182,22 L 181,21 L 179,21 L 178,20 L 177,20 L 176,21 L 174,21 L 173,20 Z" fill="black" /><path d="M 0,0 L 0,222 L 259,222 L 259,0 Z" fill="none" stroke="black" stroke-width="1" /></svg>