<?xml version='1.0' encoding='utf-8'?>
<svg width="260" height="221" xmlns="http://www.w3.org/2000/svg" viewBox="0 0 260 221"><rect width="260" height="221" fill="white" /><path d="M 42,163 L 42,167 L 40,169 L 40,173 L 39,174 L 39,175 L 38,176 L 38,182 L 36,184 L 36,188 L 35,189 L 35,190 L 34,191 L 34,195 L 33,196 L 33,199 L 32,200 L 32,204 L 33,205 L 35,205 L 37,203 L 41,203 L 42,202 L 46,202 L 47,201 L 52,201 L 54,199 L 60,199 L 61,198 L 65,198 L 66,197 L 69,197 L 69,194 L 68,193 L 68,192 L 67,191 L 67,190 L 61,184 L 61,183 L 59,181 L 59,180 L 58,180 L 57,179 L 57,178 L 54,175 L 54,174 L 51,171 L 51,170 L 45,164 L 45,163 Z" fill="black" /><path d="M 150,78 L 150,79 L 149,80 L 149,85 L 148,86 L 148,91 L 147,92 L 147,95 L 146,96 L 146,101 L 145,102 L 145,103 L 144,104 L 144,110 L 142,112 L 142,117 L 141,118 L 141,123 L 140,124 L 140,129 L 139,130 L 139,133 L 138,134 L 138,139 L 137,140 L 137,142 L 136,143 L 136,148 L 135,149 L 135,151 L 134,152 L 134,157 L 133,158 L 133,161 L 132,162 L 132,168 L 131,169 L 131,171 L 130,172 L 130,177 L 129,178 L 129,180 L 130,181 L 134,181 L 135,180 L 137,180 L 138,179 L 144,179 L 145,178 L 147,178 L 148,177 L 156,177 L 157,176 L 160,176 L 161,175 L 166,175 L 167,174 L 169,174 L 170,173 L 177,173 L 178,172 L 179,172 L 180,171 L 188,171 L 189,170 L 191,170 L 192,169 L 199,169 L 200,168 L 201,168 L 202,167 L 208,167 L 209,166 L 211,166 L 212,165 L 215,165 L 216,164 L 221,164 L 222,163 L 228,163 L 229,162 L 232,162 L 233,161 L 239,161 L 240,160 L 241,160 L 242,159 L 245,159 L 246,158 L 246,157 L 243,154 L 242,154 L 241,153 L 241,152 L 240,152 L 239,151 L 239,150 L 238,150 L 237,149 L 237,148 L 236,148 L 235,147 L 234,147 L 229,142 L 228,142 L 227,141 L 227,140 L 226,140 L 224,138 L 223,138 L 219,134 L 218,134 L 217,133 L 217,132 L 216,132 L 215,131 L 215,130 L 214,130 L 213,129 L 212,129 L 209,126 L 208,126 L 207,125 L 207,124 L 206,124 L 205,123 L 205,122 L 204,122 L 201,119 L 200,119 L 195,114 L 194,114 L 193,113 L 193,112 L 191,110 L 189,110 L 185,106 L 184,106 L 183,105 L 183,104 L 182,104 L 181,103 L 181,102 L 180,102 L 176,98 L 175,98 L 171,94 L 170,94 L 165,89 L 164,89 L 163,88 L 162,88 L 158,84 L 157,84 L 155,82 L 154,82 L 153,81 L 153,78 Z" fill="black" /><path d="M 74,16 L 73,17 L 69,17 L 68,18 L 63,18 L 62,19 L 60,19 L 59,20 L 57,20 L 56,21 L 55,21 L 54,22 L 52,22 L 51,23 L 50,23 L 47,26 L 46,26 L 38,34 L 38,35 L 37,36 L 36,36 L 36,37 L 33,40 L 33,41 L 32,42 L 32,43 L 31,44 L 31,45 L 30,46 L 30,49 L 28,51 L 28,53 L 27,54 L 27,55 L 26,56 L 26,77 L 27,78 L 27,79 L 28,80 L 28,84 L 30,86 L 30,87 L 31,88 L 31,89 L 32,90 L 32,91 L 33,92 L 33,93 L 34,94 L 34,95 L 35,96 L 35,97 L 36,98 L 36,99 L 38,101 L 38,102 L 39,103 L 41,103 L 44,106 L 44,107 L 45,107 L 46,108 L 47,108 L 48,109 L 49,109 L 50,110 L 50,111 L 51,111 L 52,112 L 54,112 L 55,113 L 57,113 L 58,114 L 59,114 L 60,115 L 64,115 L 65,116 L 66,116 L 67,117 L 70,117 L 71,118 L 73,118 L 74,117 L 77,117 L 78,118 L 82,118 L 83,117 L 87,117 L 88,116 L 89,116 L 90,115 L 93,115 L 95,113 L 97,113 L 98,112 L 101,112 L 102,111 L 103,111 L 103,110 L 104,109 L 105,109 L 107,107 L 109,107 L 111,105 L 111,104 L 112,103 L 113,103 L 113,102 L 114,101 L 115,101 L 115,100 L 118,97 L 118,96 L 119,95 L 119,94 L 121,92 L 121,90 L 123,88 L 123,85 L 124,84 L 124,82 L 125,81 L 125,79 L 126,78 L 126,76 L 127,75 L 127,58 L 126,57 L 126,56 L 125,55 L 125,52 L 124,51 L 124,49 L 123,48 L 123,46 L 121,44 L 121,43 L 120,42 L 120,41 L 119,40 L 119,39 L 117,37 L 117,36 L 111,30 L 110,30 L 109,29 L 109,28 L 108,28 L 107,27 L 107,26 L 106,26 L 105,25 L 104,25 L 103,24 L 101,24 L 98,21 L 96,21 L 95,20 L 94,20 L 93,19 L 92,19 L 91,18 L 87,18 L 86,17 L 83,17 L 82,16 L 81,17 L 79,17 L 78,18 L 77,17 L 75,17 Z" fill="black" /><path d="M 208,11 L 207,12 L 207,14 L 206,15 L 206,18 L 205,19 L 205,21 L 204,22 L 204,25 L 202,27 L 202,30 L 201,31 L 201,33 L 200,34 L 200,37 L 199,38 L 199,41 L 198,42 L 198,43 L 197,44 L 197,48 L 200,48 L 201,47 L 202,47 L 203,46 L 207,46 L 208,47 L 209,46 L 217,46 L 218,45 L 234,45 L 234,44 L 235,43 L 231,39 L 231,38 L 230,38 L 229,37 L 229,35 L 225,31 L 225,30 L 223,28 L 223,27 L 221,25 L 221,24 L 220,24 L 219,23 L 219,22 L 217,20 L 217,19 L 213,15 L 213,14 L 210,11 Z" fill="black" /></svg>