<?xml version='1.0' encoding='utf-8'?>
<svg width="261" height="220" xmlns="http://www.w3.org/2000/svg" viewBox="0 0 261 220"><rect width="261" height="220" fill="white" /><path d="M 6,122 L 5,123 L 6,124 L 6,125 L 8,125 L 9,126 L 9,127 L 16,134 L 16,135 L 19,138 L 19,139 L 20,139 L 21,140 L 21,141 L 22,141 L 23,142 L 23,143 L 26,146 L 26,147 L 29,150 L 29,151 L 31,153 L 32,153 L 33,154 L 33,155 L 37,159 L 37,160 L 38,161 L 39,161 L 40,162 L 40,163 L 43,166 L 43,167 L 50,174 L 50,175 L 53,178 L 53,179 L 59,185 L 59,187 L 61,189 L 62,189 L 63,190 L 63,191 L 65,193 L 66,193 L 67,194 L 67,195 L 68,196 L 68,197 L 71,200 L 71,201 L 72,201 L 73,202 L 73,203 L 79,209 L 82,209 L 82,208 L 85,205 L 85,204 L 86,203 L 86,202 L 87,201 L 87,200 L 88,199 L 88,198 L 90,196 L 90,194 L 92,192 L 92,190 L 93,189 L 94,189 L 94,188 L 95,187 L 95,186 L 96,185 L 96,184 L 97,183 L 97,182 L 98,181 L 98,180 L 99,179 L 99,178 L 100,177 L 100,176 L 101,175 L 102,175 L 102,173 L 104,171 L 104,169 L 106,167 L 106,166 L 107,165 L 107,164 L 108,163 L 108,162 L 109,161 L 109,160 L 110,159 L 110,157 L 112,155 L 112,154 L 113,153 L 113,152 L 114,151 L 114,150 L 115,149 L 116,149 L 116,147 L 118,145 L 118,144 L 119,143 L 119,142 L 120,141 L 120,140 L 122,138 L 122,137 L 123,136 L 123,135 L 124,134 L 124,133 L 126,131 L 126,129 L 131,124 L 130,123 L 130,122 Z" fill="black" /><path d="M 201,89 L 200,90 L 193,90 L 192,91 L 189,91 L 188,92 L 186,92 L 184,94 L 181,94 L 180,95 L 180,97 L 179,98 L 178,97 L 177,97 L 176,98 L 175,98 L 171,102 L 170,102 L 165,107 L 165,108 L 161,112 L 161,113 L 160,114 L 160,115 L 159,116 L 159,117 L 157,119 L 157,121 L 156,122 L 156,125 L 155,126 L 155,131 L 154,132 L 154,133 L 153,134 L 153,141 L 154,142 L 154,145 L 155,146 L 155,152 L 156,153 L 156,155 L 157,156 L 157,159 L 159,161 L 159,162 L 160,163 L 160,164 L 161,165 L 161,166 L 163,168 L 163,169 L 164,169 L 165,170 L 165,171 L 166,171 L 169,174 L 169,175 L 173,179 L 174,179 L 176,181 L 177,181 L 179,183 L 182,183 L 184,185 L 186,185 L 188,187 L 193,187 L 194,188 L 197,188 L 198,189 L 209,189 L 210,188 L 214,188 L 215,187 L 218,187 L 219,186 L 220,186 L 221,185 L 224,185 L 225,184 L 226,184 L 227,183 L 228,183 L 229,182 L 230,182 L 231,181 L 232,181 L 234,179 L 235,179 L 235,178 L 238,175 L 239,175 L 240,174 L 240,173 L 244,169 L 244,168 L 246,166 L 246,165 L 248,163 L 248,162 L 250,160 L 250,158 L 251,157 L 251,155 L 252,154 L 252,150 L 253,149 L 253,145 L 254,144 L 254,133 L 253,132 L 253,129 L 252,128 L 252,125 L 251,124 L 251,123 L 250,122 L 250,120 L 249,119 L 249,118 L 248,117 L 248,116 L 247,115 L 247,114 L 246,113 L 246,112 L 244,110 L 244,109 L 237,102 L 236,102 L 232,98 L 231,98 L 230,97 L 229,97 L 226,94 L 222,94 L 220,92 L 217,92 L 216,91 L 216,90 L 206,90 L 205,89 Z" fill="black" /><path d="M 75,3 L 74,4 L 69,4 L 68,5 L 67,5 L 66,6 L 60,6 L 58,8 L 57,8 L 56,9 L 55,9 L 54,10 L 52,10 L 48,14 L 47,14 L 43,18 L 42,18 L 39,21 L 39,22 L 35,26 L 35,28 L 33,30 L 33,31 L 32,32 L 32,33 L 31,34 L 31,37 L 30,38 L 30,39 L 29,40 L 29,45 L 28,46 L 28,49 L 27,50 L 27,56 L 28,57 L 28,62 L 29,63 L 29,67 L 30,68 L 30,70 L 31,71 L 31,73 L 32,74 L 32,75 L 33,76 L 33,77 L 34,78 L 34,79 L 35,80 L 35,81 L 37,83 L 37,84 L 39,86 L 39,87 L 40,87 L 41,88 L 41,89 L 42,89 L 43,90 L 43,91 L 44,91 L 46,93 L 47,93 L 50,96 L 51,96 L 52,97 L 53,97 L 55,99 L 56,99 L 57,100 L 58,100 L 59,101 L 62,101 L 63,102 L 67,102 L 68,103 L 87,103 L 88,102 L 89,102 L 90,101 L 94,101 L 96,99 L 99,99 L 101,97 L 102,97 L 104,95 L 106,95 L 106,94 L 107,93 L 108,93 L 109,92 L 110,92 L 110,91 L 116,85 L 116,84 L 118,82 L 118,80 L 119,79 L 120,79 L 120,78 L 121,77 L 121,76 L 122,75 L 122,74 L 124,72 L 124,69 L 125,68 L 125,65 L 126,64 L 126,52 L 127,51 L 127,50 L 126,49 L 126,41 L 125,40 L 125,38 L 124,37 L 124,34 L 123,33 L 123,32 L 122,31 L 122,30 L 120,28 L 120,26 L 117,23 L 117,22 L 116,21 L 116,20 L 115,20 L 114,19 L 114,18 L 113,18 L 112,17 L 112,16 L 111,16 L 108,13 L 107,13 L 106,12 L 105,12 L 102,9 L 101,9 L 100,8 L 98,8 L 97,7 L 95,7 L 94,6 L 93,6 L 92,5 L 91,5 L 90,4 L 79,4 L 78,3 Z" fill="black" /></svg>