<?xml version='1.0' encoding='utf-8'?>
<svg width="262" height="218" xmlns="http://www.w3.org/2000/svg" viewBox="0 0 262 218"><rect width="262" height="218" fill="white" /><path d="M 83,94 L 82,95 L 77,95 L 76,96 L 71,96 L 70,97 L 67,97 L 66,98 L 64,98 L 62,100 L 59,100 L 58,101 L 57,101 L 53,105 L 52,105 L 49,108 L 48,108 L 48,109 L 47,110 L 46,110 L 46,111 L 45,112 L 44,112 L 44,114 L 43,115 L 42,115 L 42,116 L 41,117 L 41,118 L 39,120 L 39,121 L 38,122 L 38,125 L 36,127 L 36,129 L 34,131 L 34,134 L 33,135 L 33,141 L 32,142 L 32,146 L 33,147 L 33,153 L 34,154 L 34,159 L 36,161 L 36,165 L 37,165 L 38,166 L 38,169 L 39,169 L 40,170 L 40,171 L 42,173 L 42,175 L 43,175 L 44,176 L 44,177 L 52,185 L 53,185 L 55,187 L 56,187 L 57,188 L 58,188 L 59,189 L 60,189 L 61,190 L 63,190 L 64,191 L 67,191 L 68,192 L 69,192 L 70,193 L 73,193 L 74,194 L 77,194 L 78,195 L 87,195 L 88,194 L 93,194 L 94,193 L 97,193 L 98,192 L 99,192 L 100,191 L 101,191 L 102,190 L 103,190 L 104,189 L 105,189 L 107,187 L 109,187 L 109,186 L 110,185 L 111,185 L 113,183 L 114,183 L 122,175 L 122,174 L 123,173 L 123,172 L 124,171 L 124,170 L 125,169 L 125,168 L 127,166 L 127,165 L 128,164 L 128,163 L 129,162 L 129,160 L 130,159 L 130,158 L 131,157 L 131,150 L 132,149 L 132,142 L 133,141 L 133,139 L 132,138 L 132,136 L 131,135 L 131,130 L 130,129 L 130,128 L 129,127 L 129,126 L 128,125 L 128,123 L 127,122 L 127,120 L 126,119 L 126,118 L 123,115 L 123,114 L 119,110 L 119,109 L 118,108 L 117,108 L 114,105 L 113,105 L 112,104 L 111,104 L 109,102 L 108,102 L 107,101 L 107,100 L 105,100 L 103,98 L 100,98 L 99,97 L 96,97 L 95,96 L 92,96 L 91,95 L 87,95 L 86,94 Z" fill="black" /><path d="M 199,18 L 198,19 L 196,19 L 195,20 L 190,20 L 188,22 L 184,22 L 184,23 L 183,24 L 180,24 L 180,25 L 179,26 L 178,26 L 177,27 L 176,27 L 173,30 L 172,30 L 172,31 L 171,32 L 170,32 L 166,36 L 166,37 L 165,38 L 164,38 L 164,39 L 162,41 L 162,43 L 161,44 L 161,45 L 160,46 L 160,47 L 159,48 L 159,49 L 158,50 L 158,52 L 157,53 L 157,54 L 156,55 L 156,60 L 155,61 L 155,63 L 154,64 L 154,65 L 155,66 L 155,77 L 156,78 L 156,82 L 157,83 L 157,85 L 158,86 L 158,87 L 160,89 L 160,92 L 162,94 L 162,96 L 164,98 L 164,99 L 165,99 L 166,100 L 166,101 L 168,103 L 169,103 L 170,104 L 170,105 L 171,105 L 174,108 L 174,109 L 176,109 L 178,111 L 180,111 L 182,113 L 183,113 L 184,114 L 184,115 L 188,115 L 189,116 L 191,116 L 192,117 L 199,117 L 200,118 L 204,118 L 205,117 L 217,117 L 219,115 L 222,115 L 224,113 L 227,113 L 229,111 L 231,111 L 231,110 L 232,109 L 233,109 L 234,108 L 235,108 L 238,105 L 239,105 L 239,104 L 240,103 L 241,103 L 243,101 L 243,100 L 246,97 L 246,96 L 247,95 L 247,94 L 249,92 L 249,91 L 250,90 L 250,89 L 251,88 L 251,85 L 252,84 L 252,82 L 253,81 L 253,78 L 254,77 L 254,60 L 253,59 L 253,55 L 252,54 L 252,53 L 251,52 L 251,50 L 250,49 L 250,48 L 249,47 L 249,44 L 248,43 L 248,42 L 245,39 L 245,38 L 243,36 L 242,36 L 241,35 L 241,34 L 240,33 L 240,32 L 239,32 L 237,30 L 236,30 L 235,29 L 235,28 L 233,26 L 231,26 L 229,24 L 228,24 L 226,22 L 222,22 L 221,21 L 220,21 L 219,20 L 214,20 L 212,18 Z" fill="black" /></svg>