<?xml version='1.0' encoding='utf-8'?>
<svg width="262" height="219" xmlns="http://www.w3.org/2000/svg" viewBox="0 0 262 219"><rect width="262" height="219" fill="white" /><path d="M 171,57 L 169,59 L 169,61 L 168,62 L 168,63 L 167,64 L 167,65 L 166,66 L 166,69 L 164,71 L 164,73 L 163,74 L 163,75 L 162,76 L 162,77 L 161,78 L 161,79 L 160,80 L 160,83 L 159,84 L 158,84 L 158,85 L 157,86 L 157,87 L 156,88 L 156,90 L 155,91 L 155,92 L 154,93 L 154,95 L 152,97 L 152,101 L 150,103 L 150,105 L 148,107 L 148,109 L 146,111 L 146,114 L 144,116 L 144,118 L 143,119 L 143,120 L 142,121 L 142,122 L 140,124 L 140,127 L 139,128 L 139,129 L 138,130 L 138,131 L 137,132 L 136,132 L 136,136 L 134,138 L 134,141 L 133,142 L 132,142 L 132,143 L 131,144 L 131,145 L 130,146 L 130,148 L 129,149 L 129,150 L 128,151 L 128,152 L 127,153 L 127,154 L 126,155 L 126,157 L 125,158 L 125,160 L 124,161 L 124,166 L 127,166 L 128,167 L 130,167 L 131,168 L 132,168 L 133,169 L 139,169 L 140,170 L 142,170 L 143,171 L 147,171 L 148,172 L 149,172 L 150,173 L 157,173 L 158,174 L 159,174 L 160,175 L 164,175 L 165,176 L 168,176 L 169,177 L 175,177 L 176,178 L 177,178 L 178,179 L 186,179 L 187,180 L 190,180 L 191,181 L 195,181 L 196,182 L 198,182 L 199,183 L 201,183 L 202,184 L 205,184 L 206,185 L 213,185 L 214,186 L 216,186 L 217,187 L 223,187 L 224,188 L 225,188 L 226,189 L 231,189 L 232,190 L 235,190 L 236,191 L 241,191 L 243,193 L 248,193 L 249,192 L 249,189 L 247,187 L 247,185 L 245,183 L 245,182 L 244,181 L 244,180 L 243,179 L 243,178 L 241,176 L 241,174 L 240,174 L 239,173 L 239,171 L 237,169 L 237,168 L 235,166 L 235,164 L 233,162 L 233,161 L 231,159 L 231,157 L 229,155 L 229,154 L 227,152 L 227,150 L 226,150 L 225,149 L 225,147 L 223,145 L 223,144 L 222,143 L 222,142 L 221,141 L 221,140 L 219,138 L 219,136 L 218,136 L 217,135 L 217,133 L 215,131 L 215,130 L 214,129 L 214,128 L 213,127 L 213,126 L 211,124 L 211,123 L 209,121 L 209,119 L 207,117 L 207,116 L 205,114 L 205,113 L 203,111 L 203,109 L 201,107 L 201,106 L 200,105 L 200,104 L 199,103 L 199,102 L 197,100 L 197,99 L 195,97 L 195,96 L 194,95 L 194,94 L 193,93 L 193,92 L 191,90 L 191,89 L 189,87 L 189,84 L 188,84 L 187,83 L 187,81 L 185,79 L 185,78 L 184,77 L 184,76 L 183,75 L 183,74 L 181,72 L 181,71 L 179,69 L 179,68 L 178,67 L 178,66 L 177,65 L 177,64 L 175,62 L 175,60 L 173,58 L 172,58 Z" fill="black" /><path d="M 89,29 L 88,30 L 86,30 L 84,32 L 83,32 L 82,33 L 82,34 L 80,36 L 80,37 L 79,38 L 79,42 L 78,43 L 78,44 L 80,46 L 80,48 L 82,50 L 82,51 L 83,52 L 83,53 L 84,53 L 86,55 L 87,55 L 89,57 L 95,57 L 96,56 L 97,56 L 98,55 L 100,55 L 102,53 L 103,53 L 103,51 L 106,48 L 106,47 L 107,46 L 107,38 L 106,38 L 105,37 L 105,35 L 103,33 L 103,32 L 102,32 L 100,30 L 98,30 L 97,29 Z" fill="black" /></svg>