<?xml version='1.0' encoding='utf-8'?>
<svg width="260" height="223" xmlns="http://www.w3.org/2000/svg" viewBox="0 0 260 223"><rect width="260" height="223" fill="white" /><path d="M 48,65 L 48,66 L 46,68 L 46,69 L 45,70 L 44,70 L 44,75 L 42,77 L 42,78 L 41,79 L 41,80 L 40,81 L 40,83 L 38,85 L 38,87 L 37,88 L 37,89 L 36,90 L 36,92 L 34,94 L 34,97 L 33,98 L 32,98 L 32,100 L 31,101 L 31,102 L 30,103 L 30,106 L 28,108 L 28,110 L 26,112 L 26,116 L 24,118 L 24,119 L 23,120 L 22,120 L 22,124 L 20,126 L 20,128 L 18,130 L 18,132 L 17,133 L 17,135 L 16,136 L 16,137 L 15,138 L 15,139 L 14,140 L 14,142 L 12,144 L 12,147 L 11,148 L 10,148 L 10,150 L 9,151 L 9,152 L 8,153 L 8,155 L 7,156 L 7,157 L 6,158 L 6,161 L 7,162 L 11,162 L 12,161 L 13,161 L 14,162 L 15,162 L 16,161 L 81,161 L 82,160 L 84,160 L 85,161 L 89,161 L 90,160 L 91,160 L 92,161 L 96,161 L 97,160 L 105,160 L 106,161 L 113,161 L 115,159 L 115,154 L 113,152 L 113,151 L 111,149 L 111,148 L 110,148 L 109,147 L 109,146 L 107,144 L 107,143 L 105,141 L 105,140 L 103,138 L 103,137 L 101,135 L 101,134 L 99,132 L 99,131 L 97,129 L 97,128 L 95,126 L 95,125 L 90,120 L 90,118 L 85,113 L 85,112 L 84,111 L 84,110 L 83,109 L 83,108 L 82,108 L 81,107 L 81,106 L 79,104 L 79,103 L 77,101 L 77,100 L 76,99 L 76,98 L 73,95 L 73,94 L 72,94 L 71,93 L 71,92 L 69,90 L 69,89 L 67,87 L 67,86 L 65,84 L 65,83 L 62,80 L 62,79 L 61,78 L 61,77 L 59,75 L 59,74 L 58,74 L 57,73 L 57,72 L 56,72 L 55,71 L 55,70 L 50,65 Z" fill="black" /><path d="M 185,54 L 184,55 L 174,55 L 173,56 L 150,56 L 149,55 L 148,56 L 129,56 L 126,59 L 126,63 L 128,65 L 128,67 L 130,69 L 130,70 L 132,72 L 132,74 L 134,76 L 134,77 L 135,78 L 135,79 L 136,80 L 136,81 L 138,83 L 138,85 L 140,87 L 140,88 L 142,90 L 142,91 L 144,93 L 144,95 L 146,97 L 146,98 L 148,100 L 148,101 L 149,102 L 149,103 L 150,104 L 150,105 L 151,106 L 151,107 L 152,108 L 152,109 L 154,111 L 154,112 L 156,114 L 156,116 L 158,118 L 158,119 L 159,120 L 159,121 L 160,122 L 160,124 L 162,126 L 162,127 L 164,129 L 164,130 L 166,132 L 166,133 L 167,134 L 167,135 L 168,136 L 168,137 L 170,139 L 170,141 L 171,142 L 171,143 L 172,144 L 172,145 L 173,145 L 174,146 L 174,147 L 175,148 L 175,149 L 176,150 L 176,152 L 178,154 L 178,155 L 179,156 L 179,157 L 180,158 L 180,159 L 182,161 L 182,162 L 183,163 L 185,163 L 186,162 L 186,158 L 187,157 L 187,156 L 188,155 L 188,154 L 189,153 L 189,152 L 190,151 L 190,150 L 191,149 L 191,148 L 192,147 L 192,146 L 193,145 L 193,144 L 195,142 L 195,140 L 196,139 L 197,139 L 197,138 L 198,137 L 198,134 L 199,133 L 199,132 L 201,130 L 201,129 L 202,128 L 202,127 L 205,124 L 205,123 L 206,122 L 206,121 L 207,120 L 207,119 L 208,118 L 208,117 L 209,116 L 209,115 L 211,113 L 211,111 L 213,109 L 213,108 L 215,106 L 215,104 L 217,102 L 217,101 L 219,99 L 219,96 L 221,94 L 221,93 L 223,91 L 223,90 L 224,89 L 224,88 L 225,87 L 225,86 L 227,84 L 227,83 L 229,81 L 229,79 L 231,77 L 231,74 L 233,72 L 233,71 L 235,69 L 235,67 L 237,65 L 237,63 L 239,61 L 239,60 L 240,59 L 240,56 L 238,56 L 237,55 L 236,55 L 235,54 L 224,54 L 223,55 L 221,55 L 220,54 L 190,54 L 189,55 L 188,54 Z" fill="black" /><path d="M 0,0 L 0,222 L 259,222 L 259,0 Z" fill="none" stroke="black" stroke-width="1" /></svg>