<?xml version='1.0' encoding='utf-8'?>
<svg width="258" height="220" xmlns="http://www.w3.org/2000/svg" viewBox="0 0 258 220"><rect width="258" height="220" fill="white" /><path d="M 172,80 L 171,81 L 171,82 L 170,83 L 170,85 L 169,86 L 169,87 L 168,88 L 168,90 L 166,92 L 166,94 L 165,95 L 165,96 L 164,97 L 164,99 L 162,101 L 162,103 L 161,104 L 161,105 L 160,106 L 160,108 L 158,110 L 158,112 L 156,114 L 156,117 L 155,118 L 154,118 L 154,121 L 153,122 L 153,123 L 152,124 L 152,125 L 151,126 L 151,127 L 150,128 L 150,130 L 148,132 L 148,135 L 146,137 L 146,139 L 144,141 L 144,143 L 143,144 L 143,145 L 142,146 L 142,148 L 140,150 L 140,153 L 138,155 L 138,157 L 137,158 L 137,159 L 136,160 L 136,162 L 134,164 L 134,166 L 132,168 L 132,171 L 130,173 L 130,175 L 129,176 L 129,177 L 128,178 L 128,179 L 127,180 L 127,181 L 126,182 L 126,183 L 125,184 L 125,185 L 124,186 L 124,188 L 122,190 L 122,192 L 121,193 L 121,196 L 127,196 L 128,195 L 135,195 L 136,194 L 138,194 L 139,193 L 146,193 L 147,192 L 149,192 L 150,191 L 159,191 L 160,190 L 162,190 L 163,189 L 171,189 L 172,188 L 175,188 L 176,187 L 183,187 L 184,186 L 187,186 L 188,185 L 195,185 L 196,184 L 199,184 L 200,183 L 207,183 L 208,182 L 211,182 L 212,181 L 221,181 L 222,180 L 225,180 L 226,179 L 235,179 L 236,178 L 237,178 L 238,177 L 244,177 L 245,176 L 247,176 L 248,175 L 253,175 L 253,173 L 251,171 L 251,170 L 249,168 L 249,167 L 245,163 L 245,162 L 244,162 L 243,161 L 243,160 L 237,154 L 237,153 L 233,149 L 233,148 L 232,148 L 231,147 L 231,146 L 230,146 L 229,145 L 229,144 L 227,142 L 227,141 L 221,135 L 221,134 L 220,134 L 219,133 L 219,132 L 215,128 L 215,127 L 211,123 L 211,122 L 210,122 L 209,121 L 209,120 L 208,120 L 207,119 L 207,118 L 203,114 L 203,113 L 199,109 L 199,108 L 198,108 L 197,107 L 197,106 L 196,106 L 195,105 L 195,104 L 193,102 L 193,101 L 189,97 L 189,96 L 184,91 L 184,90 L 181,87 L 181,86 L 180,86 L 179,85 L 179,84 L 175,80 Z" fill="black" /><path d="M 122,22 L 121,23 L 116,23 L 115,24 L 106,24 L 105,25 L 100,25 L 99,26 L 90,26 L 89,27 L 85,27 L 84,28 L 74,28 L 73,29 L 68,29 L 67,30 L 56,30 L 55,31 L 51,31 L 50,32 L 37,32 L 36,33 L 32,33 L 31,34 L 18,34 L 18,36 L 20,38 L 20,46 L 21,47 L 21,52 L 22,53 L 22,65 L 23,66 L 23,70 L 24,71 L 24,82 L 25,83 L 25,86 L 26,87 L 26,99 L 27,100 L 27,105 L 28,106 L 28,116 L 29,117 L 29,123 L 30,124 L 30,135 L 31,136 L 31,137 L 33,137 L 34,136 L 37,136 L 38,135 L 45,135 L 46,134 L 50,134 L 51,133 L 58,133 L 59,132 L 63,132 L 64,131 L 70,131 L 71,130 L 74,130 L 75,129 L 83,129 L 84,128 L 87,128 L 88,127 L 96,127 L 97,126 L 100,126 L 101,125 L 111,125 L 112,124 L 113,124 L 114,123 L 122,123 L 123,122 L 127,122 L 128,121 L 137,121 L 137,115 L 136,114 L 136,110 L 135,109 L 135,99 L 134,98 L 134,94 L 133,93 L 133,83 L 132,82 L 132,75 L 131,74 L 131,64 L 130,63 L 130,58 L 129,57 L 129,46 L 128,45 L 128,42 L 127,41 L 127,31 L 126,30 L 126,23 L 125,22 Z" fill="black" /></svg>