<?xml version='1.0' encoding='utf-8'?>
<svg width="259" height="215" xmlns="http://www.w3.org/2000/svg" viewBox="0 0 259 215"><rect width="259" height="215" fill="white" /><path d="M 139,25 L 139,26 L 138,27 L 138,28 L 137,29 L 137,30 L 136,31 L 136,32 L 135,33 L 135,34 L 134,35 L 134,36 L 133,37 L 133,38 L 131,40 L 131,42 L 129,44 L 129,46 L 127,48 L 127,49 L 125,51 L 125,53 L 123,55 L 123,56 L 122,57 L 122,58 L 121,59 L 121,60 L 119,62 L 119,63 L 117,65 L 117,68 L 115,70 L 115,72 L 114,73 L 113,73 L 113,75 L 111,77 L 111,79 L 109,81 L 109,82 L 108,83 L 108,84 L 107,85 L 107,86 L 106,87 L 106,88 L 105,89 L 105,90 L 104,91 L 104,92 L 103,93 L 103,94 L 102,95 L 102,96 L 101,97 L 101,98 L 99,100 L 99,102 L 98,103 L 97,103 L 97,105 L 95,107 L 95,109 L 93,111 L 93,113 L 91,115 L 91,116 L 90,117 L 90,118 L 89,119 L 89,120 L 88,121 L 88,122 L 87,123 L 87,124 L 85,126 L 85,128 L 83,130 L 83,131 L 81,133 L 81,135 L 79,137 L 79,138 L 78,139 L 78,140 L 77,141 L 77,142 L 76,143 L 76,144 L 75,145 L 75,146 L 73,148 L 73,150 L 71,152 L 71,153 L 69,155 L 69,157 L 67,159 L 67,160 L 66,161 L 66,162 L 65,163 L 65,164 L 63,166 L 63,168 L 61,170 L 61,171 L 59,173 L 59,175 L 57,177 L 57,178 L 56,179 L 56,180 L 55,181 L 55,182 L 54,183 L 53,183 L 53,185 L 54,186 L 56,186 L 57,185 L 62,185 L 63,184 L 73,184 L 74,183 L 79,183 L 80,182 L 92,182 L 93,181 L 97,181 L 98,180 L 110,180 L 111,179 L 115,179 L 116,178 L 128,178 L 129,177 L 133,177 L 134,176 L 146,176 L 147,175 L 152,175 L 153,174 L 166,174 L 167,173 L 175,173 L 176,172 L 184,172 L 185,171 L 190,171 L 191,170 L 200,170 L 201,169 L 210,169 L 211,168 L 220,168 L 221,167 L 225,167 L 226,166 L 230,166 L 230,165 L 231,164 L 231,162 L 227,158 L 227,157 L 226,156 L 226,155 L 224,153 L 224,152 L 222,150 L 222,149 L 219,146 L 219,145 L 218,144 L 218,143 L 216,141 L 216,140 L 214,138 L 214,137 L 212,135 L 212,134 L 210,132 L 210,131 L 208,129 L 208,128 L 206,126 L 206,125 L 204,123 L 204,122 L 202,120 L 202,119 L 200,117 L 200,116 L 198,114 L 198,113 L 196,111 L 196,109 L 195,109 L 194,108 L 194,107 L 193,106 L 193,105 L 192,104 L 192,103 L 191,103 L 190,102 L 190,101 L 189,100 L 189,99 L 188,98 L 188,97 L 186,95 L 186,94 L 184,92 L 184,91 L 182,89 L 182,88 L 180,86 L 180,85 L 178,83 L 178,82 L 176,80 L 176,79 L 174,77 L 174,76 L 172,74 L 172,73 L 170,71 L 170,69 L 169,69 L 168,68 L 168,67 L 167,66 L 167,65 L 166,64 L 166,63 L 165,63 L 164,62 L 164,61 L 163,60 L 163,59 L 162,58 L 162,57 L 160,55 L 160,54 L 158,52 L 158,51 L 156,49 L 156,48 L 154,46 L 154,45 L 153,44 L 153,43 L 152,42 L 152,41 L 151,41 L 150,40 L 150,38 L 148,36 L 148,35 L 147,34 L 147,33 L 146,32 L 146,31 L 144,29 L 144,28 L 142,26 L 142,25 Z" fill="black" /><path d="M 43,13 L 42,14 L 39,14 L 38,15 L 35,15 L 32,18 L 31,18 L 30,19 L 29,19 L 29,20 L 25,24 L 25,26 L 23,28 L 23,31 L 21,33 L 21,42 L 22,43 L 22,45 L 23,46 L 23,48 L 25,50 L 25,52 L 26,52 L 27,53 L 27,55 L 29,57 L 30,57 L 33,60 L 34,60 L 36,62 L 39,62 L 40,63 L 41,63 L 42,64 L 53,64 L 54,63 L 55,63 L 56,62 L 58,62 L 59,61 L 60,61 L 63,58 L 64,58 L 64,57 L 67,54 L 67,53 L 69,51 L 69,50 L 70,49 L 70,47 L 71,46 L 71,45 L 72,44 L 72,34 L 71,33 L 71,31 L 70,30 L 70,27 L 68,25 L 68,24 L 66,22 L 66,21 L 64,21 L 63,20 L 63,19 L 61,19 L 60,18 L 60,17 L 59,17 L 58,16 L 56,16 L 54,14 L 46,14 L 45,13 Z" fill="black" /></svg>