<?xml version='1.0' encoding='utf-8'?>
<svg width="258" height="217" xmlns="http://www.w3.org/2000/svg" viewBox="0 0 258 217"><rect width="258" height="217" fill="white" /><path d="M 69,157 L 67,159 L 64,159 L 62,161 L 61,161 L 61,162 L 55,168 L 55,174 L 54,175 L 54,182 L 55,183 L 55,185 L 57,187 L 57,189 L 62,194 L 63,194 L 65,196 L 70,196 L 72,198 L 78,198 L 79,197 L 80,197 L 81,196 L 84,196 L 84,195 L 85,194 L 86,194 L 89,191 L 90,191 L 90,190 L 92,188 L 92,185 L 93,184 L 94,184 L 94,171 L 93,170 L 93,169 L 92,168 L 92,167 L 86,161 L 85,161 L 83,159 L 81,159 L 79,157 Z" fill="black" /><path d="M 192,101 L 191,102 L 189,102 L 188,103 L 185,103 L 184,104 L 182,104 L 181,105 L 180,105 L 178,107 L 177,107 L 175,109 L 174,109 L 172,111 L 171,111 L 165,117 L 165,118 L 162,121 L 162,122 L 161,123 L 161,124 L 160,125 L 159,125 L 159,126 L 158,127 L 158,128 L 157,129 L 157,131 L 156,132 L 156,133 L 155,134 L 155,136 L 154,137 L 153,137 L 153,141 L 152,142 L 152,154 L 153,155 L 153,160 L 154,161 L 154,162 L 155,163 L 155,166 L 156,167 L 156,168 L 157,169 L 157,170 L 158,171 L 158,172 L 159,173 L 159,174 L 160,175 L 160,176 L 163,179 L 163,180 L 164,180 L 165,181 L 165,182 L 169,186 L 170,186 L 171,187 L 171,188 L 173,188 L 177,192 L 179,192 L 181,194 L 182,194 L 183,195 L 185,195 L 186,196 L 190,196 L 191,197 L 192,197 L 193,198 L 209,198 L 210,197 L 212,197 L 213,196 L 214,196 L 215,195 L 218,195 L 219,194 L 221,194 L 222,193 L 223,193 L 224,192 L 225,192 L 227,190 L 228,190 L 229,189 L 230,189 L 239,180 L 240,180 L 240,178 L 241,177 L 241,176 L 242,175 L 242,174 L 244,172 L 244,171 L 245,170 L 245,169 L 246,168 L 246,164 L 247,163 L 247,162 L 248,161 L 248,157 L 249,156 L 249,151 L 250,150 L 250,143 L 249,142 L 249,139 L 248,138 L 248,134 L 247,133 L 247,131 L 246,130 L 246,129 L 245,128 L 245,127 L 244,126 L 244,125 L 242,123 L 242,121 L 241,121 L 240,120 L 240,119 L 232,111 L 231,111 L 230,110 L 230,109 L 229,109 L 228,108 L 227,108 L 226,107 L 225,107 L 223,105 L 221,105 L 220,104 L 219,104 L 218,103 L 215,103 L 214,102 L 211,102 L 210,101 Z" fill="black" /><path d="M 91,16 L 90,17 L 85,17 L 83,19 L 78,19 L 77,20 L 75,20 L 74,21 L 73,21 L 72,22 L 71,22 L 70,23 L 67,23 L 65,25 L 64,25 L 60,29 L 59,29 L 57,31 L 57,33 L 55,35 L 53,35 L 51,37 L 51,38 L 49,40 L 49,41 L 47,43 L 47,44 L 46,45 L 46,46 L 45,47 L 45,49 L 43,51 L 43,54 L 42,55 L 42,56 L 41,57 L 41,63 L 40,64 L 40,67 L 41,68 L 41,73 L 40,74 L 40,77 L 41,78 L 41,84 L 42,85 L 42,86 L 43,87 L 43,90 L 45,92 L 45,94 L 46,95 L 46,96 L 47,97 L 47,98 L 48,99 L 48,100 L 49,101 L 49,102 L 50,102 L 51,103 L 51,104 L 54,107 L 54,108 L 56,110 L 57,110 L 61,114 L 62,114 L 63,115 L 63,116 L 64,116 L 66,118 L 67,118 L 69,120 L 71,120 L 72,121 L 74,121 L 75,122 L 77,122 L 78,123 L 79,123 L 80,124 L 84,124 L 85,125 L 88,125 L 89,126 L 92,126 L 93,125 L 103,125 L 104,124 L 109,124 L 111,122 L 115,122 L 117,120 L 119,120 L 121,118 L 122,118 L 123,117 L 124,117 L 125,116 L 126,116 L 126,115 L 127,114 L 128,114 L 128,113 L 129,112 L 130,112 L 130,111 L 131,110 L 132,110 L 136,106 L 136,105 L 137,104 L 138,104 L 138,103 L 140,101 L 140,100 L 142,98 L 142,97 L 143,96 L 143,95 L 144,94 L 144,93 L 145,92 L 145,91 L 146,90 L 146,87 L 147,86 L 147,85 L 148,84 L 148,79 L 149,78 L 149,71 L 150,70 L 150,65 L 149,64 L 149,62 L 148,61 L 148,57 L 147,56 L 147,54 L 146,53 L 146,52 L 145,51 L 145,50 L 144,49 L 144,47 L 142,45 L 142,43 L 141,43 L 140,42 L 140,40 L 138,38 L 138,37 L 136,35 L 135,35 L 134,34 L 134,33 L 128,27 L 127,27 L 126,26 L 125,26 L 120,21 L 117,21 L 115,19 L 112,19 L 111,18 L 108,18 L 107,17 L 99,17 L 98,16 L 97,17 L 94,17 L 93,16 Z" fill="black" /><path d="M 205,13 L 204,14 L 200,14 L 199,15 L 198,15 L 196,17 L 195,17 L 191,21 L 191,33 L 193,35 L 193,36 L 195,38 L 196,38 L 197,39 L 197,40 L 198,40 L 199,41 L 200,41 L 201,42 L 209,42 L 211,40 L 213,40 L 214,39 L 214,38 L 216,36 L 216,35 L 218,33 L 218,23 L 217,22 L 217,21 L 216,20 L 216,19 L 215,19 L 211,15 L 210,15 L 209,14 L 207,14 L 206,13 Z" fill="black" /></svg>