<?xml version='1.0' encoding='utf-8'?>
<svg width="261" height="216" xmlns="http://www.w3.org/2000/svg" viewBox="0 0 261 216"><rect width="261" height="216" fill="white" /><path d="M 38,160 L 37,161 L 37,191 L 39,193 L 76,193 L 76,161 L 75,160 Z" fill="black" /><path d="M 202,22 L 201,23 L 198,23 L 197,24 L 193,24 L 192,25 L 190,25 L 189,26 L 185,26 L 184,27 L 180,27 L 179,28 L 173,28 L 172,29 L 171,29 L 170,30 L 163,30 L 162,31 L 160,31 L 159,32 L 155,32 L 154,33 L 151,33 L 150,34 L 143,34 L 142,35 L 140,35 L 139,36 L 133,36 L 132,37 L 129,37 L 128,38 L 123,38 L 122,39 L 119,39 L 118,40 L 113,40 L 112,41 L 110,41 L 109,42 L 102,42 L 101,43 L 99,43 L 98,44 L 93,44 L 92,45 L 89,45 L 88,46 L 83,46 L 82,47 L 79,47 L 78,48 L 71,48 L 70,49 L 67,49 L 66,50 L 61,50 L 60,51 L 57,51 L 56,52 L 49,52 L 48,53 L 47,53 L 46,54 L 39,54 L 38,55 L 36,55 L 35,56 L 30,56 L 29,57 L 26,57 L 26,59 L 27,60 L 28,60 L 29,61 L 30,61 L 32,63 L 34,63 L 36,65 L 38,65 L 40,67 L 42,67 L 43,68 L 44,68 L 47,71 L 49,71 L 50,72 L 51,72 L 52,73 L 54,73 L 56,75 L 58,75 L 59,76 L 59,77 L 61,77 L 63,79 L 65,79 L 67,81 L 68,81 L 70,83 L 72,83 L 73,84 L 74,84 L 75,85 L 76,85 L 77,86 L 78,86 L 79,87 L 81,87 L 83,89 L 85,89 L 87,91 L 88,91 L 90,93 L 91,93 L 93,95 L 96,95 L 97,96 L 97,97 L 99,97 L 100,98 L 101,98 L 102,99 L 104,99 L 105,100 L 106,100 L 107,101 L 108,101 L 109,102 L 109,103 L 112,103 L 114,105 L 116,105 L 118,107 L 119,107 L 121,109 L 124,109 L 125,110 L 125,111 L 127,111 L 129,113 L 130,113 L 131,114 L 132,114 L 133,115 L 135,115 L 137,117 L 138,117 L 140,119 L 142,119 L 143,120 L 144,120 L 145,121 L 146,121 L 147,122 L 148,122 L 149,123 L 150,123 L 152,125 L 153,125 L 155,127 L 158,127 L 159,128 L 159,129 L 161,129 L 163,131 L 164,131 L 165,132 L 166,132 L 167,133 L 168,133 L 170,135 L 172,135 L 174,137 L 176,137 L 178,139 L 180,139 L 182,141 L 183,141 L 185,143 L 187,143 L 189,145 L 191,145 L 193,147 L 195,147 L 197,149 L 198,149 L 199,150 L 200,150 L 201,151 L 202,151 L 203,152 L 204,152 L 205,153 L 206,153 L 208,155 L 214,155 L 214,22 Z" fill="black" /></svg>