<?xml version='1.0' encoding='utf-8'?>
<svg width="256" height="223" xmlns="http://www.w3.org/2000/svg" viewBox="0 0 256 223"><rect width="256" height="223" fill="white" /><path d="M 174,119 L 173,120 L 172,120 L 172,123 L 173,124 L 173,125 L 174,126 L 174,128 L 176,130 L 176,132 L 177,133 L 177,134 L 178,135 L 178,137 L 179,138 L 179,139 L 180,140 L 180,143 L 182,145 L 182,147 L 183,148 L 183,149 L 184,150 L 184,152 L 185,153 L 185,154 L 186,155 L 186,157 L 187,158 L 187,159 L 188,160 L 188,161 L 189,162 L 189,163 L 190,164 L 190,167 L 191,168 L 191,169 L 192,170 L 192,172 L 194,174 L 194,177 L 195,178 L 195,179 L 196,180 L 196,182 L 197,183 L 197,184 L 198,185 L 198,187 L 199,188 L 199,189 L 200,190 L 200,193 L 201,194 L 201,195 L 202,196 L 202,197 L 203,198 L 203,199 L 204,200 L 204,202 L 206,204 L 206,210 L 207,211 L 208,211 L 211,214 L 213,212 L 213,210 L 214,209 L 214,208 L 215,207 L 215,205 L 217,203 L 217,201 L 219,199 L 219,197 L 221,195 L 221,193 L 223,191 L 223,188 L 225,186 L 225,184 L 227,182 L 227,180 L 228,179 L 228,178 L 229,177 L 229,176 L 230,175 L 230,174 L 231,173 L 231,172 L 232,171 L 232,170 L 233,169 L 233,167 L 235,165 L 235,163 L 237,161 L 237,159 L 238,158 L 238,157 L 239,156 L 239,154 L 241,152 L 241,150 L 242,149 L 242,148 L 243,147 L 243,146 L 244,145 L 244,144 L 245,143 L 245,142 L 246,141 L 246,140 L 247,139 L 247,138 L 248,137 L 248,136 L 249,135 L 249,133 L 251,131 L 251,130 L 252,129 L 252,128 L 253,127 L 253,125 L 254,124 L 254,121 L 253,120 L 177,120 L 176,119 Z" fill="black" /><path d="M 73,83 L 73,87 L 72,88 L 72,97 L 71,98 L 71,102 L 70,103 L 70,113 L 69,114 L 69,117 L 68,118 L 68,128 L 67,129 L 67,133 L 66,134 L 66,143 L 65,144 L 65,149 L 64,150 L 64,159 L 63,160 L 63,165 L 62,166 L 62,175 L 66,175 L 68,173 L 71,173 L 73,171 L 75,171 L 76,170 L 77,170 L 78,169 L 81,169 L 82,168 L 83,168 L 84,167 L 86,167 L 87,166 L 89,166 L 90,165 L 92,165 L 93,164 L 94,164 L 95,163 L 98,163 L 99,162 L 100,162 L 101,161 L 103,161 L 104,160 L 105,160 L 106,159 L 109,159 L 110,158 L 111,158 L 112,157 L 115,157 L 116,156 L 117,156 L 118,155 L 121,155 L 123,153 L 127,153 L 129,151 L 133,151 L 134,150 L 135,150 L 136,149 L 138,149 L 139,148 L 140,148 L 141,147 L 144,147 L 145,146 L 146,146 L 147,145 L 149,145 L 150,144 L 149,143 L 149,142 L 146,142 L 140,136 L 139,136 L 135,132 L 134,132 L 130,128 L 129,128 L 125,124 L 124,124 L 123,123 L 123,122 L 122,122 L 120,120 L 119,120 L 115,116 L 114,116 L 113,115 L 113,114 L 112,114 L 109,111 L 108,111 L 105,108 L 104,108 L 103,107 L 103,106 L 102,106 L 99,103 L 98,103 L 95,100 L 94,100 L 93,99 L 93,98 L 92,98 L 86,92 L 85,92 L 81,88 L 80,88 L 77,85 L 77,84 L 76,83 Z" fill="black" /><path d="M 164,24 L 164,29 L 163,30 L 163,79 L 162,80 L 162,82 L 163,83 L 163,93 L 167,93 L 168,92 L 209,92 L 210,93 L 211,93 L 212,92 L 221,92 L 222,93 L 225,93 L 226,92 L 229,92 L 230,93 L 231,93 L 232,92 L 235,92 L 236,93 L 237,93 L 238,92 L 242,92 L 242,59 L 241,58 L 242,57 L 242,37 L 243,36 L 243,30 L 242,29 L 242,28 L 243,27 L 243,24 Z" fill="black" /></svg>