<?xml version='1.0' encoding='utf-8'?>
<svg width="258" height="219" xmlns="http://www.w3.org/2000/svg" viewBox="0 0 258 219"><rect width="258" height="219" fill="white" /><path d="M 128,110 L 127,111 L 120,111 L 119,112 L 116,112 L 115,113 L 108,113 L 107,114 L 103,114 L 102,115 L 96,115 L 95,116 L 93,116 L 92,117 L 85,117 L 84,118 L 80,118 L 79,119 L 72,119 L 71,120 L 68,120 L 67,121 L 58,121 L 57,122 L 52,122 L 51,123 L 46,123 L 44,125 L 44,129 L 45,130 L 45,133 L 46,134 L 46,142 L 47,143 L 47,146 L 48,147 L 48,152 L 49,153 L 49,157 L 50,158 L 50,164 L 51,165 L 51,168 L 52,169 L 52,175 L 53,176 L 53,180 L 54,181 L 54,187 L 55,188 L 55,191 L 56,192 L 56,198 L 57,199 L 57,202 L 58,203 L 58,211 L 59,212 L 59,213 L 60,214 L 60,215 L 61,216 L 69,216 L 70,215 L 72,215 L 73,214 L 81,214 L 82,213 L 84,213 L 85,212 L 91,212 L 92,211 L 96,211 L 97,210 L 103,210 L 104,209 L 107,209 L 108,208 L 115,208 L 116,207 L 119,207 L 120,206 L 125,206 L 126,205 L 129,205 L 130,204 L 139,204 L 140,203 L 143,203 L 144,202 L 147,202 L 147,195 L 146,194 L 146,191 L 145,190 L 145,183 L 144,182 L 144,179 L 143,178 L 143,169 L 142,168 L 142,167 L 141,166 L 141,159 L 140,158 L 140,155 L 139,154 L 139,147 L 138,146 L 138,144 L 137,143 L 137,134 L 136,133 L 136,131 L 135,130 L 135,121 L 134,120 L 134,115 L 133,114 L 133,110 Z" fill="black" /><path d="M 186,49 L 185,50 L 183,50 L 182,51 L 180,51 L 179,52 L 178,52 L 177,53 L 175,53 L 173,55 L 172,55 L 170,57 L 168,57 L 156,69 L 156,70 L 155,71 L 155,72 L 152,75 L 152,76 L 151,77 L 151,78 L 150,79 L 150,82 L 149,83 L 149,84 L 148,85 L 148,88 L 147,89 L 147,92 L 146,93 L 146,106 L 147,107 L 146,108 L 146,110 L 147,111 L 147,112 L 148,113 L 148,116 L 149,117 L 149,119 L 150,120 L 150,122 L 151,123 L 151,124 L 154,127 L 154,128 L 155,129 L 155,130 L 158,133 L 158,134 L 160,136 L 161,136 L 164,139 L 164,140 L 165,140 L 166,141 L 166,142 L 167,142 L 168,143 L 169,143 L 170,144 L 171,144 L 173,146 L 175,146 L 176,147 L 177,147 L 178,148 L 179,148 L 180,149 L 181,149 L 182,150 L 184,150 L 185,151 L 189,151 L 190,152 L 206,152 L 207,151 L 209,151 L 210,150 L 215,150 L 217,148 L 219,148 L 221,146 L 223,146 L 225,144 L 227,144 L 229,142 L 229,141 L 230,140 L 231,140 L 233,138 L 234,138 L 234,137 L 239,132 L 239,131 L 240,130 L 241,130 L 241,129 L 243,127 L 243,126 L 245,124 L 245,122 L 247,120 L 247,118 L 248,117 L 248,116 L 249,115 L 249,111 L 250,110 L 250,107 L 251,106 L 251,95 L 250,94 L 250,90 L 249,89 L 249,86 L 248,85 L 248,84 L 247,83 L 247,81 L 246,80 L 246,79 L 245,78 L 245,77 L 244,76 L 244,75 L 243,74 L 243,73 L 242,73 L 241,72 L 241,71 L 238,68 L 238,67 L 231,60 L 231,59 L 230,59 L 229,58 L 228,58 L 227,57 L 226,57 L 224,55 L 223,55 L 221,53 L 218,53 L 216,51 L 214,51 L 213,50 L 212,50 L 211,49 Z" fill="black" /><path d="M 65,8 L 64,9 L 59,9 L 58,10 L 57,10 L 56,11 L 51,11 L 49,13 L 48,13 L 46,15 L 44,15 L 42,17 L 41,17 L 40,18 L 40,19 L 39,20 L 38,20 L 37,21 L 36,21 L 36,22 L 33,25 L 32,25 L 32,26 L 31,27 L 30,27 L 30,28 L 28,30 L 28,31 L 26,33 L 26,34 L 25,35 L 25,36 L 24,37 L 24,39 L 23,40 L 23,41 L 22,42 L 22,44 L 20,46 L 20,50 L 19,51 L 19,54 L 18,55 L 18,67 L 19,68 L 19,70 L 20,71 L 20,77 L 22,79 L 22,82 L 24,84 L 24,86 L 25,86 L 26,87 L 26,88 L 27,89 L 27,90 L 28,91 L 28,92 L 29,92 L 30,93 L 30,94 L 36,100 L 37,100 L 38,101 L 38,102 L 39,102 L 40,103 L 41,103 L 44,106 L 47,106 L 49,108 L 51,108 L 52,109 L 55,109 L 56,110 L 58,110 L 59,111 L 62,111 L 63,112 L 76,112 L 77,111 L 81,111 L 82,110 L 85,110 L 86,109 L 87,109 L 88,108 L 91,108 L 93,106 L 95,106 L 97,104 L 98,104 L 100,102 L 101,102 L 105,98 L 106,98 L 107,97 L 107,96 L 108,95 L 109,95 L 109,94 L 110,93 L 110,92 L 112,90 L 113,90 L 115,88 L 115,85 L 116,84 L 116,83 L 117,82 L 117,80 L 118,79 L 118,77 L 119,76 L 119,73 L 120,72 L 121,72 L 121,61 L 122,60 L 122,55 L 121,54 L 121,47 L 119,45 L 119,43 L 118,42 L 118,39 L 117,38 L 117,36 L 115,34 L 115,33 L 113,31 L 113,30 L 111,28 L 111,27 L 110,27 L 107,24 L 107,23 L 106,23 L 105,22 L 105,21 L 104,21 L 99,16 L 98,16 L 97,15 L 96,15 L 95,14 L 94,14 L 93,13 L 91,13 L 90,12 L 89,12 L 88,11 L 85,11 L 83,9 L 76,9 L 75,8 Z" fill="black" /></svg>