<?xml version='1.0' encoding='utf-8'?>
<svg width="259" height="222" xmlns="http://www.w3.org/2000/svg" viewBox="0 0 259 222"><rect width="259" height="222" fill="white" /><path d="M 83,109 L 82,110 L 79,110 L 78,111 L 76,111 L 73,114 L 73,115 L 71,117 L 70,117 L 69,118 L 69,128 L 70,129 L 70,130 L 71,131 L 71,132 L 73,134 L 73,135 L 74,136 L 75,136 L 77,138 L 87,138 L 89,136 L 91,136 L 92,135 L 92,134 L 94,132 L 94,131 L 95,130 L 95,129 L 96,128 L 96,119 L 95,118 L 95,117 L 94,117 L 93,116 L 93,115 L 92,114 L 92,113 L 91,113 L 89,111 L 87,111 L 86,110 L 85,110 L 84,109 Z" fill="black" /><path d="M 179,47 L 178,48 L 177,48 L 176,49 L 174,49 L 172,51 L 172,52 L 171,53 L 171,54 L 169,56 L 169,61 L 170,62 L 170,65 L 171,66 L 171,68 L 173,70 L 173,71 L 174,72 L 175,72 L 177,74 L 189,74 L 191,72 L 192,72 L 192,70 L 193,69 L 194,69 L 195,68 L 195,67 L 196,66 L 196,55 L 195,55 L 194,54 L 194,53 L 193,52 L 193,51 L 191,49 L 190,49 L 188,47 Z" fill="black" /><path d="M 0,0 L 0,221 L 258,221 L 258,0 Z" fill="none" stroke="black" stroke-width="1" /></svg>