<?xml version='1.0' encoding='utf-8'?>
<svg width="258" height="216" xmlns="http://www.w3.org/2000/svg" viewBox="0 0 258 216"><rect width="258" height="216" fill="white" /><path d="M 72,137 L 70,139 L 70,142 L 71,143 L 71,145 L 70,146 L 70,173 L 110,173 L 110,138 L 98,138 L 97,137 Z" fill="black" /><path d="M 180,90 L 179,91 L 179,94 L 178,95 L 178,96 L 177,97 L 177,100 L 176,101 L 176,102 L 175,103 L 175,105 L 174,106 L 174,108 L 173,109 L 173,111 L 172,112 L 172,113 L 171,114 L 171,117 L 170,118 L 170,119 L 169,120 L 169,123 L 168,124 L 168,125 L 167,126 L 167,129 L 166,130 L 166,131 L 165,132 L 165,133 L 163,135 L 163,137 L 170,137 L 171,136 L 175,136 L 176,135 L 182,135 L 183,134 L 186,134 L 187,133 L 194,133 L 195,132 L 198,132 L 199,131 L 205,131 L 206,130 L 209,130 L 210,129 L 211,129 L 211,127 L 210,126 L 210,125 L 208,123 L 208,122 L 204,118 L 204,117 L 202,115 L 202,114 L 201,114 L 200,113 L 200,112 L 198,110 L 198,109 L 194,105 L 194,104 L 193,104 L 192,103 L 192,102 L 188,98 L 188,97 L 186,95 L 186,94 L 185,94 L 184,93 L 184,92 L 182,90 Z" fill="black" /><path d="M 75,38 L 74,39 L 71,39 L 70,40 L 69,40 L 68,41 L 67,41 L 67,42 L 65,44 L 64,44 L 61,47 L 61,48 L 59,50 L 59,51 L 58,52 L 58,53 L 57,54 L 57,58 L 55,60 L 55,66 L 56,67 L 56,69 L 57,70 L 57,73 L 58,74 L 58,75 L 59,76 L 59,77 L 61,79 L 61,80 L 62,81 L 63,81 L 65,83 L 65,84 L 66,84 L 67,85 L 68,85 L 70,87 L 74,87 L 75,88 L 78,88 L 79,89 L 84,89 L 85,88 L 87,88 L 88,87 L 92,87 L 94,85 L 95,85 L 100,80 L 100,78 L 101,77 L 102,77 L 102,75 L 104,73 L 104,71 L 105,70 L 105,65 L 106,64 L 106,63 L 104,61 L 104,55 L 103,54 L 103,52 L 102,51 L 102,50 L 98,46 L 98,44 L 97,44 L 95,42 L 93,42 L 90,39 L 89,39 L 88,38 Z" fill="black" /></svg>