<?xml version='1.0' encoding='utf-8'?>
<svg width="258" height="220" xmlns="http://www.w3.org/2000/svg" viewBox="0 0 258 220"><rect width="258" height="220" fill="white" /><path d="M 73,139 L 72,140 L 68,140 L 67,141 L 66,141 L 65,142 L 63,142 L 61,144 L 60,144 L 60,145 L 57,148 L 56,148 L 56,149 L 53,152 L 53,153 L 52,154 L 52,157 L 51,158 L 51,159 L 50,160 L 50,171 L 52,173 L 52,175 L 54,177 L 54,179 L 55,179 L 59,183 L 60,183 L 63,186 L 64,186 L 65,187 L 67,187 L 68,188 L 69,188 L 70,189 L 83,189 L 84,188 L 85,188 L 86,187 L 87,187 L 88,186 L 89,186 L 90,185 L 91,185 L 93,183 L 93,182 L 96,179 L 96,178 L 99,175 L 99,174 L 101,172 L 101,170 L 102,169 L 102,167 L 103,166 L 103,162 L 102,161 L 102,159 L 101,158 L 101,153 L 99,151 L 99,150 L 98,150 L 97,149 L 97,148 L 91,142 L 88,142 L 86,140 L 82,140 L 81,139 Z" fill="black" /><path d="M 42,24 L 42,58 L 41,59 L 42,60 L 42,64 L 45,64 L 46,63 L 51,63 L 52,64 L 59,64 L 60,63 L 70,63 L 71,64 L 83,64 L 85,62 L 85,24 Z" fill="black" /><path d="M 101,21 L 100,22 L 100,27 L 101,28 L 101,29 L 102,30 L 102,31 L 103,32 L 103,33 L 104,34 L 104,35 L 105,36 L 105,37 L 106,38 L 106,40 L 108,42 L 108,45 L 109,46 L 109,47 L 110,48 L 110,49 L 111,50 L 111,51 L 112,52 L 112,54 L 114,56 L 114,58 L 115,59 L 115,60 L 116,61 L 116,63 L 118,65 L 118,67 L 119,68 L 119,69 L 120,70 L 120,72 L 122,74 L 122,76 L 123,77 L 123,78 L 124,79 L 124,81 L 126,83 L 126,85 L 127,86 L 127,87 L 128,88 L 128,89 L 129,90 L 129,91 L 130,92 L 130,94 L 132,96 L 132,98 L 133,99 L 133,100 L 134,101 L 134,103 L 135,104 L 135,105 L 136,106 L 136,107 L 137,108 L 137,109 L 138,110 L 138,112 L 140,114 L 140,116 L 141,117 L 141,118 L 142,119 L 142,121 L 144,123 L 144,125 L 145,126 L 145,127 L 146,128 L 146,129 L 147,130 L 147,131 L 148,132 L 148,134 L 150,136 L 150,139 L 151,139 L 152,140 L 152,143 L 153,144 L 153,145 L 154,146 L 154,147 L 155,148 L 155,149 L 156,150 L 156,152 L 158,154 L 158,157 L 159,158 L 159,159 L 160,160 L 160,161 L 161,162 L 161,163 L 162,164 L 162,166 L 164,168 L 164,169 L 165,170 L 165,171 L 166,172 L 166,173 L 167,174 L 167,176 L 170,176 L 171,175 L 171,174 L 172,173 L 172,172 L 173,171 L 173,170 L 174,169 L 174,168 L 175,167 L 175,166 L 176,165 L 176,164 L 177,163 L 177,162 L 178,161 L 178,160 L 179,159 L 179,158 L 180,157 L 181,157 L 181,155 L 183,153 L 183,151 L 184,150 L 184,149 L 185,148 L 185,147 L 187,145 L 187,144 L 188,143 L 188,142 L 189,141 L 189,140 L 190,139 L 190,138 L 191,137 L 191,136 L 195,132 L 195,128 L 197,126 L 197,125 L 198,124 L 198,123 L 199,122 L 199,121 L 201,119 L 201,118 L 202,117 L 202,116 L 203,115 L 203,114 L 205,112 L 205,110 L 207,108 L 207,106 L 209,104 L 209,103 L 211,101 L 211,100 L 212,99 L 212,98 L 213,97 L 213,96 L 214,95 L 214,94 L 215,93 L 215,92 L 217,90 L 217,89 L 219,87 L 219,86 L 220,85 L 220,84 L 221,83 L 221,82 L 222,81 L 222,80 L 223,79 L 223,78 L 225,76 L 225,74 L 227,72 L 227,70 L 228,69 L 229,69 L 229,67 L 231,65 L 231,63 L 233,61 L 233,59 L 235,57 L 235,56 L 236,55 L 236,54 L 237,53 L 237,52 L 238,51 L 238,50 L 239,49 L 239,48 L 241,46 L 241,44 L 243,42 L 243,40 L 245,38 L 245,37 L 247,35 L 247,34 L 248,33 L 248,32 L 249,31 L 249,30 L 252,27 L 252,26 L 251,25 L 251,24 L 250,23 L 104,23 L 103,22 L 102,22 Z" fill="black" /></svg>