<?xml version='1.0' encoding='utf-8'?>
<svg width="260" height="214" xmlns="http://www.w3.org/2000/svg" viewBox="0 0 260 214"><rect width="260" height="214" fill="white" /><path d="M 51,64 L 50,65 L 50,69 L 49,70 L 49,71 L 48,72 L 48,76 L 47,77 L 47,79 L 46,80 L 46,83 L 45,84 L 45,85 L 44,86 L 44,90 L 43,91 L 43,92 L 42,93 L 42,97 L 41,98 L 41,99 L 40,100 L 40,105 L 39,106 L 39,107 L 38,108 L 38,112 L 37,113 L 37,114 L 36,115 L 36,119 L 35,120 L 35,122 L 34,123 L 34,127 L 32,129 L 32,134 L 31,135 L 31,136 L 30,137 L 30,141 L 29,142 L 29,144 L 28,145 L 28,149 L 27,150 L 27,151 L 26,152 L 26,155 L 25,156 L 25,158 L 24,159 L 24,163 L 23,164 L 23,165 L 22,166 L 22,170 L 21,171 L 21,173 L 20,174 L 20,178 L 19,179 L 19,180 L 18,181 L 18,185 L 17,186 L 17,187 L 16,188 L 16,191 L 15,192 L 15,194 L 14,195 L 14,198 L 13,199 L 13,200 L 12,201 L 12,204 L 15,204 L 16,203 L 21,203 L 22,202 L 23,202 L 24,201 L 30,201 L 31,200 L 33,200 L 34,199 L 40,199 L 41,198 L 43,198 L 44,197 L 50,197 L 51,196 L 53,196 L 54,195 L 58,195 L 59,194 L 61,194 L 62,193 L 68,193 L 69,192 L 71,192 L 72,191 L 76,191 L 77,190 L 80,190 L 81,189 L 85,189 L 86,188 L 89,188 L 90,187 L 94,187 L 95,186 L 98,186 L 99,185 L 103,185 L 104,184 L 107,184 L 108,183 L 114,183 L 115,182 L 117,182 L 118,181 L 124,181 L 125,180 L 127,180 L 128,179 L 133,179 L 134,178 L 135,178 L 136,177 L 142,177 L 143,176 L 146,176 L 147,175 L 151,175 L 152,174 L 155,174 L 156,173 L 162,173 L 164,171 L 165,171 L 165,169 L 160,164 L 159,164 L 158,163 L 158,162 L 156,160 L 155,160 L 145,150 L 144,150 L 141,147 L 141,146 L 140,146 L 139,145 L 139,144 L 138,144 L 137,143 L 137,142 L 136,142 L 135,141 L 135,140 L 134,140 L 128,134 L 127,134 L 119,126 L 118,126 L 115,123 L 115,122 L 114,122 L 113,121 L 113,120 L 112,120 L 111,119 L 111,118 L 110,118 L 102,110 L 101,110 L 95,104 L 94,104 L 93,103 L 93,102 L 92,102 L 91,101 L 91,100 L 90,100 L 89,99 L 89,98 L 88,98 L 87,97 L 87,96 L 86,96 L 85,95 L 85,94 L 84,94 L 83,93 L 83,92 L 82,92 L 81,91 L 81,90 L 80,90 L 79,89 L 79,88 L 78,88 L 77,87 L 77,86 L 76,86 L 62,72 L 61,72 L 55,66 L 54,66 L 53,65 L 53,64 Z" fill="black" /><path d="M 170,0 L 170,1 L 169,2 L 166,2 L 166,3 L 165,4 L 163,4 L 161,6 L 159,6 L 156,9 L 155,9 L 153,11 L 152,11 L 149,14 L 148,14 L 148,15 L 147,16 L 146,16 L 146,17 L 145,18 L 144,18 L 144,19 L 143,20 L 142,20 L 142,21 L 140,23 L 140,25 L 139,26 L 138,26 L 138,27 L 137,28 L 137,29 L 136,30 L 136,31 L 135,32 L 135,33 L 134,34 L 134,35 L 132,37 L 132,41 L 131,42 L 131,44 L 130,45 L 130,51 L 129,52 L 129,60 L 128,61 L 129,62 L 129,67 L 130,68 L 130,74 L 131,75 L 131,77 L 132,78 L 132,83 L 134,85 L 134,87 L 136,89 L 136,91 L 137,91 L 138,92 L 138,94 L 140,96 L 140,97 L 141,97 L 142,98 L 142,99 L 143,99 L 144,100 L 144,101 L 147,104 L 147,105 L 149,107 L 151,107 L 154,110 L 154,111 L 155,111 L 156,112 L 157,112 L 158,113 L 159,112 L 161,112 L 162,113 L 162,114 L 164,116 L 164,117 L 167,117 L 168,118 L 169,118 L 170,119 L 173,119 L 174,120 L 175,120 L 176,121 L 186,121 L 187,122 L 189,122 L 190,121 L 195,121 L 196,122 L 197,122 L 198,121 L 204,121 L 205,120 L 208,120 L 209,119 L 212,119 L 213,118 L 214,118 L 215,117 L 217,117 L 218,116 L 219,116 L 222,113 L 224,113 L 226,111 L 227,111 L 227,110 L 228,109 L 229,109 L 232,106 L 233,106 L 234,105 L 235,105 L 235,104 L 238,101 L 239,101 L 239,99 L 241,97 L 241,96 L 242,95 L 243,95 L 243,94 L 245,92 L 245,89 L 247,87 L 247,86 L 248,85 L 248,83 L 249,82 L 249,80 L 250,79 L 250,78 L 251,77 L 251,73 L 253,71 L 253,55 L 252,54 L 252,51 L 253,50 L 251,48 L 251,43 L 249,41 L 249,36 L 248,35 L 248,34 L 246,32 L 246,31 L 245,30 L 245,29 L 243,27 L 243,25 L 241,23 L 241,22 L 238,19 L 238,18 L 237,18 L 233,14 L 232,14 L 228,10 L 227,10 L 225,8 L 224,8 L 222,6 L 221,6 L 219,4 L 218,4 L 217,3 L 216,3 L 215,2 L 213,2 L 211,0 Z" fill="black" /><path d="M 0,0 L 0,213 L 259,213 L 259,0 L 212,0 L 213,1 L 215,1 L 216,2 L 217,2 L 218,3 L 219,3 L 221,5 L 222,5 L 224,7 L 225,7 L 227,9 L 228,9 L 232,13 L 233,13 L 237,17 L 238,17 L 239,18 L 239,19 L 242,22 L 242,23 L 244,25 L 244,27 L 246,29 L 246,30 L 247,31 L 247,32 L 249,34 L 249,35 L 250,36 L 250,41 L 252,43 L 252,48 L 254,50 L 253,51 L 253,54 L 254,55 L 254,71 L 252,73 L 252,77 L 251,78 L 251,79 L 250,80 L 250,82 L 249,83 L 249,85 L 248,86 L 248,87 L 246,89 L 246,92 L 244,94 L 244,95 L 243,96 L 242,96 L 242,97 L 240,99 L 240,101 L 239,102 L 238,102 L 236,104 L 236,105 L 235,106 L 234,106 L 233,107 L 232,107 L 229,110 L 228,110 L 228,111 L 227,112 L 226,112 L 224,114 L 222,114 L 219,117 L 218,117 L 217,118 L 215,118 L 214,119 L 213,119 L 212,120 L 209,120 L 208,121 L 205,121 L 204,122 L 198,122 L 197,123 L 196,123 L 195,122 L 190,122 L 189,123 L 187,123 L 186,122 L 176,122 L 175,121 L 174,121 L 173,120 L 170,120 L 169,119 L 168,119 L 167,118 L 164,118 L 163,117 L 163,116 L 161,114 L 161,113 L 159,113 L 158,114 L 157,113 L 156,113 L 155,112 L 154,112 L 153,111 L 153,110 L 151,108 L 149,108 L 146,105 L 146,104 L 143,101 L 143,100 L 142,100 L 141,99 L 141,98 L 140,98 L 139,97 L 139,96 L 137,94 L 137,92 L 136,92 L 135,91 L 135,89 L 133,87 L 133,85 L 131,83 L 131,78 L 130,77 L 130,75 L 129,74 L 129,68 L 128,67 L 128,62 L 127,61 L 128,60 L 128,52 L 129,51 L 129,45 L 130,44 L 130,42 L 131,41 L 131,37 L 133,35 L 133,34 L 134,33 L 134,32 L 135,31 L 135,30 L 136,29 L 136,28 L 137,27 L 137,26 L 138,25 L 139,25 L 139,23 L 141,21 L 141,20 L 142,19 L 143,19 L 143,18 L 144,17 L 145,17 L 145,16 L 146,15 L 147,15 L 147,14 L 148,13 L 149,13 L 152,10 L 153,10 L 155,8 L 156,8 L 159,5 L 161,5 L 163,3 L 165,3 L 165,2 L 166,1 L 169,1 L 169,0 Z" fill="none" stroke="black" stroke-width="1" /></svg>