<?xml version='1.0' encoding='utf-8'?>
<svg width="258" height="219" xmlns="http://www.w3.org/2000/svg" viewBox="0 0 258 219"><rect width="258" height="219" fill="white" /><path d="M 128,8 L 128,9 L 118,19 L 118,20 L 106,32 L 106,33 L 103,36 L 102,36 L 102,37 L 101,38 L 100,38 L 100,39 L 99,40 L 98,40 L 98,41 L 91,48 L 91,49 L 82,58 L 82,59 L 79,62 L 78,62 L 78,63 L 77,64 L 76,64 L 76,65 L 65,76 L 65,77 L 56,86 L 56,87 L 53,90 L 52,90 L 52,91 L 51,92 L 50,92 L 50,93 L 41,102 L 41,103 L 38,106 L 38,109 L 39,109 L 44,114 L 45,114 L 48,117 L 49,117 L 50,118 L 50,119 L 51,119 L 54,122 L 55,122 L 58,125 L 59,125 L 62,128 L 62,129 L 63,129 L 65,131 L 66,131 L 68,133 L 69,133 L 70,134 L 70,135 L 71,135 L 73,137 L 74,137 L 78,141 L 79,141 L 80,142 L 80,143 L 81,143 L 84,146 L 85,146 L 88,149 L 89,149 L 90,150 L 90,151 L 91,151 L 93,153 L 94,153 L 98,157 L 99,157 L 100,158 L 100,159 L 101,159 L 104,162 L 105,162 L 108,165 L 109,165 L 110,166 L 110,167 L 111,167 L 115,171 L 116,171 L 118,173 L 119,173 L 122,176 L 122,177 L 123,177 L 129,183 L 130,183 L 132,185 L 133,185 L 136,188 L 136,189 L 137,189 L 138,190 L 138,191 L 139,191 L 143,195 L 144,195 L 145,196 L 146,195 L 146,192 L 151,187 L 151,186 L 154,183 L 155,183 L 155,182 L 156,181 L 157,181 L 157,180 L 158,179 L 159,179 L 159,178 L 160,177 L 161,177 L 161,176 L 162,175 L 163,175 L 163,174 L 164,173 L 165,173 L 165,172 L 173,164 L 173,163 L 177,159 L 178,159 L 179,158 L 179,157 L 188,148 L 189,148 L 190,147 L 190,146 L 201,135 L 201,134 L 204,131 L 205,131 L 205,130 L 206,129 L 207,129 L 207,128 L 208,127 L 209,127 L 209,126 L 210,125 L 211,125 L 211,124 L 212,123 L 213,123 L 213,122 L 214,121 L 215,121 L 215,120 L 216,119 L 217,119 L 217,118 L 218,117 L 219,117 L 219,116 L 220,115 L 221,115 L 221,114 L 223,112 L 223,111 L 224,110 L 225,110 L 225,109 L 229,105 L 229,104 L 232,101 L 233,101 L 235,99 L 235,96 L 233,94 L 232,94 L 228,90 L 227,90 L 225,88 L 224,88 L 221,85 L 221,84 L 220,84 L 218,82 L 217,82 L 209,74 L 208,74 L 207,73 L 207,72 L 206,72 L 202,68 L 201,68 L 197,64 L 196,64 L 194,62 L 193,62 L 189,58 L 188,58 L 187,57 L 187,56 L 186,56 L 183,53 L 182,53 L 179,50 L 178,50 L 177,49 L 177,48 L 176,48 L 173,45 L 172,45 L 167,40 L 166,40 L 162,36 L 161,36 L 157,32 L 156,32 L 155,31 L 155,30 L 154,30 L 150,26 L 149,26 L 145,22 L 144,22 L 143,21 L 143,20 L 142,20 L 138,16 L 137,16 L 135,14 L 134,14 L 131,11 L 131,8 Z" fill="black" /></svg>