<?xml version='1.0' encoding='utf-8'?>
<svg width="258" height="220" xmlns="http://www.w3.org/2000/svg" viewBox="0 0 258 220"><rect width="258" height="220" fill="white" /><path d="M 59,151 L 58,152 L 52,152 L 50,154 L 49,154 L 48,155 L 47,155 L 46,156 L 45,156 L 45,157 L 44,158 L 44,159 L 43,160 L 43,161 L 42,162 L 42,163 L 41,164 L 41,177 L 42,178 L 42,179 L 43,180 L 43,182 L 47,186 L 48,186 L 49,187 L 50,187 L 51,188 L 51,189 L 55,189 L 56,190 L 57,190 L 58,191 L 60,191 L 61,190 L 64,190 L 65,189 L 67,189 L 69,187 L 72,187 L 76,183 L 76,181 L 78,179 L 78,178 L 79,177 L 79,176 L 80,175 L 80,165 L 78,163 L 78,161 L 76,159 L 76,158 L 75,158 L 74,157 L 74,156 L 73,156 L 72,155 L 72,154 L 71,154 L 70,153 L 69,153 L 68,152 L 66,152 L 65,151 Z" fill="black" /><path d="M 130,20 L 129,21 L 120,21 L 120,30 L 119,31 L 120,32 L 120,38 L 119,39 L 119,145 L 124,145 L 125,144 L 126,144 L 127,145 L 128,145 L 129,144 L 131,144 L 132,145 L 224,145 L 226,143 L 226,101 L 227,100 L 227,99 L 226,98 L 226,96 L 227,95 L 227,94 L 226,93 L 226,86 L 227,85 L 227,79 L 226,78 L 227,77 L 227,56 L 228,55 L 227,54 L 227,47 L 228,46 L 228,21 L 223,21 L 222,20 L 217,20 L 216,21 L 169,21 L 168,20 L 166,20 L 165,21 L 163,21 L 162,20 L 161,20 L 160,21 L 155,21 L 154,20 L 153,20 L 152,21 L 141,21 L 140,20 L 135,20 L 134,21 L 133,21 L 132,20 Z" fill="black" /></svg>