<?xml version='1.0' encoding='utf-8'?>
<svg width="257" height="223" xmlns="http://www.w3.org/2000/svg" viewBox="0 0 257 223"><rect width="257" height="223" fill="white" /><path d="M 156,71 L 156,72 L 155,73 L 155,75 L 154,76 L 154,83 L 153,84 L 153,85 L 152,86 L 152,90 L 151,91 L 151,93 L 150,94 L 150,101 L 149,102 L 149,104 L 148,105 L 148,111 L 147,112 L 147,115 L 146,116 L 146,122 L 145,123 L 145,125 L 144,126 L 144,131 L 143,132 L 143,135 L 142,136 L 142,142 L 141,143 L 141,145 L 140,146 L 140,152 L 139,153 L 139,157 L 142,157 L 143,156 L 144,156 L 145,155 L 149,155 L 150,154 L 152,154 L 153,153 L 157,153 L 158,152 L 160,152 L 161,151 L 165,151 L 166,150 L 168,150 L 169,149 L 173,149 L 174,148 L 175,148 L 176,147 L 181,147 L 182,146 L 183,146 L 184,145 L 189,145 L 190,144 L 191,144 L 192,143 L 197,143 L 198,142 L 200,142 L 201,141 L 205,141 L 206,140 L 209,140 L 210,139 L 214,139 L 215,138 L 215,136 L 213,134 L 212,134 L 211,133 L 211,132 L 209,130 L 209,129 L 205,125 L 205,124 L 204,124 L 203,123 L 203,122 L 202,122 L 201,121 L 201,120 L 200,120 L 197,117 L 197,116 L 193,112 L 193,111 L 185,103 L 185,102 L 184,102 L 183,101 L 183,100 L 182,100 L 181,99 L 181,98 L 180,98 L 177,95 L 177,94 L 169,86 L 169,85 L 163,79 L 163,78 L 162,78 L 161,77 L 161,76 L 160,76 L 159,75 L 159,74 Z" fill="black" /><path d="M 0,0 L 0,222 L 256,222 L 256,0 Z" fill="none" stroke="black" stroke-width="1" /></svg>