<?xml version='1.0' encoding='utf-8'?>
<svg width="263" height="220" xmlns="http://www.w3.org/2000/svg" viewBox="0 0 263 220"><rect width="263" height="220" fill="white" /><path d="M 182,128 L 182,130 L 181,131 L 181,134 L 180,135 L 180,136 L 179,137 L 179,139 L 178,140 L 178,141 L 177,142 L 177,145 L 176,146 L 176,147 L 175,148 L 175,151 L 174,152 L 174,153 L 173,154 L 173,157 L 172,158 L 172,159 L 171,160 L 171,163 L 170,164 L 170,165 L 169,166 L 169,168 L 168,169 L 168,170 L 167,171 L 167,174 L 165,176 L 165,185 L 183,185 L 184,184 L 208,184 L 209,183 L 213,183 L 214,184 L 215,183 L 219,183 L 220,184 L 221,184 L 222,183 L 231,183 L 232,184 L 233,183 L 234,183 L 233,182 L 233,181 L 232,180 L 231,180 L 230,179 L 230,178 L 226,174 L 226,173 L 225,173 L 224,172 L 224,171 L 214,161 L 214,160 L 213,160 L 212,159 L 212,158 L 211,158 L 208,155 L 208,154 L 202,148 L 202,147 L 196,141 L 196,140 L 195,140 L 194,139 L 194,138 L 193,138 L 190,135 L 190,134 L 187,131 L 187,130 L 185,128 Z" fill="black" /><path d="M 69,5 L 69,9 L 68,10 L 68,11 L 67,12 L 67,15 L 66,16 L 66,17 L 65,18 L 65,21 L 64,22 L 64,23 L 63,24 L 63,27 L 61,29 L 61,32 L 60,33 L 60,34 L 59,35 L 59,38 L 58,39 L 58,40 L 57,41 L 57,44 L 55,46 L 55,49 L 54,50 L 54,51 L 53,52 L 53,55 L 52,56 L 52,57 L 51,58 L 51,61 L 49,63 L 49,66 L 48,67 L 48,68 L 47,69 L 47,72 L 46,73 L 46,74 L 45,75 L 45,78 L 43,80 L 43,83 L 42,84 L 42,85 L 41,86 L 41,89 L 40,90 L 40,91 L 39,92 L 39,95 L 38,96 L 38,97 L 37,98 L 37,101 L 35,103 L 35,106 L 34,107 L 34,108 L 33,109 L 33,111 L 32,112 L 32,113 L 31,114 L 31,117 L 30,118 L 30,119 L 29,120 L 29,123 L 28,124 L 28,125 L 27,126 L 27,129 L 26,130 L 26,131 L 25,132 L 25,134 L 24,135 L 24,136 L 23,137 L 23,140 L 22,141 L 22,142 L 21,143 L 21,146 L 20,147 L 20,148 L 19,149 L 19,152 L 18,153 L 18,154 L 17,155 L 17,157 L 16,158 L 16,159 L 15,160 L 15,163 L 14,164 L 14,165 L 13,166 L 13,169 L 12,170 L 12,171 L 11,172 L 11,173 L 10,174 L 10,176 L 12,178 L 13,178 L 14,179 L 16,179 L 17,180 L 19,180 L 20,181 L 22,181 L 23,182 L 25,182 L 26,183 L 29,183 L 30,184 L 32,184 L 33,185 L 36,185 L 37,186 L 38,186 L 39,187 L 42,187 L 43,188 L 44,188 L 45,189 L 49,189 L 50,190 L 51,190 L 52,191 L 55,191 L 56,192 L 57,192 L 58,193 L 62,193 L 63,194 L 64,194 L 65,195 L 68,195 L 69,196 L 71,196 L 72,197 L 76,197 L 77,198 L 78,198 L 82,202 L 83,201 L 84,201 L 84,199 L 86,197 L 86,193 L 87,192 L 87,191 L 88,190 L 88,187 L 89,186 L 89,184 L 90,183 L 90,181 L 91,180 L 91,179 L 92,178 L 92,174 L 94,172 L 94,169 L 95,168 L 95,167 L 96,166 L 96,164 L 97,163 L 97,161 L 98,160 L 98,157 L 100,155 L 100,152 L 101,151 L 101,150 L 102,149 L 102,146 L 103,145 L 103,144 L 104,143 L 104,140 L 105,139 L 105,138 L 106,137 L 106,134 L 107,133 L 107,132 L 108,131 L 108,128 L 109,127 L 109,126 L 110,125 L 110,123 L 112,121 L 112,116 L 113,115 L 113,114 L 114,113 L 114,110 L 116,108 L 116,105 L 118,103 L 118,100 L 119,99 L 119,97 L 120,96 L 120,94 L 121,93 L 121,92 L 122,91 L 122,88 L 123,87 L 123,86 L 124,85 L 124,82 L 125,81 L 125,80 L 126,79 L 126,76 L 128,74 L 128,70 L 129,69 L 129,68 L 130,67 L 130,64 L 132,62 L 132,58 L 134,56 L 134,54 L 135,53 L 135,52 L 136,51 L 136,48 L 137,47 L 137,46 L 138,45 L 138,42 L 139,41 L 139,40 L 140,39 L 140,37 L 142,35 L 142,32 L 143,31 L 143,28 L 142,27 L 142,26 L 139,26 L 138,25 L 137,25 L 136,24 L 133,24 L 132,23 L 130,23 L 129,22 L 126,22 L 125,21 L 124,21 L 123,20 L 119,20 L 118,19 L 117,19 L 116,18 L 112,18 L 111,17 L 110,17 L 109,16 L 105,16 L 104,15 L 103,15 L 102,14 L 99,14 L 98,13 L 97,13 L 96,12 L 92,12 L 91,11 L 90,11 L 89,10 L 85,10 L 84,9 L 83,9 L 82,8 L 79,8 L 78,7 L 77,7 L 76,6 L 73,6 L 72,5 Z" fill="black" /><path d="M 0,0 L 0,219 L 262,219 L 262,0 Z" fill="none" stroke="black" stroke-width="1" /></svg>