<?xml version='1.0' encoding='utf-8'?>
<svg width="259" height="221" xmlns="http://www.w3.org/2000/svg" viewBox="0 0 259 221"><rect width="259" height="221" fill="white" /><path d="M 55,134 L 54,135 L 53,135 L 52,136 L 51,136 L 49,138 L 47,138 L 41,144 L 41,145 L 39,147 L 39,148 L 37,150 L 37,158 L 36,159 L 36,162 L 37,163 L 37,167 L 38,168 L 38,169 L 39,170 L 39,171 L 40,171 L 41,172 L 41,173 L 42,174 L 42,175 L 44,177 L 45,177 L 47,179 L 48,179 L 49,180 L 50,180 L 51,181 L 52,181 L 53,182 L 56,182 L 57,183 L 65,183 L 66,182 L 67,182 L 68,181 L 72,181 L 75,178 L 76,178 L 77,177 L 78,177 L 80,175 L 80,174 L 82,172 L 82,171 L 83,170 L 83,169 L 84,168 L 84,166 L 85,165 L 85,160 L 86,159 L 86,154 L 85,153 L 85,152 L 84,151 L 84,148 L 82,146 L 82,144 L 78,140 L 77,140 L 76,139 L 76,138 L 75,138 L 74,137 L 73,137 L 72,136 L 71,136 L 70,135 L 69,135 L 68,134 Z" fill="black" /><path d="M 181,32 L 179,34 L 179,69 L 180,70 L 180,81 L 181,82 L 182,82 L 183,83 L 235,83 L 235,62 L 236,61 L 236,36 L 235,35 L 235,32 Z" fill="black" /></svg>