<?xml version='1.0' encoding='utf-8'?>
<svg width="261" height="220" xmlns="http://www.w3.org/2000/svg" viewBox="0 0 261 220"><rect width="261" height="220" fill="white" /><path d="M 180,56 L 178,58 L 177,58 L 177,60 L 175,62 L 175,64 L 173,66 L 173,67 L 172,68 L 172,69 L 171,70 L 171,71 L 170,72 L 170,73 L 169,74 L 169,75 L 168,76 L 168,77 L 167,78 L 167,79 L 166,80 L 166,81 L 165,82 L 165,83 L 164,84 L 164,85 L 163,86 L 163,87 L 162,88 L 162,89 L 161,90 L 161,91 L 160,92 L 160,93 L 159,94 L 159,95 L 158,96 L 158,97 L 157,98 L 157,99 L 156,100 L 156,101 L 155,102 L 155,103 L 153,105 L 153,107 L 152,108 L 152,109 L 151,110 L 151,111 L 150,112 L 150,113 L 149,114 L 149,115 L 148,116 L 148,117 L 147,118 L 147,119 L 145,121 L 145,123 L 143,125 L 143,127 L 142,128 L 141,128 L 141,131 L 139,133 L 139,135 L 137,137 L 137,139 L 135,141 L 135,143 L 134,144 L 134,145 L 133,146 L 133,147 L 132,148 L 132,149 L 131,150 L 131,151 L 130,152 L 130,153 L 129,154 L 129,155 L 128,156 L 128,157 L 127,158 L 127,159 L 125,161 L 125,163 L 123,165 L 123,167 L 121,169 L 121,171 L 119,173 L 119,174 L 117,176 L 117,178 L 115,180 L 115,182 L 114,183 L 114,186 L 138,186 L 139,185 L 142,185 L 143,186 L 144,186 L 145,185 L 197,185 L 198,184 L 200,184 L 201,185 L 206,185 L 207,184 L 208,184 L 209,185 L 220,185 L 221,184 L 243,184 L 245,182 L 245,179 L 243,177 L 243,176 L 242,175 L 242,174 L 241,174 L 240,173 L 240,170 L 238,168 L 238,167 L 237,166 L 237,165 L 236,164 L 236,163 L 234,161 L 234,159 L 232,157 L 232,155 L 230,153 L 230,151 L 228,149 L 228,146 L 227,145 L 227,144 L 226,143 L 226,142 L 224,140 L 224,138 L 223,137 L 223,136 L 220,133 L 220,131 L 218,129 L 218,127 L 216,125 L 216,123 L 214,121 L 214,119 L 212,117 L 212,116 L 211,115 L 211,114 L 210,113 L 210,110 L 209,110 L 208,109 L 208,108 L 207,107 L 207,106 L 206,105 L 206,103 L 204,101 L 204,100 L 203,99 L 203,98 L 202,97 L 202,95 L 201,94 L 201,93 L 200,92 L 200,90 L 198,88 L 198,87 L 197,86 L 197,85 L 196,84 L 196,83 L 194,81 L 194,79 L 192,77 L 192,75 L 190,73 L 190,71 L 188,69 L 188,67 L 186,65 L 186,62 L 184,60 L 184,58 L 182,56 Z" fill="black" /><path d="M 75,20 L 74,21 L 71,21 L 70,22 L 67,22 L 66,23 L 65,23 L 64,24 L 61,24 L 60,25 L 59,25 L 58,26 L 56,26 L 54,28 L 53,28 L 52,29 L 51,29 L 50,30 L 49,30 L 47,32 L 47,33 L 46,34 L 45,34 L 43,36 L 42,36 L 42,37 L 41,38 L 40,38 L 36,42 L 36,43 L 35,44 L 35,45 L 34,46 L 33,46 L 33,47 L 32,48 L 32,50 L 30,52 L 30,53 L 29,54 L 29,55 L 27,57 L 27,60 L 26,61 L 26,62 L 25,63 L 25,69 L 24,70 L 24,74 L 25,75 L 24,76 L 24,77 L 23,78 L 24,79 L 24,83 L 25,84 L 25,90 L 26,91 L 26,93 L 27,94 L 27,97 L 28,98 L 28,99 L 29,100 L 29,103 L 31,105 L 31,106 L 33,108 L 33,109 L 34,110 L 34,111 L 35,112 L 35,113 L 36,113 L 37,114 L 37,115 L 39,117 L 40,117 L 41,118 L 41,119 L 45,123 L 46,123 L 47,124 L 48,124 L 49,125 L 50,125 L 51,126 L 52,126 L 54,128 L 54,129 L 55,129 L 56,130 L 57,130 L 58,131 L 60,131 L 61,132 L 62,132 L 63,133 L 68,133 L 69,134 L 72,134 L 73,135 L 82,135 L 83,134 L 89,134 L 90,133 L 96,133 L 97,132 L 98,132 L 99,131 L 102,131 L 103,130 L 104,130 L 105,129 L 108,129 L 108,128 L 109,127 L 110,127 L 113,124 L 114,124 L 115,123 L 116,123 L 118,121 L 119,121 L 121,119 L 122,119 L 122,118 L 128,112 L 128,111 L 130,109 L 130,108 L 131,107 L 131,106 L 132,105 L 132,104 L 133,103 L 133,102 L 134,101 L 134,98 L 136,96 L 136,94 L 137,93 L 137,90 L 138,89 L 138,68 L 137,67 L 137,66 L 136,65 L 136,60 L 135,59 L 135,58 L 134,57 L 134,56 L 133,55 L 133,54 L 132,53 L 132,52 L 131,51 L 131,50 L 128,47 L 128,46 L 124,42 L 124,41 L 123,40 L 122,40 L 116,34 L 115,34 L 114,33 L 114,32 L 113,32 L 112,31 L 111,31 L 110,30 L 109,30 L 108,29 L 108,28 L 106,28 L 104,26 L 101,26 L 100,25 L 99,25 L 98,24 L 96,24 L 95,23 L 93,23 L 92,22 L 87,22 L 86,21 L 78,21 L 77,20 Z" fill="black" /></svg>