<?xml version='1.0' encoding='utf-8'?>
<svg width="258" height="222" xmlns="http://www.w3.org/2000/svg" viewBox="0 0 258 222"><rect width="258" height="222" fill="white" /><path d="M 143,44 L 142,45 L 134,45 L 133,46 L 129,46 L 127,48 L 122,48 L 121,49 L 120,49 L 119,50 L 116,50 L 114,52 L 111,52 L 109,54 L 107,54 L 105,56 L 104,56 L 102,58 L 100,58 L 100,59 L 99,60 L 98,60 L 97,61 L 96,61 L 95,62 L 94,62 L 94,63 L 87,70 L 86,70 L 86,71 L 83,74 L 83,75 L 82,76 L 82,77 L 81,78 L 80,78 L 80,79 L 78,81 L 78,82 L 76,84 L 76,86 L 74,88 L 74,90 L 73,91 L 73,92 L 72,93 L 72,95 L 70,97 L 70,100 L 69,101 L 69,103 L 68,104 L 68,109 L 67,110 L 67,115 L 66,116 L 66,132 L 67,133 L 67,137 L 68,138 L 68,143 L 70,145 L 70,150 L 72,152 L 72,153 L 73,154 L 73,156 L 74,157 L 74,160 L 76,162 L 76,163 L 77,163 L 78,164 L 78,165 L 80,167 L 80,168 L 82,170 L 82,171 L 83,171 L 84,172 L 84,174 L 90,180 L 90,181 L 91,181 L 95,185 L 96,185 L 100,189 L 103,189 L 105,191 L 106,191 L 108,193 L 111,193 L 112,194 L 112,195 L 115,195 L 117,197 L 122,197 L 123,198 L 124,198 L 125,199 L 130,199 L 132,201 L 157,201 L 158,200 L 163,200 L 164,199 L 165,199 L 167,197 L 172,197 L 174,195 L 177,195 L 178,194 L 179,194 L 180,193 L 181,193 L 182,192 L 183,192 L 186,189 L 188,189 L 190,187 L 191,187 L 193,185 L 194,185 L 203,176 L 203,175 L 205,173 L 205,172 L 206,171 L 207,171 L 207,170 L 210,167 L 210,166 L 211,165 L 211,164 L 214,161 L 214,160 L 215,159 L 215,157 L 217,155 L 217,152 L 219,150 L 219,145 L 221,143 L 221,138 L 222,137 L 222,134 L 223,133 L 223,132 L 222,131 L 222,130 L 223,129 L 223,123 L 222,122 L 222,121 L 223,120 L 223,114 L 222,113 L 222,109 L 221,108 L 221,103 L 219,101 L 219,96 L 218,95 L 218,94 L 217,93 L 217,92 L 216,91 L 216,90 L 215,89 L 215,86 L 211,82 L 211,81 L 210,80 L 210,79 L 209,78 L 209,77 L 208,77 L 206,75 L 206,74 L 205,73 L 205,72 L 204,72 L 203,71 L 203,70 L 199,66 L 198,66 L 197,65 L 197,64 L 196,63 L 196,62 L 194,62 L 193,61 L 193,60 L 191,60 L 190,59 L 189,59 L 187,57 L 187,56 L 186,56 L 185,55 L 184,55 L 183,54 L 182,54 L 181,53 L 180,53 L 179,52 L 177,52 L 175,50 L 172,50 L 171,49 L 170,49 L 169,48 L 162,48 L 160,46 L 157,46 L 156,45 L 149,45 L 148,44 Z" fill="black" /></svg>