<?xml version='1.0' encoding='utf-8'?>
<svg width="257" height="220" xmlns="http://www.w3.org/2000/svg" viewBox="0 0 257 220"><rect width="257" height="220" fill="white" /><path d="M 58,124 L 58,125 L 57,126 L 55,126 L 55,129 L 52,132 L 51,132 L 49,134 L 50,135 L 51,134 L 53,134 L 54,133 L 56,133 L 58,135 L 58,137 L 57,138 L 56,138 L 55,137 L 53,137 L 53,139 L 54,139 L 56,141 L 58,141 L 59,142 L 58,143 L 58,144 L 57,145 L 59,145 L 60,144 L 62,144 L 62,142 L 61,141 L 61,140 L 62,139 L 64,139 L 65,138 L 66,138 L 66,137 L 68,135 L 72,135 L 72,132 L 71,131 L 70,131 L 68,133 L 67,133 L 64,130 L 63,130 L 62,129 L 62,128 L 63,127 L 63,126 L 62,125 L 60,125 L 59,124 Z" fill="black" /><path d="M 84,47 L 83,48 L 75,48 L 73,50 L 71,50 L 68,53 L 68,54 L 67,55 L 66,55 L 64,57 L 64,59 L 63,60 L 62,60 L 62,62 L 61,63 L 61,65 L 60,66 L 60,69 L 59,70 L 59,77 L 60,78 L 60,81 L 61,82 L 61,83 L 62,84 L 62,85 L 64,87 L 64,89 L 65,89 L 69,93 L 70,93 L 71,94 L 72,94 L 73,95 L 74,95 L 75,96 L 78,96 L 79,97 L 84,97 L 85,96 L 89,96 L 90,95 L 93,95 L 95,93 L 96,93 L 98,91 L 99,91 L 101,89 L 102,89 L 105,86 L 105,85 L 107,83 L 107,82 L 108,81 L 108,80 L 109,79 L 109,74 L 110,73 L 110,70 L 109,69 L 109,64 L 107,62 L 107,60 L 104,57 L 104,56 L 102,54 L 101,54 L 99,52 L 98,52 L 96,50 L 94,50 L 93,49 L 91,49 L 90,48 L 88,48 L 87,47 Z" fill="black" /><path d="M 0,0 L 0,219 L 256,219 L 256,0 Z" fill="none" stroke="black" stroke-width="1" /></svg>