<?xml version='1.0' encoding='utf-8'?>
<svg width="256" height="218" xmlns="http://www.w3.org/2000/svg" viewBox="0 0 256 218"><rect width="256" height="218" fill="white" /><path d="M 60,13 L 59,14 L 58,14 L 57,15 L 57,18 L 56,19 L 56,20 L 55,21 L 55,23 L 53,25 L 53,28 L 51,30 L 51,32 L 49,34 L 49,36 L 48,37 L 48,38 L 47,39 L 47,41 L 46,42 L 46,43 L 45,44 L 45,46 L 43,48 L 43,50 L 42,51 L 42,52 L 41,53 L 41,55 L 39,57 L 39,59 L 38,60 L 38,61 L 37,62 L 37,64 L 36,65 L 36,66 L 35,67 L 35,68 L 34,69 L 34,70 L 33,71 L 33,73 L 31,75 L 31,77 L 29,79 L 29,82 L 33,82 L 35,84 L 36,84 L 37,85 L 38,85 L 39,86 L 42,86 L 44,88 L 46,88 L 47,89 L 48,89 L 49,90 L 51,90 L 53,92 L 55,92 L 56,93 L 57,93 L 58,94 L 60,94 L 62,96 L 64,96 L 66,98 L 68,98 L 69,99 L 70,99 L 71,100 L 73,100 L 75,102 L 77,102 L 78,103 L 79,103 L 80,104 L 81,104 L 83,106 L 86,106 L 87,107 L 88,107 L 89,108 L 91,108 L 93,110 L 95,110 L 96,111 L 97,111 L 98,112 L 100,112 L 101,113 L 102,113 L 103,114 L 104,114 L 105,115 L 106,115 L 107,116 L 109,116 L 111,118 L 113,118 L 115,120 L 117,120 L 118,121 L 119,121 L 120,122 L 122,122 L 123,123 L 124,123 L 125,124 L 126,124 L 127,125 L 128,125 L 129,126 L 131,126 L 133,128 L 136,128 L 138,130 L 140,130 L 141,131 L 142,131 L 143,132 L 145,132 L 147,134 L 149,134 L 151,136 L 154,136 L 156,138 L 158,138 L 160,140 L 162,140 L 164,142 L 166,142 L 167,143 L 168,143 L 169,144 L 171,144 L 173,146 L 176,146 L 178,148 L 180,148 L 181,149 L 182,149 L 183,150 L 185,150 L 187,152 L 190,152 L 192,154 L 194,154 L 196,156 L 198,156 L 199,157 L 200,157 L 201,158 L 202,158 L 203,159 L 204,159 L 205,160 L 207,160 L 209,162 L 211,162 L 212,163 L 213,163 L 214,164 L 215,164 L 216,165 L 219,165 L 219,163 L 220,162 L 220,160 L 222,158 L 222,156 L 224,154 L 224,151 L 225,150 L 225,149 L 226,148 L 226,147 L 228,145 L 228,143 L 229,142 L 229,141 L 230,140 L 230,139 L 231,138 L 231,137 L 232,136 L 232,134 L 234,132 L 234,130 L 235,129 L 235,128 L 236,127 L 236,125 L 238,123 L 238,121 L 239,120 L 239,119 L 240,118 L 240,116 L 242,114 L 242,111 L 244,109 L 244,107 L 246,105 L 246,102 L 248,100 L 248,98 L 249,97 L 249,95 L 247,95 L 245,93 L 243,93 L 241,91 L 239,91 L 237,89 L 235,89 L 234,88 L 233,88 L 232,87 L 231,87 L 230,86 L 229,86 L 228,85 L 227,85 L 226,84 L 225,84 L 224,83 L 222,83 L 221,82 L 220,82 L 219,81 L 217,81 L 216,80 L 215,80 L 214,79 L 213,79 L 212,78 L 211,78 L 210,77 L 208,77 L 206,75 L 203,75 L 202,74 L 201,74 L 200,73 L 198,73 L 196,71 L 193,71 L 192,70 L 191,70 L 190,69 L 189,69 L 187,67 L 184,67 L 182,65 L 180,65 L 179,64 L 178,64 L 177,63 L 175,63 L 173,61 L 171,61 L 170,60 L 169,60 L 168,59 L 166,59 L 164,57 L 161,57 L 159,55 L 157,55 L 156,54 L 155,54 L 154,53 L 152,53 L 150,51 L 147,51 L 146,50 L 145,50 L 144,49 L 143,49 L 142,48 L 141,48 L 140,47 L 138,47 L 137,46 L 136,46 L 135,45 L 132,45 L 130,43 L 129,43 L 128,42 L 127,42 L 126,41 L 124,41 L 122,39 L 119,39 L 117,37 L 115,37 L 114,36 L 113,36 L 112,35 L 110,35 L 108,33 L 106,33 L 105,32 L 104,32 L 103,31 L 101,31 L 99,29 L 96,29 L 95,28 L 94,28 L 93,27 L 92,27 L 90,25 L 87,25 L 85,23 L 83,23 L 82,22 L 81,22 L 80,21 L 79,21 L 78,20 L 77,20 L 76,19 L 73,19 L 71,17 L 69,17 L 68,16 L 67,16 L 66,15 L 64,15 L 62,13 Z" fill="black" /><path d="M 0,0 L 0,217 L 255,217 L 255,0 Z" fill="none" stroke="black" stroke-width="1" /></svg>