<?xml version='1.0' encoding='utf-8'?>
<svg width="257" height="223" xmlns="http://www.w3.org/2000/svg" viewBox="0 0 257 223"><rect width="257" height="223" fill="white" /><path d="M 120,56 L 119,57 L 115,57 L 114,58 L 104,58 L 103,59 L 99,59 L 98,60 L 95,60 L 93,62 L 93,66 L 94,67 L 94,71 L 95,72 L 95,77 L 96,78 L 96,81 L 97,82 L 97,90 L 98,91 L 98,92 L 96,94 L 88,94 L 87,95 L 82,95 L 81,96 L 71,96 L 70,97 L 68,97 L 67,98 L 65,98 L 65,113 L 66,114 L 66,118 L 67,119 L 67,127 L 76,127 L 77,126 L 79,126 L 80,125 L 90,125 L 91,124 L 96,124 L 97,123 L 102,123 L 103,124 L 103,131 L 104,132 L 104,135 L 105,136 L 105,143 L 106,144 L 106,149 L 107,150 L 107,157 L 113,157 L 114,156 L 118,156 L 119,155 L 127,155 L 128,154 L 131,154 L 132,153 L 138,153 L 138,142 L 137,141 L 137,136 L 136,135 L 136,126 L 135,125 L 135,122 L 134,121 L 134,118 L 135,117 L 138,117 L 139,116 L 143,116 L 144,115 L 154,115 L 155,114 L 158,114 L 159,113 L 168,113 L 169,112 L 170,112 L 170,110 L 169,109 L 169,104 L 168,103 L 168,96 L 167,95 L 167,92 L 166,91 L 166,86 L 163,86 L 162,85 L 161,85 L 160,86 L 152,86 L 151,87 L 147,87 L 146,88 L 137,88 L 136,89 L 131,89 L 129,87 L 129,82 L 128,81 L 128,73 L 127,72 L 127,69 L 126,68 L 126,62 L 125,61 L 125,58 L 123,56 Z" fill="black" /><path d="M 0,0 L 0,222 L 256,222 L 256,0 Z" fill="none" stroke="black" stroke-width="1" /></svg>