<?xml version='1.0' encoding='utf-8'?>
<svg width="256" height="226" xmlns="http://www.w3.org/2000/svg" viewBox="0 0 256 226"><rect width="256" height="226" fill="white" /><path d="M 37,136 L 37,145 L 36,146 L 37,147 L 37,189 L 84,189 L 85,190 L 87,190 L 87,169 L 88,168 L 87,167 L 87,162 L 88,161 L 88,160 L 87,159 L 87,158 L 88,157 L 88,139 L 87,138 L 86,138 L 85,137 L 84,137 L 83,136 L 62,136 L 61,137 L 60,137 L 59,136 L 57,136 L 56,137 L 47,137 L 46,136 Z" fill="black" /><path d="M 188,32 L 186,34 L 186,84 L 192,84 L 193,85 L 203,85 L 204,84 L 205,84 L 206,85 L 207,85 L 208,84 L 220,84 L 221,85 L 234,85 L 235,84 L 239,84 L 239,45 L 240,44 L 240,42 L 239,41 L 239,32 Z" fill="black" /></svg>