<?xml version='1.0' encoding='utf-8'?>
<svg width="255" height="218" xmlns="http://www.w3.org/2000/svg" viewBox="0 0 255 218"><rect width="255" height="218" fill="white" /><path d="M 122,76 L 121,77 L 121,79 L 120,80 L 120,85 L 119,86 L 119,88 L 118,89 L 118,93 L 117,94 L 117,95 L 116,96 L 116,100 L 115,101 L 115,102 L 114,103 L 114,107 L 113,108 L 113,109 L 112,110 L 112,114 L 111,115 L 111,117 L 110,118 L 110,122 L 109,123 L 109,125 L 108,126 L 108,130 L 106,132 L 106,137 L 105,138 L 105,140 L 103,142 L 104,143 L 111,143 L 112,142 L 114,142 L 115,141 L 121,141 L 122,140 L 125,140 L 126,139 L 131,139 L 132,138 L 135,138 L 136,137 L 142,137 L 143,136 L 146,136 L 147,135 L 153,135 L 154,134 L 156,134 L 157,133 L 163,133 L 164,132 L 166,132 L 167,131 L 175,131 L 176,130 L 177,130 L 178,129 L 183,129 L 184,128 L 184,126 L 183,125 L 182,125 L 181,124 L 180,124 L 179,123 L 179,122 L 178,122 L 175,119 L 174,119 L 171,116 L 170,116 L 169,115 L 169,114 L 168,114 L 167,113 L 167,112 L 166,112 L 162,108 L 161,108 L 159,106 L 158,106 L 157,105 L 157,104 L 156,104 L 152,100 L 151,100 L 150,99 L 150,98 L 149,98 L 147,96 L 146,96 L 145,95 L 145,94 L 144,94 L 140,90 L 139,90 L 137,88 L 136,88 L 133,85 L 133,84 L 132,84 L 129,81 L 128,81 L 127,80 L 127,79 L 126,78 L 125,78 L 124,77 L 124,76 Z" fill="black" /><path d="M 0,0 L 0,217 L 254,217 L 254,0 Z" fill="none" stroke="black" stroke-width="1" /></svg>