<?xml version='1.0' encoding='utf-8'?>
<svg width="258" height="221" xmlns="http://www.w3.org/2000/svg" viewBox="0 0 258 221"><rect width="258" height="221" fill="white" /><path d="M 198,135 L 197,136 L 194,136 L 193,137 L 192,137 L 190,139 L 188,139 L 182,145 L 182,146 L 180,148 L 180,150 L 179,151 L 179,152 L 178,153 L 178,160 L 179,161 L 179,166 L 180,167 L 180,170 L 182,172 L 183,172 L 184,173 L 184,174 L 186,176 L 187,176 L 190,179 L 191,179 L 192,180 L 196,180 L 197,181 L 199,181 L 200,182 L 203,182 L 204,181 L 206,181 L 207,180 L 209,180 L 210,179 L 211,179 L 212,178 L 213,178 L 215,176 L 216,176 L 217,175 L 217,174 L 221,170 L 221,168 L 223,166 L 223,161 L 224,160 L 223,159 L 223,155 L 222,154 L 222,153 L 223,152 L 223,151 L 222,150 L 222,148 L 220,146 L 220,145 L 214,139 L 213,139 L 211,137 L 209,137 L 208,136 L 207,136 L 206,135 Z" fill="black" /><path d="M 61,102 L 60,103 L 60,106 L 59,107 L 59,108 L 58,109 L 58,110 L 57,111 L 57,114 L 56,115 L 56,119 L 55,120 L 55,121 L 54,122 L 54,125 L 53,126 L 53,127 L 52,128 L 52,131 L 50,133 L 50,138 L 49,139 L 49,140 L 48,141 L 48,144 L 47,145 L 47,146 L 46,147 L 46,152 L 45,153 L 45,154 L 44,155 L 44,158 L 43,159 L 43,160 L 42,161 L 42,164 L 41,165 L 41,166 L 40,167 L 40,170 L 39,171 L 39,174 L 42,174 L 43,173 L 46,173 L 47,172 L 50,172 L 51,171 L 53,171 L 54,170 L 58,170 L 59,169 L 60,169 L 61,168 L 64,168 L 65,167 L 68,167 L 69,166 L 73,166 L 74,165 L 76,165 L 77,164 L 81,164 L 82,163 L 84,163 L 85,162 L 90,162 L 92,160 L 97,160 L 98,159 L 101,159 L 102,158 L 105,158 L 106,157 L 109,157 L 110,156 L 113,156 L 113,155 L 114,154 L 93,133 L 92,133 L 91,132 L 91,131 L 62,102 Z" fill="black" /><path d="M 62,29 L 61,30 L 60,30 L 59,31 L 57,31 L 55,33 L 54,33 L 48,39 L 48,40 L 47,41 L 47,42 L 46,43 L 46,47 L 45,48 L 45,54 L 44,55 L 45,56 L 45,58 L 46,59 L 46,61 L 48,63 L 48,64 L 49,65 L 49,66 L 54,71 L 55,71 L 56,72 L 57,72 L 58,73 L 59,73 L 60,74 L 63,74 L 64,75 L 67,75 L 68,76 L 70,76 L 71,75 L 74,75 L 75,74 L 78,74 L 80,72 L 82,72 L 89,65 L 89,63 L 90,62 L 90,61 L 91,60 L 91,58 L 92,57 L 92,53 L 93,52 L 92,51 L 92,46 L 91,45 L 91,43 L 89,41 L 89,39 L 83,33 L 82,33 L 81,32 L 81,31 L 78,31 L 77,30 L 76,30 L 75,29 Z" fill="black" /><path d="M 182,22 L 182,24 L 181,25 L 181,26 L 180,27 L 180,30 L 179,31 L 179,32 L 178,33 L 178,36 L 177,37 L 177,39 L 176,40 L 176,43 L 175,44 L 175,45 L 174,46 L 174,49 L 173,50 L 173,52 L 172,53 L 172,56 L 171,57 L 171,58 L 170,59 L 170,62 L 169,63 L 169,64 L 168,65 L 168,69 L 167,70 L 167,71 L 166,72 L 166,75 L 165,76 L 165,77 L 164,78 L 164,81 L 163,82 L 163,84 L 162,85 L 162,88 L 161,89 L 161,90 L 160,91 L 160,95 L 164,95 L 165,94 L 168,94 L 169,93 L 171,93 L 172,92 L 177,92 L 178,91 L 179,91 L 180,90 L 185,90 L 186,89 L 188,89 L 189,88 L 193,88 L 194,87 L 196,87 L 197,86 L 201,86 L 202,85 L 204,85 L 205,84 L 209,84 L 210,83 L 212,83 L 213,82 L 217,82 L 218,81 L 219,81 L 220,80 L 223,80 L 224,79 L 224,78 L 223,77 L 222,77 L 221,76 L 221,75 L 220,74 L 220,73 L 219,72 L 219,71 L 218,71 L 217,70 L 217,69 L 215,67 L 215,66 L 213,64 L 213,63 L 212,63 L 211,62 L 211,60 L 209,58 L 209,57 L 208,57 L 207,56 L 207,55 L 206,54 L 206,53 L 205,52 L 205,51 L 204,51 L 203,50 L 203,49 L 202,48 L 202,47 L 199,44 L 199,43 L 197,41 L 197,39 L 195,37 L 195,36 L 193,34 L 193,33 L 192,32 L 192,31 L 189,28 L 189,27 L 188,26 L 188,25 L 186,25 L 185,24 L 185,23 L 184,22 Z" fill="black" /></svg>