<?xml version='1.0' encoding='utf-8'?>
<svg width="260" height="220" xmlns="http://www.w3.org/2000/svg" viewBox="0 0 260 220"><rect width="260" height="220" fill="white" /><path d="M 82,142 L 82,150 L 81,151 L 81,156 L 82,157 L 82,158 L 81,159 L 81,168 L 82,169 L 82,178 L 81,179 L 81,192 L 80,193 L 80,195 L 89,195 L 90,196 L 92,196 L 93,195 L 125,195 L 126,196 L 128,196 L 129,195 L 132,195 L 133,196 L 134,196 L 135,197 L 137,197 L 137,156 L 138,155 L 138,147 L 139,146 L 139,142 Z" fill="black" /><path d="M 176,52 L 174,54 L 174,107 L 220,107 L 220,102 L 219,101 L 219,94 L 220,93 L 220,86 L 219,85 L 219,83 L 220,82 L 220,79 L 219,78 L 219,67 L 220,66 L 220,64 L 219,63 L 219,56 L 220,55 L 220,52 Z" fill="black" /><path d="M 76,35 L 76,36 L 75,37 L 75,38 L 74,39 L 74,41 L 73,42 L 72,42 L 72,44 L 70,46 L 70,49 L 69,50 L 69,51 L 68,52 L 68,53 L 67,54 L 67,55 L 66,56 L 66,57 L 65,58 L 65,59 L 64,60 L 64,62 L 62,64 L 62,67 L 61,68 L 61,69 L 60,70 L 60,72 L 58,74 L 58,77 L 56,79 L 56,81 L 55,82 L 55,83 L 54,84 L 54,87 L 53,88 L 53,90 L 52,91 L 52,95 L 57,95 L 58,94 L 60,94 L 61,93 L 70,93 L 71,92 L 75,92 L 76,91 L 84,91 L 85,90 L 89,90 L 90,89 L 97,89 L 98,88 L 103,88 L 104,87 L 113,87 L 114,86 L 114,85 L 113,84 L 112,84 L 109,81 L 109,80 L 108,80 L 107,79 L 107,78 L 105,76 L 105,75 L 103,73 L 103,72 L 101,70 L 101,69 L 99,67 L 99,66 L 98,66 L 97,65 L 97,64 L 95,62 L 95,61 L 93,59 L 93,58 L 91,56 L 91,55 L 89,53 L 89,52 L 88,52 L 87,51 L 87,50 L 85,48 L 85,47 L 83,45 L 83,44 L 81,42 L 81,41 L 79,39 L 79,38 L 78,37 L 78,36 L 77,35 Z" fill="black" /></svg>