<?xml version="1.0" encoding="utf-8" ?>
<svg baseProfile="full" height="218" version="1.1" width="255" xmlns="http://www.w3.org/2000/svg" xmlns:ev="http://www.w3.org/2001/xml-events" xmlns:xlink="http://www.w3.org/1999/xlink"><defs /><rect fill="white" height="218" width="255" x="0" y="0" /><circle cx="39.969696044921875" cy="181.09091186523438" fill="none" r="22.11228370666504" stroke="black" stroke-width="1" /><circle cx="39.50467300415039" cy="181.71339416503906" fill="none" r="29.169553756713867" stroke="black" stroke-width="1" /><path d="M 185,151 L 185,184 L 221,183 L 220,152 Z" fill="none" stroke="black" stroke-width="1" /><path d="M 176,144 L 228,143 L 229,190 L 176,190 Z" fill="none" stroke="black" stroke-width="1" /><path d="M 96,103 L 91,135 L 121,129 Z" fill="none" stroke="black" stroke-width="1" /><path d="M 92,87 L 133,134 L 81,142 Z" fill="black" stroke="black" stroke-width="1" /><path d="M 55,23 L 56,50 L 86,50 L 86,23 Z" fill="none" stroke="black" stroke-width="1" /><circle cx="205.92453002929688" cy="39.69811248779297" fill="none" r="18.302139282226562" stroke="black" stroke-width="1" /><circle cx="206.12588500976562" cy="39.94435501098633" fill="none" r="24.257984161376953" stroke="black" stroke-width="1" /><path d="M 48,16 L 94,15 L 95,57 L 48,58 Z" fill="black" stroke="black" stroke-width="1" /><path d="M 0,0 L 0,217 L 254,217 L 254,0 Z" fill="none" stroke="black" stroke-width="1" /></svg>