<?xml version='1.0' encoding='utf-8'?>
<svg width="263" height="216" xmlns="http://www.w3.org/2000/svg" viewBox="0 0 263 216"><rect width="263" height="216" fill="white" /><path d="M 197,142 L 196,143 L 196,161 L 197,162 L 197,163 L 196,164 L 196,166 L 197,167 L 197,181 L 198,182 L 198,203 L 201,203 L 202,202 L 203,202 L 204,201 L 205,201 L 207,199 L 209,199 L 211,197 L 212,197 L 214,195 L 216,195 L 218,193 L 219,193 L 220,192 L 221,192 L 222,191 L 223,191 L 224,190 L 225,190 L 226,189 L 227,189 L 229,187 L 231,187 L 233,185 L 235,185 L 237,183 L 239,183 L 241,181 L 242,181 L 244,179 L 246,179 L 247,178 L 248,178 L 250,176 L 249,175 L 249,174 L 246,174 L 243,171 L 242,171 L 241,170 L 240,170 L 237,167 L 236,167 L 235,166 L 234,166 L 233,165 L 233,164 L 232,164 L 231,163 L 230,163 L 229,162 L 228,162 L 226,160 L 225,160 L 223,158 L 222,158 L 220,156 L 219,156 L 217,154 L 216,154 L 215,153 L 214,153 L 213,152 L 212,152 L 210,150 L 209,150 L 207,148 L 206,148 L 204,146 L 202,146 L 201,145 L 201,144 L 200,144 L 199,143 L 198,143 Z" fill="black" /><path d="M 109,115 L 108,116 L 103,116 L 103,118 L 104,119 L 104,120 L 103,121 L 103,124 L 104,125 L 104,147 L 105,148 L 105,152 L 104,153 L 104,157 L 105,158 L 104,159 L 104,161 L 105,162 L 104,163 L 104,167 L 106,169 L 109,169 L 110,170 L 120,170 L 121,169 L 128,169 L 129,170 L 131,170 L 132,169 L 155,169 L 155,116 L 150,116 L 149,115 L 138,115 L 137,116 L 136,115 Z" fill="black" /><path d="M 180,38 L 178,40 L 178,43 L 176,45 L 176,47 L 175,48 L 175,49 L 174,50 L 174,52 L 173,53 L 173,54 L 172,55 L 172,57 L 171,58 L 171,59 L 170,60 L 170,61 L 169,62 L 169,63 L 168,64 L 168,67 L 166,69 L 166,71 L 165,72 L 165,73 L 164,74 L 164,75 L 163,76 L 163,77 L 162,78 L 162,81 L 161,82 L 161,83 L 160,84 L 160,87 L 161,87 L 162,88 L 163,88 L 164,87 L 169,87 L 170,88 L 202,88 L 203,89 L 211,89 L 212,88 L 212,85 L 210,83 L 210,82 L 209,81 L 209,79 L 207,77 L 207,76 L 205,74 L 205,73 L 203,71 L 203,70 L 202,69 L 202,68 L 201,67 L 201,66 L 199,64 L 199,63 L 197,61 L 197,60 L 195,58 L 195,57 L 193,55 L 193,54 L 192,53 L 192,52 L 191,51 L 191,50 L 190,50 L 189,49 L 189,48 L 188,47 L 188,46 L 187,45 L 187,44 L 185,42 L 185,41 L 183,39 L 183,38 Z" fill="black" /><path d="M 34,32 L 33,33 L 34,34 L 34,35 L 36,37 L 36,39 L 38,41 L 38,43 L 40,45 L 40,46 L 41,47 L 41,48 L 42,49 L 42,50 L 44,52 L 44,53 L 45,54 L 45,55 L 46,56 L 46,57 L 47,58 L 47,59 L 48,60 L 48,61 L 49,62 L 49,63 L 50,64 L 50,65 L 51,66 L 51,67 L 52,68 L 52,69 L 53,70 L 53,71 L 54,72 L 54,73 L 56,75 L 56,77 L 57,78 L 57,79 L 58,80 L 58,81 L 59,82 L 62,82 L 62,80 L 63,79 L 63,78 L 65,76 L 65,74 L 66,73 L 66,72 L 67,71 L 67,70 L 68,69 L 68,68 L 69,67 L 69,66 L 70,65 L 70,64 L 71,63 L 71,62 L 73,60 L 73,58 L 74,57 L 74,56 L 75,55 L 75,54 L 76,53 L 76,52 L 77,51 L 77,50 L 79,48 L 79,47 L 81,45 L 81,43 L 82,42 L 82,41 L 83,40 L 83,38 L 84,37 L 84,36 L 85,35 L 85,34 L 86,33 L 85,32 Z" fill="black" /></svg>