<?xml version='1.0' encoding='utf-8'?>
<svg width="258" height="219" xmlns="http://www.w3.org/2000/svg" viewBox="0 0 258 219"><rect width="258" height="219" fill="white" /><path d="M 74,132 L 73,133 L 69,133 L 68,134 L 64,134 L 63,135 L 62,135 L 61,136 L 59,136 L 57,138 L 56,138 L 56,139 L 53,142 L 52,142 L 52,143 L 51,144 L 51,145 L 50,146 L 50,147 L 49,148 L 48,148 L 48,151 L 46,153 L 46,169 L 47,170 L 47,171 L 48,172 L 48,173 L 49,174 L 49,175 L 50,176 L 50,177 L 51,178 L 51,179 L 53,181 L 54,181 L 59,186 L 60,186 L 61,187 L 63,187 L 65,189 L 71,189 L 72,190 L 73,190 L 74,189 L 81,189 L 82,188 L 83,188 L 84,187 L 86,187 L 88,185 L 89,185 L 90,184 L 91,184 L 92,183 L 93,183 L 95,181 L 96,181 L 96,180 L 101,175 L 101,174 L 102,173 L 102,172 L 103,171 L 103,168 L 104,167 L 104,166 L 105,165 L 105,154 L 104,153 L 104,152 L 103,151 L 103,149 L 101,147 L 101,145 L 97,141 L 97,140 L 95,138 L 93,138 L 91,136 L 89,136 L 88,135 L 87,135 L 86,134 L 84,134 L 83,133 L 79,133 L 78,132 Z" fill="black" /><path d="M 157,40 L 157,61 L 158,62 L 158,74 L 157,75 L 157,92 L 158,93 L 158,95 L 161,95 L 162,94 L 169,94 L 170,95 L 211,95 L 211,92 L 212,91 L 212,50 L 213,49 L 213,46 L 212,45 L 212,43 L 211,42 L 211,41 L 210,40 L 198,40 L 197,41 L 196,40 L 189,40 L 188,41 L 187,41 L 186,40 Z" fill="black" /></svg>