<?xml version='1.0' encoding='utf-8'?>
<svg width="255" height="218" xmlns="http://www.w3.org/2000/svg" viewBox="0 0 255 218"><rect width="255" height="218" fill="white" /><path d="M 35,154 L 34,155 L 32,155 L 31,156 L 28,156 L 26,158 L 25,158 L 21,162 L 20,162 L 19,163 L 19,164 L 17,166 L 17,167 L 16,168 L 15,168 L 15,171 L 14,172 L 13,172 L 13,180 L 12,181 L 12,183 L 13,184 L 13,189 L 14,190 L 14,191 L 15,192 L 15,193 L 16,194 L 16,195 L 17,196 L 17,197 L 18,197 L 19,198 L 19,199 L 20,199 L 21,200 L 21,201 L 22,201 L 26,205 L 28,205 L 30,207 L 33,207 L 34,208 L 35,208 L 36,209 L 45,209 L 46,208 L 48,208 L 49,207 L 51,207 L 54,204 L 56,204 L 57,203 L 58,203 L 60,201 L 60,200 L 61,199 L 62,199 L 62,197 L 64,195 L 64,194 L 65,193 L 65,192 L 66,191 L 66,188 L 67,187 L 67,186 L 66,185 L 66,183 L 67,182 L 67,179 L 66,178 L 66,173 L 65,172 L 65,171 L 64,170 L 64,169 L 63,168 L 63,167 L 62,166 L 62,165 L 60,163 L 59,163 L 58,162 L 58,161 L 57,161 L 56,160 L 56,159 L 55,158 L 54,158 L 53,157 L 52,157 L 51,156 L 49,156 L 48,155 L 45,155 L 44,154 Z" fill="black" /><path d="M 186,143 L 185,144 L 177,144 L 177,162 L 176,163 L 176,189 L 200,189 L 201,190 L 202,189 L 204,189 L 205,190 L 207,190 L 208,189 L 209,190 L 228,190 L 228,185 L 229,184 L 229,181 L 228,180 L 228,176 L 229,175 L 229,172 L 228,171 L 228,170 L 229,169 L 229,168 L 228,167 L 228,164 L 229,163 L 229,148 L 228,147 L 228,144 L 189,144 L 188,143 Z" fill="black" /><path d="M 92,88 L 91,89 L 91,95 L 90,96 L 90,99 L 89,100 L 89,107 L 88,108 L 88,111 L 87,112 L 87,117 L 86,118 L 86,121 L 85,122 L 85,128 L 84,129 L 84,132 L 83,133 L 83,139 L 82,140 L 82,142 L 84,144 L 87,144 L 88,143 L 93,143 L 94,142 L 96,142 L 97,141 L 101,141 L 102,140 L 104,140 L 105,139 L 108,139 L 109,138 L 110,138 L 111,137 L 117,137 L 118,136 L 120,136 L 121,135 L 125,135 L 126,134 L 129,134 L 130,133 L 133,133 L 134,132 L 134,128 L 132,126 L 131,126 L 128,123 L 128,122 L 127,122 L 126,121 L 126,120 L 125,120 L 124,119 L 124,118 L 123,118 L 122,117 L 122,116 L 121,116 L 118,113 L 118,112 L 113,107 L 113,106 L 112,106 L 111,105 L 111,104 L 102,95 L 101,95 L 100,94 L 100,93 L 99,92 L 98,92 L 94,88 Z" fill="black" /><path d="M 204,17 L 203,18 L 199,18 L 198,19 L 197,19 L 196,20 L 194,20 L 190,24 L 189,24 L 189,25 L 188,26 L 188,27 L 187,28 L 187,29 L 186,30 L 185,30 L 185,35 L 184,36 L 184,41 L 183,42 L 184,43 L 184,46 L 185,47 L 185,49 L 186,50 L 186,51 L 187,52 L 187,53 L 189,55 L 190,55 L 191,56 L 191,57 L 193,59 L 194,59 L 195,60 L 196,60 L 197,61 L 200,61 L 201,62 L 202,62 L 203,63 L 208,63 L 209,62 L 212,62 L 213,61 L 214,61 L 216,59 L 218,59 L 218,58 L 219,57 L 220,57 L 221,56 L 222,56 L 222,55 L 225,52 L 225,51 L 226,50 L 226,48 L 227,47 L 228,47 L 228,42 L 227,41 L 227,40 L 228,39 L 228,34 L 227,33 L 227,32 L 226,31 L 226,29 L 224,27 L 224,25 L 221,22 L 220,22 L 218,20 L 217,20 L 216,19 L 215,19 L 214,18 L 208,18 L 207,17 Z" fill="black" /><path d="M 70,15 L 69,16 L 49,16 L 49,21 L 48,22 L 48,23 L 49,24 L 49,45 L 48,46 L 48,57 L 94,57 L 94,16 L 88,16 L 87,15 L 86,16 L 81,16 L 80,15 L 79,15 L 78,16 L 71,16 Z" fill="black" /></svg>