<?xml version='1.0' encoding='utf-8'?>
<svg width="258" height="217" xmlns="http://www.w3.org/2000/svg" viewBox="0 0 258 217"><rect width="258" height="217" fill="white" /><path d="M 196,153 L 195,154 L 195,155 L 194,156 L 194,157 L 193,158 L 192,158 L 192,159 L 190,161 L 190,163 L 189,164 L 189,165 L 188,166 L 188,167 L 186,169 L 186,171 L 184,173 L 184,175 L 183,176 L 182,176 L 182,178 L 180,180 L 180,183 L 179,184 L 178,184 L 178,187 L 174,191 L 174,193 L 173,194 L 173,195 L 172,196 L 172,199 L 174,201 L 183,201 L 184,200 L 185,200 L 186,201 L 189,201 L 190,200 L 199,200 L 200,201 L 201,201 L 202,200 L 211,200 L 212,201 L 213,201 L 214,200 L 223,200 L 223,195 L 222,194 L 222,193 L 221,192 L 221,190 L 220,189 L 220,188 L 219,187 L 219,185 L 217,183 L 217,182 L 215,180 L 215,178 L 213,176 L 213,175 L 211,173 L 211,171 L 209,169 L 209,168 L 208,167 L 208,166 L 207,165 L 207,164 L 206,163 L 206,162 L 205,161 L 205,160 L 203,158 L 203,156 L 200,153 Z" fill="black" /><path d="M 60,140 L 59,141 L 58,141 L 56,143 L 56,176 L 58,178 L 58,179 L 89,179 L 93,175 L 93,173 L 92,172 L 92,171 L 91,170 L 91,164 L 92,163 L 92,162 L 91,161 L 91,140 L 72,140 L 71,141 L 66,141 L 65,140 Z" fill="black" /><path d="M 188,40 L 186,42 L 186,45 L 184,47 L 184,49 L 182,51 L 182,52 L 181,53 L 181,54 L 180,55 L 180,56 L 178,58 L 178,60 L 176,62 L 176,63 L 175,64 L 174,64 L 174,66 L 172,68 L 172,69 L 171,70 L 171,71 L 170,72 L 170,74 L 168,76 L 168,77 L 167,78 L 167,79 L 166,80 L 166,82 L 164,84 L 164,85 L 163,86 L 164,87 L 169,87 L 170,88 L 171,88 L 172,87 L 181,87 L 182,88 L 183,88 L 184,87 L 186,87 L 187,88 L 191,88 L 192,87 L 193,87 L 194,88 L 195,88 L 196,87 L 199,87 L 200,88 L 201,87 L 214,87 L 216,85 L 216,83 L 215,82 L 215,80 L 214,79 L 214,78 L 213,77 L 213,76 L 212,75 L 212,74 L 209,71 L 209,68 L 207,66 L 207,65 L 205,63 L 205,61 L 203,59 L 203,58 L 201,56 L 201,54 L 199,52 L 199,50 L 198,49 L 198,48 L 195,45 L 195,42 L 193,40 Z" fill="black" /><path d="M 50,28 L 49,29 L 48,29 L 47,30 L 44,30 L 44,31 L 43,32 L 41,32 L 37,36 L 37,37 L 36,38 L 36,39 L 35,40 L 34,40 L 34,42 L 32,44 L 32,49 L 31,50 L 31,53 L 30,54 L 30,55 L 31,56 L 31,57 L 32,58 L 32,63 L 34,65 L 34,66 L 36,68 L 36,69 L 39,72 L 39,73 L 40,74 L 41,74 L 42,75 L 43,75 L 45,77 L 47,77 L 48,78 L 48,79 L 62,79 L 63,78 L 65,78 L 66,77 L 67,77 L 68,76 L 69,76 L 70,75 L 71,75 L 72,74 L 73,74 L 76,71 L 77,71 L 77,70 L 78,69 L 78,68 L 79,67 L 79,66 L 80,65 L 80,64 L 81,63 L 81,57 L 82,56 L 82,48 L 81,47 L 81,44 L 80,43 L 80,42 L 79,41 L 79,40 L 75,36 L 75,35 L 71,31 L 70,31 L 69,30 L 68,30 L 67,29 L 64,29 L 63,28 Z" fill="black" /></svg>