<?xml version='1.0' encoding='utf-8'?>
<svg width="258" height="214" xmlns="http://www.w3.org/2000/svg" viewBox="0 0 258 214"><rect width="258" height="214" fill="white" /><path d="M 74,155 L 73,156 L 68,156 L 67,157 L 67,160 L 66,161 L 66,163 L 67,164 L 67,168 L 68,169 L 68,193 L 67,194 L 67,197 L 101,197 L 103,195 L 103,160 L 102,159 L 102,158 L 103,157 L 103,156 L 102,155 L 88,155 L 87,156 L 86,156 L 85,155 Z" fill="black" /><path d="M 194,136 L 193,137 L 192,137 L 191,138 L 188,138 L 186,140 L 184,140 L 182,142 L 182,143 L 181,144 L 180,144 L 180,145 L 177,148 L 177,149 L 176,150 L 176,151 L 175,152 L 175,153 L 174,154 L 174,157 L 173,158 L 173,169 L 174,170 L 174,172 L 175,173 L 175,174 L 176,175 L 176,177 L 177,177 L 178,178 L 178,179 L 182,183 L 183,183 L 184,184 L 184,185 L 186,185 L 188,187 L 191,187 L 192,188 L 205,188 L 206,187 L 209,187 L 210,186 L 211,186 L 214,183 L 215,183 L 219,179 L 219,178 L 220,177 L 220,176 L 221,175 L 221,174 L 223,172 L 223,170 L 224,169 L 224,167 L 225,166 L 225,163 L 224,162 L 225,161 L 225,158 L 223,156 L 223,152 L 221,150 L 221,149 L 219,147 L 219,146 L 218,146 L 217,145 L 217,144 L 213,140 L 212,140 L 211,139 L 210,139 L 209,138 L 208,138 L 207,137 L 206,137 L 205,136 Z" fill="black" /><path d="M 56,60 L 55,61 L 52,61 L 51,62 L 49,62 L 47,64 L 46,64 L 45,65 L 44,65 L 43,66 L 42,66 L 42,67 L 41,68 L 40,68 L 40,69 L 39,70 L 38,70 L 38,71 L 37,72 L 36,72 L 36,73 L 35,74 L 35,75 L 34,76 L 34,78 L 32,80 L 32,85 L 31,86 L 31,88 L 30,89 L 31,90 L 31,93 L 32,94 L 32,97 L 33,98 L 33,99 L 34,100 L 34,101 L 35,101 L 36,102 L 36,103 L 42,109 L 44,109 L 46,111 L 49,111 L 51,113 L 56,113 L 57,112 L 61,112 L 62,111 L 65,111 L 66,110 L 69,110 L 70,109 L 71,109 L 71,108 L 72,107 L 73,107 L 73,106 L 74,105 L 75,105 L 77,103 L 77,102 L 78,101 L 79,101 L 79,100 L 81,98 L 81,95 L 82,94 L 82,92 L 83,91 L 83,81 L 82,80 L 82,79 L 81,78 L 81,76 L 80,75 L 80,74 L 79,73 L 79,72 L 77,70 L 77,69 L 76,68 L 75,68 L 73,66 L 72,66 L 71,65 L 71,64 L 70,64 L 69,63 L 68,63 L 67,62 L 62,62 L 61,61 L 58,61 L 57,60 Z" fill="black" /><path d="M 194,24 L 192,26 L 192,27 L 191,28 L 191,29 L 190,30 L 190,32 L 188,34 L 188,35 L 186,37 L 186,38 L 184,40 L 184,42 L 183,43 L 183,44 L 182,45 L 182,46 L 180,48 L 180,49 L 179,50 L 179,51 L 178,52 L 178,53 L 177,54 L 177,55 L 176,56 L 176,57 L 175,58 L 175,59 L 174,60 L 174,61 L 173,62 L 173,63 L 172,64 L 172,66 L 171,67 L 171,69 L 170,70 L 170,73 L 179,73 L 180,72 L 181,73 L 188,73 L 189,72 L 205,72 L 206,73 L 209,73 L 210,72 L 215,72 L 216,73 L 217,73 L 218,72 L 221,72 L 222,71 L 225,71 L 226,70 L 225,69 L 225,68 L 223,66 L 223,65 L 222,64 L 222,63 L 221,62 L 221,61 L 217,57 L 217,54 L 216,54 L 215,53 L 215,51 L 213,49 L 213,48 L 212,48 L 211,47 L 211,45 L 209,43 L 209,42 L 208,41 L 208,40 L 207,39 L 207,38 L 206,38 L 205,37 L 205,36 L 204,35 L 204,34 L 203,34 L 202,33 L 202,32 L 201,31 L 201,29 L 199,27 L 199,26 L 198,25 L 198,24 Z" fill="black" /></svg>