<?xml version='1.0' encoding='utf-8'?>
<svg width="258" height="216" xmlns="http://www.w3.org/2000/svg" viewBox="0 0 258 216"><rect width="258" height="216" fill="white" /><path d="M 110,146 L 109,147 L 108,147 L 107,148 L 102,148 L 101,149 L 100,149 L 99,150 L 98,150 L 96,152 L 95,152 L 95,153 L 92,156 L 92,157 L 88,161 L 88,163 L 87,164 L 87,167 L 86,168 L 86,177 L 87,178 L 87,181 L 88,182 L 88,185 L 89,186 L 90,186 L 92,188 L 92,191 L 93,191 L 95,193 L 96,193 L 98,195 L 101,195 L 103,197 L 107,197 L 108,198 L 115,198 L 116,199 L 117,198 L 118,198 L 119,197 L 121,197 L 122,196 L 125,196 L 126,195 L 127,195 L 129,193 L 129,192 L 130,191 L 131,191 L 135,187 L 135,186 L 136,185 L 136,184 L 137,183 L 137,181 L 139,179 L 139,170 L 138,169 L 138,166 L 137,165 L 137,162 L 135,160 L 135,159 L 133,157 L 133,156 L 131,154 L 130,154 L 129,153 L 129,152 L 127,150 L 125,150 L 123,148 L 120,148 L 119,147 L 116,147 L 115,146 Z" fill="black" /><path d="M 67,101 L 66,102 L 21,102 L 20,103 L 19,103 L 19,105 L 20,106 L 20,109 L 22,111 L 22,112 L 24,114 L 24,115 L 26,117 L 26,118 L 28,120 L 28,121 L 29,122 L 29,123 L 32,126 L 32,128 L 33,128 L 34,129 L 34,131 L 35,131 L 36,132 L 36,133 L 38,135 L 38,136 L 40,138 L 40,139 L 41,139 L 42,140 L 42,141 L 44,143 L 44,144 L 47,147 L 49,147 L 51,145 L 51,144 L 53,142 L 53,140 L 54,139 L 55,139 L 55,138 L 56,137 L 56,136 L 57,135 L 57,134 L 58,133 L 58,132 L 59,131 L 59,130 L 61,128 L 61,126 L 62,125 L 62,124 L 63,123 L 64,123 L 64,122 L 65,121 L 65,120 L 66,119 L 66,117 L 68,115 L 69,115 L 69,114 L 70,113 L 70,112 L 71,111 L 71,109 L 72,108 L 73,108 L 73,106 L 74,105 L 74,102 L 73,102 L 72,101 Z" fill="black" /><path d="M 187,100 L 186,101 L 179,101 L 177,103 L 177,107 L 176,108 L 176,112 L 177,113 L 177,115 L 178,116 L 178,118 L 177,119 L 177,120 L 178,121 L 178,129 L 177,130 L 177,135 L 179,137 L 181,137 L 182,136 L 187,136 L 188,135 L 189,135 L 190,136 L 209,136 L 210,135 L 216,135 L 216,132 L 215,131 L 215,118 L 214,117 L 214,112 L 215,111 L 215,110 L 214,109 L 214,101 L 213,100 Z" fill="black" /><path d="M 103,20 L 102,21 L 101,21 L 100,22 L 96,22 L 95,23 L 94,23 L 93,24 L 92,24 L 90,26 L 88,26 L 86,28 L 86,29 L 85,30 L 84,30 L 84,31 L 83,32 L 83,33 L 82,34 L 82,35 L 81,36 L 81,37 L 80,38 L 80,40 L 79,41 L 79,43 L 78,44 L 78,47 L 79,48 L 79,54 L 80,55 L 80,57 L 81,58 L 81,59 L 82,60 L 82,61 L 83,62 L 83,63 L 89,69 L 90,69 L 92,71 L 93,71 L 94,72 L 95,72 L 96,73 L 99,73 L 100,74 L 101,73 L 113,73 L 115,71 L 117,71 L 117,70 L 118,69 L 119,69 L 121,67 L 122,67 L 125,64 L 125,63 L 129,59 L 129,56 L 131,54 L 131,40 L 130,39 L 130,38 L 129,37 L 129,36 L 128,35 L 128,34 L 127,33 L 127,32 L 126,32 L 125,31 L 125,29 L 124,28 L 122,28 L 120,26 L 120,25 L 119,24 L 116,24 L 114,22 L 112,22 L 111,21 L 109,21 L 108,20 L 107,21 L 104,21 Z" fill="black" /><path d="M 182,12 L 182,13 L 180,15 L 180,17 L 178,19 L 178,21 L 175,24 L 175,25 L 174,26 L 174,27 L 172,29 L 172,31 L 171,32 L 170,32 L 170,33 L 169,34 L 169,35 L 166,38 L 166,39 L 165,40 L 165,41 L 164,42 L 164,43 L 163,44 L 163,45 L 162,46 L 162,47 L 160,49 L 160,50 L 158,52 L 158,53 L 157,54 L 157,55 L 156,56 L 156,59 L 153,62 L 155,64 L 177,64 L 178,63 L 199,63 L 200,64 L 209,64 L 210,63 L 210,58 L 209,57 L 209,56 L 206,53 L 206,52 L 205,51 L 205,48 L 204,48 L 203,47 L 203,45 L 201,43 L 201,41 L 199,39 L 199,37 L 197,35 L 197,34 L 196,33 L 196,32 L 195,31 L 195,30 L 193,28 L 193,27 L 191,25 L 191,23 L 189,21 L 189,20 L 188,19 L 188,18 L 187,17 L 187,16 L 184,13 L 184,12 Z" fill="black" /></svg>