<?xml version='1.0' encoding='utf-8'?>
<svg width="258" height="218" xmlns="http://www.w3.org/2000/svg" viewBox="0 0 258 218"><rect width="258" height="218" fill="white" /><path d="M 35,153 L 34,154 L 27,154 L 26,155 L 26,157 L 25,158 L 25,169 L 26,170 L 26,187 L 32,187 L 33,186 L 36,186 L 37,187 L 39,187 L 40,186 L 42,186 L 43,187 L 45,187 L 46,186 L 62,186 L 63,185 L 63,182 L 62,181 L 62,180 L 63,179 L 63,174 L 62,173 L 62,162 L 61,161 L 61,158 L 62,157 L 63,157 L 63,155 L 62,154 L 56,154 L 55,153 L 54,153 L 53,154 L 48,154 L 47,153 L 46,153 L 45,154 L 36,154 Z" fill="black" /><path d="M 207,147 L 204,150 L 204,152 L 202,154 L 202,155 L 200,157 L 200,158 L 198,160 L 198,161 L 196,163 L 196,165 L 193,168 L 193,169 L 190,172 L 190,175 L 186,179 L 186,181 L 185,182 L 185,183 L 184,184 L 184,185 L 187,185 L 188,186 L 191,186 L 192,185 L 194,185 L 195,186 L 200,186 L 201,185 L 204,185 L 205,186 L 209,186 L 210,185 L 221,185 L 222,186 L 223,186 L 224,185 L 225,186 L 227,186 L 228,187 L 230,187 L 231,186 L 231,180 L 230,180 L 229,179 L 229,178 L 228,177 L 228,176 L 227,175 L 227,174 L 225,172 L 225,170 L 223,168 L 223,167 L 221,165 L 221,164 L 219,162 L 219,161 L 217,159 L 217,158 L 216,157 L 216,156 L 215,155 L 215,154 L 213,152 L 213,150 L 210,147 Z" fill="black" /><path d="M 136,98 L 135,99 L 134,99 L 133,100 L 132,100 L 131,101 L 130,101 L 129,102 L 128,102 L 120,110 L 120,111 L 119,112 L 119,113 L 118,114 L 118,118 L 117,119 L 117,127 L 118,128 L 118,131 L 119,132 L 119,133 L 120,134 L 120,136 L 122,138 L 122,139 L 124,141 L 125,141 L 127,143 L 128,143 L 130,145 L 131,145 L 132,146 L 133,146 L 134,147 L 137,147 L 138,148 L 141,148 L 142,149 L 143,149 L 144,148 L 148,148 L 149,147 L 151,147 L 152,146 L 153,146 L 154,145 L 156,145 L 158,143 L 159,143 L 165,137 L 165,135 L 167,133 L 167,131 L 168,130 L 168,129 L 169,128 L 169,118 L 168,117 L 168,115 L 167,114 L 167,111 L 157,101 L 156,101 L 155,100 L 154,100 L 153,99 L 150,99 L 149,98 Z" fill="black" /><path d="M 196,28 L 195,29 L 185,29 L 184,30 L 184,63 L 212,63 L 213,62 L 214,62 L 215,63 L 218,63 L 219,62 L 219,49 L 218,48 L 218,29 L 212,29 L 211,28 L 206,28 L 205,29 L 204,29 L 203,28 Z" fill="black" /><path d="M 52,11 L 51,12 L 42,12 L 40,14 L 38,14 L 36,16 L 35,16 L 33,18 L 32,18 L 30,20 L 30,22 L 28,24 L 28,26 L 26,28 L 26,30 L 25,31 L 25,32 L 24,33 L 24,35 L 25,36 L 25,41 L 26,42 L 26,47 L 30,51 L 30,53 L 31,53 L 32,54 L 32,55 L 34,57 L 35,57 L 36,58 L 36,59 L 37,59 L 39,61 L 41,61 L 42,62 L 43,62 L 44,63 L 57,63 L 59,61 L 62,61 L 64,59 L 65,59 L 67,57 L 68,57 L 73,52 L 73,51 L 75,49 L 75,46 L 76,45 L 76,44 L 77,43 L 77,32 L 76,31 L 76,29 L 75,28 L 75,26 L 71,22 L 71,20 L 69,18 L 68,18 L 64,14 L 62,14 L 61,13 L 60,13 L 59,12 L 56,12 L 55,11 Z" fill="black" /></svg>