<?xml version="1.0" encoding="utf-8" ?>
<svg baseProfile="full" height="220" version="1.1" width="258" xmlns="http://www.w3.org/2000/svg" xmlns:ev="http://www.w3.org/2001/xml-events" xmlns:xlink="http://www.w3.org/1999/xlink"><defs /><rect fill="white" height="220" width="258" x="0" y="0" /><path d="M 202,168 L 203,193 L 225,193 L 225,168 Z" fill="none" stroke="black" stroke-width="1" /><path d="M 196,162 L 234,162 L 231,200 L 196,198 Z" fill="black" stroke="black" stroke-width="1" /><circle cx="41.5" cy="179.47222900390625" fill="none" r="19.936817169189453" stroke="black" stroke-width="1" /><circle cx="42.161720275878906" cy="179.7403564453125" fill="none" r="28.533464431762695" stroke="black" stroke-width="1" /><circle cx="130.62635803222656" cy="112.13079833984375" fill="none" r="21.193395614624023" stroke="black" stroke-width="1" /><circle cx="130.5401153564453" cy="112.28510284423828" fill="none" r="27.760957717895508" stroke="black" stroke-width="1" /><path d="M 23,79 L 56,76 L 39,52 Z" fill="none" stroke="black" stroke-width="1" /><path d="M 44,37 L 69,85 L 14,88 Z" fill="black" stroke="black" stroke-width="1" /><circle cx="217.5" cy="55.5" fill="none" r="19.91240692138672" stroke="black" stroke-width="1" /><circle cx="217.15908813476562" cy="56.0" fill="none" r="27.800161361694336" stroke="black" stroke-width="1" /><path d="M 0,0 L 0,219 L 257,219 L 257,0 Z" fill="none" stroke="black" stroke-width="1" /></svg>