<?xml version='1.0' encoding='utf-8'?>
<svg width="258" height="220" xmlns="http://www.w3.org/2000/svg" viewBox="0 0 258 220"><rect width="258" height="220" fill="white" /><path d="M 206,160 L 205,161 L 199,161 L 197,163 L 196,163 L 196,169 L 195,170 L 195,171 L 196,172 L 196,174 L 195,175 L 195,179 L 196,180 L 196,195 L 197,196 L 197,198 L 199,200 L 208,200 L 209,199 L 212,199 L 213,200 L 217,200 L 218,199 L 224,199 L 225,200 L 229,200 L 230,199 L 231,199 L 232,198 L 232,197 L 233,196 L 233,181 L 232,180 L 232,176 L 233,175 L 233,170 L 231,168 L 232,167 L 232,165 L 233,164 L 233,162 L 232,162 L 231,161 L 228,161 L 227,160 Z" fill="black" /><path d="M 36,154 L 35,155 L 33,155 L 32,156 L 28,156 L 26,158 L 26,159 L 25,160 L 24,160 L 20,164 L 20,165 L 18,167 L 18,169 L 16,171 L 16,177 L 15,178 L 15,179 L 16,180 L 16,188 L 17,189 L 17,190 L 18,191 L 18,193 L 20,195 L 20,196 L 25,201 L 26,201 L 28,203 L 29,203 L 31,205 L 35,205 L 36,206 L 46,206 L 47,205 L 51,205 L 52,204 L 53,204 L 56,201 L 58,201 L 63,196 L 63,194 L 64,193 L 65,193 L 65,192 L 67,190 L 67,188 L 69,186 L 69,179 L 68,178 L 68,176 L 67,175 L 67,172 L 66,171 L 66,169 L 65,168 L 65,166 L 64,166 L 63,165 L 63,164 L 59,160 L 58,160 L 54,156 L 52,156 L 51,155 L 50,155 L 49,154 Z" fill="black" /><path d="M 126,86 L 125,87 L 123,87 L 122,88 L 120,88 L 118,90 L 116,90 L 110,96 L 110,97 L 109,98 L 108,98 L 108,101 L 107,102 L 107,103 L 106,104 L 106,107 L 105,108 L 105,113 L 104,114 L 104,115 L 105,116 L 105,119 L 106,120 L 106,122 L 108,124 L 108,127 L 109,127 L 110,128 L 110,129 L 112,131 L 113,131 L 117,135 L 119,135 L 121,137 L 125,137 L 126,138 L 130,138 L 131,139 L 132,139 L 133,138 L 135,138 L 136,137 L 141,137 L 145,133 L 147,133 L 147,132 L 150,129 L 151,129 L 151,128 L 153,126 L 153,124 L 155,122 L 155,119 L 156,118 L 156,108 L 155,107 L 155,104 L 154,103 L 154,101 L 153,100 L 153,99 L 151,97 L 151,96 L 145,90 L 144,90 L 142,88 L 139,88 L 138,87 L 135,87 L 134,86 Z" fill="black" /><path d="M 42,38 L 40,40 L 39,40 L 38,41 L 38,42 L 36,44 L 36,46 L 34,48 L 34,49 L 33,50 L 33,51 L 32,52 L 32,53 L 30,55 L 30,56 L 28,58 L 28,59 L 26,61 L 26,62 L 24,64 L 24,65 L 23,66 L 23,67 L 22,68 L 22,69 L 20,71 L 20,72 L 18,74 L 18,75 L 16,77 L 16,79 L 15,80 L 15,81 L 14,82 L 14,87 L 16,87 L 18,85 L 19,85 L 20,86 L 36,86 L 37,85 L 38,86 L 48,86 L 49,85 L 51,85 L 52,86 L 55,86 L 56,85 L 63,85 L 64,86 L 66,86 L 67,85 L 68,85 L 68,82 L 65,79 L 65,78 L 63,76 L 63,75 L 62,74 L 62,72 L 61,71 L 61,70 L 60,69 L 60,68 L 59,67 L 59,64 L 58,64 L 57,63 L 57,62 L 56,61 L 56,60 L 55,59 L 55,58 L 54,57 L 54,56 L 53,55 L 53,53 L 51,51 L 51,50 L 50,49 L 50,46 L 49,46 L 47,44 L 47,42 L 46,42 L 45,41 L 45,40 L 44,39 L 44,38 Z" fill="black" /><path d="M 212,30 L 211,31 L 209,31 L 208,32 L 205,32 L 203,34 L 202,34 L 202,35 L 201,36 L 200,36 L 200,37 L 199,38 L 198,38 L 198,39 L 197,40 L 196,40 L 196,41 L 195,42 L 195,43 L 194,44 L 194,47 L 193,48 L 193,50 L 192,51 L 192,62 L 194,64 L 194,66 L 196,68 L 196,70 L 198,72 L 198,73 L 202,77 L 203,77 L 205,79 L 206,79 L 207,80 L 208,80 L 209,81 L 214,81 L 215,82 L 218,82 L 219,81 L 227,81 L 229,79 L 231,79 L 231,78 L 232,77 L 233,77 L 237,73 L 237,72 L 238,71 L 239,71 L 239,69 L 241,67 L 241,64 L 242,63 L 242,62 L 243,61 L 243,50 L 242,49 L 242,46 L 241,45 L 241,44 L 239,42 L 239,41 L 238,41 L 237,40 L 237,39 L 234,36 L 233,36 L 229,32 L 228,32 L 227,31 L 223,31 L 222,30 Z" fill="black" /></svg>