<?xml version='1.0' encoding='utf-8'?>
<svg width="257" height="221" xmlns="http://www.w3.org/2000/svg" viewBox="0 0 257 221"><rect width="257" height="221" fill="white" /><path d="M 209,153 L 208,154 L 201,154 L 200,155 L 199,155 L 198,156 L 197,156 L 196,157 L 195,157 L 187,165 L 187,167 L 186,168 L 185,168 L 185,171 L 184,172 L 184,174 L 183,175 L 183,187 L 185,189 L 185,191 L 187,193 L 187,194 L 189,196 L 189,197 L 191,199 L 192,199 L 193,200 L 193,201 L 194,201 L 195,202 L 196,202 L 197,203 L 198,203 L 199,204 L 201,204 L 202,205 L 214,205 L 215,204 L 216,204 L 217,203 L 220,203 L 222,201 L 223,201 L 225,199 L 226,199 L 226,198 L 230,194 L 230,193 L 232,191 L 232,188 L 234,186 L 234,174 L 233,173 L 233,172 L 232,171 L 232,168 L 231,167 L 231,166 L 230,165 L 230,164 L 229,164 L 228,163 L 228,162 L 224,158 L 222,158 L 220,156 L 219,156 L 217,154 L 213,154 L 212,153 Z" fill="black" /><path d="M 76,122 L 75,123 L 71,123 L 70,124 L 68,124 L 66,126 L 65,126 L 63,128 L 61,128 L 59,130 L 59,131 L 57,133 L 57,135 L 54,138 L 54,139 L 53,140 L 53,147 L 52,148 L 52,151 L 53,152 L 53,155 L 54,156 L 54,158 L 55,159 L 55,161 L 57,163 L 57,165 L 58,165 L 61,168 L 62,168 L 65,171 L 66,171 L 67,172 L 68,172 L 69,173 L 76,173 L 77,174 L 80,174 L 81,173 L 85,173 L 86,172 L 87,172 L 88,171 L 90,171 L 91,170 L 92,170 L 93,169 L 94,169 L 96,167 L 96,166 L 99,163 L 100,163 L 100,161 L 102,159 L 102,156 L 103,155 L 103,152 L 104,151 L 103,150 L 103,148 L 104,147 L 104,146 L 103,145 L 103,142 L 102,141 L 102,138 L 100,136 L 100,134 L 98,132 L 97,132 L 96,131 L 96,130 L 95,130 L 94,129 L 94,128 L 92,126 L 89,126 L 87,124 L 84,124 L 83,123 L 81,123 L 80,122 Z" fill="black" /><path d="M 178,55 L 177,56 L 174,56 L 172,58 L 170,58 L 168,60 L 167,60 L 165,62 L 165,63 L 164,64 L 163,64 L 161,66 L 161,67 L 160,68 L 159,68 L 159,70 L 158,71 L 158,73 L 157,74 L 157,87 L 158,88 L 158,89 L 159,90 L 159,92 L 161,94 L 161,95 L 167,101 L 168,101 L 170,103 L 172,103 L 173,104 L 174,104 L 175,105 L 180,105 L 181,106 L 182,105 L 189,105 L 190,104 L 191,104 L 192,103 L 193,103 L 195,101 L 196,101 L 197,100 L 198,100 L 202,96 L 202,95 L 206,91 L 206,86 L 207,85 L 207,77 L 206,76 L 206,72 L 205,72 L 204,71 L 204,68 L 202,66 L 202,65 L 198,61 L 198,60 L 197,60 L 196,59 L 195,59 L 194,58 L 192,58 L 191,57 L 189,57 L 188,56 L 184,56 L 183,55 Z" fill="black" /><path d="M 62,21 L 61,22 L 57,22 L 57,23 L 56,24 L 54,24 L 52,26 L 51,26 L 47,30 L 47,31 L 46,32 L 45,32 L 45,34 L 43,36 L 43,38 L 42,39 L 42,41 L 41,42 L 41,49 L 42,50 L 42,53 L 43,54 L 43,57 L 45,59 L 45,61 L 46,61 L 47,62 L 47,63 L 51,67 L 52,67 L 53,68 L 53,69 L 54,69 L 55,70 L 56,70 L 57,71 L 59,71 L 60,72 L 65,72 L 66,73 L 71,73 L 72,72 L 74,72 L 75,71 L 77,71 L 79,69 L 81,69 L 83,67 L 84,67 L 84,66 L 85,65 L 86,65 L 86,64 L 87,63 L 88,63 L 88,62 L 89,61 L 89,60 L 90,59 L 90,56 L 92,54 L 92,48 L 93,47 L 93,41 L 92,40 L 92,38 L 90,36 L 90,34 L 88,32 L 88,31 L 81,24 L 79,24 L 78,23 L 77,23 L 76,22 L 73,22 L 72,21 Z" fill="black" /></svg>