<?xml version='1.0' encoding='utf-8'?>
<svg width="255" height="220" xmlns="http://www.w3.org/2000/svg" viewBox="0 0 255 220"><rect width="255" height="220" fill="white" /><path d="M 27,158 L 26,159 L 12,159 L 12,171 L 13,172 L 13,195 L 15,195 L 16,196 L 22,196 L 23,195 L 34,195 L 35,196 L 37,196 L 38,195 L 46,195 L 46,187 L 47,186 L 47,184 L 46,183 L 47,182 L 47,164 L 48,163 L 47,162 L 47,159 L 43,159 L 42,158 L 36,158 L 35,159 L 34,158 L 31,158 L 30,159 L 29,158 Z" fill="black" /><path d="M 101,109 L 100,110 L 100,111 L 99,112 L 99,113 L 98,114 L 98,115 L 97,116 L 97,117 L 96,118 L 95,118 L 95,120 L 93,122 L 93,123 L 92,124 L 92,125 L 91,126 L 91,127 L 88,130 L 88,131 L 87,132 L 87,133 L 86,134 L 86,135 L 85,136 L 85,137 L 84,138 L 84,139 L 81,142 L 81,143 L 80,144 L 80,145 L 79,146 L 79,147 L 77,149 L 77,153 L 79,155 L 124,155 L 125,154 L 127,154 L 128,153 L 128,149 L 126,147 L 126,145 L 124,143 L 124,142 L 122,140 L 122,139 L 120,137 L 120,135 L 119,134 L 119,133 L 118,132 L 118,130 L 117,129 L 117,128 L 116,127 L 116,126 L 115,126 L 114,125 L 114,123 L 112,121 L 112,120 L 110,118 L 110,117 L 109,116 L 109,115 L 108,114 L 108,113 L 106,111 L 106,110 L 105,109 Z" fill="black" /><path d="M 202,75 L 201,76 L 201,77 L 199,79 L 199,80 L 197,82 L 197,83 L 195,85 L 195,87 L 193,89 L 193,90 L 191,92 L 191,93 L 190,94 L 190,95 L 189,96 L 189,97 L 188,98 L 187,98 L 187,100 L 185,102 L 185,104 L 183,106 L 183,108 L 181,110 L 181,111 L 180,112 L 180,113 L 179,114 L 179,115 L 176,118 L 178,120 L 179,120 L 180,121 L 181,120 L 183,120 L 184,121 L 185,120 L 194,120 L 195,121 L 201,121 L 202,120 L 206,120 L 207,121 L 214,121 L 215,120 L 220,120 L 221,121 L 222,120 L 227,120 L 228,119 L 229,119 L 229,116 L 228,115 L 228,114 L 227,113 L 227,112 L 226,111 L 226,110 L 225,109 L 225,108 L 224,107 L 224,106 L 223,106 L 222,105 L 222,103 L 220,101 L 220,100 L 219,99 L 219,98 L 218,97 L 218,96 L 217,96 L 216,95 L 216,93 L 214,91 L 214,90 L 212,88 L 212,87 L 211,86 L 211,85 L 209,83 L 209,82 L 206,79 L 206,78 L 204,76 L 204,75 Z" fill="black" /><path d="M 31,16 L 29,18 L 29,20 L 27,22 L 27,24 L 25,26 L 25,27 L 24,28 L 24,29 L 23,30 L 23,31 L 22,32 L 21,32 L 21,33 L 20,34 L 20,35 L 19,36 L 19,37 L 18,38 L 18,39 L 17,40 L 17,41 L 15,43 L 15,44 L 13,46 L 13,47 L 10,50 L 10,51 L 9,52 L 9,53 L 8,54 L 8,55 L 7,56 L 7,57 L 6,58 L 7,59 L 60,59 L 61,58 L 61,57 L 60,56 L 59,56 L 58,55 L 58,54 L 57,53 L 57,52 L 56,51 L 56,50 L 54,48 L 54,47 L 52,45 L 52,44 L 50,42 L 50,41 L 48,39 L 48,38 L 47,37 L 47,36 L 44,33 L 44,32 L 43,31 L 43,30 L 42,29 L 42,28 L 40,26 L 40,25 L 38,23 L 38,21 L 34,17 L 34,16 Z" fill="black" /><path d="M 143,6 L 142,7 L 141,7 L 140,8 L 139,8 L 137,10 L 135,10 L 133,12 L 132,12 L 128,16 L 127,16 L 127,17 L 125,19 L 125,20 L 121,24 L 121,27 L 120,28 L 120,30 L 119,31 L 119,33 L 120,34 L 120,38 L 121,39 L 121,43 L 122,44 L 122,45 L 123,46 L 123,47 L 125,49 L 125,50 L 127,52 L 127,53 L 128,53 L 129,54 L 129,55 L 130,55 L 132,57 L 133,57 L 134,58 L 135,58 L 136,59 L 140,59 L 141,60 L 154,60 L 155,59 L 158,59 L 160,57 L 161,57 L 166,52 L 166,51 L 168,49 L 168,46 L 170,44 L 170,40 L 172,38 L 172,28 L 171,27 L 171,25 L 170,24 L 170,22 L 169,22 L 168,21 L 168,20 L 167,19 L 167,18 L 166,17 L 166,16 L 165,16 L 164,15 L 164,14 L 163,14 L 162,13 L 162,12 L 161,12 L 158,9 L 157,9 L 156,8 L 153,8 L 152,7 L 147,7 L 146,6 Z" fill="black" /></svg>