<?xml version='1.0' encoding='utf-8'?>
<svg width="259" height="221" xmlns="http://www.w3.org/2000/svg" viewBox="0 0 259 221"><rect width="259" height="221" fill="white" /><path d="M 39,151 L 38,152 L 32,152 L 32,157 L 34,159 L 34,160 L 36,162 L 36,163 L 38,165 L 38,167 L 40,169 L 40,170 L 42,172 L 42,173 L 44,175 L 44,176 L 46,178 L 46,179 L 47,180 L 47,181 L 48,182 L 48,184 L 50,186 L 50,187 L 52,189 L 52,191 L 54,193 L 54,194 L 56,196 L 56,197 L 58,199 L 58,201 L 61,201 L 61,199 L 62,198 L 62,197 L 63,196 L 63,194 L 66,191 L 67,191 L 67,189 L 69,187 L 69,186 L 71,184 L 71,182 L 72,181 L 73,181 L 73,179 L 75,177 L 75,176 L 77,174 L 77,172 L 79,170 L 79,169 L 81,167 L 81,166 L 83,164 L 83,161 L 85,159 L 85,158 L 86,157 L 86,156 L 87,155 L 87,152 L 86,152 L 85,151 L 75,151 L 74,152 L 63,152 L 62,151 L 55,151 L 54,152 L 48,152 L 47,151 L 46,151 L 45,152 L 42,152 L 41,151 Z" fill="black" /><path d="M 197,136 L 195,138 L 194,138 L 194,140 L 190,144 L 190,145 L 189,146 L 189,147 L 188,148 L 188,149 L 186,151 L 186,152 L 184,154 L 184,155 L 182,157 L 182,158 L 180,160 L 180,161 L 179,162 L 179,163 L 178,164 L 178,165 L 177,166 L 176,166 L 176,167 L 174,169 L 174,171 L 173,172 L 173,173 L 172,174 L 172,175 L 171,176 L 171,177 L 170,178 L 170,179 L 169,180 L 169,181 L 168,182 L 168,184 L 169,185 L 197,185 L 198,186 L 202,186 L 203,185 L 222,185 L 223,184 L 222,183 L 222,182 L 221,181 L 221,180 L 219,178 L 219,176 L 217,174 L 217,172 L 214,169 L 214,167 L 213,166 L 213,164 L 211,162 L 211,159 L 209,157 L 209,154 L 208,154 L 207,153 L 207,152 L 206,151 L 206,150 L 205,149 L 205,147 L 204,146 L 204,144 L 203,143 L 203,142 L 201,140 L 201,138 L 199,136 Z" fill="black" /><path d="M 111,73 L 110,74 L 110,85 L 109,86 L 109,88 L 110,89 L 109,90 L 109,96 L 110,97 L 110,112 L 119,112 L 120,113 L 121,113 L 122,112 L 135,112 L 136,113 L 143,113 L 143,92 L 144,91 L 144,90 L 143,89 L 143,85 L 144,84 L 144,81 L 143,80 L 143,75 L 123,75 L 122,76 L 121,75 L 119,75 L 118,76 L 117,75 L 114,75 L 113,74 L 112,74 Z" fill="black" /><path d="M 52,39 L 50,41 L 23,41 L 22,42 L 20,42 L 19,41 L 16,41 L 16,42 L 15,43 L 15,47 L 16,48 L 16,62 L 17,63 L 17,64 L 16,65 L 16,68 L 17,69 L 17,77 L 53,77 L 54,76 L 54,74 L 53,73 L 53,72 L 52,71 L 52,46 L 53,45 L 53,40 Z" fill="black" /><path d="M 211,20 L 210,21 L 209,21 L 208,22 L 205,22 L 204,23 L 203,23 L 202,24 L 200,24 L 198,26 L 196,26 L 194,28 L 194,29 L 191,32 L 191,33 L 190,34 L 190,37 L 189,38 L 189,39 L 188,40 L 188,54 L 190,56 L 190,59 L 193,62 L 193,63 L 194,64 L 194,65 L 195,65 L 196,66 L 196,67 L 197,67 L 199,69 L 200,69 L 202,71 L 206,71 L 207,72 L 208,72 L 209,73 L 218,73 L 220,71 L 223,71 L 224,70 L 225,70 L 226,69 L 227,69 L 228,68 L 229,68 L 232,65 L 232,64 L 235,61 L 235,60 L 237,58 L 237,55 L 238,54 L 238,52 L 239,51 L 239,42 L 238,41 L 238,39 L 236,37 L 236,34 L 235,33 L 235,32 L 233,30 L 233,29 L 232,28 L 231,28 L 227,24 L 226,24 L 225,23 L 223,23 L 221,21 L 217,21 L 216,20 Z" fill="black" /></svg>