<?xml version="1.0" encoding="utf-8" ?>
<svg baseProfile="full" height="217" version="1.1" width="259" xmlns="http://www.w3.org/2000/svg" xmlns:ev="http://www.w3.org/2001/xml-events" xmlns:xlink="http://www.w3.org/1999/xlink"><defs /><rect fill="white" height="217" width="259" x="0" y="0" /><circle cx="105.81666564941406" cy="187.9166717529297" fill="none" r="19.16971206665039" stroke="black" stroke-width="1" /><circle cx="105.63433837890625" cy="187.8767852783203" fill="none" r="25.747358322143555" stroke="black" stroke-width="1" /><circle cx="214.7051239013672" cy="179.73077392578125" fill="none" r="19.13941764831543" stroke="black" stroke-width="1" /><circle cx="215.0255889892578" cy="179.56976318359375" fill="none" r="26.503984451293945" stroke="black" stroke-width="1" /><path d="M 67,140 L 50,113 L 31,140 Z" fill="none" stroke="black" stroke-width="1" /><path d="M 21,143 L 51,102 L 76,145 Z" fill="none" stroke="black" stroke-width="1" /><path d="M 125,101 L 124,125 L 146,125 L 147,102 Z" fill="none" stroke="black" stroke-width="1" /><path d="M 152,93 L 154,131 L 117,133 L 116,95 Z" fill="black" stroke="black" stroke-width="1" /><path d="M 236,114 L 218,88 L 200,113 Z" fill="none" stroke="black" stroke-width="1" /><path d="M 190,116 L 219,75 L 249,120 Z" fill="black" stroke="black" stroke-width="1" /><path d="M 148,28 L 148,50 L 170,51 L 171,29 Z" fill="none" stroke="black" stroke-width="1" /><circle cx="49.5119514465332" cy="44.276893615722656" fill="none" r="19.24946403503418" stroke="black" stroke-width="1" /><path d="M 143,22 L 177,25 L 174,57 L 142,54 Z" fill="none" stroke="black" stroke-width="1" /><circle cx="49.96308898925781" cy="44.23825454711914" fill="none" r="26.234289169311523" stroke="black" stroke-width="1" /><path d="M 0,0 L 0,216 L 258,216 L 258,0 Z" fill="none" stroke="black" stroke-width="1" /></svg>