<?xml version='1.0' encoding='utf-8'?>
<svg width="258" height="221" xmlns="http://www.w3.org/2000/svg" viewBox="0 0 258 221"><rect width="258" height="221" fill="white" /><path d="M 70,148 L 69,149 L 68,149 L 67,150 L 64,150 L 61,153 L 60,153 L 54,159 L 54,161 L 52,163 L 52,165 L 51,166 L 51,168 L 50,169 L 50,178 L 51,179 L 51,181 L 52,182 L 52,183 L 53,184 L 53,185 L 54,186 L 54,188 L 56,190 L 56,191 L 57,191 L 60,194 L 61,194 L 62,195 L 63,195 L 65,197 L 67,197 L 69,199 L 80,199 L 81,198 L 82,198 L 83,197 L 86,197 L 87,196 L 91,196 L 93,194 L 93,193 L 95,191 L 95,190 L 99,186 L 99,184 L 101,182 L 101,178 L 102,177 L 102,168 L 101,167 L 101,164 L 100,163 L 100,162 L 97,159 L 97,158 L 93,154 L 92,154 L 91,153 L 91,152 L 89,152 L 87,150 L 84,150 L 82,148 Z" fill="black" /><path d="M 132,97 L 129,100 L 129,101 L 128,102 L 128,103 L 127,104 L 126,104 L 126,105 L 125,106 L 125,107 L 124,108 L 124,109 L 123,110 L 122,110 L 122,111 L 121,112 L 121,113 L 120,114 L 120,115 L 119,116 L 119,117 L 118,118 L 118,119 L 115,122 L 115,123 L 114,124 L 114,125 L 112,127 L 112,128 L 110,130 L 110,131 L 108,133 L 108,136 L 109,136 L 110,137 L 112,137 L 113,136 L 115,136 L 116,137 L 159,137 L 159,134 L 155,130 L 155,129 L 153,127 L 153,126 L 151,124 L 151,123 L 150,122 L 150,121 L 149,120 L 149,119 L 147,117 L 147,116 L 146,116 L 145,115 L 145,113 L 143,111 L 143,110 L 141,108 L 141,107 L 139,105 L 139,104 L 138,103 L 138,102 L 137,101 L 137,100 L 134,97 Z" fill="black" /><path d="M 50,42 L 48,44 L 48,45 L 47,46 L 47,47 L 44,50 L 44,51 L 43,52 L 42,52 L 42,54 L 40,56 L 40,58 L 38,60 L 38,61 L 37,62 L 36,62 L 36,64 L 34,66 L 34,67 L 33,68 L 33,69 L 32,70 L 32,71 L 31,72 L 30,72 L 30,74 L 28,76 L 28,77 L 26,79 L 26,83 L 28,85 L 34,85 L 35,84 L 36,84 L 37,85 L 44,85 L 45,84 L 48,84 L 49,85 L 51,85 L 52,84 L 55,84 L 56,85 L 73,85 L 74,84 L 76,84 L 78,82 L 78,80 L 75,77 L 75,76 L 73,74 L 73,72 L 70,69 L 70,68 L 69,67 L 69,65 L 67,63 L 67,62 L 65,60 L 65,58 L 64,58 L 63,57 L 63,56 L 62,55 L 62,54 L 61,53 L 61,52 L 60,52 L 59,51 L 59,49 L 57,47 L 57,46 L 55,44 L 55,43 L 54,42 Z" fill="black" /><path d="M 218,17 L 217,18 L 214,18 L 213,19 L 212,19 L 211,20 L 209,20 L 207,22 L 206,22 L 206,23 L 205,24 L 204,24 L 204,25 L 202,27 L 202,28 L 200,30 L 200,32 L 198,34 L 198,37 L 196,39 L 196,41 L 197,42 L 197,45 L 198,46 L 198,52 L 200,54 L 200,56 L 202,58 L 202,59 L 203,59 L 204,60 L 204,61 L 205,61 L 206,62 L 206,63 L 207,63 L 209,65 L 211,65 L 212,66 L 213,66 L 214,67 L 216,67 L 217,68 L 220,68 L 221,69 L 222,69 L 223,68 L 227,68 L 228,67 L 231,67 L 233,65 L 236,65 L 238,63 L 239,63 L 239,62 L 240,61 L 241,61 L 241,60 L 245,56 L 245,55 L 246,54 L 246,52 L 247,51 L 247,50 L 248,49 L 248,44 L 249,43 L 249,42 L 248,41 L 248,36 L 247,35 L 247,33 L 245,31 L 245,30 L 244,29 L 244,28 L 243,27 L 243,26 L 242,26 L 241,25 L 241,24 L 237,20 L 236,20 L 235,19 L 234,19 L 233,18 L 227,18 L 226,17 Z" fill="black" /></svg>