<?xml version='1.0' encoding='utf-8'?>
<svg width="258" height="219" xmlns="http://www.w3.org/2000/svg" viewBox="0 0 258 219"><rect width="258" height="219" fill="white" /><path d="M 144,147 L 143,148 L 138,148 L 137,149 L 134,149 L 133,150 L 132,150 L 129,153 L 128,153 L 128,154 L 127,155 L 126,155 L 124,157 L 124,158 L 122,160 L 122,161 L 120,163 L 120,166 L 119,167 L 119,170 L 118,171 L 118,174 L 119,175 L 119,180 L 120,181 L 120,183 L 122,185 L 122,188 L 123,188 L 124,189 L 124,190 L 130,196 L 131,196 L 132,197 L 133,197 L 134,198 L 137,198 L 138,199 L 139,199 L 140,200 L 148,200 L 149,199 L 151,199 L 152,198 L 155,198 L 156,197 L 157,197 L 158,196 L 159,196 L 161,194 L 162,194 L 165,191 L 165,190 L 167,188 L 167,187 L 168,186 L 169,186 L 169,183 L 170,182 L 170,181 L 171,180 L 171,167 L 170,166 L 170,165 L 169,164 L 169,163 L 168,162 L 168,161 L 165,158 L 165,157 L 161,153 L 160,153 L 158,151 L 156,151 L 155,150 L 153,150 L 152,149 L 150,149 L 149,148 L 146,148 L 145,147 Z" fill="black" /><path d="M 35,134 L 34,135 L 29,135 L 29,138 L 30,139 L 30,140 L 31,141 L 31,142 L 32,143 L 32,144 L 34,146 L 34,148 L 37,151 L 37,152 L 40,155 L 40,157 L 42,159 L 42,161 L 46,165 L 46,168 L 50,172 L 50,174 L 51,174 L 52,175 L 52,176 L 53,177 L 53,178 L 56,178 L 56,177 L 57,176 L 57,175 L 58,174 L 58,173 L 59,172 L 59,171 L 61,169 L 61,168 L 63,166 L 63,165 L 64,164 L 64,163 L 65,162 L 65,161 L 67,159 L 67,158 L 69,156 L 69,155 L 70,154 L 70,153 L 71,152 L 71,151 L 73,149 L 73,147 L 74,146 L 74,145 L 75,144 L 75,143 L 76,142 L 77,142 L 77,139 L 79,137 L 79,135 L 76,135 L 75,134 L 70,134 L 69,135 L 66,135 L 65,134 L 53,134 L 52,135 L 40,135 L 39,134 Z" fill="black" /><path d="M 215,113 L 214,114 L 214,115 L 212,117 L 212,118 L 210,120 L 210,122 L 208,124 L 208,125 L 206,127 L 206,129 L 204,131 L 204,133 L 202,135 L 202,136 L 201,137 L 201,138 L 200,139 L 200,140 L 198,142 L 198,144 L 196,146 L 196,147 L 194,149 L 194,151 L 192,153 L 192,157 L 193,158 L 197,158 L 198,157 L 200,157 L 201,158 L 202,158 L 203,157 L 209,157 L 210,158 L 211,158 L 212,157 L 216,157 L 217,158 L 219,158 L 220,157 L 223,157 L 224,158 L 225,157 L 230,157 L 231,156 L 232,156 L 233,157 L 240,157 L 241,156 L 242,156 L 242,154 L 240,152 L 240,151 L 239,150 L 239,149 L 237,147 L 237,145 L 235,143 L 235,142 L 233,140 L 233,139 L 232,138 L 232,137 L 231,136 L 231,135 L 229,133 L 229,131 L 228,131 L 227,130 L 227,128 L 225,126 L 225,125 L 224,124 L 224,123 L 223,122 L 223,121 L 221,119 L 221,117 L 220,117 L 219,116 L 219,113 Z" fill="black" /><path d="M 174,23 L 173,24 L 170,24 L 169,25 L 167,25 L 165,27 L 164,27 L 159,32 L 158,32 L 158,33 L 154,37 L 154,41 L 153,42 L 153,43 L 152,44 L 152,55 L 154,57 L 154,59 L 156,61 L 156,64 L 160,68 L 161,68 L 162,69 L 162,70 L 164,70 L 166,72 L 169,72 L 171,74 L 174,74 L 175,75 L 178,75 L 179,74 L 185,74 L 186,73 L 189,73 L 190,72 L 191,72 L 191,71 L 192,70 L 194,70 L 196,68 L 196,67 L 201,62 L 201,59 L 203,57 L 203,55 L 204,54 L 204,44 L 203,43 L 203,39 L 201,37 L 201,36 L 199,34 L 199,32 L 196,29 L 195,29 L 193,27 L 192,27 L 191,26 L 191,25 L 187,25 L 186,24 L 184,24 L 183,23 Z" fill="black" /><path d="M 54,19 L 53,20 L 34,20 L 33,21 L 28,21 L 27,22 L 27,24 L 28,25 L 28,27 L 30,29 L 30,31 L 32,33 L 32,34 L 33,34 L 34,35 L 34,37 L 36,39 L 36,40 L 37,41 L 37,42 L 38,43 L 38,44 L 39,44 L 40,45 L 40,48 L 41,48 L 42,49 L 42,50 L 43,51 L 43,52 L 44,53 L 44,54 L 46,56 L 46,58 L 48,60 L 48,61 L 53,66 L 55,66 L 57,64 L 57,62 L 59,60 L 59,59 L 60,58 L 61,58 L 61,55 L 65,51 L 65,50 L 67,48 L 67,45 L 71,41 L 71,39 L 75,35 L 75,33 L 76,32 L 76,31 L 77,30 L 77,29 L 78,28 L 78,20 L 60,20 L 59,19 Z" fill="black" /></svg>