<?xml version='1.0' encoding='utf-8'?>
<svg width="258" height="216" xmlns="http://www.w3.org/2000/svg" viewBox="0 0 258 216"><rect width="258" height="216" fill="white" /><path d="M 68,162 L 67,163 L 66,163 L 65,164 L 37,164 L 37,171 L 36,172 L 36,173 L 37,174 L 37,183 L 36,184 L 36,188 L 37,189 L 37,190 L 36,191 L 36,196 L 37,197 L 38,197 L 39,196 L 51,196 L 52,197 L 54,197 L 55,196 L 59,196 L 60,195 L 61,196 L 64,196 L 65,197 L 69,197 L 71,195 L 71,181 L 70,180 L 71,179 L 71,171 L 70,170 L 70,166 L 71,165 L 71,162 Z" fill="black" /><path d="M 209,151 L 206,154 L 206,155 L 205,156 L 204,156 L 204,157 L 201,160 L 201,161 L 200,162 L 200,163 L 199,164 L 198,164 L 198,165 L 196,167 L 196,169 L 194,171 L 194,172 L 192,174 L 192,175 L 190,177 L 190,179 L 189,180 L 188,180 L 188,181 L 186,183 L 186,184 L 184,186 L 184,187 L 180,191 L 180,193 L 179,194 L 179,198 L 187,198 L 188,197 L 219,197 L 220,196 L 222,196 L 223,197 L 224,197 L 225,196 L 237,196 L 237,193 L 235,191 L 235,190 L 233,188 L 233,187 L 231,185 L 231,184 L 230,183 L 230,182 L 229,181 L 229,180 L 228,180 L 227,179 L 227,178 L 226,177 L 226,176 L 225,175 L 225,174 L 223,172 L 223,171 L 221,169 L 221,168 L 219,166 L 219,165 L 217,163 L 217,162 L 216,162 L 215,161 L 215,160 L 214,159 L 214,158 L 213,157 L 213,156 L 211,154 L 211,152 L 210,152 Z" fill="black" /><path d="M 41,41 L 40,42 L 40,44 L 38,46 L 38,49 L 37,50 L 36,50 L 36,51 L 35,52 L 35,53 L 34,54 L 34,55 L 33,56 L 33,57 L 30,60 L 30,61 L 29,62 L 29,63 L 28,64 L 28,65 L 26,67 L 26,68 L 24,70 L 24,71 L 23,72 L 23,73 L 22,74 L 22,75 L 20,77 L 20,78 L 18,80 L 18,81 L 17,82 L 17,83 L 16,84 L 16,88 L 19,88 L 20,87 L 52,87 L 53,86 L 54,86 L 55,87 L 61,87 L 62,86 L 63,86 L 64,87 L 65,87 L 66,86 L 69,86 L 70,85 L 70,83 L 69,82 L 69,80 L 68,79 L 68,78 L 67,77 L 67,76 L 65,74 L 65,72 L 64,72 L 63,71 L 63,70 L 62,69 L 62,68 L 61,67 L 61,66 L 60,65 L 60,64 L 59,63 L 59,62 L 56,59 L 56,58 L 55,57 L 55,56 L 53,54 L 53,53 L 52,53 L 51,52 L 51,51 L 49,49 L 49,48 L 46,45 L 46,44 L 43,41 Z" fill="black" /><path d="M 186,30 L 185,31 L 184,31 L 183,32 L 182,32 L 181,33 L 180,33 L 179,34 L 178,34 L 178,35 L 177,36 L 176,36 L 174,38 L 174,39 L 172,41 L 172,42 L 170,44 L 170,47 L 169,48 L 169,60 L 170,61 L 170,63 L 171,64 L 171,65 L 172,66 L 172,67 L 174,69 L 174,70 L 176,72 L 176,73 L 177,73 L 179,75 L 180,75 L 182,77 L 184,77 L 185,78 L 187,78 L 188,79 L 199,79 L 200,78 L 202,78 L 203,77 L 205,77 L 207,75 L 208,75 L 213,70 L 213,69 L 215,67 L 215,66 L 216,65 L 216,64 L 217,63 L 217,57 L 219,55 L 219,54 L 218,53 L 218,50 L 217,49 L 217,45 L 215,43 L 215,42 L 214,41 L 214,40 L 213,39 L 213,38 L 212,38 L 210,36 L 209,36 L 205,32 L 204,32 L 203,31 L 201,31 L 200,30 Z" fill="black" /></svg>