<?xml version='1.0' encoding='utf-8'?>
<svg width="262" height="218" xmlns="http://www.w3.org/2000/svg" viewBox="0 0 262 218"><rect width="262" height="218" fill="white" /><path d="M 196,133 L 192,137 L 192,138 L 190,140 L 190,142 L 189,143 L 189,144 L 188,145 L 188,146 L 186,148 L 186,149 L 184,151 L 184,152 L 183,153 L 183,154 L 182,155 L 182,156 L 181,157 L 181,158 L 180,159 L 180,160 L 179,161 L 179,162 L 178,163 L 178,164 L 176,166 L 176,167 L 174,169 L 174,172 L 173,173 L 173,177 L 174,178 L 183,178 L 184,179 L 185,179 L 186,178 L 218,178 L 219,177 L 222,177 L 223,176 L 223,173 L 221,171 L 221,170 L 220,169 L 220,168 L 219,167 L 219,164 L 217,162 L 217,161 L 215,159 L 215,158 L 213,156 L 213,155 L 211,153 L 211,151 L 210,151 L 209,150 L 209,149 L 208,148 L 208,147 L 207,146 L 207,145 L 205,143 L 205,142 L 203,140 L 203,139 L 201,137 L 201,136 L 199,134 L 199,133 Z" fill="black" /><path d="M 83,132 L 82,133 L 81,133 L 81,134 L 80,135 L 80,136 L 79,137 L 79,138 L 78,139 L 78,140 L 77,141 L 77,142 L 76,143 L 76,144 L 75,145 L 75,146 L 74,147 L 74,148 L 73,149 L 73,150 L 72,151 L 72,152 L 70,154 L 70,156 L 68,158 L 68,160 L 67,161 L 66,161 L 66,163 L 64,165 L 64,167 L 62,169 L 62,170 L 61,171 L 61,172 L 60,173 L 60,175 L 58,177 L 58,180 L 62,180 L 63,181 L 74,181 L 75,180 L 77,180 L 78,181 L 86,181 L 87,180 L 107,180 L 108,179 L 111,179 L 111,177 L 109,175 L 109,173 L 107,171 L 107,169 L 105,167 L 105,165 L 103,163 L 103,162 L 101,160 L 101,159 L 99,157 L 99,156 L 97,154 L 97,153 L 96,153 L 95,152 L 95,150 L 93,148 L 93,146 L 91,144 L 91,143 L 87,139 L 87,137 L 86,137 L 85,136 L 85,134 Z" fill="black" /><path d="M 184,43 L 183,44 L 182,44 L 181,45 L 179,45 L 177,47 L 176,47 L 170,53 L 169,53 L 169,55 L 168,56 L 168,58 L 166,60 L 166,63 L 165,64 L 165,71 L 166,72 L 166,76 L 167,77 L 167,78 L 168,79 L 168,82 L 176,90 L 177,90 L 179,92 L 182,92 L 183,93 L 185,93 L 186,94 L 189,94 L 190,93 L 191,93 L 192,94 L 195,94 L 196,93 L 197,93 L 198,92 L 201,92 L 201,91 L 202,90 L 205,90 L 213,82 L 213,81 L 214,80 L 214,79 L 215,78 L 215,77 L 216,76 L 216,74 L 217,73 L 217,63 L 216,62 L 215,62 L 213,60 L 215,58 L 213,56 L 213,54 L 211,52 L 211,51 L 210,51 L 209,50 L 209,49 L 208,49 L 206,47 L 204,47 L 203,46 L 201,46 L 200,45 L 198,45 L 197,44 L 196,44 L 195,43 L 190,43 L 189,44 L 186,44 L 185,43 Z" fill="black" /><path d="M 47,34 L 45,36 L 45,38 L 44,39 L 44,43 L 43,44 L 43,45 L 42,46 L 42,48 L 41,49 L 41,51 L 40,52 L 40,55 L 39,56 L 39,58 L 38,59 L 38,62 L 37,63 L 37,64 L 36,65 L 36,68 L 35,69 L 35,70 L 34,71 L 34,74 L 33,75 L 33,79 L 34,80 L 37,80 L 38,79 L 39,79 L 40,78 L 48,78 L 49,77 L 50,77 L 51,76 L 57,76 L 58,75 L 61,75 L 62,74 L 66,74 L 67,73 L 70,73 L 71,72 L 76,72 L 77,71 L 80,71 L 80,68 L 79,67 L 79,66 L 75,62 L 75,61 L 74,61 L 73,60 L 73,59 L 72,59 L 61,48 L 61,47 L 60,47 L 57,44 L 57,43 L 56,43 L 55,42 L 55,41 L 54,41 L 53,40 L 53,39 L 52,39 L 51,38 L 51,37 L 50,37 Z" fill="black" /></svg>