<?xml version='1.0' encoding='utf-8'?>
<svg width="260" height="220" xmlns="http://www.w3.org/2000/svg" viewBox="0 0 260 220"><rect width="260" height="220" fill="white" /><path d="M 214,150 L 213,151 L 212,151 L 211,152 L 209,152 L 207,154 L 206,154 L 206,155 L 205,156 L 204,156 L 202,158 L 201,158 L 200,159 L 200,160 L 197,163 L 197,165 L 196,166 L 196,167 L 195,168 L 195,171 L 194,172 L 194,175 L 195,176 L 195,180 L 196,181 L 196,184 L 198,186 L 198,187 L 199,188 L 199,189 L 200,190 L 200,191 L 205,196 L 206,196 L 207,197 L 208,197 L 210,199 L 214,199 L 215,200 L 216,200 L 217,201 L 223,201 L 224,200 L 226,200 L 227,199 L 230,199 L 231,198 L 232,198 L 234,196 L 235,196 L 236,195 L 237,195 L 239,193 L 239,192 L 240,191 L 241,191 L 243,189 L 243,186 L 245,184 L 245,176 L 246,175 L 246,172 L 245,171 L 245,166 L 244,165 L 244,164 L 241,161 L 241,160 L 237,156 L 236,156 L 235,155 L 234,155 L 231,152 L 230,152 L 229,151 L 226,151 L 225,150 Z" fill="black" /><path d="M 66,102 L 66,105 L 64,107 L 64,109 L 62,111 L 62,113 L 60,115 L 60,117 L 58,119 L 58,121 L 56,123 L 56,125 L 54,127 L 54,128 L 52,130 L 52,132 L 50,134 L 50,135 L 49,136 L 49,137 L 48,138 L 48,139 L 46,141 L 46,142 L 44,144 L 44,149 L 51,149 L 52,150 L 53,150 L 54,149 L 85,149 L 86,148 L 93,148 L 94,147 L 94,143 L 93,142 L 93,141 L 91,139 L 91,137 L 89,135 L 89,134 L 88,133 L 88,132 L 87,131 L 87,130 L 85,128 L 85,127 L 81,123 L 81,120 L 80,120 L 79,119 L 79,117 L 77,115 L 77,114 L 75,112 L 75,110 L 73,108 L 73,106 L 72,106 L 71,105 L 71,104 L 69,102 Z" fill="black" /><path d="M 161,88 L 160,89 L 158,89 L 157,90 L 154,90 L 152,92 L 151,92 L 149,94 L 148,94 L 146,96 L 146,97 L 144,99 L 144,100 L 142,102 L 142,103 L 141,104 L 141,105 L 140,106 L 140,111 L 139,112 L 139,114 L 140,115 L 140,122 L 142,124 L 142,126 L 144,128 L 144,129 L 146,131 L 146,132 L 147,132 L 150,135 L 150,136 L 151,137 L 153,137 L 155,139 L 159,139 L 160,140 L 165,140 L 166,139 L 173,139 L 174,138 L 175,138 L 176,137 L 177,137 L 178,136 L 179,136 L 180,135 L 181,135 L 183,133 L 183,132 L 184,131 L 185,131 L 187,129 L 187,127 L 188,126 L 188,125 L 189,124 L 189,122 L 190,121 L 190,120 L 191,119 L 191,108 L 190,107 L 190,105 L 189,104 L 189,102 L 185,98 L 185,97 L 181,93 L 180,93 L 179,92 L 178,92 L 176,90 L 174,90 L 173,89 L 171,89 L 170,88 Z" fill="black" /><path d="M 180,16 L 180,17 L 178,19 L 178,20 L 176,22 L 176,23 L 174,25 L 174,27 L 172,29 L 172,30 L 170,32 L 170,33 L 168,35 L 168,36 L 164,40 L 164,43 L 163,44 L 162,44 L 162,46 L 160,48 L 160,49 L 158,51 L 158,52 L 155,55 L 156,56 L 162,56 L 163,57 L 179,57 L 180,56 L 199,56 L 200,57 L 203,57 L 205,55 L 205,53 L 204,53 L 202,51 L 202,50 L 201,49 L 201,47 L 199,45 L 199,44 L 197,42 L 197,40 L 195,38 L 195,37 L 193,35 L 193,34 L 192,33 L 192,32 L 191,31 L 191,30 L 190,30 L 189,29 L 189,27 L 187,25 L 187,24 L 185,22 L 185,21 L 183,19 L 183,18 L 182,17 L 182,16 Z" fill="black" /><path d="M 68,12 L 67,13 L 65,13 L 64,14 L 63,13 L 60,13 L 59,14 L 58,14 L 57,15 L 56,15 L 55,16 L 54,16 L 54,17 L 53,18 L 52,18 L 52,19 L 51,20 L 50,20 L 46,24 L 46,25 L 45,26 L 45,27 L 44,28 L 44,32 L 43,33 L 43,36 L 42,37 L 43,38 L 43,39 L 44,40 L 44,47 L 45,48 L 45,49 L 46,50 L 46,51 L 47,52 L 47,53 L 48,53 L 50,55 L 50,56 L 53,59 L 54,59 L 56,61 L 59,61 L 60,62 L 61,62 L 62,63 L 76,63 L 77,62 L 78,62 L 79,61 L 81,61 L 83,59 L 84,59 L 86,57 L 87,57 L 87,56 L 88,55 L 89,55 L 91,53 L 91,51 L 93,49 L 93,46 L 94,45 L 94,44 L 95,43 L 95,34 L 94,33 L 94,30 L 93,29 L 93,27 L 91,25 L 91,24 L 85,18 L 84,18 L 83,17 L 83,16 L 81,16 L 79,14 L 77,14 L 76,13 L 75,13 L 74,12 Z" fill="black" /></svg>