<?xml version='1.0' encoding='utf-8'?>
<svg width="261" height="217" xmlns="http://www.w3.org/2000/svg" viewBox="0 0 261 217"><rect width="261" height="217" fill="white" /><path d="M 45,151 L 44,152 L 43,152 L 42,153 L 39,153 L 35,157 L 34,157 L 32,159 L 32,160 L 29,163 L 29,164 L 28,165 L 28,166 L 27,167 L 27,170 L 26,171 L 26,173 L 25,174 L 25,177 L 26,178 L 26,183 L 27,184 L 27,187 L 29,189 L 29,190 L 31,192 L 31,193 L 33,195 L 34,195 L 39,200 L 42,200 L 43,201 L 44,201 L 45,202 L 54,202 L 55,201 L 58,201 L 59,200 L 61,200 L 63,198 L 66,198 L 68,196 L 68,195 L 69,194 L 70,194 L 70,193 L 71,192 L 72,192 L 72,191 L 74,189 L 74,188 L 76,186 L 76,183 L 77,182 L 77,180 L 78,179 L 78,171 L 77,170 L 77,169 L 76,168 L 76,165 L 75,165 L 74,164 L 74,163 L 73,162 L 73,161 L 70,158 L 70,157 L 69,157 L 67,155 L 65,155 L 63,153 L 61,153 L 59,151 Z" fill="black" /><path d="M 202,148 L 199,151 L 199,152 L 198,153 L 198,154 L 197,155 L 197,156 L 195,158 L 195,159 L 192,162 L 192,163 L 191,164 L 191,165 L 189,167 L 189,168 L 187,170 L 187,171 L 185,173 L 185,175 L 181,179 L 181,180 L 179,182 L 179,184 L 227,184 L 228,183 L 228,181 L 227,180 L 227,179 L 226,178 L 226,177 L 225,177 L 222,174 L 222,172 L 220,170 L 220,169 L 218,167 L 218,166 L 212,160 L 212,158 L 210,156 L 210,155 L 208,153 L 208,151 L 205,148 Z" fill="black" /><path d="M 134,78 L 133,79 L 129,79 L 128,80 L 127,80 L 126,81 L 125,81 L 123,83 L 122,83 L 118,87 L 117,87 L 117,88 L 116,89 L 116,90 L 115,91 L 115,92 L 114,93 L 114,94 L 113,95 L 113,98 L 112,99 L 112,100 L 111,101 L 111,107 L 113,109 L 113,114 L 114,115 L 114,116 L 115,117 L 115,118 L 117,120 L 117,121 L 118,122 L 119,122 L 123,126 L 124,126 L 125,127 L 126,127 L 127,128 L 130,128 L 131,129 L 132,129 L 133,130 L 144,130 L 146,128 L 150,128 L 150,127 L 151,126 L 152,126 L 154,124 L 155,124 L 158,121 L 158,120 L 160,118 L 160,115 L 162,113 L 162,111 L 163,110 L 163,107 L 164,106 L 164,97 L 162,95 L 162,93 L 161,93 L 160,92 L 160,89 L 159,89 L 158,88 L 158,87 L 154,83 L 153,83 L 151,81 L 149,81 L 147,79 L 145,79 L 144,78 Z" fill="black" /><path d="M 209,30 L 208,31 L 203,31 L 202,32 L 201,32 L 199,34 L 198,34 L 189,43 L 189,44 L 187,46 L 187,49 L 186,50 L 186,53 L 185,54 L 185,60 L 186,61 L 186,62 L 187,63 L 187,66 L 188,67 L 188,68 L 189,69 L 189,70 L 190,71 L 190,72 L 194,76 L 195,76 L 197,78 L 198,78 L 199,79 L 200,79 L 201,80 L 204,80 L 205,81 L 208,81 L 209,82 L 212,82 L 213,81 L 216,81 L 217,80 L 221,80 L 223,78 L 224,78 L 225,77 L 226,77 L 227,76 L 228,76 L 228,75 L 229,74 L 230,74 L 230,73 L 234,69 L 234,67 L 236,65 L 236,63 L 237,62 L 237,56 L 238,55 L 238,54 L 237,53 L 237,49 L 236,48 L 236,47 L 235,46 L 235,45 L 234,44 L 234,43 L 231,40 L 231,39 L 227,35 L 226,35 L 224,33 L 223,33 L 222,32 L 221,32 L 220,31 L 217,31 L 216,30 Z" fill="black" /><path d="M 47,15 L 46,16 L 42,16 L 41,17 L 39,17 L 38,18 L 37,18 L 36,19 L 35,19 L 35,20 L 34,21 L 33,21 L 29,25 L 29,26 L 28,27 L 27,27 L 27,31 L 25,33 L 25,35 L 24,36 L 24,40 L 25,41 L 24,42 L 24,44 L 25,45 L 25,47 L 26,48 L 26,50 L 27,51 L 27,53 L 29,55 L 29,56 L 30,56 L 31,57 L 31,58 L 32,58 L 33,59 L 33,60 L 34,60 L 35,61 L 35,62 L 36,62 L 38,64 L 40,64 L 41,65 L 43,65 L 44,66 L 53,66 L 54,65 L 58,65 L 59,64 L 62,64 L 62,63 L 63,62 L 64,62 L 65,61 L 66,61 L 68,59 L 68,58 L 70,56 L 70,55 L 72,53 L 72,51 L 73,50 L 73,49 L 74,48 L 74,46 L 75,45 L 75,40 L 76,39 L 75,38 L 75,35 L 74,34 L 74,32 L 72,30 L 72,27 L 69,24 L 69,23 L 68,23 L 63,18 L 61,18 L 60,17 L 57,17 L 56,16 L 55,16 L 54,15 Z" fill="black" /></svg>