<?xml version='1.0' encoding='utf-8'?>
<svg width="258" height="218" xmlns="http://www.w3.org/2000/svg" viewBox="0 0 258 218"><rect width="258" height="218" fill="white" /><path d="M 197,163 L 196,164 L 195,164 L 194,165 L 194,167 L 192,169 L 192,170 L 190,172 L 190,174 L 187,177 L 187,178 L 183,182 L 183,183 L 182,184 L 182,186 L 180,188 L 180,189 L 178,191 L 178,192 L 177,193 L 177,194 L 176,195 L 176,196 L 174,198 L 174,199 L 172,201 L 172,203 L 170,205 L 170,206 L 169,207 L 170,208 L 182,208 L 183,207 L 189,207 L 190,208 L 191,207 L 213,207 L 214,206 L 223,206 L 224,205 L 224,203 L 223,202 L 222,202 L 221,201 L 221,200 L 219,198 L 219,197 L 218,196 L 218,195 L 217,194 L 217,193 L 216,192 L 216,191 L 215,190 L 215,189 L 214,189 L 213,188 L 213,187 L 212,186 L 212,185 L 211,184 L 211,182 L 209,180 L 209,179 L 208,178 L 208,177 L 207,176 L 207,175 L 205,173 L 205,172 L 203,170 L 203,169 L 200,166 L 200,165 L 199,164 L 199,163 Z" fill="black" /><path d="M 64,151 L 63,152 L 62,152 L 61,153 L 59,153 L 58,154 L 57,154 L 56,155 L 55,155 L 53,157 L 52,157 L 52,158 L 46,164 L 46,165 L 45,166 L 45,167 L 44,168 L 44,173 L 43,174 L 43,177 L 44,178 L 44,186 L 46,188 L 46,190 L 47,190 L 48,191 L 48,192 L 51,195 L 51,196 L 52,197 L 53,197 L 56,200 L 60,200 L 62,202 L 77,202 L 78,201 L 79,201 L 80,200 L 81,200 L 83,198 L 85,198 L 87,196 L 87,195 L 88,194 L 89,194 L 89,193 L 90,192 L 90,191 L 93,188 L 93,187 L 94,186 L 94,184 L 95,183 L 95,171 L 94,170 L 94,169 L 93,168 L 93,164 L 89,160 L 89,159 L 88,159 L 87,158 L 87,157 L 86,157 L 84,155 L 82,155 L 80,153 L 78,153 L 77,152 L 76,152 L 75,151 Z" fill="black" /><path d="M 114,89 L 113,90 L 110,90 L 110,94 L 111,95 L 111,96 L 114,99 L 114,100 L 115,101 L 115,102 L 116,103 L 116,104 L 117,105 L 117,106 L 120,109 L 120,110 L 122,112 L 122,114 L 123,115 L 123,116 L 124,117 L 124,118 L 127,121 L 127,122 L 128,123 L 128,124 L 129,125 L 129,126 L 130,127 L 130,128 L 131,128 L 132,129 L 132,130 L 133,131 L 133,133 L 135,135 L 136,134 L 137,134 L 137,130 L 139,128 L 139,126 L 141,124 L 141,123 L 143,121 L 143,120 L 145,118 L 145,115 L 147,113 L 147,111 L 150,108 L 150,107 L 151,106 L 151,105 L 153,103 L 153,101 L 154,100 L 155,100 L 155,98 L 157,96 L 157,94 L 159,92 L 159,90 L 158,90 L 157,89 L 118,89 L 117,90 L 116,90 L 115,89 Z" fill="black" /><path d="M 196,42 L 195,43 L 192,43 L 191,44 L 190,44 L 189,45 L 187,45 L 185,47 L 184,47 L 184,48 L 183,49 L 182,49 L 182,50 L 179,53 L 179,54 L 176,57 L 176,58 L 175,59 L 175,60 L 174,61 L 174,68 L 173,69 L 174,70 L 174,76 L 175,77 L 175,78 L 178,81 L 178,82 L 180,84 L 180,85 L 183,88 L 185,88 L 186,89 L 186,90 L 187,90 L 188,91 L 189,91 L 190,92 L 195,92 L 196,93 L 204,93 L 205,92 L 209,92 L 210,91 L 211,91 L 212,90 L 213,90 L 213,89 L 214,88 L 215,88 L 217,86 L 218,86 L 219,85 L 219,83 L 222,80 L 223,80 L 223,78 L 224,77 L 224,76 L 225,75 L 225,71 L 226,70 L 226,67 L 225,66 L 225,60 L 223,58 L 223,56 L 221,54 L 221,53 L 219,51 L 219,50 L 217,48 L 216,48 L 215,47 L 214,47 L 213,46 L 213,45 L 211,45 L 210,44 L 208,44 L 207,43 L 205,43 L 204,42 L 201,42 L 200,43 L 199,43 L 198,42 Z" fill="black" /><path d="M 52,35 L 51,36 L 50,36 L 49,37 L 48,37 L 47,38 L 46,38 L 45,39 L 44,39 L 42,41 L 41,41 L 38,44 L 38,45 L 37,46 L 37,48 L 34,51 L 34,54 L 33,55 L 33,56 L 32,57 L 32,61 L 33,62 L 33,66 L 34,67 L 34,70 L 35,71 L 35,72 L 36,73 L 36,74 L 38,76 L 38,77 L 40,79 L 40,80 L 41,80 L 43,82 L 45,82 L 46,83 L 46,84 L 48,84 L 49,85 L 51,85 L 52,86 L 65,86 L 66,85 L 68,85 L 69,84 L 71,84 L 71,83 L 72,82 L 74,82 L 78,78 L 79,78 L 79,77 L 81,75 L 81,73 L 83,71 L 83,69 L 84,68 L 84,67 L 85,66 L 85,57 L 84,56 L 84,53 L 83,52 L 83,51 L 82,50 L 82,49 L 81,48 L 81,47 L 80,47 L 79,46 L 79,45 L 78,44 L 78,43 L 74,39 L 73,39 L 72,38 L 71,38 L 70,37 L 68,37 L 67,36 L 66,36 L 65,35 Z" fill="black" /></svg>