<?xml version="1.0" encoding="utf-8" ?>
<svg baseProfile="full" height="220" version="1.1" width="258" xmlns="http://www.w3.org/2000/svg" xmlns:ev="http://www.w3.org/2001/xml-events" xmlns:xlink="http://www.w3.org/1999/xlink"><defs /><rect fill="white" height="220" width="258" x="0" y="0" /><path d="M 65,165 L 50,192 L 82,193 Z" fill="none" stroke="black" stroke-width="1" /><path d="M 191,187 L 225,189 L 207,161 Z" fill="none" stroke="black" stroke-width="1" /><path d="M 40,200 L 64,154 L 96,196 Z" fill="black" stroke="black" stroke-width="1" /><path d="M 208,145 L 236,194 L 179,197 Z" fill="black" stroke="black" stroke-width="1" /><path d="M 125,100 L 143,127 L 157,100 Z" fill="none" stroke="black" stroke-width="1" /><path d="M 115,95 L 168,94 L 144,140 Z" fill="black" stroke="black" stroke-width="1" /><circle cx="64.39432525634766" cy="65.28308868408203" fill="none" r="21.692453384399414" stroke="black" stroke-width="1" /><circle cx="64.21126556396484" cy="65.0492935180664" fill="none" r="28.232622146606445" stroke="black" stroke-width="1" /><circle cx="212.2318572998047" cy="48.47378921508789" fill="none" r="20.652170181274414" stroke="black" stroke-width="1" /><circle cx="212.2322235107422" cy="48.48539352416992" fill="none" r="27.542278289794922" stroke="black" stroke-width="1" /><path d="M 0,0 L 0,219 L 257,219 L 257,0 Z" fill="none" stroke="black" stroke-width="1" /></svg>