<?xml version='1.0' encoding='utf-8'?>
<svg width="258" height="222" xmlns="http://www.w3.org/2000/svg" viewBox="0 0 258 222"><rect width="258" height="222" fill="white" /><path d="M 178,152 L 178,168 L 177,169 L 177,171 L 178,172 L 177,173 L 177,178 L 178,179 L 178,187 L 215,187 L 215,161 L 216,160 L 216,156 L 215,155 L 215,152 Z" fill="black" /><path d="M 67,92 L 67,93 L 66,94 L 66,95 L 65,96 L 65,97 L 64,98 L 64,99 L 63,100 L 63,101 L 62,102 L 62,104 L 59,107 L 59,108 L 58,109 L 58,111 L 57,112 L 57,113 L 56,114 L 56,116 L 54,118 L 54,119 L 53,120 L 53,121 L 52,122 L 52,124 L 50,126 L 50,128 L 48,130 L 48,133 L 50,135 L 93,135 L 94,134 L 95,134 L 95,132 L 93,130 L 93,129 L 91,127 L 91,126 L 89,124 L 89,123 L 87,121 L 87,120 L 86,120 L 85,119 L 85,118 L 84,117 L 84,116 L 83,115 L 83,114 L 82,114 L 81,113 L 81,112 L 80,111 L 80,110 L 79,109 L 79,108 L 77,106 L 77,105 L 75,103 L 75,102 L 73,100 L 73,99 L 71,97 L 71,95 L 69,93 L 69,92 Z" fill="black" /><path d="M 173,33 L 171,35 L 171,36 L 170,37 L 170,67 L 171,68 L 173,68 L 174,69 L 194,69 L 195,68 L 199,68 L 200,69 L 203,69 L 204,68 L 204,67 L 205,66 L 205,54 L 206,53 L 206,47 L 207,46 L 207,44 L 206,43 L 206,42 L 205,41 L 206,40 L 206,34 L 205,33 L 196,33 L 195,34 L 194,34 L 193,33 L 188,33 L 187,34 L 183,34 L 182,33 Z" fill="black" /></svg>