<?xml version='1.0' encoding='utf-8'?>
<svg width="263" height="221" xmlns="http://www.w3.org/2000/svg" viewBox="0 0 263 221"><rect width="263" height="221" fill="white" /><path d="M 211,156 L 209,158 L 209,160 L 206,163 L 206,165 L 204,167 L 204,168 L 203,169 L 203,170 L 202,171 L 202,174 L 201,175 L 201,176 L 198,179 L 198,181 L 196,183 L 196,184 L 195,185 L 195,186 L 194,187 L 194,189 L 192,191 L 192,192 L 190,194 L 190,196 L 189,197 L 189,198 L 188,199 L 188,203 L 189,204 L 190,204 L 191,203 L 195,203 L 196,204 L 198,204 L 199,203 L 203,203 L 204,204 L 206,204 L 207,203 L 211,203 L 212,204 L 241,204 L 242,203 L 242,201 L 241,200 L 241,197 L 239,195 L 239,194 L 235,190 L 235,189 L 234,188 L 234,187 L 231,184 L 231,182 L 229,180 L 229,179 L 228,179 L 227,178 L 227,177 L 226,176 L 226,175 L 223,172 L 223,171 L 222,170 L 222,169 L 219,166 L 219,165 L 217,163 L 217,162 L 215,160 L 215,159 L 213,157 L 212,157 Z" fill="black" /><path d="M 128,155 L 127,156 L 124,156 L 123,157 L 120,157 L 118,159 L 117,159 L 112,164 L 112,165 L 110,167 L 110,169 L 109,170 L 109,171 L 108,172 L 108,187 L 109,188 L 109,190 L 110,191 L 110,192 L 113,195 L 113,196 L 114,197 L 115,197 L 116,198 L 117,198 L 118,199 L 118,200 L 119,200 L 121,202 L 124,202 L 126,204 L 139,204 L 140,203 L 141,203 L 142,202 L 143,202 L 145,200 L 146,200 L 147,199 L 148,199 L 149,198 L 149,197 L 150,196 L 151,196 L 151,195 L 153,193 L 153,191 L 155,189 L 155,187 L 156,186 L 156,184 L 157,183 L 157,175 L 155,173 L 155,169 L 154,168 L 154,167 L 151,164 L 151,163 L 150,163 L 149,162 L 149,161 L 147,159 L 146,159 L 145,158 L 144,158 L 143,157 L 142,157 L 141,156 L 140,156 L 139,155 Z" fill="black" /><path d="M 51,117 L 48,120 L 48,121 L 46,123 L 46,125 L 44,127 L 44,129 L 42,131 L 42,133 L 40,135 L 40,136 L 39,137 L 38,137 L 38,139 L 36,141 L 36,142 L 35,143 L 35,144 L 34,145 L 34,146 L 33,147 L 33,148 L 32,149 L 32,150 L 30,152 L 30,153 L 28,155 L 28,156 L 27,157 L 27,158 L 26,159 L 26,163 L 27,164 L 77,164 L 78,163 L 80,163 L 82,161 L 79,158 L 79,157 L 78,156 L 78,155 L 77,154 L 77,153 L 76,152 L 76,151 L 75,150 L 75,149 L 74,149 L 73,148 L 73,147 L 72,146 L 72,145 L 71,144 L 71,143 L 70,143 L 69,142 L 69,141 L 67,139 L 67,138 L 65,136 L 65,135 L 62,132 L 62,131 L 61,130 L 61,129 L 59,127 L 59,126 L 57,124 L 57,122 L 55,120 L 55,119 L 53,117 Z" fill="black" /><path d="M 109,95 L 108,96 L 108,98 L 109,99 L 109,101 L 108,102 L 108,130 L 143,130 L 144,131 L 146,131 L 147,130 L 147,99 L 146,98 L 146,97 L 145,96 L 130,96 L 129,97 L 128,97 L 127,96 L 120,96 L 119,97 L 118,96 L 112,96 L 111,95 Z" fill="black" /><path d="M 217,80 L 216,81 L 210,81 L 210,116 L 218,116 L 219,115 L 223,115 L 224,116 L 225,116 L 226,115 L 227,115 L 228,114 L 230,114 L 231,115 L 236,115 L 237,114 L 241,114 L 242,115 L 245,115 L 246,114 L 246,113 L 247,112 L 247,109 L 246,108 L 246,106 L 247,105 L 247,99 L 246,98 L 246,97 L 247,96 L 247,81 L 246,80 L 230,80 L 229,81 L 219,81 L 218,80 Z" fill="black" /><path d="M 59,25 L 58,26 L 56,26 L 55,27 L 52,27 L 51,28 L 50,28 L 49,29 L 48,29 L 46,31 L 45,31 L 45,32 L 42,35 L 41,35 L 41,36 L 40,37 L 40,38 L 39,39 L 39,40 L 38,41 L 38,42 L 37,43 L 37,47 L 36,48 L 36,54 L 37,55 L 37,57 L 38,58 L 38,61 L 40,63 L 40,64 L 42,66 L 42,67 L 43,67 L 44,68 L 44,69 L 49,74 L 51,74 L 53,76 L 57,76 L 58,77 L 63,77 L 64,76 L 69,76 L 70,75 L 71,75 L 72,74 L 74,74 L 77,71 L 78,71 L 80,69 L 81,69 L 81,68 L 83,66 L 83,65 L 84,64 L 84,63 L 85,62 L 85,61 L 86,60 L 86,59 L 87,58 L 87,42 L 85,40 L 85,39 L 84,38 L 84,37 L 81,34 L 81,33 L 80,33 L 79,32 L 79,31 L 78,31 L 76,29 L 74,29 L 73,28 L 72,28 L 71,27 L 68,27 L 67,26 L 64,26 L 63,25 Z" fill="black" /><path d="M 162,21 L 161,22 L 160,22 L 159,23 L 158,23 L 157,24 L 156,24 L 155,25 L 154,25 L 152,27 L 152,28 L 151,29 L 150,29 L 148,31 L 148,33 L 146,35 L 146,38 L 145,39 L 145,41 L 144,42 L 144,51 L 145,52 L 145,53 L 146,54 L 146,57 L 148,59 L 148,60 L 149,60 L 150,61 L 150,62 L 152,64 L 153,64 L 154,65 L 154,66 L 155,66 L 157,68 L 159,68 L 160,69 L 163,69 L 164,70 L 170,70 L 171,69 L 173,69 L 174,68 L 177,68 L 179,66 L 182,66 L 184,64 L 185,64 L 185,63 L 188,60 L 188,59 L 189,58 L 189,57 L 191,55 L 191,52 L 192,51 L 192,50 L 193,49 L 193,41 L 192,40 L 192,39 L 191,38 L 191,36 L 189,34 L 189,32 L 187,30 L 187,29 L 185,27 L 184,27 L 183,26 L 183,25 L 181,25 L 179,23 L 176,23 L 175,22 L 174,22 L 173,21 Z" fill="black" /></svg>