<?xml version="1.0" encoding="utf-8" ?>
<svg baseProfile="full" height="220" version="1.1" width="260" xmlns="http://www.w3.org/2000/svg" xmlns:ev="http://www.w3.org/2001/xml-events" xmlns:xlink="http://www.w3.org/1999/xlink"><defs /><rect fill="white" height="220" width="260" x="0" y="0" /><circle cx="115.31402587890625" cy="175.20962524414062" fill="none" r="18.80299186706543" stroke="black" stroke-width="1" /><path d="M 178,156 L 180,180 L 197,180 L 197,157 Z" fill="none" stroke="black" stroke-width="1" /><circle cx="115.39628601074219" cy="175.05108642578125" fill="none" r="25.28036117553711" stroke="black" stroke-width="1" /><path d="M 168,150 L 205,149 L 207,185 L 173,187 Z" fill="black" stroke="black" stroke-width="1" /><circle cx="50.78070068359375" cy="128.9111785888672" fill="none" r="18.802886962890625" stroke="black" stroke-width="1" /><circle cx="50.47151184082031" cy="128.9843292236328" fill="none" r="25.54878807067871" stroke="black" stroke-width="1" /><circle cx="139.12353515625" cy="97.25882720947266" fill="none" r="19.011232376098633" stroke="black" stroke-width="1" /><circle cx="224.5" cy="92.5" fill="none" r="18.560810089111328" stroke="black" stroke-width="1" /><circle cx="139.0025177001953" cy="97.25879669189453" fill="none" r="25.544755935668945" stroke="black" stroke-width="1" /><circle cx="224.13818359375" cy="93.1968765258789" fill="none" r="25.15110969543457" stroke="black" stroke-width="1" /><path d="M 53,46 L 82,49 L 68,25 Z" fill="none" stroke="black" stroke-width="1" /><path d="M 188,22 L 174,47 L 203,48 Z" fill="none" stroke="black" stroke-width="1" /><path d="M 40,52 L 67,13 L 94,53 Z" fill="black" stroke="black" stroke-width="1" /><path d="M 187,12 L 213,54 L 166,53 Z" fill="black" stroke="black" stroke-width="1" /><path d="M 0,0 L 0,219 L 259,219 L 259,0 Z" fill="none" stroke="black" stroke-width="1" /></svg>