<?xml version='1.0' encoding='utf-8'?>
<svg width="260" height="223" xmlns="http://www.w3.org/2000/svg" viewBox="0 0 260 223"><rect width="260" height="223" fill="white" /><path d="M 157,154 L 155,156 L 155,157 L 154,158 L 154,160 L 152,162 L 152,164 L 150,166 L 150,167 L 148,169 L 148,170 L 147,171 L 146,171 L 146,174 L 145,175 L 144,175 L 144,178 L 141,181 L 141,182 L 140,183 L 140,184 L 138,186 L 138,187 L 136,189 L 136,190 L 135,191 L 135,192 L 134,193 L 134,194 L 130,198 L 130,199 L 128,201 L 128,203 L 143,203 L 144,202 L 185,202 L 185,198 L 183,196 L 183,195 L 181,193 L 181,191 L 180,191 L 179,190 L 179,189 L 178,188 L 178,187 L 177,186 L 177,184 L 175,182 L 175,181 L 174,180 L 174,179 L 171,176 L 171,175 L 170,174 L 170,173 L 167,170 L 167,168 L 165,166 L 165,165 L 164,164 L 164,163 L 163,162 L 163,161 L 162,161 L 161,160 L 161,159 L 160,158 L 160,156 L 158,154 Z" fill="black" /><path d="M 48,145 L 47,146 L 45,146 L 44,147 L 42,147 L 41,148 L 40,148 L 39,149 L 38,149 L 35,152 L 34,152 L 34,153 L 30,157 L 30,160 L 28,162 L 28,176 L 29,177 L 29,178 L 30,179 L 30,182 L 31,183 L 31,184 L 32,185 L 32,186 L 33,186 L 34,187 L 34,188 L 36,190 L 37,190 L 39,192 L 41,192 L 43,194 L 46,194 L 47,195 L 52,195 L 53,196 L 55,196 L 56,195 L 57,195 L 58,194 L 61,194 L 61,193 L 62,192 L 63,192 L 64,191 L 65,191 L 66,190 L 67,190 L 69,188 L 70,188 L 72,186 L 72,185 L 73,184 L 73,183 L 74,182 L 74,181 L 75,180 L 75,177 L 76,176 L 76,172 L 77,171 L 77,168 L 76,167 L 76,165 L 75,164 L 75,160 L 73,158 L 73,157 L 71,155 L 71,153 L 70,153 L 68,151 L 67,151 L 65,149 L 64,149 L 62,147 L 60,147 L 59,146 L 58,146 L 57,145 Z" fill="black" /><path d="M 212,93 L 208,97 L 208,98 L 207,99 L 207,100 L 206,101 L 206,102 L 204,104 L 204,106 L 203,107 L 202,107 L 202,108 L 201,109 L 201,110 L 200,111 L 200,112 L 199,113 L 199,114 L 198,115 L 198,116 L 196,118 L 196,119 L 194,121 L 194,122 L 192,124 L 192,125 L 190,127 L 190,128 L 189,129 L 189,133 L 190,133 L 191,134 L 192,134 L 193,133 L 209,133 L 210,134 L 215,134 L 216,133 L 236,133 L 238,131 L 238,128 L 235,125 L 235,124 L 233,122 L 233,121 L 231,119 L 231,118 L 227,114 L 227,113 L 226,113 L 225,112 L 225,111 L 224,110 L 224,109 L 223,108 L 223,107 L 222,106 L 222,105 L 221,104 L 221,102 L 219,100 L 219,99 L 217,97 L 217,96 L 215,94 L 215,93 Z" fill="black" /><path d="M 142,81 L 141,82 L 138,82 L 137,83 L 134,83 L 133,84 L 132,84 L 131,85 L 130,85 L 124,91 L 124,92 L 123,93 L 122,93 L 122,96 L 121,97 L 121,98 L 120,99 L 120,106 L 119,107 L 120,108 L 120,112 L 121,113 L 121,114 L 122,115 L 122,117 L 124,119 L 124,121 L 127,124 L 128,124 L 132,128 L 135,128 L 136,129 L 138,129 L 139,130 L 140,129 L 149,129 L 150,128 L 153,128 L 154,127 L 155,127 L 156,126 L 157,126 L 161,122 L 161,121 L 163,119 L 163,118 L 165,116 L 165,115 L 166,114 L 166,112 L 167,111 L 167,103 L 166,102 L 166,100 L 165,99 L 165,96 L 164,95 L 164,94 L 163,93 L 163,91 L 161,89 L 160,89 L 159,88 L 159,87 L 157,85 L 155,85 L 153,83 L 150,83 L 149,82 L 148,82 L 147,81 Z" fill="black" /><path d="M 45,28 L 44,29 L 44,50 L 43,51 L 43,57 L 44,58 L 44,63 L 46,65 L 54,65 L 55,64 L 78,64 L 79,65 L 82,65 L 82,63 L 81,62 L 81,45 L 82,44 L 82,29 L 61,29 L 60,30 L 51,30 L 50,31 L 49,31 L 47,29 L 46,29 Z" fill="black" /><path d="M 194,15 L 193,16 L 192,16 L 191,17 L 188,17 L 185,20 L 184,20 L 180,24 L 180,25 L 178,27 L 178,28 L 177,29 L 177,30 L 176,31 L 176,45 L 178,47 L 178,50 L 179,51 L 179,52 L 180,53 L 180,54 L 181,54 L 182,55 L 182,56 L 183,56 L 184,57 L 184,58 L 185,58 L 187,60 L 188,60 L 190,62 L 193,62 L 194,63 L 199,63 L 200,64 L 203,64 L 204,63 L 207,63 L 208,62 L 211,62 L 211,61 L 212,60 L 214,60 L 218,56 L 219,56 L 219,55 L 220,54 L 220,53 L 221,52 L 221,51 L 222,50 L 222,48 L 223,47 L 223,46 L 225,44 L 225,35 L 224,34 L 224,31 L 223,30 L 223,27 L 221,25 L 221,24 L 220,24 L 219,23 L 219,22 L 218,21 L 217,21 L 215,19 L 214,19 L 213,18 L 213,17 L 210,17 L 209,16 L 208,16 L 207,15 Z" fill="black" /></svg>