<?xml version='1.0' encoding='utf-8'?>
<svg width="260" height="222" xmlns="http://www.w3.org/2000/svg" viewBox="0 0 260 222"><rect width="260" height="222" fill="white" /><path d="M 163,158 L 162,159 L 160,159 L 159,160 L 158,160 L 156,162 L 154,162 L 152,164 L 151,164 L 151,165 L 149,167 L 149,168 L 147,170 L 147,171 L 146,172 L 146,174 L 145,175 L 145,191 L 146,192 L 146,193 L 149,196 L 149,197 L 150,197 L 151,198 L 151,199 L 152,199 L 153,200 L 153,201 L 154,201 L 155,202 L 156,202 L 157,203 L 158,203 L 159,204 L 160,204 L 161,205 L 164,205 L 165,206 L 167,206 L 168,207 L 169,206 L 173,206 L 174,205 L 177,205 L 179,203 L 181,203 L 183,201 L 184,201 L 184,200 L 185,199 L 186,199 L 186,198 L 187,197 L 188,197 L 190,195 L 190,193 L 191,192 L 191,190 L 192,189 L 192,184 L 193,183 L 192,182 L 192,177 L 191,176 L 191,174 L 190,173 L 190,172 L 188,170 L 188,168 L 187,167 L 187,166 L 185,164 L 184,164 L 182,162 L 181,162 L 180,161 L 180,160 L 179,160 L 178,159 L 177,159 L 176,158 Z" fill="black" /><path d="M 58,153 L 57,154 L 57,155 L 55,157 L 55,159 L 53,161 L 53,162 L 51,164 L 51,165 L 50,166 L 50,167 L 49,168 L 49,169 L 48,170 L 48,171 L 47,172 L 47,173 L 45,175 L 45,177 L 44,178 L 44,179 L 43,180 L 43,181 L 41,183 L 41,184 L 40,185 L 40,186 L 38,188 L 38,189 L 37,190 L 37,191 L 36,192 L 36,194 L 37,195 L 60,195 L 61,194 L 62,195 L 80,195 L 81,194 L 82,195 L 86,195 L 86,192 L 85,191 L 85,190 L 84,189 L 84,188 L 83,188 L 82,187 L 82,186 L 81,185 L 81,184 L 80,183 L 80,182 L 78,180 L 78,179 L 76,177 L 76,176 L 75,175 L 75,174 L 74,173 L 74,172 L 73,172 L 72,171 L 72,170 L 71,169 L 71,168 L 70,167 L 70,166 L 68,164 L 68,163 L 66,161 L 66,160 L 64,158 L 64,157 L 62,155 L 62,154 L 61,153 Z" fill="black" /><path d="M 219,100 L 217,102 L 217,103 L 216,104 L 216,105 L 215,106 L 215,107 L 213,109 L 213,111 L 211,113 L 211,114 L 209,116 L 209,117 L 208,118 L 208,119 L 207,120 L 207,122 L 205,124 L 205,125 L 204,126 L 204,127 L 203,128 L 203,129 L 202,130 L 202,131 L 201,132 L 201,133 L 200,134 L 200,135 L 199,136 L 199,137 L 198,138 L 198,139 L 197,140 L 197,143 L 243,143 L 244,142 L 244,138 L 242,136 L 242,134 L 240,132 L 240,131 L 238,129 L 238,128 L 237,127 L 237,126 L 236,125 L 236,124 L 235,124 L 234,123 L 234,121 L 232,119 L 232,118 L 230,116 L 230,115 L 228,113 L 228,111 L 224,107 L 224,104 L 221,101 L 221,100 Z" fill="black" /><path d="M 129,94 L 129,103 L 128,104 L 128,108 L 129,109 L 129,113 L 128,114 L 128,124 L 129,125 L 128,126 L 128,129 L 162,129 L 163,128 L 163,127 L 164,126 L 163,125 L 163,121 L 162,120 L 162,119 L 163,118 L 163,109 L 164,108 L 164,107 L 163,106 L 163,100 L 164,99 L 164,98 L 162,96 L 162,95 L 161,94 L 148,94 L 147,95 L 146,94 Z" fill="black" /><path d="M 65,26 L 65,29 L 63,31 L 63,33 L 61,35 L 61,36 L 59,38 L 59,40 L 57,42 L 57,43 L 56,44 L 56,45 L 55,46 L 55,47 L 54,48 L 54,49 L 53,50 L 53,51 L 51,53 L 51,55 L 49,57 L 49,58 L 47,60 L 47,62 L 45,64 L 45,65 L 43,67 L 43,68 L 42,69 L 42,72 L 43,73 L 45,73 L 46,72 L 50,72 L 51,73 L 52,72 L 57,72 L 58,73 L 59,72 L 81,72 L 82,71 L 91,71 L 92,70 L 93,70 L 93,68 L 92,67 L 92,64 L 90,62 L 90,61 L 88,59 L 88,58 L 87,57 L 87,56 L 86,55 L 86,54 L 85,54 L 84,53 L 84,50 L 83,50 L 82,49 L 82,48 L 80,46 L 80,44 L 79,43 L 79,42 L 78,41 L 78,40 L 77,40 L 76,39 L 76,37 L 74,35 L 74,32 L 73,32 L 72,31 L 72,30 L 70,28 L 70,27 L 69,26 Z" fill="black" /><path d="M 193,12 L 192,13 L 190,13 L 189,14 L 185,14 L 185,15 L 184,16 L 183,16 L 182,17 L 181,17 L 180,18 L 179,18 L 179,19 L 177,21 L 177,22 L 175,24 L 175,25 L 174,26 L 174,27 L 173,28 L 173,43 L 175,45 L 175,47 L 177,49 L 177,50 L 182,55 L 183,55 L 185,57 L 186,57 L 187,58 L 190,58 L 191,59 L 194,59 L 195,60 L 196,60 L 197,59 L 204,59 L 206,57 L 208,57 L 210,55 L 212,55 L 212,54 L 216,50 L 216,48 L 217,47 L 218,47 L 218,43 L 219,42 L 219,40 L 220,39 L 220,33 L 218,31 L 218,27 L 217,26 L 217,25 L 215,23 L 215,22 L 214,21 L 214,20 L 213,20 L 212,19 L 212,18 L 211,18 L 209,16 L 207,16 L 205,14 L 203,14 L 202,13 L 199,13 L 198,12 Z" fill="black" /></svg>