<?xml version='1.0' encoding='utf-8'?>
<svg width="260" height="220" xmlns="http://www.w3.org/2000/svg" viewBox="0 0 260 220"><rect width="260" height="220" fill="white" /><path d="M 112,151 L 111,152 L 108,152 L 108,153 L 107,154 L 104,154 L 103,155 L 102,155 L 101,156 L 100,156 L 100,157 L 99,158 L 98,158 L 98,159 L 96,161 L 96,163 L 94,165 L 94,168 L 93,169 L 93,170 L 92,171 L 92,179 L 94,181 L 94,185 L 95,186 L 95,187 L 96,188 L 96,189 L 97,189 L 98,190 L 98,191 L 99,192 L 99,193 L 100,194 L 101,194 L 102,195 L 103,195 L 105,197 L 109,197 L 110,198 L 111,198 L 112,199 L 119,199 L 120,198 L 123,198 L 124,197 L 126,197 L 128,195 L 129,195 L 131,193 L 132,193 L 133,192 L 133,190 L 134,189 L 135,189 L 135,188 L 137,186 L 137,184 L 138,183 L 138,180 L 139,179 L 139,171 L 137,169 L 137,164 L 132,159 L 132,158 L 131,158 L 130,157 L 129,157 L 127,155 L 127,154 L 126,154 L 125,153 L 124,153 L 123,152 L 116,152 L 115,151 Z" fill="black" /><path d="M 169,150 L 169,159 L 170,160 L 170,168 L 171,169 L 171,179 L 172,180 L 171,181 L 171,184 L 173,186 L 174,186 L 175,187 L 177,187 L 178,186 L 189,186 L 190,187 L 193,187 L 194,186 L 198,186 L 199,187 L 204,187 L 206,185 L 206,174 L 205,173 L 205,157 L 204,156 L 204,154 L 205,153 L 205,150 L 198,150 L 197,151 L 195,151 L 194,150 Z" fill="black" /><path d="M 49,105 L 48,106 L 44,106 L 43,107 L 42,107 L 41,108 L 39,108 L 37,110 L 36,110 L 36,111 L 35,112 L 34,112 L 32,114 L 32,115 L 30,117 L 30,119 L 28,121 L 28,125 L 26,127 L 26,128 L 27,129 L 27,132 L 28,133 L 28,135 L 29,136 L 29,138 L 31,140 L 31,141 L 32,142 L 32,143 L 33,144 L 33,145 L 36,148 L 37,148 L 38,149 L 39,149 L 41,151 L 44,151 L 45,152 L 46,152 L 47,153 L 53,153 L 54,152 L 56,152 L 57,151 L 60,151 L 61,150 L 63,150 L 64,149 L 65,149 L 65,148 L 66,147 L 67,147 L 67,146 L 68,145 L 69,145 L 69,144 L 71,142 L 71,141 L 72,140 L 72,139 L 73,138 L 73,136 L 74,135 L 74,131 L 75,130 L 75,128 L 74,127 L 74,126 L 73,125 L 73,123 L 72,122 L 72,120 L 71,119 L 71,118 L 69,116 L 69,114 L 67,112 L 66,112 L 65,111 L 65,110 L 63,108 L 62,108 L 61,107 L 60,107 L 59,106 L 50,106 Z" fill="black" /><path d="M 131,74 L 129,76 L 127,76 L 125,78 L 124,78 L 120,82 L 120,83 L 118,85 L 118,86 L 117,87 L 117,88 L 116,89 L 116,95 L 115,96 L 115,101 L 116,102 L 116,106 L 118,108 L 118,109 L 120,111 L 120,112 L 122,114 L 122,115 L 123,115 L 125,117 L 127,117 L 129,119 L 131,119 L 132,120 L 133,120 L 134,121 L 143,121 L 144,120 L 146,120 L 147,119 L 148,119 L 150,117 L 153,117 L 153,116 L 154,115 L 155,115 L 157,113 L 157,112 L 158,111 L 159,111 L 159,109 L 160,108 L 160,107 L 161,106 L 161,104 L 162,103 L 162,100 L 163,99 L 163,92 L 162,91 L 162,90 L 161,89 L 161,88 L 160,87 L 160,86 L 159,85 L 159,84 L 158,84 L 157,83 L 157,82 L 155,80 L 154,80 L 153,79 L 153,78 L 151,78 L 149,76 L 148,76 L 147,75 L 146,75 L 145,74 Z" fill="black" /><path d="M 219,70 L 218,71 L 216,71 L 215,72 L 214,72 L 213,73 L 212,73 L 211,74 L 210,74 L 208,76 L 208,77 L 207,78 L 206,78 L 204,80 L 204,82 L 202,84 L 202,87 L 201,88 L 201,93 L 200,94 L 201,95 L 201,99 L 202,100 L 202,101 L 203,102 L 203,103 L 206,106 L 206,107 L 210,111 L 211,111 L 212,112 L 212,113 L 214,113 L 215,114 L 216,114 L 217,115 L 221,115 L 222,116 L 227,116 L 228,115 L 233,115 L 235,113 L 237,113 L 243,107 L 243,106 L 244,105 L 245,105 L 245,104 L 246,103 L 246,102 L 247,101 L 247,98 L 248,97 L 248,90 L 247,89 L 247,86 L 246,85 L 246,84 L 245,83 L 245,82 L 244,81 L 244,80 L 243,79 L 243,78 L 242,78 L 238,74 L 236,74 L 235,73 L 235,72 L 233,72 L 231,70 Z" fill="black" /><path d="M 64,14 L 62,16 L 62,17 L 61,18 L 61,19 L 60,20 L 60,21 L 59,22 L 59,23 L 58,24 L 58,25 L 57,26 L 57,27 L 56,28 L 56,29 L 55,30 L 54,30 L 54,32 L 52,34 L 52,35 L 51,36 L 51,37 L 50,38 L 50,39 L 48,41 L 48,42 L 46,44 L 46,46 L 44,48 L 44,49 L 41,52 L 41,54 L 42,55 L 59,55 L 60,56 L 80,56 L 81,55 L 91,55 L 93,53 L 93,52 L 91,50 L 91,49 L 89,47 L 89,45 L 87,43 L 87,42 L 85,40 L 85,39 L 83,37 L 83,36 L 82,35 L 82,34 L 81,33 L 81,32 L 80,32 L 79,31 L 79,29 L 77,27 L 77,26 L 75,24 L 75,23 L 73,21 L 73,20 L 72,19 L 72,18 L 70,16 L 69,16 L 67,14 Z" fill="black" /><path d="M 187,13 L 186,14 L 186,15 L 184,17 L 184,18 L 182,20 L 182,21 L 180,23 L 180,25 L 179,26 L 179,27 L 178,28 L 178,29 L 177,30 L 176,30 L 176,33 L 174,35 L 174,37 L 172,39 L 172,41 L 171,42 L 170,42 L 170,44 L 168,46 L 168,49 L 167,50 L 167,53 L 213,53 L 213,51 L 211,49 L 211,48 L 209,46 L 209,45 L 207,43 L 207,42 L 206,41 L 206,40 L 205,39 L 205,38 L 204,38 L 203,37 L 203,35 L 201,33 L 201,32 L 200,31 L 200,30 L 199,29 L 199,28 L 197,26 L 197,25 L 195,23 L 195,22 L 194,21 L 194,20 L 191,17 L 191,15 L 190,14 L 190,13 Z" fill="black" /></svg>