<?xml version='1.0' encoding='utf-8'?>
<svg width="262" height="220" xmlns="http://www.w3.org/2000/svg" viewBox="0 0 262 220"><rect width="262" height="220" fill="white" /><path d="M 133,69 L 132,70 L 132,72 L 130,74 L 130,75 L 129,76 L 127,76 L 125,78 L 124,78 L 122,80 L 118,80 L 117,81 L 111,81 L 110,80 L 108,80 L 107,79 L 106,79 L 105,78 L 104,78 L 102,76 L 101,76 L 99,74 L 98,74 L 97,73 L 96,74 L 96,76 L 95,77 L 95,82 L 96,83 L 96,89 L 97,90 L 97,94 L 98,95 L 98,105 L 99,106 L 99,109 L 100,110 L 100,115 L 101,116 L 101,117 L 102,118 L 104,118 L 104,116 L 107,113 L 107,112 L 108,111 L 109,111 L 109,110 L 112,107 L 113,107 L 115,105 L 119,105 L 120,104 L 125,104 L 126,105 L 132,105 L 133,106 L 134,106 L 135,107 L 136,107 L 138,109 L 140,109 L 141,110 L 144,110 L 144,107 L 142,105 L 142,104 L 141,103 L 141,100 L 140,99 L 140,95 L 139,94 L 139,85 L 138,84 L 138,83 L 137,82 L 137,72 L 135,70 L 134,70 Z" fill="black" /><path d="M 0,0 L 0,219 L 261,219 L 261,0 Z" fill="none" stroke="black" stroke-width="1" /></svg>