<?xml version='1.0' encoding='utf-8'?>
<svg width="258" height="220" xmlns="http://www.w3.org/2000/svg" viewBox="0 0 258 220"><rect width="258" height="220" fill="white" /><path d="M 127,85 L 126,86 L 126,89 L 125,90 L 125,92 L 124,93 L 124,96 L 123,97 L 123,99 L 122,100 L 122,104 L 121,105 L 121,107 L 120,108 L 120,112 L 119,113 L 119,115 L 118,116 L 118,120 L 117,121 L 117,122 L 116,123 L 116,129 L 121,129 L 122,128 L 123,128 L 124,127 L 127,127 L 128,126 L 133,126 L 134,125 L 148,125 L 149,124 L 151,124 L 152,123 L 157,123 L 158,122 L 157,121 L 157,120 L 156,119 L 156,118 L 155,117 L 155,116 L 154,116 L 151,113 L 151,112 L 149,110 L 149,109 L 145,105 L 145,104 L 144,104 L 141,101 L 141,100 L 136,95 L 136,94 L 135,93 L 135,92 L 128,85 Z" fill="black" /><path d="M 0,0 L 0,219 L 257,219 L 257,0 Z" fill="none" stroke="black" stroke-width="1" /></svg>