<?xml version='1.0' encoding='utf-8'?>
<svg width="257" height="220" xmlns="http://www.w3.org/2000/svg" viewBox="0 0 257 220"><rect width="257" height="220" fill="white" /><path d="M 145,41 L 144,42 L 135,42 L 134,43 L 133,42 L 129,42 L 127,44 L 126,44 L 124,46 L 123,46 L 122,45 L 115,45 L 114,46 L 108,46 L 106,48 L 97,48 L 96,49 L 95,49 L 94,50 L 91,50 L 90,51 L 89,51 L 88,52 L 87,52 L 86,53 L 85,53 L 84,54 L 82,54 L 80,56 L 77,56 L 74,59 L 73,59 L 72,60 L 71,60 L 70,61 L 69,61 L 68,62 L 67,62 L 67,63 L 66,64 L 65,64 L 65,65 L 62,68 L 60,68 L 57,71 L 57,72 L 55,74 L 55,75 L 53,77 L 53,78 L 51,80 L 51,83 L 49,85 L 49,89 L 48,90 L 47,90 L 47,93 L 46,94 L 46,95 L 45,96 L 45,99 L 44,100 L 44,104 L 43,105 L 43,109 L 44,110 L 44,111 L 43,112 L 43,116 L 45,118 L 45,121 L 47,123 L 47,127 L 48,128 L 48,129 L 49,130 L 49,131 L 50,131 L 51,132 L 51,134 L 52,135 L 53,135 L 57,139 L 59,139 L 61,141 L 62,141 L 63,142 L 64,142 L 65,143 L 71,143 L 72,144 L 77,144 L 78,145 L 88,145 L 89,144 L 93,144 L 94,143 L 100,143 L 102,141 L 104,141 L 105,140 L 107,140 L 108,139 L 110,139 L 111,138 L 114,138 L 115,137 L 116,137 L 117,136 L 118,136 L 119,135 L 129,135 L 131,137 L 132,137 L 135,140 L 135,144 L 136,145 L 136,150 L 137,151 L 137,153 L 136,154 L 136,161 L 135,162 L 135,167 L 134,168 L 134,175 L 135,176 L 135,183 L 136,184 L 136,185 L 137,186 L 137,187 L 138,188 L 138,189 L 140,191 L 142,191 L 143,192 L 144,192 L 147,195 L 150,195 L 151,196 L 158,196 L 159,195 L 162,195 L 163,194 L 164,194 L 165,193 L 169,193 L 171,191 L 174,191 L 174,190 L 175,189 L 177,189 L 177,188 L 178,187 L 178,186 L 183,181 L 184,181 L 184,180 L 185,179 L 186,179 L 186,178 L 189,175 L 190,175 L 192,173 L 192,171 L 195,168 L 196,168 L 197,167 L 198,167 L 198,166 L 199,165 L 199,163 L 203,159 L 203,158 L 204,157 L 204,156 L 205,155 L 206,155 L 206,152 L 207,151 L 207,150 L 208,149 L 208,148 L 209,147 L 209,146 L 212,143 L 212,140 L 213,139 L 213,138 L 214,137 L 214,136 L 215,135 L 215,134 L 216,133 L 216,126 L 217,125 L 217,124 L 218,123 L 218,118 L 220,116 L 220,113 L 219,112 L 219,108 L 220,107 L 220,106 L 219,105 L 219,104 L 218,103 L 218,96 L 217,95 L 217,94 L 216,93 L 216,88 L 214,86 L 214,84 L 213,83 L 213,82 L 212,81 L 212,78 L 210,76 L 210,74 L 208,72 L 208,70 L 206,68 L 206,67 L 204,65 L 204,64 L 203,64 L 202,63 L 202,62 L 201,62 L 195,56 L 194,56 L 190,52 L 189,52 L 188,51 L 187,51 L 186,50 L 185,50 L 184,49 L 184,48 L 180,48 L 178,46 L 176,46 L 175,45 L 174,45 L 173,44 L 167,44 L 165,42 L 154,42 L 153,41 L 152,41 L 151,42 L 149,42 L 148,41 Z" fill="black" /><path d="M 0,0 L 0,219 L 256,219 L 256,0 Z" fill="none" stroke="black" stroke-width="1" /></svg>