<?xml version='1.0' encoding='utf-8'?>
<svg width="257" height="220" xmlns="http://www.w3.org/2000/svg" viewBox="0 0 257 220"><rect width="257" height="220" fill="white" /><path d="M 124,155 L 123,156 L 111,156 L 111,161 L 112,162 L 112,186 L 113,187 L 114,187 L 115,188 L 131,188 L 132,187 L 133,187 L 134,188 L 137,188 L 138,187 L 144,187 L 145,188 L 147,188 L 149,186 L 149,158 L 148,157 L 148,156 L 147,155 L 141,155 L 140,156 L 139,155 L 136,155 L 135,156 L 132,156 L 131,155 L 129,155 L 128,156 L 125,156 Z" fill="black" /></svg>