<?xml version='1.0' encoding='utf-8'?>
<svg width="261" height="221" xmlns="http://www.w3.org/2000/svg" viewBox="0 0 261 221"><rect width="261" height="221" fill="white" /><path d="M 193,138 L 192,139 L 190,139 L 189,140 L 189,141 L 183,147 L 183,148 L 181,150 L 181,152 L 180,153 L 180,155 L 179,156 L 179,158 L 178,159 L 178,160 L 177,161 L 177,165 L 178,166 L 178,170 L 179,171 L 179,173 L 182,176 L 183,176 L 185,178 L 196,178 L 197,177 L 198,177 L 199,176 L 200,176 L 201,175 L 201,169 L 202,168 L 201,167 L 201,163 L 202,162 L 202,161 L 203,160 L 203,159 L 204,158 L 204,157 L 205,156 L 206,156 L 206,155 L 208,153 L 208,148 L 206,146 L 206,144 L 203,141 L 202,141 L 200,139 L 199,139 L 198,138 Z" fill="black" /><path d="M 0,0 L 0,220 L 260,220 L 260,0 Z" fill="none" stroke="black" stroke-width="1" /></svg>