<?xml version='1.0' encoding='utf-8'?>
<svg width="257" height="219" xmlns="http://www.w3.org/2000/svg" viewBox="0 0 257 219"><rect width="257" height="219" fill="white" /><path d="M 14,17 L 13,18 L 13,23 L 14,24 L 14,33 L 15,34 L 15,65 L 30,65 L 31,64 L 32,65 L 34,65 L 35,64 L 41,64 L 42,65 L 44,65 L 45,64 L 54,64 L 55,65 L 66,65 L 67,64 L 67,51 L 68,50 L 68,49 L 67,48 L 67,24 L 68,23 L 68,17 L 64,17 L 63,18 L 63,19 L 54,28 L 53,28 L 53,29 L 52,30 L 51,30 L 51,31 L 50,32 L 49,32 L 49,33 L 46,36 L 45,36 L 40,41 L 36,37 L 36,36 L 35,36 L 34,35 L 34,34 L 33,34 L 30,31 L 30,30 L 29,30 L 28,29 L 28,28 L 27,28 L 24,25 L 24,24 L 23,24 L 22,23 L 22,22 L 21,22 L 18,19 L 18,18 L 17,17 Z" fill="black" /><path d="M 0,0 L 0,218 L 256,218 L 256,0 Z" fill="none" stroke="black" stroke-width="1" /></svg>