<?xml version='1.0' encoding='utf-8'?>
<svg width="260" height="219" xmlns="http://www.w3.org/2000/svg" viewBox="0 0 260 219"><rect width="260" height="219" fill="white" /><path d="M 226,20 L 225,21 L 225,22 L 224,23 L 224,25 L 222,27 L 222,29 L 220,31 L 220,32 L 219,33 L 219,34 L 218,35 L 218,36 L 215,39 L 215,40 L 214,41 L 214,42 L 211,45 L 210,45 L 210,46 L 207,49 L 206,49 L 206,50 L 203,53 L 202,53 L 202,54 L 201,55 L 200,55 L 200,56 L 197,59 L 196,59 L 196,60 L 189,67 L 188,67 L 188,68 L 187,69 L 186,69 L 186,70 L 185,71 L 184,71 L 184,72 L 183,73 L 182,73 L 182,74 L 181,75 L 180,75 L 176,79 L 175,79 L 174,80 L 173,80 L 172,81 L 171,81 L 170,80 L 170,78 L 171,77 L 170,76 L 170,75 L 169,75 L 168,74 L 168,71 L 167,70 L 167,68 L 165,66 L 165,65 L 163,63 L 163,60 L 159,56 L 159,55 L 158,54 L 158,53 L 155,50 L 155,49 L 154,49 L 153,48 L 153,47 L 149,43 L 149,42 L 148,41 L 147,41 L 146,40 L 146,39 L 142,35 L 142,34 L 140,32 L 139,32 L 137,34 L 138,35 L 138,36 L 140,38 L 140,39 L 142,41 L 142,43 L 144,45 L 144,46 L 145,46 L 146,47 L 146,48 L 150,52 L 150,53 L 154,57 L 154,58 L 155,59 L 155,60 L 156,61 L 156,62 L 157,62 L 158,63 L 158,64 L 160,66 L 160,68 L 161,69 L 161,70 L 162,71 L 162,72 L 164,74 L 164,76 L 165,77 L 165,78 L 166,79 L 166,81 L 167,82 L 167,86 L 166,87 L 165,87 L 164,88 L 164,89 L 162,91 L 161,91 L 155,97 L 154,97 L 150,101 L 149,101 L 148,102 L 148,103 L 146,105 L 145,105 L 143,107 L 142,107 L 142,108 L 141,109 L 140,109 L 140,110 L 139,111 L 138,111 L 138,112 L 137,113 L 136,113 L 136,114 L 135,115 L 134,115 L 134,116 L 131,119 L 131,120 L 130,121 L 130,122 L 129,123 L 128,123 L 128,124 L 127,125 L 126,125 L 126,126 L 123,129 L 123,130 L 122,131 L 122,132 L 120,134 L 120,135 L 118,137 L 118,140 L 117,141 L 116,141 L 116,144 L 114,146 L 114,147 L 113,148 L 113,150 L 112,151 L 112,155 L 111,156 L 111,157 L 110,158 L 110,174 L 111,175 L 111,176 L 112,177 L 112,178 L 113,179 L 113,180 L 114,181 L 114,183 L 119,188 L 120,188 L 121,189 L 122,189 L 123,190 L 125,190 L 126,191 L 126,192 L 131,192 L 132,193 L 139,193 L 140,194 L 146,194 L 147,193 L 149,193 L 150,192 L 154,192 L 158,188 L 161,188 L 161,187 L 162,186 L 164,186 L 166,184 L 167,184 L 169,182 L 169,181 L 170,180 L 171,180 L 171,179 L 172,178 L 173,178 L 173,177 L 174,176 L 175,176 L 175,175 L 176,174 L 176,173 L 177,172 L 177,171 L 178,170 L 179,170 L 179,169 L 180,168 L 180,167 L 181,166 L 181,165 L 182,164 L 182,163 L 183,162 L 183,157 L 184,156 L 184,154 L 185,153 L 185,147 L 186,146 L 186,137 L 187,136 L 187,135 L 186,134 L 186,129 L 185,128 L 185,122 L 184,121 L 184,120 L 183,119 L 183,113 L 182,112 L 182,109 L 181,108 L 181,104 L 180,103 L 180,101 L 179,100 L 179,97 L 178,96 L 178,95 L 176,93 L 176,91 L 175,90 L 175,87 L 178,84 L 179,84 L 179,83 L 182,80 L 183,80 L 183,79 L 184,78 L 185,78 L 189,74 L 190,74 L 190,73 L 192,71 L 193,71 L 194,70 L 195,70 L 195,69 L 198,66 L 199,66 L 199,65 L 200,64 L 201,64 L 201,63 L 204,60 L 205,60 L 205,59 L 209,55 L 209,54 L 210,53 L 211,53 L 212,52 L 212,51 L 217,46 L 217,45 L 218,44 L 219,44 L 219,43 L 221,41 L 221,39 L 222,38 L 223,38 L 223,37 L 224,36 L 224,35 L 225,34 L 225,33 L 227,31 L 227,30 L 229,28 L 229,25 L 230,24 L 230,20 Z" fill="black" /><path d="M 0,0 L 0,218 L 259,218 L 259,0 Z" fill="none" stroke="black" stroke-width="1" /></svg>