<?xml version='1.0' encoding='utf-8'?>
<svg width="254" height="221" xmlns="http://www.w3.org/2000/svg" viewBox="0 0 254 221"><rect width="254" height="221" fill="white" /><path d="M 229,44 L 226,47 L 226,48 L 225,49 L 225,50 L 224,51 L 224,52 L 223,53 L 223,54 L 222,55 L 222,57 L 220,59 L 220,60 L 218,62 L 218,63 L 216,65 L 216,66 L 215,67 L 215,68 L 214,69 L 214,70 L 213,71 L 212,71 L 212,73 L 210,75 L 210,76 L 209,77 L 208,77 L 208,78 L 205,81 L 205,82 L 204,83 L 204,84 L 198,90 L 194,90 L 193,89 L 192,89 L 191,88 L 190,88 L 189,87 L 178,87 L 177,86 L 165,86 L 164,85 L 163,86 L 159,86 L 158,87 L 150,87 L 149,88 L 148,88 L 147,89 L 141,89 L 139,91 L 136,91 L 134,93 L 130,93 L 129,94 L 128,94 L 127,95 L 126,95 L 124,97 L 122,97 L 121,98 L 120,98 L 119,99 L 118,99 L 116,101 L 115,101 L 113,103 L 112,103 L 112,104 L 111,105 L 110,105 L 107,108 L 106,108 L 105,109 L 101,109 L 99,107 L 97,107 L 95,105 L 93,105 L 89,101 L 88,101 L 87,100 L 86,100 L 85,99 L 84,99 L 80,95 L 78,95 L 77,94 L 77,93 L 75,93 L 71,89 L 70,89 L 67,86 L 67,85 L 66,85 L 59,78 L 59,77 L 58,77 L 52,71 L 51,71 L 50,70 L 50,69 L 47,66 L 47,65 L 46,64 L 46,63 L 41,58 L 41,57 L 40,56 L 40,55 L 36,51 L 32,51 L 32,56 L 33,57 L 33,58 L 34,59 L 34,60 L 35,60 L 36,61 L 36,62 L 38,64 L 39,64 L 40,65 L 40,66 L 41,67 L 41,68 L 46,73 L 46,74 L 47,74 L 48,75 L 48,76 L 49,76 L 50,77 L 50,78 L 53,81 L 53,82 L 54,82 L 56,84 L 56,85 L 57,86 L 58,86 L 62,90 L 63,90 L 64,91 L 64,92 L 65,92 L 67,94 L 68,94 L 70,96 L 71,96 L 74,99 L 75,99 L 76,100 L 77,100 L 79,102 L 80,102 L 82,104 L 83,104 L 84,105 L 85,105 L 86,106 L 87,106 L 88,107 L 89,107 L 90,108 L 91,108 L 92,109 L 92,110 L 94,110 L 95,111 L 96,111 L 98,113 L 98,115 L 97,116 L 96,116 L 94,118 L 94,119 L 88,125 L 88,126 L 87,127 L 86,127 L 86,128 L 85,129 L 84,129 L 84,130 L 82,132 L 82,134 L 81,135 L 80,135 L 80,136 L 78,138 L 78,139 L 76,141 L 76,142 L 74,144 L 74,145 L 72,147 L 72,148 L 70,150 L 70,151 L 69,152 L 69,153 L 68,154 L 68,155 L 66,157 L 66,158 L 65,159 L 65,160 L 64,161 L 64,162 L 63,163 L 63,164 L 62,165 L 62,166 L 60,168 L 60,170 L 58,172 L 58,174 L 56,176 L 56,180 L 57,181 L 60,181 L 63,178 L 63,177 L 64,176 L 64,175 L 65,174 L 65,173 L 66,172 L 66,171 L 67,170 L 67,168 L 69,166 L 69,165 L 70,164 L 70,163 L 71,162 L 71,161 L 73,159 L 73,158 L 75,156 L 75,154 L 76,153 L 76,152 L 77,151 L 77,150 L 81,146 L 81,145 L 83,143 L 83,141 L 84,140 L 85,140 L 85,139 L 87,137 L 87,135 L 90,132 L 91,132 L 91,131 L 94,128 L 94,127 L 95,126 L 96,126 L 99,123 L 99,122 L 102,119 L 103,119 L 106,116 L 109,116 L 110,117 L 111,117 L 112,118 L 117,118 L 118,119 L 120,119 L 121,120 L 128,120 L 129,121 L 147,121 L 148,120 L 153,120 L 154,119 L 156,119 L 157,118 L 162,118 L 163,117 L 164,117 L 165,116 L 167,116 L 168,115 L 169,115 L 170,114 L 171,114 L 172,113 L 173,113 L 174,112 L 176,112 L 177,111 L 178,111 L 179,110 L 180,110 L 182,108 L 183,108 L 184,107 L 185,107 L 188,104 L 189,104 L 190,103 L 191,103 L 196,98 L 199,98 L 201,100 L 203,100 L 206,103 L 207,103 L 208,104 L 209,104 L 211,106 L 213,106 L 217,110 L 218,110 L 222,114 L 223,114 L 224,115 L 224,116 L 225,116 L 227,118 L 228,118 L 232,122 L 232,123 L 233,124 L 234,124 L 237,127 L 240,127 L 241,126 L 242,126 L 242,123 L 240,121 L 239,121 L 233,115 L 232,115 L 231,114 L 231,113 L 229,111 L 228,111 L 225,108 L 224,108 L 223,107 L 222,107 L 221,106 L 221,105 L 220,105 L 218,103 L 217,103 L 215,101 L 214,101 L 212,99 L 210,99 L 209,98 L 209,97 L 208,97 L 206,95 L 205,95 L 203,93 L 203,92 L 205,90 L 205,89 L 206,88 L 206,87 L 207,86 L 208,86 L 209,85 L 209,83 L 212,80 L 213,80 L 213,79 L 215,77 L 215,76 L 219,72 L 219,70 L 221,68 L 221,67 L 222,66 L 222,65 L 223,64 L 223,63 L 224,62 L 225,62 L 225,60 L 227,58 L 227,57 L 228,56 L 228,55 L 229,54 L 229,53 L 230,52 L 230,51 L 231,50 L 231,49 L 232,48 L 232,46 L 230,44 Z" fill="black" /><path d="M 0,0 L 0,220 L 253,220 L 253,0 Z" fill="none" stroke="black" stroke-width="1" /></svg>