<?xml version='1.0' encoding='utf-8'?>
<svg width="259" height="217" xmlns="http://www.w3.org/2000/svg" viewBox="0 0 259 217"><rect width="259" height="217" fill="white" /><path d="M 133,44 L 132,45 L 127,45 L 126,46 L 123,46 L 122,47 L 121,47 L 120,48 L 117,48 L 116,49 L 115,49 L 114,50 L 113,50 L 112,51 L 111,51 L 110,52 L 108,52 L 106,54 L 105,54 L 103,56 L 101,56 L 101,57 L 100,58 L 99,58 L 94,63 L 93,63 L 92,64 L 92,65 L 87,70 L 87,71 L 85,73 L 85,74 L 83,76 L 83,77 L 81,79 L 81,80 L 80,81 L 80,82 L 79,83 L 79,85 L 77,87 L 77,89 L 76,90 L 76,91 L 75,92 L 75,96 L 74,97 L 74,98 L 73,99 L 73,105 L 72,106 L 72,110 L 71,111 L 71,115 L 72,116 L 72,123 L 73,124 L 73,130 L 74,131 L 74,132 L 75,133 L 75,136 L 76,137 L 76,138 L 77,139 L 77,141 L 79,143 L 79,145 L 81,147 L 81,149 L 83,151 L 83,152 L 85,154 L 85,155 L 91,161 L 91,162 L 92,163 L 93,163 L 97,167 L 98,167 L 99,168 L 99,169 L 100,169 L 102,171 L 103,171 L 107,175 L 109,175 L 111,177 L 114,177 L 115,178 L 116,178 L 117,179 L 120,179 L 122,181 L 124,181 L 125,182 L 130,182 L 131,183 L 154,183 L 155,182 L 158,182 L 159,181 L 164,181 L 166,179 L 168,179 L 169,178 L 170,178 L 171,177 L 174,177 L 174,176 L 175,175 L 177,175 L 179,173 L 180,173 L 182,171 L 183,171 L 185,169 L 186,169 L 186,168 L 187,167 L 189,167 L 190,166 L 190,165 L 191,164 L 192,164 L 196,160 L 196,159 L 198,157 L 198,156 L 199,155 L 200,155 L 200,154 L 201,153 L 201,152 L 204,149 L 204,148 L 205,147 L 205,146 L 206,145 L 206,144 L 207,143 L 207,142 L 208,141 L 208,139 L 209,138 L 209,137 L 210,136 L 210,134 L 211,133 L 211,132 L 212,131 L 212,124 L 213,123 L 213,120 L 214,119 L 214,106 L 213,105 L 213,102 L 212,101 L 212,96 L 211,95 L 211,94 L 210,93 L 210,90 L 209,89 L 209,86 L 208,85 L 208,84 L 206,82 L 206,80 L 205,80 L 204,79 L 204,77 L 202,75 L 202,74 L 201,74 L 200,73 L 200,72 L 196,68 L 196,67 L 189,60 L 188,60 L 187,59 L 187,58 L 186,58 L 184,56 L 183,56 L 181,54 L 179,54 L 178,53 L 178,52 L 177,52 L 176,51 L 175,51 L 174,50 L 173,50 L 172,49 L 171,49 L 170,48 L 165,48 L 163,46 L 161,46 L 160,45 L 155,45 L 154,44 Z" fill="black" /></svg>