<?xml version='1.0' encoding='utf-8'?>
<svg width="258" height="219" xmlns="http://www.w3.org/2000/svg" viewBox="0 0 258 219"><rect width="258" height="219" fill="white" /><path d="M 224,26 L 223,27 L 220,27 L 219,28 L 213,28 L 212,29 L 211,29 L 210,30 L 208,30 L 206,32 L 203,32 L 201,34 L 200,34 L 198,36 L 197,36 L 197,37 L 196,38 L 195,38 L 194,39 L 193,39 L 192,40 L 191,40 L 191,41 L 190,42 L 189,42 L 187,44 L 185,44 L 181,48 L 181,53 L 184,53 L 185,52 L 186,52 L 187,51 L 188,51 L 188,50 L 189,49 L 190,49 L 190,48 L 191,47 L 192,47 L 194,45 L 195,45 L 199,41 L 201,41 L 203,39 L 204,39 L 204,38 L 205,37 L 207,37 L 209,35 L 212,35 L 213,34 L 214,34 L 215,33 L 220,33 L 221,32 L 234,32 L 235,33 L 236,33 L 238,35 L 239,35 L 241,37 L 242,37 L 243,38 L 243,39 L 246,42 L 246,44 L 247,45 L 246,46 L 246,47 L 247,48 L 247,50 L 246,51 L 246,53 L 245,54 L 245,55 L 243,57 L 243,58 L 238,63 L 237,63 L 234,66 L 233,66 L 231,68 L 227,68 L 226,69 L 225,69 L 224,70 L 220,70 L 218,72 L 212,72 L 211,73 L 208,73 L 207,74 L 204,74 L 202,76 L 198,76 L 197,77 L 196,77 L 195,78 L 193,78 L 192,79 L 191,79 L 190,80 L 189,80 L 188,81 L 187,81 L 186,82 L 185,82 L 185,83 L 184,84 L 181,84 L 181,85 L 180,86 L 179,86 L 178,87 L 177,87 L 172,92 L 171,92 L 171,93 L 170,94 L 169,94 L 169,95 L 168,96 L 167,96 L 167,97 L 166,98 L 165,98 L 157,106 L 157,107 L 156,108 L 155,108 L 155,109 L 151,113 L 151,114 L 149,116 L 148,116 L 147,117 L 147,118 L 143,122 L 143,123 L 142,124 L 141,124 L 141,125 L 138,128 L 138,129 L 135,132 L 135,133 L 131,137 L 131,138 L 129,140 L 129,141 L 127,143 L 127,144 L 125,146 L 125,147 L 124,148 L 123,148 L 123,149 L 120,152 L 117,152 L 116,151 L 113,151 L 112,150 L 103,150 L 102,149 L 97,149 L 96,148 L 77,148 L 76,149 L 73,149 L 72,150 L 68,150 L 66,152 L 61,152 L 60,153 L 59,153 L 58,154 L 56,154 L 54,156 L 52,156 L 50,158 L 49,158 L 48,159 L 47,159 L 44,162 L 43,162 L 43,163 L 42,164 L 41,164 L 39,166 L 39,167 L 38,168 L 38,169 L 37,170 L 37,171 L 36,172 L 36,175 L 35,176 L 35,182 L 36,183 L 36,187 L 37,188 L 37,189 L 39,191 L 39,192 L 41,194 L 41,195 L 42,196 L 42,197 L 45,200 L 46,200 L 47,201 L 48,201 L 50,203 L 51,203 L 53,205 L 56,205 L 57,206 L 59,206 L 60,207 L 64,207 L 65,206 L 66,206 L 67,205 L 70,205 L 71,204 L 74,204 L 75,203 L 78,203 L 79,202 L 80,202 L 81,201 L 82,201 L 84,199 L 86,199 L 92,193 L 93,193 L 93,192 L 96,189 L 97,189 L 101,185 L 101,184 L 102,183 L 102,182 L 103,181 L 104,181 L 106,179 L 106,178 L 109,175 L 109,174 L 112,171 L 112,170 L 114,168 L 114,167 L 116,165 L 116,163 L 118,161 L 119,161 L 122,158 L 130,158 L 131,159 L 135,159 L 136,160 L 137,159 L 140,159 L 141,160 L 141,161 L 147,161 L 149,163 L 159,163 L 160,164 L 161,164 L 162,163 L 180,163 L 181,162 L 184,162 L 185,161 L 194,161 L 195,160 L 198,160 L 199,159 L 200,159 L 203,156 L 203,155 L 202,154 L 196,154 L 195,155 L 192,155 L 191,156 L 186,156 L 185,157 L 184,157 L 183,158 L 159,158 L 158,159 L 157,158 L 147,158 L 146,157 L 145,157 L 144,156 L 137,156 L 136,155 L 135,155 L 134,154 L 129,154 L 127,152 L 127,151 L 126,150 L 127,149 L 128,149 L 130,147 L 130,146 L 131,145 L 132,145 L 132,144 L 133,143 L 134,143 L 134,142 L 137,139 L 137,138 L 138,137 L 138,136 L 139,135 L 139,134 L 142,131 L 143,131 L 144,130 L 144,128 L 147,125 L 148,125 L 148,124 L 151,121 L 152,121 L 152,120 L 154,118 L 154,117 L 156,115 L 156,114 L 157,113 L 158,113 L 158,112 L 159,111 L 159,110 L 160,109 L 161,109 L 171,99 L 172,99 L 172,98 L 173,97 L 174,97 L 177,94 L 177,93 L 178,92 L 180,92 L 181,91 L 182,91 L 184,89 L 185,89 L 187,87 L 188,87 L 189,86 L 190,86 L 191,85 L 192,85 L 193,84 L 194,84 L 195,83 L 196,83 L 196,82 L 197,81 L 202,81 L 202,80 L 203,79 L 206,79 L 207,78 L 208,79 L 210,79 L 211,78 L 212,78 L 213,77 L 216,77 L 217,76 L 220,76 L 221,75 L 224,75 L 226,73 L 228,73 L 229,72 L 232,72 L 233,71 L 235,71 L 237,69 L 240,69 L 243,66 L 244,66 L 245,65 L 246,65 L 246,64 L 248,62 L 248,60 L 249,59 L 250,59 L 250,56 L 251,55 L 251,52 L 252,51 L 252,46 L 251,45 L 251,44 L 250,43 L 250,38 L 248,36 L 248,35 L 245,32 L 241,32 L 240,31 L 240,30 L 239,30 L 238,29 L 237,29 L 236,28 L 231,28 L 230,27 L 227,27 L 226,26 Z" fill="black" /><path d="M 83,18 L 82,19 L 79,19 L 78,20 L 73,20 L 71,22 L 69,22 L 68,23 L 67,23 L 66,24 L 65,24 L 63,26 L 62,26 L 60,28 L 59,28 L 58,29 L 57,29 L 57,30 L 55,32 L 54,32 L 51,35 L 51,36 L 47,40 L 47,41 L 45,43 L 45,45 L 43,47 L 43,51 L 42,52 L 42,53 L 41,54 L 41,58 L 40,59 L 40,71 L 41,72 L 41,78 L 42,79 L 42,80 L 43,81 L 43,85 L 44,86 L 44,87 L 45,88 L 45,90 L 47,92 L 47,93 L 49,95 L 49,96 L 51,98 L 51,99 L 52,99 L 53,100 L 53,101 L 57,105 L 58,105 L 61,108 L 62,108 L 63,109 L 64,109 L 66,111 L 68,111 L 69,112 L 70,112 L 71,113 L 74,113 L 75,114 L 78,114 L 79,115 L 100,115 L 101,114 L 102,114 L 103,113 L 106,113 L 108,111 L 111,111 L 113,109 L 114,109 L 116,107 L 117,107 L 121,103 L 122,103 L 122,102 L 123,101 L 124,101 L 126,99 L 126,98 L 129,95 L 129,94 L 132,91 L 132,89 L 134,87 L 134,84 L 135,83 L 135,82 L 136,81 L 136,77 L 137,76 L 137,73 L 138,72 L 138,63 L 137,62 L 137,59 L 136,58 L 136,52 L 135,51 L 135,50 L 134,49 L 134,46 L 132,44 L 132,43 L 130,41 L 130,40 L 128,38 L 128,37 L 119,28 L 117,28 L 115,26 L 114,26 L 112,24 L 111,24 L 109,22 L 107,22 L 106,21 L 105,21 L 104,20 L 101,20 L 100,19 L 96,19 L 95,18 Z" fill="black" /></svg>