<?xml version='1.0' encoding='utf-8'?>
<svg width="259" height="219" xmlns="http://www.w3.org/2000/svg" viewBox="0 0 259 219"><rect width="259" height="219" fill="white" /><path d="M 112,61 L 111,62 L 111,63 L 110,64 L 110,83 L 109,84 L 109,85 L 108,86 L 108,90 L 106,92 L 106,94 L 105,95 L 105,96 L 104,97 L 104,98 L 103,99 L 103,100 L 102,101 L 102,102 L 99,105 L 99,106 L 96,109 L 96,110 L 93,113 L 92,113 L 92,114 L 89,117 L 88,117 L 88,118 L 87,119 L 86,119 L 84,121 L 83,121 L 80,124 L 79,124 L 78,125 L 76,125 L 74,127 L 72,127 L 71,128 L 70,128 L 69,129 L 66,129 L 65,130 L 62,130 L 61,131 L 60,131 L 59,130 L 56,133 L 56,140 L 57,141 L 57,145 L 58,146 L 58,150 L 59,151 L 59,152 L 60,153 L 60,156 L 62,158 L 62,161 L 64,163 L 64,164 L 65,165 L 65,166 L 66,167 L 66,168 L 67,168 L 68,169 L 68,170 L 69,171 L 69,172 L 72,175 L 72,176 L 73,176 L 74,177 L 74,178 L 75,178 L 76,179 L 76,180 L 77,180 L 78,181 L 78,182 L 79,182 L 80,183 L 80,184 L 81,184 L 82,185 L 82,186 L 83,186 L 84,187 L 85,187 L 86,188 L 87,188 L 89,190 L 90,190 L 92,192 L 94,192 L 96,194 L 98,194 L 100,196 L 103,196 L 104,197 L 106,197 L 107,198 L 110,198 L 111,199 L 113,199 L 114,200 L 138,200 L 139,199 L 141,199 L 142,198 L 147,198 L 148,197 L 149,197 L 150,196 L 153,196 L 153,195 L 154,194 L 158,194 L 160,192 L 162,192 L 164,190 L 165,190 L 167,188 L 168,188 L 170,186 L 171,186 L 173,184 L 173,183 L 174,182 L 175,182 L 177,180 L 178,180 L 182,176 L 182,175 L 185,172 L 185,171 L 186,170 L 187,170 L 187,169 L 188,168 L 188,167 L 189,166 L 189,165 L 191,163 L 191,161 L 193,159 L 193,157 L 194,156 L 194,155 L 195,154 L 195,151 L 196,150 L 196,149 L 197,148 L 197,143 L 198,142 L 198,141 L 199,140 L 199,126 L 198,125 L 198,124 L 197,123 L 193,123 L 192,124 L 183,124 L 182,125 L 181,124 L 178,124 L 177,123 L 172,123 L 171,122 L 167,122 L 166,121 L 163,121 L 161,119 L 158,119 L 157,118 L 156,118 L 155,117 L 154,117 L 153,116 L 152,116 L 151,115 L 150,115 L 149,114 L 148,114 L 147,113 L 146,113 L 142,109 L 141,109 L 132,100 L 132,99 L 128,95 L 128,94 L 127,93 L 127,91 L 126,91 L 125,90 L 125,87 L 124,87 L 123,86 L 123,84 L 122,83 L 122,81 L 121,80 L 121,79 L 120,78 L 120,77 L 119,76 L 119,71 L 118,70 L 118,65 L 117,64 L 117,61 Z" fill="black" /></svg>