<?xml version='1.0' encoding='utf-8'?>
<svg width="257" height="216" xmlns="http://www.w3.org/2000/svg" viewBox="0 0 257 216"><rect width="257" height="216" fill="white" /><path d="M 136,7 L 135,8 L 116,8 L 115,9 L 110,9 L 109,10 L 101,10 L 100,11 L 94,11 L 93,12 L 82,12 L 81,13 L 77,13 L 76,14 L 67,14 L 66,15 L 65,15 L 64,16 L 64,17 L 63,18 L 63,20 L 62,21 L 63,22 L 63,24 L 62,25 L 62,27 L 63,28 L 63,34 L 62,35 L 63,36 L 63,37 L 64,38 L 64,41 L 63,42 L 63,45 L 64,46 L 64,83 L 66,85 L 79,85 L 81,87 L 90,87 L 91,88 L 96,88 L 97,89 L 107,89 L 108,90 L 110,90 L 111,91 L 119,91 L 120,92 L 126,92 L 127,93 L 133,93 L 134,94 L 137,94 L 138,95 L 142,95 L 143,96 L 145,96 L 147,98 L 145,100 L 141,100 L 140,101 L 139,101 L 138,102 L 136,102 L 135,103 L 134,103 L 133,104 L 130,104 L 129,105 L 126,105 L 125,106 L 122,106 L 121,107 L 120,107 L 119,108 L 118,108 L 117,109 L 116,109 L 115,110 L 112,110 L 110,112 L 106,112 L 105,113 L 104,113 L 103,114 L 100,114 L 99,115 L 98,115 L 97,116 L 94,116 L 93,117 L 92,117 L 91,118 L 90,118 L 89,119 L 88,119 L 87,120 L 84,120 L 83,121 L 82,121 L 81,122 L 77,122 L 76,123 L 75,123 L 74,124 L 70,124 L 69,125 L 68,125 L 66,127 L 66,149 L 67,150 L 67,159 L 68,160 L 68,166 L 67,167 L 68,168 L 68,187 L 69,188 L 69,189 L 68,190 L 68,197 L 69,198 L 69,199 L 70,200 L 73,200 L 74,199 L 77,199 L 78,200 L 79,200 L 80,199 L 136,199 L 137,198 L 138,198 L 139,197 L 149,197 L 150,196 L 155,196 L 156,195 L 165,195 L 166,194 L 168,194 L 169,193 L 172,193 L 173,192 L 174,192 L 175,191 L 178,191 L 179,190 L 181,190 L 182,189 L 183,189 L 184,188 L 185,188 L 186,187 L 188,187 L 189,186 L 190,186 L 191,185 L 192,185 L 194,183 L 195,183 L 196,182 L 197,182 L 200,179 L 201,179 L 203,177 L 204,177 L 206,175 L 207,175 L 207,174 L 208,173 L 209,173 L 219,163 L 219,162 L 220,161 L 221,161 L 221,160 L 223,158 L 223,157 L 225,155 L 225,154 L 226,153 L 226,152 L 229,149 L 229,148 L 230,147 L 230,146 L 231,145 L 231,144 L 232,143 L 232,142 L 233,141 L 233,139 L 235,137 L 235,131 L 236,130 L 235,129 L 235,127 L 236,126 L 237,126 L 239,124 L 239,114 L 240,113 L 240,112 L 241,111 L 241,110 L 240,109 L 240,108 L 241,107 L 241,88 L 240,87 L 240,86 L 239,85 L 239,80 L 238,79 L 238,78 L 237,77 L 237,72 L 235,70 L 235,67 L 233,65 L 233,63 L 231,61 L 231,59 L 229,57 L 229,55 L 227,53 L 227,52 L 226,52 L 225,51 L 225,49 L 223,47 L 223,46 L 221,44 L 220,44 L 219,43 L 219,41 L 214,36 L 213,36 L 209,32 L 208,32 L 207,31 L 207,30 L 206,30 L 202,26 L 201,26 L 199,24 L 198,24 L 196,22 L 194,22 L 193,21 L 193,20 L 190,20 L 189,19 L 188,19 L 185,16 L 182,16 L 180,14 L 177,14 L 176,13 L 175,13 L 174,12 L 166,12 L 164,10 L 157,10 L 156,9 L 150,9 L 149,8 L 138,8 L 137,7 Z" fill="black" /></svg>