<?xml version='1.0' encoding='utf-8'?>
<svg width="261" height="219" xmlns="http://www.w3.org/2000/svg" viewBox="0 0 261 219"><rect width="261" height="219" fill="white" /><path d="M 121,31 L 120,32 L 120,33 L 119,34 L 119,37 L 118,38 L 118,45 L 117,46 L 117,47 L 116,48 L 116,51 L 114,53 L 114,57 L 112,59 L 112,61 L 111,62 L 110,62 L 110,64 L 108,66 L 108,67 L 107,68 L 107,69 L 104,72 L 104,73 L 102,75 L 102,76 L 101,77 L 100,77 L 96,81 L 96,82 L 92,86 L 91,86 L 87,90 L 86,90 L 84,92 L 83,92 L 81,94 L 80,94 L 78,96 L 77,96 L 75,98 L 74,98 L 73,99 L 72,99 L 71,100 L 70,100 L 69,101 L 68,101 L 67,102 L 65,102 L 64,103 L 63,103 L 62,104 L 58,104 L 56,106 L 54,106 L 53,107 L 51,107 L 50,108 L 47,108 L 45,110 L 42,110 L 41,111 L 40,111 L 39,112 L 36,112 L 36,117 L 51,117 L 52,118 L 55,118 L 56,119 L 66,119 L 67,120 L 69,120 L 70,121 L 74,121 L 75,122 L 77,122 L 78,123 L 81,123 L 83,125 L 87,125 L 88,126 L 88,127 L 91,127 L 93,129 L 95,129 L 96,130 L 97,130 L 98,131 L 99,131 L 101,133 L 102,133 L 104,135 L 105,135 L 106,136 L 107,136 L 108,137 L 109,137 L 110,138 L 111,138 L 112,139 L 113,139 L 114,140 L 114,141 L 115,141 L 116,142 L 116,143 L 117,143 L 118,144 L 119,144 L 120,145 L 121,145 L 122,146 L 122,147 L 123,147 L 124,148 L 124,149 L 125,149 L 132,156 L 132,157 L 133,157 L 134,158 L 134,159 L 135,159 L 136,160 L 136,161 L 140,165 L 140,166 L 144,170 L 144,171 L 146,173 L 146,174 L 149,177 L 149,179 L 152,182 L 152,183 L 153,184 L 153,185 L 154,186 L 154,188 L 156,190 L 156,191 L 157,192 L 157,193 L 158,194 L 158,197 L 159,198 L 159,199 L 160,200 L 160,203 L 162,205 L 166,205 L 167,204 L 167,202 L 166,201 L 166,198 L 165,197 L 165,194 L 164,193 L 164,191 L 163,190 L 163,186 L 162,185 L 162,184 L 161,183 L 161,176 L 160,175 L 160,174 L 159,173 L 159,154 L 160,153 L 160,151 L 159,150 L 159,147 L 160,146 L 160,145 L 161,144 L 161,140 L 162,139 L 162,138 L 163,137 L 163,134 L 164,133 L 164,132 L 165,131 L 165,126 L 167,124 L 167,122 L 169,120 L 169,118 L 171,116 L 171,115 L 175,111 L 175,108 L 182,101 L 182,100 L 184,98 L 185,98 L 188,95 L 189,95 L 189,94 L 190,93 L 191,93 L 192,92 L 194,92 L 195,91 L 195,86 L 192,86 L 191,87 L 189,87 L 188,88 L 184,88 L 183,89 L 182,89 L 181,88 L 175,88 L 174,89 L 173,88 L 166,88 L 165,87 L 164,87 L 163,86 L 161,86 L 159,84 L 157,84 L 155,82 L 154,82 L 153,81 L 152,81 L 151,80 L 150,80 L 147,77 L 146,77 L 145,76 L 144,76 L 143,75 L 143,74 L 141,72 L 140,72 L 137,69 L 137,68 L 136,67 L 136,66 L 135,65 L 135,64 L 133,62 L 133,61 L 131,59 L 131,57 L 129,55 L 129,53 L 128,52 L 128,50 L 127,49 L 127,42 L 126,41 L 126,34 L 125,33 L 125,32 L 124,31 Z" fill="black" /><path d="M 0,0 L 0,218 L 260,218 L 260,0 Z" fill="none" stroke="black" stroke-width="1" /></svg>