<?xml version='1.0' encoding='utf-8'?>
<svg width="255" height="219" xmlns="http://www.w3.org/2000/svg" viewBox="0 0 255 219"><rect width="255" height="219" fill="white" /><path d="M 153,28 L 152,29 L 149,29 L 148,30 L 144,30 L 142,32 L 139,32 L 137,34 L 136,34 L 134,36 L 133,36 L 123,46 L 122,46 L 122,47 L 121,48 L 121,49 L 119,51 L 119,53 L 117,55 L 117,59 L 115,61 L 115,64 L 112,67 L 109,64 L 109,62 L 108,62 L 106,60 L 106,59 L 104,57 L 104,56 L 103,56 L 102,55 L 102,54 L 100,52 L 99,52 L 98,51 L 98,50 L 97,50 L 96,49 L 96,48 L 95,48 L 94,47 L 94,46 L 93,46 L 90,43 L 89,43 L 88,42 L 87,42 L 85,40 L 83,40 L 81,38 L 79,38 L 77,36 L 76,36 L 74,34 L 72,34 L 71,33 L 69,33 L 68,32 L 64,32 L 63,31 L 62,31 L 61,30 L 53,30 L 52,29 L 41,29 L 40,30 L 39,30 L 38,29 L 37,29 L 36,30 L 32,30 L 30,32 L 29,32 L 28,33 L 28,39 L 29,40 L 29,57 L 30,58 L 30,61 L 31,62 L 31,77 L 32,78 L 32,84 L 33,85 L 33,95 L 34,96 L 34,104 L 35,105 L 35,118 L 36,119 L 36,123 L 37,124 L 37,133 L 38,134 L 38,141 L 39,142 L 39,160 L 40,161 L 40,163 L 41,164 L 41,173 L 43,175 L 57,175 L 58,174 L 64,174 L 65,173 L 77,173 L 78,172 L 85,172 L 86,171 L 94,171 L 95,170 L 99,170 L 100,169 L 110,169 L 111,168 L 118,168 L 119,167 L 122,167 L 123,168 L 124,167 L 130,167 L 131,166 L 133,166 L 134,165 L 136,165 L 137,166 L 141,166 L 142,165 L 152,165 L 153,164 L 158,164 L 159,163 L 166,163 L 167,162 L 172,162 L 173,161 L 185,161 L 186,160 L 190,160 L 191,159 L 199,159 L 200,158 L 200,157 L 202,155 L 202,152 L 201,151 L 201,150 L 200,149 L 200,136 L 199,135 L 199,133 L 198,132 L 198,127 L 197,126 L 197,123 L 198,122 L 197,121 L 197,118 L 196,117 L 196,110 L 195,109 L 195,104 L 194,103 L 194,96 L 193,95 L 193,89 L 192,88 L 192,78 L 191,77 L 191,75 L 190,74 L 190,67 L 189,66 L 189,62 L 188,61 L 188,48 L 187,47 L 187,45 L 186,44 L 186,36 L 184,34 L 183,34 L 182,33 L 181,33 L 180,32 L 178,32 L 177,31 L 175,31 L 174,30 L 172,30 L 171,29 L 169,29 L 168,28 Z" fill="black" /></svg>