<?xml version='1.0' encoding='utf-8'?>
<svg width="257" height="218" xmlns="http://www.w3.org/2000/svg" viewBox="0 0 257 218"><rect width="257" height="218" fill="white" /><path d="M 117,38 L 116,39 L 109,39 L 108,40 L 107,40 L 106,41 L 103,41 L 102,42 L 101,42 L 100,43 L 99,43 L 97,45 L 96,45 L 93,48 L 93,49 L 91,51 L 91,53 L 89,55 L 89,57 L 88,58 L 88,60 L 87,61 L 87,62 L 86,63 L 86,64 L 87,65 L 87,68 L 86,69 L 86,70 L 85,71 L 85,77 L 84,78 L 84,80 L 83,81 L 83,85 L 82,86 L 82,88 L 81,89 L 81,98 L 79,100 L 79,106 L 78,107 L 78,110 L 77,111 L 77,115 L 76,116 L 76,118 L 75,119 L 75,126 L 74,127 L 74,130 L 73,131 L 73,137 L 72,138 L 72,142 L 71,143 L 71,151 L 70,152 L 70,160 L 71,161 L 71,166 L 73,168 L 73,170 L 74,171 L 74,172 L 78,176 L 79,176 L 82,179 L 82,180 L 84,180 L 86,182 L 88,182 L 89,183 L 91,183 L 92,184 L 100,184 L 101,183 L 102,183 L 103,182 L 109,182 L 111,180 L 114,180 L 116,178 L 118,178 L 119,177 L 120,177 L 121,176 L 124,176 L 126,174 L 128,174 L 129,173 L 130,173 L 131,172 L 133,172 L 135,170 L 138,170 L 138,169 L 139,168 L 144,168 L 146,166 L 148,166 L 149,165 L 150,165 L 151,164 L 152,164 L 154,162 L 156,162 L 157,161 L 158,161 L 159,160 L 161,160 L 162,159 L 163,159 L 164,158 L 167,158 L 168,157 L 169,157 L 170,156 L 171,156 L 173,154 L 176,154 L 178,152 L 181,152 L 182,151 L 183,151 L 184,150 L 187,150 L 189,148 L 190,148 L 191,147 L 193,147 L 194,146 L 195,146 L 197,144 L 200,144 L 200,143 L 201,142 L 202,142 L 203,141 L 204,141 L 204,139 L 207,136 L 208,136 L 210,134 L 210,132 L 212,130 L 212,129 L 213,128 L 213,127 L 214,126 L 214,111 L 213,110 L 213,109 L 212,108 L 212,105 L 209,102 L 209,101 L 208,100 L 208,99 L 207,98 L 207,97 L 206,97 L 204,95 L 203,95 L 201,93 L 200,93 L 198,91 L 196,91 L 194,89 L 193,89 L 192,88 L 192,87 L 191,87 L 189,85 L 188,85 L 187,84 L 187,83 L 185,83 L 184,82 L 184,81 L 183,81 L 181,79 L 180,79 L 178,77 L 177,77 L 176,76 L 176,75 L 175,75 L 174,74 L 173,74 L 172,73 L 171,73 L 170,72 L 170,71 L 169,71 L 166,68 L 165,68 L 162,65 L 161,65 L 159,63 L 158,63 L 156,61 L 155,61 L 151,57 L 150,57 L 149,56 L 148,56 L 144,52 L 143,52 L 142,51 L 141,51 L 140,50 L 140,49 L 139,49 L 137,47 L 136,47 L 132,43 L 130,43 L 128,41 L 127,41 L 126,40 L 123,40 L 122,39 L 119,39 L 118,38 Z" fill="black" /></svg>