<?xml version='1.0' encoding='utf-8'?>
<svg width="261" height="216" xmlns="http://www.w3.org/2000/svg" viewBox="0 0 261 216"><rect width="261" height="216" fill="white" /><path d="M 48,42 L 47,43 L 47,51 L 48,52 L 48,54 L 49,55 L 49,63 L 50,64 L 50,69 L 51,70 L 51,75 L 52,76 L 52,79 L 53,80 L 53,89 L 54,90 L 54,91 L 55,92 L 55,99 L 56,100 L 56,106 L 57,107 L 57,112 L 58,113 L 58,119 L 59,120 L 59,124 L 60,125 L 60,129 L 61,130 L 61,135 L 62,136 L 62,139 L 63,140 L 63,148 L 64,149 L 64,154 L 65,155 L 65,161 L 66,162 L 66,164 L 67,165 L 67,171 L 68,172 L 68,176 L 69,177 L 69,183 L 70,184 L 70,187 L 71,188 L 71,195 L 72,196 L 72,199 L 73,200 L 73,207 L 78,207 L 80,205 L 81,205 L 85,201 L 86,201 L 86,200 L 87,199 L 88,199 L 92,195 L 93,195 L 95,193 L 96,193 L 96,192 L 97,191 L 98,191 L 102,187 L 103,187 L 109,181 L 110,181 L 110,180 L 111,179 L 112,179 L 113,178 L 114,178 L 121,171 L 122,171 L 124,169 L 125,169 L 125,168 L 126,167 L 127,167 L 133,161 L 134,161 L 134,160 L 135,159 L 136,159 L 138,157 L 138,156 L 139,155 L 140,155 L 142,153 L 143,153 L 147,149 L 148,149 L 150,147 L 150,146 L 151,145 L 152,145 L 157,140 L 158,140 L 161,137 L 162,137 L 162,136 L 163,135 L 163,134 L 164,133 L 165,133 L 167,131 L 168,131 L 168,130 L 169,129 L 171,129 L 172,128 L 172,127 L 174,125 L 175,125 L 177,123 L 178,123 L 178,122 L 179,121 L 180,121 L 180,120 L 182,118 L 183,118 L 185,116 L 186,116 L 186,115 L 190,111 L 191,111 L 193,109 L 194,109 L 202,101 L 204,101 L 206,99 L 206,98 L 207,97 L 208,97 L 212,93 L 213,93 L 213,92 L 214,91 L 215,91 L 217,89 L 217,86 L 216,85 L 213,85 L 212,86 L 211,86 L 209,88 L 207,88 L 206,89 L 205,89 L 204,90 L 202,90 L 200,92 L 197,92 L 196,93 L 195,93 L 194,94 L 191,94 L 191,95 L 190,96 L 187,96 L 186,97 L 185,97 L 184,98 L 181,98 L 180,99 L 179,99 L 178,100 L 176,100 L 175,101 L 174,101 L 173,102 L 171,102 L 170,103 L 169,103 L 168,104 L 166,104 L 165,105 L 163,105 L 162,106 L 160,106 L 158,108 L 155,108 L 154,109 L 153,109 L 152,110 L 150,110 L 148,112 L 145,112 L 143,114 L 140,114 L 139,115 L 138,115 L 137,116 L 135,116 L 134,117 L 133,117 L 132,118 L 130,118 L 129,119 L 128,119 L 127,120 L 123,120 L 123,121 L 122,122 L 119,122 L 118,123 L 117,123 L 116,124 L 115,124 L 114,125 L 113,125 L 112,126 L 110,126 L 108,128 L 107,128 L 106,127 L 105,127 L 102,124 L 102,122 L 100,120 L 100,119 L 98,117 L 98,116 L 96,114 L 96,113 L 94,111 L 94,109 L 92,107 L 92,105 L 91,104 L 91,102 L 89,102 L 88,101 L 88,99 L 86,97 L 86,96 L 82,92 L 82,90 L 80,88 L 80,87 L 78,85 L 78,84 L 77,84 L 76,83 L 76,82 L 75,81 L 75,80 L 74,79 L 74,78 L 73,78 L 72,77 L 72,74 L 71,74 L 70,73 L 70,72 L 68,70 L 68,68 L 67,68 L 66,67 L 66,66 L 64,64 L 64,63 L 62,61 L 62,60 L 61,59 L 61,58 L 60,57 L 60,56 L 58,54 L 58,53 L 56,51 L 56,50 L 55,49 L 55,48 L 52,45 L 52,44 L 51,43 L 50,43 L 49,42 Z" fill="black" /><path d="M 0,0 L 0,215 L 260,215 L 260,0 Z" fill="none" stroke="black" stroke-width="1" /></svg>