<?xml version='1.0' encoding='utf-8'?>
<svg width="260" height="217" xmlns="http://www.w3.org/2000/svg" viewBox="0 0 260 217"><rect width="260" height="217" fill="white" /><path d="M 122,11 L 121,12 L 118,12 L 117,13 L 112,13 L 111,14 L 109,14 L 108,15 L 105,15 L 103,17 L 100,17 L 98,19 L 96,19 L 95,20 L 94,20 L 93,21 L 92,21 L 90,23 L 89,23 L 87,25 L 86,25 L 84,27 L 83,27 L 81,29 L 80,29 L 80,30 L 79,31 L 78,31 L 78,32 L 77,33 L 76,33 L 76,34 L 75,35 L 74,35 L 74,36 L 69,41 L 69,42 L 68,43 L 68,44 L 67,45 L 66,45 L 66,47 L 64,49 L 64,51 L 62,53 L 62,55 L 60,57 L 60,59 L 59,60 L 59,61 L 58,62 L 58,66 L 57,67 L 57,69 L 56,70 L 56,74 L 55,75 L 55,77 L 54,78 L 54,83 L 55,84 L 55,87 L 54,88 L 54,92 L 55,93 L 55,97 L 56,98 L 56,104 L 57,105 L 57,106 L 58,107 L 58,111 L 60,113 L 60,116 L 62,118 L 62,120 L 64,122 L 64,124 L 65,124 L 66,125 L 66,126 L 67,127 L 67,128 L 72,133 L 72,134 L 73,134 L 74,135 L 74,136 L 75,136 L 76,137 L 76,138 L 77,138 L 78,139 L 78,140 L 79,140 L 81,142 L 84,142 L 84,141 L 85,140 L 85,137 L 84,137 L 83,136 L 83,135 L 82,134 L 82,133 L 79,130 L 79,129 L 77,127 L 77,125 L 76,124 L 76,123 L 75,122 L 75,121 L 74,120 L 74,119 L 73,118 L 73,112 L 72,111 L 72,104 L 71,103 L 71,99 L 73,97 L 73,91 L 74,90 L 74,87 L 75,86 L 75,85 L 76,84 L 76,83 L 77,82 L 77,81 L 79,79 L 79,77 L 80,76 L 80,75 L 81,74 L 81,73 L 82,72 L 83,72 L 83,71 L 85,69 L 85,68 L 86,67 L 87,67 L 90,64 L 91,64 L 91,63 L 92,62 L 93,62 L 94,61 L 95,61 L 96,60 L 97,60 L 98,59 L 99,59 L 100,58 L 101,58 L 101,57 L 102,56 L 105,56 L 106,55 L 107,55 L 108,54 L 109,54 L 110,53 L 115,53 L 116,52 L 133,52 L 134,53 L 136,53 L 137,54 L 142,54 L 144,56 L 145,56 L 146,57 L 147,57 L 148,58 L 150,58 L 152,60 L 153,60 L 155,62 L 156,62 L 158,64 L 159,64 L 162,67 L 162,68 L 166,72 L 166,73 L 168,75 L 168,76 L 170,78 L 170,80 L 171,80 L 172,81 L 172,83 L 174,85 L 174,88 L 175,89 L 175,90 L 176,91 L 176,99 L 177,100 L 177,108 L 176,109 L 176,116 L 175,117 L 175,119 L 174,120 L 174,122 L 173,123 L 173,124 L 172,125 L 172,127 L 170,129 L 170,131 L 168,133 L 168,134 L 167,135 L 166,135 L 166,136 L 157,145 L 156,145 L 156,146 L 155,147 L 154,147 L 153,148 L 152,148 L 151,149 L 150,149 L 148,151 L 148,152 L 146,154 L 146,155 L 147,156 L 147,157 L 148,158 L 153,158 L 154,157 L 155,157 L 156,156 L 159,156 L 160,155 L 161,155 L 162,154 L 163,154 L 164,153 L 165,153 L 166,152 L 167,152 L 169,150 L 171,150 L 173,148 L 174,148 L 178,144 L 179,144 L 179,143 L 180,142 L 181,142 L 182,141 L 183,141 L 186,138 L 186,137 L 187,136 L 188,136 L 189,135 L 189,134 L 191,132 L 191,131 L 193,129 L 193,128 L 195,126 L 195,125 L 197,123 L 197,122 L 199,120 L 199,118 L 200,117 L 200,116 L 201,115 L 201,113 L 202,112 L 202,111 L 203,110 L 203,107 L 204,106 L 204,105 L 205,104 L 205,99 L 206,98 L 206,93 L 207,92 L 207,79 L 206,78 L 206,75 L 205,74 L 205,67 L 204,66 L 204,65 L 203,64 L 203,61 L 202,60 L 202,59 L 201,58 L 201,55 L 200,55 L 199,54 L 199,53 L 198,52 L 198,51 L 197,50 L 197,48 L 195,46 L 195,45 L 194,45 L 193,44 L 193,42 L 191,40 L 191,39 L 190,39 L 189,38 L 189,37 L 187,35 L 187,34 L 184,31 L 183,31 L 179,27 L 177,27 L 175,25 L 174,25 L 173,24 L 173,23 L 171,23 L 169,21 L 168,21 L 167,20 L 166,20 L 165,19 L 164,19 L 163,18 L 162,18 L 161,17 L 159,17 L 157,15 L 154,15 L 153,14 L 150,14 L 149,13 L 146,13 L 145,12 L 141,12 L 140,11 Z" fill="black" /><path d="M 0,0 L 0,216 L 259,216 L 259,0 Z" fill="none" stroke="black" stroke-width="1" /></svg>