<?xml version='1.0' encoding='utf-8'?>
<svg width="260" height="218" xmlns="http://www.w3.org/2000/svg" viewBox="0 0 260 218"><rect width="260" height="218" fill="white" /><path d="M 123,30 L 121,32 L 113,32 L 112,33 L 111,33 L 110,34 L 107,34 L 106,35 L 104,35 L 103,36 L 101,36 L 100,37 L 99,37 L 98,38 L 95,38 L 93,40 L 91,40 L 89,42 L 87,42 L 85,44 L 84,44 L 82,46 L 81,46 L 79,48 L 78,48 L 76,50 L 75,50 L 75,51 L 74,52 L 73,52 L 57,68 L 57,69 L 54,72 L 53,72 L 53,73 L 51,75 L 51,76 L 47,80 L 47,81 L 45,83 L 45,84 L 43,86 L 43,87 L 41,89 L 41,90 L 40,91 L 40,92 L 39,93 L 39,94 L 38,95 L 38,98 L 39,99 L 42,99 L 48,93 L 49,93 L 51,91 L 52,91 L 52,90 L 53,89 L 54,89 L 56,87 L 56,86 L 57,85 L 58,85 L 60,83 L 61,83 L 65,79 L 66,79 L 66,78 L 67,77 L 68,77 L 69,76 L 70,76 L 73,73 L 75,73 L 78,70 L 79,70 L 80,69 L 81,69 L 82,68 L 83,68 L 84,67 L 85,67 L 86,66 L 87,66 L 88,65 L 93,65 L 94,64 L 96,64 L 97,63 L 119,63 L 120,64 L 122,64 L 123,65 L 126,65 L 127,66 L 127,67 L 129,67 L 131,69 L 132,69 L 133,70 L 133,71 L 135,71 L 137,73 L 138,73 L 141,76 L 141,77 L 143,79 L 143,80 L 145,82 L 145,83 L 146,84 L 146,85 L 147,86 L 147,88 L 148,89 L 148,90 L 149,91 L 149,97 L 151,99 L 151,100 L 152,101 L 152,104 L 151,105 L 148,105 L 147,106 L 144,106 L 142,108 L 141,108 L 140,109 L 139,109 L 138,110 L 137,110 L 135,112 L 133,112 L 131,114 L 130,114 L 128,116 L 128,117 L 121,124 L 121,125 L 120,126 L 119,126 L 119,128 L 118,129 L 118,130 L 117,131 L 117,132 L 115,134 L 115,137 L 114,138 L 114,139 L 113,140 L 113,148 L 112,149 L 112,151 L 111,152 L 111,155 L 112,156 L 112,164 L 113,165 L 113,169 L 114,170 L 114,171 L 115,172 L 115,175 L 118,178 L 118,179 L 119,180 L 119,182 L 123,186 L 123,187 L 129,193 L 130,193 L 131,194 L 131,195 L 132,195 L 134,197 L 135,197 L 137,199 L 139,199 L 140,200 L 141,200 L 142,201 L 144,201 L 146,203 L 150,203 L 152,205 L 168,205 L 169,204 L 174,204 L 175,203 L 178,203 L 179,202 L 180,202 L 181,201 L 184,201 L 185,200 L 186,200 L 187,199 L 189,199 L 191,197 L 192,197 L 192,196 L 193,195 L 195,195 L 197,193 L 198,193 L 198,192 L 199,191 L 200,191 L 203,188 L 204,188 L 204,186 L 206,184 L 206,182 L 207,181 L 208,181 L 208,180 L 210,178 L 210,177 L 211,176 L 211,175 L 212,174 L 212,173 L 214,171 L 214,168 L 216,166 L 216,164 L 218,162 L 218,161 L 219,160 L 219,159 L 220,158 L 220,157 L 221,156 L 221,155 L 222,154 L 222,153 L 224,151 L 224,148 L 225,147 L 225,146 L 226,145 L 226,141 L 227,140 L 227,136 L 228,135 L 228,131 L 229,130 L 229,126 L 230,125 L 230,113 L 229,112 L 229,107 L 228,106 L 228,103 L 227,102 L 227,100 L 226,99 L 226,95 L 225,94 L 225,93 L 224,92 L 224,89 L 222,87 L 222,84 L 220,82 L 220,80 L 218,78 L 218,76 L 216,74 L 216,73 L 214,71 L 214,70 L 212,68 L 212,66 L 211,65 L 211,64 L 210,64 L 208,62 L 208,61 L 206,59 L 206,58 L 205,58 L 204,57 L 204,56 L 203,56 L 200,53 L 200,52 L 198,50 L 197,50 L 196,49 L 196,48 L 195,48 L 194,47 L 194,46 L 193,46 L 189,42 L 188,42 L 187,41 L 186,41 L 184,39 L 183,39 L 182,38 L 181,38 L 179,36 L 177,36 L 176,35 L 175,35 L 174,34 L 171,34 L 170,33 L 168,33 L 167,32 L 164,32 L 163,31 L 161,31 L 160,30 L 127,30 L 126,31 L 125,30 Z" fill="black" /><path d="M 0,0 L 0,217 L 259,217 L 259,0 Z" fill="none" stroke="black" stroke-width="1" /></svg>