<?xml version='1.0' encoding='utf-8'?>
<svg width="256" height="218" xmlns="http://www.w3.org/2000/svg" viewBox="0 0 256 218"><rect width="256" height="218" fill="white" /><path d="M 116,49 L 115,50 L 112,50 L 111,51 L 107,51 L 106,52 L 104,52 L 103,53 L 100,53 L 99,54 L 98,54 L 97,55 L 96,55 L 95,56 L 94,56 L 92,58 L 90,58 L 88,60 L 87,60 L 85,62 L 84,62 L 82,64 L 81,64 L 77,68 L 76,68 L 76,69 L 73,72 L 73,73 L 70,76 L 70,77 L 69,78 L 68,78 L 68,80 L 66,82 L 66,83 L 64,85 L 64,87 L 62,89 L 62,92 L 61,93 L 61,94 L 60,95 L 60,96 L 59,97 L 59,99 L 58,100 L 58,105 L 57,106 L 57,110 L 56,111 L 56,125 L 57,126 L 57,131 L 58,132 L 58,137 L 59,138 L 59,139 L 60,140 L 60,143 L 61,144 L 61,145 L 62,146 L 62,147 L 63,148 L 63,149 L 64,150 L 64,151 L 66,153 L 66,155 L 67,155 L 68,156 L 68,157 L 69,158 L 69,159 L 70,160 L 70,161 L 74,165 L 74,166 L 75,166 L 76,167 L 76,168 L 77,169 L 78,169 L 82,173 L 83,173 L 84,174 L 84,175 L 86,175 L 88,177 L 89,177 L 91,179 L 92,179 L 93,180 L 95,180 L 96,181 L 97,181 L 98,182 L 99,182 L 100,183 L 103,183 L 104,184 L 105,184 L 106,185 L 111,185 L 112,186 L 121,186 L 122,187 L 131,187 L 132,186 L 136,186 L 137,185 L 143,185 L 144,184 L 147,184 L 148,183 L 152,183 L 153,182 L 155,182 L 156,181 L 162,181 L 163,180 L 164,180 L 165,179 L 172,179 L 174,177 L 175,177 L 176,176 L 177,176 L 179,174 L 179,170 L 178,169 L 178,168 L 179,167 L 179,161 L 178,160 L 178,148 L 177,147 L 177,139 L 178,138 L 177,137 L 177,102 L 176,101 L 176,90 L 175,89 L 175,85 L 176,84 L 176,81 L 175,80 L 175,77 L 176,76 L 176,72 L 175,71 L 175,69 L 170,64 L 169,64 L 167,62 L 166,62 L 164,60 L 163,60 L 161,58 L 160,58 L 159,57 L 158,57 L 157,56 L 156,56 L 155,55 L 154,55 L 153,54 L 150,54 L 148,52 L 145,52 L 144,51 L 143,51 L 142,50 L 130,50 L 129,49 Z" fill="black" /></svg>