<?xml version='1.0' encoding='utf-8'?>
<svg width="264" height="220" xmlns="http://www.w3.org/2000/svg" viewBox="0 0 264 220"><rect width="264" height="220" fill="white" /><path d="M 46,38 L 46,64 L 45,65 L 46,66 L 46,81 L 45,82 L 45,85 L 46,86 L 46,179 L 48,181 L 49,181 L 50,182 L 59,182 L 60,181 L 64,181 L 65,182 L 66,181 L 120,181 L 121,180 L 131,180 L 132,179 L 135,179 L 136,180 L 143,180 L 144,179 L 147,179 L 148,180 L 149,180 L 150,179 L 162,179 L 163,178 L 164,179 L 171,179 L 172,178 L 173,178 L 174,179 L 178,179 L 179,178 L 201,178 L 202,177 L 207,177 L 208,178 L 209,178 L 210,177 L 214,177 L 215,176 L 215,120 L 216,119 L 216,112 L 215,111 L 215,109 L 216,108 L 216,92 L 215,91 L 215,76 L 216,75 L 216,69 L 215,68 L 215,54 L 214,53 L 214,45 L 212,43 L 210,43 L 209,42 L 193,42 L 192,43 L 191,43 L 190,42 L 172,42 L 171,41 L 168,41 L 167,42 L 166,42 L 165,41 L 154,41 L 153,40 L 148,40 L 147,41 L 147,42 L 146,43 L 146,45 L 145,46 L 145,50 L 144,51 L 144,57 L 143,58 L 143,62 L 142,63 L 142,74 L 140,76 L 140,81 L 139,82 L 139,85 L 138,86 L 138,94 L 137,95 L 137,96 L 136,97 L 134,97 L 133,96 L 133,95 L 132,94 L 133,93 L 133,89 L 132,88 L 132,87 L 131,86 L 131,84 L 130,83 L 130,82 L 129,81 L 129,77 L 128,76 L 128,74 L 127,73 L 127,70 L 125,68 L 125,66 L 124,65 L 124,62 L 123,61 L 123,56 L 122,56 L 121,55 L 121,51 L 120,50 L 120,49 L 119,48 L 119,44 L 117,42 L 117,41 L 116,40 L 101,40 L 100,39 L 97,39 L 96,40 L 95,39 L 86,39 L 85,40 L 84,39 L 78,39 L 77,40 L 72,40 L 71,39 L 60,39 L 59,38 Z" fill="black" /></svg>