<?xml version='1.0' encoding='utf-8'?>
<svg width="257" height="217" xmlns="http://www.w3.org/2000/svg" viewBox="0 0 257 217"><rect width="257" height="217" fill="white" /><path d="M 112,8 L 110,10 L 110,11 L 109,12 L 108,12 L 108,13 L 107,14 L 107,15 L 106,16 L 105,16 L 105,17 L 100,22 L 100,23 L 99,24 L 98,24 L 98,25 L 91,32 L 91,33 L 86,38 L 86,39 L 85,40 L 84,40 L 82,42 L 82,43 L 81,44 L 80,44 L 80,45 L 75,50 L 75,51 L 72,54 L 72,55 L 71,56 L 70,56 L 70,57 L 64,63 L 64,64 L 62,66 L 62,67 L 61,68 L 60,68 L 60,69 L 58,71 L 58,72 L 57,73 L 57,77 L 58,78 L 58,83 L 59,84 L 59,85 L 60,86 L 60,93 L 61,94 L 61,95 L 62,96 L 62,101 L 63,102 L 63,103 L 64,104 L 64,109 L 65,110 L 65,111 L 66,112 L 66,119 L 67,120 L 67,121 L 68,122 L 68,128 L 69,129 L 69,131 L 70,132 L 70,137 L 71,138 L 71,139 L 72,140 L 72,147 L 73,148 L 73,149 L 74,150 L 74,153 L 76,155 L 78,155 L 79,156 L 80,156 L 81,157 L 85,157 L 87,159 L 89,159 L 90,160 L 91,160 L 92,161 L 95,161 L 96,162 L 97,162 L 98,163 L 99,163 L 100,164 L 101,164 L 102,165 L 105,165 L 107,167 L 110,167 L 112,169 L 116,169 L 118,171 L 121,171 L 123,173 L 125,173 L 127,175 L 130,175 L 132,177 L 135,177 L 136,178 L 137,178 L 138,179 L 139,179 L 140,180 L 141,180 L 142,181 L 145,181 L 147,183 L 149,183 L 150,184 L 152,184 L 153,183 L 155,183 L 157,181 L 157,180 L 158,179 L 159,179 L 159,178 L 160,177 L 161,177 L 161,176 L 162,175 L 163,175 L 165,173 L 166,173 L 168,171 L 169,171 L 171,169 L 171,168 L 172,167 L 173,167 L 173,166 L 174,165 L 175,165 L 175,164 L 176,163 L 177,163 L 177,162 L 178,161 L 179,161 L 179,160 L 180,159 L 181,159 L 181,158 L 184,155 L 186,155 L 187,154 L 187,153 L 190,150 L 191,150 L 194,147 L 195,147 L 195,146 L 196,145 L 197,145 L 199,143 L 199,142 L 202,139 L 203,139 L 205,137 L 206,137 L 208,135 L 208,134 L 209,133 L 210,133 L 216,127 L 217,127 L 219,125 L 219,120 L 218,119 L 218,118 L 217,117 L 217,113 L 216,112 L 216,110 L 215,109 L 215,104 L 213,102 L 213,96 L 211,94 L 211,88 L 210,87 L 210,86 L 209,85 L 209,81 L 208,80 L 208,78 L 207,77 L 207,75 L 206,74 L 206,72 L 205,71 L 205,68 L 204,67 L 204,64 L 203,63 L 203,60 L 202,59 L 202,57 L 201,56 L 201,52 L 200,51 L 200,50 L 199,49 L 199,45 L 198,44 L 198,42 L 197,41 L 197,38 L 196,37 L 196,36 L 195,35 L 194,35 L 191,32 L 188,32 L 186,30 L 181,30 L 180,29 L 178,29 L 177,28 L 173,28 L 171,26 L 167,26 L 165,24 L 162,24 L 160,22 L 156,22 L 155,21 L 154,21 L 153,20 L 149,20 L 148,19 L 147,19 L 146,18 L 141,18 L 139,16 L 137,16 L 136,15 L 134,15 L 133,14 L 132,14 L 131,13 L 130,13 L 129,12 L 126,12 L 125,11 L 124,11 L 123,10 L 120,10 L 119,9 L 116,9 L 115,8 Z" fill="black" /><path d="M 0,0 L 0,216 L 256,216 L 256,0 Z" fill="none" stroke="black" stroke-width="1" /></svg>