<?xml version='1.0' encoding='utf-8'?>
<svg width="261" height="217" xmlns="http://www.w3.org/2000/svg" viewBox="0 0 261 217"><rect width="261" height="217" fill="white" /><path d="M 66,27 L 66,29 L 65,30 L 65,31 L 67,33 L 67,46 L 68,47 L 68,52 L 69,53 L 69,58 L 70,59 L 70,60 L 71,61 L 71,68 L 72,69 L 72,72 L 73,73 L 73,75 L 74,76 L 74,79 L 75,80 L 75,82 L 77,84 L 77,86 L 78,87 L 78,88 L 79,89 L 79,92 L 80,93 L 80,94 L 81,95 L 81,98 L 82,99 L 82,100 L 83,101 L 83,102 L 84,103 L 84,104 L 85,105 L 85,106 L 86,107 L 86,108 L 87,109 L 87,111 L 89,113 L 89,114 L 90,115 L 90,116 L 91,117 L 91,118 L 93,120 L 93,122 L 95,124 L 95,126 L 97,128 L 97,129 L 99,131 L 99,132 L 101,134 L 101,135 L 103,137 L 103,138 L 106,141 L 106,142 L 109,145 L 109,146 L 114,151 L 114,152 L 117,155 L 117,156 L 118,156 L 119,157 L 119,158 L 120,158 L 121,159 L 121,160 L 123,162 L 124,162 L 125,163 L 125,164 L 126,164 L 129,167 L 129,168 L 133,172 L 134,172 L 135,173 L 135,174 L 136,174 L 137,175 L 137,176 L 138,176 L 139,177 L 139,178 L 140,178 L 142,180 L 143,180 L 149,186 L 150,186 L 151,187 L 151,188 L 152,188 L 154,190 L 155,190 L 157,192 L 158,192 L 159,193 L 159,194 L 160,194 L 162,196 L 164,196 L 165,197 L 165,198 L 167,198 L 169,200 L 170,200 L 171,201 L 172,201 L 173,202 L 177,202 L 177,198 L 178,197 L 178,195 L 177,194 L 177,193 L 176,192 L 176,185 L 175,184 L 175,183 L 174,182 L 174,175 L 173,174 L 173,172 L 172,171 L 172,167 L 171,166 L 171,165 L 170,164 L 170,161 L 169,160 L 169,159 L 168,158 L 168,155 L 167,154 L 167,152 L 166,151 L 166,148 L 164,146 L 164,143 L 163,142 L 163,141 L 162,140 L 162,138 L 160,136 L 160,134 L 159,133 L 159,132 L 158,131 L 158,128 L 156,126 L 156,124 L 154,122 L 154,121 L 153,120 L 153,119 L 152,118 L 152,117 L 151,116 L 151,115 L 150,114 L 150,113 L 148,111 L 148,109 L 146,107 L 146,106 L 144,104 L 144,103 L 143,102 L 143,101 L 142,100 L 142,99 L 140,97 L 140,96 L 138,94 L 138,93 L 137,93 L 136,92 L 136,91 L 135,90 L 135,89 L 134,88 L 134,87 L 130,83 L 130,82 L 129,81 L 128,81 L 127,80 L 127,79 L 126,78 L 126,75 L 124,73 L 123,73 L 122,72 L 122,71 L 120,69 L 119,69 L 118,68 L 118,67 L 116,65 L 116,64 L 115,64 L 114,63 L 113,63 L 112,62 L 112,61 L 108,57 L 107,57 L 106,56 L 106,55 L 105,55 L 104,54 L 104,53 L 103,53 L 102,52 L 102,51 L 98,47 L 97,47 L 94,44 L 94,43 L 93,43 L 92,42 L 92,41 L 91,41 L 87,37 L 86,37 L 84,35 L 83,35 L 82,34 L 82,33 L 81,33 L 80,32 L 79,32 L 78,31 L 77,31 L 76,30 L 76,29 L 75,29 L 73,27 Z" fill="black" /><path d="M 0,0 L 0,216 L 260,216 L 260,0 Z" fill="none" stroke="black" stroke-width="1" /></svg>