<?xml version='1.0' encoding='utf-8'?>
<svg width="257" height="222" xmlns="http://www.w3.org/2000/svg" viewBox="0 0 257 222"><rect width="257" height="222" fill="white" /><path d="M 128,27 L 127,28 L 119,28 L 118,29 L 117,29 L 116,30 L 110,30 L 109,31 L 108,31 L 107,32 L 104,32 L 103,33 L 102,33 L 101,34 L 99,34 L 98,35 L 97,35 L 96,36 L 95,36 L 94,37 L 93,37 L 92,38 L 91,38 L 91,39 L 90,40 L 88,40 L 86,42 L 85,42 L 83,44 L 81,44 L 80,45 L 80,46 L 78,48 L 76,48 L 72,52 L 71,52 L 71,53 L 70,54 L 69,54 L 69,55 L 68,56 L 67,56 L 67,57 L 66,58 L 65,58 L 65,59 L 63,61 L 63,64 L 68,69 L 69,69 L 71,71 L 71,73 L 73,75 L 73,77 L 74,77 L 75,78 L 75,81 L 76,82 L 76,83 L 77,84 L 77,85 L 79,87 L 79,89 L 80,90 L 80,91 L 81,92 L 81,94 L 83,96 L 83,101 L 84,102 L 84,103 L 85,104 L 85,106 L 86,107 L 86,111 L 87,112 L 87,117 L 88,118 L 88,125 L 89,126 L 89,132 L 88,133 L 89,134 L 89,137 L 88,138 L 88,139 L 89,140 L 89,141 L 88,142 L 88,149 L 87,150 L 87,152 L 86,153 L 86,158 L 85,159 L 85,161 L 84,162 L 84,165 L 83,166 L 83,169 L 81,171 L 81,175 L 79,177 L 79,180 L 77,182 L 77,183 L 75,185 L 75,187 L 74,188 L 73,188 L 73,191 L 74,192 L 75,192 L 76,193 L 77,193 L 81,197 L 82,197 L 83,198 L 83,199 L 85,199 L 87,201 L 88,201 L 89,202 L 90,202 L 91,203 L 92,203 L 93,204 L 94,204 L 95,205 L 96,205 L 97,206 L 99,206 L 100,207 L 102,207 L 103,208 L 104,208 L 105,209 L 106,209 L 107,210 L 110,210 L 111,211 L 114,211 L 115,212 L 120,212 L 121,213 L 124,213 L 125,214 L 126,214 L 127,213 L 133,213 L 134,214 L 137,214 L 138,213 L 151,213 L 152,212 L 154,212 L 155,211 L 160,211 L 161,210 L 162,210 L 163,209 L 166,209 L 167,208 L 168,208 L 169,207 L 172,207 L 174,205 L 175,205 L 177,203 L 180,203 L 182,201 L 183,201 L 185,199 L 187,199 L 191,195 L 192,195 L 195,192 L 196,192 L 201,187 L 202,187 L 202,186 L 203,185 L 204,185 L 204,184 L 206,182 L 206,181 L 208,179 L 209,179 L 210,178 L 210,172 L 209,172 L 202,165 L 202,164 L 201,164 L 198,161 L 198,160 L 196,158 L 196,156 L 194,154 L 194,152 L 193,152 L 192,151 L 192,150 L 190,148 L 190,146 L 189,145 L 189,144 L 188,143 L 188,140 L 187,139 L 187,138 L 186,137 L 186,136 L 185,136 L 184,135 L 184,131 L 183,130 L 183,126 L 182,125 L 182,122 L 181,121 L 181,119 L 180,118 L 180,94 L 181,93 L 181,84 L 182,83 L 182,79 L 184,77 L 184,75 L 185,74 L 185,72 L 186,71 L 186,68 L 188,66 L 188,65 L 189,64 L 189,62 L 190,61 L 190,60 L 192,58 L 192,56 L 195,53 L 195,51 L 194,50 L 194,48 L 190,44 L 189,44 L 187,42 L 186,42 L 185,41 L 184,41 L 183,40 L 182,40 L 180,38 L 179,38 L 178,37 L 177,37 L 176,36 L 175,36 L 174,35 L 173,35 L 172,34 L 170,34 L 169,33 L 168,33 L 167,32 L 165,32 L 164,31 L 161,31 L 160,30 L 157,30 L 156,29 L 153,29 L 152,28 L 143,28 L 142,27 Z" fill="black" /><path d="M 0,0 L 0,221 L 256,221 L 256,0 Z" fill="none" stroke="black" stroke-width="1" /></svg>