<?xml version='1.0' encoding='utf-8'?>
<svg width="260" height="218" xmlns="http://www.w3.org/2000/svg" viewBox="0 0 260 218"><rect width="260" height="218" fill="white" /><path d="M 122,52 L 121,53 L 120,53 L 119,54 L 117,54 L 115,56 L 113,56 L 111,58 L 110,58 L 109,59 L 108,59 L 105,62 L 104,62 L 104,63 L 103,64 L 102,64 L 102,65 L 101,66 L 100,66 L 100,67 L 97,70 L 96,70 L 94,72 L 94,73 L 91,76 L 91,77 L 86,82 L 86,83 L 84,85 L 84,86 L 82,88 L 82,89 L 81,90 L 80,90 L 80,91 L 79,92 L 79,93 L 78,94 L 78,95 L 77,96 L 77,97 L 76,98 L 76,99 L 74,101 L 74,103 L 73,104 L 72,104 L 72,105 L 71,106 L 71,107 L 70,108 L 70,111 L 69,112 L 69,113 L 68,114 L 68,116 L 67,117 L 67,119 L 66,120 L 66,124 L 65,125 L 65,127 L 66,128 L 66,137 L 68,139 L 68,142 L 70,144 L 70,145 L 71,145 L 72,146 L 72,147 L 73,147 L 74,148 L 74,149 L 76,151 L 77,151 L 78,152 L 78,153 L 79,153 L 80,154 L 81,154 L 82,155 L 83,155 L 85,157 L 87,157 L 88,158 L 91,158 L 92,159 L 102,159 L 103,160 L 106,160 L 107,161 L 126,161 L 127,160 L 131,160 L 132,159 L 143,159 L 144,158 L 149,158 L 150,157 L 152,157 L 153,156 L 154,156 L 155,155 L 157,155 L 159,153 L 161,153 L 163,151 L 164,151 L 172,143 L 172,142 L 173,141 L 173,140 L 175,138 L 175,134 L 176,133 L 176,132 L 177,131 L 177,118 L 176,117 L 176,115 L 175,114 L 175,112 L 174,111 L 174,110 L 173,109 L 173,106 L 172,105 L 172,104 L 171,103 L 171,102 L 170,101 L 170,100 L 169,99 L 169,96 L 167,94 L 167,92 L 165,90 L 165,87 L 163,85 L 163,83 L 161,81 L 161,79 L 159,77 L 159,76 L 156,73 L 156,72 L 153,69 L 153,68 L 151,66 L 151,65 L 143,57 L 143,56 L 141,56 L 139,54 L 138,54 L 137,53 L 136,53 L 135,52 Z" fill="black" /></svg>