<?xml version='1.0' encoding='utf-8'?>
<svg width="259" height="221" xmlns="http://www.w3.org/2000/svg" viewBox="0 0 259 221"><rect width="259" height="221" fill="white" /><path d="M 122,40 L 121,41 L 112,41 L 111,42 L 109,42 L 108,43 L 105,43 L 104,44 L 103,44 L 102,45 L 100,45 L 98,47 L 95,47 L 94,48 L 93,48 L 92,49 L 91,49 L 89,51 L 87,51 L 87,52 L 86,53 L 84,53 L 82,55 L 81,55 L 81,56 L 80,57 L 79,57 L 76,60 L 75,60 L 75,61 L 71,65 L 71,66 L 70,67 L 69,67 L 69,68 L 68,69 L 67,69 L 67,70 L 65,72 L 65,73 L 63,75 L 63,76 L 62,77 L 62,78 L 61,79 L 61,80 L 60,81 L 60,82 L 59,83 L 59,84 L 57,86 L 57,90 L 55,92 L 55,97 L 54,98 L 54,102 L 53,103 L 53,127 L 54,128 L 54,130 L 55,131 L 55,133 L 56,134 L 56,135 L 57,136 L 57,138 L 58,139 L 58,140 L 59,141 L 59,144 L 61,146 L 61,148 L 63,150 L 63,152 L 64,152 L 65,153 L 65,154 L 69,158 L 69,159 L 70,159 L 71,160 L 71,161 L 79,169 L 80,169 L 83,172 L 84,172 L 86,174 L 87,174 L 89,176 L 90,176 L 92,178 L 94,178 L 96,180 L 98,180 L 100,182 L 103,182 L 104,183 L 107,183 L 108,184 L 111,184 L 112,185 L 118,185 L 119,186 L 137,186 L 138,185 L 140,185 L 141,184 L 146,184 L 148,182 L 154,182 L 154,181 L 155,180 L 159,180 L 161,178 L 162,178 L 164,176 L 165,176 L 166,175 L 167,175 L 168,174 L 169,174 L 172,171 L 172,170 L 173,169 L 174,169 L 175,168 L 176,168 L 180,164 L 180,163 L 183,160 L 184,160 L 184,159 L 187,156 L 187,155 L 188,154 L 188,153 L 191,150 L 191,149 L 192,148 L 192,147 L 193,146 L 193,145 L 194,144 L 194,142 L 195,141 L 195,140 L 196,139 L 196,138 L 197,137 L 197,136 L 198,135 L 198,131 L 200,129 L 200,101 L 199,100 L 199,98 L 198,97 L 198,92 L 196,90 L 196,87 L 195,86 L 195,85 L 194,84 L 194,82 L 192,80 L 192,78 L 190,76 L 190,75 L 188,73 L 188,72 L 187,72 L 186,71 L 186,70 L 182,66 L 182,65 L 178,61 L 178,60 L 176,58 L 175,58 L 172,55 L 171,55 L 170,54 L 170,53 L 169,53 L 168,52 L 167,52 L 166,51 L 165,51 L 164,50 L 164,49 L 161,49 L 159,47 L 157,47 L 155,45 L 151,45 L 150,44 L 150,43 L 145,43 L 144,42 L 142,42 L 141,41 L 135,41 L 134,40 Z" fill="black" /></svg>