<?xml version='1.0' encoding='utf-8'?>
<svg width="260" height="218" xmlns="http://www.w3.org/2000/svg" viewBox="0 0 260 218"><rect width="260" height="218" fill="white" /><path d="M 10,34 L 9,35 L 12,38 L 12,39 L 13,39 L 16,42 L 16,43 L 18,45 L 19,45 L 20,46 L 20,48 L 24,52 L 24,53 L 29,58 L 29,59 L 30,60 L 30,61 L 31,61 L 32,62 L 32,63 L 38,69 L 38,70 L 40,72 L 40,73 L 41,73 L 42,74 L 42,76 L 43,77 L 44,77 L 48,81 L 48,82 L 50,84 L 50,86 L 56,92 L 56,93 L 57,93 L 58,94 L 58,95 L 62,99 L 62,100 L 64,102 L 64,103 L 65,103 L 66,104 L 66,105 L 68,107 L 68,108 L 74,114 L 74,115 L 78,119 L 78,120 L 80,122 L 80,123 L 81,123 L 84,126 L 84,127 L 86,129 L 86,130 L 88,132 L 88,133 L 89,133 L 90,134 L 90,135 L 91,135 L 92,136 L 92,137 L 93,137 L 96,140 L 96,141 L 97,142 L 97,143 L 100,146 L 100,147 L 103,150 L 103,151 L 106,154 L 106,155 L 109,158 L 109,159 L 110,160 L 110,161 L 111,161 L 112,162 L 112,163 L 113,163 L 114,164 L 114,165 L 118,169 L 118,170 L 119,170 L 120,171 L 120,172 L 122,174 L 122,175 L 123,175 L 125,177 L 126,177 L 127,178 L 127,179 L 129,179 L 129,178 L 130,177 L 130,176 L 131,175 L 131,174 L 132,173 L 133,173 L 133,172 L 134,171 L 134,170 L 135,169 L 135,168 L 137,166 L 137,165 L 139,163 L 139,162 L 141,160 L 141,159 L 143,157 L 143,156 L 145,154 L 145,153 L 147,151 L 147,150 L 148,149 L 148,148 L 149,147 L 149,146 L 151,144 L 151,143 L 153,141 L 153,140 L 154,139 L 155,139 L 155,138 L 156,137 L 156,136 L 157,135 L 157,134 L 160,131 L 160,130 L 161,129 L 161,128 L 162,127 L 163,127 L 163,126 L 164,125 L 164,124 L 165,123 L 165,122 L 168,119 L 168,118 L 169,117 L 169,116 L 171,114 L 171,113 L 173,111 L 173,110 L 175,108 L 175,107 L 177,105 L 177,104 L 179,102 L 179,101 L 181,99 L 181,98 L 183,96 L 183,95 L 185,93 L 185,92 L 188,89 L 188,88 L 189,87 L 189,86 L 191,84 L 191,83 L 193,81 L 193,80 L 195,78 L 195,77 L 197,75 L 197,74 L 198,73 L 199,73 L 199,71 L 201,69 L 201,68 L 204,65 L 204,64 L 205,63 L 205,62 L 208,59 L 208,58 L 209,57 L 209,56 L 212,53 L 212,52 L 213,51 L 213,50 L 214,49 L 215,49 L 215,48 L 218,45 L 217,44 L 212,44 L 211,43 L 209,43 L 208,44 L 207,43 L 196,43 L 195,42 L 193,42 L 192,43 L 191,42 L 170,42 L 169,41 L 151,41 L 150,40 L 124,40 L 123,39 L 109,39 L 108,38 L 83,38 L 82,37 L 71,37 L 70,36 L 48,36 L 47,35 L 35,35 L 34,34 Z" fill="black" /><path d="M 0,0 L 0,217 L 259,217 L 259,0 Z" fill="none" stroke="black" stroke-width="1" /></svg>