<?xml version='1.0' encoding='utf-8'?>
<svg width="258" height="214" xmlns="http://www.w3.org/2000/svg" viewBox="0 0 258 214"><rect width="258" height="214" fill="white" /><path d="M 138,4 L 137,5 L 133,5 L 132,6 L 118,6 L 117,7 L 116,7 L 115,8 L 110,8 L 110,9 L 109,10 L 106,10 L 105,11 L 104,11 L 103,12 L 101,12 L 99,14 L 97,14 L 95,16 L 93,16 L 91,18 L 90,18 L 88,20 L 86,20 L 85,21 L 84,21 L 81,24 L 80,24 L 80,25 L 79,26 L 78,26 L 74,30 L 74,31 L 71,34 L 70,34 L 66,38 L 66,39 L 65,40 L 64,40 L 64,41 L 62,43 L 62,45 L 61,46 L 60,46 L 60,47 L 58,49 L 58,50 L 57,51 L 57,52 L 54,55 L 54,57 L 53,58 L 53,59 L 52,60 L 52,62 L 50,64 L 50,67 L 49,68 L 49,69 L 48,70 L 48,75 L 47,76 L 47,79 L 46,80 L 46,84 L 45,85 L 45,87 L 44,88 L 44,107 L 45,108 L 45,111 L 46,112 L 46,121 L 47,122 L 47,123 L 48,124 L 48,127 L 49,128 L 49,129 L 50,130 L 50,132 L 52,134 L 52,137 L 53,138 L 53,139 L 54,140 L 54,141 L 55,141 L 56,142 L 56,144 L 58,146 L 58,147 L 60,149 L 60,150 L 62,152 L 62,153 L 63,153 L 64,154 L 64,156 L 72,164 L 72,165 L 73,165 L 75,167 L 76,167 L 78,169 L 79,169 L 80,170 L 80,171 L 82,173 L 83,173 L 84,174 L 85,174 L 86,175 L 87,175 L 88,176 L 88,177 L 89,177 L 91,179 L 93,179 L 95,181 L 97,181 L 98,182 L 99,182 L 100,183 L 101,183 L 102,184 L 104,184 L 105,185 L 107,185 L 108,186 L 110,186 L 111,187 L 115,187 L 116,188 L 117,188 L 118,189 L 123,189 L 124,190 L 125,190 L 126,191 L 147,191 L 148,190 L 153,190 L 154,189 L 159,189 L 160,188 L 162,188 L 163,187 L 165,187 L 166,186 L 167,186 L 168,185 L 171,185 L 172,184 L 173,184 L 174,183 L 176,183 L 177,182 L 178,182 L 179,181 L 181,181 L 182,180 L 183,180 L 184,179 L 185,179 L 186,178 L 187,178 L 188,177 L 189,177 L 191,175 L 192,175 L 194,173 L 195,173 L 195,172 L 196,171 L 197,171 L 198,170 L 199,170 L 204,165 L 205,165 L 205,164 L 206,163 L 207,163 L 207,162 L 208,161 L 209,161 L 209,160 L 212,157 L 212,156 L 215,153 L 215,152 L 217,150 L 217,149 L 219,147 L 219,146 L 221,144 L 221,142 L 222,141 L 223,141 L 223,139 L 225,137 L 225,136 L 226,135 L 226,134 L 227,133 L 227,131 L 228,130 L 228,129 L 229,128 L 229,125 L 230,124 L 230,122 L 231,121 L 231,116 L 232,115 L 232,114 L 233,113 L 233,98 L 234,97 L 234,94 L 233,93 L 233,82 L 232,81 L 232,78 L 231,77 L 231,74 L 230,73 L 230,72 L 229,71 L 229,68 L 228,67 L 228,66 L 227,65 L 227,62 L 225,60 L 225,58 L 224,57 L 224,56 L 223,55 L 223,54 L 222,53 L 222,52 L 221,51 L 221,50 L 220,50 L 217,47 L 217,45 L 215,43 L 215,42 L 214,42 L 213,41 L 213,40 L 209,36 L 209,35 L 207,33 L 207,32 L 206,32 L 201,27 L 200,27 L 197,24 L 196,24 L 194,22 L 192,22 L 191,21 L 191,20 L 189,18 L 187,18 L 186,17 L 184,17 L 181,14 L 179,14 L 177,12 L 175,12 L 173,10 L 170,10 L 169,9 L 168,9 L 167,8 L 161,8 L 160,7 L 158,7 L 157,6 L 148,6 L 147,5 L 146,5 L 145,4 L 143,4 L 142,5 L 140,5 L 139,4 Z" fill="black" /></svg>