<?xml version='1.0' encoding='utf-8'?>
<svg width="259" height="215" xmlns="http://www.w3.org/2000/svg" viewBox="0 0 259 215"><rect width="259" height="215" fill="white" /><path d="M 120,13 L 120,14 L 119,15 L 119,16 L 117,18 L 117,20 L 115,22 L 115,24 L 113,26 L 113,27 L 111,29 L 111,31 L 109,33 L 109,35 L 107,37 L 107,38 L 106,39 L 106,40 L 105,41 L 105,42 L 103,44 L 103,46 L 101,48 L 101,49 L 99,51 L 99,53 L 97,55 L 97,57 L 95,59 L 95,60 L 94,61 L 94,62 L 93,63 L 93,64 L 91,66 L 91,68 L 89,70 L 89,72 L 87,74 L 87,75 L 85,77 L 85,79 L 83,81 L 83,82 L 82,83 L 82,84 L 81,85 L 81,86 L 80,87 L 80,88 L 79,89 L 79,90 L 77,92 L 77,94 L 76,95 L 75,95 L 75,98 L 73,100 L 73,102 L 71,104 L 71,105 L 69,107 L 69,108 L 68,109 L 68,110 L 67,111 L 67,112 L 66,113 L 66,114 L 65,115 L 65,116 L 63,118 L 63,120 L 61,122 L 61,123 L 59,125 L 59,127 L 57,129 L 57,131 L 55,133 L 55,134 L 54,135 L 54,136 L 53,137 L 53,138 L 51,140 L 51,142 L 49,144 L 49,145 L 47,147 L 47,149 L 45,151 L 45,152 L 44,153 L 44,154 L 43,155 L 43,156 L 42,157 L 42,158 L 41,159 L 41,160 L 40,161 L 40,162 L 39,163 L 39,164 L 37,166 L 37,168 L 35,170 L 35,172 L 34,173 L 33,173 L 33,176 L 31,178 L 31,179 L 29,181 L 29,183 L 28,184 L 28,185 L 27,186 L 27,187 L 26,188 L 27,189 L 28,188 L 29,188 L 30,187 L 31,188 L 32,187 L 42,187 L 43,186 L 66,186 L 67,185 L 76,185 L 77,184 L 99,184 L 100,183 L 114,183 L 115,182 L 126,182 L 127,181 L 128,182 L 136,182 L 137,181 L 147,181 L 148,180 L 172,180 L 173,179 L 186,179 L 187,178 L 208,178 L 209,177 L 218,177 L 219,176 L 239,176 L 239,172 L 238,171 L 237,171 L 236,170 L 236,169 L 234,167 L 234,166 L 232,164 L 232,163 L 231,163 L 230,162 L 230,161 L 227,158 L 227,157 L 226,156 L 226,155 L 225,155 L 224,154 L 224,153 L 222,151 L 222,150 L 218,146 L 218,145 L 216,143 L 215,143 L 214,142 L 214,141 L 213,140 L 213,139 L 212,138 L 212,137 L 208,133 L 208,131 L 207,131 L 206,130 L 206,128 L 202,124 L 202,123 L 201,123 L 200,122 L 200,121 L 198,119 L 198,118 L 196,116 L 196,115 L 195,115 L 194,114 L 194,113 L 193,112 L 193,111 L 190,108 L 190,107 L 188,105 L 188,104 L 187,104 L 185,102 L 185,101 L 184,100 L 184,99 L 183,99 L 182,98 L 182,97 L 179,94 L 179,93 L 178,92 L 178,91 L 177,91 L 176,90 L 176,89 L 175,88 L 175,87 L 174,86 L 174,85 L 173,85 L 172,84 L 172,83 L 169,80 L 169,79 L 168,78 L 168,77 L 166,75 L 166,74 L 162,70 L 162,69 L 160,67 L 160,66 L 156,62 L 156,61 L 154,59 L 154,58 L 152,56 L 152,55 L 149,52 L 149,51 L 146,48 L 146,47 L 143,44 L 143,43 L 140,40 L 140,39 L 139,38 L 139,37 L 136,34 L 136,33 L 135,33 L 134,32 L 134,31 L 132,29 L 132,28 L 130,26 L 130,25 L 129,25 L 128,24 L 128,23 L 126,21 L 126,19 L 125,19 L 124,18 L 124,16 L 123,15 L 123,14 L 122,13 Z" fill="black" /><path d="M 0,0 L 0,214 L 258,214 L 258,0 Z" fill="none" stroke="black" stroke-width="1" /></svg>