<?xml version='1.0' encoding='utf-8'?>
<svg width="257" height="219" xmlns="http://www.w3.org/2000/svg" viewBox="0 0 257 219"><rect width="257" height="219" fill="white" /><path d="M 116,31 L 114,33 L 114,35 L 113,36 L 113,37 L 112,38 L 112,39 L 111,40 L 111,42 L 110,43 L 110,46 L 108,48 L 108,51 L 107,52 L 107,53 L 106,54 L 106,57 L 104,59 L 104,63 L 103,64 L 103,65 L 102,66 L 102,70 L 100,72 L 100,74 L 99,75 L 99,76 L 98,77 L 98,80 L 96,82 L 96,85 L 95,86 L 95,87 L 94,88 L 94,90 L 93,91 L 93,93 L 92,94 L 92,96 L 91,97 L 91,98 L 90,99 L 90,101 L 88,103 L 88,107 L 86,109 L 86,111 L 85,112 L 85,113 L 84,114 L 84,117 L 83,118 L 83,119 L 82,120 L 82,123 L 80,125 L 80,127 L 79,128 L 79,129 L 78,130 L 78,133 L 77,134 L 77,135 L 76,136 L 76,138 L 74,140 L 74,143 L 73,144 L 73,145 L 72,146 L 72,149 L 70,151 L 70,154 L 69,155 L 69,156 L 68,157 L 68,159 L 67,160 L 67,162 L 66,163 L 66,165 L 65,166 L 65,167 L 64,168 L 64,170 L 63,171 L 63,172 L 62,173 L 62,175 L 61,176 L 61,177 L 60,178 L 60,181 L 59,182 L 59,183 L 58,184 L 58,186 L 56,188 L 56,192 L 55,193 L 55,194 L 53,196 L 53,197 L 52,198 L 52,202 L 51,203 L 51,204 L 50,205 L 50,206 L 49,207 L 50,208 L 53,208 L 54,209 L 55,209 L 56,208 L 60,208 L 61,207 L 69,207 L 70,206 L 73,206 L 74,205 L 89,205 L 90,204 L 95,204 L 96,203 L 115,203 L 116,202 L 120,202 L 121,201 L 130,201 L 131,200 L 136,200 L 137,199 L 149,199 L 150,198 L 155,198 L 156,197 L 169,197 L 170,196 L 177,196 L 178,195 L 189,195 L 190,194 L 199,194 L 200,193 L 210,193 L 211,192 L 216,192 L 217,191 L 224,191 L 224,188 L 223,187 L 223,186 L 221,184 L 221,182 L 220,182 L 219,181 L 219,180 L 216,177 L 216,176 L 213,173 L 213,172 L 211,170 L 211,169 L 209,167 L 209,166 L 207,164 L 207,163 L 205,161 L 205,160 L 203,158 L 203,157 L 201,155 L 201,154 L 198,151 L 198,150 L 196,148 L 196,147 L 195,146 L 195,145 L 193,143 L 193,142 L 192,142 L 191,141 L 191,140 L 189,138 L 189,137 L 187,135 L 187,134 L 184,131 L 184,130 L 183,129 L 183,128 L 182,128 L 181,127 L 181,126 L 179,124 L 179,123 L 177,121 L 177,120 L 176,119 L 176,118 L 173,115 L 173,114 L 172,113 L 172,112 L 169,109 L 169,108 L 166,105 L 166,104 L 165,103 L 165,102 L 164,102 L 163,101 L 163,100 L 162,99 L 162,98 L 159,95 L 159,94 L 158,93 L 158,92 L 155,89 L 155,88 L 153,86 L 153,85 L 151,83 L 151,82 L 149,80 L 149,79 L 147,77 L 147,76 L 145,74 L 145,73 L 143,71 L 143,70 L 140,67 L 140,66 L 139,65 L 139,64 L 138,64 L 137,63 L 137,62 L 135,60 L 135,58 L 134,58 L 133,57 L 133,56 L 131,54 L 131,52 L 130,52 L 129,51 L 129,50 L 127,48 L 127,47 L 125,45 L 125,44 L 124,43 L 124,42 L 123,41 L 123,40 L 122,40 L 121,39 L 121,38 L 119,36 L 119,35 L 118,34 L 118,33 Z" fill="black" /><path d="M 0,0 L 0,218 L 256,218 L 256,0 Z" fill="none" stroke="black" stroke-width="1" /></svg>