<?xml version='1.0' encoding='utf-8'?>
<svg width="258" height="219" xmlns="http://www.w3.org/2000/svg" viewBox="0 0 258 219"><rect width="258" height="219" fill="white" /><path d="M 9,20 L 7,22 L 8,23 L 8,24 L 9,25 L 9,26 L 10,27 L 10,28 L 12,30 L 12,32 L 14,34 L 14,36 L 15,36 L 16,37 L 16,39 L 18,41 L 18,43 L 20,45 L 20,47 L 22,49 L 22,51 L 24,53 L 24,54 L 25,55 L 25,56 L 26,57 L 26,58 L 28,60 L 28,62 L 29,63 L 29,64 L 30,65 L 30,66 L 31,67 L 31,68 L 32,69 L 32,70 L 34,72 L 34,74 L 35,74 L 36,75 L 36,77 L 38,79 L 38,81 L 40,83 L 40,84 L 41,85 L 41,86 L 42,87 L 42,88 L 43,89 L 43,90 L 44,91 L 44,92 L 45,93 L 45,94 L 46,95 L 46,96 L 48,98 L 48,100 L 50,102 L 50,104 L 51,104 L 52,105 L 52,107 L 54,109 L 54,110 L 55,111 L 55,112 L 56,113 L 56,114 L 57,115 L 57,116 L 58,117 L 58,118 L 60,120 L 60,122 L 62,124 L 62,126 L 64,128 L 64,129 L 66,131 L 66,134 L 67,134 L 68,135 L 68,137 L 70,139 L 70,141 L 72,143 L 72,144 L 73,145 L 73,146 L 74,147 L 74,148 L 75,149 L 75,150 L 76,151 L 76,152 L 77,153 L 77,154 L 78,155 L 78,156 L 80,158 L 80,160 L 82,162 L 82,164 L 83,164 L 84,165 L 84,167 L 86,169 L 86,171 L 87,172 L 87,173 L 88,174 L 88,176 L 90,178 L 90,180 L 91,181 L 91,182 L 92,183 L 92,184 L 93,185 L 93,186 L 94,187 L 94,188 L 95,189 L 95,190 L 96,191 L 96,192 L 98,194 L 98,196 L 99,197 L 99,198 L 100,199 L 101,199 L 101,198 L 102,197 L 102,195 L 105,192 L 105,191 L 106,190 L 107,190 L 107,189 L 110,186 L 110,185 L 113,182 L 113,181 L 116,178 L 116,177 L 119,174 L 119,173 L 123,169 L 123,168 L 127,164 L 127,163 L 130,160 L 130,159 L 133,156 L 133,155 L 134,154 L 135,154 L 135,153 L 137,151 L 137,150 L 139,148 L 139,147 L 140,146 L 141,146 L 141,145 L 144,142 L 144,141 L 147,138 L 147,137 L 148,136 L 149,136 L 149,135 L 151,133 L 151,132 L 153,130 L 153,129 L 156,126 L 157,126 L 157,125 L 159,123 L 159,122 L 161,120 L 161,119 L 162,118 L 163,118 L 163,117 L 165,115 L 165,114 L 169,110 L 169,109 L 170,108 L 171,108 L 171,107 L 173,105 L 173,104 L 175,102 L 175,101 L 176,100 L 177,100 L 177,99 L 181,95 L 181,94 L 183,92 L 183,91 L 187,87 L 187,86 L 189,84 L 189,83 L 190,82 L 191,82 L 191,81 L 193,79 L 193,78 L 197,74 L 197,73 L 200,70 L 200,69 L 203,66 L 203,65 L 207,61 L 207,60 L 209,58 L 209,57 L 210,56 L 211,56 L 211,55 L 214,52 L 214,51 L 217,48 L 217,47 L 218,46 L 219,46 L 219,45 L 221,43 L 221,42 L 223,40 L 223,37 L 224,36 L 225,36 L 229,32 L 229,31 L 230,30 L 231,30 L 231,29 L 235,25 L 235,24 L 236,23 L 235,22 L 234,22 L 233,23 L 230,23 L 229,24 L 156,24 L 155,23 L 152,23 L 151,24 L 144,24 L 143,23 L 140,23 L 139,24 L 137,24 L 136,23 L 134,23 L 133,24 L 132,23 L 40,23 L 39,22 L 32,22 L 31,23 L 30,22 L 12,22 L 11,21 L 10,21 Z" fill="black" /><path d="M 0,0 L 0,218 L 257,218 L 257,0 Z" fill="none" stroke="black" stroke-width="1" /></svg>