<?xml version='1.0' encoding='utf-8'?>
<svg width="255" height="220" xmlns="http://www.w3.org/2000/svg" viewBox="0 0 255 220"><rect width="255" height="220" fill="white" /><path d="M 141,34 L 140,35 L 134,35 L 133,36 L 129,36 L 128,37 L 126,37 L 125,38 L 123,38 L 122,39 L 121,39 L 120,40 L 118,40 L 117,41 L 116,41 L 115,42 L 112,42 L 110,44 L 109,44 L 107,46 L 105,46 L 105,47 L 104,48 L 103,48 L 102,49 L 101,49 L 101,50 L 100,51 L 99,51 L 98,52 L 97,52 L 97,53 L 96,54 L 95,54 L 91,58 L 91,59 L 88,62 L 87,62 L 87,63 L 86,64 L 85,64 L 85,65 L 83,67 L 83,68 L 81,70 L 81,71 L 79,73 L 79,75 L 77,77 L 77,78 L 75,80 L 75,81 L 74,82 L 74,83 L 73,84 L 73,87 L 71,89 L 71,91 L 70,92 L 70,94 L 69,95 L 69,100 L 67,102 L 67,113 L 66,114 L 66,115 L 67,116 L 67,127 L 68,128 L 68,131 L 69,132 L 69,140 L 71,142 L 71,145 L 72,146 L 72,148 L 73,149 L 73,151 L 74,151 L 75,152 L 75,154 L 77,156 L 77,159 L 80,162 L 80,163 L 83,166 L 83,167 L 85,169 L 85,170 L 86,170 L 87,171 L 87,172 L 95,180 L 96,180 L 97,181 L 98,181 L 101,184 L 101,185 L 102,185 L 105,188 L 106,188 L 107,189 L 108,189 L 109,190 L 110,190 L 111,191 L 112,191 L 113,192 L 114,192 L 115,193 L 118,193 L 119,194 L 119,195 L 121,195 L 122,196 L 124,196 L 125,197 L 130,197 L 131,198 L 132,198 L 133,199 L 139,199 L 140,200 L 147,200 L 148,201 L 150,201 L 151,200 L 152,200 L 153,201 L 155,201 L 156,200 L 158,200 L 159,199 L 160,199 L 161,200 L 162,200 L 163,199 L 169,199 L 170,198 L 171,198 L 172,197 L 175,197 L 176,196 L 178,196 L 179,195 L 182,195 L 184,193 L 186,193 L 188,191 L 189,191 L 191,189 L 193,189 L 195,187 L 196,187 L 197,186 L 198,186 L 201,183 L 202,183 L 202,182 L 203,181 L 204,181 L 207,178 L 208,178 L 214,172 L 214,171 L 218,167 L 218,164 L 221,161 L 222,161 L 222,159 L 224,157 L 224,156 L 225,155 L 225,154 L 226,153 L 226,151 L 227,150 L 227,149 L 228,148 L 228,146 L 230,144 L 230,140 L 231,139 L 231,138 L 232,137 L 232,132 L 233,131 L 233,129 L 234,128 L 233,127 L 233,122 L 234,121 L 234,109 L 233,108 L 233,106 L 232,105 L 232,98 L 231,97 L 231,96 L 230,95 L 230,91 L 228,89 L 228,87 L 227,86 L 227,85 L 226,84 L 226,82 L 225,81 L 225,80 L 224,79 L 224,78 L 223,77 L 223,76 L 222,75 L 222,74 L 219,71 L 219,70 L 216,67 L 216,66 L 214,64 L 214,63 L 213,62 L 212,62 L 210,60 L 210,59 L 207,56 L 206,56 L 204,54 L 204,53 L 203,53 L 201,51 L 200,51 L 197,48 L 195,48 L 193,46 L 192,46 L 190,44 L 189,44 L 187,42 L 183,42 L 182,41 L 182,40 L 181,40 L 180,39 L 179,39 L 178,38 L 175,38 L 174,37 L 170,37 L 169,36 L 165,36 L 164,35 L 157,35 L 156,34 Z" fill="black" /></svg>