<?xml version='1.0' encoding='utf-8'?>
<svg width="257" height="216" xmlns="http://www.w3.org/2000/svg" viewBox="0 0 257 216"><rect width="257" height="216" fill="white" /><path d="M 110,4 L 110,5 L 109,6 L 109,7 L 107,9 L 107,10 L 105,12 L 105,13 L 103,15 L 103,18 L 101,20 L 101,21 L 99,23 L 99,24 L 95,28 L 95,29 L 93,31 L 93,32 L 91,34 L 91,35 L 89,37 L 89,38 L 87,40 L 87,41 L 86,42 L 86,43 L 83,46 L 83,47 L 81,49 L 81,50 L 79,52 L 79,53 L 77,55 L 77,56 L 75,58 L 75,59 L 73,61 L 73,62 L 71,64 L 71,65 L 70,66 L 70,67 L 67,70 L 67,73 L 64,76 L 64,88 L 65,89 L 65,121 L 66,122 L 66,149 L 67,150 L 67,154 L 66,155 L 67,156 L 67,161 L 66,162 L 66,166 L 67,167 L 66,168 L 66,175 L 67,176 L 67,179 L 69,181 L 70,181 L 72,183 L 74,183 L 76,185 L 77,185 L 79,187 L 81,187 L 83,189 L 84,189 L 85,190 L 86,190 L 87,191 L 88,191 L 90,193 L 91,193 L 93,195 L 95,195 L 97,197 L 99,197 L 101,199 L 102,199 L 104,201 L 106,201 L 108,203 L 109,203 L 111,205 L 112,205 L 113,206 L 114,206 L 115,207 L 116,207 L 118,209 L 120,209 L 121,210 L 121,211 L 123,211 L 125,213 L 128,213 L 130,211 L 132,211 L 134,209 L 136,209 L 138,207 L 140,207 L 140,206 L 141,205 L 143,205 L 145,203 L 147,203 L 149,201 L 151,201 L 153,199 L 154,199 L 155,198 L 156,198 L 157,197 L 158,197 L 160,195 L 162,195 L 164,193 L 166,193 L 168,191 L 169,191 L 171,189 L 173,189 L 175,187 L 176,187 L 177,186 L 178,186 L 179,185 L 179,184 L 180,183 L 180,173 L 179,172 L 179,155 L 178,154 L 178,105 L 177,104 L 177,76 L 176,75 L 177,74 L 177,69 L 176,68 L 176,60 L 174,58 L 173,58 L 172,57 L 172,56 L 171,56 L 170,55 L 169,55 L 168,54 L 167,54 L 164,51 L 164,50 L 163,50 L 156,43 L 155,43 L 146,34 L 145,34 L 142,31 L 142,30 L 141,30 L 140,29 L 140,28 L 139,28 L 138,27 L 137,27 L 136,26 L 136,25 L 135,24 L 134,24 L 132,22 L 132,21 L 131,20 L 130,20 L 128,18 L 127,18 L 124,15 L 124,14 L 122,12 L 121,12 L 118,9 L 118,8 L 117,8 L 115,6 L 114,6 L 112,4 Z" fill="black" /><path d="M 0,0 L 0,215 L 256,215 L 256,0 Z" fill="none" stroke="black" stroke-width="1" /></svg>