<?xml version='1.0' encoding='utf-8'?>
<svg width="260" height="217" xmlns="http://www.w3.org/2000/svg" viewBox="0 0 260 217"><rect width="260" height="217" fill="white" /><path d="M 119,11 L 118,12 L 112,12 L 111,13 L 110,13 L 109,14 L 108,14 L 107,15 L 106,15 L 105,16 L 104,16 L 100,20 L 99,20 L 90,29 L 90,30 L 88,32 L 88,33 L 87,34 L 87,35 L 86,36 L 86,37 L 85,38 L 84,38 L 84,40 L 83,41 L 83,42 L 82,43 L 82,44 L 80,46 L 80,48 L 78,50 L 78,52 L 77,53 L 77,54 L 76,55 L 76,57 L 75,58 L 75,59 L 74,60 L 74,61 L 73,62 L 73,63 L 72,64 L 72,69 L 70,71 L 70,75 L 69,76 L 69,78 L 68,79 L 68,85 L 67,86 L 67,89 L 66,90 L 66,121 L 67,122 L 67,123 L 68,124 L 68,131 L 69,132 L 69,135 L 70,136 L 70,139 L 71,140 L 71,141 L 72,142 L 72,145 L 73,146 L 73,147 L 74,148 L 74,151 L 75,152 L 75,153 L 76,154 L 76,156 L 78,158 L 78,159 L 79,160 L 79,161 L 80,162 L 80,164 L 82,166 L 82,168 L 84,170 L 84,172 L 86,174 L 86,175 L 88,177 L 88,178 L 90,180 L 90,181 L 96,187 L 96,188 L 101,193 L 102,193 L 104,195 L 105,195 L 106,196 L 107,196 L 110,199 L 111,199 L 113,201 L 116,201 L 117,202 L 118,202 L 119,203 L 123,203 L 124,204 L 140,204 L 141,203 L 144,203 L 146,201 L 148,201 L 150,199 L 151,199 L 152,198 L 153,198 L 156,195 L 157,195 L 157,194 L 158,193 L 158,192 L 163,187 L 163,186 L 164,185 L 165,185 L 165,184 L 169,180 L 169,179 L 171,177 L 171,176 L 172,175 L 173,175 L 173,172 L 175,170 L 175,169 L 177,167 L 177,164 L 178,163 L 178,162 L 179,161 L 179,160 L 180,159 L 180,158 L 181,157 L 181,154 L 183,152 L 183,147 L 184,146 L 184,145 L 185,144 L 185,140 L 186,139 L 186,138 L 185,137 L 187,135 L 187,124 L 188,123 L 188,115 L 187,114 L 187,98 L 186,97 L 186,93 L 185,92 L 185,86 L 184,85 L 184,83 L 183,82 L 183,78 L 182,77 L 182,76 L 181,75 L 181,72 L 180,71 L 180,70 L 179,69 L 179,66 L 177,64 L 177,62 L 176,61 L 176,60 L 175,59 L 175,57 L 174,56 L 174,55 L 173,54 L 173,52 L 172,51 L 172,50 L 171,49 L 171,48 L 170,47 L 170,46 L 169,45 L 169,44 L 167,42 L 167,41 L 165,39 L 165,38 L 164,38 L 163,37 L 163,36 L 160,33 L 160,32 L 148,20 L 147,20 L 145,18 L 144,18 L 143,17 L 143,16 L 141,16 L 140,15 L 139,15 L 138,14 L 136,14 L 135,13 L 134,13 L 133,12 L 128,12 L 127,11 Z" fill="black" /><path d="M 0,0 L 0,216 L 259,216 L 259,0 Z" fill="none" stroke="black" stroke-width="1" /></svg>