<?xml version='1.0' encoding='utf-8'?>
<svg width="261" height="214" xmlns="http://www.w3.org/2000/svg" viewBox="0 0 261 214"><rect width="261" height="214" fill="white" /><path d="M 108,145 L 107,146 L 106,146 L 106,147 L 107,148 L 107,149 L 106,150 L 106,151 L 104,153 L 104,154 L 102,156 L 102,157 L 101,158 L 101,159 L 100,160 L 100,161 L 98,163 L 98,165 L 97,166 L 97,167 L 96,168 L 96,169 L 94,171 L 94,172 L 92,174 L 92,175 L 90,177 L 90,179 L 88,181 L 88,183 L 87,184 L 86,184 L 86,185 L 85,186 L 85,187 L 84,188 L 84,189 L 83,190 L 83,191 L 80,194 L 80,196 L 78,198 L 78,201 L 79,202 L 90,202 L 91,203 L 92,202 L 123,202 L 124,201 L 133,201 L 134,202 L 142,202 L 143,201 L 144,201 L 144,199 L 143,198 L 143,197 L 139,193 L 139,191 L 137,189 L 137,188 L 136,188 L 135,187 L 135,185 L 133,183 L 133,182 L 131,180 L 131,179 L 129,177 L 129,176 L 128,175 L 128,174 L 127,173 L 127,172 L 126,172 L 125,171 L 125,170 L 123,168 L 123,166 L 120,163 L 120,162 L 119,161 L 119,160 L 117,158 L 117,156 L 116,156 L 115,155 L 115,154 L 113,152 L 113,150 Z" fill="black" /><path d="M 162,97 L 161,98 L 158,98 L 158,99 L 157,100 L 154,100 L 153,101 L 152,101 L 151,102 L 150,102 L 149,103 L 148,103 L 148,104 L 146,106 L 145,106 L 145,107 L 142,110 L 142,111 L 141,112 L 141,113 L 140,114 L 140,116 L 139,117 L 139,118 L 138,119 L 138,125 L 137,126 L 137,129 L 138,130 L 138,135 L 139,136 L 139,137 L 140,138 L 140,140 L 144,144 L 144,145 L 146,147 L 147,147 L 148,148 L 149,148 L 150,149 L 150,150 L 151,151 L 152,151 L 154,153 L 157,153 L 158,154 L 159,154 L 160,155 L 176,155 L 177,154 L 179,154 L 180,153 L 181,153 L 183,151 L 184,151 L 186,149 L 187,149 L 187,148 L 188,147 L 189,147 L 191,145 L 191,144 L 193,142 L 193,140 L 194,139 L 194,138 L 195,137 L 195,136 L 196,135 L 196,133 L 197,132 L 197,120 L 196,119 L 196,118 L 195,117 L 195,112 L 194,112 L 193,111 L 193,110 L 185,102 L 184,102 L 183,101 L 182,101 L 181,100 L 180,100 L 179,99 L 178,99 L 177,98 L 172,98 L 171,97 L 166,97 L 165,98 L 164,98 L 163,97 Z" fill="black" /><path d="M 0,0 L 0,213 L 260,213 L 260,0 Z" fill="none" stroke="black" stroke-width="1" /></svg>