<?xml version='1.0' encoding='utf-8'?>
<svg width="257" height="217" xmlns="http://www.w3.org/2000/svg" viewBox="0 0 257 217"><rect width="257" height="217" fill="white" /><path d="M 110,41 L 109,42 L 100,42 L 99,43 L 96,43 L 95,44 L 90,44 L 89,45 L 86,45 L 85,46 L 81,46 L 79,48 L 76,48 L 75,49 L 74,49 L 73,50 L 70,50 L 69,51 L 68,51 L 67,52 L 65,52 L 63,54 L 60,54 L 58,56 L 56,56 L 54,58 L 52,58 L 52,59 L 51,60 L 50,60 L 49,61 L 48,61 L 47,62 L 46,62 L 46,63 L 45,64 L 44,64 L 44,65 L 43,66 L 42,66 L 39,69 L 38,69 L 25,82 L 25,83 L 22,86 L 22,87 L 20,89 L 20,91 L 18,93 L 18,95 L 16,97 L 16,99 L 15,100 L 15,101 L 14,102 L 14,104 L 13,105 L 13,107 L 12,108 L 12,115 L 11,116 L 11,123 L 10,124 L 10,128 L 11,129 L 11,131 L 12,132 L 12,135 L 13,136 L 13,137 L 14,138 L 14,140 L 15,141 L 15,143 L 16,144 L 16,145 L 18,147 L 18,149 L 19,150 L 19,151 L 20,152 L 20,153 L 21,153 L 22,154 L 22,156 L 32,166 L 33,166 L 34,167 L 34,168 L 35,169 L 36,169 L 38,171 L 41,171 L 45,175 L 47,175 L 49,177 L 50,177 L 52,179 L 55,179 L 56,180 L 56,181 L 58,181 L 60,183 L 63,183 L 64,184 L 64,185 L 66,185 L 67,186 L 68,186 L 69,187 L 73,187 L 75,189 L 79,189 L 80,190 L 81,190 L 82,191 L 86,191 L 87,192 L 90,192 L 91,193 L 95,193 L 96,194 L 98,194 L 99,195 L 107,195 L 108,196 L 113,196 L 114,197 L 133,197 L 134,198 L 136,198 L 137,197 L 145,197 L 146,196 L 148,196 L 149,195 L 155,195 L 156,194 L 157,194 L 158,193 L 163,193 L 164,192 L 165,192 L 166,191 L 169,191 L 170,190 L 171,190 L 172,189 L 176,189 L 177,188 L 178,188 L 179,187 L 182,187 L 183,186 L 184,186 L 185,185 L 187,185 L 188,184 L 189,184 L 190,183 L 192,183 L 194,181 L 196,181 L 198,179 L 200,179 L 202,177 L 204,177 L 206,175 L 208,175 L 210,173 L 211,173 L 211,172 L 214,169 L 215,169 L 219,165 L 220,165 L 224,161 L 225,161 L 225,160 L 226,159 L 227,159 L 227,158 L 229,156 L 229,155 L 231,153 L 231,152 L 233,150 L 233,149 L 235,147 L 235,145 L 236,144 L 236,143 L 237,142 L 237,139 L 238,138 L 238,137 L 239,136 L 239,134 L 240,133 L 240,128 L 241,127 L 241,116 L 240,115 L 240,108 L 239,107 L 239,105 L 238,104 L 238,103 L 239,102 L 238,101 L 238,100 L 237,99 L 237,97 L 235,95 L 235,93 L 233,91 L 233,89 L 229,85 L 229,84 L 228,84 L 225,81 L 225,79 L 218,72 L 217,72 L 213,68 L 212,68 L 211,67 L 211,66 L 209,66 L 207,64 L 206,64 L 205,63 L 204,63 L 203,62 L 202,62 L 201,61 L 201,60 L 199,60 L 197,58 L 195,58 L 194,57 L 193,57 L 192,56 L 191,56 L 190,55 L 189,55 L 188,54 L 186,54 L 185,53 L 184,53 L 183,52 L 181,52 L 180,51 L 179,51 L 178,50 L 176,50 L 174,48 L 169,48 L 168,47 L 166,47 L 165,46 L 162,46 L 161,45 L 159,45 L 158,44 L 152,44 L 151,43 L 148,43 L 147,42 L 130,42 L 129,41 L 114,41 L 113,42 L 112,42 L 111,41 Z" fill="black" /><path d="M 0,0 L 0,216 L 256,216 L 256,0 Z" fill="none" stroke="black" stroke-width="1" /></svg>