<?xml version='1.0' encoding='utf-8'?>
<svg width="257" height="220" xmlns="http://www.w3.org/2000/svg" viewBox="0 0 257 220"><rect width="257" height="220" fill="white" /><path d="M 223,53 L 222,54 L 175,54 L 174,55 L 154,55 L 153,56 L 105,56 L 104,57 L 80,57 L 79,58 L 24,58 L 23,59 L 17,59 L 16,58 L 15,59 L 4,59 L 3,60 L 2,60 L 2,62 L 4,64 L 4,82 L 5,83 L 4,84 L 4,92 L 5,93 L 5,97 L 4,98 L 4,100 L 5,101 L 4,102 L 4,111 L 5,112 L 5,113 L 4,114 L 4,126 L 5,127 L 5,147 L 6,148 L 6,160 L 7,161 L 7,162 L 6,163 L 6,168 L 8,170 L 8,171 L 16,171 L 17,170 L 22,170 L 23,169 L 24,169 L 25,170 L 26,170 L 27,169 L 82,169 L 83,168 L 109,168 L 110,167 L 117,167 L 118,168 L 121,168 L 122,167 L 126,167 L 127,168 L 128,167 L 132,167 L 133,168 L 134,167 L 217,167 L 218,166 L 221,166 L 222,167 L 231,167 L 232,166 L 232,165 L 231,164 L 231,154 L 232,153 L 232,149 L 231,148 L 231,126 L 230,125 L 230,103 L 229,102 L 230,101 L 230,98 L 229,97 L 229,54 L 228,53 Z" fill="black" /><path d="M 0,0 L 0,219 L 256,219 L 256,0 Z" fill="none" stroke="black" stroke-width="1" /></svg>