<?xml version='1.0' encoding='utf-8'?>
<svg width="258" height="220" xmlns="http://www.w3.org/2000/svg" viewBox="0 0 258 220"><rect width="258" height="220" fill="white" /><path d="M 147,2 L 141,8 L 140,8 L 140,9 L 139,10 L 138,10 L 138,11 L 137,12 L 136,12 L 136,13 L 133,16 L 132,16 L 123,25 L 122,25 L 115,32 L 114,32 L 114,33 L 113,34 L 112,34 L 112,35 L 109,38 L 108,38 L 102,44 L 101,44 L 95,50 L 94,50 L 94,51 L 93,52 L 92,52 L 92,53 L 91,54 L 90,54 L 90,55 L 87,58 L 86,58 L 82,62 L 81,62 L 81,63 L 80,64 L 79,64 L 73,70 L 72,70 L 72,71 L 71,72 L 70,72 L 70,73 L 69,74 L 68,74 L 68,75 L 65,78 L 64,78 L 61,81 L 60,81 L 53,88 L 52,88 L 52,89 L 49,92 L 48,92 L 48,93 L 47,94 L 46,94 L 46,95 L 43,98 L 42,98 L 34,106 L 33,106 L 27,112 L 26,112 L 22,116 L 22,117 L 19,120 L 18,120 L 18,121 L 17,122 L 16,122 L 16,123 L 13,126 L 12,126 L 10,128 L 9,128 L 7,130 L 6,130 L 6,131 L 5,132 L 4,132 L 4,133 L 3,134 L 2,134 L 1,135 L 0,135 L 0,137 L 2,139 L 3,139 L 5,141 L 6,141 L 10,145 L 11,145 L 12,146 L 12,147 L 13,147 L 14,148 L 14,149 L 16,149 L 17,150 L 17,151 L 22,156 L 23,156 L 26,159 L 27,159 L 30,162 L 30,163 L 31,163 L 32,164 L 32,165 L 33,165 L 38,170 L 39,170 L 40,171 L 41,171 L 44,174 L 44,175 L 45,175 L 46,176 L 46,177 L 47,177 L 50,180 L 51,180 L 54,183 L 55,183 L 56,184 L 56,185 L 57,185 L 65,193 L 66,193 L 70,197 L 71,197 L 72,198 L 72,199 L 73,199 L 74,200 L 74,201 L 75,201 L 76,202 L 77,202 L 80,205 L 80,206 L 81,207 L 82,207 L 84,209 L 85,209 L 86,210 L 86,211 L 87,211 L 89,213 L 91,213 L 93,211 L 93,210 L 98,205 L 99,205 L 101,203 L 101,202 L 102,201 L 103,201 L 108,196 L 109,196 L 122,183 L 123,183 L 128,178 L 129,178 L 129,177 L 130,176 L 131,176 L 131,175 L 135,171 L 136,171 L 136,170 L 138,168 L 139,168 L 142,165 L 143,165 L 143,164 L 144,163 L 145,163 L 145,162 L 148,159 L 149,159 L 158,150 L 159,150 L 162,147 L 163,147 L 163,146 L 166,143 L 167,143 L 167,142 L 170,139 L 171,139 L 171,138 L 174,135 L 175,135 L 177,133 L 177,132 L 178,131 L 179,131 L 181,129 L 181,128 L 182,127 L 183,127 L 191,119 L 192,119 L 192,118 L 193,117 L 194,117 L 198,113 L 199,113 L 199,112 L 200,111 L 201,111 L 201,110 L 202,109 L 203,109 L 203,108 L 206,105 L 207,105 L 207,104 L 208,103 L 209,103 L 212,100 L 213,100 L 215,98 L 215,96 L 216,95 L 217,95 L 218,94 L 219,94 L 224,89 L 225,89 L 225,88 L 226,87 L 227,87 L 227,86 L 230,83 L 231,83 L 236,78 L 236,75 L 235,74 L 234,74 L 233,73 L 232,73 L 229,70 L 228,70 L 227,69 L 227,68 L 225,66 L 224,66 L 223,65 L 223,64 L 222,64 L 221,63 L 220,63 L 215,58 L 214,58 L 213,57 L 213,56 L 211,54 L 210,54 L 207,51 L 207,50 L 206,50 L 205,49 L 205,48 L 204,48 L 201,45 L 200,45 L 197,42 L 196,42 L 195,41 L 195,40 L 194,40 L 192,38 L 191,38 L 190,37 L 190,36 L 189,35 L 188,35 L 185,32 L 184,32 L 181,29 L 181,28 L 180,28 L 174,22 L 173,22 L 171,20 L 170,20 L 167,17 L 167,16 L 166,16 L 161,11 L 160,11 L 154,5 L 152,5 L 151,4 L 151,2 Z" fill="black" /><circle cx="128" cy="109" r="168" fill="none" stroke="black" stroke-width="1" /></svg>