<?xml version='1.0' encoding='utf-8'?>
<svg width="261" height="219" xmlns="http://www.w3.org/2000/svg" viewBox="0 0 261 219"><rect width="261" height="219" fill="white" /><path d="M 78,15 L 77,16 L 70,16 L 69,17 L 60,17 L 59,18 L 58,18 L 57,19 L 53,19 L 52,20 L 50,20 L 49,21 L 44,21 L 42,23 L 40,23 L 39,24 L 38,24 L 37,25 L 35,25 L 34,26 L 33,26 L 31,28 L 30,28 L 29,29 L 28,29 L 28,30 L 27,31 L 25,31 L 23,33 L 22,33 L 22,34 L 21,35 L 20,35 L 20,36 L 19,37 L 18,37 L 18,38 L 16,40 L 16,41 L 15,42 L 14,42 L 13,43 L 13,44 L 12,45 L 12,46 L 10,48 L 10,50 L 8,52 L 8,56 L 6,58 L 6,61 L 5,62 L 5,63 L 4,64 L 4,84 L 5,85 L 5,86 L 6,87 L 6,91 L 7,92 L 7,93 L 8,94 L 8,96 L 10,98 L 10,100 L 11,101 L 11,102 L 12,103 L 12,106 L 14,108 L 14,109 L 16,111 L 16,112 L 18,114 L 18,115 L 20,117 L 20,118 L 22,120 L 22,121 L 25,124 L 25,125 L 26,126 L 26,128 L 29,131 L 29,132 L 34,137 L 34,138 L 35,138 L 36,139 L 36,140 L 37,140 L 40,143 L 40,144 L 42,146 L 42,147 L 43,147 L 44,148 L 45,148 L 46,149 L 46,150 L 48,152 L 48,153 L 49,153 L 52,156 L 52,157 L 53,158 L 54,158 L 58,162 L 59,162 L 60,163 L 60,164 L 61,164 L 65,168 L 66,168 L 68,170 L 69,170 L 70,171 L 70,172 L 72,172 L 74,174 L 75,174 L 79,178 L 81,178 L 83,180 L 84,180 L 86,182 L 87,182 L 88,183 L 89,183 L 90,184 L 91,184 L 92,185 L 93,185 L 94,186 L 96,186 L 98,188 L 99,188 L 101,190 L 103,190 L 104,191 L 105,191 L 106,192 L 107,192 L 108,193 L 109,193 L 110,194 L 112,194 L 113,195 L 114,195 L 115,196 L 117,196 L 118,197 L 119,197 L 120,198 L 123,198 L 124,199 L 125,199 L 126,200 L 130,200 L 131,201 L 132,201 L 133,202 L 138,202 L 139,203 L 141,203 L 142,204 L 147,204 L 148,205 L 150,205 L 151,206 L 160,206 L 161,207 L 166,207 L 167,208 L 171,208 L 172,207 L 178,207 L 179,206 L 189,206 L 190,205 L 191,205 L 192,204 L 200,204 L 201,203 L 204,203 L 205,202 L 208,202 L 210,200 L 213,200 L 214,199 L 215,199 L 216,198 L 217,198 L 217,197 L 218,196 L 221,196 L 222,195 L 223,195 L 224,194 L 225,194 L 226,193 L 227,193 L 228,192 L 228,191 L 229,190 L 231,190 L 233,188 L 234,188 L 235,187 L 235,186 L 236,185 L 237,185 L 240,182 L 240,181 L 241,180 L 241,179 L 242,178 L 243,178 L 243,177 L 244,176 L 244,175 L 245,174 L 245,173 L 246,172 L 246,171 L 247,170 L 247,167 L 249,165 L 249,159 L 251,157 L 251,154 L 250,153 L 250,149 L 249,148 L 249,141 L 248,140 L 248,138 L 247,137 L 247,131 L 246,130 L 246,129 L 245,128 L 245,125 L 244,124 L 244,123 L 243,122 L 243,119 L 241,117 L 241,114 L 239,112 L 239,109 L 238,109 L 237,108 L 237,107 L 236,106 L 236,105 L 235,104 L 235,101 L 233,99 L 233,98 L 231,96 L 231,94 L 227,90 L 227,89 L 225,87 L 225,86 L 223,84 L 223,83 L 220,80 L 220,79 L 213,72 L 213,71 L 209,67 L 208,67 L 205,64 L 205,63 L 204,63 L 198,57 L 196,57 L 190,51 L 189,51 L 187,49 L 186,49 L 185,48 L 184,48 L 183,47 L 181,47 L 177,43 L 176,43 L 174,41 L 172,41 L 171,40 L 170,40 L 169,39 L 168,39 L 167,38 L 166,38 L 165,37 L 164,37 L 163,36 L 162,36 L 161,35 L 160,35 L 158,33 L 157,33 L 156,32 L 155,32 L 154,31 L 150,31 L 149,30 L 149,29 L 148,29 L 147,28 L 146,28 L 145,27 L 142,27 L 141,26 L 140,26 L 139,25 L 134,25 L 133,24 L 132,24 L 131,23 L 129,23 L 128,22 L 125,22 L 124,21 L 120,21 L 119,20 L 116,20 L 115,19 L 109,19 L 108,18 L 104,18 L 103,17 L 96,17 L 95,16 L 89,16 L 88,15 Z" fill="black" /><path d="M 0,0 L 0,218 L 260,218 L 260,0 Z" fill="none" stroke="black" stroke-width="1" /></svg>