<?xml version='1.0' encoding='utf-8'?>
<svg width="257" height="221" xmlns="http://www.w3.org/2000/svg" viewBox="0 0 257 221"><rect width="257" height="221" fill="white" /><path d="M 132,23 L 127,28 L 126,28 L 126,29 L 125,30 L 124,30 L 121,33 L 120,33 L 117,36 L 116,36 L 112,40 L 111,40 L 109,42 L 108,42 L 105,45 L 104,45 L 101,48 L 100,48 L 100,49 L 97,52 L 96,52 L 94,54 L 93,54 L 91,56 L 90,56 L 85,61 L 84,61 L 83,62 L 82,62 L 82,63 L 81,64 L 80,64 L 77,67 L 76,67 L 73,70 L 72,70 L 72,71 L 71,72 L 70,72 L 68,74 L 67,74 L 65,76 L 64,76 L 61,79 L 60,79 L 57,82 L 56,82 L 54,84 L 53,84 L 49,88 L 48,88 L 48,89 L 47,90 L 46,90 L 44,92 L 43,92 L 41,94 L 40,94 L 40,95 L 39,96 L 38,96 L 36,98 L 35,98 L 33,100 L 32,100 L 32,101 L 31,102 L 30,102 L 28,104 L 27,104 L 23,108 L 22,108 L 20,110 L 19,110 L 17,112 L 16,112 L 15,113 L 15,115 L 16,116 L 16,205 L 19,205 L 20,206 L 21,205 L 79,205 L 80,206 L 109,206 L 110,205 L 111,205 L 113,203 L 115,203 L 116,202 L 116,201 L 118,199 L 119,199 L 120,198 L 121,198 L 124,195 L 125,195 L 125,194 L 126,193 L 127,193 L 131,189 L 132,189 L 134,187 L 135,187 L 135,186 L 136,185 L 137,185 L 140,182 L 141,182 L 144,179 L 145,179 L 145,178 L 146,177 L 147,177 L 148,176 L 149,176 L 152,173 L 153,173 L 159,167 L 160,167 L 160,166 L 161,165 L 162,165 L 164,163 L 165,163 L 165,162 L 166,161 L 167,161 L 169,159 L 170,159 L 174,155 L 175,155 L 177,153 L 178,153 L 178,152 L 179,151 L 180,151 L 182,149 L 183,149 L 183,148 L 186,145 L 187,145 L 190,142 L 191,142 L 194,139 L 195,139 L 195,138 L 196,137 L 197,137 L 198,136 L 199,136 L 204,131 L 205,131 L 210,126 L 211,126 L 214,123 L 215,123 L 215,122 L 216,121 L 217,121 L 219,119 L 220,119 L 224,115 L 225,115 L 225,114 L 226,113 L 227,113 L 229,111 L 229,106 L 230,105 L 230,97 L 229,96 L 230,95 L 230,88 L 229,87 L 229,86 L 230,85 L 230,80 L 229,79 L 230,78 L 230,72 L 229,71 L 229,69 L 230,68 L 230,64 L 229,63 L 229,54 L 230,53 L 230,48 L 229,47 L 229,30 L 230,29 L 230,27 L 229,27 L 228,26 L 189,26 L 188,25 L 176,25 L 175,24 L 174,24 L 173,25 L 169,25 L 168,24 L 140,24 L 139,23 Z" fill="black" /><path d="M 0,0 L 0,220 L 256,220 L 256,0 Z" fill="none" stroke="black" stroke-width="1" /></svg>