<?xml version='1.0' encoding='utf-8'?>
<svg width="257" height="215" xmlns="http://www.w3.org/2000/svg" viewBox="0 0 257 215"><rect width="257" height="215" fill="white" /><path d="M 183,135 L 181,137 L 179,137 L 177,139 L 176,139 L 174,141 L 173,141 L 173,142 L 172,143 L 171,143 L 171,144 L 169,146 L 169,147 L 167,149 L 167,150 L 166,151 L 166,153 L 165,154 L 165,156 L 164,157 L 164,159 L 163,160 L 163,168 L 164,169 L 164,170 L 165,171 L 165,176 L 167,178 L 168,178 L 169,179 L 169,181 L 171,183 L 171,184 L 173,186 L 174,186 L 175,187 L 175,188 L 176,188 L 177,189 L 178,189 L 179,190 L 182,190 L 184,192 L 187,192 L 188,193 L 196,193 L 197,192 L 202,192 L 203,191 L 205,191 L 206,190 L 207,190 L 209,188 L 210,188 L 216,182 L 216,181 L 217,180 L 218,180 L 218,179 L 219,178 L 219,177 L 220,176 L 220,174 L 221,173 L 221,171 L 222,170 L 222,157 L 221,156 L 221,155 L 220,154 L 220,152 L 218,150 L 218,149 L 216,147 L 215,147 L 214,146 L 214,145 L 212,143 L 212,142 L 210,140 L 209,140 L 208,139 L 207,139 L 205,137 L 201,137 L 199,135 Z" fill="black" /><path d="M 68,32 L 67,33 L 21,33 L 21,34 L 20,35 L 26,41 L 26,42 L 27,43 L 27,44 L 28,45 L 28,46 L 29,47 L 29,48 L 30,48 L 31,49 L 31,50 L 32,51 L 32,52 L 33,53 L 33,54 L 34,55 L 34,56 L 36,58 L 36,59 L 38,61 L 38,62 L 39,63 L 39,64 L 40,65 L 40,66 L 41,67 L 41,68 L 44,71 L 44,72 L 45,73 L 45,74 L 46,74 L 47,75 L 47,77 L 49,79 L 49,80 L 50,81 L 50,82 L 51,83 L 51,84 L 52,84 L 53,85 L 53,86 L 55,88 L 57,88 L 58,87 L 58,86 L 60,84 L 60,83 L 61,82 L 62,82 L 62,80 L 64,78 L 64,77 L 66,75 L 66,74 L 68,72 L 68,69 L 70,67 L 70,66 L 74,62 L 74,61 L 75,60 L 75,59 L 76,58 L 76,57 L 78,55 L 78,53 L 79,52 L 79,51 L 82,48 L 82,47 L 83,46 L 83,45 L 84,44 L 84,43 L 86,41 L 86,39 L 90,35 L 90,32 L 85,32 L 84,33 L 78,33 L 77,32 L 73,32 L 72,33 L 69,33 Z" fill="black" /></svg>