<?xml version='1.0' encoding='utf-8'?>
<svg width="258" height="219" xmlns="http://www.w3.org/2000/svg" viewBox="0 0 258 219"><rect width="258" height="219" fill="white" /><path d="M 77,6 L 76,7 L 76,8 L 73,11 L 73,12 L 72,13 L 72,14 L 71,15 L 70,15 L 70,16 L 68,18 L 68,19 L 66,21 L 66,22 L 64,24 L 64,25 L 62,27 L 62,28 L 61,29 L 60,29 L 60,30 L 59,31 L 59,32 L 58,33 L 58,34 L 55,37 L 55,38 L 54,39 L 54,40 L 53,41 L 52,41 L 52,42 L 51,43 L 51,44 L 48,47 L 48,48 L 46,50 L 46,51 L 44,53 L 44,54 L 43,55 L 42,55 L 42,56 L 41,57 L 41,58 L 40,59 L 40,60 L 39,61 L 38,61 L 38,62 L 36,64 L 36,65 L 34,67 L 34,68 L 32,70 L 32,71 L 30,73 L 30,74 L 29,75 L 28,75 L 28,76 L 26,78 L 26,79 L 24,81 L 24,82 L 23,83 L 23,84 L 20,87 L 20,88 L 19,89 L 19,90 L 18,91 L 18,92 L 17,93 L 17,96 L 18,97 L 19,97 L 22,100 L 23,100 L 25,102 L 26,102 L 28,104 L 29,104 L 31,106 L 32,106 L 34,108 L 35,108 L 36,109 L 36,110 L 37,110 L 38,111 L 39,111 L 40,112 L 41,112 L 42,113 L 42,114 L 43,114 L 45,116 L 46,116 L 48,118 L 49,118 L 51,120 L 52,120 L 54,122 L 55,122 L 59,126 L 61,126 L 62,127 L 62,128 L 63,128 L 65,130 L 66,130 L 68,132 L 69,132 L 71,134 L 72,134 L 74,136 L 75,136 L 76,137 L 76,138 L 78,138 L 80,140 L 81,140 L 82,141 L 82,142 L 83,142 L 84,143 L 85,143 L 88,146 L 89,146 L 91,148 L 92,148 L 94,150 L 95,150 L 96,151 L 96,152 L 98,152 L 100,154 L 101,154 L 102,155 L 102,156 L 104,156 L 107,159 L 108,159 L 110,161 L 111,161 L 112,162 L 113,162 L 114,163 L 114,164 L 115,164 L 117,166 L 118,166 L 120,168 L 121,168 L 123,170 L 124,170 L 126,172 L 127,172 L 130,175 L 131,175 L 132,176 L 133,176 L 134,177 L 134,178 L 135,178 L 136,179 L 137,179 L 140,182 L 141,182 L 143,184 L 144,184 L 146,186 L 147,186 L 148,187 L 148,188 L 149,188 L 150,189 L 151,189 L 152,190 L 153,190 L 154,191 L 154,192 L 155,192 L 156,193 L 157,193 L 158,194 L 159,194 L 160,195 L 160,196 L 161,196 L 163,198 L 164,198 L 166,200 L 167,200 L 169,202 L 170,202 L 172,204 L 173,204 L 175,206 L 176,206 L 178,208 L 179,208 L 180,209 L 180,210 L 185,210 L 187,208 L 187,207 L 189,205 L 189,204 L 191,202 L 191,201 L 194,198 L 194,197 L 195,196 L 195,195 L 196,194 L 197,194 L 197,193 L 199,191 L 199,190 L 201,188 L 201,187 L 203,185 L 203,184 L 205,182 L 205,181 L 207,179 L 207,178 L 209,176 L 209,175 L 210,174 L 211,174 L 211,173 L 213,171 L 213,170 L 215,168 L 215,167 L 217,165 L 217,164 L 219,162 L 219,161 L 221,159 L 221,158 L 223,156 L 223,155 L 224,154 L 225,154 L 225,153 L 226,152 L 226,151 L 229,148 L 229,147 L 230,146 L 230,145 L 231,144 L 231,143 L 232,142 L 233,142 L 233,141 L 235,139 L 235,138 L 237,136 L 237,135 L 239,133 L 239,132 L 241,130 L 241,129 L 242,128 L 243,128 L 243,127 L 245,125 L 245,124 L 247,122 L 247,121 L 249,119 L 249,118 L 251,116 L 251,115 L 253,113 L 253,110 L 250,107 L 249,107 L 247,105 L 245,105 L 243,103 L 242,103 L 241,102 L 240,102 L 239,101 L 238,101 L 236,99 L 234,99 L 232,97 L 231,97 L 229,95 L 228,95 L 227,94 L 226,94 L 225,93 L 224,93 L 222,91 L 221,91 L 219,89 L 218,89 L 217,88 L 216,88 L 215,87 L 214,87 L 212,85 L 210,85 L 209,84 L 209,83 L 208,83 L 207,82 L 206,82 L 205,81 L 204,81 L 203,80 L 202,80 L 201,79 L 200,79 L 199,78 L 199,77 L 197,77 L 195,75 L 194,75 L 193,74 L 192,74 L 191,73 L 190,73 L 188,71 L 187,71 L 185,69 L 184,69 L 183,68 L 182,68 L 181,67 L 180,67 L 179,66 L 178,66 L 177,65 L 176,65 L 175,64 L 175,63 L 173,63 L 171,61 L 170,61 L 169,60 L 168,60 L 167,59 L 166,59 L 164,57 L 162,57 L 160,55 L 159,55 L 157,53 L 156,53 L 155,52 L 154,52 L 153,51 L 152,51 L 150,49 L 149,49 L 147,47 L 146,47 L 145,46 L 144,46 L 143,45 L 142,45 L 140,43 L 138,43 L 137,42 L 137,41 L 135,41 L 133,39 L 132,39 L 131,38 L 130,38 L 129,37 L 128,37 L 126,35 L 125,35 L 123,33 L 122,33 L 120,31 L 118,31 L 116,29 L 115,29 L 113,27 L 112,27 L 111,26 L 110,26 L 109,25 L 108,25 L 106,23 L 105,23 L 103,21 L 102,21 L 100,19 L 98,19 L 97,18 L 97,17 L 95,17 L 93,15 L 92,15 L 90,13 L 89,13 L 87,11 L 86,11 L 84,9 L 82,9 L 79,6 Z" fill="black" /><path d="M 0,0 L 0,218 L 257,218 L 257,0 Z" fill="none" stroke="black" stroke-width="1" /></svg>