<?xml version='1.0' encoding='utf-8'?>
<svg width="258" height="221" xmlns="http://www.w3.org/2000/svg" viewBox="0 0 258 221"><rect width="258" height="221" fill="white" /><path d="M 166,42 L 166,43 L 162,47 L 162,49 L 160,51 L 160,53 L 158,55 L 158,57 L 157,58 L 156,58 L 156,60 L 154,62 L 154,63 L 153,64 L 153,65 L 152,66 L 152,67 L 150,69 L 150,70 L 148,72 L 148,73 L 146,75 L 146,77 L 144,79 L 144,80 L 142,82 L 142,85 L 139,88 L 139,90 L 138,91 L 138,95 L 141,95 L 142,94 L 144,94 L 145,95 L 150,95 L 151,94 L 157,94 L 158,95 L 159,95 L 160,94 L 178,94 L 179,93 L 180,93 L 181,94 L 182,94 L 183,93 L 184,93 L 185,94 L 188,94 L 189,93 L 191,93 L 192,94 L 193,94 L 194,93 L 201,93 L 201,89 L 199,87 L 199,86 L 198,85 L 198,84 L 197,83 L 197,82 L 194,79 L 194,78 L 193,77 L 193,76 L 192,76 L 191,75 L 191,74 L 189,72 L 189,70 L 188,69 L 188,68 L 185,65 L 185,64 L 181,60 L 181,58 L 179,56 L 179,55 L 177,53 L 177,52 L 176,52 L 175,51 L 175,49 L 173,47 L 173,45 L 171,43 L 170,43 L 169,42 Z" fill="black" /><path d="M 79,3 L 78,4 L 72,4 L 71,5 L 70,5 L 69,6 L 66,6 L 63,9 L 62,9 L 59,12 L 58,12 L 58,13 L 55,16 L 55,17 L 54,18 L 54,19 L 53,20 L 53,21 L 52,22 L 52,26 L 51,27 L 51,28 L 50,29 L 50,38 L 51,39 L 51,40 L 52,41 L 52,43 L 53,44 L 53,45 L 54,46 L 54,47 L 55,47 L 56,48 L 56,49 L 62,55 L 63,55 L 64,56 L 65,56 L 68,59 L 69,59 L 70,60 L 73,60 L 74,61 L 86,61 L 87,60 L 89,60 L 90,59 L 92,59 L 93,58 L 95,58 L 98,55 L 99,55 L 105,49 L 105,48 L 106,47 L 106,45 L 107,44 L 107,42 L 108,41 L 108,39 L 109,38 L 109,28 L 108,27 L 108,23 L 107,22 L 107,20 L 106,19 L 106,18 L 103,15 L 103,14 L 101,12 L 100,12 L 99,11 L 99,10 L 98,10 L 96,8 L 95,8 L 93,6 L 91,6 L 90,5 L 89,5 L 88,4 L 82,4 L 81,3 Z" fill="black" /><path d="M 0,0 L 0,220 L 257,220 L 257,0 Z" fill="none" stroke="black" stroke-width="1" /></svg>