<?xml version='1.0' encoding='utf-8'?>
<svg width="258" height="213" xmlns="http://www.w3.org/2000/svg" viewBox="0 0 258 213"><rect width="258" height="213" fill="white" /><path d="M 100,52 L 98,54 L 94,54 L 92,56 L 91,56 L 89,58 L 88,58 L 88,59 L 87,60 L 86,60 L 86,61 L 85,62 L 84,62 L 82,64 L 82,65 L 81,66 L 81,67 L 80,68 L 80,69 L 79,70 L 79,71 L 78,72 L 78,75 L 77,76 L 77,78 L 76,79 L 76,85 L 77,86 L 77,88 L 78,89 L 78,92 L 80,94 L 80,97 L 84,101 L 84,102 L 86,104 L 86,105 L 88,105 L 90,107 L 91,107 L 92,108 L 93,108 L 94,109 L 95,109 L 96,110 L 97,110 L 98,111 L 104,111 L 105,112 L 108,112 L 109,113 L 110,112 L 113,112 L 114,111 L 119,111 L 122,108 L 124,108 L 127,105 L 128,105 L 132,101 L 132,100 L 135,97 L 135,95 L 136,94 L 136,93 L 137,92 L 137,75 L 136,74 L 136,72 L 135,71 L 135,70 L 134,70 L 133,69 L 133,67 L 131,65 L 131,64 L 125,58 L 124,58 L 122,56 L 120,56 L 119,55 L 118,55 L 117,54 L 114,54 L 113,53 L 112,53 L 111,52 Z" fill="black" /><path d="M 196,8 L 195,9 L 192,9 L 191,10 L 190,10 L 189,9 L 187,9 L 186,10 L 185,9 L 176,9 L 175,10 L 171,10 L 170,9 L 166,9 L 165,10 L 153,10 L 153,12 L 154,13 L 154,15 L 155,16 L 155,17 L 158,20 L 158,21 L 159,22 L 159,23 L 160,24 L 160,25 L 162,27 L 162,29 L 163,29 L 164,30 L 164,32 L 166,34 L 166,35 L 168,37 L 168,38 L 170,40 L 170,41 L 171,41 L 172,42 L 172,44 L 174,46 L 174,47 L 175,48 L 175,49 L 176,50 L 176,51 L 178,53 L 178,55 L 181,58 L 181,59 L 182,60 L 182,61 L 184,63 L 184,64 L 187,64 L 187,63 L 189,61 L 189,60 L 190,59 L 190,58 L 191,57 L 191,56 L 193,54 L 193,53 L 195,51 L 195,50 L 196,49 L 196,48 L 197,47 L 197,46 L 198,45 L 198,44 L 199,43 L 199,42 L 200,41 L 201,41 L 201,39 L 203,37 L 203,35 L 205,33 L 205,32 L 206,31 L 206,30 L 209,27 L 209,25 L 211,23 L 211,20 L 214,17 L 214,16 L 216,14 L 216,12 L 217,11 L 217,8 L 215,8 L 214,9 L 206,9 L 205,8 L 204,8 L 203,9 L 197,9 Z" fill="black" /><path d="M 0,0 L 0,212 L 257,212 L 257,0 Z" fill="none" stroke="black" stroke-width="1" /></svg>