<?xml version='1.0' encoding='utf-8'?>
<svg width="260" height="216" xmlns="http://www.w3.org/2000/svg" viewBox="0 0 260 216"><rect width="260" height="216" fill="white" /><path d="M 72,145 L 71,146 L 38,146 L 37,147 L 36,147 L 35,146 L 20,146 L 19,147 L 18,147 L 17,148 L 16,148 L 15,147 L 12,147 L 12,149 L 14,151 L 14,152 L 16,154 L 16,155 L 18,157 L 18,158 L 20,160 L 20,161 L 24,165 L 24,166 L 26,168 L 26,169 L 28,171 L 28,172 L 30,174 L 30,175 L 31,176 L 31,177 L 32,178 L 32,179 L 35,182 L 35,183 L 36,184 L 36,185 L 37,185 L 38,186 L 38,188 L 40,190 L 40,191 L 42,193 L 42,194 L 44,196 L 44,197 L 45,197 L 47,199 L 50,199 L 50,198 L 51,197 L 51,196 L 52,195 L 53,195 L 53,192 L 54,191 L 54,190 L 57,187 L 57,186 L 58,185 L 58,183 L 60,181 L 60,180 L 61,179 L 61,178 L 63,176 L 63,174 L 66,171 L 66,170 L 67,169 L 67,167 L 69,165 L 69,164 L 71,162 L 71,160 L 72,159 L 72,158 L 73,157 L 73,156 L 74,155 L 75,155 L 75,154 L 76,153 L 76,152 L 78,150 L 78,147 L 77,146 L 73,146 Z" fill="black" /><path d="M 208,65 L 207,66 L 203,66 L 202,67 L 201,67 L 200,68 L 198,68 L 194,72 L 193,72 L 192,73 L 192,74 L 190,76 L 190,78 L 189,79 L 188,79 L 187,80 L 186,80 L 186,81 L 185,82 L 185,83 L 184,84 L 184,87 L 183,88 L 183,91 L 182,92 L 182,102 L 184,104 L 184,107 L 185,108 L 185,109 L 187,111 L 187,112 L 188,113 L 189,113 L 190,114 L 190,115 L 194,119 L 195,119 L 196,120 L 196,121 L 198,121 L 199,122 L 200,122 L 201,123 L 202,123 L 204,125 L 218,125 L 219,124 L 220,124 L 221,123 L 224,123 L 226,121 L 227,121 L 228,120 L 229,120 L 232,117 L 233,117 L 235,115 L 235,114 L 236,113 L 237,113 L 237,112 L 238,111 L 238,110 L 239,109 L 239,108 L 240,107 L 240,106 L 241,105 L 241,99 L 242,98 L 242,91 L 241,90 L 241,86 L 240,85 L 240,84 L 239,83 L 239,82 L 238,81 L 238,80 L 235,77 L 235,75 L 233,73 L 232,73 L 231,72 L 230,72 L 229,71 L 228,71 L 227,70 L 226,70 L 225,69 L 225,68 L 224,68 L 222,66 L 218,66 L 217,65 L 214,65 L 213,66 L 209,66 Z" fill="black" /></svg>