<?xml version='1.0' encoding='utf-8'?>
<svg width="262" height="220" xmlns="http://www.w3.org/2000/svg" viewBox="0 0 262 220"><rect width="262" height="220" fill="white" /><path d="M 41,144 L 39,146 L 39,147 L 38,148 L 38,149 L 37,150 L 37,151 L 36,152 L 35,152 L 35,154 L 33,156 L 33,157 L 32,158 L 32,159 L 31,160 L 31,161 L 30,162 L 30,163 L 29,164 L 29,165 L 27,167 L 27,168 L 25,170 L 25,172 L 23,174 L 23,175 L 22,176 L 22,177 L 19,180 L 19,181 L 18,182 L 18,183 L 17,184 L 17,185 L 16,186 L 16,187 L 15,188 L 15,189 L 14,190 L 13,190 L 13,192 L 11,194 L 11,196 L 16,196 L 17,197 L 19,197 L 20,196 L 29,196 L 30,197 L 31,197 L 32,196 L 42,196 L 43,195 L 44,195 L 45,196 L 54,196 L 55,195 L 76,195 L 77,194 L 77,192 L 76,191 L 76,190 L 75,189 L 74,189 L 72,187 L 72,185 L 70,183 L 70,182 L 68,180 L 68,179 L 66,177 L 66,176 L 64,174 L 64,172 L 63,172 L 62,171 L 62,170 L 61,169 L 61,168 L 60,167 L 60,166 L 58,164 L 58,163 L 55,160 L 55,159 L 54,158 L 54,157 L 52,155 L 52,154 L 51,153 L 51,152 L 48,149 L 48,148 L 44,144 Z" fill="black" /><path d="M 122,52 L 121,53 L 120,53 L 119,54 L 117,54 L 116,55 L 115,55 L 114,56 L 113,56 L 112,57 L 111,57 L 105,63 L 105,64 L 103,66 L 103,67 L 102,68 L 102,71 L 101,72 L 101,73 L 99,75 L 99,87 L 100,88 L 100,89 L 101,90 L 101,93 L 102,94 L 102,95 L 103,96 L 103,97 L 105,99 L 106,99 L 109,102 L 109,103 L 110,103 L 111,104 L 111,105 L 112,105 L 114,107 L 117,107 L 118,108 L 120,108 L 121,109 L 124,109 L 125,110 L 136,110 L 137,109 L 139,109 L 140,108 L 141,108 L 142,107 L 144,107 L 144,106 L 145,105 L 146,105 L 147,104 L 148,104 L 151,101 L 152,101 L 152,99 L 154,97 L 154,96 L 156,94 L 156,92 L 157,91 L 157,90 L 158,89 L 158,82 L 159,81 L 159,78 L 158,77 L 158,72 L 156,70 L 156,68 L 153,65 L 153,64 L 152,63 L 152,62 L 149,59 L 147,59 L 146,58 L 146,57 L 145,56 L 144,56 L 143,55 L 142,55 L 141,54 L 139,54 L 138,53 L 135,53 L 134,52 Z" fill="black" /><path d="M 0,0 L 0,219 L 261,219 L 261,0 Z" fill="none" stroke="black" stroke-width="1" /></svg>