<?xml version='1.0' encoding='utf-8'?>
<svg width="258" height="212" xmlns="http://www.w3.org/2000/svg" viewBox="0 0 258 212"><rect width="258" height="212" fill="white" /><path d="M 48,151 L 47,152 L 42,152 L 40,154 L 37,154 L 35,156 L 33,156 L 31,158 L 30,158 L 30,159 L 29,160 L 28,160 L 28,161 L 26,163 L 26,165 L 25,166 L 24,166 L 24,167 L 23,168 L 23,169 L 22,170 L 22,172 L 21,173 L 21,174 L 20,175 L 20,182 L 21,183 L 21,185 L 22,186 L 22,188 L 23,189 L 23,192 L 22,193 L 26,197 L 26,199 L 28,201 L 29,201 L 31,203 L 33,203 L 34,204 L 34,205 L 36,207 L 39,207 L 40,208 L 41,208 L 42,209 L 47,209 L 48,210 L 56,210 L 57,209 L 61,209 L 62,208 L 63,208 L 64,207 L 65,207 L 65,206 L 66,205 L 67,205 L 73,199 L 73,198 L 74,197 L 75,197 L 75,195 L 76,194 L 76,193 L 77,192 L 77,191 L 79,189 L 79,184 L 80,183 L 80,179 L 79,178 L 79,172 L 78,171 L 78,170 L 77,169 L 77,168 L 76,167 L 76,166 L 75,165 L 75,164 L 74,163 L 74,162 L 71,159 L 70,159 L 68,157 L 67,157 L 65,155 L 64,155 L 63,154 L 61,154 L 60,153 L 59,153 L 58,152 L 50,152 L 49,151 Z" fill="black" /><path d="M 226,8 L 225,9 L 221,9 L 220,10 L 219,9 L 204,9 L 203,10 L 200,10 L 199,9 L 198,9 L 197,10 L 176,10 L 175,11 L 175,13 L 178,16 L 178,19 L 179,20 L 180,20 L 182,22 L 182,26 L 186,30 L 186,32 L 187,32 L 188,33 L 188,35 L 189,35 L 190,36 L 190,38 L 192,40 L 192,41 L 194,43 L 194,45 L 196,47 L 196,48 L 198,50 L 198,51 L 200,53 L 200,55 L 201,55 L 202,56 L 202,58 L 204,60 L 204,61 L 206,63 L 206,65 L 209,68 L 209,69 L 211,69 L 211,68 L 212,67 L 212,65 L 213,64 L 213,62 L 215,60 L 215,58 L 217,56 L 217,54 L 218,53 L 218,52 L 220,50 L 220,49 L 221,48 L 221,47 L 223,45 L 223,43 L 225,41 L 225,39 L 227,37 L 227,36 L 229,34 L 229,33 L 231,31 L 231,28 L 235,24 L 235,23 L 236,22 L 236,21 L 238,19 L 238,18 L 239,17 L 239,16 L 241,14 L 241,13 L 243,11 L 243,9 L 238,9 L 237,8 L 231,8 L 230,9 L 228,9 L 227,8 Z" fill="black" /></svg>