<?xml version='1.0' encoding='utf-8'?>
<svg width="257" height="222" xmlns="http://www.w3.org/2000/svg" viewBox="0 0 257 222"><rect width="257" height="222" fill="white" /><path d="M 55,156 L 54,157 L 51,157 L 50,158 L 47,158 L 46,159 L 46,160 L 44,162 L 42,162 L 40,164 L 39,164 L 39,165 L 38,166 L 38,167 L 35,170 L 35,171 L 33,173 L 33,175 L 32,176 L 32,177 L 31,178 L 32,179 L 32,180 L 31,181 L 31,191 L 33,193 L 33,199 L 34,199 L 35,200 L 35,201 L 37,203 L 37,204 L 39,206 L 39,207 L 40,207 L 44,211 L 46,211 L 47,212 L 47,213 L 54,213 L 56,215 L 63,215 L 64,214 L 66,214 L 67,213 L 72,213 L 72,212 L 73,211 L 74,211 L 75,210 L 76,210 L 77,209 L 78,209 L 86,201 L 86,199 L 88,197 L 88,194 L 89,193 L 89,190 L 90,189 L 90,181 L 89,180 L 89,177 L 88,176 L 88,172 L 80,164 L 79,164 L 78,163 L 78,162 L 77,162 L 75,160 L 74,160 L 72,158 L 68,158 L 67,157 L 64,157 L 63,156 L 61,156 L 60,157 L 59,157 L 58,156 Z" fill="black" /><path d="M 183,91 L 182,92 L 182,93 L 181,94 L 181,95 L 180,96 L 180,97 L 179,98 L 179,99 L 177,101 L 177,103 L 176,104 L 175,104 L 175,105 L 174,106 L 174,107 L 173,108 L 173,109 L 171,111 L 171,112 L 169,114 L 169,115 L 168,116 L 167,116 L 167,118 L 165,120 L 165,121 L 164,122 L 164,123 L 163,124 L 163,125 L 161,127 L 161,128 L 159,130 L 159,131 L 157,133 L 157,134 L 155,136 L 155,137 L 154,138 L 154,139 L 153,140 L 153,141 L 151,143 L 151,144 L 150,145 L 151,146 L 153,146 L 154,147 L 195,147 L 196,146 L 197,146 L 198,147 L 216,147 L 217,146 L 216,145 L 216,144 L 215,143 L 215,142 L 214,141 L 214,140 L 213,139 L 213,138 L 212,137 L 212,136 L 211,135 L 211,134 L 210,133 L 210,132 L 208,130 L 208,129 L 206,127 L 206,126 L 205,125 L 205,124 L 204,123 L 204,122 L 203,121 L 203,120 L 202,119 L 202,118 L 200,116 L 200,115 L 198,113 L 198,112 L 197,111 L 197,110 L 196,109 L 196,108 L 195,107 L 195,106 L 194,105 L 194,104 L 192,102 L 192,101 L 190,99 L 190,98 L 188,96 L 188,95 L 185,92 L 185,91 Z" fill="black" /></svg>