<?xml version='1.0' encoding='utf-8'?>
<svg width="258" height="217" xmlns="http://www.w3.org/2000/svg" viewBox="0 0 258 217"><rect width="258" height="217" fill="white" /><path d="M 214,127 L 213,128 L 195,128 L 194,129 L 188,129 L 187,128 L 186,128 L 185,129 L 172,129 L 172,134 L 174,136 L 174,137 L 176,139 L 176,140 L 178,142 L 178,143 L 180,145 L 180,147 L 182,149 L 182,150 L 186,154 L 186,156 L 187,156 L 188,157 L 188,159 L 190,161 L 190,162 L 192,164 L 192,165 L 194,167 L 194,168 L 197,171 L 197,172 L 198,173 L 198,174 L 199,174 L 200,175 L 200,176 L 201,177 L 201,178 L 204,181 L 204,182 L 205,183 L 206,183 L 207,184 L 208,184 L 211,181 L 211,178 L 213,176 L 213,174 L 215,172 L 215,170 L 217,168 L 217,167 L 218,166 L 218,165 L 221,162 L 221,161 L 222,160 L 222,159 L 223,158 L 223,157 L 224,156 L 224,155 L 225,154 L 225,153 L 227,151 L 227,149 L 229,147 L 229,146 L 230,145 L 230,143 L 233,140 L 233,138 L 235,136 L 235,135 L 236,134 L 236,133 L 237,132 L 237,131 L 238,130 L 239,130 L 240,129 L 240,128 L 239,127 Z" fill="black" /><path d="M 45,13 L 44,14 L 42,14 L 41,15 L 39,15 L 37,17 L 36,17 L 36,18 L 35,19 L 33,19 L 30,22 L 30,23 L 26,27 L 26,28 L 25,29 L 25,30 L 24,31 L 24,33 L 23,34 L 23,40 L 22,41 L 22,45 L 23,46 L 23,48 L 24,49 L 24,51 L 25,51 L 27,53 L 27,54 L 26,55 L 28,57 L 28,59 L 30,61 L 31,61 L 36,66 L 37,66 L 39,68 L 42,68 L 44,70 L 49,70 L 50,71 L 56,71 L 57,70 L 61,70 L 62,69 L 63,69 L 64,68 L 66,68 L 67,67 L 67,65 L 68,64 L 69,64 L 70,65 L 72,65 L 75,62 L 75,61 L 78,58 L 78,57 L 79,56 L 79,54 L 81,52 L 81,51 L 82,50 L 82,47 L 83,46 L 83,39 L 82,38 L 82,35 L 81,34 L 81,31 L 80,30 L 80,29 L 79,28 L 79,27 L 78,27 L 77,26 L 77,24 L 72,19 L 71,19 L 69,17 L 67,17 L 66,16 L 65,16 L 64,15 L 62,15 L 61,14 L 60,14 L 59,13 Z" fill="black" /><path d="M 0,0 L 0,216 L 257,216 L 257,0 Z" fill="none" stroke="black" stroke-width="1" /></svg>