<?xml version='1.0' encoding='utf-8'?>
<svg width="260" height="211" xmlns="http://www.w3.org/2000/svg" viewBox="0 0 260 211"><rect width="260" height="211" fill="white" /><path d="M 99,145 L 98,146 L 97,146 L 95,148 L 95,150 L 94,151 L 94,152 L 93,153 L 93,155 L 92,156 L 92,157 L 91,158 L 91,160 L 89,162 L 89,165 L 88,166 L 88,167 L 87,168 L 87,170 L 86,171 L 86,172 L 84,174 L 84,175 L 83,176 L 83,179 L 81,181 L 81,183 L 80,184 L 80,185 L 79,186 L 79,188 L 77,190 L 77,191 L 76,192 L 77,193 L 123,193 L 124,194 L 126,194 L 127,193 L 130,193 L 130,191 L 128,189 L 128,187 L 126,185 L 126,184 L 124,182 L 124,180 L 121,177 L 121,176 L 120,175 L 120,174 L 119,174 L 118,173 L 118,172 L 116,170 L 116,168 L 115,168 L 114,167 L 114,165 L 112,163 L 112,162 L 109,159 L 109,158 L 108,157 L 108,156 L 107,155 L 107,154 L 104,151 L 104,150 L 103,149 L 103,148 L 102,147 L 102,146 L 101,145 Z" fill="black" /><path d="M 175,68 L 173,70 L 169,70 L 167,72 L 166,72 L 156,82 L 156,83 L 155,84 L 155,85 L 154,86 L 154,87 L 153,88 L 153,90 L 152,91 L 152,101 L 153,102 L 153,105 L 154,106 L 154,107 L 155,108 L 155,109 L 157,111 L 157,113 L 159,115 L 160,115 L 161,116 L 161,117 L 162,117 L 163,118 L 163,119 L 164,119 L 166,121 L 168,121 L 169,122 L 170,122 L 171,123 L 173,123 L 174,124 L 176,124 L 177,125 L 186,125 L 187,124 L 188,124 L 189,123 L 192,123 L 193,122 L 195,122 L 196,121 L 197,121 L 199,119 L 200,119 L 204,115 L 204,114 L 205,113 L 205,112 L 207,110 L 207,108 L 208,107 L 208,106 L 209,105 L 209,104 L 210,103 L 210,89 L 209,88 L 209,86 L 208,85 L 208,84 L 206,82 L 206,81 L 204,79 L 204,78 L 200,74 L 199,74 L 198,73 L 198,72 L 197,72 L 196,71 L 195,71 L 194,70 L 190,70 L 189,69 L 187,69 L 186,68 Z" fill="black" /><path d="M 51,28 L 50,29 L 47,29 L 46,30 L 45,30 L 44,31 L 44,37 L 43,38 L 43,45 L 44,46 L 44,48 L 43,49 L 44,50 L 44,51 L 45,52 L 45,53 L 44,54 L 44,57 L 45,58 L 45,63 L 52,63 L 53,64 L 54,64 L 55,63 L 66,63 L 67,64 L 79,64 L 81,62 L 81,58 L 80,57 L 80,56 L 81,55 L 81,53 L 80,52 L 80,47 L 81,46 L 81,42 L 80,41 L 80,37 L 81,36 L 80,35 L 80,31 L 79,30 L 79,29 L 77,29 L 76,30 L 75,30 L 74,29 L 60,29 L 59,28 Z" fill="black" /></svg>