<?xml version='1.0' encoding='utf-8'?>
<svg width="253" height="211" xmlns="http://www.w3.org/2000/svg" viewBox="0 0 253 211"><rect width="253" height="211" fill="white" /><path d="M 176,153 L 175,154 L 169,154 L 169,155 L 168,156 L 168,157 L 169,158 L 169,159 L 168,160 L 168,161 L 169,162 L 169,163 L 168,164 L 168,168 L 169,169 L 169,187 L 170,188 L 207,188 L 208,187 L 208,180 L 207,179 L 207,172 L 208,171 L 208,168 L 207,167 L 207,163 L 208,162 L 208,155 L 205,155 L 204,154 L 177,154 Z" fill="black" /><path d="M 89,92 L 89,93 L 88,94 L 88,95 L 87,96 L 87,97 L 85,99 L 85,100 L 83,102 L 83,104 L 81,106 L 81,107 L 80,108 L 80,109 L 79,110 L 79,111 L 78,112 L 78,113 L 76,115 L 76,116 L 73,119 L 73,121 L 72,122 L 71,122 L 71,125 L 70,126 L 69,126 L 69,127 L 66,130 L 68,132 L 72,132 L 73,133 L 74,132 L 77,132 L 78,133 L 84,133 L 85,132 L 86,132 L 87,133 L 88,133 L 89,132 L 97,132 L 98,133 L 104,133 L 105,132 L 106,133 L 116,133 L 116,128 L 115,128 L 114,127 L 114,125 L 112,123 L 112,122 L 111,122 L 110,121 L 110,120 L 109,119 L 109,118 L 108,117 L 108,116 L 107,115 L 107,114 L 104,111 L 104,108 L 101,105 L 101,104 L 100,103 L 100,101 L 96,97 L 96,96 L 94,94 L 93,94 L 91,92 Z" fill="black" /><path d="M 189,14 L 188,15 L 186,15 L 185,16 L 184,16 L 183,17 L 182,17 L 181,18 L 179,18 L 175,22 L 175,23 L 170,28 L 170,29 L 169,30 L 169,33 L 167,35 L 167,41 L 166,42 L 166,45 L 167,46 L 167,51 L 169,53 L 169,55 L 170,56 L 170,57 L 171,58 L 171,60 L 173,62 L 173,63 L 174,63 L 176,65 L 177,65 L 179,67 L 180,67 L 181,68 L 182,68 L 183,69 L 186,69 L 188,71 L 200,71 L 201,70 L 203,70 L 204,69 L 208,69 L 209,68 L 210,68 L 211,67 L 212,67 L 216,63 L 216,62 L 222,56 L 222,53 L 223,52 L 223,50 L 224,49 L 224,38 L 223,37 L 223,36 L 222,35 L 222,32 L 221,31 L 221,30 L 218,27 L 218,26 L 216,24 L 216,23 L 214,21 L 213,21 L 212,20 L 211,20 L 210,19 L 210,18 L 209,18 L 207,16 L 204,16 L 203,15 L 202,15 L 201,14 Z" fill="black" /></svg>