<?xml version='1.0' encoding='utf-8'?>
<svg width="253" height="216" xmlns="http://www.w3.org/2000/svg" viewBox="0 0 253 216"><rect width="253" height="216" fill="white" /><path d="M 55,50 L 54,51 L 54,52 L 52,54 L 52,55 L 51,56 L 51,57 L 50,58 L 50,59 L 49,60 L 48,60 L 48,62 L 46,64 L 46,65 L 45,66 L 45,67 L 44,68 L 44,69 L 42,71 L 42,72 L 40,74 L 40,76 L 38,78 L 38,79 L 36,81 L 36,82 L 34,84 L 34,85 L 32,87 L 32,88 L 31,89 L 32,90 L 36,90 L 37,91 L 53,91 L 54,90 L 55,90 L 56,91 L 60,91 L 61,90 L 70,90 L 71,91 L 74,91 L 75,90 L 76,91 L 79,91 L 81,89 L 83,89 L 83,87 L 82,87 L 81,86 L 81,84 L 80,84 L 79,83 L 79,82 L 78,81 L 78,80 L 77,79 L 77,78 L 76,77 L 76,76 L 75,75 L 75,74 L 74,74 L 73,73 L 73,72 L 71,70 L 71,69 L 70,68 L 70,67 L 69,66 L 69,65 L 67,63 L 67,61 L 63,57 L 63,54 L 61,52 L 61,51 L 60,50 Z" fill="black" /><path d="M 112,18 L 111,19 L 109,19 L 108,20 L 108,21 L 107,22 L 107,27 L 108,28 L 108,36 L 107,37 L 107,39 L 106,40 L 107,41 L 107,44 L 106,45 L 106,46 L 107,47 L 107,51 L 109,53 L 111,53 L 112,52 L 116,52 L 117,53 L 119,53 L 120,52 L 126,52 L 127,53 L 140,53 L 141,52 L 145,52 L 145,43 L 144,42 L 144,41 L 145,40 L 143,38 L 143,33 L 144,32 L 144,26 L 143,25 L 143,23 L 144,22 L 144,19 L 143,18 Z" fill="black" /><path d="M 202,9 L 201,10 L 198,10 L 197,11 L 196,11 L 195,12 L 194,12 L 193,13 L 192,13 L 191,14 L 190,14 L 184,20 L 184,21 L 182,23 L 182,24 L 180,26 L 180,29 L 179,30 L 179,32 L 178,33 L 178,45 L 179,45 L 180,46 L 180,48 L 181,49 L 181,51 L 182,52 L 182,53 L 190,61 L 191,61 L 192,62 L 193,62 L 194,63 L 195,63 L 197,65 L 204,65 L 206,67 L 207,67 L 208,66 L 209,66 L 210,65 L 217,65 L 217,64 L 218,63 L 220,63 L 221,62 L 223,62 L 228,57 L 229,57 L 229,54 L 233,50 L 233,48 L 234,47 L 234,45 L 235,44 L 235,34 L 234,33 L 234,32 L 233,31 L 233,27 L 231,25 L 231,23 L 230,22 L 230,21 L 229,20 L 228,20 L 227,19 L 227,18 L 223,14 L 222,14 L 219,11 L 216,11 L 215,10 L 210,10 L 209,9 Z" fill="black" /></svg>