<?xml version='1.0' encoding='utf-8'?>
<svg width="259" height="217" xmlns="http://www.w3.org/2000/svg" viewBox="0 0 259 217"><rect width="259" height="217" fill="white" /><path d="M 150,130 L 149,131 L 145,131 L 144,132 L 139,132 L 137,134 L 136,134 L 135,135 L 134,135 L 133,136 L 132,136 L 132,137 L 131,138 L 130,138 L 128,140 L 128,141 L 127,142 L 126,142 L 126,143 L 125,144 L 125,145 L 124,146 L 124,147 L 123,148 L 123,149 L 122,150 L 122,155 L 121,156 L 121,163 L 122,164 L 122,169 L 123,169 L 124,170 L 124,173 L 126,175 L 126,176 L 128,178 L 128,179 L 129,179 L 130,180 L 130,181 L 132,183 L 134,183 L 136,185 L 138,185 L 139,186 L 140,186 L 141,187 L 146,187 L 147,188 L 157,188 L 158,187 L 161,187 L 162,186 L 163,186 L 164,185 L 165,185 L 167,183 L 169,183 L 171,181 L 171,180 L 174,177 L 175,177 L 175,175 L 177,173 L 177,170 L 178,169 L 178,166 L 179,165 L 179,160 L 180,159 L 180,154 L 179,153 L 179,150 L 178,149 L 178,148 L 177,147 L 177,145 L 175,143 L 175,142 L 173,140 L 173,139 L 172,139 L 171,138 L 171,137 L 170,136 L 169,136 L 167,134 L 166,134 L 165,133 L 164,133 L 163,132 L 159,132 L 158,131 L 156,131 L 155,130 Z" fill="black" /><path d="M 65,57 L 62,60 L 62,62 L 60,64 L 60,67 L 59,68 L 58,68 L 58,69 L 56,71 L 56,72 L 54,74 L 54,75 L 52,77 L 52,79 L 49,82 L 48,82 L 48,83 L 46,85 L 46,87 L 44,89 L 44,91 L 43,92 L 42,92 L 42,93 L 41,94 L 41,95 L 40,96 L 40,97 L 39,98 L 40,99 L 65,99 L 66,100 L 67,100 L 68,99 L 71,99 L 72,100 L 79,100 L 80,99 L 81,99 L 82,100 L 85,100 L 86,101 L 91,101 L 92,100 L 93,100 L 93,97 L 91,95 L 91,94 L 89,92 L 89,91 L 87,89 L 87,88 L 85,86 L 85,85 L 84,84 L 84,83 L 82,81 L 82,80 L 81,79 L 81,78 L 80,78 L 79,77 L 79,76 L 77,74 L 77,73 L 75,71 L 75,70 L 74,69 L 74,68 L 73,67 L 73,66 L 71,64 L 71,63 L 69,61 L 69,59 L 68,58 L 68,57 Z" fill="black" /><path d="M 172,40 L 171,41 L 170,41 L 169,42 L 169,45 L 170,46 L 170,68 L 169,69 L 169,71 L 170,71 L 171,72 L 180,72 L 181,73 L 183,73 L 184,72 L 191,72 L 192,73 L 202,73 L 203,72 L 204,72 L 205,71 L 205,40 Z" fill="black" /></svg>