<?xml version='1.0' encoding='utf-8'?>
<svg width="261" height="216" xmlns="http://www.w3.org/2000/svg" viewBox="0 0 261 216"><rect width="261" height="216" fill="white" /><path d="M 206,117 L 205,118 L 205,119 L 204,120 L 204,121 L 203,122 L 203,123 L 202,124 L 201,124 L 201,126 L 199,128 L 199,131 L 197,133 L 197,134 L 195,136 L 195,137 L 194,138 L 194,139 L 193,140 L 193,142 L 191,144 L 191,147 L 190,148 L 190,149 L 187,152 L 187,153 L 186,154 L 186,155 L 185,156 L 185,157 L 183,159 L 183,166 L 188,166 L 189,167 L 190,167 L 191,166 L 208,166 L 209,165 L 210,165 L 211,166 L 212,166 L 213,165 L 232,165 L 233,164 L 238,164 L 238,161 L 234,157 L 234,156 L 233,155 L 233,154 L 230,151 L 230,150 L 229,149 L 229,148 L 228,147 L 228,146 L 225,143 L 225,142 L 224,141 L 224,140 L 223,140 L 222,139 L 222,138 L 220,136 L 220,134 L 219,134 L 216,131 L 216,129 L 214,127 L 214,126 L 213,125 L 213,124 L 208,119 L 208,117 Z" fill="black" /><path d="M 123,89 L 122,90 L 113,90 L 112,91 L 108,91 L 108,99 L 109,100 L 108,101 L 108,105 L 109,106 L 109,122 L 111,122 L 112,123 L 136,123 L 137,122 L 145,122 L 146,121 L 146,104 L 145,103 L 145,91 L 144,90 L 142,90 L 141,89 L 139,89 L 138,90 L 133,90 L 132,89 Z" fill="black" /><path d="M 37,65 L 36,66 L 33,66 L 32,67 L 31,67 L 30,68 L 29,68 L 27,70 L 26,70 L 19,77 L 19,79 L 17,81 L 17,83 L 16,84 L 16,85 L 15,86 L 15,89 L 14,90 L 14,99 L 15,100 L 15,103 L 17,105 L 17,107 L 18,108 L 18,109 L 19,110 L 19,111 L 25,117 L 26,117 L 27,118 L 27,119 L 28,119 L 30,121 L 33,121 L 34,122 L 35,122 L 36,123 L 50,123 L 51,122 L 52,122 L 53,121 L 55,121 L 57,119 L 58,119 L 59,118 L 60,118 L 61,117 L 62,117 L 62,116 L 63,115 L 64,115 L 64,114 L 65,113 L 66,113 L 66,112 L 67,111 L 67,110 L 68,109 L 68,108 L 70,106 L 70,104 L 71,103 L 71,102 L 72,101 L 72,88 L 71,87 L 71,86 L 70,85 L 70,82 L 69,81 L 69,80 L 66,77 L 66,76 L 60,70 L 59,70 L 57,68 L 55,68 L 54,67 L 53,67 L 52,66 L 47,66 L 46,65 Z" fill="black" /></svg>