<?xml version='1.0' encoding='utf-8'?>
<svg width="260" height="215" xmlns="http://www.w3.org/2000/svg" viewBox="0 0 260 215"><rect width="260" height="215" fill="white" /><path d="M 189,158 L 188,159 L 177,159 L 174,162 L 173,162 L 172,163 L 170,163 L 168,165 L 167,165 L 165,167 L 165,168 L 162,171 L 162,172 L 161,173 L 161,175 L 160,176 L 160,178 L 159,179 L 159,181 L 158,182 L 158,194 L 159,195 L 159,196 L 160,197 L 160,199 L 161,200 L 161,202 L 163,204 L 163,205 L 170,212 L 172,212 L 173,213 L 174,213 L 175,214 L 196,214 L 197,213 L 198,213 L 199,212 L 200,212 L 202,210 L 204,210 L 204,209 L 205,208 L 206,208 L 208,206 L 208,205 L 209,204 L 210,204 L 212,202 L 212,200 L 214,198 L 214,197 L 213,196 L 213,194 L 215,192 L 215,191 L 216,190 L 216,189 L 215,188 L 215,182 L 214,181 L 214,175 L 212,173 L 212,172 L 210,170 L 210,169 L 209,169 L 208,168 L 208,167 L 206,165 L 205,165 L 204,164 L 204,163 L 203,163 L 202,162 L 201,162 L 200,161 L 199,161 L 197,159 L 191,159 L 190,158 Z" fill="black" /><path d="M 86,130 L 85,131 L 57,131 L 57,134 L 56,135 L 56,136 L 57,137 L 57,165 L 62,165 L 63,164 L 64,165 L 69,165 L 70,164 L 74,164 L 75,165 L 90,165 L 91,164 L 92,164 L 92,131 L 91,131 L 90,130 Z" fill="black" /><path d="M 200,82 L 199,83 L 199,85 L 197,87 L 197,88 L 195,90 L 195,92 L 194,93 L 193,93 L 193,94 L 192,95 L 192,96 L 191,97 L 191,99 L 189,101 L 189,102 L 187,104 L 187,106 L 185,108 L 185,109 L 183,111 L 183,112 L 182,113 L 182,114 L 181,115 L 181,116 L 180,117 L 180,118 L 179,119 L 179,120 L 177,122 L 177,124 L 174,127 L 174,130 L 228,130 L 229,129 L 229,127 L 228,126 L 228,125 L 226,123 L 226,122 L 224,120 L 224,119 L 223,118 L 223,117 L 220,114 L 220,113 L 218,111 L 218,109 L 214,105 L 214,104 L 212,102 L 212,99 L 211,99 L 210,98 L 210,96 L 208,94 L 208,93 L 207,92 L 207,91 L 206,90 L 206,89 L 205,88 L 205,87 L 202,84 L 202,82 Z" fill="black" /><path d="M 0,0 L 0,214 L 174,214 L 173,214 L 172,213 L 170,213 L 162,205 L 162,204 L 160,202 L 160,200 L 159,199 L 159,197 L 158,196 L 158,195 L 157,194 L 157,182 L 158,181 L 158,179 L 159,178 L 159,176 L 160,175 L 160,173 L 161,172 L 161,171 L 164,168 L 164,167 L 167,164 L 168,164 L 170,162 L 172,162 L 173,161 L 174,161 L 177,158 L 188,158 L 189,157 L 190,157 L 191,158 L 197,158 L 199,160 L 200,160 L 201,161 L 202,161 L 203,162 L 204,162 L 205,163 L 205,164 L 206,164 L 209,167 L 209,168 L 210,168 L 211,169 L 211,170 L 213,172 L 213,173 L 215,175 L 215,181 L 216,182 L 216,188 L 217,189 L 217,190 L 216,191 L 216,192 L 214,194 L 214,196 L 215,197 L 215,198 L 213,200 L 213,202 L 210,205 L 209,205 L 209,206 L 206,209 L 205,209 L 205,210 L 204,211 L 202,211 L 200,213 L 199,213 L 198,214 L 197,214 L 259,214 L 259,0 Z" fill="none" stroke="black" stroke-width="1" /></svg>