<?xml version='1.0' encoding='utf-8'?>
<svg width="262" height="215" xmlns="http://www.w3.org/2000/svg" viewBox="0 0 262 215"><rect width="262" height="215" fill="white" /><path d="M 119,143 L 118,144 L 114,144 L 113,145 L 112,145 L 111,146 L 109,146 L 107,148 L 106,148 L 104,150 L 103,150 L 97,156 L 97,157 L 96,158 L 96,159 L 95,160 L 95,161 L 93,163 L 93,169 L 92,170 L 92,171 L 93,172 L 93,179 L 94,180 L 94,183 L 95,184 L 95,185 L 96,186 L 96,187 L 97,188 L 97,189 L 100,192 L 100,193 L 102,195 L 104,195 L 105,196 L 105,197 L 107,197 L 108,198 L 110,198 L 111,199 L 112,199 L 113,200 L 116,200 L 117,201 L 119,201 L 120,200 L 121,201 L 129,201 L 131,199 L 132,199 L 133,198 L 135,198 L 136,197 L 137,197 L 139,195 L 140,195 L 142,193 L 142,192 L 143,191 L 144,191 L 144,190 L 145,189 L 145,188 L 148,185 L 148,183 L 149,182 L 149,181 L 150,180 L 150,165 L 148,163 L 148,160 L 146,158 L 146,156 L 144,154 L 143,154 L 142,153 L 142,152 L 140,150 L 139,150 L 135,146 L 131,146 L 130,145 L 128,145 L 127,144 L 121,144 L 120,143 Z" fill="black" /><path d="M 171,100 L 171,108 L 172,109 L 172,117 L 171,118 L 171,123 L 172,124 L 172,126 L 171,127 L 171,131 L 172,132 L 177,132 L 178,131 L 179,132 L 207,132 L 208,131 L 208,116 L 207,115 L 207,114 L 208,113 L 208,101 L 207,100 Z" fill="black" /><path d="M 85,32 L 83,34 L 83,36 L 81,38 L 81,40 L 79,42 L 79,44 L 77,46 L 77,47 L 75,49 L 75,50 L 73,52 L 73,54 L 71,56 L 71,57 L 69,59 L 69,60 L 67,62 L 67,64 L 65,66 L 65,69 L 63,71 L 63,77 L 90,77 L 91,78 L 115,78 L 115,76 L 114,75 L 114,74 L 113,73 L 113,72 L 108,67 L 108,65 L 106,63 L 106,62 L 102,58 L 102,56 L 100,54 L 100,53 L 99,52 L 99,51 L 98,50 L 98,49 L 94,45 L 94,44 L 93,43 L 93,42 L 92,41 L 92,40 L 91,39 L 91,38 L 90,37 L 90,36 L 89,36 L 88,35 L 88,34 L 87,33 L 87,32 Z" fill="black" /></svg>