<?xml version='1.0' encoding='utf-8'?>
<svg width="260" height="216" xmlns="http://www.w3.org/2000/svg" viewBox="0 0 260 216"><rect width="260" height="216" fill="white" /><path d="M 168,161 L 166,163 L 166,167 L 165,168 L 164,168 L 164,170 L 163,171 L 162,171 L 162,173 L 160,175 L 160,178 L 158,180 L 158,181 L 156,183 L 156,184 L 154,186 L 154,188 L 152,190 L 152,191 L 150,193 L 150,195 L 148,197 L 148,198 L 146,200 L 146,202 L 144,204 L 144,208 L 194,208 L 195,207 L 196,207 L 197,206 L 197,202 L 195,200 L 195,198 L 193,196 L 193,195 L 190,192 L 190,191 L 189,190 L 189,187 L 188,187 L 187,186 L 187,185 L 186,184 L 186,183 L 185,182 L 185,181 L 183,179 L 183,177 L 182,177 L 181,176 L 181,175 L 179,173 L 179,172 L 175,168 L 175,166 L 173,164 L 173,163 L 171,161 Z" fill="black" /><path d="M 74,139 L 73,140 L 71,140 L 70,141 L 66,141 L 65,140 L 62,140 L 61,141 L 58,141 L 57,140 L 54,140 L 53,141 L 46,141 L 46,155 L 47,156 L 47,166 L 48,167 L 48,168 L 47,169 L 47,171 L 48,172 L 81,172 L 84,169 L 84,168 L 85,167 L 85,165 L 84,164 L 84,161 L 83,160 L 83,159 L 84,158 L 84,142 L 83,141 L 80,141 L 79,140 L 75,140 Z" fill="black" /><path d="M 205,97 L 204,98 L 203,98 L 202,99 L 200,99 L 199,100 L 198,100 L 197,101 L 196,101 L 194,103 L 193,103 L 188,108 L 188,109 L 187,110 L 187,111 L 186,112 L 186,113 L 184,115 L 184,117 L 182,119 L 182,129 L 183,130 L 183,132 L 184,133 L 184,136 L 185,136 L 186,137 L 186,139 L 188,141 L 188,144 L 189,144 L 193,148 L 194,148 L 198,152 L 201,152 L 202,153 L 203,153 L 204,154 L 205,153 L 206,153 L 207,154 L 218,154 L 219,153 L 220,153 L 221,152 L 223,152 L 224,151 L 225,151 L 226,150 L 227,150 L 227,149 L 228,148 L 230,148 L 231,147 L 231,146 L 232,145 L 233,145 L 235,143 L 235,141 L 237,139 L 237,137 L 238,136 L 238,133 L 239,132 L 239,131 L 240,130 L 240,120 L 239,119 L 239,116 L 237,114 L 237,111 L 235,109 L 235,108 L 233,106 L 233,105 L 231,103 L 230,103 L 229,102 L 228,102 L 227,101 L 226,101 L 225,100 L 224,100 L 223,99 L 222,99 L 221,98 L 220,98 L 219,97 Z" fill="black" /></svg>