<?xml version='1.0' encoding='utf-8'?>
<svg width="259" height="221" xmlns="http://www.w3.org/2000/svg" viewBox="0 0 259 221"><rect width="259" height="221" fill="white" /><path d="M 127,2 L 127,5 L 123,9 L 123,11 L 122,12 L 122,13 L 121,14 L 121,16 L 117,20 L 117,21 L 116,22 L 116,23 L 115,24 L 115,26 L 113,28 L 113,30 L 111,32 L 111,33 L 109,35 L 109,36 L 107,38 L 107,39 L 105,41 L 105,43 L 104,44 L 104,45 L 103,46 L 103,47 L 101,49 L 101,51 L 99,53 L 99,55 L 98,56 L 97,56 L 97,57 L 96,58 L 96,59 L 95,60 L 95,61 L 93,63 L 93,64 L 91,66 L 91,67 L 89,69 L 89,71 L 88,72 L 88,73 L 87,74 L 87,75 L 86,76 L 86,77 L 85,78 L 85,79 L 83,81 L 83,82 L 81,84 L 81,85 L 80,86 L 80,87 L 79,88 L 79,89 L 76,92 L 76,93 L 75,94 L 75,97 L 74,98 L 73,98 L 73,100 L 71,102 L 71,103 L 70,104 L 70,105 L 69,106 L 69,107 L 68,108 L 68,109 L 67,110 L 67,111 L 65,113 L 65,114 L 61,118 L 61,120 L 59,122 L 59,123 L 57,125 L 57,127 L 55,129 L 55,130 L 53,132 L 53,133 L 52,134 L 52,135 L 51,136 L 51,137 L 50,138 L 49,138 L 49,141 L 48,142 L 47,142 L 47,144 L 45,146 L 45,147 L 44,148 L 44,149 L 43,150 L 43,151 L 41,153 L 41,154 L 39,156 L 39,157 L 38,158 L 38,159 L 37,160 L 37,161 L 35,163 L 35,165 L 33,167 L 33,168 L 31,170 L 31,172 L 29,174 L 29,175 L 28,176 L 28,177 L 25,180 L 25,183 L 24,184 L 24,187 L 26,187 L 27,186 L 33,186 L 34,185 L 48,185 L 49,184 L 55,184 L 56,183 L 72,183 L 72,182 L 73,181 L 74,181 L 75,182 L 78,182 L 79,181 L 88,181 L 89,180 L 96,180 L 97,179 L 110,179 L 111,178 L 116,178 L 117,177 L 132,177 L 133,176 L 135,176 L 136,175 L 137,175 L 138,176 L 139,176 L 140,175 L 152,175 L 153,174 L 160,174 L 161,173 L 174,173 L 175,172 L 179,172 L 180,171 L 189,171 L 190,170 L 195,170 L 196,169 L 210,169 L 211,168 L 214,168 L 215,167 L 228,167 L 229,166 L 236,166 L 237,165 L 247,165 L 248,164 L 254,164 L 254,160 L 253,159 L 253,158 L 248,153 L 248,151 L 246,149 L 246,148 L 245,148 L 244,147 L 244,146 L 243,146 L 240,143 L 240,141 L 236,137 L 236,136 L 235,136 L 234,135 L 234,134 L 231,131 L 231,130 L 228,127 L 228,126 L 227,126 L 226,125 L 226,123 L 222,119 L 222,118 L 218,114 L 218,112 L 217,112 L 216,111 L 216,110 L 214,108 L 214,107 L 210,103 L 210,102 L 209,102 L 206,99 L 206,98 L 205,97 L 205,96 L 204,95 L 204,94 L 200,90 L 199,90 L 198,89 L 198,88 L 197,87 L 197,86 L 196,85 L 196,84 L 194,82 L 194,81 L 193,80 L 192,80 L 188,76 L 188,74 L 183,69 L 183,68 L 182,67 L 182,66 L 181,66 L 180,65 L 180,64 L 178,62 L 178,61 L 177,60 L 176,60 L 175,59 L 175,58 L 174,57 L 174,56 L 173,56 L 172,55 L 172,54 L 171,54 L 168,51 L 168,50 L 167,49 L 167,48 L 164,45 L 164,44 L 162,42 L 162,41 L 160,39 L 160,38 L 159,38 L 156,35 L 156,34 L 155,34 L 154,33 L 154,32 L 152,30 L 152,29 L 150,27 L 150,26 L 149,26 L 148,25 L 148,24 L 147,23 L 147,22 L 144,19 L 144,18 L 136,10 L 136,8 L 134,6 L 133,6 L 132,5 L 132,4 L 131,3 L 131,2 Z" fill="black" /><path d="M 0,0 L 0,220 L 258,220 L 258,0 Z" fill="none" stroke="black" stroke-width="1" /></svg>