<?xml version='1.0' encoding='utf-8'?>
<svg width="262" height="216" xmlns="http://www.w3.org/2000/svg" viewBox="0 0 262 216"><rect width="262" height="216" fill="white" /><path d="M 207,131 L 206,132 L 206,133 L 204,135 L 204,136 L 202,138 L 202,140 L 200,142 L 200,143 L 199,144 L 199,145 L 196,148 L 196,150 L 194,152 L 194,154 L 192,156 L 192,157 L 190,159 L 190,160 L 188,162 L 188,163 L 186,165 L 186,166 L 184,168 L 184,169 L 183,170 L 182,170 L 182,171 L 180,173 L 180,177 L 192,177 L 194,175 L 196,177 L 199,177 L 200,176 L 201,177 L 214,177 L 215,178 L 216,177 L 228,177 L 229,178 L 238,178 L 239,177 L 239,175 L 237,173 L 237,172 L 235,170 L 235,169 L 233,167 L 233,166 L 231,164 L 231,163 L 229,161 L 229,160 L 228,159 L 228,158 L 225,155 L 225,154 L 224,153 L 224,152 L 223,151 L 223,150 L 222,150 L 221,149 L 221,148 L 219,146 L 219,145 L 218,144 L 218,143 L 217,142 L 217,141 L 215,139 L 215,137 L 213,135 L 213,134 L 210,131 Z" fill="black" /><path d="M 65,84 L 63,86 L 62,86 L 61,87 L 60,87 L 59,88 L 57,88 L 56,89 L 56,90 L 55,91 L 55,93 L 54,94 L 54,97 L 53,98 L 53,99 L 54,100 L 54,103 L 56,105 L 56,106 L 58,108 L 58,109 L 60,111 L 63,111 L 65,113 L 71,113 L 73,111 L 75,111 L 77,109 L 78,109 L 81,106 L 81,102 L 83,100 L 83,97 L 81,95 L 81,92 L 77,88 L 76,88 L 75,87 L 74,87 L 73,86 L 70,86 L 69,85 L 68,85 L 67,84 Z" fill="black" /><path d="M 0,0 L 0,215 L 261,215 L 261,0 Z" fill="none" stroke="black" stroke-width="1" /></svg>