<?xml version='1.0' encoding='utf-8'?>
<svg width="263" height="218" xmlns="http://www.w3.org/2000/svg" viewBox="0 0 263 218"><rect width="263" height="218" fill="white" /><path d="M 214,34 L 213,35 L 211,35 L 210,36 L 208,36 L 208,37 L 207,38 L 206,38 L 202,42 L 202,45 L 201,46 L 201,51 L 202,52 L 202,53 L 203,54 L 203,56 L 205,58 L 205,59 L 206,59 L 208,61 L 212,61 L 213,62 L 214,62 L 215,63 L 216,63 L 217,62 L 219,62 L 220,61 L 222,61 L 224,59 L 226,59 L 226,58 L 229,55 L 229,52 L 230,51 L 230,44 L 229,43 L 229,42 L 224,37 L 223,37 L 222,36 L 220,36 L 219,35 L 217,35 L 216,34 Z" fill="black" /><path d="M 118,30 L 118,31 L 116,33 L 116,34 L 114,36 L 114,38 L 112,40 L 112,41 L 111,42 L 111,43 L 110,44 L 110,45 L 109,46 L 108,46 L 108,47 L 107,48 L 107,49 L 106,50 L 106,51 L 104,53 L 104,54 L 102,56 L 102,57 L 100,59 L 100,60 L 99,61 L 99,63 L 98,64 L 98,65 L 96,67 L 96,68 L 94,70 L 94,72 L 92,74 L 92,75 L 90,77 L 90,79 L 89,80 L 88,80 L 88,82 L 86,84 L 86,85 L 84,87 L 84,89 L 83,90 L 83,91 L 80,94 L 80,95 L 79,96 L 79,97 L 78,98 L 78,99 L 76,101 L 76,102 L 74,104 L 74,105 L 73,106 L 73,107 L 72,108 L 72,109 L 70,111 L 70,112 L 68,114 L 68,116 L 66,118 L 66,119 L 64,121 L 64,123 L 63,124 L 63,125 L 62,126 L 62,127 L 61,128 L 60,128 L 60,129 L 59,130 L 59,131 L 58,132 L 58,133 L 56,135 L 56,136 L 54,138 L 54,140 L 52,142 L 52,145 L 48,149 L 48,150 L 46,152 L 46,153 L 45,154 L 45,155 L 44,156 L 44,157 L 42,159 L 42,160 L 40,162 L 40,163 L 39,164 L 39,165 L 38,166 L 38,167 L 37,168 L 37,169 L 35,171 L 35,172 L 34,173 L 34,174 L 32,176 L 32,178 L 30,180 L 30,181 L 28,183 L 28,184 L 26,186 L 25,186 L 23,188 L 23,191 L 22,192 L 22,194 L 20,196 L 20,199 L 23,199 L 24,200 L 27,200 L 28,199 L 42,199 L 43,198 L 47,198 L 48,197 L 62,197 L 63,196 L 70,196 L 71,195 L 81,195 L 82,194 L 90,194 L 91,193 L 103,193 L 104,192 L 109,192 L 110,191 L 121,191 L 122,190 L 132,190 L 133,189 L 144,189 L 145,188 L 149,188 L 150,187 L 166,187 L 167,186 L 169,186 L 170,185 L 182,185 L 183,184 L 190,184 L 191,183 L 206,183 L 207,182 L 211,182 L 212,181 L 223,181 L 224,180 L 229,180 L 230,179 L 238,179 L 239,178 L 240,178 L 240,175 L 239,174 L 239,173 L 237,171 L 237,170 L 236,170 L 235,169 L 235,168 L 233,166 L 233,165 L 231,163 L 231,162 L 230,162 L 229,161 L 229,160 L 228,160 L 227,159 L 227,158 L 224,155 L 224,154 L 219,149 L 219,148 L 214,143 L 214,142 L 209,137 L 209,136 L 208,135 L 208,134 L 199,125 L 199,124 L 198,124 L 197,123 L 197,122 L 196,121 L 196,120 L 195,120 L 194,119 L 194,118 L 193,117 L 193,116 L 189,112 L 189,111 L 183,105 L 183,104 L 179,100 L 179,99 L 177,97 L 177,96 L 173,92 L 173,91 L 171,89 L 171,88 L 169,86 L 168,86 L 167,85 L 167,84 L 163,80 L 163,79 L 161,77 L 161,76 L 156,71 L 156,70 L 155,69 L 155,68 L 154,68 L 153,67 L 153,66 L 152,66 L 151,65 L 151,64 L 147,60 L 147,59 L 143,55 L 143,54 L 138,49 L 138,48 L 135,45 L 135,44 L 130,39 L 130,38 L 129,37 L 128,37 L 127,36 L 127,35 L 125,33 L 125,32 L 123,30 Z" fill="black" /><path d="M 0,0 L 0,217 L 262,217 L 262,0 Z" fill="none" stroke="black" stroke-width="1" /></svg>