<?xml version='1.0' encoding='utf-8'?>
<svg width="257" height="218" xmlns="http://www.w3.org/2000/svg" viewBox="0 0 257 218"><rect width="257" height="218" fill="white" /><path d="M 156,64 L 155,65 L 154,65 L 154,67 L 153,68 L 153,69 L 152,70 L 152,71 L 149,74 L 149,75 L 147,77 L 147,79 L 146,80 L 146,81 L 145,82 L 145,83 L 144,84 L 143,84 L 143,86 L 141,88 L 141,89 L 140,90 L 140,91 L 137,94 L 137,95 L 136,96 L 136,97 L 135,98 L 135,99 L 133,101 L 133,102 L 131,104 L 131,106 L 129,108 L 129,109 L 128,110 L 128,111 L 126,113 L 126,114 L 124,116 L 124,117 L 123,118 L 123,119 L 122,120 L 122,121 L 119,124 L 119,126 L 117,128 L 117,129 L 116,130 L 116,131 L 115,132 L 115,133 L 114,134 L 114,135 L 113,136 L 113,137 L 112,138 L 111,138 L 111,139 L 110,140 L 110,141 L 109,142 L 109,143 L 107,145 L 107,146 L 105,148 L 105,150 L 103,152 L 103,153 L 102,154 L 102,155 L 101,156 L 101,157 L 98,160 L 98,161 L 97,162 L 97,163 L 96,164 L 95,164 L 95,166 L 93,168 L 93,169 L 91,171 L 91,172 L 90,173 L 90,174 L 89,175 L 89,176 L 87,178 L 87,179 L 86,180 L 86,181 L 85,182 L 85,183 L 84,184 L 83,184 L 83,185 L 81,187 L 81,188 L 78,191 L 77,191 L 75,193 L 75,196 L 76,197 L 185,197 L 186,196 L 187,197 L 195,197 L 196,196 L 200,196 L 201,197 L 233,197 L 234,196 L 235,197 L 243,197 L 244,196 L 244,192 L 243,191 L 242,191 L 240,189 L 240,187 L 239,186 L 239,185 L 237,183 L 237,182 L 236,181 L 236,180 L 235,180 L 234,179 L 234,178 L 233,177 L 233,176 L 232,175 L 232,174 L 231,174 L 230,173 L 230,172 L 229,171 L 229,170 L 228,169 L 228,168 L 225,165 L 225,164 L 224,163 L 224,162 L 221,159 L 221,158 L 218,155 L 218,153 L 216,151 L 216,150 L 215,150 L 214,149 L 214,148 L 213,147 L 213,146 L 212,145 L 212,144 L 211,144 L 210,143 L 210,142 L 207,139 L 207,138 L 206,137 L 206,136 L 204,134 L 204,133 L 202,131 L 202,129 L 198,125 L 198,124 L 196,122 L 196,121 L 194,119 L 194,118 L 192,116 L 192,115 L 190,113 L 190,112 L 189,112 L 188,111 L 188,110 L 186,108 L 186,105 L 184,103 L 184,102 L 180,98 L 180,97 L 178,95 L 178,94 L 177,94 L 174,91 L 174,89 L 172,87 L 172,85 L 171,85 L 170,84 L 170,83 L 168,81 L 168,80 L 166,78 L 166,76 L 164,74 L 163,74 L 162,73 L 162,72 L 160,70 L 160,69 L 158,67 L 158,66 Z" fill="black" /><path d="M 53,30 L 52,31 L 51,31 L 50,32 L 46,32 L 44,34 L 42,34 L 40,36 L 39,36 L 35,40 L 34,40 L 33,41 L 33,42 L 32,43 L 31,43 L 30,44 L 30,45 L 29,46 L 29,47 L 28,48 L 28,49 L 27,50 L 27,51 L 25,53 L 25,57 L 23,59 L 23,68 L 24,69 L 24,73 L 25,74 L 25,78 L 27,80 L 27,82 L 29,84 L 29,85 L 30,86 L 30,87 L 36,93 L 37,93 L 39,95 L 40,95 L 42,97 L 44,97 L 46,99 L 48,99 L 49,100 L 50,100 L 51,101 L 70,101 L 71,100 L 74,100 L 75,99 L 76,99 L 78,97 L 80,97 L 84,93 L 85,93 L 87,91 L 88,91 L 88,90 L 89,89 L 89,88 L 92,85 L 92,84 L 93,83 L 93,82 L 94,81 L 94,79 L 95,78 L 95,77 L 96,76 L 96,69 L 97,68 L 97,61 L 96,60 L 96,54 L 95,54 L 94,53 L 94,51 L 92,49 L 92,47 L 90,45 L 90,44 L 89,44 L 86,41 L 86,40 L 85,40 L 84,39 L 84,38 L 83,38 L 82,37 L 82,36 L 81,36 L 80,35 L 79,35 L 78,34 L 77,34 L 76,33 L 75,33 L 74,32 L 71,32 L 70,31 L 69,31 L 68,30 Z" fill="black" /><path d="M 0,0 L 0,217 L 256,217 L 256,0 Z" fill="none" stroke="black" stroke-width="1" /></svg>