<?xml version='1.0' encoding='utf-8'?>
<svg width="254" height="219" xmlns="http://www.w3.org/2000/svg" viewBox="0 0 254 219"><rect width="254" height="219" fill="white" /><path d="M 191,106 L 190,107 L 190,108 L 188,110 L 188,111 L 187,112 L 187,113 L 186,114 L 186,115 L 185,116 L 184,116 L 184,117 L 183,118 L 183,119 L 182,120 L 182,121 L 180,123 L 180,124 L 178,126 L 178,127 L 177,128 L 176,128 L 176,129 L 174,131 L 174,132 L 172,134 L 172,136 L 170,138 L 170,139 L 169,140 L 169,141 L 166,144 L 166,146 L 164,148 L 164,149 L 163,150 L 163,151 L 160,154 L 160,155 L 158,157 L 158,159 L 159,159 L 160,160 L 172,160 L 173,159 L 175,159 L 176,160 L 189,160 L 190,161 L 199,161 L 200,160 L 205,160 L 206,161 L 215,161 L 216,160 L 217,160 L 218,161 L 224,161 L 225,160 L 226,160 L 227,159 L 227,158 L 224,155 L 224,153 L 223,152 L 223,150 L 221,148 L 221,147 L 220,146 L 219,146 L 218,145 L 218,144 L 217,143 L 217,141 L 215,139 L 215,138 L 214,138 L 211,135 L 211,132 L 209,130 L 209,128 L 206,125 L 206,124 L 205,123 L 205,122 L 204,121 L 204,120 L 203,119 L 203,118 L 202,118 L 201,117 L 201,116 L 199,114 L 199,111 L 194,106 Z" fill="black" /><path d="M 80,29 L 79,30 L 70,30 L 69,31 L 68,31 L 67,32 L 62,32 L 60,34 L 57,34 L 56,35 L 55,35 L 54,36 L 53,36 L 51,38 L 48,38 L 46,40 L 45,40 L 42,43 L 41,43 L 40,44 L 39,44 L 37,46 L 36,46 L 33,49 L 32,49 L 31,50 L 31,51 L 26,56 L 26,57 L 25,58 L 24,58 L 24,60 L 22,62 L 22,63 L 20,65 L 20,66 L 18,68 L 18,69 L 17,70 L 17,71 L 16,72 L 16,74 L 14,76 L 14,79 L 13,80 L 13,81 L 12,82 L 12,85 L 11,86 L 11,87 L 10,88 L 10,94 L 9,95 L 9,108 L 8,109 L 9,110 L 9,113 L 10,114 L 10,121 L 11,122 L 11,124 L 12,125 L 12,128 L 14,130 L 14,133 L 15,134 L 15,135 L 16,136 L 16,139 L 17,139 L 18,140 L 18,141 L 19,142 L 19,143 L 20,144 L 20,145 L 22,147 L 22,149 L 23,149 L 24,150 L 24,151 L 26,153 L 26,154 L 28,156 L 28,157 L 29,157 L 30,158 L 30,159 L 31,159 L 32,160 L 32,161 L 33,161 L 34,162 L 34,163 L 35,163 L 37,165 L 38,165 L 40,167 L 41,167 L 42,168 L 42,169 L 43,169 L 44,170 L 45,170 L 46,171 L 47,171 L 49,173 L 51,173 L 53,175 L 55,175 L 56,176 L 57,176 L 58,177 L 61,177 L 62,178 L 63,178 L 64,179 L 68,179 L 69,180 L 72,180 L 73,181 L 87,181 L 88,182 L 89,182 L 90,181 L 99,181 L 100,180 L 101,180 L 102,179 L 107,179 L 108,178 L 110,178 L 111,177 L 113,177 L 114,176 L 115,176 L 116,175 L 117,175 L 118,174 L 119,174 L 120,173 L 121,173 L 123,171 L 124,171 L 126,169 L 127,169 L 129,167 L 131,167 L 131,166 L 132,165 L 133,165 L 134,164 L 135,164 L 135,163 L 137,161 L 138,161 L 138,160 L 141,157 L 141,156 L 144,153 L 144,152 L 147,149 L 147,148 L 148,147 L 148,146 L 150,144 L 150,143 L 151,142 L 151,141 L 153,139 L 153,138 L 154,137 L 154,136 L 155,135 L 155,132 L 156,131 L 156,130 L 157,129 L 157,124 L 158,123 L 158,122 L 157,121 L 157,120 L 158,119 L 159,119 L 159,109 L 160,108 L 160,104 L 159,103 L 159,90 L 158,89 L 158,88 L 157,87 L 157,81 L 156,80 L 156,78 L 155,77 L 155,76 L 154,75 L 154,74 L 153,73 L 153,70 L 151,68 L 151,67 L 149,65 L 148,65 L 147,64 L 147,62 L 146,61 L 146,60 L 143,57 L 143,55 L 142,55 L 137,50 L 137,49 L 136,49 L 135,48 L 134,48 L 133,47 L 133,45 L 132,44 L 128,44 L 125,41 L 125,40 L 124,40 L 122,38 L 120,38 L 119,37 L 118,37 L 117,36 L 116,36 L 114,34 L 110,34 L 109,33 L 108,33 L 107,32 L 104,32 L 103,31 L 102,31 L 101,30 L 96,30 L 95,29 L 90,29 L 89,30 L 87,30 L 86,29 Z" fill="black" /></svg>