<?xml version='1.0' encoding='utf-8'?>
<svg width="256" height="217" xmlns="http://www.w3.org/2000/svg" viewBox="0 0 256 217"><rect width="256" height="217" fill="white" /><path d="M 213,155 L 213,156 L 212,157 L 212,158 L 211,159 L 210,159 L 210,161 L 208,163 L 208,164 L 207,165 L 207,166 L 206,167 L 206,168 L 204,170 L 204,172 L 201,175 L 201,176 L 200,177 L 200,178 L 197,181 L 197,184 L 194,187 L 194,190 L 190,194 L 190,196 L 189,197 L 189,198 L 187,200 L 187,202 L 199,202 L 200,201 L 227,201 L 228,200 L 243,200 L 244,199 L 243,198 L 243,197 L 242,196 L 242,195 L 241,194 L 241,193 L 240,193 L 239,192 L 239,191 L 238,190 L 238,189 L 237,188 L 237,187 L 233,183 L 233,181 L 231,179 L 231,178 L 229,176 L 229,175 L 227,173 L 227,172 L 223,168 L 223,165 L 222,164 L 222,163 L 221,163 L 220,162 L 220,161 L 219,160 L 219,159 L 218,159 L 217,158 L 217,157 L 215,155 Z" fill="black" /><path d="M 119,22 L 118,23 L 109,23 L 108,24 L 104,24 L 103,25 L 100,25 L 99,26 L 98,26 L 97,27 L 94,27 L 93,28 L 91,28 L 90,29 L 89,29 L 88,30 L 87,30 L 86,31 L 84,31 L 80,35 L 78,35 L 76,37 L 75,37 L 71,41 L 70,41 L 70,42 L 69,43 L 68,43 L 68,44 L 67,45 L 66,45 L 66,46 L 65,47 L 64,47 L 62,49 L 62,50 L 61,51 L 60,51 L 58,53 L 58,56 L 57,57 L 56,57 L 56,59 L 54,61 L 54,62 L 52,64 L 52,66 L 51,67 L 51,68 L 50,69 L 50,70 L 49,71 L 49,73 L 48,74 L 48,77 L 46,79 L 46,86 L 45,87 L 45,91 L 44,92 L 44,108 L 45,109 L 45,111 L 46,112 L 46,118 L 47,119 L 47,120 L 48,121 L 48,123 L 50,125 L 50,126 L 51,127 L 51,129 L 52,130 L 52,132 L 54,134 L 54,136 L 56,138 L 56,140 L 62,146 L 62,147 L 64,149 L 65,149 L 66,150 L 66,152 L 68,154 L 69,154 L 73,158 L 74,158 L 76,160 L 77,160 L 79,162 L 80,162 L 82,164 L 83,164 L 84,165 L 85,165 L 86,166 L 87,166 L 88,167 L 89,167 L 90,168 L 93,168 L 94,169 L 95,169 L 96,170 L 98,170 L 99,171 L 101,171 L 102,172 L 108,172 L 109,173 L 113,173 L 114,174 L 129,174 L 130,173 L 132,173 L 133,172 L 140,172 L 141,171 L 142,171 L 143,170 L 145,170 L 146,169 L 147,169 L 148,168 L 152,168 L 154,166 L 156,166 L 158,164 L 159,164 L 160,163 L 161,163 L 162,162 L 163,162 L 167,158 L 169,158 L 171,156 L 171,155 L 172,154 L 173,154 L 173,153 L 174,152 L 175,152 L 179,148 L 179,147 L 181,145 L 181,144 L 183,142 L 183,141 L 184,140 L 185,140 L 185,139 L 186,138 L 187,138 L 187,137 L 188,136 L 188,135 L 189,134 L 189,130 L 191,128 L 191,125 L 193,123 L 193,120 L 195,118 L 195,112 L 196,111 L 196,107 L 195,106 L 195,105 L 196,104 L 196,102 L 197,101 L 197,99 L 196,98 L 197,97 L 197,92 L 196,91 L 196,87 L 195,86 L 195,82 L 193,80 L 193,77 L 194,76 L 194,75 L 193,74 L 193,73 L 192,72 L 192,71 L 191,70 L 191,69 L 190,68 L 190,67 L 189,66 L 189,65 L 188,64 L 188,63 L 187,62 L 187,60 L 185,58 L 185,57 L 184,57 L 183,56 L 183,54 L 181,52 L 181,50 L 180,50 L 175,45 L 174,45 L 173,44 L 173,43 L 169,39 L 168,39 L 165,36 L 164,36 L 163,35 L 162,35 L 161,34 L 160,34 L 159,33 L 158,33 L 157,32 L 157,31 L 156,31 L 155,30 L 154,30 L 153,29 L 148,29 L 147,28 L 147,27 L 146,27 L 145,26 L 144,26 L 143,25 L 140,25 L 139,24 L 138,24 L 137,25 L 135,23 L 126,23 L 125,22 L 124,22 L 123,23 L 122,23 L 121,22 Z" fill="black" /></svg>