<?xml version='1.0' encoding='utf-8'?>
<svg width="257" height="220" xmlns="http://www.w3.org/2000/svg" viewBox="0 0 257 220"><rect width="257" height="220" fill="white" /><path d="M 232,120 L 231,121 L 230,121 L 229,122 L 229,125 L 228,126 L 228,127 L 227,128 L 227,130 L 226,131 L 226,132 L 225,133 L 225,136 L 223,138 L 223,140 L 222,141 L 222,142 L 221,143 L 221,147 L 220,148 L 219,148 L 219,151 L 217,153 L 217,156 L 216,157 L 216,158 L 215,159 L 215,160 L 213,162 L 213,165 L 212,166 L 212,167 L 211,168 L 211,171 L 209,173 L 209,175 L 208,176 L 208,177 L 207,178 L 207,181 L 206,182 L 206,183 L 205,184 L 205,186 L 203,188 L 203,191 L 202,192 L 202,193 L 201,194 L 201,195 L 200,196 L 200,197 L 199,198 L 199,203 L 200,204 L 203,204 L 204,203 L 204,202 L 205,201 L 205,200 L 206,199 L 206,197 L 207,196 L 207,195 L 208,194 L 208,192 L 210,190 L 210,186 L 212,184 L 212,182 L 213,181 L 213,180 L 214,179 L 214,176 L 215,175 L 215,174 L 216,173 L 216,172 L 217,171 L 217,168 L 218,167 L 218,166 L 219,165 L 219,164 L 220,163 L 220,161 L 222,159 L 222,156 L 223,155 L 223,154 L 224,153 L 224,150 L 226,148 L 226,145 L 227,144 L 227,143 L 228,142 L 228,141 L 229,140 L 229,138 L 230,137 L 230,136 L 231,135 L 231,134 L 232,133 L 232,129 L 234,127 L 234,124 L 235,123 L 235,121 L 234,120 Z" fill="black" /><path d="M 82,44 L 81,45 L 79,45 L 78,46 L 75,46 L 74,47 L 71,47 L 70,48 L 65,48 L 64,49 L 63,49 L 62,50 L 57,50 L 56,51 L 55,51 L 54,52 L 51,52 L 50,53 L 49,53 L 48,54 L 43,54 L 42,55 L 37,55 L 36,56 L 31,56 L 30,57 L 29,57 L 28,58 L 25,58 L 24,59 L 21,59 L 20,60 L 17,60 L 16,61 L 13,61 L 12,62 L 8,62 L 6,64 L 6,66 L 7,67 L 14,67 L 15,66 L 16,66 L 17,65 L 21,65 L 22,64 L 25,64 L 26,63 L 31,63 L 33,61 L 38,61 L 39,60 L 42,60 L 43,59 L 48,59 L 49,58 L 51,58 L 52,57 L 58,57 L 60,55 L 64,55 L 65,54 L 68,54 L 69,53 L 74,53 L 75,52 L 76,52 L 77,51 L 82,51 L 83,50 L 84,50 L 85,49 L 86,49 L 87,48 L 87,44 Z" fill="black" /><path d="M 118,31 L 116,33 L 116,36 L 117,37 L 117,40 L 118,41 L 118,42 L 119,43 L 119,46 L 120,47 L 120,48 L 121,49 L 121,52 L 122,53 L 122,54 L 123,55 L 123,57 L 124,58 L 124,60 L 125,61 L 125,63 L 126,64 L 126,65 L 127,66 L 127,68 L 128,69 L 128,70 L 129,71 L 129,73 L 130,74 L 130,77 L 131,78 L 131,81 L 132,82 L 132,83 L 133,84 L 133,85 L 134,86 L 134,87 L 135,88 L 135,91 L 136,92 L 136,93 L 137,94 L 137,97 L 138,98 L 138,99 L 139,100 L 139,103 L 140,103 L 141,104 L 141,108 L 142,109 L 142,111 L 143,112 L 143,115 L 145,117 L 145,121 L 147,123 L 147,126 L 149,128 L 149,131 L 150,132 L 150,133 L 151,134 L 151,136 L 152,137 L 152,139 L 153,140 L 153,142 L 154,143 L 154,144 L 155,145 L 155,148 L 156,149 L 156,151 L 157,152 L 157,153 L 158,154 L 159,154 L 160,155 L 161,155 L 162,154 L 162,148 L 161,147 L 161,146 L 160,145 L 160,142 L 159,142 L 158,141 L 158,136 L 157,135 L 157,134 L 156,133 L 156,132 L 155,131 L 155,130 L 154,129 L 154,126 L 153,125 L 153,124 L 152,123 L 152,120 L 151,119 L 151,118 L 150,117 L 150,116 L 149,115 L 149,114 L 148,113 L 148,111 L 146,109 L 146,104 L 144,102 L 144,100 L 142,98 L 142,94 L 141,93 L 141,91 L 140,90 L 140,86 L 138,84 L 138,80 L 137,79 L 137,78 L 136,77 L 136,74 L 134,72 L 134,69 L 133,68 L 133,67 L 132,66 L 132,62 L 130,60 L 130,58 L 129,57 L 129,56 L 128,55 L 128,52 L 127,52 L 126,51 L 126,48 L 125,47 L 125,46 L 124,45 L 124,40 L 122,38 L 122,36 L 121,35 L 121,33 L 119,31 Z" fill="black" /><path d="M 0,0 L 0,219 L 256,219 L 256,0 Z" fill="none" stroke="black" stroke-width="1" /></svg>