<?xml version='1.0' encoding='utf-8'?>
<svg width="260" height="216" xmlns="http://www.w3.org/2000/svg" viewBox="0 0 260 216"><rect width="260" height="216" fill="white" /><path d="M 189,126 L 188,127 L 188,128 L 190,130 L 190,131 L 192,133 L 192,134 L 194,136 L 194,137 L 196,139 L 196,140 L 198,142 L 198,143 L 200,145 L 200,146 L 201,146 L 202,147 L 202,148 L 204,150 L 204,151 L 206,153 L 206,154 L 208,156 L 208,157 L 210,159 L 210,160 L 212,162 L 212,163 L 214,165 L 214,166 L 217,169 L 217,170 L 218,171 L 218,172 L 220,174 L 220,175 L 222,177 L 222,179 L 226,183 L 226,184 L 227,185 L 227,186 L 228,187 L 228,188 L 230,190 L 230,191 L 233,194 L 234,194 L 235,195 L 238,195 L 239,194 L 239,191 L 238,190 L 238,189 L 237,188 L 237,187 L 236,187 L 235,186 L 235,185 L 233,183 L 233,182 L 231,180 L 231,179 L 229,177 L 229,176 L 227,174 L 227,173 L 226,173 L 225,172 L 225,171 L 224,170 L 224,169 L 223,168 L 223,167 L 222,167 L 221,166 L 221,165 L 220,164 L 220,163 L 217,160 L 217,158 L 216,157 L 215,157 L 214,156 L 214,154 L 212,152 L 212,151 L 211,150 L 211,149 L 209,147 L 208,147 L 207,146 L 207,145 L 205,143 L 205,142 L 203,140 L 203,137 L 201,135 L 200,135 L 199,134 L 199,132 L 197,130 L 197,129 L 194,126 Z" fill="black" /><path d="M 90,105 L 90,134 L 89,135 L 89,138 L 90,139 L 90,156 L 89,157 L 89,158 L 90,159 L 90,161 L 89,162 L 89,165 L 90,166 L 90,168 L 89,169 L 89,175 L 90,176 L 89,177 L 89,182 L 90,183 L 92,183 L 93,184 L 97,184 L 97,181 L 98,180 L 98,175 L 97,174 L 97,172 L 98,171 L 98,161 L 97,160 L 97,156 L 98,155 L 98,150 L 97,149 L 97,147 L 98,146 L 98,145 L 97,144 L 97,140 L 98,139 L 98,136 L 99,135 L 99,128 L 98,127 L 98,123 L 97,122 L 98,121 L 98,110 L 99,109 L 99,108 L 96,105 Z" fill="black" /><path d="M 185,39 L 184,40 L 178,40 L 177,41 L 152,41 L 151,42 L 144,42 L 143,43 L 142,43 L 141,42 L 140,42 L 139,43 L 128,43 L 127,44 L 119,44 L 118,45 L 104,45 L 103,46 L 102,45 L 100,45 L 99,46 L 96,46 L 95,47 L 68,47 L 67,48 L 62,48 L 61,49 L 54,49 L 53,50 L 53,53 L 54,54 L 58,54 L 59,55 L 60,55 L 61,54 L 79,54 L 80,53 L 89,53 L 90,52 L 104,52 L 105,51 L 115,51 L 116,50 L 131,50 L 132,49 L 134,49 L 135,48 L 136,49 L 140,49 L 141,48 L 154,48 L 155,47 L 156,48 L 158,48 L 159,47 L 161,47 L 162,46 L 181,46 L 182,45 L 183,46 L 185,46 L 186,45 L 195,45 L 196,44 L 197,44 L 197,40 L 196,40 L 195,39 Z" fill="black" /><path d="M 0,0 L 0,215 L 259,215 L 259,0 Z" fill="none" stroke="black" stroke-width="1" /></svg>