<?xml version='1.0' encoding='utf-8'?>
<svg width="259" height="214" xmlns="http://www.w3.org/2000/svg" viewBox="0 0 259 214"><rect width="259" height="214" fill="white" /><path d="M 51,151 L 51,153 L 52,154 L 53,154 L 54,155 L 55,155 L 56,156 L 60,156 L 62,158 L 63,158 L 64,159 L 65,159 L 66,160 L 68,160 L 70,162 L 72,162 L 73,163 L 74,163 L 75,164 L 76,164 L 77,165 L 78,165 L 79,166 L 80,166 L 81,167 L 82,167 L 83,168 L 85,168 L 87,170 L 90,170 L 91,171 L 92,171 L 93,172 L 94,172 L 95,173 L 96,173 L 97,174 L 98,174 L 99,175 L 100,175 L 101,176 L 103,176 L 105,178 L 108,178 L 110,180 L 112,180 L 114,182 L 116,182 L 117,183 L 118,183 L 119,184 L 120,184 L 121,185 L 122,185 L 123,186 L 125,186 L 127,188 L 130,188 L 132,190 L 135,190 L 135,187 L 134,186 L 134,185 L 132,183 L 128,183 L 126,181 L 125,181 L 124,180 L 123,180 L 122,179 L 121,179 L 120,178 L 119,178 L 118,177 L 117,177 L 115,175 L 114,176 L 113,176 L 112,175 L 111,175 L 110,174 L 108,174 L 105,171 L 104,171 L 103,170 L 102,170 L 101,169 L 97,169 L 96,168 L 96,167 L 95,167 L 94,166 L 93,166 L 92,165 L 90,165 L 89,164 L 87,164 L 86,163 L 85,163 L 84,162 L 84,161 L 81,161 L 79,159 L 78,159 L 77,158 L 76,159 L 75,158 L 74,158 L 72,156 L 71,156 L 70,155 L 69,155 L 67,153 L 65,153 L 64,152 L 62,152 L 61,151 Z" fill="black" /><path d="M 132,118 L 129,121 L 129,124 L 132,124 L 133,125 L 134,125 L 135,126 L 136,126 L 137,127 L 138,127 L 139,128 L 141,128 L 143,130 L 146,130 L 148,132 L 151,132 L 153,134 L 156,134 L 158,136 L 159,136 L 161,138 L 164,138 L 165,139 L 166,139 L 167,140 L 168,140 L 169,141 L 170,141 L 171,142 L 172,142 L 173,143 L 174,143 L 175,144 L 178,144 L 180,146 L 182,146 L 183,147 L 184,147 L 185,148 L 186,148 L 187,149 L 188,149 L 189,150 L 190,150 L 192,152 L 194,152 L 195,153 L 196,153 L 197,154 L 200,154 L 201,155 L 202,155 L 203,156 L 204,156 L 206,158 L 208,158 L 210,160 L 213,160 L 215,162 L 217,162 L 219,164 L 222,164 L 223,165 L 224,165 L 225,166 L 228,166 L 229,167 L 230,167 L 231,168 L 233,168 L 236,165 L 236,163 L 235,162 L 232,162 L 231,161 L 229,161 L 228,160 L 226,160 L 225,159 L 224,159 L 222,157 L 219,157 L 217,155 L 215,155 L 213,153 L 209,153 L 208,152 L 208,151 L 205,151 L 203,149 L 202,149 L 200,147 L 199,147 L 198,146 L 197,146 L 196,145 L 195,145 L 194,144 L 190,144 L 188,142 L 188,141 L 185,141 L 184,140 L 183,140 L 182,139 L 179,139 L 177,137 L 175,137 L 173,135 L 172,135 L 171,134 L 170,134 L 169,133 L 167,133 L 165,131 L 162,131 L 161,130 L 158,130 L 156,128 L 156,127 L 152,127 L 150,125 L 147,125 L 145,123 L 143,123 L 142,122 L 141,122 L 138,119 L 135,119 L 134,118 Z" fill="black" /><path d="M 48,16 L 48,17 L 47,18 L 48,19 L 48,20 L 50,20 L 51,21 L 53,21 L 55,23 L 55,24 L 58,24 L 59,25 L 61,25 L 62,26 L 63,26 L 64,27 L 65,27 L 66,28 L 68,28 L 69,29 L 70,29 L 71,30 L 74,30 L 75,31 L 76,31 L 77,32 L 80,32 L 81,33 L 82,33 L 83,34 L 85,34 L 86,35 L 88,35 L 89,36 L 91,36 L 92,37 L 93,37 L 94,38 L 96,38 L 97,39 L 98,39 L 99,40 L 103,40 L 104,41 L 106,41 L 107,42 L 110,42 L 111,43 L 113,43 L 115,45 L 116,45 L 117,46 L 120,46 L 121,47 L 122,47 L 123,48 L 125,48 L 126,49 L 127,49 L 128,50 L 131,50 L 132,51 L 133,51 L 134,52 L 136,52 L 137,53 L 138,53 L 139,54 L 142,54 L 143,55 L 144,55 L 145,56 L 148,56 L 149,57 L 150,57 L 151,58 L 153,58 L 154,59 L 155,59 L 156,60 L 158,60 L 159,61 L 161,61 L 162,62 L 164,62 L 165,63 L 166,63 L 167,64 L 170,64 L 171,65 L 172,65 L 173,66 L 177,66 L 179,68 L 182,68 L 183,69 L 184,69 L 185,70 L 187,70 L 188,71 L 189,71 L 190,72 L 192,72 L 193,73 L 194,73 L 195,74 L 197,74 L 198,75 L 199,75 L 200,76 L 207,76 L 207,71 L 205,71 L 204,70 L 203,71 L 202,70 L 201,70 L 200,69 L 197,69 L 196,68 L 196,67 L 193,67 L 192,66 L 191,66 L 190,65 L 187,65 L 186,64 L 185,64 L 184,63 L 182,63 L 180,61 L 174,61 L 172,59 L 170,59 L 168,57 L 167,57 L 166,56 L 163,56 L 162,55 L 159,55 L 157,53 L 155,53 L 154,52 L 153,52 L 152,51 L 147,51 L 146,50 L 146,49 L 142,49 L 140,47 L 137,47 L 136,46 L 135,46 L 134,45 L 132,45 L 131,44 L 129,44 L 128,43 L 124,43 L 122,41 L 121,41 L 120,40 L 118,40 L 116,38 L 114,38 L 113,37 L 110,37 L 108,35 L 105,35 L 104,34 L 102,34 L 101,33 L 100,33 L 99,32 L 97,32 L 96,31 L 93,31 L 91,29 L 87,29 L 86,28 L 84,28 L 82,26 L 81,26 L 80,25 L 76,25 L 75,24 L 73,24 L 72,23 L 71,23 L 69,21 L 64,21 L 63,20 L 62,20 L 61,21 L 60,21 L 56,17 L 53,17 L 52,16 Z" fill="black" /><path d="M 0,0 L 0,213 L 258,213 L 258,0 Z" fill="none" stroke="black" stroke-width="1" /></svg>