<?xml version='1.0' encoding='utf-8'?>
<svg width="264" height="215" xmlns="http://www.w3.org/2000/svg" viewBox="0 0 264 215"><rect width="264" height="215" fill="white" /><path d="M 218,85 L 215,88 L 214,88 L 214,89 L 210,93 L 210,94 L 209,95 L 208,95 L 208,96 L 205,99 L 205,100 L 204,101 L 204,102 L 196,110 L 196,111 L 190,117 L 190,119 L 189,120 L 188,120 L 184,124 L 184,125 L 183,126 L 182,126 L 182,127 L 179,130 L 178,130 L 178,131 L 177,132 L 177,133 L 176,134 L 176,135 L 175,136 L 174,136 L 172,138 L 172,139 L 171,140 L 170,140 L 170,141 L 168,143 L 168,144 L 166,146 L 166,147 L 163,150 L 162,150 L 160,152 L 160,153 L 159,154 L 158,154 L 158,155 L 157,156 L 156,156 L 155,157 L 155,158 L 154,159 L 154,160 L 156,162 L 159,162 L 160,161 L 161,161 L 163,159 L 163,158 L 164,157 L 164,156 L 165,155 L 166,155 L 166,154 L 171,149 L 171,148 L 175,144 L 175,143 L 179,139 L 180,139 L 181,138 L 181,135 L 183,133 L 185,133 L 187,131 L 187,130 L 192,125 L 192,124 L 195,121 L 195,120 L 196,119 L 197,119 L 197,118 L 200,115 L 201,115 L 201,114 L 202,113 L 202,112 L 209,105 L 209,104 L 210,103 L 211,103 L 211,102 L 213,100 L 213,99 L 217,95 L 217,94 L 218,93 L 219,93 L 219,92 L 220,91 L 221,91 L 222,90 L 222,87 L 221,86 L 221,85 Z" fill="black" /><path d="M 114,39 L 113,40 L 112,40 L 109,43 L 108,43 L 106,45 L 106,46 L 105,47 L 104,47 L 103,48 L 103,49 L 102,50 L 102,51 L 101,52 L 100,52 L 98,54 L 98,55 L 97,56 L 96,56 L 96,57 L 95,58 L 94,58 L 94,59 L 93,60 L 92,60 L 92,61 L 91,62 L 90,62 L 90,63 L 89,64 L 88,64 L 88,65 L 87,66 L 86,66 L 86,67 L 79,74 L 79,75 L 77,77 L 76,77 L 76,78 L 73,81 L 72,81 L 72,82 L 70,84 L 70,85 L 69,86 L 68,86 L 64,90 L 64,91 L 61,94 L 60,94 L 59,95 L 59,96 L 60,97 L 62,97 L 64,95 L 67,95 L 69,93 L 69,92 L 72,89 L 73,89 L 73,88 L 74,87 L 75,87 L 77,85 L 77,84 L 78,83 L 79,83 L 79,82 L 80,81 L 81,81 L 81,80 L 82,79 L 83,79 L 83,78 L 84,77 L 85,77 L 85,76 L 89,72 L 89,71 L 92,68 L 93,68 L 94,67 L 94,66 L 96,64 L 97,64 L 98,63 L 98,62 L 105,55 L 105,54 L 106,53 L 107,53 L 109,51 L 109,50 L 114,45 L 115,45 L 115,40 Z" fill="black" /><path d="M 208,38 L 200,46 L 199,46 L 193,52 L 192,52 L 192,53 L 191,54 L 190,54 L 188,56 L 188,57 L 185,60 L 184,60 L 182,62 L 181,62 L 175,68 L 174,68 L 174,69 L 173,70 L 172,70 L 172,71 L 171,72 L 170,72 L 170,73 L 169,74 L 168,74 L 164,78 L 163,78 L 159,82 L 159,83 L 158,84 L 157,84 L 155,86 L 154,86 L 154,87 L 151,90 L 150,90 L 143,97 L 142,97 L 142,98 L 140,100 L 139,100 L 138,101 L 138,102 L 137,103 L 136,103 L 133,106 L 132,106 L 132,107 L 131,108 L 130,108 L 130,109 L 129,110 L 128,110 L 128,111 L 127,112 L 126,112 L 124,114 L 124,115 L 123,116 L 122,116 L 119,119 L 118,119 L 109,128 L 108,128 L 108,129 L 107,130 L 106,130 L 101,135 L 100,135 L 100,136 L 99,137 L 98,137 L 89,146 L 88,146 L 88,147 L 87,148 L 86,148 L 86,149 L 85,150 L 84,150 L 82,152 L 81,152 L 75,158 L 74,158 L 74,159 L 73,160 L 72,160 L 67,165 L 66,165 L 65,166 L 65,168 L 67,170 L 70,170 L 73,167 L 73,166 L 74,165 L 75,165 L 77,163 L 78,163 L 82,159 L 83,159 L 83,158 L 86,155 L 87,155 L 87,154 L 88,153 L 89,153 L 93,149 L 93,148 L 94,147 L 95,147 L 97,145 L 98,145 L 100,143 L 101,143 L 101,142 L 108,135 L 109,135 L 117,127 L 118,127 L 124,121 L 125,121 L 125,120 L 126,119 L 127,119 L 133,113 L 134,113 L 142,105 L 143,105 L 143,104 L 144,103 L 145,103 L 145,102 L 146,101 L 147,101 L 149,99 L 149,98 L 150,97 L 151,97 L 155,93 L 156,93 L 162,87 L 163,87 L 163,86 L 164,85 L 165,85 L 165,84 L 168,81 L 169,81 L 171,79 L 171,78 L 172,77 L 173,77 L 175,75 L 176,75 L 177,74 L 177,73 L 181,69 L 182,69 L 186,65 L 187,65 L 187,64 L 188,63 L 189,63 L 194,58 L 195,58 L 195,57 L 197,55 L 198,55 L 198,54 L 199,53 L 200,53 L 202,51 L 203,51 L 203,50 L 204,49 L 205,49 L 205,48 L 206,47 L 207,47 L 207,46 L 208,45 L 209,45 L 212,42 L 212,39 L 211,38 Z" fill="black" /><path d="M 0,0 L 0,214 L 263,214 L 263,0 Z" fill="none" stroke="black" stroke-width="1" /></svg>