<?xml version='1.0' encoding='utf-8'?>
<svg width="256" height="218" xmlns="http://www.w3.org/2000/svg" viewBox="0 0 256 218"><rect width="256" height="218" fill="white" /><path d="M 168,135 L 167,136 L 167,140 L 168,140 L 169,141 L 169,142 L 170,143 L 170,144 L 171,145 L 171,146 L 172,146 L 173,147 L 173,148 L 174,149 L 174,150 L 177,153 L 177,154 L 179,156 L 179,157 L 181,159 L 181,160 L 183,162 L 183,163 L 187,167 L 187,170 L 188,170 L 189,171 L 189,172 L 192,175 L 192,176 L 193,177 L 193,178 L 196,181 L 196,182 L 197,183 L 197,184 L 201,188 L 201,189 L 203,191 L 203,192 L 205,194 L 205,195 L 207,197 L 207,198 L 209,200 L 209,202 L 211,204 L 212,204 L 213,205 L 213,206 L 214,207 L 216,207 L 217,208 L 219,206 L 218,205 L 218,204 L 216,202 L 216,201 L 214,199 L 213,199 L 212,198 L 212,196 L 210,194 L 210,193 L 209,192 L 209,191 L 208,190 L 208,189 L 207,189 L 206,188 L 206,186 L 200,180 L 200,177 L 198,175 L 198,174 L 196,172 L 196,171 L 195,171 L 194,170 L 194,169 L 193,168 L 193,167 L 192,166 L 192,165 L 191,164 L 191,163 L 186,158 L 186,156 L 184,154 L 184,153 L 183,153 L 182,152 L 182,150 L 181,149 L 180,149 L 178,147 L 178,145 L 177,144 L 177,143 L 176,142 L 176,141 L 172,137 L 171,137 L 170,136 L 169,136 Z" fill="black" /><path d="M 153,78 L 152,79 L 144,79 L 143,80 L 141,80 L 140,81 L 133,81 L 132,82 L 129,82 L 128,83 L 122,83 L 121,84 L 119,84 L 118,85 L 115,85 L 114,86 L 108,86 L 107,87 L 100,87 L 99,88 L 96,88 L 95,89 L 90,89 L 89,90 L 83,90 L 82,91 L 78,91 L 77,92 L 73,92 L 72,93 L 67,93 L 66,94 L 64,94 L 63,95 L 56,95 L 55,96 L 52,96 L 51,97 L 46,97 L 45,98 L 43,98 L 42,99 L 36,99 L 35,100 L 35,102 L 36,103 L 38,103 L 39,104 L 43,104 L 44,103 L 47,103 L 48,102 L 53,102 L 54,101 L 57,101 L 58,100 L 63,100 L 64,99 L 67,99 L 68,98 L 74,98 L 75,97 L 77,97 L 78,96 L 84,96 L 85,95 L 90,95 L 91,94 L 95,94 L 96,93 L 99,93 L 100,92 L 105,92 L 106,91 L 110,91 L 111,90 L 116,90 L 117,89 L 120,89 L 121,88 L 130,88 L 131,87 L 133,87 L 134,86 L 138,86 L 139,85 L 140,85 L 141,84 L 144,84 L 145,85 L 146,84 L 150,84 L 151,83 L 153,83 L 154,82 L 156,82 L 159,79 L 158,79 L 157,78 Z" fill="black" /><path d="M 109,29 L 108,30 L 95,30 L 94,31 L 81,31 L 80,32 L 66,32 L 65,33 L 64,33 L 63,32 L 58,32 L 57,33 L 45,33 L 44,34 L 39,34 L 38,35 L 30,35 L 29,36 L 29,38 L 31,40 L 33,40 L 34,39 L 35,39 L 36,38 L 37,39 L 44,39 L 45,38 L 54,38 L 55,37 L 60,37 L 61,38 L 68,38 L 69,37 L 78,37 L 79,36 L 104,36 L 105,35 L 109,35 L 110,34 L 111,35 L 119,35 L 120,34 L 122,34 L 123,33 L 122,32 L 122,31 L 120,29 Z" fill="black" /><path d="M 0,0 L 0,217 L 255,217 L 255,0 Z" fill="none" stroke="black" stroke-width="1" /></svg>