<?xml version='1.0' encoding='utf-8'?>
<svg width="257" height="215" xmlns="http://www.w3.org/2000/svg" viewBox="0 0 257 215"><rect width="257" height="215" fill="white" /><path d="M 107,174 L 106,175 L 105,175 L 105,176 L 104,177 L 105,178 L 105,179 L 113,179 L 114,180 L 133,180 L 134,181 L 135,180 L 142,180 L 143,181 L 145,181 L 146,182 L 167,182 L 168,183 L 169,182 L 172,182 L 173,183 L 180,183 L 181,184 L 198,184 L 199,183 L 198,182 L 198,180 L 197,179 L 186,179 L 185,178 L 178,178 L 177,177 L 153,177 L 152,176 L 145,176 L 144,175 L 142,175 L 141,176 L 138,176 L 137,175 L 129,175 L 128,176 L 127,176 L 126,175 L 122,175 L 121,174 L 120,175 L 114,175 L 113,174 Z" fill="black" /><path d="M 56,91 L 55,92 L 54,92 L 52,94 L 52,95 L 54,97 L 55,97 L 56,98 L 78,98 L 79,99 L 80,98 L 84,98 L 85,99 L 96,99 L 97,100 L 103,100 L 104,99 L 105,100 L 128,100 L 129,101 L 138,101 L 139,102 L 157,102 L 158,103 L 169,103 L 170,104 L 171,104 L 172,103 L 174,103 L 175,104 L 194,104 L 195,105 L 200,105 L 201,104 L 210,104 L 210,103 L 211,102 L 209,100 L 208,100 L 207,99 L 202,99 L 201,100 L 199,100 L 198,99 L 182,99 L 181,98 L 180,98 L 179,99 L 177,99 L 176,98 L 175,98 L 174,97 L 173,98 L 168,98 L 167,97 L 155,97 L 154,96 L 152,96 L 151,97 L 145,97 L 144,96 L 138,96 L 137,97 L 135,95 L 117,95 L 116,94 L 113,94 L 112,95 L 111,95 L 110,94 L 101,94 L 100,93 L 99,94 L 96,94 L 95,93 L 71,93 L 70,92 L 59,92 L 58,91 Z" fill="black" /><path d="M 187,32 L 186,33 L 147,33 L 146,34 L 145,34 L 145,37 L 146,38 L 197,38 L 198,37 L 203,37 L 204,38 L 205,37 L 211,37 L 212,36 L 213,36 L 214,35 L 214,34 L 213,33 L 212,33 L 211,32 L 203,32 L 202,33 L 200,33 L 199,32 L 192,32 L 191,33 L 188,33 Z" fill="black" /><path d="M 0,0 L 0,214 L 256,214 L 256,0 Z" fill="none" stroke="black" stroke-width="1" /></svg>