<?xml version='1.0' encoding='utf-8'?>
<svg width="264" height="222" xmlns="http://www.w3.org/2000/svg" viewBox="0 0 264 222"><rect width="264" height="222" fill="white" /><path d="M 187,124 L 185,126 L 185,127 L 184,128 L 184,137 L 183,138 L 183,142 L 182,143 L 182,153 L 181,154 L 181,157 L 180,158 L 180,165 L 179,166 L 179,167 L 178,168 L 178,177 L 177,178 L 177,183 L 176,184 L 176,191 L 175,192 L 175,194 L 174,195 L 174,203 L 173,204 L 173,209 L 179,209 L 180,208 L 180,203 L 181,202 L 181,193 L 182,192 L 182,188 L 183,187 L 183,182 L 184,181 L 184,174 L 185,173 L 185,163 L 187,161 L 187,152 L 188,151 L 188,149 L 189,148 L 189,138 L 191,136 L 191,126 L 190,125 L 190,124 Z" fill="black" /><path d="M 62,122 L 62,125 L 61,126 L 61,133 L 62,134 L 62,167 L 63,168 L 63,177 L 64,178 L 64,179 L 63,180 L 63,183 L 64,184 L 64,208 L 66,208 L 67,209 L 71,209 L 71,200 L 70,199 L 70,192 L 69,191 L 69,190 L 70,189 L 70,184 L 69,183 L 69,162 L 68,161 L 68,158 L 69,157 L 69,156 L 68,155 L 68,144 L 67,143 L 67,122 Z" fill="black" /><path d="M 97,9 L 96,10 L 96,19 L 98,21 L 96,23 L 96,24 L 97,25 L 97,27 L 98,28 L 98,41 L 99,42 L 99,44 L 98,45 L 98,49 L 99,50 L 99,61 L 98,62 L 98,63 L 99,64 L 99,70 L 100,71 L 100,72 L 99,73 L 99,76 L 100,77 L 100,100 L 101,101 L 101,109 L 102,110 L 101,111 L 101,116 L 102,117 L 106,117 L 108,115 L 108,107 L 107,106 L 107,80 L 106,79 L 106,64 L 105,63 L 105,46 L 104,45 L 104,44 L 105,43 L 105,41 L 103,39 L 103,38 L 104,37 L 104,32 L 103,31 L 103,21 L 102,20 L 102,11 L 100,9 Z" fill="black" /><path d="M 0,0 L 0,221 L 263,221 L 263,0 Z" fill="none" stroke="black" stroke-width="1" /></svg>