<?xml version='1.0' encoding='utf-8'?>
<svg width="261" height="220" xmlns="http://www.w3.org/2000/svg" viewBox="0 0 261 220"><rect width="261" height="220" fill="white" /><path d="M 80,44 L 79,45 L 79,49 L 77,51 L 77,55 L 75,57 L 75,59 L 76,60 L 76,61 L 74,63 L 74,65 L 73,66 L 73,71 L 72,72 L 72,74 L 71,75 L 71,83 L 70,84 L 70,85 L 69,86 L 69,91 L 68,92 L 68,93 L 67,94 L 67,99 L 66,100 L 66,101 L 65,102 L 65,105 L 64,106 L 64,108 L 63,109 L 63,114 L 62,115 L 62,117 L 61,118 L 61,121 L 60,122 L 60,125 L 59,126 L 59,130 L 58,131 L 58,133 L 57,134 L 57,138 L 56,139 L 56,141 L 55,142 L 55,146 L 54,147 L 54,149 L 53,150 L 53,155 L 52,156 L 52,157 L 51,158 L 51,165 L 49,167 L 49,171 L 48,172 L 48,173 L 47,174 L 47,177 L 46,178 L 46,180 L 49,183 L 59,183 L 60,184 L 63,184 L 64,185 L 68,185 L 69,186 L 72,186 L 73,187 L 81,187 L 82,188 L 87,188 L 88,189 L 96,189 L 97,190 L 98,190 L 99,191 L 109,191 L 110,192 L 114,192 L 115,193 L 118,193 L 119,194 L 122,194 L 123,195 L 131,195 L 132,196 L 133,196 L 134,197 L 141,197 L 142,198 L 143,198 L 144,199 L 154,199 L 155,200 L 156,200 L 157,199 L 158,200 L 162,200 L 163,201 L 166,201 L 167,202 L 172,202 L 173,203 L 179,203 L 180,204 L 182,204 L 183,205 L 189,205 L 190,206 L 192,206 L 193,207 L 196,207 L 197,208 L 197,209 L 201,209 L 202,208 L 202,207 L 204,205 L 204,198 L 205,197 L 205,196 L 206,195 L 206,186 L 207,185 L 207,184 L 208,183 L 208,180 L 209,179 L 209,176 L 210,175 L 210,168 L 212,166 L 212,162 L 213,161 L 213,160 L 212,159 L 212,158 L 214,156 L 214,154 L 213,153 L 212,153 L 210,151 L 209,151 L 208,150 L 207,150 L 205,148 L 204,148 L 203,147 L 202,147 L 200,145 L 199,145 L 198,144 L 197,144 L 196,143 L 196,142 L 195,142 L 193,140 L 192,140 L 191,139 L 190,139 L 188,137 L 188,135 L 190,133 L 192,133 L 194,131 L 197,131 L 199,129 L 201,129 L 202,128 L 203,128 L 204,127 L 207,127 L 209,125 L 212,125 L 214,123 L 216,123 L 217,122 L 218,122 L 219,121 L 219,120 L 220,119 L 220,116 L 221,115 L 221,113 L 222,112 L 222,108 L 223,107 L 223,106 L 224,105 L 224,96 L 225,95 L 225,94 L 226,93 L 226,87 L 227,86 L 227,82 L 228,81 L 228,73 L 229,72 L 229,68 L 230,67 L 230,66 L 231,65 L 231,63 L 232,62 L 232,56 L 231,55 L 228,55 L 227,56 L 223,56 L 221,58 L 220,58 L 219,59 L 217,59 L 216,60 L 214,60 L 212,62 L 211,62 L 210,63 L 208,63 L 207,64 L 205,64 L 204,65 L 202,65 L 201,66 L 199,66 L 197,68 L 195,68 L 194,69 L 193,69 L 192,70 L 190,70 L 189,71 L 188,71 L 187,72 L 184,72 L 182,74 L 180,74 L 178,76 L 176,76 L 175,77 L 174,77 L 173,78 L 169,78 L 167,80 L 166,80 L 165,81 L 164,81 L 163,82 L 161,82 L 160,83 L 159,83 L 158,84 L 156,84 L 154,86 L 150,86 L 148,88 L 146,88 L 144,90 L 140,90 L 138,92 L 136,92 L 134,94 L 133,94 L 132,95 L 130,95 L 129,96 L 125,96 L 124,97 L 123,97 L 122,98 L 120,98 L 119,99 L 117,99 L 116,98 L 116,96 L 114,94 L 114,92 L 111,89 L 111,88 L 108,85 L 108,84 L 107,83 L 107,82 L 106,81 L 106,80 L 104,78 L 104,77 L 102,75 L 102,74 L 100,72 L 100,71 L 98,69 L 98,68 L 95,65 L 95,64 L 94,63 L 94,62 L 92,60 L 92,58 L 90,56 L 90,54 L 89,54 L 88,53 L 88,51 L 85,48 L 84,48 L 83,47 L 83,46 L 81,44 Z" fill="black" /><path d="M 0,0 L 0,219 L 260,219 L 260,0 Z" fill="none" stroke="black" stroke-width="1" /></svg>