<?xml version='1.0' encoding='utf-8'?>
<svg width="258" height="218" xmlns="http://www.w3.org/2000/svg" viewBox="0 0 258 218"><rect width="258" height="218" fill="white" /><path d="M 64,128 L 63,129 L 34,129 L 33,130 L 32,130 L 31,129 L 27,129 L 26,130 L 26,133 L 28,135 L 28,136 L 30,138 L 30,140 L 31,140 L 32,141 L 32,142 L 33,143 L 33,144 L 34,145 L 34,146 L 35,147 L 35,148 L 36,149 L 36,152 L 37,152 L 38,153 L 38,158 L 37,159 L 37,160 L 36,161 L 36,162 L 34,164 L 34,166 L 32,168 L 32,170 L 30,172 L 30,174 L 28,176 L 28,178 L 27,179 L 26,179 L 26,182 L 25,183 L 24,183 L 22,185 L 22,187 L 23,188 L 29,188 L 30,187 L 34,187 L 35,186 L 36,187 L 83,187 L 84,186 L 87,186 L 87,181 L 86,180 L 86,179 L 83,176 L 83,175 L 82,175 L 81,174 L 81,173 L 79,171 L 79,170 L 77,168 L 77,167 L 76,166 L 76,165 L 73,162 L 73,161 L 72,161 L 71,160 L 71,159 L 68,156 L 68,152 L 71,149 L 71,148 L 73,146 L 73,144 L 75,142 L 75,141 L 77,139 L 77,138 L 79,136 L 79,134 L 81,132 L 81,129 L 75,129 L 74,128 L 71,128 L 70,129 L 65,129 Z" fill="black" /><path d="M 0,0 L 0,217 L 257,217 L 257,0 Z" fill="none" stroke="black" stroke-width="1" /></svg>