<?xml version='1.0' encoding='utf-8'?>
<svg width="258" height="220" xmlns="http://www.w3.org/2000/svg" viewBox="0 0 258 220"><rect width="258" height="220" fill="white" /><path d="M 218,32 L 217,33 L 216,33 L 215,34 L 211,34 L 209,36 L 208,36 L 201,43 L 200,43 L 197,46 L 196,46 L 194,48 L 192,48 L 191,47 L 190,47 L 189,46 L 187,46 L 186,45 L 185,45 L 184,44 L 182,44 L 181,43 L 181,42 L 179,42 L 177,40 L 174,40 L 173,39 L 172,39 L 171,38 L 168,38 L 167,37 L 158,37 L 157,36 L 152,36 L 151,37 L 148,37 L 147,38 L 142,38 L 141,39 L 140,39 L 139,40 L 138,40 L 136,42 L 134,42 L 134,43 L 133,44 L 132,44 L 128,48 L 127,48 L 127,49 L 126,50 L 126,51 L 125,52 L 124,52 L 124,53 L 121,56 L 121,57 L 120,58 L 120,59 L 119,60 L 118,60 L 118,61 L 117,62 L 117,63 L 116,64 L 116,65 L 113,68 L 112,68 L 112,69 L 111,70 L 110,70 L 110,71 L 109,72 L 108,72 L 108,73 L 106,75 L 106,76 L 104,78 L 104,79 L 101,82 L 101,83 L 98,86 L 98,87 L 91,94 L 77,94 L 76,93 L 74,93 L 73,92 L 65,92 L 63,94 L 60,94 L 59,95 L 58,95 L 57,96 L 56,96 L 54,98 L 53,98 L 50,101 L 50,102 L 48,104 L 48,105 L 46,107 L 46,109 L 45,110 L 45,112 L 44,113 L 44,119 L 43,120 L 43,121 L 42,122 L 42,133 L 40,135 L 40,138 L 38,140 L 38,141 L 37,142 L 37,143 L 36,144 L 36,145 L 33,148 L 32,148 L 32,149 L 29,152 L 28,152 L 28,153 L 27,154 L 26,154 L 24,156 L 24,158 L 22,160 L 22,161 L 21,162 L 21,169 L 22,170 L 22,175 L 24,177 L 24,180 L 26,182 L 26,185 L 27,185 L 28,186 L 28,187 L 30,189 L 30,190 L 31,191 L 31,193 L 34,196 L 34,197 L 36,199 L 37,199 L 39,201 L 39,203 L 41,205 L 42,205 L 43,206 L 44,206 L 45,207 L 47,207 L 49,209 L 51,209 L 52,210 L 52,211 L 56,211 L 58,213 L 70,213 L 71,212 L 75,212 L 76,211 L 81,211 L 81,210 L 82,209 L 87,209 L 88,208 L 89,208 L 90,207 L 92,207 L 94,205 L 95,205 L 96,204 L 97,204 L 98,203 L 99,203 L 100,202 L 101,202 L 102,201 L 103,201 L 104,200 L 106,200 L 107,199 L 109,199 L 110,198 L 111,198 L 112,197 L 117,197 L 118,196 L 121,196 L 122,195 L 126,195 L 128,193 L 132,193 L 134,191 L 136,191 L 138,189 L 139,189 L 140,188 L 141,188 L 144,185 L 145,185 L 145,184 L 146,183 L 147,183 L 148,182 L 149,182 L 152,179 L 153,179 L 156,176 L 157,176 L 158,175 L 160,175 L 162,173 L 163,173 L 163,172 L 164,171 L 165,171 L 167,169 L 169,169 L 171,167 L 172,167 L 174,165 L 177,165 L 177,164 L 178,163 L 181,163 L 182,162 L 184,162 L 185,161 L 188,161 L 190,159 L 192,159 L 194,157 L 195,157 L 197,155 L 198,155 L 200,153 L 202,153 L 204,151 L 205,151 L 207,149 L 208,149 L 210,147 L 211,147 L 215,143 L 216,143 L 218,141 L 218,140 L 221,137 L 221,136 L 222,135 L 223,135 L 223,134 L 224,133 L 224,132 L 225,131 L 225,129 L 227,127 L 227,126 L 228,125 L 228,123 L 229,122 L 229,119 L 230,118 L 230,114 L 231,113 L 231,106 L 232,105 L 232,104 L 233,103 L 233,94 L 234,93 L 234,84 L 235,83 L 235,75 L 236,74 L 236,72 L 237,71 L 237,63 L 238,62 L 238,58 L 239,57 L 239,52 L 238,51 L 238,48 L 237,47 L 237,46 L 236,45 L 236,44 L 235,43 L 235,42 L 234,41 L 234,40 L 229,35 L 228,35 L 227,34 L 225,34 L 223,32 Z" fill="black" /><path d="M 0,0 L 0,219 L 257,219 L 257,0 Z" fill="none" stroke="black" stroke-width="1" /></svg>