<?xml version='1.0' encoding='utf-8'?>
<svg width="256" height="219" xmlns="http://www.w3.org/2000/svg" viewBox="0 0 256 219"><rect width="256" height="219" fill="white" /><path d="M 196,169 L 196,174 L 197,175 L 197,177 L 198,178 L 198,183 L 199,184 L 199,187 L 200,188 L 200,193 L 201,194 L 201,197 L 202,198 L 202,201 L 203,202 L 203,205 L 204,206 L 204,210 L 205,211 L 205,213 L 206,214 L 206,218 L 210,218 L 211,217 L 211,216 L 213,214 L 213,213 L 215,211 L 215,210 L 219,206 L 219,205 L 221,203 L 221,202 L 224,199 L 224,198 L 225,197 L 225,196 L 227,194 L 227,193 L 229,191 L 229,190 L 230,189 L 231,189 L 231,188 L 232,187 L 232,186 L 233,185 L 233,184 L 234,183 L 235,183 L 235,182 L 239,178 L 239,174 L 236,174 L 235,173 L 233,173 L 232,172 L 224,172 L 223,171 L 222,171 L 221,172 L 220,172 L 219,171 L 218,171 L 217,170 L 206,170 L 205,169 Z" fill="black" /><path d="M 0,0 L 0,218 L 205,218 L 205,214 L 204,213 L 204,211 L 203,210 L 203,206 L 202,205 L 202,202 L 201,201 L 201,198 L 200,197 L 200,194 L 199,193 L 199,188 L 198,187 L 198,184 L 197,183 L 197,178 L 196,177 L 196,175 L 195,174 L 195,169 L 196,168 L 205,168 L 206,169 L 217,169 L 218,170 L 219,170 L 220,171 L 221,171 L 222,170 L 223,170 L 224,171 L 232,171 L 233,172 L 235,172 L 236,173 L 239,173 L 240,174 L 240,178 L 236,182 L 236,183 L 235,184 L 234,184 L 234,185 L 233,186 L 233,187 L 232,188 L 232,189 L 231,190 L 230,190 L 230,191 L 228,193 L 228,194 L 226,196 L 226,197 L 225,198 L 225,199 L 222,202 L 222,203 L 220,205 L 220,206 L 216,210 L 216,211 L 214,213 L 214,214 L 212,216 L 212,217 L 211,218 L 255,218 L 255,0 Z" fill="none" stroke="black" stroke-width="1" /></svg>