<?xml version='1.0' encoding='utf-8'?>
<svg width="260" height="224" xmlns="http://www.w3.org/2000/svg" viewBox="0 0 260 224"><rect width="260" height="224" fill="white" /><path d="M 61,90 L 60,91 L 58,91 L 57,92 L 54,92 L 52,94 L 50,94 L 46,98 L 46,99 L 45,100 L 45,101 L 42,104 L 42,119 L 46,123 L 46,124 L 48,126 L 49,126 L 50,127 L 51,127 L 53,129 L 54,129 L 55,130 L 56,130 L 57,131 L 58,130 L 59,130 L 60,131 L 69,131 L 71,129 L 73,129 L 75,127 L 76,127 L 76,126 L 81,121 L 81,119 L 83,117 L 83,109 L 84,108 L 83,107 L 83,104 L 81,102 L 81,100 L 80,99 L 80,98 L 76,94 L 75,94 L 73,92 L 69,92 L 68,91 L 66,91 L 65,90 Z" fill="black" /><path d="M 0,0 L 0,223 L 259,223 L 259,0 Z" fill="none" stroke="black" stroke-width="1" /></svg>