<?xml version='1.0' encoding='utf-8'?>
<svg width="259" height="219" xmlns="http://www.w3.org/2000/svg" viewBox="0 0 259 219"><rect width="259" height="219" fill="white" /><path d="M 94,16 L 94,19 L 92,21 L 92,23 L 91,24 L 91,25 L 88,28 L 88,30 L 87,31 L 87,32 L 86,33 L 86,35 L 85,36 L 84,36 L 84,37 L 83,38 L 83,40 L 80,43 L 80,45 L 78,47 L 78,49 L 76,51 L 76,52 L 74,54 L 74,55 L 72,57 L 72,59 L 70,61 L 70,62 L 68,64 L 68,66 L 67,67 L 67,69 L 66,70 L 66,72 L 64,74 L 64,75 L 63,76 L 62,76 L 62,77 L 61,78 L 61,79 L 60,80 L 60,81 L 58,83 L 58,85 L 56,87 L 56,88 L 54,90 L 54,92 L 52,94 L 52,95 L 51,96 L 51,97 L 50,98 L 50,99 L 49,100 L 48,100 L 48,103 L 47,104 L 46,104 L 46,105 L 45,106 L 45,107 L 44,108 L 44,110 L 43,111 L 43,112 L 42,113 L 42,114 L 40,116 L 40,117 L 39,118 L 39,120 L 36,123 L 36,125 L 35,126 L 34,126 L 34,127 L 33,128 L 33,130 L 31,132 L 30,132 L 29,133 L 29,135 L 32,138 L 33,138 L 34,139 L 35,139 L 36,140 L 37,140 L 38,141 L 39,141 L 40,142 L 41,142 L 42,143 L 43,143 L 44,144 L 45,144 L 46,145 L 47,145 L 48,146 L 49,146 L 50,147 L 51,147 L 53,149 L 55,149 L 56,150 L 57,150 L 58,151 L 59,151 L 61,153 L 63,153 L 65,155 L 67,155 L 69,157 L 71,157 L 73,159 L 75,159 L 77,161 L 79,161 L 81,163 L 83,163 L 85,165 L 86,165 L 88,167 L 91,167 L 92,168 L 92,169 L 94,169 L 95,170 L 96,170 L 97,171 L 98,171 L 100,173 L 102,173 L 104,175 L 106,175 L 108,177 L 109,177 L 110,178 L 111,178 L 112,179 L 114,179 L 116,181 L 117,181 L 119,183 L 121,183 L 122,184 L 123,184 L 124,185 L 126,185 L 128,187 L 129,187 L 131,189 L 133,189 L 134,190 L 134,191 L 135,191 L 136,192 L 137,192 L 138,193 L 141,193 L 143,195 L 145,195 L 147,197 L 150,197 L 152,199 L 154,199 L 154,198 L 155,197 L 155,196 L 156,195 L 157,195 L 157,194 L 158,193 L 158,192 L 159,191 L 159,190 L 161,188 L 161,187 L 163,185 L 163,183 L 165,181 L 165,180 L 167,178 L 167,177 L 168,176 L 168,175 L 171,172 L 171,170 L 172,169 L 172,168 L 173,167 L 173,166 L 174,165 L 175,165 L 175,163 L 177,161 L 177,160 L 178,159 L 178,158 L 179,157 L 179,156 L 180,155 L 180,154 L 181,153 L 181,152 L 183,150 L 183,148 L 184,147 L 185,147 L 185,145 L 187,143 L 187,142 L 189,140 L 189,139 L 190,138 L 190,136 L 191,135 L 191,134 L 192,133 L 193,133 L 193,132 L 195,130 L 195,128 L 196,127 L 196,126 L 198,124 L 198,122 L 199,121 L 199,120 L 200,119 L 201,119 L 201,118 L 203,116 L 203,114 L 205,112 L 205,111 L 207,109 L 207,107 L 209,105 L 209,104 L 210,103 L 210,102 L 211,101 L 211,100 L 213,98 L 213,96 L 214,95 L 215,95 L 215,94 L 216,93 L 216,92 L 217,91 L 217,90 L 218,89 L 219,89 L 219,88 L 220,87 L 220,86 L 221,85 L 221,83 L 223,81 L 223,80 L 224,79 L 225,79 L 225,78 L 226,77 L 226,76 L 227,75 L 227,74 L 228,73 L 228,72 L 229,71 L 229,68 L 226,68 L 225,67 L 224,67 L 223,66 L 220,66 L 218,64 L 215,64 L 213,62 L 210,62 L 209,61 L 208,61 L 207,60 L 206,60 L 205,59 L 204,59 L 203,58 L 201,58 L 199,56 L 196,56 L 195,55 L 194,55 L 193,54 L 190,54 L 188,52 L 186,52 L 185,51 L 184,51 L 183,50 L 181,50 L 179,48 L 176,48 L 175,47 L 174,47 L 173,46 L 171,46 L 169,44 L 166,44 L 165,43 L 164,43 L 163,42 L 162,42 L 161,41 L 160,41 L 159,40 L 157,40 L 156,39 L 155,39 L 154,38 L 152,38 L 151,37 L 150,37 L 149,36 L 147,36 L 145,34 L 142,34 L 141,33 L 140,33 L 139,32 L 137,32 L 135,30 L 132,30 L 131,29 L 130,29 L 129,28 L 127,28 L 126,27 L 125,27 L 124,26 L 122,26 L 121,25 L 120,25 L 119,24 L 118,24 L 117,23 L 116,23 L 115,22 L 112,22 L 111,21 L 110,21 L 109,20 L 107,20 L 105,18 L 102,18 L 100,16 Z" fill="black" /></svg>