<?xml version='1.0' encoding='utf-8'?>
<svg width="258" height="219" xmlns="http://www.w3.org/2000/svg" viewBox="0 0 258 219"><rect width="258" height="219" fill="white" /><path d="M 119,17 L 119,18 L 118,19 L 118,21 L 117,22 L 117,23 L 115,25 L 115,27 L 114,28 L 114,29 L 113,30 L 113,31 L 112,32 L 112,33 L 111,34 L 111,35 L 110,36 L 110,37 L 109,38 L 109,39 L 108,40 L 108,41 L 107,42 L 107,43 L 106,44 L 106,45 L 105,46 L 105,47 L 103,49 L 103,51 L 101,53 L 101,55 L 99,57 L 99,59 L 97,61 L 97,63 L 95,65 L 95,67 L 93,69 L 93,71 L 91,73 L 91,75 L 89,77 L 89,79 L 87,81 L 87,83 L 86,84 L 85,84 L 85,87 L 83,89 L 83,91 L 81,93 L 81,94 L 79,96 L 79,99 L 78,100 L 77,100 L 77,102 L 76,103 L 76,104 L 75,105 L 75,107 L 74,108 L 73,108 L 73,110 L 71,112 L 71,114 L 69,116 L 69,118 L 67,120 L 67,122 L 65,124 L 65,126 L 63,128 L 63,130 L 61,132 L 61,134 L 59,136 L 59,137 L 58,138 L 58,139 L 57,140 L 57,142 L 55,144 L 55,145 L 54,146 L 54,147 L 53,148 L 53,149 L 52,150 L 52,151 L 51,152 L 51,153 L 50,154 L 50,155 L 49,156 L 49,157 L 48,158 L 48,159 L 47,160 L 47,161 L 45,163 L 45,165 L 43,167 L 43,169 L 41,171 L 41,172 L 39,174 L 39,176 L 37,178 L 37,180 L 35,182 L 35,183 L 33,185 L 33,187 L 34,188 L 35,187 L 102,187 L 103,186 L 130,186 L 131,185 L 193,185 L 194,184 L 194,182 L 193,181 L 193,179 L 192,178 L 192,176 L 191,175 L 191,174 L 190,173 L 190,171 L 188,169 L 188,167 L 186,165 L 186,162 L 184,160 L 184,158 L 183,157 L 183,156 L 182,155 L 182,153 L 180,151 L 180,149 L 179,148 L 179,147 L 178,146 L 178,145 L 177,144 L 177,143 L 176,142 L 176,140 L 175,139 L 175,138 L 174,137 L 174,136 L 173,135 L 173,134 L 172,133 L 172,132 L 171,131 L 171,130 L 170,129 L 170,126 L 168,124 L 168,122 L 166,120 L 166,118 L 165,117 L 165,116 L 164,115 L 164,113 L 162,111 L 162,108 L 160,106 L 160,104 L 159,103 L 159,102 L 158,101 L 158,99 L 156,97 L 156,95 L 155,94 L 155,93 L 154,92 L 154,90 L 152,88 L 152,86 L 151,85 L 151,84 L 150,83 L 150,82 L 149,81 L 149,80 L 148,79 L 148,76 L 146,74 L 146,72 L 145,71 L 145,70 L 144,69 L 144,68 L 143,67 L 143,66 L 142,65 L 142,62 L 140,60 L 140,58 L 138,56 L 138,54 L 137,53 L 137,52 L 136,51 L 136,49 L 134,47 L 134,44 L 133,44 L 132,43 L 132,40 L 130,38 L 130,36 L 129,35 L 129,34 L 128,33 L 128,32 L 127,31 L 127,30 L 126,29 L 126,27 L 124,25 L 124,22 L 123,22 L 122,21 L 122,18 L 121,17 Z" fill="black" /><path d="M 0,0 L 0,218 L 257,218 L 257,0 Z" fill="none" stroke="black" stroke-width="1" /></svg>