<?xml version='1.0' encoding='utf-8'?>
<svg width="259" height="222" xmlns="http://www.w3.org/2000/svg" viewBox="0 0 259 222"><rect width="259" height="222" fill="white" /><path d="M 29,19 L 28,20 L 25,20 L 25,21 L 24,22 L 22,22 L 17,27 L 17,28 L 15,30 L 15,31 L 14,32 L 14,35 L 13,36 L 13,45 L 14,46 L 14,47 L 15,48 L 15,50 L 17,52 L 17,53 L 18,54 L 18,55 L 19,56 L 20,56 L 23,59 L 27,59 L 29,61 L 42,61 L 43,60 L 44,60 L 45,59 L 46,59 L 47,58 L 48,58 L 54,52 L 54,50 L 55,49 L 56,49 L 56,42 L 57,41 L 57,37 L 56,36 L 56,32 L 54,30 L 54,28 L 53,28 L 52,27 L 52,26 L 48,22 L 46,22 L 44,20 L 41,20 L 40,19 Z" fill="black" /><path d="M 0,0 L 0,221 L 258,221 L 258,0 Z" fill="none" stroke="black" stroke-width="1" /></svg>