<?xml version='1.0' encoding='utf-8'?>
<svg width="261" height="218" xmlns="http://www.w3.org/2000/svg" viewBox="0 0 261 218"><rect width="261" height="218" fill="white" /><path d="M 140,171 L 139,172 L 135,172 L 131,176 L 130,176 L 128,178 L 128,187 L 129,188 L 129,189 L 130,190 L 130,192 L 134,196 L 135,196 L 136,197 L 145,197 L 146,196 L 147,196 L 148,195 L 149,195 L 151,193 L 151,191 L 153,189 L 153,179 L 151,177 L 151,176 L 149,174 L 148,174 L 147,173 L 147,172 L 144,172 L 143,171 Z" fill="black" /><path d="M 126,75 L 125,76 L 122,76 L 118,80 L 118,81 L 117,82 L 117,83 L 116,84 L 116,91 L 117,92 L 117,93 L 118,94 L 118,95 L 119,96 L 119,97 L 121,99 L 122,99 L 124,101 L 132,101 L 134,99 L 137,99 L 137,98 L 139,96 L 139,95 L 141,93 L 141,90 L 142,89 L 142,87 L 141,86 L 141,82 L 139,80 L 139,79 L 138,78 L 137,78 L 135,76 L 133,76 L 132,75 Z" fill="black" /><path d="M 44,20 L 43,21 L 41,21 L 40,22 L 38,22 L 38,23 L 37,24 L 36,24 L 34,26 L 33,26 L 32,27 L 32,28 L 31,29 L 31,31 L 30,32 L 30,37 L 31,38 L 31,39 L 32,40 L 32,42 L 36,46 L 37,46 L 38,47 L 40,47 L 41,48 L 45,48 L 46,47 L 49,47 L 53,43 L 53,42 L 55,40 L 55,34 L 56,33 L 55,32 L 55,28 L 54,27 L 54,26 L 53,25 L 53,24 L 52,24 L 50,22 L 49,22 L 48,21 L 46,21 L 45,20 Z" fill="black" /><path d="M 206,10 L 205,11 L 204,11 L 203,12 L 202,12 L 198,16 L 198,17 L 197,18 L 197,19 L 196,20 L 196,26 L 198,28 L 198,30 L 202,34 L 203,34 L 204,35 L 206,35 L 207,36 L 208,36 L 209,37 L 210,36 L 213,36 L 214,35 L 215,35 L 216,34 L 217,34 L 219,32 L 219,31 L 221,29 L 221,26 L 222,25 L 222,20 L 221,19 L 221,17 L 219,15 L 219,14 L 218,14 L 217,13 L 217,12 L 216,12 L 215,11 L 214,11 L 213,10 Z" fill="black" /></svg>