<?xml version='1.0' encoding='utf-8'?>
<svg width="260" height="213" xmlns="http://www.w3.org/2000/svg" viewBox="0 0 260 213"><rect width="260" height="213" fill="white" /><path d="M 199,118 L 198,119 L 195,119 L 194,120 L 192,120 L 192,121 L 191,122 L 190,122 L 188,124 L 188,126 L 187,127 L 187,129 L 186,130 L 186,133 L 187,134 L 187,135 L 188,136 L 188,137 L 189,138 L 189,139 L 192,142 L 193,142 L 194,143 L 195,143 L 196,144 L 203,144 L 204,143 L 206,143 L 210,139 L 210,138 L 211,137 L 211,136 L 212,135 L 212,129 L 211,128 L 211,125 L 206,120 L 204,120 L 203,119 L 201,119 L 200,118 Z" fill="black" /><path d="M 46,53 L 45,54 L 42,54 L 40,56 L 39,56 L 39,57 L 36,60 L 36,65 L 35,66 L 36,67 L 36,70 L 37,71 L 37,72 L 42,77 L 43,77 L 44,78 L 46,78 L 47,79 L 51,79 L 52,78 L 53,78 L 54,77 L 55,77 L 56,76 L 57,76 L 58,75 L 59,75 L 59,74 L 60,73 L 60,72 L 61,71 L 61,60 L 60,60 L 59,59 L 59,58 L 55,54 L 52,54 L 51,53 Z" fill="black" /><path d="M 142,45 L 141,46 L 138,46 L 136,48 L 135,48 L 134,49 L 134,50 L 132,52 L 132,53 L 131,54 L 131,55 L 130,56 L 130,61 L 131,62 L 131,63 L 132,64 L 132,65 L 136,69 L 137,69 L 138,70 L 139,70 L 140,71 L 146,71 L 147,70 L 149,70 L 150,69 L 151,69 L 154,66 L 154,65 L 155,64 L 155,62 L 156,61 L 156,60 L 157,59 L 157,55 L 155,53 L 155,52 L 151,48 L 150,48 L 148,46 L 144,46 L 143,45 Z" fill="black" /><path d="M 225,41 L 224,42 L 220,42 L 217,45 L 216,45 L 216,46 L 214,48 L 214,50 L 213,51 L 213,52 L 212,53 L 213,54 L 213,57 L 214,58 L 214,61 L 216,63 L 217,63 L 218,64 L 218,65 L 219,65 L 220,66 L 221,66 L 222,67 L 229,67 L 230,66 L 231,66 L 232,65 L 233,65 L 233,64 L 234,63 L 235,63 L 235,62 L 237,60 L 237,58 L 238,57 L 238,51 L 237,50 L 237,48 L 233,44 L 232,44 L 230,42 L 226,42 Z" fill="black" /></svg>