<?xml version='1.0' encoding='utf-8'?>
<svg width="259" height="219" xmlns="http://www.w3.org/2000/svg" viewBox="0 0 259 219"><rect width="259" height="219" fill="white" /><path d="M 235,159 L 234,160 L 231,160 L 225,166 L 225,169 L 224,170 L 224,173 L 225,174 L 225,177 L 226,177 L 227,178 L 227,179 L 229,181 L 230,181 L 232,183 L 242,183 L 243,182 L 244,182 L 245,181 L 246,181 L 248,179 L 248,178 L 250,176 L 250,174 L 251,173 L 251,172 L 250,171 L 250,166 L 247,163 L 247,162 L 246,162 L 244,160 L 241,160 L 240,159 Z" fill="black" /><path d="M 155,107 L 154,108 L 148,108 L 146,110 L 145,110 L 141,114 L 141,117 L 140,118 L 140,119 L 139,120 L 139,123 L 140,124 L 140,125 L 141,126 L 141,127 L 142,128 L 142,129 L 144,131 L 145,131 L 146,132 L 149,132 L 150,133 L 156,133 L 157,132 L 158,132 L 159,131 L 160,131 L 163,128 L 164,128 L 165,127 L 165,123 L 166,122 L 166,116 L 164,114 L 164,113 L 162,111 L 162,110 L 161,110 L 159,108 L 157,108 L 156,107 Z" fill="black" /><path d="M 66,54 L 65,55 L 64,55 L 63,56 L 62,56 L 60,58 L 60,59 L 59,60 L 59,61 L 58,62 L 58,63 L 57,64 L 57,70 L 58,71 L 58,72 L 59,73 L 59,74 L 61,76 L 61,77 L 62,77 L 64,79 L 66,79 L 67,80 L 72,80 L 73,79 L 76,79 L 78,77 L 79,77 L 80,76 L 80,74 L 81,73 L 82,73 L 82,70 L 83,69 L 83,66 L 82,65 L 82,62 L 80,60 L 80,59 L 77,56 L 76,56 L 74,54 Z" fill="black" /><path d="M 225,13 L 224,14 L 223,14 L 222,15 L 221,15 L 218,18 L 218,19 L 217,20 L 217,21 L 216,22 L 216,26 L 215,27 L 216,28 L 216,30 L 217,31 L 217,33 L 221,37 L 222,37 L 224,39 L 232,39 L 233,38 L 234,38 L 235,37 L 236,37 L 238,35 L 238,34 L 239,33 L 240,33 L 240,30 L 241,29 L 241,24 L 240,23 L 240,19 L 238,17 L 238,16 L 236,14 L 233,14 L 232,13 Z" fill="black" /></svg>