<?xml version='1.0' encoding='utf-8'?>
<svg width="258" height="216" xmlns="http://www.w3.org/2000/svg" viewBox="0 0 258 216"><rect width="258" height="216" fill="white" /><path d="M 51,139 L 50,140 L 47,140 L 45,142 L 44,142 L 42,144 L 42,146 L 41,147 L 41,155 L 42,156 L 42,157 L 43,158 L 43,159 L 44,160 L 44,161 L 45,161 L 47,163 L 49,163 L 51,165 L 57,165 L 58,164 L 59,164 L 60,163 L 61,163 L 65,159 L 65,157 L 66,156 L 66,154 L 67,153 L 67,151 L 66,150 L 66,148 L 65,147 L 65,146 L 64,145 L 64,144 L 62,142 L 61,142 L 59,140 L 56,140 L 55,139 Z" fill="black" /><path d="M 168,131 L 167,132 L 164,132 L 164,133 L 163,134 L 162,134 L 160,136 L 160,137 L 158,139 L 158,147 L 159,148 L 159,149 L 162,152 L 162,153 L 163,153 L 165,155 L 166,155 L 167,156 L 168,156 L 169,157 L 174,157 L 175,156 L 177,156 L 178,155 L 179,155 L 181,153 L 181,152 L 183,150 L 183,139 L 181,137 L 181,136 L 179,134 L 178,134 L 176,132 L 173,132 L 172,131 Z" fill="black" /><path d="M 218,34 L 216,36 L 216,37 L 215,38 L 214,38 L 214,39 L 213,40 L 213,41 L 212,42 L 212,48 L 211,49 L 212,50 L 212,52 L 214,54 L 214,55 L 215,55 L 216,56 L 216,57 L 217,57 L 218,58 L 219,58 L 220,59 L 230,59 L 232,57 L 233,57 L 235,55 L 235,54 L 237,52 L 237,43 L 235,41 L 235,40 L 234,39 L 234,38 L 232,36 L 231,36 L 229,34 Z" fill="black" /><path d="M 126,32 L 125,33 L 122,33 L 121,34 L 118,34 L 116,36 L 116,37 L 115,38 L 115,39 L 114,40 L 114,43 L 113,44 L 113,47 L 114,48 L 114,51 L 116,53 L 116,54 L 119,57 L 121,57 L 122,58 L 126,58 L 127,59 L 128,58 L 131,58 L 132,57 L 133,57 L 134,56 L 135,56 L 135,55 L 137,53 L 137,52 L 138,51 L 138,49 L 139,48 L 139,45 L 138,44 L 138,42 L 137,41 L 137,39 L 133,35 L 132,35 L 131,34 L 130,34 L 129,33 L 128,33 L 127,32 Z" fill="black" /><path d="M 0,0 L 0,215 L 257,215 L 257,0 Z" fill="none" stroke="black" stroke-width="1" /></svg>