<?xml version='1.0' encoding='utf-8'?>
<svg width="257" height="219" xmlns="http://www.w3.org/2000/svg" viewBox="0 0 257 219"><rect width="257" height="219" fill="white" /><path d="M 42,161 L 41,162 L 38,162 L 36,164 L 35,164 L 32,167 L 32,168 L 30,170 L 30,179 L 33,182 L 33,183 L 35,185 L 36,185 L 37,186 L 38,186 L 39,187 L 47,187 L 48,186 L 49,186 L 50,185 L 51,185 L 53,183 L 53,182 L 55,180 L 55,178 L 56,177 L 56,176 L 57,175 L 57,173 L 56,172 L 56,170 L 55,169 L 55,167 L 51,163 L 50,163 L 49,162 L 44,162 L 43,161 Z" fill="black" /><path d="M 34,108 L 33,109 L 32,109 L 31,110 L 30,110 L 28,112 L 26,112 L 26,114 L 25,115 L 25,116 L 24,117 L 24,123 L 25,124 L 25,125 L 26,126 L 26,127 L 30,131 L 31,131 L 32,132 L 33,132 L 34,133 L 39,133 L 40,132 L 41,132 L 42,131 L 45,131 L 49,127 L 49,125 L 50,124 L 50,122 L 51,121 L 51,119 L 50,118 L 50,117 L 49,116 L 49,114 L 48,114 L 47,113 L 47,112 L 45,110 L 44,110 L 43,109 L 42,109 L 41,108 Z" fill="black" /><path d="M 30,48 L 29,49 L 28,49 L 27,50 L 26,50 L 24,52 L 23,52 L 23,53 L 22,54 L 22,55 L 20,57 L 20,67 L 26,73 L 27,73 L 28,74 L 29,74 L 30,75 L 35,75 L 36,74 L 37,74 L 38,73 L 40,73 L 45,68 L 45,64 L 46,63 L 46,60 L 45,59 L 45,56 L 44,55 L 44,54 L 40,50 L 39,50 L 38,49 L 37,49 L 36,48 Z" fill="black" /><path d="M 212,27 L 211,28 L 208,28 L 207,29 L 206,29 L 204,31 L 204,32 L 202,34 L 202,37 L 201,38 L 201,42 L 202,43 L 202,47 L 205,50 L 205,51 L 207,51 L 208,52 L 208,53 L 219,53 L 220,52 L 221,52 L 222,51 L 223,51 L 225,49 L 225,48 L 226,47 L 226,46 L 227,45 L 227,36 L 226,35 L 226,34 L 223,31 L 223,30 L 222,30 L 221,29 L 220,29 L 219,28 L 216,28 L 215,27 Z" fill="black" /><path d="M 0,0 L 0,218 L 256,218 L 256,0 Z" fill="none" stroke="black" stroke-width="1" /></svg>