<?xml version='1.0' encoding='utf-8'?>
<svg width="261" height="219" xmlns="http://www.w3.org/2000/svg" viewBox="0 0 261 219"><rect width="261" height="219" fill="white" /><path d="M 34,179 L 33,180 L 30,180 L 28,182 L 27,182 L 25,184 L 25,185 L 24,186 L 24,187 L 23,188 L 23,194 L 25,196 L 25,197 L 26,198 L 26,199 L 27,200 L 28,200 L 29,201 L 30,201 L 31,202 L 32,202 L 33,203 L 40,203 L 41,202 L 42,202 L 46,198 L 46,196 L 48,194 L 48,187 L 46,185 L 46,184 L 45,184 L 41,180 L 38,180 L 37,179 Z" fill="black" /><path d="M 164,160 L 163,161 L 162,161 L 161,162 L 159,162 L 157,164 L 157,165 L 155,167 L 155,177 L 157,179 L 157,180 L 160,183 L 162,183 L 163,184 L 166,184 L 167,185 L 169,185 L 170,184 L 171,184 L 172,183 L 174,183 L 174,182 L 175,181 L 176,181 L 178,179 L 178,178 L 179,177 L 179,176 L 180,175 L 179,174 L 179,168 L 178,167 L 178,166 L 174,162 L 173,162 L 172,161 L 171,161 L 170,160 Z" fill="black" /><path d="M 87,148 L 86,149 L 85,149 L 84,150 L 83,150 L 79,154 L 79,156 L 78,157 L 78,160 L 77,161 L 78,162 L 78,165 L 79,166 L 79,167 L 80,168 L 80,169 L 82,171 L 83,171 L 85,173 L 87,173 L 88,174 L 94,174 L 95,173 L 97,173 L 99,171 L 100,171 L 100,170 L 102,168 L 102,166 L 103,165 L 103,164 L 104,163 L 104,161 L 103,160 L 103,158 L 102,157 L 102,154 L 101,154 L 100,153 L 100,152 L 98,150 L 96,150 L 94,148 Z" fill="black" /><path d="M 147,60 L 146,61 L 145,61 L 144,62 L 142,62 L 139,65 L 139,66 L 137,68 L 137,72 L 136,73 L 136,75 L 137,76 L 137,79 L 139,81 L 139,82 L 142,85 L 144,85 L 145,86 L 146,86 L 147,87 L 152,87 L 153,86 L 154,86 L 155,85 L 156,85 L 162,79 L 162,70 L 160,68 L 160,66 L 158,64 L 157,64 L 155,62 L 153,62 L 152,61 L 151,61 L 150,60 Z" fill="black" /><path d="M 43,52 L 41,54 L 40,54 L 38,56 L 38,57 L 37,58 L 37,59 L 35,61 L 35,69 L 37,71 L 37,73 L 41,77 L 44,77 L 45,78 L 48,78 L 49,79 L 50,78 L 52,78 L 53,77 L 54,77 L 56,75 L 57,75 L 59,73 L 59,72 L 60,71 L 60,69 L 61,68 L 61,62 L 60,61 L 60,59 L 58,57 L 58,56 L 57,56 L 56,55 L 56,54 L 55,54 L 54,53 L 53,53 L 52,52 Z" fill="black" /><path d="M 205,14 L 204,15 L 202,15 L 201,16 L 199,16 L 195,20 L 195,22 L 194,23 L 194,28 L 195,29 L 195,31 L 196,31 L 197,32 L 197,35 L 198,35 L 200,37 L 203,37 L 204,38 L 210,38 L 211,37 L 213,37 L 215,35 L 216,35 L 218,33 L 218,31 L 220,29 L 220,24 L 219,23 L 219,22 L 218,21 L 218,20 L 214,16 L 212,16 L 210,14 Z" fill="black" /></svg>