<?xml version='1.0' encoding='utf-8'?>
<svg width="261" height="219" xmlns="http://www.w3.org/2000/svg" viewBox="0 0 261 219"><rect width="261" height="219" fill="white" /><path d="M 97,175 L 96,176 L 95,176 L 94,177 L 92,177 L 89,180 L 89,181 L 87,183 L 87,192 L 89,194 L 89,196 L 91,198 L 92,198 L 93,199 L 94,199 L 95,200 L 97,200 L 98,201 L 102,201 L 103,200 L 106,200 L 110,196 L 110,195 L 112,193 L 112,183 L 106,177 L 103,177 L 102,176 L 101,176 L 100,175 Z" fill="black" /><path d="M 30,139 L 29,140 L 27,140 L 26,141 L 25,141 L 23,143 L 23,144 L 21,146 L 21,150 L 20,151 L 20,152 L 21,153 L 21,155 L 23,157 L 23,158 L 24,158 L 26,160 L 27,160 L 29,162 L 36,162 L 37,161 L 38,161 L 42,157 L 42,156 L 43,155 L 43,153 L 44,152 L 44,147 L 42,145 L 42,144 L 40,142 L 40,141 L 38,141 L 36,139 Z" fill="black" /><path d="M 233,127 L 231,129 L 227,129 L 227,130 L 226,131 L 223,131 L 223,132 L 221,134 L 221,137 L 220,138 L 220,139 L 219,140 L 219,142 L 220,143 L 220,144 L 221,145 L 221,147 L 226,152 L 227,152 L 228,153 L 236,153 L 237,152 L 238,152 L 244,146 L 244,141 L 245,140 L 245,137 L 244,136 L 244,134 L 242,132 L 242,131 L 240,129 L 237,129 L 236,128 L 236,127 Z" fill="black" /><path d="M 159,109 L 158,110 L 157,110 L 156,111 L 155,111 L 151,115 L 151,117 L 150,118 L 150,119 L 149,120 L 149,124 L 150,125 L 150,126 L 151,127 L 151,128 L 153,130 L 153,131 L 156,134 L 159,134 L 160,135 L 166,135 L 167,134 L 169,134 L 171,132 L 172,132 L 172,131 L 174,129 L 174,127 L 175,126 L 175,120 L 174,119 L 174,116 L 171,113 L 170,113 L 168,111 L 167,111 L 166,110 L 164,110 L 163,109 Z" fill="black" /><path d="M 98,77 L 97,78 L 96,78 L 95,79 L 94,79 L 92,81 L 92,82 L 91,83 L 91,86 L 90,87 L 90,91 L 91,92 L 91,94 L 93,96 L 94,96 L 95,97 L 95,98 L 96,98 L 97,99 L 98,99 L 99,100 L 107,100 L 109,98 L 110,98 L 112,96 L 112,95 L 114,93 L 114,90 L 115,89 L 115,87 L 114,86 L 114,84 L 112,82 L 112,81 L 110,79 L 108,79 L 106,77 Z" fill="black" /><path d="M 220,47 L 219,48 L 218,48 L 217,49 L 216,49 L 214,51 L 213,51 L 213,53 L 211,55 L 211,65 L 213,67 L 213,68 L 215,70 L 216,70 L 218,72 L 221,72 L 222,73 L 225,73 L 226,72 L 229,72 L 231,70 L 232,70 L 232,69 L 236,65 L 236,57 L 235,56 L 235,55 L 234,54 L 234,53 L 232,51 L 231,51 L 229,49 L 227,49 L 226,48 L 225,48 L 224,47 Z" fill="black" /></svg>