<?xml version='1.0' encoding='utf-8'?>
<svg width="256" height="219" xmlns="http://www.w3.org/2000/svg" viewBox="0 0 256 219"><rect width="256" height="219" fill="white" /><path d="M 75,180 L 74,181 L 73,181 L 72,182 L 70,182 L 67,185 L 67,187 L 66,188 L 66,195 L 67,196 L 67,197 L 68,198 L 68,199 L 70,201 L 71,201 L 73,203 L 76,203 L 77,204 L 80,204 L 81,203 L 83,203 L 85,201 L 86,201 L 88,199 L 88,198 L 89,197 L 89,196 L 90,195 L 90,187 L 88,185 L 88,184 L 86,182 L 85,182 L 84,181 L 83,181 L 82,180 Z" fill="black" /><path d="M 233,138 L 232,139 L 229,139 L 228,140 L 227,140 L 227,141 L 226,142 L 225,142 L 225,143 L 224,144 L 223,144 L 223,145 L 222,146 L 222,147 L 221,148 L 221,155 L 223,157 L 223,158 L 225,160 L 225,161 L 226,161 L 228,163 L 241,163 L 242,162 L 242,161 L 246,157 L 246,156 L 247,155 L 247,150 L 246,149 L 246,146 L 243,143 L 243,142 L 242,142 L 240,140 L 238,140 L 236,138 Z" fill="black" /><path d="M 145,105 L 144,106 L 143,106 L 141,108 L 140,108 L 137,111 L 137,113 L 136,114 L 136,116 L 135,117 L 135,120 L 136,121 L 136,123 L 137,124 L 137,125 L 141,129 L 143,129 L 144,130 L 150,130 L 151,129 L 153,129 L 155,127 L 156,127 L 160,123 L 160,121 L 161,120 L 161,115 L 160,114 L 160,112 L 154,106 L 151,106 L 150,105 Z" fill="black" /><path d="M 80,84 L 79,85 L 78,85 L 73,90 L 73,91 L 72,92 L 72,99 L 73,100 L 73,101 L 74,102 L 74,103 L 76,105 L 78,105 L 79,106 L 81,106 L 82,107 L 83,106 L 88,106 L 89,105 L 91,105 L 94,102 L 94,101 L 95,100 L 95,98 L 96,97 L 96,92 L 95,91 L 95,90 L 94,89 L 94,88 L 93,88 L 90,85 L 89,85 L 88,84 Z" fill="black" /><path d="M 23,72 L 21,74 L 20,74 L 17,77 L 17,78 L 15,80 L 15,89 L 16,89 L 17,90 L 17,92 L 20,95 L 21,95 L 22,96 L 24,96 L 25,97 L 26,97 L 27,96 L 31,96 L 32,95 L 34,95 L 34,94 L 35,93 L 36,93 L 38,91 L 38,90 L 39,89 L 39,88 L 40,87 L 40,80 L 39,79 L 39,78 L 38,77 L 38,76 L 37,76 L 36,75 L 36,74 L 35,74 L 33,72 Z" fill="black" /><path d="M 85,26 L 84,27 L 83,27 L 82,28 L 81,28 L 80,29 L 79,29 L 79,30 L 75,34 L 75,43 L 79,47 L 80,47 L 81,48 L 82,48 L 83,49 L 92,49 L 93,48 L 94,48 L 95,47 L 96,47 L 98,45 L 98,43 L 99,42 L 99,41 L 100,40 L 100,35 L 98,33 L 98,32 L 94,28 L 92,28 L 91,27 L 89,27 L 88,26 Z" fill="black" /></svg>