<?xml version='1.0' encoding='utf-8'?>
<svg width="264" height="218" xmlns="http://www.w3.org/2000/svg" viewBox="0 0 264 218"><rect width="264" height="218" fill="white" /><path d="M 131,188 L 130,189 L 129,189 L 128,190 L 127,190 L 125,192 L 125,194 L 124,195 L 124,197 L 123,198 L 123,201 L 124,202 L 124,203 L 125,204 L 125,205 L 127,207 L 128,207 L 131,210 L 132,210 L 133,211 L 140,211 L 142,209 L 143,209 L 145,207 L 146,207 L 146,206 L 147,205 L 147,204 L 148,203 L 148,195 L 146,193 L 146,192 L 144,190 L 142,190 L 140,188 Z" fill="black" /><path d="M 235,143 L 234,144 L 231,144 L 227,148 L 227,149 L 226,150 L 225,150 L 225,153 L 224,154 L 224,159 L 225,160 L 225,162 L 227,164 L 227,165 L 229,167 L 230,167 L 231,168 L 232,168 L 233,169 L 237,169 L 238,170 L 239,169 L 242,169 L 244,167 L 245,167 L 248,164 L 248,162 L 249,161 L 249,160 L 250,159 L 250,154 L 249,153 L 249,152 L 248,151 L 248,150 L 247,149 L 247,148 L 244,145 L 243,145 L 242,144 L 239,144 L 238,143 Z" fill="black" /><path d="M 73,139 L 72,140 L 69,140 L 68,141 L 67,141 L 66,142 L 65,142 L 65,143 L 63,145 L 63,146 L 62,147 L 62,148 L 61,149 L 61,156 L 63,158 L 63,159 L 64,160 L 64,161 L 65,162 L 66,162 L 67,163 L 68,163 L 70,165 L 79,165 L 81,163 L 82,163 L 84,161 L 84,160 L 85,159 L 86,159 L 86,157 L 87,156 L 87,150 L 86,149 L 86,146 L 85,146 L 84,145 L 84,142 L 81,142 L 79,140 L 75,140 L 74,139 Z" fill="black" /><path d="M 125,102 L 124,103 L 123,103 L 122,104 L 121,104 L 121,105 L 120,106 L 119,106 L 117,108 L 117,110 L 115,112 L 115,114 L 117,116 L 117,117 L 116,118 L 116,119 L 117,120 L 117,121 L 118,121 L 120,123 L 121,123 L 123,125 L 124,125 L 125,126 L 133,126 L 134,125 L 135,125 L 138,122 L 138,121 L 139,120 L 139,119 L 140,118 L 140,111 L 138,109 L 138,107 L 137,106 L 136,106 L 134,104 L 132,104 L 130,102 Z" fill="black" /><path d="M 188,58 L 187,59 L 186,59 L 185,60 L 183,60 L 179,64 L 179,65 L 177,67 L 177,77 L 178,78 L 178,79 L 179,80 L 179,81 L 181,83 L 182,83 L 183,84 L 184,84 L 185,85 L 188,85 L 189,86 L 190,86 L 191,85 L 195,85 L 197,83 L 199,83 L 200,82 L 200,81 L 202,79 L 202,76 L 203,75 L 203,73 L 202,72 L 202,69 L 201,68 L 201,67 L 200,66 L 200,65 L 198,63 L 198,62 L 197,62 L 195,60 L 193,60 L 192,59 L 191,59 L 190,58 Z" fill="black" /><path d="M 42,33 L 41,34 L 36,34 L 35,35 L 34,35 L 33,36 L 32,36 L 30,38 L 30,39 L 29,40 L 29,43 L 28,44 L 28,47 L 29,48 L 29,49 L 30,50 L 30,52 L 33,55 L 35,55 L 37,57 L 45,57 L 46,56 L 47,56 L 48,55 L 49,55 L 51,53 L 51,52 L 52,51 L 52,50 L 53,49 L 53,42 L 52,41 L 52,39 L 50,37 L 50,36 L 48,36 L 46,34 L 45,34 L 44,33 Z" fill="black" /><path d="M 0,0 L 0,217 L 263,217 L 263,0 Z" fill="none" stroke="black" stroke-width="1" /></svg>