<?xml version='1.0' encoding='utf-8'?>
<svg width="259" height="220" xmlns="http://www.w3.org/2000/svg" viewBox="0 0 259 220"><rect width="259" height="220" fill="white" /><path d="M 48,193 L 44,197 L 43,197 L 42,198 L 42,208 L 45,211 L 45,212 L 47,212 L 48,213 L 48,214 L 49,214 L 50,215 L 51,215 L 52,216 L 54,216 L 55,215 L 59,215 L 60,214 L 61,214 L 63,212 L 63,211 L 65,209 L 65,207 L 66,206 L 66,205 L 67,204 L 67,203 L 66,202 L 66,201 L 65,200 L 65,198 L 62,195 L 61,195 L 59,193 Z" fill="black" /><path d="M 83,161 L 82,162 L 80,162 L 79,163 L 78,163 L 76,165 L 76,166 L 74,168 L 74,175 L 76,177 L 76,180 L 78,180 L 80,182 L 81,182 L 82,183 L 83,183 L 84,184 L 91,184 L 92,183 L 93,183 L 97,179 L 97,177 L 99,175 L 99,171 L 97,169 L 97,167 L 93,163 L 91,163 L 90,162 L 89,162 L 88,161 Z" fill="black" /><path d="M 228,159 L 227,160 L 226,160 L 225,161 L 221,161 L 219,163 L 218,163 L 218,164 L 217,165 L 217,166 L 216,167 L 216,175 L 218,177 L 218,178 L 220,180 L 221,180 L 223,182 L 233,182 L 235,180 L 236,180 L 239,177 L 239,176 L 241,174 L 241,168 L 240,167 L 240,164 L 238,162 L 236,162 L 235,161 L 233,161 L 231,159 Z" fill="black" /><path d="M 133,110 L 132,111 L 128,111 L 126,113 L 125,113 L 122,116 L 122,126 L 126,130 L 127,130 L 128,131 L 128,132 L 129,132 L 130,133 L 131,133 L 132,134 L 134,134 L 135,133 L 139,133 L 140,132 L 141,132 L 144,129 L 145,129 L 145,127 L 146,126 L 146,124 L 147,123 L 146,122 L 146,120 L 145,119 L 145,116 L 143,114 L 143,113 L 141,111 L 137,111 L 136,110 Z" fill="black" /><path d="M 198,45 L 197,46 L 196,46 L 192,50 L 192,51 L 190,53 L 190,62 L 192,64 L 192,65 L 195,68 L 196,68 L 198,70 L 203,70 L 204,71 L 205,71 L 206,70 L 208,70 L 210,68 L 211,68 L 212,67 L 213,67 L 214,66 L 214,65 L 215,64 L 215,63 L 216,62 L 216,61 L 217,60 L 217,57 L 216,56 L 216,54 L 215,53 L 215,52 L 210,47 L 208,47 L 206,45 Z" fill="black" /><path d="M 38,42 L 37,43 L 34,43 L 32,45 L 32,46 L 31,47 L 30,47 L 29,48 L 29,50 L 28,51 L 28,52 L 29,53 L 29,54 L 28,55 L 28,58 L 31,61 L 31,62 L 32,63 L 33,63 L 34,64 L 35,64 L 36,65 L 43,65 L 44,64 L 46,64 L 49,61 L 49,60 L 51,58 L 51,57 L 52,56 L 52,51 L 51,50 L 51,47 L 49,45 L 48,45 L 46,43 L 42,43 L 41,42 Z" fill="black" /></svg>