<?xml version='1.0' encoding='utf-8'?>
<svg width="259" height="221" xmlns="http://www.w3.org/2000/svg" viewBox="0 0 259 221"><rect width="259" height="221" fill="white" /><path d="M 67,180 L 65,182 L 64,182 L 62,184 L 62,186 L 60,188 L 60,196 L 62,198 L 62,199 L 63,199 L 64,200 L 64,201 L 65,201 L 66,202 L 67,202 L 68,203 L 76,203 L 78,201 L 79,201 L 81,199 L 81,198 L 82,197 L 82,196 L 83,195 L 83,187 L 79,183 L 79,182 L 78,182 L 76,180 L 70,180 L 69,181 L 68,181 Z" fill="black" /><path d="M 224,128 L 223,129 L 222,129 L 221,130 L 220,130 L 217,133 L 217,134 L 216,135 L 216,137 L 215,138 L 215,141 L 216,142 L 216,145 L 218,147 L 218,148 L 219,149 L 221,149 L 223,151 L 229,151 L 230,150 L 232,150 L 234,148 L 235,148 L 237,146 L 237,145 L 239,143 L 239,134 L 237,132 L 236,132 L 235,131 L 235,130 L 233,128 Z" fill="black" /><path d="M 96,98 L 94,100 L 92,100 L 92,101 L 90,103 L 90,104 L 89,105 L 89,106 L 88,107 L 88,113 L 89,114 L 89,115 L 90,116 L 90,117 L 92,119 L 93,119 L 95,121 L 103,121 L 105,119 L 107,119 L 111,115 L 111,112 L 112,111 L 112,109 L 111,108 L 111,104 L 107,100 L 105,100 L 103,98 Z" fill="black" /><path d="M 146,84 L 144,86 L 143,86 L 141,88 L 140,88 L 140,89 L 138,91 L 138,93 L 137,94 L 137,97 L 138,98 L 138,101 L 140,103 L 140,104 L 142,106 L 143,106 L 144,107 L 152,107 L 154,105 L 156,105 L 159,102 L 159,100 L 160,99 L 160,98 L 161,97 L 161,94 L 160,93 L 160,92 L 159,91 L 159,89 L 158,88 L 157,88 L 155,86 L 154,86 L 153,85 L 152,85 L 151,84 Z" fill="black" /><path d="M 66,42 L 64,44 L 63,44 L 62,45 L 62,47 L 61,48 L 60,48 L 60,49 L 59,50 L 59,55 L 60,56 L 60,58 L 62,60 L 62,61 L 63,61 L 65,63 L 68,63 L 69,64 L 73,64 L 74,63 L 75,63 L 76,62 L 77,62 L 78,61 L 79,61 L 81,59 L 81,58 L 83,56 L 83,48 L 81,46 L 81,45 L 80,45 L 79,44 L 78,44 L 76,42 Z" fill="black" /><path d="M 134,15 L 133,16 L 130,16 L 126,20 L 126,21 L 125,22 L 125,23 L 124,24 L 124,27 L 125,28 L 125,29 L 126,30 L 126,31 L 127,32 L 127,33 L 128,34 L 128,35 L 129,35 L 131,37 L 142,37 L 144,35 L 145,35 L 145,34 L 147,32 L 147,29 L 148,28 L 148,25 L 147,24 L 147,22 L 146,21 L 146,20 L 142,16 L 136,16 L 135,15 Z" fill="black" /></svg>