<?xml version='1.0' encoding='utf-8'?>
<svg width="258" height="220" xmlns="http://www.w3.org/2000/svg" viewBox="0 0 258 220"><rect width="258" height="220" fill="white" /><path d="M 145,178 L 144,179 L 143,179 L 140,182 L 140,185 L 139,186 L 139,187 L 138,188 L 138,193 L 139,194 L 139,195 L 140,195 L 141,196 L 141,197 L 143,199 L 144,199 L 145,200 L 147,200 L 148,201 L 151,201 L 152,200 L 153,200 L 154,199 L 157,199 L 158,198 L 158,196 L 159,195 L 160,195 L 160,194 L 161,193 L 161,192 L 162,191 L 162,189 L 161,188 L 161,186 L 160,185 L 160,183 L 158,181 L 157,181 L 156,180 L 155,180 L 153,178 Z" fill="black" /><path d="M 199,174 L 198,175 L 194,175 L 191,178 L 191,179 L 189,181 L 189,185 L 188,186 L 188,191 L 189,192 L 189,194 L 191,196 L 191,197 L 192,197 L 194,199 L 195,199 L 197,201 L 202,201 L 203,200 L 204,200 L 205,199 L 207,199 L 209,197 L 210,197 L 212,195 L 212,194 L 213,193 L 213,192 L 214,191 L 214,186 L 213,185 L 213,183 L 212,182 L 212,179 L 210,177 L 210,176 L 208,176 L 207,175 L 205,175 L 204,174 Z" fill="black" /><path d="M 43,114 L 42,115 L 41,115 L 40,116 L 37,116 L 37,117 L 35,119 L 35,120 L 33,122 L 33,133 L 35,135 L 35,136 L 37,138 L 38,138 L 39,139 L 40,139 L 42,141 L 46,141 L 47,140 L 48,140 L 49,139 L 51,139 L 53,137 L 54,137 L 56,135 L 56,134 L 57,133 L 57,131 L 58,130 L 58,124 L 57,123 L 57,122 L 56,121 L 56,120 L 55,119 L 55,118 L 53,116 L 51,116 L 49,114 Z" fill="black" /><path d="M 177,112 L 176,113 L 175,113 L 174,114 L 172,114 L 171,115 L 171,116 L 169,118 L 169,121 L 168,122 L 168,127 L 169,128 L 169,129 L 173,133 L 175,133 L 176,134 L 179,134 L 180,135 L 181,134 L 185,134 L 186,133 L 188,133 L 190,131 L 190,128 L 191,127 L 192,127 L 192,118 L 188,114 L 187,114 L 186,113 L 185,113 L 184,112 Z" fill="black" /><path d="M 204,51 L 203,52 L 197,52 L 193,56 L 193,57 L 192,58 L 192,60 L 191,61 L 191,64 L 193,66 L 193,68 L 195,70 L 195,71 L 196,71 L 198,73 L 207,73 L 208,72 L 210,72 L 212,70 L 212,69 L 214,67 L 214,64 L 215,63 L 215,61 L 214,60 L 214,57 L 212,55 L 212,54 L 211,54 L 209,52 L 208,52 L 207,51 Z" fill="black" /><path d="M 34,20 L 32,22 L 31,22 L 31,23 L 30,24 L 29,24 L 29,25 L 28,26 L 28,27 L 27,28 L 27,29 L 26,30 L 26,32 L 25,33 L 25,35 L 26,36 L 26,37 L 27,38 L 27,40 L 29,42 L 29,43 L 30,43 L 32,45 L 34,45 L 35,46 L 40,46 L 41,45 L 44,45 L 44,44 L 45,43 L 47,43 L 48,42 L 48,41 L 50,39 L 50,37 L 51,36 L 51,30 L 50,29 L 50,27 L 48,25 L 48,24 L 47,24 L 46,23 L 46,22 L 44,20 Z" fill="black" /></svg>