<?xml version='1.0' encoding='utf-8'?>
<svg width="259" height="218" xmlns="http://www.w3.org/2000/svg" viewBox="0 0 259 218"><rect width="259" height="218" fill="white" /><path d="M 90,175 L 89,176 L 86,176 L 84,178 L 83,178 L 83,179 L 82,180 L 82,181 L 80,183 L 80,191 L 81,192 L 81,193 L 84,196 L 84,197 L 85,197 L 86,198 L 88,198 L 89,199 L 93,199 L 94,198 L 97,198 L 98,197 L 99,197 L 103,193 L 103,190 L 104,189 L 104,185 L 103,184 L 103,181 L 102,180 L 101,180 L 97,176 L 95,176 L 94,175 Z" fill="black" /><path d="M 228,164 L 228,165 L 227,166 L 226,166 L 224,168 L 224,169 L 223,170 L 222,170 L 222,173 L 221,174 L 221,175 L 222,176 L 222,181 L 224,183 L 224,184 L 227,187 L 229,187 L 230,188 L 231,188 L 232,189 L 237,189 L 238,188 L 239,188 L 240,187 L 241,187 L 242,186 L 243,186 L 245,184 L 245,182 L 246,181 L 246,180 L 247,179 L 247,172 L 246,171 L 246,170 L 242,166 L 240,166 L 239,165 L 238,165 L 237,164 Z" fill="black" /><path d="M 121,132 L 119,134 L 118,134 L 116,136 L 116,137 L 115,138 L 114,138 L 114,143 L 113,144 L 113,145 L 114,146 L 114,149 L 116,151 L 116,152 L 119,155 L 120,155 L 121,156 L 122,156 L 123,157 L 131,157 L 132,156 L 133,156 L 134,155 L 135,155 L 137,153 L 137,152 L 138,151 L 138,150 L 139,149 L 139,140 L 138,139 L 138,138 L 134,134 L 133,134 L 131,132 Z" fill="black" /><path d="M 72,104 L 66,110 L 66,115 L 65,116 L 65,117 L 66,118 L 66,120 L 68,122 L 68,123 L 70,125 L 71,125 L 72,126 L 73,126 L 74,127 L 81,127 L 82,126 L 83,126 L 84,125 L 85,125 L 87,123 L 87,122 L 89,120 L 89,111 L 88,110 L 88,109 L 87,108 L 87,107 L 86,106 L 85,106 L 83,104 Z" fill="black" /><path d="M 162,39 L 161,40 L 158,40 L 154,44 L 154,45 L 152,47 L 152,55 L 153,56 L 153,57 L 154,58 L 154,59 L 155,59 L 156,60 L 156,61 L 157,61 L 159,63 L 161,63 L 162,64 L 167,64 L 168,63 L 171,63 L 172,62 L 173,62 L 175,60 L 175,59 L 177,57 L 177,54 L 178,53 L 178,52 L 177,51 L 177,46 L 171,40 L 169,40 L 168,39 Z" fill="black" /><path d="M 61,21 L 60,22 L 58,22 L 55,25 L 54,25 L 54,27 L 52,29 L 52,36 L 53,37 L 53,38 L 54,39 L 54,40 L 57,43 L 59,43 L 61,45 L 66,45 L 68,43 L 72,43 L 73,42 L 73,41 L 75,39 L 75,38 L 76,37 L 76,36 L 77,35 L 77,32 L 76,31 L 76,30 L 75,29 L 75,27 L 73,25 L 73,24 L 72,24 L 71,23 L 70,23 L 69,22 L 62,22 Z" fill="black" /></svg>