<?xml version='1.0' encoding='utf-8'?>
<svg width="256" height="216" xmlns="http://www.w3.org/2000/svg" viewBox="0 0 256 216"><rect width="256" height="216" fill="white" /><path d="M 70,133 L 69,134 L 66,134 L 62,138 L 62,139 L 60,141 L 60,152 L 62,154 L 62,155 L 63,155 L 65,157 L 69,157 L 70,158 L 74,158 L 75,157 L 77,157 L 83,151 L 83,150 L 85,148 L 85,142 L 82,139 L 82,138 L 80,136 L 79,136 L 77,134 L 74,134 L 73,133 Z" fill="black" /><path d="M 33,73 L 32,74 L 30,74 L 29,75 L 28,75 L 27,76 L 26,76 L 26,77 L 24,79 L 24,81 L 23,82 L 23,83 L 22,84 L 22,88 L 24,90 L 24,92 L 27,95 L 28,95 L 30,97 L 39,97 L 40,96 L 41,96 L 42,95 L 43,95 L 43,94 L 45,92 L 45,91 L 47,89 L 47,82 L 45,80 L 45,79 L 43,77 L 43,76 L 42,76 L 41,75 L 39,75 L 38,74 L 36,74 L 35,73 Z" fill="black" /><path d="M 243,11 L 242,12 L 241,12 L 241,13 L 240,14 L 232,14 L 231,15 L 228,15 L 227,16 L 222,16 L 221,17 L 220,17 L 219,16 L 218,16 L 217,17 L 216,17 L 215,18 L 202,18 L 201,19 L 200,19 L 199,18 L 198,18 L 197,19 L 196,19 L 195,20 L 191,20 L 190,21 L 183,21 L 182,22 L 169,22 L 168,23 L 166,23 L 165,24 L 154,24 L 153,25 L 149,25 L 148,26 L 136,26 L 135,27 L 130,27 L 129,28 L 119,28 L 118,29 L 113,29 L 112,30 L 101,30 L 100,31 L 94,31 L 93,32 L 83,32 L 82,33 L 78,33 L 77,34 L 70,34 L 69,35 L 68,35 L 68,38 L 70,40 L 70,41 L 73,44 L 73,45 L 76,48 L 76,50 L 77,50 L 79,52 L 79,53 L 81,55 L 81,56 L 82,57 L 82,58 L 84,60 L 84,61 L 85,61 L 86,62 L 86,63 L 88,65 L 88,67 L 90,69 L 91,69 L 92,70 L 92,71 L 93,72 L 93,73 L 94,74 L 94,75 L 96,77 L 96,78 L 100,82 L 100,83 L 101,84 L 101,85 L 104,88 L 104,89 L 107,92 L 107,93 L 108,94 L 108,95 L 111,98 L 111,99 L 112,100 L 112,101 L 113,101 L 114,102 L 114,103 L 116,105 L 116,106 L 118,108 L 118,109 L 122,113 L 122,114 L 124,116 L 124,117 L 126,119 L 126,120 L 128,122 L 128,123 L 132,127 L 132,128 L 134,130 L 134,131 L 136,133 L 136,134 L 138,136 L 138,137 L 139,137 L 140,138 L 140,140 L 142,142 L 142,143 L 143,143 L 144,144 L 144,145 L 146,147 L 146,149 L 147,149 L 148,150 L 148,151 L 150,153 L 150,154 L 154,158 L 154,159 L 156,161 L 156,162 L 158,164 L 158,165 L 160,167 L 160,168 L 162,170 L 162,171 L 163,171 L 164,172 L 164,173 L 165,174 L 165,175 L 166,176 L 166,177 L 171,177 L 173,175 L 173,172 L 174,171 L 174,170 L 175,169 L 175,166 L 177,164 L 177,162 L 179,160 L 179,158 L 181,156 L 181,154 L 182,153 L 182,152 L 183,151 L 183,150 L 184,149 L 184,148 L 185,147 L 185,145 L 187,143 L 187,141 L 189,139 L 189,137 L 191,135 L 191,132 L 192,131 L 192,130 L 193,129 L 193,128 L 194,127 L 194,126 L 195,125 L 195,122 L 196,121 L 197,121 L 197,118 L 199,116 L 199,114 L 201,112 L 201,110 L 202,109 L 202,108 L 203,107 L 203,106 L 204,105 L 204,104 L 205,103 L 205,101 L 207,99 L 207,96 L 208,95 L 208,94 L 209,93 L 209,92 L 210,91 L 210,90 L 211,89 L 211,88 L 212,87 L 212,86 L 213,85 L 213,83 L 215,81 L 215,79 L 216,78 L 216,77 L 217,76 L 217,74 L 218,73 L 218,72 L 219,71 L 219,70 L 220,69 L 220,68 L 221,67 L 221,65 L 223,63 L 223,60 L 224,59 L 224,58 L 225,57 L 225,54 L 226,53 L 227,53 L 227,51 L 229,49 L 229,46 L 231,44 L 231,42 L 233,40 L 233,38 L 234,37 L 234,36 L 235,35 L 235,33 L 237,31 L 237,29 L 238,28 L 238,26 L 239,25 L 239,23 L 241,21 L 241,17 L 244,14 L 244,12 Z" fill="black" /><path d="M 0,0 L 0,215 L 255,215 L 255,0 Z" fill="none" stroke="black" stroke-width="1" /></svg>