<?xml version='1.0' encoding='utf-8'?>
<svg width="262" height="219" xmlns="http://www.w3.org/2000/svg" viewBox="0 0 262 219"><rect width="262" height="219" fill="white" /><path d="M 156,141 L 154,143 L 152,143 L 148,147 L 148,149 L 147,150 L 147,156 L 148,157 L 148,160 L 150,162 L 151,162 L 153,164 L 155,164 L 156,165 L 157,165 L 158,166 L 165,166 L 167,164 L 168,164 L 169,163 L 169,162 L 171,160 L 171,158 L 173,156 L 173,149 L 171,147 L 171,145 L 170,145 L 168,143 L 167,143 L 165,141 Z" fill="black" /><path d="M 208,93 L 207,94 L 206,94 L 205,95 L 204,95 L 204,96 L 203,97 L 202,97 L 202,98 L 200,100 L 200,109 L 202,111 L 202,112 L 206,116 L 208,116 L 209,117 L 215,117 L 216,116 L 220,116 L 225,111 L 225,109 L 226,108 L 226,101 L 225,100 L 225,99 L 221,95 L 220,95 L 218,93 Z" fill="black" /><path d="M 23,47 L 22,48 L 12,48 L 10,50 L 10,57 L 11,58 L 11,67 L 12,68 L 12,83 L 13,84 L 12,85 L 12,91 L 13,92 L 13,106 L 14,107 L 14,108 L 13,109 L 13,110 L 14,111 L 14,126 L 15,127 L 15,128 L 14,129 L 14,132 L 15,133 L 15,145 L 16,146 L 16,155 L 17,156 L 17,157 L 16,158 L 16,173 L 17,174 L 17,186 L 18,187 L 18,206 L 19,207 L 19,209 L 20,210 L 20,211 L 21,212 L 45,212 L 46,211 L 49,211 L 50,212 L 102,212 L 103,211 L 105,211 L 105,203 L 106,202 L 106,196 L 107,195 L 107,193 L 106,192 L 106,191 L 107,190 L 107,173 L 108,172 L 108,169 L 107,168 L 107,167 L 108,166 L 108,156 L 109,155 L 109,139 L 110,138 L 110,130 L 111,129 L 111,125 L 110,124 L 110,121 L 111,120 L 111,106 L 112,105 L 112,93 L 113,92 L 113,75 L 114,74 L 114,62 L 115,61 L 115,49 L 72,49 L 71,48 L 69,48 L 68,49 L 60,49 L 59,48 L 57,48 L 56,49 L 55,49 L 54,48 L 25,48 L 24,47 Z" fill="black" /><path d="M 0,0 L 0,218 L 261,218 L 261,0 Z" fill="none" stroke="black" stroke-width="1" /></svg>