<?xml version='1.0' encoding='utf-8'?>
<svg width="259" height="224" xmlns="http://www.w3.org/2000/svg" viewBox="0 0 259 224"><rect width="259" height="224" fill="white" /><path d="M 17,91 L 16,92 L 12,92 L 8,96 L 8,97 L 7,98 L 7,101 L 6,102 L 6,106 L 7,107 L 7,109 L 8,110 L 8,111 L 12,115 L 13,115 L 15,117 L 23,117 L 24,116 L 25,116 L 26,115 L 27,115 L 29,113 L 29,112 L 30,111 L 30,110 L 31,109 L 31,108 L 32,107 L 32,102 L 31,101 L 31,100 L 30,99 L 30,98 L 29,98 L 28,97 L 28,96 L 26,94 L 25,94 L 23,92 L 19,92 L 18,91 Z" fill="black" /><path d="M 192,26 L 191,27 L 186,27 L 185,28 L 181,28 L 180,29 L 179,29 L 178,30 L 177,30 L 176,31 L 175,31 L 174,32 L 172,32 L 170,34 L 169,34 L 169,35 L 168,36 L 167,36 L 165,38 L 163,38 L 161,40 L 161,41 L 160,42 L 159,42 L 156,45 L 155,45 L 150,50 L 149,50 L 149,51 L 148,52 L 147,52 L 147,53 L 144,56 L 143,56 L 139,60 L 138,60 L 136,62 L 135,62 L 135,63 L 134,64 L 133,64 L 129,68 L 127,68 L 125,70 L 123,70 L 121,72 L 120,72 L 118,74 L 116,74 L 114,76 L 112,76 L 110,78 L 108,78 L 106,80 L 103,80 L 102,81 L 101,81 L 100,82 L 93,82 L 92,83 L 87,83 L 86,84 L 81,84 L 80,85 L 79,85 L 78,86 L 73,86 L 72,87 L 71,87 L 70,88 L 69,88 L 67,90 L 66,90 L 64,92 L 63,92 L 63,93 L 62,94 L 61,94 L 59,96 L 59,97 L 53,103 L 53,105 L 51,107 L 51,109 L 50,110 L 50,122 L 51,123 L 51,125 L 53,127 L 54,127 L 55,128 L 55,129 L 56,129 L 58,131 L 59,131 L 61,133 L 64,133 L 65,134 L 68,134 L 69,135 L 77,135 L 78,136 L 80,136 L 81,137 L 88,137 L 89,138 L 90,138 L 91,139 L 96,139 L 97,140 L 98,140 L 99,141 L 102,141 L 104,143 L 106,143 L 107,144 L 108,144 L 109,145 L 110,145 L 111,146 L 112,146 L 113,147 L 114,147 L 115,148 L 116,148 L 117,149 L 118,149 L 119,150 L 120,150 L 121,151 L 122,151 L 124,153 L 125,153 L 127,155 L 128,155 L 130,157 L 131,157 L 133,159 L 134,159 L 137,162 L 138,162 L 141,165 L 142,165 L 146,169 L 147,169 L 153,175 L 154,175 L 157,178 L 157,179 L 158,179 L 159,180 L 159,181 L 160,181 L 161,182 L 161,183 L 162,183 L 163,184 L 163,185 L 164,185 L 165,186 L 165,187 L 166,187 L 167,188 L 167,189 L 168,189 L 169,190 L 169,191 L 171,193 L 173,193 L 175,195 L 176,195 L 177,196 L 177,197 L 178,197 L 179,198 L 180,198 L 181,199 L 182,199 L 183,200 L 184,200 L 185,201 L 192,201 L 193,202 L 194,202 L 195,203 L 201,203 L 202,202 L 205,202 L 206,201 L 208,201 L 209,200 L 210,200 L 211,199 L 212,199 L 213,198 L 214,198 L 217,195 L 218,195 L 220,193 L 220,192 L 224,188 L 224,187 L 226,185 L 226,184 L 227,183 L 227,182 L 228,181 L 228,178 L 229,177 L 229,176 L 230,175 L 230,166 L 231,165 L 231,164 L 232,163 L 232,141 L 233,140 L 233,138 L 232,137 L 232,135 L 233,134 L 233,120 L 232,119 L 232,82 L 231,81 L 231,74 L 230,73 L 230,65 L 229,64 L 229,63 L 228,62 L 228,60 L 227,59 L 227,57 L 226,56 L 226,54 L 225,53 L 225,52 L 224,51 L 224,50 L 223,49 L 223,48 L 222,47 L 222,46 L 220,44 L 220,42 L 219,42 L 218,41 L 218,40 L 216,38 L 215,38 L 212,35 L 212,34 L 211,34 L 210,33 L 210,32 L 209,32 L 208,31 L 207,31 L 206,30 L 205,30 L 204,29 L 203,29 L 202,28 L 199,28 L 198,27 L 195,27 L 194,26 Z" fill="black" /></svg>