<?xml version='1.0' encoding='utf-8'?>
<svg width="258" height="222" xmlns="http://www.w3.org/2000/svg" viewBox="0 0 258 222"><rect width="258" height="222" fill="white" /><path d="M 45,176 L 44,177 L 38,177 L 37,178 L 35,178 L 33,180 L 33,181 L 32,182 L 31,182 L 31,183 L 30,184 L 30,186 L 29,187 L 29,190 L 30,191 L 30,193 L 31,194 L 31,196 L 33,198 L 33,199 L 34,199 L 35,200 L 36,200 L 37,201 L 39,201 L 40,202 L 44,202 L 45,201 L 48,201 L 49,200 L 50,200 L 52,198 L 52,196 L 54,194 L 54,192 L 55,191 L 55,188 L 56,187 L 55,186 L 55,184 L 54,183 L 54,182 L 51,179 L 51,178 L 50,178 L 48,176 Z" fill="black" /><path d="M 59,18 L 57,20 L 57,22 L 55,24 L 55,25 L 53,27 L 53,28 L 51,30 L 51,31 L 50,32 L 49,32 L 49,33 L 47,35 L 47,36 L 45,38 L 45,39 L 44,40 L 43,40 L 43,41 L 42,42 L 42,43 L 41,44 L 41,45 L 40,46 L 39,46 L 39,47 L 37,49 L 37,50 L 35,52 L 35,53 L 31,57 L 31,58 L 29,60 L 29,61 L 28,62 L 27,62 L 27,63 L 25,65 L 25,66 L 23,68 L 23,69 L 20,72 L 20,73 L 17,76 L 17,77 L 16,78 L 16,81 L 17,82 L 17,83 L 28,94 L 28,95 L 29,95 L 30,96 L 30,97 L 31,97 L 33,99 L 33,100 L 34,100 L 35,101 L 35,102 L 45,112 L 45,113 L 46,113 L 47,114 L 47,115 L 48,115 L 49,116 L 49,117 L 51,119 L 52,119 L 53,120 L 53,121 L 59,127 L 59,128 L 63,132 L 63,133 L 64,133 L 65,134 L 65,135 L 67,137 L 68,137 L 71,140 L 71,141 L 72,141 L 73,142 L 73,143 L 74,143 L 77,146 L 77,147 L 78,147 L 79,148 L 79,149 L 80,149 L 81,150 L 81,151 L 82,151 L 83,152 L 83,153 L 84,153 L 87,156 L 87,157 L 95,165 L 95,166 L 105,176 L 105,177 L 106,177 L 107,178 L 107,179 L 108,179 L 109,180 L 109,181 L 110,181 L 113,184 L 113,185 L 114,186 L 116,186 L 117,185 L 119,185 L 121,183 L 123,183 L 127,179 L 128,179 L 129,178 L 130,178 L 131,177 L 132,177 L 132,176 L 133,175 L 134,175 L 136,173 L 137,173 L 138,172 L 139,172 L 140,171 L 141,171 L 143,169 L 144,169 L 146,167 L 147,167 L 149,165 L 150,165 L 151,164 L 152,164 L 155,161 L 156,161 L 157,160 L 158,160 L 161,157 L 162,157 L 163,156 L 164,156 L 165,155 L 166,155 L 168,153 L 169,153 L 171,151 L 172,151 L 173,150 L 174,150 L 175,149 L 176,149 L 178,147 L 179,147 L 181,145 L 182,145 L 182,144 L 183,143 L 184,143 L 185,142 L 186,142 L 187,141 L 188,141 L 190,139 L 191,139 L 193,137 L 196,137 L 199,134 L 199,131 L 198,130 L 198,129 L 192,123 L 191,123 L 190,122 L 189,122 L 186,119 L 186,118 L 185,118 L 183,116 L 181,116 L 178,113 L 178,112 L 177,112 L 176,111 L 176,110 L 175,110 L 173,108 L 172,108 L 168,104 L 167,104 L 166,103 L 166,102 L 165,102 L 164,101 L 164,100 L 163,100 L 162,99 L 161,99 L 158,96 L 157,96 L 156,95 L 156,94 L 155,94 L 151,90 L 150,90 L 146,86 L 145,86 L 144,85 L 144,84 L 143,84 L 139,80 L 138,80 L 134,76 L 133,76 L 132,75 L 132,74 L 131,74 L 129,72 L 128,72 L 126,70 L 125,70 L 122,67 L 121,67 L 116,62 L 115,62 L 114,61 L 114,60 L 113,60 L 110,57 L 109,57 L 107,55 L 107,54 L 106,54 L 102,50 L 101,50 L 95,44 L 94,44 L 92,42 L 91,42 L 90,41 L 90,40 L 89,40 L 88,39 L 87,39 L 86,38 L 86,37 L 85,37 L 82,34 L 81,34 L 77,30 L 76,30 L 74,28 L 73,28 L 72,27 L 72,26 L 70,24 L 68,24 L 62,18 Z" fill="black" /><path d="M 0,0 L 0,221 L 257,221 L 257,0 Z" fill="none" stroke="black" stroke-width="1" /></svg>