<?xml version='1.0' encoding='utf-8'?>
<svg width="256" height="222" xmlns="http://www.w3.org/2000/svg" viewBox="0 0 256 222"><rect width="256" height="222" fill="white" /><path d="M 34,133 L 33,134 L 30,134 L 30,135 L 29,136 L 28,136 L 27,137 L 26,137 L 25,138 L 25,139 L 24,140 L 24,141 L 23,142 L 23,143 L 22,144 L 22,148 L 24,150 L 24,153 L 25,153 L 26,154 L 26,155 L 28,157 L 29,157 L 30,158 L 34,158 L 35,159 L 36,158 L 39,158 L 40,157 L 41,157 L 43,155 L 44,155 L 45,154 L 45,153 L 47,151 L 47,149 L 48,148 L 48,147 L 49,146 L 49,144 L 48,143 L 48,141 L 47,140 L 47,138 L 46,138 L 42,134 L 40,134 L 39,133 Z" fill="black" /><path d="M 64,46 L 63,47 L 62,47 L 61,48 L 58,48 L 54,52 L 54,53 L 53,54 L 53,55 L 52,56 L 52,64 L 54,66 L 54,67 L 55,67 L 56,68 L 56,69 L 58,71 L 60,71 L 61,72 L 68,72 L 69,71 L 71,71 L 73,69 L 74,69 L 76,67 L 76,66 L 77,65 L 77,62 L 78,61 L 78,55 L 77,54 L 77,52 L 75,50 L 74,50 L 73,49 L 73,48 L 71,48 L 69,46 Z" fill="black" /><path d="M 174,26 L 173,27 L 172,27 L 171,28 L 168,28 L 167,29 L 165,29 L 164,30 L 162,30 L 160,32 L 158,32 L 156,34 L 154,34 L 153,35 L 152,35 L 151,36 L 150,36 L 149,37 L 149,38 L 148,39 L 146,39 L 145,40 L 143,40 L 141,42 L 140,42 L 140,43 L 139,44 L 138,44 L 136,46 L 135,46 L 133,48 L 132,48 L 132,49 L 131,50 L 130,50 L 125,55 L 124,55 L 121,58 L 120,58 L 120,59 L 119,60 L 118,60 L 118,61 L 115,64 L 114,64 L 114,65 L 109,70 L 109,71 L 106,74 L 106,75 L 105,76 L 104,76 L 102,78 L 102,81 L 101,82 L 100,82 L 100,84 L 98,86 L 98,87 L 96,89 L 96,91 L 95,92 L 95,93 L 94,94 L 94,95 L 92,97 L 92,99 L 91,100 L 91,101 L 90,102 L 90,105 L 88,107 L 88,110 L 87,111 L 87,113 L 86,114 L 86,117 L 85,118 L 85,119 L 84,120 L 84,124 L 83,125 L 83,127 L 82,128 L 82,136 L 81,137 L 81,147 L 80,148 L 82,150 L 82,155 L 83,156 L 83,162 L 84,163 L 84,168 L 86,170 L 86,171 L 88,173 L 88,175 L 89,175 L 90,176 L 90,178 L 94,182 L 95,182 L 96,183 L 97,183 L 100,186 L 101,186 L 102,187 L 104,187 L 105,188 L 106,188 L 107,189 L 109,189 L 110,190 L 111,190 L 112,191 L 119,191 L 120,192 L 129,192 L 130,191 L 134,191 L 135,190 L 136,190 L 137,189 L 139,189 L 141,187 L 143,187 L 144,186 L 145,186 L 146,185 L 147,185 L 148,184 L 149,184 L 150,183 L 151,183 L 152,182 L 153,182 L 156,179 L 157,179 L 158,178 L 159,178 L 160,177 L 161,177 L 161,176 L 162,175 L 163,175 L 165,173 L 166,173 L 168,171 L 169,171 L 169,170 L 172,167 L 174,167 L 182,159 L 182,158 L 187,153 L 187,152 L 188,151 L 189,151 L 189,150 L 192,147 L 192,146 L 195,143 L 195,142 L 196,141 L 196,140 L 197,139 L 197,138 L 199,136 L 199,135 L 201,133 L 201,132 L 203,130 L 203,129 L 205,127 L 205,126 L 206,125 L 206,124 L 207,123 L 207,120 L 209,118 L 209,116 L 210,115 L 210,114 L 211,113 L 211,112 L 212,111 L 212,110 L 213,109 L 213,106 L 214,105 L 214,104 L 215,103 L 215,99 L 216,98 L 216,97 L 217,96 L 217,90 L 218,89 L 218,87 L 219,86 L 219,82 L 220,81 L 220,75 L 221,74 L 221,59 L 220,58 L 220,56 L 219,55 L 219,49 L 218,48 L 218,47 L 217,46 L 217,44 L 216,43 L 216,42 L 213,39 L 213,38 L 212,38 L 211,37 L 211,36 L 210,35 L 210,34 L 209,34 L 207,32 L 206,32 L 204,30 L 202,30 L 200,28 L 198,28 L 197,27 L 196,27 L 195,26 Z" fill="black" /></svg>