<?xml version='1.0' encoding='utf-8'?>
<svg width="258" height="222" xmlns="http://www.w3.org/2000/svg" viewBox="0 0 258 222"><rect width="258" height="222" fill="white" /><path d="M 198,47 L 197,48 L 196,48 L 194,50 L 193,50 L 192,51 L 192,52 L 190,54 L 190,65 L 192,67 L 192,68 L 193,69 L 194,69 L 196,71 L 199,71 L 200,72 L 204,72 L 205,71 L 207,71 L 208,70 L 209,70 L 210,69 L 211,69 L 211,68 L 213,66 L 213,65 L 214,64 L 214,63 L 215,62 L 215,53 L 213,51 L 213,50 L 212,50 L 210,48 L 208,48 L 207,47 Z" fill="black" /><path d="M 30,42 L 30,59 L 29,60 L 29,67 L 28,68 L 28,86 L 27,87 L 27,96 L 26,97 L 26,117 L 25,118 L 25,127 L 24,128 L 24,150 L 23,151 L 23,158 L 22,159 L 22,179 L 21,180 L 21,181 L 20,182 L 21,183 L 21,185 L 20,186 L 20,198 L 21,199 L 23,197 L 26,197 L 27,198 L 47,198 L 48,199 L 51,199 L 52,198 L 55,198 L 56,199 L 62,199 L 63,198 L 66,198 L 67,199 L 69,199 L 70,198 L 71,199 L 115,199 L 116,200 L 119,200 L 120,199 L 121,200 L 131,200 L 132,199 L 133,199 L 134,200 L 135,200 L 135,195 L 136,194 L 136,186 L 137,185 L 137,167 L 138,166 L 138,156 L 139,155 L 139,133 L 140,132 L 140,125 L 141,124 L 141,106 L 142,105 L 142,98 L 143,97 L 143,79 L 144,78 L 144,67 L 145,66 L 145,51 L 146,50 L 146,48 L 145,47 L 145,44 L 142,44 L 141,43 L 137,43 L 136,44 L 134,44 L 133,43 L 132,43 L 131,44 L 127,44 L 126,43 L 96,43 L 95,42 L 94,42 L 93,43 L 90,43 L 89,42 L 88,42 L 87,43 L 82,43 L 81,42 L 80,43 L 70,43 L 69,42 L 64,42 L 63,43 L 54,43 L 53,42 L 43,42 L 42,43 L 41,43 L 40,42 Z" fill="black" /><path d="M 0,0 L 0,221 L 257,221 L 257,0 Z" fill="none" stroke="black" stroke-width="1" /></svg>