<?xml version='1.0' encoding='utf-8'?>
<svg width="258" height="217" xmlns="http://www.w3.org/2000/svg" viewBox="0 0 258 217"><rect width="258" height="217" fill="white" /><path d="M 203,24 L 203,25 L 202,26 L 202,27 L 201,28 L 201,39 L 200,40 L 200,45 L 199,46 L 199,55 L 198,56 L 198,57 L 197,58 L 197,67 L 196,68 L 196,70 L 195,71 L 195,77 L 194,78 L 194,80 L 193,81 L 193,84 L 192,85 L 192,87 L 191,88 L 191,91 L 190,92 L 190,94 L 189,95 L 189,98 L 187,100 L 187,102 L 185,104 L 185,107 L 184,108 L 183,108 L 183,109 L 182,110 L 182,111 L 181,112 L 181,113 L 178,116 L 177,116 L 177,117 L 176,118 L 175,118 L 173,120 L 172,120 L 171,121 L 170,121 L 169,122 L 163,122 L 162,123 L 161,123 L 160,122 L 156,122 L 154,120 L 153,120 L 152,119 L 152,118 L 147,113 L 147,111 L 146,110 L 146,106 L 145,105 L 145,104 L 144,103 L 144,98 L 143,97 L 143,96 L 142,95 L 142,88 L 141,87 L 141,68 L 140,67 L 140,66 L 141,65 L 141,56 L 142,55 L 142,51 L 138,51 L 137,52 L 137,54 L 135,56 L 135,64 L 134,65 L 134,67 L 133,68 L 133,75 L 132,76 L 132,79 L 131,80 L 131,83 L 129,85 L 129,89 L 128,90 L 128,91 L 127,92 L 127,93 L 126,94 L 125,94 L 125,97 L 122,100 L 122,101 L 121,102 L 121,103 L 117,107 L 117,108 L 115,110 L 115,111 L 114,112 L 113,112 L 109,116 L 108,116 L 106,118 L 104,118 L 102,120 L 98,120 L 97,121 L 92,121 L 91,120 L 89,120 L 88,119 L 87,119 L 86,118 L 85,118 L 84,117 L 84,116 L 83,116 L 82,115 L 81,115 L 78,112 L 78,110 L 76,108 L 76,106 L 75,105 L 75,104 L 74,103 L 74,90 L 73,89 L 73,84 L 74,83 L 74,77 L 73,76 L 70,76 L 70,77 L 69,78 L 69,83 L 68,84 L 68,85 L 67,86 L 67,90 L 65,92 L 65,95 L 64,96 L 64,97 L 63,98 L 63,101 L 62,102 L 62,104 L 61,105 L 61,107 L 59,109 L 59,115 L 57,117 L 57,119 L 56,120 L 56,121 L 55,122 L 55,123 L 54,124 L 53,124 L 51,126 L 46,126 L 44,124 L 44,123 L 42,121 L 42,119 L 40,117 L 40,114 L 39,113 L 39,110 L 38,109 L 38,101 L 37,100 L 37,88 L 33,88 L 33,90 L 32,91 L 32,92 L 31,93 L 31,101 L 30,102 L 30,106 L 29,107 L 29,111 L 28,112 L 28,113 L 27,114 L 27,115 L 26,116 L 26,117 L 25,118 L 25,119 L 22,122 L 22,123 L 20,125 L 19,125 L 18,126 L 15,126 L 14,127 L 9,127 L 8,128 L 8,129 L 10,131 L 19,131 L 21,129 L 22,129 L 24,127 L 26,127 L 26,125 L 28,123 L 28,122 L 30,120 L 30,119 L 33,116 L 36,119 L 36,121 L 37,122 L 37,124 L 39,126 L 39,127 L 41,129 L 42,129 L 44,131 L 54,131 L 55,130 L 56,130 L 59,127 L 59,126 L 60,125 L 60,124 L 61,123 L 61,122 L 62,121 L 62,118 L 63,117 L 63,116 L 64,115 L 64,111 L 65,110 L 65,104 L 67,102 L 69,102 L 71,104 L 71,108 L 73,110 L 73,113 L 77,117 L 77,118 L 78,119 L 79,119 L 83,123 L 84,123 L 85,124 L 86,124 L 87,125 L 90,125 L 91,126 L 98,126 L 99,125 L 104,125 L 106,123 L 108,123 L 108,122 L 109,121 L 110,121 L 112,119 L 114,119 L 119,114 L 120,114 L 120,113 L 122,111 L 122,110 L 124,108 L 124,107 L 126,105 L 126,104 L 127,103 L 127,102 L 128,101 L 128,100 L 129,99 L 130,99 L 130,96 L 131,95 L 131,94 L 132,93 L 132,91 L 134,89 L 135,89 L 137,91 L 137,99 L 138,100 L 138,101 L 139,102 L 139,106 L 140,107 L 140,109 L 141,110 L 141,112 L 143,114 L 143,117 L 147,121 L 147,122 L 148,123 L 149,123 L 151,125 L 152,125 L 153,126 L 154,126 L 155,127 L 160,127 L 161,128 L 166,128 L 167,127 L 170,127 L 171,126 L 172,126 L 173,125 L 174,125 L 176,123 L 178,123 L 178,122 L 179,121 L 180,121 L 182,119 L 182,118 L 183,117 L 184,117 L 184,116 L 185,115 L 186,115 L 186,114 L 187,113 L 187,112 L 188,111 L 188,110 L 190,108 L 190,106 L 192,104 L 192,101 L 194,99 L 194,97 L 195,96 L 195,94 L 196,93 L 196,86 L 198,84 L 198,82 L 199,81 L 199,76 L 200,75 L 200,68 L 202,66 L 202,65 L 203,64 L 204,64 L 206,66 L 206,71 L 207,72 L 207,76 L 208,77 L 208,78 L 209,79 L 209,85 L 210,86 L 210,87 L 211,88 L 211,90 L 212,91 L 212,94 L 213,95 L 213,97 L 214,98 L 214,99 L 215,100 L 215,102 L 217,104 L 217,105 L 218,106 L 218,107 L 219,108 L 219,109 L 221,111 L 221,112 L 223,114 L 223,115 L 230,122 L 231,122 L 233,124 L 234,124 L 235,125 L 238,125 L 239,126 L 247,126 L 248,125 L 250,125 L 251,124 L 253,124 L 254,123 L 254,122 L 255,121 L 255,120 L 254,119 L 252,119 L 251,120 L 249,120 L 248,121 L 246,121 L 245,122 L 240,122 L 239,121 L 237,121 L 236,120 L 235,120 L 233,118 L 232,118 L 230,116 L 230,115 L 228,113 L 228,112 L 224,108 L 224,106 L 223,105 L 223,104 L 222,103 L 222,102 L 221,101 L 221,100 L 220,99 L 220,96 L 218,94 L 218,92 L 217,91 L 217,90 L 216,89 L 216,86 L 215,85 L 215,82 L 214,81 L 214,77 L 212,75 L 212,70 L 211,69 L 211,68 L 210,67 L 210,59 L 209,58 L 209,56 L 208,55 L 208,44 L 207,43 L 207,32 L 206,31 L 206,24 Z" fill="black" /><path d="M 0,0 L 0,216 L 257,216 L 257,0 Z" fill="none" stroke="black" stroke-width="1" /></svg>