<?xml version='1.0' encoding='utf-8'?>
<svg width="260" height="214" xmlns="http://www.w3.org/2000/svg" viewBox="0 0 260 214"><rect width="260" height="214" fill="white" /><path d="M 4,32 L 3,33 L 3,36 L 4,36 L 5,37 L 12,37 L 14,39 L 14,41 L 15,42 L 15,58 L 16,59 L 16,63 L 15,64 L 15,73 L 16,74 L 16,191 L 17,192 L 17,193 L 16,194 L 16,199 L 17,200 L 17,201 L 18,202 L 25,202 L 26,201 L 39,201 L 39,111 L 38,110 L 39,109 L 39,102 L 38,101 L 38,100 L 39,99 L 39,87 L 38,86 L 38,82 L 39,81 L 39,66 L 38,65 L 38,64 L 39,63 L 39,56 L 41,54 L 48,54 L 50,56 L 50,75 L 51,76 L 51,78 L 50,79 L 50,81 L 51,82 L 51,88 L 50,89 L 50,90 L 51,91 L 51,122 L 52,123 L 52,137 L 51,138 L 51,139 L 52,140 L 52,155 L 51,156 L 51,157 L 52,158 L 52,191 L 53,192 L 53,198 L 54,199 L 56,199 L 57,200 L 60,200 L 61,201 L 70,201 L 71,200 L 75,200 L 75,196 L 74,195 L 74,192 L 75,191 L 75,188 L 74,187 L 74,186 L 75,185 L 75,183 L 74,182 L 74,170 L 75,169 L 75,168 L 74,167 L 74,133 L 73,132 L 73,129 L 74,128 L 74,114 L 73,113 L 73,112 L 74,111 L 74,105 L 73,104 L 73,97 L 74,96 L 74,91 L 73,90 L 73,73 L 77,69 L 81,69 L 82,70 L 82,71 L 83,72 L 83,75 L 84,76 L 84,123 L 85,124 L 85,127 L 84,128 L 84,133 L 85,134 L 85,136 L 86,137 L 85,138 L 85,149 L 86,150 L 86,183 L 87,184 L 87,185 L 86,186 L 86,189 L 87,190 L 87,199 L 90,199 L 91,200 L 92,200 L 93,201 L 94,200 L 103,200 L 104,199 L 107,199 L 107,144 L 106,143 L 106,140 L 105,139 L 106,138 L 106,130 L 105,129 L 106,128 L 106,124 L 105,123 L 105,84 L 106,83 L 107,83 L 108,82 L 110,82 L 111,81 L 112,81 L 113,82 L 114,82 L 116,84 L 116,101 L 117,102 L 117,105 L 118,106 L 118,108 L 117,109 L 117,139 L 118,140 L 118,177 L 119,178 L 119,181 L 118,182 L 118,187 L 119,188 L 119,198 L 120,199 L 138,199 L 139,198 L 139,192 L 140,191 L 140,186 L 139,185 L 139,183 L 140,182 L 140,178 L 139,177 L 139,172 L 140,171 L 140,170 L 139,169 L 139,140 L 138,139 L 138,138 L 139,137 L 139,112 L 141,110 L 147,110 L 148,111 L 148,112 L 149,113 L 149,117 L 150,118 L 150,127 L 149,128 L 149,135 L 150,136 L 150,179 L 151,180 L 151,189 L 150,190 L 150,192 L 151,193 L 151,196 L 152,197 L 153,197 L 154,198 L 159,198 L 160,199 L 161,198 L 166,198 L 167,199 L 168,198 L 172,198 L 173,197 L 173,143 L 172,142 L 173,141 L 173,128 L 174,127 L 181,127 L 182,128 L 182,132 L 183,133 L 183,137 L 182,138 L 183,139 L 183,147 L 184,148 L 184,151 L 183,152 L 184,153 L 184,185 L 185,186 L 185,188 L 184,189 L 184,190 L 185,191 L 185,197 L 191,197 L 192,198 L 197,198 L 198,197 L 207,197 L 207,146 L 206,145 L 207,144 L 207,142 L 210,139 L 215,139 L 218,142 L 218,196 L 219,197 L 235,197 L 236,196 L 237,196 L 237,194 L 236,193 L 236,185 L 237,184 L 237,183 L 236,182 L 236,154 L 237,153 L 237,150 L 238,149 L 243,149 L 244,150 L 244,153 L 245,154 L 245,158 L 244,159 L 244,161 L 245,162 L 245,165 L 244,166 L 244,169 L 245,170 L 245,171 L 244,172 L 244,173 L 245,174 L 245,175 L 244,176 L 244,193 L 245,194 L 245,195 L 246,195 L 247,196 L 248,195 L 249,195 L 249,158 L 250,157 L 249,156 L 249,148 L 250,147 L 250,145 L 249,145 L 248,144 L 232,144 L 232,161 L 231,162 L 231,164 L 232,165 L 232,172 L 231,173 L 232,174 L 232,191 L 231,192 L 224,192 L 223,191 L 223,167 L 222,166 L 222,163 L 223,162 L 223,153 L 222,152 L 222,151 L 221,150 L 221,146 L 222,145 L 222,144 L 221,143 L 221,142 L 222,141 L 222,140 L 223,139 L 223,137 L 221,135 L 219,135 L 218,134 L 209,134 L 208,133 L 204,133 L 202,135 L 202,191 L 201,192 L 198,192 L 197,193 L 195,193 L 194,192 L 190,192 L 189,191 L 189,152 L 188,151 L 188,146 L 187,145 L 188,144 L 188,136 L 187,135 L 187,130 L 188,129 L 188,126 L 187,125 L 187,124 L 185,122 L 182,122 L 181,121 L 169,121 L 168,122 L 168,143 L 167,144 L 167,145 L 168,146 L 168,179 L 169,180 L 168,181 L 168,191 L 165,194 L 158,194 L 155,191 L 155,134 L 154,133 L 154,116 L 155,115 L 155,109 L 153,107 L 153,106 L 151,104 L 148,104 L 147,105 L 139,105 L 138,104 L 136,104 L 135,105 L 135,107 L 134,108 L 134,142 L 135,143 L 135,155 L 134,156 L 134,157 L 135,158 L 135,175 L 136,176 L 136,180 L 135,181 L 135,185 L 136,186 L 136,191 L 133,194 L 128,194 L 127,195 L 125,195 L 123,193 L 123,170 L 122,169 L 122,167 L 123,166 L 123,164 L 122,163 L 122,162 L 123,161 L 123,160 L 122,159 L 122,157 L 123,156 L 123,154 L 122,153 L 122,148 L 123,147 L 123,146 L 122,145 L 122,121 L 121,120 L 121,78 L 120,77 L 119,77 L 118,76 L 117,77 L 111,77 L 110,76 L 109,77 L 104,77 L 103,78 L 100,78 L 100,107 L 101,108 L 101,132 L 102,133 L 102,171 L 103,172 L 103,173 L 102,174 L 102,177 L 103,178 L 103,179 L 102,180 L 102,193 L 101,194 L 96,194 L 95,195 L 94,195 L 93,194 L 92,194 L 91,193 L 91,178 L 90,177 L 91,176 L 91,173 L 90,172 L 90,158 L 89,157 L 89,100 L 88,99 L 88,98 L 89,97 L 89,96 L 88,95 L 88,89 L 89,88 L 89,87 L 88,86 L 88,68 L 87,67 L 87,64 L 69,64 L 69,69 L 70,70 L 69,71 L 69,75 L 70,76 L 70,77 L 69,78 L 69,99 L 70,100 L 70,101 L 69,102 L 69,105 L 70,106 L 70,107 L 69,108 L 69,110 L 70,111 L 70,113 L 69,114 L 69,116 L 70,117 L 70,146 L 69,147 L 70,148 L 70,159 L 69,160 L 70,161 L 70,193 L 68,195 L 66,195 L 65,196 L 60,196 L 57,193 L 57,164 L 56,163 L 57,162 L 57,145 L 56,144 L 56,138 L 57,137 L 57,136 L 56,135 L 56,104 L 55,103 L 55,102 L 56,101 L 56,98 L 55,97 L 55,82 L 56,81 L 55,80 L 55,64 L 56,63 L 55,62 L 55,51 L 53,49 L 52,49 L 51,48 L 49,48 L 48,49 L 47,48 L 42,48 L 41,49 L 39,49 L 38,50 L 34,50 L 34,55 L 33,56 L 33,59 L 34,60 L 34,145 L 35,146 L 34,147 L 34,175 L 35,176 L 35,178 L 34,179 L 34,184 L 35,185 L 35,186 L 34,187 L 34,195 L 33,196 L 24,196 L 21,193 L 21,133 L 20,132 L 20,131 L 21,130 L 21,124 L 20,123 L 20,122 L 21,121 L 21,110 L 20,109 L 20,105 L 21,104 L 20,103 L 20,88 L 21,87 L 21,81 L 20,80 L 20,71 L 21,70 L 21,68 L 20,67 L 20,45 L 19,44 L 19,43 L 20,42 L 20,37 L 19,36 L 19,34 L 18,34 L 16,32 Z" fill="black" /><path d="M 0,0 L 0,213 L 259,213 L 259,0 Z" fill="none" stroke="black" stroke-width="1" /></svg>