<?xml version='1.0' encoding='utf-8'?>
<svg width="259" height="218" xmlns="http://www.w3.org/2000/svg" viewBox="0 0 259 218"><rect width="259" height="218" fill="white" /><path d="M 159,0 L 159,1 L 158,2 L 158,4 L 156,6 L 156,11 L 155,12 L 155,14 L 154,15 L 154,16 L 153,17 L 151,17 L 150,16 L 150,15 L 149,14 L 149,12 L 147,12 L 144,9 L 144,8 L 142,8 L 141,9 L 141,11 L 140,12 L 140,18 L 139,19 L 139,27 L 138,28 L 138,29 L 137,30 L 137,33 L 136,34 L 136,38 L 135,39 L 135,41 L 133,43 L 132,43 L 131,42 L 131,41 L 130,40 L 130,36 L 129,35 L 129,34 L 128,33 L 128,32 L 127,31 L 127,28 L 126,27 L 126,25 L 124,23 L 120,27 L 120,32 L 119,33 L 119,35 L 118,36 L 118,44 L 117,45 L 117,48 L 116,49 L 116,57 L 115,58 L 115,59 L 114,60 L 114,64 L 115,65 L 114,66 L 114,67 L 113,68 L 113,72 L 111,74 L 110,74 L 108,72 L 108,68 L 105,65 L 105,62 L 103,60 L 103,56 L 102,55 L 102,54 L 101,53 L 101,52 L 100,51 L 100,49 L 99,48 L 99,44 L 97,42 L 97,40 L 93,40 L 92,41 L 92,51 L 91,52 L 92,53 L 92,57 L 91,58 L 91,61 L 90,62 L 90,89 L 89,90 L 90,91 L 90,96 L 89,97 L 89,105 L 88,106 L 88,107 L 87,108 L 86,108 L 84,106 L 84,103 L 83,102 L 83,101 L 82,100 L 82,99 L 81,98 L 81,96 L 80,96 L 79,95 L 79,92 L 78,91 L 78,90 L 77,89 L 77,86 L 75,84 L 75,82 L 73,80 L 73,77 L 72,76 L 72,74 L 71,73 L 71,71 L 68,71 L 68,72 L 66,74 L 66,91 L 65,92 L 65,95 L 64,96 L 64,97 L 65,98 L 65,105 L 64,106 L 64,108 L 65,109 L 65,111 L 64,112 L 64,127 L 63,128 L 63,135 L 64,136 L 64,139 L 61,142 L 58,139 L 58,137 L 57,136 L 57,132 L 56,131 L 56,130 L 55,129 L 55,125 L 54,124 L 54,123 L 53,122 L 53,119 L 52,118 L 52,116 L 51,115 L 51,111 L 50,110 L 50,108 L 49,107 L 49,104 L 48,103 L 48,102 L 47,101 L 47,97 L 46,96 L 46,95 L 45,94 L 45,91 L 44,90 L 44,88 L 43,87 L 43,83 L 42,82 L 42,81 L 41,80 L 36,80 L 36,108 L 35,109 L 35,111 L 36,112 L 36,113 L 35,114 L 35,134 L 34,135 L 34,137 L 35,138 L 35,141 L 34,142 L 34,166 L 33,167 L 34,168 L 34,175 L 31,178 L 30,178 L 29,177 L 29,173 L 28,172 L 28,170 L 27,169 L 27,166 L 26,165 L 26,164 L 25,163 L 25,159 L 23,157 L 23,151 L 21,149 L 21,144 L 19,142 L 19,139 L 18,138 L 18,136 L 17,135 L 17,132 L 16,131 L 16,128 L 15,127 L 15,124 L 14,123 L 14,122 L 13,121 L 13,119 L 12,118 L 12,117 L 11,116 L 11,111 L 10,110 L 10,108 L 8,106 L 7,106 L 6,107 L 5,107 L 5,110 L 6,111 L 6,113 L 7,114 L 7,115 L 8,116 L 8,120 L 9,121 L 9,123 L 10,124 L 10,125 L 11,126 L 11,129 L 12,130 L 12,134 L 13,135 L 13,136 L 14,137 L 14,141 L 15,142 L 15,143 L 16,144 L 16,147 L 17,148 L 17,149 L 18,150 L 18,155 L 20,157 L 20,161 L 21,162 L 21,163 L 22,164 L 22,167 L 23,168 L 23,169 L 24,170 L 24,175 L 25,176 L 25,177 L 26,178 L 26,181 L 28,183 L 28,188 L 30,190 L 30,195 L 31,196 L 31,197 L 32,198 L 32,201 L 34,203 L 34,205 L 35,206 L 36,205 L 37,205 L 37,186 L 38,185 L 38,179 L 37,178 L 37,176 L 38,175 L 38,167 L 39,166 L 38,165 L 38,154 L 39,153 L 39,117 L 40,116 L 40,106 L 42,104 L 43,104 L 44,105 L 44,106 L 45,107 L 45,108 L 46,109 L 46,113 L 47,114 L 47,118 L 48,119 L 48,121 L 49,122 L 49,123 L 50,124 L 50,128 L 51,129 L 51,131 L 52,132 L 52,135 L 53,136 L 53,137 L 54,138 L 54,141 L 55,142 L 55,143 L 56,144 L 56,148 L 58,150 L 58,155 L 59,156 L 59,157 L 60,158 L 60,165 L 61,166 L 61,167 L 62,168 L 62,169 L 63,170 L 63,171 L 66,171 L 67,170 L 67,136 L 68,135 L 68,124 L 69,123 L 69,95 L 70,94 L 70,93 L 71,92 L 74,92 L 75,93 L 75,94 L 76,95 L 76,99 L 77,99 L 78,100 L 78,103 L 80,105 L 80,107 L 82,109 L 82,112 L 84,114 L 84,117 L 85,118 L 85,119 L 86,120 L 86,121 L 87,122 L 87,124 L 89,126 L 90,125 L 91,125 L 93,123 L 93,93 L 94,92 L 94,80 L 95,79 L 95,70 L 96,69 L 96,65 L 95,64 L 95,60 L 96,59 L 98,59 L 100,61 L 100,62 L 101,63 L 101,65 L 102,66 L 102,69 L 103,70 L 103,71 L 104,72 L 104,74 L 105,75 L 105,76 L 106,77 L 106,79 L 107,80 L 107,81 L 108,82 L 108,85 L 109,86 L 109,87 L 110,88 L 110,90 L 111,91 L 112,90 L 114,90 L 114,88 L 115,87 L 115,84 L 116,83 L 116,80 L 117,79 L 117,72 L 118,71 L 118,66 L 119,65 L 119,60 L 120,59 L 120,54 L 121,53 L 121,46 L 122,45 L 122,42 L 123,41 L 123,40 L 124,39 L 125,39 L 127,41 L 127,42 L 128,43 L 128,48 L 130,50 L 130,51 L 131,52 L 131,53 L 132,54 L 132,56 L 134,58 L 135,57 L 136,57 L 136,55 L 137,54 L 137,52 L 138,51 L 138,49 L 139,48 L 139,41 L 140,40 L 140,38 L 141,37 L 141,29 L 142,28 L 142,26 L 143,25 L 143,20 L 144,19 L 147,19 L 148,20 L 148,21 L 150,23 L 150,28 L 152,30 L 152,34 L 153,34 L 154,35 L 155,34 L 155,32 L 156,31 L 156,30 L 157,29 L 157,22 L 158,21 L 158,20 L 159,19 L 159,13 L 161,11 L 163,11 L 164,12 L 164,13 L 166,15 L 167,15 L 168,16 L 169,15 L 169,10 L 168,9 L 168,8 L 167,7 L 167,6 L 166,6 L 165,5 L 165,3 L 164,2 L 163,2 L 161,0 Z" fill="black" /><path d="M 0,0 L 0,217 L 258,217 L 258,0 L 162,0 L 163,1 L 164,1 L 166,3 L 166,5 L 167,5 L 168,6 L 168,7 L 169,8 L 169,9 L 170,10 L 170,15 L 168,17 L 167,16 L 166,16 L 163,13 L 163,12 L 161,12 L 160,13 L 160,19 L 159,20 L 159,21 L 158,22 L 158,29 L 157,30 L 157,31 L 156,32 L 156,34 L 154,36 L 153,35 L 152,35 L 151,34 L 151,30 L 149,28 L 149,23 L 147,21 L 147,20 L 144,20 L 144,25 L 143,26 L 143,28 L 142,29 L 142,37 L 141,38 L 141,40 L 140,41 L 140,48 L 139,49 L 139,51 L 138,52 L 138,54 L 137,55 L 137,57 L 136,58 L 135,58 L 134,59 L 131,56 L 131,54 L 130,53 L 130,52 L 129,51 L 129,50 L 127,48 L 127,43 L 126,42 L 126,41 L 125,40 L 124,40 L 124,41 L 123,42 L 123,45 L 122,46 L 122,53 L 121,54 L 121,59 L 120,60 L 120,65 L 119,66 L 119,71 L 118,72 L 118,79 L 117,80 L 117,83 L 116,84 L 116,87 L 115,88 L 115,90 L 114,91 L 112,91 L 111,92 L 109,90 L 109,88 L 108,87 L 108,86 L 107,85 L 107,82 L 106,81 L 106,80 L 105,79 L 105,77 L 104,76 L 104,75 L 103,74 L 103,72 L 102,71 L 102,70 L 101,69 L 101,66 L 100,65 L 100,63 L 99,62 L 99,61 L 98,60 L 96,60 L 96,64 L 97,65 L 97,69 L 96,70 L 96,79 L 95,80 L 95,92 L 94,93 L 94,123 L 91,126 L 90,126 L 89,127 L 86,124 L 86,122 L 85,121 L 85,120 L 84,119 L 84,118 L 83,117 L 83,114 L 81,112 L 81,109 L 79,107 L 79,105 L 77,103 L 77,100 L 76,100 L 75,99 L 75,95 L 74,94 L 74,93 L 71,93 L 71,94 L 70,95 L 70,123 L 69,124 L 69,135 L 68,136 L 68,170 L 66,172 L 63,172 L 62,171 L 62,170 L 61,169 L 61,168 L 60,167 L 60,166 L 59,165 L 59,158 L 58,157 L 58,156 L 57,155 L 57,150 L 55,148 L 55,144 L 54,143 L 54,142 L 53,141 L 53,138 L 52,137 L 52,136 L 51,135 L 51,132 L 50,131 L 50,129 L 49,128 L 49,124 L 48,123 L 48,122 L 47,121 L 47,119 L 46,118 L 46,114 L 45,113 L 45,109 L 44,108 L 44,107 L 43,106 L 43,105 L 42,105 L 41,106 L 41,116 L 40,117 L 40,153 L 39,154 L 39,165 L 40,166 L 39,167 L 39,175 L 38,176 L 38,178 L 39,179 L 39,185 L 38,186 L 38,205 L 37,206 L 36,206 L 35,207 L 33,205 L 33,203 L 31,201 L 31,198 L 30,197 L 30,196 L 29,195 L 29,190 L 27,188 L 27,183 L 25,181 L 25,178 L 24,177 L 24,176 L 23,175 L 23,170 L 22,169 L 22,168 L 21,167 L 21,164 L 20,163 L 20,162 L 19,161 L 19,157 L 17,155 L 17,150 L 16,149 L 16,148 L 15,147 L 15,144 L 14,143 L 14,142 L 13,141 L 13,137 L 12,136 L 12,135 L 11,134 L 11,130 L 10,129 L 10,126 L 9,125 L 9,124 L 8,123 L 8,121 L 7,120 L 7,116 L 6,115 L 6,114 L 5,113 L 5,111 L 4,110 L 4,107 L 5,106 L 6,106 L 7,105 L 8,105 L 11,108 L 11,110 L 12,111 L 12,116 L 13,117 L 13,118 L 14,119 L 14,121 L 15,122 L 15,123 L 16,124 L 16,127 L 17,128 L 17,131 L 18,132 L 18,135 L 19,136 L 19,138 L 20,139 L 20,142 L 22,144 L 22,149 L 24,151 L 24,157 L 26,159 L 26,163 L 27,164 L 27,165 L 28,166 L 28,169 L 29,170 L 29,172 L 30,173 L 30,177 L 31,177 L 33,175 L 33,168 L 32,167 L 33,166 L 33,142 L 34,141 L 34,138 L 33,137 L 33,135 L 34,134 L 34,114 L 35,113 L 35,112 L 34,111 L 34,109 L 35,108 L 35,80 L 36,79 L 41,79 L 43,81 L 43,82 L 44,83 L 44,87 L 45,88 L 45,90 L 46,91 L 46,94 L 47,95 L 47,96 L 48,97 L 48,101 L 49,102 L 49,103 L 50,104 L 50,107 L 51,108 L 51,110 L 52,111 L 52,115 L 53,116 L 53,118 L 54,119 L 54,122 L 55,123 L 55,124 L 56,125 L 56,129 L 57,130 L 57,131 L 58,132 L 58,136 L 59,137 L 59,139 L 61,141 L 63,139 L 63,136 L 62,135 L 62,128 L 63,127 L 63,112 L 64,111 L 64,109 L 63,108 L 63,106 L 64,105 L 64,98 L 63,97 L 63,96 L 64,95 L 64,92 L 65,91 L 65,74 L 67,72 L 67,71 L 68,70 L 71,70 L 72,71 L 72,73 L 73,74 L 73,76 L 74,77 L 74,80 L 76,82 L 76,84 L 78,86 L 78,89 L 79,90 L 79,91 L 80,92 L 80,95 L 81,95 L 82,96 L 82,98 L 83,99 L 83,100 L 84,101 L 84,102 L 85,103 L 85,106 L 86,107 L 87,107 L 87,106 L 88,105 L 88,97 L 89,96 L 89,91 L 88,90 L 89,89 L 89,62 L 90,61 L 90,58 L 91,57 L 91,53 L 90,52 L 91,51 L 91,41 L 93,39 L 97,39 L 98,40 L 98,42 L 100,44 L 100,48 L 101,49 L 101,51 L 102,52 L 102,53 L 103,54 L 103,55 L 104,56 L 104,60 L 106,62 L 106,65 L 109,68 L 109,72 L 110,73 L 111,73 L 112,72 L 112,68 L 113,67 L 113,66 L 114,65 L 113,64 L 113,60 L 114,59 L 114,58 L 115,57 L 115,49 L 116,48 L 116,45 L 117,44 L 117,36 L 118,35 L 118,33 L 119,32 L 119,27 L 124,22 L 127,25 L 127,27 L 128,28 L 128,31 L 129,32 L 129,33 L 130,34 L 130,35 L 131,36 L 131,40 L 132,41 L 132,42 L 133,42 L 134,41 L 134,39 L 135,38 L 135,34 L 136,33 L 136,30 L 137,29 L 137,28 L 138,27 L 138,19 L 139,18 L 139,12 L 140,11 L 140,9 L 142,7 L 144,7 L 145,8 L 145,9 L 147,11 L 149,11 L 150,12 L 150,14 L 151,15 L 151,16 L 153,16 L 153,15 L 154,14 L 154,12 L 155,11 L 155,6 L 157,4 L 157,2 L 158,1 L 158,0 Z" fill="none" stroke="black" stroke-width="1" /></svg>