<?xml version='1.0' encoding='utf-8'?>
<svg width="258" height="219" xmlns="http://www.w3.org/2000/svg" viewBox="0 0 258 219"><rect width="258" height="219" fill="white" /><path d="M 221,64 L 220,65 L 202,65 L 201,66 L 200,66 L 199,67 L 199,70 L 198,71 L 198,78 L 197,79 L 197,80 L 196,81 L 196,87 L 195,88 L 195,94 L 194,95 L 194,101 L 193,102 L 193,106 L 192,107 L 192,117 L 191,118 L 191,120 L 190,121 L 190,128 L 187,131 L 169,131 L 168,132 L 167,132 L 166,131 L 152,131 L 150,129 L 150,124 L 149,123 L 149,115 L 148,114 L 148,111 L 147,110 L 147,105 L 146,104 L 146,102 L 145,101 L 145,91 L 144,90 L 144,89 L 143,88 L 143,82 L 140,79 L 118,79 L 117,80 L 116,80 L 115,79 L 111,79 L 110,80 L 107,80 L 106,81 L 105,81 L 104,82 L 104,85 L 103,86 L 103,92 L 102,93 L 102,98 L 101,99 L 101,101 L 100,102 L 100,110 L 99,111 L 99,112 L 98,113 L 98,120 L 97,121 L 97,122 L 96,123 L 96,124 L 94,126 L 82,126 L 81,127 L 80,127 L 79,126 L 74,126 L 73,125 L 69,125 L 66,122 L 66,119 L 65,118 L 65,111 L 64,110 L 64,105 L 63,104 L 63,101 L 62,100 L 62,97 L 61,96 L 61,93 L 59,91 L 50,91 L 49,92 L 43,92 L 42,93 L 39,93 L 38,94 L 38,96 L 37,97 L 37,102 L 36,103 L 36,107 L 34,109 L 34,116 L 33,117 L 31,117 L 30,118 L 28,118 L 27,119 L 25,119 L 23,117 L 23,113 L 22,112 L 22,111 L 21,110 L 21,105 L 20,104 L 20,103 L 19,102 L 19,101 L 17,99 L 9,99 L 8,100 L 7,100 L 6,101 L 6,103 L 7,103 L 8,104 L 13,104 L 16,107 L 16,110 L 17,111 L 17,112 L 18,113 L 18,117 L 20,119 L 20,121 L 21,122 L 22,122 L 23,123 L 26,123 L 27,124 L 29,124 L 30,123 L 32,123 L 33,122 L 35,122 L 36,121 L 37,121 L 39,119 L 39,111 L 40,110 L 40,108 L 41,107 L 41,101 L 42,100 L 42,99 L 45,96 L 55,96 L 57,98 L 57,100 L 58,101 L 58,104 L 59,105 L 59,106 L 60,107 L 60,114 L 61,115 L 61,116 L 62,117 L 62,123 L 63,124 L 63,126 L 64,127 L 64,129 L 65,130 L 67,130 L 68,131 L 72,131 L 73,130 L 85,130 L 86,131 L 87,130 L 97,130 L 99,128 L 100,128 L 101,127 L 101,123 L 102,122 L 102,121 L 103,120 L 103,115 L 104,114 L 104,111 L 105,110 L 105,100 L 107,98 L 107,94 L 108,93 L 108,90 L 107,89 L 108,88 L 108,87 L 111,84 L 127,84 L 128,83 L 135,83 L 136,84 L 137,84 L 138,85 L 138,90 L 139,91 L 139,93 L 140,94 L 140,99 L 141,100 L 141,105 L 142,106 L 142,114 L 143,115 L 143,116 L 144,117 L 144,122 L 145,123 L 145,124 L 146,125 L 146,127 L 145,128 L 145,129 L 146,130 L 146,134 L 151,134 L 152,135 L 154,135 L 155,136 L 159,136 L 160,135 L 171,135 L 172,136 L 173,136 L 174,135 L 183,135 L 184,134 L 193,134 L 195,132 L 195,127 L 196,126 L 196,122 L 197,121 L 197,111 L 198,110 L 198,109 L 199,108 L 199,98 L 200,97 L 200,95 L 201,94 L 201,85 L 202,84 L 202,82 L 203,81 L 203,75 L 204,74 L 203,73 L 203,71 L 204,70 L 211,70 L 212,69 L 217,69 L 218,68 L 219,68 L 220,69 L 222,69 L 223,68 L 224,69 L 229,69 L 230,68 L 233,68 L 236,71 L 236,73 L 237,74 L 237,78 L 238,79 L 238,86 L 239,87 L 239,96 L 240,97 L 240,105 L 241,106 L 241,112 L 242,113 L 242,121 L 243,122 L 243,125 L 244,126 L 244,127 L 243,128 L 243,130 L 244,131 L 244,134 L 249,134 L 250,133 L 249,132 L 249,131 L 248,130 L 248,128 L 247,127 L 247,117 L 246,116 L 246,112 L 245,111 L 245,98 L 244,97 L 244,92 L 243,91 L 243,81 L 242,80 L 242,74 L 241,73 L 241,68 L 240,67 L 240,66 L 238,64 L 234,64 L 233,65 L 228,65 L 227,64 Z" fill="black" /><path d="M 0,0 L 0,218 L 257,218 L 257,0 Z" fill="none" stroke="black" stroke-width="1" /></svg>