<?xml version='1.0' encoding='utf-8'?>
<svg width="261" height="213" xmlns="http://www.w3.org/2000/svg" viewBox="0 0 261 213"><rect width="261" height="213" fill="white" /><path d="M 18,21 L 17,22 L 16,22 L 15,23 L 14,23 L 13,24 L 13,27 L 17,27 L 18,26 L 23,26 L 25,28 L 25,30 L 26,31 L 26,35 L 27,36 L 27,37 L 28,38 L 28,65 L 29,66 L 29,71 L 30,72 L 30,89 L 31,90 L 31,93 L 32,94 L 31,95 L 31,97 L 32,98 L 32,110 L 33,111 L 33,114 L 32,115 L 32,116 L 33,117 L 33,123 L 34,124 L 33,125 L 33,131 L 34,132 L 34,146 L 35,147 L 35,152 L 36,153 L 36,158 L 38,160 L 38,163 L 40,165 L 40,166 L 45,171 L 47,171 L 48,172 L 48,173 L 55,173 L 56,172 L 57,172 L 58,171 L 59,171 L 65,165 L 65,161 L 66,160 L 66,158 L 67,157 L 67,155 L 68,154 L 68,152 L 69,151 L 69,143 L 70,142 L 70,135 L 71,134 L 71,130 L 72,129 L 72,122 L 73,121 L 73,111 L 75,109 L 75,101 L 76,100 L 76,99 L 77,98 L 77,88 L 78,87 L 78,86 L 79,85 L 79,78 L 80,77 L 80,76 L 81,75 L 81,71 L 83,69 L 83,65 L 85,63 L 85,61 L 87,59 L 87,58 L 88,57 L 88,56 L 92,52 L 93,52 L 94,51 L 97,51 L 98,52 L 99,52 L 103,56 L 103,57 L 104,58 L 104,59 L 105,60 L 105,61 L 106,62 L 106,66 L 108,68 L 108,75 L 109,76 L 109,80 L 110,81 L 110,120 L 111,121 L 111,127 L 112,128 L 112,135 L 113,136 L 113,137 L 114,138 L 114,143 L 115,144 L 115,146 L 116,147 L 116,149 L 117,150 L 117,151 L 120,154 L 120,155 L 122,157 L 125,157 L 126,158 L 128,158 L 129,159 L 130,158 L 132,158 L 133,157 L 135,157 L 135,156 L 138,153 L 139,153 L 139,152 L 141,150 L 141,148 L 142,147 L 143,147 L 143,145 L 145,143 L 145,141 L 146,140 L 146,139 L 147,138 L 147,134 L 148,133 L 148,130 L 149,129 L 149,123 L 150,122 L 150,118 L 151,117 L 151,111 L 152,110 L 151,109 L 151,106 L 152,105 L 152,104 L 153,103 L 153,97 L 154,96 L 154,94 L 155,93 L 155,91 L 156,90 L 156,89 L 158,87 L 158,86 L 161,83 L 162,83 L 164,81 L 167,81 L 170,84 L 171,84 L 172,85 L 172,86 L 174,88 L 174,90 L 175,91 L 175,93 L 176,94 L 176,96 L 178,98 L 178,102 L 179,103 L 179,105 L 180,106 L 180,116 L 181,117 L 181,120 L 182,121 L 182,127 L 183,128 L 183,129 L 184,130 L 184,132 L 185,133 L 185,135 L 186,136 L 186,137 L 188,139 L 189,139 L 190,140 L 190,141 L 192,143 L 193,143 L 194,144 L 196,144 L 197,143 L 201,143 L 205,139 L 205,138 L 208,135 L 208,134 L 209,133 L 209,128 L 210,127 L 210,126 L 211,125 L 211,116 L 212,115 L 212,105 L 213,104 L 213,100 L 215,98 L 215,97 L 217,95 L 217,94 L 221,90 L 225,90 L 230,95 L 230,96 L 229,97 L 229,99 L 230,100 L 230,104 L 232,106 L 232,109 L 236,109 L 236,108 L 237,107 L 237,104 L 236,103 L 236,101 L 235,100 L 235,93 L 234,92 L 234,91 L 233,90 L 233,89 L 231,87 L 230,87 L 229,86 L 228,86 L 226,84 L 225,85 L 224,85 L 223,84 L 222,85 L 221,85 L 220,86 L 218,86 L 216,88 L 215,88 L 214,89 L 214,90 L 212,92 L 212,93 L 210,95 L 210,96 L 208,98 L 208,102 L 207,103 L 207,111 L 206,112 L 206,121 L 205,122 L 205,126 L 204,127 L 204,130 L 202,132 L 202,134 L 201,135 L 201,136 L 199,138 L 194,138 L 193,137 L 192,137 L 190,135 L 190,134 L 189,133 L 189,130 L 188,129 L 188,127 L 187,126 L 187,120 L 186,119 L 186,117 L 185,116 L 185,106 L 184,105 L 184,104 L 183,103 L 183,96 L 182,95 L 182,94 L 181,93 L 181,90 L 179,88 L 179,86 L 178,86 L 177,85 L 177,82 L 173,78 L 172,78 L 170,76 L 162,76 L 162,77 L 161,78 L 159,78 L 155,82 L 155,83 L 154,84 L 154,85 L 152,87 L 152,89 L 151,90 L 151,91 L 150,92 L 150,95 L 149,96 L 149,98 L 148,99 L 148,105 L 147,106 L 147,109 L 146,110 L 146,119 L 145,120 L 145,121 L 144,122 L 144,130 L 143,131 L 143,133 L 142,134 L 142,135 L 141,136 L 141,138 L 140,139 L 140,141 L 138,143 L 138,145 L 137,146 L 137,147 L 136,148 L 136,149 L 132,153 L 126,153 L 125,152 L 124,152 L 121,149 L 121,148 L 120,147 L 120,146 L 119,145 L 119,143 L 118,142 L 118,141 L 119,140 L 117,138 L 117,129 L 116,128 L 116,117 L 115,116 L 115,78 L 114,77 L 114,73 L 113,72 L 113,66 L 112,65 L 112,63 L 111,62 L 111,60 L 110,59 L 110,58 L 109,57 L 109,54 L 108,54 L 107,53 L 107,52 L 105,50 L 104,50 L 103,49 L 103,48 L 101,48 L 100,47 L 99,47 L 98,46 L 93,46 L 91,48 L 89,48 L 86,51 L 86,52 L 84,54 L 84,55 L 82,57 L 82,58 L 80,60 L 80,61 L 79,62 L 79,63 L 78,64 L 78,67 L 77,68 L 77,69 L 76,70 L 76,73 L 75,74 L 75,76 L 74,77 L 74,83 L 73,84 L 73,86 L 72,87 L 72,94 L 71,95 L 71,100 L 70,101 L 70,106 L 69,107 L 69,114 L 68,115 L 68,120 L 67,121 L 67,125 L 66,126 L 66,136 L 65,137 L 65,143 L 64,144 L 64,149 L 63,150 L 63,153 L 62,154 L 62,157 L 61,158 L 61,160 L 60,161 L 60,163 L 55,168 L 53,168 L 52,169 L 51,168 L 49,168 L 43,162 L 43,159 L 42,158 L 42,156 L 41,155 L 41,152 L 40,151 L 40,148 L 39,147 L 39,134 L 38,133 L 38,132 L 39,131 L 39,130 L 38,129 L 38,123 L 37,122 L 38,121 L 38,116 L 37,115 L 37,102 L 36,101 L 36,98 L 37,97 L 37,96 L 36,95 L 36,83 L 35,82 L 35,68 L 34,67 L 34,65 L 33,64 L 33,48 L 32,47 L 32,39 L 31,38 L 31,31 L 30,30 L 30,29 L 29,28 L 29,27 L 27,25 L 27,24 L 25,22 L 24,22 L 23,21 Z" fill="black" /><path d="M 0,0 L 0,212 L 260,212 L 260,0 Z" fill="none" stroke="black" stroke-width="1" /></svg>