<?xml version='1.0' encoding='utf-8'?>
<svg width="259" height="215" xmlns="http://www.w3.org/2000/svg" viewBox="0 0 259 215"><rect width="259" height="215" fill="white" /><path d="M 208,51 L 208,57 L 210,59 L 210,60 L 211,61 L 211,62 L 212,63 L 212,65 L 213,66 L 213,68 L 214,69 L 214,72 L 215,73 L 215,76 L 216,77 L 216,87 L 217,88 L 216,89 L 216,102 L 215,103 L 215,104 L 214,105 L 214,110 L 213,111 L 213,112 L 212,113 L 212,116 L 211,117 L 211,118 L 210,119 L 210,121 L 209,122 L 209,123 L 208,124 L 208,125 L 206,127 L 206,128 L 205,129 L 205,130 L 204,131 L 204,132 L 203,133 L 202,133 L 202,135 L 200,137 L 200,138 L 199,139 L 198,139 L 198,140 L 195,143 L 194,143 L 194,144 L 193,145 L 192,145 L 192,146 L 191,147 L 190,147 L 190,148 L 187,151 L 185,151 L 183,153 L 182,153 L 182,154 L 181,155 L 180,155 L 179,156 L 178,156 L 177,157 L 176,157 L 174,159 L 172,159 L 170,161 L 168,161 L 167,162 L 166,162 L 165,163 L 161,163 L 159,165 L 156,165 L 155,166 L 154,166 L 153,167 L 146,167 L 145,168 L 144,167 L 142,167 L 141,168 L 123,168 L 121,166 L 121,164 L 119,162 L 119,161 L 120,160 L 120,159 L 119,158 L 119,156 L 118,155 L 118,153 L 117,152 L 117,149 L 115,147 L 115,145 L 114,144 L 114,143 L 113,142 L 113,140 L 111,138 L 111,137 L 110,137 L 107,134 L 107,132 L 105,130 L 105,129 L 104,129 L 103,128 L 103,127 L 102,127 L 101,126 L 101,125 L 100,125 L 98,123 L 98,120 L 99,119 L 103,119 L 104,118 L 107,118 L 107,117 L 108,116 L 110,116 L 111,115 L 111,114 L 113,112 L 113,103 L 110,100 L 110,99 L 108,97 L 104,97 L 103,96 L 99,96 L 98,97 L 96,97 L 94,99 L 93,99 L 90,102 L 90,104 L 89,105 L 89,109 L 88,110 L 88,112 L 87,113 L 86,112 L 85,112 L 83,110 L 83,109 L 81,109 L 80,108 L 79,108 L 76,105 L 73,105 L 71,103 L 69,103 L 67,101 L 60,101 L 59,100 L 58,100 L 57,99 L 36,99 L 35,98 L 34,98 L 33,99 L 29,99 L 28,100 L 26,100 L 25,101 L 22,101 L 21,102 L 21,103 L 23,105 L 29,105 L 30,104 L 37,104 L 38,103 L 49,103 L 50,104 L 57,104 L 59,106 L 66,106 L 68,108 L 70,108 L 72,110 L 73,110 L 74,111 L 75,111 L 76,112 L 77,112 L 78,113 L 79,113 L 80,114 L 81,114 L 83,116 L 84,116 L 86,118 L 87,118 L 88,119 L 89,119 L 100,130 L 100,132 L 104,136 L 104,137 L 106,139 L 106,140 L 107,141 L 107,142 L 108,143 L 108,144 L 110,146 L 110,149 L 112,151 L 112,154 L 113,155 L 113,157 L 114,158 L 114,161 L 115,162 L 115,167 L 116,168 L 116,170 L 117,171 L 120,171 L 121,172 L 126,172 L 127,173 L 142,173 L 143,172 L 149,172 L 150,171 L 152,171 L 153,170 L 158,170 L 159,169 L 161,169 L 162,168 L 165,168 L 166,167 L 167,167 L 168,166 L 171,166 L 171,165 L 172,164 L 175,164 L 175,163 L 176,162 L 179,162 L 180,161 L 181,161 L 184,158 L 185,158 L 186,157 L 187,157 L 187,156 L 189,154 L 191,154 L 193,152 L 193,151 L 194,150 L 195,150 L 195,149 L 196,148 L 197,148 L 197,147 L 198,146 L 199,146 L 203,142 L 203,141 L 205,139 L 205,138 L 207,136 L 207,135 L 209,133 L 211,133 L 214,136 L 214,137 L 216,139 L 217,139 L 218,140 L 227,140 L 228,139 L 229,139 L 233,135 L 233,134 L 235,132 L 235,127 L 234,126 L 234,125 L 233,124 L 233,122 L 230,119 L 228,119 L 227,118 L 226,118 L 225,117 L 224,117 L 223,118 L 219,118 L 217,116 L 218,115 L 218,113 L 219,112 L 219,107 L 220,106 L 220,105 L 221,104 L 221,95 L 222,94 L 222,81 L 221,80 L 221,71 L 220,70 L 220,69 L 219,68 L 219,65 L 218,64 L 218,63 L 217,62 L 217,61 L 216,60 L 216,59 L 215,58 L 215,55 L 212,52 L 212,51 Z" fill="black" /><path d="M 0,0 L 0,214 L 258,214 L 258,0 Z" fill="none" stroke="black" stroke-width="1" /></svg>