<?xml version='1.0' encoding='utf-8'?>
<svg width="256" height="219" xmlns="http://www.w3.org/2000/svg" viewBox="0 0 256 219"><rect width="256" height="219" fill="white" /><path d="M 195,53 L 194,54 L 185,54 L 184,55 L 182,55 L 181,56 L 176,56 L 175,57 L 174,57 L 173,58 L 169,58 L 167,60 L 165,60 L 163,62 L 162,62 L 161,63 L 160,63 L 159,64 L 158,64 L 157,65 L 156,65 L 155,66 L 154,66 L 154,67 L 153,68 L 152,68 L 149,71 L 148,71 L 139,80 L 138,80 L 138,82 L 136,84 L 136,85 L 135,86 L 134,86 L 134,89 L 133,90 L 132,90 L 132,91 L 131,92 L 131,93 L 130,94 L 130,97 L 128,99 L 128,101 L 127,102 L 127,103 L 126,104 L 126,111 L 125,112 L 125,113 L 124,114 L 124,117 L 123,118 L 121,118 L 119,116 L 116,116 L 114,114 L 110,114 L 109,113 L 109,112 L 105,112 L 104,111 L 103,111 L 101,109 L 101,107 L 103,105 L 103,100 L 104,99 L 103,98 L 103,95 L 101,93 L 101,92 L 100,92 L 98,90 L 96,90 L 95,89 L 89,89 L 88,90 L 87,90 L 85,92 L 84,92 L 82,94 L 82,95 L 81,96 L 81,98 L 80,99 L 80,101 L 81,102 L 81,105 L 82,106 L 82,108 L 80,110 L 70,110 L 69,111 L 68,111 L 67,112 L 64,112 L 63,113 L 62,113 L 61,114 L 59,114 L 58,115 L 57,115 L 56,116 L 54,116 L 52,118 L 50,118 L 48,120 L 47,120 L 45,122 L 44,122 L 42,124 L 40,124 L 40,125 L 37,128 L 36,128 L 32,132 L 32,133 L 31,134 L 30,134 L 30,135 L 29,136 L 28,136 L 28,137 L 27,138 L 26,138 L 26,139 L 25,140 L 25,141 L 24,142 L 24,143 L 23,144 L 22,144 L 21,145 L 17,141 L 17,140 L 15,140 L 14,139 L 8,139 L 7,140 L 4,140 L 2,142 L 1,142 L 0,143 L 0,157 L 2,159 L 3,159 L 4,160 L 5,160 L 6,161 L 14,161 L 15,162 L 15,166 L 16,167 L 16,168 L 17,169 L 18,168 L 19,168 L 19,166 L 20,165 L 20,164 L 21,163 L 21,158 L 22,157 L 22,156 L 23,155 L 23,153 L 24,152 L 24,151 L 27,148 L 27,147 L 28,146 L 28,144 L 29,143 L 29,142 L 32,139 L 33,139 L 33,138 L 34,137 L 35,137 L 35,136 L 42,129 L 43,129 L 46,126 L 47,126 L 48,125 L 49,125 L 50,124 L 51,124 L 54,121 L 55,121 L 56,120 L 57,120 L 58,119 L 60,119 L 61,118 L 62,118 L 63,117 L 68,117 L 69,116 L 70,116 L 71,115 L 73,115 L 74,114 L 83,114 L 84,113 L 89,113 L 90,114 L 96,114 L 97,115 L 101,115 L 102,116 L 104,116 L 105,117 L 109,117 L 110,118 L 111,118 L 112,119 L 113,119 L 114,120 L 115,120 L 116,121 L 117,121 L 118,122 L 119,122 L 121,124 L 125,124 L 126,123 L 128,123 L 129,122 L 129,120 L 130,119 L 129,118 L 129,116 L 130,115 L 130,109 L 131,108 L 131,106 L 132,105 L 132,104 L 133,103 L 133,101 L 134,100 L 134,99 L 135,98 L 135,96 L 136,95 L 136,94 L 139,91 L 139,90 L 140,89 L 140,88 L 141,87 L 141,86 L 144,83 L 144,82 L 146,80 L 147,80 L 147,79 L 149,77 L 150,77 L 156,71 L 157,71 L 158,70 L 159,70 L 160,69 L 161,69 L 164,66 L 165,66 L 166,65 L 167,65 L 168,64 L 169,64 L 170,63 L 173,63 L 175,61 L 178,61 L 179,60 L 181,60 L 182,59 L 191,59 L 192,58 L 202,58 L 203,59 L 213,59 L 214,60 L 215,60 L 216,61 L 217,61 L 218,62 L 218,63 L 221,63 L 222,64 L 223,64 L 224,65 L 228,65 L 228,64 L 229,63 L 229,61 L 227,59 L 226,59 L 225,58 L 222,58 L 221,57 L 219,57 L 218,56 L 216,56 L 215,55 L 214,55 L 213,54 L 206,54 L 205,53 Z" fill="black" /><path d="M 8,144 L 4,148 L 4,151 L 5,152 L 5,153 L 6,154 L 6,155 L 8,157 L 10,157 L 11,156 L 12,156 L 13,155 L 14,155 L 16,153 L 16,148 L 12,144 Z" fill="none" stroke="black" stroke-width="1" /><path d="M 90,94 L 86,98 L 86,104 L 87,105 L 89,105 L 91,107 L 95,107 L 97,105 L 97,104 L 98,103 L 98,102 L 99,101 L 99,98 L 97,96 L 95,96 L 93,94 Z" fill="none" stroke="black" stroke-width="1" /><path d="M 0,0 L 0,9 L 1,10 L 1,12 L 0,13 L 0,142 L 1,141 L 2,141 L 4,139 L 7,139 L 8,138 L 14,138 L 15,139 L 17,139 L 18,140 L 18,141 L 21,144 L 22,143 L 23,143 L 23,142 L 24,141 L 24,140 L 25,139 L 25,138 L 26,137 L 27,137 L 27,136 L 28,135 L 29,135 L 29,134 L 30,133 L 31,133 L 31,132 L 36,127 L 37,127 L 39,125 L 39,124 L 40,123 L 42,123 L 44,121 L 45,121 L 47,119 L 48,119 L 50,117 L 52,117 L 54,115 L 56,115 L 57,114 L 58,114 L 59,113 L 61,113 L 62,112 L 63,112 L 64,111 L 67,111 L 68,110 L 69,110 L 70,109 L 80,109 L 81,108 L 81,106 L 80,105 L 80,102 L 79,101 L 79,99 L 80,98 L 80,96 L 81,95 L 81,94 L 84,91 L 85,91 L 87,89 L 88,89 L 89,88 L 95,88 L 96,89 L 98,89 L 100,91 L 101,91 L 102,92 L 102,93 L 104,95 L 104,98 L 105,99 L 104,100 L 104,105 L 102,107 L 102,109 L 103,110 L 104,110 L 105,111 L 109,111 L 110,112 L 110,113 L 114,113 L 116,115 L 119,115 L 121,117 L 123,117 L 123,114 L 124,113 L 124,112 L 125,111 L 125,104 L 126,103 L 126,102 L 127,101 L 127,99 L 129,97 L 129,94 L 130,93 L 130,92 L 131,91 L 131,90 L 132,89 L 133,89 L 133,86 L 134,85 L 135,85 L 135,84 L 137,82 L 137,80 L 138,79 L 139,79 L 148,70 L 149,70 L 152,67 L 153,67 L 153,66 L 154,65 L 155,65 L 156,64 L 157,64 L 158,63 L 159,63 L 160,62 L 161,62 L 162,61 L 163,61 L 165,59 L 167,59 L 169,57 L 173,57 L 174,56 L 175,56 L 176,55 L 181,55 L 182,54 L 184,54 L 185,53 L 194,53 L 195,52 L 205,52 L 206,53 L 213,53 L 214,54 L 215,54 L 216,55 L 218,55 L 219,56 L 221,56 L 222,57 L 225,57 L 226,58 L 227,58 L 230,61 L 230,63 L 229,64 L 229,65 L 228,66 L 224,66 L 223,65 L 222,65 L 221,64 L 218,64 L 217,63 L 217,62 L 216,62 L 215,61 L 214,61 L 213,60 L 203,60 L 202,59 L 192,59 L 191,60 L 182,60 L 181,61 L 179,61 L 178,62 L 175,62 L 173,64 L 170,64 L 169,65 L 168,65 L 167,66 L 166,66 L 165,67 L 164,67 L 161,70 L 160,70 L 159,71 L 158,71 L 157,72 L 156,72 L 150,78 L 149,78 L 148,79 L 148,80 L 147,81 L 146,81 L 145,82 L 145,83 L 142,86 L 142,87 L 141,88 L 141,89 L 140,90 L 140,91 L 137,94 L 137,95 L 136,96 L 136,98 L 135,99 L 135,100 L 134,101 L 134,103 L 133,104 L 133,105 L 132,106 L 132,108 L 131,109 L 131,115 L 130,116 L 130,118 L 131,119 L 130,120 L 130,122 L 128,124 L 126,124 L 125,125 L 121,125 L 119,123 L 118,123 L 117,122 L 116,122 L 115,121 L 114,121 L 113,120 L 112,120 L 111,119 L 110,119 L 109,118 L 105,118 L 104,117 L 102,117 L 101,116 L 97,116 L 96,115 L 90,115 L 89,114 L 84,114 L 83,115 L 74,115 L 73,116 L 71,116 L 70,117 L 69,117 L 68,118 L 63,118 L 62,119 L 61,119 L 60,120 L 58,120 L 57,121 L 56,121 L 55,122 L 54,122 L 51,125 L 50,125 L 49,126 L 48,126 L 47,127 L 46,127 L 43,130 L 42,130 L 36,136 L 36,137 L 35,138 L 34,138 L 34,139 L 33,140 L 32,140 L 30,142 L 30,143 L 29,144 L 29,146 L 28,147 L 28,148 L 25,151 L 25,152 L 24,153 L 24,155 L 23,156 L 23,157 L 22,158 L 22,163 L 21,164 L 21,165 L 20,166 L 20,168 L 19,169 L 18,169 L 17,170 L 15,168 L 15,167 L 14,166 L 14,162 L 6,162 L 5,161 L 4,161 L 3,160 L 2,160 L 0,158 L 0,218 L 255,218 L 255,0 Z" fill="none" stroke="black" stroke-width="1" /></svg>