<?xml version='1.0' encoding='utf-8'?>
<svg width="261" height="216" xmlns="http://www.w3.org/2000/svg" viewBox="0 0 261 216"><rect width="261" height="216" fill="white" /><path d="M 226,3 L 226,4 L 224,6 L 224,19 L 223,20 L 220,20 L 219,19 L 219,18 L 218,18 L 216,16 L 210,16 L 209,17 L 205,17 L 203,19 L 202,19 L 201,20 L 201,21 L 200,22 L 200,28 L 199,29 L 200,30 L 200,33 L 202,35 L 202,36 L 203,37 L 204,37 L 206,39 L 215,39 L 216,38 L 218,38 L 219,39 L 219,42 L 218,43 L 218,48 L 217,49 L 217,53 L 216,54 L 216,55 L 214,57 L 214,60 L 212,62 L 212,65 L 211,66 L 211,67 L 210,68 L 210,69 L 209,70 L 208,70 L 208,72 L 200,80 L 199,80 L 197,82 L 196,82 L 196,83 L 195,84 L 194,84 L 192,86 L 190,86 L 188,88 L 186,88 L 185,89 L 184,89 L 183,90 L 181,90 L 180,91 L 177,91 L 176,92 L 172,92 L 171,93 L 163,93 L 162,92 L 156,92 L 155,91 L 153,91 L 152,90 L 150,90 L 148,88 L 146,88 L 144,86 L 143,86 L 141,84 L 139,84 L 139,85 L 137,87 L 137,89 L 138,90 L 138,93 L 140,95 L 140,98 L 142,100 L 142,103 L 143,104 L 143,105 L 144,106 L 144,109 L 143,110 L 143,113 L 144,114 L 144,115 L 143,116 L 143,118 L 142,119 L 142,126 L 141,127 L 141,128 L 140,129 L 140,131 L 138,133 L 138,135 L 136,137 L 136,138 L 134,140 L 134,141 L 127,148 L 126,148 L 126,149 L 125,150 L 124,150 L 122,152 L 121,152 L 119,154 L 117,154 L 115,156 L 114,156 L 113,157 L 112,157 L 111,158 L 108,158 L 107,159 L 106,159 L 105,160 L 88,160 L 87,159 L 83,159 L 82,158 L 80,158 L 78,156 L 77,156 L 76,155 L 75,155 L 74,154 L 72,154 L 70,152 L 68,152 L 67,151 L 67,150 L 65,150 L 63,148 L 61,148 L 59,146 L 58,146 L 57,145 L 57,144 L 55,144 L 53,142 L 52,142 L 46,136 L 45,136 L 43,134 L 42,134 L 41,133 L 41,132 L 35,126 L 34,126 L 32,124 L 30,124 L 29,125 L 29,128 L 32,131 L 33,131 L 34,132 L 34,133 L 35,133 L 36,134 L 36,135 L 37,135 L 38,136 L 38,137 L 40,139 L 41,139 L 42,140 L 42,141 L 44,141 L 48,145 L 49,145 L 51,147 L 52,147 L 54,149 L 55,149 L 57,151 L 58,151 L 60,153 L 61,153 L 63,155 L 64,155 L 66,157 L 68,157 L 72,161 L 75,161 L 77,163 L 80,163 L 81,164 L 82,164 L 83,165 L 103,165 L 104,164 L 107,164 L 108,163 L 112,163 L 114,161 L 117,161 L 119,159 L 120,159 L 122,157 L 123,157 L 124,156 L 125,156 L 126,155 L 127,155 L 127,154 L 128,153 L 129,153 L 132,150 L 133,150 L 137,146 L 137,144 L 140,141 L 141,141 L 141,139 L 143,137 L 143,134 L 145,132 L 145,130 L 146,129 L 146,128 L 147,127 L 147,123 L 148,122 L 148,119 L 149,118 L 149,116 L 148,115 L 148,112 L 149,111 L 148,110 L 148,104 L 147,103 L 147,99 L 145,97 L 146,96 L 146,95 L 147,94 L 149,94 L 150,95 L 151,95 L 152,96 L 156,96 L 157,97 L 166,97 L 168,99 L 168,104 L 169,105 L 169,107 L 170,108 L 170,110 L 173,113 L 175,113 L 176,114 L 177,114 L 178,115 L 182,115 L 184,113 L 187,113 L 191,109 L 191,107 L 192,106 L 192,101 L 191,100 L 191,98 L 190,97 L 190,96 L 189,95 L 189,93 L 190,92 L 191,92 L 192,91 L 193,91 L 194,90 L 195,90 L 196,89 L 197,89 L 197,88 L 198,87 L 199,87 L 201,85 L 202,85 L 204,83 L 205,83 L 205,82 L 206,81 L 207,81 L 207,80 L 208,79 L 209,79 L 209,78 L 210,77 L 211,77 L 211,76 L 213,74 L 213,73 L 214,72 L 214,71 L 215,70 L 215,69 L 217,67 L 217,64 L 218,63 L 218,62 L 219,61 L 219,60 L 220,59 L 220,58 L 221,57 L 221,55 L 222,54 L 222,53 L 223,52 L 223,48 L 224,47 L 224,46 L 225,45 L 225,41 L 226,40 L 226,39 L 227,38 L 227,32 L 228,31 L 228,24 L 229,23 L 229,16 L 230,15 L 229,14 L 229,4 L 228,3 Z" fill="black" /><path d="M 0,0 L 0,215 L 260,215 L 260,0 Z" fill="none" stroke="black" stroke-width="1" /></svg>