<?xml version='1.0' encoding='utf-8'?>
<svg width="262" height="221" xmlns="http://www.w3.org/2000/svg" viewBox="0 0 262 221"><rect width="262" height="221" fill="white" /><path d="M 76,80 L 74,82 L 74,84 L 73,85 L 72,85 L 72,86 L 71,87 L 71,88 L 66,93 L 66,94 L 58,102 L 58,103 L 56,105 L 55,105 L 52,108 L 52,109 L 48,113 L 47,113 L 43,117 L 42,117 L 39,120 L 38,120 L 37,121 L 36,121 L 35,122 L 34,122 L 33,123 L 32,123 L 32,124 L 31,125 L 29,125 L 28,126 L 27,126 L 26,127 L 25,127 L 23,129 L 21,129 L 19,131 L 16,131 L 15,132 L 14,132 L 12,134 L 12,136 L 13,136 L 14,137 L 17,137 L 18,136 L 19,136 L 20,135 L 22,135 L 23,134 L 24,134 L 26,132 L 27,132 L 28,131 L 29,131 L 30,130 L 31,130 L 33,128 L 35,128 L 37,126 L 38,126 L 40,124 L 41,124 L 43,122 L 44,122 L 46,120 L 47,120 L 47,119 L 48,118 L 49,118 L 53,114 L 54,114 L 54,113 L 55,112 L 56,112 L 59,109 L 59,108 L 62,105 L 63,105 L 69,99 L 69,97 L 73,93 L 74,93 L 76,95 L 76,98 L 77,99 L 77,100 L 78,101 L 78,107 L 79,108 L 79,109 L 80,110 L 80,112 L 82,114 L 82,118 L 84,120 L 84,123 L 85,124 L 85,125 L 88,128 L 88,130 L 89,131 L 89,132 L 90,133 L 90,134 L 91,135 L 91,136 L 92,137 L 92,138 L 93,138 L 94,139 L 94,140 L 95,141 L 95,142 L 96,143 L 96,144 L 97,144 L 98,145 L 98,146 L 99,147 L 99,148 L 100,149 L 100,150 L 101,150 L 102,151 L 102,152 L 104,154 L 104,155 L 112,163 L 112,164 L 113,164 L 120,171 L 120,172 L 121,172 L 123,174 L 124,174 L 126,176 L 127,176 L 130,179 L 131,179 L 132,180 L 133,180 L 136,183 L 137,183 L 138,184 L 140,184 L 142,186 L 143,186 L 144,187 L 145,187 L 146,188 L 147,188 L 148,189 L 149,189 L 150,190 L 151,190 L 153,192 L 156,192 L 157,193 L 158,193 L 159,194 L 162,194 L 163,195 L 165,195 L 166,196 L 169,196 L 170,197 L 171,197 L 172,198 L 174,198 L 175,199 L 175,202 L 174,203 L 174,204 L 172,206 L 172,208 L 170,210 L 170,212 L 171,213 L 171,214 L 172,215 L 172,217 L 174,219 L 174,220 L 189,220 L 190,219 L 191,219 L 191,218 L 193,216 L 193,213 L 194,212 L 194,209 L 193,208 L 193,206 L 192,205 L 192,204 L 191,203 L 192,202 L 193,202 L 194,201 L 195,202 L 212,202 L 213,201 L 222,201 L 223,200 L 233,200 L 234,199 L 237,199 L 238,198 L 241,198 L 242,197 L 243,197 L 244,196 L 249,196 L 249,195 L 250,194 L 249,193 L 249,192 L 248,191 L 246,191 L 245,192 L 244,192 L 243,193 L 238,193 L 237,194 L 236,194 L 235,195 L 229,195 L 228,196 L 225,196 L 224,197 L 198,197 L 197,196 L 196,196 L 195,197 L 191,197 L 190,196 L 185,196 L 184,195 L 179,195 L 178,194 L 177,194 L 176,193 L 172,193 L 171,192 L 169,192 L 168,191 L 164,191 L 162,189 L 160,189 L 159,188 L 158,188 L 157,187 L 156,187 L 155,186 L 154,186 L 153,185 L 151,185 L 149,183 L 148,183 L 147,182 L 146,182 L 145,181 L 143,181 L 141,179 L 139,179 L 135,175 L 134,175 L 133,174 L 132,174 L 131,173 L 130,173 L 129,172 L 129,171 L 128,171 L 122,165 L 121,165 L 119,163 L 119,162 L 118,161 L 117,161 L 115,159 L 115,158 L 113,156 L 113,155 L 112,155 L 109,152 L 108,152 L 107,151 L 107,150 L 105,148 L 105,147 L 103,145 L 103,144 L 102,143 L 101,143 L 100,142 L 100,140 L 102,138 L 107,138 L 109,136 L 111,136 L 113,134 L 113,133 L 114,132 L 114,129 L 115,128 L 115,125 L 114,124 L 114,123 L 113,122 L 113,120 L 110,117 L 108,117 L 107,116 L 101,116 L 100,117 L 98,117 L 96,119 L 96,120 L 93,123 L 90,123 L 89,122 L 89,121 L 88,120 L 88,119 L 87,118 L 87,116 L 86,115 L 86,113 L 85,112 L 85,108 L 83,106 L 83,100 L 82,99 L 82,97 L 81,96 L 81,87 L 80,86 L 80,83 L 79,82 L 79,80 Z" fill="black" /><path d="M 179,205 L 177,207 L 177,208 L 176,209 L 176,212 L 178,214 L 178,215 L 179,216 L 186,216 L 187,215 L 187,214 L 188,213 L 188,212 L 187,211 L 187,207 L 185,205 Z" fill="none" stroke="black" stroke-width="1" /><path d="M 104,122 L 103,123 L 101,123 L 98,126 L 98,131 L 99,131 L 100,132 L 106,132 L 107,131 L 107,130 L 109,128 L 109,126 L 108,125 L 108,124 L 106,122 Z" fill="none" stroke="black" stroke-width="1" /><path d="M 0,0 L 0,220 L 173,220 L 173,219 L 171,217 L 171,215 L 170,214 L 170,213 L 169,212 L 169,210 L 171,208 L 171,206 L 173,204 L 173,203 L 174,202 L 174,199 L 172,199 L 171,198 L 170,198 L 169,197 L 166,197 L 165,196 L 163,196 L 162,195 L 159,195 L 158,194 L 157,194 L 156,193 L 153,193 L 151,191 L 150,191 L 149,190 L 148,190 L 147,189 L 146,189 L 145,188 L 144,188 L 143,187 L 142,187 L 140,185 L 138,185 L 137,184 L 136,184 L 133,181 L 132,181 L 131,180 L 130,180 L 127,177 L 126,177 L 124,175 L 123,175 L 121,173 L 120,173 L 119,172 L 119,171 L 113,165 L 112,165 L 111,164 L 111,163 L 103,155 L 103,154 L 101,152 L 101,151 L 100,151 L 99,150 L 99,149 L 98,148 L 98,147 L 97,146 L 97,145 L 96,145 L 95,144 L 95,143 L 94,142 L 94,141 L 93,140 L 93,139 L 92,139 L 91,138 L 91,137 L 90,136 L 90,135 L 89,134 L 89,133 L 88,132 L 88,131 L 87,130 L 87,128 L 84,125 L 84,124 L 83,123 L 83,120 L 81,118 L 81,114 L 79,112 L 79,110 L 78,109 L 78,108 L 77,107 L 77,101 L 76,100 L 76,99 L 75,98 L 75,95 L 74,94 L 73,94 L 70,97 L 70,99 L 63,106 L 62,106 L 60,108 L 60,109 L 56,113 L 55,113 L 55,114 L 54,115 L 53,115 L 49,119 L 48,119 L 48,120 L 47,121 L 46,121 L 44,123 L 43,123 L 41,125 L 40,125 L 38,127 L 37,127 L 35,129 L 33,129 L 31,131 L 30,131 L 29,132 L 28,132 L 27,133 L 26,133 L 24,135 L 23,135 L 22,136 L 20,136 L 19,137 L 18,137 L 17,138 L 14,138 L 13,137 L 12,137 L 11,136 L 11,134 L 14,131 L 15,131 L 16,130 L 19,130 L 21,128 L 23,128 L 25,126 L 26,126 L 27,125 L 28,125 L 29,124 L 31,124 L 31,123 L 32,122 L 33,122 L 34,121 L 35,121 L 36,120 L 37,120 L 38,119 L 39,119 L 42,116 L 43,116 L 47,112 L 48,112 L 51,109 L 51,108 L 55,104 L 56,104 L 57,103 L 57,102 L 65,94 L 65,93 L 70,88 L 70,87 L 71,86 L 71,85 L 72,84 L 73,84 L 73,82 L 76,79 L 79,79 L 80,80 L 80,82 L 81,83 L 81,86 L 82,87 L 82,96 L 83,97 L 83,99 L 84,100 L 84,106 L 86,108 L 86,112 L 87,113 L 87,115 L 88,116 L 88,118 L 89,119 L 89,120 L 90,121 L 90,122 L 93,122 L 95,120 L 95,119 L 98,116 L 100,116 L 101,115 L 107,115 L 108,116 L 110,116 L 114,120 L 114,122 L 115,123 L 115,124 L 116,125 L 116,128 L 115,129 L 115,132 L 114,133 L 114,134 L 111,137 L 109,137 L 107,139 L 102,139 L 101,140 L 101,142 L 102,142 L 104,144 L 104,145 L 106,147 L 106,148 L 108,150 L 108,151 L 109,151 L 112,154 L 113,154 L 114,155 L 114,156 L 116,158 L 116,159 L 117,160 L 118,160 L 120,162 L 120,163 L 121,164 L 122,164 L 128,170 L 129,170 L 130,171 L 130,172 L 131,172 L 132,173 L 133,173 L 134,174 L 135,174 L 139,178 L 141,178 L 143,180 L 145,180 L 146,181 L 147,181 L 148,182 L 149,182 L 151,184 L 153,184 L 154,185 L 155,185 L 156,186 L 157,186 L 158,187 L 159,187 L 160,188 L 162,188 L 164,190 L 168,190 L 169,191 L 171,191 L 172,192 L 176,192 L 177,193 L 178,193 L 179,194 L 184,194 L 185,195 L 190,195 L 191,196 L 195,196 L 196,195 L 197,195 L 198,196 L 224,196 L 225,195 L 228,195 L 229,194 L 235,194 L 236,193 L 237,193 L 238,192 L 243,192 L 244,191 L 245,191 L 246,190 L 248,190 L 250,192 L 250,193 L 251,194 L 250,195 L 250,196 L 249,197 L 244,197 L 243,198 L 242,198 L 241,199 L 238,199 L 237,200 L 234,200 L 233,201 L 223,201 L 222,202 L 213,202 L 212,203 L 195,203 L 194,202 L 193,203 L 192,203 L 193,204 L 193,205 L 194,206 L 194,208 L 195,209 L 195,212 L 194,213 L 194,216 L 192,218 L 192,219 L 191,220 L 190,220 L 261,220 L 261,0 Z" fill="none" stroke="black" stroke-width="1" /></svg>