<?xml version='1.0' encoding='utf-8'?>
<svg width="257" height="218" xmlns="http://www.w3.org/2000/svg" viewBox="0 0 257 218"><rect width="257" height="218" fill="white" /><path d="M 226,45 L 225,46 L 222,46 L 221,47 L 217,47 L 216,48 L 215,48 L 214,49 L 212,49 L 210,51 L 207,51 L 205,53 L 204,53 L 202,55 L 200,55 L 198,57 L 197,57 L 195,59 L 194,59 L 192,61 L 191,61 L 189,63 L 188,63 L 184,67 L 182,67 L 174,75 L 173,75 L 169,79 L 168,79 L 168,80 L 165,83 L 164,83 L 161,86 L 161,87 L 160,88 L 158,88 L 156,86 L 156,72 L 157,71 L 157,69 L 156,68 L 156,65 L 157,64 L 157,51 L 158,50 L 158,48 L 157,47 L 119,47 L 118,48 L 117,48 L 116,47 L 111,47 L 110,48 L 107,48 L 106,47 L 97,47 L 96,48 L 95,47 L 77,47 L 76,48 L 63,48 L 62,47 L 55,47 L 54,48 L 51,48 L 51,50 L 50,51 L 50,70 L 49,71 L 49,75 L 50,76 L 50,82 L 49,83 L 49,159 L 80,159 L 81,158 L 82,158 L 83,159 L 88,159 L 89,158 L 113,158 L 114,159 L 114,166 L 113,167 L 113,172 L 112,173 L 112,174 L 111,175 L 111,178 L 110,179 L 110,184 L 109,185 L 109,188 L 110,189 L 110,192 L 111,193 L 111,196 L 112,197 L 112,198 L 113,199 L 113,201 L 117,205 L 117,206 L 119,208 L 122,208 L 124,210 L 128,210 L 129,211 L 136,211 L 137,210 L 142,210 L 142,209 L 143,208 L 144,208 L 146,206 L 148,206 L 149,205 L 150,205 L 151,204 L 152,204 L 153,203 L 154,203 L 155,202 L 156,202 L 158,200 L 159,200 L 161,198 L 162,198 L 163,197 L 164,197 L 165,196 L 166,196 L 169,193 L 170,193 L 171,192 L 172,192 L 172,191 L 173,190 L 174,190 L 174,189 L 177,186 L 178,186 L 180,184 L 181,184 L 182,183 L 182,181 L 183,180 L 185,180 L 187,178 L 188,178 L 188,177 L 196,169 L 196,168 L 198,166 L 198,165 L 199,164 L 200,164 L 200,163 L 199,162 L 200,161 L 202,161 L 206,157 L 206,156 L 208,154 L 208,153 L 212,149 L 212,147 L 213,146 L 214,146 L 214,145 L 215,144 L 215,143 L 216,142 L 216,141 L 218,139 L 218,137 L 221,134 L 221,133 L 222,132 L 222,131 L 223,130 L 223,129 L 224,128 L 224,127 L 226,125 L 226,123 L 227,122 L 227,121 L 228,120 L 228,119 L 229,118 L 229,116 L 230,115 L 230,114 L 232,112 L 232,109 L 234,107 L 234,104 L 236,102 L 236,99 L 238,97 L 238,94 L 240,92 L 240,88 L 242,86 L 242,79 L 243,78 L 243,77 L 244,76 L 244,68 L 245,67 L 245,65 L 244,64 L 244,59 L 243,58 L 243,57 L 242,56 L 242,55 L 241,55 L 240,54 L 240,51 L 238,49 L 236,49 L 234,47 L 233,47 L 232,46 L 227,46 Z" fill="black" /><path d="M 0,0 L 0,217 L 256,217 L 256,0 Z" fill="none" stroke="black" stroke-width="1" /></svg>