<?xml version='1.0' encoding='utf-8'?>
<svg width="260" height="218" xmlns="http://www.w3.org/2000/svg" viewBox="0 0 260 218"><rect width="260" height="218" fill="white" /><path d="M 177,2 L 176,3 L 173,3 L 172,4 L 169,4 L 169,5 L 168,6 L 165,6 L 163,8 L 162,8 L 160,10 L 159,10 L 156,13 L 156,14 L 154,16 L 153,16 L 153,17 L 149,21 L 149,22 L 147,24 L 147,25 L 146,26 L 146,27 L 145,28 L 145,29 L 144,30 L 144,31 L 143,32 L 143,33 L 140,36 L 139,36 L 138,37 L 137,37 L 136,38 L 135,38 L 131,42 L 130,42 L 128,44 L 127,44 L 125,46 L 124,46 L 122,48 L 121,48 L 118,51 L 117,51 L 116,52 L 115,52 L 112,55 L 111,55 L 110,56 L 109,56 L 109,57 L 108,58 L 107,58 L 105,60 L 104,60 L 100,64 L 99,64 L 97,66 L 96,66 L 94,68 L 93,68 L 93,69 L 92,70 L 91,70 L 87,74 L 85,74 L 82,77 L 81,77 L 80,78 L 80,79 L 79,80 L 77,80 L 77,81 L 76,82 L 75,82 L 74,83 L 73,83 L 72,84 L 71,84 L 71,85 L 70,86 L 69,86 L 67,88 L 66,88 L 64,90 L 63,90 L 61,92 L 60,92 L 56,96 L 55,96 L 55,100 L 57,102 L 58,102 L 59,103 L 60,103 L 62,105 L 66,105 L 67,106 L 68,106 L 69,107 L 70,107 L 71,108 L 73,108 L 74,109 L 76,109 L 78,111 L 80,111 L 81,112 L 81,113 L 83,113 L 85,115 L 86,115 L 87,116 L 88,116 L 89,117 L 90,117 L 91,118 L 92,118 L 93,119 L 94,119 L 95,120 L 96,120 L 97,121 L 100,121 L 101,122 L 101,123 L 104,123 L 106,125 L 108,125 L 109,126 L 110,126 L 111,127 L 112,127 L 114,129 L 117,129 L 119,131 L 120,131 L 121,132 L 122,132 L 123,133 L 126,133 L 128,135 L 130,135 L 131,136 L 132,136 L 133,137 L 134,137 L 135,138 L 136,138 L 137,139 L 138,139 L 140,141 L 142,141 L 144,143 L 147,143 L 148,144 L 149,144 L 150,145 L 151,145 L 153,147 L 156,147 L 157,148 L 158,148 L 159,149 L 160,149 L 162,151 L 164,151 L 166,153 L 169,153 L 171,155 L 173,155 L 175,157 L 176,157 L 178,159 L 180,159 L 181,160 L 182,160 L 183,161 L 185,161 L 186,162 L 188,162 L 189,163 L 190,163 L 192,165 L 194,165 L 196,167 L 198,167 L 200,169 L 202,169 L 203,170 L 204,170 L 205,171 L 206,171 L 207,172 L 208,172 L 209,173 L 210,173 L 211,174 L 212,174 L 213,175 L 216,175 L 217,174 L 217,173 L 218,172 L 218,171 L 217,170 L 217,168 L 216,167 L 216,152 L 215,151 L 215,150 L 216,149 L 216,146 L 215,145 L 215,142 L 214,141 L 215,140 L 215,138 L 214,137 L 214,124 L 213,123 L 214,122 L 214,118 L 213,117 L 213,108 L 212,107 L 212,91 L 211,90 L 211,84 L 210,83 L 210,81 L 211,80 L 211,79 L 218,72 L 218,71 L 220,69 L 220,68 L 221,67 L 221,66 L 224,63 L 224,61 L 226,59 L 226,55 L 227,54 L 227,52 L 228,51 L 228,32 L 227,31 L 227,30 L 226,29 L 226,28 L 224,26 L 224,25 L 222,23 L 222,21 L 220,19 L 220,18 L 219,18 L 218,17 L 218,16 L 217,16 L 216,15 L 216,14 L 215,14 L 214,13 L 214,12 L 213,12 L 209,8 L 208,8 L 206,6 L 204,6 L 203,5 L 202,5 L 201,4 L 198,4 L 197,3 L 195,3 L 194,2 Z" fill="black" /><path d="M 0,0 L 0,217 L 259,217 L 259,0 Z" fill="none" stroke="black" stroke-width="1" /></svg>