<?xml version='1.0' encoding='utf-8'?>
<svg width="258" height="217" xmlns="http://www.w3.org/2000/svg" viewBox="0 0 258 217"><rect width="258" height="217" fill="white" /><path d="M 119,14 L 119,15 L 118,16 L 118,17 L 116,19 L 116,21 L 115,22 L 114,22 L 114,23 L 113,24 L 113,25 L 112,26 L 112,27 L 110,29 L 110,30 L 108,32 L 108,33 L 106,35 L 106,37 L 105,38 L 104,38 L 104,39 L 103,40 L 103,41 L 102,42 L 102,43 L 100,45 L 100,46 L 98,48 L 98,49 L 97,50 L 97,51 L 96,52 L 96,53 L 94,55 L 94,56 L 92,58 L 92,59 L 91,60 L 91,61 L 88,64 L 88,65 L 87,66 L 87,67 L 86,68 L 86,69 L 85,70 L 84,70 L 84,72 L 82,74 L 82,75 L 80,77 L 80,79 L 79,80 L 78,80 L 78,81 L 77,82 L 77,83 L 76,84 L 76,85 L 75,86 L 74,86 L 74,88 L 72,90 L 72,91 L 70,93 L 70,94 L 68,96 L 68,97 L 66,99 L 66,101 L 65,102 L 64,102 L 64,104 L 62,106 L 62,108 L 58,112 L 58,113 L 57,114 L 57,115 L 56,116 L 56,117 L 55,118 L 54,118 L 54,119 L 53,120 L 53,121 L 52,122 L 52,123 L 50,125 L 50,126 L 48,128 L 48,129 L 46,131 L 46,133 L 45,134 L 44,134 L 44,135 L 43,136 L 43,137 L 42,138 L 42,139 L 41,140 L 40,140 L 40,142 L 38,144 L 38,145 L 36,147 L 36,148 L 34,150 L 34,151 L 33,152 L 33,153 L 32,154 L 32,155 L 31,156 L 30,156 L 30,157 L 29,158 L 29,159 L 28,160 L 28,161 L 25,164 L 26,165 L 29,165 L 30,166 L 31,165 L 33,165 L 34,166 L 36,166 L 37,165 L 56,165 L 57,166 L 76,166 L 77,165 L 78,166 L 84,166 L 85,167 L 87,167 L 88,168 L 89,168 L 94,173 L 95,173 L 97,175 L 99,175 L 101,177 L 104,177 L 106,179 L 109,179 L 110,180 L 115,180 L 116,181 L 125,181 L 126,180 L 129,180 L 130,179 L 134,179 L 136,177 L 139,177 L 141,175 L 143,175 L 143,174 L 144,173 L 145,173 L 146,172 L 147,172 L 148,171 L 149,171 L 149,170 L 150,169 L 151,169 L 153,167 L 160,167 L 161,168 L 164,168 L 165,167 L 169,167 L 170,168 L 203,168 L 203,164 L 201,162 L 201,161 L 199,159 L 199,158 L 198,157 L 198,156 L 197,155 L 197,154 L 196,153 L 196,152 L 195,151 L 195,150 L 194,149 L 194,148 L 193,147 L 193,146 L 192,145 L 192,144 L 191,143 L 191,142 L 190,141 L 190,140 L 189,139 L 189,138 L 187,136 L 187,134 L 185,132 L 185,131 L 183,129 L 183,127 L 181,125 L 181,124 L 180,123 L 180,122 L 179,121 L 179,120 L 178,119 L 178,118 L 177,117 L 177,116 L 175,114 L 175,112 L 174,112 L 173,111 L 173,109 L 171,107 L 171,105 L 169,103 L 169,102 L 168,101 L 168,100 L 167,99 L 167,98 L 166,97 L 166,96 L 165,95 L 165,94 L 163,92 L 163,90 L 161,88 L 161,86 L 159,84 L 159,82 L 157,80 L 157,78 L 155,76 L 155,75 L 153,73 L 153,72 L 152,71 L 152,70 L 151,69 L 151,68 L 150,67 L 150,66 L 149,65 L 149,64 L 148,63 L 148,62 L 147,61 L 147,60 L 146,59 L 146,58 L 145,57 L 145,56 L 144,55 L 144,54 L 143,53 L 143,52 L 141,50 L 141,48 L 139,46 L 139,44 L 137,42 L 137,40 L 135,38 L 135,36 L 133,34 L 133,32 L 131,30 L 131,29 L 130,28 L 130,27 L 128,25 L 128,24 L 127,23 L 127,22 L 124,19 L 124,18 L 123,17 L 123,16 L 122,15 L 122,14 Z" fill="black" /><path d="M 0,0 L 0,216 L 257,216 L 257,0 Z" fill="none" stroke="black" stroke-width="1" /></svg>