<?xml version='1.0' encoding='utf-8'?>
<svg width="260" height="218" xmlns="http://www.w3.org/2000/svg" viewBox="0 0 260 218"><rect width="260" height="218" fill="white" /><path d="M 128,18 L 127,19 L 122,19 L 121,20 L 116,20 L 115,21 L 114,21 L 113,22 L 110,22 L 108,24 L 105,24 L 103,26 L 102,26 L 100,28 L 99,28 L 97,30 L 95,30 L 92,33 L 92,34 L 90,36 L 90,38 L 88,40 L 88,41 L 87,42 L 86,42 L 86,45 L 85,46 L 85,47 L 84,48 L 84,49 L 82,51 L 82,53 L 81,54 L 80,54 L 80,57 L 79,58 L 79,59 L 78,60 L 78,63 L 76,65 L 76,68 L 75,69 L 75,71 L 71,75 L 70,75 L 69,76 L 68,76 L 67,77 L 66,77 L 65,78 L 64,78 L 63,79 L 62,79 L 61,80 L 60,80 L 59,81 L 58,81 L 57,82 L 55,82 L 53,84 L 52,84 L 50,86 L 48,86 L 46,88 L 44,88 L 42,90 L 40,90 L 38,92 L 37,92 L 36,93 L 35,93 L 34,94 L 32,94 L 30,96 L 29,96 L 27,98 L 26,98 L 25,99 L 24,99 L 23,100 L 21,100 L 19,102 L 18,102 L 16,104 L 16,107 L 19,107 L 20,108 L 21,108 L 22,109 L 23,109 L 25,111 L 27,111 L 28,112 L 28,113 L 30,113 L 32,115 L 33,115 L 34,116 L 34,117 L 37,117 L 38,118 L 39,118 L 40,119 L 42,119 L 44,121 L 46,121 L 48,123 L 49,123 L 51,125 L 52,125 L 54,127 L 56,127 L 58,129 L 61,129 L 64,132 L 65,132 L 66,133 L 67,133 L 68,134 L 70,134 L 72,136 L 72,139 L 73,140 L 73,141 L 74,142 L 74,147 L 75,148 L 75,149 L 76,150 L 76,152 L 78,154 L 78,156 L 79,157 L 79,159 L 80,160 L 80,162 L 82,164 L 82,165 L 85,168 L 85,169 L 86,170 L 86,171 L 87,172 L 87,173 L 88,174 L 88,175 L 90,177 L 90,178 L 92,180 L 92,181 L 93,181 L 94,182 L 94,183 L 95,183 L 98,186 L 98,187 L 100,189 L 102,189 L 106,193 L 107,193 L 109,195 L 111,195 L 112,196 L 114,196 L 115,197 L 118,197 L 119,198 L 121,198 L 122,199 L 126,199 L 127,200 L 136,200 L 137,201 L 139,201 L 140,200 L 145,200 L 146,199 L 149,199 L 150,198 L 151,198 L 152,197 L 157,197 L 158,196 L 159,196 L 160,195 L 161,195 L 163,193 L 164,193 L 166,191 L 167,191 L 168,190 L 169,190 L 170,189 L 171,189 L 171,188 L 172,187 L 173,187 L 177,183 L 177,182 L 178,181 L 179,181 L 179,180 L 181,178 L 181,177 L 183,175 L 183,173 L 185,171 L 185,170 L 186,169 L 186,168 L 187,167 L 187,164 L 188,163 L 188,162 L 189,161 L 189,160 L 190,159 L 190,158 L 191,157 L 191,154 L 193,152 L 193,150 L 194,149 L 194,147 L 195,146 L 195,142 L 196,141 L 196,138 L 197,137 L 197,130 L 198,129 L 198,124 L 199,123 L 199,96 L 198,95 L 198,90 L 197,89 L 197,85 L 196,84 L 196,81 L 195,80 L 195,77 L 194,76 L 194,74 L 193,73 L 193,70 L 192,69 L 192,67 L 191,66 L 191,64 L 189,62 L 189,60 L 188,60 L 187,59 L 187,56 L 185,54 L 185,53 L 183,51 L 183,50 L 181,48 L 181,47 L 179,45 L 179,44 L 178,44 L 175,41 L 175,39 L 171,35 L 171,34 L 170,34 L 167,31 L 167,30 L 166,30 L 165,29 L 164,29 L 163,28 L 162,28 L 160,26 L 159,26 L 157,24 L 155,24 L 154,23 L 153,23 L 152,22 L 149,22 L 148,21 L 146,21 L 145,20 L 142,20 L 141,19 L 137,19 L 136,18 Z" fill="black" /></svg>