<?xml version='1.0' encoding='utf-8'?>
<svg width="259" height="214" xmlns="http://www.w3.org/2000/svg" viewBox="0 0 259 214"><rect width="259" height="214" fill="white" /><path d="M 164,24 L 163,25 L 161,25 L 160,26 L 156,26 L 154,28 L 150,28 L 150,29 L 149,30 L 146,30 L 144,32 L 143,32 L 142,33 L 141,33 L 140,34 L 139,34 L 139,35 L 136,38 L 134,38 L 130,42 L 127,42 L 126,41 L 124,41 L 123,40 L 111,40 L 110,39 L 109,39 L 108,40 L 97,40 L 96,41 L 94,41 L 93,42 L 91,42 L 90,43 L 89,43 L 88,44 L 86,44 L 85,45 L 84,45 L 83,46 L 81,46 L 80,47 L 79,47 L 76,50 L 75,50 L 74,51 L 73,51 L 72,52 L 71,52 L 71,53 L 70,54 L 69,54 L 67,56 L 67,57 L 66,58 L 65,58 L 65,59 L 64,60 L 63,60 L 63,61 L 60,64 L 60,65 L 57,68 L 57,70 L 55,72 L 55,74 L 54,75 L 54,76 L 53,77 L 53,79 L 52,80 L 52,81 L 51,82 L 51,89 L 50,90 L 50,93 L 49,94 L 49,105 L 50,106 L 50,109 L 51,110 L 51,115 L 52,116 L 52,117 L 53,118 L 53,121 L 54,122 L 54,123 L 55,124 L 55,125 L 57,127 L 57,129 L 58,129 L 59,130 L 59,133 L 60,133 L 61,134 L 61,135 L 66,140 L 66,141 L 67,142 L 68,142 L 71,145 L 72,145 L 73,146 L 73,147 L 74,147 L 75,148 L 76,148 L 77,149 L 78,149 L 79,150 L 79,151 L 81,151 L 83,153 L 85,153 L 86,154 L 87,154 L 88,155 L 90,155 L 92,157 L 98,157 L 99,158 L 104,158 L 105,159 L 116,159 L 117,158 L 119,158 L 120,157 L 125,157 L 126,156 L 128,156 L 129,155 L 132,155 L 133,154 L 134,154 L 135,153 L 136,153 L 137,152 L 138,152 L 139,151 L 140,151 L 141,150 L 142,150 L 143,149 L 144,149 L 148,145 L 149,145 L 149,144 L 150,143 L 151,143 L 153,141 L 159,141 L 160,142 L 162,142 L 163,143 L 180,143 L 181,142 L 188,142 L 189,141 L 192,141 L 193,140 L 194,140 L 195,139 L 198,139 L 199,138 L 200,138 L 201,137 L 202,137 L 204,135 L 205,135 L 207,133 L 208,133 L 212,129 L 213,129 L 223,119 L 223,118 L 224,117 L 224,116 L 225,115 L 226,115 L 226,113 L 228,111 L 228,110 L 229,109 L 229,108 L 230,107 L 230,104 L 232,102 L 232,100 L 233,99 L 233,95 L 234,94 L 234,89 L 235,88 L 235,80 L 234,79 L 234,76 L 235,75 L 235,74 L 234,73 L 234,70 L 233,69 L 233,66 L 232,65 L 232,62 L 231,61 L 231,60 L 230,59 L 230,57 L 229,56 L 229,55 L 228,54 L 228,53 L 226,51 L 226,50 L 224,48 L 224,47 L 222,45 L 222,44 L 221,44 L 220,43 L 220,42 L 219,42 L 218,41 L 218,40 L 217,40 L 215,38 L 214,38 L 210,34 L 209,34 L 207,32 L 206,32 L 205,31 L 204,31 L 203,30 L 200,30 L 198,28 L 195,28 L 194,27 L 194,26 L 190,26 L 189,25 L 184,25 L 183,24 Z" fill="black" /><path d="M 0,0 L 0,213 L 258,213 L 258,0 Z" fill="none" stroke="black" stroke-width="1" /></svg>