<?xml version='1.0' encoding='utf-8'?>
<svg width="258" height="216" xmlns="http://www.w3.org/2000/svg" viewBox="0 0 258 216"><rect width="258" height="216" fill="white" /><path d="M 128,5 L 124,9 L 123,9 L 122,10 L 122,11 L 116,17 L 116,18 L 113,21 L 112,21 L 112,22 L 107,27 L 107,28 L 100,35 L 100,36 L 92,44 L 92,45 L 90,47 L 90,48 L 87,51 L 86,51 L 86,52 L 85,53 L 84,53 L 84,54 L 83,55 L 82,55 L 82,56 L 81,57 L 80,57 L 80,58 L 79,59 L 78,59 L 78,60 L 71,67 L 70,67 L 70,71 L 78,79 L 78,80 L 79,80 L 82,83 L 82,84 L 89,91 L 89,92 L 90,93 L 91,93 L 93,95 L 93,97 L 91,99 L 90,98 L 89,98 L 88,97 L 83,97 L 82,98 L 74,98 L 73,99 L 69,99 L 68,98 L 66,98 L 65,97 L 63,97 L 62,98 L 60,98 L 59,97 L 57,97 L 56,98 L 52,98 L 51,99 L 50,99 L 49,98 L 42,98 L 41,99 L 34,99 L 34,104 L 33,105 L 33,106 L 32,107 L 32,109 L 33,110 L 32,111 L 32,116 L 33,117 L 33,119 L 32,120 L 32,123 L 33,124 L 32,125 L 32,130 L 33,131 L 33,133 L 32,134 L 32,135 L 33,136 L 33,138 L 32,139 L 32,140 L 33,141 L 33,156 L 34,157 L 34,158 L 33,159 L 33,167 L 34,168 L 34,170 L 33,171 L 33,172 L 34,173 L 34,205 L 40,205 L 41,204 L 47,204 L 48,205 L 49,204 L 93,204 L 94,203 L 101,203 L 102,204 L 105,204 L 106,203 L 108,203 L 109,202 L 110,203 L 117,203 L 118,202 L 119,202 L 120,203 L 122,203 L 123,202 L 165,202 L 166,201 L 168,201 L 169,202 L 179,202 L 180,201 L 196,201 L 197,200 L 201,200 L 202,201 L 209,201 L 210,200 L 211,200 L 212,201 L 214,201 L 215,200 L 223,200 L 223,195 L 224,194 L 224,193 L 223,192 L 223,173 L 224,172 L 224,155 L 223,154 L 223,146 L 224,145 L 224,133 L 223,132 L 223,130 L 224,129 L 224,109 L 223,108 L 223,107 L 224,106 L 224,99 L 225,98 L 225,96 L 224,96 L 223,95 L 210,95 L 209,96 L 207,96 L 206,95 L 199,95 L 198,96 L 188,96 L 187,95 L 184,95 L 183,96 L 178,96 L 177,95 L 173,95 L 172,96 L 165,96 L 164,95 L 163,95 L 162,94 L 162,93 L 164,91 L 165,91 L 169,87 L 169,86 L 175,80 L 175,79 L 178,76 L 179,76 L 179,75 L 180,74 L 181,74 L 181,73 L 183,71 L 183,70 L 184,69 L 184,67 L 183,66 L 183,64 L 179,60 L 179,59 L 178,59 L 177,58 L 177,57 L 176,57 L 173,54 L 173,53 L 171,51 L 171,50 L 161,40 L 161,39 L 160,39 L 157,36 L 157,35 L 155,33 L 155,32 L 154,31 L 153,31 L 151,29 L 151,28 L 145,22 L 145,21 L 144,21 L 143,20 L 143,19 L 136,12 L 136,11 L 130,5 Z" fill="black" /><path d="M 0,0 L 0,215 L 257,215 L 257,0 Z" fill="none" stroke="black" stroke-width="1" /></svg>