<?xml version='1.0' encoding='utf-8'?>
<svg width="255" height="219" xmlns="http://www.w3.org/2000/svg" viewBox="0 0 255 219"><rect width="255" height="219" fill="white" /><path d="M 120,9 L 117,12 L 117,13 L 116,14 L 116,15 L 115,16 L 115,19 L 111,23 L 111,24 L 110,25 L 110,26 L 109,27 L 109,29 L 108,30 L 108,31 L 107,32 L 107,33 L 106,34 L 106,35 L 105,36 L 105,37 L 103,39 L 103,40 L 101,42 L 101,45 L 100,46 L 97,46 L 96,47 L 95,47 L 94,48 L 93,48 L 92,49 L 91,49 L 90,50 L 89,50 L 88,51 L 87,51 L 84,54 L 83,54 L 81,56 L 80,56 L 78,58 L 77,58 L 77,59 L 76,60 L 75,60 L 75,61 L 71,65 L 71,66 L 67,70 L 67,71 L 66,72 L 65,72 L 65,73 L 63,75 L 63,77 L 61,79 L 61,80 L 59,82 L 59,83 L 58,84 L 58,85 L 57,86 L 57,88 L 55,90 L 55,93 L 54,94 L 54,95 L 53,96 L 53,102 L 52,103 L 52,105 L 51,106 L 51,111 L 50,112 L 50,125 L 51,126 L 51,133 L 52,134 L 52,135 L 53,136 L 53,141 L 49,145 L 49,146 L 47,148 L 47,151 L 46,152 L 46,153 L 43,156 L 43,159 L 42,160 L 41,160 L 41,163 L 40,164 L 39,164 L 39,166 L 37,168 L 37,169 L 36,170 L 36,171 L 35,172 L 35,175 L 36,176 L 38,176 L 39,175 L 42,175 L 43,176 L 46,176 L 47,175 L 52,175 L 53,176 L 62,176 L 63,175 L 66,175 L 67,176 L 68,176 L 69,175 L 76,175 L 80,179 L 81,179 L 82,180 L 82,181 L 83,181 L 85,183 L 87,183 L 89,185 L 90,185 L 91,186 L 92,186 L 93,187 L 94,187 L 95,188 L 95,189 L 98,189 L 99,190 L 100,190 L 101,191 L 103,191 L 104,192 L 106,192 L 107,193 L 112,193 L 113,194 L 114,194 L 115,195 L 127,195 L 128,196 L 130,196 L 131,195 L 136,195 L 137,194 L 138,194 L 139,195 L 141,195 L 142,194 L 144,194 L 145,193 L 150,193 L 151,192 L 152,192 L 153,191 L 156,191 L 157,190 L 158,190 L 159,189 L 161,189 L 163,187 L 165,187 L 166,186 L 166,185 L 168,183 L 171,183 L 173,181 L 174,181 L 175,180 L 176,180 L 179,177 L 182,177 L 183,176 L 196,176 L 197,177 L 201,177 L 202,176 L 213,176 L 214,175 L 214,172 L 212,170 L 212,169 L 210,167 L 210,164 L 209,164 L 208,163 L 208,160 L 207,160 L 205,158 L 205,157 L 203,155 L 203,154 L 202,153 L 202,152 L 200,150 L 200,148 L 202,146 L 202,140 L 203,139 L 203,138 L 204,137 L 204,132 L 206,130 L 206,123 L 207,122 L 207,114 L 206,113 L 206,112 L 207,111 L 207,110 L 206,109 L 206,108 L 205,107 L 206,106 L 206,104 L 205,103 L 205,102 L 206,101 L 206,100 L 205,99 L 205,96 L 204,95 L 204,94 L 203,93 L 203,92 L 202,91 L 202,88 L 201,88 L 200,87 L 200,84 L 199,83 L 199,82 L 198,81 L 198,78 L 196,76 L 196,74 L 195,74 L 192,71 L 192,70 L 189,67 L 189,66 L 188,66 L 186,64 L 186,63 L 181,58 L 180,58 L 176,54 L 175,54 L 173,52 L 172,52 L 170,50 L 169,50 L 167,48 L 165,48 L 163,46 L 159,46 L 157,44 L 155,44 L 154,43 L 153,43 L 152,42 L 147,42 L 146,41 L 145,41 L 144,40 L 140,40 L 138,38 L 138,37 L 136,35 L 136,34 L 135,33 L 135,32 L 134,31 L 134,30 L 133,29 L 133,28 L 132,27 L 132,25 L 130,23 L 130,22 L 128,20 L 128,18 L 127,17 L 127,16 L 126,15 L 126,14 L 125,14 L 124,13 L 124,12 L 123,11 L 123,9 Z" fill="black" /><path d="M 0,0 L 0,218 L 254,218 L 254,0 Z" fill="none" stroke="black" stroke-width="1" /></svg>