<?xml version='1.0' encoding='utf-8'?>
<svg width="258" height="215" xmlns="http://www.w3.org/2000/svg" viewBox="0 0 258 215"><rect width="258" height="215" fill="white" /><path d="M 177,23 L 174,26 L 174,27 L 173,28 L 172,28 L 172,29 L 171,30 L 170,30 L 170,31 L 167,34 L 166,34 L 166,36 L 162,40 L 162,41 L 161,42 L 160,42 L 160,43 L 159,44 L 158,44 L 156,46 L 156,48 L 152,52 L 152,53 L 151,54 L 150,54 L 150,55 L 149,56 L 148,56 L 148,57 L 144,61 L 144,62 L 142,64 L 141,64 L 139,62 L 136,62 L 135,61 L 134,61 L 133,60 L 130,60 L 129,59 L 124,59 L 123,58 L 112,58 L 111,59 L 108,59 L 107,60 L 104,60 L 103,61 L 102,61 L 101,62 L 100,62 L 99,63 L 98,63 L 97,64 L 95,64 L 93,66 L 92,66 L 90,68 L 90,69 L 89,70 L 88,70 L 84,74 L 84,75 L 83,76 L 82,76 L 82,77 L 81,78 L 81,79 L 80,80 L 80,81 L 79,82 L 78,82 L 78,84 L 77,85 L 77,86 L 76,87 L 76,90 L 74,92 L 74,95 L 73,96 L 73,107 L 74,108 L 74,114 L 75,115 L 75,117 L 76,118 L 76,121 L 77,122 L 77,123 L 78,124 L 78,125 L 79,125 L 80,126 L 80,128 L 84,132 L 84,135 L 82,137 L 82,139 L 79,142 L 78,142 L 78,143 L 77,144 L 76,144 L 76,145 L 73,148 L 73,149 L 72,150 L 71,150 L 70,151 L 70,153 L 67,156 L 66,156 L 66,157 L 62,161 L 62,162 L 60,164 L 60,165 L 57,168 L 56,168 L 56,169 L 55,170 L 54,170 L 53,171 L 53,175 L 54,176 L 65,176 L 66,177 L 88,177 L 89,178 L 90,177 L 95,177 L 96,178 L 105,178 L 106,179 L 107,178 L 109,178 L 110,179 L 131,179 L 132,180 L 135,180 L 136,179 L 137,179 L 138,180 L 152,180 L 153,181 L 173,181 L 174,182 L 175,181 L 177,181 L 178,182 L 187,182 L 188,183 L 191,183 L 192,182 L 193,182 L 194,183 L 195,183 L 196,182 L 201,182 L 202,183 L 220,183 L 221,184 L 222,183 L 233,183 L 233,178 L 232,177 L 232,176 L 231,175 L 231,171 L 229,169 L 229,166 L 228,165 L 228,164 L 227,163 L 227,160 L 226,159 L 226,158 L 225,157 L 225,154 L 224,153 L 224,152 L 223,151 L 223,148 L 222,147 L 222,146 L 221,145 L 221,142 L 220,141 L 220,140 L 219,139 L 219,137 L 218,136 L 218,134 L 217,133 L 217,130 L 215,128 L 215,126 L 214,125 L 214,124 L 213,123 L 213,120 L 212,119 L 212,117 L 211,116 L 211,114 L 210,113 L 210,112 L 209,111 L 209,108 L 208,107 L 208,106 L 207,105 L 207,102 L 206,101 L 206,100 L 205,99 L 205,96 L 204,95 L 204,94 L 203,93 L 203,91 L 202,90 L 202,89 L 201,88 L 201,86 L 200,85 L 200,84 L 199,83 L 199,80 L 198,79 L 198,77 L 197,76 L 197,74 L 196,73 L 196,72 L 195,71 L 195,68 L 194,67 L 194,66 L 193,65 L 193,63 L 192,62 L 192,61 L 191,60 L 191,57 L 190,56 L 190,55 L 189,54 L 189,52 L 188,51 L 188,49 L 187,48 L 187,46 L 186,45 L 186,44 L 185,43 L 185,40 L 184,39 L 184,38 L 183,37 L 183,34 L 182,33 L 182,32 L 181,31 L 181,29 L 180,28 L 180,27 L 179,26 L 179,24 L 178,23 Z" fill="black" /></svg>