<?xml version='1.0' encoding='utf-8'?>
<svg width="260" height="219" xmlns="http://www.w3.org/2000/svg" viewBox="0 0 260 219"><rect width="260" height="219" fill="white" /><path d="M 126,29 L 125,30 L 123,30 L 122,31 L 117,31 L 116,32 L 115,32 L 114,33 L 111,33 L 110,34 L 109,34 L 108,35 L 107,35 L 105,37 L 103,37 L 101,39 L 100,39 L 96,43 L 95,43 L 93,45 L 93,46 L 92,47 L 91,47 L 91,48 L 90,49 L 89,49 L 87,51 L 87,53 L 85,55 L 85,56 L 84,57 L 83,57 L 83,58 L 82,59 L 82,60 L 81,61 L 81,64 L 80,65 L 79,65 L 79,68 L 78,69 L 78,70 L 77,71 L 77,74 L 76,75 L 76,78 L 75,79 L 75,99 L 76,100 L 76,101 L 77,102 L 77,107 L 79,109 L 79,111 L 81,113 L 81,116 L 82,117 L 82,119 L 81,120 L 81,121 L 79,123 L 79,124 L 78,125 L 78,126 L 77,127 L 77,128 L 76,129 L 75,129 L 75,131 L 73,133 L 73,134 L 72,135 L 72,136 L 71,137 L 71,138 L 70,139 L 69,139 L 69,141 L 67,143 L 67,144 L 66,145 L 66,146 L 63,149 L 63,151 L 61,153 L 61,155 L 57,159 L 57,161 L 55,163 L 55,164 L 53,166 L 53,167 L 51,169 L 51,170 L 50,171 L 50,172 L 49,173 L 49,174 L 48,175 L 48,176 L 45,179 L 45,180 L 44,181 L 44,182 L 43,183 L 43,186 L 50,186 L 51,185 L 72,185 L 73,184 L 88,184 L 89,185 L 90,185 L 91,184 L 132,184 L 133,183 L 156,183 L 157,182 L 208,182 L 209,181 L 223,181 L 224,180 L 225,180 L 226,181 L 228,181 L 229,180 L 236,180 L 237,179 L 237,178 L 235,176 L 234,176 L 233,175 L 232,175 L 230,173 L 230,171 L 229,171 L 228,170 L 228,169 L 226,167 L 226,165 L 222,161 L 222,160 L 218,156 L 218,155 L 216,153 L 216,152 L 214,150 L 214,149 L 213,149 L 212,148 L 212,147 L 210,145 L 210,143 L 209,143 L 208,142 L 208,141 L 206,139 L 206,137 L 205,137 L 204,136 L 204,135 L 202,133 L 201,133 L 200,132 L 200,131 L 199,130 L 199,129 L 196,126 L 196,125 L 194,123 L 194,121 L 193,121 L 190,118 L 190,117 L 189,116 L 189,112 L 191,110 L 191,109 L 192,108 L 192,103 L 193,102 L 193,99 L 194,98 L 194,96 L 195,95 L 195,87 L 194,86 L 194,83 L 195,82 L 195,80 L 194,79 L 194,75 L 193,74 L 193,73 L 192,72 L 192,69 L 191,68 L 191,66 L 190,65 L 190,62 L 188,60 L 188,59 L 186,57 L 186,55 L 180,49 L 180,48 L 175,43 L 174,43 L 172,41 L 171,41 L 170,40 L 170,39 L 168,39 L 166,37 L 165,37 L 163,35 L 161,35 L 160,34 L 159,34 L 158,33 L 157,33 L 156,32 L 155,32 L 154,31 L 148,31 L 146,29 Z" fill="black" /></svg>