<?xml version='1.0' encoding='utf-8'?>
<svg width="255" height="213" xmlns="http://www.w3.org/2000/svg" viewBox="0 0 255 213"><rect width="255" height="213" fill="white" /><path d="M 90,28 L 89,29 L 86,29 L 85,30 L 72,30 L 72,31 L 71,32 L 70,32 L 68,34 L 66,34 L 65,35 L 64,35 L 63,36 L 62,36 L 61,37 L 60,37 L 59,38 L 58,38 L 56,40 L 54,40 L 52,42 L 50,42 L 50,43 L 47,46 L 46,46 L 42,50 L 41,50 L 36,55 L 36,56 L 34,58 L 34,59 L 33,60 L 33,61 L 30,64 L 30,65 L 28,67 L 28,68 L 26,70 L 26,73 L 25,74 L 25,75 L 24,76 L 24,78 L 22,80 L 22,82 L 21,83 L 21,87 L 20,88 L 20,90 L 19,91 L 19,93 L 18,94 L 18,111 L 19,112 L 19,115 L 20,116 L 20,124 L 22,126 L 22,130 L 23,131 L 23,132 L 24,133 L 24,135 L 25,135 L 26,136 L 26,139 L 27,140 L 27,141 L 28,142 L 28,143 L 32,147 L 32,149 L 33,149 L 34,150 L 34,151 L 36,153 L 37,153 L 40,156 L 40,157 L 43,160 L 43,161 L 45,161 L 50,166 L 50,167 L 51,167 L 54,170 L 56,170 L 57,171 L 58,171 L 60,173 L 62,173 L 64,175 L 66,175 L 68,177 L 70,177 L 71,178 L 74,178 L 75,179 L 80,179 L 82,181 L 92,181 L 93,182 L 94,182 L 95,181 L 103,181 L 104,180 L 110,180 L 111,179 L 115,179 L 116,178 L 117,178 L 118,177 L 122,177 L 123,176 L 124,176 L 125,175 L 127,175 L 128,174 L 129,174 L 130,173 L 131,173 L 131,172 L 132,171 L 134,171 L 136,169 L 137,169 L 137,168 L 138,167 L 140,167 L 142,165 L 143,165 L 149,159 L 149,158 L 150,157 L 151,157 L 151,156 L 152,155 L 153,155 L 153,154 L 157,150 L 157,149 L 159,147 L 159,146 L 160,145 L 160,144 L 161,143 L 161,142 L 162,141 L 162,140 L 163,139 L 163,138 L 164,137 L 164,136 L 165,135 L 165,132 L 167,130 L 168,130 L 169,129 L 170,129 L 172,127 L 173,127 L 175,125 L 176,125 L 178,123 L 179,123 L 180,122 L 181,122 L 184,119 L 186,119 L 188,117 L 189,117 L 191,115 L 192,115 L 194,113 L 195,113 L 197,111 L 198,111 L 200,109 L 202,109 L 204,107 L 205,107 L 207,105 L 208,105 L 210,103 L 211,103 L 213,101 L 214,101 L 216,99 L 217,99 L 219,97 L 221,97 L 222,96 L 223,96 L 223,94 L 222,94 L 221,93 L 220,93 L 219,92 L 217,92 L 215,90 L 213,90 L 211,88 L 209,88 L 207,86 L 205,86 L 203,84 L 200,84 L 199,83 L 199,82 L 196,82 L 194,80 L 192,80 L 191,79 L 191,78 L 188,78 L 186,76 L 184,76 L 182,74 L 180,74 L 179,73 L 178,73 L 177,72 L 176,72 L 175,71 L 174,71 L 173,70 L 172,70 L 171,69 L 170,69 L 169,68 L 168,68 L 167,67 L 166,67 L 165,66 L 163,66 L 161,64 L 159,64 L 157,62 L 156,62 L 153,59 L 153,57 L 151,55 L 151,54 L 143,46 L 142,46 L 139,43 L 138,43 L 137,42 L 136,42 L 135,41 L 135,40 L 134,40 L 132,38 L 130,38 L 128,36 L 124,36 L 123,35 L 123,34 L 120,34 L 118,32 L 114,32 L 113,31 L 111,31 L 110,30 L 101,30 L 100,29 L 98,29 L 97,28 L 95,28 L 94,29 L 93,28 Z" fill="black" /></svg>