<?xml version='1.0' encoding='utf-8'?>
<svg width="255" height="214" xmlns="http://www.w3.org/2000/svg" viewBox="0 0 255 214"><rect width="255" height="214" fill="white" /><path d="M 205,8 L 203,10 L 197,10 L 196,11 L 190,11 L 189,12 L 181,12 L 180,13 L 176,13 L 175,14 L 168,14 L 167,15 L 166,15 L 165,16 L 160,16 L 159,17 L 158,17 L 157,16 L 156,16 L 155,17 L 152,17 L 151,18 L 144,18 L 143,19 L 139,19 L 138,20 L 134,20 L 133,21 L 128,21 L 127,22 L 120,22 L 119,23 L 115,23 L 114,24 L 107,24 L 106,25 L 104,25 L 103,26 L 95,26 L 94,27 L 88,27 L 87,28 L 82,28 L 81,29 L 78,29 L 77,30 L 70,30 L 69,31 L 67,31 L 66,32 L 59,32 L 58,33 L 53,33 L 52,34 L 52,35 L 53,36 L 56,36 L 57,37 L 58,37 L 62,41 L 63,41 L 64,42 L 64,43 L 65,43 L 69,47 L 70,47 L 72,49 L 73,49 L 74,50 L 74,51 L 75,51 L 80,56 L 81,56 L 85,60 L 86,60 L 87,61 L 87,64 L 85,66 L 85,67 L 82,70 L 82,71 L 80,73 L 80,75 L 79,76 L 78,76 L 78,79 L 77,80 L 76,80 L 76,82 L 74,84 L 74,85 L 73,86 L 73,89 L 72,90 L 72,94 L 70,96 L 70,99 L 71,100 L 70,101 L 70,102 L 69,103 L 69,110 L 68,111 L 68,119 L 69,120 L 69,123 L 70,123 L 71,124 L 71,125 L 70,126 L 70,132 L 71,133 L 71,136 L 73,138 L 73,140 L 74,141 L 74,143 L 76,145 L 76,147 L 77,148 L 77,149 L 79,151 L 79,154 L 80,155 L 80,156 L 84,160 L 84,161 L 85,161 L 90,166 L 90,167 L 91,167 L 92,168 L 92,169 L 94,171 L 95,171 L 96,172 L 96,173 L 97,173 L 99,175 L 100,175 L 104,179 L 107,179 L 108,180 L 108,181 L 111,181 L 113,183 L 116,183 L 117,184 L 119,184 L 120,185 L 121,185 L 122,186 L 123,186 L 124,187 L 130,187 L 131,188 L 136,188 L 137,189 L 138,189 L 139,188 L 140,188 L 141,189 L 151,189 L 152,188 L 156,188 L 157,187 L 159,187 L 160,186 L 163,186 L 164,185 L 168,185 L 170,183 L 171,183 L 172,182 L 173,182 L 174,181 L 176,181 L 178,179 L 179,179 L 180,178 L 181,178 L 182,177 L 183,177 L 183,176 L 184,175 L 185,175 L 188,172 L 189,172 L 192,169 L 193,169 L 193,168 L 194,167 L 195,167 L 195,166 L 196,165 L 197,165 L 197,164 L 200,161 L 201,161 L 201,160 L 202,159 L 202,158 L 205,155 L 205,154 L 206,153 L 206,151 L 207,150 L 207,149 L 209,147 L 209,146 L 211,144 L 211,143 L 212,142 L 212,141 L 213,140 L 213,136 L 214,135 L 214,133 L 215,132 L 215,128 L 216,127 L 216,126 L 217,125 L 217,119 L 218,118 L 218,114 L 217,113 L 217,102 L 216,101 L 216,98 L 215,97 L 215,92 L 214,91 L 214,90 L 213,89 L 213,85 L 212,84 L 212,83 L 211,82 L 211,81 L 209,79 L 209,77 L 207,75 L 207,74 L 206,74 L 205,73 L 205,72 L 203,70 L 203,68 L 202,68 L 201,67 L 201,66 L 200,65 L 200,64 L 199,64 L 197,62 L 197,61 L 192,56 L 190,56 L 189,55 L 189,54 L 187,52 L 185,52 L 183,50 L 183,46 L 187,42 L 187,40 L 188,39 L 189,39 L 189,38 L 190,37 L 190,36 L 191,35 L 191,34 L 193,32 L 193,31 L 195,29 L 195,28 L 197,26 L 197,25 L 199,23 L 199,21 L 203,17 L 203,16 L 204,15 L 204,14 L 207,11 L 207,9 L 206,8 Z" fill="black" /></svg>