<?xml version='1.0' encoding='utf-8'?>
<svg width="258" height="217" xmlns="http://www.w3.org/2000/svg" viewBox="0 0 258 217"><rect width="258" height="217" fill="white" /><path d="M 138,31 L 137,32 L 131,32 L 130,33 L 129,33 L 128,32 L 126,32 L 125,33 L 122,33 L 121,34 L 115,34 L 114,35 L 112,35 L 111,36 L 110,36 L 110,37 L 109,38 L 106,38 L 106,39 L 105,40 L 102,40 L 102,41 L 101,42 L 99,42 L 98,43 L 96,43 L 95,44 L 94,44 L 88,50 L 86,50 L 86,51 L 83,54 L 82,54 L 82,55 L 81,56 L 80,56 L 77,59 L 76,59 L 76,60 L 75,61 L 75,63 L 74,64 L 72,64 L 72,67 L 70,69 L 70,70 L 68,72 L 68,73 L 66,75 L 66,76 L 64,78 L 64,80 L 63,81 L 63,83 L 62,84 L 62,87 L 61,88 L 61,89 L 60,90 L 60,93 L 59,94 L 59,95 L 58,96 L 58,98 L 57,99 L 57,101 L 58,102 L 58,104 L 57,105 L 57,112 L 58,113 L 58,124 L 59,125 L 59,127 L 60,128 L 60,132 L 61,133 L 61,135 L 62,136 L 62,138 L 64,140 L 64,143 L 65,144 L 65,145 L 66,146 L 66,148 L 68,150 L 68,152 L 70,154 L 70,155 L 72,157 L 72,158 L 79,165 L 80,165 L 81,166 L 81,167 L 82,168 L 82,169 L 83,169 L 84,170 L 84,171 L 85,171 L 88,174 L 89,174 L 90,175 L 91,175 L 92,176 L 92,177 L 93,177 L 94,178 L 95,178 L 98,181 L 99,181 L 100,182 L 101,182 L 102,183 L 105,183 L 107,185 L 109,185 L 110,186 L 111,186 L 112,187 L 117,187 L 118,188 L 119,188 L 120,189 L 127,189 L 128,190 L 145,190 L 146,189 L 154,189 L 155,188 L 156,188 L 157,187 L 161,187 L 162,186 L 163,186 L 164,185 L 167,185 L 169,183 L 171,183 L 173,181 L 175,181 L 177,179 L 178,179 L 180,177 L 181,177 L 181,176 L 182,175 L 183,175 L 184,174 L 185,174 L 186,173 L 187,173 L 190,170 L 191,170 L 192,169 L 192,168 L 195,165 L 196,165 L 196,164 L 201,159 L 201,158 L 202,157 L 203,157 L 204,156 L 204,155 L 206,153 L 206,152 L 207,151 L 207,150 L 209,148 L 209,146 L 210,145 L 210,144 L 211,143 L 211,140 L 213,138 L 213,136 L 214,135 L 214,134 L 215,133 L 215,128 L 216,127 L 216,123 L 217,122 L 217,117 L 218,116 L 218,112 L 217,111 L 217,96 L 216,95 L 216,92 L 215,91 L 215,89 L 214,88 L 214,84 L 213,83 L 213,81 L 211,79 L 211,78 L 210,77 L 210,76 L 209,75 L 209,74 L 207,72 L 207,70 L 205,68 L 205,66 L 204,66 L 203,65 L 203,64 L 200,61 L 200,60 L 197,57 L 197,56 L 196,56 L 195,55 L 195,54 L 194,54 L 190,50 L 189,50 L 187,48 L 186,48 L 185,47 L 185,46 L 184,46 L 182,44 L 181,44 L 179,42 L 178,42 L 177,41 L 176,41 L 175,40 L 173,40 L 171,38 L 170,38 L 169,37 L 168,37 L 167,36 L 166,36 L 165,35 L 162,35 L 161,34 L 155,34 L 154,33 L 151,33 L 150,32 L 144,32 L 143,31 Z" fill="black" /></svg>