<?xml version='1.0' encoding='utf-8'?>
<svg width="258" height="220" xmlns="http://www.w3.org/2000/svg" viewBox="0 0 258 220"><rect width="258" height="220" fill="white" /><path d="M 95,30 L 94,31 L 94,35 L 93,36 L 93,37 L 92,38 L 92,42 L 91,43 L 91,46 L 90,47 L 90,52 L 89,53 L 89,55 L 88,56 L 88,60 L 87,61 L 87,63 L 86,64 L 86,66 L 85,67 L 85,69 L 84,70 L 84,75 L 83,76 L 83,77 L 82,78 L 82,82 L 81,83 L 81,85 L 80,86 L 80,91 L 79,92 L 79,94 L 78,95 L 78,99 L 76,101 L 76,104 L 75,105 L 75,108 L 74,109 L 74,115 L 73,116 L 73,117 L 72,118 L 72,122 L 71,123 L 71,124 L 70,125 L 70,130 L 69,131 L 69,132 L 68,133 L 68,137 L 67,138 L 67,140 L 66,141 L 66,146 L 65,147 L 65,148 L 64,149 L 64,154 L 63,155 L 63,156 L 62,157 L 62,160 L 61,161 L 61,164 L 60,165 L 60,168 L 59,169 L 59,171 L 58,172 L 58,176 L 57,177 L 57,179 L 56,180 L 56,184 L 55,185 L 55,186 L 54,187 L 54,191 L 53,192 L 53,193 L 52,194 L 52,195 L 51,196 L 53,198 L 54,197 L 55,197 L 56,196 L 57,196 L 57,195 L 58,194 L 59,194 L 60,193 L 61,193 L 62,192 L 63,192 L 65,190 L 67,190 L 69,188 L 70,188 L 72,186 L 73,186 L 74,185 L 75,185 L 76,184 L 77,184 L 81,180 L 82,180 L 84,178 L 85,178 L 87,176 L 89,176 L 90,175 L 91,175 L 92,174 L 93,174 L 96,171 L 97,171 L 98,170 L 99,170 L 99,169 L 100,168 L 103,168 L 106,165 L 107,165 L 107,164 L 108,163 L 110,163 L 111,162 L 113,162 L 117,158 L 119,158 L 121,156 L 123,156 L 123,155 L 124,154 L 125,154 L 127,152 L 131,152 L 134,155 L 134,156 L 136,158 L 137,158 L 140,161 L 140,162 L 141,162 L 142,163 L 142,164 L 143,164 L 144,165 L 144,166 L 145,166 L 147,168 L 148,168 L 150,170 L 153,170 L 154,171 L 154,172 L 157,172 L 158,173 L 159,173 L 160,174 L 161,174 L 162,175 L 163,175 L 164,176 L 166,176 L 167,177 L 173,177 L 174,178 L 185,178 L 186,177 L 188,177 L 189,178 L 190,177 L 193,177 L 194,176 L 199,176 L 200,175 L 201,175 L 202,174 L 206,174 L 208,172 L 210,172 L 212,170 L 214,170 L 216,168 L 217,168 L 217,167 L 218,166 L 220,166 L 222,164 L 223,164 L 223,163 L 224,162 L 225,162 L 227,160 L 227,159 L 228,158 L 229,158 L 229,157 L 230,156 L 231,156 L 231,155 L 232,154 L 233,154 L 233,153 L 235,151 L 235,149 L 237,147 L 237,145 L 239,143 L 239,140 L 241,138 L 241,137 L 243,135 L 243,131 L 244,130 L 244,128 L 245,127 L 245,123 L 246,122 L 245,121 L 245,116 L 246,115 L 246,114 L 245,113 L 245,104 L 244,103 L 244,101 L 243,100 L 243,96 L 242,95 L 242,94 L 241,93 L 241,91 L 240,90 L 240,89 L 239,88 L 239,87 L 238,86 L 238,85 L 236,83 L 236,82 L 235,81 L 235,80 L 227,72 L 227,71 L 225,69 L 224,69 L 221,66 L 220,66 L 217,63 L 216,63 L 215,62 L 214,62 L 213,61 L 211,61 L 209,59 L 206,59 L 205,58 L 204,58 L 203,57 L 201,57 L 200,56 L 198,56 L 197,55 L 190,55 L 189,54 L 188,54 L 187,55 L 186,55 L 185,54 L 184,54 L 183,55 L 179,55 L 178,54 L 176,54 L 175,55 L 170,55 L 169,56 L 168,56 L 167,57 L 163,57 L 162,58 L 161,58 L 160,59 L 158,59 L 157,60 L 156,60 L 155,61 L 154,61 L 153,62 L 152,62 L 151,63 L 150,63 L 149,64 L 148,64 L 145,67 L 144,67 L 144,68 L 143,69 L 142,69 L 138,73 L 134,73 L 128,67 L 127,67 L 126,66 L 126,65 L 125,64 L 125,63 L 119,57 L 119,56 L 113,50 L 113,49 L 112,49 L 111,48 L 111,47 L 110,47 L 109,46 L 109,45 L 105,41 L 105,40 L 103,38 L 103,37 L 102,37 L 97,32 L 97,31 L 96,30 Z" fill="black" /><path d="M 0,0 L 0,219 L 257,219 L 257,0 Z" fill="none" stroke="black" stroke-width="1" /></svg>