<?xml version='1.0' encoding='utf-8'?>
<svg width="254" height="215" xmlns="http://www.w3.org/2000/svg" viewBox="0 0 254 215"><rect width="254" height="215" fill="white" /><path d="M 34,77 L 33,78 L 27,78 L 27,92 L 28,93 L 28,113 L 29,114 L 58,114 L 59,113 L 60,114 L 65,114 L 65,92 L 64,91 L 65,90 L 65,87 L 64,86 L 64,79 L 63,78 L 62,78 L 61,77 L 38,77 L 37,78 L 36,78 L 35,77 Z" fill="black" /><path d="M 206,61 L 205,62 L 202,62 L 201,63 L 199,63 L 198,64 L 197,64 L 196,65 L 194,65 L 194,66 L 193,67 L 192,67 L 190,69 L 189,69 L 187,71 L 186,71 L 186,72 L 185,73 L 185,74 L 184,75 L 184,77 L 182,79 L 182,80 L 181,81 L 181,85 L 180,86 L 180,93 L 182,95 L 182,100 L 185,103 L 185,104 L 186,105 L 186,106 L 187,106 L 188,107 L 188,109 L 190,111 L 190,112 L 192,114 L 194,114 L 196,116 L 197,116 L 198,117 L 199,117 L 200,118 L 202,118 L 203,119 L 212,119 L 213,118 L 220,118 L 222,116 L 223,116 L 226,113 L 227,113 L 228,112 L 229,112 L 229,111 L 230,110 L 231,110 L 233,108 L 233,106 L 235,104 L 235,102 L 237,100 L 237,98 L 238,97 L 238,87 L 237,86 L 237,82 L 236,81 L 236,80 L 235,79 L 235,77 L 233,75 L 233,74 L 231,72 L 231,71 L 229,69 L 228,69 L 226,67 L 225,67 L 223,65 L 222,65 L 220,63 L 218,63 L 217,62 L 214,62 L 213,61 Z" fill="black" /><path d="M 118,23 L 117,24 L 116,24 L 115,25 L 114,25 L 113,26 L 112,26 L 111,27 L 110,27 L 108,29 L 107,29 L 103,33 L 103,34 L 101,36 L 101,37 L 100,38 L 100,39 L 99,40 L 99,41 L 98,42 L 98,47 L 97,48 L 97,50 L 98,51 L 98,62 L 99,62 L 100,63 L 100,66 L 101,66 L 102,67 L 102,68 L 104,70 L 104,71 L 107,74 L 108,74 L 110,76 L 112,76 L 114,78 L 115,78 L 116,79 L 119,79 L 120,80 L 127,80 L 128,79 L 132,79 L 133,78 L 135,78 L 136,77 L 137,77 L 138,76 L 140,76 L 142,74 L 143,74 L 143,73 L 144,72 L 145,72 L 145,71 L 146,70 L 147,70 L 149,68 L 149,65 L 151,63 L 151,62 L 152,61 L 152,60 L 153,59 L 153,42 L 151,40 L 151,37 L 150,37 L 149,36 L 149,35 L 148,34 L 148,33 L 147,32 L 147,31 L 146,31 L 144,29 L 143,29 L 141,27 L 140,27 L 139,26 L 138,26 L 137,25 L 135,25 L 134,24 L 132,24 L 131,23 Z" fill="black" /><path d="M 37,9 L 37,10 L 35,12 L 35,13 L 34,14 L 34,15 L 33,16 L 32,16 L 32,18 L 31,19 L 30,19 L 30,20 L 28,22 L 28,23 L 26,25 L 26,27 L 24,29 L 24,30 L 22,32 L 22,33 L 20,35 L 20,37 L 16,41 L 16,42 L 14,44 L 14,45 L 11,48 L 13,50 L 17,50 L 18,49 L 22,49 L 23,50 L 24,50 L 25,49 L 26,49 L 27,50 L 29,50 L 30,49 L 33,49 L 34,50 L 61,50 L 61,45 L 59,43 L 59,41 L 58,41 L 57,40 L 57,38 L 55,36 L 55,34 L 51,30 L 51,28 L 47,24 L 47,21 L 45,19 L 45,17 L 44,17 L 43,16 L 43,15 L 41,13 L 41,12 L 40,11 L 40,10 L 39,9 Z" fill="black" /><path d="M 188,3 L 187,4 L 187,6 L 188,7 L 188,9 L 187,10 L 187,30 L 186,31 L 186,33 L 187,34 L 187,39 L 191,39 L 192,38 L 218,38 L 219,39 L 222,39 L 223,38 L 223,26 L 222,25 L 222,24 L 223,23 L 223,21 L 222,20 L 222,7 L 221,6 L 221,3 L 199,3 L 198,4 L 197,3 Z" fill="black" /></svg>