<?xml version='1.0' encoding='utf-8'?>
<svg width="260" height="217" xmlns="http://www.w3.org/2000/svg" viewBox="0 0 260 217"><rect width="260" height="217" fill="white" /><path d="M 195,111 L 194,112 L 186,112 L 185,113 L 182,113 L 181,114 L 179,114 L 178,115 L 177,115 L 176,116 L 175,116 L 174,117 L 173,117 L 172,118 L 171,118 L 171,119 L 170,120 L 169,120 L 165,124 L 164,124 L 163,125 L 163,126 L 161,128 L 161,129 L 160,130 L 159,130 L 159,131 L 158,132 L 158,133 L 157,134 L 157,136 L 155,138 L 155,141 L 154,142 L 154,143 L 153,144 L 153,164 L 154,165 L 154,167 L 155,168 L 155,169 L 156,170 L 156,171 L 157,172 L 157,173 L 159,175 L 159,177 L 161,179 L 161,180 L 165,184 L 166,184 L 171,189 L 174,189 L 175,190 L 176,190 L 177,191 L 178,191 L 180,193 L 184,193 L 185,194 L 187,194 L 188,195 L 200,195 L 201,194 L 204,194 L 205,193 L 208,193 L 209,192 L 210,192 L 211,191 L 213,191 L 214,190 L 215,190 L 216,189 L 217,189 L 219,187 L 220,187 L 223,184 L 224,184 L 226,182 L 226,181 L 230,177 L 230,176 L 232,174 L 232,172 L 233,171 L 234,171 L 234,168 L 235,167 L 235,166 L 236,165 L 236,161 L 237,160 L 236,159 L 236,157 L 237,156 L 237,148 L 236,147 L 236,144 L 235,143 L 235,140 L 234,139 L 234,137 L 232,135 L 232,133 L 230,131 L 230,129 L 220,119 L 219,119 L 218,118 L 217,118 L 216,117 L 216,116 L 214,116 L 212,114 L 210,114 L 209,113 L 205,113 L 204,112 L 199,112 L 198,111 Z" fill="black" /><path d="M 43,94 L 42,95 L 41,95 L 41,102 L 40,103 L 40,105 L 39,106 L 39,112 L 38,113 L 38,115 L 37,116 L 37,121 L 36,122 L 36,124 L 35,125 L 35,130 L 34,131 L 34,133 L 33,134 L 33,139 L 32,140 L 32,141 L 31,142 L 31,149 L 30,150 L 30,152 L 29,153 L 29,157 L 28,158 L 28,161 L 27,162 L 27,167 L 26,168 L 26,170 L 25,171 L 25,176 L 24,177 L 24,179 L 23,180 L 23,184 L 22,185 L 22,188 L 21,189 L 21,193 L 20,194 L 20,195 L 19,196 L 21,198 L 23,196 L 26,196 L 27,195 L 31,195 L 32,194 L 33,194 L 34,193 L 37,193 L 38,192 L 40,192 L 41,191 L 44,191 L 45,190 L 46,190 L 47,189 L 50,189 L 51,188 L 52,188 L 53,187 L 57,187 L 58,186 L 59,186 L 60,185 L 63,185 L 64,184 L 65,184 L 66,183 L 70,183 L 71,182 L 72,182 L 73,181 L 76,181 L 77,180 L 78,180 L 79,179 L 83,179 L 85,177 L 89,177 L 90,176 L 91,176 L 92,175 L 96,175 L 97,174 L 98,174 L 99,173 L 102,173 L 103,172 L 105,172 L 106,171 L 109,171 L 110,170 L 111,170 L 112,169 L 116,169 L 117,168 L 118,168 L 119,167 L 123,167 L 125,165 L 124,164 L 123,164 L 120,161 L 120,160 L 118,158 L 117,158 L 114,155 L 113,155 L 104,146 L 103,146 L 100,143 L 100,142 L 98,142 L 96,140 L 96,139 L 95,139 L 92,136 L 91,136 L 90,135 L 90,134 L 89,134 L 88,133 L 88,132 L 87,132 L 86,131 L 86,130 L 85,130 L 83,128 L 82,128 L 81,127 L 81,126 L 80,126 L 76,122 L 75,122 L 70,117 L 69,117 L 68,116 L 67,116 L 66,115 L 66,114 L 64,112 L 63,112 L 60,109 L 60,108 L 58,106 L 57,106 L 54,103 L 53,103 L 52,102 L 51,102 L 47,98 L 46,98 L 44,96 L 44,95 Z" fill="black" /><path d="M 132,30 L 131,31 L 120,31 L 119,32 L 106,32 L 105,33 L 96,33 L 95,34 L 85,34 L 84,35 L 76,35 L 75,36 L 64,36 L 63,37 L 60,37 L 59,38 L 59,40 L 61,42 L 61,43 L 62,43 L 63,44 L 63,45 L 64,46 L 64,47 L 65,48 L 65,49 L 66,49 L 67,50 L 67,51 L 69,53 L 69,55 L 70,55 L 71,56 L 71,57 L 73,59 L 73,60 L 75,62 L 75,63 L 76,63 L 77,64 L 77,66 L 79,68 L 79,69 L 81,71 L 81,72 L 83,74 L 83,75 L 86,78 L 86,79 L 87,80 L 87,81 L 88,82 L 88,83 L 91,86 L 91,87 L 93,89 L 93,90 L 94,90 L 95,91 L 95,93 L 96,93 L 97,94 L 97,95 L 100,98 L 100,99 L 102,99 L 104,97 L 104,94 L 105,93 L 106,93 L 106,90 L 107,89 L 107,88 L 108,87 L 108,86 L 110,84 L 110,82 L 112,80 L 112,78 L 114,76 L 114,74 L 116,72 L 116,70 L 117,69 L 117,68 L 118,67 L 118,66 L 119,65 L 119,64 L 120,63 L 120,62 L 122,60 L 122,58 L 124,56 L 124,54 L 125,53 L 125,52 L 126,51 L 126,49 L 127,48 L 127,47 L 128,46 L 128,45 L 130,43 L 130,42 L 132,40 L 132,38 L 133,37 L 133,35 L 135,33 L 135,31 L 134,30 Z" fill="black" /><path d="M 209,14 L 208,15 L 186,15 L 185,16 L 181,16 L 180,15 L 179,16 L 171,16 L 170,17 L 171,18 L 171,19 L 172,20 L 172,21 L 175,24 L 175,27 L 176,27 L 177,28 L 177,29 L 178,30 L 178,31 L 179,32 L 179,33 L 181,35 L 181,37 L 182,37 L 183,38 L 183,39 L 184,40 L 184,41 L 185,42 L 185,43 L 187,45 L 187,47 L 188,47 L 189,48 L 189,49 L 190,50 L 190,51 L 191,52 L 191,53 L 192,54 L 192,55 L 193,56 L 193,57 L 195,59 L 195,60 L 196,60 L 197,61 L 197,64 L 200,64 L 200,61 L 202,59 L 202,58 L 204,56 L 204,55 L 208,51 L 208,50 L 209,49 L 209,48 L 210,47 L 210,46 L 211,45 L 211,44 L 212,43 L 212,42 L 213,41 L 214,41 L 214,39 L 215,38 L 215,37 L 216,36 L 216,34 L 218,32 L 218,31 L 220,29 L 220,27 L 222,25 L 222,24 L 223,23 L 223,22 L 224,21 L 224,20 L 225,19 L 225,18 L 226,17 L 226,14 L 216,14 L 215,15 L 212,15 L 211,14 Z" fill="black" /></svg>