<?xml version='1.0' encoding='utf-8'?>
<svg width="254" height="218" xmlns="http://www.w3.org/2000/svg" viewBox="0 0 254 218"><rect width="254" height="218" fill="white" /><path d="M 118,21 L 117,22 L 117,25 L 116,26 L 116,27 L 114,29 L 114,32 L 112,34 L 112,35 L 110,37 L 110,39 L 109,40 L 109,41 L 108,42 L 108,44 L 106,46 L 106,47 L 104,49 L 104,51 L 102,53 L 102,55 L 101,56 L 100,56 L 100,59 L 99,60 L 99,61 L 98,62 L 98,63 L 96,65 L 96,67 L 94,69 L 94,71 L 92,73 L 92,75 L 91,76 L 90,76 L 90,77 L 88,79 L 88,81 L 87,82 L 87,83 L 86,84 L 86,85 L 85,86 L 85,88 L 84,89 L 84,90 L 82,92 L 82,93 L 81,94 L 81,95 L 78,98 L 78,101 L 77,102 L 76,102 L 76,104 L 74,106 L 74,109 L 73,110 L 72,110 L 72,112 L 71,113 L 71,114 L 70,115 L 70,116 L 68,118 L 68,119 L 67,120 L 67,121 L 66,122 L 66,123 L 65,124 L 65,125 L 64,126 L 64,127 L 63,128 L 63,129 L 62,130 L 62,131 L 60,133 L 60,137 L 57,140 L 57,141 L 56,142 L 56,143 L 54,145 L 54,149 L 52,151 L 52,152 L 51,153 L 52,154 L 64,154 L 65,155 L 67,155 L 68,154 L 69,154 L 70,155 L 71,155 L 72,154 L 81,154 L 82,155 L 87,155 L 88,154 L 93,154 L 94,155 L 121,155 L 122,154 L 123,154 L 124,155 L 191,155 L 192,154 L 191,153 L 191,152 L 189,150 L 189,148 L 187,146 L 187,145 L 185,143 L 185,140 L 184,140 L 183,139 L 183,137 L 181,135 L 181,134 L 180,133 L 180,132 L 179,131 L 179,130 L 177,128 L 177,126 L 175,124 L 175,122 L 173,120 L 173,119 L 172,118 L 172,117 L 171,116 L 171,115 L 169,113 L 169,111 L 167,109 L 167,107 L 165,105 L 165,104 L 163,102 L 163,100 L 162,99 L 162,98 L 159,95 L 159,93 L 157,91 L 157,90 L 156,89 L 156,88 L 155,87 L 155,86 L 154,85 L 154,84 L 153,83 L 153,82 L 151,80 L 151,79 L 150,78 L 150,77 L 149,76 L 149,75 L 147,73 L 147,72 L 146,71 L 146,70 L 145,69 L 145,68 L 143,66 L 143,64 L 140,61 L 140,60 L 139,59 L 139,57 L 137,55 L 137,54 L 136,53 L 136,52 L 135,51 L 135,50 L 133,48 L 133,46 L 132,45 L 132,44 L 131,43 L 131,42 L 128,39 L 128,38 L 127,37 L 127,34 L 126,34 L 125,33 L 125,32 L 124,31 L 124,30 L 123,29 L 123,28 L 122,27 L 122,26 L 120,24 L 120,23 Z" fill="black" /><path d="M 0,0 L 0,217 L 253,217 L 253,0 Z" fill="none" stroke="black" stroke-width="1" /></svg>