<?xml version='1.0' encoding='utf-8'?>
<svg width="261" height="215" xmlns="http://www.w3.org/2000/svg" viewBox="0 0 261 215"><rect width="261" height="215" fill="white" /><path d="M 112,159 L 112,167 L 111,168 L 111,171 L 112,172 L 112,196 L 113,197 L 121,197 L 122,196 L 127,196 L 128,197 L 136,197 L 137,196 L 139,196 L 140,197 L 149,197 L 150,196 L 151,196 L 153,194 L 153,190 L 152,189 L 152,180 L 151,179 L 151,177 L 152,176 L 152,160 L 130,160 L 129,161 L 115,161 L 114,160 L 114,159 Z" fill="black" /><path d="M 211,22 L 210,23 L 205,23 L 203,25 L 200,25 L 200,26 L 199,27 L 197,27 L 194,30 L 194,31 L 191,34 L 191,35 L 190,36 L 190,37 L 188,39 L 188,43 L 187,44 L 187,49 L 186,50 L 186,52 L 187,53 L 187,56 L 188,57 L 188,60 L 190,62 L 190,64 L 191,64 L 192,65 L 192,66 L 193,67 L 193,68 L 194,69 L 194,70 L 195,70 L 196,71 L 196,72 L 197,72 L 200,75 L 201,75 L 202,76 L 205,76 L 207,78 L 221,78 L 222,77 L 223,77 L 224,76 L 227,76 L 228,75 L 229,75 L 230,74 L 231,74 L 235,70 L 236,70 L 237,69 L 237,68 L 239,66 L 239,65 L 240,64 L 241,64 L 241,61 L 243,59 L 243,57 L 244,56 L 244,54 L 245,53 L 245,48 L 244,47 L 244,45 L 243,44 L 243,41 L 242,40 L 242,39 L 241,38 L 241,37 L 240,36 L 240,35 L 239,34 L 239,33 L 233,27 L 232,27 L 231,26 L 230,26 L 229,25 L 228,25 L 227,24 L 226,24 L 225,23 L 219,23 L 218,22 Z" fill="black" /><path d="M 39,4 L 36,7 L 36,9 L 35,10 L 35,12 L 34,13 L 33,13 L 33,14 L 32,15 L 32,18 L 31,19 L 31,20 L 30,21 L 30,22 L 29,23 L 29,24 L 28,25 L 28,26 L 27,27 L 27,29 L 26,30 L 26,31 L 24,33 L 24,35 L 22,37 L 22,39 L 20,41 L 20,43 L 19,44 L 19,46 L 18,47 L 18,48 L 17,49 L 17,50 L 16,51 L 16,52 L 14,54 L 14,56 L 17,56 L 18,55 L 25,55 L 26,54 L 34,54 L 35,55 L 36,55 L 37,54 L 59,54 L 60,53 L 72,53 L 73,52 L 75,52 L 74,51 L 74,50 L 73,50 L 69,46 L 69,44 L 67,42 L 67,41 L 66,41 L 65,40 L 65,39 L 63,37 L 63,36 L 61,34 L 61,33 L 60,33 L 59,32 L 59,31 L 57,29 L 57,28 L 55,26 L 55,25 L 54,25 L 53,24 L 53,23 L 52,22 L 52,21 L 51,20 L 51,19 L 49,17 L 49,16 L 47,14 L 47,13 L 45,11 L 45,10 L 44,9 L 44,8 L 42,6 L 42,5 L 41,4 Z" fill="black" /></svg>