<?xml version='1.0' encoding='utf-8'?>
<svg width="259" height="217" xmlns="http://www.w3.org/2000/svg" viewBox="0 0 259 217"><rect width="259" height="217" fill="white" /><path d="M 33,121 L 32,122 L 29,122 L 28,123 L 14,123 L 14,125 L 15,126 L 16,126 L 17,127 L 17,129 L 19,131 L 19,132 L 21,134 L 21,135 L 25,139 L 25,142 L 27,144 L 27,146 L 29,148 L 29,150 L 30,150 L 31,151 L 31,152 L 32,153 L 32,154 L 35,157 L 35,158 L 36,159 L 36,160 L 37,161 L 37,162 L 38,162 L 39,163 L 39,164 L 40,165 L 40,166 L 41,167 L 41,168 L 42,169 L 42,171 L 43,171 L 44,172 L 46,170 L 46,169 L 48,167 L 48,166 L 50,164 L 50,163 L 51,162 L 51,161 L 52,160 L 52,158 L 54,156 L 54,155 L 55,154 L 56,154 L 56,151 L 58,149 L 58,148 L 60,146 L 60,145 L 61,144 L 61,141 L 63,139 L 64,139 L 64,137 L 67,134 L 67,133 L 68,132 L 68,130 L 69,129 L 70,129 L 70,127 L 71,126 L 71,123 L 70,123 L 68,121 L 51,121 L 50,122 L 34,122 Z" fill="black" /><path d="M 152,27 L 151,28 L 148,28 L 147,29 L 145,29 L 144,30 L 141,30 L 140,31 L 139,31 L 137,33 L 135,33 L 134,34 L 133,34 L 132,35 L 131,35 L 129,37 L 128,37 L 126,39 L 125,39 L 123,41 L 122,41 L 116,47 L 115,47 L 113,49 L 113,51 L 111,53 L 111,54 L 110,55 L 109,55 L 109,56 L 108,57 L 108,58 L 107,59 L 107,60 L 105,62 L 105,64 L 104,65 L 104,66 L 103,67 L 103,69 L 102,70 L 102,72 L 101,73 L 101,79 L 100,80 L 100,83 L 99,84 L 99,91 L 100,92 L 100,93 L 101,94 L 101,98 L 100,99 L 101,100 L 101,103 L 103,105 L 103,110 L 105,112 L 105,114 L 106,115 L 106,116 L 107,117 L 107,119 L 108,119 L 109,120 L 109,121 L 111,123 L 111,125 L 115,129 L 115,130 L 116,130 L 117,131 L 117,132 L 118,132 L 122,136 L 124,136 L 125,137 L 125,138 L 126,138 L 128,140 L 129,140 L 131,142 L 132,142 L 133,143 L 134,143 L 135,144 L 136,144 L 137,145 L 138,145 L 139,146 L 142,146 L 143,147 L 146,147 L 147,148 L 154,148 L 155,149 L 156,149 L 157,150 L 162,150 L 163,149 L 172,149 L 173,148 L 178,148 L 179,147 L 180,147 L 181,146 L 184,146 L 185,145 L 186,145 L 187,144 L 188,144 L 189,143 L 190,143 L 191,142 L 193,142 L 195,140 L 196,140 L 198,138 L 199,138 L 203,134 L 204,134 L 208,130 L 208,129 L 209,128 L 210,128 L 212,126 L 212,124 L 214,122 L 214,121 L 216,119 L 216,118 L 218,116 L 218,115 L 219,114 L 219,113 L 220,112 L 220,110 L 222,108 L 222,102 L 224,100 L 224,78 L 222,76 L 222,69 L 220,67 L 220,65 L 219,64 L 219,63 L 218,62 L 218,59 L 217,58 L 217,57 L 216,57 L 215,56 L 215,55 L 214,54 L 214,53 L 213,53 L 212,52 L 212,51 L 211,50 L 211,49 L 206,44 L 206,43 L 204,43 L 200,39 L 199,39 L 197,37 L 196,37 L 194,35 L 193,35 L 192,34 L 192,33 L 189,33 L 188,32 L 187,32 L 186,31 L 183,31 L 181,29 L 178,29 L 177,28 L 176,28 L 175,27 Z" fill="black" /></svg>