<?xml version='1.0' encoding='utf-8'?>
<svg width="256" height="220" xmlns="http://www.w3.org/2000/svg" viewBox="0 0 256 220"><rect width="256" height="220" fill="white" /><path d="M 81,140 L 80,141 L 77,141 L 76,142 L 74,142 L 73,143 L 72,143 L 70,145 L 69,145 L 69,146 L 67,148 L 67,149 L 65,151 L 65,161 L 63,163 L 65,165 L 65,168 L 66,169 L 66,172 L 67,173 L 67,174 L 68,175 L 69,175 L 70,176 L 70,177 L 72,179 L 73,179 L 75,181 L 78,181 L 79,182 L 80,182 L 81,183 L 88,183 L 89,182 L 91,182 L 92,181 L 94,181 L 96,179 L 97,179 L 99,177 L 100,177 L 102,175 L 102,174 L 104,172 L 104,170 L 105,169 L 105,168 L 106,167 L 106,156 L 105,155 L 105,154 L 104,153 L 104,150 L 100,146 L 99,146 L 96,143 L 95,143 L 94,142 L 93,142 L 92,141 L 91,141 L 90,140 Z" fill="black" /><path d="M 176,33 L 175,34 L 175,35 L 174,36 L 174,37 L 173,38 L 173,39 L 171,41 L 171,42 L 169,44 L 169,45 L 168,46 L 168,47 L 165,50 L 165,51 L 164,52 L 164,53 L 163,54 L 163,55 L 160,58 L 160,59 L 159,60 L 159,61 L 158,62 L 157,62 L 157,64 L 155,66 L 155,67 L 154,68 L 154,69 L 153,70 L 153,71 L 151,73 L 151,74 L 149,76 L 149,77 L 147,79 L 147,80 L 145,82 L 145,83 L 143,85 L 143,87 L 142,88 L 141,88 L 141,90 L 139,92 L 139,93 L 138,94 L 137,94 L 137,96 L 135,98 L 135,99 L 133,101 L 133,102 L 131,104 L 131,105 L 129,107 L 129,109 L 128,110 L 127,110 L 127,111 L 126,112 L 126,113 L 125,114 L 125,115 L 124,116 L 124,117 L 120,121 L 121,122 L 121,123 L 152,123 L 153,124 L 155,124 L 156,123 L 157,124 L 160,124 L 161,123 L 164,123 L 165,124 L 184,124 L 185,125 L 186,124 L 207,124 L 208,125 L 212,125 L 213,124 L 216,124 L 217,125 L 223,125 L 224,124 L 229,124 L 230,125 L 233,125 L 233,123 L 230,120 L 230,119 L 228,117 L 228,115 L 226,113 L 226,112 L 225,111 L 225,110 L 224,109 L 224,108 L 223,108 L 222,107 L 222,106 L 221,105 L 221,104 L 220,103 L 220,102 L 219,101 L 219,100 L 218,99 L 218,98 L 216,96 L 216,95 L 214,93 L 214,91 L 212,89 L 212,88 L 211,87 L 211,86 L 208,83 L 208,82 L 207,81 L 207,80 L 206,79 L 206,78 L 204,76 L 204,75 L 202,73 L 202,72 L 201,71 L 201,70 L 200,69 L 200,68 L 199,68 L 198,67 L 198,65 L 196,63 L 196,62 L 194,60 L 194,57 L 192,55 L 192,54 L 191,54 L 190,53 L 190,52 L 189,51 L 189,50 L 188,49 L 188,48 L 186,46 L 186,45 L 184,43 L 184,42 L 183,41 L 183,40 L 182,39 L 182,38 L 181,38 L 180,37 L 180,34 L 179,33 Z" fill="black" /><path d="M 48,12 L 47,13 L 45,13 L 44,14 L 41,14 L 40,15 L 39,15 L 38,16 L 37,16 L 36,17 L 34,17 L 32,19 L 31,19 L 30,20 L 29,20 L 29,21 L 28,22 L 27,22 L 27,23 L 26,24 L 25,24 L 25,25 L 21,29 L 21,31 L 20,32 L 19,32 L 19,33 L 17,35 L 17,39 L 16,40 L 16,41 L 15,42 L 15,46 L 14,47 L 14,48 L 13,49 L 13,50 L 14,51 L 14,55 L 13,56 L 13,61 L 14,62 L 14,65 L 15,66 L 15,69 L 17,71 L 17,73 L 18,73 L 19,74 L 19,76 L 21,78 L 21,79 L 22,79 L 23,80 L 23,81 L 25,83 L 26,83 L 27,84 L 27,85 L 28,85 L 29,86 L 29,87 L 30,87 L 31,88 L 32,88 L 33,89 L 34,89 L 36,91 L 38,91 L 40,93 L 45,93 L 46,94 L 48,94 L 49,95 L 62,95 L 63,94 L 64,94 L 65,93 L 68,93 L 69,92 L 71,92 L 72,91 L 73,91 L 75,89 L 77,89 L 79,87 L 80,87 L 80,86 L 81,85 L 82,85 L 84,83 L 85,83 L 86,82 L 86,81 L 88,79 L 88,78 L 89,77 L 90,77 L 90,76 L 91,75 L 91,74 L 92,73 L 92,72 L 93,71 L 93,69 L 94,68 L 94,67 L 95,66 L 95,65 L 96,64 L 96,58 L 97,57 L 96,56 L 96,42 L 94,40 L 94,37 L 92,35 L 92,34 L 91,33 L 91,32 L 90,31 L 90,30 L 87,27 L 87,26 L 82,21 L 81,21 L 80,20 L 79,20 L 78,19 L 78,18 L 77,18 L 75,16 L 73,16 L 72,15 L 71,15 L 70,14 L 68,14 L 67,13 L 63,13 L 62,12 Z" fill="black" /></svg>