<?xml version='1.0' encoding='utf-8'?>
<svg width="256" height="216" xmlns="http://www.w3.org/2000/svg" viewBox="0 0 256 216"><rect width="256" height="216" fill="white" /><path d="M 192,107 L 191,108 L 190,108 L 189,109 L 182,109 L 181,110 L 180,110 L 179,111 L 176,111 L 174,113 L 172,113 L 170,115 L 169,115 L 165,119 L 164,119 L 164,120 L 163,121 L 163,122 L 160,125 L 160,128 L 159,129 L 158,129 L 158,131 L 157,132 L 157,134 L 156,135 L 156,152 L 158,154 L 158,156 L 160,158 L 160,160 L 161,161 L 161,162 L 162,163 L 162,164 L 170,172 L 171,172 L 172,173 L 172,174 L 173,174 L 175,176 L 177,176 L 178,177 L 179,177 L 180,178 L 186,178 L 187,179 L 193,179 L 194,178 L 203,178 L 205,176 L 207,176 L 208,175 L 209,175 L 210,174 L 212,174 L 216,170 L 217,170 L 217,169 L 218,168 L 219,168 L 219,167 L 220,166 L 220,165 L 223,162 L 223,161 L 225,159 L 225,155 L 226,154 L 226,152 L 227,151 L 227,134 L 226,133 L 226,132 L 225,131 L 225,130 L 224,129 L 224,127 L 223,126 L 223,125 L 222,124 L 222,123 L 219,120 L 219,119 L 217,117 L 216,117 L 214,115 L 213,115 L 211,113 L 209,113 L 207,111 L 204,111 L 203,110 L 202,110 L 201,109 L 196,109 L 195,108 L 193,108 Z" fill="black" /><path d="M 73,93 L 72,94 L 70,94 L 69,95 L 59,95 L 57,97 L 52,97 L 51,98 L 50,98 L 49,99 L 48,99 L 45,102 L 44,102 L 43,103 L 42,103 L 40,105 L 39,105 L 35,109 L 34,109 L 32,111 L 32,112 L 31,113 L 30,113 L 30,115 L 29,116 L 28,116 L 28,117 L 26,119 L 26,120 L 24,122 L 24,123 L 23,124 L 23,125 L 22,126 L 22,128 L 21,129 L 20,129 L 20,133 L 18,135 L 18,140 L 17,141 L 17,144 L 16,145 L 16,152 L 17,153 L 17,159 L 18,160 L 18,166 L 19,167 L 19,168 L 20,169 L 20,170 L 22,172 L 22,176 L 23,177 L 23,178 L 24,179 L 24,180 L 27,183 L 27,184 L 28,185 L 28,186 L 29,186 L 30,187 L 30,188 L 31,189 L 31,190 L 32,190 L 34,192 L 35,192 L 36,193 L 36,194 L 38,196 L 39,196 L 41,198 L 42,198 L 44,200 L 47,200 L 49,202 L 51,202 L 52,203 L 53,203 L 54,204 L 57,204 L 59,206 L 70,206 L 71,207 L 80,207 L 81,206 L 87,206 L 88,205 L 91,205 L 92,204 L 94,204 L 95,203 L 96,203 L 97,202 L 99,202 L 99,201 L 100,200 L 103,200 L 103,199 L 104,198 L 105,198 L 106,197 L 107,197 L 110,194 L 111,194 L 111,193 L 112,192 L 113,192 L 113,191 L 114,190 L 115,190 L 115,189 L 116,188 L 117,188 L 117,187 L 121,183 L 121,181 L 122,180 L 123,180 L 123,179 L 124,178 L 124,177 L 125,176 L 125,174 L 127,172 L 127,169 L 128,168 L 128,167 L 129,166 L 129,163 L 130,162 L 130,159 L 131,158 L 131,145 L 130,144 L 130,138 L 129,137 L 129,135 L 128,134 L 128,133 L 127,132 L 127,128 L 125,126 L 125,123 L 124,123 L 123,122 L 123,121 L 122,120 L 122,118 L 115,111 L 115,110 L 114,109 L 112,109 L 111,108 L 111,107 L 110,107 L 109,106 L 109,105 L 108,105 L 107,104 L 107,103 L 106,103 L 104,101 L 102,101 L 100,99 L 97,99 L 95,97 L 94,97 L 93,96 L 89,96 L 88,95 L 85,95 L 84,94 L 76,94 L 75,93 Z" fill="black" /><path d="M 52,19 L 51,20 L 49,20 L 48,21 L 47,21 L 45,23 L 44,23 L 42,25 L 41,25 L 38,28 L 38,30 L 36,32 L 36,33 L 35,34 L 35,36 L 34,37 L 34,46 L 35,47 L 35,50 L 36,51 L 36,52 L 38,54 L 38,55 L 42,59 L 42,60 L 43,60 L 44,61 L 45,61 L 46,62 L 47,62 L 48,63 L 49,63 L 50,64 L 54,64 L 55,65 L 57,65 L 58,64 L 64,64 L 66,62 L 68,62 L 70,60 L 71,60 L 72,59 L 73,59 L 76,56 L 76,55 L 77,54 L 77,53 L 78,52 L 79,52 L 79,49 L 80,48 L 80,47 L 81,46 L 81,37 L 80,36 L 80,35 L 79,34 L 79,32 L 77,30 L 77,28 L 72,23 L 70,23 L 68,21 L 66,21 L 65,20 L 64,20 L 63,19 Z" fill="black" /><path d="M 187,10 L 186,11 L 186,13 L 184,15 L 184,16 L 183,17 L 183,18 L 182,19 L 182,20 L 180,22 L 180,23 L 178,25 L 178,27 L 176,29 L 176,30 L 174,32 L 174,34 L 173,35 L 173,36 L 172,37 L 172,38 L 171,39 L 170,39 L 170,40 L 168,42 L 168,44 L 166,46 L 166,47 L 164,49 L 164,50 L 162,52 L 162,54 L 161,55 L 160,55 L 160,56 L 159,57 L 159,58 L 158,59 L 158,60 L 157,61 L 157,62 L 154,65 L 154,66 L 152,68 L 152,70 L 151,71 L 151,73 L 152,74 L 168,74 L 169,75 L 170,75 L 171,74 L 172,74 L 173,75 L 229,75 L 229,74 L 230,73 L 227,70 L 227,69 L 226,69 L 225,68 L 225,67 L 224,66 L 224,65 L 223,64 L 223,63 L 221,61 L 221,59 L 220,58 L 220,57 L 219,56 L 219,55 L 217,53 L 217,52 L 215,50 L 215,48 L 213,46 L 213,45 L 212,45 L 211,44 L 211,43 L 210,42 L 210,41 L 209,40 L 209,39 L 207,37 L 207,36 L 205,34 L 205,32 L 203,30 L 203,29 L 201,27 L 201,26 L 199,24 L 199,23 L 197,21 L 197,19 L 196,19 L 195,18 L 195,17 L 191,13 L 191,12 L 190,11 L 190,10 Z" fill="black" /></svg>