<?xml version='1.0' encoding='utf-8'?>
<svg width="259" height="216" xmlns="http://www.w3.org/2000/svg" viewBox="0 0 259 216"><rect width="259" height="216" fill="white" /><path d="M 131,175 L 131,176 L 129,178 L 129,180 L 128,181 L 128,183 L 127,184 L 127,188 L 126,189 L 126,190 L 125,191 L 125,194 L 124,195 L 124,197 L 123,198 L 123,201 L 122,202 L 122,204 L 121,205 L 121,207 L 120,208 L 120,212 L 128,212 L 129,211 L 132,211 L 133,210 L 143,210 L 144,209 L 151,209 L 152,208 L 162,208 L 163,207 L 168,207 L 169,206 L 182,206 L 183,205 L 188,205 L 189,204 L 200,204 L 201,203 L 204,203 L 205,202 L 211,202 L 211,200 L 210,200 L 209,199 L 207,199 L 205,197 L 203,197 L 201,195 L 197,195 L 196,194 L 195,194 L 194,193 L 191,193 L 190,192 L 189,192 L 188,191 L 183,191 L 182,190 L 181,190 L 180,189 L 177,189 L 176,188 L 175,188 L 174,187 L 171,187 L 170,186 L 169,186 L 168,185 L 165,185 L 164,184 L 162,184 L 161,183 L 157,183 L 156,182 L 155,182 L 154,181 L 152,181 L 151,180 L 150,180 L 149,179 L 145,179 L 144,178 L 143,178 L 142,177 L 138,177 L 136,175 Z" fill="black" /><path d="M 217,120 L 216,121 L 212,121 L 210,123 L 208,123 L 206,125 L 205,125 L 205,126 L 204,127 L 203,127 L 201,129 L 201,131 L 199,133 L 199,134 L 198,135 L 198,136 L 197,137 L 197,150 L 198,151 L 198,152 L 199,153 L 199,155 L 201,157 L 201,158 L 203,160 L 203,161 L 204,161 L 205,162 L 206,162 L 207,163 L 208,163 L 209,164 L 210,164 L 211,165 L 212,165 L 213,166 L 216,166 L 217,167 L 218,167 L 219,168 L 228,168 L 229,167 L 231,167 L 232,166 L 235,166 L 235,165 L 236,164 L 238,164 L 238,163 L 243,158 L 243,157 L 244,156 L 244,153 L 245,152 L 245,151 L 246,150 L 246,137 L 245,137 L 244,136 L 244,134 L 242,132 L 242,131 L 241,130 L 241,129 L 240,128 L 240,127 L 239,127 L 235,123 L 234,123 L 233,122 L 232,122 L 231,121 L 228,121 L 227,120 Z" fill="black" /><path d="M 28,111 L 27,112 L 26,112 L 25,113 L 23,113 L 21,115 L 19,115 L 17,117 L 17,118 L 16,119 L 15,119 L 15,120 L 13,122 L 13,123 L 11,125 L 11,127 L 9,129 L 9,144 L 10,145 L 10,146 L 11,147 L 11,149 L 12,150 L 12,151 L 13,152 L 13,153 L 18,158 L 19,158 L 21,160 L 23,160 L 25,162 L 40,162 L 41,161 L 42,161 L 43,160 L 44,160 L 45,159 L 46,159 L 47,158 L 48,158 L 50,156 L 51,156 L 55,152 L 55,151 L 56,150 L 56,149 L 57,148 L 58,148 L 58,145 L 59,144 L 59,143 L 60,142 L 60,128 L 59,127 L 59,126 L 58,125 L 58,123 L 54,119 L 53,119 L 52,118 L 52,117 L 51,117 L 49,115 L 48,115 L 46,113 L 44,113 L 43,112 L 41,112 L 40,111 Z" fill="black" /><path d="M 130,61 L 129,62 L 129,63 L 127,65 L 127,67 L 125,69 L 125,70 L 124,71 L 124,72 L 123,73 L 123,74 L 120,77 L 120,78 L 119,79 L 119,80 L 117,82 L 117,84 L 114,87 L 114,88 L 113,89 L 113,90 L 111,92 L 111,94 L 110,95 L 109,95 L 109,98 L 108,99 L 107,99 L 107,102 L 104,105 L 103,105 L 103,106 L 102,107 L 102,108 L 101,109 L 101,111 L 99,113 L 99,114 L 98,115 L 98,116 L 97,117 L 97,118 L 96,119 L 96,120 L 95,121 L 95,124 L 93,126 L 92,126 L 91,127 L 91,130 L 89,132 L 89,133 L 87,135 L 87,136 L 86,137 L 86,138 L 85,139 L 85,140 L 83,142 L 83,144 L 81,146 L 81,148 L 80,149 L 80,150 L 77,153 L 77,155 L 79,157 L 88,157 L 89,156 L 114,156 L 115,155 L 122,155 L 123,154 L 159,154 L 160,153 L 170,153 L 171,152 L 181,152 L 181,149 L 180,148 L 180,147 L 179,146 L 179,145 L 178,144 L 178,143 L 177,142 L 177,141 L 176,140 L 176,139 L 174,137 L 174,136 L 173,135 L 173,134 L 172,133 L 172,132 L 170,130 L 170,128 L 168,126 L 168,125 L 167,124 L 167,123 L 166,122 L 166,121 L 164,119 L 164,117 L 162,115 L 162,114 L 160,112 L 160,111 L 159,110 L 159,109 L 158,108 L 158,107 L 156,105 L 156,103 L 154,101 L 154,99 L 152,97 L 152,96 L 150,94 L 150,93 L 149,92 L 149,91 L 148,90 L 148,89 L 146,87 L 146,85 L 144,83 L 144,82 L 142,80 L 142,79 L 141,78 L 141,77 L 140,76 L 140,75 L 139,74 L 139,73 L 138,72 L 138,71 L 136,69 L 136,67 L 135,67 L 134,66 L 134,64 L 132,62 L 132,61 Z" fill="black" /><path d="M 43,14 L 42,15 L 36,15 L 34,17 L 32,17 L 30,19 L 29,19 L 26,22 L 25,22 L 25,23 L 23,25 L 23,26 L 22,27 L 22,28 L 21,29 L 21,32 L 20,33 L 20,42 L 21,43 L 21,46 L 22,47 L 22,48 L 23,49 L 23,51 L 28,56 L 29,56 L 31,58 L 32,58 L 34,60 L 37,60 L 38,61 L 41,61 L 42,62 L 46,62 L 47,61 L 50,61 L 51,60 L 54,60 L 56,58 L 57,58 L 59,56 L 60,56 L 62,54 L 62,53 L 64,51 L 64,50 L 66,48 L 66,47 L 67,46 L 67,45 L 68,44 L 68,32 L 67,31 L 67,30 L 66,29 L 66,27 L 64,25 L 64,24 L 62,22 L 62,21 L 61,21 L 58,18 L 57,18 L 56,17 L 55,17 L 54,16 L 53,16 L 52,15 L 47,15 L 46,14 Z" fill="black" /><path d="M 203,11 L 203,13 L 201,15 L 201,16 L 200,17 L 200,18 L 199,19 L 199,20 L 197,22 L 197,24 L 196,25 L 195,25 L 195,27 L 193,29 L 193,30 L 192,31 L 192,32 L 191,33 L 191,35 L 189,37 L 189,38 L 187,40 L 187,42 L 183,46 L 183,48 L 182,49 L 182,50 L 180,52 L 180,54 L 177,57 L 177,59 L 174,62 L 174,65 L 181,65 L 182,64 L 206,64 L 207,63 L 214,63 L 215,62 L 226,62 L 227,61 L 231,61 L 231,58 L 230,57 L 230,55 L 229,55 L 228,54 L 228,52 L 226,50 L 226,48 L 224,46 L 224,45 L 223,44 L 223,43 L 222,42 L 222,41 L 221,40 L 221,39 L 220,38 L 220,37 L 219,36 L 219,35 L 218,34 L 218,33 L 216,31 L 216,30 L 214,28 L 214,26 L 212,24 L 212,23 L 211,22 L 211,21 L 210,20 L 210,19 L 209,18 L 209,17 L 208,16 L 208,15 L 207,14 L 207,13 L 206,12 L 206,11 Z" fill="black" /><path d="M 0,0 L 0,215 L 258,215 L 258,0 Z" fill="none" stroke="black" stroke-width="1" /></svg>