<?xml version='1.0' encoding='utf-8'?>
<svg width="257" height="217" xmlns="http://www.w3.org/2000/svg" viewBox="0 0 257 217"><rect width="257" height="217" fill="white" /><path d="M 47,152 L 45,154 L 45,155 L 43,157 L 43,158 L 41,160 L 41,161 L 40,162 L 39,162 L 39,164 L 37,166 L 37,167 L 36,168 L 35,168 L 35,170 L 31,174 L 31,175 L 30,176 L 30,177 L 29,178 L 29,179 L 28,180 L 27,180 L 27,181 L 26,182 L 26,183 L 25,184 L 25,185 L 24,186 L 23,186 L 23,188 L 21,190 L 21,191 L 20,192 L 19,192 L 19,193 L 17,195 L 17,197 L 18,197 L 19,198 L 20,198 L 21,199 L 27,199 L 28,198 L 29,199 L 36,199 L 37,198 L 47,198 L 48,199 L 49,198 L 53,198 L 54,197 L 55,198 L 60,198 L 61,199 L 62,198 L 65,198 L 66,199 L 68,199 L 70,197 L 72,197 L 73,198 L 74,198 L 75,199 L 78,199 L 78,196 L 77,195 L 77,194 L 76,193 L 76,192 L 74,190 L 74,189 L 73,188 L 73,187 L 71,185 L 71,184 L 70,183 L 70,182 L 69,182 L 68,181 L 68,178 L 67,178 L 66,177 L 66,175 L 64,173 L 64,172 L 62,170 L 62,169 L 60,167 L 60,166 L 58,164 L 58,163 L 57,162 L 57,161 L 56,160 L 56,159 L 50,153 L 50,152 Z" fill="black" /><path d="M 203,148 L 201,150 L 201,151 L 200,152 L 199,152 L 199,153 L 196,156 L 196,157 L 195,158 L 195,159 L 193,161 L 193,162 L 191,164 L 191,165 L 189,167 L 189,168 L 187,170 L 187,171 L 186,172 L 186,173 L 185,174 L 185,175 L 184,176 L 183,176 L 183,178 L 181,180 L 181,181 L 179,183 L 179,184 L 177,186 L 177,187 L 175,189 L 175,191 L 173,193 L 173,194 L 171,196 L 171,198 L 172,199 L 234,199 L 235,198 L 235,194 L 234,193 L 234,192 L 231,189 L 231,188 L 230,187 L 230,186 L 228,184 L 228,183 L 226,181 L 226,180 L 224,178 L 224,177 L 222,175 L 222,174 L 220,172 L 220,170 L 217,167 L 217,166 L 216,165 L 216,164 L 215,164 L 214,163 L 214,162 L 212,160 L 212,159 L 210,157 L 210,156 L 208,154 L 208,153 L 206,151 L 206,148 Z" fill="black" /><path d="M 126,113 L 125,114 L 123,114 L 121,116 L 119,116 L 119,117 L 118,118 L 116,118 L 115,119 L 115,120 L 113,122 L 113,123 L 112,124 L 112,125 L 111,126 L 111,134 L 113,136 L 113,139 L 115,141 L 115,142 L 119,146 L 120,146 L 123,149 L 132,149 L 133,148 L 134,148 L 135,147 L 136,147 L 137,146 L 138,146 L 139,145 L 140,145 L 142,143 L 142,142 L 143,141 L 144,141 L 144,140 L 146,138 L 146,137 L 147,136 L 147,130 L 148,129 L 148,127 L 146,125 L 146,123 L 144,121 L 144,120 L 143,120 L 142,119 L 142,118 L 140,116 L 138,116 L 136,114 L 133,114 L 132,113 Z" fill="black" /><path d="M 62,42 L 60,44 L 56,44 L 54,46 L 53,46 L 51,48 L 51,49 L 50,50 L 50,51 L 49,52 L 49,53 L 48,54 L 48,55 L 47,56 L 47,65 L 49,67 L 49,70 L 51,72 L 51,73 L 52,73 L 54,75 L 56,75 L 57,76 L 57,77 L 60,77 L 61,78 L 69,78 L 70,77 L 72,77 L 73,76 L 74,76 L 75,75 L 76,75 L 76,74 L 77,73 L 78,73 L 80,71 L 80,69 L 82,67 L 82,63 L 83,62 L 83,58 L 82,57 L 82,54 L 80,52 L 80,51 L 78,49 L 78,48 L 77,48 L 76,47 L 76,46 L 75,46 L 74,45 L 73,45 L 72,44 L 70,44 L 69,43 L 67,43 L 66,42 Z" fill="black" /><path d="M 185,4 L 184,5 L 179,5 L 178,6 L 177,6 L 176,5 L 173,5 L 173,9 L 172,10 L 173,11 L 173,29 L 172,30 L 172,31 L 173,32 L 173,35 L 172,36 L 172,42 L 190,42 L 191,41 L 196,41 L 197,42 L 210,42 L 210,6 L 209,5 L 208,5 L 207,4 L 202,4 L 201,5 L 187,5 L 186,4 Z" fill="black" /></svg>