<?xml version='1.0' encoding='utf-8'?>
<svg width="262" height="214" xmlns="http://www.w3.org/2000/svg" viewBox="0 0 262 214"><rect width="262" height="214" fill="white" /><path d="M 74,159 L 73,160 L 65,160 L 63,162 L 61,162 L 59,164 L 58,164 L 58,165 L 57,166 L 56,166 L 54,168 L 54,169 L 53,170 L 53,171 L 52,172 L 52,177 L 51,178 L 51,181 L 52,182 L 52,186 L 54,188 L 54,190 L 56,192 L 56,193 L 57,193 L 59,195 L 60,195 L 62,197 L 65,197 L 66,198 L 67,198 L 68,199 L 77,199 L 79,197 L 83,197 L 86,194 L 87,194 L 89,192 L 89,191 L 91,189 L 91,186 L 93,184 L 93,175 L 92,174 L 92,172 L 91,171 L 91,170 L 89,168 L 89,167 L 87,165 L 86,165 L 85,164 L 84,164 L 83,163 L 83,162 L 81,162 L 79,160 L 76,160 L 75,159 Z" fill="black" /><path d="M 153,157 L 152,158 L 152,171 L 153,172 L 153,173 L 152,174 L 152,187 L 153,188 L 153,189 L 154,190 L 154,191 L 153,192 L 153,193 L 156,193 L 157,194 L 183,194 L 184,195 L 185,194 L 191,194 L 191,178 L 192,177 L 191,176 L 191,157 Z" fill="black" /><path d="M 223,65 L 220,68 L 220,70 L 218,72 L 218,73 L 217,74 L 216,74 L 216,75 L 215,76 L 215,77 L 214,78 L 214,79 L 213,80 L 212,80 L 212,81 L 211,82 L 211,83 L 210,84 L 210,85 L 209,86 L 208,86 L 208,88 L 206,90 L 206,91 L 205,92 L 204,92 L 204,94 L 202,96 L 202,97 L 199,100 L 199,101 L 198,102 L 198,103 L 196,105 L 196,106 L 194,108 L 194,112 L 196,112 L 197,113 L 201,113 L 202,112 L 203,112 L 204,113 L 221,113 L 222,112 L 239,112 L 240,111 L 242,111 L 243,112 L 250,112 L 251,111 L 251,108 L 249,106 L 249,104 L 248,103 L 248,102 L 247,101 L 247,100 L 246,100 L 245,99 L 245,97 L 243,95 L 243,94 L 242,93 L 242,92 L 241,91 L 241,90 L 240,90 L 239,89 L 239,88 L 238,87 L 238,86 L 237,85 L 237,84 L 236,84 L 235,83 L 235,82 L 234,81 L 234,80 L 233,79 L 233,78 L 232,77 L 232,76 L 231,75 L 231,74 L 230,74 L 229,73 L 229,70 L 228,70 L 227,69 L 227,67 L 226,66 L 226,65 Z" fill="black" /><path d="M 149,57 L 148,58 L 117,58 L 116,59 L 115,59 L 115,61 L 116,62 L 116,65 L 117,66 L 117,71 L 118,72 L 118,73 L 117,74 L 117,75 L 118,76 L 118,87 L 119,88 L 119,94 L 120,95 L 137,95 L 138,94 L 149,94 L 150,93 L 155,93 L 155,90 L 154,89 L 155,88 L 155,71 L 154,70 L 154,68 L 155,67 L 155,64 L 154,63 L 154,59 L 152,57 Z" fill="black" /><path d="M 46,12 L 44,14 L 44,15 L 42,17 L 42,18 L 40,20 L 40,21 L 38,23 L 38,25 L 36,27 L 36,28 L 34,30 L 34,31 L 32,33 L 32,34 L 30,36 L 30,37 L 28,39 L 28,40 L 26,42 L 26,43 L 25,44 L 25,45 L 24,46 L 24,47 L 23,48 L 22,48 L 22,49 L 21,50 L 21,51 L 20,52 L 20,54 L 18,56 L 18,57 L 16,59 L 16,61 L 17,62 L 18,61 L 35,61 L 36,62 L 39,62 L 40,61 L 45,61 L 46,62 L 75,62 L 76,61 L 74,59 L 74,57 L 73,56 L 73,54 L 71,52 L 71,50 L 69,48 L 69,47 L 67,45 L 67,44 L 66,43 L 66,42 L 65,41 L 65,40 L 63,38 L 63,36 L 62,35 L 62,33 L 60,31 L 60,30 L 59,29 L 59,28 L 58,27 L 58,26 L 57,25 L 57,24 L 56,23 L 56,22 L 55,21 L 55,20 L 54,20 L 53,19 L 53,18 L 51,16 L 51,15 L 49,13 L 49,12 Z" fill="black" /><path d="M 219,6 L 218,7 L 217,7 L 216,8 L 214,8 L 210,12 L 209,12 L 208,13 L 208,14 L 206,16 L 206,17 L 205,18 L 205,19 L 204,20 L 204,30 L 206,32 L 206,35 L 212,41 L 213,41 L 214,42 L 214,43 L 215,43 L 216,44 L 219,44 L 220,45 L 230,45 L 232,43 L 235,43 L 237,41 L 238,41 L 240,39 L 240,38 L 241,37 L 241,36 L 243,34 L 243,32 L 245,30 L 245,20 L 243,18 L 243,16 L 242,16 L 241,15 L 241,13 L 240,12 L 239,12 L 237,10 L 236,10 L 235,9 L 235,8 L 234,8 L 233,7 L 232,7 L 231,6 Z" fill="black" /><path d="M 0,0 L 0,213 L 261,213 L 261,0 Z" fill="none" stroke="black" stroke-width="1" /></svg>