<?xml version='1.0' encoding='utf-8'?>
<svg width="262" height="220" xmlns="http://www.w3.org/2000/svg" viewBox="0 0 262 220"><rect width="262" height="220" fill="white" /><path d="M 82,172 L 82,173 L 81,174 L 71,174 L 70,175 L 69,174 L 64,174 L 63,175 L 60,175 L 59,174 L 51,174 L 50,175 L 46,175 L 45,176 L 47,178 L 47,187 L 48,188 L 48,201 L 47,202 L 47,203 L 48,204 L 48,211 L 49,212 L 60,212 L 61,211 L 62,211 L 63,212 L 69,212 L 70,213 L 71,213 L 72,212 L 73,212 L 74,211 L 87,211 L 88,210 L 88,207 L 87,206 L 87,193 L 86,192 L 86,184 L 85,183 L 85,173 L 84,172 Z" fill="black" /><path d="M 179,164 L 178,165 L 175,165 L 173,167 L 173,169 L 174,170 L 174,171 L 175,172 L 175,173 L 176,174 L 176,175 L 177,175 L 178,176 L 178,178 L 180,180 L 180,182 L 182,184 L 182,185 L 184,187 L 184,189 L 185,190 L 185,191 L 186,192 L 186,193 L 187,193 L 188,194 L 188,197 L 189,197 L 190,198 L 190,201 L 191,201 L 192,202 L 192,204 L 194,206 L 194,208 L 196,210 L 196,211 L 197,212 L 200,212 L 203,209 L 203,208 L 204,207 L 204,206 L 205,205 L 205,204 L 206,203 L 207,203 L 207,202 L 209,200 L 209,199 L 211,197 L 211,196 L 212,195 L 212,194 L 213,193 L 213,192 L 214,191 L 215,191 L 215,190 L 216,189 L 216,188 L 219,185 L 219,184 L 221,182 L 221,180 L 222,179 L 223,179 L 223,177 L 226,174 L 226,173 L 228,171 L 228,170 L 229,169 L 229,168 L 231,166 L 231,164 L 184,164 L 183,165 L 182,165 L 181,164 Z" fill="black" /><path d="M 156,115 L 155,116 L 124,116 L 124,135 L 125,136 L 124,137 L 124,153 L 137,153 L 138,154 L 160,154 L 161,153 L 162,153 L 162,152 L 161,151 L 161,148 L 162,147 L 162,116 L 158,116 L 157,115 Z" fill="black" /><path d="M 35,110 L 35,142 L 34,143 L 34,145 L 45,145 L 46,146 L 55,146 L 56,145 L 62,145 L 64,147 L 66,145 L 69,145 L 71,143 L 71,110 Z" fill="black" /><path d="M 214,90 L 213,91 L 213,92 L 212,93 L 212,95 L 210,97 L 210,99 L 209,100 L 208,100 L 208,101 L 207,102 L 207,103 L 204,106 L 204,107 L 202,109 L 202,110 L 200,112 L 200,113 L 198,115 L 198,116 L 196,118 L 196,119 L 194,121 L 194,122 L 192,124 L 192,125 L 189,128 L 189,129 L 188,130 L 188,131 L 187,132 L 187,134 L 188,135 L 194,135 L 195,134 L 207,134 L 208,133 L 209,134 L 223,134 L 224,133 L 241,133 L 242,132 L 243,132 L 243,130 L 241,128 L 241,126 L 240,126 L 239,125 L 239,124 L 238,123 L 238,122 L 237,121 L 237,120 L 234,117 L 234,116 L 233,115 L 233,114 L 231,112 L 231,111 L 229,109 L 229,107 L 227,105 L 227,104 L 225,102 L 225,100 L 224,100 L 223,99 L 223,98 L 221,96 L 221,95 L 219,93 L 219,92 L 217,90 Z" fill="black" /></svg>