<?xml version='1.0' encoding='utf-8'?>
<svg width="262" height="218" xmlns="http://www.w3.org/2000/svg" viewBox="0 0 262 218"><rect width="262" height="218" fill="white" /><path d="M 56,175 L 55,176 L 50,176 L 49,177 L 48,177 L 47,178 L 46,178 L 42,182 L 41,182 L 40,183 L 40,184 L 38,186 L 38,189 L 37,190 L 37,191 L 36,192 L 36,197 L 37,198 L 37,199 L 38,200 L 38,202 L 40,204 L 40,205 L 46,211 L 47,211 L 49,213 L 53,213 L 54,214 L 60,214 L 61,213 L 63,213 L 64,212 L 67,212 L 67,211 L 68,210 L 69,210 L 70,209 L 71,209 L 73,207 L 73,205 L 75,203 L 75,202 L 76,201 L 76,198 L 77,197 L 77,194 L 76,193 L 76,192 L 75,191 L 75,186 L 73,184 L 73,183 L 68,178 L 67,178 L 65,176 L 58,176 L 57,175 Z" fill="black" /><path d="M 130,142 L 130,145 L 126,149 L 126,150 L 124,152 L 124,153 L 123,154 L 122,154 L 122,155 L 120,157 L 120,158 L 118,160 L 118,161 L 116,163 L 116,164 L 114,166 L 114,167 L 112,169 L 112,170 L 110,172 L 110,173 L 108,175 L 108,176 L 106,178 L 106,179 L 103,182 L 103,184 L 104,185 L 114,185 L 115,186 L 139,186 L 140,187 L 158,187 L 159,186 L 159,185 L 157,183 L 157,180 L 155,178 L 155,176 L 154,176 L 153,175 L 153,172 L 152,172 L 151,171 L 151,169 L 147,165 L 147,162 L 146,162 L 145,161 L 145,160 L 143,158 L 143,156 L 142,155 L 142,154 L 139,151 L 139,150 L 138,149 L 138,148 L 137,147 L 137,146 L 136,145 L 136,144 L 134,142 Z" fill="black" /><path d="M 207,109 L 205,111 L 205,112 L 204,113 L 204,114 L 202,116 L 202,117 L 201,118 L 201,119 L 200,120 L 200,121 L 199,122 L 198,122 L 198,123 L 197,124 L 197,125 L 196,126 L 196,127 L 195,128 L 194,128 L 194,129 L 193,130 L 193,131 L 192,132 L 192,133 L 191,134 L 191,135 L 190,136 L 190,137 L 188,139 L 188,141 L 187,142 L 186,142 L 186,143 L 185,144 L 185,145 L 184,146 L 184,147 L 182,149 L 182,150 L 180,152 L 180,156 L 181,157 L 182,156 L 183,156 L 184,155 L 187,155 L 188,156 L 205,156 L 206,157 L 207,157 L 208,156 L 209,156 L 210,157 L 233,157 L 233,152 L 232,152 L 231,151 L 231,149 L 229,147 L 229,146 L 227,144 L 227,142 L 226,142 L 225,141 L 225,138 L 222,135 L 222,134 L 221,133 L 221,131 L 219,129 L 219,128 L 217,126 L 217,124 L 216,124 L 215,123 L 215,120 L 214,120 L 213,119 L 213,118 L 211,116 L 211,115 L 209,113 L 209,111 Z" fill="black" /><path d="M 18,76 L 18,78 L 17,79 L 17,83 L 18,84 L 18,87 L 17,88 L 17,98 L 16,99 L 17,100 L 17,105 L 16,106 L 16,111 L 39,111 L 40,112 L 45,112 L 46,111 L 53,111 L 53,84 L 52,83 L 53,82 L 53,78 L 51,76 Z" fill="black" /><path d="M 116,47 L 115,48 L 112,48 L 111,49 L 110,49 L 107,52 L 106,52 L 106,53 L 105,54 L 104,54 L 104,55 L 103,56 L 103,57 L 102,58 L 102,60 L 101,61 L 101,63 L 100,64 L 100,70 L 101,71 L 101,73 L 102,74 L 102,76 L 104,78 L 104,79 L 105,79 L 106,80 L 106,81 L 108,83 L 110,83 L 112,85 L 114,85 L 116,87 L 127,87 L 128,86 L 129,86 L 132,83 L 133,83 L 134,82 L 135,82 L 136,81 L 136,80 L 137,79 L 137,78 L 139,76 L 139,75 L 141,73 L 141,60 L 139,58 L 139,56 L 138,56 L 137,55 L 137,54 L 135,52 L 134,52 L 132,50 L 131,50 L 129,48 L 126,48 L 125,47 Z" fill="black" /><path d="M 211,8 L 210,9 L 209,9 L 208,10 L 206,10 L 205,11 L 204,11 L 203,12 L 202,12 L 202,13 L 201,14 L 200,14 L 198,16 L 198,17 L 197,18 L 196,18 L 196,21 L 195,22 L 195,23 L 194,24 L 194,34 L 196,36 L 196,38 L 198,40 L 198,41 L 199,41 L 200,42 L 200,43 L 201,43 L 202,44 L 203,44 L 204,45 L 205,45 L 206,46 L 207,46 L 208,47 L 211,47 L 212,48 L 218,48 L 219,47 L 221,47 L 222,46 L 223,46 L 224,45 L 225,45 L 226,44 L 227,44 L 230,41 L 231,41 L 231,40 L 232,39 L 232,38 L 233,37 L 233,36 L 234,35 L 234,34 L 235,33 L 235,22 L 234,21 L 234,20 L 233,19 L 233,18 L 232,17 L 232,16 L 230,14 L 229,14 L 227,12 L 226,12 L 225,11 L 225,10 L 222,10 L 220,8 Z" fill="black" /><path d="M 0,0 L 0,217 L 261,217 L 261,0 Z" fill="none" stroke="black" stroke-width="1" /></svg>