<?xml version='1.0' encoding='utf-8'?>
<svg width="260" height="218" xmlns="http://www.w3.org/2000/svg" viewBox="0 0 260 218"><rect width="260" height="218" fill="white" /><path d="M 95,151 L 93,153 L 91,153 L 90,154 L 89,154 L 88,155 L 88,156 L 87,157 L 87,158 L 84,161 L 84,163 L 83,164 L 83,165 L 82,166 L 82,174 L 83,175 L 83,176 L 84,177 L 84,180 L 86,182 L 86,183 L 89,186 L 90,186 L 92,188 L 94,188 L 95,189 L 97,189 L 98,190 L 105,190 L 106,189 L 109,189 L 110,188 L 112,188 L 114,186 L 115,186 L 115,185 L 116,184 L 117,184 L 119,182 L 119,180 L 120,179 L 120,177 L 121,176 L 121,174 L 122,173 L 122,166 L 121,165 L 121,163 L 119,161 L 119,160 L 117,158 L 117,157 L 115,155 L 114,155 L 112,153 L 111,153 L 110,152 L 109,152 L 108,151 Z" fill="black" /><path d="M 197,144 L 196,145 L 184,145 L 184,181 L 191,181 L 192,180 L 193,180 L 194,181 L 203,181 L 204,180 L 206,180 L 207,181 L 208,180 L 210,180 L 211,181 L 212,181 L 213,180 L 215,180 L 216,181 L 218,181 L 219,180 L 225,180 L 225,157 L 224,156 L 224,146 L 223,145 L 222,145 L 221,144 L 201,144 L 200,145 L 199,144 Z" fill="black" /><path d="M 128,97 L 127,98 L 110,98 L 109,99 L 106,99 L 106,103 L 108,105 L 108,106 L 110,108 L 110,110 L 111,111 L 111,112 L 114,115 L 114,116 L 116,118 L 116,120 L 119,123 L 119,124 L 120,125 L 120,126 L 121,126 L 122,127 L 122,129 L 123,130 L 123,131 L 124,132 L 124,134 L 125,134 L 126,135 L 126,136 L 128,138 L 128,140 L 129,140 L 130,141 L 130,142 L 134,146 L 136,144 L 136,143 L 137,142 L 137,141 L 140,138 L 140,137 L 141,136 L 141,135 L 143,133 L 143,131 L 145,129 L 145,128 L 147,126 L 147,124 L 149,122 L 149,121 L 150,120 L 150,119 L 153,116 L 153,114 L 155,112 L 155,110 L 157,108 L 157,107 L 159,105 L 159,103 L 160,102 L 161,102 L 161,99 L 159,97 L 138,97 L 137,98 L 136,98 L 135,97 Z" fill="black" /><path d="M 45,93 L 45,94 L 44,95 L 44,96 L 43,97 L 42,97 L 42,98 L 40,100 L 40,101 L 38,103 L 38,105 L 36,107 L 35,107 L 35,110 L 33,112 L 32,112 L 32,113 L 30,115 L 30,116 L 28,118 L 28,119 L 27,120 L 27,121 L 24,124 L 24,126 L 22,128 L 22,129 L 20,131 L 20,132 L 19,133 L 19,134 L 18,135 L 18,136 L 15,139 L 15,142 L 16,143 L 17,143 L 18,142 L 35,142 L 36,141 L 37,142 L 63,142 L 64,141 L 69,141 L 70,142 L 72,140 L 73,140 L 73,137 L 71,135 L 71,134 L 69,132 L 69,131 L 67,129 L 67,127 L 65,125 L 65,123 L 63,121 L 63,120 L 61,118 L 61,116 L 59,114 L 59,113 L 58,112 L 58,111 L 57,110 L 57,109 L 56,108 L 56,107 L 55,106 L 55,105 L 53,103 L 53,101 L 52,100 L 52,99 L 51,98 L 51,97 L 50,97 L 49,96 L 49,95 L 47,93 Z" fill="black" /><path d="M 208,41 L 208,42 L 207,43 L 206,43 L 205,44 L 204,44 L 201,47 L 201,48 L 198,51 L 198,53 L 196,55 L 196,64 L 197,65 L 197,68 L 198,69 L 198,71 L 203,76 L 204,76 L 206,78 L 207,78 L 208,79 L 211,79 L 212,80 L 220,80 L 221,79 L 222,79 L 223,78 L 225,78 L 226,77 L 227,77 L 228,76 L 229,76 L 231,74 L 231,73 L 232,72 L 232,71 L 233,70 L 233,69 L 235,67 L 235,64 L 236,63 L 236,57 L 235,56 L 235,53 L 234,52 L 234,51 L 233,50 L 233,49 L 231,47 L 230,47 L 226,43 L 225,43 L 223,41 Z" fill="black" /></svg>