<?xml version='1.0' encoding='utf-8'?>
<svg width="265" height="218" xmlns="http://www.w3.org/2000/svg" viewBox="0 0 265 218"><rect width="265" height="218" fill="white" /><path d="M 217,157 L 214,160 L 213,160 L 213,162 L 211,164 L 211,165 L 206,170 L 206,171 L 203,174 L 203,175 L 202,176 L 202,177 L 199,180 L 199,181 L 197,183 L 197,184 L 195,186 L 195,187 L 194,188 L 193,188 L 193,189 L 192,190 L 192,191 L 191,192 L 191,193 L 190,194 L 189,194 L 189,196 L 187,198 L 187,199 L 186,200 L 186,204 L 207,204 L 208,205 L 216,205 L 217,204 L 218,204 L 219,203 L 223,203 L 224,204 L 230,204 L 231,203 L 232,203 L 233,204 L 242,204 L 243,203 L 243,201 L 242,200 L 242,199 L 241,198 L 241,197 L 240,196 L 240,195 L 238,193 L 238,191 L 236,189 L 236,188 L 235,187 L 235,186 L 234,185 L 234,184 L 232,182 L 232,180 L 230,178 L 230,177 L 228,175 L 228,173 L 226,171 L 226,170 L 225,169 L 225,168 L 224,167 L 224,165 L 222,163 L 222,162 L 220,160 L 220,158 L 219,157 Z" fill="black" /><path d="M 123,142 L 122,143 L 119,143 L 118,144 L 117,144 L 116,145 L 115,145 L 114,146 L 112,146 L 110,148 L 109,148 L 109,149 L 108,150 L 107,150 L 105,152 L 105,153 L 103,155 L 103,157 L 101,159 L 101,163 L 100,164 L 100,166 L 99,167 L 99,173 L 100,174 L 100,177 L 101,178 L 101,180 L 102,181 L 102,182 L 104,184 L 104,186 L 105,187 L 105,189 L 107,191 L 108,191 L 112,195 L 114,195 L 115,196 L 116,196 L 117,197 L 118,197 L 119,198 L 120,198 L 121,199 L 124,199 L 125,200 L 128,200 L 129,199 L 136,199 L 137,198 L 138,198 L 139,197 L 141,197 L 143,195 L 145,195 L 147,193 L 148,193 L 148,192 L 149,191 L 150,191 L 150,190 L 151,189 L 152,189 L 152,188 L 153,187 L 153,186 L 154,185 L 154,184 L 156,182 L 156,179 L 157,178 L 157,176 L 158,175 L 158,166 L 157,165 L 157,163 L 156,162 L 156,159 L 154,157 L 154,156 L 153,156 L 152,155 L 152,154 L 151,153 L 151,152 L 148,149 L 147,149 L 146,148 L 145,148 L 144,147 L 144,146 L 143,146 L 142,145 L 141,145 L 140,144 L 139,144 L 138,143 L 135,143 L 134,142 Z" fill="black" /><path d="M 30,130 L 30,134 L 29,135 L 29,136 L 30,137 L 30,165 L 32,167 L 66,167 L 68,165 L 68,154 L 67,153 L 67,130 L 61,130 L 60,131 L 55,131 L 54,130 L 42,130 L 41,131 L 40,130 L 37,130 L 36,131 L 33,131 L 32,130 Z" fill="black" /><path d="M 195,98 L 194,99 L 194,102 L 195,103 L 195,104 L 194,105 L 194,111 L 193,112 L 193,115 L 194,116 L 194,128 L 193,129 L 193,130 L 194,131 L 194,134 L 195,135 L 195,137 L 232,137 L 232,120 L 233,119 L 233,118 L 232,117 L 232,112 L 233,111 L 233,106 L 232,105 L 232,100 L 227,100 L 226,99 L 204,99 L 203,98 L 201,98 L 200,99 L 199,99 L 198,98 Z" fill="black" /><path d="M 121,38 L 120,39 L 119,39 L 119,42 L 120,43 L 120,45 L 121,46 L 121,47 L 122,48 L 122,49 L 123,50 L 123,51 L 124,52 L 124,53 L 125,54 L 125,55 L 126,56 L 126,57 L 127,58 L 127,59 L 128,59 L 129,60 L 129,62 L 131,64 L 131,65 L 132,66 L 132,67 L 133,68 L 133,69 L 134,70 L 134,71 L 135,72 L 135,73 L 137,75 L 137,76 L 139,78 L 139,80 L 141,82 L 141,83 L 142,83 L 143,84 L 143,86 L 144,87 L 144,88 L 145,89 L 145,90 L 146,90 L 146,88 L 147,87 L 147,86 L 148,85 L 148,84 L 149,83 L 149,82 L 152,79 L 152,77 L 154,75 L 154,74 L 155,73 L 155,72 L 156,71 L 156,70 L 158,68 L 158,66 L 160,64 L 160,63 L 161,62 L 161,61 L 162,60 L 162,59 L 164,57 L 164,55 L 166,53 L 166,52 L 167,51 L 167,50 L 168,49 L 168,48 L 170,46 L 170,45 L 172,43 L 172,41 L 171,41 L 170,40 L 169,40 L 168,39 L 161,39 L 160,40 L 156,40 L 155,39 L 149,39 L 148,38 L 147,38 L 146,39 L 135,39 L 134,38 Z" fill="black" /><path d="M 53,2 L 50,5 L 49,5 L 48,6 L 47,6 L 47,7 L 44,10 L 42,10 L 36,16 L 36,17 L 35,18 L 35,23 L 34,24 L 34,26 L 33,27 L 33,29 L 34,30 L 34,32 L 35,33 L 35,34 L 34,35 L 34,36 L 35,37 L 35,42 L 37,44 L 37,45 L 38,45 L 39,46 L 39,47 L 40,48 L 41,48 L 42,49 L 42,50 L 43,51 L 43,53 L 45,53 L 47,55 L 49,55 L 51,57 L 56,57 L 57,58 L 58,58 L 59,59 L 61,59 L 62,58 L 64,58 L 65,57 L 66,57 L 67,58 L 70,58 L 71,57 L 72,57 L 73,56 L 74,56 L 75,55 L 77,55 L 79,53 L 80,53 L 80,52 L 81,51 L 82,51 L 82,50 L 83,49 L 84,49 L 85,48 L 85,47 L 88,44 L 88,42 L 89,41 L 89,40 L 90,39 L 90,36 L 91,35 L 91,25 L 90,24 L 90,20 L 89,19 L 89,18 L 88,17 L 88,16 L 86,14 L 86,13 L 84,11 L 84,10 L 83,10 L 81,8 L 80,8 L 78,6 L 77,6 L 75,4 L 73,4 L 72,3 L 69,3 L 68,2 L 57,2 L 56,3 L 55,3 L 54,2 Z" fill="black" /></svg>