<?xml version='1.0' encoding='utf-8'?>
<svg width="257" height="213" xmlns="http://www.w3.org/2000/svg" viewBox="0 0 257 213"><rect width="257" height="213" fill="white" /><path d="M 178,90 L 177,91 L 176,91 L 174,93 L 174,97 L 172,99 L 174,101 L 174,103 L 177,106 L 184,106 L 186,104 L 187,104 L 189,102 L 189,98 L 190,97 L 190,96 L 189,95 L 189,94 L 187,92 L 186,92 L 185,91 L 184,91 L 183,90 Z" fill="black" /><path d="M 208,78 L 207,79 L 206,79 L 204,81 L 204,89 L 206,91 L 207,91 L 208,92 L 209,92 L 210,93 L 215,93 L 217,91 L 218,91 L 219,90 L 219,88 L 220,87 L 220,85 L 219,84 L 219,82 L 216,79 L 216,78 Z" fill="black" /><path d="M 51,63 L 50,64 L 47,64 L 46,65 L 46,67 L 45,68 L 44,68 L 44,69 L 43,70 L 43,71 L 42,72 L 42,73 L 41,74 L 41,77 L 40,78 L 40,83 L 39,84 L 39,85 L 38,86 L 38,118 L 39,119 L 39,122 L 40,123 L 40,131 L 41,132 L 41,133 L 42,134 L 42,139 L 43,140 L 43,142 L 44,143 L 44,145 L 45,146 L 45,148 L 46,149 L 46,152 L 48,154 L 48,157 L 50,159 L 50,161 L 52,163 L 52,166 L 54,168 L 54,169 L 55,170 L 55,171 L 56,172 L 56,173 L 57,174 L 57,175 L 58,176 L 58,177 L 61,180 L 61,181 L 62,182 L 62,183 L 66,187 L 66,188 L 68,190 L 68,191 L 69,191 L 70,192 L 70,193 L 72,195 L 73,195 L 74,196 L 74,197 L 75,197 L 78,200 L 78,201 L 80,203 L 82,203 L 84,205 L 87,205 L 90,208 L 92,208 L 93,209 L 101,209 L 103,207 L 105,207 L 105,206 L 107,204 L 107,203 L 110,200 L 110,199 L 111,198 L 111,193 L 112,192 L 112,184 L 113,183 L 113,178 L 112,177 L 112,174 L 111,173 L 111,157 L 110,156 L 110,152 L 109,151 L 109,146 L 108,145 L 108,144 L 107,143 L 107,139 L 106,138 L 106,136 L 105,135 L 105,132 L 104,131 L 104,129 L 103,128 L 103,124 L 102,123 L 102,122 L 101,121 L 101,119 L 100,118 L 100,117 L 99,116 L 99,114 L 98,113 L 98,112 L 97,111 L 97,110 L 93,106 L 93,104 L 91,102 L 91,100 L 89,98 L 89,97 L 88,96 L 88,95 L 87,94 L 87,92 L 84,89 L 84,88 L 83,87 L 83,86 L 75,78 L 74,78 L 73,77 L 73,76 L 72,75 L 72,74 L 67,69 L 66,69 L 65,68 L 64,68 L 63,67 L 63,66 L 62,66 L 61,65 L 60,65 L 59,64 L 53,64 L 52,63 Z" fill="black" /><path d="M 187,62 L 186,63 L 186,64 L 184,66 L 183,66 L 182,67 L 182,74 L 184,76 L 185,76 L 186,77 L 187,77 L 189,79 L 192,79 L 193,78 L 194,78 L 199,73 L 199,69 L 198,68 L 198,67 L 195,64 L 194,64 L 193,63 L 192,63 L 191,62 Z" fill="black" /><path d="M 0,0 L 0,212 L 256,212 L 256,0 Z" fill="none" stroke="black" stroke-width="1" /></svg>