<?xml version='1.0' encoding='utf-8'?>
<svg width="259" height="213" xmlns="http://www.w3.org/2000/svg" viewBox="0 0 259 213"><rect width="259" height="213" fill="white" /><path d="M 206,174 L 205,175 L 202,175 L 201,176 L 200,176 L 197,179 L 197,184 L 198,185 L 198,187 L 202,191 L 204,191 L 205,192 L 207,192 L 208,191 L 210,191 L 212,189 L 212,188 L 213,187 L 213,186 L 214,185 L 214,183 L 213,182 L 213,179 L 208,174 Z" fill="black" /><path d="M 180,152 L 176,156 L 176,163 L 180,167 L 187,167 L 191,163 L 191,156 L 189,154 L 189,153 L 188,152 Z" fill="black" /><path d="M 217,146 L 215,148 L 212,148 L 210,150 L 210,156 L 211,157 L 211,159 L 212,159 L 214,161 L 223,161 L 224,160 L 224,159 L 225,158 L 225,150 L 224,149 L 223,149 L 222,148 L 221,148 L 219,146 Z" fill="black" /><path d="M 81,2 L 81,3 L 80,4 L 80,5 L 79,6 L 78,6 L 78,7 L 75,10 L 75,11 L 74,12 L 74,13 L 73,14 L 72,14 L 72,15 L 70,17 L 70,18 L 68,20 L 68,21 L 67,22 L 66,22 L 64,24 L 64,26 L 62,28 L 62,29 L 61,30 L 60,30 L 60,31 L 58,33 L 58,34 L 56,36 L 55,36 L 55,37 L 54,38 L 54,39 L 51,42 L 51,43 L 48,46 L 48,47 L 46,49 L 46,50 L 44,52 L 44,53 L 43,54 L 42,54 L 42,55 L 39,58 L 39,59 L 36,62 L 36,63 L 35,64 L 34,64 L 34,65 L 31,68 L 31,69 L 28,72 L 28,73 L 27,74 L 26,74 L 26,75 L 24,77 L 24,78 L 20,82 L 20,83 L 16,87 L 16,88 L 14,90 L 14,91 L 13,92 L 12,92 L 12,93 L 10,95 L 10,97 L 15,102 L 15,103 L 20,108 L 21,108 L 22,109 L 22,110 L 28,116 L 28,117 L 29,117 L 30,118 L 30,119 L 31,119 L 32,120 L 32,121 L 33,121 L 34,122 L 34,123 L 35,123 L 36,124 L 36,125 L 44,133 L 44,134 L 50,140 L 50,141 L 51,141 L 54,144 L 54,145 L 55,145 L 56,146 L 56,147 L 57,147 L 58,148 L 58,149 L 59,149 L 60,150 L 60,151 L 65,156 L 65,157 L 72,164 L 72,165 L 73,165 L 74,166 L 74,167 L 75,167 L 76,168 L 76,169 L 77,169 L 78,170 L 78,171 L 83,176 L 83,177 L 90,184 L 90,185 L 91,185 L 92,186 L 92,187 L 93,187 L 94,188 L 94,189 L 100,195 L 100,196 L 106,202 L 106,203 L 107,203 L 110,206 L 110,207 L 111,208 L 114,208 L 114,207 L 115,206 L 115,203 L 117,201 L 117,199 L 119,197 L 119,195 L 120,194 L 120,193 L 121,192 L 121,190 L 123,188 L 123,186 L 124,185 L 124,184 L 125,183 L 125,182 L 126,181 L 126,180 L 127,179 L 127,178 L 128,177 L 128,176 L 129,175 L 129,173 L 131,171 L 131,170 L 132,169 L 132,168 L 133,167 L 133,165 L 135,163 L 135,161 L 136,160 L 136,159 L 137,158 L 137,157 L 139,155 L 139,152 L 141,150 L 141,148 L 143,146 L 143,144 L 145,142 L 145,140 L 147,138 L 147,136 L 149,134 L 149,132 L 150,131 L 150,130 L 151,129 L 151,128 L 153,126 L 153,124 L 155,122 L 155,120 L 157,118 L 157,116 L 158,115 L 158,114 L 159,113 L 159,112 L 160,111 L 160,110 L 161,109 L 161,107 L 163,105 L 163,103 L 164,102 L 164,101 L 166,99 L 166,94 L 165,93 L 165,92 L 163,90 L 163,89 L 155,81 L 155,80 L 154,80 L 153,79 L 153,78 L 152,78 L 151,77 L 151,76 L 150,76 L 149,75 L 149,74 L 145,70 L 145,69 L 144,69 L 139,64 L 139,63 L 127,51 L 127,50 L 126,50 L 125,49 L 125,48 L 124,48 L 123,47 L 123,46 L 121,44 L 120,44 L 119,43 L 119,42 L 113,36 L 113,35 L 112,34 L 111,34 L 108,31 L 108,30 L 107,29 L 107,28 L 106,28 L 103,25 L 103,24 L 102,24 L 101,23 L 101,22 L 93,14 L 92,14 L 91,13 L 91,12 L 86,7 L 86,6 L 84,4 L 84,3 L 83,2 Z" fill="black" /></svg>