<?xml version='1.0' encoding='utf-8'?>
<svg width="255" height="216" xmlns="http://www.w3.org/2000/svg" viewBox="0 0 255 216"><rect width="255" height="216" fill="white" /><path d="M 170,187 L 165,192 L 165,196 L 166,197 L 166,198 L 167,199 L 167,200 L 168,201 L 171,201 L 172,202 L 176,202 L 177,201 L 178,201 L 182,197 L 182,195 L 180,193 L 180,191 L 179,190 L 179,189 L 177,187 Z" fill="black" /><path d="M 233,101 L 231,103 L 230,103 L 229,104 L 229,112 L 231,114 L 231,115 L 232,116 L 240,116 L 242,114 L 243,114 L 243,113 L 244,112 L 244,111 L 245,110 L 245,106 L 242,103 L 241,103 L 239,101 Z" fill="black" /><path d="M 119,37 L 118,38 L 115,38 L 114,39 L 107,39 L 106,40 L 105,40 L 104,41 L 101,41 L 100,42 L 99,42 L 98,43 L 96,43 L 95,44 L 94,44 L 93,45 L 91,45 L 89,47 L 87,47 L 87,48 L 86,49 L 85,49 L 84,50 L 83,50 L 82,51 L 81,51 L 79,53 L 78,53 L 74,57 L 73,57 L 73,58 L 72,59 L 71,59 L 71,60 L 70,61 L 69,61 L 69,62 L 68,63 L 67,63 L 67,64 L 65,66 L 65,67 L 63,69 L 63,70 L 61,72 L 61,73 L 59,75 L 59,77 L 57,79 L 57,80 L 56,81 L 56,82 L 55,83 L 55,84 L 54,85 L 54,86 L 53,87 L 53,90 L 52,91 L 52,92 L 51,93 L 51,97 L 50,98 L 50,100 L 49,101 L 49,110 L 48,111 L 48,120 L 49,121 L 49,134 L 50,135 L 50,136 L 51,137 L 51,140 L 52,141 L 52,142 L 53,143 L 53,145 L 54,146 L 54,147 L 55,148 L 55,149 L 57,151 L 57,152 L 58,153 L 58,154 L 59,155 L 59,156 L 61,158 L 61,159 L 63,161 L 63,162 L 64,162 L 65,163 L 65,164 L 75,174 L 76,174 L 77,175 L 77,176 L 78,176 L 80,178 L 82,178 L 83,179 L 83,180 L 84,180 L 85,181 L 86,181 L 87,182 L 88,182 L 89,183 L 90,183 L 91,184 L 92,184 L 93,185 L 94,185 L 95,186 L 97,186 L 98,187 L 99,187 L 100,188 L 103,188 L 104,189 L 105,189 L 106,190 L 112,190 L 113,191 L 116,191 L 117,192 L 133,192 L 134,191 L 138,191 L 139,190 L 145,190 L 146,189 L 148,189 L 149,188 L 152,188 L 153,187 L 154,187 L 155,186 L 156,186 L 157,185 L 159,185 L 160,184 L 162,184 L 164,182 L 166,182 L 166,181 L 167,180 L 168,180 L 171,177 L 172,177 L 173,176 L 174,176 L 176,174 L 176,173 L 177,172 L 178,172 L 184,166 L 184,165 L 185,164 L 186,164 L 186,163 L 188,161 L 188,160 L 190,158 L 190,157 L 192,155 L 192,154 L 194,152 L 194,151 L 195,150 L 195,149 L 196,148 L 196,147 L 197,146 L 197,145 L 198,144 L 198,143 L 199,142 L 199,140 L 200,139 L 200,136 L 201,135 L 201,134 L 202,133 L 202,127 L 203,126 L 203,122 L 204,121 L 204,109 L 203,108 L 203,105 L 202,104 L 202,96 L 200,94 L 200,91 L 199,90 L 199,88 L 198,87 L 198,85 L 197,84 L 197,83 L 196,82 L 196,81 L 194,79 L 194,77 L 193,76 L 193,75 L 192,74 L 192,73 L 191,73 L 190,72 L 190,71 L 188,69 L 188,67 L 186,65 L 185,65 L 184,64 L 184,63 L 183,63 L 182,62 L 182,61 L 181,61 L 180,60 L 180,59 L 176,55 L 175,55 L 172,52 L 171,52 L 170,51 L 169,51 L 168,50 L 168,49 L 166,49 L 165,48 L 165,47 L 163,47 L 162,46 L 161,46 L 160,45 L 159,45 L 157,43 L 154,43 L 153,42 L 151,42 L 150,41 L 148,41 L 146,39 L 138,39 L 137,38 L 135,38 L 134,37 Z" fill="black" /><path d="M 190,23 L 189,24 L 189,25 L 187,27 L 187,32 L 189,34 L 189,35 L 190,36 L 193,36 L 195,38 L 197,38 L 199,36 L 200,36 L 201,35 L 202,35 L 202,33 L 203,32 L 203,29 L 202,28 L 202,27 L 201,26 L 201,24 L 200,23 Z" fill="black" /></svg>