<?xml version='1.0' encoding='utf-8'?>
<svg width="260" height="221" xmlns="http://www.w3.org/2000/svg" viewBox="0 0 260 221"><rect width="260" height="221" fill="white" /><path d="M 59,189 L 55,193 L 55,200 L 58,203 L 59,203 L 61,205 L 63,205 L 64,204 L 65,204 L 66,203 L 67,203 L 70,200 L 70,194 L 69,193 L 69,192 L 67,190 L 66,190 L 65,189 Z" fill="black" /><path d="M 22,51 L 21,52 L 19,52 L 15,56 L 15,59 L 17,61 L 17,63 L 20,66 L 27,66 L 30,63 L 30,54 L 29,53 L 28,53 L 27,52 L 25,52 L 24,51 Z" fill="black" /><path d="M 173,42 L 172,43 L 170,43 L 169,44 L 167,44 L 166,45 L 165,45 L 163,47 L 161,47 L 160,48 L 157,48 L 157,49 L 156,50 L 155,50 L 154,51 L 153,51 L 152,52 L 150,52 L 148,54 L 147,54 L 145,56 L 143,56 L 143,57 L 142,58 L 140,58 L 138,60 L 137,60 L 135,62 L 134,62 L 132,64 L 131,64 L 131,65 L 130,66 L 129,66 L 123,72 L 122,72 L 122,73 L 121,74 L 121,75 L 120,76 L 119,76 L 117,78 L 117,79 L 116,80 L 115,80 L 113,82 L 113,83 L 107,89 L 107,90 L 105,92 L 105,93 L 104,94 L 104,95 L 101,98 L 101,99 L 100,100 L 99,100 L 99,103 L 98,104 L 97,104 L 97,106 L 95,108 L 95,111 L 94,112 L 93,112 L 93,113 L 92,114 L 92,115 L 91,116 L 91,119 L 89,121 L 89,123 L 88,124 L 88,127 L 87,128 L 87,129 L 86,130 L 86,131 L 85,132 L 85,133 L 84,134 L 84,139 L 83,140 L 83,153 L 84,154 L 84,155 L 85,156 L 85,157 L 87,159 L 88,159 L 89,160 L 90,160 L 91,161 L 102,161 L 103,160 L 104,160 L 105,159 L 107,159 L 109,157 L 112,157 L 112,156 L 113,155 L 117,155 L 119,153 L 120,153 L 122,151 L 124,151 L 125,150 L 126,150 L 129,147 L 130,147 L 131,146 L 132,146 L 133,145 L 134,145 L 137,142 L 138,142 L 138,141 L 139,140 L 140,140 L 141,139 L 142,139 L 145,136 L 146,136 L 147,135 L 148,135 L 148,134 L 149,133 L 150,133 L 150,132 L 151,131 L 152,131 L 152,130 L 157,125 L 158,125 L 158,124 L 162,120 L 162,119 L 164,117 L 164,116 L 165,115 L 166,115 L 168,113 L 168,112 L 169,111 L 169,110 L 170,109 L 170,108 L 172,106 L 172,105 L 174,103 L 174,102 L 176,100 L 176,99 L 178,97 L 178,96 L 180,94 L 180,92 L 182,90 L 182,89 L 184,87 L 184,85 L 185,84 L 185,83 L 186,82 L 186,80 L 187,79 L 187,78 L 188,77 L 188,72 L 189,71 L 189,68 L 190,67 L 190,52 L 189,51 L 189,50 L 188,49 L 188,47 L 187,46 L 186,46 L 185,45 L 185,44 L 184,43 L 183,43 L 182,42 Z" fill="black" /><path d="M 236,7 L 235,8 L 233,8 L 232,9 L 231,9 L 230,10 L 229,10 L 228,11 L 228,18 L 229,19 L 231,19 L 233,21 L 233,22 L 236,22 L 237,21 L 241,21 L 244,18 L 244,12 L 243,11 L 243,10 L 241,8 L 240,8 L 239,7 Z" fill="black" /></svg>