<?xml version='1.0' encoding='utf-8'?>
<svg width="259" height="217" xmlns="http://www.w3.org/2000/svg" viewBox="0 0 259 217"><rect width="259" height="217" fill="white" /><path d="M 221,141 L 219,143 L 218,143 L 218,144 L 216,146 L 216,149 L 217,150 L 217,151 L 218,152 L 218,154 L 219,155 L 221,155 L 222,156 L 223,156 L 224,157 L 227,157 L 228,156 L 229,156 L 231,154 L 231,153 L 233,151 L 233,147 L 232,146 L 232,145 L 228,141 Z" fill="black" /><path d="M 228,92 L 227,93 L 223,93 L 220,96 L 220,97 L 219,98 L 219,99 L 220,100 L 220,103 L 222,105 L 223,105 L 224,106 L 225,106 L 226,107 L 231,107 L 232,106 L 233,106 L 236,103 L 236,101 L 235,100 L 235,95 L 234,94 L 233,94 L 231,92 Z" fill="black" /><path d="M 104,41 L 103,42 L 102,42 L 101,43 L 96,43 L 95,44 L 93,44 L 92,45 L 90,45 L 88,47 L 86,47 L 84,49 L 80,49 L 80,50 L 79,51 L 78,51 L 77,52 L 76,52 L 75,53 L 74,53 L 74,54 L 73,55 L 72,55 L 70,57 L 69,57 L 67,59 L 66,59 L 64,61 L 64,62 L 63,63 L 62,63 L 60,65 L 60,66 L 59,67 L 58,67 L 56,69 L 56,70 L 53,73 L 52,73 L 52,76 L 50,78 L 50,80 L 48,82 L 48,83 L 46,85 L 46,88 L 44,90 L 44,94 L 43,95 L 42,95 L 42,100 L 41,101 L 41,104 L 40,105 L 40,131 L 41,132 L 41,134 L 42,135 L 42,140 L 43,141 L 43,142 L 44,143 L 44,146 L 46,148 L 46,149 L 47,150 L 47,151 L 48,152 L 48,153 L 50,155 L 50,157 L 52,159 L 52,160 L 54,162 L 54,163 L 56,165 L 56,166 L 62,172 L 62,173 L 65,176 L 66,176 L 72,182 L 73,182 L 74,183 L 75,183 L 76,184 L 77,184 L 78,185 L 78,186 L 80,186 L 82,188 L 84,188 L 86,190 L 87,190 L 88,191 L 89,191 L 90,192 L 92,192 L 93,193 L 95,193 L 96,194 L 101,194 L 102,195 L 105,195 L 106,196 L 113,196 L 114,197 L 116,197 L 117,196 L 118,196 L 119,197 L 127,197 L 128,196 L 134,196 L 135,195 L 137,195 L 138,194 L 141,194 L 142,193 L 143,193 L 144,192 L 146,192 L 148,190 L 151,190 L 153,188 L 155,188 L 157,186 L 159,186 L 159,185 L 160,184 L 161,184 L 162,183 L 163,183 L 166,180 L 167,180 L 167,179 L 168,178 L 169,178 L 169,177 L 170,176 L 171,176 L 171,175 L 172,174 L 173,174 L 173,173 L 174,172 L 175,172 L 175,171 L 178,168 L 178,167 L 181,164 L 181,163 L 183,161 L 183,160 L 184,159 L 184,158 L 185,157 L 185,156 L 187,154 L 187,151 L 189,149 L 189,147 L 190,146 L 190,144 L 191,143 L 191,139 L 192,138 L 192,137 L 193,136 L 193,129 L 194,128 L 194,123 L 195,122 L 195,115 L 194,114 L 194,109 L 193,108 L 193,100 L 192,99 L 192,98 L 191,97 L 191,93 L 190,92 L 190,91 L 189,90 L 189,89 L 188,88 L 188,87 L 187,86 L 187,84 L 185,82 L 185,80 L 183,78 L 183,77 L 182,77 L 181,76 L 181,75 L 179,73 L 179,72 L 177,70 L 177,69 L 176,69 L 175,68 L 175,67 L 174,67 L 173,66 L 173,65 L 172,65 L 171,64 L 171,63 L 169,61 L 168,61 L 167,60 L 167,59 L 166,59 L 165,58 L 165,57 L 164,57 L 162,55 L 160,55 L 159,54 L 159,53 L 158,53 L 157,52 L 156,52 L 155,51 L 154,51 L 152,49 L 150,49 L 148,47 L 146,47 L 144,45 L 141,45 L 140,44 L 139,44 L 138,43 L 134,43 L 133,42 L 130,42 L 129,41 Z" fill="black" /><path d="M 29,26 L 26,29 L 26,36 L 31,41 L 34,41 L 35,40 L 37,40 L 39,38 L 40,38 L 41,37 L 41,30 L 40,29 L 40,28 L 39,27 L 38,27 L 37,26 Z" fill="black" /></svg>