<?xml version='1.0' encoding='utf-8'?>
<svg width="260" height="220" xmlns="http://www.w3.org/2000/svg" viewBox="0 0 260 220"><rect width="260" height="220" fill="white" /><path d="M 208,111 L 207,112 L 206,112 L 205,113 L 204,112 L 203,112 L 202,113 L 198,113 L 196,115 L 192,115 L 188,119 L 187,119 L 185,121 L 184,121 L 184,122 L 183,123 L 182,123 L 182,124 L 171,135 L 170,135 L 169,136 L 168,136 L 167,137 L 166,137 L 165,138 L 164,138 L 163,139 L 162,139 L 161,140 L 160,140 L 159,141 L 154,141 L 153,140 L 152,140 L 151,139 L 149,139 L 147,137 L 146,137 L 143,134 L 143,133 L 142,133 L 140,131 L 139,131 L 138,130 L 138,129 L 136,127 L 135,127 L 131,123 L 129,123 L 128,122 L 126,122 L 125,121 L 120,121 L 119,120 L 114,120 L 113,121 L 109,121 L 108,122 L 106,122 L 105,123 L 103,123 L 101,125 L 100,125 L 99,126 L 98,126 L 97,127 L 96,127 L 90,133 L 88,133 L 88,134 L 82,140 L 82,141 L 80,143 L 80,144 L 79,145 L 79,146 L 78,147 L 78,148 L 76,150 L 76,152 L 74,154 L 74,158 L 73,159 L 73,162 L 72,163 L 72,176 L 73,177 L 73,178 L 74,179 L 74,182 L 75,183 L 75,186 L 76,187 L 76,188 L 77,189 L 77,190 L 80,193 L 80,194 L 82,196 L 82,197 L 84,199 L 84,200 L 85,201 L 85,202 L 86,203 L 86,204 L 87,204 L 88,205 L 88,206 L 89,206 L 91,208 L 92,208 L 94,210 L 96,210 L 97,211 L 99,211 L 100,212 L 105,212 L 106,213 L 116,213 L 117,212 L 123,212 L 124,211 L 125,211 L 126,210 L 128,210 L 130,208 L 131,208 L 133,206 L 134,206 L 136,204 L 137,204 L 137,203 L 138,202 L 139,202 L 145,196 L 145,195 L 149,191 L 149,189 L 154,184 L 155,184 L 156,183 L 157,183 L 158,182 L 163,182 L 164,183 L 165,183 L 166,184 L 169,184 L 170,185 L 171,185 L 172,186 L 175,186 L 176,187 L 177,187 L 178,188 L 181,188 L 182,189 L 183,189 L 184,190 L 188,190 L 189,191 L 193,191 L 194,192 L 207,192 L 208,191 L 209,191 L 210,190 L 213,190 L 214,189 L 215,189 L 222,182 L 223,182 L 223,181 L 228,176 L 228,175 L 229,174 L 229,173 L 231,171 L 231,169 L 233,167 L 233,165 L 234,164 L 234,162 L 235,161 L 235,157 L 236,156 L 236,152 L 237,151 L 237,140 L 235,138 L 235,133 L 234,132 L 234,131 L 233,130 L 233,127 L 232,127 L 231,126 L 231,124 L 229,122 L 229,121 L 228,121 L 227,120 L 227,119 L 226,119 L 224,117 L 223,117 L 221,115 L 220,115 L 219,114 L 218,114 L 217,113 L 216,113 L 215,112 L 213,112 L 212,111 Z" fill="black" /><path d="M 0,0 L 0,219 L 259,219 L 259,0 Z" fill="none" stroke="black" stroke-width="1" /></svg>