<?xml version='1.0' encoding='utf-8'?>
<svg width="262" height="218" xmlns="http://www.w3.org/2000/svg" viewBox="0 0 262 218"><rect width="262" height="218" fill="white" /><path d="M 166,18 L 165,19 L 164,19 L 163,20 L 160,20 L 159,21 L 158,21 L 157,22 L 156,22 L 155,23 L 154,23 L 153,24 L 152,24 L 150,26 L 148,26 L 148,27 L 147,28 L 144,28 L 141,31 L 140,31 L 139,32 L 138,32 L 138,33 L 137,34 L 136,34 L 136,35 L 135,36 L 134,36 L 131,39 L 130,39 L 129,40 L 128,40 L 126,42 L 126,43 L 125,44 L 124,44 L 122,46 L 121,46 L 119,48 L 118,48 L 118,49 L 117,50 L 116,50 L 116,51 L 111,56 L 111,57 L 108,60 L 108,61 L 105,64 L 105,65 L 104,66 L 104,67 L 103,68 L 102,68 L 102,70 L 100,72 L 100,73 L 98,75 L 98,77 L 97,78 L 96,78 L 96,79 L 95,80 L 95,81 L 94,82 L 94,84 L 93,85 L 93,86 L 92,87 L 92,89 L 90,91 L 90,93 L 89,94 L 89,95 L 88,96 L 88,98 L 86,100 L 86,103 L 85,104 L 85,105 L 84,106 L 84,111 L 83,112 L 83,114 L 82,115 L 82,121 L 81,122 L 81,126 L 80,127 L 80,132 L 79,133 L 79,147 L 78,148 L 78,152 L 79,153 L 79,158 L 78,159 L 79,160 L 79,164 L 80,165 L 80,168 L 82,170 L 82,174 L 84,176 L 84,179 L 86,181 L 86,183 L 87,184 L 87,185 L 90,188 L 90,189 L 92,191 L 94,191 L 95,192 L 95,193 L 97,195 L 99,195 L 100,196 L 102,196 L 103,197 L 107,197 L 108,198 L 109,198 L 110,199 L 111,199 L 112,198 L 115,198 L 116,197 L 121,197 L 122,196 L 124,196 L 125,195 L 126,195 L 128,193 L 131,193 L 132,192 L 133,192 L 135,190 L 136,190 L 137,189 L 139,189 L 141,187 L 142,187 L 144,185 L 145,185 L 147,183 L 148,183 L 152,179 L 153,179 L 154,178 L 155,178 L 158,175 L 159,175 L 159,174 L 160,173 L 161,173 L 161,172 L 163,170 L 164,170 L 165,169 L 166,169 L 169,166 L 169,165 L 171,163 L 171,162 L 174,159 L 175,159 L 175,158 L 177,156 L 177,155 L 179,153 L 179,152 L 180,151 L 180,150 L 181,149 L 181,148 L 182,147 L 183,147 L 183,146 L 187,142 L 187,141 L 188,140 L 188,139 L 189,138 L 189,136 L 190,135 L 191,135 L 191,133 L 193,131 L 193,129 L 195,127 L 195,124 L 196,123 L 196,122 L 197,121 L 197,118 L 198,117 L 198,114 L 199,113 L 199,112 L 201,110 L 201,104 L 202,103 L 202,100 L 203,99 L 203,94 L 204,93 L 204,91 L 205,90 L 205,86 L 206,85 L 206,82 L 207,81 L 207,80 L 206,79 L 206,70 L 207,69 L 207,67 L 206,66 L 206,58 L 205,57 L 205,50 L 204,49 L 204,46 L 203,45 L 203,41 L 201,39 L 201,38 L 200,37 L 200,36 L 199,35 L 199,34 L 198,33 L 198,32 L 197,31 L 197,30 L 196,30 L 195,29 L 195,28 L 193,26 L 192,26 L 191,25 L 191,24 L 190,24 L 189,23 L 188,23 L 187,22 L 185,22 L 184,21 L 183,21 L 182,20 L 179,20 L 177,18 Z" fill="black" /><path d="M 0,0 L 0,217 L 261,217 L 261,0 Z" fill="none" stroke="black" stroke-width="1" /></svg>