<?xml version='1.0' encoding='utf-8'?>
<svg width="261" height="217" xmlns="http://www.w3.org/2000/svg" viewBox="0 0 261 217"><rect width="261" height="217" fill="white" /><path d="M 146,27 L 144,29 L 142,29 L 139,32 L 138,32 L 137,33 L 136,33 L 134,35 L 133,35 L 131,37 L 130,37 L 128,39 L 127,39 L 125,41 L 124,41 L 123,42 L 122,42 L 121,43 L 120,43 L 120,44 L 119,45 L 118,45 L 117,46 L 116,46 L 115,47 L 114,47 L 114,48 L 113,49 L 111,49 L 109,51 L 108,51 L 106,53 L 105,53 L 103,55 L 102,55 L 100,57 L 99,57 L 97,59 L 96,59 L 94,61 L 94,62 L 93,63 L 93,72 L 92,73 L 92,108 L 91,109 L 91,113 L 92,114 L 91,115 L 91,122 L 92,123 L 92,126 L 97,126 L 98,127 L 101,127 L 102,128 L 105,128 L 106,129 L 108,129 L 109,130 L 115,130 L 116,131 L 117,131 L 118,132 L 123,132 L 124,133 L 126,133 L 127,134 L 131,134 L 132,135 L 133,135 L 134,136 L 139,136 L 140,137 L 143,137 L 144,138 L 148,138 L 149,139 L 151,139 L 152,140 L 156,140 L 157,141 L 159,141 L 160,142 L 164,142 L 165,143 L 166,143 L 167,144 L 171,144 L 172,145 L 174,145 L 175,146 L 181,146 L 182,147 L 185,147 L 186,148 L 190,148 L 192,150 L 194,150 L 195,149 L 195,147 L 194,146 L 194,139 L 195,138 L 195,117 L 196,116 L 196,109 L 197,108 L 197,91 L 198,90 L 198,83 L 199,82 L 199,73 L 200,72 L 200,70 L 199,69 L 198,69 L 197,68 L 197,67 L 196,67 L 195,66 L 195,65 L 194,65 L 191,62 L 190,62 L 185,57 L 184,57 L 177,50 L 176,50 L 175,49 L 174,49 L 171,46 L 171,45 L 170,45 L 165,40 L 164,40 L 161,37 L 160,37 L 159,36 L 159,35 L 158,35 L 155,32 L 154,32 L 149,27 Z" fill="black" /></svg>