<?xml version='1.0' encoding='utf-8'?>
<svg width="260" height="224" xmlns="http://www.w3.org/2000/svg" viewBox="0 0 260 224"><rect width="260" height="224" fill="white" /><path d="M 47,30 L 45,32 L 48,35 L 48,37 L 50,39 L 50,40 L 51,41 L 51,42 L 52,43 L 52,44 L 54,46 L 54,48 L 56,50 L 56,51 L 57,52 L 57,53 L 58,54 L 58,55 L 60,57 L 60,59 L 61,59 L 62,60 L 62,62 L 64,64 L 64,65 L 65,66 L 65,67 L 66,68 L 66,69 L 68,71 L 68,73 L 70,75 L 70,76 L 72,78 L 72,79 L 73,80 L 73,81 L 74,82 L 74,83 L 75,84 L 75,85 L 76,86 L 76,87 L 78,89 L 78,90 L 80,92 L 80,94 L 83,94 L 83,92 L 84,91 L 84,90 L 85,89 L 85,88 L 87,86 L 87,85 L 89,83 L 89,82 L 90,81 L 90,80 L 91,79 L 91,78 L 93,76 L 93,74 L 94,73 L 95,73 L 95,71 L 97,69 L 97,68 L 98,67 L 98,66 L 99,65 L 99,64 L 101,62 L 101,60 L 103,58 L 103,57 L 105,55 L 105,54 L 106,53 L 106,52 L 107,51 L 107,50 L 109,48 L 109,46 L 110,45 L 111,45 L 111,43 L 113,41 L 113,40 L 114,39 L 114,38 L 115,37 L 115,36 L 117,34 L 117,33 L 118,32 L 117,31 L 93,31 L 92,30 L 91,31 L 80,31 L 79,30 L 76,30 L 75,31 L 74,31 L 73,30 Z" fill="black" /><path d="M 0,0 L 0,223 L 259,223 L 259,0 Z" fill="none" stroke="black" stroke-width="1" /></svg>