<?xml version='1.0' encoding='utf-8'?>
<svg width="259" height="220" xmlns="http://www.w3.org/2000/svg" viewBox="0 0 259 220"><rect width="259" height="220" fill="white" /><path d="M 183,31 L 182,32 L 176,32 L 175,33 L 163,33 L 162,34 L 154,34 L 153,35 L 140,35 L 139,36 L 136,36 L 135,37 L 122,37 L 121,38 L 114,38 L 113,39 L 101,39 L 100,40 L 94,40 L 93,41 L 80,41 L 79,42 L 73,42 L 72,43 L 58,43 L 57,44 L 50,44 L 49,45 L 38,45 L 38,48 L 40,50 L 40,51 L 42,53 L 42,54 L 43,54 L 44,55 L 44,56 L 48,60 L 48,61 L 54,67 L 54,68 L 55,68 L 56,69 L 56,70 L 60,74 L 60,75 L 66,81 L 66,82 L 67,82 L 68,83 L 68,84 L 72,88 L 72,89 L 76,93 L 76,94 L 77,94 L 81,98 L 80,99 L 80,100 L 79,101 L 78,101 L 78,103 L 76,105 L 76,106 L 74,108 L 74,109 L 72,111 L 72,112 L 70,114 L 70,116 L 69,117 L 68,117 L 68,119 L 66,121 L 66,122 L 65,123 L 65,124 L 64,125 L 64,126 L 62,128 L 62,129 L 60,131 L 60,132 L 59,133 L 59,134 L 58,135 L 58,136 L 56,138 L 56,139 L 54,141 L 54,142 L 52,144 L 52,145 L 50,147 L 50,148 L 49,149 L 49,150 L 48,151 L 48,152 L 46,154 L 46,155 L 44,157 L 44,158 L 43,159 L 43,160 L 42,161 L 42,162 L 40,164 L 40,166 L 39,167 L 38,167 L 38,168 L 37,169 L 37,170 L 36,171 L 36,176 L 46,176 L 47,175 L 49,175 L 50,174 L 62,174 L 63,173 L 71,173 L 72,172 L 83,172 L 84,171 L 89,171 L 90,170 L 101,170 L 102,169 L 109,169 L 110,168 L 120,168 L 121,167 L 127,167 L 128,166 L 139,166 L 140,165 L 153,165 L 154,164 L 155,164 L 156,165 L 157,165 L 158,164 L 165,164 L 166,163 L 174,163 L 175,162 L 192,162 L 193,161 L 197,161 L 198,160 L 202,160 L 203,159 L 203,153 L 202,152 L 202,149 L 201,148 L 201,136 L 200,135 L 200,128 L 199,127 L 199,115 L 182,115 L 181,116 L 173,116 L 172,117 L 158,117 L 157,118 L 154,118 L 153,119 L 142,119 L 141,118 L 141,115 L 140,114 L 140,111 L 139,110 L 139,93 L 140,92 L 144,92 L 145,91 L 155,91 L 156,90 L 163,90 L 164,89 L 170,89 L 171,88 L 187,88 L 188,87 L 191,87 L 192,86 L 195,86 L 195,77 L 194,76 L 194,69 L 193,68 L 193,53 L 192,52 L 192,49 L 191,48 L 191,36 L 190,35 L 190,33 L 191,32 L 191,31 Z" fill="black" /><path d="M 0,0 L 0,219 L 258,219 L 258,0 Z" fill="none" stroke="black" stroke-width="1" /></svg>