<?xml version='1.0' encoding='utf-8'?>
<svg width="261" height="224" xmlns="http://www.w3.org/2000/svg" viewBox="0 0 261 224"><rect width="261" height="224" fill="white" /><path d="M 70,20 L 70,22 L 69,23 L 69,25 L 68,26 L 68,27 L 67,28 L 67,33 L 66,34 L 66,35 L 65,36 L 65,39 L 64,40 L 64,41 L 63,42 L 63,46 L 62,47 L 62,48 L 61,49 L 61,51 L 60,52 L 60,53 L 59,54 L 59,57 L 58,58 L 58,59 L 57,60 L 57,63 L 56,64 L 56,65 L 55,66 L 55,70 L 54,71 L 54,72 L 53,73 L 53,76 L 52,77 L 52,79 L 51,80 L 51,83 L 50,84 L 50,85 L 49,86 L 49,89 L 48,90 L 48,91 L 47,92 L 47,95 L 46,96 L 46,97 L 45,98 L 45,101 L 44,102 L 44,103 L 43,104 L 43,109 L 42,110 L 42,111 L 41,112 L 41,115 L 40,116 L 40,117 L 39,118 L 39,121 L 38,122 L 38,123 L 37,124 L 37,127 L 36,128 L 36,129 L 35,130 L 35,133 L 34,134 L 34,136 L 33,137 L 33,140 L 32,141 L 32,142 L 31,143 L 31,147 L 30,148 L 30,149 L 29,150 L 29,153 L 28,154 L 28,155 L 27,156 L 27,159 L 26,160 L 26,161 L 25,162 L 25,166 L 29,166 L 30,165 L 35,165 L 36,164 L 38,164 L 39,163 L 44,163 L 45,162 L 48,162 L 49,161 L 56,161 L 57,160 L 58,160 L 59,159 L 65,159 L 66,158 L 68,158 L 69,157 L 74,157 L 75,156 L 78,156 L 79,155 L 83,155 L 84,154 L 87,154 L 88,153 L 93,153 L 94,152 L 96,152 L 97,151 L 103,151 L 104,150 L 106,150 L 107,149 L 113,149 L 114,148 L 115,148 L 116,147 L 122,147 L 123,146 L 126,146 L 127,145 L 132,145 L 133,144 L 134,144 L 135,143 L 141,143 L 142,142 L 146,142 L 147,141 L 152,141 L 153,140 L 154,140 L 155,139 L 162,139 L 163,138 L 165,138 L 166,137 L 170,137 L 171,136 L 173,136 L 174,135 L 180,135 L 181,134 L 185,134 L 187,132 L 187,130 L 186,129 L 186,128 L 180,122 L 179,122 L 176,119 L 176,118 L 175,118 L 174,117 L 174,116 L 173,116 L 172,115 L 172,114 L 171,114 L 170,113 L 170,112 L 169,112 L 155,98 L 154,98 L 153,97 L 153,96 L 152,96 L 142,86 L 141,86 L 138,83 L 138,82 L 137,82 L 136,81 L 136,80 L 135,80 L 132,77 L 132,76 L 131,76 L 120,65 L 119,65 L 111,57 L 111,56 L 110,56 L 108,54 L 107,54 L 104,51 L 104,50 L 103,50 L 102,49 L 102,48 L 101,48 L 100,47 L 100,46 L 99,46 L 98,45 L 98,44 L 97,44 L 96,43 L 96,42 L 95,42 L 94,41 L 94,40 L 93,40 L 92,39 L 92,38 L 91,38 L 90,37 L 90,36 L 89,36 L 88,35 L 88,34 L 87,34 L 86,33 L 86,32 L 85,32 L 77,24 L 76,24 L 73,21 L 73,20 Z" fill="black" /><path d="M 0,0 L 0,223 L 260,223 L 260,0 Z" fill="none" stroke="black" stroke-width="1" /></svg>