<?xml version='1.0' encoding='utf-8'?>
<svg width="262" height="221" xmlns="http://www.w3.org/2000/svg" viewBox="0 0 262 221"><rect width="262" height="221" fill="white" /><path d="M 94,183 L 93,184 L 86,184 L 86,188 L 85,189 L 85,190 L 86,191 L 86,196 L 85,197 L 85,204 L 86,205 L 85,206 L 85,209 L 86,210 L 86,213 L 99,213 L 100,212 L 101,212 L 102,213 L 175,213 L 176,212 L 179,212 L 179,193 L 178,192 L 178,187 L 180,185 L 179,184 L 138,184 L 137,183 L 136,184 L 134,184 L 133,183 L 129,183 L 128,184 L 98,184 L 97,183 Z" fill="black" /><path d="M 128,92 L 127,93 L 127,95 L 126,96 L 126,97 L 122,101 L 122,102 L 120,104 L 120,106 L 119,107 L 118,107 L 118,109 L 116,111 L 116,112 L 114,114 L 114,115 L 110,119 L 110,120 L 108,122 L 108,123 L 107,124 L 106,124 L 106,125 L 104,127 L 104,128 L 102,130 L 102,131 L 101,132 L 101,133 L 100,134 L 100,135 L 98,137 L 98,139 L 97,140 L 96,140 L 96,141 L 95,142 L 95,143 L 94,144 L 94,145 L 92,147 L 92,149 L 91,150 L 90,150 L 90,152 L 88,154 L 88,155 L 87,156 L 87,157 L 86,158 L 86,159 L 85,160 L 84,160 L 84,163 L 85,163 L 86,164 L 91,164 L 92,163 L 93,163 L 94,164 L 124,164 L 125,165 L 127,165 L 128,164 L 129,165 L 139,165 L 140,164 L 141,164 L 142,165 L 145,165 L 146,164 L 154,164 L 155,165 L 157,165 L 158,164 L 168,164 L 169,165 L 170,165 L 171,164 L 171,161 L 169,159 L 169,158 L 168,157 L 168,156 L 167,155 L 167,154 L 165,152 L 165,150 L 164,149 L 164,148 L 161,145 L 161,143 L 159,141 L 159,139 L 157,137 L 157,136 L 156,135 L 156,134 L 155,133 L 155,131 L 153,129 L 153,128 L 151,126 L 151,124 L 149,122 L 149,121 L 147,119 L 147,117 L 145,115 L 145,114 L 144,113 L 144,112 L 143,111 L 143,109 L 141,107 L 141,106 L 140,105 L 140,104 L 139,103 L 139,102 L 138,102 L 137,101 L 137,99 L 135,97 L 135,96 L 131,92 Z" fill="black" /><path d="M 190,36 L 189,37 L 188,37 L 187,38 L 186,38 L 182,42 L 181,42 L 179,44 L 179,45 L 176,48 L 176,49 L 174,51 L 174,55 L 173,56 L 173,69 L 174,70 L 174,71 L 175,72 L 175,73 L 176,74 L 176,75 L 178,77 L 178,78 L 181,81 L 182,81 L 186,85 L 189,85 L 191,87 L 194,87 L 195,88 L 196,88 L 197,87 L 206,87 L 208,85 L 211,85 L 211,84 L 212,83 L 213,83 L 216,80 L 217,80 L 219,78 L 219,77 L 221,75 L 221,72 L 223,70 L 223,66 L 224,65 L 224,64 L 225,63 L 225,58 L 224,57 L 224,56 L 223,55 L 223,52 L 222,51 L 222,50 L 221,49 L 221,48 L 220,48 L 219,47 L 219,46 L 213,40 L 212,40 L 211,39 L 210,39 L 209,38 L 206,38 L 205,37 L 205,36 Z" fill="black" /><path d="M 67,33 L 66,34 L 62,34 L 60,36 L 59,36 L 57,38 L 55,38 L 53,40 L 52,40 L 52,41 L 48,45 L 48,46 L 47,47 L 47,49 L 46,50 L 46,51 L 45,52 L 45,56 L 44,57 L 44,62 L 45,63 L 45,67 L 46,68 L 46,69 L 47,70 L 47,71 L 50,74 L 50,75 L 51,75 L 52,76 L 52,78 L 53,78 L 54,79 L 55,79 L 57,81 L 58,81 L 59,82 L 61,82 L 62,83 L 63,83 L 64,84 L 69,84 L 70,85 L 75,85 L 75,84 L 76,83 L 81,83 L 82,82 L 83,82 L 84,81 L 85,81 L 85,80 L 86,79 L 87,79 L 87,78 L 88,77 L 89,77 L 89,76 L 92,73 L 92,72 L 93,71 L 93,70 L 94,69 L 94,67 L 95,66 L 95,63 L 96,62 L 96,54 L 95,53 L 95,51 L 94,50 L 94,49 L 93,48 L 93,46 L 89,42 L 89,41 L 88,40 L 87,40 L 85,38 L 84,38 L 83,37 L 83,36 L 80,36 L 79,35 L 78,35 L 77,34 L 76,34 L 75,33 L 73,33 L 72,34 L 70,34 L 69,33 Z" fill="black" /></svg>