<?xml version='1.0' encoding='utf-8'?>
<svg width="259" height="218" xmlns="http://www.w3.org/2000/svg" viewBox="0 0 259 218"><rect width="259" height="218" fill="white" /><path d="M 45,158 L 44,159 L 44,194 L 43,195 L 43,197 L 68,197 L 69,196 L 76,196 L 77,197 L 79,197 L 79,178 L 78,177 L 78,174 L 79,173 L 79,158 L 59,158 L 58,159 L 57,159 L 56,158 L 50,158 L 49,159 L 47,159 L 46,158 Z" fill="black" /><path d="M 201,146 L 200,147 L 197,147 L 196,148 L 192,148 L 190,150 L 188,150 L 182,156 L 182,157 L 181,158 L 180,158 L 178,160 L 178,161 L 177,162 L 177,165 L 176,166 L 176,167 L 175,168 L 175,174 L 176,175 L 176,181 L 177,181 L 178,182 L 178,185 L 179,186 L 179,187 L 180,188 L 180,189 L 181,189 L 182,190 L 182,191 L 183,191 L 184,192 L 184,193 L 185,193 L 188,196 L 189,196 L 190,197 L 192,197 L 193,198 L 195,198 L 196,199 L 208,199 L 209,198 L 211,198 L 212,197 L 213,197 L 214,196 L 215,196 L 216,195 L 217,195 L 217,194 L 218,193 L 219,193 L 219,192 L 220,191 L 221,191 L 221,190 L 223,188 L 223,187 L 225,185 L 225,183 L 226,182 L 226,180 L 227,179 L 227,166 L 225,164 L 225,162 L 224,161 L 224,160 L 223,159 L 223,158 L 222,158 L 221,157 L 221,155 L 220,154 L 219,154 L 217,152 L 216,152 L 214,150 L 213,150 L 211,148 L 208,148 L 207,147 L 202,147 Z" fill="black" /><path d="M 65,85 L 64,86 L 64,89 L 63,90 L 61,90 L 60,91 L 60,92 L 58,94 L 58,95 L 55,98 L 55,99 L 52,102 L 52,103 L 51,104 L 51,105 L 48,108 L 48,109 L 46,111 L 46,112 L 44,114 L 44,115 L 43,116 L 43,117 L 42,118 L 42,119 L 41,120 L 41,121 L 40,122 L 40,123 L 38,125 L 38,128 L 39,129 L 41,129 L 42,128 L 44,128 L 45,129 L 47,129 L 48,128 L 81,128 L 82,129 L 84,129 L 85,128 L 86,128 L 87,127 L 89,127 L 89,125 L 87,123 L 87,122 L 86,121 L 86,120 L 85,119 L 85,118 L 83,116 L 83,114 L 81,112 L 81,110 L 80,110 L 79,109 L 79,107 L 77,105 L 77,104 L 76,103 L 76,102 L 75,101 L 75,100 L 74,99 L 74,98 L 72,96 L 72,94 L 71,93 L 71,92 L 70,91 L 70,90 L 69,89 L 69,88 L 67,86 L 66,86 Z" fill="black" /><path d="M 200,82 L 200,83 L 199,84 L 199,85 L 198,86 L 198,87 L 195,90 L 195,91 L 194,92 L 194,93 L 192,95 L 192,96 L 190,98 L 190,99 L 189,100 L 188,100 L 188,101 L 186,103 L 186,105 L 185,106 L 184,106 L 184,107 L 182,109 L 182,110 L 180,112 L 180,113 L 178,115 L 178,116 L 176,118 L 176,119 L 175,120 L 175,121 L 174,122 L 174,123 L 173,124 L 172,124 L 171,125 L 171,126 L 172,127 L 173,127 L 174,128 L 176,128 L 177,127 L 181,127 L 182,128 L 185,128 L 186,127 L 196,127 L 197,128 L 198,127 L 211,127 L 212,128 L 213,128 L 214,127 L 219,127 L 220,128 L 221,127 L 225,127 L 226,126 L 226,125 L 225,124 L 224,124 L 223,123 L 223,121 L 221,119 L 221,118 L 219,116 L 219,114 L 217,112 L 217,110 L 216,110 L 215,109 L 215,107 L 213,105 L 213,104 L 212,103 L 212,102 L 211,101 L 211,100 L 209,98 L 209,96 L 207,94 L 207,93 L 205,91 L 205,89 L 203,87 L 203,86 L 202,85 L 202,84 L 201,83 L 201,82 Z" fill="black" /><path d="M 181,20 L 180,21 L 177,21 L 176,22 L 176,56 L 188,56 L 189,55 L 193,55 L 194,56 L 206,56 L 207,55 L 211,55 L 212,56 L 214,56 L 214,44 L 213,43 L 213,20 L 210,20 L 209,21 L 208,20 L 205,20 L 204,21 L 199,21 L 198,20 L 197,20 L 196,21 L 190,21 L 189,20 L 188,20 L 187,21 L 184,21 L 183,20 Z" fill="black" /><path d="M 64,12 L 63,13 L 61,13 L 60,14 L 56,14 L 56,15 L 55,16 L 53,16 L 51,18 L 50,18 L 50,19 L 49,20 L 47,20 L 46,21 L 46,22 L 44,24 L 44,25 L 42,27 L 42,30 L 40,32 L 40,41 L 41,42 L 41,44 L 42,45 L 42,47 L 43,48 L 43,49 L 44,50 L 44,51 L 46,53 L 46,54 L 47,55 L 48,55 L 49,56 L 49,57 L 50,57 L 52,59 L 53,59 L 55,61 L 59,61 L 61,63 L 75,63 L 77,61 L 79,61 L 80,60 L 81,60 L 82,59 L 83,59 L 83,58 L 84,57 L 85,57 L 87,55 L 87,54 L 89,52 L 89,50 L 91,48 L 91,43 L 92,42 L 92,38 L 91,37 L 91,30 L 90,29 L 90,28 L 89,27 L 89,26 L 88,25 L 88,24 L 87,23 L 87,22 L 86,22 L 85,21 L 85,20 L 84,20 L 83,19 L 83,18 L 81,16 L 78,16 L 77,15 L 77,14 L 73,14 L 72,13 L 70,13 L 69,12 Z" fill="black" /></svg>