<?xml version='1.0' encoding='utf-8'?>
<svg width="260" height="221" xmlns="http://www.w3.org/2000/svg" viewBox="0 0 260 221"><rect width="260" height="221" fill="white" /><path d="M 172,133 L 172,138 L 173,139 L 172,140 L 172,185 L 174,185 L 175,184 L 225,184 L 226,183 L 226,161 L 225,160 L 225,150 L 226,149 L 226,141 L 225,140 L 225,134 L 216,134 L 215,135 L 214,135 L 213,134 L 186,134 L 185,135 L 182,135 L 181,134 L 176,134 L 175,133 Z" fill="black" /><path d="M 49,39 L 48,40 L 43,40 L 42,41 L 39,41 L 38,42 L 38,44 L 37,45 L 37,56 L 38,57 L 38,58 L 37,59 L 37,68 L 38,69 L 38,72 L 37,73 L 37,74 L 38,75 L 38,78 L 37,79 L 37,80 L 38,81 L 38,84 L 37,85 L 37,87 L 38,88 L 38,96 L 43,101 L 43,102 L 45,102 L 46,103 L 46,104 L 48,106 L 49,106 L 50,107 L 50,108 L 53,111 L 53,112 L 54,112 L 56,114 L 56,115 L 57,116 L 58,116 L 63,121 L 63,122 L 64,123 L 65,123 L 67,125 L 67,126 L 68,126 L 70,128 L 71,128 L 74,131 L 74,132 L 78,136 L 79,136 L 80,137 L 80,138 L 82,140 L 83,140 L 84,141 L 84,142 L 86,144 L 88,144 L 101,131 L 101,130 L 105,126 L 105,125 L 108,122 L 109,122 L 109,121 L 110,120 L 111,120 L 111,119 L 112,118 L 113,118 L 113,117 L 114,116 L 115,116 L 115,115 L 116,114 L 117,114 L 117,113 L 118,112 L 119,112 L 119,111 L 120,110 L 121,110 L 121,109 L 122,108 L 123,108 L 123,107 L 126,104 L 127,104 L 127,103 L 128,102 L 129,102 L 129,101 L 133,97 L 133,96 L 135,94 L 135,69 L 134,68 L 134,63 L 135,62 L 135,60 L 134,59 L 134,49 L 133,48 L 133,45 L 134,44 L 134,42 L 133,41 L 130,41 L 129,40 L 123,40 L 122,39 L 120,39 L 119,40 L 108,40 L 107,39 L 106,40 L 93,40 L 92,39 L 91,39 L 90,40 L 82,40 L 81,39 L 80,39 L 79,40 L 69,40 L 68,39 L 67,40 L 63,40 L 62,41 L 61,40 L 51,40 L 50,39 Z" fill="black" /><path d="M 178,38 L 177,39 L 173,39 L 173,42 L 172,43 L 172,48 L 171,49 L 172,50 L 172,94 L 188,94 L 189,93 L 190,93 L 191,94 L 195,94 L 196,93 L 217,93 L 218,92 L 225,92 L 226,91 L 226,90 L 225,89 L 225,39 L 218,39 L 217,38 L 214,38 L 213,39 L 209,39 L 208,38 L 205,38 L 204,39 L 203,39 L 202,38 L 191,38 L 190,39 L 188,39 L 187,38 L 186,39 L 182,39 L 181,38 Z" fill="black" /></svg>