<?xml version='1.0' encoding='utf-8'?>
<svg width="262" height="218" xmlns="http://www.w3.org/2000/svg" viewBox="0 0 262 218"><rect width="262" height="218" fill="white" /><path d="M 128,40 L 127,41 L 126,41 L 125,42 L 124,42 L 124,43 L 123,44 L 122,44 L 122,45 L 121,46 L 120,46 L 120,47 L 108,59 L 108,60 L 106,62 L 105,62 L 105,63 L 104,64 L 104,65 L 103,66 L 102,66 L 96,72 L 96,73 L 95,74 L 94,74 L 92,76 L 91,76 L 91,77 L 90,78 L 90,79 L 89,80 L 88,80 L 85,83 L 85,87 L 88,87 L 97,78 L 97,77 L 103,71 L 103,70 L 104,69 L 105,69 L 109,65 L 109,64 L 110,63 L 111,63 L 111,62 L 112,61 L 113,61 L 113,60 L 114,59 L 115,59 L 115,58 L 116,57 L 117,57 L 117,56 L 118,55 L 119,55 L 119,54 L 120,53 L 121,53 L 121,52 L 125,48 L 126,48 L 127,49 L 127,50 L 128,51 L 127,52 L 127,55 L 128,56 L 128,75 L 127,76 L 127,77 L 128,78 L 128,81 L 127,82 L 127,88 L 126,89 L 126,97 L 123,100 L 122,100 L 120,102 L 120,103 L 119,104 L 118,104 L 116,106 L 116,107 L 115,108 L 114,108 L 106,116 L 106,117 L 105,118 L 104,118 L 102,120 L 102,121 L 100,123 L 100,124 L 98,126 L 97,126 L 95,128 L 94,128 L 94,129 L 93,130 L 92,130 L 90,132 L 90,133 L 89,134 L 88,134 L 88,135 L 86,137 L 86,139 L 88,141 L 90,141 L 90,140 L 93,137 L 93,136 L 94,135 L 95,135 L 95,134 L 96,133 L 97,133 L 97,132 L 98,131 L 99,131 L 99,130 L 100,129 L 101,129 L 101,128 L 108,121 L 109,121 L 109,120 L 125,104 L 127,106 L 127,115 L 126,116 L 126,145 L 125,146 L 125,155 L 124,156 L 124,160 L 125,161 L 124,162 L 124,184 L 125,185 L 123,187 L 120,187 L 119,186 L 118,186 L 117,187 L 116,187 L 115,186 L 112,186 L 111,187 L 104,187 L 103,186 L 102,186 L 101,187 L 99,187 L 98,186 L 96,186 L 95,187 L 84,187 L 84,188 L 83,189 L 83,190 L 84,191 L 109,191 L 110,192 L 111,191 L 141,191 L 142,192 L 149,192 L 150,191 L 152,191 L 153,192 L 169,192 L 170,193 L 176,193 L 177,192 L 178,192 L 178,189 L 177,188 L 172,188 L 171,187 L 166,187 L 165,186 L 164,186 L 163,187 L 160,187 L 159,186 L 154,186 L 153,187 L 140,187 L 139,186 L 133,186 L 132,187 L 131,187 L 129,185 L 129,142 L 130,141 L 130,132 L 129,131 L 131,129 L 131,126 L 130,125 L 131,124 L 131,106 L 130,105 L 130,104 L 132,102 L 133,102 L 135,104 L 135,105 L 136,106 L 136,107 L 137,107 L 144,114 L 144,115 L 152,123 L 153,123 L 154,124 L 154,126 L 155,127 L 156,127 L 161,132 L 161,133 L 166,138 L 166,139 L 168,141 L 170,141 L 171,140 L 171,137 L 169,135 L 169,134 L 168,133 L 168,132 L 162,126 L 162,125 L 161,124 L 161,123 L 160,123 L 157,120 L 156,120 L 155,119 L 155,118 L 153,116 L 152,116 L 151,115 L 151,114 L 142,105 L 142,104 L 139,101 L 139,100 L 138,100 L 137,99 L 137,98 L 136,98 L 133,95 L 133,94 L 132,93 L 132,90 L 131,89 L 131,86 L 132,85 L 132,63 L 133,62 L 133,55 L 132,54 L 132,53 L 134,51 L 135,51 L 138,54 L 138,55 L 141,58 L 141,59 L 142,59 L 144,61 L 144,62 L 145,63 L 146,63 L 150,67 L 150,68 L 152,70 L 152,71 L 153,71 L 154,72 L 154,73 L 155,73 L 157,75 L 157,76 L 158,77 L 159,77 L 160,78 L 160,79 L 162,81 L 163,81 L 164,82 L 164,83 L 166,85 L 166,87 L 169,87 L 169,81 L 167,79 L 167,78 L 166,78 L 165,77 L 165,76 L 164,76 L 163,75 L 163,74 L 162,74 L 161,73 L 161,72 L 160,72 L 159,71 L 159,70 L 153,64 L 153,63 L 152,62 L 151,62 L 149,60 L 149,59 L 145,55 L 145,54 L 144,54 L 143,53 L 143,52 L 142,52 L 139,49 L 139,48 L 138,48 L 137,47 L 137,46 L 131,40 Z" fill="black" /><path d="M 0,0 L 0,217 L 261,217 L 261,0 Z" fill="none" stroke="black" stroke-width="1" /></svg>