<?xml version='1.0' encoding='utf-8'?>
<svg width="262" height="221" xmlns="http://www.w3.org/2000/svg" viewBox="0 0 262 221"><rect width="262" height="221" fill="white" /><path d="M 216,150 L 211,155 L 210,155 L 210,156 L 206,160 L 206,161 L 201,166 L 200,166 L 200,167 L 192,175 L 191,175 L 191,176 L 188,179 L 188,180 L 187,181 L 186,181 L 186,182 L 185,183 L 184,183 L 184,184 L 181,187 L 180,187 L 180,188 L 179,189 L 178,189 L 178,190 L 177,191 L 176,191 L 176,192 L 175,193 L 174,193 L 174,194 L 173,195 L 172,195 L 172,196 L 167,201 L 166,201 L 166,202 L 165,203 L 164,203 L 163,204 L 162,204 L 162,207 L 169,207 L 170,208 L 171,208 L 172,207 L 173,207 L 174,208 L 176,208 L 177,207 L 179,207 L 180,208 L 217,208 L 219,206 L 219,193 L 218,192 L 218,191 L 219,190 L 219,185 L 218,184 L 218,183 L 219,182 L 219,179 L 218,178 L 218,153 L 217,152 L 217,151 Z" fill="black" /><path d="M 28,147 L 28,202 L 29,203 L 30,203 L 31,204 L 37,204 L 38,203 L 39,204 L 83,204 L 84,203 L 83,202 L 83,201 L 81,199 L 81,198 L 77,194 L 77,193 L 76,193 L 75,192 L 75,191 L 74,191 L 73,190 L 73,189 L 72,189 L 71,188 L 71,187 L 70,187 L 69,186 L 69,185 L 68,185 L 67,184 L 67,183 L 66,183 L 63,180 L 63,179 L 62,179 L 61,178 L 61,177 L 60,177 L 59,176 L 59,175 L 58,175 L 57,174 L 57,173 L 56,173 L 55,172 L 55,171 L 54,171 L 51,168 L 51,167 L 41,157 L 40,157 L 39,156 L 39,155 L 36,152 L 36,151 L 35,151 L 33,149 L 32,149 L 30,147 Z" fill="black" /><path d="M 116,87 L 115,88 L 113,88 L 112,89 L 110,89 L 108,91 L 107,91 L 105,93 L 104,93 L 100,97 L 99,97 L 96,100 L 96,101 L 94,103 L 94,104 L 92,106 L 92,112 L 91,113 L 91,115 L 90,116 L 90,122 L 91,123 L 91,126 L 92,127 L 92,130 L 94,132 L 94,134 L 95,135 L 95,136 L 96,137 L 96,138 L 97,138 L 98,139 L 98,140 L 99,140 L 100,141 L 100,142 L 102,144 L 103,144 L 104,145 L 104,146 L 106,146 L 108,148 L 109,148 L 111,150 L 117,150 L 119,152 L 127,152 L 128,151 L 129,151 L 130,150 L 134,150 L 136,148 L 139,148 L 139,147 L 140,146 L 141,146 L 142,145 L 143,145 L 146,142 L 147,142 L 147,141 L 148,140 L 149,140 L 149,139 L 151,137 L 151,135 L 153,133 L 153,131 L 154,130 L 154,129 L 155,128 L 155,122 L 156,121 L 156,115 L 155,114 L 155,110 L 154,109 L 154,108 L 153,107 L 153,105 L 152,104 L 152,103 L 151,102 L 151,101 L 149,99 L 149,98 L 147,96 L 146,96 L 143,93 L 142,93 L 141,92 L 140,92 L 139,91 L 138,91 L 137,90 L 136,90 L 135,89 L 133,89 L 131,87 L 126,87 L 125,88 L 124,87 Z" fill="black" /><path d="M 156,39 L 156,42 L 158,44 L 159,44 L 162,47 L 162,48 L 163,48 L 164,49 L 164,50 L 165,50 L 166,51 L 166,52 L 167,52 L 185,70 L 186,70 L 189,73 L 189,74 L 190,74 L 192,76 L 193,76 L 196,79 L 196,80 L 197,80 L 198,81 L 198,82 L 199,82 L 204,87 L 204,88 L 205,88 L 208,91 L 209,91 L 212,94 L 213,94 L 214,95 L 214,96 L 217,99 L 218,98 L 219,98 L 219,41 L 214,41 L 213,40 L 209,40 L 208,41 L 192,41 L 191,40 L 189,40 L 188,41 L 184,41 L 183,40 L 180,40 L 179,41 L 178,40 L 171,40 L 170,39 Z" fill="black" /><path d="M 31,38 L 30,39 L 30,40 L 29,41 L 29,80 L 28,81 L 29,82 L 29,89 L 28,90 L 28,93 L 29,94 L 29,96 L 31,96 L 35,92 L 35,91 L 38,88 L 38,87 L 41,84 L 42,84 L 54,72 L 55,72 L 55,71 L 60,66 L 61,66 L 61,65 L 62,64 L 63,64 L 67,60 L 67,59 L 68,58 L 69,58 L 69,57 L 72,54 L 73,54 L 73,53 L 74,52 L 75,52 L 75,51 L 78,48 L 79,48 L 85,42 L 86,42 L 87,41 L 86,40 L 86,39 L 36,39 L 35,38 Z" fill="black" /></svg>