<?xml version='1.0' encoding='utf-8'?>
<svg width="262" height="218" xmlns="http://www.w3.org/2000/svg" viewBox="0 0 262 218"><rect width="262" height="218" fill="white" /><path d="M 172,143 L 171,144 L 162,144 L 162,147 L 161,148 L 161,163 L 160,164 L 160,166 L 161,167 L 161,173 L 160,174 L 160,203 L 165,203 L 166,204 L 167,204 L 168,203 L 173,203 L 174,204 L 175,204 L 176,203 L 177,203 L 178,204 L 187,204 L 188,203 L 189,204 L 191,204 L 192,203 L 193,203 L 194,204 L 198,204 L 199,203 L 203,203 L 204,204 L 220,204 L 221,203 L 224,203 L 224,194 L 223,193 L 223,192 L 224,191 L 224,190 L 223,189 L 223,184 L 224,183 L 224,179 L 223,178 L 223,166 L 224,165 L 224,159 L 223,158 L 223,144 L 221,144 L 220,143 L 216,143 L 215,144 L 197,144 L 196,145 L 195,145 L 194,144 L 190,144 L 189,143 L 180,143 L 179,144 L 178,144 L 177,143 Z" fill="black" /><path d="M 32,143 L 31,144 L 24,144 L 24,148 L 23,149 L 23,152 L 22,153 L 22,156 L 23,157 L 23,167 L 22,168 L 22,181 L 24,183 L 23,184 L 23,187 L 22,188 L 22,199 L 23,200 L 23,204 L 49,204 L 50,203 L 55,203 L 56,204 L 57,204 L 58,203 L 59,203 L 60,204 L 77,204 L 78,203 L 83,203 L 84,202 L 84,201 L 85,200 L 84,199 L 84,173 L 83,172 L 83,144 L 67,144 L 66,143 L 65,143 L 64,144 L 50,144 L 49,143 Z" fill="black" /><path d="M 64,28 L 64,54 L 65,55 L 65,61 L 64,62 L 64,85 L 65,85 L 67,87 L 68,87 L 70,89 L 71,89 L 74,92 L 75,92 L 76,93 L 77,93 L 78,94 L 78,95 L 79,95 L 81,97 L 82,97 L 84,99 L 85,99 L 87,101 L 88,101 L 92,105 L 94,105 L 95,106 L 95,107 L 96,107 L 98,109 L 99,109 L 100,110 L 100,111 L 102,111 L 104,113 L 105,113 L 106,114 L 106,115 L 108,117 L 109,117 L 110,118 L 111,118 L 112,119 L 113,119 L 114,120 L 115,120 L 118,123 L 119,123 L 123,127 L 125,127 L 127,129 L 130,129 L 132,127 L 133,127 L 135,125 L 136,125 L 140,121 L 141,121 L 145,117 L 146,117 L 150,113 L 151,113 L 155,109 L 156,109 L 158,107 L 159,107 L 159,106 L 160,105 L 161,105 L 161,104 L 162,103 L 163,103 L 163,102 L 164,101 L 165,101 L 165,100 L 166,99 L 167,99 L 168,98 L 169,98 L 172,95 L 173,95 L 173,94 L 176,91 L 177,91 L 181,87 L 182,87 L 184,85 L 185,85 L 187,83 L 187,34 L 186,33 L 186,32 L 187,31 L 187,29 L 185,29 L 184,28 L 182,28 L 181,29 L 172,29 L 171,28 L 170,28 L 169,29 L 162,29 L 161,28 L 154,28 L 153,29 L 142,29 L 141,28 L 140,28 L 139,29 L 138,29 L 137,28 L 102,28 L 101,29 L 100,28 L 95,28 L 94,29 L 93,29 L 92,28 Z" fill="black" /></svg>