<?xml version='1.0' encoding='utf-8'?>
<svg width="258" height="218" xmlns="http://www.w3.org/2000/svg" viewBox="0 0 258 218"><rect width="258" height="218" fill="white" /><path d="M 119,41 L 118,42 L 105,42 L 104,43 L 94,43 L 93,44 L 93,45 L 92,46 L 92,47 L 91,48 L 90,48 L 90,51 L 89,52 L 88,52 L 88,53 L 87,54 L 87,55 L 86,56 L 86,57 L 84,59 L 84,61 L 83,62 L 82,62 L 82,64 L 80,66 L 80,67 L 77,70 L 77,72 L 76,73 L 76,74 L 74,76 L 74,78 L 72,80 L 72,81 L 71,82 L 70,82 L 70,84 L 68,86 L 68,87 L 66,89 L 66,91 L 65,92 L 65,93 L 64,94 L 64,95 L 62,97 L 62,98 L 60,100 L 60,102 L 58,104 L 58,105 L 57,106 L 57,107 L 56,108 L 56,109 L 55,110 L 54,110 L 54,112 L 52,114 L 52,116 L 50,118 L 50,119 L 49,120 L 49,121 L 48,122 L 48,123 L 46,125 L 46,127 L 45,128 L 44,128 L 44,129 L 43,130 L 43,131 L 42,132 L 42,133 L 40,135 L 40,137 L 39,138 L 38,138 L 38,141 L 37,142 L 36,142 L 36,143 L 35,144 L 35,145 L 34,146 L 34,147 L 32,149 L 32,151 L 31,152 L 30,152 L 30,154 L 28,156 L 28,157 L 27,158 L 27,159 L 26,160 L 26,161 L 24,163 L 24,164 L 22,166 L 22,168 L 20,170 L 20,171 L 19,172 L 19,173 L 18,174 L 18,175 L 17,176 L 16,176 L 16,178 L 14,180 L 14,181 L 13,182 L 14,183 L 47,183 L 48,184 L 49,184 L 50,183 L 53,183 L 54,184 L 57,184 L 58,183 L 65,183 L 66,184 L 67,184 L 68,183 L 70,183 L 71,182 L 71,181 L 73,179 L 73,177 L 75,175 L 75,174 L 76,173 L 76,172 L 77,171 L 77,170 L 79,168 L 79,167 L 81,165 L 81,163 L 83,161 L 83,160 L 86,157 L 86,156 L 87,155 L 87,154 L 88,153 L 88,152 L 89,151 L 89,150 L 90,149 L 91,149 L 91,147 L 93,145 L 93,144 L 95,142 L 95,140 L 97,138 L 97,136 L 98,135 L 99,135 L 99,134 L 100,133 L 100,132 L 101,131 L 101,130 L 103,128 L 103,127 L 104,126 L 104,125 L 105,124 L 105,123 L 107,121 L 107,120 L 109,118 L 109,117 L 110,116 L 110,114 L 111,113 L 111,111 L 114,108 L 114,107 L 116,105 L 116,104 L 117,103 L 117,102 L 119,100 L 119,99 L 121,97 L 121,95 L 123,93 L 123,92 L 126,89 L 126,88 L 127,87 L 127,86 L 128,85 L 128,84 L 129,83 L 129,82 L 130,81 L 130,80 L 131,79 L 131,78 L 133,76 L 133,75 L 135,73 L 135,72 L 136,71 L 136,70 L 137,69 L 137,68 L 139,66 L 139,65 L 141,63 L 141,62 L 143,60 L 143,58 L 145,56 L 145,55 L 147,53 L 147,52 L 149,50 L 149,42 L 142,42 L 141,41 L 139,41 L 138,42 L 134,42 L 133,41 L 132,42 L 128,42 L 127,41 L 125,41 L 124,42 L 120,42 Z" fill="black" /><path d="M 0,0 L 0,217 L 257,217 L 257,0 Z" fill="none" stroke="black" stroke-width="1" /></svg>