<?xml version='1.0' encoding='utf-8'?>
<svg width="264" height="220" xmlns="http://www.w3.org/2000/svg" viewBox="0 0 264 220"><rect width="264" height="220" fill="white" /><path d="M 123,27 L 120,30 L 120,31 L 118,33 L 118,34 L 114,38 L 114,39 L 112,41 L 112,42 L 110,44 L 110,45 L 109,46 L 108,46 L 108,47 L 105,50 L 105,51 L 102,54 L 102,55 L 99,58 L 99,59 L 96,62 L 96,63 L 93,66 L 93,67 L 90,70 L 90,71 L 89,72 L 88,72 L 88,73 L 86,75 L 86,76 L 84,78 L 84,79 L 83,80 L 82,80 L 82,81 L 80,83 L 80,84 L 78,86 L 78,87 L 77,88 L 76,88 L 76,89 L 74,91 L 74,92 L 72,94 L 72,95 L 71,96 L 70,96 L 70,97 L 68,99 L 68,100 L 66,102 L 66,103 L 65,104 L 64,104 L 64,105 L 62,107 L 62,108 L 60,110 L 60,111 L 59,112 L 58,112 L 56,114 L 56,118 L 58,120 L 58,121 L 60,123 L 60,125 L 64,129 L 64,130 L 68,134 L 68,135 L 70,137 L 70,138 L 72,140 L 72,141 L 73,141 L 74,142 L 74,143 L 76,145 L 76,146 L 78,148 L 78,149 L 79,149 L 80,150 L 80,151 L 82,153 L 82,154 L 84,156 L 84,157 L 85,157 L 86,158 L 86,159 L 88,161 L 88,162 L 91,165 L 91,166 L 92,167 L 92,168 L 94,170 L 94,171 L 96,173 L 97,173 L 98,174 L 98,175 L 101,178 L 101,179 L 104,182 L 104,183 L 105,184 L 105,185 L 108,188 L 108,189 L 111,192 L 111,193 L 114,196 L 114,197 L 115,197 L 116,198 L 116,200 L 118,202 L 118,203 L 119,203 L 120,204 L 120,205 L 122,207 L 125,207 L 126,206 L 126,204 L 127,203 L 127,202 L 128,201 L 129,201 L 129,200 L 131,198 L 131,197 L 133,195 L 133,194 L 134,193 L 135,193 L 135,192 L 138,189 L 138,188 L 139,187 L 139,186 L 140,185 L 141,185 L 141,184 L 142,183 L 142,182 L 143,181 L 143,180 L 144,179 L 145,179 L 145,178 L 148,175 L 148,174 L 149,173 L 149,172 L 150,171 L 151,171 L 151,170 L 153,168 L 153,167 L 157,163 L 157,162 L 159,160 L 159,159 L 163,155 L 163,154 L 166,151 L 166,150 L 169,147 L 169,146 L 170,145 L 171,145 L 171,144 L 172,143 L 172,142 L 175,139 L 175,138 L 176,137 L 177,137 L 177,136 L 179,134 L 179,133 L 181,131 L 181,130 L 182,129 L 183,129 L 183,128 L 186,125 L 186,124 L 190,120 L 190,117 L 189,116 L 188,116 L 187,115 L 187,114 L 186,113 L 186,112 L 185,111 L 185,110 L 183,108 L 183,107 L 181,105 L 181,104 L 177,100 L 177,99 L 176,98 L 176,97 L 173,94 L 173,92 L 169,88 L 169,87 L 167,85 L 167,84 L 165,82 L 165,81 L 163,79 L 163,78 L 159,74 L 159,72 L 157,70 L 157,69 L 156,69 L 155,68 L 155,67 L 153,65 L 153,64 L 152,64 L 151,63 L 151,62 L 150,61 L 150,60 L 147,57 L 147,56 L 145,54 L 145,53 L 143,51 L 143,50 L 140,47 L 140,46 L 137,43 L 137,42 L 135,40 L 135,39 L 133,37 L 133,36 L 132,36 L 131,35 L 131,34 L 130,34 L 129,33 L 129,32 L 128,31 L 128,30 L 127,29 L 126,29 L 124,27 Z" fill="black" /></svg>