<?xml version='1.0' encoding='utf-8'?>
<svg width="258" height="220" xmlns="http://www.w3.org/2000/svg" viewBox="0 0 258 220"><rect width="258" height="220" fill="white" /><path d="M 188,135 L 188,136 L 187,137 L 187,139 L 186,140 L 186,141 L 184,143 L 184,144 L 182,146 L 182,148 L 180,150 L 180,152 L 178,154 L 178,156 L 176,158 L 176,159 L 175,160 L 175,161 L 174,162 L 174,163 L 172,165 L 172,167 L 170,169 L 170,171 L 169,172 L 169,173 L 168,174 L 168,175 L 167,176 L 167,177 L 166,178 L 166,179 L 164,181 L 164,182 L 162,184 L 162,186 L 165,186 L 166,187 L 211,187 L 212,186 L 216,186 L 217,185 L 217,184 L 215,182 L 215,180 L 213,178 L 213,177 L 211,175 L 211,174 L 210,173 L 210,172 L 209,171 L 209,170 L 207,168 L 207,167 L 206,166 L 206,165 L 205,164 L 205,163 L 203,161 L 203,160 L 202,159 L 202,158 L 201,157 L 201,156 L 199,154 L 199,153 L 197,151 L 197,149 L 195,147 L 195,146 L 194,145 L 194,144 L 193,143 L 193,142 L 191,140 L 191,139 L 190,138 L 190,137 L 189,136 L 189,135 Z" fill="black" /><path d="M 61,128 L 59,130 L 55,130 L 53,132 L 50,132 L 50,133 L 47,136 L 47,137 L 46,138 L 45,138 L 43,140 L 43,141 L 42,142 L 42,145 L 40,147 L 40,157 L 41,158 L 41,163 L 42,164 L 42,166 L 43,167 L 43,169 L 44,169 L 45,170 L 45,171 L 48,174 L 48,175 L 49,175 L 51,177 L 53,177 L 55,179 L 57,179 L 58,180 L 59,180 L 60,181 L 71,181 L 72,180 L 74,180 L 75,179 L 77,179 L 79,177 L 81,177 L 81,176 L 82,175 L 83,175 L 87,171 L 87,170 L 89,168 L 89,166 L 90,165 L 91,165 L 91,161 L 92,160 L 92,153 L 91,152 L 91,145 L 89,143 L 89,141 L 85,137 L 85,136 L 83,134 L 82,134 L 80,132 L 79,132 L 78,131 L 76,131 L 74,129 L 73,129 L 72,128 Z" fill="black" /><path d="M 54,44 L 53,45 L 38,45 L 38,50 L 37,51 L 37,53 L 38,54 L 37,55 L 37,66 L 36,67 L 36,68 L 37,69 L 37,71 L 36,72 L 36,76 L 37,77 L 37,81 L 39,81 L 40,82 L 51,82 L 52,83 L 54,83 L 55,82 L 74,82 L 75,81 L 75,45 L 74,44 Z" fill="black" /><path d="M 189,41 L 188,42 L 188,43 L 186,45 L 186,47 L 185,48 L 184,48 L 184,49 L 182,51 L 182,53 L 181,54 L 180,54 L 180,57 L 177,60 L 177,61 L 176,62 L 176,64 L 175,65 L 175,66 L 174,67 L 174,69 L 173,70 L 172,70 L 172,74 L 170,76 L 169,76 L 168,77 L 168,81 L 167,82 L 166,82 L 166,86 L 164,88 L 165,89 L 219,89 L 219,86 L 218,85 L 218,84 L 217,83 L 217,82 L 215,80 L 215,79 L 213,77 L 213,76 L 211,74 L 211,72 L 209,70 L 209,69 L 207,67 L 207,66 L 205,64 L 205,62 L 203,60 L 203,58 L 202,58 L 199,55 L 199,52 L 197,50 L 197,49 L 195,47 L 195,46 L 194,45 L 194,44 L 193,43 L 193,42 L 192,41 Z" fill="black" /></svg>