<?xml version='1.0' encoding='utf-8'?>
<svg width="258" height="220" xmlns="http://www.w3.org/2000/svg" viewBox="0 0 258 220"><rect width="258" height="220" fill="white" /><path d="M 84,184 L 82,186 L 82,188 L 83,189 L 83,190 L 82,191 L 82,205 L 153,205 L 154,206 L 159,206 L 160,205 L 173,205 L 173,195 L 174,194 L 174,188 L 173,187 L 173,186 L 172,185 L 172,184 L 170,184 L 169,185 L 165,185 L 164,184 L 160,184 L 159,185 L 153,185 L 152,184 L 118,184 L 117,185 L 116,185 L 115,184 L 112,184 L 110,186 L 108,184 Z" fill="black" /><path d="M 129,88 L 129,89 L 126,92 L 126,93 L 123,96 L 123,97 L 122,98 L 122,99 L 120,101 L 120,103 L 116,107 L 116,108 L 114,110 L 114,111 L 112,113 L 112,114 L 110,116 L 110,117 L 109,118 L 109,119 L 107,121 L 107,122 L 104,125 L 104,126 L 102,128 L 102,129 L 101,130 L 101,131 L 100,132 L 100,133 L 99,134 L 98,134 L 98,135 L 97,136 L 97,137 L 96,138 L 96,139 L 94,141 L 94,142 L 92,144 L 92,145 L 91,146 L 91,147 L 90,148 L 90,149 L 89,150 L 89,151 L 86,154 L 86,157 L 90,157 L 91,158 L 96,158 L 97,159 L 98,159 L 99,158 L 104,158 L 105,157 L 107,157 L 108,158 L 109,158 L 110,157 L 111,157 L 112,158 L 120,158 L 121,159 L 127,159 L 128,158 L 133,158 L 134,157 L 135,157 L 136,158 L 145,158 L 146,157 L 153,157 L 154,158 L 170,158 L 171,157 L 171,154 L 169,152 L 169,151 L 167,149 L 167,146 L 164,143 L 164,142 L 163,141 L 163,140 L 161,138 L 161,136 L 160,136 L 159,135 L 159,134 L 157,132 L 157,130 L 155,128 L 155,127 L 153,125 L 153,123 L 151,121 L 151,120 L 150,120 L 149,119 L 149,117 L 147,115 L 147,114 L 145,112 L 145,111 L 143,109 L 143,107 L 141,105 L 141,104 L 140,103 L 140,102 L 139,101 L 139,100 L 137,98 L 137,96 L 136,96 L 135,95 L 135,94 L 134,93 L 134,92 L 133,91 L 133,90 L 132,89 L 132,88 Z" fill="black" /><path d="M 188,35 L 187,36 L 184,36 L 184,37 L 183,38 L 181,38 L 179,40 L 178,40 L 178,41 L 177,42 L 176,42 L 176,43 L 175,44 L 174,44 L 174,45 L 173,46 L 173,47 L 172,48 L 172,49 L 171,50 L 170,50 L 170,56 L 168,58 L 168,63 L 170,65 L 170,71 L 171,71 L 172,72 L 172,73 L 174,75 L 174,77 L 175,77 L 177,79 L 178,79 L 182,83 L 185,83 L 186,84 L 188,84 L 189,85 L 199,85 L 200,84 L 203,84 L 204,83 L 207,83 L 207,82 L 208,81 L 209,81 L 215,75 L 215,74 L 217,72 L 217,70 L 218,69 L 218,68 L 219,67 L 219,56 L 218,55 L 218,53 L 217,52 L 217,50 L 215,48 L 215,47 L 213,45 L 213,44 L 207,38 L 205,38 L 204,37 L 203,37 L 202,36 L 199,36 L 198,35 Z" fill="black" /><path d="M 52,34 L 51,35 L 50,35 L 49,36 L 47,36 L 45,38 L 44,38 L 38,44 L 38,45 L 37,46 L 36,46 L 36,49 L 35,50 L 35,51 L 34,52 L 34,56 L 33,57 L 34,58 L 34,62 L 35,63 L 35,66 L 37,68 L 37,69 L 38,70 L 38,72 L 40,74 L 40,75 L 41,75 L 42,76 L 42,77 L 43,77 L 45,79 L 46,79 L 48,81 L 49,81 L 50,82 L 53,82 L 54,83 L 66,83 L 68,81 L 70,81 L 72,79 L 73,79 L 75,77 L 76,77 L 76,76 L 77,75 L 78,75 L 79,74 L 79,73 L 81,71 L 81,69 L 83,67 L 83,64 L 84,63 L 84,56 L 83,55 L 83,51 L 81,49 L 81,45 L 80,44 L 79,44 L 75,40 L 74,40 L 73,39 L 73,38 L 72,38 L 71,37 L 69,37 L 68,36 L 66,36 L 64,34 Z" fill="black" /></svg>