<?xml version='1.0' encoding='utf-8'?>
<svg width="263" height="219" xmlns="http://www.w3.org/2000/svg" viewBox="0 0 263 219"><rect width="263" height="219" fill="white" /><path d="M 161,185 L 161,186 L 160,187 L 158,187 L 154,191 L 154,192 L 153,193 L 153,203 L 155,205 L 155,206 L 156,207 L 156,208 L 157,208 L 159,210 L 160,210 L 161,211 L 164,211 L 165,212 L 166,212 L 167,211 L 170,211 L 171,210 L 172,210 L 173,209 L 174,209 L 177,206 L 177,205 L 178,204 L 178,203 L 179,202 L 179,199 L 180,198 L 180,196 L 179,195 L 179,194 L 178,193 L 178,191 L 174,187 L 173,187 L 172,186 L 170,186 L 169,185 Z" fill="black" /><path d="M 49,103 L 47,105 L 46,105 L 43,108 L 43,109 L 41,111 L 41,116 L 40,117 L 40,119 L 41,120 L 41,122 L 42,123 L 42,124 L 43,125 L 43,126 L 44,126 L 46,128 L 47,128 L 49,130 L 58,130 L 59,129 L 60,129 L 61,128 L 62,128 L 62,127 L 63,126 L 64,126 L 66,124 L 66,123 L 67,122 L 67,121 L 68,120 L 68,114 L 67,113 L 67,112 L 66,111 L 66,110 L 64,108 L 64,107 L 62,105 L 60,105 L 58,103 Z" fill="black" /><path d="M 91,63 L 90,64 L 89,64 L 88,65 L 85,65 L 81,69 L 81,70 L 80,71 L 80,72 L 79,73 L 79,79 L 80,80 L 80,82 L 81,83 L 81,84 L 82,85 L 82,86 L 86,90 L 96,90 L 97,89 L 98,89 L 99,88 L 100,88 L 102,86 L 102,85 L 103,84 L 103,83 L 104,82 L 104,79 L 105,78 L 105,75 L 104,74 L 104,71 L 103,70 L 103,69 L 100,66 L 99,66 L 98,65 L 97,65 L 96,64 L 95,64 L 94,63 Z" fill="black" /><path d="M 237,22 L 236,23 L 233,23 L 232,24 L 231,24 L 228,27 L 227,27 L 227,28 L 226,29 L 226,30 L 225,31 L 225,32 L 224,33 L 224,34 L 225,35 L 225,42 L 226,43 L 226,44 L 228,46 L 229,46 L 231,48 L 232,48 L 233,49 L 236,49 L 237,50 L 239,50 L 240,49 L 241,49 L 242,48 L 244,48 L 246,46 L 247,46 L 249,44 L 249,43 L 250,42 L 250,39 L 251,38 L 251,31 L 250,30 L 250,28 L 249,27 L 248,27 L 246,25 L 245,25 L 243,23 L 239,23 L 238,22 Z" fill="black" /></svg>