<?xml version='1.0' encoding='utf-8'?>
<svg width="258" height="219" xmlns="http://www.w3.org/2000/svg" viewBox="0 0 258 219"><rect width="258" height="219" fill="white" /><path d="M 31,177 L 29,179 L 25,179 L 24,180 L 24,181 L 20,185 L 20,190 L 19,191 L 19,192 L 20,193 L 20,196 L 21,196 L 22,197 L 22,199 L 25,202 L 27,202 L 28,203 L 29,203 L 30,204 L 38,204 L 40,202 L 42,202 L 44,200 L 44,199 L 45,198 L 45,197 L 47,195 L 47,189 L 46,188 L 46,187 L 45,186 L 45,184 L 43,182 L 43,181 L 42,181 L 40,179 L 38,179 L 37,178 L 36,178 L 35,177 Z" fill="black" /><path d="M 214,171 L 213,172 L 212,172 L 211,173 L 210,173 L 208,175 L 208,176 L 206,178 L 206,190 L 207,190 L 208,191 L 208,192 L 211,195 L 212,195 L 213,196 L 216,196 L 217,197 L 218,197 L 219,198 L 220,198 L 221,197 L 223,197 L 224,196 L 227,196 L 229,194 L 229,192 L 231,190 L 231,189 L 233,187 L 233,185 L 232,184 L 232,182 L 233,181 L 233,180 L 231,178 L 231,177 L 229,175 L 229,174 L 227,172 L 226,172 L 225,171 Z" fill="black" /><path d="M 132,91 L 131,92 L 130,92 L 129,93 L 128,93 L 127,94 L 126,94 L 125,95 L 124,95 L 124,98 L 123,99 L 122,99 L 121,100 L 121,101 L 122,102 L 122,104 L 121,105 L 121,108 L 122,109 L 122,110 L 124,112 L 124,113 L 125,114 L 126,114 L 128,116 L 129,116 L 130,117 L 131,117 L 132,118 L 139,118 L 140,117 L 141,117 L 142,116 L 144,116 L 145,115 L 145,114 L 146,113 L 146,112 L 148,110 L 148,109 L 149,108 L 149,100 L 148,99 L 148,98 L 147,97 L 147,96 L 144,93 L 142,93 L 141,92 L 140,92 L 139,91 Z" fill="black" /><path d="M 225,9 L 223,11 L 220,11 L 216,15 L 216,16 L 215,17 L 215,18 L 214,19 L 214,22 L 215,23 L 215,26 L 216,27 L 216,29 L 218,31 L 218,32 L 220,34 L 222,34 L 223,35 L 224,35 L 225,36 L 233,36 L 237,32 L 237,31 L 240,28 L 240,26 L 241,25 L 241,19 L 240,18 L 240,16 L 239,15 L 239,14 L 238,13 L 237,13 L 235,11 L 232,11 L 231,10 L 231,9 L 228,9 L 227,10 L 226,10 Z" fill="black" /></svg>