<?xml version='1.0' encoding='utf-8'?>
<svg width="258" height="218" xmlns="http://www.w3.org/2000/svg" viewBox="0 0 258 218"><rect width="258" height="218" fill="white" /><path d="M 175,180 L 174,181 L 173,181 L 172,182 L 171,182 L 169,184 L 169,185 L 168,186 L 167,186 L 167,187 L 166,188 L 166,189 L 165,190 L 165,198 L 166,199 L 166,200 L 167,201 L 167,203 L 169,205 L 170,205 L 172,207 L 175,207 L 176,208 L 178,208 L 179,209 L 181,209 L 182,208 L 184,208 L 185,207 L 186,207 L 186,206 L 187,205 L 188,205 L 188,204 L 189,203 L 190,203 L 190,202 L 192,200 L 192,196 L 193,195 L 193,194 L 192,193 L 192,187 L 187,182 L 185,182 L 184,181 L 183,181 L 182,180 Z" fill="black" /><path d="M 26,136 L 25,137 L 23,137 L 22,138 L 20,138 L 16,142 L 16,143 L 15,144 L 15,145 L 14,146 L 14,151 L 15,152 L 15,155 L 16,156 L 16,159 L 21,164 L 23,164 L 24,165 L 31,165 L 32,164 L 34,164 L 35,163 L 36,163 L 37,162 L 38,162 L 40,160 L 40,158 L 41,157 L 42,157 L 42,143 L 41,142 L 40,142 L 38,140 L 37,140 L 36,139 L 36,138 L 34,138 L 33,137 L 27,137 Z" fill="black" /><path d="M 233,71 L 232,72 L 227,72 L 226,73 L 225,73 L 224,74 L 223,74 L 221,76 L 221,77 L 219,79 L 219,90 L 221,92 L 221,93 L 223,95 L 223,96 L 224,97 L 225,97 L 226,98 L 228,98 L 229,99 L 240,99 L 242,97 L 242,96 L 243,95 L 244,95 L 244,94 L 246,92 L 246,90 L 247,89 L 247,86 L 248,85 L 248,84 L 247,83 L 247,80 L 246,79 L 246,78 L 240,72 L 234,72 Z" fill="black" /><path d="M 132,7 L 131,8 L 126,8 L 125,9 L 125,10 L 123,12 L 123,13 L 122,14 L 121,14 L 121,15 L 120,16 L 120,18 L 119,19 L 119,23 L 121,25 L 121,28 L 123,30 L 123,31 L 125,33 L 128,33 L 129,34 L 132,34 L 133,35 L 138,35 L 139,34 L 140,34 L 141,33 L 142,33 L 145,30 L 145,29 L 146,28 L 146,27 L 147,26 L 147,24 L 148,23 L 148,22 L 147,21 L 147,18 L 146,17 L 146,14 L 145,13 L 145,12 L 144,11 L 144,10 L 143,10 L 142,9 L 141,9 L 140,8 L 137,8 L 136,7 Z" fill="black" /></svg>