<?xml version='1.0' encoding='utf-8'?>
<svg width="258" height="217" xmlns="http://www.w3.org/2000/svg" viewBox="0 0 258 217"><rect width="258" height="217" fill="white" /><path d="M 156,116 L 155,117 L 152,117 L 151,118 L 150,118 L 149,119 L 148,119 L 148,120 L 146,122 L 146,124 L 145,125 L 145,132 L 146,133 L 146,136 L 150,140 L 151,140 L 153,142 L 163,142 L 164,141 L 165,141 L 166,140 L 169,140 L 170,139 L 170,137 L 171,136 L 171,134 L 172,133 L 172,126 L 171,125 L 171,123 L 170,122 L 170,121 L 169,121 L 167,119 L 166,119 L 165,118 L 164,118 L 163,117 L 160,117 L 159,116 Z" fill="black" /><path d="M 100,113 L 99,114 L 98,114 L 97,115 L 95,115 L 92,118 L 92,120 L 91,121 L 91,123 L 90,124 L 90,130 L 92,132 L 92,133 L 97,138 L 99,138 L 100,139 L 102,139 L 103,140 L 106,140 L 107,139 L 109,139 L 110,138 L 112,138 L 115,135 L 115,134 L 117,132 L 117,131 L 118,130 L 118,123 L 117,122 L 117,120 L 115,118 L 115,117 L 113,115 L 111,115 L 110,114 L 109,114 L 108,113 Z" fill="black" /><path d="M 150,73 L 148,75 L 147,75 L 146,76 L 146,77 L 144,79 L 144,81 L 143,82 L 143,89 L 144,90 L 144,92 L 146,94 L 146,95 L 149,98 L 153,98 L 154,99 L 161,99 L 162,98 L 165,98 L 167,96 L 167,95 L 168,94 L 169,94 L 169,93 L 170,92 L 170,90 L 171,89 L 171,84 L 169,82 L 169,79 L 167,77 L 167,76 L 166,75 L 165,75 L 164,74 L 162,74 L 161,73 Z" fill="black" /><path d="M 103,71 L 102,72 L 100,72 L 99,73 L 98,73 L 96,75 L 95,75 L 92,78 L 92,80 L 90,82 L 90,86 L 91,87 L 91,88 L 92,89 L 92,91 L 97,96 L 98,96 L 100,98 L 104,98 L 105,99 L 106,98 L 110,98 L 112,96 L 114,96 L 117,93 L 117,92 L 118,91 L 118,90 L 119,89 L 119,84 L 118,83 L 118,80 L 117,79 L 117,78 L 115,76 L 115,75 L 113,73 L 111,73 L 110,72 L 109,72 L 108,71 Z" fill="black" /><path d="M 0,0 L 0,216 L 257,216 L 257,0 Z" fill="none" stroke="black" stroke-width="1" /></svg>