<?xml version='1.0' encoding='utf-8'?>
<svg width="264" height="220" xmlns="http://www.w3.org/2000/svg" viewBox="0 0 264 220"><rect width="264" height="220" fill="white" /><path d="M 104,178 L 103,179 L 100,179 L 99,180 L 98,180 L 96,182 L 96,183 L 95,184 L 94,184 L 94,185 L 93,186 L 93,187 L 92,188 L 92,196 L 93,197 L 93,198 L 94,199 L 94,200 L 95,200 L 98,203 L 99,203 L 100,204 L 101,204 L 102,205 L 109,205 L 110,204 L 111,204 L 112,203 L 113,203 L 113,202 L 114,201 L 115,201 L 119,197 L 119,189 L 118,188 L 118,186 L 117,185 L 117,184 L 113,180 L 112,180 L 111,179 L 109,179 L 108,178 Z" fill="black" /><path d="M 155,169 L 154,170 L 152,170 L 152,171 L 151,172 L 149,172 L 146,175 L 146,177 L 145,178 L 145,181 L 144,182 L 145,183 L 145,186 L 146,187 L 146,188 L 148,190 L 148,191 L 149,191 L 152,194 L 155,194 L 156,195 L 164,195 L 165,194 L 166,194 L 167,193 L 168,193 L 168,192 L 171,189 L 171,188 L 172,187 L 172,184 L 173,183 L 173,182 L 172,181 L 172,179 L 171,178 L 171,176 L 169,174 L 169,173 L 168,172 L 167,172 L 165,170 L 160,170 L 159,169 Z" fill="black" /><path d="M 34,44 L 33,45 L 32,45 L 28,49 L 28,50 L 26,52 L 26,57 L 25,58 L 25,59 L 26,60 L 26,63 L 27,64 L 27,65 L 30,68 L 31,68 L 32,69 L 33,69 L 34,70 L 37,70 L 38,71 L 40,71 L 41,70 L 43,70 L 44,69 L 45,69 L 46,68 L 47,68 L 51,64 L 51,62 L 52,61 L 52,60 L 53,59 L 53,55 L 52,54 L 52,53 L 51,52 L 51,50 L 47,46 L 46,46 L 45,45 L 44,45 L 43,44 Z" fill="black" /><path d="M 233,22 L 231,24 L 230,24 L 229,25 L 228,25 L 227,26 L 226,26 L 226,27 L 225,28 L 225,29 L 224,30 L 224,41 L 226,43 L 226,44 L 228,46 L 229,46 L 230,47 L 231,47 L 232,48 L 233,48 L 234,49 L 240,49 L 241,48 L 242,48 L 243,47 L 245,47 L 247,45 L 247,44 L 248,43 L 248,42 L 249,41 L 249,40 L 250,39 L 250,33 L 249,32 L 249,30 L 248,29 L 248,28 L 245,25 L 245,24 L 244,23 L 240,23 L 239,22 L 236,22 L 235,23 L 234,23 Z" fill="black" /></svg>