<?xml version='1.0' encoding='utf-8'?>
<svg width="259" height="216" xmlns="http://www.w3.org/2000/svg" viewBox="0 0 259 216"><rect width="259" height="216" fill="white" /><path d="M 225,182 L 224,183 L 223,183 L 222,184 L 221,184 L 219,186 L 219,187 L 218,188 L 218,193 L 217,194 L 217,197 L 218,198 L 218,199 L 219,200 L 219,201 L 225,207 L 233,207 L 234,208 L 235,208 L 236,207 L 236,206 L 237,205 L 239,205 L 241,203 L 241,202 L 242,201 L 242,200 L 244,198 L 244,190 L 243,189 L 243,188 L 242,187 L 242,186 L 241,186 L 237,182 Z" fill="black" /><path d="M 147,132 L 146,133 L 143,133 L 142,134 L 140,134 L 137,137 L 137,138 L 135,140 L 135,141 L 134,142 L 134,147 L 135,148 L 135,151 L 137,153 L 137,154 L 140,157 L 141,157 L 142,158 L 151,158 L 152,157 L 154,157 L 156,155 L 157,155 L 159,153 L 159,152 L 160,151 L 160,148 L 161,147 L 161,143 L 160,142 L 160,140 L 159,139 L 159,138 L 158,137 L 158,136 L 156,134 L 155,134 L 154,133 L 152,133 L 151,132 Z" fill="black" /><path d="M 119,84 L 118,85 L 116,85 L 115,86 L 113,86 L 109,90 L 109,93 L 108,94 L 109,95 L 109,103 L 110,103 L 111,104 L 111,105 L 112,106 L 112,107 L 113,107 L 115,109 L 117,109 L 119,111 L 127,111 L 129,109 L 130,109 L 131,108 L 132,108 L 133,107 L 133,106 L 135,104 L 135,103 L 136,102 L 136,94 L 135,93 L 135,92 L 134,91 L 134,90 L 132,88 L 132,87 L 131,87 L 130,86 L 129,86 L 128,85 L 127,85 L 126,84 Z" fill="black" /><path d="M 31,40 L 30,41 L 29,41 L 28,42 L 27,42 L 25,44 L 25,45 L 24,46 L 24,47 L 23,48 L 23,57 L 29,63 L 31,63 L 32,64 L 34,64 L 35,65 L 40,65 L 41,64 L 42,64 L 43,63 L 44,63 L 49,58 L 49,57 L 50,56 L 50,55 L 49,54 L 49,49 L 48,48 L 48,46 L 47,45 L 47,44 L 45,42 L 44,42 L 42,40 Z" fill="black" /><path d="M 0,0 L 0,215 L 258,215 L 258,0 Z" fill="none" stroke="black" stroke-width="1" /></svg>