<?xml version='1.0' encoding='utf-8'?>
<svg width="259" height="217" xmlns="http://www.w3.org/2000/svg" viewBox="0 0 259 217"><rect width="259" height="217" fill="white" /><path d="M 223,175 L 222,176 L 221,176 L 219,178 L 218,178 L 218,179 L 216,181 L 216,182 L 214,184 L 214,192 L 215,193 L 215,194 L 216,195 L 216,196 L 218,198 L 218,199 L 219,200 L 220,200 L 222,202 L 224,202 L 225,203 L 229,203 L 230,202 L 235,202 L 241,196 L 241,195 L 242,194 L 242,193 L 243,192 L 243,188 L 242,187 L 242,184 L 241,183 L 241,182 L 239,180 L 239,179 L 238,179 L 234,175 Z" fill="black" /><path d="M 112,147 L 111,148 L 108,148 L 107,149 L 106,149 L 102,153 L 102,154 L 100,156 L 100,165 L 101,166 L 101,167 L 102,168 L 102,169 L 104,171 L 104,172 L 105,172 L 107,174 L 115,174 L 116,175 L 117,174 L 120,174 L 122,172 L 123,172 L 125,170 L 125,169 L 126,168 L 126,166 L 127,165 L 127,163 L 128,162 L 128,161 L 127,160 L 127,159 L 128,158 L 128,157 L 127,156 L 127,153 L 125,151 L 124,151 L 123,150 L 123,149 L 122,149 L 121,148 L 120,148 L 119,147 Z" fill="black" /><path d="M 221,29 L 217,33 L 216,33 L 214,35 L 214,37 L 212,39 L 212,46 L 214,48 L 214,50 L 216,52 L 217,52 L 219,54 L 220,54 L 221,55 L 223,55 L 224,56 L 229,56 L 231,54 L 233,54 L 234,53 L 235,53 L 237,51 L 237,50 L 239,48 L 239,47 L 240,46 L 240,42 L 241,41 L 240,40 L 240,38 L 239,37 L 239,35 L 235,31 L 234,31 L 233,30 L 232,30 L 231,29 Z" fill="black" /><path d="M 70,27 L 70,28 L 68,30 L 66,30 L 65,31 L 64,31 L 64,32 L 62,34 L 62,37 L 61,38 L 61,44 L 62,45 L 62,47 L 64,49 L 64,50 L 65,50 L 67,52 L 68,52 L 69,53 L 73,53 L 74,54 L 78,54 L 79,53 L 81,53 L 82,52 L 84,52 L 86,50 L 87,50 L 87,49 L 88,48 L 88,47 L 89,46 L 89,45 L 90,44 L 90,43 L 89,42 L 89,40 L 90,39 L 90,38 L 89,37 L 89,35 L 88,34 L 88,33 L 87,32 L 87,31 L 85,29 L 84,29 L 82,27 Z" fill="black" /><path d="M 0,0 L 0,216 L 258,216 L 258,0 Z" fill="none" stroke="black" stroke-width="1" /></svg>