<?xml version='1.0' encoding='utf-8'?>
<svg width="258" height="215" xmlns="http://www.w3.org/2000/svg" viewBox="0 0 258 215"><rect width="258" height="215" fill="white" /><path d="M 102,177 L 101,178 L 99,178 L 98,179 L 97,179 L 96,180 L 95,180 L 94,181 L 93,181 L 93,182 L 92,183 L 91,183 L 89,185 L 89,186 L 88,187 L 88,188 L 87,189 L 87,192 L 89,194 L 89,197 L 90,198 L 90,199 L 95,204 L 99,204 L 100,205 L 102,205 L 103,204 L 108,204 L 113,199 L 113,198 L 114,197 L 114,190 L 115,189 L 114,188 L 114,185 L 112,183 L 112,182 L 111,181 L 110,181 L 108,179 L 105,179 L 104,178 L 103,178 Z" fill="black" /><path d="M 228,107 L 227,108 L 224,108 L 223,109 L 222,109 L 220,111 L 219,111 L 217,113 L 217,115 L 215,117 L 215,118 L 216,119 L 216,120 L 215,121 L 215,126 L 219,130 L 219,131 L 220,132 L 222,132 L 224,134 L 231,134 L 232,133 L 235,133 L 238,130 L 238,129 L 240,127 L 240,125 L 241,124 L 241,123 L 242,122 L 242,120 L 241,119 L 241,117 L 240,116 L 240,114 L 238,112 L 238,111 L 236,109 L 234,109 L 233,108 L 231,108 L 230,107 Z" fill="black" /><path d="M 23,105 L 22,106 L 21,106 L 20,107 L 19,107 L 13,113 L 13,122 L 15,124 L 15,126 L 16,127 L 16,128 L 17,129 L 18,129 L 19,130 L 21,130 L 22,131 L 28,131 L 29,130 L 33,130 L 34,129 L 34,128 L 38,124 L 38,122 L 39,121 L 39,114 L 38,113 L 38,112 L 36,110 L 36,109 L 32,105 Z" fill="black" /><path d="M 155,21 L 154,22 L 149,22 L 148,23 L 146,23 L 142,27 L 141,27 L 141,30 L 140,31 L 139,31 L 139,39 L 142,42 L 142,43 L 143,44 L 143,45 L 144,46 L 148,46 L 150,48 L 157,48 L 159,46 L 160,46 L 164,42 L 164,41 L 166,39 L 166,31 L 165,30 L 165,29 L 164,28 L 164,27 L 160,23 L 158,23 L 157,22 L 156,22 Z" fill="black" /></svg>