<?xml version='1.0' encoding='utf-8'?>
<svg width="255" height="216" xmlns="http://www.w3.org/2000/svg" viewBox="0 0 255 216"><rect width="255" height="216" fill="white" /><path d="M 203,18 L 202,19 L 199,19 L 198,20 L 195,20 L 193,22 L 190,22 L 184,28 L 184,29 L 182,31 L 182,32 L 180,34 L 180,36 L 178,38 L 178,41 L 177,42 L 177,44 L 176,45 L 176,48 L 175,49 L 175,51 L 174,52 L 174,56 L 173,57 L 173,59 L 172,60 L 170,60 L 169,59 L 169,49 L 166,49 L 165,50 L 165,62 L 166,63 L 166,91 L 165,92 L 165,94 L 164,95 L 164,101 L 163,102 L 163,106 L 162,107 L 162,114 L 161,115 L 161,118 L 160,119 L 160,122 L 159,123 L 159,125 L 158,126 L 158,133 L 157,134 L 157,137 L 156,138 L 156,146 L 154,148 L 154,150 L 152,152 L 152,153 L 150,155 L 150,156 L 148,158 L 148,159 L 143,164 L 142,164 L 140,166 L 132,166 L 131,167 L 130,167 L 129,166 L 126,166 L 124,164 L 122,164 L 121,163 L 121,162 L 120,162 L 119,161 L 118,161 L 117,160 L 117,159 L 116,158 L 116,157 L 115,156 L 115,154 L 114,153 L 114,152 L 113,151 L 113,149 L 112,148 L 112,147 L 113,146 L 112,145 L 112,144 L 111,143 L 111,134 L 110,133 L 110,127 L 109,126 L 109,123 L 108,122 L 108,121 L 109,120 L 109,118 L 108,117 L 108,114 L 107,113 L 107,103 L 106,102 L 107,101 L 107,90 L 106,89 L 106,86 L 105,85 L 105,80 L 104,79 L 104,77 L 105,76 L 104,75 L 104,74 L 103,73 L 103,70 L 102,69 L 102,67 L 101,66 L 101,64 L 100,63 L 100,61 L 99,60 L 99,57 L 97,55 L 97,54 L 96,53 L 96,50 L 95,49 L 95,48 L 94,48 L 93,47 L 93,46 L 92,45 L 92,44 L 91,43 L 91,42 L 89,40 L 88,40 L 87,39 L 86,39 L 83,36 L 81,36 L 79,34 L 75,34 L 74,33 L 72,33 L 71,32 L 65,32 L 64,33 L 62,33 L 61,34 L 58,34 L 57,35 L 56,35 L 55,36 L 54,36 L 51,39 L 50,39 L 49,40 L 48,40 L 48,41 L 47,42 L 46,42 L 46,43 L 45,44 L 44,44 L 44,45 L 43,46 L 42,46 L 42,47 L 39,50 L 39,51 L 38,52 L 38,54 L 36,56 L 36,57 L 35,58 L 35,59 L 34,60 L 34,65 L 32,67 L 32,71 L 31,72 L 31,73 L 30,74 L 30,79 L 29,80 L 29,82 L 28,83 L 28,85 L 27,86 L 27,87 L 26,88 L 26,91 L 25,92 L 25,93 L 24,94 L 24,98 L 23,99 L 23,100 L 22,101 L 22,105 L 21,106 L 21,107 L 20,108 L 20,111 L 19,112 L 19,113 L 18,114 L 18,115 L 17,116 L 17,117 L 18,118 L 19,118 L 19,117 L 20,116 L 20,115 L 22,113 L 24,113 L 25,114 L 25,115 L 24,116 L 24,119 L 23,120 L 23,123 L 22,124 L 22,135 L 21,136 L 21,139 L 20,140 L 20,157 L 19,158 L 19,161 L 20,162 L 20,163 L 21,163 L 22,164 L 25,161 L 25,156 L 24,155 L 25,154 L 25,148 L 26,147 L 26,140 L 27,139 L 27,126 L 28,125 L 28,118 L 27,117 L 27,116 L 29,114 L 30,114 L 31,115 L 31,116 L 32,117 L 32,118 L 33,119 L 33,120 L 34,121 L 34,123 L 35,124 L 35,125 L 36,126 L 38,124 L 36,122 L 36,121 L 35,120 L 35,81 L 36,80 L 36,78 L 37,77 L 37,72 L 38,71 L 38,70 L 39,69 L 39,64 L 40,63 L 40,62 L 41,61 L 41,59 L 43,57 L 43,56 L 44,55 L 45,55 L 45,54 L 46,53 L 46,52 L 51,47 L 51,46 L 54,43 L 55,43 L 57,41 L 58,41 L 59,40 L 60,40 L 61,39 L 63,39 L 64,38 L 73,38 L 74,39 L 77,39 L 78,40 L 79,40 L 80,41 L 81,41 L 82,42 L 82,43 L 83,43 L 88,48 L 88,49 L 89,49 L 90,50 L 90,51 L 91,52 L 91,53 L 92,54 L 92,56 L 93,57 L 93,59 L 94,60 L 94,61 L 95,62 L 95,64 L 96,65 L 96,69 L 97,70 L 97,71 L 98,72 L 98,75 L 100,77 L 100,83 L 101,84 L 101,88 L 102,89 L 102,113 L 103,114 L 103,119 L 104,120 L 104,130 L 105,131 L 105,136 L 106,137 L 106,142 L 107,143 L 107,145 L 106,146 L 106,147 L 108,149 L 108,154 L 109,155 L 109,156 L 110,157 L 110,159 L 113,162 L 113,163 L 114,164 L 114,165 L 116,167 L 117,167 L 119,169 L 121,169 L 123,171 L 129,171 L 130,172 L 137,172 L 138,171 L 141,171 L 142,170 L 143,170 L 144,169 L 145,169 L 146,168 L 147,168 L 148,167 L 149,167 L 149,166 L 152,163 L 153,163 L 155,161 L 155,158 L 156,157 L 157,157 L 157,154 L 158,153 L 158,152 L 159,151 L 159,149 L 160,148 L 160,144 L 161,143 L 161,142 L 162,141 L 162,137 L 163,136 L 163,133 L 164,132 L 164,130 L 165,129 L 165,125 L 166,124 L 166,123 L 167,122 L 166,121 L 166,120 L 165,119 L 167,117 L 167,108 L 169,106 L 169,103 L 170,102 L 170,101 L 171,100 L 171,98 L 172,97 L 172,96 L 173,95 L 173,92 L 175,90 L 175,88 L 176,87 L 176,86 L 177,85 L 177,83 L 178,82 L 178,81 L 179,80 L 179,78 L 180,77 L 180,76 L 181,75 L 181,73 L 182,72 L 182,71 L 183,70 L 183,67 L 184,66 L 184,65 L 185,64 L 185,63 L 186,62 L 186,61 L 187,60 L 187,58 L 185,58 L 184,59 L 184,60 L 181,63 L 178,63 L 176,61 L 179,58 L 179,53 L 181,51 L 181,46 L 183,44 L 183,42 L 184,41 L 184,38 L 186,36 L 186,34 L 187,33 L 187,32 L 190,29 L 191,29 L 193,27 L 194,27 L 196,25 L 198,25 L 199,24 L 209,24 L 210,25 L 213,25 L 217,29 L 218,29 L 220,31 L 220,32 L 222,34 L 222,35 L 224,37 L 224,41 L 226,43 L 226,44 L 228,44 L 229,43 L 229,36 L 228,35 L 228,34 L 227,33 L 227,32 L 225,30 L 225,28 L 223,26 L 222,26 L 221,25 L 221,24 L 220,24 L 218,22 L 217,22 L 215,20 L 212,20 L 211,19 L 204,19 Z" fill="black" /><path d="M 0,0 L 0,215 L 254,215 L 254,0 Z" fill="none" stroke="black" stroke-width="1" /></svg>