<?xml version='1.0' encoding='utf-8'?>
<svg width="255" height="222" xmlns="http://www.w3.org/2000/svg" viewBox="0 0 255 222"><rect width="255" height="222" fill="white" /><path d="M 31,10 L 30,11 L 29,11 L 29,16 L 31,18 L 31,19 L 34,22 L 34,23 L 35,24 L 35,25 L 37,27 L 37,29 L 38,29 L 39,30 L 39,31 L 41,33 L 41,34 L 42,34 L 44,36 L 44,37 L 45,38 L 45,39 L 48,42 L 48,43 L 49,44 L 50,44 L 51,45 L 51,46 L 52,47 L 50,49 L 47,49 L 44,46 L 43,46 L 42,45 L 39,45 L 38,44 L 37,44 L 36,43 L 35,43 L 34,44 L 34,45 L 35,46 L 36,46 L 37,47 L 39,47 L 43,51 L 44,51 L 49,56 L 50,56 L 53,59 L 54,59 L 55,60 L 55,61 L 56,61 L 57,62 L 58,62 L 65,69 L 66,69 L 67,70 L 68,70 L 71,73 L 72,73 L 85,86 L 85,87 L 86,87 L 89,90 L 89,91 L 90,91 L 91,92 L 91,93 L 92,93 L 93,94 L 93,95 L 94,95 L 95,96 L 95,97 L 96,97 L 100,101 L 101,101 L 107,107 L 108,107 L 109,108 L 109,109 L 110,109 L 111,110 L 111,111 L 112,111 L 113,112 L 113,113 L 114,113 L 120,119 L 121,119 L 123,121 L 124,121 L 125,122 L 125,123 L 126,123 L 128,125 L 129,125 L 131,127 L 132,127 L 133,128 L 133,129 L 134,129 L 136,131 L 138,131 L 139,132 L 139,133 L 140,133 L 142,135 L 143,135 L 145,137 L 146,137 L 149,140 L 150,140 L 151,141 L 152,141 L 155,144 L 155,145 L 156,145 L 157,146 L 157,147 L 158,147 L 160,149 L 161,149 L 163,151 L 164,151 L 167,154 L 167,155 L 168,155 L 170,157 L 171,157 L 175,161 L 176,161 L 177,162 L 177,163 L 178,163 L 185,170 L 186,170 L 187,169 L 187,167 L 186,166 L 185,166 L 182,163 L 182,161 L 183,160 L 185,160 L 188,163 L 190,163 L 191,164 L 192,164 L 193,165 L 194,165 L 195,166 L 196,166 L 197,167 L 198,167 L 199,168 L 200,168 L 201,169 L 202,169 L 203,170 L 204,170 L 205,171 L 207,171 L 208,172 L 209,172 L 210,173 L 212,173 L 214,175 L 216,175 L 218,177 L 220,177 L 221,178 L 222,178 L 223,179 L 226,179 L 227,180 L 231,180 L 232,179 L 232,177 L 231,176 L 229,176 L 228,175 L 227,175 L 226,174 L 225,174 L 224,173 L 223,173 L 222,172 L 219,172 L 217,170 L 214,170 L 212,168 L 211,168 L 210,167 L 209,167 L 208,166 L 205,166 L 203,164 L 201,164 L 200,163 L 199,163 L 198,162 L 196,162 L 194,160 L 193,160 L 191,158 L 188,158 L 186,156 L 186,155 L 188,153 L 191,153 L 192,154 L 194,154 L 195,155 L 196,155 L 196,154 L 197,153 L 196,152 L 196,151 L 195,151 L 194,150 L 191,150 L 190,149 L 189,149 L 188,148 L 185,148 L 184,147 L 183,147 L 182,146 L 179,146 L 178,145 L 177,145 L 176,144 L 173,144 L 171,142 L 168,142 L 167,141 L 166,141 L 165,140 L 162,140 L 161,139 L 160,139 L 159,138 L 157,138 L 156,137 L 155,137 L 154,136 L 153,136 L 152,135 L 152,134 L 150,132 L 147,132 L 145,130 L 143,130 L 142,129 L 142,128 L 141,128 L 139,126 L 138,126 L 136,124 L 136,123 L 135,123 L 134,122 L 133,122 L 130,119 L 130,118 L 127,118 L 122,113 L 122,112 L 121,112 L 118,109 L 117,109 L 116,108 L 115,108 L 114,107 L 114,106 L 113,106 L 107,100 L 106,100 L 104,98 L 104,97 L 102,95 L 102,94 L 101,94 L 100,93 L 99,93 L 87,81 L 87,80 L 86,79 L 86,78 L 85,78 L 82,75 L 82,74 L 81,74 L 78,71 L 78,70 L 76,68 L 76,66 L 74,64 L 74,62 L 72,60 L 72,59 L 70,57 L 70,56 L 69,55 L 69,54 L 68,53 L 68,52 L 66,50 L 66,48 L 64,46 L 64,45 L 62,43 L 62,41 L 60,39 L 60,38 L 58,36 L 58,33 L 56,31 L 55,31 L 55,32 L 54,33 L 55,34 L 55,39 L 54,40 L 53,40 L 47,34 L 47,33 L 46,32 L 46,30 L 40,24 L 40,22 L 38,20 L 38,19 L 37,18 L 37,17 L 34,14 L 34,13 Z" fill="black" /><path d="M 0,0 L 0,221 L 254,221 L 254,0 Z" fill="none" stroke="black" stroke-width="1" /></svg>