<?xml version='1.0' encoding='utf-8'?>
<svg width="260" height="218" xmlns="http://www.w3.org/2000/svg" viewBox="0 0 260 218"><rect width="260" height="218" fill="white" /><path d="M 108,71 L 107,72 L 97,72 L 95,74 L 91,74 L 89,76 L 88,76 L 87,77 L 86,77 L 85,78 L 84,78 L 82,80 L 80,80 L 78,82 L 78,83 L 77,84 L 76,84 L 73,87 L 72,87 L 67,92 L 67,93 L 66,94 L 65,94 L 64,95 L 64,96 L 62,98 L 62,99 L 59,102 L 58,102 L 58,103 L 56,105 L 56,106 L 52,110 L 52,111 L 51,112 L 50,112 L 50,113 L 48,115 L 48,116 L 44,120 L 44,121 L 40,125 L 40,126 L 38,128 L 38,133 L 39,134 L 40,133 L 41,133 L 43,131 L 43,129 L 45,127 L 45,126 L 49,122 L 49,120 L 53,116 L 53,115 L 57,111 L 57,110 L 60,107 L 60,106 L 64,102 L 65,102 L 65,101 L 67,99 L 67,98 L 68,97 L 69,97 L 71,95 L 71,94 L 72,93 L 73,93 L 77,89 L 78,89 L 84,83 L 86,83 L 88,81 L 89,81 L 92,78 L 94,78 L 95,77 L 111,77 L 112,78 L 113,78 L 116,81 L 117,81 L 120,84 L 120,85 L 122,87 L 122,89 L 124,91 L 124,93 L 126,95 L 126,98 L 124,100 L 122,100 L 121,99 L 121,96 L 120,95 L 120,94 L 119,94 L 118,93 L 117,94 L 117,96 L 118,97 L 118,98 L 119,99 L 119,100 L 120,101 L 120,105 L 121,106 L 121,107 L 122,108 L 122,111 L 123,112 L 123,114 L 124,115 L 124,119 L 126,121 L 126,125 L 127,126 L 127,135 L 126,136 L 126,163 L 127,164 L 127,165 L 128,166 L 128,169 L 129,170 L 129,171 L 130,172 L 130,174 L 131,175 L 131,176 L 132,177 L 132,178 L 134,180 L 134,181 L 140,187 L 140,188 L 141,189 L 142,189 L 146,193 L 147,193 L 149,195 L 151,195 L 152,196 L 153,196 L 154,197 L 156,197 L 158,199 L 163,199 L 164,200 L 167,200 L 168,201 L 179,201 L 180,200 L 182,200 L 183,199 L 188,199 L 190,197 L 193,197 L 195,195 L 196,195 L 197,194 L 198,194 L 199,193 L 201,193 L 205,189 L 207,189 L 213,183 L 213,182 L 214,181 L 215,181 L 219,177 L 219,176 L 221,174 L 221,172 L 224,169 L 224,168 L 226,166 L 229,169 L 229,173 L 231,173 L 231,168 L 232,167 L 232,163 L 233,162 L 233,157 L 234,156 L 234,154 L 235,153 L 235,146 L 236,145 L 236,142 L 237,141 L 237,135 L 239,133 L 239,130 L 240,129 L 240,126 L 241,125 L 241,121 L 243,119 L 243,116 L 244,115 L 244,112 L 245,111 L 245,108 L 246,107 L 246,105 L 247,104 L 247,101 L 248,100 L 248,95 L 249,94 L 249,89 L 248,88 L 244,88 L 244,93 L 243,94 L 243,97 L 242,98 L 242,103 L 241,104 L 241,105 L 240,106 L 240,113 L 239,114 L 239,115 L 238,116 L 238,118 L 237,119 L 237,121 L 236,122 L 236,127 L 235,128 L 235,129 L 234,130 L 234,132 L 233,133 L 233,134 L 232,135 L 232,138 L 230,140 L 230,141 L 228,143 L 228,144 L 226,146 L 226,147 L 225,148 L 225,149 L 224,150 L 224,151 L 220,155 L 220,157 L 219,158 L 218,158 L 218,159 L 216,161 L 216,162 L 214,164 L 214,165 L 216,165 L 216,164 L 219,161 L 221,163 L 221,164 L 220,165 L 220,166 L 218,168 L 218,169 L 214,173 L 214,174 L 212,176 L 212,177 L 211,178 L 210,178 L 210,179 L 207,182 L 206,182 L 200,188 L 198,188 L 196,190 L 195,190 L 193,192 L 190,192 L 189,193 L 188,193 L 187,194 L 184,194 L 183,195 L 178,195 L 177,196 L 166,196 L 165,195 L 163,195 L 162,194 L 160,194 L 159,193 L 158,193 L 157,192 L 154,192 L 153,191 L 153,190 L 152,190 L 151,189 L 150,189 L 149,188 L 148,188 L 147,187 L 147,186 L 146,186 L 141,181 L 141,180 L 139,178 L 139,177 L 138,176 L 137,176 L 135,174 L 135,170 L 134,169 L 134,168 L 133,167 L 133,164 L 132,163 L 132,162 L 131,161 L 131,146 L 130,145 L 131,144 L 131,142 L 132,141 L 132,138 L 133,137 L 133,128 L 134,127 L 134,124 L 135,123 L 135,118 L 136,117 L 136,115 L 137,114 L 137,105 L 138,104 L 138,102 L 139,101 L 139,92 L 140,91 L 140,90 L 139,89 L 138,89 L 136,91 L 136,98 L 135,99 L 134,99 L 133,100 L 132,100 L 131,99 L 131,95 L 129,93 L 129,89 L 128,88 L 128,86 L 127,85 L 127,83 L 123,79 L 122,79 L 120,77 L 120,76 L 119,76 L 117,74 L 116,74 L 115,73 L 114,73 L 113,72 L 110,72 L 109,71 Z" fill="black" /><path d="M 0,0 L 0,217 L 259,217 L 259,0 Z" fill="none" stroke="black" stroke-width="1" /></svg>