<?xml version='1.0' encoding='utf-8'?>
<svg width="259" height="216" xmlns="http://www.w3.org/2000/svg" viewBox="0 0 259 216"><rect width="259" height="216" fill="white" /><path d="M 105,32 L 105,33 L 100,38 L 100,39 L 97,42 L 97,43 L 95,45 L 95,46 L 90,51 L 90,52 L 89,53 L 89,54 L 86,57 L 85,57 L 84,56 L 84,55 L 83,54 L 86,51 L 86,49 L 85,48 L 85,46 L 84,45 L 83,45 L 82,46 L 82,47 L 83,48 L 83,49 L 82,50 L 82,51 L 81,52 L 81,56 L 80,57 L 80,58 L 79,59 L 79,62 L 78,63 L 78,64 L 77,65 L 77,69 L 76,70 L 76,71 L 75,72 L 75,75 L 73,77 L 73,79 L 72,80 L 72,81 L 71,82 L 71,83 L 70,84 L 70,85 L 69,86 L 69,89 L 67,91 L 67,93 L 66,94 L 66,95 L 65,96 L 65,99 L 64,100 L 64,101 L 63,102 L 63,105 L 61,107 L 61,112 L 60,113 L 60,116 L 59,117 L 59,124 L 58,125 L 58,132 L 57,133 L 57,151 L 58,152 L 58,154 L 59,155 L 59,159 L 60,160 L 60,161 L 61,162 L 61,164 L 62,165 L 62,166 L 63,167 L 63,168 L 65,170 L 65,171 L 66,171 L 67,172 L 67,173 L 69,175 L 70,175 L 71,176 L 71,177 L 73,179 L 74,179 L 75,180 L 76,180 L 77,181 L 80,181 L 81,182 L 82,182 L 83,183 L 88,183 L 89,184 L 90,184 L 91,185 L 99,185 L 100,184 L 102,184 L 103,183 L 109,183 L 110,182 L 114,182 L 115,181 L 117,181 L 118,180 L 120,180 L 121,179 L 124,179 L 125,178 L 127,178 L 128,177 L 130,177 L 131,176 L 132,176 L 133,175 L 136,175 L 137,174 L 138,174 L 139,173 L 140,173 L 141,172 L 142,172 L 143,171 L 146,171 L 146,170 L 147,169 L 149,169 L 151,167 L 153,167 L 155,165 L 156,165 L 157,164 L 158,164 L 159,163 L 160,163 L 161,162 L 162,162 L 163,161 L 164,161 L 164,160 L 165,159 L 166,159 L 167,158 L 168,158 L 169,157 L 170,157 L 170,156 L 171,155 L 173,155 L 177,151 L 178,151 L 180,149 L 180,148 L 181,147 L 182,147 L 184,145 L 185,145 L 186,144 L 186,142 L 187,141 L 188,141 L 188,140 L 190,138 L 190,137 L 192,135 L 192,132 L 193,131 L 193,130 L 194,129 L 194,128 L 195,127 L 196,127 L 198,129 L 198,130 L 197,131 L 198,132 L 198,138 L 200,138 L 200,137 L 201,136 L 201,134 L 202,133 L 202,129 L 203,128 L 203,127 L 204,126 L 204,122 L 205,121 L 205,119 L 206,118 L 206,113 L 207,112 L 207,111 L 208,110 L 208,106 L 209,105 L 209,104 L 210,103 L 210,102 L 211,101 L 211,100 L 212,99 L 212,96 L 213,95 L 213,93 L 214,92 L 214,90 L 215,89 L 215,88 L 216,87 L 216,84 L 217,83 L 217,82 L 218,81 L 218,78 L 219,77 L 219,74 L 220,73 L 220,69 L 221,68 L 221,66 L 222,65 L 222,58 L 223,57 L 223,54 L 224,53 L 224,48 L 225,47 L 225,40 L 224,39 L 224,35 L 223,35 L 221,37 L 221,46 L 220,47 L 220,52 L 219,53 L 219,59 L 218,60 L 218,63 L 217,64 L 217,67 L 216,68 L 216,69 L 215,70 L 215,73 L 214,74 L 214,75 L 213,76 L 213,78 L 212,79 L 212,81 L 211,82 L 211,85 L 209,87 L 209,89 L 208,90 L 208,91 L 207,92 L 207,95 L 205,97 L 205,100 L 203,102 L 203,103 L 199,107 L 199,108 L 197,110 L 197,111 L 193,115 L 193,116 L 189,120 L 189,121 L 188,122 L 187,122 L 182,127 L 182,128 L 184,128 L 185,127 L 187,127 L 188,126 L 190,126 L 191,127 L 191,128 L 190,129 L 190,130 L 188,132 L 187,132 L 187,133 L 186,134 L 186,135 L 183,138 L 183,139 L 182,140 L 181,140 L 181,141 L 180,142 L 179,142 L 179,143 L 178,144 L 177,144 L 173,148 L 172,148 L 170,150 L 169,150 L 165,154 L 164,154 L 162,156 L 161,156 L 159,158 L 158,158 L 156,160 L 155,160 L 154,161 L 153,161 L 152,162 L 151,162 L 150,163 L 149,163 L 148,164 L 147,164 L 146,165 L 145,165 L 144,166 L 142,166 L 140,168 L 138,168 L 137,169 L 135,169 L 134,170 L 133,170 L 131,172 L 128,172 L 127,173 L 125,173 L 124,174 L 121,174 L 119,176 L 115,176 L 114,177 L 112,177 L 111,178 L 107,178 L 106,179 L 103,179 L 102,180 L 89,180 L 88,179 L 87,179 L 86,178 L 81,178 L 80,177 L 79,177 L 78,176 L 77,176 L 75,174 L 74,174 L 72,172 L 72,171 L 70,169 L 70,168 L 69,168 L 68,167 L 68,166 L 66,164 L 65,164 L 64,163 L 64,154 L 63,153 L 63,150 L 62,149 L 62,143 L 63,142 L 63,133 L 62,132 L 62,131 L 63,130 L 63,128 L 62,127 L 64,125 L 64,124 L 63,123 L 63,122 L 64,121 L 64,119 L 65,118 L 65,114 L 66,113 L 66,112 L 67,111 L 67,106 L 68,105 L 68,102 L 69,101 L 69,100 L 72,97 L 72,95 L 73,94 L 73,93 L 75,91 L 76,91 L 76,89 L 80,85 L 80,84 L 83,81 L 84,81 L 84,80 L 98,66 L 99,66 L 99,63 L 96,63 L 93,66 L 92,66 L 90,64 L 90,60 L 92,58 L 92,56 L 95,53 L 96,53 L 96,52 L 102,46 L 102,45 L 104,43 L 104,42 L 105,41 L 106,41 L 106,39 L 109,36 L 109,33 L 108,32 Z" fill="black" /><path d="M 0,0 L 0,215 L 258,215 L 258,0 Z" fill="none" stroke="black" stroke-width="1" /></svg>