<?xml version='1.0' encoding='utf-8'?>
<svg width="256" height="220" xmlns="http://www.w3.org/2000/svg" viewBox="0 0 256 220"><rect width="256" height="220" fill="white" /><path d="M 9,13 L 9,14 L 8,15 L 8,17 L 10,19 L 10,20 L 11,20 L 12,21 L 12,22 L 14,24 L 14,25 L 18,29 L 18,30 L 20,32 L 20,34 L 22,36 L 22,37 L 24,39 L 24,40 L 25,41 L 25,42 L 26,43 L 26,44 L 29,47 L 29,48 L 32,51 L 32,53 L 34,55 L 34,57 L 36,59 L 36,60 L 37,61 L 37,62 L 40,65 L 40,66 L 41,67 L 41,68 L 42,69 L 42,71 L 44,71 L 45,70 L 45,69 L 43,67 L 43,63 L 44,62 L 45,62 L 46,63 L 47,63 L 48,64 L 48,65 L 52,69 L 52,70 L 53,70 L 56,73 L 56,74 L 57,74 L 58,75 L 58,76 L 64,82 L 65,82 L 66,83 L 66,84 L 67,84 L 68,85 L 68,86 L 69,86 L 80,97 L 81,97 L 84,100 L 85,100 L 86,101 L 86,102 L 87,102 L 91,106 L 92,106 L 94,108 L 95,108 L 96,109 L 96,110 L 97,110 L 98,111 L 98,112 L 99,112 L 103,116 L 104,116 L 106,118 L 107,118 L 108,119 L 108,120 L 109,120 L 111,122 L 112,122 L 114,124 L 115,124 L 118,127 L 119,127 L 122,130 L 123,130 L 125,132 L 126,132 L 128,134 L 130,134 L 132,136 L 133,136 L 134,137 L 134,138 L 135,138 L 136,139 L 137,139 L 138,140 L 139,140 L 141,142 L 142,142 L 144,144 L 145,144 L 147,146 L 148,146 L 149,147 L 150,147 L 151,148 L 152,148 L 154,150 L 155,150 L 156,151 L 157,151 L 158,152 L 159,152 L 160,153 L 161,153 L 162,154 L 163,154 L 164,155 L 165,155 L 166,156 L 167,156 L 168,157 L 169,157 L 170,158 L 171,158 L 172,159 L 172,160 L 173,160 L 174,161 L 175,161 L 176,162 L 177,162 L 178,163 L 178,164 L 179,164 L 180,165 L 181,165 L 182,166 L 183,166 L 184,167 L 185,167 L 186,168 L 187,168 L 190,171 L 191,171 L 194,174 L 195,174 L 198,177 L 199,177 L 202,180 L 203,180 L 206,183 L 207,183 L 208,184 L 209,183 L 209,182 L 205,178 L 205,176 L 207,174 L 210,174 L 212,176 L 215,176 L 216,177 L 217,177 L 218,178 L 220,178 L 221,179 L 222,179 L 223,180 L 228,180 L 229,181 L 233,181 L 234,180 L 234,178 L 231,175 L 228,175 L 227,174 L 226,174 L 225,173 L 221,173 L 220,172 L 218,172 L 217,171 L 216,171 L 214,169 L 213,170 L 211,170 L 209,168 L 209,167 L 211,165 L 212,165 L 213,166 L 215,166 L 216,165 L 216,164 L 215,163 L 213,163 L 212,162 L 210,162 L 209,161 L 205,161 L 204,160 L 203,160 L 202,159 L 198,159 L 197,158 L 194,158 L 193,157 L 186,157 L 185,156 L 181,156 L 180,155 L 177,155 L 175,153 L 171,153 L 169,151 L 168,151 L 167,150 L 166,150 L 165,149 L 164,149 L 163,148 L 162,148 L 161,147 L 160,147 L 159,146 L 158,146 L 157,145 L 156,145 L 155,144 L 154,144 L 151,141 L 150,141 L 149,140 L 148,140 L 147,139 L 146,139 L 145,138 L 145,137 L 144,137 L 143,136 L 142,136 L 141,135 L 140,135 L 138,133 L 136,133 L 133,130 L 132,130 L 131,129 L 130,129 L 128,127 L 127,127 L 126,126 L 126,125 L 124,125 L 121,122 L 120,122 L 116,118 L 115,118 L 114,117 L 113,117 L 111,115 L 110,115 L 109,114 L 109,113 L 108,113 L 106,111 L 105,111 L 103,109 L 102,109 L 101,108 L 101,107 L 100,107 L 95,102 L 94,102 L 93,101 L 92,101 L 91,100 L 91,99 L 90,99 L 89,98 L 89,97 L 88,97 L 87,96 L 87,95 L 86,95 L 85,94 L 85,93 L 84,93 L 82,91 L 80,91 L 77,88 L 77,87 L 73,83 L 72,83 L 71,82 L 71,81 L 70,81 L 69,80 L 69,79 L 68,79 L 67,78 L 67,77 L 66,77 L 65,76 L 65,75 L 61,71 L 60,71 L 59,70 L 59,69 L 55,65 L 54,65 L 53,64 L 53,63 L 52,62 L 52,61 L 53,60 L 56,60 L 57,61 L 60,61 L 60,60 L 57,57 L 56,57 L 52,53 L 51,53 L 47,49 L 46,49 L 43,46 L 43,45 L 42,45 L 38,41 L 37,41 L 31,35 L 30,35 L 27,32 L 27,31 L 26,31 L 23,28 L 23,26 L 21,24 L 21,23 L 20,23 L 19,22 L 19,21 L 17,19 L 17,18 L 15,16 L 15,15 L 13,13 Z" fill="black" /><path d="M 0,0 L 0,219 L 255,219 L 255,0 Z" fill="none" stroke="black" stroke-width="1" /></svg>