<?xml version='1.0' encoding='utf-8'?>
<svg width="257" height="217" xmlns="http://www.w3.org/2000/svg" viewBox="0 0 257 217"><rect width="257" height="217" fill="white" /><path d="M 203,34 L 202,35 L 198,35 L 197,36 L 194,36 L 193,37 L 192,37 L 191,38 L 190,38 L 188,40 L 186,40 L 186,41 L 185,42 L 184,42 L 182,44 L 182,45 L 181,46 L 180,46 L 180,48 L 178,50 L 178,55 L 177,56 L 177,57 L 176,58 L 176,71 L 175,72 L 175,78 L 174,79 L 174,85 L 173,86 L 173,87 L 172,88 L 172,93 L 171,94 L 171,97 L 170,98 L 170,100 L 168,102 L 168,105 L 166,107 L 166,108 L 165,109 L 165,110 L 164,111 L 164,112 L 162,114 L 162,115 L 160,117 L 160,118 L 158,120 L 158,121 L 154,125 L 154,126 L 149,131 L 148,131 L 145,134 L 144,134 L 144,135 L 143,136 L 142,136 L 140,138 L 139,138 L 137,140 L 136,140 L 136,141 L 135,142 L 134,142 L 133,143 L 132,143 L 131,144 L 130,144 L 128,146 L 126,146 L 125,147 L 124,147 L 123,148 L 122,148 L 120,150 L 117,150 L 116,151 L 114,151 L 113,152 L 108,152 L 107,153 L 106,153 L 105,154 L 100,154 L 99,155 L 98,155 L 97,156 L 81,156 L 80,155 L 78,155 L 77,154 L 74,154 L 73,153 L 72,153 L 71,152 L 65,152 L 63,150 L 59,150 L 57,148 L 56,148 L 55,147 L 55,146 L 52,146 L 48,142 L 47,142 L 45,140 L 44,140 L 43,139 L 43,138 L 42,138 L 41,137 L 40,137 L 39,136 L 39,135 L 33,129 L 33,127 L 31,125 L 31,124 L 29,122 L 29,119 L 27,117 L 27,116 L 26,115 L 26,114 L 25,113 L 25,107 L 24,106 L 24,102 L 23,101 L 23,90 L 24,89 L 24,88 L 25,87 L 25,86 L 27,84 L 27,82 L 28,81 L 28,80 L 29,79 L 29,78 L 30,77 L 31,77 L 31,76 L 34,73 L 34,72 L 37,69 L 37,68 L 40,65 L 41,65 L 41,64 L 42,63 L 43,63 L 43,62 L 44,61 L 45,61 L 45,60 L 46,59 L 47,59 L 49,57 L 51,57 L 53,55 L 54,55 L 55,54 L 54,53 L 51,53 L 50,54 L 49,54 L 48,55 L 46,55 L 45,56 L 44,56 L 43,57 L 42,57 L 41,58 L 40,58 L 39,59 L 37,59 L 36,60 L 34,58 L 35,57 L 35,56 L 37,54 L 39,54 L 40,53 L 40,52 L 41,51 L 41,50 L 42,49 L 43,49 L 47,45 L 48,45 L 50,43 L 51,43 L 52,42 L 53,42 L 54,41 L 55,41 L 57,39 L 57,38 L 58,37 L 56,35 L 55,36 L 54,36 L 53,37 L 52,37 L 51,38 L 50,38 L 48,40 L 47,40 L 45,42 L 44,42 L 44,43 L 43,44 L 41,44 L 37,48 L 37,49 L 32,54 L 29,54 L 28,53 L 28,48 L 27,47 L 25,49 L 25,50 L 26,51 L 25,52 L 25,54 L 24,55 L 24,61 L 23,62 L 23,64 L 22,65 L 22,70 L 21,71 L 21,73 L 20,74 L 20,81 L 19,82 L 19,84 L 18,85 L 18,100 L 19,101 L 19,107 L 20,108 L 20,111 L 22,113 L 22,117 L 23,118 L 23,119 L 24,120 L 24,122 L 26,124 L 26,126 L 28,128 L 28,129 L 32,133 L 32,134 L 34,136 L 34,137 L 35,137 L 36,138 L 36,139 L 37,139 L 38,140 L 38,141 L 39,141 L 40,142 L 40,143 L 41,143 L 42,144 L 42,145 L 43,145 L 44,146 L 45,146 L 46,147 L 47,147 L 49,149 L 50,149 L 52,151 L 53,151 L 55,153 L 56,153 L 58,155 L 61,155 L 62,156 L 63,156 L 64,157 L 65,157 L 66,158 L 67,158 L 68,159 L 73,159 L 74,160 L 75,160 L 76,161 L 96,161 L 97,160 L 100,160 L 101,159 L 107,159 L 108,158 L 109,158 L 110,157 L 114,157 L 115,156 L 116,156 L 117,155 L 120,155 L 121,154 L 123,154 L 124,153 L 125,153 L 127,151 L 129,151 L 131,149 L 133,149 L 134,148 L 135,148 L 136,147 L 137,147 L 139,145 L 140,145 L 142,143 L 143,143 L 143,142 L 144,141 L 145,141 L 149,137 L 150,137 L 151,136 L 151,135 L 152,134 L 153,134 L 160,127 L 160,126 L 161,125 L 161,124 L 162,123 L 163,123 L 163,122 L 165,120 L 165,119 L 167,117 L 167,116 L 169,114 L 169,111 L 171,109 L 171,108 L 172,107 L 172,106 L 173,105 L 173,102 L 174,101 L 175,101 L 175,98 L 176,97 L 176,94 L 177,93 L 177,90 L 178,89 L 178,88 L 179,87 L 179,80 L 180,79 L 180,78 L 181,77 L 181,67 L 182,66 L 182,63 L 183,62 L 183,54 L 184,53 L 184,52 L 185,51 L 185,50 L 188,47 L 188,46 L 190,44 L 191,44 L 192,43 L 193,43 L 194,42 L 195,42 L 196,41 L 199,41 L 200,40 L 207,40 L 208,41 L 213,41 L 214,42 L 215,42 L 216,43 L 217,43 L 219,45 L 220,45 L 223,48 L 223,49 L 224,50 L 224,51 L 225,51 L 226,52 L 226,54 L 228,56 L 228,58 L 230,60 L 230,62 L 232,64 L 232,65 L 233,66 L 233,67 L 234,68 L 234,71 L 235,72 L 235,73 L 236,74 L 236,76 L 237,77 L 237,78 L 238,79 L 238,83 L 239,84 L 239,89 L 240,90 L 240,95 L 241,96 L 241,105 L 242,106 L 242,107 L 241,108 L 241,115 L 240,116 L 240,121 L 239,122 L 239,129 L 238,130 L 238,135 L 236,137 L 235,136 L 235,133 L 234,132 L 234,131 L 232,131 L 232,137 L 231,138 L 231,143 L 230,144 L 230,151 L 229,152 L 229,154 L 228,155 L 228,159 L 227,160 L 227,161 L 226,162 L 226,167 L 225,168 L 225,169 L 224,170 L 224,173 L 223,174 L 223,175 L 222,176 L 222,179 L 220,181 L 220,183 L 219,184 L 219,185 L 218,186 L 218,189 L 216,191 L 216,193 L 215,194 L 216,195 L 216,196 L 217,195 L 218,195 L 219,194 L 220,194 L 221,193 L 221,192 L 222,191 L 222,190 L 223,189 L 223,188 L 225,186 L 225,185 L 227,183 L 227,182 L 229,180 L 229,179 L 231,177 L 231,176 L 233,174 L 233,172 L 235,170 L 235,169 L 237,167 L 237,164 L 239,162 L 239,160 L 241,158 L 241,156 L 243,154 L 243,152 L 244,151 L 245,151 L 245,148 L 246,147 L 246,146 L 247,145 L 247,144 L 248,143 L 248,142 L 249,141 L 249,140 L 250,139 L 250,137 L 251,136 L 251,135 L 252,134 L 252,132 L 251,131 L 250,131 L 249,132 L 249,133 L 248,134 L 248,136 L 245,139 L 244,139 L 243,138 L 243,137 L 242,136 L 243,135 L 243,126 L 245,124 L 245,111 L 247,109 L 247,102 L 246,101 L 246,92 L 245,91 L 245,82 L 244,81 L 244,80 L 245,79 L 243,77 L 243,74 L 242,73 L 242,72 L 241,71 L 241,67 L 237,63 L 237,59 L 235,57 L 235,56 L 234,55 L 234,54 L 233,53 L 233,52 L 231,50 L 231,49 L 225,43 L 225,42 L 224,42 L 221,39 L 220,39 L 219,38 L 217,38 L 215,36 L 211,36 L 210,35 L 206,35 L 205,34 Z" fill="black" /><path d="M 0,0 L 0,216 L 256,216 L 256,0 Z" fill="none" stroke="black" stroke-width="1" /></svg>