<?xml version='1.0' encoding='utf-8'?>
<svg width="256" height="219" xmlns="http://www.w3.org/2000/svg" viewBox="0 0 256 219"><rect width="256" height="219" fill="white" /><path d="M 95,39 L 93,41 L 92,41 L 90,43 L 90,44 L 89,45 L 88,45 L 88,47 L 86,49 L 86,52 L 85,53 L 84,53 L 84,55 L 82,57 L 82,59 L 80,61 L 80,62 L 78,64 L 78,66 L 76,68 L 76,69 L 74,71 L 74,73 L 72,75 L 72,76 L 71,77 L 71,78 L 70,79 L 70,82 L 69,83 L 68,83 L 68,84 L 67,85 L 67,86 L 66,87 L 66,88 L 65,89 L 65,90 L 64,91 L 64,92 L 63,93 L 63,94 L 62,95 L 62,96 L 60,98 L 60,99 L 58,101 L 58,104 L 57,105 L 56,105 L 56,106 L 55,107 L 55,108 L 54,109 L 54,110 L 52,112 L 52,114 L 50,116 L 50,118 L 48,120 L 48,121 L 47,122 L 47,123 L 46,124 L 46,126 L 47,127 L 47,128 L 48,129 L 48,130 L 50,132 L 50,133 L 52,135 L 52,136 L 55,139 L 55,140 L 56,141 L 56,142 L 59,145 L 59,146 L 60,147 L 60,148 L 64,152 L 64,154 L 67,157 L 67,158 L 68,159 L 68,160 L 69,160 L 70,161 L 70,162 L 71,163 L 71,164 L 74,167 L 74,168 L 75,168 L 76,169 L 76,170 L 78,172 L 78,174 L 79,174 L 80,175 L 80,176 L 82,178 L 82,180 L 83,180 L 84,181 L 84,182 L 87,185 L 87,186 L 88,187 L 88,188 L 92,192 L 92,193 L 95,196 L 96,196 L 97,197 L 105,197 L 106,198 L 124,198 L 125,199 L 126,198 L 127,198 L 128,199 L 129,199 L 130,198 L 131,198 L 132,197 L 133,197 L 134,198 L 138,198 L 139,199 L 140,199 L 141,200 L 142,199 L 145,199 L 146,200 L 165,200 L 166,201 L 170,201 L 171,200 L 171,199 L 173,197 L 173,195 L 174,194 L 175,194 L 175,193 L 177,191 L 177,190 L 181,186 L 181,183 L 182,182 L 183,182 L 184,181 L 184,180 L 186,178 L 187,178 L 187,176 L 189,174 L 189,173 L 192,170 L 192,169 L 193,168 L 193,167 L 196,164 L 196,163 L 197,162 L 197,161 L 198,160 L 199,160 L 199,159 L 201,157 L 201,156 L 203,154 L 203,153 L 204,152 L 205,152 L 205,151 L 206,150 L 206,149 L 207,148 L 207,147 L 210,144 L 210,143 L 211,142 L 211,141 L 212,140 L 213,140 L 213,139 L 215,137 L 215,136 L 217,134 L 217,133 L 219,131 L 219,130 L 223,126 L 223,125 L 226,122 L 227,122 L 227,120 L 229,118 L 229,115 L 227,113 L 227,111 L 226,110 L 226,109 L 225,108 L 225,107 L 223,105 L 223,104 L 221,102 L 221,100 L 219,98 L 219,97 L 218,96 L 218,95 L 215,92 L 215,91 L 213,89 L 213,87 L 212,86 L 212,85 L 211,84 L 211,83 L 210,83 L 209,82 L 209,81 L 207,79 L 207,78 L 205,76 L 205,75 L 204,74 L 204,73 L 203,72 L 203,71 L 201,69 L 201,68 L 199,66 L 199,65 L 197,63 L 197,61 L 196,61 L 195,60 L 195,59 L 194,58 L 194,57 L 193,56 L 193,55 L 192,54 L 192,53 L 191,52 L 191,51 L 190,50 L 190,49 L 185,44 L 185,43 L 183,41 L 160,41 L 159,40 L 158,40 L 157,41 L 156,41 L 155,40 L 140,40 L 139,39 Z" fill="black" /><path d="M 0,0 L 0,218 L 255,218 L 255,0 Z" fill="none" stroke="black" stroke-width="1" /></svg>