<?xml version='1.0' encoding='utf-8'?>
<svg width="258" height="220" xmlns="http://www.w3.org/2000/svg" viewBox="0 0 258 220"><rect width="258" height="220" fill="white" /><path d="M 113,11 L 113,14 L 110,17 L 110,18 L 108,20 L 108,21 L 106,23 L 106,25 L 104,27 L 104,28 L 103,29 L 103,30 L 102,31 L 102,33 L 100,35 L 100,37 L 99,38 L 99,39 L 97,41 L 97,42 L 96,43 L 96,45 L 94,47 L 94,49 L 92,51 L 92,53 L 90,55 L 90,58 L 89,59 L 88,59 L 88,62 L 86,64 L 86,66 L 85,67 L 84,67 L 84,69 L 83,70 L 83,71 L 82,72 L 82,74 L 81,75 L 80,75 L 80,78 L 77,81 L 77,82 L 76,83 L 76,84 L 75,85 L 75,86 L 74,87 L 74,89 L 72,91 L 72,94 L 71,95 L 71,96 L 70,97 L 70,98 L 68,100 L 68,102 L 66,104 L 66,105 L 64,107 L 64,110 L 63,111 L 62,111 L 62,113 L 60,115 L 60,118 L 59,119 L 59,120 L 58,121 L 58,122 L 57,123 L 57,124 L 56,125 L 56,126 L 55,127 L 55,128 L 54,129 L 54,130 L 53,131 L 53,132 L 52,133 L 52,134 L 51,135 L 51,136 L 50,137 L 50,138 L 49,139 L 49,140 L 48,141 L 48,142 L 47,143 L 47,144 L 46,145 L 46,146 L 44,148 L 44,150 L 42,152 L 42,154 L 41,155 L 41,156 L 40,157 L 40,158 L 39,159 L 39,160 L 38,161 L 38,162 L 37,163 L 37,164 L 36,165 L 36,166 L 34,168 L 34,170 L 33,171 L 33,172 L 32,173 L 32,174 L 31,175 L 31,176 L 30,177 L 30,179 L 28,181 L 28,183 L 26,185 L 26,186 L 25,187 L 25,188 L 24,189 L 24,191 L 23,192 L 23,198 L 56,198 L 57,197 L 61,197 L 62,198 L 63,198 L 64,197 L 71,197 L 72,198 L 85,198 L 86,197 L 87,197 L 88,198 L 91,198 L 92,197 L 95,197 L 96,198 L 97,198 L 98,197 L 99,197 L 100,198 L 105,198 L 106,197 L 135,197 L 136,196 L 137,197 L 145,197 L 146,196 L 147,197 L 164,197 L 165,196 L 166,197 L 169,197 L 170,196 L 184,196 L 185,197 L 187,197 L 188,196 L 189,196 L 190,197 L 197,197 L 198,196 L 202,196 L 203,197 L 207,197 L 208,196 L 218,196 L 219,197 L 220,196 L 232,196 L 233,195 L 235,195 L 235,191 L 233,189 L 233,187 L 232,187 L 231,186 L 231,184 L 229,182 L 229,181 L 228,181 L 227,180 L 227,179 L 226,178 L 226,177 L 225,176 L 225,175 L 219,169 L 219,167 L 218,166 L 218,165 L 217,164 L 217,163 L 214,160 L 214,159 L 212,157 L 212,156 L 209,153 L 209,152 L 207,150 L 207,149 L 205,147 L 205,145 L 203,143 L 203,142 L 201,140 L 201,139 L 199,137 L 199,136 L 195,132 L 195,131 L 193,129 L 193,127 L 192,127 L 191,126 L 191,124 L 189,122 L 189,121 L 188,121 L 187,120 L 187,118 L 185,116 L 185,115 L 183,113 L 183,112 L 181,110 L 181,108 L 179,106 L 179,105 L 178,105 L 177,104 L 177,103 L 176,102 L 176,101 L 173,98 L 173,97 L 171,95 L 171,94 L 169,92 L 169,91 L 168,90 L 168,89 L 167,89 L 165,87 L 165,85 L 164,84 L 164,83 L 163,82 L 163,81 L 160,78 L 160,77 L 159,76 L 159,75 L 158,75 L 157,74 L 157,72 L 155,70 L 155,69 L 153,67 L 153,66 L 149,62 L 149,61 L 148,60 L 148,59 L 147,58 L 147,57 L 145,55 L 145,54 L 141,50 L 141,47 L 140,47 L 139,46 L 139,45 L 137,43 L 137,42 L 135,40 L 135,39 L 134,39 L 131,36 L 131,33 L 130,33 L 129,32 L 129,31 L 126,28 L 126,27 L 125,26 L 125,23 L 123,21 L 123,20 L 121,18 L 121,17 L 120,17 L 117,14 L 117,13 L 116,12 L 116,11 Z" fill="black" /><path d="M 0,0 L 0,219 L 257,219 L 257,0 Z" fill="none" stroke="black" stroke-width="1" /></svg>