<?xml version='1.0' encoding='utf-8'?>
<svg width="257" height="218" xmlns="http://www.w3.org/2000/svg" viewBox="0 0 257 218"><rect width="257" height="218" fill="white" /><path d="M 71,28 L 70,29 L 70,34 L 69,35 L 69,37 L 68,38 L 68,42 L 67,43 L 67,44 L 66,45 L 66,48 L 65,49 L 65,51 L 64,52 L 64,56 L 63,57 L 63,60 L 62,61 L 62,64 L 61,65 L 61,67 L 60,68 L 60,72 L 58,74 L 58,79 L 57,80 L 57,82 L 56,83 L 56,87 L 55,88 L 55,89 L 54,90 L 54,94 L 53,95 L 53,96 L 52,97 L 52,100 L 51,101 L 51,102 L 50,103 L 50,108 L 49,109 L 49,112 L 48,113 L 48,116 L 47,117 L 47,119 L 46,120 L 46,124 L 45,125 L 45,126 L 44,127 L 44,132 L 46,134 L 47,134 L 49,136 L 50,136 L 52,138 L 53,138 L 56,141 L 57,141 L 58,142 L 59,142 L 61,144 L 62,144 L 64,146 L 65,146 L 67,148 L 68,148 L 70,150 L 71,150 L 72,151 L 72,152 L 73,152 L 74,153 L 75,153 L 76,154 L 77,154 L 78,155 L 78,156 L 79,156 L 81,158 L 83,158 L 85,160 L 86,160 L 88,162 L 89,162 L 90,163 L 90,164 L 91,164 L 93,166 L 94,166 L 98,170 L 99,170 L 100,171 L 101,171 L 102,172 L 103,172 L 104,173 L 104,174 L 105,174 L 106,175 L 107,175 L 110,178 L 111,178 L 113,180 L 114,180 L 116,182 L 117,182 L 119,184 L 120,184 L 122,186 L 123,186 L 125,188 L 127,188 L 129,190 L 130,190 L 131,191 L 133,191 L 134,190 L 137,190 L 138,191 L 139,191 L 140,190 L 167,190 L 168,189 L 169,189 L 170,188 L 172,188 L 173,189 L 189,189 L 190,188 L 210,188 L 211,187 L 212,187 L 213,186 L 213,185 L 215,183 L 215,179 L 217,177 L 217,173 L 218,172 L 217,171 L 217,169 L 220,166 L 220,164 L 221,163 L 221,160 L 223,158 L 223,155 L 224,154 L 224,152 L 225,151 L 225,149 L 226,148 L 226,146 L 227,145 L 227,141 L 228,140 L 228,139 L 229,138 L 229,136 L 231,134 L 231,129 L 232,128 L 232,127 L 233,126 L 233,123 L 234,122 L 234,121 L 235,120 L 235,118 L 237,116 L 237,107 L 236,106 L 236,105 L 235,104 L 235,102 L 233,100 L 233,99 L 231,97 L 230,97 L 229,96 L 229,95 L 227,93 L 227,92 L 225,90 L 225,89 L 224,89 L 223,88 L 223,87 L 222,86 L 222,85 L 221,84 L 221,83 L 219,81 L 218,81 L 217,80 L 217,78 L 215,76 L 215,75 L 214,75 L 213,74 L 213,72 L 209,68 L 209,67 L 208,67 L 207,66 L 207,64 L 205,62 L 205,61 L 203,59 L 203,58 L 201,56 L 201,55 L 197,51 L 197,50 L 195,48 L 195,47 L 194,46 L 194,45 L 193,44 L 193,43 L 192,43 L 191,42 L 191,41 L 189,39 L 189,38 L 187,36 L 187,35 L 186,35 L 184,33 L 160,33 L 159,32 L 151,32 L 150,31 L 146,31 L 145,32 L 144,31 L 120,31 L 119,30 L 104,30 L 103,29 L 74,29 L 73,28 Z" fill="black" /></svg>