<?xml version='1.0' encoding='utf-8'?>
<svg width="257" height="219" xmlns="http://www.w3.org/2000/svg" viewBox="0 0 257 219"><rect width="257" height="219" fill="white" /><path d="M 97,10 L 94,13 L 94,15 L 92,17 L 92,18 L 91,19 L 91,20 L 90,21 L 90,22 L 89,23 L 88,23 L 86,25 L 86,28 L 84,30 L 84,31 L 82,33 L 82,34 L 80,36 L 80,37 L 78,39 L 78,40 L 76,42 L 76,44 L 74,46 L 74,47 L 72,49 L 72,50 L 71,51 L 71,52 L 70,53 L 70,54 L 68,56 L 68,58 L 67,59 L 66,59 L 66,60 L 65,61 L 65,62 L 64,63 L 64,64 L 61,67 L 61,68 L 60,69 L 60,70 L 59,71 L 59,72 L 58,73 L 58,74 L 57,75 L 56,75 L 56,76 L 55,77 L 55,78 L 54,79 L 54,80 L 52,82 L 52,84 L 51,85 L 50,85 L 50,86 L 49,87 L 49,88 L 48,89 L 48,90 L 46,92 L 46,93 L 44,95 L 44,96 L 43,97 L 43,98 L 41,100 L 41,101 L 40,102 L 40,103 L 38,105 L 38,106 L 36,108 L 36,110 L 34,112 L 34,114 L 32,116 L 32,117 L 33,117 L 38,122 L 39,122 L 41,124 L 43,124 L 44,125 L 44,126 L 45,126 L 46,127 L 47,127 L 48,128 L 49,128 L 50,129 L 50,130 L 51,130 L 53,132 L 55,132 L 56,133 L 56,134 L 58,136 L 60,136 L 62,138 L 63,138 L 67,142 L 68,142 L 70,144 L 72,144 L 74,146 L 75,146 L 76,147 L 76,148 L 77,148 L 79,150 L 80,150 L 82,152 L 83,152 L 85,154 L 86,154 L 88,156 L 89,156 L 90,157 L 90,158 L 91,158 L 92,159 L 93,159 L 94,160 L 95,160 L 97,162 L 98,162 L 100,164 L 101,164 L 105,168 L 107,168 L 108,169 L 108,170 L 109,170 L 110,171 L 111,171 L 114,174 L 116,174 L 118,176 L 118,177 L 119,178 L 121,178 L 122,179 L 123,179 L 124,180 L 125,180 L 126,181 L 126,182 L 128,182 L 132,186 L 133,186 L 135,188 L 136,188 L 137,189 L 138,189 L 139,190 L 140,190 L 144,194 L 147,194 L 147,193 L 151,189 L 151,188 L 153,186 L 153,184 L 155,182 L 155,181 L 157,179 L 157,178 L 159,176 L 159,173 L 161,171 L 162,171 L 163,170 L 163,168 L 165,166 L 165,165 L 167,163 L 167,161 L 168,160 L 169,160 L 169,159 L 170,158 L 170,157 L 171,156 L 171,155 L 172,154 L 173,154 L 173,153 L 175,151 L 175,150 L 177,148 L 177,147 L 178,146 L 178,144 L 180,142 L 181,142 L 181,140 L 182,139 L 182,137 L 185,134 L 185,133 L 187,131 L 187,130 L 189,128 L 189,127 L 190,126 L 190,125 L 191,124 L 191,123 L 192,122 L 193,122 L 193,121 L 194,120 L 194,119 L 195,118 L 195,117 L 196,116 L 197,116 L 197,115 L 199,113 L 199,112 L 201,110 L 201,109 L 203,107 L 203,105 L 204,104 L 205,104 L 205,103 L 206,102 L 206,101 L 207,100 L 207,99 L 209,97 L 209,96 L 211,94 L 211,93 L 213,91 L 213,90 L 215,88 L 215,87 L 217,85 L 217,84 L 219,82 L 219,81 L 221,79 L 221,76 L 220,76 L 219,75 L 218,75 L 217,74 L 216,74 L 215,73 L 214,73 L 213,72 L 213,71 L 211,71 L 209,69 L 207,69 L 205,67 L 203,67 L 201,65 L 200,65 L 198,63 L 197,63 L 196,62 L 195,62 L 194,61 L 193,61 L 191,59 L 190,59 L 188,57 L 186,57 L 184,55 L 182,55 L 181,54 L 181,53 L 179,53 L 177,51 L 175,51 L 173,49 L 172,49 L 171,48 L 170,48 L 169,47 L 168,47 L 167,46 L 166,46 L 163,43 L 160,43 L 159,42 L 159,41 L 158,41 L 157,40 L 156,40 L 155,39 L 154,39 L 153,38 L 152,38 L 151,37 L 150,37 L 148,35 L 147,35 L 145,33 L 142,33 L 141,32 L 141,31 L 140,31 L 139,30 L 138,30 L 137,29 L 135,29 L 133,27 L 132,27 L 130,25 L 128,25 L 127,24 L 126,24 L 125,23 L 124,23 L 123,22 L 123,21 L 121,21 L 119,19 L 118,19 L 116,17 L 114,17 L 112,15 L 111,15 L 109,13 L 106,13 L 105,12 L 104,12 L 103,11 L 100,11 L 99,10 Z" fill="black" /></svg>