<?xml version='1.0' encoding='utf-8'?>
<svg width="257" height="219" xmlns="http://www.w3.org/2000/svg" viewBox="0 0 257 219"><rect width="257" height="219" fill="white" /><path d="M 86,41 L 85,42 L 85,43 L 84,44 L 84,45 L 83,46 L 83,48 L 81,50 L 81,55 L 80,56 L 80,57 L 79,58 L 79,60 L 77,62 L 77,66 L 76,67 L 76,68 L 75,69 L 75,71 L 73,73 L 73,76 L 72,77 L 72,78 L 71,79 L 71,82 L 70,83 L 70,84 L 69,85 L 69,88 L 67,90 L 67,94 L 65,96 L 65,99 L 64,100 L 64,101 L 63,102 L 63,105 L 62,106 L 62,107 L 61,108 L 61,110 L 60,111 L 60,113 L 59,114 L 59,115 L 58,116 L 58,117 L 57,118 L 57,122 L 56,123 L 56,124 L 55,125 L 55,127 L 54,128 L 54,129 L 53,130 L 53,132 L 52,133 L 52,134 L 51,135 L 51,139 L 50,140 L 49,140 L 49,143 L 48,144 L 48,145 L 47,146 L 47,149 L 46,150 L 46,151 L 45,152 L 45,155 L 43,157 L 43,163 L 46,163 L 47,164 L 48,164 L 49,165 L 53,165 L 54,166 L 60,166 L 61,167 L 64,167 L 65,168 L 68,168 L 69,169 L 74,169 L 76,171 L 82,171 L 83,172 L 86,172 L 87,173 L 92,173 L 94,175 L 102,175 L 103,176 L 104,176 L 105,177 L 109,177 L 110,178 L 113,178 L 114,179 L 121,179 L 122,180 L 123,180 L 124,181 L 130,181 L 131,182 L 134,182 L 135,183 L 138,183 L 139,184 L 142,184 L 143,185 L 149,185 L 150,186 L 151,186 L 152,187 L 158,187 L 159,188 L 160,188 L 161,189 L 168,189 L 169,190 L 179,190 L 180,189 L 180,184 L 182,182 L 182,179 L 184,177 L 184,174 L 186,172 L 186,168 L 188,166 L 188,164 L 189,163 L 190,163 L 190,158 L 191,157 L 192,157 L 192,154 L 193,153 L 194,153 L 194,150 L 195,149 L 195,148 L 196,147 L 196,145 L 197,144 L 197,143 L 198,142 L 198,140 L 200,138 L 200,136 L 201,135 L 201,133 L 202,132 L 202,130 L 203,129 L 203,128 L 204,127 L 204,126 L 205,125 L 205,124 L 206,123 L 206,120 L 208,118 L 208,114 L 210,112 L 210,109 L 212,107 L 212,106 L 213,105 L 213,102 L 214,101 L 214,100 L 216,98 L 216,95 L 218,93 L 218,90 L 219,89 L 219,88 L 220,87 L 220,85 L 222,83 L 222,82 L 223,81 L 223,80 L 224,79 L 224,76 L 225,75 L 225,74 L 226,73 L 226,71 L 225,70 L 217,70 L 216,69 L 215,69 L 214,68 L 206,68 L 204,66 L 198,66 L 197,65 L 195,65 L 194,64 L 190,64 L 189,63 L 187,63 L 186,62 L 182,62 L 181,61 L 179,61 L 178,60 L 171,60 L 170,59 L 169,59 L 168,58 L 163,58 L 162,57 L 161,57 L 160,56 L 155,56 L 154,55 L 150,55 L 149,54 L 145,54 L 143,52 L 135,52 L 134,51 L 133,51 L 132,50 L 128,50 L 127,49 L 123,49 L 122,48 L 119,48 L 118,47 L 114,47 L 113,46 L 106,46 L 105,45 L 104,45 L 103,44 L 99,44 L 98,43 L 96,43 L 95,42 L 90,42 L 89,41 Z" fill="black" /></svg>