<?xml version='1.0' encoding='utf-8'?>
<svg width="257" height="217" xmlns="http://www.w3.org/2000/svg" viewBox="0 0 257 217"><rect width="257" height="217" fill="white" /><path d="M 122,19 L 120,21 L 119,21 L 114,26 L 114,27 L 111,30 L 111,31 L 110,32 L 109,32 L 107,34 L 107,35 L 106,36 L 105,36 L 105,37 L 102,40 L 102,41 L 97,46 L 97,47 L 87,57 L 87,58 L 85,60 L 85,61 L 84,62 L 83,62 L 83,63 L 81,65 L 81,66 L 77,70 L 77,71 L 76,72 L 75,72 L 75,73 L 71,77 L 71,79 L 68,82 L 67,82 L 65,84 L 65,85 L 64,86 L 64,87 L 63,88 L 63,94 L 64,95 L 64,105 L 65,106 L 65,127 L 66,128 L 66,132 L 67,133 L 67,157 L 68,158 L 68,172 L 69,173 L 69,187 L 70,188 L 70,189 L 69,190 L 69,193 L 70,194 L 70,197 L 72,199 L 74,199 L 75,198 L 76,198 L 77,197 L 85,197 L 86,196 L 88,196 L 89,195 L 112,195 L 113,194 L 114,194 L 115,193 L 116,193 L 117,194 L 120,194 L 121,193 L 139,193 L 140,192 L 144,192 L 145,191 L 160,191 L 162,189 L 163,190 L 171,190 L 172,189 L 181,189 L 182,188 L 185,188 L 186,187 L 203,187 L 204,186 L 208,186 L 210,184 L 210,182 L 211,181 L 211,176 L 212,175 L 212,171 L 213,170 L 213,166 L 214,165 L 214,161 L 215,160 L 215,158 L 216,157 L 216,152 L 217,151 L 217,150 L 218,149 L 218,143 L 219,142 L 219,141 L 220,140 L 220,136 L 221,135 L 221,134 L 222,133 L 222,128 L 223,127 L 223,124 L 224,123 L 224,119 L 225,118 L 225,115 L 226,114 L 226,112 L 225,111 L 225,110 L 226,109 L 226,108 L 227,107 L 227,104 L 228,103 L 228,97 L 230,95 L 230,89 L 229,88 L 228,88 L 226,86 L 224,86 L 223,85 L 223,84 L 222,84 L 220,82 L 219,82 L 217,80 L 216,80 L 214,78 L 213,78 L 212,77 L 211,77 L 210,76 L 209,76 L 208,75 L 208,74 L 207,74 L 205,72 L 203,72 L 202,71 L 201,71 L 198,68 L 197,68 L 196,67 L 196,66 L 195,66 L 194,65 L 193,65 L 192,64 L 191,64 L 190,63 L 190,62 L 189,62 L 188,61 L 187,61 L 184,58 L 183,58 L 181,56 L 180,56 L 179,55 L 179,54 L 178,54 L 176,52 L 175,52 L 173,50 L 171,50 L 169,48 L 168,48 L 166,46 L 165,46 L 163,44 L 162,44 L 160,42 L 159,42 L 158,41 L 157,41 L 156,40 L 155,40 L 154,39 L 154,38 L 152,38 L 150,36 L 149,36 L 148,35 L 148,34 L 146,34 L 145,33 L 145,32 L 143,32 L 141,30 L 139,30 L 138,29 L 138,28 L 137,28 L 135,26 L 134,26 L 132,24 L 131,24 L 129,22 L 127,22 L 124,19 Z" fill="black" /></svg>