<?xml version='1.0' encoding='utf-8'?>
<svg width="256" height="218" xmlns="http://www.w3.org/2000/svg" viewBox="0 0 256 218"><rect width="256" height="218" fill="white" /><path d="M 162,38 L 161,39 L 154,39 L 153,40 L 150,40 L 149,39 L 140,39 L 139,40 L 138,40 L 137,39 L 130,39 L 129,40 L 128,40 L 127,39 L 126,40 L 118,40 L 117,39 L 116,39 L 115,40 L 113,40 L 112,39 L 106,39 L 105,40 L 98,40 L 97,39 L 94,39 L 93,40 L 73,40 L 72,41 L 70,41 L 69,42 L 66,42 L 66,56 L 65,57 L 65,61 L 64,62 L 65,63 L 65,66 L 64,67 L 64,93 L 63,94 L 63,107 L 62,108 L 62,128 L 61,129 L 61,132 L 62,133 L 61,134 L 61,149 L 60,150 L 60,154 L 62,156 L 62,157 L 64,157 L 65,158 L 67,158 L 68,159 L 70,159 L 72,161 L 73,161 L 74,162 L 75,162 L 76,163 L 79,163 L 81,165 L 83,165 L 84,166 L 85,166 L 86,167 L 89,167 L 91,169 L 93,169 L 94,170 L 95,170 L 96,171 L 99,171 L 101,173 L 103,173 L 104,174 L 105,174 L 106,175 L 108,175 L 110,177 L 112,177 L 113,178 L 114,178 L 115,179 L 118,179 L 120,181 L 122,181 L 123,182 L 124,182 L 125,183 L 127,183 L 128,184 L 129,184 L 130,185 L 132,185 L 134,187 L 136,187 L 138,189 L 141,189 L 142,190 L 143,190 L 144,191 L 145,191 L 146,192 L 147,192 L 148,193 L 151,193 L 153,195 L 156,195 L 158,197 L 162,197 L 164,199 L 168,199 L 170,197 L 171,197 L 175,193 L 176,193 L 176,192 L 177,191 L 177,190 L 178,189 L 179,189 L 179,188 L 180,187 L 181,187 L 181,186 L 185,182 L 185,181 L 187,179 L 187,178 L 188,177 L 189,177 L 191,175 L 191,174 L 194,171 L 194,170 L 195,169 L 195,168 L 196,167 L 197,167 L 197,166 L 198,165 L 199,165 L 199,164 L 200,163 L 201,163 L 201,162 L 204,159 L 204,158 L 205,157 L 205,156 L 206,155 L 207,155 L 207,154 L 209,152 L 209,151 L 213,147 L 213,146 L 214,145 L 215,145 L 215,144 L 217,142 L 217,141 L 221,137 L 221,136 L 224,133 L 224,132 L 225,131 L 225,130 L 226,129 L 226,125 L 225,124 L 225,119 L 223,117 L 223,114 L 222,113 L 222,111 L 221,110 L 221,107 L 220,106 L 220,104 L 219,103 L 219,101 L 218,100 L 218,98 L 217,97 L 217,96 L 216,95 L 216,94 L 215,93 L 215,89 L 213,87 L 213,84 L 211,82 L 211,79 L 210,78 L 210,77 L 209,76 L 209,72 L 207,70 L 207,68 L 206,67 L 206,66 L 205,65 L 205,62 L 204,61 L 204,60 L 203,59 L 203,55 L 202,54 L 202,53 L 201,52 L 201,49 L 200,48 L 200,46 L 199,45 L 199,40 L 198,39 L 196,39 L 195,38 L 193,38 L 192,39 L 180,39 L 179,38 L 177,38 L 176,39 L 171,39 L 170,38 Z" fill="black" /></svg>