<?xml version='1.0' encoding='utf-8'?>
<svg width="262" height="222" xmlns="http://www.w3.org/2000/svg" viewBox="0 0 262 222"><rect width="262" height="222" fill="white" /><path d="M 228,78 L 228,79 L 227,80 L 227,83 L 228,84 L 228,91 L 227,92 L 217,92 L 216,93 L 215,93 L 214,94 L 213,94 L 213,95 L 214,96 L 226,96 L 227,97 L 227,105 L 228,106 L 228,109 L 229,109 L 230,110 L 231,110 L 232,109 L 232,103 L 233,102 L 233,98 L 235,96 L 243,96 L 244,95 L 244,93 L 243,92 L 241,92 L 240,93 L 236,93 L 235,92 L 232,92 L 231,91 L 231,88 L 233,86 L 233,85 L 232,84 L 232,79 L 231,79 L 230,78 Z" fill="black" /><path d="M 178,37 L 176,39 L 176,40 L 174,42 L 174,43 L 172,45 L 172,47 L 171,48 L 170,48 L 170,49 L 168,51 L 168,52 L 166,54 L 166,55 L 164,57 L 164,59 L 162,61 L 162,62 L 160,64 L 160,65 L 157,68 L 157,69 L 156,70 L 156,71 L 154,73 L 154,74 L 152,76 L 152,77 L 150,79 L 150,82 L 152,84 L 157,84 L 158,83 L 162,83 L 163,84 L 173,84 L 174,85 L 175,85 L 176,84 L 180,84 L 181,85 L 185,85 L 186,84 L 189,84 L 190,85 L 207,85 L 208,84 L 208,81 L 207,80 L 207,79 L 205,77 L 205,75 L 203,73 L 203,72 L 201,70 L 201,69 L 199,67 L 199,66 L 198,65 L 198,64 L 197,63 L 197,60 L 194,57 L 194,56 L 193,55 L 193,54 L 192,53 L 192,52 L 191,51 L 191,49 L 189,47 L 189,46 L 186,43 L 186,42 L 183,39 L 183,38 L 182,37 Z" fill="black" /><path d="M 219,13 L 218,14 L 216,14 L 216,15 L 215,16 L 214,16 L 212,18 L 212,19 L 211,20 L 210,20 L 210,21 L 209,22 L 209,23 L 208,24 L 208,35 L 210,37 L 210,39 L 211,39 L 212,40 L 212,41 L 214,43 L 215,43 L 217,45 L 221,45 L 222,46 L 223,46 L 224,47 L 225,47 L 226,46 L 229,46 L 230,45 L 231,45 L 232,44 L 233,44 L 234,43 L 235,43 L 235,42 L 236,41 L 237,41 L 239,39 L 239,37 L 241,35 L 241,30 L 242,29 L 242,28 L 241,27 L 241,24 L 239,22 L 239,20 L 238,20 L 237,19 L 237,18 L 235,16 L 234,16 L 232,14 L 228,14 L 227,13 Z" fill="black" /></svg>