<?xml version='1.0' encoding='utf-8'?>
<svg width="261" height="219" xmlns="http://www.w3.org/2000/svg" viewBox="0 0 261 219"><rect width="261" height="219" fill="white" /><path d="M 56,140 L 55,141 L 54,141 L 54,150 L 52,152 L 41,152 L 40,153 L 40,155 L 41,156 L 53,156 L 54,157 L 54,168 L 55,168 L 56,169 L 57,168 L 58,168 L 58,167 L 59,166 L 59,157 L 60,156 L 70,156 L 70,154 L 69,153 L 68,153 L 67,152 L 65,152 L 64,153 L 63,152 L 61,152 L 59,150 L 59,145 L 58,144 L 58,141 L 57,141 Z" fill="black" /><path d="M 194,87 L 193,88 L 191,88 L 190,89 L 188,89 L 187,90 L 186,90 L 185,91 L 184,91 L 182,93 L 182,94 L 180,96 L 180,98 L 179,99 L 179,102 L 178,103 L 178,108 L 179,109 L 179,110 L 180,111 L 180,114 L 184,118 L 185,118 L 187,120 L 189,120 L 190,121 L 191,121 L 192,122 L 199,122 L 200,121 L 201,121 L 202,120 L 203,120 L 203,119 L 204,118 L 206,118 L 209,115 L 209,114 L 211,112 L 211,110 L 212,109 L 211,108 L 211,106 L 212,105 L 212,101 L 211,100 L 211,97 L 210,96 L 210,95 L 209,94 L 208,94 L 207,93 L 207,92 L 206,91 L 205,91 L 204,90 L 203,90 L 202,89 L 201,89 L 200,88 L 199,88 L 198,87 Z" fill="black" /><path d="M 126,16 L 126,17 L 124,19 L 124,20 L 122,22 L 122,23 L 120,25 L 120,26 L 118,28 L 118,29 L 116,31 L 116,32 L 115,33 L 114,33 L 114,35 L 112,37 L 112,38 L 110,40 L 110,42 L 109,43 L 108,43 L 108,44 L 107,45 L 107,46 L 106,47 L 106,48 L 105,49 L 104,49 L 104,50 L 103,51 L 103,52 L 102,53 L 102,56 L 101,57 L 101,59 L 102,60 L 103,60 L 104,61 L 105,61 L 106,60 L 114,60 L 115,61 L 116,60 L 122,60 L 123,61 L 127,61 L 128,60 L 130,60 L 131,61 L 142,61 L 143,62 L 144,61 L 151,61 L 153,59 L 153,55 L 152,54 L 152,52 L 149,49 L 149,47 L 145,43 L 145,41 L 142,38 L 142,37 L 141,36 L 141,35 L 140,34 L 140,33 L 139,32 L 139,31 L 137,29 L 137,27 L 133,23 L 133,21 L 131,19 L 130,19 L 129,18 L 129,16 Z" fill="black" /></svg>