<?xml version='1.0' encoding='utf-8'?>
<svg width="261" height="218" xmlns="http://www.w3.org/2000/svg" viewBox="0 0 261 218"><rect width="261" height="218" fill="white" /><path d="M 136,109 L 134,111 L 132,111 L 130,113 L 129,113 L 127,115 L 127,116 L 126,117 L 126,118 L 125,119 L 125,121 L 124,122 L 124,124 L 123,125 L 124,126 L 124,128 L 125,129 L 125,132 L 126,133 L 126,134 L 129,137 L 129,138 L 131,140 L 136,140 L 137,141 L 140,141 L 141,142 L 142,142 L 143,141 L 144,141 L 145,140 L 148,140 L 154,134 L 154,133 L 155,132 L 155,131 L 156,130 L 156,121 L 155,120 L 155,119 L 154,118 L 154,116 L 150,112 L 150,111 L 148,111 L 147,110 L 145,110 L 144,109 Z" fill="black" /><path d="M 62,71 L 62,72 L 61,73 L 61,74 L 60,75 L 60,76 L 57,79 L 57,81 L 55,83 L 55,85 L 53,87 L 53,89 L 51,91 L 51,92 L 50,93 L 50,94 L 49,95 L 49,96 L 48,97 L 48,98 L 47,99 L 47,100 L 46,101 L 46,102 L 45,103 L 45,104 L 44,105 L 44,106 L 43,107 L 43,108 L 42,109 L 42,110 L 41,111 L 41,112 L 40,113 L 40,114 L 39,115 L 39,118 L 54,118 L 55,117 L 68,117 L 69,116 L 82,116 L 83,115 L 90,115 L 90,110 L 88,108 L 88,107 L 86,105 L 86,104 L 84,102 L 84,101 L 83,100 L 83,99 L 82,98 L 82,97 L 81,96 L 81,95 L 78,92 L 78,91 L 77,91 L 76,90 L 76,87 L 74,85 L 74,84 L 72,82 L 72,81 L 71,81 L 70,80 L 70,78 L 68,76 L 68,75 L 67,75 L 66,74 L 66,73 L 64,71 Z" fill="black" /><path d="M 139,17 L 139,18 L 138,19 L 139,20 L 139,26 L 136,29 L 127,29 L 126,30 L 126,31 L 127,32 L 132,32 L 133,33 L 135,33 L 136,32 L 137,32 L 139,34 L 139,41 L 140,42 L 142,42 L 143,41 L 143,39 L 142,38 L 142,35 L 145,32 L 154,32 L 155,31 L 155,30 L 154,29 L 146,29 L 145,28 L 144,28 L 142,26 L 142,19 L 140,17 Z" fill="black" /></svg>