<?xml version='1.0' encoding='utf-8'?>
<svg width="258" height="223" xmlns="http://www.w3.org/2000/svg" viewBox="0 0 258 223"><rect width="258" height="223" fill="white" /><path d="M 198,164 L 197,165 L 196,165 L 196,178 L 194,180 L 191,180 L 190,179 L 189,179 L 188,180 L 183,180 L 183,181 L 184,182 L 184,183 L 187,183 L 188,184 L 190,184 L 191,183 L 192,184 L 195,184 L 196,185 L 196,193 L 197,194 L 197,195 L 199,195 L 199,194 L 200,193 L 200,190 L 199,189 L 199,187 L 202,184 L 203,184 L 204,183 L 211,183 L 212,184 L 215,184 L 216,183 L 216,180 L 215,179 L 213,179 L 212,180 L 201,180 L 200,179 L 200,166 Z" fill="black" /><path d="M 34,100 L 34,101 L 32,103 L 32,104 L 30,106 L 30,108 L 28,110 L 28,111 L 26,113 L 26,114 L 24,116 L 24,117 L 22,119 L 22,120 L 21,121 L 20,121 L 20,123 L 18,125 L 18,126 L 16,128 L 16,129 L 14,131 L 14,132 L 12,134 L 12,135 L 10,137 L 10,138 L 7,141 L 9,143 L 11,143 L 12,144 L 53,144 L 54,145 L 55,145 L 56,144 L 57,144 L 58,145 L 62,145 L 62,142 L 60,140 L 60,139 L 59,138 L 59,137 L 58,136 L 58,135 L 57,134 L 57,133 L 55,131 L 55,129 L 54,129 L 53,128 L 53,127 L 52,126 L 52,125 L 51,124 L 51,123 L 49,121 L 49,119 L 48,119 L 47,118 L 47,117 L 45,115 L 45,114 L 44,113 L 44,112 L 43,111 L 43,109 L 42,109 L 41,108 L 41,106 L 36,101 L 36,100 Z" fill="black" /><path d="M 204,33 L 203,34 L 202,34 L 201,35 L 199,35 L 197,37 L 196,37 L 196,38 L 195,39 L 194,39 L 194,40 L 192,42 L 192,45 L 191,46 L 191,47 L 190,48 L 190,54 L 191,55 L 191,56 L 192,57 L 192,58 L 195,61 L 195,62 L 196,63 L 197,63 L 198,64 L 199,64 L 201,66 L 212,66 L 213,65 L 214,65 L 215,64 L 216,64 L 221,59 L 221,57 L 222,56 L 222,55 L 223,54 L 223,45 L 222,44 L 222,43 L 221,42 L 221,41 L 219,39 L 219,38 L 218,38 L 215,35 L 211,35 L 209,33 Z" fill="black" /></svg>