<?xml version='1.0' encoding='utf-8'?>
<svg width="261" height="219" xmlns="http://www.w3.org/2000/svg" viewBox="0 0 261 219"><rect width="261" height="219" fill="white" /><path d="M 80,130 L 80,141 L 79,142 L 69,142 L 69,143 L 68,144 L 70,146 L 74,146 L 75,145 L 78,145 L 81,148 L 81,149 L 80,150 L 80,153 L 81,154 L 81,156 L 80,157 L 81,158 L 81,159 L 82,158 L 83,158 L 84,157 L 84,147 L 85,146 L 90,146 L 91,145 L 92,145 L 93,146 L 96,146 L 96,145 L 97,144 L 96,143 L 96,142 L 87,142 L 84,139 L 84,133 L 85,132 L 85,130 Z" fill="black" /><path d="M 176,89 L 171,94 L 171,96 L 170,97 L 169,97 L 169,98 L 168,99 L 168,100 L 165,103 L 165,104 L 163,106 L 163,108 L 162,109 L 161,109 L 161,111 L 159,113 L 159,114 L 157,116 L 157,117 L 155,119 L 155,120 L 154,121 L 154,122 L 153,123 L 153,124 L 149,128 L 149,132 L 166,132 L 167,131 L 170,131 L 171,132 L 172,131 L 174,131 L 175,132 L 190,132 L 191,131 L 192,132 L 203,132 L 204,133 L 205,132 L 206,132 L 205,131 L 205,130 L 204,129 L 203,129 L 202,128 L 202,125 L 201,124 L 201,123 L 200,122 L 200,121 L 198,119 L 198,117 L 197,117 L 196,116 L 196,115 L 194,113 L 194,112 L 192,110 L 192,109 L 191,109 L 190,108 L 190,106 L 188,104 L 188,103 L 186,101 L 186,100 L 184,98 L 184,96 L 180,92 L 180,91 L 178,89 Z" fill="black" /><path d="M 119,27 L 118,28 L 117,28 L 116,29 L 115,29 L 111,33 L 111,35 L 110,36 L 110,37 L 109,38 L 109,40 L 108,41 L 108,46 L 109,47 L 109,50 L 110,51 L 110,52 L 111,53 L 111,54 L 115,58 L 117,58 L 119,60 L 124,60 L 125,61 L 126,61 L 127,60 L 130,60 L 133,57 L 134,57 L 135,56 L 136,56 L 138,54 L 138,53 L 140,51 L 140,49 L 141,48 L 141,45 L 142,44 L 142,43 L 141,42 L 141,39 L 140,38 L 140,36 L 138,34 L 138,33 L 137,33 L 134,30 L 134,29 L 133,29 L 132,28 L 131,28 L 130,27 Z" fill="black" /></svg>