<?xml version='1.0' encoding='utf-8'?>
<svg width="259" height="220" xmlns="http://www.w3.org/2000/svg" viewBox="0 0 259 220"><rect width="259" height="220" fill="white" /><path d="M 33,166 L 32,167 L 31,167 L 24,174 L 24,179 L 23,180 L 23,185 L 24,186 L 24,189 L 26,191 L 26,192 L 28,194 L 28,195 L 29,195 L 30,196 L 31,196 L 32,197 L 35,197 L 36,198 L 43,198 L 44,197 L 45,197 L 46,196 L 47,196 L 48,195 L 49,195 L 49,194 L 52,191 L 53,191 L 53,187 L 55,185 L 55,176 L 53,174 L 53,173 L 51,171 L 51,170 L 49,168 L 48,168 L 47,167 L 46,167 L 45,166 Z" fill="black" /><path d="M 204,58 L 204,59 L 203,60 L 203,61 L 202,62 L 202,63 L 200,65 L 200,66 L 198,68 L 198,69 L 197,70 L 197,71 L 194,74 L 194,75 L 192,77 L 192,79 L 191,80 L 190,80 L 190,81 L 189,82 L 189,83 L 188,84 L 188,85 L 187,86 L 186,86 L 186,87 L 184,89 L 184,90 L 182,92 L 182,93 L 180,95 L 180,97 L 179,98 L 179,100 L 181,102 L 182,102 L 183,103 L 187,103 L 188,102 L 189,102 L 190,103 L 193,103 L 194,102 L 223,102 L 224,101 L 225,101 L 226,102 L 233,102 L 233,97 L 231,95 L 231,94 L 229,92 L 229,90 L 228,90 L 227,89 L 227,88 L 226,87 L 226,86 L 225,85 L 225,84 L 224,84 L 223,83 L 223,82 L 221,80 L 221,79 L 219,77 L 219,75 L 217,73 L 217,71 L 215,69 L 215,68 L 213,66 L 212,66 L 211,65 L 211,64 L 210,63 L 210,62 L 207,59 L 207,58 Z" fill="black" /><path d="M 173,37 L 171,39 L 171,43 L 172,44 L 172,47 L 169,50 L 164,50 L 163,49 L 160,49 L 160,50 L 159,51 L 159,52 L 160,53 L 169,53 L 171,55 L 171,64 L 172,64 L 173,65 L 174,64 L 175,64 L 175,55 L 177,53 L 189,53 L 189,50 L 178,50 L 175,47 L 175,38 L 174,37 Z" fill="black" /><path d="M 0,0 L 0,219 L 258,219 L 258,0 Z" fill="none" stroke="black" stroke-width="1" /></svg>