<?xml version='1.0' encoding='utf-8'?>
<svg width="258" height="220" xmlns="http://www.w3.org/2000/svg" viewBox="0 0 258 220"><rect width="258" height="220" fill="white" /><path d="M 128,163 L 128,164 L 127,165 L 127,166 L 125,168 L 125,170 L 123,172 L 123,173 L 122,174 L 121,174 L 121,176 L 119,178 L 119,180 L 117,182 L 117,183 L 116,184 L 116,185 L 115,186 L 115,187 L 112,190 L 112,191 L 111,192 L 111,193 L 110,194 L 110,195 L 109,196 L 109,197 L 108,198 L 107,198 L 107,200 L 104,203 L 103,203 L 103,205 L 104,206 L 120,206 L 121,207 L 126,207 L 127,206 L 129,206 L 130,207 L 156,207 L 156,203 L 154,201 L 154,200 L 153,200 L 152,199 L 152,198 L 151,197 L 151,196 L 150,195 L 150,194 L 149,193 L 149,192 L 146,189 L 146,187 L 144,185 L 144,184 L 143,183 L 143,182 L 142,181 L 142,180 L 141,180 L 140,179 L 140,178 L 139,177 L 139,176 L 138,175 L 138,174 L 137,173 L 137,172 L 136,171 L 136,170 L 134,168 L 134,167 L 132,165 L 132,164 L 131,163 Z" fill="black" /><path d="M 216,59 L 216,67 L 215,68 L 215,69 L 213,71 L 208,71 L 207,72 L 201,72 L 200,73 L 200,74 L 202,76 L 203,76 L 204,75 L 207,75 L 208,76 L 209,75 L 214,75 L 216,77 L 216,83 L 215,84 L 215,87 L 216,88 L 219,88 L 220,87 L 220,76 L 221,75 L 231,75 L 233,73 L 233,72 L 232,72 L 231,71 L 230,72 L 222,72 L 219,69 L 219,68 L 218,67 L 218,66 L 220,64 L 220,62 L 219,61 L 219,60 L 218,60 L 217,59 Z" fill="black" /><path d="M 61,50 L 60,51 L 59,51 L 58,52 L 56,52 L 54,54 L 53,54 L 51,56 L 51,57 L 49,59 L 49,62 L 48,63 L 48,69 L 49,70 L 49,75 L 53,79 L 54,79 L 56,81 L 58,81 L 59,82 L 60,82 L 61,83 L 68,83 L 69,82 L 70,82 L 71,81 L 72,81 L 72,80 L 73,79 L 74,79 L 74,78 L 75,77 L 76,77 L 76,76 L 78,74 L 78,72 L 79,71 L 80,71 L 80,62 L 79,61 L 79,60 L 78,59 L 78,58 L 77,58 L 76,57 L 76,55 L 75,55 L 74,54 L 73,54 L 71,52 L 69,52 L 68,51 L 64,51 L 63,50 Z" fill="black" /></svg>