<?xml version='1.0' encoding='utf-8'?>
<svg width="261" height="222" xmlns="http://www.w3.org/2000/svg" viewBox="0 0 261 222"><rect width="261" height="222" fill="white" /><path d="M 134,156 L 133,157 L 133,162 L 132,163 L 132,167 L 131,168 L 131,171 L 130,172 L 130,176 L 129,177 L 129,180 L 128,181 L 128,185 L 127,186 L 127,187 L 126,188 L 126,191 L 125,192 L 125,194 L 124,195 L 124,202 L 123,203 L 123,205 L 126,205 L 128,203 L 131,203 L 132,202 L 133,202 L 134,201 L 137,201 L 138,200 L 139,200 L 140,199 L 142,199 L 144,197 L 148,197 L 149,196 L 150,196 L 151,195 L 153,195 L 154,194 L 155,194 L 156,193 L 159,193 L 160,192 L 161,192 L 162,191 L 165,191 L 167,189 L 169,189 L 171,187 L 171,184 L 169,182 L 168,182 L 164,178 L 162,178 L 161,177 L 161,176 L 160,176 L 157,173 L 157,172 L 156,172 L 155,171 L 154,171 L 145,162 L 144,162 L 141,159 L 141,158 L 139,158 L 137,156 Z" fill="black" /><path d="M 64,80 L 63,81 L 63,82 L 62,83 L 62,85 L 63,86 L 63,87 L 62,88 L 62,91 L 61,92 L 53,92 L 52,93 L 52,96 L 60,96 L 63,99 L 63,103 L 62,104 L 62,106 L 63,107 L 63,108 L 64,108 L 65,109 L 66,108 L 67,108 L 67,101 L 66,100 L 66,98 L 68,96 L 71,96 L 72,97 L 76,97 L 77,96 L 78,96 L 78,95 L 79,94 L 78,93 L 78,92 L 68,92 L 67,91 L 67,81 L 66,80 Z" fill="black" /><path d="M 202,32 L 201,33 L 199,33 L 198,34 L 196,34 L 195,35 L 194,35 L 190,39 L 190,40 L 188,42 L 188,54 L 189,55 L 189,56 L 190,57 L 190,58 L 192,60 L 192,61 L 194,63 L 195,63 L 196,64 L 198,64 L 199,65 L 208,65 L 209,64 L 210,64 L 211,63 L 213,63 L 214,62 L 215,62 L 217,60 L 217,59 L 219,57 L 219,56 L 220,55 L 220,54 L 221,53 L 221,44 L 220,43 L 220,42 L 219,41 L 219,40 L 215,36 L 214,36 L 213,35 L 213,34 L 211,34 L 209,32 Z" fill="black" /></svg>