<?xml version="1.0" encoding="utf-8" ?>
<svg baseProfile="full" height="214" version="1.1" width="252" xmlns="http://www.w3.org/2000/svg" xmlns:ev="http://www.w3.org/2001/xml-events" xmlns:xlink="http://www.w3.org/1999/xlink"><defs /><rect fill="white" height="214" width="252" x="0" y="0" /><path d="M 35,136 L 36,180 L 82,179 L 81,135 Z" fill="none" stroke="black" stroke-width="1" /><path d="M 88,130 L 87,186 L 29,185 L 32,129 Z" fill="none" stroke="black" stroke-width="1" /><path d="M 213,111 L 147,174 L 212,174 Z" fill="none" stroke="black" stroke-width="1" /><path d="M 220,100 L 218,182 L 134,181 Z" fill="none" stroke="black" stroke-width="1" /><path d="M 37,38 L 36,87 L 81,87 L 82,39 Z" fill="none" stroke="black" stroke-width="1" /><path d="M 128,35 L 127,81 L 173,82 L 174,36 Z" fill="none" stroke="black" stroke-width="1" /><path d="M 30,33 L 88,33 L 90,89 L 34,93 Z" fill="none" stroke="black" stroke-width="1" /><path d="M 121,30 L 179,29 L 180,87 L 123,88 Z" fill="none" stroke="black" stroke-width="1" /><path d="M 0,0 L 0,213 L 251,213 L 251,0 Z" fill="none" stroke="black" stroke-width="1" /></svg>