<?xml version='1.0' encoding='utf-8'?>
<svg width="258" height="216" xmlns="http://www.w3.org/2000/svg" viewBox="0 0 258 216"><rect width="258" height="216" fill="white" /><path d="M 201,135 L 200,136 L 163,136 L 163,191 L 206,191 L 207,190 L 208,190 L 209,191 L 218,191 L 218,144 L 219,143 L 219,137 L 218,136 L 217,136 L 216,135 L 215,135 L 214,136 L 211,136 L 210,135 L 209,136 L 206,136 L 205,135 Z" fill="black" /><path d="M 31,46 L 30,47 L 28,47 L 27,48 L 27,53 L 26,54 L 26,56 L 27,57 L 27,129 L 31,129 L 32,130 L 33,129 L 35,129 L 36,130 L 51,130 L 52,129 L 68,129 L 69,128 L 72,128 L 73,129 L 76,129 L 77,128 L 82,128 L 83,127 L 84,127 L 85,128 L 89,128 L 90,127 L 91,128 L 93,128 L 94,127 L 110,127 L 110,106 L 109,105 L 109,99 L 110,98 L 110,95 L 109,94 L 110,93 L 110,72 L 109,71 L 110,70 L 110,68 L 109,67 L 109,62 L 110,61 L 110,60 L 109,59 L 109,46 Z" fill="black" /></svg>