<?xml version='1.0' encoding='utf-8'?>
<svg width="259" height="219" xmlns="http://www.w3.org/2000/svg" viewBox="0 0 259 219"><rect width="259" height="219" fill="white" /><path d="M 30,153 L 29,154 L 27,154 L 26,155 L 26,184 L 28,186 L 48,186 L 49,185 L 56,185 L 58,183 L 58,174 L 57,173 L 57,170 L 58,169 L 58,160 L 57,159 L 57,153 Z" fill="black" /><path d="M 152,108 L 151,109 L 146,109 L 145,110 L 145,146 L 146,147 L 146,178 L 214,178 L 215,177 L 217,177 L 217,109 L 210,109 L 209,108 L 204,108 L 203,109 L 201,109 L 200,108 L 182,108 L 181,109 L 177,109 L 176,108 L 174,108 L 173,109 L 162,109 L 161,108 L 160,108 L 159,109 L 156,109 L 155,108 Z" fill="black" /><path d="M 37,52 L 36,53 L 28,53 L 28,80 L 45,80 L 46,81 L 49,81 L 50,80 L 59,80 L 61,78 L 61,77 L 60,76 L 60,70 L 59,69 L 60,68 L 60,62 L 61,61 L 61,59 L 60,58 L 60,54 L 59,53 L 38,53 Z" fill="black" /><path d="M 153,37 L 152,38 L 144,38 L 142,40 L 142,56 L 143,57 L 142,58 L 142,63 L 143,64 L 143,71 L 152,71 L 153,70 L 167,70 L 168,69 L 171,69 L 172,70 L 173,70 L 174,69 L 174,61 L 173,60 L 173,45 L 172,44 L 172,39 L 171,38 L 170,38 L 169,37 Z" fill="black" /></svg>