<?xml version='1.0' encoding='utf-8'?>
<svg width="255" height="213" xmlns="http://www.w3.org/2000/svg" viewBox="0 0 255 213"><rect width="255" height="213" fill="white" /><path d="M 36,142 L 35,143 L 35,170 L 36,171 L 44,171 L 45,172 L 53,172 L 54,171 L 58,171 L 59,172 L 64,172 L 66,170 L 66,144 L 65,143 L 59,143 L 58,142 L 55,142 L 54,143 L 53,143 L 52,142 L 50,142 L 49,143 L 47,143 L 46,142 Z" fill="black" /><path d="M 124,117 L 124,124 L 123,125 L 123,127 L 124,128 L 123,129 L 123,165 L 124,166 L 124,172 L 123,173 L 123,174 L 124,175 L 133,175 L 134,176 L 148,176 L 149,175 L 152,175 L 153,174 L 154,175 L 159,175 L 160,174 L 163,174 L 164,175 L 165,174 L 183,174 L 184,173 L 184,171 L 182,169 L 179,169 L 176,166 L 176,165 L 175,164 L 175,163 L 174,163 L 168,157 L 167,157 L 164,154 L 164,153 L 163,153 L 162,152 L 162,151 L 161,151 L 160,150 L 160,149 L 156,145 L 155,145 L 154,144 L 154,143 L 153,143 L 152,142 L 152,141 L 150,141 L 149,140 L 149,139 L 148,138 L 148,137 L 147,137 L 146,136 L 146,135 L 145,135 L 144,134 L 144,133 L 143,133 L 142,132 L 142,131 L 141,131 L 133,123 L 132,123 L 129,120 L 129,119 L 128,119 L 127,118 L 127,117 Z" fill="black" /><path d="M 36,31 L 35,32 L 35,33 L 34,34 L 34,37 L 35,38 L 35,83 L 37,85 L 37,86 L 69,86 L 70,85 L 81,85 L 82,86 L 84,86 L 85,85 L 87,85 L 89,83 L 87,81 L 86,81 L 85,80 L 85,79 L 82,76 L 82,75 L 74,67 L 73,67 L 72,66 L 72,65 L 71,65 L 70,64 L 70,63 L 69,63 L 68,62 L 68,61 L 67,61 L 64,58 L 64,57 L 62,55 L 61,55 L 60,54 L 60,53 L 59,53 L 57,51 L 56,51 L 51,46 L 51,45 L 49,45 L 46,42 L 46,41 L 45,40 L 45,39 L 44,39 L 42,37 L 42,35 L 41,35 L 38,32 L 37,32 Z" fill="black" /><path d="M 123,28 L 122,29 L 122,31 L 123,32 L 123,84 L 159,84 L 160,85 L 161,85 L 162,84 L 168,84 L 169,85 L 175,85 L 176,84 L 180,84 L 180,66 L 179,65 L 180,64 L 180,45 L 179,44 L 179,33 L 178,32 L 178,29 L 124,29 Z" fill="black" /></svg>