<?xml version='1.0' encoding='utf-8'?>
<svg width="255" height="214" xmlns="http://www.w3.org/2000/svg" viewBox="0 0 255 214"><rect width="255" height="214" fill="white" /><path d="M 118,118 L 117,119 L 116,119 L 115,120 L 115,174 L 114,175 L 114,176 L 115,177 L 169,177 L 170,176 L 173,176 L 174,175 L 174,147 L 173,146 L 174,145 L 174,120 L 173,119 L 173,118 L 156,118 L 155,119 L 152,119 L 151,118 L 150,118 L 149,119 L 141,119 L 140,118 L 139,118 L 138,119 L 130,119 L 129,118 Z" fill="black" /><path d="M 168,27 L 167,28 L 167,31 L 166,32 L 166,42 L 165,43 L 165,44 L 166,45 L 166,58 L 165,59 L 165,77 L 166,78 L 166,81 L 182,81 L 183,82 L 188,82 L 189,81 L 194,81 L 195,82 L 199,82 L 200,81 L 201,82 L 204,82 L 205,81 L 224,81 L 225,80 L 225,79 L 223,77 L 221,77 L 218,74 L 217,74 L 214,71 L 214,70 L 213,70 L 212,69 L 212,68 L 211,68 L 210,67 L 210,66 L 209,66 L 208,65 L 208,64 L 207,64 L 206,63 L 206,62 L 205,62 L 204,61 L 204,60 L 203,60 L 188,45 L 188,44 L 187,44 L 184,41 L 184,40 L 183,40 L 182,39 L 182,38 L 181,38 L 179,36 L 178,36 L 177,35 L 177,34 L 175,32 L 174,32 L 172,30 L 171,30 Z" fill="black" /><path d="M 35,25 L 34,26 L 29,26 L 29,29 L 28,30 L 28,31 L 27,32 L 27,43 L 28,44 L 27,45 L 27,53 L 28,54 L 27,55 L 27,56 L 28,57 L 27,58 L 27,65 L 28,66 L 28,71 L 27,72 L 28,73 L 28,79 L 29,80 L 30,80 L 31,81 L 85,81 L 85,71 L 86,70 L 85,69 L 85,58 L 86,57 L 86,54 L 85,53 L 85,45 L 86,44 L 86,36 L 85,35 L 85,32 L 86,31 L 86,27 L 85,26 L 75,26 L 74,25 L 73,26 L 36,26 Z" fill="black" /></svg>