<?xml version='1.0' encoding='utf-8'?>
<svg width="253" height="219" xmlns="http://www.w3.org/2000/svg" viewBox="0 0 253 219"><rect width="253" height="219" fill="white" /><path d="M 164,129 L 164,185 L 200,185 L 201,186 L 202,185 L 221,185 L 221,162 L 220,161 L 220,130 L 219,129 Z" fill="black" /><path d="M 76,129 L 75,130 L 69,130 L 68,131 L 68,169 L 69,170 L 69,182 L 70,183 L 70,184 L 69,185 L 69,186 L 82,186 L 83,185 L 84,186 L 88,186 L 89,185 L 94,185 L 95,186 L 97,186 L 98,185 L 107,185 L 108,186 L 109,185 L 115,185 L 116,186 L 118,186 L 119,185 L 127,185 L 127,175 L 128,174 L 128,172 L 127,171 L 127,169 L 128,168 L 128,167 L 127,166 L 127,129 Z" fill="black" /><path d="M 163,33 L 163,42 L 164,43 L 164,44 L 163,45 L 163,70 L 164,71 L 164,74 L 163,75 L 163,80 L 164,81 L 164,82 L 163,83 L 163,85 L 164,86 L 221,86 L 222,85 L 224,85 L 223,84 L 223,83 L 219,79 L 218,79 L 217,78 L 216,78 L 213,75 L 212,75 L 209,72 L 209,71 L 208,71 L 204,67 L 203,67 L 202,66 L 202,65 L 201,64 L 200,64 L 197,61 L 196,61 L 193,58 L 193,57 L 192,57 L 190,55 L 189,55 L 187,53 L 187,52 L 186,52 L 183,49 L 182,49 L 181,48 L 181,47 L 180,47 L 177,44 L 177,43 L 176,43 L 172,39 L 171,39 L 170,38 L 170,37 L 169,37 L 165,33 Z" fill="black" /><path d="M 32,14 L 31,15 L 28,15 L 28,34 L 29,35 L 29,40 L 28,41 L 28,46 L 29,47 L 31,47 L 32,46 L 33,46 L 34,47 L 53,47 L 54,46 L 55,46 L 57,48 L 59,48 L 59,41 L 60,40 L 60,39 L 59,38 L 59,35 L 60,34 L 60,33 L 61,32 L 60,31 L 60,26 L 61,25 L 61,24 L 59,22 L 60,21 L 60,20 L 61,19 L 60,18 L 60,14 Z" fill="black" /></svg>