<?xml version='1.0' encoding='utf-8'?>
<svg width="253" height="219" xmlns="http://www.w3.org/2000/svg" viewBox="0 0 253 219"><rect width="253" height="219" fill="white" /><path d="M 66,122 L 65,123 L 59,123 L 58,124 L 57,124 L 56,125 L 54,125 L 53,126 L 52,126 L 51,127 L 50,127 L 46,131 L 45,131 L 41,135 L 41,136 L 40,137 L 39,137 L 39,138 L 38,139 L 38,140 L 37,141 L 37,142 L 36,143 L 35,143 L 35,146 L 33,148 L 33,152 L 32,153 L 32,163 L 33,164 L 33,168 L 34,169 L 34,172 L 35,173 L 35,175 L 37,177 L 37,178 L 39,180 L 39,181 L 43,185 L 43,186 L 44,186 L 46,188 L 47,188 L 49,190 L 50,190 L 52,192 L 54,192 L 55,193 L 57,193 L 58,194 L 63,194 L 64,195 L 71,195 L 72,194 L 78,194 L 79,193 L 80,193 L 81,192 L 84,192 L 84,191 L 85,190 L 87,190 L 89,188 L 90,188 L 94,184 L 95,184 L 95,183 L 96,182 L 96,181 L 97,180 L 98,180 L 98,179 L 100,177 L 100,175 L 101,174 L 102,174 L 102,169 L 103,168 L 104,168 L 104,163 L 105,162 L 104,161 L 104,148 L 102,146 L 102,144 L 101,144 L 100,143 L 100,139 L 98,137 L 97,137 L 96,136 L 96,135 L 95,135 L 94,134 L 94,133 L 93,133 L 92,132 L 92,131 L 91,131 L 87,127 L 85,127 L 84,126 L 83,126 L 82,125 L 81,125 L 80,124 L 78,124 L 77,123 L 69,123 L 68,122 Z" fill="black" /><path d="M 193,39 L 192,40 L 188,40 L 187,41 L 184,41 L 183,42 L 182,42 L 181,43 L 180,43 L 178,45 L 177,45 L 173,49 L 173,50 L 171,52 L 171,54 L 170,55 L 169,55 L 169,61 L 168,62 L 169,63 L 169,67 L 168,68 L 169,69 L 169,73 L 170,74 L 170,76 L 171,77 L 171,78 L 174,81 L 174,82 L 178,86 L 179,86 L 181,88 L 183,88 L 184,89 L 186,89 L 187,90 L 199,90 L 200,89 L 202,89 L 203,88 L 206,88 L 206,87 L 207,86 L 208,86 L 210,84 L 211,84 L 214,81 L 214,80 L 216,78 L 216,75 L 218,73 L 218,66 L 219,65 L 219,59 L 218,58 L 218,55 L 217,54 L 217,53 L 216,52 L 216,51 L 215,50 L 215,49 L 213,47 L 212,47 L 208,43 L 206,43 L 205,42 L 203,42 L 202,41 L 201,41 L 200,40 L 199,40 L 198,39 Z" fill="black" /></svg>