<?xml version='1.0' encoding='utf-8'?>
<svg width="254" height="217" xmlns="http://www.w3.org/2000/svg" viewBox="0 0 254 217"><rect width="254" height="217" fill="white" /><path d="M 116,161 L 116,165 L 118,167 L 118,169 L 120,171 L 120,172 L 122,174 L 122,175 L 124,177 L 124,178 L 125,179 L 125,180 L 126,181 L 126,182 L 128,184 L 128,185 L 130,187 L 130,188 L 132,190 L 132,191 L 134,193 L 134,194 L 135,194 L 136,195 L 136,196 L 138,198 L 138,200 L 139,200 L 142,203 L 142,205 L 144,207 L 144,208 L 146,208 L 147,207 L 148,207 L 149,206 L 149,204 L 151,202 L 151,199 L 154,196 L 154,195 L 155,194 L 155,193 L 157,191 L 157,190 L 158,189 L 158,187 L 159,186 L 159,185 L 161,183 L 161,181 L 162,180 L 162,179 L 163,178 L 163,174 L 165,172 L 166,172 L 166,171 L 167,170 L 167,169 L 168,168 L 168,167 L 169,166 L 169,161 Z" fill="black" /><path d="M 126,26 L 125,27 L 108,27 L 107,28 L 100,28 L 99,29 L 94,29 L 93,30 L 90,30 L 89,31 L 84,31 L 83,32 L 81,32 L 80,33 L 74,33 L 73,34 L 72,34 L 71,35 L 66,35 L 64,37 L 62,37 L 60,39 L 58,39 L 57,40 L 56,40 L 55,41 L 53,41 L 51,43 L 50,43 L 47,46 L 46,46 L 43,49 L 42,49 L 42,50 L 39,53 L 38,53 L 38,54 L 36,56 L 36,57 L 34,59 L 34,60 L 30,64 L 30,65 L 28,67 L 28,68 L 27,69 L 27,70 L 26,71 L 26,72 L 25,73 L 25,74 L 24,75 L 24,78 L 23,79 L 23,80 L 22,81 L 22,85 L 20,87 L 20,98 L 19,99 L 19,106 L 18,107 L 18,112 L 19,113 L 19,118 L 20,119 L 20,121 L 21,122 L 21,124 L 22,125 L 22,126 L 23,126 L 24,127 L 24,128 L 26,130 L 27,130 L 28,131 L 28,132 L 32,136 L 35,136 L 37,138 L 41,138 L 42,139 L 43,139 L 44,140 L 47,140 L 48,139 L 53,139 L 54,138 L 57,138 L 58,137 L 60,137 L 61,136 L 64,136 L 65,135 L 65,134 L 67,132 L 68,132 L 69,131 L 69,130 L 71,128 L 72,128 L 73,127 L 73,123 L 75,121 L 75,120 L 76,119 L 76,116 L 77,115 L 77,110 L 82,105 L 83,105 L 84,104 L 89,104 L 90,105 L 91,105 L 92,106 L 93,106 L 94,107 L 94,109 L 96,111 L 96,114 L 97,115 L 97,116 L 98,117 L 98,118 L 99,119 L 99,120 L 100,121 L 100,124 L 101,125 L 101,126 L 102,127 L 102,128 L 103,128 L 104,129 L 104,130 L 108,134 L 109,134 L 110,135 L 110,136 L 112,136 L 113,137 L 114,137 L 115,138 L 121,138 L 122,139 L 126,139 L 127,138 L 131,138 L 133,136 L 135,136 L 136,135 L 137,135 L 137,134 L 139,132 L 140,132 L 143,129 L 143,128 L 144,127 L 145,127 L 145,125 L 146,124 L 146,123 L 147,122 L 147,121 L 149,119 L 149,118 L 151,116 L 151,115 L 154,112 L 155,112 L 156,111 L 158,111 L 159,110 L 163,110 L 165,112 L 166,112 L 168,114 L 169,114 L 175,120 L 177,120 L 178,121 L 178,122 L 179,122 L 182,125 L 182,126 L 184,128 L 185,128 L 187,130 L 188,130 L 190,132 L 193,132 L 194,133 L 195,133 L 196,134 L 209,134 L 210,133 L 213,133 L 214,132 L 216,132 L 218,130 L 220,130 L 223,127 L 223,126 L 224,125 L 225,125 L 227,123 L 227,121 L 229,119 L 229,117 L 230,116 L 230,115 L 231,114 L 231,111 L 232,110 L 232,104 L 231,103 L 231,101 L 232,100 L 232,96 L 233,95 L 233,92 L 232,91 L 232,89 L 231,88 L 231,82 L 229,80 L 229,75 L 227,73 L 227,71 L 226,70 L 226,69 L 225,68 L 225,67 L 224,67 L 223,66 L 223,65 L 221,63 L 221,61 L 220,61 L 219,60 L 219,59 L 215,55 L 215,54 L 213,52 L 212,52 L 211,51 L 211,49 L 209,47 L 208,47 L 207,46 L 206,46 L 204,44 L 203,44 L 202,43 L 201,43 L 199,41 L 198,41 L 196,39 L 194,39 L 193,38 L 192,38 L 191,37 L 190,37 L 189,36 L 187,36 L 186,35 L 182,35 L 181,34 L 177,34 L 176,33 L 174,33 L 173,32 L 169,32 L 168,31 L 163,31 L 162,30 L 159,30 L 158,29 L 151,29 L 150,28 L 148,28 L 147,27 L 131,27 L 130,26 Z" fill="black" /><path d="M 0,0 L 0,216 L 253,216 L 253,0 Z" fill="none" stroke="black" stroke-width="1" /></svg>