<?xml version='1.0' encoding='utf-8'?>
<svg width="258" height="215" xmlns="http://www.w3.org/2000/svg" viewBox="0 0 258 215"><rect width="258" height="215" fill="white" /><path d="M 210,91 L 209,92 L 207,92 L 206,93 L 205,92 L 202,92 L 201,93 L 196,93 L 195,92 L 193,92 L 192,93 L 163,93 L 162,94 L 158,94 L 158,131 L 159,132 L 159,142 L 160,143 L 160,144 L 159,145 L 159,150 L 160,151 L 160,155 L 159,156 L 159,158 L 160,159 L 160,178 L 203,178 L 204,177 L 205,177 L 206,178 L 208,178 L 209,177 L 214,177 L 215,178 L 216,178 L 217,177 L 222,177 L 223,176 L 229,176 L 230,177 L 232,177 L 233,176 L 234,176 L 234,172 L 233,171 L 232,171 L 231,170 L 231,169 L 229,167 L 229,166 L 227,164 L 227,163 L 225,161 L 225,160 L 223,158 L 223,157 L 220,154 L 220,153 L 217,150 L 217,149 L 216,149 L 215,148 L 215,147 L 212,144 L 212,143 L 209,140 L 209,139 L 207,137 L 207,135 L 206,134 L 206,131 L 207,130 L 207,129 L 208,128 L 208,127 L 209,126 L 209,125 L 210,124 L 210,123 L 211,122 L 211,121 L 213,119 L 213,117 L 215,115 L 215,113 L 217,111 L 217,110 L 219,108 L 219,107 L 220,106 L 220,105 L 221,104 L 221,102 L 223,100 L 223,93 L 222,92 L 211,92 Z" fill="black" /><path d="M 16,33 L 16,35 L 17,36 L 17,38 L 18,39 L 18,40 L 17,41 L 17,52 L 16,53 L 16,61 L 17,62 L 17,92 L 18,93 L 18,94 L 17,95 L 17,96 L 18,97 L 18,100 L 17,101 L 17,112 L 18,113 L 18,164 L 19,165 L 19,168 L 18,169 L 18,173 L 19,174 L 19,185 L 20,186 L 24,186 L 25,185 L 26,186 L 59,186 L 60,185 L 61,185 L 62,186 L 63,186 L 64,185 L 65,185 L 66,186 L 69,186 L 70,185 L 71,185 L 72,184 L 73,184 L 74,185 L 97,185 L 98,184 L 103,184 L 104,183 L 104,181 L 105,180 L 105,179 L 106,178 L 106,177 L 107,176 L 107,175 L 109,173 L 109,172 L 111,170 L 111,169 L 112,168 L 112,167 L 113,166 L 113,165 L 114,164 L 114,163 L 115,162 L 115,161 L 116,160 L 116,159 L 117,158 L 117,156 L 121,152 L 121,151 L 122,150 L 122,149 L 123,148 L 123,147 L 125,145 L 125,144 L 127,142 L 127,141 L 128,140 L 128,139 L 129,138 L 129,135 L 128,135 L 127,134 L 126,134 L 125,133 L 125,132 L 124,132 L 123,131 L 122,131 L 121,130 L 120,130 L 117,127 L 116,127 L 115,126 L 115,125 L 113,125 L 109,121 L 108,121 L 106,119 L 105,119 L 103,117 L 102,117 L 98,113 L 97,113 L 95,111 L 92,111 L 91,110 L 91,107 L 92,106 L 92,105 L 93,104 L 93,103 L 94,102 L 95,102 L 95,97 L 97,95 L 97,92 L 99,90 L 99,87 L 101,85 L 101,81 L 102,80 L 102,79 L 103,78 L 103,77 L 105,75 L 105,71 L 106,70 L 106,69 L 107,68 L 107,65 L 108,64 L 108,63 L 109,62 L 109,59 L 111,57 L 111,53 L 113,51 L 113,49 L 114,48 L 114,46 L 115,45 L 115,44 L 117,42 L 117,39 L 118,38 L 118,35 L 116,33 L 112,33 L 111,34 L 109,34 L 108,33 L 105,33 L 104,34 L 102,34 L 101,33 L 95,33 L 94,34 L 87,34 L 86,33 L 84,33 L 83,34 L 80,34 L 79,33 L 68,33 L 67,34 L 66,34 L 65,33 L 57,33 L 56,34 L 52,34 L 51,35 L 50,34 L 45,34 L 44,33 L 40,33 L 39,34 L 35,34 L 34,33 Z" fill="black" /><path d="M 0,0 L 0,214 L 257,214 L 257,0 Z" fill="none" stroke="black" stroke-width="1" /></svg>