<?xml version='1.0' encoding='utf-8'?>
<svg width="254" height="217" xmlns="http://www.w3.org/2000/svg" viewBox="0 0 254 217"><rect width="254" height="217" fill="white" /><path d="M 211,98 L 210,99 L 162,99 L 161,100 L 158,100 L 157,101 L 157,111 L 158,112 L 158,183 L 159,184 L 159,186 L 158,187 L 158,193 L 159,194 L 158,195 L 158,201 L 159,202 L 159,203 L 160,204 L 161,204 L 162,205 L 167,205 L 168,204 L 170,204 L 171,205 L 177,205 L 178,204 L 180,204 L 181,205 L 182,205 L 183,204 L 189,204 L 190,205 L 209,205 L 209,202 L 210,201 L 211,201 L 211,200 L 212,199 L 212,198 L 213,197 L 213,196 L 214,195 L 215,195 L 215,194 L 216,193 L 216,192 L 217,191 L 217,190 L 218,189 L 219,189 L 219,186 L 220,185 L 221,185 L 221,184 L 222,183 L 222,182 L 223,181 L 223,180 L 224,179 L 224,178 L 225,177 L 225,174 L 224,173 L 222,173 L 221,172 L 219,172 L 217,170 L 215,170 L 214,169 L 213,169 L 212,168 L 210,168 L 209,167 L 208,167 L 205,164 L 201,164 L 200,163 L 200,160 L 201,159 L 201,157 L 203,155 L 203,152 L 204,151 L 205,151 L 205,148 L 206,147 L 206,146 L 207,145 L 207,144 L 208,143 L 208,142 L 209,141 L 209,138 L 211,136 L 211,135 L 212,134 L 212,133 L 213,132 L 213,129 L 214,128 L 214,127 L 215,126 L 215,124 L 216,123 L 216,122 L 217,121 L 217,119 L 219,117 L 219,114 L 220,113 L 220,112 L 221,111 L 221,109 L 223,107 L 223,105 L 224,104 L 224,103 L 225,102 L 225,98 Z" fill="black" /><path d="M 17,27 L 17,28 L 16,29 L 16,84 L 15,85 L 16,86 L 16,92 L 17,93 L 17,95 L 16,96 L 16,109 L 17,110 L 17,113 L 16,114 L 16,204 L 17,205 L 22,205 L 23,204 L 24,204 L 25,205 L 68,205 L 69,204 L 73,204 L 74,205 L 77,205 L 78,204 L 81,204 L 82,205 L 89,205 L 90,204 L 91,204 L 92,205 L 95,205 L 97,203 L 97,202 L 98,201 L 99,201 L 99,200 L 100,199 L 100,198 L 101,197 L 101,196 L 103,194 L 103,193 L 105,191 L 105,190 L 107,188 L 107,187 L 108,186 L 108,185 L 109,184 L 109,183 L 110,182 L 110,181 L 111,180 L 111,179 L 113,177 L 113,176 L 115,174 L 115,173 L 117,171 L 117,170 L 118,169 L 118,168 L 119,167 L 119,166 L 120,165 L 121,165 L 121,163 L 124,160 L 124,159 L 126,157 L 126,156 L 127,155 L 127,154 L 129,152 L 129,150 L 128,150 L 127,149 L 126,149 L 125,148 L 124,148 L 122,146 L 120,146 L 118,144 L 116,144 L 114,142 L 112,142 L 110,140 L 108,140 L 107,139 L 106,139 L 105,138 L 104,138 L 102,136 L 100,136 L 99,135 L 98,135 L 97,134 L 96,134 L 95,133 L 94,133 L 93,132 L 92,132 L 90,130 L 88,130 L 87,129 L 86,129 L 85,128 L 85,125 L 86,124 L 86,123 L 87,122 L 87,119 L 88,118 L 88,116 L 89,115 L 89,112 L 90,111 L 90,110 L 91,109 L 91,106 L 92,105 L 92,104 L 93,103 L 93,101 L 95,99 L 95,96 L 96,95 L 96,94 L 97,93 L 97,92 L 98,91 L 98,88 L 99,87 L 99,86 L 101,84 L 101,79 L 103,77 L 103,75 L 104,74 L 104,70 L 105,69 L 105,67 L 107,65 L 107,63 L 108,62 L 108,60 L 109,59 L 109,57 L 110,56 L 110,54 L 111,53 L 111,50 L 112,49 L 112,48 L 113,47 L 113,45 L 114,44 L 114,43 L 115,42 L 115,40 L 116,39 L 116,38 L 117,37 L 117,35 L 118,34 L 118,33 L 119,32 L 119,28 L 110,28 L 109,27 L 108,28 L 42,28 L 41,27 L 39,27 L 38,28 L 30,28 L 29,27 L 26,27 L 25,28 L 24,28 L 23,27 L 22,27 L 21,28 L 20,28 L 19,27 Z" fill="black" /><path d="M 0,0 L 0,216 L 253,216 L 253,0 Z" fill="none" stroke="black" stroke-width="1" /></svg>