<?xml version='1.0' encoding='utf-8'?>
<svg width="257" height="217" xmlns="http://www.w3.org/2000/svg" viewBox="0 0 257 217"><rect width="257" height="217" fill="white" /><path d="M 175,75 L 174,76 L 166,76 L 165,77 L 162,77 L 161,78 L 158,78 L 157,79 L 156,79 L 155,80 L 153,80 L 151,82 L 149,82 L 148,83 L 147,83 L 146,84 L 144,84 L 142,86 L 141,86 L 137,90 L 136,90 L 134,92 L 133,92 L 133,93 L 132,94 L 131,94 L 131,95 L 130,96 L 129,96 L 129,97 L 128,98 L 127,98 L 127,99 L 126,100 L 126,101 L 123,104 L 123,105 L 121,107 L 121,109 L 120,110 L 119,110 L 119,114 L 117,116 L 117,119 L 116,120 L 116,121 L 115,122 L 115,130 L 114,131 L 114,146 L 115,147 L 115,152 L 116,153 L 116,154 L 117,155 L 117,157 L 119,159 L 119,161 L 120,162 L 120,163 L 121,164 L 121,165 L 122,166 L 122,167 L 125,170 L 125,172 L 127,174 L 127,175 L 128,175 L 129,176 L 129,177 L 130,177 L 131,178 L 131,179 L 132,179 L 133,180 L 133,181 L 134,181 L 135,182 L 135,183 L 136,183 L 137,184 L 138,184 L 139,185 L 140,185 L 142,187 L 143,187 L 145,189 L 146,189 L 147,190 L 148,190 L 149,191 L 150,191 L 151,192 L 153,192 L 154,193 L 156,193 L 157,194 L 159,194 L 160,195 L 164,195 L 166,197 L 168,197 L 169,196 L 170,197 L 185,197 L 186,196 L 188,196 L 189,195 L 192,195 L 193,194 L 194,194 L 195,193 L 198,193 L 198,192 L 199,191 L 202,191 L 203,190 L 204,190 L 205,189 L 206,189 L 207,188 L 208,188 L 209,187 L 210,187 L 212,185 L 212,184 L 213,183 L 214,183 L 217,180 L 218,180 L 219,179 L 220,179 L 220,178 L 227,171 L 227,168 L 228,167 L 228,166 L 230,164 L 230,162 L 232,160 L 232,158 L 233,157 L 233,156 L 234,155 L 234,154 L 235,153 L 235,150 L 236,149 L 236,126 L 235,125 L 235,123 L 234,122 L 234,118 L 233,117 L 233,115 L 232,114 L 232,112 L 231,112 L 230,111 L 230,110 L 229,109 L 229,108 L 228,107 L 228,105 L 226,103 L 226,102 L 224,100 L 224,98 L 222,96 L 221,96 L 220,95 L 220,94 L 219,94 L 218,93 L 218,92 L 214,88 L 213,88 L 212,87 L 212,86 L 210,86 L 207,83 L 206,83 L 205,82 L 203,82 L 201,80 L 199,80 L 198,79 L 197,79 L 196,78 L 191,78 L 190,77 L 187,77 L 186,76 L 177,76 L 176,75 Z" fill="black" /><path d="M 55,43 L 54,44 L 52,44 L 50,46 L 49,46 L 47,48 L 47,51 L 45,53 L 45,61 L 47,63 L 47,65 L 48,65 L 49,66 L 49,67 L 51,69 L 52,69 L 54,71 L 57,71 L 58,72 L 61,72 L 62,71 L 66,71 L 72,65 L 72,64 L 73,63 L 73,60 L 74,59 L 74,53 L 72,51 L 72,49 L 70,47 L 70,46 L 69,46 L 67,44 L 65,44 L 64,43 Z" fill="black" /></svg>