<?xml version='1.0' encoding='utf-8'?>
<svg width="256" height="218" xmlns="http://www.w3.org/2000/svg" viewBox="0 0 256 218"><rect width="256" height="218" fill="white" /><path d="M 40,38 L 39,39 L 36,39 L 36,40 L 35,41 L 32,41 L 32,42 L 31,43 L 29,43 L 22,50 L 22,52 L 21,53 L 20,53 L 20,56 L 19,57 L 19,58 L 18,59 L 18,67 L 17,68 L 17,70 L 18,71 L 18,78 L 20,80 L 20,82 L 22,84 L 22,85 L 24,87 L 24,88 L 26,90 L 27,90 L 28,91 L 28,92 L 29,92 L 31,94 L 33,94 L 35,96 L 37,96 L 38,97 L 39,97 L 40,98 L 53,98 L 54,97 L 55,97 L 56,96 L 59,96 L 61,94 L 62,94 L 64,92 L 65,92 L 65,91 L 66,90 L 67,90 L 69,88 L 70,88 L 71,87 L 71,86 L 73,84 L 73,83 L 74,82 L 74,80 L 75,79 L 75,77 L 77,75 L 77,71 L 78,70 L 78,69 L 77,68 L 77,59 L 76,59 L 75,58 L 75,57 L 74,56 L 74,55 L 73,54 L 73,51 L 71,49 L 70,49 L 69,48 L 69,47 L 67,45 L 66,45 L 65,44 L 65,43 L 64,43 L 63,42 L 62,42 L 61,41 L 58,41 L 56,39 L 52,39 L 51,38 Z" fill="black" /><path d="M 175,6 L 174,7 L 170,7 L 169,8 L 166,8 L 165,9 L 164,9 L 163,10 L 162,10 L 161,11 L 160,11 L 152,19 L 152,20 L 151,21 L 150,21 L 150,22 L 149,23 L 148,23 L 148,24 L 147,25 L 146,25 L 146,26 L 145,27 L 145,28 L 142,31 L 142,32 L 141,33 L 141,34 L 140,35 L 140,36 L 139,37 L 138,37 L 138,39 L 136,41 L 136,43 L 134,45 L 134,47 L 132,49 L 132,52 L 130,54 L 130,56 L 129,57 L 129,58 L 128,59 L 128,63 L 126,65 L 126,70 L 125,71 L 125,72 L 124,73 L 124,77 L 123,78 L 123,81 L 122,82 L 122,100 L 121,101 L 121,120 L 122,121 L 122,128 L 123,129 L 123,132 L 124,133 L 124,137 L 126,139 L 126,144 L 127,145 L 127,146 L 128,147 L 128,150 L 129,151 L 129,152 L 130,153 L 130,155 L 131,156 L 131,158 L 132,159 L 132,161 L 134,163 L 134,166 L 135,166 L 136,167 L 136,169 L 138,171 L 138,173 L 140,175 L 140,177 L 142,179 L 142,180 L 146,184 L 146,186 L 148,188 L 148,189 L 150,191 L 150,192 L 151,192 L 152,193 L 152,194 L 156,198 L 157,198 L 158,199 L 158,200 L 159,200 L 161,202 L 163,202 L 164,203 L 165,203 L 166,204 L 169,204 L 171,206 L 174,206 L 175,207 L 176,207 L 177,208 L 185,208 L 186,207 L 189,207 L 190,206 L 194,206 L 200,200 L 201,200 L 203,198 L 204,198 L 205,197 L 205,196 L 206,195 L 207,195 L 211,191 L 211,190 L 213,188 L 213,187 L 215,185 L 215,184 L 217,182 L 217,181 L 219,179 L 219,178 L 220,177 L 220,176 L 221,175 L 221,173 L 222,172 L 223,172 L 223,170 L 225,168 L 225,166 L 227,164 L 227,163 L 226,162 L 227,161 L 227,160 L 229,158 L 229,155 L 230,154 L 230,153 L 231,152 L 231,149 L 232,148 L 232,146 L 233,145 L 233,140 L 235,138 L 235,131 L 236,130 L 236,129 L 237,128 L 237,116 L 238,115 L 238,113 L 237,112 L 237,110 L 238,109 L 238,105 L 237,104 L 237,87 L 236,86 L 236,84 L 235,83 L 235,79 L 234,78 L 234,73 L 233,72 L 233,68 L 232,67 L 232,66 L 231,65 L 231,63 L 230,62 L 230,61 L 229,60 L 229,57 L 227,55 L 227,54 L 225,52 L 225,47 L 223,45 L 223,44 L 222,43 L 222,42 L 221,41 L 221,40 L 219,38 L 219,36 L 217,34 L 217,33 L 216,32 L 216,31 L 214,29 L 213,29 L 212,28 L 212,27 L 211,26 L 211,25 L 209,23 L 209,22 L 208,21 L 207,21 L 205,19 L 205,18 L 204,17 L 202,17 L 201,16 L 201,15 L 200,15 L 199,14 L 198,14 L 197,13 L 196,13 L 194,11 L 193,11 L 191,9 L 190,9 L 189,8 L 188,8 L 187,7 L 184,7 L 183,6 Z" fill="black" /></svg>