<?xml version='1.0' encoding='utf-8'?>
<svg width="257" height="218" xmlns="http://www.w3.org/2000/svg" viewBox="0 0 257 218"><rect width="257" height="218" fill="white" /><path d="M 215,113 L 214,114 L 176,114 L 174,116 L 174,123 L 175,124 L 175,125 L 176,126 L 176,134 L 175,135 L 175,144 L 176,145 L 176,146 L 175,147 L 175,151 L 176,152 L 176,176 L 181,176 L 182,175 L 191,175 L 192,176 L 193,176 L 194,175 L 217,175 L 217,170 L 216,169 L 216,166 L 217,165 L 217,114 L 216,113 Z" fill="black" /><path d="M 84,63 L 83,64 L 43,64 L 42,65 L 39,65 L 37,67 L 37,167 L 38,168 L 38,179 L 39,179 L 40,180 L 42,180 L 43,179 L 45,179 L 46,180 L 50,180 L 51,179 L 65,179 L 66,180 L 67,180 L 68,179 L 109,179 L 110,178 L 115,178 L 117,176 L 117,160 L 118,159 L 118,156 L 117,155 L 117,141 L 118,140 L 118,138 L 117,137 L 117,98 L 118,97 L 118,95 L 117,94 L 117,65 L 114,65 L 113,64 L 102,64 L 101,63 Z" fill="black" /><path d="M 0,0 L 0,217 L 256,217 L 256,0 Z" fill="none" stroke="black" stroke-width="1" /></svg>