<?xml version='1.0' encoding='utf-8'?>
<svg width="257" height="220" xmlns="http://www.w3.org/2000/svg" viewBox="0 0 257 220"><rect width="257" height="220" fill="white" /><path d="M 179,85 L 178,86 L 178,87 L 175,90 L 175,93 L 173,95 L 173,97 L 172,98 L 171,98 L 171,99 L 170,100 L 170,101 L 169,102 L 169,103 L 167,105 L 167,107 L 166,108 L 165,108 L 165,109 L 163,111 L 163,112 L 161,114 L 161,115 L 160,116 L 160,117 L 159,118 L 159,119 L 157,121 L 157,123 L 155,125 L 155,126 L 153,128 L 153,129 L 151,131 L 151,133 L 149,135 L 149,137 L 147,139 L 147,140 L 145,142 L 145,144 L 143,146 L 143,147 L 141,149 L 141,151 L 139,153 L 139,155 L 137,157 L 137,158 L 135,160 L 135,162 L 133,164 L 133,165 L 132,166 L 132,167 L 131,168 L 131,172 L 138,172 L 139,173 L 140,173 L 141,172 L 146,172 L 147,171 L 149,171 L 150,172 L 157,172 L 158,171 L 170,171 L 171,170 L 172,171 L 185,171 L 186,170 L 187,170 L 188,171 L 190,171 L 191,170 L 192,170 L 193,171 L 196,171 L 197,170 L 207,170 L 208,169 L 232,169 L 232,165 L 231,164 L 231,163 L 230,162 L 230,161 L 228,159 L 228,158 L 227,157 L 227,156 L 226,155 L 226,154 L 225,154 L 224,153 L 224,151 L 222,149 L 222,148 L 221,147 L 221,146 L 220,145 L 220,144 L 219,144 L 218,143 L 218,141 L 216,139 L 216,138 L 214,136 L 214,135 L 212,133 L 212,132 L 211,131 L 211,130 L 210,129 L 210,128 L 207,125 L 207,124 L 206,123 L 206,122 L 205,122 L 204,121 L 204,120 L 203,119 L 203,118 L 202,117 L 202,116 L 201,116 L 200,115 L 200,114 L 199,113 L 199,112 L 198,111 L 198,110 L 196,108 L 196,107 L 194,105 L 194,104 L 192,102 L 192,101 L 190,99 L 190,98 L 188,96 L 188,94 L 187,94 L 186,93 L 186,92 L 184,90 L 184,88 L 181,85 Z" fill="black" /><path d="M 61,64 L 59,66 L 59,68 L 57,70 L 57,71 L 55,73 L 55,75 L 53,77 L 53,79 L 51,81 L 51,82 L 49,84 L 49,86 L 47,88 L 47,89 L 45,91 L 45,93 L 43,95 L 43,97 L 41,99 L 41,100 L 40,101 L 40,102 L 39,103 L 39,107 L 45,107 L 46,108 L 65,108 L 66,109 L 77,109 L 78,108 L 82,108 L 83,107 L 87,107 L 88,106 L 87,105 L 87,104 L 84,101 L 84,99 L 82,97 L 82,96 L 81,95 L 81,94 L 80,93 L 80,92 L 78,90 L 78,89 L 76,87 L 76,86 L 75,85 L 75,84 L 74,83 L 74,82 L 72,80 L 72,79 L 70,77 L 70,76 L 69,75 L 69,74 L 68,73 L 68,72 L 66,70 L 66,69 L 64,67 L 64,66 L 63,65 L 63,64 Z" fill="black" /><path d="M 0,0 L 0,219 L 256,219 L 256,0 Z" fill="none" stroke="black" stroke-width="1" /></svg>