<?xml version='1.0' encoding='utf-8'?>
<svg width="258" height="225" xmlns="http://www.w3.org/2000/svg" viewBox="0 0 258 225"><rect width="258" height="225" fill="white" /><path d="M 0,222 L 0,224 L 257,224 L 257,222 L 255,222 L 254,223 L 252,223 L 251,222 L 246,222 L 245,223 L 234,223 L 233,222 L 222,222 L 221,223 L 218,223 L 217,222 L 199,222 L 198,223 L 197,222 L 173,222 L 172,223 L 171,222 L 158,222 L 157,223 L 152,223 L 151,222 L 94,222 L 93,223 L 84,223 L 83,222 L 76,222 L 75,223 L 72,223 L 71,222 Z" fill="black" /><path d="M 35,54 L 33,56 L 32,56 L 30,58 L 30,61 L 29,62 L 29,63 L 28,64 L 28,79 L 29,80 L 29,81 L 30,82 L 30,88 L 31,89 L 31,91 L 32,92 L 32,100 L 33,101 L 33,102 L 34,103 L 34,107 L 36,109 L 36,113 L 38,115 L 38,117 L 39,118 L 39,119 L 40,120 L 40,121 L 42,123 L 42,125 L 43,126 L 43,127 L 44,128 L 44,130 L 46,132 L 46,134 L 48,136 L 48,137 L 49,137 L 50,138 L 50,140 L 52,142 L 52,143 L 53,143 L 54,144 L 54,145 L 56,147 L 56,149 L 57,149 L 58,150 L 58,151 L 62,155 L 62,156 L 72,166 L 72,167 L 73,167 L 77,171 L 78,171 L 80,173 L 81,173 L 82,174 L 82,175 L 83,175 L 85,177 L 86,177 L 88,179 L 89,179 L 91,181 L 92,181 L 93,182 L 94,182 L 95,183 L 97,183 L 99,185 L 108,185 L 111,182 L 111,178 L 112,177 L 112,176 L 113,175 L 113,174 L 112,173 L 112,170 L 113,169 L 113,167 L 112,166 L 112,162 L 111,161 L 111,150 L 110,149 L 110,148 L 109,147 L 109,143 L 108,142 L 108,141 L 107,140 L 107,134 L 106,133 L 106,132 L 105,131 L 105,129 L 104,128 L 104,127 L 103,126 L 103,123 L 101,121 L 101,118 L 100,117 L 100,116 L 99,115 L 99,113 L 97,111 L 97,109 L 95,107 L 95,105 L 92,102 L 92,101 L 91,100 L 91,98 L 90,98 L 87,95 L 87,93 L 85,91 L 85,90 L 84,90 L 81,87 L 81,85 L 75,79 L 75,78 L 73,76 L 72,76 L 66,70 L 65,70 L 64,69 L 64,68 L 63,68 L 61,66 L 60,66 L 56,62 L 54,62 L 53,61 L 53,60 L 52,60 L 51,59 L 50,59 L 47,56 L 45,56 L 43,54 Z" fill="black" /><path d="M 0,0 L 0,221 L 71,221 L 72,222 L 75,222 L 76,221 L 83,221 L 84,222 L 93,222 L 94,221 L 151,221 L 152,222 L 157,222 L 158,221 L 171,221 L 172,222 L 173,221 L 197,221 L 198,222 L 199,221 L 217,221 L 218,222 L 221,222 L 222,221 L 233,221 L 234,222 L 245,222 L 246,221 L 251,221 L 252,222 L 254,222 L 255,221 L 257,221 L 257,0 Z" fill="none" stroke="black" stroke-width="1" /></svg>