<?xml version='1.0' encoding='utf-8'?>
<svg width="259" height="220" xmlns="http://www.w3.org/2000/svg" viewBox="0 0 259 220"><rect width="259" height="220" fill="white" /><path d="M 174,19 L 173,20 L 165,20 L 164,21 L 161,21 L 160,22 L 157,22 L 156,23 L 155,23 L 154,24 L 149,24 L 148,25 L 147,25 L 146,26 L 144,26 L 142,28 L 141,28 L 140,29 L 139,29 L 138,30 L 137,30 L 135,32 L 132,32 L 130,34 L 129,34 L 128,35 L 127,35 L 126,36 L 125,36 L 123,38 L 122,38 L 120,40 L 119,40 L 116,43 L 115,43 L 112,46 L 111,46 L 111,47 L 110,48 L 109,48 L 109,49 L 108,50 L 107,50 L 107,51 L 106,52 L 105,52 L 103,54 L 102,54 L 97,59 L 97,60 L 95,62 L 95,63 L 94,64 L 93,64 L 93,65 L 92,66 L 91,66 L 91,67 L 89,69 L 89,70 L 87,72 L 87,73 L 86,74 L 86,75 L 85,76 L 85,77 L 84,78 L 83,78 L 83,79 L 80,82 L 80,83 L 79,84 L 79,87 L 77,89 L 77,90 L 76,91 L 76,92 L 75,93 L 75,95 L 74,96 L 74,97 L 73,98 L 73,99 L 72,100 L 72,101 L 71,102 L 71,104 L 69,106 L 69,111 L 68,112 L 68,113 L 67,114 L 67,118 L 66,119 L 66,120 L 65,121 L 65,124 L 64,125 L 64,128 L 63,129 L 63,141 L 62,142 L 62,147 L 61,148 L 61,153 L 62,154 L 62,156 L 63,157 L 63,163 L 64,164 L 64,165 L 65,166 L 65,168 L 66,169 L 66,171 L 69,174 L 69,175 L 73,179 L 74,179 L 76,181 L 77,181 L 79,183 L 80,183 L 81,184 L 82,184 L 83,185 L 88,185 L 89,186 L 94,186 L 95,185 L 100,185 L 101,184 L 104,184 L 105,183 L 109,183 L 110,182 L 111,182 L 112,181 L 115,181 L 117,179 L 120,179 L 121,178 L 122,178 L 123,177 L 125,177 L 126,176 L 127,176 L 128,175 L 129,175 L 131,173 L 132,173 L 133,172 L 134,172 L 135,171 L 136,171 L 137,170 L 138,170 L 139,169 L 140,169 L 142,167 L 144,167 L 146,165 L 147,165 L 149,163 L 150,163 L 150,162 L 151,161 L 152,161 L 153,160 L 154,160 L 155,159 L 156,159 L 162,153 L 162,152 L 163,151 L 164,151 L 164,150 L 167,147 L 168,147 L 168,146 L 169,145 L 170,145 L 170,144 L 171,143 L 172,143 L 172,142 L 173,141 L 173,140 L 177,136 L 178,136 L 179,135 L 179,134 L 180,133 L 180,132 L 182,130 L 183,130 L 184,129 L 184,127 L 186,125 L 186,123 L 188,121 L 188,120 L 189,119 L 190,119 L 190,116 L 192,114 L 192,112 L 193,111 L 193,110 L 194,109 L 194,108 L 196,106 L 196,104 L 198,102 L 198,98 L 199,97 L 199,96 L 200,95 L 200,94 L 201,93 L 201,92 L 202,91 L 202,82 L 203,81 L 203,80 L 204,79 L 204,76 L 205,75 L 205,69 L 206,68 L 206,44 L 204,42 L 204,38 L 202,36 L 202,34 L 198,30 L 198,29 L 197,28 L 196,28 L 193,25 L 193,24 L 192,24 L 190,22 L 189,22 L 188,21 L 185,21 L 184,20 L 182,20 L 181,19 Z" fill="black" /><path d="M 0,0 L 0,219 L 258,219 L 258,0 Z" fill="none" stroke="black" stroke-width="1" /></svg>