<?xml version='1.0' encoding='utf-8'?>
<svg width="260" height="223" xmlns="http://www.w3.org/2000/svg" viewBox="0 0 260 223"><rect width="260" height="223" fill="white" /><path d="M 189,61 L 188,62 L 182,62 L 181,63 L 180,63 L 179,64 L 176,64 L 175,65 L 174,65 L 173,66 L 172,66 L 170,68 L 168,68 L 166,70 L 165,70 L 163,72 L 161,72 L 157,76 L 156,76 L 156,77 L 155,78 L 154,78 L 152,80 L 151,80 L 150,81 L 149,81 L 148,82 L 147,82 L 145,84 L 144,84 L 142,86 L 140,86 L 139,87 L 137,87 L 136,88 L 126,88 L 125,87 L 123,87 L 122,86 L 121,86 L 119,84 L 118,84 L 117,83 L 117,82 L 116,82 L 109,75 L 108,75 L 107,74 L 106,74 L 104,72 L 102,72 L 101,71 L 100,71 L 99,70 L 97,70 L 95,68 L 89,68 L 88,67 L 80,67 L 79,68 L 72,68 L 71,69 L 70,69 L 69,70 L 68,70 L 67,71 L 66,71 L 65,72 L 64,72 L 64,73 L 63,74 L 62,74 L 60,76 L 59,76 L 57,78 L 57,79 L 54,82 L 54,83 L 53,84 L 52,84 L 52,89 L 50,91 L 49,91 L 48,92 L 48,96 L 47,97 L 47,98 L 46,99 L 46,112 L 45,113 L 45,121 L 46,122 L 46,127 L 47,128 L 47,130 L 48,131 L 48,139 L 49,140 L 49,141 L 50,142 L 50,145 L 52,147 L 52,151 L 53,151 L 54,152 L 54,153 L 55,154 L 55,155 L 56,156 L 56,157 L 58,159 L 58,161 L 61,164 L 61,165 L 62,166 L 62,167 L 63,168 L 63,169 L 71,177 L 72,177 L 74,179 L 75,179 L 76,180 L 76,181 L 77,181 L 78,182 L 79,182 L 80,183 L 81,183 L 84,186 L 85,186 L 86,187 L 87,187 L 89,189 L 91,189 L 93,191 L 95,191 L 97,193 L 98,193 L 99,194 L 101,194 L 102,195 L 105,195 L 106,196 L 109,196 L 110,197 L 116,197 L 117,198 L 122,198 L 123,199 L 147,199 L 148,198 L 153,198 L 154,197 L 162,197 L 163,196 L 164,196 L 165,195 L 171,195 L 172,194 L 173,194 L 174,193 L 179,193 L 181,191 L 184,191 L 186,189 L 187,189 L 188,188 L 189,188 L 190,187 L 191,187 L 193,185 L 195,185 L 197,183 L 199,183 L 201,181 L 203,181 L 205,179 L 205,178 L 207,176 L 207,175 L 211,171 L 211,170 L 212,169 L 213,169 L 213,167 L 215,165 L 215,164 L 216,163 L 217,163 L 219,161 L 219,159 L 221,157 L 221,152 L 223,150 L 223,147 L 225,145 L 225,142 L 227,140 L 227,138 L 228,137 L 228,134 L 229,133 L 229,130 L 230,129 L 230,128 L 231,127 L 231,117 L 232,116 L 232,108 L 231,107 L 231,100 L 230,99 L 230,96 L 229,95 L 229,90 L 228,90 L 227,89 L 227,85 L 225,83 L 225,82 L 224,81 L 224,80 L 223,79 L 223,78 L 222,77 L 222,76 L 221,75 L 221,74 L 220,74 L 219,73 L 219,72 L 218,72 L 217,71 L 217,70 L 215,68 L 215,67 L 214,67 L 213,66 L 212,66 L 211,65 L 210,65 L 209,64 L 208,64 L 207,65 L 205,65 L 204,64 L 200,64 L 199,63 L 199,62 L 197,62 L 196,61 Z" fill="black" /><path d="M 0,0 L 0,222 L 259,222 L 259,0 Z" fill="none" stroke="black" stroke-width="1" /></svg>