<?xml version='1.0' encoding='utf-8'?>
<svg width="260" height="221" xmlns="http://www.w3.org/2000/svg" viewBox="0 0 260 221"><rect width="260" height="221" fill="white" /><path d="M 91,54 L 90,55 L 80,55 L 79,56 L 77,56 L 76,57 L 74,57 L 73,58 L 72,58 L 71,59 L 70,59 L 68,61 L 66,61 L 66,62 L 65,63 L 63,63 L 61,65 L 60,65 L 56,69 L 56,70 L 55,71 L 54,71 L 54,72 L 53,73 L 52,73 L 52,74 L 51,75 L 50,75 L 50,76 L 49,77 L 48,77 L 48,78 L 46,80 L 46,81 L 45,82 L 45,83 L 44,84 L 44,86 L 43,87 L 43,88 L 42,89 L 42,92 L 41,93 L 41,94 L 40,95 L 40,104 L 39,105 L 39,112 L 40,113 L 40,122 L 41,123 L 41,124 L 42,125 L 42,128 L 44,130 L 44,132 L 46,134 L 46,136 L 49,139 L 49,140 L 50,141 L 50,142 L 51,142 L 52,143 L 52,144 L 53,144 L 54,145 L 54,146 L 55,146 L 56,147 L 56,148 L 57,148 L 58,149 L 58,150 L 59,150 L 61,152 L 63,152 L 64,153 L 64,154 L 65,154 L 66,155 L 67,155 L 68,156 L 69,156 L 70,157 L 71,157 L 72,158 L 75,158 L 77,160 L 81,160 L 82,161 L 85,161 L 86,162 L 90,162 L 91,161 L 100,161 L 101,160 L 105,160 L 106,159 L 109,159 L 110,158 L 113,158 L 114,157 L 115,157 L 116,156 L 117,156 L 119,154 L 120,154 L 122,152 L 124,152 L 126,150 L 127,150 L 127,149 L 128,148 L 129,148 L 131,146 L 131,145 L 132,144 L 133,144 L 133,143 L 137,139 L 137,138 L 139,136 L 139,135 L 141,133 L 141,131 L 143,129 L 143,126 L 144,125 L 144,124 L 145,123 L 145,119 L 146,118 L 146,112 L 147,111 L 147,102 L 146,101 L 146,97 L 145,96 L 145,93 L 144,92 L 144,91 L 143,90 L 143,89 L 142,88 L 142,86 L 141,85 L 141,83 L 139,81 L 139,79 L 138,79 L 137,78 L 137,77 L 136,76 L 136,75 L 135,74 L 135,73 L 134,73 L 133,72 L 133,71 L 132,71 L 131,70 L 131,69 L 130,69 L 129,68 L 129,67 L 128,67 L 127,66 L 126,66 L 125,65 L 125,64 L 124,64 L 123,63 L 122,63 L 120,61 L 119,61 L 117,59 L 114,59 L 113,58 L 112,58 L 111,57 L 108,57 L 107,56 L 106,56 L 105,55 L 93,55 L 92,54 Z" fill="black" /></svg>