<?xml version='1.0' encoding='utf-8'?>
<svg width="261" height="218" xmlns="http://www.w3.org/2000/svg" viewBox="0 0 261 218"><rect width="261" height="218" fill="white" /><path d="M 142,34 L 140,36 L 138,36 L 136,38 L 132,38 L 130,40 L 128,40 L 127,41 L 126,41 L 125,42 L 124,42 L 123,43 L 122,43 L 121,44 L 119,44 L 117,46 L 114,46 L 114,47 L 113,48 L 110,48 L 108,50 L 106,50 L 105,51 L 104,51 L 103,52 L 102,52 L 101,53 L 100,53 L 99,54 L 97,54 L 95,56 L 92,56 L 90,58 L 88,58 L 87,59 L 86,59 L 85,60 L 83,60 L 81,62 L 79,62 L 77,64 L 75,64 L 73,66 L 70,66 L 68,68 L 66,68 L 65,69 L 64,69 L 63,70 L 62,70 L 60,72 L 58,72 L 57,73 L 56,73 L 55,74 L 54,74 L 53,75 L 52,75 L 51,76 L 50,76 L 49,77 L 48,77 L 47,78 L 44,78 L 44,79 L 43,80 L 40,80 L 38,82 L 36,82 L 34,84 L 32,84 L 30,86 L 28,86 L 27,87 L 26,87 L 25,88 L 24,88 L 23,89 L 23,181 L 22,182 L 22,185 L 23,186 L 23,187 L 22,188 L 22,195 L 26,195 L 27,194 L 28,194 L 29,193 L 32,193 L 34,191 L 37,191 L 38,190 L 39,190 L 40,189 L 43,189 L 44,188 L 45,188 L 46,187 L 49,187 L 50,186 L 51,186 L 52,185 L 55,185 L 56,184 L 57,184 L 58,183 L 60,183 L 61,182 L 63,182 L 64,181 L 67,181 L 68,180 L 69,180 L 70,179 L 73,179 L 74,178 L 75,178 L 76,177 L 78,177 L 80,175 L 83,175 L 84,174 L 86,174 L 87,173 L 89,173 L 90,172 L 91,172 L 92,171 L 95,171 L 96,170 L 97,170 L 98,169 L 101,169 L 102,168 L 103,168 L 104,167 L 107,167 L 108,166 L 109,166 L 110,165 L 113,165 L 114,164 L 115,164 L 116,163 L 119,163 L 120,162 L 121,162 L 122,161 L 125,161 L 126,160 L 127,160 L 128,159 L 131,159 L 132,158 L 133,158 L 134,157 L 137,157 L 138,156 L 139,156 L 140,155 L 143,155 L 144,154 L 145,154 L 146,153 L 148,153 L 149,152 L 151,152 L 152,151 L 154,151 L 155,150 L 157,150 L 158,149 L 161,149 L 162,148 L 163,148 L 164,147 L 167,147 L 168,146 L 169,146 L 170,145 L 173,145 L 174,144 L 175,144 L 176,143 L 179,143 L 180,142 L 181,142 L 182,141 L 185,141 L 186,140 L 187,140 L 188,139 L 192,139 L 193,138 L 193,134 L 191,132 L 191,130 L 189,128 L 189,125 L 187,123 L 187,122 L 186,121 L 186,120 L 185,119 L 185,117 L 183,115 L 183,112 L 182,112 L 181,111 L 181,109 L 179,107 L 179,105 L 177,103 L 177,101 L 175,99 L 175,97 L 173,95 L 173,92 L 171,90 L 171,88 L 169,86 L 169,84 L 168,83 L 168,82 L 167,81 L 167,80 L 166,79 L 166,78 L 165,77 L 165,76 L 164,75 L 164,74 L 163,73 L 163,71 L 161,69 L 161,67 L 160,66 L 160,65 L 159,64 L 159,62 L 157,60 L 157,58 L 156,57 L 156,56 L 155,55 L 155,53 L 153,51 L 153,49 L 151,47 L 151,44 L 150,43 L 150,42 L 149,41 L 149,40 L 147,38 L 147,36 L 145,34 Z" fill="black" /><path d="M 0,0 L 0,217 L 260,217 L 260,0 Z" fill="none" stroke="black" stroke-width="1" /></svg>