<?xml version='1.0' encoding='utf-8'?>
<svg width="261" height="218" xmlns="http://www.w3.org/2000/svg" viewBox="0 0 261 218"><rect width="261" height="218" fill="white" /><path d="M 129,34 L 128,35 L 108,35 L 107,36 L 105,36 L 104,35 L 103,35 L 102,36 L 54,36 L 54,39 L 53,40 L 53,42 L 54,43 L 54,102 L 53,103 L 53,109 L 54,110 L 53,111 L 53,115 L 55,117 L 67,117 L 68,116 L 69,117 L 72,117 L 73,116 L 131,116 L 132,117 L 134,117 L 135,116 L 134,115 L 134,106 L 135,105 L 135,102 L 134,101 L 134,88 L 135,87 L 135,67 L 136,66 L 136,64 L 135,63 L 135,60 L 136,59 L 136,56 L 135,55 L 135,44 L 136,43 L 135,42 L 135,35 L 131,35 L 130,34 Z" fill="black" /><path d="M 0,0 L 0,217 L 260,217 L 260,0 Z" fill="none" stroke="black" stroke-width="1" /></svg>