<?xml version='1.0' encoding='utf-8'?>
<svg width="260" height="220" xmlns="http://www.w3.org/2000/svg" viewBox="0 0 260 220"><rect width="260" height="220" fill="white" /><path d="M 159,83 L 159,84 L 158,85 L 158,87 L 157,88 L 157,89 L 156,90 L 156,91 L 155,92 L 155,93 L 154,94 L 154,95 L 153,96 L 153,97 L 152,98 L 152,99 L 151,100 L 151,101 L 150,102 L 150,104 L 149,105 L 149,106 L 148,107 L 148,108 L 147,109 L 147,110 L 146,111 L 146,113 L 144,115 L 144,117 L 143,118 L 143,119 L 142,120 L 142,121 L 141,122 L 141,123 L 140,124 L 140,126 L 138,128 L 138,131 L 136,133 L 136,135 L 134,137 L 134,139 L 132,141 L 132,143 L 131,144 L 131,145 L 130,146 L 130,147 L 129,148 L 129,149 L 128,150 L 128,151 L 127,152 L 127,153 L 126,154 L 126,155 L 125,156 L 125,157 L 124,158 L 124,160 L 122,162 L 122,164 L 121,165 L 121,166 L 120,167 L 120,168 L 118,170 L 118,171 L 117,172 L 118,173 L 126,173 L 127,172 L 129,172 L 130,171 L 138,171 L 139,170 L 142,170 L 143,169 L 149,169 L 150,168 L 153,168 L 154,167 L 161,167 L 162,166 L 165,166 L 166,165 L 171,165 L 172,164 L 175,164 L 176,163 L 184,163 L 185,162 L 187,162 L 188,161 L 195,161 L 196,160 L 201,160 L 202,159 L 208,159 L 209,158 L 212,158 L 213,157 L 221,157 L 222,156 L 225,156 L 226,155 L 229,155 L 230,156 L 231,156 L 232,155 L 232,154 L 231,153 L 230,153 L 222,145 L 222,144 L 218,140 L 217,140 L 216,139 L 216,138 L 215,138 L 211,134 L 211,133 L 199,121 L 198,121 L 197,120 L 197,119 L 195,117 L 194,117 L 192,115 L 192,114 L 181,103 L 181,102 L 180,102 L 179,101 L 179,100 L 178,100 L 177,99 L 177,98 L 176,98 L 175,97 L 175,96 L 174,96 L 173,95 L 173,94 L 172,94 L 163,85 L 163,84 L 162,83 Z" fill="black" /><path d="M 0,0 L 0,219 L 259,219 L 259,0 Z" fill="none" stroke="black" stroke-width="1" /></svg>