<?xml version='1.0' encoding='utf-8'?>
<svg width="260" height="220" xmlns="http://www.w3.org/2000/svg" viewBox="0 0 260 220"><rect width="260" height="220" fill="white" /><path d="M 40,33 L 39,34 L 36,34 L 36,38 L 37,39 L 37,40 L 38,41 L 38,43 L 40,45 L 40,47 L 41,48 L 41,49 L 42,50 L 42,51 L 43,52 L 43,53 L 44,54 L 44,56 L 46,58 L 46,60 L 48,62 L 48,64 L 49,65 L 49,66 L 50,67 L 50,69 L 52,71 L 52,73 L 53,74 L 53,75 L 54,76 L 54,77 L 55,78 L 55,79 L 56,80 L 56,81 L 57,82 L 57,83 L 58,84 L 58,86 L 60,88 L 60,90 L 61,91 L 61,92 L 62,93 L 62,94 L 64,96 L 64,99 L 66,101 L 66,103 L 68,105 L 68,107 L 69,108 L 69,109 L 70,110 L 70,111 L 71,112 L 71,113 L 72,114 L 72,116 L 74,118 L 74,120 L 76,122 L 76,123 L 77,124 L 77,125 L 78,126 L 78,129 L 80,131 L 80,133 L 82,135 L 82,137 L 84,139 L 84,141 L 86,143 L 86,145 L 88,147 L 88,149 L 89,150 L 89,151 L 90,152 L 90,153 L 91,154 L 91,155 L 92,156 L 92,158 L 94,160 L 94,161 L 95,162 L 95,163 L 96,164 L 96,166 L 98,168 L 98,171 L 100,173 L 100,175 L 101,176 L 101,177 L 102,178 L 102,179 L 104,181 L 104,186 L 106,188 L 109,185 L 109,184 L 111,182 L 111,181 L 113,179 L 113,178 L 114,177 L 115,177 L 115,176 L 118,173 L 118,172 L 119,171 L 119,170 L 120,169 L 121,169 L 121,168 L 122,167 L 122,166 L 125,163 L 125,162 L 126,161 L 127,161 L 127,160 L 129,158 L 129,157 L 131,155 L 131,154 L 132,153 L 133,153 L 133,152 L 135,150 L 135,149 L 137,147 L 137,146 L 138,145 L 139,145 L 139,144 L 142,141 L 142,140 L 145,137 L 145,136 L 148,133 L 148,132 L 149,131 L 149,130 L 150,129 L 151,129 L 151,128 L 154,125 L 154,124 L 155,123 L 155,122 L 156,121 L 157,121 L 157,120 L 159,118 L 159,117 L 161,115 L 161,114 L 162,113 L 163,113 L 163,112 L 165,110 L 165,109 L 167,107 L 167,106 L 168,105 L 169,105 L 169,104 L 171,102 L 171,101 L 173,99 L 173,98 L 176,95 L 177,95 L 177,94 L 178,93 L 178,92 L 179,91 L 179,90 L 180,89 L 181,89 L 181,88 L 183,86 L 183,85 L 187,81 L 187,80 L 189,78 L 189,77 L 191,75 L 191,74 L 192,73 L 193,73 L 193,72 L 195,70 L 195,69 L 197,67 L 197,66 L 198,65 L 199,65 L 199,64 L 201,62 L 201,61 L 205,57 L 205,56 L 208,53 L 208,52 L 211,49 L 211,48 L 212,47 L 213,47 L 213,46 L 216,43 L 216,42 L 219,39 L 219,38 L 220,37 L 219,36 L 215,36 L 214,35 L 212,35 L 211,36 L 208,36 L 207,35 L 188,35 L 187,34 L 185,34 L 184,35 L 182,35 L 181,34 L 178,34 L 177,35 L 176,35 L 175,34 L 167,34 L 166,35 L 165,34 L 106,34 L 105,33 L 104,33 L 103,34 L 100,34 L 99,33 L 97,33 L 96,34 L 94,34 L 93,33 Z" fill="black" /><path d="M 0,0 L 0,219 L 259,219 L 259,0 Z" fill="none" stroke="black" stroke-width="1" /></svg>