<?xml version='1.0' encoding='utf-8'?>
<svg width="255" height="217" xmlns="http://www.w3.org/2000/svg" viewBox="0 0 255 217"><rect width="255" height="217" fill="white" /><path d="M 190,129 L 189,130 L 185,130 L 184,131 L 182,131 L 181,132 L 180,132 L 179,133 L 178,133 L 177,134 L 176,134 L 175,135 L 174,135 L 174,136 L 173,137 L 172,137 L 172,138 L 171,139 L 170,139 L 168,141 L 168,144 L 167,145 L 167,146 L 166,147 L 166,150 L 165,151 L 165,154 L 166,155 L 166,156 L 165,157 L 165,158 L 166,159 L 166,164 L 167,165 L 167,166 L 168,167 L 168,168 L 170,170 L 170,171 L 172,173 L 172,174 L 173,174 L 177,178 L 178,178 L 179,179 L 180,179 L 181,180 L 185,180 L 186,181 L 190,181 L 191,182 L 193,182 L 194,181 L 197,181 L 198,180 L 201,180 L 202,179 L 203,179 L 204,178 L 205,178 L 209,174 L 210,174 L 212,172 L 212,171 L 215,168 L 215,166 L 217,164 L 217,157 L 218,156 L 218,149 L 217,148 L 217,147 L 216,146 L 216,144 L 215,143 L 214,143 L 213,142 L 213,140 L 209,136 L 209,135 L 207,133 L 204,133 L 203,132 L 202,132 L 201,131 L 198,131 L 197,130 L 193,130 L 192,129 Z" fill="black" /><path d="M 73,41 L 72,42 L 69,42 L 66,45 L 65,45 L 63,47 L 62,47 L 61,48 L 60,48 L 55,53 L 54,53 L 54,54 L 53,55 L 52,55 L 52,56 L 50,58 L 50,59 L 48,61 L 48,64 L 47,65 L 46,65 L 46,71 L 45,72 L 45,75 L 44,76 L 44,84 L 45,85 L 45,88 L 46,89 L 46,93 L 47,94 L 47,95 L 49,97 L 49,98 L 50,99 L 50,100 L 52,102 L 52,103 L 59,110 L 60,110 L 62,112 L 63,112 L 64,113 L 65,113 L 66,114 L 67,114 L 68,115 L 69,115 L 70,116 L 74,116 L 75,117 L 78,117 L 79,118 L 84,118 L 85,117 L 86,117 L 87,116 L 93,116 L 94,115 L 95,115 L 96,114 L 99,114 L 100,113 L 101,113 L 102,112 L 103,112 L 103,111 L 104,110 L 105,110 L 108,107 L 109,107 L 113,103 L 113,102 L 115,100 L 115,99 L 117,97 L 117,95 L 118,94 L 118,93 L 119,92 L 119,89 L 120,88 L 120,73 L 119,72 L 119,70 L 118,69 L 118,68 L 117,67 L 117,65 L 116,64 L 116,63 L 115,62 L 115,60 L 113,58 L 113,57 L 111,55 L 111,54 L 107,50 L 106,50 L 103,47 L 102,47 L 100,45 L 98,45 L 96,43 L 92,43 L 91,42 L 87,42 L 86,41 Z" fill="black" /><path d="M 198,30 L 197,31 L 141,31 L 139,33 L 141,35 L 142,35 L 145,38 L 146,38 L 147,39 L 147,40 L 154,47 L 154,48 L 155,48 L 156,49 L 156,50 L 157,50 L 158,51 L 158,52 L 159,52 L 160,53 L 160,54 L 161,54 L 162,55 L 162,56 L 163,56 L 164,57 L 164,58 L 165,58 L 166,59 L 166,60 L 167,60 L 168,61 L 168,62 L 169,62 L 170,63 L 170,64 L 171,64 L 172,65 L 172,66 L 173,66 L 174,67 L 174,68 L 175,68 L 176,69 L 176,70 L 182,76 L 182,77 L 183,78 L 184,78 L 186,80 L 186,81 L 187,81 L 190,84 L 190,85 L 195,90 L 196,90 L 198,92 L 198,93 L 208,103 L 208,104 L 209,104 L 210,105 L 210,106 L 211,106 L 212,107 L 212,108 L 213,108 L 214,109 L 214,110 L 216,112 L 217,112 L 217,111 L 218,110 L 218,105 L 219,104 L 219,103 L 218,102 L 218,77 L 217,76 L 217,36 L 216,35 L 216,32 L 215,31 L 200,31 L 199,30 Z" fill="black" /></svg>