<?xml version='1.0' encoding='utf-8'?>
<svg width="257" height="219" xmlns="http://www.w3.org/2000/svg" viewBox="0 0 257 219"><rect width="257" height="219" fill="white" /><path d="M 79,130 L 78,131 L 78,179 L 79,180 L 79,181 L 78,182 L 78,190 L 81,190 L 82,191 L 87,191 L 88,190 L 129,190 L 130,189 L 139,189 L 139,186 L 138,185 L 138,183 L 139,182 L 139,179 L 138,178 L 138,152 L 137,151 L 137,132 L 136,131 L 135,131 L 134,130 L 133,130 L 132,131 L 124,131 L 123,130 L 122,130 L 121,131 L 98,131 L 97,132 L 94,132 L 93,131 L 88,131 L 87,132 L 82,132 L 81,131 L 80,131 Z" fill="black" /><path d="M 38,40 L 37,41 L 36,41 L 36,44 L 38,46 L 38,47 L 39,47 L 43,51 L 44,51 L 48,55 L 48,56 L 50,58 L 51,58 L 52,59 L 52,60 L 58,66 L 58,67 L 59,67 L 60,68 L 60,69 L 61,69 L 62,70 L 62,71 L 63,71 L 64,72 L 64,73 L 65,73 L 66,74 L 66,75 L 67,75 L 70,78 L 70,79 L 80,89 L 81,89 L 82,90 L 83,89 L 83,82 L 84,81 L 84,80 L 85,79 L 85,62 L 86,61 L 86,58 L 85,57 L 85,48 L 86,47 L 86,43 L 85,42 L 85,40 L 82,40 L 81,41 L 80,41 L 79,40 L 56,40 L 55,41 L 54,41 L 53,40 Z" fill="black" /><path d="M 202,29 L 201,30 L 193,30 L 192,31 L 191,31 L 190,32 L 188,32 L 186,34 L 184,34 L 178,40 L 178,41 L 176,43 L 176,45 L 174,47 L 174,49 L 173,50 L 173,52 L 172,53 L 172,63 L 173,64 L 173,66 L 174,67 L 174,69 L 176,71 L 176,73 L 178,75 L 178,76 L 180,78 L 180,79 L 181,79 L 182,80 L 182,81 L 183,81 L 184,82 L 184,83 L 185,83 L 186,84 L 187,84 L 188,85 L 190,85 L 191,86 L 194,86 L 195,87 L 204,87 L 205,86 L 206,86 L 207,85 L 210,85 L 212,83 L 214,83 L 216,81 L 217,81 L 219,79 L 219,78 L 220,77 L 221,77 L 221,76 L 222,75 L 223,75 L 223,74 L 225,72 L 225,70 L 226,69 L 226,68 L 227,67 L 227,64 L 228,63 L 228,61 L 229,60 L 229,55 L 228,54 L 228,52 L 227,51 L 227,48 L 226,47 L 226,46 L 225,45 L 225,44 L 223,42 L 223,40 L 221,38 L 219,38 L 217,36 L 217,35 L 215,33 L 214,33 L 213,32 L 212,32 L 211,31 L 210,31 L 209,30 L 203,30 Z" fill="black" /></svg>