<?xml version='1.0' encoding='utf-8'?>
<svg width="254" height="220" xmlns="http://www.w3.org/2000/svg" viewBox="0 0 254 220"><rect width="254" height="220" fill="white" /><path d="M 127,130 L 125,132 L 125,135 L 126,136 L 126,177 L 127,178 L 134,178 L 135,179 L 203,179 L 204,178 L 205,179 L 216,179 L 217,180 L 219,180 L 219,135 L 218,134 L 218,132 L 217,131 L 216,131 L 215,130 L 208,130 L 207,131 L 206,131 L 205,130 Z" fill="black" /><path d="M 53,128 L 51,130 L 49,130 L 47,132 L 45,132 L 41,136 L 40,136 L 40,137 L 37,140 L 37,141 L 36,142 L 36,144 L 34,146 L 34,151 L 33,152 L 33,155 L 34,156 L 34,163 L 36,165 L 36,167 L 38,169 L 38,170 L 39,171 L 39,172 L 40,173 L 41,173 L 42,174 L 42,175 L 43,175 L 45,177 L 46,177 L 48,179 L 51,179 L 52,180 L 55,180 L 56,181 L 66,181 L 67,180 L 69,180 L 70,179 L 71,179 L 72,178 L 73,178 L 74,177 L 75,177 L 78,174 L 79,174 L 81,172 L 81,171 L 83,169 L 83,167 L 84,166 L 85,166 L 85,165 L 87,163 L 87,156 L 88,155 L 87,154 L 87,147 L 86,146 L 86,145 L 84,143 L 84,140 L 83,139 L 82,139 L 81,138 L 81,136 L 80,136 L 79,135 L 79,134 L 77,132 L 74,132 L 73,131 L 72,131 L 71,130 L 70,130 L 69,129 L 66,129 L 65,128 Z" fill="black" /><path d="M 36,35 L 35,36 L 35,39 L 34,40 L 34,43 L 35,44 L 35,63 L 36,64 L 36,68 L 35,69 L 35,77 L 34,78 L 34,81 L 35,82 L 35,85 L 36,86 L 37,86 L 38,87 L 87,87 L 88,88 L 91,88 L 92,87 L 121,87 L 122,86 L 128,86 L 128,82 L 127,81 L 128,80 L 128,75 L 129,74 L 129,73 L 128,72 L 128,58 L 127,57 L 127,46 L 128,45 L 127,44 L 127,36 L 52,36 L 51,35 L 49,35 L 48,36 L 42,36 L 41,35 Z" fill="black" /></svg>