<?xml version='1.0' encoding='utf-8'?>
<svg width="257" height="215" xmlns="http://www.w3.org/2000/svg" viewBox="0 0 257 215"><rect width="257" height="215" fill="white" /><path d="M 82,121 L 80,123 L 80,132 L 81,133 L 81,134 L 80,135 L 80,138 L 81,139 L 81,150 L 80,151 L 81,152 L 81,178 L 82,179 L 133,179 L 134,178 L 139,178 L 139,173 L 140,172 L 140,168 L 139,167 L 139,123 L 137,121 Z" fill="black" /><path d="M 27,29 L 26,30 L 25,30 L 25,33 L 26,34 L 27,34 L 32,39 L 32,40 L 33,40 L 34,41 L 34,42 L 35,42 L 38,45 L 38,46 L 39,46 L 40,47 L 40,48 L 41,48 L 42,49 L 43,49 L 44,50 L 44,51 L 48,55 L 48,56 L 49,56 L 50,57 L 50,58 L 51,58 L 52,59 L 52,60 L 53,60 L 54,61 L 54,62 L 55,62 L 56,63 L 56,64 L 60,68 L 61,68 L 62,69 L 62,70 L 68,76 L 69,76 L 70,77 L 70,78 L 71,79 L 71,80 L 73,82 L 75,82 L 76,83 L 76,84 L 85,93 L 85,94 L 88,94 L 88,89 L 87,88 L 87,83 L 88,82 L 88,78 L 87,77 L 87,40 L 86,39 L 86,37 L 87,36 L 87,29 Z" fill="black" /><path d="M 126,28 L 125,29 L 114,29 L 114,33 L 116,35 L 117,35 L 126,44 L 126,45 L 127,45 L 130,48 L 130,50 L 131,50 L 142,61 L 142,62 L 143,62 L 144,63 L 144,64 L 145,64 L 146,65 L 146,66 L 147,66 L 148,67 L 148,68 L 150,70 L 151,70 L 152,71 L 152,72 L 157,77 L 157,78 L 158,78 L 162,82 L 162,83 L 163,83 L 164,84 L 164,85 L 172,93 L 172,94 L 173,94 L 174,95 L 174,96 L 175,96 L 176,97 L 176,98 L 177,98 L 180,101 L 180,102 L 181,102 L 182,103 L 182,104 L 183,104 L 184,105 L 184,106 L 185,106 L 186,107 L 186,108 L 187,108 L 188,109 L 188,110 L 200,122 L 200,123 L 214,137 L 214,138 L 216,140 L 217,140 L 218,141 L 219,140 L 219,137 L 220,136 L 220,134 L 219,133 L 219,128 L 220,127 L 220,125 L 221,124 L 221,118 L 219,116 L 219,113 L 220,112 L 220,111 L 221,110 L 221,109 L 220,108 L 220,107 L 221,106 L 221,103 L 220,102 L 220,65 L 221,64 L 221,62 L 220,61 L 220,56 L 219,55 L 220,54 L 220,49 L 219,48 L 219,47 L 220,46 L 220,44 L 219,43 L 219,39 L 220,38 L 220,29 L 219,28 L 215,28 L 214,29 L 210,29 L 209,28 L 208,28 L 207,29 L 206,29 L 205,28 L 204,28 L 203,29 L 200,29 L 199,28 L 198,29 L 137,29 L 136,28 L 131,28 L 130,29 L 129,29 L 128,28 Z" fill="black" /></svg>