<?xml version='1.0' encoding='utf-8'?>
<svg width="259" height="217" xmlns="http://www.w3.org/2000/svg" viewBox="0 0 259 217"><rect width="259" height="217" fill="white" /><path d="M 215,127 L 215,128 L 211,132 L 210,132 L 208,134 L 208,135 L 202,141 L 202,142 L 199,145 L 198,145 L 190,153 L 190,154 L 187,157 L 186,157 L 186,158 L 183,161 L 182,161 L 182,162 L 181,163 L 180,163 L 180,164 L 171,173 L 171,174 L 165,180 L 165,184 L 170,184 L 171,185 L 177,185 L 178,184 L 204,184 L 205,185 L 206,184 L 211,184 L 212,185 L 218,185 L 218,181 L 219,180 L 219,178 L 218,177 L 219,176 L 219,139 L 218,138 L 219,137 L 219,128 L 218,127 Z" fill="black" /><path d="M 56,34 L 55,35 L 30,35 L 30,79 L 31,80 L 31,81 L 30,82 L 30,84 L 31,85 L 30,86 L 30,133 L 29,134 L 29,135 L 30,136 L 30,142 L 31,142 L 32,143 L 33,142 L 34,142 L 34,140 L 36,138 L 36,137 L 37,136 L 37,135 L 38,134 L 38,133 L 41,130 L 41,128 L 43,126 L 43,123 L 44,122 L 45,122 L 45,120 L 46,119 L 46,118 L 49,115 L 49,113 L 50,112 L 50,111 L 51,110 L 51,108 L 53,106 L 53,104 L 54,103 L 54,102 L 55,101 L 55,99 L 57,97 L 57,95 L 58,94 L 58,93 L 59,92 L 59,91 L 61,89 L 61,88 L 62,87 L 62,85 L 63,84 L 63,83 L 65,81 L 65,79 L 67,77 L 67,75 L 69,73 L 69,71 L 70,70 L 70,69 L 71,68 L 71,66 L 73,64 L 73,62 L 74,61 L 74,60 L 75,59 L 75,57 L 76,56 L 77,56 L 77,55 L 78,54 L 78,53 L 79,52 L 79,48 L 81,46 L 81,43 L 82,42 L 83,42 L 83,39 L 84,38 L 84,36 L 83,35 L 77,35 L 76,36 L 66,36 L 65,35 L 58,35 L 57,34 Z" fill="black" /><path d="M 125,33 L 124,34 L 123,34 L 122,35 L 122,75 L 121,76 L 121,82 L 122,83 L 122,150 L 121,151 L 121,152 L 122,153 L 122,156 L 121,157 L 121,158 L 122,159 L 122,170 L 121,171 L 121,173 L 122,174 L 122,178 L 123,179 L 124,179 L 125,180 L 127,180 L 128,179 L 128,178 L 129,177 L 129,176 L 131,174 L 131,172 L 133,170 L 133,169 L 135,167 L 135,165 L 136,164 L 136,163 L 137,162 L 137,161 L 138,160 L 138,159 L 139,158 L 139,157 L 140,156 L 140,155 L 141,154 L 141,152 L 143,150 L 143,149 L 144,148 L 144,147 L 145,146 L 145,144 L 147,142 L 147,139 L 148,138 L 149,138 L 149,135 L 151,133 L 151,132 L 152,131 L 152,130 L 153,129 L 153,127 L 155,125 L 155,123 L 157,121 L 157,119 L 159,117 L 159,115 L 160,114 L 161,114 L 161,111 L 162,110 L 162,109 L 163,108 L 163,107 L 164,106 L 165,106 L 165,104 L 167,102 L 167,100 L 168,99 L 168,98 L 170,96 L 170,95 L 171,94 L 171,92 L 173,90 L 173,87 L 175,85 L 175,83 L 177,81 L 177,79 L 178,78 L 178,77 L 179,76 L 179,75 L 180,74 L 181,74 L 181,71 L 182,70 L 182,69 L 183,68 L 183,67 L 185,65 L 185,63 L 186,62 L 186,61 L 187,60 L 187,59 L 189,57 L 189,54 L 192,51 L 192,49 L 193,48 L 193,46 L 194,45 L 195,45 L 195,42 L 199,38 L 199,36 L 196,33 L 184,33 L 183,34 L 178,34 L 177,35 L 172,35 L 171,34 L 136,34 L 135,35 L 132,35 L 131,34 L 127,34 L 126,33 Z" fill="black" /><path d="M 0,0 L 0,216 L 258,216 L 258,0 Z" fill="none" stroke="black" stroke-width="1" /></svg>