<?xml version='1.0' encoding='utf-8'?>
<svg width="258" height="221" xmlns="http://www.w3.org/2000/svg" viewBox="0 0 258 221"><rect width="258" height="221" fill="white" /><path d="M 148,86 L 147,87 L 131,87 L 130,88 L 130,107 L 129,108 L 129,110 L 130,111 L 130,112 L 129,113 L 129,119 L 130,120 L 130,131 L 129,132 L 129,135 L 130,136 L 129,137 L 129,139 L 130,140 L 130,159 L 129,160 L 129,165 L 130,166 L 130,171 L 129,172 L 129,175 L 130,176 L 130,177 L 129,178 L 129,182 L 128,183 L 128,184 L 129,185 L 183,185 L 184,184 L 186,184 L 187,185 L 195,185 L 196,184 L 203,184 L 204,185 L 205,185 L 206,184 L 213,184 L 214,183 L 216,183 L 217,184 L 219,184 L 220,183 L 221,183 L 222,184 L 223,184 L 224,183 L 227,183 L 227,180 L 228,179 L 227,178 L 227,174 L 228,173 L 228,171 L 227,170 L 228,169 L 228,168 L 229,167 L 229,162 L 228,161 L 228,160 L 229,159 L 229,152 L 228,151 L 228,144 L 227,143 L 228,142 L 228,135 L 229,134 L 229,132 L 228,131 L 228,130 L 229,129 L 229,127 L 228,126 L 228,124 L 229,123 L 229,118 L 228,117 L 228,116 L 229,115 L 229,107 L 228,106 L 228,105 L 229,104 L 229,100 L 228,99 L 228,97 L 229,96 L 229,94 L 228,93 L 228,92 L 227,91 L 227,89 L 228,88 L 228,87 L 224,87 L 223,86 L 172,86 L 171,87 L 166,87 L 165,86 L 160,86 L 159,87 L 156,87 L 155,86 L 154,87 L 150,87 L 149,86 Z" fill="black" /><path d="M 77,24 L 76,25 L 72,25 L 71,26 L 68,26 L 67,25 L 59,25 L 58,26 L 51,26 L 50,25 L 38,25 L 37,26 L 33,26 L 32,27 L 32,67 L 33,68 L 33,70 L 32,71 L 32,85 L 55,85 L 56,84 L 57,84 L 58,85 L 67,85 L 68,84 L 73,84 L 74,85 L 75,85 L 76,84 L 77,84 L 78,85 L 81,85 L 82,84 L 89,84 L 90,83 L 91,83 L 92,82 L 92,78 L 93,77 L 93,74 L 92,73 L 92,37 L 91,36 L 92,35 L 92,30 L 91,29 L 91,25 L 78,25 Z" fill="black" /></svg>