<?xml version='1.0' encoding='utf-8'?>
<svg width="259" height="221" xmlns="http://www.w3.org/2000/svg" viewBox="0 0 259 221"><rect width="259" height="221" fill="white" /><path d="M 148,157 L 148,158 L 147,159 L 147,172 L 146,173 L 137,173 L 136,174 L 135,174 L 133,176 L 133,177 L 134,178 L 147,178 L 148,179 L 148,182 L 147,183 L 147,185 L 148,186 L 148,191 L 150,193 L 151,193 L 151,189 L 152,188 L 152,180 L 153,179 L 154,179 L 155,178 L 167,178 L 168,177 L 168,174 L 166,174 L 164,172 L 161,172 L 160,173 L 153,173 L 152,172 L 152,162 L 151,161 L 151,159 L 150,158 L 150,157 Z" fill="black" /><path d="M 222,96 L 221,97 L 220,97 L 220,111 L 219,112 L 217,112 L 216,113 L 207,113 L 207,114 L 208,115 L 208,116 L 219,116 L 220,117 L 220,125 L 222,127 L 223,127 L 224,128 L 225,127 L 225,117 L 226,116 L 227,116 L 228,115 L 232,115 L 233,116 L 239,116 L 240,115 L 240,113 L 239,112 L 238,112 L 237,111 L 236,111 L 235,112 L 229,112 L 228,111 L 226,111 L 225,110 L 225,99 Z" fill="black" /><path d="M 22,88 L 21,89 L 20,89 L 20,102 L 19,103 L 8,103 L 7,104 L 7,105 L 8,106 L 19,106 L 21,108 L 21,117 L 22,118 L 24,118 L 25,117 L 25,107 L 26,106 L 37,106 L 37,105 L 36,104 L 36,103 L 26,103 L 25,102 L 25,97 L 24,96 L 24,90 Z" fill="black" /><path d="M 82,34 L 82,36 L 81,37 L 81,38 L 80,39 L 80,41 L 79,42 L 79,43 L 78,44 L 78,48 L 77,49 L 77,51 L 76,52 L 76,55 L 75,56 L 75,57 L 74,58 L 74,62 L 73,63 L 73,64 L 72,65 L 72,68 L 71,69 L 71,70 L 70,71 L 70,74 L 69,75 L 69,76 L 68,77 L 68,80 L 67,81 L 67,82 L 66,83 L 66,86 L 65,87 L 65,88 L 64,89 L 64,91 L 63,92 L 63,94 L 62,95 L 62,98 L 61,99 L 61,100 L 60,101 L 60,106 L 59,107 L 59,108 L 58,109 L 58,112 L 57,113 L 57,114 L 56,115 L 56,118 L 55,119 L 55,120 L 54,121 L 54,124 L 53,125 L 53,127 L 52,128 L 52,131 L 51,132 L 51,133 L 50,134 L 50,138 L 49,139 L 49,140 L 48,141 L 48,144 L 47,145 L 47,146 L 46,147 L 46,151 L 45,152 L 45,153 L 44,154 L 44,156 L 43,157 L 43,159 L 42,160 L 42,164 L 40,166 L 40,169 L 39,170 L 39,172 L 38,173 L 38,174 L 37,175 L 37,177 L 36,178 L 36,183 L 38,183 L 39,182 L 42,182 L 43,181 L 43,176 L 44,175 L 44,173 L 45,172 L 45,169 L 46,168 L 46,167 L 47,166 L 47,163 L 48,162 L 48,161 L 49,160 L 49,156 L 50,155 L 50,154 L 51,153 L 51,149 L 52,148 L 52,147 L 53,146 L 53,143 L 54,142 L 54,141 L 55,140 L 55,137 L 56,136 L 56,134 L 57,133 L 57,130 L 58,129 L 58,128 L 59,127 L 59,123 L 60,122 L 60,121 L 61,120 L 61,117 L 62,116 L 62,115 L 63,114 L 63,111 L 64,110 L 64,109 L 65,108 L 65,105 L 66,104 L 66,103 L 67,102 L 67,99 L 68,98 L 68,96 L 69,95 L 69,92 L 70,91 L 70,90 L 71,89 L 71,85 L 73,83 L 73,80 L 74,79 L 74,78 L 75,77 L 75,73 L 76,72 L 76,71 L 77,70 L 77,67 L 79,65 L 79,61 L 81,59 L 81,55 L 82,54 L 82,53 L 83,52 L 83,49 L 84,48 L 84,47 L 85,46 L 85,43 L 87,41 L 87,36 L 86,35 L 86,34 Z" fill="black" /><path d="M 46,30 L 44,32 L 44,34 L 45,35 L 45,40 L 44,41 L 44,42 L 45,43 L 45,45 L 44,46 L 33,46 L 32,45 L 31,46 L 30,46 L 30,47 L 31,48 L 31,49 L 36,49 L 37,48 L 43,48 L 45,50 L 45,61 L 47,63 L 48,63 L 49,62 L 49,49 L 50,48 L 57,48 L 58,49 L 60,49 L 61,48 L 63,48 L 63,46 L 62,45 L 58,45 L 57,46 L 54,46 L 53,45 L 50,45 L 48,43 L 48,39 L 49,38 L 49,37 L 48,36 L 48,31 L 47,30 Z" fill="black" /><path d="M 0,0 L 0,220 L 258,220 L 258,0 Z" fill="none" stroke="black" stroke-width="1" /></svg>