<?xml version="1.0" encoding="utf-8" ?>
<svg baseProfile="full" height="224" version="1.1" width="259" xmlns="http://www.w3.org/2000/svg" xmlns:ev="http://www.w3.org/2001/xml-events" xmlns:xlink="http://www.w3.org/1999/xlink"><defs /><rect fill="white" height="224" width="259" x="0" y="0" /><path d="M 112,120 L 117,133 L 130,135 L 117,139 L 114,153 L 110,140 L 99,135 L 109,133 Z" fill="black" stroke="black" stroke-width="1" /><path d="M 179,46 L 184,58 L 197,61 L 183,65 L 182,77 L 177,64 L 165,62 L 177,58 Z" fill="black" stroke="black" stroke-width="1" /><path d="M 94,39 L 233,115 Z" fill="black" stroke="black" stroke-width="1" /><path d="M 123,9 L 126,23 L 141,24 L 128,28 L 124,39 L 119,29 L 107,27 L 121,21 Z" fill="black" stroke="black" stroke-width="1" /><path d="M 0,0 L 0,223 L 258,223 L 258,0 Z" fill="none" stroke="black" stroke-width="1" /></svg>