<?xml version='1.0' encoding='utf-8'?>
<svg width="252" height="220" xmlns="http://www.w3.org/2000/svg" viewBox="0 0 252 220"><rect width="252" height="220" fill="white" /><path d="M 107,157 L 106,158 L 106,171 L 105,172 L 94,172 L 93,173 L 93,175 L 105,175 L 107,177 L 107,186 L 110,186 L 111,185 L 111,176 L 113,174 L 114,175 L 115,175 L 116,176 L 118,176 L 119,175 L 123,175 L 124,174 L 124,173 L 123,172 L 118,172 L 117,171 L 113,171 L 111,169 L 111,161 L 110,160 L 110,159 L 109,158 L 109,157 Z" fill="black" /><path d="M 31,95 L 30,96 L 30,109 L 29,110 L 27,110 L 26,109 L 25,109 L 24,110 L 18,110 L 17,111 L 17,113 L 29,113 L 30,114 L 30,127 L 31,128 L 32,127 L 33,127 L 35,125 L 35,124 L 36,123 L 36,120 L 35,119 L 35,116 L 37,114 L 39,114 L 40,113 L 41,113 L 42,114 L 45,114 L 46,113 L 47,113 L 48,112 L 47,111 L 47,110 L 36,110 L 35,109 L 35,98 L 32,95 Z" fill="black" /><path d="M 101,32 L 100,33 L 100,35 L 102,37 L 102,39 L 104,41 L 104,43 L 106,45 L 106,47 L 107,48 L 107,49 L 108,50 L 108,51 L 109,52 L 109,53 L 110,54 L 110,55 L 111,56 L 111,57 L 112,58 L 112,59 L 113,60 L 113,61 L 114,62 L 114,64 L 116,66 L 116,67 L 117,68 L 117,69 L 118,70 L 118,72 L 120,74 L 120,75 L 121,76 L 121,77 L 122,78 L 122,80 L 123,81 L 123,82 L 124,83 L 124,85 L 126,87 L 126,89 L 128,91 L 128,92 L 129,93 L 129,94 L 130,95 L 130,97 L 132,99 L 132,101 L 133,102 L 133,103 L 134,104 L 134,105 L 135,106 L 135,107 L 136,108 L 136,109 L 137,110 L 137,111 L 138,112 L 138,113 L 139,114 L 139,115 L 140,116 L 140,117 L 141,118 L 141,119 L 142,120 L 142,122 L 144,124 L 144,125 L 145,126 L 145,128 L 146,129 L 146,131 L 148,133 L 148,135 L 150,137 L 150,139 L 151,140 L 151,141 L 152,142 L 152,143 L 153,144 L 153,145 L 154,146 L 154,148 L 156,150 L 156,152 L 158,154 L 158,155 L 159,156 L 159,157 L 160,158 L 160,159 L 162,161 L 162,163 L 164,165 L 164,167 L 165,168 L 165,169 L 168,172 L 172,172 L 172,169 L 171,168 L 171,166 L 170,165 L 170,164 L 169,163 L 169,162 L 168,161 L 168,160 L 167,159 L 167,158 L 165,156 L 165,154 L 164,153 L 164,152 L 163,151 L 163,150 L 162,149 L 162,148 L 161,147 L 161,146 L 159,144 L 159,142 L 157,140 L 157,138 L 156,137 L 156,136 L 155,135 L 155,134 L 154,133 L 154,132 L 153,131 L 153,130 L 152,129 L 152,128 L 151,127 L 151,126 L 150,125 L 150,124 L 149,123 L 149,122 L 148,121 L 148,120 L 147,119 L 147,118 L 146,117 L 146,116 L 145,115 L 145,113 L 143,111 L 143,109 L 141,107 L 141,106 L 140,105 L 140,104 L 139,103 L 139,101 L 137,99 L 137,98 L 136,97 L 136,96 L 135,95 L 135,93 L 134,92 L 134,91 L 133,90 L 133,88 L 131,86 L 131,85 L 129,83 L 129,81 L 127,79 L 127,76 L 125,74 L 125,72 L 124,71 L 124,69 L 122,67 L 122,66 L 121,65 L 121,63 L 119,61 L 119,58 L 116,55 L 116,53 L 115,52 L 115,51 L 113,49 L 113,46 L 111,44 L 111,42 L 110,42 L 109,41 L 109,39 L 108,38 L 108,37 L 107,36 L 107,35 L 104,32 Z" fill="black" /><path d="M 0,0 L 0,219 L 251,219 L 251,0 Z" fill="none" stroke="black" stroke-width="1" /></svg>