<?xml version='1.0' encoding='utf-8'?>
<svg width="259" height="224" xmlns="http://www.w3.org/2000/svg" viewBox="0 0 259 224"><rect width="259" height="224" fill="white" /><path d="M 112,121 L 111,122 L 111,126 L 110,127 L 110,133 L 109,134 L 101,134 L 100,135 L 101,136 L 101,137 L 102,138 L 102,139 L 110,139 L 111,140 L 111,147 L 110,148 L 110,149 L 113,152 L 114,152 L 115,151 L 115,141 L 116,140 L 116,139 L 117,138 L 123,138 L 124,139 L 125,138 L 128,138 L 128,137 L 129,136 L 129,135 L 128,134 L 117,134 L 115,132 L 115,122 L 114,121 Z" fill="black" /><path d="M 179,47 L 178,48 L 178,58 L 177,59 L 172,59 L 171,60 L 166,60 L 166,62 L 167,63 L 177,63 L 178,64 L 178,69 L 179,70 L 179,72 L 178,73 L 178,76 L 182,76 L 182,73 L 183,72 L 183,67 L 182,66 L 182,65 L 184,63 L 195,63 L 196,62 L 196,61 L 195,60 L 188,60 L 187,59 L 184,59 L 183,58 L 183,57 L 182,56 L 182,54 L 183,53 L 183,51 L 182,50 L 182,47 Z" fill="black" /><path d="M 95,39 L 95,42 L 94,43 L 94,44 L 97,47 L 99,47 L 101,49 L 103,49 L 104,50 L 105,50 L 106,51 L 107,51 L 109,53 L 111,53 L 113,55 L 115,55 L 116,56 L 116,57 L 118,57 L 120,59 L 122,59 L 124,61 L 126,61 L 128,63 L 129,63 L 130,64 L 131,64 L 132,65 L 133,65 L 134,66 L 135,66 L 136,67 L 137,67 L 138,68 L 139,68 L 140,69 L 141,69 L 143,71 L 145,71 L 147,73 L 149,73 L 151,75 L 153,75 L 155,77 L 157,77 L 159,79 L 160,79 L 162,81 L 164,81 L 166,83 L 168,83 L 170,85 L 171,85 L 172,86 L 173,86 L 174,87 L 175,87 L 176,88 L 177,88 L 178,89 L 179,89 L 181,91 L 183,91 L 184,92 L 185,92 L 186,93 L 187,93 L 189,95 L 191,95 L 193,97 L 194,97 L 195,98 L 196,98 L 197,99 L 198,99 L 200,101 L 202,101 L 204,103 L 206,103 L 208,105 L 210,105 L 212,107 L 213,107 L 215,109 L 217,109 L 219,111 L 221,111 L 223,113 L 224,113 L 226,115 L 232,115 L 232,113 L 233,112 L 233,109 L 232,109 L 231,108 L 229,108 L 227,106 L 225,106 L 223,104 L 221,104 L 219,102 L 218,102 L 217,101 L 216,101 L 215,100 L 213,100 L 211,98 L 210,98 L 209,97 L 208,97 L 207,96 L 206,96 L 205,95 L 204,95 L 203,94 L 202,94 L 201,93 L 200,93 L 199,92 L 198,92 L 196,90 L 195,90 L 193,88 L 190,88 L 188,86 L 186,86 L 185,85 L 184,85 L 183,84 L 182,84 L 180,82 L 178,82 L 177,81 L 177,80 L 174,80 L 171,77 L 170,77 L 169,76 L 167,76 L 165,74 L 164,74 L 163,73 L 162,73 L 161,72 L 159,72 L 157,70 L 156,70 L 154,68 L 152,68 L 151,67 L 150,67 L 149,66 L 148,66 L 147,65 L 147,64 L 144,64 L 143,63 L 142,63 L 141,62 L 140,62 L 139,61 L 139,60 L 136,60 L 134,58 L 133,58 L 132,57 L 131,57 L 130,56 L 128,56 L 125,53 L 124,53 L 123,52 L 122,52 L 121,51 L 120,51 L 119,50 L 118,50 L 117,49 L 116,49 L 115,48 L 114,48 L 113,47 L 112,47 L 111,46 L 110,46 L 109,45 L 108,45 L 107,44 L 106,44 L 105,43 L 105,42 L 103,42 L 101,40 L 99,40 L 98,39 Z" fill="black" /><path d="M 123,10 L 122,11 L 121,11 L 121,14 L 122,15 L 122,21 L 119,24 L 109,24 L 109,25 L 108,26 L 108,27 L 117,27 L 118,28 L 119,28 L 121,30 L 121,31 L 122,32 L 122,37 L 123,38 L 124,38 L 125,37 L 125,30 L 128,27 L 139,27 L 139,26 L 140,25 L 140,24 L 126,24 L 125,23 L 125,11 L 124,11 Z" fill="black" /><path d="M 243,7 L 242,8 L 242,21 L 241,22 L 230,22 L 229,23 L 229,24 L 230,25 L 241,25 L 242,26 L 242,36 L 243,37 L 243,38 L 244,39 L 244,40 L 245,40 L 245,39 L 246,38 L 246,35 L 247,34 L 247,26 L 248,25 L 258,25 L 258,22 L 257,22 L 256,21 L 255,21 L 254,22 L 248,22 L 246,20 L 246,8 L 245,7 Z" fill="black" /><path d="M 0,0 L 0,223 L 258,223 L 258,26 L 248,26 L 248,34 L 247,35 L 247,38 L 246,39 L 246,40 L 245,41 L 244,41 L 243,40 L 243,39 L 242,38 L 242,37 L 241,36 L 241,26 L 230,26 L 228,24 L 228,23 L 230,21 L 241,21 L 241,8 L 243,6 L 245,6 L 247,8 L 247,20 L 248,21 L 254,21 L 255,20 L 256,20 L 257,21 L 258,21 L 258,0 Z" fill="none" stroke="black" stroke-width="1" /></svg>