<?xml version="1.0" encoding="utf-8" ?>
<svg baseProfile="full" height="224" version="1.1" width="258" xmlns="http://www.w3.org/2000/svg" xmlns:ev="http://www.w3.org/2001/xml-events" xmlns:xlink="http://www.w3.org/1999/xlink"><defs /><rect fill="white" height="224" width="258" x="0" y="0" /><path d="M 97,184 L 101,198 L 114,199 L 102,204 L 99,219 L 95,204 L 80,201 L 95,198 Z" fill="black" stroke="black" stroke-width="1" /><path d="M 137,142 L 143,158 L 157,159 L 143,163 L 138,177 L 134,163 L 120,161 L 134,158 Z" fill="black" stroke="black" stroke-width="1" /><path d="M 58,134 L 64,149 L 78,152 L 64,155 L 61,168 L 55,154 L 41,152 L 55,149 Z" fill="black" stroke="black" stroke-width="1" /><path d="M 203,106 L 208,119 L 221,121 L 208,125 L 206,137 L 201,125 L 189,123 L 201,117 Z" fill="black" stroke="black" stroke-width="1" /><path d="M 60,73 L 235,174 Z" fill="black" stroke="black" stroke-width="1" /><path d="M 108,43 L 114,57 L 127,59 L 114,64 L 112,76 L 107,62 L 94,59 L 107,57 Z" fill="black" stroke="black" stroke-width="1" /><path d="M 173,33 L 176,49 L 191,51 L 176,56 L 174,71 L 170,54 L 154,53 L 170,49 Z" fill="black" stroke="black" stroke-width="1" /><circle cx="254.5" cy="8.166666984558105" fill="black" r="3.2059969902038574" stroke="black" stroke-width="1" /><path d="M 0,0 L 0,223 L 257,223 L 257,0 Z" fill="none" stroke="black" stroke-width="1" /></svg>