<?xml version='1.0' encoding='utf-8'?>
<svg width="259" height="220" xmlns="http://www.w3.org/2000/svg" viewBox="0 0 259 220"><rect width="259" height="220" fill="white" /><path d="M 113,183 L 113,192 L 112,193 L 101,193 L 100,194 L 100,196 L 101,197 L 112,197 L 113,198 L 113,208 L 114,209 L 114,211 L 115,212 L 116,212 L 117,211 L 117,210 L 116,209 L 117,208 L 117,202 L 118,201 L 118,198 L 119,197 L 129,197 L 130,196 L 130,193 L 129,193 L 128,192 L 127,192 L 126,193 L 122,193 L 121,194 L 120,194 L 118,192 L 118,189 L 116,187 L 116,184 L 115,183 Z" fill="black" /><path d="M 228,172 L 227,173 L 226,173 L 226,184 L 224,186 L 211,186 L 211,187 L 210,188 L 210,189 L 225,189 L 226,190 L 226,201 L 227,202 L 227,203 L 228,203 L 229,204 L 230,204 L 230,192 L 233,189 L 243,189 L 244,188 L 244,187 L 245,186 L 244,186 L 243,185 L 242,186 L 232,186 L 231,185 L 231,183 L 230,182 L 230,180 L 231,179 L 231,175 L 230,174 L 230,173 L 229,173 Z" fill="black" /><path d="M 157,136 L 156,137 L 155,137 L 155,141 L 154,142 L 154,150 L 153,151 L 152,151 L 151,152 L 141,152 L 141,154 L 142,155 L 152,155 L 155,158 L 155,167 L 154,168 L 155,169 L 155,170 L 156,169 L 157,169 L 158,168 L 159,168 L 159,162 L 160,161 L 160,156 L 161,155 L 170,155 L 170,152 L 162,152 L 159,149 L 159,138 Z" fill="black" /><path d="M 42,90 L 42,101 L 41,102 L 37,102 L 36,101 L 35,101 L 34,102 L 29,102 L 29,105 L 33,105 L 34,106 L 41,106 L 42,107 L 42,113 L 41,114 L 42,115 L 42,118 L 43,119 L 43,120 L 46,120 L 46,108 L 49,105 L 51,105 L 52,106 L 53,105 L 58,105 L 59,104 L 59,101 L 56,101 L 55,102 L 54,101 L 53,101 L 52,102 L 49,102 L 46,99 L 46,91 L 45,90 Z" fill="black" /><path d="M 85,51 L 84,52 L 84,62 L 82,64 L 73,64 L 72,65 L 72,66 L 73,67 L 84,67 L 85,68 L 85,79 L 88,79 L 88,69 L 90,67 L 100,67 L 100,66 L 101,65 L 101,64 L 95,64 L 94,63 L 91,63 L 88,60 L 88,52 L 87,51 Z" fill="black" /><path d="M 220,48 L 218,50 L 217,50 L 215,52 L 214,52 L 212,54 L 211,54 L 210,55 L 209,55 L 208,56 L 207,56 L 205,58 L 204,58 L 202,60 L 200,60 L 198,62 L 197,62 L 195,64 L 194,64 L 192,66 L 191,66 L 190,67 L 189,67 L 188,68 L 187,68 L 185,70 L 183,70 L 183,71 L 182,72 L 180,72 L 178,74 L 177,74 L 176,75 L 175,75 L 174,76 L 173,76 L 171,78 L 170,78 L 168,80 L 167,80 L 166,81 L 165,81 L 164,82 L 163,82 L 162,83 L 161,83 L 160,84 L 159,84 L 157,86 L 156,86 L 154,88 L 153,88 L 152,89 L 151,89 L 150,90 L 149,90 L 147,92 L 145,92 L 143,94 L 142,94 L 140,96 L 139,96 L 138,97 L 137,97 L 136,98 L 135,98 L 133,100 L 131,100 L 131,101 L 130,102 L 128,102 L 126,104 L 125,104 L 124,105 L 123,105 L 122,106 L 121,106 L 119,108 L 118,108 L 116,110 L 115,110 L 114,111 L 113,111 L 112,112 L 111,112 L 110,113 L 109,113 L 108,114 L 107,114 L 107,115 L 106,116 L 104,116 L 102,118 L 101,118 L 100,119 L 99,119 L 98,120 L 97,120 L 95,122 L 94,122 L 92,124 L 91,124 L 90,125 L 89,125 L 88,126 L 87,126 L 85,128 L 83,128 L 81,130 L 80,130 L 78,132 L 77,132 L 76,133 L 75,133 L 74,134 L 73,134 L 73,135 L 72,136 L 70,136 L 68,138 L 67,138 L 66,139 L 65,139 L 64,140 L 63,140 L 62,141 L 61,141 L 60,142 L 59,142 L 57,144 L 55,144 L 55,145 L 54,146 L 52,146 L 50,148 L 49,148 L 48,149 L 47,149 L 46,150 L 45,150 L 45,151 L 44,152 L 42,152 L 41,153 L 40,153 L 39,154 L 39,158 L 44,158 L 45,159 L 47,157 L 48,157 L 50,155 L 52,155 L 52,154 L 53,153 L 55,153 L 57,151 L 58,151 L 59,150 L 60,150 L 61,149 L 62,149 L 64,147 L 66,147 L 68,145 L 69,145 L 71,143 L 72,143 L 74,141 L 76,141 L 78,139 L 79,139 L 81,137 L 82,137 L 83,136 L 84,136 L 87,133 L 88,133 L 89,132 L 90,132 L 91,131 L 92,131 L 94,129 L 96,129 L 98,127 L 99,127 L 101,125 L 102,125 L 103,124 L 104,124 L 107,121 L 110,121 L 110,120 L 111,119 L 112,119 L 113,118 L 114,118 L 115,117 L 116,117 L 117,116 L 118,116 L 119,115 L 120,115 L 121,114 L 122,114 L 123,113 L 124,113 L 126,111 L 127,111 L 129,109 L 130,109 L 132,107 L 134,107 L 136,105 L 137,105 L 138,104 L 139,104 L 141,102 L 142,102 L 143,101 L 144,101 L 146,99 L 148,99 L 150,97 L 151,97 L 153,95 L 155,95 L 157,93 L 158,93 L 160,91 L 161,91 L 163,89 L 165,89 L 169,85 L 171,85 L 173,83 L 175,83 L 177,81 L 178,81 L 179,80 L 180,80 L 181,79 L 182,79 L 182,78 L 183,77 L 186,77 L 186,76 L 187,75 L 189,75 L 191,73 L 192,73 L 192,72 L 193,71 L 195,71 L 197,69 L 199,69 L 201,67 L 202,67 L 204,65 L 206,65 L 206,64 L 207,63 L 208,63 L 209,62 L 210,62 L 211,61 L 212,61 L 214,59 L 216,59 L 218,57 L 220,57 L 221,56 L 222,56 L 223,55 L 224,55 L 226,53 L 226,49 L 225,48 Z" fill="black" /><path d="M 137,48 L 137,60 L 136,61 L 136,62 L 135,63 L 134,63 L 133,62 L 126,62 L 124,64 L 126,66 L 131,66 L 132,65 L 133,66 L 134,66 L 137,69 L 137,73 L 136,74 L 136,77 L 137,78 L 137,81 L 140,81 L 140,76 L 141,75 L 140,74 L 140,69 L 142,67 L 143,67 L 144,66 L 145,66 L 146,65 L 147,65 L 148,66 L 152,66 L 153,65 L 154,65 L 155,64 L 155,63 L 154,63 L 153,62 L 150,62 L 149,63 L 147,63 L 146,62 L 142,62 L 140,60 L 140,48 Z" fill="black" /><path d="M 26,8 L 25,9 L 25,19 L 24,20 L 12,20 L 12,21 L 11,22 L 13,24 L 16,24 L 17,25 L 18,25 L 19,24 L 23,24 L 25,26 L 25,33 L 26,34 L 26,37 L 27,38 L 27,39 L 28,39 L 29,40 L 30,40 L 30,26 L 31,25 L 34,25 L 35,24 L 42,24 L 43,23 L 43,22 L 41,20 L 31,20 L 30,19 L 30,12 L 29,11 L 29,9 L 28,8 Z" fill="black" /><path d="M 160,5 L 159,6 L 159,17 L 158,18 L 146,18 L 146,19 L 145,20 L 145,21 L 156,21 L 159,24 L 159,34 L 162,34 L 162,24 L 165,21 L 169,21 L 170,22 L 175,22 L 175,21 L 176,20 L 175,19 L 175,18 L 165,18 L 163,16 L 163,15 L 162,14 L 162,6 L 161,5 Z" fill="black" /><path d="M 0,0 L 0,219 L 258,219 L 258,0 Z" fill="none" stroke="black" stroke-width="1" /></svg>