<?xml version="1.0" encoding="utf-8" ?>
<svg baseProfile="full" height="218" version="1.1" width="252" xmlns="http://www.w3.org/2000/svg" xmlns:ev="http://www.w3.org/2001/xml-events" xmlns:xlink="http://www.w3.org/1999/xlink"><defs /><rect fill="white" height="218" width="252" x="0" y="0" /><path d="M 179,173 L 184,189 L 199,191 L 184,194 L 180,210 L 175,195 L 162,190 L 176,188 Z" fill="black" stroke="black" stroke-width="1" /><path d="M 214,151 L 220,164 L 233,166 L 220,171 L 219,184 L 212,170 L 199,168 L 213,163 Z" fill="black" stroke="black" stroke-width="1" /><path d="M 143,112 L 147,126 L 160,126 L 147,133 L 144,145 L 139,132 L 127,131 L 141,125 Z" fill="black" stroke="black" stroke-width="1" /><circle cx="217.5" cy="100.5" fill="none" r="2.9155757427215576" stroke="black" stroke-width="1" /><path d="M 46,83 L 51,97 L 65,100 L 52,102 L 50,118 L 45,103 L 29,101 L 44,97 Z" fill="black" stroke="black" stroke-width="1" /><path d="M 210,57 L 214,72 L 228,74 L 214,79 L 213,94 L 207,79 L 194,77 L 207,73 Z" fill="black" stroke="black" stroke-width="1" /><path d="M 140,36 L 148,47 L 159,48 L 147,53 L 144,65 L 139,52 L 126,50 L 137,47 Z" fill="black" stroke="black" stroke-width="1" /><path d="M 92,25 L 96,181 Z" fill="black" stroke="black" stroke-width="1" /><path d="M 0,0 L 0,217 L 251,217 L 251,0 Z" fill="none" stroke="black" stroke-width="1" /></svg>