<?xml version='1.0' encoding='utf-8'?>
<svg width="250" height="220" xmlns="http://www.w3.org/2000/svg" viewBox="0 0 250 220"><rect width="250" height="220" fill="white" /><path d="M 131,173 L 130,174 L 129,174 L 129,178 L 130,179 L 130,183 L 129,184 L 129,186 L 128,187 L 127,187 L 126,188 L 123,188 L 122,187 L 121,188 L 116,188 L 115,189 L 115,190 L 116,191 L 119,191 L 120,192 L 125,192 L 126,193 L 128,193 L 130,195 L 130,196 L 129,197 L 129,204 L 131,206 L 132,205 L 133,205 L 133,198 L 134,197 L 134,196 L 133,195 L 133,193 L 134,192 L 135,192 L 136,191 L 142,191 L 143,192 L 144,192 L 145,191 L 148,191 L 147,190 L 147,189 L 146,188 L 134,188 L 133,187 L 133,174 L 132,173 Z" fill="black" /><path d="M 182,125 L 181,126 L 48,126 L 47,127 L 47,130 L 48,131 L 50,131 L 51,132 L 59,132 L 60,131 L 61,131 L 62,132 L 69,132 L 70,131 L 74,131 L 75,132 L 77,132 L 78,131 L 117,131 L 118,132 L 119,132 L 120,131 L 129,131 L 130,132 L 132,132 L 133,131 L 159,131 L 160,132 L 163,132 L 164,131 L 187,131 L 188,132 L 190,132 L 191,131 L 197,131 L 198,132 L 200,132 L 201,131 L 201,126 L 198,126 L 197,125 L 193,125 L 192,126 L 189,126 L 188,125 L 187,125 L 186,126 L 184,126 L 183,125 Z" fill="black" /><path d="M 137,80 L 134,83 L 134,85 L 135,86 L 135,93 L 134,94 L 124,94 L 123,95 L 123,96 L 125,98 L 133,98 L 135,100 L 135,108 L 137,110 L 138,110 L 139,109 L 139,108 L 140,107 L 140,103 L 139,102 L 139,101 L 140,100 L 140,99 L 141,98 L 144,98 L 145,97 L 149,97 L 150,98 L 152,98 L 153,97 L 153,95 L 152,94 L 142,94 L 139,91 L 139,80 Z" fill="black" /><path d="M 63,23 L 62,24 L 62,35 L 60,37 L 50,37 L 49,38 L 49,40 L 50,41 L 61,41 L 62,42 L 62,54 L 63,55 L 63,56 L 66,56 L 67,55 L 67,53 L 68,52 L 68,47 L 67,46 L 67,44 L 69,42 L 70,42 L 71,41 L 73,41 L 74,42 L 77,42 L 77,40 L 78,39 L 76,37 L 73,37 L 72,38 L 68,38 L 67,37 L 67,28 L 66,27 L 66,24 L 65,24 L 64,23 Z" fill="black" /><path d="M 189,19 L 188,20 L 188,22 L 189,23 L 189,24 L 188,25 L 188,31 L 187,32 L 184,32 L 183,33 L 178,33 L 177,32 L 175,32 L 174,33 L 174,35 L 176,37 L 178,37 L 179,36 L 186,36 L 189,39 L 189,46 L 190,47 L 190,48 L 191,49 L 191,50 L 192,50 L 193,49 L 193,41 L 192,40 L 192,39 L 195,36 L 204,36 L 205,35 L 205,33 L 204,32 L 194,32 L 193,31 L 193,28 L 192,27 L 192,26 L 193,25 L 193,23 L 192,22 L 192,21 L 190,19 Z" fill="black" /><path d="M 0,0 L 0,219 L 249,219 L 249,0 Z" fill="none" stroke="black" stroke-width="1" /></svg>