<?xml version='1.0' encoding='utf-8'?>
<svg width="258" height="217" xmlns="http://www.w3.org/2000/svg" viewBox="0 0 258 217"><rect width="258" height="217" fill="white" /><path d="M 223,89 L 223,101 L 222,102 L 215,102 L 214,103 L 208,103 L 208,104 L 207,105 L 208,106 L 211,106 L 212,107 L 222,107 L 224,109 L 224,114 L 223,115 L 224,116 L 224,123 L 225,124 L 226,124 L 227,123 L 227,108 L 228,107 L 234,107 L 235,106 L 242,106 L 243,105 L 243,103 L 242,102 L 228,102 L 227,101 L 227,91 L 226,90 L 226,89 Z" fill="black" /><path d="M 130,40 L 129,41 L 129,47 L 130,48 L 130,51 L 132,53 L 132,56 L 133,57 L 133,58 L 134,59 L 134,62 L 135,63 L 135,64 L 136,65 L 136,68 L 138,70 L 138,73 L 139,74 L 139,75 L 140,76 L 140,79 L 141,80 L 141,81 L 142,82 L 142,85 L 143,86 L 143,87 L 144,88 L 144,91 L 146,93 L 146,96 L 148,98 L 148,101 L 149,102 L 149,103 L 150,104 L 150,107 L 151,108 L 151,109 L 152,110 L 152,113 L 154,115 L 154,119 L 156,121 L 156,124 L 157,125 L 157,126 L 158,127 L 158,129 L 159,130 L 159,131 L 160,132 L 160,135 L 161,136 L 161,137 L 162,138 L 162,141 L 163,142 L 163,143 L 164,144 L 164,146 L 166,148 L 166,151 L 167,152 L 167,154 L 168,155 L 168,158 L 169,159 L 169,160 L 170,161 L 170,163 L 171,164 L 171,165 L 172,166 L 172,168 L 173,169 L 173,170 L 176,170 L 177,169 L 179,169 L 179,163 L 178,162 L 178,161 L 177,160 L 177,158 L 176,157 L 176,156 L 175,155 L 175,152 L 174,151 L 174,150 L 173,149 L 173,146 L 172,145 L 172,144 L 171,143 L 171,141 L 170,140 L 170,139 L 169,138 L 169,136 L 168,135 L 168,134 L 167,133 L 167,130 L 166,129 L 166,128 L 165,127 L 165,124 L 163,122 L 163,119 L 162,118 L 162,117 L 161,116 L 161,113 L 159,111 L 159,108 L 158,107 L 158,106 L 157,105 L 157,102 L 155,100 L 155,97 L 154,96 L 154,95 L 153,94 L 153,92 L 152,91 L 152,90 L 151,89 L 151,86 L 150,85 L 150,84 L 149,83 L 149,80 L 148,79 L 148,78 L 147,77 L 147,75 L 146,74 L 146,73 L 145,72 L 145,70 L 144,69 L 144,68 L 143,67 L 143,64 L 142,63 L 142,62 L 141,61 L 141,58 L 140,57 L 140,56 L 139,55 L 139,53 L 138,52 L 138,51 L 137,50 L 137,48 L 136,47 L 136,46 L 135,45 L 135,43 L 132,40 Z" fill="black" /><path d="M 42,30 L 41,31 L 41,39 L 42,40 L 42,42 L 39,45 L 29,45 L 28,46 L 27,46 L 27,47 L 28,47 L 29,48 L 30,48 L 31,49 L 34,49 L 35,48 L 37,48 L 38,49 L 41,49 L 42,50 L 42,53 L 41,54 L 41,58 L 42,59 L 42,63 L 43,64 L 45,64 L 45,63 L 46,62 L 46,56 L 45,55 L 45,54 L 46,53 L 46,49 L 47,48 L 58,48 L 58,45 L 48,45 L 45,42 L 45,31 L 44,30 Z" fill="black" /><path d="M 0,0 L 0,216 L 257,216 L 257,0 Z" fill="none" stroke="black" stroke-width="1" /></svg>