<?xml version='1.0' encoding='utf-8'?>
<svg width="258" height="224" xmlns="http://www.w3.org/2000/svg" viewBox="0 0 258 224"><rect width="258" height="224" fill="white" /><path d="M 97,185 L 96,186 L 96,193 L 97,194 L 96,195 L 96,198 L 95,199 L 86,199 L 85,200 L 82,200 L 81,201 L 82,202 L 82,203 L 95,203 L 96,204 L 96,205 L 97,206 L 97,208 L 96,209 L 96,212 L 97,213 L 97,217 L 98,218 L 99,218 L 100,217 L 101,217 L 101,204 L 102,203 L 105,203 L 106,202 L 107,202 L 108,203 L 110,203 L 111,202 L 112,202 L 113,201 L 113,199 L 112,198 L 110,198 L 109,199 L 101,199 L 100,198 L 100,194 L 101,193 L 101,186 L 100,185 Z" fill="black" /><path d="M 137,143 L 136,144 L 135,144 L 135,148 L 136,149 L 135,150 L 135,158 L 134,159 L 122,159 L 121,160 L 121,161 L 122,162 L 122,163 L 133,163 L 134,162 L 136,164 L 136,166 L 135,167 L 136,168 L 136,175 L 137,176 L 138,176 L 140,174 L 140,170 L 141,169 L 141,164 L 143,162 L 154,162 L 155,161 L 155,160 L 156,159 L 154,157 L 153,158 L 151,158 L 150,159 L 143,159 L 140,156 L 140,146 L 139,145 L 139,144 L 138,144 Z" fill="black" /><path d="M 58,135 L 57,136 L 57,145 L 56,146 L 56,149 L 55,150 L 43,150 L 42,151 L 42,152 L 43,153 L 44,153 L 45,154 L 46,154 L 47,153 L 48,153 L 49,154 L 50,154 L 51,153 L 55,153 L 57,155 L 57,159 L 58,160 L 58,163 L 56,165 L 56,166 L 57,167 L 61,167 L 62,166 L 62,156 L 64,154 L 69,154 L 70,153 L 71,153 L 72,154 L 75,154 L 77,152 L 76,151 L 76,150 L 64,150 L 62,148 L 62,138 L 61,137 L 61,136 L 60,136 L 59,135 Z" fill="black" /><path d="M 203,107 L 202,108 L 202,117 L 199,120 L 193,120 L 192,121 L 190,121 L 190,123 L 192,123 L 193,124 L 201,124 L 202,125 L 202,135 L 203,136 L 206,136 L 206,135 L 207,134 L 207,125 L 209,123 L 212,123 L 213,124 L 218,124 L 219,123 L 220,123 L 220,121 L 219,120 L 208,120 L 207,119 L 207,112 L 206,111 L 206,108 L 205,107 Z" fill="black" /><path d="M 64,70 L 61,73 L 62,74 L 62,75 L 64,75 L 66,77 L 67,77 L 68,78 L 69,78 L 70,79 L 71,79 L 73,81 L 74,81 L 76,83 L 77,83 L 78,84 L 79,84 L 80,85 L 81,85 L 83,87 L 84,87 L 86,89 L 87,89 L 88,90 L 89,90 L 90,91 L 91,91 L 93,93 L 95,93 L 97,95 L 98,95 L 100,97 L 101,97 L 102,98 L 103,98 L 104,99 L 105,99 L 107,101 L 108,101 L 110,103 L 112,103 L 114,105 L 115,105 L 117,107 L 119,107 L 121,109 L 122,109 L 124,111 L 126,111 L 128,113 L 129,113 L 131,115 L 133,115 L 134,116 L 134,117 L 136,117 L 138,119 L 139,119 L 140,120 L 141,120 L 142,121 L 143,121 L 144,122 L 144,123 L 146,123 L 148,125 L 149,125 L 150,126 L 151,126 L 152,127 L 153,127 L 155,129 L 156,129 L 158,131 L 160,131 L 162,133 L 163,133 L 165,135 L 167,135 L 169,137 L 170,137 L 172,139 L 173,139 L 175,141 L 176,141 L 178,143 L 180,143 L 182,145 L 183,145 L 184,146 L 185,146 L 186,147 L 187,147 L 189,149 L 190,149 L 192,151 L 193,151 L 194,152 L 195,152 L 196,153 L 197,153 L 198,154 L 198,155 L 200,155 L 202,157 L 203,157 L 205,159 L 207,159 L 208,160 L 208,161 L 210,161 L 212,163 L 213,163 L 215,165 L 217,165 L 218,166 L 218,167 L 220,167 L 222,169 L 223,169 L 225,171 L 226,171 L 228,173 L 231,173 L 232,174 L 234,174 L 234,168 L 233,167 L 232,167 L 231,166 L 230,166 L 228,164 L 226,164 L 224,162 L 223,162 L 221,160 L 220,160 L 219,159 L 218,159 L 217,158 L 216,158 L 214,156 L 212,156 L 211,155 L 211,154 L 209,154 L 207,152 L 206,152 L 205,151 L 204,151 L 203,150 L 202,150 L 201,149 L 201,148 L 199,148 L 197,146 L 196,146 L 195,145 L 194,145 L 193,144 L 192,144 L 190,142 L 189,142 L 187,140 L 186,140 L 185,139 L 184,139 L 183,138 L 182,138 L 180,136 L 179,136 L 178,135 L 177,135 L 176,134 L 175,134 L 173,132 L 172,132 L 170,130 L 168,130 L 166,128 L 165,128 L 163,126 L 162,126 L 161,125 L 160,125 L 159,124 L 158,124 L 156,122 L 155,122 L 153,120 L 152,120 L 150,118 L 148,118 L 146,116 L 145,116 L 143,114 L 142,114 L 141,113 L 140,113 L 139,112 L 138,112 L 136,110 L 134,110 L 132,108 L 131,108 L 129,106 L 128,106 L 127,105 L 126,105 L 125,104 L 124,104 L 122,102 L 121,102 L 119,100 L 118,100 L 117,99 L 116,99 L 115,98 L 114,98 L 112,96 L 110,96 L 109,95 L 109,94 L 107,94 L 105,92 L 104,92 L 103,91 L 102,91 L 101,90 L 100,90 L 98,88 L 97,88 L 95,86 L 94,86 L 93,85 L 92,85 L 91,84 L 90,84 L 89,83 L 89,82 L 87,82 L 85,80 L 84,80 L 83,79 L 82,79 L 81,78 L 80,78 L 78,76 L 77,76 L 75,74 L 74,74 L 72,72 L 70,72 L 69,71 L 69,70 Z" fill="black" /><path d="M 108,44 L 108,51 L 107,52 L 108,53 L 108,57 L 107,58 L 95,58 L 95,59 L 96,60 L 96,61 L 107,61 L 108,62 L 108,74 L 109,74 L 110,75 L 112,75 L 113,74 L 113,64 L 116,61 L 124,61 L 125,60 L 126,60 L 126,59 L 125,58 L 114,58 L 113,57 L 113,45 L 112,44 Z" fill="black" /><path d="M 173,34 L 171,36 L 171,41 L 170,42 L 172,44 L 172,45 L 171,46 L 171,49 L 170,50 L 157,50 L 155,52 L 155,53 L 156,53 L 157,54 L 158,53 L 170,53 L 171,54 L 171,68 L 172,69 L 172,70 L 174,70 L 175,69 L 175,56 L 178,53 L 190,53 L 190,51 L 189,50 L 176,50 L 175,49 L 175,37 L 174,36 L 174,35 Z" fill="black" /><path d="M 254,6 L 253,7 L 253,10 L 256,10 L 256,7 L 255,6 Z" fill="black" /></svg>