<?xml version='1.0' encoding='utf-8'?>
<svg width="256" height="217" xmlns="http://www.w3.org/2000/svg" viewBox="0 0 256 217"><rect width="256" height="217" fill="white" /><path d="M 170,15 L 169,16 L 168,16 L 167,17 L 161,17 L 160,18 L 159,18 L 158,19 L 156,19 L 154,21 L 150,21 L 149,22 L 148,22 L 147,23 L 143,23 L 141,25 L 140,25 L 138,27 L 136,27 L 135,28 L 134,28 L 133,29 L 132,29 L 131,30 L 130,30 L 129,31 L 126,31 L 126,32 L 125,33 L 124,33 L 123,34 L 122,34 L 121,35 L 119,35 L 117,37 L 114,37 L 114,38 L 113,39 L 112,39 L 111,40 L 110,40 L 109,41 L 107,41 L 105,43 L 104,43 L 102,45 L 101,45 L 99,47 L 98,47 L 96,49 L 95,49 L 93,51 L 92,51 L 92,52 L 91,53 L 90,53 L 88,55 L 87,55 L 85,57 L 84,57 L 84,58 L 83,59 L 82,59 L 82,60 L 81,61 L 80,61 L 80,62 L 79,63 L 78,63 L 78,64 L 77,65 L 76,65 L 76,66 L 73,69 L 72,69 L 66,75 L 66,76 L 64,78 L 64,79 L 62,81 L 62,82 L 61,83 L 61,84 L 60,85 L 60,86 L 58,88 L 58,89 L 56,91 L 56,92 L 55,93 L 54,93 L 54,95 L 53,96 L 53,97 L 52,98 L 52,101 L 51,102 L 51,103 L 50,104 L 50,106 L 49,107 L 49,108 L 48,109 L 48,116 L 47,117 L 47,120 L 46,121 L 46,143 L 48,145 L 48,148 L 49,149 L 49,150 L 50,151 L 50,154 L 51,154 L 52,155 L 52,158 L 53,159 L 53,160 L 54,161 L 54,163 L 56,165 L 56,166 L 58,168 L 59,168 L 60,169 L 60,171 L 62,173 L 62,174 L 63,174 L 64,175 L 65,175 L 70,180 L 71,180 L 75,184 L 76,184 L 78,186 L 79,186 L 81,188 L 82,188 L 84,190 L 89,190 L 90,191 L 91,191 L 92,192 L 97,192 L 99,194 L 112,194 L 113,195 L 114,195 L 115,194 L 127,194 L 128,193 L 134,193 L 135,192 L 140,192 L 141,191 L 144,191 L 145,190 L 148,190 L 149,189 L 151,189 L 152,188 L 155,188 L 157,186 L 160,186 L 162,184 L 165,184 L 167,182 L 169,182 L 170,181 L 171,181 L 174,178 L 177,178 L 179,176 L 181,176 L 184,173 L 185,173 L 186,172 L 187,172 L 187,171 L 188,170 L 190,170 L 194,166 L 195,166 L 197,164 L 198,164 L 200,162 L 201,162 L 201,161 L 202,160 L 203,160 L 205,158 L 205,157 L 208,154 L 209,154 L 209,153 L 210,152 L 211,152 L 211,151 L 213,149 L 213,148 L 215,146 L 215,145 L 216,144 L 217,144 L 217,143 L 218,142 L 218,141 L 221,138 L 221,136 L 223,134 L 223,131 L 224,130 L 224,127 L 225,126 L 225,110 L 224,109 L 224,101 L 223,100 L 223,95 L 221,93 L 221,89 L 219,87 L 219,86 L 217,84 L 217,83 L 215,81 L 215,80 L 210,75 L 209,75 L 207,73 L 206,73 L 204,71 L 202,71 L 200,69 L 198,69 L 197,68 L 197,67 L 194,67 L 193,66 L 190,66 L 189,65 L 174,65 L 173,66 L 172,66 L 171,67 L 166,67 L 165,68 L 162,68 L 161,69 L 159,69 L 157,71 L 156,71 L 156,72 L 155,73 L 154,73 L 153,74 L 152,74 L 149,77 L 148,77 L 147,78 L 146,78 L 145,79 L 145,80 L 144,81 L 143,81 L 143,82 L 140,85 L 140,86 L 138,88 L 138,90 L 136,92 L 136,93 L 134,95 L 134,97 L 133,98 L 133,99 L 132,100 L 132,118 L 133,119 L 133,120 L 134,121 L 134,123 L 135,124 L 136,124 L 138,126 L 139,126 L 140,127 L 141,127 L 142,128 L 143,128 L 144,127 L 146,127 L 147,126 L 149,126 L 151,124 L 152,124 L 155,121 L 155,120 L 157,118 L 157,117 L 158,116 L 158,115 L 159,114 L 159,113 L 160,112 L 160,111 L 161,110 L 161,107 L 162,106 L 162,105 L 163,104 L 163,102 L 165,100 L 165,98 L 167,96 L 167,95 L 170,92 L 171,92 L 173,90 L 181,90 L 183,92 L 186,92 L 188,94 L 188,95 L 192,99 L 192,101 L 193,102 L 193,106 L 194,107 L 194,116 L 193,117 L 193,118 L 192,119 L 192,124 L 191,125 L 191,126 L 190,127 L 190,128 L 189,129 L 188,129 L 188,131 L 186,133 L 186,134 L 185,135 L 185,136 L 184,137 L 184,138 L 181,141 L 181,142 L 180,143 L 179,143 L 177,145 L 176,145 L 176,146 L 173,149 L 172,149 L 171,150 L 170,150 L 168,152 L 166,152 L 165,153 L 164,153 L 164,154 L 163,155 L 160,155 L 160,156 L 159,157 L 156,157 L 154,159 L 150,159 L 149,160 L 146,160 L 145,161 L 142,161 L 141,162 L 135,162 L 134,163 L 132,163 L 131,162 L 126,162 L 125,161 L 123,161 L 122,160 L 120,160 L 119,159 L 118,159 L 117,158 L 116,158 L 115,157 L 113,157 L 111,155 L 110,155 L 108,153 L 107,153 L 98,144 L 98,143 L 97,142 L 97,139 L 96,138 L 96,137 L 95,136 L 95,134 L 94,133 L 94,131 L 93,130 L 93,119 L 92,118 L 92,111 L 93,110 L 93,105 L 94,104 L 94,103 L 95,102 L 95,98 L 97,96 L 97,95 L 98,94 L 98,93 L 99,92 L 99,91 L 101,89 L 101,88 L 105,84 L 105,83 L 111,77 L 111,76 L 113,74 L 114,74 L 118,70 L 119,70 L 119,69 L 120,68 L 121,68 L 123,66 L 125,66 L 125,65 L 126,64 L 128,64 L 132,60 L 133,60 L 134,59 L 135,59 L 136,58 L 137,58 L 139,56 L 140,56 L 141,55 L 142,55 L 143,54 L 144,54 L 146,52 L 148,52 L 149,51 L 150,51 L 151,50 L 153,50 L 154,49 L 155,49 L 156,48 L 158,48 L 160,46 L 161,46 L 162,45 L 163,45 L 164,44 L 167,44 L 169,42 L 172,42 L 173,41 L 174,41 L 175,40 L 178,40 L 179,39 L 181,39 L 182,38 L 186,38 L 187,37 L 191,37 L 192,36 L 193,36 L 194,35 L 193,34 L 193,33 L 188,33 L 187,32 L 186,32 L 185,33 L 182,33 L 181,34 L 178,34 L 177,35 L 174,35 L 173,36 L 172,36 L 171,37 L 170,37 L 169,38 L 167,38 L 166,39 L 164,39 L 163,40 L 162,40 L 161,41 L 158,41 L 156,43 L 152,43 L 150,45 L 146,45 L 146,46 L 145,47 L 143,47 L 142,48 L 141,48 L 140,49 L 138,49 L 138,50 L 137,51 L 135,51 L 133,53 L 132,53 L 130,55 L 129,55 L 129,56 L 128,57 L 126,57 L 125,58 L 124,58 L 123,59 L 122,59 L 122,60 L 121,61 L 120,61 L 115,66 L 114,66 L 111,69 L 110,69 L 110,70 L 109,71 L 108,71 L 108,72 L 107,73 L 106,73 L 106,74 L 103,77 L 102,77 L 102,78 L 101,79 L 101,80 L 100,81 L 99,81 L 99,82 L 98,83 L 98,84 L 97,85 L 96,85 L 96,88 L 93,91 L 92,91 L 92,93 L 90,95 L 90,96 L 89,97 L 89,98 L 88,99 L 88,102 L 87,103 L 87,106 L 86,107 L 86,112 L 87,113 L 87,114 L 86,115 L 86,127 L 87,128 L 87,129 L 88,130 L 88,136 L 89,137 L 89,138 L 90,139 L 90,141 L 92,143 L 92,146 L 93,146 L 94,147 L 94,148 L 98,152 L 98,153 L 99,154 L 100,154 L 104,158 L 105,158 L 106,159 L 106,160 L 109,160 L 111,162 L 112,162 L 113,163 L 115,163 L 116,164 L 118,164 L 120,166 L 128,166 L 129,167 L 134,167 L 135,166 L 147,166 L 148,165 L 149,165 L 150,164 L 155,164 L 156,163 L 157,163 L 158,162 L 161,162 L 163,160 L 165,160 L 167,158 L 169,158 L 170,157 L 171,157 L 172,156 L 173,156 L 176,153 L 177,153 L 178,152 L 179,152 L 179,151 L 184,146 L 185,146 L 185,145 L 188,142 L 188,141 L 191,138 L 191,137 L 192,136 L 192,135 L 195,132 L 195,130 L 197,128 L 197,126 L 199,124 L 199,121 L 198,120 L 199,119 L 199,101 L 198,101 L 197,100 L 197,97 L 196,96 L 196,95 L 195,94 L 194,94 L 192,92 L 192,91 L 191,91 L 189,89 L 188,89 L 186,87 L 183,87 L 182,86 L 180,86 L 179,85 L 173,85 L 171,87 L 170,87 L 169,88 L 168,88 L 167,89 L 166,89 L 164,91 L 163,91 L 160,94 L 160,96 L 158,98 L 158,100 L 157,101 L 157,102 L 156,103 L 156,106 L 155,107 L 155,111 L 153,113 L 152,113 L 152,114 L 147,119 L 144,119 L 143,120 L 141,120 L 137,116 L 137,104 L 138,103 L 138,102 L 140,100 L 140,99 L 141,98 L 141,96 L 143,94 L 143,92 L 145,90 L 145,89 L 148,86 L 148,85 L 153,80 L 154,80 L 156,78 L 157,78 L 159,76 L 161,76 L 163,74 L 166,74 L 167,73 L 168,73 L 169,72 L 173,72 L 174,71 L 177,71 L 178,70 L 187,70 L 188,71 L 192,71 L 193,72 L 195,72 L 197,74 L 201,74 L 202,75 L 202,76 L 203,77 L 203,78 L 205,80 L 206,80 L 208,82 L 209,82 L 210,83 L 210,84 L 212,86 L 212,87 L 214,89 L 214,90 L 216,92 L 216,94 L 217,94 L 218,95 L 218,101 L 220,103 L 220,118 L 219,119 L 219,120 L 218,121 L 218,122 L 219,123 L 219,124 L 218,125 L 218,128 L 217,129 L 217,132 L 216,133 L 216,134 L 215,135 L 215,136 L 214,137 L 214,138 L 211,141 L 211,142 L 208,145 L 208,146 L 207,147 L 206,147 L 206,148 L 205,149 L 204,149 L 204,150 L 203,151 L 203,152 L 202,153 L 201,153 L 199,155 L 198,155 L 198,156 L 195,159 L 193,159 L 189,163 L 188,163 L 188,164 L 187,165 L 186,165 L 183,168 L 182,168 L 181,169 L 180,169 L 178,171 L 176,171 L 172,175 L 170,175 L 168,177 L 165,177 L 164,178 L 162,178 L 161,179 L 160,179 L 158,181 L 156,181 L 155,182 L 154,182 L 153,183 L 151,183 L 150,184 L 149,184 L 148,185 L 143,185 L 142,186 L 138,186 L 137,187 L 130,187 L 129,188 L 126,188 L 125,189 L 101,189 L 100,188 L 98,188 L 97,187 L 95,187 L 94,186 L 92,186 L 91,185 L 88,185 L 87,184 L 87,183 L 84,183 L 82,181 L 81,181 L 79,179 L 78,179 L 74,175 L 73,175 L 65,167 L 65,165 L 64,165 L 63,164 L 63,163 L 61,161 L 61,160 L 59,158 L 59,157 L 57,155 L 57,153 L 56,152 L 56,151 L 55,150 L 55,147 L 54,146 L 54,145 L 53,144 L 53,142 L 52,141 L 52,136 L 51,135 L 51,133 L 52,132 L 52,125 L 53,124 L 53,115 L 55,113 L 55,107 L 56,106 L 56,105 L 57,104 L 57,101 L 58,100 L 59,100 L 59,97 L 60,96 L 61,96 L 61,94 L 63,92 L 63,90 L 65,88 L 65,87 L 66,86 L 67,86 L 67,84 L 69,82 L 69,81 L 70,80 L 71,80 L 71,79 L 84,66 L 85,66 L 85,65 L 88,62 L 89,62 L 89,61 L 90,60 L 91,60 L 93,58 L 94,58 L 95,57 L 95,56 L 96,55 L 97,55 L 98,54 L 99,54 L 100,53 L 101,53 L 104,50 L 105,50 L 106,49 L 107,49 L 108,48 L 109,48 L 109,47 L 110,46 L 111,46 L 113,44 L 115,44 L 116,43 L 117,43 L 118,42 L 119,42 L 121,40 L 123,40 L 124,39 L 125,39 L 126,38 L 127,38 L 129,36 L 131,36 L 133,34 L 134,34 L 135,33 L 136,33 L 137,32 L 140,32 L 142,30 L 144,30 L 146,28 L 148,28 L 150,26 L 155,26 L 156,25 L 157,25 L 158,24 L 159,24 L 160,23 L 163,23 L 164,22 L 167,22 L 168,21 L 171,21 L 172,20 L 178,20 L 179,19 L 180,19 L 180,16 L 179,15 Z" fill="black" /><path d="M 0,0 L 0,216 L 255,216 L 255,0 Z" fill="none" stroke="black" stroke-width="1" /></svg>