<?xml version='1.0' encoding='utf-8'?>
<svg width="257" height="219" xmlns="http://www.w3.org/2000/svg" viewBox="0 0 257 219"><rect width="257" height="219" fill="white" /><path d="M 225,16 L 224,17 L 222,17 L 221,18 L 216,18 L 215,19 L 213,19 L 212,20 L 209,20 L 208,21 L 205,21 L 204,22 L 197,22 L 196,23 L 195,23 L 194,24 L 189,24 L 188,25 L 186,25 L 185,26 L 180,26 L 179,27 L 177,27 L 176,28 L 171,28 L 170,29 L 167,29 L 166,30 L 161,30 L 160,31 L 157,31 L 156,32 L 151,32 L 150,33 L 147,33 L 146,34 L 141,34 L 140,35 L 137,35 L 136,36 L 131,36 L 130,37 L 128,37 L 127,38 L 121,38 L 120,39 L 118,39 L 117,40 L 111,40 L 110,41 L 108,41 L 107,42 L 102,42 L 101,43 L 98,43 L 97,44 L 90,44 L 89,45 L 87,45 L 86,46 L 80,46 L 79,47 L 77,47 L 76,48 L 69,48 L 68,49 L 65,49 L 64,50 L 59,50 L 59,51 L 58,52 L 55,52 L 54,51 L 53,51 L 52,52 L 52,53 L 53,54 L 54,54 L 57,57 L 60,57 L 61,58 L 61,59 L 64,59 L 65,60 L 65,61 L 66,61 L 67,62 L 68,62 L 69,63 L 70,63 L 73,66 L 73,67 L 79,73 L 79,74 L 81,76 L 81,77 L 82,78 L 82,79 L 83,80 L 83,81 L 84,82 L 84,83 L 85,84 L 85,87 L 86,88 L 86,97 L 85,98 L 85,101 L 84,102 L 84,103 L 83,104 L 83,105 L 82,106 L 82,107 L 81,108 L 81,109 L 80,110 L 80,111 L 79,112 L 79,113 L 76,116 L 75,116 L 75,117 L 74,118 L 73,118 L 73,119 L 72,120 L 71,120 L 67,124 L 66,124 L 65,125 L 63,125 L 62,126 L 61,126 L 60,127 L 58,127 L 57,128 L 47,128 L 46,127 L 39,127 L 38,126 L 36,126 L 34,124 L 33,124 L 30,121 L 30,120 L 29,120 L 26,117 L 26,115 L 24,113 L 24,112 L 23,111 L 23,110 L 22,109 L 22,101 L 24,99 L 24,95 L 29,90 L 30,90 L 31,89 L 32,89 L 32,82 L 30,82 L 28,84 L 27,84 L 26,85 L 25,85 L 24,86 L 23,86 L 21,88 L 21,90 L 19,92 L 19,96 L 18,97 L 18,99 L 17,100 L 17,109 L 18,110 L 18,112 L 19,113 L 19,115 L 21,117 L 21,118 L 22,119 L 22,120 L 27,125 L 28,125 L 29,126 L 29,127 L 30,127 L 31,128 L 31,129 L 32,129 L 33,130 L 34,130 L 35,131 L 37,131 L 38,132 L 40,132 L 41,133 L 58,133 L 60,131 L 65,131 L 67,129 L 68,129 L 70,127 L 71,127 L 73,125 L 74,125 L 74,124 L 75,123 L 76,123 L 80,119 L 81,119 L 82,118 L 82,116 L 83,115 L 84,115 L 84,114 L 86,112 L 86,110 L 88,108 L 88,105 L 89,104 L 89,103 L 90,102 L 90,96 L 91,95 L 91,88 L 92,87 L 90,85 L 90,82 L 89,81 L 89,80 L 88,79 L 88,77 L 86,75 L 86,74 L 84,72 L 84,71 L 78,65 L 78,64 L 77,64 L 73,60 L 70,60 L 69,59 L 69,58 L 68,57 L 68,56 L 69,55 L 71,55 L 72,54 L 74,54 L 75,53 L 80,53 L 81,52 L 84,52 L 85,51 L 90,51 L 91,50 L 92,50 L 93,49 L 98,49 L 99,48 L 101,48 L 102,47 L 107,47 L 108,46 L 110,46 L 111,45 L 116,45 L 117,44 L 120,44 L 121,43 L 126,43 L 127,42 L 130,42 L 131,41 L 135,41 L 136,40 L 138,40 L 139,39 L 145,39 L 146,38 L 148,38 L 149,37 L 154,37 L 155,36 L 158,36 L 159,35 L 164,35 L 165,34 L 166,34 L 167,33 L 172,33 L 173,32 L 175,32 L 176,31 L 181,31 L 182,30 L 185,30 L 186,29 L 191,29 L 192,28 L 194,28 L 195,27 L 200,27 L 201,26 L 203,26 L 204,25 L 209,25 L 210,24 L 211,24 L 212,25 L 212,27 L 209,30 L 209,32 L 207,34 L 207,36 L 205,38 L 205,44 L 204,45 L 204,49 L 205,50 L 205,61 L 206,62 L 206,63 L 207,64 L 207,70 L 209,72 L 209,75 L 210,75 L 211,76 L 211,81 L 213,83 L 213,84 L 214,85 L 214,86 L 215,87 L 215,89 L 216,90 L 216,91 L 217,92 L 217,95 L 218,96 L 218,97 L 219,98 L 219,100 L 220,101 L 220,102 L 221,103 L 221,105 L 223,107 L 223,110 L 224,111 L 224,112 L 225,113 L 225,116 L 226,117 L 226,121 L 227,122 L 227,135 L 225,137 L 225,143 L 224,144 L 224,146 L 221,149 L 221,151 L 220,152 L 220,153 L 219,154 L 219,155 L 218,156 L 218,157 L 217,158 L 217,159 L 215,161 L 215,162 L 211,166 L 211,167 L 207,171 L 207,172 L 201,178 L 201,179 L 200,180 L 199,180 L 196,183 L 196,185 L 197,186 L 197,187 L 201,187 L 203,185 L 204,185 L 204,184 L 205,183 L 206,183 L 206,182 L 209,179 L 210,179 L 210,178 L 212,176 L 212,175 L 214,173 L 214,172 L 216,170 L 216,169 L 218,167 L 218,166 L 219,165 L 220,165 L 220,164 L 221,163 L 221,162 L 222,161 L 222,160 L 223,159 L 223,158 L 224,157 L 224,155 L 226,153 L 226,152 L 227,151 L 227,150 L 228,149 L 228,146 L 229,145 L 229,144 L 230,143 L 230,139 L 231,138 L 231,137 L 232,136 L 232,114 L 231,113 L 231,110 L 230,109 L 230,106 L 228,104 L 228,102 L 227,101 L 227,100 L 226,99 L 226,97 L 224,95 L 224,92 L 223,91 L 223,90 L 222,89 L 222,88 L 221,87 L 221,86 L 220,85 L 220,82 L 218,80 L 218,78 L 217,77 L 217,76 L 216,75 L 216,74 L 215,73 L 215,70 L 214,69 L 214,67 L 213,66 L 213,64 L 212,63 L 212,60 L 211,59 L 211,57 L 210,56 L 210,47 L 209,46 L 209,43 L 210,42 L 210,38 L 211,37 L 211,36 L 212,35 L 212,34 L 215,31 L 216,31 L 216,30 L 219,27 L 220,27 L 221,26 L 222,26 L 223,25 L 224,25 L 224,24 L 225,23 L 226,23 L 227,22 L 228,22 L 229,21 L 230,21 L 231,20 L 233,20 L 233,19 L 234,18 L 233,17 L 233,16 Z" fill="black" /><path d="M 0,0 L 0,218 L 256,218 L 256,0 Z" fill="none" stroke="black" stroke-width="1" /></svg>