<?xml version='1.0' encoding='utf-8'?>
<svg width="261" height="219" xmlns="http://www.w3.org/2000/svg" viewBox="0 0 261 219"><rect width="261" height="219" fill="white" /><path d="M 239,16 L 237,18 L 237,19 L 236,20 L 236,21 L 234,23 L 234,24 L 233,25 L 232,25 L 232,26 L 229,29 L 228,29 L 227,30 L 226,30 L 225,31 L 223,31 L 222,32 L 221,32 L 220,33 L 218,33 L 217,34 L 216,34 L 215,35 L 208,35 L 206,37 L 196,37 L 195,38 L 193,38 L 192,37 L 187,37 L 186,38 L 177,38 L 176,39 L 173,39 L 171,37 L 170,37 L 169,38 L 159,38 L 158,37 L 151,37 L 150,36 L 147,36 L 146,35 L 138,35 L 137,34 L 136,34 L 135,33 L 124,33 L 123,32 L 122,32 L 121,33 L 118,33 L 117,32 L 112,32 L 111,31 L 109,31 L 108,32 L 95,32 L 94,33 L 93,33 L 93,35 L 97,39 L 99,39 L 100,38 L 104,38 L 105,37 L 123,37 L 124,38 L 128,38 L 129,39 L 135,39 L 136,40 L 140,40 L 141,41 L 142,41 L 143,42 L 162,42 L 164,44 L 173,44 L 174,43 L 175,43 L 176,44 L 177,44 L 178,43 L 182,43 L 183,42 L 184,43 L 185,43 L 186,44 L 188,44 L 189,43 L 195,43 L 196,42 L 197,43 L 199,43 L 200,42 L 203,42 L 204,41 L 211,41 L 212,40 L 215,40 L 216,39 L 217,39 L 218,38 L 221,38 L 222,37 L 223,37 L 224,36 L 225,36 L 226,35 L 229,38 L 228,39 L 228,41 L 227,42 L 227,44 L 226,45 L 226,52 L 225,53 L 225,61 L 224,62 L 225,63 L 225,76 L 224,77 L 224,81 L 226,83 L 226,84 L 225,85 L 225,89 L 224,90 L 225,91 L 225,108 L 224,109 L 224,115 L 223,116 L 223,120 L 222,121 L 222,124 L 221,125 L 221,127 L 220,128 L 220,132 L 219,133 L 219,134 L 218,135 L 218,138 L 216,140 L 216,142 L 214,144 L 214,146 L 213,147 L 213,148 L 212,149 L 212,150 L 211,151 L 210,151 L 210,154 L 207,157 L 206,157 L 206,158 L 204,160 L 204,161 L 203,162 L 202,162 L 199,165 L 199,166 L 196,169 L 195,169 L 191,173 L 190,173 L 188,175 L 187,175 L 185,177 L 184,177 L 182,179 L 180,179 L 180,180 L 179,181 L 176,181 L 174,183 L 172,183 L 171,184 L 170,184 L 169,185 L 164,185 L 163,186 L 160,186 L 159,187 L 154,187 L 153,188 L 152,187 L 150,187 L 149,188 L 145,188 L 144,187 L 142,187 L 141,188 L 140,188 L 139,187 L 134,187 L 133,186 L 132,186 L 131,185 L 128,185 L 127,184 L 126,184 L 125,183 L 124,183 L 122,181 L 120,181 L 119,180 L 119,179 L 118,179 L 116,177 L 115,177 L 111,173 L 111,172 L 109,170 L 109,169 L 107,167 L 107,165 L 106,164 L 106,161 L 105,160 L 105,156 L 104,155 L 104,153 L 103,152 L 103,142 L 104,141 L 104,139 L 105,138 L 105,129 L 106,128 L 106,125 L 107,124 L 107,119 L 108,118 L 108,115 L 109,114 L 109,97 L 110,96 L 110,95 L 109,94 L 109,89 L 110,88 L 109,87 L 109,73 L 108,72 L 108,69 L 107,68 L 107,65 L 106,64 L 106,63 L 105,62 L 105,61 L 103,59 L 103,57 L 101,55 L 101,54 L 99,52 L 99,51 L 98,51 L 96,49 L 95,49 L 93,47 L 92,47 L 91,46 L 90,46 L 89,45 L 86,45 L 85,44 L 82,44 L 81,43 L 64,43 L 63,44 L 62,44 L 61,45 L 57,45 L 55,47 L 52,47 L 52,48 L 51,49 L 49,49 L 47,51 L 45,51 L 44,52 L 44,53 L 43,54 L 42,54 L 41,55 L 40,55 L 40,58 L 39,59 L 36,59 L 36,61 L 34,63 L 34,64 L 33,65 L 33,66 L 32,67 L 32,70 L 31,71 L 31,72 L 30,73 L 30,79 L 29,80 L 29,83 L 28,84 L 28,87 L 29,88 L 29,95 L 30,96 L 30,99 L 33,102 L 33,103 L 34,104 L 34,105 L 36,107 L 36,109 L 38,111 L 38,112 L 39,112 L 40,113 L 40,114 L 41,114 L 43,116 L 45,116 L 46,117 L 47,117 L 48,118 L 57,118 L 58,117 L 61,117 L 62,116 L 66,116 L 68,114 L 70,114 L 72,112 L 73,112 L 73,111 L 74,110 L 75,110 L 75,109 L 76,108 L 77,108 L 77,107 L 78,106 L 79,106 L 79,105 L 81,103 L 81,101 L 82,100 L 82,97 L 83,96 L 83,91 L 84,90 L 83,89 L 83,83 L 81,81 L 81,80 L 79,78 L 79,77 L 77,75 L 75,75 L 74,74 L 71,74 L 71,78 L 72,78 L 76,82 L 76,84 L 78,86 L 78,94 L 77,95 L 77,98 L 76,99 L 76,100 L 75,101 L 75,102 L 74,103 L 73,103 L 67,109 L 66,109 L 64,111 L 61,111 L 59,113 L 54,113 L 53,112 L 49,112 L 48,111 L 46,111 L 43,108 L 43,107 L 40,104 L 40,103 L 39,102 L 39,101 L 38,100 L 38,99 L 37,98 L 37,96 L 36,95 L 36,94 L 35,93 L 35,77 L 36,76 L 36,75 L 37,74 L 37,70 L 39,68 L 39,65 L 43,61 L 43,60 L 45,58 L 46,58 L 50,54 L 52,54 L 54,52 L 56,52 L 58,50 L 61,50 L 62,49 L 63,49 L 64,48 L 83,48 L 84,49 L 85,49 L 86,50 L 87,50 L 88,51 L 89,51 L 90,52 L 91,52 L 93,54 L 94,54 L 97,57 L 97,58 L 98,59 L 98,60 L 99,60 L 100,61 L 100,63 L 101,64 L 101,66 L 102,67 L 102,73 L 104,75 L 104,89 L 105,90 L 105,91 L 104,92 L 104,98 L 103,99 L 103,107 L 102,108 L 102,116 L 101,117 L 101,120 L 100,121 L 100,132 L 99,133 L 99,138 L 98,139 L 98,153 L 99,154 L 99,156 L 100,157 L 100,164 L 101,164 L 102,165 L 102,166 L 104,168 L 103,169 L 103,170 L 104,171 L 104,172 L 105,173 L 105,174 L 106,175 L 106,176 L 107,176 L 108,177 L 108,178 L 109,178 L 110,179 L 110,180 L 112,182 L 113,182 L 114,183 L 114,184 L 115,184 L 116,185 L 119,185 L 122,188 L 124,188 L 125,189 L 126,189 L 127,190 L 131,190 L 132,191 L 133,191 L 134,192 L 157,192 L 158,191 L 160,191 L 161,190 L 166,190 L 167,189 L 169,189 L 170,188 L 173,188 L 174,187 L 175,187 L 176,186 L 177,186 L 178,185 L 180,185 L 181,184 L 183,184 L 184,183 L 185,183 L 186,182 L 187,182 L 188,181 L 189,181 L 190,180 L 191,180 L 191,179 L 192,178 L 193,178 L 196,175 L 197,175 L 198,174 L 199,174 L 199,173 L 207,165 L 207,164 L 211,160 L 211,159 L 213,157 L 213,156 L 215,154 L 215,153 L 216,152 L 217,152 L 217,149 L 219,147 L 219,146 L 221,144 L 221,142 L 223,140 L 223,137 L 225,135 L 225,132 L 226,131 L 226,129 L 227,128 L 227,123 L 228,122 L 228,119 L 229,118 L 229,112 L 230,111 L 230,108 L 231,107 L 231,102 L 230,101 L 230,99 L 231,98 L 231,85 L 230,84 L 230,59 L 231,58 L 231,47 L 232,46 L 232,44 L 233,43 L 233,39 L 234,38 L 234,37 L 235,36 L 235,33 L 236,32 L 236,31 L 237,30 L 237,27 L 239,25 L 239,23 L 240,22 L 241,22 L 241,21 L 243,19 L 243,17 L 242,16 Z" fill="black" /><path d="M 0,0 L 0,218 L 260,218 L 260,1 L 259,0 Z" fill="none" stroke="black" stroke-width="1" /></svg>