<?xml version='1.0' encoding='utf-8'?>
<svg width="253" height="219" xmlns="http://www.w3.org/2000/svg" viewBox="0 0 253 219"><rect width="253" height="219" fill="white" /><path d="M 70,77 L 69,78 L 67,78 L 66,79 L 62,79 L 61,80 L 59,80 L 58,81 L 57,81 L 56,82 L 55,82 L 54,83 L 52,83 L 50,85 L 48,85 L 46,87 L 45,87 L 41,91 L 40,91 L 33,98 L 33,99 L 31,101 L 31,102 L 29,104 L 29,105 L 27,107 L 27,108 L 26,109 L 26,110 L 25,111 L 25,112 L 24,113 L 24,114 L 23,115 L 23,118 L 21,120 L 21,125 L 19,127 L 19,146 L 20,147 L 20,151 L 21,152 L 21,156 L 22,156 L 23,157 L 23,158 L 25,160 L 25,162 L 27,164 L 27,166 L 28,166 L 32,170 L 33,170 L 37,174 L 39,174 L 40,175 L 41,175 L 42,176 L 43,176 L 44,177 L 46,177 L 47,178 L 62,178 L 63,177 L 64,177 L 65,176 L 68,176 L 69,175 L 70,175 L 71,174 L 72,174 L 73,173 L 74,173 L 77,170 L 78,170 L 78,169 L 79,168 L 80,168 L 80,167 L 83,164 L 83,162 L 84,161 L 84,159 L 85,158 L 85,157 L 86,156 L 86,147 L 85,146 L 85,145 L 84,144 L 84,138 L 83,137 L 83,135 L 84,134 L 103,134 L 104,133 L 105,133 L 106,134 L 107,134 L 108,133 L 114,133 L 115,132 L 159,132 L 160,131 L 182,131 L 183,130 L 185,130 L 187,132 L 184,135 L 183,135 L 182,136 L 181,136 L 181,137 L 180,138 L 180,139 L 179,140 L 179,141 L 178,142 L 178,143 L 177,144 L 177,151 L 176,152 L 176,154 L 177,155 L 177,160 L 178,161 L 178,162 L 179,162 L 180,163 L 180,164 L 181,165 L 181,166 L 182,166 L 183,167 L 183,168 L 184,168 L 186,170 L 188,170 L 189,171 L 189,172 L 194,172 L 195,173 L 202,173 L 203,172 L 208,172 L 209,171 L 210,171 L 211,170 L 212,170 L 213,169 L 214,169 L 215,168 L 216,168 L 217,167 L 218,167 L 224,161 L 224,160 L 226,158 L 226,157 L 228,155 L 228,153 L 229,152 L 229,151 L 230,150 L 230,148 L 231,147 L 231,146 L 232,145 L 232,143 L 233,142 L 233,139 L 234,138 L 234,127 L 233,126 L 233,120 L 232,119 L 232,117 L 231,116 L 231,115 L 230,114 L 230,113 L 229,112 L 229,111 L 228,110 L 228,109 L 226,107 L 225,107 L 224,106 L 224,105 L 222,103 L 221,103 L 220,102 L 220,101 L 219,101 L 218,100 L 217,100 L 214,97 L 213,97 L 212,96 L 212,95 L 207,95 L 205,93 L 201,93 L 200,92 L 198,92 L 197,91 L 193,91 L 192,90 L 191,90 L 190,89 L 185,89 L 184,88 L 178,88 L 177,87 L 169,87 L 168,86 L 167,87 L 162,87 L 161,86 L 160,87 L 152,87 L 151,88 L 149,88 L 148,89 L 145,89 L 144,90 L 144,92 L 145,93 L 145,94 L 151,94 L 152,93 L 157,93 L 158,92 L 164,92 L 165,93 L 174,93 L 175,92 L 176,92 L 177,93 L 180,93 L 181,94 L 186,94 L 187,95 L 188,95 L 189,94 L 190,95 L 192,95 L 193,96 L 196,96 L 197,97 L 198,97 L 199,98 L 201,98 L 203,100 L 206,100 L 208,102 L 210,102 L 213,105 L 214,105 L 215,106 L 216,106 L 221,111 L 221,112 L 225,116 L 225,119 L 227,121 L 227,134 L 226,135 L 226,142 L 225,143 L 225,146 L 223,148 L 223,150 L 222,151 L 222,152 L 221,153 L 221,154 L 217,158 L 217,159 L 213,163 L 212,163 L 210,165 L 208,165 L 207,166 L 206,166 L 205,167 L 201,167 L 200,168 L 199,168 L 198,167 L 192,167 L 190,165 L 189,165 L 186,162 L 186,161 L 184,159 L 184,157 L 182,155 L 182,153 L 183,152 L 183,149 L 184,148 L 184,143 L 188,139 L 188,138 L 190,136 L 190,135 L 191,134 L 192,134 L 196,130 L 197,130 L 198,129 L 198,128 L 196,126 L 194,126 L 193,125 L 190,125 L 189,126 L 180,126 L 179,125 L 177,125 L 176,126 L 153,126 L 152,127 L 138,127 L 137,126 L 136,127 L 82,127 L 80,129 L 75,129 L 75,136 L 76,137 L 76,138 L 77,139 L 77,148 L 78,149 L 78,150 L 79,151 L 79,156 L 78,157 L 78,158 L 77,159 L 77,160 L 76,161 L 76,162 L 75,163 L 75,164 L 74,165 L 73,165 L 73,166 L 70,169 L 68,169 L 66,171 L 64,171 L 63,172 L 62,172 L 61,173 L 60,172 L 52,172 L 51,171 L 47,171 L 46,170 L 45,170 L 44,169 L 41,169 L 36,164 L 35,164 L 32,161 L 32,160 L 30,158 L 30,157 L 28,155 L 28,152 L 26,150 L 26,147 L 25,146 L 25,134 L 26,133 L 26,126 L 27,125 L 27,123 L 28,122 L 28,121 L 29,120 L 29,119 L 30,118 L 30,115 L 31,114 L 31,113 L 32,112 L 32,111 L 34,109 L 34,107 L 35,106 L 35,105 L 36,104 L 36,103 L 41,98 L 41,97 L 42,96 L 43,96 L 47,92 L 49,92 L 51,90 L 52,90 L 53,89 L 54,89 L 55,88 L 56,88 L 57,87 L 58,87 L 59,86 L 62,86 L 63,85 L 66,85 L 67,84 L 75,84 L 76,83 L 78,83 L 79,84 L 91,84 L 92,85 L 93,85 L 94,86 L 98,86 L 99,87 L 101,87 L 102,88 L 105,88 L 106,89 L 107,89 L 108,90 L 111,90 L 113,92 L 116,92 L 117,93 L 118,93 L 119,94 L 120,94 L 121,95 L 122,95 L 123,94 L 126,94 L 126,89 L 125,88 L 123,88 L 122,87 L 120,87 L 118,85 L 115,85 L 114,84 L 113,84 L 112,83 L 108,83 L 107,82 L 106,82 L 105,81 L 101,81 L 100,80 L 97,80 L 96,79 L 83,79 L 82,78 L 79,78 L 78,77 Z" fill="black" /><path d="M 0,0 L 0,218 L 252,218 L 252,0 Z" fill="none" stroke="black" stroke-width="1" /></svg>