<?xml version='1.0' encoding='utf-8'?>
<svg width="258" height="218" xmlns="http://www.w3.org/2000/svg" viewBox="0 0 258 218"><rect width="258" height="218" fill="white" /><path d="M 143,6 L 142,7 L 139,7 L 138,8 L 133,8 L 131,10 L 128,10 L 127,11 L 126,11 L 125,12 L 123,12 L 121,14 L 119,14 L 119,16 L 118,17 L 117,17 L 110,24 L 109,24 L 109,25 L 107,27 L 107,29 L 106,30 L 105,30 L 105,31 L 104,32 L 104,33 L 103,34 L 103,35 L 101,37 L 101,39 L 98,42 L 98,43 L 97,44 L 97,45 L 96,46 L 96,48 L 94,50 L 94,52 L 93,53 L 93,54 L 91,56 L 91,59 L 89,61 L 89,65 L 88,66 L 88,67 L 87,68 L 87,72 L 86,73 L 86,75 L 85,76 L 85,84 L 84,85 L 84,86 L 83,87 L 83,97 L 82,98 L 82,99 L 83,100 L 83,103 L 82,104 L 82,105 L 83,106 L 83,119 L 84,120 L 84,126 L 85,127 L 85,131 L 86,132 L 86,133 L 87,134 L 87,137 L 88,137 L 89,138 L 89,146 L 90,147 L 90,149 L 91,150 L 91,151 L 92,152 L 92,153 L 93,154 L 93,156 L 95,158 L 95,161 L 96,161 L 97,162 L 97,165 L 100,168 L 100,170 L 101,171 L 101,172 L 103,174 L 103,175 L 104,176 L 104,177 L 105,178 L 105,179 L 108,182 L 108,183 L 109,183 L 111,185 L 111,186 L 112,187 L 113,187 L 118,192 L 118,193 L 120,193 L 123,196 L 123,197 L 125,199 L 128,199 L 130,201 L 132,201 L 133,202 L 134,202 L 135,203 L 139,203 L 140,204 L 142,204 L 143,205 L 159,205 L 160,204 L 161,204 L 162,203 L 168,203 L 169,202 L 170,202 L 171,201 L 174,201 L 176,199 L 177,199 L 181,195 L 182,195 L 182,194 L 183,193 L 184,193 L 184,192 L 185,191 L 186,191 L 186,190 L 187,189 L 188,189 L 188,188 L 191,185 L 191,184 L 192,183 L 192,182 L 194,180 L 194,179 L 196,177 L 196,176 L 198,174 L 198,172 L 199,171 L 200,171 L 200,168 L 201,167 L 202,167 L 202,165 L 203,164 L 203,163 L 204,162 L 204,160 L 205,159 L 205,158 L 206,157 L 206,156 L 207,155 L 207,153 L 208,152 L 208,150 L 209,149 L 209,148 L 210,147 L 210,140 L 212,138 L 212,135 L 213,134 L 213,129 L 214,128 L 214,120 L 215,119 L 215,111 L 214,110 L 214,109 L 215,108 L 215,104 L 214,103 L 215,102 L 215,99 L 214,98 L 214,89 L 213,88 L 213,85 L 212,84 L 212,80 L 211,79 L 211,78 L 210,77 L 210,72 L 209,71 L 209,70 L 208,69 L 208,64 L 206,62 L 206,60 L 205,59 L 205,58 L 204,57 L 204,56 L 203,55 L 203,54 L 202,53 L 202,52 L 200,50 L 200,48 L 198,46 L 198,44 L 196,42 L 196,40 L 195,39 L 195,38 L 194,37 L 194,36 L 193,36 L 192,35 L 192,34 L 190,32 L 190,30 L 188,28 L 188,27 L 186,25 L 186,24 L 185,24 L 184,23 L 184,22 L 183,22 L 182,21 L 182,20 L 181,20 L 180,19 L 180,18 L 178,16 L 176,16 L 174,14 L 173,14 L 171,12 L 170,12 L 168,10 L 166,10 L 164,8 L 161,8 L 160,7 L 156,7 L 155,6 L 147,6 L 146,7 L 145,7 L 144,6 Z" fill="black" /><path d="M 0,0 L 0,217 L 257,217 L 257,0 Z" fill="none" stroke="black" stroke-width="1" /></svg>