<?xml version='1.0' encoding='utf-8'?>
<svg width="260" height="219" xmlns="http://www.w3.org/2000/svg" viewBox="0 0 260 219"><rect width="260" height="219" fill="white" /><path d="M 76,31 L 75,32 L 68,32 L 67,33 L 64,33 L 63,34 L 62,34 L 58,38 L 58,40 L 55,43 L 55,44 L 54,45 L 54,46 L 53,47 L 53,50 L 52,51 L 52,52 L 50,54 L 50,62 L 49,63 L 49,65 L 48,66 L 48,70 L 46,72 L 46,80 L 45,81 L 45,82 L 44,83 L 44,91 L 43,92 L 43,93 L 42,94 L 42,100 L 41,101 L 41,103 L 40,104 L 40,110 L 39,111 L 39,114 L 38,115 L 38,121 L 37,122 L 37,128 L 36,129 L 36,136 L 35,137 L 35,140 L 34,141 L 34,181 L 35,182 L 35,183 L 36,184 L 36,187 L 38,189 L 38,191 L 40,193 L 40,194 L 41,194 L 42,195 L 42,196 L 43,196 L 46,199 L 46,200 L 48,202 L 49,202 L 50,203 L 51,203 L 52,204 L 53,204 L 55,206 L 57,206 L 59,208 L 61,208 L 62,209 L 63,209 L 64,210 L 67,210 L 68,211 L 69,211 L 70,212 L 83,212 L 84,211 L 87,211 L 88,212 L 91,212 L 93,210 L 96,210 L 97,209 L 99,209 L 100,208 L 101,208 L 102,207 L 103,207 L 104,206 L 106,206 L 113,199 L 113,198 L 115,196 L 115,195 L 116,194 L 116,193 L 117,192 L 117,191 L 119,189 L 119,185 L 120,184 L 120,183 L 121,182 L 121,177 L 122,176 L 122,175 L 123,174 L 123,171 L 124,170 L 124,168 L 125,167 L 125,161 L 127,159 L 127,158 L 128,157 L 128,156 L 130,154 L 134,154 L 135,155 L 136,155 L 137,156 L 143,156 L 144,157 L 145,157 L 146,158 L 167,158 L 168,157 L 171,157 L 172,156 L 175,156 L 175,155 L 176,154 L 183,154 L 183,153 L 184,152 L 186,152 L 188,150 L 189,150 L 189,149 L 191,147 L 191,145 L 193,143 L 193,141 L 194,140 L 194,138 L 195,137 L 195,133 L 196,132 L 196,130 L 197,129 L 197,123 L 198,122 L 198,120 L 199,119 L 199,115 L 200,114 L 200,111 L 201,110 L 201,97 L 202,96 L 202,95 L 203,94 L 203,87 L 204,86 L 204,74 L 205,73 L 205,53 L 204,52 L 204,49 L 203,48 L 203,45 L 201,43 L 201,42 L 199,40 L 199,39 L 198,38 L 198,37 L 197,37 L 193,33 L 191,33 L 190,32 L 189,32 L 188,31 L 178,31 L 176,33 L 170,33 L 169,34 L 168,34 L 167,35 L 166,35 L 164,37 L 164,38 L 160,42 L 160,43 L 158,45 L 158,46 L 157,47 L 157,48 L 156,49 L 156,50 L 155,51 L 155,52 L 154,53 L 154,57 L 152,59 L 152,62 L 151,63 L 151,64 L 150,65 L 150,67 L 149,68 L 149,70 L 148,71 L 148,74 L 147,75 L 147,76 L 146,77 L 146,78 L 145,79 L 145,80 L 144,81 L 144,82 L 143,83 L 143,84 L 142,85 L 142,87 L 141,88 L 141,89 L 140,90 L 140,92 L 138,94 L 138,96 L 137,97 L 136,97 L 136,99 L 134,101 L 133,101 L 130,104 L 127,104 L 125,102 L 125,100 L 124,99 L 124,96 L 123,95 L 123,85 L 122,84 L 122,83 L 121,82 L 121,75 L 120,74 L 120,71 L 119,70 L 119,67 L 118,66 L 118,65 L 117,64 L 117,61 L 116,60 L 116,58 L 115,57 L 115,54 L 114,53 L 114,52 L 113,51 L 113,47 L 111,45 L 111,43 L 110,43 L 109,42 L 109,40 L 107,38 L 107,37 L 106,37 L 104,35 L 102,35 L 101,34 L 98,34 L 97,33 L 92,33 L 91,32 L 78,32 L 77,31 Z" fill="black" /><path d="M 0,0 L 0,218 L 259,218 L 259,0 Z" fill="none" stroke="black" stroke-width="1" /></svg>