<?xml version='1.0' encoding='utf-8'?>
<svg width="261" height="217" xmlns="http://www.w3.org/2000/svg" viewBox="0 0 261 217"><rect width="261" height="217" fill="white" /><path d="M 130,33 L 129,34 L 91,34 L 90,35 L 48,35 L 48,61 L 49,62 L 49,76 L 50,77 L 50,81 L 49,82 L 50,83 L 50,106 L 97,106 L 99,108 L 99,120 L 100,121 L 100,143 L 101,144 L 100,145 L 100,148 L 99,149 L 52,149 L 52,162 L 53,163 L 53,170 L 54,171 L 54,172 L 53,173 L 53,174 L 54,175 L 54,206 L 57,206 L 58,205 L 92,205 L 93,204 L 94,205 L 103,205 L 104,204 L 214,204 L 216,202 L 216,186 L 215,185 L 215,149 L 214,148 L 211,148 L 210,149 L 208,149 L 207,148 L 203,148 L 202,149 L 201,148 L 198,148 L 197,149 L 192,149 L 191,148 L 190,149 L 160,149 L 159,148 L 159,138 L 158,137 L 158,129 L 157,128 L 157,106 L 158,105 L 185,105 L 186,104 L 187,104 L 188,105 L 193,105 L 194,104 L 197,104 L 198,105 L 200,105 L 201,104 L 208,104 L 210,106 L 211,106 L 212,105 L 213,105 L 213,70 L 212,69 L 212,53 L 211,52 L 211,37 L 212,36 L 212,34 L 211,33 L 137,33 L 136,34 L 133,34 L 132,33 Z" fill="black" /><path d="M 0,0 L 0,216 L 260,216 L 260,0 Z" fill="none" stroke="black" stroke-width="1" /></svg>