<?xml version='1.0' encoding='utf-8'?>
<svg width="258" height="214" xmlns="http://www.w3.org/2000/svg" viewBox="0 0 258 214"><rect width="258" height="214" fill="white" /><path d="M 144,51 L 143,52 L 98,52 L 97,53 L 95,53 L 94,52 L 93,52 L 92,53 L 87,53 L 86,52 L 85,53 L 63,53 L 63,55 L 64,56 L 64,79 L 65,80 L 65,108 L 66,109 L 66,112 L 65,113 L 65,115 L 66,116 L 66,133 L 67,134 L 67,138 L 66,139 L 67,140 L 67,150 L 69,152 L 71,152 L 72,151 L 74,151 L 75,152 L 80,152 L 81,151 L 94,151 L 95,150 L 96,151 L 102,151 L 103,150 L 108,150 L 109,151 L 110,150 L 131,150 L 132,149 L 133,150 L 137,150 L 138,149 L 160,149 L 161,148 L 162,149 L 177,149 L 178,148 L 180,148 L 181,147 L 181,146 L 182,145 L 181,144 L 181,125 L 180,124 L 180,70 L 179,69 L 179,66 L 180,65 L 180,62 L 179,61 L 179,56 L 180,55 L 180,53 L 179,52 L 178,52 L 177,51 L 154,51 L 153,52 L 152,51 L 149,51 L 148,52 L 147,52 L 146,51 Z" fill="black" /></svg>