<?xml version='1.0' encoding='utf-8'?>
<svg width="260" height="216" xmlns="http://www.w3.org/2000/svg" viewBox="0 0 260 216"><rect width="260" height="216" fill="white" /><path d="M 129,22 L 128,23 L 115,23 L 113,25 L 110,25 L 109,26 L 108,26 L 107,27 L 104,27 L 103,28 L 102,28 L 101,29 L 98,29 L 97,30 L 96,30 L 95,31 L 93,31 L 92,32 L 92,34 L 91,35 L 87,35 L 85,37 L 84,37 L 78,43 L 78,44 L 76,46 L 76,47 L 74,49 L 74,52 L 73,53 L 73,55 L 72,56 L 72,69 L 73,70 L 73,72 L 74,73 L 74,78 L 75,79 L 75,81 L 76,82 L 76,84 L 77,85 L 77,86 L 78,87 L 78,89 L 80,91 L 80,93 L 81,94 L 81,95 L 83,97 L 83,100 L 84,101 L 84,102 L 86,104 L 86,106 L 88,108 L 88,110 L 89,111 L 89,112 L 90,113 L 90,114 L 91,115 L 91,116 L 92,117 L 92,119 L 93,120 L 93,121 L 94,122 L 94,125 L 95,126 L 94,127 L 94,136 L 93,137 L 93,138 L 92,139 L 92,141 L 90,143 L 90,146 L 89,147 L 89,148 L 88,149 L 88,150 L 87,151 L 87,154 L 86,155 L 86,156 L 85,157 L 85,158 L 84,159 L 84,160 L 83,161 L 83,163 L 82,164 L 82,168 L 81,169 L 81,172 L 80,173 L 80,186 L 81,187 L 81,188 L 82,189 L 82,190 L 83,191 L 83,192 L 84,193 L 84,194 L 85,195 L 85,196 L 86,197 L 86,198 L 88,200 L 90,200 L 92,202 L 92,203 L 93,204 L 95,204 L 96,205 L 96,206 L 98,206 L 99,207 L 99,208 L 103,208 L 105,210 L 115,210 L 116,211 L 116,212 L 123,212 L 124,213 L 127,213 L 128,212 L 134,212 L 135,211 L 137,211 L 138,210 L 143,210 L 144,209 L 148,209 L 149,208 L 153,208 L 154,207 L 155,207 L 156,206 L 158,206 L 160,204 L 161,204 L 161,203 L 162,202 L 163,202 L 163,201 L 164,200 L 165,200 L 165,199 L 167,197 L 167,196 L 169,194 L 169,191 L 170,190 L 170,187 L 171,186 L 171,181 L 170,180 L 170,179 L 169,178 L 169,176 L 168,175 L 168,174 L 167,173 L 167,170 L 165,168 L 165,166 L 164,165 L 164,164 L 163,163 L 163,161 L 162,160 L 162,159 L 161,158 L 161,155 L 160,154 L 160,153 L 159,152 L 159,150 L 158,149 L 158,148 L 157,147 L 157,145 L 156,144 L 156,142 L 155,141 L 155,138 L 153,136 L 153,132 L 152,131 L 152,127 L 153,126 L 153,123 L 155,121 L 155,119 L 156,118 L 156,117 L 157,116 L 157,115 L 159,113 L 159,112 L 161,110 L 161,109 L 163,107 L 163,105 L 164,104 L 165,104 L 165,103 L 166,102 L 166,101 L 169,98 L 169,97 L 170,96 L 171,96 L 171,94 L 173,92 L 173,90 L 174,89 L 174,88 L 175,87 L 175,85 L 177,83 L 177,81 L 178,80 L 179,80 L 179,77 L 180,76 L 180,75 L 181,74 L 181,71 L 182,70 L 182,69 L 183,68 L 183,47 L 182,46 L 182,44 L 181,43 L 181,41 L 179,39 L 179,37 L 178,37 L 177,36 L 177,35 L 173,31 L 171,31 L 169,29 L 168,29 L 167,28 L 166,28 L 165,27 L 162,27 L 161,26 L 160,26 L 159,25 L 156,25 L 154,23 L 148,23 L 147,22 Z" fill="black" /><path d="M 0,0 L 0,215 L 259,215 L 259,0 Z" fill="none" stroke="black" stroke-width="1" /></svg>