<?xml version='1.0' encoding='utf-8'?>
<svg width="256" height="219" xmlns="http://www.w3.org/2000/svg" viewBox="0 0 256 219"><rect width="256" height="219" fill="white" /><path d="M 139,92 L 138,93 L 136,93 L 135,94 L 134,94 L 133,95 L 132,95 L 130,97 L 130,98 L 128,100 L 128,104 L 127,105 L 127,106 L 126,107 L 127,108 L 127,114 L 128,115 L 128,123 L 129,124 L 129,125 L 130,126 L 130,128 L 132,130 L 132,132 L 133,133 L 133,134 L 134,135 L 134,136 L 135,137 L 135,138 L 136,139 L 136,140 L 140,144 L 140,145 L 150,155 L 151,155 L 152,156 L 153,156 L 154,157 L 154,158 L 156,158 L 158,160 L 160,160 L 161,161 L 162,161 L 163,162 L 169,162 L 170,163 L 172,163 L 173,162 L 178,162 L 180,160 L 181,160 L 183,158 L 183,157 L 184,156 L 184,155 L 185,154 L 185,135 L 184,134 L 184,131 L 183,130 L 183,127 L 182,126 L 182,125 L 181,124 L 181,122 L 179,120 L 179,117 L 178,117 L 177,116 L 177,115 L 174,112 L 174,111 L 173,110 L 173,109 L 172,109 L 171,108 L 170,108 L 169,107 L 169,106 L 163,100 L 162,100 L 161,99 L 160,99 L 159,98 L 159,97 L 156,97 L 154,95 L 152,95 L 151,94 L 151,93 L 143,93 L 142,92 Z" fill="black" /><path d="M 209,64 L 209,65 L 208,66 L 209,67 L 209,69 L 208,70 L 208,72 L 209,73 L 209,76 L 207,78 L 206,78 L 205,79 L 201,79 L 200,78 L 196,78 L 195,79 L 195,80 L 196,81 L 206,81 L 208,83 L 208,86 L 209,87 L 209,93 L 211,95 L 212,94 L 212,91 L 211,90 L 211,85 L 212,84 L 212,82 L 214,80 L 215,80 L 216,81 L 222,81 L 223,80 L 226,80 L 226,78 L 225,78 L 224,77 L 223,78 L 220,78 L 219,79 L 216,79 L 215,78 L 214,78 L 213,77 L 212,77 L 211,76 L 211,67 L 212,66 L 211,65 L 211,64 Z" fill="black" /><path d="M 88,21 L 87,22 L 86,22 L 85,23 L 82,23 L 82,24 L 78,28 L 78,30 L 77,31 L 77,34 L 78,35 L 78,40 L 82,44 L 83,44 L 85,46 L 96,46 L 98,44 L 99,44 L 99,43 L 100,42 L 100,41 L 102,39 L 102,37 L 103,36 L 103,31 L 102,30 L 102,29 L 101,28 L 101,27 L 100,26 L 100,25 L 99,24 L 98,24 L 95,21 Z" fill="black" /></svg>