<?xml version='1.0' encoding='utf-8'?>
<svg width="259" height="214" xmlns="http://www.w3.org/2000/svg" viewBox="0 0 259 214"><rect width="259" height="214" fill="white" /><path d="M 101,187 L 100,188 L 99,188 L 93,194 L 93,195 L 92,196 L 92,201 L 93,202 L 93,206 L 97,210 L 99,210 L 100,211 L 101,211 L 102,212 L 108,212 L 110,210 L 112,210 L 113,209 L 113,208 L 117,204 L 117,196 L 116,195 L 116,194 L 115,193 L 115,192 L 112,189 L 110,189 L 109,188 L 108,188 L 107,187 Z" fill="black" /><path d="M 103,54 L 102,55 L 101,55 L 96,60 L 96,61 L 94,63 L 94,64 L 92,66 L 92,67 L 90,69 L 90,70 L 88,72 L 88,74 L 87,75 L 86,75 L 86,78 L 85,79 L 85,80 L 84,81 L 84,84 L 83,85 L 83,87 L 82,88 L 82,93 L 81,94 L 81,97 L 82,98 L 82,99 L 81,100 L 81,104 L 82,105 L 82,109 L 83,110 L 83,114 L 84,115 L 84,117 L 85,118 L 85,120 L 86,121 L 86,122 L 87,123 L 87,124 L 88,125 L 88,127 L 90,129 L 90,130 L 94,134 L 95,134 L 96,135 L 96,136 L 97,137 L 98,137 L 99,138 L 103,138 L 104,139 L 106,139 L 107,138 L 111,138 L 115,134 L 115,132 L 118,129 L 118,128 L 121,125 L 121,124 L 123,122 L 123,120 L 125,118 L 125,115 L 126,114 L 126,112 L 127,111 L 127,106 L 129,104 L 129,99 L 130,98 L 129,97 L 129,93 L 128,92 L 128,91 L 129,90 L 129,87 L 128,86 L 128,83 L 127,82 L 127,79 L 125,77 L 125,74 L 123,72 L 123,71 L 122,70 L 122,69 L 121,68 L 121,66 L 117,62 L 117,61 L 116,61 L 115,60 L 115,59 L 114,59 L 113,58 L 113,57 L 112,57 L 111,56 L 111,55 L 110,55 L 109,54 Z" fill="black" /><path d="M 233,14 L 233,15 L 232,16 L 233,17 L 232,18 L 232,20 L 233,21 L 233,28 L 232,29 L 228,29 L 227,30 L 219,30 L 219,32 L 220,32 L 221,33 L 225,33 L 226,32 L 227,32 L 228,33 L 231,33 L 233,35 L 233,45 L 234,46 L 234,48 L 236,48 L 236,47 L 237,46 L 236,45 L 236,44 L 237,43 L 237,42 L 235,40 L 235,37 L 236,36 L 236,35 L 238,33 L 243,33 L 244,32 L 251,32 L 252,31 L 252,30 L 251,29 L 242,29 L 241,30 L 239,30 L 237,28 L 237,24 L 236,23 L 236,21 L 235,20 L 235,17 L 236,16 L 235,15 L 235,14 Z" fill="black" /></svg>