<?xml version='1.0' encoding='utf-8'?>
<svg width="255" height="214" xmlns="http://www.w3.org/2000/svg" viewBox="0 0 255 214"><rect width="255" height="214" fill="white" /><path d="M 229,91 L 228,92 L 227,92 L 227,96 L 228,97 L 228,99 L 229,100 L 229,104 L 226,107 L 216,107 L 214,109 L 214,110 L 215,111 L 216,111 L 217,110 L 228,110 L 229,111 L 229,120 L 230,121 L 230,122 L 231,123 L 232,123 L 233,122 L 233,121 L 232,120 L 232,110 L 234,108 L 237,108 L 238,109 L 239,109 L 240,108 L 245,108 L 246,107 L 246,106 L 245,105 L 241,105 L 240,106 L 233,106 L 231,104 L 231,94 L 230,93 L 230,92 Z" fill="black" /><path d="M 92,85 L 91,86 L 89,86 L 88,87 L 83,87 L 82,88 L 77,88 L 76,89 L 72,89 L 70,91 L 67,91 L 66,92 L 65,92 L 64,93 L 62,93 L 61,94 L 59,94 L 58,95 L 57,95 L 56,96 L 55,96 L 54,97 L 53,97 L 51,99 L 49,99 L 47,101 L 46,101 L 44,103 L 43,103 L 43,104 L 42,105 L 41,105 L 39,107 L 39,108 L 38,109 L 37,109 L 37,110 L 35,112 L 35,115 L 34,116 L 34,117 L 33,118 L 33,121 L 34,122 L 34,124 L 35,125 L 35,128 L 41,134 L 42,134 L 44,136 L 46,136 L 47,137 L 47,138 L 49,138 L 51,140 L 53,140 L 54,141 L 56,141 L 57,142 L 59,142 L 60,143 L 61,143 L 62,144 L 65,144 L 66,145 L 67,145 L 68,146 L 74,146 L 75,147 L 76,147 L 77,148 L 85,148 L 86,149 L 90,149 L 91,150 L 100,150 L 101,149 L 102,149 L 103,148 L 104,148 L 105,149 L 105,150 L 109,150 L 110,149 L 112,149 L 113,148 L 120,148 L 121,147 L 122,147 L 123,146 L 126,146 L 127,145 L 130,145 L 131,144 L 135,144 L 137,142 L 142,142 L 144,140 L 147,140 L 149,138 L 150,138 L 151,137 L 152,137 L 154,135 L 155,135 L 156,134 L 158,134 L 159,133 L 159,132 L 161,130 L 164,130 L 164,129 L 165,128 L 166,128 L 168,126 L 168,125 L 169,124 L 170,124 L 172,122 L 172,121 L 173,120 L 173,118 L 174,117 L 174,109 L 170,105 L 169,105 L 168,104 L 168,103 L 166,101 L 165,101 L 162,98 L 161,98 L 160,97 L 158,97 L 157,96 L 155,96 L 154,95 L 152,95 L 151,94 L 150,94 L 148,92 L 146,92 L 145,91 L 143,91 L 142,90 L 141,90 L 140,89 L 137,89 L 136,88 L 135,88 L 134,87 L 125,87 L 123,85 Z" fill="black" /><path d="M 177,37 L 175,39 L 174,39 L 171,42 L 171,45 L 169,47 L 169,54 L 171,56 L 171,57 L 172,58 L 173,58 L 175,60 L 176,60 L 177,61 L 178,61 L 179,62 L 184,62 L 185,61 L 186,61 L 187,60 L 188,60 L 192,56 L 192,55 L 194,53 L 194,47 L 193,46 L 193,45 L 192,44 L 192,42 L 189,39 L 185,39 L 183,37 Z" fill="black" /></svg>