<?xml version='1.0' encoding='utf-8'?>
<svg width="254" height="214" xmlns="http://www.w3.org/2000/svg" viewBox="0 0 254 214"><rect width="254" height="214" fill="white" /><path d="M 140,184 L 138,186 L 137,186 L 133,190 L 133,199 L 134,200 L 134,201 L 135,202 L 135,203 L 137,205 L 138,205 L 139,206 L 140,206 L 141,207 L 152,207 L 156,203 L 156,202 L 157,201 L 157,200 L 158,199 L 158,192 L 157,191 L 157,190 L 156,189 L 156,188 L 153,185 L 152,185 L 151,184 Z" fill="black" /><path d="M 126,62 L 125,63 L 123,63 L 122,64 L 121,64 L 117,68 L 117,69 L 116,70 L 116,71 L 115,72 L 115,73 L 114,74 L 114,75 L 113,76 L 113,77 L 112,78 L 112,79 L 111,80 L 111,83 L 110,84 L 110,85 L 109,86 L 109,89 L 108,90 L 108,106 L 109,107 L 109,112 L 110,113 L 110,115 L 111,116 L 111,119 L 112,120 L 112,121 L 113,122 L 113,124 L 115,126 L 115,127 L 117,129 L 117,130 L 118,131 L 118,133 L 120,135 L 121,135 L 125,139 L 126,139 L 128,141 L 130,141 L 131,142 L 134,142 L 135,143 L 140,143 L 140,142 L 141,141 L 144,141 L 144,140 L 145,139 L 148,139 L 150,137 L 150,136 L 151,135 L 151,134 L 152,133 L 152,132 L 154,130 L 154,129 L 155,128 L 155,126 L 156,125 L 156,122 L 157,121 L 157,117 L 158,116 L 158,102 L 157,101 L 157,98 L 156,97 L 156,92 L 155,91 L 155,90 L 154,89 L 154,86 L 153,85 L 153,84 L 152,83 L 152,82 L 151,81 L 151,80 L 150,79 L 150,78 L 148,76 L 147,76 L 146,75 L 146,73 L 144,71 L 144,70 L 142,68 L 141,68 L 140,67 L 140,66 L 138,66 L 136,64 L 133,64 L 132,63 L 131,63 L 130,62 Z" fill="black" /><path d="M 173,31 L 172,32 L 172,34 L 173,35 L 173,41 L 172,42 L 172,43 L 170,45 L 159,45 L 159,47 L 160,47 L 161,48 L 170,48 L 172,50 L 172,51 L 173,52 L 173,62 L 176,62 L 176,50 L 178,48 L 180,48 L 181,49 L 183,49 L 184,48 L 188,48 L 189,49 L 190,48 L 191,48 L 191,47 L 189,45 L 178,45 L 176,43 L 176,38 L 175,37 L 175,32 L 174,31 Z" fill="black" /><path d="M 0,0 L 0,213 L 253,213 L 253,0 Z" fill="none" stroke="black" stroke-width="1" /></svg>