<?xml version='1.0' encoding='utf-8'?>
<svg width="258" height="220" xmlns="http://www.w3.org/2000/svg" viewBox="0 0 258 220"><rect width="258" height="220" fill="white" /><path d="M 15,104 L 14,105 L 10,105 L 8,107 L 7,107 L 5,109 L 5,110 L 4,111 L 4,112 L 3,113 L 3,121 L 4,122 L 4,123 L 5,124 L 5,125 L 6,125 L 9,128 L 12,128 L 13,129 L 15,129 L 16,130 L 18,130 L 20,128 L 24,128 L 24,127 L 26,125 L 26,124 L 28,122 L 28,120 L 29,119 L 29,117 L 30,116 L 30,115 L 28,113 L 28,111 L 26,109 L 26,108 L 25,107 L 24,107 L 22,105 L 20,105 L 19,104 L 18,105 L 16,105 Z" fill="black" /><path d="M 107,97 L 106,98 L 105,98 L 104,99 L 101,99 L 100,100 L 97,100 L 96,101 L 94,101 L 92,103 L 88,103 L 86,105 L 84,105 L 82,107 L 79,107 L 78,108 L 77,108 L 76,109 L 74,109 L 72,111 L 71,111 L 69,113 L 68,113 L 66,115 L 65,115 L 63,117 L 61,117 L 59,119 L 58,119 L 56,121 L 55,121 L 55,122 L 54,123 L 53,123 L 50,126 L 49,126 L 49,127 L 47,129 L 46,129 L 39,136 L 39,137 L 35,141 L 35,142 L 34,143 L 33,143 L 33,144 L 31,146 L 31,147 L 29,149 L 29,150 L 27,152 L 27,153 L 25,155 L 25,156 L 24,157 L 24,158 L 23,159 L 23,160 L 21,162 L 21,164 L 20,165 L 20,166 L 19,167 L 19,168 L 18,169 L 18,171 L 17,172 L 17,174 L 15,176 L 15,182 L 14,183 L 14,187 L 15,188 L 15,190 L 16,191 L 16,193 L 17,194 L 18,194 L 19,195 L 19,196 L 20,196 L 21,197 L 23,197 L 24,198 L 32,198 L 33,197 L 38,197 L 39,196 L 44,196 L 45,195 L 48,195 L 49,194 L 50,194 L 51,193 L 53,193 L 54,192 L 55,192 L 56,191 L 58,191 L 59,190 L 60,190 L 61,189 L 62,189 L 63,188 L 64,188 L 65,187 L 66,187 L 67,186 L 68,186 L 70,184 L 72,184 L 73,183 L 74,183 L 77,180 L 78,180 L 79,179 L 80,179 L 81,178 L 82,178 L 82,177 L 83,176 L 85,176 L 91,170 L 92,170 L 94,168 L 94,167 L 95,166 L 96,166 L 98,164 L 98,163 L 99,162 L 100,162 L 100,161 L 103,158 L 104,158 L 104,156 L 107,153 L 107,152 L 110,149 L 110,147 L 111,146 L 112,146 L 112,145 L 113,144 L 113,143 L 114,142 L 114,140 L 120,134 L 120,131 L 124,127 L 124,121 L 126,119 L 126,117 L 127,116 L 127,113 L 128,112 L 128,107 L 127,106 L 127,104 L 126,103 L 126,102 L 124,100 L 123,100 L 121,98 L 120,98 L 119,97 Z" fill="black" /><path d="M 195,20 L 194,21 L 193,21 L 193,25 L 201,33 L 201,36 L 198,39 L 196,39 L 193,42 L 193,43 L 192,44 L 193,45 L 198,45 L 199,44 L 199,43 L 203,39 L 205,39 L 209,43 L 209,44 L 211,46 L 212,46 L 213,47 L 213,48 L 216,51 L 217,51 L 219,49 L 219,48 L 216,45 L 215,45 L 214,44 L 214,43 L 210,39 L 210,38 L 208,36 L 208,35 L 209,34 L 210,34 L 214,30 L 215,30 L 220,25 L 220,23 L 219,22 L 217,22 L 216,23 L 215,23 L 215,24 L 210,29 L 209,29 L 209,30 L 207,32 L 205,32 L 201,28 L 201,27 L 197,23 L 197,22 Z" fill="black" /><path d="M 0,0 L 0,219 L 257,219 L 257,0 Z" fill="none" stroke="black" stroke-width="1" /></svg>