<?xml version='1.0' encoding='utf-8'?>
<svg width="256" height="214" xmlns="http://www.w3.org/2000/svg" viewBox="0 0 256 214"><rect width="256" height="214" fill="white" /><path d="M 97,114 L 96,115 L 94,115 L 93,116 L 91,116 L 90,117 L 89,117 L 88,118 L 87,118 L 86,119 L 85,119 L 84,120 L 82,120 L 80,122 L 79,122 L 77,124 L 76,124 L 74,126 L 73,126 L 70,129 L 69,129 L 69,131 L 68,132 L 67,132 L 63,136 L 63,137 L 61,139 L 61,141 L 59,143 L 59,144 L 58,145 L 58,146 L 57,147 L 57,149 L 56,150 L 56,151 L 55,152 L 55,155 L 54,156 L 54,158 L 53,159 L 53,161 L 55,163 L 55,167 L 59,171 L 60,171 L 61,172 L 61,173 L 64,173 L 65,174 L 66,174 L 67,173 L 68,173 L 69,174 L 77,174 L 78,173 L 83,173 L 84,172 L 88,172 L 89,171 L 92,171 L 92,170 L 93,169 L 95,169 L 97,167 L 98,167 L 99,166 L 100,166 L 101,165 L 102,165 L 103,164 L 104,164 L 105,163 L 106,163 L 106,162 L 107,161 L 108,161 L 110,159 L 110,158 L 111,157 L 112,157 L 112,155 L 116,151 L 117,151 L 118,150 L 118,148 L 122,144 L 122,142 L 123,141 L 123,140 L 124,139 L 124,136 L 125,135 L 125,134 L 126,133 L 126,128 L 127,127 L 127,124 L 126,123 L 126,120 L 125,120 L 121,116 L 119,116 L 118,115 L 116,115 L 115,114 Z" fill="black" /><path d="M 220,79 L 219,80 L 219,93 L 218,94 L 205,94 L 205,95 L 204,96 L 205,97 L 205,98 L 210,98 L 211,99 L 218,99 L 219,100 L 219,111 L 220,112 L 220,113 L 221,114 L 222,114 L 223,113 L 223,112 L 222,111 L 222,106 L 223,105 L 223,104 L 222,103 L 222,101 L 223,100 L 223,99 L 224,98 L 233,98 L 234,99 L 236,99 L 237,100 L 239,98 L 239,97 L 238,96 L 233,96 L 232,95 L 229,95 L 228,94 L 223,94 L 222,93 L 222,80 L 221,79 Z" fill="black" /><path d="M 205,36 L 203,38 L 202,38 L 200,40 L 200,41 L 199,42 L 199,43 L 198,44 L 198,48 L 197,49 L 197,51 L 199,53 L 199,55 L 204,60 L 209,60 L 210,61 L 213,61 L 215,59 L 217,59 L 222,54 L 222,52 L 223,51 L 223,45 L 222,44 L 222,43 L 220,41 L 220,40 L 218,38 L 217,38 L 215,36 Z" fill="black" /><path d="M 0,0 L 0,213 L 255,213 L 255,0 Z" fill="none" stroke="black" stroke-width="1" /></svg>