<?xml version='1.0' encoding='utf-8'?>
<svg width="260" height="217" xmlns="http://www.w3.org/2000/svg" viewBox="0 0 260 217"><rect width="260" height="217" fill="white" /><path d="M 232,110 L 229,113 L 227,113 L 227,114 L 225,116 L 225,118 L 224,119 L 224,121 L 223,122 L 223,126 L 224,127 L 224,128 L 225,129 L 225,130 L 226,131 L 226,132 L 227,132 L 229,134 L 231,134 L 232,135 L 233,135 L 234,136 L 238,136 L 239,135 L 240,135 L 241,134 L 243,134 L 247,130 L 247,129 L 248,128 L 248,117 L 242,111 L 234,111 L 233,110 Z" fill="black" /><path d="M 257,87 L 256,88 L 256,90 L 257,91 L 258,91 L 259,90 L 259,88 L 258,87 Z" fill="black" /><path d="M 85,87 L 84,88 L 79,88 L 78,89 L 75,89 L 74,90 L 73,90 L 72,89 L 71,89 L 70,90 L 66,90 L 65,91 L 61,91 L 60,92 L 59,92 L 58,93 L 53,93 L 51,95 L 46,95 L 44,97 L 42,97 L 40,99 L 39,99 L 38,100 L 37,100 L 36,101 L 35,101 L 34,102 L 33,102 L 32,103 L 31,103 L 29,105 L 27,105 L 23,109 L 23,110 L 21,112 L 21,114 L 20,115 L 20,118 L 21,119 L 21,122 L 22,123 L 22,124 L 23,125 L 23,126 L 27,130 L 28,130 L 29,131 L 30,131 L 31,132 L 32,132 L 33,133 L 34,133 L 35,134 L 36,134 L 37,135 L 38,135 L 39,136 L 40,136 L 42,138 L 45,138 L 47,140 L 50,140 L 51,141 L 52,141 L 53,142 L 54,142 L 55,143 L 58,143 L 59,144 L 62,144 L 63,145 L 64,145 L 65,146 L 72,146 L 73,147 L 76,147 L 77,148 L 88,148 L 89,149 L 99,149 L 100,148 L 108,148 L 109,147 L 114,147 L 115,146 L 121,146 L 122,145 L 124,145 L 125,144 L 129,144 L 130,143 L 131,143 L 132,142 L 134,142 L 135,141 L 136,141 L 137,140 L 140,140 L 141,139 L 142,139 L 143,138 L 145,138 L 147,136 L 148,136 L 150,134 L 152,134 L 157,129 L 158,129 L 159,128 L 159,127 L 160,126 L 160,125 L 161,124 L 161,123 L 162,122 L 162,119 L 161,118 L 161,115 L 160,114 L 160,112 L 158,110 L 158,109 L 157,109 L 156,108 L 155,108 L 154,107 L 154,106 L 152,104 L 151,104 L 150,103 L 149,103 L 148,102 L 147,102 L 146,101 L 145,101 L 144,100 L 142,100 L 141,99 L 138,99 L 137,98 L 137,97 L 135,97 L 133,95 L 129,95 L 128,94 L 127,94 L 126,93 L 125,93 L 124,92 L 121,92 L 120,91 L 115,91 L 114,90 L 111,90 L 110,89 L 103,89 L 102,88 L 86,88 Z" fill="black" /><path d="M 13,60 L 13,61 L 12,62 L 13,63 L 13,70 L 11,72 L 1,72 L 0,73 L 0,75 L 4,75 L 5,74 L 6,74 L 7,75 L 11,75 L 13,77 L 13,87 L 14,88 L 15,88 L 16,87 L 16,77 L 19,74 L 20,74 L 21,75 L 23,75 L 24,74 L 25,74 L 26,75 L 28,75 L 29,74 L 29,73 L 28,72 L 26,72 L 25,71 L 24,72 L 22,72 L 21,73 L 20,72 L 19,72 L 18,71 L 17,71 L 16,70 L 16,66 L 15,65 L 15,63 L 16,62 L 15,61 L 15,60 Z" fill="black" /></svg>