<?xml version='1.0' encoding='utf-8'?>
<svg width="256" height="216" xmlns="http://www.w3.org/2000/svg" viewBox="0 0 256 216"><rect width="256" height="216" fill="white" /><path d="M 142,131 L 141,132 L 139,132 L 138,133 L 137,133 L 136,134 L 135,134 L 134,135 L 134,136 L 132,138 L 132,143 L 131,144 L 132,145 L 132,149 L 134,151 L 134,152 L 136,154 L 137,154 L 138,155 L 139,155 L 140,156 L 141,156 L 142,157 L 146,157 L 147,156 L 149,156 L 150,155 L 153,155 L 153,154 L 156,151 L 156,149 L 157,148 L 157,139 L 156,138 L 156,137 L 153,134 L 152,134 L 150,132 L 148,132 L 147,131 Z" fill="black" /><path d="M 142,36 L 141,37 L 137,37 L 136,38 L 133,38 L 132,39 L 131,39 L 130,40 L 127,40 L 126,41 L 125,41 L 122,44 L 122,45 L 121,46 L 120,46 L 120,47 L 118,49 L 118,50 L 117,51 L 117,57 L 118,58 L 118,60 L 120,62 L 120,63 L 122,65 L 122,67 L 123,67 L 124,68 L 124,69 L 132,77 L 133,77 L 135,79 L 136,79 L 138,81 L 139,81 L 140,82 L 141,82 L 142,83 L 145,83 L 147,85 L 149,85 L 150,86 L 152,86 L 153,87 L 157,87 L 158,88 L 159,88 L 160,89 L 177,89 L 178,88 L 179,88 L 180,87 L 184,87 L 185,86 L 187,86 L 188,85 L 190,85 L 194,81 L 195,81 L 195,80 L 197,78 L 197,76 L 198,75 L 198,74 L 199,73 L 199,69 L 198,68 L 198,65 L 197,64 L 197,62 L 195,60 L 195,59 L 194,59 L 189,54 L 189,53 L 186,50 L 185,50 L 184,49 L 183,49 L 181,47 L 180,47 L 179,46 L 177,46 L 176,45 L 176,44 L 174,44 L 173,43 L 172,43 L 171,42 L 170,42 L 169,41 L 167,41 L 165,39 L 162,39 L 161,38 L 156,38 L 155,37 L 152,37 L 151,36 L 148,36 L 147,37 L 144,37 L 143,36 Z" fill="black" /><path d="M 44,21 L 44,23 L 43,24 L 43,25 L 42,26 L 42,30 L 41,31 L 41,33 L 39,35 L 34,35 L 33,34 L 30,34 L 29,33 L 28,33 L 27,32 L 26,33 L 25,33 L 25,34 L 26,35 L 26,36 L 27,37 L 34,37 L 36,39 L 37,39 L 38,40 L 38,47 L 36,49 L 36,53 L 37,54 L 40,54 L 40,53 L 41,52 L 41,44 L 44,41 L 49,41 L 50,42 L 51,42 L 52,43 L 59,43 L 59,40 L 55,40 L 54,39 L 52,39 L 51,38 L 45,38 L 43,36 L 43,34 L 45,32 L 45,28 L 46,27 L 46,22 L 45,21 Z" fill="black" /></svg>