<?xml version='1.0' encoding='utf-8'?>
<svg width="257" height="218" xmlns="http://www.w3.org/2000/svg" viewBox="0 0 257 218"><rect width="257" height="218" fill="white" /><path d="M 102,189 L 101,190 L 100,190 L 94,196 L 94,206 L 96,208 L 96,209 L 98,211 L 99,211 L 101,213 L 111,213 L 112,212 L 113,212 L 115,210 L 115,209 L 119,205 L 119,200 L 118,199 L 118,197 L 117,196 L 117,195 L 115,193 L 115,192 L 113,190 L 112,190 L 111,189 Z" fill="black" /><path d="M 88,140 L 87,141 L 86,141 L 85,142 L 84,142 L 82,144 L 82,146 L 81,147 L 81,148 L 80,149 L 80,156 L 81,157 L 81,158 L 82,159 L 82,160 L 83,161 L 84,161 L 87,164 L 92,164 L 93,165 L 94,164 L 97,164 L 98,163 L 100,163 L 103,160 L 103,159 L 105,157 L 105,148 L 103,146 L 103,145 L 98,140 Z" fill="black" /><path d="M 212,83 L 212,84 L 208,88 L 208,89 L 207,90 L 206,90 L 206,93 L 202,97 L 202,98 L 200,100 L 200,101 L 198,103 L 198,104 L 196,106 L 196,107 L 195,108 L 195,109 L 194,110 L 194,111 L 192,113 L 192,115 L 191,116 L 191,118 L 192,119 L 233,119 L 233,115 L 231,113 L 231,112 L 230,112 L 229,111 L 229,110 L 228,109 L 228,108 L 227,107 L 227,106 L 226,105 L 226,104 L 225,103 L 225,102 L 224,102 L 223,101 L 223,98 L 221,96 L 221,95 L 220,94 L 220,92 L 217,89 L 217,87 L 215,85 L 215,84 L 214,83 Z" fill="black" /><path d="M 132,82 L 130,84 L 130,85 L 128,87 L 128,88 L 127,89 L 127,90 L 125,92 L 125,93 L 124,94 L 124,96 L 122,98 L 122,99 L 120,101 L 120,103 L 119,104 L 118,104 L 116,106 L 116,109 L 115,110 L 115,111 L 114,112 L 114,113 L 112,115 L 112,117 L 114,119 L 119,119 L 120,118 L 121,119 L 126,119 L 127,118 L 128,119 L 140,119 L 141,118 L 145,118 L 146,119 L 152,119 L 153,118 L 153,115 L 152,114 L 151,114 L 150,113 L 150,112 L 149,111 L 149,110 L 148,109 L 148,108 L 147,107 L 147,106 L 146,105 L 146,104 L 145,103 L 145,102 L 143,100 L 143,98 L 141,96 L 141,95 L 140,94 L 140,93 L 139,92 L 139,90 L 137,88 L 137,86 L 135,84 L 135,83 L 134,82 Z" fill="black" /><path d="M 48,80 L 46,82 L 46,83 L 45,84 L 45,85 L 44,86 L 44,87 L 42,89 L 42,90 L 40,92 L 40,93 L 39,94 L 39,95 L 36,98 L 36,100 L 34,102 L 34,103 L 32,105 L 32,107 L 31,108 L 30,108 L 30,110 L 28,112 L 28,113 L 27,114 L 27,115 L 26,116 L 27,117 L 30,117 L 32,119 L 38,119 L 39,118 L 49,118 L 50,119 L 51,118 L 68,118 L 69,117 L 69,112 L 68,112 L 67,111 L 67,108 L 65,106 L 65,105 L 63,103 L 63,102 L 62,101 L 62,100 L 61,99 L 61,98 L 60,97 L 60,96 L 59,95 L 59,94 L 58,94 L 57,93 L 57,92 L 56,91 L 56,90 L 55,89 L 55,86 L 54,86 L 53,85 L 53,83 L 52,82 L 52,81 L 51,80 Z" fill="black" /><path d="M 174,74 L 173,75 L 172,75 L 171,76 L 170,76 L 168,78 L 168,79 L 167,80 L 166,80 L 166,81 L 165,82 L 165,83 L 164,84 L 164,90 L 165,91 L 165,92 L 166,93 L 166,95 L 170,99 L 172,99 L 173,100 L 179,100 L 180,99 L 182,99 L 184,97 L 186,97 L 188,95 L 188,94 L 189,93 L 189,89 L 190,88 L 190,86 L 189,85 L 189,82 L 187,80 L 187,79 L 186,78 L 185,78 L 181,74 L 179,74 L 178,75 L 177,75 L 176,74 Z" fill="black" /><path d="M 96,67 L 95,68 L 90,68 L 89,69 L 88,69 L 87,70 L 86,70 L 84,72 L 84,74 L 83,75 L 83,76 L 82,77 L 82,84 L 84,86 L 84,87 L 88,91 L 89,91 L 90,92 L 92,92 L 93,93 L 97,93 L 99,91 L 101,91 L 102,90 L 103,90 L 104,89 L 104,88 L 105,87 L 105,86 L 107,84 L 107,78 L 106,77 L 106,73 L 103,70 L 101,70 L 99,68 L 98,68 L 97,67 Z" fill="black" /><path d="M 91,14 L 89,16 L 88,16 L 84,20 L 84,21 L 83,22 L 83,25 L 82,26 L 82,27 L 83,28 L 83,30 L 84,31 L 84,33 L 86,35 L 86,36 L 87,36 L 88,37 L 89,37 L 91,39 L 99,39 L 101,37 L 103,37 L 107,33 L 107,21 L 103,17 L 103,16 L 102,16 L 100,14 Z" fill="black" /></svg>