<?xml version='1.0' encoding='utf-8'?>
<svg width="257" height="219" xmlns="http://www.w3.org/2000/svg" viewBox="0 0 257 219"><rect width="257" height="219" fill="white" /><path d="M 130,150 L 128,152 L 127,152 L 123,156 L 123,160 L 122,161 L 122,165 L 123,166 L 123,167 L 124,168 L 124,169 L 129,174 L 130,174 L 131,175 L 138,175 L 139,174 L 140,174 L 141,173 L 142,173 L 146,169 L 146,167 L 147,166 L 147,158 L 146,157 L 146,156 L 142,152 L 141,152 L 140,151 L 139,151 L 138,150 Z" fill="black" /><path d="M 34,99 L 33,100 L 33,101 L 32,102 L 32,103 L 31,104 L 31,105 L 29,107 L 29,108 L 27,110 L 27,111 L 26,112 L 25,112 L 25,113 L 23,115 L 23,117 L 21,119 L 21,120 L 19,122 L 19,123 L 17,125 L 17,126 L 14,129 L 14,131 L 16,133 L 52,133 L 53,132 L 53,125 L 52,124 L 52,123 L 50,121 L 50,120 L 49,120 L 48,119 L 48,116 L 46,114 L 46,113 L 45,112 L 45,110 L 44,109 L 44,108 L 41,105 L 41,104 L 36,99 Z" fill="black" /><path d="M 221,98 L 219,100 L 219,103 L 217,105 L 217,107 L 216,108 L 216,109 L 215,110 L 215,111 L 213,113 L 213,115 L 212,116 L 211,116 L 211,118 L 209,120 L 209,121 L 208,122 L 207,122 L 207,123 L 205,125 L 205,127 L 204,128 L 204,129 L 202,131 L 202,132 L 204,134 L 220,134 L 221,135 L 222,134 L 233,134 L 234,135 L 236,135 L 237,134 L 240,134 L 241,133 L 245,133 L 245,131 L 244,130 L 244,128 L 243,128 L 242,127 L 242,124 L 240,122 L 240,121 L 238,119 L 238,118 L 234,114 L 234,112 L 233,111 L 233,110 L 228,105 L 228,104 L 227,103 L 227,102 L 226,101 L 226,100 L 225,100 L 223,98 Z" fill="black" /><path d="M 133,60 L 133,62 L 132,63 L 132,64 L 131,65 L 131,66 L 129,68 L 129,69 L 127,71 L 127,73 L 126,74 L 125,74 L 125,76 L 123,78 L 123,79 L 121,81 L 121,83 L 120,84 L 119,84 L 119,85 L 118,86 L 118,87 L 117,88 L 117,90 L 115,92 L 115,97 L 116,98 L 124,98 L 125,97 L 126,97 L 127,98 L 153,98 L 154,99 L 156,99 L 156,93 L 155,92 L 155,91 L 154,90 L 154,88 L 153,87 L 153,86 L 152,85 L 152,84 L 150,82 L 150,80 L 148,78 L 148,77 L 146,75 L 146,74 L 145,74 L 144,73 L 144,72 L 142,70 L 142,68 L 140,66 L 140,64 L 139,64 L 136,61 L 136,60 Z" fill="black" /><path d="M 233,29 L 232,30 L 229,30 L 225,34 L 225,35 L 224,36 L 224,42 L 225,43 L 225,48 L 230,53 L 234,53 L 235,54 L 237,54 L 238,53 L 240,53 L 241,52 L 242,52 L 243,51 L 244,51 L 248,47 L 248,38 L 247,37 L 247,35 L 246,34 L 246,33 L 245,32 L 244,32 L 241,29 Z" fill="black" /><path d="M 33,29 L 32,30 L 27,30 L 23,34 L 23,35 L 21,37 L 21,47 L 27,53 L 29,53 L 31,55 L 36,55 L 38,53 L 40,53 L 41,52 L 42,52 L 43,51 L 43,50 L 44,49 L 44,48 L 45,47 L 45,45 L 46,44 L 46,38 L 44,36 L 44,34 L 42,32 L 41,32 L 40,31 L 39,31 L 38,30 L 36,30 L 35,29 Z" fill="black" /></svg>