<?xml version='1.0' encoding='utf-8'?>
<svg width="260" height="219" xmlns="http://www.w3.org/2000/svg" viewBox="0 0 260 219"><rect width="260" height="219" fill="white" /><path d="M 228,194 L 226,196 L 224,196 L 223,197 L 223,198 L 221,200 L 221,202 L 220,203 L 220,206 L 219,207 L 219,209 L 220,210 L 220,211 L 221,212 L 221,213 L 225,217 L 227,217 L 228,218 L 237,218 L 238,217 L 239,217 L 241,215 L 242,215 L 244,213 L 244,201 L 239,196 L 237,196 L 236,195 L 235,195 L 234,194 Z" fill="black" /><path d="M 88,167 L 86,169 L 86,170 L 85,171 L 85,173 L 82,176 L 82,177 L 81,178 L 81,179 L 80,180 L 80,181 L 79,182 L 79,183 L 75,187 L 75,188 L 74,189 L 74,190 L 73,191 L 73,192 L 69,196 L 69,197 L 68,198 L 68,199 L 67,200 L 67,204 L 70,204 L 71,203 L 77,203 L 78,204 L 80,204 L 81,203 L 82,203 L 83,204 L 85,204 L 86,203 L 91,203 L 92,204 L 102,204 L 103,205 L 109,205 L 109,201 L 108,200 L 108,198 L 106,196 L 106,195 L 104,193 L 104,190 L 103,190 L 102,189 L 102,188 L 100,186 L 100,185 L 99,184 L 99,182 L 98,181 L 98,180 L 97,180 L 96,179 L 96,177 L 94,175 L 94,174 L 90,170 L 90,168 L 89,167 Z" fill="black" /><path d="M 22,138 L 20,140 L 18,140 L 17,141 L 16,141 L 14,143 L 14,144 L 13,145 L 13,156 L 18,161 L 21,161 L 23,163 L 27,163 L 29,161 L 32,161 L 34,159 L 34,158 L 36,156 L 36,154 L 37,153 L 37,149 L 36,148 L 36,144 L 34,142 L 34,141 L 33,141 L 32,140 L 31,140 L 30,139 L 29,139 L 28,138 Z" fill="black" /><path d="M 96,117 L 95,118 L 95,119 L 93,121 L 93,124 L 91,126 L 91,127 L 90,128 L 89,128 L 89,130 L 87,132 L 87,133 L 86,134 L 86,135 L 85,136 L 85,137 L 83,139 L 83,140 L 81,142 L 81,143 L 79,145 L 79,146 L 77,148 L 77,152 L 78,153 L 79,152 L 80,152 L 81,151 L 90,151 L 91,152 L 92,152 L 93,151 L 98,151 L 99,152 L 107,152 L 108,151 L 109,152 L 115,152 L 116,151 L 117,151 L 117,149 L 115,147 L 115,146 L 114,145 L 114,144 L 112,142 L 112,141 L 110,139 L 110,138 L 109,137 L 109,136 L 108,135 L 108,134 L 106,132 L 106,131 L 104,129 L 104,127 L 103,126 L 103,125 L 102,124 L 102,123 L 100,121 L 100,120 L 98,118 L 98,117 Z" fill="black" /><path d="M 107,67 L 107,68 L 105,70 L 105,72 L 103,74 L 103,75 L 102,76 L 101,76 L 101,77 L 99,79 L 99,80 L 97,82 L 97,84 L 95,86 L 95,87 L 93,89 L 93,91 L 92,92 L 92,93 L 91,94 L 91,95 L 90,96 L 89,96 L 89,101 L 104,101 L 105,102 L 121,102 L 122,101 L 126,101 L 127,102 L 128,101 L 128,99 L 126,97 L 126,96 L 124,94 L 124,93 L 122,91 L 122,90 L 120,88 L 120,87 L 119,86 L 119,85 L 118,84 L 118,83 L 116,81 L 116,80 L 115,80 L 114,79 L 114,77 L 112,75 L 112,74 L 108,70 L 108,67 Z" fill="black" /><path d="M 200,16 L 199,17 L 197,17 L 196,18 L 195,18 L 193,20 L 193,21 L 191,23 L 191,27 L 190,28 L 190,31 L 191,32 L 191,35 L 195,39 L 196,39 L 197,40 L 198,40 L 199,41 L 206,41 L 207,40 L 208,40 L 209,39 L 211,39 L 211,38 L 213,36 L 213,35 L 214,34 L 214,29 L 215,28 L 215,26 L 214,25 L 214,22 L 213,22 L 209,18 L 207,18 L 206,17 L 205,17 L 204,16 Z" fill="black" /><path d="M 103,12 L 99,16 L 99,19 L 98,20 L 97,20 L 97,22 L 95,24 L 95,26 L 93,28 L 93,30 L 91,32 L 91,33 L 89,35 L 89,36 L 87,38 L 87,39 L 85,41 L 85,42 L 83,44 L 83,47 L 124,47 L 125,46 L 125,45 L 124,44 L 123,44 L 122,43 L 122,42 L 121,41 L 121,40 L 120,39 L 120,38 L 119,38 L 118,37 L 118,34 L 117,34 L 116,33 L 116,32 L 114,30 L 114,28 L 112,26 L 112,25 L 110,23 L 110,22 L 108,20 L 108,18 L 104,14 L 104,13 Z" fill="black" /></svg>