<?xml version='1.0' encoding='utf-8'?>
<svg width="257" height="218" xmlns="http://www.w3.org/2000/svg" viewBox="0 0 257 218"><rect width="257" height="218" fill="white" /><path d="M 166,179 L 165,180 L 164,180 L 163,181 L 161,181 L 158,184 L 158,186 L 157,187 L 157,188 L 156,189 L 156,194 L 158,196 L 158,198 L 162,202 L 167,202 L 168,203 L 173,203 L 174,202 L 177,202 L 179,200 L 179,199 L 181,197 L 181,187 L 179,185 L 179,183 L 177,181 L 176,181 L 174,179 Z" fill="black" /><path d="M 62,173 L 60,175 L 59,175 L 54,180 L 54,191 L 56,193 L 56,194 L 58,196 L 59,196 L 60,197 L 61,197 L 62,198 L 70,198 L 71,197 L 72,197 L 74,195 L 75,195 L 76,194 L 77,194 L 77,192 L 78,191 L 78,190 L 79,189 L 79,183 L 78,182 L 78,181 L 77,180 L 77,179 L 76,178 L 76,177 L 75,176 L 74,176 L 73,175 L 71,175 L 69,173 Z" fill="black" /><path d="M 114,170 L 114,171 L 113,172 L 113,173 L 111,175 L 111,176 L 108,179 L 108,180 L 106,182 L 106,183 L 104,185 L 104,186 L 101,189 L 101,190 L 100,191 L 100,193 L 98,195 L 98,196 L 97,197 L 97,198 L 96,199 L 96,200 L 95,201 L 94,201 L 92,203 L 92,207 L 93,208 L 111,208 L 112,207 L 115,207 L 116,208 L 121,208 L 122,207 L 128,207 L 129,208 L 133,208 L 133,204 L 131,202 L 131,201 L 130,200 L 130,199 L 129,198 L 129,197 L 128,196 L 128,195 L 127,194 L 127,193 L 125,191 L 125,190 L 124,189 L 124,188 L 123,187 L 123,186 L 121,184 L 121,183 L 119,181 L 119,179 L 118,178 L 118,177 L 117,176 L 117,175 L 116,174 L 116,172 L 115,171 L 115,170 Z" fill="black" /><path d="M 150,112 L 148,114 L 148,115 L 146,117 L 146,118 L 145,119 L 144,119 L 144,121 L 142,123 L 142,124 L 141,125 L 141,126 L 140,127 L 140,128 L 139,129 L 139,130 L 136,133 L 136,135 L 134,137 L 134,138 L 133,139 L 133,140 L 132,141 L 132,142 L 130,144 L 130,149 L 152,149 L 153,150 L 155,150 L 156,149 L 170,149 L 171,148 L 171,145 L 170,144 L 170,143 L 169,142 L 169,141 L 168,141 L 167,140 L 167,137 L 166,136 L 166,135 L 163,132 L 163,130 L 162,129 L 162,128 L 161,127 L 161,125 L 158,122 L 158,121 L 157,120 L 157,118 L 155,116 L 155,115 L 152,112 Z" fill="black" /><path d="M 99,75 L 98,76 L 98,77 L 96,79 L 96,80 L 94,82 L 94,84 L 93,85 L 92,85 L 92,86 L 90,88 L 90,90 L 88,92 L 88,93 L 86,95 L 86,96 L 84,98 L 84,99 L 83,100 L 83,101 L 82,102 L 82,103 L 80,105 L 80,106 L 77,109 L 79,111 L 81,111 L 82,110 L 119,110 L 120,109 L 117,106 L 117,103 L 116,103 L 115,102 L 115,101 L 113,99 L 113,98 L 111,96 L 111,93 L 110,93 L 109,92 L 109,91 L 108,90 L 108,89 L 107,88 L 107,87 L 106,87 L 105,86 L 105,83 L 104,83 L 103,82 L 103,80 L 102,79 L 102,78 L 101,77 L 101,76 L 100,75 Z" fill="black" /><path d="M 147,64 L 146,65 L 144,65 L 142,67 L 141,67 L 138,70 L 138,72 L 137,73 L 137,74 L 136,75 L 136,76 L 137,77 L 137,78 L 136,79 L 137,80 L 137,81 L 138,82 L 138,83 L 140,85 L 140,86 L 141,86 L 143,88 L 145,88 L 146,89 L 153,89 L 154,88 L 155,88 L 156,87 L 157,87 L 161,83 L 161,81 L 162,80 L 162,73 L 161,72 L 161,70 L 156,65 L 154,65 L 153,64 Z" fill="black" /><path d="M 52,23 L 51,24 L 48,24 L 47,25 L 45,25 L 40,30 L 40,34 L 39,35 L 39,38 L 40,39 L 40,42 L 44,46 L 45,46 L 47,48 L 56,48 L 58,46 L 59,46 L 61,44 L 61,42 L 64,39 L 64,33 L 63,32 L 63,30 L 61,28 L 61,27 L 60,27 L 57,24 L 55,24 L 54,23 Z" fill="black" /><path d="M 118,11 L 118,12 L 116,14 L 116,16 L 114,18 L 114,20 L 112,22 L 112,23 L 110,25 L 110,27 L 109,28 L 109,29 L 108,30 L 108,31 L 107,32 L 107,33 L 106,34 L 106,37 L 104,39 L 104,40 L 102,42 L 102,43 L 100,45 L 100,48 L 101,49 L 111,49 L 112,48 L 121,48 L 122,49 L 128,49 L 129,48 L 130,48 L 131,49 L 141,49 L 142,50 L 143,49 L 143,47 L 141,45 L 141,44 L 140,43 L 140,42 L 139,41 L 139,40 L 137,38 L 137,37 L 136,36 L 136,35 L 135,34 L 135,33 L 133,31 L 133,30 L 131,28 L 131,26 L 129,24 L 129,23 L 128,22 L 128,21 L 127,20 L 127,19 L 126,19 L 125,18 L 125,17 L 124,16 L 124,15 L 123,14 L 123,13 L 122,13 L 120,11 Z" fill="black" /></svg>