<?xml version='1.0' encoding='utf-8'?>
<svg width="258" height="220" xmlns="http://www.w3.org/2000/svg" viewBox="0 0 258 220"><rect width="258" height="220" fill="white" /><path d="M 60,183 L 59,184 L 57,184 L 55,186 L 54,186 L 52,188 L 52,189 L 50,191 L 50,201 L 51,202 L 51,203 L 52,204 L 52,205 L 53,205 L 55,207 L 56,207 L 57,208 L 59,208 L 60,209 L 64,209 L 66,207 L 70,207 L 71,206 L 71,205 L 73,203 L 73,202 L 74,201 L 74,200 L 75,199 L 75,192 L 73,190 L 73,189 L 71,187 L 71,186 L 70,186 L 69,185 L 68,185 L 67,184 L 66,184 L 65,183 Z" fill="black" /><path d="M 218,173 L 217,174 L 212,174 L 210,176 L 210,177 L 209,178 L 209,179 L 208,180 L 208,183 L 207,184 L 207,188 L 208,189 L 208,191 L 210,193 L 210,195 L 212,195 L 214,197 L 217,197 L 218,198 L 222,198 L 223,197 L 227,197 L 232,192 L 232,188 L 233,187 L 233,183 L 232,182 L 232,180 L 231,179 L 231,178 L 229,176 L 228,176 L 226,174 L 224,174 L 223,173 Z" fill="black" /><path d="M 114,136 L 110,140 L 109,140 L 109,141 L 108,142 L 108,143 L 107,144 L 107,146 L 106,147 L 106,148 L 107,149 L 107,153 L 108,154 L 108,156 L 111,159 L 113,159 L 114,160 L 114,161 L 122,161 L 124,159 L 127,159 L 129,157 L 129,156 L 130,155 L 131,155 L 131,154 L 132,153 L 132,152 L 133,151 L 133,148 L 132,147 L 132,145 L 131,144 L 131,141 L 130,140 L 129,140 L 125,136 Z" fill="black" /><path d="M 38,108 L 37,109 L 37,110 L 36,111 L 36,113 L 33,116 L 33,117 L 32,118 L 32,119 L 31,120 L 31,121 L 30,122 L 30,123 L 28,125 L 28,127 L 24,131 L 24,133 L 22,135 L 22,136 L 21,137 L 21,138 L 20,139 L 20,140 L 16,144 L 16,146 L 17,146 L 19,148 L 39,148 L 40,149 L 41,149 L 42,148 L 48,148 L 49,149 L 50,148 L 61,148 L 61,143 L 59,141 L 59,140 L 58,139 L 58,138 L 57,137 L 57,136 L 55,134 L 55,133 L 52,130 L 52,128 L 51,127 L 51,126 L 49,124 L 49,123 L 47,121 L 47,118 L 46,117 L 46,116 L 44,114 L 44,113 L 43,112 L 42,112 L 41,111 L 41,110 L 40,109 L 40,108 Z" fill="black" /><path d="M 176,104 L 175,105 L 175,107 L 174,108 L 174,110 L 172,112 L 172,113 L 171,114 L 171,115 L 170,116 L 170,117 L 168,119 L 168,121 L 166,123 L 166,125 L 163,128 L 163,129 L 162,130 L 162,132 L 160,134 L 160,135 L 158,137 L 158,138 L 156,140 L 156,144 L 194,144 L 195,143 L 197,143 L 198,144 L 199,144 L 200,145 L 201,144 L 201,140 L 200,139 L 200,138 L 199,138 L 198,137 L 198,136 L 197,135 L 197,134 L 195,132 L 195,130 L 191,126 L 191,124 L 189,122 L 189,121 L 186,118 L 186,117 L 185,116 L 185,114 L 182,111 L 182,110 L 181,109 L 181,108 L 177,104 Z" fill="black" /><path d="M 114,78 L 112,80 L 112,82 L 110,84 L 110,85 L 109,86 L 109,87 L 108,88 L 108,89 L 106,91 L 106,93 L 105,94 L 104,94 L 104,96 L 102,98 L 102,99 L 100,101 L 100,103 L 98,105 L 98,106 L 96,108 L 96,110 L 95,111 L 95,112 L 93,114 L 93,116 L 94,117 L 110,117 L 111,116 L 115,116 L 116,115 L 121,115 L 122,116 L 135,116 L 136,115 L 137,115 L 138,114 L 139,114 L 139,112 L 137,110 L 137,109 L 135,107 L 135,106 L 134,106 L 133,105 L 133,104 L 132,103 L 132,102 L 131,101 L 131,100 L 130,99 L 130,98 L 129,97 L 129,96 L 127,94 L 127,93 L 125,91 L 125,90 L 123,88 L 123,87 L 121,85 L 121,84 L 120,83 L 120,82 L 119,81 L 119,80 L 118,80 L 116,78 Z" fill="black" /><path d="M 223,73 L 222,74 L 222,77 L 221,78 L 220,78 L 220,80 L 218,82 L 218,83 L 217,84 L 217,85 L 216,86 L 216,88 L 214,90 L 214,91 L 213,92 L 213,93 L 212,94 L 212,95 L 210,97 L 210,99 L 209,100 L 208,100 L 208,102 L 206,104 L 206,106 L 204,108 L 204,109 L 203,110 L 204,111 L 226,111 L 227,112 L 229,112 L 230,111 L 231,111 L 232,112 L 233,111 L 238,111 L 239,112 L 241,112 L 242,111 L 244,111 L 245,112 L 247,112 L 248,111 L 249,111 L 249,109 L 247,107 L 247,106 L 244,103 L 244,102 L 242,100 L 242,99 L 241,98 L 241,96 L 240,96 L 239,95 L 239,94 L 237,92 L 237,91 L 235,89 L 235,88 L 233,86 L 233,85 L 231,83 L 231,82 L 230,81 L 230,80 L 229,79 L 229,78 L 228,78 L 227,77 L 227,76 L 226,75 L 226,74 L 225,73 Z" fill="black" /><path d="M 62,52 L 61,53 L 60,53 L 59,54 L 58,54 L 54,58 L 54,60 L 53,61 L 53,67 L 54,68 L 54,71 L 56,73 L 56,74 L 58,76 L 60,76 L 61,77 L 63,77 L 64,78 L 70,78 L 71,77 L 73,77 L 75,75 L 75,74 L 76,73 L 76,72 L 79,69 L 79,62 L 78,61 L 78,60 L 77,59 L 77,57 L 75,55 L 74,55 L 72,53 L 71,53 L 70,52 Z" fill="black" /><path d="M 176,32 L 175,33 L 174,33 L 173,34 L 172,34 L 168,38 L 168,41 L 167,42 L 167,43 L 166,44 L 166,46 L 167,47 L 167,48 L 168,49 L 168,52 L 171,55 L 172,55 L 174,57 L 177,57 L 178,58 L 183,58 L 184,57 L 185,57 L 186,56 L 187,56 L 192,51 L 192,50 L 191,49 L 191,48 L 192,47 L 192,40 L 189,37 L 189,36 L 186,33 L 183,33 L 182,32 Z" fill="black" /></svg>