<?xml version='1.0' encoding='utf-8'?>
<svg width="259" height="216" xmlns="http://www.w3.org/2000/svg" viewBox="0 0 259 216"><rect width="259" height="216" fill="white" /><path d="M 75,188 L 74,189 L 73,189 L 72,190 L 71,190 L 68,193 L 68,194 L 67,195 L 67,198 L 66,199 L 66,205 L 67,206 L 67,207 L 73,213 L 78,213 L 79,214 L 80,214 L 81,213 L 84,213 L 87,210 L 88,210 L 90,208 L 90,204 L 91,203 L 91,197 L 90,196 L 90,195 L 88,193 L 88,192 L 86,190 L 85,190 L 84,189 L 83,189 L 82,188 Z" fill="black" /><path d="M 129,166 L 127,168 L 127,169 L 125,171 L 125,172 L 124,173 L 124,174 L 121,177 L 121,179 L 119,181 L 119,182 L 117,184 L 117,186 L 115,188 L 115,189 L 114,190 L 113,190 L 113,193 L 110,196 L 109,196 L 108,197 L 108,201 L 109,201 L 110,202 L 122,202 L 123,203 L 125,203 L 126,202 L 128,202 L 129,203 L 130,202 L 139,202 L 140,201 L 146,201 L 147,202 L 148,202 L 149,201 L 149,198 L 148,197 L 148,194 L 146,192 L 146,189 L 143,186 L 143,184 L 140,181 L 140,178 L 138,176 L 138,175 L 136,173 L 136,172 L 134,170 L 134,168 L 132,166 Z" fill="black" /><path d="M 185,93 L 184,94 L 181,94 L 180,95 L 179,95 L 175,99 L 175,101 L 174,102 L 174,103 L 173,104 L 173,110 L 175,112 L 175,113 L 176,114 L 176,115 L 177,115 L 181,119 L 191,119 L 193,117 L 194,117 L 198,113 L 198,110 L 199,109 L 199,106 L 200,105 L 200,103 L 199,102 L 199,100 L 198,100 L 194,96 L 193,96 L 191,94 L 189,94 L 188,93 Z" fill="black" /><path d="M 122,86 L 121,87 L 121,88 L 119,90 L 119,91 L 117,93 L 117,94 L 116,95 L 116,96 L 115,97 L 115,99 L 113,101 L 113,103 L 111,105 L 111,107 L 110,108 L 109,108 L 109,110 L 107,112 L 107,113 L 106,114 L 106,115 L 105,116 L 105,121 L 107,123 L 142,123 L 142,117 L 140,115 L 140,114 L 139,113 L 139,112 L 138,111 L 138,108 L 137,108 L 136,107 L 136,106 L 135,105 L 135,104 L 134,103 L 134,102 L 133,101 L 133,100 L 132,99 L 132,98 L 130,96 L 130,94 L 128,92 L 128,90 L 127,90 L 126,89 L 126,88 L 124,86 Z" fill="black" /><path d="M 29,54 L 28,55 L 27,55 L 26,56 L 25,56 L 23,58 L 23,60 L 21,62 L 21,71 L 23,73 L 23,74 L 25,76 L 26,76 L 29,79 L 38,79 L 40,77 L 41,77 L 44,74 L 44,73 L 46,71 L 46,62 L 44,60 L 44,58 L 42,56 L 41,56 L 40,55 L 39,55 L 38,54 Z" fill="black" /><path d="M 123,16 L 121,18 L 121,19 L 119,21 L 119,22 L 118,23 L 118,24 L 117,25 L 117,27 L 115,29 L 115,30 L 113,32 L 113,33 L 112,34 L 111,34 L 111,36 L 109,38 L 109,40 L 107,42 L 107,44 L 105,46 L 105,48 L 103,50 L 103,53 L 106,53 L 107,54 L 111,54 L 112,53 L 119,53 L 120,54 L 124,54 L 125,53 L 128,53 L 130,55 L 138,55 L 139,54 L 142,54 L 142,49 L 140,47 L 140,46 L 138,44 L 138,41 L 135,38 L 135,36 L 134,35 L 134,34 L 133,33 L 133,32 L 132,31 L 132,30 L 130,28 L 130,27 L 128,25 L 128,22 L 125,19 L 125,17 L 124,16 Z" fill="black" /><path d="M 228,2 L 227,3 L 226,3 L 225,4 L 223,4 L 219,8 L 219,9 L 218,10 L 218,11 L 217,12 L 217,18 L 219,20 L 219,23 L 220,23 L 224,27 L 228,27 L 229,28 L 230,27 L 234,27 L 235,26 L 236,26 L 239,23 L 240,23 L 242,21 L 242,17 L 243,16 L 243,14 L 242,13 L 242,9 L 238,5 L 237,5 L 236,4 L 235,4 L 233,2 Z" fill="black" /></svg>