<?xml version='1.0' encoding='utf-8'?>
<svg width="258" height="218" xmlns="http://www.w3.org/2000/svg" viewBox="0 0 258 218"><rect width="258" height="218" fill="white" /><path d="M 146,190 L 144,192 L 143,192 L 142,193 L 139,193 L 138,194 L 137,194 L 134,197 L 134,200 L 133,201 L 133,204 L 134,205 L 134,209 L 139,214 L 140,214 L 141,215 L 142,215 L 143,216 L 149,216 L 150,215 L 151,215 L 152,214 L 153,214 L 157,210 L 157,208 L 158,207 L 158,206 L 159,205 L 159,201 L 157,199 L 157,197 L 155,195 L 155,194 L 154,194 L 152,192 L 151,192 L 150,191 L 149,191 L 148,190 Z" fill="black" /><path d="M 194,164 L 192,166 L 192,167 L 190,169 L 190,171 L 189,172 L 189,173 L 186,176 L 186,179 L 184,181 L 183,181 L 182,182 L 182,185 L 181,186 L 181,187 L 180,188 L 180,189 L 178,191 L 178,193 L 176,195 L 176,200 L 212,200 L 213,199 L 215,199 L 216,198 L 215,197 L 215,196 L 214,196 L 213,195 L 213,193 L 211,191 L 211,188 L 207,184 L 207,182 L 206,181 L 206,180 L 205,179 L 205,178 L 203,176 L 203,174 L 202,173 L 202,172 L 201,171 L 201,170 L 199,168 L 199,167 L 198,166 L 198,165 L 197,164 Z" fill="black" /><path d="M 138,134 L 136,136 L 135,136 L 132,139 L 132,141 L 130,143 L 130,151 L 131,152 L 131,153 L 132,154 L 132,155 L 134,157 L 135,157 L 136,158 L 137,158 L 138,159 L 146,159 L 148,157 L 150,157 L 152,155 L 153,155 L 153,154 L 155,152 L 155,142 L 153,140 L 153,139 L 150,136 L 148,136 L 146,134 Z" fill="black" /><path d="M 35,123 L 34,124 L 32,124 L 26,130 L 26,141 L 27,142 L 27,143 L 31,147 L 35,147 L 36,148 L 41,148 L 42,147 L 44,147 L 46,145 L 47,145 L 51,141 L 51,132 L 50,131 L 50,130 L 49,129 L 49,128 L 47,126 L 46,126 L 44,124 L 43,124 L 42,123 Z" fill="black" /><path d="M 218,104 L 218,105 L 217,106 L 217,107 L 214,110 L 214,111 L 213,112 L 213,113 L 212,114 L 212,115 L 210,117 L 210,119 L 208,121 L 208,122 L 206,124 L 206,125 L 205,126 L 205,127 L 204,128 L 204,129 L 203,130 L 202,130 L 202,132 L 200,134 L 200,136 L 198,138 L 198,142 L 199,143 L 201,143 L 202,142 L 205,142 L 206,141 L 213,141 L 214,142 L 217,142 L 218,141 L 227,141 L 228,142 L 229,141 L 239,141 L 240,140 L 239,139 L 239,138 L 238,137 L 238,136 L 237,135 L 237,134 L 236,133 L 236,132 L 235,131 L 235,129 L 234,128 L 234,127 L 233,126 L 233,125 L 231,123 L 231,121 L 229,119 L 229,118 L 228,117 L 228,116 L 227,115 L 227,114 L 226,114 L 225,113 L 225,110 L 224,109 L 224,108 L 223,107 L 223,104 Z" fill="black" /><path d="M 85,90 L 83,92 L 81,92 L 79,94 L 78,94 L 76,96 L 76,97 L 75,98 L 75,100 L 74,101 L 74,107 L 76,109 L 76,111 L 80,115 L 83,115 L 84,116 L 91,116 L 92,115 L 93,115 L 94,114 L 95,114 L 96,113 L 97,113 L 97,112 L 98,111 L 98,110 L 99,109 L 99,108 L 100,107 L 100,106 L 101,105 L 101,101 L 99,99 L 99,98 L 93,92 L 90,92 L 89,91 L 88,91 L 87,90 Z" fill="black" /><path d="M 178,60 L 176,62 L 176,65 L 175,66 L 174,66 L 174,67 L 173,68 L 173,69 L 172,70 L 172,71 L 171,72 L 170,72 L 170,73 L 169,74 L 169,75 L 168,76 L 168,77 L 167,78 L 167,79 L 166,80 L 166,81 L 164,83 L 164,85 L 162,87 L 162,88 L 161,89 L 161,90 L 160,91 L 160,92 L 157,95 L 159,97 L 179,97 L 180,96 L 183,96 L 184,97 L 195,97 L 197,95 L 197,93 L 196,92 L 196,90 L 195,89 L 195,87 L 193,85 L 193,84 L 192,84 L 191,83 L 191,80 L 190,79 L 190,78 L 189,77 L 189,76 L 188,76 L 187,75 L 187,72 L 186,71 L 186,70 L 184,68 L 184,66 L 183,65 L 183,63 L 182,62 L 182,61 L 181,60 Z" fill="black" /><path d="M 116,41 L 115,42 L 112,42 L 108,46 L 108,48 L 107,49 L 107,50 L 106,51 L 106,55 L 107,56 L 107,58 L 108,59 L 108,60 L 109,61 L 110,61 L 114,65 L 119,65 L 120,66 L 121,65 L 124,65 L 126,63 L 127,63 L 131,59 L 131,56 L 132,55 L 132,51 L 131,50 L 131,47 L 128,44 L 127,44 L 125,42 L 124,42 L 123,41 Z" fill="black" /><path d="M 46,28 L 45,29 L 44,29 L 41,32 L 40,32 L 40,34 L 38,36 L 38,44 L 40,46 L 40,48 L 43,51 L 44,51 L 46,53 L 55,53 L 56,52 L 57,52 L 58,51 L 59,51 L 62,48 L 62,47 L 63,46 L 63,42 L 64,41 L 64,38 L 63,37 L 63,35 L 61,33 L 61,32 L 60,31 L 58,31 L 56,29 L 55,29 L 54,28 Z" fill="black" /><path d="M 215,9 L 214,10 L 214,11 L 213,12 L 213,13 L 212,14 L 212,16 L 210,18 L 210,19 L 207,22 L 207,23 L 206,24 L 206,25 L 204,27 L 204,28 L 202,30 L 202,32 L 200,34 L 200,35 L 199,36 L 199,37 L 198,38 L 198,39 L 196,41 L 196,45 L 235,45 L 236,44 L 236,40 L 235,39 L 235,38 L 232,35 L 232,34 L 231,33 L 231,32 L 230,31 L 230,30 L 229,29 L 229,27 L 227,25 L 227,24 L 225,22 L 225,20 L 224,19 L 224,18 L 222,16 L 222,15 L 221,14 L 221,12 L 218,9 Z" fill="black" /></svg>