<?xml version='1.0' encoding='utf-8'?>
<svg width="258" height="218" xmlns="http://www.w3.org/2000/svg" viewBox="0 0 258 218"><rect width="258" height="218" fill="white" /><path d="M 36,172 L 35,173 L 34,173 L 32,175 L 32,176 L 30,178 L 30,180 L 29,181 L 28,181 L 28,184 L 27,185 L 26,185 L 26,188 L 22,192 L 22,194 L 19,197 L 19,198 L 17,200 L 17,201 L 16,202 L 16,204 L 15,205 L 15,207 L 13,209 L 14,210 L 60,210 L 60,208 L 59,207 L 59,206 L 58,205 L 58,204 L 57,203 L 57,202 L 55,200 L 55,198 L 53,196 L 53,194 L 51,192 L 51,191 L 49,189 L 49,187 L 45,183 L 45,181 L 42,178 L 42,177 L 41,176 L 41,175 L 40,174 L 40,173 L 39,172 Z" fill="black" /><path d="M 90,155 L 89,156 L 88,156 L 87,157 L 84,157 L 82,159 L 82,160 L 80,162 L 80,164 L 79,165 L 79,167 L 78,168 L 78,170 L 80,172 L 80,174 L 81,175 L 81,176 L 83,178 L 85,178 L 87,180 L 95,180 L 96,179 L 98,179 L 100,177 L 100,176 L 101,175 L 101,174 L 103,172 L 103,164 L 101,162 L 101,160 L 100,159 L 99,159 L 96,156 L 94,156 L 93,155 Z" fill="black" /><path d="M 145,123 L 144,124 L 143,124 L 142,125 L 141,125 L 140,126 L 139,126 L 135,130 L 135,139 L 136,140 L 136,141 L 137,142 L 137,143 L 138,144 L 138,145 L 139,146 L 141,146 L 143,148 L 150,148 L 152,146 L 154,146 L 157,143 L 157,142 L 159,140 L 159,131 L 157,129 L 157,128 L 154,125 L 153,125 L 152,124 L 151,124 L 150,123 Z" fill="black" /><path d="M 34,104 L 32,106 L 32,107 L 30,109 L 30,110 L 29,111 L 29,112 L 26,115 L 26,116 L 25,117 L 25,118 L 24,119 L 24,120 L 22,122 L 22,124 L 21,125 L 20,125 L 20,128 L 18,130 L 18,132 L 17,133 L 16,133 L 16,134 L 15,135 L 15,136 L 14,137 L 14,140 L 13,141 L 13,143 L 14,144 L 53,144 L 54,143 L 54,142 L 55,141 L 55,140 L 53,138 L 53,136 L 51,134 L 51,133 L 50,132 L 50,131 L 49,130 L 49,129 L 47,127 L 47,126 L 45,124 L 45,123 L 44,122 L 44,120 L 43,119 L 43,118 L 41,116 L 41,115 L 40,114 L 40,113 L 39,112 L 39,111 L 37,109 L 37,108 L 36,107 L 36,105 L 35,105 Z" fill="black" /><path d="M 198,93 L 197,94 L 196,94 L 195,95 L 194,95 L 193,96 L 192,96 L 191,97 L 190,97 L 190,98 L 189,99 L 189,100 L 188,101 L 188,102 L 187,103 L 187,109 L 188,110 L 188,111 L 190,113 L 190,114 L 192,116 L 193,116 L 194,117 L 195,117 L 196,118 L 197,118 L 198,119 L 201,119 L 202,118 L 205,118 L 206,117 L 208,117 L 209,116 L 209,113 L 211,111 L 211,109 L 213,107 L 213,104 L 211,102 L 211,99 L 207,95 L 206,95 L 205,94 L 204,94 L 203,93 Z" fill="black" /><path d="M 243,67 L 242,68 L 241,68 L 240,69 L 238,69 L 236,71 L 235,71 L 234,72 L 234,73 L 232,75 L 232,76 L 231,77 L 231,82 L 232,83 L 232,85 L 234,87 L 234,88 L 236,90 L 237,90 L 239,92 L 248,92 L 250,90 L 251,90 L 254,87 L 254,86 L 255,85 L 255,84 L 256,83 L 256,80 L 255,79 L 255,75 L 253,73 L 253,72 L 251,70 L 250,70 L 249,69 L 248,69 L 247,68 L 246,68 L 245,67 Z" fill="black" /><path d="M 81,64 L 76,69 L 76,70 L 74,72 L 74,74 L 73,75 L 73,76 L 70,79 L 70,80 L 68,82 L 68,84 L 67,85 L 67,86 L 66,87 L 66,88 L 65,89 L 65,90 L 64,91 L 64,92 L 62,94 L 62,96 L 61,97 L 60,97 L 60,98 L 59,99 L 61,101 L 73,101 L 74,102 L 75,101 L 81,101 L 82,102 L 85,102 L 86,101 L 98,101 L 99,102 L 101,102 L 101,99 L 100,98 L 100,97 L 99,96 L 99,94 L 97,92 L 97,91 L 96,90 L 96,89 L 95,88 L 95,87 L 93,85 L 93,84 L 91,82 L 91,80 L 89,78 L 89,77 L 88,76 L 88,75 L 87,74 L 87,73 L 86,72 L 86,71 L 83,68 L 83,66 Z" fill="black" /><path d="M 34,16 L 32,18 L 32,19 L 30,21 L 29,21 L 26,24 L 26,26 L 24,28 L 24,30 L 20,34 L 20,35 L 18,37 L 18,39 L 17,40 L 17,41 L 16,42 L 16,46 L 15,47 L 14,47 L 14,48 L 12,50 L 12,52 L 19,52 L 20,51 L 21,52 L 24,52 L 25,51 L 28,51 L 29,52 L 34,52 L 35,51 L 36,51 L 37,52 L 43,52 L 44,51 L 46,51 L 47,52 L 53,52 L 55,50 L 55,48 L 53,46 L 53,44 L 51,42 L 51,40 L 49,38 L 49,37 L 47,35 L 47,34 L 46,33 L 46,32 L 45,31 L 45,30 L 43,28 L 43,27 L 42,26 L 42,25 L 41,24 L 41,23 L 40,23 L 39,22 L 39,20 L 37,18 L 37,17 L 36,16 Z" fill="black" /></svg>