<?xml version="1.0" encoding="utf-8" ?>
<svg baseProfile="full" height="221" version="1.1" width="257" xmlns="http://www.w3.org/2000/svg" xmlns:ev="http://www.w3.org/2001/xml-events" xmlns:xlink="http://www.w3.org/1999/xlink"><defs /><rect fill="white" height="221" width="257" x="0" y="0" /><circle cx="171.229736328125" cy="181.8581085205078" fill="none" r="8.332221031188965" stroke="black" stroke-width="1" /><circle cx="240.946044921875" cy="171.3129425048828" fill="none" r="8.379589080810547" stroke="black" stroke-width="1" /><circle cx="106.76190185546875" cy="166.8095245361328" fill="none" r="8.524444580078125" stroke="black" stroke-width="1" /><circle cx="48.274192810058594" cy="148.11289978027344" fill="none" r="8.539807319641113" stroke="black" stroke-width="1" /><circle cx="189.00270080566406" cy="129.770263671875" fill="none" r="8.468725204467773" stroke="black" stroke-width="1" /><circle cx="242.57142639160156" cy="88.71428680419922" fill="none" r="8.601241111755371" stroke="black" stroke-width="1" /><circle cx="173.34616088867188" cy="88.34615325927734" fill="none" r="8.53561019897461" stroke="black" stroke-width="1" /><circle cx="135.5869598388672" cy="87.63043212890625" fill="none" r="8.740469932556152" stroke="black" stroke-width="1" /><circle cx="96.42857360839844" cy="88.71428680419922" fill="none" r="8.601237297058105" stroke="black" stroke-width="1" /><circle cx="37.941341400146484" cy="89.31564331054688" fill="none" r="8.382861137390137" stroke="black" stroke-width="1" /><circle cx="37.83333206176758" cy="89.25" fill="black" r="14.274444580078125" stroke="black" stroke-width="1" /><circle cx="242.2441864013672" cy="88.9186019897461" fill="black" r="14.348624229431152" stroke="black" stroke-width="1" /><circle cx="172.8990478515625" cy="88.06532287597656" fill="black" r="14.23315143585205" stroke="black" stroke-width="1" /><circle cx="136.34814453125" cy="88.39971160888672" fill="black" r="14.11872386932373" stroke="black" stroke-width="1" /><circle cx="96.625" cy="89.0" fill="black" r="14.200121879577637" stroke="black" stroke-width="1" /><circle cx="93.07691955566406" cy="48.92307662963867" fill="none" r="9.328115463256836" stroke="black" stroke-width="1" /><circle cx="209.6271209716797" cy="37.38983154296875" fill="none" r="8.719035148620605" stroke="black" stroke-width="1" /><circle cx="39.024391174316406" cy="30.7560977935791" fill="none" r="8.815916061401367" stroke="black" stroke-width="1" /><circle cx="152.3333282470703" cy="13.38888931274414" fill="none" r="9.233865737915039" stroke="black" stroke-width="1" /><path d="M 0,0 L 0,220 L 256,220 L 256,0 L 173,196 L 196,33 L 46,162 L 151,0 Z" fill="none" stroke="black" stroke-width="1" /></svg>