<?xml version='1.0' encoding='utf-8'?>
<svg width="258" height="223" xmlns="http://www.w3.org/2000/svg" viewBox="0 0 258 223"><rect width="258" height="223" fill="white" /><path d="M 210,167 L 209,168 L 206,168 L 205,169 L 204,169 L 203,170 L 202,170 L 200,172 L 200,175 L 199,176 L 199,183 L 200,184 L 200,185 L 202,187 L 202,188 L 204,190 L 205,190 L 206,191 L 207,191 L 208,192 L 209,192 L 210,193 L 212,193 L 213,192 L 216,192 L 218,190 L 219,190 L 223,186 L 223,185 L 225,183 L 225,179 L 224,178 L 224,177 L 223,176 L 223,174 L 217,168 L 213,168 L 212,167 Z" fill="black" /><path d="M 94,167 L 93,168 L 90,168 L 87,171 L 86,171 L 86,172 L 84,174 L 84,179 L 83,180 L 83,181 L 84,182 L 84,183 L 86,185 L 86,187 L 89,190 L 90,190 L 91,191 L 102,191 L 104,189 L 105,189 L 107,187 L 107,185 L 108,184 L 108,180 L 109,179 L 109,177 L 107,175 L 107,174 L 103,170 L 103,169 L 102,168 L 97,168 L 96,167 Z" fill="black" /><path d="M 149,166 L 147,168 L 146,168 L 144,170 L 144,173 L 143,174 L 143,175 L 142,176 L 142,182 L 144,184 L 144,186 L 147,189 L 149,189 L 151,191 L 156,191 L 157,190 L 158,190 L 159,189 L 160,189 L 162,187 L 163,187 L 165,185 L 165,184 L 167,182 L 167,175 L 166,174 L 166,173 L 165,172 L 164,172 L 163,171 L 163,170 L 159,166 Z" fill="black" /><path d="M 32,166 L 31,167 L 30,167 L 29,168 L 28,168 L 26,170 L 26,171 L 25,172 L 25,173 L 24,174 L 24,177 L 23,178 L 23,179 L 24,180 L 24,183 L 26,185 L 26,186 L 29,189 L 32,189 L 33,190 L 35,190 L 36,191 L 41,191 L 43,189 L 44,189 L 47,186 L 47,184 L 48,183 L 48,182 L 49,181 L 49,176 L 47,174 L 47,171 L 46,170 L 45,170 L 43,168 L 42,168 L 41,167 L 40,167 L 39,166 Z" fill="black" /><path d="M 164,6 L 162,8 L 160,8 L 159,9 L 159,10 L 158,11 L 158,12 L 157,13 L 157,16 L 158,17 L 156,19 L 156,21 L 158,23 L 158,26 L 159,27 L 158,28 L 158,29 L 153,34 L 153,35 L 152,36 L 151,36 L 149,38 L 149,39 L 144,44 L 144,45 L 143,46 L 142,46 L 142,47 L 141,48 L 140,48 L 140,49 L 139,50 L 138,50 L 138,51 L 137,52 L 136,52 L 136,53 L 132,57 L 132,58 L 131,59 L 130,59 L 129,60 L 129,61 L 128,62 L 128,63 L 127,64 L 126,64 L 122,68 L 122,69 L 121,70 L 120,70 L 120,71 L 117,74 L 103,74 L 101,76 L 99,76 L 97,78 L 96,78 L 94,76 L 93,76 L 89,72 L 86,72 L 85,71 L 85,70 L 82,70 L 81,69 L 81,68 L 79,68 L 77,66 L 76,66 L 74,64 L 73,64 L 72,63 L 71,63 L 70,62 L 69,62 L 67,60 L 66,60 L 64,58 L 63,58 L 61,56 L 61,48 L 59,46 L 59,45 L 56,42 L 55,42 L 53,40 L 44,40 L 44,41 L 43,42 L 41,42 L 38,45 L 38,47 L 36,49 L 36,58 L 38,60 L 38,61 L 40,63 L 41,63 L 43,65 L 47,65 L 48,66 L 50,66 L 51,65 L 55,65 L 55,64 L 56,63 L 57,63 L 59,61 L 61,61 L 63,63 L 65,63 L 66,64 L 67,64 L 68,65 L 69,65 L 72,68 L 73,68 L 74,69 L 75,69 L 76,70 L 77,70 L 78,71 L 79,71 L 80,72 L 81,72 L 82,73 L 83,73 L 85,75 L 87,75 L 88,76 L 88,77 L 90,77 L 92,79 L 93,79 L 94,80 L 94,81 L 95,82 L 95,88 L 96,89 L 96,91 L 97,92 L 97,96 L 95,98 L 94,98 L 94,99 L 87,106 L 87,107 L 78,116 L 78,117 L 77,118 L 76,118 L 76,119 L 73,122 L 64,122 L 63,121 L 59,121 L 58,122 L 56,122 L 53,125 L 52,125 L 52,126 L 50,128 L 50,131 L 49,132 L 49,135 L 50,136 L 50,139 L 56,145 L 57,145 L 58,146 L 62,146 L 63,147 L 65,147 L 66,146 L 67,146 L 68,145 L 71,145 L 73,143 L 73,142 L 74,141 L 74,140 L 75,139 L 75,126 L 80,121 L 80,120 L 81,119 L 82,119 L 83,118 L 83,117 L 86,114 L 86,113 L 88,111 L 89,111 L 91,109 L 91,108 L 92,107 L 93,107 L 93,106 L 95,104 L 95,103 L 97,101 L 98,101 L 102,97 L 103,98 L 107,98 L 108,99 L 112,99 L 114,97 L 115,97 L 115,96 L 116,95 L 117,95 L 118,94 L 121,94 L 122,95 L 124,95 L 126,97 L 127,97 L 128,98 L 129,98 L 130,99 L 131,99 L 132,100 L 133,100 L 134,101 L 135,101 L 136,102 L 137,102 L 138,103 L 139,103 L 141,105 L 143,105 L 145,107 L 146,107 L 148,109 L 150,109 L 152,111 L 154,111 L 156,113 L 157,113 L 158,114 L 159,114 L 160,115 L 161,115 L 162,116 L 163,116 L 165,118 L 165,124 L 166,125 L 166,128 L 168,130 L 168,131 L 170,133 L 171,133 L 173,135 L 176,135 L 177,134 L 182,134 L 183,133 L 185,133 L 187,131 L 187,130 L 188,129 L 189,129 L 189,128 L 191,126 L 191,116 L 190,116 L 189,115 L 189,113 L 191,111 L 191,110 L 192,109 L 193,109 L 195,107 L 195,106 L 196,105 L 197,105 L 198,104 L 199,104 L 200,103 L 201,103 L 203,101 L 203,100 L 204,99 L 205,99 L 205,98 L 206,97 L 207,97 L 209,95 L 209,94 L 212,91 L 213,91 L 217,87 L 229,87 L 229,86 L 232,83 L 235,83 L 236,82 L 236,80 L 237,79 L 237,78 L 238,77 L 238,76 L 239,75 L 239,73 L 237,71 L 237,68 L 235,66 L 235,65 L 234,64 L 233,64 L 231,62 L 230,62 L 229,61 L 221,61 L 220,62 L 220,63 L 219,64 L 218,64 L 214,68 L 214,74 L 213,75 L 213,76 L 214,77 L 214,81 L 215,82 L 215,83 L 207,91 L 206,91 L 206,92 L 203,95 L 202,95 L 195,102 L 194,102 L 192,104 L 192,105 L 191,106 L 190,106 L 188,108 L 187,108 L 185,110 L 183,110 L 181,108 L 177,108 L 176,109 L 174,109 L 173,110 L 172,110 L 171,111 L 170,111 L 169,112 L 168,112 L 166,114 L 165,114 L 163,112 L 159,112 L 158,111 L 158,110 L 157,110 L 155,108 L 154,108 L 153,107 L 152,107 L 151,106 L 150,106 L 148,104 L 146,104 L 144,102 L 143,102 L 142,101 L 141,101 L 140,100 L 138,100 L 137,99 L 136,99 L 134,97 L 132,97 L 131,96 L 130,96 L 128,94 L 126,94 L 124,92 L 123,92 L 120,89 L 121,88 L 121,87 L 120,86 L 120,82 L 119,81 L 119,79 L 121,77 L 121,76 L 122,75 L 123,75 L 123,74 L 125,72 L 125,71 L 127,69 L 127,68 L 128,67 L 129,67 L 133,63 L 133,62 L 134,61 L 134,60 L 135,59 L 136,59 L 138,57 L 139,57 L 139,56 L 145,50 L 145,49 L 150,44 L 150,43 L 154,39 L 154,38 L 155,37 L 155,36 L 156,35 L 157,35 L 159,33 L 160,33 L 160,32 L 162,30 L 163,30 L 164,31 L 173,31 L 174,30 L 175,30 L 176,29 L 177,29 L 179,27 L 179,26 L 180,25 L 180,24 L 181,23 L 181,15 L 179,13 L 179,12 L 175,8 L 174,8 L 172,6 Z" fill="black" /></svg>