<?xml version='1.0' encoding='utf-8'?>
<svg width="261" height="215" xmlns="http://www.w3.org/2000/svg" viewBox="0 0 261 215"><rect width="261" height="215" fill="white" /><path d="M 135,193 L 134,194 L 133,194 L 132,195 L 131,195 L 127,199 L 127,200 L 125,202 L 125,209 L 127,211 L 127,213 L 128,214 L 132,214 L 130,212 L 130,211 L 129,210 L 129,208 L 128,207 L 128,206 L 129,205 L 129,204 L 130,203 L 130,202 L 131,201 L 131,200 L 133,198 L 136,198 L 137,197 L 139,197 L 140,198 L 142,198 L 145,201 L 145,202 L 147,204 L 147,206 L 146,207 L 146,209 L 145,210 L 145,211 L 143,213 L 142,213 L 141,214 L 148,214 L 148,213 L 150,211 L 150,201 L 148,199 L 148,198 L 146,196 L 145,196 L 144,195 L 141,195 L 140,194 L 139,194 L 138,193 Z" fill="black" /><path d="M 134,112 L 133,113 L 130,113 L 128,115 L 127,115 L 127,116 L 126,117 L 126,118 L 125,119 L 125,122 L 124,123 L 124,124 L 125,125 L 125,126 L 124,127 L 125,128 L 125,130 L 131,136 L 134,136 L 135,137 L 136,136 L 142,136 L 144,134 L 145,134 L 148,131 L 148,130 L 150,128 L 150,123 L 149,122 L 149,121 L 148,120 L 148,117 L 144,113 L 141,113 L 140,112 Z" fill="black" /><path d="M 131,75 L 129,77 L 127,77 L 127,78 L 125,80 L 125,82 L 124,83 L 124,84 L 123,85 L 123,89 L 124,90 L 124,91 L 125,92 L 125,94 L 129,98 L 130,98 L 131,99 L 133,99 L 134,100 L 139,100 L 140,99 L 141,99 L 142,98 L 143,98 L 147,94 L 147,93 L 148,92 L 148,82 L 146,80 L 146,79 L 144,77 L 143,77 L 141,75 Z" fill="black" /><path d="M 136,35 L 134,37 L 131,37 L 127,41 L 127,44 L 125,46 L 125,48 L 126,49 L 126,51 L 127,52 L 127,54 L 131,58 L 134,58 L 136,60 L 141,60 L 142,59 L 144,59 L 145,58 L 146,58 L 150,54 L 150,51 L 151,50 L 151,46 L 150,45 L 150,42 L 148,40 L 148,39 L 146,37 L 145,37 L 143,35 Z" fill="black" /><path d="M 77,0 L 76,1 L 74,1 L 72,3 L 71,3 L 69,5 L 69,6 L 68,7 L 68,8 L 67,9 L 67,15 L 65,17 L 65,18 L 64,19 L 62,19 L 60,21 L 57,21 L 57,22 L 56,23 L 53,23 L 52,24 L 51,24 L 50,25 L 49,25 L 48,26 L 47,26 L 46,27 L 45,27 L 45,28 L 44,29 L 41,29 L 40,30 L 39,30 L 38,31 L 37,31 L 36,32 L 35,32 L 34,33 L 31,33 L 30,34 L 29,34 L 28,33 L 27,33 L 26,32 L 25,32 L 24,31 L 23,31 L 22,30 L 19,30 L 18,29 L 17,29 L 16,30 L 15,30 L 14,31 L 12,31 L 10,33 L 9,33 L 9,34 L 7,36 L 7,38 L 5,40 L 5,44 L 6,45 L 6,47 L 7,48 L 7,50 L 11,54 L 14,54 L 15,55 L 22,55 L 23,54 L 24,54 L 25,53 L 26,53 L 30,49 L 30,47 L 31,46 L 31,40 L 35,36 L 37,36 L 39,34 L 40,34 L 41,33 L 42,33 L 43,32 L 44,32 L 45,31 L 46,31 L 47,30 L 50,30 L 52,28 L 53,28 L 55,26 L 58,26 L 59,25 L 60,25 L 61,24 L 62,24 L 63,23 L 64,23 L 65,22 L 66,22 L 67,21 L 69,21 L 71,23 L 71,24 L 74,24 L 75,25 L 76,25 L 77,26 L 82,26 L 83,25 L 84,25 L 85,24 L 86,24 L 90,20 L 90,19 L 94,15 L 96,15 L 97,16 L 106,16 L 107,17 L 108,17 L 109,18 L 114,18 L 115,19 L 116,18 L 117,18 L 118,19 L 120,19 L 121,20 L 132,20 L 133,21 L 134,21 L 135,22 L 145,22 L 146,23 L 148,23 L 149,24 L 155,24 L 156,25 L 157,25 L 159,27 L 159,28 L 160,29 L 160,30 L 161,31 L 161,33 L 164,36 L 165,36 L 166,37 L 167,37 L 168,38 L 178,38 L 178,37 L 179,36 L 181,36 L 182,35 L 184,35 L 185,36 L 186,36 L 188,38 L 189,38 L 191,40 L 192,40 L 193,41 L 194,41 L 195,42 L 196,42 L 198,44 L 199,44 L 201,46 L 202,46 L 203,47 L 204,47 L 207,50 L 209,50 L 211,52 L 212,52 L 214,54 L 216,54 L 218,56 L 219,56 L 221,58 L 224,58 L 225,59 L 225,64 L 223,66 L 223,72 L 224,73 L 224,74 L 225,75 L 225,76 L 229,80 L 229,86 L 228,87 L 228,88 L 227,89 L 227,91 L 226,92 L 226,94 L 225,95 L 225,98 L 224,99 L 224,100 L 223,101 L 223,103 L 222,104 L 222,106 L 221,107 L 221,110 L 220,111 L 220,112 L 219,113 L 219,115 L 218,116 L 218,118 L 217,119 L 217,122 L 216,123 L 216,124 L 215,125 L 215,128 L 214,129 L 214,130 L 213,131 L 213,134 L 211,136 L 211,139 L 210,140 L 210,141 L 209,142 L 209,146 L 207,148 L 207,150 L 206,151 L 206,152 L 205,153 L 205,156 L 204,157 L 204,158 L 203,159 L 203,162 L 202,163 L 202,164 L 201,165 L 201,167 L 200,168 L 200,170 L 199,171 L 199,174 L 196,177 L 195,177 L 194,176 L 194,170 L 192,168 L 192,163 L 190,161 L 190,155 L 189,155 L 188,154 L 188,144 L 190,142 L 192,142 L 198,136 L 198,128 L 196,126 L 196,124 L 194,122 L 194,121 L 193,121 L 192,120 L 191,120 L 190,119 L 187,119 L 186,118 L 185,118 L 184,119 L 181,119 L 180,120 L 179,120 L 178,121 L 177,121 L 175,123 L 175,124 L 174,125 L 174,126 L 173,127 L 173,129 L 172,130 L 172,132 L 173,133 L 173,137 L 175,139 L 175,140 L 176,140 L 178,142 L 180,142 L 183,145 L 183,146 L 184,147 L 184,149 L 185,150 L 185,154 L 186,155 L 186,156 L 187,157 L 187,160 L 188,161 L 188,164 L 189,165 L 189,168 L 190,169 L 190,173 L 191,174 L 191,175 L 190,176 L 189,176 L 188,177 L 187,177 L 185,179 L 184,179 L 182,177 L 179,177 L 178,176 L 178,175 L 177,175 L 176,174 L 175,174 L 174,173 L 173,173 L 171,171 L 169,171 L 168,170 L 168,169 L 167,169 L 165,167 L 163,167 L 162,166 L 162,165 L 160,165 L 158,163 L 157,163 L 156,162 L 155,162 L 154,161 L 153,161 L 151,159 L 150,159 L 148,157 L 145,157 L 143,155 L 141,155 L 140,154 L 140,153 L 139,153 L 138,152 L 137,152 L 136,151 L 134,151 L 132,149 L 131,149 L 129,147 L 128,147 L 126,145 L 125,145 L 124,144 L 123,144 L 122,143 L 121,143 L 119,141 L 118,141 L 117,140 L 116,140 L 115,139 L 114,139 L 112,137 L 111,137 L 110,136 L 109,136 L 108,135 L 107,135 L 105,133 L 104,133 L 102,131 L 101,131 L 99,129 L 98,129 L 96,127 L 96,126 L 95,125 L 95,123 L 94,122 L 94,117 L 90,113 L 89,113 L 88,112 L 87,112 L 86,111 L 79,111 L 78,112 L 77,112 L 76,113 L 75,113 L 73,115 L 73,116 L 71,118 L 71,119 L 70,120 L 70,126 L 71,127 L 71,130 L 72,130 L 73,131 L 73,134 L 69,138 L 69,139 L 63,145 L 63,146 L 60,149 L 55,149 L 54,148 L 53,148 L 52,147 L 47,147 L 46,148 L 45,148 L 44,149 L 43,149 L 39,153 L 39,155 L 37,157 L 37,164 L 38,165 L 38,166 L 39,167 L 39,168 L 40,169 L 40,171 L 37,174 L 37,175 L 35,177 L 35,178 L 31,182 L 29,182 L 28,181 L 24,181 L 23,180 L 22,181 L 17,181 L 16,182 L 15,182 L 11,186 L 11,188 L 10,189 L 10,190 L 9,191 L 9,194 L 10,195 L 10,196 L 11,197 L 11,198 L 13,200 L 13,201 L 16,204 L 18,204 L 19,205 L 26,205 L 27,204 L 29,204 L 34,199 L 34,197 L 35,196 L 35,190 L 34,189 L 34,184 L 36,182 L 36,181 L 37,180 L 38,180 L 40,178 L 40,177 L 45,172 L 46,172 L 48,174 L 50,174 L 51,173 L 52,173 L 53,172 L 56,172 L 57,171 L 58,171 L 60,169 L 60,168 L 62,166 L 62,155 L 61,154 L 61,152 L 63,150 L 64,150 L 67,147 L 67,145 L 68,144 L 70,144 L 72,142 L 72,141 L 73,140 L 74,140 L 74,139 L 77,136 L 86,136 L 87,135 L 88,135 L 89,134 L 90,134 L 90,133 L 92,131 L 94,131 L 95,132 L 97,132 L 99,134 L 100,134 L 102,136 L 103,136 L 105,138 L 108,138 L 109,139 L 109,140 L 110,140 L 111,141 L 112,141 L 113,142 L 114,142 L 115,143 L 116,143 L 117,144 L 118,144 L 121,147 L 122,147 L 123,148 L 124,148 L 126,150 L 128,150 L 129,151 L 129,152 L 130,152 L 131,153 L 132,153 L 133,154 L 136,154 L 141,159 L 141,160 L 140,161 L 131,161 L 130,162 L 129,162 L 128,163 L 127,163 L 125,165 L 125,166 L 124,167 L 124,169 L 123,170 L 123,177 L 125,179 L 125,181 L 127,183 L 128,183 L 129,184 L 131,184 L 133,186 L 138,186 L 139,185 L 140,185 L 141,184 L 143,184 L 147,180 L 147,179 L 148,178 L 148,171 L 147,170 L 147,167 L 142,162 L 142,160 L 143,159 L 144,159 L 145,160 L 146,160 L 148,162 L 149,162 L 151,164 L 152,164 L 154,166 L 155,166 L 157,168 L 158,168 L 159,169 L 160,169 L 161,170 L 162,170 L 164,172 L 165,172 L 166,173 L 167,173 L 168,174 L 169,174 L 171,176 L 172,176 L 173,177 L 174,177 L 175,178 L 176,178 L 178,180 L 179,180 L 181,182 L 181,186 L 180,187 L 180,192 L 181,193 L 181,195 L 183,197 L 183,198 L 184,198 L 186,200 L 188,200 L 189,201 L 190,201 L 191,202 L 196,202 L 197,201 L 198,201 L 199,200 L 200,200 L 204,196 L 204,195 L 205,194 L 205,193 L 206,192 L 206,185 L 204,183 L 204,182 L 202,180 L 201,180 L 200,179 L 200,177 L 201,176 L 201,175 L 203,173 L 203,172 L 204,171 L 204,169 L 205,168 L 205,167 L 206,166 L 206,163 L 207,162 L 207,161 L 208,160 L 208,156 L 210,154 L 210,151 L 211,150 L 211,149 L 212,148 L 212,145 L 213,144 L 213,143 L 214,142 L 214,139 L 215,138 L 215,137 L 216,136 L 216,133 L 217,132 L 217,131 L 218,130 L 218,127 L 219,126 L 219,125 L 220,124 L 220,122 L 221,121 L 221,120 L 222,119 L 222,115 L 223,114 L 224,114 L 224,111 L 225,110 L 225,109 L 226,108 L 226,105 L 227,104 L 227,103 L 228,102 L 228,96 L 230,94 L 230,93 L 231,92 L 231,91 L 232,90 L 232,85 L 235,82 L 239,82 L 240,81 L 242,81 L 243,80 L 244,80 L 248,76 L 248,73 L 249,72 L 249,69 L 248,68 L 248,64 L 246,62 L 246,61 L 244,59 L 243,59 L 242,58 L 241,58 L 240,57 L 238,57 L 235,54 L 235,51 L 234,50 L 234,45 L 233,44 L 233,43 L 232,42 L 232,35 L 231,34 L 231,29 L 230,28 L 230,25 L 233,22 L 234,22 L 236,20 L 237,20 L 238,19 L 238,17 L 239,16 L 239,15 L 240,14 L 240,9 L 239,8 L 239,7 L 238,6 L 238,5 L 233,0 L 221,0 L 220,1 L 219,1 L 215,5 L 215,8 L 214,9 L 214,13 L 215,14 L 215,17 L 220,22 L 222,22 L 225,25 L 225,28 L 226,29 L 226,30 L 227,31 L 227,35 L 228,36 L 228,39 L 229,40 L 229,44 L 230,45 L 230,48 L 231,49 L 231,57 L 230,58 L 227,58 L 226,57 L 226,56 L 225,56 L 222,53 L 221,53 L 220,52 L 219,52 L 216,49 L 214,49 L 212,47 L 211,47 L 209,45 L 207,45 L 206,44 L 206,43 L 204,43 L 202,41 L 200,41 L 198,39 L 197,39 L 194,36 L 193,36 L 192,35 L 190,35 L 184,29 L 184,27 L 185,26 L 185,25 L 184,24 L 184,21 L 183,20 L 183,19 L 182,18 L 182,17 L 180,15 L 179,15 L 177,13 L 167,13 L 164,16 L 163,16 L 163,17 L 159,21 L 155,21 L 154,20 L 147,20 L 146,19 L 140,19 L 139,18 L 137,18 L 136,17 L 125,17 L 124,16 L 121,16 L 120,15 L 112,15 L 111,14 L 105,14 L 104,13 L 99,13 L 98,12 L 96,12 L 95,11 L 92,11 L 90,9 L 90,7 L 87,4 L 87,3 L 86,3 L 84,1 L 81,1 L 80,0 Z" fill="black" /><path d="M 81,0 L 84,0 L 86,2 L 87,2 L 88,3 L 88,4 L 91,7 L 91,9 L 92,10 L 95,10 L 96,11 L 98,11 L 99,12 L 104,12 L 105,13 L 111,13 L 112,14 L 120,14 L 121,15 L 124,15 L 125,16 L 136,16 L 137,17 L 139,17 L 140,18 L 146,18 L 147,19 L 154,19 L 155,20 L 159,20 L 162,17 L 162,16 L 163,15 L 164,15 L 167,12 L 177,12 L 179,14 L 180,14 L 183,17 L 183,18 L 184,19 L 184,20 L 185,21 L 185,24 L 186,25 L 186,26 L 185,27 L 185,29 L 190,34 L 192,34 L 193,35 L 194,35 L 197,38 L 198,38 L 200,40 L 202,40 L 204,42 L 206,42 L 207,43 L 207,44 L 209,44 L 211,46 L 212,46 L 214,48 L 216,48 L 219,51 L 220,51 L 221,52 L 222,52 L 225,55 L 226,55 L 227,56 L 227,57 L 230,57 L 230,49 L 229,48 L 229,45 L 228,44 L 228,40 L 227,39 L 227,36 L 226,35 L 226,31 L 225,30 L 225,29 L 224,28 L 224,25 L 222,23 L 220,23 L 214,17 L 214,14 L 213,13 L 213,9 L 214,8 L 214,5 L 219,0 L 220,0 Z" fill="none" stroke="black" stroke-width="1" /><path d="M 0,0 L 0,214 L 127,214 L 126,213 L 126,211 L 124,209 L 124,202 L 126,200 L 126,199 L 131,194 L 132,194 L 133,193 L 134,193 L 135,192 L 138,192 L 139,193 L 140,193 L 141,194 L 144,194 L 145,195 L 146,195 L 149,198 L 149,199 L 151,201 L 151,211 L 149,213 L 149,214 L 260,214 L 260,0 L 234,0 L 239,5 L 239,6 L 240,7 L 240,8 L 241,9 L 241,14 L 240,15 L 240,16 L 239,17 L 239,19 L 237,21 L 236,21 L 234,23 L 233,23 L 231,25 L 231,28 L 232,29 L 232,34 L 233,35 L 233,42 L 234,43 L 234,44 L 235,45 L 235,50 L 236,51 L 236,54 L 238,56 L 240,56 L 241,57 L 242,57 L 243,58 L 244,58 L 247,61 L 247,62 L 249,64 L 249,68 L 250,69 L 250,72 L 249,73 L 249,76 L 244,81 L 243,81 L 242,82 L 240,82 L 239,83 L 235,83 L 233,85 L 233,90 L 232,91 L 232,92 L 231,93 L 231,94 L 229,96 L 229,102 L 228,103 L 228,104 L 227,105 L 227,108 L 226,109 L 226,110 L 225,111 L 225,114 L 224,115 L 223,115 L 223,119 L 222,120 L 222,121 L 221,122 L 221,124 L 220,125 L 220,126 L 219,127 L 219,130 L 218,131 L 218,132 L 217,133 L 217,136 L 216,137 L 216,138 L 215,139 L 215,142 L 214,143 L 214,144 L 213,145 L 213,148 L 212,149 L 212,150 L 211,151 L 211,154 L 209,156 L 209,160 L 208,161 L 208,162 L 207,163 L 207,166 L 206,167 L 206,168 L 205,169 L 205,171 L 204,172 L 204,173 L 202,175 L 202,176 L 201,177 L 201,179 L 202,179 L 205,182 L 205,183 L 207,185 L 207,192 L 206,193 L 206,194 L 205,195 L 205,196 L 200,201 L 199,201 L 198,202 L 197,202 L 196,203 L 191,203 L 190,202 L 189,202 L 188,201 L 186,201 L 184,199 L 183,199 L 182,198 L 182,197 L 180,195 L 180,193 L 179,192 L 179,187 L 180,186 L 180,182 L 179,181 L 178,181 L 176,179 L 175,179 L 174,178 L 173,178 L 172,177 L 171,177 L 169,175 L 168,175 L 167,174 L 166,174 L 165,173 L 164,173 L 162,171 L 161,171 L 160,170 L 159,170 L 158,169 L 157,169 L 155,167 L 154,167 L 152,165 L 151,165 L 149,163 L 148,163 L 146,161 L 145,161 L 144,160 L 143,160 L 143,162 L 148,167 L 148,170 L 149,171 L 149,178 L 148,179 L 148,180 L 143,185 L 141,185 L 140,186 L 139,186 L 138,187 L 133,187 L 131,185 L 129,185 L 128,184 L 127,184 L 124,181 L 124,179 L 122,177 L 122,170 L 123,169 L 123,167 L 124,166 L 124,165 L 127,162 L 128,162 L 129,161 L 130,161 L 131,160 L 140,160 L 140,159 L 136,155 L 133,155 L 132,154 L 131,154 L 130,153 L 129,153 L 128,152 L 128,151 L 126,151 L 124,149 L 123,149 L 122,148 L 121,148 L 118,145 L 117,145 L 116,144 L 115,144 L 114,143 L 113,143 L 112,142 L 111,142 L 110,141 L 109,141 L 108,140 L 108,139 L 105,139 L 103,137 L 102,137 L 100,135 L 99,135 L 97,133 L 95,133 L 94,132 L 92,132 L 91,133 L 91,134 L 90,135 L 89,135 L 88,136 L 87,136 L 86,137 L 77,137 L 75,139 L 75,140 L 74,141 L 73,141 L 73,142 L 70,145 L 68,145 L 68,147 L 64,151 L 63,151 L 62,152 L 62,154 L 63,155 L 63,166 L 61,168 L 61,169 L 58,172 L 57,172 L 56,173 L 53,173 L 52,174 L 51,174 L 50,175 L 48,175 L 46,173 L 45,173 L 41,177 L 41,178 L 38,181 L 37,181 L 37,182 L 35,184 L 35,189 L 36,190 L 36,196 L 35,197 L 35,199 L 29,205 L 27,205 L 26,206 L 19,206 L 18,205 L 16,205 L 12,201 L 12,200 L 10,198 L 10,197 L 9,196 L 9,195 L 8,194 L 8,191 L 9,190 L 9,189 L 10,188 L 10,186 L 15,181 L 16,181 L 17,180 L 22,180 L 23,179 L 24,180 L 28,180 L 29,181 L 31,181 L 34,178 L 34,177 L 36,175 L 36,174 L 39,171 L 39,169 L 38,168 L 38,167 L 37,166 L 37,165 L 36,164 L 36,157 L 38,155 L 38,153 L 43,148 L 44,148 L 45,147 L 46,147 L 47,146 L 52,146 L 53,147 L 54,147 L 55,148 L 60,148 L 62,146 L 62,145 L 68,139 L 68,138 L 72,134 L 72,131 L 71,131 L 70,130 L 70,127 L 69,126 L 69,120 L 70,119 L 70,118 L 72,116 L 72,115 L 75,112 L 76,112 L 77,111 L 78,111 L 79,110 L 86,110 L 87,111 L 88,111 L 89,112 L 90,112 L 95,117 L 95,122 L 96,123 L 96,125 L 97,126 L 97,127 L 98,128 L 99,128 L 101,130 L 102,130 L 104,132 L 105,132 L 107,134 L 108,134 L 109,135 L 110,135 L 111,136 L 112,136 L 114,138 L 115,138 L 116,139 L 117,139 L 118,140 L 119,140 L 121,142 L 122,142 L 123,143 L 124,143 L 125,144 L 126,144 L 128,146 L 129,146 L 131,148 L 132,148 L 134,150 L 136,150 L 137,151 L 138,151 L 139,152 L 140,152 L 141,153 L 141,154 L 143,154 L 145,156 L 148,156 L 150,158 L 151,158 L 153,160 L 154,160 L 155,161 L 156,161 L 157,162 L 158,162 L 160,164 L 162,164 L 163,165 L 163,166 L 165,166 L 167,168 L 168,168 L 169,169 L 169,170 L 171,170 L 173,172 L 174,172 L 175,173 L 176,173 L 177,174 L 178,174 L 179,175 L 179,176 L 182,176 L 184,178 L 185,178 L 187,176 L 188,176 L 189,175 L 190,175 L 190,174 L 189,173 L 189,169 L 188,168 L 188,165 L 187,164 L 187,161 L 186,160 L 186,157 L 185,156 L 185,155 L 184,154 L 184,150 L 183,149 L 183,147 L 182,146 L 182,145 L 180,143 L 178,143 L 176,141 L 175,141 L 174,140 L 174,139 L 172,137 L 172,133 L 171,132 L 171,130 L 172,129 L 172,127 L 173,126 L 173,125 L 174,124 L 174,123 L 177,120 L 178,120 L 179,119 L 180,119 L 181,118 L 184,118 L 185,117 L 186,117 L 187,118 L 190,118 L 191,119 L 192,119 L 193,120 L 194,120 L 195,121 L 195,122 L 197,124 L 197,126 L 199,128 L 199,136 L 192,143 L 190,143 L 189,144 L 189,154 L 190,154 L 191,155 L 191,161 L 193,163 L 193,168 L 195,170 L 195,176 L 196,176 L 198,174 L 198,171 L 199,170 L 199,168 L 200,167 L 200,165 L 201,164 L 201,163 L 202,162 L 202,159 L 203,158 L 203,157 L 204,156 L 204,153 L 205,152 L 205,151 L 206,150 L 206,148 L 208,146 L 208,142 L 209,141 L 209,140 L 210,139 L 210,136 L 212,134 L 212,131 L 213,130 L 213,129 L 214,128 L 214,125 L 215,124 L 215,123 L 216,122 L 216,119 L 217,118 L 217,116 L 218,115 L 218,113 L 219,112 L 219,111 L 220,110 L 220,107 L 221,106 L 221,104 L 222,103 L 222,101 L 223,100 L 223,99 L 224,98 L 224,95 L 225,94 L 225,92 L 226,91 L 226,89 L 227,88 L 227,87 L 228,86 L 228,80 L 224,76 L 224,75 L 223,74 L 223,73 L 222,72 L 222,66 L 224,64 L 224,59 L 221,59 L 219,57 L 218,57 L 216,55 L 214,55 L 212,53 L 211,53 L 209,51 L 207,51 L 204,48 L 203,48 L 202,47 L 201,47 L 199,45 L 198,45 L 196,43 L 195,43 L 194,42 L 193,42 L 192,41 L 191,41 L 189,39 L 188,39 L 186,37 L 185,37 L 184,36 L 182,36 L 181,37 L 179,37 L 179,38 L 178,39 L 168,39 L 167,38 L 166,38 L 165,37 L 164,37 L 160,33 L 160,31 L 159,30 L 159,29 L 158,28 L 158,27 L 157,26 L 156,26 L 155,25 L 149,25 L 148,24 L 146,24 L 145,23 L 135,23 L 134,22 L 133,22 L 132,21 L 121,21 L 120,20 L 118,20 L 117,19 L 116,19 L 115,20 L 114,19 L 109,19 L 108,18 L 107,18 L 106,17 L 97,17 L 96,16 L 94,16 L 91,19 L 91,20 L 86,25 L 85,25 L 84,26 L 83,26 L 82,27 L 77,27 L 76,26 L 75,26 L 74,25 L 71,25 L 70,24 L 70,23 L 69,22 L 67,22 L 66,23 L 65,23 L 64,24 L 63,24 L 62,25 L 61,25 L 60,26 L 59,26 L 58,27 L 55,27 L 53,29 L 52,29 L 50,31 L 47,31 L 46,32 L 45,32 L 44,33 L 43,33 L 42,34 L 41,34 L 40,35 L 39,35 L 37,37 L 35,37 L 32,40 L 32,46 L 31,47 L 31,49 L 26,54 L 25,54 L 24,55 L 23,55 L 22,56 L 15,56 L 14,55 L 11,55 L 6,50 L 6,48 L 5,47 L 5,45 L 4,44 L 4,40 L 6,38 L 6,36 L 8,34 L 8,33 L 9,32 L 10,32 L 12,30 L 14,30 L 15,29 L 16,29 L 17,28 L 18,28 L 19,29 L 22,29 L 23,30 L 24,30 L 25,31 L 26,31 L 27,32 L 28,32 L 29,33 L 30,33 L 31,32 L 34,32 L 35,31 L 36,31 L 37,30 L 38,30 L 39,29 L 40,29 L 41,28 L 44,28 L 44,27 L 45,26 L 46,26 L 47,25 L 48,25 L 49,24 L 50,24 L 51,23 L 52,23 L 53,22 L 56,22 L 56,21 L 57,20 L 60,20 L 62,18 L 64,18 L 64,17 L 66,15 L 66,9 L 67,8 L 67,7 L 68,6 L 68,5 L 71,2 L 72,2 L 74,0 L 76,0 Z" fill="none" stroke="black" stroke-width="1" /></svg>