<?xml version='1.0' encoding='utf-8'?>
<svg width="256" height="220" xmlns="http://www.w3.org/2000/svg" viewBox="0 0 256 220"><rect width="256" height="220" fill="white" /><path d="M 109,110 L 108,111 L 105,111 L 104,112 L 102,112 L 101,113 L 100,113 L 97,116 L 97,117 L 96,118 L 96,120 L 95,121 L 95,124 L 96,125 L 96,129 L 100,133 L 101,133 L 102,134 L 103,134 L 104,135 L 110,135 L 111,134 L 113,134 L 114,133 L 115,133 L 119,129 L 119,126 L 120,125 L 120,121 L 118,119 L 118,115 L 117,114 L 115,114 L 112,111 L 111,111 L 110,110 Z" fill="black" /><path d="M 16,110 L 15,111 L 14,111 L 13,112 L 12,112 L 10,114 L 10,115 L 8,117 L 8,121 L 7,122 L 7,123 L 8,124 L 8,128 L 10,130 L 10,131 L 11,131 L 13,133 L 15,133 L 17,135 L 20,135 L 21,134 L 22,134 L 23,133 L 25,133 L 26,132 L 27,132 L 28,131 L 29,131 L 31,129 L 31,126 L 32,125 L 31,124 L 31,116 L 27,112 L 25,112 L 24,111 L 23,111 L 22,110 Z" fill="black" /><path d="M 150,109 L 149,110 L 146,110 L 140,116 L 140,117 L 139,118 L 139,119 L 138,120 L 138,123 L 139,124 L 139,128 L 144,133 L 147,133 L 148,134 L 154,134 L 155,133 L 157,133 L 157,132 L 158,131 L 160,131 L 162,129 L 162,128 L 163,127 L 163,117 L 161,115 L 161,114 L 157,110 L 151,110 Z" fill="black" /><path d="M 206,108 L 205,109 L 203,109 L 202,110 L 200,110 L 196,114 L 196,116 L 195,117 L 195,119 L 194,120 L 194,121 L 195,122 L 195,124 L 196,125 L 196,127 L 198,129 L 198,131 L 202,135 L 208,135 L 209,134 L 211,134 L 212,133 L 213,133 L 215,131 L 216,131 L 216,130 L 219,127 L 219,126 L 220,125 L 220,117 L 219,116 L 219,114 L 216,111 L 215,111 L 214,110 L 213,110 L 211,108 Z" fill="black" /><path d="M 57,108 L 56,109 L 54,109 L 53,110 L 52,110 L 51,111 L 50,111 L 47,114 L 47,115 L 46,116 L 46,127 L 50,131 L 51,131 L 53,133 L 61,133 L 63,131 L 65,131 L 67,129 L 67,128 L 70,125 L 70,118 L 69,117 L 69,114 L 68,114 L 64,110 L 60,110 L 58,108 Z" fill="black" /><path d="M 34,0 L 33,1 L 32,1 L 31,2 L 30,2 L 30,3 L 29,4 L 29,5 L 28,6 L 28,8 L 27,9 L 27,14 L 28,15 L 28,17 L 29,18 L 29,19 L 30,20 L 30,22 L 28,24 L 28,25 L 26,27 L 26,29 L 24,31 L 24,32 L 23,33 L 20,33 L 19,32 L 11,32 L 9,34 L 7,34 L 5,36 L 5,37 L 4,38 L 4,39 L 2,41 L 2,46 L 3,47 L 3,49 L 4,50 L 4,51 L 6,53 L 6,54 L 7,55 L 8,55 L 9,56 L 10,56 L 11,57 L 20,57 L 22,55 L 23,55 L 25,53 L 27,53 L 28,54 L 29,54 L 30,55 L 32,55 L 33,56 L 35,56 L 36,57 L 39,57 L 41,59 L 43,59 L 44,60 L 45,60 L 46,61 L 49,61 L 50,62 L 51,62 L 52,63 L 56,63 L 57,64 L 58,64 L 59,65 L 63,65 L 64,66 L 64,70 L 65,71 L 65,72 L 66,73 L 66,75 L 70,79 L 71,79 L 72,80 L 73,80 L 74,81 L 76,81 L 78,83 L 78,90 L 79,91 L 79,92 L 78,93 L 78,94 L 79,95 L 79,105 L 80,106 L 80,117 L 81,118 L 81,127 L 82,128 L 82,148 L 83,149 L 83,157 L 84,158 L 84,161 L 81,164 L 79,164 L 77,166 L 76,166 L 76,167 L 74,169 L 74,172 L 73,173 L 73,175 L 74,176 L 74,181 L 78,185 L 79,185 L 81,187 L 82,187 L 83,188 L 88,188 L 89,187 L 92,187 L 94,185 L 95,185 L 97,183 L 97,178 L 98,177 L 98,176 L 97,175 L 97,169 L 95,167 L 95,166 L 93,164 L 90,164 L 88,162 L 88,157 L 87,156 L 87,153 L 88,152 L 88,151 L 85,148 L 85,146 L 86,145 L 86,139 L 85,138 L 85,137 L 84,136 L 84,134 L 85,133 L 85,130 L 84,129 L 84,128 L 85,127 L 85,121 L 84,120 L 84,118 L 82,116 L 83,115 L 83,102 L 82,101 L 82,100 L 83,99 L 83,96 L 82,95 L 82,94 L 83,93 L 83,88 L 82,87 L 82,86 L 81,85 L 81,80 L 82,79 L 85,79 L 87,77 L 87,76 L 90,73 L 91,73 L 92,72 L 96,72 L 97,73 L 107,73 L 108,74 L 113,74 L 114,73 L 115,73 L 117,75 L 129,75 L 130,76 L 142,76 L 144,78 L 144,79 L 146,81 L 146,83 L 147,83 L 149,85 L 151,85 L 152,86 L 155,86 L 156,87 L 157,87 L 158,86 L 161,86 L 162,85 L 163,85 L 165,83 L 166,83 L 167,82 L 167,80 L 168,79 L 168,78 L 169,77 L 169,73 L 171,71 L 171,70 L 174,67 L 176,67 L 177,66 L 177,65 L 178,64 L 179,64 L 183,60 L 183,59 L 186,56 L 188,56 L 190,54 L 191,54 L 194,51 L 195,51 L 195,50 L 196,49 L 197,49 L 200,46 L 204,50 L 204,52 L 202,54 L 202,57 L 200,59 L 200,63 L 199,64 L 199,65 L 198,66 L 198,69 L 197,70 L 197,72 L 196,73 L 196,77 L 194,79 L 194,83 L 192,85 L 192,89 L 191,90 L 191,92 L 190,93 L 190,95 L 189,96 L 189,97 L 188,98 L 188,101 L 187,102 L 187,104 L 186,105 L 186,108 L 184,110 L 184,113 L 183,114 L 183,118 L 182,119 L 182,120 L 181,121 L 181,122 L 180,123 L 180,128 L 179,129 L 179,130 L 178,131 L 178,133 L 177,134 L 177,135 L 176,136 L 176,140 L 175,141 L 175,142 L 174,143 L 174,146 L 172,148 L 172,153 L 171,154 L 171,155 L 170,156 L 170,159 L 167,162 L 160,162 L 159,163 L 158,163 L 157,164 L 156,164 L 154,166 L 153,166 L 152,167 L 152,169 L 151,170 L 151,171 L 150,172 L 150,180 L 152,182 L 152,183 L 156,187 L 159,187 L 160,188 L 164,188 L 165,187 L 169,187 L 171,185 L 171,184 L 172,183 L 173,183 L 173,182 L 175,180 L 175,176 L 177,174 L 180,174 L 181,173 L 185,173 L 185,172 L 186,171 L 191,171 L 192,170 L 193,170 L 194,169 L 197,169 L 198,168 L 199,168 L 200,167 L 203,167 L 205,165 L 208,165 L 209,164 L 211,164 L 212,163 L 215,163 L 216,162 L 218,162 L 220,164 L 220,165 L 221,165 L 223,167 L 227,167 L 228,168 L 229,168 L 230,167 L 233,167 L 234,166 L 235,166 L 239,162 L 239,161 L 240,160 L 240,159 L 241,158 L 241,152 L 239,150 L 239,148 L 235,144 L 232,144 L 231,143 L 224,143 L 223,144 L 221,144 L 220,145 L 220,146 L 217,149 L 217,150 L 216,151 L 216,157 L 214,159 L 212,159 L 211,160 L 208,160 L 207,161 L 206,161 L 205,162 L 204,162 L 203,163 L 202,163 L 201,164 L 196,164 L 195,165 L 194,165 L 193,166 L 191,166 L 190,167 L 189,167 L 188,168 L 184,168 L 183,169 L 182,169 L 181,170 L 178,170 L 177,171 L 175,171 L 173,169 L 173,167 L 172,166 L 172,164 L 173,163 L 173,158 L 174,157 L 174,156 L 175,155 L 175,152 L 176,151 L 176,150 L 177,149 L 177,146 L 178,145 L 178,142 L 179,141 L 179,140 L 180,139 L 180,138 L 181,137 L 181,134 L 182,133 L 183,133 L 183,132 L 185,130 L 184,129 L 184,126 L 185,125 L 185,120 L 186,119 L 186,118 L 187,117 L 187,113 L 188,112 L 188,110 L 189,109 L 189,107 L 191,105 L 191,104 L 192,103 L 192,102 L 193,101 L 193,95 L 195,93 L 195,91 L 197,89 L 197,84 L 198,83 L 198,82 L 199,81 L 199,79 L 200,78 L 200,77 L 201,76 L 201,73 L 202,72 L 202,67 L 203,66 L 203,64 L 204,63 L 204,61 L 205,60 L 205,58 L 207,56 L 207,52 L 208,51 L 213,51 L 216,48 L 217,48 L 219,46 L 219,45 L 221,43 L 221,32 L 215,26 L 214,26 L 212,24 L 210,24 L 209,25 L 207,25 L 206,26 L 204,26 L 203,27 L 200,27 L 199,26 L 198,26 L 197,25 L 197,24 L 195,24 L 193,22 L 191,22 L 189,20 L 189,18 L 190,17 L 190,16 L 191,15 L 191,8 L 190,7 L 190,6 L 185,1 L 183,1 L 182,0 L 172,0 L 166,6 L 166,17 L 168,19 L 168,20 L 169,21 L 170,21 L 172,23 L 173,23 L 175,25 L 179,25 L 180,24 L 181,24 L 182,23 L 188,23 L 192,27 L 193,27 L 195,29 L 196,29 L 198,31 L 198,33 L 196,35 L 196,43 L 191,48 L 190,48 L 190,49 L 187,52 L 186,52 L 182,56 L 181,56 L 179,58 L 179,59 L 178,60 L 176,60 L 174,62 L 174,63 L 173,64 L 172,64 L 170,66 L 169,66 L 168,67 L 167,67 L 165,65 L 165,64 L 164,64 L 163,63 L 162,63 L 161,62 L 156,62 L 151,57 L 151,52 L 149,50 L 149,49 L 147,47 L 147,46 L 146,45 L 146,44 L 145,43 L 145,40 L 143,38 L 143,34 L 144,33 L 145,33 L 146,32 L 146,30 L 147,29 L 147,22 L 146,21 L 146,19 L 143,16 L 142,16 L 141,15 L 140,15 L 139,14 L 129,14 L 127,16 L 126,16 L 125,17 L 125,18 L 124,19 L 124,20 L 122,22 L 122,31 L 123,32 L 123,33 L 127,37 L 128,37 L 129,38 L 130,38 L 131,39 L 139,39 L 141,41 L 141,43 L 142,44 L 142,46 L 144,48 L 144,50 L 145,51 L 145,52 L 146,53 L 146,55 L 147,56 L 147,57 L 148,58 L 148,59 L 149,60 L 149,62 L 145,66 L 145,67 L 144,68 L 144,71 L 143,72 L 129,72 L 128,71 L 127,71 L 126,72 L 122,72 L 121,71 L 116,71 L 115,70 L 94,70 L 93,69 L 92,69 L 89,66 L 89,63 L 88,62 L 88,61 L 87,60 L 87,59 L 85,57 L 84,57 L 83,56 L 73,56 L 71,58 L 70,58 L 68,60 L 68,61 L 67,62 L 62,62 L 61,61 L 59,61 L 58,60 L 56,60 L 55,59 L 53,59 L 52,58 L 48,58 L 47,57 L 46,57 L 45,56 L 43,56 L 41,54 L 36,54 L 35,53 L 34,53 L 33,52 L 31,52 L 29,50 L 28,50 L 27,49 L 27,46 L 28,45 L 28,42 L 27,41 L 27,37 L 26,36 L 26,35 L 29,32 L 29,30 L 30,29 L 30,28 L 34,24 L 35,24 L 36,25 L 42,25 L 43,24 L 44,24 L 45,23 L 46,23 L 48,21 L 49,21 L 51,19 L 51,17 L 53,15 L 53,10 L 52,10 L 51,9 L 51,5 L 50,4 L 49,4 L 45,0 Z" fill="black" /><path d="M 46,0 L 49,3 L 50,3 L 52,5 L 52,9 L 53,9 L 54,10 L 54,15 L 52,17 L 52,19 L 49,22 L 48,22 L 46,24 L 45,24 L 44,25 L 43,25 L 42,26 L 36,26 L 35,25 L 34,25 L 31,28 L 31,29 L 30,30 L 30,32 L 27,35 L 27,36 L 28,37 L 28,41 L 29,42 L 29,45 L 28,46 L 28,49 L 29,49 L 31,51 L 33,51 L 34,52 L 35,52 L 36,53 L 41,53 L 43,55 L 45,55 L 46,56 L 47,56 L 48,57 L 52,57 L 53,58 L 55,58 L 56,59 L 58,59 L 59,60 L 61,60 L 62,61 L 67,61 L 67,60 L 70,57 L 71,57 L 73,55 L 83,55 L 84,56 L 85,56 L 88,59 L 88,60 L 89,61 L 89,62 L 90,63 L 90,66 L 92,68 L 93,68 L 94,69 L 115,69 L 116,70 L 121,70 L 122,71 L 126,71 L 127,70 L 128,70 L 129,71 L 143,71 L 143,68 L 144,67 L 144,66 L 148,62 L 148,60 L 147,59 L 147,58 L 146,57 L 146,56 L 145,55 L 145,53 L 144,52 L 144,51 L 143,50 L 143,48 L 141,46 L 141,44 L 140,43 L 140,41 L 139,40 L 131,40 L 130,39 L 129,39 L 128,38 L 127,38 L 122,33 L 122,32 L 121,31 L 121,22 L 123,20 L 123,19 L 124,18 L 124,17 L 126,15 L 127,15 L 129,13 L 139,13 L 140,14 L 141,14 L 142,15 L 143,15 L 147,19 L 147,21 L 148,22 L 148,29 L 147,30 L 147,32 L 145,34 L 144,34 L 144,38 L 146,40 L 146,43 L 147,44 L 147,45 L 148,46 L 148,47 L 150,49 L 150,50 L 152,52 L 152,57 L 156,61 L 161,61 L 162,62 L 163,62 L 164,63 L 165,63 L 166,64 L 166,65 L 167,66 L 168,66 L 169,65 L 170,65 L 172,63 L 173,63 L 173,62 L 176,59 L 178,59 L 178,58 L 181,55 L 182,55 L 186,51 L 187,51 L 189,49 L 189,48 L 190,47 L 191,47 L 195,43 L 195,35 L 197,33 L 197,31 L 196,30 L 195,30 L 193,28 L 192,28 L 188,24 L 182,24 L 181,25 L 180,25 L 179,26 L 175,26 L 173,24 L 172,24 L 170,22 L 169,22 L 167,20 L 167,19 L 165,17 L 165,6 L 171,0 Z" fill="none" stroke="black" stroke-width="1" /><path d="M 0,0 L 0,219 L 255,219 L 255,0 L 183,0 L 185,0 L 191,6 L 191,7 L 192,8 L 192,15 L 191,16 L 191,17 L 190,18 L 190,20 L 191,21 L 193,21 L 195,23 L 197,23 L 198,24 L 198,25 L 199,25 L 200,26 L 203,26 L 204,25 L 206,25 L 207,24 L 209,24 L 210,23 L 212,23 L 214,25 L 215,25 L 222,32 L 222,43 L 220,45 L 220,46 L 217,49 L 216,49 L 213,52 L 208,52 L 208,56 L 206,58 L 206,60 L 205,61 L 205,63 L 204,64 L 204,66 L 203,67 L 203,72 L 202,73 L 202,76 L 201,77 L 201,78 L 200,79 L 200,81 L 199,82 L 199,83 L 198,84 L 198,89 L 196,91 L 196,93 L 194,95 L 194,101 L 193,102 L 193,103 L 192,104 L 192,105 L 190,107 L 190,109 L 189,110 L 189,112 L 188,113 L 188,117 L 187,118 L 187,119 L 186,120 L 186,125 L 185,126 L 185,129 L 186,130 L 184,132 L 184,133 L 183,134 L 182,134 L 182,137 L 181,138 L 181,139 L 180,140 L 180,141 L 179,142 L 179,145 L 178,146 L 178,149 L 177,150 L 177,151 L 176,152 L 176,155 L 175,156 L 175,157 L 174,158 L 174,163 L 173,164 L 173,166 L 174,167 L 174,169 L 175,170 L 177,170 L 178,169 L 181,169 L 182,168 L 183,168 L 184,167 L 188,167 L 189,166 L 190,166 L 191,165 L 193,165 L 194,164 L 195,164 L 196,163 L 201,163 L 202,162 L 203,162 L 204,161 L 205,161 L 206,160 L 207,160 L 208,159 L 211,159 L 212,158 L 214,158 L 215,157 L 215,151 L 216,150 L 216,149 L 219,146 L 219,145 L 221,143 L 223,143 L 224,142 L 231,142 L 232,143 L 235,143 L 240,148 L 240,150 L 242,152 L 242,158 L 241,159 L 241,160 L 240,161 L 240,162 L 235,167 L 234,167 L 233,168 L 230,168 L 229,169 L 228,169 L 227,168 L 223,168 L 221,166 L 220,166 L 219,165 L 219,164 L 218,163 L 216,163 L 215,164 L 212,164 L 211,165 L 209,165 L 208,166 L 205,166 L 203,168 L 200,168 L 199,169 L 198,169 L 197,170 L 194,170 L 193,171 L 192,171 L 191,172 L 186,172 L 186,173 L 185,174 L 181,174 L 180,175 L 177,175 L 176,176 L 176,180 L 174,182 L 174,183 L 173,184 L 172,184 L 172,185 L 169,188 L 165,188 L 164,189 L 160,189 L 159,188 L 156,188 L 151,183 L 151,182 L 149,180 L 149,172 L 150,171 L 150,170 L 151,169 L 151,167 L 153,165 L 154,165 L 156,163 L 157,163 L 158,162 L 159,162 L 160,161 L 167,161 L 169,159 L 169,156 L 170,155 L 170,154 L 171,153 L 171,148 L 173,146 L 173,143 L 174,142 L 174,141 L 175,140 L 175,136 L 176,135 L 176,134 L 177,133 L 177,131 L 178,130 L 178,129 L 179,128 L 179,123 L 180,122 L 180,121 L 181,120 L 181,119 L 182,118 L 182,114 L 183,113 L 183,110 L 185,108 L 185,105 L 186,104 L 186,102 L 187,101 L 187,98 L 188,97 L 188,96 L 189,95 L 189,93 L 190,92 L 190,90 L 191,89 L 191,85 L 193,83 L 193,79 L 195,77 L 195,73 L 196,72 L 196,70 L 197,69 L 197,66 L 198,65 L 198,64 L 199,63 L 199,59 L 201,57 L 201,54 L 203,52 L 203,50 L 200,47 L 197,50 L 196,50 L 196,51 L 195,52 L 194,52 L 191,55 L 190,55 L 188,57 L 186,57 L 184,59 L 184,60 L 179,65 L 178,65 L 178,66 L 176,68 L 174,68 L 172,70 L 172,71 L 170,73 L 170,77 L 169,78 L 169,79 L 168,80 L 168,82 L 166,84 L 165,84 L 163,86 L 162,86 L 161,87 L 158,87 L 157,88 L 156,88 L 155,87 L 152,87 L 151,86 L 149,86 L 147,84 L 146,84 L 145,83 L 145,81 L 143,79 L 143,78 L 142,77 L 130,77 L 129,76 L 117,76 L 115,74 L 114,74 L 113,75 L 108,75 L 107,74 L 97,74 L 96,73 L 92,73 L 91,74 L 90,74 L 88,76 L 88,77 L 85,80 L 82,80 L 82,85 L 83,86 L 83,87 L 84,88 L 84,93 L 83,94 L 83,95 L 84,96 L 84,99 L 83,100 L 83,101 L 84,102 L 84,115 L 83,116 L 85,118 L 85,120 L 86,121 L 86,127 L 85,128 L 85,129 L 86,130 L 86,133 L 85,134 L 85,136 L 86,137 L 86,138 L 87,139 L 87,145 L 86,146 L 86,148 L 89,151 L 89,152 L 88,153 L 88,156 L 89,157 L 89,162 L 90,163 L 93,163 L 96,166 L 96,167 L 98,169 L 98,175 L 99,176 L 99,177 L 98,178 L 98,183 L 95,186 L 94,186 L 92,188 L 89,188 L 88,189 L 83,189 L 82,188 L 81,188 L 79,186 L 78,186 L 73,181 L 73,176 L 72,175 L 72,173 L 73,172 L 73,169 L 75,167 L 75,166 L 76,165 L 77,165 L 79,163 L 81,163 L 83,161 L 83,158 L 82,157 L 82,149 L 81,148 L 81,128 L 80,127 L 80,118 L 79,117 L 79,106 L 78,105 L 78,95 L 77,94 L 77,93 L 78,92 L 78,91 L 77,90 L 77,83 L 76,82 L 74,82 L 73,81 L 72,81 L 71,80 L 70,80 L 65,75 L 65,73 L 64,72 L 64,71 L 63,70 L 63,66 L 59,66 L 58,65 L 57,65 L 56,64 L 52,64 L 51,63 L 50,63 L 49,62 L 46,62 L 45,61 L 44,61 L 43,60 L 41,60 L 39,58 L 36,58 L 35,57 L 33,57 L 32,56 L 30,56 L 29,55 L 28,55 L 27,54 L 25,54 L 23,56 L 22,56 L 20,58 L 11,58 L 10,57 L 9,57 L 8,56 L 7,56 L 5,54 L 5,53 L 3,51 L 3,50 L 2,49 L 2,47 L 1,46 L 1,41 L 3,39 L 3,38 L 4,37 L 4,36 L 7,33 L 9,33 L 11,31 L 19,31 L 20,32 L 23,32 L 23,31 L 25,29 L 25,27 L 27,25 L 27,24 L 29,22 L 29,20 L 28,19 L 28,18 L 27,17 L 27,15 L 26,14 L 26,9 L 27,8 L 27,6 L 28,5 L 28,4 L 29,3 L 29,2 L 30,1 L 31,1 L 32,0 L 33,0 Z" fill="none" stroke="black" stroke-width="1" /></svg>