<?xml version="1.0" encoding="utf-8" ?>
<svg baseProfile="full" height="214" version="1.1" width="260" xmlns="http://www.w3.org/2000/svg" xmlns:ev="http://www.w3.org/2001/xml-events" xmlns:xlink="http://www.w3.org/1999/xlink"><defs /><rect fill="white" height="214" width="260" x="0" y="0" /><circle cx="239.38235473632812" cy="195.05882263183594" fill="none" r="8.631587028503418" stroke="black" stroke-width="1" /><circle cx="27.690475463867188" cy="186.7857208251953" fill="none" r="8.856022834777832" stroke="black" stroke-width="1" /><circle cx="98.11224365234375" cy="178.74490356445312" fill="none" r="8.745713233947754" stroke="black" stroke-width="1" /><circle cx="98.32353210449219" cy="178.6764678955078" fill="black" r="14.339593887329102" stroke="black" stroke-width="1" /><circle cx="139.5" cy="165.5" fill="none" r="8.276573181152344" stroke="black" stroke-width="1" /><circle cx="224.60203552246094" cy="140.13265991210938" fill="none" r="8.86257553100586" stroke="black" stroke-width="1" /><circle cx="186.85293579101562" cy="140.0" fill="none" r="9.076148986816406" stroke="black" stroke-width="1" /><circle cx="51.41709899902344" cy="133.6088104248047" fill="none" r="8.7324800491333" stroke="black" stroke-width="1" /><circle cx="99.68811798095703" cy="126.01485443115234" fill="none" r="8.341724395751953" stroke="black" stroke-width="1" /><circle cx="99.82353210449219" cy="125.82353210449219" fill="black" r="14.342674255371094" stroke="black" stroke-width="1" /><circle cx="102.64753723144531" cy="91.01366424560547" fill="none" r="8.413847923278809" stroke="black" stroke-width="1" /><circle cx="102.61111450195312" cy="91.16666412353516" fill="black" r="14.234689712524414" stroke="black" stroke-width="1" /><circle cx="101.5" cy="55.5" fill="none" r="9.300638198852539" stroke="black" stroke-width="1" /><circle cx="102.08064270019531" cy="55.725807189941406" fill="none" r="14.104013442993164" stroke="black" stroke-width="1" /><circle cx="164.47825622558594" cy="46.869564056396484" fill="none" r="8.263830184936523" stroke="black" stroke-width="1" /><circle cx="244.5" cy="42.5" fill="none" r="8.860122680664062" stroke="black" stroke-width="1" /><circle cx="41.934783935546875" cy="30.065217971801758" fill="none" r="9.127687454223633" stroke="black" stroke-width="1" /><path d="M 30,23 L 201,136 L 251,30 L 252,201 L 167,60 L 149,176 L 19,198 L 157,63 Z" fill="black" stroke="black" stroke-width="1" /><circle cx="105.5" cy="10.5" fill="none" r="8.746527671813965" stroke="black" stroke-width="1" /><path d="M 0,0 L 0,213 L 259,213 L 259,0 Z" fill="none" stroke="black" stroke-width="1" /></svg>