<?xml version='1.0' encoding='utf-8'?>
<svg width="260" height="214" xmlns="http://www.w3.org/2000/svg" viewBox="0 0 260 214"><rect width="260" height="214" fill="white" /><path d="M 95,166 L 94,167 L 93,167 L 92,168 L 90,168 L 90,169 L 87,172 L 87,173 L 86,174 L 86,183 L 87,184 L 87,185 L 88,186 L 88,187 L 89,187 L 92,190 L 93,190 L 94,191 L 98,191 L 99,192 L 100,191 L 103,191 L 106,188 L 108,188 L 109,187 L 109,184 L 110,183 L 110,182 L 111,181 L 111,176 L 109,174 L 109,173 L 108,172 L 108,171 L 104,167 L 103,167 L 102,166 Z" fill="black" /><path d="M 95,114 L 93,116 L 91,116 L 90,117 L 90,118 L 88,120 L 88,121 L 87,122 L 87,129 L 88,130 L 88,132 L 90,134 L 90,135 L 91,135 L 93,137 L 95,137 L 96,138 L 101,138 L 102,139 L 103,138 L 105,138 L 108,135 L 109,135 L 111,133 L 111,131 L 112,130 L 112,129 L 113,128 L 113,126 L 112,125 L 112,123 L 111,122 L 111,120 L 109,118 L 108,118 L 105,115 L 105,114 Z" fill="black" /><path d="M 102,78 L 101,79 L 100,79 L 99,80 L 96,80 L 93,83 L 92,83 L 92,85 L 90,87 L 90,95 L 91,96 L 91,97 L 92,98 L 92,99 L 94,101 L 96,101 L 97,102 L 98,102 L 99,103 L 107,103 L 108,102 L 109,102 L 110,101 L 111,101 L 113,99 L 113,98 L 115,96 L 115,87 L 111,83 L 111,81 L 110,80 L 108,80 L 107,79 L 104,79 L 103,78 Z" fill="black" /><path d="M 100,43 L 99,44 L 96,44 L 92,48 L 92,49 L 90,51 L 90,61 L 96,67 L 99,67 L 100,68 L 104,68 L 105,67 L 108,67 L 110,65 L 111,65 L 113,63 L 113,61 L 114,60 L 114,59 L 115,58 L 115,54 L 114,53 L 114,52 L 113,51 L 113,49 L 108,44 L 106,44 L 105,43 Z" fill="black" /><path d="M 40,17 L 39,18 L 36,18 L 31,23 L 31,24 L 30,25 L 30,35 L 33,38 L 33,39 L 34,40 L 35,40 L 37,42 L 46,42 L 47,41 L 49,41 L 53,37 L 53,36 L 55,34 L 55,32 L 56,31 L 65,31 L 66,32 L 76,32 L 77,33 L 93,33 L 94,34 L 97,34 L 98,35 L 109,35 L 110,36 L 114,36 L 115,37 L 130,37 L 131,38 L 136,38 L 137,39 L 144,39 L 145,40 L 149,40 L 150,41 L 151,41 L 152,42 L 152,45 L 151,46 L 151,47 L 152,48 L 152,51 L 154,53 L 154,55 L 155,56 L 156,56 L 158,58 L 158,63 L 157,64 L 157,67 L 156,68 L 156,72 L 155,73 L 155,75 L 154,76 L 154,82 L 153,83 L 153,87 L 152,88 L 152,94 L 151,95 L 151,96 L 150,97 L 150,105 L 149,106 L 149,107 L 148,108 L 148,113 L 147,114 L 147,116 L 146,117 L 146,122 L 145,123 L 145,124 L 144,125 L 144,131 L 143,132 L 143,133 L 142,134 L 142,140 L 141,141 L 141,143 L 140,144 L 140,149 L 139,150 L 139,151 L 138,152 L 137,152 L 135,154 L 134,154 L 133,155 L 132,155 L 131,156 L 124,156 L 123,155 L 122,155 L 121,154 L 119,154 L 118,153 L 116,153 L 115,152 L 112,152 L 111,151 L 110,151 L 109,150 L 106,150 L 105,149 L 103,149 L 102,148 L 99,148 L 98,147 L 97,147 L 96,146 L 95,146 L 93,144 L 88,144 L 86,142 L 83,142 L 82,141 L 81,141 L 80,140 L 76,140 L 75,139 L 74,139 L 73,138 L 71,138 L 70,137 L 68,137 L 67,136 L 66,136 L 64,134 L 64,130 L 63,129 L 63,128 L 62,127 L 62,126 L 58,122 L 55,122 L 53,120 L 50,120 L 49,121 L 48,121 L 47,122 L 45,122 L 43,124 L 42,124 L 42,125 L 40,127 L 40,128 L 39,129 L 39,136 L 40,137 L 40,139 L 44,143 L 44,144 L 45,145 L 45,146 L 44,147 L 44,148 L 43,149 L 43,150 L 42,151 L 42,152 L 41,153 L 41,154 L 40,155 L 40,157 L 38,159 L 38,160 L 37,161 L 37,162 L 36,163 L 36,165 L 35,166 L 35,167 L 34,168 L 34,169 L 33,170 L 33,171 L 32,172 L 32,173 L 31,174 L 29,174 L 27,176 L 22,176 L 21,177 L 20,177 L 18,179 L 18,180 L 16,182 L 16,185 L 15,186 L 15,187 L 16,188 L 16,193 L 18,195 L 18,196 L 19,197 L 20,197 L 22,199 L 25,199 L 26,200 L 29,200 L 30,199 L 33,199 L 34,198 L 35,198 L 38,195 L 39,195 L 39,193 L 41,191 L 41,184 L 39,182 L 38,182 L 37,181 L 37,178 L 35,176 L 35,174 L 37,172 L 37,170 L 38,169 L 39,169 L 39,166 L 40,165 L 40,164 L 41,163 L 41,162 L 43,160 L 43,158 L 44,157 L 45,157 L 45,153 L 47,151 L 47,150 L 50,147 L 51,147 L 52,146 L 54,146 L 55,145 L 57,145 L 58,144 L 59,144 L 62,141 L 63,141 L 64,140 L 66,140 L 67,139 L 68,140 L 69,140 L 70,141 L 73,141 L 75,143 L 79,143 L 81,145 L 85,145 L 87,147 L 91,147 L 93,149 L 97,149 L 99,151 L 101,151 L 102,152 L 103,152 L 104,153 L 107,153 L 109,155 L 112,155 L 113,156 L 114,156 L 115,157 L 117,157 L 118,158 L 119,158 L 120,159 L 124,159 L 126,161 L 126,165 L 127,166 L 127,169 L 128,170 L 128,172 L 133,177 L 134,177 L 135,178 L 137,178 L 138,179 L 142,179 L 143,178 L 144,178 L 145,177 L 146,177 L 146,176 L 147,175 L 149,175 L 149,174 L 151,172 L 151,170 L 152,169 L 152,161 L 147,156 L 146,156 L 143,153 L 143,147 L 144,146 L 144,143 L 145,142 L 145,136 L 146,135 L 146,134 L 147,133 L 147,129 L 148,128 L 148,126 L 149,125 L 149,118 L 150,117 L 150,116 L 151,115 L 151,109 L 152,108 L 152,105 L 153,104 L 153,98 L 154,97 L 154,96 L 155,95 L 155,92 L 156,91 L 156,88 L 157,87 L 157,79 L 158,78 L 158,77 L 159,76 L 159,71 L 160,70 L 160,68 L 161,67 L 161,62 L 164,59 L 167,59 L 168,60 L 168,64 L 169,65 L 169,66 L 170,67 L 170,71 L 171,72 L 171,75 L 172,76 L 172,81 L 173,82 L 173,84 L 174,85 L 174,89 L 175,90 L 175,93 L 176,94 L 176,97 L 177,98 L 177,102 L 178,103 L 178,107 L 179,108 L 179,110 L 180,111 L 180,115 L 181,116 L 181,119 L 182,120 L 182,123 L 183,124 L 183,126 L 176,133 L 176,135 L 175,136 L 175,145 L 178,148 L 178,149 L 180,151 L 182,151 L 183,152 L 184,152 L 185,153 L 189,153 L 190,152 L 192,152 L 193,151 L 194,151 L 198,147 L 198,146 L 199,145 L 199,143 L 201,141 L 206,141 L 207,140 L 209,140 L 210,141 L 211,141 L 212,142 L 212,143 L 213,144 L 213,145 L 214,146 L 214,147 L 218,151 L 221,151 L 222,152 L 223,152 L 224,153 L 225,153 L 227,155 L 227,156 L 228,157 L 228,161 L 229,162 L 229,163 L 230,164 L 230,167 L 231,168 L 231,170 L 232,171 L 232,175 L 233,176 L 233,177 L 234,178 L 234,182 L 228,188 L 228,189 L 226,191 L 226,198 L 227,199 L 227,200 L 228,201 L 228,202 L 231,205 L 232,205 L 234,207 L 244,207 L 246,205 L 247,205 L 251,201 L 251,196 L 252,195 L 252,194 L 251,193 L 251,192 L 249,190 L 250,189 L 250,187 L 247,184 L 246,184 L 244,182 L 240,182 L 238,180 L 238,179 L 237,178 L 237,175 L 236,174 L 236,170 L 235,169 L 235,166 L 234,165 L 234,163 L 233,162 L 233,159 L 232,158 L 232,156 L 231,155 L 231,152 L 233,150 L 233,149 L 237,145 L 237,136 L 235,134 L 235,133 L 232,130 L 231,130 L 229,128 L 229,126 L 230,125 L 230,122 L 231,121 L 231,117 L 232,116 L 232,112 L 233,111 L 233,104 L 235,102 L 235,95 L 236,94 L 236,92 L 237,91 L 237,86 L 238,85 L 238,84 L 239,83 L 239,77 L 240,76 L 240,74 L 241,73 L 241,68 L 242,67 L 242,63 L 243,62 L 243,58 L 246,55 L 249,55 L 252,52 L 253,52 L 253,51 L 255,49 L 255,48 L 257,46 L 257,39 L 256,38 L 256,37 L 255,36 L 255,35 L 251,31 L 250,31 L 249,30 L 240,30 L 239,31 L 238,31 L 237,32 L 236,32 L 236,33 L 234,35 L 234,36 L 232,38 L 232,48 L 236,52 L 237,52 L 240,55 L 240,58 L 239,59 L 239,64 L 238,65 L 238,69 L 237,70 L 237,74 L 236,75 L 236,80 L 235,81 L 235,82 L 234,83 L 234,89 L 233,90 L 233,93 L 232,94 L 232,97 L 231,98 L 231,100 L 232,101 L 232,102 L 231,103 L 231,104 L 230,105 L 230,107 L 229,108 L 229,112 L 228,113 L 228,117 L 227,118 L 227,121 L 226,122 L 226,126 L 224,128 L 220,128 L 218,130 L 216,130 L 214,132 L 214,133 L 213,134 L 213,135 L 211,137 L 206,137 L 205,136 L 204,137 L 201,137 L 199,135 L 199,134 L 195,130 L 194,130 L 192,128 L 190,128 L 187,125 L 187,124 L 186,123 L 186,121 L 185,120 L 185,118 L 184,117 L 184,114 L 183,113 L 183,106 L 181,104 L 181,100 L 180,99 L 180,98 L 181,97 L 180,96 L 180,94 L 179,93 L 179,89 L 178,88 L 178,87 L 177,86 L 177,79 L 175,77 L 175,71 L 174,70 L 174,68 L 173,67 L 173,60 L 172,59 L 172,57 L 175,54 L 175,52 L 177,50 L 177,44 L 176,43 L 176,41 L 174,39 L 174,38 L 172,36 L 171,36 L 169,34 L 166,34 L 165,33 L 163,33 L 162,34 L 160,34 L 159,35 L 158,35 L 157,36 L 139,36 L 138,35 L 132,35 L 131,34 L 116,34 L 115,33 L 111,33 L 110,32 L 97,32 L 96,31 L 95,31 L 94,30 L 92,30 L 91,31 L 89,31 L 88,30 L 77,30 L 75,28 L 57,28 L 54,25 L 54,24 L 53,23 L 53,22 L 52,22 L 51,21 L 51,20 L 49,18 L 44,18 L 43,17 Z" fill="black" /><path d="M 100,0 L 99,1 L 98,1 L 96,3 L 96,4 L 94,6 L 94,7 L 93,8 L 93,11 L 94,12 L 94,16 L 96,18 L 96,19 L 98,21 L 99,21 L 100,22 L 101,22 L 102,23 L 110,23 L 111,22 L 112,22 L 117,17 L 117,16 L 118,15 L 118,9 L 117,8 L 117,5 L 113,1 L 113,0 Z" fill="black" /></svg>