<?xml version='1.0' encoding='utf-8'?>
<svg width="260" height="220" xmlns="http://www.w3.org/2000/svg" viewBox="0 0 260 220"><rect width="260" height="220" fill="white" /><path d="M 181,194 L 179,196 L 178,196 L 176,198 L 176,199 L 175,200 L 174,200 L 174,202 L 173,203 L 173,209 L 174,210 L 174,212 L 176,214 L 176,215 L 177,215 L 180,218 L 182,218 L 183,219 L 184,219 L 185,218 L 186,219 L 189,219 L 191,217 L 193,217 L 197,213 L 197,212 L 198,211 L 198,210 L 199,209 L 199,203 L 198,202 L 198,201 L 197,200 L 197,198 L 196,198 L 194,196 L 192,196 L 191,195 L 188,195 L 187,194 Z" fill="black" /><path d="M 181,140 L 180,141 L 179,141 L 178,142 L 177,142 L 173,146 L 173,147 L 172,148 L 172,151 L 171,152 L 171,154 L 172,155 L 172,159 L 173,159 L 176,162 L 176,163 L 177,163 L 179,165 L 189,165 L 191,163 L 193,163 L 195,161 L 195,160 L 197,158 L 197,153 L 198,152 L 197,151 L 197,148 L 195,146 L 194,146 L 192,144 L 192,143 L 191,142 L 189,142 L 187,140 Z" fill="black" /><path d="M 187,84 L 186,85 L 184,85 L 183,86 L 181,86 L 179,88 L 178,88 L 176,90 L 176,91 L 174,93 L 174,101 L 176,103 L 176,104 L 179,107 L 180,107 L 182,109 L 192,109 L 194,107 L 195,107 L 197,105 L 197,104 L 199,102 L 199,92 L 197,90 L 197,89 L 196,88 L 195,88 L 193,86 L 192,86 L 191,85 L 188,85 Z" fill="black" /><path d="M 184,40 L 183,41 L 182,41 L 181,42 L 180,42 L 176,46 L 176,47 L 175,48 L 175,49 L 174,50 L 174,55 L 175,56 L 175,57 L 176,58 L 176,60 L 178,62 L 178,63 L 179,63 L 181,65 L 185,65 L 186,66 L 189,66 L 190,65 L 192,65 L 194,63 L 195,63 L 199,59 L 199,58 L 200,57 L 200,56 L 201,55 L 201,51 L 199,49 L 199,47 L 198,47 L 197,46 L 197,44 L 195,42 L 193,42 L 191,40 L 190,40 L 189,41 L 188,41 L 187,40 Z" fill="black" /><path d="M 144,26 L 143,27 L 142,27 L 141,28 L 139,28 L 135,32 L 135,33 L 134,34 L 134,36 L 133,37 L 133,39 L 134,40 L 134,45 L 136,47 L 136,48 L 138,50 L 138,52 L 136,54 L 136,57 L 135,58 L 135,59 L 134,60 L 134,62 L 133,63 L 133,64 L 132,65 L 132,68 L 131,69 L 131,70 L 130,71 L 130,73 L 129,74 L 129,75 L 128,76 L 128,79 L 126,81 L 126,83 L 125,84 L 125,85 L 124,86 L 124,88 L 123,89 L 123,90 L 122,91 L 122,94 L 121,95 L 121,96 L 118,99 L 112,99 L 110,97 L 110,96 L 109,95 L 109,93 L 107,91 L 107,89 L 106,88 L 106,86 L 105,85 L 105,83 L 104,82 L 104,81 L 103,80 L 103,76 L 101,74 L 101,72 L 100,71 L 100,70 L 99,69 L 99,66 L 98,66 L 97,65 L 97,62 L 96,61 L 96,60 L 95,59 L 95,57 L 94,56 L 94,55 L 98,51 L 99,51 L 101,49 L 101,48 L 103,46 L 103,38 L 102,37 L 102,36 L 98,32 L 97,32 L 95,30 L 93,30 L 92,29 L 91,29 L 90,28 L 89,29 L 86,29 L 85,30 L 83,30 L 81,32 L 80,32 L 80,33 L 78,35 L 78,37 L 77,38 L 77,45 L 78,46 L 78,47 L 79,48 L 79,49 L 81,51 L 82,51 L 84,53 L 86,53 L 87,54 L 88,54 L 90,56 L 90,57 L 91,58 L 91,59 L 92,60 L 92,63 L 94,65 L 94,67 L 95,68 L 95,69 L 96,70 L 96,72 L 97,73 L 97,74 L 98,75 L 98,77 L 99,78 L 99,79 L 100,80 L 100,83 L 101,84 L 101,85 L 102,86 L 102,89 L 104,91 L 104,93 L 105,94 L 105,95 L 106,96 L 106,97 L 107,97 L 108,98 L 108,101 L 104,105 L 101,105 L 100,104 L 96,104 L 95,103 L 95,102 L 93,102 L 92,101 L 91,101 L 90,100 L 88,100 L 86,98 L 84,98 L 83,97 L 82,97 L 81,96 L 80,96 L 79,95 L 78,95 L 77,94 L 75,94 L 72,91 L 72,88 L 71,87 L 71,85 L 69,83 L 69,81 L 68,80 L 66,80 L 64,78 L 62,78 L 61,77 L 59,77 L 58,78 L 53,78 L 51,80 L 50,80 L 48,82 L 48,83 L 47,84 L 47,85 L 46,86 L 46,93 L 47,94 L 47,95 L 48,96 L 48,97 L 50,99 L 51,99 L 52,100 L 53,100 L 54,101 L 55,101 L 56,102 L 56,135 L 53,138 L 52,138 L 51,139 L 50,139 L 50,140 L 46,144 L 46,147 L 45,148 L 45,150 L 44,151 L 44,153 L 45,154 L 45,155 L 48,158 L 48,159 L 50,161 L 51,161 L 52,162 L 53,162 L 54,163 L 62,163 L 63,162 L 65,162 L 66,163 L 67,163 L 68,164 L 68,165 L 74,171 L 75,171 L 80,176 L 80,177 L 81,177 L 85,181 L 86,181 L 94,189 L 94,193 L 93,194 L 93,195 L 92,196 L 92,198 L 90,200 L 77,200 L 76,201 L 70,201 L 69,202 L 59,202 L 57,200 L 57,197 L 54,194 L 53,194 L 51,192 L 40,192 L 39,193 L 38,193 L 36,195 L 36,196 L 34,198 L 34,199 L 33,200 L 33,201 L 32,202 L 32,205 L 33,206 L 33,207 L 34,208 L 34,210 L 36,212 L 36,213 L 38,215 L 41,215 L 42,216 L 49,216 L 50,215 L 53,215 L 53,214 L 56,211 L 56,210 L 57,209 L 58,209 L 58,208 L 60,206 L 61,206 L 62,205 L 75,205 L 76,204 L 79,204 L 80,205 L 81,205 L 82,204 L 84,204 L 85,203 L 94,203 L 96,205 L 97,205 L 100,208 L 101,208 L 102,209 L 111,209 L 117,203 L 117,202 L 120,199 L 121,199 L 122,198 L 124,198 L 125,197 L 129,197 L 130,196 L 135,196 L 136,195 L 138,195 L 139,194 L 143,194 L 144,193 L 149,193 L 150,192 L 153,192 L 154,191 L 161,191 L 162,190 L 163,190 L 164,189 L 170,189 L 171,188 L 172,188 L 173,187 L 177,187 L 178,186 L 181,186 L 182,185 L 189,185 L 190,184 L 191,184 L 192,183 L 197,183 L 201,187 L 202,187 L 204,189 L 207,189 L 208,190 L 211,190 L 212,189 L 215,189 L 217,187 L 218,187 L 219,186 L 219,185 L 221,183 L 221,181 L 222,180 L 222,176 L 221,175 L 221,172 L 219,170 L 219,169 L 216,166 L 214,166 L 213,165 L 205,165 L 204,166 L 202,166 L 202,167 L 201,168 L 200,168 L 198,170 L 198,173 L 197,174 L 197,175 L 196,176 L 196,177 L 193,180 L 188,180 L 187,181 L 185,181 L 184,182 L 178,182 L 177,183 L 174,183 L 173,184 L 170,184 L 169,185 L 165,185 L 164,186 L 155,186 L 154,187 L 153,187 L 152,188 L 148,188 L 147,189 L 143,189 L 142,190 L 138,190 L 137,191 L 135,191 L 134,192 L 128,192 L 127,193 L 126,193 L 125,194 L 120,194 L 119,193 L 119,192 L 117,190 L 117,189 L 115,187 L 115,186 L 113,186 L 111,184 L 100,184 L 100,185 L 99,186 L 96,186 L 90,180 L 89,180 L 87,178 L 87,177 L 86,176 L 85,176 L 77,168 L 75,168 L 73,166 L 73,164 L 72,164 L 71,163 L 70,163 L 69,162 L 69,155 L 70,154 L 70,152 L 71,151 L 71,148 L 70,147 L 70,146 L 69,145 L 69,143 L 68,142 L 66,142 L 63,139 L 62,139 L 61,138 L 61,136 L 60,135 L 60,128 L 61,127 L 61,124 L 60,123 L 60,110 L 61,109 L 61,103 L 63,101 L 65,101 L 67,99 L 67,98 L 68,97 L 69,97 L 70,96 L 72,96 L 73,97 L 75,97 L 76,98 L 77,98 L 78,99 L 81,99 L 82,100 L 82,101 L 84,101 L 86,103 L 87,103 L 88,104 L 89,104 L 90,105 L 92,105 L 94,107 L 97,107 L 98,108 L 101,108 L 102,109 L 102,114 L 104,116 L 104,118 L 106,120 L 106,121 L 108,123 L 109,123 L 110,124 L 111,124 L 112,125 L 119,125 L 120,124 L 121,124 L 122,123 L 123,123 L 125,121 L 125,118 L 126,117 L 130,117 L 131,118 L 132,118 L 133,119 L 137,119 L 138,120 L 141,120 L 142,121 L 147,121 L 148,122 L 151,122 L 152,123 L 155,123 L 156,124 L 159,124 L 160,125 L 167,125 L 169,127 L 175,127 L 176,128 L 178,128 L 179,129 L 186,129 L 187,130 L 188,130 L 189,131 L 194,131 L 195,132 L 198,132 L 199,133 L 203,133 L 204,134 L 206,134 L 207,135 L 211,135 L 212,136 L 218,136 L 219,137 L 220,137 L 221,138 L 221,144 L 222,145 L 222,147 L 226,151 L 227,151 L 229,153 L 239,153 L 240,152 L 241,152 L 242,151 L 243,151 L 243,150 L 245,148 L 245,147 L 246,146 L 246,140 L 247,139 L 247,136 L 246,136 L 245,135 L 245,132 L 244,132 L 241,129 L 240,129 L 239,128 L 234,128 L 233,127 L 233,120 L 232,119 L 232,111 L 231,110 L 231,94 L 230,93 L 230,89 L 229,88 L 229,72 L 228,71 L 228,64 L 227,63 L 227,55 L 229,53 L 230,53 L 231,52 L 232,52 L 235,49 L 235,48 L 236,47 L 236,45 L 237,44 L 237,37 L 236,36 L 236,35 L 234,33 L 234,32 L 232,30 L 231,30 L 229,28 L 221,28 L 219,30 L 218,30 L 217,31 L 216,31 L 214,33 L 214,34 L 212,36 L 212,45 L 213,46 L 213,47 L 219,53 L 221,53 L 223,55 L 223,61 L 224,62 L 224,77 L 225,78 L 225,82 L 226,83 L 226,96 L 227,97 L 227,101 L 228,102 L 228,118 L 229,119 L 229,123 L 230,124 L 230,127 L 224,133 L 222,133 L 221,132 L 210,132 L 209,131 L 205,131 L 204,130 L 198,130 L 197,129 L 196,129 L 195,128 L 188,128 L 187,127 L 186,127 L 185,126 L 179,126 L 177,124 L 172,124 L 171,123 L 170,123 L 169,122 L 164,122 L 163,121 L 160,121 L 159,120 L 153,120 L 151,118 L 147,118 L 146,117 L 141,117 L 140,116 L 136,116 L 135,115 L 134,115 L 133,114 L 130,114 L 129,113 L 129,108 L 128,107 L 128,106 L 125,103 L 125,102 L 124,101 L 124,97 L 125,96 L 125,95 L 127,93 L 127,88 L 128,87 L 129,87 L 129,84 L 130,83 L 130,82 L 131,81 L 131,79 L 132,78 L 132,75 L 135,72 L 135,70 L 136,69 L 136,68 L 137,67 L 137,65 L 139,63 L 139,59 L 141,57 L 141,55 L 144,52 L 149,52 L 150,51 L 153,51 L 155,49 L 155,48 L 159,44 L 159,36 L 157,34 L 157,33 L 155,31 L 155,30 L 153,28 L 151,28 L 150,27 L 148,27 L 147,26 Z" fill="black" /><path d="M 183,2 L 182,3 L 181,3 L 180,4 L 179,4 L 178,5 L 178,6 L 176,8 L 176,9 L 174,11 L 174,19 L 176,21 L 176,23 L 178,25 L 179,25 L 180,26 L 181,26 L 182,27 L 188,27 L 189,28 L 191,28 L 194,25 L 195,25 L 197,23 L 197,22 L 199,20 L 199,17 L 200,16 L 200,13 L 199,12 L 199,10 L 197,8 L 197,6 L 195,4 L 191,4 L 190,3 L 190,2 Z" fill="black" /></svg>