<?xml version='1.0' encoding='utf-8'?>
<svg width="261" height="220" xmlns="http://www.w3.org/2000/svg" viewBox="0 0 261 220"><rect width="261" height="220" fill="white" /><path d="M 121,151 L 120,152 L 119,152 L 117,154 L 116,154 L 115,155 L 115,156 L 113,158 L 113,159 L 112,160 L 112,161 L 111,162 L 111,164 L 112,165 L 112,169 L 113,170 L 113,171 L 118,176 L 120,176 L 121,177 L 128,177 L 129,176 L 130,176 L 131,175 L 132,175 L 133,174 L 134,174 L 136,172 L 136,171 L 138,169 L 138,161 L 136,159 L 136,157 L 135,156 L 134,156 L 133,155 L 133,154 L 131,152 L 127,152 L 126,151 Z" fill="black" /><path d="M 123,100 L 121,102 L 120,102 L 118,104 L 117,104 L 117,105 L 115,107 L 115,116 L 117,118 L 117,119 L 121,123 L 122,123 L 123,124 L 124,124 L 125,125 L 130,125 L 131,124 L 133,124 L 134,123 L 136,123 L 138,121 L 138,120 L 139,119 L 139,118 L 140,117 L 140,116 L 141,115 L 141,110 L 140,109 L 140,106 L 138,104 L 138,103 L 137,103 L 136,102 L 135,102 L 133,100 Z" fill="black" /><path d="M 123,62 L 122,63 L 121,63 L 120,64 L 118,64 L 116,66 L 116,67 L 115,68 L 115,70 L 114,71 L 114,77 L 115,78 L 115,80 L 117,82 L 117,83 L 118,83 L 119,84 L 120,84 L 121,85 L 122,85 L 123,86 L 130,86 L 131,85 L 134,85 L 138,81 L 138,78 L 139,77 L 139,74 L 140,73 L 140,71 L 138,69 L 138,68 L 136,66 L 135,66 L 132,63 L 131,63 L 130,62 Z" fill="black" /><path d="M 126,10 L 125,11 L 123,11 L 122,12 L 121,12 L 120,13 L 119,13 L 118,14 L 117,14 L 115,16 L 115,21 L 117,23 L 117,24 L 115,26 L 115,29 L 121,35 L 132,35 L 136,31 L 137,31 L 138,30 L 138,27 L 139,26 L 139,25 L 140,24 L 140,21 L 138,19 L 138,18 L 136,16 L 136,14 L 135,13 L 133,13 L 132,12 L 130,12 L 129,11 L 127,11 Z" fill="black" /><path d="M 179,5 L 178,6 L 177,6 L 177,7 L 176,8 L 175,8 L 173,10 L 173,11 L 171,13 L 171,18 L 170,19 L 171,20 L 171,22 L 173,24 L 173,25 L 175,27 L 173,29 L 173,30 L 171,32 L 171,33 L 170,34 L 170,35 L 169,36 L 169,38 L 168,39 L 168,40 L 167,41 L 167,42 L 165,44 L 159,44 L 158,45 L 157,45 L 156,46 L 155,46 L 154,47 L 153,47 L 152,48 L 152,49 L 147,54 L 145,54 L 144,53 L 141,53 L 140,52 L 133,52 L 132,51 L 128,51 L 127,50 L 122,50 L 121,49 L 119,49 L 118,48 L 111,48 L 110,47 L 106,47 L 105,46 L 101,46 L 100,45 L 95,45 L 94,44 L 89,44 L 88,43 L 87,43 L 86,42 L 78,42 L 77,41 L 74,41 L 73,40 L 69,40 L 68,39 L 66,39 L 65,38 L 59,38 L 57,36 L 57,33 L 56,32 L 56,30 L 50,24 L 40,24 L 39,25 L 37,25 L 34,28 L 34,29 L 33,30 L 32,30 L 32,31 L 31,32 L 31,39 L 32,40 L 32,41 L 33,42 L 33,43 L 34,44 L 34,45 L 37,48 L 38,48 L 39,49 L 41,49 L 43,51 L 43,61 L 44,62 L 44,64 L 45,65 L 45,74 L 46,75 L 46,78 L 47,79 L 47,83 L 44,86 L 43,86 L 43,87 L 42,88 L 41,88 L 39,90 L 39,91 L 37,93 L 37,97 L 36,98 L 37,99 L 37,103 L 39,105 L 39,107 L 37,109 L 36,109 L 35,110 L 35,111 L 34,112 L 33,112 L 31,114 L 31,116 L 29,118 L 29,119 L 28,120 L 27,120 L 27,121 L 24,124 L 20,124 L 19,123 L 17,123 L 16,122 L 14,122 L 13,123 L 11,123 L 10,124 L 9,124 L 8,125 L 7,125 L 5,127 L 5,128 L 3,130 L 3,131 L 2,132 L 2,138 L 3,139 L 3,142 L 5,144 L 5,145 L 7,147 L 8,147 L 9,148 L 10,148 L 11,149 L 20,149 L 20,148 L 21,147 L 23,147 L 26,144 L 26,142 L 28,140 L 28,131 L 27,130 L 27,127 L 29,125 L 30,125 L 30,124 L 33,121 L 33,120 L 36,117 L 36,116 L 37,115 L 38,115 L 38,114 L 43,109 L 45,109 L 46,110 L 48,110 L 49,111 L 50,111 L 51,110 L 54,110 L 55,109 L 56,109 L 57,108 L 58,108 L 59,107 L 61,107 L 63,109 L 64,109 L 66,111 L 67,111 L 71,115 L 73,115 L 77,119 L 78,119 L 79,120 L 79,121 L 81,121 L 83,123 L 84,123 L 86,125 L 88,125 L 89,126 L 89,130 L 87,132 L 87,140 L 89,142 L 89,143 L 90,144 L 90,148 L 86,152 L 85,152 L 85,153 L 84,154 L 83,154 L 83,155 L 82,156 L 81,156 L 81,157 L 80,158 L 79,158 L 79,159 L 62,176 L 59,176 L 58,175 L 52,175 L 51,176 L 49,176 L 48,177 L 47,177 L 46,178 L 45,178 L 43,180 L 43,181 L 42,182 L 42,184 L 41,185 L 41,192 L 43,194 L 43,195 L 47,199 L 49,199 L 51,201 L 59,201 L 61,199 L 62,199 L 63,198 L 64,198 L 64,197 L 66,195 L 66,191 L 67,190 L 67,184 L 66,183 L 66,179 L 78,167 L 78,166 L 79,165 L 80,165 L 84,161 L 84,160 L 85,159 L 86,159 L 90,155 L 91,155 L 92,154 L 92,152 L 95,149 L 106,149 L 108,147 L 109,147 L 110,146 L 110,145 L 112,143 L 112,142 L 115,139 L 123,139 L 124,138 L 126,138 L 127,139 L 128,139 L 129,138 L 138,138 L 139,137 L 144,137 L 145,138 L 151,138 L 152,137 L 170,137 L 173,140 L 173,141 L 174,141 L 175,142 L 175,143 L 179,147 L 180,147 L 182,149 L 183,149 L 185,151 L 185,165 L 186,166 L 186,170 L 187,171 L 187,186 L 188,187 L 188,189 L 186,191 L 185,191 L 184,192 L 184,193 L 183,194 L 183,195 L 182,196 L 182,198 L 180,200 L 162,200 L 161,201 L 160,201 L 159,200 L 145,200 L 144,201 L 140,201 L 139,200 L 138,201 L 127,201 L 126,200 L 121,200 L 120,201 L 115,201 L 113,199 L 113,198 L 112,197 L 112,194 L 110,192 L 108,192 L 106,190 L 102,190 L 101,189 L 96,189 L 95,190 L 93,190 L 91,192 L 91,193 L 90,194 L 89,194 L 89,196 L 87,198 L 87,205 L 88,206 L 88,207 L 89,208 L 89,209 L 93,213 L 96,213 L 97,214 L 98,214 L 99,215 L 102,215 L 103,214 L 104,214 L 105,213 L 108,213 L 110,211 L 110,210 L 111,209 L 112,209 L 112,208 L 115,205 L 136,205 L 137,204 L 146,204 L 147,205 L 148,205 L 149,204 L 163,204 L 164,203 L 169,203 L 170,204 L 172,204 L 173,203 L 176,203 L 177,204 L 181,204 L 183,206 L 183,208 L 184,208 L 188,212 L 189,212 L 190,213 L 192,213 L 193,214 L 196,214 L 197,213 L 201,213 L 206,208 L 206,207 L 208,205 L 208,198 L 207,197 L 207,196 L 206,195 L 206,193 L 202,189 L 201,189 L 200,188 L 195,188 L 192,185 L 192,184 L 190,182 L 190,181 L 192,179 L 192,177 L 191,176 L 191,175 L 192,174 L 192,173 L 191,172 L 191,170 L 190,169 L 190,164 L 189,163 L 189,162 L 190,161 L 190,157 L 189,156 L 189,153 L 188,152 L 188,150 L 191,147 L 192,147 L 193,146 L 194,146 L 198,142 L 198,138 L 199,137 L 199,134 L 198,133 L 198,132 L 197,131 L 197,130 L 196,129 L 196,127 L 202,121 L 203,121 L 203,120 L 208,115 L 208,114 L 209,113 L 210,113 L 210,112 L 211,111 L 212,111 L 212,110 L 213,109 L 214,109 L 216,107 L 216,106 L 220,102 L 223,102 L 224,103 L 230,103 L 232,105 L 232,106 L 233,107 L 233,110 L 235,112 L 235,116 L 236,117 L 236,118 L 237,119 L 237,123 L 238,124 L 238,125 L 239,126 L 239,129 L 240,130 L 240,132 L 241,133 L 241,136 L 242,137 L 242,139 L 243,140 L 243,141 L 244,142 L 244,144 L 241,147 L 241,148 L 239,150 L 239,151 L 238,152 L 238,153 L 237,154 L 237,159 L 238,160 L 238,161 L 239,162 L 239,164 L 243,168 L 244,168 L 245,169 L 250,169 L 251,170 L 252,170 L 253,169 L 257,169 L 258,168 L 258,167 L 260,165 L 260,146 L 258,146 L 257,145 L 256,145 L 255,144 L 254,144 L 253,143 L 249,143 L 248,142 L 248,138 L 247,137 L 247,136 L 246,135 L 246,134 L 245,133 L 245,130 L 244,129 L 244,128 L 242,126 L 242,121 L 241,120 L 241,118 L 240,117 L 240,114 L 239,113 L 239,112 L 238,111 L 238,110 L 236,108 L 237,107 L 237,106 L 236,105 L 236,104 L 237,103 L 237,102 L 236,101 L 236,100 L 238,98 L 239,98 L 241,96 L 241,95 L 242,94 L 242,86 L 240,84 L 240,83 L 238,81 L 238,80 L 237,80 L 234,77 L 234,70 L 233,69 L 233,68 L 232,67 L 232,66 L 233,65 L 233,59 L 234,58 L 234,55 L 233,54 L 234,53 L 234,51 L 233,50 L 233,46 L 234,45 L 233,44 L 233,42 L 234,41 L 234,39 L 238,35 L 239,35 L 239,34 L 241,32 L 241,31 L 242,30 L 242,23 L 241,22 L 241,21 L 239,19 L 239,18 L 235,14 L 233,14 L 232,13 L 225,13 L 224,14 L 222,14 L 220,16 L 219,16 L 219,17 L 217,19 L 217,20 L 215,22 L 215,29 L 216,30 L 216,31 L 217,32 L 217,33 L 218,33 L 219,34 L 219,35 L 221,37 L 222,37 L 223,38 L 224,38 L 225,39 L 228,39 L 229,40 L 229,57 L 228,58 L 229,59 L 229,75 L 227,77 L 224,77 L 223,78 L 222,78 L 216,84 L 216,85 L 215,86 L 215,93 L 216,94 L 216,95 L 217,96 L 217,98 L 215,100 L 215,101 L 214,102 L 213,102 L 213,103 L 210,106 L 209,106 L 209,107 L 208,108 L 207,108 L 207,109 L 206,110 L 205,110 L 205,111 L 204,112 L 203,112 L 203,113 L 202,114 L 201,114 L 201,115 L 200,116 L 199,116 L 199,117 L 192,124 L 189,124 L 188,123 L 181,123 L 180,124 L 179,124 L 178,125 L 177,125 L 175,127 L 175,128 L 173,130 L 173,131 L 171,133 L 157,133 L 156,134 L 115,134 L 112,131 L 112,130 L 110,128 L 110,127 L 109,127 L 107,125 L 106,125 L 105,124 L 100,124 L 99,123 L 98,124 L 92,124 L 90,122 L 89,122 L 88,121 L 87,121 L 84,118 L 83,118 L 82,117 L 82,116 L 81,116 L 80,115 L 79,115 L 78,114 L 77,114 L 75,112 L 74,112 L 70,108 L 68,108 L 66,106 L 65,106 L 62,103 L 62,94 L 60,92 L 60,90 L 56,86 L 55,86 L 54,85 L 53,85 L 51,83 L 51,82 L 50,81 L 50,73 L 49,72 L 49,69 L 48,68 L 48,57 L 47,56 L 47,51 L 49,49 L 50,49 L 50,48 L 51,47 L 52,47 L 57,42 L 61,42 L 62,43 L 68,43 L 69,44 L 72,44 L 73,45 L 81,45 L 82,46 L 83,46 L 84,47 L 91,47 L 92,48 L 95,48 L 96,49 L 104,49 L 105,50 L 106,50 L 107,51 L 114,51 L 115,52 L 118,52 L 119,53 L 126,53 L 127,54 L 129,54 L 130,55 L 138,55 L 140,57 L 150,57 L 151,58 L 151,59 L 150,60 L 150,61 L 149,62 L 151,64 L 151,65 L 153,67 L 153,68 L 154,69 L 156,69 L 157,70 L 158,70 L 159,71 L 164,71 L 166,69 L 168,69 L 169,68 L 170,68 L 172,66 L 172,65 L 174,63 L 174,62 L 175,61 L 175,55 L 174,54 L 174,52 L 173,51 L 173,50 L 172,50 L 169,47 L 169,45 L 170,44 L 170,43 L 172,41 L 172,40 L 174,38 L 174,37 L 175,36 L 175,33 L 178,30 L 179,30 L 180,31 L 187,31 L 188,30 L 189,30 L 190,29 L 191,29 L 194,26 L 194,25 L 196,23 L 196,14 L 195,13 L 195,12 L 194,11 L 194,10 L 192,8 L 191,8 L 190,7 L 188,7 L 187,6 L 186,6 L 185,5 Z" fill="black" /><path d="M 0,0 L 0,219 L 260,219 L 260,166 L 259,167 L 259,168 L 257,170 L 253,170 L 252,171 L 251,171 L 250,170 L 245,170 L 244,169 L 243,169 L 238,164 L 238,162 L 237,161 L 237,160 L 236,159 L 236,154 L 237,153 L 237,152 L 238,151 L 238,150 L 240,148 L 240,147 L 243,144 L 243,142 L 242,141 L 242,140 L 241,139 L 241,137 L 240,136 L 240,133 L 239,132 L 239,130 L 238,129 L 238,126 L 237,125 L 237,124 L 236,123 L 236,119 L 235,118 L 235,117 L 234,116 L 234,112 L 232,110 L 232,107 L 231,106 L 231,105 L 230,104 L 224,104 L 223,103 L 220,103 L 217,106 L 217,107 L 214,110 L 213,110 L 213,111 L 212,112 L 211,112 L 211,113 L 210,114 L 209,114 L 209,115 L 204,120 L 204,121 L 203,122 L 202,122 L 197,127 L 197,129 L 198,130 L 198,131 L 199,132 L 199,133 L 200,134 L 200,137 L 199,138 L 199,142 L 194,147 L 193,147 L 192,148 L 191,148 L 189,150 L 189,152 L 190,153 L 190,156 L 191,157 L 191,161 L 190,162 L 190,163 L 191,164 L 191,169 L 192,170 L 192,172 L 193,173 L 193,174 L 192,175 L 192,176 L 193,177 L 193,179 L 191,181 L 191,182 L 193,184 L 193,185 L 195,187 L 200,187 L 201,188 L 202,188 L 207,193 L 207,195 L 208,196 L 208,197 L 209,198 L 209,205 L 207,207 L 207,208 L 201,214 L 197,214 L 196,215 L 193,215 L 192,214 L 190,214 L 189,213 L 188,213 L 184,209 L 183,209 L 182,208 L 182,206 L 181,205 L 177,205 L 176,204 L 173,204 L 172,205 L 170,205 L 169,204 L 164,204 L 163,205 L 149,205 L 148,206 L 147,206 L 146,205 L 137,205 L 136,206 L 115,206 L 113,208 L 113,209 L 112,210 L 111,210 L 111,211 L 108,214 L 105,214 L 104,215 L 103,215 L 102,216 L 99,216 L 98,215 L 97,215 L 96,214 L 93,214 L 88,209 L 88,208 L 87,207 L 87,206 L 86,205 L 86,198 L 88,196 L 88,194 L 89,193 L 90,193 L 90,192 L 93,189 L 95,189 L 96,188 L 101,188 L 102,189 L 106,189 L 108,191 L 110,191 L 113,194 L 113,197 L 114,198 L 114,199 L 115,200 L 120,200 L 121,199 L 126,199 L 127,200 L 138,200 L 139,199 L 140,200 L 144,200 L 145,199 L 159,199 L 160,200 L 161,200 L 162,199 L 180,199 L 181,198 L 181,196 L 182,195 L 182,194 L 183,193 L 183,192 L 185,190 L 186,190 L 187,189 L 187,187 L 186,186 L 186,171 L 185,170 L 185,166 L 184,165 L 184,151 L 183,150 L 182,150 L 180,148 L 179,148 L 174,143 L 174,142 L 173,142 L 172,141 L 172,140 L 170,138 L 152,138 L 151,139 L 145,139 L 144,138 L 139,138 L 138,139 L 129,139 L 128,140 L 127,140 L 126,139 L 124,139 L 123,140 L 115,140 L 113,142 L 113,143 L 111,145 L 111,146 L 109,148 L 108,148 L 106,150 L 95,150 L 93,152 L 93,154 L 91,156 L 90,156 L 86,160 L 85,160 L 85,161 L 80,166 L 79,166 L 79,167 L 67,179 L 67,183 L 68,184 L 68,190 L 67,191 L 67,195 L 65,197 L 65,198 L 64,199 L 63,199 L 62,200 L 61,200 L 59,202 L 51,202 L 49,200 L 47,200 L 42,195 L 42,194 L 40,192 L 40,185 L 41,184 L 41,182 L 42,181 L 42,180 L 45,177 L 46,177 L 47,176 L 48,176 L 49,175 L 51,175 L 52,174 L 58,174 L 59,175 L 62,175 L 78,159 L 78,158 L 79,157 L 80,157 L 80,156 L 81,155 L 82,155 L 82,154 L 83,153 L 84,153 L 84,152 L 85,151 L 86,151 L 89,148 L 89,144 L 88,143 L 88,142 L 86,140 L 86,132 L 88,130 L 88,126 L 86,126 L 84,124 L 83,124 L 81,122 L 79,122 L 78,121 L 78,120 L 77,120 L 73,116 L 71,116 L 67,112 L 66,112 L 64,110 L 63,110 L 61,108 L 59,108 L 58,109 L 57,109 L 56,110 L 55,110 L 54,111 L 51,111 L 50,112 L 49,112 L 48,111 L 46,111 L 45,110 L 43,110 L 39,114 L 39,115 L 38,116 L 37,116 L 37,117 L 34,120 L 34,121 L 31,124 L 31,125 L 30,126 L 29,126 L 28,127 L 28,130 L 29,131 L 29,140 L 27,142 L 27,144 L 23,148 L 21,148 L 21,149 L 20,150 L 11,150 L 10,149 L 9,149 L 8,148 L 7,148 L 4,145 L 4,144 L 2,142 L 2,139 L 1,138 L 1,132 L 2,131 L 2,130 L 4,128 L 4,127 L 7,124 L 8,124 L 9,123 L 10,123 L 11,122 L 13,122 L 14,121 L 16,121 L 17,122 L 19,122 L 20,123 L 24,123 L 26,121 L 26,120 L 27,119 L 28,119 L 28,118 L 30,116 L 30,114 L 33,111 L 34,111 L 34,110 L 36,108 L 37,108 L 38,107 L 38,105 L 36,103 L 36,99 L 35,98 L 36,97 L 36,93 L 38,91 L 38,90 L 41,87 L 42,87 L 42,86 L 43,85 L 44,85 L 46,83 L 46,79 L 45,78 L 45,75 L 44,74 L 44,65 L 43,64 L 43,62 L 42,61 L 42,51 L 41,50 L 39,50 L 38,49 L 37,49 L 33,45 L 33,44 L 32,43 L 32,42 L 31,41 L 31,40 L 30,39 L 30,32 L 31,31 L 31,30 L 32,29 L 33,29 L 33,28 L 37,24 L 39,24 L 40,23 L 50,23 L 57,30 L 57,32 L 58,33 L 58,36 L 59,37 L 65,37 L 66,38 L 68,38 L 69,39 L 73,39 L 74,40 L 77,40 L 78,41 L 86,41 L 87,42 L 88,42 L 89,43 L 94,43 L 95,44 L 100,44 L 101,45 L 105,45 L 106,46 L 110,46 L 111,47 L 118,47 L 119,48 L 121,48 L 122,49 L 127,49 L 128,50 L 132,50 L 133,51 L 140,51 L 141,52 L 144,52 L 145,53 L 147,53 L 151,49 L 151,48 L 153,46 L 154,46 L 155,45 L 156,45 L 157,44 L 158,44 L 159,43 L 165,43 L 166,42 L 166,41 L 167,40 L 167,39 L 168,38 L 168,36 L 169,35 L 169,34 L 170,33 L 170,32 L 172,30 L 172,29 L 174,27 L 172,25 L 172,24 L 170,22 L 170,20 L 169,19 L 170,18 L 170,13 L 172,11 L 172,10 L 175,7 L 176,7 L 176,6 L 177,5 L 178,5 L 179,4 L 185,4 L 186,5 L 187,5 L 188,6 L 190,6 L 191,7 L 192,7 L 195,10 L 195,11 L 196,12 L 196,13 L 197,14 L 197,23 L 195,25 L 195,26 L 191,30 L 190,30 L 189,31 L 188,31 L 187,32 L 180,32 L 179,31 L 178,31 L 176,33 L 176,36 L 175,37 L 175,38 L 173,40 L 173,41 L 171,43 L 171,44 L 170,45 L 170,47 L 172,49 L 173,49 L 174,50 L 174,51 L 175,52 L 175,54 L 176,55 L 176,61 L 175,62 L 175,63 L 173,65 L 173,66 L 170,69 L 169,69 L 168,70 L 166,70 L 164,72 L 159,72 L 158,71 L 157,71 L 156,70 L 154,70 L 152,68 L 152,67 L 150,65 L 150,64 L 148,62 L 149,61 L 149,60 L 150,59 L 150,58 L 140,58 L 138,56 L 130,56 L 129,55 L 127,55 L 126,54 L 119,54 L 118,53 L 115,53 L 114,52 L 107,52 L 106,51 L 105,51 L 104,50 L 96,50 L 95,49 L 92,49 L 91,48 L 84,48 L 83,47 L 82,47 L 81,46 L 73,46 L 72,45 L 69,45 L 68,44 L 62,44 L 61,43 L 57,43 L 52,48 L 51,48 L 51,49 L 50,50 L 49,50 L 48,51 L 48,56 L 49,57 L 49,68 L 50,69 L 50,72 L 51,73 L 51,81 L 52,82 L 52,83 L 53,84 L 54,84 L 55,85 L 56,85 L 61,90 L 61,92 L 63,94 L 63,103 L 65,105 L 66,105 L 68,107 L 70,107 L 74,111 L 75,111 L 77,113 L 78,113 L 79,114 L 80,114 L 81,115 L 82,115 L 83,116 L 83,117 L 84,117 L 87,120 L 88,120 L 89,121 L 90,121 L 92,123 L 98,123 L 99,122 L 100,123 L 105,123 L 106,124 L 107,124 L 109,126 L 110,126 L 111,127 L 111,128 L 113,130 L 113,131 L 115,133 L 156,133 L 157,132 L 171,132 L 172,131 L 172,130 L 174,128 L 174,127 L 177,124 L 178,124 L 179,123 L 180,123 L 181,122 L 188,122 L 189,123 L 192,123 L 198,117 L 198,116 L 199,115 L 200,115 L 200,114 L 201,113 L 202,113 L 202,112 L 203,111 L 204,111 L 204,110 L 205,109 L 206,109 L 206,108 L 207,107 L 208,107 L 208,106 L 209,105 L 210,105 L 212,103 L 212,102 L 213,101 L 214,101 L 214,100 L 216,98 L 216,96 L 215,95 L 215,94 L 214,93 L 214,86 L 215,85 L 215,84 L 222,77 L 223,77 L 224,76 L 227,76 L 228,75 L 228,59 L 227,58 L 228,57 L 228,40 L 225,40 L 224,39 L 223,39 L 222,38 L 221,38 L 218,35 L 218,34 L 217,34 L 216,33 L 216,32 L 215,31 L 215,30 L 214,29 L 214,22 L 216,20 L 216,19 L 218,17 L 218,16 L 219,15 L 220,15 L 222,13 L 224,13 L 225,12 L 232,12 L 233,13 L 235,13 L 240,18 L 240,19 L 242,21 L 242,22 L 243,23 L 243,30 L 242,31 L 242,32 L 240,34 L 240,35 L 239,36 L 238,36 L 235,39 L 235,41 L 234,42 L 234,44 L 235,45 L 234,46 L 234,50 L 235,51 L 235,53 L 234,54 L 235,55 L 235,58 L 234,59 L 234,65 L 233,66 L 233,67 L 234,68 L 234,69 L 235,70 L 235,77 L 237,79 L 238,79 L 239,80 L 239,81 L 241,83 L 241,84 L 243,86 L 243,94 L 242,95 L 242,96 L 239,99 L 238,99 L 237,100 L 237,101 L 238,102 L 238,103 L 237,104 L 237,105 L 238,106 L 238,107 L 237,108 L 239,110 L 239,111 L 240,112 L 240,113 L 241,114 L 241,117 L 242,118 L 242,120 L 243,121 L 243,126 L 245,128 L 245,129 L 246,130 L 246,133 L 247,134 L 247,135 L 248,136 L 248,137 L 249,138 L 249,142 L 253,142 L 254,143 L 255,143 L 256,144 L 257,144 L 258,145 L 260,145 L 260,0 Z" fill="none" stroke="black" stroke-width="1" /></svg>