<?xml version='1.0' encoding='utf-8'?>
<svg width="257" height="221" xmlns="http://www.w3.org/2000/svg" viewBox="0 0 257 221"><rect width="257" height="221" fill="white" /><path d="M 34,77 L 33,78 L 32,78 L 31,79 L 30,79 L 26,83 L 26,86 L 25,87 L 25,91 L 26,92 L 26,95 L 28,97 L 28,98 L 30,100 L 31,100 L 32,101 L 33,101 L 34,102 L 40,102 L 41,101 L 43,101 L 44,100 L 45,100 L 49,96 L 49,95 L 50,94 L 50,92 L 51,91 L 51,89 L 50,88 L 50,86 L 49,85 L 49,82 L 48,82 L 45,79 L 44,79 L 42,77 Z" fill="black" /><path d="M 240,76 L 239,77 L 236,77 L 232,81 L 232,82 L 231,83 L 231,84 L 230,85 L 230,94 L 232,96 L 232,97 L 233,98 L 234,98 L 236,100 L 237,100 L 238,101 L 242,101 L 243,102 L 245,102 L 246,101 L 247,101 L 248,100 L 249,100 L 251,98 L 251,97 L 252,96 L 253,96 L 254,95 L 254,94 L 255,93 L 255,85 L 254,84 L 254,83 L 253,82 L 253,81 L 251,79 L 250,79 L 248,77 L 246,77 L 245,76 Z" fill="black" /><path d="M 170,76 L 169,77 L 167,77 L 165,79 L 164,79 L 162,81 L 162,83 L 160,85 L 160,91 L 162,93 L 162,95 L 164,97 L 164,98 L 166,98 L 168,100 L 169,100 L 170,101 L 174,101 L 175,100 L 177,100 L 178,99 L 179,99 L 182,96 L 182,95 L 183,94 L 184,94 L 185,93 L 185,91 L 186,90 L 186,87 L 185,86 L 185,83 L 183,81 L 183,80 L 182,79 L 181,79 L 179,77 L 176,77 L 175,76 Z" fill="black" /><path d="M 134,76 L 133,77 L 130,77 L 128,79 L 127,79 L 126,80 L 126,81 L 125,82 L 125,83 L 124,84 L 124,93 L 126,95 L 126,96 L 128,98 L 129,98 L 131,100 L 133,100 L 134,101 L 139,101 L 140,100 L 141,100 L 142,99 L 143,99 L 144,98 L 145,98 L 145,96 L 149,92 L 149,87 L 148,86 L 148,84 L 146,82 L 146,81 L 142,77 L 139,77 L 138,76 Z" fill="black" /><path d="M 97,76 L 96,77 L 91,77 L 89,79 L 88,79 L 86,81 L 86,84 L 85,85 L 84,85 L 84,93 L 86,95 L 86,96 L 91,101 L 95,101 L 96,102 L 99,102 L 100,101 L 101,101 L 102,100 L 104,100 L 107,97 L 107,95 L 109,93 L 109,85 L 107,83 L 107,82 L 105,80 L 104,80 L 103,79 L 102,79 L 99,76 Z" fill="black" /><path d="M 152,0 L 151,1 L 147,1 L 145,3 L 144,3 L 144,4 L 142,6 L 142,7 L 140,9 L 140,16 L 137,19 L 137,20 L 136,21 L 134,21 L 131,24 L 130,24 L 129,25 L 128,25 L 126,27 L 124,27 L 122,29 L 121,29 L 119,31 L 118,31 L 116,33 L 115,33 L 113,35 L 112,35 L 110,37 L 108,37 L 108,38 L 107,39 L 106,39 L 105,40 L 102,40 L 99,37 L 95,37 L 94,36 L 92,36 L 91,35 L 90,36 L 88,36 L 87,37 L 86,37 L 85,38 L 84,38 L 84,39 L 82,41 L 76,41 L 75,40 L 74,40 L 73,39 L 70,39 L 69,38 L 68,38 L 67,37 L 65,37 L 64,36 L 62,36 L 61,35 L 58,35 L 57,34 L 56,34 L 55,33 L 54,33 L 52,31 L 52,28 L 51,27 L 51,25 L 49,23 L 48,23 L 45,20 L 44,20 L 42,18 L 34,18 L 33,19 L 32,19 L 30,21 L 29,21 L 29,22 L 28,23 L 28,24 L 27,25 L 27,26 L 26,27 L 26,32 L 27,33 L 27,34 L 28,35 L 28,37 L 33,42 L 35,42 L 36,43 L 42,43 L 43,42 L 45,42 L 46,41 L 47,41 L 48,40 L 49,40 L 49,39 L 51,37 L 53,37 L 54,38 L 59,38 L 60,39 L 61,39 L 62,40 L 65,40 L 66,41 L 67,41 L 68,42 L 71,42 L 73,44 L 77,44 L 80,47 L 80,52 L 81,53 L 81,54 L 82,55 L 82,56 L 84,58 L 84,60 L 83,61 L 83,62 L 82,63 L 82,65 L 80,67 L 80,70 L 79,71 L 79,72 L 78,73 L 78,74 L 77,75 L 77,76 L 76,77 L 76,79 L 74,81 L 74,84 L 72,86 L 72,88 L 71,89 L 71,90 L 70,91 L 70,94 L 68,96 L 68,98 L 67,99 L 66,99 L 66,102 L 65,103 L 65,104 L 64,105 L 64,106 L 63,107 L 63,108 L 62,109 L 62,110 L 61,111 L 61,112 L 60,113 L 60,116 L 58,118 L 58,120 L 57,121 L 57,122 L 56,123 L 56,124 L 55,125 L 55,126 L 54,127 L 54,129 L 52,131 L 52,132 L 49,135 L 44,135 L 43,136 L 42,136 L 41,137 L 40,137 L 36,141 L 36,143 L 35,144 L 35,145 L 36,146 L 35,147 L 35,148 L 34,149 L 34,151 L 36,153 L 36,154 L 37,155 L 37,156 L 39,158 L 40,158 L 41,159 L 42,159 L 43,160 L 45,160 L 46,161 L 52,161 L 53,160 L 55,160 L 59,156 L 59,155 L 61,153 L 61,149 L 62,148 L 62,147 L 61,146 L 61,144 L 60,143 L 60,142 L 59,141 L 59,139 L 58,139 L 57,138 L 57,137 L 56,136 L 56,135 L 55,134 L 55,133 L 56,132 L 57,132 L 57,129 L 58,128 L 59,128 L 59,126 L 61,124 L 61,122 L 63,120 L 63,117 L 65,115 L 65,113 L 67,111 L 67,107 L 69,105 L 69,103 L 70,102 L 70,101 L 71,100 L 71,99 L 73,97 L 73,93 L 74,92 L 74,91 L 75,90 L 75,89 L 76,88 L 76,85 L 77,84 L 77,82 L 79,80 L 79,79 L 81,77 L 81,74 L 83,72 L 83,71 L 85,69 L 85,66 L 87,64 L 87,63 L 89,61 L 95,61 L 96,60 L 99,60 L 100,59 L 101,59 L 103,57 L 103,56 L 106,53 L 106,43 L 107,42 L 109,42 L 111,40 L 113,40 L 113,39 L 114,38 L 116,38 L 118,36 L 119,36 L 121,34 L 122,34 L 124,32 L 125,32 L 125,31 L 126,30 L 128,30 L 130,28 L 131,28 L 133,26 L 134,26 L 136,24 L 137,24 L 138,23 L 139,23 L 140,22 L 143,22 L 145,24 L 146,24 L 148,26 L 155,26 L 156,25 L 160,25 L 163,22 L 163,20 L 165,18 L 168,18 L 170,20 L 172,20 L 173,21 L 174,21 L 175,22 L 177,22 L 178,23 L 179,23 L 181,25 L 182,25 L 183,26 L 185,26 L 186,27 L 187,27 L 188,28 L 189,28 L 190,29 L 192,29 L 193,30 L 194,30 L 197,33 L 197,39 L 198,40 L 198,42 L 199,43 L 199,44 L 202,47 L 203,47 L 205,49 L 205,55 L 204,56 L 204,60 L 203,61 L 203,62 L 202,63 L 202,68 L 201,69 L 201,72 L 200,73 L 200,75 L 199,76 L 199,78 L 198,79 L 198,84 L 197,85 L 197,88 L 196,89 L 196,92 L 195,93 L 195,94 L 194,95 L 194,99 L 193,100 L 193,102 L 192,103 L 192,107 L 191,108 L 191,109 L 190,110 L 190,114 L 188,116 L 187,116 L 186,117 L 185,117 L 183,119 L 181,119 L 178,122 L 178,124 L 177,125 L 177,126 L 176,127 L 176,134 L 174,136 L 172,136 L 171,137 L 169,137 L 167,139 L 166,139 L 165,140 L 164,140 L 163,141 L 162,141 L 161,142 L 160,142 L 159,143 L 158,143 L 157,144 L 156,144 L 155,145 L 153,145 L 151,147 L 150,147 L 149,148 L 148,148 L 147,149 L 146,149 L 145,150 L 144,150 L 143,151 L 140,151 L 138,153 L 136,153 L 134,155 L 132,155 L 130,157 L 128,157 L 128,158 L 127,159 L 125,159 L 123,161 L 119,161 L 116,158 L 116,157 L 115,157 L 114,156 L 113,156 L 112,155 L 111,155 L 110,154 L 104,154 L 103,155 L 100,155 L 100,156 L 97,159 L 96,159 L 96,160 L 95,161 L 95,163 L 94,164 L 94,169 L 96,171 L 96,174 L 100,178 L 101,178 L 102,179 L 103,179 L 104,180 L 111,180 L 112,179 L 113,179 L 114,178 L 115,178 L 117,176 L 117,175 L 118,174 L 119,174 L 119,172 L 120,171 L 120,167 L 122,165 L 123,165 L 124,164 L 126,164 L 128,162 L 129,162 L 130,161 L 131,161 L 132,160 L 135,160 L 137,158 L 138,158 L 139,157 L 140,157 L 141,156 L 143,156 L 146,153 L 148,153 L 149,152 L 151,152 L 153,150 L 154,150 L 156,148 L 159,148 L 161,146 L 163,146 L 165,144 L 167,144 L 167,143 L 168,142 L 170,142 L 172,140 L 175,140 L 177,138 L 180,138 L 181,139 L 181,140 L 182,141 L 182,146 L 181,147 L 181,148 L 180,149 L 180,152 L 179,153 L 179,154 L 178,155 L 178,159 L 177,160 L 177,162 L 176,163 L 176,167 L 175,168 L 171,168 L 170,169 L 167,169 L 165,171 L 163,171 L 160,174 L 160,176 L 158,178 L 158,186 L 159,187 L 159,188 L 160,189 L 160,190 L 161,190 L 162,191 L 162,192 L 164,194 L 167,194 L 168,195 L 173,195 L 174,194 L 177,194 L 177,193 L 178,192 L 180,192 L 180,191 L 183,188 L 183,186 L 185,184 L 185,179 L 184,178 L 184,177 L 183,176 L 183,174 L 181,172 L 181,171 L 179,169 L 179,168 L 181,166 L 181,163 L 182,162 L 182,157 L 183,156 L 183,155 L 184,154 L 184,150 L 185,149 L 185,145 L 188,142 L 193,142 L 194,141 L 195,141 L 196,140 L 197,140 L 197,139 L 198,138 L 199,138 L 201,136 L 201,133 L 202,132 L 202,131 L 203,130 L 203,129 L 202,128 L 202,127 L 201,126 L 201,124 L 195,118 L 195,117 L 194,116 L 194,113 L 195,112 L 195,106 L 196,105 L 196,104 L 197,103 L 197,98 L 198,97 L 198,95 L 199,94 L 199,88 L 200,87 L 200,86 L 201,85 L 201,83 L 202,82 L 202,81 L 203,80 L 203,75 L 205,73 L 205,71 L 204,70 L 204,69 L 205,68 L 205,67 L 207,65 L 207,59 L 208,58 L 208,57 L 209,56 L 209,55 L 210,54 L 211,54 L 212,55 L 212,56 L 213,57 L 213,59 L 214,60 L 214,63 L 215,64 L 215,67 L 216,68 L 216,73 L 218,75 L 218,82 L 219,83 L 219,84 L 220,85 L 220,89 L 221,90 L 221,92 L 222,93 L 222,98 L 223,99 L 223,100 L 224,101 L 224,104 L 225,105 L 225,106 L 226,107 L 225,108 L 225,109 L 226,110 L 226,112 L 227,113 L 227,116 L 228,117 L 228,122 L 229,123 L 229,124 L 230,125 L 230,130 L 231,131 L 231,133 L 232,134 L 232,140 L 233,141 L 233,142 L 234,143 L 234,144 L 235,145 L 235,149 L 236,150 L 236,154 L 237,155 L 237,157 L 231,163 L 230,163 L 230,165 L 228,167 L 228,176 L 229,176 L 230,177 L 230,179 L 232,181 L 233,181 L 234,182 L 235,182 L 237,184 L 245,184 L 246,183 L 247,183 L 249,181 L 250,181 L 253,178 L 253,176 L 254,175 L 254,167 L 253,166 L 253,164 L 252,163 L 251,163 L 249,161 L 249,160 L 248,159 L 243,159 L 241,157 L 241,152 L 240,151 L 240,149 L 239,148 L 239,143 L 238,142 L 238,141 L 237,140 L 237,137 L 236,136 L 236,133 L 235,132 L 235,128 L 234,127 L 234,125 L 233,124 L 233,121 L 232,120 L 232,118 L 231,117 L 231,113 L 230,112 L 230,108 L 229,107 L 229,103 L 228,102 L 228,101 L 227,100 L 227,96 L 226,95 L 226,93 L 225,92 L 225,89 L 224,88 L 224,85 L 223,84 L 223,83 L 222,82 L 222,81 L 221,80 L 221,73 L 220,72 L 220,71 L 219,70 L 219,65 L 218,64 L 218,63 L 217,62 L 217,56 L 216,55 L 216,54 L 215,53 L 216,52 L 215,51 L 215,49 L 216,48 L 218,48 L 220,46 L 221,46 L 221,45 L 222,44 L 222,43 L 223,42 L 223,36 L 224,35 L 223,34 L 223,31 L 221,29 L 220,29 L 219,28 L 219,27 L 218,27 L 217,26 L 216,26 L 215,25 L 213,25 L 212,24 L 211,24 L 210,23 L 209,24 L 207,24 L 206,25 L 204,25 L 202,27 L 201,27 L 200,28 L 197,28 L 196,27 L 194,27 L 192,25 L 190,25 L 189,24 L 188,24 L 187,23 L 184,23 L 183,22 L 183,21 L 182,21 L 181,20 L 179,20 L 178,19 L 176,19 L 175,18 L 174,18 L 173,17 L 171,17 L 169,15 L 167,15 L 165,13 L 165,7 L 164,7 L 163,6 L 162,6 L 161,5 L 161,3 L 160,3 L 157,0 L 156,0 L 155,1 L 154,1 L 153,0 Z" fill="black" /><path d="M 0,0 L 0,220 L 256,220 L 256,0 L 158,0 L 160,2 L 161,2 L 162,3 L 162,5 L 163,5 L 164,6 L 165,6 L 166,7 L 166,13 L 167,14 L 169,14 L 171,16 L 173,16 L 174,17 L 175,17 L 176,18 L 178,18 L 179,19 L 181,19 L 182,20 L 183,20 L 184,21 L 184,22 L 187,22 L 188,23 L 189,23 L 190,24 L 192,24 L 194,26 L 196,26 L 197,27 L 200,27 L 201,26 L 202,26 L 204,24 L 206,24 L 207,23 L 209,23 L 210,22 L 211,23 L 212,23 L 213,24 L 215,24 L 216,25 L 217,25 L 218,26 L 219,26 L 220,27 L 220,28 L 221,28 L 224,31 L 224,34 L 225,35 L 224,36 L 224,42 L 223,43 L 223,44 L 222,45 L 222,46 L 221,47 L 220,47 L 218,49 L 216,49 L 216,51 L 217,52 L 216,53 L 217,54 L 217,55 L 218,56 L 218,62 L 219,63 L 219,64 L 220,65 L 220,70 L 221,71 L 221,72 L 222,73 L 222,80 L 223,81 L 223,82 L 224,83 L 224,84 L 225,85 L 225,88 L 226,89 L 226,92 L 227,93 L 227,95 L 228,96 L 228,100 L 229,101 L 229,102 L 230,103 L 230,107 L 231,108 L 231,112 L 232,113 L 232,117 L 233,118 L 233,120 L 234,121 L 234,124 L 235,125 L 235,127 L 236,128 L 236,132 L 237,133 L 237,136 L 238,137 L 238,140 L 239,141 L 239,142 L 240,143 L 240,148 L 241,149 L 241,151 L 242,152 L 242,157 L 243,158 L 248,158 L 250,160 L 250,161 L 251,162 L 252,162 L 254,164 L 254,166 L 255,167 L 255,175 L 254,176 L 254,178 L 250,182 L 249,182 L 247,184 L 246,184 L 245,185 L 237,185 L 235,183 L 234,183 L 233,182 L 232,182 L 229,179 L 229,177 L 228,177 L 227,176 L 227,167 L 229,165 L 229,163 L 230,162 L 231,162 L 236,157 L 236,155 L 235,154 L 235,150 L 234,149 L 234,145 L 233,144 L 233,143 L 232,142 L 232,141 L 231,140 L 231,134 L 230,133 L 230,131 L 229,130 L 229,125 L 228,124 L 228,123 L 227,122 L 227,117 L 226,116 L 226,113 L 225,112 L 225,110 L 224,109 L 224,108 L 225,107 L 224,106 L 224,105 L 223,104 L 223,101 L 222,100 L 222,99 L 221,98 L 221,93 L 220,92 L 220,90 L 219,89 L 219,85 L 218,84 L 218,83 L 217,82 L 217,75 L 215,73 L 215,68 L 214,67 L 214,64 L 213,63 L 213,60 L 212,59 L 212,57 L 211,56 L 211,55 L 210,55 L 210,56 L 209,57 L 209,58 L 208,59 L 208,65 L 206,67 L 206,68 L 205,69 L 205,70 L 206,71 L 206,73 L 204,75 L 204,80 L 203,81 L 203,82 L 202,83 L 202,85 L 201,86 L 201,87 L 200,88 L 200,94 L 199,95 L 199,97 L 198,98 L 198,103 L 197,104 L 197,105 L 196,106 L 196,112 L 195,113 L 195,116 L 196,117 L 196,118 L 202,124 L 202,126 L 203,127 L 203,128 L 204,129 L 204,130 L 203,131 L 203,132 L 202,133 L 202,136 L 199,139 L 198,139 L 198,140 L 197,141 L 196,141 L 195,142 L 194,142 L 193,143 L 188,143 L 186,145 L 186,149 L 185,150 L 185,154 L 184,155 L 184,156 L 183,157 L 183,162 L 182,163 L 182,166 L 180,168 L 180,169 L 182,171 L 182,172 L 184,174 L 184,176 L 185,177 L 185,178 L 186,179 L 186,184 L 184,186 L 184,188 L 181,191 L 181,192 L 180,193 L 178,193 L 178,194 L 177,195 L 174,195 L 173,196 L 168,196 L 167,195 L 164,195 L 161,192 L 161,191 L 160,191 L 159,190 L 159,189 L 158,188 L 158,187 L 157,186 L 157,178 L 159,176 L 159,174 L 163,170 L 165,170 L 167,168 L 170,168 L 171,167 L 175,167 L 175,163 L 176,162 L 176,160 L 177,159 L 177,155 L 178,154 L 178,153 L 179,152 L 179,149 L 180,148 L 180,147 L 181,146 L 181,141 L 180,140 L 180,139 L 177,139 L 175,141 L 172,141 L 170,143 L 168,143 L 168,144 L 167,145 L 165,145 L 163,147 L 161,147 L 159,149 L 156,149 L 154,151 L 153,151 L 151,153 L 149,153 L 148,154 L 146,154 L 143,157 L 141,157 L 140,158 L 139,158 L 138,159 L 137,159 L 135,161 L 132,161 L 131,162 L 130,162 L 129,163 L 128,163 L 126,165 L 124,165 L 123,166 L 122,166 L 121,167 L 121,171 L 120,172 L 120,174 L 119,175 L 118,175 L 118,176 L 115,179 L 114,179 L 113,180 L 112,180 L 111,181 L 104,181 L 103,180 L 102,180 L 101,179 L 100,179 L 95,174 L 95,171 L 93,169 L 93,164 L 94,163 L 94,161 L 95,160 L 95,159 L 96,158 L 97,158 L 99,156 L 99,155 L 100,154 L 103,154 L 104,153 L 110,153 L 111,154 L 112,154 L 113,155 L 114,155 L 115,156 L 116,156 L 117,157 L 117,158 L 119,160 L 123,160 L 125,158 L 127,158 L 127,157 L 128,156 L 130,156 L 132,154 L 134,154 L 136,152 L 138,152 L 140,150 L 143,150 L 144,149 L 145,149 L 146,148 L 147,148 L 148,147 L 149,147 L 150,146 L 151,146 L 153,144 L 155,144 L 156,143 L 157,143 L 158,142 L 159,142 L 160,141 L 161,141 L 162,140 L 163,140 L 164,139 L 165,139 L 166,138 L 167,138 L 169,136 L 171,136 L 172,135 L 174,135 L 175,134 L 175,127 L 176,126 L 176,125 L 177,124 L 177,122 L 181,118 L 183,118 L 185,116 L 186,116 L 187,115 L 188,115 L 189,114 L 189,110 L 190,109 L 190,108 L 191,107 L 191,103 L 192,102 L 192,100 L 193,99 L 193,95 L 194,94 L 194,93 L 195,92 L 195,89 L 196,88 L 196,85 L 197,84 L 197,79 L 198,78 L 198,76 L 199,75 L 199,73 L 200,72 L 200,69 L 201,68 L 201,63 L 202,62 L 202,61 L 203,60 L 203,56 L 204,55 L 204,49 L 203,48 L 202,48 L 198,44 L 198,43 L 197,42 L 197,40 L 196,39 L 196,33 L 194,31 L 193,31 L 192,30 L 190,30 L 189,29 L 188,29 L 187,28 L 186,28 L 185,27 L 183,27 L 182,26 L 181,26 L 179,24 L 178,24 L 177,23 L 175,23 L 174,22 L 173,22 L 172,21 L 170,21 L 168,19 L 165,19 L 164,20 L 164,22 L 160,26 L 156,26 L 155,27 L 148,27 L 146,25 L 145,25 L 143,23 L 140,23 L 139,24 L 138,24 L 137,25 L 136,25 L 134,27 L 133,27 L 131,29 L 130,29 L 128,31 L 126,31 L 126,32 L 125,33 L 124,33 L 122,35 L 121,35 L 119,37 L 118,37 L 116,39 L 114,39 L 114,40 L 113,41 L 111,41 L 109,43 L 107,43 L 107,53 L 104,56 L 104,57 L 101,60 L 100,60 L 99,61 L 96,61 L 95,62 L 89,62 L 88,63 L 88,64 L 86,66 L 86,69 L 84,71 L 84,72 L 82,74 L 82,77 L 80,79 L 80,80 L 78,82 L 78,84 L 77,85 L 77,88 L 76,89 L 76,90 L 75,91 L 75,92 L 74,93 L 74,97 L 72,99 L 72,100 L 71,101 L 71,102 L 70,103 L 70,105 L 68,107 L 68,111 L 66,113 L 66,115 L 64,117 L 64,120 L 62,122 L 62,124 L 60,126 L 60,128 L 59,129 L 58,129 L 58,132 L 57,133 L 56,133 L 56,134 L 57,135 L 57,136 L 58,137 L 58,138 L 59,138 L 60,139 L 60,141 L 61,142 L 61,143 L 62,144 L 62,146 L 63,147 L 63,148 L 62,149 L 62,153 L 60,155 L 60,156 L 55,161 L 53,161 L 52,162 L 46,162 L 45,161 L 43,161 L 42,160 L 41,160 L 40,159 L 39,159 L 36,156 L 36,155 L 35,154 L 35,153 L 33,151 L 33,149 L 34,148 L 34,147 L 35,146 L 34,145 L 34,144 L 35,143 L 35,141 L 40,136 L 41,136 L 42,135 L 43,135 L 44,134 L 49,134 L 51,132 L 51,131 L 53,129 L 53,127 L 54,126 L 54,125 L 55,124 L 55,123 L 56,122 L 56,121 L 57,120 L 57,118 L 59,116 L 59,113 L 60,112 L 60,111 L 61,110 L 61,109 L 62,108 L 62,107 L 63,106 L 63,105 L 64,104 L 64,103 L 65,102 L 65,99 L 66,98 L 67,98 L 67,96 L 69,94 L 69,91 L 70,90 L 70,89 L 71,88 L 71,86 L 73,84 L 73,81 L 75,79 L 75,77 L 76,76 L 76,75 L 77,74 L 77,73 L 78,72 L 78,71 L 79,70 L 79,67 L 81,65 L 81,63 L 82,62 L 82,61 L 83,60 L 83,58 L 81,56 L 81,55 L 80,54 L 80,53 L 79,52 L 79,47 L 77,45 L 73,45 L 71,43 L 68,43 L 67,42 L 66,42 L 65,41 L 62,41 L 61,40 L 60,40 L 59,39 L 54,39 L 53,38 L 51,38 L 50,39 L 50,40 L 49,41 L 48,41 L 47,42 L 46,42 L 45,43 L 43,43 L 42,44 L 36,44 L 35,43 L 33,43 L 27,37 L 27,35 L 26,34 L 26,33 L 25,32 L 25,27 L 26,26 L 26,25 L 27,24 L 27,23 L 28,22 L 28,21 L 29,20 L 30,20 L 32,18 L 33,18 L 34,17 L 42,17 L 44,19 L 45,19 L 48,22 L 49,22 L 52,25 L 52,27 L 53,28 L 53,31 L 54,32 L 55,32 L 56,33 L 57,33 L 58,34 L 61,34 L 62,35 L 64,35 L 65,36 L 67,36 L 68,37 L 69,37 L 70,38 L 73,38 L 74,39 L 75,39 L 76,40 L 82,40 L 83,39 L 83,38 L 84,37 L 85,37 L 86,36 L 87,36 L 88,35 L 90,35 L 91,34 L 92,35 L 94,35 L 95,36 L 99,36 L 102,39 L 105,39 L 106,38 L 107,38 L 107,37 L 108,36 L 110,36 L 112,34 L 113,34 L 115,32 L 116,32 L 118,30 L 119,30 L 121,28 L 122,28 L 124,26 L 126,26 L 128,24 L 129,24 L 130,23 L 131,23 L 134,20 L 136,20 L 136,19 L 139,16 L 139,9 L 141,7 L 141,6 L 143,4 L 143,3 L 144,2 L 145,2 L 147,0 L 151,0 Z" fill="none" stroke="black" stroke-width="1" /></svg>