<?xml version='1.0' encoding='utf-8'?>
<svg width="257" height="215" xmlns="http://www.w3.org/2000/svg" viewBox="0 0 257 215"><rect width="257" height="215" fill="white" /><path d="M 112,31 L 111,32 L 111,44 L 112,45 L 112,60 L 113,61 L 113,64 L 112,65 L 112,66 L 113,67 L 113,73 L 114,74 L 114,86 L 115,87 L 115,91 L 116,92 L 116,98 L 117,99 L 117,102 L 118,103 L 118,114 L 119,115 L 119,117 L 120,118 L 120,123 L 121,124 L 121,125 L 122,126 L 122,136 L 123,137 L 123,139 L 124,140 L 124,146 L 125,147 L 125,154 L 124,155 L 122,155 L 121,154 L 120,154 L 119,153 L 118,153 L 116,151 L 115,151 L 113,149 L 112,149 L 111,148 L 110,148 L 109,147 L 108,147 L 107,146 L 106,146 L 105,145 L 104,145 L 99,140 L 99,139 L 97,137 L 97,136 L 95,134 L 95,133 L 90,133 L 90,138 L 91,139 L 91,140 L 92,141 L 92,142 L 93,142 L 94,143 L 94,144 L 97,147 L 97,148 L 98,148 L 102,152 L 103,152 L 105,154 L 107,154 L 109,156 L 110,156 L 111,157 L 112,157 L 113,158 L 115,158 L 117,160 L 119,160 L 120,161 L 121,161 L 122,162 L 123,162 L 126,165 L 126,169 L 125,170 L 125,173 L 126,174 L 126,190 L 127,191 L 127,192 L 126,193 L 126,203 L 127,204 L 127,205 L 130,205 L 131,204 L 133,204 L 133,198 L 134,197 L 134,193 L 133,192 L 133,184 L 137,180 L 137,179 L 141,175 L 141,174 L 143,172 L 143,171 L 146,168 L 147,168 L 147,167 L 150,164 L 150,163 L 151,162 L 151,161 L 153,159 L 153,158 L 155,156 L 155,155 L 156,154 L 157,154 L 157,153 L 158,152 L 158,151 L 159,150 L 159,149 L 160,148 L 160,147 L 161,146 L 161,145 L 162,144 L 162,143 L 163,142 L 163,141 L 164,140 L 164,139 L 165,138 L 165,136 L 166,135 L 166,134 L 167,133 L 167,131 L 168,130 L 168,129 L 169,128 L 169,123 L 170,122 L 170,120 L 171,119 L 171,112 L 172,111 L 172,106 L 173,105 L 173,91 L 172,90 L 172,89 L 173,88 L 173,85 L 172,84 L 172,78 L 173,77 L 172,76 L 172,73 L 171,72 L 171,55 L 170,54 L 170,50 L 171,49 L 171,43 L 170,42 L 170,38 L 169,37 L 169,35 L 164,35 L 164,64 L 165,65 L 165,73 L 166,74 L 166,106 L 165,107 L 165,116 L 164,117 L 164,122 L 162,124 L 162,128 L 161,129 L 161,130 L 160,131 L 160,133 L 158,135 L 158,138 L 157,139 L 156,139 L 156,141 L 154,143 L 154,144 L 153,145 L 153,146 L 152,147 L 152,148 L 149,151 L 149,152 L 148,153 L 148,154 L 146,156 L 146,157 L 144,159 L 144,160 L 142,162 L 142,163 L 139,166 L 138,166 L 136,168 L 136,169 L 135,170 L 134,170 L 132,168 L 132,167 L 133,166 L 133,163 L 132,162 L 132,159 L 131,158 L 131,148 L 130,147 L 130,145 L 129,144 L 130,143 L 130,140 L 129,139 L 129,130 L 128,129 L 128,127 L 127,126 L 127,119 L 126,118 L 126,116 L 125,115 L 125,106 L 124,105 L 124,101 L 123,100 L 123,94 L 122,93 L 122,89 L 121,88 L 121,81 L 120,80 L 120,77 L 121,76 L 121,72 L 120,71 L 120,67 L 119,66 L 119,49 L 118,48 L 118,41 L 117,40 L 117,31 Z" fill="black" /><path d="M 0,0 L 0,214 L 256,214 L 256,0 Z" fill="none" stroke="black" stroke-width="1" /></svg>