<?xml version='1.0' encoding='utf-8'?>
<svg width="259" height="219" xmlns="http://www.w3.org/2000/svg" viewBox="0 0 259 219"><rect width="259" height="219" fill="white" /><path d="M 126,38 L 125,39 L 124,39 L 123,40 L 123,47 L 124,48 L 123,49 L 123,60 L 122,61 L 122,64 L 123,65 L 122,66 L 122,70 L 123,71 L 122,72 L 122,75 L 121,76 L 121,79 L 122,80 L 121,81 L 121,87 L 120,88 L 120,91 L 122,93 L 122,95 L 121,96 L 121,97 L 120,98 L 120,99 L 121,100 L 121,103 L 120,104 L 120,135 L 119,136 L 119,141 L 118,142 L 118,156 L 117,157 L 117,158 L 116,159 L 116,160 L 115,161 L 114,161 L 113,160 L 113,159 L 109,155 L 109,154 L 108,154 L 105,151 L 105,150 L 102,147 L 102,146 L 101,146 L 99,144 L 99,143 L 98,143 L 97,142 L 97,141 L 95,139 L 95,138 L 94,138 L 93,137 L 93,136 L 92,135 L 92,134 L 91,133 L 91,131 L 89,129 L 89,127 L 87,125 L 87,120 L 86,119 L 86,116 L 85,115 L 85,111 L 80,111 L 79,112 L 79,115 L 78,116 L 79,117 L 79,119 L 80,120 L 80,123 L 82,125 L 82,129 L 83,130 L 83,131 L 84,132 L 84,133 L 86,135 L 86,137 L 88,139 L 88,140 L 90,142 L 90,143 L 91,144 L 91,145 L 94,148 L 94,149 L 98,153 L 99,153 L 100,154 L 100,155 L 112,167 L 113,167 L 114,168 L 114,169 L 116,171 L 116,173 L 115,174 L 115,180 L 116,181 L 115,182 L 115,188 L 114,189 L 114,193 L 115,194 L 115,195 L 118,195 L 121,192 L 121,184 L 122,183 L 122,177 L 121,176 L 122,175 L 122,171 L 123,170 L 123,153 L 124,152 L 124,149 L 125,148 L 125,146 L 124,145 L 125,144 L 125,133 L 126,132 L 125,131 L 125,123 L 126,122 L 126,121 L 125,120 L 125,116 L 126,115 L 126,107 L 127,106 L 127,102 L 129,100 L 130,100 L 131,99 L 132,99 L 134,97 L 135,97 L 136,96 L 137,96 L 150,83 L 151,83 L 151,82 L 153,80 L 153,79 L 155,77 L 155,76 L 156,75 L 157,75 L 159,73 L 159,72 L 160,71 L 161,71 L 161,70 L 163,68 L 163,67 L 165,65 L 165,64 L 166,63 L 167,63 L 167,62 L 168,61 L 169,61 L 169,60 L 171,58 L 171,57 L 175,53 L 175,52 L 176,51 L 177,51 L 177,50 L 178,49 L 178,48 L 179,47 L 179,46 L 181,44 L 181,43 L 182,42 L 182,38 L 178,38 L 176,40 L 176,42 L 174,44 L 174,45 L 172,47 L 172,48 L 170,50 L 170,51 L 169,52 L 168,52 L 168,53 L 166,55 L 166,56 L 162,60 L 162,61 L 161,62 L 160,62 L 160,63 L 157,66 L 156,66 L 156,68 L 154,70 L 154,71 L 153,72 L 152,72 L 152,73 L 151,74 L 150,74 L 150,75 L 145,80 L 145,81 L 142,84 L 141,84 L 141,85 L 138,88 L 136,88 L 136,89 L 133,92 L 132,92 L 130,94 L 129,94 L 128,95 L 126,93 L 126,92 L 127,91 L 127,74 L 128,73 L 128,63 L 129,62 L 129,51 L 128,50 L 129,49 L 129,40 L 128,39 L 128,38 Z" fill="black" /><path d="M 0,0 L 0,218 L 258,218 L 258,0 Z" fill="none" stroke="black" stroke-width="1" /></svg>