<?xml version='1.0' encoding='utf-8'?>
<svg width="259" height="213" xmlns="http://www.w3.org/2000/svg" viewBox="0 0 259 213"><rect width="259" height="213" fill="white" /><path d="M 68,15 L 68,19 L 67,20 L 67,22 L 66,23 L 66,26 L 67,27 L 67,30 L 66,31 L 66,40 L 67,41 L 67,43 L 66,44 L 66,46 L 67,47 L 67,54 L 66,55 L 66,56 L 67,57 L 67,59 L 68,60 L 68,64 L 69,65 L 69,70 L 70,71 L 70,76 L 71,77 L 71,86 L 72,87 L 72,94 L 73,95 L 73,100 L 74,101 L 74,106 L 75,106 L 76,107 L 76,111 L 78,113 L 78,114 L 79,115 L 79,116 L 82,119 L 82,120 L 83,120 L 86,123 L 86,126 L 88,128 L 89,128 L 90,129 L 90,130 L 92,132 L 93,132 L 94,133 L 94,134 L 95,134 L 97,136 L 98,136 L 100,138 L 100,139 L 101,139 L 102,140 L 103,140 L 104,141 L 104,142 L 106,144 L 107,144 L 108,145 L 108,146 L 109,146 L 112,149 L 113,149 L 116,152 L 117,152 L 118,153 L 119,153 L 121,155 L 121,156 L 122,156 L 128,162 L 129,162 L 134,167 L 134,168 L 135,168 L 136,169 L 136,171 L 138,173 L 138,174 L 139,175 L 139,176 L 140,176 L 142,178 L 142,179 L 146,183 L 146,184 L 147,184 L 152,189 L 152,190 L 155,193 L 160,193 L 160,190 L 157,187 L 156,187 L 155,186 L 155,185 L 150,180 L 150,179 L 147,176 L 147,175 L 145,173 L 144,173 L 143,172 L 143,171 L 142,170 L 142,169 L 139,166 L 139,165 L 138,164 L 138,163 L 137,162 L 137,161 L 136,160 L 136,159 L 135,158 L 135,157 L 133,155 L 133,154 L 131,152 L 131,151 L 130,150 L 130,149 L 129,148 L 129,146 L 127,144 L 127,142 L 125,140 L 125,137 L 124,136 L 124,134 L 123,133 L 123,128 L 122,127 L 122,125 L 121,124 L 121,117 L 120,116 L 120,112 L 119,111 L 119,100 L 118,99 L 118,92 L 119,91 L 119,90 L 129,80 L 129,79 L 130,78 L 131,78 L 131,77 L 133,75 L 133,74 L 135,72 L 135,71 L 136,70 L 137,70 L 137,67 L 138,66 L 139,66 L 139,64 L 142,61 L 142,60 L 143,59 L 143,52 L 142,51 L 140,51 L 140,52 L 138,54 L 138,56 L 137,57 L 137,58 L 136,59 L 136,60 L 134,62 L 134,63 L 132,65 L 132,66 L 131,67 L 131,68 L 128,71 L 128,73 L 126,75 L 125,75 L 122,78 L 122,79 L 119,82 L 118,82 L 117,81 L 117,79 L 116,78 L 116,72 L 115,71 L 115,47 L 116,46 L 116,38 L 110,38 L 110,46 L 109,47 L 109,54 L 108,55 L 108,59 L 109,60 L 109,62 L 108,63 L 108,64 L 109,65 L 109,68 L 110,69 L 110,84 L 111,85 L 111,92 L 112,93 L 112,100 L 113,101 L 113,106 L 114,107 L 114,118 L 115,119 L 115,123 L 116,124 L 116,129 L 117,130 L 117,132 L 118,133 L 118,136 L 119,137 L 119,138 L 120,139 L 120,141 L 121,142 L 118,145 L 117,144 L 115,144 L 111,140 L 111,139 L 110,139 L 107,136 L 106,136 L 103,133 L 102,133 L 101,132 L 101,131 L 99,129 L 98,129 L 95,126 L 95,125 L 91,121 L 90,121 L 89,120 L 89,119 L 87,117 L 87,115 L 86,115 L 85,114 L 85,112 L 83,110 L 83,109 L 82,108 L 82,107 L 81,106 L 81,101 L 80,100 L 80,98 L 79,97 L 79,89 L 78,88 L 78,82 L 77,81 L 77,74 L 76,73 L 76,70 L 75,69 L 75,67 L 74,66 L 74,61 L 73,60 L 73,56 L 74,55 L 74,54 L 73,53 L 73,47 L 72,46 L 72,42 L 73,41 L 73,39 L 72,38 L 72,35 L 71,34 L 72,33 L 72,31 L 73,30 L 73,28 L 72,27 L 72,26 L 73,25 L 73,15 Z" fill="black" /><path d="M 0,0 L 0,212 L 258,212 L 258,0 Z" fill="none" stroke="black" stroke-width="1" /></svg>