<?xml version='1.0' encoding='utf-8'?>
<svg width="260" height="218" xmlns="http://www.w3.org/2000/svg" viewBox="0 0 260 218"><rect width="260" height="218" fill="white" /><path d="M 68,34 L 68,39 L 67,40 L 67,52 L 66,53 L 66,55 L 67,56 L 67,72 L 68,73 L 68,80 L 69,81 L 69,82 L 70,83 L 70,88 L 71,89 L 71,90 L 72,91 L 72,94 L 73,95 L 73,97 L 74,98 L 74,100 L 76,102 L 76,105 L 77,106 L 77,107 L 78,108 L 78,111 L 79,111 L 80,112 L 80,115 L 81,115 L 82,116 L 82,118 L 84,120 L 84,121 L 85,121 L 86,122 L 86,123 L 90,127 L 91,127 L 93,129 L 94,129 L 97,132 L 99,132 L 100,133 L 101,133 L 102,134 L 103,134 L 106,137 L 111,137 L 112,138 L 112,141 L 113,142 L 113,143 L 114,144 L 114,152 L 115,153 L 115,154 L 116,155 L 116,158 L 117,159 L 117,160 L 118,161 L 118,162 L 120,164 L 120,165 L 122,167 L 122,168 L 123,169 L 124,169 L 127,172 L 127,173 L 128,173 L 130,175 L 131,175 L 132,176 L 133,176 L 134,177 L 135,177 L 137,179 L 139,179 L 140,180 L 142,180 L 143,181 L 145,181 L 147,183 L 148,183 L 149,184 L 150,184 L 151,185 L 154,185 L 156,187 L 158,187 L 159,188 L 163,188 L 164,189 L 171,189 L 172,190 L 178,190 L 179,191 L 180,191 L 181,190 L 182,190 L 183,189 L 183,186 L 181,184 L 170,184 L 169,183 L 166,183 L 165,182 L 162,182 L 161,181 L 160,181 L 159,180 L 156,180 L 154,178 L 152,178 L 151,177 L 150,177 L 149,176 L 145,176 L 144,175 L 143,175 L 142,174 L 140,174 L 139,173 L 139,172 L 138,172 L 136,170 L 134,170 L 127,163 L 127,162 L 125,160 L 125,159 L 124,158 L 124,157 L 123,156 L 123,154 L 122,153 L 122,152 L 121,151 L 121,145 L 120,144 L 120,143 L 119,142 L 119,137 L 118,136 L 118,132 L 117,131 L 117,114 L 116,113 L 116,110 L 115,109 L 115,83 L 117,81 L 118,81 L 120,79 L 122,79 L 123,78 L 124,78 L 125,77 L 126,77 L 128,75 L 129,75 L 129,74 L 132,71 L 133,71 L 133,70 L 134,69 L 135,69 L 137,67 L 138,67 L 139,66 L 139,65 L 145,59 L 145,58 L 146,57 L 147,57 L 147,56 L 149,54 L 149,53 L 151,51 L 151,50 L 152,49 L 152,48 L 153,47 L 153,46 L 154,45 L 154,44 L 155,43 L 155,41 L 156,40 L 156,38 L 157,37 L 157,35 L 156,34 L 152,34 L 150,36 L 150,38 L 148,40 L 148,44 L 146,46 L 146,47 L 142,51 L 142,53 L 140,55 L 140,56 L 139,57 L 138,57 L 136,59 L 136,60 L 132,64 L 131,64 L 129,66 L 128,66 L 128,67 L 125,70 L 124,70 L 123,71 L 122,71 L 121,72 L 120,72 L 117,75 L 116,75 L 115,74 L 115,73 L 114,72 L 115,71 L 115,56 L 116,55 L 116,49 L 117,48 L 117,38 L 116,37 L 113,37 L 112,38 L 112,40 L 111,41 L 111,45 L 110,46 L 110,56 L 109,57 L 109,69 L 108,70 L 108,73 L 109,74 L 108,75 L 108,89 L 109,90 L 109,95 L 108,96 L 108,99 L 109,100 L 109,108 L 110,109 L 110,122 L 111,123 L 111,124 L 112,125 L 112,128 L 109,131 L 108,130 L 107,130 L 105,128 L 103,128 L 101,126 L 100,126 L 98,124 L 97,124 L 93,120 L 93,119 L 92,119 L 91,118 L 91,117 L 89,115 L 89,114 L 88,114 L 87,113 L 87,112 L 86,111 L 86,110 L 85,109 L 85,106 L 83,104 L 83,102 L 82,101 L 82,100 L 81,99 L 81,96 L 80,95 L 80,94 L 79,93 L 79,90 L 78,89 L 78,88 L 77,87 L 77,86 L 76,85 L 76,82 L 75,81 L 75,76 L 74,75 L 74,70 L 73,69 L 73,64 L 74,63 L 74,61 L 73,60 L 73,44 L 74,43 L 74,36 L 72,34 Z" fill="black" /><path d="M 0,0 L 0,217 L 259,217 L 259,0 Z" fill="none" stroke="black" stroke-width="1" /></svg>