<?xml version='1.0' encoding='utf-8'?>
<svg width="260" height="219" xmlns="http://www.w3.org/2000/svg" viewBox="0 0 260 219"><rect width="260" height="219" fill="white" /><path d="M 117,30 L 114,33 L 114,38 L 112,40 L 112,46 L 111,47 L 111,52 L 110,53 L 110,68 L 111,69 L 111,71 L 112,72 L 112,77 L 113,78 L 113,79 L 114,80 L 114,82 L 115,83 L 115,84 L 116,85 L 116,88 L 117,89 L 117,90 L 118,91 L 118,93 L 119,94 L 119,95 L 120,96 L 120,98 L 121,99 L 121,100 L 122,101 L 122,103 L 124,105 L 124,108 L 125,109 L 125,110 L 126,111 L 126,113 L 127,114 L 127,116 L 128,117 L 128,118 L 129,119 L 129,121 L 130,122 L 130,124 L 131,125 L 131,126 L 132,127 L 132,131 L 134,133 L 134,136 L 135,137 L 135,140 L 136,141 L 136,150 L 137,151 L 137,153 L 135,155 L 133,153 L 133,152 L 129,148 L 129,147 L 128,147 L 127,146 L 127,145 L 123,141 L 123,140 L 118,135 L 117,135 L 113,131 L 113,130 L 112,129 L 111,129 L 109,127 L 109,126 L 107,124 L 107,123 L 105,121 L 105,120 L 103,118 L 103,117 L 101,115 L 101,113 L 99,111 L 99,109 L 97,107 L 97,106 L 96,105 L 96,104 L 95,103 L 95,101 L 93,99 L 93,95 L 92,94 L 92,93 L 91,92 L 91,91 L 90,90 L 90,88 L 89,87 L 89,85 L 87,83 L 87,80 L 86,79 L 86,77 L 85,76 L 85,72 L 84,71 L 84,69 L 83,68 L 83,63 L 82,62 L 82,57 L 81,56 L 81,47 L 79,47 L 78,46 L 74,46 L 74,50 L 75,51 L 75,59 L 76,60 L 76,69 L 78,71 L 78,74 L 79,75 L 79,77 L 80,78 L 80,85 L 82,87 L 82,90 L 85,93 L 84,94 L 84,95 L 86,97 L 86,101 L 88,103 L 88,104 L 89,105 L 89,106 L 90,107 L 90,110 L 91,110 L 92,111 L 92,114 L 94,116 L 94,117 L 96,119 L 96,120 L 97,121 L 97,122 L 98,123 L 98,124 L 99,124 L 100,125 L 100,126 L 101,127 L 101,128 L 106,133 L 106,134 L 108,136 L 108,137 L 109,138 L 110,138 L 112,140 L 113,140 L 115,142 L 115,143 L 122,150 L 123,150 L 124,151 L 124,152 L 125,153 L 125,154 L 130,159 L 130,160 L 131,160 L 132,161 L 132,162 L 135,165 L 135,166 L 136,167 L 136,173 L 135,174 L 135,180 L 134,181 L 134,184 L 133,185 L 133,191 L 134,192 L 134,197 L 135,198 L 138,198 L 138,197 L 139,196 L 139,193 L 140,192 L 140,189 L 141,188 L 141,176 L 142,175 L 142,160 L 143,159 L 143,155 L 142,154 L 142,153 L 143,152 L 143,151 L 142,150 L 142,149 L 143,148 L 143,146 L 142,145 L 142,142 L 141,141 L 141,136 L 140,135 L 140,133 L 139,132 L 139,129 L 138,128 L 138,127 L 137,126 L 137,123 L 136,122 L 136,121 L 135,120 L 135,117 L 134,116 L 134,115 L 133,114 L 133,112 L 132,111 L 132,110 L 131,109 L 131,107 L 130,106 L 130,105 L 129,104 L 129,100 L 133,96 L 133,95 L 134,94 L 135,94 L 135,93 L 136,92 L 137,92 L 137,91 L 138,90 L 138,89 L 139,88 L 139,87 L 141,85 L 141,84 L 143,82 L 143,81 L 144,80 L 144,79 L 145,78 L 145,77 L 147,75 L 147,73 L 149,71 L 149,70 L 151,68 L 151,66 L 153,64 L 153,62 L 155,60 L 155,59 L 156,58 L 156,57 L 157,56 L 157,51 L 158,50 L 158,49 L 156,47 L 152,47 L 152,49 L 151,50 L 151,52 L 150,53 L 150,56 L 148,58 L 148,61 L 146,63 L 146,64 L 144,66 L 144,68 L 142,70 L 142,71 L 140,73 L 140,75 L 138,77 L 138,79 L 136,81 L 136,82 L 134,84 L 134,85 L 132,87 L 132,88 L 129,91 L 129,92 L 128,93 L 125,93 L 124,92 L 124,91 L 123,90 L 123,87 L 122,86 L 122,85 L 121,84 L 121,81 L 120,80 L 120,79 L 119,78 L 119,75 L 118,74 L 118,72 L 117,71 L 117,48 L 118,47 L 118,45 L 119,44 L 119,41 L 120,40 L 120,39 L 121,38 L 121,34 L 122,33 L 122,32 L 120,30 Z" fill="black" /><path d="M 0,0 L 0,218 L 259,218 L 259,0 Z" fill="none" stroke="black" stroke-width="1" /></svg>