<?xml version='1.0' encoding='utf-8'?>
<svg width="260" height="217" xmlns="http://www.w3.org/2000/svg" viewBox="0 0 260 217"><rect width="260" height="217" fill="white" /><path d="M 156,32 L 155,33 L 154,33 L 154,34 L 153,35 L 153,36 L 152,37 L 152,39 L 151,40 L 151,41 L 150,42 L 150,44 L 149,45 L 149,46 L 148,47 L 148,50 L 147,51 L 146,51 L 146,53 L 144,55 L 144,58 L 143,59 L 143,60 L 142,61 L 142,62 L 140,64 L 140,65 L 138,67 L 138,68 L 137,69 L 137,71 L 134,74 L 134,75 L 132,77 L 130,75 L 130,73 L 131,72 L 131,43 L 129,41 L 126,41 L 125,42 L 125,68 L 124,69 L 124,72 L 125,73 L 125,74 L 124,75 L 124,77 L 125,78 L 125,80 L 124,81 L 124,102 L 123,103 L 123,107 L 122,108 L 122,114 L 121,115 L 121,119 L 120,120 L 120,121 L 119,122 L 118,122 L 116,120 L 116,119 L 113,116 L 113,115 L 109,111 L 109,110 L 107,108 L 107,107 L 103,103 L 103,102 L 101,100 L 101,99 L 100,99 L 99,98 L 99,97 L 98,96 L 98,95 L 97,94 L 97,93 L 96,92 L 96,91 L 95,90 L 95,89 L 94,88 L 94,87 L 93,86 L 93,85 L 92,84 L 92,83 L 91,82 L 91,80 L 90,79 L 90,77 L 89,76 L 89,70 L 88,69 L 88,68 L 87,67 L 87,60 L 86,59 L 86,54 L 85,53 L 85,48 L 83,46 L 78,46 L 78,50 L 77,51 L 77,52 L 78,53 L 78,56 L 79,57 L 79,62 L 80,63 L 80,70 L 81,71 L 81,72 L 82,73 L 82,78 L 83,78 L 84,79 L 84,82 L 85,83 L 85,85 L 86,86 L 86,90 L 88,92 L 88,93 L 90,95 L 90,96 L 92,98 L 92,99 L 93,100 L 93,101 L 95,103 L 95,104 L 96,105 L 96,106 L 97,106 L 100,109 L 100,110 L 102,112 L 102,113 L 108,119 L 108,120 L 112,124 L 113,124 L 114,125 L 114,127 L 117,130 L 117,133 L 116,134 L 116,138 L 115,139 L 115,140 L 114,141 L 114,142 L 113,143 L 113,145 L 112,146 L 112,148 L 110,150 L 110,152 L 109,153 L 109,154 L 108,155 L 108,156 L 107,157 L 107,158 L 106,159 L 106,162 L 105,163 L 105,164 L 104,165 L 104,166 L 102,168 L 102,170 L 101,171 L 100,171 L 100,173 L 98,175 L 98,176 L 97,177 L 96,177 L 96,178 L 93,181 L 93,182 L 90,185 L 90,188 L 91,189 L 94,189 L 97,186 L 97,185 L 99,183 L 99,182 L 103,178 L 103,177 L 104,176 L 105,176 L 105,175 L 106,174 L 106,173 L 107,172 L 107,171 L 109,169 L 109,167 L 110,166 L 110,165 L 111,164 L 111,162 L 113,160 L 113,157 L 114,156 L 114,155 L 115,154 L 115,152 L 117,150 L 117,149 L 118,148 L 118,147 L 119,146 L 119,142 L 120,141 L 120,140 L 121,139 L 121,137 L 122,136 L 122,133 L 123,132 L 123,129 L 124,128 L 124,127 L 125,126 L 125,121 L 127,119 L 127,112 L 128,111 L 128,106 L 129,105 L 129,91 L 135,85 L 135,84 L 137,82 L 137,81 L 139,79 L 139,78 L 141,76 L 141,75 L 142,74 L 143,74 L 143,72 L 145,70 L 145,68 L 147,66 L 147,64 L 149,62 L 149,61 L 151,59 L 151,57 L 152,56 L 152,55 L 153,54 L 153,52 L 155,50 L 155,49 L 157,47 L 157,45 L 158,44 L 158,43 L 159,42 L 159,38 L 160,37 L 159,36 L 159,34 L 158,33 L 158,32 Z" fill="black" /><path d="M 0,0 L 0,216 L 259,216 L 259,0 Z" fill="none" stroke="black" stroke-width="1" /></svg>