<?xml version='1.0' encoding='utf-8'?>
<svg width="261" height="214" xmlns="http://www.w3.org/2000/svg" viewBox="0 0 261 214"><rect width="261" height="214" fill="white" /><path d="M 92,9 L 92,11 L 91,12 L 91,13 L 90,14 L 90,15 L 88,17 L 88,20 L 87,21 L 87,23 L 86,24 L 86,25 L 87,26 L 87,27 L 86,28 L 86,29 L 85,30 L 85,34 L 86,35 L 86,36 L 85,37 L 85,44 L 86,45 L 86,50 L 87,51 L 87,56 L 88,57 L 88,59 L 89,60 L 89,61 L 90,62 L 90,65 L 92,67 L 92,70 L 94,72 L 94,73 L 95,74 L 95,77 L 96,78 L 96,80 L 98,82 L 98,84 L 100,86 L 100,89 L 101,90 L 101,91 L 102,92 L 102,94 L 104,96 L 104,98 L 102,100 L 102,104 L 101,105 L 101,107 L 100,108 L 100,113 L 99,114 L 99,119 L 98,120 L 98,128 L 97,129 L 97,130 L 96,131 L 96,134 L 95,135 L 95,140 L 94,141 L 94,143 L 93,144 L 93,147 L 92,148 L 92,157 L 91,158 L 91,163 L 90,164 L 90,179 L 91,180 L 91,187 L 92,188 L 92,193 L 93,194 L 93,197 L 94,198 L 94,201 L 99,201 L 100,200 L 100,195 L 99,194 L 99,189 L 98,188 L 98,187 L 97,186 L 97,164 L 98,163 L 98,157 L 99,156 L 99,149 L 100,148 L 100,147 L 101,146 L 101,140 L 102,139 L 102,138 L 103,137 L 103,133 L 107,129 L 109,129 L 110,128 L 111,128 L 112,127 L 113,127 L 114,126 L 115,126 L 116,125 L 117,125 L 118,124 L 119,124 L 119,123 L 120,122 L 121,122 L 122,121 L 123,121 L 124,120 L 125,120 L 128,117 L 129,117 L 131,115 L 132,115 L 134,113 L 135,113 L 139,109 L 140,109 L 142,107 L 143,107 L 147,103 L 147,102 L 150,99 L 151,99 L 151,98 L 152,97 L 153,97 L 153,96 L 154,95 L 155,95 L 155,94 L 159,90 L 159,89 L 160,88 L 161,88 L 161,87 L 163,85 L 163,84 L 166,81 L 167,81 L 167,80 L 169,78 L 169,76 L 171,74 L 171,72 L 175,68 L 175,67 L 176,66 L 176,61 L 172,61 L 171,62 L 170,62 L 170,63 L 168,65 L 168,66 L 166,68 L 166,70 L 164,72 L 164,73 L 163,74 L 162,74 L 162,75 L 160,77 L 160,79 L 159,80 L 158,80 L 158,82 L 150,90 L 150,91 L 145,96 L 144,96 L 143,97 L 142,97 L 135,104 L 134,104 L 134,105 L 133,106 L 132,106 L 130,108 L 129,108 L 127,110 L 126,110 L 124,112 L 122,112 L 122,113 L 121,114 L 120,114 L 119,115 L 118,115 L 115,118 L 114,118 L 112,120 L 110,120 L 109,121 L 106,121 L 105,120 L 105,118 L 106,117 L 106,116 L 107,115 L 107,106 L 108,105 L 108,104 L 109,103 L 109,102 L 110,101 L 110,98 L 111,97 L 111,93 L 112,92 L 112,91 L 113,90 L 113,86 L 114,85 L 114,84 L 115,83 L 115,78 L 117,76 L 117,74 L 118,73 L 118,72 L 119,71 L 119,68 L 120,67 L 120,65 L 121,64 L 121,61 L 123,59 L 123,56 L 124,55 L 124,54 L 125,53 L 125,51 L 126,50 L 126,49 L 127,48 L 127,45 L 129,43 L 129,42 L 130,41 L 131,41 L 131,38 L 133,36 L 133,35 L 135,33 L 135,30 L 136,29 L 136,25 L 135,24 L 132,24 L 130,26 L 130,27 L 129,28 L 129,29 L 128,30 L 128,31 L 126,33 L 126,35 L 125,36 L 125,38 L 124,39 L 124,40 L 122,42 L 122,45 L 121,46 L 120,46 L 120,51 L 118,53 L 118,55 L 116,57 L 116,62 L 114,64 L 114,67 L 112,69 L 112,73 L 110,75 L 110,77 L 109,78 L 109,81 L 107,83 L 106,83 L 104,81 L 104,78 L 103,77 L 103,76 L 102,75 L 102,74 L 101,73 L 101,71 L 100,70 L 100,69 L 99,68 L 99,66 L 98,65 L 98,64 L 97,63 L 97,60 L 95,58 L 95,55 L 94,54 L 94,52 L 93,51 L 93,44 L 92,43 L 92,42 L 91,41 L 92,40 L 92,32 L 93,31 L 93,25 L 94,24 L 94,22 L 95,21 L 95,16 L 96,15 L 96,14 L 97,13 L 97,10 L 96,9 Z" fill="black" /><path d="M 0,0 L 0,213 L 260,213 L 260,0 Z" fill="none" stroke="black" stroke-width="1" /></svg>