<?xml version='1.0' encoding='utf-8'?>
<svg width="259" height="214" xmlns="http://www.w3.org/2000/svg" viewBox="0 0 259 214"><rect width="259" height="214" fill="white" /><path d="M 131,16 L 131,27 L 132,28 L 132,29 L 131,30 L 131,33 L 132,34 L 132,38 L 131,39 L 131,41 L 132,42 L 132,49 L 131,50 L 131,51 L 132,52 L 132,56 L 131,57 L 131,81 L 132,82 L 132,83 L 131,84 L 131,93 L 130,94 L 130,97 L 129,98 L 129,109 L 128,110 L 128,111 L 129,112 L 129,115 L 127,117 L 127,121 L 126,122 L 126,125 L 125,126 L 125,129 L 123,131 L 123,136 L 122,137 L 122,139 L 121,140 L 121,143 L 120,144 L 120,145 L 119,146 L 119,148 L 117,150 L 117,153 L 116,154 L 116,155 L 114,157 L 113,157 L 106,150 L 106,148 L 105,148 L 104,147 L 104,144 L 102,142 L 102,140 L 101,139 L 101,138 L 100,137 L 100,134 L 99,133 L 99,132 L 98,131 L 98,127 L 96,125 L 96,116 L 95,115 L 95,110 L 94,109 L 94,72 L 89,72 L 87,74 L 87,102 L 88,103 L 87,104 L 87,109 L 88,110 L 88,113 L 89,114 L 89,120 L 91,122 L 91,131 L 93,133 L 93,137 L 94,138 L 94,139 L 95,140 L 95,142 L 97,144 L 97,146 L 99,148 L 99,150 L 101,152 L 101,153 L 102,154 L 102,155 L 109,162 L 110,162 L 111,163 L 111,165 L 109,167 L 109,169 L 107,171 L 107,173 L 106,174 L 105,174 L 105,176 L 103,178 L 103,179 L 101,181 L 101,182 L 99,184 L 99,185 L 95,189 L 95,190 L 92,193 L 91,193 L 88,196 L 87,196 L 87,197 L 86,198 L 85,198 L 85,199 L 84,200 L 83,200 L 81,202 L 79,202 L 78,203 L 78,206 L 79,207 L 80,207 L 81,208 L 83,208 L 84,207 L 84,206 L 87,203 L 88,203 L 88,202 L 89,201 L 90,201 L 92,199 L 93,199 L 102,190 L 102,189 L 104,187 L 104,186 L 107,183 L 108,183 L 108,182 L 110,180 L 110,178 L 111,177 L 112,177 L 112,176 L 113,175 L 113,174 L 114,173 L 114,172 L 115,171 L 115,170 L 116,169 L 116,168 L 117,167 L 118,167 L 118,166 L 119,165 L 119,164 L 120,163 L 120,161 L 122,159 L 122,156 L 123,155 L 123,154 L 124,153 L 124,150 L 126,148 L 126,142 L 127,141 L 127,140 L 128,139 L 128,134 L 129,133 L 129,129 L 130,128 L 130,126 L 131,125 L 131,123 L 132,122 L 132,114 L 133,113 L 133,111 L 134,110 L 134,102 L 135,101 L 135,96 L 136,95 L 136,86 L 139,83 L 140,83 L 140,82 L 141,81 L 142,81 L 144,79 L 144,78 L 147,75 L 148,75 L 148,74 L 149,73 L 150,73 L 150,72 L 155,67 L 155,66 L 158,63 L 158,62 L 159,61 L 160,61 L 160,60 L 161,59 L 161,58 L 164,55 L 164,54 L 166,52 L 166,51 L 168,49 L 168,47 L 170,45 L 170,44 L 171,43 L 171,42 L 172,41 L 172,38 L 174,36 L 174,35 L 175,34 L 175,31 L 174,30 L 171,30 L 169,32 L 169,34 L 168,35 L 168,36 L 167,37 L 167,39 L 165,41 L 165,42 L 163,44 L 163,45 L 161,47 L 161,48 L 159,50 L 159,51 L 158,52 L 158,53 L 157,54 L 157,55 L 156,56 L 155,56 L 155,57 L 149,63 L 149,64 L 147,66 L 147,67 L 144,70 L 143,70 L 139,74 L 138,74 L 136,72 L 136,64 L 137,63 L 137,62 L 136,61 L 136,55 L 137,54 L 137,47 L 136,46 L 136,42 L 137,41 L 137,36 L 136,35 L 136,16 Z" fill="black" /><path d="M 0,0 L 0,213 L 258,213 L 258,0 Z" fill="none" stroke="black" stroke-width="1" /></svg>