<?xml version='1.0' encoding='utf-8'?>
<svg width="260" height="218" xmlns="http://www.w3.org/2000/svg" viewBox="0 0 260 218"><rect width="260" height="218" fill="white" /><path d="M 165,11 L 164,12 L 164,13 L 159,18 L 159,19 L 158,20 L 158,22 L 156,24 L 156,27 L 155,28 L 154,28 L 154,29 L 153,30 L 153,31 L 152,32 L 152,34 L 151,35 L 151,36 L 150,37 L 150,39 L 149,40 L 149,41 L 148,42 L 148,44 L 147,45 L 147,46 L 146,47 L 146,49 L 145,50 L 145,51 L 144,52 L 144,55 L 143,56 L 142,56 L 142,59 L 141,60 L 141,61 L 140,62 L 140,65 L 138,67 L 138,69 L 137,70 L 137,71 L 136,72 L 136,75 L 135,76 L 135,77 L 134,78 L 134,79 L 133,80 L 133,84 L 132,85 L 132,86 L 131,87 L 131,89 L 130,90 L 130,93 L 128,95 L 128,99 L 127,100 L 127,102 L 126,103 L 126,109 L 124,111 L 124,115 L 123,116 L 123,119 L 122,120 L 122,125 L 121,126 L 121,129 L 120,130 L 120,138 L 119,139 L 119,140 L 118,141 L 118,145 L 116,147 L 114,147 L 113,146 L 113,145 L 112,144 L 110,144 L 109,143 L 108,143 L 107,142 L 106,142 L 105,141 L 105,140 L 104,140 L 97,133 L 97,132 L 96,131 L 96,130 L 95,129 L 95,128 L 92,125 L 92,124 L 91,123 L 91,121 L 90,120 L 90,119 L 89,118 L 89,114 L 88,113 L 88,112 L 87,111 L 87,106 L 86,105 L 86,102 L 85,101 L 85,96 L 84,95 L 84,91 L 83,90 L 83,84 L 82,83 L 82,81 L 81,80 L 81,72 L 80,71 L 80,68 L 79,67 L 79,62 L 78,61 L 78,60 L 77,59 L 77,54 L 76,53 L 76,52 L 75,51 L 75,43 L 74,42 L 74,41 L 73,40 L 73,38 L 72,37 L 72,31 L 71,30 L 71,28 L 70,27 L 70,26 L 69,25 L 69,22 L 68,21 L 68,20 L 67,19 L 67,16 L 65,14 L 65,13 L 64,12 L 60,12 L 59,13 L 60,14 L 60,15 L 61,16 L 61,17 L 62,18 L 62,20 L 63,21 L 63,23 L 64,24 L 64,29 L 65,30 L 65,31 L 66,32 L 66,35 L 67,36 L 67,38 L 68,39 L 68,45 L 69,46 L 69,48 L 70,49 L 70,54 L 72,56 L 72,61 L 73,62 L 73,64 L 74,65 L 74,70 L 75,71 L 75,74 L 76,75 L 76,85 L 77,86 L 77,88 L 78,89 L 78,94 L 79,95 L 79,97 L 80,98 L 80,107 L 82,109 L 82,113 L 83,114 L 83,116 L 84,117 L 84,121 L 86,123 L 86,125 L 87,126 L 87,127 L 88,128 L 88,129 L 89,130 L 89,131 L 90,132 L 90,133 L 91,134 L 91,135 L 92,136 L 92,137 L 93,137 L 96,140 L 96,141 L 97,141 L 100,144 L 100,145 L 101,145 L 106,150 L 107,150 L 108,151 L 109,151 L 110,152 L 110,153 L 111,153 L 113,155 L 115,155 L 116,156 L 116,158 L 114,160 L 114,164 L 113,165 L 113,166 L 112,167 L 112,177 L 111,178 L 111,183 L 110,184 L 110,196 L 109,197 L 109,202 L 110,203 L 115,203 L 115,200 L 116,199 L 116,192 L 117,191 L 117,178 L 118,177 L 118,172 L 119,171 L 119,166 L 120,165 L 120,161 L 121,160 L 121,156 L 122,155 L 122,150 L 123,149 L 123,142 L 124,141 L 124,140 L 125,139 L 125,133 L 126,132 L 126,130 L 127,129 L 127,122 L 128,121 L 128,119 L 132,115 L 134,115 L 136,113 L 137,113 L 141,109 L 142,109 L 144,107 L 145,107 L 147,105 L 148,105 L 150,103 L 151,103 L 153,101 L 154,101 L 154,100 L 155,99 L 156,99 L 158,97 L 159,97 L 159,96 L 162,93 L 163,93 L 164,92 L 165,92 L 170,87 L 171,87 L 171,86 L 172,85 L 173,85 L 173,84 L 174,83 L 175,83 L 177,81 L 177,80 L 178,79 L 179,79 L 180,78 L 181,78 L 182,77 L 182,76 L 183,75 L 183,74 L 185,72 L 185,71 L 186,70 L 187,70 L 187,68 L 188,67 L 189,67 L 189,66 L 192,63 L 192,62 L 193,61 L 193,59 L 195,57 L 195,56 L 196,55 L 196,54 L 197,53 L 197,50 L 198,49 L 198,48 L 199,47 L 199,44 L 196,41 L 194,41 L 193,42 L 192,42 L 192,47 L 191,48 L 191,49 L 190,50 L 190,53 L 188,55 L 188,57 L 187,58 L 186,58 L 186,59 L 184,61 L 184,63 L 183,64 L 182,64 L 182,65 L 180,67 L 180,69 L 177,72 L 176,72 L 176,73 L 175,74 L 174,74 L 174,75 L 173,76 L 172,76 L 172,77 L 169,80 L 168,80 L 160,88 L 158,88 L 158,89 L 156,91 L 156,92 L 155,93 L 154,93 L 153,94 L 152,94 L 152,95 L 151,96 L 150,96 L 149,97 L 148,97 L 147,98 L 146,98 L 144,100 L 143,100 L 141,102 L 140,102 L 136,106 L 135,106 L 134,107 L 133,107 L 132,106 L 132,102 L 133,101 L 133,100 L 134,99 L 134,96 L 135,95 L 135,93 L 137,91 L 137,87 L 139,85 L 139,83 L 141,81 L 141,78 L 142,77 L 142,76 L 143,75 L 143,72 L 144,71 L 144,70 L 145,69 L 145,67 L 146,66 L 146,63 L 147,62 L 147,61 L 149,59 L 149,54 L 151,52 L 151,51 L 153,49 L 153,46 L 154,45 L 154,43 L 155,42 L 155,40 L 156,39 L 157,39 L 157,37 L 158,36 L 158,34 L 159,33 L 159,32 L 161,30 L 161,28 L 162,27 L 162,26 L 163,25 L 163,24 L 164,23 L 165,23 L 165,22 L 166,21 L 166,20 L 167,19 L 168,19 L 169,18 L 169,16 L 170,15 L 170,12 L 169,11 Z" fill="black" /><path d="M 0,0 L 0,217 L 259,217 L 259,0 Z" fill="none" stroke="black" stroke-width="1" /></svg>