<?xml version='1.0' encoding='utf-8'?>
<svg width="257" height="219" xmlns="http://www.w3.org/2000/svg" viewBox="0 0 257 219"><rect width="257" height="219" fill="white" /><path d="M 46,6 L 44,8 L 44,17 L 45,18 L 45,23 L 46,24 L 46,26 L 47,27 L 46,28 L 46,29 L 47,30 L 47,36 L 48,37 L 48,41 L 49,42 L 49,55 L 50,56 L 50,65 L 51,66 L 51,76 L 52,77 L 52,80 L 53,81 L 53,85 L 54,86 L 54,91 L 55,92 L 55,94 L 56,95 L 56,96 L 57,97 L 57,101 L 58,102 L 58,105 L 59,106 L 59,108 L 60,109 L 60,110 L 61,111 L 61,113 L 63,115 L 63,117 L 64,117 L 65,118 L 65,120 L 67,122 L 67,123 L 69,125 L 69,126 L 71,128 L 71,129 L 75,133 L 75,135 L 76,135 L 77,136 L 77,137 L 79,139 L 79,140 L 80,141 L 81,141 L 82,142 L 82,143 L 84,145 L 85,145 L 86,146 L 86,147 L 89,150 L 90,150 L 91,151 L 92,151 L 93,152 L 93,153 L 94,153 L 97,156 L 98,156 L 99,157 L 100,157 L 101,158 L 102,158 L 103,159 L 104,159 L 105,160 L 105,161 L 106,161 L 107,162 L 108,162 L 109,163 L 109,173 L 108,174 L 108,176 L 107,177 L 107,181 L 106,182 L 105,182 L 105,185 L 104,186 L 104,187 L 103,188 L 103,192 L 101,194 L 101,197 L 100,198 L 100,199 L 99,200 L 99,203 L 97,205 L 97,207 L 95,209 L 95,213 L 96,213 L 97,214 L 99,214 L 102,211 L 102,210 L 103,209 L 103,208 L 104,207 L 104,204 L 105,203 L 105,202 L 106,201 L 106,198 L 108,196 L 108,193 L 109,192 L 109,191 L 110,190 L 110,188 L 111,187 L 111,186 L 112,185 L 112,182 L 113,181 L 113,180 L 114,179 L 114,177 L 115,176 L 115,174 L 116,173 L 116,168 L 118,166 L 118,161 L 119,160 L 119,158 L 120,157 L 120,150 L 121,149 L 121,146 L 122,145 L 122,138 L 123,137 L 123,132 L 124,131 L 124,120 L 127,117 L 128,117 L 129,116 L 130,116 L 133,113 L 134,113 L 134,112 L 135,111 L 136,111 L 137,110 L 138,110 L 140,108 L 140,107 L 141,106 L 142,106 L 143,105 L 143,104 L 144,103 L 144,102 L 147,99 L 148,99 L 148,98 L 150,96 L 150,95 L 152,93 L 152,91 L 154,89 L 154,88 L 156,86 L 156,85 L 158,83 L 158,80 L 160,78 L 160,77 L 161,76 L 161,74 L 162,73 L 162,71 L 163,70 L 163,66 L 161,64 L 157,64 L 157,65 L 158,66 L 158,67 L 157,68 L 157,70 L 156,71 L 156,72 L 155,73 L 155,75 L 153,77 L 153,80 L 149,84 L 149,85 L 147,87 L 147,88 L 145,90 L 145,93 L 142,96 L 141,96 L 141,97 L 137,101 L 137,102 L 131,108 L 130,108 L 127,111 L 126,111 L 125,110 L 125,109 L 124,108 L 125,107 L 125,102 L 126,101 L 126,68 L 125,67 L 125,53 L 124,52 L 124,40 L 122,40 L 121,39 L 118,39 L 117,40 L 117,43 L 118,44 L 118,45 L 119,46 L 119,57 L 118,58 L 118,62 L 119,63 L 119,109 L 118,110 L 118,111 L 119,112 L 119,117 L 118,118 L 118,127 L 117,128 L 117,139 L 116,140 L 116,145 L 115,146 L 115,151 L 114,152 L 114,153 L 113,154 L 109,154 L 108,153 L 107,153 L 106,152 L 103,152 L 102,151 L 102,150 L 101,150 L 100,149 L 99,149 L 98,148 L 97,148 L 95,146 L 94,146 L 92,144 L 91,144 L 90,143 L 90,142 L 86,138 L 86,137 L 80,131 L 80,130 L 78,128 L 78,127 L 76,125 L 76,124 L 73,121 L 73,120 L 72,119 L 72,118 L 71,117 L 71,116 L 70,115 L 70,114 L 68,112 L 68,110 L 66,108 L 66,106 L 65,105 L 65,104 L 64,103 L 64,100 L 62,98 L 62,94 L 61,93 L 61,89 L 60,88 L 60,84 L 59,83 L 59,81 L 58,80 L 58,74 L 57,73 L 57,67 L 56,66 L 56,56 L 55,55 L 55,52 L 54,51 L 54,50 L 55,49 L 55,47 L 54,46 L 54,37 L 53,36 L 54,35 L 54,32 L 53,31 L 53,28 L 52,27 L 52,10 L 51,9 L 51,8 L 49,6 Z" fill="black" /><path d="M 0,0 L 0,218 L 256,218 L 256,0 Z" fill="none" stroke="black" stroke-width="1" /></svg>