<?xml version='1.0' encoding='utf-8'?>
<svg width="257" height="217" xmlns="http://www.w3.org/2000/svg" viewBox="0 0 257 217"><rect width="257" height="217" fill="white" /><path d="M 54,7 L 53,8 L 52,8 L 52,12 L 53,13 L 52,14 L 52,25 L 53,26 L 53,33 L 54,34 L 54,39 L 55,40 L 55,42 L 56,43 L 56,46 L 58,48 L 58,50 L 60,52 L 60,53 L 61,54 L 61,55 L 62,56 L 62,57 L 63,57 L 64,58 L 64,59 L 65,59 L 68,62 L 68,63 L 72,67 L 73,67 L 74,68 L 74,70 L 75,70 L 76,71 L 76,72 L 77,73 L 78,73 L 80,75 L 81,75 L 82,76 L 82,77 L 84,79 L 85,79 L 86,80 L 86,81 L 87,81 L 88,82 L 89,82 L 92,85 L 92,86 L 93,86 L 108,101 L 109,101 L 110,102 L 110,103 L 111,103 L 116,108 L 116,109 L 118,111 L 118,115 L 119,116 L 119,121 L 120,122 L 120,124 L 119,125 L 119,129 L 120,130 L 120,167 L 119,168 L 119,186 L 120,187 L 120,195 L 119,196 L 120,197 L 120,203 L 122,205 L 125,205 L 126,204 L 126,198 L 125,197 L 125,196 L 126,195 L 126,179 L 128,177 L 129,177 L 130,176 L 131,176 L 134,173 L 135,173 L 137,171 L 138,171 L 142,167 L 143,167 L 143,166 L 144,165 L 145,165 L 145,164 L 146,163 L 147,163 L 147,162 L 148,161 L 149,161 L 149,160 L 151,158 L 151,157 L 153,155 L 153,154 L 154,153 L 155,153 L 155,152 L 157,150 L 157,149 L 159,147 L 159,145 L 161,143 L 161,142 L 162,141 L 162,140 L 163,139 L 163,138 L 164,137 L 164,136 L 167,133 L 167,130 L 166,129 L 166,128 L 164,126 L 160,126 L 159,127 L 159,128 L 158,129 L 158,134 L 156,136 L 156,139 L 154,141 L 154,143 L 153,144 L 152,144 L 152,145 L 150,147 L 150,149 L 144,155 L 144,156 L 142,158 L 142,159 L 139,162 L 138,162 L 137,163 L 136,163 L 133,166 L 132,166 L 129,169 L 128,169 L 126,167 L 126,160 L 127,159 L 126,158 L 126,153 L 125,152 L 126,151 L 126,146 L 125,145 L 126,144 L 126,133 L 125,132 L 126,131 L 126,125 L 125,124 L 125,118 L 126,117 L 125,116 L 125,98 L 126,97 L 126,96 L 125,95 L 125,76 L 124,75 L 124,74 L 125,73 L 125,70 L 124,69 L 124,53 L 125,52 L 125,26 L 123,26 L 122,25 L 119,25 L 117,27 L 117,29 L 118,30 L 118,85 L 119,86 L 119,93 L 120,94 L 120,98 L 119,99 L 116,99 L 115,98 L 115,97 L 114,96 L 112,96 L 109,93 L 109,92 L 108,92 L 105,89 L 105,88 L 104,88 L 103,87 L 103,86 L 102,86 L 97,81 L 97,80 L 96,80 L 95,79 L 94,79 L 85,70 L 84,70 L 83,69 L 82,69 L 81,68 L 81,66 L 80,66 L 79,65 L 79,64 L 78,64 L 77,63 L 77,62 L 76,62 L 75,61 L 75,60 L 74,60 L 71,57 L 71,56 L 69,54 L 69,53 L 67,51 L 67,50 L 65,48 L 65,46 L 64,45 L 64,44 L 63,43 L 63,42 L 62,41 L 62,40 L 61,39 L 61,34 L 60,33 L 60,23 L 59,22 L 59,18 L 60,17 L 60,12 L 59,11 L 59,9 L 57,7 Z" fill="black" /><path d="M 0,0 L 0,216 L 256,216 L 256,0 Z" fill="none" stroke="black" stroke-width="1" /></svg>