<?xml version='1.0' encoding='utf-8'?>
<svg width="261" height="218" xmlns="http://www.w3.org/2000/svg" viewBox="0 0 261 218"><rect width="261" height="218" fill="white" /><path d="M 118,20 L 116,22 L 116,41 L 115,42 L 115,51 L 114,52 L 114,56 L 115,57 L 115,60 L 114,61 L 115,62 L 115,71 L 116,72 L 116,73 L 115,74 L 115,80 L 116,81 L 116,107 L 117,108 L 117,117 L 118,118 L 118,138 L 119,139 L 119,143 L 120,144 L 120,146 L 119,147 L 119,149 L 120,150 L 120,157 L 118,159 L 117,159 L 116,158 L 115,158 L 114,157 L 114,156 L 113,155 L 113,154 L 112,154 L 109,151 L 109,150 L 108,150 L 105,147 L 105,146 L 104,145 L 104,144 L 99,139 L 99,138 L 97,136 L 97,134 L 95,132 L 95,130 L 94,129 L 94,128 L 93,127 L 93,125 L 92,124 L 92,120 L 91,119 L 91,115 L 90,114 L 90,113 L 89,112 L 89,108 L 88,107 L 88,101 L 87,100 L 87,92 L 86,91 L 86,88 L 85,87 L 85,71 L 84,70 L 84,66 L 83,65 L 83,52 L 82,51 L 82,49 L 81,48 L 77,48 L 76,49 L 76,50 L 75,51 L 75,57 L 76,58 L 76,67 L 77,68 L 77,69 L 78,70 L 78,82 L 79,83 L 79,90 L 80,91 L 80,102 L 81,103 L 81,106 L 82,107 L 82,113 L 83,114 L 83,116 L 84,117 L 84,123 L 85,124 L 85,125 L 86,126 L 86,129 L 87,130 L 87,131 L 88,132 L 88,134 L 89,135 L 89,136 L 90,137 L 90,138 L 92,140 L 92,141 L 94,143 L 94,145 L 96,147 L 97,147 L 98,148 L 98,149 L 99,149 L 102,152 L 102,153 L 104,155 L 104,156 L 110,162 L 110,163 L 111,163 L 112,164 L 112,165 L 113,165 L 114,166 L 114,167 L 115,167 L 117,169 L 118,169 L 119,170 L 120,170 L 122,172 L 122,175 L 123,176 L 123,177 L 124,178 L 124,181 L 126,183 L 126,185 L 127,186 L 127,187 L 128,188 L 128,190 L 130,192 L 130,194 L 132,196 L 132,198 L 134,200 L 134,201 L 135,201 L 137,203 L 137,205 L 138,206 L 138,208 L 139,209 L 139,210 L 142,210 L 144,208 L 144,204 L 143,203 L 143,201 L 141,199 L 141,198 L 140,197 L 140,196 L 139,195 L 139,194 L 137,192 L 137,191 L 135,189 L 135,188 L 134,187 L 134,185 L 133,184 L 133,182 L 132,181 L 132,180 L 131,179 L 131,178 L 130,177 L 130,176 L 129,175 L 129,172 L 128,171 L 128,170 L 127,169 L 127,164 L 126,163 L 126,160 L 125,159 L 126,158 L 126,156 L 125,155 L 125,139 L 127,137 L 127,136 L 128,135 L 129,135 L 129,134 L 130,133 L 130,132 L 131,131 L 131,130 L 133,128 L 133,127 L 135,125 L 135,124 L 136,123 L 136,122 L 137,121 L 137,120 L 138,119 L 138,118 L 139,117 L 139,116 L 140,115 L 140,114 L 141,113 L 141,112 L 143,110 L 143,108 L 144,107 L 144,106 L 145,105 L 145,102 L 146,101 L 146,100 L 147,99 L 147,97 L 148,96 L 148,95 L 149,94 L 149,86 L 144,86 L 142,88 L 142,90 L 141,91 L 141,93 L 140,94 L 140,99 L 139,100 L 139,101 L 138,102 L 138,105 L 136,107 L 136,109 L 135,110 L 135,111 L 134,112 L 134,114 L 133,115 L 133,116 L 131,118 L 131,119 L 130,120 L 130,121 L 129,122 L 129,123 L 128,124 L 128,125 L 126,127 L 125,127 L 124,126 L 124,125 L 123,124 L 123,105 L 122,104 L 122,96 L 121,95 L 121,94 L 122,93 L 122,92 L 121,91 L 121,62 L 122,61 L 122,51 L 123,50 L 123,39 L 124,38 L 124,31 L 125,30 L 125,24 L 124,23 L 124,21 L 123,20 Z" fill="black" /><path d="M 0,0 L 0,217 L 260,217 L 260,0 Z" fill="none" stroke="black" stroke-width="1" /></svg>