<?xml version='1.0' encoding='utf-8'?>
<svg width="258" height="215" xmlns="http://www.w3.org/2000/svg" viewBox="0 0 258 215"><rect width="258" height="215" fill="white" /><path d="M 109,7 L 107,9 L 107,10 L 106,11 L 106,13 L 105,14 L 105,15 L 104,16 L 104,21 L 103,22 L 103,24 L 102,25 L 102,33 L 101,34 L 101,41 L 100,42 L 100,45 L 101,46 L 101,51 L 100,52 L 100,53 L 101,54 L 101,68 L 102,69 L 102,77 L 103,78 L 103,80 L 104,81 L 103,82 L 103,88 L 104,89 L 104,99 L 105,100 L 105,103 L 106,104 L 106,109 L 107,110 L 107,113 L 108,114 L 108,119 L 109,120 L 109,122 L 110,123 L 110,129 L 109,130 L 104,130 L 103,129 L 102,129 L 101,128 L 100,128 L 98,126 L 96,126 L 95,125 L 95,124 L 94,124 L 93,123 L 92,123 L 89,120 L 88,120 L 87,119 L 87,118 L 85,116 L 85,115 L 83,113 L 83,112 L 82,111 L 82,110 L 81,109 L 81,108 L 79,106 L 78,106 L 77,105 L 74,108 L 74,109 L 76,111 L 76,113 L 77,114 L 77,115 L 78,116 L 78,118 L 82,122 L 82,123 L 83,123 L 84,124 L 84,125 L 85,125 L 88,128 L 89,128 L 90,129 L 91,129 L 93,131 L 95,131 L 96,132 L 97,132 L 98,133 L 99,133 L 100,134 L 101,134 L 102,135 L 104,135 L 105,136 L 106,136 L 107,137 L 111,137 L 112,138 L 112,142 L 113,143 L 113,144 L 114,145 L 114,149 L 116,151 L 116,154 L 118,156 L 118,159 L 120,161 L 120,162 L 122,164 L 122,166 L 124,168 L 124,170 L 128,174 L 128,175 L 130,177 L 130,178 L 134,182 L 134,183 L 135,183 L 138,186 L 138,187 L 139,188 L 139,189 L 140,189 L 144,193 L 145,193 L 146,194 L 147,194 L 148,195 L 149,195 L 150,196 L 151,196 L 154,199 L 156,199 L 158,201 L 159,201 L 160,202 L 161,202 L 162,203 L 166,203 L 167,204 L 168,204 L 169,205 L 172,205 L 174,207 L 181,207 L 182,208 L 186,208 L 187,209 L 195,209 L 196,210 L 201,210 L 202,209 L 202,207 L 200,205 L 199,205 L 198,204 L 197,205 L 192,205 L 191,204 L 183,204 L 182,203 L 180,203 L 179,202 L 173,202 L 171,200 L 168,200 L 167,199 L 166,199 L 165,198 L 163,198 L 162,197 L 162,196 L 160,196 L 159,195 L 158,195 L 157,194 L 156,194 L 154,192 L 153,192 L 151,190 L 150,190 L 146,186 L 146,183 L 147,182 L 147,181 L 148,180 L 148,178 L 149,177 L 149,174 L 150,173 L 150,172 L 151,171 L 151,170 L 152,169 L 152,167 L 153,166 L 153,163 L 154,162 L 154,160 L 155,159 L 155,156 L 156,155 L 156,154 L 157,153 L 157,151 L 158,150 L 158,148 L 159,147 L 159,144 L 160,143 L 160,142 L 161,141 L 161,136 L 162,135 L 162,134 L 163,133 L 163,131 L 164,130 L 164,128 L 165,127 L 165,116 L 166,115 L 166,114 L 167,113 L 167,109 L 168,108 L 168,100 L 169,99 L 169,87 L 170,86 L 170,84 L 169,83 L 169,79 L 170,78 L 170,77 L 169,76 L 169,72 L 168,71 L 168,69 L 167,68 L 167,62 L 166,61 L 166,56 L 165,55 L 165,49 L 164,48 L 164,43 L 163,42 L 163,40 L 161,38 L 160,38 L 159,37 L 157,39 L 157,40 L 158,41 L 158,45 L 159,46 L 159,48 L 160,49 L 159,50 L 159,51 L 160,52 L 160,57 L 161,58 L 161,63 L 162,64 L 162,73 L 163,74 L 163,88 L 164,89 L 164,91 L 163,92 L 163,102 L 162,103 L 162,109 L 161,110 L 161,116 L 160,117 L 160,123 L 159,124 L 159,127 L 158,128 L 158,131 L 157,132 L 157,134 L 156,135 L 156,139 L 155,140 L 155,141 L 154,142 L 154,147 L 153,148 L 153,149 L 152,150 L 152,151 L 151,152 L 151,154 L 150,155 L 150,159 L 148,161 L 148,164 L 146,166 L 146,169 L 143,172 L 143,176 L 142,177 L 142,179 L 141,180 L 140,179 L 139,179 L 137,177 L 137,176 L 135,174 L 135,173 L 133,171 L 133,170 L 132,170 L 131,169 L 131,168 L 129,166 L 129,164 L 128,164 L 127,163 L 127,161 L 125,159 L 125,156 L 123,154 L 123,152 L 122,151 L 122,150 L 121,149 L 121,147 L 120,146 L 120,145 L 119,144 L 119,142 L 118,141 L 118,140 L 117,139 L 117,133 L 116,132 L 116,130 L 115,129 L 115,122 L 114,121 L 114,116 L 113,115 L 113,112 L 112,111 L 112,107 L 111,106 L 111,100 L 110,99 L 110,94 L 109,93 L 109,80 L 108,79 L 108,78 L 109,77 L 109,76 L 108,75 L 108,72 L 107,71 L 107,68 L 108,67 L 108,63 L 107,62 L 107,27 L 108,26 L 108,25 L 109,24 L 109,20 L 110,19 L 110,18 L 111,17 L 111,13 L 112,12 L 112,9 L 110,7 Z" fill="black" /><path d="M 0,0 L 0,214 L 257,214 L 257,0 Z" fill="none" stroke="black" stroke-width="1" /></svg>