<?xml version='1.0' encoding='utf-8'?>
<svg width="258" height="220" xmlns="http://www.w3.org/2000/svg" viewBox="0 0 258 220"><rect width="258" height="220" fill="white" /><path d="M 198,30 L 198,33 L 197,34 L 197,35 L 196,36 L 196,39 L 195,40 L 195,44 L 194,45 L 194,47 L 193,48 L 193,50 L 192,51 L 192,54 L 190,56 L 190,61 L 188,63 L 188,65 L 187,66 L 187,68 L 186,69 L 186,71 L 185,72 L 185,75 L 184,76 L 184,77 L 183,78 L 183,79 L 182,80 L 182,83 L 181,84 L 181,85 L 180,86 L 180,89 L 179,90 L 179,91 L 178,92 L 178,93 L 177,94 L 177,95 L 176,96 L 176,98 L 175,99 L 175,100 L 174,101 L 174,103 L 173,104 L 173,105 L 172,106 L 172,107 L 171,108 L 170,108 L 170,109 L 168,111 L 168,113 L 167,114 L 166,114 L 166,115 L 165,116 L 165,117 L 164,118 L 164,119 L 163,120 L 163,121 L 162,122 L 162,123 L 160,125 L 160,126 L 158,128 L 158,129 L 157,130 L 156,130 L 156,131 L 155,132 L 155,133 L 154,134 L 154,135 L 151,138 L 150,138 L 150,139 L 149,140 L 149,141 L 138,152 L 137,152 L 132,157 L 131,156 L 130,156 L 129,155 L 129,152 L 130,151 L 130,148 L 131,147 L 131,124 L 132,123 L 132,93 L 133,92 L 132,91 L 132,76 L 131,75 L 131,69 L 132,68 L 132,66 L 131,65 L 131,51 L 130,50 L 130,47 L 129,46 L 129,44 L 128,43 L 124,43 L 124,51 L 125,52 L 125,55 L 126,56 L 126,69 L 127,70 L 127,71 L 126,72 L 126,81 L 127,82 L 127,90 L 128,91 L 127,92 L 127,120 L 126,121 L 126,122 L 124,124 L 123,123 L 121,123 L 119,121 L 119,120 L 118,120 L 117,119 L 116,119 L 115,118 L 114,118 L 111,115 L 110,115 L 107,112 L 106,112 L 105,111 L 105,110 L 99,104 L 99,103 L 97,101 L 97,98 L 96,98 L 95,97 L 95,89 L 94,88 L 94,85 L 95,84 L 95,80 L 93,78 L 90,78 L 88,80 L 88,92 L 89,93 L 89,96 L 90,97 L 90,102 L 92,104 L 92,105 L 94,107 L 94,108 L 96,110 L 96,111 L 97,111 L 98,112 L 98,113 L 100,115 L 101,115 L 105,119 L 106,119 L 108,121 L 109,121 L 110,122 L 110,123 L 111,123 L 113,125 L 115,125 L 117,127 L 118,127 L 120,129 L 123,129 L 126,132 L 126,137 L 125,138 L 125,146 L 124,147 L 124,158 L 123,159 L 123,164 L 122,165 L 122,171 L 121,172 L 121,173 L 120,174 L 120,181 L 119,182 L 119,187 L 123,187 L 125,185 L 125,182 L 126,181 L 126,180 L 127,179 L 127,172 L 128,171 L 128,167 L 134,161 L 135,161 L 138,158 L 139,158 L 142,155 L 143,155 L 143,154 L 144,153 L 145,153 L 145,152 L 146,151 L 147,151 L 147,150 L 153,144 L 153,143 L 154,142 L 155,142 L 156,141 L 156,140 L 157,139 L 157,138 L 160,135 L 161,135 L 161,134 L 162,133 L 162,132 L 163,131 L 163,130 L 164,129 L 165,129 L 165,127 L 167,125 L 167,124 L 169,122 L 169,120 L 170,119 L 170,118 L 173,115 L 173,114 L 174,113 L 174,112 L 175,111 L 175,110 L 177,108 L 177,106 L 179,104 L 179,102 L 181,100 L 181,98 L 183,96 L 183,94 L 184,93 L 184,92 L 185,91 L 185,88 L 186,87 L 186,86 L 187,85 L 187,82 L 188,81 L 188,80 L 189,79 L 189,78 L 190,77 L 190,76 L 191,75 L 191,72 L 192,71 L 192,69 L 193,68 L 193,66 L 194,65 L 194,63 L 195,62 L 195,60 L 196,59 L 196,58 L 197,57 L 197,54 L 198,53 L 198,52 L 199,51 L 199,48 L 200,47 L 200,45 L 201,44 L 201,40 L 202,39 L 202,36 L 203,35 L 203,30 Z" fill="black" /><path d="M 0,0 L 0,219 L 257,219 L 257,0 Z" fill="none" stroke="black" stroke-width="1" /></svg>