<?xml version='1.0' encoding='utf-8'?>
<svg width="260" height="219" xmlns="http://www.w3.org/2000/svg" viewBox="0 0 260 219"><rect width="260" height="219" fill="white" /><path d="M 132,18 L 131,19 L 129,19 L 129,20 L 128,21 L 126,21 L 125,22 L 125,23 L 123,25 L 123,36 L 125,38 L 125,39 L 126,40 L 127,40 L 129,42 L 130,42 L 131,43 L 136,43 L 137,44 L 138,44 L 139,45 L 139,74 L 140,75 L 140,84 L 141,85 L 141,98 L 142,99 L 142,100 L 143,101 L 143,104 L 144,105 L 143,106 L 143,107 L 142,108 L 141,108 L 140,107 L 139,107 L 138,106 L 137,106 L 136,105 L 135,105 L 133,103 L 132,103 L 130,101 L 129,101 L 127,99 L 125,99 L 122,96 L 122,95 L 121,95 L 116,90 L 115,90 L 110,85 L 110,84 L 108,82 L 108,81 L 107,81 L 106,80 L 106,78 L 104,76 L 104,74 L 102,72 L 102,71 L 101,70 L 101,69 L 100,68 L 100,66 L 99,65 L 99,63 L 98,62 L 98,61 L 96,59 L 96,57 L 95,57 L 94,56 L 94,54 L 93,53 L 93,52 L 92,51 L 92,48 L 91,47 L 91,46 L 89,44 L 86,44 L 85,45 L 85,48 L 86,49 L 86,50 L 87,51 L 87,54 L 88,55 L 88,57 L 89,58 L 89,60 L 90,61 L 90,62 L 91,63 L 91,64 L 92,64 L 93,65 L 93,69 L 95,71 L 95,72 L 96,73 L 96,74 L 97,75 L 97,76 L 98,77 L 98,78 L 99,79 L 99,80 L 101,82 L 101,83 L 103,85 L 103,86 L 106,89 L 106,90 L 107,90 L 108,91 L 108,92 L 113,97 L 114,97 L 117,100 L 118,100 L 122,104 L 123,104 L 125,106 L 126,106 L 127,107 L 127,108 L 130,108 L 132,110 L 133,110 L 135,112 L 138,112 L 139,113 L 139,114 L 143,114 L 145,116 L 145,118 L 146,119 L 146,120 L 147,121 L 147,124 L 148,125 L 148,126 L 149,127 L 149,130 L 151,132 L 151,134 L 152,135 L 152,136 L 153,137 L 153,138 L 154,139 L 154,140 L 155,141 L 155,144 L 157,146 L 157,147 L 158,148 L 158,150 L 159,151 L 159,154 L 158,155 L 151,155 L 150,154 L 149,154 L 148,153 L 145,153 L 144,152 L 141,152 L 140,151 L 139,151 L 137,149 L 134,149 L 132,147 L 130,147 L 129,146 L 128,146 L 127,145 L 125,145 L 122,142 L 121,142 L 119,140 L 118,140 L 116,138 L 115,138 L 114,137 L 113,137 L 112,136 L 112,135 L 108,135 L 106,133 L 105,133 L 103,131 L 101,131 L 99,129 L 98,129 L 94,125 L 93,125 L 90,122 L 90,121 L 89,121 L 87,119 L 86,119 L 85,118 L 85,117 L 78,110 L 78,109 L 77,109 L 76,108 L 76,107 L 75,107 L 72,104 L 72,103 L 71,102 L 71,101 L 66,96 L 66,94 L 64,92 L 64,91 L 63,90 L 63,89 L 62,88 L 62,86 L 60,84 L 60,82 L 59,81 L 59,80 L 58,79 L 58,77 L 57,76 L 57,73 L 56,72 L 56,69 L 55,68 L 55,66 L 54,65 L 54,64 L 53,63 L 53,60 L 52,59 L 52,54 L 51,53 L 51,52 L 50,51 L 50,50 L 49,49 L 45,49 L 43,51 L 43,55 L 44,56 L 44,57 L 45,58 L 45,62 L 46,63 L 46,64 L 47,64 L 48,65 L 48,68 L 49,69 L 49,72 L 50,73 L 50,77 L 51,78 L 51,80 L 52,80 L 53,81 L 53,86 L 55,88 L 55,89 L 57,91 L 57,94 L 58,95 L 58,96 L 59,97 L 59,98 L 63,102 L 63,103 L 64,104 L 64,105 L 65,106 L 65,107 L 68,110 L 69,110 L 71,112 L 71,114 L 72,114 L 74,116 L 75,116 L 76,117 L 76,118 L 77,119 L 77,120 L 81,124 L 81,125 L 82,126 L 83,126 L 85,128 L 86,128 L 88,130 L 90,130 L 91,131 L 92,131 L 96,135 L 97,135 L 99,137 L 100,137 L 101,138 L 102,138 L 104,140 L 106,140 L 107,141 L 107,142 L 108,142 L 110,144 L 111,144 L 113,146 L 116,146 L 117,147 L 117,148 L 119,148 L 121,150 L 122,150 L 123,151 L 124,151 L 125,152 L 128,152 L 129,153 L 129,154 L 132,154 L 134,156 L 136,156 L 137,157 L 138,157 L 139,158 L 141,158 L 142,159 L 144,159 L 145,160 L 151,160 L 152,161 L 154,161 L 155,162 L 165,162 L 172,169 L 172,170 L 174,172 L 175,172 L 179,176 L 180,176 L 181,177 L 181,178 L 182,178 L 184,180 L 185,180 L 187,182 L 188,182 L 189,183 L 190,183 L 191,184 L 192,184 L 194,186 L 195,186 L 197,188 L 198,188 L 200,190 L 202,190 L 203,191 L 203,192 L 206,192 L 208,190 L 208,187 L 206,185 L 204,185 L 202,183 L 201,183 L 200,182 L 199,182 L 198,181 L 197,181 L 196,180 L 196,179 L 194,179 L 192,177 L 191,177 L 189,175 L 187,175 L 183,171 L 182,171 L 174,163 L 174,162 L 173,161 L 172,161 L 169,158 L 169,157 L 168,156 L 168,155 L 167,154 L 167,153 L 166,152 L 166,151 L 165,150 L 165,149 L 164,148 L 164,147 L 162,145 L 162,143 L 161,142 L 161,141 L 160,140 L 160,138 L 159,137 L 159,136 L 158,135 L 158,133 L 157,132 L 157,131 L 156,130 L 156,128 L 154,126 L 154,122 L 152,120 L 152,115 L 151,115 L 150,114 L 150,108 L 149,107 L 149,103 L 148,102 L 148,95 L 147,94 L 147,91 L 146,90 L 146,71 L 145,70 L 145,63 L 146,62 L 146,61 L 145,60 L 145,43 L 144,42 L 146,40 L 146,39 L 148,37 L 148,35 L 149,34 L 149,29 L 148,28 L 148,25 L 147,24 L 147,23 L 145,21 L 143,21 L 142,20 L 142,19 L 140,19 L 139,18 Z" fill="black" /><path d="M 0,0 L 0,218 L 259,218 L 259,0 Z" fill="none" stroke="black" stroke-width="1" /></svg>