<?xml version='1.0' encoding='utf-8'?>
<svg width="258" height="215" xmlns="http://www.w3.org/2000/svg" viewBox="0 0 258 215"><rect width="258" height="215" fill="white" /><path d="M 86,13 L 78,21 L 78,23 L 77,24 L 77,27 L 78,28 L 78,32 L 79,33 L 79,34 L 82,37 L 83,37 L 84,38 L 85,38 L 86,39 L 89,39 L 90,38 L 93,38 L 94,39 L 94,49 L 95,50 L 95,54 L 96,55 L 96,86 L 97,87 L 97,88 L 98,89 L 98,97 L 99,98 L 99,110 L 100,111 L 100,120 L 101,121 L 101,128 L 102,129 L 102,143 L 103,144 L 103,153 L 102,154 L 103,155 L 103,164 L 104,165 L 104,174 L 105,175 L 105,176 L 106,177 L 106,185 L 107,186 L 107,187 L 108,188 L 108,192 L 109,193 L 109,195 L 110,196 L 110,200 L 111,201 L 111,202 L 112,203 L 112,206 L 114,206 L 117,203 L 117,200 L 116,199 L 116,195 L 115,194 L 115,191 L 114,190 L 114,188 L 113,187 L 113,183 L 112,182 L 112,179 L 111,178 L 111,173 L 112,172 L 113,172 L 119,166 L 119,165 L 120,164 L 121,164 L 121,163 L 124,160 L 125,160 L 125,159 L 128,156 L 128,155 L 129,154 L 130,154 L 133,151 L 133,150 L 135,148 L 135,147 L 136,146 L 137,146 L 137,145 L 138,144 L 139,144 L 139,143 L 145,137 L 145,136 L 147,134 L 147,133 L 148,132 L 148,131 L 149,130 L 149,129 L 150,128 L 150,127 L 151,126 L 151,125 L 153,123 L 153,122 L 155,120 L 155,119 L 156,118 L 156,117 L 157,116 L 157,115 L 159,113 L 159,111 L 160,110 L 160,109 L 161,108 L 161,107 L 162,106 L 162,105 L 163,104 L 163,103 L 165,101 L 165,99 L 166,98 L 166,97 L 167,96 L 167,93 L 168,92 L 169,92 L 169,90 L 170,89 L 170,87 L 171,86 L 171,85 L 173,83 L 173,80 L 175,78 L 175,75 L 177,73 L 177,71 L 179,69 L 179,67 L 180,66 L 180,63 L 181,62 L 181,60 L 183,58 L 183,54 L 184,53 L 184,52 L 185,51 L 185,49 L 186,48 L 186,47 L 187,46 L 187,44 L 189,42 L 189,38 L 190,37 L 190,35 L 191,34 L 191,31 L 192,30 L 192,29 L 193,28 L 193,17 L 191,15 L 189,15 L 188,16 L 188,24 L 187,25 L 187,26 L 186,27 L 186,33 L 184,35 L 184,40 L 183,41 L 182,41 L 182,44 L 181,45 L 181,46 L 180,47 L 180,51 L 178,53 L 178,56 L 176,58 L 176,61 L 175,62 L 175,63 L 174,64 L 174,69 L 172,71 L 171,71 L 171,73 L 170,74 L 170,76 L 168,78 L 168,80 L 167,81 L 167,82 L 166,83 L 166,84 L 165,85 L 165,86 L 164,87 L 164,89 L 162,91 L 162,94 L 161,95 L 161,96 L 160,97 L 160,99 L 158,101 L 158,103 L 156,105 L 156,106 L 155,107 L 154,107 L 154,110 L 152,112 L 152,114 L 151,115 L 150,115 L 150,116 L 149,117 L 149,119 L 148,120 L 148,121 L 147,122 L 147,124 L 146,125 L 145,125 L 144,126 L 144,128 L 143,129 L 142,129 L 142,132 L 136,138 L 136,139 L 134,141 L 134,142 L 133,143 L 132,143 L 132,144 L 127,149 L 127,150 L 122,155 L 122,156 L 121,157 L 120,157 L 118,159 L 118,160 L 116,162 L 114,162 L 113,163 L 111,163 L 109,161 L 109,135 L 115,129 L 115,128 L 117,126 L 117,125 L 121,121 L 121,119 L 123,117 L 123,115 L 126,112 L 126,111 L 127,110 L 127,108 L 129,106 L 129,105 L 130,104 L 130,103 L 131,102 L 131,99 L 132,98 L 133,98 L 133,97 L 134,96 L 134,94 L 135,93 L 135,91 L 136,90 L 136,88 L 137,87 L 137,83 L 138,82 L 138,81 L 139,80 L 139,77 L 140,76 L 140,75 L 141,74 L 141,71 L 142,70 L 142,67 L 143,66 L 143,64 L 144,63 L 144,60 L 145,59 L 145,56 L 144,55 L 144,54 L 143,53 L 140,53 L 138,55 L 138,62 L 137,63 L 137,64 L 136,65 L 136,70 L 135,71 L 135,75 L 134,76 L 134,79 L 132,81 L 132,84 L 131,85 L 131,86 L 130,87 L 130,90 L 129,91 L 129,93 L 128,94 L 128,96 L 127,97 L 127,98 L 126,99 L 126,100 L 125,101 L 125,102 L 124,103 L 124,104 L 123,105 L 123,106 L 122,107 L 122,108 L 121,109 L 121,110 L 120,111 L 120,112 L 118,114 L 118,115 L 116,117 L 116,119 L 112,123 L 112,124 L 111,125 L 110,125 L 109,126 L 108,126 L 107,125 L 107,120 L 106,119 L 106,112 L 105,111 L 105,96 L 104,95 L 104,88 L 103,87 L 103,77 L 102,76 L 102,74 L 103,73 L 103,71 L 102,70 L 102,64 L 101,63 L 101,41 L 100,40 L 100,34 L 102,32 L 103,32 L 103,29 L 104,28 L 104,25 L 103,24 L 103,20 L 98,15 L 96,15 L 95,14 L 93,14 L 92,13 Z" fill="black" /><path d="M 0,0 L 0,214 L 257,214 L 257,0 Z" fill="none" stroke="black" stroke-width="1" /></svg>