<?xml version='1.0' encoding='utf-8'?>
<svg width="258" height="218" xmlns="http://www.w3.org/2000/svg" viewBox="0 0 258 218"><rect width="258" height="218" fill="white" /><path d="M 133,18 L 132,19 L 131,19 L 130,20 L 128,20 L 126,22 L 126,23 L 125,24 L 125,25 L 124,26 L 124,29 L 123,30 L 123,31 L 124,32 L 124,38 L 125,39 L 126,39 L 127,40 L 128,40 L 131,43 L 136,43 L 137,44 L 140,44 L 141,45 L 141,56 L 140,57 L 140,61 L 139,62 L 139,69 L 138,70 L 138,73 L 137,74 L 137,75 L 136,76 L 136,77 L 135,78 L 135,79 L 134,80 L 134,81 L 133,82 L 133,85 L 131,87 L 131,89 L 129,91 L 129,93 L 127,95 L 126,94 L 125,94 L 122,91 L 121,91 L 119,89 L 119,88 L 118,88 L 116,86 L 116,85 L 115,84 L 114,84 L 109,79 L 109,78 L 106,75 L 106,73 L 104,71 L 104,69 L 103,68 L 103,66 L 102,65 L 102,63 L 101,62 L 101,60 L 100,59 L 100,58 L 96,54 L 93,54 L 93,60 L 95,62 L 95,66 L 97,68 L 97,71 L 98,72 L 98,73 L 99,74 L 99,76 L 101,78 L 101,79 L 103,81 L 103,82 L 113,92 L 114,92 L 117,95 L 118,95 L 121,98 L 123,98 L 124,99 L 124,102 L 123,103 L 123,104 L 121,106 L 121,107 L 120,108 L 119,108 L 119,109 L 118,110 L 118,111 L 115,114 L 115,115 L 113,117 L 113,118 L 111,120 L 111,121 L 109,123 L 109,124 L 107,126 L 107,127 L 106,128 L 105,128 L 105,129 L 103,131 L 103,132 L 99,136 L 99,137 L 98,138 L 95,138 L 94,137 L 92,137 L 91,136 L 89,136 L 87,134 L 86,134 L 84,132 L 83,132 L 82,131 L 82,130 L 81,130 L 79,128 L 78,128 L 77,127 L 77,126 L 76,126 L 73,123 L 73,122 L 72,122 L 70,120 L 70,119 L 68,117 L 68,116 L 67,116 L 66,115 L 66,114 L 64,112 L 64,111 L 62,109 L 62,108 L 58,104 L 58,102 L 56,100 L 56,98 L 55,98 L 54,97 L 54,95 L 52,93 L 52,91 L 50,89 L 50,87 L 49,86 L 49,85 L 48,84 L 48,81 L 47,80 L 47,79 L 46,78 L 46,72 L 45,71 L 45,65 L 44,64 L 44,58 L 45,57 L 45,54 L 44,53 L 44,48 L 43,47 L 38,47 L 38,70 L 39,71 L 39,76 L 40,77 L 40,79 L 41,80 L 41,84 L 42,85 L 42,86 L 43,87 L 43,89 L 44,90 L 44,91 L 45,92 L 45,94 L 47,96 L 47,97 L 48,98 L 48,99 L 50,101 L 50,102 L 51,103 L 51,104 L 53,106 L 53,107 L 54,108 L 54,109 L 55,110 L 55,111 L 60,116 L 60,117 L 61,118 L 61,119 L 67,125 L 67,126 L 69,128 L 69,129 L 70,129 L 71,130 L 71,131 L 72,131 L 74,133 L 75,133 L 77,135 L 78,135 L 79,136 L 79,137 L 81,137 L 83,139 L 84,139 L 86,141 L 88,141 L 92,145 L 92,148 L 89,151 L 89,152 L 87,154 L 87,155 L 85,157 L 85,158 L 83,160 L 83,161 L 82,162 L 82,163 L 81,164 L 81,165 L 79,167 L 79,169 L 78,170 L 78,171 L 77,172 L 77,175 L 76,176 L 75,176 L 75,177 L 74,178 L 74,179 L 73,180 L 73,181 L 71,183 L 71,184 L 70,185 L 70,186 L 69,187 L 69,189 L 68,190 L 68,191 L 67,192 L 67,197 L 66,198 L 66,207 L 70,207 L 71,206 L 71,205 L 72,204 L 72,199 L 74,197 L 74,194 L 75,193 L 75,192 L 76,191 L 76,190 L 77,189 L 77,188 L 78,187 L 78,186 L 79,185 L 79,184 L 80,183 L 80,180 L 81,179 L 81,178 L 82,177 L 82,176 L 87,171 L 88,171 L 89,170 L 90,170 L 91,169 L 96,169 L 98,167 L 101,167 L 102,166 L 106,166 L 107,165 L 110,165 L 112,163 L 114,163 L 115,162 L 116,162 L 117,161 L 119,161 L 120,160 L 121,160 L 122,159 L 123,159 L 124,158 L 125,158 L 126,157 L 127,157 L 129,155 L 131,155 L 132,154 L 133,154 L 134,153 L 135,153 L 137,151 L 138,151 L 138,150 L 139,149 L 140,149 L 142,147 L 143,147 L 145,145 L 146,145 L 146,144 L 147,143 L 148,143 L 148,142 L 149,141 L 150,141 L 152,139 L 153,139 L 156,136 L 156,135 L 158,133 L 159,133 L 159,132 L 162,129 L 163,129 L 171,121 L 171,120 L 174,117 L 174,116 L 175,115 L 176,115 L 176,114 L 183,107 L 183,106 L 184,105 L 184,104 L 187,101 L 187,100 L 188,99 L 188,98 L 189,97 L 190,97 L 190,95 L 192,93 L 192,91 L 193,90 L 193,89 L 196,86 L 196,85 L 198,83 L 198,81 L 200,79 L 200,78 L 202,76 L 202,74 L 203,73 L 203,72 L 204,71 L 204,70 L 205,69 L 205,68 L 206,67 L 206,65 L 207,64 L 207,63 L 208,62 L 208,60 L 209,59 L 209,58 L 210,57 L 210,55 L 211,54 L 211,53 L 212,52 L 212,50 L 213,49 L 213,48 L 214,47 L 214,43 L 215,42 L 215,41 L 216,40 L 216,36 L 218,34 L 218,31 L 216,29 L 216,28 L 213,28 L 213,29 L 212,30 L 212,34 L 211,35 L 211,37 L 210,38 L 209,38 L 209,41 L 208,42 L 208,43 L 207,44 L 207,47 L 205,49 L 205,53 L 204,54 L 204,55 L 203,56 L 203,59 L 202,60 L 201,60 L 201,63 L 199,65 L 199,67 L 197,69 L 197,71 L 195,73 L 195,75 L 194,76 L 194,77 L 193,78 L 193,79 L 192,80 L 192,81 L 191,82 L 191,83 L 189,85 L 189,86 L 187,88 L 187,90 L 185,92 L 185,93 L 184,94 L 183,94 L 183,95 L 182,96 L 182,97 L 181,98 L 181,99 L 180,100 L 179,100 L 177,102 L 177,103 L 176,104 L 176,105 L 171,110 L 171,111 L 169,113 L 169,114 L 165,118 L 164,118 L 164,119 L 163,120 L 163,121 L 162,122 L 161,122 L 157,126 L 157,127 L 156,128 L 155,128 L 155,129 L 154,130 L 153,130 L 153,131 L 152,132 L 151,132 L 143,140 L 142,140 L 142,141 L 141,142 L 140,142 L 138,144 L 137,144 L 135,146 L 133,146 L 131,148 L 130,148 L 128,150 L 127,150 L 125,152 L 123,152 L 122,153 L 121,153 L 120,154 L 119,154 L 118,155 L 117,155 L 116,156 L 113,156 L 112,157 L 111,157 L 110,158 L 109,158 L 108,159 L 106,159 L 105,160 L 103,160 L 102,161 L 99,161 L 98,162 L 94,162 L 93,163 L 92,163 L 90,161 L 91,160 L 91,159 L 94,156 L 94,155 L 96,153 L 96,152 L 98,150 L 98,148 L 99,147 L 100,147 L 100,146 L 101,145 L 101,144 L 102,143 L 102,142 L 105,139 L 106,139 L 106,138 L 107,137 L 107,136 L 110,133 L 110,132 L 111,131 L 112,131 L 112,130 L 113,129 L 113,128 L 116,125 L 116,124 L 117,123 L 117,122 L 120,119 L 120,118 L 121,117 L 121,116 L 124,113 L 124,112 L 126,110 L 126,109 L 128,107 L 128,106 L 130,104 L 130,102 L 131,101 L 132,101 L 132,100 L 134,98 L 134,97 L 136,95 L 136,92 L 138,90 L 138,88 L 140,86 L 140,83 L 141,82 L 141,81 L 142,80 L 142,77 L 143,76 L 143,75 L 144,74 L 144,68 L 146,66 L 146,56 L 147,55 L 147,51 L 148,50 L 148,38 L 149,37 L 149,36 L 150,35 L 150,27 L 149,26 L 149,24 L 148,24 L 145,21 L 145,20 L 144,20 L 142,18 Z" fill="black" /><path d="M 0,0 L 0,217 L 257,217 L 257,0 Z" fill="none" stroke="black" stroke-width="1" /></svg>