<?xml version='1.0' encoding='utf-8'?>
<svg width="260" height="219" xmlns="http://www.w3.org/2000/svg" viewBox="0 0 260 219"><rect width="260" height="219" fill="white" /><path d="M 116,12 L 115,13 L 112,13 L 111,14 L 110,14 L 110,15 L 109,16 L 108,16 L 106,18 L 106,19 L 105,20 L 105,21 L 104,22 L 104,29 L 106,31 L 106,32 L 109,35 L 110,35 L 111,36 L 112,36 L 113,37 L 115,37 L 116,38 L 119,38 L 120,39 L 120,59 L 119,60 L 119,63 L 118,64 L 118,67 L 120,69 L 120,71 L 119,72 L 119,73 L 120,74 L 120,85 L 119,86 L 119,88 L 120,89 L 120,92 L 119,93 L 119,94 L 118,95 L 118,102 L 117,103 L 114,103 L 113,102 L 113,101 L 112,100 L 110,100 L 109,99 L 109,98 L 108,98 L 106,96 L 105,96 L 103,94 L 102,94 L 93,85 L 93,84 L 92,84 L 91,83 L 91,82 L 89,80 L 89,79 L 87,77 L 87,76 L 85,74 L 85,73 L 84,72 L 84,71 L 83,70 L 83,69 L 81,67 L 81,66 L 80,65 L 80,64 L 79,63 L 79,60 L 77,58 L 77,55 L 76,54 L 76,53 L 75,52 L 75,48 L 74,47 L 74,46 L 73,45 L 73,42 L 72,41 L 72,40 L 71,39 L 71,35 L 70,34 L 70,31 L 69,30 L 69,21 L 68,20 L 68,19 L 67,18 L 62,18 L 62,25 L 63,26 L 63,29 L 64,30 L 64,33 L 65,34 L 65,37 L 66,38 L 66,43 L 67,44 L 67,46 L 68,47 L 68,49 L 69,50 L 69,51 L 70,52 L 70,56 L 72,58 L 72,61 L 73,62 L 73,63 L 74,64 L 74,67 L 75,68 L 75,69 L 78,72 L 78,73 L 80,75 L 80,77 L 82,79 L 82,81 L 85,84 L 85,85 L 88,88 L 88,89 L 89,89 L 90,90 L 90,91 L 94,95 L 95,95 L 96,96 L 96,97 L 97,97 L 99,99 L 100,99 L 102,101 L 103,101 L 105,103 L 106,103 L 108,105 L 109,105 L 110,106 L 111,106 L 112,107 L 113,107 L 114,108 L 114,109 L 115,109 L 118,112 L 118,145 L 117,146 L 117,149 L 116,150 L 116,161 L 117,162 L 117,164 L 115,166 L 114,166 L 113,165 L 113,164 L 112,163 L 112,162 L 108,162 L 107,161 L 107,160 L 106,160 L 105,159 L 104,159 L 103,158 L 102,158 L 101,157 L 101,156 L 100,156 L 99,155 L 98,155 L 97,154 L 96,154 L 95,153 L 95,152 L 94,152 L 92,150 L 91,150 L 89,148 L 87,148 L 79,140 L 78,140 L 77,139 L 77,138 L 71,132 L 71,131 L 69,129 L 69,128 L 68,128 L 65,125 L 65,124 L 64,123 L 64,122 L 61,119 L 61,118 L 59,116 L 59,115 L 57,113 L 57,112 L 55,110 L 55,109 L 53,107 L 53,105 L 51,103 L 51,102 L 49,100 L 49,98 L 48,97 L 48,96 L 47,95 L 47,92 L 46,91 L 46,90 L 45,89 L 45,84 L 44,83 L 44,82 L 43,81 L 43,76 L 42,75 L 42,74 L 41,73 L 41,65 L 40,64 L 40,63 L 39,62 L 39,41 L 38,40 L 39,39 L 39,20 L 37,18 L 33,18 L 33,22 L 32,23 L 32,55 L 34,57 L 34,59 L 33,60 L 33,61 L 34,62 L 34,70 L 35,71 L 35,74 L 36,75 L 36,82 L 38,84 L 38,87 L 39,88 L 39,90 L 40,91 L 40,95 L 41,96 L 41,97 L 42,98 L 42,100 L 44,102 L 44,103 L 45,104 L 45,105 L 46,106 L 46,107 L 47,108 L 47,109 L 48,110 L 48,111 L 50,113 L 50,114 L 52,116 L 52,117 L 53,118 L 53,119 L 56,122 L 56,123 L 58,125 L 58,126 L 62,130 L 62,131 L 64,133 L 64,134 L 72,142 L 72,143 L 73,143 L 76,146 L 76,147 L 77,147 L 78,148 L 78,149 L 79,149 L 81,151 L 82,151 L 84,153 L 85,153 L 86,154 L 86,155 L 88,155 L 90,157 L 91,157 L 92,158 L 92,159 L 93,159 L 95,161 L 97,161 L 99,163 L 100,163 L 102,165 L 104,165 L 106,167 L 109,167 L 110,168 L 110,169 L 112,169 L 113,170 L 114,170 L 116,172 L 116,187 L 117,188 L 117,194 L 119,196 L 120,196 L 122,194 L 122,176 L 121,175 L 121,174 L 122,173 L 122,166 L 123,165 L 123,152 L 126,149 L 127,149 L 128,148 L 129,148 L 130,147 L 132,147 L 134,145 L 135,145 L 136,144 L 137,144 L 138,143 L 139,143 L 139,142 L 140,141 L 141,141 L 141,140 L 142,139 L 143,139 L 147,135 L 147,134 L 148,133 L 149,133 L 149,132 L 151,130 L 151,129 L 153,127 L 153,126 L 156,123 L 157,123 L 157,122 L 158,121 L 159,121 L 159,120 L 164,115 L 164,114 L 171,107 L 171,106 L 173,104 L 173,102 L 174,101 L 175,101 L 177,99 L 177,98 L 179,96 L 179,95 L 181,93 L 181,92 L 182,91 L 183,91 L 183,90 L 184,89 L 184,88 L 187,85 L 187,84 L 189,82 L 189,81 L 191,79 L 191,78 L 192,77 L 192,76 L 193,75 L 193,73 L 195,71 L 195,69 L 197,67 L 197,66 L 198,65 L 199,65 L 199,64 L 201,62 L 201,60 L 203,58 L 203,56 L 205,54 L 205,52 L 207,50 L 207,49 L 208,48 L 208,47 L 209,46 L 209,45 L 210,44 L 210,42 L 211,41 L 211,40 L 212,39 L 212,38 L 213,37 L 213,30 L 208,30 L 208,33 L 207,34 L 207,35 L 206,36 L 206,38 L 204,40 L 204,42 L 203,43 L 203,44 L 202,45 L 202,48 L 200,50 L 200,51 L 199,52 L 198,52 L 198,54 L 197,55 L 197,56 L 196,57 L 196,59 L 195,60 L 194,60 L 194,62 L 192,64 L 192,65 L 190,67 L 190,68 L 188,70 L 188,71 L 187,72 L 187,73 L 186,74 L 186,75 L 184,77 L 184,78 L 182,80 L 182,81 L 180,83 L 180,85 L 175,90 L 175,91 L 172,94 L 172,95 L 168,99 L 168,100 L 166,102 L 166,103 L 161,108 L 161,109 L 156,114 L 156,115 L 153,118 L 152,118 L 152,119 L 151,120 L 150,120 L 150,121 L 141,130 L 140,130 L 140,131 L 139,132 L 138,132 L 138,133 L 137,134 L 136,134 L 136,136 L 134,138 L 132,138 L 131,139 L 130,139 L 128,141 L 124,141 L 123,140 L 123,131 L 124,130 L 124,119 L 125,118 L 125,113 L 124,112 L 124,104 L 125,103 L 125,102 L 124,101 L 124,98 L 123,97 L 123,95 L 125,93 L 125,92 L 128,89 L 129,89 L 129,88 L 130,87 L 131,87 L 131,86 L 132,85 L 133,85 L 137,81 L 137,80 L 140,77 L 141,77 L 143,75 L 143,74 L 144,73 L 145,73 L 145,72 L 147,70 L 147,69 L 149,67 L 149,66 L 150,65 L 151,65 L 151,64 L 153,62 L 153,61 L 155,59 L 155,57 L 157,55 L 157,54 L 159,52 L 159,51 L 160,50 L 160,49 L 163,46 L 163,45 L 165,43 L 165,41 L 167,39 L 167,36 L 169,34 L 169,33 L 170,32 L 170,31 L 171,30 L 171,29 L 172,28 L 172,27 L 173,26 L 173,24 L 171,22 L 168,22 L 167,23 L 167,24 L 166,25 L 166,27 L 165,28 L 165,29 L 164,30 L 164,33 L 160,37 L 160,39 L 159,40 L 159,41 L 158,42 L 158,43 L 156,45 L 156,46 L 154,48 L 154,49 L 153,50 L 153,51 L 152,52 L 152,53 L 150,55 L 150,56 L 148,58 L 148,59 L 147,60 L 147,61 L 146,62 L 146,63 L 143,66 L 142,66 L 142,67 L 141,68 L 141,69 L 140,70 L 140,71 L 139,72 L 138,72 L 138,73 L 135,76 L 134,76 L 132,78 L 132,79 L 131,80 L 130,80 L 129,81 L 129,82 L 128,83 L 126,83 L 125,82 L 125,62 L 124,61 L 124,60 L 125,59 L 125,54 L 124,53 L 124,52 L 125,51 L 125,36 L 129,32 L 129,30 L 131,28 L 131,22 L 130,21 L 130,20 L 129,19 L 129,18 L 125,14 L 124,14 L 123,13 L 122,13 L 121,12 Z" fill="black" /><path d="M 0,0 L 0,218 L 259,218 L 259,0 Z" fill="none" stroke="black" stroke-width="1" /></svg>