<?xml version='1.0' encoding='utf-8'?>
<svg width="257" height="216" xmlns="http://www.w3.org/2000/svg" viewBox="0 0 257 216"><rect width="257" height="216" fill="white" /><path d="M 67,20 L 65,22 L 62,22 L 59,25 L 59,26 L 58,27 L 58,37 L 59,38 L 59,39 L 60,40 L 60,41 L 61,41 L 63,43 L 64,43 L 66,45 L 66,49 L 65,50 L 65,55 L 66,56 L 65,57 L 65,59 L 66,60 L 66,85 L 67,86 L 67,87 L 68,88 L 68,91 L 70,93 L 70,97 L 72,99 L 72,101 L 73,102 L 73,103 L 74,104 L 74,105 L 75,106 L 75,107 L 76,108 L 76,109 L 77,110 L 77,111 L 78,112 L 78,113 L 80,115 L 80,116 L 84,120 L 84,121 L 85,121 L 86,122 L 86,123 L 94,131 L 95,131 L 96,132 L 96,133 L 97,133 L 103,139 L 104,139 L 108,143 L 109,143 L 112,146 L 113,146 L 114,147 L 114,148 L 115,149 L 116,149 L 118,151 L 118,152 L 122,156 L 122,166 L 121,167 L 121,173 L 120,174 L 120,183 L 119,184 L 119,188 L 118,189 L 118,195 L 119,196 L 119,197 L 122,197 L 123,196 L 124,196 L 125,195 L 125,192 L 126,191 L 126,188 L 127,187 L 127,172 L 128,171 L 128,169 L 129,168 L 129,152 L 130,151 L 130,142 L 131,141 L 131,127 L 132,126 L 132,122 L 131,121 L 131,116 L 132,115 L 132,114 L 135,111 L 137,111 L 139,109 L 140,109 L 142,107 L 144,107 L 146,105 L 147,105 L 149,103 L 151,103 L 151,102 L 152,101 L 154,101 L 156,99 L 157,99 L 157,98 L 158,97 L 159,97 L 161,95 L 162,95 L 164,93 L 165,93 L 165,92 L 166,91 L 167,91 L 167,90 L 168,89 L 169,89 L 169,88 L 170,87 L 171,87 L 171,86 L 172,85 L 173,85 L 173,84 L 174,83 L 175,83 L 175,82 L 177,80 L 177,79 L 179,77 L 179,76 L 180,75 L 181,75 L 181,73 L 183,71 L 183,70 L 184,69 L 185,69 L 185,67 L 187,65 L 187,64 L 189,62 L 189,60 L 190,59 L 190,58 L 191,57 L 191,55 L 192,54 L 192,53 L 193,52 L 193,49 L 191,47 L 188,47 L 188,48 L 186,50 L 186,52 L 185,53 L 185,54 L 184,55 L 184,56 L 183,57 L 183,58 L 182,59 L 182,61 L 180,63 L 180,64 L 178,66 L 178,68 L 176,70 L 176,71 L 174,73 L 174,74 L 172,76 L 172,77 L 169,80 L 168,80 L 168,81 L 167,82 L 166,82 L 166,83 L 165,84 L 164,84 L 164,85 L 163,86 L 162,86 L 162,87 L 157,92 L 156,92 L 156,93 L 155,94 L 154,94 L 153,95 L 152,95 L 151,96 L 150,96 L 148,98 L 146,98 L 144,100 L 143,100 L 141,102 L 138,102 L 135,105 L 134,105 L 133,104 L 133,103 L 132,102 L 133,101 L 133,86 L 134,85 L 134,77 L 135,76 L 135,63 L 136,62 L 136,58 L 137,57 L 137,46 L 136,45 L 132,45 L 131,46 L 131,51 L 130,52 L 130,57 L 131,58 L 130,59 L 130,62 L 129,63 L 129,71 L 128,72 L 128,83 L 127,84 L 127,89 L 126,90 L 126,91 L 127,92 L 127,93 L 126,94 L 126,111 L 125,112 L 126,113 L 126,129 L 125,130 L 125,135 L 124,136 L 124,143 L 122,145 L 121,145 L 118,142 L 117,142 L 116,141 L 116,140 L 115,140 L 111,136 L 110,136 L 109,135 L 108,135 L 106,133 L 106,132 L 104,130 L 102,130 L 93,121 L 93,120 L 92,120 L 91,119 L 91,118 L 90,118 L 87,115 L 87,114 L 85,112 L 85,110 L 84,110 L 83,109 L 83,107 L 81,105 L 81,104 L 80,103 L 80,102 L 79,101 L 79,100 L 78,99 L 78,98 L 77,97 L 77,94 L 76,93 L 76,92 L 75,91 L 75,88 L 74,87 L 74,82 L 73,81 L 73,76 L 72,75 L 72,61 L 71,60 L 71,58 L 72,57 L 72,55 L 71,54 L 71,50 L 72,49 L 72,47 L 75,44 L 76,44 L 78,42 L 79,42 L 81,40 L 81,38 L 82,37 L 82,36 L 83,35 L 83,29 L 81,27 L 81,26 L 80,25 L 80,24 L 79,24 L 77,22 L 74,22 L 73,21 L 72,21 L 71,20 Z" fill="black" /><path d="M 0,0 L 0,215 L 256,215 L 256,0 Z" fill="none" stroke="black" stroke-width="1" /></svg>