<?xml version='1.0' encoding='utf-8'?>
<svg width="259" height="217" xmlns="http://www.w3.org/2000/svg" viewBox="0 0 259 217"><rect width="259" height="217" fill="white" /><path d="M 137,10 L 136,11 L 135,11 L 134,12 L 132,12 L 130,14 L 130,15 L 128,17 L 128,19 L 127,20 L 127,22 L 126,23 L 127,24 L 127,26 L 128,27 L 128,29 L 132,33 L 133,33 L 134,34 L 134,35 L 137,35 L 138,36 L 141,36 L 142,37 L 142,49 L 141,50 L 141,55 L 140,56 L 140,64 L 139,65 L 139,68 L 138,69 L 138,75 L 137,76 L 137,77 L 136,78 L 136,81 L 135,82 L 135,83 L 134,84 L 134,88 L 132,90 L 132,94 L 130,96 L 130,97 L 129,98 L 129,99 L 128,100 L 128,101 L 126,103 L 126,104 L 120,110 L 119,110 L 118,111 L 116,109 L 116,106 L 115,105 L 115,101 L 114,100 L 114,98 L 113,97 L 113,94 L 112,93 L 112,90 L 111,89 L 111,83 L 110,82 L 110,80 L 109,79 L 109,70 L 108,69 L 108,65 L 107,64 L 107,50 L 106,49 L 106,45 L 105,44 L 105,38 L 104,37 L 104,36 L 103,36 L 102,35 L 101,36 L 100,36 L 100,59 L 101,60 L 101,62 L 102,63 L 102,69 L 103,70 L 103,75 L 104,76 L 104,81 L 105,82 L 105,84 L 106,85 L 106,86 L 107,87 L 107,89 L 104,92 L 103,91 L 102,91 L 101,90 L 100,90 L 98,88 L 96,88 L 94,86 L 93,86 L 91,84 L 90,84 L 85,79 L 84,79 L 78,73 L 78,72 L 73,67 L 73,66 L 72,65 L 72,64 L 71,63 L 71,62 L 70,62 L 69,61 L 69,59 L 67,57 L 67,55 L 65,53 L 65,52 L 64,51 L 64,50 L 63,49 L 63,45 L 62,44 L 62,41 L 61,40 L 61,38 L 57,38 L 56,39 L 56,46 L 57,47 L 57,48 L 58,49 L 58,53 L 59,53 L 60,54 L 60,55 L 61,56 L 61,59 L 62,60 L 62,61 L 64,63 L 64,64 L 66,66 L 66,67 L 68,69 L 68,71 L 70,73 L 71,73 L 72,74 L 72,75 L 79,82 L 79,83 L 80,83 L 82,85 L 83,85 L 84,86 L 84,87 L 86,89 L 88,89 L 89,90 L 90,90 L 93,93 L 94,93 L 96,95 L 99,95 L 100,96 L 100,97 L 102,97 L 104,99 L 105,99 L 106,100 L 108,100 L 109,101 L 109,105 L 110,106 L 110,113 L 111,114 L 111,115 L 112,116 L 112,122 L 114,124 L 114,131 L 115,132 L 115,133 L 116,134 L 116,140 L 117,141 L 117,149 L 118,150 L 118,153 L 117,154 L 117,161 L 116,162 L 116,167 L 117,168 L 117,169 L 116,170 L 116,189 L 115,190 L 115,197 L 114,198 L 114,201 L 113,202 L 113,208 L 115,210 L 118,210 L 119,209 L 121,209 L 121,193 L 122,192 L 122,190 L 123,189 L 123,186 L 126,183 L 127,183 L 128,182 L 129,182 L 130,181 L 132,181 L 134,179 L 135,179 L 136,178 L 137,178 L 138,177 L 139,177 L 139,176 L 140,175 L 141,175 L 142,174 L 143,174 L 146,171 L 147,171 L 150,168 L 151,168 L 152,167 L 153,167 L 157,163 L 158,163 L 160,161 L 161,161 L 161,160 L 162,159 L 163,159 L 165,157 L 167,157 L 167,156 L 168,155 L 169,155 L 175,149 L 177,149 L 177,148 L 179,146 L 179,145 L 181,143 L 182,143 L 184,141 L 185,141 L 185,140 L 186,139 L 187,139 L 187,138 L 188,137 L 188,136 L 189,135 L 189,134 L 190,133 L 191,133 L 193,131 L 193,130 L 194,129 L 195,129 L 195,128 L 196,127 L 197,127 L 197,126 L 201,122 L 201,121 L 203,119 L 203,118 L 204,117 L 205,117 L 205,116 L 206,115 L 206,114 L 207,113 L 207,112 L 210,109 L 211,109 L 211,108 L 212,107 L 212,106 L 215,103 L 215,101 L 217,99 L 217,98 L 219,96 L 219,94 L 221,92 L 221,91 L 223,89 L 223,87 L 225,85 L 225,84 L 226,83 L 226,82 L 227,81 L 227,79 L 228,78 L 228,77 L 229,76 L 229,74 L 230,73 L 230,72 L 231,71 L 231,67 L 232,66 L 232,65 L 233,64 L 233,59 L 234,58 L 234,56 L 235,55 L 235,48 L 236,47 L 236,42 L 237,41 L 237,34 L 235,32 L 231,32 L 231,37 L 230,38 L 230,51 L 229,52 L 229,55 L 228,56 L 228,60 L 226,62 L 226,66 L 225,67 L 225,69 L 224,70 L 224,73 L 223,74 L 223,75 L 222,76 L 222,77 L 221,78 L 221,80 L 220,81 L 220,83 L 219,84 L 219,85 L 218,86 L 218,87 L 216,89 L 216,91 L 215,92 L 214,92 L 214,94 L 212,96 L 212,98 L 210,100 L 209,100 L 209,101 L 208,102 L 208,103 L 205,106 L 205,107 L 204,108 L 204,109 L 203,110 L 202,110 L 202,111 L 196,117 L 196,119 L 190,125 L 190,126 L 188,128 L 187,128 L 182,133 L 182,134 L 180,136 L 180,137 L 179,138 L 178,138 L 178,139 L 177,140 L 176,140 L 176,141 L 173,144 L 172,144 L 172,145 L 171,146 L 170,146 L 170,147 L 169,148 L 168,148 L 164,152 L 163,152 L 161,154 L 160,154 L 157,157 L 156,157 L 153,160 L 152,160 L 152,161 L 151,162 L 150,162 L 148,164 L 146,164 L 142,168 L 141,168 L 139,170 L 137,170 L 135,172 L 134,172 L 132,174 L 130,174 L 128,176 L 126,176 L 125,177 L 123,175 L 123,164 L 124,163 L 123,162 L 123,157 L 125,155 L 125,154 L 126,153 L 127,153 L 128,152 L 129,152 L 130,151 L 131,151 L 134,148 L 135,148 L 139,144 L 139,143 L 141,141 L 141,140 L 142,139 L 143,139 L 143,138 L 144,137 L 145,137 L 145,136 L 149,132 L 149,131 L 151,129 L 151,128 L 154,125 L 154,124 L 155,123 L 155,122 L 156,121 L 157,121 L 157,120 L 159,118 L 159,117 L 161,115 L 161,113 L 163,111 L 163,110 L 164,109 L 164,108 L 165,107 L 165,106 L 167,104 L 167,103 L 169,101 L 169,99 L 170,98 L 170,97 L 171,96 L 171,94 L 173,92 L 173,90 L 175,88 L 175,86 L 176,85 L 177,85 L 177,82 L 179,80 L 179,76 L 180,75 L 180,74 L 181,73 L 181,72 L 183,70 L 183,68 L 184,67 L 184,65 L 185,64 L 185,61 L 186,60 L 186,58 L 187,57 L 187,55 L 188,54 L 188,51 L 189,50 L 189,44 L 187,42 L 186,42 L 185,41 L 184,42 L 184,46 L 183,47 L 183,50 L 182,51 L 182,57 L 180,59 L 180,61 L 179,62 L 179,63 L 178,64 L 178,67 L 176,69 L 176,72 L 174,74 L 174,77 L 173,78 L 173,79 L 172,80 L 172,81 L 170,83 L 170,85 L 169,86 L 169,87 L 168,88 L 168,91 L 167,92 L 166,92 L 166,93 L 165,94 L 165,96 L 164,97 L 164,98 L 162,100 L 162,101 L 161,102 L 161,103 L 160,104 L 160,105 L 159,106 L 159,107 L 158,108 L 158,109 L 157,110 L 156,110 L 156,111 L 155,112 L 155,113 L 154,114 L 154,115 L 152,117 L 152,118 L 150,120 L 150,121 L 148,123 L 148,124 L 146,126 L 146,127 L 141,132 L 140,132 L 140,133 L 138,135 L 138,136 L 132,142 L 131,142 L 128,145 L 126,145 L 125,146 L 123,144 L 123,136 L 122,135 L 122,134 L 121,133 L 121,130 L 120,129 L 120,126 L 119,125 L 119,122 L 118,121 L 118,120 L 119,119 L 119,118 L 122,115 L 123,115 L 129,109 L 129,108 L 133,104 L 133,102 L 134,101 L 135,101 L 135,99 L 137,97 L 137,94 L 138,93 L 138,92 L 139,91 L 139,89 L 141,87 L 141,81 L 143,79 L 143,74 L 144,73 L 144,70 L 145,69 L 145,62 L 146,61 L 146,58 L 147,57 L 147,45 L 148,44 L 148,34 L 149,33 L 149,32 L 151,30 L 151,29 L 153,27 L 153,25 L 154,24 L 153,23 L 153,18 L 152,18 L 151,17 L 151,15 L 148,12 L 146,12 L 145,11 L 144,11 L 143,10 Z" fill="black" /><path d="M 0,0 L 0,216 L 258,216 L 258,0 Z" fill="none" stroke="black" stroke-width="1" /></svg>