<?xml version='1.0' encoding='utf-8'?>
<svg width="259" height="224" xmlns="http://www.w3.org/2000/svg" viewBox="0 0 259 224"><rect width="259" height="224" fill="white" /><path d="M 118,44 L 117,45 L 117,47 L 116,48 L 116,49 L 115,50 L 115,51 L 114,52 L 113,52 L 113,53 L 112,54 L 112,55 L 111,56 L 111,57 L 109,59 L 109,61 L 107,63 L 107,64 L 105,66 L 105,67 L 104,68 L 104,69 L 103,70 L 103,71 L 102,72 L 102,73 L 101,74 L 101,75 L 99,77 L 99,79 L 98,80 L 97,80 L 97,82 L 95,84 L 95,85 L 94,86 L 94,87 L 93,88 L 93,89 L 91,91 L 91,93 L 90,94 L 89,94 L 89,96 L 87,98 L 87,99 L 86,100 L 86,101 L 85,102 L 85,103 L 84,104 L 83,104 L 83,107 L 81,109 L 81,110 L 83,112 L 83,114 L 85,116 L 85,118 L 87,120 L 87,121 L 89,123 L 89,125 L 90,125 L 91,126 L 91,128 L 93,130 L 93,131 L 94,132 L 94,133 L 95,134 L 95,135 L 97,137 L 97,139 L 98,139 L 99,140 L 99,142 L 101,144 L 101,145 L 102,146 L 102,147 L 103,148 L 103,149 L 104,150 L 104,151 L 105,152 L 105,153 L 107,155 L 107,156 L 108,157 L 108,158 L 109,159 L 109,160 L 111,162 L 111,164 L 113,166 L 113,167 L 115,169 L 115,171 L 116,171 L 117,172 L 120,169 L 120,168 L 121,167 L 121,166 L 122,165 L 122,164 L 124,162 L 124,161 L 126,159 L 126,158 L 127,157 L 127,156 L 128,155 L 128,154 L 130,152 L 130,151 L 131,150 L 131,149 L 132,148 L 132,147 L 134,145 L 134,144 L 135,143 L 135,142 L 136,141 L 136,140 L 138,138 L 138,137 L 140,135 L 140,134 L 141,133 L 141,132 L 142,131 L 142,130 L 144,128 L 144,127 L 146,125 L 146,124 L 148,122 L 148,120 L 149,119 L 150,119 L 150,117 L 152,115 L 152,114 L 153,113 L 153,112 L 154,111 L 154,110 L 155,109 L 156,109 L 156,107 L 154,105 L 154,103 L 152,101 L 152,100 L 151,99 L 151,98 L 150,97 L 150,96 L 148,94 L 148,92 L 146,90 L 146,89 L 144,87 L 144,86 L 143,85 L 143,84 L 142,83 L 142,82 L 141,82 L 140,81 L 140,79 L 138,77 L 138,76 L 136,74 L 136,73 L 134,71 L 134,69 L 132,67 L 132,66 L 130,64 L 130,62 L 129,62 L 128,61 L 128,60 L 127,59 L 127,58 L 126,57 L 126,56 L 125,55 L 125,54 L 124,53 L 124,52 L 122,50 L 122,48 Z" fill="black" /><path d="M 0,0 L 0,223 L 258,223 L 258,0 Z" fill="none" stroke="black" stroke-width="1" /></svg>