<?xml version='1.0' encoding='utf-8'?>
<svg width="258" height="218" xmlns="http://www.w3.org/2000/svg" viewBox="0 0 258 218"><rect width="258" height="218" fill="white" /><path d="M 48,8 L 46,10 L 46,12 L 44,14 L 44,15 L 42,17 L 42,18 L 40,20 L 40,21 L 38,23 L 38,24 L 36,26 L 36,27 L 35,28 L 35,29 L 34,30 L 34,31 L 33,32 L 32,32 L 32,34 L 30,36 L 30,37 L 29,38 L 28,38 L 28,39 L 27,40 L 27,41 L 26,42 L 26,43 L 24,45 L 24,46 L 22,48 L 22,49 L 21,50 L 21,51 L 20,52 L 21,53 L 31,53 L 32,54 L 77,54 L 78,55 L 79,55 L 80,56 L 81,55 L 81,51 L 79,49 L 79,48 L 78,48 L 77,47 L 77,46 L 76,45 L 76,44 L 73,41 L 73,40 L 71,38 L 71,36 L 66,31 L 66,30 L 65,29 L 65,28 L 63,26 L 63,25 L 61,23 L 61,22 L 58,19 L 58,18 L 57,17 L 57,16 L 56,16 L 55,15 L 55,14 L 53,12 L 53,11 L 52,10 L 52,9 L 51,8 Z" fill="black" /><path d="M 0,0 L 0,217 L 257,217 L 257,0 Z" fill="none" stroke="black" stroke-width="1" /></svg>