<?xml version='1.0' encoding='utf-8'?>
<svg width="257" height="223" xmlns="http://www.w3.org/2000/svg" viewBox="0 0 257 223"><rect width="257" height="223" fill="white" /><path d="M 14,25 L 14,27 L 15,28 L 17,28 L 21,32 L 22,32 L 24,34 L 25,34 L 26,35 L 26,36 L 27,36 L 28,37 L 29,37 L 30,38 L 31,38 L 32,39 L 32,40 L 33,40 L 35,42 L 36,42 L 38,44 L 39,44 L 41,46 L 42,46 L 44,48 L 45,48 L 46,49 L 47,49 L 50,52 L 51,52 L 53,54 L 54,54 L 56,56 L 57,56 L 58,57 L 58,58 L 60,58 L 62,60 L 63,60 L 64,61 L 64,62 L 65,62 L 67,64 L 68,64 L 70,66 L 71,66 L 73,68 L 75,68 L 76,69 L 76,70 L 77,70 L 78,71 L 79,71 L 80,72 L 81,72 L 82,73 L 82,74 L 83,74 L 85,76 L 87,76 L 88,77 L 88,78 L 90,78 L 92,80 L 97,80 L 97,79 L 98,78 L 99,78 L 101,76 L 102,76 L 104,74 L 105,74 L 107,72 L 108,72 L 112,68 L 113,68 L 116,65 L 117,65 L 118,64 L 119,64 L 119,63 L 120,62 L 121,62 L 124,59 L 125,59 L 126,58 L 127,58 L 127,57 L 128,56 L 129,56 L 131,54 L 132,54 L 134,52 L 135,52 L 137,50 L 138,50 L 140,48 L 141,48 L 141,47 L 142,46 L 143,46 L 145,44 L 146,44 L 148,42 L 149,42 L 152,39 L 153,39 L 154,38 L 155,38 L 155,37 L 156,36 L 157,36 L 159,34 L 161,34 L 161,33 L 162,32 L 163,32 L 165,30 L 167,30 L 167,29 L 168,28 L 168,27 L 120,27 L 119,26 L 118,27 L 113,27 L 112,26 L 108,26 L 107,27 L 104,27 L 103,26 L 101,26 L 100,27 L 99,26 L 96,26 L 95,27 L 92,27 L 91,26 L 45,26 L 44,25 L 43,25 L 42,26 L 39,26 L 38,25 L 33,25 L 32,26 L 20,26 L 19,25 Z" fill="black" /><path d="M 0,0 L 0,222 L 256,222 L 256,0 Z" fill="none" stroke="black" stroke-width="1" /></svg>