<?xml version='1.0' encoding='utf-8'?>
<svg width="259" height="220" xmlns="http://www.w3.org/2000/svg" viewBox="0 0 259 220"><rect width="259" height="220" fill="white" /><path d="M 145,45 L 144,46 L 44,46 L 43,47 L 42,47 L 41,48 L 40,48 L 39,47 L 37,47 L 37,51 L 36,52 L 36,57 L 35,58 L 35,59 L 34,60 L 34,67 L 33,68 L 33,71 L 32,72 L 32,78 L 31,79 L 31,81 L 30,82 L 30,89 L 29,90 L 29,92 L 28,93 L 28,100 L 27,101 L 27,103 L 26,104 L 26,111 L 25,112 L 25,113 L 24,114 L 24,121 L 23,122 L 23,125 L 22,126 L 22,131 L 23,132 L 24,132 L 25,133 L 27,133 L 28,132 L 59,132 L 60,133 L 61,133 L 62,132 L 65,132 L 66,133 L 77,133 L 78,132 L 81,132 L 82,133 L 89,133 L 90,132 L 91,132 L 92,133 L 127,133 L 128,132 L 129,132 L 130,133 L 132,133 L 133,132 L 134,133 L 135,132 L 141,132 L 142,133 L 146,133 L 147,132 L 148,133 L 151,133 L 152,132 L 157,132 L 158,133 L 167,133 L 168,132 L 179,132 L 180,133 L 181,133 L 182,132 L 183,132 L 184,133 L 239,133 L 240,134 L 241,134 L 242,133 L 242,132 L 241,131 L 240,131 L 238,129 L 238,128 L 237,128 L 236,127 L 236,126 L 233,123 L 233,122 L 232,122 L 231,121 L 231,120 L 230,120 L 229,119 L 229,118 L 228,118 L 227,117 L 227,116 L 226,116 L 225,115 L 225,114 L 224,114 L 221,111 L 221,110 L 217,106 L 217,105 L 211,99 L 211,98 L 210,98 L 209,97 L 209,96 L 197,84 L 197,83 L 191,77 L 191,76 L 190,76 L 189,75 L 189,74 L 188,74 L 187,73 L 187,72 L 186,72 L 183,69 L 183,68 L 173,58 L 173,57 L 163,47 L 163,46 L 162,45 Z" fill="black" /><path d="M 0,0 L 0,219 L 258,219 L 258,0 Z" fill="none" stroke="black" stroke-width="1" /></svg>