<?xml version='1.0' encoding='utf-8'?>
<svg width="256" height="218" xmlns="http://www.w3.org/2000/svg" viewBox="0 0 256 218"><rect width="256" height="218" fill="white" /><path d="M 202,14 L 201,15 L 201,17 L 200,18 L 200,19 L 199,20 L 199,21 L 198,22 L 198,24 L 197,25 L 197,27 L 196,28 L 196,30 L 195,31 L 195,33 L 194,34 L 194,35 L 193,36 L 193,37 L 192,38 L 192,39 L 190,41 L 190,43 L 189,44 L 189,45 L 188,46 L 188,47 L 187,48 L 186,48 L 186,50 L 184,52 L 184,53 L 182,55 L 182,56 L 180,58 L 180,59 L 178,61 L 178,62 L 176,64 L 176,65 L 175,66 L 175,67 L 174,68 L 171,68 L 170,67 L 169,67 L 167,65 L 167,62 L 165,60 L 165,59 L 163,57 L 163,53 L 162,52 L 162,51 L 161,50 L 161,45 L 160,44 L 160,40 L 159,39 L 159,17 L 155,17 L 153,19 L 153,20 L 152,21 L 152,41 L 153,42 L 153,43 L 154,44 L 154,50 L 155,51 L 155,53 L 156,54 L 156,56 L 158,58 L 158,59 L 159,60 L 159,61 L 160,62 L 160,63 L 161,64 L 161,65 L 162,66 L 162,67 L 165,70 L 165,71 L 166,72 L 166,73 L 168,75 L 168,76 L 160,84 L 160,85 L 159,86 L 158,86 L 158,87 L 157,88 L 156,88 L 156,89 L 151,94 L 151,95 L 148,98 L 148,99 L 144,103 L 143,102 L 142,102 L 141,101 L 141,99 L 139,97 L 139,93 L 138,92 L 138,91 L 136,89 L 136,86 L 135,85 L 135,84 L 134,83 L 134,82 L 133,81 L 133,80 L 132,79 L 132,76 L 131,75 L 131,72 L 130,72 L 129,71 L 129,64 L 128,64 L 127,63 L 127,56 L 126,55 L 126,54 L 125,53 L 125,46 L 124,45 L 124,42 L 123,41 L 123,25 L 122,24 L 118,24 L 118,33 L 117,34 L 117,37 L 118,38 L 118,45 L 119,46 L 119,51 L 120,52 L 120,57 L 121,58 L 121,59 L 122,60 L 122,65 L 123,66 L 123,69 L 124,70 L 124,71 L 125,72 L 125,75 L 126,76 L 126,78 L 127,79 L 127,80 L 128,81 L 128,84 L 130,86 L 130,89 L 132,91 L 132,93 L 133,94 L 133,96 L 134,97 L 134,98 L 136,100 L 136,103 L 137,104 L 137,105 L 138,106 L 138,110 L 134,114 L 134,116 L 132,118 L 132,119 L 131,120 L 130,120 L 130,121 L 129,122 L 129,123 L 128,124 L 125,124 L 124,123 L 124,122 L 123,121 L 123,120 L 121,118 L 121,117 L 119,115 L 119,114 L 118,114 L 117,113 L 117,112 L 116,111 L 116,110 L 115,109 L 115,108 L 114,108 L 113,107 L 113,104 L 112,104 L 111,103 L 111,101 L 109,99 L 109,97 L 108,96 L 108,95 L 106,93 L 106,92 L 105,91 L 105,89 L 103,87 L 103,85 L 101,83 L 101,80 L 100,79 L 100,78 L 99,77 L 99,76 L 98,75 L 98,74 L 97,73 L 97,70 L 96,69 L 96,68 L 95,67 L 95,63 L 94,62 L 94,61 L 93,60 L 94,59 L 94,58 L 93,57 L 93,48 L 92,47 L 92,41 L 93,40 L 93,37 L 92,36 L 92,31 L 90,29 L 86,33 L 86,51 L 87,52 L 87,53 L 88,54 L 88,63 L 90,65 L 90,68 L 91,69 L 91,72 L 92,73 L 92,77 L 93,78 L 93,79 L 94,80 L 94,82 L 95,83 L 95,84 L 96,85 L 96,88 L 98,90 L 98,91 L 100,93 L 100,95 L 102,97 L 102,98 L 104,100 L 104,101 L 105,102 L 105,103 L 106,104 L 106,105 L 109,108 L 109,109 L 110,110 L 110,111 L 111,111 L 112,112 L 112,115 L 114,117 L 114,119 L 116,121 L 117,121 L 118,122 L 118,123 L 120,125 L 120,126 L 122,128 L 122,133 L 121,134 L 120,134 L 120,136 L 118,138 L 118,139 L 116,141 L 116,143 L 114,145 L 114,146 L 112,148 L 112,149 L 110,151 L 110,153 L 109,154 L 109,159 L 108,160 L 107,160 L 106,159 L 105,159 L 104,158 L 104,157 L 95,148 L 95,147 L 89,141 L 89,140 L 88,140 L 87,139 L 87,138 L 86,138 L 83,135 L 83,134 L 77,128 L 77,127 L 75,125 L 75,124 L 74,124 L 73,123 L 73,122 L 70,119 L 70,118 L 69,117 L 69,116 L 67,114 L 67,113 L 65,111 L 65,110 L 63,108 L 63,105 L 61,103 L 61,102 L 59,100 L 59,99 L 57,97 L 57,94 L 55,92 L 55,88 L 53,86 L 53,84 L 52,83 L 52,82 L 51,81 L 51,77 L 50,76 L 50,74 L 49,73 L 49,68 L 48,67 L 48,63 L 47,62 L 47,59 L 45,57 L 45,49 L 44,48 L 44,44 L 43,43 L 43,41 L 45,39 L 45,38 L 43,38 L 41,36 L 40,36 L 39,35 L 38,36 L 38,51 L 39,52 L 39,57 L 40,58 L 40,63 L 41,64 L 41,65 L 42,66 L 42,71 L 43,72 L 43,73 L 44,74 L 44,76 L 45,77 L 45,79 L 46,80 L 46,83 L 47,84 L 47,85 L 48,86 L 48,88 L 50,90 L 50,94 L 52,96 L 52,97 L 53,98 L 53,99 L 54,100 L 54,102 L 56,104 L 56,107 L 57,107 L 58,108 L 58,110 L 60,112 L 60,114 L 62,116 L 62,117 L 63,118 L 63,119 L 64,120 L 64,121 L 65,122 L 65,123 L 66,124 L 66,125 L 68,127 L 68,128 L 70,130 L 70,131 L 71,132 L 71,133 L 72,134 L 72,135 L 73,135 L 78,140 L 78,141 L 82,145 L 82,146 L 83,146 L 84,147 L 84,148 L 85,148 L 86,149 L 87,149 L 88,150 L 88,151 L 90,153 L 91,153 L 93,155 L 94,155 L 96,157 L 97,157 L 98,158 L 98,159 L 100,161 L 101,161 L 104,164 L 104,173 L 103,174 L 103,176 L 102,177 L 102,182 L 101,183 L 101,184 L 100,185 L 100,197 L 99,198 L 100,199 L 100,207 L 105,207 L 105,194 L 106,193 L 106,188 L 107,187 L 107,181 L 108,180 L 108,178 L 109,177 L 109,172 L 110,171 L 110,170 L 113,167 L 114,167 L 116,165 L 120,165 L 122,163 L 125,163 L 126,162 L 127,162 L 128,161 L 132,161 L 133,160 L 134,160 L 135,159 L 139,159 L 140,158 L 143,158 L 144,157 L 148,157 L 149,156 L 150,156 L 151,155 L 154,155 L 155,154 L 156,154 L 157,153 L 161,153 L 162,152 L 163,152 L 164,151 L 167,151 L 168,150 L 169,150 L 170,149 L 173,149 L 174,148 L 175,148 L 176,147 L 178,147 L 179,146 L 180,146 L 181,145 L 183,145 L 184,144 L 185,144 L 186,143 L 190,143 L 191,142 L 192,142 L 193,141 L 195,141 L 196,140 L 197,140 L 198,139 L 201,139 L 203,137 L 207,137 L 209,135 L 213,135 L 213,134 L 214,133 L 217,133 L 219,131 L 222,131 L 224,129 L 227,129 L 230,126 L 230,125 L 229,124 L 222,124 L 222,125 L 221,126 L 219,126 L 217,128 L 216,128 L 215,129 L 214,129 L 213,130 L 210,130 L 209,131 L 208,131 L 207,132 L 204,132 L 202,134 L 198,134 L 196,136 L 193,136 L 191,138 L 189,138 L 188,139 L 187,139 L 186,140 L 184,140 L 183,141 L 182,141 L 181,142 L 175,142 L 173,144 L 168,144 L 167,145 L 166,145 L 165,146 L 162,146 L 160,148 L 158,148 L 157,149 L 156,149 L 155,148 L 154,148 L 154,149 L 153,150 L 150,150 L 149,151 L 148,151 L 147,152 L 142,152 L 140,154 L 135,154 L 134,155 L 133,155 L 131,157 L 128,157 L 127,158 L 123,158 L 122,159 L 120,159 L 119,160 L 118,160 L 115,163 L 114,163 L 112,161 L 113,160 L 113,159 L 115,157 L 115,156 L 117,154 L 117,152 L 118,151 L 118,150 L 119,149 L 119,148 L 120,147 L 120,146 L 121,145 L 121,143 L 123,141 L 123,139 L 126,136 L 132,136 L 133,135 L 139,135 L 140,134 L 141,134 L 142,133 L 146,133 L 148,131 L 153,131 L 154,130 L 155,130 L 156,129 L 159,129 L 160,128 L 161,128 L 162,127 L 165,127 L 166,126 L 168,126 L 169,125 L 172,125 L 173,124 L 174,124 L 175,123 L 178,123 L 179,122 L 180,122 L 181,121 L 183,121 L 184,120 L 185,120 L 186,119 L 188,119 L 189,118 L 190,118 L 191,117 L 193,117 L 194,116 L 195,116 L 196,115 L 197,115 L 199,113 L 201,113 L 201,112 L 202,111 L 204,111 L 206,109 L 208,109 L 210,107 L 212,107 L 214,105 L 215,105 L 218,102 L 219,102 L 220,101 L 221,101 L 225,97 L 227,97 L 229,95 L 231,95 L 233,93 L 233,92 L 234,91 L 235,91 L 238,88 L 239,88 L 239,85 L 238,84 L 238,83 L 236,81 L 229,88 L 228,88 L 224,92 L 223,92 L 221,94 L 220,94 L 220,95 L 219,96 L 218,96 L 216,98 L 215,98 L 213,100 L 212,100 L 210,102 L 208,102 L 206,104 L 204,104 L 203,105 L 202,105 L 201,106 L 200,106 L 198,108 L 195,108 L 194,109 L 193,109 L 192,110 L 189,110 L 188,111 L 187,111 L 186,112 L 183,112 L 182,113 L 181,113 L 180,114 L 176,114 L 174,116 L 171,116 L 169,118 L 167,118 L 166,119 L 165,119 L 164,120 L 162,120 L 160,122 L 157,122 L 155,124 L 150,124 L 148,126 L 142,126 L 140,128 L 134,128 L 132,126 L 132,125 L 137,120 L 137,119 L 141,115 L 141,114 L 142,113 L 142,112 L 145,109 L 149,109 L 150,108 L 154,108 L 155,107 L 163,107 L 164,106 L 167,106 L 168,105 L 173,105 L 175,103 L 177,103 L 178,102 L 179,102 L 180,101 L 182,101 L 183,100 L 184,100 L 185,99 L 187,99 L 189,97 L 191,97 L 192,96 L 193,96 L 194,95 L 195,95 L 197,93 L 198,93 L 200,91 L 201,91 L 203,89 L 204,89 L 206,87 L 207,87 L 209,85 L 210,85 L 212,83 L 213,83 L 213,82 L 214,81 L 215,81 L 215,80 L 216,79 L 217,79 L 219,77 L 219,76 L 228,67 L 228,66 L 229,65 L 229,64 L 231,62 L 231,60 L 232,59 L 233,59 L 233,57 L 235,55 L 235,54 L 236,53 L 236,52 L 237,51 L 237,50 L 238,49 L 238,48 L 239,47 L 239,44 L 240,43 L 240,40 L 241,39 L 241,34 L 242,33 L 242,32 L 243,31 L 243,29 L 242,28 L 239,28 L 239,29 L 238,30 L 238,31 L 237,32 L 237,33 L 236,34 L 236,38 L 235,39 L 235,40 L 234,41 L 234,44 L 232,46 L 232,48 L 231,49 L 231,50 L 230,51 L 230,53 L 229,54 L 229,55 L 228,56 L 228,57 L 227,58 L 226,58 L 226,60 L 224,62 L 224,64 L 223,65 L 222,65 L 222,66 L 220,68 L 220,69 L 215,74 L 215,75 L 214,76 L 213,76 L 211,78 L 210,78 L 205,83 L 204,83 L 203,84 L 202,84 L 201,85 L 200,85 L 199,86 L 198,86 L 197,87 L 196,87 L 195,88 L 194,88 L 192,90 L 190,90 L 188,92 L 186,92 L 184,94 L 181,94 L 180,95 L 179,95 L 178,96 L 177,96 L 175,98 L 172,98 L 171,99 L 170,99 L 169,100 L 165,100 L 163,102 L 156,102 L 155,103 L 154,103 L 152,101 L 152,100 L 154,98 L 155,98 L 156,97 L 156,96 L 159,93 L 159,92 L 160,91 L 161,91 L 161,90 L 162,89 L 163,89 L 163,88 L 166,85 L 167,85 L 167,84 L 168,83 L 168,82 L 169,81 L 169,80 L 170,79 L 171,79 L 171,78 L 172,77 L 173,77 L 173,76 L 175,74 L 175,73 L 179,69 L 179,68 L 181,66 L 181,64 L 182,63 L 183,63 L 185,61 L 185,60 L 187,58 L 187,56 L 188,55 L 188,54 L 189,53 L 189,52 L 190,51 L 191,51 L 191,49 L 193,47 L 193,45 L 195,43 L 195,40 L 197,38 L 197,36 L 198,35 L 199,35 L 199,34 L 201,32 L 201,29 L 203,27 L 203,24 L 205,22 L 205,20 L 207,18 L 207,15 L 206,14 Z" fill="black" /></svg>