<?xml version='1.0' encoding='utf-8'?>
<svg width="256" height="215" xmlns="http://www.w3.org/2000/svg" viewBox="0 0 256 215"><rect width="256" height="215" fill="white" /><path d="M 233,10 L 232,11 L 231,11 L 230,12 L 229,12 L 228,13 L 227,13 L 226,14 L 225,14 L 224,15 L 223,15 L 221,17 L 219,17 L 218,18 L 217,18 L 216,19 L 215,19 L 212,22 L 211,22 L 208,25 L 207,25 L 205,27 L 203,27 L 203,28 L 200,31 L 199,31 L 198,32 L 197,32 L 195,34 L 195,35 L 193,37 L 192,37 L 189,40 L 189,41 L 188,42 L 187,42 L 187,43 L 185,45 L 185,46 L 184,47 L 183,47 L 183,49 L 181,51 L 181,52 L 180,53 L 179,53 L 179,54 L 177,56 L 177,57 L 175,59 L 175,60 L 173,62 L 173,63 L 171,65 L 171,66 L 170,67 L 169,67 L 169,68 L 168,69 L 168,70 L 167,71 L 166,71 L 165,72 L 163,70 L 163,65 L 164,64 L 164,57 L 165,56 L 165,54 L 164,53 L 165,52 L 165,50 L 166,49 L 166,46 L 167,45 L 167,44 L 168,43 L 168,41 L 169,40 L 169,38 L 170,37 L 170,35 L 172,33 L 172,32 L 173,31 L 173,29 L 174,28 L 174,27 L 176,25 L 176,23 L 179,20 L 180,20 L 180,19 L 181,18 L 181,17 L 182,16 L 182,13 L 181,12 L 181,11 L 178,11 L 173,16 L 173,18 L 172,19 L 171,19 L 171,21 L 169,23 L 169,25 L 167,27 L 167,28 L 165,30 L 165,32 L 163,34 L 163,38 L 162,39 L 162,40 L 161,41 L 161,44 L 160,45 L 160,47 L 159,48 L 159,55 L 158,56 L 158,57 L 157,58 L 157,86 L 155,88 L 155,90 L 151,94 L 151,95 L 145,101 L 145,102 L 141,106 L 139,106 L 137,104 L 137,103 L 139,101 L 139,96 L 140,95 L 140,89 L 135,89 L 133,91 L 133,92 L 132,93 L 132,95 L 131,96 L 131,101 L 129,103 L 129,110 L 128,111 L 128,112 L 127,113 L 127,118 L 126,119 L 126,120 L 125,121 L 125,122 L 124,123 L 123,123 L 119,127 L 119,128 L 116,131 L 115,131 L 113,133 L 112,133 L 109,136 L 109,137 L 107,139 L 106,139 L 106,140 L 105,141 L 104,141 L 99,146 L 99,147 L 96,150 L 95,150 L 90,155 L 89,155 L 89,156 L 88,157 L 86,157 L 82,161 L 81,161 L 79,163 L 78,163 L 76,165 L 75,165 L 75,166 L 74,167 L 73,167 L 71,169 L 70,169 L 69,170 L 68,170 L 67,171 L 66,171 L 65,172 L 64,172 L 62,174 L 61,174 L 59,176 L 58,176 L 57,177 L 55,175 L 55,174 L 56,173 L 56,161 L 55,160 L 55,159 L 56,158 L 56,153 L 57,152 L 57,149 L 56,148 L 56,147 L 57,146 L 58,146 L 58,145 L 57,144 L 57,140 L 56,139 L 56,138 L 57,137 L 57,136 L 56,135 L 56,131 L 57,130 L 57,129 L 58,128 L 57,127 L 57,102 L 58,101 L 58,81 L 59,80 L 59,74 L 60,73 L 60,69 L 61,68 L 61,66 L 62,65 L 62,59 L 63,58 L 63,57 L 64,56 L 64,52 L 65,51 L 65,48 L 66,47 L 66,42 L 67,41 L 67,40 L 66,39 L 64,39 L 63,40 L 62,39 L 61,39 L 59,41 L 59,42 L 58,43 L 58,44 L 57,45 L 57,51 L 56,52 L 56,53 L 55,54 L 55,61 L 54,62 L 54,63 L 53,64 L 53,70 L 52,71 L 52,78 L 51,79 L 51,124 L 50,125 L 50,126 L 51,127 L 51,132 L 50,133 L 51,134 L 51,139 L 50,140 L 50,144 L 51,145 L 51,151 L 50,152 L 50,157 L 51,158 L 51,162 L 50,163 L 50,172 L 49,173 L 49,175 L 50,176 L 50,179 L 48,181 L 47,181 L 46,182 L 45,182 L 44,183 L 42,183 L 41,184 L 40,184 L 39,185 L 38,185 L 37,186 L 36,186 L 35,187 L 32,187 L 30,189 L 21,189 L 20,190 L 19,190 L 18,191 L 16,191 L 15,192 L 14,192 L 12,194 L 12,195 L 13,196 L 22,196 L 23,195 L 25,195 L 26,194 L 30,194 L 31,193 L 32,193 L 33,192 L 34,192 L 35,191 L 36,191 L 37,190 L 40,190 L 41,189 L 42,189 L 43,188 L 44,188 L 45,187 L 46,187 L 47,186 L 49,186 L 51,184 L 54,184 L 56,182 L 57,182 L 58,181 L 59,181 L 61,179 L 62,179 L 63,178 L 65,178 L 67,176 L 69,176 L 72,173 L 73,173 L 75,171 L 76,171 L 77,170 L 78,170 L 82,166 L 83,166 L 85,164 L 86,164 L 86,163 L 87,162 L 89,162 L 91,160 L 92,160 L 94,158 L 100,158 L 101,159 L 106,159 L 107,160 L 117,160 L 118,159 L 128,159 L 129,158 L 136,158 L 137,157 L 138,157 L 139,158 L 140,157 L 141,157 L 142,156 L 144,156 L 145,155 L 146,155 L 147,154 L 151,154 L 152,153 L 153,153 L 154,152 L 157,152 L 158,151 L 160,151 L 161,150 L 163,150 L 164,149 L 165,149 L 166,148 L 168,148 L 170,146 L 172,146 L 173,145 L 174,145 L 175,144 L 176,144 L 177,143 L 178,143 L 179,142 L 182,142 L 184,140 L 185,140 L 186,139 L 188,139 L 189,138 L 190,138 L 190,137 L 191,136 L 192,136 L 193,135 L 194,135 L 195,134 L 197,134 L 199,132 L 200,132 L 203,129 L 204,129 L 205,128 L 206,128 L 207,127 L 208,127 L 209,126 L 210,126 L 212,124 L 212,123 L 213,122 L 214,122 L 217,119 L 219,119 L 220,118 L 220,117 L 221,116 L 222,116 L 222,115 L 223,114 L 224,114 L 224,113 L 225,112 L 226,112 L 229,109 L 230,109 L 233,106 L 234,106 L 234,105 L 235,104 L 236,104 L 236,103 L 237,102 L 238,102 L 238,101 L 241,98 L 241,97 L 244,94 L 244,92 L 246,90 L 246,88 L 245,87 L 242,87 L 240,89 L 240,90 L 239,91 L 239,92 L 236,95 L 235,95 L 235,96 L 230,101 L 229,101 L 229,102 L 228,103 L 227,103 L 227,104 L 226,105 L 225,105 L 225,106 L 224,107 L 223,107 L 223,108 L 222,109 L 221,109 L 221,110 L 220,111 L 219,111 L 219,112 L 218,113 L 217,113 L 215,115 L 214,115 L 210,119 L 209,119 L 209,120 L 208,121 L 207,121 L 203,125 L 202,125 L 200,127 L 199,127 L 198,128 L 197,128 L 196,129 L 195,129 L 194,130 L 193,130 L 192,131 L 191,131 L 190,132 L 189,132 L 188,133 L 187,133 L 185,135 L 183,135 L 181,137 L 179,137 L 178,138 L 177,138 L 176,139 L 174,139 L 172,141 L 169,141 L 167,143 L 164,143 L 162,145 L 159,145 L 157,147 L 153,147 L 152,148 L 151,148 L 150,149 L 146,149 L 145,150 L 143,150 L 142,151 L 139,151 L 138,152 L 134,152 L 133,153 L 128,153 L 127,154 L 125,154 L 124,155 L 105,155 L 104,154 L 102,154 L 101,153 L 101,152 L 103,150 L 104,150 L 108,146 L 108,145 L 111,142 L 112,142 L 112,141 L 113,140 L 114,140 L 116,138 L 116,137 L 119,134 L 120,134 L 121,133 L 122,133 L 122,132 L 124,130 L 124,129 L 125,128 L 126,128 L 128,126 L 129,126 L 137,118 L 138,118 L 140,116 L 140,115 L 145,110 L 146,110 L 146,109 L 154,101 L 154,100 L 158,96 L 158,95 L 163,90 L 163,89 L 164,88 L 164,87 L 166,85 L 166,84 L 168,82 L 168,80 L 170,78 L 170,77 L 171,76 L 172,76 L 172,75 L 174,73 L 174,72 L 176,70 L 176,69 L 177,68 L 177,67 L 178,66 L 178,65 L 180,63 L 180,62 L 182,60 L 182,59 L 183,58 L 183,57 L 184,56 L 185,56 L 187,54 L 188,54 L 190,52 L 191,52 L 192,51 L 196,51 L 197,50 L 199,50 L 200,49 L 203,49 L 204,48 L 211,48 L 213,46 L 222,46 L 223,45 L 226,45 L 227,44 L 231,44 L 232,43 L 233,43 L 234,42 L 234,40 L 233,39 L 229,39 L 228,40 L 225,40 L 224,41 L 221,41 L 220,42 L 213,42 L 212,43 L 205,43 L 204,44 L 201,44 L 200,45 L 199,45 L 198,46 L 196,44 L 196,42 L 202,36 L 203,36 L 205,34 L 206,34 L 206,33 L 207,32 L 208,32 L 210,30 L 211,30 L 213,28 L 214,28 L 217,25 L 218,25 L 219,24 L 220,24 L 220,23 L 221,22 L 223,22 L 225,20 L 226,20 L 228,18 L 229,18 L 231,16 L 234,16 L 235,15 L 235,14 L 237,12 L 236,11 L 236,10 Z" fill="black" /><path d="M 0,0 L 0,214 L 255,214 L 255,0 Z" fill="none" stroke="black" stroke-width="1" /></svg>