<?xml version='1.0' encoding='utf-8'?>
<svg width="256" height="217" xmlns="http://www.w3.org/2000/svg" viewBox="0 0 256 217"><rect width="256" height="217" fill="white" /><path d="M 219,16 L 218,17 L 217,17 L 215,19 L 215,21 L 213,23 L 213,25 L 211,27 L 211,32 L 210,33 L 209,33 L 209,35 L 208,36 L 208,38 L 207,39 L 207,40 L 206,41 L 206,42 L 205,43 L 205,44 L 204,45 L 204,46 L 203,47 L 203,48 L 202,49 L 202,50 L 201,51 L 201,53 L 199,55 L 199,57 L 198,58 L 198,59 L 197,60 L 197,61 L 195,63 L 195,64 L 193,66 L 193,68 L 191,70 L 191,71 L 189,73 L 189,74 L 188,75 L 187,75 L 187,77 L 185,79 L 185,80 L 184,81 L 183,81 L 183,82 L 180,85 L 180,86 L 176,90 L 175,90 L 170,95 L 169,95 L 169,96 L 168,97 L 167,97 L 165,99 L 164,99 L 162,101 L 159,101 L 158,102 L 157,102 L 156,103 L 155,103 L 154,104 L 153,104 L 152,105 L 150,105 L 149,106 L 148,106 L 147,107 L 139,107 L 138,108 L 136,108 L 135,109 L 134,108 L 131,108 L 130,107 L 128,107 L 127,108 L 126,108 L 125,107 L 125,105 L 130,100 L 130,99 L 132,97 L 132,96 L 134,94 L 134,93 L 135,92 L 136,92 L 136,91 L 137,90 L 138,90 L 138,89 L 139,88 L 139,87 L 140,86 L 140,85 L 144,81 L 144,78 L 148,74 L 148,73 L 149,72 L 149,71 L 150,70 L 150,68 L 152,66 L 152,64 L 154,62 L 154,59 L 155,58 L 155,57 L 156,56 L 156,54 L 157,53 L 157,52 L 158,51 L 158,50 L 159,49 L 159,48 L 160,47 L 160,43 L 161,42 L 161,41 L 162,40 L 162,36 L 164,34 L 164,26 L 166,24 L 166,19 L 161,19 L 161,21 L 160,22 L 160,24 L 159,25 L 159,31 L 158,32 L 158,33 L 157,34 L 157,36 L 156,37 L 156,38 L 155,39 L 155,44 L 154,45 L 153,45 L 153,49 L 152,50 L 152,51 L 151,52 L 151,54 L 150,55 L 150,56 L 149,57 L 149,60 L 147,62 L 147,64 L 146,65 L 146,66 L 145,67 L 145,68 L 144,69 L 144,70 L 143,71 L 143,72 L 142,73 L 142,74 L 141,75 L 141,76 L 139,78 L 139,79 L 137,81 L 137,82 L 134,85 L 134,86 L 131,89 L 131,90 L 130,91 L 129,91 L 129,92 L 128,93 L 128,94 L 127,95 L 126,95 L 123,98 L 123,99 L 117,105 L 116,105 L 115,106 L 115,108 L 114,109 L 113,109 L 103,119 L 102,119 L 100,121 L 99,121 L 99,122 L 98,123 L 97,123 L 97,124 L 96,125 L 95,125 L 92,128 L 91,128 L 88,131 L 87,131 L 86,132 L 85,132 L 82,135 L 81,135 L 79,137 L 76,137 L 75,136 L 75,132 L 76,131 L 76,123 L 75,122 L 77,120 L 77,119 L 78,118 L 78,110 L 80,108 L 80,99 L 84,95 L 84,94 L 86,92 L 86,91 L 87,90 L 88,90 L 90,88 L 90,86 L 96,80 L 96,79 L 97,78 L 98,78 L 100,76 L 100,75 L 101,74 L 102,74 L 102,71 L 103,70 L 104,70 L 104,68 L 106,66 L 106,64 L 109,61 L 109,59 L 110,58 L 110,57 L 111,56 L 111,55 L 112,54 L 112,52 L 114,50 L 114,48 L 115,47 L 115,46 L 116,45 L 116,43 L 117,42 L 117,41 L 118,40 L 118,39 L 119,38 L 119,37 L 120,36 L 120,32 L 122,30 L 122,27 L 123,26 L 123,25 L 124,24 L 124,23 L 125,22 L 124,21 L 118,21 L 118,24 L 117,25 L 117,26 L 116,27 L 116,28 L 115,29 L 115,32 L 114,33 L 114,34 L 113,35 L 113,38 L 112,39 L 112,40 L 111,41 L 111,42 L 110,43 L 110,44 L 109,45 L 109,47 L 108,48 L 108,49 L 107,50 L 107,52 L 106,53 L 106,54 L 105,55 L 105,57 L 103,59 L 103,61 L 101,63 L 101,64 L 100,65 L 100,66 L 99,67 L 99,68 L 98,69 L 98,70 L 95,73 L 95,74 L 92,77 L 92,78 L 85,85 L 84,84 L 83,84 L 82,83 L 82,78 L 83,77 L 83,76 L 82,75 L 82,72 L 83,71 L 82,70 L 82,67 L 83,66 L 83,63 L 84,62 L 84,61 L 83,60 L 83,57 L 84,56 L 84,40 L 85,39 L 84,38 L 84,32 L 85,31 L 85,26 L 84,25 L 84,22 L 83,22 L 82,21 L 81,22 L 80,22 L 80,23 L 79,24 L 79,28 L 80,29 L 80,31 L 79,32 L 79,33 L 80,34 L 80,38 L 79,39 L 79,64 L 78,65 L 78,72 L 77,73 L 77,74 L 78,75 L 78,80 L 77,81 L 77,89 L 76,90 L 76,97 L 73,100 L 72,99 L 71,99 L 70,98 L 70,96 L 64,90 L 64,89 L 62,87 L 62,86 L 60,84 L 60,83 L 59,83 L 58,82 L 58,81 L 57,81 L 56,80 L 56,79 L 54,77 L 54,75 L 53,75 L 50,72 L 50,69 L 48,67 L 48,66 L 46,64 L 46,62 L 44,60 L 44,57 L 42,55 L 42,53 L 41,52 L 41,50 L 40,49 L 40,46 L 39,45 L 39,43 L 38,42 L 38,29 L 37,28 L 37,26 L 36,25 L 36,20 L 34,18 L 33,18 L 33,20 L 32,21 L 32,22 L 31,23 L 31,28 L 32,29 L 32,35 L 33,36 L 33,43 L 34,44 L 34,47 L 35,48 L 35,52 L 37,54 L 37,58 L 38,59 L 38,60 L 39,61 L 39,62 L 40,62 L 41,63 L 41,66 L 42,66 L 43,67 L 43,70 L 44,70 L 45,71 L 45,72 L 47,74 L 47,76 L 48,76 L 49,77 L 49,78 L 50,79 L 50,80 L 53,83 L 53,84 L 55,86 L 55,87 L 57,89 L 57,90 L 58,91 L 58,92 L 61,95 L 61,96 L 62,96 L 63,97 L 63,98 L 66,101 L 66,102 L 69,105 L 69,106 L 70,106 L 71,107 L 71,108 L 73,110 L 73,118 L 72,119 L 72,120 L 71,121 L 71,128 L 70,129 L 70,134 L 69,135 L 69,141 L 68,142 L 68,144 L 67,145 L 67,150 L 66,151 L 66,155 L 65,156 L 65,162 L 64,163 L 64,166 L 63,167 L 63,174 L 62,175 L 62,178 L 61,179 L 61,184 L 60,185 L 60,189 L 62,191 L 62,193 L 64,193 L 65,192 L 65,191 L 66,190 L 66,183 L 67,182 L 67,180 L 68,179 L 68,171 L 69,170 L 69,169 L 70,168 L 70,163 L 71,162 L 71,160 L 72,159 L 72,151 L 73,150 L 73,148 L 77,144 L 78,144 L 80,142 L 81,142 L 83,140 L 84,140 L 84,139 L 85,138 L 86,138 L 87,137 L 88,137 L 89,136 L 90,136 L 90,135 L 91,134 L 92,134 L 93,133 L 94,133 L 95,132 L 96,132 L 96,131 L 99,128 L 100,128 L 101,127 L 102,127 L 103,126 L 104,126 L 104,125 L 105,124 L 107,124 L 117,114 L 132,114 L 133,113 L 138,113 L 139,112 L 143,112 L 144,111 L 148,111 L 149,110 L 150,110 L 151,109 L 154,109 L 155,108 L 158,108 L 159,107 L 160,107 L 161,106 L 162,106 L 163,105 L 164,105 L 167,102 L 168,102 L 169,101 L 170,101 L 171,100 L 172,100 L 172,99 L 173,98 L 174,98 L 176,96 L 177,96 L 182,91 L 182,89 L 183,88 L 184,88 L 185,87 L 186,87 L 186,86 L 190,82 L 190,81 L 192,79 L 192,78 L 196,74 L 196,72 L 198,70 L 198,68 L 200,66 L 200,65 L 202,63 L 202,61 L 204,59 L 204,58 L 206,56 L 206,54 L 208,52 L 208,50 L 210,48 L 210,47 L 211,46 L 211,45 L 212,44 L 212,42 L 214,40 L 214,37 L 216,35 L 216,33 L 217,32 L 217,31 L 218,30 L 218,27 L 219,26 L 219,25 L 220,24 L 220,17 Z" fill="black" /><path d="M 0,0 L 0,216 L 255,216 L 255,0 Z" fill="none" stroke="black" stroke-width="1" /></svg>