<?xml version='1.0' encoding='utf-8'?>
<svg width="260" height="214" xmlns="http://www.w3.org/2000/svg" viewBox="0 0 260 214"><rect width="260" height="214" fill="white" /><path d="M 207,9 L 206,10 L 206,16 L 205,17 L 205,19 L 204,20 L 204,24 L 202,26 L 202,28 L 201,29 L 201,30 L 200,31 L 200,33 L 199,34 L 199,38 L 198,39 L 198,40 L 197,41 L 197,43 L 196,44 L 196,46 L 195,47 L 194,47 L 194,51 L 192,53 L 192,54 L 191,55 L 191,56 L 190,57 L 190,59 L 188,61 L 188,62 L 186,64 L 186,65 L 184,67 L 184,68 L 181,71 L 180,71 L 180,72 L 176,76 L 173,73 L 173,71 L 171,69 L 171,65 L 170,64 L 170,60 L 171,59 L 171,57 L 170,56 L 170,47 L 169,46 L 169,42 L 170,41 L 170,34 L 171,33 L 171,15 L 166,15 L 166,21 L 165,22 L 165,26 L 164,27 L 164,32 L 163,33 L 163,42 L 162,43 L 162,46 L 163,47 L 163,48 L 164,49 L 164,50 L 163,51 L 163,54 L 164,55 L 164,66 L 165,67 L 165,72 L 166,73 L 166,78 L 167,79 L 167,80 L 166,81 L 166,84 L 163,87 L 162,87 L 162,88 L 161,89 L 160,89 L 158,91 L 156,91 L 156,92 L 155,93 L 154,93 L 153,94 L 152,94 L 151,95 L 150,95 L 147,98 L 146,98 L 145,99 L 144,99 L 142,101 L 140,101 L 140,102 L 139,103 L 137,103 L 135,105 L 134,105 L 130,109 L 127,109 L 125,111 L 124,111 L 123,112 L 122,112 L 121,113 L 120,113 L 118,115 L 117,115 L 115,117 L 114,117 L 113,118 L 112,118 L 111,119 L 110,119 L 108,121 L 106,121 L 106,122 L 105,123 L 104,123 L 102,125 L 100,125 L 100,126 L 99,127 L 98,127 L 96,129 L 95,129 L 93,131 L 92,131 L 91,132 L 90,132 L 87,135 L 86,135 L 82,139 L 81,139 L 80,140 L 78,140 L 77,139 L 77,137 L 75,135 L 75,134 L 73,132 L 73,131 L 72,130 L 72,129 L 71,128 L 71,127 L 69,125 L 68,125 L 67,124 L 67,121 L 66,121 L 65,120 L 65,117 L 64,116 L 64,115 L 63,114 L 63,113 L 62,113 L 60,111 L 60,108 L 59,107 L 59,105 L 61,103 L 62,103 L 68,97 L 69,97 L 71,95 L 71,94 L 83,82 L 83,81 L 86,78 L 87,78 L 93,72 L 93,71 L 94,70 L 95,70 L 95,69 L 98,66 L 99,66 L 99,65 L 101,63 L 101,62 L 103,60 L 103,59 L 104,58 L 105,58 L 105,57 L 107,55 L 107,53 L 108,52 L 108,51 L 109,50 L 109,47 L 110,46 L 110,45 L 111,44 L 111,41 L 112,40 L 112,39 L 113,38 L 113,35 L 115,33 L 115,31 L 116,30 L 116,29 L 117,28 L 117,25 L 118,24 L 118,23 L 119,22 L 119,21 L 120,20 L 120,19 L 121,18 L 121,13 L 116,13 L 115,14 L 115,16 L 114,17 L 114,19 L 113,20 L 113,21 L 112,22 L 112,24 L 110,26 L 110,30 L 109,31 L 109,32 L 108,33 L 108,35 L 106,37 L 106,42 L 104,44 L 104,45 L 103,46 L 103,47 L 102,48 L 102,50 L 101,51 L 101,52 L 100,53 L 100,54 L 99,55 L 99,56 L 96,59 L 96,60 L 95,61 L 94,61 L 94,62 L 89,67 L 89,68 L 84,73 L 84,74 L 83,75 L 82,75 L 82,76 L 81,77 L 80,77 L 80,78 L 79,79 L 78,79 L 74,83 L 74,84 L 73,85 L 72,85 L 72,86 L 71,87 L 70,87 L 70,88 L 69,89 L 68,89 L 68,90 L 67,91 L 66,91 L 64,93 L 64,94 L 63,95 L 62,95 L 60,97 L 56,97 L 55,96 L 55,94 L 54,93 L 54,92 L 53,91 L 53,86 L 52,85 L 52,84 L 51,83 L 51,77 L 50,76 L 50,73 L 49,72 L 49,71 L 50,70 L 50,69 L 49,68 L 49,66 L 51,64 L 51,62 L 53,60 L 53,59 L 54,58 L 55,58 L 55,57 L 57,55 L 57,53 L 58,52 L 59,52 L 59,50 L 63,46 L 63,44 L 65,42 L 65,41 L 68,38 L 69,38 L 69,37 L 70,36 L 70,35 L 72,33 L 72,32 L 73,31 L 73,29 L 75,27 L 75,26 L 79,22 L 79,20 L 81,18 L 81,17 L 82,16 L 83,16 L 83,13 L 82,12 L 82,11 L 79,11 L 78,12 L 78,13 L 76,15 L 76,16 L 74,18 L 74,19 L 72,21 L 72,22 L 70,24 L 70,26 L 69,27 L 68,27 L 68,28 L 67,29 L 67,30 L 66,31 L 66,32 L 64,34 L 64,35 L 62,37 L 62,38 L 60,40 L 60,41 L 56,45 L 56,46 L 55,47 L 54,47 L 54,48 L 52,50 L 52,51 L 50,53 L 49,53 L 48,52 L 48,51 L 47,50 L 47,25 L 48,24 L 48,16 L 49,15 L 49,13 L 47,11 L 43,11 L 43,16 L 42,17 L 42,34 L 41,35 L 41,36 L 42,37 L 42,59 L 43,60 L 43,64 L 44,65 L 44,75 L 45,76 L 45,77 L 46,78 L 46,85 L 47,86 L 47,87 L 48,88 L 48,92 L 49,93 L 49,94 L 50,95 L 50,100 L 51,101 L 51,102 L 52,103 L 52,104 L 53,105 L 53,106 L 54,107 L 54,109 L 56,111 L 56,114 L 57,115 L 57,116 L 58,117 L 58,118 L 59,118 L 60,119 L 60,121 L 62,123 L 62,124 L 63,125 L 63,126 L 64,127 L 64,128 L 65,129 L 65,130 L 66,131 L 66,132 L 67,132 L 68,133 L 68,134 L 69,135 L 69,136 L 70,137 L 70,138 L 72,140 L 72,142 L 73,142 L 74,143 L 74,145 L 73,146 L 72,146 L 71,147 L 70,147 L 70,148 L 68,150 L 68,151 L 67,152 L 66,152 L 65,153 L 64,153 L 64,154 L 63,155 L 62,155 L 62,156 L 61,157 L 60,157 L 60,158 L 59,159 L 58,159 L 58,160 L 57,161 L 56,161 L 56,162 L 52,166 L 52,167 L 50,169 L 50,170 L 47,173 L 47,174 L 46,175 L 46,176 L 44,178 L 44,180 L 42,182 L 42,184 L 41,185 L 41,187 L 40,188 L 40,192 L 39,193 L 39,194 L 38,195 L 38,204 L 39,205 L 40,205 L 42,203 L 42,202 L 43,201 L 43,196 L 44,195 L 44,194 L 45,193 L 45,189 L 47,187 L 47,184 L 48,183 L 48,182 L 49,181 L 49,179 L 51,177 L 51,176 L 53,174 L 53,173 L 54,172 L 55,172 L 55,171 L 56,170 L 57,170 L 57,169 L 62,164 L 62,163 L 63,162 L 64,162 L 65,161 L 65,160 L 67,158 L 68,158 L 74,152 L 75,152 L 75,151 L 78,148 L 79,148 L 84,143 L 85,143 L 86,142 L 87,142 L 87,141 L 88,140 L 89,140 L 91,138 L 92,138 L 94,136 L 95,136 L 95,135 L 96,134 L 97,134 L 98,133 L 99,133 L 100,132 L 101,132 L 103,130 L 103,129 L 104,128 L 105,128 L 106,127 L 107,127 L 108,126 L 109,126 L 110,125 L 111,125 L 113,123 L 115,123 L 120,118 L 123,118 L 124,117 L 125,117 L 128,114 L 129,114 L 130,113 L 131,113 L 132,112 L 133,112 L 135,110 L 136,110 L 138,108 L 139,108 L 140,107 L 141,107 L 142,106 L 144,106 L 146,104 L 151,104 L 152,103 L 163,103 L 164,104 L 166,104 L 167,103 L 169,103 L 170,102 L 177,102 L 178,101 L 179,101 L 180,100 L 186,100 L 190,96 L 191,96 L 191,95 L 192,94 L 193,94 L 193,93 L 194,92 L 195,92 L 197,90 L 197,89 L 198,88 L 199,88 L 199,87 L 202,84 L 203,84 L 203,83 L 204,82 L 205,82 L 205,81 L 207,79 L 207,78 L 209,76 L 209,75 L 210,74 L 211,74 L 211,73 L 212,72 L 212,71 L 213,70 L 213,69 L 214,68 L 215,68 L 215,67 L 216,66 L 216,65 L 217,64 L 217,63 L 221,59 L 221,58 L 223,56 L 223,55 L 224,54 L 224,53 L 225,52 L 225,51 L 226,50 L 227,50 L 227,49 L 228,48 L 228,47 L 229,46 L 229,45 L 230,44 L 231,44 L 231,43 L 233,41 L 233,40 L 234,39 L 234,37 L 237,34 L 237,32 L 236,31 L 236,30 L 235,29 L 233,29 L 233,30 L 232,31 L 232,32 L 230,34 L 230,35 L 228,37 L 228,38 L 226,40 L 226,41 L 224,43 L 224,44 L 222,46 L 222,48 L 220,50 L 220,52 L 217,55 L 216,55 L 216,56 L 214,58 L 214,60 L 212,62 L 212,63 L 210,65 L 210,66 L 208,68 L 208,69 L 204,73 L 204,74 L 202,76 L 202,77 L 201,78 L 200,78 L 199,79 L 199,80 L 196,83 L 196,84 L 193,87 L 192,87 L 190,89 L 190,90 L 189,91 L 188,91 L 186,93 L 185,93 L 184,94 L 183,94 L 182,95 L 180,95 L 179,96 L 176,96 L 175,97 L 164,97 L 162,95 L 162,94 L 166,90 L 167,90 L 169,88 L 171,88 L 173,86 L 173,85 L 176,82 L 177,82 L 181,78 L 182,78 L 185,75 L 185,74 L 187,72 L 188,72 L 188,71 L 189,70 L 189,69 L 190,68 L 191,68 L 191,67 L 192,66 L 192,65 L 193,64 L 193,63 L 194,62 L 194,61 L 195,60 L 195,59 L 197,57 L 197,55 L 199,53 L 199,51 L 201,49 L 201,47 L 203,45 L 203,41 L 204,40 L 204,39 L 205,38 L 205,37 L 206,36 L 206,34 L 207,33 L 207,31 L 208,30 L 208,29 L 209,28 L 209,23 L 211,21 L 211,15 L 212,14 L 212,13 L 211,12 L 211,9 Z" fill="black" /><path d="M 0,0 L 0,213 L 259,213 L 259,0 Z" fill="none" stroke="black" stroke-width="1" /></svg>