<?xml version='1.0' encoding='utf-8'?>
<svg width="255" height="218" xmlns="http://www.w3.org/2000/svg" viewBox="0 0 255 218"><rect width="255" height="218" fill="white" /><path d="M 122,12 L 121,13 L 121,22 L 122,23 L 122,25 L 121,26 L 121,27 L 122,28 L 122,37 L 123,38 L 123,39 L 122,40 L 122,41 L 121,42 L 121,43 L 122,44 L 122,46 L 123,47 L 123,58 L 122,59 L 122,62 L 123,63 L 123,71 L 122,72 L 121,72 L 120,73 L 117,70 L 115,70 L 113,68 L 111,68 L 110,67 L 109,67 L 108,66 L 108,65 L 107,65 L 106,64 L 104,64 L 102,62 L 101,62 L 100,61 L 100,60 L 95,55 L 95,54 L 94,53 L 94,52 L 92,50 L 92,49 L 90,47 L 90,46 L 89,45 L 89,44 L 88,43 L 88,41 L 86,39 L 86,38 L 84,36 L 84,34 L 83,33 L 83,32 L 82,31 L 82,28 L 81,27 L 78,27 L 76,29 L 75,29 L 75,32 L 79,36 L 79,38 L 81,40 L 81,43 L 83,45 L 83,48 L 85,50 L 85,51 L 87,53 L 87,54 L 89,56 L 89,57 L 95,63 L 96,63 L 97,64 L 97,65 L 98,65 L 100,67 L 101,67 L 105,71 L 108,71 L 110,73 L 111,73 L 113,75 L 115,75 L 117,77 L 118,77 L 123,82 L 123,120 L 122,121 L 123,122 L 123,127 L 122,128 L 122,129 L 121,130 L 121,137 L 122,138 L 121,139 L 121,140 L 120,141 L 119,141 L 116,138 L 115,138 L 112,135 L 112,134 L 111,134 L 110,133 L 110,132 L 109,132 L 106,129 L 105,129 L 102,126 L 101,126 L 98,123 L 98,122 L 97,122 L 96,121 L 96,120 L 95,120 L 94,119 L 94,118 L 93,118 L 92,117 L 92,116 L 90,114 L 88,114 L 84,110 L 83,110 L 82,109 L 82,108 L 80,106 L 79,106 L 76,103 L 76,102 L 75,102 L 74,101 L 74,100 L 73,100 L 70,97 L 70,96 L 71,95 L 71,94 L 70,94 L 68,92 L 68,88 L 67,88 L 64,85 L 64,84 L 63,83 L 63,82 L 62,81 L 62,78 L 61,78 L 60,77 L 60,73 L 58,71 L 58,68 L 57,67 L 57,66 L 56,65 L 56,55 L 55,54 L 55,51 L 54,50 L 54,38 L 53,37 L 53,34 L 52,33 L 52,30 L 50,28 L 49,28 L 48,27 L 46,29 L 46,36 L 47,37 L 47,43 L 48,44 L 48,46 L 49,47 L 49,55 L 50,56 L 50,62 L 51,63 L 51,67 L 52,68 L 52,71 L 53,72 L 53,74 L 55,76 L 55,80 L 57,82 L 57,83 L 58,84 L 58,85 L 59,86 L 59,87 L 60,88 L 60,89 L 61,90 L 61,91 L 62,92 L 62,93 L 63,94 L 63,95 L 64,95 L 65,96 L 65,98 L 67,100 L 67,101 L 70,104 L 70,105 L 85,120 L 86,120 L 91,125 L 92,125 L 93,126 L 93,127 L 94,127 L 97,130 L 97,131 L 98,131 L 99,132 L 100,132 L 101,133 L 101,134 L 102,135 L 103,135 L 107,139 L 108,139 L 111,142 L 111,143 L 112,143 L 113,144 L 113,145 L 114,145 L 115,146 L 115,147 L 116,147 L 117,148 L 117,149 L 118,149 L 119,150 L 120,150 L 121,151 L 121,153 L 120,154 L 120,155 L 121,156 L 121,157 L 120,158 L 120,161 L 121,162 L 121,163 L 119,165 L 119,180 L 118,181 L 118,183 L 117,184 L 117,188 L 116,189 L 116,192 L 117,193 L 124,193 L 125,192 L 125,188 L 126,187 L 126,174 L 127,173 L 127,169 L 126,168 L 126,159 L 127,158 L 127,152 L 128,151 L 128,136 L 129,135 L 129,116 L 130,115 L 130,110 L 132,108 L 132,107 L 133,106 L 134,106 L 137,103 L 138,103 L 138,102 L 139,101 L 140,101 L 140,100 L 141,99 L 142,99 L 142,98 L 143,97 L 144,97 L 144,96 L 145,95 L 146,95 L 146,94 L 147,93 L 148,93 L 148,92 L 151,89 L 152,89 L 154,87 L 154,86 L 155,85 L 156,85 L 156,84 L 160,80 L 160,79 L 162,77 L 162,76 L 164,74 L 164,73 L 166,71 L 166,70 L 167,69 L 167,68 L 169,66 L 169,65 L 172,62 L 172,60 L 173,59 L 173,58 L 174,57 L 174,56 L 176,54 L 176,53 L 178,51 L 178,50 L 180,48 L 180,44 L 182,42 L 182,41 L 183,40 L 183,38 L 186,35 L 186,32 L 187,31 L 188,31 L 188,26 L 181,26 L 181,29 L 180,30 L 180,31 L 179,32 L 179,35 L 177,37 L 177,40 L 175,42 L 175,43 L 174,44 L 174,47 L 171,50 L 171,51 L 169,53 L 169,54 L 167,56 L 167,57 L 166,58 L 166,59 L 165,60 L 165,62 L 161,66 L 161,67 L 160,68 L 160,69 L 157,72 L 157,73 L 156,74 L 155,74 L 155,75 L 154,76 L 154,77 L 153,78 L 152,78 L 151,79 L 151,80 L 145,86 L 145,87 L 144,88 L 143,88 L 143,89 L 138,94 L 137,94 L 137,95 L 133,99 L 131,99 L 129,97 L 129,96 L 128,95 L 128,87 L 129,86 L 129,83 L 128,82 L 128,70 L 129,69 L 129,61 L 133,57 L 134,57 L 134,56 L 137,53 L 138,53 L 138,52 L 141,49 L 142,49 L 142,48 L 146,44 L 146,43 L 148,41 L 148,40 L 149,39 L 150,39 L 150,38 L 151,37 L 151,36 L 152,35 L 152,34 L 153,33 L 154,33 L 154,30 L 156,28 L 156,27 L 158,25 L 158,22 L 157,22 L 156,21 L 153,21 L 151,23 L 151,27 L 150,28 L 150,29 L 149,30 L 149,31 L 148,32 L 147,32 L 147,34 L 143,38 L 143,39 L 142,40 L 141,40 L 141,41 L 140,42 L 140,43 L 137,46 L 136,46 L 131,51 L 130,51 L 128,49 L 128,44 L 129,43 L 129,39 L 128,38 L 128,23 L 127,22 L 127,18 L 126,17 L 126,15 L 124,13 L 123,13 Z" fill="black" /><path d="M 0,0 L 0,217 L 254,217 L 254,0 Z" fill="none" stroke="black" stroke-width="1" /></svg>