<?xml version='1.0' encoding='utf-8'?>
<svg width="256" height="217" xmlns="http://www.w3.org/2000/svg" viewBox="0 0 256 217"><rect width="256" height="217" fill="white" /><path d="M 86,11 L 85,12 L 85,13 L 84,14 L 84,22 L 83,23 L 83,38 L 81,40 L 81,43 L 80,44 L 80,46 L 79,47 L 79,50 L 78,51 L 78,52 L 77,53 L 77,54 L 76,55 L 76,56 L 75,57 L 75,59 L 72,62 L 71,62 L 68,59 L 68,57 L 67,56 L 67,55 L 66,54 L 66,51 L 65,50 L 65,47 L 64,46 L 64,43 L 63,42 L 63,40 L 62,39 L 62,29 L 61,28 L 61,24 L 60,23 L 60,17 L 59,17 L 58,16 L 57,16 L 56,15 L 55,16 L 55,25 L 56,26 L 56,27 L 57,28 L 57,37 L 58,38 L 58,40 L 59,41 L 59,45 L 60,46 L 60,48 L 61,49 L 61,52 L 62,53 L 62,54 L 63,55 L 63,58 L 64,59 L 64,61 L 65,62 L 65,64 L 66,65 L 66,66 L 67,67 L 67,70 L 68,71 L 68,72 L 69,73 L 69,77 L 71,79 L 71,81 L 72,82 L 72,85 L 71,86 L 67,86 L 66,85 L 63,85 L 62,84 L 61,84 L 60,83 L 59,83 L 58,82 L 57,82 L 56,81 L 55,81 L 52,78 L 51,78 L 46,73 L 46,71 L 44,69 L 43,69 L 42,68 L 42,67 L 41,67 L 39,65 L 38,65 L 36,63 L 36,62 L 34,60 L 34,59 L 33,58 L 33,57 L 32,56 L 32,55 L 30,53 L 30,52 L 29,51 L 29,50 L 28,49 L 28,47 L 27,46 L 27,45 L 26,44 L 26,41 L 24,39 L 24,36 L 23,35 L 23,34 L 22,33 L 22,29 L 21,28 L 21,27 L 20,26 L 20,25 L 19,25 L 18,24 L 16,26 L 16,28 L 17,29 L 17,36 L 18,37 L 18,40 L 19,41 L 19,42 L 20,43 L 20,46 L 21,47 L 21,48 L 23,50 L 23,52 L 24,53 L 24,54 L 26,56 L 26,58 L 27,59 L 27,60 L 29,62 L 29,63 L 31,65 L 31,66 L 32,66 L 33,67 L 33,68 L 34,68 L 35,69 L 35,70 L 36,70 L 37,71 L 37,72 L 38,72 L 41,75 L 41,76 L 45,80 L 46,80 L 47,81 L 47,82 L 48,82 L 49,83 L 50,83 L 51,84 L 52,84 L 54,86 L 55,86 L 56,87 L 57,87 L 58,88 L 59,88 L 61,90 L 62,90 L 63,91 L 64,91 L 65,92 L 67,92 L 69,94 L 71,94 L 73,96 L 74,96 L 75,97 L 76,97 L 77,98 L 79,98 L 80,99 L 82,99 L 83,100 L 83,101 L 85,103 L 85,104 L 88,107 L 88,108 L 95,115 L 95,116 L 97,118 L 97,119 L 99,121 L 100,121 L 101,122 L 101,123 L 105,127 L 105,128 L 106,128 L 107,129 L 107,130 L 108,130 L 109,131 L 109,132 L 110,132 L 111,133 L 111,134 L 112,134 L 113,135 L 113,136 L 114,136 L 115,137 L 115,138 L 116,138 L 117,139 L 117,140 L 118,140 L 119,141 L 119,142 L 123,146 L 124,146 L 125,147 L 125,148 L 132,155 L 132,156 L 133,157 L 133,158 L 134,158 L 135,159 L 135,160 L 137,162 L 137,163 L 139,165 L 139,166 L 140,166 L 141,167 L 141,169 L 143,171 L 143,172 L 144,172 L 145,173 L 145,174 L 146,175 L 146,176 L 147,177 L 147,178 L 148,179 L 148,180 L 149,181 L 149,182 L 150,183 L 150,184 L 151,185 L 151,188 L 152,189 L 152,190 L 153,191 L 153,194 L 154,195 L 154,197 L 155,198 L 155,200 L 154,201 L 155,202 L 155,206 L 157,206 L 158,205 L 160,205 L 160,197 L 159,196 L 159,190 L 158,189 L 158,187 L 157,186 L 157,185 L 156,184 L 156,183 L 154,181 L 154,179 L 152,177 L 152,175 L 151,175 L 150,174 L 150,172 L 148,170 L 148,169 L 147,168 L 147,167 L 146,166 L 146,165 L 144,163 L 144,162 L 142,160 L 143,159 L 143,153 L 144,152 L 144,149 L 146,147 L 146,145 L 148,143 L 148,141 L 149,140 L 150,140 L 150,137 L 152,135 L 152,134 L 154,132 L 154,131 L 155,130 L 156,130 L 156,128 L 158,126 L 158,125 L 159,124 L 159,123 L 160,122 L 160,121 L 161,120 L 162,120 L 162,119 L 163,118 L 163,117 L 164,116 L 164,115 L 168,111 L 168,110 L 170,108 L 170,107 L 172,105 L 172,104 L 174,102 L 174,101 L 175,100 L 175,99 L 178,96 L 178,95 L 179,94 L 179,93 L 180,92 L 180,91 L 181,90 L 182,90 L 182,89 L 185,86 L 187,86 L 188,85 L 190,85 L 191,84 L 194,84 L 196,82 L 199,82 L 201,80 L 202,80 L 206,76 L 207,76 L 209,74 L 210,74 L 210,73 L 211,72 L 212,72 L 212,71 L 213,70 L 214,70 L 214,69 L 217,66 L 217,65 L 218,64 L 218,63 L 219,62 L 220,62 L 220,61 L 222,59 L 222,57 L 223,56 L 224,56 L 224,55 L 225,54 L 225,53 L 226,52 L 226,51 L 228,49 L 228,47 L 230,45 L 230,43 L 231,42 L 231,41 L 232,40 L 232,39 L 234,37 L 234,35 L 235,34 L 236,34 L 236,32 L 237,31 L 237,30 L 238,29 L 238,27 L 239,26 L 240,26 L 240,23 L 241,22 L 241,21 L 242,20 L 242,19 L 243,18 L 243,12 L 240,12 L 240,13 L 239,14 L 239,16 L 238,17 L 238,18 L 237,19 L 237,22 L 234,25 L 234,26 L 233,27 L 233,31 L 231,33 L 231,34 L 230,35 L 229,35 L 229,36 L 228,37 L 228,40 L 227,41 L 227,42 L 226,43 L 225,43 L 225,46 L 221,50 L 221,52 L 219,54 L 219,56 L 218,57 L 217,57 L 217,58 L 215,60 L 215,62 L 214,63 L 213,63 L 211,65 L 211,66 L 210,67 L 209,67 L 209,68 L 208,69 L 207,69 L 207,70 L 206,71 L 205,71 L 205,72 L 204,73 L 203,73 L 201,75 L 200,75 L 198,77 L 195,77 L 194,78 L 193,78 L 192,79 L 190,79 L 189,78 L 189,76 L 193,72 L 193,70 L 194,69 L 194,68 L 196,66 L 196,64 L 198,62 L 198,61 L 200,59 L 200,57 L 201,56 L 201,55 L 202,54 L 202,53 L 203,52 L 203,51 L 204,50 L 204,48 L 206,46 L 206,44 L 208,42 L 208,41 L 209,40 L 209,39 L 211,37 L 211,35 L 212,34 L 212,33 L 213,32 L 213,31 L 214,30 L 214,27 L 216,25 L 216,23 L 218,21 L 218,19 L 216,17 L 215,17 L 214,18 L 214,19 L 213,20 L 213,22 L 212,23 L 212,24 L 211,25 L 211,28 L 209,30 L 209,32 L 207,34 L 207,36 L 206,37 L 206,38 L 205,39 L 205,40 L 204,41 L 203,41 L 203,44 L 202,45 L 201,45 L 201,46 L 200,47 L 200,48 L 199,49 L 199,52 L 198,53 L 197,53 L 197,54 L 196,55 L 196,56 L 195,57 L 195,58 L 193,60 L 193,62 L 191,64 L 191,66 L 190,67 L 189,67 L 189,69 L 187,71 L 187,73 L 185,75 L 185,76 L 183,78 L 183,79 L 181,81 L 181,82 L 178,85 L 178,86 L 177,87 L 177,88 L 176,89 L 176,90 L 175,91 L 175,92 L 174,93 L 173,93 L 171,95 L 171,97 L 169,99 L 169,100 L 168,101 L 167,101 L 167,104 L 166,105 L 165,105 L 165,106 L 164,107 L 164,108 L 161,111 L 161,112 L 159,114 L 159,115 L 157,117 L 157,118 L 155,120 L 155,121 L 151,125 L 151,126 L 150,127 L 149,127 L 149,129 L 147,131 L 147,133 L 145,135 L 145,137 L 143,139 L 143,140 L 142,141 L 142,142 L 141,143 L 141,145 L 139,147 L 139,148 L 138,149 L 138,150 L 137,151 L 135,151 L 134,150 L 133,150 L 131,148 L 131,147 L 130,146 L 130,145 L 129,145 L 126,142 L 126,141 L 125,141 L 124,140 L 124,139 L 123,139 L 122,138 L 122,137 L 118,133 L 117,133 L 116,132 L 116,131 L 115,131 L 114,130 L 114,129 L 113,129 L 108,124 L 108,123 L 107,123 L 106,122 L 106,120 L 105,120 L 102,117 L 102,110 L 103,109 L 103,107 L 104,106 L 104,102 L 105,101 L 105,99 L 106,98 L 106,95 L 108,93 L 108,90 L 110,88 L 110,87 L 113,84 L 117,84 L 118,83 L 123,83 L 124,82 L 129,82 L 131,80 L 133,80 L 135,78 L 136,78 L 136,77 L 137,76 L 138,76 L 142,72 L 143,72 L 145,70 L 146,70 L 146,68 L 148,66 L 149,66 L 151,64 L 152,64 L 152,61 L 153,60 L 154,60 L 155,59 L 156,59 L 156,58 L 159,55 L 159,54 L 162,51 L 162,49 L 165,46 L 165,45 L 166,44 L 166,43 L 170,39 L 170,38 L 172,36 L 172,35 L 173,34 L 173,33 L 174,32 L 174,31 L 175,30 L 175,29 L 176,28 L 176,27 L 177,26 L 177,25 L 178,24 L 178,17 L 173,17 L 173,20 L 172,21 L 172,22 L 171,23 L 171,25 L 169,27 L 169,30 L 168,31 L 168,32 L 167,33 L 167,34 L 163,38 L 163,40 L 161,42 L 161,43 L 159,45 L 159,46 L 157,48 L 157,49 L 155,51 L 155,52 L 154,53 L 153,53 L 153,54 L 152,55 L 151,55 L 151,56 L 149,58 L 149,59 L 138,70 L 137,70 L 134,73 L 133,73 L 133,74 L 131,76 L 129,76 L 128,77 L 125,77 L 124,78 L 120,78 L 118,80 L 115,77 L 116,76 L 116,74 L 118,72 L 118,71 L 120,69 L 120,65 L 121,64 L 121,63 L 122,62 L 122,60 L 123,59 L 123,57 L 124,56 L 124,51 L 125,50 L 125,49 L 126,48 L 126,46 L 127,45 L 127,44 L 128,43 L 128,40 L 129,39 L 129,37 L 130,36 L 130,33 L 131,32 L 131,28 L 132,27 L 132,23 L 133,22 L 134,22 L 134,17 L 129,17 L 129,22 L 128,23 L 128,24 L 127,25 L 127,28 L 126,29 L 126,30 L 125,31 L 125,36 L 124,37 L 124,39 L 123,40 L 123,42 L 122,43 L 122,44 L 121,45 L 121,47 L 120,48 L 120,49 L 119,50 L 119,53 L 117,55 L 117,58 L 115,60 L 115,62 L 113,64 L 113,66 L 112,67 L 112,68 L 111,69 L 111,73 L 109,75 L 109,76 L 108,77 L 108,78 L 107,79 L 107,80 L 106,81 L 106,82 L 105,83 L 105,86 L 104,87 L 103,87 L 103,90 L 102,91 L 102,94 L 101,95 L 101,97 L 100,98 L 100,99 L 99,100 L 99,103 L 98,104 L 98,105 L 95,108 L 94,108 L 92,106 L 92,104 L 88,100 L 88,99 L 87,99 L 86,98 L 86,97 L 84,95 L 84,93 L 83,93 L 82,92 L 82,91 L 80,89 L 80,88 L 78,86 L 78,85 L 77,84 L 77,83 L 76,82 L 76,80 L 75,79 L 75,77 L 74,76 L 74,73 L 73,72 L 73,70 L 74,69 L 74,68 L 76,66 L 76,65 L 78,63 L 78,61 L 79,60 L 79,59 L 80,58 L 80,57 L 81,56 L 81,55 L 82,54 L 82,52 L 84,50 L 84,44 L 86,42 L 86,39 L 87,38 L 87,34 L 88,33 L 88,25 L 89,24 L 89,22 L 88,21 L 88,19 L 89,18 L 89,16 L 88,15 L 88,12 L 87,12 Z" fill="black" /><path d="M 0,0 L 0,216 L 255,216 L 255,0 Z" fill="none" stroke="black" stroke-width="1" /></svg>