<?xml version='1.0' encoding='utf-8'?>
<svg width="261" height="213" xmlns="http://www.w3.org/2000/svg" viewBox="0 0 261 213"><rect width="261" height="213" fill="white" /><path d="M 159,24 L 158,25 L 152,25 L 151,26 L 149,26 L 148,25 L 137,25 L 136,26 L 133,26 L 132,25 L 126,25 L 125,26 L 122,26 L 121,25 L 118,25 L 117,26 L 108,26 L 107,25 L 106,26 L 34,26 L 33,27 L 28,27 L 27,28 L 29,30 L 29,31 L 30,32 L 30,35 L 32,37 L 32,39 L 33,40 L 33,41 L 34,42 L 34,44 L 35,45 L 35,46 L 36,47 L 36,50 L 38,52 L 38,54 L 40,56 L 40,58 L 41,59 L 41,61 L 42,62 L 42,64 L 44,66 L 44,69 L 45,70 L 45,71 L 46,72 L 46,73 L 47,74 L 47,75 L 48,76 L 48,78 L 50,80 L 50,83 L 52,85 L 52,87 L 54,89 L 54,92 L 55,93 L 55,94 L 56,95 L 56,97 L 58,99 L 58,101 L 59,102 L 59,103 L 60,104 L 60,107 L 61,108 L 61,109 L 62,110 L 62,111 L 63,112 L 63,113 L 64,114 L 64,118 L 66,120 L 66,123 L 67,123 L 68,124 L 68,126 L 70,128 L 70,133 L 72,135 L 72,137 L 73,138 L 73,139 L 74,140 L 74,142 L 75,143 L 75,144 L 76,145 L 76,147 L 77,147 L 78,148 L 78,151 L 80,153 L 80,155 L 81,156 L 81,157 L 82,158 L 82,161 L 83,162 L 83,163 L 84,164 L 84,165 L 86,167 L 86,169 L 88,171 L 88,175 L 90,177 L 90,179 L 91,180 L 91,182 L 93,184 L 96,181 L 97,181 L 97,179 L 99,177 L 99,176 L 101,174 L 101,173 L 105,169 L 105,168 L 107,166 L 107,165 L 109,163 L 109,162 L 110,161 L 111,161 L 111,160 L 114,157 L 114,156 L 117,153 L 117,152 L 120,149 L 120,148 L 125,143 L 125,142 L 126,141 L 126,140 L 129,137 L 129,136 L 132,133 L 132,132 L 135,129 L 135,128 L 139,124 L 139,123 L 141,121 L 141,120 L 142,119 L 143,119 L 143,117 L 144,116 L 145,116 L 145,115 L 149,111 L 149,110 L 153,106 L 153,104 L 154,103 L 155,103 L 155,102 L 157,100 L 157,99 L 159,97 L 159,96 L 160,95 L 161,95 L 161,94 L 162,93 L 162,92 L 165,89 L 165,88 L 166,87 L 167,87 L 167,86 L 168,85 L 168,84 L 171,81 L 171,80 L 172,79 L 173,79 L 173,78 L 175,76 L 175,75 L 177,73 L 177,72 L 178,71 L 179,71 L 179,70 L 181,68 L 181,67 L 183,65 L 183,64 L 187,60 L 187,59 L 189,57 L 189,56 L 190,55 L 191,55 L 191,54 L 193,52 L 193,51 L 195,49 L 195,48 L 196,47 L 197,47 L 197,46 L 199,44 L 199,43 L 201,41 L 201,40 L 202,39 L 203,39 L 203,38 L 206,35 L 206,34 L 209,31 L 209,30 L 210,29 L 210,28 L 211,27 L 211,24 L 203,24 L 202,25 L 192,25 L 191,24 L 188,24 L 187,25 L 182,25 L 181,24 L 180,24 L 179,25 L 172,25 L 171,24 L 170,24 L 169,25 L 162,25 L 161,24 Z" fill="black" /><path d="M 0,0 L 0,212 L 260,212 L 260,0 Z" fill="none" stroke="black" stroke-width="1" /></svg>