<?xml version='1.0' encoding='utf-8'?>
<svg width="259" height="217" xmlns="http://www.w3.org/2000/svg" viewBox="0 0 259 217"><rect width="259" height="217" fill="white" /><path d="M 77,37 L 76,38 L 64,38 L 63,39 L 63,42 L 64,43 L 81,43 L 82,44 L 90,44 L 91,43 L 112,43 L 113,42 L 114,42 L 115,43 L 129,43 L 130,44 L 136,44 L 137,45 L 144,45 L 146,47 L 148,47 L 149,48 L 150,48 L 151,49 L 153,49 L 155,51 L 156,51 L 158,53 L 159,53 L 161,55 L 161,56 L 165,60 L 165,62 L 167,64 L 167,67 L 168,68 L 168,74 L 167,75 L 167,80 L 166,81 L 166,83 L 165,84 L 165,85 L 163,87 L 163,89 L 161,91 L 161,93 L 159,95 L 159,96 L 157,98 L 157,99 L 150,106 L 149,106 L 149,107 L 148,108 L 147,108 L 147,109 L 146,110 L 145,110 L 143,112 L 142,112 L 138,116 L 137,116 L 136,117 L 135,117 L 135,118 L 133,120 L 131,120 L 129,122 L 128,122 L 126,124 L 125,124 L 119,130 L 117,130 L 116,131 L 115,131 L 112,134 L 111,134 L 110,135 L 109,135 L 108,136 L 107,136 L 106,137 L 105,137 L 104,138 L 103,138 L 102,139 L 101,139 L 101,140 L 97,144 L 97,145 L 96,146 L 95,146 L 95,147 L 94,148 L 93,148 L 93,149 L 89,153 L 89,155 L 88,156 L 87,156 L 87,157 L 86,158 L 86,159 L 85,160 L 85,163 L 84,164 L 84,166 L 83,167 L 84,168 L 84,171 L 85,172 L 85,177 L 86,178 L 86,179 L 87,180 L 87,182 L 90,185 L 91,185 L 93,187 L 94,187 L 95,188 L 95,189 L 98,189 L 100,191 L 101,191 L 102,192 L 103,192 L 104,193 L 119,193 L 120,194 L 124,194 L 125,195 L 132,195 L 133,196 L 138,196 L 139,197 L 142,197 L 143,196 L 150,196 L 151,197 L 169,197 L 170,198 L 181,198 L 182,197 L 184,197 L 185,198 L 188,198 L 189,197 L 192,197 L 193,198 L 203,198 L 204,197 L 204,193 L 203,192 L 195,192 L 194,193 L 191,193 L 190,192 L 155,192 L 154,191 L 153,191 L 152,192 L 151,192 L 150,191 L 143,191 L 142,190 L 137,190 L 136,191 L 135,191 L 134,190 L 130,190 L 129,189 L 126,189 L 125,190 L 122,190 L 121,189 L 109,189 L 108,188 L 105,188 L 104,187 L 103,187 L 102,186 L 100,186 L 98,184 L 97,184 L 96,183 L 96,182 L 92,178 L 92,177 L 90,175 L 90,166 L 91,165 L 91,164 L 92,163 L 92,162 L 94,160 L 94,158 L 96,156 L 96,155 L 100,151 L 100,150 L 103,147 L 104,147 L 104,146 L 107,143 L 108,143 L 112,139 L 114,139 L 117,136 L 118,136 L 119,135 L 120,135 L 121,134 L 122,134 L 123,133 L 124,133 L 126,131 L 127,131 L 129,129 L 130,129 L 130,128 L 131,127 L 132,127 L 136,123 L 137,123 L 139,121 L 140,121 L 142,119 L 143,119 L 145,117 L 146,117 L 146,116 L 147,115 L 148,115 L 154,109 L 155,109 L 155,108 L 164,99 L 164,98 L 165,97 L 166,97 L 166,95 L 168,93 L 168,92 L 169,91 L 169,90 L 170,89 L 170,86 L 171,85 L 171,84 L 172,83 L 172,81 L 174,79 L 174,69 L 173,68 L 173,66 L 172,65 L 172,62 L 171,62 L 170,61 L 170,58 L 169,58 L 168,57 L 168,54 L 167,54 L 164,51 L 164,49 L 163,49 L 162,48 L 161,48 L 159,46 L 158,46 L 156,44 L 155,44 L 154,43 L 153,43 L 152,42 L 150,42 L 149,41 L 148,41 L 147,40 L 135,40 L 134,39 L 129,39 L 128,38 L 105,38 L 104,37 L 103,37 L 102,38 L 99,38 L 98,37 L 89,37 L 88,38 L 86,38 L 85,37 L 83,37 L 82,38 L 81,38 L 80,37 Z" fill="black" /><path d="M 0,0 L 0,216 L 258,216 L 258,0 Z" fill="none" stroke="black" stroke-width="1" /></svg>