<?xml version='1.0' encoding='utf-8'?>
<svg width="254" height="219" xmlns="http://www.w3.org/2000/svg" viewBox="0 0 254 219"><rect width="254" height="219" fill="white" /><path d="M 190,60 L 190,91 L 191,92 L 191,96 L 192,97 L 191,98 L 191,100 L 192,101 L 191,102 L 191,106 L 192,107 L 192,125 L 193,126 L 193,127 L 192,128 L 192,133 L 191,134 L 191,136 L 190,137 L 190,140 L 189,141 L 189,143 L 188,144 L 188,147 L 186,149 L 186,151 L 183,154 L 183,155 L 182,156 L 182,157 L 179,160 L 178,160 L 178,161 L 175,164 L 174,164 L 173,165 L 172,165 L 169,168 L 167,168 L 165,170 L 164,170 L 163,171 L 162,171 L 161,172 L 158,172 L 157,173 L 156,173 L 155,174 L 150,174 L 149,175 L 148,175 L 147,176 L 120,176 L 119,175 L 118,175 L 117,174 L 115,174 L 113,172 L 111,172 L 109,170 L 107,170 L 105,168 L 103,168 L 101,166 L 100,166 L 99,165 L 99,164 L 98,164 L 96,162 L 95,162 L 91,158 L 91,156 L 87,152 L 87,151 L 85,149 L 85,147 L 83,145 L 83,142 L 82,141 L 82,139 L 81,138 L 81,133 L 80,132 L 80,129 L 79,128 L 79,123 L 78,122 L 79,121 L 79,119 L 78,118 L 78,112 L 77,111 L 77,98 L 76,97 L 76,80 L 77,79 L 77,78 L 76,77 L 76,68 L 75,67 L 75,66 L 73,64 L 70,64 L 70,65 L 69,66 L 69,81 L 70,82 L 70,90 L 69,91 L 69,92 L 70,93 L 70,113 L 71,114 L 71,118 L 72,119 L 72,129 L 74,131 L 74,135 L 75,136 L 75,137 L 76,138 L 76,143 L 77,144 L 77,145 L 78,146 L 78,148 L 79,149 L 79,150 L 80,151 L 80,153 L 81,154 L 81,156 L 82,157 L 83,157 L 86,160 L 86,161 L 87,161 L 88,162 L 88,163 L 92,167 L 93,167 L 94,168 L 94,169 L 95,169 L 96,170 L 96,171 L 97,171 L 99,173 L 102,173 L 104,175 L 105,175 L 106,176 L 106,177 L 109,177 L 110,178 L 111,178 L 112,179 L 115,179 L 116,180 L 117,180 L 118,181 L 121,181 L 122,182 L 128,182 L 129,183 L 130,183 L 131,182 L 132,182 L 133,183 L 147,183 L 148,182 L 149,182 L 150,181 L 157,181 L 158,180 L 159,180 L 160,179 L 161,179 L 162,178 L 163,178 L 164,177 L 165,177 L 167,175 L 170,175 L 172,173 L 173,173 L 176,170 L 177,170 L 180,167 L 181,167 L 187,161 L 187,160 L 189,158 L 189,157 L 191,155 L 191,154 L 192,153 L 192,152 L 193,151 L 193,147 L 194,146 L 194,145 L 195,144 L 195,143 L 197,141 L 197,136 L 198,135 L 198,134 L 199,133 L 199,128 L 200,127 L 200,126 L 199,125 L 199,110 L 198,109 L 198,98 L 197,97 L 197,61 L 196,60 Z" fill="black" /><path d="M 0,0 L 0,218 L 253,218 L 253,0 Z" fill="none" stroke="black" stroke-width="1" /></svg>