<?xml version='1.0' encoding='utf-8'?>
<svg width="257" height="216" xmlns="http://www.w3.org/2000/svg" viewBox="0 0 257 216"><rect width="257" height="216" fill="white" /><path d="M 70,28 L 69,29 L 69,31 L 68,32 L 68,36 L 66,38 L 66,43 L 65,44 L 64,44 L 64,46 L 63,47 L 63,51 L 62,52 L 62,54 L 61,55 L 61,57 L 60,58 L 60,60 L 59,61 L 59,62 L 58,63 L 58,66 L 56,68 L 56,72 L 55,73 L 55,74 L 54,75 L 54,78 L 53,79 L 53,82 L 52,83 L 52,86 L 50,88 L 50,91 L 49,92 L 49,93 L 48,94 L 48,98 L 47,99 L 47,101 L 45,103 L 45,107 L 44,108 L 44,111 L 42,113 L 42,117 L 40,119 L 40,121 L 39,122 L 39,124 L 38,125 L 38,128 L 37,129 L 37,131 L 36,132 L 36,135 L 35,136 L 35,137 L 34,138 L 34,141 L 33,142 L 33,144 L 32,145 L 32,147 L 31,148 L 31,150 L 30,151 L 30,153 L 29,154 L 29,156 L 28,157 L 28,159 L 27,160 L 27,161 L 26,162 L 26,165 L 25,166 L 25,167 L 24,168 L 24,172 L 22,174 L 22,176 L 20,178 L 20,183 L 21,184 L 27,184 L 28,183 L 35,183 L 36,182 L 39,182 L 40,181 L 49,181 L 50,180 L 55,180 L 56,179 L 65,179 L 66,178 L 71,178 L 72,177 L 83,177 L 84,176 L 90,176 L 91,175 L 99,175 L 100,174 L 102,174 L 103,173 L 110,173 L 111,172 L 115,172 L 116,171 L 125,171 L 127,169 L 131,169 L 132,170 L 133,169 L 140,169 L 141,168 L 143,168 L 144,167 L 155,167 L 156,166 L 158,166 L 159,165 L 169,165 L 170,164 L 172,164 L 173,163 L 183,163 L 184,162 L 185,162 L 186,161 L 195,161 L 196,160 L 199,160 L 200,159 L 212,159 L 213,158 L 213,156 L 207,150 L 206,150 L 205,149 L 205,148 L 201,144 L 200,144 L 195,139 L 194,139 L 185,130 L 184,130 L 183,129 L 183,128 L 181,126 L 180,126 L 172,118 L 171,118 L 157,104 L 156,104 L 150,98 L 149,98 L 143,92 L 142,92 L 141,91 L 141,90 L 137,86 L 136,86 L 132,82 L 131,82 L 125,76 L 124,76 L 123,75 L 123,74 L 117,68 L 116,68 L 112,64 L 111,64 L 107,60 L 107,59 L 106,58 L 105,58 L 99,52 L 98,52 L 94,48 L 93,48 L 88,43 L 88,42 L 86,40 L 85,40 L 83,38 L 83,37 L 81,35 L 80,35 L 79,34 L 78,34 L 77,33 L 77,32 L 76,32 L 75,31 L 75,30 L 74,30 L 72,28 Z" fill="black" /><path d="M 202,16 L 202,18 L 203,19 L 203,29 L 204,30 L 204,46 L 203,47 L 203,49 L 208,49 L 209,50 L 211,50 L 212,49 L 213,49 L 214,50 L 218,50 L 219,49 L 237,49 L 237,35 L 236,34 L 236,26 L 235,25 L 235,19 L 236,18 L 236,17 L 235,16 Z" fill="black" /></svg>