<?xml version='1.0' encoding='utf-8'?>
<svg width="257" height="215" xmlns="http://www.w3.org/2000/svg" viewBox="0 0 257 215"><rect width="257" height="215" fill="white" /><path d="M 195,158 L 194,159 L 193,159 L 193,161 L 194,162 L 194,171 L 195,172 L 195,193 L 197,193 L 199,191 L 200,191 L 201,192 L 208,192 L 209,191 L 210,191 L 211,192 L 214,192 L 215,191 L 227,191 L 228,192 L 230,192 L 231,191 L 234,191 L 234,183 L 233,182 L 234,181 L 234,176 L 233,175 L 234,174 L 234,172 L 233,171 L 233,169 L 232,168 L 232,167 L 233,166 L 233,164 L 232,163 L 232,162 L 233,161 L 233,158 Z" fill="black" /><path d="M 63,39 L 63,44 L 61,46 L 61,50 L 60,51 L 60,52 L 59,53 L 59,55 L 58,56 L 58,58 L 57,59 L 57,62 L 56,63 L 56,66 L 55,67 L 55,69 L 54,70 L 54,71 L 53,72 L 53,75 L 51,77 L 51,81 L 50,82 L 49,82 L 49,87 L 48,88 L 48,91 L 47,92 L 47,94 L 46,95 L 46,97 L 45,98 L 45,101 L 44,102 L 44,103 L 43,104 L 43,107 L 42,108 L 42,109 L 41,110 L 41,113 L 40,114 L 40,115 L 39,116 L 39,119 L 38,120 L 38,123 L 37,124 L 37,126 L 36,127 L 36,129 L 35,130 L 35,132 L 34,133 L 34,135 L 33,136 L 33,139 L 32,140 L 32,141 L 31,142 L 31,144 L 30,145 L 30,147 L 29,148 L 29,151 L 28,152 L 28,153 L 27,154 L 27,157 L 26,158 L 26,160 L 25,161 L 25,167 L 24,168 L 24,169 L 23,170 L 23,173 L 27,173 L 28,172 L 41,172 L 42,171 L 70,171 L 71,170 L 82,170 L 83,169 L 86,169 L 87,170 L 88,170 L 89,169 L 134,169 L 135,168 L 145,168 L 146,167 L 163,167 L 164,166 L 163,165 L 163,163 L 162,162 L 161,162 L 160,161 L 160,159 L 158,157 L 158,156 L 154,152 L 153,152 L 152,151 L 152,149 L 150,147 L 150,146 L 149,146 L 148,145 L 148,144 L 146,142 L 146,141 L 144,139 L 144,138 L 142,136 L 142,135 L 141,134 L 140,134 L 138,132 L 138,131 L 134,127 L 134,126 L 132,124 L 132,122 L 131,122 L 130,121 L 130,120 L 128,118 L 128,117 L 127,117 L 126,116 L 126,115 L 124,113 L 124,112 L 123,112 L 122,111 L 122,110 L 121,109 L 121,108 L 119,106 L 118,106 L 117,105 L 117,104 L 116,103 L 116,102 L 112,98 L 112,97 L 108,93 L 108,92 L 105,89 L 105,88 L 104,87 L 104,86 L 103,86 L 102,85 L 102,84 L 100,82 L 100,81 L 96,77 L 96,76 L 95,76 L 94,75 L 94,74 L 92,72 L 92,71 L 88,67 L 88,66 L 87,66 L 86,65 L 86,64 L 84,62 L 84,61 L 82,59 L 82,58 L 80,56 L 80,55 L 76,51 L 76,50 L 75,50 L 74,49 L 74,48 L 72,46 L 72,44 L 71,44 L 70,43 L 70,42 L 68,40 L 68,39 Z" fill="black" /><path d="M 190,19 L 189,20 L 189,21 L 188,22 L 188,23 L 187,24 L 187,25 L 186,26 L 185,26 L 185,28 L 183,30 L 183,31 L 181,33 L 181,34 L 179,36 L 179,37 L 177,39 L 177,41 L 176,42 L 175,42 L 175,45 L 174,46 L 173,46 L 173,48 L 171,50 L 171,51 L 169,53 L 169,55 L 168,56 L 168,59 L 169,59 L 170,60 L 180,60 L 181,61 L 214,61 L 216,59 L 216,57 L 214,55 L 214,54 L 213,53 L 213,52 L 212,51 L 211,51 L 210,50 L 210,48 L 209,48 L 208,47 L 208,46 L 207,45 L 207,44 L 206,43 L 206,42 L 204,40 L 204,39 L 203,38 L 203,37 L 201,35 L 201,34 L 200,33 L 200,32 L 198,30 L 198,29 L 196,27 L 196,26 L 195,25 L 195,24 L 193,22 L 193,21 L 192,20 L 192,19 Z" fill="black" /></svg>