<?xml version='1.0' encoding='utf-8'?>
<svg width="257" height="216" xmlns="http://www.w3.org/2000/svg" viewBox="0 0 257 216"><rect width="257" height="216" fill="white" /><path d="M 52,42 L 51,43 L 49,43 L 47,45 L 47,51 L 48,52 L 48,56 L 47,57 L 47,72 L 48,73 L 47,74 L 47,77 L 46,78 L 47,79 L 47,88 L 46,89 L 47,90 L 47,93 L 46,94 L 46,111 L 47,112 L 47,118 L 46,119 L 46,170 L 45,171 L 45,172 L 46,173 L 53,173 L 54,172 L 55,172 L 56,173 L 57,173 L 58,172 L 59,172 L 60,173 L 62,173 L 63,172 L 77,172 L 78,171 L 80,171 L 81,172 L 83,172 L 84,171 L 86,171 L 87,172 L 96,172 L 97,171 L 100,171 L 101,172 L 102,172 L 103,171 L 129,171 L 130,172 L 131,172 L 132,171 L 181,171 L 182,170 L 183,171 L 186,171 L 187,170 L 189,170 L 190,171 L 199,171 L 199,170 L 201,168 L 201,158 L 200,157 L 200,156 L 201,155 L 201,150 L 200,149 L 200,145 L 201,144 L 200,143 L 200,140 L 201,139 L 200,138 L 200,134 L 199,133 L 199,132 L 200,131 L 200,130 L 199,129 L 199,128 L 200,127 L 200,126 L 201,125 L 201,124 L 200,123 L 200,122 L 199,121 L 199,116 L 200,115 L 200,112 L 199,111 L 199,109 L 200,108 L 200,107 L 199,106 L 199,92 L 198,91 L 198,89 L 199,88 L 199,82 L 198,81 L 198,75 L 199,74 L 199,69 L 198,68 L 198,66 L 199,65 L 199,62 L 198,61 L 198,58 L 197,57 L 197,55 L 198,54 L 198,50 L 197,49 L 197,43 L 184,43 L 183,44 L 182,44 L 181,43 L 179,43 L 178,42 L 170,42 L 169,43 L 162,43 L 161,42 L 160,42 L 159,43 L 158,43 L 157,42 L 156,42 L 155,43 L 153,43 L 152,42 L 118,42 L 117,43 L 115,43 L 114,42 L 110,42 L 109,43 L 108,42 L 103,42 L 102,43 L 101,42 L 88,42 L 87,43 L 85,43 L 84,44 L 81,44 L 80,43 L 74,43 L 73,42 L 72,42 L 71,43 L 66,43 L 65,44 L 63,42 L 60,42 L 59,43 L 56,43 L 55,42 Z" fill="black" /><path d="M 230,10 L 229,11 L 225,11 L 224,12 L 222,12 L 221,13 L 220,13 L 219,14 L 218,14 L 218,15 L 215,18 L 215,19 L 212,22 L 212,28 L 211,29 L 211,33 L 212,34 L 212,37 L 214,39 L 214,41 L 216,43 L 217,43 L 218,44 L 218,45 L 219,45 L 220,46 L 221,46 L 222,47 L 224,47 L 226,49 L 237,49 L 237,48 L 238,47 L 241,47 L 245,43 L 245,42 L 247,40 L 247,38 L 248,37 L 248,36 L 249,35 L 249,32 L 250,31 L 249,30 L 249,25 L 247,23 L 247,21 L 245,19 L 245,18 L 241,14 L 240,14 L 238,12 L 236,12 L 235,11 L 232,11 L 231,10 Z" fill="black" /></svg>