<?xml version='1.0' encoding='utf-8'?>
<svg width="256" height="216" xmlns="http://www.w3.org/2000/svg" viewBox="0 0 256 216"><rect width="256" height="216" fill="white" /><path d="M 189,123 L 186,126 L 186,127 L 185,128 L 185,129 L 184,130 L 184,132 L 181,135 L 181,136 L 180,137 L 180,139 L 178,141 L 178,142 L 176,144 L 176,146 L 175,147 L 174,147 L 174,151 L 171,154 L 170,154 L 170,156 L 169,157 L 169,158 L 168,159 L 168,160 L 166,162 L 166,164 L 164,166 L 164,167 L 163,168 L 163,169 L 162,170 L 162,171 L 161,172 L 161,173 L 160,174 L 160,175 L 158,177 L 158,179 L 159,179 L 160,180 L 222,180 L 223,179 L 224,179 L 224,176 L 222,174 L 222,173 L 221,172 L 221,171 L 219,169 L 219,167 L 218,167 L 217,166 L 217,164 L 216,163 L 216,162 L 215,161 L 214,161 L 213,160 L 213,158 L 211,156 L 211,153 L 210,152 L 209,152 L 207,150 L 207,147 L 206,147 L 205,146 L 205,145 L 204,144 L 204,143 L 203,142 L 203,141 L 201,139 L 201,138 L 200,137 L 200,135 L 199,134 L 199,133 L 198,133 L 197,132 L 197,131 L 196,130 L 196,129 L 195,128 L 195,127 L 193,125 L 193,124 L 192,123 Z" fill="black" /><path d="M 75,31 L 74,32 L 73,32 L 72,33 L 67,33 L 66,34 L 63,34 L 62,35 L 59,35 L 57,37 L 55,37 L 53,39 L 50,39 L 49,40 L 48,40 L 47,41 L 46,41 L 42,45 L 41,45 L 37,49 L 36,49 L 30,55 L 30,56 L 28,58 L 28,59 L 23,64 L 23,65 L 22,66 L 22,67 L 20,69 L 20,72 L 19,73 L 19,74 L 18,75 L 18,76 L 17,77 L 17,78 L 16,79 L 16,82 L 15,83 L 15,84 L 14,85 L 14,91 L 12,93 L 12,110 L 13,111 L 13,116 L 14,117 L 14,122 L 15,123 L 15,125 L 16,126 L 16,128 L 18,130 L 18,131 L 20,133 L 20,136 L 22,138 L 22,140 L 24,142 L 24,144 L 26,146 L 27,146 L 28,147 L 28,150 L 36,158 L 37,158 L 41,162 L 42,162 L 44,164 L 45,164 L 48,167 L 49,167 L 50,168 L 52,168 L 53,169 L 54,169 L 55,170 L 56,170 L 58,172 L 62,172 L 63,173 L 64,173 L 65,174 L 69,174 L 70,175 L 72,175 L 73,176 L 93,176 L 94,175 L 97,175 L 98,174 L 103,174 L 103,173 L 104,172 L 108,172 L 109,171 L 111,171 L 112,170 L 113,170 L 113,169 L 114,168 L 115,168 L 117,166 L 121,166 L 121,165 L 122,164 L 123,164 L 124,163 L 125,163 L 126,162 L 127,162 L 127,161 L 130,158 L 132,158 L 137,153 L 137,152 L 138,151 L 139,151 L 139,149 L 142,146 L 143,146 L 143,145 L 145,143 L 145,142 L 147,140 L 147,138 L 149,136 L 149,133 L 150,132 L 150,131 L 151,130 L 151,127 L 152,126 L 152,125 L 153,124 L 153,123 L 155,121 L 155,114 L 156,113 L 156,111 L 157,110 L 157,109 L 156,108 L 156,103 L 157,102 L 157,95 L 156,94 L 156,92 L 155,91 L 155,86 L 154,85 L 154,83 L 153,82 L 153,81 L 152,80 L 152,75 L 151,74 L 151,72 L 149,70 L 149,69 L 147,67 L 147,65 L 146,65 L 145,64 L 145,63 L 144,62 L 144,61 L 143,61 L 138,56 L 138,55 L 137,54 L 137,51 L 133,51 L 132,50 L 132,49 L 131,48 L 131,47 L 130,47 L 128,45 L 127,45 L 123,41 L 120,41 L 118,39 L 117,39 L 115,37 L 112,37 L 110,35 L 106,35 L 105,34 L 104,34 L 103,33 L 97,33 L 95,31 Z" fill="black" /></svg>