<?xml version='1.0' encoding='utf-8'?>
<svg width="261" height="219" xmlns="http://www.w3.org/2000/svg" viewBox="0 0 261 219"><rect width="261" height="219" fill="white" /><path d="M 44,150 L 43,151 L 37,151 L 36,152 L 35,152 L 34,153 L 31,153 L 31,154 L 30,155 L 29,155 L 25,159 L 24,159 L 24,160 L 21,163 L 21,164 L 19,166 L 19,168 L 18,169 L 18,170 L 17,171 L 17,180 L 18,181 L 18,184 L 19,185 L 19,188 L 20,189 L 20,190 L 21,191 L 21,192 L 22,193 L 22,194 L 24,196 L 25,196 L 31,202 L 33,202 L 35,204 L 42,204 L 43,205 L 44,204 L 54,204 L 55,203 L 56,203 L 57,202 L 59,202 L 61,200 L 62,200 L 64,198 L 64,197 L 65,196 L 66,196 L 70,192 L 70,191 L 71,190 L 71,189 L 72,188 L 72,185 L 74,183 L 74,182 L 73,181 L 73,178 L 74,177 L 74,176 L 72,174 L 72,168 L 71,167 L 71,166 L 70,165 L 70,164 L 66,160 L 66,159 L 64,157 L 63,157 L 62,156 L 61,156 L 58,153 L 55,153 L 54,152 L 53,152 L 52,151 L 49,151 L 48,150 Z" fill="black" /><path d="M 136,147 L 135,148 L 132,148 L 131,149 L 129,149 L 128,150 L 127,150 L 126,151 L 125,151 L 123,153 L 122,153 L 121,154 L 121,155 L 120,156 L 119,156 L 117,158 L 117,159 L 115,161 L 115,162 L 113,164 L 113,166 L 112,167 L 112,172 L 111,173 L 112,174 L 112,177 L 113,178 L 113,184 L 115,186 L 115,188 L 117,190 L 117,191 L 119,193 L 119,194 L 120,194 L 122,196 L 123,196 L 125,198 L 126,198 L 127,199 L 128,199 L 129,200 L 132,200 L 133,201 L 135,201 L 136,202 L 139,202 L 140,201 L 147,201 L 148,200 L 150,200 L 151,199 L 152,199 L 153,198 L 156,198 L 158,196 L 158,195 L 161,192 L 162,192 L 164,190 L 164,189 L 165,188 L 165,187 L 166,186 L 166,185 L 168,183 L 168,176 L 169,175 L 169,172 L 168,171 L 168,166 L 166,164 L 166,161 L 164,161 L 162,159 L 162,158 L 160,156 L 160,155 L 159,155 L 157,153 L 156,153 L 154,151 L 153,151 L 151,149 L 149,149 L 148,148 L 147,148 L 146,147 Z" fill="black" /><path d="M 203,109 L 201,111 L 201,112 L 199,114 L 199,115 L 197,117 L 197,118 L 196,119 L 196,120 L 195,121 L 195,122 L 193,124 L 193,126 L 192,127 L 191,127 L 191,130 L 189,132 L 189,134 L 187,136 L 187,139 L 185,141 L 185,142 L 183,144 L 183,145 L 182,146 L 182,147 L 181,148 L 181,152 L 200,152 L 201,151 L 216,151 L 217,150 L 220,150 L 221,151 L 222,151 L 223,150 L 230,150 L 230,145 L 229,145 L 228,144 L 228,143 L 226,141 L 226,140 L 224,138 L 224,137 L 223,136 L 223,135 L 222,134 L 222,133 L 221,133 L 220,132 L 220,131 L 219,130 L 219,129 L 216,126 L 216,125 L 215,124 L 215,123 L 214,122 L 214,121 L 213,121 L 210,118 L 210,116 L 207,113 L 207,112 L 205,110 L 205,109 Z" fill="black" /><path d="M 193,19 L 192,20 L 178,20 L 177,21 L 177,44 L 178,45 L 178,46 L 177,47 L 177,53 L 186,53 L 187,52 L 208,52 L 209,51 L 209,45 L 210,44 L 210,41 L 209,40 L 209,31 L 208,30 L 208,21 L 207,20 L 206,20 L 205,19 Z" fill="black" /><path d="M 54,18 L 52,20 L 52,22 L 49,25 L 49,28 L 48,29 L 48,30 L 47,31 L 47,32 L 46,33 L 46,34 L 45,35 L 45,36 L 44,37 L 44,38 L 43,39 L 43,40 L 42,41 L 42,42 L 41,43 L 41,44 L 40,45 L 40,46 L 39,47 L 39,48 L 37,50 L 37,52 L 36,53 L 36,54 L 35,55 L 35,56 L 33,58 L 33,60 L 32,61 L 32,62 L 31,63 L 31,64 L 29,66 L 29,68 L 27,70 L 27,72 L 25,74 L 25,76 L 24,77 L 24,78 L 23,79 L 23,80 L 21,82 L 21,84 L 20,85 L 19,85 L 19,88 L 17,90 L 17,92 L 16,93 L 16,94 L 15,95 L 15,96 L 14,97 L 14,98 L 13,99 L 13,100 L 11,102 L 11,110 L 13,110 L 13,109 L 14,108 L 36,108 L 37,107 L 40,107 L 41,106 L 47,106 L 48,107 L 49,106 L 64,106 L 65,105 L 67,105 L 68,104 L 85,104 L 86,103 L 94,103 L 95,102 L 98,102 L 99,103 L 100,102 L 112,102 L 113,101 L 112,100 L 112,99 L 111,98 L 111,97 L 110,96 L 110,95 L 109,95 L 108,94 L 108,93 L 105,90 L 105,89 L 104,88 L 104,87 L 102,85 L 102,84 L 100,82 L 100,81 L 99,81 L 98,80 L 98,78 L 94,74 L 94,73 L 92,71 L 92,69 L 91,69 L 90,68 L 90,66 L 88,64 L 88,63 L 87,63 L 86,62 L 86,61 L 84,59 L 84,58 L 82,56 L 82,55 L 80,53 L 80,52 L 78,50 L 78,49 L 77,49 L 76,48 L 76,46 L 74,44 L 74,43 L 73,43 L 72,42 L 72,41 L 70,39 L 70,38 L 68,36 L 68,35 L 67,35 L 66,34 L 66,33 L 65,32 L 65,31 L 62,28 L 62,27 L 60,25 L 60,24 L 58,22 L 58,21 L 56,19 L 55,19 Z" fill="black" /><path d="M 0,0 L 0,218 L 260,218 L 260,0 Z" fill="none" stroke="black" stroke-width="1" /></svg>