<?xml version='1.0' encoding='utf-8'?>
<svg width="260" height="220" xmlns="http://www.w3.org/2000/svg" viewBox="0 0 260 220"><rect width="260" height="220" fill="white" /><path d="M 85,38 L 85,43 L 86,44 L 87,44 L 88,45 L 90,45 L 91,44 L 96,44 L 97,45 L 98,44 L 109,44 L 110,45 L 113,45 L 114,44 L 118,44 L 119,45 L 121,45 L 122,44 L 126,44 L 127,45 L 128,45 L 129,44 L 130,45 L 131,45 L 132,46 L 135,46 L 136,47 L 139,47 L 141,49 L 144,49 L 148,53 L 149,53 L 152,56 L 152,58 L 154,60 L 154,61 L 155,62 L 155,64 L 156,65 L 156,66 L 157,67 L 157,79 L 156,80 L 156,82 L 155,83 L 155,84 L 154,85 L 154,87 L 150,91 L 150,92 L 147,95 L 146,95 L 142,99 L 142,100 L 138,104 L 137,104 L 135,106 L 134,106 L 127,113 L 126,113 L 125,114 L 124,114 L 124,115 L 123,116 L 122,116 L 122,117 L 120,119 L 120,120 L 116,124 L 116,125 L 115,126 L 114,126 L 114,127 L 113,128 L 113,129 L 112,130 L 112,133 L 111,134 L 111,137 L 110,138 L 110,145 L 109,146 L 109,150 L 108,151 L 108,163 L 107,164 L 107,167 L 106,168 L 106,183 L 107,184 L 107,185 L 108,185 L 109,186 L 111,184 L 111,182 L 112,181 L 112,178 L 111,177 L 111,176 L 113,174 L 113,156 L 115,154 L 115,152 L 114,151 L 114,150 L 115,149 L 115,141 L 116,140 L 116,139 L 117,138 L 117,134 L 118,133 L 118,132 L 119,131 L 119,130 L 121,128 L 121,127 L 127,121 L 127,120 L 130,117 L 131,117 L 138,110 L 139,110 L 142,107 L 143,107 L 143,106 L 144,105 L 145,105 L 145,104 L 148,101 L 149,101 L 155,95 L 155,94 L 159,90 L 159,87 L 160,86 L 160,85 L 161,84 L 161,81 L 163,79 L 163,68 L 162,67 L 162,63 L 160,61 L 160,59 L 159,58 L 159,57 L 158,56 L 158,55 L 155,52 L 154,52 L 153,51 L 153,50 L 149,46 L 148,46 L 147,45 L 146,45 L 145,44 L 144,44 L 143,43 L 142,43 L 141,42 L 137,42 L 136,41 L 135,41 L 134,40 L 130,40 L 129,39 L 116,39 L 115,38 Z" fill="black" /><path d="M 0,0 L 0,219 L 259,219 L 259,0 Z" fill="none" stroke="black" stroke-width="1" /></svg>