<?xml version='1.0' encoding='utf-8'?>
<svg width="256" height="216" xmlns="http://www.w3.org/2000/svg" viewBox="0 0 256 216"><rect width="256" height="216" fill="white" /><path d="M 49,134 L 47,136 L 43,136 L 41,138 L 39,138 L 37,140 L 36,140 L 32,144 L 32,145 L 31,146 L 30,146 L 28,148 L 28,151 L 26,153 L 26,158 L 25,159 L 25,165 L 26,166 L 26,171 L 28,173 L 28,175 L 29,175 L 30,176 L 30,177 L 31,178 L 31,179 L 34,182 L 34,183 L 35,183 L 36,184 L 37,184 L 38,185 L 39,185 L 41,187 L 43,187 L 45,189 L 59,189 L 60,188 L 63,188 L 64,187 L 66,187 L 68,185 L 69,185 L 70,184 L 71,184 L 72,183 L 73,183 L 73,182 L 78,177 L 78,175 L 79,174 L 79,172 L 81,170 L 81,168 L 82,167 L 82,164 L 83,163 L 83,162 L 82,161 L 82,156 L 81,155 L 81,152 L 80,151 L 78,151 L 77,150 L 77,146 L 73,142 L 71,142 L 70,141 L 70,140 L 68,140 L 65,137 L 64,137 L 63,136 L 61,136 L 60,135 L 58,135 L 57,134 L 54,134 L 53,135 L 52,135 L 51,134 Z" fill="black" /><path d="M 32,23 L 32,25 L 31,26 L 31,27 L 30,28 L 30,29 L 28,31 L 28,33 L 27,34 L 26,34 L 26,36 L 24,38 L 24,40 L 23,41 L 23,43 L 22,44 L 22,45 L 21,46 L 21,47 L 20,48 L 20,49 L 18,51 L 18,53 L 16,55 L 16,57 L 15,58 L 15,59 L 14,60 L 14,61 L 13,62 L 13,63 L 12,64 L 12,65 L 11,66 L 11,69 L 15,69 L 16,70 L 19,70 L 20,69 L 23,69 L 24,70 L 25,69 L 31,69 L 32,70 L 41,70 L 42,69 L 43,69 L 44,70 L 45,70 L 46,69 L 61,69 L 62,68 L 62,66 L 61,65 L 61,62 L 60,62 L 59,61 L 59,60 L 57,58 L 57,57 L 55,55 L 55,54 L 53,52 L 53,50 L 51,48 L 50,48 L 49,47 L 49,44 L 47,42 L 47,41 L 45,39 L 45,38 L 44,37 L 44,36 L 43,35 L 43,34 L 42,34 L 41,33 L 41,32 L 39,30 L 39,29 L 37,27 L 37,25 L 36,24 L 36,23 Z" fill="black" /><path d="M 162,19 L 161,20 L 154,20 L 153,21 L 152,21 L 151,22 L 148,22 L 147,23 L 146,23 L 145,24 L 143,24 L 141,26 L 139,26 L 137,28 L 136,28 L 135,29 L 134,29 L 133,30 L 132,30 L 130,32 L 129,32 L 125,36 L 124,36 L 124,37 L 123,38 L 122,38 L 118,42 L 118,43 L 116,45 L 116,46 L 114,48 L 114,49 L 112,51 L 112,52 L 110,54 L 110,56 L 108,58 L 108,60 L 106,62 L 106,65 L 105,66 L 105,67 L 104,68 L 104,71 L 103,72 L 103,76 L 102,77 L 102,84 L 101,85 L 101,89 L 102,90 L 102,103 L 103,104 L 103,105 L 104,106 L 104,109 L 105,110 L 105,111 L 106,112 L 106,114 L 107,115 L 107,116 L 108,117 L 108,119 L 109,120 L 109,121 L 110,122 L 110,123 L 111,124 L 111,125 L 112,126 L 112,127 L 113,127 L 114,128 L 114,130 L 116,132 L 116,133 L 117,133 L 118,134 L 118,135 L 119,135 L 122,138 L 122,139 L 123,139 L 124,140 L 124,141 L 128,145 L 129,145 L 131,147 L 132,147 L 134,149 L 136,149 L 138,151 L 139,151 L 140,152 L 141,152 L 142,153 L 144,153 L 145,154 L 146,154 L 147,155 L 152,155 L 154,157 L 162,157 L 163,158 L 181,158 L 182,157 L 188,157 L 190,155 L 196,155 L 198,153 L 199,153 L 200,152 L 201,152 L 202,151 L 203,151 L 205,149 L 207,149 L 209,147 L 210,147 L 212,145 L 213,145 L 215,143 L 215,142 L 216,141 L 217,141 L 224,134 L 224,133 L 226,131 L 227,131 L 227,130 L 228,129 L 229,129 L 229,128 L 232,125 L 232,124 L 233,123 L 233,122 L 235,120 L 235,116 L 236,115 L 237,115 L 237,113 L 238,112 L 238,110 L 239,109 L 239,106 L 240,105 L 240,103 L 241,102 L 241,96 L 242,95 L 242,80 L 241,79 L 241,72 L 240,71 L 240,69 L 239,68 L 239,65 L 238,64 L 238,63 L 237,62 L 237,60 L 236,59 L 236,58 L 235,57 L 235,56 L 234,55 L 234,54 L 233,53 L 233,52 L 232,52 L 231,51 L 231,49 L 227,45 L 227,44 L 226,44 L 225,43 L 225,42 L 221,38 L 220,38 L 219,37 L 219,36 L 218,36 L 217,35 L 217,34 L 216,34 L 214,32 L 213,32 L 211,30 L 210,30 L 208,28 L 206,28 L 205,27 L 205,26 L 202,26 L 200,24 L 197,24 L 196,23 L 194,23 L 193,22 L 189,22 L 188,21 L 187,21 L 186,20 L 171,20 L 170,19 Z" fill="black" /></svg>