<?xml version='1.0' encoding='utf-8'?>
<svg width="265" height="220" xmlns="http://www.w3.org/2000/svg" viewBox="0 0 265 220"><rect width="265" height="220" fill="white" /><path d="M 218,61 L 217,62 L 194,62 L 193,63 L 190,63 L 189,64 L 185,64 L 184,65 L 182,65 L 181,66 L 178,66 L 177,67 L 176,67 L 175,68 L 173,68 L 171,70 L 170,70 L 170,71 L 169,72 L 168,72 L 168,73 L 165,76 L 165,77 L 162,80 L 162,83 L 161,84 L 161,85 L 160,86 L 160,88 L 159,89 L 159,90 L 158,91 L 158,95 L 156,97 L 156,99 L 155,100 L 155,103 L 154,104 L 154,108 L 153,109 L 153,111 L 152,112 L 152,113 L 151,114 L 151,115 L 150,116 L 150,118 L 148,120 L 148,121 L 147,122 L 147,123 L 146,124 L 146,125 L 141,130 L 141,131 L 137,135 L 136,135 L 133,138 L 132,138 L 130,140 L 128,140 L 127,141 L 126,141 L 125,142 L 124,142 L 123,143 L 122,143 L 121,144 L 118,144 L 118,145 L 117,146 L 113,146 L 112,147 L 103,147 L 102,148 L 99,148 L 98,147 L 93,147 L 92,146 L 87,146 L 86,145 L 85,145 L 84,144 L 82,144 L 81,143 L 80,143 L 79,142 L 78,142 L 76,140 L 75,140 L 73,138 L 72,138 L 71,137 L 71,136 L 70,136 L 65,131 L 65,130 L 63,128 L 63,127 L 61,125 L 61,124 L 60,123 L 60,122 L 59,121 L 59,120 L 57,118 L 57,117 L 55,115 L 55,113 L 54,112 L 54,110 L 53,109 L 53,100 L 52,99 L 52,96 L 53,95 L 53,93 L 52,92 L 53,91 L 53,78 L 54,77 L 54,75 L 53,74 L 49,74 L 48,75 L 48,89 L 47,90 L 47,99 L 46,100 L 46,102 L 47,103 L 47,104 L 48,105 L 48,113 L 49,114 L 49,115 L 50,116 L 50,121 L 51,122 L 51,123 L 52,124 L 52,125 L 53,126 L 53,127 L 54,128 L 54,129 L 56,131 L 56,133 L 58,135 L 59,135 L 62,138 L 62,139 L 64,141 L 65,141 L 67,143 L 68,143 L 70,145 L 71,145 L 72,146 L 73,146 L 74,147 L 77,147 L 78,148 L 78,149 L 80,149 L 82,151 L 85,151 L 86,152 L 89,152 L 90,153 L 99,153 L 100,152 L 101,153 L 103,153 L 104,152 L 105,153 L 109,153 L 110,152 L 111,152 L 112,151 L 116,151 L 117,150 L 118,150 L 119,149 L 121,149 L 122,148 L 123,148 L 124,149 L 126,147 L 128,147 L 130,145 L 131,145 L 132,144 L 133,144 L 134,143 L 135,143 L 137,141 L 138,141 L 140,139 L 141,139 L 145,135 L 145,134 L 146,133 L 147,133 L 147,132 L 150,129 L 150,128 L 153,125 L 153,123 L 155,121 L 155,120 L 157,118 L 157,116 L 159,114 L 159,111 L 160,110 L 160,108 L 161,107 L 161,99 L 162,98 L 162,96 L 163,95 L 163,94 L 164,93 L 164,92 L 165,91 L 165,88 L 166,87 L 167,87 L 167,84 L 168,83 L 169,83 L 169,81 L 171,79 L 171,78 L 172,77 L 173,77 L 173,76 L 176,73 L 177,73 L 178,72 L 179,72 L 180,71 L 182,71 L 184,69 L 191,69 L 192,68 L 195,68 L 196,67 L 213,67 L 214,66 L 228,66 L 229,67 L 233,67 L 234,66 L 237,66 L 238,65 L 239,65 L 239,64 L 240,63 L 238,61 Z" fill="black" /><path d="M 0,0 L 0,219 L 264,219 L 264,0 Z" fill="none" stroke="black" stroke-width="1" /></svg>