<?xml version='1.0' encoding='utf-8'?>
<svg width="262" height="216" xmlns="http://www.w3.org/2000/svg" viewBox="0 0 262 216"><rect width="262" height="216" fill="white" /><path d="M 140,52 L 139,53 L 135,53 L 134,54 L 127,54 L 126,55 L 122,55 L 121,56 L 116,56 L 115,57 L 113,57 L 112,58 L 109,58 L 108,59 L 106,59 L 105,60 L 101,60 L 100,61 L 99,61 L 98,62 L 95,62 L 94,63 L 93,63 L 92,64 L 90,64 L 88,66 L 86,66 L 85,67 L 84,67 L 83,68 L 81,68 L 78,71 L 77,71 L 76,72 L 75,72 L 75,73 L 74,74 L 73,74 L 72,75 L 71,75 L 68,78 L 67,78 L 67,79 L 66,80 L 65,80 L 65,81 L 58,88 L 58,89 L 57,90 L 57,93 L 56,94 L 55,94 L 55,95 L 54,96 L 54,97 L 53,98 L 53,99 L 52,100 L 52,102 L 51,103 L 51,105 L 50,106 L 49,106 L 49,111 L 48,112 L 48,113 L 47,114 L 47,119 L 46,120 L 46,123 L 45,124 L 45,138 L 46,139 L 46,143 L 47,144 L 47,145 L 48,146 L 48,147 L 49,148 L 49,153 L 51,155 L 51,157 L 52,158 L 52,159 L 53,160 L 53,161 L 54,161 L 56,163 L 56,164 L 59,167 L 59,168 L 63,172 L 64,172 L 65,173 L 67,173 L 71,177 L 73,177 L 75,179 L 78,179 L 79,180 L 79,181 L 80,181 L 82,183 L 84,183 L 86,185 L 88,185 L 89,186 L 89,187 L 92,187 L 93,188 L 94,188 L 95,189 L 97,189 L 98,190 L 100,190 L 101,191 L 104,191 L 105,192 L 106,192 L 107,191 L 108,191 L 109,192 L 109,193 L 111,193 L 112,192 L 113,193 L 115,193 L 116,194 L 123,194 L 124,195 L 138,195 L 139,194 L 142,194 L 143,193 L 156,193 L 157,192 L 158,192 L 159,191 L 164,191 L 165,190 L 166,190 L 167,189 L 171,189 L 173,187 L 175,187 L 175,186 L 176,185 L 180,185 L 180,184 L 181,183 L 182,183 L 185,180 L 187,180 L 188,179 L 191,179 L 193,177 L 194,177 L 197,174 L 198,174 L 199,173 L 200,173 L 201,172 L 202,172 L 204,170 L 205,170 L 206,169 L 206,165 L 207,164 L 209,164 L 210,163 L 212,163 L 216,159 L 216,156 L 217,155 L 218,155 L 218,153 L 219,152 L 220,152 L 222,150 L 222,148 L 223,147 L 223,146 L 224,145 L 224,140 L 225,139 L 225,137 L 226,136 L 226,118 L 225,117 L 225,116 L 224,115 L 224,112 L 222,110 L 222,109 L 221,108 L 221,106 L 220,105 L 220,104 L 218,102 L 218,101 L 217,100 L 215,100 L 214,99 L 214,98 L 213,97 L 213,96 L 212,96 L 210,94 L 209,94 L 208,93 L 208,92 L 206,90 L 204,90 L 202,88 L 199,88 L 198,87 L 197,87 L 196,86 L 194,86 L 192,84 L 189,84 L 188,83 L 183,83 L 182,82 L 171,82 L 170,83 L 160,83 L 159,84 L 145,84 L 144,85 L 141,85 L 140,86 L 132,86 L 131,87 L 126,87 L 125,88 L 119,88 L 118,89 L 117,88 L 108,88 L 107,89 L 106,89 L 106,92 L 108,94 L 120,94 L 121,93 L 130,93 L 131,92 L 133,92 L 134,91 L 142,91 L 143,90 L 146,90 L 147,89 L 159,89 L 161,87 L 162,87 L 163,88 L 170,88 L 171,87 L 184,87 L 185,88 L 186,88 L 187,89 L 192,89 L 193,90 L 194,90 L 195,91 L 196,91 L 197,92 L 198,92 L 199,93 L 200,93 L 202,95 L 203,95 L 205,97 L 206,97 L 215,106 L 215,108 L 216,109 L 216,110 L 217,111 L 217,112 L 218,113 L 218,116 L 219,117 L 219,138 L 218,139 L 218,141 L 217,142 L 217,145 L 216,146 L 216,147 L 215,148 L 215,149 L 214,150 L 214,151 L 211,154 L 211,155 L 210,156 L 209,156 L 209,157 L 208,158 L 207,158 L 207,159 L 204,162 L 203,162 L 203,163 L 202,164 L 201,164 L 201,165 L 200,166 L 199,166 L 197,168 L 196,168 L 194,170 L 193,170 L 191,172 L 190,172 L 188,174 L 187,174 L 185,176 L 183,176 L 181,178 L 178,178 L 177,179 L 176,179 L 175,180 L 173,180 L 172,181 L 171,181 L 169,183 L 168,183 L 167,184 L 164,184 L 163,185 L 162,185 L 161,186 L 158,186 L 157,187 L 154,187 L 153,188 L 147,188 L 146,189 L 139,189 L 138,190 L 123,190 L 122,189 L 121,189 L 120,190 L 119,190 L 118,189 L 117,189 L 116,188 L 111,188 L 110,187 L 109,187 L 108,186 L 102,186 L 101,185 L 98,185 L 97,184 L 93,184 L 89,180 L 87,180 L 86,179 L 85,179 L 82,176 L 80,176 L 78,174 L 77,174 L 75,172 L 73,172 L 71,170 L 69,170 L 68,169 L 68,167 L 67,167 L 66,166 L 65,166 L 64,165 L 64,164 L 63,163 L 62,163 L 60,161 L 60,160 L 59,159 L 59,158 L 58,158 L 55,155 L 55,150 L 52,147 L 52,140 L 51,139 L 51,138 L 50,137 L 50,134 L 51,133 L 51,132 L 50,131 L 50,128 L 51,127 L 51,126 L 50,125 L 50,124 L 51,123 L 52,123 L 52,116 L 54,114 L 54,109 L 56,107 L 56,106 L 57,105 L 57,104 L 58,103 L 58,102 L 59,101 L 59,100 L 60,99 L 60,95 L 64,91 L 64,90 L 65,89 L 66,89 L 66,88 L 69,85 L 69,84 L 74,79 L 75,79 L 75,78 L 76,77 L 78,77 L 82,73 L 84,73 L 85,72 L 86,72 L 87,71 L 88,71 L 90,69 L 92,69 L 93,68 L 94,68 L 95,67 L 98,67 L 99,66 L 100,66 L 101,65 L 104,65 L 105,64 L 106,64 L 107,63 L 112,63 L 113,62 L 116,62 L 117,61 L 120,61 L 121,60 L 127,60 L 128,59 L 136,59 L 137,58 L 140,58 L 141,57 L 146,57 L 147,58 L 149,58 L 151,56 L 147,52 Z" fill="black" /><path d="M 0,0 L 0,215 L 261,215 L 261,0 Z" fill="none" stroke="black" stroke-width="1" /></svg>