<?xml version='1.0' encoding='utf-8'?>
<svg width="254" height="219" xmlns="http://www.w3.org/2000/svg" viewBox="0 0 254 219"><rect width="254" height="219" fill="white" /><path d="M 83,28 L 82,29 L 81,29 L 79,31 L 79,33 L 78,34 L 77,34 L 77,38 L 75,40 L 75,41 L 73,43 L 73,45 L 71,47 L 71,49 L 70,50 L 70,51 L 68,53 L 68,54 L 67,55 L 67,57 L 65,59 L 65,60 L 64,61 L 64,62 L 63,63 L 63,65 L 61,67 L 61,70 L 60,71 L 60,72 L 59,73 L 59,74 L 58,75 L 57,75 L 57,77 L 56,78 L 56,79 L 55,80 L 55,81 L 53,83 L 53,86 L 52,87 L 51,87 L 51,88 L 50,89 L 50,90 L 49,91 L 49,94 L 48,95 L 48,96 L 47,97 L 47,98 L 46,99 L 46,100 L 45,101 L 45,102 L 44,103 L 44,106 L 43,107 L 43,112 L 42,113 L 42,114 L 43,115 L 43,119 L 45,121 L 45,122 L 47,124 L 47,125 L 48,126 L 49,126 L 51,128 L 52,128 L 53,129 L 54,129 L 55,130 L 62,130 L 63,131 L 68,131 L 69,130 L 74,130 L 75,129 L 76,129 L 77,128 L 80,128 L 82,126 L 84,126 L 84,125 L 85,124 L 86,124 L 88,122 L 89,122 L 91,120 L 92,120 L 92,119 L 93,118 L 94,118 L 97,115 L 98,115 L 99,114 L 100,114 L 102,112 L 102,111 L 103,110 L 105,110 L 107,108 L 108,108 L 108,107 L 109,106 L 111,106 L 111,105 L 115,101 L 116,101 L 117,100 L 118,100 L 119,99 L 120,99 L 121,98 L 123,98 L 124,97 L 125,97 L 126,96 L 132,96 L 133,97 L 133,98 L 134,99 L 134,104 L 133,105 L 133,106 L 132,107 L 132,108 L 131,109 L 131,111 L 130,112 L 130,116 L 131,117 L 131,118 L 130,119 L 130,120 L 132,122 L 133,122 L 135,124 L 136,124 L 137,125 L 138,125 L 139,126 L 145,126 L 146,125 L 147,125 L 148,124 L 150,124 L 150,123 L 151,122 L 153,122 L 155,120 L 156,120 L 158,118 L 159,118 L 161,116 L 162,116 L 163,115 L 164,115 L 164,114 L 169,109 L 170,109 L 172,107 L 172,106 L 174,104 L 174,103 L 175,102 L 176,102 L 180,98 L 180,97 L 181,96 L 182,96 L 182,95 L 185,92 L 186,92 L 186,91 L 189,88 L 189,87 L 190,86 L 190,85 L 191,84 L 193,84 L 194,83 L 194,82 L 196,80 L 196,79 L 200,75 L 200,74 L 201,73 L 202,73 L 202,71 L 203,70 L 205,70 L 207,68 L 208,68 L 208,66 L 211,63 L 212,63 L 217,58 L 219,58 L 221,56 L 222,56 L 224,54 L 227,54 L 228,53 L 232,53 L 235,56 L 235,60 L 236,61 L 236,63 L 235,64 L 235,67 L 233,69 L 233,74 L 232,75 L 232,76 L 231,77 L 231,79 L 229,81 L 229,84 L 228,85 L 228,86 L 227,87 L 227,89 L 225,91 L 225,92 L 223,94 L 223,95 L 221,97 L 221,99 L 219,101 L 219,104 L 218,105 L 218,106 L 216,108 L 216,109 L 215,110 L 215,111 L 214,112 L 214,113 L 213,114 L 213,116 L 211,118 L 211,120 L 209,122 L 209,124 L 207,126 L 207,128 L 206,129 L 206,130 L 205,131 L 205,132 L 204,133 L 203,133 L 203,136 L 202,137 L 202,138 L 201,139 L 201,140 L 200,141 L 200,142 L 199,143 L 199,144 L 197,146 L 197,147 L 196,148 L 196,149 L 195,150 L 195,151 L 193,153 L 193,154 L 191,156 L 191,158 L 190,159 L 190,160 L 189,161 L 189,162 L 188,163 L 188,164 L 187,165 L 187,166 L 186,167 L 185,167 L 185,169 L 183,171 L 183,173 L 181,175 L 181,177 L 179,179 L 179,184 L 184,184 L 186,182 L 186,181 L 187,180 L 187,179 L 188,178 L 188,177 L 189,176 L 190,176 L 190,174 L 192,172 L 192,171 L 193,170 L 193,169 L 194,168 L 194,167 L 195,166 L 196,166 L 196,162 L 198,160 L 198,159 L 200,157 L 200,155 L 202,153 L 202,151 L 203,150 L 203,149 L 206,146 L 206,143 L 207,142 L 207,141 L 208,140 L 208,139 L 210,137 L 210,135 L 211,134 L 212,134 L 212,132 L 213,131 L 213,130 L 214,129 L 214,128 L 215,127 L 215,126 L 216,125 L 216,123 L 217,122 L 217,121 L 220,118 L 220,115 L 222,113 L 222,111 L 224,109 L 224,107 L 225,106 L 226,106 L 226,103 L 227,102 L 228,102 L 228,98 L 230,96 L 230,95 L 233,92 L 233,91 L 234,90 L 234,87 L 235,86 L 235,85 L 236,84 L 236,82 L 237,81 L 237,79 L 238,78 L 238,76 L 240,74 L 240,70 L 241,69 L 241,67 L 242,66 L 242,54 L 240,52 L 240,51 L 239,51 L 238,50 L 238,49 L 236,47 L 233,47 L 232,46 L 230,46 L 229,47 L 227,47 L 226,48 L 225,48 L 224,49 L 222,49 L 220,51 L 217,51 L 217,52 L 216,53 L 215,53 L 213,55 L 212,55 L 210,57 L 209,57 L 207,59 L 206,59 L 201,64 L 201,65 L 193,73 L 193,74 L 192,75 L 191,75 L 191,76 L 190,77 L 189,77 L 189,78 L 185,82 L 185,83 L 179,89 L 179,90 L 176,93 L 175,93 L 175,94 L 168,101 L 168,102 L 166,104 L 165,104 L 162,107 L 161,107 L 161,108 L 158,111 L 157,111 L 155,113 L 154,113 L 152,115 L 151,115 L 151,116 L 150,117 L 149,117 L 147,119 L 146,119 L 145,120 L 142,120 L 138,116 L 138,115 L 137,114 L 137,113 L 138,112 L 138,109 L 139,108 L 139,107 L 140,106 L 140,102 L 142,100 L 142,99 L 140,97 L 140,96 L 138,94 L 138,93 L 137,93 L 136,92 L 135,92 L 134,91 L 124,91 L 123,92 L 121,92 L 120,93 L 118,93 L 116,95 L 114,95 L 112,97 L 111,97 L 109,99 L 108,99 L 104,103 L 103,103 L 103,104 L 102,105 L 101,105 L 97,109 L 96,109 L 94,111 L 93,111 L 93,112 L 92,113 L 90,113 L 88,115 L 87,115 L 83,119 L 82,119 L 80,121 L 79,121 L 77,123 L 76,123 L 75,124 L 73,124 L 72,125 L 57,125 L 56,124 L 56,123 L 54,123 L 53,122 L 52,122 L 50,120 L 50,117 L 49,116 L 49,112 L 50,111 L 50,107 L 51,106 L 51,105 L 52,104 L 52,101 L 53,100 L 53,99 L 54,98 L 54,97 L 55,96 L 55,94 L 56,93 L 56,91 L 57,90 L 58,90 L 58,89 L 59,88 L 59,87 L 60,86 L 60,85 L 62,83 L 62,81 L 63,80 L 63,79 L 64,78 L 64,76 L 65,75 L 65,73 L 66,72 L 66,71 L 68,69 L 68,67 L 69,66 L 70,66 L 70,65 L 72,63 L 72,61 L 74,59 L 74,57 L 75,56 L 76,56 L 76,55 L 77,54 L 77,52 L 78,51 L 78,49 L 79,48 L 80,48 L 80,46 L 82,44 L 82,42 L 84,40 L 84,39 L 87,36 L 87,32 L 88,31 L 88,29 L 87,29 L 86,28 Z" fill="black" /><path d="M 0,0 L 0,218 L 253,218 L 253,0 Z" fill="none" stroke="black" stroke-width="1" /></svg>