<?xml version='1.0' encoding='utf-8'?>
<svg width="261" height="221" xmlns="http://www.w3.org/2000/svg" viewBox="0 0 261 221"><rect width="261" height="221" fill="white" /><path d="M 24,56 L 23,57 L 23,59 L 25,61 L 25,62 L 28,65 L 28,66 L 31,69 L 31,70 L 34,73 L 34,74 L 40,80 L 41,80 L 42,81 L 42,82 L 43,82 L 49,88 L 51,88 L 52,89 L 53,89 L 56,92 L 57,92 L 59,94 L 61,94 L 62,95 L 63,95 L 64,96 L 67,96 L 68,97 L 71,97 L 72,98 L 83,98 L 84,99 L 86,99 L 87,100 L 92,100 L 93,99 L 97,99 L 98,98 L 104,98 L 105,97 L 106,97 L 107,96 L 109,96 L 110,95 L 111,95 L 112,94 L 114,94 L 116,92 L 118,92 L 120,90 L 122,90 L 124,88 L 126,88 L 128,86 L 130,86 L 132,84 L 133,84 L 134,83 L 135,83 L 136,82 L 138,82 L 140,80 L 141,80 L 142,79 L 144,79 L 145,78 L 147,78 L 149,76 L 151,76 L 152,75 L 153,75 L 154,74 L 156,74 L 158,72 L 169,72 L 173,76 L 173,81 L 174,82 L 174,85 L 173,86 L 173,90 L 172,91 L 172,93 L 171,94 L 171,96 L 170,97 L 170,98 L 169,99 L 169,100 L 168,101 L 168,102 L 166,104 L 166,108 L 167,109 L 169,109 L 170,108 L 171,108 L 173,106 L 175,106 L 177,104 L 182,104 L 183,103 L 186,103 L 187,102 L 204,102 L 205,103 L 206,103 L 207,104 L 214,104 L 217,107 L 217,108 L 220,111 L 220,113 L 222,115 L 222,119 L 221,120 L 221,126 L 220,127 L 220,129 L 218,131 L 218,133 L 216,135 L 216,136 L 215,137 L 214,137 L 214,138 L 213,139 L 213,140 L 212,141 L 212,142 L 207,147 L 206,147 L 204,149 L 204,150 L 198,156 L 198,157 L 195,160 L 194,160 L 194,161 L 193,162 L 192,162 L 191,163 L 190,163 L 190,164 L 189,165 L 188,165 L 188,166 L 187,167 L 186,167 L 186,168 L 185,169 L 184,169 L 184,170 L 181,173 L 180,173 L 178,175 L 178,176 L 175,179 L 174,179 L 170,183 L 170,184 L 167,187 L 166,187 L 164,189 L 164,190 L 163,191 L 162,191 L 162,192 L 157,197 L 156,197 L 156,198 L 155,199 L 154,199 L 154,200 L 153,201 L 152,201 L 150,203 L 150,207 L 151,208 L 155,208 L 159,204 L 159,203 L 164,198 L 165,198 L 173,190 L 173,189 L 176,186 L 177,186 L 177,185 L 178,184 L 179,184 L 179,183 L 182,180 L 183,180 L 183,179 L 186,176 L 187,176 L 193,170 L 194,170 L 198,166 L 199,166 L 199,165 L 200,164 L 201,164 L 201,163 L 211,153 L 211,152 L 215,148 L 215,147 L 216,146 L 217,146 L 217,145 L 219,143 L 219,142 L 221,140 L 221,139 L 223,137 L 223,135 L 224,134 L 224,133 L 225,132 L 225,131 L 226,130 L 226,129 L 227,128 L 227,122 L 228,121 L 228,119 L 227,118 L 227,111 L 225,109 L 225,107 L 223,105 L 222,105 L 221,104 L 221,103 L 220,103 L 219,102 L 219,101 L 217,99 L 215,99 L 214,98 L 213,98 L 212,97 L 204,97 L 203,96 L 199,96 L 198,95 L 190,95 L 189,96 L 186,96 L 185,97 L 178,97 L 177,96 L 177,92 L 178,91 L 178,89 L 179,88 L 179,75 L 178,74 L 178,72 L 177,71 L 176,71 L 174,69 L 172,69 L 171,68 L 170,68 L 169,67 L 161,67 L 160,68 L 159,68 L 158,69 L 152,69 L 150,71 L 147,71 L 145,73 L 144,73 L 143,74 L 142,74 L 141,75 L 139,75 L 137,77 L 135,77 L 133,79 L 130,79 L 128,81 L 126,81 L 125,82 L 124,82 L 123,83 L 122,83 L 121,84 L 120,84 L 119,85 L 116,85 L 115,86 L 114,86 L 113,87 L 110,87 L 109,88 L 107,88 L 106,89 L 103,89 L 102,90 L 101,90 L 100,91 L 95,91 L 94,92 L 92,92 L 91,93 L 73,93 L 72,92 L 71,92 L 70,91 L 69,91 L 68,90 L 66,90 L 65,89 L 62,89 L 60,87 L 58,87 L 56,85 L 55,85 L 53,83 L 53,82 L 52,82 L 51,81 L 49,81 L 47,79 L 46,79 L 45,78 L 45,77 L 44,77 L 41,74 L 41,73 L 40,72 L 40,71 L 39,70 L 39,69 L 38,69 L 37,68 L 37,67 L 31,61 L 31,59 L 29,57 L 29,56 Z" fill="black" /><path d="M 0,0 L 0,220 L 260,220 L 260,0 Z" fill="none" stroke="black" stroke-width="1" /></svg>