<?xml version='1.0' encoding='utf-8'?>
<svg width="265" height="217" xmlns="http://www.w3.org/2000/svg" viewBox="0 0 265 217"><rect width="265" height="217" fill="white" /><path d="M 143,15 L 142,16 L 137,16 L 136,17 L 125,17 L 124,18 L 123,18 L 122,19 L 119,19 L 117,21 L 116,21 L 114,23 L 113,23 L 110,26 L 109,26 L 106,29 L 106,30 L 105,31 L 105,32 L 103,34 L 103,36 L 102,37 L 102,38 L 101,39 L 101,40 L 100,41 L 100,42 L 99,43 L 99,45 L 100,46 L 100,50 L 101,51 L 101,54 L 103,56 L 103,57 L 108,62 L 109,62 L 111,64 L 113,64 L 115,66 L 117,66 L 118,67 L 124,67 L 125,66 L 136,66 L 137,67 L 142,67 L 143,68 L 144,68 L 145,69 L 147,69 L 148,70 L 150,70 L 151,71 L 152,71 L 153,72 L 154,72 L 155,73 L 156,73 L 157,74 L 159,74 L 161,76 L 162,76 L 164,78 L 166,78 L 167,79 L 167,80 L 168,80 L 169,81 L 170,81 L 173,84 L 174,84 L 175,85 L 175,86 L 178,89 L 178,90 L 179,90 L 181,92 L 181,93 L 185,97 L 185,98 L 186,99 L 186,101 L 187,102 L 187,108 L 188,109 L 188,126 L 187,127 L 187,132 L 186,133 L 186,134 L 185,135 L 185,138 L 184,139 L 184,140 L 183,141 L 183,142 L 182,143 L 182,144 L 181,145 L 181,146 L 180,147 L 179,147 L 179,148 L 177,150 L 177,151 L 175,153 L 174,153 L 172,155 L 171,155 L 169,157 L 168,157 L 166,159 L 165,159 L 164,160 L 163,160 L 162,161 L 157,161 L 156,162 L 155,162 L 154,163 L 137,163 L 136,162 L 136,161 L 135,160 L 134,160 L 133,159 L 129,159 L 126,156 L 126,155 L 125,154 L 125,153 L 124,152 L 124,151 L 123,150 L 123,149 L 122,148 L 122,143 L 121,142 L 121,141 L 120,140 L 120,139 L 119,138 L 119,132 L 120,131 L 120,130 L 118,128 L 118,126 L 120,124 L 120,121 L 119,120 L 119,118 L 118,117 L 118,113 L 117,112 L 117,109 L 111,109 L 111,113 L 110,114 L 110,122 L 111,123 L 111,128 L 112,129 L 112,135 L 113,136 L 113,146 L 115,148 L 115,152 L 117,154 L 117,156 L 118,156 L 119,157 L 119,159 L 121,161 L 121,162 L 122,162 L 124,164 L 125,164 L 127,166 L 129,166 L 131,168 L 137,168 L 138,169 L 142,169 L 143,170 L 154,170 L 155,169 L 156,169 L 157,168 L 160,168 L 161,167 L 162,167 L 163,166 L 165,166 L 166,165 L 167,165 L 168,164 L 170,164 L 171,163 L 172,163 L 173,162 L 174,162 L 174,161 L 175,160 L 176,160 L 176,159 L 177,158 L 178,158 L 182,154 L 182,153 L 183,152 L 184,152 L 186,150 L 186,149 L 188,147 L 188,145 L 190,143 L 190,141 L 192,139 L 192,135 L 193,134 L 193,131 L 194,130 L 194,118 L 195,117 L 195,111 L 194,110 L 194,105 L 192,103 L 192,97 L 191,96 L 191,95 L 188,92 L 188,91 L 186,89 L 186,88 L 185,88 L 184,87 L 183,87 L 180,84 L 180,82 L 179,82 L 178,81 L 177,81 L 176,80 L 176,79 L 175,79 L 174,78 L 172,78 L 171,77 L 171,76 L 170,75 L 169,75 L 168,74 L 168,73 L 167,73 L 166,72 L 165,72 L 164,71 L 163,71 L 162,70 L 161,70 L 160,69 L 159,69 L 156,66 L 154,66 L 153,65 L 151,65 L 149,63 L 145,63 L 144,62 L 143,62 L 142,61 L 131,61 L 130,62 L 128,62 L 127,61 L 126,61 L 125,62 L 120,62 L 118,60 L 117,60 L 116,59 L 115,59 L 114,58 L 114,57 L 112,57 L 108,53 L 108,38 L 110,36 L 110,35 L 111,34 L 111,33 L 112,32 L 112,31 L 114,29 L 115,29 L 116,28 L 116,27 L 117,26 L 118,26 L 119,25 L 120,25 L 121,24 L 123,24 L 125,22 L 135,22 L 136,21 L 142,21 L 143,20 L 154,20 L 155,21 L 158,21 L 159,22 L 165,22 L 166,23 L 167,23 L 168,24 L 171,24 L 173,26 L 175,26 L 177,28 L 178,28 L 179,29 L 180,29 L 181,30 L 182,30 L 183,31 L 184,31 L 185,32 L 186,32 L 188,34 L 189,34 L 191,36 L 192,36 L 193,37 L 193,38 L 194,38 L 196,40 L 197,40 L 199,42 L 200,42 L 201,43 L 201,44 L 202,44 L 203,45 L 203,46 L 204,46 L 207,49 L 207,50 L 212,55 L 212,56 L 217,61 L 217,62 L 218,62 L 221,65 L 221,66 L 223,68 L 223,69 L 225,71 L 225,72 L 227,74 L 227,76 L 228,76 L 229,77 L 229,79 L 231,81 L 231,82 L 232,83 L 232,84 L 233,85 L 233,86 L 234,87 L 234,88 L 235,89 L 235,91 L 236,92 L 236,93 L 237,94 L 237,98 L 238,99 L 238,104 L 239,105 L 239,110 L 240,111 L 240,120 L 239,121 L 239,128 L 238,129 L 238,130 L 237,131 L 237,135 L 235,137 L 235,140 L 233,142 L 233,146 L 231,148 L 231,149 L 229,151 L 229,152 L 228,153 L 228,154 L 227,155 L 227,158 L 223,162 L 223,163 L 221,165 L 221,166 L 219,168 L 219,169 L 217,171 L 217,172 L 216,173 L 215,173 L 214,174 L 214,175 L 213,176 L 213,177 L 210,180 L 209,180 L 208,181 L 207,181 L 203,185 L 201,185 L 199,187 L 197,187 L 195,189 L 193,189 L 192,190 L 191,190 L 190,191 L 188,191 L 187,192 L 185,192 L 184,193 L 178,193 L 177,194 L 173,194 L 172,195 L 171,195 L 170,194 L 169,194 L 168,195 L 121,195 L 120,194 L 111,194 L 110,193 L 109,193 L 108,194 L 104,194 L 103,193 L 99,193 L 98,192 L 95,192 L 94,191 L 89,191 L 88,190 L 85,190 L 84,189 L 82,189 L 80,187 L 77,187 L 75,185 L 74,185 L 72,183 L 71,183 L 69,181 L 67,181 L 66,180 L 65,180 L 64,179 L 62,179 L 58,175 L 57,175 L 56,174 L 56,173 L 55,172 L 55,171 L 54,170 L 53,170 L 52,169 L 51,169 L 50,168 L 50,167 L 49,167 L 46,164 L 46,162 L 44,160 L 44,159 L 43,158 L 43,157 L 42,156 L 42,153 L 40,151 L 40,150 L 39,149 L 39,147 L 38,146 L 38,143 L 37,142 L 37,141 L 36,140 L 36,123 L 38,121 L 38,118 L 40,116 L 40,115 L 41,114 L 41,113 L 42,112 L 42,111 L 43,110 L 44,110 L 46,108 L 47,108 L 49,106 L 50,106 L 50,105 L 51,104 L 52,104 L 53,103 L 54,103 L 55,102 L 58,102 L 59,101 L 60,101 L 61,100 L 64,100 L 66,98 L 70,98 L 72,96 L 82,96 L 83,95 L 89,95 L 90,94 L 124,94 L 125,95 L 128,95 L 129,96 L 133,96 L 134,95 L 135,95 L 136,96 L 146,96 L 147,97 L 152,97 L 153,96 L 154,96 L 154,95 L 155,94 L 152,91 L 149,91 L 148,92 L 147,92 L 146,91 L 137,91 L 136,90 L 135,91 L 132,91 L 131,90 L 126,90 L 125,89 L 121,89 L 120,90 L 119,90 L 118,89 L 87,89 L 86,90 L 81,90 L 80,91 L 71,91 L 70,92 L 67,92 L 66,93 L 62,93 L 61,94 L 60,94 L 59,95 L 56,95 L 54,97 L 53,97 L 51,99 L 48,99 L 46,101 L 45,101 L 42,104 L 41,104 L 37,108 L 37,109 L 35,111 L 35,112 L 34,113 L 33,113 L 33,115 L 31,117 L 31,120 L 30,121 L 30,123 L 29,124 L 29,140 L 30,141 L 30,142 L 31,143 L 31,146 L 32,147 L 32,149 L 33,150 L 33,154 L 35,156 L 35,159 L 37,161 L 37,164 L 38,164 L 39,165 L 39,166 L 49,176 L 49,177 L 50,177 L 53,180 L 54,180 L 55,181 L 55,182 L 56,182 L 58,184 L 59,184 L 60,185 L 61,185 L 62,186 L 63,186 L 65,188 L 67,188 L 69,190 L 71,190 L 73,192 L 75,192 L 77,194 L 79,194 L 80,195 L 81,195 L 82,196 L 85,196 L 86,197 L 87,197 L 88,198 L 97,198 L 98,199 L 100,199 L 101,200 L 103,200 L 104,199 L 105,200 L 120,200 L 121,201 L 130,201 L 131,202 L 135,202 L 136,201 L 156,201 L 157,200 L 159,200 L 160,201 L 161,201 L 162,200 L 177,200 L 178,199 L 184,199 L 185,198 L 190,198 L 191,197 L 192,197 L 193,196 L 194,196 L 195,195 L 196,195 L 197,194 L 198,194 L 199,193 L 200,193 L 201,192 L 202,192 L 204,190 L 205,190 L 207,188 L 208,188 L 209,187 L 210,187 L 213,184 L 214,184 L 216,182 L 217,182 L 218,181 L 218,180 L 220,178 L 220,177 L 221,176 L 222,176 L 222,175 L 224,173 L 224,172 L 226,170 L 227,170 L 227,169 L 228,168 L 228,167 L 231,164 L 231,162 L 232,161 L 232,160 L 234,158 L 234,157 L 235,156 L 235,155 L 236,154 L 236,153 L 237,152 L 237,151 L 238,150 L 238,148 L 240,146 L 240,144 L 241,143 L 241,141 L 242,140 L 242,139 L 243,138 L 243,136 L 244,135 L 244,132 L 245,131 L 245,130 L 244,129 L 245,128 L 245,127 L 246,126 L 246,104 L 245,103 L 245,101 L 244,100 L 244,93 L 243,92 L 243,91 L 242,90 L 242,87 L 241,87 L 240,86 L 240,85 L 239,84 L 239,83 L 238,82 L 238,80 L 234,76 L 234,73 L 233,73 L 232,72 L 232,70 L 230,68 L 230,67 L 229,67 L 228,66 L 228,65 L 227,64 L 227,63 L 226,62 L 226,61 L 224,59 L 222,59 L 220,57 L 220,55 L 218,53 L 217,53 L 214,50 L 214,47 L 213,47 L 212,46 L 211,46 L 209,44 L 209,43 L 208,42 L 207,42 L 206,41 L 205,41 L 204,40 L 204,39 L 203,39 L 202,38 L 202,37 L 201,37 L 197,33 L 193,33 L 192,32 L 192,31 L 190,29 L 189,29 L 186,26 L 185,26 L 184,25 L 183,25 L 181,23 L 177,23 L 175,21 L 173,21 L 172,20 L 170,20 L 169,19 L 167,19 L 165,17 L 158,17 L 157,16 L 155,16 L 154,15 L 152,15 L 151,16 L 150,15 Z" fill="black" /><path d="M 0,0 L 0,216 L 264,216 L 264,0 Z" fill="none" stroke="black" stroke-width="1" /></svg>