<?xml version='1.0' encoding='utf-8'?>
<svg width="254" height="214" xmlns="http://www.w3.org/2000/svg" viewBox="0 0 254 214"><rect width="254" height="214" fill="white" /><path d="M 103,26 L 102,27 L 100,27 L 99,28 L 97,28 L 96,29 L 95,29 L 94,30 L 93,30 L 92,31 L 91,31 L 90,32 L 89,32 L 87,34 L 86,34 L 86,35 L 83,38 L 83,40 L 81,42 L 81,43 L 80,44 L 80,45 L 79,46 L 79,55 L 80,56 L 80,57 L 81,58 L 81,60 L 83,62 L 83,65 L 85,67 L 85,68 L 87,70 L 87,71 L 94,78 L 94,79 L 96,81 L 97,81 L 98,82 L 98,83 L 111,96 L 111,97 L 112,97 L 113,98 L 113,99 L 119,105 L 119,106 L 120,106 L 127,113 L 131,113 L 132,112 L 133,112 L 135,110 L 132,107 L 132,106 L 131,106 L 127,102 L 126,102 L 125,101 L 125,100 L 124,99 L 124,98 L 120,94 L 119,94 L 116,91 L 116,90 L 112,86 L 111,86 L 106,81 L 106,80 L 104,78 L 103,78 L 102,77 L 102,76 L 96,70 L 96,69 L 94,67 L 94,66 L 90,62 L 90,60 L 89,59 L 89,58 L 88,57 L 88,52 L 87,51 L 87,50 L 88,49 L 88,42 L 89,41 L 92,41 L 92,38 L 93,37 L 94,37 L 97,34 L 98,34 L 99,33 L 100,33 L 101,32 L 104,32 L 105,31 L 106,31 L 107,32 L 110,32 L 111,31 L 112,31 L 113,32 L 116,32 L 117,33 L 121,33 L 122,34 L 124,34 L 125,35 L 127,35 L 128,36 L 130,36 L 131,37 L 132,37 L 133,38 L 134,38 L 135,39 L 137,39 L 139,41 L 140,41 L 141,42 L 141,43 L 142,43 L 143,44 L 144,44 L 145,45 L 146,45 L 147,46 L 147,47 L 148,47 L 152,51 L 153,51 L 159,57 L 160,57 L 161,58 L 161,59 L 162,59 L 169,66 L 170,66 L 171,67 L 172,67 L 175,70 L 175,71 L 176,71 L 177,72 L 177,73 L 178,73 L 179,74 L 179,75 L 180,75 L 181,76 L 181,77 L 182,77 L 185,80 L 185,81 L 186,82 L 186,83 L 191,88 L 191,90 L 193,92 L 193,94 L 195,96 L 195,99 L 197,101 L 197,104 L 198,105 L 198,107 L 199,108 L 199,109 L 198,110 L 198,113 L 197,114 L 197,117 L 195,119 L 195,120 L 192,123 L 191,123 L 191,124 L 189,126 L 184,126 L 183,127 L 179,127 L 178,128 L 172,128 L 171,129 L 169,129 L 168,130 L 167,130 L 166,131 L 165,131 L 162,134 L 161,134 L 159,136 L 158,136 L 158,137 L 157,138 L 157,139 L 155,141 L 155,143 L 154,144 L 154,145 L 153,146 L 153,155 L 154,156 L 154,157 L 153,158 L 153,159 L 154,160 L 154,165 L 153,166 L 153,174 L 152,175 L 152,176 L 151,177 L 151,179 L 146,184 L 146,185 L 141,190 L 140,190 L 138,192 L 137,192 L 135,194 L 131,194 L 130,195 L 125,195 L 124,194 L 120,194 L 119,193 L 118,193 L 117,192 L 115,192 L 114,191 L 113,191 L 112,190 L 111,190 L 109,188 L 107,188 L 106,187 L 106,186 L 105,186 L 104,185 L 103,185 L 102,184 L 101,184 L 100,183 L 100,182 L 99,182 L 98,181 L 97,181 L 96,180 L 95,180 L 94,179 L 94,178 L 93,178 L 91,176 L 90,176 L 84,170 L 84,169 L 83,168 L 81,168 L 80,167 L 80,166 L 78,164 L 77,164 L 76,163 L 76,161 L 75,161 L 74,160 L 73,160 L 72,159 L 72,158 L 71,157 L 71,156 L 69,154 L 68,154 L 66,152 L 65,152 L 60,147 L 60,144 L 58,142 L 57,142 L 56,141 L 56,140 L 55,140 L 52,137 L 52,135 L 50,133 L 50,132 L 49,132 L 44,127 L 44,126 L 43,126 L 42,125 L 42,124 L 40,122 L 40,121 L 38,119 L 38,116 L 36,114 L 36,112 L 35,111 L 35,110 L 34,109 L 34,106 L 32,104 L 32,100 L 31,99 L 31,98 L 32,97 L 32,92 L 33,91 L 33,90 L 34,89 L 34,88 L 39,83 L 42,83 L 43,82 L 53,82 L 54,83 L 57,83 L 59,85 L 61,85 L 62,86 L 63,86 L 64,87 L 65,87 L 67,89 L 68,89 L 70,91 L 71,91 L 73,93 L 74,93 L 75,94 L 75,95 L 76,95 L 77,96 L 78,96 L 81,99 L 82,99 L 83,100 L 83,101 L 84,101 L 85,102 L 85,103 L 86,103 L 89,106 L 89,107 L 90,107 L 95,112 L 96,112 L 97,113 L 97,114 L 98,115 L 99,115 L 105,121 L 105,122 L 107,124 L 107,125 L 109,127 L 109,129 L 111,131 L 112,131 L 114,133 L 117,133 L 118,132 L 119,132 L 121,130 L 118,127 L 118,126 L 117,125 L 117,124 L 115,124 L 112,121 L 112,120 L 110,118 L 110,116 L 109,116 L 106,113 L 106,112 L 105,112 L 104,111 L 104,110 L 103,110 L 101,108 L 100,108 L 99,107 L 99,106 L 98,105 L 98,104 L 97,104 L 95,102 L 94,102 L 93,101 L 93,100 L 92,99 L 91,99 L 90,98 L 89,98 L 88,97 L 88,96 L 87,96 L 84,93 L 84,92 L 83,92 L 82,91 L 81,91 L 78,88 L 76,88 L 74,86 L 73,86 L 72,85 L 72,84 L 69,84 L 67,82 L 66,82 L 64,80 L 62,80 L 61,79 L 60,79 L 59,78 L 57,78 L 55,76 L 41,76 L 40,77 L 39,77 L 38,78 L 37,78 L 35,80 L 34,80 L 32,82 L 31,82 L 31,83 L 30,84 L 29,84 L 29,85 L 27,87 L 27,89 L 26,90 L 26,91 L 25,92 L 25,108 L 26,109 L 26,110 L 27,111 L 27,113 L 28,114 L 28,115 L 29,116 L 29,117 L 31,119 L 31,120 L 33,122 L 33,123 L 35,125 L 35,126 L 37,128 L 37,129 L 38,129 L 39,130 L 39,131 L 43,135 L 43,136 L 47,140 L 47,141 L 48,141 L 49,142 L 49,143 L 52,146 L 52,147 L 55,150 L 55,151 L 56,151 L 57,152 L 57,153 L 58,153 L 59,154 L 59,155 L 66,162 L 66,163 L 68,165 L 69,165 L 75,171 L 75,172 L 76,172 L 83,179 L 84,179 L 87,182 L 87,183 L 88,183 L 92,187 L 93,187 L 95,189 L 97,189 L 99,191 L 100,191 L 102,193 L 104,193 L 105,194 L 106,194 L 107,195 L 108,195 L 109,196 L 110,196 L 111,197 L 114,197 L 116,199 L 118,199 L 119,200 L 122,200 L 123,201 L 133,201 L 135,199 L 138,199 L 139,198 L 140,198 L 141,197 L 142,197 L 143,196 L 144,196 L 149,191 L 150,191 L 150,190 L 153,187 L 154,187 L 156,185 L 156,184 L 158,182 L 158,181 L 161,178 L 161,176 L 162,175 L 162,171 L 163,170 L 163,162 L 162,161 L 163,160 L 163,156 L 162,155 L 162,149 L 163,148 L 163,147 L 164,146 L 164,145 L 165,144 L 165,143 L 169,139 L 170,139 L 170,138 L 171,137 L 172,137 L 173,136 L 174,136 L 175,135 L 179,135 L 180,134 L 181,134 L 182,133 L 185,133 L 186,132 L 189,132 L 190,131 L 192,131 L 192,130 L 193,129 L 196,129 L 198,127 L 198,126 L 201,123 L 202,123 L 202,121 L 204,119 L 204,118 L 205,117 L 205,116 L 206,115 L 206,108 L 207,107 L 207,106 L 206,105 L 206,104 L 205,103 L 205,101 L 204,100 L 204,96 L 203,95 L 203,94 L 202,93 L 202,92 L 201,91 L 201,90 L 200,89 L 200,88 L 198,86 L 198,84 L 197,84 L 196,83 L 196,81 L 195,81 L 194,80 L 194,79 L 188,73 L 188,72 L 187,72 L 185,70 L 184,70 L 182,68 L 182,67 L 181,66 L 180,66 L 173,59 L 173,58 L 172,58 L 166,52 L 165,52 L 164,51 L 164,50 L 163,50 L 161,48 L 160,48 L 158,46 L 156,46 L 154,44 L 154,43 L 153,42 L 152,42 L 150,40 L 149,40 L 148,39 L 146,39 L 145,38 L 144,38 L 142,36 L 140,36 L 136,32 L 134,32 L 132,30 L 127,30 L 126,29 L 125,29 L 124,28 L 119,28 L 118,27 L 117,27 L 116,26 Z" fill="black" /><path d="M 0,0 L 0,213 L 253,213 L 253,0 Z" fill="none" stroke="black" stroke-width="1" /></svg>