<?xml version='1.0' encoding='utf-8'?>
<svg width="260" height="219" xmlns="http://www.w3.org/2000/svg" viewBox="0 0 260 219"><rect width="260" height="219" fill="white" /><path d="M 114,103 L 113,104 L 110,104 L 109,105 L 102,105 L 101,106 L 100,106 L 99,107 L 96,107 L 95,108 L 93,108 L 92,109 L 87,109 L 85,111 L 81,111 L 79,113 L 77,113 L 75,115 L 73,115 L 71,117 L 70,117 L 69,118 L 68,118 L 67,119 L 66,119 L 64,121 L 62,121 L 62,122 L 61,123 L 60,123 L 59,124 L 58,124 L 58,125 L 56,127 L 56,128 L 54,130 L 54,132 L 53,133 L 53,136 L 52,137 L 52,139 L 58,145 L 58,146 L 60,148 L 61,148 L 62,149 L 63,149 L 64,150 L 65,150 L 66,151 L 66,152 L 67,152 L 69,154 L 71,154 L 73,156 L 74,156 L 76,158 L 79,158 L 80,159 L 81,159 L 82,160 L 85,160 L 87,162 L 89,162 L 90,163 L 91,163 L 92,164 L 96,164 L 97,165 L 98,165 L 99,166 L 105,166 L 106,167 L 109,167 L 110,168 L 119,168 L 120,169 L 129,169 L 130,168 L 131,168 L 132,169 L 133,169 L 134,168 L 146,168 L 147,167 L 148,167 L 149,168 L 151,166 L 156,166 L 157,165 L 158,165 L 159,164 L 163,164 L 164,163 L 165,163 L 166,162 L 171,162 L 173,160 L 175,160 L 177,158 L 179,158 L 180,157 L 181,157 L 182,156 L 183,156 L 185,154 L 187,154 L 187,153 L 188,152 L 189,152 L 190,151 L 191,151 L 192,150 L 193,150 L 193,149 L 194,148 L 195,148 L 197,146 L 197,145 L 198,144 L 199,144 L 199,143 L 200,142 L 200,141 L 201,140 L 201,137 L 202,136 L 202,133 L 201,132 L 201,128 L 200,127 L 199,127 L 193,121 L 192,121 L 191,120 L 191,119 L 190,119 L 189,118 L 188,118 L 187,117 L 185,117 L 183,115 L 181,115 L 179,113 L 178,113 L 177,112 L 175,112 L 174,111 L 172,111 L 171,110 L 170,110 L 169,109 L 166,109 L 165,108 L 164,108 L 163,107 L 160,107 L 159,106 L 158,106 L 157,105 L 148,105 L 147,104 L 144,104 L 143,103 Z" fill="black" /><path d="M 196,51 L 195,52 L 195,56 L 196,57 L 196,60 L 198,62 L 198,65 L 199,66 L 199,67 L 200,68 L 200,70 L 201,71 L 201,73 L 202,74 L 202,76 L 203,77 L 203,78 L 204,79 L 204,84 L 206,86 L 206,89 L 207,90 L 207,91 L 208,92 L 208,96 L 210,98 L 210,100 L 211,101 L 211,103 L 212,104 L 212,107 L 213,108 L 213,109 L 214,110 L 214,113 L 215,114 L 215,115 L 216,116 L 216,119 L 217,120 L 217,122 L 218,123 L 218,124 L 219,125 L 219,127 L 220,128 L 220,132 L 221,133 L 221,134 L 222,135 L 222,137 L 223,138 L 223,140 L 224,141 L 224,146 L 228,146 L 229,145 L 229,139 L 230,138 L 230,137 L 231,136 L 231,131 L 232,130 L 232,127 L 233,126 L 233,125 L 235,123 L 235,119 L 236,118 L 236,117 L 237,116 L 237,113 L 238,112 L 238,111 L 239,110 L 239,105 L 241,103 L 241,101 L 242,100 L 242,98 L 243,97 L 243,93 L 244,92 L 245,92 L 245,87 L 246,86 L 246,85 L 247,84 L 247,81 L 248,80 L 248,78 L 249,77 L 249,74 L 250,73 L 250,71 L 251,70 L 251,68 L 253,66 L 253,60 L 255,58 L 255,56 L 256,55 L 256,52 L 255,52 L 254,51 L 252,51 L 251,52 L 234,52 L 233,51 L 232,52 L 223,52 L 222,51 L 221,51 L 220,52 L 213,52 L 212,51 L 210,51 L 209,52 L 207,52 L 206,53 L 205,52 L 198,52 L 197,51 Z" fill="black" /><path d="M 82,23 L 82,29 L 83,30 L 83,31 L 84,32 L 84,36 L 83,37 L 83,46 L 84,47 L 84,50 L 83,51 L 83,52 L 84,53 L 84,74 L 85,75 L 90,75 L 91,74 L 179,74 L 179,71 L 180,70 L 179,69 L 179,51 L 178,50 L 178,43 L 179,42 L 179,35 L 178,34 L 178,26 L 180,24 L 179,23 Z" fill="black" /><path d="M 0,0 L 0,218 L 259,218 L 259,0 Z" fill="none" stroke="black" stroke-width="1" /></svg>