<?xml version='1.0' encoding='utf-8'?>
<svg width="258" height="215" xmlns="http://www.w3.org/2000/svg" viewBox="0 0 258 215"><rect width="258" height="215" fill="white" /><path d="M 105,120 L 104,121 L 104,127 L 103,128 L 103,129 L 102,130 L 102,131 L 103,132 L 103,133 L 102,134 L 102,151 L 101,152 L 101,158 L 100,159 L 100,167 L 97,170 L 98,171 L 102,171 L 103,172 L 105,172 L 106,173 L 109,173 L 110,172 L 111,172 L 112,173 L 120,173 L 121,174 L 122,174 L 123,173 L 124,173 L 125,174 L 130,174 L 131,175 L 140,175 L 141,176 L 149,176 L 150,177 L 159,177 L 160,178 L 166,178 L 167,179 L 178,179 L 179,180 L 183,180 L 184,181 L 194,181 L 195,180 L 195,173 L 196,172 L 196,166 L 197,165 L 197,155 L 198,154 L 198,150 L 199,149 L 199,134 L 198,133 L 198,132 L 197,131 L 196,131 L 195,130 L 180,130 L 179,129 L 174,129 L 173,128 L 163,128 L 162,127 L 154,127 L 153,126 L 141,126 L 140,125 L 137,125 L 136,124 L 124,124 L 123,123 L 121,123 L 120,122 L 108,122 L 106,120 Z" fill="black" /><path d="M 44,73 L 43,74 L 40,74 L 36,78 L 35,78 L 27,86 L 27,87 L 26,88 L 26,89 L 25,90 L 24,90 L 24,91 L 23,92 L 23,93 L 22,94 L 22,95 L 21,96 L 21,97 L 20,98 L 20,99 L 19,100 L 19,101 L 18,102 L 18,104 L 17,105 L 17,108 L 16,109 L 16,120 L 15,121 L 15,123 L 16,124 L 16,133 L 17,134 L 17,135 L 18,136 L 18,139 L 19,140 L 19,141 L 20,142 L 20,143 L 21,144 L 21,145 L 22,146 L 22,147 L 23,147 L 24,148 L 24,151 L 25,151 L 26,152 L 26,155 L 27,155 L 29,157 L 31,157 L 32,158 L 34,158 L 35,159 L 40,159 L 42,157 L 43,157 L 43,156 L 44,155 L 47,155 L 51,151 L 51,148 L 52,147 L 53,147 L 55,145 L 55,144 L 56,143 L 57,143 L 57,141 L 59,139 L 59,137 L 61,135 L 61,134 L 62,133 L 62,132 L 63,131 L 63,129 L 65,127 L 65,125 L 66,124 L 66,122 L 67,121 L 67,105 L 68,104 L 67,103 L 67,98 L 65,96 L 65,93 L 64,92 L 64,89 L 63,88 L 63,86 L 62,86 L 61,85 L 61,82 L 59,80 L 59,79 L 55,75 L 54,75 L 53,74 L 52,74 L 51,73 Z" fill="black" /><path d="M 208,27 L 207,28 L 204,28 L 203,29 L 201,29 L 200,30 L 197,30 L 196,31 L 195,31 L 194,32 L 190,32 L 189,33 L 186,33 L 185,34 L 184,34 L 183,35 L 180,35 L 179,36 L 174,36 L 173,37 L 172,37 L 171,38 L 168,38 L 167,39 L 165,39 L 164,40 L 161,40 L 160,41 L 158,41 L 157,42 L 154,42 L 153,43 L 152,43 L 151,44 L 146,44 L 145,45 L 144,45 L 143,46 L 140,46 L 139,47 L 136,47 L 135,48 L 132,48 L 131,49 L 130,49 L 129,50 L 125,50 L 124,51 L 122,51 L 121,52 L 118,52 L 117,53 L 116,53 L 115,54 L 114,54 L 113,55 L 111,55 L 111,56 L 110,57 L 111,58 L 111,59 L 114,59 L 116,61 L 119,61 L 121,63 L 124,63 L 125,64 L 126,64 L 127,65 L 130,65 L 132,67 L 135,67 L 136,68 L 137,68 L 138,69 L 141,69 L 142,70 L 143,70 L 144,71 L 146,71 L 148,73 L 151,73 L 152,74 L 153,74 L 154,75 L 158,75 L 160,77 L 163,77 L 164,78 L 165,78 L 166,79 L 168,79 L 169,80 L 171,80 L 172,81 L 175,81 L 177,83 L 181,83 L 182,84 L 183,84 L 184,85 L 186,85 L 188,87 L 191,87 L 192,88 L 193,88 L 194,89 L 196,89 L 197,90 L 198,90 L 199,91 L 201,91 L 203,93 L 205,93 L 206,94 L 211,94 L 212,93 L 212,92 L 213,91 L 213,52 L 214,51 L 214,36 L 215,35 L 215,28 L 213,28 L 212,27 Z" fill="black" /><path d="M 0,0 L 0,214 L 257,214 L 257,0 Z" fill="none" stroke="black" stroke-width="1" /></svg>