<?xml version='1.0' encoding='utf-8'?>
<svg width="252" height="219" xmlns="http://www.w3.org/2000/svg" viewBox="0 0 252 219"><rect width="252" height="219" fill="white" /><path d="M 191,83 L 190,84 L 190,101 L 191,102 L 191,104 L 190,105 L 190,114 L 191,115 L 191,128 L 190,129 L 191,130 L 191,132 L 192,133 L 192,180 L 205,180 L 206,181 L 207,181 L 208,180 L 217,180 L 218,181 L 219,180 L 235,180 L 236,181 L 238,181 L 240,179 L 240,153 L 239,152 L 239,85 L 237,83 L 210,83 L 209,84 L 203,84 L 202,83 L 200,83 L 199,84 L 198,84 L 197,83 Z" fill="black" /><path d="M 121,51 L 120,52 L 119,52 L 118,53 L 116,53 L 114,55 L 114,56 L 113,57 L 112,57 L 112,58 L 111,59 L 111,60 L 110,61 L 110,62 L 109,63 L 109,64 L 108,65 L 108,66 L 106,68 L 106,70 L 105,71 L 104,71 L 104,72 L 103,73 L 103,74 L 102,75 L 102,78 L 101,79 L 101,81 L 100,82 L 100,84 L 98,86 L 98,89 L 96,91 L 96,95 L 95,96 L 95,97 L 94,98 L 94,104 L 93,105 L 93,108 L 92,109 L 92,115 L 91,116 L 91,128 L 92,129 L 92,144 L 93,145 L 93,149 L 94,150 L 94,154 L 95,155 L 95,158 L 96,159 L 96,161 L 98,163 L 98,167 L 99,168 L 99,170 L 100,171 L 100,174 L 101,175 L 101,176 L 102,177 L 102,178 L 103,179 L 103,180 L 104,181 L 104,183 L 106,185 L 106,186 L 109,189 L 109,190 L 111,192 L 112,192 L 114,194 L 115,194 L 117,196 L 121,196 L 122,197 L 123,197 L 124,196 L 127,196 L 128,195 L 129,195 L 132,192 L 133,192 L 135,190 L 135,189 L 137,187 L 137,186 L 140,183 L 140,182 L 141,181 L 141,178 L 145,174 L 145,170 L 146,169 L 146,168 L 147,167 L 147,161 L 148,160 L 149,160 L 150,159 L 150,157 L 151,156 L 151,151 L 153,149 L 153,142 L 154,141 L 154,139 L 155,138 L 155,108 L 154,107 L 154,103 L 153,102 L 153,95 L 152,94 L 152,92 L 151,91 L 151,86 L 150,85 L 150,84 L 149,83 L 149,81 L 147,79 L 147,75 L 146,74 L 146,73 L 145,72 L 145,71 L 144,71 L 143,70 L 143,67 L 141,65 L 141,64 L 139,62 L 139,61 L 138,61 L 137,60 L 137,58 L 134,55 L 133,55 L 131,53 L 129,53 L 128,52 L 125,52 L 124,51 Z" fill="black" /><path d="M 35,33 L 35,38 L 36,39 L 36,56 L 35,57 L 35,63 L 36,64 L 36,66 L 35,67 L 35,80 L 34,81 L 34,90 L 35,91 L 35,93 L 34,94 L 34,102 L 35,103 L 35,104 L 34,105 L 34,117 L 35,118 L 34,119 L 34,132 L 35,133 L 38,130 L 39,130 L 39,129 L 40,128 L 41,128 L 41,127 L 45,123 L 45,121 L 46,120 L 47,120 L 49,118 L 49,116 L 55,110 L 55,109 L 59,105 L 59,104 L 61,102 L 62,102 L 62,101 L 63,100 L 63,99 L 67,95 L 67,94 L 72,89 L 72,88 L 73,87 L 73,86 L 74,85 L 75,85 L 75,84 L 79,80 L 79,79 L 80,78 L 81,78 L 81,76 L 83,74 L 83,73 L 84,72 L 85,72 L 85,71 L 86,70 L 87,70 L 87,69 L 90,66 L 90,65 L 93,62 L 93,61 L 94,60 L 95,60 L 95,58 L 96,57 L 96,53 L 93,53 L 92,52 L 91,52 L 90,51 L 88,51 L 87,50 L 86,50 L 85,49 L 82,49 L 81,48 L 80,48 L 79,47 L 76,47 L 74,45 L 72,45 L 71,44 L 70,44 L 69,43 L 65,43 L 64,42 L 63,42 L 62,41 L 61,41 L 60,40 L 58,40 L 57,39 L 55,39 L 53,37 L 50,37 L 48,35 L 44,35 L 42,33 Z" fill="black" /><path d="M 0,0 L 0,218 L 251,218 L 251,0 Z" fill="none" stroke="black" stroke-width="1" /></svg>