<?xml version='1.0' encoding='utf-8'?>
<svg width="257" height="221" xmlns="http://www.w3.org/2000/svg" viewBox="0 0 257 221"><rect width="257" height="221" fill="white" /><path d="M 151,159 L 150,160 L 149,160 L 148,161 L 143,161 L 142,162 L 141,162 L 140,163 L 138,163 L 137,164 L 136,164 L 135,165 L 134,165 L 133,166 L 132,166 L 131,167 L 129,167 L 129,168 L 128,169 L 127,169 L 126,170 L 125,170 L 124,171 L 123,171 L 121,173 L 121,174 L 118,177 L 118,178 L 117,179 L 117,182 L 116,183 L 116,184 L 115,185 L 115,186 L 116,187 L 116,189 L 117,190 L 117,192 L 124,199 L 124,200 L 125,201 L 126,201 L 127,202 L 128,202 L 130,204 L 132,204 L 134,206 L 136,206 L 137,207 L 138,207 L 139,208 L 140,208 L 141,209 L 144,209 L 145,210 L 148,210 L 149,211 L 151,211 L 152,212 L 158,212 L 159,211 L 160,212 L 165,212 L 166,211 L 173,211 L 174,210 L 178,210 L 179,209 L 180,209 L 181,208 L 183,208 L 185,206 L 188,206 L 189,205 L 190,205 L 191,204 L 192,204 L 196,200 L 197,200 L 198,199 L 198,198 L 199,197 L 200,197 L 201,196 L 202,196 L 202,194 L 203,193 L 203,191 L 204,190 L 204,189 L 205,188 L 204,187 L 204,183 L 202,181 L 202,179 L 200,177 L 199,177 L 198,176 L 198,175 L 197,175 L 196,174 L 196,173 L 195,173 L 194,172 L 194,171 L 193,171 L 192,170 L 192,169 L 191,169 L 189,167 L 186,167 L 184,165 L 181,165 L 180,164 L 179,164 L 178,163 L 176,163 L 175,162 L 173,162 L 172,161 L 168,161 L 167,160 L 163,160 L 162,159 L 156,159 L 155,160 L 154,159 Z" fill="black" /><path d="M 22,59 L 21,60 L 15,60 L 15,65 L 14,66 L 14,75 L 15,76 L 15,77 L 14,78 L 14,87 L 15,88 L 15,90 L 14,91 L 14,102 L 13,103 L 13,106 L 14,107 L 14,112 L 13,113 L 13,114 L 14,115 L 14,116 L 13,117 L 13,118 L 14,119 L 14,134 L 13,135 L 13,142 L 14,143 L 13,144 L 13,146 L 14,147 L 14,153 L 15,154 L 35,154 L 36,153 L 37,154 L 55,154 L 56,153 L 59,153 L 61,155 L 62,154 L 62,106 L 63,105 L 63,102 L 62,101 L 62,85 L 63,84 L 63,59 L 52,59 L 51,60 L 50,60 L 49,59 Z" fill="black" /><path d="M 134,26 L 133,27 L 132,27 L 132,31 L 131,32 L 131,35 L 130,36 L 130,38 L 129,39 L 129,42 L 128,43 L 128,44 L 127,45 L 127,49 L 126,50 L 126,52 L 125,53 L 125,56 L 124,57 L 124,59 L 123,60 L 123,62 L 122,63 L 122,64 L 121,65 L 121,70 L 120,71 L 120,72 L 119,73 L 119,77 L 118,78 L 118,80 L 117,81 L 117,84 L 116,85 L 116,86 L 115,87 L 115,90 L 114,91 L 114,93 L 113,94 L 113,98 L 112,99 L 112,100 L 111,101 L 111,104 L 110,105 L 110,106 L 109,107 L 109,111 L 108,112 L 108,113 L 107,114 L 107,117 L 106,118 L 106,122 L 105,123 L 105,125 L 104,126 L 104,129 L 108,129 L 113,124 L 114,124 L 114,123 L 115,122 L 116,122 L 120,118 L 121,118 L 125,114 L 126,114 L 126,113 L 127,112 L 128,112 L 132,108 L 133,108 L 137,104 L 138,104 L 138,103 L 139,102 L 140,102 L 144,98 L 145,98 L 147,96 L 148,96 L 148,95 L 149,94 L 150,94 L 150,93 L 151,92 L 152,92 L 155,89 L 156,89 L 159,86 L 160,86 L 160,85 L 161,84 L 162,84 L 165,81 L 166,81 L 171,76 L 172,76 L 172,75 L 173,74 L 174,74 L 179,69 L 180,69 L 183,66 L 184,66 L 184,65 L 185,64 L 187,64 L 189,62 L 187,60 L 185,60 L 184,59 L 183,59 L 182,58 L 182,57 L 180,57 L 178,55 L 177,55 L 175,53 L 174,53 L 172,51 L 171,51 L 169,49 L 167,49 L 164,46 L 163,46 L 160,43 L 158,43 L 156,41 L 155,41 L 152,38 L 151,38 L 150,37 L 149,37 L 147,35 L 146,35 L 144,33 L 143,33 L 142,32 L 141,32 L 140,31 L 138,31 L 136,29 L 136,28 Z" fill="black" /><path d="M 0,0 L 0,220 L 256,220 L 256,0 Z" fill="none" stroke="black" stroke-width="1" /></svg>