<?xml version='1.0' encoding='utf-8'?>
<svg width="258" height="217" xmlns="http://www.w3.org/2000/svg" viewBox="0 0 258 217"><rect width="258" height="217" fill="white" /><path d="M 105,115 L 103,117 L 103,118 L 102,119 L 102,120 L 101,121 L 101,122 L 99,124 L 99,125 L 97,127 L 97,128 L 96,129 L 96,130 L 95,131 L 95,132 L 94,133 L 93,133 L 93,136 L 90,139 L 90,140 L 89,141 L 89,142 L 87,144 L 87,146 L 85,148 L 85,149 L 84,150 L 84,151 L 83,152 L 83,153 L 81,155 L 81,156 L 80,157 L 80,158 L 79,159 L 79,160 L 76,163 L 76,164 L 75,165 L 75,167 L 73,169 L 73,170 L 72,171 L 72,172 L 71,173 L 71,174 L 68,177 L 68,178 L 67,179 L 67,180 L 66,181 L 66,182 L 65,183 L 65,184 L 63,186 L 63,188 L 62,189 L 62,190 L 58,194 L 60,196 L 62,196 L 63,197 L 63,198 L 65,198 L 67,200 L 69,200 L 73,204 L 74,204 L 76,206 L 78,206 L 80,208 L 81,208 L 83,210 L 84,210 L 86,212 L 87,212 L 88,213 L 89,213 L 90,214 L 91,214 L 93,216 L 103,216 L 104,215 L 104,214 L 106,212 L 106,211 L 107,210 L 107,209 L 108,208 L 108,207 L 109,206 L 110,206 L 110,204 L 112,202 L 112,201 L 114,199 L 114,197 L 116,195 L 116,194 L 118,192 L 118,191 L 119,190 L 119,189 L 120,188 L 120,187 L 122,185 L 122,183 L 123,182 L 124,182 L 124,180 L 126,178 L 126,177 L 127,176 L 127,175 L 128,174 L 128,173 L 130,171 L 130,169 L 131,168 L 132,168 L 132,166 L 134,164 L 134,162 L 136,160 L 136,159 L 138,157 L 138,155 L 139,154 L 140,154 L 140,152 L 142,150 L 142,149 L 143,148 L 143,147 L 146,144 L 146,141 L 147,140 L 147,138 L 146,137 L 145,137 L 143,135 L 141,135 L 140,134 L 137,134 L 136,133 L 136,132 L 135,131 L 134,131 L 132,129 L 131,129 L 129,127 L 127,127 L 125,125 L 123,125 L 122,124 L 122,123 L 119,123 L 118,122 L 118,121 L 115,121 L 113,119 L 112,119 L 110,117 L 110,116 L 109,115 Z" fill="black" /><path d="M 112,33 L 108,37 L 108,38 L 107,39 L 107,40 L 106,41 L 105,41 L 105,43 L 99,49 L 99,50 L 98,51 L 98,52 L 97,53 L 97,54 L 96,55 L 95,55 L 95,56 L 94,57 L 93,57 L 93,58 L 90,61 L 90,62 L 89,63 L 89,64 L 88,65 L 87,65 L 87,66 L 85,68 L 85,69 L 83,71 L 82,71 L 82,72 L 81,73 L 81,74 L 80,75 L 79,75 L 79,76 L 76,79 L 74,79 L 74,80 L 73,81 L 74,82 L 76,82 L 77,83 L 78,83 L 79,84 L 81,84 L 82,85 L 83,85 L 84,86 L 85,86 L 86,87 L 88,87 L 89,88 L 92,88 L 93,89 L 93,90 L 96,90 L 97,91 L 98,91 L 99,92 L 101,92 L 102,93 L 105,93 L 106,94 L 107,94 L 109,96 L 112,96 L 113,97 L 114,97 L 115,98 L 117,98 L 118,99 L 119,99 L 120,100 L 122,100 L 123,101 L 124,101 L 125,102 L 128,102 L 129,103 L 130,103 L 131,104 L 133,104 L 135,106 L 138,106 L 140,108 L 143,108 L 145,110 L 148,110 L 150,112 L 153,112 L 154,113 L 155,113 L 156,114 L 158,114 L 159,115 L 160,115 L 161,116 L 162,116 L 163,117 L 165,117 L 166,118 L 167,118 L 168,119 L 171,119 L 171,118 L 172,117 L 168,113 L 168,112 L 166,110 L 166,109 L 164,107 L 164,106 L 163,105 L 163,104 L 162,103 L 162,102 L 160,100 L 160,99 L 159,99 L 158,98 L 158,97 L 156,95 L 156,94 L 154,92 L 154,91 L 152,89 L 152,88 L 150,86 L 150,85 L 149,84 L 149,83 L 148,82 L 148,81 L 147,81 L 146,80 L 146,79 L 144,77 L 144,76 L 142,74 L 142,73 L 140,71 L 140,70 L 138,68 L 138,67 L 136,65 L 136,64 L 134,62 L 134,61 L 132,59 L 132,58 L 130,56 L 130,55 L 127,52 L 127,51 L 124,48 L 124,47 L 123,46 L 123,45 L 122,44 L 122,43 L 119,40 L 119,39 L 118,38 L 118,37 L 114,33 Z" fill="black" /><path d="M 167,13 L 166,14 L 155,14 L 154,15 L 147,15 L 145,17 L 144,17 L 140,21 L 140,22 L 139,23 L 139,34 L 140,35 L 140,36 L 141,37 L 141,40 L 142,41 L 142,42 L 145,45 L 145,46 L 146,47 L 146,48 L 147,49 L 147,50 L 150,53 L 150,54 L 157,61 L 158,61 L 159,62 L 160,62 L 161,63 L 161,64 L 162,64 L 164,66 L 166,66 L 170,70 L 172,70 L 173,71 L 174,71 L 175,72 L 177,72 L 179,74 L 182,74 L 183,75 L 184,75 L 185,76 L 204,76 L 205,75 L 208,75 L 209,74 L 212,74 L 214,72 L 214,71 L 215,70 L 216,70 L 217,69 L 218,69 L 218,67 L 219,66 L 219,65 L 220,64 L 220,62 L 219,61 L 219,59 L 218,58 L 218,55 L 219,54 L 217,52 L 217,50 L 216,49 L 216,45 L 214,43 L 213,43 L 212,42 L 212,39 L 206,33 L 206,32 L 204,30 L 204,29 L 203,29 L 202,28 L 201,28 L 200,27 L 199,27 L 198,26 L 198,25 L 196,23 L 195,23 L 194,22 L 194,21 L 190,21 L 188,19 L 187,19 L 185,17 L 182,17 L 180,15 L 175,15 L 174,14 L 168,14 Z" fill="black" /><path d="M 0,0 L 0,216 L 92,216 L 91,215 L 90,215 L 89,214 L 88,214 L 87,213 L 86,213 L 84,211 L 83,211 L 81,209 L 80,209 L 78,207 L 76,207 L 74,205 L 73,205 L 69,201 L 67,201 L 65,199 L 63,199 L 62,198 L 62,197 L 60,197 L 57,194 L 61,190 L 61,189 L 62,188 L 62,186 L 64,184 L 64,183 L 65,182 L 65,181 L 66,180 L 66,179 L 67,178 L 67,177 L 70,174 L 70,173 L 71,172 L 71,171 L 72,170 L 72,169 L 74,167 L 74,165 L 75,164 L 75,163 L 78,160 L 78,159 L 79,158 L 79,157 L 80,156 L 80,155 L 82,153 L 82,152 L 83,151 L 83,150 L 84,149 L 84,148 L 86,146 L 86,144 L 88,142 L 88,141 L 89,140 L 89,139 L 92,136 L 92,133 L 93,132 L 94,132 L 94,131 L 95,130 L 95,129 L 96,128 L 96,127 L 98,125 L 98,124 L 100,122 L 100,121 L 101,120 L 101,119 L 102,118 L 102,117 L 105,114 L 109,114 L 111,116 L 111,117 L 112,118 L 113,118 L 115,120 L 118,120 L 119,121 L 119,122 L 122,122 L 123,123 L 123,124 L 125,124 L 127,126 L 129,126 L 131,128 L 132,128 L 134,130 L 135,130 L 137,132 L 137,133 L 140,133 L 141,134 L 143,134 L 145,136 L 146,136 L 148,138 L 148,140 L 147,141 L 147,144 L 144,147 L 144,148 L 143,149 L 143,150 L 141,152 L 141,154 L 140,155 L 139,155 L 139,157 L 137,159 L 137,160 L 135,162 L 135,164 L 133,166 L 133,168 L 132,169 L 131,169 L 131,171 L 129,173 L 129,174 L 128,175 L 128,176 L 127,177 L 127,178 L 125,180 L 125,182 L 124,183 L 123,183 L 123,185 L 121,187 L 121,188 L 120,189 L 120,190 L 119,191 L 119,192 L 117,194 L 117,195 L 115,197 L 115,199 L 113,201 L 113,202 L 111,204 L 111,206 L 110,207 L 109,207 L 109,208 L 108,209 L 108,210 L 107,211 L 107,212 L 105,214 L 105,215 L 104,216 L 257,216 L 257,0 Z" fill="none" stroke="black" stroke-width="1" /></svg>