<?xml version='1.0' encoding='utf-8'?>
<svg width="261" height="216" xmlns="http://www.w3.org/2000/svg" viewBox="0 0 261 216"><rect width="261" height="216" fill="white" /><path d="M 180,47 L 179,48 L 175,48 L 174,49 L 171,49 L 170,50 L 168,50 L 167,51 L 162,51 L 160,53 L 156,53 L 155,54 L 154,54 L 153,55 L 151,55 L 149,57 L 146,57 L 145,58 L 144,58 L 143,59 L 140,59 L 140,60 L 139,61 L 136,61 L 135,62 L 134,62 L 133,63 L 132,63 L 131,64 L 130,64 L 129,65 L 128,65 L 127,66 L 125,66 L 124,67 L 122,67 L 121,68 L 120,68 L 119,69 L 118,69 L 117,70 L 116,70 L 115,71 L 114,71 L 113,72 L 112,72 L 111,73 L 110,73 L 110,74 L 109,75 L 108,75 L 106,77 L 104,77 L 103,78 L 102,78 L 101,79 L 100,79 L 100,80 L 99,81 L 97,81 L 95,83 L 94,83 L 94,84 L 93,85 L 91,85 L 89,87 L 88,87 L 88,88 L 87,89 L 86,89 L 85,90 L 84,90 L 83,91 L 82,91 L 82,92 L 81,93 L 80,93 L 80,94 L 79,95 L 78,95 L 72,101 L 71,101 L 69,103 L 68,103 L 68,105 L 66,107 L 65,107 L 63,109 L 63,110 L 62,111 L 62,112 L 61,113 L 60,113 L 60,116 L 59,117 L 59,118 L 58,119 L 58,122 L 56,124 L 56,138 L 57,139 L 57,142 L 58,143 L 58,144 L 59,145 L 59,146 L 60,147 L 60,148 L 61,149 L 61,150 L 62,151 L 62,152 L 64,154 L 64,159 L 62,161 L 62,162 L 59,165 L 58,165 L 56,167 L 55,167 L 53,169 L 52,169 L 50,171 L 49,171 L 47,173 L 47,174 L 46,175 L 44,175 L 40,179 L 39,179 L 37,181 L 35,181 L 33,183 L 32,183 L 31,184 L 30,184 L 29,185 L 28,185 L 28,186 L 27,187 L 26,187 L 25,188 L 23,188 L 23,189 L 22,190 L 23,191 L 23,192 L 26,192 L 27,191 L 30,191 L 31,190 L 32,190 L 34,188 L 36,188 L 38,186 L 39,186 L 41,184 L 42,184 L 44,182 L 45,182 L 48,179 L 49,179 L 50,178 L 51,178 L 51,177 L 52,176 L 53,176 L 56,173 L 57,173 L 60,170 L 61,170 L 63,168 L 63,167 L 67,163 L 67,162 L 68,161 L 70,161 L 74,165 L 74,166 L 76,166 L 78,168 L 79,168 L 80,169 L 81,169 L 82,170 L 84,170 L 86,172 L 99,172 L 100,171 L 103,171 L 104,170 L 107,170 L 109,168 L 111,168 L 112,167 L 113,167 L 116,164 L 118,164 L 122,160 L 123,160 L 123,159 L 124,158 L 125,158 L 125,157 L 128,154 L 129,154 L 134,149 L 135,149 L 135,148 L 136,147 L 137,147 L 137,146 L 142,141 L 143,141 L 143,140 L 145,138 L 145,137 L 146,136 L 147,136 L 149,134 L 149,133 L 150,132 L 151,132 L 151,131 L 153,129 L 153,128 L 157,124 L 157,123 L 158,122 L 159,122 L 159,121 L 161,119 L 161,118 L 163,116 L 163,115 L 165,113 L 165,112 L 167,110 L 167,109 L 168,108 L 168,107 L 169,106 L 169,105 L 171,103 L 171,102 L 173,100 L 173,98 L 175,96 L 175,94 L 177,92 L 177,91 L 178,90 L 178,89 L 179,88 L 179,86 L 181,84 L 181,83 L 182,82 L 182,81 L 183,80 L 183,78 L 185,76 L 185,74 L 186,73 L 186,72 L 187,71 L 187,70 L 188,69 L 188,67 L 189,66 L 189,64 L 191,62 L 191,57 L 192,56 L 192,55 L 191,54 L 191,51 L 189,49 L 188,49 L 187,48 L 186,48 L 185,47 Z" fill="black" /><path d="M 0,0 L 0,215 L 260,215 L 260,0 Z" fill="none" stroke="black" stroke-width="1" /></svg>