<?xml version='1.0' encoding='utf-8'?>
<svg width="258" height="221" xmlns="http://www.w3.org/2000/svg" viewBox="0 0 258 221"><rect width="258" height="221" fill="white" /><path d="M 129,14 L 128,15 L 122,15 L 120,17 L 116,17 L 114,19 L 110,19 L 110,20 L 109,21 L 106,21 L 104,23 L 103,23 L 101,25 L 100,25 L 98,27 L 97,27 L 93,31 L 92,31 L 92,32 L 91,33 L 90,33 L 90,34 L 89,35 L 88,35 L 86,37 L 86,39 L 84,41 L 84,45 L 83,46 L 83,48 L 82,49 L 82,56 L 81,57 L 81,63 L 80,64 L 80,65 L 81,66 L 81,78 L 82,79 L 82,84 L 83,85 L 83,87 L 84,88 L 84,94 L 85,95 L 85,96 L 86,97 L 86,101 L 87,102 L 87,104 L 88,105 L 88,108 L 89,109 L 89,111 L 90,112 L 90,116 L 91,117 L 91,119 L 92,120 L 92,126 L 93,127 L 93,130 L 94,131 L 94,136 L 95,137 L 95,138 L 96,139 L 96,142 L 97,143 L 97,144 L 98,145 L 98,148 L 99,149 L 99,151 L 100,152 L 100,154 L 101,155 L 101,156 L 102,157 L 102,162 L 104,164 L 104,166 L 105,166 L 106,167 L 106,169 L 108,171 L 108,172 L 109,173 L 109,174 L 116,181 L 117,181 L 118,182 L 119,182 L 120,183 L 121,183 L 122,184 L 125,184 L 126,185 L 129,185 L 130,186 L 132,186 L 134,188 L 134,190 L 135,191 L 135,192 L 136,193 L 136,197 L 138,199 L 138,201 L 140,203 L 140,204 L 142,206 L 142,208 L 143,208 L 144,209 L 144,210 L 148,214 L 150,214 L 152,216 L 154,216 L 155,217 L 156,217 L 157,218 L 163,218 L 164,219 L 166,219 L 167,220 L 168,220 L 170,218 L 174,218 L 176,216 L 178,216 L 178,215 L 179,214 L 180,214 L 182,212 L 183,212 L 184,211 L 185,211 L 190,206 L 190,205 L 191,204 L 193,204 L 193,203 L 196,200 L 197,200 L 197,199 L 199,197 L 199,195 L 200,194 L 200,193 L 201,192 L 201,189 L 197,189 L 197,190 L 194,193 L 193,193 L 193,194 L 192,195 L 192,196 L 179,209 L 176,209 L 176,210 L 175,211 L 171,211 L 169,213 L 166,213 L 165,214 L 164,213 L 159,213 L 158,212 L 156,212 L 147,203 L 147,202 L 145,200 L 145,198 L 143,196 L 143,194 L 142,193 L 142,191 L 141,190 L 141,188 L 140,187 L 140,185 L 141,184 L 142,184 L 144,182 L 144,181 L 145,180 L 145,179 L 148,176 L 149,176 L 149,175 L 151,173 L 151,171 L 153,169 L 153,167 L 154,166 L 154,165 L 155,164 L 155,163 L 157,161 L 157,158 L 159,156 L 159,153 L 160,152 L 160,149 L 161,148 L 161,145 L 162,144 L 162,143 L 163,142 L 163,138 L 164,137 L 164,136 L 165,135 L 165,129 L 166,128 L 166,127 L 167,126 L 167,121 L 168,120 L 168,118 L 169,117 L 169,112 L 171,110 L 171,102 L 172,101 L 173,101 L 173,95 L 174,94 L 174,93 L 175,92 L 175,84 L 177,82 L 177,80 L 176,79 L 177,78 L 177,71 L 176,70 L 177,69 L 177,56 L 176,55 L 176,53 L 175,52 L 175,47 L 173,45 L 173,43 L 172,42 L 172,41 L 171,40 L 171,39 L 170,38 L 170,37 L 169,36 L 169,35 L 168,35 L 167,34 L 167,32 L 160,25 L 159,25 L 157,23 L 156,23 L 155,22 L 155,21 L 153,21 L 151,19 L 150,19 L 148,17 L 144,17 L 143,16 L 142,16 L 141,15 L 133,15 L 132,14 Z" fill="black" /><path d="M 128,21 L 127,22 L 122,22 L 121,23 L 116,23 L 116,24 L 115,25 L 114,25 L 113,26 L 112,26 L 111,27 L 109,27 L 107,29 L 106,29 L 105,30 L 104,30 L 103,31 L 102,31 L 102,32 L 101,33 L 100,33 L 98,35 L 96,35 L 94,37 L 94,38 L 93,39 L 93,40 L 92,41 L 92,42 L 91,43 L 91,44 L 90,45 L 90,46 L 89,47 L 89,50 L 88,51 L 88,54 L 87,55 L 88,56 L 88,62 L 87,63 L 87,66 L 88,67 L 88,82 L 89,83 L 89,86 L 90,87 L 90,91 L 91,92 L 91,93 L 92,94 L 92,98 L 93,99 L 93,102 L 94,103 L 94,104 L 95,105 L 95,106 L 96,107 L 96,114 L 97,115 L 97,116 L 98,117 L 98,122 L 99,123 L 99,125 L 100,126 L 100,130 L 101,131 L 101,136 L 102,137 L 102,143 L 104,145 L 104,148 L 105,149 L 105,150 L 106,151 L 106,153 L 107,154 L 107,156 L 108,157 L 108,159 L 110,161 L 110,162 L 111,163 L 111,164 L 112,165 L 112,167 L 114,169 L 114,170 L 115,170 L 116,171 L 116,172 L 118,174 L 118,175 L 119,176 L 122,176 L 124,178 L 135,178 L 139,174 L 141,174 L 143,172 L 143,171 L 146,168 L 146,167 L 147,166 L 147,165 L 149,163 L 149,161 L 151,159 L 151,156 L 152,155 L 152,154 L 153,153 L 153,149 L 155,147 L 155,142 L 156,141 L 156,139 L 157,138 L 157,135 L 158,134 L 158,133 L 159,132 L 159,127 L 160,126 L 160,125 L 161,124 L 161,119 L 162,118 L 162,117 L 163,116 L 163,110 L 164,109 L 164,107 L 165,106 L 165,101 L 166,100 L 166,97 L 167,96 L 167,91 L 168,90 L 168,89 L 169,88 L 169,83 L 170,82 L 170,77 L 171,76 L 170,75 L 170,71 L 171,70 L 171,61 L 170,60 L 170,56 L 169,55 L 169,51 L 168,50 L 168,49 L 167,48 L 167,45 L 166,44 L 166,43 L 165,42 L 165,41 L 164,41 L 161,38 L 161,37 L 159,35 L 159,34 L 158,33 L 157,33 L 155,31 L 154,31 L 153,30 L 153,29 L 152,29 L 151,28 L 150,28 L 149,27 L 148,27 L 146,25 L 145,25 L 143,23 L 142,23 L 141,22 L 140,22 L 139,21 Z" fill="none" stroke="black" stroke-width="1" /><path d="M 0,0 L 0,220 L 166,220 L 164,220 L 163,219 L 157,219 L 156,218 L 155,218 L 154,217 L 152,217 L 150,215 L 148,215 L 143,210 L 143,209 L 142,209 L 141,208 L 141,206 L 139,204 L 139,203 L 137,201 L 137,199 L 135,197 L 135,193 L 134,192 L 134,191 L 133,190 L 133,188 L 132,187 L 130,187 L 129,186 L 126,186 L 125,185 L 122,185 L 121,184 L 120,184 L 119,183 L 118,183 L 117,182 L 116,182 L 108,174 L 108,173 L 107,172 L 107,171 L 105,169 L 105,167 L 104,167 L 103,166 L 103,164 L 101,162 L 101,157 L 100,156 L 100,155 L 99,154 L 99,152 L 98,151 L 98,149 L 97,148 L 97,145 L 96,144 L 96,143 L 95,142 L 95,139 L 94,138 L 94,137 L 93,136 L 93,131 L 92,130 L 92,127 L 91,126 L 91,120 L 90,119 L 90,117 L 89,116 L 89,112 L 88,111 L 88,109 L 87,108 L 87,105 L 86,104 L 86,102 L 85,101 L 85,97 L 84,96 L 84,95 L 83,94 L 83,88 L 82,87 L 82,85 L 81,84 L 81,79 L 80,78 L 80,66 L 79,65 L 79,64 L 80,63 L 80,57 L 81,56 L 81,49 L 82,48 L 82,46 L 83,45 L 83,41 L 85,39 L 85,37 L 88,34 L 89,34 L 89,33 L 90,32 L 91,32 L 91,31 L 92,30 L 93,30 L 97,26 L 98,26 L 100,24 L 101,24 L 103,22 L 104,22 L 106,20 L 109,20 L 109,19 L 110,18 L 114,18 L 116,16 L 120,16 L 122,14 L 128,14 L 129,13 L 132,13 L 133,14 L 141,14 L 142,15 L 143,15 L 144,16 L 148,16 L 150,18 L 151,18 L 153,20 L 155,20 L 156,21 L 156,22 L 157,22 L 159,24 L 160,24 L 168,32 L 168,34 L 169,34 L 170,35 L 170,36 L 171,37 L 171,38 L 172,39 L 172,40 L 173,41 L 173,42 L 174,43 L 174,45 L 176,47 L 176,52 L 177,53 L 177,55 L 178,56 L 178,69 L 177,70 L 178,71 L 178,78 L 177,79 L 178,80 L 178,82 L 176,84 L 176,92 L 175,93 L 175,94 L 174,95 L 174,101 L 173,102 L 172,102 L 172,110 L 170,112 L 170,117 L 169,118 L 169,120 L 168,121 L 168,126 L 167,127 L 167,128 L 166,129 L 166,135 L 165,136 L 165,137 L 164,138 L 164,142 L 163,143 L 163,144 L 162,145 L 162,148 L 161,149 L 161,152 L 160,153 L 160,156 L 158,158 L 158,161 L 156,163 L 156,164 L 155,165 L 155,166 L 154,167 L 154,169 L 152,171 L 152,173 L 150,175 L 150,176 L 149,177 L 148,177 L 146,179 L 146,180 L 145,181 L 145,182 L 142,185 L 141,185 L 141,187 L 142,188 L 142,190 L 143,191 L 143,193 L 144,194 L 144,196 L 146,198 L 146,200 L 148,202 L 148,203 L 156,211 L 158,211 L 159,212 L 164,212 L 165,213 L 166,212 L 169,212 L 171,210 L 175,210 L 175,209 L 176,208 L 179,208 L 191,196 L 191,195 L 192,194 L 192,193 L 193,192 L 194,192 L 196,190 L 196,189 L 197,188 L 201,188 L 202,189 L 202,192 L 201,193 L 201,194 L 200,195 L 200,197 L 198,199 L 198,200 L 197,201 L 196,201 L 194,203 L 194,204 L 193,205 L 191,205 L 191,206 L 185,212 L 184,212 L 183,213 L 182,213 L 180,215 L 179,215 L 179,216 L 178,217 L 176,217 L 174,219 L 170,219 L 169,220 L 257,220 L 257,0 Z" fill="none" stroke="black" stroke-width="1" /></svg>