<?xml version='1.0' encoding='utf-8'?>
<svg width="256" height="216" xmlns="http://www.w3.org/2000/svg" viewBox="0 0 256 216"><rect width="256" height="216" fill="white" /><path d="M 99,11 L 98,12 L 98,19 L 99,20 L 99,22 L 100,23 L 100,32 L 101,33 L 101,38 L 102,39 L 102,54 L 103,55 L 103,58 L 102,59 L 102,63 L 101,64 L 101,66 L 100,67 L 100,70 L 99,71 L 99,73 L 98,74 L 98,75 L 97,76 L 97,78 L 96,79 L 96,81 L 95,82 L 95,83 L 94,84 L 94,86 L 92,88 L 92,90 L 90,92 L 90,94 L 89,95 L 89,96 L 88,97 L 88,101 L 86,103 L 86,108 L 85,109 L 85,111 L 84,112 L 84,123 L 85,124 L 85,126 L 86,127 L 86,128 L 87,129 L 87,130 L 90,133 L 90,134 L 93,137 L 93,138 L 94,138 L 96,140 L 97,140 L 99,142 L 100,142 L 101,143 L 103,143 L 104,144 L 107,144 L 108,145 L 111,145 L 112,146 L 113,146 L 114,145 L 115,145 L 116,146 L 117,146 L 118,145 L 119,145 L 120,144 L 125,144 L 128,141 L 130,141 L 131,140 L 132,140 L 136,136 L 136,135 L 137,134 L 137,133 L 138,132 L 139,132 L 139,130 L 140,129 L 140,125 L 141,124 L 141,122 L 142,121 L 142,115 L 141,114 L 141,111 L 140,110 L 140,109 L 139,108 L 139,106 L 137,104 L 137,103 L 136,102 L 136,101 L 135,100 L 135,99 L 134,98 L 134,97 L 133,96 L 133,95 L 132,95 L 131,94 L 131,93 L 130,93 L 129,92 L 129,91 L 124,86 L 124,85 L 121,82 L 121,81 L 120,81 L 119,80 L 119,79 L 118,79 L 117,78 L 117,77 L 116,76 L 116,75 L 113,72 L 113,70 L 111,68 L 111,67 L 109,65 L 109,60 L 108,59 L 108,49 L 107,48 L 107,31 L 106,30 L 106,29 L 105,28 L 105,20 L 104,19 L 104,15 L 103,14 L 103,12 L 102,11 Z" fill="black" /><path d="M 0,0 L 0,215 L 255,215 L 255,0 Z" fill="none" stroke="black" stroke-width="1" /></svg>