<?xml version='1.0' encoding='utf-8'?>
<svg width="257" height="224" xmlns="http://www.w3.org/2000/svg" viewBox="0 0 257 224"><rect width="257" height="224" fill="white" /><path d="M 79,71 L 78,72 L 72,72 L 71,73 L 67,73 L 66,72 L 57,72 L 56,73 L 56,75 L 57,75 L 59,77 L 59,78 L 60,79 L 60,80 L 61,81 L 61,82 L 62,83 L 62,85 L 64,87 L 64,89 L 66,91 L 66,93 L 68,95 L 68,97 L 70,99 L 70,101 L 72,103 L 72,105 L 74,107 L 74,108 L 75,109 L 75,110 L 76,111 L 76,113 L 78,115 L 78,117 L 80,119 L 80,121 L 82,123 L 82,125 L 84,127 L 84,129 L 85,130 L 85,131 L 86,132 L 88,132 L 88,131 L 91,128 L 91,127 L 92,126 L 92,125 L 93,124 L 93,123 L 95,121 L 95,120 L 97,118 L 97,117 L 98,116 L 98,115 L 99,114 L 99,113 L 100,112 L 101,112 L 101,110 L 103,108 L 103,107 L 105,105 L 105,103 L 106,102 L 107,102 L 107,101 L 108,100 L 108,99 L 109,98 L 109,97 L 111,95 L 111,93 L 112,92 L 113,92 L 113,91 L 115,89 L 115,88 L 117,86 L 117,84 L 119,82 L 119,81 L 124,76 L 126,76 L 126,74 L 125,73 L 90,73 L 89,72 L 88,72 L 87,73 L 86,73 L 85,72 L 80,72 Z" fill="black" /><path d="M 227,57 L 225,59 L 222,59 L 221,60 L 220,60 L 219,61 L 218,61 L 217,62 L 216,62 L 215,63 L 214,63 L 212,65 L 211,65 L 209,67 L 208,67 L 207,68 L 206,68 L 203,71 L 202,71 L 198,75 L 197,75 L 196,76 L 196,78 L 193,81 L 192,81 L 192,83 L 190,85 L 190,86 L 188,88 L 188,89 L 187,90 L 187,91 L 186,92 L 186,93 L 184,95 L 184,98 L 183,99 L 183,100 L 182,101 L 182,104 L 181,105 L 181,108 L 180,109 L 180,122 L 179,123 L 179,124 L 180,125 L 180,132 L 181,133 L 181,137 L 182,138 L 182,140 L 183,141 L 183,143 L 184,144 L 184,146 L 185,147 L 185,148 L 186,149 L 186,150 L 187,151 L 187,152 L 188,153 L 188,154 L 190,156 L 190,157 L 192,159 L 192,160 L 193,160 L 194,161 L 194,162 L 196,164 L 196,165 L 203,172 L 204,172 L 206,174 L 207,174 L 209,176 L 210,176 L 212,178 L 214,178 L 216,180 L 219,180 L 220,181 L 221,181 L 222,182 L 227,182 L 227,178 L 226,177 L 225,177 L 224,176 L 222,176 L 221,175 L 220,175 L 219,174 L 218,174 L 217,173 L 215,173 L 207,165 L 206,165 L 204,163 L 203,163 L 201,161 L 200,161 L 195,156 L 195,155 L 194,154 L 194,153 L 193,152 L 193,151 L 191,149 L 191,147 L 189,145 L 189,143 L 188,142 L 188,141 L 187,140 L 187,137 L 186,136 L 186,134 L 185,133 L 185,123 L 184,122 L 184,121 L 185,120 L 185,107 L 187,105 L 187,103 L 188,102 L 188,101 L 189,100 L 189,97 L 191,95 L 191,94 L 193,92 L 193,89 L 194,88 L 194,87 L 196,85 L 197,85 L 198,84 L 198,83 L 201,80 L 201,79 L 204,76 L 205,76 L 206,75 L 207,75 L 208,74 L 208,73 L 209,72 L 211,72 L 211,71 L 212,70 L 213,70 L 214,69 L 215,69 L 216,68 L 217,68 L 218,67 L 219,67 L 220,66 L 221,66 L 223,64 L 225,64 L 227,62 L 231,62 L 231,57 Z" fill="black" /><path d="M 0,0 L 0,223 L 256,223 L 256,0 Z" fill="none" stroke="black" stroke-width="1" /></svg>