<?xml version='1.0' encoding='utf-8'?>
<svg width="264" height="217" xmlns="http://www.w3.org/2000/svg" viewBox="0 0 264 217"><rect width="264" height="217" fill="white" /><path d="M 206,131 L 205,132 L 205,133 L 204,134 L 204,135 L 201,138 L 201,140 L 199,142 L 199,143 L 198,144 L 198,145 L 197,146 L 197,147 L 195,149 L 195,150 L 193,152 L 193,153 L 192,154 L 192,155 L 191,156 L 191,157 L 189,159 L 189,160 L 187,162 L 187,163 L 186,164 L 186,165 L 185,166 L 185,168 L 183,170 L 183,171 L 181,173 L 181,175 L 179,177 L 179,181 L 191,181 L 192,180 L 200,180 L 201,179 L 226,179 L 227,178 L 238,178 L 238,176 L 236,174 L 236,173 L 234,171 L 234,170 L 232,168 L 232,166 L 231,166 L 230,165 L 230,164 L 229,163 L 229,162 L 228,161 L 228,160 L 227,160 L 226,159 L 226,158 L 225,157 L 225,156 L 224,155 L 224,154 L 222,152 L 222,151 L 220,149 L 220,148 L 218,146 L 218,145 L 216,143 L 216,142 L 214,140 L 214,139 L 212,137 L 212,136 L 211,135 L 211,133 L 209,131 Z" fill="black" /><path d="M 126,19 L 125,20 L 121,20 L 121,21 L 120,22 L 117,22 L 117,23 L 116,24 L 115,24 L 113,26 L 111,26 L 109,28 L 108,28 L 106,30 L 105,30 L 101,34 L 100,34 L 94,40 L 93,40 L 93,41 L 92,42 L 91,42 L 89,44 L 89,45 L 88,46 L 87,46 L 87,47 L 82,52 L 82,53 L 81,54 L 81,55 L 80,56 L 79,56 L 79,57 L 77,59 L 77,60 L 75,62 L 75,63 L 73,65 L 73,66 L 71,68 L 71,69 L 70,70 L 70,71 L 68,73 L 68,75 L 67,76 L 67,77 L 66,78 L 66,79 L 65,80 L 65,81 L 64,82 L 64,83 L 63,84 L 63,86 L 61,88 L 61,91 L 59,93 L 59,97 L 58,98 L 58,99 L 57,100 L 57,107 L 56,108 L 56,109 L 55,110 L 55,120 L 54,121 L 54,125 L 56,127 L 60,127 L 61,126 L 61,124 L 62,123 L 62,112 L 63,111 L 63,110 L 64,109 L 64,100 L 65,99 L 65,98 L 66,97 L 66,94 L 67,93 L 67,92 L 68,91 L 68,88 L 69,87 L 69,86 L 70,85 L 70,83 L 72,81 L 72,78 L 73,77 L 74,77 L 74,75 L 76,73 L 76,72 L 78,70 L 78,69 L 80,67 L 80,66 L 82,64 L 82,62 L 83,61 L 84,61 L 84,60 L 86,58 L 86,57 L 88,55 L 88,54 L 91,51 L 92,51 L 92,50 L 95,47 L 96,47 L 98,45 L 98,44 L 101,41 L 102,41 L 104,39 L 105,39 L 107,37 L 107,36 L 108,35 L 110,35 L 112,33 L 113,33 L 115,31 L 116,31 L 118,29 L 120,29 L 120,28 L 121,27 L 123,27 L 125,25 L 127,25 L 128,24 L 128,20 L 127,19 Z" fill="black" /><path d="M 0,0 L 0,216 L 263,216 L 263,0 Z" fill="none" stroke="black" stroke-width="1" /></svg>