<?xml version='1.0' encoding='utf-8'?>
<svg width="261" height="216" xmlns="http://www.w3.org/2000/svg" viewBox="0 0 261 216"><rect width="261" height="216" fill="white" /><path d="M 42,80 L 42,81 L 40,83 L 40,85 L 38,87 L 38,90 L 37,91 L 37,93 L 36,94 L 36,99 L 35,100 L 35,103 L 34,104 L 34,124 L 35,125 L 35,127 L 36,128 L 36,133 L 37,134 L 37,136 L 38,137 L 38,139 L 39,140 L 39,141 L 40,142 L 40,144 L 42,146 L 42,148 L 44,150 L 44,151 L 45,152 L 45,153 L 46,154 L 46,155 L 47,155 L 48,156 L 48,158 L 50,160 L 50,161 L 51,161 L 52,162 L 52,163 L 53,163 L 54,164 L 54,165 L 55,165 L 56,166 L 56,167 L 57,167 L 58,168 L 58,169 L 59,169 L 61,171 L 62,171 L 65,174 L 65,175 L 66,175 L 68,177 L 69,177 L 70,178 L 71,178 L 72,179 L 73,179 L 74,180 L 74,181 L 76,181 L 78,183 L 80,183 L 82,185 L 84,185 L 85,186 L 86,186 L 87,187 L 89,187 L 90,188 L 91,188 L 92,189 L 97,189 L 98,190 L 103,190 L 104,191 L 124,191 L 125,190 L 127,190 L 128,189 L 133,189 L 135,187 L 137,187 L 138,186 L 139,186 L 140,185 L 141,185 L 142,184 L 143,184 L 143,181 L 142,180 L 137,180 L 135,182 L 132,182 L 131,183 L 130,183 L 129,184 L 124,184 L 123,185 L 117,185 L 116,186 L 105,186 L 104,185 L 102,185 L 101,184 L 96,184 L 95,183 L 93,183 L 92,182 L 88,182 L 87,181 L 87,180 L 85,180 L 83,178 L 81,178 L 80,177 L 79,177 L 78,176 L 77,176 L 75,174 L 73,174 L 67,168 L 66,168 L 65,167 L 65,166 L 64,166 L 61,163 L 61,162 L 60,162 L 59,161 L 59,160 L 58,160 L 55,157 L 55,156 L 51,152 L 51,151 L 50,150 L 50,148 L 49,147 L 49,146 L 47,144 L 47,143 L 45,141 L 45,139 L 44,138 L 44,136 L 43,135 L 43,134 L 42,133 L 42,130 L 41,129 L 41,124 L 39,122 L 39,119 L 40,118 L 40,112 L 41,111 L 41,102 L 40,101 L 41,100 L 41,96 L 42,95 L 42,94 L 43,93 L 43,90 L 44,89 L 45,89 L 45,85 L 46,84 L 46,83 L 45,82 L 45,80 Z" fill="black" /><path d="M 165,17 L 165,18 L 164,19 L 164,21 L 162,23 L 162,24 L 160,26 L 160,27 L 159,28 L 158,28 L 158,29 L 157,30 L 157,31 L 156,32 L 156,33 L 155,34 L 155,35 L 154,36 L 154,37 L 153,38 L 152,38 L 152,40 L 150,42 L 150,43 L 149,44 L 149,45 L 146,48 L 146,49 L 145,50 L 145,52 L 143,54 L 143,55 L 142,56 L 142,57 L 141,58 L 140,58 L 140,59 L 139,60 L 139,61 L 138,62 L 138,63 L 136,65 L 136,66 L 134,68 L 134,69 L 133,70 L 132,70 L 132,72 L 130,74 L 130,75 L 129,76 L 130,77 L 136,77 L 137,78 L 138,77 L 205,77 L 205,74 L 203,72 L 203,71 L 201,69 L 201,68 L 199,66 L 199,65 L 197,63 L 197,62 L 196,61 L 196,60 L 195,59 L 195,58 L 192,55 L 192,54 L 191,53 L 191,52 L 189,50 L 189,49 L 187,47 L 187,46 L 185,44 L 185,43 L 183,41 L 183,40 L 181,38 L 181,37 L 179,35 L 179,34 L 177,32 L 177,31 L 175,29 L 175,28 L 174,27 L 174,26 L 173,25 L 173,24 L 171,22 L 171,21 L 169,19 L 169,18 L 168,17 Z" fill="black" /><path d="M 0,0 L 0,215 L 260,215 L 260,0 Z" fill="none" stroke="black" stroke-width="1" /></svg>