<?xml version='1.0' encoding='utf-8'?>
<svg width="260" height="222" xmlns="http://www.w3.org/2000/svg" viewBox="0 0 260 222"><rect width="260" height="222" fill="white" /><path d="M 174,140 L 174,141 L 172,143 L 172,145 L 170,147 L 170,149 L 168,151 L 168,153 L 167,154 L 166,154 L 166,155 L 165,156 L 165,157 L 164,158 L 164,159 L 162,161 L 162,163 L 161,164 L 161,165 L 160,166 L 160,167 L 158,169 L 158,172 L 156,174 L 156,175 L 154,177 L 154,179 L 152,181 L 152,183 L 150,185 L 150,186 L 149,187 L 149,190 L 150,190 L 151,191 L 162,191 L 163,190 L 164,191 L 169,191 L 170,190 L 194,190 L 195,189 L 207,189 L 208,188 L 207,187 L 207,186 L 206,185 L 206,184 L 205,183 L 205,182 L 203,180 L 203,178 L 202,178 L 201,177 L 201,176 L 199,174 L 199,173 L 197,171 L 197,169 L 195,167 L 195,166 L 194,165 L 194,164 L 193,163 L 193,162 L 192,162 L 191,161 L 191,159 L 189,157 L 189,156 L 187,154 L 187,153 L 185,151 L 185,150 L 183,148 L 183,147 L 181,145 L 181,144 L 180,143 L 180,142 L 178,140 Z" fill="black" /><path d="M 164,49 L 163,50 L 152,50 L 151,51 L 150,51 L 149,52 L 145,52 L 144,53 L 142,53 L 141,54 L 138,54 L 137,55 L 135,55 L 134,56 L 132,56 L 130,58 L 127,58 L 125,60 L 124,60 L 123,61 L 122,61 L 121,62 L 119,62 L 117,64 L 116,64 L 115,65 L 114,65 L 113,66 L 112,66 L 110,68 L 109,68 L 105,72 L 104,72 L 104,73 L 103,74 L 102,74 L 100,76 L 100,77 L 99,78 L 98,78 L 94,82 L 94,83 L 93,84 L 92,84 L 89,87 L 89,89 L 90,90 L 90,91 L 91,92 L 94,92 L 97,89 L 97,88 L 98,87 L 99,87 L 102,84 L 102,83 L 104,81 L 105,81 L 105,80 L 108,77 L 108,76 L 109,75 L 111,75 L 112,74 L 113,74 L 116,71 L 117,71 L 117,70 L 119,68 L 120,68 L 121,67 L 123,67 L 125,65 L 127,65 L 128,64 L 129,64 L 130,63 L 132,63 L 134,61 L 136,61 L 138,59 L 143,59 L 144,58 L 145,58 L 146,57 L 151,57 L 152,56 L 153,56 L 154,55 L 169,55 L 170,54 L 171,54 L 172,55 L 181,55 L 182,56 L 188,56 L 189,57 L 193,57 L 194,58 L 195,58 L 196,59 L 200,59 L 201,60 L 203,60 L 204,61 L 205,61 L 207,63 L 210,63 L 212,65 L 214,65 L 216,67 L 217,67 L 218,68 L 219,68 L 220,69 L 221,69 L 222,70 L 222,71 L 223,71 L 224,72 L 225,72 L 226,73 L 227,73 L 228,74 L 228,75 L 229,75 L 231,77 L 232,77 L 233,78 L 233,79 L 235,81 L 236,81 L 237,82 L 237,83 L 238,83 L 241,86 L 241,87 L 247,93 L 248,93 L 249,94 L 251,92 L 251,91 L 249,89 L 249,87 L 245,83 L 245,82 L 244,82 L 243,81 L 243,80 L 242,80 L 239,77 L 239,76 L 238,76 L 237,75 L 237,74 L 236,74 L 230,68 L 228,68 L 227,67 L 227,66 L 226,66 L 225,65 L 224,65 L 223,64 L 222,64 L 220,62 L 218,62 L 217,61 L 217,60 L 216,60 L 215,59 L 214,59 L 213,58 L 210,58 L 209,57 L 208,57 L 207,56 L 206,56 L 205,55 L 203,55 L 202,54 L 199,54 L 197,52 L 188,52 L 187,51 L 184,51 L 183,50 L 176,50 L 175,49 L 174,49 L 173,50 L 168,50 L 167,49 Z" fill="black" /></svg>