<?xml version='1.0' encoding='utf-8'?>
<svg width="257" height="217" xmlns="http://www.w3.org/2000/svg" viewBox="0 0 257 217"><rect width="257" height="217" fill="white" /><path d="M 163,47 L 161,49 L 161,50 L 160,51 L 159,51 L 151,59 L 151,60 L 150,61 L 149,61 L 149,62 L 148,63 L 147,63 L 147,64 L 143,68 L 143,69 L 142,70 L 141,70 L 134,77 L 133,77 L 130,80 L 129,80 L 124,85 L 123,85 L 120,88 L 119,88 L 118,89 L 117,89 L 117,90 L 116,91 L 115,91 L 113,93 L 112,93 L 110,95 L 109,95 L 107,97 L 105,97 L 100,102 L 97,102 L 96,103 L 94,103 L 92,105 L 91,105 L 89,107 L 87,107 L 86,108 L 85,108 L 84,109 L 82,109 L 81,110 L 80,110 L 79,111 L 77,111 L 76,112 L 75,112 L 74,113 L 72,113 L 71,114 L 69,114 L 68,115 L 65,115 L 64,116 L 61,116 L 61,120 L 60,121 L 60,122 L 59,123 L 59,126 L 60,127 L 60,134 L 61,135 L 61,140 L 62,141 L 62,142 L 63,143 L 63,145 L 65,147 L 65,148 L 66,149 L 66,150 L 67,151 L 67,152 L 68,152 L 69,153 L 69,154 L 70,154 L 72,156 L 73,156 L 75,158 L 76,158 L 78,160 L 80,160 L 81,161 L 82,161 L 83,162 L 86,162 L 87,163 L 88,163 L 89,164 L 90,164 L 91,163 L 94,163 L 95,164 L 96,164 L 97,163 L 98,163 L 99,162 L 100,162 L 102,160 L 102,159 L 104,157 L 104,156 L 105,155 L 106,155 L 106,154 L 112,148 L 113,148 L 115,146 L 115,145 L 122,138 L 123,138 L 123,137 L 124,136 L 125,136 L 131,130 L 132,130 L 132,129 L 133,128 L 134,128 L 136,126 L 137,126 L 139,124 L 140,124 L 140,123 L 141,122 L 143,122 L 145,120 L 146,120 L 148,118 L 149,118 L 151,116 L 152,116 L 154,114 L 155,114 L 157,112 L 158,112 L 160,110 L 162,110 L 162,109 L 163,108 L 165,108 L 167,106 L 168,106 L 169,105 L 170,105 L 171,104 L 173,104 L 174,103 L 175,103 L 176,102 L 180,102 L 181,101 L 182,101 L 183,100 L 186,100 L 187,99 L 188,99 L 189,98 L 192,98 L 194,96 L 198,96 L 201,93 L 201,91 L 202,90 L 202,86 L 203,85 L 203,77 L 202,76 L 202,71 L 201,70 L 201,69 L 200,68 L 200,66 L 198,64 L 198,62 L 194,58 L 194,57 L 193,57 L 192,56 L 192,55 L 191,55 L 188,52 L 187,52 L 186,51 L 185,51 L 184,50 L 183,50 L 182,49 L 180,49 L 179,48 L 178,48 L 177,47 Z" fill="black" /><path d="M 0,0 L 0,216 L 256,216 L 256,0 Z" fill="none" stroke="black" stroke-width="1" /></svg>