<?xml version='1.0' encoding='utf-8'?>
<svg width="260" height="221" xmlns="http://www.w3.org/2000/svg" viewBox="0 0 260 221"><rect width="260" height="221" fill="white" /><path d="M 110,59 L 110,60 L 107,63 L 107,64 L 105,66 L 104,66 L 103,67 L 101,67 L 100,68 L 95,68 L 94,69 L 92,69 L 91,70 L 91,74 L 90,75 L 91,76 L 91,80 L 92,81 L 92,88 L 93,89 L 93,91 L 94,92 L 94,94 L 95,95 L 95,97 L 96,98 L 96,100 L 97,101 L 97,102 L 98,103 L 98,105 L 100,107 L 100,108 L 101,109 L 101,110 L 102,111 L 102,112 L 103,113 L 103,114 L 106,117 L 106,119 L 108,121 L 108,122 L 111,125 L 111,126 L 112,126 L 116,130 L 116,131 L 118,133 L 118,134 L 119,134 L 122,137 L 122,138 L 123,138 L 125,140 L 127,140 L 131,136 L 131,135 L 138,128 L 143,128 L 144,127 L 147,127 L 147,114 L 146,113 L 146,111 L 145,110 L 145,105 L 144,104 L 144,103 L 143,102 L 143,100 L 141,98 L 141,93 L 139,91 L 139,89 L 137,87 L 137,86 L 135,84 L 135,83 L 133,81 L 133,79 L 132,78 L 132,77 L 131,76 L 131,75 L 130,75 L 129,74 L 129,73 L 127,71 L 127,70 L 124,67 L 123,67 L 121,65 L 120,65 L 119,64 L 119,63 L 118,63 L 116,61 L 115,61 L 113,59 Z" fill="black" /><path d="M 0,0 L 0,220 L 259,220 L 259,0 Z" fill="none" stroke="black" stroke-width="1" /></svg>