<?xml version='1.0' encoding='utf-8'?>
<svg width="257" height="216" xmlns="http://www.w3.org/2000/svg" viewBox="0 0 257 216"><rect width="257" height="216" fill="white" /><path d="M 90,39 L 88,41 L 88,42 L 87,43 L 86,43 L 86,44 L 85,45 L 85,46 L 84,47 L 84,48 L 83,49 L 83,50 L 82,51 L 82,52 L 81,53 L 80,53 L 80,54 L 79,55 L 79,57 L 78,58 L 78,60 L 77,61 L 76,61 L 76,64 L 74,66 L 74,69 L 72,71 L 72,74 L 71,75 L 71,76 L 70,77 L 70,80 L 69,81 L 69,82 L 68,83 L 68,86 L 67,87 L 67,89 L 66,90 L 66,95 L 65,96 L 65,98 L 64,99 L 64,106 L 63,107 L 63,110 L 62,111 L 62,132 L 61,133 L 62,134 L 62,148 L 63,149 L 63,157 L 64,158 L 64,164 L 65,165 L 65,168 L 66,169 L 66,173 L 67,174 L 67,176 L 68,177 L 68,181 L 70,183 L 70,185 L 72,187 L 72,189 L 73,190 L 75,190 L 78,187 L 79,187 L 80,186 L 81,186 L 81,185 L 82,184 L 84,184 L 86,182 L 88,182 L 89,181 L 90,181 L 91,180 L 97,180 L 98,179 L 105,179 L 106,180 L 110,180 L 111,181 L 112,181 L 113,182 L 115,182 L 117,184 L 119,184 L 128,193 L 128,194 L 129,194 L 130,195 L 130,196 L 132,198 L 132,200 L 135,203 L 138,203 L 141,200 L 141,199 L 142,198 L 142,197 L 143,196 L 143,195 L 145,193 L 145,192 L 147,190 L 147,188 L 149,186 L 149,184 L 151,182 L 151,180 L 153,178 L 153,176 L 155,174 L 155,171 L 156,170 L 156,169 L 157,168 L 157,167 L 158,166 L 158,164 L 159,163 L 159,159 L 160,158 L 160,157 L 161,156 L 161,153 L 162,152 L 162,151 L 163,150 L 163,145 L 164,144 L 164,142 L 165,141 L 165,133 L 166,132 L 166,130 L 167,129 L 167,104 L 168,103 L 168,101 L 167,100 L 167,88 L 166,87 L 166,85 L 165,84 L 165,73 L 164,72 L 164,71 L 163,70 L 163,65 L 162,64 L 162,63 L 161,62 L 161,57 L 159,55 L 159,53 L 158,52 L 158,51 L 157,50 L 157,49 L 156,48 L 156,47 L 155,46 L 152,46 L 151,47 L 150,47 L 147,50 L 146,50 L 145,51 L 144,51 L 143,52 L 142,52 L 141,53 L 140,53 L 139,54 L 138,54 L 137,55 L 135,55 L 134,56 L 132,56 L 131,57 L 120,57 L 118,55 L 112,55 L 110,53 L 108,53 L 107,52 L 107,51 L 105,51 L 103,49 L 102,49 L 101,48 L 101,47 L 100,47 L 97,44 L 97,43 L 95,41 L 95,40 L 94,39 Z" fill="black" /></svg>