<?xml version='1.0' encoding='utf-8'?>
<svg width="260" height="218" xmlns="http://www.w3.org/2000/svg" viewBox="0 0 260 218"><rect width="260" height="218" fill="white" /><path d="M 176,56 L 175,57 L 173,57 L 172,58 L 170,58 L 169,59 L 168,59 L 167,60 L 163,60 L 162,61 L 161,61 L 160,62 L 157,62 L 157,63 L 156,64 L 154,64 L 152,66 L 149,66 L 147,68 L 146,68 L 144,70 L 143,70 L 142,71 L 141,71 L 140,72 L 139,72 L 137,74 L 135,74 L 135,75 L 134,76 L 133,76 L 131,78 L 130,78 L 128,80 L 127,80 L 127,81 L 126,82 L 125,82 L 121,86 L 120,86 L 118,88 L 117,88 L 117,89 L 116,90 L 115,90 L 115,91 L 114,92 L 113,92 L 113,93 L 112,94 L 111,94 L 111,95 L 110,96 L 109,96 L 107,98 L 107,99 L 106,100 L 105,100 L 105,101 L 104,102 L 103,102 L 103,103 L 101,105 L 101,106 L 99,108 L 99,109 L 97,111 L 97,112 L 95,114 L 95,115 L 92,118 L 92,119 L 91,120 L 91,121 L 90,122 L 90,123 L 89,124 L 89,125 L 88,126 L 88,131 L 89,132 L 90,132 L 91,133 L 95,133 L 97,135 L 98,135 L 103,140 L 104,140 L 105,141 L 105,142 L 106,143 L 106,144 L 107,145 L 107,146 L 108,147 L 108,148 L 109,149 L 109,154 L 113,154 L 114,153 L 116,153 L 117,152 L 118,152 L 119,151 L 122,151 L 123,150 L 124,150 L 125,149 L 126,149 L 128,147 L 130,147 L 132,145 L 135,145 L 137,143 L 140,143 L 140,142 L 141,141 L 142,141 L 143,140 L 144,140 L 145,139 L 146,139 L 148,137 L 149,137 L 151,135 L 152,135 L 156,131 L 157,131 L 159,129 L 160,129 L 160,128 L 161,127 L 162,127 L 162,126 L 163,125 L 164,125 L 166,123 L 167,123 L 170,120 L 170,119 L 175,114 L 176,114 L 176,113 L 180,109 L 180,108 L 181,107 L 182,107 L 182,106 L 183,105 L 184,105 L 184,104 L 185,103 L 185,102 L 188,99 L 188,98 L 190,96 L 190,95 L 192,93 L 192,92 L 195,89 L 195,88 L 196,87 L 196,86 L 197,85 L 197,84 L 198,83 L 198,81 L 195,78 L 194,78 L 192,76 L 191,76 L 188,73 L 188,72 L 186,70 L 186,68 L 184,66 L 184,62 L 183,61 L 183,60 L 182,59 L 181,59 L 180,58 L 180,56 Z" fill="black" /><path d="M 0,0 L 0,217 L 259,217 L 259,0 Z" fill="none" stroke="black" stroke-width="1" /></svg>