<?xml version='1.0' encoding='utf-8'?>
<svg width="260" height="218" xmlns="http://www.w3.org/2000/svg" viewBox="0 0 260 218"><rect width="260" height="218" fill="white" /><path d="M 93,81 L 92,82 L 90,82 L 84,88 L 83,88 L 82,89 L 82,90 L 80,92 L 80,93 L 77,96 L 77,97 L 76,98 L 76,100 L 74,102 L 74,107 L 73,108 L 73,111 L 74,112 L 74,113 L 76,115 L 83,115 L 84,116 L 85,116 L 86,117 L 89,117 L 90,118 L 93,118 L 94,119 L 94,120 L 96,120 L 97,121 L 99,121 L 100,122 L 101,122 L 102,123 L 103,123 L 104,124 L 105,124 L 106,125 L 109,125 L 112,128 L 112,129 L 114,129 L 117,132 L 119,132 L 120,133 L 120,134 L 121,135 L 123,135 L 128,140 L 129,140 L 132,143 L 133,143 L 136,146 L 136,147 L 142,153 L 142,154 L 145,157 L 149,157 L 149,156 L 150,155 L 151,155 L 153,153 L 154,153 L 156,151 L 156,150 L 157,149 L 157,148 L 158,147 L 159,147 L 159,145 L 161,143 L 161,142 L 163,140 L 163,137 L 164,136 L 164,134 L 165,133 L 165,128 L 166,127 L 166,124 L 165,123 L 165,122 L 160,122 L 159,121 L 158,121 L 157,120 L 154,120 L 153,119 L 152,119 L 151,118 L 148,118 L 147,117 L 146,117 L 145,116 L 143,116 L 142,115 L 141,115 L 140,114 L 138,114 L 136,112 L 134,112 L 133,111 L 132,111 L 131,110 L 130,110 L 128,108 L 126,108 L 125,107 L 125,106 L 124,106 L 123,105 L 122,105 L 121,104 L 120,104 L 118,102 L 116,102 L 113,99 L 113,98 L 112,98 L 106,92 L 105,92 L 99,86 L 99,84 L 97,82 L 96,82 L 95,81 Z" fill="black" /><path d="M 0,0 L 0,217 L 259,217 L 259,0 Z" fill="none" stroke="black" stroke-width="1" /></svg>