<?xml version='1.0' encoding='utf-8'?>
<svg width="258" height="222" xmlns="http://www.w3.org/2000/svg" viewBox="0 0 258 222"><rect width="258" height="222" fill="white" /><path d="M 96,39 L 95,40 L 88,40 L 87,41 L 81,41 L 80,42 L 79,42 L 77,44 L 77,49 L 76,50 L 76,53 L 75,54 L 75,55 L 74,56 L 74,61 L 73,62 L 73,64 L 72,65 L 72,66 L 70,68 L 70,69 L 68,71 L 68,73 L 66,75 L 66,76 L 64,78 L 64,79 L 62,81 L 62,82 L 61,83 L 61,84 L 58,87 L 58,88 L 57,89 L 55,89 L 53,91 L 52,91 L 52,92 L 51,93 L 50,93 L 48,95 L 48,98 L 49,99 L 49,102 L 50,103 L 50,106 L 53,109 L 53,111 L 54,112 L 54,113 L 55,114 L 55,115 L 56,116 L 56,118 L 58,120 L 58,122 L 59,122 L 60,123 L 60,124 L 61,125 L 61,126 L 64,129 L 64,130 L 66,132 L 66,133 L 70,137 L 70,138 L 74,142 L 75,142 L 76,143 L 76,145 L 77,145 L 78,146 L 79,146 L 82,149 L 82,150 L 83,150 L 84,151 L 84,152 L 85,152 L 93,160 L 95,160 L 99,164 L 100,164 L 102,166 L 103,166 L 105,168 L 106,168 L 108,170 L 110,170 L 112,172 L 115,172 L 117,174 L 119,174 L 120,175 L 121,175 L 122,176 L 123,176 L 124,177 L 125,177 L 126,178 L 129,178 L 130,179 L 131,179 L 132,180 L 138,180 L 140,182 L 143,182 L 144,183 L 150,183 L 151,184 L 153,184 L 154,185 L 157,185 L 158,186 L 172,186 L 173,187 L 175,187 L 176,186 L 180,186 L 181,187 L 182,187 L 185,184 L 185,182 L 186,181 L 186,179 L 187,178 L 187,177 L 188,176 L 188,175 L 189,174 L 189,171 L 191,169 L 191,167 L 193,165 L 193,164 L 194,163 L 194,162 L 195,161 L 195,160 L 197,158 L 197,157 L 198,156 L 199,156 L 199,155 L 210,144 L 211,144 L 211,143 L 212,142 L 213,142 L 213,141 L 214,140 L 215,140 L 217,138 L 218,138 L 220,136 L 221,136 L 222,135 L 222,131 L 221,130 L 221,127 L 220,126 L 220,124 L 219,123 L 219,121 L 217,119 L 217,117 L 216,116 L 216,115 L 215,114 L 215,113 L 213,111 L 213,110 L 211,108 L 211,107 L 210,106 L 210,105 L 209,104 L 209,103 L 207,101 L 207,100 L 205,98 L 205,97 L 203,95 L 203,94 L 201,92 L 201,91 L 200,91 L 199,90 L 199,89 L 195,85 L 195,84 L 193,82 L 192,82 L 191,81 L 191,80 L 190,79 L 189,79 L 181,71 L 180,71 L 179,70 L 179,69 L 178,69 L 176,67 L 175,67 L 171,63 L 170,63 L 168,61 L 167,61 L 166,60 L 165,60 L 164,59 L 163,59 L 161,57 L 160,57 L 159,56 L 158,56 L 157,55 L 156,55 L 155,54 L 154,54 L 153,53 L 150,53 L 148,51 L 146,51 L 145,50 L 145,49 L 143,49 L 142,48 L 141,48 L 140,47 L 137,47 L 136,46 L 134,46 L 133,45 L 130,45 L 129,44 L 128,44 L 127,43 L 121,43 L 120,42 L 119,42 L 118,41 L 110,41 L 109,40 L 108,40 L 107,39 L 105,39 L 104,40 L 103,39 Z" fill="black" /></svg>