<?xml version='1.0' encoding='utf-8'?>
<svg width="257" height="222" xmlns="http://www.w3.org/2000/svg" viewBox="0 0 257 222"><rect width="257" height="222" fill="white" /><path d="M 143,0 L 142,1 L 141,1 L 140,2 L 128,2 L 127,3 L 125,3 L 124,4 L 120,4 L 119,5 L 116,5 L 115,6 L 113,6 L 112,7 L 111,7 L 110,8 L 106,8 L 105,9 L 104,9 L 103,10 L 101,10 L 99,12 L 97,12 L 97,13 L 96,14 L 94,14 L 92,16 L 91,16 L 89,18 L 88,18 L 85,21 L 85,23 L 84,24 L 84,27 L 85,28 L 85,30 L 87,32 L 87,35 L 89,37 L 89,39 L 91,41 L 91,42 L 92,43 L 92,45 L 93,46 L 93,50 L 95,52 L 95,55 L 96,56 L 96,57 L 97,58 L 97,63 L 98,64 L 98,65 L 99,66 L 99,73 L 100,74 L 100,79 L 101,80 L 101,101 L 102,102 L 102,103 L 101,104 L 101,105 L 102,106 L 102,107 L 101,108 L 101,120 L 100,121 L 100,126 L 99,127 L 99,135 L 98,136 L 98,137 L 97,138 L 97,143 L 96,144 L 96,146 L 95,147 L 95,152 L 93,154 L 93,156 L 91,158 L 91,161 L 90,162 L 90,165 L 89,166 L 89,167 L 88,168 L 88,169 L 87,170 L 87,171 L 86,172 L 86,173 L 85,174 L 85,176 L 84,177 L 84,178 L 83,179 L 83,180 L 81,182 L 81,183 L 80,184 L 80,185 L 79,186 L 79,187 L 77,189 L 77,191 L 81,195 L 82,195 L 83,196 L 83,197 L 84,197 L 87,200 L 88,200 L 89,201 L 90,201 L 92,203 L 94,203 L 96,205 L 99,205 L 101,207 L 104,207 L 105,208 L 105,209 L 108,209 L 109,210 L 110,210 L 111,211 L 115,211 L 116,212 L 118,212 L 119,213 L 126,213 L 127,214 L 128,214 L 129,215 L 139,215 L 140,216 L 146,216 L 147,215 L 161,215 L 162,214 L 165,214 L 166,213 L 174,213 L 175,212 L 176,212 L 177,211 L 180,211 L 182,209 L 184,209 L 185,208 L 186,208 L 187,207 L 190,207 L 192,205 L 194,205 L 195,204 L 196,204 L 197,203 L 198,203 L 202,199 L 204,199 L 206,197 L 207,197 L 211,193 L 212,193 L 212,192 L 213,191 L 213,190 L 212,189 L 212,188 L 211,187 L 211,186 L 210,185 L 210,184 L 208,182 L 208,181 L 207,180 L 207,179 L 206,178 L 206,177 L 204,175 L 204,172 L 203,172 L 202,171 L 202,168 L 200,166 L 200,164 L 199,163 L 199,162 L 198,161 L 198,159 L 197,158 L 197,156 L 196,155 L 196,153 L 194,151 L 194,148 L 193,147 L 193,146 L 192,145 L 192,140 L 191,139 L 191,138 L 190,137 L 190,132 L 189,131 L 189,128 L 188,127 L 188,120 L 187,119 L 187,114 L 186,113 L 186,80 L 187,79 L 187,76 L 188,75 L 188,66 L 189,65 L 189,64 L 190,63 L 190,58 L 191,57 L 191,54 L 192,53 L 192,50 L 193,49 L 193,48 L 194,47 L 194,43 L 196,41 L 196,38 L 197,37 L 197,35 L 198,34 L 198,32 L 200,30 L 200,29 L 202,27 L 202,25 L 204,23 L 204,22 L 205,21 L 205,18 L 204,17 L 203,17 L 202,16 L 201,16 L 199,14 L 197,14 L 195,12 L 194,12 L 193,11 L 192,11 L 191,10 L 190,10 L 189,9 L 188,9 L 187,8 L 185,8 L 184,7 L 183,7 L 182,6 L 178,6 L 177,5 L 176,5 L 175,4 L 171,4 L 170,3 L 168,3 L 167,2 L 158,2 L 157,1 L 150,1 L 149,0 Z" fill="black" /><path d="M 139,6 L 138,7 L 137,7 L 136,8 L 127,8 L 126,9 L 123,9 L 122,10 L 120,10 L 119,11 L 117,11 L 116,12 L 113,12 L 112,13 L 111,13 L 110,14 L 108,14 L 107,15 L 106,15 L 105,16 L 103,16 L 102,17 L 101,17 L 100,18 L 99,18 L 97,20 L 95,20 L 91,24 L 91,27 L 92,27 L 93,28 L 93,31 L 95,33 L 95,34 L 96,35 L 96,37 L 97,38 L 97,41 L 98,42 L 98,43 L 99,44 L 99,48 L 101,50 L 101,53 L 102,54 L 102,57 L 103,58 L 103,63 L 104,64 L 104,67 L 105,68 L 105,74 L 106,75 L 106,79 L 107,80 L 107,118 L 106,119 L 106,121 L 107,122 L 107,123 L 106,124 L 106,127 L 105,128 L 105,133 L 104,134 L 104,136 L 103,137 L 103,143 L 102,144 L 102,146 L 101,147 L 101,152 L 99,154 L 99,159 L 97,161 L 97,163 L 96,164 L 96,165 L 95,166 L 95,169 L 93,171 L 93,173 L 92,174 L 92,175 L 91,176 L 91,178 L 89,180 L 89,181 L 88,182 L 88,183 L 87,184 L 87,185 L 85,187 L 85,190 L 86,190 L 87,191 L 88,191 L 89,192 L 89,193 L 90,193 L 92,195 L 93,195 L 95,197 L 96,197 L 98,199 L 100,199 L 102,201 L 103,201 L 104,202 L 105,202 L 106,203 L 109,203 L 111,205 L 115,205 L 116,206 L 120,206 L 121,207 L 124,207 L 125,208 L 126,208 L 127,209 L 136,209 L 137,210 L 138,210 L 139,209 L 142,209 L 143,210 L 146,210 L 147,209 L 148,209 L 149,210 L 151,210 L 152,209 L 154,209 L 155,210 L 156,210 L 157,209 L 162,209 L 163,208 L 164,208 L 165,207 L 170,207 L 171,206 L 172,206 L 173,205 L 177,205 L 178,204 L 179,204 L 180,203 L 182,203 L 183,202 L 185,202 L 186,201 L 187,201 L 189,199 L 190,199 L 191,198 L 192,198 L 193,197 L 194,197 L 195,196 L 196,196 L 197,195 L 198,195 L 200,193 L 202,193 L 204,191 L 204,188 L 202,186 L 202,184 L 200,182 L 200,180 L 198,178 L 198,177 L 196,175 L 196,173 L 194,171 L 194,169 L 193,168 L 193,167 L 192,166 L 192,164 L 191,163 L 191,162 L 190,161 L 190,158 L 189,157 L 189,156 L 188,155 L 188,150 L 187,149 L 187,148 L 186,147 L 186,144 L 185,143 L 185,140 L 184,139 L 184,136 L 183,135 L 183,133 L 182,132 L 182,126 L 181,125 L 181,123 L 180,122 L 180,108 L 179,107 L 179,102 L 180,101 L 180,100 L 179,99 L 179,91 L 180,90 L 180,76 L 181,75 L 181,73 L 182,72 L 182,64 L 183,63 L 183,60 L 184,59 L 184,55 L 185,54 L 185,53 L 186,52 L 186,48 L 187,47 L 187,45 L 188,44 L 188,40 L 190,38 L 190,35 L 192,33 L 192,30 L 193,29 L 193,28 L 194,27 L 194,25 L 196,23 L 196,20 L 194,18 L 193,18 L 192,17 L 191,17 L 190,16 L 187,16 L 185,14 L 183,14 L 182,13 L 181,13 L 180,12 L 177,12 L 175,10 L 170,10 L 169,9 L 167,9 L 166,8 L 157,8 L 156,7 L 155,7 L 154,6 L 153,6 L 152,7 L 147,7 L 146,6 Z" fill="none" stroke="black" stroke-width="1" /><circle cx="128" cy="110" r="169" fill="none" stroke="black" stroke-width="1" /></svg>