<?xml version='1.0' encoding='utf-8'?>
<svg width="259" height="218" xmlns="http://www.w3.org/2000/svg" viewBox="0 0 259 218"><rect width="259" height="218" fill="white" /><path d="M 120,34 L 119,35 L 109,35 L 108,36 L 97,36 L 96,37 L 95,37 L 94,36 L 92,38 L 89,38 L 88,39 L 84,39 L 83,40 L 79,40 L 79,41 L 78,42 L 75,42 L 74,43 L 73,43 L 72,44 L 71,44 L 69,46 L 63,46 L 61,48 L 57,48 L 56,49 L 55,49 L 54,50 L 53,50 L 51,52 L 50,52 L 49,53 L 48,53 L 47,54 L 45,54 L 43,56 L 41,56 L 41,57 L 40,58 L 39,58 L 36,61 L 36,65 L 37,65 L 43,71 L 44,71 L 47,74 L 47,76 L 49,78 L 49,80 L 50,81 L 50,82 L 51,83 L 51,85 L 52,86 L 52,91 L 53,92 L 53,95 L 52,96 L 52,101 L 51,102 L 51,106 L 50,107 L 50,109 L 49,110 L 49,111 L 48,112 L 48,113 L 45,116 L 45,117 L 42,120 L 41,120 L 41,121 L 40,122 L 39,122 L 37,124 L 37,128 L 38,129 L 39,129 L 41,131 L 42,131 L 46,135 L 48,135 L 49,136 L 50,136 L 51,137 L 51,138 L 52,139 L 53,139 L 55,141 L 56,141 L 57,142 L 58,142 L 59,143 L 60,143 L 62,145 L 64,145 L 66,147 L 67,147 L 69,149 L 70,149 L 71,150 L 73,150 L 74,151 L 75,151 L 77,153 L 80,153 L 81,154 L 84,154 L 85,155 L 86,155 L 88,157 L 93,157 L 95,159 L 101,159 L 103,161 L 113,161 L 114,162 L 115,162 L 116,163 L 124,163 L 125,164 L 140,164 L 141,163 L 161,163 L 162,162 L 167,162 L 168,161 L 174,161 L 175,160 L 176,160 L 177,159 L 180,159 L 181,158 L 184,158 L 185,157 L 188,157 L 189,156 L 190,156 L 191,155 L 194,155 L 195,154 L 196,154 L 197,153 L 199,153 L 200,152 L 201,152 L 202,151 L 205,151 L 206,150 L 207,150 L 208,149 L 210,149 L 211,148 L 212,148 L 213,147 L 214,147 L 216,145 L 218,145 L 220,143 L 221,143 L 223,141 L 224,141 L 224,137 L 223,137 L 221,135 L 221,134 L 220,134 L 218,132 L 217,132 L 216,131 L 216,130 L 212,126 L 212,124 L 211,123 L 211,122 L 210,121 L 210,120 L 209,119 L 209,116 L 208,115 L 208,102 L 209,101 L 209,100 L 210,99 L 210,95 L 212,93 L 212,92 L 213,91 L 213,90 L 214,89 L 214,88 L 216,86 L 216,85 L 218,83 L 218,82 L 219,81 L 220,81 L 222,79 L 223,79 L 224,78 L 225,78 L 226,77 L 228,77 L 229,76 L 229,73 L 227,71 L 227,70 L 226,69 L 226,68 L 224,66 L 223,66 L 222,65 L 221,65 L 220,64 L 219,64 L 218,63 L 218,62 L 216,60 L 214,60 L 212,58 L 210,58 L 208,56 L 207,56 L 205,54 L 203,54 L 201,52 L 200,52 L 199,51 L 198,51 L 197,50 L 195,50 L 194,49 L 194,48 L 192,48 L 191,47 L 189,47 L 188,46 L 186,46 L 184,44 L 181,44 L 180,43 L 179,43 L 178,42 L 175,42 L 174,41 L 173,41 L 172,40 L 168,40 L 167,39 L 166,39 L 165,38 L 159,38 L 158,37 L 154,37 L 153,36 L 147,36 L 146,35 L 143,35 L 142,34 Z" fill="black" /></svg>