<?xml version='1.0' encoding='utf-8'?>
<svg width="260" height="216" xmlns="http://www.w3.org/2000/svg" viewBox="0 0 260 216"><rect width="260" height="216" fill="white" /><path d="M 123,58 L 122,59 L 112,59 L 111,60 L 97,60 L 96,61 L 94,61 L 93,62 L 86,62 L 85,63 L 82,63 L 81,64 L 77,64 L 76,65 L 73,65 L 72,66 L 70,66 L 69,67 L 67,67 L 66,68 L 61,68 L 60,69 L 59,69 L 58,70 L 54,70 L 53,71 L 52,71 L 51,72 L 48,72 L 47,73 L 43,73 L 43,76 L 44,77 L 45,77 L 48,80 L 48,81 L 50,83 L 51,83 L 52,84 L 52,87 L 54,89 L 54,91 L 55,91 L 56,92 L 56,99 L 57,100 L 57,106 L 58,107 L 57,108 L 57,111 L 56,112 L 56,117 L 55,118 L 55,119 L 54,120 L 54,123 L 52,125 L 52,126 L 45,133 L 44,133 L 41,136 L 41,140 L 42,141 L 43,141 L 44,142 L 45,142 L 46,143 L 49,143 L 50,144 L 52,144 L 53,145 L 57,145 L 58,146 L 59,146 L 60,147 L 64,147 L 65,148 L 66,148 L 67,149 L 72,149 L 73,150 L 77,150 L 78,151 L 91,151 L 92,152 L 92,153 L 138,153 L 139,152 L 144,152 L 145,151 L 153,151 L 154,150 L 158,150 L 159,149 L 165,149 L 166,148 L 167,148 L 168,147 L 173,147 L 174,146 L 176,146 L 177,145 L 181,145 L 182,144 L 183,144 L 184,143 L 191,143 L 192,142 L 193,142 L 194,141 L 197,141 L 198,140 L 199,140 L 200,139 L 202,139 L 203,138 L 204,138 L 205,137 L 208,137 L 210,135 L 211,135 L 212,134 L 212,131 L 211,130 L 210,130 L 209,129 L 209,128 L 208,128 L 207,127 L 207,126 L 206,126 L 205,125 L 205,124 L 202,121 L 202,120 L 201,119 L 201,118 L 200,117 L 200,116 L 199,115 L 199,114 L 198,113 L 198,112 L 197,111 L 197,93 L 198,92 L 198,90 L 199,89 L 199,88 L 200,87 L 200,86 L 201,85 L 201,84 L 202,83 L 202,82 L 203,81 L 203,80 L 208,75 L 209,75 L 210,74 L 210,71 L 209,71 L 208,70 L 207,70 L 206,69 L 204,69 L 203,68 L 201,68 L 199,66 L 192,66 L 191,65 L 190,65 L 189,64 L 184,64 L 183,63 L 180,63 L 179,62 L 176,62 L 175,61 L 172,61 L 171,60 L 162,60 L 161,59 L 156,59 L 155,58 L 154,58 L 153,59 L 148,59 L 147,58 L 144,58 L 143,59 L 142,59 L 141,58 Z" fill="black" /><path d="M 0,0 L 0,215 L 259,215 L 259,0 Z" fill="none" stroke="black" stroke-width="1" /></svg>