<?xml version='1.0' encoding='utf-8'?>
<svg width="260" height="221" xmlns="http://www.w3.org/2000/svg" viewBox="0 0 260 221"><rect width="260" height="221" fill="white" /><path d="M 198,35 L 195,38 L 194,38 L 194,39 L 193,40 L 192,40 L 191,41 L 190,41 L 187,44 L 186,44 L 186,45 L 185,46 L 184,46 L 182,48 L 181,48 L 177,52 L 176,52 L 170,58 L 169,58 L 165,62 L 164,62 L 164,63 L 163,64 L 162,64 L 162,65 L 159,68 L 157,68 L 155,70 L 154,70 L 154,71 L 153,72 L 152,72 L 147,77 L 146,77 L 141,82 L 140,82 L 135,87 L 134,87 L 133,88 L 132,88 L 132,89 L 129,92 L 128,92 L 126,94 L 125,94 L 125,95 L 123,97 L 122,97 L 121,98 L 120,98 L 120,99 L 119,100 L 118,100 L 118,101 L 117,102 L 116,102 L 112,106 L 111,106 L 109,108 L 108,108 L 108,109 L 105,112 L 104,112 L 103,113 L 102,113 L 97,118 L 96,118 L 96,119 L 93,122 L 92,122 L 89,125 L 88,125 L 87,126 L 86,126 L 86,127 L 85,128 L 84,128 L 82,130 L 81,130 L 79,132 L 78,132 L 73,137 L 72,137 L 68,141 L 68,143 L 69,144 L 69,145 L 70,146 L 70,148 L 71,149 L 74,149 L 75,148 L 76,148 L 77,147 L 87,147 L 88,146 L 89,146 L 90,145 L 94,145 L 95,144 L 99,144 L 100,143 L 105,143 L 106,142 L 111,142 L 112,141 L 116,141 L 117,140 L 120,140 L 121,139 L 129,139 L 131,137 L 138,137 L 139,136 L 142,136 L 143,135 L 151,135 L 152,134 L 153,134 L 154,133 L 159,133 L 160,132 L 162,132 L 163,131 L 171,131 L 172,130 L 175,130 L 176,129 L 184,129 L 185,128 L 186,128 L 187,127 L 193,127 L 194,126 L 196,126 L 197,125 L 205,125 L 206,124 L 207,124 L 208,123 L 214,123 L 215,122 L 219,122 L 220,121 L 223,121 L 224,120 L 229,120 L 230,119 L 237,119 L 238,118 L 241,118 L 242,117 L 243,117 L 243,116 L 244,115 L 241,112 L 232,112 L 231,113 L 228,113 L 227,114 L 221,114 L 220,115 L 216,115 L 215,116 L 211,116 L 210,117 L 206,117 L 205,118 L 200,118 L 199,119 L 196,119 L 195,120 L 188,120 L 187,121 L 184,121 L 183,122 L 180,122 L 179,123 L 172,123 L 171,124 L 163,124 L 162,125 L 160,125 L 159,126 L 154,126 L 153,127 L 152,127 L 151,128 L 141,128 L 140,129 L 140,130 L 139,131 L 137,131 L 136,130 L 132,130 L 131,131 L 127,131 L 126,132 L 119,132 L 117,134 L 116,133 L 115,133 L 113,131 L 113,130 L 114,129 L 115,129 L 116,128 L 117,128 L 118,127 L 119,127 L 120,126 L 121,126 L 122,125 L 125,125 L 127,123 L 128,123 L 130,121 L 132,121 L 134,119 L 136,119 L 138,117 L 139,117 L 140,116 L 141,116 L 142,115 L 143,115 L 144,114 L 145,114 L 146,113 L 149,113 L 151,111 L 153,111 L 153,110 L 154,109 L 157,109 L 158,108 L 159,108 L 160,107 L 161,107 L 163,105 L 165,105 L 165,104 L 166,103 L 167,103 L 168,102 L 170,102 L 171,101 L 172,101 L 174,99 L 175,99 L 176,98 L 177,98 L 178,97 L 180,97 L 181,96 L 182,96 L 183,95 L 185,95 L 187,93 L 189,93 L 190,92 L 191,92 L 192,91 L 193,91 L 195,89 L 196,89 L 198,87 L 203,87 L 205,85 L 207,85 L 208,84 L 209,84 L 210,83 L 211,83 L 212,82 L 213,82 L 214,81 L 216,81 L 218,79 L 221,79 L 223,77 L 226,77 L 227,76 L 228,76 L 229,75 L 229,72 L 227,70 L 225,70 L 223,72 L 221,72 L 220,73 L 219,73 L 218,74 L 216,74 L 214,76 L 212,76 L 210,78 L 208,78 L 206,80 L 204,80 L 203,81 L 202,81 L 201,82 L 200,82 L 199,83 L 197,83 L 196,84 L 194,84 L 192,86 L 189,86 L 187,88 L 185,88 L 184,89 L 183,89 L 182,90 L 180,90 L 178,92 L 176,92 L 174,94 L 172,94 L 171,95 L 170,95 L 169,96 L 168,96 L 166,98 L 164,98 L 163,99 L 162,99 L 161,100 L 159,100 L 158,101 L 156,101 L 155,102 L 154,102 L 152,104 L 150,104 L 149,105 L 148,105 L 147,106 L 146,106 L 145,107 L 144,107 L 143,108 L 142,108 L 141,109 L 140,109 L 139,110 L 138,110 L 137,111 L 135,111 L 134,112 L 133,112 L 132,113 L 131,113 L 130,114 L 128,114 L 127,115 L 126,115 L 125,116 L 122,116 L 121,117 L 120,117 L 119,118 L 118,118 L 116,120 L 113,120 L 110,123 L 109,123 L 107,125 L 106,125 L 105,126 L 103,124 L 103,123 L 107,119 L 108,119 L 112,115 L 113,115 L 117,111 L 118,111 L 121,108 L 121,107 L 123,105 L 125,105 L 125,104 L 128,101 L 130,101 L 134,97 L 135,97 L 135,96 L 138,93 L 139,93 L 145,87 L 146,87 L 148,85 L 149,85 L 149,84 L 150,83 L 151,83 L 155,79 L 156,79 L 160,75 L 161,75 L 161,74 L 164,71 L 166,71 L 170,67 L 171,67 L 171,66 L 172,65 L 173,65 L 175,63 L 176,63 L 182,57 L 183,57 L 183,56 L 184,55 L 185,55 L 191,49 L 192,49 L 194,47 L 195,47 L 195,46 L 196,45 L 197,45 L 201,41 L 201,39 L 200,38 L 200,37 Z" fill="black" /><path d="M 0,0 L 0,220 L 259,220 L 259,0 Z" fill="none" stroke="black" stroke-width="1" /></svg>