<?xml version='1.0' encoding='utf-8'?>
<svg width="257" height="219" xmlns="http://www.w3.org/2000/svg" viewBox="0 0 257 219"><rect width="257" height="219" fill="white" /><path d="M 53,7 L 52,8 L 51,8 L 56,13 L 63,13 L 64,14 L 65,14 L 66,15 L 67,15 L 68,16 L 70,16 L 71,17 L 73,17 L 74,18 L 77,18 L 78,19 L 79,19 L 80,20 L 83,20 L 84,21 L 87,21 L 88,22 L 89,22 L 90,23 L 92,23 L 94,25 L 99,25 L 101,27 L 106,27 L 108,29 L 112,29 L 114,31 L 117,31 L 118,32 L 119,32 L 120,33 L 122,33 L 123,34 L 124,34 L 125,35 L 127,35 L 128,36 L 131,36 L 132,37 L 137,37 L 138,38 L 139,38 L 140,39 L 141,39 L 143,41 L 149,41 L 150,42 L 151,42 L 152,43 L 153,43 L 154,44 L 157,44 L 158,45 L 160,45 L 161,46 L 162,46 L 163,47 L 166,47 L 168,49 L 172,49 L 173,50 L 174,50 L 175,51 L 177,51 L 179,53 L 184,53 L 186,55 L 186,58 L 185,59 L 185,60 L 184,61 L 184,62 L 182,64 L 182,65 L 181,66 L 181,67 L 180,68 L 180,69 L 179,70 L 179,71 L 178,72 L 178,73 L 176,75 L 176,77 L 174,79 L 174,81 L 173,82 L 173,83 L 172,84 L 172,85 L 171,86 L 170,86 L 170,87 L 169,88 L 169,89 L 168,90 L 168,92 L 166,94 L 166,96 L 164,98 L 164,99 L 162,101 L 162,103 L 161,104 L 161,105 L 160,106 L 160,107 L 158,109 L 158,111 L 156,113 L 156,115 L 154,117 L 154,119 L 152,121 L 152,123 L 150,125 L 150,126 L 149,127 L 149,128 L 148,129 L 148,131 L 147,132 L 146,132 L 146,135 L 145,136 L 144,136 L 144,138 L 143,139 L 143,140 L 142,141 L 142,142 L 140,144 L 140,145 L 139,146 L 139,147 L 138,148 L 138,149 L 136,151 L 136,153 L 135,154 L 134,154 L 134,157 L 132,159 L 132,160 L 130,162 L 130,164 L 128,166 L 128,168 L 126,170 L 126,171 L 124,173 L 124,175 L 122,177 L 122,179 L 120,181 L 120,183 L 118,185 L 118,186 L 116,188 L 116,189 L 115,190 L 115,195 L 118,195 L 121,192 L 121,190 L 122,189 L 123,189 L 123,186 L 125,184 L 125,182 L 127,180 L 127,178 L 128,177 L 129,177 L 129,175 L 131,173 L 131,172 L 132,171 L 132,170 L 133,169 L 133,168 L 134,167 L 134,166 L 135,165 L 135,164 L 137,162 L 137,160 L 138,159 L 138,158 L 139,157 L 139,156 L 140,155 L 140,154 L 141,153 L 141,152 L 143,150 L 143,148 L 144,147 L 144,146 L 147,143 L 147,141 L 149,139 L 149,138 L 151,136 L 151,134 L 152,133 L 152,132 L 153,131 L 153,130 L 154,129 L 154,128 L 155,127 L 155,126 L 156,125 L 156,124 L 157,123 L 157,122 L 159,120 L 159,118 L 161,116 L 161,114 L 163,112 L 163,110 L 165,108 L 165,106 L 166,105 L 167,105 L 167,104 L 168,103 L 168,101 L 169,100 L 169,98 L 171,96 L 171,95 L 173,93 L 173,91 L 175,89 L 175,87 L 177,85 L 177,84 L 178,83 L 178,82 L 179,81 L 179,80 L 180,79 L 180,78 L 181,77 L 181,76 L 182,75 L 182,74 L 183,73 L 183,72 L 185,70 L 185,68 L 187,66 L 187,65 L 188,64 L 189,64 L 191,66 L 191,67 L 190,68 L 190,70 L 191,71 L 191,75 L 192,76 L 191,77 L 191,83 L 192,84 L 192,111 L 193,112 L 193,114 L 192,115 L 193,116 L 193,129 L 194,130 L 194,156 L 195,157 L 195,169 L 196,170 L 196,173 L 197,174 L 197,175 L 196,176 L 196,192 L 199,195 L 201,195 L 201,192 L 202,191 L 202,189 L 201,188 L 201,175 L 200,174 L 201,173 L 201,170 L 200,169 L 200,164 L 199,163 L 199,138 L 198,137 L 198,135 L 199,134 L 199,133 L 198,132 L 198,124 L 197,123 L 197,88 L 196,87 L 196,76 L 195,75 L 195,50 L 189,50 L 187,48 L 183,48 L 182,47 L 180,47 L 179,46 L 175,46 L 173,44 L 168,44 L 166,42 L 162,42 L 160,40 L 156,40 L 154,38 L 151,38 L 149,36 L 146,36 L 145,35 L 143,35 L 142,34 L 138,34 L 137,33 L 136,33 L 135,32 L 133,32 L 132,31 L 131,31 L 130,30 L 126,30 L 124,28 L 120,28 L 119,27 L 118,27 L 117,26 L 114,26 L 112,24 L 108,24 L 107,23 L 106,23 L 105,22 L 103,22 L 102,21 L 101,21 L 100,20 L 96,20 L 95,19 L 94,19 L 93,18 L 89,18 L 88,17 L 87,17 L 86,16 L 83,16 L 81,14 L 79,14 L 77,12 L 70,12 L 69,11 L 68,11 L 67,10 L 65,10 L 63,8 L 59,8 L 58,7 Z" fill="black" /><path d="M 0,0 L 0,218 L 256,218 L 256,0 Z" fill="none" stroke="black" stroke-width="1" /></svg>