<?xml version='1.0' encoding='utf-8'?>
<svg width="259" height="223" xmlns="http://www.w3.org/2000/svg" viewBox="0 0 259 223"><rect width="259" height="223" fill="white" /><path d="M 52,11 L 52,16 L 53,17 L 56,17 L 58,19 L 60,19 L 63,22 L 63,23 L 64,23 L 65,24 L 66,24 L 67,25 L 68,25 L 71,28 L 72,28 L 73,29 L 74,29 L 78,33 L 79,33 L 81,35 L 82,35 L 83,36 L 83,37 L 85,37 L 87,39 L 88,39 L 91,42 L 92,42 L 93,43 L 94,43 L 95,44 L 95,45 L 96,45 L 97,46 L 98,46 L 99,47 L 100,47 L 101,48 L 101,49 L 102,49 L 104,51 L 105,51 L 107,53 L 108,53 L 109,54 L 109,55 L 110,55 L 113,58 L 114,58 L 115,59 L 116,59 L 117,60 L 117,61 L 118,61 L 120,63 L 121,63 L 125,67 L 126,67 L 127,68 L 128,68 L 133,73 L 135,73 L 139,77 L 140,77 L 141,78 L 141,79 L 142,79 L 144,81 L 146,81 L 147,82 L 147,83 L 148,83 L 150,85 L 151,85 L 153,87 L 154,87 L 155,88 L 155,89 L 156,89 L 157,90 L 158,90 L 160,92 L 160,94 L 159,95 L 158,95 L 157,96 L 156,96 L 154,98 L 153,98 L 153,99 L 152,100 L 151,100 L 149,102 L 148,102 L 144,106 L 143,106 L 139,110 L 138,110 L 136,112 L 135,112 L 135,113 L 134,114 L 133,114 L 131,116 L 130,116 L 126,120 L 125,120 L 121,124 L 120,124 L 116,128 L 115,128 L 113,130 L 112,130 L 108,134 L 107,134 L 103,138 L 101,138 L 101,139 L 100,140 L 99,140 L 97,142 L 96,142 L 92,146 L 91,146 L 88,149 L 87,149 L 84,152 L 83,152 L 80,155 L 79,155 L 78,156 L 77,156 L 77,157 L 76,158 L 75,158 L 73,160 L 71,160 L 69,162 L 69,163 L 68,164 L 67,164 L 65,166 L 64,166 L 62,168 L 61,168 L 61,169 L 60,170 L 58,170 L 58,171 L 57,172 L 56,172 L 52,176 L 51,176 L 51,177 L 48,180 L 46,180 L 45,181 L 44,181 L 43,182 L 43,185 L 44,186 L 44,187 L 47,187 L 49,185 L 50,185 L 50,184 L 51,183 L 52,183 L 54,181 L 55,181 L 57,179 L 58,179 L 58,178 L 59,177 L 60,177 L 62,175 L 63,175 L 63,174 L 66,171 L 67,171 L 69,169 L 70,169 L 70,168 L 71,167 L 73,167 L 75,165 L 76,165 L 76,164 L 77,163 L 78,163 L 80,161 L 81,161 L 83,159 L 84,159 L 84,158 L 85,157 L 86,157 L 90,153 L 91,153 L 93,151 L 94,151 L 96,149 L 97,149 L 101,145 L 102,145 L 102,144 L 103,143 L 104,143 L 106,141 L 107,141 L 109,139 L 110,139 L 112,137 L 113,137 L 115,135 L 116,135 L 122,129 L 123,129 L 125,127 L 126,127 L 127,126 L 128,126 L 131,123 L 132,123 L 132,122 L 133,121 L 134,121 L 134,120 L 135,119 L 136,119 L 140,115 L 141,115 L 142,114 L 143,114 L 148,109 L 150,109 L 154,105 L 155,105 L 157,103 L 158,103 L 158,102 L 159,101 L 160,101 L 162,99 L 163,99 L 164,98 L 167,101 L 167,104 L 169,106 L 169,109 L 171,111 L 171,113 L 173,115 L 173,116 L 174,117 L 174,119 L 175,120 L 175,121 L 176,122 L 176,123 L 177,124 L 177,126 L 179,128 L 179,130 L 181,132 L 181,134 L 183,136 L 183,139 L 185,141 L 185,142 L 187,144 L 187,147 L 188,148 L 188,149 L 189,150 L 189,151 L 190,152 L 190,153 L 191,154 L 191,155 L 192,156 L 192,157 L 193,158 L 193,160 L 195,162 L 195,163 L 196,164 L 196,165 L 197,166 L 197,167 L 198,168 L 198,169 L 199,170 L 199,173 L 200,173 L 201,174 L 201,175 L 202,176 L 202,177 L 203,178 L 203,181 L 204,181 L 205,182 L 205,186 L 206,187 L 206,188 L 207,189 L 212,189 L 212,185 L 210,183 L 210,181 L 209,180 L 209,179 L 208,178 L 208,176 L 207,176 L 206,175 L 206,173 L 205,172 L 205,171 L 204,170 L 204,168 L 202,166 L 202,164 L 200,162 L 200,160 L 198,158 L 198,157 L 196,155 L 196,152 L 195,151 L 195,150 L 194,149 L 194,148 L 193,147 L 193,146 L 192,145 L 192,144 L 190,142 L 190,140 L 188,138 L 188,135 L 186,133 L 186,130 L 185,130 L 184,129 L 184,126 L 183,125 L 183,124 L 182,123 L 182,122 L 180,120 L 180,117 L 178,115 L 178,113 L 176,111 L 176,109 L 174,107 L 174,104 L 173,103 L 173,102 L 172,101 L 172,99 L 170,97 L 170,96 L 169,95 L 169,94 L 168,93 L 168,92 L 167,92 L 163,88 L 162,88 L 158,84 L 157,84 L 154,81 L 153,81 L 152,80 L 151,80 L 150,79 L 150,78 L 149,78 L 148,77 L 147,77 L 144,74 L 143,74 L 140,71 L 139,71 L 138,70 L 137,70 L 136,69 L 136,68 L 135,68 L 132,65 L 131,65 L 130,64 L 129,64 L 128,63 L 128,62 L 127,62 L 125,60 L 124,60 L 122,58 L 121,58 L 119,56 L 117,56 L 114,53 L 114,52 L 113,52 L 111,50 L 110,50 L 108,48 L 107,48 L 103,44 L 102,44 L 100,42 L 99,42 L 97,40 L 96,40 L 94,38 L 93,38 L 90,35 L 89,35 L 86,32 L 85,32 L 84,31 L 83,31 L 80,28 L 79,28 L 75,24 L 74,24 L 72,22 L 71,22 L 69,20 L 68,20 L 64,16 L 63,16 L 62,15 L 62,14 L 61,14 L 59,12 L 57,12 L 56,11 Z" fill="black" /><path d="M 0,0 L 0,222 L 258,222 L 258,0 Z" fill="none" stroke="black" stroke-width="1" /></svg>