<?xml version='1.0' encoding='utf-8'?>
<svg width="259" height="222" xmlns="http://www.w3.org/2000/svg" viewBox="0 0 259 222"><rect width="259" height="222" fill="white" /><path d="M 123,19 L 122,20 L 122,27 L 123,28 L 123,29 L 124,30 L 124,31 L 125,32 L 125,33 L 126,34 L 126,35 L 127,36 L 127,37 L 128,38 L 128,39 L 129,39 L 130,40 L 130,43 L 132,45 L 132,47 L 133,48 L 133,49 L 134,50 L 134,53 L 135,53 L 136,54 L 136,56 L 138,58 L 138,60 L 139,61 L 139,62 L 140,63 L 140,65 L 141,66 L 141,67 L 142,68 L 142,70 L 145,73 L 145,75 L 146,76 L 146,77 L 147,77 L 148,78 L 148,82 L 149,83 L 150,83 L 151,84 L 151,88 L 152,89 L 152,91 L 153,91 L 154,92 L 154,94 L 156,96 L 156,100 L 158,102 L 158,104 L 160,106 L 160,109 L 161,110 L 161,111 L 164,114 L 164,115 L 165,116 L 165,118 L 164,119 L 162,119 L 161,118 L 159,118 L 157,116 L 156,116 L 155,115 L 154,115 L 151,112 L 150,112 L 149,111 L 148,111 L 147,110 L 146,110 L 144,108 L 142,108 L 141,107 L 141,106 L 140,106 L 139,105 L 138,105 L 137,104 L 136,104 L 134,102 L 133,102 L 131,100 L 130,100 L 128,98 L 126,98 L 125,97 L 125,96 L 123,96 L 121,94 L 120,94 L 119,93 L 119,92 L 118,92 L 117,91 L 116,91 L 115,90 L 114,90 L 112,88 L 110,88 L 108,86 L 107,86 L 105,84 L 104,84 L 102,82 L 101,82 L 99,80 L 98,80 L 97,79 L 96,79 L 95,78 L 94,78 L 92,76 L 91,76 L 89,74 L 88,74 L 87,73 L 86,73 L 85,72 L 84,72 L 82,70 L 81,70 L 79,68 L 78,68 L 75,65 L 74,65 L 73,64 L 72,64 L 71,63 L 70,63 L 69,62 L 68,62 L 66,60 L 65,60 L 64,59 L 63,59 L 62,58 L 61,58 L 59,56 L 58,56 L 56,54 L 55,54 L 53,52 L 52,52 L 50,50 L 48,50 L 47,49 L 46,49 L 45,48 L 44,48 L 42,46 L 40,46 L 38,44 L 37,44 L 35,42 L 34,42 L 33,41 L 32,41 L 31,40 L 30,40 L 28,38 L 24,38 L 23,39 L 23,40 L 25,42 L 26,42 L 27,43 L 29,43 L 32,46 L 33,46 L 34,47 L 35,47 L 36,48 L 37,48 L 40,51 L 41,51 L 42,52 L 43,52 L 44,53 L 45,53 L 46,54 L 46,55 L 49,55 L 53,59 L 54,59 L 56,61 L 57,61 L 58,62 L 59,62 L 60,63 L 61,63 L 64,66 L 65,66 L 66,67 L 67,67 L 68,68 L 69,68 L 72,71 L 75,71 L 76,72 L 76,73 L 78,73 L 80,75 L 81,75 L 82,76 L 82,77 L 84,77 L 85,78 L 86,78 L 87,79 L 88,79 L 90,81 L 91,81 L 94,84 L 96,84 L 97,85 L 98,85 L 100,87 L 101,87 L 102,88 L 102,89 L 103,89 L 104,90 L 105,90 L 106,91 L 107,91 L 108,92 L 109,92 L 110,93 L 111,93 L 113,95 L 114,95 L 116,97 L 118,97 L 122,101 L 124,101 L 126,103 L 127,103 L 128,104 L 128,105 L 129,105 L 130,106 L 131,106 L 132,107 L 133,107 L 134,108 L 135,108 L 136,109 L 137,109 L 138,110 L 138,111 L 139,111 L 141,113 L 143,113 L 145,115 L 147,115 L 150,118 L 151,118 L 152,119 L 153,119 L 155,121 L 157,121 L 159,123 L 162,123 L 165,126 L 165,127 L 163,129 L 162,129 L 161,128 L 152,128 L 151,129 L 142,129 L 141,130 L 140,130 L 139,129 L 138,129 L 137,130 L 100,130 L 99,131 L 98,131 L 97,130 L 92,130 L 91,131 L 81,131 L 80,130 L 79,131 L 76,131 L 75,132 L 40,132 L 39,133 L 33,133 L 32,132 L 31,133 L 28,133 L 27,134 L 25,134 L 24,133 L 20,133 L 19,134 L 18,134 L 17,133 L 9,133 L 8,134 L 8,138 L 9,139 L 18,139 L 19,138 L 35,138 L 36,137 L 40,137 L 41,138 L 43,138 L 44,137 L 65,137 L 66,136 L 97,136 L 98,135 L 139,135 L 140,134 L 158,134 L 159,133 L 162,133 L 163,134 L 165,134 L 166,133 L 175,133 L 176,132 L 176,129 L 175,128 L 175,126 L 173,124 L 173,122 L 171,120 L 171,119 L 169,117 L 169,115 L 168,114 L 168,113 L 167,112 L 167,110 L 166,109 L 166,108 L 165,107 L 165,104 L 163,102 L 163,101 L 162,100 L 162,99 L 161,98 L 161,95 L 159,93 L 159,92 L 158,91 L 158,90 L 157,89 L 157,87 L 155,85 L 155,84 L 154,83 L 154,82 L 153,81 L 153,78 L 151,76 L 151,74 L 150,73 L 150,72 L 149,71 L 149,70 L 148,69 L 148,68 L 147,67 L 147,65 L 145,63 L 145,62 L 144,61 L 144,60 L 143,59 L 143,56 L 142,56 L 141,55 L 141,53 L 139,51 L 139,48 L 138,47 L 138,46 L 137,45 L 137,44 L 136,43 L 136,42 L 135,41 L 135,39 L 133,37 L 133,35 L 132,34 L 132,33 L 131,32 L 131,31 L 129,29 L 129,26 L 127,24 L 127,22 L 124,19 Z" fill="black" /><path d="M 0,0 L 0,221 L 258,221 L 258,0 Z" fill="none" stroke="black" stroke-width="1" /></svg>