<?xml version='1.0' encoding='utf-8'?>
<svg width="257" height="219" xmlns="http://www.w3.org/2000/svg" viewBox="0 0 257 219"><rect width="257" height="219" fill="white" /><path d="M 34,40 L 33,41 L 32,41 L 32,44 L 31,45 L 31,47 L 32,48 L 32,74 L 33,75 L 33,120 L 34,121 L 34,154 L 35,155 L 35,176 L 36,176 L 38,178 L 43,178 L 44,177 L 52,177 L 53,176 L 56,176 L 57,177 L 58,177 L 59,176 L 73,176 L 74,177 L 75,177 L 76,176 L 106,176 L 107,175 L 108,175 L 109,176 L 120,176 L 121,175 L 122,175 L 123,176 L 125,176 L 126,175 L 134,175 L 135,174 L 139,174 L 140,175 L 147,175 L 148,174 L 189,174 L 190,173 L 191,173 L 192,174 L 195,174 L 196,173 L 199,173 L 200,174 L 201,173 L 219,173 L 220,172 L 221,172 L 221,168 L 220,168 L 219,167 L 217,167 L 216,168 L 209,168 L 208,167 L 207,168 L 196,168 L 195,169 L 147,169 L 146,170 L 142,170 L 141,169 L 140,170 L 139,170 L 138,169 L 128,169 L 127,170 L 117,170 L 116,171 L 52,171 L 51,172 L 50,172 L 48,170 L 48,169 L 50,167 L 51,167 L 52,166 L 52,165 L 53,164 L 54,164 L 54,163 L 63,154 L 63,153 L 68,148 L 68,147 L 71,144 L 72,144 L 72,143 L 73,142 L 74,142 L 74,141 L 79,136 L 79,135 L 84,130 L 84,129 L 85,128 L 86,128 L 92,122 L 92,121 L 95,118 L 96,118 L 96,117 L 97,116 L 98,116 L 98,115 L 99,114 L 100,114 L 100,113 L 112,101 L 112,100 L 113,99 L 114,99 L 114,98 L 116,96 L 116,95 L 117,94 L 118,94 L 118,93 L 121,90 L 122,90 L 122,89 L 123,88 L 124,88 L 124,87 L 125,86 L 126,86 L 126,85 L 130,81 L 130,80 L 132,78 L 133,78 L 136,75 L 136,74 L 144,66 L 144,65 L 145,64 L 146,64 L 148,62 L 148,61 L 151,58 L 151,56 L 150,55 L 150,54 L 149,53 L 146,53 L 144,55 L 144,56 L 143,57 L 142,57 L 140,59 L 139,59 L 139,61 L 138,62 L 137,62 L 136,63 L 136,64 L 134,66 L 133,66 L 131,68 L 131,70 L 128,73 L 127,73 L 127,74 L 126,75 L 125,75 L 125,76 L 124,77 L 124,78 L 122,80 L 121,80 L 120,81 L 120,82 L 119,83 L 118,83 L 116,85 L 116,86 L 111,91 L 111,92 L 110,93 L 109,93 L 107,95 L 107,96 L 106,97 L 105,97 L 105,98 L 104,99 L 103,99 L 103,100 L 102,101 L 102,102 L 99,105 L 98,105 L 97,106 L 97,107 L 91,113 L 91,114 L 90,115 L 89,115 L 89,116 L 81,124 L 81,125 L 75,131 L 75,132 L 74,133 L 73,133 L 73,134 L 70,137 L 70,138 L 69,139 L 68,139 L 63,144 L 63,145 L 61,147 L 61,148 L 58,151 L 57,151 L 55,153 L 55,154 L 50,159 L 49,159 L 49,160 L 48,161 L 47,161 L 47,162 L 45,164 L 45,165 L 44,166 L 43,166 L 42,167 L 41,167 L 40,166 L 40,165 L 39,164 L 40,163 L 40,147 L 39,146 L 40,145 L 40,138 L 39,137 L 39,132 L 38,131 L 38,128 L 39,127 L 39,123 L 38,122 L 38,120 L 39,119 L 39,116 L 38,115 L 38,95 L 37,94 L 38,93 L 38,79 L 37,78 L 37,77 L 38,76 L 38,66 L 37,65 L 37,57 L 38,56 L 38,47 L 37,46 L 37,44 L 36,43 L 36,41 L 35,40 Z" fill="black" /><path d="M 0,0 L 0,218 L 256,218 L 256,0 Z" fill="none" stroke="black" stroke-width="1" /></svg>