<?xml version='1.0' encoding='utf-8'?>
<svg width="258" height="219" xmlns="http://www.w3.org/2000/svg" viewBox="0 0 258 219"><rect width="258" height="219" fill="white" /><path d="M 99,28 L 97,30 L 97,33 L 94,36 L 94,38 L 93,39 L 93,40 L 92,41 L 92,43 L 90,45 L 90,48 L 88,50 L 88,54 L 86,56 L 86,58 L 84,60 L 84,62 L 82,64 L 82,67 L 81,68 L 81,69 L 80,70 L 80,72 L 78,74 L 78,76 L 76,78 L 76,82 L 75,83 L 75,84 L 74,85 L 74,87 L 73,88 L 73,89 L 71,91 L 71,92 L 70,93 L 70,94 L 69,95 L 69,96 L 68,97 L 68,100 L 67,101 L 67,102 L 66,103 L 66,104 L 65,105 L 65,106 L 64,107 L 64,110 L 62,112 L 62,114 L 61,115 L 61,116 L 60,117 L 60,120 L 59,121 L 59,122 L 58,123 L 58,124 L 57,125 L 57,126 L 56,127 L 56,131 L 55,132 L 54,132 L 54,134 L 53,135 L 53,136 L 52,137 L 52,138 L 51,139 L 51,140 L 50,141 L 50,145 L 48,147 L 48,149 L 47,150 L 47,151 L 46,152 L 46,153 L 45,154 L 44,154 L 43,155 L 41,153 L 41,134 L 40,133 L 40,123 L 41,122 L 40,121 L 40,109 L 39,108 L 39,73 L 38,72 L 38,53 L 37,52 L 37,46 L 34,46 L 33,47 L 33,51 L 32,52 L 32,53 L 33,54 L 33,66 L 34,67 L 34,70 L 33,71 L 33,74 L 34,75 L 34,109 L 35,110 L 35,125 L 36,126 L 36,165 L 37,166 L 37,173 L 38,174 L 43,174 L 45,172 L 51,172 L 52,171 L 53,171 L 54,170 L 58,170 L 59,169 L 60,169 L 61,168 L 66,168 L 67,167 L 69,167 L 70,166 L 74,166 L 76,164 L 83,164 L 84,163 L 85,163 L 86,162 L 89,162 L 90,161 L 93,161 L 94,160 L 96,160 L 97,159 L 99,159 L 100,158 L 105,158 L 106,157 L 109,157 L 110,156 L 111,156 L 112,155 L 115,155 L 116,154 L 119,154 L 120,153 L 123,153 L 124,152 L 127,152 L 128,151 L 130,151 L 131,150 L 135,150 L 136,149 L 137,149 L 138,148 L 143,148 L 145,146 L 149,146 L 150,145 L 153,145 L 154,144 L 157,144 L 158,143 L 159,143 L 160,142 L 165,142 L 166,141 L 167,141 L 168,140 L 172,140 L 173,139 L 174,139 L 175,138 L 181,138 L 182,137 L 183,137 L 184,136 L 188,136 L 189,135 L 190,135 L 191,134 L 194,134 L 194,131 L 193,130 L 191,130 L 190,131 L 184,131 L 183,132 L 182,132 L 181,133 L 176,133 L 175,134 L 174,134 L 173,135 L 169,135 L 167,137 L 163,137 L 162,138 L 160,138 L 159,139 L 155,139 L 154,140 L 153,140 L 152,141 L 146,141 L 144,143 L 139,143 L 138,144 L 137,144 L 136,145 L 132,145 L 131,146 L 129,146 L 128,147 L 126,147 L 125,148 L 121,148 L 120,149 L 116,149 L 114,151 L 109,151 L 108,152 L 107,152 L 106,153 L 102,153 L 101,154 L 98,154 L 97,155 L 91,155 L 89,157 L 86,157 L 85,158 L 82,158 L 81,159 L 76,159 L 75,160 L 74,160 L 73,161 L 70,161 L 69,162 L 68,162 L 67,163 L 62,163 L 61,164 L 60,164 L 59,165 L 54,165 L 53,166 L 48,166 L 47,165 L 47,162 L 48,161 L 48,160 L 49,159 L 49,157 L 51,155 L 51,152 L 53,150 L 53,147 L 54,146 L 55,146 L 55,142 L 56,141 L 56,140 L 58,138 L 58,137 L 59,136 L 59,133 L 61,131 L 61,129 L 62,128 L 62,127 L 63,126 L 63,122 L 65,120 L 65,118 L 66,117 L 66,116 L 67,115 L 67,114 L 69,112 L 69,110 L 71,108 L 71,105 L 72,104 L 72,103 L 73,102 L 73,99 L 74,98 L 74,97 L 75,96 L 75,95 L 76,94 L 76,93 L 77,92 L 77,90 L 78,89 L 78,88 L 79,87 L 79,85 L 81,83 L 81,81 L 82,80 L 82,78 L 83,77 L 83,76 L 85,74 L 85,72 L 87,70 L 87,67 L 88,66 L 88,65 L 89,64 L 89,61 L 91,59 L 91,58 L 92,57 L 92,56 L 93,55 L 93,53 L 95,51 L 95,49 L 96,48 L 96,47 L 97,46 L 97,43 L 99,41 L 99,39 L 100,38 L 100,37 L 101,36 L 101,34 L 102,33 L 102,30 L 100,28 Z" fill="black" /><path d="M 0,0 L 0,218 L 257,218 L 257,0 Z" fill="none" stroke="black" stroke-width="1" /></svg>