<?xml version='1.0' encoding='utf-8'?>
<svg width="257" height="219" xmlns="http://www.w3.org/2000/svg" viewBox="0 0 257 219"><rect width="257" height="219" fill="white" /><path d="M 98,54 L 97,55 L 96,55 L 95,56 L 94,56 L 92,58 L 92,59 L 90,61 L 90,62 L 88,64 L 88,65 L 87,66 L 86,66 L 86,67 L 84,69 L 84,71 L 83,72 L 82,72 L 82,73 L 80,75 L 80,76 L 78,78 L 78,79 L 77,80 L 77,81 L 74,84 L 74,85 L 72,87 L 72,88 L 70,90 L 70,91 L 68,93 L 68,95 L 66,97 L 66,98 L 65,99 L 64,99 L 63,100 L 63,101 L 60,104 L 60,105 L 57,108 L 57,109 L 54,112 L 54,114 L 50,118 L 50,119 L 48,121 L 48,123 L 45,126 L 44,126 L 44,127 L 43,128 L 43,129 L 42,130 L 42,131 L 41,132 L 41,133 L 38,136 L 38,137 L 37,138 L 37,139 L 36,140 L 36,141 L 35,142 L 34,142 L 34,143 L 33,144 L 32,144 L 32,145 L 30,147 L 30,148 L 28,150 L 28,151 L 27,152 L 27,153 L 22,158 L 22,159 L 21,160 L 20,160 L 20,161 L 19,162 L 19,163 L 17,165 L 17,168 L 18,169 L 19,169 L 20,170 L 22,168 L 22,167 L 23,166 L 23,165 L 27,161 L 27,159 L 29,157 L 29,156 L 30,155 L 31,155 L 31,154 L 32,153 L 33,153 L 33,152 L 34,151 L 34,150 L 35,149 L 35,148 L 36,147 L 37,147 L 37,146 L 38,145 L 38,144 L 39,143 L 39,142 L 40,141 L 41,141 L 41,140 L 44,137 L 44,136 L 45,135 L 45,134 L 46,133 L 47,133 L 47,132 L 48,131 L 48,130 L 49,129 L 49,128 L 50,127 L 51,127 L 51,126 L 52,125 L 52,124 L 55,121 L 55,120 L 57,118 L 57,117 L 59,115 L 59,114 L 62,111 L 62,110 L 63,109 L 63,108 L 64,107 L 65,107 L 65,106 L 66,105 L 66,104 L 67,103 L 67,102 L 68,101 L 69,101 L 69,100 L 70,99 L 70,98 L 73,95 L 73,94 L 75,92 L 75,91 L 77,89 L 77,88 L 78,87 L 79,87 L 79,86 L 80,85 L 80,84 L 81,83 L 81,82 L 84,79 L 84,78 L 86,76 L 87,76 L 89,78 L 89,79 L 86,82 L 86,87 L 85,88 L 85,89 L 84,90 L 84,93 L 83,94 L 83,95 L 82,96 L 82,100 L 80,102 L 80,105 L 79,106 L 79,107 L 78,108 L 78,113 L 77,114 L 77,115 L 76,116 L 76,118 L 75,119 L 75,121 L 74,122 L 74,124 L 73,125 L 73,126 L 72,127 L 72,131 L 71,132 L 71,133 L 70,134 L 70,137 L 69,138 L 69,140 L 68,141 L 68,145 L 67,146 L 67,147 L 66,148 L 66,150 L 65,151 L 65,153 L 64,154 L 64,157 L 63,158 L 63,159 L 62,160 L 62,162 L 61,163 L 61,167 L 60,168 L 60,171 L 59,172 L 59,173 L 58,174 L 58,176 L 57,177 L 57,180 L 56,181 L 56,183 L 55,184 L 55,185 L 54,186 L 54,189 L 56,191 L 58,191 L 59,190 L 59,189 L 60,188 L 60,187 L 61,186 L 61,182 L 62,181 L 62,179 L 63,178 L 63,174 L 64,173 L 64,172 L 65,171 L 65,166 L 67,164 L 67,160 L 68,159 L 68,158 L 69,157 L 69,154 L 70,153 L 70,152 L 71,151 L 71,147 L 72,146 L 72,145 L 73,144 L 73,142 L 74,141 L 74,140 L 75,139 L 75,134 L 76,133 L 76,132 L 77,131 L 77,128 L 78,127 L 78,126 L 79,125 L 79,122 L 80,121 L 80,120 L 81,119 L 81,115 L 82,114 L 82,112 L 83,111 L 83,109 L 84,108 L 84,106 L 85,105 L 85,102 L 86,101 L 86,100 L 87,99 L 87,96 L 88,95 L 88,94 L 89,93 L 89,89 L 90,88 L 90,87 L 91,86 L 91,82 L 92,81 L 92,80 L 93,79 L 93,75 L 95,73 L 95,71 L 96,70 L 96,69 L 97,68 L 97,65 L 99,63 L 99,62 L 102,59 L 127,59 L 128,60 L 129,60 L 130,59 L 132,59 L 133,60 L 134,59 L 139,59 L 140,60 L 144,60 L 145,59 L 146,60 L 148,60 L 149,61 L 151,61 L 152,60 L 154,60 L 155,61 L 190,61 L 191,62 L 192,61 L 196,61 L 197,62 L 199,62 L 200,63 L 202,63 L 203,62 L 211,62 L 212,63 L 215,63 L 216,62 L 218,62 L 219,63 L 240,63 L 242,61 L 242,59 L 241,58 L 231,58 L 230,57 L 228,57 L 227,58 L 213,58 L 212,57 L 206,57 L 205,58 L 201,58 L 200,57 L 195,57 L 194,56 L 190,56 L 189,57 L 188,57 L 187,56 L 186,56 L 185,57 L 182,57 L 181,56 L 144,56 L 143,55 L 122,55 L 121,54 L 120,55 L 116,55 L 115,56 L 114,55 L 110,55 L 109,54 Z" fill="black" /><path d="M 0,0 L 0,218 L 256,218 L 256,0 Z" fill="none" stroke="black" stroke-width="1" /></svg>