<?xml version='1.0' encoding='utf-8'?>
<svg width="259" height="221" xmlns="http://www.w3.org/2000/svg" viewBox="0 0 259 221"><rect width="259" height="221" fill="white" /><path d="M 81,151 L 80,152 L 79,152 L 76,155 L 75,155 L 75,156 L 74,157 L 72,157 L 68,161 L 67,161 L 67,162 L 66,163 L 65,163 L 64,164 L 63,164 L 62,165 L 61,165 L 61,166 L 60,167 L 59,167 L 57,169 L 56,169 L 52,173 L 51,173 L 51,174 L 50,175 L 48,175 L 44,179 L 43,179 L 41,181 L 40,181 L 36,185 L 35,185 L 34,186 L 33,186 L 32,187 L 32,188 L 29,191 L 25,191 L 25,192 L 20,197 L 20,200 L 24,200 L 26,198 L 27,198 L 31,194 L 32,194 L 32,193 L 33,192 L 34,192 L 35,191 L 36,191 L 39,188 L 40,188 L 40,187 L 41,186 L 42,186 L 43,185 L 44,185 L 47,182 L 48,182 L 48,181 L 49,180 L 50,180 L 53,177 L 54,177 L 57,174 L 58,174 L 59,173 L 60,173 L 61,172 L 62,172 L 62,171 L 63,170 L 64,170 L 64,169 L 65,168 L 66,168 L 68,166 L 70,166 L 70,165 L 71,164 L 72,164 L 75,161 L 76,161 L 77,160 L 78,160 L 78,159 L 79,158 L 80,158 L 81,157 L 82,157 L 85,154 L 85,151 Z" fill="black" /><path d="M 141,139 L 140,140 L 140,141 L 144,145 L 146,145 L 147,146 L 148,146 L 149,147 L 150,147 L 155,152 L 156,152 L 157,153 L 158,153 L 159,154 L 160,154 L 163,157 L 164,157 L 165,158 L 168,158 L 169,159 L 169,160 L 170,160 L 172,162 L 174,162 L 175,163 L 177,163 L 178,164 L 179,164 L 183,168 L 184,168 L 188,172 L 190,172 L 191,173 L 191,174 L 192,174 L 193,175 L 194,175 L 195,176 L 196,176 L 199,179 L 200,179 L 201,180 L 202,180 L 203,181 L 203,182 L 204,182 L 206,184 L 207,184 L 209,186 L 210,186 L 211,187 L 212,187 L 213,188 L 214,188 L 215,189 L 216,189 L 220,193 L 221,192 L 222,192 L 222,189 L 221,189 L 218,186 L 217,186 L 216,185 L 215,185 L 214,184 L 214,183 L 213,183 L 211,181 L 210,181 L 208,179 L 207,179 L 206,178 L 205,178 L 204,177 L 202,177 L 200,175 L 198,175 L 194,171 L 193,171 L 192,170 L 192,169 L 190,167 L 188,167 L 186,165 L 185,165 L 183,163 L 182,163 L 180,161 L 179,161 L 177,159 L 175,159 L 173,157 L 170,157 L 168,155 L 167,155 L 166,154 L 165,154 L 164,153 L 163,153 L 161,151 L 160,151 L 156,147 L 154,147 L 152,145 L 151,145 L 149,143 L 148,143 L 146,141 L 145,141 L 144,140 L 143,140 L 142,139 Z" fill="black" /><path d="M 58,31 L 58,37 L 64,37 L 65,36 L 68,36 L 69,37 L 78,37 L 79,36 L 80,36 L 81,37 L 86,37 L 87,36 L 92,36 L 93,37 L 97,37 L 98,36 L 101,36 L 102,37 L 110,37 L 111,36 L 112,36 L 113,37 L 119,37 L 120,36 L 129,36 L 130,37 L 153,37 L 154,38 L 155,37 L 160,37 L 161,36 L 162,37 L 170,37 L 171,38 L 172,38 L 173,37 L 176,37 L 177,38 L 186,38 L 187,37 L 187,34 L 185,32 L 177,32 L 176,33 L 175,33 L 174,32 L 164,32 L 163,33 L 158,33 L 156,31 L 153,31 L 152,32 L 150,32 L 149,31 L 143,31 L 142,32 L 125,32 L 124,31 Z" fill="black" /><path d="M 0,0 L 0,220 L 258,220 L 258,0 Z" fill="none" stroke="black" stroke-width="1" /></svg>