<?xml version='1.0' encoding='utf-8'?>
<svg width="259" height="219" xmlns="http://www.w3.org/2000/svg" viewBox="0 0 259 219"><rect width="259" height="219" fill="white" /><path d="M 112,145 L 112,146 L 111,147 L 111,152 L 110,153 L 110,159 L 109,160 L 109,166 L 108,167 L 108,171 L 107,172 L 107,180 L 106,181 L 106,182 L 105,183 L 105,192 L 104,193 L 104,194 L 103,195 L 103,203 L 105,203 L 106,202 L 107,202 L 108,201 L 108,199 L 109,198 L 109,195 L 110,194 L 110,188 L 111,187 L 111,183 L 112,182 L 112,177 L 113,176 L 113,173 L 114,172 L 114,163 L 115,162 L 115,159 L 116,158 L 116,153 L 117,152 L 117,147 L 116,146 L 116,145 Z" fill="black" /><path d="M 247,26 L 246,27 L 245,27 L 245,28 L 244,29 L 242,29 L 240,31 L 237,31 L 235,33 L 233,33 L 230,36 L 229,36 L 228,37 L 225,37 L 224,38 L 223,38 L 222,39 L 220,39 L 218,41 L 217,41 L 215,43 L 213,43 L 212,44 L 211,44 L 210,45 L 209,45 L 208,46 L 207,46 L 206,47 L 205,47 L 204,48 L 203,48 L 201,50 L 199,50 L 198,51 L 197,51 L 197,52 L 196,53 L 193,53 L 193,54 L 192,55 L 189,55 L 188,56 L 187,56 L 186,57 L 185,57 L 184,58 L 183,58 L 182,59 L 181,59 L 179,61 L 179,62 L 178,63 L 179,64 L 184,64 L 184,63 L 185,62 L 187,62 L 189,60 L 191,60 L 193,58 L 196,58 L 196,57 L 197,56 L 199,56 L 200,55 L 201,55 L 202,54 L 204,54 L 206,52 L 208,52 L 210,50 L 212,50 L 214,48 L 216,48 L 218,46 L 220,46 L 222,44 L 224,44 L 224,43 L 225,42 L 228,42 L 230,40 L 232,40 L 234,38 L 236,38 L 236,37 L 237,36 L 240,36 L 242,34 L 244,34 L 245,33 L 246,33 L 247,32 L 248,32 L 249,31 L 251,31 L 253,29 L 252,28 L 252,27 L 251,27 L 250,26 Z" fill="black" /><path d="M 25,3 L 24,4 L 25,5 L 25,6 L 27,8 L 28,8 L 29,9 L 29,10 L 31,12 L 33,12 L 36,15 L 36,16 L 38,18 L 39,18 L 43,22 L 44,22 L 45,23 L 45,24 L 46,24 L 47,25 L 47,26 L 48,26 L 55,33 L 56,33 L 59,36 L 60,36 L 61,37 L 61,38 L 63,40 L 64,40 L 65,41 L 65,42 L 66,42 L 67,43 L 67,44 L 68,44 L 72,48 L 73,48 L 75,50 L 75,51 L 76,52 L 77,52 L 81,56 L 82,56 L 83,57 L 83,58 L 85,60 L 86,60 L 87,61 L 87,62 L 88,62 L 89,63 L 89,64 L 90,64 L 91,65 L 91,66 L 92,66 L 93,67 L 93,68 L 94,68 L 95,69 L 95,70 L 96,70 L 104,78 L 106,78 L 109,81 L 109,82 L 110,82 L 111,83 L 112,83 L 114,85 L 114,86 L 115,87 L 115,88 L 118,91 L 121,91 L 122,90 L 122,86 L 120,84 L 120,83 L 119,83 L 112,76 L 111,76 L 108,73 L 107,73 L 104,70 L 104,69 L 103,69 L 102,68 L 102,67 L 101,67 L 100,66 L 100,65 L 99,65 L 98,64 L 98,63 L 97,63 L 96,62 L 96,61 L 95,61 L 92,58 L 91,58 L 90,57 L 89,57 L 88,56 L 88,55 L 84,51 L 83,51 L 82,50 L 82,49 L 81,49 L 80,48 L 80,47 L 79,47 L 74,42 L 73,42 L 71,40 L 71,39 L 70,38 L 69,38 L 68,37 L 67,37 L 66,36 L 66,35 L 64,33 L 63,33 L 62,32 L 62,31 L 61,31 L 60,30 L 60,29 L 59,29 L 54,24 L 53,24 L 46,17 L 45,17 L 44,16 L 44,15 L 43,15 L 42,14 L 42,13 L 41,13 L 36,8 L 35,8 L 33,6 L 32,6 L 29,3 Z" fill="black" /><path d="M 0,0 L 0,218 L 258,218 L 258,0 Z" fill="none" stroke="black" stroke-width="1" /></svg>