<?xml version='1.0' encoding='utf-8'?>
<svg width="261" height="217" xmlns="http://www.w3.org/2000/svg" viewBox="0 0 261 217"><rect width="261" height="217" fill="white" /><path d="M 153,140 L 152,141 L 153,142 L 153,143 L 154,144 L 154,145 L 156,147 L 158,147 L 161,150 L 161,151 L 162,151 L 164,153 L 165,153 L 169,157 L 170,157 L 171,158 L 171,159 L 173,159 L 177,163 L 179,163 L 182,166 L 182,167 L 183,167 L 185,169 L 186,169 L 187,170 L 187,171 L 188,171 L 189,172 L 189,173 L 190,173 L 192,175 L 194,175 L 197,178 L 197,179 L 198,179 L 200,181 L 201,181 L 202,182 L 202,183 L 203,183 L 207,187 L 208,187 L 209,188 L 209,189 L 210,189 L 211,190 L 212,190 L 213,191 L 214,191 L 215,192 L 215,193 L 217,195 L 218,195 L 220,197 L 221,197 L 225,201 L 226,201 L 228,203 L 229,203 L 231,205 L 232,205 L 233,206 L 233,207 L 237,211 L 240,211 L 241,210 L 241,207 L 238,204 L 237,204 L 236,203 L 236,202 L 235,202 L 234,201 L 234,200 L 233,200 L 232,199 L 232,198 L 231,198 L 230,197 L 229,197 L 226,194 L 225,194 L 224,193 L 223,193 L 222,192 L 222,191 L 219,188 L 217,188 L 211,182 L 209,182 L 206,179 L 205,179 L 203,177 L 202,177 L 200,175 L 200,174 L 199,174 L 198,173 L 198,172 L 196,170 L 195,170 L 192,167 L 191,167 L 188,164 L 187,164 L 186,163 L 186,162 L 185,162 L 184,161 L 184,160 L 183,160 L 181,158 L 180,158 L 178,156 L 177,156 L 176,155 L 176,154 L 175,154 L 173,152 L 172,152 L 170,150 L 169,150 L 168,149 L 168,148 L 167,148 L 163,144 L 161,144 L 160,143 L 160,142 L 158,140 Z" fill="black" /><path d="M 45,82 L 44,83 L 44,87 L 45,88 L 45,90 L 46,91 L 46,93 L 47,94 L 47,97 L 48,98 L 48,99 L 49,100 L 49,104 L 50,105 L 50,106 L 51,107 L 51,109 L 52,110 L 52,111 L 53,112 L 53,117 L 54,117 L 55,118 L 55,122 L 56,123 L 56,125 L 57,126 L 57,131 L 58,132 L 58,133 L 59,134 L 59,135 L 60,136 L 60,137 L 61,138 L 61,143 L 63,145 L 63,149 L 64,150 L 64,151 L 65,152 L 65,157 L 66,158 L 66,159 L 67,160 L 67,163 L 68,164 L 68,165 L 69,166 L 69,170 L 70,171 L 70,172 L 71,173 L 71,177 L 72,178 L 72,179 L 73,180 L 73,183 L 74,184 L 74,185 L 75,186 L 75,187 L 78,187 L 79,186 L 79,182 L 78,181 L 78,176 L 77,175 L 77,174 L 76,173 L 76,170 L 75,169 L 75,166 L 74,165 L 74,162 L 73,161 L 73,160 L 72,159 L 72,156 L 71,155 L 71,154 L 70,153 L 70,151 L 69,150 L 69,148 L 68,147 L 68,145 L 67,144 L 67,143 L 66,142 L 66,138 L 65,137 L 65,136 L 64,135 L 64,132 L 63,131 L 63,129 L 62,128 L 62,126 L 61,125 L 61,124 L 60,123 L 60,119 L 59,118 L 59,117 L 58,116 L 58,112 L 57,111 L 57,110 L 56,109 L 56,106 L 55,105 L 55,103 L 54,102 L 54,98 L 53,97 L 53,96 L 52,95 L 52,92 L 51,91 L 51,90 L 50,89 L 50,86 L 49,85 L 49,84 L 47,82 Z" fill="black" /><path d="M 108,62 L 107,63 L 107,67 L 108,68 L 111,68 L 112,69 L 118,69 L 119,70 L 120,70 L 121,71 L 127,71 L 128,72 L 129,72 L 130,73 L 137,73 L 139,75 L 145,75 L 147,77 L 154,77 L 156,79 L 165,79 L 167,81 L 171,81 L 172,82 L 173,82 L 174,83 L 180,83 L 181,84 L 184,84 L 185,85 L 190,85 L 191,86 L 196,86 L 197,87 L 200,87 L 201,88 L 201,89 L 207,89 L 208,90 L 210,90 L 211,91 L 214,91 L 215,92 L 220,92 L 221,93 L 223,93 L 224,94 L 226,94 L 228,92 L 228,89 L 227,88 L 226,88 L 225,87 L 221,87 L 220,86 L 215,86 L 214,85 L 210,85 L 209,84 L 207,84 L 206,83 L 204,83 L 203,82 L 196,82 L 195,81 L 193,81 L 192,80 L 188,80 L 187,79 L 186,79 L 185,78 L 184,79 L 183,79 L 182,78 L 179,78 L 178,77 L 174,77 L 173,76 L 170,76 L 169,75 L 167,75 L 166,74 L 159,74 L 158,73 L 157,73 L 156,72 L 153,72 L 152,71 L 150,71 L 149,70 L 143,70 L 142,69 L 141,69 L 140,68 L 135,68 L 134,67 L 132,67 L 131,66 L 125,66 L 124,65 L 122,65 L 121,64 L 115,64 L 114,63 L 111,63 L 110,62 Z" fill="black" /><path d="M 0,0 L 0,216 L 260,216 L 260,0 Z" fill="none" stroke="black" stroke-width="1" /></svg>