<?xml version='1.0' encoding='utf-8'?>
<svg width="261" height="217" xmlns="http://www.w3.org/2000/svg" viewBox="0 0 261 217"><rect width="261" height="217" fill="white" /><path d="M 152,174 L 151,175 L 143,175 L 142,176 L 141,176 L 140,175 L 131,175 L 130,176 L 125,176 L 124,175 L 122,175 L 121,176 L 120,175 L 117,175 L 116,176 L 109,176 L 108,175 L 102,175 L 100,177 L 100,181 L 108,181 L 109,180 L 110,180 L 111,181 L 112,181 L 113,180 L 118,180 L 119,181 L 120,181 L 121,180 L 122,180 L 123,181 L 124,181 L 125,180 L 144,180 L 145,179 L 146,179 L 147,180 L 149,180 L 150,179 L 218,179 L 218,174 L 205,174 L 204,175 L 203,175 L 202,174 L 183,174 L 182,175 L 181,175 L 180,174 L 174,174 L 173,175 L 172,174 L 167,174 L 166,175 L 165,174 L 163,174 L 162,175 L 159,175 L 158,174 L 157,174 L 156,175 L 154,175 L 153,174 Z" fill="black" /><path d="M 48,12 L 48,16 L 49,17 L 49,60 L 50,61 L 50,87 L 51,88 L 51,89 L 50,90 L 50,95 L 51,96 L 51,113 L 52,114 L 53,113 L 54,113 L 56,111 L 56,88 L 55,87 L 55,73 L 54,72 L 54,69 L 55,68 L 55,60 L 54,59 L 54,15 L 53,14 L 53,13 L 52,12 Z" fill="black" /><path d="M 190,6 L 190,7 L 189,8 L 189,9 L 186,12 L 186,13 L 181,18 L 181,19 L 180,20 L 179,20 L 179,21 L 175,25 L 175,26 L 173,28 L 173,29 L 172,30 L 171,30 L 171,31 L 170,32 L 169,32 L 169,33 L 166,36 L 166,37 L 159,44 L 159,45 L 157,47 L 157,48 L 156,49 L 155,49 L 154,50 L 154,51 L 151,54 L 151,55 L 150,56 L 149,56 L 149,57 L 145,61 L 145,63 L 142,66 L 141,66 L 141,67 L 140,68 L 139,68 L 139,69 L 138,70 L 137,70 L 137,71 L 136,72 L 136,73 L 135,74 L 135,75 L 134,76 L 133,76 L 133,77 L 130,80 L 129,80 L 129,81 L 126,84 L 126,85 L 125,86 L 125,87 L 124,88 L 123,88 L 123,89 L 119,93 L 119,94 L 117,96 L 117,97 L 116,98 L 115,98 L 115,99 L 114,100 L 113,100 L 113,101 L 111,103 L 111,105 L 114,108 L 118,104 L 118,103 L 120,101 L 120,100 L 121,99 L 122,99 L 122,98 L 124,96 L 124,95 L 128,91 L 128,90 L 129,89 L 130,89 L 130,88 L 131,87 L 132,87 L 132,86 L 134,84 L 134,82 L 137,79 L 138,79 L 138,78 L 140,76 L 140,75 L 146,69 L 146,68 L 147,67 L 148,67 L 148,66 L 151,63 L 151,62 L 152,61 L 152,60 L 153,59 L 154,59 L 154,58 L 156,56 L 156,55 L 158,53 L 158,52 L 159,51 L 160,51 L 160,50 L 161,49 L 162,49 L 162,48 L 163,47 L 164,47 L 164,46 L 165,45 L 166,45 L 168,43 L 168,41 L 170,39 L 170,38 L 171,37 L 172,37 L 172,36 L 178,30 L 178,29 L 182,25 L 182,24 L 183,23 L 184,23 L 186,21 L 186,19 L 194,11 L 194,9 L 193,8 L 193,7 L 192,6 Z" fill="black" /><path d="M 0,0 L 0,216 L 260,216 L 260,0 Z" fill="none" stroke="black" stroke-width="1" /></svg>