<?xml version='1.0' encoding='utf-8'?>
<svg width="263" height="218" xmlns="http://www.w3.org/2000/svg" viewBox="0 0 263 218"><rect width="263" height="218" fill="white" /><path d="M 160,105 L 158,107 L 158,111 L 156,113 L 156,115 L 155,116 L 155,117 L 154,118 L 154,120 L 152,122 L 152,125 L 150,127 L 150,130 L 149,131 L 149,132 L 148,133 L 148,134 L 147,135 L 147,136 L 146,137 L 146,140 L 145,141 L 145,142 L 144,143 L 144,144 L 143,145 L 143,146 L 142,147 L 142,149 L 141,150 L 141,152 L 140,153 L 140,156 L 139,157 L 139,158 L 138,159 L 138,161 L 137,162 L 137,164 L 136,165 L 136,168 L 134,170 L 134,172 L 133,173 L 133,174 L 132,175 L 132,178 L 131,179 L 131,180 L 130,181 L 130,184 L 128,186 L 128,188 L 127,189 L 127,190 L 126,191 L 126,194 L 124,196 L 124,198 L 122,200 L 122,202 L 121,203 L 121,205 L 120,206 L 120,208 L 121,209 L 121,210 L 125,210 L 126,209 L 126,208 L 127,207 L 127,203 L 129,201 L 129,197 L 131,195 L 131,192 L 133,190 L 133,187 L 135,185 L 135,183 L 136,182 L 136,179 L 137,178 L 137,176 L 139,174 L 139,170 L 141,168 L 141,165 L 143,163 L 143,161 L 144,160 L 145,160 L 145,155 L 147,153 L 147,149 L 148,148 L 149,148 L 149,146 L 150,145 L 150,143 L 151,142 L 151,140 L 153,138 L 153,136 L 154,135 L 154,134 L 155,133 L 155,131 L 156,130 L 156,129 L 157,128 L 157,126 L 158,125 L 158,123 L 159,122 L 159,121 L 160,120 L 160,119 L 161,118 L 161,115 L 163,113 L 163,106 L 162,105 Z" fill="black" /><path d="M 207,49 L 207,52 L 208,53 L 208,56 L 209,57 L 209,58 L 210,59 L 210,60 L 211,60 L 212,61 L 212,62 L 213,63 L 213,64 L 214,65 L 214,66 L 215,67 L 215,68 L 216,69 L 216,70 L 217,70 L 218,71 L 218,74 L 219,74 L 220,75 L 220,77 L 222,79 L 222,80 L 223,80 L 224,81 L 224,82 L 225,83 L 225,84 L 226,85 L 226,86 L 227,87 L 227,88 L 228,89 L 228,90 L 229,91 L 229,92 L 230,93 L 230,94 L 231,94 L 232,95 L 232,96 L 233,97 L 233,98 L 234,99 L 234,100 L 236,102 L 236,103 L 238,105 L 238,107 L 240,109 L 240,110 L 242,112 L 242,114 L 243,114 L 244,115 L 244,116 L 245,117 L 245,118 L 246,119 L 246,120 L 247,121 L 247,122 L 248,123 L 248,124 L 249,124 L 250,125 L 250,126 L 251,127 L 251,129 L 252,130 L 255,130 L 257,128 L 257,126 L 256,125 L 256,124 L 255,123 L 255,122 L 253,120 L 253,119 L 252,119 L 251,118 L 251,116 L 249,114 L 249,113 L 248,112 L 248,111 L 247,110 L 247,109 L 246,109 L 245,108 L 245,107 L 244,106 L 244,104 L 241,101 L 241,99 L 238,96 L 238,95 L 237,94 L 237,93 L 235,91 L 235,89 L 233,87 L 233,86 L 231,84 L 231,83 L 230,82 L 230,81 L 227,78 L 227,76 L 225,74 L 225,73 L 224,72 L 224,71 L 223,70 L 223,69 L 221,67 L 221,65 L 218,62 L 218,61 L 217,60 L 217,59 L 215,57 L 215,55 L 213,53 L 213,52 L 211,50 L 211,49 Z" fill="black" /><path d="M 27,19 L 25,21 L 24,21 L 23,22 L 23,25 L 24,26 L 31,26 L 32,25 L 36,25 L 37,26 L 39,26 L 40,25 L 48,25 L 49,26 L 83,26 L 84,25 L 89,25 L 90,24 L 91,24 L 92,25 L 95,25 L 96,26 L 101,26 L 102,25 L 110,25 L 111,24 L 112,25 L 129,25 L 130,26 L 131,26 L 132,25 L 136,25 L 137,26 L 150,26 L 152,24 L 152,21 L 144,21 L 143,20 L 140,20 L 139,21 L 137,21 L 136,20 L 117,20 L 116,21 L 115,20 L 110,20 L 109,21 L 106,21 L 105,20 L 84,20 L 83,19 L 79,19 L 78,20 L 76,20 L 75,19 L 74,19 L 73,20 L 71,20 L 70,19 L 60,19 L 59,20 L 58,19 L 53,19 L 52,20 L 51,20 L 50,19 L 44,19 L 43,20 L 42,19 L 30,19 L 29,20 L 28,20 Z" fill="black" /><path d="M 0,0 L 0,217 L 262,217 L 262,0 Z" fill="none" stroke="black" stroke-width="1" /></svg>