<?xml version='1.0' encoding='utf-8'?>
<svg width="259" height="221" xmlns="http://www.w3.org/2000/svg" viewBox="0 0 259 221"><rect width="259" height="221" fill="white" /><path d="M 150,170 L 148,172 L 148,176 L 153,176 L 154,175 L 161,175 L 162,176 L 165,176 L 166,175 L 167,175 L 168,176 L 178,176 L 179,175 L 180,175 L 181,176 L 183,176 L 184,175 L 185,175 L 186,176 L 190,176 L 191,175 L 192,176 L 195,176 L 196,175 L 203,175 L 204,176 L 219,176 L 220,177 L 221,176 L 250,176 L 251,175 L 251,172 L 250,172 L 249,171 L 248,171 L 247,170 L 218,170 L 217,171 L 216,171 L 215,170 L 211,170 L 210,171 L 206,171 L 205,170 L 193,170 L 192,171 L 188,171 L 187,170 L 178,170 L 177,171 L 176,170 L 171,170 L 170,171 L 167,171 L 166,170 L 162,170 L 161,171 L 160,171 L 159,170 Z" fill="black" /><path d="M 59,49 L 58,50 L 58,52 L 60,54 L 60,57 L 62,59 L 62,61 L 64,63 L 64,65 L 66,67 L 66,71 L 67,71 L 68,72 L 68,75 L 70,77 L 70,79 L 71,80 L 71,81 L 72,82 L 72,84 L 74,86 L 74,89 L 75,90 L 75,91 L 76,92 L 76,93 L 77,94 L 77,95 L 78,96 L 78,97 L 79,98 L 79,99 L 80,100 L 80,101 L 81,102 L 81,103 L 82,104 L 82,107 L 84,109 L 84,111 L 85,112 L 85,113 L 86,114 L 86,115 L 87,116 L 87,117 L 88,118 L 88,120 L 90,122 L 90,124 L 92,126 L 94,126 L 95,125 L 95,119 L 94,118 L 94,117 L 93,116 L 93,114 L 92,113 L 92,112 L 91,111 L 91,110 L 89,108 L 89,105 L 87,103 L 87,100 L 85,98 L 85,96 L 84,95 L 84,94 L 83,93 L 83,92 L 82,91 L 82,90 L 81,89 L 81,87 L 79,85 L 79,82 L 78,82 L 77,81 L 77,78 L 75,76 L 75,75 L 73,73 L 73,71 L 72,70 L 72,68 L 71,67 L 71,65 L 69,63 L 69,60 L 67,58 L 67,56 L 66,55 L 66,54 L 65,53 L 65,52 L 62,49 Z" fill="black" /><path d="M 6,44 L 6,45 L 5,46 L 5,49 L 6,50 L 6,51 L 8,53 L 9,53 L 10,54 L 10,55 L 11,55 L 14,58 L 14,59 L 16,61 L 16,62 L 20,66 L 20,67 L 21,67 L 22,68 L 22,69 L 23,69 L 26,72 L 26,73 L 31,78 L 31,79 L 32,80 L 32,81 L 42,91 L 42,92 L 46,96 L 46,97 L 47,97 L 48,98 L 48,99 L 49,100 L 49,101 L 50,101 L 51,102 L 51,103 L 52,104 L 52,105 L 53,105 L 54,106 L 54,107 L 55,107 L 56,108 L 56,109 L 59,112 L 63,112 L 64,111 L 64,108 L 59,103 L 59,102 L 58,102 L 57,101 L 57,100 L 56,99 L 56,98 L 51,93 L 51,92 L 50,92 L 49,91 L 49,90 L 41,82 L 41,81 L 40,80 L 39,80 L 38,79 L 38,78 L 35,75 L 35,73 L 34,73 L 33,72 L 32,72 L 31,71 L 31,70 L 29,68 L 29,67 L 23,61 L 23,60 L 16,53 L 16,52 L 15,51 L 15,50 L 14,50 L 13,49 L 13,48 L 12,48 L 11,47 L 11,46 L 10,46 L 8,44 Z" fill="black" /><path d="M 0,0 L 0,220 L 258,220 L 258,0 Z" fill="none" stroke="black" stroke-width="1" /></svg>