<?xml version='1.0' encoding='utf-8'?>
<svg width="262" height="221" xmlns="http://www.w3.org/2000/svg" viewBox="0 0 262 221"><rect width="262" height="221" fill="white" /><path d="M 127,152 L 126,153 L 124,153 L 122,155 L 120,155 L 118,157 L 117,157 L 117,158 L 116,159 L 113,159 L 113,160 L 112,161 L 111,161 L 110,162 L 109,162 L 108,163 L 107,163 L 106,164 L 105,164 L 104,165 L 102,165 L 100,167 L 99,167 L 97,169 L 95,169 L 93,171 L 92,171 L 90,173 L 89,172 L 88,173 L 87,173 L 87,174 L 86,175 L 85,175 L 83,177 L 81,177 L 79,179 L 78,179 L 76,181 L 73,181 L 70,184 L 69,184 L 68,185 L 67,185 L 65,187 L 63,187 L 62,188 L 61,188 L 60,189 L 59,189 L 57,191 L 56,191 L 54,193 L 53,193 L 51,195 L 49,195 L 46,198 L 45,198 L 44,199 L 43,199 L 42,200 L 41,200 L 40,201 L 38,201 L 36,203 L 36,206 L 37,207 L 40,207 L 42,205 L 43,205 L 44,204 L 45,204 L 47,202 L 48,202 L 49,201 L 50,201 L 51,200 L 52,200 L 53,199 L 54,199 L 55,198 L 56,198 L 58,196 L 60,196 L 60,195 L 61,194 L 64,194 L 64,193 L 65,192 L 66,192 L 67,191 L 68,191 L 69,190 L 70,190 L 71,189 L 72,189 L 73,188 L 74,188 L 75,187 L 76,187 L 77,186 L 78,186 L 80,184 L 82,184 L 85,181 L 86,181 L 87,180 L 88,180 L 89,179 L 90,179 L 92,177 L 94,177 L 95,176 L 96,176 L 98,174 L 99,174 L 101,172 L 103,172 L 105,170 L 106,170 L 108,168 L 109,168 L 111,166 L 114,166 L 116,164 L 117,164 L 119,162 L 120,162 L 122,160 L 124,160 L 125,159 L 126,159 L 129,156 L 130,156 L 130,152 Z" fill="black" /><path d="M 96,91 L 95,92 L 80,92 L 79,93 L 78,92 L 74,92 L 73,93 L 71,93 L 70,92 L 66,92 L 65,93 L 64,93 L 64,94 L 63,95 L 64,96 L 65,96 L 66,97 L 69,97 L 70,96 L 71,97 L 72,97 L 73,98 L 74,98 L 75,97 L 76,97 L 77,96 L 82,96 L 83,97 L 84,97 L 85,96 L 92,96 L 93,97 L 94,97 L 95,96 L 96,96 L 97,97 L 102,97 L 103,98 L 104,98 L 105,97 L 133,97 L 134,98 L 136,98 L 137,97 L 141,97 L 143,95 L 143,94 L 142,93 L 141,93 L 140,92 L 127,92 L 126,91 L 125,91 L 124,92 L 110,92 L 109,91 L 108,91 L 107,92 L 99,92 L 98,91 Z" fill="black" /><path d="M 142,51 L 140,53 L 141,54 L 141,55 L 142,55 L 143,56 L 146,56 L 148,58 L 150,58 L 151,59 L 152,59 L 153,60 L 154,60 L 155,61 L 157,61 L 158,62 L 160,62 L 161,63 L 162,63 L 163,64 L 164,64 L 165,65 L 166,65 L 167,66 L 169,66 L 170,67 L 171,67 L 172,68 L 176,68 L 178,70 L 180,70 L 182,72 L 185,72 L 187,74 L 189,74 L 190,75 L 192,75 L 194,73 L 194,71 L 193,70 L 192,70 L 191,69 L 189,69 L 188,68 L 187,68 L 186,67 L 184,67 L 182,65 L 180,65 L 178,63 L 174,63 L 173,62 L 172,62 L 171,61 L 168,61 L 166,59 L 163,59 L 161,57 L 158,57 L 156,55 L 152,55 L 150,53 L 149,53 L 148,52 L 147,52 L 146,51 Z" fill="black" /><path d="M 0,0 L 0,220 L 261,220 L 261,0 Z" fill="none" stroke="black" stroke-width="1" /></svg>