<?xml version='1.0' encoding='utf-8'?>
<svg width="260" height="220" xmlns="http://www.w3.org/2000/svg" viewBox="0 0 260 220"><rect width="260" height="220" fill="white" /><path d="M 121,166 L 120,167 L 115,167 L 114,168 L 113,168 L 112,167 L 90,167 L 89,168 L 86,168 L 85,167 L 62,167 L 61,168 L 60,168 L 59,167 L 32,167 L 32,168 L 31,169 L 31,172 L 37,172 L 38,173 L 39,172 L 43,172 L 44,171 L 45,172 L 51,172 L 52,171 L 55,171 L 56,172 L 81,172 L 82,171 L 87,171 L 88,172 L 97,172 L 98,171 L 99,171 L 100,172 L 112,172 L 113,171 L 115,171 L 116,172 L 141,172 L 141,169 L 138,166 L 134,166 L 133,167 L 126,167 L 125,166 Z" fill="black" /><path d="M 149,75 L 148,76 L 147,76 L 145,78 L 144,78 L 143,79 L 142,79 L 141,80 L 140,80 L 138,82 L 137,82 L 135,84 L 134,84 L 133,85 L 132,85 L 131,86 L 130,86 L 130,87 L 129,88 L 128,88 L 127,89 L 126,89 L 125,90 L 122,90 L 122,91 L 121,92 L 120,92 L 119,93 L 118,93 L 117,94 L 116,94 L 116,95 L 115,96 L 114,96 L 113,97 L 112,97 L 111,98 L 110,98 L 108,100 L 106,100 L 106,101 L 105,102 L 103,102 L 101,104 L 98,104 L 98,105 L 97,106 L 96,106 L 95,107 L 94,107 L 93,108 L 92,108 L 90,110 L 88,110 L 88,111 L 87,112 L 86,112 L 85,113 L 84,113 L 81,116 L 79,116 L 77,118 L 76,118 L 73,121 L 72,121 L 71,122 L 70,122 L 68,124 L 68,128 L 71,128 L 72,127 L 73,127 L 75,125 L 76,125 L 78,123 L 80,123 L 82,121 L 83,121 L 85,119 L 86,119 L 88,117 L 89,117 L 91,115 L 93,115 L 95,113 L 96,113 L 98,111 L 99,111 L 100,110 L 101,110 L 102,109 L 103,109 L 103,108 L 104,107 L 106,107 L 108,105 L 109,105 L 110,104 L 111,104 L 112,103 L 113,103 L 113,102 L 114,101 L 116,101 L 118,99 L 119,99 L 121,97 L 122,97 L 124,95 L 126,95 L 128,93 L 129,93 L 130,92 L 131,92 L 132,91 L 133,91 L 135,89 L 136,89 L 138,87 L 139,87 L 140,86 L 141,86 L 142,85 L 143,85 L 145,83 L 146,83 L 148,81 L 149,81 L 150,80 L 152,80 L 154,78 L 154,77 L 152,75 Z" fill="black" /><path d="M 24,14 L 23,15 L 17,15 L 16,16 L 15,16 L 14,17 L 14,19 L 15,19 L 16,20 L 22,20 L 23,19 L 24,19 L 25,20 L 27,20 L 28,19 L 139,19 L 140,18 L 141,18 L 142,19 L 175,19 L 176,18 L 178,18 L 179,19 L 182,19 L 183,18 L 185,18 L 186,19 L 195,19 L 196,18 L 197,18 L 198,19 L 215,19 L 215,14 L 117,14 L 116,15 L 115,14 L 40,14 L 39,15 L 38,15 L 37,16 L 34,16 L 33,15 L 32,15 L 31,14 L 30,14 L 29,15 L 26,15 L 25,14 Z" fill="black" /><path d="M 0,0 L 0,219 L 259,219 L 259,0 Z" fill="none" stroke="black" stroke-width="1" /></svg>