<?xml version='1.0' encoding='utf-8'?>
<svg width="259" height="218" xmlns="http://www.w3.org/2000/svg" viewBox="0 0 259 218"><rect width="259" height="218" fill="white" /><path d="M 58,111 L 57,112 L 54,112 L 52,114 L 51,114 L 49,116 L 48,116 L 48,117 L 47,118 L 46,118 L 44,120 L 44,122 L 42,124 L 42,137 L 43,138 L 43,140 L 44,141 L 44,142 L 46,144 L 46,145 L 48,147 L 49,147 L 51,149 L 53,149 L 54,150 L 55,150 L 56,151 L 59,151 L 60,152 L 66,152 L 67,151 L 69,151 L 70,150 L 71,150 L 72,149 L 73,149 L 79,143 L 79,142 L 81,140 L 81,138 L 82,137 L 82,135 L 83,134 L 83,130 L 82,129 L 82,128 L 81,127 L 81,124 L 80,123 L 80,122 L 79,121 L 79,120 L 75,116 L 74,116 L 73,115 L 73,114 L 71,114 L 69,112 L 64,112 L 63,111 Z" fill="black" /><path d="M 80,43 L 79,44 L 77,44 L 75,46 L 74,46 L 74,47 L 73,48 L 72,48 L 70,50 L 70,51 L 68,53 L 68,55 L 67,56 L 67,58 L 66,59 L 66,65 L 67,66 L 67,67 L 68,68 L 68,70 L 70,72 L 70,73 L 73,76 L 73,77 L 75,77 L 77,79 L 78,79 L 79,80 L 81,80 L 82,81 L 89,81 L 90,80 L 91,80 L 92,79 L 94,79 L 96,77 L 98,77 L 103,72 L 103,69 L 104,68 L 104,67 L 105,66 L 105,56 L 104,55 L 104,54 L 103,53 L 103,52 L 101,50 L 101,49 L 100,49 L 99,48 L 98,48 L 97,47 L 97,46 L 96,46 L 94,44 L 91,44 L 90,43 Z" fill="black" /><path d="M 216,22 L 214,24 L 214,25 L 212,27 L 212,28 L 210,30 L 210,32 L 208,34 L 208,35 L 207,36 L 206,36 L 206,37 L 204,39 L 204,41 L 203,42 L 202,42 L 202,43 L 200,45 L 200,46 L 199,47 L 199,48 L 198,49 L 198,50 L 196,52 L 196,53 L 192,57 L 192,58 L 190,60 L 190,61 L 188,63 L 188,67 L 233,67 L 234,66 L 245,66 L 245,64 L 243,62 L 243,61 L 241,59 L 241,58 L 240,57 L 240,56 L 239,55 L 239,54 L 238,54 L 237,53 L 237,51 L 235,49 L 235,48 L 233,46 L 233,45 L 231,43 L 231,42 L 229,40 L 229,38 L 228,38 L 227,37 L 227,36 L 225,34 L 225,32 L 224,32 L 223,31 L 223,30 L 221,28 L 221,26 L 217,22 Z" fill="black" /></svg>