<?xml version='1.0' encoding='utf-8'?>
<svg width="257" height="218" xmlns="http://www.w3.org/2000/svg" viewBox="0 0 257 218"><rect width="257" height="218" fill="white" /><path d="M 227,47 L 226,48 L 223,48 L 221,50 L 219,50 L 214,55 L 214,56 L 212,58 L 212,61 L 211,62 L 211,63 L 210,64 L 210,66 L 211,67 L 211,69 L 212,70 L 212,74 L 214,76 L 214,77 L 215,77 L 216,78 L 216,79 L 220,83 L 222,83 L 224,85 L 227,85 L 228,86 L 230,86 L 231,87 L 232,86 L 235,86 L 236,85 L 237,85 L 239,83 L 242,83 L 244,81 L 245,81 L 247,79 L 247,77 L 249,75 L 249,74 L 250,73 L 250,72 L 251,71 L 251,66 L 250,65 L 250,64 L 251,63 L 251,60 L 250,59 L 250,58 L 245,53 L 245,52 L 244,52 L 241,49 L 241,48 L 239,48 L 238,47 L 237,48 L 235,48 L 234,47 Z" fill="black" /><path d="M 82,47 L 81,48 L 74,48 L 73,49 L 72,49 L 71,50 L 69,50 L 64,55 L 64,56 L 62,58 L 62,60 L 61,61 L 61,62 L 60,63 L 60,74 L 61,75 L 61,77 L 62,78 L 62,79 L 63,80 L 63,81 L 64,82 L 64,83 L 65,83 L 66,84 L 66,85 L 67,85 L 69,87 L 70,87 L 72,89 L 74,89 L 75,90 L 82,90 L 83,91 L 84,90 L 86,90 L 87,89 L 89,89 L 90,88 L 91,88 L 92,87 L 93,87 L 95,85 L 96,85 L 99,82 L 99,81 L 101,79 L 101,76 L 102,75 L 102,72 L 103,71 L 103,66 L 102,65 L 102,63 L 101,62 L 101,60 L 100,59 L 100,58 L 99,57 L 99,56 L 93,50 L 92,50 L 91,49 L 90,49 L 89,48 L 84,48 L 83,47 Z" fill="black" /><path d="M 31,5 L 30,6 L 30,7 L 28,9 L 28,11 L 26,13 L 26,15 L 24,17 L 24,19 L 23,20 L 22,20 L 22,22 L 20,24 L 20,25 L 19,26 L 19,27 L 18,28 L 18,29 L 17,30 L 17,31 L 16,32 L 16,33 L 15,34 L 14,34 L 14,36 L 12,38 L 12,39 L 11,40 L 11,41 L 10,42 L 10,43 L 9,44 L 9,45 L 8,46 L 8,47 L 7,48 L 6,48 L 5,49 L 5,52 L 7,52 L 8,51 L 9,51 L 10,52 L 43,52 L 44,53 L 45,52 L 59,52 L 60,51 L 60,50 L 61,49 L 61,48 L 59,46 L 59,44 L 58,43 L 58,42 L 55,39 L 55,38 L 53,36 L 53,35 L 51,33 L 51,32 L 49,30 L 49,29 L 47,27 L 47,25 L 45,23 L 45,22 L 44,22 L 43,21 L 43,19 L 41,17 L 41,16 L 40,16 L 39,15 L 39,14 L 38,13 L 38,12 L 37,11 L 37,10 L 34,7 L 34,5 Z" fill="black" /></svg>