<?xml version='1.0' encoding='utf-8'?>
<svg width="259" height="219" xmlns="http://www.w3.org/2000/svg" viewBox="0 0 259 219"><rect width="259" height="219" fill="white" /><path d="M 42,160 L 42,163 L 41,164 L 40,164 L 40,165 L 38,167 L 38,169 L 36,171 L 36,173 L 34,175 L 34,176 L 32,178 L 32,179 L 31,180 L 30,180 L 30,183 L 29,184 L 29,185 L 26,188 L 26,190 L 24,192 L 24,193 L 22,195 L 22,196 L 20,198 L 20,200 L 18,202 L 18,203 L 17,204 L 17,207 L 34,207 L 35,208 L 60,208 L 61,207 L 62,207 L 63,208 L 68,208 L 69,207 L 73,207 L 74,206 L 73,205 L 73,204 L 72,203 L 72,202 L 71,201 L 71,200 L 70,200 L 69,199 L 69,197 L 67,195 L 67,194 L 65,192 L 65,191 L 63,189 L 63,188 L 61,186 L 61,185 L 59,183 L 59,182 L 57,180 L 57,179 L 55,177 L 55,176 L 53,174 L 53,173 L 51,171 L 51,170 L 49,168 L 49,167 L 47,165 L 47,164 L 46,164 L 45,163 L 45,162 L 44,161 L 44,160 Z" fill="black" /><path d="M 106,112 L 105,113 L 103,113 L 102,114 L 101,114 L 99,116 L 98,116 L 97,117 L 96,117 L 96,118 L 94,120 L 94,122 L 92,124 L 92,126 L 90,128 L 90,137 L 91,138 L 91,139 L 92,140 L 92,142 L 94,144 L 94,145 L 95,145 L 96,146 L 96,147 L 98,149 L 101,149 L 102,150 L 102,151 L 107,151 L 108,152 L 112,152 L 113,153 L 114,152 L 115,152 L 116,151 L 118,151 L 120,149 L 122,149 L 126,145 L 126,144 L 128,142 L 128,141 L 129,140 L 129,136 L 130,135 L 130,131 L 129,130 L 129,126 L 127,124 L 127,120 L 125,118 L 124,118 L 121,115 L 120,115 L 119,114 L 116,114 L 115,113 L 114,113 L 113,112 Z" fill="black" /><path d="M 222,10 L 221,11 L 220,11 L 219,12 L 217,12 L 215,14 L 214,14 L 214,15 L 213,16 L 212,16 L 212,17 L 211,18 L 210,18 L 210,19 L 208,21 L 208,23 L 206,25 L 206,39 L 208,41 L 208,43 L 214,49 L 215,49 L 217,51 L 219,51 L 221,53 L 233,53 L 234,52 L 235,52 L 236,51 L 239,51 L 241,49 L 242,49 L 245,46 L 245,45 L 247,43 L 247,42 L 248,41 L 248,40 L 249,39 L 249,36 L 250,35 L 250,32 L 249,31 L 249,27 L 248,26 L 248,25 L 247,24 L 247,22 L 245,20 L 245,19 L 243,17 L 243,16 L 242,16 L 241,15 L 241,14 L 240,14 L 239,13 L 239,12 L 238,12 L 236,10 Z" fill="black" /></svg>