<?xml version='1.0' encoding='utf-8'?>
<svg width="260" height="219" xmlns="http://www.w3.org/2000/svg" viewBox="0 0 260 219"><rect width="260" height="219" fill="white" /><path d="M 37,151 L 35,153 L 34,153 L 33,154 L 32,154 L 31,155 L 30,155 L 28,157 L 28,158 L 27,159 L 26,159 L 24,161 L 24,163 L 22,165 L 22,168 L 21,169 L 21,170 L 20,171 L 20,176 L 21,177 L 21,179 L 22,180 L 22,182 L 24,184 L 24,185 L 26,187 L 26,188 L 27,188 L 30,191 L 31,191 L 32,192 L 33,192 L 34,193 L 35,193 L 36,194 L 41,194 L 42,195 L 44,195 L 45,194 L 49,194 L 50,193 L 51,193 L 52,192 L 53,192 L 54,191 L 55,191 L 61,185 L 61,183 L 63,181 L 63,178 L 64,177 L 64,169 L 63,168 L 63,165 L 62,164 L 62,163 L 61,162 L 61,161 L 60,161 L 59,160 L 59,159 L 58,158 L 58,157 L 57,156 L 57,155 L 55,153 L 52,153 L 51,152 L 50,152 L 49,151 Z" fill="black" /><path d="M 36,48 L 35,49 L 35,50 L 34,51 L 34,52 L 32,54 L 32,56 L 29,59 L 29,60 L 28,61 L 28,63 L 26,65 L 26,66 L 25,67 L 25,68 L 24,69 L 24,70 L 22,72 L 22,74 L 21,75 L 20,75 L 20,77 L 19,78 L 19,79 L 18,80 L 18,82 L 17,83 L 16,83 L 16,85 L 14,87 L 14,89 L 12,91 L 12,94 L 13,95 L 23,95 L 24,94 L 25,94 L 26,95 L 27,95 L 28,94 L 39,94 L 40,95 L 43,95 L 44,94 L 67,94 L 68,93 L 67,92 L 67,91 L 65,89 L 65,88 L 64,87 L 64,86 L 62,84 L 62,83 L 59,80 L 59,79 L 58,78 L 58,77 L 57,76 L 57,75 L 56,75 L 55,74 L 55,73 L 53,71 L 53,70 L 51,68 L 51,67 L 50,66 L 50,65 L 49,64 L 49,63 L 47,61 L 47,60 L 45,58 L 45,57 L 43,55 L 43,54 L 41,52 L 41,51 L 38,48 Z" fill="black" /><path d="M 214,18 L 213,19 L 211,19 L 210,20 L 208,20 L 207,21 L 206,21 L 204,23 L 203,23 L 200,26 L 200,27 L 198,29 L 198,30 L 196,32 L 196,36 L 195,37 L 196,38 L 196,46 L 197,47 L 197,48 L 198,49 L 198,50 L 202,54 L 203,54 L 205,56 L 206,56 L 207,57 L 208,57 L 209,58 L 212,58 L 213,59 L 218,59 L 219,58 L 223,58 L 226,55 L 227,55 L 232,50 L 233,50 L 233,48 L 235,46 L 235,37 L 236,36 L 236,35 L 235,34 L 235,33 L 234,32 L 234,30 L 233,29 L 233,28 L 231,26 L 231,25 L 230,25 L 229,24 L 229,23 L 227,21 L 226,21 L 224,19 L 217,19 L 216,18 Z" fill="black" /><path d="M 0,0 L 0,218 L 259,218 L 259,0 Z" fill="none" stroke="black" stroke-width="1" /></svg>