<?xml version='1.0' encoding='utf-8'?>
<svg width="258" height="218" xmlns="http://www.w3.org/2000/svg" viewBox="0 0 258 218"><rect width="258" height="218" fill="white" /><path d="M 126,158 L 126,159 L 123,162 L 123,163 L 122,164 L 122,165 L 121,166 L 121,167 L 120,168 L 120,169 L 119,170 L 119,171 L 116,174 L 116,176 L 114,178 L 114,179 L 111,182 L 111,183 L 110,184 L 110,186 L 108,188 L 108,189 L 107,190 L 107,191 L 106,192 L 106,193 L 105,194 L 105,195 L 104,196 L 104,197 L 102,199 L 102,203 L 136,203 L 137,202 L 148,202 L 149,201 L 157,201 L 158,200 L 155,197 L 155,196 L 152,193 L 152,192 L 151,191 L 151,190 L 150,190 L 149,189 L 149,188 L 148,187 L 148,186 L 147,185 L 147,184 L 145,182 L 145,181 L 143,179 L 143,178 L 142,178 L 141,177 L 141,176 L 140,175 L 140,174 L 137,171 L 137,170 L 135,168 L 135,166 L 134,166 L 133,165 L 133,164 L 131,162 L 131,160 L 129,158 Z" fill="black" /><path d="M 67,96 L 66,97 L 65,97 L 64,98 L 58,98 L 57,99 L 56,99 L 55,100 L 54,100 L 54,101 L 53,102 L 52,102 L 50,104 L 50,105 L 48,107 L 48,110 L 47,111 L 47,118 L 48,119 L 48,123 L 49,124 L 49,125 L 50,126 L 50,127 L 54,131 L 55,131 L 56,132 L 56,133 L 57,133 L 58,134 L 59,134 L 60,135 L 63,135 L 64,136 L 68,136 L 69,135 L 73,135 L 74,134 L 75,134 L 76,133 L 77,133 L 78,132 L 79,132 L 81,130 L 81,129 L 83,127 L 83,125 L 85,123 L 85,121 L 87,119 L 87,116 L 86,115 L 86,112 L 85,111 L 85,108 L 84,108 L 83,107 L 83,104 L 82,104 L 81,103 L 80,103 L 79,102 L 79,101 L 78,101 L 75,98 L 72,98 L 71,97 L 70,97 L 69,96 Z" fill="black" /><path d="M 151,7 L 150,8 L 146,8 L 146,9 L 145,10 L 143,10 L 141,12 L 140,12 L 140,13 L 139,14 L 138,14 L 136,16 L 136,17 L 135,18 L 135,19 L 134,20 L 134,22 L 133,23 L 133,32 L 134,33 L 134,37 L 136,39 L 136,41 L 137,41 L 138,42 L 138,43 L 140,45 L 141,45 L 142,46 L 142,47 L 144,47 L 146,49 L 149,49 L 150,50 L 159,50 L 160,49 L 163,49 L 164,48 L 165,48 L 166,47 L 167,47 L 173,41 L 173,40 L 175,38 L 175,36 L 176,35 L 176,32 L 177,31 L 177,27 L 176,26 L 176,23 L 175,22 L 175,20 L 173,18 L 173,17 L 171,15 L 171,14 L 169,12 L 168,12 L 165,9 L 164,9 L 163,8 L 160,8 L 159,7 Z" fill="black" /></svg>