<?xml version='1.0' encoding='utf-8'?>
<svg width="257" height="219" xmlns="http://www.w3.org/2000/svg" viewBox="0 0 257 219"><rect width="257" height="219" fill="white" /><path d="M 24,175 L 22,177 L 18,177 L 18,178 L 17,179 L 16,179 L 14,181 L 13,181 L 13,182 L 12,183 L 11,183 L 11,184 L 9,186 L 9,189 L 8,190 L 8,192 L 7,193 L 7,202 L 8,203 L 8,204 L 9,205 L 9,206 L 10,206 L 11,207 L 11,208 L 12,209 L 12,210 L 13,210 L 15,212 L 16,212 L 17,213 L 17,214 L 19,214 L 20,215 L 21,215 L 22,216 L 35,216 L 39,212 L 40,212 L 40,211 L 41,210 L 42,210 L 42,209 L 44,207 L 44,206 L 46,204 L 46,203 L 47,202 L 47,197 L 48,196 L 48,194 L 47,193 L 47,190 L 46,189 L 46,187 L 42,183 L 42,182 L 40,182 L 38,180 L 38,179 L 36,177 L 33,177 L 32,176 L 31,176 L 30,175 Z" fill="black" /><path d="M 114,87 L 112,89 L 112,90 L 109,93 L 109,94 L 108,95 L 108,96 L 107,97 L 107,98 L 105,100 L 105,103 L 103,105 L 103,106 L 102,107 L 101,107 L 101,110 L 100,111 L 99,111 L 99,113 L 97,115 L 97,116 L 96,117 L 96,118 L 95,119 L 95,120 L 93,122 L 93,123 L 91,125 L 91,126 L 90,127 L 90,128 L 89,129 L 89,132 L 90,133 L 92,133 L 93,132 L 95,132 L 96,133 L 100,133 L 101,132 L 124,132 L 125,131 L 128,131 L 129,132 L 134,132 L 135,131 L 138,131 L 139,130 L 143,130 L 143,128 L 140,125 L 140,123 L 139,123 L 138,122 L 138,120 L 136,118 L 136,117 L 134,115 L 134,114 L 132,112 L 132,111 L 131,110 L 131,109 L 128,106 L 128,104 L 126,102 L 126,101 L 125,101 L 124,100 L 124,99 L 122,97 L 122,95 L 120,93 L 120,91 L 119,91 L 118,90 L 118,89 L 116,87 Z" fill="black" /><path d="M 175,84 L 174,85 L 170,85 L 169,86 L 168,86 L 167,87 L 166,87 L 161,92 L 161,93 L 159,95 L 159,98 L 158,99 L 158,100 L 157,101 L 157,108 L 158,109 L 158,110 L 159,111 L 159,113 L 161,115 L 161,116 L 165,120 L 166,120 L 167,121 L 167,122 L 169,122 L 171,124 L 183,124 L 184,123 L 185,123 L 186,122 L 188,122 L 188,121 L 189,120 L 190,120 L 194,116 L 194,115 L 195,114 L 196,114 L 196,112 L 198,110 L 198,98 L 196,96 L 196,93 L 195,93 L 194,92 L 194,91 L 192,89 L 191,89 L 190,88 L 189,88 L 188,87 L 187,87 L 186,86 L 185,86 L 184,85 L 179,85 L 178,84 Z" fill="black" /></svg>