<?xml version='1.0' encoding='utf-8'?>
<svg width="257" height="221" xmlns="http://www.w3.org/2000/svg" viewBox="0 0 257 221"><rect width="257" height="221" fill="white" /><path d="M 137,142 L 136,143 L 131,143 L 129,145 L 128,145 L 127,146 L 126,146 L 121,151 L 121,152 L 120,153 L 120,154 L 119,155 L 119,156 L 118,157 L 118,160 L 117,161 L 117,169 L 119,171 L 119,174 L 121,176 L 121,177 L 123,179 L 123,180 L 124,180 L 126,182 L 127,182 L 129,184 L 131,184 L 133,186 L 146,186 L 146,185 L 147,184 L 148,184 L 149,183 L 150,183 L 151,182 L 152,182 L 152,181 L 153,180 L 154,180 L 156,178 L 156,177 L 158,175 L 158,174 L 160,172 L 160,167 L 161,166 L 161,162 L 160,161 L 160,157 L 159,156 L 159,155 L 158,154 L 158,153 L 157,152 L 157,151 L 156,150 L 156,149 L 154,147 L 153,147 L 152,146 L 151,146 L 150,145 L 149,145 L 148,144 L 148,143 L 145,143 L 144,142 Z" fill="black" /><path d="M 204,136 L 203,137 L 199,137 L 198,138 L 197,138 L 196,139 L 195,139 L 195,140 L 194,141 L 193,141 L 191,143 L 191,145 L 189,147 L 189,149 L 188,150 L 188,152 L 187,153 L 187,160 L 189,162 L 189,165 L 190,166 L 190,167 L 194,171 L 194,172 L 195,172 L 197,174 L 198,174 L 199,175 L 200,175 L 201,176 L 212,176 L 213,175 L 215,175 L 216,174 L 217,174 L 219,172 L 220,172 L 220,171 L 221,170 L 222,170 L 222,169 L 225,166 L 225,165 L 226,164 L 226,159 L 227,158 L 227,156 L 226,155 L 226,149 L 224,147 L 224,146 L 222,144 L 222,143 L 221,143 L 220,142 L 220,141 L 218,139 L 216,139 L 214,137 L 208,137 L 207,136 Z" fill="black" /><path d="M 119,23 L 117,25 L 117,26 L 115,28 L 115,29 L 113,31 L 113,32 L 112,33 L 111,33 L 111,35 L 109,37 L 109,38 L 107,40 L 107,41 L 105,43 L 105,44 L 103,46 L 103,47 L 101,49 L 101,50 L 100,51 L 100,52 L 97,55 L 97,56 L 96,57 L 96,58 L 93,61 L 93,63 L 92,64 L 92,66 L 94,68 L 98,68 L 99,67 L 107,67 L 108,68 L 109,67 L 142,67 L 143,66 L 147,66 L 147,63 L 146,62 L 146,61 L 145,60 L 145,59 L 144,58 L 144,57 L 141,54 L 141,53 L 140,52 L 140,51 L 138,49 L 138,48 L 136,46 L 136,45 L 134,43 L 134,41 L 133,41 L 132,40 L 132,39 L 131,38 L 131,37 L 130,36 L 130,35 L 128,33 L 128,32 L 126,30 L 126,29 L 124,27 L 124,26 L 122,24 L 122,23 Z" fill="black" /></svg>