<?xml version='1.0' encoding='utf-8'?>
<svg width="260" height="217" xmlns="http://www.w3.org/2000/svg" viewBox="0 0 260 217"><rect width="260" height="217" fill="white" /><path d="M 129,148 L 128,149 L 127,149 L 126,150 L 124,150 L 124,151 L 123,152 L 123,153 L 122,154 L 122,159 L 123,160 L 123,161 L 124,162 L 124,163 L 125,164 L 133,164 L 134,163 L 135,163 L 137,161 L 137,152 L 135,150 L 134,150 L 133,149 L 132,149 L 131,148 Z" fill="black" /><path d="M 44,84 L 43,85 L 43,86 L 42,87 L 42,94 L 43,95 L 43,100 L 41,102 L 28,102 L 27,103 L 27,104 L 28,105 L 28,106 L 37,106 L 38,105 L 40,105 L 44,109 L 44,116 L 43,117 L 43,119 L 44,120 L 44,123 L 45,124 L 46,123 L 48,123 L 49,122 L 49,120 L 48,119 L 48,114 L 47,113 L 48,112 L 48,107 L 49,106 L 61,106 L 62,105 L 63,105 L 64,104 L 64,103 L 62,101 L 59,101 L 58,102 L 49,102 L 48,101 L 48,87 L 46,85 L 46,84 Z" fill="black" /><path d="M 236,7 L 235,8 L 232,8 L 232,9 L 230,11 L 230,17 L 231,18 L 231,19 L 232,20 L 232,21 L 234,23 L 241,23 L 243,21 L 244,21 L 245,20 L 245,18 L 246,17 L 246,15 L 245,14 L 245,11 L 242,8 L 240,8 L 239,7 Z" fill="black" /><path d="M 0,0 L 0,216 L 259,216 L 259,0 Z" fill="none" stroke="black" stroke-width="1" /></svg>