<?xml version='1.0' encoding='utf-8'?>
<svg width="259" height="220" xmlns="http://www.w3.org/2000/svg" viewBox="0 0 259 220"><rect width="259" height="220" fill="white" /><path d="M 54,195 L 53,196 L 51,196 L 50,197 L 50,199 L 48,201 L 48,205 L 49,206 L 49,207 L 53,211 L 59,211 L 60,210 L 61,210 L 64,207 L 64,201 L 63,200 L 63,199 L 59,195 Z" fill="black" /><path d="M 187,144 L 186,145 L 186,159 L 184,161 L 173,161 L 172,162 L 171,162 L 171,164 L 172,165 L 185,165 L 186,166 L 186,167 L 187,168 L 187,170 L 186,171 L 186,179 L 189,182 L 190,182 L 191,181 L 191,166 L 192,165 L 205,165 L 205,164 L 206,163 L 206,162 L 201,162 L 200,161 L 193,161 L 191,159 L 191,149 L 192,148 L 192,147 L 189,144 Z" fill="black" /><path d="M 104,40 L 102,42 L 101,42 L 101,43 L 100,44 L 100,45 L 99,46 L 99,50 L 100,51 L 100,53 L 102,55 L 105,55 L 106,56 L 107,56 L 108,55 L 111,55 L 115,51 L 115,44 L 111,40 Z" fill="black" /><path d="M 0,0 L 0,219 L 258,219 L 258,0 Z" fill="none" stroke="black" stroke-width="1" /></svg>