<?xml version='1.0' encoding='utf-8'?>
<svg width="263" height="218" xmlns="http://www.w3.org/2000/svg" viewBox="0 0 263 218"><rect width="263" height="218" fill="white" /><path d="M 53,156 L 51,158 L 49,158 L 49,159 L 47,161 L 47,167 L 48,168 L 48,169 L 49,170 L 49,171 L 50,171 L 51,172 L 52,172 L 53,173 L 56,173 L 57,172 L 58,172 L 59,171 L 60,171 L 62,169 L 62,168 L 64,166 L 64,159 L 63,158 L 61,158 L 59,156 Z" fill="black" /><path d="M 147,117 L 146,118 L 145,118 L 145,119 L 144,120 L 144,122 L 143,123 L 143,127 L 144,128 L 144,130 L 143,131 L 143,132 L 142,133 L 135,133 L 134,132 L 131,132 L 130,133 L 129,133 L 129,134 L 128,135 L 129,136 L 129,137 L 141,137 L 142,138 L 143,138 L 144,139 L 144,147 L 143,148 L 143,149 L 145,151 L 145,153 L 146,153 L 147,154 L 148,153 L 148,150 L 149,149 L 149,148 L 148,147 L 148,139 L 149,138 L 150,138 L 151,137 L 161,137 L 162,136 L 162,133 L 155,133 L 154,134 L 153,133 L 150,133 L 148,131 L 148,130 L 149,129 L 149,119 Z" fill="black" /><path d="M 200,52 L 198,54 L 198,55 L 197,56 L 197,57 L 196,58 L 196,62 L 197,63 L 197,64 L 200,67 L 209,67 L 210,66 L 210,65 L 212,63 L 212,57 L 210,55 L 210,54 L 208,52 Z" fill="black" /></svg>