<?xml version='1.0' encoding='utf-8'?>
<svg width="259" height="217" xmlns="http://www.w3.org/2000/svg" viewBox="0 0 259 217"><rect width="259" height="217" fill="white" /><path d="M 74,182 L 70,186 L 70,193 L 72,195 L 72,196 L 73,197 L 82,197 L 84,195 L 84,194 L 85,193 L 85,186 L 81,182 Z" fill="black" /><path d="M 152,84 L 151,85 L 150,85 L 148,87 L 148,88 L 146,90 L 146,93 L 147,94 L 147,95 L 148,96 L 148,97 L 150,99 L 151,99 L 152,100 L 158,100 L 159,99 L 160,99 L 161,98 L 161,96 L 163,94 L 163,92 L 164,91 L 163,90 L 163,88 L 160,85 L 158,85 L 157,84 Z" fill="black" /><path d="M 190,25 L 188,27 L 188,41 L 187,42 L 174,42 L 174,43 L 173,44 L 173,45 L 174,46 L 175,46 L 176,47 L 177,47 L 178,46 L 186,46 L 189,49 L 189,62 L 191,64 L 192,63 L 193,63 L 194,62 L 194,60 L 193,59 L 193,47 L 194,46 L 206,46 L 206,43 L 205,42 L 195,42 L 193,40 L 193,27 L 192,26 L 191,26 Z" fill="black" /></svg>