<?xml version='1.0' encoding='utf-8'?>
<svg width="259" height="219" xmlns="http://www.w3.org/2000/svg" viewBox="0 0 259 219"><rect width="259" height="219" fill="white" /><path d="M 109,176 L 107,178 L 106,178 L 103,181 L 103,187 L 104,188 L 104,189 L 105,190 L 105,191 L 106,191 L 107,192 L 108,192 L 109,193 L 113,193 L 115,191 L 116,191 L 118,189 L 118,183 L 116,181 L 116,180 L 114,178 L 113,178 L 111,176 Z" fill="black" /><path d="M 154,168 L 150,172 L 150,173 L 149,174 L 149,180 L 151,182 L 151,183 L 153,183 L 155,185 L 159,185 L 161,183 L 162,183 L 164,181 L 164,180 L 165,179 L 165,174 L 164,173 L 164,172 L 161,169 L 159,169 L 158,168 Z" fill="black" /><path d="M 114,59 L 112,61 L 112,74 L 111,75 L 96,75 L 94,77 L 95,78 L 95,79 L 110,79 L 112,81 L 112,93 L 113,94 L 113,95 L 114,96 L 115,96 L 116,95 L 117,95 L 117,90 L 116,89 L 116,81 L 118,79 L 133,79 L 133,78 L 134,77 L 133,76 L 133,75 L 127,75 L 126,74 L 117,74 L 116,73 L 116,71 L 117,70 L 116,69 L 116,64 L 117,63 L 117,61 L 116,60 L 115,60 Z" fill="black" /></svg>