<?xml version='1.0' encoding='utf-8'?>
<svg width="257" height="218" xmlns="http://www.w3.org/2000/svg" viewBox="0 0 257 218"><rect width="257" height="218" fill="white" /><path d="M 114,110 L 113,111 L 111,111 L 109,113 L 109,115 L 108,116 L 108,117 L 107,118 L 107,120 L 109,122 L 109,124 L 111,126 L 118,126 L 120,124 L 121,124 L 122,123 L 122,115 L 119,112 L 119,111 L 117,111 L 116,110 Z" fill="black" /><path d="M 192,57 L 191,58 L 190,58 L 189,59 L 188,59 L 188,60 L 187,61 L 187,62 L 186,63 L 186,67 L 187,68 L 187,69 L 189,71 L 189,72 L 190,72 L 191,73 L 192,73 L 193,74 L 197,74 L 199,72 L 201,72 L 202,71 L 202,70 L 204,68 L 204,63 L 198,57 Z" fill="black" /><path d="M 60,46 L 60,47 L 59,48 L 59,60 L 58,61 L 57,61 L 56,62 L 52,62 L 51,63 L 45,63 L 44,64 L 44,67 L 57,67 L 59,69 L 59,80 L 60,81 L 61,81 L 63,79 L 63,69 L 65,67 L 71,67 L 72,68 L 75,68 L 76,67 L 77,67 L 77,66 L 78,65 L 78,64 L 77,63 L 65,63 L 64,62 L 64,61 L 63,60 L 63,50 L 62,49 L 62,47 L 61,46 Z" fill="black" /></svg>