<?xml version='1.0' encoding='utf-8'?>
<svg width="260" height="217" xmlns="http://www.w3.org/2000/svg" viewBox="0 0 260 217"><rect width="260" height="217" fill="white" /><path d="M 168,166 L 166,168 L 165,168 L 165,169 L 163,171 L 163,177 L 168,182 L 170,182 L 171,181 L 176,181 L 178,179 L 178,178 L 180,176 L 180,174 L 179,173 L 179,170 L 177,168 L 175,168 L 173,166 Z" fill="black" /><path d="M 225,81 L 224,82 L 223,82 L 220,85 L 220,87 L 219,88 L 219,89 L 220,90 L 220,92 L 221,93 L 221,95 L 222,95 L 224,97 L 232,97 L 232,96 L 234,94 L 234,93 L 236,91 L 236,88 L 234,86 L 234,84 L 232,82 L 230,82 L 229,81 Z" fill="black" /><path d="M 61,34 L 61,39 L 60,40 L 60,47 L 59,48 L 46,48 L 46,49 L 45,50 L 46,51 L 46,52 L 59,52 L 60,53 L 60,59 L 61,60 L 61,65 L 62,65 L 63,66 L 64,65 L 65,65 L 65,55 L 66,54 L 66,53 L 67,52 L 72,52 L 73,53 L 77,53 L 80,50 L 80,48 L 79,47 L 76,47 L 75,46 L 74,47 L 71,47 L 70,48 L 67,48 L 66,47 L 66,34 Z" fill="black" /><path d="M 0,0 L 0,216 L 259,216 L 259,0 Z" fill="none" stroke="black" stroke-width="1" /></svg>