<?xml version='1.0' encoding='utf-8'?>
<svg width="258" height="218" xmlns="http://www.w3.org/2000/svg" viewBox="0 0 258 218"><rect width="258" height="218" fill="white" /><path d="M 145,181 L 144,182 L 144,183 L 142,185 L 142,188 L 141,189 L 141,192 L 142,193 L 142,195 L 144,197 L 146,197 L 147,198 L 151,198 L 155,194 L 155,185 L 152,182 L 151,182 L 150,181 Z" fill="black" /><path d="M 92,129 L 92,143 L 90,145 L 82,145 L 81,144 L 80,144 L 79,145 L 78,145 L 78,146 L 77,147 L 79,149 L 91,149 L 92,150 L 92,162 L 93,163 L 93,164 L 94,164 L 95,165 L 96,164 L 97,164 L 97,153 L 96,152 L 96,150 L 97,149 L 99,149 L 100,148 L 101,148 L 102,149 L 110,149 L 110,146 L 109,145 L 98,145 L 97,144 L 97,137 L 96,136 L 97,135 L 97,129 Z" fill="black" /><path d="M 243,2 L 242,3 L 236,3 L 234,5 L 234,6 L 233,7 L 233,12 L 234,13 L 234,14 L 238,18 L 243,18 L 244,17 L 245,17 L 246,16 L 247,16 L 247,15 L 249,13 L 249,7 L 244,2 Z" fill="black" /></svg>