<?xml version='1.0' encoding='utf-8'?>
<svg width="261" height="222" xmlns="http://www.w3.org/2000/svg" viewBox="0 0 261 222"><rect width="261" height="222" fill="white" /><path d="M 52,166 L 52,167 L 51,168 L 51,171 L 47,175 L 47,176 L 45,178 L 45,179 L 44,180 L 44,181 L 43,182 L 43,183 L 41,185 L 41,186 L 39,188 L 39,190 L 37,192 L 37,193 L 35,195 L 35,196 L 33,198 L 33,199 L 32,200 L 32,201 L 31,202 L 31,203 L 30,204 L 29,204 L 29,208 L 32,208 L 33,209 L 74,209 L 75,210 L 76,209 L 77,209 L 76,208 L 76,207 L 75,207 L 74,206 L 74,204 L 73,203 L 73,202 L 72,201 L 72,200 L 70,198 L 70,196 L 69,196 L 68,195 L 68,193 L 66,191 L 66,189 L 64,187 L 64,185 L 63,184 L 63,183 L 62,182 L 62,181 L 60,179 L 60,178 L 59,177 L 59,176 L 58,175 L 58,174 L 57,173 L 57,170 L 56,169 L 56,166 Z" fill="black" /><path d="M 213,161 L 212,162 L 206,162 L 204,164 L 203,164 L 203,165 L 202,166 L 201,166 L 199,168 L 199,169 L 198,170 L 198,171 L 197,172 L 197,174 L 196,175 L 196,177 L 195,178 L 195,187 L 196,188 L 196,189 L 197,190 L 197,192 L 199,194 L 199,195 L 200,195 L 201,196 L 201,197 L 202,197 L 203,198 L 203,199 L 204,199 L 205,200 L 206,200 L 207,201 L 209,201 L 210,202 L 212,202 L 213,203 L 217,203 L 218,202 L 220,202 L 221,201 L 224,201 L 225,200 L 226,200 L 227,199 L 228,199 L 228,198 L 229,197 L 230,197 L 230,196 L 234,192 L 234,190 L 235,189 L 235,188 L 236,187 L 236,176 L 235,175 L 235,173 L 234,172 L 234,170 L 233,170 L 232,169 L 232,168 L 230,166 L 229,166 L 227,164 L 225,164 L 224,163 L 223,163 L 222,162 L 221,162 L 220,161 Z" fill="black" /><path d="M 139,160 L 135,164 L 135,166 L 134,167 L 134,168 L 133,169 L 133,170 L 131,172 L 131,173 L 130,174 L 129,174 L 129,175 L 128,176 L 128,177 L 127,178 L 127,179 L 125,181 L 125,183 L 123,185 L 123,186 L 121,188 L 121,190 L 119,192 L 119,193 L 118,194 L 118,195 L 117,196 L 117,197 L 116,198 L 115,198 L 115,199 L 113,201 L 113,203 L 114,204 L 114,205 L 122,205 L 123,204 L 124,204 L 125,205 L 126,205 L 127,204 L 156,204 L 157,205 L 160,205 L 161,204 L 163,204 L 164,203 L 167,203 L 167,201 L 166,200 L 166,198 L 164,196 L 164,195 L 162,193 L 162,192 L 159,189 L 159,188 L 158,187 L 158,186 L 156,184 L 156,183 L 154,181 L 154,180 L 152,178 L 152,177 L 150,175 L 150,174 L 148,172 L 148,171 L 146,169 L 146,168 L 144,166 L 144,165 L 142,163 L 142,162 L 141,161 L 141,160 Z" fill="black" /><path d="M 41,42 L 39,44 L 39,45 L 37,47 L 37,49 L 35,51 L 35,52 L 33,54 L 33,55 L 31,57 L 31,59 L 28,62 L 28,63 L 27,64 L 27,65 L 26,66 L 26,67 L 25,68 L 25,69 L 24,70 L 24,71 L 23,72 L 23,73 L 21,75 L 21,77 L 19,79 L 19,83 L 65,83 L 67,85 L 69,85 L 69,82 L 68,81 L 68,80 L 66,78 L 66,77 L 64,75 L 64,74 L 62,72 L 62,71 L 60,69 L 60,67 L 58,65 L 58,64 L 57,64 L 56,63 L 56,62 L 55,61 L 55,60 L 54,59 L 54,58 L 51,55 L 51,54 L 50,53 L 50,52 L 48,50 L 48,49 L 46,47 L 46,46 L 43,43 L 43,42 Z" fill="black" /><path d="M 207,35 L 206,36 L 203,36 L 202,37 L 201,37 L 200,38 L 199,38 L 199,39 L 198,40 L 197,40 L 197,41 L 196,42 L 195,42 L 193,44 L 193,48 L 191,50 L 191,61 L 193,63 L 193,65 L 195,67 L 195,69 L 197,71 L 198,71 L 200,73 L 201,73 L 203,75 L 207,75 L 208,76 L 214,76 L 215,75 L 220,75 L 222,73 L 223,73 L 225,71 L 226,71 L 226,69 L 227,68 L 228,68 L 228,67 L 230,65 L 230,63 L 232,61 L 232,50 L 230,48 L 230,46 L 229,46 L 228,45 L 228,44 L 226,42 L 226,41 L 225,40 L 224,40 L 222,38 L 220,38 L 218,36 L 212,36 L 211,35 Z" fill="black" /><path d="M 130,22 L 129,23 L 126,23 L 125,24 L 123,24 L 121,26 L 120,26 L 117,29 L 117,30 L 115,32 L 115,35 L 114,36 L 114,37 L 113,38 L 113,48 L 114,49 L 114,51 L 115,52 L 115,53 L 116,53 L 117,54 L 117,55 L 118,55 L 119,56 L 119,57 L 121,59 L 122,59 L 123,60 L 123,61 L 126,61 L 127,62 L 130,62 L 131,63 L 139,63 L 140,62 L 141,62 L 142,61 L 143,61 L 145,59 L 146,59 L 150,55 L 150,54 L 152,52 L 152,51 L 154,49 L 154,38 L 153,37 L 153,36 L 152,35 L 152,33 L 150,31 L 150,30 L 144,24 L 140,24 L 138,22 Z" fill="black" /></svg>