<?xml version='1.0' encoding='utf-8'?>
<svg width="259" height="217" xmlns="http://www.w3.org/2000/svg" viewBox="0 0 259 217"><rect width="259" height="217" fill="white" /><path d="M 206,132 L 204,134 L 200,134 L 199,135 L 198,135 L 197,136 L 196,136 L 196,137 L 195,138 L 194,138 L 194,139 L 193,140 L 192,140 L 192,141 L 191,142 L 190,142 L 190,143 L 189,144 L 189,145 L 188,146 L 188,149 L 187,150 L 187,153 L 186,154 L 186,157 L 187,158 L 187,159 L 188,160 L 188,163 L 189,164 L 189,165 L 190,166 L 190,167 L 191,167 L 192,168 L 192,169 L 194,171 L 194,172 L 195,173 L 196,173 L 197,174 L 198,174 L 199,175 L 201,175 L 202,176 L 204,176 L 205,177 L 211,177 L 212,176 L 214,176 L 215,175 L 218,175 L 220,173 L 221,173 L 225,169 L 225,168 L 227,166 L 227,164 L 228,163 L 228,162 L 229,161 L 229,158 L 230,157 L 230,151 L 229,150 L 229,147 L 227,145 L 227,144 L 226,143 L 226,142 L 222,138 L 221,138 L 219,136 L 218,136 L 217,135 L 216,135 L 215,134 L 212,134 L 211,133 L 209,133 L 208,132 Z" fill="black" /><path d="M 98,118 L 96,120 L 96,121 L 95,122 L 95,123 L 92,126 L 92,127 L 90,129 L 90,130 L 88,132 L 88,133 L 87,134 L 87,135 L 86,136 L 86,137 L 85,138 L 84,138 L 84,140 L 82,142 L 82,143 L 81,144 L 80,144 L 80,146 L 78,148 L 78,149 L 76,151 L 76,153 L 75,154 L 74,154 L 74,155 L 73,156 L 73,157 L 72,158 L 72,159 L 69,162 L 70,163 L 123,163 L 124,164 L 126,164 L 126,160 L 125,159 L 125,157 L 123,155 L 123,154 L 121,152 L 121,150 L 120,150 L 119,149 L 119,147 L 117,145 L 117,144 L 116,143 L 116,142 L 115,141 L 115,140 L 114,140 L 113,139 L 113,138 L 112,137 L 112,136 L 111,135 L 111,134 L 110,134 L 109,133 L 109,131 L 107,129 L 107,128 L 105,126 L 105,125 L 103,123 L 103,122 L 102,121 L 102,120 L 100,118 Z" fill="black" /><path d="M 60,49 L 59,50 L 56,50 L 55,51 L 54,51 L 53,52 L 52,52 L 50,54 L 49,54 L 47,56 L 46,56 L 46,57 L 44,59 L 44,61 L 42,63 L 42,67 L 41,68 L 41,69 L 42,70 L 42,71 L 41,72 L 41,73 L 42,74 L 42,78 L 44,80 L 44,82 L 48,86 L 49,86 L 50,87 L 51,87 L 53,89 L 55,89 L 56,90 L 57,90 L 58,91 L 66,91 L 67,90 L 68,90 L 69,89 L 71,89 L 72,88 L 73,88 L 76,85 L 76,84 L 79,81 L 79,80 L 80,79 L 80,78 L 81,77 L 81,69 L 82,68 L 82,66 L 81,65 L 81,62 L 79,60 L 79,59 L 77,57 L 77,56 L 76,56 L 75,55 L 75,54 L 74,54 L 73,53 L 73,52 L 72,52 L 71,51 L 70,51 L 69,50 L 62,50 L 61,49 Z" fill="black" /><path d="M 193,42 L 191,44 L 188,44 L 186,46 L 185,46 L 183,48 L 182,48 L 182,49 L 178,53 L 178,57 L 177,58 L 177,61 L 176,62 L 176,65 L 177,66 L 177,68 L 178,69 L 178,71 L 180,73 L 180,75 L 181,75 L 184,78 L 184,79 L 185,79 L 187,81 L 190,81 L 191,82 L 193,82 L 194,83 L 201,83 L 202,82 L 203,82 L 204,81 L 206,81 L 208,79 L 209,79 L 211,77 L 211,76 L 212,75 L 213,75 L 213,73 L 214,72 L 215,72 L 215,69 L 216,68 L 216,66 L 217,65 L 217,64 L 216,63 L 216,58 L 215,57 L 215,54 L 214,53 L 214,52 L 208,46 L 206,46 L 204,44 L 203,44 L 202,43 L 201,43 L 200,42 L 198,42 L 197,43 L 195,43 L 194,42 Z" fill="black" /><path d="M 124,16 L 123,17 L 122,17 L 121,18 L 120,18 L 118,20 L 117,20 L 115,22 L 114,22 L 114,23 L 112,25 L 112,27 L 110,29 L 110,32 L 109,33 L 109,37 L 110,38 L 110,41 L 111,42 L 111,43 L 112,44 L 112,47 L 114,49 L 115,49 L 116,50 L 116,51 L 118,53 L 119,53 L 120,54 L 120,55 L 124,55 L 125,56 L 126,56 L 127,57 L 136,57 L 138,55 L 141,55 L 143,53 L 143,52 L 148,47 L 148,46 L 149,45 L 149,41 L 150,40 L 150,38 L 151,37 L 151,36 L 150,35 L 150,32 L 149,31 L 149,29 L 148,28 L 148,27 L 147,26 L 147,25 L 145,23 L 145,22 L 144,22 L 143,21 L 143,20 L 142,20 L 141,19 L 140,19 L 139,18 L 138,18 L 137,17 L 135,17 L 134,16 Z" fill="black" /></svg>