<?xml version='1.0' encoding='utf-8'?>
<svg width="259" height="222" xmlns="http://www.w3.org/2000/svg" viewBox="0 0 259 222"><rect width="259" height="222" fill="white" /><path d="M 40,166 L 39,167 L 37,167 L 36,168 L 32,168 L 28,172 L 26,172 L 26,173 L 25,174 L 25,175 L 22,178 L 22,181 L 21,182 L 21,185 L 20,186 L 20,187 L 21,188 L 21,190 L 22,191 L 22,192 L 23,193 L 23,194 L 24,195 L 24,197 L 30,203 L 31,203 L 32,204 L 32,205 L 35,205 L 36,206 L 37,206 L 38,207 L 47,207 L 48,206 L 49,206 L 50,205 L 53,205 L 57,201 L 57,199 L 61,195 L 61,192 L 62,191 L 62,184 L 61,183 L 61,178 L 60,178 L 59,177 L 59,176 L 58,175 L 58,174 L 55,171 L 54,171 L 51,168 L 48,168 L 47,167 L 42,167 L 41,166 Z" fill="black" /><path d="M 105,141 L 105,142 L 103,144 L 103,145 L 102,146 L 102,147 L 100,149 L 100,150 L 98,152 L 98,153 L 96,155 L 96,156 L 94,158 L 94,159 L 93,160 L 93,161 L 92,162 L 92,163 L 91,164 L 90,164 L 90,165 L 89,166 L 89,167 L 86,170 L 86,171 L 85,172 L 85,173 L 84,174 L 84,175 L 82,177 L 82,179 L 81,180 L 80,180 L 80,185 L 81,185 L 82,186 L 84,186 L 85,185 L 104,185 L 105,184 L 107,184 L 108,185 L 109,185 L 110,184 L 126,184 L 127,183 L 134,183 L 134,181 L 132,179 L 132,178 L 131,177 L 131,176 L 128,173 L 128,172 L 125,169 L 125,168 L 124,167 L 124,166 L 123,165 L 123,164 L 121,162 L 121,161 L 120,160 L 120,159 L 117,156 L 117,154 L 116,154 L 115,153 L 115,152 L 114,151 L 114,150 L 113,149 L 113,148 L 112,148 L 111,147 L 111,146 L 109,144 L 109,143 L 108,142 L 108,141 Z" fill="black" /><path d="M 27,112 L 26,113 L 25,113 L 24,114 L 21,114 L 19,116 L 18,116 L 18,117 L 17,118 L 16,118 L 14,120 L 14,121 L 13,122 L 13,123 L 12,124 L 12,127 L 11,128 L 11,130 L 10,131 L 10,135 L 11,136 L 11,137 L 12,138 L 12,141 L 14,143 L 14,144 L 16,146 L 16,147 L 17,147 L 18,148 L 19,148 L 22,151 L 25,151 L 26,152 L 33,152 L 34,151 L 37,151 L 38,150 L 39,150 L 40,149 L 41,149 L 43,147 L 44,147 L 44,146 L 47,143 L 47,142 L 49,140 L 49,138 L 50,137 L 50,134 L 51,133 L 51,128 L 50,127 L 50,126 L 49,125 L 49,123 L 47,121 L 47,120 L 41,114 L 39,114 L 38,113 L 37,113 L 36,112 Z" fill="black" /><path d="M 154,84 L 153,85 L 152,85 L 151,86 L 149,86 L 148,87 L 147,87 L 146,88 L 145,88 L 141,92 L 140,92 L 140,93 L 139,94 L 139,95 L 138,96 L 138,97 L 137,98 L 137,99 L 136,100 L 136,113 L 138,115 L 138,117 L 140,119 L 140,120 L 143,123 L 144,123 L 146,125 L 147,125 L 149,127 L 151,127 L 152,128 L 156,128 L 157,129 L 159,129 L 160,128 L 162,128 L 163,127 L 166,127 L 168,125 L 169,125 L 170,124 L 171,124 L 175,120 L 175,119 L 177,117 L 177,115 L 178,114 L 178,113 L 179,112 L 179,99 L 177,97 L 177,95 L 175,93 L 175,92 L 173,90 L 172,90 L 170,88 L 169,88 L 167,86 L 165,86 L 164,85 L 163,85 L 162,84 Z" fill="black" /><path d="M 82,74 L 82,77 L 81,78 L 80,78 L 80,79 L 79,80 L 79,81 L 78,82 L 78,83 L 77,84 L 76,84 L 76,86 L 74,88 L 74,89 L 72,91 L 72,93 L 71,94 L 70,94 L 70,95 L 69,96 L 69,97 L 68,98 L 68,99 L 67,100 L 66,100 L 66,102 L 64,104 L 64,105 L 63,106 L 63,107 L 60,110 L 60,112 L 59,113 L 59,116 L 66,116 L 67,115 L 91,115 L 92,114 L 95,114 L 96,115 L 99,115 L 100,114 L 101,114 L 102,115 L 104,115 L 106,113 L 107,113 L 108,112 L 108,110 L 107,109 L 107,108 L 105,106 L 105,104 L 104,104 L 103,103 L 103,102 L 101,100 L 101,99 L 99,97 L 99,96 L 97,94 L 97,92 L 96,92 L 95,91 L 95,89 L 93,87 L 93,86 L 91,84 L 91,82 L 87,78 L 87,77 L 85,75 L 85,74 Z" fill="black" /><path d="M 210,60 L 209,61 L 209,62 L 208,63 L 208,64 L 206,66 L 206,67 L 205,68 L 205,69 L 204,70 L 204,71 L 202,73 L 202,75 L 200,77 L 200,78 L 198,80 L 198,82 L 196,84 L 196,85 L 194,87 L 194,89 L 192,91 L 192,92 L 190,94 L 190,95 L 189,96 L 189,97 L 188,98 L 188,101 L 238,101 L 240,99 L 239,98 L 238,98 L 237,97 L 237,94 L 236,94 L 235,93 L 235,92 L 233,90 L 233,89 L 231,87 L 231,86 L 229,84 L 229,83 L 227,81 L 227,80 L 225,78 L 225,77 L 223,75 L 223,73 L 221,71 L 221,70 L 218,67 L 218,66 L 217,65 L 217,64 L 216,64 L 215,63 L 215,62 L 213,60 Z" fill="black" /><path d="M 125,34 L 123,36 L 122,36 L 120,38 L 119,38 L 115,42 L 115,43 L 114,44 L 114,45 L 113,46 L 113,47 L 112,48 L 112,50 L 111,51 L 111,53 L 110,54 L 110,60 L 112,62 L 112,65 L 114,67 L 114,68 L 116,70 L 116,71 L 117,71 L 118,72 L 118,73 L 119,73 L 121,75 L 123,75 L 124,76 L 125,76 L 126,77 L 131,77 L 132,78 L 134,78 L 135,77 L 139,77 L 140,76 L 141,76 L 142,75 L 143,75 L 144,74 L 145,74 L 149,70 L 149,69 L 151,67 L 151,66 L 153,64 L 153,60 L 154,59 L 154,50 L 153,49 L 153,46 L 151,44 L 151,42 L 149,40 L 148,40 L 147,39 L 147,38 L 146,38 L 144,36 L 142,36 L 140,34 Z" fill="black" /><path d="M 155,17 L 154,18 L 153,18 L 153,19 L 154,20 L 154,21 L 156,23 L 156,24 L 158,26 L 158,27 L 159,28 L 159,29 L 160,30 L 160,31 L 162,33 L 162,34 L 164,36 L 164,37 L 166,39 L 166,40 L 168,42 L 168,43 L 170,45 L 170,47 L 171,47 L 172,48 L 172,49 L 173,50 L 173,51 L 174,52 L 174,53 L 175,53 L 176,54 L 176,55 L 177,56 L 177,58 L 178,59 L 179,59 L 180,58 L 180,57 L 182,55 L 182,54 L 183,53 L 183,51 L 185,49 L 185,47 L 187,45 L 187,44 L 188,43 L 188,42 L 189,41 L 189,40 L 190,39 L 190,38 L 191,37 L 191,36 L 193,34 L 193,32 L 195,30 L 195,28 L 196,27 L 197,27 L 197,25 L 199,23 L 199,22 L 202,19 L 200,17 L 167,17 L 166,18 L 165,17 L 161,17 L 160,18 L 159,17 Z" fill="black" /></svg>