<?xml version="1.0" encoding="utf-8" ?>
<svg baseProfile="full" height="217" version="1.1" width="259" xmlns="http://www.w3.org/2000/svg" xmlns:ev="http://www.w3.org/2001/xml-events" xmlns:xlink="http://www.w3.org/1999/xlink"><defs /><rect fill="white" height="217" width="259" x="0" y="0" /><path d="M 234,166 L 205,169 L 221,191 Z" fill="none" stroke="black" stroke-width="1" /><path d="M 195,160 L 246,163 L 221,203 Z" fill="black" stroke="black" stroke-width="1" /><path d="M 161,141 L 192,139 L 176,118 Z" fill="none" stroke="black" stroke-width="1" /><path d="M 150,148 L 174,107 L 208,147 Z" fill="black" stroke="black" stroke-width="1" /><circle cx="101.2272720336914" cy="101.2272720336914" fill="none" r="15.757165908813477" stroke="black" stroke-width="1" /><circle cx="101.15592956542969" cy="101.4097900390625" fill="none" r="22.321247100830078" stroke="black" stroke-width="1" /><circle cx="222.0" cy="86.0" fill="none" r="14.31792163848877" stroke="black" stroke-width="1" /><circle cx="222.0" cy="86.5" fill="black" r="22.07383918762207" stroke="black" stroke-width="1" /><circle cx="49.6607551574707" cy="55.92316818237305" fill="none" r="15.514997482299805" stroke="black" stroke-width="1" /><circle cx="49.75608444213867" cy="56.11761474609375" fill="none" r="22.202510833740234" stroke="black" stroke-width="1" /><path d="M 92,47 L 126,50 L 109,22 Z" fill="none" stroke="black" stroke-width="1" /><path d="M 107,12 L 131,56 L 81,53 Z" fill="black" stroke="black" stroke-width="1" /><path d="M 0,0 L 0,216 L 258,216 L 258,0 Z" fill="none" stroke="black" stroke-width="1" /></svg>