<?xml version='1.0' encoding='utf-8'?>
<svg width="260" height="220" xmlns="http://www.w3.org/2000/svg" viewBox="0 0 260 220"><rect width="260" height="220" fill="white" /><path d="M 193,166 L 193,167 L 192,168 L 190,168 L 188,170 L 187,170 L 187,171 L 186,172 L 185,172 L 185,173 L 184,174 L 183,174 L 181,176 L 181,178 L 180,179 L 180,181 L 179,182 L 179,195 L 181,197 L 181,199 L 183,201 L 183,202 L 184,203 L 185,203 L 187,205 L 188,205 L 189,206 L 190,206 L 191,207 L 192,207 L 193,208 L 196,208 L 197,209 L 202,209 L 203,208 L 204,208 L 205,207 L 206,207 L 207,206 L 208,206 L 209,205 L 210,205 L 212,203 L 213,203 L 213,202 L 216,199 L 216,198 L 217,197 L 218,197 L 218,194 L 219,193 L 219,191 L 220,190 L 220,184 L 218,182 L 218,178 L 212,172 L 212,171 L 211,171 L 210,170 L 209,170 L 208,169 L 207,169 L 206,168 L 205,168 L 204,167 L 200,167 L 199,166 Z" fill="black" /><path d="M 76,163 L 73,166 L 73,167 L 71,169 L 71,170 L 69,172 L 69,173 L 67,175 L 67,176 L 65,178 L 65,179 L 63,181 L 63,182 L 61,184 L 61,185 L 59,187 L 59,188 L 57,190 L 57,191 L 55,193 L 55,194 L 53,196 L 53,197 L 52,198 L 52,199 L 51,200 L 51,201 L 49,203 L 49,205 L 50,206 L 78,206 L 79,207 L 80,206 L 96,206 L 97,205 L 99,205 L 99,201 L 98,200 L 97,200 L 96,199 L 96,197 L 94,195 L 94,193 L 92,191 L 92,190 L 90,188 L 90,186 L 88,184 L 88,183 L 86,181 L 86,180 L 85,179 L 85,178 L 84,177 L 84,176 L 83,175 L 83,174 L 82,173 L 82,172 L 80,170 L 80,169 L 78,167 L 78,164 L 77,163 Z" fill="black" /><path d="M 89,107 L 88,108 L 85,108 L 80,113 L 79,113 L 78,114 L 78,115 L 77,116 L 77,117 L 75,119 L 75,123 L 74,124 L 74,131 L 75,132 L 75,134 L 76,135 L 76,136 L 77,137 L 77,139 L 79,141 L 80,141 L 81,142 L 82,142 L 85,145 L 86,145 L 87,146 L 88,146 L 89,147 L 102,147 L 104,145 L 106,145 L 108,143 L 109,143 L 110,142 L 110,141 L 114,137 L 114,134 L 115,133 L 115,130 L 116,129 L 116,125 L 115,124 L 115,122 L 114,121 L 114,120 L 113,119 L 113,117 L 112,116 L 111,116 L 110,115 L 110,114 L 106,110 L 105,110 L 103,108 L 100,108 L 99,107 Z" fill="black" /><path d="M 174,105 L 173,106 L 173,107 L 172,108 L 172,109 L 171,110 L 171,111 L 169,113 L 169,114 L 167,116 L 167,117 L 165,119 L 165,120 L 163,122 L 163,123 L 161,125 L 161,126 L 159,128 L 159,129 L 158,130 L 158,131 L 157,132 L 157,133 L 156,134 L 155,134 L 155,135 L 154,136 L 154,137 L 153,138 L 153,139 L 152,140 L 152,143 L 153,144 L 199,144 L 200,143 L 199,142 L 199,141 L 197,139 L 197,138 L 196,137 L 196,136 L 195,136 L 194,135 L 194,134 L 193,133 L 193,132 L 192,131 L 192,130 L 190,128 L 190,127 L 188,125 L 188,124 L 186,122 L 186,121 L 184,119 L 184,118 L 183,117 L 183,116 L 182,115 L 182,114 L 180,112 L 180,110 L 178,108 L 178,107 L 176,105 Z" fill="black" /><path d="M 125,50 L 123,52 L 123,53 L 122,54 L 121,54 L 121,55 L 119,57 L 119,58 L 117,60 L 117,61 L 116,62 L 116,63 L 115,64 L 115,65 L 114,66 L 113,66 L 113,67 L 112,68 L 112,69 L 111,70 L 111,71 L 110,72 L 110,73 L 107,76 L 107,78 L 105,80 L 105,81 L 104,82 L 104,83 L 103,84 L 103,85 L 101,87 L 101,89 L 100,90 L 100,91 L 98,93 L 98,96 L 104,96 L 105,97 L 106,97 L 107,96 L 129,96 L 130,95 L 131,96 L 136,96 L 137,95 L 138,95 L 139,96 L 142,96 L 143,95 L 145,95 L 146,96 L 147,95 L 149,95 L 150,96 L 151,95 L 152,95 L 151,94 L 151,93 L 150,92 L 149,92 L 148,91 L 148,89 L 146,87 L 146,85 L 144,83 L 144,81 L 142,79 L 142,77 L 140,75 L 140,74 L 138,72 L 138,70 L 136,68 L 136,66 L 135,66 L 134,65 L 134,62 L 132,60 L 132,58 L 131,57 L 131,56 L 130,55 L 130,54 L 129,54 L 128,53 L 128,52 L 127,51 L 127,50 Z" fill="black" /><path d="M 192,12 L 191,13 L 189,13 L 188,14 L 187,14 L 186,15 L 184,15 L 183,16 L 182,16 L 181,17 L 181,18 L 177,22 L 177,24 L 175,26 L 175,29 L 174,30 L 174,37 L 175,38 L 175,41 L 177,43 L 177,44 L 179,46 L 179,47 L 180,47 L 181,48 L 181,49 L 182,49 L 184,51 L 185,51 L 187,53 L 190,53 L 191,54 L 196,54 L 197,53 L 202,53 L 204,51 L 206,51 L 210,47 L 210,46 L 211,45 L 212,45 L 212,43 L 214,41 L 214,37 L 215,36 L 215,28 L 214,27 L 214,25 L 212,23 L 212,21 L 208,17 L 207,17 L 206,16 L 205,16 L 203,14 L 201,14 L 200,13 L 198,13 L 197,12 Z" fill="black" /><path d="M 62,10 L 60,12 L 58,12 L 56,14 L 55,14 L 53,16 L 52,16 L 51,17 L 51,19 L 50,20 L 49,20 L 49,24 L 48,25 L 48,27 L 47,28 L 47,29 L 48,30 L 48,33 L 49,34 L 49,37 L 51,39 L 51,40 L 53,42 L 53,43 L 55,45 L 56,45 L 57,46 L 57,47 L 60,47 L 61,48 L 62,48 L 63,49 L 67,49 L 68,50 L 69,50 L 70,49 L 74,49 L 75,48 L 76,48 L 77,47 L 78,47 L 80,45 L 81,45 L 84,42 L 84,41 L 86,39 L 86,38 L 87,37 L 87,36 L 88,35 L 88,26 L 87,25 L 87,22 L 86,21 L 86,20 L 84,18 L 84,17 L 82,15 L 81,15 L 78,12 L 77,12 L 76,11 L 73,11 L 72,10 Z" fill="black" /></svg>