<?xml version='1.0' encoding='utf-8'?>
<svg width="262" height="219" xmlns="http://www.w3.org/2000/svg" viewBox="0 0 262 219"><rect width="262" height="219" fill="white" /><path d="M 158,147 L 158,150 L 160,152 L 160,154 L 161,154 L 162,155 L 162,156 L 163,157 L 163,158 L 164,159 L 164,160 L 166,162 L 166,164 L 167,164 L 168,165 L 168,166 L 170,168 L 170,170 L 174,174 L 174,175 L 176,177 L 176,179 L 178,181 L 178,182 L 180,184 L 180,185 L 184,189 L 185,188 L 185,186 L 187,184 L 187,183 L 189,181 L 189,180 L 190,179 L 190,178 L 191,177 L 191,175 L 192,174 L 193,174 L 193,173 L 195,171 L 195,170 L 197,168 L 197,167 L 198,166 L 198,165 L 199,164 L 199,163 L 200,162 L 201,162 L 201,160 L 203,158 L 203,157 L 205,155 L 205,154 L 210,149 L 210,148 L 209,147 Z" fill="black" /><path d="M 60,145 L 58,147 L 56,147 L 50,153 L 50,154 L 48,156 L 48,157 L 46,159 L 46,174 L 48,176 L 48,177 L 50,179 L 50,180 L 51,180 L 52,181 L 52,182 L 53,182 L 55,184 L 56,184 L 58,186 L 64,186 L 65,187 L 66,187 L 67,186 L 74,186 L 76,184 L 77,184 L 79,182 L 80,182 L 84,178 L 84,177 L 85,176 L 85,174 L 86,173 L 86,172 L 87,171 L 87,161 L 86,160 L 86,158 L 85,157 L 85,155 L 84,155 L 83,154 L 83,151 L 81,149 L 80,149 L 79,148 L 78,148 L 77,147 L 76,147 L 75,146 L 74,146 L 73,145 Z" fill="black" /><path d="M 180,55 L 179,56 L 179,58 L 178,59 L 178,60 L 176,62 L 176,64 L 174,66 L 174,67 L 172,69 L 172,70 L 171,71 L 171,72 L 170,73 L 170,74 L 169,75 L 169,76 L 168,77 L 168,78 L 166,80 L 166,82 L 165,83 L 165,84 L 163,86 L 163,87 L 162,88 L 162,90 L 161,91 L 160,91 L 160,94 L 158,96 L 158,100 L 159,101 L 160,101 L 161,102 L 181,102 L 182,101 L 203,101 L 204,100 L 205,100 L 207,98 L 207,95 L 205,93 L 205,92 L 204,91 L 204,90 L 202,88 L 202,87 L 201,86 L 201,85 L 200,84 L 200,83 L 199,82 L 199,81 L 198,81 L 197,80 L 197,79 L 196,78 L 196,77 L 195,76 L 195,75 L 194,75 L 193,74 L 193,73 L 192,72 L 192,71 L 191,70 L 191,69 L 189,67 L 189,65 L 188,64 L 188,63 L 185,60 L 185,59 L 182,56 L 182,55 Z" fill="black" /><path d="M 56,53 L 56,56 L 54,58 L 54,59 L 52,61 L 52,62 L 50,64 L 50,65 L 48,67 L 48,68 L 47,69 L 47,70 L 46,71 L 46,72 L 44,74 L 44,75 L 42,77 L 42,78 L 40,80 L 40,82 L 38,84 L 38,85 L 36,87 L 36,88 L 34,90 L 34,92 L 33,93 L 33,95 L 34,96 L 83,96 L 83,92 L 81,90 L 81,89 L 79,87 L 79,86 L 77,84 L 77,81 L 76,81 L 75,80 L 75,79 L 74,78 L 74,77 L 73,76 L 73,75 L 71,73 L 71,72 L 69,70 L 69,69 L 67,67 L 67,66 L 65,64 L 65,63 L 63,61 L 63,60 L 59,56 L 59,53 Z" fill="black" /><path d="M 0,0 L 0,218 L 261,218 L 261,0 Z" fill="none" stroke="black" stroke-width="1" /></svg>