<?xml version='1.0' encoding='utf-8'?>
<svg width="261" height="222" xmlns="http://www.w3.org/2000/svg" viewBox="0 0 261 222"><rect width="261" height="222" fill="white" /><path d="M 138,170 L 137,171 L 136,171 L 135,172 L 134,172 L 133,173 L 132,173 L 131,174 L 130,174 L 130,175 L 129,176 L 128,176 L 128,177 L 127,178 L 126,178 L 126,179 L 124,181 L 124,182 L 123,183 L 123,185 L 122,186 L 122,196 L 124,198 L 124,200 L 126,202 L 126,203 L 130,207 L 131,207 L 133,209 L 135,209 L 137,211 L 149,211 L 151,209 L 153,209 L 154,208 L 155,208 L 156,207 L 157,207 L 157,206 L 158,205 L 159,205 L 161,203 L 161,199 L 163,197 L 163,184 L 161,182 L 161,180 L 160,180 L 159,179 L 159,178 L 158,177 L 158,176 L 157,176 L 155,174 L 154,174 L 152,172 L 149,172 L 148,171 L 147,171 L 146,170 Z" fill="black" /><path d="M 218,161 L 217,162 L 216,162 L 216,165 L 213,168 L 213,169 L 212,170 L 212,171 L 210,173 L 210,174 L 208,176 L 208,177 L 206,179 L 206,181 L 204,183 L 204,184 L 202,186 L 202,188 L 200,190 L 200,191 L 199,192 L 199,193 L 198,194 L 198,195 L 196,197 L 196,198 L 194,200 L 194,204 L 195,205 L 226,205 L 227,204 L 246,204 L 247,203 L 246,202 L 246,201 L 244,199 L 244,198 L 243,197 L 243,196 L 242,196 L 241,195 L 241,194 L 239,192 L 239,191 L 237,189 L 237,188 L 235,186 L 235,185 L 233,183 L 233,182 L 231,180 L 231,179 L 229,177 L 229,176 L 227,174 L 227,172 L 226,172 L 225,171 L 225,170 L 223,168 L 223,167 L 221,165 L 221,164 Z" fill="black" /><path d="M 60,161 L 59,162 L 59,164 L 56,167 L 56,169 L 55,170 L 54,170 L 54,171 L 53,172 L 53,173 L 50,176 L 50,177 L 49,178 L 49,179 L 46,182 L 46,183 L 44,185 L 44,187 L 43,188 L 42,188 L 42,190 L 40,192 L 40,193 L 38,195 L 38,196 L 36,198 L 36,199 L 35,200 L 35,201 L 34,202 L 34,203 L 32,205 L 32,208 L 67,208 L 68,209 L 70,209 L 71,208 L 77,208 L 78,209 L 84,209 L 85,208 L 85,206 L 83,204 L 83,203 L 81,201 L 81,199 L 79,197 L 79,196 L 77,194 L 77,193 L 75,191 L 75,190 L 73,188 L 73,186 L 72,186 L 71,185 L 71,183 L 69,181 L 69,180 L 68,179 L 68,178 L 67,177 L 67,176 L 65,174 L 65,173 L 63,171 L 63,170 L 61,168 L 61,164 L 62,163 L 62,162 L 61,161 Z" fill="black" /><path d="M 124,64 L 123,65 L 123,66 L 120,69 L 120,71 L 117,74 L 117,75 L 116,76 L 116,77 L 115,78 L 114,78 L 114,79 L 113,80 L 113,81 L 110,84 L 110,86 L 108,88 L 108,89 L 106,91 L 106,92 L 104,94 L 104,95 L 102,97 L 102,98 L 100,100 L 100,101 L 99,102 L 99,103 L 98,104 L 99,105 L 105,105 L 106,106 L 107,105 L 151,105 L 151,103 L 150,103 L 149,102 L 149,100 L 147,98 L 147,97 L 145,95 L 145,94 L 143,92 L 143,91 L 141,89 L 141,88 L 140,87 L 140,86 L 139,85 L 139,84 L 138,84 L 137,83 L 137,81 L 135,79 L 135,78 L 133,76 L 133,74 L 132,74 L 131,73 L 131,72 L 129,70 L 129,68 L 128,68 L 127,67 L 127,66 L 126,65 L 126,64 Z" fill="black" /><path d="M 43,16 L 43,17 L 42,18 L 42,19 L 39,22 L 39,23 L 38,24 L 38,25 L 36,27 L 36,28 L 34,30 L 34,31 L 33,32 L 32,32 L 32,34 L 30,36 L 30,37 L 27,40 L 27,41 L 26,42 L 26,43 L 24,45 L 24,46 L 22,48 L 22,50 L 20,52 L 20,53 L 19,54 L 19,55 L 18,56 L 18,57 L 15,60 L 16,61 L 64,61 L 65,60 L 71,60 L 72,59 L 68,55 L 68,54 L 67,53 L 67,52 L 65,50 L 65,48 L 64,48 L 63,47 L 63,45 L 61,43 L 61,42 L 59,40 L 59,38 L 58,38 L 57,37 L 57,36 L 56,35 L 56,34 L 55,33 L 55,32 L 54,32 L 53,31 L 53,30 L 52,29 L 52,28 L 51,27 L 51,26 L 49,24 L 49,23 L 47,21 L 47,20 L 46,19 L 46,17 L 45,16 Z" fill="black" /><path d="M 194,4 L 193,5 L 192,5 L 191,6 L 187,6 L 185,8 L 185,9 L 184,10 L 183,10 L 183,11 L 180,14 L 180,16 L 179,17 L 179,18 L 178,19 L 178,32 L 180,34 L 180,36 L 183,39 L 185,39 L 186,40 L 186,41 L 187,41 L 188,42 L 189,42 L 190,43 L 193,43 L 194,44 L 195,44 L 196,45 L 197,45 L 198,44 L 201,44 L 202,45 L 203,45 L 205,43 L 208,43 L 210,41 L 211,41 L 211,40 L 212,39 L 213,39 L 213,38 L 215,36 L 215,34 L 216,33 L 216,32 L 217,31 L 217,29 L 218,28 L 218,26 L 217,25 L 217,24 L 218,23 L 218,22 L 217,21 L 217,18 L 216,17 L 216,16 L 215,15 L 215,14 L 213,12 L 213,11 L 212,10 L 211,10 L 209,8 L 208,8 L 206,6 L 204,6 L 203,5 L 201,5 L 200,4 Z" fill="black" /></svg>