<?xml version='1.0' encoding='utf-8'?>
<svg width="260" height="216" xmlns="http://www.w3.org/2000/svg" viewBox="0 0 260 216"><rect width="260" height="216" fill="white" /><path d="M 123,159 L 123,161 L 120,164 L 120,166 L 118,168 L 118,169 L 116,171 L 116,172 L 114,174 L 114,175 L 112,177 L 112,179 L 111,180 L 110,180 L 110,182 L 108,184 L 108,185 L 107,186 L 106,186 L 106,188 L 104,190 L 104,192 L 103,193 L 103,195 L 104,196 L 105,195 L 147,195 L 148,194 L 147,193 L 147,192 L 145,190 L 145,189 L 143,187 L 143,186 L 142,185 L 142,184 L 141,183 L 141,182 L 139,180 L 139,179 L 137,177 L 137,176 L 135,174 L 135,173 L 133,171 L 133,169 L 131,167 L 131,166 L 130,165 L 130,164 L 126,160 L 126,159 Z" fill="black" /><path d="M 124,88 L 123,89 L 120,89 L 119,90 L 117,90 L 115,92 L 114,92 L 114,93 L 113,94 L 112,94 L 112,95 L 108,99 L 108,101 L 106,103 L 106,114 L 107,115 L 107,116 L 108,117 L 108,119 L 111,122 L 111,123 L 113,125 L 115,125 L 116,126 L 116,127 L 117,127 L 118,128 L 119,128 L 120,129 L 131,129 L 132,128 L 135,128 L 136,127 L 137,127 L 139,125 L 140,125 L 142,123 L 142,122 L 143,121 L 143,120 L 145,118 L 145,116 L 146,115 L 146,114 L 147,113 L 147,103 L 145,101 L 145,100 L 144,99 L 144,98 L 141,95 L 141,94 L 140,94 L 138,92 L 136,92 L 134,90 L 130,90 L 128,88 Z" fill="black" /><path d="M 62,47 L 61,48 L 57,48 L 55,50 L 54,50 L 52,52 L 51,52 L 48,55 L 48,57 L 47,58 L 46,58 L 46,61 L 45,62 L 45,63 L 44,64 L 44,75 L 45,76 L 45,77 L 46,78 L 46,80 L 48,82 L 48,83 L 49,83 L 50,84 L 50,85 L 51,85 L 52,86 L 52,87 L 53,87 L 54,88 L 58,88 L 59,89 L 73,89 L 74,88 L 77,88 L 80,85 L 81,85 L 81,84 L 82,83 L 83,83 L 83,82 L 84,81 L 85,81 L 85,80 L 86,79 L 86,78 L 87,77 L 87,74 L 88,73 L 88,72 L 89,71 L 88,70 L 88,69 L 89,68 L 89,66 L 88,65 L 88,64 L 87,63 L 87,61 L 85,59 L 85,57 L 83,55 L 83,54 L 82,54 L 79,51 L 78,51 L 77,50 L 76,50 L 74,48 L 70,48 L 69,47 Z" fill="black" /><path d="M 195,46 L 194,47 L 191,47 L 190,48 L 188,48 L 186,50 L 184,50 L 182,52 L 182,53 L 178,57 L 178,59 L 177,60 L 177,61 L 176,62 L 176,71 L 177,72 L 177,73 L 178,74 L 178,76 L 179,77 L 179,78 L 182,81 L 182,82 L 183,82 L 186,85 L 189,85 L 190,86 L 191,86 L 192,87 L 201,87 L 202,86 L 203,86 L 204,85 L 207,85 L 209,83 L 210,83 L 212,81 L 212,80 L 213,79 L 213,78 L 214,77 L 215,77 L 215,76 L 217,74 L 217,61 L 215,59 L 215,58 L 214,57 L 214,56 L 211,53 L 211,52 L 210,52 L 208,50 L 206,50 L 205,49 L 204,49 L 203,48 L 201,48 L 200,47 L 198,47 L 197,46 Z" fill="black" /></svg>