<?xml version='1.0' encoding='utf-8'?>
<svg width="259" height="217" xmlns="http://www.w3.org/2000/svg" viewBox="0 0 259 217"><rect width="259" height="217" fill="white" /><path d="M 208,160 L 207,161 L 201,161 L 200,162 L 199,161 L 195,161 L 193,163 L 196,166 L 196,167 L 198,169 L 198,170 L 200,172 L 200,173 L 203,176 L 203,177 L 204,178 L 204,179 L 207,182 L 207,183 L 210,186 L 210,187 L 212,189 L 212,190 L 214,192 L 214,194 L 216,196 L 216,197 L 217,197 L 218,198 L 218,199 L 221,202 L 223,200 L 223,198 L 224,197 L 225,197 L 225,195 L 228,192 L 228,191 L 230,189 L 230,188 L 231,187 L 231,185 L 233,183 L 233,182 L 235,180 L 235,177 L 237,175 L 237,174 L 238,173 L 239,173 L 239,171 L 243,167 L 243,165 L 245,163 L 245,160 Z" fill="black" /><path d="M 174,108 L 174,109 L 173,110 L 173,111 L 172,112 L 172,113 L 170,115 L 170,116 L 168,118 L 168,119 L 167,120 L 167,121 L 166,122 L 166,123 L 164,125 L 164,126 L 163,127 L 163,128 L 162,129 L 162,130 L 160,132 L 160,133 L 158,135 L 158,137 L 157,138 L 156,138 L 156,139 L 154,141 L 154,143 L 153,144 L 153,146 L 151,148 L 152,149 L 199,149 L 200,148 L 201,148 L 202,149 L 204,149 L 205,148 L 206,148 L 207,147 L 201,141 L 201,140 L 200,140 L 199,139 L 199,138 L 197,136 L 197,135 L 195,133 L 195,132 L 192,129 L 192,128 L 189,125 L 189,124 L 185,120 L 185,118 L 183,116 L 182,116 L 181,115 L 181,114 L 180,113 L 180,112 L 179,111 L 179,110 L 178,110 L 176,108 Z" fill="black" /><path d="M 96,82 L 95,83 L 94,83 L 93,84 L 90,84 L 88,86 L 88,87 L 87,88 L 86,88 L 86,89 L 85,90 L 84,90 L 84,91 L 83,92 L 83,93 L 82,94 L 82,96 L 81,97 L 81,98 L 80,99 L 80,103 L 81,104 L 81,107 L 82,108 L 82,111 L 86,115 L 86,116 L 88,118 L 89,118 L 90,119 L 91,119 L 92,120 L 93,120 L 94,121 L 98,121 L 99,122 L 102,122 L 103,121 L 109,121 L 111,119 L 113,119 L 113,118 L 114,117 L 115,117 L 117,115 L 117,114 L 119,112 L 119,111 L 121,109 L 121,107 L 122,106 L 122,102 L 121,101 L 121,94 L 120,93 L 120,92 L 119,91 L 119,90 L 118,89 L 118,88 L 117,87 L 116,87 L 115,86 L 114,86 L 113,85 L 112,85 L 111,84 L 110,84 L 109,83 L 108,83 L 107,82 Z" fill="black" /><path d="M 217,66 L 216,67 L 214,67 L 213,68 L 212,68 L 206,74 L 206,75 L 204,77 L 204,80 L 203,81 L 203,82 L 202,83 L 202,91 L 203,92 L 203,93 L 204,94 L 204,96 L 206,98 L 206,99 L 207,99 L 208,100 L 208,101 L 209,101 L 210,102 L 210,103 L 211,103 L 212,104 L 213,104 L 214,105 L 215,105 L 216,106 L 219,106 L 220,107 L 227,107 L 228,106 L 230,106 L 231,105 L 231,104 L 232,103 L 234,103 L 238,99 L 238,98 L 239,97 L 239,96 L 240,95 L 241,95 L 241,89 L 242,88 L 242,84 L 241,83 L 241,80 L 240,79 L 240,78 L 239,77 L 239,75 L 235,71 L 235,70 L 234,70 L 233,69 L 231,69 L 230,68 L 229,68 L 228,67 L 227,67 L 226,66 Z" fill="black" /><path d="M 46,36 L 44,38 L 42,38 L 41,39 L 40,39 L 39,40 L 37,40 L 34,43 L 34,44 L 32,46 L 32,47 L 31,48 L 31,49 L 30,50 L 30,53 L 29,54 L 30,55 L 30,57 L 29,58 L 29,59 L 30,60 L 30,64 L 32,66 L 32,67 L 33,67 L 34,68 L 34,69 L 36,71 L 37,71 L 38,72 L 38,73 L 40,73 L 42,75 L 43,75 L 44,76 L 45,76 L 46,77 L 50,77 L 51,76 L 52,76 L 53,75 L 58,75 L 60,73 L 61,73 L 63,71 L 64,71 L 66,69 L 66,68 L 67,67 L 67,66 L 68,65 L 68,64 L 69,63 L 69,58 L 70,57 L 70,51 L 69,50 L 69,47 L 67,45 L 67,44 L 65,42 L 64,42 L 63,41 L 63,40 L 62,40 L 60,38 L 58,38 L 57,37 L 56,37 L 55,36 Z" fill="black" /><path d="M 107,13 L 106,14 L 106,15 L 104,17 L 104,18 L 102,20 L 102,21 L 101,22 L 101,23 L 100,24 L 100,25 L 98,27 L 98,28 L 96,30 L 96,31 L 95,32 L 95,33 L 92,36 L 92,37 L 90,39 L 90,40 L 88,42 L 88,44 L 86,46 L 86,48 L 83,51 L 83,52 L 82,53 L 83,53 L 84,54 L 85,53 L 93,53 L 94,54 L 102,54 L 103,55 L 105,55 L 106,54 L 107,54 L 108,55 L 131,55 L 133,53 L 133,49 L 132,48 L 132,47 L 129,44 L 129,42 L 126,39 L 126,38 L 125,37 L 125,36 L 124,36 L 123,35 L 123,33 L 121,31 L 121,30 L 120,30 L 119,29 L 119,28 L 117,26 L 117,24 L 116,23 L 116,22 L 113,19 L 113,18 L 112,18 L 111,17 L 111,16 L 110,15 L 110,14 L 109,13 Z" fill="black" /><path d="M 0,0 L 0,216 L 258,216 L 258,0 Z" fill="none" stroke="black" stroke-width="1" /></svg>