<?xml version="1.0" encoding="utf-8" ?>
<svg baseProfile="full" height="220" version="1.1" width="261" xmlns="http://www.w3.org/2000/svg" xmlns:ev="http://www.w3.org/2001/xml-events" xmlns:xlink="http://www.w3.org/1999/xlink"><defs /><rect fill="white" height="220" width="261" x="0" y="0" /><circle cx="44.417354583740234" cy="140.17355346679688" fill="none" r="11.631392478942871" stroke="black" stroke-width="1" /><circle cx="45.0476188659668" cy="139.40475463867188" fill="none" r="17.1221923828125" stroke="black" stroke-width="1" /><path d="M 198,58 L 202,71 L 215,75 L 202,80 L 200,93 L 195,79 L 181,77 L 195,71 Z" fill="black" stroke="black" stroke-width="1" /><path d="M 234,10 L 237,24 L 251,28 L 237,33 L 235,45 L 228,30 L 217,30 L 231,24 Z" fill="black" stroke="black" stroke-width="1" /><path d="M 175,6 L 182,21 L 194,22 L 181,26 L 180,40 L 174,27 L 158,24 L 175,21 Z" fill="black" stroke="black" stroke-width="1" /><path d="M 0,0 L 0,219 L 260,219 L 260,0 Z" fill="none" stroke="black" stroke-width="1" /></svg>