<?xml version="1.0" encoding="utf-8" ?>
<svg baseProfile="full" height="220" version="1.1" width="254" xmlns="http://www.w3.org/2000/svg" xmlns:ev="http://www.w3.org/2001/xml-events" xmlns:xlink="http://www.w3.org/1999/xlink"><defs /><rect fill="white" height="220" width="254" x="0" y="0" /><path d="M 21,172 L 26,187 L 39,190 L 26,193 L 22,206 L 18,193 L 7,191 L 19,187 Z" fill="black" stroke="black" stroke-width="1" /><path d="M 180,161 L 186,175 L 199,177 L 186,182 L 184,195 L 179,182 L 164,180 L 179,174 Z" fill="black" stroke="black" stroke-width="1" /><path d="M 116,131 L 120,145 L 131,147 L 118,153 L 118,164 L 113,152 L 99,151 L 113,144 Z" fill="black" stroke="black" stroke-width="1" /><circle cx="192.2857208251953" cy="106.0" fill="none" r="11.436697959899902" stroke="black" stroke-width="1" /><circle cx="191.96153259277344" cy="106.42308044433594" fill="none" r="17.603300094604492" stroke="black" stroke-width="1" /><path d="M 0,0 L 0,219 L 253,219 L 253,0 Z" fill="none" stroke="black" stroke-width="1" /></svg>