<?xml version="1.0" encoding="utf-8" ?>
<svg baseProfile="full" height="218" version="1.1" width="260" xmlns="http://www.w3.org/2000/svg" xmlns:ev="http://www.w3.org/2001/xml-events" xmlns:xlink="http://www.w3.org/1999/xlink"><defs /><rect fill="white" height="218" width="260" x="0" y="0" /><path d="M 76,137 L 82,152 L 95,155 L 82,160 L 80,174 L 74,159 L 59,159 L 75,152 Z" fill="black" stroke="black" stroke-width="1" /><path d="M 174,117 L 181,131 L 195,133 L 181,138 L 179,152 L 173,138 L 158,137 L 173,132 Z" fill="black" stroke="black" stroke-width="1" /><circle cx="127.5" cy="124.79412078857422" fill="none" r="11.347480773925781" stroke="black" stroke-width="1" /><circle cx="127.11578369140625" cy="124.75042724609375" fill="none" r="17.681583404541016" stroke="black" stroke-width="1" /><path d="M 118,65 L 124,78 L 139,81 L 123,83 L 120,101 L 116,85 L 102,82 L 115,78 Z" fill="black" stroke="black" stroke-width="1" /><path d="M 224,7 L 228,19 L 243,23 L 230,26 L 225,41 L 221,26 L 207,25 L 220,19 Z" fill="black" stroke="black" stroke-width="1" /><path d="M 0,0 L 0,217 L 259,217 L 259,0 Z" fill="none" stroke="black" stroke-width="1" /></svg>