<?xml version='1.0' encoding='utf-8'?>
<svg width="260" height="218" xmlns="http://www.w3.org/2000/svg" viewBox="0 0 260 218"><rect width="260" height="218" fill="white" /><path d="M 76,138 L 76,141 L 75,142 L 75,149 L 76,150 L 76,152 L 75,153 L 72,153 L 71,154 L 60,154 L 60,159 L 61,160 L 62,160 L 63,159 L 71,159 L 72,158 L 74,158 L 76,160 L 76,167 L 77,168 L 77,172 L 78,173 L 80,173 L 81,172 L 81,160 L 83,158 L 94,158 L 94,155 L 93,154 L 88,154 L 87,153 L 82,153 L 81,152 L 81,146 L 80,145 L 80,139 L 79,139 L 78,138 Z" fill="black" /><path d="M 174,118 L 174,122 L 173,123 L 174,124 L 174,132 L 173,133 L 170,133 L 169,134 L 168,134 L 167,133 L 164,133 L 163,134 L 160,134 L 159,135 L 159,137 L 160,137 L 161,138 L 167,138 L 168,137 L 173,137 L 174,138 L 174,139 L 175,140 L 175,149 L 177,151 L 179,151 L 180,150 L 180,138 L 181,137 L 193,137 L 194,136 L 194,133 L 193,133 L 192,132 L 181,132 L 179,130 L 179,118 Z" fill="black" /><path d="M 124,109 L 123,110 L 120,110 L 120,111 L 119,112 L 116,112 L 116,113 L 115,114 L 115,115 L 114,116 L 114,117 L 113,118 L 112,118 L 112,131 L 114,133 L 114,134 L 119,139 L 123,139 L 125,141 L 131,141 L 132,140 L 133,140 L 134,139 L 136,139 L 139,136 L 139,135 L 141,133 L 141,132 L 143,130 L 143,121 L 142,120 L 142,119 L 141,118 L 141,116 L 135,110 L 131,110 L 130,109 Z" fill="black" /><path d="M 118,66 L 116,68 L 116,73 L 117,74 L 117,76 L 116,77 L 116,78 L 115,79 L 105,79 L 103,81 L 103,82 L 105,84 L 109,84 L 110,85 L 111,84 L 112,84 L 113,83 L 115,83 L 117,85 L 117,86 L 118,87 L 118,88 L 117,89 L 117,97 L 118,98 L 118,99 L 119,99 L 120,100 L 121,99 L 122,99 L 122,93 L 123,92 L 122,91 L 122,83 L 123,82 L 125,82 L 126,83 L 136,83 L 138,81 L 137,80 L 137,79 L 133,79 L 132,78 L 129,78 L 128,79 L 124,79 L 121,76 L 121,74 L 122,73 L 122,67 L 121,66 Z" fill="black" /><path d="M 224,8 L 222,10 L 222,11 L 221,12 L 221,19 L 220,20 L 213,20 L 212,21 L 210,21 L 209,22 L 208,22 L 208,25 L 212,25 L 213,26 L 214,25 L 221,25 L 222,26 L 222,37 L 223,38 L 223,39 L 224,39 L 225,40 L 226,39 L 227,39 L 227,28 L 230,25 L 240,25 L 242,23 L 241,22 L 241,21 L 240,20 L 237,20 L 236,21 L 234,21 L 233,20 L 228,20 L 227,19 L 227,18 L 226,17 L 226,16 L 227,15 L 227,9 L 226,8 Z" fill="black" /></svg>