<?xml version="1.0" encoding="utf-8" ?>
<svg baseProfile="full" height="216" version="1.1" width="261" xmlns="http://www.w3.org/2000/svg" xmlns:ev="http://www.w3.org/2001/xml-events" xmlns:xlink="http://www.w3.org/1999/xlink"><defs /><rect fill="white" height="216" width="261" x="0" y="0" /><path d="M 41,142 L 43,155 L 58,161 L 44,162 L 38,177 L 37,162 L 22,159 L 36,156 Z" fill="black" stroke="black" stroke-width="1" /><path d="M 169,137 L 174,154 L 188,157 L 174,162 L 171,176 L 167,161 L 152,160 L 167,155 Z" fill="black" stroke="black" stroke-width="1" /><circle cx="128.73562622070312" cy="114.55172729492188" fill="none" r="11.620816230773926" stroke="black" stroke-width="1" /><circle cx="129.0" cy="114.5" fill="none" r="17.755380630493164" stroke="black" stroke-width="1" /><path d="M 68,41 L 73,56 L 84,59 L 73,64 L 70,79 L 67,64 L 53,62 L 66,57 Z" fill="black" stroke="black" stroke-width="1" /><path d="M 193,36 L 196,50 L 207,56 L 195,58 L 191,73 L 189,58 L 176,53 L 188,51 Z" fill="black" stroke="black" stroke-width="1" /><path d="M 0,0 L 0,215 L 260,215 L 260,0 Z" fill="none" stroke="black" stroke-width="1" /></svg>