<?xml version='1.0' encoding='utf-8'?>
<svg width="255" height="217" xmlns="http://www.w3.org/2000/svg" viewBox="0 0 255 217"><rect width="255" height="217" fill="white" /><path d="M 15,158 L 14,159 L 14,173 L 13,174 L 3,174 L 2,175 L 0,175 L 0,179 L 4,179 L 5,178 L 6,178 L 7,179 L 11,179 L 12,178 L 14,180 L 14,181 L 13,182 L 13,183 L 14,184 L 14,192 L 15,193 L 17,193 L 17,192 L 19,190 L 19,179 L 20,178 L 23,178 L 24,179 L 25,179 L 26,178 L 32,178 L 32,177 L 33,176 L 32,175 L 32,174 L 21,174 L 19,172 L 19,159 L 18,158 Z" fill="black" /><path d="M 178,150 L 177,151 L 176,151 L 173,154 L 172,154 L 172,155 L 171,156 L 170,156 L 168,158 L 168,163 L 167,164 L 167,165 L 168,166 L 168,170 L 169,171 L 169,173 L 170,174 L 170,175 L 172,177 L 173,177 L 175,179 L 177,179 L 179,181 L 187,181 L 189,179 L 191,179 L 191,178 L 192,177 L 193,177 L 195,175 L 195,174 L 197,172 L 197,171 L 199,169 L 199,162 L 198,161 L 198,160 L 197,159 L 197,158 L 195,156 L 195,155 L 192,152 L 191,152 L 190,151 L 188,151 L 187,150 Z" fill="black" /><path d="M 35,21 L 34,22 L 34,29 L 33,30 L 32,30 L 32,33 L 31,34 L 28,34 L 27,35 L 25,35 L 24,36 L 21,36 L 21,37 L 20,38 L 21,39 L 22,39 L 23,40 L 25,40 L 26,39 L 29,39 L 30,38 L 31,38 L 32,37 L 33,37 L 35,39 L 35,40 L 33,42 L 32,42 L 32,43 L 34,45 L 34,54 L 38,54 L 39,53 L 39,42 L 42,39 L 51,39 L 51,34 L 45,34 L 44,35 L 43,34 L 40,34 L 39,33 L 39,24 L 37,22 L 36,22 Z" fill="black" /><path d="M 190,4 L 189,5 L 188,5 L 187,6 L 187,9 L 188,10 L 188,13 L 187,14 L 187,19 L 185,21 L 184,21 L 183,20 L 182,20 L 181,21 L 176,21 L 176,25 L 177,26 L 181,26 L 182,25 L 185,25 L 188,28 L 188,37 L 189,38 L 191,38 L 192,37 L 193,37 L 193,26 L 194,25 L 207,25 L 207,20 L 194,20 L 193,19 L 193,16 L 192,15 L 192,7 L 191,6 L 191,5 Z" fill="black" /></svg>