<?xml version='1.0' encoding='utf-8'?>
<svg width="258" height="216" xmlns="http://www.w3.org/2000/svg" viewBox="0 0 258 216"><rect width="258" height="216" fill="white" /><path d="M 46,180 L 45,181 L 45,187 L 46,188 L 46,189 L 45,190 L 45,192 L 43,194 L 32,194 L 31,195 L 31,197 L 32,198 L 37,198 L 38,197 L 42,197 L 45,200 L 45,203 L 44,204 L 44,205 L 45,206 L 45,210 L 47,212 L 48,212 L 48,208 L 49,207 L 49,199 L 50,198 L 64,198 L 64,196 L 62,194 L 50,194 L 49,193 L 49,181 L 48,180 Z" fill="black" /><path d="M 182,172 L 182,173 L 181,174 L 181,178 L 180,179 L 180,187 L 177,190 L 167,190 L 166,191 L 165,191 L 165,194 L 171,194 L 172,193 L 179,193 L 180,194 L 180,198 L 181,199 L 181,202 L 180,203 L 181,204 L 181,206 L 179,208 L 181,210 L 182,209 L 184,209 L 185,208 L 185,204 L 184,203 L 184,202 L 185,201 L 185,199 L 184,198 L 184,195 L 186,193 L 201,193 L 202,192 L 202,190 L 201,190 L 200,189 L 189,189 L 188,190 L 187,190 L 185,188 L 185,178 L 184,177 L 184,173 L 183,172 Z" fill="black" /><path d="M 120,135 L 119,136 L 114,136 L 112,138 L 110,138 L 108,140 L 108,141 L 107,142 L 107,143 L 106,144 L 106,145 L 105,146 L 105,151 L 106,152 L 106,156 L 108,158 L 108,159 L 110,161 L 111,161 L 112,162 L 112,163 L 113,164 L 119,164 L 120,165 L 124,165 L 125,164 L 127,164 L 128,163 L 129,163 L 130,162 L 131,162 L 132,161 L 132,160 L 135,157 L 135,154 L 136,153 L 136,149 L 137,148 L 136,147 L 136,145 L 135,144 L 135,143 L 133,141 L 133,140 L 131,138 L 130,138 L 128,136 L 124,136 L 123,135 Z" fill="black" /><path d="M 116,67 L 115,68 L 115,73 L 114,74 L 114,78 L 113,79 L 108,79 L 107,80 L 105,80 L 104,79 L 101,79 L 99,81 L 99,82 L 100,83 L 101,83 L 102,84 L 103,84 L 104,83 L 113,83 L 114,84 L 114,87 L 115,88 L 115,89 L 114,90 L 114,91 L 115,92 L 115,95 L 116,96 L 115,97 L 115,98 L 116,99 L 117,99 L 118,98 L 118,96 L 119,95 L 119,93 L 118,92 L 118,88 L 119,87 L 119,83 L 121,81 L 125,81 L 126,82 L 131,82 L 132,81 L 132,80 L 131,79 L 120,79 L 118,77 L 118,68 L 117,67 Z" fill="black" /><path d="M 0,0 L 0,215 L 257,215 L 257,0 Z" fill="none" stroke="black" stroke-width="1" /></svg>