<?xml version='1.0' encoding='utf-8'?>
<svg width="255" height="216" xmlns="http://www.w3.org/2000/svg" viewBox="0 0 255 216"><rect width="255" height="216" fill="white" /><path d="M 31,174 L 31,183 L 28,186 L 19,186 L 18,187 L 17,187 L 16,188 L 15,188 L 15,190 L 16,191 L 26,191 L 27,190 L 29,190 L 31,192 L 31,193 L 30,194 L 30,195 L 31,196 L 31,203 L 32,204 L 34,204 L 34,203 L 35,202 L 35,198 L 36,197 L 36,192 L 38,190 L 41,190 L 42,191 L 44,191 L 45,190 L 48,190 L 49,191 L 51,191 L 52,190 L 53,190 L 53,187 L 52,186 L 37,186 L 36,185 L 36,180 L 37,179 L 37,176 L 36,175 L 36,174 Z" fill="black" /><path d="M 214,173 L 213,174 L 213,186 L 212,187 L 200,187 L 199,188 L 198,188 L 198,191 L 212,191 L 213,192 L 213,204 L 215,206 L 216,206 L 216,204 L 217,203 L 217,195 L 216,194 L 216,193 L 218,191 L 232,191 L 233,190 L 233,188 L 232,187 L 219,187 L 217,185 L 217,179 L 218,178 L 218,176 L 217,175 L 217,174 L 216,173 Z" fill="black" /><path d="M 170,87 L 169,88 L 169,99 L 167,101 L 156,101 L 155,102 L 155,105 L 168,105 L 169,106 L 169,118 L 173,118 L 174,117 L 174,106 L 175,105 L 178,105 L 179,106 L 187,106 L 189,104 L 189,103 L 188,102 L 187,102 L 186,101 L 184,101 L 183,102 L 176,102 L 173,99 L 173,97 L 174,96 L 174,95 L 173,94 L 173,88 L 172,88 L 171,87 Z" fill="black" /><path d="M 75,82 L 74,83 L 74,84 L 75,85 L 75,91 L 74,92 L 74,95 L 72,97 L 67,97 L 66,96 L 63,96 L 61,98 L 61,99 L 60,100 L 61,101 L 74,101 L 75,102 L 75,107 L 76,108 L 76,110 L 75,111 L 75,112 L 76,113 L 76,114 L 79,114 L 80,113 L 80,109 L 81,108 L 81,106 L 80,105 L 80,102 L 81,101 L 92,101 L 93,100 L 93,98 L 92,97 L 92,96 L 81,96 L 80,95 L 80,84 L 79,83 L 79,82 Z" fill="black" /><path d="M 124,16 L 122,18 L 119,18 L 119,19 L 118,20 L 116,20 L 116,21 L 115,22 L 115,23 L 114,24 L 113,24 L 113,37 L 114,38 L 114,39 L 117,42 L 119,42 L 122,45 L 125,45 L 126,46 L 132,46 L 133,45 L 136,45 L 137,44 L 138,44 L 141,41 L 141,40 L 144,37 L 144,31 L 145,30 L 144,29 L 144,26 L 143,25 L 143,24 L 142,23 L 142,22 L 138,18 L 137,18 L 135,16 Z" fill="black" /><path d="M 0,0 L 0,215 L 254,215 L 254,0 Z" fill="none" stroke="black" stroke-width="1" /></svg>