<?xml version='1.0' encoding='utf-8'?>
<svg width="260" height="220" xmlns="http://www.w3.org/2000/svg" viewBox="0 0 260 220"><rect width="260" height="220" fill="white" /><path d="M 106,158 L 105,159 L 105,164 L 106,165 L 106,170 L 103,173 L 94,173 L 93,174 L 90,174 L 90,175 L 89,176 L 90,177 L 91,177 L 92,178 L 98,178 L 99,177 L 104,177 L 106,179 L 106,185 L 107,186 L 106,187 L 106,191 L 107,192 L 110,192 L 110,191 L 111,190 L 111,178 L 112,177 L 125,177 L 125,174 L 122,174 L 121,173 L 114,173 L 113,172 L 112,172 L 111,171 L 111,161 L 109,159 L 109,158 Z" fill="black" /><path d="M 190,154 L 190,157 L 191,158 L 191,162 L 192,163 L 192,168 L 190,170 L 178,170 L 177,171 L 177,174 L 180,174 L 181,173 L 183,173 L 184,174 L 190,174 L 191,175 L 191,186 L 193,188 L 194,188 L 195,187 L 195,177 L 198,174 L 207,174 L 208,173 L 209,173 L 209,171 L 208,170 L 199,170 L 198,169 L 197,169 L 196,168 L 196,157 L 195,156 L 195,154 Z" fill="black" /><path d="M 70,85 L 69,86 L 68,86 L 68,99 L 66,101 L 57,101 L 56,102 L 55,102 L 55,104 L 56,105 L 66,105 L 68,107 L 68,117 L 69,117 L 70,118 L 71,117 L 72,117 L 72,116 L 73,115 L 73,106 L 74,105 L 85,105 L 86,104 L 87,104 L 87,101 L 86,100 L 79,100 L 78,101 L 75,101 L 73,99 L 73,88 L 72,87 L 72,86 L 71,86 Z" fill="black" /><circle cx="211" cy="99" r="16" fill="black" /><path d="M 127,27 L 126,28 L 125,28 L 125,32 L 124,33 L 124,44 L 123,45 L 111,45 L 109,47 L 109,48 L 110,49 L 123,49 L 124,50 L 124,60 L 125,61 L 128,61 L 129,60 L 129,50 L 130,49 L 139,49 L 140,48 L 140,44 L 130,44 L 129,43 L 129,28 L 128,28 Z" fill="black" /><path d="M 32,10 L 31,11 L 30,11 L 27,14 L 26,14 L 22,18 L 22,19 L 21,20 L 21,23 L 20,24 L 20,31 L 21,32 L 21,33 L 22,34 L 22,37 L 26,41 L 27,41 L 28,42 L 28,43 L 31,43 L 32,44 L 37,44 L 38,43 L 41,43 L 43,41 L 44,41 L 45,40 L 45,39 L 49,35 L 49,34 L 50,33 L 50,32 L 51,31 L 51,22 L 50,21 L 50,20 L 49,19 L 49,18 L 48,18 L 47,17 L 47,15 L 46,14 L 44,14 L 43,13 L 43,12 L 39,12 L 37,10 Z" fill="black" /></svg>