<?xml version='1.0' encoding='utf-8'?>
<svg width="261" height="216" xmlns="http://www.w3.org/2000/svg" viewBox="0 0 261 216"><rect width="261" height="216" fill="white" /><path d="M 40,143 L 38,145 L 38,151 L 37,152 L 37,156 L 36,157 L 28,157 L 27,158 L 24,158 L 23,159 L 24,160 L 24,161 L 37,161 L 38,162 L 38,176 L 41,176 L 41,175 L 42,174 L 42,163 L 44,161 L 57,161 L 57,157 L 56,156 L 52,156 L 51,157 L 45,157 L 44,156 L 43,156 L 42,155 L 42,146 L 41,145 L 41,143 Z" fill="black" /><path d="M 169,138 L 169,141 L 168,142 L 168,155 L 167,156 L 154,156 L 153,157 L 153,160 L 154,161 L 156,161 L 158,159 L 164,159 L 165,160 L 167,160 L 168,161 L 168,170 L 169,171 L 169,173 L 171,175 L 172,174 L 173,174 L 173,162 L 175,160 L 185,160 L 186,159 L 187,159 L 187,157 L 185,155 L 174,155 L 173,154 L 173,140 L 171,138 Z" fill="black" /><path d="M 126,98 L 125,99 L 124,99 L 123,100 L 122,100 L 121,101 L 120,101 L 120,102 L 119,103 L 118,103 L 116,105 L 116,106 L 114,108 L 114,109 L 113,110 L 113,117 L 114,118 L 114,121 L 115,122 L 115,123 L 118,126 L 119,126 L 120,127 L 121,127 L 122,128 L 122,129 L 123,129 L 124,130 L 128,130 L 129,131 L 132,131 L 133,130 L 134,130 L 135,129 L 136,129 L 138,127 L 139,127 L 141,125 L 141,124 L 143,122 L 143,121 L 144,120 L 144,119 L 145,118 L 145,111 L 144,110 L 144,109 L 143,108 L 143,106 L 141,104 L 141,103 L 140,103 L 139,102 L 138,102 L 137,101 L 137,100 L 134,100 L 133,99 L 131,99 L 130,98 Z" fill="black" /><path d="M 68,42 L 66,44 L 66,47 L 67,48 L 67,50 L 68,51 L 68,53 L 67,54 L 67,57 L 66,58 L 58,58 L 57,59 L 54,59 L 54,62 L 55,62 L 56,63 L 67,63 L 68,64 L 68,68 L 67,69 L 67,71 L 68,72 L 68,73 L 67,74 L 67,75 L 68,76 L 68,77 L 69,77 L 70,78 L 71,77 L 72,77 L 72,75 L 73,74 L 73,72 L 72,71 L 72,64 L 73,63 L 83,63 L 83,59 L 82,58 L 77,58 L 76,57 L 73,57 L 72,56 L 72,53 L 71,52 L 71,42 Z" fill="black" /><path d="M 193,37 L 192,38 L 191,38 L 190,39 L 190,50 L 188,52 L 179,52 L 178,53 L 177,53 L 177,56 L 178,57 L 189,57 L 190,58 L 190,71 L 191,72 L 192,72 L 194,70 L 194,69 L 195,68 L 195,62 L 194,61 L 194,58 L 195,57 L 205,57 L 206,56 L 206,53 L 205,52 L 197,52 L 195,50 L 195,42 L 194,41 L 194,38 Z" fill="black" /></svg>