<?xml version='1.0' encoding='utf-8'?>
<svg width="254" height="220" xmlns="http://www.w3.org/2000/svg" viewBox="0 0 254 220"><rect width="254" height="220" fill="white" /><path d="M 21,173 L 20,174 L 20,187 L 19,188 L 10,188 L 8,190 L 8,191 L 10,193 L 12,193 L 13,192 L 15,192 L 16,191 L 17,191 L 19,193 L 19,195 L 20,196 L 20,204 L 21,204 L 22,205 L 24,203 L 24,195 L 25,194 L 25,193 L 26,192 L 30,192 L 31,191 L 32,191 L 33,192 L 36,192 L 38,190 L 37,189 L 37,188 L 26,188 L 25,187 L 25,176 L 22,173 Z" fill="black" /><path d="M 180,162 L 179,163 L 179,166 L 180,167 L 180,169 L 179,170 L 179,171 L 180,172 L 180,174 L 178,176 L 174,176 L 173,177 L 172,176 L 170,176 L 169,177 L 165,177 L 165,180 L 166,181 L 174,181 L 175,180 L 176,181 L 179,181 L 180,182 L 180,192 L 181,193 L 181,194 L 184,194 L 184,193 L 185,192 L 185,182 L 186,181 L 196,181 L 197,180 L 198,180 L 198,177 L 197,176 L 186,176 L 185,175 L 185,168 L 184,167 L 184,166 L 185,165 L 185,163 L 184,162 Z" fill="black" /><path d="M 116,132 L 113,135 L 113,137 L 114,138 L 114,144 L 112,146 L 109,146 L 108,147 L 107,146 L 106,146 L 105,147 L 102,147 L 100,149 L 100,151 L 113,151 L 114,152 L 114,163 L 118,163 L 119,162 L 119,159 L 118,158 L 118,156 L 117,155 L 117,153 L 119,151 L 128,151 L 129,150 L 130,150 L 130,147 L 129,146 L 120,146 L 119,145 L 119,133 L 118,132 Z" fill="black" /><path d="M 190,90 L 189,91 L 187,91 L 186,92 L 184,92 L 182,94 L 182,95 L 181,96 L 180,96 L 177,99 L 177,101 L 176,102 L 176,109 L 177,109 L 178,110 L 178,114 L 182,118 L 182,119 L 183,119 L 185,121 L 188,121 L 189,122 L 190,122 L 191,123 L 192,123 L 193,122 L 195,122 L 196,121 L 199,121 L 202,118 L 203,118 L 203,117 L 207,113 L 207,110 L 208,109 L 208,102 L 207,101 L 207,100 L 205,98 L 205,97 L 203,95 L 203,94 L 202,94 L 200,92 L 198,92 L 197,91 L 194,91 L 193,90 Z" fill="black" /><path d="M 233,27 L 233,28 L 232,29 L 232,31 L 233,32 L 233,33 L 232,34 L 232,39 L 230,41 L 225,41 L 224,40 L 222,40 L 221,41 L 221,44 L 222,45 L 231,45 L 233,47 L 233,50 L 234,51 L 233,52 L 233,53 L 232,54 L 232,57 L 237,57 L 237,56 L 238,55 L 238,52 L 237,51 L 237,46 L 238,45 L 249,45 L 250,44 L 253,44 L 253,41 L 252,40 L 247,40 L 246,41 L 240,41 L 239,40 L 238,40 L 237,39 L 237,28 L 236,27 Z" fill="black" /></svg>