<?xml version='1.0' encoding='utf-8'?>
<svg width="260" height="220" xmlns="http://www.w3.org/2000/svg" viewBox="0 0 260 220"><rect width="260" height="220" fill="white" /><path d="M 78,174 L 77,175 L 77,187 L 75,189 L 72,189 L 71,190 L 69,190 L 68,189 L 67,190 L 64,190 L 63,191 L 63,192 L 64,193 L 76,193 L 77,194 L 77,201 L 79,203 L 78,204 L 78,207 L 79,208 L 80,208 L 81,207 L 82,207 L 82,206 L 83,205 L 83,201 L 82,200 L 82,194 L 83,193 L 96,193 L 97,192 L 97,191 L 95,189 L 83,189 L 82,188 L 82,176 L 81,175 L 79,175 Z" fill="black" /><path d="M 25,135 L 24,136 L 24,141 L 23,142 L 23,144 L 24,145 L 24,147 L 23,148 L 11,148 L 10,149 L 10,151 L 11,151 L 12,152 L 13,151 L 23,151 L 24,152 L 24,157 L 25,158 L 25,164 L 26,165 L 27,165 L 29,163 L 29,152 L 30,151 L 34,151 L 35,150 L 38,150 L 39,151 L 44,151 L 44,150 L 45,149 L 44,148 L 44,147 L 29,147 L 28,146 L 28,141 L 29,140 L 29,136 L 28,135 Z" fill="black" /><path d="M 132,120 L 132,121 L 130,123 L 130,129 L 131,130 L 131,135 L 129,137 L 127,137 L 126,136 L 117,136 L 116,137 L 116,140 L 119,140 L 120,141 L 122,141 L 123,140 L 125,140 L 126,141 L 130,141 L 131,142 L 131,153 L 132,154 L 134,154 L 135,153 L 135,141 L 136,140 L 146,140 L 147,139 L 149,139 L 150,138 L 150,136 L 149,136 L 148,135 L 144,135 L 143,136 L 137,136 L 134,133 L 134,130 L 135,129 L 135,121 L 134,120 Z" fill="black" /><path d="M 75,81 L 74,82 L 72,82 L 71,83 L 71,90 L 70,91 L 70,93 L 67,96 L 58,96 L 57,95 L 56,96 L 55,96 L 56,97 L 56,98 L 57,99 L 70,99 L 71,100 L 71,112 L 72,113 L 75,113 L 76,112 L 76,101 L 78,99 L 89,99 L 90,98 L 90,95 L 87,95 L 86,94 L 77,94 L 76,93 L 76,82 Z" fill="black" /><path d="M 220,45 L 218,47 L 217,46 L 207,46 L 205,48 L 204,48 L 202,50 L 201,50 L 201,51 L 197,55 L 197,59 L 196,60 L 196,61 L 197,62 L 197,67 L 198,68 L 198,69 L 199,70 L 199,71 L 200,71 L 201,72 L 201,74 L 202,74 L 203,75 L 204,75 L 205,76 L 205,77 L 207,77 L 208,78 L 211,78 L 212,77 L 214,77 L 215,78 L 216,78 L 217,77 L 219,77 L 221,75 L 222,75 L 226,71 L 226,70 L 228,68 L 228,64 L 229,63 L 229,62 L 228,61 L 228,55 L 226,53 L 226,52 L 222,48 L 222,45 Z" fill="black" /><path d="M 0,0 L 0,219 L 259,219 L 259,0 Z" fill="none" stroke="black" stroke-width="1" /></svg>