<?xml version='1.0' encoding='utf-8'?>
<svg width="258" height="220" xmlns="http://www.w3.org/2000/svg" viewBox="0 0 258 220"><rect width="258" height="220" fill="white" /><path d="M 58,160 L 58,174 L 57,175 L 46,175 L 45,176 L 45,178 L 46,179 L 51,179 L 52,178 L 57,178 L 59,180 L 59,182 L 58,183 L 58,190 L 59,191 L 59,194 L 60,195 L 61,194 L 62,194 L 62,193 L 63,192 L 63,179 L 64,178 L 81,178 L 81,176 L 80,175 L 80,174 L 76,174 L 75,175 L 68,175 L 67,174 L 66,174 L 65,175 L 64,175 L 63,174 L 63,165 L 62,164 L 62,163 L 61,162 L 61,160 Z" fill="black" /><path d="M 119,158 L 118,159 L 117,159 L 117,160 L 116,161 L 116,164 L 117,165 L 116,166 L 116,174 L 115,175 L 111,175 L 110,174 L 101,174 L 100,173 L 98,173 L 98,174 L 97,175 L 98,176 L 98,177 L 99,177 L 100,178 L 115,178 L 117,180 L 117,190 L 118,191 L 120,191 L 121,190 L 121,179 L 122,178 L 136,178 L 136,177 L 137,176 L 136,175 L 135,175 L 134,174 L 123,174 L 121,172 L 121,159 L 120,159 Z" fill="black" /><path d="M 85,129 L 83,131 L 82,131 L 80,133 L 79,133 L 77,135 L 77,136 L 76,137 L 76,138 L 75,139 L 75,140 L 74,141 L 74,152 L 80,158 L 82,158 L 84,160 L 88,160 L 89,161 L 90,161 L 91,160 L 97,160 L 103,154 L 103,153 L 105,151 L 105,150 L 106,149 L 106,147 L 105,146 L 105,141 L 104,140 L 104,139 L 103,138 L 103,137 L 101,135 L 101,133 L 100,133 L 98,131 L 97,131 L 96,130 L 95,130 L 94,129 Z" fill="black" /><path d="M 119,94 L 118,95 L 117,95 L 117,96 L 116,97 L 116,104 L 117,105 L 117,107 L 115,109 L 101,109 L 100,110 L 100,112 L 101,113 L 104,113 L 105,114 L 107,114 L 108,113 L 115,113 L 116,114 L 116,120 L 117,121 L 117,122 L 118,123 L 118,124 L 117,125 L 117,127 L 119,129 L 120,129 L 121,128 L 121,115 L 123,113 L 125,113 L 126,114 L 134,114 L 135,113 L 136,113 L 136,112 L 137,111 L 136,110 L 136,109 L 122,109 L 121,108 L 121,95 L 120,95 Z" fill="black" /><path d="M 59,93 L 58,94 L 58,96 L 57,97 L 57,102 L 58,103 L 58,108 L 57,109 L 44,109 L 44,110 L 43,111 L 45,113 L 47,113 L 48,114 L 53,114 L 55,112 L 57,112 L 58,113 L 58,127 L 59,128 L 59,129 L 60,130 L 62,130 L 63,129 L 63,127 L 62,126 L 62,125 L 63,124 L 63,121 L 62,120 L 62,119 L 63,118 L 62,117 L 62,115 L 63,114 L 68,114 L 69,113 L 70,114 L 76,114 L 77,113 L 78,113 L 78,112 L 79,111 L 78,110 L 75,110 L 74,109 L 64,109 L 63,108 L 63,104 L 62,103 L 63,102 L 63,99 L 62,98 L 62,97 L 61,96 L 61,93 Z" fill="black" /></svg>