<?xml version="1.0" encoding="utf-8" ?>
<svg baseProfile="full" height="220" version="1.1" width="255" xmlns="http://www.w3.org/2000/svg" xmlns:ev="http://www.w3.org/2001/xml-events" xmlns:xlink="http://www.w3.org/1999/xlink"><defs /><rect fill="white" height="220" width="255" x="0" y="0" /><circle cx="138.0" cy="120.0" fill="none" r="11.180439949035645" stroke="black" stroke-width="1" /><path d="M 216,104 L 219,117 L 234,122 L 220,124 L 215,140 L 212,126 L 197,121 L 212,118 Z" fill="black" stroke="black" stroke-width="1" /><circle cx="137.35751342773438" cy="119.59894561767578" fill="black" r="17.90687370300293" stroke="black" stroke-width="1" /><path d="M 77,41 L 81,55 L 96,56 L 81,62 L 79,75 L 72,62 L 61,60 Z" fill="black" stroke="black" stroke-width="1" /><path d="M 217,8 L 219,22 L 232,25 L 219,30 L 216,43 L 213,29 L 200,25 L 212,23 Z" fill="black" stroke="black" stroke-width="1" /><path d="M 0,0 L 0,219 L 254,219 L 254,0 Z" fill="none" stroke="black" stroke-width="1" /></svg>