<?xml version="1.0" encoding="utf-8" ?>
<svg baseProfile="full" height="218" version="1.1" width="262" xmlns="http://www.w3.org/2000/svg" xmlns:ev="http://www.w3.org/2001/xml-events" xmlns:xlink="http://www.w3.org/1999/xlink"><defs /><rect fill="white" height="218" width="262" x="0" y="0" /><circle cx="27.299999237060547" cy="192.3000030517578" fill="none" r="11.321760177612305" stroke="black" stroke-width="1" /><circle cx="27.404762268066406" cy="191.60203552246094" fill="none" r="17.76565170288086" stroke="black" stroke-width="1" /><path d="M 101,171 L 107,187 L 122,189 L 106,193 L 104,208 L 100,193 L 85,191 L 99,186 Z" fill="black" stroke="black" stroke-width="1" /><path d="M 197,165 L 201,180 L 215,182 L 201,187 L 199,202 L 194,187 L 180,184 L 193,180 Z" fill="black" stroke="black" stroke-width="1" /><path d="M 57,83 L 64,97 L 79,100 L 63,104 L 61,119 L 56,104 L 43,100 L 55,96 Z" fill="black" stroke="black" stroke-width="1" /><path d="M 212,78 L 217,94 L 231,95 L 217,100 L 214,115 L 209,101 L 195,98 L 209,94 Z" fill="black" stroke="black" stroke-width="1" /><path d="M 126,33 L 130,48 L 142,50 L 130,55 L 128,68 L 121,55 L 106,54 L 123,50 Z" fill="black" stroke="black" stroke-width="1" /><path d="M 0,0 L 0,217 L 261,217 L 261,0 Z" fill="none" stroke="black" stroke-width="1" /></svg>