<?xml version="1.0" encoding="utf-8" ?>
<svg baseProfile="full" height="222" version="1.1" width="254" xmlns="http://www.w3.org/2000/svg" xmlns:ev="http://www.w3.org/2001/xml-events" xmlns:xlink="http://www.w3.org/1999/xlink"><defs /><rect fill="white" height="222" width="254" x="0" y="0" /><path d="M 100,140 L 104,154 L 118,155 L 103,161 L 102,176 L 96,162 L 81,157 L 96,154 Z" fill="black" stroke="black" stroke-width="1" /><path d="M 181,86 L 186,101 L 200,103 L 186,107 L 184,123 L 179,107 L 165,106 L 179,99 Z" fill="black" stroke="black" stroke-width="1" /><path d="M 56,74 L 59,90 L 75,92 L 59,98 L 56,111 L 51,98 L 36,96 L 51,89 Z" fill="black" stroke="black" stroke-width="1" /><circle cx="127.16666412353516" cy="61.16666793823242" fill="none" r="11.433484077453613" stroke="black" stroke-width="1" /><circle cx="126.96063232421875" cy="61.43307113647461" fill="black" r="17.606698989868164" stroke="black" stroke-width="1" /><path d="M 0,0 L 0,221 L 253,221 L 253,0 Z" fill="none" stroke="black" stroke-width="1" /></svg>