<?xml version='1.0' encoding='utf-8'?>
<svg width="261" height="223" xmlns="http://www.w3.org/2000/svg" viewBox="0 0 261 223"><rect width="261" height="223" fill="white" /><path d="M 89,140 L 89,141 L 87,143 L 87,148 L 88,149 L 88,151 L 87,152 L 83,152 L 82,153 L 80,153 L 79,152 L 76,152 L 76,153 L 75,154 L 75,155 L 76,156 L 86,156 L 88,158 L 88,164 L 89,165 L 89,168 L 90,169 L 91,169 L 92,168 L 92,157 L 93,156 L 105,156 L 106,155 L 106,152 L 103,152 L 102,151 L 93,151 L 91,149 L 92,148 L 92,147 L 93,146 L 93,141 L 92,140 Z" fill="black" /><path d="M 195,134 L 194,135 L 193,135 L 193,138 L 192,139 L 192,145 L 193,146 L 193,148 L 191,150 L 190,150 L 189,151 L 188,150 L 187,150 L 186,151 L 185,151 L 184,150 L 181,150 L 180,151 L 178,151 L 178,152 L 177,153 L 177,154 L 188,154 L 189,155 L 191,155 L 193,157 L 193,161 L 192,162 L 192,165 L 193,166 L 193,168 L 198,168 L 198,157 L 201,154 L 211,154 L 212,153 L 212,152 L 213,151 L 212,150 L 205,150 L 204,151 L 200,151 L 199,150 L 198,150 L 197,149 L 197,144 L 196,143 L 196,139 L 197,138 L 197,135 L 196,135 Z" fill="black" /><path d="M 118,96 L 118,99 L 117,100 L 117,108 L 116,109 L 108,109 L 107,110 L 106,110 L 106,111 L 105,112 L 107,114 L 112,114 L 113,113 L 115,113 L 118,116 L 118,122 L 119,123 L 119,127 L 121,127 L 122,126 L 122,116 L 125,113 L 135,113 L 137,111 L 137,110 L 136,109 L 123,109 L 122,108 L 122,101 L 123,100 L 123,97 L 122,96 Z" fill="black" /><path d="M 200,78 L 199,79 L 195,79 L 194,80 L 193,80 L 192,81 L 191,81 L 187,85 L 187,86 L 185,88 L 185,99 L 186,100 L 186,101 L 190,105 L 190,106 L 191,106 L 193,108 L 195,108 L 196,109 L 197,109 L 198,110 L 205,110 L 207,108 L 210,108 L 216,102 L 216,100 L 217,99 L 217,95 L 218,94 L 218,91 L 217,90 L 217,89 L 216,88 L 216,86 L 214,84 L 214,83 L 212,81 L 211,81 L 209,79 L 207,79 L 206,78 Z" fill="black" /><path d="M 45,59 L 45,68 L 46,69 L 45,70 L 45,72 L 42,75 L 37,75 L 36,74 L 32,74 L 30,76 L 31,77 L 31,78 L 42,78 L 45,81 L 45,90 L 47,90 L 48,91 L 50,89 L 50,87 L 49,86 L 49,82 L 48,81 L 48,79 L 49,78 L 62,78 L 64,76 L 64,74 L 61,74 L 60,73 L 51,73 L 50,72 L 50,59 Z" fill="black" /><path d="M 158,55 L 156,57 L 156,61 L 157,62 L 157,65 L 156,66 L 156,67 L 157,68 L 157,70 L 156,71 L 155,71 L 154,72 L 149,72 L 148,71 L 147,72 L 143,72 L 142,73 L 141,73 L 141,76 L 154,76 L 157,79 L 157,86 L 158,87 L 158,90 L 159,90 L 160,91 L 161,91 L 161,81 L 162,80 L 162,77 L 163,76 L 171,76 L 172,75 L 173,75 L 174,74 L 176,74 L 177,73 L 176,72 L 176,71 L 163,71 L 162,70 L 162,57 L 161,56 L 161,55 Z" fill="black" /><path d="M 0,0 L 0,222 L 260,222 L 260,0 Z" fill="none" stroke="black" stroke-width="1" /></svg>