<?xml version='1.0' encoding='utf-8'?>
<svg width="255" height="218" xmlns="http://www.w3.org/2000/svg" viewBox="0 0 255 218"><rect width="255" height="218" fill="white" /><path d="M 89,161 L 88,162 L 87,162 L 87,175 L 86,176 L 81,176 L 80,177 L 79,177 L 78,176 L 74,176 L 73,177 L 72,177 L 71,178 L 71,180 L 72,181 L 82,181 L 83,180 L 86,180 L 87,181 L 87,182 L 88,183 L 88,185 L 87,186 L 87,190 L 88,191 L 88,195 L 89,195 L 90,196 L 91,196 L 92,195 L 92,181 L 93,180 L 101,180 L 102,181 L 103,180 L 104,180 L 105,181 L 106,180 L 107,180 L 108,179 L 108,177 L 107,176 L 96,176 L 95,177 L 94,177 L 93,176 L 92,176 L 91,175 L 91,172 L 92,171 L 92,164 Z" fill="black" /><path d="M 178,155 L 176,157 L 176,159 L 175,160 L 175,163 L 176,164 L 176,165 L 177,166 L 177,168 L 176,169 L 175,169 L 174,170 L 161,170 L 161,171 L 160,172 L 161,173 L 161,174 L 166,174 L 167,173 L 171,173 L 172,174 L 174,174 L 177,177 L 177,185 L 180,188 L 181,188 L 182,187 L 182,182 L 181,181 L 181,178 L 182,177 L 182,174 L 183,173 L 188,173 L 189,174 L 190,174 L 191,173 L 195,173 L 196,172 L 196,171 L 195,170 L 194,170 L 193,169 L 186,169 L 185,170 L 183,170 L 181,168 L 181,164 L 180,163 L 180,162 L 181,161 L 181,158 L 180,157 L 180,156 L 179,155 Z" fill="black" /><path d="M 134,128 L 133,129 L 132,129 L 131,130 L 129,130 L 128,131 L 127,131 L 126,132 L 125,132 L 123,134 L 123,135 L 122,136 L 122,137 L 121,138 L 121,139 L 120,140 L 120,148 L 121,149 L 121,151 L 124,154 L 124,155 L 125,156 L 126,156 L 127,157 L 128,157 L 130,159 L 134,159 L 135,160 L 137,160 L 138,159 L 142,159 L 143,158 L 144,158 L 147,155 L 148,155 L 148,154 L 151,151 L 151,149 L 152,148 L 152,138 L 151,137 L 151,136 L 148,133 L 148,132 L 147,132 L 145,130 L 143,130 L 142,129 L 141,129 L 140,128 Z" fill="black" /><path d="M 127,88 L 126,89 L 125,89 L 125,96 L 127,98 L 127,99 L 125,101 L 122,101 L 121,102 L 113,102 L 112,103 L 112,105 L 113,106 L 113,107 L 124,107 L 126,109 L 126,121 L 127,121 L 128,122 L 130,122 L 130,117 L 131,116 L 130,115 L 130,108 L 131,107 L 134,107 L 135,106 L 136,106 L 137,107 L 146,107 L 146,103 L 145,102 L 141,102 L 140,103 L 134,103 L 133,102 L 131,102 L 130,101 L 130,89 L 129,88 Z" fill="black" /><path d="M 207,38 L 207,41 L 208,42 L 208,43 L 207,44 L 207,50 L 206,51 L 203,51 L 202,52 L 201,52 L 200,51 L 191,51 L 191,52 L 190,53 L 191,54 L 191,55 L 192,55 L 193,56 L 195,56 L 196,55 L 206,55 L 209,58 L 209,61 L 208,62 L 208,65 L 209,66 L 209,69 L 210,70 L 210,71 L 211,71 L 212,72 L 214,70 L 214,67 L 213,66 L 213,61 L 212,60 L 212,57 L 214,55 L 226,55 L 226,54 L 227,53 L 225,51 L 214,51 L 212,49 L 212,38 Z" fill="black" /><path d="M 35,36 L 34,37 L 33,37 L 33,50 L 32,51 L 17,51 L 16,52 L 16,53 L 17,54 L 26,54 L 27,55 L 28,54 L 32,54 L 34,56 L 34,57 L 33,58 L 33,61 L 34,62 L 34,70 L 35,71 L 35,73 L 36,73 L 38,71 L 38,56 L 39,55 L 53,55 L 54,54 L 54,51 L 53,50 L 46,50 L 45,51 L 43,51 L 42,50 L 41,51 L 39,51 L 38,50 L 38,46 L 37,45 L 37,43 L 38,42 L 38,39 L 37,38 L 37,37 L 36,37 Z" fill="black" /><path d="M 0,0 L 0,217 L 254,217 L 254,0 Z" fill="none" stroke="black" stroke-width="1" /></svg>