<?xml version="1.0" encoding="utf-8" ?>
<svg baseProfile="full" height="223" version="1.1" width="261" xmlns="http://www.w3.org/2000/svg" xmlns:ev="http://www.w3.org/2001/xml-events" xmlns:xlink="http://www.w3.org/1999/xlink"><defs /><rect fill="white" height="223" width="261" x="0" y="0" /><path d="M 89,139 L 93,150 L 107,152 L 93,157 L 91,170 L 86,157 L 74,155 L 87,151 Z" fill="black" stroke="black" stroke-width="1" /><path d="M 195,133 L 198,149 L 214,151 L 199,157 L 198,169 L 191,156 L 176,154 L 192,148 Z" fill="black" stroke="black" stroke-width="1" /><path d="M 118,95 L 123,108 L 138,110 L 123,116 L 121,128 L 115,114 L 104,112 L 116,108 Z" fill="black" stroke="black" stroke-width="1" /><circle cx="201.46319580078125" cy="94.24846649169922" fill="none" r="11.531074523925781" stroke="black" stroke-width="1" /><circle cx="201.1571502685547" cy="93.5" fill="none" r="18.01725196838379" stroke="black" stroke-width="1" /><path d="M 45,58 L 51,72 L 65,74 L 49,79 L 48,92 L 42,79 L 29,76 L 44,72 Z" fill="black" stroke="black" stroke-width="1" /><path d="M 158,54 L 163,70 L 178,73 L 163,77 L 161,92 L 154,77 L 140,76 L 156,70 Z" fill="black" stroke="black" stroke-width="1" /><path d="M 0,0 L 0,222 L 260,222 L 260,0 Z" fill="none" stroke="black" stroke-width="1" /></svg>