<?xml version="1.0" encoding="utf-8" ?>
<svg baseProfile="full" height="220" version="1.1" width="258" xmlns="http://www.w3.org/2000/svg" xmlns:ev="http://www.w3.org/2001/xml-events" xmlns:xlink="http://www.w3.org/1999/xlink"><defs /><rect fill="white" height="220" width="258" x="0" y="0" /><path d="M 58,159 L 64,174 L 82,176 L 64,179 L 60,196 L 58,180 L 44,178 L 57,174 Z" fill="black" stroke="black" stroke-width="1" /><path d="M 119,157 L 122,172 L 138,176 L 122,179 L 120,192 L 115,179 L 96,175 L 115,174 Z" fill="black" stroke="black" stroke-width="1" /><circle cx="90.36407470703125" cy="145.16018676757812" fill="none" r="11.685420036315918" stroke="black" stroke-width="1" /><circle cx="89.53845977783203" cy="145.26922607421875" fill="none" r="17.855741500854492" stroke="black" stroke-width="1" /><path d="M 119,93 L 122,108 L 138,111 L 122,115 L 120,130 L 115,114 L 99,112 L 115,108 Z" fill="black" stroke="black" stroke-width="1" /><path d="M 59,92 L 64,108 L 80,111 L 63,115 L 62,131 L 57,113 L 42,111 L 57,108 Z" fill="black" stroke="black" stroke-width="1" /><path d="M 0,0 L 0,219 L 257,219 L 257,0 Z" fill="none" stroke="black" stroke-width="1" /></svg>