<?xml version='1.0' encoding='utf-8'?>
<svg width="258" height="217" xmlns="http://www.w3.org/2000/svg" viewBox="0 0 258 217"><rect width="258" height="217" fill="white" /><path d="M 101,146 L 100,147 L 99,147 L 99,159 L 98,160 L 85,160 L 85,161 L 84,162 L 86,164 L 92,164 L 93,163 L 96,163 L 99,166 L 99,177 L 100,178 L 101,178 L 102,177 L 102,174 L 103,173 L 103,165 L 104,164 L 107,164 L 108,163 L 112,163 L 113,164 L 115,164 L 116,163 L 117,163 L 118,162 L 117,161 L 117,160 L 105,160 L 103,158 L 103,149 L 102,148 L 102,147 Z" fill="black" /><path d="M 161,118 L 161,130 L 160,131 L 150,131 L 149,132 L 145,132 L 144,133 L 144,134 L 145,135 L 160,135 L 161,136 L 161,140 L 162,141 L 162,145 L 161,146 L 161,148 L 162,149 L 162,151 L 165,151 L 166,150 L 166,136 L 167,135 L 180,135 L 180,134 L 181,133 L 179,131 L 173,131 L 172,132 L 170,132 L 169,131 L 168,131 L 166,129 L 166,125 L 165,124 L 165,119 L 164,118 Z" fill="black" /><path d="M 109,92 L 108,93 L 106,93 L 105,94 L 104,94 L 103,95 L 102,95 L 99,98 L 99,99 L 98,100 L 98,101 L 97,102 L 97,112 L 98,113 L 98,114 L 99,115 L 99,116 L 104,121 L 108,121 L 109,122 L 115,122 L 116,121 L 118,121 L 120,119 L 121,119 L 123,117 L 124,117 L 126,115 L 126,110 L 127,109 L 127,107 L 128,106 L 128,105 L 127,104 L 127,102 L 126,101 L 126,100 L 123,97 L 123,96 L 121,94 L 120,94 L 119,93 L 118,93 L 117,92 Z" fill="black" /><path d="M 45,73 L 44,74 L 44,86 L 42,88 L 35,88 L 34,89 L 31,89 L 30,88 L 28,88 L 28,89 L 27,90 L 28,91 L 28,92 L 29,92 L 30,93 L 34,93 L 35,92 L 41,92 L 42,93 L 43,93 L 44,94 L 44,101 L 45,102 L 45,103 L 44,104 L 44,105 L 45,106 L 45,107 L 48,107 L 48,94 L 49,93 L 52,93 L 53,92 L 55,92 L 56,93 L 60,93 L 61,92 L 61,90 L 60,89 L 57,89 L 56,88 L 49,88 L 48,87 L 48,75 L 46,73 Z" fill="black" /><path d="M 162,49 L 161,50 L 160,50 L 160,62 L 157,65 L 155,65 L 154,66 L 153,66 L 152,65 L 146,65 L 145,66 L 144,66 L 144,69 L 151,69 L 152,68 L 157,68 L 159,70 L 159,75 L 160,76 L 160,81 L 161,82 L 161,85 L 162,86 L 163,85 L 164,85 L 164,70 L 165,69 L 168,69 L 169,68 L 175,68 L 176,69 L 179,69 L 179,68 L 180,67 L 179,66 L 179,65 L 169,65 L 168,64 L 165,64 L 164,63 L 164,51 Z" fill="black" /><path d="M 104,25 L 103,26 L 103,27 L 102,28 L 102,31 L 101,32 L 101,35 L 102,36 L 102,39 L 100,41 L 96,41 L 95,40 L 94,41 L 92,41 L 91,40 L 89,40 L 88,41 L 88,44 L 91,44 L 92,45 L 100,45 L 102,47 L 102,58 L 103,59 L 103,60 L 105,60 L 106,59 L 106,46 L 107,45 L 108,45 L 109,44 L 110,44 L 111,45 L 119,45 L 121,43 L 120,42 L 120,41 L 108,41 L 106,39 L 106,26 L 105,26 Z" fill="black" /><path d="M 0,0 L 0,216 L 257,216 L 257,0 Z" fill="none" stroke="black" stroke-width="1" /></svg>