<?xml version='1.0' encoding='utf-8'?>
<svg width="258" height="219" xmlns="http://www.w3.org/2000/svg" viewBox="0 0 258 219"><rect width="258" height="219" fill="white" /><path d="M 41,172 L 40,173 L 39,173 L 39,183 L 38,184 L 35,184 L 34,185 L 32,185 L 31,186 L 24,186 L 24,187 L 23,188 L 23,189 L 32,189 L 33,190 L 34,190 L 35,189 L 37,189 L 38,190 L 39,190 L 40,191 L 40,203 L 41,204 L 41,208 L 42,208 L 44,206 L 44,198 L 43,197 L 43,196 L 44,195 L 44,191 L 45,190 L 50,190 L 51,189 L 56,189 L 57,190 L 58,189 L 59,189 L 58,188 L 58,187 L 57,186 L 57,185 L 51,185 L 50,184 L 45,184 L 44,183 L 44,175 L 43,174 L 43,173 L 42,173 Z" fill="black" /><path d="M 122,115 L 121,116 L 121,119 L 122,120 L 122,121 L 121,122 L 121,127 L 119,129 L 116,129 L 115,130 L 106,130 L 106,131 L 107,132 L 107,133 L 110,133 L 111,134 L 118,134 L 119,133 L 121,133 L 122,134 L 122,139 L 121,140 L 121,146 L 122,147 L 126,147 L 126,135 L 128,133 L 142,133 L 142,131 L 140,129 L 139,129 L 138,130 L 136,130 L 135,129 L 127,129 L 126,128 L 126,116 L 125,116 L 124,115 Z" fill="black" /><path d="M 227,106 L 227,109 L 226,110 L 226,118 L 223,121 L 219,121 L 218,120 L 211,120 L 211,121 L 210,122 L 212,124 L 213,124 L 214,125 L 216,125 L 217,124 L 220,124 L 221,125 L 222,125 L 223,124 L 225,124 L 227,126 L 227,137 L 228,138 L 228,139 L 229,139 L 230,140 L 231,140 L 232,139 L 232,126 L 234,124 L 244,124 L 244,123 L 245,122 L 244,121 L 244,120 L 233,120 L 232,121 L 231,121 L 229,119 L 232,116 L 232,115 L 231,114 L 231,113 L 232,112 L 232,106 Z" fill="black" /><path d="M 155,85 L 154,86 L 150,86 L 149,87 L 148,87 L 147,88 L 145,88 L 143,90 L 143,91 L 142,92 L 141,92 L 141,94 L 140,95 L 140,96 L 139,97 L 139,105 L 140,106 L 140,107 L 143,110 L 143,111 L 145,113 L 146,113 L 148,115 L 149,115 L 150,116 L 154,116 L 155,117 L 158,117 L 159,116 L 160,116 L 161,115 L 162,115 L 163,114 L 164,114 L 165,113 L 166,113 L 168,111 L 168,110 L 169,109 L 169,108 L 170,107 L 170,105 L 171,104 L 171,101 L 170,100 L 170,94 L 168,92 L 168,91 L 164,87 L 163,87 L 162,86 L 157,86 L 156,85 Z" fill="black" /><path d="M 102,37 L 102,38 L 101,39 L 102,40 L 102,46 L 103,47 L 103,51 L 102,52 L 102,54 L 101,55 L 85,55 L 85,56 L 84,57 L 85,58 L 85,59 L 100,59 L 103,62 L 103,76 L 106,76 L 106,75 L 107,74 L 107,72 L 106,71 L 106,70 L 107,69 L 107,68 L 106,67 L 106,62 L 109,59 L 121,59 L 121,57 L 119,55 L 108,55 L 106,53 L 106,40 L 103,37 Z" fill="black" /><path d="M 0,0 L 0,218 L 257,218 L 257,0 Z" fill="none" stroke="black" stroke-width="1" /></svg>