<?xml version='1.0' encoding='utf-8'?>
<svg width="258" height="219" xmlns="http://www.w3.org/2000/svg" viewBox="0 0 258 219"><rect width="258" height="219" fill="white" /><path d="M 84,184 L 84,188 L 82,190 L 83,191 L 83,192 L 84,193 L 84,195 L 82,197 L 70,197 L 69,198 L 69,202 L 83,202 L 84,203 L 84,214 L 85,214 L 86,215 L 87,215 L 88,214 L 88,205 L 89,204 L 89,203 L 90,202 L 103,202 L 103,199 L 102,198 L 98,198 L 97,197 L 89,197 L 88,196 L 88,193 L 87,192 L 88,191 L 88,189 L 87,188 L 87,184 Z" fill="black" /><path d="M 114,112 L 113,113 L 112,113 L 111,114 L 110,114 L 109,115 L 108,115 L 106,117 L 106,118 L 104,120 L 104,121 L 103,122 L 103,124 L 102,125 L 102,132 L 103,133 L 103,134 L 104,135 L 104,136 L 106,138 L 106,139 L 107,140 L 109,140 L 110,141 L 110,142 L 111,142 L 112,143 L 113,143 L 114,144 L 124,144 L 126,142 L 127,142 L 128,141 L 129,141 L 133,137 L 133,135 L 134,134 L 134,133 L 135,132 L 135,125 L 134,124 L 134,123 L 133,122 L 133,119 L 129,115 L 128,115 L 127,114 L 126,114 L 125,113 L 122,113 L 121,112 Z" fill="black" /><path d="M 211,30 L 210,31 L 209,31 L 209,32 L 208,33 L 208,38 L 209,39 L 209,40 L 208,41 L 208,44 L 207,45 L 194,45 L 193,46 L 193,47 L 194,48 L 194,49 L 199,49 L 200,50 L 202,50 L 203,49 L 206,49 L 207,50 L 208,50 L 209,51 L 209,57 L 208,58 L 208,64 L 209,65 L 212,65 L 213,64 L 213,51 L 215,49 L 219,49 L 220,50 L 221,50 L 222,49 L 226,49 L 228,47 L 228,46 L 227,45 L 219,45 L 218,44 L 215,44 L 213,42 L 213,31 L 212,31 Z" fill="black" /><path d="M 59,28 L 58,29 L 57,29 L 57,30 L 56,31 L 56,38 L 57,39 L 57,41 L 55,43 L 42,43 L 42,46 L 43,46 L 45,48 L 55,48 L 56,49 L 56,54 L 57,55 L 57,61 L 59,63 L 60,62 L 61,62 L 61,49 L 63,47 L 65,47 L 66,48 L 77,48 L 77,47 L 78,46 L 77,45 L 77,44 L 70,44 L 69,43 L 62,43 L 61,42 L 61,29 L 60,29 Z" fill="black" /><path d="M 0,0 L 0,218 L 257,218 L 257,0 Z" fill="none" stroke="black" stroke-width="1" /></svg>