<?xml version='1.0' encoding='utf-8'?>
<svg width="255" height="220" xmlns="http://www.w3.org/2000/svg" viewBox="0 0 255 220"><rect width="255" height="220" fill="white" /><path d="M 216,105 L 215,106 L 214,106 L 214,107 L 213,108 L 213,118 L 212,119 L 203,119 L 202,120 L 199,120 L 198,121 L 198,122 L 199,123 L 210,123 L 213,126 L 213,138 L 214,138 L 215,139 L 217,137 L 217,136 L 218,135 L 218,132 L 217,131 L 217,129 L 218,128 L 218,125 L 220,123 L 231,123 L 232,122 L 233,122 L 233,119 L 220,119 L 218,117 L 218,106 L 217,106 Z" fill="black" /><path d="M 133,104 L 132,105 L 131,105 L 130,106 L 128,106 L 127,107 L 127,108 L 125,110 L 125,111 L 123,113 L 123,115 L 122,116 L 122,117 L 121,118 L 121,119 L 122,120 L 122,121 L 121,122 L 121,124 L 123,126 L 123,127 L 125,129 L 125,130 L 128,133 L 129,133 L 131,135 L 134,135 L 135,136 L 140,136 L 141,135 L 144,135 L 146,133 L 148,133 L 150,131 L 150,130 L 152,128 L 152,124 L 153,123 L 153,121 L 154,120 L 154,119 L 153,118 L 153,114 L 152,113 L 152,111 L 150,109 L 150,108 L 149,108 L 148,107 L 147,107 L 146,106 L 145,106 L 143,104 Z" fill="black" /><path d="M 77,42 L 76,43 L 75,43 L 74,44 L 73,44 L 73,46 L 75,48 L 75,49 L 74,50 L 73,50 L 73,55 L 72,56 L 62,56 L 62,60 L 63,61 L 72,61 L 74,63 L 74,64 L 73,65 L 73,68 L 75,70 L 75,73 L 76,74 L 79,74 L 80,73 L 80,62 L 81,61 L 94,61 L 95,60 L 95,56 L 81,56 L 80,55 L 80,54 L 79,53 L 79,47 L 80,46 L 80,43 L 79,42 Z" fill="black" /><path d="M 216,9 L 215,10 L 214,10 L 214,13 L 213,14 L 213,17 L 214,18 L 214,21 L 213,22 L 213,23 L 212,24 L 202,24 L 201,25 L 201,26 L 203,28 L 205,28 L 206,27 L 208,27 L 209,28 L 213,28 L 214,29 L 214,30 L 213,31 L 213,33 L 214,34 L 214,41 L 215,41 L 216,42 L 217,41 L 218,41 L 218,30 L 221,27 L 229,27 L 231,25 L 231,24 L 229,24 L 228,23 L 225,23 L 224,24 L 221,24 L 220,23 L 219,23 L 218,22 L 218,18 L 219,17 L 219,16 L 218,15 L 218,10 L 217,9 Z" fill="black" /></svg>