<?xml version='1.0' encoding='utf-8'?>
<svg width="258" height="216" xmlns="http://www.w3.org/2000/svg" viewBox="0 0 258 216"><rect width="258" height="216" fill="white" /><path d="M 144,162 L 140,166 L 140,173 L 141,174 L 141,175 L 142,176 L 143,176 L 144,177 L 152,177 L 155,174 L 155,173 L 156,172 L 156,167 L 151,162 Z" fill="black" /><path d="M 117,161 L 116,162 L 113,162 L 111,164 L 111,166 L 109,168 L 109,170 L 111,172 L 111,174 L 114,177 L 121,177 L 122,176 L 123,176 L 125,174 L 125,173 L 126,172 L 126,166 L 121,161 Z" fill="black" /><path d="M 49,160 L 48,161 L 28,161 L 26,163 L 26,167 L 25,168 L 25,173 L 26,174 L 26,179 L 27,180 L 27,193 L 33,193 L 34,194 L 36,194 L 37,193 L 57,193 L 59,191 L 59,185 L 60,184 L 59,183 L 59,170 L 58,169 L 58,161 L 57,160 Z" fill="black" /><path d="M 172,154 L 171,155 L 170,155 L 167,158 L 167,165 L 172,170 L 173,170 L 174,171 L 177,171 L 179,169 L 182,169 L 182,167 L 183,166 L 183,157 L 182,156 L 181,156 L 180,155 L 179,155 L 178,154 Z" fill="black" /><path d="M 89,144 L 85,148 L 85,155 L 87,157 L 87,159 L 89,159 L 90,158 L 91,159 L 96,159 L 101,154 L 101,149 L 99,147 L 99,146 L 97,144 Z" fill="black" /><path d="M 197,134 L 195,136 L 193,136 L 193,138 L 192,139 L 192,141 L 193,142 L 193,144 L 194,145 L 194,146 L 195,147 L 195,148 L 196,149 L 198,149 L 199,150 L 200,150 L 201,149 L 206,149 L 207,148 L 207,147 L 208,146 L 208,143 L 209,142 L 209,139 L 205,135 L 205,134 Z" fill="black" /><path d="M 74,120 L 73,121 L 72,121 L 69,124 L 69,132 L 70,133 L 71,133 L 73,135 L 80,135 L 81,134 L 82,134 L 83,133 L 84,133 L 84,123 L 83,123 L 80,120 Z" fill="black" /><path d="M 213,110 L 209,114 L 208,114 L 207,115 L 207,120 L 208,121 L 208,122 L 210,124 L 211,124 L 212,125 L 220,125 L 222,123 L 222,122 L 224,120 L 224,115 L 223,114 L 223,113 L 221,111 L 220,111 L 219,110 Z" fill="black" /><path d="M 66,93 L 62,97 L 61,97 L 61,98 L 62,99 L 62,102 L 61,103 L 61,104 L 62,105 L 62,106 L 63,107 L 64,107 L 65,108 L 66,108 L 67,109 L 68,109 L 68,108 L 69,107 L 70,107 L 71,108 L 75,108 L 77,106 L 77,105 L 78,104 L 78,99 L 77,98 L 77,97 L 75,95 L 75,94 L 72,94 L 71,93 Z" fill="black" /><path d="M 221,81 L 219,83 L 214,83 L 213,84 L 213,94 L 215,96 L 216,96 L 217,97 L 224,97 L 225,96 L 226,96 L 228,94 L 228,92 L 229,91 L 229,86 L 228,85 L 228,84 L 226,82 L 225,82 L 224,81 Z" fill="black" /><path d="M 75,62 L 74,63 L 73,63 L 69,67 L 69,68 L 68,69 L 68,71 L 69,72 L 69,75 L 72,78 L 75,78 L 76,79 L 79,79 L 80,78 L 81,78 L 85,74 L 85,67 L 81,63 L 80,63 L 79,62 Z" fill="black" /><path d="M 209,49 L 208,50 L 207,50 L 206,51 L 205,51 L 203,53 L 203,55 L 202,56 L 202,58 L 203,59 L 203,62 L 205,64 L 206,64 L 207,65 L 208,65 L 209,66 L 212,66 L 213,65 L 215,65 L 218,62 L 218,60 L 219,59 L 219,57 L 218,56 L 218,54 L 217,53 L 217,52 L 215,50 L 211,50 L 210,49 Z" fill="black" /><path d="M 89,34 L 85,38 L 85,41 L 86,42 L 86,43 L 85,44 L 85,46 L 87,48 L 88,48 L 89,49 L 97,49 L 102,44 L 102,42 L 101,41 L 101,39 L 100,38 L 100,37 L 98,35 L 97,35 L 96,34 Z" fill="black" /><path d="M 188,30 L 187,31 L 184,31 L 182,33 L 182,35 L 181,36 L 181,43 L 184,46 L 188,46 L 189,47 L 192,47 L 194,45 L 195,45 L 196,44 L 196,43 L 197,42 L 197,41 L 198,40 L 198,37 L 196,35 L 196,32 L 193,32 L 191,30 Z" fill="black" /><path d="M 119,22 L 115,26 L 115,33 L 119,37 L 127,37 L 131,33 L 131,32 L 132,31 L 132,28 L 131,27 L 131,26 L 130,25 L 130,24 L 129,23 L 128,23 L 127,22 Z" fill="black" /><path d="M 154,20 L 150,24 L 150,32 L 154,36 L 160,36 L 161,35 L 162,35 L 166,31 L 166,25 L 165,24 L 165,23 L 163,21 L 162,21 L 161,20 Z" fill="black" /></svg>