<?xml version='1.0' encoding='utf-8'?>
<svg width="258" height="217" xmlns="http://www.w3.org/2000/svg" viewBox="0 0 258 217"><rect width="258" height="217" fill="white" /><path d="M 111,186 L 110,187 L 106,187 L 104,189 L 104,190 L 103,191 L 103,194 L 104,195 L 104,198 L 106,200 L 107,200 L 108,201 L 109,201 L 110,202 L 113,202 L 114,201 L 115,201 L 116,200 L 117,200 L 119,198 L 119,196 L 120,195 L 120,192 L 119,191 L 119,190 L 116,187 L 115,187 L 114,186 Z" fill="black" /><path d="M 203,185 L 202,186 L 202,187 L 199,190 L 199,195 L 198,196 L 198,197 L 201,200 L 202,200 L 203,201 L 208,201 L 209,200 L 213,200 L 215,198 L 215,190 L 210,185 Z" fill="black" /><path d="M 169,185 L 165,189 L 165,191 L 164,192 L 164,195 L 166,197 L 166,198 L 167,199 L 170,199 L 171,198 L 171,197 L 169,197 L 167,195 L 167,191 L 170,188 L 171,188 L 172,187 L 173,187 L 174,188 L 175,188 L 177,190 L 177,193 L 176,194 L 176,196 L 175,197 L 174,197 L 173,198 L 173,200 L 174,201 L 175,201 L 176,200 L 177,200 L 177,199 L 180,196 L 180,190 L 176,186 L 176,185 Z" fill="black" /><path d="M 141,185 L 138,188 L 138,189 L 137,190 L 137,191 L 136,192 L 136,194 L 137,195 L 137,196 L 138,197 L 138,198 L 139,199 L 140,199 L 141,200 L 149,200 L 150,199 L 150,198 L 152,196 L 152,195 L 153,194 L 153,191 L 150,188 L 150,187 L 148,185 Z" fill="black" /><path d="M 76,185 L 73,188 L 73,190 L 72,191 L 72,194 L 73,195 L 73,196 L 74,197 L 74,198 L 75,199 L 76,198 L 77,198 L 77,196 L 75,194 L 75,190 L 78,187 L 81,187 L 82,188 L 83,188 L 86,191 L 86,192 L 85,193 L 85,194 L 84,195 L 84,196 L 83,197 L 80,197 L 79,198 L 79,200 L 80,200 L 81,201 L 82,200 L 83,200 L 84,199 L 85,199 L 86,198 L 87,198 L 87,197 L 88,196 L 88,190 L 87,189 L 87,188 L 86,187 L 85,187 L 83,185 Z" fill="black" /><path d="M 46,185 L 41,190 L 41,193 L 42,194 L 42,197 L 43,198 L 43,199 L 45,201 L 51,201 L 52,200 L 53,200 L 54,199 L 55,199 L 56,198 L 56,197 L 57,196 L 57,191 L 55,189 L 55,187 L 54,186 L 53,186 L 52,185 Z" fill="black" /><path d="M 235,183 L 234,184 L 233,184 L 230,187 L 230,191 L 232,193 L 231,194 L 231,198 L 233,198 L 234,199 L 235,199 L 236,200 L 239,200 L 241,198 L 243,198 L 245,196 L 245,193 L 246,192 L 246,188 L 243,185 L 242,185 L 240,183 Z" fill="black" /><path d="M 47,155 L 43,159 L 43,161 L 42,162 L 42,166 L 47,171 L 49,171 L 50,170 L 51,170 L 52,171 L 54,171 L 58,167 L 58,161 L 57,160 L 57,159 L 56,158 L 55,158 L 53,156 L 52,156 L 51,155 Z" fill="black" /><path d="M 233,149 L 232,150 L 232,151 L 230,153 L 230,159 L 235,164 L 242,164 L 246,160 L 246,154 L 245,153 L 245,151 L 244,150 L 243,150 L 242,149 Z" fill="black" /><path d="M 50,118 L 49,119 L 45,119 L 44,120 L 44,121 L 42,123 L 42,124 L 41,125 L 41,127 L 42,128 L 42,131 L 43,132 L 44,132 L 46,134 L 54,134 L 57,131 L 57,123 L 55,121 L 55,120 L 54,119 L 52,119 L 51,118 Z" fill="black" /><path d="M 236,115 L 231,120 L 230,120 L 230,123 L 231,124 L 231,125 L 234,128 L 234,129 L 235,130 L 243,130 L 246,127 L 246,126 L 247,125 L 247,122 L 246,121 L 246,120 L 245,119 L 245,117 L 243,117 L 242,116 L 241,116 L 240,115 Z" fill="black" /><path d="M 151,108 L 150,109 L 148,109 L 146,111 L 146,114 L 145,115 L 145,116 L 146,117 L 146,121 L 148,123 L 152,123 L 153,124 L 155,124 L 156,123 L 157,123 L 158,122 L 160,122 L 161,121 L 162,121 L 163,120 L 163,117 L 162,116 L 162,114 L 161,113 L 161,112 L 160,111 L 160,110 L 159,109 L 157,109 L 156,108 Z" fill="black" /><path d="M 171,98 L 168,101 L 168,102 L 167,103 L 167,106 L 168,107 L 168,108 L 169,109 L 169,110 L 172,113 L 173,113 L 174,114 L 177,114 L 178,113 L 179,113 L 180,112 L 182,112 L 185,109 L 185,107 L 184,106 L 184,104 L 183,103 L 183,101 L 180,98 Z" fill="black" /><path d="M 123,98 L 122,99 L 121,99 L 119,101 L 118,101 L 116,103 L 116,104 L 117,105 L 117,106 L 116,107 L 117,108 L 117,109 L 118,110 L 118,111 L 119,112 L 121,112 L 122,113 L 130,113 L 133,110 L 133,103 L 131,101 L 131,100 L 130,99 L 129,99 L 128,98 Z" fill="black" /><path d="M 46,85 L 42,89 L 42,91 L 41,92 L 41,93 L 42,94 L 42,97 L 43,98 L 44,98 L 46,100 L 49,100 L 50,101 L 53,101 L 54,100 L 55,100 L 58,97 L 58,90 L 57,89 L 57,87 L 55,85 Z" fill="black" /><path d="M 231,84 L 228,87 L 228,90 L 227,91 L 227,92 L 228,93 L 228,95 L 229,96 L 229,97 L 230,97 L 231,98 L 232,98 L 233,99 L 240,99 L 243,96 L 243,87 L 240,84 L 235,84 L 234,85 L 233,85 L 232,84 Z" fill="black" /><path d="M 191,79 L 188,82 L 188,83 L 187,84 L 187,87 L 188,88 L 188,90 L 192,94 L 199,94 L 203,90 L 203,87 L 204,86 L 204,84 L 203,83 L 203,82 L 202,82 L 200,80 L 200,79 Z" fill="black" /><path d="M 98,77 L 94,81 L 94,82 L 93,83 L 93,86 L 94,87 L 94,90 L 95,90 L 97,92 L 100,92 L 101,93 L 102,93 L 103,92 L 106,92 L 109,89 L 109,87 L 110,86 L 110,82 L 105,77 Z" fill="black" /><path d="M 232,56 L 229,59 L 226,59 L 226,67 L 231,72 L 237,72 L 239,70 L 240,70 L 242,68 L 242,66 L 243,65 L 243,62 L 241,60 L 241,59 L 238,56 L 237,56 L 236,57 L 235,56 Z" fill="black" /><path d="M 47,53 L 46,54 L 45,54 L 43,56 L 43,57 L 42,58 L 42,64 L 43,65 L 43,67 L 45,69 L 46,69 L 47,70 L 49,70 L 50,69 L 54,69 L 55,68 L 55,67 L 57,65 L 57,64 L 58,63 L 58,59 L 57,58 L 57,56 L 56,55 L 55,55 L 53,53 Z" fill="black" /><path d="M 203,50 L 202,51 L 198,51 L 196,53 L 195,53 L 194,54 L 194,61 L 195,62 L 195,63 L 197,65 L 198,65 L 199,66 L 201,66 L 202,65 L 203,65 L 204,66 L 207,66 L 209,64 L 209,62 L 211,60 L 211,56 L 210,55 L 210,54 L 206,50 Z" fill="black" /><path d="M 86,50 L 85,51 L 84,51 L 82,53 L 81,53 L 80,54 L 80,60 L 83,63 L 83,64 L 85,66 L 92,66 L 93,65 L 94,65 L 95,64 L 95,62 L 97,60 L 97,56 L 96,55 L 96,54 L 92,50 Z" fill="black" /><path d="M 158,46 L 157,47 L 134,47 L 134,48 L 132,50 L 132,56 L 133,57 L 133,69 L 134,70 L 133,71 L 133,72 L 132,73 L 132,76 L 133,77 L 133,80 L 140,80 L 141,79 L 163,79 L 164,78 L 164,73 L 163,72 L 163,67 L 164,66 L 163,65 L 163,63 L 164,62 L 164,61 L 163,60 L 163,57 L 164,56 L 163,55 L 163,46 L 161,46 L 160,47 L 159,47 Z" fill="black" /><path d="M 235,28 L 234,29 L 231,29 L 228,32 L 228,34 L 227,35 L 227,38 L 232,43 L 232,44 L 239,44 L 240,43 L 241,43 L 243,41 L 243,33 L 241,31 L 241,30 L 240,29 L 239,29 L 238,28 Z" fill="black" /><path d="M 205,27 L 204,28 L 203,28 L 201,30 L 201,31 L 200,32 L 200,36 L 201,37 L 201,38 L 202,39 L 202,40 L 204,42 L 214,42 L 215,41 L 215,40 L 217,38 L 217,33 L 216,32 L 216,30 L 214,28 L 213,28 L 212,27 Z" fill="black" /><path d="M 74,24 L 70,28 L 70,38 L 73,38 L 75,40 L 81,40 L 82,39 L 83,39 L 85,37 L 85,35 L 86,34 L 86,29 L 84,27 L 84,26 L 83,25 L 78,25 L 77,24 Z" fill="black" /><path d="M 47,21 L 45,23 L 44,23 L 44,24 L 42,26 L 42,33 L 43,34 L 44,34 L 46,36 L 47,36 L 49,38 L 54,38 L 55,37 L 55,36 L 58,33 L 58,31 L 59,30 L 59,27 L 57,25 L 57,23 L 56,23 L 55,22 L 54,22 L 53,21 Z" fill="black" /></svg>