<?xml version='1.0' encoding='utf-8'?>
<svg width="261" height="220" xmlns="http://www.w3.org/2000/svg" viewBox="0 0 261 220"><rect width="261" height="220" fill="white" /><path d="M 203,171 L 202,172 L 198,172 L 196,174 L 196,177 L 195,178 L 195,181 L 196,182 L 196,184 L 199,187 L 200,187 L 201,188 L 204,188 L 205,189 L 206,188 L 207,188 L 208,187 L 209,187 L 211,185 L 211,184 L 212,183 L 212,182 L 213,181 L 213,180 L 212,179 L 212,177 L 211,176 L 211,174 L 209,172 L 208,172 L 207,171 Z" fill="black" /><path d="M 173,171 L 172,172 L 171,172 L 169,174 L 169,175 L 168,176 L 168,177 L 167,178 L 167,184 L 172,189 L 177,189 L 179,187 L 181,187 L 181,185 L 183,183 L 183,181 L 184,180 L 184,178 L 183,177 L 183,176 L 182,175 L 182,174 L 180,172 L 175,172 L 174,171 Z" fill="black" /><path d="M 149,171 L 148,172 L 145,172 L 142,175 L 142,184 L 145,187 L 147,187 L 148,188 L 151,188 L 152,187 L 154,187 L 156,185 L 157,185 L 157,184 L 158,183 L 158,182 L 159,181 L 159,177 L 158,176 L 158,175 L 156,173 L 155,173 L 154,172 L 153,172 L 152,171 Z" fill="black" /><path d="M 99,171 L 97,173 L 95,173 L 94,174 L 94,178 L 93,179 L 94,180 L 94,183 L 95,184 L 95,185 L 97,187 L 101,187 L 102,188 L 104,188 L 106,186 L 107,186 L 109,184 L 109,183 L 110,182 L 110,176 L 109,175 L 109,174 L 108,173 L 107,173 L 106,172 L 102,172 L 101,171 Z" fill="black" /><path d="M 77,171 L 76,172 L 73,172 L 70,175 L 70,184 L 71,184 L 73,186 L 73,187 L 74,188 L 77,188 L 78,187 L 81,187 L 82,186 L 83,186 L 86,183 L 86,176 L 85,175 L 85,174 L 83,172 L 81,172 L 80,171 Z" fill="black" /><path d="M 28,171 L 27,172 L 26,172 L 24,174 L 24,176 L 23,177 L 23,183 L 25,185 L 26,185 L 28,187 L 34,187 L 35,186 L 36,186 L 38,184 L 38,182 L 39,181 L 39,176 L 35,172 L 31,172 L 30,171 Z" fill="black" /><path d="M 233,170 L 231,172 L 230,172 L 227,175 L 227,181 L 228,182 L 228,184 L 229,185 L 230,185 L 232,187 L 239,187 L 243,183 L 243,174 L 241,172 L 240,172 L 238,170 Z" fill="black" /><path d="M 124,170 L 122,172 L 120,172 L 120,174 L 119,175 L 119,176 L 118,177 L 118,179 L 120,181 L 120,183 L 123,186 L 130,186 L 134,182 L 134,173 L 132,171 L 131,171 L 130,170 Z" fill="black" /><path d="M 53,170 L 51,172 L 49,172 L 48,173 L 47,173 L 46,174 L 46,177 L 45,178 L 45,181 L 46,182 L 46,183 L 48,183 L 50,185 L 50,186 L 51,187 L 57,187 L 59,185 L 60,185 L 62,183 L 62,181 L 63,180 L 63,177 L 61,175 L 61,174 L 59,172 L 58,172 L 56,170 Z" fill="black" /><path d="M 43,148 L 40,151 L 40,152 L 38,154 L 38,158 L 39,159 L 39,160 L 40,161 L 40,162 L 41,163 L 42,163 L 43,164 L 47,164 L 48,165 L 49,165 L 51,163 L 53,163 L 55,161 L 55,158 L 56,157 L 56,155 L 55,154 L 55,153 L 53,151 L 53,150 L 52,150 L 50,148 Z" fill="black" /><path d="M 222,142 L 221,143 L 220,143 L 219,144 L 218,144 L 216,146 L 216,149 L 215,150 L 215,152 L 216,153 L 216,156 L 218,158 L 219,158 L 220,159 L 227,159 L 228,158 L 229,158 L 231,156 L 231,155 L 232,154 L 232,151 L 231,150 L 231,148 L 230,147 L 230,145 L 228,143 L 227,143 L 226,142 Z" fill="black" /><path d="M 60,124 L 58,126 L 56,126 L 54,128 L 54,138 L 57,141 L 58,141 L 59,142 L 60,142 L 61,143 L 63,143 L 64,142 L 65,142 L 66,141 L 67,141 L 70,138 L 70,132 L 69,131 L 69,130 L 67,128 L 67,126 L 64,126 L 62,124 Z" fill="black" /><path d="M 159,120 L 158,121 L 158,149 L 159,150 L 159,153 L 173,153 L 174,152 L 175,152 L 176,153 L 191,153 L 193,151 L 193,140 L 192,139 L 192,126 L 191,125 L 191,120 L 169,120 L 168,121 L 162,121 L 161,120 Z" fill="black" /><path d="M 210,118 L 208,120 L 207,120 L 206,121 L 206,123 L 205,124 L 205,127 L 206,128 L 206,131 L 209,134 L 210,134 L 211,135 L 215,135 L 216,134 L 217,134 L 218,133 L 219,133 L 221,131 L 221,122 L 217,118 Z" fill="black" /><path d="M 74,105 L 73,106 L 72,106 L 70,108 L 69,108 L 68,109 L 68,111 L 67,112 L 67,116 L 68,117 L 68,119 L 70,121 L 73,121 L 74,122 L 79,122 L 80,121 L 81,121 L 84,118 L 84,116 L 85,115 L 85,113 L 84,112 L 84,110 L 83,109 L 83,108 L 82,108 L 80,106 L 79,106 L 78,105 Z" fill="black" /><path d="M 198,95 L 197,96 L 196,96 L 192,100 L 192,105 L 193,106 L 193,107 L 194,108 L 194,110 L 195,111 L 197,111 L 199,113 L 202,113 L 204,111 L 205,111 L 209,107 L 209,102 L 208,101 L 208,100 L 207,99 L 207,98 L 205,96 L 204,96 L 203,95 Z" fill="black" /><path d="M 87,85 L 82,90 L 82,92 L 81,93 L 81,96 L 82,97 L 82,99 L 84,101 L 87,101 L 88,102 L 92,102 L 93,101 L 95,101 L 96,100 L 96,99 L 97,98 L 97,96 L 99,94 L 99,91 L 97,89 L 97,88 L 96,88 L 94,86 L 90,86 L 89,85 Z" fill="black" /><path d="M 187,70 L 185,72 L 184,72 L 183,73 L 182,73 L 181,74 L 181,75 L 180,76 L 180,83 L 184,87 L 185,87 L 186,88 L 191,88 L 192,87 L 193,87 L 197,83 L 197,76 L 195,74 L 195,73 L 194,73 L 193,72 L 192,72 L 191,71 L 190,71 L 189,70 Z" fill="black" /><path d="M 102,65 L 101,66 L 98,66 L 96,68 L 96,69 L 95,70 L 95,71 L 94,72 L 94,76 L 95,77 L 95,78 L 96,79 L 96,80 L 97,81 L 99,81 L 100,82 L 104,82 L 105,81 L 107,81 L 110,78 L 110,77 L 111,76 L 111,70 L 107,66 L 105,66 L 104,65 Z" fill="black" /><path d="M 174,48 L 170,52 L 170,53 L 168,55 L 168,58 L 170,60 L 170,62 L 174,66 L 177,66 L 178,65 L 181,65 L 185,61 L 185,54 L 183,52 L 183,51 L 182,50 L 181,50 L 180,49 L 179,49 L 178,48 Z" fill="black" /><path d="M 116,46 L 114,48 L 113,48 L 112,49 L 111,49 L 108,52 L 108,59 L 110,61 L 110,62 L 112,64 L 119,64 L 120,63 L 122,63 L 123,62 L 123,60 L 124,59 L 124,54 L 123,53 L 123,52 L 122,51 L 122,50 L 120,48 L 119,48 L 117,46 Z" fill="black" /><path d="M 164,26 L 163,27 L 159,27 L 156,30 L 156,33 L 155,34 L 155,36 L 156,37 L 156,39 L 160,43 L 167,43 L 171,39 L 171,30 L 169,28 L 168,28 L 166,26 Z" fill="black" /><path d="M 128,24 L 127,25 L 125,25 L 122,28 L 122,29 L 121,30 L 121,31 L 120,32 L 120,35 L 121,36 L 121,37 L 122,38 L 122,39 L 124,41 L 128,41 L 129,42 L 131,42 L 132,41 L 134,41 L 135,40 L 135,39 L 136,38 L 136,37 L 137,36 L 137,29 L 134,26 L 132,26 L 131,25 L 131,24 Z" fill="black" /><path d="M 143,9 L 139,13 L 139,16 L 138,17 L 138,19 L 139,20 L 139,21 L 143,25 L 150,25 L 152,23 L 152,22 L 153,21 L 153,20 L 154,19 L 154,16 L 153,15 L 153,13 L 150,10 L 149,10 L 148,9 Z" fill="black" /></svg>