<?xml version='1.0' encoding='utf-8'?>
<svg width="254" height="218" xmlns="http://www.w3.org/2000/svg" viewBox="0 0 254 218"><rect width="254" height="218" fill="white" /><path d="M 181,189 L 178,192 L 178,193 L 177,194 L 177,197 L 176,198 L 176,200 L 181,205 L 185,205 L 186,206 L 187,206 L 188,205 L 190,205 L 192,203 L 192,202 L 194,200 L 194,199 L 195,198 L 195,197 L 194,196 L 194,195 L 193,194 L 193,192 L 190,189 Z" fill="black" /><path d="M 156,188 L 155,189 L 154,189 L 153,190 L 153,191 L 152,192 L 152,193 L 150,195 L 150,199 L 157,206 L 159,206 L 160,205 L 163,205 L 164,204 L 165,204 L 167,202 L 167,201 L 168,200 L 168,198 L 169,197 L 169,194 L 168,194 L 167,193 L 167,191 L 164,188 Z" fill="black" /><path d="M 133,188 L 131,190 L 130,190 L 130,191 L 129,192 L 129,193 L 128,194 L 128,200 L 130,202 L 130,203 L 131,203 L 133,205 L 140,205 L 143,202 L 143,201 L 144,200 L 144,198 L 145,197 L 145,194 L 143,192 L 143,190 L 141,190 L 140,189 L 139,189 L 138,188 Z" fill="black" /><path d="M 109,186 L 108,187 L 107,187 L 106,188 L 105,188 L 103,190 L 103,191 L 102,192 L 102,198 L 104,200 L 104,201 L 106,203 L 108,203 L 109,204 L 113,204 L 114,203 L 115,203 L 117,201 L 117,199 L 119,197 L 119,191 L 116,188 L 114,188 L 112,186 Z" fill="black" /><path d="M 209,181 L 208,182 L 208,184 L 204,188 L 204,195 L 206,197 L 207,197 L 209,199 L 218,199 L 221,196 L 221,193 L 222,192 L 222,188 L 219,185 L 219,184 L 218,184 L 216,182 L 214,182 L 213,181 Z" fill="black" /><path d="M 77,181 L 73,185 L 73,192 L 74,193 L 74,195 L 75,195 L 77,197 L 78,197 L 79,198 L 86,198 L 87,197 L 87,196 L 89,194 L 89,193 L 91,191 L 91,189 L 90,188 L 90,185 L 86,181 Z" fill="black" /><path d="M 228,162 L 227,163 L 226,163 L 224,165 L 224,166 L 222,168 L 222,173 L 223,173 L 224,174 L 224,176 L 225,177 L 227,177 L 228,178 L 228,179 L 234,179 L 236,177 L 237,177 L 237,176 L 240,173 L 240,172 L 241,171 L 241,168 L 240,167 L 240,166 L 237,163 L 236,163 L 235,162 Z" fill="black" /><path d="M 91,155 L 90,156 L 88,156 L 84,160 L 84,167 L 85,168 L 85,169 L 87,171 L 89,171 L 91,173 L 95,173 L 96,172 L 97,172 L 100,169 L 101,169 L 101,168 L 102,167 L 102,166 L 101,165 L 101,159 L 99,157 L 98,157 L 97,156 L 96,156 L 95,155 Z" fill="black" /><path d="M 117,148 L 115,150 L 113,150 L 112,151 L 112,152 L 110,154 L 110,161 L 111,162 L 111,163 L 112,164 L 113,164 L 114,165 L 115,165 L 116,166 L 118,166 L 119,167 L 121,167 L 123,165 L 124,165 L 127,162 L 127,153 L 126,152 L 125,152 L 123,150 L 120,150 L 119,149 L 119,148 Z" fill="black" /><path d="M 240,136 L 238,138 L 236,138 L 234,140 L 234,144 L 233,145 L 233,146 L 234,147 L 234,150 L 235,150 L 236,151 L 237,151 L 238,152 L 238,154 L 243,154 L 244,153 L 247,153 L 249,151 L 249,150 L 250,149 L 250,148 L 251,147 L 251,142 L 246,137 L 242,137 L 241,136 Z" fill="black" /><path d="M 139,134 L 138,135 L 136,135 L 135,136 L 134,136 L 130,140 L 130,145 L 131,146 L 131,147 L 132,148 L 132,149 L 133,149 L 135,151 L 136,151 L 138,153 L 140,153 L 141,152 L 142,152 L 143,151 L 144,151 L 146,149 L 146,148 L 147,147 L 147,146 L 148,145 L 148,141 L 147,140 L 147,138 L 145,136 L 144,136 L 143,135 L 142,135 L 141,134 Z" fill="black" /><path d="M 143,110 L 142,111 L 141,111 L 140,112 L 140,114 L 138,116 L 138,119 L 139,120 L 139,121 L 140,122 L 140,123 L 142,125 L 145,125 L 146,126 L 149,126 L 150,125 L 153,125 L 154,124 L 154,123 L 155,122 L 155,114 L 151,110 Z" fill="black" /><path d="M 239,108 L 238,109 L 238,110 L 236,112 L 234,112 L 233,113 L 233,119 L 236,122 L 236,123 L 237,124 L 238,124 L 239,125 L 241,125 L 242,124 L 246,124 L 247,123 L 248,123 L 249,122 L 249,121 L 250,120 L 250,119 L 251,118 L 251,114 L 249,112 L 249,111 L 247,109 L 246,109 L 245,108 Z" fill="black" /><path d="M 97,96 L 96,97 L 94,97 L 92,99 L 92,103 L 93,104 L 93,129 L 127,129 L 127,127 L 126,126 L 126,115 L 125,114 L 125,103 L 126,102 L 126,97 L 106,97 L 105,98 L 103,98 L 102,97 L 100,97 L 99,96 Z" fill="black" /><path d="M 234,88 L 233,89 L 232,89 L 231,90 L 230,90 L 228,92 L 228,93 L 227,94 L 227,95 L 226,96 L 226,99 L 227,100 L 227,102 L 228,103 L 231,103 L 232,104 L 232,105 L 240,105 L 242,103 L 242,102 L 244,100 L 244,94 L 243,93 L 243,91 L 242,90 L 240,90 L 239,89 L 238,89 L 237,88 Z" fill="black" /><path d="M 138,82 L 136,84 L 136,85 L 134,87 L 134,89 L 133,90 L 133,92 L 134,93 L 134,95 L 136,97 L 137,97 L 140,100 L 148,100 L 151,97 L 151,96 L 152,95 L 152,94 L 153,93 L 153,91 L 151,89 L 151,87 L 146,82 Z" fill="black" /><path d="M 122,70 L 121,71 L 120,71 L 119,72 L 118,72 L 116,74 L 116,77 L 115,78 L 115,80 L 117,82 L 117,84 L 118,85 L 119,85 L 121,87 L 128,87 L 129,86 L 129,85 L 131,83 L 131,82 L 132,81 L 132,75 L 131,74 L 131,73 L 130,72 L 129,72 L 128,71 L 126,71 L 125,70 Z" fill="black" /><path d="M 215,68 L 214,69 L 213,69 L 212,70 L 212,72 L 210,74 L 210,80 L 212,82 L 212,83 L 213,83 L 214,84 L 215,84 L 216,85 L 221,85 L 222,84 L 223,84 L 224,83 L 225,83 L 227,81 L 227,79 L 228,78 L 228,76 L 227,75 L 227,72 L 225,70 L 225,69 L 224,68 Z" fill="black" /><path d="M 96,62 L 95,63 L 94,63 L 92,65 L 92,67 L 91,68 L 91,74 L 96,79 L 102,79 L 104,77 L 106,77 L 107,76 L 107,74 L 108,73 L 108,68 L 107,67 L 107,66 L 105,64 L 104,64 L 102,62 Z" fill="black" /><path d="M 74,50 L 72,52 L 71,52 L 70,53 L 70,61 L 71,62 L 71,63 L 73,65 L 74,65 L 75,66 L 77,66 L 78,67 L 81,67 L 83,65 L 84,65 L 85,64 L 85,62 L 86,61 L 87,61 L 87,55 L 85,53 L 85,52 L 83,50 Z" fill="black" /><path d="M 198,48 L 197,49 L 195,49 L 194,50 L 194,52 L 193,53 L 193,55 L 192,56 L 193,57 L 193,60 L 198,65 L 205,65 L 207,63 L 208,63 L 209,62 L 209,60 L 211,58 L 211,55 L 209,53 L 209,52 L 208,51 L 208,50 L 206,48 Z" fill="black" /><path d="M 92,34 L 90,36 L 89,36 L 88,37 L 88,41 L 87,42 L 87,43 L 88,44 L 88,45 L 90,47 L 90,48 L 91,49 L 94,49 L 96,51 L 98,51 L 99,50 L 101,50 L 102,49 L 102,48 L 105,45 L 105,41 L 104,40 L 104,39 L 99,34 Z" fill="black" /><path d="M 178,31 L 177,32 L 174,32 L 173,33 L 171,33 L 170,34 L 170,35 L 169,36 L 169,40 L 168,41 L 168,43 L 170,45 L 170,47 L 171,47 L 173,49 L 180,49 L 181,48 L 182,48 L 185,45 L 185,42 L 186,41 L 186,38 L 185,37 L 185,36 L 181,32 L 180,32 L 179,31 Z" fill="black" /><path d="M 147,21 L 145,23 L 143,23 L 142,24 L 142,26 L 140,28 L 140,33 L 142,35 L 142,37 L 143,37 L 144,38 L 145,38 L 146,39 L 151,39 L 153,37 L 154,37 L 157,34 L 157,30 L 158,29 L 158,27 L 155,24 L 154,24 L 152,22 L 151,22 L 150,21 Z" fill="black" /><path d="M 117,20 L 114,23 L 114,26 L 113,27 L 113,29 L 114,30 L 114,32 L 118,36 L 121,36 L 122,37 L 124,37 L 126,35 L 127,35 L 128,34 L 128,33 L 129,32 L 129,23 L 127,21 L 125,21 L 124,20 Z" fill="black" /></svg>