<?xml version='1.0' encoding='utf-8'?>
<svg width="260" height="217" xmlns="http://www.w3.org/2000/svg" viewBox="0 0 260 217"><rect width="260" height="217" fill="white" /><path d="M 108,52 L 108,54 L 107,55 L 107,56 L 106,57 L 106,58 L 105,59 L 105,60 L 104,61 L 104,64 L 102,66 L 102,68 L 101,69 L 101,70 L 100,71 L 100,74 L 98,76 L 98,78 L 97,79 L 97,80 L 96,81 L 96,84 L 95,85 L 94,85 L 94,88 L 93,89 L 93,90 L 92,91 L 92,93 L 91,94 L 91,96 L 90,97 L 90,99 L 88,101 L 88,104 L 86,106 L 86,108 L 85,109 L 85,110 L 84,111 L 84,113 L 83,114 L 83,115 L 82,116 L 82,118 L 80,120 L 80,123 L 78,125 L 78,128 L 77,129 L 77,130 L 76,131 L 76,132 L 75,133 L 75,134 L 74,135 L 74,136 L 73,137 L 73,138 L 72,139 L 72,142 L 71,143 L 71,144 L 70,145 L 70,148 L 71,149 L 76,149 L 77,148 L 91,148 L 92,147 L 96,147 L 97,146 L 114,146 L 115,145 L 120,145 L 121,144 L 133,144 L 134,143 L 143,143 L 144,142 L 156,142 L 157,141 L 165,141 L 166,140 L 184,140 L 185,139 L 188,139 L 189,138 L 190,138 L 190,136 L 184,130 L 184,129 L 181,126 L 181,125 L 180,125 L 177,122 L 177,121 L 169,113 L 169,112 L 168,111 L 166,111 L 165,110 L 165,109 L 155,99 L 155,98 L 153,96 L 153,95 L 152,95 L 145,88 L 145,87 L 132,74 L 132,73 L 131,73 L 129,71 L 129,70 L 128,69 L 127,69 L 125,67 L 125,66 L 113,54 L 113,53 L 112,52 Z" fill="black" /><path d="M 0,0 L 0,216 L 259,216 L 259,0 Z" fill="none" stroke="black" stroke-width="1" /></svg>