<?xml version='1.0' encoding='utf-8'?>
<svg width="257" height="218" xmlns="http://www.w3.org/2000/svg" viewBox="0 0 257 218"><rect width="257" height="218" fill="white" /><path d="M 138,121 L 137,122 L 137,124 L 138,125 L 138,126 L 140,128 L 141,128 L 142,129 L 143,129 L 144,130 L 144,131 L 145,131 L 147,133 L 148,133 L 150,135 L 151,135 L 158,142 L 159,142 L 160,143 L 161,143 L 162,144 L 163,144 L 170,151 L 171,151 L 174,154 L 174,155 L 175,155 L 177,157 L 178,157 L 184,163 L 185,163 L 189,167 L 190,167 L 192,169 L 193,169 L 198,174 L 199,174 L 202,177 L 203,177 L 208,182 L 209,182 L 210,181 L 210,179 L 206,175 L 204,175 L 199,170 L 198,170 L 194,166 L 193,166 L 189,162 L 188,162 L 183,157 L 182,157 L 179,154 L 179,153 L 178,153 L 175,150 L 173,150 L 165,142 L 164,142 L 159,137 L 158,137 L 155,134 L 154,134 L 151,131 L 150,131 L 145,126 L 144,126 L 140,122 L 139,122 Z" fill="black" /><path d="M 212,65 L 211,66 L 209,66 L 207,68 L 202,68 L 201,69 L 198,69 L 197,70 L 195,70 L 194,71 L 190,71 L 189,72 L 183,72 L 181,74 L 177,74 L 175,76 L 169,76 L 167,78 L 161,78 L 160,79 L 159,79 L 158,80 L 153,80 L 152,81 L 151,81 L 150,82 L 144,82 L 142,84 L 138,84 L 137,85 L 135,85 L 134,86 L 130,86 L 129,87 L 126,87 L 125,88 L 124,88 L 123,89 L 123,90 L 125,92 L 126,91 L 128,91 L 130,89 L 134,89 L 135,88 L 137,88 L 138,87 L 142,87 L 144,85 L 149,85 L 150,84 L 151,84 L 152,83 L 158,83 L 159,82 L 160,82 L 161,81 L 166,81 L 168,79 L 175,79 L 176,78 L 177,78 L 178,77 L 180,77 L 181,76 L 182,76 L 183,75 L 190,75 L 191,74 L 194,74 L 195,73 L 199,73 L 200,72 L 201,72 L 202,71 L 207,71 L 209,69 L 213,69 L 213,68 L 214,67 L 214,66 L 213,66 Z" fill="black" /><path d="M 82,29 L 81,30 L 80,30 L 80,34 L 78,36 L 78,37 L 77,38 L 77,41 L 76,42 L 76,45 L 74,47 L 74,49 L 73,50 L 73,51 L 72,52 L 72,56 L 71,57 L 71,58 L 70,59 L 70,61 L 69,62 L 69,64 L 68,65 L 68,67 L 67,68 L 66,68 L 66,71 L 65,72 L 65,74 L 64,75 L 64,77 L 62,79 L 62,83 L 61,84 L 61,85 L 60,86 L 60,88 L 58,90 L 58,93 L 56,95 L 56,99 L 55,100 L 55,101 L 54,102 L 54,104 L 52,106 L 52,110 L 50,112 L 50,115 L 49,116 L 49,117 L 48,118 L 48,120 L 47,121 L 47,122 L 46,123 L 46,125 L 45,126 L 45,127 L 44,128 L 44,132 L 42,134 L 42,139 L 43,139 L 44,140 L 46,138 L 46,135 L 47,134 L 47,132 L 48,131 L 48,130 L 49,129 L 49,126 L 50,125 L 50,124 L 51,123 L 51,121 L 52,120 L 52,116 L 53,115 L 54,115 L 55,114 L 55,108 L 57,106 L 57,104 L 58,103 L 58,102 L 59,101 L 59,100 L 60,99 L 60,98 L 61,97 L 61,92 L 62,91 L 62,88 L 63,87 L 63,85 L 65,83 L 65,81 L 67,79 L 67,74 L 69,72 L 69,71 L 72,68 L 72,67 L 71,66 L 71,65 L 72,64 L 72,63 L 73,62 L 73,61 L 74,60 L 74,58 L 75,57 L 75,56 L 77,54 L 77,48 L 79,46 L 79,44 L 80,43 L 80,41 L 82,39 L 82,35 L 83,34 L 83,30 Z" fill="black" /><path d="M 0,0 L 0,217 L 256,217 L 256,0 Z" fill="none" stroke="black" stroke-width="1" /></svg>