<?xml version='1.0' encoding='utf-8'?>
<svg width="258" height="220" xmlns="http://www.w3.org/2000/svg" viewBox="0 0 258 220"><rect width="258" height="220" fill="white" /><path d="M 206,13 L 204,15 L 203,15 L 198,20 L 198,21 L 195,24 L 194,24 L 190,28 L 190,29 L 178,41 L 178,42 L 176,44 L 175,44 L 174,45 L 174,46 L 172,48 L 171,48 L 167,52 L 166,52 L 166,53 L 163,56 L 162,56 L 160,58 L 160,59 L 158,61 L 158,62 L 157,63 L 156,63 L 155,64 L 155,65 L 154,66 L 153,66 L 145,74 L 144,74 L 142,76 L 142,77 L 139,80 L 139,81 L 138,82 L 137,82 L 136,83 L 136,84 L 133,87 L 132,87 L 130,89 L 130,90 L 124,96 L 124,97 L 123,98 L 122,98 L 120,100 L 120,101 L 119,102 L 117,102 L 116,101 L 114,101 L 113,100 L 112,100 L 109,97 L 108,97 L 104,93 L 103,93 L 100,90 L 100,89 L 99,88 L 98,88 L 94,84 L 92,84 L 90,82 L 88,82 L 87,81 L 87,80 L 86,80 L 84,78 L 83,78 L 81,76 L 81,75 L 80,75 L 79,74 L 78,74 L 77,73 L 77,72 L 75,70 L 73,70 L 71,68 L 71,67 L 70,66 L 69,66 L 68,65 L 68,64 L 66,64 L 62,60 L 60,60 L 57,57 L 57,56 L 56,56 L 54,54 L 52,54 L 50,52 L 49,52 L 47,50 L 47,49 L 46,48 L 45,48 L 42,45 L 41,45 L 39,43 L 39,42 L 38,42 L 36,40 L 35,40 L 33,38 L 32,38 L 31,37 L 31,36 L 30,36 L 27,33 L 26,33 L 23,30 L 21,30 L 20,29 L 17,29 L 17,31 L 22,36 L 23,36 L 24,37 L 24,38 L 25,39 L 26,39 L 28,41 L 29,41 L 31,43 L 32,43 L 34,45 L 35,45 L 38,48 L 39,48 L 40,49 L 41,49 L 42,50 L 42,51 L 44,53 L 45,53 L 47,55 L 48,55 L 52,59 L 53,59 L 57,63 L 58,63 L 60,65 L 61,65 L 62,66 L 62,67 L 63,67 L 64,68 L 65,68 L 70,73 L 71,73 L 72,74 L 73,74 L 76,77 L 77,77 L 83,83 L 84,83 L 86,85 L 87,85 L 89,87 L 90,87 L 92,89 L 93,89 L 95,91 L 97,91 L 98,92 L 98,93 L 99,94 L 100,94 L 102,96 L 102,97 L 104,97 L 110,103 L 111,103 L 113,105 L 115,105 L 116,106 L 116,115 L 117,116 L 117,119 L 118,120 L 118,129 L 119,130 L 119,133 L 120,134 L 120,143 L 121,144 L 121,146 L 122,147 L 122,156 L 124,158 L 124,172 L 125,173 L 125,178 L 126,179 L 126,186 L 127,187 L 127,191 L 128,192 L 128,195 L 129,196 L 130,196 L 131,195 L 131,185 L 129,183 L 130,182 L 130,180 L 129,179 L 129,178 L 130,177 L 130,176 L 129,175 L 129,170 L 128,169 L 128,162 L 127,161 L 127,152 L 125,150 L 125,143 L 124,142 L 124,138 L 123,137 L 123,128 L 122,127 L 122,124 L 121,123 L 121,112 L 120,111 L 120,105 L 122,103 L 123,103 L 124,102 L 125,102 L 125,100 L 126,99 L 127,99 L 129,97 L 129,96 L 132,93 L 133,93 L 133,92 L 140,85 L 141,85 L 143,83 L 143,82 L 144,81 L 145,81 L 145,80 L 146,79 L 147,79 L 147,78 L 150,75 L 151,75 L 151,74 L 155,70 L 155,69 L 156,68 L 157,68 L 157,67 L 161,63 L 162,63 L 167,58 L 167,57 L 168,56 L 169,56 L 172,53 L 172,52 L 178,46 L 179,46 L 180,45 L 181,45 L 181,44 L 189,36 L 189,35 L 192,32 L 193,32 L 195,30 L 195,29 L 208,16 L 208,15 L 209,14 L 208,13 Z" fill="black" /><path d="M 0,0 L 0,219 L 257,219 L 257,0 Z" fill="none" stroke="black" stroke-width="1" /></svg>