<?xml version='1.0' encoding='utf-8'?>
<svg width="256" height="221" xmlns="http://www.w3.org/2000/svg" viewBox="0 0 256 221"><rect width="256" height="221" fill="white" /><path d="M 118,30 L 118,31 L 117,32 L 117,33 L 115,35 L 115,39 L 113,41 L 113,43 L 112,44 L 112,46 L 111,47 L 111,48 L 110,49 L 110,50 L 109,51 L 109,54 L 108,55 L 108,56 L 107,57 L 107,60 L 106,61 L 106,62 L 105,63 L 105,66 L 104,67 L 104,69 L 103,70 L 103,72 L 102,73 L 23,73 L 22,74 L 22,75 L 24,77 L 28,77 L 29,76 L 30,76 L 31,77 L 32,77 L 33,76 L 35,76 L 36,77 L 37,77 L 38,76 L 42,76 L 43,77 L 44,77 L 45,76 L 46,76 L 47,77 L 48,77 L 49,76 L 54,76 L 55,77 L 72,77 L 73,78 L 74,77 L 96,77 L 97,76 L 99,76 L 100,77 L 100,79 L 99,80 L 99,83 L 98,84 L 98,85 L 97,86 L 97,88 L 96,89 L 96,90 L 95,91 L 95,92 L 94,93 L 94,97 L 93,98 L 93,100 L 91,102 L 91,104 L 89,106 L 89,110 L 86,113 L 50,113 L 49,112 L 48,113 L 45,113 L 44,112 L 36,112 L 35,113 L 31,113 L 31,116 L 32,116 L 33,117 L 36,117 L 37,116 L 40,116 L 41,117 L 48,117 L 49,116 L 62,116 L 63,117 L 67,117 L 68,116 L 69,116 L 70,117 L 74,117 L 75,116 L 76,116 L 77,117 L 78,117 L 79,116 L 83,116 L 86,119 L 86,120 L 85,121 L 85,122 L 84,123 L 84,126 L 83,127 L 83,129 L 81,131 L 81,133 L 80,134 L 80,136 L 79,137 L 79,138 L 78,139 L 78,140 L 77,141 L 77,143 L 76,144 L 76,146 L 77,147 L 75,149 L 75,150 L 73,152 L 73,155 L 71,157 L 71,160 L 70,161 L 45,161 L 44,162 L 38,162 L 37,163 L 34,163 L 33,162 L 31,162 L 30,163 L 30,164 L 31,165 L 33,165 L 34,166 L 42,166 L 43,165 L 52,165 L 53,164 L 64,164 L 65,163 L 68,163 L 69,164 L 69,168 L 67,170 L 67,172 L 66,173 L 66,175 L 65,176 L 65,178 L 64,179 L 64,180 L 63,181 L 63,187 L 62,188 L 62,190 L 63,191 L 63,192 L 64,193 L 66,191 L 66,187 L 67,186 L 67,185 L 68,184 L 68,181 L 69,180 L 69,179 L 70,178 L 70,175 L 71,174 L 71,173 L 72,172 L 72,171 L 73,170 L 73,168 L 74,167 L 74,164 L 75,163 L 84,163 L 85,162 L 104,162 L 105,161 L 114,161 L 115,160 L 134,160 L 135,159 L 139,159 L 140,158 L 156,158 L 157,159 L 157,162 L 158,163 L 158,164 L 159,165 L 159,169 L 161,171 L 161,175 L 162,176 L 162,177 L 163,178 L 163,183 L 165,185 L 165,187 L 166,188 L 168,188 L 169,187 L 169,184 L 168,183 L 168,179 L 167,178 L 167,177 L 166,176 L 166,173 L 165,172 L 165,171 L 164,170 L 164,167 L 163,166 L 163,164 L 162,163 L 162,161 L 161,160 L 161,159 L 162,158 L 163,158 L 164,157 L 170,157 L 171,156 L 175,156 L 176,157 L 177,156 L 194,156 L 195,155 L 201,155 L 202,154 L 217,154 L 218,153 L 226,153 L 227,152 L 227,150 L 226,149 L 223,149 L 222,150 L 210,150 L 209,151 L 188,151 L 187,152 L 186,152 L 185,153 L 183,153 L 182,152 L 181,152 L 180,153 L 167,153 L 166,154 L 161,154 L 158,151 L 158,147 L 157,146 L 157,145 L 156,144 L 156,141 L 155,140 L 155,139 L 154,138 L 154,133 L 153,132 L 153,131 L 152,130 L 152,126 L 151,125 L 151,124 L 149,122 L 149,119 L 150,118 L 150,117 L 151,116 L 218,116 L 218,114 L 217,113 L 213,113 L 212,112 L 199,112 L 198,113 L 185,113 L 184,112 L 181,112 L 180,113 L 167,113 L 166,112 L 165,112 L 164,113 L 147,113 L 146,112 L 146,110 L 145,109 L 145,107 L 144,106 L 144,103 L 143,102 L 143,100 L 142,99 L 142,96 L 141,95 L 141,92 L 140,91 L 140,89 L 139,88 L 139,85 L 138,84 L 138,83 L 136,81 L 136,79 L 137,78 L 138,78 L 139,77 L 144,77 L 145,78 L 146,78 L 146,77 L 147,76 L 148,76 L 150,78 L 152,78 L 153,77 L 154,78 L 159,78 L 160,77 L 163,77 L 164,78 L 165,77 L 168,77 L 169,78 L 176,78 L 177,77 L 180,77 L 181,78 L 207,78 L 208,77 L 208,75 L 207,74 L 203,74 L 202,75 L 199,75 L 198,74 L 197,74 L 196,75 L 194,75 L 193,74 L 192,75 L 189,75 L 188,74 L 159,74 L 158,73 L 149,73 L 148,74 L 147,74 L 146,73 L 134,73 L 133,72 L 133,70 L 132,69 L 132,64 L 131,63 L 131,61 L 130,60 L 130,55 L 128,53 L 128,48 L 126,46 L 126,42 L 125,41 L 125,40 L 124,39 L 124,35 L 123,35 L 122,34 L 122,31 L 121,30 Z" fill="black" /><path d="M 0,0 L 0,220 L 255,220 L 255,0 Z" fill="none" stroke="black" stroke-width="1" /></svg>