<?xml version='1.0' encoding='utf-8'?>
<svg width="254" height="218" xmlns="http://www.w3.org/2000/svg" viewBox="0 0 254 218"><rect width="254" height="218" fill="white" /><path d="M 101,38 L 100,39 L 100,40 L 96,44 L 96,45 L 94,47 L 94,48 L 93,49 L 92,49 L 92,50 L 91,51 L 90,51 L 90,52 L 85,57 L 85,58 L 82,61 L 82,62 L 81,63 L 80,63 L 80,64 L 71,73 L 71,74 L 68,77 L 68,78 L 67,79 L 66,79 L 66,80 L 60,86 L 60,87 L 54,93 L 54,94 L 53,95 L 52,95 L 52,98 L 50,100 L 50,103 L 52,105 L 52,107 L 54,109 L 54,110 L 55,110 L 56,111 L 56,112 L 57,112 L 58,113 L 58,114 L 60,116 L 60,117 L 62,119 L 62,120 L 63,120 L 64,121 L 64,122 L 66,124 L 66,125 L 68,127 L 68,128 L 69,128 L 70,129 L 70,130 L 71,130 L 72,131 L 72,132 L 74,134 L 74,135 L 76,137 L 76,138 L 77,138 L 78,139 L 78,140 L 79,141 L 79,142 L 82,145 L 82,146 L 85,149 L 85,150 L 86,151 L 86,152 L 87,152 L 88,153 L 88,154 L 90,156 L 90,157 L 94,161 L 94,162 L 95,162 L 96,163 L 96,164 L 97,165 L 98,165 L 99,166 L 103,166 L 104,165 L 105,165 L 106,164 L 114,164 L 115,163 L 119,163 L 120,162 L 128,162 L 129,161 L 133,161 L 134,160 L 145,160 L 146,159 L 149,159 L 150,158 L 157,158 L 158,157 L 161,157 L 164,154 L 164,153 L 166,151 L 166,149 L 165,148 L 165,146 L 166,145 L 166,144 L 167,143 L 167,136 L 169,134 L 169,123 L 171,121 L 171,115 L 172,114 L 172,112 L 173,111 L 173,104 L 174,103 L 174,102 L 175,101 L 175,93 L 176,92 L 177,92 L 177,84 L 179,82 L 179,77 L 178,76 L 176,76 L 175,75 L 172,75 L 171,74 L 171,73 L 168,73 L 167,72 L 167,71 L 165,69 L 163,69 L 161,67 L 158,67 L 156,65 L 154,65 L 153,64 L 153,63 L 150,63 L 148,61 L 147,61 L 145,59 L 143,59 L 142,58 L 141,58 L 140,57 L 138,57 L 136,55 L 134,55 L 132,53 L 130,53 L 128,51 L 126,51 L 125,50 L 125,49 L 124,49 L 123,48 L 122,48 L 121,47 L 119,47 L 117,45 L 116,45 L 115,44 L 112,44 L 111,43 L 111,42 L 110,41 L 108,41 L 106,39 L 105,39 L 104,38 Z" fill="black" /></svg>