<?xml version='1.0' encoding='utf-8'?>
<svg width="253" height="220" xmlns="http://www.w3.org/2000/svg" viewBox="0 0 253 220"><rect width="253" height="220" fill="white" /><path d="M 124,13 L 124,27 L 125,28 L 125,29 L 124,30 L 124,34 L 125,35 L 125,48 L 126,49 L 126,52 L 125,53 L 126,54 L 126,62 L 127,63 L 127,65 L 126,66 L 126,71 L 127,72 L 127,80 L 128,81 L 128,91 L 127,92 L 124,92 L 123,91 L 123,90 L 122,90 L 121,89 L 121,88 L 120,88 L 119,87 L 119,86 L 118,86 L 117,85 L 117,84 L 116,84 L 115,83 L 115,82 L 114,82 L 113,81 L 113,80 L 112,80 L 111,79 L 111,78 L 110,78 L 109,77 L 109,76 L 108,76 L 104,72 L 103,72 L 102,71 L 102,70 L 97,65 L 96,65 L 79,48 L 78,48 L 77,47 L 77,46 L 76,46 L 75,45 L 75,44 L 74,44 L 73,43 L 73,42 L 72,42 L 71,41 L 71,40 L 70,40 L 65,35 L 65,34 L 64,34 L 55,25 L 51,25 L 51,28 L 54,31 L 55,31 L 56,32 L 56,33 L 57,33 L 58,34 L 58,35 L 59,35 L 60,36 L 60,37 L 61,37 L 62,38 L 62,39 L 63,39 L 64,40 L 64,41 L 65,41 L 66,42 L 66,43 L 67,43 L 70,46 L 70,47 L 71,47 L 76,52 L 76,53 L 77,53 L 82,58 L 83,58 L 84,59 L 84,60 L 85,61 L 86,61 L 89,64 L 89,65 L 95,71 L 96,71 L 100,75 L 101,75 L 102,76 L 102,77 L 103,77 L 104,78 L 104,79 L 105,79 L 106,80 L 106,81 L 108,83 L 109,83 L 110,84 L 110,85 L 111,85 L 112,86 L 112,87 L 113,87 L 114,88 L 114,89 L 116,91 L 117,91 L 118,92 L 118,93 L 119,93 L 122,96 L 122,97 L 123,97 L 126,100 L 126,101 L 128,103 L 128,121 L 129,122 L 129,131 L 130,132 L 130,154 L 131,155 L 130,156 L 130,158 L 131,159 L 131,175 L 132,176 L 132,196 L 133,197 L 133,198 L 134,198 L 135,199 L 136,198 L 137,198 L 137,170 L 136,170 L 135,169 L 136,168 L 136,167 L 137,166 L 136,165 L 136,160 L 135,159 L 135,135 L 134,134 L 134,121 L 133,120 L 133,107 L 138,102 L 139,102 L 140,101 L 141,101 L 143,99 L 145,99 L 147,97 L 149,97 L 150,96 L 152,96 L 153,95 L 156,95 L 158,93 L 161,93 L 163,91 L 166,91 L 167,90 L 168,90 L 169,89 L 171,89 L 172,88 L 173,88 L 174,87 L 177,87 L 179,85 L 183,85 L 185,83 L 187,83 L 188,82 L 189,82 L 190,81 L 192,81 L 194,79 L 197,79 L 198,78 L 199,78 L 200,77 L 202,77 L 204,75 L 208,75 L 209,74 L 210,74 L 211,73 L 213,73 L 214,72 L 215,72 L 216,71 L 217,71 L 218,70 L 221,70 L 222,69 L 223,69 L 224,68 L 226,68 L 226,65 L 225,64 L 223,64 L 222,65 L 221,65 L 220,66 L 217,66 L 215,68 L 212,68 L 211,69 L 209,69 L 208,70 L 206,70 L 205,71 L 204,71 L 203,72 L 201,72 L 199,74 L 198,74 L 197,75 L 196,75 L 195,76 L 192,76 L 190,78 L 187,78 L 186,79 L 185,79 L 184,80 L 181,80 L 179,82 L 176,82 L 176,83 L 175,84 L 171,84 L 169,86 L 165,86 L 163,88 L 160,88 L 158,90 L 156,90 L 155,91 L 154,91 L 153,92 L 148,92 L 145,95 L 144,95 L 143,96 L 141,94 L 141,92 L 142,91 L 143,91 L 147,87 L 147,86 L 148,85 L 149,85 L 149,84 L 157,76 L 157,75 L 158,74 L 159,74 L 162,71 L 162,70 L 163,69 L 163,68 L 167,64 L 167,63 L 169,61 L 169,60 L 170,59 L 171,59 L 173,57 L 173,56 L 175,54 L 175,53 L 179,49 L 179,48 L 180,47 L 181,47 L 183,45 L 183,44 L 187,40 L 187,39 L 193,33 L 193,31 L 195,29 L 196,29 L 198,27 L 198,26 L 199,25 L 200,25 L 201,24 L 201,23 L 204,20 L 204,17 L 203,16 L 201,16 L 200,17 L 200,18 L 198,20 L 198,21 L 197,22 L 196,22 L 196,23 L 195,24 L 194,24 L 194,25 L 192,27 L 192,29 L 191,30 L 190,30 L 188,32 L 188,33 L 187,34 L 186,34 L 186,35 L 183,38 L 182,38 L 182,39 L 181,40 L 180,40 L 178,42 L 178,44 L 176,46 L 176,47 L 175,48 L 174,48 L 172,50 L 172,51 L 168,55 L 168,56 L 164,60 L 164,61 L 163,62 L 162,62 L 162,63 L 161,64 L 160,64 L 160,65 L 157,68 L 157,69 L 150,76 L 150,77 L 147,80 L 147,81 L 142,86 L 142,87 L 140,89 L 140,90 L 138,92 L 138,93 L 137,94 L 137,95 L 136,96 L 135,96 L 134,97 L 131,94 L 131,66 L 130,65 L 130,59 L 129,58 L 129,55 L 130,54 L 130,52 L 129,51 L 129,50 L 130,49 L 130,48 L 129,47 L 129,24 L 128,23 L 128,22 L 129,21 L 129,18 L 128,17 L 128,14 L 127,13 Z" fill="black" /><path d="M 0,0 L 0,219 L 252,219 L 252,0 Z" fill="none" stroke="black" stroke-width="1" /></svg>