<?xml version='1.0' encoding='utf-8'?>
<svg width="258" height="220" xmlns="http://www.w3.org/2000/svg" viewBox="0 0 258 220"><rect width="258" height="220" fill="white" /><path d="M 117,16 L 116,17 L 115,17 L 115,91 L 116,92 L 116,93 L 115,94 L 115,99 L 116,100 L 116,109 L 115,110 L 116,111 L 116,125 L 115,126 L 115,127 L 116,128 L 116,165 L 117,166 L 117,171 L 116,172 L 116,177 L 115,178 L 115,180 L 116,181 L 116,184 L 117,185 L 117,186 L 116,187 L 116,189 L 117,190 L 117,194 L 118,194 L 120,192 L 120,128 L 119,127 L 119,126 L 120,125 L 120,123 L 119,122 L 119,118 L 120,117 L 120,114 L 123,111 L 124,111 L 124,110 L 125,109 L 126,109 L 126,108 L 127,107 L 128,107 L 128,106 L 129,105 L 130,105 L 130,104 L 131,103 L 132,103 L 132,102 L 133,101 L 134,101 L 134,100 L 135,99 L 136,99 L 136,98 L 140,94 L 140,93 L 141,92 L 142,92 L 144,90 L 144,89 L 146,87 L 147,87 L 147,86 L 152,81 L 153,81 L 154,80 L 154,79 L 155,78 L 156,78 L 158,76 L 158,75 L 163,70 L 164,70 L 164,69 L 174,59 L 174,58 L 175,57 L 176,57 L 180,53 L 180,52 L 181,51 L 182,51 L 184,49 L 184,48 L 185,47 L 186,47 L 188,45 L 188,44 L 191,41 L 192,41 L 192,40 L 195,37 L 195,35 L 194,34 L 193,35 L 192,35 L 179,48 L 179,49 L 178,50 L 177,50 L 173,54 L 173,55 L 172,56 L 171,56 L 169,58 L 169,59 L 168,60 L 167,60 L 167,61 L 160,68 L 159,68 L 157,70 L 157,71 L 156,72 L 155,72 L 153,74 L 153,75 L 152,76 L 151,76 L 151,77 L 148,80 L 147,80 L 145,82 L 145,83 L 140,88 L 139,88 L 139,89 L 138,90 L 137,90 L 137,91 L 136,92 L 135,92 L 135,93 L 132,96 L 131,96 L 131,97 L 130,98 L 129,98 L 129,99 L 128,100 L 127,100 L 127,101 L 123,105 L 122,105 L 121,106 L 120,105 L 120,103 L 119,102 L 119,100 L 120,99 L 120,98 L 119,97 L 119,86 L 120,85 L 120,80 L 119,79 L 119,74 L 120,73 L 120,72 L 119,71 L 119,66 L 120,65 L 120,63 L 119,62 L 119,21 L 118,20 L 118,17 Z" fill="black" /><path d="M 0,0 L 0,219 L 257,219 L 257,0 Z" fill="none" stroke="black" stroke-width="1" /></svg>