<?xml version='1.0' encoding='utf-8'?>
<svg width="256" height="221" xmlns="http://www.w3.org/2000/svg" viewBox="0 0 256 221"><rect width="256" height="221" fill="white" /><path d="M 33,30 L 32,31 L 32,34 L 36,38 L 36,39 L 37,39 L 38,40 L 38,41 L 39,41 L 41,43 L 42,43 L 43,44 L 43,45 L 44,45 L 45,46 L 45,47 L 46,47 L 48,49 L 48,50 L 54,56 L 54,57 L 55,57 L 56,58 L 56,59 L 57,59 L 58,60 L 58,61 L 59,61 L 62,64 L 62,65 L 63,65 L 64,66 L 64,67 L 65,67 L 68,70 L 68,71 L 69,71 L 70,72 L 70,73 L 71,73 L 72,74 L 72,75 L 73,75 L 74,76 L 74,77 L 75,77 L 76,78 L 76,79 L 77,79 L 78,80 L 78,81 L 79,81 L 84,86 L 84,87 L 86,89 L 87,89 L 90,92 L 90,93 L 93,96 L 93,97 L 94,97 L 98,101 L 99,101 L 100,102 L 100,105 L 97,108 L 97,109 L 96,110 L 94,110 L 94,111 L 93,112 L 93,113 L 92,114 L 92,115 L 91,116 L 90,116 L 90,117 L 89,118 L 88,118 L 88,119 L 87,120 L 86,120 L 86,121 L 85,122 L 84,122 L 84,123 L 83,124 L 82,124 L 82,125 L 81,126 L 80,126 L 80,127 L 79,128 L 78,128 L 78,129 L 77,130 L 76,130 L 76,131 L 70,137 L 70,138 L 68,140 L 68,141 L 65,144 L 64,144 L 62,146 L 62,148 L 60,150 L 59,150 L 59,151 L 55,155 L 54,155 L 54,156 L 52,158 L 52,159 L 49,162 L 48,162 L 48,163 L 47,164 L 47,165 L 46,166 L 46,167 L 45,168 L 44,168 L 43,169 L 40,166 L 40,162 L 41,161 L 41,159 L 40,158 L 40,156 L 41,155 L 41,153 L 40,152 L 40,140 L 39,139 L 41,137 L 41,132 L 40,131 L 40,123 L 39,122 L 39,119 L 40,118 L 39,117 L 39,115 L 40,114 L 40,110 L 41,109 L 45,109 L 46,108 L 49,108 L 50,107 L 53,107 L 54,106 L 57,106 L 58,105 L 63,105 L 64,104 L 64,103 L 62,101 L 60,101 L 59,102 L 53,102 L 52,103 L 50,103 L 49,104 L 39,104 L 38,105 L 34,105 L 33,106 L 33,110 L 34,111 L 34,129 L 35,130 L 34,131 L 34,135 L 35,136 L 35,159 L 36,160 L 36,166 L 35,167 L 36,168 L 36,171 L 35,172 L 36,173 L 36,181 L 37,182 L 38,181 L 39,181 L 45,175 L 45,174 L 48,171 L 49,171 L 49,170 L 52,167 L 53,167 L 53,166 L 55,164 L 55,163 L 61,157 L 61,156 L 62,155 L 63,155 L 63,154 L 68,149 L 69,149 L 69,148 L 70,147 L 70,146 L 75,141 L 75,140 L 80,135 L 80,134 L 81,133 L 82,133 L 87,128 L 87,126 L 97,116 L 97,115 L 98,114 L 98,113 L 99,112 L 101,112 L 102,113 L 102,116 L 103,117 L 103,119 L 102,120 L 102,123 L 103,124 L 103,128 L 102,129 L 102,139 L 103,140 L 103,142 L 102,143 L 103,144 L 103,146 L 102,147 L 102,158 L 103,159 L 103,161 L 102,162 L 102,171 L 103,172 L 103,183 L 104,184 L 104,187 L 108,187 L 109,188 L 110,188 L 111,189 L 113,189 L 115,191 L 117,191 L 118,192 L 119,192 L 120,193 L 122,193 L 124,195 L 125,195 L 127,197 L 129,197 L 131,199 L 133,199 L 135,201 L 138,201 L 140,203 L 141,203 L 142,204 L 143,204 L 144,205 L 145,205 L 146,206 L 147,206 L 148,207 L 149,207 L 150,208 L 151,208 L 152,209 L 155,209 L 157,211 L 158,211 L 159,212 L 161,212 L 162,211 L 164,211 L 166,209 L 168,209 L 170,207 L 173,207 L 175,205 L 177,205 L 179,203 L 181,203 L 183,201 L 185,201 L 186,200 L 187,200 L 188,199 L 189,199 L 190,198 L 191,198 L 192,197 L 194,197 L 196,195 L 198,195 L 200,193 L 202,193 L 204,191 L 207,191 L 209,189 L 211,189 L 213,187 L 215,187 L 216,186 L 217,186 L 218,185 L 219,185 L 221,183 L 224,183 L 225,182 L 225,180 L 224,179 L 221,179 L 220,180 L 217,180 L 215,182 L 214,182 L 212,184 L 208,184 L 208,185 L 207,186 L 205,186 L 204,187 L 203,187 L 202,188 L 201,188 L 199,190 L 196,190 L 195,191 L 194,191 L 193,192 L 192,192 L 191,193 L 190,193 L 189,194 L 188,194 L 187,195 L 186,195 L 185,196 L 184,196 L 182,198 L 180,198 L 178,200 L 176,200 L 175,201 L 174,201 L 173,202 L 171,202 L 170,203 L 169,203 L 168,204 L 166,204 L 164,206 L 162,206 L 161,207 L 159,207 L 158,206 L 156,206 L 155,205 L 154,205 L 153,204 L 152,204 L 150,202 L 149,202 L 148,201 L 147,201 L 146,200 L 143,200 L 141,198 L 140,198 L 139,197 L 138,197 L 137,196 L 136,196 L 134,194 L 132,194 L 131,193 L 130,193 L 129,192 L 128,192 L 127,191 L 126,191 L 125,190 L 122,190 L 120,188 L 119,188 L 117,186 L 114,186 L 109,181 L 109,180 L 107,178 L 107,177 L 108,176 L 108,172 L 107,171 L 107,165 L 108,164 L 108,160 L 107,159 L 107,116 L 108,115 L 109,115 L 110,114 L 111,115 L 112,115 L 113,116 L 113,117 L 114,118 L 114,119 L 115,119 L 116,120 L 116,121 L 118,123 L 119,123 L 120,124 L 120,125 L 121,125 L 124,128 L 124,129 L 126,131 L 127,131 L 128,132 L 128,133 L 129,133 L 130,134 L 130,135 L 131,135 L 132,136 L 132,137 L 134,139 L 134,140 L 135,141 L 137,141 L 138,142 L 138,143 L 142,147 L 143,147 L 146,150 L 146,151 L 157,162 L 157,163 L 160,166 L 161,166 L 166,171 L 167,171 L 170,174 L 171,174 L 172,175 L 174,175 L 176,173 L 176,172 L 177,171 L 177,170 L 178,169 L 178,168 L 179,167 L 179,162 L 180,161 L 181,161 L 181,158 L 182,157 L 183,157 L 183,154 L 184,153 L 184,151 L 185,150 L 185,148 L 186,147 L 186,146 L 187,145 L 187,142 L 189,140 L 189,138 L 190,137 L 190,136 L 191,135 L 191,133 L 193,131 L 193,126 L 194,125 L 194,124 L 195,123 L 195,122 L 197,120 L 197,118 L 198,117 L 198,116 L 199,115 L 199,112 L 201,110 L 201,109 L 203,107 L 203,104 L 204,103 L 204,102 L 203,101 L 203,99 L 201,99 L 198,102 L 198,105 L 197,106 L 197,107 L 196,108 L 196,109 L 195,110 L 195,111 L 194,112 L 194,115 L 193,116 L 193,117 L 192,118 L 192,119 L 190,121 L 190,124 L 188,126 L 188,129 L 187,130 L 187,131 L 186,132 L 186,135 L 184,137 L 184,139 L 183,140 L 183,141 L 182,142 L 182,145 L 181,146 L 181,147 L 180,148 L 180,150 L 179,151 L 179,153 L 178,154 L 178,155 L 176,157 L 176,161 L 175,162 L 175,163 L 174,164 L 174,166 L 173,167 L 172,167 L 171,168 L 167,164 L 166,164 L 161,159 L 161,158 L 159,156 L 158,156 L 155,153 L 155,152 L 149,146 L 148,146 L 147,145 L 147,144 L 145,142 L 144,142 L 143,141 L 143,140 L 131,128 L 130,128 L 129,127 L 129,126 L 115,112 L 115,111 L 113,109 L 112,109 L 111,108 L 111,107 L 109,105 L 109,101 L 111,99 L 111,98 L 112,97 L 113,97 L 113,96 L 114,95 L 115,95 L 115,94 L 118,91 L 119,91 L 119,90 L 121,88 L 121,87 L 127,81 L 127,80 L 128,79 L 129,79 L 129,78 L 130,77 L 131,77 L 131,76 L 132,75 L 133,75 L 133,74 L 139,68 L 139,67 L 145,61 L 145,60 L 146,59 L 147,59 L 149,57 L 149,55 L 157,47 L 157,46 L 158,45 L 159,45 L 159,44 L 160,43 L 161,43 L 161,42 L 165,38 L 167,38 L 168,37 L 192,37 L 193,36 L 201,36 L 202,37 L 203,37 L 204,36 L 211,36 L 213,34 L 212,33 L 212,32 L 211,32 L 210,31 L 202,31 L 201,32 L 200,32 L 199,31 L 196,31 L 195,32 L 178,32 L 176,34 L 174,32 L 166,32 L 165,33 L 162,33 L 161,34 L 160,34 L 158,36 L 158,37 L 155,40 L 154,40 L 154,41 L 152,43 L 152,44 L 146,50 L 146,51 L 145,52 L 144,52 L 144,53 L 143,54 L 142,54 L 142,55 L 139,58 L 139,59 L 137,61 L 136,61 L 136,62 L 134,64 L 134,65 L 131,68 L 130,68 L 128,70 L 128,72 L 122,78 L 122,79 L 121,80 L 120,80 L 120,81 L 114,87 L 114,88 L 110,92 L 110,93 L 109,94 L 108,94 L 108,95 L 104,99 L 102,99 L 101,98 L 101,97 L 99,95 L 99,94 L 98,94 L 97,93 L 97,92 L 96,92 L 91,87 L 91,86 L 90,86 L 87,83 L 87,82 L 86,82 L 85,81 L 85,80 L 84,80 L 83,79 L 83,78 L 82,78 L 81,77 L 81,76 L 80,76 L 79,75 L 79,74 L 78,74 L 77,73 L 77,72 L 76,72 L 75,71 L 75,70 L 73,68 L 72,68 L 69,65 L 69,64 L 67,62 L 66,62 L 65,61 L 65,60 L 63,58 L 62,58 L 59,55 L 59,54 L 52,47 L 52,46 L 50,44 L 49,44 L 45,40 L 45,39 L 42,36 L 41,36 L 38,33 L 38,32 L 36,30 Z" fill="black" /><path d="M 0,0 L 0,220 L 255,220 L 255,0 Z" fill="none" stroke="black" stroke-width="1" /></svg>