<?xml version='1.0' encoding='utf-8'?>
<svg width="258" height="217" xmlns="http://www.w3.org/2000/svg" viewBox="0 0 258 217"><rect width="258" height="217" fill="white" /><path d="M 205,14 L 202,17 L 200,17 L 199,18 L 196,18 L 195,19 L 194,19 L 193,20 L 190,20 L 189,21 L 187,21 L 185,23 L 182,23 L 182,24 L 181,25 L 180,25 L 179,26 L 178,26 L 177,25 L 175,27 L 172,27 L 171,28 L 170,28 L 169,29 L 165,29 L 163,31 L 161,31 L 159,33 L 157,33 L 156,34 L 154,34 L 153,35 L 150,35 L 150,36 L 149,37 L 146,37 L 145,38 L 144,38 L 143,39 L 140,39 L 139,40 L 138,40 L 137,41 L 135,41 L 133,43 L 130,43 L 130,56 L 129,57 L 129,62 L 128,63 L 128,76 L 127,77 L 127,86 L 126,87 L 126,99 L 125,100 L 125,101 L 123,103 L 122,103 L 122,104 L 121,105 L 120,105 L 118,107 L 116,107 L 112,111 L 111,111 L 109,113 L 108,113 L 106,115 L 105,115 L 103,117 L 101,117 L 99,119 L 98,119 L 98,120 L 97,121 L 94,121 L 94,122 L 93,123 L 92,123 L 91,124 L 90,124 L 89,125 L 88,125 L 85,128 L 84,128 L 83,129 L 82,129 L 80,131 L 79,131 L 77,133 L 76,133 L 74,135 L 73,135 L 71,137 L 70,137 L 69,138 L 68,138 L 66,140 L 65,140 L 64,141 L 63,141 L 62,142 L 59,142 L 57,140 L 57,139 L 56,138 L 56,137 L 55,136 L 55,135 L 53,135 L 52,134 L 52,130 L 50,128 L 50,126 L 49,125 L 49,123 L 48,123 L 47,122 L 47,117 L 46,117 L 45,116 L 45,113 L 44,112 L 44,111 L 43,110 L 42,110 L 41,109 L 41,105 L 39,103 L 39,100 L 38,99 L 38,98 L 37,97 L 37,96 L 35,94 L 35,92 L 33,90 L 33,87 L 31,85 L 31,83 L 28,80 L 28,79 L 25,79 L 25,82 L 26,83 L 26,84 L 27,85 L 27,87 L 28,88 L 28,89 L 29,90 L 29,91 L 30,92 L 30,94 L 31,95 L 31,96 L 32,97 L 32,98 L 33,99 L 33,100 L 34,101 L 34,103 L 36,105 L 36,106 L 37,107 L 37,108 L 38,109 L 38,111 L 40,113 L 40,115 L 41,116 L 41,117 L 42,118 L 42,119 L 43,120 L 43,121 L 44,122 L 44,123 L 45,124 L 45,125 L 46,126 L 46,127 L 48,129 L 48,132 L 50,134 L 50,136 L 51,137 L 51,138 L 52,139 L 52,140 L 53,141 L 53,142 L 54,143 L 54,144 L 55,145 L 55,146 L 56,147 L 56,148 L 57,149 L 60,149 L 64,145 L 65,145 L 66,144 L 67,144 L 69,142 L 70,142 L 72,140 L 73,140 L 74,139 L 75,139 L 76,138 L 77,138 L 81,134 L 83,134 L 83,133 L 84,132 L 85,132 L 86,131 L 87,131 L 88,130 L 90,130 L 94,126 L 95,126 L 97,124 L 98,124 L 100,122 L 102,122 L 104,120 L 105,120 L 105,119 L 106,118 L 107,118 L 108,117 L 109,117 L 110,116 L 111,116 L 113,114 L 114,114 L 116,112 L 117,112 L 119,110 L 124,110 L 126,112 L 126,121 L 127,122 L 127,123 L 128,124 L 128,130 L 129,131 L 129,134 L 130,135 L 130,139 L 131,140 L 131,142 L 132,143 L 132,151 L 133,152 L 133,156 L 134,157 L 134,162 L 135,163 L 135,167 L 136,168 L 136,174 L 137,175 L 137,176 L 138,177 L 138,180 L 139,181 L 139,182 L 141,184 L 143,184 L 145,182 L 147,182 L 147,181 L 148,180 L 149,180 L 152,177 L 153,177 L 154,176 L 155,176 L 157,174 L 158,174 L 158,173 L 159,172 L 160,172 L 162,170 L 164,170 L 164,169 L 166,167 L 167,167 L 170,164 L 171,164 L 171,163 L 172,162 L 174,162 L 178,158 L 179,158 L 181,156 L 183,156 L 189,150 L 190,150 L 192,148 L 194,148 L 196,146 L 197,146 L 199,144 L 199,143 L 200,142 L 201,142 L 203,140 L 205,140 L 205,139 L 206,138 L 207,138 L 208,137 L 209,137 L 210,136 L 210,134 L 200,124 L 200,123 L 199,123 L 194,118 L 194,117 L 193,117 L 179,103 L 178,103 L 177,102 L 177,101 L 176,101 L 175,100 L 175,99 L 174,99 L 173,98 L 173,97 L 171,95 L 170,95 L 169,94 L 169,90 L 171,88 L 173,88 L 175,86 L 177,86 L 178,85 L 179,85 L 180,84 L 181,84 L 182,83 L 183,83 L 184,82 L 185,82 L 187,80 L 189,80 L 191,78 L 193,78 L 194,77 L 195,77 L 196,76 L 199,76 L 200,75 L 201,75 L 204,72 L 207,72 L 209,70 L 211,70 L 213,68 L 215,68 L 218,65 L 218,64 L 217,63 L 213,63 L 212,64 L 211,64 L 210,65 L 208,65 L 206,67 L 204,67 L 203,68 L 202,68 L 201,69 L 200,69 L 198,71 L 196,71 L 195,72 L 194,72 L 193,73 L 192,73 L 190,75 L 188,75 L 187,76 L 186,76 L 185,77 L 184,77 L 183,78 L 182,78 L 181,79 L 180,79 L 179,80 L 178,80 L 177,81 L 175,81 L 174,82 L 172,82 L 171,83 L 170,83 L 169,84 L 168,84 L 167,85 L 166,85 L 165,86 L 164,86 L 163,87 L 162,87 L 161,88 L 160,88 L 160,90 L 162,92 L 162,93 L 163,93 L 164,94 L 165,94 L 166,95 L 166,96 L 168,98 L 169,98 L 170,99 L 170,100 L 171,101 L 171,102 L 173,104 L 174,104 L 176,106 L 176,107 L 181,112 L 182,112 L 184,114 L 184,115 L 188,119 L 189,119 L 191,121 L 191,122 L 192,123 L 193,123 L 195,125 L 195,126 L 202,133 L 202,136 L 199,139 L 198,139 L 197,140 L 196,140 L 193,143 L 192,143 L 189,146 L 188,146 L 187,147 L 186,147 L 186,148 L 185,149 L 184,149 L 181,152 L 180,152 L 177,155 L 176,155 L 174,157 L 173,157 L 169,161 L 168,161 L 166,163 L 165,163 L 163,165 L 162,165 L 162,166 L 161,167 L 160,167 L 158,169 L 156,169 L 156,170 L 155,171 L 154,171 L 152,173 L 151,173 L 149,175 L 148,175 L 146,177 L 145,177 L 144,178 L 141,175 L 141,168 L 140,168 L 139,167 L 139,162 L 138,161 L 138,156 L 137,155 L 137,149 L 135,147 L 135,142 L 134,141 L 134,139 L 135,138 L 135,137 L 134,137 L 133,136 L 133,128 L 131,126 L 131,118 L 130,117 L 130,115 L 129,114 L 129,105 L 130,104 L 130,97 L 131,96 L 131,82 L 132,81 L 132,76 L 133,75 L 133,74 L 132,73 L 132,72 L 133,71 L 133,56 L 134,55 L 134,49 L 135,48 L 135,47 L 137,45 L 138,45 L 139,44 L 140,44 L 142,42 L 145,42 L 145,41 L 146,40 L 151,40 L 152,39 L 153,39 L 154,38 L 157,38 L 160,35 L 161,35 L 162,34 L 166,34 L 168,32 L 171,32 L 172,31 L 174,31 L 176,29 L 178,29 L 179,28 L 182,28 L 183,27 L 184,27 L 185,26 L 187,26 L 188,25 L 189,25 L 190,24 L 192,24 L 193,23 L 194,23 L 195,22 L 199,22 L 201,20 L 204,20 L 206,18 L 208,18 L 208,17 L 209,16 L 208,15 L 208,14 Z" fill="black" /><path d="M 0,0 L 0,216 L 257,216 L 257,0 Z" fill="none" stroke="black" stroke-width="1" /></svg>