<?xml version='1.0' encoding='utf-8'?>
<svg width="257" height="221" xmlns="http://www.w3.org/2000/svg" viewBox="0 0 257 221"><rect width="257" height="221" fill="white" /><path d="M 172,36 L 157,51 L 157,52 L 144,65 L 144,66 L 143,67 L 143,68 L 142,69 L 141,69 L 133,77 L 133,78 L 132,79 L 131,79 L 127,83 L 127,84 L 126,85 L 125,85 L 123,87 L 123,89 L 121,91 L 120,91 L 119,92 L 119,93 L 118,94 L 117,94 L 115,96 L 115,98 L 114,99 L 113,99 L 111,97 L 110,97 L 106,93 L 105,93 L 102,90 L 101,90 L 96,85 L 95,85 L 94,84 L 93,84 L 88,79 L 87,79 L 86,78 L 85,78 L 81,74 L 80,74 L 79,73 L 78,73 L 70,65 L 69,65 L 67,63 L 65,63 L 64,62 L 64,61 L 63,61 L 61,59 L 59,59 L 56,56 L 56,55 L 54,53 L 52,53 L 50,51 L 49,51 L 46,48 L 45,48 L 40,43 L 39,43 L 38,42 L 38,41 L 37,40 L 32,40 L 31,41 L 31,43 L 32,43 L 33,44 L 34,44 L 36,46 L 37,46 L 39,48 L 40,48 L 41,49 L 42,49 L 47,54 L 48,54 L 53,59 L 54,59 L 55,60 L 56,60 L 58,62 L 59,62 L 65,68 L 67,68 L 71,72 L 72,72 L 73,73 L 74,73 L 79,78 L 81,78 L 82,79 L 82,80 L 84,82 L 86,82 L 87,83 L 87,84 L 88,84 L 90,86 L 92,86 L 98,92 L 99,92 L 101,94 L 102,94 L 105,97 L 106,97 L 109,100 L 110,100 L 111,101 L 111,104 L 112,105 L 112,110 L 113,111 L 113,120 L 114,121 L 114,123 L 115,124 L 115,126 L 114,127 L 115,128 L 115,135 L 116,136 L 116,138 L 117,139 L 117,142 L 116,143 L 116,146 L 117,147 L 117,152 L 118,153 L 118,154 L 117,155 L 118,156 L 118,157 L 119,158 L 119,172 L 120,173 L 120,174 L 121,175 L 121,177 L 120,178 L 120,180 L 121,181 L 121,182 L 122,183 L 122,188 L 123,189 L 124,189 L 125,188 L 125,186 L 124,185 L 124,184 L 125,183 L 125,181 L 124,180 L 124,171 L 123,170 L 123,169 L 124,168 L 124,166 L 123,165 L 123,163 L 122,162 L 122,148 L 121,147 L 121,145 L 120,144 L 120,133 L 119,132 L 119,126 L 118,125 L 118,117 L 117,116 L 117,114 L 116,113 L 116,103 L 117,102 L 117,101 L 120,98 L 120,96 L 122,94 L 123,94 L 125,92 L 125,91 L 130,86 L 131,86 L 131,85 L 132,84 L 132,83 L 133,82 L 135,82 L 135,81 L 136,80 L 136,79 L 137,78 L 138,78 L 139,77 L 140,77 L 140,75 L 143,72 L 144,72 L 144,71 L 150,65 L 150,64 L 152,62 L 153,62 L 153,61 L 155,59 L 156,59 L 156,58 L 158,56 L 159,56 L 160,55 L 160,53 L 161,52 L 162,52 L 168,46 L 168,45 L 174,39 L 174,38 L 175,37 L 174,36 Z" fill="black" /><path d="M 0,0 L 0,220 L 256,220 L 256,0 Z" fill="none" stroke="black" stroke-width="1" /></svg>