<?xml version='1.0' encoding='utf-8'?>
<svg width="256" height="221" xmlns="http://www.w3.org/2000/svg" viewBox="0 0 256 221"><rect width="256" height="221" fill="white" /><path d="M 106,37 L 104,39 L 103,39 L 103,40 L 102,41 L 101,41 L 101,42 L 100,43 L 100,44 L 99,45 L 99,46 L 97,48 L 97,49 L 95,51 L 95,52 L 94,53 L 94,54 L 91,57 L 91,58 L 90,59 L 90,60 L 89,61 L 89,62 L 87,64 L 87,65 L 85,67 L 85,68 L 83,70 L 83,71 L 81,73 L 81,74 L 79,76 L 79,78 L 77,80 L 77,81 L 75,83 L 75,84 L 73,86 L 73,87 L 71,89 L 71,90 L 70,91 L 70,92 L 69,93 L 69,94 L 68,95 L 67,95 L 67,96 L 65,98 L 65,99 L 63,101 L 63,102 L 62,103 L 62,105 L 63,106 L 63,107 L 65,109 L 65,111 L 67,113 L 67,114 L 68,115 L 68,116 L 69,117 L 69,118 L 70,118 L 71,119 L 71,120 L 72,121 L 72,122 L 73,123 L 73,124 L 75,126 L 75,128 L 76,128 L 77,129 L 77,131 L 79,133 L 79,134 L 81,136 L 81,138 L 82,138 L 83,139 L 83,140 L 85,142 L 85,144 L 87,146 L 87,147 L 89,149 L 89,150 L 90,151 L 90,152 L 91,153 L 91,154 L 93,156 L 100,156 L 101,155 L 102,155 L 103,156 L 104,156 L 104,155 L 105,154 L 112,154 L 112,153 L 113,152 L 117,152 L 119,150 L 123,150 L 124,149 L 127,149 L 128,148 L 130,148 L 131,147 L 132,147 L 133,146 L 136,146 L 137,145 L 138,145 L 139,144 L 145,144 L 146,143 L 147,143 L 148,142 L 151,142 L 153,140 L 156,140 L 157,139 L 157,138 L 158,137 L 158,133 L 159,132 L 159,131 L 158,130 L 160,128 L 160,116 L 161,115 L 161,111 L 162,110 L 162,105 L 163,104 L 163,100 L 164,99 L 164,91 L 165,90 L 165,85 L 166,84 L 166,81 L 164,79 L 163,79 L 160,76 L 159,76 L 158,75 L 157,75 L 156,74 L 156,73 L 155,73 L 153,71 L 152,71 L 150,69 L 149,69 L 148,68 L 148,67 L 147,67 L 143,63 L 141,63 L 140,62 L 140,61 L 139,61 L 137,59 L 136,59 L 135,58 L 134,58 L 133,57 L 132,57 L 131,56 L 131,55 L 130,54 L 129,54 L 126,51 L 125,51 L 122,48 L 121,48 L 116,43 L 115,43 L 114,42 L 114,41 L 113,41 L 111,39 L 110,39 L 108,37 Z" fill="black" /></svg>