<?xml version='1.0' encoding='utf-8'?>
<svg width="257" height="217" xmlns="http://www.w3.org/2000/svg" viewBox="0 0 257 217"><rect width="257" height="217" fill="white" /><path d="M 185,56 L 184,57 L 175,57 L 174,58 L 122,58 L 121,59 L 116,59 L 115,58 L 114,58 L 113,59 L 99,59 L 98,58 L 97,59 L 94,59 L 93,58 L 92,59 L 84,59 L 83,60 L 80,60 L 79,59 L 78,60 L 75,60 L 74,59 L 73,59 L 72,60 L 65,60 L 64,59 L 63,60 L 62,60 L 61,59 L 60,59 L 59,60 L 37,60 L 36,61 L 36,62 L 37,63 L 38,63 L 39,64 L 41,64 L 42,63 L 55,63 L 56,64 L 59,64 L 60,63 L 97,63 L 98,62 L 99,62 L 100,63 L 111,63 L 112,64 L 112,69 L 113,70 L 113,73 L 112,74 L 113,75 L 113,86 L 114,87 L 114,117 L 115,118 L 115,119 L 114,120 L 114,123 L 115,124 L 115,130 L 116,131 L 116,133 L 115,134 L 115,138 L 116,139 L 116,167 L 117,168 L 117,174 L 118,175 L 118,183 L 120,185 L 132,185 L 133,184 L 144,184 L 145,183 L 169,183 L 170,182 L 179,182 L 180,181 L 196,181 L 196,180 L 197,179 L 195,177 L 190,177 L 189,178 L 188,178 L 187,177 L 186,177 L 185,178 L 161,178 L 160,179 L 155,179 L 154,180 L 122,180 L 121,179 L 121,156 L 120,155 L 120,152 L 121,151 L 121,150 L 120,149 L 120,145 L 121,144 L 120,143 L 120,137 L 119,136 L 119,98 L 118,97 L 118,84 L 117,83 L 117,67 L 116,66 L 116,64 L 118,62 L 120,62 L 121,63 L 125,63 L 126,62 L 128,62 L 129,61 L 130,62 L 134,62 L 135,61 L 137,61 L 138,62 L 141,62 L 142,61 L 147,61 L 148,62 L 149,62 L 150,61 L 152,61 L 153,62 L 156,62 L 157,61 L 198,61 L 200,59 L 198,57 L 188,57 L 187,56 Z" fill="black" /><path d="M 0,0 L 0,216 L 256,216 L 256,0 Z" fill="none" stroke="black" stroke-width="1" /></svg>