<?xml version='1.0' encoding='utf-8'?>
<svg width="256" height="219" xmlns="http://www.w3.org/2000/svg" viewBox="0 0 256 219"><rect width="256" height="219" fill="white" /><path d="M 89,109 L 88,110 L 88,115 L 87,116 L 87,119 L 86,120 L 86,121 L 87,122 L 87,128 L 86,129 L 86,147 L 85,148 L 85,162 L 84,163 L 84,191 L 85,191 L 86,192 L 88,190 L 88,189 L 89,188 L 89,182 L 88,181 L 88,180 L 89,179 L 89,177 L 90,176 L 89,175 L 89,173 L 90,172 L 90,170 L 89,169 L 89,168 L 90,167 L 90,165 L 89,164 L 89,163 L 90,162 L 90,157 L 91,156 L 91,123 L 92,122 L 92,118 L 93,117 L 93,114 L 92,113 L 92,110 L 91,110 L 90,109 Z" fill="black" /><path d="M 114,99 L 114,105 L 116,107 L 116,109 L 117,110 L 117,111 L 118,112 L 118,114 L 120,116 L 120,117 L 121,118 L 121,119 L 122,120 L 122,121 L 123,122 L 123,123 L 124,124 L 124,127 L 125,127 L 126,128 L 126,130 L 128,132 L 128,134 L 130,136 L 130,138 L 132,140 L 132,143 L 134,145 L 134,146 L 135,147 L 135,148 L 136,149 L 136,150 L 137,151 L 137,152 L 138,153 L 138,155 L 139,156 L 139,157 L 140,158 L 140,159 L 141,160 L 141,161 L 142,162 L 142,163 L 144,165 L 144,169 L 148,173 L 149,172 L 150,172 L 150,169 L 149,168 L 149,166 L 148,165 L 148,164 L 147,163 L 147,160 L 145,158 L 145,157 L 144,156 L 144,154 L 143,153 L 143,152 L 141,150 L 141,149 L 140,148 L 140,146 L 139,145 L 139,144 L 138,143 L 138,142 L 137,141 L 137,140 L 135,138 L 135,136 L 134,135 L 134,134 L 133,133 L 133,132 L 131,130 L 131,126 L 130,126 L 129,125 L 129,124 L 127,122 L 127,120 L 126,119 L 126,118 L 125,117 L 125,115 L 124,114 L 124,113 L 123,112 L 123,111 L 122,110 L 122,108 L 121,107 L 121,106 L 119,104 L 119,102 L 117,100 L 117,99 Z" fill="black" /><path d="M 138,88 L 135,91 L 136,92 L 136,93 L 142,93 L 143,94 L 147,94 L 148,95 L 160,95 L 161,96 L 171,96 L 172,97 L 175,97 L 176,98 L 183,98 L 184,99 L 194,99 L 195,100 L 202,100 L 203,101 L 210,101 L 211,102 L 213,102 L 214,101 L 216,101 L 216,99 L 215,98 L 215,97 L 210,97 L 209,96 L 208,97 L 206,97 L 205,96 L 197,96 L 196,95 L 192,95 L 191,96 L 189,94 L 178,94 L 177,93 L 171,93 L 170,92 L 162,92 L 161,91 L 157,91 L 156,90 L 148,90 L 147,89 L 142,89 L 141,88 Z" fill="black" /><path d="M 66,32 L 66,35 L 65,36 L 65,37 L 64,38 L 64,39 L 63,40 L 63,41 L 62,42 L 62,47 L 60,49 L 60,50 L 58,52 L 58,55 L 57,56 L 57,57 L 56,58 L 56,61 L 55,62 L 55,63 L 54,64 L 54,67 L 53,68 L 53,69 L 52,70 L 52,72 L 51,73 L 51,74 L 50,75 L 50,77 L 49,78 L 49,79 L 48,80 L 48,82 L 47,83 L 47,85 L 46,86 L 46,89 L 44,91 L 44,94 L 43,95 L 43,96 L 42,97 L 42,100 L 41,101 L 41,102 L 40,103 L 40,105 L 38,107 L 38,109 L 37,110 L 37,111 L 36,112 L 36,114 L 35,115 L 35,120 L 38,120 L 40,118 L 40,116 L 41,115 L 41,114 L 42,113 L 43,113 L 43,109 L 45,107 L 45,102 L 48,99 L 48,98 L 47,97 L 47,94 L 48,93 L 49,93 L 49,90 L 50,89 L 51,89 L 51,86 L 52,85 L 53,85 L 53,83 L 54,82 L 54,79 L 55,78 L 55,76 L 57,74 L 57,69 L 59,67 L 59,66 L 61,64 L 61,60 L 62,59 L 63,59 L 63,56 L 64,55 L 64,54 L 63,53 L 64,52 L 64,50 L 65,49 L 65,48 L 66,47 L 67,47 L 67,44 L 69,42 L 69,39 L 71,37 L 71,32 Z" fill="black" /><path d="M 204,31 L 203,32 L 198,32 L 197,33 L 195,33 L 194,34 L 186,34 L 185,35 L 184,35 L 183,36 L 178,36 L 176,38 L 170,38 L 169,39 L 166,39 L 165,40 L 158,40 L 157,41 L 155,41 L 154,42 L 151,42 L 150,43 L 146,43 L 145,44 L 142,44 L 141,45 L 136,45 L 135,46 L 132,46 L 131,47 L 128,47 L 127,48 L 122,48 L 121,49 L 120,49 L 119,50 L 114,50 L 113,51 L 113,54 L 114,54 L 115,55 L 117,55 L 118,54 L 119,54 L 120,53 L 125,53 L 126,52 L 130,52 L 131,51 L 133,51 L 134,50 L 137,50 L 138,49 L 139,49 L 140,48 L 146,48 L 147,47 L 152,47 L 153,46 L 157,46 L 158,45 L 163,45 L 163,44 L 164,43 L 165,43 L 166,44 L 168,44 L 169,43 L 173,43 L 174,42 L 175,42 L 176,41 L 182,41 L 183,40 L 185,40 L 186,39 L 191,39 L 192,38 L 194,38 L 195,37 L 199,37 L 200,36 L 201,36 L 202,35 L 204,35 L 206,33 L 206,32 L 205,32 Z" fill="black" /><path d="M 0,0 L 0,218 L 255,218 L 255,0 Z" fill="none" stroke="black" stroke-width="1" /></svg>