<?xml version='1.0' encoding='utf-8'?>
<svg width="260" height="221" xmlns="http://www.w3.org/2000/svg" viewBox="0 0 260 221"><rect width="260" height="221" fill="white" /><path d="M 116,29 L 115,30 L 112,30 L 111,31 L 107,31 L 106,30 L 105,31 L 103,31 L 102,30 L 100,30 L 99,31 L 97,31 L 96,30 L 95,31 L 73,31 L 72,32 L 68,32 L 67,33 L 53,33 L 53,34 L 52,35 L 53,36 L 53,37 L 57,37 L 58,38 L 59,37 L 61,37 L 62,36 L 87,36 L 88,35 L 94,35 L 95,34 L 99,34 L 100,35 L 103,35 L 104,34 L 107,34 L 108,35 L 109,35 L 110,34 L 117,34 L 118,35 L 118,58 L 119,59 L 119,63 L 118,64 L 118,66 L 119,67 L 119,76 L 120,77 L 120,109 L 121,110 L 121,138 L 122,139 L 121,140 L 121,142 L 122,143 L 122,173 L 127,173 L 127,172 L 128,171 L 128,170 L 127,169 L 127,161 L 126,160 L 126,153 L 127,152 L 127,149 L 126,148 L 126,145 L 127,144 L 127,143 L 126,142 L 126,127 L 125,126 L 125,124 L 126,123 L 126,121 L 125,120 L 125,97 L 128,94 L 129,94 L 143,80 L 144,80 L 145,79 L 145,78 L 147,76 L 148,76 L 158,66 L 159,66 L 159,65 L 164,60 L 165,60 L 165,59 L 166,58 L 167,58 L 167,57 L 168,56 L 169,56 L 169,55 L 170,54 L 171,54 L 171,53 L 172,52 L 173,52 L 179,46 L 180,46 L 181,45 L 181,41 L 177,41 L 173,45 L 172,45 L 172,46 L 169,49 L 168,49 L 168,50 L 167,51 L 166,51 L 166,52 L 165,53 L 164,53 L 164,54 L 161,57 L 160,57 L 160,58 L 159,59 L 158,59 L 148,69 L 147,69 L 146,70 L 146,71 L 142,75 L 141,75 L 134,82 L 134,83 L 130,87 L 129,87 L 126,90 L 125,90 L 124,89 L 124,74 L 123,73 L 123,65 L 124,64 L 123,63 L 123,37 L 122,36 L 122,31 L 120,31 L 119,30 L 117,30 Z" fill="black" /><path d="M 0,0 L 0,220 L 259,220 L 259,0 Z" fill="none" stroke="black" stroke-width="1" /></svg>