<?xml version='1.0' encoding='utf-8'?>
<svg width="257" height="220" xmlns="http://www.w3.org/2000/svg" viewBox="0 0 257 220"><rect width="257" height="220" fill="white" /><path d="M 70,52 L 69,53 L 69,66 L 70,67 L 70,71 L 69,72 L 70,73 L 70,76 L 69,77 L 69,78 L 70,79 L 70,83 L 69,84 L 69,132 L 68,133 L 68,134 L 69,135 L 69,141 L 70,141 L 71,142 L 73,142 L 73,141 L 74,140 L 74,139 L 77,136 L 78,136 L 80,134 L 80,132 L 86,126 L 86,125 L 87,124 L 88,124 L 88,123 L 92,119 L 92,118 L 94,116 L 95,116 L 95,115 L 96,114 L 96,113 L 97,112 L 98,112 L 98,111 L 102,107 L 102,105 L 103,104 L 104,104 L 104,103 L 107,100 L 108,100 L 108,99 L 112,95 L 112,94 L 117,89 L 117,88 L 123,82 L 123,81 L 124,80 L 124,79 L 125,78 L 126,78 L 126,77 L 132,71 L 132,69 L 133,68 L 135,68 L 137,70 L 137,78 L 136,79 L 137,80 L 137,82 L 136,83 L 136,85 L 137,86 L 137,94 L 136,95 L 136,112 L 135,113 L 135,141 L 134,142 L 134,148 L 135,148 L 136,149 L 137,149 L 138,148 L 138,146 L 140,144 L 140,143 L 143,140 L 144,140 L 146,138 L 146,137 L 147,136 L 147,135 L 148,134 L 148,133 L 151,130 L 152,130 L 152,129 L 153,128 L 153,127 L 155,125 L 156,125 L 156,124 L 159,121 L 159,120 L 161,118 L 162,118 L 162,116 L 164,114 L 164,113 L 165,112 L 166,112 L 168,110 L 168,109 L 170,107 L 170,106 L 172,104 L 172,103 L 173,102 L 173,101 L 175,99 L 176,99 L 176,98 L 178,96 L 178,95 L 181,92 L 181,91 L 182,90 L 183,90 L 185,88 L 185,87 L 190,82 L 190,80 L 192,78 L 192,76 L 194,74 L 195,74 L 195,73 L 204,64 L 204,62 L 206,60 L 206,58 L 207,57 L 206,56 L 206,55 L 205,55 L 201,59 L 201,60 L 200,61 L 200,62 L 199,63 L 199,64 L 198,65 L 197,65 L 197,66 L 193,70 L 193,71 L 191,73 L 191,74 L 186,79 L 186,80 L 185,81 L 185,82 L 184,83 L 183,83 L 181,85 L 181,86 L 179,88 L 179,90 L 178,91 L 177,91 L 175,93 L 175,94 L 174,95 L 174,96 L 171,99 L 171,100 L 168,103 L 168,104 L 167,105 L 167,106 L 166,107 L 165,107 L 163,109 L 163,110 L 158,115 L 158,116 L 155,119 L 155,120 L 154,121 L 153,121 L 153,122 L 151,124 L 151,125 L 147,129 L 147,130 L 144,133 L 144,134 L 143,135 L 141,135 L 139,133 L 139,132 L 138,131 L 138,127 L 139,126 L 139,124 L 138,123 L 140,121 L 140,120 L 139,119 L 139,118 L 138,117 L 138,114 L 140,112 L 140,105 L 139,104 L 139,103 L 140,102 L 140,97 L 139,97 L 138,96 L 138,95 L 140,93 L 140,91 L 139,90 L 139,89 L 140,88 L 140,75 L 141,74 L 141,70 L 140,69 L 140,67 L 141,66 L 141,65 L 140,65 L 139,64 L 139,63 L 140,62 L 140,57 L 139,56 L 138,56 L 135,59 L 135,60 L 133,62 L 133,63 L 129,67 L 129,68 L 123,74 L 123,75 L 121,77 L 121,78 L 120,79 L 119,79 L 119,80 L 118,81 L 117,81 L 117,82 L 113,86 L 113,88 L 112,89 L 111,89 L 109,91 L 109,93 L 103,99 L 103,100 L 98,105 L 98,106 L 93,111 L 93,112 L 92,113 L 91,113 L 89,115 L 89,116 L 86,119 L 86,120 L 81,125 L 81,126 L 80,127 L 79,127 L 79,128 L 76,131 L 74,131 L 73,130 L 73,129 L 72,128 L 72,125 L 73,124 L 73,121 L 72,120 L 72,119 L 73,118 L 74,118 L 74,112 L 72,110 L 72,99 L 75,96 L 73,96 L 72,97 L 71,96 L 71,94 L 72,93 L 72,86 L 73,85 L 73,83 L 74,82 L 74,79 L 73,78 L 73,77 L 74,76 L 74,73 L 73,72 L 73,71 L 74,70 L 74,68 L 73,67 L 73,61 L 74,60 L 74,55 L 73,54 L 73,53 L 72,52 Z" fill="black" /><path d="M 0,0 L 0,219 L 256,219 L 256,0 Z" fill="none" stroke="black" stroke-width="1" /></svg>