<?xml version='1.0' encoding='utf-8'?>
<svg width="257" height="217" xmlns="http://www.w3.org/2000/svg" viewBox="0 0 257 217"><rect width="257" height="217" fill="white" /><path d="M 170,19 L 165,24 L 165,25 L 162,28 L 162,29 L 160,31 L 160,33 L 158,35 L 158,36 L 154,40 L 154,41 L 153,42 L 153,43 L 150,46 L 150,47 L 148,49 L 148,50 L 146,52 L 146,53 L 145,54 L 145,55 L 144,56 L 144,57 L 143,58 L 142,58 L 142,59 L 140,61 L 140,62 L 138,64 L 138,66 L 134,70 L 134,71 L 132,73 L 132,75 L 131,76 L 130,76 L 130,77 L 128,79 L 128,80 L 126,82 L 126,83 L 123,86 L 123,87 L 122,88 L 122,89 L 121,90 L 121,91 L 116,96 L 114,96 L 112,94 L 112,93 L 111,92 L 110,92 L 109,91 L 108,91 L 107,90 L 106,90 L 102,86 L 99,86 L 97,84 L 96,84 L 95,83 L 95,82 L 93,82 L 91,80 L 90,80 L 89,79 L 89,78 L 87,78 L 86,77 L 84,77 L 83,76 L 82,76 L 81,75 L 81,74 L 79,74 L 75,70 L 74,70 L 72,68 L 71,68 L 70,67 L 68,67 L 63,62 L 62,62 L 60,60 L 58,60 L 55,57 L 54,57 L 53,56 L 52,56 L 51,55 L 50,55 L 47,52 L 45,52 L 44,51 L 43,51 L 42,50 L 40,50 L 39,51 L 39,54 L 40,55 L 40,62 L 41,63 L 41,65 L 42,66 L 42,71 L 43,72 L 43,78 L 44,79 L 44,86 L 45,87 L 45,88 L 46,89 L 46,99 L 47,100 L 47,105 L 48,106 L 48,114 L 49,115 L 49,118 L 50,118 L 51,119 L 52,118 L 53,118 L 54,117 L 52,115 L 52,114 L 53,113 L 53,107 L 52,106 L 52,105 L 53,104 L 53,99 L 52,98 L 52,94 L 51,93 L 51,83 L 49,81 L 49,71 L 48,70 L 48,67 L 47,66 L 47,65 L 46,64 L 47,63 L 47,62 L 48,61 L 49,61 L 50,62 L 51,62 L 52,63 L 53,63 L 54,64 L 55,64 L 56,65 L 57,65 L 59,67 L 60,67 L 62,69 L 63,69 L 64,70 L 65,70 L 66,71 L 67,71 L 68,72 L 68,73 L 70,73 L 72,75 L 73,75 L 76,78 L 77,78 L 78,79 L 79,79 L 81,81 L 82,81 L 84,83 L 85,83 L 86,84 L 87,84 L 88,85 L 89,85 L 90,86 L 91,86 L 94,89 L 95,89 L 96,90 L 97,90 L 98,91 L 98,92 L 99,92 L 100,93 L 101,93 L 103,95 L 104,95 L 106,97 L 107,97 L 108,98 L 109,98 L 110,99 L 111,99 L 112,100 L 113,100 L 114,101 L 115,101 L 117,103 L 117,106 L 118,107 L 118,118 L 119,119 L 119,120 L 120,121 L 120,127 L 121,128 L 121,129 L 122,130 L 122,139 L 123,140 L 123,143 L 124,144 L 124,151 L 125,152 L 125,159 L 126,160 L 126,166 L 127,167 L 125,169 L 125,170 L 126,171 L 133,171 L 133,169 L 132,168 L 132,160 L 131,159 L 131,152 L 130,151 L 130,148 L 129,147 L 129,139 L 128,138 L 128,134 L 127,133 L 127,126 L 126,125 L 126,122 L 125,121 L 125,111 L 124,110 L 124,106 L 123,105 L 123,96 L 124,95 L 125,95 L 125,94 L 126,93 L 126,92 L 127,91 L 127,90 L 129,88 L 129,87 L 131,85 L 131,84 L 132,83 L 132,82 L 134,80 L 135,80 L 135,79 L 136,78 L 136,77 L 137,76 L 137,75 L 138,74 L 139,74 L 139,73 L 141,71 L 141,70 L 142,69 L 142,68 L 143,67 L 143,66 L 144,65 L 145,65 L 145,62 L 152,55 L 152,53 L 154,51 L 154,49 L 157,46 L 157,45 L 159,43 L 159,42 L 160,41 L 161,41 L 161,40 L 164,37 L 164,36 L 165,35 L 165,32 L 167,30 L 168,30 L 170,32 L 170,37 L 171,38 L 171,42 L 172,43 L 172,53 L 174,55 L 174,64 L 175,65 L 175,68 L 176,69 L 176,77 L 177,78 L 177,79 L 178,80 L 178,84 L 177,85 L 177,87 L 178,88 L 178,89 L 179,90 L 182,90 L 184,88 L 184,87 L 183,86 L 183,80 L 182,79 L 182,76 L 181,75 L 181,67 L 180,66 L 180,64 L 179,63 L 179,56 L 177,54 L 177,51 L 178,50 L 178,49 L 177,48 L 177,42 L 176,41 L 176,38 L 175,37 L 175,29 L 174,28 L 174,24 L 173,23 L 173,20 L 172,19 Z" fill="black" /><path d="M 0,0 L 0,216 L 256,216 L 256,0 Z" fill="none" stroke="black" stroke-width="1" /></svg>