<?xml version='1.0' encoding='utf-8'?>
<svg width="256" height="216" xmlns="http://www.w3.org/2000/svg" viewBox="0 0 256 216"><rect width="256" height="216" fill="white" /><path d="M 197,23 L 195,25 L 195,31 L 196,32 L 196,37 L 197,38 L 197,42 L 198,43 L 198,52 L 199,53 L 199,56 L 200,57 L 200,58 L 199,59 L 199,61 L 200,62 L 200,65 L 201,66 L 201,69 L 202,70 L 202,77 L 203,78 L 203,81 L 204,82 L 204,84 L 202,86 L 195,86 L 194,87 L 191,87 L 190,88 L 180,88 L 179,89 L 173,89 L 172,90 L 158,90 L 157,91 L 154,91 L 153,92 L 140,92 L 139,93 L 133,93 L 132,94 L 118,94 L 117,95 L 111,95 L 110,96 L 100,96 L 99,97 L 94,97 L 93,98 L 91,98 L 90,97 L 89,97 L 88,98 L 79,98 L 78,99 L 74,99 L 73,100 L 58,100 L 57,99 L 57,93 L 55,91 L 55,85 L 54,84 L 54,83 L 55,82 L 55,79 L 54,78 L 54,76 L 53,75 L 53,70 L 52,69 L 52,64 L 51,63 L 51,56 L 50,55 L 50,48 L 49,47 L 49,42 L 47,40 L 47,39 L 46,39 L 45,38 L 44,39 L 44,47 L 45,48 L 45,52 L 46,53 L 46,56 L 47,57 L 47,61 L 48,62 L 48,63 L 47,64 L 47,65 L 48,66 L 48,71 L 49,72 L 49,79 L 50,80 L 50,84 L 52,86 L 51,87 L 51,91 L 52,92 L 52,96 L 53,97 L 52,98 L 52,100 L 53,101 L 53,106 L 54,107 L 54,115 L 55,116 L 55,121 L 56,122 L 56,133 L 57,134 L 57,136 L 58,137 L 58,145 L 59,146 L 59,149 L 60,150 L 60,161 L 61,162 L 61,164 L 62,165 L 62,172 L 63,173 L 63,175 L 64,176 L 64,180 L 65,181 L 67,181 L 68,180 L 68,176 L 67,175 L 67,166 L 66,165 L 66,162 L 65,161 L 65,153 L 64,152 L 64,148 L 63,147 L 63,146 L 64,145 L 64,144 L 63,143 L 63,138 L 62,137 L 62,134 L 61,133 L 61,126 L 60,125 L 60,124 L 61,123 L 61,120 L 59,118 L 59,111 L 57,109 L 57,107 L 59,105 L 60,105 L 61,104 L 65,104 L 66,105 L 69,105 L 70,104 L 74,104 L 75,103 L 83,103 L 84,102 L 88,102 L 89,101 L 103,101 L 104,100 L 107,100 L 108,99 L 116,99 L 117,98 L 119,98 L 120,99 L 123,99 L 124,98 L 125,98 L 126,97 L 128,97 L 129,98 L 133,98 L 134,97 L 140,97 L 141,96 L 143,96 L 144,97 L 145,97 L 146,96 L 147,96 L 148,97 L 149,97 L 150,96 L 153,96 L 154,95 L 161,95 L 162,94 L 169,94 L 170,93 L 181,93 L 182,92 L 183,93 L 185,93 L 186,92 L 191,92 L 192,91 L 199,91 L 200,90 L 203,90 L 204,91 L 204,92 L 205,93 L 205,96 L 206,97 L 206,103 L 207,104 L 207,111 L 208,112 L 208,120 L 209,121 L 209,123 L 210,124 L 210,132 L 211,133 L 211,135 L 212,136 L 212,143 L 213,144 L 213,147 L 214,148 L 214,157 L 215,158 L 215,159 L 216,160 L 218,160 L 219,159 L 219,157 L 218,156 L 219,155 L 219,154 L 218,153 L 218,151 L 219,150 L 219,149 L 217,147 L 217,146 L 218,145 L 218,144 L 217,143 L 217,139 L 216,138 L 216,132 L 215,131 L 215,128 L 214,127 L 214,126 L 215,125 L 215,123 L 214,122 L 214,120 L 213,119 L 213,109 L 211,107 L 212,106 L 212,104 L 211,103 L 211,97 L 210,96 L 210,92 L 209,91 L 209,83 L 208,82 L 208,76 L 207,75 L 207,70 L 206,69 L 206,64 L 205,63 L 205,54 L 204,53 L 204,50 L 203,49 L 203,41 L 201,39 L 201,29 L 200,28 L 200,27 L 199,26 L 199,24 L 198,24 Z" fill="black" /><path d="M 0,0 L 0,215 L 255,215 L 255,0 Z" fill="none" stroke="black" stroke-width="1" /></svg>