<?xml version='1.0' encoding='utf-8'?>
<svg width="258" height="217" xmlns="http://www.w3.org/2000/svg" viewBox="0 0 258 217"><rect width="258" height="217" fill="white" /><path d="M 110,78 L 107,81 L 106,81 L 105,82 L 105,83 L 103,85 L 99,85 L 96,82 L 95,82 L 93,80 L 90,80 L 89,79 L 84,79 L 83,80 L 80,80 L 79,81 L 78,81 L 77,82 L 76,82 L 76,83 L 74,85 L 70,85 L 69,84 L 68,84 L 66,82 L 63,82 L 62,81 L 54,81 L 53,82 L 52,82 L 51,83 L 50,83 L 50,84 L 48,86 L 48,87 L 47,88 L 47,90 L 46,91 L 46,97 L 45,98 L 45,99 L 46,100 L 46,123 L 47,124 L 47,125 L 48,126 L 48,128 L 50,130 L 50,131 L 51,131 L 52,132 L 53,132 L 54,133 L 56,133 L 57,134 L 63,134 L 64,133 L 67,133 L 68,132 L 69,132 L 72,129 L 72,128 L 73,127 L 76,127 L 77,128 L 77,129 L 78,130 L 78,131 L 79,131 L 81,133 L 83,133 L 84,134 L 84,135 L 91,135 L 92,134 L 93,134 L 94,133 L 96,133 L 98,131 L 99,131 L 101,129 L 104,129 L 108,133 L 110,133 L 111,134 L 113,134 L 114,135 L 117,135 L 118,134 L 120,134 L 121,133 L 123,133 L 125,131 L 126,131 L 128,129 L 130,129 L 131,130 L 131,131 L 133,133 L 134,133 L 136,135 L 146,135 L 148,133 L 150,133 L 152,131 L 157,131 L 159,133 L 160,133 L 161,134 L 162,134 L 163,135 L 172,135 L 174,133 L 175,133 L 179,129 L 179,128 L 180,127 L 180,126 L 181,125 L 181,110 L 182,109 L 182,106 L 181,105 L 181,91 L 180,90 L 180,88 L 179,87 L 179,86 L 178,85 L 178,84 L 177,84 L 175,82 L 174,82 L 172,80 L 169,80 L 168,79 L 164,79 L 163,80 L 160,80 L 156,84 L 153,84 L 151,82 L 150,82 L 149,81 L 148,81 L 147,80 L 146,80 L 145,79 L 141,79 L 140,78 L 138,80 L 134,80 L 130,84 L 127,84 L 123,80 L 122,80 L 121,79 L 119,79 L 118,78 Z" fill="black" /><path d="M 0,0 L 0,216 L 257,216 L 257,0 Z" fill="none" stroke="black" stroke-width="1" /></svg>