<?xml version='1.0' encoding='utf-8'?>
<svg width="255" height="216" xmlns="http://www.w3.org/2000/svg" viewBox="0 0 255 216"><rect width="255" height="216" fill="white" /><path d="M 192,137 L 191,138 L 187,138 L 186,139 L 185,139 L 184,140 L 183,140 L 183,141 L 178,146 L 178,153 L 177,154 L 177,165 L 176,166 L 176,176 L 178,178 L 178,184 L 179,185 L 179,186 L 182,189 L 182,190 L 183,191 L 184,191 L 186,193 L 192,193 L 193,194 L 194,194 L 195,193 L 199,193 L 201,191 L 202,191 L 203,190 L 203,189 L 205,187 L 205,186 L 206,185 L 206,184 L 207,183 L 207,151 L 206,150 L 206,149 L 205,148 L 205,146 L 203,144 L 203,143 L 200,140 L 199,140 L 197,138 L 194,138 L 193,137 Z" fill="black" /><path d="M 117,68 L 116,69 L 115,69 L 114,70 L 112,70 L 112,71 L 111,72 L 110,72 L 108,74 L 104,74 L 103,73 L 103,72 L 101,72 L 99,70 L 88,70 L 88,71 L 87,72 L 86,72 L 85,73 L 84,73 L 80,77 L 80,79 L 78,81 L 78,93 L 77,94 L 77,95 L 78,96 L 78,97 L 77,98 L 77,101 L 78,102 L 78,103 L 77,104 L 77,109 L 78,110 L 78,116 L 80,118 L 80,119 L 81,119 L 82,120 L 82,121 L 83,121 L 85,123 L 87,123 L 88,124 L 96,124 L 99,121 L 101,121 L 103,119 L 104,119 L 105,118 L 106,118 L 109,121 L 111,121 L 114,124 L 117,124 L 118,125 L 121,125 L 122,124 L 123,124 L 124,123 L 125,123 L 127,121 L 128,121 L 131,118 L 131,117 L 132,116 L 132,115 L 133,114 L 133,106 L 134,105 L 134,85 L 135,84 L 135,82 L 134,81 L 134,79 L 133,78 L 133,76 L 132,75 L 132,74 L 131,73 L 130,73 L 129,72 L 128,72 L 126,70 L 124,70 L 123,69 L 121,69 L 120,68 Z" fill="black" /><path d="M 198,16 L 197,17 L 196,17 L 195,18 L 194,18 L 191,21 L 191,22 L 190,23 L 190,25 L 189,26 L 189,33 L 188,34 L 188,59 L 189,60 L 189,61 L 192,64 L 192,65 L 193,65 L 195,67 L 196,67 L 197,68 L 202,68 L 203,69 L 207,69 L 209,67 L 211,67 L 213,65 L 213,64 L 215,62 L 215,61 L 217,59 L 217,27 L 215,25 L 215,23 L 213,21 L 213,20 L 212,20 L 210,18 L 208,18 L 207,17 L 206,17 L 205,16 Z" fill="black" /><path d="M 47,16 L 46,17 L 42,17 L 41,18 L 40,18 L 39,19 L 38,19 L 37,20 L 36,20 L 36,21 L 33,24 L 33,25 L 32,26 L 32,29 L 31,30 L 31,39 L 30,40 L 30,44 L 31,45 L 31,46 L 30,47 L 30,57 L 31,58 L 31,59 L 32,60 L 32,63 L 33,64 L 33,65 L 34,66 L 34,67 L 36,69 L 38,69 L 39,70 L 40,70 L 41,71 L 51,71 L 52,70 L 53,70 L 54,69 L 55,69 L 55,68 L 59,64 L 59,63 L 60,62 L 60,60 L 61,59 L 61,54 L 62,53 L 62,52 L 61,51 L 61,49 L 62,48 L 62,32 L 61,31 L 61,26 L 59,24 L 59,22 L 57,20 L 56,20 L 55,19 L 54,19 L 53,18 L 51,18 L 50,17 L 49,17 L 48,16 Z" fill="black" /></svg>