<?xml version='1.0' encoding='utf-8'?>
<svg width="260" height="214" xmlns="http://www.w3.org/2000/svg" viewBox="0 0 260 214"><rect width="260" height="214" fill="white" /><path d="M 88,74 L 87,75 L 85,75 L 83,77 L 82,77 L 82,78 L 81,79 L 80,79 L 78,81 L 78,82 L 77,83 L 77,85 L 76,86 L 76,94 L 77,95 L 77,101 L 78,102 L 78,120 L 79,121 L 79,124 L 80,125 L 80,126 L 82,128 L 83,128 L 85,130 L 87,130 L 89,132 L 98,132 L 100,130 L 101,130 L 106,125 L 110,125 L 112,127 L 112,128 L 113,128 L 114,129 L 115,129 L 116,130 L 124,130 L 126,128 L 129,128 L 129,127 L 130,126 L 135,126 L 137,128 L 139,128 L 140,129 L 141,129 L 142,130 L 147,130 L 148,129 L 151,129 L 152,128 L 153,128 L 155,126 L 157,126 L 159,124 L 159,122 L 161,120 L 161,88 L 160,87 L 160,85 L 159,84 L 159,81 L 155,77 L 154,77 L 152,75 L 150,75 L 149,74 L 144,74 L 143,75 L 137,75 L 133,79 L 131,79 L 129,77 L 128,77 L 127,76 L 126,76 L 125,75 L 113,75 L 111,77 L 110,77 L 110,78 L 108,80 L 107,80 L 106,81 L 105,81 L 101,77 L 100,77 L 99,76 L 99,75 L 96,75 L 95,74 L 94,74 L 93,75 L 91,75 L 90,74 Z" fill="black" /><path d="M 0,0 L 0,213 L 259,213 L 259,0 Z" fill="none" stroke="black" stroke-width="1" /></svg>