<?xml version='1.0' encoding='utf-8'?>
<svg width="254" height="215" xmlns="http://www.w3.org/2000/svg" viewBox="0 0 254 215"><rect width="254" height="215" fill="white" /><path d="M 99,136 L 97,138 L 96,138 L 94,140 L 94,141 L 92,143 L 92,146 L 90,148 L 90,173 L 89,174 L 89,176 L 90,177 L 90,181 L 91,182 L 91,183 L 92,184 L 92,185 L 93,185 L 94,186 L 94,187 L 95,187 L 96,188 L 96,189 L 97,189 L 98,190 L 99,190 L 100,191 L 109,191 L 110,190 L 112,190 L 113,189 L 114,189 L 118,185 L 118,184 L 119,183 L 119,181 L 120,180 L 120,178 L 121,177 L 121,156 L 122,155 L 122,153 L 121,152 L 121,144 L 119,142 L 119,141 L 117,139 L 117,138 L 115,138 L 114,137 L 113,137 L 112,136 Z" fill="black" /><path d="M 182,57 L 181,58 L 178,58 L 177,59 L 176,59 L 175,60 L 174,60 L 172,62 L 172,63 L 171,64 L 171,65 L 170,66 L 170,67 L 169,68 L 169,75 L 170,76 L 170,85 L 169,86 L 169,88 L 170,89 L 170,90 L 169,91 L 169,95 L 170,96 L 170,97 L 169,98 L 169,102 L 170,103 L 170,105 L 171,106 L 171,107 L 172,108 L 172,109 L 174,111 L 175,111 L 176,112 L 177,112 L 178,113 L 191,113 L 193,111 L 194,111 L 197,108 L 197,107 L 199,105 L 199,100 L 200,99 L 200,80 L 201,79 L 201,74 L 200,73 L 200,70 L 199,69 L 199,66 L 198,66 L 197,65 L 197,63 L 196,62 L 195,62 L 191,58 L 188,58 L 187,57 Z" fill="black" /><path d="M 62,26 L 61,27 L 58,27 L 57,28 L 55,28 L 52,31 L 52,32 L 50,34 L 50,35 L 49,36 L 49,37 L 48,38 L 48,57 L 47,58 L 48,59 L 48,73 L 50,75 L 50,76 L 52,78 L 52,79 L 53,79 L 56,82 L 57,82 L 58,83 L 61,83 L 62,84 L 65,84 L 66,83 L 69,83 L 71,81 L 73,81 L 75,79 L 75,78 L 76,77 L 77,77 L 77,74 L 79,72 L 79,40 L 78,39 L 78,36 L 77,35 L 77,33 L 75,31 L 75,30 L 74,30 L 73,29 L 72,29 L 71,28 L 68,28 L 66,26 Z" fill="black" /><path d="M 0,0 L 0,214 L 253,214 L 253,0 Z" fill="none" stroke="black" stroke-width="1" /></svg>