<?xml version='1.0' encoding='utf-8'?>
<svg width="254" height="218" xmlns="http://www.w3.org/2000/svg" viewBox="0 0 254 218"><rect width="254" height="218" fill="white" /><path d="M 146,142 L 145,143 L 144,143 L 143,144 L 141,144 L 136,149 L 136,152 L 135,153 L 135,154 L 134,155 L 134,158 L 135,159 L 135,164 L 134,165 L 135,166 L 135,183 L 136,184 L 136,189 L 138,191 L 138,192 L 141,195 L 142,195 L 144,197 L 156,197 L 157,196 L 158,196 L 159,195 L 160,195 L 162,193 L 165,193 L 169,197 L 179,197 L 181,195 L 183,195 L 183,194 L 184,193 L 185,193 L 187,191 L 187,190 L 189,188 L 189,178 L 190,177 L 190,174 L 189,173 L 189,172 L 190,171 L 190,164 L 189,163 L 189,162 L 190,161 L 190,158 L 191,157 L 191,156 L 190,155 L 190,153 L 189,152 L 189,151 L 187,149 L 187,148 L 186,148 L 185,147 L 185,146 L 184,146 L 182,144 L 170,144 L 168,146 L 166,146 L 166,147 L 165,148 L 162,148 L 159,145 L 159,144 L 157,144 L 156,143 L 155,143 L 154,142 Z" fill="black" /><path d="M 63,36 L 62,37 L 60,37 L 59,38 L 57,38 L 53,42 L 48,42 L 46,40 L 45,40 L 44,39 L 42,39 L 41,38 L 35,38 L 34,39 L 32,39 L 31,40 L 30,40 L 26,44 L 26,45 L 25,46 L 25,47 L 24,48 L 24,52 L 25,53 L 24,54 L 24,57 L 25,58 L 25,60 L 24,61 L 25,62 L 25,64 L 26,65 L 26,83 L 27,84 L 27,87 L 28,88 L 28,89 L 29,89 L 30,90 L 30,91 L 31,91 L 32,92 L 32,93 L 33,93 L 34,94 L 36,94 L 37,95 L 46,95 L 47,94 L 48,94 L 49,93 L 51,93 L 51,92 L 52,91 L 56,91 L 58,93 L 61,93 L 62,94 L 63,94 L 64,93 L 65,93 L 66,94 L 67,94 L 68,93 L 71,93 L 72,92 L 73,92 L 74,91 L 75,91 L 77,89 L 79,89 L 81,91 L 83,91 L 84,92 L 85,92 L 86,93 L 90,93 L 91,94 L 92,93 L 96,93 L 98,91 L 99,91 L 100,90 L 101,90 L 101,89 L 103,87 L 103,86 L 104,85 L 104,82 L 105,81 L 105,77 L 106,76 L 105,75 L 105,62 L 106,61 L 106,58 L 105,57 L 105,46 L 103,44 L 103,42 L 102,42 L 99,39 L 98,39 L 97,38 L 94,38 L 93,37 L 88,37 L 87,38 L 83,38 L 80,41 L 76,41 L 73,38 L 70,38 L 69,37 L 68,37 L 67,36 Z" fill="black" /></svg>