<?xml version='1.0' encoding='utf-8'?>
<svg width="258" height="218" xmlns="http://www.w3.org/2000/svg" viewBox="0 0 258 218"><rect width="258" height="218" fill="white" /><path d="M 68,144 L 67,145 L 63,145 L 62,146 L 62,147 L 58,151 L 58,152 L 57,153 L 57,157 L 58,158 L 58,162 L 57,163 L 57,164 L 58,165 L 58,171 L 57,172 L 57,177 L 58,178 L 58,190 L 60,192 L 60,193 L 61,194 L 62,194 L 66,198 L 67,198 L 68,199 L 71,199 L 72,200 L 73,200 L 74,199 L 79,199 L 80,198 L 81,198 L 83,196 L 83,194 L 86,191 L 87,191 L 89,193 L 89,194 L 92,197 L 93,197 L 94,198 L 94,199 L 97,199 L 98,200 L 101,200 L 102,199 L 104,199 L 106,197 L 107,197 L 109,195 L 110,195 L 112,193 L 112,192 L 113,191 L 113,153 L 112,152 L 112,151 L 111,150 L 111,149 L 109,147 L 108,147 L 107,146 L 106,146 L 105,145 L 104,145 L 103,144 L 96,144 L 95,145 L 94,145 L 93,146 L 92,146 L 91,147 L 90,147 L 86,151 L 85,151 L 82,148 L 81,148 L 79,146 L 78,146 L 76,144 Z" fill="black" /><path d="M 45,33 L 44,34 L 38,34 L 36,36 L 34,36 L 32,38 L 32,39 L 31,40 L 30,40 L 30,42 L 29,43 L 29,44 L 28,45 L 28,50 L 29,51 L 29,60 L 30,61 L 30,74 L 31,75 L 31,80 L 33,82 L 33,83 L 34,84 L 34,85 L 35,85 L 37,87 L 41,87 L 42,88 L 49,88 L 50,87 L 53,87 L 54,86 L 55,86 L 58,83 L 58,82 L 59,81 L 59,79 L 60,78 L 60,72 L 59,71 L 59,48 L 58,47 L 58,44 L 57,43 L 57,41 L 55,39 L 55,38 L 54,37 L 53,37 L 52,36 L 51,36 L 49,34 L 46,34 Z" fill="black" /><path d="M 140,32 L 139,33 L 138,33 L 137,34 L 136,34 L 136,35 L 135,36 L 134,36 L 132,38 L 132,40 L 130,42 L 130,45 L 129,46 L 130,47 L 130,49 L 129,50 L 129,53 L 130,54 L 130,68 L 131,69 L 130,70 L 130,74 L 132,76 L 132,78 L 134,80 L 134,81 L 135,81 L 136,82 L 136,83 L 138,85 L 144,85 L 145,86 L 149,86 L 150,85 L 153,85 L 157,81 L 160,81 L 166,87 L 171,87 L 172,88 L 175,88 L 176,87 L 179,87 L 181,85 L 182,85 L 183,84 L 183,83 L 185,81 L 185,80 L 186,79 L 186,78 L 187,77 L 187,74 L 188,73 L 188,70 L 189,69 L 189,64 L 188,63 L 188,62 L 189,61 L 189,60 L 188,59 L 188,46 L 187,45 L 187,40 L 184,37 L 184,36 L 183,35 L 182,35 L 181,34 L 180,34 L 178,32 L 166,32 L 166,33 L 165,34 L 162,34 L 162,35 L 160,37 L 157,37 L 155,35 L 154,35 L 153,34 L 152,34 L 151,33 L 149,33 L 148,32 Z" fill="black" /></svg>