<?xml version='1.0' encoding='utf-8'?>
<svg width="259" height="217" xmlns="http://www.w3.org/2000/svg" viewBox="0 0 259 217"><rect width="259" height="217" fill="white" /><path d="M 39,139 L 38,140 L 35,140 L 35,141 L 34,142 L 33,142 L 29,146 L 29,149 L 28,150 L 28,151 L 27,152 L 27,168 L 26,169 L 26,177 L 27,178 L 27,184 L 28,185 L 28,186 L 29,187 L 29,188 L 31,190 L 31,191 L 32,191 L 33,192 L 34,192 L 37,195 L 47,195 L 49,193 L 51,193 L 53,191 L 54,191 L 56,189 L 56,188 L 58,186 L 58,183 L 59,182 L 59,179 L 60,178 L 60,154 L 59,153 L 59,150 L 58,149 L 58,147 L 56,145 L 56,143 L 55,143 L 54,142 L 53,142 L 51,140 L 48,140 L 47,139 Z" fill="black" /><path d="M 81,52 L 80,53 L 79,53 L 76,56 L 75,56 L 73,58 L 73,59 L 71,61 L 71,70 L 70,71 L 70,75 L 71,76 L 71,78 L 70,79 L 70,88 L 69,89 L 69,93 L 70,94 L 70,97 L 71,98 L 71,100 L 73,102 L 73,103 L 75,105 L 76,105 L 78,107 L 82,107 L 83,108 L 88,108 L 89,107 L 93,107 L 95,105 L 96,105 L 96,104 L 98,102 L 100,102 L 101,103 L 102,103 L 104,105 L 106,105 L 107,106 L 108,106 L 109,107 L 119,107 L 120,106 L 121,106 L 122,105 L 123,105 L 127,101 L 127,100 L 128,99 L 128,98 L 130,96 L 130,90 L 131,89 L 131,86 L 130,85 L 130,76 L 131,75 L 131,65 L 130,64 L 130,60 L 127,57 L 127,56 L 126,56 L 124,54 L 123,54 L 121,52 L 111,52 L 110,53 L 109,53 L 108,54 L 107,54 L 106,55 L 105,55 L 102,58 L 99,58 L 96,55 L 95,55 L 94,54 L 93,54 L 92,53 L 91,53 L 90,52 Z" fill="black" /></svg>