<?xml version='1.0' encoding='utf-8'?>
<svg width="255" height="216" xmlns="http://www.w3.org/2000/svg" viewBox="0 0 255 216"><rect width="255" height="216" fill="white" /><path d="M 107,66 L 106,67 L 104,67 L 103,68 L 101,68 L 101,69 L 100,70 L 99,70 L 97,72 L 95,72 L 93,70 L 92,70 L 90,68 L 86,68 L 85,67 L 77,67 L 76,68 L 75,68 L 74,69 L 73,69 L 72,70 L 71,70 L 71,72 L 70,73 L 70,74 L 69,75 L 69,87 L 70,88 L 70,89 L 69,90 L 69,92 L 70,93 L 70,110 L 71,111 L 71,113 L 73,115 L 73,117 L 76,120 L 76,121 L 77,122 L 78,122 L 79,123 L 91,123 L 93,121 L 94,121 L 95,120 L 96,120 L 98,118 L 101,118 L 103,120 L 104,120 L 105,121 L 106,121 L 107,122 L 108,122 L 109,123 L 113,123 L 114,122 L 116,122 L 117,121 L 120,121 L 120,120 L 121,119 L 123,119 L 124,118 L 126,118 L 127,119 L 128,119 L 130,121 L 132,121 L 133,122 L 134,122 L 135,123 L 142,123 L 143,122 L 144,122 L 145,121 L 146,121 L 152,115 L 152,110 L 153,109 L 153,100 L 152,99 L 152,98 L 153,97 L 153,96 L 154,95 L 154,82 L 153,81 L 153,78 L 152,77 L 152,76 L 150,74 L 150,72 L 148,70 L 147,70 L 145,68 L 140,68 L 139,67 L 137,67 L 136,68 L 131,68 L 130,69 L 129,69 L 128,70 L 127,70 L 127,71 L 126,72 L 123,72 L 121,70 L 120,70 L 118,68 L 117,68 L 116,67 L 114,67 L 113,66 Z" fill="black" /><path d="M 0,0 L 0,215 L 254,215 L 254,0 Z" fill="none" stroke="black" stroke-width="1" /></svg>