<?xml version="1.0" encoding="utf-8" ?>
<svg baseProfile="full" height="218" version="1.1" width="256" xmlns="http://www.w3.org/2000/svg" xmlns:ev="http://www.w3.org/2001/xml-events" xmlns:xlink="http://www.w3.org/1999/xlink"><defs /><rect fill="white" height="218" width="256" x="0" y="0" /><path d="M 71,141 L 63,153 L 63,172 L 70,185 L 77,185 L 84,156 L 81,145 Z" fill="none" stroke="black" stroke-width="1" /><path d="M 71,134 L 90,148 L 90,180 L 74,192 L 59,183 L 57,146 Z" fill="none" stroke="black" stroke-width="1" /><path d="M 175,82 L 167,89 L 169,123 L 178,128 L 188,119 L 188,93 Z" fill="none" stroke="black" stroke-width="1" /><path d="M 178,75 L 194,90 L 194,122 L 182,134 L 161,120 L 161,86 Z" fill="none" stroke="black" stroke-width="1" /><path d="M 40,30 L 33,43 L 34,72 L 46,79 L 54,47 L 51,34 Z" fill="none" stroke="black" stroke-width="1" /><path d="M 43,23 L 60,41 L 60,72 L 45,86 L 27,71 L 28,33 Z" fill="none" stroke="black" stroke-width="1" /><path d="M 0,0 L 0,217 L 255,217 L 255,0 Z" fill="none" stroke="black" stroke-width="1" /></svg>