<?xml version='1.0' encoding='utf-8'?>
<svg width="258" height="220" xmlns="http://www.w3.org/2000/svg" viewBox="0 0 258 220"><rect width="258" height="220" fill="white" /><path d="M 202,150 L 201,151 L 200,151 L 199,152 L 197,152 L 194,155 L 191,155 L 190,154 L 188,154 L 187,153 L 186,153 L 185,152 L 178,152 L 176,154 L 174,154 L 170,158 L 170,160 L 168,162 L 168,196 L 169,197 L 169,198 L 170,199 L 170,201 L 171,201 L 172,202 L 172,203 L 174,205 L 175,205 L 176,206 L 177,206 L 178,207 L 183,207 L 184,206 L 187,206 L 188,205 L 190,205 L 192,203 L 194,203 L 196,205 L 197,205 L 198,206 L 199,206 L 200,207 L 209,207 L 210,206 L 213,206 L 214,205 L 215,205 L 217,203 L 217,202 L 218,201 L 221,201 L 223,203 L 225,203 L 226,204 L 229,204 L 230,205 L 234,205 L 235,204 L 236,204 L 237,203 L 239,203 L 240,202 L 241,202 L 242,201 L 242,200 L 243,199 L 243,194 L 244,193 L 244,190 L 245,189 L 245,186 L 244,185 L 244,172 L 245,171 L 245,164 L 244,163 L 244,161 L 243,160 L 243,158 L 242,157 L 242,156 L 241,155 L 241,154 L 240,154 L 238,152 L 236,152 L 235,151 L 234,151 L 233,150 L 228,150 L 227,151 L 224,151 L 223,152 L 222,152 L 222,153 L 221,154 L 219,154 L 218,155 L 216,155 L 213,152 L 212,152 L 211,151 L 210,151 L 209,150 Z" fill="black" /><path d="M 61,108 L 60,109 L 58,109 L 57,110 L 55,110 L 53,112 L 52,112 L 50,114 L 50,116 L 48,118 L 48,141 L 47,142 L 48,143 L 48,148 L 47,149 L 48,150 L 48,153 L 50,155 L 50,156 L 52,158 L 52,159 L 54,159 L 55,160 L 56,160 L 57,161 L 59,161 L 60,162 L 64,162 L 65,161 L 67,161 L 68,160 L 69,160 L 72,157 L 73,157 L 75,159 L 76,159 L 78,161 L 79,161 L 81,163 L 84,163 L 85,164 L 87,164 L 88,163 L 91,163 L 92,162 L 93,162 L 94,161 L 95,161 L 97,159 L 97,158 L 98,157 L 98,154 L 99,153 L 99,139 L 98,138 L 98,116 L 97,115 L 97,114 L 96,113 L 96,112 L 94,110 L 92,110 L 91,109 L 90,109 L 89,108 L 86,108 L 85,109 L 82,109 L 81,110 L 79,110 L 77,112 L 76,112 L 74,114 L 73,114 L 71,112 L 70,112 L 69,111 L 68,111 L 67,110 L 65,110 L 64,109 L 62,109 Z" fill="black" /><path d="M 136,107 L 135,108 L 134,108 L 133,109 L 132,109 L 131,110 L 130,110 L 128,112 L 128,114 L 126,116 L 126,152 L 128,154 L 128,155 L 129,156 L 129,157 L 133,161 L 135,161 L 136,162 L 143,162 L 144,161 L 147,161 L 151,157 L 151,156 L 153,154 L 153,151 L 154,150 L 154,124 L 153,123 L 153,120 L 154,119 L 154,118 L 153,117 L 153,116 L 152,115 L 152,114 L 148,110 L 147,110 L 145,108 L 142,108 L 141,107 Z" fill="black" /><path d="M 166,38 L 164,40 L 163,40 L 161,42 L 160,42 L 160,43 L 159,44 L 159,45 L 158,46 L 158,47 L 157,48 L 157,58 L 156,59 L 156,65 L 157,66 L 157,69 L 156,70 L 156,83 L 157,84 L 157,85 L 158,86 L 158,87 L 160,89 L 161,89 L 163,91 L 166,91 L 168,93 L 174,93 L 176,91 L 178,91 L 182,87 L 184,87 L 186,89 L 187,89 L 188,90 L 189,90 L 190,91 L 193,91 L 194,92 L 200,92 L 201,91 L 203,91 L 204,90 L 205,90 L 207,88 L 207,87 L 209,85 L 209,84 L 210,83 L 210,82 L 211,81 L 211,61 L 212,60 L 211,59 L 211,46 L 210,45 L 210,44 L 206,40 L 205,40 L 203,38 L 193,38 L 191,40 L 190,40 L 188,42 L 187,42 L 186,43 L 183,43 L 182,42 L 181,42 L 179,40 L 178,40 L 177,39 L 176,39 L 175,38 Z" fill="black" /><path d="M 52,18 L 51,19 L 50,19 L 49,20 L 48,20 L 47,21 L 46,21 L 44,23 L 41,23 L 40,22 L 39,22 L 37,20 L 26,20 L 25,21 L 24,21 L 23,22 L 22,22 L 20,24 L 20,25 L 18,27 L 18,31 L 17,32 L 17,33 L 18,34 L 18,42 L 17,43 L 18,44 L 18,47 L 17,48 L 17,49 L 18,50 L 18,55 L 17,56 L 18,57 L 18,66 L 19,67 L 19,68 L 22,71 L 22,72 L 23,72 L 24,73 L 25,73 L 26,74 L 28,74 L 29,75 L 36,75 L 38,73 L 39,73 L 41,71 L 43,71 L 43,70 L 45,68 L 47,68 L 50,71 L 52,71 L 54,73 L 62,73 L 64,71 L 65,71 L 66,70 L 67,70 L 68,69 L 71,69 L 73,71 L 75,71 L 76,72 L 77,72 L 78,73 L 85,73 L 86,72 L 87,72 L 88,71 L 89,71 L 89,70 L 90,69 L 91,69 L 93,67 L 93,66 L 94,65 L 94,64 L 95,63 L 95,31 L 93,29 L 93,28 L 92,27 L 92,26 L 91,25 L 91,24 L 89,22 L 86,22 L 85,21 L 85,20 L 78,20 L 77,21 L 75,21 L 74,22 L 72,22 L 69,25 L 66,25 L 63,22 L 62,22 L 61,21 L 61,20 L 59,20 L 57,18 Z" fill="black" /></svg>