<?xml version='1.0' encoding='utf-8'?>
<svg width="256" height="218" xmlns="http://www.w3.org/2000/svg" viewBox="0 0 256 218"><rect width="256" height="218" fill="white" /><path d="M 71,135 L 70,136 L 68,136 L 67,137 L 66,137 L 65,138 L 64,138 L 60,142 L 60,145 L 59,146 L 58,146 L 58,149 L 57,150 L 57,154 L 58,155 L 58,166 L 57,167 L 57,168 L 58,169 L 58,179 L 59,180 L 59,181 L 60,182 L 60,183 L 64,187 L 65,187 L 66,188 L 66,189 L 67,189 L 68,190 L 70,190 L 71,191 L 74,191 L 75,190 L 79,190 L 80,189 L 81,189 L 83,187 L 84,187 L 86,185 L 86,184 L 87,183 L 87,182 L 89,180 L 89,148 L 88,147 L 88,145 L 87,144 L 87,142 L 83,138 L 82,138 L 80,136 L 77,136 L 76,135 L 75,135 L 74,136 L 73,136 L 72,135 Z" fill="black" /><path d="M 178,76 L 177,77 L 172,77 L 170,79 L 169,79 L 168,80 L 166,80 L 164,82 L 164,83 L 163,84 L 163,85 L 162,86 L 162,104 L 163,105 L 162,106 L 162,114 L 163,115 L 163,117 L 162,118 L 162,120 L 163,121 L 163,122 L 164,123 L 164,126 L 168,130 L 169,130 L 170,131 L 171,131 L 172,132 L 173,132 L 174,133 L 182,133 L 184,131 L 187,131 L 189,129 L 189,128 L 190,127 L 191,127 L 191,125 L 192,124 L 192,123 L 193,122 L 193,90 L 192,89 L 192,87 L 191,86 L 191,85 L 189,83 L 189,82 L 185,78 L 183,78 L 182,77 L 181,77 L 180,76 Z" fill="black" /><path d="M 43,24 L 42,25 L 40,25 L 39,26 L 36,26 L 32,30 L 31,30 L 30,31 L 30,32 L 29,33 L 29,41 L 28,42 L 28,71 L 29,72 L 29,73 L 30,74 L 30,77 L 33,80 L 33,81 L 34,81 L 36,83 L 40,83 L 42,85 L 45,85 L 46,84 L 49,84 L 50,83 L 51,83 L 51,82 L 52,81 L 53,81 L 55,79 L 55,78 L 57,76 L 57,75 L 58,74 L 58,73 L 59,72 L 59,51 L 58,50 L 58,47 L 59,46 L 59,41 L 58,40 L 58,35 L 57,34 L 57,32 L 55,30 L 54,30 L 53,29 L 53,28 L 52,28 L 50,26 L 46,26 L 45,25 L 44,25 Z" fill="black" /><path d="M 0,0 L 0,217 L 255,217 L 255,0 Z" fill="none" stroke="black" stroke-width="1" /></svg>