<?xml version='1.0' encoding='utf-8'?>
<svg width="256" height="220" xmlns="http://www.w3.org/2000/svg" viewBox="0 0 256 220"><rect width="256" height="220" fill="white" /><path d="M 232,107 L 231,108 L 227,108 L 225,110 L 224,110 L 221,113 L 220,113 L 217,110 L 215,110 L 214,109 L 214,108 L 206,108 L 205,109 L 202,109 L 201,110 L 200,110 L 198,112 L 195,112 L 194,111 L 193,111 L 192,110 L 181,110 L 179,112 L 173,112 L 172,111 L 171,111 L 168,108 L 156,108 L 154,110 L 153,110 L 151,112 L 148,112 L 146,110 L 144,110 L 142,108 L 132,108 L 130,110 L 129,110 L 125,114 L 123,114 L 120,111 L 118,111 L 117,110 L 107,110 L 105,112 L 101,112 L 99,110 L 97,110 L 96,109 L 95,109 L 94,108 L 89,108 L 88,109 L 86,109 L 85,110 L 84,110 L 82,112 L 78,112 L 76,110 L 75,110 L 74,109 L 73,109 L 72,108 L 62,108 L 60,110 L 59,110 L 58,111 L 57,111 L 56,112 L 56,113 L 55,114 L 53,114 L 52,113 L 52,112 L 51,112 L 50,111 L 49,111 L 48,110 L 45,110 L 44,109 L 43,109 L 42,108 L 41,109 L 39,109 L 38,110 L 35,110 L 33,112 L 33,113 L 32,114 L 31,114 L 31,115 L 30,116 L 29,116 L 29,117 L 28,118 L 28,119 L 27,120 L 27,138 L 28,139 L 27,140 L 27,151 L 28,152 L 28,157 L 29,158 L 29,160 L 31,162 L 32,162 L 35,165 L 38,165 L 39,166 L 42,166 L 43,165 L 45,165 L 46,164 L 48,164 L 49,163 L 50,163 L 50,162 L 53,159 L 55,159 L 56,160 L 56,161 L 57,162 L 58,162 L 59,163 L 60,163 L 61,164 L 62,164 L 63,165 L 68,165 L 69,164 L 70,164 L 71,163 L 72,163 L 73,162 L 74,162 L 75,161 L 78,161 L 79,162 L 79,163 L 80,163 L 81,164 L 82,164 L 83,165 L 86,165 L 87,166 L 92,166 L 93,165 L 94,165 L 95,164 L 96,164 L 97,163 L 99,163 L 99,162 L 100,161 L 102,161 L 103,162 L 104,162 L 105,163 L 107,163 L 108,164 L 114,164 L 115,163 L 117,163 L 119,161 L 122,161 L 123,162 L 124,162 L 127,165 L 128,165 L 129,166 L 129,167 L 139,167 L 141,165 L 142,165 L 143,164 L 144,164 L 145,163 L 146,163 L 147,162 L 150,162 L 153,165 L 164,165 L 165,164 L 166,164 L 167,163 L 168,163 L 169,162 L 170,162 L 171,161 L 174,161 L 176,163 L 176,164 L 177,165 L 184,165 L 185,166 L 189,166 L 190,165 L 192,165 L 196,161 L 198,161 L 199,162 L 200,162 L 201,163 L 203,163 L 204,164 L 205,164 L 206,165 L 215,165 L 219,161 L 220,161 L 221,160 L 224,160 L 227,163 L 228,163 L 229,164 L 230,164 L 231,165 L 242,165 L 242,164 L 243,163 L 244,163 L 245,162 L 246,162 L 246,161 L 248,159 L 248,158 L 249,157 L 249,156 L 250,155 L 250,137 L 249,136 L 249,123 L 250,122 L 250,120 L 249,119 L 249,117 L 248,116 L 248,114 L 247,114 L 246,113 L 246,112 L 244,110 L 242,110 L 240,108 L 239,108 L 238,107 Z" fill="black" /><path d="M 153,20 L 152,21 L 151,21 L 150,22 L 149,22 L 146,25 L 145,25 L 145,26 L 143,28 L 143,43 L 142,44 L 142,47 L 143,48 L 143,51 L 142,52 L 142,53 L 143,54 L 143,67 L 144,68 L 144,72 L 145,73 L 147,73 L 149,75 L 150,75 L 151,76 L 154,76 L 155,77 L 158,77 L 159,76 L 162,76 L 163,75 L 165,75 L 167,73 L 170,73 L 172,75 L 174,75 L 175,76 L 176,76 L 177,77 L 180,77 L 181,78 L 185,78 L 186,77 L 188,77 L 190,75 L 192,75 L 192,74 L 194,72 L 198,72 L 201,75 L 202,75 L 203,76 L 204,76 L 205,77 L 215,77 L 217,75 L 220,75 L 221,74 L 222,74 L 225,77 L 226,77 L 228,79 L 230,79 L 231,80 L 238,80 L 239,79 L 241,79 L 243,77 L 244,77 L 246,75 L 246,74 L 248,72 L 248,68 L 249,67 L 249,53 L 250,52 L 250,31 L 248,29 L 248,27 L 246,25 L 246,24 L 245,24 L 244,23 L 243,23 L 242,22 L 241,22 L 239,20 L 232,20 L 230,22 L 227,22 L 225,24 L 224,24 L 224,25 L 223,26 L 221,26 L 219,24 L 218,24 L 216,22 L 213,22 L 212,21 L 210,21 L 209,20 L 206,20 L 205,21 L 204,21 L 203,22 L 201,22 L 198,25 L 195,25 L 194,24 L 193,24 L 192,23 L 191,23 L 190,22 L 189,22 L 188,21 L 187,21 L 186,20 L 182,20 L 181,21 L 180,21 L 179,22 L 177,22 L 176,23 L 175,23 L 174,24 L 173,24 L 172,25 L 169,25 L 166,22 L 165,22 L 164,21 L 163,21 L 162,20 L 157,20 L 156,21 L 154,21 Z" fill="black" /><path d="M 59,19 L 58,20 L 54,20 L 52,22 L 51,22 L 50,23 L 49,23 L 47,25 L 44,25 L 42,23 L 42,22 L 41,22 L 40,21 L 38,21 L 37,20 L 31,20 L 30,21 L 28,21 L 27,22 L 25,22 L 25,23 L 24,24 L 23,24 L 21,26 L 21,27 L 20,28 L 20,30 L 19,31 L 19,33 L 17,35 L 17,47 L 18,48 L 18,60 L 17,61 L 17,62 L 19,64 L 19,68 L 21,70 L 21,71 L 22,72 L 22,73 L 23,73 L 25,75 L 27,75 L 28,76 L 30,76 L 31,77 L 34,77 L 35,76 L 37,76 L 38,75 L 40,75 L 41,74 L 42,74 L 43,73 L 44,73 L 45,72 L 47,72 L 49,74 L 50,74 L 51,75 L 52,75 L 54,77 L 56,77 L 57,78 L 60,78 L 61,77 L 66,77 L 68,75 L 69,75 L 69,74 L 72,71 L 72,70 L 73,69 L 73,68 L 74,67 L 74,58 L 73,57 L 74,56 L 74,44 L 75,43 L 75,39 L 74,38 L 75,37 L 75,32 L 74,31 L 74,27 L 70,23 L 70,22 L 68,22 L 66,20 L 61,20 L 60,19 Z" fill="black" /><path d="M 0,0 L 0,219 L 255,219 L 255,0 Z" fill="none" stroke="black" stroke-width="1" /></svg>