<?xml version='1.0' encoding='utf-8'?>
<svg width="259" height="218" xmlns="http://www.w3.org/2000/svg" viewBox="0 0 259 218"><rect width="259" height="218" fill="white" /><path d="M 114,63 L 113,64 L 108,64 L 107,65 L 106,65 L 105,66 L 104,66 L 102,68 L 101,68 L 99,66 L 98,66 L 97,65 L 96,65 L 95,64 L 88,64 L 87,65 L 86,65 L 85,66 L 84,66 L 83,67 L 82,67 L 81,68 L 78,68 L 77,67 L 76,67 L 75,66 L 74,66 L 73,65 L 72,65 L 71,64 L 66,64 L 65,65 L 62,65 L 61,66 L 60,66 L 59,67 L 58,67 L 57,68 L 52,68 L 51,67 L 51,66 L 43,66 L 42,67 L 41,67 L 40,68 L 38,68 L 37,69 L 36,69 L 35,70 L 32,70 L 30,68 L 29,68 L 27,66 L 25,66 L 24,65 L 18,65 L 17,66 L 14,66 L 13,67 L 12,67 L 11,68 L 10,68 L 8,70 L 8,72 L 7,73 L 7,75 L 6,76 L 6,79 L 5,80 L 5,82 L 4,83 L 4,87 L 5,88 L 5,91 L 4,92 L 4,96 L 5,97 L 5,106 L 6,107 L 6,110 L 7,111 L 7,113 L 8,114 L 8,115 L 9,116 L 9,117 L 12,120 L 13,120 L 14,121 L 18,121 L 19,122 L 20,121 L 26,121 L 28,119 L 29,119 L 30,118 L 33,118 L 34,119 L 35,119 L 37,121 L 39,121 L 40,122 L 43,122 L 44,121 L 47,121 L 48,120 L 50,120 L 51,119 L 52,119 L 52,117 L 53,116 L 56,116 L 58,118 L 59,118 L 60,119 L 62,119 L 64,121 L 71,121 L 73,119 L 74,119 L 78,115 L 81,115 L 85,119 L 87,119 L 88,120 L 90,120 L 91,121 L 94,121 L 95,120 L 97,120 L 98,119 L 99,119 L 102,116 L 105,116 L 106,117 L 107,117 L 109,119 L 110,119 L 111,120 L 112,120 L 113,121 L 123,121 L 123,120 L 124,119 L 125,119 L 127,117 L 129,117 L 130,118 L 131,118 L 132,119 L 133,119 L 134,120 L 135,120 L 136,121 L 140,121 L 141,122 L 143,122 L 144,121 L 146,121 L 148,119 L 149,119 L 149,118 L 153,114 L 156,117 L 159,117 L 160,118 L 160,119 L 170,119 L 172,117 L 174,117 L 174,115 L 175,114 L 178,114 L 183,119 L 185,119 L 186,120 L 187,120 L 188,121 L 193,121 L 194,120 L 196,120 L 199,117 L 200,117 L 202,115 L 206,115 L 210,119 L 213,119 L 214,120 L 219,120 L 220,119 L 223,119 L 225,117 L 225,116 L 226,115 L 227,115 L 227,114 L 228,113 L 228,108 L 229,107 L 229,105 L 230,104 L 230,102 L 231,101 L 231,100 L 230,99 L 230,94 L 229,93 L 229,89 L 230,88 L 230,86 L 229,85 L 229,77 L 227,75 L 227,72 L 225,70 L 225,69 L 224,69 L 223,68 L 222,68 L 221,67 L 221,66 L 220,66 L 219,65 L 218,65 L 217,64 L 210,64 L 209,65 L 208,65 L 207,66 L 206,66 L 204,68 L 203,68 L 202,69 L 200,69 L 199,68 L 198,68 L 196,66 L 196,65 L 195,64 L 190,64 L 189,63 L 186,63 L 185,64 L 182,64 L 180,66 L 179,66 L 175,70 L 172,70 L 171,69 L 171,68 L 169,68 L 167,66 L 165,66 L 164,65 L 162,65 L 161,64 L 160,64 L 159,65 L 156,65 L 155,66 L 154,66 L 154,67 L 153,68 L 152,68 L 151,69 L 149,69 L 148,68 L 147,68 L 145,66 L 144,66 L 143,65 L 140,65 L 139,64 L 136,64 L 135,65 L 134,65 L 133,66 L 130,66 L 129,67 L 128,67 L 126,69 L 125,69 L 123,67 L 123,66 L 122,66 L 121,65 L 120,65 L 119,64 L 115,64 Z" fill="black" /><path d="M 0,0 L 0,217 L 258,217 L 258,0 Z" fill="none" stroke="black" stroke-width="1" /></svg>