<?xml version='1.0' encoding='utf-8'?>
<svg width="260" height="221" xmlns="http://www.w3.org/2000/svg" viewBox="0 0 260 221"><rect width="260" height="221" fill="white" /><path d="M 126,149 L 125,150 L 124,150 L 123,151 L 122,151 L 120,153 L 119,153 L 116,156 L 116,157 L 114,159 L 114,182 L 113,183 L 114,184 L 114,198 L 115,198 L 116,199 L 116,200 L 118,202 L 118,203 L 120,205 L 121,205 L 122,206 L 123,206 L 125,208 L 135,208 L 136,207 L 137,207 L 138,206 L 139,206 L 139,205 L 141,203 L 145,203 L 148,206 L 149,206 L 150,207 L 151,207 L 152,208 L 157,208 L 158,207 L 159,207 L 160,206 L 164,206 L 168,202 L 168,201 L 169,200 L 169,198 L 171,196 L 171,187 L 172,186 L 172,167 L 173,166 L 173,164 L 172,163 L 172,160 L 171,159 L 171,158 L 169,156 L 169,155 L 167,153 L 166,153 L 165,152 L 164,152 L 163,151 L 158,151 L 157,150 L 153,150 L 152,151 L 149,151 L 147,153 L 146,153 L 144,155 L 142,155 L 138,151 L 136,151 L 135,150 L 131,150 L 130,149 Z" fill="black" /><path d="M 208,69 L 207,70 L 206,70 L 205,71 L 202,71 L 202,72 L 199,75 L 197,75 L 195,73 L 194,73 L 192,71 L 180,71 L 179,72 L 178,72 L 173,77 L 172,77 L 169,74 L 168,74 L 167,73 L 166,73 L 165,72 L 164,72 L 163,71 L 154,71 L 152,73 L 150,73 L 148,75 L 148,76 L 147,77 L 147,78 L 146,79 L 146,80 L 145,81 L 145,82 L 144,83 L 144,104 L 143,105 L 143,107 L 144,108 L 144,111 L 145,112 L 145,116 L 146,117 L 146,119 L 148,121 L 148,122 L 150,124 L 151,124 L 153,126 L 154,126 L 155,127 L 159,127 L 160,128 L 165,128 L 169,124 L 170,124 L 172,122 L 174,122 L 175,121 L 177,121 L 178,122 L 179,122 L 181,124 L 184,124 L 186,126 L 187,126 L 188,125 L 191,125 L 192,124 L 194,124 L 196,122 L 203,122 L 206,125 L 208,125 L 209,126 L 215,126 L 216,125 L 217,125 L 218,124 L 221,124 L 225,120 L 225,119 L 226,118 L 226,117 L 227,116 L 227,84 L 226,83 L 226,81 L 225,80 L 225,76 L 223,74 L 223,73 L 222,73 L 221,72 L 220,72 L 219,71 L 218,71 L 217,70 L 216,70 L 215,69 Z" fill="black" /><path d="M 59,26 L 58,27 L 55,27 L 53,29 L 52,29 L 47,34 L 47,35 L 46,36 L 46,46 L 47,47 L 47,54 L 48,55 L 48,73 L 49,74 L 49,75 L 50,76 L 50,77 L 52,79 L 52,80 L 53,80 L 55,82 L 59,82 L 60,83 L 61,83 L 62,84 L 68,84 L 70,82 L 71,82 L 75,78 L 79,78 L 80,79 L 80,80 L 81,80 L 82,81 L 83,81 L 84,82 L 89,82 L 90,83 L 94,83 L 95,82 L 97,82 L 98,81 L 99,81 L 102,78 L 102,77 L 104,75 L 104,74 L 105,73 L 105,55 L 104,54 L 104,52 L 105,51 L 104,50 L 104,49 L 103,48 L 103,39 L 102,38 L 102,36 L 101,35 L 101,34 L 99,32 L 99,31 L 98,31 L 96,29 L 94,29 L 92,27 L 85,27 L 83,29 L 79,29 L 76,32 L 73,32 L 71,30 L 71,29 L 70,29 L 69,28 L 68,28 L 67,27 L 64,27 L 63,26 Z" fill="black" /></svg>