<?xml version="1.0" encoding="utf-8" ?>
<svg baseProfile="full" height="217" version="1.1" width="260" xmlns="http://www.w3.org/2000/svg" xmlns:ev="http://www.w3.org/2001/xml-events" xmlns:xlink="http://www.w3.org/1999/xlink"><defs /><rect fill="white" height="217" width="260" x="0" y="0" /><path d="M 25,153 L 18,158 L 16,185 L 29,199 L 35,194 L 35,160 Z" fill="none" stroke="black" stroke-width="1" /><path d="M 48,152 L 40,164 L 41,187 L 54,197 L 59,156 Z" fill="none" stroke="black" stroke-width="1" /><path d="M 178,149 L 170,158 L 170,182 L 183,196 L 189,192 L 190,161 Z" fill="none" stroke="black" stroke-width="1" /><path d="M 204,148 L 195,156 L 196,182 L 209,193 L 215,183 L 213,158 Z" fill="none" stroke="black" stroke-width="1" /><path d="M 57,147 L 64,197 L 21,205 L 13,154 Z" fill="none" stroke="black" stroke-width="1" /><path d="M 213,145 L 220,193 L 170,198 L 165,151 Z" fill="none" stroke="black" stroke-width="1" /><path d="M 118,92 L 109,102 L 110,130 L 124,137 L 127,96 Z" fill="none" stroke="black" stroke-width="1" /><path d="M 92,91 L 85,99 L 86,128 L 97,138 L 104,131 L 103,96 Z" fill="none" stroke="black" stroke-width="1" /><path d="M 86,87 L 132,92 L 127,144 L 83,139 Z" fill="none" stroke="black" stroke-width="1" /><path d="M 193,32 L 178,39 L 178,65 L 188,76 L 197,72 Z" fill="none" stroke="black" stroke-width="1" /><path d="M 157,32 L 154,68 L 166,77 L 173,65 L 171,42 L 165,32 Z" fill="none" stroke="black" stroke-width="1" /><path d="M 197,27 L 202,77 L 154,82 L 148,32 Z" fill="none" stroke="black" stroke-width="1" /><path d="M 61,24 L 47,28 L 52,66 L 63,59 Z" fill="none" stroke="black" stroke-width="1" /><path d="M 30,22 L 22,30 L 22,57 L 34,67 L 41,37 L 39,26 Z" fill="none" stroke="black" stroke-width="1" /><path d="M 22,20 L 68,23 L 65,68 L 21,69 Z" fill="none" stroke="black" stroke-width="1" /><path d="M 0,0 L 0,216 L 259,216 L 259,0 Z" fill="none" stroke="black" stroke-width="1" /></svg>