<?xml version='1.0' encoding='utf-8'?>
<svg width="260" height="217" xmlns="http://www.w3.org/2000/svg" viewBox="0 0 260 217"><rect width="260" height="217" fill="white" /><path d="M 48,147 L 47,148 L 45,148 L 43,150 L 42,150 L 40,152 L 37,152 L 35,150 L 34,150 L 33,149 L 32,149 L 31,148 L 22,148 L 21,149 L 20,149 L 19,150 L 18,150 L 14,154 L 14,156 L 13,157 L 13,161 L 12,162 L 12,183 L 13,184 L 13,187 L 12,188 L 12,189 L 13,190 L 13,192 L 14,193 L 14,196 L 16,198 L 16,199 L 21,204 L 23,204 L 24,203 L 27,203 L 28,204 L 30,204 L 31,203 L 32,203 L 34,201 L 35,201 L 37,199 L 41,199 L 42,200 L 43,200 L 44,201 L 47,201 L 48,202 L 53,202 L 54,201 L 58,201 L 60,199 L 61,199 L 63,197 L 63,195 L 65,193 L 65,181 L 64,180 L 64,173 L 65,172 L 64,171 L 64,168 L 63,167 L 63,162 L 64,161 L 64,159 L 63,158 L 63,156 L 62,155 L 62,154 L 61,153 L 61,152 L 57,148 L 54,148 L 53,147 Z" fill="black" /><path d="M 203,143 L 202,144 L 199,144 L 198,145 L 197,145 L 196,146 L 195,146 L 193,148 L 190,148 L 189,147 L 189,146 L 187,146 L 185,144 L 175,144 L 173,146 L 172,146 L 171,147 L 170,147 L 166,151 L 166,153 L 165,154 L 165,155 L 164,156 L 164,159 L 165,160 L 165,161 L 164,162 L 164,167 L 165,168 L 165,184 L 166,185 L 166,190 L 167,191 L 167,192 L 168,193 L 168,195 L 170,197 L 171,197 L 173,199 L 177,199 L 178,200 L 180,200 L 181,201 L 184,201 L 186,199 L 188,199 L 190,197 L 191,197 L 192,196 L 193,196 L 194,195 L 197,195 L 199,197 L 201,197 L 202,198 L 203,198 L 204,199 L 209,199 L 211,197 L 214,197 L 216,195 L 217,195 L 219,193 L 219,191 L 220,190 L 220,189 L 221,188 L 221,187 L 220,186 L 220,184 L 221,183 L 221,176 L 220,175 L 220,169 L 219,168 L 219,157 L 218,156 L 218,154 L 217,153 L 217,152 L 216,151 L 216,150 L 215,149 L 215,148 L 213,146 L 212,146 L 211,145 L 210,145 L 209,144 L 208,144 L 207,143 Z" fill="black" /><path d="M 91,86 L 89,88 L 86,88 L 84,90 L 84,91 L 83,92 L 82,92 L 82,93 L 80,95 L 80,99 L 79,100 L 79,102 L 80,103 L 80,115 L 81,116 L 81,119 L 80,120 L 80,127 L 81,128 L 81,130 L 82,131 L 82,136 L 84,138 L 84,139 L 86,141 L 87,141 L 89,143 L 92,143 L 93,144 L 95,144 L 96,143 L 97,143 L 98,142 L 99,143 L 102,143 L 106,139 L 108,139 L 110,141 L 112,141 L 114,143 L 117,143 L 118,144 L 125,144 L 126,143 L 127,143 L 131,139 L 131,138 L 133,136 L 133,114 L 132,113 L 132,112 L 133,111 L 133,107 L 132,106 L 132,104 L 133,103 L 132,102 L 132,95 L 131,94 L 131,92 L 127,88 L 123,88 L 122,87 L 120,87 L 119,88 L 114,88 L 113,89 L 112,89 L 111,90 L 110,90 L 108,92 L 106,92 L 103,89 L 103,88 L 100,88 L 98,86 Z" fill="black" /><path d="M 186,25 L 185,26 L 182,26 L 182,27 L 181,28 L 179,28 L 177,30 L 176,30 L 175,31 L 172,31 L 171,30 L 170,30 L 169,29 L 168,29 L 167,28 L 166,28 L 164,26 L 161,26 L 160,27 L 158,27 L 157,28 L 154,28 L 152,30 L 151,30 L 149,32 L 149,33 L 148,34 L 148,39 L 147,40 L 147,46 L 148,47 L 148,64 L 149,65 L 149,69 L 150,70 L 150,74 L 151,75 L 151,76 L 152,77 L 152,79 L 154,81 L 156,81 L 157,82 L 158,82 L 159,83 L 167,83 L 169,81 L 171,81 L 175,77 L 178,77 L 180,79 L 181,79 L 183,81 L 185,81 L 186,82 L 191,82 L 192,81 L 195,81 L 197,79 L 198,79 L 200,77 L 201,77 L 201,74 L 202,73 L 202,72 L 203,71 L 203,69 L 202,68 L 202,62 L 201,61 L 201,60 L 202,59 L 202,52 L 201,51 L 201,44 L 202,43 L 202,40 L 201,39 L 201,34 L 200,33 L 200,32 L 199,31 L 199,30 L 197,28 L 196,28 L 194,26 L 188,26 L 187,25 Z" fill="black" /><path d="M 30,18 L 29,19 L 27,19 L 26,20 L 24,20 L 23,21 L 22,21 L 20,23 L 20,24 L 18,26 L 18,28 L 17,29 L 17,39 L 18,40 L 18,41 L 17,42 L 17,49 L 18,50 L 18,61 L 20,63 L 20,66 L 22,68 L 22,69 L 24,69 L 26,71 L 29,71 L 30,72 L 34,72 L 35,71 L 37,71 L 38,70 L 39,70 L 40,69 L 41,69 L 42,68 L 45,68 L 48,71 L 53,71 L 54,72 L 56,72 L 57,71 L 58,71 L 59,70 L 60,70 L 61,69 L 62,69 L 64,67 L 65,67 L 65,66 L 66,65 L 66,64 L 67,63 L 67,61 L 69,59 L 69,26 L 67,24 L 67,23 L 64,20 L 62,20 L 61,19 L 54,19 L 53,20 L 49,20 L 46,23 L 44,23 L 43,22 L 42,22 L 41,21 L 40,21 L 39,20 L 38,20 L 37,19 L 36,19 L 35,18 Z" fill="black" /></svg>