<?xml version='1.0' encoding='utf-8'?>
<svg width="259" height="219" xmlns="http://www.w3.org/2000/svg" viewBox="0 0 259 219"><rect width="259" height="219" fill="white" /><path d="M 217,153 L 216,154 L 214,154 L 210,158 L 209,158 L 209,159 L 208,160 L 208,161 L 207,162 L 207,164 L 206,165 L 206,170 L 207,171 L 207,182 L 206,183 L 206,189 L 207,190 L 207,197 L 208,198 L 208,200 L 212,204 L 213,204 L 214,205 L 225,205 L 227,203 L 229,203 L 231,201 L 231,199 L 233,197 L 233,185 L 234,184 L 234,179 L 233,178 L 234,177 L 234,167 L 233,166 L 233,162 L 231,160 L 231,159 L 229,157 L 229,156 L 228,156 L 226,154 L 220,154 L 219,153 Z" fill="black" /><path d="M 63,152 L 62,153 L 58,153 L 55,156 L 54,156 L 52,158 L 52,159 L 48,163 L 48,165 L 49,166 L 49,181 L 50,182 L 50,184 L 49,185 L 49,193 L 50,194 L 50,199 L 56,205 L 59,205 L 60,206 L 61,206 L 62,207 L 67,207 L 68,206 L 69,206 L 70,205 L 71,205 L 75,201 L 75,198 L 76,197 L 76,194 L 77,193 L 77,191 L 76,190 L 76,170 L 77,169 L 77,166 L 76,165 L 76,163 L 75,162 L 75,160 L 74,159 L 74,158 L 70,154 L 68,154 L 67,153 L 64,153 Z" fill="black" /><path d="M 82,86 L 81,87 L 80,87 L 79,88 L 78,88 L 77,89 L 76,89 L 74,91 L 74,95 L 73,96 L 72,96 L 72,98 L 71,99 L 71,103 L 70,104 L 70,113 L 71,114 L 71,124 L 70,125 L 70,127 L 71,128 L 71,131 L 72,132 L 72,134 L 75,137 L 76,137 L 77,138 L 78,138 L 80,140 L 81,140 L 82,141 L 85,141 L 86,140 L 88,140 L 89,139 L 92,139 L 98,133 L 100,133 L 102,135 L 103,135 L 104,136 L 104,137 L 105,137 L 106,138 L 113,138 L 114,137 L 119,137 L 121,135 L 121,134 L 122,133 L 122,132 L 123,131 L 123,126 L 124,125 L 124,120 L 125,119 L 125,95 L 123,93 L 123,92 L 122,92 L 121,91 L 121,90 L 120,90 L 119,89 L 118,89 L 117,88 L 114,88 L 113,87 L 112,87 L 111,88 L 107,88 L 106,89 L 105,89 L 104,90 L 97,90 L 95,88 L 94,88 L 92,86 Z" fill="black" /><path d="M 153,20 L 152,21 L 150,21 L 149,22 L 148,22 L 147,23 L 146,23 L 145,24 L 145,25 L 144,26 L 144,29 L 143,30 L 142,30 L 142,57 L 141,58 L 141,66 L 142,67 L 142,70 L 144,72 L 144,73 L 145,73 L 148,76 L 149,76 L 150,77 L 157,77 L 158,76 L 159,76 L 160,75 L 163,75 L 163,74 L 164,73 L 165,73 L 166,72 L 168,72 L 170,74 L 170,75 L 172,75 L 174,77 L 176,77 L 177,78 L 182,78 L 183,77 L 185,77 L 186,76 L 187,76 L 188,75 L 189,75 L 191,73 L 191,71 L 192,70 L 192,68 L 193,67 L 193,60 L 192,59 L 192,56 L 193,55 L 193,36 L 194,35 L 193,34 L 193,29 L 192,28 L 192,27 L 189,24 L 188,24 L 186,22 L 182,22 L 181,21 L 180,22 L 174,22 L 174,23 L 173,24 L 171,24 L 170,25 L 167,25 L 164,22 L 162,22 L 161,21 L 158,21 L 157,20 Z" fill="black" /><path d="M 46,17 L 45,18 L 43,18 L 41,20 L 40,20 L 40,21 L 38,23 L 38,25 L 36,27 L 36,31 L 35,32 L 35,33 L 34,34 L 34,64 L 36,66 L 36,67 L 38,69 L 39,69 L 41,71 L 52,71 L 54,69 L 55,69 L 59,65 L 59,64 L 60,63 L 60,62 L 61,61 L 61,55 L 62,54 L 61,53 L 61,49 L 62,48 L 62,35 L 63,34 L 63,26 L 62,25 L 62,24 L 61,23 L 61,22 L 57,18 L 54,18 L 53,17 Z" fill="black" /></svg>