<?xml version='1.0' encoding='utf-8'?>
<svg width="257" height="219" xmlns="http://www.w3.org/2000/svg" viewBox="0 0 257 219"><rect width="257" height="219" fill="white" /><path d="M 182,137 L 181,138 L 177,138 L 175,140 L 174,140 L 169,145 L 169,148 L 168,149 L 168,161 L 169,162 L 169,164 L 168,165 L 168,185 L 169,186 L 169,187 L 170,188 L 170,189 L 174,193 L 175,193 L 177,195 L 187,195 L 188,194 L 189,194 L 190,193 L 191,193 L 191,192 L 192,191 L 193,191 L 193,190 L 194,189 L 195,189 L 195,188 L 196,187 L 196,186 L 197,185 L 197,184 L 198,183 L 198,181 L 199,180 L 199,150 L 198,149 L 198,147 L 197,146 L 197,144 L 195,142 L 195,141 L 194,140 L 193,140 L 191,138 L 187,138 L 186,137 Z" fill="black" /><path d="M 86,131 L 85,132 L 82,132 L 80,134 L 79,134 L 77,136 L 77,137 L 76,138 L 76,139 L 74,141 L 74,176 L 76,178 L 76,180 L 78,182 L 78,183 L 79,183 L 81,185 L 82,185 L 83,186 L 84,186 L 85,187 L 90,187 L 91,188 L 92,187 L 96,187 L 97,186 L 98,186 L 101,183 L 101,182 L 102,181 L 103,181 L 103,180 L 104,179 L 104,178 L 105,177 L 105,141 L 104,140 L 104,139 L 103,138 L 103,136 L 101,134 L 100,134 L 98,132 L 95,132 L 94,131 Z" fill="black" /><path d="M 178,34 L 177,35 L 176,35 L 175,36 L 174,36 L 173,37 L 172,37 L 171,38 L 170,38 L 170,39 L 169,40 L 169,41 L 168,42 L 168,43 L 167,44 L 167,48 L 166,49 L 166,51 L 167,52 L 167,55 L 168,56 L 168,58 L 167,59 L 167,77 L 168,78 L 168,81 L 169,82 L 169,83 L 170,84 L 170,85 L 172,87 L 173,87 L 174,88 L 174,89 L 176,89 L 177,90 L 181,90 L 182,91 L 184,91 L 185,90 L 187,90 L 188,89 L 191,89 L 195,85 L 195,84 L 197,82 L 197,65 L 199,63 L 199,62 L 198,61 L 198,56 L 197,55 L 197,44 L 195,42 L 195,40 L 193,38 L 192,38 L 191,37 L 191,36 L 190,36 L 189,35 L 188,35 L 187,34 Z" fill="black" /><path d="M 54,22 L 53,23 L 52,23 L 51,24 L 50,24 L 49,25 L 48,25 L 47,26 L 47,27 L 44,30 L 44,32 L 43,33 L 43,37 L 44,38 L 43,39 L 43,41 L 42,42 L 42,43 L 43,44 L 43,47 L 42,48 L 42,52 L 43,53 L 43,60 L 42,61 L 42,68 L 44,70 L 44,75 L 48,79 L 49,79 L 50,80 L 51,80 L 52,81 L 55,81 L 56,82 L 58,82 L 59,81 L 62,81 L 63,80 L 64,80 L 65,79 L 66,79 L 69,76 L 69,75 L 71,73 L 71,71 L 72,70 L 72,59 L 71,58 L 71,56 L 72,55 L 72,51 L 73,50 L 73,48 L 72,47 L 72,46 L 73,45 L 73,33 L 71,31 L 71,29 L 69,27 L 69,26 L 68,26 L 66,24 L 64,24 L 63,23 L 62,23 L 61,22 Z" fill="black" /><path d="M 0,0 L 0,218 L 256,218 L 256,0 Z" fill="none" stroke="black" stroke-width="1" /></svg>