<?xml version="1.0" encoding="utf-8" ?>
<svg baseProfile="full" height="218" version="1.1" width="259" xmlns="http://www.w3.org/2000/svg" xmlns:ev="http://www.w3.org/2001/xml-events" xmlns:xlink="http://www.w3.org/1999/xlink"><defs /><rect fill="white" height="218" width="259" x="0" y="0" /><path d="M 136,71 L 132,109 L 144,115 L 145,72 Z" fill="none" stroke="black" stroke-width="1" /><path d="M 47,71 L 35,75 L 34,113 L 40,116 L 53,111 Z" fill="none" stroke="black" stroke-width="1" /><path d="M 212,70 L 204,79 L 205,105 L 220,113 L 221,76 Z" fill="none" stroke="black" stroke-width="1" /><path d="M 159,70 L 153,73 L 155,110 L 166,114 L 175,109 L 173,75 Z" fill="none" stroke="black" stroke-width="1" /><path d="M 110,70 L 106,105 L 121,115 L 125,80 L 119,70 Z" fill="none" stroke="black" stroke-width="1" /><path d="M 82,73 L 81,110 L 95,115 L 102,111 L 100,72 Z" fill="none" stroke="black" stroke-width="1" /><path d="M 20,70 L 12,74 L 9,91 L 12,111 L 23,116 L 31,82 Z" fill="none" stroke="black" stroke-width="1" /><path d="M 65,69 L 56,95 L 58,108 L 69,115 L 77,103 L 77,77 Z" fill="none" stroke="black" stroke-width="1" /><path d="M 187,68 L 178,79 L 178,99 L 190,114 L 198,111 L 198,80 Z" fill="none" stroke="black" stroke-width="1" /><path d="M 3,83 L 217,63 L 232,101 L 19,123 Z" fill="none" stroke="black" stroke-width="1" /><path d="M 0,0 L 0,217 L 258,217 L 258,0 Z" fill="none" stroke="black" stroke-width="1" /></svg>