<?xml version='1.0' encoding='utf-8'?>
<svg width="256" height="221" xmlns="http://www.w3.org/2000/svg" viewBox="0 0 256 221"><rect width="256" height="221" fill="white" /><path d="M 136,148 L 135,149 L 132,149 L 131,150 L 130,150 L 125,155 L 125,156 L 124,157 L 124,158 L 123,159 L 123,164 L 124,165 L 124,178 L 125,179 L 125,186 L 124,187 L 124,188 L 125,189 L 125,195 L 126,196 L 126,197 L 128,199 L 128,200 L 130,202 L 131,202 L 132,203 L 133,203 L 134,204 L 135,204 L 136,205 L 141,205 L 142,204 L 145,204 L 146,203 L 147,203 L 148,202 L 150,202 L 151,201 L 154,201 L 156,203 L 156,204 L 157,204 L 158,205 L 159,205 L 160,206 L 163,206 L 164,207 L 165,207 L 166,206 L 171,206 L 173,204 L 175,204 L 177,202 L 179,202 L 180,203 L 181,203 L 182,204 L 188,204 L 189,205 L 192,205 L 193,204 L 195,204 L 196,203 L 197,203 L 198,202 L 199,202 L 201,200 L 201,199 L 202,198 L 204,198 L 206,200 L 207,200 L 209,202 L 210,202 L 211,203 L 212,203 L 213,204 L 221,204 L 222,203 L 223,203 L 224,202 L 225,202 L 229,198 L 229,197 L 231,195 L 231,182 L 232,181 L 231,180 L 231,161 L 230,160 L 230,159 L 229,158 L 229,157 L 228,157 L 227,156 L 227,155 L 225,153 L 224,153 L 223,152 L 222,152 L 221,151 L 211,151 L 209,153 L 208,153 L 207,154 L 206,154 L 205,155 L 204,155 L 201,158 L 196,153 L 194,153 L 193,152 L 190,152 L 189,153 L 188,153 L 187,152 L 186,152 L 185,153 L 183,153 L 182,154 L 180,154 L 179,155 L 176,155 L 174,153 L 172,153 L 171,152 L 171,151 L 168,151 L 167,150 L 160,150 L 159,151 L 156,151 L 154,153 L 151,153 L 149,151 L 148,151 L 147,150 L 147,149 L 145,149 L 144,148 Z" fill="black" /><path d="M 54,145 L 53,146 L 52,146 L 51,147 L 48,147 L 48,148 L 47,149 L 46,149 L 44,151 L 44,152 L 43,153 L 42,153 L 42,156 L 41,157 L 41,159 L 40,160 L 40,163 L 41,164 L 41,169 L 40,170 L 40,173 L 41,174 L 41,185 L 40,186 L 40,192 L 41,193 L 41,195 L 43,197 L 43,198 L 44,199 L 44,200 L 46,202 L 48,202 L 50,204 L 61,204 L 63,202 L 65,202 L 67,200 L 67,199 L 68,198 L 69,198 L 69,197 L 70,196 L 70,193 L 71,192 L 71,157 L 70,156 L 70,155 L 69,154 L 69,153 L 65,149 L 64,149 L 63,148 L 63,147 L 61,147 L 60,146 L 57,146 L 56,145 Z" fill="black" /><path d="M 132,29 L 131,30 L 130,30 L 129,31 L 126,31 L 125,32 L 124,32 L 123,33 L 122,33 L 122,34 L 121,35 L 118,35 L 116,33 L 115,33 L 113,31 L 112,31 L 111,30 L 103,30 L 102,31 L 100,31 L 99,32 L 98,32 L 97,33 L 96,33 L 95,34 L 92,34 L 90,32 L 89,32 L 88,31 L 78,31 L 77,32 L 76,32 L 75,33 L 73,33 L 71,35 L 69,35 L 67,33 L 66,33 L 64,31 L 60,31 L 59,30 L 54,30 L 53,31 L 49,31 L 47,33 L 46,33 L 44,35 L 44,38 L 43,39 L 43,40 L 42,41 L 42,43 L 41,44 L 41,46 L 42,47 L 42,52 L 43,53 L 42,54 L 42,68 L 43,69 L 43,76 L 44,77 L 44,79 L 46,81 L 46,82 L 50,86 L 51,86 L 52,87 L 53,87 L 54,88 L 61,88 L 62,87 L 63,87 L 64,86 L 65,86 L 67,84 L 68,84 L 70,82 L 71,82 L 73,84 L 74,84 L 76,86 L 79,86 L 80,87 L 81,87 L 82,86 L 89,86 L 90,85 L 91,85 L 92,84 L 93,84 L 93,83 L 95,81 L 99,81 L 100,82 L 102,82 L 104,84 L 114,84 L 116,82 L 117,82 L 120,79 L 123,79 L 126,82 L 127,82 L 128,83 L 128,84 L 130,84 L 131,85 L 132,85 L 133,86 L 136,86 L 137,85 L 140,85 L 141,84 L 143,84 L 148,79 L 152,79 L 155,82 L 156,82 L 157,83 L 159,83 L 160,84 L 163,84 L 164,83 L 167,83 L 168,82 L 169,82 L 170,81 L 171,81 L 172,80 L 172,79 L 173,78 L 175,78 L 178,81 L 178,82 L 179,82 L 181,84 L 182,84 L 183,85 L 185,85 L 186,86 L 195,86 L 196,85 L 197,85 L 200,82 L 201,82 L 201,81 L 205,77 L 205,75 L 206,74 L 206,67 L 207,66 L 207,55 L 206,54 L 206,42 L 205,41 L 205,39 L 203,37 L 202,37 L 201,36 L 201,35 L 200,35 L 198,33 L 195,33 L 194,32 L 192,32 L 191,31 L 188,31 L 186,33 L 184,33 L 182,35 L 181,35 L 178,38 L 175,38 L 174,37 L 174,36 L 171,33 L 170,33 L 169,32 L 167,32 L 166,31 L 158,31 L 156,33 L 153,33 L 148,38 L 146,36 L 146,35 L 145,34 L 144,34 L 143,33 L 142,33 L 140,31 L 138,31 L 136,29 Z" fill="black" /><path d="M 0,0 L 0,220 L 255,220 L 255,0 Z" fill="none" stroke="black" stroke-width="1" /></svg>