<?xml version='1.0' encoding='utf-8'?>
<svg width="259" height="218" xmlns="http://www.w3.org/2000/svg" viewBox="0 0 259 218"><rect width="259" height="218" fill="white" /><path d="M 58,145 L 57,146 L 53,146 L 52,147 L 51,147 L 50,148 L 49,148 L 43,154 L 43,155 L 42,156 L 42,159 L 41,160 L 41,161 L 42,162 L 42,177 L 43,178 L 43,182 L 42,183 L 43,184 L 43,190 L 44,191 L 44,194 L 45,195 L 45,196 L 47,198 L 47,199 L 48,199 L 50,201 L 52,201 L 53,202 L 54,202 L 55,203 L 60,203 L 61,202 L 63,202 L 64,201 L 65,201 L 69,197 L 70,197 L 72,199 L 74,199 L 75,200 L 76,200 L 77,201 L 78,201 L 79,202 L 82,202 L 83,203 L 86,203 L 87,202 L 88,202 L 89,201 L 90,201 L 92,199 L 93,199 L 95,197 L 98,197 L 101,200 L 101,201 L 103,203 L 108,203 L 109,204 L 112,204 L 113,203 L 116,203 L 120,199 L 120,198 L 121,197 L 122,197 L 123,196 L 124,196 L 127,199 L 128,199 L 130,201 L 132,201 L 133,202 L 134,202 L 135,203 L 136,202 L 139,202 L 140,201 L 142,201 L 143,200 L 144,200 L 145,199 L 146,199 L 148,197 L 148,196 L 150,194 L 150,188 L 151,187 L 151,174 L 150,173 L 150,155 L 148,153 L 148,151 L 146,149 L 146,148 L 145,148 L 143,146 L 139,146 L 138,145 L 133,145 L 132,146 L 129,146 L 127,148 L 126,148 L 124,150 L 121,150 L 120,149 L 120,148 L 118,148 L 116,146 L 105,146 L 103,148 L 101,148 L 101,149 L 98,152 L 96,152 L 95,151 L 95,150 L 93,148 L 92,148 L 91,147 L 89,147 L 88,146 L 79,146 L 77,148 L 76,148 L 72,152 L 70,152 L 66,148 L 65,148 L 63,146 L 60,146 L 59,145 Z" fill="black" /><path d="M 137,66 L 136,67 L 134,67 L 133,68 L 132,68 L 128,72 L 127,72 L 127,75 L 126,76 L 126,77 L 125,78 L 125,111 L 126,112 L 126,113 L 127,114 L 127,115 L 129,117 L 129,118 L 130,119 L 131,119 L 133,121 L 144,121 L 145,120 L 146,120 L 147,119 L 148,119 L 148,118 L 150,116 L 153,116 L 155,118 L 155,119 L 156,119 L 158,121 L 159,121 L 160,122 L 163,122 L 164,123 L 165,122 L 168,122 L 169,121 L 172,121 L 172,120 L 173,119 L 174,119 L 176,117 L 176,116 L 177,115 L 178,115 L 178,112 L 180,110 L 180,102 L 181,101 L 180,100 L 180,96 L 181,95 L 181,80 L 180,79 L 180,77 L 178,75 L 178,74 L 176,72 L 176,71 L 173,68 L 171,68 L 170,67 L 169,67 L 168,66 L 161,66 L 160,67 L 159,67 L 158,68 L 157,68 L 157,69 L 154,72 L 149,72 L 145,68 L 143,68 L 142,67 L 142,66 Z" fill="black" /><path d="M 59,15 L 58,16 L 55,16 L 53,18 L 53,19 L 52,20 L 51,20 L 51,21 L 49,23 L 49,59 L 50,60 L 50,61 L 51,62 L 51,64 L 54,67 L 55,67 L 57,69 L 58,69 L 59,70 L 66,70 L 67,69 L 69,69 L 71,67 L 72,67 L 72,66 L 74,64 L 74,63 L 76,61 L 76,58 L 77,57 L 77,40 L 78,39 L 78,37 L 77,36 L 77,34 L 78,33 L 78,32 L 77,31 L 77,28 L 76,27 L 76,24 L 75,23 L 75,22 L 74,21 L 74,20 L 70,16 L 66,16 L 65,15 Z" fill="black" /></svg>