<?xml version='1.0' encoding='utf-8'?>
<svg width="261" height="219" xmlns="http://www.w3.org/2000/svg" viewBox="0 0 261 219"><rect width="261" height="219" fill="white" /><path d="M 120,150 L 119,151 L 118,151 L 117,152 L 113,152 L 111,154 L 110,154 L 109,155 L 108,155 L 107,156 L 105,156 L 103,154 L 100,154 L 98,152 L 95,152 L 94,153 L 90,153 L 89,154 L 87,154 L 85,156 L 84,156 L 84,157 L 83,158 L 83,159 L 82,160 L 82,180 L 81,181 L 81,188 L 80,189 L 80,197 L 81,198 L 81,200 L 82,201 L 82,202 L 84,204 L 85,204 L 88,207 L 91,207 L 92,208 L 97,208 L 98,207 L 101,207 L 102,206 L 102,205 L 104,203 L 108,203 L 112,207 L 115,207 L 116,208 L 122,208 L 123,207 L 126,207 L 128,205 L 132,205 L 133,206 L 133,207 L 135,207 L 137,209 L 146,209 L 148,207 L 149,207 L 152,204 L 153,204 L 153,203 L 155,201 L 155,200 L 157,198 L 157,179 L 158,178 L 158,173 L 159,172 L 159,166 L 158,165 L 158,164 L 157,163 L 157,160 L 156,159 L 156,158 L 152,154 L 151,154 L 150,153 L 149,153 L 148,152 L 138,152 L 137,153 L 136,153 L 135,154 L 134,154 L 133,155 L 130,155 L 127,152 L 125,152 L 124,151 L 122,151 L 121,150 Z" fill="black" /><path d="M 168,54 L 167,55 L 164,55 L 163,56 L 162,56 L 161,57 L 160,57 L 159,58 L 158,58 L 158,59 L 157,60 L 154,60 L 151,57 L 150,57 L 149,56 L 146,56 L 145,55 L 140,55 L 139,56 L 137,56 L 134,59 L 131,59 L 130,58 L 128,58 L 126,56 L 122,56 L 121,55 L 120,55 L 119,56 L 112,56 L 108,60 L 105,60 L 103,58 L 101,58 L 99,56 L 88,56 L 86,58 L 84,58 L 83,59 L 81,59 L 80,58 L 78,58 L 76,56 L 71,56 L 70,55 L 67,55 L 66,56 L 64,56 L 63,57 L 62,57 L 61,58 L 60,58 L 60,59 L 59,60 L 54,60 L 52,58 L 50,58 L 49,57 L 48,57 L 47,56 L 40,56 L 38,58 L 37,58 L 35,60 L 34,60 L 32,62 L 32,64 L 30,66 L 30,68 L 31,69 L 31,73 L 30,74 L 30,93 L 29,94 L 29,96 L 30,97 L 30,103 L 31,104 L 31,105 L 32,106 L 32,107 L 34,109 L 34,110 L 35,111 L 37,111 L 38,112 L 39,112 L 40,113 L 50,113 L 52,111 L 53,111 L 54,110 L 57,110 L 60,113 L 61,113 L 62,114 L 71,114 L 72,113 L 74,113 L 78,109 L 81,109 L 84,112 L 85,112 L 86,113 L 89,113 L 90,114 L 94,114 L 95,115 L 96,114 L 98,114 L 99,113 L 100,113 L 103,110 L 105,110 L 109,114 L 110,114 L 111,115 L 121,115 L 123,113 L 124,113 L 129,108 L 130,108 L 135,113 L 139,113 L 140,114 L 142,114 L 143,113 L 147,113 L 147,112 L 148,111 L 151,111 L 151,110 L 153,108 L 155,108 L 157,110 L 157,111 L 159,113 L 163,113 L 164,114 L 167,114 L 168,113 L 172,113 L 174,111 L 175,111 L 175,110 L 177,108 L 177,107 L 178,106 L 181,106 L 182,107 L 182,108 L 184,110 L 184,111 L 185,111 L 186,112 L 187,112 L 188,113 L 198,113 L 199,112 L 200,112 L 201,111 L 202,111 L 202,110 L 205,107 L 205,105 L 206,104 L 206,102 L 207,101 L 207,98 L 208,97 L 208,95 L 209,94 L 209,81 L 210,80 L 210,73 L 209,72 L 209,64 L 208,63 L 208,62 L 207,61 L 207,60 L 205,58 L 202,58 L 200,56 L 189,56 L 188,57 L 186,57 L 186,58 L 184,60 L 181,60 L 179,58 L 178,58 L 177,57 L 177,56 L 175,56 L 174,55 L 171,55 L 170,54 Z" fill="black" /><path d="M 0,0 L 0,218 L 260,218 L 260,0 Z" fill="none" stroke="black" stroke-width="1" /></svg>