<?xml version='1.0' encoding='utf-8'?>
<svg width="259" height="221" xmlns="http://www.w3.org/2000/svg" viewBox="0 0 259 221"><rect width="259" height="221" fill="white" /><path d="M 135,78 L 134,79 L 132,79 L 131,80 L 129,80 L 127,82 L 126,82 L 124,84 L 121,84 L 119,82 L 118,82 L 117,81 L 116,81 L 115,80 L 106,80 L 105,81 L 104,81 L 103,82 L 101,82 L 101,83 L 100,84 L 97,84 L 95,82 L 93,82 L 92,81 L 91,81 L 90,80 L 87,80 L 86,81 L 83,81 L 82,82 L 77,82 L 76,83 L 74,83 L 72,85 L 71,84 L 71,82 L 70,81 L 69,81 L 68,80 L 59,80 L 57,82 L 51,82 L 50,81 L 49,81 L 48,80 L 32,80 L 29,83 L 26,83 L 25,82 L 24,82 L 23,81 L 22,81 L 21,80 L 11,80 L 9,82 L 7,82 L 7,83 L 5,85 L 5,86 L 3,88 L 3,92 L 2,93 L 2,94 L 3,95 L 3,97 L 2,98 L 2,101 L 3,102 L 3,105 L 2,106 L 2,119 L 1,120 L 2,121 L 2,125 L 3,126 L 3,128 L 6,131 L 7,131 L 9,133 L 13,133 L 14,134 L 18,134 L 19,133 L 24,133 L 24,132 L 25,131 L 27,131 L 29,133 L 30,133 L 31,134 L 32,134 L 33,135 L 45,135 L 49,131 L 52,131 L 56,135 L 60,135 L 61,136 L 64,136 L 65,135 L 69,135 L 73,131 L 77,131 L 81,135 L 90,135 L 91,134 L 92,134 L 93,133 L 95,133 L 97,131 L 101,131 L 103,133 L 104,133 L 105,134 L 106,134 L 107,135 L 117,135 L 119,133 L 125,133 L 127,135 L 130,135 L 131,136 L 137,136 L 138,135 L 139,135 L 141,133 L 144,133 L 144,132 L 146,130 L 149,133 L 150,133 L 151,134 L 151,135 L 152,135 L 153,136 L 162,136 L 163,135 L 165,135 L 167,133 L 169,133 L 170,132 L 172,132 L 175,135 L 177,135 L 179,137 L 184,137 L 185,136 L 188,136 L 189,135 L 190,135 L 193,132 L 195,132 L 196,133 L 196,134 L 197,135 L 198,135 L 199,136 L 200,136 L 201,137 L 210,137 L 211,136 L 212,136 L 213,135 L 214,135 L 217,132 L 220,132 L 223,135 L 226,135 L 227,136 L 233,136 L 234,135 L 237,135 L 239,133 L 240,133 L 240,132 L 242,130 L 242,128 L 243,127 L 244,127 L 244,119 L 245,118 L 245,113 L 244,112 L 245,111 L 245,108 L 246,107 L 246,89 L 244,87 L 244,86 L 243,86 L 242,85 L 242,84 L 241,84 L 240,83 L 240,82 L 238,80 L 232,80 L 231,79 L 228,79 L 227,80 L 225,80 L 224,81 L 223,81 L 222,82 L 221,82 L 220,83 L 217,83 L 214,80 L 202,80 L 200,82 L 198,82 L 196,84 L 193,84 L 190,81 L 190,80 L 188,80 L 187,79 L 181,79 L 180,80 L 178,80 L 176,82 L 174,82 L 172,84 L 170,84 L 168,82 L 165,82 L 164,81 L 160,81 L 159,80 L 158,81 L 154,81 L 153,82 L 151,82 L 149,84 L 148,84 L 146,82 L 145,82 L 144,81 L 143,81 L 142,80 L 140,80 L 139,79 L 137,79 L 136,78 Z" fill="black" /><path d="M 0,0 L 0,220 L 258,220 L 258,0 Z" fill="none" stroke="black" stroke-width="1" /></svg>