<?xml version='1.0' encoding='utf-8'?>
<svg width="257" height="220" xmlns="http://www.w3.org/2000/svg" viewBox="0 0 257 220"><rect width="257" height="220" fill="white" /><path d="M 62,148 L 61,149 L 60,149 L 59,150 L 57,150 L 55,152 L 54,152 L 52,154 L 52,156 L 50,158 L 50,165 L 49,166 L 49,176 L 48,177 L 48,191 L 47,192 L 47,193 L 48,194 L 48,198 L 50,200 L 50,201 L 53,204 L 54,204 L 55,205 L 56,205 L 58,207 L 67,207 L 69,205 L 71,205 L 71,204 L 75,200 L 76,201 L 77,201 L 78,202 L 78,203 L 79,204 L 79,205 L 81,205 L 82,206 L 82,207 L 87,207 L 88,208 L 89,208 L 90,207 L 93,207 L 94,206 L 95,206 L 100,201 L 103,201 L 104,202 L 104,203 L 105,204 L 106,204 L 109,207 L 119,207 L 121,205 L 123,205 L 126,202 L 126,201 L 127,200 L 130,200 L 133,203 L 134,203 L 136,205 L 137,205 L 138,206 L 144,206 L 145,205 L 148,205 L 151,202 L 153,202 L 156,205 L 157,205 L 159,207 L 170,207 L 172,205 L 173,205 L 175,203 L 175,202 L 179,198 L 180,198 L 185,203 L 187,203 L 188,204 L 189,204 L 190,205 L 191,204 L 195,204 L 196,203 L 198,203 L 199,202 L 200,202 L 203,199 L 203,198 L 204,197 L 205,197 L 205,195 L 206,194 L 206,193 L 207,192 L 207,184 L 208,183 L 208,180 L 209,179 L 209,178 L 208,177 L 208,175 L 209,174 L 209,164 L 210,163 L 210,160 L 209,159 L 209,157 L 207,155 L 207,154 L 203,150 L 202,150 L 200,148 L 189,148 L 187,150 L 186,150 L 185,151 L 184,151 L 183,152 L 183,153 L 182,154 L 179,154 L 178,153 L 178,152 L 177,151 L 176,151 L 175,150 L 173,150 L 172,149 L 166,149 L 165,150 L 163,150 L 162,151 L 161,151 L 160,152 L 158,152 L 156,154 L 155,154 L 154,153 L 154,152 L 153,152 L 151,150 L 149,150 L 148,149 L 145,149 L 144,148 L 141,148 L 140,149 L 139,149 L 138,150 L 136,150 L 135,151 L 134,151 L 130,155 L 129,155 L 125,151 L 125,150 L 124,150 L 123,149 L 122,149 L 121,148 L 112,148 L 111,149 L 110,149 L 109,150 L 108,150 L 104,154 L 100,154 L 99,153 L 99,152 L 97,150 L 94,150 L 93,149 L 92,149 L 91,148 L 90,148 L 89,149 L 85,149 L 84,150 L 80,150 L 78,152 L 74,152 L 73,151 L 73,150 L 71,150 L 70,149 L 67,149 L 66,148 Z" fill="black" /><path d="M 52,35 L 51,36 L 46,36 L 46,37 L 45,38 L 44,38 L 43,39 L 42,39 L 42,40 L 40,42 L 40,43 L 39,44 L 39,45 L 38,46 L 38,53 L 37,54 L 38,55 L 38,62 L 37,63 L 37,69 L 38,70 L 38,79 L 40,81 L 40,84 L 42,86 L 42,87 L 43,87 L 45,89 L 48,89 L 49,90 L 57,90 L 58,89 L 60,89 L 63,86 L 65,86 L 68,89 L 69,89 L 70,90 L 71,90 L 72,91 L 80,91 L 82,89 L 83,89 L 84,88 L 85,88 L 87,86 L 90,86 L 93,89 L 95,89 L 96,90 L 98,90 L 99,91 L 105,91 L 106,90 L 107,90 L 108,89 L 109,89 L 110,88 L 111,88 L 111,87 L 113,85 L 113,84 L 115,82 L 115,76 L 116,75 L 116,74 L 117,73 L 117,53 L 116,52 L 116,48 L 115,47 L 115,45 L 114,44 L 114,43 L 113,42 L 113,40 L 111,38 L 110,38 L 108,36 L 106,36 L 105,35 L 99,35 L 98,36 L 93,36 L 91,38 L 90,38 L 88,40 L 87,40 L 85,38 L 84,38 L 83,37 L 82,37 L 81,36 L 80,36 L 79,35 L 74,35 L 73,36 L 70,36 L 68,38 L 67,38 L 65,40 L 64,40 L 62,38 L 60,38 L 58,36 L 55,36 L 54,35 Z" fill="black" /><path d="M 194,28 L 192,30 L 190,30 L 189,31 L 188,31 L 185,34 L 182,34 L 181,33 L 181,32 L 179,32 L 178,31 L 177,31 L 176,30 L 168,30 L 167,31 L 166,31 L 165,32 L 164,32 L 162,34 L 162,35 L 161,36 L 160,36 L 160,38 L 159,39 L 159,43 L 158,44 L 158,52 L 157,53 L 157,65 L 156,66 L 156,69 L 157,70 L 157,73 L 156,74 L 157,75 L 157,76 L 158,77 L 158,80 L 161,83 L 162,83 L 164,85 L 165,85 L 166,86 L 167,86 L 168,87 L 174,87 L 175,86 L 176,86 L 177,85 L 179,85 L 181,83 L 181,82 L 183,80 L 186,80 L 188,82 L 188,83 L 190,85 L 202,85 L 204,83 L 205,83 L 209,79 L 209,78 L 210,77 L 210,76 L 211,75 L 211,52 L 212,51 L 212,48 L 213,47 L 213,39 L 212,38 L 212,37 L 211,36 L 211,34 L 209,32 L 208,32 L 206,30 L 204,30 L 203,29 L 202,29 L 201,28 Z" fill="black" /></svg>