<?xml version='1.0' encoding='utf-8'?>
<svg width="256" height="223" xmlns="http://www.w3.org/2000/svg" viewBox="0 0 256 223"><rect width="256" height="223" fill="white" /><path d="M 69,155 L 68,156 L 67,156 L 66,157 L 63,157 L 63,158 L 62,159 L 62,160 L 59,163 L 59,164 L 58,165 L 58,166 L 57,167 L 57,170 L 56,171 L 56,188 L 57,189 L 57,194 L 58,195 L 58,196 L 59,197 L 59,200 L 60,201 L 60,202 L 61,203 L 61,205 L 62,206 L 63,206 L 64,207 L 64,208 L 65,209 L 66,209 L 67,210 L 68,210 L 70,212 L 74,212 L 75,211 L 77,211 L 78,210 L 79,210 L 81,208 L 82,208 L 83,207 L 87,207 L 89,209 L 89,210 L 90,210 L 92,212 L 101,212 L 102,211 L 103,211 L 105,209 L 106,209 L 107,208 L 111,208 L 115,212 L 116,212 L 117,213 L 118,213 L 119,214 L 121,214 L 122,215 L 125,215 L 126,214 L 129,214 L 131,212 L 133,212 L 134,211 L 134,210 L 135,209 L 137,209 L 140,212 L 141,212 L 143,214 L 147,214 L 148,215 L 154,215 L 155,214 L 157,214 L 159,212 L 160,212 L 162,210 L 165,210 L 167,212 L 168,212 L 169,213 L 169,214 L 173,214 L 174,215 L 178,215 L 179,214 L 182,214 L 183,213 L 184,213 L 185,212 L 186,212 L 186,211 L 187,210 L 187,209 L 188,208 L 188,207 L 190,205 L 190,201 L 191,200 L 191,197 L 190,196 L 190,195 L 191,194 L 191,189 L 192,188 L 192,167 L 191,166 L 191,165 L 190,164 L 190,163 L 189,162 L 189,161 L 188,161 L 187,160 L 186,160 L 185,159 L 183,159 L 182,158 L 179,158 L 178,159 L 174,159 L 172,161 L 170,161 L 165,166 L 164,166 L 161,163 L 161,162 L 160,161 L 160,160 L 159,159 L 157,159 L 156,158 L 155,158 L 154,157 L 147,157 L 146,158 L 145,158 L 144,159 L 143,159 L 142,160 L 141,160 L 140,161 L 140,162 L 139,163 L 136,163 L 132,159 L 131,159 L 130,158 L 129,158 L 128,157 L 126,157 L 125,158 L 124,157 L 121,157 L 120,158 L 119,158 L 118,159 L 117,159 L 116,160 L 115,160 L 114,161 L 114,162 L 113,163 L 110,163 L 109,162 L 109,161 L 107,159 L 106,159 L 105,158 L 104,158 L 103,157 L 101,157 L 100,156 L 94,156 L 93,157 L 91,157 L 87,161 L 84,161 L 80,157 L 77,157 L 76,156 L 71,156 L 70,155 Z" fill="black" /><path d="M 43,44 L 42,45 L 41,45 L 40,46 L 39,46 L 38,47 L 38,48 L 35,51 L 35,52 L 34,53 L 34,59 L 33,60 L 33,84 L 34,85 L 34,88 L 35,89 L 35,91 L 37,93 L 37,94 L 39,96 L 39,97 L 40,98 L 42,98 L 43,99 L 43,100 L 45,100 L 46,101 L 50,101 L 51,100 L 54,100 L 56,98 L 57,98 L 58,97 L 58,94 L 59,93 L 60,93 L 62,95 L 62,96 L 64,98 L 65,98 L 66,99 L 70,99 L 71,100 L 77,100 L 78,99 L 79,99 L 81,97 L 82,97 L 82,96 L 83,95 L 83,94 L 86,91 L 89,94 L 89,95 L 91,97 L 92,97 L 93,98 L 94,98 L 95,99 L 97,99 L 98,98 L 103,98 L 105,96 L 106,96 L 107,95 L 108,95 L 109,94 L 112,94 L 116,98 L 117,98 L 118,99 L 119,99 L 120,100 L 124,100 L 125,99 L 128,99 L 129,98 L 133,98 L 138,93 L 139,93 L 141,95 L 141,96 L 145,100 L 148,100 L 149,101 L 153,101 L 154,100 L 156,100 L 158,98 L 160,98 L 162,96 L 162,94 L 163,93 L 166,93 L 168,95 L 168,96 L 170,98 L 171,98 L 173,100 L 182,100 L 183,99 L 184,99 L 185,98 L 186,98 L 187,97 L 188,97 L 188,96 L 191,93 L 195,97 L 196,97 L 197,98 L 198,98 L 199,99 L 202,99 L 203,100 L 206,100 L 207,99 L 208,99 L 209,98 L 210,98 L 211,97 L 212,97 L 215,94 L 215,93 L 216,92 L 216,90 L 217,89 L 217,85 L 218,84 L 218,76 L 220,74 L 220,56 L 218,54 L 218,52 L 216,50 L 216,49 L 215,49 L 214,48 L 213,48 L 212,47 L 210,47 L 209,46 L 205,46 L 204,47 L 199,47 L 197,49 L 196,49 L 194,51 L 191,51 L 188,48 L 187,48 L 186,47 L 182,47 L 181,46 L 178,46 L 177,47 L 172,47 L 171,48 L 171,49 L 168,52 L 166,52 L 161,47 L 159,47 L 158,46 L 156,46 L 155,45 L 154,46 L 150,46 L 149,47 L 146,47 L 144,49 L 143,49 L 143,50 L 141,52 L 138,52 L 137,51 L 137,50 L 134,47 L 133,47 L 132,46 L 129,46 L 128,45 L 127,45 L 126,46 L 119,46 L 118,47 L 117,47 L 115,49 L 115,50 L 114,51 L 110,51 L 106,47 L 101,47 L 100,46 L 99,46 L 98,45 L 97,45 L 96,46 L 95,46 L 94,47 L 92,47 L 90,49 L 89,49 L 87,51 L 85,51 L 82,48 L 82,47 L 81,47 L 80,46 L 79,46 L 78,45 L 67,45 L 63,49 L 63,50 L 62,51 L 59,51 L 58,50 L 58,49 L 56,47 L 55,47 L 54,46 L 54,45 L 52,45 L 51,44 Z" fill="black" /><path d="M 0,0 L 0,222 L 255,222 L 255,0 Z" fill="none" stroke="black" stroke-width="1" /></svg>