<?xml version='1.0' encoding='utf-8'?>
<svg width="261" height="219" xmlns="http://www.w3.org/2000/svg" viewBox="0 0 261 219"><rect width="261" height="219" fill="white" /><path d="M 139,126 L 138,127 L 135,127 L 135,128 L 134,129 L 132,129 L 130,131 L 128,131 L 126,129 L 124,129 L 123,128 L 117,128 L 116,127 L 115,127 L 114,128 L 113,128 L 112,129 L 109,129 L 107,131 L 107,132 L 106,133 L 103,133 L 101,131 L 100,131 L 98,129 L 95,129 L 94,128 L 93,128 L 92,127 L 91,127 L 90,128 L 87,128 L 86,129 L 85,129 L 84,130 L 83,130 L 82,131 L 81,131 L 79,133 L 79,134 L 78,135 L 78,136 L 77,137 L 77,168 L 76,169 L 76,171 L 77,172 L 77,174 L 78,175 L 78,176 L 79,177 L 79,178 L 80,179 L 80,180 L 82,182 L 83,182 L 85,184 L 94,184 L 96,182 L 98,182 L 98,181 L 99,180 L 100,180 L 102,178 L 104,178 L 108,182 L 110,182 L 111,183 L 112,183 L 113,184 L 118,184 L 119,183 L 121,183 L 122,182 L 123,182 L 125,180 L 129,180 L 131,182 L 132,182 L 133,183 L 133,184 L 139,184 L 140,185 L 142,185 L 143,184 L 145,184 L 147,182 L 148,182 L 152,178 L 152,177 L 153,176 L 153,175 L 154,174 L 154,144 L 156,142 L 156,138 L 155,137 L 155,135 L 154,134 L 154,133 L 153,132 L 153,131 L 151,129 L 150,129 L 149,128 L 148,128 L 147,127 L 143,127 L 142,126 Z" fill="black" /><path d="M 30,38 L 29,39 L 26,39 L 24,41 L 23,41 L 21,43 L 21,44 L 20,45 L 20,46 L 19,47 L 19,57 L 18,58 L 18,66 L 17,67 L 17,71 L 18,72 L 18,76 L 17,77 L 17,85 L 18,86 L 18,87 L 19,88 L 19,90 L 23,94 L 24,94 L 25,95 L 27,95 L 28,96 L 34,96 L 35,95 L 36,95 L 37,94 L 39,94 L 40,93 L 40,92 L 41,91 L 44,91 L 47,94 L 49,94 L 50,95 L 59,95 L 60,94 L 62,94 L 64,92 L 68,92 L 69,93 L 70,93 L 73,96 L 83,96 L 85,94 L 86,94 L 91,89 L 96,94 L 98,94 L 99,95 L 100,95 L 101,96 L 108,96 L 109,95 L 110,95 L 111,94 L 113,94 L 113,93 L 116,90 L 118,90 L 122,94 L 124,94 L 125,95 L 128,95 L 129,96 L 132,96 L 133,95 L 135,95 L 136,94 L 137,94 L 139,92 L 140,92 L 141,91 L 144,91 L 145,92 L 146,92 L 148,94 L 150,94 L 151,95 L 158,95 L 159,94 L 162,94 L 164,92 L 165,92 L 165,91 L 166,90 L 166,89 L 167,88 L 169,88 L 170,89 L 170,90 L 173,93 L 174,93 L 175,94 L 178,94 L 179,95 L 184,95 L 185,94 L 188,94 L 194,88 L 194,85 L 195,84 L 195,81 L 196,80 L 196,58 L 197,57 L 197,53 L 198,52 L 198,50 L 197,49 L 197,48 L 196,47 L 196,45 L 195,45 L 194,44 L 194,43 L 192,41 L 191,41 L 189,39 L 186,39 L 185,38 L 179,38 L 178,39 L 177,39 L 176,40 L 175,40 L 174,41 L 173,41 L 170,44 L 168,44 L 166,42 L 166,41 L 165,41 L 164,40 L 163,40 L 162,39 L 151,39 L 147,43 L 143,43 L 141,41 L 140,41 L 138,39 L 125,39 L 121,43 L 121,44 L 119,46 L 118,46 L 114,42 L 114,41 L 113,41 L 112,40 L 110,40 L 109,39 L 105,39 L 104,40 L 103,40 L 102,41 L 99,41 L 97,43 L 96,43 L 94,45 L 91,45 L 89,43 L 88,43 L 86,41 L 85,41 L 84,40 L 78,40 L 77,39 L 76,40 L 75,40 L 74,41 L 73,41 L 72,42 L 71,42 L 69,44 L 66,44 L 64,42 L 64,41 L 63,41 L 62,40 L 61,40 L 60,39 L 56,39 L 55,38 L 54,39 L 50,39 L 48,41 L 47,41 L 45,43 L 43,43 L 39,39 L 33,39 L 32,38 Z" fill="black" /><path d="M 0,0 L 0,218 L 260,218 L 260,0 Z" fill="none" stroke="black" stroke-width="1" /></svg>