<?xml version='1.0' encoding='utf-8'?>
<svg width="256" height="220" xmlns="http://www.w3.org/2000/svg" viewBox="0 0 256 220"><rect width="256" height="220" fill="white" /><path d="M 174,134 L 173,135 L 172,135 L 171,136 L 169,136 L 163,142 L 161,140 L 161,139 L 160,138 L 159,138 L 157,136 L 154,136 L 153,135 L 146,135 L 145,136 L 143,136 L 141,138 L 140,138 L 140,139 L 137,142 L 136,142 L 133,139 L 133,138 L 132,138 L 131,137 L 130,137 L 129,136 L 119,136 L 118,137 L 116,137 L 115,138 L 114,138 L 111,141 L 109,141 L 107,139 L 107,138 L 106,138 L 105,137 L 104,137 L 103,136 L 99,136 L 98,135 L 95,135 L 94,136 L 92,136 L 91,137 L 89,137 L 84,142 L 82,142 L 78,138 L 76,138 L 75,137 L 74,137 L 73,136 L 70,136 L 69,137 L 68,137 L 67,138 L 64,138 L 62,140 L 61,140 L 60,141 L 57,141 L 55,139 L 54,139 L 53,138 L 52,138 L 51,137 L 51,136 L 41,136 L 39,138 L 37,138 L 33,142 L 33,143 L 32,144 L 32,150 L 30,152 L 30,156 L 31,157 L 31,163 L 30,164 L 30,167 L 31,168 L 31,171 L 30,172 L 30,176 L 29,177 L 29,183 L 30,184 L 30,186 L 32,188 L 32,189 L 34,191 L 35,191 L 36,192 L 37,192 L 38,193 L 48,193 L 50,191 L 51,191 L 54,188 L 54,187 L 55,186 L 58,186 L 60,188 L 60,189 L 61,189 L 62,190 L 63,190 L 64,191 L 67,191 L 68,192 L 73,192 L 74,191 L 75,191 L 76,190 L 77,190 L 81,186 L 83,186 L 84,187 L 84,188 L 86,190 L 87,190 L 88,191 L 89,191 L 90,192 L 91,192 L 92,193 L 99,193 L 101,191 L 103,191 L 105,189 L 105,188 L 106,187 L 108,187 L 110,189 L 111,189 L 113,191 L 114,191 L 116,193 L 125,193 L 126,192 L 127,192 L 128,191 L 129,191 L 129,190 L 132,187 L 134,187 L 135,188 L 135,189 L 137,191 L 138,191 L 140,193 L 141,193 L 142,194 L 143,194 L 144,195 L 147,195 L 148,194 L 150,194 L 151,193 L 153,193 L 155,191 L 156,191 L 157,190 L 157,189 L 159,187 L 161,187 L 163,189 L 163,190 L 164,191 L 165,191 L 167,193 L 169,193 L 170,194 L 175,194 L 176,193 L 179,193 L 179,192 L 180,191 L 181,191 L 183,189 L 185,189 L 186,188 L 190,188 L 191,189 L 193,189 L 194,190 L 194,191 L 198,191 L 199,192 L 201,192 L 202,191 L 205,191 L 207,189 L 208,189 L 208,188 L 211,185 L 211,182 L 212,181 L 212,177 L 213,176 L 213,154 L 214,153 L 214,152 L 213,151 L 213,143 L 212,142 L 212,141 L 211,140 L 211,139 L 208,136 L 206,136 L 205,135 L 204,135 L 203,134 L 196,134 L 194,136 L 193,136 L 191,138 L 188,138 L 187,137 L 186,137 L 185,136 L 184,136 L 183,135 L 183,134 Z" fill="black" /><path d="M 127,37 L 126,38 L 124,38 L 122,40 L 119,40 L 118,41 L 115,41 L 114,40 L 113,40 L 112,39 L 111,39 L 110,38 L 103,38 L 102,39 L 100,39 L 99,40 L 98,40 L 98,41 L 97,42 L 96,42 L 95,43 L 93,43 L 91,41 L 90,41 L 87,38 L 75,38 L 73,40 L 72,40 L 69,43 L 67,43 L 66,42 L 65,42 L 63,40 L 61,40 L 60,39 L 53,39 L 52,40 L 50,40 L 48,42 L 47,42 L 46,43 L 46,44 L 44,46 L 44,47 L 43,48 L 43,53 L 42,54 L 42,87 L 43,88 L 43,89 L 44,90 L 44,91 L 47,94 L 48,94 L 49,95 L 51,95 L 52,96 L 59,96 L 60,95 L 63,95 L 63,94 L 64,93 L 65,93 L 67,91 L 69,91 L 72,94 L 73,94 L 74,95 L 75,95 L 76,96 L 82,96 L 83,95 L 86,95 L 92,89 L 95,92 L 95,93 L 97,93 L 99,95 L 110,95 L 112,93 L 113,93 L 115,91 L 119,91 L 122,94 L 123,94 L 124,95 L 128,95 L 129,96 L 130,95 L 135,95 L 137,93 L 138,93 L 141,90 L 144,90 L 145,91 L 146,91 L 148,93 L 159,93 L 161,91 L 162,91 L 164,89 L 165,89 L 165,88 L 166,87 L 166,86 L 167,85 L 167,82 L 168,81 L 168,80 L 169,79 L 169,67 L 170,66 L 170,62 L 169,61 L 170,60 L 170,52 L 169,51 L 169,46 L 163,40 L 162,40 L 161,39 L 160,39 L 159,38 L 151,38 L 150,39 L 149,39 L 148,40 L 146,40 L 144,42 L 142,42 L 138,38 L 131,38 L 130,37 Z" fill="black" /><path d="M 0,0 L 0,219 L 255,219 L 255,0 Z" fill="none" stroke="black" stroke-width="1" /></svg>