<?xml version='1.0' encoding='utf-8'?>
<svg width="260" height="218" xmlns="http://www.w3.org/2000/svg" viewBox="0 0 260 218"><rect width="260" height="218" fill="white" /><path d="M 133,57 L 132,58 L 127,58 L 125,60 L 124,60 L 122,62 L 122,63 L 121,64 L 119,64 L 116,61 L 115,61 L 113,59 L 111,59 L 110,58 L 104,58 L 103,59 L 101,59 L 96,64 L 92,64 L 88,60 L 84,60 L 83,59 L 78,59 L 77,60 L 75,60 L 74,61 L 73,61 L 68,66 L 67,66 L 62,61 L 61,61 L 60,60 L 59,60 L 58,59 L 51,59 L 50,60 L 46,60 L 44,62 L 43,62 L 43,63 L 41,65 L 38,65 L 36,63 L 36,62 L 35,62 L 34,61 L 33,61 L 31,59 L 29,59 L 28,58 L 25,58 L 24,59 L 22,59 L 21,60 L 20,60 L 19,61 L 18,61 L 17,62 L 17,63 L 16,64 L 15,64 L 15,65 L 13,67 L 13,83 L 12,84 L 12,92 L 11,93 L 12,94 L 12,103 L 13,104 L 13,105 L 15,107 L 15,108 L 19,112 L 20,112 L 21,113 L 24,113 L 25,114 L 30,114 L 31,113 L 32,113 L 34,111 L 36,111 L 36,110 L 37,109 L 40,109 L 43,112 L 43,114 L 44,115 L 48,115 L 49,116 L 58,116 L 59,115 L 60,115 L 63,112 L 64,112 L 65,111 L 65,110 L 67,108 L 70,111 L 72,111 L 74,113 L 82,113 L 84,111 L 86,111 L 87,110 L 88,110 L 90,108 L 92,108 L 97,113 L 98,113 L 99,114 L 101,114 L 102,115 L 107,115 L 108,114 L 109,114 L 110,113 L 112,113 L 112,112 L 113,111 L 115,111 L 117,109 L 118,109 L 121,112 L 121,113 L 122,113 L 123,114 L 124,114 L 125,115 L 134,115 L 135,114 L 136,114 L 137,113 L 139,113 L 141,111 L 141,110 L 142,109 L 145,109 L 146,110 L 146,111 L 149,114 L 149,115 L 152,115 L 153,116 L 155,116 L 156,117 L 158,117 L 159,116 L 162,116 L 163,115 L 164,115 L 165,114 L 166,114 L 168,112 L 168,111 L 170,109 L 170,108 L 171,107 L 171,104 L 172,103 L 172,92 L 173,91 L 173,77 L 174,76 L 174,66 L 173,65 L 173,64 L 172,63 L 172,62 L 170,60 L 169,60 L 168,59 L 166,59 L 165,58 L 157,58 L 156,59 L 155,59 L 154,60 L 153,60 L 152,61 L 151,61 L 148,64 L 145,64 L 144,63 L 144,62 L 142,60 L 141,60 L 140,59 L 140,58 L 136,58 L 135,57 Z" fill="black" /><path d="M 0,0 L 0,217 L 259,217 L 259,0 Z" fill="none" stroke="black" stroke-width="1" /></svg>