<?xml version='1.0' encoding='utf-8'?>
<svg width="256" height="218" xmlns="http://www.w3.org/2000/svg" viewBox="0 0 256 218"><rect width="256" height="218" fill="white" /><path d="M 92,56 L 91,57 L 91,58 L 92,59 L 92,95 L 93,96 L 93,117 L 94,118 L 93,119 L 93,121 L 94,122 L 94,148 L 95,149 L 94,150 L 94,155 L 107,155 L 108,154 L 109,154 L 110,155 L 112,155 L 113,154 L 133,154 L 134,153 L 135,153 L 136,154 L 137,154 L 138,153 L 143,153 L 144,154 L 147,154 L 148,153 L 168,153 L 169,154 L 170,153 L 192,153 L 193,154 L 194,153 L 194,151 L 193,150 L 193,146 L 194,145 L 194,142 L 193,141 L 193,62 L 192,61 L 192,56 Z" fill="black" /><path d="M 0,0 L 0,217 L 255,217 L 255,0 Z" fill="none" stroke="black" stroke-width="1" /></svg>