<?xml version='1.0' encoding='utf-8'?>
<svg width="260" height="221" xmlns="http://www.w3.org/2000/svg" viewBox="0 0 260 221"><rect width="260" height="221" fill="white" /><path d="M 170,161 L 169,162 L 168,162 L 167,163 L 166,163 L 165,164 L 164,164 L 163,165 L 162,165 L 160,167 L 159,167 L 157,169 L 157,170 L 154,173 L 154,174 L 153,175 L 153,176 L 152,177 L 152,180 L 151,181 L 151,184 L 150,185 L 150,189 L 151,190 L 151,192 L 152,193 L 152,196 L 153,197 L 153,198 L 154,199 L 154,200 L 156,202 L 156,203 L 159,206 L 160,206 L 162,208 L 163,208 L 164,209 L 164,210 L 168,210 L 169,211 L 173,211 L 174,212 L 180,212 L 181,211 L 183,211 L 184,210 L 187,210 L 189,208 L 190,208 L 192,206 L 193,206 L 197,202 L 197,201 L 198,200 L 198,199 L 199,198 L 199,196 L 201,194 L 201,189 L 202,188 L 202,184 L 201,183 L 201,177 L 200,176 L 200,175 L 199,174 L 199,173 L 198,173 L 197,172 L 197,171 L 191,165 L 190,165 L 189,164 L 188,164 L 187,163 L 186,163 L 185,162 L 184,162 L 183,161 Z" fill="black" /><path d="M 77,126 L 76,127 L 74,127 L 73,128 L 72,128 L 71,129 L 68,129 L 64,133 L 63,133 L 61,135 L 61,136 L 60,137 L 60,138 L 58,140 L 58,142 L 56,144 L 56,148 L 55,149 L 55,154 L 56,155 L 56,162 L 57,163 L 57,164 L 58,165 L 58,166 L 59,166 L 60,167 L 60,168 L 61,169 L 61,170 L 64,173 L 65,173 L 66,174 L 67,174 L 69,176 L 71,176 L 72,177 L 73,177 L 74,178 L 86,178 L 87,177 L 88,177 L 89,176 L 91,176 L 92,175 L 93,175 L 94,174 L 95,174 L 95,173 L 96,172 L 97,172 L 103,166 L 103,165 L 104,164 L 104,163 L 105,162 L 105,159 L 106,158 L 106,157 L 107,156 L 107,147 L 106,146 L 106,145 L 105,144 L 105,142 L 103,140 L 103,137 L 101,135 L 100,135 L 99,134 L 99,133 L 98,133 L 97,132 L 97,131 L 96,131 L 94,129 L 93,129 L 91,127 L 90,127 L 89,126 Z" fill="black" /><path d="M 194,80 L 193,81 L 188,81 L 188,82 L 187,83 L 185,83 L 183,85 L 182,85 L 181,86 L 180,86 L 178,88 L 178,89 L 176,91 L 176,92 L 174,94 L 174,95 L 172,97 L 172,100 L 171,101 L 171,111 L 172,112 L 172,115 L 174,117 L 174,118 L 175,118 L 176,119 L 176,121 L 181,126 L 183,126 L 185,128 L 186,128 L 188,130 L 193,130 L 194,131 L 198,131 L 199,130 L 205,130 L 207,128 L 209,128 L 211,126 L 213,126 L 217,122 L 217,120 L 219,118 L 219,116 L 220,115 L 220,113 L 221,112 L 221,111 L 222,110 L 222,109 L 223,108 L 223,107 L 222,106 L 222,100 L 221,99 L 221,95 L 219,93 L 219,92 L 217,90 L 217,89 L 216,89 L 215,88 L 215,87 L 213,85 L 211,85 L 209,83 L 206,83 L 205,82 L 205,81 L 200,81 L 199,80 Z" fill="black" /><path d="M 97,29 L 96,30 L 92,30 L 91,31 L 88,31 L 87,32 L 86,32 L 85,33 L 84,33 L 84,34 L 83,35 L 82,35 L 80,37 L 80,38 L 79,39 L 78,39 L 78,40 L 76,42 L 76,44 L 75,45 L 75,46 L 74,47 L 74,48 L 73,49 L 73,54 L 72,55 L 72,56 L 73,57 L 73,60 L 74,61 L 74,64 L 75,65 L 75,66 L 76,67 L 76,69 L 78,71 L 78,72 L 79,72 L 80,73 L 80,74 L 82,76 L 83,76 L 85,78 L 87,78 L 88,79 L 89,79 L 90,80 L 97,80 L 98,81 L 100,81 L 101,80 L 106,80 L 107,79 L 108,79 L 109,78 L 111,78 L 113,76 L 114,76 L 119,71 L 119,70 L 121,68 L 121,66 L 123,64 L 123,60 L 124,59 L 124,49 L 123,48 L 123,46 L 122,45 L 122,44 L 121,43 L 121,41 L 118,38 L 118,37 L 117,37 L 113,33 L 111,33 L 109,31 L 104,31 L 103,30 L 102,30 L 101,29 Z" fill="black" /></svg>