<?xml version='1.0' encoding='utf-8'?>
<svg width="260" height="214" xmlns="http://www.w3.org/2000/svg" viewBox="0 0 260 214"><rect width="260" height="214" fill="white" /><path d="M 151,62 L 149,64 L 148,64 L 148,65 L 147,66 L 146,66 L 146,67 L 143,70 L 143,71 L 142,72 L 142,73 L 141,74 L 140,74 L 140,76 L 138,78 L 138,79 L 136,81 L 136,84 L 135,85 L 135,86 L 134,87 L 133,87 L 132,88 L 130,86 L 130,85 L 129,84 L 129,81 L 127,79 L 127,78 L 126,78 L 125,77 L 125,75 L 123,73 L 123,72 L 121,70 L 121,69 L 119,67 L 119,66 L 116,63 L 111,63 L 110,64 L 110,65 L 109,66 L 109,67 L 105,71 L 105,72 L 103,74 L 103,75 L 102,76 L 102,77 L 100,79 L 100,82 L 98,84 L 98,85 L 97,86 L 97,87 L 96,88 L 95,88 L 94,89 L 93,88 L 92,88 L 91,87 L 91,84 L 90,84 L 89,83 L 89,81 L 87,79 L 87,78 L 85,76 L 85,75 L 83,73 L 83,72 L 77,66 L 76,66 L 75,65 L 73,65 L 68,70 L 68,71 L 67,72 L 66,72 L 66,73 L 64,75 L 64,76 L 62,78 L 62,80 L 60,82 L 60,85 L 59,86 L 59,87 L 58,88 L 58,90 L 57,91 L 57,92 L 56,93 L 56,95 L 55,96 L 55,99 L 54,100 L 54,121 L 55,122 L 55,128 L 56,129 L 56,131 L 57,132 L 57,134 L 58,135 L 58,137 L 59,138 L 59,139 L 60,140 L 60,141 L 61,142 L 61,143 L 62,144 L 62,145 L 64,147 L 64,148 L 66,150 L 66,152 L 72,158 L 72,159 L 73,159 L 76,162 L 79,162 L 80,161 L 80,160 L 83,157 L 83,155 L 85,153 L 85,152 L 87,150 L 87,148 L 88,147 L 89,147 L 89,145 L 91,143 L 91,140 L 92,139 L 92,138 L 93,137 L 93,136 L 94,135 L 96,135 L 98,137 L 98,139 L 99,140 L 99,141 L 100,142 L 100,143 L 102,145 L 102,147 L 104,149 L 104,150 L 106,152 L 106,153 L 107,153 L 108,154 L 108,155 L 109,156 L 109,157 L 111,159 L 112,159 L 114,161 L 115,161 L 123,153 L 123,152 L 126,149 L 126,148 L 127,147 L 127,146 L 128,145 L 128,144 L 129,143 L 129,140 L 130,139 L 131,139 L 131,136 L 132,135 L 132,134 L 133,133 L 134,133 L 136,135 L 136,137 L 139,140 L 139,141 L 140,142 L 140,144 L 142,146 L 142,147 L 143,148 L 143,149 L 144,150 L 144,151 L 145,151 L 146,152 L 146,153 L 147,154 L 147,155 L 154,162 L 154,163 L 157,163 L 157,161 L 163,155 L 163,154 L 164,153 L 165,153 L 165,152 L 166,151 L 167,151 L 167,150 L 169,148 L 169,146 L 171,144 L 171,142 L 172,141 L 172,139 L 173,138 L 173,137 L 174,136 L 175,136 L 176,137 L 176,138 L 177,139 L 177,140 L 178,141 L 178,143 L 179,143 L 180,144 L 180,145 L 181,146 L 181,147 L 184,150 L 184,151 L 186,153 L 186,154 L 191,159 L 192,159 L 194,161 L 195,161 L 197,159 L 197,158 L 198,157 L 198,156 L 201,153 L 201,152 L 203,150 L 203,149 L 205,147 L 205,145 L 207,143 L 207,141 L 209,139 L 209,136 L 210,135 L 210,134 L 211,133 L 211,131 L 212,130 L 212,126 L 213,125 L 213,114 L 214,113 L 214,111 L 213,110 L 213,98 L 212,97 L 212,94 L 211,93 L 211,91 L 210,90 L 210,89 L 209,88 L 209,86 L 207,84 L 207,83 L 205,81 L 205,80 L 203,78 L 203,77 L 201,75 L 201,74 L 200,73 L 200,72 L 197,69 L 197,68 L 196,68 L 195,67 L 195,66 L 193,64 L 190,64 L 188,66 L 188,67 L 187,68 L 186,68 L 186,69 L 184,71 L 184,72 L 182,74 L 182,77 L 181,78 L 180,78 L 180,79 L 179,80 L 179,81 L 178,82 L 178,83 L 177,84 L 177,85 L 176,86 L 176,87 L 175,88 L 174,88 L 171,85 L 171,83 L 169,81 L 169,80 L 166,77 L 166,76 L 165,75 L 165,74 L 163,72 L 163,71 L 161,69 L 161,68 L 160,68 L 159,67 L 159,66 L 158,66 L 157,65 L 157,64 L 155,62 Z" fill="black" /><path d="M 0,0 L 0,213 L 259,213 L 259,0 Z" fill="none" stroke="black" stroke-width="1" /></svg>