<?xml version='1.0' encoding='utf-8'?>
<svg width="257" height="214" xmlns="http://www.w3.org/2000/svg" viewBox="0 0 257 214"><rect width="257" height="214" fill="white" /><path d="M 147,12 L 146,13 L 145,13 L 145,16 L 144,17 L 144,22 L 143,23 L 143,24 L 142,25 L 142,29 L 141,30 L 141,33 L 140,34 L 140,38 L 139,39 L 139,41 L 138,42 L 138,46 L 137,47 L 137,48 L 136,49 L 136,53 L 135,54 L 135,56 L 134,57 L 134,61 L 133,62 L 133,63 L 132,64 L 132,69 L 131,70 L 131,72 L 130,73 L 130,76 L 129,77 L 129,79 L 128,80 L 128,84 L 127,85 L 127,86 L 126,87 L 126,92 L 124,94 L 122,94 L 119,91 L 119,90 L 111,82 L 110,82 L 109,81 L 109,80 L 107,78 L 106,78 L 105,77 L 105,76 L 104,76 L 103,75 L 103,74 L 102,74 L 101,73 L 101,72 L 100,72 L 99,71 L 99,70 L 95,66 L 95,65 L 94,64 L 93,64 L 85,56 L 84,56 L 83,55 L 83,54 L 80,51 L 80,50 L 78,48 L 77,48 L 73,44 L 72,44 L 71,43 L 71,42 L 69,40 L 68,40 L 67,39 L 67,38 L 64,35 L 61,35 L 59,37 L 62,40 L 62,41 L 63,41 L 64,42 L 64,43 L 65,43 L 66,44 L 66,45 L 67,45 L 68,46 L 68,47 L 69,47 L 70,48 L 70,49 L 71,49 L 72,50 L 72,51 L 73,51 L 76,54 L 76,55 L 80,59 L 81,59 L 82,60 L 82,61 L 84,63 L 85,63 L 86,64 L 86,65 L 87,65 L 88,66 L 88,67 L 89,67 L 90,68 L 90,69 L 91,69 L 92,70 L 92,71 L 93,71 L 94,72 L 94,73 L 95,73 L 96,74 L 96,75 L 97,75 L 98,76 L 98,77 L 99,77 L 100,78 L 100,79 L 101,79 L 102,80 L 102,81 L 103,81 L 104,82 L 104,83 L 105,83 L 106,84 L 106,85 L 118,97 L 118,98 L 121,101 L 121,104 L 120,105 L 120,107 L 118,109 L 118,110 L 116,112 L 116,113 L 115,114 L 115,115 L 114,116 L 114,117 L 113,118 L 113,119 L 112,120 L 112,121 L 111,122 L 111,123 L 109,125 L 109,126 L 108,127 L 108,129 L 107,130 L 106,130 L 106,132 L 104,134 L 104,135 L 103,136 L 103,137 L 102,138 L 102,139 L 101,140 L 101,141 L 100,142 L 100,143 L 98,145 L 98,146 L 96,148 L 96,150 L 94,152 L 94,153 L 93,154 L 93,155 L 92,156 L 92,157 L 91,158 L 91,159 L 90,160 L 90,161 L 88,163 L 88,164 L 86,166 L 86,168 L 84,170 L 84,171 L 83,172 L 83,173 L 82,174 L 82,175 L 81,176 L 81,177 L 80,178 L 80,179 L 79,180 L 78,180 L 78,182 L 79,183 L 83,183 L 85,181 L 85,180 L 87,178 L 87,177 L 88,176 L 88,174 L 89,173 L 89,172 L 90,171 L 91,171 L 91,170 L 92,169 L 92,168 L 93,167 L 93,166 L 94,165 L 94,164 L 95,163 L 95,162 L 96,161 L 96,160 L 97,159 L 97,158 L 99,156 L 99,155 L 101,153 L 101,150 L 102,149 L 103,149 L 103,148 L 104,147 L 104,146 L 105,145 L 105,143 L 107,141 L 107,140 L 108,139 L 108,138 L 109,137 L 109,136 L 111,134 L 111,132 L 113,130 L 113,129 L 115,127 L 115,126 L 116,125 L 116,124 L 117,123 L 117,122 L 118,121 L 118,120 L 119,119 L 119,118 L 121,116 L 121,114 L 123,112 L 123,110 L 127,106 L 129,106 L 130,107 L 133,107 L 134,108 L 134,109 L 137,109 L 138,110 L 140,110 L 141,111 L 143,111 L 144,112 L 145,112 L 146,113 L 147,113 L 149,115 L 152,115 L 153,116 L 154,116 L 155,117 L 157,117 L 158,118 L 160,118 L 161,119 L 162,119 L 164,121 L 166,121 L 167,122 L 168,122 L 169,123 L 170,123 L 171,124 L 172,124 L 173,125 L 175,125 L 176,126 L 177,126 L 178,127 L 181,127 L 183,129 L 185,129 L 186,130 L 187,130 L 188,131 L 191,131 L 193,133 L 195,133 L 196,134 L 197,134 L 198,135 L 200,135 L 202,137 L 204,137 L 206,139 L 209,139 L 210,138 L 210,137 L 212,135 L 210,133 L 209,133 L 208,132 L 206,132 L 205,131 L 204,131 L 203,130 L 200,130 L 199,129 L 198,129 L 197,128 L 195,128 L 193,126 L 190,126 L 188,124 L 185,124 L 183,122 L 181,122 L 180,121 L 178,121 L 177,120 L 176,120 L 175,119 L 174,119 L 173,118 L 170,118 L 168,116 L 166,116 L 165,115 L 164,115 L 163,114 L 161,114 L 160,113 L 159,113 L 158,112 L 156,112 L 155,111 L 154,111 L 153,110 L 151,110 L 149,108 L 147,108 L 146,107 L 145,107 L 144,106 L 142,106 L 141,105 L 140,105 L 139,104 L 137,104 L 136,103 L 135,103 L 134,102 L 132,102 L 131,101 L 130,101 L 129,100 L 129,97 L 131,95 L 131,91 L 132,90 L 132,88 L 133,87 L 133,84 L 134,83 L 134,81 L 135,80 L 135,75 L 136,74 L 136,72 L 137,71 L 137,66 L 138,65 L 138,64 L 139,63 L 139,57 L 141,55 L 141,50 L 142,49 L 142,47 L 143,46 L 143,42 L 144,41 L 144,39 L 145,38 L 145,33 L 146,32 L 146,29 L 147,28 L 147,23 L 148,22 L 148,20 L 149,19 L 149,13 L 148,13 Z" fill="black" /><path d="M 0,0 L 0,213 L 256,213 L 256,0 Z" fill="none" stroke="black" stroke-width="1" /></svg>