<?xml version="1.0" encoding="utf-8" ?>
<svg baseProfile="full" height="222" version="1.1" width="258" xmlns="http://www.w3.org/2000/svg" xmlns:ev="http://www.w3.org/2001/xml-events" xmlns:xlink="http://www.w3.org/1999/xlink"><defs /><rect fill="white" height="222" width="258" x="0" y="0" /><circle cx="153.35293579101562" cy="205.76470947265625" fill="none" r="5.407393932342529" stroke="black" stroke-width="1" /><circle cx="153.5" cy="205.5" fill="black" r="10.12432861328125" stroke="black" stroke-width="1" /><circle cx="122.4000015258789" cy="200.14999389648438" fill="none" r="5.41143274307251" stroke="black" stroke-width="1" /><circle cx="122.5" cy="200.5" fill="black" r="10.12432861328125" stroke="black" stroke-width="1" /><circle cx="91.05555725097656" cy="190.5" fill="none" r="5.273488998413086" stroke="black" stroke-width="1" /><circle cx="91.44642639160156" cy="190.6607208251953" fill="black" r="9.992598533630371" stroke="black" stroke-width="1" /><circle cx="61.0" cy="176.5" fill="none" r="3.201662063598633" stroke="black" stroke-width="1" /><circle cx="60.99006652832031" cy="176.7119140625" fill="black" r="10.167754173278809" stroke="black" stroke-width="1" /><circle cx="230.35714721679688" cy="152.0" fill="none" r="5.52785587310791" stroke="black" stroke-width="1" /><circle cx="168.5" cy="147.5" fill="none" r="2.9155757427215576" stroke="black" stroke-width="1" /><circle cx="230.1666717529297" cy="152.1666717529297" fill="black" r="10.330741882324219" stroke="black" stroke-width="1" /><circle cx="38.77777862548828" cy="145.0" fill="none" r="5.179593563079834" stroke="black" stroke-width="1" /><circle cx="168.75315856933594" cy="147.8164520263672" fill="black" r="10.259684562683105" stroke="black" stroke-width="1" /><path d="M 37,135 L 49,144 L 41,156 L 29,147 Z" fill="black" stroke="black" stroke-width="1" /><circle cx="210.90322875976562" cy="127.7741928100586" fill="none" r="5.214442729949951" stroke="black" stroke-width="1" /><circle cx="144.60000610351562" cy="127.1500015258789" fill="none" r="5.411426544189453" stroke="black" stroke-width="1" /><circle cx="210.70553588867188" cy="127.59486389160156" fill="black" r="10.285642623901367" stroke="black" stroke-width="1" /><circle cx="144.6481475830078" cy="127.35185241699219" fill="black" r="10.31493091583252" stroke="black" stroke-width="1" /><circle cx="116.1329116821289" cy="115.80379486083984" fill="none" r="5.6170220375061035" stroke="black" stroke-width="1" /><path d="M 84,109 L 82,111 L 82,117 L 87,118 L 91,115 L 91,112 Z" fill="none" stroke="black" stroke-width="1" /><circle cx="54.599998474121094" cy="113.8499984741211" fill="none" r="5.411430358886719" stroke="black" stroke-width="1" /><path d="M 26,109 L 22,114 L 24,118 L 29,119 L 33,114 L 31,110 Z" fill="none" stroke="black" stroke-width="1" /><circle cx="116.07471466064453" cy="116.04022979736328" fill="black" r="10.380579948425293" stroke="black" stroke-width="1" /><circle cx="27.5" cy="114.125" fill="black" r="10.477008819580078" stroke="black" stroke-width="1" /><circle cx="85.968505859375" cy="113.69685363769531" fill="black" r="10.501618385314941" stroke="black" stroke-width="1" /><circle cx="54.697532653808594" cy="113.74691009521484" fill="black" r="10.228723526000977" stroke="black" stroke-width="1" /><circle cx="195.0" cy="94.5" fill="none" r="5.590270042419434" stroke="black" stroke-width="1" /><circle cx="194.65383911132812" cy="94.80769348144531" fill="black" r="10.168061256408691" stroke="black" stroke-width="1" /><circle cx="28.090909957885742" cy="78.21212005615234" fill="none" r="5.2246270179748535" stroke="black" stroke-width="1" /><circle cx="28.256521224975586" cy="78.58695983886719" fill="black" r="10.330801010131836" stroke="black" stroke-width="1" /><circle cx="176.22222900390625" cy="69.91666412353516" fill="none" r="5.228298187255859" stroke="black" stroke-width="1" /><circle cx="176.08973693847656" cy="70.02564239501953" fill="black" r="10.36193561553955" stroke="black" stroke-width="1" /><circle cx="240.60000610351562" cy="54.150001525878906" fill="none" r="5.411426544189453" stroke="black" stroke-width="1" /><circle cx="240.6481475830078" cy="54.64814758300781" fill="black" r="10.31493091583252" stroke="black" stroke-width="1" /><circle cx="45.21428680419922" cy="45.78571319580078" fill="none" r="5.353907108306885" stroke="black" stroke-width="1" /><circle cx="163.5" cy="41.5" fill="none" r="5.700977325439453" stroke="black" stroke-width="1" /><circle cx="44.72262954711914" cy="45.72992706298828" fill="black" r="10.413642883300781" stroke="black" stroke-width="1" /><circle cx="163.5" cy="42.0" fill="black" r="10.688879013061523" stroke="black" stroke-width="1" /><circle cx="223.5" cy="32.0" fill="none" r="5.590270042419434" stroke="black" stroke-width="1" /><circle cx="223.5" cy="32.0" fill="black" r="10.30786418914795" stroke="black" stroke-width="1" /><circle cx="74.40410614013672" cy="23.445205688476562" fill="none" r="5.623428821563721" stroke="black" stroke-width="1" /><circle cx="190.5" cy="19.0" fill="none" r="5.590270042419434" stroke="black" stroke-width="1" /><circle cx="74.1875" cy="22.875" fill="black" r="10.040059089660645" stroke="black" stroke-width="1" /><circle cx="189.8225860595703" cy="19.080644607543945" fill="black" r="10.313227653503418" stroke="black" stroke-width="1" /><circle cx="112.64286041259766" cy="14.785714149475098" fill="none" r="5.414552211761475" stroke="black" stroke-width="1" /><circle cx="152.3947296142578" cy="12.184210777282715" fill="none" r="3.2413265705108643" stroke="black" stroke-width="1" /><circle cx="111.98275756835938" cy="15.017241477966309" fill="black" r="10.792844772338867" stroke="black" stroke-width="1" /><circle cx="152.5" cy="12.0" fill="black" r="10.111974716186523" stroke="black" stroke-width="1" /><path d="M 0,0 L 0,221 L 257,221 L 257,0 Z" fill="none" stroke="black" stroke-width="1" /></svg>