<?xml version="1.0" encoding="utf-8" ?>
<svg baseProfile="full" height="218" version="1.1" width="261" xmlns="http://www.w3.org/2000/svg" xmlns:ev="http://www.w3.org/2001/xml-events" xmlns:xlink="http://www.w3.org/1999/xlink"><defs /><rect fill="white" height="218" width="261" x="0" y="0" /><circle cx="169.0357208251953" cy="198.05357360839844" fill="none" r="5.053791046142578" stroke="black" stroke-width="1" /><circle cx="133.05555725097656" cy="195.3148193359375" fill="none" r="5.223835468292236" stroke="black" stroke-width="1" /><circle cx="201.07142639160156" cy="191.64285278320312" fill="none" r="3.3580024242401123" stroke="black" stroke-width="1" /><circle cx="168.80479431152344" cy="198.59588623046875" fill="black" r="10.748598098754883" stroke="black" stroke-width="1" /><circle cx="133.16531372070312" cy="195.19387817382812" fill="black" r="10.545614242553711" stroke="black" stroke-width="1" /><circle cx="97.0625" cy="189.734375" fill="none" r="5.1155877113342285" stroke="black" stroke-width="1" /><circle cx="201.0" cy="192.0" fill="black" r="10.440406799316406" stroke="black" stroke-width="1" /><circle cx="97.25806427001953" cy="189.48387145996094" fill="black" r="10.844040870666504" stroke="black" stroke-width="1" /><circle cx="69.0" cy="177.0" fill="none" r="3.6056511402130127" stroke="black" stroke-width="1" /><circle cx="226.5" cy="177.5" fill="none" r="5.147915363311768" stroke="black" stroke-width="1" /><circle cx="226.5" cy="178.0" fill="black" r="10.688879013061523" stroke="black" stroke-width="1" /><circle cx="69.0" cy="177.1999969482422" fill="black" r="10.49962329864502" stroke="black" stroke-width="1" /><circle cx="42.5" cy="157.7857208251953" fill="none" r="5.0153889656066895" stroke="black" stroke-width="1" /><circle cx="42.21428680419922" cy="157.7857208251953" fill="black" r="10.893370628356934" stroke="black" stroke-width="1" /><circle cx="236.5" cy="149.5" fill="none" r="5.147915363311768" stroke="black" stroke-width="1" /><circle cx="236.20437622070312" cy="149.3795623779297" fill="black" r="10.749552726745605" stroke="black" stroke-width="1" /><circle cx="154.75" cy="142.75" fill="none" r="5.062214374542236" stroke="black" stroke-width="1" /><circle cx="128.14285278320312" cy="141.85714721679688" fill="none" r="5.200184345245361" stroke="black" stroke-width="1" /><circle cx="154.0" cy="142.5" fill="black" r="10.920265197753906" stroke="black" stroke-width="1" /><circle cx="127.579833984375" cy="141.4537811279297" fill="black" r="10.977737426757812" stroke="black" stroke-width="1" /><circle cx="180.5" cy="128.5" fill="none" r="4.743516445159912" stroke="black" stroke-width="1" /><circle cx="29.5" cy="129.0" fill="none" r="4.924529075622559" stroke="black" stroke-width="1" /><circle cx="180.0992431640625" cy="128.66412353515625" fill="black" r="11.119194984436035" stroke="black" stroke-width="1" /><circle cx="29.5" cy="129.75" fill="black" r="10.854247093200684" stroke="black" stroke-width="1" /><circle cx="237.5" cy="115.0" fill="none" r="5.315173149108887" stroke="black" stroke-width="1" /><circle cx="237.26190185546875" cy="115.5" fill="black" r="10.842453956604004" stroke="black" stroke-width="1" /><circle cx="38.77777862548828" cy="103.08333587646484" fill="none" r="5.228305339813232" stroke="black" stroke-width="1" /><circle cx="38.41999816894531" cy="103.58000183105469" fill="black" r="10.69742488861084" stroke="black" stroke-width="1" /><circle cx="180.25" cy="97.25" fill="none" r="5.062214374542236" stroke="black" stroke-width="1" /><circle cx="180.0343475341797" cy="97.74427795410156" fill="black" r="11.037410736083984" stroke="black" stroke-width="1" /><circle cx="232.89535522460938" cy="85.5465087890625" fill="none" r="4.925860404968262" stroke="black" stroke-width="1" /><circle cx="61.260868072509766" cy="84.34782409667969" fill="none" r="5.018968105316162" stroke="black" stroke-width="1" /><circle cx="232.75" cy="85.75" fill="black" r="10.636123657226562" stroke="black" stroke-width="1" /><circle cx="61.037635803222656" cy="84.66487121582031" fill="black" r="11.068756103515625" stroke="black" stroke-width="1" /><circle cx="157.94444274902344" cy="76.5" fill="none" r="5.273491859436035" stroke="black" stroke-width="1" /><circle cx="158.5" cy="76.5" fill="black" r="10.700567245483398" stroke="black" stroke-width="1" /><circle cx="93.0" cy="71.0" fill="none" r="5.000100135803223" stroke="black" stroke-width="1" /><circle cx="128.0" cy="67.5" fill="none" r="4.924529075622559" stroke="black" stroke-width="1" /><circle cx="92.75" cy="71.25" fill="black" r="10.636123657226562" stroke="black" stroke-width="1" /><circle cx="128.0" cy="67.5" fill="black" r="10.30786418914795" stroke="black" stroke-width="1" /><circle cx="225.26785278320312" cy="54.89285659790039" fill="none" r="5.392989635467529" stroke="black" stroke-width="1" /><circle cx="224.72413635253906" cy="54.58620834350586" fill="black" r="10.828178405761719" stroke="black" stroke-width="1" /><circle cx="211.5" cy="21.0" fill="none" r="3.6401548385620117" stroke="black" stroke-width="1" /><circle cx="211.5" cy="20.954545974731445" fill="black" r="10.552018165588379" stroke="black" stroke-width="1" /><circle cx="176.5" cy="14.5" fill="none" r="4.743516445159912" stroke="black" stroke-width="1" /><circle cx="144.86000061035156" cy="12.739999771118164" fill="none" r="5.579275131225586" stroke="black" stroke-width="1" /><circle cx="57.0" cy="12.0" fill="none" r="4.472236156463623" stroke="black" stroke-width="1" /><circle cx="24.5" cy="11.5" fill="none" r="3.8079864978790283" stroke="black" stroke-width="1" /><circle cx="85.5" cy="11.5" fill="none" r="5.147915363311768" stroke="black" stroke-width="1" /><circle cx="176.31497192382812" cy="14.544053077697754" fill="black" r="10.795287132263184" stroke="black" stroke-width="1" /><circle cx="114.30000305175781" cy="9.699999809265137" fill="none" r="5.420430660247803" stroke="black" stroke-width="1" /><circle cx="143.6904754638672" cy="13.0" fill="black" r="10.737244606018066" stroke="black" stroke-width="1" /><circle cx="84.70992279052734" cy="11.503816604614258" fill="black" r="10.870352745056152" stroke="black" stroke-width="1" /><circle cx="56.79411697387695" cy="11.441176414489746" fill="black" r="10.808672904968262" stroke="black" stroke-width="1" /><circle cx="24.60431671142578" cy="11.474820137023926" fill="black" r="10.617413520812988" stroke="black" stroke-width="1" /><circle cx="114.48564910888672" cy="9.88755989074707" fill="black" r="10.696418762207031" stroke="black" stroke-width="1" /><path d="M 0,0 L 0,217 L 260,217 L 260,0 Z" fill="none" stroke="black" stroke-width="1" /></svg>