<?xml version='1.0' encoding='utf-8'?>
<svg width="258" height="218" xmlns="http://www.w3.org/2000/svg" viewBox="0 0 258 218"><rect width="258" height="218" fill="white" /><path d="M 10,188 L 6,192 L 6,193 L 5,194 L 5,197 L 6,198 L 6,201 L 9,204 L 10,204 L 11,205 L 16,205 L 17,204 L 18,204 L 22,200 L 22,199 L 23,198 L 23,194 L 22,193 L 22,192 L 21,191 L 21,190 L 19,188 Z" fill="black" /><path d="M 209,178 L 208,179 L 207,179 L 203,183 L 203,184 L 202,185 L 202,190 L 207,195 L 215,195 L 219,191 L 219,188 L 220,187 L 220,186 L 219,185 L 219,184 L 218,183 L 218,182 L 217,181 L 217,180 L 215,180 L 213,178 Z" fill="black" /><path d="M 38,172 L 37,173 L 36,173 L 35,174 L 34,174 L 34,175 L 32,177 L 32,183 L 33,184 L 33,185 L 35,187 L 36,187 L 38,189 L 41,189 L 42,188 L 44,188 L 47,185 L 47,184 L 49,182 L 49,178 L 47,176 L 47,175 L 45,173 L 44,173 L 43,172 Z" fill="black" /><path d="M 181,169 L 176,174 L 176,181 L 181,186 L 183,186 L 184,187 L 186,187 L 187,186 L 188,186 L 189,185 L 190,185 L 191,184 L 191,183 L 192,182 L 192,181 L 193,180 L 193,174 L 189,170 L 186,170 L 185,169 Z" fill="black" /><path d="M 157,154 L 156,155 L 155,155 L 154,156 L 152,156 L 152,157 L 150,159 L 150,165 L 151,166 L 151,167 L 155,171 L 161,171 L 162,170 L 163,170 L 167,166 L 167,159 L 166,158 L 166,157 L 164,155 L 163,155 L 162,154 Z" fill="black" /><path d="M 227,153 L 226,154 L 225,154 L 222,157 L 222,158 L 221,159 L 221,164 L 222,165 L 222,167 L 224,169 L 227,169 L 229,171 L 232,171 L 238,165 L 238,164 L 239,163 L 239,161 L 238,160 L 238,158 L 237,157 L 237,156 L 235,154 L 234,154 L 233,153 Z" fill="black" /><path d="M 65,152 L 60,157 L 60,164 L 62,166 L 62,167 L 63,168 L 64,168 L 65,169 L 72,169 L 76,165 L 76,163 L 77,162 L 77,158 L 71,152 Z" fill="black" /><path d="M 135,135 L 134,136 L 133,136 L 131,138 L 131,139 L 130,140 L 130,146 L 132,148 L 132,149 L 134,151 L 136,151 L 137,152 L 139,152 L 140,151 L 142,151 L 143,150 L 144,150 L 147,147 L 147,140 L 142,135 Z" fill="black" /><path d="M 92,132 L 88,136 L 88,137 L 87,138 L 87,141 L 88,142 L 88,145 L 90,147 L 93,147 L 94,148 L 97,148 L 98,147 L 101,147 L 101,146 L 102,145 L 102,144 L 103,143 L 103,142 L 104,141 L 103,140 L 103,136 L 101,134 L 101,133 L 100,132 Z" fill="black" /><path d="M 237,127 L 236,128 L 233,128 L 230,131 L 230,136 L 229,137 L 229,139 L 230,140 L 230,141 L 231,142 L 232,142 L 233,143 L 236,143 L 237,144 L 238,144 L 239,143 L 242,143 L 243,142 L 244,142 L 246,140 L 246,139 L 247,138 L 247,135 L 246,134 L 246,132 L 244,130 L 244,129 L 242,127 Z" fill="black" /><path d="M 116,114 L 115,115 L 113,115 L 110,118 L 110,119 L 109,120 L 109,126 L 111,128 L 111,129 L 112,130 L 112,131 L 122,131 L 122,130 L 124,128 L 125,128 L 125,126 L 126,125 L 126,121 L 125,120 L 125,118 L 123,116 L 122,116 L 121,115 L 120,115 L 119,114 Z" fill="black" /><path d="M 138,96 L 134,100 L 134,108 L 138,112 L 139,112 L 140,113 L 146,113 L 147,112 L 148,112 L 149,111 L 149,108 L 151,106 L 151,101 L 150,100 L 150,99 L 148,97 L 147,97 L 146,96 Z" fill="black" /><path d="M 102,92 L 101,93 L 100,93 L 99,94 L 97,94 L 97,95 L 95,97 L 95,98 L 94,99 L 94,104 L 95,105 L 95,106 L 97,108 L 98,108 L 99,109 L 100,109 L 101,110 L 105,110 L 106,109 L 107,109 L 111,105 L 111,97 L 109,95 L 108,95 L 106,93 L 106,92 Z" fill="black" /><path d="M 166,72 L 164,74 L 163,74 L 162,75 L 162,76 L 160,78 L 160,83 L 165,88 L 166,88 L 167,89 L 171,89 L 172,88 L 174,88 L 176,86 L 176,85 L 177,84 L 177,79 L 178,78 L 177,77 L 177,75 L 176,75 L 174,73 L 174,72 Z" fill="black" /><path d="M 87,67 L 86,68 L 84,68 L 82,70 L 82,71 L 81,72 L 81,80 L 84,83 L 86,83 L 87,84 L 90,84 L 91,83 L 94,83 L 97,80 L 97,76 L 98,75 L 98,72 L 97,71 L 97,70 L 94,67 Z" fill="black" /><path d="M 198,51 L 197,52 L 195,52 L 194,53 L 194,54 L 192,56 L 192,62 L 194,64 L 194,65 L 195,65 L 197,67 L 204,67 L 207,64 L 207,62 L 208,61 L 208,58 L 207,57 L 207,55 L 206,54 L 206,53 L 205,52 L 202,52 L 201,51 Z" fill="black" /><path d="M 70,39 L 69,40 L 67,40 L 66,41 L 66,42 L 64,44 L 64,46 L 63,47 L 63,48 L 64,49 L 64,52 L 66,54 L 66,55 L 67,56 L 68,56 L 69,57 L 70,56 L 75,56 L 76,55 L 77,55 L 79,53 L 79,52 L 80,51 L 80,44 L 76,40 L 74,40 L 73,39 Z" fill="black" /><path d="M 223,26 L 222,27 L 221,27 L 220,28 L 219,28 L 216,31 L 216,38 L 217,39 L 217,40 L 219,42 L 220,42 L 221,43 L 227,43 L 229,41 L 230,41 L 231,40 L 231,39 L 232,38 L 232,32 L 231,31 L 231,30 L 229,28 L 228,28 L 227,27 L 225,27 L 224,26 Z" fill="black" /><path d="M 41,20 L 40,21 L 39,21 L 35,25 L 35,33 L 36,34 L 36,35 L 38,37 L 41,37 L 42,38 L 46,38 L 51,33 L 51,32 L 52,31 L 52,26 L 46,20 Z" fill="black" /><path d="M 12,15 L 11,16 L 8,16 L 4,20 L 4,27 L 8,31 L 9,31 L 11,33 L 14,33 L 16,31 L 17,31 L 18,30 L 19,30 L 21,28 L 21,26 L 22,25 L 22,23 L 21,22 L 21,19 L 20,18 L 20,17 L 19,16 L 18,16 L 17,15 Z" fill="black" /></svg>