<?xml version="1.0" encoding="utf-8" ?>
<svg baseProfile="full" height="218" version="1.1" width="263" xmlns="http://www.w3.org/2000/svg" xmlns:ev="http://www.w3.org/2001/xml-events" xmlns:xlink="http://www.w3.org/1999/xlink"><defs /><rect fill="white" height="218" width="263" x="0" y="0" /><circle cx="130.0" cy="194.35714721679688" fill="none" r="5.52786111831665" stroke="black" stroke-width="1" /><circle cx="160.25" cy="191.875" fill="none" r="3.365827798843384" stroke="black" stroke-width="1" /><circle cx="99.57894897460938" cy="192.84210205078125" fill="none" r="5.486166954040527" stroke="black" stroke-width="1" /><path d="M 73,187 L 70,186 L 64,190 L 66,195 L 73,195 Z" fill="none" stroke="black" stroke-width="1" /><circle cx="129.6551055908203" cy="193.8142852783203" fill="black" r="10.720976829528809" stroke="black" stroke-width="1" /><circle cx="186.0" cy="188.0" fill="none" r="5.385264873504639" stroke="black" stroke-width="1" /><circle cx="99.3310775756836" cy="192.44595336914062" fill="black" r="10.64220142364502" stroke="black" stroke-width="1" /><circle cx="38.83333206176758" cy="188.5" fill="none" r="5.441710472106934" stroke="black" stroke-width="1" /><circle cx="160.26718139648438" cy="191.9236602783203" fill="black" r="10.494054794311523" stroke="black" stroke-width="1" /><circle cx="69.19999694824219" cy="191.5" fill="black" r="10.783881187438965" stroke="black" stroke-width="1" /><circle cx="39.0" cy="188.61538696289062" fill="black" r="10.633585929870605" stroke="black" stroke-width="1" /><circle cx="185.5" cy="188.5" fill="black" r="10.79361629486084" stroke="black" stroke-width="1" /><circle cx="210.2142791748047" cy="182.2142791748047" fill="none" r="5.27325439453125" stroke="black" stroke-width="1" /><circle cx="210.0" cy="182.26315307617188" fill="black" r="10.526543617248535" stroke="black" stroke-width="1" /><path d="M 228,159 L 226,160 L 225,166 L 230,169 L 235,163 L 233,160 Z" fill="none" stroke="black" stroke-width="1" /><circle cx="30.578947067260742" cy="162.1052703857422" fill="none" r="5.532680034637451" stroke="black" stroke-width="1" /><circle cx="229.39999389648438" cy="164.39999389648438" fill="black" r="10.720170021057129" stroke="black" stroke-width="1" /><circle cx="31.0" cy="162.5" fill="black" r="11.10190200805664" stroke="black" stroke-width="1" /><circle cx="232.91790771484375" cy="136.76866149902344" fill="none" r="5.139993190765381" stroke="black" stroke-width="1" /><circle cx="232.5" cy="136.85714721679688" fill="black" r="10.669771194458008" stroke="black" stroke-width="1" /><circle cx="108.78571319580078" cy="118.0" fill="none" r="3.7858150005340576" stroke="black" stroke-width="1" /><circle cx="77.35713958740234" cy="116.07142639160156" fill="none" r="5.463335990905762" stroke="black" stroke-width="1" /><circle cx="108.79463958740234" cy="117.99107360839844" fill="black" r="10.993087768554688" stroke="black" stroke-width="1" /><circle cx="77.1839370727539" cy="116.31864929199219" fill="black" r="11.061895370483398" stroke="black" stroke-width="1" /><circle cx="233.13636779785156" cy="107.86363983154297" fill="none" r="5.464106559753418" stroke="black" stroke-width="1" /><circle cx="133.875" cy="106.5" fill="none" r="5.4787516593933105" stroke="black" stroke-width="1" /><circle cx="54.5" cy="105.33333587646484" fill="none" r="5.069069862365723" stroke="black" stroke-width="1" /><circle cx="233.0" cy="108.0" fill="black" r="10.770429611206055" stroke="black" stroke-width="1" /><circle cx="133.5" cy="107.5" fill="black" r="11.068072319030762" stroke="black" stroke-width="1" /><circle cx="54.22950744628906" cy="105.57376861572266" fill="black" r="10.788143157958984" stroke="black" stroke-width="1" /><circle cx="155.06521606445312" cy="85.84782409667969" fill="none" r="5.5035786628723145" stroke="black" stroke-width="1" /><circle cx="155.35714721679688" cy="86.5" fill="black" r="10.932642936706543" stroke="black" stroke-width="1" /><circle cx="233.28260803222656" cy="80.93478393554688" fill="none" r="5.225186347961426" stroke="black" stroke-width="1" /><circle cx="64.21428680419922" cy="80.78571319580078" fill="none" r="5.273250579833984" stroke="black" stroke-width="1" /><circle cx="233.0" cy="80.55555725097656" fill="black" r="10.57668685913086" stroke="black" stroke-width="1" /><circle cx="63.82352828979492" cy="80.86764526367188" fill="black" r="10.98358154296875" stroke="black" stroke-width="1" /><circle cx="175.5" cy="66.21428680419922" fill="none" r="5.015383243560791" stroke="black" stroke-width="1" /><circle cx="175.04666137695312" cy="66.36666870117188" fill="black" r="10.595848083496094" stroke="black" stroke-width="1" /><circle cx="80.86363983154297" cy="55.54545593261719" fill="none" r="5.4480109214782715" stroke="black" stroke-width="1" /><circle cx="226.75" cy="50.75" fill="none" r="5.062214374542236" stroke="black" stroke-width="1" /><circle cx="80.64814758300781" cy="55.64814758300781" fill="black" r="10.775044441223145" stroke="black" stroke-width="1" /><circle cx="197.94444274902344" cy="48.685184478759766" fill="none" r="5.22383451461792" stroke="black" stroke-width="1" /><circle cx="226.75830078125" cy="50.40774917602539" fill="black" r="10.7076997756958" stroke="black" stroke-width="1" /><circle cx="197.38235473632812" cy="48.82352828979492" fill="black" r="10.759542465209961" stroke="black" stroke-width="1" /><circle cx="100.5" cy="36.5" fill="none" r="5.147915363311768" stroke="black" stroke-width="1" /><circle cx="100.92857360839844" cy="37.0" fill="black" r="11.116600036621094" stroke="black" stroke-width="1" /><circle cx="122.78571319580078" cy="16.785715103149414" fill="none" r="5.273252487182617" stroke="black" stroke-width="1" /><circle cx="123.11320495605469" cy="17.283018112182617" fill="black" r="10.774740219116211" stroke="black" stroke-width="1" /><path d="M 0,0 L 0,217 L 262,217 L 262,0 Z" fill="none" stroke="black" stroke-width="1" /></svg>