<?xml version='1.0' encoding='utf-8'?>
<svg width="260" height="216" xmlns="http://www.w3.org/2000/svg" viewBox="0 0 260 216"><rect width="260" height="216" fill="white" /><path d="M 129,190 L 128,191 L 126,191 L 124,193 L 123,193 L 121,195 L 121,196 L 120,197 L 120,199 L 121,200 L 121,204 L 125,208 L 127,208 L 128,209 L 132,209 L 133,208 L 134,208 L 136,206 L 137,206 L 138,205 L 138,203 L 139,202 L 139,198 L 138,197 L 138,194 L 135,191 L 130,191 Z" fill="black" /><path d="M 96,190 L 95,191 L 94,191 L 92,193 L 91,193 L 89,195 L 89,204 L 90,205 L 90,206 L 92,208 L 93,208 L 94,209 L 99,209 L 100,208 L 103,208 L 106,205 L 106,195 L 104,193 L 103,193 L 102,192 L 101,192 L 99,190 Z" fill="black" /><path d="M 162,189 L 157,194 L 157,196 L 156,197 L 156,202 L 157,203 L 157,205 L 159,207 L 160,207 L 162,209 L 166,209 L 167,208 L 168,208 L 169,207 L 170,207 L 171,206 L 172,206 L 172,205 L 174,203 L 174,200 L 175,199 L 175,198 L 176,197 L 176,195 L 174,193 L 174,192 L 172,190 L 168,190 L 167,189 Z" fill="black" /><path d="M 195,188 L 194,189 L 194,191 L 193,192 L 193,194 L 192,195 L 192,197 L 193,198 L 193,199 L 192,200 L 192,201 L 193,202 L 194,202 L 195,201 L 196,201 L 197,202 L 197,203 L 200,206 L 203,206 L 204,205 L 206,205 L 208,203 L 208,202 L 210,200 L 210,194 L 208,192 L 208,191 L 206,189 L 205,189 L 204,188 Z" fill="black" /><path d="M 63,186 L 59,190 L 59,191 L 57,193 L 57,199 L 61,203 L 63,203 L 64,204 L 65,204 L 66,205 L 68,205 L 70,203 L 72,203 L 74,201 L 74,200 L 76,198 L 76,194 L 75,193 L 75,192 L 74,191 L 74,189 L 73,188 L 71,188 L 69,186 Z" fill="black" /><path d="M 34,177 L 33,178 L 29,178 L 25,182 L 25,184 L 24,185 L 24,187 L 25,188 L 25,191 L 29,195 L 32,195 L 33,196 L 36,196 L 37,195 L 39,195 L 42,192 L 42,189 L 43,188 L 42,187 L 42,181 L 39,178 L 35,178 Z" fill="black" /><path d="M 228,168 L 226,170 L 224,170 L 223,171 L 223,173 L 222,174 L 222,175 L 221,176 L 221,177 L 222,178 L 222,179 L 223,180 L 223,181 L 227,185 L 228,185 L 229,186 L 234,186 L 235,185 L 236,185 L 240,181 L 240,172 L 238,170 L 237,170 L 235,168 Z" fill="black" /><path d="M 25,146 L 24,147 L 23,147 L 22,148 L 21,148 L 19,150 L 19,153 L 18,154 L 19,155 L 19,160 L 20,161 L 21,161 L 23,163 L 24,163 L 25,164 L 30,164 L 31,163 L 32,163 L 33,162 L 34,162 L 36,160 L 36,158 L 37,157 L 37,152 L 36,151 L 36,150 L 34,148 L 32,148 L 31,147 L 30,147 L 29,146 Z" fill="black" /><path d="M 240,130 L 238,132 L 237,132 L 235,134 L 235,138 L 234,139 L 235,140 L 235,143 L 239,147 L 243,147 L 244,148 L 245,147 L 250,147 L 251,146 L 251,145 L 252,144 L 252,142 L 253,141 L 253,140 L 254,139 L 254,137 L 252,135 L 252,134 L 248,130 Z" fill="black" /><path d="M 136,126 L 134,128 L 133,128 L 130,131 L 130,137 L 131,138 L 131,140 L 132,141 L 132,142 L 133,143 L 134,143 L 135,144 L 136,144 L 137,145 L 142,145 L 146,141 L 146,140 L 147,139 L 147,138 L 148,137 L 148,132 L 147,131 L 147,130 L 146,129 L 145,129 L 143,127 L 142,127 L 141,126 Z" fill="black" /><path d="M 101,126 L 100,127 L 98,127 L 96,129 L 96,130 L 95,131 L 95,132 L 94,133 L 94,134 L 95,135 L 95,138 L 96,139 L 96,140 L 99,143 L 100,143 L 101,144 L 108,144 L 112,140 L 112,137 L 113,136 L 113,133 L 112,132 L 112,130 L 108,126 Z" fill="black" /><path d="M 27,112 L 25,114 L 24,114 L 22,116 L 22,117 L 21,118 L 21,126 L 25,130 L 28,130 L 29,131 L 33,131 L 35,129 L 36,129 L 36,128 L 40,124 L 40,120 L 39,119 L 39,118 L 38,117 L 38,116 L 35,113 L 31,113 L 30,112 Z" fill="black" /><path d="M 158,103 L 157,104 L 155,104 L 154,105 L 154,106 L 153,107 L 153,115 L 154,116 L 154,117 L 155,118 L 155,119 L 156,119 L 157,120 L 158,120 L 159,121 L 167,121 L 170,118 L 170,116 L 171,115 L 171,110 L 170,109 L 170,107 L 168,105 L 167,105 L 166,104 L 165,104 L 164,103 Z" fill="black" /><path d="M 86,96 L 85,97 L 84,97 L 83,98 L 83,99 L 81,101 L 81,104 L 80,105 L 81,106 L 81,108 L 82,109 L 82,111 L 84,113 L 85,113 L 87,115 L 89,115 L 90,114 L 95,114 L 98,111 L 98,110 L 99,109 L 99,107 L 100,106 L 100,102 L 95,97 L 93,97 L 92,96 Z" fill="black" /><path d="M 241,95 L 240,96 L 239,96 L 238,97 L 237,97 L 235,99 L 235,109 L 236,109 L 240,113 L 247,113 L 248,112 L 249,112 L 252,109 L 252,107 L 253,106 L 253,101 L 252,100 L 252,99 L 249,96 L 246,96 L 245,95 Z" fill="black" /><path d="M 25,77 L 24,78 L 23,78 L 21,80 L 20,80 L 19,81 L 19,89 L 23,93 L 24,93 L 26,95 L 30,95 L 31,94 L 32,94 L 33,93 L 34,93 L 36,91 L 36,90 L 37,89 L 37,83 L 36,82 L 36,81 L 35,80 L 35,79 L 34,78 L 31,78 L 30,77 Z" fill="black" /><path d="M 161,74 L 157,78 L 157,81 L 156,82 L 156,86 L 159,89 L 160,89 L 162,91 L 170,91 L 171,90 L 172,90 L 174,88 L 174,86 L 175,85 L 175,84 L 176,83 L 176,80 L 170,74 Z" fill="black" /><path d="M 85,64 L 82,67 L 81,67 L 81,69 L 80,70 L 80,73 L 81,74 L 81,77 L 85,81 L 94,81 L 98,77 L 98,68 L 94,64 Z" fill="black" /><path d="M 231,56 L 229,58 L 228,58 L 228,59 L 227,60 L 227,61 L 226,62 L 226,67 L 227,68 L 227,70 L 228,71 L 228,72 L 229,73 L 231,73 L 232,74 L 235,74 L 236,75 L 237,75 L 239,73 L 240,73 L 241,72 L 242,72 L 244,70 L 244,62 L 243,61 L 243,60 L 239,56 Z" fill="black" /><path d="M 24,44 L 21,47 L 20,47 L 19,48 L 19,51 L 18,52 L 18,55 L 19,56 L 19,58 L 22,61 L 24,61 L 25,62 L 29,62 L 30,61 L 32,61 L 33,60 L 35,60 L 36,59 L 36,57 L 37,56 L 37,50 L 36,49 L 36,48 L 34,46 L 33,46 L 32,45 L 31,45 L 30,44 Z" fill="black" /><path d="M 169,41 L 168,42 L 165,42 L 161,46 L 161,50 L 160,51 L 160,53 L 161,54 L 161,55 L 163,57 L 164,57 L 165,58 L 166,58 L 167,59 L 174,59 L 178,55 L 178,53 L 179,52 L 179,47 L 175,43 L 173,43 L 172,42 L 171,42 L 170,41 Z" fill="black" /><path d="M 90,31 L 85,36 L 85,42 L 87,44 L 87,45 L 90,48 L 94,48 L 95,49 L 96,48 L 100,48 L 102,46 L 102,45 L 104,43 L 104,36 L 102,34 L 102,33 L 101,32 L 98,32 L 97,31 Z" fill="black" /><path d="M 218,21 L 215,24 L 215,25 L 213,27 L 213,33 L 214,34 L 214,35 L 215,36 L 215,37 L 217,39 L 226,39 L 230,35 L 230,26 L 226,22 L 223,22 L 222,21 Z" fill="black" /><path d="M 184,16 L 179,21 L 179,28 L 184,33 L 192,33 L 194,31 L 194,30 L 196,28 L 196,20 L 192,16 Z" fill="black" /><path d="M 15,10 L 11,14 L 11,22 L 14,25 L 15,25 L 17,27 L 22,27 L 24,25 L 26,25 L 29,22 L 29,15 L 24,10 Z" fill="black" /><path d="M 102,0 L 101,1 L 99,1 L 98,2 L 97,2 L 94,5 L 94,6 L 93,7 L 93,11 L 94,12 L 94,13 L 95,14 L 95,15 L 98,18 L 100,18 L 101,19 L 104,19 L 105,18 L 107,18 L 111,14 L 111,13 L 112,12 L 112,6 L 107,1 L 106,1 L 105,0 Z" fill="black" /></svg>