<?xml version='1.0' encoding='utf-8'?>
<svg width="256" height="220" xmlns="http://www.w3.org/2000/svg" viewBox="0 0 256 220"><rect width="256" height="220" fill="white" /><path d="M 151,197 L 150,198 L 150,199 L 148,201 L 148,203 L 147,204 L 147,208 L 149,210 L 149,211 L 150,212 L 152,212 L 154,214 L 157,214 L 158,213 L 159,213 L 160,212 L 161,212 L 163,210 L 163,209 L 165,207 L 165,204 L 164,203 L 164,202 L 163,201 L 163,200 L 160,197 Z" fill="black" /><path d="M 13,193 L 10,196 L 10,205 L 13,208 L 15,208 L 16,209 L 17,209 L 18,210 L 19,210 L 20,209 L 21,209 L 22,208 L 23,208 L 26,205 L 26,204 L 27,203 L 27,199 L 26,198 L 26,197 L 25,196 L 25,195 L 24,194 L 23,194 L 22,193 Z" fill="black" /><path d="M 239,180 L 238,181 L 237,181 L 234,184 L 234,185 L 233,186 L 233,191 L 234,192 L 234,194 L 236,196 L 237,196 L 238,197 L 239,197 L 240,198 L 243,198 L 244,197 L 245,197 L 246,196 L 247,196 L 249,194 L 249,193 L 250,192 L 250,186 L 249,185 L 249,184 L 248,183 L 248,182 L 247,181 L 245,181 L 244,180 Z" fill="black" /><path d="M 149,165 L 146,168 L 146,169 L 145,170 L 145,178 L 149,182 L 155,182 L 156,181 L 157,181 L 158,180 L 159,180 L 161,178 L 161,171 L 158,168 L 158,167 L 156,165 Z" fill="black" /><path d="M 16,161 L 14,163 L 13,163 L 11,165 L 11,173 L 16,178 L 23,178 L 27,174 L 27,166 L 26,165 L 26,164 L 24,162 L 23,162 L 22,161 Z" fill="black" /><path d="M 240,148 L 239,149 L 238,149 L 237,150 L 236,150 L 235,151 L 235,152 L 234,153 L 234,161 L 238,165 L 239,165 L 240,166 L 243,166 L 244,165 L 246,165 L 251,160 L 251,154 L 250,153 L 250,152 L 247,149 L 246,149 L 245,148 Z" fill="black" /><path d="M 143,132 L 142,133 L 140,133 L 139,134 L 139,135 L 138,136 L 138,139 L 137,140 L 137,143 L 138,144 L 138,145 L 141,148 L 149,148 L 150,147 L 151,147 L 153,145 L 153,143 L 155,141 L 155,138 L 154,137 L 154,136 L 150,132 Z" fill="black" /><path d="M 19,126 L 18,127 L 16,127 L 15,128 L 15,129 L 14,130 L 14,132 L 13,133 L 13,136 L 14,137 L 14,139 L 16,141 L 17,141 L 18,142 L 19,142 L 20,143 L 22,143 L 23,142 L 27,142 L 31,138 L 31,131 L 29,129 L 29,128 L 28,127 L 27,127 L 26,126 Z" fill="black" /><path d="M 236,115 L 233,118 L 233,119 L 232,120 L 232,127 L 233,128 L 233,129 L 234,130 L 235,130 L 237,132 L 243,132 L 244,131 L 245,131 L 248,128 L 248,126 L 249,125 L 249,120 L 244,115 Z" fill="black" /><path d="M 142,95 L 137,100 L 137,108 L 139,110 L 140,110 L 142,112 L 148,112 L 149,111 L 150,111 L 153,108 L 153,107 L 154,106 L 154,100 L 150,96 L 149,96 L 148,95 Z" fill="black" /><path d="M 29,85 L 27,87 L 26,87 L 24,89 L 24,99 L 26,101 L 27,101 L 28,102 L 31,102 L 32,103 L 35,103 L 37,101 L 38,101 L 39,100 L 39,97 L 41,95 L 41,90 L 38,87 L 36,87 L 34,85 Z" fill="black" /><path d="M 230,75 L 226,79 L 226,80 L 225,81 L 225,86 L 226,87 L 226,89 L 228,91 L 229,91 L 230,92 L 237,92 L 238,91 L 239,91 L 241,89 L 241,87 L 243,85 L 243,83 L 242,82 L 242,80 L 238,76 L 237,76 L 236,75 Z" fill="black" /><path d="M 137,61 L 136,62 L 135,62 L 132,65 L 132,67 L 131,68 L 131,70 L 132,71 L 132,74 L 135,77 L 139,77 L 140,78 L 143,78 L 145,76 L 146,76 L 147,75 L 147,74 L 148,73 L 148,71 L 149,70 L 149,68 L 147,66 L 147,65 L 146,64 L 146,63 L 144,61 Z" fill="black" /><path d="M 40,54 L 39,55 L 37,55 L 36,56 L 36,58 L 34,60 L 34,65 L 36,67 L 36,70 L 40,70 L 41,71 L 44,71 L 45,70 L 49,70 L 49,69 L 50,68 L 50,67 L 51,66 L 51,59 L 46,54 Z" fill="black" /><path d="M 223,40 L 220,43 L 220,44 L 218,46 L 218,51 L 220,53 L 220,54 L 222,56 L 223,56 L 224,57 L 229,57 L 230,56 L 231,56 L 235,52 L 235,44 L 232,41 L 228,41 L 227,40 Z" fill="black" /><path d="M 131,31 L 126,36 L 126,38 L 125,39 L 125,44 L 127,46 L 127,47 L 128,48 L 130,48 L 131,49 L 136,49 L 137,48 L 139,48 L 142,45 L 142,40 L 143,39 L 143,38 L 141,36 L 141,35 L 139,33 L 136,33 L 134,31 Z" fill="black" /><path d="M 66,27 L 62,31 L 62,32 L 60,34 L 60,38 L 62,40 L 62,41 L 64,43 L 65,43 L 67,45 L 70,45 L 71,44 L 73,44 L 77,40 L 77,39 L 78,38 L 78,33 L 76,31 L 76,30 L 73,27 Z" fill="black" /><path d="M 198,11 L 197,12 L 196,12 L 195,13 L 194,13 L 192,15 L 192,25 L 194,27 L 195,27 L 196,28 L 198,28 L 199,29 L 200,29 L 201,28 L 205,28 L 208,25 L 208,24 L 209,23 L 209,16 L 208,15 L 208,14 L 207,13 L 206,13 L 204,11 Z" fill="black" /><path d="M 97,11 L 95,13 L 93,13 L 92,14 L 92,16 L 91,17 L 91,23 L 96,28 L 104,28 L 106,26 L 107,26 L 108,25 L 108,22 L 109,21 L 109,18 L 107,16 L 107,14 L 106,13 L 105,13 L 104,12 L 103,12 L 102,11 Z" fill="black" /><path d="M 160,5 L 156,9 L 156,10 L 155,11 L 155,12 L 154,13 L 154,16 L 155,17 L 155,18 L 160,23 L 165,23 L 166,22 L 168,22 L 170,20 L 170,19 L 172,17 L 172,12 L 171,11 L 171,9 L 169,7 L 168,7 L 166,5 Z" fill="black" /><path d="M 128,5 L 126,7 L 124,7 L 124,9 L 122,11 L 122,14 L 123,15 L 123,16 L 124,17 L 124,18 L 125,19 L 125,20 L 127,22 L 135,22 L 139,18 L 139,17 L 141,15 L 141,12 L 139,10 L 139,8 L 136,5 Z" fill="black" /></svg>