<?xml version='1.0' encoding='utf-8'?>
<svg width="256" height="217" xmlns="http://www.w3.org/2000/svg" viewBox="0 0 256 217"><rect width="256" height="217" fill="white" /><path d="M 92,195 L 90,197 L 88,197 L 85,200 L 85,202 L 84,203 L 84,208 L 88,212 L 89,212 L 90,213 L 92,213 L 93,214 L 94,214 L 95,213 L 96,213 L 97,212 L 98,212 L 99,211 L 100,211 L 101,210 L 101,201 L 100,200 L 100,199 L 98,197 L 97,197 L 95,195 Z" fill="black" /><path d="M 160,194 L 156,198 L 156,207 L 159,210 L 167,210 L 168,209 L 169,209 L 172,206 L 172,205 L 173,204 L 173,202 L 172,201 L 172,199 L 170,197 L 170,196 L 169,195 L 167,195 L 166,194 Z" fill="black" /><path d="M 125,193 L 124,194 L 123,194 L 119,198 L 119,199 L 118,200 L 118,205 L 119,206 L 119,207 L 122,210 L 125,210 L 126,211 L 130,211 L 134,207 L 135,207 L 135,199 L 129,193 Z" fill="black" /><path d="M 227,190 L 226,191 L 224,191 L 222,193 L 222,194 L 220,196 L 220,199 L 219,200 L 219,201 L 220,202 L 220,203 L 221,204 L 221,205 L 223,207 L 224,207 L 225,208 L 231,208 L 232,207 L 233,207 L 235,205 L 235,204 L 236,203 L 236,202 L 237,201 L 237,198 L 236,197 L 236,196 L 235,195 L 235,194 L 234,193 L 234,192 L 233,191 L 231,191 L 230,190 Z" fill="black" /><path d="M 193,190 L 192,191 L 191,191 L 188,194 L 188,196 L 186,198 L 186,200 L 187,201 L 187,202 L 189,204 L 189,205 L 191,207 L 200,207 L 202,205 L 202,204 L 203,203 L 203,202 L 204,201 L 204,198 L 203,197 L 204,196 L 203,195 L 203,194 L 201,192 L 200,192 L 198,190 Z" fill="black" /><path d="M 53,189 L 52,190 L 51,190 L 48,193 L 48,194 L 47,195 L 47,201 L 48,202 L 48,203 L 49,204 L 49,205 L 50,206 L 53,206 L 54,207 L 59,207 L 60,206 L 61,206 L 64,203 L 64,200 L 65,199 L 65,197 L 64,196 L 64,195 L 60,191 L 59,191 L 58,190 L 57,190 L 56,189 Z" fill="black" /><path d="M 21,175 L 20,176 L 19,176 L 14,181 L 14,187 L 15,188 L 15,189 L 18,192 L 21,192 L 22,193 L 24,193 L 25,192 L 28,192 L 31,189 L 31,188 L 32,187 L 32,185 L 31,184 L 31,180 L 27,176 L 26,176 L 25,175 Z" fill="black" /><path d="M 52,159 L 50,161 L 49,161 L 48,162 L 48,164 L 46,166 L 46,171 L 50,175 L 51,175 L 52,176 L 58,176 L 59,175 L 60,175 L 63,172 L 63,164 L 62,163 L 62,162 L 60,160 L 59,160 L 58,159 Z" fill="black" /><path d="M 21,146 L 20,147 L 16,147 L 16,148 L 14,150 L 14,151 L 13,152 L 13,155 L 14,156 L 14,159 L 18,163 L 20,163 L 21,164 L 25,164 L 30,159 L 30,158 L 31,157 L 31,152 L 30,151 L 30,150 L 26,146 Z" fill="black" /><path d="M 82,139 L 80,141 L 79,141 L 78,142 L 78,143 L 76,145 L 76,151 L 81,156 L 88,156 L 93,151 L 93,145 L 92,144 L 92,143 L 89,140 L 88,140 L 87,139 Z" fill="black" /><path d="M 109,123 L 108,124 L 107,124 L 106,125 L 105,125 L 104,126 L 104,127 L 103,128 L 103,129 L 102,130 L 102,134 L 108,140 L 112,140 L 113,139 L 114,139 L 115,138 L 117,138 L 119,136 L 119,128 L 118,127 L 118,126 L 116,124 L 115,124 L 114,123 Z" fill="black" /><path d="M 19,113 L 15,117 L 15,119 L 14,120 L 14,125 L 18,129 L 19,129 L 20,130 L 26,130 L 27,129 L 28,129 L 30,127 L 30,126 L 31,125 L 31,118 L 29,116 L 29,115 L 28,114 L 27,114 L 26,113 Z" fill="black" /><path d="M 144,97 L 143,98 L 141,98 L 140,99 L 139,99 L 138,100 L 138,101 L 136,103 L 136,110 L 140,114 L 149,114 L 151,112 L 151,110 L 152,109 L 152,108 L 153,107 L 153,105 L 152,104 L 152,103 L 151,102 L 151,101 L 149,99 L 148,99 L 147,98 L 146,98 L 145,97 Z" fill="black" /><path d="M 166,79 L 161,84 L 161,89 L 162,90 L 162,92 L 165,95 L 166,95 L 167,96 L 174,96 L 176,94 L 176,93 L 179,90 L 179,85 L 174,80 L 173,80 L 172,79 Z" fill="black" /><path d="M 25,79 L 24,80 L 23,80 L 22,81 L 21,81 L 19,83 L 18,83 L 18,93 L 19,93 L 22,96 L 31,96 L 33,94 L 33,93 L 34,92 L 34,90 L 35,89 L 35,87 L 34,86 L 34,84 L 33,83 L 33,82 L 32,81 L 30,81 L 28,79 Z" fill="black" /><path d="M 191,56 L 190,57 L 188,57 L 188,58 L 187,59 L 187,60 L 186,61 L 186,69 L 189,72 L 191,72 L 193,74 L 197,74 L 202,69 L 202,68 L 203,67 L 203,62 L 202,61 L 202,60 L 198,56 Z" fill="black" /><path d="M 24,44 L 23,45 L 22,45 L 18,49 L 18,56 L 22,60 L 24,60 L 25,61 L 29,61 L 30,60 L 31,60 L 34,57 L 34,55 L 35,54 L 35,50 L 34,49 L 34,48 L 31,45 L 30,45 L 29,44 Z" fill="black" /><path d="M 216,33 L 213,36 L 213,39 L 212,40 L 212,43 L 213,44 L 213,45 L 217,49 L 220,49 L 221,50 L 223,50 L 225,48 L 227,48 L 229,46 L 229,38 L 228,37 L 228,36 L 226,34 L 226,33 Z" fill="black" /><path d="M 24,12 L 23,13 L 21,13 L 20,14 L 20,18 L 19,19 L 19,24 L 22,27 L 22,28 L 31,28 L 36,23 L 36,20 L 35,19 L 35,16 L 32,13 L 29,13 L 28,12 Z" fill="black" /><path d="M 97,10 L 96,11 L 95,11 L 92,14 L 92,21 L 97,26 L 103,26 L 105,24 L 106,24 L 106,23 L 108,21 L 108,20 L 109,19 L 109,17 L 108,16 L 108,15 L 107,14 L 107,12 L 106,11 L 102,11 L 101,10 Z" fill="black" /><path d="M 61,10 L 60,11 L 58,11 L 58,12 L 57,13 L 57,14 L 56,15 L 56,22 L 61,27 L 66,27 L 67,26 L 68,26 L 69,25 L 70,25 L 72,23 L 72,20 L 73,19 L 73,17 L 72,16 L 72,13 L 71,13 L 68,10 Z" fill="black" /></svg>