<?xml version="1.0" encoding="utf-8" ?>
<svg baseProfile="full" height="220" version="1.1" width="262" xmlns="http://www.w3.org/2000/svg" xmlns:ev="http://www.w3.org/2001/xml-events" xmlns:xlink="http://www.w3.org/1999/xlink"><defs /><rect fill="white" height="220" width="262" x="0" y="0" /><circle cx="179.76922607421875" cy="192.3076934814453" fill="none" r="5.014874458312988" stroke="black" stroke-width="1" /><circle cx="210.8000030517578" cy="191.8000030517578" fill="none" r="5.2802534103393555" stroke="black" stroke-width="1" /><circle cx="18.5" cy="191.0" fill="none" r="5.4084272384643555" stroke="black" stroke-width="1" /><circle cx="179.5" cy="192.9166717529297" fill="black" r="10.673601150512695" stroke="black" stroke-width="1" /><circle cx="151.6521759033203" cy="187.2608642578125" fill="none" r="5.018970966339111" stroke="black" stroke-width="1" /><circle cx="210.31549072265625" cy="191.54428100585938" fill="black" r="10.795619010925293" stroke="black" stroke-width="1" /><circle cx="18.567567825317383" cy="191.32432556152344" fill="black" r="10.949382781982422" stroke="black" stroke-width="1" /><circle cx="151.1764678955078" cy="187.86764526367188" fill="black" r="10.98358154296875" stroke="black" stroke-width="1" /><circle cx="140.23077392578125" cy="161.3076934814453" fill="none" r="5.014868259429932" stroke="black" stroke-width="1" /><circle cx="25.429824829101562" cy="161.9385986328125" fill="none" r="5.31599235534668" stroke="black" stroke-width="1" /><circle cx="139.5" cy="161.5" fill="black" r="11.068072319030762" stroke="black" stroke-width="1" /><circle cx="25.554054260253906" cy="162.33108520507812" fill="black" r="10.64220905303955" stroke="black" stroke-width="1" /><circle cx="217.5" cy="156.5" fill="none" r="5.147915363311768" stroke="black" stroke-width="1" /><circle cx="217.1875" cy="156.5" fill="black" r="11.13720703125" stroke="black" stroke-width="1" /><circle cx="137.8000030517578" cy="130.8000030517578" fill="none" r="5.2802534103393555" stroke="black" stroke-width="1" /><circle cx="137.73287963867188" cy="131.1849365234375" fill="black" r="10.953120231628418" stroke="black" stroke-width="1" /><circle cx="33.5" cy="124.64286041259766" fill="none" r="3.677107572555542" stroke="black" stroke-width="1" /><circle cx="33.11224365234375" cy="124.7244873046875" fill="black" r="10.986492156982422" stroke="black" stroke-width="1" /><circle cx="220.0" cy="119.0" fill="none" r="5.385264873504639" stroke="black" stroke-width="1" /><circle cx="219.48361206054688" cy="119.05738067626953" fill="black" r="10.92043399810791" stroke="black" stroke-width="1" /><circle cx="134.60000610351562" cy="96.8499984741211" fill="none" r="5.411427021026611" stroke="black" stroke-width="1" /><circle cx="44.86000061035156" cy="95.73999786376953" fill="none" r="5.579273700714111" stroke="black" stroke-width="1" /><circle cx="135.2142791748047" cy="97.0" fill="black" r="10.969671249389648" stroke="black" stroke-width="1" /><circle cx="44.57117462158203" cy="96.23309326171875" fill="black" r="10.783796310424805" stroke="black" stroke-width="1" /><path d="M 225,86 L 222,85 L 217,87 L 216,89 L 219,94 L 223,94 L 227,89 Z" fill="none" stroke="black" stroke-width="1" /><circle cx="221.3225860595703" cy="90.19355010986328" fill="black" r="10.805401802062988" stroke="black" stroke-width="1" /><circle cx="64.80000305175781" cy="68.80000305175781" fill="none" r="5.2802534103393555" stroke="black" stroke-width="1" /><circle cx="64.5" cy="68.5" fill="black" r="10.511998176574707" stroke="black" stroke-width="1" /><circle cx="132.22222900390625" cy="61.0" fill="none" r="5.1795878410339355" stroke="black" stroke-width="1" /><circle cx="225.0" cy="58.599998474121094" fill="none" r="5.491910934448242" stroke="black" stroke-width="1" /><circle cx="131.68072509765625" cy="61.740962982177734" fill="black" r="10.821784019470215" stroke="black" stroke-width="1" /><circle cx="224.77499389648438" cy="58.4375" fill="black" r="10.787449836730957" stroke="black" stroke-width="1" /><circle cx="88.69999694824219" cy="42.5" fill="none" r="5.323636054992676" stroke="black" stroke-width="1" /><circle cx="87.69047546386719" cy="43.0" fill="black" r="10.737244606018066" stroke="black" stroke-width="1" /><circle cx="116.0" cy="32.22222137451172" fill="none" r="5.179593563079834" stroke="black" stroke-width="1" /><circle cx="226.5" cy="30.5" fill="none" r="5.147915363311768" stroke="black" stroke-width="1" /><circle cx="115.5952377319336" cy="32.5" fill="black" r="10.700990676879883" stroke="black" stroke-width="1" /><circle cx="226.5" cy="30.5" fill="black" r="10.606701850891113" stroke="black" stroke-width="1" /><path d="M 0,0 L 0,219 L 261,219 L 261,0 Z" fill="none" stroke="black" stroke-width="1" /></svg>