<?xml version="1.0" encoding="utf-8" ?>
<svg baseProfile="full" height="217" version="1.1" width="256" xmlns="http://www.w3.org/2000/svg" xmlns:ev="http://www.w3.org/2001/xml-events" xmlns:xlink="http://www.w3.org/1999/xlink"><defs /><rect fill="white" height="217" width="256" x="0" y="0" /><circle cx="93.15217590332031" cy="204.93478393554688" fill="none" r="5.5035786628723145" stroke="black" stroke-width="1" /><circle cx="126.79032135009766" cy="202.40322875976562" fill="none" r="5.448995590209961" stroke="black" stroke-width="1" /><circle cx="163.60000610351562" cy="202.39999389648438" fill="none" r="5.632147312164307" stroke="black" stroke-width="1" /><circle cx="93.0" cy="204.42857360839844" fill="black" r="10.618720054626465" stroke="black" stroke-width="1" /><circle cx="228.5" cy="199.1999969482422" fill="none" r="5.412120819091797" stroke="black" stroke-width="1" /><circle cx="195.5" cy="199.0" fill="none" r="5.590270042419434" stroke="black" stroke-width="1" /><circle cx="163.9980010986328" cy="202.3207244873047" fill="black" r="10.142074584960938" stroke="black" stroke-width="1" /><circle cx="126.93083190917969" cy="202.1284637451172" fill="black" r="10.337756156921387" stroke="black" stroke-width="1" /><circle cx="55.66216278076172" cy="198.21621704101562" fill="none" r="5.474740505218506" stroke="black" stroke-width="1" /><circle cx="228.18020629882812" cy="199.15481567382812" fill="black" r="10.346177101135254" stroke="black" stroke-width="1" /><circle cx="195.22119140625" cy="198.89776611328125" fill="black" r="10.280550956726074" stroke="black" stroke-width="1" /><circle cx="55.67582321166992" cy="198.1593475341797" fill="black" r="10.505912780761719" stroke="black" stroke-width="1" /><circle cx="22.867088317871094" cy="184.19619750976562" fill="none" r="5.617019176483154" stroke="black" stroke-width="1" /><circle cx="23.0" cy="184.0" fill="black" r="10.440406799316406" stroke="black" stroke-width="1" /><circle cx="55.07143020629883" cy="167.57142639160156" fill="none" r="5.309407711029053" stroke="black" stroke-width="1" /><circle cx="54.70000076293945" cy="167.6999969482422" fill="black" r="10.246076583862305" stroke="black" stroke-width="1" /><circle cx="22.0" cy="154.5" fill="none" r="5.590270042419434" stroke="black" stroke-width="1" /><circle cx="21.932161331176758" cy="154.8216094970703" fill="black" r="10.630779266357422" stroke="black" stroke-width="1" /><circle cx="84.83333587646484" cy="147.8333282470703" fill="none" r="5.296844005584717" stroke="black" stroke-width="1" /><circle cx="84.5" cy="147.73077392578125" fill="black" r="10.046882629394531" stroke="black" stroke-width="1" /><circle cx="111.0" cy="131.35714721679688" fill="none" r="5.52786111831665" stroke="black" stroke-width="1" /><circle cx="110.85433197021484" cy="131.6338653564453" fill="black" r="10.134519577026367" stroke="black" stroke-width="1" /><circle cx="23.0" cy="121.5" fill="none" r="5.590270042419434" stroke="black" stroke-width="1" /><circle cx="22.5" cy="121.5" fill="black" r="10.12432861328125" stroke="black" stroke-width="1" /><path d="M 144,103 L 142,104 L 142,108 L 145,109 L 147,106 Z" fill="none" stroke="black" stroke-width="1" /><circle cx="144.2967529296875" cy="106.06910705566406" fill="black" r="10.093738555908203" stroke="black" stroke-width="1" /><circle cx="170.5" cy="88.0" fill="none" r="5.590270042419434" stroke="black" stroke-width="1" /><circle cx="26.345069885253906" cy="88.14788818359375" fill="none" r="5.65696382522583" stroke="black" stroke-width="1" /><circle cx="169.88067626953125" cy="87.3977279663086" fill="black" r="10.44865608215332" stroke="black" stroke-width="1" /><circle cx="25.9375" cy="88.0625" fill="black" r="10.27180004119873" stroke="black" stroke-width="1" /><circle cx="194.0" cy="64.36363983154297" fill="none" r="5.724489212036133" stroke="black" stroke-width="1" /><circle cx="193.93215942382812" cy="64.82160949707031" fill="black" r="10.630777359008789" stroke="black" stroke-width="1" /><circle cx="26.46875" cy="52.40625" fill="none" r="5.619020462036133" stroke="black" stroke-width="1" /><circle cx="26.342105865478516" cy="52.5" fill="black" r="9.976319313049316" stroke="black" stroke-width="1" /><circle cx="221.1521759033203" cy="40.934783935546875" fill="none" r="5.5035786628723145" stroke="black" stroke-width="1" /><circle cx="221.0" cy="41.0" fill="black" r="10.295730590820312" stroke="black" stroke-width="1" /><circle cx="100.28947448730469" cy="17.552631378173828" fill="none" r="2.766387939453125" stroke="black" stroke-width="1" /><circle cx="27.285715103149414" cy="20.64285659790039" fill="none" r="5.787577152252197" stroke="black" stroke-width="1" /><circle cx="64.5" cy="18.0" fill="none" r="5.590270042419434" stroke="black" stroke-width="1" /><circle cx="27.16666603088379" cy="20.16666603088379" fill="none" r="10.233487129211426" stroke="black" stroke-width="1" /><circle cx="100.2004623413086" cy="17.638248443603516" fill="black" r="9.893803596496582" stroke="black" stroke-width="1" /><circle cx="64.1551742553711" cy="18.224138259887695" fill="black" r="10.272521018981934" stroke="black" stroke-width="1" /><path d="M 0,0 L 0,216 L 255,216 L 255,0 Z" fill="none" stroke="black" stroke-width="1" /></svg>