<?xml version='1.0' encoding='utf-8'?>
<svg width="261" height="218" xmlns="http://www.w3.org/2000/svg" viewBox="0 0 261 218"><rect width="261" height="218" fill="white" /><path d="M 167,189 L 166,190 L 165,190 L 164,191 L 163,191 L 161,193 L 161,194 L 160,195 L 160,203 L 162,205 L 163,205 L 164,206 L 165,206 L 166,207 L 171,207 L 172,206 L 173,206 L 174,205 L 175,205 L 178,202 L 178,197 L 177,196 L 177,195 L 176,194 L 176,193 L 174,191 L 171,191 L 169,189 Z" fill="black" /><path d="M 132,186 L 131,187 L 128,187 L 126,189 L 126,190 L 125,191 L 125,192 L 124,193 L 124,198 L 126,200 L 126,201 L 127,202 L 128,202 L 130,204 L 135,204 L 136,203 L 137,203 L 138,202 L 139,202 L 142,199 L 142,193 L 141,192 L 141,191 L 140,190 L 140,189 L 138,187 L 133,187 Z" fill="black" /><path d="M 198,183 L 192,189 L 192,195 L 194,197 L 194,198 L 195,198 L 197,200 L 205,200 L 209,196 L 209,195 L 210,194 L 210,189 L 209,188 L 209,187 L 207,185 L 206,185 L 204,183 Z" fill="black" /><path d="M 97,180 L 96,181 L 92,181 L 90,183 L 90,186 L 89,187 L 89,188 L 88,189 L 88,193 L 90,195 L 91,195 L 94,198 L 102,198 L 103,197 L 103,196 L 105,194 L 105,193 L 106,192 L 106,191 L 107,190 L 107,188 L 105,186 L 105,184 L 102,181 L 99,181 L 98,180 Z" fill="black" /><path d="M 222,170 L 219,173 L 219,174 L 217,176 L 217,178 L 218,179 L 218,182 L 219,183 L 219,184 L 221,186 L 223,186 L 224,187 L 229,187 L 230,186 L 231,186 L 235,182 L 235,181 L 236,180 L 236,179 L 235,178 L 235,174 L 231,170 Z" fill="black" /><path d="M 68,168 L 67,169 L 65,169 L 63,171 L 62,171 L 62,172 L 60,174 L 60,180 L 61,181 L 61,182 L 62,183 L 62,184 L 64,184 L 65,185 L 67,185 L 68,186 L 71,186 L 72,185 L 73,185 L 77,181 L 77,180 L 78,179 L 78,174 L 77,173 L 77,172 L 74,169 L 72,169 L 71,168 Z" fill="black" /><path d="M 40,149 L 39,150 L 38,150 L 37,151 L 36,151 L 33,154 L 33,161 L 34,162 L 34,163 L 37,166 L 39,166 L 40,167 L 46,167 L 51,162 L 51,154 L 49,152 L 49,151 L 47,149 Z" fill="black" /><path d="M 237,140 L 236,141 L 232,141 L 230,143 L 229,143 L 228,144 L 228,145 L 227,146 L 227,151 L 228,152 L 228,154 L 232,158 L 241,158 L 243,156 L 243,155 L 245,153 L 245,146 L 244,145 L 244,144 L 243,143 L 242,143 L 239,140 Z" fill="black" /><path d="M 151,133 L 149,135 L 148,135 L 148,136 L 146,138 L 146,140 L 145,141 L 145,144 L 146,145 L 146,146 L 147,147 L 147,148 L 151,152 L 157,152 L 159,150 L 160,150 L 160,149 L 163,146 L 163,140 L 162,139 L 162,138 L 159,135 L 158,135 L 157,134 L 154,134 L 153,133 Z" fill="black" /><path d="M 127,132 L 126,133 L 122,133 L 120,135 L 120,136 L 119,137 L 119,138 L 118,139 L 118,144 L 119,145 L 119,146 L 123,150 L 127,150 L 128,151 L 129,151 L 130,150 L 133,150 L 136,147 L 136,144 L 137,143 L 137,138 L 135,136 L 135,135 L 133,133 L 131,133 L 130,132 Z" fill="black" /><path d="M 178,120 L 177,121 L 175,121 L 173,123 L 172,123 L 172,125 L 171,126 L 171,127 L 170,128 L 170,129 L 171,130 L 171,131 L 172,132 L 172,134 L 176,138 L 183,138 L 184,137 L 185,137 L 186,136 L 186,135 L 189,132 L 189,125 L 188,124 L 188,122 L 187,121 L 184,121 L 183,120 Z" fill="black" /><path d="M 30,120 L 29,121 L 25,121 L 23,123 L 22,123 L 22,124 L 21,125 L 21,126 L 20,127 L 20,132 L 21,133 L 21,135 L 23,137 L 24,137 L 25,138 L 26,138 L 27,139 L 30,139 L 31,138 L 33,138 L 35,136 L 36,136 L 36,135 L 37,134 L 37,133 L 38,132 L 38,130 L 39,129 L 39,127 L 37,125 L 37,124 L 35,122 L 34,122 L 33,121 L 31,121 Z" fill="black" /><path d="M 233,107 L 232,108 L 231,108 L 230,109 L 230,110 L 228,112 L 228,119 L 230,121 L 230,122 L 231,122 L 233,124 L 242,124 L 244,122 L 244,121 L 245,120 L 245,119 L 247,117 L 247,116 L 246,115 L 246,112 L 241,107 Z" fill="black" /><path d="M 37,94 L 36,95 L 34,95 L 30,99 L 30,101 L 29,102 L 29,106 L 30,107 L 30,108 L 32,110 L 33,110 L 35,112 L 42,112 L 44,110 L 45,110 L 45,109 L 47,107 L 47,106 L 48,105 L 48,102 L 47,101 L 47,99 L 43,95 L 41,95 L 40,94 Z" fill="black" /><path d="M 176,89 L 172,93 L 172,94 L 171,95 L 171,97 L 170,98 L 171,99 L 171,101 L 172,102 L 172,103 L 173,104 L 174,104 L 176,106 L 184,106 L 186,104 L 187,104 L 187,103 L 189,101 L 189,100 L 190,99 L 190,97 L 189,96 L 189,93 L 185,89 Z" fill="black" /><path d="M 230,77 L 228,79 L 227,79 L 225,81 L 225,82 L 224,83 L 224,90 L 228,94 L 237,94 L 239,92 L 240,92 L 241,91 L 241,89 L 242,88 L 242,85 L 241,84 L 241,81 L 237,77 Z" fill="black" /><path d="M 60,75 L 59,76 L 58,76 L 57,77 L 55,77 L 52,80 L 52,87 L 54,89 L 54,90 L 56,92 L 57,92 L 58,93 L 59,93 L 60,94 L 65,94 L 69,90 L 69,89 L 70,88 L 70,80 L 67,77 L 66,77 L 64,75 Z" fill="black" /><path d="M 157,67 L 156,68 L 154,68 L 150,72 L 150,81 L 151,82 L 151,83 L 152,84 L 155,84 L 156,85 L 159,85 L 160,84 L 161,84 L 162,83 L 164,83 L 166,81 L 166,80 L 167,79 L 167,72 L 165,70 L 165,69 L 164,69 L 163,68 L 161,68 L 160,67 Z" fill="black" /><path d="M 90,62 L 89,63 L 88,63 L 84,67 L 84,74 L 85,75 L 85,76 L 88,79 L 89,79 L 90,80 L 97,80 L 101,76 L 101,74 L 102,73 L 102,69 L 101,68 L 101,66 L 100,65 L 99,65 L 97,63 L 94,63 L 93,62 Z" fill="black" /><path d="M 124,59 L 122,61 L 121,61 L 121,62 L 120,63 L 120,64 L 119,65 L 119,70 L 120,71 L 120,72 L 124,76 L 131,76 L 133,74 L 134,74 L 135,73 L 135,69 L 136,68 L 136,63 L 132,59 Z" fill="black" /><path d="M 226,45 L 225,46 L 222,46 L 221,47 L 219,47 L 218,48 L 218,49 L 216,51 L 216,58 L 217,59 L 217,61 L 218,62 L 220,62 L 222,64 L 226,64 L 227,63 L 229,63 L 230,62 L 231,62 L 233,60 L 233,59 L 234,58 L 234,52 L 233,51 L 233,50 L 232,49 L 232,48 L 231,47 L 229,47 L 227,45 Z" fill="black" /><path d="M 208,12 L 207,13 L 206,13 L 204,15 L 204,17 L 203,18 L 203,19 L 202,20 L 202,22 L 203,23 L 203,24 L 204,25 L 204,26 L 206,28 L 207,28 L 208,29 L 209,29 L 210,30 L 214,30 L 216,28 L 217,28 L 219,26 L 219,25 L 220,24 L 220,23 L 221,22 L 221,20 L 220,19 L 220,17 L 219,16 L 219,15 L 217,13 L 215,13 L 214,12 Z" fill="black" /><path d="M 174,5 L 172,7 L 171,7 L 168,10 L 168,13 L 167,14 L 168,15 L 168,20 L 170,22 L 171,22 L 172,23 L 173,23 L 174,24 L 179,24 L 181,22 L 182,22 L 183,21 L 183,20 L 185,18 L 185,11 L 181,7 L 180,7 L 179,6 L 178,6 L 177,5 Z" fill="black" /><path d="M 145,4 L 144,5 L 139,5 L 136,8 L 136,10 L 134,12 L 134,14 L 136,16 L 136,18 L 138,20 L 139,20 L 141,22 L 146,22 L 148,20 L 150,20 L 152,18 L 152,17 L 153,16 L 153,10 L 152,9 L 152,8 L 149,5 L 148,5 L 147,4 Z" fill="black" /><path d="M 84,2 L 83,3 L 80,3 L 78,5 L 77,5 L 77,6 L 76,7 L 76,9 L 75,10 L 75,12 L 76,13 L 76,16 L 80,20 L 82,20 L 83,21 L 86,21 L 87,20 L 90,20 L 92,18 L 92,17 L 93,16 L 93,14 L 94,13 L 94,8 L 93,7 L 93,6 L 91,4 L 90,4 L 89,3 L 85,3 Z" fill="black" /><path d="M 54,2 L 53,3 L 52,3 L 48,7 L 48,11 L 47,12 L 48,13 L 48,16 L 52,20 L 54,20 L 55,21 L 57,21 L 58,20 L 60,20 L 64,16 L 65,16 L 66,15 L 66,9 L 65,8 L 65,7 L 61,3 L 59,3 L 58,2 Z" fill="black" /><path d="M 23,2 L 22,3 L 20,3 L 16,7 L 16,10 L 15,11 L 15,12 L 16,13 L 16,16 L 20,20 L 23,20 L 24,21 L 26,21 L 27,20 L 28,20 L 30,18 L 31,18 L 31,17 L 33,15 L 33,7 L 32,6 L 32,5 L 31,4 L 30,4 L 29,3 L 24,3 Z" fill="black" /><path d="M 112,1 L 111,2 L 109,2 L 106,5 L 106,8 L 105,9 L 105,12 L 106,13 L 106,14 L 111,19 L 115,19 L 116,18 L 118,18 L 119,17 L 120,17 L 122,15 L 122,14 L 123,13 L 123,5 L 121,3 L 120,3 L 118,1 Z" fill="black" /></svg>