<?xml version='1.0' encoding='utf-8'?>
<svg width="256" height="219" xmlns="http://www.w3.org/2000/svg" viewBox="0 0 256 219"><rect width="256" height="219" fill="white" /><path d="M 202,181 L 200,183 L 197,183 L 195,185 L 195,186 L 194,187 L 194,189 L 193,190 L 193,193 L 194,194 L 194,195 L 197,198 L 200,198 L 201,199 L 204,199 L 205,198 L 206,198 L 207,197 L 208,197 L 210,195 L 210,187 L 208,185 L 208,184 L 207,183 L 205,183 L 203,181 Z" fill="black" /><path d="M 225,174 L 224,175 L 222,175 L 221,176 L 221,177 L 219,179 L 219,185 L 220,186 L 220,187 L 222,189 L 223,189 L 224,190 L 232,190 L 236,186 L 236,183 L 237,182 L 237,181 L 236,180 L 236,177 L 234,175 L 232,175 L 231,174 Z" fill="black" /><path d="M 179,164 L 178,165 L 176,165 L 175,166 L 174,166 L 173,167 L 173,168 L 172,169 L 172,170 L 171,171 L 171,175 L 173,177 L 173,179 L 176,182 L 182,182 L 183,181 L 184,181 L 188,177 L 188,174 L 189,173 L 189,171 L 188,170 L 188,168 L 186,166 L 185,166 L 184,165 L 183,165 L 182,164 Z" fill="black" /><path d="M 233,147 L 230,150 L 230,156 L 231,157 L 231,160 L 233,162 L 235,162 L 236,163 L 237,163 L 238,164 L 241,164 L 242,163 L 243,163 L 244,162 L 245,162 L 246,161 L 246,159 L 247,158 L 247,157 L 248,156 L 248,152 L 247,151 L 247,150 L 245,148 L 244,148 L 243,147 Z" fill="black" /><path d="M 158,144 L 157,145 L 155,145 L 151,149 L 151,151 L 150,152 L 150,155 L 151,156 L 151,157 L 153,159 L 153,160 L 154,161 L 158,161 L 159,162 L 161,162 L 163,160 L 164,160 L 167,157 L 167,156 L 168,155 L 168,149 L 166,147 L 166,146 L 165,146 L 164,145 L 163,145 L 162,144 Z" fill="black" /><path d="M 9,119 L 7,121 L 6,121 L 5,122 L 5,123 L 3,125 L 3,130 L 4,131 L 4,132 L 5,133 L 5,134 L 7,136 L 10,136 L 12,138 L 13,138 L 14,137 L 16,137 L 17,136 L 19,136 L 20,135 L 20,134 L 21,133 L 21,132 L 22,131 L 22,123 L 20,121 L 19,121 L 18,120 L 16,120 L 15,119 Z" fill="black" /><path d="M 138,117 L 136,119 L 135,119 L 135,120 L 132,123 L 132,124 L 131,125 L 131,128 L 132,129 L 132,130 L 133,131 L 133,132 L 135,134 L 136,134 L 138,136 L 140,136 L 141,135 L 143,135 L 145,133 L 146,133 L 148,131 L 148,129 L 150,127 L 150,124 L 148,122 L 148,120 L 147,119 L 146,119 L 145,118 L 144,118 L 143,117 Z" fill="black" /><path d="M 123,93 L 121,95 L 117,95 L 117,96 L 116,97 L 116,98 L 115,99 L 115,106 L 116,107 L 116,108 L 118,110 L 120,110 L 121,111 L 127,111 L 132,106 L 132,98 L 129,95 L 128,95 L 126,93 Z" fill="black" /><path d="M 12,89 L 9,92 L 9,94 L 8,95 L 8,101 L 13,106 L 14,106 L 15,107 L 18,107 L 19,106 L 20,106 L 22,104 L 24,104 L 24,103 L 26,101 L 26,94 L 24,92 L 24,91 L 23,91 L 22,90 L 21,90 L 20,89 Z" fill="black" /><path d="M 147,75 L 146,76 L 145,76 L 144,77 L 143,77 L 142,78 L 142,79 L 141,80 L 141,87 L 143,89 L 143,90 L 144,90 L 146,92 L 153,92 L 154,91 L 155,91 L 157,89 L 157,88 L 158,87 L 158,80 L 155,77 L 154,77 L 153,76 L 152,76 L 151,75 Z" fill="black" /><path d="M 106,70 L 105,71 L 103,71 L 102,72 L 102,73 L 101,74 L 101,75 L 100,76 L 100,77 L 99,78 L 99,80 L 101,82 L 101,84 L 105,88 L 112,88 L 116,84 L 116,81 L 117,80 L 117,75 L 114,72 L 113,72 L 111,70 Z" fill="black" /><path d="M 22,59 L 21,60 L 20,60 L 15,65 L 15,72 L 19,76 L 20,76 L 21,77 L 27,77 L 33,71 L 33,68 L 32,67 L 32,64 L 29,61 L 27,61 L 25,59 Z" fill="black" /><path d="M 168,51 L 167,52 L 166,52 L 164,54 L 164,55 L 163,56 L 163,62 L 166,65 L 166,66 L 168,68 L 176,68 L 180,64 L 180,63 L 181,62 L 181,58 L 180,57 L 180,56 L 179,55 L 179,54 L 176,51 Z" fill="black" /><path d="M 76,49 L 73,52 L 73,53 L 72,54 L 72,55 L 71,56 L 71,59 L 72,60 L 72,61 L 73,62 L 73,63 L 76,66 L 79,66 L 80,67 L 81,67 L 82,66 L 83,66 L 86,63 L 87,63 L 88,62 L 88,52 L 87,52 L 84,49 Z" fill="black" /><path d="M 47,44 L 46,45 L 45,45 L 44,46 L 43,46 L 41,48 L 41,56 L 42,57 L 42,58 L 44,60 L 45,60 L 46,61 L 47,61 L 48,62 L 50,62 L 51,61 L 55,61 L 56,60 L 56,59 L 57,58 L 57,48 L 54,45 L 52,45 L 51,44 Z" fill="black" /><path d="M 239,33 L 238,34 L 237,34 L 235,36 L 235,38 L 234,39 L 234,45 L 235,46 L 236,46 L 240,50 L 247,50 L 251,46 L 251,45 L 252,44 L 252,39 L 250,37 L 250,36 L 249,35 L 248,35 L 246,33 Z" fill="black" /><path d="M 191,32 L 187,36 L 187,44 L 192,49 L 198,49 L 199,48 L 200,48 L 204,44 L 204,37 L 199,32 Z" fill="black" /><path d="M 219,12 L 218,13 L 213,13 L 209,17 L 209,25 L 210,26 L 210,27 L 211,28 L 213,28 L 215,30 L 219,30 L 220,29 L 221,29 L 222,28 L 223,28 L 224,27 L 224,26 L 225,25 L 225,24 L 226,23 L 226,18 L 224,16 L 224,15 L 222,13 L 221,13 L 220,12 Z" fill="black" /></svg>