<?xml version='1.0' encoding='utf-8'?>
<svg width="262" height="220" xmlns="http://www.w3.org/2000/svg" viewBox="0 0 262 220"><rect width="262" height="220" fill="white" /><path d="M 176,184 L 174,186 L 173,186 L 172,187 L 172,188 L 171,189 L 171,190 L 170,191 L 170,193 L 171,194 L 171,197 L 172,198 L 172,199 L 174,201 L 175,201 L 176,202 L 182,202 L 183,201 L 185,201 L 187,199 L 187,198 L 188,197 L 188,195 L 189,194 L 189,191 L 188,190 L 188,189 L 187,188 L 187,187 L 186,186 L 185,186 L 183,184 Z" fill="black" /><path d="M 208,182 L 204,186 L 203,186 L 202,187 L 202,191 L 201,192 L 201,193 L 202,194 L 202,197 L 204,199 L 207,199 L 209,201 L 212,201 L 214,199 L 216,199 L 219,196 L 219,194 L 220,193 L 220,190 L 219,189 L 219,187 L 218,186 L 217,186 L 215,184 L 213,184 L 211,182 Z" fill="black" /><path d="M 16,182 L 15,183 L 14,183 L 13,184 L 12,184 L 10,186 L 10,188 L 9,189 L 9,192 L 10,193 L 10,195 L 14,199 L 15,199 L 16,200 L 17,200 L 18,201 L 21,201 L 22,200 L 23,200 L 24,199 L 25,199 L 25,198 L 27,196 L 27,191 L 28,190 L 28,188 L 27,187 L 27,186 L 25,184 L 24,184 L 23,183 L 20,183 L 19,182 Z" fill="black" /><path d="M 151,178 L 150,179 L 147,179 L 142,184 L 142,192 L 147,197 L 155,197 L 159,193 L 159,192 L 160,191 L 160,189 L 161,188 L 161,186 L 160,185 L 160,184 L 159,183 L 159,182 L 156,179 L 152,179 Z" fill="black" /><path d="M 137,153 L 135,155 L 133,155 L 132,156 L 132,158 L 130,160 L 130,165 L 134,169 L 135,169 L 136,170 L 137,170 L 138,171 L 143,171 L 144,170 L 145,170 L 147,168 L 147,167 L 149,165 L 149,158 L 145,154 L 142,154 L 141,153 Z" fill="black" /><path d="M 23,153 L 22,154 L 21,154 L 20,155 L 19,155 L 18,156 L 18,158 L 17,159 L 17,160 L 16,161 L 16,163 L 17,164 L 17,166 L 18,167 L 18,168 L 19,169 L 20,169 L 21,170 L 22,170 L 23,171 L 30,171 L 31,170 L 31,169 L 33,167 L 33,164 L 34,163 L 34,158 L 30,154 L 29,154 L 28,153 Z" fill="black" /><path d="M 214,147 L 213,148 L 212,148 L 208,152 L 208,160 L 210,162 L 210,163 L 211,163 L 212,164 L 213,164 L 214,165 L 223,165 L 225,163 L 225,160 L 226,159 L 226,158 L 227,157 L 227,154 L 226,153 L 226,152 L 223,149 L 223,148 L 219,148 L 218,147 Z" fill="black" /><path d="M 135,122 L 133,124 L 132,124 L 130,126 L 130,127 L 128,129 L 128,131 L 129,132 L 129,134 L 130,135 L 130,137 L 131,138 L 132,138 L 133,139 L 136,139 L 137,140 L 140,140 L 141,139 L 143,139 L 147,135 L 147,128 L 145,126 L 145,124 L 143,124 L 141,122 Z" fill="black" /><path d="M 28,116 L 28,117 L 26,119 L 26,123 L 25,124 L 25,128 L 26,129 L 26,131 L 27,131 L 29,133 L 32,133 L 33,134 L 37,134 L 38,133 L 39,133 L 41,131 L 41,129 L 42,128 L 42,121 L 39,118 L 39,117 L 38,116 Z" fill="black" /><path d="M 218,110 L 217,111 L 216,111 L 215,112 L 214,112 L 210,116 L 210,122 L 211,123 L 211,124 L 214,127 L 217,127 L 218,128 L 224,128 L 228,124 L 228,123 L 229,122 L 229,119 L 228,118 L 228,115 L 225,112 L 223,112 L 221,110 Z" fill="black" /><path d="M 132,88 L 130,90 L 129,90 L 126,93 L 126,101 L 130,105 L 131,105 L 132,106 L 135,106 L 136,105 L 140,105 L 144,101 L 144,98 L 145,97 L 145,95 L 143,93 L 143,92 L 141,90 L 140,90 L 138,88 Z" fill="black" /><path d="M 39,88 L 37,90 L 37,91 L 36,92 L 36,101 L 40,105 L 44,105 L 45,106 L 46,105 L 49,105 L 53,101 L 53,91 L 52,91 L 49,88 Z" fill="black" /><path d="M 219,81 L 218,82 L 217,82 L 215,84 L 214,84 L 214,85 L 212,87 L 212,93 L 214,95 L 214,96 L 215,97 L 217,97 L 218,98 L 219,98 L 220,99 L 224,99 L 226,97 L 228,97 L 230,95 L 230,91 L 231,90 L 231,89 L 229,87 L 229,84 L 227,82 L 224,82 L 223,81 Z" fill="black" /><path d="M 62,60 L 61,61 L 59,61 L 56,64 L 56,73 L 60,77 L 69,77 L 73,73 L 73,65 L 72,64 L 72,63 L 71,62 L 68,62 L 66,60 Z" fill="black" /><path d="M 131,52 L 130,53 L 128,53 L 127,54 L 126,54 L 124,56 L 124,57 L 123,58 L 123,59 L 122,60 L 122,63 L 123,64 L 123,65 L 124,66 L 124,67 L 126,69 L 127,69 L 129,71 L 131,71 L 132,70 L 134,70 L 135,69 L 138,69 L 140,67 L 140,66 L 141,65 L 141,59 L 139,57 L 139,56 L 137,54 L 136,54 L 135,53 L 134,53 L 133,52 Z" fill="black" /><path d="M 221,50 L 220,51 L 219,51 L 218,52 L 218,53 L 216,55 L 216,63 L 220,67 L 229,67 L 231,65 L 231,64 L 234,61 L 234,55 L 232,53 L 232,52 L 230,50 Z" fill="black" /><path d="M 84,34 L 82,36 L 81,36 L 80,37 L 80,39 L 79,40 L 79,41 L 78,42 L 78,44 L 80,46 L 80,47 L 81,48 L 81,49 L 82,49 L 84,51 L 86,51 L 87,52 L 90,52 L 91,51 L 93,51 L 95,49 L 95,48 L 97,46 L 97,40 L 91,34 Z" fill="black" /><path d="M 111,24 L 108,27 L 108,28 L 107,29 L 107,30 L 106,31 L 106,34 L 107,35 L 107,36 L 108,37 L 108,38 L 110,40 L 111,40 L 112,41 L 119,41 L 125,35 L 125,30 L 123,28 L 123,26 L 122,25 L 121,25 L 120,24 Z" fill="black" /><path d="M 222,22 L 218,26 L 218,28 L 217,29 L 217,31 L 218,32 L 218,35 L 222,39 L 229,39 L 230,38 L 231,38 L 232,37 L 233,37 L 235,35 L 235,33 L 236,32 L 236,29 L 235,28 L 235,26 L 231,22 Z" fill="black" /></svg>