<?xml version='1.0' encoding='utf-8'?>
<svg width="258" height="222" xmlns="http://www.w3.org/2000/svg" viewBox="0 0 258 222"><rect width="258" height="222" fill="white" /><path d="M 150,197 L 149,198 L 148,198 L 146,200 L 146,201 L 145,202 L 145,206 L 146,207 L 146,210 L 148,212 L 148,213 L 150,213 L 151,214 L 155,214 L 156,213 L 159,213 L 161,211 L 161,208 L 162,207 L 162,204 L 161,203 L 161,200 L 160,199 L 159,199 L 158,198 L 156,198 L 155,197 Z" fill="black" /><path d="M 119,192 L 118,193 L 117,193 L 115,195 L 115,196 L 114,197 L 114,204 L 118,208 L 119,208 L 120,209 L 126,209 L 129,206 L 129,205 L 131,203 L 131,197 L 128,194 L 127,194 L 125,192 Z" fill="black" /><path d="M 89,182 L 88,183 L 87,183 L 84,186 L 84,188 L 83,189 L 83,192 L 84,193 L 84,196 L 85,197 L 86,197 L 87,198 L 88,198 L 89,199 L 95,199 L 99,195 L 99,193 L 100,192 L 100,189 L 99,188 L 99,186 L 96,183 L 95,183 L 94,182 Z" fill="black" /><path d="M 58,168 L 56,170 L 55,170 L 54,171 L 54,173 L 52,175 L 52,176 L 53,177 L 53,180 L 54,181 L 54,183 L 56,183 L 58,185 L 64,185 L 66,183 L 67,183 L 67,182 L 69,180 L 69,178 L 70,177 L 70,175 L 69,174 L 69,172 L 67,170 L 66,170 L 64,168 Z" fill="black" /><path d="M 232,143 L 231,144 L 226,144 L 222,148 L 222,156 L 223,157 L 223,158 L 225,160 L 226,160 L 227,161 L 233,161 L 235,159 L 236,159 L 237,158 L 237,157 L 239,155 L 239,149 L 238,148 L 238,147 L 237,146 L 236,146 L 234,144 L 233,144 Z" fill="black" /><path d="M 169,139 L 168,140 L 165,140 L 163,142 L 162,142 L 162,143 L 160,145 L 160,151 L 162,153 L 162,154 L 163,154 L 164,155 L 165,155 L 166,156 L 167,156 L 168,157 L 170,157 L 172,155 L 173,155 L 174,154 L 175,154 L 175,153 L 177,151 L 177,144 L 175,142 L 175,141 L 174,140 L 172,140 L 171,139 Z" fill="black" /><path d="M 37,136 L 36,137 L 35,137 L 31,141 L 31,143 L 30,144 L 30,147 L 32,149 L 32,151 L 34,153 L 35,153 L 36,154 L 37,154 L 38,155 L 41,155 L 43,153 L 44,153 L 47,150 L 47,148 L 48,147 L 48,144 L 47,143 L 47,141 L 44,138 L 43,138 L 41,136 Z" fill="black" /><path d="M 207,119 L 203,123 L 203,124 L 202,125 L 202,131 L 204,133 L 204,134 L 205,135 L 207,135 L 208,136 L 214,136 L 215,135 L 216,135 L 219,132 L 219,124 L 215,120 L 214,120 L 213,119 Z" fill="black" /><path d="M 142,119 L 141,120 L 139,120 L 137,122 L 137,124 L 136,125 L 136,131 L 141,136 L 148,136 L 153,131 L 153,123 L 150,120 L 149,120 L 148,119 Z" fill="black" /><path d="M 115,107 L 114,108 L 111,108 L 108,111 L 108,120 L 109,121 L 109,122 L 110,123 L 112,123 L 113,124 L 114,124 L 115,125 L 119,125 L 123,121 L 123,120 L 124,119 L 124,117 L 125,116 L 125,113 L 124,112 L 124,111 L 121,108 L 119,108 L 118,107 Z" fill="black" /><path d="M 24,106 L 23,107 L 22,107 L 21,108 L 20,108 L 20,112 L 19,113 L 19,116 L 20,117 L 20,118 L 21,119 L 21,120 L 24,123 L 29,123 L 31,121 L 33,121 L 36,118 L 36,112 L 35,111 L 35,108 L 34,107 L 33,107 L 32,106 Z" fill="black" /><path d="M 84,105 L 83,106 L 81,106 L 80,107 L 80,108 L 78,110 L 78,113 L 77,114 L 77,117 L 80,120 L 81,120 L 83,122 L 84,122 L 85,123 L 88,123 L 90,121 L 91,121 L 94,118 L 94,109 L 90,105 Z" fill="black" /><path d="M 52,105 L 51,106 L 50,106 L 47,109 L 47,110 L 46,111 L 46,117 L 48,119 L 48,120 L 49,121 L 50,121 L 51,122 L 58,122 L 59,121 L 60,121 L 63,118 L 63,110 L 62,109 L 62,108 L 60,106 L 56,106 L 55,105 Z" fill="black" /><path d="M 191,87 L 186,92 L 186,98 L 187,99 L 187,100 L 189,102 L 190,102 L 191,103 L 199,103 L 202,100 L 202,99 L 203,98 L 203,91 L 202,90 L 202,89 L 201,88 L 200,88 L 199,87 Z" fill="black" /><path d="M 25,70 L 24,71 L 23,71 L 20,74 L 20,82 L 22,84 L 22,85 L 24,87 L 32,87 L 35,84 L 35,80 L 36,79 L 36,77 L 35,76 L 35,72 L 34,71 L 32,71 L 31,70 Z" fill="black" /><path d="M 175,61 L 174,62 L 171,62 L 170,63 L 170,64 L 168,66 L 168,67 L 167,68 L 167,69 L 168,70 L 168,75 L 169,76 L 170,76 L 171,77 L 173,77 L 175,79 L 178,79 L 180,77 L 181,77 L 181,76 L 183,74 L 183,73 L 184,72 L 184,71 L 185,70 L 185,67 L 184,66 L 184,65 L 181,62 L 179,62 L 178,61 Z" fill="black" /><path d="M 237,46 L 232,51 L 232,57 L 234,59 L 234,61 L 235,62 L 237,62 L 238,63 L 245,63 L 249,59 L 249,51 L 248,50 L 248,49 L 246,47 L 245,47 L 244,46 Z" fill="black" /><path d="M 44,37 L 43,38 L 40,38 L 36,42 L 36,49 L 40,53 L 41,53 L 43,55 L 46,55 L 47,54 L 48,54 L 52,50 L 53,50 L 53,41 L 50,38 L 47,38 L 46,37 Z" fill="black" /><path d="M 161,33 L 160,34 L 159,34 L 156,37 L 156,39 L 154,41 L 154,44 L 156,46 L 156,47 L 159,50 L 161,50 L 162,51 L 164,51 L 165,50 L 167,50 L 169,48 L 170,48 L 172,46 L 172,44 L 173,43 L 173,40 L 172,39 L 172,38 L 167,33 Z" fill="black" /><path d="M 221,23 L 220,24 L 219,24 L 216,27 L 216,28 L 215,29 L 215,36 L 219,40 L 220,40 L 221,41 L 225,41 L 226,40 L 227,40 L 229,38 L 230,38 L 232,36 L 232,31 L 231,30 L 231,27 L 228,24 L 227,24 L 226,23 Z" fill="black" /><path d="M 74,14 L 73,15 L 70,15 L 66,19 L 66,26 L 67,27 L 67,28 L 70,31 L 78,31 L 79,30 L 80,30 L 81,29 L 81,28 L 82,27 L 82,26 L 83,25 L 83,23 L 82,22 L 82,19 L 78,15 L 77,15 L 76,14 Z" fill="black" /><path d="M 190,10 L 189,11 L 187,11 L 186,12 L 185,12 L 181,16 L 181,19 L 182,20 L 182,23 L 184,25 L 184,26 L 185,27 L 186,27 L 187,28 L 192,28 L 193,27 L 195,27 L 197,25 L 197,24 L 198,23 L 198,21 L 199,20 L 198,19 L 198,17 L 197,16 L 197,13 L 196,13 L 194,11 L 193,11 L 192,10 Z" fill="black" /><path d="M 112,6 L 111,7 L 109,7 L 108,8 L 107,8 L 105,10 L 105,11 L 104,12 L 104,17 L 105,18 L 105,19 L 106,20 L 106,23 L 110,23 L 111,24 L 115,24 L 116,23 L 117,23 L 120,20 L 120,19 L 121,18 L 121,11 L 116,6 Z" fill="black" /><path d="M 151,3 L 150,4 L 148,4 L 146,6 L 146,7 L 144,9 L 144,15 L 146,17 L 146,18 L 147,18 L 149,20 L 151,20 L 152,21 L 154,21 L 155,20 L 157,20 L 160,17 L 160,16 L 161,15 L 161,10 L 160,9 L 160,8 L 159,7 L 159,6 L 158,6 L 156,4 L 154,4 L 153,3 Z" fill="black" /></svg>