<?xml version='1.0' encoding='utf-8'?>
<svg width="263" height="218" xmlns="http://www.w3.org/2000/svg" viewBox="0 0 263 218"><rect width="263" height="218" fill="white" /><path d="M 128,185 L 127,186 L 125,186 L 122,189 L 122,190 L 121,191 L 121,192 L 120,193 L 120,195 L 121,196 L 121,197 L 122,198 L 122,199 L 125,202 L 126,202 L 127,203 L 133,203 L 137,199 L 137,198 L 139,196 L 139,191 L 136,188 L 136,187 L 135,186 L 132,186 L 131,185 Z" fill="black" /><path d="M 98,184 L 97,185 L 94,185 L 93,186 L 93,187 L 92,188 L 92,189 L 90,191 L 90,195 L 91,196 L 91,197 L 92,198 L 92,199 L 93,200 L 94,200 L 95,201 L 104,201 L 107,198 L 107,197 L 108,196 L 108,188 L 105,185 L 103,185 L 102,184 Z" fill="black" /><path d="M 158,183 L 157,184 L 156,184 L 154,186 L 153,186 L 152,187 L 152,189 L 151,190 L 151,191 L 152,192 L 152,195 L 153,196 L 153,197 L 154,198 L 154,199 L 155,200 L 159,200 L 160,201 L 163,201 L 166,198 L 167,198 L 167,197 L 169,195 L 169,188 L 165,184 L 162,184 L 161,183 Z" fill="black" /><path d="M 68,182 L 67,183 L 66,183 L 65,184 L 64,184 L 62,186 L 62,187 L 60,189 L 60,195 L 64,199 L 66,199 L 67,200 L 68,200 L 69,201 L 71,201 L 72,200 L 73,200 L 74,199 L 75,199 L 78,196 L 78,187 L 75,184 L 74,184 L 73,183 L 72,183 L 71,182 Z" fill="black" /><path d="M 36,180 L 35,181 L 34,181 L 33,182 L 32,182 L 31,183 L 31,184 L 30,185 L 30,192 L 32,194 L 32,195 L 34,197 L 43,197 L 48,192 L 48,185 L 43,180 L 42,180 L 41,181 L 40,181 L 39,180 Z" fill="black" /><path d="M 183,179 L 180,182 L 179,182 L 179,183 L 178,184 L 178,185 L 176,187 L 176,189 L 177,190 L 177,192 L 178,193 L 178,194 L 180,196 L 181,196 L 182,197 L 185,197 L 186,198 L 188,198 L 189,197 L 190,197 L 192,195 L 193,195 L 193,194 L 194,193 L 194,192 L 195,191 L 195,186 L 194,185 L 194,184 L 190,180 L 187,180 L 186,179 Z" fill="black" /><path d="M 209,173 L 208,174 L 205,174 L 202,177 L 202,178 L 201,179 L 201,180 L 202,181 L 202,187 L 206,191 L 214,191 L 216,189 L 217,189 L 217,188 L 218,187 L 218,186 L 219,185 L 219,179 L 218,178 L 218,177 L 215,174 L 212,174 L 211,173 Z" fill="black" /><path d="M 230,155 L 229,156 L 225,156 L 224,157 L 223,157 L 222,158 L 222,159 L 221,160 L 221,161 L 220,162 L 220,167 L 222,169 L 222,170 L 224,172 L 226,172 L 227,173 L 231,173 L 232,172 L 234,172 L 237,169 L 237,168 L 239,166 L 239,163 L 238,162 L 238,161 L 237,160 L 237,158 L 236,157 L 235,157 L 234,156 L 233,156 L 232,155 Z" fill="black" /><path d="M 28,153 L 27,154 L 26,154 L 22,158 L 22,160 L 21,161 L 21,164 L 22,165 L 22,167 L 26,171 L 35,171 L 38,168 L 39,168 L 39,166 L 41,164 L 41,161 L 39,159 L 39,157 L 36,154 L 34,154 L 33,153 Z" fill="black" /><path d="M 229,128 L 227,130 L 226,130 L 224,132 L 224,135 L 223,136 L 224,137 L 224,141 L 228,145 L 229,145 L 230,146 L 235,146 L 236,145 L 238,145 L 240,143 L 240,142 L 241,141 L 241,132 L 238,129 L 237,129 L 236,128 Z" fill="black" /><path d="M 109,108 L 108,109 L 106,109 L 105,110 L 104,110 L 102,112 L 101,112 L 100,113 L 100,122 L 102,124 L 102,125 L 103,125 L 105,127 L 112,127 L 114,125 L 116,125 L 117,124 L 117,122 L 118,121 L 118,115 L 117,114 L 117,113 L 115,111 L 114,111 L 113,110 L 112,110 L 111,109 L 110,109 Z" fill="black" /><path d="M 75,107 L 74,108 L 72,108 L 68,112 L 68,120 L 70,122 L 70,123 L 72,125 L 74,125 L 75,126 L 80,126 L 81,125 L 82,125 L 84,123 L 85,123 L 85,120 L 86,119 L 86,118 L 87,117 L 87,114 L 86,113 L 86,112 L 83,109 L 82,109 L 81,108 L 80,108 L 79,107 Z" fill="black" /><path d="M 231,99 L 230,100 L 228,100 L 224,104 L 224,111 L 225,112 L 225,113 L 229,117 L 237,117 L 239,115 L 239,114 L 241,112 L 241,110 L 242,109 L 242,104 L 238,100 L 236,100 L 235,99 Z" fill="black" /><path d="M 131,98 L 129,100 L 128,100 L 124,104 L 124,110 L 126,112 L 126,113 L 128,115 L 129,115 L 131,117 L 135,117 L 136,116 L 137,116 L 138,115 L 139,115 L 143,111 L 143,104 L 137,98 Z" fill="black" /><path d="M 51,97 L 50,98 L 48,98 L 46,100 L 46,102 L 45,103 L 45,109 L 46,110 L 46,111 L 49,114 L 51,114 L 52,115 L 57,115 L 59,113 L 60,113 L 62,111 L 62,110 L 63,109 L 63,101 L 60,98 L 58,98 L 57,97 Z" fill="black" /><path d="M 150,78 L 148,80 L 148,81 L 146,83 L 146,90 L 148,92 L 148,93 L 149,93 L 151,95 L 154,95 L 155,96 L 156,95 L 160,95 L 162,93 L 162,92 L 163,91 L 163,90 L 164,89 L 164,88 L 165,87 L 165,84 L 159,78 Z" fill="black" /><path d="M 230,72 L 229,73 L 228,73 L 225,76 L 225,77 L 224,78 L 224,84 L 226,86 L 226,87 L 227,88 L 228,88 L 229,89 L 237,89 L 238,88 L 239,88 L 241,86 L 241,85 L 242,84 L 242,78 L 241,77 L 241,75 L 240,74 L 238,74 L 236,72 Z" fill="black" /><path d="M 59,72 L 58,73 L 58,74 L 56,76 L 56,77 L 54,79 L 54,81 L 55,82 L 55,83 L 56,84 L 56,86 L 59,89 L 61,89 L 62,90 L 66,90 L 67,89 L 69,89 L 73,85 L 73,77 L 72,76 L 72,75 L 71,74 L 69,74 L 67,72 Z" fill="black" /><path d="M 174,57 L 173,58 L 171,58 L 169,60 L 168,60 L 168,61 L 166,63 L 166,69 L 167,70 L 167,71 L 169,73 L 170,73 L 171,74 L 172,74 L 173,75 L 177,75 L 178,74 L 179,74 L 180,73 L 181,73 L 184,70 L 184,64 L 183,63 L 183,62 L 182,61 L 182,60 L 180,58 L 177,58 L 176,57 Z" fill="black" /><path d="M 79,46 L 77,48 L 75,48 L 72,51 L 72,53 L 71,54 L 71,57 L 72,58 L 72,60 L 75,63 L 76,63 L 78,65 L 82,65 L 83,64 L 84,64 L 85,63 L 87,63 L 89,61 L 89,59 L 90,58 L 90,53 L 84,47 L 83,47 L 82,46 Z" fill="black" /><path d="M 223,42 L 221,44 L 220,44 L 218,46 L 218,54 L 220,56 L 220,57 L 222,59 L 230,59 L 232,57 L 233,57 L 235,55 L 235,52 L 236,51 L 236,48 L 235,47 L 235,45 L 234,45 L 231,42 Z" fill="black" /><path d="M 195,40 L 193,42 L 191,42 L 190,43 L 190,44 L 188,46 L 188,51 L 189,52 L 189,53 L 190,54 L 190,55 L 192,57 L 195,57 L 196,58 L 199,58 L 200,57 L 203,57 L 205,55 L 205,53 L 206,52 L 206,44 L 205,43 L 204,43 L 202,41 L 200,41 L 199,40 Z" fill="black" /><path d="M 97,28 L 95,30 L 94,30 L 92,32 L 92,35 L 91,36 L 91,39 L 92,40 L 92,42 L 93,43 L 94,43 L 96,45 L 98,45 L 99,46 L 101,46 L 102,45 L 107,45 L 109,43 L 109,42 L 110,41 L 110,39 L 111,38 L 110,37 L 110,33 L 107,30 L 105,30 L 103,28 Z" fill="black" /><path d="M 120,8 L 118,10 L 117,10 L 115,12 L 115,13 L 114,14 L 114,21 L 118,25 L 119,25 L 120,26 L 121,26 L 122,27 L 123,27 L 124,26 L 125,26 L 126,25 L 129,25 L 130,24 L 130,22 L 131,21 L 131,20 L 132,19 L 132,13 L 129,10 L 128,10 L 126,8 Z" fill="black" /></svg>