<?xml version='1.0' encoding='utf-8'?>
<svg width="260" height="221" xmlns="http://www.w3.org/2000/svg" viewBox="0 0 260 221"><rect width="260" height="221" fill="white" /><path d="M 86,189 L 85,190 L 84,190 L 83,191 L 82,191 L 81,192 L 81,193 L 80,194 L 80,197 L 79,198 L 79,201 L 80,202 L 80,203 L 83,206 L 89,206 L 90,207 L 92,207 L 95,204 L 95,203 L 97,201 L 97,197 L 96,196 L 96,195 L 95,194 L 95,192 L 94,191 L 93,191 L 92,190 L 91,190 L 90,189 Z" fill="black" /><path d="M 116,188 L 114,190 L 113,190 L 112,191 L 112,192 L 111,193 L 111,198 L 112,199 L 112,201 L 115,204 L 116,204 L 117,205 L 121,205 L 122,204 L 124,204 L 127,201 L 127,200 L 129,198 L 129,194 L 127,192 L 127,191 L 126,190 L 125,190 L 123,188 Z" fill="black" /><path d="M 53,187 L 51,189 L 50,189 L 48,191 L 48,192 L 46,194 L 46,199 L 47,200 L 47,201 L 50,204 L 50,205 L 58,205 L 59,204 L 60,204 L 62,202 L 62,201 L 63,200 L 63,199 L 64,198 L 64,197 L 63,196 L 63,192 L 61,190 L 60,190 L 58,188 L 57,188 L 56,187 Z" fill="black" /><path d="M 20,179 L 17,182 L 17,183 L 16,184 L 16,192 L 20,196 L 28,196 L 32,192 L 32,189 L 33,188 L 33,184 L 30,181 L 30,180 L 29,179 Z" fill="black" /><path d="M 235,171 L 232,174 L 232,176 L 231,177 L 231,184 L 234,187 L 235,187 L 236,188 L 243,188 L 244,187 L 245,187 L 246,186 L 247,186 L 247,185 L 248,184 L 248,183 L 249,182 L 249,177 L 248,176 L 248,175 L 246,173 L 245,173 L 243,171 Z" fill="black" /><path d="M 123,155 L 121,157 L 120,157 L 118,159 L 118,166 L 120,168 L 120,169 L 123,172 L 129,172 L 130,171 L 132,171 L 133,170 L 134,170 L 136,168 L 136,159 L 134,157 L 133,157 L 132,156 L 131,156 L 130,155 Z" fill="black" /><path d="M 16,153 L 15,154 L 14,154 L 12,156 L 12,157 L 11,158 L 11,159 L 10,160 L 10,165 L 12,167 L 12,168 L 14,170 L 17,170 L 18,171 L 20,171 L 21,170 L 24,170 L 27,167 L 27,166 L 28,165 L 28,162 L 29,161 L 28,160 L 28,159 L 27,158 L 27,157 L 25,155 L 23,155 L 22,154 L 21,154 L 20,153 Z" fill="black" /><path d="M 234,142 L 233,143 L 231,143 L 230,144 L 230,145 L 228,147 L 228,154 L 232,158 L 234,158 L 235,159 L 238,159 L 239,158 L 242,158 L 245,155 L 245,153 L 247,151 L 247,148 L 245,146 L 245,145 L 242,142 Z" fill="black" /><path d="M 132,129 L 131,130 L 130,130 L 128,132 L 128,134 L 127,135 L 127,136 L 126,137 L 126,139 L 127,140 L 127,141 L 128,142 L 128,143 L 129,144 L 131,144 L 133,146 L 139,146 L 140,145 L 141,145 L 145,141 L 145,134 L 140,129 Z" fill="black" /><path d="M 13,123 L 10,126 L 10,127 L 8,129 L 8,135 L 10,137 L 10,138 L 11,138 L 13,140 L 19,140 L 20,139 L 21,139 L 22,138 L 23,138 L 25,136 L 25,135 L 26,134 L 26,129 L 25,128 L 25,126 L 23,124 L 20,124 L 19,123 Z" fill="black" /><path d="M 228,115 L 227,116 L 225,116 L 224,117 L 222,117 L 222,118 L 219,121 L 219,126 L 220,127 L 220,130 L 222,132 L 223,132 L 225,134 L 227,134 L 228,133 L 230,133 L 231,132 L 232,132 L 233,131 L 234,131 L 236,129 L 236,128 L 237,127 L 237,121 L 233,117 L 232,117 L 230,115 Z" fill="black" /><path d="M 142,105 L 138,109 L 138,110 L 137,111 L 137,116 L 138,117 L 138,118 L 140,120 L 140,121 L 141,122 L 150,122 L 152,120 L 152,119 L 155,116 L 155,111 L 153,109 L 153,108 L 152,107 L 151,107 L 150,106 L 149,106 L 148,105 Z" fill="black" /><path d="M 202,97 L 201,98 L 199,98 L 197,100 L 196,100 L 194,102 L 194,106 L 193,107 L 193,109 L 194,110 L 194,111 L 197,114 L 198,114 L 200,116 L 203,116 L 204,115 L 205,115 L 206,114 L 208,114 L 209,113 L 209,112 L 211,110 L 211,102 L 207,98 L 206,98 L 205,97 Z" fill="black" /><path d="M 173,92 L 172,93 L 170,93 L 166,97 L 166,101 L 165,102 L 165,104 L 166,105 L 166,107 L 167,108 L 168,108 L 170,110 L 173,110 L 174,111 L 177,111 L 178,110 L 180,110 L 182,108 L 182,107 L 184,105 L 184,103 L 183,102 L 183,97 L 181,95 L 180,95 L 178,93 L 176,93 L 175,92 Z" fill="black" /><path d="M 18,90 L 17,91 L 12,91 L 10,93 L 10,95 L 9,96 L 9,99 L 10,100 L 10,103 L 14,107 L 15,107 L 16,108 L 21,108 L 22,107 L 23,107 L 25,105 L 25,104 L 27,102 L 27,98 L 26,97 L 26,95 L 25,94 L 25,93 L 23,91 L 20,91 L 19,90 Z" fill="black" /><path d="M 18,56 L 17,57 L 16,57 L 14,59 L 14,60 L 13,61 L 13,62 L 12,63 L 12,68 L 16,72 L 17,72 L 18,73 L 21,73 L 22,74 L 24,74 L 26,72 L 27,72 L 28,71 L 29,71 L 29,70 L 30,69 L 30,68 L 31,67 L 31,63 L 28,60 L 28,59 L 25,56 Z" fill="black" /><path d="M 202,52 L 200,54 L 201,55 L 204,55 L 206,53 L 205,52 Z" fill="black" /><path d="M 32,31 L 28,35 L 28,43 L 31,46 L 32,46 L 34,48 L 38,48 L 39,47 L 41,47 L 43,45 L 43,44 L 44,43 L 44,42 L 45,41 L 45,34 L 42,31 Z" fill="black" /><path d="M 66,15 L 65,16 L 64,16 L 63,17 L 62,17 L 62,18 L 60,20 L 60,21 L 58,23 L 58,24 L 59,25 L 59,27 L 60,28 L 60,30 L 62,32 L 63,32 L 64,33 L 65,33 L 66,34 L 68,34 L 69,33 L 70,33 L 71,32 L 73,32 L 75,30 L 75,27 L 76,26 L 76,25 L 77,24 L 77,22 L 75,20 L 75,19 L 71,15 Z" fill="black" /><path d="M 95,13 L 93,15 L 91,15 L 90,16 L 90,27 L 93,30 L 95,30 L 96,31 L 99,31 L 100,30 L 102,30 L 104,28 L 105,28 L 105,27 L 107,25 L 107,17 L 104,14 L 103,14 L 102,13 Z" fill="black" /><path d="M 198,11 L 197,12 L 196,12 L 195,13 L 194,13 L 194,14 L 192,16 L 192,23 L 193,24 L 193,25 L 194,26 L 194,27 L 195,27 L 196,28 L 197,28 L 198,29 L 204,29 L 206,27 L 207,27 L 207,26 L 209,24 L 209,23 L 210,22 L 210,18 L 209,17 L 209,16 L 207,14 L 207,13 L 206,12 L 205,12 L 204,11 Z" fill="black" /><path d="M 128,11 L 126,13 L 126,15 L 124,17 L 124,23 L 126,25 L 126,26 L 128,28 L 137,28 L 141,24 L 141,15 L 139,13 L 139,11 Z" fill="black" /><path d="M 165,9 L 163,11 L 161,11 L 160,12 L 160,13 L 159,14 L 159,15 L 158,16 L 158,21 L 160,23 L 160,24 L 163,27 L 165,27 L 166,28 L 169,28 L 170,27 L 171,27 L 172,26 L 173,26 L 175,24 L 175,23 L 176,22 L 176,21 L 177,20 L 177,15 L 176,14 L 176,13 L 173,10 L 169,10 L 168,9 Z" fill="black" /><path d="M 232,5 L 228,9 L 228,10 L 226,12 L 226,14 L 227,15 L 227,16 L 228,17 L 228,19 L 229,20 L 230,20 L 233,23 L 235,23 L 236,22 L 240,22 L 243,19 L 243,18 L 245,16 L 245,12 L 243,10 L 243,8 L 242,7 L 241,7 L 240,6 L 239,6 L 238,5 Z" fill="black" /></svg>