<?xml version='1.0' encoding='utf-8'?>
<svg width="258" height="215" xmlns="http://www.w3.org/2000/svg" viewBox="0 0 258 215"><rect width="258" height="215" fill="white" /><path d="M 18,195 L 16,197 L 15,197 L 14,198 L 14,199 L 13,200 L 13,208 L 17,212 L 26,212 L 29,209 L 29,208 L 30,207 L 30,200 L 26,196 L 25,196 L 24,195 Z" fill="black" /><path d="M 236,190 L 234,192 L 233,192 L 230,195 L 230,196 L 229,197 L 229,200 L 230,201 L 230,202 L 231,203 L 231,204 L 235,208 L 241,208 L 243,206 L 244,206 L 247,203 L 247,195 L 244,192 L 243,192 L 241,190 Z" fill="black" /><path d="M 49,174 L 48,175 L 47,175 L 44,178 L 44,179 L 43,180 L 43,186 L 44,187 L 44,188 L 46,190 L 47,190 L 49,192 L 55,192 L 56,191 L 57,191 L 59,189 L 60,189 L 60,179 L 56,175 L 53,175 L 52,174 Z" fill="black" /><path d="M 211,171 L 210,172 L 209,172 L 207,174 L 207,176 L 205,178 L 205,180 L 206,181 L 206,182 L 207,183 L 207,184 L 209,186 L 210,186 L 211,187 L 211,188 L 218,188 L 218,187 L 219,186 L 220,186 L 222,184 L 222,183 L 223,182 L 223,181 L 224,180 L 224,178 L 223,177 L 223,175 L 221,173 L 220,173 L 218,171 Z" fill="black" /><path d="M 79,156 L 78,157 L 74,157 L 71,160 L 71,169 L 72,170 L 72,171 L 74,173 L 75,173 L 76,174 L 82,174 L 83,173 L 85,173 L 87,171 L 87,170 L 88,169 L 88,162 L 87,161 L 87,160 L 85,158 L 84,158 L 82,156 Z" fill="black" /><path d="M 188,150 L 187,151 L 185,151 L 183,153 L 183,154 L 181,156 L 181,162 L 182,163 L 182,164 L 184,166 L 185,166 L 186,167 L 187,167 L 188,168 L 192,168 L 192,167 L 193,166 L 195,166 L 197,164 L 197,163 L 198,162 L 198,161 L 199,160 L 199,157 L 198,156 L 198,155 L 195,152 L 195,151 L 194,150 Z" fill="black" /><path d="M 104,134 L 103,135 L 100,135 L 97,138 L 97,140 L 96,141 L 96,145 L 97,146 L 97,148 L 101,152 L 109,152 L 112,149 L 112,148 L 113,147 L 113,140 L 112,139 L 112,138 L 109,135 L 105,135 Z" fill="black" /><path d="M 162,128 L 161,129 L 160,129 L 158,131 L 157,131 L 156,132 L 156,135 L 155,136 L 155,139 L 156,140 L 156,142 L 158,144 L 159,144 L 161,146 L 167,146 L 172,141 L 172,140 L 173,139 L 173,136 L 172,135 L 172,132 L 168,128 Z" fill="black" /><path d="M 131,107 L 127,111 L 127,112 L 125,114 L 125,116 L 126,117 L 126,118 L 127,119 L 127,121 L 130,124 L 137,124 L 138,123 L 140,123 L 142,121 L 142,119 L 143,118 L 143,115 L 142,114 L 142,111 L 139,108 L 138,108 L 137,107 Z" fill="black" /><path d="M 159,85 L 157,87 L 157,88 L 156,89 L 156,91 L 155,92 L 155,94 L 156,95 L 156,96 L 157,97 L 157,98 L 160,101 L 163,101 L 164,102 L 166,102 L 167,101 L 168,101 L 172,97 L 172,89 L 169,86 L 168,86 L 167,85 Z" fill="black" /><path d="M 107,85 L 105,87 L 104,87 L 103,88 L 103,90 L 101,92 L 101,98 L 106,103 L 109,103 L 110,102 L 114,102 L 115,101 L 116,101 L 118,99 L 118,98 L 119,97 L 119,93 L 118,92 L 118,89 L 114,85 Z" fill="black" /><path d="M 88,66 L 87,67 L 82,67 L 81,68 L 81,69 L 79,71 L 79,72 L 77,74 L 77,77 L 78,78 L 78,79 L 79,80 L 79,81 L 82,84 L 89,84 L 90,83 L 91,83 L 92,82 L 93,82 L 94,81 L 94,80 L 95,79 L 95,71 L 91,67 L 90,67 L 89,66 Z" fill="black" /><path d="M 185,61 L 183,63 L 182,63 L 180,65 L 180,69 L 179,70 L 179,71 L 180,72 L 180,74 L 182,76 L 183,76 L 186,79 L 193,79 L 195,77 L 195,76 L 196,75 L 196,74 L 197,73 L 197,68 L 196,67 L 196,66 L 193,63 L 192,63 L 191,62 L 190,62 L 189,61 Z" fill="black" /><path d="M 67,41 L 65,43 L 64,43 L 63,44 L 63,47 L 62,48 L 62,52 L 63,53 L 63,55 L 65,57 L 66,57 L 67,58 L 74,58 L 80,52 L 80,46 L 75,41 Z" fill="black" /><path d="M 212,38 L 211,39 L 208,39 L 207,40 L 206,40 L 205,41 L 205,44 L 203,46 L 203,48 L 205,50 L 205,51 L 207,53 L 207,54 L 208,55 L 209,55 L 210,56 L 216,56 L 220,52 L 220,51 L 222,49 L 222,46 L 221,45 L 221,43 L 219,41 L 219,40 L 218,40 L 217,39 L 215,39 L 214,38 Z" fill="black" /><path d="M 235,18 L 234,19 L 231,19 L 229,21 L 229,23 L 228,24 L 228,25 L 227,26 L 227,28 L 229,30 L 229,32 L 230,32 L 232,34 L 233,34 L 234,35 L 236,35 L 237,36 L 238,36 L 240,34 L 241,34 L 244,31 L 244,28 L 245,27 L 244,26 L 244,21 L 243,21 L 241,19 L 239,19 L 238,18 Z" fill="black" /><path d="M 85,13 L 80,18 L 80,19 L 79,20 L 79,24 L 80,25 L 80,27 L 82,29 L 83,29 L 84,30 L 93,30 L 96,27 L 96,18 L 95,17 L 95,16 L 93,14 L 92,14 L 91,13 Z" fill="black" /><path d="M 118,4 L 117,5 L 116,5 L 115,6 L 114,6 L 112,8 L 112,9 L 111,10 L 111,14 L 112,15 L 112,17 L 116,21 L 117,21 L 118,22 L 123,22 L 124,21 L 125,21 L 127,19 L 127,18 L 129,16 L 129,11 L 128,10 L 128,8 L 126,6 L 125,6 L 124,5 L 122,5 L 121,4 Z" fill="black" /></svg>