<?xml version="1.0" encoding="utf-8" ?>
<svg baseProfile="full" height="221" version="1.1" width="261" xmlns="http://www.w3.org/2000/svg" xmlns:ev="http://www.w3.org/2001/xml-events" xmlns:xlink="http://www.w3.org/1999/xlink"><defs /><rect fill="white" height="221" width="261" x="0" y="0" /><circle cx="173.2608642578125" cy="203.3478240966797" fill="none" r="5.018970966339111" stroke="black" stroke-width="1" /><circle cx="173.01724243164062" cy="203.41378784179688" fill="black" r="10.607476234436035" stroke="black" stroke-width="1" /><circle cx="141.77777099609375" cy="199.0833282470703" fill="none" r="5.228299617767334" stroke="black" stroke-width="1" /><circle cx="208.36207580566406" cy="195.91378784179688" fill="none" r="5.343528747558594" stroke="black" stroke-width="1" /><circle cx="141.41444396972656" cy="199.27005004882812" fill="black" r="10.8228759765625" stroke="black" stroke-width="1" /><circle cx="113.0" cy="192.77777099609375" fill="none" r="5.179599761962891" stroke="black" stroke-width="1" /><circle cx="208.0" cy="195.7857208251953" fill="black" r="10.969671249389648" stroke="black" stroke-width="1" /><circle cx="112.39090728759766" cy="192.9727325439453" fill="black" r="11.144149780273438" stroke="black" stroke-width="1" /><circle cx="230.77777099609375" cy="171.9166717529297" fill="none" r="5.228305339813232" stroke="black" stroke-width="1" /><circle cx="230.27906799316406" cy="171.86045837402344" fill="black" r="10.932438850402832" stroke="black" stroke-width="1" /><circle cx="120.4272689819336" cy="163.24545288085938" fill="none" r="4.964252948760986" stroke="black" stroke-width="1" /><circle cx="119.5" cy="163.5" fill="black" r="10.977349281311035" stroke="black" stroke-width="1" /><circle cx="208.25" cy="149.0" fill="none" r="5.153982162475586" stroke="black" stroke-width="1" /><circle cx="208.1875" cy="149.1875" fill="black" r="10.87761402130127" stroke="black" stroke-width="1" /><circle cx="181.3000030517578" cy="130.6999969482422" fill="none" r="5.420428276062012" stroke="black" stroke-width="1" /><circle cx="181.5" cy="130.75" fill="black" r="10.854247093200684" stroke="black" stroke-width="1" /><circle cx="156.0" cy="114.0" fill="none" r="5.385264873504639" stroke="black" stroke-width="1" /><circle cx="155.67857360839844" cy="114.33928680419922" fill="black" r="10.742401123046875" stroke="black" stroke-width="1" /><circle cx="95.75" cy="102.75" fill="none" r="5.062214374542236" stroke="black" stroke-width="1" /><circle cx="128.23077392578125" cy="98.69230651855469" fill="none" r="5.014868259429932" stroke="black" stroke-width="1" /><circle cx="95.5" cy="103.30000305175781" fill="black" r="10.804731369018555" stroke="black" stroke-width="1" /><circle cx="65.5" cy="98.5" fill="none" r="5.147915363311768" stroke="black" stroke-width="1" /><circle cx="127.80303192138672" cy="98.89393615722656" fill="black" r="10.599776268005371" stroke="black" stroke-width="1" /><circle cx="65.30487823486328" cy="99.40243530273438" fill="black" r="10.91490650177002" stroke="black" stroke-width="1" /><circle cx="38.0" cy="82.69999694824219" fill="none" r="3.448286294937134" stroke="black" stroke-width="1" /><circle cx="37.83333206176758" cy="82.83333587646484" fill="black" r="10.554193496704102" stroke="black" stroke-width="1" /><circle cx="153.89999389648438" cy="74.9000015258789" fill="none" r="5.022055149078369" stroke="black" stroke-width="1" /><circle cx="243.7857208251953" cy="72.5" fill="none" r="5.015379905700684" stroke="black" stroke-width="1" /><circle cx="153.53846740722656" cy="75.15384674072266" fill="black" r="11.122068405151367" stroke="black" stroke-width="1" /><circle cx="243.61764526367188" cy="72.38235473632812" fill="black" r="10.935659408569336" stroke="black" stroke-width="1" /><circle cx="173.5" cy="51.5" fill="none" r="5.700977325439453" stroke="black" stroke-width="1" /><circle cx="44.617645263671875" cy="50.088233947753906" fill="none" r="5.459135055541992" stroke="black" stroke-width="1" /><circle cx="173.25" cy="51.5" fill="black" r="11.524530410766602" stroke="black" stroke-width="1" /><circle cx="44.686439514160156" cy="50.34745788574219" fill="black" r="10.941332817077637" stroke="black" stroke-width="1" /><circle cx="247.8230743408203" cy="40.407691955566406" fill="none" r="5.3907470703125" stroke="black" stroke-width="1" /><circle cx="247.57781982421875" cy="40.282100677490234" fill="black" r="10.349681854248047" stroke="black" stroke-width="1" /><circle cx="110.21428680419922" cy="34.5" fill="none" r="5.015381813049316" stroke="black" stroke-width="1" /><circle cx="193.5" cy="30.5" fill="none" r="5.147915363311768" stroke="black" stroke-width="1" /><circle cx="110.30644989013672" cy="35.01612854003906" fill="black" r="11.061392784118652" stroke="black" stroke-width="1" /><circle cx="193.525634765625" cy="31.064102172851562" fill="black" r="11.034936904907227" stroke="black" stroke-width="1" /><circle cx="62.900001525878906" cy="27.299999237060547" fill="none" r="5.375970840454102" stroke="black" stroke-width="1" /><circle cx="62.774810791015625" cy="27.5572509765625" fill="black" r="10.789311408996582" stroke="black" stroke-width="1" /><circle cx="228.22222900390625" cy="16.08333396911621" fill="none" r="5.228300094604492" stroke="black" stroke-width="1" /><circle cx="228.0" cy="16.0" fill="black" r="10.770429611206055" stroke="black" stroke-width="1" /><circle cx="91.84615325927734" cy="11.615385055541992" fill="none" r="5.506955146789551" stroke="black" stroke-width="1" /><circle cx="91.5" cy="11.595237731933594" fill="black" r="10.7009916305542" stroke="black" stroke-width="1" /><path d="M 0,0 L 0,220 L 260,220 L 260,0 Z" fill="none" stroke="black" stroke-width="1" /></svg>