<?xml version="1.0" encoding="utf-8" ?>
<svg baseProfile="full" height="222" version="1.1" width="264" xmlns="http://www.w3.org/2000/svg" xmlns:ev="http://www.w3.org/2001/xml-events" xmlns:xlink="http://www.w3.org/1999/xlink"><defs /><rect fill="white" height="222" width="264" x="0" y="0" /><circle cx="71.0" cy="202.0" fill="none" r="5.385264873504639" stroke="black" stroke-width="1" /><circle cx="105.54225158691406" cy="198.83802795410156" fill="none" r="5.465407848358154" stroke="black" stroke-width="1" /><circle cx="70.39873504638672" cy="202.14556884765625" fill="black" r="11.16187572479248" stroke="black" stroke-width="1" /><circle cx="105.67204284667969" cy="198.93011474609375" fill="black" r="11.101037979125977" stroke="black" stroke-width="1" /><circle cx="40.0" cy="195.0" fill="none" r="5.385264873504639" stroke="black" stroke-width="1" /><circle cx="39.972312927246094" cy="195.3208465576172" fill="black" r="11.100153923034668" stroke="black" stroke-width="1" /><circle cx="130.3000030517578" cy="184.6999969482422" fill="none" r="5.420428276062012" stroke="black" stroke-width="1" /><circle cx="130.60902404785156" cy="184.7894744873047" fill="black" r="10.75898551940918" stroke="black" stroke-width="1" /><circle cx="24.83333396911621" cy="169.8333282470703" fill="none" r="5.296844482421875" stroke="black" stroke-width="1" /><circle cx="25.0" cy="170.0" fill="black" r="11.180439949035645" stroke="black" stroke-width="1" /><circle cx="136.90908813476562" cy="151.78787231445312" fill="none" r="5.2246222496032715" stroke="black" stroke-width="1" /><circle cx="136.5" cy="151.23333740234375" fill="black" r="11.321369171142578" stroke="black" stroke-width="1" /><circle cx="104.5" cy="118.5" fill="none" r="5.147915363311768" stroke="black" stroke-width="1" /><circle cx="162.25" cy="118.25" fill="none" r="5.256049156188965" stroke="black" stroke-width="1" /><circle cx="134.5" cy="116.80000305175781" fill="none" r="5.412126541137695" stroke="black" stroke-width="1" /><circle cx="71.69999694824219" cy="115.69999694824219" fill="none" r="4.356703281402588" stroke="black" stroke-width="1" /><circle cx="162.0" cy="118.0" fill="black" r="11.180439949035645" stroke="black" stroke-width="1" /><circle cx="104.5" cy="118.5" fill="black" r="10.977349281311035" stroke="black" stroke-width="1" /><circle cx="194.5" cy="112.5" fill="none" r="5.147915363311768" stroke="black" stroke-width="1" /><circle cx="133.9705810546875" cy="116.97058868408203" fill="black" r="10.808667182922363" stroke="black" stroke-width="1" /><circle cx="71.5" cy="115.5" fill="black" r="11.423759460449219" stroke="black" stroke-width="1" /><circle cx="195.25704956054688" cy="112.3591537475586" fill="black" r="11.258183479309082" stroke="black" stroke-width="1" /><circle cx="42.23684310913086" cy="100.13157653808594" fill="none" r="4.325024127960205" stroke="black" stroke-width="1" /><circle cx="42.35293960571289" cy="100.49019622802734" fill="black" r="11.627152442932129" stroke="black" stroke-width="1" /><circle cx="222.41175842285156" cy="94.19117736816406" fill="none" r="5.379825592041016" stroke="black" stroke-width="1" /><circle cx="221.90145874023438" cy="94.6861343383789" fill="black" r="11.132950782775879" stroke="black" stroke-width="1" /><circle cx="136.77777099609375" cy="86.08333587646484" fill="none" r="5.228306770324707" stroke="black" stroke-width="1" /><circle cx="136.58621215820312" cy="86.13793182373047" fill="black" r="10.876396179199219" stroke="black" stroke-width="1" /><circle cx="38.06716537475586" cy="71.1567153930664" fill="none" r="5.2660813331604" stroke="black" stroke-width="1" /><circle cx="37.562992095947266" cy="71.83464813232422" fill="black" r="11.23759651184082" stroke="black" stroke-width="1" /><circle cx="232.0" cy="63.0" fill="none" r="5.385264873504639" stroke="black" stroke-width="1" /><circle cx="231.5" cy="63.5" fill="black" r="11.068072319030762" stroke="black" stroke-width="1" /><circle cx="136.06716918945312" cy="53.156715393066406" fill="none" r="5.266077518463135" stroke="black" stroke-width="1" /><circle cx="135.7346954345703" cy="53.6020393371582" fill="black" r="11.25975513458252" stroke="black" stroke-width="1" /><circle cx="39.5" cy="44.0" fill="none" r="5.4084272384643555" stroke="black" stroke-width="1" /><circle cx="39.5" cy="44.0" fill="black" r="11.10190200805664" stroke="black" stroke-width="1" /><circle cx="241.5" cy="33.0" fill="none" r="4.031229019165039" stroke="black" stroke-width="1" /><circle cx="241.5" cy="32.5" fill="black" r="11.068072319030762" stroke="black" stroke-width="1" /><circle cx="133.5" cy="18.75" fill="none" r="5.551001071929932" stroke="black" stroke-width="1" /><circle cx="133.4512176513672" cy="19.16202163696289" fill="black" r="11.133744239807129" stroke="black" stroke-width="1" /><path d="M 0,0 L 0,221 L 263,221 L 263,0 Z" fill="none" stroke="black" stroke-width="1" /></svg>