<?xml version='1.0' encoding='utf-8'?>
<svg width="257" height="218" xmlns="http://www.w3.org/2000/svg" viewBox="0 0 257 218"><rect width="257" height="218" fill="white" /><path d="M 200,194 L 199,195 L 197,195 L 195,197 L 195,198 L 194,199 L 194,206 L 198,210 L 200,210 L 201,211 L 204,211 L 205,210 L 206,210 L 207,209 L 208,209 L 209,208 L 209,206 L 210,205 L 210,204 L 211,203 L 211,200 L 210,199 L 210,198 L 208,196 L 207,196 L 206,195 L 204,195 L 203,194 Z" fill="black" /><path d="M 75,190 L 74,191 L 70,191 L 68,193 L 68,194 L 66,196 L 66,200 L 67,201 L 67,202 L 68,203 L 68,204 L 69,205 L 69,206 L 71,206 L 72,207 L 76,207 L 77,206 L 79,206 L 83,202 L 83,195 L 82,195 L 81,194 L 81,193 L 79,191 L 78,191 L 77,190 Z" fill="black" /><path d="M 42,182 L 41,183 L 38,183 L 36,185 L 35,185 L 34,186 L 34,195 L 37,198 L 38,198 L 39,199 L 42,199 L 43,200 L 44,200 L 45,199 L 46,199 L 47,198 L 48,198 L 51,195 L 51,187 L 46,182 Z" fill="black" /><path d="M 224,181 L 220,185 L 220,187 L 219,188 L 219,192 L 220,193 L 220,194 L 222,196 L 223,196 L 225,198 L 230,198 L 231,197 L 232,197 L 235,194 L 235,185 L 233,183 L 232,183 L 230,181 Z" fill="black" /><path d="M 100,174 L 99,175 L 96,175 L 93,178 L 93,179 L 92,180 L 92,186 L 97,191 L 98,191 L 99,192 L 103,192 L 105,190 L 106,190 L 109,187 L 109,186 L 110,185 L 110,180 L 109,179 L 109,178 L 108,177 L 107,177 L 105,175 L 104,175 L 103,174 Z" fill="black" /><path d="M 36,155 L 34,157 L 34,158 L 32,160 L 32,166 L 37,171 L 45,171 L 46,170 L 47,170 L 48,169 L 48,168 L 49,167 L 49,159 L 45,155 Z" fill="black" /><path d="M 112,153 L 111,154 L 110,154 L 108,156 L 108,157 L 107,158 L 107,161 L 106,162 L 106,164 L 107,165 L 107,166 L 109,168 L 110,168 L 112,170 L 119,170 L 124,165 L 124,159 L 123,158 L 123,157 L 120,154 L 119,154 L 118,153 Z" fill="black" /><path d="M 229,149 L 227,151 L 226,151 L 225,152 L 224,152 L 223,153 L 223,154 L 222,155 L 222,162 L 226,166 L 229,166 L 230,167 L 231,166 L 235,166 L 235,165 L 236,164 L 239,164 L 239,155 L 234,150 L 233,150 L 232,149 Z" fill="black" /><path d="M 52,135 L 51,136 L 50,136 L 48,138 L 48,140 L 46,142 L 46,147 L 47,148 L 47,149 L 50,152 L 53,152 L 54,153 L 56,153 L 57,152 L 61,152 L 63,150 L 63,147 L 64,146 L 64,140 L 59,135 Z" fill="black" /><path d="M 118,121 L 117,122 L 116,122 L 114,124 L 114,126 L 113,127 L 113,132 L 114,133 L 114,134 L 117,137 L 118,137 L 119,138 L 125,138 L 126,137 L 127,137 L 129,135 L 129,133 L 130,132 L 130,126 L 128,124 L 128,123 L 126,121 Z" fill="black" /><path d="M 212,117 L 210,119 L 208,119 L 207,120 L 207,121 L 206,122 L 206,130 L 210,134 L 213,134 L 214,135 L 215,135 L 216,134 L 219,134 L 220,133 L 221,133 L 221,120 L 220,119 L 218,119 L 217,118 L 216,118 L 215,117 Z" fill="black" /><path d="M 182,99 L 178,103 L 178,104 L 176,106 L 176,109 L 177,110 L 177,111 L 178,112 L 178,114 L 179,115 L 180,115 L 181,116 L 183,116 L 184,117 L 187,117 L 188,116 L 191,116 L 192,115 L 192,114 L 193,113 L 193,103 L 192,102 L 191,102 L 190,101 L 189,101 L 188,100 L 187,100 L 186,99 Z" fill="black" /><path d="M 150,97 L 148,99 L 146,99 L 145,100 L 145,101 L 144,102 L 144,110 L 148,114 L 157,114 L 159,112 L 159,110 L 160,109 L 160,103 L 158,101 L 158,100 L 156,98 L 153,98 L 152,97 Z" fill="black" /><path d="M 118,87 L 117,88 L 116,88 L 115,89 L 114,89 L 112,91 L 112,93 L 111,94 L 111,98 L 112,99 L 112,100 L 114,102 L 115,102 L 116,103 L 117,103 L 118,104 L 121,104 L 122,103 L 123,103 L 124,102 L 125,102 L 127,100 L 127,97 L 129,95 L 129,94 L 127,92 L 127,91 L 125,89 L 124,89 L 122,87 Z" fill="black" /><path d="M 16,76 L 12,80 L 12,81 L 11,82 L 11,85 L 12,86 L 12,89 L 17,94 L 23,94 L 29,88 L 29,83 L 28,82 L 28,81 L 27,80 L 27,79 L 26,78 L 25,78 L 24,77 L 22,77 L 21,76 Z" fill="black" /><path d="M 88,71 L 84,75 L 84,84 L 86,86 L 88,86 L 90,88 L 95,88 L 100,83 L 100,82 L 101,81 L 101,76 L 100,75 L 100,74 L 97,71 Z" fill="black" /><path d="M 122,59 L 119,62 L 119,63 L 118,64 L 118,73 L 119,73 L 121,75 L 122,75 L 123,76 L 129,76 L 131,74 L 132,74 L 134,72 L 134,70 L 135,69 L 135,65 L 130,60 L 130,59 Z" fill="black" /><path d="M 15,49 L 11,53 L 11,56 L 10,57 L 10,59 L 11,60 L 11,62 L 13,64 L 14,64 L 16,66 L 22,66 L 23,65 L 24,65 L 27,62 L 27,54 L 26,53 L 26,52 L 25,51 L 24,51 L 23,50 L 22,50 L 21,49 Z" fill="black" /><path d="M 74,47 L 70,51 L 70,59 L 71,60 L 71,61 L 74,64 L 75,64 L 76,63 L 77,63 L 78,64 L 79,64 L 80,63 L 82,63 L 83,62 L 85,62 L 86,61 L 86,57 L 87,56 L 87,52 L 86,51 L 86,50 L 84,48 L 83,48 L 82,47 Z" fill="black" /><path d="M 137,32 L 136,33 L 133,33 L 132,34 L 132,36 L 131,37 L 131,38 L 130,39 L 130,43 L 132,45 L 132,46 L 134,48 L 135,48 L 136,49 L 142,49 L 143,48 L 145,48 L 147,46 L 147,40 L 148,39 L 148,38 L 147,37 L 147,36 L 144,33 L 143,33 L 142,32 Z" fill="black" /><path d="M 59,22 L 56,25 L 56,26 L 55,27 L 55,28 L 54,29 L 54,34 L 55,35 L 55,36 L 58,39 L 64,39 L 65,38 L 66,38 L 67,37 L 68,37 L 70,35 L 70,34 L 71,33 L 71,28 L 70,27 L 70,26 L 67,23 L 66,23 L 65,22 Z" fill="black" /><path d="M 31,18 L 30,19 L 28,19 L 26,21 L 26,22 L 25,23 L 25,29 L 26,30 L 26,31 L 29,34 L 31,34 L 32,35 L 36,35 L 37,34 L 38,34 L 40,32 L 41,32 L 41,29 L 42,28 L 42,26 L 41,25 L 41,21 L 38,18 Z" fill="black" /><path d="M 166,11 L 165,12 L 164,12 L 163,13 L 162,13 L 161,14 L 160,14 L 160,15 L 159,16 L 159,18 L 158,19 L 158,20 L 159,21 L 159,22 L 160,23 L 160,24 L 164,28 L 169,28 L 169,27 L 170,26 L 172,26 L 173,25 L 173,24 L 175,22 L 175,17 L 174,16 L 174,15 L 170,11 Z" fill="black" /><path d="M 195,4 L 194,5 L 193,5 L 190,8 L 190,9 L 189,10 L 189,16 L 191,18 L 191,19 L 193,21 L 201,21 L 204,18 L 204,17 L 205,16 L 205,8 L 204,8 L 201,5 L 199,5 L 198,4 Z" fill="black" /><path d="M 232,2 L 231,3 L 229,3 L 226,6 L 226,14 L 227,15 L 227,16 L 229,18 L 230,18 L 231,19 L 240,19 L 240,18 L 242,16 L 242,15 L 243,14 L 243,11 L 242,10 L 242,8 L 241,7 L 241,5 L 239,3 L 238,3 L 237,2 Z" fill="black" /></svg>