<?xml version='1.0' encoding='utf-8'?>
<svg width="261" height="221" xmlns="http://www.w3.org/2000/svg" viewBox="0 0 261 221"><rect width="261" height="221" fill="white" /><path d="M 171,194 L 170,195 L 169,195 L 168,196 L 167,196 L 165,198 L 165,201 L 164,202 L 164,205 L 165,206 L 165,209 L 166,209 L 168,211 L 169,211 L 170,212 L 175,212 L 176,211 L 178,211 L 182,207 L 182,201 L 180,199 L 180,198 L 177,195 L 175,195 L 174,194 Z" fill="black" /><path d="M 138,190 L 136,192 L 135,192 L 133,194 L 133,203 L 134,204 L 134,205 L 136,207 L 138,207 L 140,209 L 142,209 L 143,208 L 145,208 L 146,207 L 147,207 L 148,206 L 148,205 L 150,203 L 150,195 L 149,194 L 149,193 L 147,191 L 145,191 L 144,190 Z" fill="black" /><path d="M 206,186 L 204,188 L 203,188 L 201,190 L 201,191 L 199,193 L 199,199 L 201,201 L 201,202 L 204,205 L 212,205 L 216,201 L 216,200 L 217,199 L 217,193 L 216,192 L 216,191 L 215,190 L 214,190 L 211,187 L 210,187 L 209,186 Z" fill="black" /><path d="M 109,184 L 108,185 L 107,185 L 105,187 L 105,188 L 103,190 L 103,197 L 107,201 L 109,201 L 110,202 L 111,202 L 112,203 L 114,203 L 116,201 L 118,201 L 119,200 L 119,199 L 120,198 L 120,196 L 121,195 L 121,192 L 120,191 L 120,186 L 119,185 L 117,185 L 116,184 Z" fill="black" /><path d="M 229,163 L 228,164 L 226,164 L 224,166 L 223,166 L 223,167 L 222,168 L 222,169 L 221,170 L 221,175 L 223,177 L 223,179 L 224,179 L 225,180 L 226,180 L 227,181 L 234,181 L 235,180 L 236,180 L 238,178 L 238,176 L 240,174 L 240,171 L 239,170 L 239,169 L 238,168 L 238,167 L 236,165 L 236,164 L 235,163 Z" fill="black" /><path d="M 117,154 L 116,155 L 115,155 L 114,156 L 113,156 L 111,158 L 111,167 L 113,169 L 113,170 L 114,171 L 115,171 L 116,172 L 122,172 L 123,171 L 125,171 L 127,169 L 128,169 L 128,167 L 129,166 L 129,162 L 128,161 L 128,158 L 126,156 L 125,156 L 124,155 L 123,155 L 122,154 Z" fill="black" /><path d="M 205,140 L 203,142 L 202,142 L 202,143 L 199,146 L 199,153 L 200,154 L 200,155 L 202,157 L 204,157 L 205,158 L 206,158 L 207,159 L 209,159 L 211,157 L 214,157 L 216,155 L 216,154 L 217,153 L 217,145 L 212,140 Z" fill="black" /><path d="M 177,122 L 173,126 L 173,131 L 172,132 L 173,133 L 173,136 L 175,138 L 176,138 L 177,139 L 178,139 L 179,140 L 182,140 L 183,139 L 186,139 L 188,137 L 189,137 L 190,136 L 190,132 L 191,131 L 191,128 L 190,127 L 190,126 L 189,125 L 189,124 L 188,124 L 186,122 Z" fill="black" /><path d="M 153,105 L 152,106 L 151,106 L 147,110 L 147,114 L 146,115 L 147,116 L 147,119 L 149,121 L 150,121 L 152,123 L 154,123 L 155,124 L 157,124 L 160,121 L 162,121 L 163,120 L 163,118 L 164,117 L 164,109 L 162,107 L 161,107 L 160,106 L 159,106 L 158,105 Z" fill="black" /><path d="M 93,94 L 92,95 L 90,95 L 89,96 L 89,98 L 87,100 L 87,107 L 88,108 L 88,109 L 90,111 L 92,111 L 93,112 L 96,112 L 97,113 L 99,111 L 100,111 L 102,109 L 103,109 L 104,108 L 104,100 L 102,98 L 102,96 L 101,95 L 98,95 L 97,94 Z" fill="black" /><path d="M 124,90 L 121,93 L 121,94 L 120,95 L 120,96 L 119,97 L 119,101 L 120,102 L 120,103 L 121,104 L 121,105 L 123,107 L 124,107 L 125,108 L 131,108 L 136,103 L 136,102 L 137,101 L 137,96 L 136,95 L 136,94 L 133,91 L 132,91 L 131,90 Z" fill="black" /><path d="M 62,90 L 57,95 L 57,97 L 56,98 L 56,103 L 57,104 L 57,105 L 59,107 L 60,107 L 61,108 L 62,108 L 63,109 L 66,109 L 67,108 L 68,108 L 69,107 L 72,107 L 73,106 L 73,103 L 74,102 L 74,96 L 68,90 Z" fill="black" /><path d="M 36,74 L 35,75 L 33,75 L 32,76 L 31,76 L 31,77 L 29,79 L 29,85 L 30,86 L 30,87 L 31,88 L 31,89 L 33,91 L 34,91 L 35,92 L 37,92 L 38,91 L 42,91 L 44,89 L 44,88 L 45,87 L 46,87 L 46,86 L 47,85 L 47,80 L 46,79 L 46,78 L 44,76 L 43,76 L 42,75 L 41,75 L 40,74 Z" fill="black" /><path d="M 149,66 L 145,70 L 145,74 L 144,75 L 145,76 L 145,79 L 149,83 L 150,83 L 152,85 L 156,85 L 157,84 L 158,84 L 159,83 L 160,83 L 162,81 L 162,78 L 163,77 L 163,72 L 162,71 L 162,70 L 158,66 Z" fill="black" /><path d="M 238,64 L 238,65 L 235,68 L 235,76 L 237,78 L 237,79 L 239,81 L 240,81 L 241,82 L 246,82 L 247,81 L 248,81 L 249,80 L 250,80 L 252,78 L 252,68 L 249,65 L 248,65 L 247,64 Z" fill="black" /><path d="M 169,42 L 165,46 L 165,47 L 164,48 L 164,51 L 163,52 L 163,54 L 165,56 L 165,57 L 167,59 L 168,59 L 170,61 L 178,61 L 182,57 L 182,56 L 183,55 L 183,50 L 182,49 L 182,48 L 181,47 L 181,46 L 178,43 L 178,42 Z" fill="black" /><path d="M 42,41 L 41,42 L 39,42 L 37,44 L 37,46 L 35,48 L 35,52 L 37,54 L 37,56 L 38,57 L 39,57 L 41,59 L 49,59 L 51,57 L 52,57 L 52,56 L 54,54 L 54,48 L 52,46 L 52,45 L 51,44 L 51,43 L 50,42 L 47,42 L 46,41 Z" fill="black" /><path d="M 243,32 L 241,34 L 241,35 L 239,37 L 239,44 L 241,46 L 241,47 L 242,48 L 244,48 L 245,49 L 251,49 L 252,48 L 253,48 L 255,46 L 255,45 L 256,44 L 256,36 L 253,33 L 252,33 L 251,32 Z" fill="black" /><path d="M 107,26 L 105,28 L 104,28 L 101,31 L 101,39 L 105,43 L 106,43 L 107,44 L 108,44 L 109,45 L 111,45 L 112,44 L 114,44 L 115,43 L 116,43 L 118,41 L 118,40 L 119,39 L 119,35 L 120,34 L 119,33 L 119,32 L 118,31 L 118,30 L 117,29 L 117,28 L 115,26 Z" fill="black" /><path d="M 189,22 L 188,23 L 188,25 L 185,28 L 185,35 L 189,39 L 190,39 L 191,40 L 192,40 L 193,41 L 195,41 L 196,40 L 197,40 L 198,39 L 200,39 L 201,38 L 201,36 L 202,35 L 202,33 L 203,32 L 203,30 L 202,29 L 202,26 L 200,24 L 199,24 L 197,22 Z" fill="black" /><path d="M 62,18 L 61,19 L 60,19 L 59,20 L 57,20 L 55,22 L 55,23 L 54,24 L 54,26 L 53,27 L 54,28 L 54,29 L 55,30 L 55,32 L 58,35 L 61,35 L 63,37 L 65,37 L 66,36 L 67,36 L 72,31 L 72,26 L 71,25 L 71,24 L 70,23 L 70,21 L 69,20 L 67,20 L 65,18 Z" fill="black" /><path d="M 224,7 L 219,12 L 219,18 L 221,20 L 221,21 L 222,22 L 222,23 L 223,23 L 225,25 L 232,25 L 236,21 L 236,16 L 237,15 L 237,13 L 236,12 L 236,11 L 233,8 L 228,8 L 227,7 Z" fill="black" /><path d="M 92,2 L 90,4 L 87,4 L 83,8 L 83,16 L 86,19 L 87,19 L 89,21 L 94,21 L 96,19 L 97,19 L 98,18 L 98,17 L 100,15 L 100,8 L 99,7 L 99,6 L 97,4 L 96,4 L 95,3 L 94,3 L 93,2 Z" fill="black" /></svg>