<?xml version='1.0' encoding='utf-8'?>
<svg width="256" height="220" xmlns="http://www.w3.org/2000/svg" viewBox="0 0 256 220"><rect width="256" height="220" fill="white" /><path d="M 104,190 L 102,192 L 101,192 L 100,193 L 100,198 L 99,199 L 99,201 L 100,202 L 100,203 L 104,207 L 111,207 L 112,206 L 113,206 L 114,205 L 115,205 L 115,201 L 116,200 L 116,196 L 115,195 L 115,194 L 112,191 L 111,191 L 110,190 Z" fill="black" /><path d="M 68,190 L 67,191 L 66,191 L 65,192 L 64,192 L 64,194 L 63,195 L 63,200 L 64,201 L 64,203 L 67,206 L 76,206 L 79,203 L 79,194 L 78,193 L 78,192 L 77,191 L 77,190 Z" fill="black" /><path d="M 138,189 L 137,190 L 135,190 L 132,193 L 132,195 L 131,196 L 131,199 L 132,200 L 132,202 L 133,203 L 134,203 L 136,205 L 143,205 L 147,201 L 147,193 L 144,190 L 142,190 L 141,189 Z" fill="black" /><path d="M 171,187 L 170,188 L 168,188 L 167,189 L 167,190 L 165,192 L 165,198 L 166,199 L 166,200 L 169,203 L 170,203 L 171,204 L 176,204 L 177,203 L 178,203 L 179,202 L 180,202 L 181,201 L 181,197 L 182,196 L 182,193 L 180,191 L 180,190 L 178,188 L 177,188 L 176,187 Z" fill="black" /><path d="M 203,184 L 202,185 L 201,185 L 200,186 L 198,186 L 197,187 L 197,188 L 196,189 L 196,196 L 197,197 L 197,198 L 200,201 L 208,201 L 212,197 L 212,195 L 213,194 L 213,192 L 212,191 L 212,190 L 211,189 L 211,187 L 210,186 L 209,186 L 207,184 Z" fill="black" /><path d="M 34,181 L 33,182 L 30,182 L 30,184 L 29,185 L 29,186 L 28,187 L 28,193 L 33,198 L 40,198 L 44,194 L 44,193 L 45,192 L 45,187 L 44,186 L 44,185 L 41,182 L 41,181 Z" fill="black" /><path d="M 224,160 L 223,161 L 222,161 L 220,163 L 220,166 L 219,167 L 219,172 L 224,177 L 229,177 L 230,176 L 231,176 L 232,175 L 233,175 L 234,174 L 234,173 L 235,172 L 235,166 L 233,164 L 233,162 L 231,160 Z" fill="black" /><path d="M 143,153 L 142,154 L 136,154 L 135,155 L 135,156 L 132,159 L 132,165 L 135,168 L 135,169 L 136,169 L 137,170 L 144,170 L 145,169 L 147,169 L 147,168 L 149,166 L 149,162 L 150,161 L 149,160 L 149,159 L 148,158 L 148,157 L 144,153 Z" fill="black" /><path d="M 21,152 L 20,153 L 19,153 L 18,154 L 17,154 L 16,155 L 16,156 L 15,157 L 15,158 L 14,159 L 14,162 L 15,163 L 15,164 L 16,165 L 16,166 L 19,169 L 26,169 L 27,168 L 28,168 L 31,165 L 31,157 L 29,155 L 29,154 L 28,154 L 27,153 L 26,153 L 25,152 Z" fill="black" /><path d="M 232,127 L 231,128 L 230,128 L 227,131 L 227,132 L 226,133 L 226,138 L 227,139 L 227,140 L 230,143 L 238,143 L 239,142 L 240,142 L 242,140 L 242,139 L 243,138 L 243,132 L 242,131 L 242,130 L 240,128 L 238,128 L 237,127 Z" fill="black" /><path d="M 19,121 L 18,122 L 17,122 L 15,124 L 14,124 L 12,126 L 12,133 L 16,137 L 24,137 L 26,135 L 27,135 L 28,134 L 28,126 L 27,125 L 27,124 L 25,122 L 22,122 L 21,121 Z" fill="black" /><path d="M 135,120 L 131,124 L 131,129 L 132,130 L 132,132 L 133,133 L 133,134 L 134,134 L 135,135 L 136,135 L 137,136 L 141,136 L 142,135 L 144,135 L 145,134 L 146,134 L 146,133 L 147,132 L 147,125 L 146,124 L 146,123 L 144,121 L 144,120 Z" fill="black" /><path d="M 231,90 L 230,91 L 229,91 L 227,93 L 227,95 L 226,96 L 226,102 L 227,103 L 227,104 L 229,106 L 230,106 L 231,107 L 238,107 L 239,106 L 240,106 L 241,105 L 241,103 L 242,102 L 242,101 L 243,100 L 243,97 L 242,96 L 242,94 L 241,93 L 241,92 L 240,91 L 239,91 L 238,90 Z" fill="black" /><path d="M 15,90 L 14,91 L 13,91 L 11,93 L 11,96 L 10,97 L 10,101 L 12,103 L 12,104 L 14,106 L 15,106 L 16,107 L 21,107 L 22,106 L 23,106 L 27,102 L 27,95 L 26,94 L 26,93 L 24,91 L 23,91 L 22,90 Z" fill="black" /><path d="M 139,82 L 137,84 L 136,84 L 134,86 L 134,87 L 133,88 L 133,93 L 134,94 L 134,96 L 135,97 L 136,97 L 138,99 L 144,99 L 146,97 L 147,97 L 147,96 L 149,94 L 149,88 L 148,87 L 148,86 L 147,85 L 147,84 L 145,84 L 143,82 Z" fill="black" /><path d="M 18,56 L 17,57 L 14,57 L 13,58 L 12,58 L 10,60 L 10,61 L 9,62 L 9,63 L 8,64 L 8,68 L 9,69 L 9,70 L 11,72 L 12,72 L 13,73 L 21,73 L 22,72 L 23,72 L 24,71 L 25,71 L 25,60 L 24,59 L 23,59 L 22,58 L 21,58 L 20,57 L 19,57 Z" fill="black" /><path d="M 236,53 L 235,54 L 232,54 L 228,58 L 228,65 L 229,66 L 229,67 L 231,69 L 233,69 L 234,70 L 239,70 L 240,69 L 241,69 L 243,67 L 243,66 L 244,65 L 244,64 L 245,63 L 245,60 L 243,58 L 243,56 L 242,56 L 240,54 L 237,54 Z" fill="black" /><path d="M 131,46 L 131,47 L 128,50 L 128,51 L 127,52 L 127,56 L 128,57 L 128,59 L 130,61 L 131,61 L 133,63 L 138,63 L 139,62 L 140,62 L 144,58 L 144,53 L 143,52 L 143,49 L 142,48 L 141,48 L 140,47 L 140,46 Z" fill="black" /><path d="M 13,24 L 12,25 L 11,25 L 7,29 L 7,36 L 10,39 L 10,40 L 11,41 L 19,41 L 20,40 L 21,40 L 23,38 L 23,36 L 24,35 L 23,34 L 23,28 L 21,26 L 20,26 L 18,24 Z" fill="black" /><path d="M 127,18 L 125,20 L 124,20 L 124,22 L 123,23 L 123,24 L 122,25 L 122,29 L 127,34 L 135,34 L 136,33 L 137,33 L 137,32 L 138,31 L 138,30 L 139,29 L 139,22 L 136,19 L 135,19 L 134,18 Z" fill="black" /></svg>