<?xml version='1.0' encoding='utf-8'?>
<svg width="261" height="219" xmlns="http://www.w3.org/2000/svg" viewBox="0 0 261 219"><rect width="261" height="219" fill="white" /><path d="M 12,190 L 10,192 L 8,192 L 7,193 L 7,194 L 5,196 L 5,201 L 6,202 L 6,203 L 7,204 L 7,205 L 9,207 L 11,207 L 12,208 L 15,208 L 16,207 L 19,207 L 20,206 L 20,205 L 22,203 L 22,196 L 21,195 L 21,194 L 20,193 L 20,192 L 19,191 L 18,191 L 17,190 Z" fill="black" /><path d="M 214,174 L 213,175 L 212,175 L 211,176 L 210,176 L 208,178 L 207,178 L 207,180 L 206,181 L 206,187 L 207,188 L 207,189 L 211,193 L 216,193 L 217,192 L 218,192 L 219,191 L 220,191 L 223,188 L 223,185 L 224,184 L 224,182 L 223,181 L 223,180 L 221,178 L 221,177 L 220,176 L 217,176 L 215,174 Z" fill="black" /><path d="M 40,174 L 38,176 L 37,176 L 37,178 L 35,180 L 35,184 L 36,185 L 36,187 L 39,190 L 40,190 L 41,191 L 47,191 L 49,189 L 50,189 L 52,187 L 52,186 L 53,185 L 53,181 L 52,180 L 52,178 L 50,176 L 49,176 L 47,174 Z" fill="black" /><path d="M 188,166 L 187,167 L 186,167 L 182,171 L 182,178 L 183,179 L 183,181 L 185,183 L 188,183 L 189,184 L 190,183 L 195,183 L 197,181 L 197,180 L 199,178 L 199,177 L 200,176 L 200,173 L 198,171 L 198,169 L 197,168 L 196,168 L 194,166 Z" fill="black" /><path d="M 230,158 L 226,162 L 226,163 L 225,164 L 225,167 L 226,168 L 226,169 L 227,170 L 227,171 L 229,173 L 230,173 L 232,175 L 238,175 L 242,171 L 242,170 L 243,169 L 243,162 L 239,158 Z" fill="black" /><path d="M 67,156 L 66,157 L 65,157 L 63,159 L 63,160 L 62,161 L 62,162 L 61,163 L 61,167 L 62,168 L 62,169 L 63,170 L 63,171 L 65,173 L 67,173 L 68,174 L 75,174 L 78,171 L 78,170 L 79,169 L 79,168 L 80,167 L 80,164 L 79,163 L 79,162 L 78,161 L 78,160 L 76,158 L 75,158 L 74,157 L 73,157 L 72,156 Z" fill="black" /><path d="M 162,150 L 160,152 L 159,152 L 159,153 L 158,154 L 158,155 L 157,156 L 157,161 L 158,162 L 158,163 L 159,164 L 159,165 L 160,166 L 161,166 L 162,167 L 170,167 L 176,161 L 176,160 L 175,159 L 175,155 L 171,151 L 170,151 L 169,150 Z" fill="black" /><path d="M 96,138 L 95,139 L 94,139 L 91,142 L 91,151 L 93,153 L 93,154 L 94,154 L 95,155 L 96,155 L 97,156 L 102,156 L 103,155 L 104,155 L 106,153 L 106,152 L 108,150 L 108,143 L 106,141 L 105,141 L 103,139 L 102,139 L 101,138 Z" fill="black" /><path d="M 142,132 L 141,133 L 140,133 L 137,136 L 137,145 L 139,147 L 140,147 L 142,149 L 148,149 L 152,145 L 153,145 L 154,144 L 154,137 L 153,136 L 153,135 L 151,133 L 150,133 L 149,132 Z" fill="black" /><path d="M 242,130 L 241,131 L 239,131 L 238,132 L 237,132 L 235,134 L 235,137 L 234,138 L 234,141 L 235,142 L 235,144 L 236,145 L 237,145 L 239,147 L 247,147 L 249,145 L 250,145 L 252,143 L 252,142 L 253,141 L 253,136 L 252,135 L 252,134 L 250,132 L 247,132 L 246,131 L 244,131 L 243,130 Z" fill="black" /><path d="M 120,117 L 119,118 L 116,118 L 115,119 L 115,121 L 113,123 L 113,128 L 114,129 L 114,130 L 118,134 L 120,134 L 121,135 L 124,135 L 126,133 L 127,133 L 130,130 L 130,129 L 131,128 L 131,125 L 130,124 L 130,123 L 129,122 L 129,120 L 128,119 L 128,118 L 124,118 L 123,117 Z" fill="black" /><path d="M 142,98 L 140,100 L 138,100 L 136,102 L 136,103 L 135,104 L 135,112 L 138,115 L 139,115 L 140,116 L 145,116 L 146,115 L 149,115 L 151,113 L 151,112 L 152,111 L 152,103 L 149,100 L 146,100 L 145,99 L 144,99 L 143,98 Z" fill="black" /><path d="M 106,94 L 105,95 L 104,95 L 101,98 L 101,99 L 100,100 L 100,103 L 101,104 L 101,108 L 103,110 L 106,110 L 107,111 L 111,111 L 112,110 L 113,110 L 118,105 L 118,101 L 117,100 L 117,99 L 116,98 L 116,97 L 115,96 L 115,95 L 114,94 Z" fill="black" /><path d="M 166,81 L 165,82 L 163,82 L 162,83 L 161,83 L 160,84 L 160,85 L 159,86 L 159,87 L 158,88 L 158,91 L 159,92 L 159,94 L 161,96 L 161,97 L 163,97 L 165,99 L 171,99 L 173,97 L 174,97 L 176,95 L 176,86 L 172,82 L 170,82 L 169,81 Z" fill="black" /><path d="M 89,66 L 88,67 L 87,67 L 83,71 L 83,76 L 82,77 L 83,78 L 83,80 L 86,83 L 88,83 L 89,84 L 94,84 L 95,83 L 96,83 L 100,79 L 100,72 L 98,70 L 98,69 L 96,67 L 95,67 L 94,66 Z" fill="black" /><path d="M 185,56 L 180,61 L 180,67 L 181,68 L 181,70 L 182,71 L 183,71 L 185,73 L 186,73 L 187,74 L 191,74 L 192,73 L 194,73 L 195,72 L 196,72 L 198,70 L 198,62 L 196,60 L 196,59 L 195,58 L 194,58 L 193,57 L 192,57 L 191,56 Z" fill="black" /><path d="M 71,42 L 66,47 L 66,50 L 65,51 L 65,54 L 66,55 L 66,56 L 67,57 L 67,58 L 68,59 L 69,59 L 70,60 L 72,60 L 73,61 L 74,61 L 76,59 L 79,59 L 82,56 L 82,53 L 83,52 L 83,49 L 82,48 L 82,47 L 81,46 L 81,45 L 79,43 L 78,43 L 77,42 Z" fill="black" /><path d="M 213,36 L 212,37 L 208,37 L 204,41 L 204,43 L 203,44 L 203,47 L 205,49 L 205,51 L 206,52 L 207,52 L 208,53 L 209,53 L 211,55 L 215,55 L 217,53 L 218,53 L 221,50 L 221,47 L 222,46 L 222,43 L 220,41 L 220,39 L 219,38 L 217,38 L 215,36 Z" fill="black" /><path d="M 48,20 L 46,22 L 45,22 L 42,25 L 42,33 L 43,34 L 43,35 L 45,37 L 46,37 L 47,38 L 51,38 L 52,37 L 55,37 L 59,33 L 59,32 L 60,31 L 60,25 L 57,22 L 56,22 L 54,20 Z" fill="black" /><path d="M 232,14 L 228,18 L 228,19 L 227,20 L 227,21 L 228,22 L 228,26 L 232,30 L 235,30 L 236,31 L 239,31 L 240,30 L 241,30 L 245,26 L 245,24 L 246,23 L 246,19 L 245,18 L 245,17 L 243,15 L 242,15 L 241,14 Z" fill="black" /><path d="M 25,4 L 24,5 L 23,5 L 19,9 L 19,16 L 21,18 L 21,20 L 22,21 L 32,21 L 34,19 L 35,19 L 36,18 L 36,8 L 34,6 L 33,6 L 31,4 Z" fill="black" /></svg>