<?xml version='1.0' encoding='utf-8'?>
<svg width="265" height="220" xmlns="http://www.w3.org/2000/svg" viewBox="0 0 265 220"><rect width="265" height="220" fill="white" /><path d="M 35,176 L 33,178 L 32,178 L 29,181 L 29,188 L 30,189 L 30,191 L 32,193 L 34,193 L 36,195 L 41,195 L 42,194 L 43,194 L 44,193 L 45,193 L 47,191 L 47,181 L 42,176 Z" fill="black" /><path d="M 64,170 L 60,174 L 60,177 L 59,178 L 59,181 L 60,182 L 60,183 L 61,184 L 61,185 L 62,186 L 63,186 L 64,187 L 65,187 L 66,188 L 67,188 L 68,189 L 70,189 L 72,187 L 74,187 L 76,185 L 76,184 L 77,183 L 77,182 L 78,181 L 78,178 L 77,177 L 77,175 L 74,172 L 73,172 L 71,170 Z" fill="black" /><path d="M 200,167 L 199,168 L 198,168 L 197,169 L 196,169 L 196,170 L 194,172 L 194,176 L 193,177 L 193,179 L 194,180 L 194,181 L 196,183 L 196,184 L 197,184 L 198,185 L 199,185 L 200,186 L 205,186 L 206,185 L 207,185 L 209,183 L 210,183 L 211,182 L 211,173 L 210,172 L 210,171 L 207,168 L 206,168 L 205,167 Z" fill="black" /><path d="M 225,159 L 224,160 L 221,160 L 221,161 L 218,164 L 218,171 L 224,177 L 230,177 L 232,175 L 233,175 L 236,172 L 236,168 L 235,167 L 235,163 L 231,159 Z" fill="black" /><path d="M 172,154 L 168,158 L 168,160 L 167,161 L 167,164 L 168,165 L 168,167 L 173,172 L 175,172 L 176,171 L 180,171 L 182,169 L 183,169 L 184,168 L 184,167 L 185,166 L 185,157 L 182,154 Z" fill="black" /><path d="M 84,148 L 82,150 L 81,150 L 79,152 L 79,153 L 78,154 L 78,161 L 80,163 L 80,164 L 81,165 L 83,165 L 84,166 L 86,166 L 87,167 L 88,166 L 91,166 L 92,165 L 94,165 L 95,164 L 95,163 L 96,162 L 96,160 L 97,159 L 97,157 L 96,156 L 96,153 L 91,148 Z" fill="black" /><path d="M 25,145 L 24,146 L 20,146 L 18,148 L 18,149 L 16,151 L 16,159 L 20,163 L 22,163 L 23,164 L 25,164 L 26,163 L 31,163 L 33,161 L 33,160 L 34,159 L 34,158 L 35,157 L 35,151 L 34,150 L 34,149 L 32,147 L 30,147 L 29,146 L 28,146 L 27,145 Z" fill="black" /><path d="M 244,133 L 242,135 L 241,135 L 240,136 L 240,139 L 239,140 L 239,145 L 243,149 L 245,149 L 247,151 L 249,151 L 250,150 L 251,150 L 252,149 L 253,149 L 257,145 L 257,140 L 255,138 L 255,136 L 252,133 Z" fill="black" /><path d="M 152,129 L 151,130 L 150,130 L 147,133 L 147,134 L 146,135 L 146,142 L 148,144 L 148,145 L 150,147 L 158,147 L 162,143 L 163,143 L 163,142 L 165,140 L 165,135 L 163,133 L 163,132 L 161,130 L 160,130 L 159,129 Z" fill="black" /><path d="M 104,124 L 100,128 L 100,129 L 98,131 L 98,132 L 99,133 L 99,135 L 100,136 L 100,137 L 101,138 L 101,139 L 103,141 L 106,141 L 107,142 L 112,142 L 113,141 L 114,141 L 115,140 L 115,139 L 116,138 L 116,137 L 117,136 L 117,135 L 118,134 L 118,130 L 117,129 L 117,128 L 115,126 L 114,126 L 112,124 Z" fill="black" /><path d="M 22,115 L 21,116 L 19,116 L 17,118 L 16,118 L 16,120 L 14,122 L 14,127 L 15,128 L 15,129 L 17,131 L 18,131 L 20,133 L 27,133 L 28,132 L 30,132 L 33,129 L 33,127 L 34,126 L 34,122 L 33,121 L 33,120 L 32,119 L 32,118 L 31,118 L 29,116 L 26,116 L 25,115 Z" fill="black" /><path d="M 128,104 L 126,106 L 124,106 L 124,107 L 123,108 L 123,109 L 122,110 L 122,113 L 123,114 L 123,116 L 124,117 L 124,118 L 127,121 L 131,121 L 132,122 L 134,122 L 135,121 L 136,121 L 141,116 L 141,111 L 140,110 L 140,109 L 139,108 L 139,107 L 138,106 L 137,106 L 135,104 Z" fill="black" /><path d="M 25,84 L 23,86 L 22,86 L 19,89 L 19,95 L 20,96 L 20,98 L 23,101 L 24,101 L 25,102 L 33,102 L 34,101 L 35,101 L 37,99 L 37,96 L 38,95 L 38,94 L 39,93 L 38,92 L 38,91 L 37,90 L 37,87 L 36,86 L 35,86 L 33,84 Z" fill="black" /><path d="M 154,82 L 153,83 L 150,83 L 146,87 L 146,88 L 145,89 L 145,93 L 146,94 L 146,96 L 149,99 L 150,99 L 151,100 L 160,100 L 161,99 L 161,98 L 162,97 L 162,96 L 163,95 L 163,94 L 164,93 L 164,90 L 163,89 L 163,88 L 161,86 L 161,85 L 160,84 L 158,84 L 156,82 Z" fill="black" /><path d="M 177,57 L 176,58 L 174,58 L 172,60 L 172,61 L 170,63 L 170,68 L 171,69 L 171,70 L 172,71 L 172,72 L 173,73 L 175,73 L 176,74 L 177,74 L 178,75 L 183,75 L 184,74 L 185,74 L 187,72 L 187,71 L 189,69 L 189,63 L 187,61 L 187,60 L 185,58 L 183,58 L 182,57 Z" fill="black" /><path d="M 195,28 L 194,29 L 193,29 L 191,31 L 191,32 L 190,33 L 190,34 L 189,35 L 189,37 L 190,38 L 190,42 L 192,44 L 193,44 L 194,45 L 204,45 L 205,44 L 205,43 L 207,41 L 207,33 L 206,32 L 206,31 L 205,30 L 204,30 L 203,29 L 202,29 L 201,28 Z" fill="black" /><path d="M 169,3 L 166,6 L 166,7 L 165,8 L 165,9 L 164,10 L 164,13 L 165,14 L 165,15 L 166,16 L 166,17 L 168,19 L 170,19 L 172,21 L 175,21 L 176,20 L 177,20 L 178,19 L 179,19 L 182,16 L 182,15 L 183,14 L 183,9 L 181,7 L 181,6 L 179,4 L 176,4 L 175,3 Z" fill="black" /><path d="M 136,0 L 131,5 L 131,6 L 130,7 L 130,12 L 132,14 L 132,15 L 134,17 L 136,17 L 137,18 L 144,18 L 147,15 L 147,13 L 149,11 L 149,6 L 148,5 L 148,4 L 144,0 Z" fill="black" /></svg>