<?xml version="1.0" encoding="utf-8" ?>
<svg baseProfile="full" height="217" version="1.1" width="263" xmlns="http://www.w3.org/2000/svg" xmlns:ev="http://www.w3.org/2001/xml-events" xmlns:xlink="http://www.w3.org/1999/xlink"><defs /><rect fill="white" height="217" width="263" x="0" y="0" /><circle cx="32.5" cy="193.5" fill="none" r="5.147915363311768" stroke="black" stroke-width="1" /><circle cx="241.5" cy="192.5" fill="none" r="5.147915363311768" stroke="black" stroke-width="1" /><circle cx="241.18182373046875" cy="193.0" fill="black" r="11.226550102233887" stroke="black" stroke-width="1" /><circle cx="31.53689956665039" cy="193.21217346191406" fill="black" r="11.674703598022461" stroke="black" stroke-width="1" /><circle cx="61.5" cy="179.0" fill="none" r="5.4084272384643555" stroke="black" stroke-width="1" /><circle cx="61.07143020629883" cy="179.5" fill="black" r="11.350279808044434" stroke="black" stroke-width="1" /><circle cx="238.53448486328125" cy="163.62069702148438" fill="none" r="5.059932708740234" stroke="black" stroke-width="1" /><circle cx="238.08621215820312" cy="163.08621215820312" fill="black" r="11.296171188354492" stroke="black" stroke-width="1" /><circle cx="86.5" cy="153.5" fill="none" r="5.700977325439453" stroke="black" stroke-width="1" /><circle cx="86.80000305175781" cy="153.8000030517578" fill="black" r="11.449121475219727" stroke="black" stroke-width="1" /><circle cx="157.9516143798828" cy="144.96774291992188" fill="none" r="5.058164119720459" stroke="black" stroke-width="1" /><circle cx="157.75732421875" cy="145.35342407226562" fill="black" r="11.129544258117676" stroke="black" stroke-width="1" /><circle cx="130.875" cy="139.5" fill="none" r="5.340102672576904" stroke="black" stroke-width="1" /><circle cx="130.5" cy="139.03846740722656" fill="black" r="10.930895805358887" stroke="black" stroke-width="1" /><circle cx="239.5" cy="130.5" fill="none" r="5.147915363311768" stroke="black" stroke-width="1" /><circle cx="238.7857208251953" cy="130.0" fill="black" r="10.969683647155762" stroke="black" stroke-width="1" /><circle cx="180.31817626953125" cy="124.31818389892578" fill="none" r="4.047856330871582" stroke="black" stroke-width="1" /><circle cx="103.0" cy="122.66666412353516" fill="none" r="5.270562171936035" stroke="black" stroke-width="1" /><circle cx="180.3235321044922" cy="123.94117736816406" fill="black" r="11.185274124145508" stroke="black" stroke-width="1" /><circle cx="102.5" cy="122.5" fill="black" r="11.068072319030762" stroke="black" stroke-width="1" /><circle cx="72.40322875976562" cy="107.16129302978516" fill="none" r="5.402750015258789" stroke="black" stroke-width="1" /><circle cx="72.42105102539062" cy="107.31578826904297" fill="black" r="11.425516128540039" stroke="black" stroke-width="1" /><circle cx="202.0" cy="98.05555725097656" fill="none" r="5.044655799865723" stroke="black" stroke-width="1" /><circle cx="231.75" cy="97.75" fill="none" r="5.062214374542236" stroke="black" stroke-width="1" /><circle cx="111.16666412353516" cy="93.83333587646484" fill="none" r="5.602682113647461" stroke="black" stroke-width="1" /><circle cx="231.08824157714844" cy="97.26470947265625" fill="black" r="10.984911918640137" stroke="black" stroke-width="1" /><circle cx="201.8249969482422" cy="97.44999694824219" fill="black" r="10.921777725219727" stroke="black" stroke-width="1" /><circle cx="110.31553649902344" cy="94.0631103515625" fill="black" r="11.114978790283203" stroke="black" stroke-width="1" /><circle cx="49.681819915771484" cy="81.68181610107422" fill="none" r="4.047852993011475" stroke="black" stroke-width="1" /><circle cx="49.46154022216797" cy="81.84615325927734" fill="black" r="11.122071266174316" stroke="black" stroke-width="1" /><circle cx="121.0" cy="62.5" fill="none" r="4.031229019165039" stroke="black" stroke-width="1" /><circle cx="120.78571319580078" cy="63.0" fill="black" r="10.969676971435547" stroke="black" stroke-width="1" /><circle cx="33.5" cy="52.79999923706055" fill="none" r="5.412123203277588" stroke="black" stroke-width="1" /><circle cx="33.67499923706055" cy="53.0" fill="black" r="11.088635444641113" stroke="black" stroke-width="1" /><circle cx="131.8000030517578" cy="32.20000076293945" fill="none" r="5.28024959564209" stroke="black" stroke-width="1" /><circle cx="131.7857208251953" cy="31.64285659790039" fill="black" r="11.296213150024414" stroke="black" stroke-width="1" /><circle cx="42.78947448730469" cy="25.394737243652344" fill="none" r="5.452296257019043" stroke="black" stroke-width="1" /><circle cx="42.349998474121094" cy="26.059999465942383" fill="black" r="11.14218521118164" stroke="black" stroke-width="1" /><circle cx="162.6666717529297" cy="18.0" fill="none" r="5.426368713378906" stroke="black" stroke-width="1" /><circle cx="194.5" cy="13.5" fill="none" r="4.301262855529785" stroke="black" stroke-width="1" /><circle cx="162.6265869140625" cy="17.892404556274414" fill="black" r="11.013290405273438" stroke="black" stroke-width="1" /><circle cx="194.5" cy="13.5" fill="black" r="11.068072319030762" stroke="black" stroke-width="1" /><path d="M 0,0 L 0,216 L 262,216 L 262,0 Z" fill="none" stroke="black" stroke-width="1" /></svg>