<?xml version='1.0' encoding='utf-8'?>
<svg width="255" height="220" xmlns="http://www.w3.org/2000/svg" viewBox="0 0 255 220"><rect width="255" height="220" fill="white" /><path d="M 211,192 L 209,194 L 208,194 L 207,195 L 206,195 L 205,196 L 205,207 L 206,208 L 207,208 L 209,210 L 217,210 L 221,206 L 221,197 L 217,193 L 214,193 L 213,192 Z" fill="black" /><path d="M 6,190 L 5,191 L 4,191 L 1,194 L 1,197 L 0,198 L 0,201 L 1,202 L 1,204 L 4,207 L 8,207 L 9,208 L 12,208 L 13,207 L 14,207 L 17,204 L 17,203 L 18,202 L 18,195 L 14,191 L 13,191 L 12,190 Z" fill="black" /><path d="M 241,182 L 240,183 L 239,183 L 238,184 L 236,184 L 234,186 L 234,187 L 233,188 L 233,196 L 235,198 L 236,198 L 238,200 L 239,200 L 240,201 L 243,201 L 244,200 L 246,200 L 250,196 L 250,188 L 244,182 Z" fill="black" /><path d="M 194,169 L 192,171 L 191,171 L 190,172 L 189,172 L 189,173 L 187,175 L 187,177 L 188,178 L 188,182 L 192,186 L 201,186 L 205,182 L 205,175 L 204,174 L 204,172 L 202,170 L 199,170 L 198,169 Z" fill="black" /><path d="M 14,160 L 13,161 L 13,162 L 11,164 L 11,165 L 9,167 L 9,171 L 10,172 L 10,173 L 11,174 L 11,175 L 12,175 L 14,177 L 18,177 L 19,178 L 21,178 L 22,177 L 23,177 L 25,175 L 25,174 L 27,172 L 27,169 L 28,168 L 27,167 L 27,166 L 26,165 L 26,164 L 22,160 Z" fill="black" /><path d="M 191,138 L 189,140 L 188,140 L 187,141 L 187,143 L 186,144 L 186,145 L 185,146 L 185,149 L 188,152 L 188,153 L 190,155 L 198,155 L 201,152 L 202,152 L 202,150 L 203,149 L 203,145 L 202,144 L 202,140 L 201,140 L 199,138 Z" fill="black" /><path d="M 37,138 L 35,140 L 33,140 L 31,142 L 31,146 L 30,147 L 30,152 L 34,156 L 38,156 L 39,157 L 41,157 L 42,156 L 43,156 L 48,151 L 48,148 L 47,147 L 47,143 L 45,141 L 44,141 L 43,140 L 41,140 L 39,138 Z" fill="black" /><path d="M 62,121 L 60,123 L 60,124 L 59,125 L 59,126 L 58,127 L 58,131 L 59,132 L 59,135 L 63,139 L 69,139 L 70,138 L 71,138 L 75,134 L 75,133 L 76,132 L 76,128 L 75,127 L 75,126 L 74,125 L 74,124 L 73,123 L 72,123 L 71,122 L 70,122 L 69,121 Z" fill="black" /><path d="M 171,116 L 170,117 L 168,117 L 164,121 L 164,122 L 163,123 L 163,129 L 168,134 L 169,134 L 170,135 L 174,135 L 175,134 L 176,134 L 180,130 L 180,122 L 175,117 L 174,117 L 173,116 Z" fill="black" /><path d="M 90,111 L 89,112 L 87,112 L 85,114 L 85,115 L 83,117 L 83,124 L 87,128 L 89,128 L 90,129 L 95,129 L 96,128 L 97,128 L 100,125 L 100,117 L 95,112 L 94,112 L 93,111 Z" fill="black" /><path d="M 139,104 L 137,106 L 137,107 L 135,109 L 135,117 L 140,122 L 146,122 L 148,120 L 149,120 L 149,119 L 151,117 L 151,116 L 152,115 L 152,109 L 147,104 Z" fill="black" /><path d="M 113,96 L 112,97 L 111,97 L 110,98 L 109,98 L 109,100 L 107,102 L 107,108 L 109,110 L 109,111 L 111,113 L 115,113 L 116,114 L 118,114 L 119,113 L 120,113 L 123,110 L 123,109 L 124,108 L 124,103 L 123,102 L 123,101 L 118,96 Z" fill="black" /><path d="M 112,64 L 111,65 L 110,65 L 106,69 L 106,70 L 105,71 L 105,74 L 106,75 L 106,76 L 107,77 L 107,79 L 110,82 L 118,82 L 119,81 L 120,81 L 122,79 L 122,76 L 123,75 L 123,71 L 122,70 L 122,69 L 118,65 L 117,65 L 116,64 Z" fill="black" /><path d="M 112,33 L 107,38 L 107,45 L 109,47 L 109,48 L 111,50 L 119,50 L 120,49 L 122,49 L 122,48 L 124,46 L 124,43 L 125,42 L 125,37 L 123,35 L 122,35 L 121,34 L 120,34 L 119,33 Z" fill="black" /><path d="M 118,4 L 116,6 L 116,7 L 115,8 L 115,9 L 114,10 L 114,13 L 115,14 L 115,17 L 118,20 L 119,20 L 120,21 L 126,21 L 127,20 L 128,20 L 130,18 L 130,17 L 132,15 L 132,9 L 128,5 L 127,5 L 126,4 Z" fill="black" /></svg>