<?xml version='1.0' encoding='utf-8'?>
<svg width="259" height="221" xmlns="http://www.w3.org/2000/svg" viewBox="0 0 259 221"><rect width="259" height="221" fill="white" /><path d="M 180,191 L 175,196 L 175,197 L 174,198 L 174,203 L 176,205 L 176,206 L 178,208 L 180,208 L 181,209 L 185,209 L 186,208 L 188,208 L 191,205 L 191,204 L 192,203 L 192,198 L 191,197 L 191,196 L 190,195 L 190,194 L 187,191 Z" fill="black" /><path d="M 212,184 L 211,185 L 208,185 L 204,189 L 204,191 L 203,192 L 203,195 L 204,196 L 204,198 L 208,202 L 217,202 L 219,200 L 219,199 L 221,197 L 221,191 L 219,189 L 219,187 L 217,185 L 216,185 L 215,184 Z" fill="black" /><path d="M 152,181 L 151,182 L 150,182 L 149,183 L 148,183 L 148,184 L 146,186 L 146,188 L 144,190 L 144,192 L 146,194 L 146,196 L 148,198 L 150,198 L 152,200 L 155,200 L 156,199 L 158,199 L 159,198 L 160,198 L 162,196 L 162,195 L 163,194 L 163,187 L 162,186 L 162,185 L 161,184 L 161,183 L 160,183 L 158,181 Z" fill="black" /><path d="M 126,163 L 124,165 L 123,165 L 121,167 L 121,172 L 122,173 L 122,176 L 126,180 L 135,180 L 137,178 L 137,177 L 139,175 L 139,166 L 138,166 L 136,164 L 136,163 Z" fill="black" /><path d="M 239,129 L 237,131 L 236,131 L 233,134 L 233,135 L 232,136 L 232,140 L 233,141 L 233,142 L 234,143 L 234,146 L 235,147 L 237,147 L 238,148 L 245,148 L 250,143 L 250,136 L 249,135 L 249,134 L 246,131 L 245,131 L 243,129 Z" fill="black" /><path d="M 120,127 L 118,129 L 117,129 L 116,130 L 116,131 L 114,133 L 114,139 L 116,141 L 116,142 L 118,144 L 128,144 L 129,143 L 130,143 L 131,142 L 131,141 L 132,140 L 132,135 L 131,134 L 131,132 L 130,131 L 130,130 L 127,127 Z" fill="black" /><path d="M 219,112 L 218,113 L 214,113 L 212,115 L 211,115 L 210,116 L 210,118 L 209,119 L 209,120 L 208,121 L 208,124 L 209,125 L 209,126 L 210,127 L 211,127 L 214,130 L 220,130 L 221,129 L 223,129 L 225,127 L 225,126 L 226,125 L 226,123 L 227,122 L 227,120 L 226,119 L 226,117 L 225,116 L 225,115 L 224,115 L 222,113 L 220,113 Z" fill="black" /><path d="M 186,99 L 186,100 L 182,104 L 182,111 L 186,115 L 186,116 L 191,116 L 192,117 L 194,117 L 195,116 L 196,116 L 196,115 L 200,111 L 200,109 L 199,108 L 199,103 L 195,99 Z" fill="black" /><path d="M 153,97 L 152,98 L 151,98 L 149,100 L 149,101 L 148,102 L 148,110 L 150,112 L 151,112 L 153,114 L 154,114 L 155,115 L 158,115 L 159,114 L 161,114 L 165,110 L 165,101 L 162,98 L 161,98 L 160,97 Z" fill="black" /><path d="M 64,97 L 62,99 L 61,99 L 61,100 L 58,103 L 58,111 L 63,116 L 70,116 L 71,115 L 72,115 L 74,113 L 74,112 L 75,111 L 75,102 L 74,101 L 74,100 L 73,99 L 71,99 L 70,98 L 69,98 L 68,97 Z" fill="black" /><path d="M 95,96 L 94,97 L 93,97 L 91,99 L 91,100 L 88,103 L 88,107 L 89,108 L 89,109 L 94,114 L 98,114 L 99,113 L 101,113 L 102,112 L 104,112 L 105,111 L 105,109 L 106,108 L 106,101 L 105,100 L 105,99 L 104,98 L 103,98 L 102,97 L 99,97 L 98,96 Z" fill="black" /><path d="M 122,95 L 120,97 L 119,97 L 118,98 L 118,99 L 117,100 L 117,102 L 116,103 L 116,106 L 117,107 L 117,108 L 120,111 L 124,111 L 125,112 L 129,112 L 133,108 L 133,100 L 131,98 L 131,97 L 129,95 Z" fill="black" /><path d="M 41,81 L 40,82 L 39,82 L 36,85 L 36,87 L 35,88 L 35,93 L 36,94 L 36,95 L 39,98 L 48,98 L 52,94 L 52,92 L 53,91 L 53,86 L 48,81 Z" fill="black" /><path d="M 119,65 L 118,66 L 117,66 L 114,69 L 114,72 L 112,74 L 112,75 L 113,76 L 113,78 L 115,80 L 115,81 L 116,82 L 120,82 L 121,83 L 123,83 L 124,82 L 126,82 L 131,77 L 131,72 L 129,70 L 129,69 L 126,66 L 125,66 L 124,65 Z" fill="black" /><path d="M 32,51 L 30,53 L 29,53 L 28,54 L 28,55 L 26,57 L 26,62 L 27,63 L 27,64 L 28,65 L 28,66 L 31,69 L 37,69 L 38,68 L 40,68 L 43,65 L 43,63 L 44,62 L 44,56 L 40,52 L 39,52 L 38,51 Z" fill="black" /><path d="M 119,35 L 118,36 L 116,36 L 114,38 L 114,39 L 113,40 L 113,47 L 117,51 L 118,51 L 119,52 L 126,52 L 128,50 L 129,50 L 131,48 L 131,39 L 127,35 Z" fill="black" /><path d="M 31,19 L 29,21 L 27,21 L 26,22 L 26,23 L 24,25 L 24,32 L 29,37 L 37,37 L 41,33 L 41,32 L 42,31 L 42,27 L 41,26 L 41,23 L 38,20 L 37,20 L 36,19 Z" fill="black" /><path d="M 123,5 L 122,6 L 121,6 L 117,10 L 117,11 L 116,12 L 116,16 L 117,17 L 117,19 L 119,21 L 119,22 L 123,22 L 124,23 L 127,23 L 128,22 L 130,22 L 131,21 L 132,21 L 133,20 L 133,18 L 135,16 L 135,13 L 134,12 L 134,11 L 133,10 L 133,8 L 132,7 L 130,7 L 128,5 Z" fill="black" /></svg>