<?xml version='1.0' encoding='utf-8'?>
<svg width="262" height="218" xmlns="http://www.w3.org/2000/svg" viewBox="0 0 262 218"><rect width="262" height="218" fill="white" /><path d="M 116,18 L 115,19 L 114,19 L 113,20 L 111,20 L 109,22 L 107,22 L 106,23 L 106,24 L 105,25 L 105,26 L 103,28 L 103,30 L 102,31 L 102,37 L 103,38 L 103,39 L 106,42 L 106,44 L 107,44 L 108,45 L 109,45 L 111,47 L 112,47 L 113,48 L 116,48 L 117,49 L 117,51 L 116,52 L 116,53 L 114,55 L 113,55 L 112,56 L 112,59 L 111,60 L 111,61 L 110,62 L 110,67 L 111,68 L 111,69 L 112,70 L 112,71 L 113,72 L 113,73 L 114,74 L 114,75 L 115,75 L 117,77 L 118,77 L 119,78 L 120,78 L 122,80 L 122,81 L 119,84 L 119,85 L 118,86 L 117,86 L 116,87 L 116,89 L 115,90 L 115,91 L 114,92 L 114,99 L 115,100 L 115,101 L 116,102 L 116,104 L 118,106 L 118,107 L 120,109 L 122,109 L 125,112 L 122,115 L 121,115 L 118,118 L 118,119 L 116,121 L 116,123 L 115,124 L 113,124 L 111,122 L 110,122 L 108,120 L 107,120 L 105,118 L 90,118 L 89,119 L 88,119 L 87,120 L 86,120 L 84,122 L 84,123 L 83,124 L 83,126 L 82,127 L 82,128 L 81,129 L 79,129 L 77,127 L 76,127 L 75,126 L 63,126 L 61,128 L 60,128 L 58,130 L 58,131 L 56,133 L 56,134 L 54,136 L 52,136 L 51,135 L 50,135 L 49,134 L 39,134 L 37,136 L 36,136 L 35,137 L 34,137 L 32,139 L 32,140 L 30,142 L 30,145 L 29,146 L 29,147 L 28,148 L 28,154 L 30,156 L 30,157 L 32,159 L 32,160 L 33,161 L 34,161 L 36,163 L 38,163 L 39,164 L 40,164 L 41,165 L 46,165 L 48,163 L 51,163 L 52,162 L 53,162 L 60,155 L 64,155 L 66,157 L 74,157 L 76,155 L 78,155 L 83,150 L 83,148 L 84,147 L 84,146 L 85,145 L 88,145 L 90,147 L 91,147 L 92,148 L 95,148 L 96,149 L 98,149 L 99,148 L 102,148 L 103,147 L 107,147 L 109,145 L 109,144 L 110,143 L 111,143 L 111,142 L 113,140 L 113,139 L 115,137 L 118,137 L 120,139 L 122,139 L 124,141 L 127,141 L 129,143 L 129,145 L 128,146 L 126,146 L 122,150 L 122,161 L 123,162 L 123,163 L 124,164 L 124,167 L 126,169 L 127,169 L 129,171 L 130,171 L 131,172 L 131,175 L 129,177 L 128,177 L 128,178 L 126,180 L 126,190 L 128,192 L 128,195 L 130,197 L 130,198 L 131,199 L 132,199 L 133,200 L 134,200 L 135,201 L 138,201 L 139,202 L 140,202 L 141,203 L 143,203 L 144,202 L 145,202 L 146,201 L 148,201 L 150,199 L 151,199 L 153,197 L 154,197 L 155,196 L 155,194 L 157,192 L 157,189 L 158,188 L 158,183 L 157,182 L 157,178 L 155,176 L 154,176 L 153,175 L 153,174 L 152,174 L 150,172 L 149,172 L 148,171 L 148,169 L 150,167 L 150,166 L 151,165 L 151,163 L 152,162 L 152,160 L 153,159 L 153,152 L 152,151 L 152,150 L 148,146 L 147,146 L 145,144 L 142,144 L 140,142 L 140,141 L 146,135 L 148,135 L 150,137 L 151,137 L 152,138 L 153,138 L 154,139 L 159,139 L 160,138 L 162,138 L 163,137 L 165,137 L 167,135 L 168,135 L 173,130 L 173,128 L 176,125 L 177,125 L 179,127 L 180,127 L 182,129 L 183,129 L 184,130 L 185,130 L 186,131 L 195,131 L 197,129 L 199,129 L 203,125 L 203,124 L 205,122 L 205,120 L 206,119 L 209,119 L 210,120 L 210,121 L 211,121 L 215,125 L 217,125 L 218,126 L 225,126 L 226,125 L 230,125 L 232,123 L 233,123 L 237,119 L 237,116 L 239,114 L 239,107 L 238,106 L 238,105 L 237,104 L 237,102 L 233,98 L 232,98 L 231,97 L 230,97 L 229,96 L 216,96 L 214,98 L 213,98 L 211,100 L 210,100 L 210,101 L 209,102 L 209,103 L 208,104 L 208,105 L 207,106 L 206,106 L 205,107 L 202,104 L 202,103 L 201,102 L 200,102 L 199,101 L 198,101 L 197,100 L 194,100 L 193,99 L 191,99 L 190,100 L 185,100 L 183,102 L 182,102 L 176,108 L 176,110 L 172,114 L 171,114 L 169,112 L 168,112 L 166,110 L 164,110 L 163,109 L 162,109 L 161,108 L 155,108 L 154,109 L 152,109 L 151,110 L 148,110 L 146,112 L 146,113 L 144,115 L 141,115 L 140,114 L 139,114 L 138,113 L 137,113 L 135,111 L 138,108 L 139,108 L 140,107 L 141,107 L 141,104 L 142,103 L 143,103 L 143,101 L 145,99 L 145,92 L 144,91 L 144,90 L 143,89 L 143,87 L 137,81 L 135,81 L 134,80 L 133,80 L 132,79 L 135,76 L 136,76 L 137,75 L 137,74 L 138,73 L 139,73 L 139,72 L 140,71 L 140,70 L 141,69 L 141,64 L 142,63 L 142,62 L 141,61 L 141,60 L 142,59 L 141,58 L 141,56 L 140,56 L 139,55 L 139,54 L 135,50 L 134,50 L 132,48 L 130,48 L 129,47 L 129,45 L 131,43 L 131,42 L 133,40 L 133,36 L 134,35 L 134,31 L 133,30 L 133,27 L 131,25 L 131,24 L 127,20 L 125,20 L 124,19 L 122,19 L 121,18 Z" fill="black" /><path d="M 0,0 L 0,217 L 261,217 L 261,0 Z" fill="none" stroke="black" stroke-width="1" /></svg>