<?xml version='1.0' encoding='utf-8'?>
<svg width="257" height="215" xmlns="http://www.w3.org/2000/svg" viewBox="0 0 257 215"><rect width="257" height="215" fill="white" /><path d="M 221,88 L 219,90 L 217,90 L 215,92 L 215,93 L 214,94 L 213,94 L 213,95 L 211,97 L 211,100 L 210,101 L 210,103 L 209,104 L 209,105 L 210,106 L 210,107 L 211,108 L 211,110 L 212,111 L 212,112 L 214,114 L 214,116 L 212,118 L 209,118 L 208,119 L 206,119 L 199,126 L 199,127 L 198,128 L 198,129 L 197,130 L 197,132 L 198,133 L 198,137 L 199,138 L 199,140 L 198,141 L 187,141 L 186,142 L 185,142 L 184,143 L 183,143 L 182,144 L 182,145 L 181,146 L 177,146 L 175,144 L 175,140 L 174,139 L 174,136 L 172,134 L 172,133 L 169,130 L 166,130 L 165,129 L 163,129 L 162,128 L 153,128 L 152,127 L 152,121 L 151,120 L 151,118 L 150,117 L 150,115 L 147,112 L 145,112 L 144,111 L 144,110 L 141,110 L 139,108 L 133,108 L 132,109 L 131,109 L 130,110 L 127,110 L 127,111 L 126,112 L 126,113 L 125,114 L 124,114 L 123,115 L 122,115 L 120,113 L 120,111 L 121,110 L 121,109 L 120,108 L 120,106 L 119,105 L 119,104 L 116,101 L 115,101 L 114,100 L 113,100 L 111,98 L 102,98 L 100,100 L 97,100 L 95,102 L 93,102 L 93,103 L 92,104 L 92,105 L 91,106 L 91,107 L 90,108 L 90,109 L 89,110 L 89,117 L 90,118 L 90,119 L 91,120 L 91,123 L 90,124 L 80,124 L 79,125 L 76,125 L 75,126 L 73,126 L 73,127 L 70,130 L 70,131 L 69,132 L 69,135 L 68,136 L 68,142 L 69,143 L 69,149 L 68,150 L 61,150 L 60,151 L 57,151 L 56,152 L 55,152 L 54,153 L 53,153 L 52,154 L 51,154 L 51,155 L 48,158 L 47,158 L 47,160 L 45,162 L 45,167 L 46,168 L 46,170 L 47,171 L 47,173 L 49,175 L 49,176 L 51,178 L 51,179 L 53,179 L 55,181 L 59,181 L 60,182 L 64,182 L 65,181 L 68,181 L 70,179 L 71,179 L 74,176 L 74,174 L 76,172 L 76,169 L 77,168 L 77,166 L 76,165 L 76,160 L 75,159 L 75,158 L 74,157 L 76,155 L 80,155 L 81,156 L 84,156 L 85,155 L 89,155 L 91,153 L 92,153 L 96,149 L 96,147 L 98,145 L 98,134 L 95,131 L 95,129 L 96,128 L 97,128 L 98,129 L 110,129 L 111,128 L 112,128 L 113,127 L 114,127 L 118,123 L 120,125 L 120,127 L 121,128 L 121,132 L 123,134 L 123,135 L 127,139 L 129,139 L 131,141 L 139,141 L 140,140 L 142,140 L 144,142 L 143,143 L 143,147 L 144,148 L 144,149 L 145,150 L 145,151 L 146,152 L 146,153 L 151,158 L 152,158 L 153,159 L 157,159 L 158,160 L 160,160 L 161,159 L 165,159 L 166,158 L 167,158 L 168,157 L 169,157 L 171,155 L 175,155 L 176,156 L 176,159 L 175,160 L 176,161 L 176,163 L 177,164 L 177,165 L 179,167 L 179,168 L 182,171 L 183,171 L 185,173 L 189,173 L 190,174 L 194,174 L 195,173 L 198,173 L 200,171 L 201,171 L 203,169 L 203,168 L 206,165 L 206,162 L 207,161 L 207,154 L 206,153 L 206,151 L 207,150 L 210,150 L 211,151 L 214,151 L 215,150 L 217,150 L 218,149 L 220,149 L 221,148 L 222,148 L 226,144 L 226,143 L 228,141 L 228,138 L 229,137 L 229,128 L 228,127 L 228,125 L 225,122 L 225,121 L 226,120 L 230,120 L 231,119 L 232,119 L 233,118 L 234,118 L 235,117 L 237,117 L 240,114 L 240,113 L 242,111 L 242,108 L 243,107 L 243,100 L 242,99 L 242,96 L 240,94 L 240,93 L 238,91 L 237,91 L 236,90 L 235,90 L 234,89 L 233,89 L 232,88 Z" fill="black" /><path d="M 0,0 L 0,214 L 256,214 L 256,0 Z" fill="none" stroke="black" stroke-width="1" /></svg>