<?xml version='1.0' encoding='utf-8'?>
<svg width="257" height="217" xmlns="http://www.w3.org/2000/svg" viewBox="0 0 257 217"><rect width="257" height="217" fill="white" /><path d="M 72,37 L 71,38 L 70,38 L 69,39 L 67,39 L 63,43 L 63,44 L 61,46 L 61,48 L 63,50 L 61,52 L 61,54 L 63,56 L 63,58 L 64,59 L 64,60 L 65,61 L 65,62 L 69,66 L 71,66 L 72,67 L 73,67 L 74,68 L 82,68 L 84,70 L 84,78 L 87,81 L 87,82 L 88,82 L 89,83 L 89,84 L 91,86 L 93,86 L 94,87 L 95,87 L 96,88 L 103,88 L 104,87 L 105,87 L 107,89 L 107,92 L 108,93 L 108,94 L 109,95 L 109,99 L 111,101 L 111,102 L 115,106 L 116,106 L 117,107 L 118,107 L 119,108 L 122,108 L 124,110 L 124,112 L 123,113 L 123,114 L 122,115 L 118,115 L 117,114 L 113,114 L 112,115 L 109,115 L 107,117 L 106,117 L 102,121 L 102,122 L 101,123 L 101,125 L 100,126 L 100,128 L 99,129 L 99,130 L 98,131 L 98,132 L 97,133 L 95,133 L 94,132 L 91,132 L 90,131 L 89,131 L 88,132 L 87,132 L 86,133 L 84,133 L 82,135 L 81,135 L 77,139 L 77,141 L 74,144 L 71,144 L 70,143 L 64,143 L 63,144 L 59,144 L 56,147 L 55,147 L 53,149 L 53,151 L 51,153 L 51,154 L 50,155 L 50,160 L 51,161 L 51,164 L 52,165 L 52,166 L 53,167 L 53,168 L 59,174 L 72,174 L 73,173 L 74,173 L 75,172 L 76,172 L 78,170 L 78,169 L 80,167 L 80,166 L 81,165 L 81,164 L 83,162 L 85,162 L 86,163 L 87,163 L 88,164 L 94,164 L 95,163 L 96,163 L 97,162 L 98,162 L 99,161 L 100,161 L 101,160 L 102,160 L 104,158 L 104,157 L 106,155 L 106,153 L 107,152 L 107,151 L 108,150 L 108,147 L 109,146 L 112,146 L 113,145 L 114,145 L 115,146 L 118,146 L 119,145 L 120,145 L 121,144 L 124,144 L 130,138 L 130,136 L 131,135 L 131,134 L 132,133 L 132,131 L 133,130 L 138,130 L 139,131 L 143,131 L 145,133 L 143,135 L 143,141 L 145,143 L 145,144 L 146,145 L 146,146 L 147,147 L 147,148 L 148,148 L 149,149 L 149,150 L 150,150 L 152,152 L 154,152 L 155,153 L 162,153 L 163,154 L 163,157 L 162,158 L 162,162 L 163,163 L 163,166 L 165,168 L 165,169 L 167,171 L 167,172 L 169,174 L 171,174 L 173,176 L 185,176 L 187,174 L 188,174 L 188,173 L 189,172 L 190,172 L 192,170 L 192,169 L 194,167 L 194,155 L 192,153 L 192,151 L 190,149 L 190,148 L 189,147 L 188,147 L 186,145 L 184,145 L 183,144 L 182,144 L 181,143 L 177,143 L 176,142 L 176,138 L 177,137 L 176,136 L 176,131 L 174,129 L 174,127 L 172,125 L 171,125 L 170,124 L 169,124 L 168,123 L 165,123 L 164,122 L 163,122 L 162,121 L 157,121 L 156,120 L 156,116 L 157,115 L 157,114 L 158,113 L 162,113 L 163,114 L 169,114 L 171,112 L 173,112 L 175,110 L 176,110 L 178,108 L 178,107 L 179,106 L 179,105 L 180,104 L 180,103 L 181,102 L 181,98 L 182,97 L 186,97 L 187,96 L 194,96 L 195,95 L 196,95 L 199,92 L 200,92 L 202,90 L 202,87 L 203,86 L 203,85 L 204,84 L 204,79 L 203,78 L 203,76 L 202,75 L 202,73 L 198,69 L 197,69 L 195,67 L 193,67 L 192,66 L 185,66 L 184,67 L 181,67 L 175,73 L 174,73 L 173,74 L 173,76 L 172,77 L 172,78 L 171,79 L 171,82 L 170,83 L 161,83 L 160,84 L 158,84 L 157,85 L 156,85 L 154,87 L 153,87 L 153,88 L 151,90 L 151,91 L 150,92 L 150,93 L 149,94 L 149,99 L 148,100 L 142,100 L 141,99 L 141,96 L 142,95 L 142,89 L 140,87 L 140,85 L 139,84 L 139,83 L 138,82 L 138,81 L 136,79 L 135,79 L 134,78 L 133,78 L 132,77 L 129,77 L 128,76 L 123,76 L 122,77 L 120,77 L 119,78 L 118,78 L 117,79 L 116,78 L 116,77 L 115,76 L 116,75 L 116,70 L 115,69 L 115,68 L 114,67 L 114,65 L 112,63 L 112,62 L 109,59 L 107,59 L 106,58 L 105,58 L 104,57 L 94,57 L 93,56 L 93,50 L 92,49 L 92,46 L 90,44 L 90,42 L 89,41 L 88,41 L 86,39 L 85,39 L 83,37 Z" fill="black" /><path d="M 0,0 L 0,216 L 256,216 L 256,0 Z" fill="none" stroke="black" stroke-width="1" /></svg>