<?xml version="1.0" encoding="utf-8" ?>
<svg baseProfile="full" height="216" version="1.1" width="256" xmlns="http://www.w3.org/2000/svg" xmlns:ev="http://www.w3.org/2001/xml-events" xmlns:xlink="http://www.w3.org/1999/xlink"><defs /><rect fill="white" height="216" width="256" x="0" y="0" /><circle cx="220.78125" cy="191.4375" fill="none" r="10.92263412475586" stroke="black" stroke-width="1" /><circle cx="193.09622192382812" cy="175.74290466308594" fill="none" r="11.43030071258545" stroke="black" stroke-width="1" /><circle cx="25.735294342041016" cy="171.5" fill="none" r="11.181600570678711" stroke="black" stroke-width="1" /><circle cx="52.8831787109375" cy="155.9766387939453" fill="none" r="11.295418739318848" stroke="black" stroke-width="1" /><circle cx="173.8705596923828" cy="152.34771728515625" fill="none" r="11.374466896057129" stroke="black" stroke-width="1" /><circle cx="79.0" cy="142.0" fill="none" r="11.401854515075684" stroke="black" stroke-width="1" /><circle cx="156.125" cy="129.75" fill="none" r="11.350347518920898" stroke="black" stroke-width="1" /><circle cx="104.5" cy="127.59091186523438" fill="none" r="11.459877014160156" stroke="black" stroke-width="1" /><circle cx="131.24850463867188" cy="113.39820098876953" fill="none" r="11.246068954467773" stroke="black" stroke-width="1" /><path d="M 136,71 L 126,75 L 123,81 L 131,97 L 141,86 Z" fill="none" stroke="black" stroke-width="1" /><circle cx="138.25" cy="55.5" fill="none" r="11.305519104003906" stroke="black" stroke-width="1" /><circle cx="149.08767700195312" cy="28.732227325439453" fill="none" r="10.489262580871582" stroke="black" stroke-width="1" /><path d="M 238,193 L 137,129 L 9,166 L 114,112 L 153,10 L 137,96 Z" fill="none" stroke="black" stroke-width="1" /><path d="M 0,0 L 0,215 L 255,215 L 255,0 Z" fill="none" stroke="black" stroke-width="1" /></svg>