<?xml version='1.0' encoding='utf-8'?>
<svg width="254" height="216" xmlns="http://www.w3.org/2000/svg" viewBox="0 0 254 216"><rect width="254" height="216" fill="white" /><path d="M 188,98 L 186,100 L 184,100 L 184,101 L 183,102 L 182,102 L 181,103 L 181,104 L 180,105 L 180,106 L 178,108 L 177,108 L 177,109 L 176,110 L 176,112 L 177,113 L 176,114 L 176,117 L 178,119 L 178,121 L 180,123 L 180,124 L 181,125 L 182,125 L 184,127 L 185,127 L 186,128 L 187,128 L 188,129 L 189,129 L 190,130 L 192,130 L 193,129 L 195,129 L 198,132 L 196,134 L 196,137 L 197,138 L 197,141 L 198,142 L 198,145 L 202,149 L 203,149 L 205,151 L 209,151 L 210,152 L 214,152 L 215,151 L 218,151 L 220,149 L 221,149 L 225,145 L 225,143 L 226,142 L 226,141 L 227,140 L 227,131 L 225,129 L 225,127 L 223,125 L 223,124 L 222,124 L 221,123 L 220,123 L 219,122 L 218,122 L 217,121 L 209,121 L 207,119 L 207,118 L 208,117 L 208,111 L 207,110 L 207,107 L 205,105 L 205,104 L 201,100 L 200,100 L 199,99 L 198,99 L 197,98 Z" fill="black" /><path d="M 99,70 L 98,71 L 97,71 L 96,72 L 95,72 L 90,77 L 90,79 L 89,80 L 88,80 L 87,81 L 87,82 L 88,83 L 88,87 L 87,88 L 83,88 L 81,86 L 81,85 L 80,84 L 77,84 L 76,83 L 75,83 L 74,82 L 71,82 L 70,83 L 68,83 L 67,84 L 65,84 L 63,86 L 62,86 L 60,88 L 60,89 L 59,90 L 59,91 L 58,92 L 58,93 L 57,94 L 57,96 L 56,97 L 56,99 L 57,100 L 57,101 L 56,102 L 56,103 L 55,104 L 47,104 L 46,105 L 44,105 L 38,111 L 38,113 L 36,115 L 36,124 L 34,126 L 29,126 L 27,128 L 26,128 L 24,130 L 24,131 L 22,133 L 22,135 L 21,136 L 21,137 L 20,138 L 20,144 L 21,145 L 21,146 L 22,147 L 22,149 L 24,151 L 24,152 L 27,155 L 28,155 L 29,156 L 31,156 L 32,157 L 37,157 L 38,156 L 39,156 L 40,155 L 42,155 L 44,153 L 45,153 L 47,151 L 47,150 L 48,149 L 48,148 L 49,147 L 49,142 L 50,141 L 50,139 L 49,138 L 49,136 L 50,135 L 56,135 L 57,134 L 59,134 L 62,131 L 63,131 L 63,130 L 65,128 L 65,127 L 67,125 L 67,119 L 68,118 L 68,116 L 70,114 L 74,114 L 75,113 L 78,113 L 80,111 L 81,111 L 83,109 L 84,109 L 84,108 L 85,107 L 85,106 L 86,105 L 86,104 L 87,103 L 87,102 L 88,101 L 88,97 L 89,96 L 90,96 L 92,98 L 92,99 L 96,103 L 99,103 L 100,104 L 107,104 L 108,103 L 111,103 L 115,99 L 116,99 L 117,98 L 117,97 L 118,96 L 121,96 L 122,97 L 123,97 L 124,98 L 124,99 L 125,99 L 126,100 L 130,100 L 131,101 L 136,101 L 138,99 L 140,99 L 141,98 L 142,98 L 143,97 L 144,97 L 147,94 L 149,94 L 150,95 L 150,101 L 154,105 L 155,105 L 157,107 L 159,107 L 160,108 L 160,109 L 167,109 L 168,108 L 169,108 L 170,107 L 171,107 L 172,106 L 173,106 L 179,100 L 179,98 L 180,97 L 180,96 L 181,95 L 181,92 L 180,91 L 180,89 L 179,88 L 179,85 L 174,80 L 173,80 L 171,78 L 159,78 L 157,80 L 156,80 L 155,81 L 154,81 L 154,82 L 151,85 L 149,83 L 149,80 L 147,78 L 147,76 L 143,72 L 142,72 L 141,71 L 140,71 L 139,70 L 128,70 L 127,71 L 126,71 L 125,72 L 124,72 L 124,73 L 123,74 L 122,74 L 121,75 L 121,76 L 120,77 L 118,77 L 117,76 L 117,75 L 115,73 L 114,73 L 113,72 L 112,72 L 111,71 L 110,71 L 109,70 Z" fill="black" /><path d="M 0,0 L 0,215 L 253,215 L 253,0 Z" fill="none" stroke="black" stroke-width="1" /></svg>