<?xml version='1.0' encoding='utf-8'?>
<svg width="256" height="216" xmlns="http://www.w3.org/2000/svg" viewBox="0 0 256 216"><rect width="256" height="216" fill="white" /><path d="M 145,11 L 143,13 L 142,13 L 141,14 L 140,14 L 139,15 L 138,15 L 136,17 L 136,18 L 135,19 L 134,19 L 134,21 L 133,22 L 133,27 L 132,28 L 132,29 L 133,30 L 133,32 L 134,33 L 134,34 L 136,36 L 136,38 L 135,39 L 134,39 L 133,40 L 131,40 L 130,41 L 128,41 L 124,45 L 124,46 L 123,47 L 123,48 L 122,49 L 122,60 L 124,62 L 124,64 L 125,64 L 126,65 L 127,65 L 128,66 L 128,67 L 129,68 L 128,69 L 124,69 L 120,73 L 120,75 L 118,77 L 118,88 L 120,90 L 121,90 L 122,91 L 122,92 L 124,94 L 125,94 L 126,95 L 126,97 L 125,98 L 123,98 L 116,105 L 116,107 L 115,108 L 115,112 L 114,113 L 109,113 L 108,112 L 107,112 L 106,111 L 105,112 L 103,112 L 102,113 L 98,113 L 96,115 L 95,115 L 91,119 L 91,120 L 90,121 L 90,125 L 88,127 L 84,127 L 82,125 L 74,125 L 72,127 L 69,127 L 67,129 L 67,130 L 64,133 L 64,139 L 63,140 L 63,141 L 62,142 L 60,142 L 59,141 L 48,141 L 47,142 L 46,142 L 45,143 L 44,143 L 38,149 L 38,153 L 36,155 L 36,156 L 35,157 L 33,157 L 31,155 L 28,155 L 27,154 L 24,154 L 23,155 L 21,155 L 20,156 L 18,156 L 17,157 L 16,157 L 12,161 L 12,163 L 11,164 L 11,165 L 10,166 L 10,174 L 11,175 L 11,176 L 12,177 L 12,178 L 13,179 L 13,180 L 14,181 L 14,182 L 15,182 L 17,184 L 19,184 L 20,185 L 20,186 L 31,186 L 32,185 L 33,185 L 34,184 L 35,184 L 37,182 L 37,181 L 39,179 L 39,178 L 41,176 L 41,171 L 42,170 L 48,170 L 49,171 L 53,171 L 54,172 L 56,172 L 57,171 L 58,171 L 59,170 L 61,170 L 65,166 L 65,165 L 67,163 L 67,157 L 69,155 L 71,155 L 72,156 L 74,156 L 75,157 L 76,157 L 77,158 L 79,158 L 80,157 L 83,157 L 84,156 L 86,156 L 88,154 L 89,154 L 91,152 L 91,151 L 93,149 L 93,146 L 94,145 L 94,142 L 95,141 L 97,141 L 98,142 L 101,142 L 102,143 L 107,143 L 108,142 L 111,142 L 113,140 L 115,140 L 117,138 L 117,137 L 118,136 L 118,135 L 120,133 L 120,132 L 121,131 L 121,128 L 122,127 L 125,127 L 126,128 L 137,128 L 139,130 L 139,134 L 140,135 L 140,136 L 143,139 L 143,140 L 144,140 L 146,142 L 147,142 L 148,143 L 148,144 L 154,144 L 155,145 L 158,145 L 159,146 L 159,150 L 158,151 L 159,152 L 159,157 L 160,158 L 160,160 L 166,166 L 167,166 L 168,167 L 170,167 L 171,168 L 173,168 L 174,167 L 175,167 L 176,166 L 177,166 L 178,167 L 178,169 L 176,171 L 176,179 L 177,180 L 177,181 L 178,182 L 178,184 L 179,185 L 179,186 L 183,190 L 184,190 L 186,192 L 197,192 L 198,191 L 199,191 L 201,189 L 202,189 L 203,188 L 205,190 L 205,191 L 204,192 L 204,196 L 206,198 L 206,199 L 210,203 L 211,203 L 212,204 L 213,204 L 215,206 L 217,206 L 218,207 L 223,207 L 224,206 L 228,206 L 230,204 L 231,204 L 231,203 L 232,202 L 233,202 L 233,201 L 235,199 L 235,197 L 236,196 L 236,194 L 237,193 L 237,190 L 236,189 L 236,187 L 235,186 L 235,185 L 233,183 L 233,181 L 231,179 L 230,179 L 229,178 L 228,178 L 227,177 L 225,177 L 224,176 L 222,176 L 221,177 L 220,177 L 219,176 L 215,176 L 214,177 L 213,177 L 212,178 L 210,178 L 209,177 L 209,175 L 208,174 L 208,172 L 207,171 L 207,169 L 206,168 L 206,167 L 201,162 L 200,162 L 199,161 L 197,161 L 196,160 L 190,160 L 189,159 L 189,152 L 190,151 L 190,148 L 189,147 L 189,145 L 187,143 L 187,141 L 185,139 L 184,139 L 182,137 L 180,137 L 179,136 L 178,136 L 177,135 L 172,135 L 171,134 L 171,123 L 169,121 L 169,120 L 168,120 L 165,117 L 164,117 L 162,115 L 160,115 L 159,114 L 154,114 L 153,115 L 152,114 L 148,114 L 146,112 L 146,109 L 145,108 L 145,105 L 141,101 L 141,100 L 140,99 L 138,99 L 137,98 L 137,97 L 136,96 L 138,94 L 141,94 L 141,93 L 142,92 L 143,92 L 145,90 L 145,89 L 147,87 L 147,81 L 146,80 L 146,79 L 145,78 L 145,77 L 144,76 L 144,75 L 142,73 L 142,71 L 144,69 L 145,69 L 146,68 L 147,68 L 151,64 L 151,62 L 152,61 L 152,60 L 153,59 L 153,54 L 154,53 L 153,52 L 153,49 L 151,47 L 151,45 L 154,42 L 157,42 L 163,36 L 163,34 L 164,33 L 164,31 L 165,30 L 165,26 L 164,25 L 164,23 L 163,22 L 163,19 L 161,17 L 161,16 L 158,13 L 157,13 L 156,12 L 154,12 L 153,11 Z" fill="black" /><path d="M 0,0 L 0,215 L 255,215 L 255,0 Z" fill="none" stroke="black" stroke-width="1" /></svg>