<?xml version='1.0' encoding='utf-8'?>
<svg width="258" height="217" xmlns="http://www.w3.org/2000/svg" viewBox="0 0 258 217"><rect width="258" height="217" fill="white" /><path d="M 194,38 L 193,39 L 75,39 L 74,40 L 73,39 L 48,39 L 47,40 L 43,40 L 43,43 L 44,44 L 44,47 L 45,48 L 45,49 L 46,50 L 46,51 L 47,52 L 47,53 L 48,54 L 48,56 L 50,58 L 50,61 L 52,63 L 52,65 L 54,67 L 54,69 L 55,70 L 55,71 L 56,72 L 56,74 L 58,76 L 58,78 L 60,80 L 60,83 L 61,84 L 61,85 L 62,86 L 62,87 L 63,88 L 63,89 L 64,90 L 64,92 L 66,94 L 66,96 L 68,98 L 68,101 L 70,103 L 70,105 L 71,106 L 71,107 L 72,108 L 72,109 L 73,110 L 73,111 L 74,112 L 74,114 L 76,116 L 76,118 L 78,120 L 78,123 L 80,125 L 80,127 L 82,129 L 82,131 L 83,132 L 83,133 L 84,134 L 84,136 L 86,138 L 86,140 L 88,142 L 88,145 L 90,147 L 90,149 L 92,151 L 92,153 L 93,154 L 93,155 L 94,156 L 94,157 L 95,158 L 95,159 L 96,160 L 96,161 L 97,162 L 97,163 L 98,164 L 99,163 L 100,163 L 101,164 L 103,164 L 104,165 L 137,165 L 138,164 L 141,164 L 142,165 L 143,164 L 174,164 L 175,165 L 245,165 L 245,160 L 244,159 L 244,158 L 243,157 L 243,155 L 241,153 L 241,150 L 239,148 L 239,147 L 238,146 L 238,145 L 237,144 L 237,142 L 236,141 L 236,138 L 235,137 L 235,136 L 234,135 L 234,134 L 233,133 L 233,130 L 231,128 L 231,124 L 229,122 L 229,120 L 228,119 L 228,118 L 227,117 L 227,114 L 226,113 L 226,112 L 225,111 L 225,110 L 224,109 L 224,108 L 223,107 L 223,104 L 222,103 L 222,102 L 221,101 L 221,98 L 220,97 L 220,96 L 219,95 L 219,93 L 217,91 L 217,88 L 216,87 L 216,86 L 215,85 L 215,82 L 214,81 L 214,80 L 213,79 L 213,77 L 211,75 L 211,72 L 210,71 L 210,70 L 209,69 L 209,66 L 208,65 L 208,64 L 207,63 L 207,61 L 205,59 L 205,56 L 204,55 L 204,54 L 203,53 L 203,52 L 202,51 L 202,50 L 201,49 L 201,46 L 200,45 L 200,44 L 199,43 L 199,42 L 198,41 L 198,38 Z" fill="black" /><path d="M 0,0 L 0,216 L 257,216 L 257,0 Z" fill="none" stroke="black" stroke-width="1" /></svg>