<?xml version="1.0" encoding="utf-8" ?>
<svg baseProfile="full" height="217" version="1.1" width="257" xmlns="http://www.w3.org/2000/svg" xmlns:ev="http://www.w3.org/2001/xml-events" xmlns:xlink="http://www.w3.org/1999/xlink"><defs /><rect fill="white" height="217" width="257" x="0" y="0" /><path d="M 63,68 L 50,70 L 50,79 L 60,94 Z" fill="none" stroke="black" stroke-width="1" /><path d="M 67,68 L 66,99 L 79,118 L 80,68 Z" fill="none" stroke="black" stroke-width="1" /><path d="M 84,66 L 84,123 L 96,140 L 97,66 Z" fill="none" stroke="black" stroke-width="1" /><path d="M 108,64 L 100,146 L 112,160 Z" fill="none" stroke="black" stroke-width="1" /><path d="M 129,62 L 116,85 L 123,176 Z" fill="none" stroke="black" stroke-width="1" /><path d="M 146,59 L 134,62 L 134,165 L 147,147 Z" fill="none" stroke="black" stroke-width="1" /><path d="M 181,58 L 168,58 L 167,118 L 181,101 Z" fill="none" stroke="black" stroke-width="1" /><path d="M 162,58 L 151,61 L 152,141 L 163,125 Z" fill="none" stroke="black" stroke-width="1" /><path d="M 197,56 L 185,57 L 185,95 L 197,79 Z" fill="none" stroke="black" stroke-width="1" /><path d="M 214,53 L 201,56 L 202,72 Z" fill="none" stroke="black" stroke-width="1" /><path d="M 231,44 L 125,190 L 28,65 Z" fill="none" stroke="black" stroke-width="1" /><path d="M 0,0 L 0,216 L 256,216 L 256,0 Z" fill="none" stroke="black" stroke-width="1" /></svg>