<?xml version='1.0' encoding='utf-8'?>
<svg width="258" height="218" xmlns="http://www.w3.org/2000/svg" viewBox="0 0 258 218"><rect width="258" height="218" fill="white" /><path d="M 127,26 L 126,27 L 126,29 L 124,31 L 124,33 L 122,35 L 122,36 L 121,37 L 121,38 L 120,39 L 120,40 L 118,42 L 118,43 L 117,44 L 117,45 L 116,46 L 116,47 L 114,49 L 114,50 L 112,52 L 112,54 L 110,56 L 110,57 L 109,58 L 109,59 L 108,60 L 108,61 L 106,63 L 106,65 L 105,66 L 105,67 L 104,68 L 104,69 L 102,71 L 102,72 L 101,73 L 101,74 L 100,75 L 100,76 L 98,78 L 98,80 L 96,82 L 96,83 L 95,84 L 95,85 L 94,86 L 94,87 L 93,88 L 93,89 L 92,90 L 92,91 L 90,93 L 90,95 L 88,97 L 88,99 L 87,100 L 86,100 L 86,102 L 84,104 L 84,105 L 83,106 L 83,107 L 82,108 L 82,109 L 81,110 L 81,111 L 80,112 L 80,113 L 78,115 L 78,117 L 76,119 L 76,121 L 75,122 L 74,122 L 74,125 L 73,126 L 72,126 L 72,129 L 71,130 L 70,130 L 70,132 L 68,134 L 68,136 L 66,138 L 66,140 L 64,142 L 64,143 L 63,144 L 63,145 L 62,146 L 62,147 L 61,148 L 61,149 L 60,150 L 60,151 L 58,153 L 58,155 L 57,156 L 56,156 L 56,159 L 55,160 L 54,160 L 54,162 L 52,164 L 52,165 L 51,166 L 51,167 L 50,168 L 50,169 L 49,170 L 49,171 L 48,172 L 48,173 L 46,175 L 46,177 L 44,179 L 44,180 L 43,181 L 42,181 L 40,183 L 41,184 L 45,184 L 46,183 L 51,183 L 52,182 L 57,182 L 58,181 L 63,181 L 64,180 L 67,180 L 68,179 L 75,179 L 76,178 L 79,178 L 80,177 L 88,177 L 89,176 L 91,176 L 92,175 L 99,175 L 100,174 L 103,174 L 104,173 L 111,173 L 112,172 L 114,172 L 115,171 L 121,171 L 122,170 L 123,171 L 125,171 L 127,169 L 133,169 L 134,168 L 138,168 L 139,167 L 146,167 L 147,166 L 149,166 L 150,165 L 157,165 L 158,164 L 161,164 L 162,163 L 169,163 L 170,162 L 173,162 L 174,161 L 181,161 L 182,160 L 183,160 L 184,159 L 194,159 L 195,158 L 197,158 L 198,157 L 207,157 L 208,156 L 210,156 L 211,155 L 219,155 L 220,154 L 222,154 L 223,153 L 223,152 L 221,150 L 221,149 L 219,147 L 219,146 L 216,143 L 216,142 L 215,141 L 215,140 L 213,138 L 213,137 L 211,135 L 211,134 L 210,134 L 209,133 L 209,132 L 208,131 L 208,130 L 205,127 L 205,126 L 204,126 L 203,125 L 203,124 L 202,123 L 202,122 L 199,119 L 199,118 L 198,118 L 197,117 L 197,116 L 195,114 L 195,113 L 193,111 L 193,110 L 192,110 L 191,109 L 191,108 L 188,105 L 188,104 L 185,101 L 185,100 L 181,96 L 181,95 L 179,93 L 179,92 L 178,92 L 177,91 L 177,90 L 175,88 L 175,87 L 171,83 L 171,82 L 169,80 L 169,79 L 167,77 L 167,76 L 166,76 L 165,75 L 165,74 L 162,71 L 162,70 L 159,67 L 159,66 L 158,66 L 157,65 L 157,64 L 156,63 L 156,62 L 155,61 L 155,60 L 154,60 L 153,59 L 153,58 L 152,58 L 151,57 L 151,56 L 149,54 L 149,53 L 147,51 L 147,50 L 146,50 L 145,49 L 145,48 L 143,46 L 143,45 L 141,43 L 141,42 L 140,42 L 139,41 L 139,40 L 137,38 L 137,37 L 135,35 L 135,34 L 134,34 L 133,33 L 133,32 L 132,32 L 131,31 L 131,30 L 130,30 L 129,29 L 129,27 L 128,27 Z" fill="black" /><path d="M 0,0 L 0,217 L 257,217 L 257,0 Z" fill="none" stroke="black" stroke-width="1" /></svg>