<?xml version='1.0' encoding='utf-8'?>
<svg width="260" height="217" xmlns="http://www.w3.org/2000/svg" viewBox="0 0 260 217"><rect width="260" height="217" fill="white" /><path d="M 57,29 L 57,33 L 58,34 L 58,48 L 57,49 L 57,66 L 56,67 L 56,82 L 55,83 L 55,96 L 54,97 L 54,132 L 53,133 L 53,152 L 52,153 L 52,177 L 51,178 L 51,193 L 50,194 L 50,208 L 49,209 L 50,210 L 52,210 L 54,208 L 56,208 L 57,207 L 58,207 L 60,205 L 61,205 L 62,204 L 63,204 L 64,203 L 65,203 L 65,202 L 66,201 L 68,201 L 70,199 L 71,199 L 73,197 L 74,197 L 76,195 L 77,195 L 78,194 L 79,194 L 80,193 L 81,193 L 83,191 L 85,191 L 85,190 L 86,189 L 88,189 L 90,187 L 91,187 L 91,186 L 92,185 L 94,185 L 96,183 L 97,183 L 98,182 L 99,182 L 100,181 L 101,181 L 103,179 L 104,179 L 106,177 L 107,177 L 108,176 L 109,176 L 110,175 L 111,175 L 111,174 L 112,173 L 114,173 L 116,171 L 117,171 L 118,170 L 119,170 L 120,169 L 121,169 L 123,167 L 124,167 L 126,165 L 127,165 L 128,164 L 129,164 L 130,163 L 131,163 L 131,162 L 132,161 L 134,161 L 136,159 L 137,159 L 139,157 L 140,157 L 142,155 L 143,155 L 145,153 L 146,153 L 148,151 L 149,151 L 150,150 L 151,150 L 152,149 L 153,149 L 155,147 L 156,147 L 158,145 L 159,145 L 161,143 L 162,143 L 164,141 L 165,141 L 167,139 L 168,139 L 170,137 L 171,137 L 173,135 L 174,135 L 176,133 L 177,133 L 178,132 L 179,132 L 180,131 L 181,131 L 183,129 L 185,129 L 185,128 L 186,127 L 188,127 L 190,125 L 191,125 L 193,123 L 194,123 L 195,122 L 196,122 L 198,120 L 196,118 L 195,118 L 193,116 L 192,116 L 190,114 L 189,114 L 187,112 L 186,112 L 184,110 L 182,110 L 181,109 L 181,108 L 179,108 L 177,106 L 176,106 L 175,105 L 175,104 L 174,104 L 173,103 L 172,103 L 171,102 L 170,102 L 168,100 L 167,100 L 165,98 L 164,98 L 163,97 L 163,96 L 161,96 L 159,94 L 158,94 L 156,92 L 155,92 L 153,90 L 152,90 L 150,88 L 149,88 L 147,86 L 146,86 L 144,84 L 143,84 L 141,82 L 140,82 L 138,80 L 136,80 L 134,78 L 133,78 L 131,76 L 130,76 L 129,75 L 129,74 L 127,74 L 125,72 L 124,72 L 122,70 L 121,70 L 119,68 L 118,68 L 116,66 L 115,66 L 113,64 L 112,64 L 110,62 L 108,62 L 107,61 L 107,60 L 105,60 L 103,58 L 102,58 L 100,56 L 99,56 L 97,54 L 96,54 L 94,52 L 93,52 L 91,50 L 90,50 L 88,48 L 86,48 L 85,47 L 85,46 L 83,46 L 81,44 L 80,44 L 79,43 L 79,42 L 77,42 L 75,40 L 74,40 L 72,38 L 71,38 L 69,36 L 68,36 L 66,34 L 65,34 L 64,33 L 63,33 L 60,30 L 60,29 Z" fill="black" /><path d="M 0,0 L 0,216 L 259,216 L 259,0 Z" fill="none" stroke="black" stroke-width="1" /></svg>