<?xml version='1.0' encoding='utf-8'?>
<svg width="259" height="217" xmlns="http://www.w3.org/2000/svg" viewBox="0 0 259 217"><rect width="259" height="217" fill="white" /><path d="M 129,122 L 128,123 L 128,126 L 127,127 L 128,128 L 128,180 L 127,181 L 127,184 L 128,185 L 129,185 L 130,184 L 130,140 L 131,139 L 131,130 L 130,129 L 130,127 L 131,126 L 131,123 L 130,122 Z" fill="black" /><path d="M 118,122 L 117,123 L 117,195 L 118,196 L 119,195 L 119,181 L 120,180 L 120,123 L 119,122 Z" fill="black" /><path d="M 140,119 L 139,120 L 139,159 L 138,160 L 138,163 L 139,164 L 139,174 L 138,175 L 139,176 L 139,177 L 141,177 L 141,176 L 142,175 L 141,174 L 141,152 L 142,151 L 142,144 L 141,143 L 141,136 L 142,135 L 142,121 Z" fill="black" /><path d="M 108,119 L 107,120 L 107,129 L 108,130 L 107,131 L 107,141 L 106,142 L 106,145 L 107,146 L 107,156 L 106,157 L 106,161 L 107,162 L 107,168 L 106,169 L 106,171 L 107,172 L 107,178 L 106,179 L 106,180 L 107,181 L 107,182 L 106,183 L 106,200 L 105,201 L 105,204 L 106,205 L 107,205 L 108,204 L 108,202 L 109,201 L 108,200 L 108,199 L 107,198 L 108,197 L 108,187 L 109,186 L 109,161 L 108,160 L 108,157 L 109,156 L 109,152 L 108,151 L 109,150 L 109,124 L 110,123 L 109,122 L 109,120 Z" fill="black" /><path d="M 96,118 L 96,125 L 95,126 L 95,128 L 96,129 L 96,134 L 95,135 L 95,190 L 96,191 L 97,191 L 98,190 L 98,141 L 97,140 L 98,139 L 98,126 L 99,125 L 98,124 L 98,119 L 97,118 Z" fill="black" /><path d="M 151,116 L 149,118 L 149,156 L 148,157 L 148,161 L 149,162 L 149,167 L 150,168 L 151,168 L 152,167 L 152,165 L 151,164 L 151,126 L 152,125 L 152,117 Z" fill="black" /><path d="M 162,114 L 160,116 L 160,148 L 161,149 L 161,150 L 160,151 L 160,153 L 159,154 L 159,156 L 160,157 L 161,157 L 162,156 L 162,154 L 163,153 L 163,149 L 162,148 L 162,142 L 163,141 L 163,115 Z" fill="black" /><path d="M 86,112 L 85,113 L 85,163 L 84,164 L 85,165 L 85,176 L 87,176 L 88,175 L 88,167 L 87,166 L 87,162 L 88,161 L 88,114 Z" fill="black" /><path d="M 182,110 L 181,111 L 181,119 L 182,120 L 182,123 L 181,124 L 181,139 L 183,141 L 184,140 L 184,111 L 183,110 Z" fill="black" /><path d="M 172,110 L 171,111 L 171,135 L 172,136 L 171,137 L 171,138 L 170,139 L 170,141 L 171,142 L 171,148 L 172,149 L 174,147 L 174,144 L 173,143 L 173,137 L 174,136 L 174,111 L 173,110 Z" fill="black" /><path d="M 74,110 L 73,111 L 73,114 L 74,115 L 74,120 L 73,121 L 73,131 L 74,132 L 74,136 L 73,137 L 73,154 L 74,155 L 74,156 L 73,157 L 73,160 L 74,161 L 76,161 L 77,160 L 76,159 L 76,139 L 75,138 L 75,137 L 76,136 L 76,135 L 77,134 L 76,133 L 76,117 L 77,116 L 77,115 L 76,114 L 76,111 L 75,110 Z" fill="black" /><path d="M 65,106 L 63,108 L 63,146 L 65,148 L 66,147 L 66,107 Z" fill="black" /><path d="M 193,105 L 192,106 L 192,108 L 191,109 L 192,110 L 192,111 L 193,112 L 193,114 L 192,115 L 192,129 L 194,131 L 195,131 L 196,130 L 196,128 L 195,127 L 195,123 L 194,122 L 194,116 L 195,115 L 195,114 L 194,113 L 195,112 L 195,106 L 194,105 Z" fill="black" /><path d="M 53,105 L 53,106 L 52,107 L 52,109 L 53,110 L 52,111 L 52,131 L 51,132 L 52,133 L 52,134 L 55,134 L 55,132 L 54,131 L 54,121 L 55,120 L 55,118 L 54,117 L 54,111 L 55,110 L 55,108 L 56,107 L 55,106 L 55,105 Z" fill="black" /><path d="M 203,102 L 202,103 L 202,105 L 203,106 L 203,110 L 202,111 L 202,113 L 203,114 L 203,115 L 202,116 L 202,120 L 203,121 L 203,122 L 204,123 L 205,123 L 206,122 L 206,121 L 205,120 L 205,106 L 206,105 L 205,104 L 205,103 L 204,102 Z" fill="black" /><path d="M 42,102 L 41,103 L 41,120 L 42,121 L 43,121 L 44,120 L 44,103 L 43,102 Z" fill="black" /><path d="M 30,99 L 30,100 L 29,101 L 30,102 L 30,103 L 29,104 L 29,106 L 30,107 L 32,107 L 33,106 L 33,104 L 32,103 L 32,102 L 33,101 L 32,100 L 32,99 Z" fill="black" /><path d="M 214,98 L 213,99 L 213,102 L 214,103 L 214,110 L 213,111 L 213,113 L 214,114 L 215,114 L 216,113 L 216,112 L 217,111 L 216,110 L 216,99 L 215,98 Z" fill="black" /><path d="M 225,96 L 224,97 L 224,99 L 223,100 L 223,103 L 225,105 L 226,105 L 227,104 L 227,97 L 226,97 Z" fill="black" /><path d="M 0,0 L 0,216 L 258,216 L 258,0 Z" fill="none" stroke="black" stroke-width="1" /></svg>