<?xml version='1.0' encoding='utf-8'?>
<svg width="260" height="220" xmlns="http://www.w3.org/2000/svg" viewBox="0 0 260 220"><rect width="260" height="220" fill="white" /><path d="M 232,51 L 231,52 L 231,53 L 230,54 L 230,55 L 228,57 L 228,58 L 227,59 L 227,60 L 226,61 L 226,62 L 224,64 L 224,65 L 221,68 L 221,69 L 219,71 L 219,73 L 217,75 L 217,76 L 214,79 L 214,81 L 212,83 L 212,84 L 211,85 L 211,86 L 210,87 L 210,88 L 207,91 L 207,92 L 205,94 L 205,95 L 204,96 L 204,97 L 203,98 L 203,100 L 202,101 L 202,102 L 201,103 L 200,103 L 200,104 L 199,105 L 199,106 L 196,109 L 196,110 L 195,111 L 195,112 L 194,113 L 194,114 L 191,117 L 191,118 L 189,120 L 189,122 L 186,125 L 186,126 L 185,127 L 185,128 L 184,129 L 184,130 L 181,133 L 181,135 L 177,139 L 177,142 L 174,145 L 174,146 L 172,148 L 172,149 L 171,150 L 171,151 L 169,153 L 169,154 L 168,155 L 168,156 L 167,157 L 167,158 L 164,161 L 164,162 L 163,163 L 163,164 L 162,165 L 162,166 L 159,169 L 159,170 L 158,171 L 158,172 L 157,173 L 157,174 L 154,177 L 154,178 L 153,179 L 153,180 L 151,182 L 151,184 L 147,188 L 147,190 L 145,192 L 145,194 L 147,194 L 150,191 L 150,190 L 152,188 L 152,186 L 153,185 L 153,184 L 156,181 L 156,180 L 157,179 L 157,178 L 159,176 L 159,175 L 160,174 L 160,173 L 163,170 L 163,169 L 164,168 L 164,167 L 165,166 L 165,165 L 168,162 L 168,161 L 169,160 L 169,159 L 170,158 L 170,157 L 172,155 L 172,154 L 173,153 L 173,152 L 175,150 L 175,149 L 177,147 L 177,146 L 179,144 L 179,143 L 180,142 L 180,141 L 181,140 L 181,139 L 182,138 L 182,137 L 184,135 L 184,134 L 186,132 L 186,131 L 188,129 L 188,128 L 189,127 L 189,126 L 190,125 L 190,124 L 193,121 L 193,120 L 194,119 L 194,118 L 196,116 L 196,115 L 198,113 L 198,112 L 199,111 L 199,110 L 201,108 L 201,107 L 202,106 L 202,105 L 204,103 L 204,102 L 205,101 L 205,100 L 208,97 L 208,94 L 212,90 L 212,89 L 213,88 L 213,87 L 215,85 L 215,84 L 217,82 L 217,80 L 221,76 L 221,75 L 222,74 L 222,72 L 224,70 L 224,69 L 227,66 L 227,65 L 228,64 L 228,63 L 229,62 L 229,61 L 232,58 L 232,56 L 234,54 L 234,53 L 235,52 L 234,51 Z" fill="black" /><path d="M 221,49 L 220,50 L 220,51 L 219,52 L 219,53 L 218,54 L 218,55 L 214,59 L 214,61 L 213,62 L 213,63 L 211,65 L 211,66 L 209,68 L 209,69 L 207,71 L 207,72 L 205,74 L 205,76 L 204,77 L 204,78 L 202,80 L 202,81 L 198,85 L 198,87 L 195,90 L 195,91 L 194,92 L 194,93 L 193,94 L 193,96 L 191,98 L 191,99 L 190,100 L 190,101 L 188,103 L 188,104 L 185,107 L 185,108 L 184,109 L 184,110 L 182,112 L 182,113 L 180,115 L 180,116 L 178,118 L 178,119 L 176,121 L 176,122 L 175,123 L 175,124 L 174,125 L 174,126 L 172,128 L 172,129 L 170,131 L 170,132 L 169,133 L 169,134 L 166,137 L 166,138 L 165,139 L 165,140 L 164,141 L 164,142 L 162,144 L 162,145 L 160,147 L 160,148 L 159,149 L 159,150 L 156,153 L 156,154 L 155,155 L 155,156 L 153,158 L 153,159 L 152,160 L 152,161 L 151,162 L 151,163 L 148,166 L 148,167 L 146,169 L 146,170 L 144,172 L 144,173 L 143,174 L 143,175 L 142,176 L 142,177 L 139,180 L 139,182 L 138,183 L 138,184 L 137,185 L 138,186 L 140,186 L 140,185 L 141,184 L 141,183 L 142,182 L 142,181 L 143,180 L 143,179 L 144,178 L 144,177 L 147,174 L 147,173 L 148,172 L 148,171 L 151,168 L 151,167 L 153,165 L 153,164 L 156,161 L 156,159 L 158,157 L 158,156 L 159,155 L 159,154 L 161,152 L 161,151 L 162,150 L 162,149 L 164,147 L 164,146 L 165,145 L 165,144 L 167,142 L 167,141 L 168,140 L 168,139 L 171,136 L 171,135 L 173,133 L 173,132 L 174,131 L 174,130 L 175,129 L 175,128 L 177,126 L 177,125 L 178,124 L 178,123 L 181,120 L 181,119 L 182,118 L 182,117 L 184,115 L 184,114 L 185,113 L 185,112 L 189,108 L 189,107 L 190,106 L 190,105 L 191,104 L 191,103 L 193,101 L 193,100 L 195,98 L 195,97 L 196,96 L 196,95 L 198,93 L 198,91 L 200,89 L 200,88 L 201,87 L 201,86 L 205,82 L 205,81 L 206,80 L 206,79 L 207,78 L 207,77 L 209,75 L 209,74 L 210,73 L 210,72 L 212,70 L 212,69 L 214,67 L 214,66 L 215,65 L 215,64 L 216,63 L 216,62 L 218,60 L 218,59 L 219,58 L 219,57 L 220,56 L 220,55 L 223,52 L 223,50 L 222,49 Z" fill="black" /><path d="M 148,49 L 146,51 L 146,52 L 145,53 L 145,54 L 144,55 L 144,56 L 142,58 L 142,59 L 141,60 L 141,61 L 140,62 L 140,63 L 138,65 L 138,66 L 137,67 L 137,68 L 136,69 L 136,70 L 135,71 L 134,71 L 133,72 L 133,74 L 132,75 L 132,77 L 128,81 L 128,82 L 126,84 L 126,85 L 125,86 L 125,87 L 124,88 L 124,89 L 122,91 L 122,92 L 120,94 L 120,95 L 118,97 L 118,98 L 117,99 L 117,100 L 116,101 L 116,102 L 113,105 L 113,106 L 112,107 L 112,108 L 110,110 L 110,111 L 108,113 L 108,114 L 107,115 L 107,116 L 105,118 L 105,119 L 104,120 L 104,121 L 102,123 L 102,124 L 101,125 L 100,125 L 100,126 L 99,127 L 99,128 L 100,129 L 101,129 L 102,128 L 103,128 L 103,127 L 105,125 L 105,124 L 107,122 L 107,120 L 110,117 L 110,116 L 111,115 L 111,114 L 113,112 L 113,111 L 114,110 L 114,109 L 117,106 L 117,105 L 118,104 L 118,103 L 119,102 L 119,101 L 121,99 L 121,98 L 123,96 L 123,95 L 124,94 L 124,93 L 125,92 L 125,91 L 127,89 L 127,88 L 129,86 L 129,85 L 130,84 L 130,83 L 133,80 L 133,79 L 134,78 L 134,77 L 135,76 L 135,75 L 136,74 L 136,73 L 138,71 L 138,70 L 139,69 L 139,68 L 142,65 L 142,64 L 143,63 L 143,62 L 144,61 L 144,60 L 145,59 L 145,58 L 147,56 L 147,55 L 150,52 L 150,50 L 149,49 Z" fill="black" /><path d="M 125,49 L 124,50 L 123,50 L 123,52 L 121,54 L 121,55 L 120,56 L 120,57 L 119,58 L 119,59 L 117,61 L 117,62 L 116,63 L 116,64 L 115,65 L 115,66 L 113,68 L 113,69 L 111,71 L 111,72 L 110,73 L 110,74 L 109,75 L 109,76 L 104,81 L 104,82 L 103,83 L 103,84 L 102,85 L 102,86 L 101,87 L 101,88 L 98,91 L 98,92 L 97,93 L 97,94 L 95,96 L 95,97 L 93,99 L 93,100 L 90,103 L 90,104 L 89,105 L 89,106 L 88,107 L 88,108 L 87,109 L 88,110 L 89,110 L 90,109 L 91,109 L 91,108 L 93,106 L 93,105 L 94,104 L 94,103 L 95,102 L 95,101 L 96,100 L 96,99 L 99,96 L 99,95 L 101,93 L 101,92 L 103,90 L 103,89 L 104,88 L 104,87 L 105,86 L 105,85 L 106,84 L 106,83 L 110,79 L 110,78 L 111,77 L 111,76 L 113,74 L 113,73 L 114,72 L 114,71 L 117,68 L 117,67 L 118,66 L 118,65 L 120,63 L 120,61 L 123,58 L 123,56 L 126,53 L 126,52 L 127,51 L 127,49 Z" fill="black" /><path d="M 159,48 L 159,49 L 157,51 L 157,54 L 154,57 L 154,58 L 152,60 L 152,61 L 151,62 L 151,63 L 149,65 L 149,67 L 147,69 L 147,70 L 144,73 L 144,74 L 143,75 L 143,76 L 140,79 L 140,80 L 139,81 L 139,82 L 137,84 L 137,86 L 134,89 L 134,90 L 133,91 L 133,92 L 132,93 L 132,94 L 129,97 L 129,98 L 127,100 L 127,102 L 124,105 L 124,106 L 123,107 L 123,108 L 122,109 L 122,110 L 119,113 L 119,114 L 118,115 L 118,116 L 117,117 L 117,118 L 114,121 L 114,122 L 113,123 L 113,124 L 111,126 L 111,127 L 110,128 L 110,129 L 109,130 L 109,131 L 107,133 L 106,133 L 105,134 L 105,136 L 108,136 L 109,135 L 110,135 L 110,134 L 111,133 L 111,132 L 112,131 L 112,130 L 114,128 L 114,127 L 116,125 L 116,123 L 120,119 L 120,117 L 122,115 L 122,114 L 123,113 L 123,112 L 126,109 L 126,107 L 128,105 L 128,104 L 130,102 L 130,101 L 131,100 L 131,99 L 133,97 L 133,96 L 135,94 L 135,93 L 136,92 L 136,91 L 139,88 L 139,87 L 140,86 L 140,85 L 141,84 L 141,83 L 142,82 L 142,81 L 144,79 L 144,78 L 147,75 L 147,74 L 148,73 L 148,72 L 150,70 L 150,69 L 152,67 L 152,66 L 153,65 L 153,64 L 155,62 L 155,61 L 157,59 L 157,58 L 159,56 L 159,55 L 160,54 L 160,52 L 161,51 L 161,50 L 162,49 L 161,48 Z" fill="black" /><path d="M 208,47 L 208,48 L 207,49 L 207,50 L 206,51 L 206,52 L 204,54 L 204,55 L 203,56 L 203,57 L 201,59 L 201,61 L 199,63 L 199,64 L 197,66 L 197,67 L 196,68 L 196,69 L 193,72 L 193,74 L 190,77 L 190,79 L 186,83 L 186,84 L 185,85 L 185,86 L 184,87 L 184,88 L 181,91 L 181,93 L 179,95 L 179,96 L 177,98 L 177,99 L 176,100 L 176,101 L 173,104 L 173,105 L 172,106 L 172,107 L 171,108 L 171,109 L 169,111 L 169,112 L 166,115 L 166,116 L 165,117 L 165,118 L 163,120 L 163,122 L 162,123 L 162,124 L 160,126 L 160,127 L 158,129 L 158,130 L 157,131 L 157,132 L 154,135 L 154,136 L 153,137 L 153,139 L 150,142 L 150,143 L 149,144 L 149,145 L 148,146 L 148,147 L 146,149 L 146,150 L 143,153 L 143,154 L 141,156 L 141,158 L 138,161 L 138,162 L 137,163 L 137,164 L 135,166 L 135,168 L 132,171 L 132,172 L 131,173 L 131,175 L 133,175 L 136,172 L 136,170 L 137,169 L 137,168 L 139,166 L 139,165 L 140,164 L 140,163 L 143,160 L 143,159 L 144,158 L 144,157 L 147,154 L 147,153 L 148,152 L 148,151 L 150,149 L 150,147 L 151,146 L 151,145 L 156,140 L 156,138 L 157,137 L 157,136 L 160,133 L 160,131 L 161,130 L 161,129 L 163,127 L 163,126 L 165,124 L 165,123 L 166,122 L 166,121 L 167,120 L 167,119 L 169,117 L 169,116 L 172,113 L 172,112 L 173,111 L 173,110 L 174,109 L 174,108 L 176,106 L 176,105 L 179,102 L 179,101 L 180,100 L 180,98 L 183,95 L 183,94 L 184,93 L 184,92 L 185,91 L 185,90 L 188,87 L 188,86 L 189,85 L 189,84 L 193,80 L 193,79 L 194,78 L 194,77 L 196,75 L 196,73 L 200,69 L 200,67 L 201,66 L 201,65 L 202,64 L 202,63 L 204,61 L 204,60 L 206,58 L 206,56 L 208,54 L 208,53 L 210,51 L 210,50 L 211,49 L 211,48 L 210,47 Z" fill="black" /><path d="M 198,47 L 197,48 L 196,48 L 195,49 L 195,51 L 194,52 L 194,53 L 193,54 L 193,56 L 190,59 L 190,60 L 189,61 L 189,62 L 188,63 L 188,64 L 186,66 L 186,67 L 185,68 L 185,69 L 184,70 L 183,70 L 183,72 L 182,73 L 182,74 L 181,75 L 181,76 L 178,79 L 178,80 L 177,81 L 177,82 L 174,85 L 174,86 L 172,88 L 172,89 L 171,90 L 171,91 L 170,92 L 170,93 L 168,95 L 168,96 L 165,99 L 165,100 L 164,101 L 164,102 L 163,103 L 163,104 L 162,105 L 162,106 L 158,110 L 158,111 L 157,112 L 157,113 L 156,114 L 156,116 L 155,117 L 155,118 L 154,119 L 153,119 L 153,122 L 149,126 L 149,127 L 148,128 L 148,129 L 146,131 L 146,132 L 143,135 L 143,137 L 142,138 L 142,139 L 140,141 L 140,142 L 139,143 L 139,144 L 136,147 L 136,148 L 134,150 L 134,151 L 132,153 L 132,154 L 131,155 L 131,156 L 129,158 L 129,159 L 126,162 L 126,164 L 125,165 L 125,167 L 128,167 L 128,165 L 129,164 L 129,163 L 132,160 L 132,158 L 133,157 L 133,156 L 137,152 L 137,151 L 138,150 L 138,149 L 140,147 L 140,146 L 141,145 L 141,144 L 143,142 L 143,141 L 145,139 L 145,138 L 147,136 L 147,135 L 148,134 L 148,133 L 149,132 L 149,131 L 151,129 L 151,128 L 153,126 L 153,125 L 154,124 L 154,123 L 156,121 L 156,120 L 157,119 L 157,118 L 159,116 L 159,115 L 160,114 L 160,113 L 162,111 L 162,110 L 163,109 L 163,108 L 165,106 L 165,105 L 167,103 L 167,102 L 168,101 L 168,100 L 170,98 L 170,97 L 172,95 L 172,94 L 173,93 L 173,92 L 175,90 L 175,89 L 176,88 L 176,87 L 178,85 L 178,84 L 179,83 L 179,82 L 182,79 L 182,78 L 184,76 L 184,75 L 185,74 L 185,73 L 186,72 L 186,71 L 189,68 L 189,67 L 190,66 L 190,65 L 193,62 L 193,60 L 194,59 L 194,58 L 196,56 L 196,54 L 198,52 L 198,51 L 199,50 L 199,49 L 200,48 L 199,47 Z" fill="black" /><path d="M 185,47 L 183,49 L 183,50 L 182,51 L 182,52 L 181,53 L 181,55 L 180,56 L 180,57 L 176,61 L 176,62 L 175,63 L 175,65 L 174,66 L 174,67 L 170,71 L 170,72 L 169,73 L 169,75 L 165,79 L 165,80 L 164,81 L 164,83 L 161,86 L 161,87 L 159,89 L 159,90 L 157,92 L 157,94 L 154,97 L 154,98 L 153,99 L 153,100 L 151,102 L 151,103 L 150,104 L 150,105 L 148,107 L 148,108 L 146,110 L 146,111 L 144,113 L 144,114 L 143,115 L 143,116 L 142,117 L 142,118 L 140,120 L 140,121 L 137,124 L 137,125 L 136,126 L 136,127 L 135,128 L 135,129 L 134,130 L 134,131 L 131,134 L 131,136 L 128,139 L 128,140 L 127,141 L 127,142 L 123,146 L 123,148 L 120,151 L 120,152 L 119,153 L 119,154 L 118,155 L 118,157 L 119,158 L 120,158 L 120,157 L 122,155 L 122,154 L 123,153 L 123,152 L 125,150 L 125,149 L 128,146 L 128,145 L 129,144 L 129,143 L 130,142 L 130,141 L 132,139 L 132,138 L 133,137 L 133,136 L 135,134 L 135,133 L 137,131 L 137,130 L 139,128 L 139,127 L 141,125 L 141,124 L 142,123 L 142,122 L 143,121 L 143,120 L 146,117 L 146,116 L 147,115 L 147,114 L 149,112 L 149,111 L 150,110 L 150,109 L 151,108 L 151,107 L 152,106 L 152,105 L 153,104 L 154,104 L 154,103 L 155,102 L 155,101 L 156,100 L 156,99 L 158,97 L 158,96 L 160,94 L 160,93 L 161,92 L 161,91 L 163,89 L 163,88 L 164,87 L 164,85 L 167,82 L 167,81 L 170,78 L 170,77 L 171,76 L 171,75 L 173,73 L 173,72 L 176,69 L 176,67 L 177,66 L 177,65 L 179,63 L 179,62 L 181,60 L 181,59 L 183,57 L 183,56 L 185,54 L 185,53 L 186,52 L 186,51 L 187,50 L 187,48 L 186,47 Z" fill="black" /><path d="M 173,47 L 172,48 L 172,49 L 169,52 L 169,54 L 168,55 L 168,56 L 167,57 L 167,58 L 165,60 L 164,60 L 163,61 L 163,64 L 162,65 L 162,66 L 159,69 L 159,70 L 157,72 L 157,74 L 154,77 L 154,78 L 153,79 L 153,80 L 151,82 L 151,83 L 150,84 L 150,85 L 148,87 L 148,88 L 146,90 L 146,91 L 142,95 L 142,96 L 141,97 L 141,98 L 140,99 L 140,100 L 139,101 L 139,102 L 138,103 L 138,104 L 137,105 L 137,106 L 134,109 L 134,110 L 133,111 L 133,112 L 132,113 L 132,114 L 130,116 L 130,117 L 128,119 L 128,120 L 127,121 L 127,122 L 125,124 L 125,126 L 122,129 L 122,130 L 121,131 L 121,132 L 119,134 L 119,135 L 117,137 L 117,138 L 114,141 L 114,142 L 113,143 L 113,144 L 112,145 L 113,146 L 115,146 L 116,145 L 116,143 L 117,142 L 117,141 L 118,140 L 119,140 L 119,139 L 120,138 L 120,137 L 122,135 L 122,134 L 123,133 L 123,132 L 126,129 L 126,128 L 127,127 L 127,126 L 129,124 L 129,123 L 131,121 L 131,120 L 132,119 L 132,118 L 133,117 L 133,116 L 136,113 L 136,112 L 137,111 L 137,110 L 139,108 L 139,107 L 140,106 L 140,105 L 141,104 L 141,103 L 142,102 L 142,101 L 143,100 L 143,99 L 147,95 L 147,94 L 149,92 L 149,91 L 150,90 L 150,89 L 151,88 L 151,87 L 154,84 L 154,82 L 156,80 L 156,79 L 157,78 L 157,77 L 160,74 L 160,73 L 161,72 L 161,71 L 162,70 L 162,69 L 163,68 L 164,68 L 164,67 L 165,66 L 165,64 L 166,63 L 166,62 L 170,58 L 170,57 L 171,56 L 171,55 L 172,54 L 172,53 L 174,51 L 174,48 Z" fill="black" /><path d="M 137,47 L 134,50 L 133,50 L 133,54 L 132,55 L 132,56 L 129,59 L 129,60 L 128,61 L 128,62 L 126,64 L 126,65 L 125,66 L 125,67 L 124,68 L 124,69 L 121,72 L 121,73 L 120,74 L 120,75 L 118,77 L 118,78 L 117,79 L 117,80 L 115,82 L 115,83 L 113,85 L 113,86 L 111,88 L 111,89 L 109,91 L 109,92 L 108,93 L 108,94 L 107,95 L 107,96 L 105,98 L 105,99 L 104,100 L 104,101 L 102,103 L 102,104 L 100,106 L 100,107 L 98,109 L 98,110 L 96,112 L 96,113 L 92,117 L 94,119 L 95,118 L 96,118 L 97,117 L 97,116 L 98,115 L 98,114 L 99,113 L 99,112 L 102,109 L 102,108 L 103,107 L 103,106 L 106,103 L 106,101 L 109,98 L 109,97 L 110,96 L 110,95 L 112,93 L 112,91 L 114,89 L 114,88 L 116,86 L 116,85 L 119,82 L 119,81 L 121,79 L 121,78 L 123,76 L 123,75 L 124,74 L 124,73 L 125,72 L 125,71 L 126,70 L 126,69 L 128,67 L 128,66 L 129,65 L 129,64 L 132,61 L 132,59 L 133,58 L 133,57 L 136,54 L 136,53 L 138,51 L 138,50 L 139,49 Z" fill="black" /><path d="M 113,47 L 113,48 L 110,51 L 110,52 L 109,53 L 109,54 L 106,57 L 106,59 L 104,61 L 104,62 L 103,63 L 103,64 L 102,65 L 102,66 L 101,67 L 101,68 L 100,69 L 100,70 L 98,72 L 98,73 L 96,75 L 96,76 L 93,79 L 93,80 L 91,82 L 91,83 L 90,84 L 90,85 L 88,87 L 88,88 L 86,90 L 86,91 L 82,95 L 82,96 L 81,97 L 81,98 L 80,99 L 81,100 L 83,100 L 85,98 L 85,97 L 86,96 L 86,95 L 88,93 L 88,92 L 89,91 L 89,90 L 93,86 L 93,85 L 94,84 L 94,83 L 97,80 L 97,79 L 98,78 L 98,77 L 99,76 L 99,75 L 102,72 L 102,71 L 103,70 L 103,69 L 105,67 L 105,66 L 106,65 L 106,64 L 107,63 L 107,62 L 108,61 L 108,60 L 110,58 L 110,57 L 112,55 L 112,54 L 114,52 L 114,51 L 115,50 L 115,48 L 114,47 Z" fill="black" /><path d="M 102,46 L 101,47 L 100,47 L 98,49 L 98,51 L 97,52 L 97,53 L 96,54 L 96,55 L 93,58 L 93,60 L 89,64 L 89,65 L 88,66 L 88,67 L 85,70 L 85,71 L 84,72 L 84,73 L 83,74 L 83,75 L 82,76 L 81,76 L 81,77 L 79,79 L 79,80 L 77,82 L 77,83 L 76,84 L 76,85 L 75,86 L 75,89 L 76,90 L 77,89 L 78,89 L 79,88 L 79,86 L 80,85 L 80,84 L 82,82 L 82,81 L 85,78 L 85,77 L 86,76 L 86,75 L 88,73 L 88,72 L 89,71 L 89,70 L 92,67 L 92,66 L 94,64 L 94,63 L 96,61 L 96,60 L 97,59 L 97,58 L 98,57 L 98,56 L 100,54 L 100,53 L 102,51 L 102,50 L 103,49 L 103,48 L 102,47 Z" fill="black" /><path d="M 89,46 L 87,48 L 87,50 L 84,53 L 84,54 L 83,55 L 83,56 L 81,58 L 81,59 L 80,60 L 80,61 L 77,64 L 77,65 L 76,66 L 76,67 L 75,68 L 75,69 L 73,71 L 73,72 L 70,75 L 70,76 L 69,77 L 69,78 L 68,79 L 69,80 L 71,80 L 73,78 L 73,77 L 74,76 L 74,75 L 76,73 L 76,72 L 77,71 L 77,70 L 78,69 L 78,68 L 80,66 L 80,65 L 83,62 L 83,61 L 84,60 L 84,59 L 85,58 L 85,57 L 88,54 L 88,53 L 90,51 L 90,50 L 91,49 L 91,47 L 90,46 Z" fill="black" /><path d="M 51,45 L 50,46 L 50,49 L 51,50 L 52,50 L 53,49 L 53,48 L 54,47 L 54,45 Z" fill="black" /><path d="M 77,44 L 76,45 L 75,45 L 75,46 L 74,47 L 74,48 L 73,49 L 73,50 L 71,52 L 71,53 L 70,54 L 70,55 L 67,58 L 67,60 L 65,62 L 65,64 L 63,66 L 63,67 L 62,68 L 62,69 L 63,70 L 64,70 L 66,68 L 66,67 L 68,65 L 68,63 L 70,61 L 70,60 L 71,59 L 71,58 L 74,55 L 74,53 L 76,51 L 76,50 L 78,48 L 78,47 L 79,46 L 79,45 L 78,44 Z" fill="black" /><path d="M 65,43 L 63,45 L 63,46 L 61,48 L 61,49 L 60,50 L 60,51 L 59,52 L 59,53 L 58,54 L 58,55 L 56,57 L 56,58 L 55,59 L 56,60 L 56,61 L 57,62 L 59,60 L 59,59 L 60,58 L 60,57 L 62,55 L 62,53 L 64,51 L 64,49 L 68,45 L 68,44 L 67,43 Z" fill="black" /><path d="M 0,0 L 0,219 L 259,219 L 259,0 Z" fill="none" stroke="black" stroke-width="1" /></svg>