<?xml version='1.0' encoding='utf-8'?>
<svg width="259" height="216" xmlns="http://www.w3.org/2000/svg" viewBox="0 0 259 216"><rect width="259" height="216" fill="white" /><path d="M 221,87 L 221,88 L 220,89 L 220,90 L 219,91 L 219,94 L 220,95 L 222,95 L 222,93 L 223,92 L 223,91 L 224,90 L 223,89 L 223,88 L 222,87 Z" fill="black" /><path d="M 210,86 L 209,87 L 209,89 L 210,90 L 210,96 L 209,97 L 209,99 L 210,100 L 212,100 L 213,99 L 213,97 L 212,96 L 212,90 L 213,89 L 213,87 L 212,86 Z" fill="black" /><path d="M 189,86 L 189,87 L 188,88 L 189,89 L 189,101 L 188,102 L 188,111 L 189,112 L 190,112 L 191,111 L 191,103 L 190,102 L 190,101 L 191,100 L 191,90 L 192,89 L 192,88 L 191,87 L 191,86 Z" fill="black" /><path d="M 199,85 L 198,86 L 198,87 L 199,88 L 199,95 L 198,96 L 198,102 L 199,103 L 199,105 L 201,105 L 201,104 L 202,103 L 201,102 L 201,99 L 200,98 L 201,97 L 201,91 L 202,90 L 202,87 L 200,85 Z" fill="black" /><path d="M 178,85 L 178,97 L 177,98 L 177,115 L 178,116 L 180,116 L 180,91 L 181,90 L 181,87 L 180,86 L 180,85 Z" fill="black" /><path d="M 159,84 L 158,85 L 157,85 L 157,91 L 158,92 L 158,94 L 157,95 L 157,125 L 156,126 L 156,128 L 158,130 L 159,129 L 159,125 L 160,124 L 160,120 L 159,119 L 159,107 L 160,106 L 160,104 L 159,103 L 159,101 L 160,100 L 160,98 L 159,97 L 159,96 L 160,95 L 160,84 Z" fill="black" /><path d="M 169,83 L 168,84 L 168,97 L 167,98 L 167,101 L 168,102 L 168,103 L 167,104 L 167,121 L 168,122 L 168,123 L 170,123 L 171,122 L 171,121 L 170,120 L 170,119 L 169,118 L 170,117 L 170,88 L 171,87 L 171,84 L 170,83 Z" fill="black" /><path d="M 147,83 L 146,84 L 146,133 L 147,134 L 148,134 L 149,133 L 149,130 L 148,129 L 148,101 L 149,100 L 149,97 L 148,96 L 148,94 L 149,93 L 149,87 L 148,86 L 149,85 L 149,84 L 148,83 Z" fill="black" /><path d="M 138,82 L 136,84 L 136,117 L 135,118 L 135,136 L 136,137 L 138,137 L 138,91 L 139,90 L 139,83 Z" fill="black" /><path d="M 127,82 L 125,84 L 125,141 L 126,142 L 127,142 L 128,141 L 128,139 L 127,138 L 127,129 L 128,128 L 128,126 L 127,125 L 127,123 L 128,122 L 128,119 L 127,118 L 127,116 L 128,115 L 128,110 L 127,109 L 127,108 L 128,107 L 128,85 L 129,84 L 129,83 L 128,82 Z" fill="black" /><path d="M 115,82 L 115,90 L 114,91 L 114,93 L 115,94 L 115,135 L 114,136 L 114,138 L 115,139 L 115,142 L 114,143 L 114,145 L 115,146 L 114,147 L 114,149 L 115,150 L 116,150 L 117,149 L 117,147 L 118,146 L 118,144 L 117,143 L 117,132 L 118,131 L 118,128 L 117,127 L 117,117 L 116,116 L 117,115 L 117,89 L 118,88 L 118,82 Z" fill="black" /><path d="M 105,81 L 104,82 L 103,82 L 103,105 L 104,106 L 104,111 L 103,112 L 103,117 L 104,118 L 104,124 L 103,125 L 103,135 L 104,136 L 104,139 L 103,140 L 103,143 L 104,144 L 104,149 L 106,149 L 107,148 L 107,147 L 106,146 L 106,131 L 107,130 L 106,129 L 106,98 L 107,97 L 107,96 L 106,95 L 106,89 L 107,88 L 107,82 L 106,81 Z" fill="black" /><path d="M 94,80 L 94,81 L 93,82 L 94,83 L 94,85 L 93,86 L 93,140 L 94,141 L 95,141 L 96,142 L 96,141 L 97,140 L 96,139 L 96,88 L 97,87 L 97,84 L 96,83 L 97,82 L 96,81 L 96,80 Z" fill="black" /><path d="M 85,80 L 84,81 L 83,81 L 83,133 L 85,133 L 86,132 L 86,124 L 85,123 L 85,119 L 86,118 L 86,115 L 85,114 L 85,112 L 86,111 L 86,80 Z" fill="black" /><path d="M 74,80 L 72,82 L 72,92 L 71,93 L 72,94 L 72,95 L 71,96 L 71,97 L 72,98 L 72,115 L 71,116 L 71,120 L 72,121 L 72,123 L 73,124 L 74,124 L 75,123 L 75,121 L 74,120 L 74,114 L 75,113 L 75,111 L 74,110 L 74,108 L 75,107 L 75,100 L 74,99 L 74,98 L 75,97 L 75,88 L 76,87 L 76,81 L 75,81 Z" fill="black" /><path d="M 63,79 L 62,80 L 62,105 L 61,106 L 61,114 L 63,116 L 64,116 L 64,115 L 65,114 L 64,113 L 64,92 L 65,91 L 65,88 L 64,87 L 64,86 L 65,85 L 65,81 L 64,80 L 64,79 Z" fill="black" /><path d="M 53,79 L 51,81 L 51,106 L 52,107 L 54,107 L 54,82 L 55,81 L 54,80 L 54,79 Z" fill="black" /><path d="M 41,79 L 40,80 L 40,81 L 41,82 L 40,83 L 40,86 L 41,87 L 41,88 L 40,89 L 40,98 L 41,99 L 42,99 L 43,98 L 43,80 L 42,79 Z" fill="black" /><path d="M 31,78 L 30,79 L 30,81 L 29,82 L 29,88 L 30,89 L 30,90 L 31,91 L 32,91 L 33,90 L 33,89 L 32,88 L 32,81 L 33,80 L 33,79 L 32,78 Z" fill="black" /><path d="M 0,0 L 0,215 L 258,215 L 258,0 Z" fill="none" stroke="black" stroke-width="1" /></svg>