<?xml version="1.0" encoding="utf-8" ?>
<svg baseProfile="full" height="221" version="1.1" width="262" xmlns="http://www.w3.org/2000/svg" xmlns:ev="http://www.w3.org/2001/xml-events" xmlns:xlink="http://www.w3.org/1999/xlink"><defs /><rect fill="white" height="221" width="262" x="0" y="0" /><path d="M 28,115 L 35,123 L 32,126 L 26,119 Z" fill="black" stroke="black" stroke-width="1" /><path d="M 32,104 L 54,133 L 48,131 Z" fill="black" stroke="black" stroke-width="1" /><path d="M 38,92 L 73,142 Z" fill="black" stroke="black" stroke-width="1" /><path d="M 231,83 L 245,100 L 243,104 L 229,86 Z" fill="black" stroke="black" stroke-width="1" /><path d="M 44,81 L 90,149 Z" fill="black" stroke="black" stroke-width="1" /><path d="M 214,79 L 240,118 Z" fill="black" stroke="black" stroke-width="1" /><path d="M 198,75 L 236,130 Z" fill="black" stroke="black" stroke-width="1" /><path d="M 182,69 L 232,143 Z" fill="black" stroke="black" stroke-width="1" /><path d="M 48,69 L 109,156 Z" fill="black" stroke="black" stroke-width="1" /><path d="M 164,63 L 230,158 Z" fill="black" stroke="black" stroke-width="1" /><path d="M 55,59 L 125,160 Z" fill="black" stroke="black" stroke-width="1" /><path d="M 144,55 L 225,171 Z" fill="black" stroke="black" stroke-width="1" /><path d="M 59,47 L 145,170 Z" fill="black" stroke="black" stroke-width="1" /><path d="M 124,46 L 222,183 Z" fill="black" stroke="black" stroke-width="1" /><path d="M 108,42 L 215,193 Z" fill="black" stroke="black" stroke-width="1" /><path d="M 92,38 L 199,189 Z" fill="black" stroke="black" stroke-width="1" /><path d="M 66,36 L 165,177 Z" fill="black" stroke="black" stroke-width="1" /><path d="M 73,29 L 182,184 Z" fill="black" stroke="black" stroke-width="1" /><path d="M 0,0 L 0,220 L 261,220 L 261,0 Z" fill="none" stroke="black" stroke-width="1" /></svg>