<?xml version='1.0' encoding='utf-8'?>
<svg width="257" height="221" xmlns="http://www.w3.org/2000/svg" viewBox="0 0 257 221"><rect width="257" height="221" fill="white" /><path d="M 86,147 L 86,150 L 87,151 L 87,152 L 90,152 L 95,157 L 96,157 L 97,158 L 98,158 L 99,157 L 99,156 L 97,154 L 96,154 L 92,150 L 91,150 L 88,147 Z" fill="black" /><path d="M 85,132 L 84,133 L 84,134 L 85,135 L 85,136 L 86,137 L 87,137 L 88,138 L 89,138 L 94,143 L 96,143 L 103,150 L 104,150 L 106,152 L 108,152 L 109,151 L 105,147 L 104,147 L 97,140 L 95,140 L 91,136 L 90,136 L 86,132 Z" fill="black" /><path d="M 83,118 L 82,119 L 82,120 L 83,121 L 84,121 L 85,122 L 86,122 L 88,124 L 89,124 L 94,129 L 95,129 L 97,131 L 98,131 L 103,136 L 104,136 L 105,137 L 106,137 L 110,141 L 110,142 L 111,142 L 112,143 L 113,143 L 115,145 L 116,145 L 117,144 L 117,143 L 116,142 L 115,142 L 110,137 L 109,137 L 108,136 L 107,136 L 106,135 L 106,134 L 105,134 L 100,129 L 99,129 L 98,128 L 97,128 L 93,124 L 92,124 L 87,119 L 86,119 L 85,118 Z" fill="black" /><path d="M 81,102 L 80,103 L 80,105 L 81,106 L 83,106 L 87,110 L 88,110 L 89,111 L 90,111 L 92,113 L 93,113 L 95,115 L 96,115 L 104,123 L 105,123 L 106,124 L 107,124 L 108,125 L 109,125 L 110,126 L 110,127 L 111,128 L 112,128 L 113,129 L 114,129 L 119,134 L 120,134 L 123,137 L 124,137 L 125,138 L 126,138 L 127,137 L 123,133 L 122,133 L 117,128 L 116,128 L 114,126 L 113,126 L 109,122 L 108,122 L 105,119 L 104,119 L 101,116 L 100,116 L 99,115 L 99,114 L 98,113 L 97,113 L 96,112 L 95,112 L 91,108 L 90,108 L 87,105 L 86,105 L 85,104 L 84,104 L 82,102 Z" fill="black" /><path d="M 175,92 L 174,93 L 174,94 L 175,95 L 176,95 L 179,98 L 180,98 L 181,99 L 182,98 L 183,98 L 183,95 L 180,95 L 177,92 Z" fill="black" /><path d="M 79,86 L 78,87 L 78,89 L 80,91 L 81,91 L 83,93 L 84,93 L 89,98 L 91,98 L 95,102 L 96,102 L 100,106 L 101,106 L 103,108 L 104,108 L 108,112 L 109,112 L 113,116 L 114,116 L 115,117 L 116,117 L 120,121 L 121,121 L 122,122 L 123,122 L 124,123 L 124,124 L 126,126 L 127,126 L 129,128 L 130,128 L 131,129 L 132,129 L 133,128 L 133,127 L 131,125 L 130,125 L 129,124 L 128,124 L 127,123 L 127,122 L 126,121 L 125,121 L 124,120 L 123,120 L 121,118 L 121,117 L 120,117 L 119,116 L 118,116 L 115,113 L 114,113 L 111,110 L 110,110 L 107,107 L 106,107 L 102,103 L 100,103 L 94,97 L 92,97 L 87,92 L 86,92 L 80,86 Z" fill="black" /><path d="M 150,85 L 149,86 L 148,86 L 148,87 L 150,89 L 151,89 L 152,90 L 153,90 L 155,92 L 157,92 L 165,100 L 166,100 L 167,101 L 168,101 L 171,104 L 172,104 L 173,105 L 174,105 L 175,104 L 175,103 L 173,101 L 172,101 L 169,98 L 168,98 L 166,96 L 165,96 L 159,90 L 158,90 L 157,89 L 156,89 L 153,86 L 152,86 L 151,85 Z" fill="black" /><path d="M 116,74 L 116,76 L 118,78 L 119,78 L 122,81 L 123,81 L 125,83 L 126,83 L 128,85 L 129,85 L 131,87 L 131,88 L 133,88 L 140,95 L 142,95 L 148,101 L 149,101 L 150,102 L 151,102 L 155,106 L 156,106 L 161,111 L 162,111 L 163,112 L 164,111 L 164,109 L 161,106 L 160,106 L 157,103 L 156,103 L 153,100 L 152,100 L 150,98 L 149,98 L 145,94 L 144,94 L 141,91 L 140,91 L 135,86 L 134,86 L 133,85 L 132,85 L 127,80 L 126,80 L 123,77 L 122,77 L 120,75 L 119,75 L 118,74 Z" fill="black" /><path d="M 76,71 L 75,72 L 76,73 L 76,74 L 77,74 L 81,78 L 82,78 L 83,79 L 84,79 L 91,86 L 92,86 L 93,87 L 94,87 L 99,92 L 100,92 L 101,93 L 102,93 L 105,96 L 106,96 L 110,100 L 111,100 L 114,103 L 115,103 L 117,105 L 118,105 L 122,109 L 123,109 L 125,111 L 126,111 L 130,115 L 131,115 L 133,117 L 134,117 L 136,119 L 137,119 L 140,122 L 140,123 L 141,123 L 142,124 L 143,124 L 144,123 L 144,121 L 143,121 L 139,117 L 138,117 L 137,116 L 136,116 L 134,114 L 133,114 L 129,110 L 128,110 L 125,107 L 124,107 L 120,103 L 119,103 L 116,100 L 115,100 L 114,99 L 113,99 L 107,93 L 106,93 L 105,92 L 104,92 L 102,90 L 101,90 L 96,85 L 95,85 L 94,84 L 93,84 L 86,77 L 85,77 L 84,76 L 83,76 L 79,72 L 78,72 L 77,71 Z" fill="black" /><path d="M 85,64 L 84,65 L 84,66 L 85,67 L 87,67 L 89,69 L 89,70 L 90,71 L 92,71 L 95,74 L 96,74 L 99,77 L 100,77 L 105,82 L 106,82 L 111,87 L 112,87 L 113,88 L 114,88 L 117,91 L 118,91 L 124,97 L 125,97 L 126,98 L 127,98 L 131,102 L 132,102 L 136,106 L 137,106 L 138,107 L 139,107 L 142,110 L 143,110 L 146,113 L 147,113 L 148,114 L 148,115 L 149,116 L 150,116 L 152,118 L 153,118 L 154,117 L 154,116 L 150,112 L 149,112 L 145,108 L 144,108 L 142,106 L 141,106 L 137,102 L 136,102 L 134,100 L 133,100 L 129,96 L 128,96 L 124,92 L 123,92 L 119,88 L 118,88 L 116,86 L 115,86 L 110,81 L 109,81 L 107,79 L 106,79 L 102,75 L 101,75 L 98,72 L 97,72 L 92,67 L 91,67 L 90,66 L 89,66 L 88,65 L 87,65 L 86,64 Z" fill="black" /><path d="M 0,0 L 0,220 L 256,220 L 256,0 Z" fill="none" stroke="black" stroke-width="1" /></svg>