<?xml version='1.0' encoding='utf-8'?>
<svg width="259" height="222" xmlns="http://www.w3.org/2000/svg" viewBox="0 0 259 222"><rect width="259" height="222" fill="white" /><path d="M 129,203 L 128,204 L 128,206 L 129,207 L 131,207 L 132,206 L 133,206 L 134,205 L 134,203 Z" fill="black" /><path d="M 121,192 L 120,193 L 120,194 L 121,195 L 123,195 L 124,196 L 131,196 L 132,195 L 138,195 L 139,194 L 139,193 L 138,192 L 136,192 L 135,193 L 124,193 L 123,192 Z" fill="black" /><path d="M 141,181 L 140,182 L 117,182 L 116,183 L 116,184 L 117,185 L 142,185 L 143,184 L 143,182 L 142,181 Z" fill="black" /><path d="M 125,170 L 124,171 L 113,171 L 112,172 L 111,172 L 111,173 L 112,174 L 113,174 L 114,175 L 115,174 L 117,174 L 118,173 L 141,173 L 142,172 L 143,172 L 144,173 L 145,173 L 146,174 L 147,174 L 148,173 L 149,173 L 150,172 L 150,171 L 149,170 L 147,170 L 146,171 L 144,171 L 143,170 Z" fill="black" /><path d="M 106,160 L 104,162 L 105,163 L 153,163 L 154,162 L 154,161 L 153,160 L 130,160 L 129,161 L 109,161 L 108,160 Z" fill="black" /><path d="M 101,148 L 100,149 L 100,151 L 160,151 L 161,150 L 161,149 L 160,148 L 157,148 L 156,149 L 103,149 L 102,148 Z" fill="black" /><path d="M 98,138 L 97,139 L 96,139 L 96,141 L 97,141 L 98,142 L 99,141 L 165,141 L 166,140 L 166,139 L 165,138 L 139,138 L 138,139 L 135,139 L 134,138 L 118,138 L 117,139 L 99,139 Z" fill="black" /><path d="M 89,128 L 88,129 L 88,130 L 89,131 L 93,131 L 94,130 L 100,130 L 101,131 L 144,131 L 145,130 L 147,130 L 148,131 L 150,131 L 151,130 L 152,131 L 159,131 L 160,130 L 166,130 L 167,131 L 170,131 L 172,129 L 171,128 L 159,128 L 158,129 L 157,128 L 155,128 L 154,129 L 152,129 L 151,128 L 144,128 L 143,129 L 142,128 Z" fill="black" /><path d="M 137,116 L 136,117 L 86,117 L 84,119 L 84,120 L 85,120 L 86,121 L 87,120 L 91,120 L 92,119 L 93,119 L 94,120 L 98,120 L 99,119 L 134,119 L 135,118 L 136,119 L 150,119 L 151,118 L 152,118 L 153,119 L 154,119 L 155,120 L 156,119 L 178,119 L 178,117 L 177,116 L 158,116 L 157,117 L 139,117 L 138,116 Z" fill="black" /><path d="M 85,106 L 83,108 L 84,109 L 177,109 L 179,107 L 178,106 Z" fill="black" /><path d="M 93,95 L 92,96 L 91,96 L 90,97 L 90,98 L 91,99 L 93,99 L 94,98 L 99,98 L 100,99 L 110,99 L 111,98 L 146,98 L 147,97 L 150,97 L 151,98 L 156,98 L 157,97 L 158,97 L 159,98 L 166,98 L 167,97 L 168,98 L 172,98 L 173,97 L 173,96 L 172,95 L 164,95 L 163,96 L 160,96 L 159,95 L 155,95 L 154,96 L 151,96 L 150,95 L 147,95 L 146,96 L 119,96 L 118,97 L 117,96 L 94,96 Z" fill="black" /><path d="M 141,84 L 140,85 L 97,85 L 97,87 L 98,88 L 99,88 L 100,87 L 121,87 L 122,88 L 124,88 L 125,87 L 166,87 L 167,86 L 167,85 L 166,85 L 165,84 L 164,85 L 163,85 L 162,84 Z" fill="black" /><path d="M 132,73 L 131,74 L 104,74 L 103,75 L 103,76 L 104,77 L 106,77 L 107,76 L 158,76 L 159,77 L 161,77 L 162,76 L 162,75 L 161,74 L 160,74 L 159,73 L 158,74 L 152,74 L 151,75 L 150,74 L 135,74 L 134,73 Z" fill="black" /><path d="M 152,62 L 151,63 L 108,63 L 107,64 L 107,66 L 120,66 L 121,65 L 151,65 L 152,66 L 154,66 L 155,65 L 155,64 L 154,63 L 153,63 Z" fill="black" /><path d="M 116,51 L 115,52 L 114,52 L 113,53 L 113,54 L 114,55 L 116,55 L 117,54 L 130,54 L 131,55 L 149,55 L 150,54 L 150,53 L 149,52 L 117,52 Z" fill="black" /><path d="M 123,41 L 122,42 L 121,42 L 120,43 L 120,44 L 121,45 L 123,45 L 124,44 L 142,44 L 143,45 L 144,44 L 145,44 L 145,42 L 144,42 L 143,41 L 142,42 L 134,42 L 133,41 L 130,41 L 129,42 L 124,42 Z" fill="black" /><path d="M 131,29 L 130,30 L 129,30 L 128,31 L 128,33 L 130,33 L 131,32 L 137,32 L 138,33 L 140,33 L 141,32 L 141,31 L 140,30 L 135,30 L 134,29 Z" fill="black" /><path d="M 0,0 L 0,221 L 258,221 L 258,0 Z" fill="none" stroke="black" stroke-width="1" /></svg>