<?xml version='1.0' encoding='utf-8'?>
<svg width="258" height="219" xmlns="http://www.w3.org/2000/svg" viewBox="0 0 258 219"><rect width="258" height="219" fill="white" /><path d="M 116,170 L 115,171 L 115,172 L 114,173 L 114,175 L 113,176 L 112,176 L 112,179 L 111,180 L 111,182 L 110,183 L 110,184 L 109,185 L 109,186 L 108,187 L 108,188 L 106,190 L 106,191 L 107,192 L 107,193 L 126,193 L 128,195 L 130,193 L 129,192 L 129,191 L 127,189 L 127,187 L 126,187 L 125,186 L 125,184 L 124,183 L 124,182 L 123,181 L 123,179 L 122,179 L 121,178 L 121,175 L 119,173 L 119,171 L 118,170 Z" fill="black" /><path d="M 157,160 L 157,162 L 155,164 L 155,165 L 154,166 L 154,168 L 152,170 L 152,172 L 151,173 L 151,174 L 150,175 L 150,176 L 149,177 L 149,178 L 148,179 L 148,181 L 147,182 L 147,184 L 170,184 L 171,183 L 170,182 L 170,181 L 169,180 L 169,177 L 168,176 L 168,175 L 167,174 L 167,173 L 166,172 L 166,171 L 165,170 L 165,169 L 164,169 L 163,168 L 163,165 L 161,163 L 161,162 L 160,161 L 160,160 Z" fill="black" /><path d="M 80,159 L 79,160 L 79,162 L 78,163 L 78,165 L 76,167 L 76,168 L 75,169 L 75,170 L 74,171 L 74,174 L 73,175 L 72,175 L 72,178 L 70,180 L 70,182 L 71,183 L 72,183 L 73,184 L 76,184 L 77,183 L 82,183 L 83,184 L 85,184 L 86,183 L 87,183 L 88,184 L 89,184 L 90,183 L 95,183 L 96,182 L 94,180 L 94,179 L 93,178 L 93,175 L 91,173 L 90,173 L 89,172 L 89,170 L 88,169 L 88,167 L 87,166 L 87,165 L 86,165 L 85,164 L 85,160 L 84,159 Z" fill="black" /><path d="M 181,128 L 180,129 L 180,134 L 178,136 L 178,138 L 176,140 L 176,143 L 175,144 L 175,145 L 174,146 L 174,147 L 172,149 L 172,151 L 170,153 L 170,154 L 169,155 L 170,156 L 195,156 L 196,155 L 195,154 L 195,153 L 193,151 L 193,147 L 191,145 L 191,144 L 189,142 L 189,140 L 187,138 L 187,137 L 186,136 L 186,135 L 185,134 L 185,133 L 183,131 L 183,129 L 182,129 Z" fill="black" /><path d="M 55,127 L 53,129 L 53,132 L 52,133 L 52,136 L 51,137 L 51,138 L 50,139 L 50,141 L 48,143 L 48,145 L 46,147 L 46,154 L 47,155 L 49,155 L 50,154 L 62,154 L 63,155 L 64,155 L 65,156 L 67,156 L 68,155 L 68,153 L 67,152 L 67,149 L 66,149 L 65,148 L 65,145 L 64,144 L 64,143 L 62,141 L 62,140 L 61,139 L 61,137 L 60,136 L 60,135 L 59,134 L 59,133 L 56,130 L 56,128 Z" fill="black" /><path d="M 191,93 L 191,94 L 190,95 L 190,96 L 189,97 L 189,98 L 188,99 L 188,100 L 187,101 L 187,102 L 186,103 L 186,105 L 184,107 L 184,110 L 183,111 L 182,111 L 182,114 L 181,115 L 181,116 L 180,117 L 180,118 L 179,119 L 180,120 L 182,120 L 183,119 L 185,119 L 186,120 L 187,120 L 188,119 L 189,119 L 190,120 L 198,120 L 199,119 L 200,120 L 205,120 L 205,116 L 203,114 L 203,113 L 202,112 L 202,111 L 201,110 L 201,108 L 199,106 L 199,104 L 198,103 L 198,101 L 195,98 L 195,97 L 194,96 L 194,94 L 193,93 Z" fill="black" /><path d="M 44,92 L 44,93 L 43,94 L 43,96 L 42,97 L 42,98 L 41,99 L 41,100 L 40,101 L 40,104 L 39,105 L 39,106 L 38,107 L 38,110 L 36,112 L 36,113 L 35,114 L 35,116 L 38,116 L 39,117 L 42,117 L 43,116 L 44,117 L 50,117 L 51,118 L 58,118 L 59,117 L 58,116 L 58,115 L 55,112 L 55,111 L 54,110 L 54,109 L 53,108 L 53,106 L 51,104 L 51,102 L 49,100 L 49,97 L 48,97 L 47,96 L 47,93 L 46,92 Z" fill="black" /><path d="M 180,58 L 180,59 L 178,61 L 178,62 L 177,63 L 177,64 L 176,65 L 176,67 L 175,68 L 175,70 L 174,71 L 174,73 L 172,75 L 172,76 L 171,77 L 171,78 L 170,79 L 170,80 L 169,81 L 169,82 L 170,83 L 171,83 L 172,84 L 175,84 L 176,83 L 179,83 L 180,82 L 193,82 L 194,81 L 194,79 L 193,78 L 193,77 L 191,75 L 191,73 L 189,71 L 189,70 L 187,68 L 187,66 L 185,64 L 185,63 L 184,62 L 184,61 L 183,60 L 183,59 L 182,58 Z" fill="black" /><path d="M 56,54 L 56,55 L 55,56 L 55,57 L 54,58 L 54,60 L 53,61 L 53,62 L 52,63 L 52,65 L 50,67 L 50,70 L 48,72 L 48,76 L 47,77 L 47,79 L 66,79 L 67,80 L 70,80 L 70,79 L 69,78 L 69,77 L 68,76 L 68,75 L 67,74 L 67,73 L 66,72 L 66,71 L 65,70 L 65,69 L 64,68 L 64,67 L 63,66 L 63,65 L 62,64 L 62,63 L 61,62 L 61,61 L 60,60 L 60,59 L 59,58 L 59,55 L 58,54 Z" fill="black" /><path d="M 86,29 L 86,31 L 84,33 L 84,36 L 83,37 L 83,38 L 82,39 L 82,40 L 81,41 L 81,42 L 80,43 L 80,46 L 78,48 L 78,49 L 77,50 L 77,53 L 78,53 L 79,54 L 100,54 L 101,53 L 101,50 L 99,48 L 99,47 L 98,47 L 97,46 L 97,43 L 95,41 L 95,39 L 93,37 L 93,35 L 92,35 L 91,34 L 91,33 L 89,31 L 89,29 Z" fill="black" /><path d="M 151,26 L 150,27 L 150,30 L 149,31 L 149,32 L 148,33 L 148,35 L 146,37 L 146,40 L 144,42 L 144,43 L 143,44 L 143,46 L 142,47 L 142,48 L 141,49 L 141,50 L 140,51 L 140,53 L 141,54 L 163,54 L 164,53 L 164,50 L 163,49 L 163,47 L 161,45 L 161,43 L 159,41 L 159,39 L 158,39 L 157,38 L 157,37 L 156,36 L 156,35 L 155,34 L 155,32 L 153,30 L 153,28 Z" fill="black" /><path d="M 118,20 L 118,21 L 116,23 L 116,25 L 114,27 L 114,30 L 112,32 L 112,34 L 111,35 L 110,35 L 110,36 L 109,37 L 109,39 L 107,41 L 107,43 L 108,44 L 110,44 L 111,45 L 114,45 L 115,44 L 116,45 L 121,45 L 122,44 L 127,44 L 128,45 L 129,45 L 130,44 L 134,44 L 134,41 L 131,38 L 131,37 L 130,37 L 129,36 L 129,34 L 127,32 L 127,31 L 126,30 L 126,29 L 125,28 L 125,27 L 124,26 L 124,25 L 123,24 L 123,23 L 121,21 L 121,20 Z" fill="black" /></svg>