<?xml version='1.0' encoding='utf-8'?>
<svg width="258" height="217" xmlns="http://www.w3.org/2000/svg" viewBox="0 0 258 217"><rect width="258" height="217" fill="white" /><path d="M 71,173 L 69,175 L 71,177 L 72,177 L 73,176 L 73,174 L 72,173 Z" fill="black" /><path d="M 51,173 L 50,174 L 50,175 L 51,176 L 53,176 L 54,177 L 55,176 L 56,176 L 57,175 L 57,174 L 56,173 Z" fill="black" /><path d="M 118,171 L 117,172 L 117,173 L 118,174 L 120,174 L 121,173 L 121,172 L 120,171 Z" fill="black" /><path d="M 107,171 L 106,172 L 106,175 L 107,176 L 108,176 L 109,175 L 109,172 L 108,171 Z" fill="black" /><path d="M 89,171 L 88,172 L 88,175 L 89,176 L 90,175 L 91,175 L 91,173 Z" fill="black" /><path d="M 145,170 L 144,171 L 144,173 L 145,174 L 147,174 L 148,173 L 148,172 L 147,171 L 146,171 Z" fill="black" /><path d="M 126,170 L 124,172 L 124,173 L 125,174 L 127,174 L 128,173 L 128,172 Z" fill="black" /><path d="M 182,169 L 181,170 L 181,172 L 183,174 L 184,174 L 185,173 L 185,170 L 184,169 Z" fill="black" /><path d="M 164,169 L 163,170 L 163,171 L 164,172 L 165,172 L 166,173 L 168,171 L 166,169 Z" fill="black" /><path d="M 154,168 L 154,171 L 157,171 L 158,170 L 158,169 L 157,168 Z" fill="black" /><path d="M 82,168 L 80,170 L 80,171 L 81,172 L 83,172 L 84,171 L 84,169 L 83,169 Z" fill="black" /><path d="M 63,168 L 62,169 L 62,170 L 64,172 L 66,172 L 67,171 L 67,170 L 65,168 Z" fill="black" /><path d="M 201,167 L 200,168 L 200,170 L 201,171 L 202,171 L 203,172 L 204,172 L 205,171 L 205,168 L 204,168 L 203,167 Z" fill="black" /><path d="M 173,167 L 172,168 L 172,169 L 173,170 L 175,170 L 176,169 L 176,168 L 175,167 Z" fill="black" /><path d="M 94,167 L 93,168 L 94,169 L 94,170 L 97,170 L 97,167 Z" fill="black" /><path d="M 220,166 L 219,167 L 219,169 L 220,170 L 223,170 L 223,168 L 221,166 Z" fill="black" /><path d="M 105,164 L 104,165 L 104,167 L 105,167 L 106,168 L 108,166 L 107,165 L 107,164 Z" fill="black" /><path d="M 192,163 L 190,165 L 192,167 L 193,167 L 195,165 L 193,163 Z" fill="black" /><path d="M 180,161 L 179,162 L 179,164 L 181,166 L 182,165 L 183,165 L 184,164 L 184,163 L 182,161 Z" fill="black" /><path d="M 125,161 L 124,162 L 124,163 L 125,164 L 126,164 L 127,165 L 128,165 L 129,164 L 129,162 L 128,161 Z" fill="black" /><path d="M 162,159 L 161,160 L 161,161 L 162,162 L 165,162 L 166,161 L 166,160 L 165,159 Z" fill="black" /><path d="M 144,159 L 143,160 L 143,161 L 145,163 L 146,163 L 147,164 L 149,162 L 149,160 L 148,160 L 147,159 Z" fill="black" /><path d="M 115,159 L 114,160 L 114,161 L 116,163 L 118,161 L 118,160 L 117,159 Z" fill="black" /><path d="M 60,159 L 59,160 L 59,162 L 61,164 L 62,164 L 64,162 L 64,161 L 62,159 Z" fill="black" /><path d="M 81,158 L 80,159 L 80,161 L 81,162 L 83,162 L 84,161 L 84,160 L 82,158 Z" fill="black" /><path d="M 136,157 L 134,159 L 134,160 L 136,162 L 138,160 L 137,159 L 137,158 Z" fill="black" /><path d="M 172,156 L 170,158 L 170,159 L 172,161 L 174,159 L 174,158 Z" fill="black" /><path d="M 210,155 L 208,157 L 208,158 L 209,159 L 211,159 L 211,158 L 212,157 Z" fill="black" /><path d="M 74,153 L 73,154 L 73,155 L 75,157 L 76,157 L 77,156 L 77,154 L 76,153 Z" fill="black" /><path d="M 91,152 L 90,153 L 90,155 L 91,156 L 93,156 L 94,155 L 94,153 L 93,152 Z" fill="black" /><path d="M 107,151 L 106,152 L 106,153 L 107,154 L 109,154 L 110,153 L 110,152 L 109,151 Z" fill="black" /><path d="M 129,150 L 127,152 L 127,153 L 128,154 L 130,154 L 131,153 L 131,152 Z" fill="black" /><path d="M 147,149 L 146,150 L 146,151 L 147,152 L 149,152 L 150,151 L 150,150 L 149,149 Z" fill="black" /><path d="M 175,147 L 174,148 L 174,149 L 175,150 L 177,150 L 178,149 L 178,148 L 177,147 Z" fill="black" /><path d="M 165,146 L 164,147 L 163,147 L 162,148 L 164,150 L 166,150 L 167,149 L 167,148 Z" fill="black" /><path d="M 69,145 L 68,146 L 68,148 L 70,150 L 71,150 L 72,149 L 72,147 L 70,145 Z" fill="black" /><path d="M 116,142 L 115,143 L 115,144 L 117,146 L 118,146 L 119,145 L 119,144 L 117,142 Z" fill="black" /><path d="M 154,141 L 153,142 L 153,143 L 154,144 L 156,144 L 157,143 L 157,142 L 156,141 Z" fill="black" /><path d="M 135,140 L 134,141 L 134,143 L 136,145 L 138,143 L 138,142 L 136,140 Z" fill="black" /><path d="M 73,140 L 72,141 L 72,142 L 74,144 L 76,144 L 77,143 L 77,141 L 76,140 Z" fill="black" /><path d="M 106,139 L 105,140 L 105,141 L 107,143 L 108,143 L 109,142 L 109,140 L 108,139 Z" fill="black" /><path d="M 184,138 L 183,139 L 183,140 L 185,142 L 186,142 L 187,141 L 187,139 L 186,138 Z" fill="black" /><path d="M 173,137 L 172,138 L 172,141 L 173,142 L 175,140 L 175,138 L 174,137 Z" fill="black" /><path d="M 203,136 L 203,138 L 204,139 L 207,139 L 207,137 L 206,136 Z" fill="black" /><path d="M 126,136 L 124,138 L 125,139 L 125,140 L 126,141 L 127,141 L 128,142 L 129,142 L 131,140 L 131,139 L 129,137 L 127,137 Z" fill="black" /><path d="M 163,133 L 162,134 L 162,135 L 163,136 L 164,136 L 165,137 L 166,137 L 167,136 L 167,134 L 166,133 Z" fill="black" /><path d="M 147,133 L 146,134 L 145,134 L 144,135 L 144,136 L 145,137 L 149,137 L 150,136 L 150,134 L 149,133 Z" fill="black" /><path d="M 79,130 L 78,131 L 78,134 L 79,135 L 81,135 L 82,134 L 82,132 L 80,130 Z" fill="black" /><path d="M 137,127 L 136,128 L 138,130 L 140,130 L 141,129 L 141,128 L 140,127 Z" fill="black" /><path d="M 118,127 L 116,129 L 116,131 L 117,132 L 118,132 L 120,130 L 120,129 Z" fill="black" /><path d="M 157,124 L 156,125 L 156,126 L 158,128 L 159,128 L 160,127 L 160,126 L 158,124 Z" fill="black" /><path d="M 84,124 L 83,125 L 83,126 L 85,128 L 87,128 L 88,127 L 88,126 L 86,124 Z" fill="black" /><path d="M 169,123 L 168,124 L 168,125 L 169,126 L 170,126 L 171,127 L 172,127 L 173,126 L 173,125 L 171,123 Z" fill="black" /><path d="M 129,123 L 128,124 L 128,126 L 129,127 L 130,127 L 132,125 L 130,123 Z" fill="black" /><path d="M 112,123 L 110,125 L 110,126 L 112,128 L 113,128 L 115,126 L 115,125 L 114,124 L 114,123 Z" fill="black" /><path d="M 151,122 L 150,123 L 149,123 L 149,125 L 150,126 L 153,126 L 153,123 L 152,122 Z" fill="black" /><path d="M 93,122 L 91,124 L 93,126 L 94,126 L 95,125 L 95,123 L 94,122 Z" fill="black" /><path d="M 195,119 L 194,120 L 194,122 L 195,123 L 196,123 L 197,122 L 197,120 L 196,119 Z" fill="black" /><path d="M 121,118 L 120,119 L 120,121 L 121,122 L 123,122 L 124,121 L 124,119 L 123,118 Z" fill="black" /><path d="M 88,115 L 86,117 L 86,118 L 88,120 L 90,118 L 90,117 Z" fill="black" /><path d="M 102,114 L 100,116 L 100,117 L 101,118 L 103,118 L 104,117 L 104,116 Z" fill="black" /><path d="M 184,113 L 182,115 L 182,116 L 183,117 L 186,117 L 187,116 L 187,115 L 185,113 Z" fill="black" /><path d="M 162,113 L 161,114 L 161,115 L 163,117 L 164,117 L 166,115 L 166,114 L 165,113 Z" fill="black" /><path d="M 141,113 L 140,114 L 140,117 L 141,118 L 143,118 L 144,117 L 144,114 L 143,113 Z" fill="black" /><path d="M 111,111 L 110,112 L 110,115 L 111,116 L 112,116 L 114,114 L 114,113 L 112,111 Z" fill="black" /><path d="M 169,109 L 168,110 L 170,112 L 172,112 L 173,111 L 173,110 L 172,109 Z" fill="black" /><path d="M 94,109 L 93,110 L 93,111 L 95,113 L 97,113 L 98,112 L 98,111 L 96,109 Z" fill="black" /><path d="M 126,106 L 125,107 L 125,109 L 127,111 L 129,109 L 129,107 L 128,106 Z" fill="black" /><path d="M 105,105 L 104,106 L 104,108 L 105,109 L 107,109 L 108,108 L 107,107 L 107,106 L 106,105 Z" fill="black" /><path d="M 158,103 L 157,104 L 157,106 L 159,108 L 160,108 L 161,107 L 161,104 L 160,103 Z" fill="black" /><path d="M 182,101 L 181,102 L 181,103 L 182,104 L 184,104 L 185,103 L 185,102 L 184,101 Z" fill="black" /><path d="M 98,100 L 97,101 L 97,102 L 99,104 L 100,104 L 101,103 L 101,101 L 100,100 Z" fill="black" /><path d="M 170,97 L 169,98 L 169,100 L 171,102 L 172,102 L 174,100 L 174,99 L 172,97 Z" fill="black" /><path d="M 120,97 L 119,98 L 119,100 L 120,101 L 121,101 L 122,100 L 122,98 L 121,97 Z" fill="black" /><path d="M 139,96 L 138,97 L 138,99 L 139,100 L 141,100 L 142,99 L 142,98 L 140,96 Z" fill="black" /><path d="M 161,91 L 160,92 L 160,94 L 161,95 L 162,95 L 163,94 L 163,92 L 162,91 Z" fill="black" /><path d="M 126,91 L 125,92 L 125,93 L 127,95 L 128,95 L 129,94 L 130,95 L 130,97 L 131,98 L 133,98 L 134,97 L 134,96 L 132,94 L 131,94 L 130,95 L 129,94 L 129,93 L 127,91 Z" fill="black" /><path d="M 113,91 L 112,92 L 112,93 L 113,94 L 116,94 L 117,93 L 115,91 Z" fill="black" /><path d="M 147,88 L 146,89 L 146,91 L 147,92 L 150,92 L 151,91 L 151,90 L 149,88 Z" fill="black" /><path d="M 139,86 L 138,87 L 138,89 L 139,90 L 141,90 L 141,87 L 140,86 Z" fill="black" /><path d="M 173,85 L 172,86 L 172,88 L 173,89 L 174,89 L 175,88 L 175,86 L 174,85 Z" fill="black" /><path d="M 119,83 L 119,85 L 120,86 L 122,86 L 123,85 L 123,84 L 122,83 Z" fill="black" /><path d="M 107,83 L 106,84 L 106,85 L 109,88 L 110,88 L 111,87 L 111,84 L 110,83 Z" fill="black" /><path d="M 159,82 L 158,83 L 158,85 L 159,86 L 162,86 L 163,85 L 163,84 L 162,83 L 161,83 L 160,82 Z" fill="black" /><path d="M 167,79 L 166,80 L 166,81 L 168,83 L 170,81 L 169,80 L 169,79 Z" fill="black" /><path d="M 115,74 L 115,77 L 116,78 L 118,78 L 118,75 L 117,74 Z" fill="black" /><path d="M 139,73 L 138,74 L 138,76 L 139,77 L 141,77 L 142,76 L 142,75 L 140,73 Z" fill="black" /><path d="M 152,71 L 151,72 L 151,74 L 152,75 L 154,75 L 155,74 L 155,72 L 154,71 Z" fill="black" /><path d="M 163,69 L 162,70 L 162,72 L 163,73 L 164,73 L 166,71 L 164,69 Z" fill="black" /><path d="M 127,65 L 126,66 L 126,68 L 128,70 L 131,70 L 131,68 L 130,67 L 130,66 L 129,65 Z" fill="black" /><path d="M 118,65 L 117,66 L 117,67 L 118,68 L 120,68 L 121,67 L 121,65 Z" fill="black" /><path d="M 139,61 L 139,62 L 138,63 L 138,66 L 139,67 L 140,67 L 143,64 L 143,63 L 141,61 Z" fill="black" /><path d="M 139,49 L 138,50 L 138,51 L 137,52 L 138,53 L 138,55 L 139,56 L 140,56 L 141,55 L 141,50 L 140,49 Z" fill="black" /><path d="M 132,43 L 130,45 L 130,46 L 131,47 L 133,47 L 134,46 L 134,45 Z" fill="black" /><path d="M 145,41 L 144,42 L 144,43 L 143,44 L 143,45 L 144,46 L 146,46 L 147,45 L 147,44 L 146,43 L 146,42 Z" fill="black" /><path d="M 134,33 L 133,34 L 133,35 L 135,37 L 138,37 L 139,36 L 139,35 L 137,33 Z" fill="black" /></svg>