<?xml version='1.0' encoding='utf-8'?>
<svg width="265" height="214" xmlns="http://www.w3.org/2000/svg" viewBox="0 0 265 214"><rect width="265" height="214" fill="white" /><path d="M 118,15 L 118,20 L 117,21 L 117,23 L 116,24 L 115,24 L 115,25 L 113,27 L 113,31 L 112,32 L 111,32 L 109,34 L 109,37 L 108,38 L 107,38 L 107,40 L 105,42 L 105,44 L 104,45 L 104,46 L 103,47 L 103,48 L 101,50 L 101,53 L 97,57 L 97,59 L 95,61 L 95,65 L 94,66 L 94,67 L 90,71 L 90,73 L 89,74 L 89,76 L 87,78 L 87,80 L 85,82 L 85,83 L 84,84 L 84,85 L 83,86 L 83,87 L 81,89 L 81,90 L 79,92 L 79,95 L 78,96 L 78,97 L 77,98 L 77,99 L 76,100 L 75,100 L 75,102 L 73,104 L 73,107 L 72,108 L 72,109 L 71,110 L 71,111 L 69,113 L 69,115 L 68,116 L 67,116 L 67,119 L 65,121 L 65,122 L 63,124 L 63,125 L 62,126 L 62,127 L 61,128 L 61,131 L 60,132 L 59,132 L 59,134 L 57,136 L 57,138 L 55,140 L 55,141 L 54,142 L 54,143 L 53,144 L 53,145 L 52,146 L 52,147 L 51,148 L 51,149 L 50,150 L 50,151 L 49,152 L 49,153 L 48,154 L 48,155 L 45,158 L 45,161 L 44,162 L 43,162 L 42,163 L 42,164 L 43,165 L 52,165 L 53,164 L 57,164 L 58,163 L 66,163 L 67,162 L 68,162 L 69,163 L 70,163 L 71,162 L 74,162 L 75,161 L 89,161 L 90,160 L 94,160 L 95,159 L 114,159 L 116,157 L 117,158 L 122,158 L 123,157 L 136,157 L 137,156 L 146,156 L 147,155 L 156,155 L 157,154 L 158,154 L 159,155 L 160,155 L 162,153 L 181,153 L 182,152 L 183,152 L 184,153 L 185,152 L 186,152 L 187,151 L 190,151 L 191,152 L 192,151 L 201,151 L 203,149 L 222,149 L 223,148 L 220,145 L 220,144 L 219,144 L 217,142 L 217,141 L 213,137 L 213,136 L 212,135 L 212,134 L 211,134 L 210,133 L 210,132 L 206,128 L 206,127 L 205,127 L 204,126 L 204,125 L 202,123 L 202,122 L 198,118 L 198,117 L 196,115 L 196,114 L 192,110 L 192,109 L 190,107 L 190,106 L 184,100 L 184,99 L 182,97 L 182,96 L 180,94 L 180,93 L 176,89 L 176,88 L 174,86 L 174,85 L 170,81 L 170,80 L 169,80 L 168,79 L 168,78 L 166,76 L 166,75 L 164,73 L 164,72 L 162,70 L 162,69 L 158,65 L 158,64 L 157,64 L 156,63 L 156,62 L 155,61 L 155,60 L 154,60 L 153,59 L 153,58 L 150,55 L 150,54 L 148,52 L 148,51 L 144,47 L 144,46 L 143,46 L 142,45 L 142,44 L 138,40 L 138,39 L 136,37 L 136,36 L 135,36 L 134,35 L 134,34 L 132,32 L 132,31 L 126,25 L 126,24 L 124,22 L 124,21 L 121,18 L 121,17 L 119,15 Z" fill="black" /><path d="M 0,0 L 0,213 L 264,213 L 264,0 Z" fill="none" stroke="black" stroke-width="1" /></svg>