<?xml version="1.0" encoding="utf-8" ?>
<svg baseProfile="full" height="220" version="1.1" width="260" xmlns="http://www.w3.org/2000/svg" xmlns:ev="http://www.w3.org/2001/xml-events" xmlns:xlink="http://www.w3.org/1999/xlink"><defs /><rect fill="white" height="220" width="260" x="0" y="0" /><path d="M 224,100 L 226,102 L 224,105 L 221,106 L 219,104 L 222,100 Z" fill="black" stroke="black" stroke-width="1" /><path d="M 215,94 L 217,97 L 200,115 L 198,112 Z" fill="black" stroke="black" stroke-width="1" /><path d="M 203,91 L 203,98 L 176,126 Z" fill="black" stroke="black" stroke-width="1" /><path d="M 192,89 L 152,138 Z" fill="black" stroke="black" stroke-width="1" /><path d="M 181,85 L 129,151 Z" fill="black" stroke="black" stroke-width="1" /><path d="M 172,78 L 103,165 Z" fill="black" stroke="black" stroke-width="1" /><path d="M 162,75 L 78,178 Z" fill="black" stroke="black" stroke-width="1" /><path d="M 151,71 L 76,162 Z" fill="black" stroke="black" stroke-width="1" /><path d="M 143,65 L 77,146 Z" fill="black" stroke="black" stroke-width="1" /><path d="M 132,62 L 76,131 Z" fill="black" stroke="black" stroke-width="1" /><path d="M 122,58 L 77,112 Z" fill="black" stroke="black" stroke-width="1" /><path d="M 113,51 L 76,99 Z" fill="black" stroke="black" stroke-width="1" /><path d="M 102,48 L 73,86 Z" fill="black" stroke="black" stroke-width="1" /><path d="M 94,42 L 95,46 L 72,70 L 70,67 Z" fill="black" stroke="black" stroke-width="1" /><path d="M 83,38 L 81,46 L 71,55 L 69,52 Z" fill="black" stroke="black" stroke-width="1" /><path d="M 74,33 L 75,38 L 70,42 L 68,38 Z" fill="black" stroke="black" stroke-width="1" /><path d="M 0,0 L 0,219 L 259,219 L 259,0 Z" fill="none" stroke="black" stroke-width="1" /></svg>