<?xml version='1.0' encoding='utf-8'?>
<svg width="257" height="217" xmlns="http://www.w3.org/2000/svg" viewBox="0 0 257 217"><rect width="257" height="217" fill="white" /><path d="M 122,18 L 121,19 L 121,21 L 120,22 L 120,29 L 121,30 L 121,38 L 120,39 L 120,46 L 121,47 L 121,51 L 120,52 L 120,61 L 121,62 L 121,72 L 120,73 L 120,77 L 121,78 L 121,93 L 122,94 L 122,95 L 120,97 L 118,97 L 117,96 L 117,91 L 116,90 L 116,87 L 115,86 L 115,82 L 114,81 L 114,80 L 113,79 L 113,75 L 112,74 L 112,73 L 111,72 L 111,68 L 110,67 L 110,65 L 109,64 L 109,62 L 108,61 L 108,59 L 107,58 L 107,54 L 106,53 L 106,52 L 105,51 L 105,48 L 104,47 L 104,44 L 103,43 L 103,41 L 102,40 L 102,38 L 101,37 L 101,34 L 100,33 L 100,29 L 99,28 L 99,26 L 98,25 L 98,23 L 97,22 L 96,22 L 95,23 L 95,25 L 96,26 L 96,27 L 97,28 L 97,31 L 98,32 L 98,34 L 99,35 L 99,39 L 100,40 L 100,41 L 101,42 L 101,43 L 102,44 L 102,50 L 104,52 L 104,55 L 105,56 L 105,57 L 106,58 L 106,63 L 108,65 L 108,69 L 109,70 L 109,71 L 110,72 L 110,76 L 111,77 L 111,78 L 112,79 L 112,83 L 113,84 L 113,85 L 114,86 L 114,90 L 115,91 L 115,92 L 116,93 L 116,97 L 115,98 L 114,98 L 112,96 L 112,95 L 111,94 L 111,93 L 110,92 L 110,91 L 109,90 L 109,89 L 108,88 L 108,87 L 107,86 L 107,85 L 105,83 L 105,82 L 104,81 L 104,80 L 102,78 L 102,77 L 101,76 L 101,75 L 99,73 L 99,72 L 98,71 L 98,70 L 97,69 L 97,68 L 96,67 L 96,66 L 94,64 L 94,63 L 92,61 L 92,60 L 91,59 L 91,58 L 90,57 L 90,56 L 88,54 L 88,53 L 86,51 L 86,50 L 85,49 L 85,48 L 84,47 L 84,46 L 83,45 L 83,44 L 82,43 L 82,42 L 79,39 L 79,37 L 77,35 L 77,34 L 76,33 L 76,32 L 75,31 L 75,30 L 74,30 L 73,31 L 73,34 L 74,35 L 74,36 L 76,38 L 76,39 L 78,41 L 78,42 L 79,43 L 79,45 L 82,48 L 82,49 L 83,50 L 83,51 L 85,53 L 85,54 L 86,55 L 86,56 L 88,58 L 88,59 L 89,60 L 89,61 L 91,63 L 91,64 L 92,65 L 92,66 L 94,68 L 94,69 L 95,70 L 95,71 L 96,72 L 96,73 L 97,74 L 97,75 L 99,77 L 99,78 L 101,80 L 101,81 L 103,83 L 103,84 L 105,86 L 105,87 L 106,88 L 106,89 L 108,91 L 108,92 L 110,94 L 110,95 L 109,96 L 107,96 L 106,95 L 106,94 L 72,60 L 72,59 L 63,50 L 62,50 L 60,48 L 60,47 L 59,46 L 59,45 L 58,45 L 57,44 L 56,44 L 55,45 L 55,47 L 57,49 L 58,49 L 66,57 L 66,58 L 67,58 L 87,78 L 87,79 L 91,83 L 92,83 L 93,84 L 93,85 L 98,90 L 99,90 L 102,93 L 102,94 L 103,94 L 106,97 L 106,98 L 105,99 L 103,99 L 101,97 L 100,97 L 99,96 L 98,96 L 96,94 L 95,94 L 94,93 L 93,93 L 90,90 L 89,90 L 88,89 L 87,89 L 86,88 L 85,88 L 84,87 L 83,87 L 82,86 L 81,86 L 80,85 L 79,85 L 77,83 L 76,83 L 75,82 L 74,82 L 73,81 L 72,81 L 71,80 L 70,80 L 68,78 L 67,78 L 66,77 L 65,77 L 64,76 L 63,76 L 62,75 L 61,75 L 60,74 L 59,74 L 58,73 L 57,73 L 55,71 L 54,71 L 52,69 L 51,69 L 50,68 L 49,68 L 48,67 L 47,67 L 46,66 L 45,66 L 43,64 L 42,64 L 41,65 L 41,66 L 42,67 L 43,67 L 45,69 L 46,69 L 47,70 L 48,70 L 49,71 L 50,71 L 51,72 L 52,72 L 53,73 L 54,73 L 55,74 L 56,74 L 58,76 L 59,76 L 60,77 L 61,77 L 62,78 L 63,78 L 64,79 L 65,79 L 67,81 L 68,81 L 69,82 L 70,82 L 71,83 L 72,83 L 74,85 L 75,85 L 76,86 L 78,86 L 80,88 L 81,88 L 83,90 L 84,90 L 85,91 L 86,91 L 87,92 L 88,92 L 89,93 L 90,93 L 91,94 L 92,94 L 94,96 L 95,96 L 96,97 L 97,97 L 100,100 L 101,100 L 102,101 L 106,101 L 108,103 L 108,104 L 106,106 L 105,105 L 104,105 L 103,104 L 100,104 L 99,103 L 96,103 L 95,102 L 94,102 L 93,101 L 91,101 L 90,100 L 85,100 L 84,99 L 83,99 L 82,98 L 77,98 L 76,97 L 75,97 L 74,96 L 73,96 L 72,97 L 71,96 L 68,96 L 67,95 L 63,95 L 62,94 L 59,94 L 58,93 L 56,93 L 55,92 L 54,93 L 53,92 L 51,92 L 50,91 L 48,91 L 47,90 L 42,90 L 41,89 L 38,89 L 37,88 L 35,88 L 34,87 L 32,87 L 31,88 L 31,89 L 32,90 L 34,90 L 35,91 L 36,90 L 37,90 L 38,91 L 40,91 L 41,92 L 42,92 L 43,93 L 44,93 L 45,92 L 46,93 L 48,93 L 49,94 L 51,94 L 52,95 L 57,95 L 58,96 L 63,96 L 64,97 L 66,97 L 67,98 L 68,98 L 69,99 L 70,99 L 71,98 L 72,99 L 74,99 L 75,100 L 77,100 L 78,101 L 84,101 L 85,102 L 86,102 L 87,103 L 92,103 L 93,104 L 98,104 L 99,105 L 101,105 L 102,106 L 107,106 L 109,108 L 107,110 L 103,110 L 102,109 L 86,109 L 85,110 L 57,110 L 56,111 L 54,111 L 53,110 L 46,110 L 45,111 L 42,111 L 41,110 L 39,110 L 38,111 L 29,111 L 28,110 L 27,111 L 26,111 L 27,112 L 27,113 L 28,114 L 46,114 L 47,113 L 48,113 L 49,114 L 59,114 L 60,113 L 61,113 L 62,114 L 63,113 L 80,113 L 81,112 L 96,112 L 97,111 L 98,111 L 100,113 L 100,114 L 99,115 L 95,115 L 94,116 L 92,116 L 91,117 L 88,117 L 87,118 L 85,118 L 84,119 L 81,119 L 80,120 L 79,120 L 78,121 L 73,121 L 71,123 L 66,123 L 65,124 L 64,124 L 63,125 L 60,125 L 59,126 L 58,126 L 57,127 L 53,127 L 52,128 L 50,128 L 49,129 L 46,129 L 45,130 L 43,130 L 42,131 L 39,131 L 38,132 L 37,132 L 36,133 L 31,133 L 30,134 L 29,134 L 28,135 L 28,136 L 29,137 L 31,137 L 32,136 L 36,136 L 37,135 L 38,135 L 39,134 L 43,134 L 44,133 L 45,133 L 46,132 L 49,132 L 50,131 L 52,131 L 53,130 L 56,130 L 57,129 L 59,129 L 60,128 L 63,128 L 64,127 L 65,127 L 66,126 L 70,126 L 71,125 L 72,125 L 73,124 L 77,124 L 78,123 L 80,123 L 81,122 L 84,122 L 86,120 L 91,120 L 92,119 L 93,119 L 94,118 L 97,118 L 98,117 L 100,117 L 101,116 L 104,116 L 105,115 L 106,115 L 108,113 L 109,113 L 110,112 L 111,112 L 113,114 L 113,115 L 110,118 L 108,118 L 107,119 L 106,119 L 104,121 L 102,121 L 100,123 L 99,123 L 97,125 L 96,125 L 94,127 L 93,127 L 92,128 L 91,128 L 90,129 L 89,129 L 87,131 L 86,131 L 84,133 L 83,133 L 82,134 L 81,134 L 80,135 L 79,135 L 77,137 L 76,137 L 74,139 L 73,139 L 71,141 L 70,141 L 68,143 L 67,143 L 66,144 L 65,144 L 64,145 L 63,145 L 62,146 L 61,146 L 58,149 L 57,149 L 55,151 L 54,151 L 52,153 L 50,153 L 48,155 L 47,155 L 46,156 L 45,156 L 43,158 L 43,161 L 44,161 L 46,159 L 48,159 L 50,157 L 51,157 L 52,156 L 53,156 L 56,153 L 58,153 L 62,149 L 64,149 L 67,146 L 68,146 L 69,145 L 70,145 L 73,142 L 74,142 L 76,140 L 77,140 L 79,138 L 80,138 L 81,137 L 82,137 L 84,135 L 85,135 L 86,134 L 87,134 L 89,132 L 90,132 L 92,130 L 93,130 L 95,128 L 96,128 L 97,127 L 98,127 L 101,124 L 102,124 L 103,123 L 104,123 L 107,120 L 108,120 L 110,118 L 111,118 L 112,119 L 112,120 L 89,143 L 89,144 L 59,174 L 58,174 L 58,175 L 57,176 L 57,177 L 58,177 L 59,178 L 60,178 L 65,173 L 65,172 L 88,149 L 88,148 L 97,139 L 97,138 L 106,129 L 107,129 L 108,130 L 108,131 L 106,133 L 106,134 L 105,135 L 105,136 L 102,139 L 102,141 L 100,143 L 100,144 L 99,145 L 99,146 L 97,148 L 97,149 L 96,150 L 96,151 L 95,152 L 95,153 L 93,155 L 93,156 L 92,157 L 92,158 L 91,159 L 91,160 L 89,162 L 89,163 L 88,164 L 88,165 L 87,166 L 87,167 L 85,169 L 85,170 L 83,172 L 83,173 L 82,174 L 82,175 L 81,176 L 81,177 L 80,178 L 80,179 L 78,181 L 78,182 L 76,184 L 76,186 L 73,189 L 73,191 L 74,192 L 77,189 L 77,188 L 79,186 L 79,185 L 80,184 L 80,183 L 82,181 L 82,180 L 83,179 L 83,178 L 84,177 L 84,176 L 86,174 L 86,173 L 88,171 L 88,170 L 89,169 L 89,168 L 90,167 L 90,166 L 92,164 L 92,163 L 93,162 L 93,161 L 94,160 L 94,159 L 96,157 L 96,156 L 97,155 L 97,154 L 98,153 L 98,152 L 99,151 L 99,150 L 100,149 L 100,148 L 102,146 L 102,145 L 103,144 L 103,143 L 104,142 L 104,141 L 106,139 L 106,138 L 107,137 L 107,136 L 108,135 L 108,134 L 109,133 L 109,132 L 111,130 L 111,129 L 112,128 L 112,126 L 113,125 L 113,124 L 114,123 L 114,122 L 117,119 L 119,121 L 119,124 L 118,125 L 118,126 L 117,127 L 117,128 L 116,129 L 116,132 L 115,133 L 115,135 L 114,136 L 114,141 L 113,142 L 113,144 L 112,145 L 112,149 L 111,150 L 111,153 L 110,154 L 110,157 L 109,158 L 109,160 L 108,161 L 108,165 L 107,166 L 107,169 L 106,170 L 106,173 L 105,174 L 105,177 L 104,178 L 104,182 L 103,183 L 103,185 L 102,186 L 102,190 L 101,191 L 101,193 L 100,194 L 100,198 L 99,199 L 99,202 L 100,203 L 101,203 L 102,202 L 102,196 L 103,195 L 103,191 L 104,190 L 104,189 L 105,188 L 105,183 L 106,182 L 106,180 L 107,179 L 107,174 L 108,173 L 108,172 L 109,171 L 109,168 L 110,167 L 110,164 L 111,163 L 111,159 L 112,158 L 112,155 L 113,154 L 113,149 L 114,148 L 114,147 L 115,146 L 115,141 L 116,140 L 116,139 L 117,138 L 117,132 L 118,131 L 118,130 L 119,129 L 120,130 L 120,131 L 121,132 L 121,137 L 120,138 L 120,142 L 121,143 L 121,144 L 120,145 L 120,148 L 121,149 L 121,150 L 120,151 L 120,202 L 121,203 L 121,204 L 122,205 L 123,205 L 124,204 L 124,202 L 123,201 L 123,130 L 122,129 L 122,126 L 124,124 L 125,124 L 127,126 L 127,128 L 126,129 L 127,130 L 127,132 L 128,133 L 128,138 L 129,139 L 129,140 L 130,141 L 130,145 L 131,146 L 131,147 L 132,148 L 132,152 L 134,154 L 134,157 L 135,158 L 135,159 L 136,160 L 136,165 L 137,166 L 137,167 L 138,168 L 138,171 L 139,172 L 139,173 L 140,174 L 140,178 L 141,179 L 141,180 L 142,181 L 142,185 L 143,186 L 143,187 L 144,188 L 144,191 L 145,192 L 145,193 L 146,194 L 146,198 L 147,199 L 147,200 L 148,201 L 149,201 L 150,200 L 150,198 L 149,197 L 149,195 L 148,194 L 148,192 L 147,191 L 147,188 L 146,187 L 146,186 L 145,185 L 145,181 L 144,180 L 144,179 L 143,178 L 143,174 L 142,173 L 142,172 L 141,171 L 141,168 L 140,167 L 140,166 L 139,165 L 139,162 L 138,161 L 138,159 L 137,158 L 137,154 L 135,152 L 135,148 L 134,147 L 134,146 L 133,145 L 133,142 L 132,141 L 132,140 L 131,139 L 131,136 L 130,135 L 130,134 L 129,133 L 129,129 L 130,128 L 131,128 L 133,130 L 133,132 L 134,133 L 134,134 L 136,136 L 136,137 L 137,138 L 137,139 L 139,141 L 139,142 L 140,143 L 140,144 L 142,146 L 142,147 L 143,148 L 143,149 L 145,151 L 145,152 L 147,154 L 147,155 L 148,156 L 148,157 L 149,158 L 149,159 L 151,161 L 151,162 L 152,163 L 152,164 L 154,166 L 154,167 L 155,168 L 155,169 L 157,171 L 157,172 L 159,174 L 159,175 L 161,177 L 161,178 L 162,179 L 162,180 L 164,182 L 164,183 L 165,184 L 165,185 L 166,186 L 166,187 L 168,189 L 169,189 L 170,188 L 170,186 L 168,184 L 168,183 L 167,182 L 167,181 L 165,179 L 165,178 L 164,177 L 164,176 L 162,174 L 162,173 L 159,170 L 159,168 L 156,165 L 156,164 L 155,163 L 155,162 L 154,161 L 154,160 L 151,157 L 151,156 L 150,155 L 150,154 L 148,152 L 148,151 L 146,149 L 146,148 L 145,147 L 145,146 L 143,144 L 143,143 L 141,141 L 141,140 L 140,139 L 140,138 L 138,136 L 138,135 L 135,132 L 135,131 L 133,129 L 133,128 L 131,126 L 131,125 L 132,124 L 133,124 L 175,166 L 175,167 L 179,171 L 180,171 L 183,174 L 183,175 L 184,175 L 185,176 L 186,175 L 186,173 L 182,169 L 181,169 L 179,167 L 179,166 L 177,164 L 176,164 L 175,163 L 175,162 L 168,155 L 167,155 L 165,153 L 165,152 L 161,148 L 160,148 L 158,146 L 158,145 L 146,133 L 145,133 L 144,132 L 144,131 L 141,128 L 140,128 L 137,125 L 137,124 L 136,123 L 135,123 L 131,119 L 133,117 L 134,118 L 135,118 L 136,119 L 137,119 L 138,120 L 139,120 L 141,122 L 142,122 L 143,123 L 144,123 L 147,126 L 148,126 L 149,127 L 150,127 L 151,128 L 152,128 L 153,129 L 154,129 L 156,131 L 157,131 L 159,133 L 161,133 L 163,135 L 164,135 L 165,136 L 166,136 L 167,137 L 168,137 L 170,139 L 172,139 L 173,140 L 174,140 L 175,141 L 176,141 L 178,143 L 179,143 L 180,144 L 182,144 L 185,147 L 186,147 L 187,148 L 188,148 L 190,150 L 191,150 L 192,151 L 193,151 L 195,153 L 196,153 L 197,154 L 198,154 L 199,155 L 201,155 L 202,154 L 202,153 L 201,153 L 199,151 L 198,151 L 197,150 L 196,150 L 194,148 L 193,148 L 192,147 L 191,147 L 190,146 L 189,146 L 188,145 L 187,145 L 186,144 L 185,144 L 183,142 L 182,142 L 181,141 L 180,141 L 179,140 L 178,140 L 176,138 L 175,138 L 174,137 L 173,137 L 172,136 L 171,136 L 170,135 L 169,135 L 168,134 L 167,134 L 165,132 L 164,132 L 162,130 L 160,130 L 158,128 L 157,128 L 156,127 L 155,127 L 154,126 L 153,126 L 152,125 L 151,125 L 149,123 L 148,123 L 147,122 L 146,122 L 145,121 L 144,121 L 143,120 L 142,120 L 141,119 L 140,119 L 139,118 L 138,118 L 137,117 L 135,117 L 132,114 L 134,112 L 136,112 L 138,114 L 142,114 L 143,115 L 144,115 L 145,116 L 146,116 L 147,117 L 151,117 L 152,118 L 154,118 L 155,119 L 159,119 L 160,120 L 162,120 L 163,121 L 167,121 L 168,122 L 170,122 L 171,123 L 175,123 L 176,124 L 180,124 L 181,125 L 185,125 L 186,126 L 187,126 L 188,127 L 192,127 L 193,128 L 195,128 L 196,129 L 200,129 L 201,130 L 204,130 L 205,131 L 206,131 L 207,132 L 210,132 L 210,129 L 208,129 L 207,128 L 205,128 L 204,127 L 197,127 L 196,126 L 194,126 L 193,125 L 192,125 L 191,124 L 187,124 L 186,123 L 185,123 L 184,122 L 179,122 L 178,121 L 174,121 L 173,120 L 169,120 L 168,119 L 166,119 L 165,118 L 161,118 L 160,117 L 157,117 L 156,116 L 153,116 L 152,115 L 146,115 L 145,114 L 142,114 L 140,112 L 140,111 L 141,110 L 189,110 L 190,109 L 194,109 L 195,110 L 196,109 L 211,109 L 212,108 L 212,107 L 211,106 L 184,106 L 183,107 L 150,107 L 149,108 L 140,108 L 139,107 L 139,106 L 141,104 L 147,104 L 148,103 L 149,103 L 150,102 L 154,102 L 155,101 L 156,101 L 157,100 L 162,100 L 163,99 L 164,99 L 165,98 L 168,98 L 169,97 L 171,97 L 172,96 L 175,96 L 176,95 L 178,95 L 179,94 L 182,94 L 183,93 L 184,93 L 185,92 L 190,92 L 192,90 L 196,90 L 197,89 L 198,89 L 199,88 L 204,88 L 205,87 L 206,87 L 207,86 L 209,86 L 209,83 L 207,83 L 206,84 L 204,84 L 203,85 L 199,85 L 198,86 L 197,86 L 196,87 L 192,87 L 190,89 L 185,89 L 183,91 L 179,91 L 178,92 L 176,92 L 175,93 L 172,93 L 171,94 L 170,94 L 169,95 L 165,95 L 164,96 L 163,96 L 162,97 L 158,97 L 156,99 L 152,99 L 151,100 L 149,100 L 148,101 L 145,101 L 144,102 L 143,102 L 142,103 L 140,103 L 139,102 L 139,101 L 141,99 L 142,99 L 143,98 L 144,98 L 145,97 L 146,97 L 148,95 L 150,95 L 152,93 L 153,93 L 155,91 L 156,91 L 157,90 L 158,90 L 159,89 L 160,89 L 161,88 L 162,88 L 165,85 L 166,85 L 167,84 L 168,84 L 169,83 L 170,83 L 173,80 L 174,80 L 175,79 L 176,79 L 177,78 L 178,78 L 179,77 L 180,77 L 182,75 L 183,75 L 186,72 L 187,72 L 188,71 L 190,71 L 193,68 L 194,68 L 196,66 L 197,66 L 198,65 L 199,65 L 200,64 L 201,64 L 201,63 L 202,62 L 201,61 L 200,61 L 199,60 L 196,63 L 195,63 L 193,65 L 192,65 L 190,67 L 189,67 L 187,69 L 186,69 L 185,70 L 184,70 L 181,73 L 180,73 L 179,74 L 177,74 L 174,77 L 173,77 L 172,78 L 171,78 L 169,80 L 168,80 L 166,82 L 165,82 L 164,83 L 163,83 L 162,84 L 161,84 L 158,87 L 157,87 L 156,88 L 155,88 L 153,90 L 152,90 L 151,91 L 150,91 L 148,93 L 147,93 L 146,94 L 145,94 L 141,98 L 140,98 L 138,100 L 137,100 L 136,101 L 134,99 L 135,98 L 135,97 L 136,96 L 137,96 L 167,66 L 167,65 L 180,52 L 181,52 L 181,51 L 186,46 L 186,43 L 185,42 L 184,42 L 184,43 L 172,55 L 172,56 L 162,66 L 162,67 L 138,91 L 138,92 L 132,98 L 130,96 L 130,94 L 135,89 L 135,87 L 137,85 L 137,84 L 139,82 L 139,81 L 140,80 L 140,79 L 142,77 L 142,76 L 143,75 L 143,73 L 146,70 L 146,69 L 148,67 L 148,66 L 149,65 L 149,64 L 150,63 L 150,62 L 152,60 L 152,59 L 154,57 L 154,56 L 155,55 L 155,54 L 156,53 L 156,52 L 158,50 L 158,49 L 160,47 L 160,46 L 161,45 L 161,44 L 163,42 L 163,41 L 164,40 L 164,39 L 165,38 L 165,37 L 166,36 L 166,35 L 167,34 L 167,33 L 164,33 L 163,34 L 163,35 L 162,36 L 162,38 L 159,41 L 159,42 L 158,43 L 158,44 L 157,45 L 157,46 L 156,47 L 156,48 L 155,49 L 155,50 L 153,52 L 153,53 L 151,55 L 151,56 L 149,58 L 149,59 L 148,60 L 148,61 L 145,64 L 145,66 L 144,67 L 144,68 L 141,71 L 141,72 L 140,73 L 140,75 L 137,78 L 137,80 L 136,81 L 136,82 L 134,84 L 134,85 L 133,86 L 133,87 L 132,88 L 132,89 L 131,90 L 129,90 L 128,89 L 128,87 L 129,86 L 129,84 L 130,83 L 130,80 L 131,79 L 131,75 L 132,74 L 132,72 L 133,71 L 133,70 L 134,69 L 134,68 L 133,67 L 133,66 L 134,65 L 134,64 L 135,63 L 135,58 L 136,57 L 136,56 L 137,55 L 137,51 L 138,50 L 138,48 L 139,47 L 139,42 L 140,41 L 140,39 L 141,38 L 141,34 L 142,33 L 142,32 L 143,31 L 143,26 L 144,25 L 144,24 L 145,23 L 145,22 L 143,20 L 142,20 L 141,21 L 141,23 L 142,24 L 142,25 L 141,26 L 141,27 L 140,28 L 140,33 L 139,34 L 139,35 L 138,36 L 138,41 L 137,42 L 137,43 L 136,44 L 136,49 L 135,50 L 135,52 L 134,53 L 134,57 L 133,58 L 133,61 L 132,62 L 132,64 L 131,65 L 132,66 L 131,67 L 131,70 L 130,71 L 130,74 L 129,75 L 129,77 L 128,78 L 128,84 L 127,85 L 127,87 L 126,88 L 126,89 L 125,90 L 123,88 L 123,21 L 124,20 L 124,19 L 123,18 Z" fill="black" /><path d="M 0,0 L 0,216 L 256,216 L 256,0 Z" fill="none" stroke="black" stroke-width="1" /></svg>