<?xml version='1.0' encoding='utf-8'?>
<svg width="257" height="218" xmlns="http://www.w3.org/2000/svg" viewBox="0 0 257 218"><rect width="257" height="218" fill="white" /><path d="M 124,9 L 123,10 L 115,10 L 114,11 L 106,11 L 105,12 L 105,17 L 104,18 L 104,19 L 103,20 L 96,20 L 95,19 L 95,18 L 94,17 L 94,16 L 89,16 L 87,18 L 85,18 L 85,19 L 82,22 L 79,22 L 78,23 L 77,23 L 74,26 L 74,30 L 72,32 L 67,32 L 66,33 L 65,33 L 63,35 L 63,37 L 62,38 L 62,39 L 61,40 L 61,43 L 60,44 L 53,44 L 53,45 L 51,47 L 51,53 L 50,54 L 48,54 L 47,55 L 46,55 L 45,56 L 43,56 L 43,57 L 41,59 L 41,63 L 40,64 L 39,64 L 39,65 L 38,66 L 38,67 L 37,68 L 37,70 L 35,72 L 35,75 L 36,76 L 37,76 L 39,78 L 39,83 L 40,84 L 37,87 L 36,87 L 34,85 L 34,80 L 33,80 L 32,79 L 30,81 L 30,83 L 31,84 L 31,96 L 29,98 L 29,102 L 28,103 L 28,106 L 29,107 L 29,108 L 31,110 L 31,114 L 30,115 L 30,120 L 32,120 L 33,119 L 40,119 L 41,120 L 41,126 L 39,128 L 32,128 L 32,131 L 33,132 L 33,135 L 34,136 L 34,137 L 35,138 L 35,139 L 36,140 L 40,140 L 41,141 L 41,147 L 40,148 L 40,149 L 39,150 L 40,151 L 50,151 L 51,152 L 51,158 L 50,159 L 43,159 L 43,161 L 45,161 L 51,167 L 51,168 L 52,168 L 52,164 L 55,161 L 62,161 L 63,162 L 63,169 L 62,170 L 59,170 L 58,171 L 55,171 L 55,173 L 57,175 L 58,175 L 59,176 L 59,177 L 60,177 L 61,178 L 61,179 L 62,180 L 65,180 L 65,173 L 66,172 L 72,172 L 73,173 L 73,179 L 71,181 L 68,181 L 67,182 L 67,184 L 68,184 L 69,185 L 70,185 L 71,186 L 73,186 L 73,184 L 74,183 L 83,183 L 84,184 L 84,189 L 83,190 L 83,192 L 84,193 L 85,192 L 90,192 L 91,193 L 93,193 L 94,194 L 94,196 L 95,197 L 96,197 L 97,198 L 100,198 L 101,199 L 104,199 L 105,198 L 105,193 L 106,192 L 107,192 L 108,191 L 111,191 L 112,192 L 113,192 L 115,194 L 115,195 L 116,196 L 116,198 L 115,199 L 115,201 L 116,202 L 118,202 L 119,201 L 125,201 L 127,203 L 128,203 L 129,202 L 128,201 L 128,200 L 127,199 L 127,194 L 129,192 L 133,192 L 134,191 L 136,191 L 137,192 L 137,200 L 136,201 L 137,202 L 139,202 L 140,201 L 144,201 L 145,200 L 146,200 L 147,199 L 147,198 L 148,197 L 148,192 L 149,191 L 156,191 L 157,192 L 157,193 L 159,195 L 165,195 L 166,194 L 167,194 L 168,193 L 169,193 L 171,191 L 173,191 L 173,189 L 174,188 L 176,188 L 177,187 L 178,187 L 178,185 L 179,184 L 180,184 L 180,182 L 181,181 L 188,181 L 188,180 L 190,178 L 190,173 L 191,172 L 196,172 L 197,171 L 198,171 L 200,169 L 200,168 L 201,167 L 201,166 L 202,165 L 202,164 L 203,163 L 204,163 L 205,162 L 206,162 L 207,161 L 207,159 L 208,158 L 208,157 L 210,155 L 210,154 L 211,153 L 211,152 L 212,151 L 212,150 L 214,148 L 214,147 L 216,145 L 216,140 L 217,139 L 217,137 L 213,137 L 212,136 L 212,135 L 211,134 L 211,133 L 213,131 L 215,131 L 216,130 L 216,129 L 217,128 L 220,128 L 221,127 L 221,126 L 222,125 L 222,116 L 223,115 L 223,114 L 224,113 L 224,103 L 223,102 L 224,101 L 224,98 L 223,97 L 223,96 L 224,95 L 224,93 L 223,93 L 222,94 L 222,95 L 221,96 L 218,96 L 217,95 L 216,95 L 214,93 L 214,92 L 213,91 L 213,90 L 215,88 L 222,88 L 222,82 L 221,81 L 221,80 L 218,77 L 218,76 L 219,75 L 219,74 L 218,73 L 217,73 L 216,74 L 215,73 L 213,73 L 212,72 L 212,71 L 211,70 L 211,69 L 213,67 L 214,67 L 215,66 L 216,66 L 217,65 L 211,59 L 211,62 L 209,64 L 206,64 L 205,63 L 203,63 L 201,61 L 202,60 L 202,58 L 203,57 L 204,57 L 205,56 L 204,55 L 204,45 L 203,44 L 201,44 L 200,43 L 200,42 L 198,40 L 197,40 L 196,39 L 196,38 L 194,36 L 193,36 L 192,35 L 192,34 L 190,32 L 187,32 L 181,26 L 178,26 L 178,30 L 177,31 L 171,31 L 169,29 L 169,26 L 171,24 L 175,24 L 175,22 L 173,20 L 160,20 L 158,18 L 158,15 L 157,15 L 155,13 L 153,13 L 152,12 L 146,12 L 145,11 L 144,11 L 143,10 L 128,10 L 127,9 Z" fill="black" /></svg>