<?xml version='1.0' encoding='utf-8'?>
<svg width="257" height="217" xmlns="http://www.w3.org/2000/svg" viewBox="0 0 257 217"><rect width="257" height="217" fill="white" /><path d="M 115,62 L 114,63 L 112,63 L 111,64 L 108,64 L 107,65 L 106,65 L 105,66 L 103,66 L 101,68 L 100,68 L 99,69 L 98,69 L 97,70 L 96,70 L 96,71 L 95,72 L 94,72 L 92,74 L 91,74 L 89,76 L 88,76 L 88,77 L 87,78 L 86,78 L 86,79 L 82,83 L 82,84 L 81,85 L 80,85 L 80,86 L 78,88 L 78,89 L 76,91 L 76,93 L 74,95 L 74,97 L 73,98 L 73,99 L 72,100 L 72,103 L 71,104 L 71,105 L 70,106 L 70,112 L 69,113 L 69,128 L 70,129 L 70,135 L 71,136 L 71,137 L 72,138 L 72,141 L 73,142 L 73,143 L 74,144 L 74,146 L 76,148 L 76,149 L 77,150 L 77,151 L 78,152 L 78,153 L 81,156 L 81,157 L 82,158 L 82,159 L 83,159 L 84,160 L 84,161 L 88,165 L 89,165 L 90,166 L 90,167 L 91,167 L 93,169 L 94,169 L 96,171 L 97,171 L 99,173 L 101,173 L 103,175 L 105,175 L 106,176 L 107,176 L 108,177 L 110,177 L 111,178 L 113,178 L 114,179 L 119,179 L 120,180 L 127,180 L 128,181 L 130,181 L 131,180 L 136,180 L 137,179 L 142,179 L 143,178 L 145,178 L 146,177 L 149,177 L 151,175 L 153,175 L 155,173 L 157,173 L 159,171 L 160,171 L 162,169 L 163,169 L 168,164 L 169,164 L 171,162 L 171,161 L 173,159 L 173,158 L 176,155 L 177,155 L 177,152 L 178,151 L 179,151 L 179,150 L 180,149 L 180,148 L 181,147 L 181,146 L 183,144 L 183,141 L 184,140 L 184,138 L 185,137 L 185,135 L 186,134 L 186,133 L 187,132 L 187,108 L 186,107 L 186,106 L 185,105 L 185,101 L 183,99 L 183,98 L 182,97 L 182,96 L 181,95 L 181,93 L 180,92 L 180,91 L 179,90 L 179,88 L 178,88 L 177,87 L 177,86 L 175,84 L 175,83 L 170,78 L 169,78 L 163,72 L 162,72 L 161,71 L 160,71 L 159,70 L 158,70 L 156,68 L 154,68 L 152,66 L 150,66 L 148,64 L 144,64 L 143,63 L 140,63 L 139,62 Z" fill="black" /></svg>