<?xml version='1.0' encoding='utf-8'?>
<svg width="258" height="215" xmlns="http://www.w3.org/2000/svg" viewBox="0 0 258 215"><rect width="258" height="215" fill="white" /><path d="M 108,180 L 107,181 L 107,183 L 108,184 L 110,184 L 111,185 L 114,185 L 115,186 L 123,186 L 124,187 L 130,187 L 132,185 L 132,183 L 131,183 L 130,182 L 127,182 L 126,183 L 122,183 L 121,182 L 120,182 L 119,181 L 112,181 L 111,180 Z" fill="black" /><path d="M 158,177 L 157,178 L 156,178 L 155,179 L 152,179 L 151,180 L 148,180 L 147,181 L 142,181 L 141,182 L 141,185 L 145,185 L 146,184 L 152,184 L 153,183 L 155,183 L 156,182 L 158,182 L 160,180 L 160,179 Z" fill="black" /><path d="M 184,162 L 183,163 L 181,163 L 177,167 L 176,167 L 176,168 L 175,169 L 174,169 L 173,170 L 172,170 L 171,171 L 169,171 L 168,172 L 168,176 L 172,176 L 176,172 L 179,172 L 186,165 L 186,164 Z" fill="black" /><path d="M 71,158 L 70,159 L 70,163 L 72,165 L 72,166 L 73,166 L 75,168 L 76,168 L 78,170 L 79,170 L 81,172 L 82,172 L 83,173 L 85,173 L 88,176 L 89,176 L 90,177 L 92,177 L 93,176 L 93,175 L 91,173 L 89,173 L 85,169 L 84,169 L 82,167 L 81,167 L 73,159 L 72,159 Z" fill="black" /><path d="M 204,135 L 203,136 L 201,136 L 201,138 L 200,139 L 200,141 L 197,144 L 197,145 L 195,147 L 194,147 L 194,149 L 193,150 L 193,152 L 192,153 L 192,154 L 191,155 L 191,156 L 192,157 L 193,156 L 194,156 L 196,154 L 196,153 L 199,150 L 199,149 L 201,147 L 201,146 L 203,144 L 203,143 L 204,142 L 204,140 L 206,138 L 206,137 Z" fill="black" /><path d="M 53,128 L 53,138 L 54,139 L 54,140 L 55,141 L 55,142 L 56,143 L 56,144 L 57,145 L 57,146 L 58,147 L 58,148 L 59,149 L 59,150 L 63,154 L 66,154 L 67,153 L 67,151 L 63,147 L 63,146 L 61,144 L 61,143 L 59,141 L 59,139 L 58,138 L 58,137 L 57,136 L 57,133 L 56,132 L 56,131 L 55,130 L 55,129 L 54,128 Z" fill="black" /><path d="M 211,102 L 210,103 L 210,108 L 209,109 L 208,109 L 208,113 L 209,114 L 209,118 L 208,119 L 206,119 L 206,121 L 207,121 L 208,122 L 208,124 L 207,125 L 206,125 L 206,128 L 207,129 L 208,128 L 209,128 L 210,127 L 210,123 L 211,122 L 211,118 L 212,117 L 212,115 L 213,114 L 213,103 L 212,102 Z" fill="black" /><path d="M 49,95 L 48,96 L 48,105 L 46,107 L 46,108 L 47,109 L 47,110 L 48,111 L 48,115 L 49,116 L 51,116 L 52,115 L 52,112 L 53,111 L 53,104 L 52,103 L 52,96 L 51,95 Z" fill="black" /><path d="M 203,68 L 202,69 L 202,74 L 203,75 L 203,76 L 204,77 L 204,79 L 205,80 L 205,81 L 206,82 L 206,84 L 207,85 L 207,87 L 208,88 L 208,90 L 209,91 L 209,92 L 208,93 L 208,94 L 211,94 L 212,93 L 212,88 L 211,87 L 211,82 L 210,81 L 210,80 L 209,79 L 209,76 L 208,75 L 208,74 L 207,73 L 207,71 L 205,69 L 204,69 Z" fill="black" /><path d="M 62,60 L 59,63 L 58,63 L 56,65 L 56,68 L 54,70 L 54,72 L 53,73 L 53,74 L 50,77 L 50,79 L 52,81 L 54,81 L 55,80 L 55,79 L 57,77 L 57,75 L 59,73 L 59,71 L 62,68 L 62,67 L 64,65 L 64,62 Z" fill="black" /><path d="M 182,43 L 182,48 L 185,48 L 187,50 L 188,50 L 192,54 L 192,57 L 194,59 L 194,60 L 196,62 L 196,63 L 199,63 L 200,62 L 200,60 L 199,59 L 199,57 L 195,53 L 195,51 L 193,49 L 192,49 L 191,48 L 191,47 L 190,47 L 189,46 L 189,45 L 188,45 L 186,43 Z" fill="black" /><path d="M 84,35 L 82,37 L 81,37 L 79,39 L 78,39 L 75,42 L 76,43 L 76,47 L 74,49 L 71,46 L 70,46 L 70,47 L 69,48 L 69,50 L 70,51 L 75,51 L 77,49 L 77,48 L 82,43 L 83,43 L 84,42 L 85,42 L 87,40 L 87,36 L 86,36 L 85,35 Z" fill="black" /><path d="M 158,27 L 158,28 L 157,29 L 157,31 L 158,32 L 161,32 L 162,33 L 162,34 L 166,34 L 167,35 L 168,35 L 172,39 L 176,39 L 177,38 L 177,36 L 176,35 L 173,35 L 171,33 L 171,31 L 167,31 L 166,30 L 166,29 L 164,29 L 162,27 Z" fill="black" /><path d="M 113,23 L 112,24 L 109,24 L 107,26 L 103,26 L 102,27 L 101,27 L 99,29 L 98,29 L 97,30 L 95,30 L 94,31 L 93,31 L 93,32 L 95,34 L 99,34 L 99,33 L 100,32 L 104,32 L 106,30 L 110,30 L 111,29 L 113,29 L 114,28 L 116,28 L 117,27 L 116,26 L 116,24 L 115,23 Z" fill="black" /><path d="M 130,21 L 129,22 L 126,22 L 125,23 L 124,23 L 123,24 L 124,25 L 124,26 L 138,26 L 139,27 L 143,27 L 144,28 L 145,28 L 146,29 L 148,27 L 147,26 L 147,24 L 146,23 L 144,23 L 142,21 L 136,21 L 134,23 L 133,23 L 131,21 Z" fill="black" /><path d="M 0,0 L 0,214 L 257,214 L 257,0 Z" fill="none" stroke="black" stroke-width="1" /></svg>