<?xml version="1.0" encoding="utf-8" ?>
<svg baseProfile="full" height="218" version="1.1" width="262" xmlns="http://www.w3.org/2000/svg" xmlns:ev="http://www.w3.org/2001/xml-events" xmlns:xlink="http://www.w3.org/1999/xlink"><defs /><rect fill="white" height="218" width="262" x="0" y="0" /><path d="M 233,202 L 199,183 L 225,191 L 231,180 Z" fill="black" stroke="black" stroke-width="1" /><path d="M 159,163 L 170,163 L 191,179 L 179,178 L 160,168 Z" fill="black" stroke="black" stroke-width="1" /><path d="M 124,144 L 131,143 L 154,158 L 145,160 L 126,150 Z" fill="black" stroke="black" stroke-width="1" /><path d="M 230,140 L 232,168 L 227,171 L 225,146 Z" fill="black" stroke="black" stroke-width="1" /><path d="M 89,126 L 112,133 L 116,141 L 112,143 L 94,134 Z" fill="black" stroke="black" stroke-width="1" /><path d="M 46,106 L 61,99 L 62,109 L 79,121 L 74,123 Z" fill="black" stroke="black" stroke-width="1" /><path d="M 228,98 L 232,101 L 231,132 L 224,130 L 224,103 Z" fill="black" stroke="black" stroke-width="1" /><path d="M 91,87 L 88,94 L 70,102 L 65,99 L 70,93 Z" fill="black" stroke="black" stroke-width="1" /><path d="M 126,71 L 122,78 L 98,85 L 99,79 Z" fill="black" stroke="black" stroke-width="1" /><path d="M 230,58 L 232,88 L 228,92 L 224,60 Z" fill="black" stroke="black" stroke-width="1" /><path d="M 161,57 L 153,64 L 134,69 L 139,61 L 156,54 Z" fill="black" stroke="black" stroke-width="1" /><path d="M 194,40 L 191,46 L 166,54 L 170,47 Z" fill="black" stroke="black" stroke-width="1" /><path d="M 231,19 L 227,53 L 225,31 L 206,39 L 204,32 Z" fill="black" stroke="black" stroke-width="1" /><path d="M 0,0 L 0,217 L 261,217 L 261,0 Z" fill="none" stroke="black" stroke-width="1" /></svg>