<?xml version="1.0" encoding="utf-8" ?>
<svg baseProfile="full" height="215" version="1.1" width="258" xmlns="http://www.w3.org/2000/svg" xmlns:ev="http://www.w3.org/2001/xml-events" xmlns:xlink="http://www.w3.org/1999/xlink"><defs /><rect fill="white" height="215" width="258" x="0" y="0" /><path d="M 106,181 L 130,181 L 133,185 L 130,188 L 115,187 Z" fill="black" stroke="black" stroke-width="1" /><path d="M 161,179 L 152,185 L 140,185 L 142,180 L 158,176 Z" fill="black" stroke="black" stroke-width="1" /><path d="M 187,164 L 179,173 L 167,176 L 167,172 L 181,162 Z" fill="black" stroke="black" stroke-width="1" /><path d="M 69,159 L 73,158 L 94,176 L 90,178 L 72,167 Z" fill="black" stroke="black" stroke-width="1" /><path d="M 204,134 L 207,138 L 192,158 L 193,147 Z" fill="black" stroke="black" stroke-width="1" /><path d="M 53,127 L 68,151 L 66,155 L 58,150 L 52,138 Z" fill="black" stroke="black" stroke-width="1" /><path d="M 212,101 L 214,114 L 207,130 L 205,119 Z" fill="black" stroke="black" stroke-width="1" /><path d="M 49,94 L 53,96 L 54,104 L 51,117 L 45,108 Z" fill="black" stroke="black" stroke-width="1" /><path d="M 203,67 L 212,82 L 211,95 L 207,94 L 201,74 Z" fill="black" stroke="black" stroke-width="1" /><path d="M 62,59 L 65,65 L 52,82 L 49,77 Z" fill="black" stroke="black" stroke-width="1" /><path d="M 182,42 L 196,51 L 201,60 L 199,64 L 181,48 Z" fill="black" stroke="black" stroke-width="1" /><path d="M 88,36 L 75,52 L 68,50 L 70,45 L 75,47 L 78,38 L 84,34 Z" fill="black" stroke="black" stroke-width="1" /><path d="M 156,29 L 162,26 L 178,38 L 172,40 Z" fill="black" stroke="black" stroke-width="1" /><path d="M 118,27 L 99,35 L 92,32 L 113,22 Z" fill="black" stroke="black" stroke-width="1" /><path d="M 122,24 L 142,20 L 149,27 L 146,30 Z" fill="black" stroke="black" stroke-width="1" /><path d="M 0,0 L 0,214 L 257,214 L 257,0 Z" fill="none" stroke="black" stroke-width="1" /></svg>