<?xml version="1.0" encoding="utf-8" ?>
<svg baseProfile="full" height="218" version="1.1" width="257" xmlns="http://www.w3.org/2000/svg" xmlns:ev="http://www.w3.org/2001/xml-events" xmlns:xlink="http://www.w3.org/1999/xlink"><defs /><rect fill="white" height="218" width="257" x="0" y="0" /><path d="M 159,185 L 160,191 L 168,190 L 168,185 Z" fill="none" stroke="black" stroke-width="1" /><path d="M 137,185 L 139,191 L 146,191 L 145,184 Z" fill="none" stroke="black" stroke-width="1" /><path d="M 117,184 L 117,189 L 119,191 L 124,191 L 125,184 Z" fill="none" stroke="black" stroke-width="1" /><circle cx="99.5" cy="187.0" fill="none" r="5.4084272384643555" stroke="black" stroke-width="1" /><path d="M 171,173 L 171,179 L 178,179 L 178,172 Z" fill="none" stroke="black" stroke-width="1" /><circle cx="152.64285278320312" cy="175.64285278320312" fill="none" r="4.953968524932861" stroke="black" stroke-width="1" /><path d="M 127,172 L 128,179 L 137,178 L 134,172 Z" fill="none" stroke="black" stroke-width="1" /><circle cx="110.5" cy="176.07142639160156" fill="none" r="5.369132995605469" stroke="black" stroke-width="1" /><circle cx="89.5" cy="176.5" fill="none" r="5.147915363311768" stroke="black" stroke-width="1" /><path d="M 179,166 L 180,168 L 188,168 L 188,163 L 181,163 Z" fill="none" stroke="black" stroke-width="1" /><path d="M 160,162 L 160,169 L 168,168 L 168,162 Z" fill="none" stroke="black" stroke-width="1" /><path d="M 138,163 L 139,168 L 147,167 L 144,162 Z" fill="none" stroke="black" stroke-width="1" /><path d="M 117,162 L 118,169 L 125,168 L 125,162 Z" fill="none" stroke="black" stroke-width="1" /><path d="M 96,162 L 96,169 L 105,169 L 104,162 Z" fill="none" stroke="black" stroke-width="1" /><path d="M 75,163 L 76,169 L 83,168 L 82,162 Z" fill="none" stroke="black" stroke-width="1" /><circle cx="58.0" cy="154.5" fill="none" r="2.061652660369873" stroke="black" stroke-width="1" /><path d="M 192,153 L 193,159 L 199,158 L 199,153 Z" fill="none" stroke="black" stroke-width="1" /><path d="M 171,152 L 171,159 L 178,158 L 178,152 Z" fill="none" stroke="black" stroke-width="1" /><path d="M 149,152 L 149,159 L 155,159 L 157,153 Z" fill="none" stroke="black" stroke-width="1" /><path d="M 128,153 L 129,158 L 136,158 L 136,152 Z" fill="none" stroke="black" stroke-width="1" /><path d="M 107,152 L 107,158 L 114,158 L 116,156 L 116,152 Z" fill="none" stroke="black" stroke-width="1" /><path d="M 85,152 L 85,158 L 94,158 L 93,152 Z" fill="none" stroke="black" stroke-width="1" /><path d="M 66,152 L 66,158 L 71,158 L 71,152 Z" fill="none" stroke="black" stroke-width="1" /><circle cx="47.5" cy="144.0" fill="none" r="2.061652660369873" stroke="black" stroke-width="1" /><path d="M 202,141 L 203,148 L 210,147 L 210,141 Z" fill="none" stroke="black" stroke-width="1" /><path d="M 181,141 L 181,147 L 189,148 L 189,141 Z" fill="none" stroke="black" stroke-width="1" /><path d="M 139,141 L 139,147 L 146,148 L 146,141 Z" fill="none" stroke="black" stroke-width="1" /><path d="M 95,142 L 95,147 L 104,147 L 104,141 Z" fill="none" stroke="black" stroke-width="1" /><circle cx="163.5" cy="144.0" fill="none" r="5.4084272384643555" stroke="black" stroke-width="1" /><circle cx="120.80769348144531" cy="144.1923065185547" fill="none" r="4.731024265289307" stroke="black" stroke-width="1" /><path d="M 75,141 L 75,147 L 83,147 L 83,141 Z" fill="none" stroke="black" stroke-width="1" /><path d="M 55,141 L 55,147 L 62,146 L 62,141 Z" fill="none" stroke="black" stroke-width="1" /><path d="M 192,131 L 192,137 L 200,136 L 200,132 Z" fill="none" stroke="black" stroke-width="1" /><path d="M 171,131 L 171,137 L 178,137 L 179,132 Z" fill="none" stroke="black" stroke-width="1" /><path d="M 148,132 L 150,137 L 156,137 L 156,131 Z" fill="none" stroke="black" stroke-width="1" /><path d="M 128,130 L 128,137 L 136,136 L 136,130 Z" fill="none" stroke="black" stroke-width="1" /><path d="M 105,135 L 113,137 L 115,136 L 115,130 L 107,130 Z" fill="none" stroke="black" stroke-width="1" /><path d="M 85,130 L 85,136 L 94,136 L 94,132 L 92,130 Z" fill="none" stroke="black" stroke-width="1" /><path d="M 43,130 L 43,136 L 50,136 L 50,130 Z" fill="none" stroke="black" stroke-width="1" /><path d="M 67,129 L 66,136 L 67,137 L 71,136 L 71,130 Z" fill="none" stroke="black" stroke-width="1" /><path d="M 203,120 L 203,127 L 210,127 L 210,120 Z" fill="none" stroke="black" stroke-width="1" /><path d="M 180,121 L 183,124 L 183,127 L 189,126 L 189,120 Z" fill="none" stroke="black" stroke-width="1" /><path d="M 159,120 L 159,125 L 161,127 L 169,126 L 168,120 Z" fill="none" stroke="black" stroke-width="1" /><path d="M 137,122 L 138,126 L 147,125 L 144,120 L 139,120 Z" fill="none" stroke="black" stroke-width="1" /><path d="M 96,120 L 97,127 L 106,126 L 104,120 Z" fill="none" stroke="black" stroke-width="1" /><path d="M 75,120 L 75,127 L 83,127 L 83,120 Z" fill="none" stroke="black" stroke-width="1" /><path d="M 55,120 L 54,125 L 61,127 L 61,120 Z" fill="none" stroke="black" stroke-width="1" /><path d="M 127,120 L 117,120 L 117,126 L 125,126 Z" fill="none" stroke="black" stroke-width="1" /><path d="M 213,109 L 213,115 L 220,115 L 222,110 L 221,109 Z" fill="none" stroke="black" stroke-width="1" /><path d="M 192,109 L 192,115 L 201,114 L 200,109 Z" fill="none" stroke="black" stroke-width="1" /><path d="M 168,110 L 170,115 L 179,115 L 178,109 Z" fill="none" stroke="black" stroke-width="1" /><path d="M 149,109 L 148,116 L 157,115 L 157,109 Z" fill="none" stroke="black" stroke-width="1" /><path d="M 128,109 L 128,115 L 134,116 L 134,112 L 136,110 Z" fill="none" stroke="black" stroke-width="1" /><path d="M 42,110 L 43,116 L 50,116 L 49,109 Z" fill="none" stroke="black" stroke-width="1" /><path d="M 115,108 L 107,109 L 107,116 L 115,116 Z" fill="none" stroke="black" stroke-width="1" /><circle cx="88.76667022705078" cy="111.76667022705078" fill="none" r="5.326966285705566" stroke="black" stroke-width="1" /><path d="M 65,109 L 65,115 L 72,116 L 72,109 Z" fill="none" stroke="black" stroke-width="1" /><path d="M 32,99 L 32,107 L 40,105 L 40,99 Z" fill="none" stroke="black" stroke-width="1" /><path d="M 203,98 L 203,104 L 211,103 L 210,98 Z" fill="none" stroke="black" stroke-width="1" /><path d="M 189,98 L 181,99 L 180,103 L 189,104 Z" fill="none" stroke="black" stroke-width="1" /><path d="M 160,98 L 159,105 L 168,105 L 167,98 Z" fill="none" stroke="black" stroke-width="1" /><path d="M 139,98 L 139,105 L 146,105 L 146,98 Z" fill="none" stroke="black" stroke-width="1" /><circle cx="121.66000366210938" cy="101.63999938964844" fill="none" r="4.940258979797363" stroke="black" stroke-width="1" /><path d="M 97,98 L 96,106 L 103,105 L 104,99 Z" fill="none" stroke="black" stroke-width="1" /><circle cx="78.64286041259766" cy="102.0" fill="none" r="4.794332504272461" stroke="black" stroke-width="1" /><path d="M 54,98 L 54,105 L 61,106 L 61,98 Z" fill="none" stroke="black" stroke-width="1" /><circle cx="196.0" cy="91.41666412353516" fill="none" r="4.673457145690918" stroke="black" stroke-width="1" /><path d="M 171,88 L 171,94 L 178,94 L 178,88 Z" fill="none" stroke="black" stroke-width="1" /><path d="M 149,88 L 149,94 L 156,94 L 158,89 L 157,88 Z" fill="none" stroke="black" stroke-width="1" /><path d="M 127,89 L 129,94 L 136,94 L 135,88 Z" fill="none" stroke="black" stroke-width="1" /><path d="M 106,89 L 107,94 L 116,93 L 114,88 Z" fill="none" stroke="black" stroke-width="1" /><path d="M 85,88 L 85,94 L 93,94 L 93,88 Z" fill="none" stroke="black" stroke-width="1" /><path d="M 65,88 L 65,94 L 70,94 L 70,88 Z" fill="none" stroke="black" stroke-width="1" /><path d="M 43,88 L 43,94 L 49,94 L 50,89 Z" fill="none" stroke="black" stroke-width="1" /><circle cx="46.0" cy="80.5" fill="none" r="2.061652660369873" stroke="black" stroke-width="1" /><path d="M 203,77 L 203,84 L 211,84 L 213,82 L 211,78 Z" fill="none" stroke="black" stroke-width="1" /><circle cx="185.22222900390625" cy="81.0" fill="none" r="5.1795878410339355" stroke="black" stroke-width="1" /><path d="M 160,77 L 160,84 L 168,83 L 167,77 Z" fill="none" stroke="black" stroke-width="1" /><path d="M 139,77 L 139,83 L 146,84 L 146,77 Z" fill="none" stroke="black" stroke-width="1" /><circle cx="121.5" cy="81.5" fill="none" r="5.147915363311768" stroke="black" stroke-width="1" /><path d="M 95,81 L 96,84 L 105,82 L 103,77 L 97,77 Z" fill="none" stroke="black" stroke-width="1" /><path d="M 75,77 L 75,83 L 83,82 L 82,77 Z" fill="none" stroke="black" stroke-width="1" /><path d="M 54,78 L 54,83 L 61,83 L 61,78 Z" fill="none" stroke="black" stroke-width="1" /><path d="M 190,69 L 193,73 L 199,73 L 201,71 L 200,68 Z" fill="none" stroke="black" stroke-width="1" /><circle cx="57.0" cy="70.0" fill="none" r="2.2361679077148438" stroke="black" stroke-width="1" /><path d="M 169,68 L 171,73 L 178,73 L 178,68 Z" fill="none" stroke="black" stroke-width="1" /><path d="M 149,67 L 149,73 L 157,72 L 157,67 Z" fill="none" stroke="black" stroke-width="1" /><path d="M 43,67 L 43,73 L 49,73 L 49,67 Z" fill="none" stroke="black" stroke-width="1" /><circle cx="132.0" cy="70.0" fill="none" r="4.472236156463623" stroke="black" stroke-width="1" /><path d="M 107,66 L 107,73 L 115,72 L 114,66 Z" fill="none" stroke="black" stroke-width="1" /><circle cx="67.5" cy="69.875" fill="none" r="4.155292510986328" stroke="black" stroke-width="1" /><path d="M 91,64 L 85,66 L 86,73 L 94,73 L 95,71 Z" fill="none" stroke="black" stroke-width="1" /><path d="M 181,56 L 182,62 L 189,62 L 189,57 Z" fill="none" stroke="black" stroke-width="1" /><circle cx="163.8333282470703" cy="59.5" fill="none" r="5.441713333129883" stroke="black" stroke-width="1" /><path d="M 74,56 L 75,62 L 83,62 L 82,56 Z" fill="none" stroke="black" stroke-width="1" /><path d="M 53,57 L 54,62 L 61,61 L 60,56 Z" fill="none" stroke="black" stroke-width="1" /><path d="M 139,56 L 139,63 L 146,63 L 146,56 Z" fill="none" stroke="black" stroke-width="1" /><circle cx="121.5" cy="59.0" fill="none" r="5.4084272384643555" stroke="black" stroke-width="1" /><circle cx="100.0" cy="59.35714340209961" fill="none" r="4.79433536529541" stroke="black" stroke-width="1" /><circle cx="195.7857208251953" cy="48.5" fill="none" r="4.072150230407715" stroke="black" stroke-width="1" /><path d="M 170,45 L 171,51 L 178,51 L 178,46 Z" fill="none" stroke="black" stroke-width="1" /><path d="M 84,50 L 93,51 L 94,47 L 92,45 L 85,46 Z" fill="none" stroke="black" stroke-width="1" /><path d="M 65,46 L 65,51 L 72,51 L 72,45 Z" fill="none" stroke="black" stroke-width="1" /><circle cx="152.61111450195312" cy="48.38888931274414" fill="none" r="5.1069793701171875" stroke="black" stroke-width="1" /><path d="M 128,46 L 127,51 L 133,52 L 137,50 L 134,44 L 130,44 Z" fill="none" stroke="black" stroke-width="1" /><path d="M 106,47 L 107,51 L 116,50 L 114,44 L 108,44 Z" fill="none" stroke="black" stroke-width="1" /><path d="M 181,36 L 181,41 L 190,41 L 188,36 Z" fill="none" stroke="black" stroke-width="1" /><path d="M 75,35 L 75,41 L 82,41 L 82,35 Z" fill="none" stroke="black" stroke-width="1" /><path d="M 160,34 L 160,41 L 167,41 L 168,36 L 165,34 Z" fill="none" stroke="black" stroke-width="1" /><path d="M 139,34 L 138,40 L 146,41 L 146,34 Z" fill="none" stroke="black" stroke-width="1" /><circle cx="122.31818389892578" cy="38.5" fill="none" r="5.87658166885376" stroke="black" stroke-width="1" /><circle cx="99.5" cy="37.5" fill="none" r="5.147915363311768" stroke="black" stroke-width="1" /><path d="M 149,24 L 149,30 L 157,30 L 156,24 Z" fill="none" stroke="black" stroke-width="1" /><path d="M 129,24 L 128,30 L 136,29 L 136,24 Z" fill="none" stroke="black" stroke-width="1" /><path d="M 107,24 L 106,30 L 115,30 L 114,24 Z" fill="none" stroke="black" stroke-width="1" /><path d="M 84,28 L 86,30 L 93,30 L 94,26 L 92,24 L 88,24 Z" fill="none" stroke="black" stroke-width="1" /><path d="M 139,14 L 139,19 L 146,19 L 145,13 Z" fill="none" stroke="black" stroke-width="1" /><path d="M 125,14 L 121,12 L 117,15 L 116,18 L 125,19 Z" fill="none" stroke="black" stroke-width="1" /><path d="M 124,8 L 225,93 L 128,204 L 27,106 Z" fill="black" stroke="black" stroke-width="1" /><path d="M 0,0 L 0,217 L 256,217 L 256,0 Z" fill="none" stroke="black" stroke-width="1" /></svg>