<?xml version='1.0' encoding='utf-8'?>
<svg width="265" height="219" xmlns="http://www.w3.org/2000/svg" viewBox="0 0 265 219"><rect width="265" height="219" fill="white" /><path d="M 242,171 L 241,172 L 236,172 L 231,177 L 231,183 L 232,184 L 232,185 L 234,187 L 234,188 L 236,190 L 237,190 L 238,191 L 240,191 L 241,192 L 246,192 L 247,191 L 247,190 L 248,189 L 250,189 L 251,188 L 251,186 L 252,185 L 252,184 L 253,183 L 253,181 L 252,180 L 252,178 L 249,175 L 249,174 L 248,174 L 245,171 Z" fill="black" /><path d="M 178,171 L 177,172 L 175,172 L 172,175 L 172,179 L 171,180 L 171,181 L 172,182 L 172,187 L 174,189 L 175,189 L 176,190 L 177,190 L 178,191 L 187,191 L 191,187 L 191,186 L 192,185 L 192,184 L 193,183 L 193,178 L 192,177 L 192,176 L 191,175 L 191,174 L 189,172 L 187,172 L 186,171 Z" fill="black" /><path d="M 147,170 L 146,171 L 146,172 L 144,174 L 143,174 L 142,175 L 142,176 L 141,177 L 141,179 L 142,180 L 142,185 L 144,187 L 144,188 L 145,189 L 146,189 L 148,191 L 156,191 L 158,189 L 159,189 L 159,188 L 161,186 L 161,184 L 162,183 L 162,178 L 161,177 L 161,175 L 159,173 L 159,172 L 158,172 L 156,170 Z" fill="black" /><path d="M 53,170 L 51,172 L 50,172 L 48,174 L 48,176 L 46,178 L 46,180 L 47,181 L 47,186 L 52,191 L 61,191 L 65,187 L 65,185 L 67,183 L 67,178 L 66,177 L 66,174 L 62,170 Z" fill="black" /><path d="M 23,170 L 21,172 L 19,172 L 16,175 L 16,177 L 15,178 L 15,183 L 16,184 L 16,185 L 18,187 L 18,188 L 19,189 L 21,189 L 22,190 L 28,190 L 29,189 L 31,189 L 35,185 L 35,184 L 37,182 L 37,179 L 36,178 L 36,177 L 35,176 L 35,174 L 31,170 Z" fill="black" /><path d="M 211,169 L 210,170 L 207,170 L 204,173 L 204,175 L 203,176 L 203,177 L 202,178 L 202,183 L 203,184 L 203,185 L 204,186 L 204,187 L 205,187 L 206,188 L 207,188 L 209,190 L 218,190 L 221,187 L 221,186 L 223,184 L 223,183 L 224,182 L 224,180 L 223,179 L 223,176 L 221,174 L 221,172 L 220,171 L 219,171 L 218,170 L 216,170 L 215,169 Z" fill="black" /><path d="M 118,169 L 117,170 L 116,170 L 115,171 L 112,171 L 111,172 L 111,173 L 110,174 L 110,176 L 109,177 L 109,179 L 108,180 L 108,183 L 110,185 L 110,186 L 112,188 L 113,188 L 114,189 L 115,189 L 116,190 L 122,190 L 124,188 L 126,188 L 129,185 L 129,182 L 130,181 L 130,179 L 129,178 L 129,175 L 124,170 L 122,170 L 121,169 Z" fill="black" /><path d="M 85,169 L 84,170 L 82,170 L 78,174 L 78,184 L 80,186 L 80,189 L 85,189 L 86,190 L 89,190 L 90,189 L 92,189 L 94,187 L 95,187 L 97,185 L 97,184 L 99,182 L 99,176 L 97,174 L 97,173 L 95,171 L 94,171 L 93,170 L 92,170 L 91,169 Z" fill="black" /><path d="M 229,146 L 228,147 L 225,147 L 224,148 L 222,148 L 222,151 L 221,152 L 220,152 L 218,154 L 218,157 L 219,158 L 219,159 L 220,160 L 220,161 L 226,167 L 233,167 L 234,166 L 235,166 L 239,162 L 239,160 L 240,159 L 240,157 L 241,156 L 241,155 L 239,153 L 239,152 L 234,147 L 233,147 L 232,146 Z" fill="black" /><path d="M 44,142 L 41,145 L 40,145 L 39,146 L 39,147 L 38,148 L 38,155 L 40,157 L 40,158 L 42,160 L 43,160 L 45,162 L 52,162 L 57,157 L 57,156 L 58,155 L 58,154 L 59,153 L 59,151 L 58,150 L 58,147 L 55,144 L 54,144 L 52,142 Z" fill="black" /><path d="M 210,119 L 209,120 L 206,120 L 202,124 L 202,133 L 206,137 L 206,139 L 212,139 L 213,140 L 214,139 L 217,139 L 220,136 L 220,135 L 223,132 L 223,128 L 222,127 L 222,125 L 217,120 L 211,120 Z" fill="black" /><path d="M 66,118 L 65,119 L 62,119 L 61,120 L 60,120 L 56,124 L 56,127 L 55,128 L 55,132 L 58,135 L 58,136 L 61,139 L 69,139 L 71,137 L 73,137 L 75,135 L 75,133 L 76,132 L 76,125 L 71,120 L 70,120 L 68,118 Z" fill="black" /><path d="M 194,96 L 193,97 L 192,97 L 191,98 L 190,98 L 189,99 L 189,101 L 186,104 L 186,107 L 187,108 L 187,110 L 190,113 L 190,115 L 191,116 L 193,116 L 194,117 L 202,117 L 207,112 L 207,111 L 208,110 L 208,109 L 209,108 L 209,105 L 208,104 L 208,102 L 207,102 L 205,100 L 205,99 L 204,99 L 201,96 Z" fill="black" /><path d="M 82,94 L 80,96 L 78,96 L 74,100 L 74,107 L 75,108 L 75,109 L 76,110 L 76,111 L 77,112 L 78,112 L 81,115 L 86,115 L 88,113 L 90,113 L 91,112 L 92,112 L 94,110 L 94,106 L 95,105 L 95,102 L 94,101 L 94,100 L 93,100 L 91,98 L 91,96 L 90,96 L 89,95 L 88,95 L 87,94 Z" fill="black" /><path d="M 175,70 L 174,71 L 173,71 L 170,74 L 170,76 L 168,78 L 168,82 L 170,84 L 170,86 L 173,89 L 174,89 L 175,90 L 182,90 L 183,89 L 185,89 L 187,87 L 187,86 L 188,85 L 188,84 L 190,82 L 190,77 L 189,76 L 189,74 L 185,70 Z" fill="black" /><path d="M 103,68 L 101,70 L 100,70 L 99,71 L 98,71 L 97,72 L 96,72 L 95,73 L 95,76 L 94,77 L 94,83 L 98,87 L 99,87 L 101,89 L 109,89 L 112,86 L 113,86 L 113,84 L 114,83 L 114,82 L 115,81 L 115,76 L 114,75 L 114,74 L 110,70 L 109,70 L 108,69 L 107,69 L 106,68 Z" fill="black" /><path d="M 161,45 L 160,46 L 158,46 L 154,50 L 154,51 L 153,52 L 153,59 L 156,62 L 156,63 L 158,65 L 161,65 L 162,66 L 165,66 L 166,65 L 169,65 L 171,63 L 171,62 L 173,60 L 173,58 L 174,57 L 174,54 L 173,53 L 173,52 L 172,51 L 172,50 L 171,49 L 171,48 L 169,46 L 164,46 L 163,45 Z" fill="black" /><path d="M 118,44 L 118,45 L 117,46 L 114,46 L 114,47 L 112,49 L 112,51 L 111,52 L 111,55 L 112,56 L 112,59 L 114,59 L 115,60 L 115,64 L 116,64 L 117,65 L 125,65 L 127,63 L 129,63 L 129,61 L 131,59 L 131,54 L 132,53 L 132,51 L 128,47 L 128,46 L 126,46 L 124,44 Z" fill="black" /><path d="M 140,20 L 140,21 L 137,24 L 136,24 L 136,30 L 135,31 L 135,34 L 137,36 L 138,36 L 139,37 L 140,37 L 142,39 L 149,39 L 151,37 L 152,37 L 154,35 L 154,34 L 155,33 L 155,30 L 156,29 L 156,27 L 154,25 L 154,24 L 150,20 Z" fill="black" /></svg>