<?xml version='1.0' encoding='utf-8'?>
<svg width="262" height="213" xmlns="http://www.w3.org/2000/svg" viewBox="0 0 262 213"><rect width="262" height="213" fill="white" /><path d="M 200,29 L 199,30 L 187,30 L 186,31 L 150,31 L 149,32 L 136,32 L 135,33 L 103,33 L 102,34 L 89,34 L 88,35 L 62,35 L 61,36 L 55,36 L 55,39 L 56,39 L 58,41 L 58,42 L 59,43 L 59,44 L 60,44 L 61,45 L 61,46 L 62,46 L 63,47 L 63,48 L 66,51 L 66,52 L 69,55 L 69,56 L 70,56 L 71,57 L 71,58 L 72,58 L 75,61 L 75,63 L 83,71 L 83,72 L 87,76 L 87,77 L 89,79 L 89,80 L 90,80 L 91,81 L 91,82 L 94,85 L 94,86 L 99,91 L 99,92 L 100,92 L 101,93 L 101,94 L 105,98 L 105,99 L 109,103 L 109,104 L 110,104 L 113,107 L 113,108 L 116,111 L 116,112 L 119,115 L 119,116 L 120,116 L 121,117 L 121,118 L 124,121 L 124,122 L 125,123 L 125,124 L 126,124 L 129,127 L 129,128 L 133,132 L 133,133 L 137,137 L 137,138 L 138,138 L 139,139 L 139,140 L 144,145 L 144,146 L 147,149 L 147,150 L 150,153 L 151,152 L 152,152 L 152,149 L 154,147 L 154,145 L 155,144 L 156,144 L 156,141 L 158,139 L 158,137 L 160,135 L 160,133 L 162,131 L 162,129 L 164,127 L 164,125 L 166,123 L 166,121 L 168,119 L 168,117 L 169,116 L 169,115 L 170,114 L 170,113 L 171,112 L 171,111 L 172,110 L 172,109 L 174,107 L 174,105 L 176,103 L 176,102 L 177,101 L 177,100 L 178,99 L 178,98 L 179,97 L 179,96 L 180,95 L 180,93 L 182,91 L 182,89 L 184,87 L 184,85 L 186,83 L 186,81 L 188,79 L 188,77 L 190,75 L 190,73 L 192,71 L 192,69 L 193,68 L 194,68 L 194,65 L 196,63 L 196,61 L 198,59 L 198,57 L 199,56 L 200,56 L 200,53 L 202,51 L 202,49 L 204,47 L 204,45 L 205,44 L 205,43 L 206,42 L 206,41 L 207,40 L 207,39 L 208,38 L 208,37 L 209,36 L 209,35 L 210,34 L 210,33 L 212,31 L 212,29 L 205,29 L 204,30 L 203,30 L 202,29 Z" fill="black" /><path d="M 0,0 L 0,212 L 261,212 L 261,0 Z" fill="none" stroke="black" stroke-width="1" /></svg>