<?xml version='1.0' encoding='utf-8'?>
<svg width="259" height="214" xmlns="http://www.w3.org/2000/svg" viewBox="0 0 259 214"><rect width="259" height="214" fill="white" /><path d="M 114,10 L 112,12 L 106,12 L 105,13 L 101,13 L 100,14 L 97,14 L 96,15 L 94,15 L 93,16 L 90,16 L 88,18 L 87,18 L 87,19 L 86,20 L 83,20 L 83,21 L 82,22 L 79,22 L 79,23 L 76,26 L 75,26 L 74,25 L 74,26 L 72,28 L 71,28 L 70,29 L 69,29 L 69,31 L 68,32 L 66,32 L 64,34 L 63,34 L 63,35 L 62,36 L 60,36 L 59,37 L 59,38 L 54,43 L 53,43 L 53,46 L 52,47 L 51,47 L 50,48 L 49,48 L 49,49 L 47,51 L 47,54 L 46,55 L 45,55 L 45,57 L 44,58 L 43,58 L 43,59 L 42,60 L 41,60 L 41,61 L 40,62 L 40,65 L 37,68 L 37,71 L 36,72 L 36,73 L 35,74 L 35,80 L 33,82 L 32,82 L 32,87 L 30,89 L 30,91 L 31,92 L 31,95 L 30,96 L 29,96 L 29,104 L 30,105 L 30,106 L 29,107 L 29,113 L 30,113 L 31,114 L 31,117 L 30,118 L 30,120 L 31,121 L 31,131 L 32,131 L 33,132 L 33,134 L 34,135 L 34,138 L 36,140 L 36,143 L 37,144 L 37,145 L 36,146 L 39,149 L 39,150 L 41,152 L 41,153 L 42,154 L 42,155 L 43,156 L 43,158 L 45,160 L 45,161 L 48,164 L 48,165 L 49,166 L 49,167 L 51,169 L 52,169 L 53,170 L 53,171 L 56,174 L 56,175 L 64,183 L 66,183 L 67,184 L 67,185 L 68,185 L 74,191 L 76,191 L 79,194 L 79,195 L 81,195 L 83,197 L 84,197 L 85,198 L 86,198 L 87,199 L 90,199 L 91,200 L 92,200 L 93,201 L 96,201 L 97,202 L 98,202 L 99,203 L 100,203 L 101,204 L 104,204 L 105,205 L 118,205 L 119,206 L 126,206 L 127,207 L 128,206 L 136,206 L 137,205 L 144,205 L 145,204 L 150,204 L 151,203 L 155,203 L 156,202 L 157,202 L 158,201 L 161,201 L 162,200 L 164,200 L 165,199 L 166,199 L 167,198 L 168,198 L 169,197 L 170,197 L 172,195 L 173,195 L 175,193 L 177,193 L 179,191 L 180,191 L 183,188 L 184,188 L 185,187 L 186,187 L 186,186 L 187,185 L 188,185 L 190,183 L 191,183 L 193,181 L 194,181 L 194,180 L 195,179 L 196,179 L 196,178 L 197,177 L 198,177 L 198,176 L 199,175 L 200,175 L 200,174 L 202,172 L 202,171 L 204,169 L 204,168 L 205,167 L 206,167 L 206,166 L 207,165 L 207,164 L 208,163 L 208,162 L 210,160 L 210,159 L 212,157 L 212,156 L 214,154 L 214,152 L 215,151 L 215,150 L 216,149 L 216,147 L 217,146 L 217,145 L 218,144 L 218,142 L 219,141 L 219,140 L 220,139 L 220,136 L 221,135 L 221,134 L 222,133 L 222,130 L 223,129 L 223,128 L 224,127 L 224,117 L 225,116 L 225,114 L 224,113 L 224,104 L 225,103 L 224,102 L 224,91 L 223,90 L 223,87 L 222,86 L 222,80 L 220,78 L 220,76 L 219,75 L 219,74 L 218,73 L 218,71 L 217,70 L 217,68 L 216,67 L 216,66 L 215,65 L 215,64 L 214,63 L 214,61 L 212,59 L 212,58 L 210,56 L 210,55 L 208,53 L 208,52 L 204,48 L 204,47 L 202,45 L 202,44 L 201,44 L 200,43 L 200,42 L 198,40 L 197,40 L 196,39 L 196,38 L 195,38 L 189,32 L 188,32 L 184,28 L 183,28 L 182,27 L 182,26 L 180,24 L 177,24 L 176,23 L 176,22 L 174,22 L 172,20 L 170,20 L 168,18 L 165,18 L 164,17 L 163,17 L 162,16 L 158,16 L 156,14 L 152,14 L 151,13 L 147,13 L 146,12 L 143,12 L 142,11 L 140,11 L 139,12 L 138,11 L 137,11 L 136,10 Z" fill="black" /></svg>