<?xml version='1.0' encoding='utf-8'?>
<svg width="257" height="216" xmlns="http://www.w3.org/2000/svg" viewBox="0 0 257 216"><rect width="257" height="216" fill="white" /><path d="M 29,0 L 29,6 L 28,7 L 28,11 L 29,12 L 29,13 L 28,14 L 28,19 L 29,20 L 29,22 L 28,23 L 28,39 L 29,40 L 29,44 L 28,45 L 28,49 L 29,50 L 29,52 L 28,53 L 28,55 L 29,56 L 29,77 L 30,78 L 30,80 L 28,82 L 26,82 L 24,84 L 23,84 L 22,85 L 21,85 L 19,87 L 18,87 L 16,89 L 15,89 L 14,90 L 13,90 L 12,91 L 11,91 L 8,94 L 7,94 L 6,95 L 4,95 L 2,97 L 1,97 L 0,98 L 0,101 L 1,101 L 3,99 L 4,99 L 5,98 L 6,98 L 7,97 L 8,97 L 9,96 L 10,96 L 13,93 L 14,93 L 15,92 L 16,92 L 18,90 L 19,90 L 20,89 L 21,89 L 23,87 L 24,87 L 26,85 L 28,85 L 29,86 L 29,124 L 28,125 L 25,125 L 24,126 L 19,126 L 17,128 L 11,128 L 10,129 L 8,129 L 7,130 L 2,130 L 1,131 L 0,131 L 0,133 L 6,133 L 7,132 L 8,132 L 9,131 L 16,131 L 17,130 L 19,130 L 20,129 L 22,129 L 23,128 L 24,128 L 25,127 L 29,127 L 30,128 L 30,131 L 29,132 L 29,177 L 30,178 L 30,179 L 29,180 L 29,215 L 32,215 L 32,211 L 31,210 L 31,192 L 32,191 L 32,189 L 31,188 L 31,181 L 32,180 L 32,137 L 31,136 L 31,134 L 32,133 L 32,131 L 31,130 L 31,127 L 33,125 L 38,125 L 39,124 L 44,124 L 45,123 L 48,123 L 49,122 L 51,122 L 52,121 L 56,121 L 57,120 L 62,120 L 63,121 L 63,139 L 62,140 L 62,143 L 63,144 L 63,159 L 64,160 L 64,161 L 63,162 L 63,171 L 62,172 L 62,174 L 71,174 L 72,175 L 84,175 L 86,177 L 86,180 L 85,181 L 85,184 L 86,185 L 86,186 L 85,187 L 85,199 L 84,200 L 84,202 L 85,203 L 85,204 L 84,205 L 84,209 L 85,210 L 85,212 L 84,213 L 84,215 L 87,215 L 87,212 L 86,211 L 86,209 L 87,208 L 87,188 L 88,187 L 88,184 L 87,183 L 87,178 L 89,176 L 99,176 L 100,177 L 117,177 L 118,178 L 126,178 L 128,180 L 128,184 L 127,185 L 127,200 L 123,204 L 122,204 L 118,208 L 117,208 L 114,211 L 113,211 L 111,213 L 111,214 L 110,215 L 114,215 L 119,210 L 120,210 L 125,205 L 126,205 L 127,206 L 127,207 L 128,208 L 126,210 L 126,215 L 129,215 L 129,202 L 132,199 L 133,199 L 138,194 L 139,194 L 140,193 L 141,193 L 150,184 L 151,184 L 154,181 L 162,181 L 163,182 L 163,188 L 162,189 L 162,191 L 163,192 L 163,194 L 162,195 L 162,196 L 163,197 L 163,199 L 162,200 L 162,203 L 163,204 L 163,208 L 162,209 L 162,214 L 163,215 L 165,215 L 165,182 L 166,181 L 171,181 L 172,182 L 182,182 L 183,183 L 188,183 L 189,182 L 195,182 L 196,181 L 196,180 L 193,180 L 191,178 L 191,152 L 195,148 L 196,148 L 198,146 L 199,146 L 201,144 L 202,144 L 207,139 L 208,139 L 210,137 L 211,137 L 212,138 L 212,142 L 211,143 L 211,150 L 212,151 L 212,153 L 211,154 L 211,214 L 212,215 L 214,215 L 214,210 L 213,209 L 213,204 L 214,203 L 214,142 L 213,141 L 213,139 L 214,138 L 214,134 L 217,131 L 218,131 L 224,125 L 225,125 L 229,121 L 231,121 L 238,114 L 239,114 L 242,111 L 243,111 L 248,106 L 249,106 L 252,103 L 253,103 L 253,102 L 256,99 L 256,95 L 251,100 L 250,100 L 246,104 L 245,104 L 241,108 L 240,108 L 234,114 L 233,114 L 229,118 L 228,118 L 222,124 L 221,124 L 217,128 L 215,128 L 214,127 L 214,111 L 215,110 L 215,107 L 214,106 L 214,85 L 216,83 L 218,83 L 219,82 L 224,82 L 225,81 L 226,81 L 227,80 L 230,80 L 231,79 L 235,79 L 236,78 L 241,78 L 242,77 L 246,77 L 247,76 L 248,76 L 249,75 L 254,75 L 255,74 L 256,74 L 256,72 L 252,72 L 251,73 L 249,73 L 248,74 L 245,74 L 244,75 L 240,75 L 239,76 L 235,76 L 234,77 L 232,77 L 231,78 L 226,78 L 225,79 L 220,79 L 219,80 L 218,80 L 217,81 L 216,80 L 215,80 L 214,79 L 214,76 L 215,75 L 215,74 L 214,73 L 214,59 L 215,58 L 215,51 L 214,50 L 215,49 L 215,15 L 214,14 L 214,5 L 215,4 L 215,0 L 212,0 L 212,21 L 213,22 L 213,23 L 212,24 L 212,51 L 213,52 L 212,53 L 212,66 L 213,67 L 212,68 L 212,74 L 213,75 L 213,79 L 212,80 L 212,81 L 211,82 L 210,82 L 209,83 L 208,83 L 207,84 L 206,84 L 205,83 L 204,83 L 203,84 L 201,84 L 200,85 L 198,85 L 197,86 L 193,86 L 192,85 L 192,64 L 191,63 L 185,63 L 184,62 L 167,62 L 166,61 L 166,58 L 165,57 L 165,56 L 166,55 L 166,51 L 165,50 L 166,49 L 166,31 L 165,30 L 165,29 L 166,28 L 166,3 L 168,1 L 169,1 L 170,0 L 164,0 L 162,2 L 161,2 L 159,4 L 158,4 L 157,5 L 156,5 L 155,6 L 154,6 L 153,7 L 152,7 L 150,9 L 149,9 L 147,11 L 146,11 L 145,12 L 144,12 L 142,14 L 141,14 L 140,15 L 139,15 L 138,16 L 137,16 L 136,17 L 135,17 L 132,20 L 130,20 L 129,19 L 129,0 L 126,0 L 127,1 L 127,13 L 126,14 L 126,17 L 127,18 L 127,20 L 128,21 L 125,24 L 124,24 L 122,26 L 120,26 L 118,28 L 117,28 L 116,29 L 115,29 L 113,31 L 112,31 L 110,33 L 109,33 L 108,34 L 107,34 L 106,35 L 105,35 L 102,38 L 101,38 L 100,39 L 99,39 L 98,40 L 97,40 L 96,41 L 95,41 L 92,44 L 90,44 L 89,45 L 87,43 L 87,42 L 88,41 L 88,7 L 87,6 L 87,5 L 88,4 L 88,0 L 86,0 L 86,1 L 85,2 L 85,6 L 86,7 L 86,26 L 85,27 L 85,38 L 86,39 L 86,47 L 85,48 L 84,48 L 82,50 L 80,50 L 78,52 L 76,52 L 76,53 L 75,54 L 72,54 L 71,55 L 59,55 L 59,56 L 62,59 L 62,61 L 61,62 L 60,62 L 58,64 L 57,64 L 56,65 L 55,65 L 53,67 L 52,67 L 51,68 L 50,68 L 49,69 L 48,69 L 46,71 L 45,71 L 43,73 L 42,73 L 40,75 L 39,75 L 38,76 L 37,76 L 35,78 L 32,78 L 31,77 L 31,0 Z" fill="black" /><path d="M 125,206 L 120,211 L 119,211 L 115,215 L 125,215 L 125,210 L 127,208 L 126,207 L 126,206 Z" fill="none" stroke="black" stroke-width="1" /><path d="M 154,182 L 151,185 L 150,185 L 141,194 L 140,194 L 139,195 L 138,195 L 133,200 L 132,200 L 130,202 L 130,215 L 162,215 L 161,214 L 161,209 L 162,208 L 162,204 L 161,203 L 161,200 L 162,199 L 162,197 L 161,196 L 161,195 L 162,194 L 162,192 L 161,191 L 161,189 L 162,188 L 162,182 Z" fill="none" stroke="black" stroke-width="1" /><path d="M 130,180 L 130,196 L 131,196 L 135,192 L 136,192 L 138,190 L 139,190 L 145,184 L 146,184 L 147,183 L 148,183 L 149,182 L 149,181 L 145,181 L 144,180 Z" fill="none" stroke="black" stroke-width="1" /><path d="M 89,177 L 88,178 L 88,183 L 89,184 L 89,187 L 88,188 L 88,208 L 87,209 L 87,211 L 88,212 L 88,215 L 109,215 L 110,214 L 110,213 L 113,210 L 114,210 L 117,207 L 118,207 L 122,203 L 123,203 L 126,200 L 126,185 L 127,184 L 127,180 L 126,179 L 118,179 L 117,178 L 100,178 L 99,177 Z" fill="none" stroke="black" stroke-width="1" /><path d="M 187,157 L 186,158 L 185,158 L 182,161 L 181,161 L 179,163 L 178,163 L 170,171 L 168,171 L 166,173 L 166,177 L 181,177 L 182,178 L 186,178 L 187,177 L 187,176 L 188,175 L 188,171 L 187,170 L 187,168 L 188,167 L 188,158 Z" fill="none" stroke="black" stroke-width="1" /><path d="M 210,138 L 208,140 L 207,140 L 202,145 L 201,145 L 199,147 L 198,147 L 196,149 L 195,149 L 192,152 L 192,178 L 193,179 L 196,179 L 197,180 L 197,181 L 195,183 L 189,183 L 188,184 L 183,184 L 182,183 L 172,183 L 171,182 L 166,182 L 166,215 L 211,215 L 210,214 L 210,154 L 211,153 L 211,151 L 210,150 L 210,143 L 211,142 L 211,138 Z" fill="none" stroke="black" stroke-width="1" /><path d="M 25,128 L 24,129 L 23,129 L 22,130 L 20,130 L 19,131 L 17,131 L 16,132 L 9,132 L 8,133 L 7,133 L 6,134 L 0,134 L 0,215 L 28,215 L 28,180 L 29,179 L 29,178 L 28,177 L 28,132 L 29,131 L 29,128 Z" fill="none" stroke="black" stroke-width="1" /><path d="M 57,121 L 56,122 L 52,122 L 51,123 L 49,123 L 48,124 L 45,124 L 44,125 L 39,125 L 38,126 L 33,126 L 32,127 L 32,130 L 33,131 L 33,133 L 32,134 L 32,136 L 33,137 L 33,180 L 32,181 L 32,188 L 33,189 L 33,191 L 32,192 L 32,210 L 33,211 L 33,215 L 83,215 L 83,213 L 84,212 L 84,210 L 83,209 L 83,205 L 84,204 L 84,203 L 83,202 L 83,200 L 84,199 L 84,187 L 85,186 L 85,185 L 84,184 L 84,181 L 85,180 L 85,177 L 84,176 L 72,176 L 71,175 L 62,175 L 61,174 L 61,172 L 62,171 L 62,162 L 63,161 L 63,160 L 62,159 L 62,144 L 61,143 L 61,140 L 62,139 L 62,121 Z" fill="none" stroke="black" stroke-width="1" /><path d="M 81,115 L 80,116 L 79,116 L 78,117 L 73,117 L 72,118 L 68,118 L 68,169 L 74,169 L 75,170 L 81,170 L 82,171 L 83,171 L 84,170 L 84,166 L 83,165 L 83,163 L 84,162 L 84,157 L 83,156 L 83,152 L 84,151 L 84,148 L 85,147 L 85,146 L 84,145 L 84,133 L 85,132 L 85,131 L 84,130 L 84,116 L 83,115 Z" fill="none" stroke="black" stroke-width="1" /><path d="M 124,105 L 123,106 L 122,106 L 121,107 L 117,107 L 116,108 L 115,108 L 114,109 L 113,109 L 112,108 L 111,108 L 110,109 L 109,109 L 108,110 L 104,110 L 103,111 L 102,111 L 101,112 L 93,112 L 92,113 L 90,113 L 88,115 L 88,171 L 95,171 L 96,172 L 103,172 L 104,173 L 117,173 L 118,174 L 125,174 L 126,173 L 126,165 L 125,164 L 125,161 L 126,160 L 126,159 L 127,158 L 126,157 L 126,106 L 125,105 Z" fill="none" stroke="black" stroke-width="1" /><path d="M 256,100 L 254,102 L 254,103 L 253,104 L 252,104 L 249,107 L 248,107 L 243,112 L 242,112 L 239,115 L 238,115 L 231,122 L 229,122 L 225,126 L 224,126 L 218,132 L 217,132 L 215,134 L 215,138 L 214,139 L 214,141 L 215,142 L 215,203 L 214,204 L 214,209 L 215,210 L 215,215 L 256,215 Z" fill="none" stroke="black" stroke-width="1" /><path d="M 158,98 L 157,99 L 152,99 L 151,100 L 150,100 L 149,101 L 147,101 L 146,100 L 145,101 L 143,101 L 142,102 L 140,102 L 139,103 L 135,103 L 134,104 L 131,104 L 130,105 L 130,145 L 131,146 L 131,148 L 130,149 L 130,173 L 132,175 L 145,175 L 146,176 L 156,176 L 157,175 L 158,175 L 160,173 L 161,173 L 161,172 L 162,171 L 162,145 L 163,144 L 162,143 L 162,136 L 163,135 L 162,134 L 162,120 L 163,119 L 162,118 L 162,111 L 163,110 L 163,105 L 162,104 L 162,102 L 163,101 L 163,99 L 162,98 Z" fill="none" stroke="black" stroke-width="1" /><path d="M 185,91 L 184,92 L 183,92 L 182,93 L 178,93 L 177,94 L 176,94 L 175,95 L 174,95 L 173,94 L 172,94 L 171,95 L 168,95 L 166,97 L 166,100 L 167,101 L 167,113 L 166,114 L 167,115 L 167,119 L 166,120 L 166,123 L 167,124 L 167,136 L 166,137 L 166,143 L 167,144 L 167,147 L 166,148 L 166,152 L 167,153 L 167,158 L 166,159 L 166,167 L 168,167 L 173,162 L 174,162 L 174,161 L 176,159 L 177,159 L 178,158 L 179,158 L 183,154 L 184,154 L 188,150 L 188,134 L 187,133 L 188,132 L 188,122 L 187,121 L 187,91 Z" fill="none" stroke="black" stroke-width="1" /><path d="M 207,86 L 206,87 L 203,87 L 202,88 L 200,88 L 199,89 L 198,89 L 197,88 L 195,88 L 193,90 L 193,94 L 192,95 L 192,98 L 193,99 L 192,100 L 192,107 L 193,108 L 193,112 L 192,113 L 192,119 L 193,120 L 193,123 L 192,124 L 192,126 L 193,127 L 193,135 L 192,136 L 192,145 L 193,146 L 194,145 L 195,145 L 198,142 L 199,142 L 205,136 L 206,136 L 209,133 L 210,133 L 211,132 L 211,110 L 212,109 L 212,108 L 211,107 L 211,93 L 212,92 L 212,91 L 211,90 L 211,86 Z" fill="none" stroke="black" stroke-width="1" /><path d="M 26,86 L 24,88 L 23,88 L 21,90 L 20,90 L 19,91 L 18,91 L 16,93 L 15,93 L 14,94 L 13,94 L 10,97 L 9,97 L 8,98 L 7,98 L 6,99 L 5,99 L 4,100 L 3,100 L 1,102 L 0,102 L 0,130 L 1,130 L 2,129 L 7,129 L 8,128 L 10,128 L 11,127 L 17,127 L 19,125 L 24,125 L 25,124 L 28,124 L 28,86 Z" fill="none" stroke="black" stroke-width="1" /><path d="M 255,75 L 254,76 L 249,76 L 248,77 L 247,77 L 246,78 L 242,78 L 241,79 L 236,79 L 235,80 L 231,80 L 230,81 L 227,81 L 226,82 L 225,82 L 224,83 L 219,83 L 218,84 L 216,84 L 215,85 L 215,106 L 216,107 L 216,110 L 215,111 L 215,127 L 217,127 L 221,123 L 222,123 L 228,117 L 229,117 L 233,113 L 234,113 L 240,107 L 241,107 L 245,103 L 246,103 L 250,99 L 251,99 L 256,94 L 256,75 Z" fill="none" stroke="black" stroke-width="1" /><path d="M 167,66 L 167,67 L 166,68 L 166,71 L 167,72 L 167,80 L 166,81 L 167,82 L 167,91 L 173,91 L 174,90 L 175,90 L 176,89 L 178,89 L 179,88 L 184,88 L 185,87 L 187,87 L 187,84 L 188,83 L 188,74 L 187,73 L 188,72 L 188,69 L 187,68 L 184,68 L 183,67 L 174,67 L 173,66 Z" fill="none" stroke="black" stroke-width="1" /><path d="M 60,66 L 59,67 L 58,67 L 55,70 L 54,70 L 53,71 L 52,71 L 50,73 L 49,73 L 48,74 L 47,74 L 45,76 L 44,76 L 43,77 L 42,77 L 40,79 L 39,79 L 38,80 L 37,80 L 36,81 L 35,81 L 34,82 L 33,82 L 32,83 L 32,99 L 33,100 L 33,108 L 32,109 L 32,123 L 34,123 L 35,122 L 36,122 L 37,121 L 41,121 L 42,120 L 44,120 L 45,119 L 50,119 L 51,118 L 52,118 L 53,117 L 59,117 L 60,116 L 61,116 L 62,115 L 62,107 L 61,106 L 61,103 L 62,102 L 62,98 L 61,97 L 61,95 L 62,94 L 62,90 L 61,89 L 61,79 L 62,78 L 62,74 L 61,73 L 61,66 Z" fill="none" stroke="black" stroke-width="1" /><path d="M 130,64 L 130,100 L 132,100 L 133,99 L 135,99 L 136,98 L 137,99 L 138,98 L 140,98 L 141,97 L 142,97 L 143,96 L 145,96 L 146,97 L 147,96 L 149,96 L 150,95 L 152,95 L 153,94 L 159,94 L 160,93 L 163,93 L 163,81 L 162,80 L 162,75 L 163,74 L 163,72 L 162,71 L 163,70 L 163,67 L 162,66 L 147,66 L 146,65 L 144,65 L 143,64 Z" fill="none" stroke="black" stroke-width="1" /><path d="M 90,61 L 88,63 L 88,66 L 89,67 L 89,71 L 88,72 L 88,74 L 89,75 L 89,77 L 88,78 L 88,102 L 89,103 L 89,105 L 88,106 L 88,109 L 94,109 L 95,108 L 97,108 L 98,107 L 103,107 L 104,106 L 106,106 L 107,105 L 109,105 L 110,104 L 111,105 L 112,104 L 115,104 L 116,103 L 117,103 L 118,102 L 125,102 L 126,101 L 126,92 L 125,91 L 125,89 L 126,88 L 126,81 L 125,80 L 125,77 L 126,76 L 126,68 L 127,67 L 127,65 L 126,64 L 124,64 L 123,63 L 112,63 L 111,62 L 94,62 L 93,61 Z" fill="none" stroke="black" stroke-width="1" /><path d="M 72,60 L 71,61 L 69,61 L 67,63 L 66,63 L 66,65 L 67,66 L 67,67 L 68,68 L 68,115 L 69,114 L 70,114 L 71,113 L 73,113 L 74,112 L 80,112 L 81,111 L 84,111 L 85,110 L 85,107 L 84,106 L 84,89 L 83,88 L 83,85 L 84,84 L 84,74 L 85,73 L 85,72 L 84,71 L 84,70 L 85,69 L 85,63 L 83,61 L 82,61 L 81,60 Z" fill="none" stroke="black" stroke-width="1" /><path d="M 81,53 L 80,54 L 80,56 L 83,56 L 84,55 L 84,54 L 83,53 Z" fill="none" stroke="black" stroke-width="1" /><path d="M 123,28 L 121,30 L 120,30 L 119,31 L 118,31 L 114,35 L 113,35 L 112,36 L 111,36 L 110,37 L 109,37 L 107,39 L 106,39 L 105,40 L 104,40 L 103,41 L 102,41 L 99,44 L 97,44 L 96,45 L 95,45 L 93,47 L 92,47 L 91,48 L 90,48 L 88,50 L 88,55 L 89,56 L 102,56 L 103,57 L 123,57 L 124,58 L 126,58 L 126,48 L 127,47 L 126,46 L 126,28 Z" fill="none" stroke="black" stroke-width="1" /><path d="M 161,6 L 158,9 L 157,9 L 156,10 L 154,10 L 153,11 L 152,11 L 150,13 L 149,13 L 146,16 L 145,16 L 144,17 L 143,17 L 142,18 L 141,18 L 140,19 L 139,19 L 138,20 L 137,20 L 135,22 L 134,22 L 133,23 L 132,23 L 130,25 L 130,58 L 132,58 L 133,59 L 152,59 L 153,60 L 159,60 L 160,61 L 163,61 L 163,57 L 162,56 L 162,50 L 163,49 L 163,38 L 162,37 L 162,33 L 163,32 L 163,6 Z" fill="none" stroke="black" stroke-width="1" /><path d="M 216,0 L 216,4 L 215,5 L 215,14 L 216,15 L 216,49 L 215,50 L 216,51 L 216,58 L 215,59 L 215,73 L 216,74 L 216,75 L 215,76 L 215,79 L 216,79 L 217,80 L 218,79 L 219,79 L 220,78 L 225,78 L 226,77 L 231,77 L 232,76 L 234,76 L 235,75 L 239,75 L 240,74 L 244,74 L 245,73 L 248,73 L 249,72 L 251,72 L 252,71 L 256,71 L 256,0 Z" fill="none" stroke="black" stroke-width="1" /><path d="M 171,0 L 169,2 L 168,2 L 167,3 L 167,28 L 166,29 L 166,30 L 167,31 L 167,49 L 166,50 L 167,51 L 167,55 L 166,56 L 166,57 L 167,58 L 167,61 L 184,61 L 185,62 L 191,62 L 193,64 L 193,85 L 197,85 L 198,84 L 200,84 L 201,83 L 203,83 L 204,82 L 205,82 L 206,83 L 207,83 L 208,82 L 209,82 L 210,81 L 211,81 L 211,80 L 212,79 L 212,75 L 211,74 L 211,68 L 212,67 L 211,66 L 211,53 L 212,52 L 211,51 L 211,24 L 212,23 L 212,22 L 211,21 L 211,0 Z" fill="none" stroke="black" stroke-width="1" /><path d="M 130,0 L 130,19 L 132,19 L 135,16 L 136,16 L 137,15 L 138,15 L 139,14 L 140,14 L 141,13 L 142,13 L 144,11 L 145,11 L 146,10 L 147,10 L 149,8 L 150,8 L 152,6 L 153,6 L 154,5 L 155,5 L 156,4 L 157,4 L 158,3 L 159,3 L 161,1 L 162,1 L 163,0 Z" fill="none" stroke="black" stroke-width="1" /><path d="M 89,0 L 89,4 L 88,5 L 88,6 L 89,7 L 89,41 L 88,42 L 88,43 L 89,44 L 90,43 L 92,43 L 95,40 L 96,40 L 97,39 L 98,39 L 99,38 L 100,38 L 101,37 L 102,37 L 105,34 L 106,34 L 107,33 L 108,33 L 109,32 L 110,32 L 112,30 L 113,30 L 115,28 L 116,28 L 117,27 L 118,27 L 120,25 L 122,25 L 124,23 L 125,23 L 127,21 L 126,20 L 126,18 L 125,17 L 125,14 L 126,13 L 126,1 L 125,0 Z" fill="none" stroke="black" stroke-width="1" /><path d="M 32,0 L 32,77 L 35,77 L 37,75 L 38,75 L 39,74 L 40,74 L 42,72 L 43,72 L 45,70 L 46,70 L 48,68 L 49,68 L 50,67 L 51,67 L 52,66 L 53,66 L 55,64 L 56,64 L 57,63 L 58,63 L 60,61 L 61,61 L 61,59 L 58,56 L 58,55 L 59,54 L 71,54 L 72,53 L 75,53 L 75,52 L 76,51 L 78,51 L 80,49 L 82,49 L 84,47 L 85,47 L 85,39 L 84,38 L 84,27 L 85,26 L 85,7 L 84,6 L 84,2 L 85,1 L 85,0 Z" fill="none" stroke="black" stroke-width="1" /><path d="M 0,0 L 0,97 L 1,96 L 2,96 L 4,94 L 6,94 L 7,93 L 8,93 L 11,90 L 12,90 L 13,89 L 14,89 L 15,88 L 16,88 L 18,86 L 19,86 L 21,84 L 22,84 L 23,83 L 24,83 L 26,81 L 28,81 L 29,80 L 29,78 L 28,77 L 28,56 L 27,55 L 27,53 L 28,52 L 28,50 L 27,49 L 27,45 L 28,44 L 28,40 L 27,39 L 27,23 L 28,22 L 28,20 L 27,19 L 27,14 L 28,13 L 28,12 L 27,11 L 27,7 L 28,6 L 28,0 Z" fill="none" stroke="black" stroke-width="1" /></svg>