<?xml version='1.0' encoding='utf-8'?>
<svg width="261" height="214" xmlns="http://www.w3.org/2000/svg" viewBox="0 0 261 214"><rect width="261" height="214" fill="white" /><path d="M 207,175 L 207,179 L 208,180 L 208,182 L 209,183 L 209,184 L 210,185 L 210,186 L 211,187 L 211,189 L 212,190 L 212,191 L 213,192 L 213,194 L 215,196 L 215,198 L 216,199 L 216,200 L 217,201 L 217,204 L 218,205 L 218,206 L 219,207 L 219,208 L 220,209 L 220,210 L 222,212 L 222,213 L 224,213 L 224,211 L 222,209 L 222,207 L 221,206 L 221,205 L 220,204 L 220,203 L 219,202 L 219,201 L 218,200 L 218,197 L 217,196 L 217,195 L 216,194 L 216,193 L 215,192 L 215,191 L 214,190 L 214,188 L 213,187 L 213,186 L 212,185 L 212,183 L 211,182 L 211,181 L 210,180 L 210,178 L 208,176 L 208,175 Z" fill="black" /><path d="M 0,170 L 0,178 L 2,180 L 2,184 L 4,186 L 4,188 L 5,189 L 5,190 L 6,191 L 6,193 L 7,194 L 7,195 L 8,196 L 8,197 L 9,198 L 9,199 L 10,200 L 10,202 L 12,204 L 12,208 L 13,209 L 13,210 L 16,213 L 18,213 L 18,212 L 17,211 L 17,209 L 15,207 L 15,206 L 14,205 L 14,204 L 13,203 L 13,199 L 11,197 L 11,195 L 9,193 L 9,190 L 8,189 L 8,188 L 7,187 L 7,185 L 5,183 L 5,181 L 4,180 L 4,179 L 3,178 L 3,177 L 2,176 L 2,174 L 1,173 L 1,170 Z" fill="black" /><path d="M 0,115 L 0,121 L 1,122 L 1,124 L 2,125 L 2,126 L 3,127 L 3,129 L 4,130 L 4,132 L 5,133 L 5,134 L 6,135 L 6,136 L 7,137 L 7,140 L 8,141 L 8,142 L 9,143 L 9,144 L 10,145 L 10,146 L 11,147 L 11,149 L 12,150 L 12,151 L 13,152 L 13,154 L 14,155 L 14,156 L 15,157 L 15,158 L 16,159 L 16,160 L 17,161 L 17,163 L 18,164 L 18,165 L 19,166 L 19,167 L 20,168 L 20,169 L 21,170 L 21,171 L 22,172 L 22,174 L 23,175 L 23,177 L 24,178 L 24,179 L 25,180 L 25,182 L 26,183 L 26,184 L 27,185 L 27,187 L 28,188 L 28,189 L 29,190 L 29,191 L 30,192 L 30,193 L 31,194 L 31,196 L 32,197 L 32,198 L 33,199 L 33,200 L 34,201 L 34,203 L 35,204 L 35,206 L 36,207 L 36,208 L 37,209 L 37,210 L 38,211 L 38,212 L 39,213 L 41,213 L 40,212 L 40,209 L 39,208 L 39,207 L 38,206 L 38,205 L 37,204 L 37,203 L 36,202 L 36,199 L 35,198 L 35,197 L 33,195 L 33,194 L 32,193 L 32,190 L 31,189 L 31,188 L 30,187 L 30,186 L 29,185 L 29,184 L 28,183 L 28,181 L 27,180 L 27,179 L 26,178 L 26,176 L 25,175 L 25,173 L 24,172 L 24,171 L 23,170 L 23,169 L 22,168 L 22,167 L 21,166 L 21,165 L 20,164 L 20,162 L 19,161 L 19,160 L 18,159 L 18,157 L 17,156 L 17,155 L 16,154 L 16,153 L 15,152 L 15,151 L 14,150 L 14,149 L 13,148 L 13,147 L 12,146 L 12,143 L 11,142 L 11,141 L 10,140 L 10,139 L 9,138 L 9,136 L 8,135 L 8,134 L 7,133 L 7,130 L 5,128 L 5,126 L 4,125 L 4,124 L 3,123 L 3,122 L 2,121 L 2,119 L 1,118 L 1,117 L 0,116 Z" fill="black" /><path d="M 0,60 L 0,67 L 1,68 L 1,70 L 2,71 L 2,72 L 3,73 L 3,75 L 4,76 L 4,77 L 5,78 L 5,79 L 6,80 L 6,82 L 8,84 L 8,87 L 10,89 L 10,92 L 11,93 L 11,94 L 12,95 L 12,96 L 13,97 L 13,98 L 14,99 L 14,101 L 15,102 L 15,104 L 16,105 L 16,106 L 17,107 L 17,110 L 18,111 L 18,112 L 20,114 L 20,116 L 21,117 L 21,118 L 22,119 L 22,120 L 23,121 L 23,124 L 24,125 L 24,126 L 25,127 L 25,129 L 26,130 L 26,131 L 27,132 L 27,133 L 28,134 L 28,135 L 29,136 L 29,137 L 30,138 L 30,141 L 32,143 L 32,144 L 33,145 L 33,147 L 34,148 L 34,149 L 35,150 L 35,153 L 36,154 L 36,155 L 38,157 L 38,159 L 39,160 L 39,162 L 40,163 L 40,164 L 41,165 L 41,166 L 42,167 L 42,169 L 44,171 L 44,173 L 45,174 L 45,176 L 46,177 L 46,178 L 47,179 L 47,181 L 48,182 L 48,183 L 49,184 L 49,186 L 50,187 L 50,188 L 51,189 L 51,190 L 52,191 L 52,193 L 53,194 L 53,195 L 54,196 L 54,197 L 55,198 L 55,200 L 57,202 L 57,204 L 58,205 L 58,207 L 59,208 L 59,209 L 60,210 L 60,211 L 61,212 L 61,213 L 64,213 L 63,212 L 63,211 L 62,210 L 62,209 L 61,208 L 61,207 L 60,206 L 60,203 L 58,201 L 58,199 L 57,198 L 57,197 L 56,196 L 56,194 L 55,193 L 55,192 L 54,191 L 54,190 L 53,189 L 53,188 L 52,187 L 52,184 L 51,183 L 51,182 L 49,180 L 49,178 L 48,177 L 48,175 L 47,174 L 47,173 L 46,172 L 46,170 L 45,169 L 45,168 L 44,167 L 44,166 L 43,165 L 43,163 L 42,162 L 42,161 L 41,160 L 41,159 L 40,158 L 40,156 L 39,155 L 39,154 L 38,153 L 38,151 L 37,150 L 37,149 L 36,148 L 36,147 L 35,146 L 35,145 L 34,144 L 34,142 L 33,141 L 33,139 L 31,137 L 31,134 L 30,133 L 30,132 L 29,131 L 29,130 L 28,129 L 28,127 L 27,126 L 27,125 L 26,124 L 26,122 L 25,121 L 25,120 L 24,119 L 24,117 L 23,116 L 23,115 L 21,113 L 21,111 L 20,110 L 20,108 L 19,107 L 19,106 L 18,105 L 18,103 L 17,102 L 17,100 L 15,98 L 15,95 L 13,93 L 13,90 L 11,88 L 11,85 L 9,83 L 9,81 L 8,80 L 8,78 L 7,77 L 7,76 L 5,74 L 5,71 L 4,70 L 4,69 L 3,68 L 3,66 L 2,65 L 2,64 L 1,63 L 1,61 Z" fill="black" /><path d="M 0,6 L 0,13 L 1,14 L 1,15 L 2,16 L 2,18 L 3,19 L 3,21 L 4,22 L 4,23 L 5,24 L 5,25 L 6,26 L 6,28 L 7,29 L 7,30 L 8,31 L 8,33 L 9,34 L 9,36 L 10,37 L 10,38 L 11,39 L 11,40 L 12,41 L 12,42 L 13,43 L 13,45 L 14,46 L 14,47 L 15,48 L 15,50 L 16,51 L 16,52 L 17,53 L 17,55 L 19,57 L 19,60 L 20,61 L 20,62 L 21,63 L 21,64 L 22,65 L 22,66 L 23,67 L 23,69 L 24,70 L 24,71 L 25,72 L 25,75 L 26,76 L 26,77 L 27,78 L 27,80 L 29,82 L 29,85 L 30,86 L 30,87 L 31,88 L 31,89 L 32,90 L 32,91 L 33,92 L 33,94 L 34,95 L 34,96 L 35,97 L 35,99 L 36,100 L 36,101 L 37,102 L 37,105 L 38,106 L 38,107 L 39,108 L 39,109 L 41,111 L 41,115 L 43,117 L 43,118 L 44,119 L 44,120 L 45,121 L 45,123 L 46,124 L 46,125 L 47,126 L 47,127 L 48,128 L 48,130 L 49,131 L 49,132 L 50,133 L 50,136 L 52,138 L 52,139 L 53,140 L 53,142 L 54,143 L 54,144 L 55,145 L 55,148 L 56,149 L 56,150 L 57,151 L 57,152 L 58,153 L 58,154 L 59,155 L 59,156 L 60,157 L 60,159 L 61,160 L 61,161 L 62,162 L 62,163 L 63,164 L 63,166 L 64,167 L 64,168 L 65,169 L 65,171 L 66,172 L 66,173 L 67,174 L 67,176 L 68,177 L 68,178 L 69,179 L 69,181 L 70,182 L 70,183 L 71,184 L 71,185 L 72,186 L 72,187 L 73,188 L 73,190 L 74,191 L 74,192 L 75,193 L 75,194 L 76,195 L 76,196 L 77,197 L 77,199 L 78,200 L 78,202 L 79,203 L 79,204 L 80,205 L 80,206 L 81,207 L 81,210 L 82,211 L 82,212 L 83,213 L 85,213 L 85,212 L 84,211 L 84,209 L 83,208 L 83,207 L 82,206 L 82,204 L 81,203 L 81,201 L 80,200 L 80,199 L 79,198 L 79,197 L 78,196 L 78,195 L 77,194 L 77,192 L 76,191 L 76,190 L 75,189 L 75,188 L 74,187 L 74,185 L 73,184 L 73,183 L 72,182 L 72,180 L 70,178 L 70,174 L 69,173 L 69,172 L 68,171 L 68,169 L 66,167 L 66,165 L 65,164 L 65,163 L 64,162 L 64,160 L 63,159 L 63,158 L 62,157 L 62,155 L 61,154 L 61,153 L 59,151 L 59,150 L 58,149 L 58,147 L 57,146 L 57,144 L 56,143 L 56,141 L 55,140 L 55,139 L 54,138 L 54,137 L 53,136 L 53,134 L 52,133 L 52,132 L 51,131 L 51,129 L 50,128 L 50,127 L 49,126 L 49,125 L 48,124 L 48,122 L 47,121 L 47,119 L 45,117 L 45,116 L 44,115 L 44,112 L 42,110 L 42,109 L 41,108 L 41,106 L 40,105 L 40,104 L 39,103 L 39,102 L 38,101 L 38,99 L 37,98 L 37,97 L 36,96 L 36,93 L 35,92 L 35,91 L 34,90 L 34,89 L 33,88 L 33,87 L 32,86 L 32,83 L 31,82 L 31,81 L 30,80 L 30,79 L 29,78 L 29,77 L 28,76 L 28,74 L 27,73 L 27,72 L 26,71 L 26,69 L 25,68 L 25,67 L 24,66 L 24,64 L 23,63 L 23,62 L 22,61 L 22,59 L 21,58 L 21,57 L 20,56 L 20,54 L 19,53 L 19,52 L 18,51 L 18,49 L 17,48 L 17,47 L 16,46 L 16,45 L 15,44 L 15,43 L 14,42 L 14,40 L 13,39 L 13,38 L 12,37 L 12,35 L 11,34 L 11,33 L 10,32 L 10,31 L 9,30 L 9,26 L 7,24 L 7,22 L 5,20 L 5,17 L 4,16 L 4,15 L 3,14 L 3,13 L 2,12 L 2,11 L 1,10 L 1,7 Z" fill="black" /><path d="M 247,0 L 247,1 L 248,2 L 248,4 L 249,5 L 249,6 L 250,7 L 250,10 L 251,11 L 251,12 L 253,14 L 253,15 L 254,16 L 254,18 L 255,19 L 255,20 L 256,21 L 256,22 L 257,23 L 257,24 L 258,25 L 258,26 L 259,27 L 259,28 L 260,29 L 260,30 L 260,24 L 259,23 L 259,21 L 258,20 L 258,18 L 255,15 L 255,12 L 253,10 L 253,7 L 252,6 L 252,5 L 251,4 L 251,2 L 249,0 Z" fill="black" /><path d="M 224,0 L 224,2 L 225,3 L 225,4 L 226,5 L 226,7 L 228,9 L 228,11 L 229,12 L 229,13 L 230,14 L 230,16 L 231,17 L 231,18 L 232,19 L 232,20 L 233,21 L 233,22 L 234,23 L 234,24 L 235,25 L 235,26 L 236,27 L 236,28 L 237,29 L 237,32 L 238,33 L 238,34 L 240,36 L 240,38 L 241,39 L 241,40 L 242,41 L 242,42 L 243,43 L 243,44 L 244,45 L 244,46 L 245,47 L 245,49 L 246,50 L 246,51 L 247,52 L 247,54 L 248,55 L 248,57 L 249,58 L 250,58 L 251,59 L 251,65 L 253,67 L 253,68 L 254,69 L 254,70 L 255,71 L 255,72 L 256,73 L 256,74 L 257,75 L 257,78 L 258,79 L 258,80 L 259,81 L 259,82 L 260,83 L 260,76 L 259,75 L 259,74 L 257,72 L 257,71 L 256,70 L 256,67 L 254,65 L 254,62 L 253,61 L 253,60 L 251,58 L 251,55 L 250,54 L 250,53 L 249,52 L 249,51 L 248,50 L 248,49 L 247,48 L 247,47 L 246,46 L 246,43 L 245,42 L 245,41 L 243,39 L 243,38 L 242,37 L 242,36 L 241,35 L 241,33 L 240,32 L 240,31 L 239,30 L 239,29 L 238,28 L 238,25 L 237,24 L 237,23 L 236,22 L 236,21 L 235,20 L 235,19 L 233,17 L 233,16 L 232,15 L 232,12 L 231,11 L 231,10 L 230,9 L 230,8 L 229,7 L 229,6 L 228,5 L 228,4 L 227,3 L 227,0 Z" fill="black" /><path d="M 201,0 L 201,1 L 202,2 L 202,3 L 203,4 L 203,5 L 204,6 L 204,7 L 205,8 L 205,11 L 207,13 L 207,15 L 208,16 L 208,17 L 209,18 L 209,21 L 210,22 L 210,23 L 212,25 L 212,26 L 213,27 L 213,28 L 214,29 L 214,30 L 215,31 L 215,33 L 216,34 L 216,35 L 217,36 L 217,38 L 218,39 L 218,40 L 220,42 L 220,46 L 221,47 L 221,48 L 222,49 L 222,51 L 224,53 L 224,55 L 225,56 L 225,58 L 226,59 L 226,60 L 227,61 L 227,62 L 228,63 L 228,64 L 229,65 L 229,66 L 230,67 L 230,68 L 231,69 L 231,71 L 232,72 L 232,73 L 233,74 L 233,76 L 234,77 L 234,78 L 235,79 L 235,80 L 236,81 L 236,83 L 238,85 L 238,87 L 240,89 L 240,92 L 242,94 L 242,97 L 244,99 L 244,101 L 246,103 L 246,105 L 247,106 L 247,108 L 248,109 L 248,110 L 249,111 L 249,112 L 250,113 L 250,116 L 252,118 L 252,120 L 253,121 L 253,122 L 254,123 L 254,124 L 255,125 L 255,126 L 256,127 L 256,130 L 257,131 L 257,133 L 258,134 L 258,135 L 260,137 L 260,138 L 260,132 L 259,131 L 259,129 L 258,128 L 258,127 L 257,126 L 257,123 L 256,122 L 256,121 L 255,120 L 255,119 L 254,118 L 254,117 L 253,116 L 253,114 L 251,112 L 251,109 L 249,107 L 249,104 L 247,102 L 247,100 L 246,99 L 246,98 L 245,97 L 245,95 L 243,93 L 243,91 L 242,90 L 242,88 L 241,87 L 241,86 L 239,84 L 239,81 L 237,79 L 237,77 L 236,76 L 236,75 L 235,74 L 235,73 L 234,72 L 234,71 L 233,70 L 233,69 L 232,68 L 232,66 L 231,65 L 231,64 L 230,63 L 230,62 L 229,61 L 229,59 L 228,58 L 228,57 L 227,56 L 227,54 L 225,52 L 225,49 L 223,47 L 223,45 L 222,44 L 222,41 L 221,40 L 221,39 L 220,38 L 220,37 L 219,36 L 219,35 L 218,34 L 218,33 L 217,32 L 217,31 L 216,30 L 216,28 L 215,27 L 215,26 L 214,25 L 214,24 L 213,23 L 213,22 L 212,21 L 212,20 L 211,19 L 211,17 L 210,16 L 210,14 L 208,12 L 208,9 L 207,8 L 207,7 L 206,6 L 206,4 L 205,3 L 205,2 L 204,1 L 204,0 Z" fill="black" /><path d="M 18,0 L 18,2 L 20,4 L 20,7 L 21,8 L 21,10 L 22,11 L 22,12 L 24,14 L 24,16 L 25,17 L 25,18 L 26,19 L 26,22 L 27,23 L 27,24 L 28,25 L 28,27 L 30,29 L 30,31 L 32,33 L 32,35 L 34,37 L 34,41 L 36,43 L 35,44 L 37,46 L 37,49 L 38,50 L 38,51 L 39,52 L 39,53 L 41,55 L 41,58 L 42,59 L 42,60 L 43,61 L 43,62 L 44,63 L 44,64 L 45,65 L 45,67 L 46,68 L 46,69 L 47,70 L 47,72 L 48,73 L 48,74 L 49,75 L 49,77 L 50,78 L 50,79 L 51,80 L 51,82 L 52,83 L 52,84 L 53,85 L 53,86 L 54,87 L 54,89 L 55,90 L 55,92 L 56,93 L 56,94 L 58,96 L 58,99 L 60,101 L 60,103 L 58,105 L 57,105 L 56,106 L 54,106 L 52,108 L 49,108 L 49,110 L 50,110 L 51,111 L 54,111 L 56,113 L 59,113 L 60,114 L 60,115 L 63,115 L 64,116 L 64,117 L 65,117 L 68,120 L 68,122 L 69,123 L 69,124 L 70,125 L 70,128 L 71,129 L 71,130 L 72,131 L 72,132 L 73,133 L 73,134 L 74,135 L 74,137 L 75,138 L 75,140 L 76,141 L 76,142 L 77,143 L 77,144 L 78,145 L 78,147 L 80,149 L 80,152 L 81,153 L 81,154 L 82,155 L 82,156 L 83,157 L 83,159 L 84,160 L 84,161 L 85,162 L 85,164 L 86,165 L 86,166 L 87,167 L 87,168 L 88,169 L 88,170 L 89,171 L 89,174 L 91,176 L 91,178 L 92,179 L 92,180 L 93,181 L 93,183 L 94,184 L 94,185 L 95,186 L 95,188 L 96,189 L 96,190 L 97,191 L 97,192 L 98,193 L 98,194 L 99,195 L 99,198 L 100,199 L 100,200 L 101,201 L 101,202 L 102,203 L 102,204 L 103,205 L 103,207 L 104,208 L 104,209 L 105,210 L 105,211 L 106,212 L 106,213 L 109,213 L 108,212 L 108,211 L 107,210 L 107,209 L 106,208 L 106,206 L 105,205 L 105,204 L 104,203 L 104,202 L 103,201 L 103,200 L 102,199 L 102,197 L 101,196 L 101,194 L 100,193 L 100,191 L 99,190 L 99,189 L 98,188 L 98,187 L 97,186 L 97,185 L 96,184 L 96,181 L 94,179 L 94,177 L 92,175 L 92,172 L 90,170 L 90,168 L 89,167 L 89,166 L 88,165 L 88,163 L 87,162 L 87,161 L 86,160 L 86,159 L 85,158 L 85,157 L 84,156 L 84,153 L 83,152 L 83,151 L 82,150 L 82,149 L 81,148 L 81,145 L 80,144 L 80,143 L 78,141 L 78,140 L 77,139 L 77,137 L 76,136 L 76,134 L 75,133 L 75,131 L 74,130 L 74,129 L 73,128 L 73,126 L 71,124 L 71,122 L 72,121 L 75,121 L 76,122 L 77,122 L 78,123 L 79,123 L 80,124 L 81,124 L 82,125 L 84,125 L 86,127 L 88,127 L 90,129 L 93,129 L 96,132 L 96,133 L 97,134 L 97,135 L 98,136 L 98,140 L 99,141 L 99,142 L 100,143 L 100,144 L 101,145 L 101,146 L 102,147 L 102,148 L 103,149 L 103,153 L 105,155 L 105,157 L 107,159 L 107,162 L 109,164 L 109,165 L 110,166 L 110,168 L 111,169 L 111,171 L 112,172 L 112,173 L 113,174 L 113,176 L 114,177 L 114,178 L 116,180 L 116,182 L 117,183 L 117,184 L 118,185 L 118,186 L 119,187 L 119,190 L 120,191 L 120,192 L 122,194 L 122,197 L 124,199 L 124,201 L 126,203 L 126,206 L 128,208 L 128,210 L 129,211 L 129,212 L 130,213 L 132,213 L 132,212 L 131,211 L 131,209 L 130,208 L 130,207 L 129,206 L 129,205 L 128,204 L 128,202 L 127,201 L 127,200 L 125,198 L 125,195 L 123,193 L 123,191 L 122,190 L 122,189 L 121,188 L 121,187 L 120,186 L 120,184 L 119,183 L 119,182 L 118,181 L 118,179 L 117,178 L 117,177 L 116,176 L 116,175 L 115,174 L 115,173 L 114,172 L 114,170 L 113,169 L 114,168 L 113,167 L 113,166 L 111,164 L 111,163 L 110,162 L 110,160 L 108,158 L 108,155 L 106,153 L 106,150 L 104,148 L 104,146 L 103,145 L 103,144 L 102,143 L 102,141 L 101,140 L 101,139 L 99,137 L 99,136 L 101,134 L 103,134 L 104,135 L 105,135 L 106,136 L 107,136 L 108,137 L 110,137 L 112,139 L 115,139 L 117,141 L 119,141 L 121,143 L 123,143 L 126,146 L 126,151 L 128,153 L 128,154 L 129,155 L 129,158 L 130,159 L 130,160 L 131,161 L 131,162 L 132,163 L 132,164 L 133,165 L 133,168 L 135,170 L 135,171 L 136,172 L 136,173 L 137,174 L 137,176 L 138,177 L 138,178 L 139,179 L 139,181 L 140,182 L 140,184 L 142,186 L 142,188 L 144,190 L 144,193 L 146,195 L 146,197 L 148,199 L 148,202 L 149,203 L 149,204 L 150,205 L 150,207 L 152,209 L 152,212 L 153,213 L 156,213 L 155,212 L 155,210 L 153,208 L 153,205 L 151,203 L 151,201 L 150,200 L 150,198 L 149,197 L 149,196 L 147,194 L 147,191 L 145,189 L 145,187 L 144,186 L 144,185 L 143,184 L 143,183 L 142,182 L 142,180 L 141,179 L 141,178 L 140,177 L 140,175 L 139,174 L 139,173 L 138,172 L 138,171 L 137,170 L 137,169 L 136,168 L 136,167 L 135,166 L 135,165 L 134,164 L 134,162 L 133,161 L 133,160 L 132,159 L 132,156 L 130,154 L 130,153 L 129,152 L 129,151 L 127,149 L 127,147 L 128,146 L 130,146 L 131,147 L 133,147 L 135,149 L 137,149 L 138,150 L 139,150 L 140,151 L 141,151 L 142,152 L 144,152 L 145,153 L 146,153 L 147,154 L 148,154 L 149,155 L 150,155 L 153,158 L 153,160 L 154,161 L 154,163 L 155,164 L 155,166 L 156,167 L 156,168 L 157,169 L 157,170 L 158,171 L 158,173 L 159,174 L 159,175 L 160,176 L 160,177 L 161,178 L 161,181 L 162,182 L 162,183 L 164,185 L 164,186 L 165,187 L 165,189 L 166,190 L 166,191 L 167,192 L 167,195 L 168,195 L 169,196 L 169,199 L 170,200 L 170,201 L 171,202 L 171,204 L 172,205 L 172,206 L 173,207 L 173,208 L 174,209 L 174,211 L 175,212 L 175,213 L 178,213 L 178,212 L 176,210 L 176,207 L 175,206 L 175,205 L 174,204 L 174,203 L 173,202 L 173,201 L 172,200 L 172,198 L 171,197 L 171,196 L 170,195 L 170,192 L 168,190 L 168,189 L 167,188 L 167,186 L 165,184 L 165,183 L 164,182 L 164,180 L 163,179 L 163,178 L 162,177 L 162,175 L 161,174 L 161,172 L 160,171 L 160,170 L 158,168 L 158,165 L 156,163 L 156,162 L 155,161 L 155,160 L 156,159 L 159,159 L 160,160 L 161,160 L 162,161 L 163,161 L 164,162 L 165,162 L 166,163 L 168,163 L 170,165 L 172,165 L 174,167 L 177,167 L 178,168 L 179,168 L 181,170 L 181,171 L 182,172 L 182,174 L 183,175 L 183,176 L 184,177 L 184,178 L 185,179 L 185,181 L 186,182 L 186,184 L 187,185 L 187,186 L 188,187 L 188,188 L 189,189 L 189,191 L 190,192 L 190,194 L 191,195 L 191,196 L 193,198 L 193,199 L 194,200 L 194,203 L 195,204 L 195,206 L 196,207 L 196,208 L 197,209 L 197,210 L 198,211 L 198,212 L 199,213 L 201,213 L 201,212 L 200,211 L 200,210 L 199,209 L 199,207 L 198,206 L 198,205 L 197,204 L 197,202 L 196,201 L 196,200 L 195,199 L 195,196 L 193,194 L 193,192 L 192,191 L 192,190 L 191,189 L 191,187 L 190,186 L 190,185 L 189,184 L 189,183 L 188,182 L 188,181 L 187,180 L 187,178 L 186,177 L 186,176 L 185,175 L 185,174 L 184,173 L 184,172 L 185,171 L 186,171 L 188,173 L 190,173 L 192,175 L 195,175 L 197,177 L 199,177 L 200,178 L 203,178 L 203,173 L 204,172 L 205,172 L 205,167 L 203,165 L 203,146 L 204,145 L 204,124 L 205,123 L 205,122 L 206,121 L 208,123 L 208,125 L 209,126 L 209,127 L 210,128 L 210,130 L 211,131 L 211,133 L 212,134 L 212,135 L 213,136 L 213,137 L 214,138 L 214,140 L 215,141 L 215,143 L 216,144 L 216,146 L 218,148 L 218,149 L 219,150 L 219,152 L 221,154 L 221,158 L 222,159 L 222,160 L 224,162 L 224,163 L 225,164 L 225,166 L 226,167 L 226,168 L 227,169 L 227,170 L 229,172 L 229,176 L 230,177 L 230,178 L 231,179 L 231,180 L 232,181 L 232,183 L 234,185 L 234,187 L 235,188 L 235,190 L 237,192 L 237,193 L 238,194 L 238,196 L 239,197 L 239,198 L 240,199 L 240,202 L 242,204 L 242,206 L 244,208 L 244,210 L 245,211 L 245,212 L 246,213 L 248,213 L 248,212 L 247,211 L 247,209 L 246,208 L 246,207 L 245,206 L 245,205 L 244,204 L 244,203 L 243,202 L 243,200 L 241,198 L 241,195 L 240,194 L 240,193 L 239,192 L 239,191 L 238,190 L 238,189 L 237,188 L 237,186 L 236,185 L 236,183 L 234,181 L 234,180 L 233,179 L 233,177 L 232,176 L 232,175 L 231,174 L 231,173 L 230,172 L 230,169 L 228,167 L 228,164 L 227,163 L 227,162 L 225,160 L 225,158 L 224,157 L 224,156 L 223,155 L 223,154 L 222,153 L 222,151 L 221,150 L 221,149 L 220,148 L 220,147 L 219,146 L 219,145 L 218,144 L 218,142 L 217,141 L 217,140 L 216,139 L 216,138 L 215,137 L 215,135 L 214,134 L 214,133 L 213,132 L 213,130 L 212,129 L 212,127 L 211,126 L 211,125 L 209,123 L 209,121 L 207,119 L 207,117 L 205,115 L 205,73 L 206,72 L 207,72 L 210,75 L 210,78 L 211,79 L 211,80 L 212,81 L 212,82 L 214,84 L 214,85 L 215,86 L 215,87 L 216,88 L 216,91 L 218,93 L 218,95 L 219,96 L 219,97 L 220,98 L 220,99 L 221,100 L 221,102 L 222,103 L 222,104 L 223,105 L 223,107 L 224,108 L 224,109 L 226,111 L 226,114 L 228,116 L 228,118 L 229,119 L 229,120 L 230,121 L 230,122 L 231,123 L 231,125 L 232,126 L 232,128 L 233,129 L 233,130 L 234,131 L 234,132 L 235,133 L 235,135 L 236,136 L 236,137 L 237,138 L 237,139 L 238,140 L 238,142 L 239,143 L 239,144 L 240,145 L 240,147 L 242,149 L 242,151 L 243,152 L 243,153 L 244,154 L 244,156 L 245,157 L 245,158 L 246,159 L 246,161 L 248,163 L 248,164 L 249,165 L 249,167 L 250,168 L 250,169 L 251,170 L 251,172 L 252,173 L 252,174 L 253,175 L 253,177 L 254,178 L 254,179 L 255,180 L 255,182 L 258,185 L 259,185 L 260,184 L 259,183 L 259,182 L 257,180 L 257,178 L 256,177 L 256,176 L 255,175 L 255,174 L 254,173 L 254,171 L 253,170 L 253,169 L 252,168 L 252,166 L 251,165 L 251,164 L 250,163 L 250,162 L 249,161 L 249,159 L 247,157 L 247,155 L 246,154 L 246,153 L 245,152 L 245,151 L 244,150 L 244,149 L 243,148 L 243,145 L 241,143 L 241,140 L 239,138 L 239,137 L 238,136 L 238,133 L 237,132 L 237,131 L 235,129 L 235,127 L 234,126 L 234,124 L 233,123 L 233,122 L 232,121 L 232,119 L 231,118 L 231,117 L 230,116 L 230,115 L 229,114 L 229,113 L 228,112 L 228,111 L 227,110 L 227,108 L 226,107 L 226,106 L 225,105 L 225,104 L 224,103 L 224,101 L 223,100 L 223,99 L 222,98 L 222,96 L 221,95 L 221,94 L 220,93 L 220,92 L 219,91 L 219,89 L 218,88 L 218,87 L 217,86 L 217,85 L 216,84 L 216,83 L 215,82 L 215,80 L 213,78 L 213,76 L 212,75 L 212,73 L 209,70 L 209,69 L 208,68 L 208,66 L 207,65 L 207,64 L 206,63 L 206,49 L 207,48 L 207,39 L 204,39 L 203,40 L 202,40 L 200,42 L 199,42 L 197,40 L 197,39 L 196,38 L 196,37 L 195,36 L 195,35 L 194,34 L 194,32 L 193,31 L 193,29 L 192,28 L 192,27 L 189,24 L 189,21 L 188,20 L 188,18 L 187,17 L 187,16 L 185,14 L 185,11 L 184,10 L 184,9 L 182,7 L 182,6 L 181,5 L 181,2 L 179,0 L 177,0 L 178,1 L 178,4 L 179,5 L 179,6 L 180,7 L 180,8 L 181,9 L 181,10 L 182,11 L 182,13 L 184,15 L 184,17 L 185,18 L 185,19 L 186,20 L 186,22 L 187,23 L 187,25 L 189,27 L 189,28 L 190,29 L 190,31 L 191,32 L 191,33 L 192,34 L 192,36 L 194,38 L 194,40 L 196,42 L 196,43 L 195,44 L 194,44 L 193,45 L 192,45 L 191,46 L 188,46 L 186,48 L 184,48 L 183,49 L 182,49 L 181,50 L 179,50 L 177,48 L 177,45 L 176,44 L 176,43 L 174,41 L 174,38 L 172,36 L 172,35 L 171,34 L 171,33 L 170,32 L 170,29 L 168,27 L 168,25 L 167,24 L 167,23 L 166,22 L 166,21 L 165,20 L 165,19 L 164,18 L 164,16 L 163,15 L 163,14 L 162,13 L 162,11 L 161,10 L 161,9 L 160,8 L 160,5 L 158,3 L 158,2 L 157,1 L 157,0 L 154,0 L 155,1 L 155,2 L 156,3 L 156,4 L 157,5 L 157,7 L 158,8 L 158,10 L 159,11 L 159,12 L 160,13 L 160,14 L 161,15 L 161,17 L 162,18 L 162,19 L 163,20 L 163,21 L 164,22 L 164,23 L 165,24 L 165,26 L 166,27 L 166,28 L 167,29 L 167,30 L 168,31 L 168,33 L 169,34 L 169,35 L 171,37 L 171,39 L 172,40 L 172,41 L 173,42 L 173,44 L 174,45 L 174,46 L 175,47 L 175,48 L 176,49 L 176,52 L 175,53 L 174,53 L 173,54 L 170,54 L 169,55 L 168,55 L 167,56 L 166,56 L 165,57 L 164,57 L 163,58 L 162,58 L 161,59 L 159,59 L 157,57 L 157,53 L 155,51 L 155,50 L 154,49 L 154,46 L 152,44 L 152,41 L 151,40 L 151,39 L 150,38 L 150,37 L 148,35 L 148,33 L 147,32 L 147,31 L 146,30 L 146,28 L 145,27 L 145,26 L 144,25 L 144,23 L 143,22 L 143,21 L 142,20 L 142,17 L 140,15 L 140,14 L 139,13 L 139,12 L 138,11 L 138,10 L 137,9 L 137,8 L 136,7 L 136,5 L 135,4 L 135,3 L 134,2 L 134,0 L 131,0 L 131,1 L 132,2 L 132,3 L 133,4 L 133,6 L 134,7 L 134,8 L 135,9 L 135,10 L 136,11 L 136,12 L 137,13 L 137,15 L 138,16 L 138,17 L 139,18 L 139,19 L 140,20 L 140,21 L 141,22 L 141,24 L 142,25 L 142,26 L 143,27 L 143,28 L 144,29 L 144,30 L 145,31 L 145,33 L 146,34 L 146,35 L 147,36 L 147,38 L 148,39 L 148,41 L 150,43 L 150,44 L 151,45 L 151,48 L 153,50 L 153,52 L 154,53 L 154,54 L 155,55 L 155,56 L 156,57 L 156,61 L 155,62 L 152,62 L 150,64 L 148,64 L 147,65 L 146,65 L 145,66 L 144,66 L 143,67 L 140,67 L 138,65 L 138,63 L 137,62 L 137,61 L 136,60 L 136,58 L 135,57 L 135,56 L 134,55 L 134,54 L 133,53 L 133,52 L 132,51 L 132,48 L 130,46 L 130,44 L 129,43 L 129,42 L 128,41 L 128,39 L 126,37 L 126,34 L 125,33 L 125,32 L 124,31 L 124,30 L 123,29 L 123,28 L 122,27 L 122,26 L 121,25 L 121,24 L 120,23 L 120,20 L 119,19 L 119,18 L 118,17 L 118,16 L 117,15 L 117,14 L 116,13 L 116,10 L 114,8 L 114,7 L 113,6 L 113,5 L 112,4 L 112,1 L 111,0 L 109,0 L 109,2 L 110,3 L 110,5 L 111,6 L 111,7 L 113,9 L 113,12 L 115,14 L 115,17 L 117,19 L 117,21 L 118,22 L 118,23 L 119,24 L 119,26 L 121,28 L 121,31 L 123,33 L 123,35 L 124,36 L 124,37 L 125,38 L 125,40 L 126,41 L 126,42 L 127,43 L 127,45 L 128,46 L 128,47 L 129,48 L 129,50 L 130,51 L 130,52 L 131,53 L 131,55 L 132,56 L 132,57 L 133,58 L 133,59 L 134,60 L 134,61 L 135,62 L 135,64 L 138,67 L 138,68 L 136,70 L 134,70 L 132,72 L 130,72 L 129,73 L 128,73 L 127,74 L 126,74 L 125,75 L 124,75 L 123,76 L 120,76 L 119,75 L 119,74 L 117,72 L 117,71 L 116,70 L 116,67 L 115,66 L 115,65 L 114,64 L 114,63 L 113,62 L 113,61 L 112,60 L 112,58 L 111,57 L 111,56 L 110,55 L 110,53 L 109,52 L 109,51 L 108,50 L 108,47 L 107,46 L 107,45 L 106,44 L 106,43 L 105,42 L 105,41 L 104,40 L 104,38 L 103,37 L 103,36 L 102,35 L 102,33 L 101,32 L 101,31 L 100,30 L 100,28 L 99,27 L 99,26 L 98,25 L 98,24 L 97,23 L 97,22 L 95,20 L 95,19 L 94,18 L 94,15 L 93,14 L 93,13 L 92,12 L 92,11 L 91,10 L 91,7 L 89,5 L 89,1 L 88,0 L 85,0 L 86,1 L 86,4 L 87,5 L 87,6 L 88,7 L 88,9 L 90,11 L 90,14 L 91,15 L 91,16 L 92,17 L 92,18 L 93,19 L 93,21 L 94,22 L 94,23 L 95,24 L 95,25 L 96,26 L 96,27 L 97,28 L 97,29 L 98,30 L 98,32 L 99,33 L 99,34 L 100,35 L 100,36 L 101,37 L 101,39 L 102,40 L 102,42 L 103,43 L 103,44 L 104,45 L 104,46 L 105,47 L 105,49 L 106,50 L 106,51 L 107,52 L 107,54 L 108,55 L 108,56 L 109,57 L 109,58 L 110,59 L 110,60 L 111,61 L 111,63 L 112,64 L 112,65 L 113,66 L 113,67 L 114,68 L 114,70 L 115,71 L 115,72 L 116,73 L 116,74 L 118,76 L 118,77 L 115,80 L 112,80 L 110,82 L 107,82 L 105,84 L 101,84 L 99,82 L 99,80 L 98,79 L 98,75 L 95,72 L 95,71 L 94,70 L 94,67 L 93,66 L 93,65 L 92,64 L 92,63 L 91,62 L 91,61 L 90,60 L 90,59 L 89,58 L 89,57 L 88,56 L 88,54 L 87,53 L 87,51 L 86,50 L 86,49 L 85,48 L 85,46 L 83,44 L 83,41 L 82,40 L 82,39 L 81,38 L 81,37 L 79,35 L 79,33 L 78,32 L 78,31 L 77,30 L 77,27 L 76,26 L 76,25 L 75,24 L 75,23 L 74,22 L 74,21 L 73,20 L 73,17 L 72,16 L 72,15 L 71,14 L 71,12 L 69,10 L 69,9 L 68,8 L 68,7 L 67,6 L 67,3 L 66,2 L 66,1 L 65,0 L 62,0 L 63,1 L 63,2 L 64,3 L 64,5 L 65,6 L 65,7 L 66,8 L 66,10 L 67,11 L 67,12 L 68,13 L 68,14 L 69,15 L 69,16 L 70,17 L 70,19 L 71,20 L 71,21 L 72,22 L 72,24 L 73,25 L 73,26 L 74,27 L 74,29 L 76,31 L 76,34 L 78,36 L 78,38 L 79,39 L 79,40 L 80,41 L 80,43 L 81,44 L 81,45 L 82,46 L 82,48 L 83,49 L 83,50 L 84,51 L 84,52 L 85,53 L 85,54 L 86,55 L 86,57 L 87,58 L 87,60 L 89,62 L 89,63 L 90,64 L 90,66 L 91,67 L 91,68 L 92,69 L 92,70 L 93,71 L 93,73 L 94,74 L 94,75 L 95,76 L 95,78 L 96,79 L 96,80 L 97,81 L 97,82 L 98,83 L 98,84 L 99,85 L 99,86 L 97,88 L 94,88 L 92,90 L 90,90 L 89,91 L 88,91 L 87,92 L 86,92 L 84,94 L 82,94 L 81,93 L 81,91 L 80,90 L 80,89 L 79,88 L 79,87 L 78,86 L 78,83 L 77,82 L 77,81 L 76,80 L 76,79 L 74,77 L 74,74 L 73,73 L 73,72 L 72,71 L 72,70 L 71,69 L 71,68 L 70,67 L 70,65 L 69,64 L 69,63 L 68,62 L 68,60 L 66,58 L 66,56 L 65,55 L 65,54 L 64,53 L 64,51 L 63,50 L 63,49 L 62,48 L 62,47 L 61,46 L 61,45 L 60,44 L 60,42 L 59,41 L 59,40 L 58,39 L 58,37 L 57,36 L 57,35 L 56,34 L 56,32 L 55,31 L 55,30 L 54,29 L 54,27 L 52,25 L 52,23 L 51,22 L 51,21 L 50,20 L 50,17 L 49,16 L 49,15 L 48,14 L 48,13 L 47,12 L 47,11 L 46,10 L 46,8 L 45,7 L 45,5 L 44,4 L 44,3 L 43,2 L 43,1 L 42,0 L 40,0 L 40,1 L 41,2 L 41,3 L 42,4 L 42,6 L 43,7 L 43,8 L 44,9 L 44,11 L 45,12 L 45,14 L 46,15 L 46,16 L 47,17 L 47,18 L 48,19 L 48,20 L 49,21 L 49,24 L 50,25 L 50,26 L 51,27 L 51,28 L 52,29 L 52,30 L 53,31 L 53,33 L 54,34 L 54,36 L 55,37 L 55,38 L 56,39 L 56,40 L 57,41 L 57,42 L 58,43 L 58,44 L 59,45 L 59,47 L 60,48 L 60,49 L 61,50 L 61,51 L 62,52 L 62,54 L 63,55 L 63,57 L 65,59 L 65,62 L 67,64 L 67,65 L 68,66 L 68,68 L 69,69 L 69,71 L 70,72 L 70,73 L 71,74 L 71,76 L 73,78 L 73,80 L 75,82 L 75,84 L 76,85 L 76,86 L 77,87 L 77,89 L 78,90 L 78,91 L 80,93 L 79,94 L 79,95 L 78,96 L 76,96 L 74,98 L 72,98 L 71,99 L 70,99 L 69,100 L 68,100 L 67,101 L 66,101 L 65,102 L 63,102 L 61,100 L 61,98 L 60,97 L 60,96 L 59,95 L 59,93 L 58,92 L 58,91 L 57,90 L 57,88 L 56,87 L 56,85 L 55,84 L 55,83 L 54,82 L 54,81 L 53,80 L 53,79 L 52,78 L 52,77 L 51,76 L 51,75 L 50,74 L 50,72 L 49,71 L 49,70 L 48,69 L 48,67 L 47,66 L 47,65 L 46,64 L 46,61 L 44,59 L 44,55 L 42,53 L 42,52 L 41,51 L 41,50 L 40,49 L 40,48 L 39,47 L 39,45 L 38,44 L 38,42 L 37,41 L 37,39 L 35,37 L 35,34 L 33,32 L 33,30 L 32,29 L 32,27 L 30,25 L 30,24 L 29,23 L 29,21 L 28,20 L 28,18 L 27,17 L 27,15 L 26,14 L 26,13 L 25,12 L 25,11 L 24,10 L 24,9 L 23,8 L 23,6 L 21,4 L 21,0 Z" fill="black" /><path d="M 0,179 L 0,213 L 15,213 L 12,210 L 12,209 L 11,208 L 11,204 L 9,202 L 9,200 L 8,199 L 8,198 L 7,197 L 7,196 L 6,195 L 6,194 L 5,193 L 5,191 L 4,190 L 4,189 L 3,188 L 3,186 L 1,184 L 1,180 Z" fill="none" stroke="black" stroke-width="1" /><path d="M 156,160 L 156,161 L 157,162 L 157,163 L 159,165 L 159,168 L 161,170 L 161,171 L 162,172 L 162,174 L 163,175 L 163,177 L 164,178 L 164,179 L 165,180 L 165,182 L 166,183 L 166,184 L 168,186 L 168,188 L 169,189 L 169,190 L 171,192 L 171,195 L 172,196 L 172,197 L 173,198 L 173,200 L 174,201 L 174,202 L 175,203 L 175,204 L 176,205 L 176,206 L 177,207 L 177,210 L 179,212 L 179,213 L 198,213 L 197,212 L 197,211 L 196,210 L 196,209 L 195,208 L 195,207 L 194,206 L 194,204 L 193,203 L 193,200 L 192,199 L 192,198 L 190,196 L 190,195 L 189,194 L 189,192 L 188,191 L 188,189 L 187,188 L 187,187 L 186,186 L 186,185 L 185,184 L 185,182 L 184,181 L 184,179 L 183,178 L 183,177 L 182,176 L 182,175 L 181,174 L 181,172 L 180,171 L 180,170 L 179,169 L 178,169 L 177,168 L 174,168 L 172,166 L 170,166 L 168,164 L 166,164 L 165,163 L 164,163 L 163,162 L 162,162 L 161,161 L 160,161 L 159,160 Z" fill="none" stroke="black" stroke-width="1" /><path d="M 128,147 L 128,149 L 130,151 L 130,152 L 131,153 L 131,154 L 133,156 L 133,159 L 134,160 L 134,161 L 135,162 L 135,164 L 136,165 L 136,166 L 137,167 L 137,168 L 138,169 L 138,170 L 139,171 L 139,172 L 140,173 L 140,174 L 141,175 L 141,177 L 142,178 L 142,179 L 143,180 L 143,182 L 144,183 L 144,184 L 145,185 L 145,186 L 146,187 L 146,189 L 148,191 L 148,194 L 150,196 L 150,197 L 151,198 L 151,200 L 152,201 L 152,203 L 154,205 L 154,208 L 156,210 L 156,212 L 157,213 L 174,213 L 174,212 L 173,211 L 173,209 L 172,208 L 172,207 L 171,206 L 171,205 L 170,204 L 170,202 L 169,201 L 169,200 L 168,199 L 168,196 L 167,196 L 166,195 L 166,192 L 165,191 L 165,190 L 164,189 L 164,187 L 163,186 L 163,185 L 161,183 L 161,182 L 160,181 L 160,178 L 159,177 L 159,176 L 158,175 L 158,174 L 157,173 L 157,171 L 156,170 L 156,169 L 155,168 L 155,167 L 154,166 L 154,164 L 153,163 L 153,161 L 152,160 L 152,158 L 150,156 L 149,156 L 148,155 L 147,155 L 146,154 L 145,154 L 144,153 L 142,153 L 141,152 L 140,152 L 139,151 L 138,151 L 137,150 L 135,150 L 133,148 L 131,148 L 130,147 Z" fill="none" stroke="black" stroke-width="1" /><path d="M 101,135 L 100,136 L 100,137 L 102,139 L 102,140 L 103,141 L 103,143 L 104,144 L 104,145 L 105,146 L 105,148 L 107,150 L 107,153 L 109,155 L 109,158 L 111,160 L 111,162 L 112,163 L 112,164 L 114,166 L 114,167 L 115,168 L 114,169 L 115,170 L 115,172 L 116,173 L 116,174 L 117,175 L 117,176 L 118,177 L 118,178 L 119,179 L 119,181 L 120,182 L 120,183 L 121,184 L 121,186 L 122,187 L 122,188 L 123,189 L 123,190 L 124,191 L 124,193 L 126,195 L 126,198 L 128,200 L 128,201 L 129,202 L 129,204 L 130,205 L 130,206 L 131,207 L 131,208 L 132,209 L 132,211 L 133,212 L 133,213 L 152,213 L 151,212 L 151,209 L 149,207 L 149,205 L 148,204 L 148,203 L 147,202 L 147,199 L 145,197 L 145,195 L 143,193 L 143,190 L 141,188 L 141,186 L 139,184 L 139,182 L 138,181 L 138,179 L 137,178 L 137,177 L 136,176 L 136,174 L 135,173 L 135,172 L 134,171 L 134,170 L 132,168 L 132,165 L 131,164 L 131,163 L 130,162 L 130,161 L 129,160 L 129,159 L 128,158 L 128,155 L 127,154 L 127,153 L 125,151 L 125,146 L 123,144 L 121,144 L 119,142 L 117,142 L 115,140 L 112,140 L 110,138 L 108,138 L 107,137 L 106,137 L 105,136 L 104,136 L 103,135 Z" fill="none" stroke="black" stroke-width="1" /><path d="M 206,122 L 206,123 L 205,124 L 205,145 L 204,146 L 204,165 L 206,167 L 206,172 L 205,173 L 204,173 L 204,178 L 203,179 L 200,179 L 199,178 L 197,178 L 195,176 L 192,176 L 190,174 L 188,174 L 186,172 L 185,172 L 185,173 L 186,174 L 186,175 L 187,176 L 187,177 L 188,178 L 188,180 L 189,181 L 189,182 L 190,183 L 190,184 L 191,185 L 191,186 L 192,187 L 192,189 L 193,190 L 193,191 L 194,192 L 194,194 L 196,196 L 196,199 L 197,200 L 197,201 L 198,202 L 198,204 L 199,205 L 199,206 L 200,207 L 200,209 L 201,210 L 201,211 L 202,212 L 202,213 L 221,213 L 221,212 L 219,210 L 219,209 L 218,208 L 218,207 L 217,206 L 217,205 L 216,204 L 216,201 L 215,200 L 215,199 L 214,198 L 214,196 L 212,194 L 212,192 L 211,191 L 211,190 L 210,189 L 210,187 L 209,186 L 209,185 L 208,184 L 208,183 L 207,182 L 207,180 L 206,179 L 206,175 L 207,174 L 208,174 L 209,175 L 209,176 L 211,178 L 211,180 L 212,181 L 212,182 L 213,183 L 213,185 L 214,186 L 214,187 L 215,188 L 215,190 L 216,191 L 216,192 L 217,193 L 217,194 L 218,195 L 218,196 L 219,197 L 219,200 L 220,201 L 220,202 L 221,203 L 221,204 L 222,205 L 222,206 L 223,207 L 223,209 L 225,211 L 225,213 L 245,213 L 244,212 L 244,211 L 243,210 L 243,208 L 241,206 L 241,204 L 239,202 L 239,199 L 238,198 L 238,197 L 237,196 L 237,194 L 236,193 L 236,192 L 234,190 L 234,188 L 233,187 L 233,185 L 231,183 L 231,181 L 230,180 L 230,179 L 229,178 L 229,177 L 228,176 L 228,172 L 226,170 L 226,169 L 225,168 L 225,167 L 224,166 L 224,164 L 223,163 L 223,162 L 221,160 L 221,159 L 220,158 L 220,154 L 218,152 L 218,150 L 217,149 L 217,148 L 215,146 L 215,144 L 214,143 L 214,141 L 213,140 L 213,138 L 212,137 L 212,136 L 211,135 L 211,134 L 210,133 L 210,131 L 209,130 L 209,128 L 208,127 L 208,126 L 207,125 L 207,123 Z" fill="none" stroke="black" stroke-width="1" /><path d="M 72,122 L 72,124 L 74,126 L 74,128 L 75,129 L 75,130 L 76,131 L 76,133 L 77,134 L 77,136 L 78,137 L 78,139 L 79,140 L 79,141 L 81,143 L 81,144 L 82,145 L 82,148 L 83,149 L 83,150 L 84,151 L 84,152 L 85,153 L 85,156 L 86,157 L 86,158 L 87,159 L 87,160 L 88,161 L 88,162 L 89,163 L 89,165 L 90,166 L 90,167 L 91,168 L 91,170 L 93,172 L 93,175 L 95,177 L 95,179 L 97,181 L 97,184 L 98,185 L 98,186 L 99,187 L 99,188 L 100,189 L 100,190 L 101,191 L 101,193 L 102,194 L 102,196 L 103,197 L 103,199 L 104,200 L 104,201 L 105,202 L 105,203 L 106,204 L 106,205 L 107,206 L 107,208 L 108,209 L 108,210 L 109,211 L 109,212 L 110,213 L 129,213 L 128,212 L 128,211 L 127,210 L 127,208 L 125,206 L 125,203 L 123,201 L 123,199 L 121,197 L 121,194 L 119,192 L 119,191 L 118,190 L 118,187 L 117,186 L 117,185 L 116,184 L 116,183 L 115,182 L 115,180 L 113,178 L 113,177 L 112,176 L 112,174 L 111,173 L 111,172 L 110,171 L 110,169 L 109,168 L 109,166 L 108,165 L 108,164 L 106,162 L 106,159 L 104,157 L 104,155 L 102,153 L 102,149 L 101,148 L 101,147 L 100,146 L 100,145 L 99,144 L 99,143 L 98,142 L 98,141 L 97,140 L 97,136 L 96,135 L 96,134 L 95,133 L 95,132 L 93,130 L 90,130 L 88,128 L 86,128 L 84,126 L 82,126 L 81,125 L 80,125 L 79,124 L 78,124 L 77,123 L 76,123 L 75,122 Z" fill="none" stroke="black" stroke-width="1" /><path d="M 0,122 L 0,169 L 1,169 L 2,170 L 2,173 L 3,174 L 3,176 L 4,177 L 4,178 L 5,179 L 5,180 L 6,181 L 6,183 L 8,185 L 8,187 L 9,188 L 9,189 L 10,190 L 10,193 L 12,195 L 12,197 L 14,199 L 14,203 L 15,204 L 15,205 L 16,206 L 16,207 L 18,209 L 18,211 L 19,212 L 19,213 L 38,213 L 37,212 L 37,211 L 36,210 L 36,209 L 35,208 L 35,207 L 34,206 L 34,204 L 33,203 L 33,201 L 32,200 L 32,199 L 31,198 L 31,197 L 30,196 L 30,194 L 29,193 L 29,192 L 28,191 L 28,190 L 27,189 L 27,188 L 26,187 L 26,185 L 25,184 L 25,183 L 24,182 L 24,180 L 23,179 L 23,178 L 22,177 L 22,175 L 21,174 L 21,172 L 20,171 L 20,170 L 19,169 L 19,168 L 18,167 L 18,166 L 17,165 L 17,164 L 16,163 L 16,161 L 15,160 L 15,159 L 14,158 L 14,157 L 13,156 L 13,155 L 12,154 L 12,152 L 11,151 L 11,150 L 10,149 L 10,147 L 9,146 L 9,145 L 8,144 L 8,143 L 7,142 L 7,141 L 6,140 L 6,137 L 5,136 L 5,135 L 4,134 L 4,133 L 3,132 L 3,130 L 2,129 L 2,127 L 1,126 L 1,125 L 0,124 Z" fill="none" stroke="black" stroke-width="1" /><path d="M 60,108 L 59,109 L 59,110 L 60,111 L 63,111 L 63,109 L 62,108 Z" fill="none" stroke="black" stroke-width="1" /><path d="M 78,100 L 76,102 L 74,102 L 73,103 L 72,103 L 71,104 L 70,104 L 69,105 L 68,105 L 67,106 L 66,106 L 66,111 L 68,113 L 68,114 L 69,115 L 71,115 L 72,116 L 73,116 L 74,117 L 76,117 L 78,119 L 80,119 L 82,121 L 85,121 L 87,123 L 88,123 L 89,124 L 91,124 L 91,122 L 89,120 L 89,119 L 88,118 L 88,117 L 86,115 L 86,112 L 85,111 L 85,110 L 84,109 L 84,107 L 83,106 L 83,105 L 82,104 L 82,101 L 81,100 Z" fill="none" stroke="black" stroke-width="1" /><path d="M 98,91 L 97,92 L 96,92 L 95,93 L 94,93 L 93,94 L 91,94 L 89,96 L 88,96 L 87,97 L 86,97 L 85,98 L 84,98 L 84,100 L 87,103 L 87,105 L 88,106 L 88,107 L 89,108 L 89,110 L 90,111 L 90,112 L 91,113 L 91,116 L 93,118 L 93,120 L 94,121 L 94,124 L 96,126 L 96,127 L 97,127 L 98,128 L 99,128 L 100,129 L 102,129 L 104,131 L 107,131 L 109,133 L 111,133 L 113,135 L 115,135 L 116,136 L 117,136 L 118,137 L 120,137 L 120,136 L 119,135 L 119,134 L 118,133 L 118,132 L 116,130 L 116,128 L 114,126 L 114,123 L 113,122 L 113,121 L 112,120 L 112,119 L 111,118 L 111,117 L 110,116 L 110,114 L 109,113 L 109,112 L 108,111 L 108,109 L 107,108 L 107,107 L 106,106 L 106,105 L 105,104 L 105,103 L 104,102 L 104,100 L 102,98 L 102,96 L 101,95 L 101,91 Z" fill="none" stroke="black" stroke-width="1" /><path d="M 117,82 L 115,84 L 114,84 L 113,85 L 112,85 L 111,86 L 109,86 L 107,88 L 105,88 L 104,89 L 104,92 L 105,93 L 105,94 L 107,96 L 107,99 L 109,101 L 109,103 L 110,104 L 110,105 L 111,106 L 111,108 L 112,109 L 112,110 L 113,111 L 113,112 L 114,113 L 114,114 L 115,115 L 115,117 L 116,118 L 116,119 L 117,120 L 117,122 L 119,124 L 119,127 L 121,129 L 121,131 L 123,133 L 123,137 L 124,138 L 124,139 L 125,140 L 126,140 L 127,141 L 129,141 L 131,143 L 133,143 L 134,144 L 135,144 L 136,145 L 137,145 L 138,146 L 139,146 L 140,147 L 142,147 L 144,149 L 146,149 L 147,150 L 147,147 L 146,146 L 146,145 L 144,143 L 144,141 L 143,140 L 143,139 L 142,138 L 142,137 L 141,136 L 141,135 L 140,134 L 140,131 L 138,129 L 138,128 L 137,127 L 137,126 L 136,125 L 136,122 L 134,120 L 134,117 L 133,116 L 133,115 L 132,114 L 132,113 L 131,112 L 131,111 L 130,110 L 130,109 L 129,108 L 129,107 L 128,106 L 128,104 L 127,103 L 127,102 L 126,101 L 126,99 L 124,97 L 124,94 L 122,92 L 122,91 L 121,90 L 121,89 L 120,88 L 120,85 L 119,84 L 119,82 Z" fill="none" stroke="black" stroke-width="1" /><path d="M 206,73 L 206,115 L 208,117 L 208,119 L 210,121 L 210,123 L 212,125 L 212,126 L 213,127 L 213,129 L 214,130 L 214,132 L 215,133 L 215,134 L 216,135 L 216,137 L 217,138 L 217,139 L 218,140 L 218,141 L 219,142 L 219,144 L 220,145 L 220,146 L 221,147 L 221,148 L 222,149 L 222,150 L 223,151 L 223,153 L 224,154 L 224,155 L 225,156 L 225,157 L 226,158 L 226,160 L 228,162 L 228,163 L 229,164 L 229,167 L 231,169 L 231,172 L 232,173 L 232,174 L 233,175 L 233,176 L 234,177 L 234,179 L 235,180 L 235,181 L 237,183 L 237,185 L 238,186 L 238,188 L 239,189 L 239,190 L 240,191 L 240,192 L 241,193 L 241,194 L 242,195 L 242,198 L 244,200 L 244,202 L 245,203 L 245,204 L 246,205 L 246,206 L 247,207 L 247,208 L 248,209 L 248,211 L 249,212 L 249,213 L 260,213 L 260,193 L 258,191 L 258,188 L 259,187 L 260,187 L 260,185 L 259,186 L 258,186 L 254,182 L 254,180 L 253,179 L 253,178 L 252,177 L 252,175 L 251,174 L 251,173 L 250,172 L 250,170 L 249,169 L 249,168 L 248,167 L 248,165 L 247,164 L 247,163 L 245,161 L 245,159 L 244,158 L 244,157 L 243,156 L 243,154 L 242,153 L 242,152 L 241,151 L 241,149 L 239,147 L 239,145 L 238,144 L 238,143 L 237,142 L 237,140 L 236,139 L 236,138 L 235,137 L 235,136 L 234,135 L 234,133 L 233,132 L 233,131 L 232,130 L 232,129 L 231,128 L 231,126 L 230,125 L 230,123 L 229,122 L 229,121 L 228,120 L 228,119 L 227,118 L 227,116 L 225,114 L 225,111 L 223,109 L 223,108 L 222,107 L 222,105 L 221,104 L 221,103 L 220,102 L 220,100 L 219,99 L 219,98 L 218,97 L 218,96 L 217,95 L 217,93 L 215,91 L 215,88 L 214,87 L 214,86 L 213,85 L 213,84 L 211,82 L 211,81 L 210,80 L 210,79 L 209,78 L 209,75 L 207,73 Z" fill="none" stroke="black" stroke-width="1" /><path d="M 138,73 L 137,74 L 135,74 L 133,76 L 131,76 L 129,78 L 126,78 L 124,80 L 122,80 L 122,82 L 123,83 L 123,84 L 124,85 L 124,86 L 125,87 L 125,89 L 127,91 L 127,93 L 128,94 L 128,95 L 129,96 L 129,97 L 130,98 L 130,99 L 131,100 L 131,102 L 132,103 L 132,105 L 134,107 L 134,108 L 135,109 L 135,112 L 136,113 L 136,114 L 138,116 L 138,117 L 139,118 L 139,121 L 141,123 L 141,125 L 142,126 L 142,128 L 143,129 L 143,130 L 144,131 L 144,132 L 145,133 L 145,135 L 146,136 L 146,137 L 147,138 L 147,140 L 149,142 L 149,143 L 150,144 L 150,146 L 151,147 L 150,148 L 151,149 L 151,150 L 152,151 L 152,152 L 153,153 L 155,153 L 157,155 L 158,155 L 159,156 L 161,156 L 162,157 L 164,157 L 166,159 L 169,159 L 171,161 L 173,161 L 175,163 L 176,163 L 176,161 L 175,160 L 175,159 L 174,158 L 174,157 L 173,156 L 173,154 L 171,152 L 171,149 L 170,148 L 170,147 L 169,146 L 169,145 L 168,144 L 168,143 L 167,142 L 167,139 L 166,138 L 166,137 L 165,136 L 165,135 L 164,134 L 164,133 L 163,132 L 163,131 L 162,130 L 162,129 L 161,128 L 161,126 L 160,125 L 160,123 L 159,122 L 159,120 L 157,118 L 157,117 L 156,116 L 156,115 L 155,114 L 155,113 L 154,112 L 154,108 L 152,106 L 152,105 L 151,104 L 151,103 L 150,102 L 150,100 L 149,99 L 149,98 L 148,97 L 148,96 L 147,95 L 147,94 L 146,93 L 146,89 L 144,87 L 144,86 L 143,85 L 143,83 L 142,82 L 142,81 L 140,79 L 140,74 L 139,73 Z" fill="none" stroke="black" stroke-width="1" /><path d="M 0,68 L 0,114 L 1,115 L 1,116 L 2,117 L 2,118 L 3,119 L 3,121 L 4,122 L 4,123 L 5,124 L 5,125 L 6,126 L 6,128 L 8,130 L 8,133 L 9,134 L 9,135 L 10,136 L 10,138 L 11,139 L 11,140 L 12,141 L 12,142 L 13,143 L 13,146 L 14,147 L 14,148 L 15,149 L 15,150 L 16,151 L 16,152 L 17,153 L 17,154 L 18,155 L 18,156 L 19,157 L 19,159 L 20,160 L 20,161 L 21,162 L 21,164 L 22,165 L 22,166 L 23,167 L 23,168 L 24,169 L 24,170 L 25,171 L 25,172 L 26,173 L 26,175 L 27,176 L 27,178 L 28,179 L 28,180 L 29,181 L 29,183 L 30,184 L 30,185 L 31,186 L 31,187 L 32,188 L 32,189 L 33,190 L 33,193 L 34,194 L 34,195 L 36,197 L 36,198 L 37,199 L 37,202 L 38,203 L 38,204 L 39,205 L 39,206 L 40,207 L 40,208 L 41,209 L 41,212 L 42,213 L 60,213 L 60,212 L 59,211 L 59,210 L 58,209 L 58,208 L 57,207 L 57,205 L 56,204 L 56,202 L 54,200 L 54,198 L 53,197 L 53,196 L 52,195 L 52,194 L 51,193 L 51,191 L 50,190 L 50,189 L 49,188 L 49,187 L 48,186 L 48,184 L 47,183 L 47,182 L 46,181 L 46,179 L 45,178 L 45,177 L 44,176 L 44,174 L 43,173 L 43,171 L 41,169 L 41,167 L 40,166 L 40,165 L 39,164 L 39,163 L 38,162 L 38,160 L 37,159 L 37,157 L 35,155 L 35,154 L 34,153 L 34,150 L 33,149 L 33,148 L 32,147 L 32,145 L 31,144 L 31,143 L 29,141 L 29,138 L 28,137 L 28,136 L 27,135 L 27,134 L 26,133 L 26,132 L 25,131 L 25,130 L 24,129 L 24,127 L 23,126 L 23,125 L 22,124 L 22,121 L 21,120 L 21,119 L 20,118 L 20,117 L 19,116 L 19,114 L 17,112 L 17,111 L 16,110 L 16,107 L 15,106 L 15,105 L 14,104 L 14,102 L 13,101 L 13,99 L 12,98 L 12,97 L 11,96 L 11,95 L 10,94 L 10,93 L 9,92 L 9,89 L 7,87 L 7,84 L 5,82 L 5,80 L 4,79 L 4,78 L 3,77 L 3,76 L 2,75 L 2,73 L 1,72 L 1,71 L 0,70 Z" fill="none" stroke="black" stroke-width="1" /><path d="M 156,65 L 155,66 L 153,66 L 151,68 L 149,68 L 148,69 L 147,69 L 146,70 L 144,70 L 142,72 L 142,73 L 144,75 L 144,76 L 145,77 L 145,79 L 146,80 L 146,81 L 147,82 L 147,83 L 148,84 L 148,86 L 149,87 L 149,88 L 150,89 L 150,90 L 151,91 L 151,93 L 152,94 L 152,95 L 153,96 L 153,98 L 154,99 L 154,100 L 155,101 L 155,102 L 156,103 L 156,104 L 157,105 L 157,107 L 158,108 L 158,109 L 159,110 L 159,112 L 160,113 L 160,114 L 161,115 L 161,117 L 162,118 L 162,119 L 163,120 L 163,122 L 164,123 L 164,124 L 165,125 L 165,126 L 166,127 L 166,129 L 168,131 L 168,132 L 169,133 L 169,135 L 171,137 L 171,140 L 172,141 L 172,143 L 173,144 L 173,145 L 174,146 L 174,147 L 175,148 L 175,150 L 176,151 L 176,152 L 177,153 L 177,154 L 178,155 L 178,157 L 179,158 L 179,159 L 180,160 L 180,163 L 184,167 L 187,167 L 189,169 L 191,169 L 192,170 L 193,170 L 194,171 L 196,171 L 198,173 L 199,173 L 200,172 L 199,171 L 199,159 L 198,158 L 198,157 L 197,156 L 197,155 L 195,153 L 195,152 L 194,151 L 194,149 L 192,147 L 192,145 L 191,144 L 191,143 L 190,142 L 190,139 L 189,138 L 189,137 L 188,136 L 188,135 L 187,134 L 187,133 L 186,132 L 186,129 L 184,127 L 184,125 L 183,124 L 183,123 L 181,121 L 181,119 L 180,118 L 180,117 L 179,116 L 179,114 L 178,113 L 178,111 L 177,110 L 177,109 L 176,108 L 176,107 L 175,106 L 175,104 L 174,103 L 174,102 L 173,101 L 173,100 L 172,99 L 172,98 L 171,97 L 171,95 L 170,94 L 170,92 L 168,90 L 168,88 L 167,87 L 167,85 L 166,84 L 166,83 L 165,82 L 165,81 L 164,80 L 164,78 L 163,77 L 163,76 L 162,75 L 162,74 L 161,73 L 161,72 L 160,71 L 160,69 L 159,68 L 159,65 Z" fill="none" stroke="black" stroke-width="1" /><path d="M 176,56 L 175,57 L 174,57 L 173,58 L 171,58 L 169,60 L 166,60 L 164,62 L 162,62 L 162,63 L 161,64 L 161,65 L 162,65 L 164,67 L 164,69 L 165,70 L 165,71 L 166,72 L 166,73 L 167,74 L 167,77 L 168,78 L 168,79 L 170,81 L 170,82 L 171,83 L 171,85 L 172,86 L 172,88 L 173,89 L 173,91 L 174,92 L 174,93 L 175,94 L 175,95 L 176,96 L 176,97 L 177,98 L 177,99 L 178,100 L 178,102 L 179,103 L 179,104 L 180,105 L 180,107 L 181,108 L 181,109 L 182,110 L 182,111 L 183,112 L 183,114 L 184,115 L 184,118 L 187,121 L 187,124 L 188,125 L 188,126 L 190,128 L 190,129 L 191,130 L 191,132 L 192,133 L 192,135 L 193,136 L 193,138 L 194,139 L 194,141 L 195,142 L 195,143 L 196,144 L 196,145 L 197,146 L 197,149 L 198,150 L 198,151 L 200,151 L 200,143 L 201,142 L 201,108 L 199,106 L 199,103 L 197,101 L 197,99 L 195,97 L 195,96 L 194,95 L 194,93 L 193,92 L 193,91 L 192,90 L 192,89 L 191,88 L 191,87 L 190,86 L 190,85 L 189,84 L 189,83 L 188,82 L 188,79 L 187,78 L 187,77 L 186,76 L 186,75 L 185,74 L 185,73 L 184,72 L 184,70 L 183,69 L 183,68 L 182,67 L 182,66 L 181,65 L 181,64 L 180,63 L 180,61 L 179,60 L 179,59 L 178,58 L 178,56 Z" fill="none" stroke="black" stroke-width="1" /><path d="M 194,48 L 193,49 L 192,49 L 191,50 L 190,50 L 189,51 L 188,51 L 187,52 L 185,52 L 184,53 L 183,53 L 182,54 L 181,54 L 181,55 L 182,56 L 182,57 L 183,58 L 183,60 L 185,62 L 185,64 L 186,65 L 186,66 L 187,67 L 187,68 L 188,69 L 188,70 L 189,71 L 189,73 L 190,74 L 190,75 L 191,76 L 191,78 L 192,79 L 192,80 L 193,81 L 193,82 L 194,83 L 194,85 L 195,86 L 195,88 L 196,89 L 196,90 L 197,91 L 197,92 L 198,93 L 198,94 L 199,95 L 199,97 L 200,98 L 200,99 L 201,100 L 201,93 L 202,92 L 202,70 L 203,69 L 203,61 L 202,60 L 202,58 L 201,57 L 201,56 L 200,55 L 200,54 L 199,53 L 199,51 L 198,50 L 198,49 L 197,48 Z" fill="none" stroke="black" stroke-width="1" /><path d="M 0,14 L 0,59 L 2,61 L 2,63 L 3,64 L 3,65 L 4,66 L 4,68 L 5,69 L 5,70 L 6,71 L 6,74 L 8,76 L 8,77 L 9,78 L 9,80 L 10,81 L 10,83 L 12,85 L 12,88 L 14,90 L 14,93 L 16,95 L 16,98 L 18,100 L 18,102 L 19,103 L 19,105 L 20,106 L 20,107 L 21,108 L 21,110 L 22,111 L 22,113 L 24,115 L 24,116 L 25,117 L 25,119 L 26,120 L 26,121 L 27,122 L 27,124 L 28,125 L 28,126 L 29,127 L 29,129 L 30,130 L 30,131 L 31,132 L 31,133 L 32,134 L 32,137 L 34,139 L 34,141 L 35,142 L 35,144 L 36,145 L 36,146 L 37,147 L 37,148 L 38,149 L 38,150 L 39,151 L 39,153 L 40,154 L 40,155 L 41,156 L 41,158 L 42,159 L 42,160 L 43,161 L 43,162 L 44,163 L 44,165 L 45,166 L 45,167 L 46,168 L 46,169 L 47,170 L 47,172 L 48,173 L 48,174 L 49,175 L 49,177 L 50,178 L 50,180 L 52,182 L 52,183 L 53,184 L 53,187 L 54,188 L 54,189 L 55,190 L 55,191 L 56,192 L 56,193 L 57,194 L 57,196 L 58,197 L 58,198 L 59,199 L 59,201 L 61,203 L 61,206 L 62,207 L 62,208 L 63,209 L 63,210 L 64,211 L 64,212 L 65,213 L 82,213 L 81,212 L 81,211 L 80,210 L 80,207 L 79,206 L 79,205 L 78,204 L 78,203 L 77,202 L 77,200 L 76,199 L 76,197 L 75,196 L 75,195 L 74,194 L 74,193 L 73,192 L 73,191 L 72,190 L 72,188 L 71,187 L 71,186 L 70,185 L 70,184 L 69,183 L 69,182 L 68,181 L 68,179 L 67,178 L 67,177 L 66,176 L 66,174 L 65,173 L 65,172 L 64,171 L 64,169 L 63,168 L 63,167 L 62,166 L 62,164 L 61,163 L 61,162 L 60,161 L 60,160 L 59,159 L 59,157 L 58,156 L 58,155 L 57,154 L 57,153 L 56,152 L 56,151 L 55,150 L 55,149 L 54,148 L 54,145 L 53,144 L 53,143 L 52,142 L 52,140 L 51,139 L 51,138 L 49,136 L 49,133 L 48,132 L 48,131 L 47,130 L 47,128 L 46,127 L 46,126 L 45,125 L 45,124 L 44,123 L 44,121 L 43,120 L 43,119 L 42,118 L 42,117 L 40,115 L 40,111 L 38,109 L 38,108 L 37,107 L 37,106 L 36,105 L 36,102 L 35,101 L 35,100 L 34,99 L 34,97 L 33,96 L 33,95 L 32,94 L 32,92 L 31,91 L 31,90 L 30,89 L 30,88 L 29,87 L 29,86 L 28,85 L 28,82 L 26,80 L 26,78 L 25,77 L 25,76 L 24,75 L 24,72 L 23,71 L 23,70 L 22,69 L 22,67 L 21,66 L 21,65 L 20,64 L 20,63 L 19,62 L 19,61 L 18,60 L 18,57 L 16,55 L 16,53 L 15,52 L 15,51 L 14,50 L 14,48 L 13,47 L 13,46 L 12,45 L 12,43 L 11,42 L 11,41 L 10,40 L 10,39 L 9,38 L 9,37 L 8,36 L 8,34 L 7,33 L 7,31 L 6,30 L 6,29 L 5,28 L 5,26 L 4,25 L 4,24 L 3,23 L 3,22 L 2,21 L 2,19 L 1,18 L 1,16 L 0,15 Z" fill="none" stroke="black" stroke-width="1" /><path d="M 250,0 L 252,2 L 252,4 L 253,5 L 253,6 L 254,7 L 254,10 L 256,12 L 256,15 L 259,18 L 259,20 L 260,21 L 260,23 L 260,0 Z" fill="none" stroke="black" stroke-width="1" /><path d="M 228,0 L 228,3 L 229,4 L 229,5 L 230,6 L 230,7 L 231,8 L 231,9 L 232,10 L 232,11 L 233,12 L 233,15 L 234,16 L 234,17 L 236,19 L 236,20 L 237,21 L 237,22 L 238,23 L 238,24 L 239,25 L 239,28 L 240,29 L 240,30 L 241,31 L 241,32 L 242,33 L 242,35 L 243,36 L 243,37 L 244,38 L 244,39 L 246,41 L 246,42 L 247,43 L 247,46 L 248,47 L 248,48 L 249,49 L 249,50 L 250,51 L 250,52 L 251,53 L 251,54 L 252,55 L 252,58 L 254,60 L 254,61 L 255,62 L 255,65 L 257,67 L 257,70 L 258,71 L 258,72 L 260,74 L 260,75 L 260,31 L 259,30 L 259,29 L 258,28 L 258,27 L 257,26 L 257,25 L 256,24 L 256,23 L 255,22 L 255,21 L 254,20 L 254,19 L 253,18 L 253,16 L 252,15 L 252,14 L 250,12 L 250,11 L 249,10 L 249,7 L 248,6 L 248,5 L 247,4 L 247,2 L 246,1 L 246,0 Z" fill="none" stroke="black" stroke-width="1" /><path d="M 205,0 L 205,1 L 206,2 L 206,3 L 207,4 L 207,6 L 208,7 L 208,8 L 209,9 L 209,12 L 211,14 L 211,16 L 212,17 L 212,19 L 213,20 L 213,21 L 214,22 L 214,23 L 215,24 L 215,25 L 216,26 L 216,27 L 217,28 L 217,30 L 218,31 L 218,32 L 219,33 L 219,34 L 220,35 L 220,36 L 221,37 L 221,38 L 222,39 L 222,40 L 223,41 L 223,44 L 224,45 L 224,47 L 226,49 L 226,52 L 228,54 L 228,56 L 229,57 L 229,58 L 230,59 L 230,61 L 231,62 L 231,63 L 232,64 L 232,65 L 233,66 L 233,68 L 234,69 L 234,70 L 235,71 L 235,72 L 236,73 L 236,74 L 237,75 L 237,76 L 238,77 L 238,79 L 240,81 L 240,84 L 242,86 L 242,87 L 243,88 L 243,90 L 244,91 L 244,93 L 246,95 L 246,97 L 247,98 L 247,99 L 248,100 L 248,102 L 250,104 L 250,107 L 252,109 L 252,112 L 254,114 L 254,116 L 255,117 L 255,118 L 256,119 L 256,120 L 257,121 L 257,122 L 258,123 L 258,126 L 259,127 L 259,128 L 260,129 L 260,131 L 260,84 L 258,82 L 258,81 L 257,80 L 257,79 L 256,78 L 256,75 L 255,74 L 255,73 L 254,72 L 254,71 L 253,70 L 253,69 L 252,68 L 252,67 L 250,65 L 250,59 L 249,59 L 247,57 L 247,55 L 246,54 L 246,52 L 245,51 L 245,50 L 244,49 L 244,47 L 243,46 L 243,45 L 242,44 L 242,43 L 241,42 L 241,41 L 240,40 L 240,39 L 239,38 L 239,36 L 237,34 L 237,33 L 236,32 L 236,29 L 235,28 L 235,27 L 234,26 L 234,25 L 233,24 L 233,23 L 232,22 L 232,21 L 231,20 L 231,19 L 230,18 L 230,17 L 229,16 L 229,14 L 228,13 L 228,12 L 227,11 L 227,9 L 225,7 L 225,5 L 224,4 L 224,3 L 223,2 L 223,0 Z" fill="none" stroke="black" stroke-width="1" /><path d="M 180,0 L 182,2 L 182,5 L 183,6 L 183,7 L 185,9 L 185,10 L 186,11 L 186,14 L 188,16 L 188,17 L 189,18 L 189,20 L 190,21 L 190,24 L 193,27 L 193,28 L 194,29 L 194,31 L 195,32 L 195,34 L 196,35 L 196,36 L 197,37 L 197,38 L 198,39 L 198,40 L 199,41 L 200,41 L 202,39 L 203,39 L 204,38 L 207,38 L 208,39 L 208,48 L 207,49 L 207,63 L 208,64 L 208,65 L 209,66 L 209,68 L 210,69 L 210,70 L 213,73 L 213,75 L 214,76 L 214,78 L 216,80 L 216,82 L 217,83 L 217,84 L 218,85 L 218,86 L 219,87 L 219,88 L 220,89 L 220,91 L 221,92 L 221,93 L 222,94 L 222,95 L 223,96 L 223,98 L 224,99 L 224,100 L 225,101 L 225,103 L 226,104 L 226,105 L 227,106 L 227,107 L 228,108 L 228,110 L 229,111 L 229,112 L 230,113 L 230,114 L 231,115 L 231,116 L 232,117 L 232,118 L 233,119 L 233,121 L 234,122 L 234,123 L 235,124 L 235,126 L 236,127 L 236,129 L 238,131 L 238,132 L 239,133 L 239,136 L 240,137 L 240,138 L 242,140 L 242,143 L 244,145 L 244,148 L 245,149 L 245,150 L 246,151 L 246,152 L 247,153 L 247,154 L 248,155 L 248,157 L 250,159 L 250,161 L 251,162 L 251,163 L 252,164 L 252,165 L 253,166 L 253,168 L 254,169 L 254,170 L 255,171 L 255,173 L 256,174 L 256,175 L 257,176 L 257,177 L 258,178 L 258,180 L 260,182 L 260,183 L 260,139 L 259,138 L 259,137 L 257,135 L 257,134 L 256,133 L 256,131 L 255,130 L 255,127 L 254,126 L 254,125 L 253,124 L 253,123 L 252,122 L 252,121 L 251,120 L 251,118 L 249,116 L 249,113 L 248,112 L 248,111 L 247,110 L 247,109 L 246,108 L 246,106 L 245,105 L 245,103 L 243,101 L 243,99 L 241,97 L 241,94 L 239,92 L 239,89 L 237,87 L 237,85 L 235,83 L 235,81 L 234,80 L 234,79 L 233,78 L 233,77 L 232,76 L 232,74 L 231,73 L 231,72 L 230,71 L 230,69 L 229,68 L 229,67 L 228,66 L 228,65 L 227,64 L 227,63 L 226,62 L 226,61 L 225,60 L 225,59 L 224,58 L 224,56 L 223,55 L 223,53 L 221,51 L 221,49 L 220,48 L 220,47 L 219,46 L 219,42 L 217,40 L 217,39 L 216,38 L 216,36 L 215,35 L 215,34 L 214,33 L 214,31 L 213,30 L 213,29 L 212,28 L 212,27 L 211,26 L 211,25 L 209,23 L 209,22 L 208,21 L 208,18 L 207,17 L 207,16 L 206,15 L 206,13 L 204,11 L 204,8 L 203,7 L 203,6 L 202,5 L 202,4 L 201,3 L 201,2 L 200,1 L 200,0 Z" fill="none" stroke="black" stroke-width="1" /><path d="M 158,0 L 158,1 L 159,2 L 159,3 L 161,5 L 161,8 L 162,9 L 162,10 L 163,11 L 163,13 L 164,14 L 164,15 L 165,16 L 165,18 L 166,19 L 166,20 L 167,21 L 167,22 L 168,23 L 168,24 L 169,25 L 169,27 L 171,29 L 171,32 L 172,33 L 172,34 L 173,35 L 173,36 L 175,38 L 175,41 L 177,43 L 177,44 L 178,45 L 178,48 L 179,49 L 181,49 L 182,48 L 183,48 L 184,47 L 186,47 L 188,45 L 191,45 L 192,44 L 193,44 L 194,43 L 195,43 L 195,42 L 193,40 L 193,38 L 191,36 L 191,34 L 190,33 L 190,32 L 189,31 L 189,29 L 188,28 L 188,27 L 186,25 L 186,23 L 185,22 L 185,20 L 184,19 L 184,18 L 183,17 L 183,15 L 181,13 L 181,11 L 180,10 L 180,9 L 179,8 L 179,7 L 178,6 L 178,5 L 177,4 L 177,1 L 176,0 Z" fill="none" stroke="black" stroke-width="1" /><path d="M 135,0 L 135,2 L 136,3 L 136,4 L 137,5 L 137,7 L 138,8 L 138,9 L 139,10 L 139,11 L 140,12 L 140,13 L 141,14 L 141,15 L 143,17 L 143,20 L 144,21 L 144,22 L 145,23 L 145,25 L 146,26 L 146,27 L 147,28 L 147,30 L 148,31 L 148,32 L 149,33 L 149,35 L 151,37 L 151,38 L 152,39 L 152,40 L 153,41 L 153,44 L 155,46 L 155,49 L 156,50 L 156,51 L 158,53 L 158,57 L 159,58 L 161,58 L 162,57 L 163,57 L 164,56 L 165,56 L 166,55 L 167,55 L 168,54 L 169,54 L 170,53 L 173,53 L 174,52 L 175,52 L 175,49 L 174,48 L 174,47 L 173,46 L 173,45 L 172,44 L 172,42 L 171,41 L 171,40 L 170,39 L 170,37 L 168,35 L 168,34 L 167,33 L 167,31 L 166,30 L 166,29 L 165,28 L 165,27 L 164,26 L 164,24 L 163,23 L 163,22 L 162,21 L 162,20 L 161,19 L 161,18 L 160,17 L 160,15 L 159,14 L 159,13 L 158,12 L 158,11 L 157,10 L 157,8 L 156,7 L 156,5 L 155,4 L 155,3 L 154,2 L 154,1 L 153,0 Z" fill="none" stroke="black" stroke-width="1" /><path d="M 112,0 L 113,1 L 113,4 L 114,5 L 114,6 L 115,7 L 115,8 L 117,10 L 117,13 L 118,14 L 118,15 L 119,16 L 119,17 L 120,18 L 120,19 L 121,20 L 121,23 L 122,24 L 122,25 L 123,26 L 123,27 L 124,28 L 124,29 L 125,30 L 125,31 L 126,32 L 126,33 L 127,34 L 127,37 L 129,39 L 129,41 L 130,42 L 130,43 L 131,44 L 131,46 L 133,48 L 133,51 L 134,52 L 134,53 L 135,54 L 135,55 L 136,56 L 136,57 L 137,58 L 137,60 L 138,61 L 138,62 L 139,63 L 139,65 L 140,66 L 143,66 L 144,65 L 145,65 L 146,64 L 147,64 L 148,63 L 150,63 L 152,61 L 155,61 L 155,57 L 154,56 L 154,55 L 153,54 L 153,53 L 152,52 L 152,50 L 150,48 L 150,45 L 149,44 L 149,43 L 147,41 L 147,39 L 146,38 L 146,36 L 145,35 L 145,34 L 144,33 L 144,31 L 143,30 L 143,29 L 142,28 L 142,27 L 141,26 L 141,25 L 140,24 L 140,22 L 139,21 L 139,20 L 138,19 L 138,18 L 137,17 L 137,16 L 136,15 L 136,13 L 135,12 L 135,11 L 134,10 L 134,9 L 133,8 L 133,7 L 132,6 L 132,4 L 131,3 L 131,2 L 130,1 L 130,0 Z" fill="none" stroke="black" stroke-width="1" /><path d="M 89,0 L 90,1 L 90,5 L 92,7 L 92,10 L 93,11 L 93,12 L 94,13 L 94,14 L 95,15 L 95,18 L 96,19 L 96,20 L 98,22 L 98,23 L 99,24 L 99,25 L 100,26 L 100,27 L 101,28 L 101,30 L 102,31 L 102,32 L 103,33 L 103,35 L 104,36 L 104,37 L 105,38 L 105,40 L 106,41 L 106,42 L 107,43 L 107,44 L 108,45 L 108,46 L 109,47 L 109,50 L 110,51 L 110,52 L 111,53 L 111,55 L 112,56 L 112,57 L 113,58 L 113,60 L 114,61 L 114,62 L 115,63 L 115,64 L 116,65 L 116,66 L 117,67 L 117,70 L 118,71 L 118,72 L 120,74 L 120,75 L 123,75 L 124,74 L 125,74 L 126,73 L 127,73 L 128,72 L 129,72 L 130,71 L 132,71 L 134,69 L 136,69 L 137,68 L 137,67 L 134,64 L 134,62 L 133,61 L 133,60 L 132,59 L 132,58 L 131,57 L 131,56 L 130,55 L 130,53 L 129,52 L 129,51 L 128,50 L 128,48 L 127,47 L 127,46 L 126,45 L 126,43 L 125,42 L 125,41 L 124,40 L 124,38 L 123,37 L 123,36 L 122,35 L 122,33 L 120,31 L 120,28 L 118,26 L 118,24 L 117,23 L 117,22 L 116,21 L 116,19 L 114,17 L 114,14 L 112,12 L 112,9 L 110,7 L 110,6 L 109,5 L 109,3 L 108,2 L 108,0 Z" fill="none" stroke="black" stroke-width="1" /><path d="M 66,0 L 67,1 L 67,2 L 68,3 L 68,6 L 69,7 L 69,8 L 70,9 L 70,10 L 72,12 L 72,14 L 73,15 L 73,16 L 74,17 L 74,20 L 75,21 L 75,22 L 76,23 L 76,24 L 77,25 L 77,26 L 78,27 L 78,30 L 79,31 L 79,32 L 80,33 L 80,35 L 82,37 L 82,38 L 83,39 L 83,40 L 84,41 L 84,44 L 86,46 L 86,48 L 87,49 L 87,50 L 88,51 L 88,53 L 89,54 L 89,56 L 90,57 L 90,58 L 91,59 L 91,60 L 92,61 L 92,62 L 93,63 L 93,64 L 94,65 L 94,66 L 95,67 L 95,70 L 96,71 L 96,72 L 99,75 L 99,79 L 100,80 L 100,82 L 101,83 L 105,83 L 107,81 L 110,81 L 112,79 L 115,79 L 117,77 L 117,76 L 115,74 L 115,73 L 114,72 L 114,71 L 113,70 L 113,68 L 112,67 L 112,66 L 111,65 L 111,64 L 110,63 L 110,61 L 109,60 L 109,59 L 108,58 L 108,57 L 107,56 L 107,55 L 106,54 L 106,52 L 105,51 L 105,50 L 104,49 L 104,47 L 103,46 L 103,45 L 102,44 L 102,43 L 101,42 L 101,40 L 100,39 L 100,37 L 99,36 L 99,35 L 98,34 L 98,33 L 97,32 L 97,30 L 96,29 L 96,28 L 95,27 L 95,26 L 94,25 L 94,24 L 93,23 L 93,22 L 92,21 L 92,19 L 91,18 L 91,17 L 90,16 L 90,15 L 89,14 L 89,11 L 87,9 L 87,7 L 86,6 L 86,5 L 85,4 L 85,1 L 84,0 Z" fill="none" stroke="black" stroke-width="1" /><path d="M 43,0 L 44,1 L 44,2 L 45,3 L 45,4 L 46,5 L 46,7 L 47,8 L 47,10 L 48,11 L 48,12 L 49,13 L 49,14 L 50,15 L 50,16 L 51,17 L 51,20 L 52,21 L 52,22 L 53,23 L 53,25 L 55,27 L 55,29 L 56,30 L 56,31 L 57,32 L 57,34 L 58,35 L 58,36 L 59,37 L 59,39 L 60,40 L 60,41 L 61,42 L 61,44 L 62,45 L 62,46 L 63,47 L 63,48 L 64,49 L 64,50 L 65,51 L 65,53 L 66,54 L 66,55 L 67,56 L 67,58 L 69,60 L 69,62 L 70,63 L 70,64 L 71,65 L 71,67 L 72,68 L 72,69 L 73,70 L 73,71 L 74,72 L 74,73 L 75,74 L 75,77 L 77,79 L 77,80 L 78,81 L 78,82 L 79,83 L 79,86 L 80,87 L 80,88 L 81,89 L 81,90 L 82,91 L 82,93 L 84,93 L 86,91 L 87,91 L 88,90 L 89,90 L 90,89 L 92,89 L 94,87 L 97,87 L 98,86 L 98,85 L 97,84 L 97,83 L 96,82 L 96,81 L 95,80 L 95,79 L 94,78 L 94,76 L 93,75 L 93,74 L 92,73 L 92,71 L 91,70 L 91,69 L 90,68 L 90,67 L 89,66 L 89,64 L 88,63 L 88,62 L 86,60 L 86,58 L 85,57 L 85,55 L 84,54 L 84,53 L 83,52 L 83,51 L 82,50 L 82,49 L 81,48 L 81,46 L 80,45 L 80,44 L 79,43 L 79,41 L 78,40 L 78,39 L 77,38 L 77,36 L 75,34 L 75,31 L 73,29 L 73,27 L 72,26 L 72,25 L 71,24 L 71,22 L 70,21 L 70,20 L 69,19 L 69,17 L 68,16 L 68,15 L 67,14 L 67,13 L 66,12 L 66,11 L 65,10 L 65,8 L 64,7 L 64,6 L 63,5 L 63,3 L 62,2 L 62,1 L 61,0 Z" fill="none" stroke="black" stroke-width="1" /><path d="M 22,0 L 22,4 L 24,6 L 24,8 L 25,9 L 25,10 L 26,11 L 26,12 L 27,13 L 27,14 L 28,15 L 28,17 L 29,18 L 29,20 L 30,21 L 30,23 L 31,24 L 31,25 L 33,27 L 33,29 L 34,30 L 34,32 L 36,34 L 36,37 L 38,39 L 38,41 L 39,42 L 39,44 L 40,45 L 40,47 L 41,48 L 41,49 L 42,50 L 42,51 L 43,52 L 43,53 L 45,55 L 45,59 L 47,61 L 47,64 L 48,65 L 48,66 L 49,67 L 49,69 L 50,70 L 50,71 L 51,72 L 51,74 L 52,75 L 52,76 L 53,77 L 53,78 L 54,79 L 54,80 L 55,81 L 55,82 L 56,83 L 56,84 L 57,85 L 57,87 L 58,88 L 58,90 L 59,91 L 59,92 L 60,93 L 60,95 L 61,96 L 61,97 L 62,98 L 62,100 L 63,101 L 65,101 L 66,100 L 67,100 L 68,99 L 69,99 L 70,98 L 71,98 L 72,97 L 74,97 L 76,95 L 78,95 L 78,94 L 79,93 L 77,91 L 77,90 L 76,89 L 76,87 L 75,86 L 75,85 L 74,84 L 74,82 L 72,80 L 72,78 L 70,76 L 70,74 L 69,73 L 69,72 L 68,71 L 68,69 L 67,68 L 67,66 L 66,65 L 66,64 L 64,62 L 64,59 L 62,57 L 62,55 L 61,54 L 61,52 L 60,51 L 60,50 L 59,49 L 59,48 L 58,47 L 58,45 L 57,44 L 57,43 L 56,42 L 56,41 L 55,40 L 55,39 L 54,38 L 54,37 L 53,36 L 53,34 L 52,33 L 52,31 L 51,30 L 51,29 L 50,28 L 50,27 L 49,26 L 49,25 L 48,24 L 48,21 L 47,20 L 47,19 L 46,18 L 46,17 L 45,16 L 45,15 L 44,14 L 44,12 L 43,11 L 43,9 L 42,8 L 42,7 L 41,6 L 41,4 L 40,3 L 40,2 L 39,1 L 39,0 Z" fill="none" stroke="black" stroke-width="1" /><path d="M 0,0 L 0,5 L 2,7 L 2,10 L 3,11 L 3,12 L 4,13 L 4,14 L 5,15 L 5,16 L 6,17 L 6,20 L 8,22 L 8,24 L 10,26 L 10,30 L 11,31 L 11,32 L 12,33 L 12,34 L 13,35 L 13,37 L 14,38 L 14,39 L 15,40 L 15,42 L 16,43 L 16,44 L 17,45 L 17,46 L 18,47 L 18,48 L 19,49 L 19,51 L 20,52 L 20,53 L 21,54 L 21,56 L 22,57 L 22,58 L 23,59 L 23,61 L 24,62 L 24,63 L 25,64 L 25,66 L 26,67 L 26,68 L 27,69 L 27,71 L 28,72 L 28,73 L 29,74 L 29,76 L 30,77 L 30,78 L 31,79 L 31,80 L 32,81 L 32,82 L 33,83 L 33,86 L 34,87 L 34,88 L 35,89 L 35,90 L 36,91 L 36,92 L 37,93 L 37,96 L 38,97 L 38,98 L 39,99 L 39,101 L 40,102 L 40,103 L 41,104 L 41,105 L 42,106 L 42,108 L 43,109 L 43,110 L 45,112 L 45,115 L 46,116 L 46,117 L 48,119 L 48,121 L 49,122 L 49,124 L 50,125 L 50,126 L 51,127 L 51,128 L 52,129 L 52,131 L 53,132 L 53,133 L 54,134 L 54,136 L 55,137 L 55,138 L 56,139 L 56,140 L 57,141 L 57,143 L 58,144 L 58,146 L 59,147 L 59,149 L 60,150 L 60,151 L 62,153 L 62,154 L 63,155 L 63,157 L 64,158 L 64,159 L 65,160 L 65,162 L 66,163 L 66,164 L 67,165 L 67,167 L 69,169 L 69,171 L 70,172 L 70,173 L 71,174 L 71,178 L 73,180 L 73,182 L 74,183 L 74,184 L 75,185 L 75,187 L 76,188 L 76,189 L 77,190 L 77,191 L 78,192 L 78,194 L 79,195 L 79,196 L 80,197 L 80,198 L 81,199 L 81,200 L 82,201 L 82,203 L 83,204 L 83,206 L 84,207 L 84,208 L 85,209 L 85,211 L 86,212 L 86,213 L 105,213 L 105,212 L 104,211 L 104,210 L 103,209 L 103,208 L 102,207 L 102,205 L 101,204 L 101,203 L 100,202 L 100,201 L 99,200 L 99,199 L 98,198 L 98,195 L 97,194 L 97,193 L 96,192 L 96,191 L 95,190 L 95,189 L 94,188 L 94,186 L 93,185 L 93,184 L 92,183 L 92,181 L 91,180 L 91,179 L 90,178 L 90,176 L 88,174 L 88,171 L 87,170 L 87,169 L 86,168 L 86,167 L 85,166 L 85,165 L 84,164 L 84,162 L 83,161 L 83,160 L 82,159 L 82,157 L 81,156 L 81,155 L 80,154 L 80,153 L 79,152 L 79,149 L 77,147 L 77,145 L 76,144 L 76,143 L 75,142 L 75,141 L 74,140 L 74,138 L 73,137 L 73,135 L 72,134 L 72,133 L 71,132 L 71,131 L 70,130 L 70,129 L 69,128 L 69,125 L 68,124 L 68,123 L 67,122 L 67,120 L 65,118 L 64,118 L 63,117 L 63,116 L 60,116 L 59,115 L 59,114 L 56,114 L 54,112 L 51,112 L 50,111 L 49,111 L 48,110 L 48,108 L 49,107 L 52,107 L 54,105 L 56,105 L 57,104 L 58,104 L 59,103 L 59,101 L 57,99 L 57,96 L 55,94 L 55,93 L 54,92 L 54,90 L 53,89 L 53,87 L 52,86 L 52,85 L 51,84 L 51,83 L 50,82 L 50,80 L 49,79 L 49,78 L 48,77 L 48,75 L 47,74 L 47,73 L 46,72 L 46,70 L 45,69 L 45,68 L 44,67 L 44,65 L 43,64 L 43,63 L 42,62 L 42,61 L 41,60 L 41,59 L 40,58 L 40,55 L 38,53 L 38,52 L 37,51 L 37,50 L 36,49 L 36,46 L 34,44 L 35,43 L 33,41 L 33,37 L 31,35 L 31,33 L 29,31 L 29,29 L 27,27 L 27,25 L 26,24 L 26,23 L 25,22 L 25,19 L 24,18 L 24,17 L 23,16 L 23,14 L 21,12 L 21,11 L 20,10 L 20,8 L 19,7 L 19,4 L 17,2 L 17,0 Z" fill="none" stroke="black" stroke-width="1" /></svg>