<?xml version='1.0' encoding='utf-8'?>
<svg width="257" height="220" xmlns="http://www.w3.org/2000/svg" viewBox="0 0 257 220"><rect width="257" height="220" fill="white" /><path d="M 0,203 L 0,205 L 1,205 L 3,207 L 4,207 L 5,208 L 6,208 L 7,209 L 8,209 L 9,210 L 10,210 L 12,212 L 14,212 L 16,214 L 18,214 L 20,216 L 21,216 L 23,218 L 25,218 L 26,219 L 32,219 L 31,219 L 30,218 L 29,218 L 28,217 L 27,217 L 25,215 L 23,215 L 21,213 L 19,213 L 17,211 L 15,211 L 13,209 L 12,209 L 11,208 L 10,208 L 9,207 L 8,207 L 7,206 L 6,206 L 5,205 L 4,205 L 2,203 Z" fill="black" /><path d="M 0,180 L 0,182 L 1,183 L 2,183 L 4,185 L 6,185 L 8,187 L 10,187 L 12,189 L 13,189 L 14,190 L 16,190 L 17,191 L 18,191 L 19,192 L 20,192 L 21,193 L 22,193 L 23,194 L 25,194 L 27,196 L 28,196 L 30,198 L 32,198 L 34,200 L 36,200 L 38,202 L 40,202 L 42,204 L 43,204 L 44,205 L 45,205 L 46,206 L 47,206 L 49,208 L 52,208 L 54,210 L 56,210 L 58,212 L 59,212 L 61,214 L 64,214 L 66,216 L 67,216 L 68,217 L 69,217 L 70,218 L 71,218 L 72,219 L 78,219 L 77,219 L 76,218 L 75,218 L 73,216 L 72,216 L 71,215 L 69,215 L 67,213 L 65,213 L 64,212 L 63,212 L 61,210 L 60,210 L 59,209 L 58,209 L 57,208 L 55,208 L 54,207 L 53,207 L 52,206 L 51,206 L 50,205 L 49,205 L 47,203 L 45,203 L 43,201 L 41,201 L 39,199 L 38,199 L 36,197 L 33,197 L 31,195 L 30,195 L 28,193 L 26,193 L 24,191 L 22,191 L 21,190 L 20,190 L 19,189 L 18,189 L 17,188 L 16,188 L 15,187 L 14,187 L 13,186 L 12,186 L 11,185 L 10,185 L 9,184 L 8,184 L 7,183 L 6,183 L 5,182 L 4,182 L 3,181 L 2,181 L 1,180 Z" fill="black" /><path d="M 0,109 L 0,112 L 1,112 L 2,113 L 3,113 L 4,114 L 5,114 L 6,115 L 7,115 L 9,117 L 12,117 L 12,116 L 10,114 L 9,114 L 8,113 L 7,113 L 6,112 L 5,112 L 4,111 L 2,111 Z" fill="black" /><path d="M 160,5 L 160,7 L 162,7 L 165,10 L 166,10 L 167,11 L 168,11 L 169,12 L 170,12 L 172,14 L 174,14 L 175,15 L 176,15 L 178,17 L 179,17 L 180,18 L 181,18 L 182,19 L 183,19 L 184,20 L 185,20 L 186,21 L 187,21 L 188,22 L 189,22 L 191,24 L 193,24 L 194,25 L 195,25 L 196,26 L 197,26 L 199,28 L 201,28 L 203,30 L 204,30 L 205,31 L 206,31 L 207,32 L 208,32 L 209,33 L 210,33 L 211,34 L 212,34 L 213,35 L 214,35 L 215,36 L 216,36 L 217,37 L 218,37 L 219,38 L 220,38 L 221,39 L 222,39 L 223,40 L 224,40 L 225,41 L 226,41 L 227,42 L 228,42 L 230,44 L 232,44 L 234,46 L 236,46 L 237,47 L 238,47 L 239,48 L 240,48 L 242,50 L 244,50 L 247,53 L 249,53 L 250,54 L 251,54 L 253,56 L 256,56 L 256,54 L 255,53 L 253,53 L 251,51 L 249,51 L 247,49 L 245,49 L 243,47 L 242,47 L 240,45 L 237,45 L 235,43 L 234,43 L 233,42 L 232,42 L 231,41 L 230,41 L 229,40 L 228,40 L 227,39 L 226,39 L 225,38 L 224,38 L 223,37 L 222,37 L 221,36 L 220,36 L 219,35 L 218,35 L 216,33 L 215,33 L 214,32 L 212,32 L 211,31 L 210,31 L 208,29 L 207,29 L 206,28 L 205,28 L 204,27 L 203,27 L 202,26 L 201,26 L 200,25 L 199,25 L 197,23 L 194,23 L 192,21 L 191,21 L 190,20 L 189,20 L 188,19 L 187,19 L 186,18 L 185,18 L 184,17 L 183,17 L 181,15 L 180,15 L 179,14 L 177,14 L 175,12 L 174,12 L 173,11 L 172,11 L 170,9 L 168,9 L 166,7 L 164,7 L 162,5 Z" fill="black" /><path d="M 238,0 L 240,2 L 242,2 L 243,3 L 244,3 L 245,4 L 246,4 L 248,6 L 249,6 L 250,7 L 251,7 L 252,8 L 253,8 L 254,9 L 255,9 L 256,10 L 256,7 L 255,7 L 254,6 L 253,6 L 251,4 L 250,4 L 249,3 L 248,3 L 247,2 L 246,2 L 245,1 L 243,1 L 242,0 Z" fill="black" /><path d="M 192,0 L 193,0 L 194,1 L 195,1 L 196,2 L 197,2 L 199,4 L 201,4 L 203,6 L 205,6 L 207,8 L 209,8 L 211,10 L 212,10 L 213,11 L 214,11 L 215,12 L 216,12 L 217,13 L 218,13 L 219,14 L 220,14 L 221,15 L 222,15 L 223,16 L 224,16 L 226,18 L 227,18 L 228,19 L 229,19 L 230,20 L 231,20 L 232,21 L 233,21 L 234,22 L 235,22 L 236,23 L 237,23 L 238,24 L 239,24 L 240,25 L 241,25 L 242,26 L 243,26 L 244,27 L 245,27 L 246,28 L 247,28 L 248,29 L 249,29 L 251,31 L 252,31 L 253,32 L 254,32 L 255,33 L 256,33 L 256,30 L 255,30 L 254,29 L 252,29 L 251,28 L 250,28 L 248,26 L 247,26 L 246,25 L 244,25 L 243,24 L 242,24 L 240,22 L 239,22 L 238,21 L 237,21 L 236,20 L 235,20 L 234,19 L 233,19 L 232,18 L 231,18 L 229,16 L 228,16 L 227,15 L 225,15 L 223,13 L 222,13 L 221,12 L 220,12 L 219,11 L 218,11 L 216,9 L 214,9 L 212,7 L 210,7 L 208,5 L 207,5 L 206,4 L 205,4 L 204,3 L 203,3 L 202,2 L 201,2 L 200,1 L 199,1 L 198,0 Z" fill="black" /><path d="M 146,0 L 147,0 L 149,2 L 151,2 L 153,4 L 156,4 L 157,3 L 155,1 L 152,1 L 151,0 Z" fill="black" /><path d="M 101,0 L 102,0 L 103,1 L 104,1 L 105,2 L 106,2 L 108,4 L 109,4 L 110,5 L 111,5 L 112,6 L 113,6 L 114,7 L 115,7 L 116,8 L 117,8 L 118,9 L 119,9 L 120,10 L 121,10 L 122,11 L 123,11 L 124,12 L 125,12 L 126,13 L 127,13 L 128,14 L 129,14 L 130,15 L 131,15 L 132,16 L 133,16 L 135,18 L 137,18 L 138,19 L 139,19 L 141,21 L 142,21 L 143,22 L 145,22 L 146,23 L 147,23 L 149,25 L 150,25 L 151,26 L 152,26 L 153,27 L 154,27 L 155,28 L 156,28 L 157,29 L 158,29 L 159,30 L 160,30 L 161,31 L 162,31 L 164,33 L 165,33 L 166,34 L 168,34 L 169,35 L 170,35 L 172,37 L 173,37 L 174,38 L 175,38 L 176,39 L 177,39 L 178,40 L 179,40 L 180,41 L 181,41 L 182,42 L 183,42 L 184,43 L 185,43 L 187,45 L 188,45 L 190,47 L 191,47 L 192,48 L 195,48 L 196,49 L 197,49 L 198,50 L 199,50 L 200,51 L 201,51 L 203,53 L 204,53 L 205,54 L 206,54 L 207,55 L 208,55 L 209,56 L 210,56 L 211,57 L 212,57 L 213,58 L 214,58 L 215,59 L 216,59 L 217,60 L 218,60 L 219,61 L 220,61 L 222,63 L 224,63 L 226,65 L 228,65 L 230,67 L 232,67 L 234,69 L 235,69 L 237,71 L 240,71 L 242,73 L 243,73 L 244,74 L 246,74 L 247,75 L 248,75 L 250,77 L 252,77 L 254,79 L 255,79 L 256,80 L 256,77 L 255,76 L 254,76 L 253,75 L 252,75 L 251,74 L 250,74 L 249,73 L 248,73 L 247,72 L 246,72 L 245,71 L 244,71 L 243,70 L 242,70 L 241,69 L 240,69 L 239,68 L 238,68 L 237,67 L 236,67 L 235,66 L 234,66 L 233,65 L 232,65 L 231,64 L 230,64 L 229,63 L 228,63 L 227,62 L 226,62 L 225,61 L 224,61 L 223,60 L 222,60 L 221,59 L 220,59 L 219,58 L 218,58 L 217,57 L 216,57 L 215,56 L 214,56 L 213,55 L 212,55 L 211,54 L 210,54 L 209,53 L 208,53 L 207,52 L 206,52 L 205,51 L 204,51 L 203,50 L 202,50 L 200,48 L 199,48 L 198,47 L 196,47 L 195,46 L 194,46 L 192,44 L 190,44 L 187,41 L 185,41 L 184,40 L 183,40 L 182,39 L 181,39 L 180,38 L 179,38 L 178,37 L 177,37 L 176,36 L 175,36 L 174,35 L 173,35 L 172,34 L 171,34 L 169,32 L 168,32 L 167,31 L 166,31 L 165,30 L 164,30 L 163,29 L 162,29 L 161,28 L 160,28 L 159,27 L 158,27 L 157,26 L 156,26 L 155,25 L 154,25 L 153,24 L 152,24 L 151,23 L 150,23 L 149,22 L 148,22 L 146,20 L 145,20 L 144,19 L 142,19 L 141,18 L 140,18 L 138,16 L 137,16 L 136,15 L 134,15 L 133,14 L 132,14 L 130,12 L 129,12 L 128,11 L 127,11 L 126,10 L 125,10 L 123,8 L 122,8 L 121,7 L 119,7 L 117,5 L 116,5 L 115,4 L 114,4 L 113,3 L 112,3 L 111,2 L 110,2 L 109,1 L 108,1 L 107,0 Z" fill="black" /><path d="M 8,0 L 9,1 L 11,1 L 13,3 L 15,3 L 17,5 L 19,5 L 20,6 L 21,6 L 22,7 L 23,7 L 24,8 L 25,8 L 27,10 L 28,10 L 29,11 L 30,11 L 32,13 L 34,13 L 35,14 L 36,14 L 38,16 L 39,16 L 40,17 L 41,17 L 42,18 L 43,18 L 44,19 L 45,19 L 46,20 L 47,20 L 48,21 L 49,21 L 50,22 L 51,22 L 52,23 L 53,23 L 54,24 L 55,24 L 56,25 L 57,25 L 58,26 L 59,26 L 60,27 L 61,27 L 62,28 L 63,28 L 64,29 L 65,29 L 66,30 L 67,30 L 69,32 L 70,32 L 71,33 L 72,33 L 73,34 L 74,34 L 75,35 L 76,35 L 77,36 L 78,36 L 79,37 L 80,37 L 81,38 L 82,38 L 83,39 L 84,39 L 85,40 L 86,40 L 87,41 L 89,41 L 91,43 L 92,43 L 93,44 L 95,44 L 96,45 L 97,45 L 99,47 L 97,49 L 96,49 L 95,48 L 62,48 L 60,46 L 56,46 L 54,44 L 53,44 L 51,42 L 50,42 L 49,41 L 48,41 L 47,40 L 46,40 L 45,39 L 44,39 L 43,38 L 42,38 L 40,36 L 39,36 L 38,35 L 36,35 L 35,34 L 34,34 L 32,32 L 31,32 L 30,31 L 29,31 L 28,30 L 27,30 L 26,29 L 24,29 L 23,28 L 22,28 L 20,26 L 19,26 L 18,25 L 17,25 L 16,24 L 15,24 L 14,23 L 12,23 L 11,22 L 10,22 L 8,20 L 7,20 L 6,19 L 5,19 L 4,18 L 3,18 L 2,17 L 1,17 L 0,16 L 0,19 L 1,19 L 2,20 L 3,20 L 4,21 L 5,21 L 6,22 L 7,22 L 8,23 L 9,23 L 10,24 L 11,24 L 12,25 L 13,25 L 14,26 L 15,26 L 16,27 L 17,27 L 18,28 L 19,28 L 21,30 L 22,30 L 23,31 L 25,31 L 26,32 L 27,32 L 29,34 L 30,34 L 31,35 L 32,35 L 33,36 L 35,36 L 36,37 L 37,37 L 39,39 L 40,39 L 41,40 L 42,40 L 43,41 L 44,41 L 45,42 L 46,42 L 47,43 L 48,43 L 49,44 L 50,44 L 51,45 L 53,45 L 54,46 L 54,47 L 53,48 L 47,48 L 46,47 L 43,47 L 42,48 L 42,51 L 43,52 L 43,59 L 41,61 L 39,59 L 38,59 L 37,58 L 36,58 L 35,57 L 34,57 L 33,56 L 32,56 L 31,55 L 30,55 L 28,53 L 26,53 L 25,52 L 24,52 L 23,51 L 22,51 L 21,50 L 20,50 L 19,49 L 18,49 L 16,47 L 14,47 L 13,46 L 12,46 L 11,45 L 10,45 L 9,44 L 8,44 L 7,43 L 6,43 L 5,42 L 4,42 L 2,40 L 1,40 L 0,39 L 0,42 L 1,43 L 2,43 L 3,44 L 4,44 L 5,45 L 6,45 L 7,46 L 8,46 L 9,47 L 10,47 L 11,48 L 13,48 L 15,50 L 17,50 L 18,51 L 19,51 L 22,54 L 25,54 L 27,56 L 28,56 L 29,57 L 30,57 L 31,58 L 32,58 L 33,59 L 34,59 L 35,60 L 36,60 L 38,62 L 40,62 L 41,63 L 42,63 L 43,64 L 43,80 L 44,81 L 44,82 L 42,84 L 40,84 L 38,82 L 37,82 L 36,81 L 35,81 L 34,80 L 33,80 L 31,78 L 30,78 L 29,77 L 28,77 L 27,76 L 25,76 L 23,74 L 22,74 L 21,73 L 18,73 L 16,71 L 15,71 L 13,69 L 12,69 L 11,68 L 9,68 L 7,66 L 6,66 L 5,65 L 4,65 L 3,64 L 2,64 L 1,63 L 0,63 L 0,65 L 2,67 L 3,67 L 4,68 L 5,68 L 6,69 L 7,69 L 8,70 L 9,70 L 10,71 L 11,71 L 12,72 L 13,72 L 15,74 L 17,74 L 18,75 L 19,75 L 20,76 L 21,76 L 22,77 L 23,77 L 24,78 L 25,78 L 26,79 L 27,79 L 28,80 L 29,80 L 30,81 L 31,81 L 32,82 L 33,82 L 34,83 L 35,83 L 37,85 L 39,85 L 41,87 L 42,87 L 43,88 L 43,89 L 44,90 L 44,97 L 45,98 L 45,107 L 44,108 L 41,108 L 38,105 L 37,105 L 36,104 L 34,104 L 33,103 L 32,103 L 30,101 L 29,101 L 28,100 L 26,100 L 24,98 L 23,98 L 22,97 L 21,97 L 20,96 L 19,96 L 18,95 L 17,95 L 16,94 L 15,94 L 14,93 L 13,93 L 12,92 L 11,92 L 10,91 L 9,91 L 7,89 L 5,89 L 4,88 L 3,88 L 1,86 L 0,86 L 0,89 L 1,89 L 2,90 L 3,90 L 4,91 L 5,91 L 6,92 L 7,92 L 8,93 L 9,93 L 11,95 L 12,95 L 13,96 L 15,96 L 16,97 L 17,97 L 18,98 L 19,98 L 20,99 L 21,99 L 22,100 L 23,100 L 24,101 L 25,101 L 27,103 L 28,103 L 29,104 L 30,104 L 31,105 L 32,105 L 33,106 L 34,106 L 35,107 L 36,107 L 37,108 L 38,108 L 39,109 L 41,109 L 42,110 L 43,110 L 45,112 L 45,131 L 44,132 L 43,131 L 42,131 L 41,130 L 40,130 L 39,129 L 38,129 L 37,128 L 36,128 L 35,127 L 34,127 L 32,125 L 30,125 L 28,123 L 27,123 L 26,122 L 24,122 L 23,121 L 22,121 L 20,119 L 18,119 L 17,118 L 16,118 L 15,117 L 14,117 L 14,119 L 15,120 L 16,120 L 17,121 L 18,121 L 19,122 L 21,122 L 23,124 L 24,124 L 25,125 L 26,125 L 27,126 L 29,126 L 31,128 L 32,128 L 33,129 L 34,129 L 35,130 L 37,130 L 40,133 L 42,133 L 43,134 L 44,134 L 45,135 L 45,138 L 46,139 L 46,154 L 44,156 L 42,156 L 38,152 L 37,152 L 36,151 L 34,151 L 33,150 L 32,150 L 30,148 L 29,148 L 28,147 L 26,147 L 23,144 L 22,144 L 21,143 L 19,143 L 17,141 L 16,141 L 14,139 L 12,139 L 11,138 L 10,138 L 9,137 L 8,137 L 7,136 L 6,136 L 5,135 L 4,135 L 3,134 L 2,134 L 1,133 L 0,133 L 0,136 L 2,136 L 4,138 L 6,138 L 8,140 L 10,140 L 11,141 L 12,141 L 13,142 L 14,142 L 15,143 L 16,143 L 18,145 L 19,145 L 20,146 L 21,146 L 22,147 L 23,147 L 24,148 L 25,148 L 26,149 L 27,149 L 28,150 L 29,150 L 30,151 L 31,151 L 32,152 L 33,152 L 34,153 L 35,153 L 37,155 L 38,155 L 40,157 L 42,157 L 43,158 L 44,158 L 46,160 L 46,164 L 47,165 L 47,170 L 46,171 L 47,172 L 47,177 L 46,178 L 43,178 L 41,176 L 39,176 L 38,175 L 36,175 L 35,174 L 34,174 L 33,173 L 32,173 L 31,172 L 30,172 L 29,171 L 28,171 L 26,169 L 24,169 L 22,167 L 20,167 L 18,165 L 17,165 L 16,164 L 15,164 L 14,163 L 13,163 L 12,162 L 11,162 L 10,161 L 8,161 L 6,159 L 4,159 L 3,158 L 2,158 L 1,157 L 0,157 L 0,159 L 1,160 L 2,160 L 3,161 L 4,161 L 5,162 L 7,162 L 9,164 L 11,164 L 13,166 L 14,166 L 15,167 L 16,167 L 17,168 L 18,168 L 19,169 L 20,169 L 21,170 L 22,170 L 23,171 L 24,171 L 25,172 L 26,172 L 28,174 L 30,174 L 31,175 L 32,175 L 33,176 L 34,176 L 35,177 L 37,177 L 38,178 L 39,178 L 40,179 L 41,179 L 43,181 L 44,181 L 46,183 L 48,183 L 49,184 L 51,184 L 52,185 L 54,185 L 57,188 L 58,188 L 60,190 L 62,190 L 64,192 L 66,192 L 67,193 L 68,193 L 69,194 L 70,194 L 71,195 L 72,195 L 73,196 L 74,196 L 76,198 L 78,198 L 80,200 L 82,200 L 84,202 L 86,202 L 88,204 L 90,204 L 92,206 L 94,206 L 95,207 L 96,207 L 97,208 L 98,208 L 99,209 L 100,209 L 103,212 L 106,212 L 108,214 L 110,214 L 111,215 L 112,215 L 113,216 L 114,216 L 116,218 L 118,218 L 119,219 L 125,219 L 123,219 L 122,218 L 121,218 L 120,217 L 119,217 L 117,215 L 115,215 L 113,213 L 111,213 L 109,211 L 108,211 L 107,210 L 106,210 L 105,209 L 104,209 L 103,208 L 102,208 L 101,207 L 99,207 L 97,205 L 96,205 L 94,203 L 92,203 L 90,201 L 87,201 L 85,199 L 84,199 L 82,197 L 79,197 L 77,195 L 76,195 L 75,194 L 74,194 L 73,193 L 72,193 L 70,191 L 68,191 L 67,190 L 66,190 L 65,189 L 63,189 L 61,187 L 60,187 L 59,186 L 58,186 L 55,183 L 55,182 L 57,180 L 60,180 L 61,179 L 65,179 L 67,177 L 71,177 L 72,176 L 74,176 L 75,175 L 78,175 L 80,177 L 81,177 L 82,178 L 83,178 L 84,179 L 85,179 L 86,180 L 87,180 L 88,181 L 89,181 L 90,182 L 91,182 L 92,183 L 93,183 L 95,185 L 96,185 L 97,186 L 99,186 L 100,187 L 101,187 L 102,188 L 103,188 L 104,189 L 105,189 L 106,190 L 107,190 L 108,191 L 109,191 L 110,192 L 111,192 L 112,193 L 113,193 L 114,194 L 115,194 L 116,195 L 117,195 L 118,196 L 119,196 L 121,198 L 123,198 L 124,199 L 125,199 L 126,200 L 127,200 L 128,201 L 129,201 L 131,203 L 132,203 L 133,204 L 135,204 L 136,205 L 137,205 L 139,207 L 140,207 L 141,208 L 143,208 L 144,209 L 145,209 L 147,211 L 148,211 L 149,212 L 150,212 L 151,213 L 152,213 L 153,214 L 154,214 L 155,215 L 156,215 L 158,217 L 160,217 L 161,218 L 162,218 L 163,219 L 169,219 L 168,218 L 166,218 L 164,216 L 161,216 L 159,214 L 158,214 L 157,213 L 156,213 L 155,212 L 154,212 L 153,211 L 152,211 L 151,210 L 150,210 L 148,208 L 147,208 L 146,207 L 145,207 L 144,206 L 143,206 L 142,205 L 140,205 L 137,202 L 135,202 L 134,201 L 133,201 L 132,200 L 131,200 L 130,199 L 129,199 L 127,197 L 125,197 L 124,196 L 123,196 L 122,195 L 120,195 L 117,192 L 115,192 L 113,190 L 111,190 L 110,189 L 109,189 L 107,187 L 106,187 L 105,186 L 103,186 L 102,185 L 101,185 L 100,184 L 99,184 L 97,182 L 96,182 L 95,181 L 94,181 L 93,180 L 91,180 L 90,179 L 89,179 L 88,178 L 87,178 L 86,177 L 85,177 L 84,176 L 83,176 L 82,175 L 82,174 L 84,172 L 86,172 L 87,171 L 91,171 L 93,169 L 96,169 L 97,168 L 100,168 L 101,167 L 108,167 L 110,169 L 111,169 L 112,170 L 113,170 L 114,171 L 115,171 L 116,172 L 117,172 L 118,173 L 120,173 L 121,174 L 122,174 L 124,176 L 125,176 L 127,178 L 130,178 L 131,179 L 132,179 L 134,181 L 135,181 L 136,182 L 137,182 L 138,183 L 139,183 L 140,184 L 141,184 L 142,185 L 143,185 L 144,186 L 145,186 L 146,187 L 147,187 L 148,188 L 149,188 L 151,190 L 153,190 L 155,192 L 157,192 L 159,194 L 161,194 L 163,196 L 165,196 L 167,198 L 169,198 L 171,200 L 173,200 L 175,202 L 177,202 L 179,204 L 182,204 L 184,206 L 185,206 L 187,208 L 188,208 L 189,209 L 190,209 L 191,210 L 192,210 L 194,212 L 196,212 L 197,213 L 198,213 L 199,214 L 200,214 L 201,215 L 202,215 L 203,216 L 204,216 L 205,217 L 206,217 L 207,218 L 208,218 L 209,219 L 214,219 L 212,217 L 210,217 L 209,216 L 208,216 L 207,215 L 205,215 L 203,213 L 202,213 L 200,211 L 198,211 L 197,210 L 196,210 L 195,209 L 194,209 L 192,207 L 190,207 L 188,205 L 186,205 L 184,203 L 183,203 L 181,201 L 179,201 L 178,200 L 177,200 L 176,199 L 175,199 L 174,198 L 173,198 L 172,197 L 170,197 L 168,195 L 167,195 L 166,194 L 165,194 L 164,193 L 162,193 L 160,191 L 158,191 L 156,189 L 155,189 L 154,188 L 153,188 L 152,187 L 151,187 L 150,186 L 149,186 L 148,185 L 147,185 L 146,184 L 145,184 L 144,183 L 143,183 L 142,182 L 141,182 L 140,181 L 139,181 L 138,180 L 137,180 L 136,179 L 135,179 L 133,177 L 132,177 L 131,176 L 129,176 L 128,175 L 127,175 L 125,173 L 124,173 L 123,172 L 121,172 L 120,171 L 119,171 L 118,170 L 117,170 L 116,169 L 115,169 L 114,168 L 113,168 L 111,166 L 111,165 L 113,163 L 116,163 L 117,162 L 118,162 L 119,161 L 122,161 L 123,160 L 124,160 L 125,159 L 129,159 L 130,158 L 132,158 L 133,157 L 136,157 L 137,158 L 137,159 L 139,161 L 141,161 L 142,162 L 143,162 L 144,163 L 145,163 L 146,164 L 148,164 L 150,166 L 152,166 L 153,167 L 154,167 L 155,168 L 156,168 L 158,170 L 160,170 L 162,172 L 163,172 L 165,174 L 168,174 L 170,176 L 171,176 L 173,178 L 176,178 L 178,180 L 179,180 L 181,182 L 183,182 L 185,184 L 187,184 L 188,185 L 189,185 L 190,186 L 191,186 L 192,187 L 193,187 L 194,188 L 195,188 L 197,190 L 198,190 L 199,191 L 200,191 L 201,192 L 202,192 L 203,193 L 204,193 L 205,194 L 207,194 L 209,196 L 210,196 L 212,198 L 214,198 L 215,199 L 216,199 L 217,200 L 218,200 L 219,201 L 220,201 L 221,202 L 222,202 L 224,204 L 226,204 L 227,205 L 228,205 L 229,206 L 230,206 L 233,209 L 236,209 L 239,212 L 242,212 L 244,214 L 245,214 L 246,215 L 247,215 L 248,216 L 251,216 L 253,218 L 255,218 L 256,219 L 256,217 L 254,215 L 252,215 L 251,214 L 250,214 L 249,213 L 248,213 L 247,212 L 246,212 L 245,211 L 243,211 L 242,210 L 241,210 L 240,209 L 239,209 L 237,207 L 235,207 L 234,206 L 233,206 L 230,203 L 227,203 L 225,201 L 224,201 L 222,199 L 220,199 L 218,197 L 216,197 L 215,196 L 214,196 L 213,195 L 212,195 L 210,193 L 208,193 L 206,191 L 204,191 L 203,190 L 202,190 L 201,189 L 200,189 L 198,187 L 197,187 L 196,186 L 195,186 L 194,185 L 193,185 L 192,184 L 191,184 L 190,183 L 189,183 L 188,182 L 187,182 L 186,181 L 185,181 L 184,180 L 183,180 L 182,179 L 181,179 L 179,177 L 177,177 L 176,176 L 175,176 L 174,175 L 173,175 L 171,173 L 169,173 L 168,172 L 167,172 L 166,171 L 165,171 L 164,170 L 163,170 L 162,169 L 161,169 L 159,167 L 157,167 L 156,166 L 155,166 L 154,165 L 153,165 L 151,163 L 148,163 L 146,161 L 145,161 L 144,160 L 143,160 L 142,159 L 141,159 L 140,158 L 139,158 L 138,157 L 138,156 L 139,155 L 142,155 L 143,154 L 144,154 L 145,153 L 148,153 L 149,152 L 150,152 L 151,151 L 153,151 L 154,150 L 156,150 L 157,149 L 160,149 L 161,148 L 162,148 L 163,149 L 165,149 L 166,150 L 167,150 L 171,154 L 173,154 L 174,155 L 175,155 L 176,156 L 178,156 L 180,158 L 181,158 L 183,160 L 186,160 L 189,163 L 191,163 L 192,164 L 193,164 L 194,165 L 195,165 L 196,166 L 197,166 L 199,168 L 200,168 L 201,169 L 202,169 L 203,170 L 205,170 L 207,172 L 208,172 L 209,173 L 210,173 L 211,174 L 212,174 L 213,175 L 214,175 L 215,176 L 216,176 L 217,177 L 218,177 L 219,178 L 220,178 L 222,180 L 223,180 L 224,181 L 225,181 L 226,182 L 228,182 L 230,184 L 232,184 L 233,185 L 234,185 L 235,186 L 236,186 L 237,187 L 238,187 L 239,188 L 240,188 L 242,190 L 244,190 L 245,191 L 246,191 L 247,192 L 248,192 L 249,193 L 250,193 L 251,194 L 253,194 L 254,195 L 255,195 L 256,196 L 256,193 L 255,192 L 253,192 L 252,191 L 251,191 L 250,190 L 249,190 L 248,189 L 247,189 L 246,188 L 244,188 L 243,187 L 242,187 L 241,186 L 240,186 L 239,185 L 238,185 L 237,184 L 236,184 L 235,183 L 233,183 L 232,182 L 231,182 L 229,180 L 228,180 L 227,179 L 225,179 L 223,177 L 221,177 L 219,175 L 218,175 L 217,174 L 216,174 L 215,173 L 214,173 L 213,172 L 212,172 L 211,171 L 210,171 L 208,169 L 206,169 L 204,167 L 202,167 L 201,166 L 200,166 L 198,164 L 197,164 L 196,163 L 195,163 L 194,162 L 193,162 L 192,161 L 191,161 L 189,159 L 187,159 L 186,158 L 185,158 L 182,155 L 179,155 L 177,153 L 174,153 L 172,151 L 171,151 L 170,150 L 169,150 L 168,149 L 168,146 L 169,145 L 172,145 L 173,144 L 175,144 L 176,143 L 180,143 L 181,142 L 182,142 L 183,141 L 186,141 L 186,140 L 187,139 L 190,139 L 192,141 L 193,141 L 194,142 L 196,142 L 197,143 L 198,143 L 199,144 L 201,144 L 204,147 L 205,147 L 206,148 L 208,148 L 210,150 L 211,150 L 212,151 L 213,151 L 214,152 L 216,152 L 217,153 L 218,153 L 219,154 L 220,154 L 222,156 L 223,156 L 224,157 L 225,157 L 226,158 L 227,158 L 228,159 L 229,159 L 230,160 L 231,160 L 233,162 L 234,162 L 235,163 L 237,163 L 238,164 L 239,164 L 241,166 L 243,166 L 245,168 L 247,168 L 249,170 L 251,170 L 252,171 L 253,171 L 254,172 L 255,172 L 256,173 L 256,170 L 255,170 L 254,169 L 252,169 L 250,167 L 249,167 L 248,166 L 247,166 L 246,165 L 245,165 L 244,164 L 243,164 L 242,163 L 241,163 L 240,162 L 239,162 L 238,161 L 236,161 L 235,160 L 234,160 L 232,158 L 231,158 L 230,157 L 229,157 L 228,156 L 227,156 L 225,154 L 224,154 L 223,153 L 222,153 L 221,152 L 220,152 L 219,151 L 218,151 L 217,150 L 216,150 L 215,149 L 214,149 L 213,148 L 212,148 L 211,147 L 210,147 L 209,146 L 208,146 L 207,145 L 206,145 L 205,144 L 204,144 L 203,143 L 202,143 L 201,142 L 200,142 L 199,141 L 198,141 L 197,140 L 196,140 L 195,139 L 194,139 L 193,138 L 190,138 L 188,136 L 188,120 L 187,119 L 187,116 L 188,115 L 190,115 L 191,116 L 192,116 L 194,118 L 195,118 L 197,120 L 200,120 L 202,122 L 203,122 L 204,123 L 205,123 L 207,125 L 208,125 L 209,126 L 210,126 L 211,127 L 212,127 L 213,128 L 214,128 L 215,129 L 216,129 L 217,130 L 219,130 L 222,133 L 225,133 L 227,135 L 228,135 L 229,136 L 231,136 L 232,137 L 233,137 L 235,139 L 236,139 L 237,140 L 238,140 L 239,141 L 240,141 L 242,143 L 244,143 L 245,144 L 246,144 L 247,145 L 248,145 L 250,147 L 252,147 L 253,148 L 254,148 L 255,149 L 256,149 L 256,147 L 255,146 L 254,146 L 252,144 L 250,144 L 248,142 L 246,142 L 245,141 L 244,141 L 243,140 L 242,140 L 240,138 L 239,138 L 238,137 L 237,137 L 236,136 L 235,136 L 234,135 L 233,135 L 232,134 L 231,134 L 230,133 L 229,133 L 228,132 L 226,132 L 224,130 L 223,130 L 222,129 L 221,129 L 220,128 L 219,128 L 218,127 L 217,127 L 216,126 L 214,126 L 212,124 L 211,124 L 210,123 L 209,123 L 208,122 L 207,122 L 206,121 L 205,121 L 204,120 L 203,120 L 202,119 L 201,119 L 199,117 L 197,117 L 195,115 L 193,115 L 192,114 L 191,114 L 190,113 L 189,113 L 187,111 L 187,102 L 186,101 L 186,94 L 187,93 L 190,93 L 191,94 L 193,94 L 194,95 L 195,95 L 196,96 L 198,96 L 200,98 L 201,98 L 202,99 L 203,99 L 204,100 L 205,100 L 206,101 L 207,101 L 208,102 L 209,102 L 212,105 L 213,105 L 214,106 L 216,106 L 217,107 L 218,107 L 219,108 L 221,108 L 223,110 L 224,110 L 225,111 L 226,111 L 227,112 L 228,112 L 230,114 L 232,114 L 233,115 L 234,115 L 235,116 L 236,116 L 239,119 L 241,119 L 243,121 L 245,121 L 247,123 L 249,123 L 250,124 L 251,124 L 252,125 L 253,125 L 254,126 L 255,126 L 256,127 L 256,124 L 255,123 L 253,123 L 251,121 L 250,121 L 249,120 L 248,120 L 247,119 L 245,119 L 244,118 L 243,118 L 241,116 L 240,116 L 239,115 L 238,115 L 237,114 L 236,114 L 235,113 L 233,113 L 231,111 L 230,111 L 228,109 L 226,109 L 224,107 L 222,107 L 221,106 L 220,106 L 218,104 L 217,104 L 216,103 L 214,103 L 213,102 L 212,102 L 211,101 L 210,101 L 207,98 L 206,98 L 205,97 L 203,97 L 201,95 L 199,95 L 198,94 L 197,94 L 196,93 L 194,93 L 193,92 L 192,92 L 191,91 L 189,91 L 188,90 L 187,90 L 186,89 L 186,79 L 185,78 L 185,75 L 184,74 L 184,69 L 186,67 L 187,67 L 189,69 L 190,69 L 191,70 L 193,70 L 194,71 L 195,71 L 198,74 L 200,74 L 201,75 L 202,75 L 203,76 L 204,76 L 205,77 L 206,77 L 207,78 L 208,78 L 209,79 L 210,79 L 211,80 L 213,80 L 214,81 L 215,81 L 216,82 L 217,82 L 218,83 L 219,83 L 221,85 L 222,85 L 224,87 L 225,87 L 226,88 L 228,88 L 229,89 L 230,89 L 231,90 L 232,90 L 234,92 L 235,92 L 236,93 L 237,93 L 239,95 L 241,95 L 242,96 L 243,96 L 244,97 L 245,97 L 247,99 L 249,99 L 251,101 L 252,101 L 253,102 L 255,102 L 256,103 L 256,100 L 255,100 L 254,99 L 253,99 L 252,98 L 250,98 L 248,96 L 247,96 L 245,94 L 243,94 L 242,93 L 241,93 L 240,92 L 239,92 L 237,90 L 236,90 L 235,89 L 233,89 L 232,88 L 231,88 L 229,86 L 228,86 L 227,85 L 226,85 L 225,84 L 224,84 L 223,83 L 222,83 L 221,82 L 220,82 L 218,80 L 216,80 L 215,79 L 214,79 L 213,78 L 212,78 L 210,76 L 209,76 L 208,75 L 207,75 L 206,74 L 205,74 L 204,73 L 202,73 L 201,72 L 200,72 L 199,71 L 198,71 L 197,70 L 196,70 L 195,69 L 194,69 L 193,68 L 192,68 L 190,66 L 187,66 L 186,65 L 185,65 L 184,64 L 184,52 L 182,50 L 157,50 L 155,48 L 153,48 L 152,47 L 151,47 L 148,44 L 146,44 L 145,43 L 144,43 L 143,42 L 143,41 L 142,41 L 141,40 L 140,40 L 139,39 L 136,39 L 135,38 L 134,38 L 132,36 L 131,36 L 130,35 L 128,35 L 126,33 L 125,33 L 124,32 L 123,32 L 122,31 L 121,31 L 119,29 L 116,29 L 114,27 L 113,27 L 111,25 L 110,25 L 108,23 L 105,23 L 104,22 L 103,22 L 102,21 L 101,21 L 99,19 L 98,19 L 97,18 L 96,18 L 95,17 L 94,17 L 93,16 L 92,16 L 91,15 L 90,15 L 89,14 L 88,14 L 86,12 L 84,12 L 82,10 L 80,10 L 78,8 L 77,8 L 75,6 L 73,6 L 72,5 L 71,5 L 69,3 L 68,3 L 67,2 L 66,2 L 65,1 L 64,1 L 63,0 L 56,0 L 57,0 L 58,1 L 59,1 L 60,2 L 61,2 L 62,3 L 63,3 L 64,4 L 65,4 L 66,5 L 67,5 L 69,7 L 71,7 L 72,8 L 73,8 L 74,9 L 75,9 L 76,10 L 77,10 L 80,13 L 82,13 L 84,15 L 86,15 L 88,17 L 89,17 L 90,18 L 92,18 L 93,19 L 94,19 L 95,20 L 96,20 L 97,21 L 98,21 L 100,23 L 101,23 L 102,24 L 103,24 L 105,26 L 108,26 L 110,28 L 111,28 L 113,30 L 115,30 L 116,31 L 117,31 L 118,32 L 119,32 L 121,34 L 123,34 L 124,35 L 125,35 L 127,37 L 128,37 L 129,38 L 130,38 L 131,39 L 132,39 L 133,40 L 134,40 L 135,41 L 137,41 L 138,42 L 139,42 L 140,43 L 141,43 L 143,45 L 145,45 L 147,47 L 147,48 L 145,50 L 139,50 L 138,49 L 137,49 L 136,50 L 135,50 L 134,49 L 129,49 L 128,48 L 125,48 L 124,49 L 123,49 L 122,48 L 120,48 L 119,49 L 117,49 L 116,48 L 111,48 L 110,49 L 109,48 L 107,48 L 105,46 L 103,46 L 101,44 L 98,44 L 95,41 L 93,41 L 91,39 L 90,39 L 89,38 L 88,38 L 87,37 L 86,37 L 85,36 L 84,36 L 83,35 L 82,35 L 81,34 L 80,34 L 79,33 L 78,33 L 77,32 L 75,32 L 74,31 L 73,31 L 71,29 L 70,29 L 69,28 L 67,28 L 66,27 L 65,27 L 63,25 L 62,25 L 61,24 L 59,24 L 58,23 L 57,23 L 55,21 L 54,21 L 53,20 L 52,20 L 51,19 L 50,19 L 49,18 L 48,18 L 47,17 L 46,17 L 45,16 L 44,16 L 42,14 L 40,14 L 39,13 L 38,13 L 36,11 L 34,11 L 33,10 L 32,10 L 31,9 L 31,8 L 28,8 L 25,5 L 24,5 L 23,4 L 22,4 L 21,3 L 20,3 L 19,2 L 16,2 L 14,0 Z" fill="black" /><path d="M 0,206 L 0,219 L 25,219 L 23,219 L 21,217 L 20,217 L 18,215 L 16,215 L 14,213 L 12,213 L 10,211 L 9,211 L 8,210 L 7,210 L 6,209 L 5,209 L 4,208 L 3,208 L 1,206 Z" fill="none" stroke="black" stroke-width="1" /><path d="M 0,183 L 0,202 L 2,202 L 4,204 L 5,204 L 6,205 L 7,205 L 8,206 L 9,206 L 10,207 L 11,207 L 12,208 L 13,208 L 15,210 L 17,210 L 19,212 L 21,212 L 23,214 L 25,214 L 27,216 L 28,216 L 29,217 L 30,217 L 31,218 L 32,218 L 33,219 L 71,219 L 70,219 L 69,218 L 68,218 L 67,217 L 66,217 L 64,215 L 61,215 L 59,213 L 58,213 L 56,211 L 54,211 L 52,209 L 49,209 L 47,207 L 46,207 L 45,206 L 44,206 L 43,205 L 42,205 L 40,203 L 38,203 L 36,201 L 34,201 L 32,199 L 30,199 L 28,197 L 27,197 L 25,195 L 23,195 L 22,194 L 21,194 L 20,193 L 19,193 L 18,192 L 17,192 L 16,191 L 14,191 L 13,190 L 12,190 L 10,188 L 8,188 L 6,186 L 4,186 L 2,184 L 1,184 Z" fill="none" stroke="black" stroke-width="1" /><path d="M 75,176 L 74,177 L 72,177 L 71,178 L 67,178 L 65,180 L 61,180 L 60,181 L 57,181 L 56,182 L 56,183 L 58,185 L 59,185 L 60,186 L 61,186 L 63,188 L 65,188 L 66,189 L 67,189 L 68,190 L 70,190 L 72,192 L 73,192 L 74,193 L 75,193 L 76,194 L 77,194 L 79,196 L 82,196 L 84,198 L 85,198 L 87,200 L 90,200 L 92,202 L 94,202 L 96,204 L 97,204 L 99,206 L 101,206 L 102,207 L 103,207 L 104,208 L 105,208 L 106,209 L 107,209 L 108,210 L 109,210 L 111,212 L 113,212 L 115,214 L 117,214 L 119,216 L 120,216 L 121,217 L 122,217 L 123,218 L 125,218 L 126,219 L 162,219 L 161,219 L 160,218 L 158,218 L 156,216 L 155,216 L 154,215 L 153,215 L 152,214 L 151,214 L 150,213 L 149,213 L 148,212 L 147,212 L 145,210 L 144,210 L 143,209 L 141,209 L 140,208 L 139,208 L 137,206 L 136,206 L 135,205 L 133,205 L 132,204 L 131,204 L 129,202 L 128,202 L 127,201 L 126,201 L 125,200 L 124,200 L 123,199 L 121,199 L 119,197 L 118,197 L 117,196 L 116,196 L 115,195 L 114,195 L 113,194 L 112,194 L 111,193 L 110,193 L 109,192 L 108,192 L 107,191 L 106,191 L 105,190 L 104,190 L 103,189 L 102,189 L 101,188 L 100,188 L 99,187 L 97,187 L 96,186 L 95,186 L 93,184 L 92,184 L 91,183 L 90,183 L 89,182 L 88,182 L 87,181 L 86,181 L 85,180 L 84,180 L 83,179 L 82,179 L 81,178 L 80,178 L 78,176 Z" fill="none" stroke="black" stroke-width="1" /><path d="M 101,168 L 100,169 L 97,169 L 96,170 L 93,170 L 91,172 L 87,172 L 86,173 L 84,173 L 83,174 L 83,175 L 84,175 L 85,176 L 86,176 L 87,177 L 88,177 L 89,178 L 90,178 L 91,179 L 93,179 L 94,180 L 95,180 L 96,181 L 97,181 L 99,183 L 100,183 L 101,184 L 102,184 L 103,185 L 105,185 L 106,186 L 107,186 L 109,188 L 110,188 L 111,189 L 113,189 L 115,191 L 117,191 L 120,194 L 122,194 L 123,195 L 124,195 L 125,196 L 127,196 L 129,198 L 130,198 L 131,199 L 132,199 L 133,200 L 134,200 L 135,201 L 137,201 L 140,204 L 142,204 L 143,205 L 144,205 L 145,206 L 146,206 L 147,207 L 148,207 L 150,209 L 151,209 L 152,210 L 153,210 L 154,211 L 155,211 L 156,212 L 157,212 L 158,213 L 159,213 L 161,215 L 164,215 L 166,217 L 168,217 L 170,219 L 208,219 L 207,219 L 206,218 L 205,218 L 204,217 L 203,217 L 202,216 L 201,216 L 200,215 L 199,215 L 198,214 L 197,214 L 196,213 L 194,213 L 192,211 L 191,211 L 190,210 L 189,210 L 188,209 L 187,209 L 185,207 L 184,207 L 182,205 L 179,205 L 177,203 L 175,203 L 173,201 L 171,201 L 169,199 L 167,199 L 165,197 L 163,197 L 161,195 L 159,195 L 157,193 L 155,193 L 153,191 L 151,191 L 149,189 L 148,189 L 147,188 L 146,188 L 145,187 L 144,187 L 143,186 L 142,186 L 141,185 L 140,185 L 139,184 L 138,184 L 137,183 L 136,183 L 135,182 L 134,182 L 132,180 L 131,180 L 130,179 L 127,179 L 125,177 L 124,177 L 122,175 L 121,175 L 120,174 L 118,174 L 117,173 L 116,173 L 115,172 L 114,172 L 113,171 L 112,171 L 111,170 L 110,170 L 108,168 Z" fill="none" stroke="black" stroke-width="1" /><path d="M 51,162 L 51,179 L 53,179 L 55,177 L 58,177 L 59,176 L 60,176 L 61,175 L 65,175 L 66,174 L 69,174 L 70,173 L 70,172 L 69,172 L 68,171 L 66,171 L 65,170 L 64,170 L 63,169 L 62,169 L 61,168 L 60,168 L 59,167 L 58,167 L 57,166 L 56,166 L 52,162 Z" fill="none" stroke="black" stroke-width="1" /><path d="M 0,160 L 0,179 L 1,179 L 2,180 L 3,180 L 4,181 L 5,181 L 6,182 L 7,182 L 8,183 L 9,183 L 10,184 L 11,184 L 12,185 L 13,185 L 14,186 L 15,186 L 16,187 L 17,187 L 18,188 L 19,188 L 20,189 L 21,189 L 22,190 L 24,190 L 26,192 L 28,192 L 30,194 L 31,194 L 33,196 L 36,196 L 38,198 L 39,198 L 41,200 L 43,200 L 45,202 L 47,202 L 49,204 L 50,204 L 51,205 L 52,205 L 53,206 L 54,206 L 55,207 L 57,207 L 58,208 L 59,208 L 60,209 L 61,209 L 63,211 L 64,211 L 65,212 L 67,212 L 69,214 L 71,214 L 72,215 L 73,215 L 75,217 L 76,217 L 77,218 L 78,218 L 79,219 L 118,219 L 116,219 L 114,217 L 113,217 L 112,216 L 111,216 L 110,215 L 108,215 L 106,213 L 103,213 L 100,210 L 99,210 L 98,209 L 97,209 L 96,208 L 95,208 L 94,207 L 92,207 L 90,205 L 88,205 L 86,203 L 84,203 L 82,201 L 80,201 L 78,199 L 76,199 L 74,197 L 73,197 L 72,196 L 71,196 L 70,195 L 69,195 L 68,194 L 67,194 L 66,193 L 64,193 L 62,191 L 60,191 L 58,189 L 57,189 L 54,186 L 52,186 L 51,185 L 49,185 L 48,184 L 46,184 L 44,182 L 43,182 L 41,180 L 40,180 L 39,179 L 38,179 L 37,178 L 35,178 L 34,177 L 33,177 L 32,176 L 31,176 L 30,175 L 28,175 L 26,173 L 25,173 L 24,172 L 23,172 L 22,171 L 21,171 L 20,170 L 19,170 L 18,169 L 17,169 L 16,168 L 15,168 L 14,167 L 13,167 L 11,165 L 9,165 L 7,163 L 5,163 L 4,162 L 3,162 L 2,161 L 1,161 Z" fill="none" stroke="black" stroke-width="1" /><path d="M 133,158 L 132,159 L 130,159 L 129,160 L 125,160 L 124,161 L 123,161 L 122,162 L 119,162 L 118,163 L 117,163 L 116,164 L 113,164 L 112,165 L 112,166 L 113,167 L 114,167 L 115,168 L 116,168 L 117,169 L 118,169 L 119,170 L 120,170 L 121,171 L 123,171 L 124,172 L 125,172 L 127,174 L 128,174 L 129,175 L 131,175 L 132,176 L 133,176 L 135,178 L 136,178 L 137,179 L 138,179 L 139,180 L 140,180 L 141,181 L 142,181 L 143,182 L 144,182 L 145,183 L 146,183 L 147,184 L 148,184 L 149,185 L 150,185 L 151,186 L 152,186 L 153,187 L 154,187 L 155,188 L 156,188 L 158,190 L 160,190 L 162,192 L 164,192 L 165,193 L 166,193 L 167,194 L 168,194 L 170,196 L 172,196 L 173,197 L 174,197 L 175,198 L 176,198 L 177,199 L 178,199 L 179,200 L 181,200 L 183,202 L 184,202 L 186,204 L 188,204 L 190,206 L 192,206 L 194,208 L 195,208 L 196,209 L 197,209 L 198,210 L 200,210 L 202,212 L 203,212 L 205,214 L 207,214 L 208,215 L 209,215 L 210,216 L 212,216 L 215,219 L 255,219 L 253,219 L 251,217 L 248,217 L 247,216 L 246,216 L 245,215 L 244,215 L 242,213 L 239,213 L 236,210 L 233,210 L 230,207 L 229,207 L 228,206 L 227,206 L 226,205 L 224,205 L 222,203 L 221,203 L 220,202 L 219,202 L 218,201 L 217,201 L 216,200 L 215,200 L 214,199 L 212,199 L 210,197 L 209,197 L 207,195 L 205,195 L 204,194 L 203,194 L 202,193 L 201,193 L 200,192 L 199,192 L 198,191 L 197,191 L 195,189 L 194,189 L 193,188 L 192,188 L 191,187 L 190,187 L 189,186 L 188,186 L 187,185 L 185,185 L 183,183 L 181,183 L 179,181 L 178,181 L 176,179 L 173,179 L 171,177 L 170,177 L 168,175 L 165,175 L 163,173 L 162,173 L 160,171 L 158,171 L 156,169 L 155,169 L 154,168 L 153,168 L 152,167 L 150,167 L 148,165 L 146,165 L 145,164 L 144,164 L 143,163 L 142,163 L 141,162 L 139,162 L 136,159 L 136,158 Z" fill="none" stroke="black" stroke-width="1" /><path d="M 161,149 L 160,150 L 157,150 L 156,151 L 154,151 L 153,152 L 151,152 L 150,153 L 149,153 L 148,154 L 145,154 L 144,155 L 143,155 L 142,156 L 139,156 L 139,157 L 140,157 L 141,158 L 142,158 L 143,159 L 144,159 L 145,160 L 146,160 L 148,162 L 151,162 L 153,164 L 154,164 L 155,165 L 156,165 L 157,166 L 159,166 L 161,168 L 162,168 L 163,169 L 164,169 L 165,170 L 166,170 L 167,171 L 168,171 L 169,172 L 171,172 L 173,174 L 174,174 L 175,175 L 176,175 L 177,176 L 179,176 L 181,178 L 182,178 L 183,179 L 184,179 L 185,180 L 186,180 L 187,181 L 188,181 L 189,182 L 190,182 L 191,183 L 192,183 L 193,184 L 194,184 L 195,185 L 196,185 L 197,186 L 198,186 L 200,188 L 201,188 L 202,189 L 203,189 L 204,190 L 206,190 L 208,192 L 210,192 L 212,194 L 213,194 L 214,195 L 215,195 L 216,196 L 218,196 L 220,198 L 222,198 L 224,200 L 225,200 L 227,202 L 230,202 L 233,205 L 234,205 L 235,206 L 237,206 L 239,208 L 240,208 L 241,209 L 242,209 L 243,210 L 245,210 L 246,211 L 247,211 L 248,212 L 249,212 L 250,213 L 251,213 L 252,214 L 254,214 L 256,216 L 256,197 L 255,196 L 254,196 L 253,195 L 251,195 L 250,194 L 249,194 L 248,193 L 247,193 L 246,192 L 245,192 L 244,191 L 242,191 L 240,189 L 239,189 L 238,188 L 237,188 L 236,187 L 235,187 L 234,186 L 233,186 L 232,185 L 230,185 L 228,183 L 226,183 L 225,182 L 224,182 L 223,181 L 222,181 L 220,179 L 219,179 L 218,178 L 217,178 L 216,177 L 215,177 L 214,176 L 213,176 L 212,175 L 211,175 L 210,174 L 209,174 L 208,173 L 207,173 L 205,171 L 203,171 L 202,170 L 201,170 L 200,169 L 199,169 L 197,167 L 196,167 L 195,166 L 194,166 L 193,165 L 192,165 L 191,164 L 189,164 L 186,161 L 183,161 L 181,159 L 180,159 L 178,157 L 176,157 L 175,156 L 174,156 L 173,155 L 171,155 L 167,151 L 166,151 L 165,150 L 163,150 L 162,149 Z" fill="none" stroke="black" stroke-width="1" /><path d="M 187,140 L 187,141 L 186,142 L 183,142 L 182,143 L 181,143 L 180,144 L 176,144 L 175,145 L 173,145 L 172,146 L 169,146 L 169,149 L 170,149 L 171,150 L 172,150 L 174,152 L 177,152 L 179,154 L 182,154 L 185,157 L 186,157 L 187,158 L 189,158 L 191,160 L 192,160 L 193,161 L 194,161 L 195,162 L 196,162 L 197,163 L 198,163 L 200,165 L 201,165 L 202,166 L 204,166 L 206,168 L 208,168 L 210,170 L 211,170 L 212,171 L 213,171 L 214,172 L 215,172 L 216,173 L 217,173 L 218,174 L 219,174 L 221,176 L 223,176 L 225,178 L 227,178 L 228,179 L 229,179 L 231,181 L 232,181 L 233,182 L 235,182 L 236,183 L 237,183 L 238,184 L 239,184 L 240,185 L 241,185 L 242,186 L 243,186 L 244,187 L 246,187 L 247,188 L 248,188 L 249,189 L 250,189 L 251,190 L 252,190 L 253,191 L 255,191 L 256,192 L 256,174 L 255,173 L 254,173 L 253,172 L 252,172 L 251,171 L 249,171 L 247,169 L 245,169 L 243,167 L 241,167 L 239,165 L 238,165 L 237,164 L 235,164 L 234,163 L 233,163 L 231,161 L 230,161 L 229,160 L 228,160 L 227,159 L 226,159 L 225,158 L 224,158 L 223,157 L 222,157 L 220,155 L 219,155 L 218,154 L 217,154 L 216,153 L 214,153 L 213,152 L 212,152 L 211,151 L 210,151 L 208,149 L 206,149 L 205,148 L 204,148 L 201,145 L 199,145 L 198,144 L 197,144 L 196,143 L 194,143 L 193,142 L 192,142 L 190,140 Z" fill="none" stroke="black" stroke-width="1" /><path d="M 50,138 L 50,157 L 51,158 L 51,159 L 52,159 L 53,160 L 55,160 L 56,161 L 58,161 L 60,163 L 61,163 L 62,164 L 63,164 L 64,165 L 65,165 L 66,166 L 67,166 L 68,167 L 69,167 L 73,171 L 78,171 L 79,170 L 80,170 L 81,169 L 84,169 L 85,168 L 86,168 L 87,167 L 91,167 L 93,165 L 97,165 L 98,164 L 98,163 L 97,163 L 96,162 L 95,162 L 94,161 L 93,161 L 92,160 L 91,160 L 90,159 L 89,159 L 88,158 L 87,158 L 86,157 L 85,157 L 84,156 L 83,156 L 82,155 L 81,155 L 79,153 L 77,153 L 75,151 L 74,151 L 73,150 L 72,150 L 71,149 L 69,149 L 67,147 L 66,147 L 65,146 L 64,146 L 63,145 L 62,145 L 61,144 L 60,144 L 59,143 L 57,143 L 56,142 L 55,142 L 51,138 Z" fill="none" stroke="black" stroke-width="1" /><path d="M 0,137 L 0,156 L 1,156 L 2,157 L 3,157 L 4,158 L 6,158 L 8,160 L 10,160 L 11,161 L 12,161 L 13,162 L 14,162 L 15,163 L 16,163 L 17,164 L 18,164 L 20,166 L 22,166 L 24,168 L 26,168 L 28,170 L 29,170 L 30,171 L 31,171 L 32,172 L 33,172 L 34,173 L 35,173 L 36,174 L 38,174 L 39,175 L 41,175 L 43,177 L 46,177 L 46,172 L 45,171 L 46,170 L 46,165 L 45,164 L 45,160 L 44,159 L 43,159 L 42,158 L 40,158 L 38,156 L 37,156 L 35,154 L 34,154 L 33,153 L 32,153 L 31,152 L 30,152 L 29,151 L 28,151 L 27,150 L 26,150 L 25,149 L 24,149 L 23,148 L 22,148 L 21,147 L 20,147 L 19,146 L 18,146 L 16,144 L 15,144 L 14,143 L 13,143 L 12,142 L 11,142 L 10,141 L 8,141 L 6,139 L 4,139 L 2,137 Z" fill="none" stroke="black" stroke-width="1" /><path d="M 188,116 L 188,119 L 189,120 L 189,136 L 190,137 L 193,137 L 194,138 L 195,138 L 196,139 L 197,139 L 198,140 L 199,140 L 200,141 L 201,141 L 202,142 L 203,142 L 204,143 L 205,143 L 206,144 L 207,144 L 208,145 L 209,145 L 210,146 L 211,146 L 212,147 L 213,147 L 214,148 L 215,148 L 216,149 L 217,149 L 218,150 L 219,150 L 220,151 L 221,151 L 222,152 L 223,152 L 224,153 L 225,153 L 227,155 L 228,155 L 229,156 L 230,156 L 231,157 L 232,157 L 234,159 L 235,159 L 236,160 L 238,160 L 239,161 L 240,161 L 241,162 L 242,162 L 243,163 L 244,163 L 245,164 L 246,164 L 247,165 L 248,165 L 249,166 L 250,166 L 252,168 L 254,168 L 255,169 L 256,169 L 256,150 L 255,150 L 254,149 L 253,149 L 252,148 L 250,148 L 248,146 L 247,146 L 246,145 L 245,145 L 244,144 L 242,144 L 240,142 L 239,142 L 238,141 L 237,141 L 236,140 L 235,140 L 233,138 L 232,138 L 231,137 L 229,137 L 228,136 L 227,136 L 225,134 L 222,134 L 219,131 L 217,131 L 216,130 L 215,130 L 214,129 L 213,129 L 212,128 L 211,128 L 210,127 L 209,127 L 208,126 L 207,126 L 205,124 L 204,124 L 203,123 L 202,123 L 200,121 L 197,121 L 195,119 L 194,119 L 192,117 L 191,117 L 190,116 Z" fill="none" stroke="black" stroke-width="1" /><path d="M 49,115 L 49,133 L 52,136 L 54,136 L 55,137 L 56,137 L 57,138 L 59,138 L 61,140 L 62,140 L 63,141 L 65,141 L 67,143 L 68,143 L 69,144 L 70,144 L 72,146 L 74,146 L 75,147 L 76,147 L 77,148 L 78,148 L 79,149 L 80,149 L 81,150 L 82,150 L 84,152 L 86,152 L 88,154 L 90,154 L 92,156 L 93,156 L 94,157 L 95,157 L 96,158 L 97,158 L 98,159 L 99,159 L 101,161 L 102,161 L 103,162 L 105,162 L 106,161 L 110,161 L 111,160 L 112,160 L 113,159 L 116,159 L 117,158 L 118,158 L 119,157 L 122,157 L 123,156 L 125,156 L 126,155 L 126,154 L 125,153 L 123,153 L 122,152 L 121,152 L 119,150 L 118,150 L 117,149 L 115,149 L 114,148 L 113,148 L 112,147 L 111,147 L 110,146 L 109,146 L 107,144 L 106,144 L 105,143 L 104,143 L 103,142 L 102,142 L 101,141 L 100,141 L 99,140 L 97,140 L 95,138 L 94,138 L 93,137 L 91,137 L 90,136 L 89,136 L 87,134 L 86,134 L 85,133 L 84,133 L 83,132 L 82,132 L 81,131 L 80,131 L 79,130 L 78,130 L 77,129 L 76,129 L 75,128 L 74,128 L 73,127 L 72,127 L 71,126 L 70,126 L 69,125 L 68,125 L 67,124 L 66,124 L 65,123 L 64,123 L 63,122 L 62,122 L 60,120 L 58,120 L 56,118 L 55,118 L 53,116 L 51,116 L 50,115 Z" fill="none" stroke="black" stroke-width="1" /><path d="M 187,94 L 187,101 L 188,102 L 188,111 L 189,112 L 190,112 L 191,113 L 192,113 L 193,114 L 195,114 L 197,116 L 199,116 L 201,118 L 202,118 L 203,119 L 204,119 L 205,120 L 206,120 L 207,121 L 208,121 L 209,122 L 210,122 L 211,123 L 212,123 L 214,125 L 216,125 L 217,126 L 218,126 L 219,127 L 220,127 L 221,128 L 222,128 L 223,129 L 224,129 L 226,131 L 228,131 L 229,132 L 230,132 L 231,133 L 232,133 L 233,134 L 234,134 L 235,135 L 236,135 L 237,136 L 238,136 L 239,137 L 240,137 L 242,139 L 243,139 L 244,140 L 245,140 L 246,141 L 248,141 L 250,143 L 252,143 L 254,145 L 255,145 L 256,146 L 256,128 L 255,127 L 254,127 L 253,126 L 252,126 L 251,125 L 250,125 L 249,124 L 247,124 L 245,122 L 243,122 L 241,120 L 239,120 L 236,117 L 235,117 L 234,116 L 233,116 L 232,115 L 230,115 L 228,113 L 227,113 L 226,112 L 225,112 L 224,111 L 223,111 L 221,109 L 219,109 L 218,108 L 217,108 L 216,107 L 214,107 L 213,106 L 212,106 L 209,103 L 208,103 L 207,102 L 206,102 L 205,101 L 204,101 L 203,100 L 202,100 L 201,99 L 200,99 L 198,97 L 196,97 L 195,96 L 194,96 L 193,95 L 191,95 L 190,94 Z" fill="none" stroke="black" stroke-width="1" /><path d="M 48,91 L 48,105 L 49,106 L 49,111 L 50,111 L 51,112 L 53,112 L 54,113 L 55,113 L 56,114 L 57,114 L 58,115 L 59,115 L 60,116 L 61,116 L 62,117 L 63,117 L 64,118 L 65,118 L 66,119 L 67,119 L 69,121 L 70,121 L 71,122 L 72,122 L 73,123 L 74,123 L 75,124 L 76,124 L 77,125 L 78,125 L 79,126 L 80,126 L 81,127 L 82,127 L 83,128 L 84,128 L 85,129 L 86,129 L 87,130 L 88,130 L 89,131 L 90,131 L 91,132 L 92,132 L 93,133 L 94,133 L 96,135 L 97,135 L 98,136 L 99,136 L 100,137 L 101,137 L 102,138 L 104,138 L 105,139 L 106,139 L 108,141 L 109,141 L 110,142 L 111,142 L 112,143 L 113,143 L 114,144 L 115,144 L 116,145 L 117,145 L 118,146 L 120,146 L 122,148 L 123,148 L 124,149 L 125,149 L 127,151 L 128,151 L 130,153 L 134,153 L 135,152 L 136,152 L 137,151 L 140,151 L 141,150 L 142,150 L 143,149 L 146,149 L 147,148 L 148,148 L 149,147 L 151,147 L 152,146 L 153,146 L 154,145 L 154,144 L 152,144 L 151,143 L 149,143 L 148,142 L 147,142 L 145,140 L 144,140 L 143,139 L 142,139 L 141,138 L 140,138 L 139,137 L 138,137 L 137,136 L 136,136 L 135,135 L 133,135 L 132,134 L 131,134 L 130,133 L 129,133 L 127,131 L 125,131 L 123,129 L 122,129 L 121,128 L 120,128 L 119,127 L 118,127 L 117,126 L 116,126 L 114,124 L 113,124 L 112,123 L 111,123 L 110,122 L 109,122 L 108,121 L 107,121 L 106,120 L 105,120 L 104,119 L 103,119 L 102,118 L 101,118 L 100,117 L 99,117 L 98,116 L 97,116 L 96,115 L 95,115 L 94,114 L 93,114 L 92,113 L 91,113 L 90,112 L 89,112 L 88,111 L 87,111 L 86,110 L 85,110 L 84,109 L 82,109 L 81,108 L 80,108 L 78,106 L 77,106 L 76,105 L 75,105 L 74,104 L 73,104 L 71,102 L 70,102 L 69,101 L 67,101 L 65,99 L 63,99 L 62,98 L 61,98 L 59,96 L 58,96 L 57,95 L 56,95 L 55,94 L 54,94 L 53,93 L 52,93 L 50,91 Z" fill="none" stroke="black" stroke-width="1" /><circle cx="22" cy="122" r="39" fill="none" stroke="black" stroke-width="1" /><path d="M 186,68 L 185,69 L 185,74 L 186,75 L 186,78 L 187,79 L 187,89 L 188,89 L 189,90 L 191,90 L 192,91 L 193,91 L 194,92 L 196,92 L 197,93 L 198,93 L 199,94 L 201,94 L 203,96 L 205,96 L 206,97 L 207,97 L 210,100 L 211,100 L 212,101 L 213,101 L 214,102 L 216,102 L 217,103 L 218,103 L 220,105 L 221,105 L 222,106 L 224,106 L 226,108 L 228,108 L 230,110 L 231,110 L 233,112 L 235,112 L 236,113 L 237,113 L 238,114 L 239,114 L 240,115 L 241,115 L 243,117 L 244,117 L 245,118 L 247,118 L 248,119 L 249,119 L 250,120 L 251,120 L 253,122 L 255,122 L 256,123 L 256,104 L 255,103 L 253,103 L 252,102 L 251,102 L 249,100 L 247,100 L 245,98 L 244,98 L 243,97 L 242,97 L 241,96 L 239,96 L 237,94 L 236,94 L 235,93 L 234,93 L 232,91 L 231,91 L 230,90 L 229,90 L 228,89 L 226,89 L 225,88 L 224,88 L 222,86 L 221,86 L 219,84 L 218,84 L 217,83 L 216,83 L 215,82 L 214,82 L 213,81 L 211,81 L 210,80 L 209,80 L 208,79 L 207,79 L 206,78 L 205,78 L 204,77 L 203,77 L 202,76 L 201,76 L 200,75 L 198,75 L 195,72 L 194,72 L 193,71 L 191,71 L 190,70 L 189,70 L 187,68 Z" fill="none" stroke="black" stroke-width="1" /><path d="M 47,67 L 47,85 L 48,86 L 48,87 L 49,88 L 53,88 L 54,89 L 55,89 L 57,91 L 58,91 L 60,93 L 62,93 L 63,94 L 64,94 L 66,96 L 68,96 L 69,97 L 70,97 L 71,98 L 73,98 L 76,101 L 77,101 L 78,102 L 79,102 L 80,103 L 81,103 L 82,104 L 83,104 L 84,105 L 85,105 L 86,106 L 88,106 L 90,108 L 91,108 L 92,109 L 94,109 L 97,112 L 99,112 L 100,113 L 101,113 L 102,114 L 103,114 L 104,115 L 105,115 L 106,116 L 107,116 L 108,117 L 109,117 L 110,118 L 111,118 L 112,119 L 113,119 L 115,121 L 116,121 L 117,122 L 119,122 L 120,123 L 121,123 L 123,125 L 124,125 L 125,126 L 126,126 L 128,128 L 130,128 L 132,130 L 133,130 L 134,131 L 135,131 L 136,132 L 138,132 L 139,133 L 140,133 L 142,135 L 143,135 L 144,136 L 146,136 L 147,137 L 148,137 L 150,139 L 151,139 L 152,140 L 153,140 L 156,143 L 163,143 L 164,142 L 165,142 L 166,141 L 171,141 L 172,140 L 173,140 L 174,139 L 178,139 L 179,138 L 180,138 L 181,137 L 184,137 L 184,136 L 183,135 L 181,135 L 180,134 L 178,134 L 177,133 L 175,133 L 173,131 L 172,131 L 171,130 L 170,130 L 169,129 L 168,129 L 167,128 L 166,128 L 165,127 L 164,127 L 163,126 L 162,126 L 161,125 L 160,125 L 158,123 L 156,123 L 154,121 L 153,121 L 152,120 L 151,120 L 150,119 L 148,119 L 146,117 L 145,117 L 144,116 L 143,116 L 142,115 L 141,115 L 140,114 L 139,114 L 138,113 L 137,113 L 136,112 L 135,112 L 134,111 L 133,111 L 132,110 L 131,110 L 130,109 L 129,109 L 128,108 L 127,108 L 126,107 L 125,107 L 124,106 L 123,106 L 122,105 L 121,105 L 119,103 L 117,103 L 115,101 L 114,101 L 113,100 L 112,100 L 111,99 L 109,99 L 108,98 L 107,98 L 105,96 L 104,96 L 103,95 L 102,95 L 101,94 L 100,94 L 99,93 L 98,93 L 97,92 L 96,92 L 95,91 L 94,91 L 93,90 L 92,90 L 91,89 L 90,89 L 89,88 L 88,88 L 87,87 L 86,87 L 84,85 L 82,85 L 80,83 L 79,83 L 78,82 L 77,82 L 76,81 L 73,81 L 71,79 L 70,79 L 68,77 L 67,77 L 66,76 L 65,76 L 64,75 L 63,75 L 62,74 L 61,74 L 60,73 L 58,73 L 56,71 L 54,71 L 52,69 L 51,69 L 49,67 Z" fill="none" stroke="black" stroke-width="1" /><path d="M 0,66 L 0,85 L 1,85 L 3,87 L 4,87 L 5,88 L 7,88 L 9,90 L 10,90 L 11,91 L 12,91 L 13,92 L 14,92 L 15,93 L 16,93 L 17,94 L 18,94 L 19,95 L 20,95 L 21,96 L 22,96 L 23,97 L 24,97 L 26,99 L 28,99 L 29,100 L 30,100 L 32,102 L 33,102 L 34,103 L 36,103 L 37,104 L 38,104 L 41,107 L 44,107 L 44,98 L 43,97 L 43,90 L 42,89 L 42,88 L 41,88 L 39,86 L 37,86 L 35,84 L 34,84 L 33,83 L 32,83 L 31,82 L 30,82 L 29,81 L 28,81 L 27,80 L 26,80 L 25,79 L 24,79 L 23,78 L 22,78 L 21,77 L 20,77 L 19,76 L 18,76 L 17,75 L 15,75 L 13,73 L 12,73 L 11,72 L 10,72 L 9,71 L 8,71 L 7,70 L 6,70 L 5,69 L 4,69 L 3,68 L 2,68 Z" fill="none" stroke="black" stroke-width="1" /><path d="M 167,54 L 168,55 L 170,55 L 171,56 L 172,56 L 173,57 L 175,57 L 178,60 L 180,60 L 180,54 Z" fill="none" stroke="black" stroke-width="1" /><path d="M 120,52 L 120,54 L 121,55 L 124,55 L 125,56 L 126,56 L 127,57 L 128,57 L 131,60 L 132,60 L 133,61 L 136,61 L 137,62 L 138,62 L 140,64 L 141,64 L 142,65 L 143,65 L 144,66 L 145,66 L 147,68 L 148,68 L 149,69 L 150,69 L 151,70 L 153,70 L 154,71 L 155,71 L 156,72 L 157,72 L 159,74 L 160,74 L 161,75 L 163,75 L 165,77 L 167,77 L 168,78 L 169,78 L 171,80 L 172,80 L 174,82 L 176,82 L 177,83 L 178,83 L 179,84 L 180,84 L 181,83 L 182,83 L 182,82 L 181,81 L 181,67 L 180,66 L 180,64 L 179,64 L 178,63 L 176,63 L 175,62 L 174,62 L 173,61 L 172,61 L 171,60 L 170,60 L 168,58 L 166,58 L 164,56 L 163,56 L 162,55 L 161,55 L 160,54 L 157,54 L 156,53 L 154,53 L 153,54 L 150,54 L 149,53 L 124,53 L 123,52 Z" fill="none" stroke="black" stroke-width="1" /><path d="M 71,52 L 72,53 L 74,53 L 75,54 L 77,54 L 78,55 L 79,55 L 81,57 L 82,57 L 83,58 L 85,58 L 86,59 L 87,59 L 89,61 L 90,61 L 91,62 L 93,62 L 94,63 L 95,63 L 97,65 L 98,65 L 99,66 L 101,66 L 103,68 L 104,68 L 105,69 L 106,69 L 107,70 L 108,70 L 109,71 L 110,71 L 111,72 L 112,72 L 113,73 L 114,73 L 115,74 L 117,74 L 119,76 L 120,76 L 121,77 L 122,77 L 123,78 L 124,78 L 125,79 L 126,79 L 127,80 L 129,80 L 131,82 L 133,82 L 135,84 L 136,84 L 137,85 L 138,85 L 139,86 L 140,86 L 141,87 L 142,87 L 143,88 L 144,88 L 145,89 L 146,89 L 147,90 L 148,90 L 149,91 L 150,91 L 152,93 L 154,93 L 155,94 L 156,94 L 158,96 L 159,96 L 160,97 L 162,97 L 164,99 L 165,99 L 166,100 L 167,100 L 168,101 L 169,101 L 170,102 L 171,102 L 172,103 L 173,103 L 174,104 L 175,104 L 177,106 L 178,106 L 179,107 L 182,107 L 182,89 L 181,89 L 180,88 L 178,88 L 177,87 L 176,87 L 175,86 L 173,86 L 171,84 L 169,84 L 168,83 L 167,83 L 165,81 L 164,81 L 163,80 L 161,80 L 159,78 L 157,78 L 156,77 L 155,77 L 153,75 L 152,75 L 151,74 L 149,74 L 147,72 L 145,72 L 143,70 L 142,70 L 141,69 L 140,69 L 139,68 L 138,68 L 137,67 L 136,67 L 135,66 L 134,66 L 133,65 L 132,65 L 131,64 L 130,64 L 129,63 L 128,63 L 126,61 L 125,61 L 124,60 L 122,60 L 121,59 L 120,59 L 118,57 L 117,57 L 116,56 L 115,56 L 114,55 L 113,55 L 112,54 L 109,54 L 108,53 L 108,52 Z" fill="none" stroke="black" stroke-width="1" /><path d="M 47,52 L 47,63 L 49,63 L 50,64 L 51,64 L 52,65 L 53,65 L 55,67 L 56,67 L 57,68 L 60,68 L 62,70 L 63,70 L 64,71 L 65,71 L 66,72 L 67,72 L 68,73 L 69,73 L 70,74 L 71,74 L 73,76 L 75,76 L 76,77 L 77,77 L 78,78 L 79,78 L 80,79 L 81,79 L 82,80 L 83,80 L 85,82 L 86,82 L 87,83 L 88,83 L 89,84 L 90,84 L 91,85 L 92,85 L 93,86 L 94,86 L 95,87 L 96,87 L 97,88 L 99,88 L 102,91 L 103,91 L 104,92 L 106,92 L 107,93 L 108,93 L 110,95 L 111,95 L 112,96 L 114,96 L 115,97 L 116,97 L 117,98 L 118,98 L 119,99 L 120,99 L 121,100 L 122,100 L 124,102 L 126,102 L 127,103 L 128,103 L 130,105 L 131,105 L 132,106 L 133,106 L 134,107 L 135,107 L 136,108 L 137,108 L 138,109 L 139,109 L 140,110 L 141,110 L 142,111 L 143,111 L 144,112 L 145,112 L 146,113 L 148,113 L 151,116 L 154,116 L 156,118 L 157,118 L 159,120 L 160,120 L 161,121 L 162,121 L 163,122 L 165,122 L 167,124 L 169,124 L 170,125 L 171,125 L 173,127 L 174,127 L 175,128 L 176,128 L 177,129 L 178,129 L 180,131 L 181,131 L 182,132 L 184,130 L 184,127 L 183,126 L 183,116 L 182,115 L 182,112 L 181,112 L 179,110 L 178,110 L 177,109 L 174,109 L 172,107 L 170,107 L 169,106 L 168,106 L 166,104 L 165,104 L 163,102 L 161,102 L 160,101 L 159,101 L 158,100 L 157,100 L 156,99 L 155,99 L 154,98 L 153,98 L 152,97 L 151,97 L 150,96 L 149,96 L 148,95 L 147,95 L 146,94 L 145,94 L 144,93 L 143,93 L 142,92 L 141,92 L 140,91 L 139,91 L 137,89 L 136,89 L 135,88 L 134,88 L 133,87 L 132,87 L 131,86 L 130,86 L 129,85 L 127,85 L 125,83 L 123,83 L 121,81 L 119,81 L 117,79 L 116,79 L 115,78 L 114,78 L 113,77 L 112,77 L 111,76 L 110,76 L 109,75 L 108,75 L 107,74 L 106,74 L 105,73 L 104,73 L 103,72 L 102,72 L 101,71 L 100,71 L 99,70 L 98,70 L 97,69 L 96,69 L 95,68 L 94,68 L 93,67 L 92,67 L 91,66 L 90,66 L 89,65 L 88,65 L 87,64 L 86,64 L 85,63 L 84,63 L 83,62 L 82,62 L 81,61 L 80,61 L 79,60 L 78,60 L 76,58 L 74,58 L 72,56 L 71,56 L 69,54 L 67,54 L 65,52 Z" fill="none" stroke="black" stroke-width="1" /><path d="M 0,43 L 0,62 L 1,62 L 2,63 L 3,63 L 4,64 L 5,64 L 6,65 L 7,65 L 9,67 L 11,67 L 12,68 L 13,68 L 15,70 L 16,70 L 18,72 L 21,72 L 22,73 L 23,73 L 25,75 L 27,75 L 28,76 L 29,76 L 30,77 L 31,77 L 33,79 L 34,79 L 35,80 L 36,80 L 37,81 L 38,81 L 40,83 L 42,83 L 43,82 L 43,81 L 42,80 L 42,64 L 41,64 L 40,63 L 38,63 L 36,61 L 35,61 L 34,60 L 33,60 L 32,59 L 31,59 L 30,58 L 29,58 L 28,57 L 27,57 L 25,55 L 22,55 L 19,52 L 18,52 L 17,51 L 15,51 L 13,49 L 11,49 L 10,48 L 9,48 L 8,47 L 7,47 L 6,46 L 5,46 L 4,45 L 3,45 L 2,44 L 1,44 Z" fill="none" stroke="black" stroke-width="1" /><path d="M 0,20 L 0,38 L 1,39 L 2,39 L 4,41 L 5,41 L 6,42 L 7,42 L 8,43 L 9,43 L 10,44 L 11,44 L 12,45 L 13,45 L 14,46 L 16,46 L 18,48 L 19,48 L 20,49 L 21,49 L 22,50 L 23,50 L 24,51 L 25,51 L 26,52 L 28,52 L 30,54 L 31,54 L 32,55 L 33,55 L 34,56 L 35,56 L 36,57 L 37,57 L 38,58 L 39,58 L 41,60 L 42,59 L 42,52 L 41,51 L 41,48 L 43,46 L 46,46 L 47,47 L 53,47 L 53,46 L 51,46 L 50,45 L 49,45 L 48,44 L 47,44 L 46,43 L 45,43 L 44,42 L 43,42 L 42,41 L 41,41 L 40,40 L 39,40 L 37,38 L 36,38 L 35,37 L 33,37 L 32,36 L 31,36 L 30,35 L 29,35 L 27,33 L 26,33 L 25,32 L 23,32 L 22,31 L 21,31 L 19,29 L 18,29 L 17,28 L 16,28 L 15,27 L 14,27 L 13,26 L 12,26 L 11,25 L 10,25 L 9,24 L 8,24 L 7,23 L 6,23 L 5,22 L 4,22 L 3,21 L 2,21 L 1,20 Z" fill="none" stroke="black" stroke-width="1" /><path d="M 243,0 L 245,0 L 246,1 L 247,1 L 248,2 L 249,2 L 250,3 L 251,3 L 253,5 L 254,5 L 255,6 L 256,6 L 256,0 Z" fill="none" stroke="black" stroke-width="1" /><path d="M 199,0 L 200,0 L 201,1 L 202,1 L 203,2 L 204,2 L 205,3 L 206,3 L 207,4 L 208,4 L 210,6 L 212,6 L 214,8 L 216,8 L 218,10 L 219,10 L 220,11 L 221,11 L 222,12 L 223,12 L 225,14 L 227,14 L 228,15 L 229,15 L 231,17 L 232,17 L 233,18 L 234,18 L 235,19 L 236,19 L 237,20 L 238,20 L 239,21 L 240,21 L 242,23 L 243,23 L 244,24 L 246,24 L 247,25 L 248,25 L 250,27 L 251,27 L 252,28 L 254,28 L 255,29 L 256,29 L 256,11 L 255,10 L 254,10 L 253,9 L 252,9 L 251,8 L 250,8 L 249,7 L 248,7 L 246,5 L 245,5 L 244,4 L 243,4 L 242,3 L 240,3 L 237,0 Z" fill="none" stroke="black" stroke-width="1" /><path d="M 108,0 L 109,0 L 110,1 L 111,1 L 112,2 L 113,2 L 114,3 L 115,3 L 116,4 L 117,4 L 119,6 L 121,6 L 122,7 L 123,7 L 125,9 L 126,9 L 127,10 L 128,10 L 129,11 L 130,11 L 132,13 L 133,13 L 134,14 L 136,14 L 137,15 L 138,15 L 140,17 L 141,17 L 142,18 L 144,18 L 145,19 L 146,19 L 148,21 L 149,21 L 150,22 L 151,22 L 152,23 L 153,23 L 154,24 L 155,24 L 156,25 L 157,25 L 158,26 L 159,26 L 160,27 L 161,27 L 162,28 L 163,28 L 164,29 L 165,29 L 166,30 L 167,30 L 168,31 L 169,31 L 171,33 L 172,33 L 173,34 L 174,34 L 175,35 L 176,35 L 177,36 L 178,36 L 179,37 L 180,37 L 181,38 L 182,38 L 183,39 L 184,39 L 185,40 L 187,40 L 190,43 L 192,43 L 194,45 L 195,45 L 196,46 L 198,46 L 199,47 L 200,47 L 202,49 L 203,49 L 204,50 L 205,50 L 206,51 L 207,51 L 208,52 L 209,52 L 210,53 L 211,53 L 212,54 L 213,54 L 214,55 L 215,55 L 216,56 L 217,56 L 218,57 L 219,57 L 220,58 L 221,58 L 222,59 L 223,59 L 224,60 L 225,60 L 226,61 L 227,61 L 228,62 L 229,62 L 230,63 L 231,63 L 232,64 L 233,64 L 234,65 L 235,65 L 236,66 L 237,66 L 238,67 L 239,67 L 240,68 L 241,68 L 242,69 L 243,69 L 244,70 L 245,70 L 246,71 L 247,71 L 248,72 L 249,72 L 250,73 L 251,73 L 252,74 L 253,74 L 254,75 L 255,75 L 256,76 L 256,57 L 253,57 L 251,55 L 250,55 L 249,54 L 247,54 L 244,51 L 242,51 L 240,49 L 239,49 L 238,48 L 237,48 L 236,47 L 234,47 L 232,45 L 230,45 L 228,43 L 227,43 L 226,42 L 225,42 L 224,41 L 223,41 L 222,40 L 221,40 L 220,39 L 219,39 L 218,38 L 217,38 L 216,37 L 215,37 L 214,36 L 213,36 L 212,35 L 211,35 L 210,34 L 209,34 L 208,33 L 207,33 L 206,32 L 205,32 L 204,31 L 203,31 L 201,29 L 199,29 L 197,27 L 196,27 L 195,26 L 194,26 L 193,25 L 191,25 L 189,23 L 188,23 L 187,22 L 186,22 L 185,21 L 184,21 L 183,20 L 182,20 L 181,19 L 180,19 L 179,18 L 178,18 L 176,16 L 175,16 L 174,15 L 172,15 L 170,13 L 169,13 L 168,12 L 167,12 L 166,11 L 165,11 L 162,8 L 160,8 L 159,7 L 159,5 L 160,4 L 162,4 L 164,6 L 166,6 L 168,8 L 170,8 L 172,10 L 173,10 L 174,11 L 175,11 L 177,13 L 179,13 L 180,14 L 181,14 L 183,16 L 184,16 L 185,17 L 186,17 L 187,18 L 188,18 L 189,19 L 190,19 L 191,20 L 192,20 L 194,22 L 197,22 L 199,24 L 200,24 L 201,25 L 202,25 L 203,26 L 204,26 L 205,27 L 206,27 L 207,28 L 208,28 L 210,30 L 211,30 L 212,31 L 214,31 L 215,32 L 216,32 L 218,34 L 219,34 L 220,35 L 221,35 L 222,36 L 223,36 L 224,37 L 225,37 L 226,38 L 227,38 L 228,39 L 229,39 L 230,40 L 231,40 L 232,41 L 233,41 L 234,42 L 235,42 L 237,44 L 240,44 L 242,46 L 243,46 L 245,48 L 247,48 L 249,50 L 251,50 L 253,52 L 255,52 L 256,53 L 256,34 L 255,34 L 254,33 L 253,33 L 252,32 L 251,32 L 249,30 L 248,30 L 247,29 L 246,29 L 245,28 L 244,28 L 243,27 L 242,27 L 241,26 L 240,26 L 239,25 L 238,25 L 237,24 L 236,24 L 235,23 L 234,23 L 233,22 L 232,22 L 231,21 L 230,21 L 229,20 L 228,20 L 227,19 L 226,19 L 224,17 L 223,17 L 222,16 L 221,16 L 220,15 L 219,15 L 218,14 L 217,14 L 216,13 L 215,13 L 214,12 L 213,12 L 212,11 L 211,11 L 209,9 L 207,9 L 205,7 L 203,7 L 201,5 L 199,5 L 197,3 L 196,3 L 195,2 L 194,2 L 193,1 L 192,1 L 191,0 L 152,0 L 155,0 L 158,3 L 156,5 L 153,5 L 151,3 L 149,3 L 147,1 L 146,1 L 145,0 Z" fill="none" stroke="black" stroke-width="1" /><path d="M 64,0 L 65,0 L 66,1 L 67,1 L 68,2 L 69,2 L 71,4 L 72,4 L 73,5 L 75,5 L 77,7 L 78,7 L 80,9 L 82,9 L 84,11 L 86,11 L 88,13 L 89,13 L 90,14 L 91,14 L 92,15 L 93,15 L 94,16 L 95,16 L 96,17 L 97,17 L 98,18 L 99,18 L 101,20 L 102,20 L 103,21 L 104,21 L 105,22 L 108,22 L 110,24 L 111,24 L 113,26 L 114,26 L 116,28 L 119,28 L 121,30 L 122,30 L 123,31 L 124,31 L 125,32 L 126,32 L 128,34 L 130,34 L 131,35 L 132,35 L 134,37 L 135,37 L 136,38 L 139,38 L 140,39 L 141,39 L 142,40 L 143,40 L 144,41 L 144,42 L 145,42 L 146,43 L 148,43 L 151,46 L 152,46 L 153,47 L 155,47 L 157,49 L 182,49 L 185,52 L 185,64 L 186,64 L 187,65 L 190,65 L 192,67 L 193,67 L 194,68 L 195,68 L 196,69 L 197,69 L 198,70 L 199,70 L 200,71 L 201,71 L 202,72 L 204,72 L 205,73 L 206,73 L 207,74 L 208,74 L 209,75 L 210,75 L 212,77 L 213,77 L 214,78 L 215,78 L 216,79 L 218,79 L 220,81 L 221,81 L 222,82 L 223,82 L 224,83 L 225,83 L 226,84 L 227,84 L 228,85 L 229,85 L 231,87 L 232,87 L 233,88 L 235,88 L 236,89 L 237,89 L 239,91 L 240,91 L 241,92 L 242,92 L 243,93 L 245,93 L 247,95 L 248,95 L 250,97 L 252,97 L 253,98 L 254,98 L 255,99 L 256,99 L 256,81 L 255,80 L 254,80 L 252,78 L 250,78 L 248,76 L 247,76 L 246,75 L 244,75 L 243,74 L 242,74 L 240,72 L 237,72 L 235,70 L 234,70 L 232,68 L 230,68 L 228,66 L 226,66 L 224,64 L 222,64 L 220,62 L 219,62 L 218,61 L 217,61 L 216,60 L 215,60 L 214,59 L 213,59 L 212,58 L 211,58 L 210,57 L 209,57 L 208,56 L 207,56 L 206,55 L 205,55 L 204,54 L 203,54 L 201,52 L 200,52 L 199,51 L 198,51 L 197,50 L 196,50 L 195,49 L 192,49 L 191,48 L 190,48 L 188,46 L 187,46 L 185,44 L 184,44 L 183,43 L 182,43 L 181,42 L 180,42 L 179,41 L 178,41 L 177,40 L 176,40 L 175,39 L 174,39 L 173,38 L 172,38 L 170,36 L 169,36 L 168,35 L 166,35 L 165,34 L 164,34 L 162,32 L 161,32 L 160,31 L 159,31 L 158,30 L 157,30 L 156,29 L 155,29 L 154,28 L 153,28 L 152,27 L 151,27 L 150,26 L 149,26 L 147,24 L 146,24 L 145,23 L 143,23 L 142,22 L 141,22 L 139,20 L 138,20 L 137,19 L 135,19 L 133,17 L 132,17 L 131,16 L 130,16 L 129,15 L 128,15 L 127,14 L 126,14 L 125,13 L 124,13 L 123,12 L 122,12 L 121,11 L 120,11 L 119,10 L 118,10 L 117,9 L 116,9 L 115,8 L 114,8 L 113,7 L 112,7 L 111,6 L 110,6 L 109,5 L 108,5 L 106,3 L 105,3 L 104,2 L 103,2 L 102,1 L 101,1 L 100,0 Z" fill="none" stroke="black" stroke-width="1" /><path d="M 15,0 L 16,1 L 19,1 L 20,2 L 21,2 L 22,3 L 23,3 L 24,4 L 25,4 L 28,7 L 31,7 L 32,8 L 32,9 L 33,9 L 34,10 L 36,10 L 38,12 L 39,12 L 40,13 L 42,13 L 44,15 L 45,15 L 46,16 L 47,16 L 48,17 L 49,17 L 50,18 L 51,18 L 52,19 L 53,19 L 54,20 L 55,20 L 57,22 L 58,22 L 59,23 L 61,23 L 62,24 L 63,24 L 65,26 L 66,26 L 67,27 L 69,27 L 70,28 L 71,28 L 73,30 L 74,30 L 75,31 L 77,31 L 78,32 L 79,32 L 80,33 L 81,33 L 82,34 L 83,34 L 84,35 L 85,35 L 86,36 L 87,36 L 88,37 L 89,37 L 90,38 L 91,38 L 93,40 L 95,40 L 98,43 L 101,43 L 103,45 L 105,45 L 107,47 L 109,47 L 110,48 L 111,47 L 116,47 L 117,48 L 119,48 L 120,47 L 122,47 L 123,48 L 124,48 L 125,47 L 128,47 L 129,48 L 134,48 L 135,49 L 136,49 L 137,48 L 138,48 L 139,49 L 145,49 L 146,48 L 146,47 L 145,46 L 143,46 L 141,44 L 140,44 L 139,43 L 138,43 L 137,42 L 135,42 L 134,41 L 133,41 L 132,40 L 131,40 L 130,39 L 129,39 L 128,38 L 127,38 L 125,36 L 124,36 L 123,35 L 121,35 L 119,33 L 118,33 L 117,32 L 116,32 L 115,31 L 113,31 L 111,29 L 110,29 L 108,27 L 105,27 L 103,25 L 102,25 L 101,24 L 100,24 L 98,22 L 97,22 L 96,21 L 95,21 L 94,20 L 93,20 L 92,19 L 90,19 L 89,18 L 88,18 L 86,16 L 84,16 L 82,14 L 80,14 L 77,11 L 76,11 L 75,10 L 74,10 L 73,9 L 72,9 L 71,8 L 69,8 L 67,6 L 66,6 L 65,5 L 64,5 L 63,4 L 62,4 L 61,3 L 60,3 L 59,2 L 58,2 L 57,1 L 56,1 L 55,0 Z" fill="none" stroke="black" stroke-width="1" /><path d="M 0,0 L 0,15 L 1,16 L 2,16 L 3,17 L 4,17 L 5,18 L 6,18 L 7,19 L 8,19 L 10,21 L 11,21 L 12,22 L 14,22 L 15,23 L 16,23 L 17,24 L 18,24 L 19,25 L 20,25 L 22,27 L 23,27 L 24,28 L 26,28 L 27,29 L 28,29 L 29,30 L 30,30 L 31,31 L 32,31 L 34,33 L 35,33 L 36,34 L 38,34 L 39,35 L 40,35 L 42,37 L 43,37 L 44,38 L 45,38 L 46,39 L 47,39 L 48,40 L 49,40 L 50,41 L 51,41 L 53,43 L 54,43 L 56,45 L 60,45 L 62,47 L 95,47 L 96,48 L 97,48 L 98,47 L 97,46 L 96,46 L 95,45 L 93,45 L 92,44 L 91,44 L 89,42 L 87,42 L 86,41 L 85,41 L 84,40 L 83,40 L 82,39 L 81,39 L 80,38 L 79,38 L 78,37 L 77,37 L 76,36 L 75,36 L 74,35 L 73,35 L 72,34 L 71,34 L 70,33 L 69,33 L 67,31 L 66,31 L 65,30 L 64,30 L 63,29 L 62,29 L 61,28 L 60,28 L 59,27 L 58,27 L 57,26 L 56,26 L 55,25 L 54,25 L 53,24 L 52,24 L 51,23 L 50,23 L 49,22 L 48,22 L 47,21 L 46,21 L 45,20 L 44,20 L 43,19 L 42,19 L 41,18 L 40,18 L 39,17 L 38,17 L 36,15 L 35,15 L 34,14 L 32,14 L 30,12 L 29,12 L 28,11 L 27,11 L 25,9 L 24,9 L 23,8 L 22,8 L 21,7 L 20,7 L 19,6 L 17,6 L 15,4 L 13,4 L 11,2 L 9,2 L 7,0 Z" fill="none" stroke="black" stroke-width="1" /></svg>