<?xml version='1.0' encoding='utf-8'?>
<svg width="261" height="218" xmlns="http://www.w3.org/2000/svg" viewBox="0 0 261 218"><rect width="261" height="218" fill="white" /><path d="M 0,150 L 0,156 L 3,159 L 3,160 L 4,161 L 6,161 L 8,163 L 10,163 L 11,164 L 12,164 L 13,165 L 20,165 L 22,167 L 38,167 L 39,168 L 40,168 L 41,169 L 42,169 L 43,170 L 45,170 L 46,171 L 47,171 L 52,176 L 52,177 L 55,180 L 55,181 L 56,182 L 56,184 L 57,185 L 57,186 L 58,187 L 58,196 L 59,197 L 59,204 L 60,205 L 60,206 L 61,207 L 61,210 L 62,211 L 62,213 L 66,217 L 70,217 L 69,217 L 68,216 L 68,215 L 65,212 L 65,211 L 64,210 L 64,209 L 63,208 L 63,206 L 62,205 L 62,204 L 61,203 L 61,188 L 60,187 L 60,185 L 59,184 L 59,182 L 58,181 L 58,180 L 57,179 L 57,178 L 55,176 L 55,175 L 53,173 L 53,172 L 50,169 L 49,169 L 48,168 L 46,168 L 45,167 L 43,167 L 42,166 L 41,166 L 40,165 L 34,165 L 33,164 L 23,164 L 22,163 L 15,163 L 14,162 L 12,162 L 10,160 L 8,160 L 7,159 L 6,159 L 5,158 L 5,157 L 1,153 L 1,152 L 0,151 Z" fill="black" /><path d="M 187,0 L 189,2 L 190,2 L 193,5 L 194,5 L 196,7 L 197,7 L 198,8 L 199,8 L 200,9 L 205,9 L 207,11 L 213,11 L 214,12 L 226,12 L 227,13 L 229,13 L 230,14 L 231,14 L 233,16 L 234,16 L 238,20 L 239,20 L 242,23 L 242,25 L 244,27 L 244,29 L 243,30 L 243,32 L 244,33 L 244,36 L 243,37 L 243,38 L 244,39 L 244,40 L 245,41 L 245,45 L 246,46 L 246,47 L 245,48 L 245,49 L 246,50 L 246,51 L 247,52 L 247,54 L 248,55 L 248,57 L 252,61 L 252,62 L 256,66 L 257,66 L 260,69 L 260,66 L 255,61 L 255,60 L 251,56 L 251,55 L 249,53 L 249,51 L 248,50 L 248,48 L 247,47 L 247,39 L 246,38 L 246,35 L 245,34 L 246,33 L 246,26 L 245,25 L 245,22 L 238,15 L 237,15 L 236,14 L 235,14 L 234,13 L 233,13 L 232,12 L 231,12 L 230,11 L 229,11 L 228,10 L 223,10 L 222,9 L 211,9 L 210,8 L 208,8 L 207,7 L 204,7 L 203,6 L 201,6 L 199,4 L 198,4 L 197,3 L 196,3 L 195,2 L 194,2 L 193,1 L 192,1 L 191,0 Z" fill="black" /><path d="M 18,0 L 18,1 L 19,2 L 19,3 L 20,4 L 20,5 L 19,6 L 19,7 L 20,8 L 20,16 L 21,17 L 21,21 L 22,22 L 22,25 L 25,28 L 25,29 L 29,33 L 30,33 L 33,36 L 34,36 L 35,37 L 38,37 L 39,38 L 40,38 L 41,39 L 46,39 L 47,40 L 48,40 L 49,39 L 50,40 L 63,40 L 64,41 L 68,41 L 69,42 L 70,42 L 71,43 L 72,43 L 76,47 L 76,48 L 77,49 L 77,50 L 81,54 L 81,56 L 82,57 L 82,62 L 83,63 L 83,68 L 84,69 L 84,74 L 85,75 L 85,79 L 86,80 L 86,85 L 84,87 L 84,88 L 82,90 L 82,92 L 80,94 L 80,95 L 79,96 L 79,97 L 78,98 L 78,99 L 76,101 L 76,103 L 75,104 L 75,105 L 74,106 L 74,107 L 72,109 L 72,111 L 69,114 L 69,115 L 68,116 L 68,119 L 70,121 L 70,122 L 73,125 L 73,126 L 74,127 L 74,128 L 75,128 L 79,132 L 79,134 L 77,136 L 73,136 L 72,135 L 71,135 L 70,134 L 69,134 L 66,131 L 64,131 L 59,126 L 59,125 L 57,123 L 57,122 L 56,121 L 56,120 L 55,119 L 55,111 L 54,110 L 54,101 L 53,100 L 53,95 L 52,94 L 52,93 L 51,92 L 51,91 L 50,90 L 50,89 L 49,88 L 49,87 L 48,86 L 48,85 L 44,81 L 43,81 L 42,80 L 41,80 L 39,78 L 37,78 L 36,77 L 34,77 L 33,76 L 30,76 L 29,75 L 12,75 L 11,74 L 9,74 L 8,73 L 7,73 L 6,72 L 3,72 L 2,71 L 0,71 L 0,74 L 1,75 L 6,75 L 7,76 L 12,76 L 13,77 L 20,77 L 21,78 L 31,78 L 32,79 L 35,79 L 36,80 L 37,80 L 39,82 L 40,82 L 41,83 L 42,83 L 45,86 L 45,87 L 47,89 L 47,90 L 48,91 L 48,92 L 50,94 L 50,96 L 51,97 L 51,105 L 52,106 L 52,109 L 51,110 L 51,113 L 52,114 L 52,115 L 53,116 L 53,118 L 54,119 L 54,124 L 57,127 L 57,128 L 58,129 L 59,129 L 61,131 L 61,132 L 62,133 L 64,133 L 66,135 L 67,135 L 68,136 L 69,136 L 70,137 L 72,137 L 73,138 L 74,138 L 75,139 L 79,139 L 80,138 L 81,138 L 82,139 L 85,139 L 88,142 L 88,143 L 93,148 L 93,149 L 96,152 L 96,153 L 98,155 L 99,155 L 100,156 L 100,157 L 106,163 L 106,164 L 110,168 L 110,169 L 111,169 L 112,170 L 112,171 L 114,173 L 114,175 L 115,176 L 115,179 L 116,180 L 116,181 L 117,182 L 117,184 L 119,186 L 119,187 L 120,188 L 120,189 L 127,196 L 128,196 L 129,197 L 132,197 L 133,198 L 137,198 L 139,200 L 140,199 L 143,199 L 144,198 L 153,198 L 154,199 L 162,199 L 164,201 L 166,201 L 168,203 L 169,203 L 173,207 L 173,208 L 175,210 L 175,211 L 176,212 L 176,214 L 177,215 L 177,216 L 178,217 L 179,217 L 179,211 L 178,210 L 178,209 L 176,207 L 176,206 L 172,202 L 171,202 L 169,200 L 168,200 L 166,198 L 165,198 L 164,197 L 163,197 L 162,198 L 161,198 L 160,197 L 157,197 L 156,196 L 144,196 L 143,195 L 143,193 L 145,191 L 145,190 L 147,188 L 147,186 L 149,184 L 149,182 L 151,180 L 151,179 L 153,177 L 153,176 L 154,175 L 154,174 L 157,171 L 157,168 L 158,167 L 159,167 L 159,165 L 161,163 L 161,162 L 162,161 L 162,160 L 163,159 L 163,158 L 165,156 L 166,156 L 167,157 L 168,157 L 169,158 L 174,158 L 175,159 L 178,159 L 179,160 L 187,160 L 188,161 L 194,161 L 195,162 L 196,162 L 197,163 L 199,163 L 201,165 L 202,165 L 203,166 L 204,166 L 205,167 L 205,168 L 208,171 L 208,174 L 209,175 L 209,176 L 210,177 L 210,181 L 211,182 L 211,183 L 212,184 L 212,194 L 213,195 L 213,198 L 214,199 L 214,201 L 216,203 L 216,204 L 223,211 L 226,211 L 228,213 L 229,213 L 230,214 L 231,214 L 232,215 L 233,215 L 234,216 L 237,216 L 238,217 L 248,217 L 244,217 L 243,216 L 242,216 L 241,215 L 238,215 L 236,213 L 233,213 L 232,212 L 231,212 L 229,210 L 227,210 L 224,207 L 223,207 L 222,206 L 221,206 L 220,205 L 220,204 L 218,202 L 218,201 L 217,200 L 217,199 L 216,198 L 216,197 L 215,196 L 215,190 L 214,189 L 214,185 L 213,184 L 213,176 L 211,174 L 211,171 L 210,170 L 210,169 L 201,160 L 197,160 L 196,159 L 195,159 L 194,158 L 181,158 L 180,157 L 178,157 L 177,156 L 170,156 L 167,153 L 167,150 L 170,147 L 170,146 L 171,145 L 171,144 L 172,143 L 172,142 L 173,141 L 173,140 L 174,139 L 174,138 L 175,137 L 175,136 L 176,135 L 176,134 L 177,133 L 177,132 L 178,131 L 178,130 L 181,127 L 181,126 L 182,125 L 182,124 L 183,123 L 183,122 L 184,121 L 184,120 L 185,119 L 185,118 L 186,117 L 186,116 L 187,115 L 187,114 L 189,112 L 189,109 L 188,108 L 188,107 L 185,104 L 185,103 L 182,100 L 182,99 L 175,92 L 175,91 L 172,88 L 172,87 L 167,82 L 167,81 L 162,76 L 162,75 L 157,70 L 157,69 L 154,66 L 154,65 L 148,59 L 148,58 L 144,54 L 144,53 L 138,47 L 138,46 L 135,43 L 135,41 L 136,40 L 137,40 L 139,42 L 140,42 L 142,44 L 143,44 L 144,45 L 150,45 L 151,46 L 155,46 L 156,47 L 170,47 L 171,48 L 172,48 L 173,49 L 176,49 L 179,52 L 180,52 L 184,56 L 184,57 L 185,58 L 185,59 L 186,60 L 186,62 L 188,64 L 188,81 L 189,82 L 189,83 L 190,84 L 190,85 L 192,87 L 192,89 L 193,90 L 193,91 L 197,95 L 197,96 L 204,103 L 206,103 L 207,104 L 209,104 L 210,105 L 212,105 L 213,106 L 216,106 L 217,107 L 223,107 L 224,108 L 227,108 L 228,109 L 232,109 L 234,111 L 236,111 L 238,113 L 239,113 L 241,115 L 242,115 L 244,117 L 244,118 L 248,122 L 248,123 L 249,124 L 249,125 L 250,126 L 250,131 L 251,132 L 251,133 L 252,134 L 252,135 L 251,136 L 251,143 L 252,144 L 252,146 L 253,147 L 253,149 L 254,150 L 254,152 L 256,154 L 256,155 L 257,155 L 260,158 L 260,155 L 258,153 L 258,152 L 257,151 L 257,150 L 256,149 L 256,148 L 255,147 L 255,145 L 254,144 L 254,134 L 253,133 L 253,129 L 252,128 L 252,127 L 251,126 L 251,122 L 250,121 L 250,120 L 249,119 L 249,118 L 248,117 L 248,116 L 246,114 L 244,114 L 242,112 L 243,111 L 243,110 L 241,108 L 238,108 L 237,107 L 234,107 L 233,106 L 226,106 L 225,105 L 220,105 L 219,104 L 216,104 L 215,103 L 212,103 L 211,102 L 210,102 L 209,101 L 208,101 L 207,100 L 206,100 L 203,97 L 202,97 L 199,94 L 199,93 L 195,89 L 195,88 L 194,87 L 194,85 L 193,84 L 193,83 L 192,82 L 192,81 L 191,80 L 191,73 L 190,72 L 190,63 L 189,62 L 189,61 L 188,60 L 188,59 L 187,58 L 187,55 L 181,49 L 180,49 L 179,48 L 178,48 L 177,47 L 176,47 L 175,46 L 172,46 L 171,45 L 160,45 L 159,44 L 153,44 L 151,42 L 146,42 L 144,40 L 142,40 L 141,39 L 140,39 L 139,38 L 138,38 L 135,35 L 135,34 L 134,33 L 134,32 L 131,29 L 131,28 L 130,27 L 130,25 L 129,24 L 129,22 L 127,20 L 127,3 L 126,2 L 126,1 L 125,0 L 122,0 L 123,1 L 123,2 L 124,3 L 124,4 L 125,5 L 125,11 L 124,12 L 124,17 L 125,18 L 125,19 L 126,20 L 126,24 L 128,26 L 128,30 L 131,33 L 131,35 L 130,36 L 129,36 L 127,34 L 127,33 L 124,30 L 124,29 L 121,26 L 120,26 L 119,25 L 118,26 L 118,28 L 116,30 L 116,31 L 115,32 L 115,33 L 114,34 L 114,35 L 112,37 L 112,39 L 111,40 L 110,40 L 108,42 L 108,45 L 107,46 L 107,47 L 106,48 L 106,49 L 105,50 L 105,51 L 104,52 L 104,53 L 102,55 L 102,56 L 100,58 L 100,59 L 99,60 L 99,61 L 98,62 L 98,64 L 96,66 L 96,67 L 94,69 L 94,70 L 92,72 L 92,74 L 91,75 L 91,76 L 90,77 L 88,77 L 87,76 L 87,74 L 88,73 L 87,72 L 87,69 L 86,68 L 86,67 L 85,66 L 85,59 L 84,58 L 84,57 L 83,56 L 83,53 L 82,52 L 82,51 L 80,49 L 80,48 L 79,47 L 79,45 L 77,43 L 76,43 L 73,40 L 70,40 L 69,39 L 67,39 L 66,38 L 52,38 L 51,37 L 49,37 L 48,38 L 47,37 L 44,37 L 43,36 L 39,36 L 38,35 L 37,35 L 36,34 L 35,34 L 32,31 L 31,31 L 26,26 L 26,25 L 25,24 L 25,21 L 23,19 L 23,8 L 22,7 L 22,3 L 21,2 L 21,0 Z" fill="black" /><path d="M 120,181 L 120,184 L 124,188 L 124,189 L 128,193 L 129,193 L 130,194 L 131,194 L 131,192 L 122,183 L 122,182 L 121,181 Z" fill="none" stroke="black" stroke-width="1" /><path d="M 165,157 L 164,158 L 164,159 L 163,160 L 163,161 L 162,162 L 162,163 L 160,165 L 160,167 L 159,168 L 158,168 L 158,171 L 155,174 L 155,175 L 154,176 L 154,177 L 152,179 L 152,180 L 150,182 L 150,184 L 148,186 L 148,188 L 146,190 L 146,191 L 144,193 L 144,195 L 156,195 L 157,196 L 160,196 L 161,197 L 162,197 L 163,196 L 164,196 L 165,197 L 166,197 L 168,199 L 169,199 L 171,201 L 172,201 L 177,206 L 177,207 L 179,209 L 179,210 L 180,211 L 180,217 L 237,217 L 234,217 L 233,216 L 232,216 L 231,215 L 230,215 L 229,214 L 228,214 L 226,212 L 223,212 L 215,204 L 215,203 L 213,201 L 213,199 L 212,198 L 212,195 L 211,194 L 211,184 L 210,183 L 210,182 L 209,181 L 209,177 L 208,176 L 208,175 L 207,174 L 207,171 L 204,168 L 204,167 L 203,167 L 202,166 L 201,166 L 199,164 L 197,164 L 196,163 L 195,163 L 194,162 L 188,162 L 187,161 L 179,161 L 178,160 L 175,160 L 174,159 L 169,159 L 168,158 L 167,158 L 166,157 Z" fill="none" stroke="black" stroke-width="1" /><path d="M 0,157 L 0,217 L 65,217 L 61,213 L 61,211 L 60,210 L 60,207 L 59,206 L 59,205 L 58,204 L 58,197 L 57,196 L 57,187 L 56,186 L 56,185 L 55,184 L 55,182 L 54,181 L 54,180 L 51,177 L 51,176 L 47,172 L 46,172 L 45,171 L 43,171 L 42,170 L 41,170 L 40,169 L 39,169 L 38,168 L 22,168 L 20,166 L 13,166 L 12,165 L 11,165 L 10,164 L 8,164 L 6,162 L 4,162 L 2,160 L 2,159 Z" fill="none" stroke="black" stroke-width="1" /><path d="M 92,140 L 92,141 L 94,143 L 94,144 L 106,156 L 106,157 L 111,162 L 111,163 L 113,165 L 113,164 L 114,163 L 114,160 L 113,159 L 113,155 L 112,154 L 112,153 L 110,151 L 110,150 L 104,144 L 103,144 L 102,143 L 101,143 L 100,142 L 99,142 L 98,141 L 97,141 L 96,140 Z" fill="none" stroke="black" stroke-width="1" /><path d="M 88,88 L 88,90 L 86,92 L 86,93 L 85,94 L 85,95 L 84,96 L 84,97 L 83,98 L 83,99 L 82,100 L 82,101 L 80,103 L 80,105 L 78,107 L 78,108 L 76,110 L 76,113 L 74,115 L 74,116 L 73,117 L 73,118 L 74,119 L 74,120 L 78,124 L 78,125 L 79,125 L 80,126 L 80,127 L 84,131 L 84,132 L 86,134 L 87,134 L 88,135 L 91,135 L 92,136 L 96,136 L 97,137 L 99,137 L 100,138 L 102,138 L 103,139 L 104,139 L 105,140 L 106,140 L 113,147 L 113,148 L 115,150 L 115,151 L 117,153 L 117,154 L 118,155 L 118,162 L 119,163 L 119,169 L 118,170 L 118,171 L 126,179 L 126,180 L 134,188 L 134,189 L 137,192 L 137,193 L 139,193 L 139,191 L 141,189 L 141,188 L 143,186 L 143,185 L 145,183 L 145,182 L 146,181 L 146,180 L 147,179 L 147,178 L 148,177 L 148,176 L 149,175 L 149,174 L 151,172 L 151,171 L 152,170 L 152,169 L 153,168 L 153,167 L 155,165 L 155,164 L 156,163 L 156,162 L 157,161 L 157,160 L 158,159 L 158,158 L 160,156 L 160,154 L 159,154 L 157,152 L 157,151 L 156,150 L 155,150 L 153,148 L 153,147 L 150,144 L 151,143 L 151,141 L 149,139 L 149,137 L 148,136 L 148,135 L 147,134 L 147,125 L 146,124 L 146,117 L 145,116 L 145,114 L 144,113 L 144,112 L 140,108 L 140,107 L 139,107 L 137,105 L 136,105 L 135,104 L 132,104 L 131,103 L 128,103 L 127,102 L 112,102 L 111,101 L 110,101 L 109,100 L 105,100 L 104,99 L 103,99 L 102,98 L 101,98 L 100,97 L 99,97 L 98,96 L 97,96 L 95,94 L 94,94 L 92,92 L 92,91 L 89,88 Z" fill="none" stroke="black" stroke-width="1" /><path d="M 0,75 L 0,149 L 1,150 L 1,151 L 2,152 L 2,153 L 6,157 L 6,158 L 7,158 L 8,159 L 10,159 L 12,161 L 14,161 L 15,162 L 22,162 L 23,163 L 33,163 L 34,164 L 40,164 L 41,165 L 42,165 L 43,166 L 45,166 L 46,167 L 48,167 L 49,168 L 50,168 L 54,172 L 54,173 L 56,175 L 56,176 L 58,178 L 58,179 L 59,180 L 59,181 L 60,182 L 60,184 L 61,185 L 61,187 L 62,188 L 62,203 L 63,204 L 63,205 L 64,206 L 64,208 L 65,209 L 65,210 L 66,211 L 66,212 L 69,215 L 69,216 L 70,216 L 71,217 L 177,217 L 176,216 L 176,215 L 175,214 L 175,212 L 174,211 L 174,210 L 172,208 L 172,207 L 169,204 L 168,204 L 166,202 L 164,202 L 162,200 L 154,200 L 153,199 L 144,199 L 143,200 L 140,200 L 139,201 L 137,199 L 133,199 L 132,198 L 129,198 L 128,197 L 127,197 L 119,189 L 119,188 L 118,187 L 118,186 L 116,184 L 116,182 L 115,181 L 115,180 L 114,179 L 114,176 L 113,175 L 113,173 L 111,171 L 111,170 L 110,170 L 109,169 L 109,168 L 105,164 L 105,163 L 99,157 L 99,156 L 98,156 L 95,153 L 95,152 L 92,149 L 92,148 L 87,143 L 87,142 L 85,140 L 82,140 L 81,139 L 80,139 L 79,140 L 75,140 L 74,139 L 73,139 L 72,138 L 70,138 L 69,137 L 68,137 L 67,136 L 66,136 L 64,134 L 62,134 L 60,132 L 60,131 L 59,130 L 58,130 L 56,128 L 56,127 L 53,124 L 53,119 L 52,118 L 52,116 L 51,115 L 51,114 L 50,113 L 50,110 L 51,109 L 51,106 L 50,105 L 50,97 L 49,96 L 49,94 L 47,92 L 47,91 L 46,90 L 46,89 L 44,87 L 44,86 L 42,84 L 41,84 L 40,83 L 39,83 L 37,81 L 36,81 L 35,80 L 32,80 L 31,79 L 21,79 L 20,78 L 13,78 L 12,77 L 7,77 L 6,76 L 1,76 Z" fill="none" stroke="black" stroke-width="1" /><path d="M 136,41 L 136,43 L 139,46 L 139,47 L 145,53 L 145,54 L 149,58 L 149,59 L 155,65 L 155,66 L 158,69 L 158,70 L 163,75 L 163,76 L 168,81 L 168,82 L 173,87 L 173,88 L 176,91 L 176,92 L 183,99 L 183,100 L 186,103 L 186,104 L 189,107 L 189,108 L 190,109 L 190,112 L 188,114 L 188,115 L 187,116 L 187,117 L 186,118 L 186,119 L 185,120 L 185,121 L 184,122 L 184,123 L 183,124 L 183,125 L 182,126 L 182,127 L 179,130 L 179,131 L 178,132 L 178,133 L 177,134 L 177,135 L 176,136 L 176,137 L 175,138 L 175,139 L 174,140 L 174,141 L 173,142 L 173,143 L 172,144 L 172,145 L 171,146 L 171,147 L 168,150 L 168,153 L 170,155 L 177,155 L 178,156 L 180,156 L 181,157 L 194,157 L 195,158 L 196,158 L 197,159 L 201,159 L 211,169 L 211,170 L 212,171 L 212,174 L 214,176 L 214,184 L 215,185 L 215,189 L 216,190 L 216,196 L 217,197 L 217,198 L 218,199 L 218,200 L 219,201 L 219,202 L 221,204 L 221,205 L 222,205 L 223,206 L 224,206 L 227,209 L 229,209 L 231,211 L 232,211 L 233,212 L 236,212 L 238,214 L 241,214 L 242,215 L 243,215 L 244,216 L 248,216 L 249,217 L 260,217 L 260,159 L 257,156 L 256,156 L 255,155 L 255,154 L 253,152 L 253,150 L 252,149 L 252,147 L 251,146 L 251,144 L 250,143 L 250,136 L 251,135 L 251,134 L 250,133 L 250,132 L 249,131 L 249,126 L 248,125 L 248,124 L 247,123 L 247,122 L 243,118 L 243,117 L 242,116 L 241,116 L 239,114 L 238,114 L 236,112 L 234,112 L 232,110 L 228,110 L 227,109 L 224,109 L 223,108 L 217,108 L 216,107 L 213,107 L 212,106 L 210,106 L 209,105 L 207,105 L 206,104 L 204,104 L 196,96 L 196,95 L 192,91 L 192,90 L 191,89 L 191,87 L 189,85 L 189,84 L 188,83 L 188,82 L 187,81 L 187,64 L 185,62 L 185,60 L 184,59 L 184,58 L 183,57 L 183,56 L 180,53 L 179,53 L 176,50 L 173,50 L 172,49 L 171,49 L 170,48 L 156,48 L 155,47 L 151,47 L 150,46 L 144,46 L 143,45 L 142,45 L 140,43 L 139,43 L 137,41 Z" fill="none" stroke="black" stroke-width="1" /><path d="M 121,31 L 118,34 L 118,36 L 116,38 L 116,39 L 115,40 L 115,41 L 114,42 L 114,43 L 112,45 L 112,47 L 110,49 L 110,50 L 108,52 L 108,54 L 106,56 L 106,57 L 104,59 L 104,61 L 102,63 L 102,64 L 100,66 L 100,67 L 99,68 L 99,69 L 98,70 L 98,71 L 97,72 L 97,73 L 96,74 L 96,75 L 94,77 L 94,79 L 92,81 L 92,83 L 93,84 L 93,85 L 94,86 L 94,87 L 96,89 L 96,90 L 97,91 L 98,91 L 99,92 L 100,92 L 101,93 L 103,93 L 104,94 L 105,94 L 106,95 L 107,95 L 108,96 L 111,96 L 112,97 L 116,97 L 117,98 L 125,98 L 126,99 L 134,99 L 135,100 L 136,100 L 137,101 L 139,101 L 148,110 L 148,112 L 150,114 L 150,118 L 151,119 L 151,130 L 152,131 L 152,134 L 153,135 L 153,137 L 154,138 L 154,141 L 155,142 L 155,143 L 156,144 L 156,145 L 160,149 L 163,149 L 165,147 L 165,146 L 166,145 L 166,144 L 167,143 L 167,142 L 169,140 L 169,138 L 171,136 L 171,135 L 173,133 L 173,132 L 174,131 L 174,130 L 175,129 L 175,128 L 176,127 L 176,126 L 177,125 L 177,124 L 179,122 L 179,120 L 181,118 L 181,116 L 183,114 L 183,113 L 185,111 L 185,109 L 180,104 L 180,103 L 177,100 L 177,99 L 172,94 L 172,93 L 168,89 L 168,88 L 163,83 L 163,82 L 159,78 L 159,77 L 154,72 L 154,71 L 150,67 L 150,66 L 144,60 L 144,59 L 140,55 L 140,54 L 136,50 L 136,49 L 131,44 L 131,43 L 129,41 L 129,40 L 128,40 L 127,39 L 127,38 L 123,34 L 123,33 Z" fill="none" stroke="black" stroke-width="1" /><path d="M 192,0 L 193,0 L 194,1 L 195,1 L 196,2 L 197,2 L 198,3 L 199,3 L 201,5 L 203,5 L 204,6 L 207,6 L 208,7 L 210,7 L 211,8 L 222,8 L 223,9 L 228,9 L 229,10 L 230,10 L 231,11 L 232,11 L 233,12 L 234,12 L 235,13 L 236,13 L 237,14 L 238,14 L 246,22 L 246,25 L 247,26 L 247,33 L 246,34 L 247,35 L 247,38 L 248,39 L 248,47 L 249,48 L 249,50 L 250,51 L 250,53 L 252,55 L 252,56 L 256,60 L 256,61 L 260,65 L 260,0 Z" fill="none" stroke="black" stroke-width="1" /><path d="M 126,0 L 127,1 L 127,2 L 128,3 L 128,20 L 130,22 L 130,24 L 131,25 L 131,27 L 132,28 L 132,29 L 135,32 L 135,33 L 136,34 L 136,35 L 138,37 L 139,37 L 140,38 L 141,38 L 142,39 L 144,39 L 146,41 L 151,41 L 153,43 L 159,43 L 160,44 L 171,44 L 172,45 L 175,45 L 176,46 L 177,46 L 178,47 L 179,47 L 180,48 L 181,48 L 188,55 L 188,58 L 189,59 L 189,60 L 190,61 L 190,62 L 191,63 L 191,72 L 192,73 L 192,80 L 193,81 L 193,82 L 194,83 L 194,84 L 195,85 L 195,87 L 196,88 L 196,89 L 200,93 L 200,94 L 202,96 L 203,96 L 206,99 L 207,99 L 208,100 L 209,100 L 210,101 L 211,101 L 212,102 L 215,102 L 216,103 L 219,103 L 220,104 L 225,104 L 226,105 L 233,105 L 234,106 L 237,106 L 238,107 L 241,107 L 244,110 L 244,111 L 243,112 L 244,113 L 246,113 L 249,116 L 249,117 L 250,118 L 250,119 L 251,120 L 251,121 L 252,122 L 252,126 L 253,127 L 253,128 L 254,129 L 254,133 L 255,134 L 255,144 L 256,145 L 256,147 L 257,148 L 257,149 L 258,150 L 258,151 L 259,152 L 259,153 L 260,154 L 260,70 L 257,67 L 256,67 L 251,62 L 251,61 L 247,57 L 247,55 L 246,54 L 246,52 L 245,51 L 245,50 L 244,49 L 244,48 L 245,47 L 245,46 L 244,45 L 244,41 L 243,40 L 243,39 L 242,38 L 242,37 L 243,36 L 243,33 L 242,32 L 242,30 L 243,29 L 243,27 L 241,25 L 241,23 L 239,21 L 238,21 L 234,17 L 233,17 L 231,15 L 230,15 L 229,14 L 227,14 L 226,13 L 214,13 L 213,12 L 207,12 L 205,10 L 200,10 L 199,9 L 198,9 L 197,8 L 196,8 L 194,6 L 193,6 L 190,3 L 189,3 L 186,0 Z" fill="none" stroke="black" stroke-width="1" /><path d="M 22,0 L 22,2 L 23,3 L 23,7 L 24,8 L 24,19 L 26,21 L 26,24 L 27,25 L 27,26 L 31,30 L 32,30 L 35,33 L 36,33 L 37,34 L 38,34 L 39,35 L 43,35 L 44,36 L 47,36 L 48,37 L 49,36 L 51,36 L 52,37 L 66,37 L 67,38 L 69,38 L 70,39 L 73,39 L 76,42 L 77,42 L 80,45 L 80,47 L 81,48 L 81,49 L 83,51 L 83,52 L 84,53 L 84,56 L 85,57 L 85,58 L 86,59 L 86,66 L 87,67 L 87,68 L 88,69 L 88,72 L 89,73 L 88,74 L 88,76 L 90,76 L 90,75 L 91,74 L 91,72 L 93,70 L 93,69 L 95,67 L 95,66 L 97,64 L 97,62 L 98,61 L 98,60 L 99,59 L 99,58 L 101,56 L 101,55 L 103,53 L 103,52 L 104,51 L 104,50 L 105,49 L 105,48 L 106,47 L 106,46 L 107,45 L 107,42 L 110,39 L 111,39 L 111,37 L 113,35 L 113,34 L 114,33 L 114,32 L 115,31 L 115,30 L 117,28 L 117,26 L 119,24 L 120,25 L 121,25 L 125,29 L 125,30 L 128,33 L 128,34 L 129,35 L 130,35 L 130,33 L 127,30 L 127,26 L 125,24 L 125,20 L 124,19 L 124,18 L 123,17 L 123,12 L 124,11 L 124,5 L 123,4 L 123,3 L 122,2 L 122,1 L 121,0 Z" fill="none" stroke="black" stroke-width="1" /><path d="M 0,0 L 0,70 L 2,70 L 3,71 L 6,71 L 7,72 L 8,72 L 9,73 L 11,73 L 12,74 L 29,74 L 30,75 L 33,75 L 34,76 L 36,76 L 37,77 L 39,77 L 41,79 L 42,79 L 43,80 L 44,80 L 49,85 L 49,86 L 50,87 L 50,88 L 51,89 L 51,90 L 52,91 L 52,92 L 53,93 L 53,94 L 54,95 L 54,100 L 55,101 L 55,110 L 56,111 L 56,119 L 57,120 L 57,121 L 58,122 L 58,123 L 60,125 L 60,126 L 64,130 L 66,130 L 69,133 L 70,133 L 71,134 L 72,134 L 73,135 L 77,135 L 78,134 L 78,132 L 75,129 L 74,129 L 73,128 L 73,127 L 72,126 L 72,125 L 69,122 L 69,121 L 67,119 L 67,116 L 68,115 L 68,114 L 71,111 L 71,109 L 73,107 L 73,106 L 74,105 L 74,104 L 75,103 L 75,101 L 77,99 L 77,98 L 78,97 L 78,96 L 79,95 L 79,94 L 81,92 L 81,90 L 83,88 L 83,87 L 85,85 L 85,80 L 84,79 L 84,75 L 83,74 L 83,69 L 82,68 L 82,63 L 81,62 L 81,57 L 80,56 L 80,54 L 76,50 L 76,49 L 75,48 L 75,47 L 72,44 L 71,44 L 70,43 L 69,43 L 68,42 L 64,42 L 63,41 L 50,41 L 49,40 L 48,41 L 47,41 L 46,40 L 41,40 L 40,39 L 39,39 L 38,38 L 35,38 L 34,37 L 33,37 L 30,34 L 29,34 L 24,29 L 24,28 L 21,25 L 21,22 L 20,21 L 20,17 L 19,16 L 19,8 L 18,7 L 18,6 L 19,5 L 19,4 L 18,3 L 18,2 L 17,1 L 17,0 Z" fill="none" stroke="black" stroke-width="1" /></svg>