<?xml version='1.0' encoding='utf-8'?>
<svg width="257" height="214" xmlns="http://www.w3.org/2000/svg" viewBox="0 0 257 214"><rect width="257" height="214" fill="white" /><path d="M 131,70 L 130,71 L 129,71 L 127,73 L 126,73 L 125,74 L 124,74 L 123,75 L 122,75 L 121,76 L 120,76 L 119,77 L 118,77 L 117,78 L 116,78 L 115,79 L 114,79 L 112,81 L 110,81 L 108,83 L 107,83 L 105,85 L 104,85 L 103,86 L 102,86 L 101,87 L 100,87 L 99,88 L 98,88 L 96,90 L 94,90 L 92,92 L 91,92 L 90,93 L 89,93 L 88,94 L 87,94 L 86,95 L 85,95 L 84,96 L 83,96 L 81,98 L 79,98 L 79,99 L 78,100 L 80,102 L 81,102 L 82,103 L 85,103 L 86,104 L 87,104 L 88,105 L 90,105 L 91,106 L 92,106 L 93,107 L 95,107 L 97,109 L 100,109 L 102,111 L 105,111 L 107,113 L 109,113 L 111,115 L 115,115 L 117,117 L 120,117 L 122,119 L 125,119 L 126,120 L 127,120 L 128,121 L 130,121 L 132,123 L 135,123 L 137,125 L 141,125 L 143,123 L 144,123 L 145,122 L 146,122 L 148,120 L 149,120 L 150,119 L 151,119 L 152,118 L 153,118 L 154,117 L 155,117 L 156,116 L 157,116 L 159,114 L 160,114 L 162,112 L 163,112 L 164,111 L 165,111 L 166,110 L 167,110 L 168,109 L 169,109 L 172,106 L 173,106 L 174,105 L 175,105 L 176,104 L 177,104 L 178,103 L 179,103 L 180,102 L 181,102 L 183,100 L 184,100 L 185,99 L 186,99 L 189,96 L 191,96 L 193,94 L 192,93 L 192,92 L 189,92 L 187,90 L 184,90 L 182,88 L 179,88 L 177,86 L 174,86 L 173,85 L 172,85 L 171,84 L 168,84 L 166,82 L 163,82 L 162,81 L 161,81 L 160,80 L 157,80 L 155,78 L 152,78 L 150,76 L 147,76 L 146,75 L 145,75 L 144,74 L 142,74 L 141,73 L 140,73 L 139,72 L 137,72 L 135,70 Z" fill="black" /><path d="M 0,0 L 0,213 L 256,213 L 256,0 Z" fill="none" stroke="black" stroke-width="1" /></svg>