<?xml version='1.0' encoding='utf-8'?>
<svg width="257" height="219" xmlns="http://www.w3.org/2000/svg" viewBox="0 0 257 219"><rect width="257" height="219" fill="white" /><path d="M 38,0 L 38,5 L 37,6 L 37,8 L 38,9 L 38,12 L 37,13 L 35,13 L 34,14 L 33,14 L 32,13 L 2,13 L 1,14 L 0,14 L 0,15 L 1,16 L 33,16 L 34,15 L 37,15 L 38,16 L 38,19 L 37,20 L 37,50 L 38,51 L 38,53 L 36,55 L 33,55 L 32,54 L 13,54 L 12,55 L 11,55 L 10,54 L 0,54 L 0,56 L 2,56 L 3,57 L 10,57 L 11,56 L 13,56 L 14,57 L 31,57 L 32,56 L 33,56 L 34,57 L 37,57 L 38,58 L 38,61 L 37,62 L 37,70 L 38,71 L 38,74 L 37,75 L 0,75 L 0,77 L 37,77 L 38,78 L 38,81 L 37,82 L 37,113 L 38,114 L 38,116 L 36,118 L 33,118 L 32,117 L 2,117 L 1,118 L 0,118 L 0,119 L 1,119 L 2,120 L 32,120 L 33,119 L 34,119 L 35,120 L 36,120 L 38,122 L 38,123 L 37,124 L 37,133 L 38,134 L 38,137 L 37,138 L 32,138 L 31,137 L 30,137 L 29,138 L 25,138 L 24,137 L 19,137 L 18,138 L 14,138 L 13,137 L 3,137 L 2,138 L 0,138 L 0,140 L 15,140 L 16,141 L 17,140 L 26,140 L 27,141 L 28,140 L 29,140 L 30,139 L 32,139 L 33,140 L 35,140 L 37,142 L 37,166 L 38,167 L 38,168 L 37,169 L 37,179 L 36,180 L 36,181 L 35,182 L 34,182 L 33,181 L 24,181 L 23,180 L 21,180 L 20,181 L 5,181 L 4,180 L 1,180 L 0,181 L 0,182 L 1,183 L 6,183 L 7,184 L 8,183 L 35,183 L 37,185 L 37,186 L 36,187 L 36,192 L 37,193 L 37,196 L 36,197 L 36,201 L 35,202 L 32,202 L 31,201 L 2,201 L 1,202 L 0,202 L 0,203 L 1,203 L 2,204 L 31,204 L 32,203 L 35,203 L 36,204 L 36,218 L 38,218 L 38,205 L 40,203 L 42,203 L 43,204 L 47,204 L 48,203 L 50,203 L 51,204 L 73,204 L 74,203 L 77,203 L 78,204 L 78,218 L 81,218 L 81,213 L 80,212 L 80,205 L 82,203 L 84,203 L 85,204 L 94,204 L 95,203 L 98,203 L 100,205 L 100,213 L 99,214 L 99,218 L 102,218 L 102,212 L 103,211 L 102,210 L 102,209 L 101,208 L 101,205 L 103,203 L 105,203 L 106,204 L 114,204 L 115,203 L 119,203 L 120,204 L 120,205 L 121,206 L 121,207 L 120,208 L 120,214 L 121,215 L 120,216 L 120,217 L 121,218 L 123,218 L 123,216 L 122,215 L 123,214 L 123,204 L 124,203 L 127,203 L 128,204 L 158,204 L 159,203 L 161,203 L 164,206 L 164,207 L 163,208 L 163,214 L 164,215 L 164,216 L 163,217 L 163,218 L 165,218 L 166,217 L 166,214 L 165,213 L 165,204 L 166,203 L 169,203 L 170,204 L 171,203 L 175,203 L 176,204 L 179,204 L 180,203 L 183,203 L 184,204 L 184,213 L 183,214 L 183,217 L 184,218 L 186,218 L 186,204 L 187,203 L 192,203 L 193,204 L 200,204 L 201,203 L 204,203 L 206,205 L 206,207 L 205,208 L 205,209 L 204,210 L 205,211 L 205,218 L 208,218 L 208,213 L 207,212 L 207,204 L 208,203 L 211,203 L 212,204 L 220,204 L 221,203 L 225,203 L 226,204 L 256,204 L 256,201 L 213,201 L 212,202 L 211,202 L 210,201 L 208,201 L 207,200 L 207,197 L 208,196 L 208,189 L 207,188 L 207,187 L 208,186 L 208,185 L 210,183 L 215,183 L 216,182 L 217,182 L 218,183 L 221,183 L 222,182 L 223,182 L 224,183 L 256,183 L 256,181 L 255,180 L 252,180 L 251,181 L 250,181 L 249,180 L 244,180 L 243,181 L 223,181 L 222,180 L 221,180 L 220,181 L 219,181 L 218,180 L 216,180 L 215,181 L 210,181 L 208,179 L 208,175 L 207,174 L 208,173 L 208,171 L 209,170 L 209,169 L 208,168 L 208,163 L 209,162 L 209,161 L 208,160 L 208,158 L 209,157 L 209,146 L 208,145 L 208,143 L 211,140 L 213,140 L 214,141 L 216,141 L 217,140 L 220,140 L 221,141 L 224,141 L 225,140 L 227,140 L 228,141 L 230,141 L 231,140 L 234,140 L 235,141 L 256,141 L 256,138 L 215,138 L 214,139 L 212,139 L 211,138 L 210,138 L 209,137 L 209,131 L 208,130 L 208,129 L 209,128 L 209,126 L 208,125 L 208,121 L 209,120 L 215,120 L 216,119 L 217,119 L 218,120 L 256,120 L 256,117 L 218,117 L 217,118 L 213,118 L 212,117 L 212,115 L 215,112 L 215,111 L 217,109 L 217,108 L 219,106 L 219,105 L 221,103 L 221,101 L 220,101 L 219,100 L 218,100 L 216,98 L 215,98 L 213,96 L 212,96 L 209,93 L 209,88 L 210,87 L 210,82 L 209,81 L 209,79 L 211,77 L 256,77 L 256,75 L 211,75 L 209,73 L 209,71 L 210,70 L 210,62 L 209,61 L 209,59 L 211,57 L 256,57 L 256,55 L 212,55 L 210,53 L 210,49 L 211,48 L 210,47 L 210,38 L 211,37 L 211,29 L 210,28 L 210,26 L 208,26 L 208,54 L 207,55 L 195,55 L 194,56 L 191,56 L 188,53 L 188,50 L 189,49 L 189,45 L 188,44 L 189,43 L 189,16 L 190,15 L 193,15 L 194,16 L 204,16 L 205,15 L 207,15 L 209,17 L 209,19 L 208,20 L 208,23 L 209,24 L 210,24 L 211,23 L 211,20 L 210,19 L 211,18 L 211,17 L 213,15 L 215,15 L 216,16 L 246,16 L 247,15 L 248,15 L 249,16 L 256,16 L 256,13 L 251,13 L 250,14 L 249,13 L 248,13 L 247,14 L 239,14 L 238,13 L 215,13 L 214,14 L 212,14 L 210,12 L 210,10 L 212,8 L 212,7 L 211,6 L 211,1 L 212,0 L 209,0 L 209,9 L 210,10 L 209,11 L 209,12 L 207,14 L 205,14 L 204,13 L 194,13 L 193,14 L 191,14 L 189,12 L 189,10 L 190,9 L 190,0 L 187,0 L 187,9 L 188,10 L 188,12 L 186,14 L 183,14 L 182,13 L 173,13 L 172,14 L 170,14 L 167,11 L 167,9 L 168,8 L 168,0 L 166,0 L 166,1 L 165,2 L 165,8 L 166,9 L 166,12 L 164,14 L 162,14 L 161,13 L 130,13 L 129,14 L 127,14 L 125,12 L 125,0 L 123,0 L 123,8 L 124,9 L 124,11 L 121,14 L 119,14 L 118,13 L 109,13 L 108,14 L 106,14 L 103,11 L 103,10 L 104,9 L 104,6 L 103,5 L 103,4 L 104,3 L 104,0 L 102,0 L 102,3 L 101,4 L 101,8 L 102,9 L 102,12 L 100,14 L 98,14 L 97,13 L 88,13 L 87,14 L 85,14 L 82,11 L 82,0 L 80,0 L 80,8 L 81,9 L 80,10 L 80,13 L 79,14 L 76,14 L 75,13 L 45,13 L 44,14 L 42,14 L 39,11 L 39,9 L 40,8 L 39,7 L 40,6 L 40,0 Z" fill="black" /><path d="M 208,204 L 208,212 L 209,213 L 209,218 L 256,218 L 256,205 L 226,205 L 225,204 L 221,204 L 220,205 L 212,205 L 211,204 Z" fill="none" stroke="black" stroke-width="1" /><path d="M 187,204 L 187,218 L 204,218 L 204,211 L 203,210 L 204,209 L 204,208 L 205,207 L 205,205 L 204,204 L 201,204 L 200,205 L 193,205 L 192,204 Z" fill="none" stroke="black" stroke-width="1" /><path d="M 166,204 L 166,213 L 167,214 L 167,217 L 166,218 L 183,218 L 182,217 L 182,214 L 183,213 L 183,204 L 180,204 L 179,205 L 176,205 L 175,204 L 171,204 L 170,205 L 169,204 Z" fill="none" stroke="black" stroke-width="1" /><path d="M 124,204 L 124,214 L 123,215 L 124,216 L 124,218 L 162,218 L 162,217 L 163,216 L 163,215 L 162,214 L 162,208 L 163,207 L 163,206 L 161,204 L 159,204 L 158,205 L 128,205 L 127,204 Z" fill="none" stroke="black" stroke-width="1" /><path d="M 103,204 L 102,205 L 102,208 L 103,209 L 103,210 L 104,211 L 103,212 L 103,218 L 120,218 L 119,217 L 119,216 L 120,215 L 119,214 L 119,208 L 120,207 L 120,206 L 119,205 L 119,204 L 115,204 L 114,205 L 106,205 L 105,204 Z" fill="none" stroke="black" stroke-width="1" /><path d="M 82,204 L 81,205 L 81,212 L 82,213 L 82,218 L 98,218 L 98,214 L 99,213 L 99,205 L 98,204 L 95,204 L 94,205 L 85,205 L 84,204 Z" fill="none" stroke="black" stroke-width="1" /><path d="M 40,204 L 39,205 L 39,218 L 77,218 L 77,204 L 74,204 L 73,205 L 51,205 L 50,204 L 48,204 L 47,205 L 43,205 L 42,204 Z" fill="none" stroke="black" stroke-width="1" /><path d="M 0,204 L 0,218 L 35,218 L 35,204 L 32,204 L 31,205 L 2,205 L 1,204 Z" fill="none" stroke="black" stroke-width="1" /><path d="M 124,184 L 124,200 L 126,200 L 127,201 L 128,201 L 129,200 L 159,200 L 160,201 L 163,201 L 163,199 L 162,198 L 162,190 L 163,189 L 163,187 L 162,186 L 160,186 L 159,185 L 159,184 L 149,184 L 148,185 L 128,185 L 127,184 Z" fill="none" stroke="black" stroke-width="1" /><path d="M 40,184 L 40,197 L 39,198 L 39,201 L 42,201 L 43,200 L 73,200 L 74,201 L 76,201 L 77,200 L 77,194 L 78,193 L 78,192 L 77,191 L 77,184 L 50,184 L 49,185 L 45,185 L 44,184 Z" fill="none" stroke="black" stroke-width="1" /><path d="M 216,183 L 215,184 L 210,184 L 209,185 L 209,186 L 208,187 L 208,188 L 209,189 L 209,196 L 208,197 L 208,200 L 210,200 L 211,201 L 212,201 L 213,200 L 256,200 L 256,184 L 224,184 L 223,183 L 222,183 L 221,184 L 218,184 L 217,183 Z" fill="none" stroke="black" stroke-width="1" /><path d="M 0,183 L 0,201 L 1,201 L 2,200 L 31,200 L 32,201 L 35,201 L 35,197 L 36,196 L 36,193 L 35,192 L 35,187 L 36,186 L 36,185 L 35,184 L 8,184 L 7,185 L 6,184 L 1,184 Z" fill="none" stroke="black" stroke-width="1" /><path d="M 125,168 L 124,169 L 124,172 L 125,173 L 125,175 L 124,176 L 124,180 L 126,180 L 127,181 L 129,181 L 130,180 L 143,180 L 144,181 L 151,181 L 151,180 L 150,180 L 149,179 L 148,179 L 147,178 L 146,178 L 145,177 L 144,177 L 143,176 L 142,176 L 141,175 L 140,175 L 139,174 L 138,174 L 137,173 L 136,173 L 135,172 L 134,172 L 132,170 L 130,170 L 128,168 Z" fill="none" stroke="black" stroke-width="1" /><path d="M 182,158 L 180,160 L 180,161 L 178,163 L 178,164 L 176,166 L 176,167 L 175,168 L 174,168 L 174,169 L 173,170 L 173,171 L 172,172 L 172,173 L 171,174 L 170,174 L 170,175 L 167,178 L 167,180 L 178,180 L 179,179 L 181,179 L 182,180 L 184,180 L 184,176 L 183,175 L 183,169 L 184,168 L 184,161 L 185,160 L 185,159 L 184,158 Z" fill="none" stroke="black" stroke-width="1" /><path d="M 104,156 L 103,157 L 103,176 L 102,177 L 102,178 L 104,180 L 105,180 L 106,181 L 107,181 L 108,180 L 109,181 L 110,180 L 116,180 L 117,181 L 119,181 L 120,180 L 120,173 L 121,172 L 121,171 L 120,170 L 120,168 L 121,167 L 121,166 L 117,162 L 115,162 L 113,160 L 112,160 L 110,158 L 108,158 L 106,156 Z" fill="none" stroke="black" stroke-width="1" /><path d="M 82,144 L 82,152 L 83,153 L 83,155 L 82,156 L 82,161 L 83,162 L 83,174 L 82,175 L 82,177 L 81,178 L 81,179 L 82,180 L 82,181 L 86,181 L 87,180 L 95,180 L 96,181 L 97,181 L 98,180 L 99,180 L 99,171 L 98,170 L 98,169 L 99,168 L 99,166 L 98,165 L 98,163 L 99,162 L 99,161 L 98,160 L 98,159 L 99,158 L 99,157 L 100,156 L 99,155 L 99,152 L 97,152 L 95,150 L 94,150 L 93,149 L 92,149 L 91,148 L 90,148 L 88,146 L 87,146 L 85,144 Z" fill="none" stroke="black" stroke-width="1" /><path d="M 211,141 L 209,143 L 209,145 L 210,146 L 210,157 L 209,158 L 209,160 L 210,161 L 210,162 L 209,163 L 209,168 L 210,169 L 210,170 L 209,171 L 209,173 L 208,174 L 209,175 L 209,179 L 210,180 L 215,180 L 216,179 L 218,179 L 219,180 L 220,180 L 221,179 L 222,179 L 223,180 L 243,180 L 244,179 L 249,179 L 250,180 L 251,180 L 252,179 L 255,179 L 256,180 L 256,142 L 235,142 L 234,141 L 231,141 L 230,142 L 228,142 L 227,141 L 225,141 L 224,142 L 221,142 L 220,141 L 217,141 L 216,142 L 214,142 L 213,141 Z" fill="none" stroke="black" stroke-width="1" /><path d="M 203,141 L 202,142 L 194,142 L 192,144 L 192,145 L 190,147 L 190,148 L 188,150 L 188,152 L 187,153 L 188,154 L 188,172 L 187,173 L 187,175 L 188,176 L 187,177 L 187,178 L 188,179 L 188,180 L 191,180 L 192,179 L 201,179 L 202,180 L 205,180 L 205,177 L 204,176 L 205,175 L 205,172 L 204,171 L 204,169 L 205,168 L 205,166 L 206,165 L 205,164 L 205,157 L 206,156 L 206,154 L 205,153 L 205,149 L 206,148 L 206,145 L 205,144 L 205,141 Z" fill="none" stroke="black" stroke-width="1" /><path d="M 126,141 L 125,142 L 124,142 L 124,145 L 125,146 L 125,153 L 124,154 L 124,160 L 126,162 L 127,162 L 128,163 L 129,163 L 130,164 L 131,164 L 132,165 L 133,165 L 135,167 L 137,167 L 138,168 L 138,169 L 141,169 L 143,171 L 144,171 L 146,173 L 148,173 L 150,175 L 153,175 L 154,176 L 154,177 L 156,177 L 158,179 L 161,179 L 161,177 L 163,175 L 163,149 L 162,148 L 162,145 L 163,144 L 163,141 L 157,141 L 156,142 L 155,142 L 154,141 L 150,141 L 149,142 L 147,142 L 146,141 L 140,141 L 139,142 L 136,142 L 135,141 L 129,141 L 128,142 L 127,141 Z" fill="none" stroke="black" stroke-width="1" /><path d="M 104,141 L 104,143 L 103,144 L 103,148 L 104,149 L 104,150 L 105,151 L 107,151 L 109,153 L 111,153 L 113,155 L 114,155 L 116,157 L 117,157 L 119,159 L 120,158 L 120,146 L 121,145 L 121,142 L 119,142 L 118,141 L 115,141 L 114,142 L 111,142 L 110,141 Z" fill="none" stroke="black" stroke-width="1" /><path d="M 90,141 L 90,143 L 92,143 L 94,145 L 95,145 L 96,146 L 99,146 L 99,142 L 98,141 Z" fill="none" stroke="black" stroke-width="1" /><path d="M 169,140 L 167,142 L 167,143 L 166,144 L 166,145 L 167,146 L 167,150 L 168,151 L 168,152 L 167,153 L 167,155 L 166,156 L 167,157 L 167,166 L 166,167 L 166,169 L 168,169 L 168,168 L 171,165 L 171,164 L 173,162 L 173,161 L 175,159 L 175,158 L 176,157 L 177,157 L 177,156 L 179,154 L 179,153 L 181,151 L 181,150 L 182,149 L 183,149 L 183,148 L 184,147 L 184,146 L 185,145 L 185,143 L 182,140 L 181,141 L 171,141 L 170,140 Z" fill="none" stroke="black" stroke-width="1" /><path d="M 205,127 L 202,130 L 202,131 L 201,132 L 201,133 L 198,136 L 198,138 L 204,138 L 205,137 L 205,136 L 206,135 L 206,130 L 207,129 L 207,128 L 206,127 Z" fill="none" stroke="black" stroke-width="1" /><path d="M 216,120 L 215,121 L 209,121 L 209,125 L 210,126 L 210,128 L 209,129 L 209,130 L 210,131 L 210,137 L 211,137 L 212,138 L 214,138 L 215,137 L 256,137 L 256,121 L 218,121 L 217,120 Z" fill="none" stroke="black" stroke-width="1" /><path d="M 189,120 L 188,121 L 188,123 L 189,124 L 189,133 L 188,134 L 188,137 L 189,138 L 190,138 L 193,135 L 193,134 L 195,132 L 195,131 L 197,129 L 197,128 L 199,126 L 199,125 L 203,121 L 203,120 L 199,120 L 198,121 L 192,121 L 191,120 Z" fill="none" stroke="black" stroke-width="1" /><path d="M 126,120 L 125,121 L 125,124 L 124,125 L 125,126 L 125,133 L 124,134 L 124,137 L 125,137 L 126,138 L 127,138 L 128,137 L 148,137 L 149,136 L 150,136 L 151,137 L 163,137 L 163,135 L 162,134 L 163,133 L 163,121 L 162,120 L 160,120 L 159,121 L 129,121 L 128,120 Z" fill="none" stroke="black" stroke-width="1" /><path d="M 70,120 L 68,122 L 68,123 L 65,126 L 65,128 L 68,131 L 69,131 L 70,132 L 71,132 L 72,133 L 73,133 L 75,135 L 78,135 L 78,132 L 79,131 L 78,130 L 78,124 L 79,123 L 79,121 L 78,120 Z" fill="none" stroke="black" stroke-width="1" /><path d="M 41,120 L 40,121 L 40,124 L 41,125 L 41,129 L 40,130 L 40,132 L 41,133 L 40,134 L 40,136 L 41,137 L 43,137 L 44,136 L 58,136 L 59,137 L 69,137 L 69,136 L 68,135 L 67,135 L 66,134 L 65,134 L 63,132 L 61,132 L 58,129 L 58,126 L 59,125 L 59,124 L 61,122 L 61,120 L 58,120 L 57,121 L 44,121 L 43,120 Z" fill="none" stroke="black" stroke-width="1" /><path d="M 0,120 L 0,137 L 2,137 L 3,136 L 13,136 L 14,137 L 18,137 L 19,136 L 24,136 L 25,137 L 29,137 L 30,136 L 31,136 L 32,137 L 37,137 L 37,134 L 36,133 L 36,124 L 37,123 L 37,122 L 36,121 L 35,121 L 34,120 L 33,120 L 32,121 L 2,121 L 1,120 Z" fill="none" stroke="black" stroke-width="1" /><path d="M 76,110 L 76,112 L 73,115 L 73,117 L 78,117 L 79,116 L 79,112 L 78,111 L 78,110 Z" fill="none" stroke="black" stroke-width="1" /><path d="M 210,101 L 210,109 L 211,109 L 212,108 L 212,107 L 215,104 L 215,102 L 213,102 L 212,101 Z" fill="none" stroke="black" stroke-width="1" /><path d="M 189,85 L 188,86 L 188,88 L 189,89 L 189,113 L 188,114 L 188,116 L 189,117 L 191,117 L 192,116 L 200,116 L 201,117 L 205,117 L 207,115 L 207,108 L 206,107 L 206,103 L 207,102 L 207,98 L 206,97 L 206,96 L 205,95 L 205,94 L 203,94 L 201,92 L 200,92 L 197,89 L 196,89 L 195,88 L 194,88 L 192,86 L 191,86 L 190,85 Z" fill="none" stroke="black" stroke-width="1" /><path d="M 98,79 L 98,80 L 97,81 L 97,82 L 96,83 L 96,84 L 94,86 L 94,87 L 93,88 L 92,88 L 92,89 L 91,90 L 91,91 L 88,94 L 88,95 L 86,97 L 86,98 L 84,100 L 84,101 L 82,103 L 82,116 L 83,117 L 85,117 L 86,116 L 95,116 L 96,117 L 99,117 L 99,116 L 100,115 L 100,113 L 99,112 L 99,109 L 100,108 L 100,90 L 99,89 L 99,86 L 100,85 L 100,82 L 101,81 L 101,80 L 100,79 Z" fill="none" stroke="black" stroke-width="1" /><path d="M 211,78 L 210,79 L 210,81 L 211,82 L 211,87 L 210,88 L 210,93 L 212,95 L 213,95 L 215,97 L 216,97 L 218,99 L 219,99 L 220,100 L 221,100 L 222,101 L 222,103 L 220,105 L 220,106 L 218,108 L 218,109 L 216,111 L 216,112 L 213,115 L 213,117 L 217,117 L 218,116 L 256,116 L 256,78 Z" fill="none" stroke="black" stroke-width="1" /><path d="M 189,78 L 189,79 L 190,79 L 191,80 L 192,80 L 194,82 L 195,82 L 196,83 L 197,83 L 201,87 L 202,87 L 204,89 L 207,89 L 207,86 L 206,85 L 206,83 L 207,82 L 207,79 L 206,79 L 205,78 Z" fill="none" stroke="black" stroke-width="1" /><path d="M 104,78 L 104,84 L 103,85 L 103,86 L 104,87 L 104,117 L 107,117 L 108,116 L 116,116 L 117,117 L 120,117 L 121,116 L 121,110 L 120,109 L 120,103 L 121,102 L 121,87 L 122,86 L 122,85 L 121,84 L 121,78 Z" fill="none" stroke="black" stroke-width="1" /><path d="M 83,78 L 82,79 L 82,91 L 84,91 L 84,90 L 87,87 L 87,85 L 92,80 L 92,78 Z" fill="none" stroke="black" stroke-width="1" /><path d="M 40,78 L 40,81 L 41,82 L 41,88 L 40,89 L 40,94 L 41,95 L 41,109 L 40,110 L 40,112 L 41,113 L 40,114 L 40,116 L 41,117 L 43,117 L 44,116 L 59,116 L 60,117 L 65,117 L 65,116 L 67,114 L 67,113 L 69,111 L 69,110 L 70,109 L 71,109 L 71,108 L 73,106 L 73,105 L 75,103 L 75,102 L 78,99 L 78,94 L 79,93 L 79,88 L 78,87 L 78,85 L 77,84 L 78,83 L 78,82 L 79,81 L 79,79 L 78,78 Z" fill="none" stroke="black" stroke-width="1" /><path d="M 176,77 L 175,78 L 168,78 L 168,79 L 167,80 L 167,87 L 168,88 L 168,92 L 167,93 L 167,95 L 168,96 L 168,103 L 167,104 L 168,105 L 168,108 L 167,109 L 167,115 L 168,116 L 168,117 L 171,117 L 172,116 L 181,116 L 182,117 L 184,117 L 185,116 L 185,114 L 184,113 L 184,89 L 185,88 L 185,87 L 186,86 L 186,84 L 185,83 L 185,82 L 181,78 L 177,78 Z" fill="none" stroke="black" stroke-width="1" /><path d="M 168,71 L 168,74 L 173,74 L 173,73 L 171,71 Z" fill="none" stroke="black" stroke-width="1" /><path d="M 211,58 L 210,59 L 210,61 L 211,62 L 211,70 L 210,71 L 210,73 L 211,74 L 256,74 L 256,58 Z" fill="none" stroke="black" stroke-width="1" /><path d="M 169,58 L 168,59 L 168,64 L 169,65 L 170,65 L 172,67 L 173,67 L 175,69 L 176,69 L 178,71 L 179,71 L 181,73 L 185,73 L 186,72 L 186,71 L 185,70 L 185,67 L 186,66 L 186,65 L 185,64 L 185,58 Z" fill="none" stroke="black" stroke-width="1" /><path d="M 145,57 L 144,58 L 126,58 L 126,59 L 125,60 L 125,62 L 126,63 L 126,66 L 125,67 L 125,73 L 126,74 L 163,74 L 164,73 L 164,71 L 165,70 L 165,69 L 164,68 L 164,67 L 161,64 L 160,64 L 158,62 L 157,62 L 155,60 L 154,60 L 152,58 L 147,58 L 146,57 Z" fill="none" stroke="black" stroke-width="1" /><path d="M 115,57 L 114,58 L 114,59 L 110,63 L 110,65 L 109,66 L 108,66 L 108,67 L 106,69 L 106,70 L 103,73 L 104,74 L 121,74 L 122,73 L 122,69 L 121,68 L 121,58 L 118,58 L 117,57 Z" fill="none" stroke="black" stroke-width="1" /><path d="M 84,57 L 84,58 L 83,59 L 83,70 L 82,71 L 82,73 L 83,74 L 96,74 L 97,73 L 97,72 L 99,70 L 99,69 L 100,68 L 100,66 L 101,65 L 101,59 L 100,58 L 98,58 L 97,57 L 96,57 L 95,58 L 87,58 L 86,57 Z" fill="none" stroke="black" stroke-width="1" /><path d="M 45,57 L 44,58 L 40,58 L 40,61 L 41,62 L 41,70 L 40,71 L 40,74 L 78,74 L 79,73 L 79,71 L 78,70 L 78,65 L 79,64 L 79,60 L 78,59 L 78,58 L 77,57 L 75,57 L 74,58 L 69,58 L 68,59 L 67,58 L 50,58 L 49,59 L 48,59 L 47,58 L 46,58 Z" fill="none" stroke="black" stroke-width="1" /><path d="M 0,57 L 0,74 L 37,74 L 37,71 L 36,70 L 36,62 L 37,61 L 37,58 L 34,58 L 33,57 L 32,57 L 31,58 L 14,58 L 13,57 L 11,57 L 10,58 L 3,58 L 2,57 Z" fill="none" stroke="black" stroke-width="1" /><path d="M 120,49 L 120,50 L 117,53 L 118,54 L 121,54 L 122,53 L 122,49 Z" fill="none" stroke="black" stroke-width="1" /><path d="M 126,42 L 126,51 L 125,52 L 125,53 L 126,54 L 143,54 L 144,53 L 143,52 L 142,52 L 140,50 L 139,50 L 135,46 L 134,46 L 132,44 L 130,44 L 129,43 L 129,42 Z" fill="none" stroke="black" stroke-width="1" /><path d="M 190,16 L 190,43 L 189,44 L 190,45 L 190,49 L 189,50 L 189,53 L 191,55 L 194,55 L 195,54 L 207,54 L 207,26 L 208,25 L 210,25 L 211,26 L 211,28 L 212,29 L 212,37 L 211,38 L 211,47 L 212,48 L 211,49 L 211,53 L 212,54 L 256,54 L 256,17 L 249,17 L 248,16 L 247,16 L 246,17 L 216,17 L 215,16 L 213,16 L 212,17 L 212,18 L 211,19 L 212,20 L 212,23 L 210,25 L 209,25 L 207,23 L 207,20 L 208,19 L 208,17 L 207,16 L 205,16 L 204,17 L 194,17 L 193,16 Z" fill="none" stroke="black" stroke-width="1" /><path d="M 170,16 L 169,17 L 169,19 L 168,20 L 168,21 L 169,22 L 169,40 L 168,41 L 168,48 L 169,49 L 169,50 L 168,51 L 168,54 L 185,54 L 185,51 L 186,50 L 186,45 L 185,44 L 185,34 L 186,33 L 186,29 L 185,28 L 186,27 L 186,22 L 187,21 L 187,19 L 186,18 L 186,17 L 185,17 L 184,16 L 183,16 L 182,17 L 173,17 L 172,16 Z" fill="none" stroke="black" stroke-width="1" /><path d="M 127,16 L 126,17 L 126,35 L 127,35 L 130,38 L 131,38 L 132,39 L 133,39 L 136,42 L 137,42 L 140,45 L 141,45 L 144,48 L 145,48 L 148,51 L 150,51 L 152,53 L 153,53 L 154,54 L 164,54 L 165,53 L 165,49 L 164,48 L 164,21 L 165,20 L 165,17 L 164,16 L 162,16 L 161,17 L 130,17 L 129,16 Z" fill="none" stroke="black" stroke-width="1" /><path d="M 105,16 L 104,17 L 104,20 L 105,21 L 105,40 L 104,41 L 104,53 L 105,54 L 109,54 L 111,52 L 111,51 L 113,49 L 113,48 L 114,47 L 115,47 L 115,46 L 118,43 L 118,42 L 119,41 L 119,40 L 120,39 L 120,36 L 121,35 L 121,34 L 123,32 L 123,31 L 121,29 L 121,26 L 122,25 L 122,17 L 121,16 L 119,16 L 118,17 L 109,17 L 108,16 Z" fill="none" stroke="black" stroke-width="1" /><path d="M 84,16 L 83,17 L 83,54 L 93,54 L 94,53 L 95,53 L 96,54 L 99,54 L 100,53 L 100,48 L 101,47 L 101,46 L 100,45 L 100,44 L 99,43 L 100,42 L 100,20 L 101,19 L 101,16 L 98,16 L 97,17 L 88,17 L 87,16 Z" fill="none" stroke="black" stroke-width="1" /><path d="M 213,0 L 212,1 L 212,6 L 213,7 L 213,8 L 211,10 L 211,12 L 212,13 L 214,13 L 215,12 L 238,12 L 239,13 L 247,13 L 248,12 L 249,12 L 250,13 L 251,12 L 256,12 L 256,0 Z" fill="none" stroke="black" stroke-width="1" /><path d="M 191,0 L 191,9 L 190,10 L 190,12 L 191,13 L 193,13 L 194,12 L 204,12 L 205,13 L 207,13 L 208,12 L 208,11 L 209,10 L 208,9 L 208,0 Z" fill="none" stroke="black" stroke-width="1" /><path d="M 169,0 L 169,8 L 168,9 L 168,11 L 170,13 L 172,13 L 173,12 L 182,12 L 183,13 L 186,13 L 187,12 L 187,10 L 186,9 L 186,0 Z" fill="none" stroke="black" stroke-width="1" /><path d="M 126,0 L 126,12 L 127,13 L 129,13 L 130,12 L 161,12 L 162,13 L 164,13 L 165,12 L 165,9 L 164,8 L 164,2 L 165,1 L 165,0 Z" fill="none" stroke="black" stroke-width="1" /><path d="M 105,0 L 105,3 L 104,4 L 104,5 L 105,6 L 105,9 L 104,10 L 104,11 L 106,13 L 108,13 L 109,12 L 118,12 L 119,13 L 121,13 L 123,11 L 123,9 L 122,8 L 122,0 Z" fill="none" stroke="black" stroke-width="1" /><path d="M 83,0 L 83,11 L 85,13 L 87,13 L 88,12 L 97,12 L 98,13 L 100,13 L 101,12 L 101,9 L 100,8 L 100,4 L 101,3 L 101,0 Z" fill="none" stroke="black" stroke-width="1" /><path d="M 41,0 L 41,6 L 40,7 L 41,8 L 40,9 L 40,11 L 42,13 L 44,13 L 45,12 L 75,12 L 76,13 L 79,13 L 79,10 L 80,9 L 79,8 L 79,0 Z" fill="none" stroke="black" stroke-width="1" /><path d="M 0,0 L 0,13 L 1,13 L 2,12 L 32,12 L 33,13 L 34,13 L 35,12 L 37,12 L 37,9 L 36,8 L 36,6 L 37,5 L 37,0 Z" fill="none" stroke="black" stroke-width="1" /></svg>