<?xml version='1.0' encoding='utf-8'?>
<svg width="260" height="216" xmlns="http://www.w3.org/2000/svg" viewBox="0 0 260 216"><rect width="260" height="216" fill="white" /><path d="M 35,0 L 34,1 L 34,5 L 33,6 L 33,10 L 32,11 L 32,13 L 31,14 L 31,25 L 32,26 L 32,28 L 33,29 L 33,30 L 35,32 L 35,33 L 36,34 L 36,36 L 37,37 L 38,37 L 42,41 L 42,42 L 40,44 L 34,44 L 32,46 L 30,46 L 28,48 L 27,48 L 26,49 L 25,49 L 14,60 L 12,60 L 11,59 L 11,58 L 8,55 L 7,55 L 5,53 L 4,53 L 0,49 L 0,48 L 0,53 L 1,54 L 2,54 L 4,56 L 5,56 L 8,59 L 9,59 L 10,60 L 10,63 L 8,65 L 5,65 L 3,67 L 0,67 L 0,70 L 1,70 L 2,69 L 5,69 L 6,68 L 7,68 L 8,67 L 9,67 L 10,66 L 12,66 L 15,69 L 15,70 L 16,71 L 16,74 L 17,75 L 17,83 L 16,84 L 16,88 L 13,91 L 13,92 L 12,93 L 12,94 L 8,98 L 8,99 L 6,101 L 6,102 L 5,103 L 5,104 L 4,105 L 4,106 L 2,108 L 2,113 L 1,114 L 1,116 L 2,117 L 2,123 L 1,124 L 1,125 L 0,126 L 0,129 L 2,129 L 4,131 L 4,133 L 6,135 L 6,136 L 7,137 L 7,138 L 8,138 L 9,139 L 9,140 L 11,142 L 12,142 L 13,143 L 14,143 L 20,149 L 20,150 L 24,154 L 24,156 L 25,157 L 25,158 L 26,159 L 26,162 L 28,164 L 28,165 L 27,166 L 27,167 L 26,168 L 26,169 L 25,170 L 22,170 L 19,173 L 18,173 L 17,174 L 16,174 L 6,184 L 5,184 L 3,186 L 0,186 L 0,189 L 3,189 L 5,187 L 6,187 L 7,186 L 8,186 L 14,180 L 15,180 L 17,178 L 17,177 L 21,173 L 22,173 L 23,172 L 24,172 L 25,171 L 26,172 L 26,176 L 24,178 L 24,179 L 23,180 L 23,181 L 22,182 L 22,183 L 21,184 L 21,185 L 17,189 L 17,190 L 15,192 L 15,193 L 13,195 L 13,196 L 12,197 L 12,202 L 11,203 L 11,207 L 12,208 L 12,214 L 13,215 L 15,215 L 15,209 L 14,208 L 14,207 L 13,206 L 13,202 L 14,201 L 14,200 L 16,198 L 16,196 L 17,195 L 17,194 L 20,191 L 20,190 L 23,187 L 23,186 L 26,183 L 26,182 L 27,181 L 27,180 L 28,179 L 28,178 L 29,177 L 29,172 L 33,168 L 35,168 L 36,167 L 37,168 L 40,168 L 41,169 L 47,169 L 49,171 L 50,171 L 52,173 L 53,173 L 54,174 L 55,174 L 56,175 L 57,175 L 58,176 L 58,177 L 56,179 L 56,180 L 54,182 L 54,184 L 53,185 L 53,188 L 52,189 L 52,191 L 53,192 L 53,195 L 52,196 L 52,202 L 53,203 L 53,204 L 54,205 L 54,207 L 56,209 L 56,213 L 57,213 L 59,215 L 65,215 L 64,214 L 63,214 L 61,212 L 61,211 L 59,209 L 59,208 L 57,206 L 57,205 L 55,203 L 55,202 L 56,201 L 56,200 L 55,199 L 55,197 L 56,196 L 56,186 L 57,185 L 57,184 L 58,183 L 58,182 L 59,181 L 65,181 L 66,182 L 67,182 L 68,183 L 71,183 L 72,184 L 82,184 L 83,183 L 85,183 L 86,182 L 87,182 L 88,181 L 89,181 L 90,182 L 93,179 L 96,179 L 97,178 L 98,178 L 101,175 L 103,175 L 104,176 L 104,180 L 103,181 L 103,182 L 102,183 L 102,187 L 103,188 L 103,194 L 104,195 L 104,198 L 106,200 L 106,201 L 111,206 L 111,207 L 115,211 L 116,211 L 120,215 L 123,215 L 119,211 L 119,210 L 117,208 L 116,208 L 112,204 L 112,203 L 107,198 L 107,197 L 106,196 L 106,193 L 105,192 L 105,184 L 106,183 L 105,182 L 105,181 L 106,180 L 106,179 L 107,178 L 107,177 L 108,176 L 108,174 L 109,173 L 109,172 L 110,171 L 111,171 L 111,170 L 117,164 L 117,163 L 118,162 L 119,162 L 120,161 L 126,161 L 127,160 L 133,160 L 134,161 L 135,161 L 136,162 L 137,162 L 138,163 L 139,163 L 140,164 L 141,164 L 142,165 L 143,165 L 145,167 L 147,167 L 150,170 L 150,171 L 151,172 L 151,173 L 152,174 L 152,177 L 151,178 L 151,184 L 152,185 L 152,188 L 154,190 L 154,192 L 157,195 L 157,198 L 160,201 L 160,202 L 164,206 L 165,206 L 170,211 L 170,212 L 172,214 L 172,215 L 175,215 L 175,214 L 173,212 L 173,210 L 170,207 L 169,207 L 166,204 L 166,203 L 160,197 L 160,196 L 159,195 L 159,193 L 157,191 L 157,188 L 155,186 L 155,185 L 154,184 L 154,182 L 153,181 L 153,178 L 154,177 L 155,177 L 156,176 L 159,176 L 161,178 L 167,178 L 168,179 L 170,179 L 171,178 L 175,178 L 176,177 L 178,177 L 179,176 L 180,176 L 181,175 L 182,175 L 183,174 L 184,174 L 186,172 L 189,172 L 190,173 L 190,185 L 191,186 L 191,187 L 192,188 L 192,190 L 195,193 L 195,194 L 198,197 L 199,197 L 204,202 L 205,202 L 207,204 L 207,205 L 208,205 L 210,207 L 210,209 L 212,211 L 212,215 L 215,215 L 215,211 L 214,210 L 214,209 L 212,207 L 212,206 L 211,206 L 210,205 L 210,204 L 209,203 L 209,202 L 208,201 L 207,201 L 200,194 L 199,194 L 197,192 L 197,191 L 194,188 L 194,187 L 193,186 L 193,174 L 192,173 L 192,170 L 193,169 L 193,167 L 195,165 L 195,163 L 198,160 L 199,160 L 200,159 L 201,159 L 202,158 L 203,158 L 204,157 L 206,157 L 207,156 L 208,156 L 209,155 L 213,155 L 214,154 L 215,154 L 216,155 L 224,155 L 226,157 L 227,157 L 228,158 L 229,158 L 230,159 L 231,159 L 232,160 L 232,164 L 231,165 L 231,166 L 230,167 L 230,181 L 232,183 L 232,185 L 233,186 L 233,187 L 234,188 L 234,190 L 235,191 L 235,192 L 236,193 L 237,193 L 242,198 L 243,198 L 244,199 L 244,200 L 245,201 L 246,201 L 247,202 L 247,203 L 250,206 L 250,207 L 252,209 L 252,210 L 253,211 L 253,212 L 254,213 L 254,215 L 257,215 L 257,213 L 256,212 L 256,211 L 253,208 L 253,206 L 250,203 L 250,202 L 246,198 L 246,197 L 245,197 L 244,196 L 244,195 L 239,190 L 238,190 L 237,189 L 237,187 L 235,185 L 235,184 L 234,183 L 234,181 L 233,180 L 233,173 L 232,172 L 232,170 L 233,169 L 233,168 L 236,165 L 238,165 L 242,169 L 243,169 L 244,170 L 249,170 L 250,171 L 259,171 L 259,168 L 256,168 L 255,169 L 254,169 L 253,168 L 246,168 L 241,163 L 241,162 L 239,160 L 239,158 L 240,157 L 240,156 L 243,153 L 243,152 L 244,151 L 244,150 L 245,149 L 245,148 L 246,147 L 246,144 L 247,143 L 247,142 L 249,140 L 249,129 L 248,128 L 248,125 L 247,124 L 247,122 L 243,118 L 243,117 L 239,113 L 239,111 L 240,110 L 242,110 L 243,111 L 245,111 L 246,112 L 247,111 L 259,111 L 259,109 L 258,108 L 254,108 L 253,109 L 250,109 L 249,108 L 240,108 L 238,106 L 237,106 L 235,104 L 234,104 L 231,101 L 231,100 L 230,100 L 229,99 L 229,98 L 228,98 L 225,95 L 225,94 L 224,93 L 224,87 L 223,86 L 223,84 L 224,83 L 224,82 L 225,81 L 225,77 L 227,75 L 227,74 L 229,72 L 229,70 L 230,69 L 230,68 L 234,64 L 234,63 L 235,62 L 235,60 L 237,58 L 237,55 L 238,54 L 238,53 L 239,52 L 239,51 L 240,50 L 240,49 L 241,48 L 241,44 L 242,43 L 244,43 L 247,46 L 248,46 L 249,47 L 254,47 L 255,48 L 258,48 L 259,49 L 259,46 L 253,46 L 251,44 L 250,44 L 249,43 L 248,43 L 247,42 L 246,42 L 245,41 L 244,41 L 241,38 L 241,37 L 239,35 L 239,34 L 231,26 L 231,25 L 230,24 L 230,23 L 228,21 L 227,21 L 224,18 L 224,17 L 219,12 L 219,9 L 217,7 L 217,1 L 216,0 L 214,0 L 214,4 L 215,5 L 215,9 L 216,10 L 216,12 L 218,14 L 218,16 L 223,21 L 224,21 L 226,23 L 227,23 L 229,25 L 229,26 L 227,28 L 219,28 L 218,29 L 213,29 L 212,30 L 209,30 L 208,31 L 207,31 L 203,35 L 203,36 L 200,39 L 199,38 L 198,38 L 197,37 L 197,36 L 196,35 L 196,34 L 194,32 L 194,31 L 191,28 L 191,27 L 186,22 L 185,22 L 181,18 L 181,17 L 179,15 L 179,14 L 177,12 L 177,11 L 176,10 L 176,8 L 175,7 L 175,3 L 174,2 L 174,0 L 172,0 L 172,6 L 173,7 L 173,8 L 174,9 L 174,10 L 175,11 L 175,13 L 176,14 L 176,16 L 179,19 L 180,19 L 181,20 L 181,21 L 182,22 L 182,23 L 185,26 L 186,26 L 191,31 L 191,32 L 193,34 L 193,35 L 194,36 L 194,37 L 196,39 L 196,43 L 193,46 L 192,46 L 188,50 L 186,50 L 184,52 L 180,52 L 179,53 L 172,53 L 171,54 L 170,54 L 169,53 L 168,53 L 167,52 L 164,52 L 161,49 L 161,45 L 160,44 L 160,43 L 159,42 L 159,40 L 155,36 L 155,33 L 154,32 L 153,32 L 149,28 L 148,28 L 145,25 L 145,24 L 141,20 L 141,19 L 140,18 L 140,17 L 139,16 L 139,12 L 138,11 L 138,9 L 137,8 L 137,2 L 138,1 L 138,0 L 136,0 L 136,2 L 134,4 L 134,8 L 135,9 L 135,11 L 136,12 L 136,16 L 137,17 L 137,18 L 138,19 L 138,20 L 139,21 L 139,22 L 141,24 L 141,26 L 150,35 L 151,35 L 156,40 L 156,41 L 158,43 L 158,47 L 157,48 L 156,48 L 153,45 L 153,43 L 152,43 L 149,40 L 147,40 L 146,39 L 145,39 L 143,37 L 139,37 L 138,36 L 135,36 L 134,37 L 133,37 L 132,36 L 127,36 L 126,37 L 124,37 L 123,38 L 122,38 L 121,39 L 119,39 L 116,42 L 115,42 L 112,45 L 110,45 L 109,44 L 109,43 L 108,42 L 108,41 L 98,31 L 98,30 L 96,28 L 96,27 L 93,24 L 93,23 L 92,22 L 92,21 L 91,20 L 91,19 L 90,18 L 90,17 L 89,16 L 89,5 L 91,3 L 91,0 L 89,0 L 88,1 L 88,6 L 87,7 L 87,8 L 86,9 L 86,15 L 87,16 L 87,17 L 88,18 L 88,21 L 89,22 L 89,23 L 90,24 L 90,25 L 93,28 L 93,29 L 97,33 L 97,34 L 99,36 L 100,36 L 102,38 L 102,39 L 108,45 L 108,46 L 109,47 L 108,48 L 108,49 L 106,51 L 105,51 L 101,55 L 100,55 L 98,57 L 97,57 L 96,58 L 95,58 L 94,59 L 93,59 L 92,60 L 83,60 L 82,59 L 79,59 L 78,58 L 74,58 L 73,57 L 72,57 L 69,54 L 68,54 L 62,48 L 61,48 L 59,46 L 57,46 L 56,45 L 54,45 L 53,44 L 50,44 L 49,43 L 48,43 L 47,42 L 46,42 L 45,41 L 45,40 L 44,39 L 43,39 L 40,36 L 40,35 L 38,33 L 38,32 L 37,31 L 37,30 L 35,28 L 35,25 L 33,23 L 33,17 L 34,16 L 34,14 L 35,13 L 35,9 L 36,8 L 36,5 L 38,3 L 38,2 L 39,1 L 39,0 Z" fill="black" /><path d="M 101,176 L 98,179 L 97,179 L 96,180 L 93,180 L 90,183 L 89,182 L 88,182 L 87,183 L 86,183 L 85,184 L 83,184 L 82,185 L 72,185 L 71,184 L 68,184 L 67,183 L 66,183 L 65,182 L 59,182 L 59,183 L 58,184 L 58,185 L 57,186 L 57,196 L 56,197 L 56,199 L 57,200 L 57,201 L 56,202 L 56,203 L 58,205 L 58,206 L 60,208 L 60,209 L 62,211 L 62,212 L 63,213 L 64,213 L 66,215 L 119,215 L 116,212 L 115,212 L 110,207 L 110,206 L 105,201 L 105,200 L 103,198 L 103,195 L 102,194 L 102,188 L 101,187 L 101,183 L 102,182 L 102,181 L 103,180 L 103,176 Z" fill="none" stroke="black" stroke-width="1" /><path d="M 186,173 L 184,175 L 183,175 L 182,176 L 181,176 L 180,177 L 179,177 L 178,178 L 176,178 L 175,179 L 171,179 L 170,180 L 168,180 L 167,179 L 161,179 L 159,177 L 156,177 L 155,178 L 154,178 L 154,181 L 155,182 L 155,184 L 156,185 L 156,186 L 158,188 L 158,191 L 160,193 L 160,195 L 161,196 L 161,197 L 167,203 L 167,204 L 169,206 L 170,206 L 174,210 L 174,212 L 176,214 L 176,215 L 211,215 L 211,211 L 209,209 L 209,207 L 208,206 L 207,206 L 206,205 L 206,204 L 205,203 L 204,203 L 199,198 L 198,198 L 194,194 L 194,193 L 191,190 L 191,188 L 190,187 L 190,186 L 189,185 L 189,173 Z" fill="none" stroke="black" stroke-width="1" /><path d="M 25,172 L 24,173 L 23,173 L 22,174 L 21,174 L 18,177 L 18,178 L 15,181 L 14,181 L 8,187 L 7,187 L 6,188 L 5,188 L 3,190 L 0,190 L 0,215 L 12,215 L 11,214 L 11,208 L 10,207 L 10,203 L 11,202 L 11,197 L 12,196 L 12,195 L 14,193 L 14,192 L 16,190 L 16,189 L 20,185 L 20,184 L 21,183 L 21,182 L 22,181 L 22,180 L 23,179 L 23,178 L 25,176 Z" fill="none" stroke="black" stroke-width="1" /><path d="M 36,168 L 35,169 L 33,169 L 30,172 L 30,177 L 29,178 L 29,179 L 28,180 L 28,181 L 27,182 L 27,183 L 24,186 L 24,187 L 21,190 L 21,191 L 18,194 L 18,195 L 17,196 L 17,198 L 15,200 L 15,201 L 14,202 L 14,206 L 15,207 L 15,208 L 16,209 L 16,215 L 58,215 L 57,214 L 56,214 L 55,213 L 55,209 L 53,207 L 53,205 L 52,204 L 52,203 L 51,202 L 51,196 L 52,195 L 52,192 L 51,191 L 51,189 L 52,188 L 52,185 L 53,184 L 53,182 L 55,180 L 55,179 L 57,177 L 57,176 L 56,176 L 55,175 L 54,175 L 53,174 L 52,174 L 50,172 L 49,172 L 47,170 L 41,170 L 40,169 L 37,169 Z" fill="none" stroke="black" stroke-width="1" /><path d="M 236,166 L 234,168 L 234,169 L 233,170 L 233,172 L 234,173 L 234,180 L 235,181 L 235,183 L 236,184 L 236,185 L 238,187 L 238,189 L 239,189 L 245,195 L 245,196 L 246,196 L 247,197 L 247,198 L 251,202 L 251,203 L 254,206 L 254,208 L 257,211 L 257,212 L 258,213 L 258,215 L 259,215 L 259,172 L 250,172 L 249,171 L 244,171 L 243,170 L 242,170 L 238,166 Z" fill="none" stroke="black" stroke-width="1" /><path d="M 127,161 L 126,162 L 120,162 L 119,163 L 118,163 L 118,164 L 112,170 L 112,171 L 111,172 L 110,172 L 110,173 L 109,174 L 109,176 L 108,177 L 108,178 L 107,179 L 107,180 L 106,181 L 106,182 L 107,183 L 106,184 L 106,192 L 107,193 L 107,196 L 108,197 L 108,198 L 113,203 L 113,204 L 116,207 L 117,207 L 120,210 L 120,211 L 124,215 L 171,215 L 171,214 L 169,212 L 169,211 L 165,207 L 164,207 L 159,202 L 159,201 L 156,198 L 156,195 L 153,192 L 153,190 L 151,188 L 151,185 L 150,184 L 150,178 L 151,177 L 151,174 L 150,173 L 150,172 L 149,171 L 149,170 L 147,168 L 145,168 L 143,166 L 142,166 L 141,165 L 140,165 L 139,164 L 138,164 L 137,163 L 136,163 L 135,162 L 134,162 L 133,161 Z" fill="none" stroke="black" stroke-width="1" /><path d="M 214,155 L 213,156 L 209,156 L 208,157 L 207,157 L 206,158 L 204,158 L 203,159 L 202,159 L 201,160 L 200,160 L 199,161 L 198,161 L 196,163 L 196,165 L 194,167 L 194,169 L 193,170 L 193,173 L 194,174 L 194,186 L 195,187 L 195,188 L 198,191 L 198,192 L 199,193 L 200,193 L 207,200 L 208,200 L 210,202 L 210,203 L 211,204 L 211,205 L 212,205 L 213,206 L 213,207 L 215,209 L 215,210 L 216,211 L 216,215 L 253,215 L 253,213 L 252,212 L 252,211 L 251,210 L 251,209 L 249,207 L 249,206 L 246,203 L 246,202 L 245,202 L 243,200 L 243,199 L 242,199 L 237,194 L 236,194 L 234,192 L 234,191 L 233,190 L 233,188 L 232,187 L 232,186 L 231,185 L 231,183 L 229,181 L 229,167 L 230,166 L 230,165 L 231,164 L 231,160 L 230,160 L 229,159 L 228,159 L 227,158 L 226,158 L 224,156 L 216,156 L 215,155 Z" fill="none" stroke="black" stroke-width="1" /><path d="M 0,130 L 0,185 L 3,185 L 5,183 L 6,183 L 16,173 L 17,173 L 18,172 L 19,172 L 22,169 L 25,169 L 25,168 L 26,167 L 26,166 L 27,165 L 27,164 L 25,162 L 25,159 L 24,158 L 24,157 L 23,156 L 23,154 L 19,150 L 19,149 L 14,144 L 13,144 L 12,143 L 11,143 L 8,140 L 8,139 L 7,139 L 6,138 L 6,137 L 5,136 L 5,135 L 3,133 L 3,131 L 2,130 Z" fill="none" stroke="black" stroke-width="1" /><path d="M 97,116 L 95,118 L 94,118 L 89,123 L 88,123 L 85,126 L 76,126 L 75,127 L 73,127 L 72,128 L 67,128 L 66,127 L 65,127 L 64,126 L 61,126 L 59,124 L 58,124 L 56,122 L 55,122 L 53,120 L 52,120 L 49,117 L 48,117 L 48,119 L 53,124 L 53,125 L 63,135 L 63,136 L 64,136 L 67,139 L 67,140 L 69,142 L 69,143 L 70,144 L 70,146 L 71,147 L 71,148 L 72,149 L 72,154 L 71,155 L 71,158 L 70,159 L 70,162 L 69,163 L 69,166 L 68,167 L 68,168 L 67,169 L 67,170 L 65,172 L 65,176 L 66,177 L 68,177 L 70,179 L 73,179 L 74,180 L 82,180 L 83,179 L 88,179 L 90,177 L 92,177 L 93,176 L 94,176 L 96,174 L 97,174 L 104,167 L 105,167 L 106,166 L 107,166 L 108,165 L 109,165 L 111,163 L 112,163 L 115,160 L 115,157 L 117,155 L 117,154 L 118,153 L 118,149 L 119,148 L 119,142 L 118,141 L 118,138 L 115,135 L 115,134 L 114,133 L 114,132 L 113,131 L 113,129 L 110,126 L 109,126 L 105,122 L 104,122 L 101,119 L 101,118 L 99,116 Z" fill="none" stroke="black" stroke-width="1" /><path d="M 240,111 L 240,113 L 244,117 L 244,118 L 248,122 L 248,124 L 249,125 L 249,128 L 250,129 L 250,140 L 248,142 L 248,143 L 247,144 L 247,147 L 246,148 L 246,149 L 245,150 L 245,151 L 244,152 L 244,153 L 241,156 L 241,157 L 240,158 L 240,160 L 242,162 L 242,163 L 246,167 L 253,167 L 254,168 L 255,168 L 256,167 L 259,167 L 259,112 L 247,112 L 246,113 L 245,112 L 243,112 L 242,111 Z" fill="none" stroke="black" stroke-width="1" /><path d="M 186,106 L 185,107 L 185,108 L 176,117 L 175,117 L 174,118 L 173,118 L 172,119 L 168,119 L 167,120 L 164,120 L 164,122 L 168,126 L 168,127 L 169,128 L 169,129 L 171,131 L 171,132 L 172,133 L 172,137 L 171,138 L 171,139 L 172,140 L 172,144 L 171,145 L 171,148 L 170,149 L 170,151 L 169,152 L 169,153 L 168,154 L 168,156 L 166,158 L 166,159 L 165,160 L 165,161 L 164,162 L 164,163 L 161,166 L 160,166 L 160,167 L 159,168 L 159,169 L 158,170 L 158,173 L 161,173 L 163,175 L 174,175 L 175,174 L 176,174 L 177,173 L 178,173 L 179,172 L 180,172 L 181,171 L 182,171 L 188,165 L 189,165 L 191,163 L 191,162 L 193,160 L 193,158 L 194,157 L 195,157 L 195,156 L 197,154 L 197,153 L 199,151 L 199,150 L 203,146 L 203,142 L 204,141 L 204,138 L 205,137 L 205,129 L 203,127 L 203,126 L 202,125 L 202,124 L 200,122 L 200,121 L 197,118 L 197,117 L 188,108 L 188,107 L 187,106 Z" fill="none" stroke="black" stroke-width="1" /><path d="M 122,103 L 121,104 L 121,106 L 124,109 L 124,111 L 126,113 L 126,114 L 128,116 L 128,117 L 130,119 L 130,121 L 131,122 L 131,123 L 134,123 L 134,122 L 137,119 L 137,118 L 138,117 L 139,117 L 139,116 L 141,114 L 141,113 L 140,112 L 139,112 L 138,111 L 138,110 L 137,109 L 136,109 L 135,108 L 134,108 L 131,105 L 130,105 L 129,104 L 124,104 L 123,103 Z" fill="none" stroke="black" stroke-width="1" /><path d="M 112,103 L 105,110 L 104,110 L 103,111 L 103,114 L 104,115 L 105,115 L 108,118 L 108,119 L 110,121 L 111,121 L 116,126 L 116,127 L 117,128 L 117,129 L 118,130 L 118,131 L 122,135 L 122,143 L 123,144 L 123,152 L 122,153 L 122,159 L 124,159 L 126,157 L 138,157 L 140,159 L 143,159 L 146,162 L 146,163 L 149,163 L 150,164 L 150,165 L 151,165 L 152,166 L 154,166 L 157,163 L 157,162 L 158,161 L 158,160 L 159,159 L 159,158 L 160,157 L 161,157 L 161,156 L 162,155 L 162,154 L 165,151 L 165,148 L 166,147 L 166,146 L 167,145 L 167,133 L 166,132 L 166,131 L 165,130 L 165,129 L 161,125 L 161,124 L 157,120 L 156,120 L 155,119 L 154,119 L 151,116 L 148,116 L 147,117 L 146,117 L 145,118 L 144,118 L 144,119 L 141,122 L 141,123 L 138,126 L 138,127 L 137,128 L 136,128 L 136,129 L 134,131 L 134,132 L 133,133 L 131,133 L 130,132 L 130,130 L 127,127 L 127,126 L 126,125 L 126,124 L 125,123 L 125,122 L 123,120 L 123,118 L 121,116 L 121,114 L 119,112 L 119,110 L 117,108 L 117,106 L 114,103 Z" fill="none" stroke="black" stroke-width="1" /><path d="M 208,95 L 207,96 L 202,96 L 200,98 L 197,98 L 195,100 L 193,100 L 192,101 L 191,101 L 190,102 L 190,103 L 191,104 L 191,105 L 197,111 L 197,112 L 198,112 L 203,117 L 203,118 L 204,119 L 204,120 L 207,123 L 207,124 L 208,125 L 208,127 L 209,128 L 209,130 L 210,131 L 210,135 L 209,136 L 209,140 L 208,141 L 208,145 L 207,146 L 207,147 L 206,148 L 206,149 L 204,151 L 204,154 L 205,154 L 206,153 L 208,153 L 209,152 L 210,152 L 211,151 L 225,151 L 226,152 L 227,152 L 228,153 L 230,153 L 231,154 L 232,154 L 233,155 L 236,155 L 238,153 L 238,152 L 239,151 L 239,150 L 241,148 L 241,147 L 243,145 L 243,142 L 245,140 L 245,134 L 246,133 L 246,131 L 245,130 L 245,127 L 244,126 L 244,124 L 241,121 L 241,120 L 237,116 L 237,115 L 235,113 L 235,112 L 234,112 L 233,111 L 232,111 L 229,108 L 228,108 L 227,107 L 227,106 L 224,103 L 224,102 L 223,101 L 223,100 L 221,98 L 220,98 L 219,97 L 217,97 L 216,96 L 210,96 L 209,95 Z" fill="none" stroke="black" stroke-width="1" /><path d="M 103,83 L 102,84 L 102,86 L 100,88 L 100,91 L 99,92 L 99,93 L 98,94 L 98,103 L 100,105 L 104,105 L 108,101 L 109,101 L 110,100 L 112,100 L 112,98 L 111,97 L 111,96 L 110,95 L 110,94 L 109,93 L 109,92 L 108,91 L 108,90 L 107,89 L 107,88 L 105,86 L 105,84 L 104,83 Z" fill="none" stroke="black" stroke-width="1" /><path d="M 151,81 L 148,84 L 148,87 L 147,88 L 147,89 L 148,90 L 148,95 L 147,96 L 147,99 L 148,100 L 148,103 L 150,103 L 150,102 L 153,99 L 153,98 L 157,94 L 157,93 L 161,89 L 161,88 L 163,86 L 164,86 L 166,84 L 166,82 L 158,82 L 157,81 L 156,81 L 155,82 L 154,81 Z" fill="none" stroke="black" stroke-width="1" /><path d="M 110,78 L 108,80 L 108,82 L 110,84 L 110,85 L 111,86 L 111,87 L 114,90 L 114,94 L 118,98 L 118,99 L 127,99 L 128,100 L 132,100 L 133,101 L 135,101 L 137,103 L 138,103 L 140,105 L 140,106 L 142,108 L 143,108 L 144,109 L 145,109 L 145,108 L 146,107 L 145,106 L 145,105 L 143,103 L 143,93 L 142,92 L 142,90 L 143,89 L 143,88 L 142,87 L 143,86 L 143,83 L 144,82 L 144,81 L 143,80 L 132,80 L 131,79 L 122,79 L 121,78 Z" fill="none" stroke="black" stroke-width="1" /><path d="M 10,67 L 9,68 L 8,68 L 7,69 L 6,69 L 5,70 L 2,70 L 1,71 L 0,71 L 0,125 L 0,124 L 1,123 L 1,117 L 0,116 L 0,114 L 1,113 L 1,108 L 3,106 L 3,105 L 4,104 L 4,103 L 5,102 L 5,101 L 7,99 L 7,98 L 11,94 L 11,93 L 12,92 L 12,91 L 15,88 L 15,84 L 16,83 L 16,75 L 15,74 L 15,71 L 14,70 L 14,69 L 12,67 Z" fill="none" stroke="black" stroke-width="1" /><path d="M 0,54 L 0,66 L 3,66 L 5,64 L 8,64 L 9,63 L 9,60 L 8,60 L 5,57 L 4,57 L 2,55 L 1,55 Z" fill="none" stroke="black" stroke-width="1" /><path d="M 59,51 L 58,52 L 58,55 L 59,56 L 59,57 L 60,58 L 60,72 L 59,73 L 59,76 L 58,77 L 58,80 L 57,81 L 57,82 L 56,83 L 56,84 L 54,86 L 54,87 L 50,91 L 50,92 L 49,93 L 49,94 L 46,97 L 46,109 L 48,111 L 49,111 L 53,115 L 54,115 L 56,117 L 57,117 L 59,119 L 61,119 L 63,121 L 64,121 L 65,122 L 66,122 L 67,123 L 70,123 L 71,122 L 79,122 L 80,121 L 83,121 L 85,119 L 88,119 L 89,118 L 89,117 L 95,111 L 95,106 L 94,105 L 94,104 L 93,103 L 93,94 L 95,92 L 95,86 L 96,85 L 96,84 L 97,83 L 97,82 L 99,80 L 99,77 L 97,75 L 97,74 L 99,72 L 106,72 L 108,70 L 108,68 L 109,67 L 109,65 L 111,63 L 111,54 L 110,53 L 110,52 L 108,52 L 108,53 L 104,57 L 103,57 L 100,60 L 99,60 L 98,61 L 96,61 L 95,62 L 94,62 L 93,63 L 87,63 L 86,64 L 83,64 L 82,63 L 80,63 L 79,62 L 75,62 L 74,61 L 72,61 L 71,60 L 70,60 L 68,58 L 66,58 L 62,54 L 62,53 L 61,52 L 60,52 Z" fill="none" stroke="black" stroke-width="1" /><path d="M 194,48 L 194,49 L 192,51 L 191,51 L 188,54 L 185,54 L 184,55 L 182,55 L 181,56 L 179,56 L 178,57 L 170,57 L 169,56 L 164,56 L 163,57 L 163,59 L 162,60 L 162,65 L 160,67 L 160,68 L 158,70 L 158,71 L 157,72 L 156,72 L 153,75 L 153,76 L 154,77 L 156,77 L 157,76 L 158,76 L 159,77 L 173,77 L 174,78 L 174,82 L 168,88 L 168,89 L 166,91 L 166,92 L 164,94 L 164,95 L 163,96 L 162,96 L 162,97 L 161,98 L 160,98 L 160,99 L 158,101 L 158,102 L 156,104 L 156,105 L 155,106 L 154,106 L 151,109 L 155,113 L 156,113 L 158,115 L 170,115 L 172,113 L 173,113 L 174,112 L 175,112 L 183,104 L 183,101 L 181,99 L 181,97 L 180,96 L 180,95 L 179,94 L 179,93 L 180,92 L 179,91 L 179,88 L 180,87 L 180,78 L 181,77 L 181,76 L 182,75 L 182,74 L 183,73 L 183,72 L 185,70 L 185,69 L 187,67 L 187,66 L 190,63 L 190,62 L 191,61 L 191,60 L 193,58 L 193,57 L 194,56 L 194,55 L 195,54 L 195,51 L 197,49 L 196,48 Z" fill="none" stroke="black" stroke-width="1" /><path d="M 40,46 L 39,47 L 37,47 L 36,48 L 34,48 L 33,49 L 32,49 L 31,50 L 30,50 L 28,52 L 27,52 L 17,62 L 16,62 L 16,65 L 18,67 L 18,68 L 19,69 L 19,72 L 20,73 L 20,86 L 19,87 L 19,89 L 18,90 L 18,91 L 17,92 L 17,94 L 14,97 L 14,98 L 12,100 L 12,101 L 7,106 L 7,107 L 6,108 L 6,110 L 5,111 L 5,113 L 4,114 L 4,118 L 5,119 L 9,115 L 10,115 L 14,111 L 16,111 L 17,110 L 18,110 L 19,109 L 20,109 L 21,108 L 22,108 L 23,107 L 40,107 L 41,106 L 41,98 L 42,97 L 42,96 L 43,95 L 43,93 L 45,91 L 45,89 L 47,87 L 47,86 L 48,85 L 49,85 L 49,84 L 51,82 L 51,81 L 53,79 L 53,78 L 54,77 L 54,75 L 55,74 L 55,68 L 56,67 L 56,63 L 55,62 L 55,57 L 54,56 L 54,54 L 53,53 L 53,52 L 51,50 L 50,50 L 49,49 L 49,48 L 47,46 Z" fill="none" stroke="black" stroke-width="1" /><path d="M 242,44 L 242,48 L 241,49 L 241,50 L 240,51 L 240,52 L 239,53 L 239,54 L 238,55 L 238,58 L 236,60 L 236,62 L 235,63 L 235,64 L 231,68 L 231,69 L 230,70 L 230,72 L 228,74 L 228,75 L 226,77 L 226,81 L 225,82 L 225,83 L 224,84 L 224,86 L 225,87 L 225,93 L 226,94 L 226,95 L 228,97 L 229,97 L 230,98 L 230,99 L 231,99 L 232,100 L 232,101 L 234,103 L 235,103 L 237,105 L 238,105 L 240,107 L 249,107 L 250,108 L 253,108 L 254,107 L 258,107 L 259,108 L 259,50 L 258,49 L 255,49 L 254,48 L 249,48 L 248,47 L 247,47 L 244,44 Z" fill="none" stroke="black" stroke-width="1" /><path d="M 130,39 L 129,40 L 125,40 L 124,41 L 123,41 L 122,42 L 121,42 L 120,43 L 119,43 L 118,44 L 117,44 L 113,48 L 113,50 L 114,51 L 114,52 L 115,53 L 115,55 L 116,56 L 116,66 L 110,72 L 110,73 L 116,73 L 117,74 L 126,74 L 127,75 L 142,75 L 143,76 L 148,76 L 149,75 L 150,75 L 150,73 L 151,72 L 151,71 L 153,69 L 153,68 L 155,66 L 155,64 L 156,63 L 157,63 L 157,61 L 158,60 L 158,53 L 157,52 L 156,52 L 150,46 L 149,46 L 148,45 L 148,44 L 146,44 L 144,42 L 142,42 L 140,40 L 135,40 L 134,39 Z" fill="none" stroke="black" stroke-width="1" /><path d="M 219,31 L 218,32 L 214,32 L 213,33 L 212,33 L 211,34 L 209,34 L 208,35 L 207,35 L 207,36 L 199,44 L 199,56 L 198,57 L 198,59 L 196,61 L 196,63 L 193,66 L 193,67 L 192,68 L 192,69 L 189,72 L 188,72 L 188,75 L 186,77 L 186,80 L 185,81 L 185,85 L 184,86 L 184,93 L 187,96 L 187,97 L 188,98 L 189,98 L 190,97 L 191,97 L 193,95 L 196,95 L 197,94 L 198,94 L 199,93 L 200,93 L 201,92 L 207,92 L 208,91 L 215,91 L 216,92 L 220,92 L 221,91 L 221,90 L 220,89 L 220,78 L 221,77 L 221,74 L 224,71 L 224,70 L 225,69 L 225,68 L 230,63 L 230,62 L 232,60 L 232,59 L 233,58 L 233,57 L 235,55 L 235,51 L 237,49 L 237,44 L 236,43 L 236,42 L 237,41 L 236,40 L 236,39 L 235,38 L 235,37 L 232,34 L 231,34 L 230,33 L 228,33 L 227,32 L 221,32 L 220,31 Z" fill="none" stroke="black" stroke-width="1" /><path d="M 217,0 L 218,1 L 218,7 L 220,9 L 220,12 L 225,17 L 225,18 L 227,20 L 228,20 L 231,23 L 231,24 L 232,25 L 232,26 L 240,34 L 240,35 L 242,37 L 242,38 L 244,40 L 245,40 L 246,41 L 247,41 L 248,42 L 249,42 L 250,43 L 251,43 L 253,45 L 259,45 L 259,0 Z" fill="none" stroke="black" stroke-width="1" /><path d="M 175,0 L 175,2 L 176,3 L 176,7 L 177,8 L 177,10 L 178,11 L 178,12 L 180,14 L 180,15 L 182,17 L 182,18 L 185,21 L 186,21 L 192,27 L 192,28 L 195,31 L 195,32 L 197,34 L 197,35 L 198,36 L 198,37 L 199,37 L 200,38 L 202,36 L 202,35 L 207,30 L 208,30 L 209,29 L 212,29 L 213,28 L 218,28 L 219,27 L 227,27 L 228,26 L 228,25 L 227,24 L 226,24 L 224,22 L 223,22 L 217,16 L 217,14 L 215,12 L 215,10 L 214,9 L 214,5 L 213,4 L 213,0 Z" fill="none" stroke="black" stroke-width="1" /><path d="M 139,0 L 139,1 L 138,2 L 138,8 L 139,9 L 139,11 L 140,12 L 140,16 L 141,17 L 141,18 L 142,19 L 142,20 L 146,24 L 146,25 L 148,27 L 149,27 L 153,31 L 154,31 L 156,33 L 156,36 L 160,40 L 160,42 L 161,43 L 161,44 L 162,45 L 162,49 L 164,51 L 167,51 L 168,52 L 169,52 L 170,53 L 171,53 L 172,52 L 179,52 L 180,51 L 184,51 L 186,49 L 188,49 L 192,45 L 193,45 L 195,43 L 195,39 L 193,37 L 193,36 L 192,35 L 192,34 L 190,32 L 190,31 L 186,27 L 185,27 L 181,23 L 181,22 L 180,21 L 180,20 L 179,20 L 175,16 L 175,14 L 174,13 L 174,11 L 173,10 L 173,9 L 172,8 L 172,7 L 171,6 L 171,0 Z" fill="none" stroke="black" stroke-width="1" /><path d="M 92,0 L 92,3 L 90,5 L 90,16 L 91,17 L 91,18 L 92,19 L 92,20 L 93,21 L 93,22 L 94,23 L 94,24 L 97,27 L 97,28 L 99,30 L 99,31 L 109,41 L 109,42 L 110,43 L 110,44 L 112,44 L 115,41 L 116,41 L 119,38 L 121,38 L 122,37 L 123,37 L 124,36 L 126,36 L 127,35 L 132,35 L 133,36 L 134,36 L 135,35 L 138,35 L 139,36 L 143,36 L 145,38 L 146,38 L 147,39 L 149,39 L 152,42 L 153,42 L 154,43 L 154,45 L 156,47 L 157,47 L 157,43 L 155,41 L 155,40 L 151,36 L 150,36 L 140,26 L 140,24 L 138,22 L 138,21 L 137,20 L 137,19 L 136,18 L 136,17 L 135,16 L 135,12 L 134,11 L 134,9 L 133,8 L 133,4 L 135,2 L 135,0 Z" fill="none" stroke="black" stroke-width="1" /><path d="M 40,0 L 40,1 L 39,2 L 39,3 L 37,5 L 37,8 L 36,9 L 36,13 L 35,14 L 35,16 L 34,17 L 34,23 L 36,25 L 36,28 L 38,30 L 38,31 L 39,32 L 39,33 L 41,35 L 41,36 L 43,38 L 44,38 L 46,40 L 46,41 L 47,41 L 48,42 L 49,42 L 50,43 L 53,43 L 54,44 L 56,44 L 57,45 L 59,45 L 61,47 L 62,47 L 68,53 L 69,53 L 72,56 L 73,56 L 74,57 L 78,57 L 79,58 L 82,58 L 83,59 L 92,59 L 93,58 L 94,58 L 95,57 L 96,57 L 97,56 L 98,56 L 100,54 L 101,54 L 105,50 L 106,50 L 107,49 L 107,48 L 108,47 L 107,46 L 107,45 L 101,39 L 101,38 L 100,37 L 99,37 L 96,34 L 96,33 L 92,29 L 92,28 L 89,25 L 89,24 L 88,23 L 88,22 L 87,21 L 87,18 L 86,17 L 86,16 L 85,15 L 85,9 L 86,8 L 86,7 L 87,6 L 87,1 L 88,0 Z" fill="none" stroke="black" stroke-width="1" /></svg>