<?xml version='1.0' encoding='utf-8'?>
<svg width="260" height="216" xmlns="http://www.w3.org/2000/svg" viewBox="0 0 260 216"><rect width="260" height="216" fill="white" /><circle cx="120" cy="115" r="146" fill="black" /><path d="M 60,0 L 55,5 L 55,6 L 54,7 L 54,8 L 51,11 L 51,12 L 48,15 L 48,16 L 44,20 L 44,22 L 38,28 L 38,30 L 33,35 L 33,36 L 32,37 L 32,38 L 29,41 L 29,42 L 26,45 L 26,46 L 22,50 L 22,51 L 21,52 L 21,53 L 17,57 L 17,58 L 15,60 L 15,61 L 13,63 L 13,64 L 11,66 L 11,67 L 5,73 L 5,74 L 2,77 L 2,78 L 1,79 L 1,80 L 0,81 L 0,84 L 4,80 L 4,79 L 6,77 L 6,76 L 10,72 L 10,71 L 11,70 L 12,70 L 13,69 L 13,68 L 14,67 L 14,66 L 16,64 L 16,63 L 20,59 L 20,58 L 22,56 L 22,55 L 24,53 L 24,52 L 27,49 L 27,48 L 31,44 L 31,43 L 33,41 L 33,40 L 35,38 L 35,37 L 40,32 L 40,31 L 41,30 L 41,29 L 44,26 L 44,25 L 47,22 L 47,21 L 50,18 L 50,17 L 53,14 L 53,13 L 56,10 L 56,9 L 58,7 L 58,6 L 62,2 L 62,1 L 63,0 Z" fill="black" /><path d="M 164,164 L 163,165 L 158,165 L 157,166 L 146,166 L 145,167 L 138,167 L 137,168 L 128,168 L 127,169 L 126,169 L 126,173 L 127,174 L 127,175 L 128,176 L 128,179 L 129,180 L 129,181 L 130,182 L 130,186 L 131,187 L 131,190 L 132,191 L 132,197 L 133,198 L 133,202 L 134,203 L 134,205 L 135,206 L 134,207 L 134,208 L 135,209 L 135,210 L 136,211 L 136,215 L 165,215 L 165,209 L 166,208 L 166,207 L 167,206 L 167,200 L 168,199 L 168,195 L 169,194 L 169,189 L 170,188 L 170,187 L 171,186 L 171,179 L 172,178 L 172,176 L 173,175 L 173,168 L 174,167 L 174,164 Z" fill="none" stroke="black" stroke-width="1" /><path d="M 187,119 L 187,126 L 186,127 L 186,130 L 185,131 L 185,137 L 184,138 L 184,139 L 183,140 L 183,144 L 182,145 L 182,149 L 181,150 L 181,152 L 180,153 L 180,157 L 190,157 L 191,156 L 196,156 L 197,155 L 209,155 L 210,154 L 213,154 L 214,153 L 213,152 L 213,151 L 211,149 L 211,148 L 210,148 L 209,147 L 209,146 L 207,144 L 207,143 L 203,139 L 203,138 L 199,134 L 199,133 L 197,131 L 197,130 L 196,130 L 195,129 L 195,128 L 194,127 L 194,126 L 191,123 L 191,122 L 189,120 L 189,119 Z" fill="none" stroke="black" stroke-width="1" /><path d="M 255,116 L 255,117 L 254,118 L 254,120 L 253,121 L 253,122 L 252,123 L 252,126 L 250,128 L 250,130 L 249,131 L 249,132 L 248,133 L 248,136 L 247,137 L 247,138 L 246,139 L 246,141 L 245,142 L 245,143 L 244,144 L 244,146 L 242,148 L 242,151 L 241,152 L 241,153 L 240,154 L 240,156 L 239,157 L 239,158 L 238,159 L 238,161 L 237,162 L 237,163 L 236,164 L 236,166 L 235,167 L 235,168 L 234,169 L 234,171 L 233,172 L 233,173 L 232,174 L 232,177 L 231,178 L 231,179 L 230,180 L 230,182 L 229,183 L 229,184 L 228,185 L 228,188 L 227,189 L 227,190 L 226,191 L 226,192 L 225,193 L 225,195 L 224,196 L 224,198 L 223,199 L 223,201 L 222,202 L 222,203 L 221,204 L 221,205 L 220,206 L 220,208 L 219,209 L 219,210 L 218,211 L 218,214 L 217,215 L 259,215 L 259,116 Z" fill="none" stroke="black" stroke-width="1" /><path d="M 194,116 L 193,117 L 196,120 L 196,121 L 197,121 L 198,122 L 198,123 L 200,125 L 200,126 L 202,128 L 202,129 L 203,129 L 204,130 L 204,131 L 205,132 L 205,133 L 210,138 L 210,139 L 213,142 L 213,143 L 214,144 L 214,145 L 215,145 L 216,146 L 216,147 L 219,150 L 219,151 L 221,153 L 223,153 L 224,154 L 224,155 L 225,156 L 223,158 L 218,158 L 217,159 L 212,159 L 211,160 L 200,160 L 199,161 L 194,161 L 193,162 L 183,162 L 182,163 L 180,163 L 178,165 L 178,169 L 177,170 L 177,172 L 176,173 L 176,180 L 175,181 L 175,184 L 174,185 L 174,192 L 173,193 L 173,194 L 172,195 L 172,202 L 171,203 L 171,204 L 170,205 L 170,212 L 169,213 L 169,214 L 168,215 L 212,215 L 212,214 L 213,213 L 213,212 L 214,211 L 214,210 L 215,209 L 215,206 L 216,205 L 216,204 L 217,203 L 217,201 L 218,200 L 218,198 L 219,197 L 219,196 L 220,195 L 220,194 L 221,193 L 221,191 L 222,190 L 222,188 L 223,187 L 223,186 L 224,185 L 224,184 L 225,183 L 225,180 L 226,179 L 226,178 L 227,177 L 227,175 L 228,174 L 228,173 L 229,172 L 229,169 L 230,168 L 230,167 L 231,166 L 231,165 L 232,164 L 232,163 L 233,162 L 233,159 L 234,158 L 234,157 L 235,156 L 235,155 L 236,154 L 236,151 L 237,150 L 237,148 L 238,147 L 238,146 L 239,145 L 239,144 L 240,143 L 240,142 L 241,141 L 241,139 L 242,138 L 242,137 L 243,136 L 243,134 L 244,133 L 244,132 L 245,131 L 245,129 L 246,128 L 246,127 L 247,126 L 247,123 L 249,121 L 249,116 L 246,116 L 245,117 L 229,117 L 228,116 L 226,116 L 225,117 L 224,116 L 221,116 L 220,117 L 217,117 L 216,116 Z" fill="none" stroke="black" stroke-width="1" /><path d="M 114,114 L 113,115 L 113,116 L 114,117 L 114,118 L 115,119 L 115,122 L 116,123 L 116,128 L 117,129 L 117,130 L 118,131 L 118,136 L 119,137 L 119,140 L 120,141 L 120,145 L 121,146 L 121,149 L 122,150 L 122,152 L 123,153 L 123,158 L 124,159 L 124,163 L 125,164 L 127,164 L 128,163 L 137,163 L 138,162 L 143,162 L 144,161 L 153,161 L 154,160 L 161,160 L 162,159 L 171,159 L 172,158 L 176,158 L 177,157 L 177,154 L 176,153 L 176,151 L 177,150 L 177,148 L 178,147 L 178,145 L 179,144 L 179,139 L 180,138 L 180,136 L 181,135 L 181,129 L 182,128 L 182,127 L 183,126 L 183,125 L 182,124 L 182,122 L 183,121 L 183,120 L 184,119 L 184,116 L 183,115 L 180,115 L 179,116 L 155,116 L 154,115 L 145,115 L 144,116 L 142,116 L 141,115 L 138,115 L 137,116 L 136,116 L 135,115 L 117,115 L 116,114 Z" fill="none" stroke="black" stroke-width="1" /><path d="M 86,114 L 84,116 L 84,118 L 82,120 L 82,121 L 81,122 L 81,123 L 80,124 L 80,125 L 79,126 L 79,127 L 78,128 L 78,129 L 76,131 L 76,132 L 74,134 L 74,136 L 72,138 L 72,139 L 71,140 L 71,141 L 70,142 L 70,143 L 68,145 L 68,147 L 66,149 L 66,151 L 65,152 L 64,152 L 64,154 L 62,156 L 62,157 L 61,158 L 61,159 L 60,160 L 60,161 L 59,162 L 59,163 L 58,164 L 58,165 L 57,166 L 57,167 L 56,168 L 56,169 L 55,170 L 55,171 L 65,171 L 66,170 L 71,170 L 72,169 L 81,169 L 82,168 L 88,168 L 89,167 L 101,167 L 102,166 L 107,166 L 108,165 L 120,165 L 121,164 L 121,162 L 120,161 L 120,160 L 119,159 L 119,157 L 118,156 L 118,155 L 119,154 L 118,153 L 118,151 L 117,150 L 117,146 L 116,145 L 116,143 L 115,142 L 115,136 L 114,135 L 114,134 L 113,133 L 113,128 L 112,127 L 112,125 L 111,124 L 111,123 L 110,122 L 110,117 L 109,116 L 109,115 L 108,114 L 106,114 L 105,115 L 90,115 L 89,114 Z" fill="none" stroke="black" stroke-width="1" /><path d="M 48,114 L 48,115 L 47,116 L 47,117 L 45,119 L 45,122 L 44,123 L 44,127 L 43,128 L 43,129 L 42,130 L 42,133 L 41,134 L 41,135 L 40,136 L 40,140 L 39,141 L 39,142 L 38,143 L 38,148 L 37,149 L 37,150 L 36,151 L 36,153 L 35,154 L 35,156 L 34,157 L 34,160 L 33,161 L 33,162 L 32,163 L 32,167 L 31,168 L 31,169 L 30,170 L 30,174 L 29,175 L 29,176 L 28,177 L 28,181 L 27,182 L 27,184 L 26,185 L 26,186 L 25,187 L 25,192 L 24,193 L 24,194 L 23,195 L 23,196 L 22,197 L 22,198 L 21,199 L 21,204 L 20,205 L 20,206 L 19,207 L 19,211 L 18,212 L 18,213 L 17,214 L 17,215 L 132,215 L 132,213 L 131,212 L 131,210 L 130,209 L 131,208 L 130,207 L 130,204 L 129,203 L 129,197 L 128,196 L 128,195 L 127,194 L 127,189 L 126,188 L 126,186 L 125,185 L 125,181 L 124,180 L 124,178 L 123,177 L 123,175 L 122,174 L 123,173 L 123,171 L 122,170 L 112,170 L 111,171 L 106,171 L 105,172 L 92,172 L 91,173 L 85,173 L 84,174 L 72,174 L 71,175 L 66,175 L 65,176 L 55,176 L 54,177 L 48,177 L 47,176 L 47,171 L 49,169 L 49,168 L 50,167 L 50,166 L 51,165 L 51,164 L 52,163 L 52,162 L 53,161 L 53,160 L 54,159 L 54,158 L 55,157 L 55,156 L 56,155 L 57,155 L 57,153 L 59,151 L 59,149 L 61,147 L 61,146 L 63,144 L 63,142 L 65,140 L 65,139 L 67,137 L 67,135 L 69,133 L 69,132 L 70,131 L 70,130 L 71,129 L 71,128 L 72,127 L 72,126 L 73,125 L 73,124 L 75,122 L 75,120 L 76,119 L 77,119 L 77,118 L 78,117 L 78,114 L 75,114 L 74,115 L 52,115 L 51,114 Z" fill="none" stroke="black" stroke-width="1" /><path d="M 0,114 L 0,215 L 12,215 L 13,214 L 13,213 L 14,212 L 14,208 L 15,207 L 15,205 L 16,204 L 16,203 L 17,202 L 17,200 L 18,199 L 18,195 L 19,194 L 19,193 L 20,192 L 20,189 L 21,188 L 21,187 L 22,186 L 22,183 L 23,182 L 23,180 L 24,179 L 24,178 L 25,177 L 25,173 L 26,172 L 26,171 L 27,170 L 27,166 L 28,165 L 28,163 L 29,162 L 29,159 L 30,158 L 30,155 L 31,154 L 31,152 L 32,151 L 32,150 L 33,149 L 33,145 L 34,144 L 34,143 L 35,142 L 35,138 L 36,137 L 36,136 L 37,135 L 37,131 L 38,130 L 38,129 L 39,128 L 39,125 L 40,124 L 40,123 L 41,122 L 41,118 L 42,117 L 42,116 L 43,115 L 43,114 L 40,114 L 39,115 L 22,115 L 21,114 L 19,114 L 18,115 L 13,115 L 12,114 L 10,114 L 9,115 L 5,115 L 4,114 Z" fill="none" stroke="black" stroke-width="1" /><path d="M 101,84 L 101,85 L 100,86 L 100,88 L 98,90 L 98,91 L 96,93 L 96,95 L 94,97 L 94,98 L 92,100 L 92,101 L 91,102 L 91,103 L 90,104 L 90,107 L 88,109 L 88,111 L 91,111 L 92,110 L 105,110 L 106,111 L 108,111 L 109,110 L 108,109 L 108,108 L 107,107 L 107,104 L 106,103 L 106,99 L 105,98 L 105,96 L 104,95 L 104,90 L 103,89 L 103,84 Z" fill="none" stroke="black" stroke-width="1" /><path d="M 204,40 L 203,41 L 203,42 L 202,43 L 202,50 L 201,51 L 201,56 L 200,57 L 200,61 L 199,62 L 199,64 L 198,65 L 198,70 L 197,71 L 197,74 L 196,75 L 196,80 L 195,81 L 195,83 L 194,84 L 194,91 L 193,92 L 193,94 L 192,95 L 192,98 L 191,99 L 191,103 L 190,104 L 190,107 L 189,108 L 189,110 L 191,112 L 200,112 L 201,111 L 211,111 L 212,112 L 219,112 L 220,111 L 221,112 L 246,112 L 247,113 L 250,113 L 252,111 L 252,110 L 253,109 L 253,107 L 254,106 L 254,105 L 255,104 L 255,102 L 257,100 L 257,98 L 258,97 L 258,95 L 259,94 L 259,70 L 256,70 L 252,66 L 251,66 L 250,65 L 248,65 L 247,64 L 246,64 L 245,63 L 244,63 L 242,61 L 241,61 L 240,60 L 238,60 L 236,58 L 235,58 L 233,56 L 231,56 L 230,55 L 229,55 L 226,52 L 224,52 L 222,50 L 221,50 L 219,48 L 216,48 L 213,45 L 212,45 L 211,44 L 210,44 L 208,42 L 207,42 L 205,40 Z" fill="none" stroke="black" stroke-width="1" /><path d="M 127,38 L 127,39 L 126,40 L 126,41 L 124,43 L 124,45 L 122,47 L 122,48 L 120,50 L 120,52 L 118,54 L 118,55 L 116,57 L 116,59 L 115,60 L 114,60 L 114,62 L 112,64 L 112,66 L 110,68 L 110,69 L 109,70 L 109,71 L 108,72 L 108,73 L 107,74 L 107,75 L 106,76 L 106,77 L 105,78 L 105,81 L 106,82 L 106,85 L 107,86 L 107,88 L 108,89 L 108,90 L 109,91 L 109,96 L 110,97 L 110,100 L 111,101 L 111,106 L 112,107 L 112,110 L 113,111 L 116,111 L 117,110 L 118,110 L 119,111 L 128,111 L 129,110 L 130,111 L 133,111 L 134,110 L 135,110 L 136,111 L 142,111 L 143,110 L 144,110 L 145,111 L 178,111 L 179,112 L 183,112 L 183,111 L 182,110 L 182,109 L 181,108 L 180,108 L 179,107 L 179,106 L 178,105 L 178,104 L 175,101 L 175,100 L 174,100 L 173,99 L 173,98 L 171,96 L 171,95 L 169,93 L 169,92 L 167,90 L 167,89 L 163,85 L 163,84 L 161,82 L 161,81 L 159,79 L 159,78 L 158,78 L 157,77 L 157,76 L 155,74 L 155,73 L 153,71 L 153,70 L 152,70 L 151,69 L 151,68 L 149,66 L 149,64 L 148,64 L 147,63 L 147,62 L 145,60 L 145,59 L 143,57 L 143,56 L 139,52 L 139,51 L 137,49 L 137,48 L 134,45 L 134,44 L 131,41 L 131,40 L 129,38 Z" fill="none" stroke="black" stroke-width="1" /><path d="M 212,0 L 211,1 L 211,3 L 210,4 L 210,9 L 209,10 L 209,12 L 208,13 L 208,14 L 209,15 L 208,16 L 208,18 L 207,19 L 207,24 L 206,25 L 206,30 L 205,31 L 205,32 L 204,33 L 204,36 L 205,37 L 208,37 L 211,40 L 212,40 L 213,41 L 214,41 L 215,42 L 216,42 L 217,43 L 218,43 L 219,44 L 220,44 L 221,45 L 222,45 L 224,47 L 226,47 L 228,49 L 229,49 L 230,50 L 231,50 L 233,52 L 234,52 L 235,53 L 236,53 L 237,54 L 238,54 L 239,55 L 240,55 L 242,57 L 243,57 L 245,59 L 247,59 L 248,60 L 249,60 L 251,62 L 252,62 L 253,63 L 254,63 L 255,64 L 256,64 L 258,66 L 259,66 L 259,0 Z" fill="none" stroke="black" stroke-width="1" /><path d="M 139,0 L 140,0 L 141,1 L 142,1 L 144,3 L 145,3 L 147,5 L 149,5 L 151,7 L 152,7 L 153,8 L 154,8 L 155,9 L 156,9 L 158,11 L 160,11 L 162,13 L 164,13 L 166,15 L 168,15 L 170,17 L 171,17 L 173,19 L 175,19 L 177,21 L 178,21 L 179,22 L 180,22 L 181,23 L 182,23 L 184,25 L 186,25 L 188,27 L 189,27 L 190,28 L 191,28 L 192,29 L 193,29 L 194,30 L 195,30 L 196,31 L 197,31 L 199,33 L 200,33 L 201,32 L 201,29 L 202,28 L 202,23 L 203,22 L 203,17 L 204,16 L 204,15 L 205,14 L 205,7 L 206,6 L 206,3 L 207,2 L 207,1 L 208,0 Z" fill="none" stroke="black" stroke-width="1" /><path d="M 87,0 L 88,1 L 88,3 L 89,4 L 88,5 L 89,6 L 89,8 L 90,9 L 90,11 L 91,12 L 91,17 L 92,18 L 92,20 L 93,21 L 93,26 L 94,27 L 94,29 L 95,30 L 95,35 L 96,36 L 96,38 L 97,39 L 97,44 L 98,45 L 98,47 L 99,48 L 99,52 L 100,53 L 100,57 L 101,58 L 101,62 L 102,63 L 102,66 L 103,67 L 103,68 L 104,69 L 105,68 L 105,66 L 107,64 L 107,62 L 109,60 L 109,58 L 110,57 L 111,57 L 111,55 L 113,53 L 113,51 L 115,49 L 115,48 L 116,47 L 116,46 L 117,45 L 117,44 L 119,42 L 119,41 L 121,39 L 121,38 L 122,37 L 122,36 L 123,35 L 123,34 L 125,32 L 125,31 L 127,29 L 129,29 L 130,30 L 130,31 L 134,35 L 134,36 L 136,38 L 136,39 L 141,44 L 141,45 L 144,48 L 144,50 L 148,54 L 148,55 L 150,57 L 151,57 L 152,58 L 152,59 L 153,60 L 153,61 L 156,64 L 156,65 L 157,66 L 157,67 L 158,67 L 159,68 L 159,69 L 160,70 L 160,71 L 161,71 L 162,72 L 162,73 L 163,74 L 163,75 L 166,78 L 166,79 L 167,80 L 167,81 L 172,86 L 172,87 L 174,89 L 174,90 L 176,92 L 176,93 L 179,96 L 179,97 L 182,100 L 182,101 L 183,101 L 184,102 L 184,104 L 187,104 L 187,97 L 188,96 L 188,93 L 189,92 L 189,87 L 190,86 L 190,84 L 191,83 L 191,78 L 192,77 L 192,75 L 193,74 L 193,68 L 194,67 L 194,63 L 195,62 L 195,59 L 196,58 L 196,53 L 197,52 L 197,49 L 198,48 L 198,46 L 199,45 L 199,40 L 200,39 L 200,38 L 198,36 L 196,36 L 194,34 L 193,34 L 192,33 L 191,33 L 190,32 L 189,32 L 188,31 L 187,31 L 186,30 L 185,30 L 183,28 L 180,28 L 178,26 L 177,26 L 174,23 L 171,23 L 168,20 L 167,20 L 165,18 L 162,18 L 160,16 L 159,16 L 158,15 L 157,15 L 156,14 L 155,14 L 154,13 L 153,13 L 151,11 L 150,11 L 149,10 L 148,10 L 147,9 L 146,9 L 145,8 L 144,8 L 142,6 L 141,6 L 140,5 L 139,5 L 138,4 L 137,4 L 136,3 L 135,3 L 134,2 L 133,2 L 131,0 Z" fill="none" stroke="black" stroke-width="1" /><path d="M 82,0 L 82,2 L 81,3 L 81,7 L 80,8 L 80,9 L 79,10 L 79,12 L 78,13 L 78,14 L 77,15 L 77,18 L 76,19 L 76,23 L 75,24 L 75,26 L 74,27 L 75,28 L 74,29 L 74,30 L 73,31 L 73,32 L 72,33 L 72,35 L 71,36 L 71,39 L 70,40 L 70,41 L 69,42 L 69,44 L 68,45 L 68,48 L 67,49 L 67,51 L 66,52 L 66,54 L 65,55 L 65,57 L 64,58 L 64,62 L 62,64 L 62,69 L 60,71 L 60,74 L 59,75 L 59,76 L 58,77 L 58,81 L 56,83 L 56,88 L 55,89 L 55,90 L 54,91 L 54,94 L 53,95 L 53,97 L 52,98 L 52,100 L 51,101 L 51,102 L 50,103 L 50,106 L 49,107 L 49,108 L 48,109 L 48,110 L 49,111 L 51,111 L 52,110 L 76,110 L 77,111 L 81,111 L 82,110 L 82,108 L 83,107 L 83,106 L 84,105 L 84,104 L 85,103 L 85,102 L 87,100 L 87,98 L 89,96 L 89,95 L 91,93 L 91,91 L 93,89 L 93,88 L 94,87 L 94,86 L 95,85 L 95,84 L 96,83 L 96,82 L 97,81 L 97,80 L 99,78 L 99,76 L 100,75 L 100,71 L 99,70 L 99,66 L 98,65 L 98,63 L 97,62 L 97,61 L 96,60 L 96,55 L 95,54 L 95,52 L 94,51 L 94,46 L 93,45 L 93,43 L 92,42 L 92,38 L 91,37 L 91,35 L 90,34 L 90,29 L 89,28 L 89,26 L 88,25 L 88,20 L 87,19 L 87,17 L 86,16 L 86,10 L 85,9 L 85,8 L 84,7 L 84,6 L 85,5 L 84,4 L 84,1 L 83,0 Z" fill="none" stroke="black" stroke-width="1" /><path d="M 64,0 L 63,1 L 63,2 L 59,6 L 59,7 L 57,9 L 57,10 L 54,13 L 54,14 L 51,17 L 51,18 L 48,21 L 48,22 L 45,25 L 45,26 L 42,29 L 42,30 L 41,31 L 41,32 L 36,37 L 36,38 L 34,40 L 34,41 L 32,43 L 32,44 L 28,48 L 28,49 L 25,52 L 25,53 L 23,55 L 23,56 L 21,58 L 21,59 L 17,63 L 17,64 L 15,66 L 15,67 L 14,68 L 14,69 L 12,71 L 11,71 L 11,72 L 7,76 L 7,77 L 5,79 L 5,80 L 0,85 L 0,110 L 40,110 L 41,111 L 43,111 L 45,109 L 45,105 L 46,104 L 46,103 L 47,102 L 47,97 L 49,95 L 49,91 L 50,90 L 50,89 L 51,88 L 51,85 L 52,84 L 52,83 L 53,82 L 53,79 L 54,78 L 54,77 L 55,76 L 55,73 L 56,72 L 56,71 L 57,70 L 57,67 L 58,66 L 58,64 L 59,63 L 59,60 L 60,59 L 60,58 L 61,57 L 61,54 L 62,53 L 62,51 L 63,50 L 63,47 L 64,46 L 64,45 L 65,44 L 65,41 L 66,40 L 66,38 L 67,37 L 67,35 L 68,34 L 68,31 L 69,30 L 69,29 L 70,28 L 70,27 L 71,26 L 71,21 L 72,20 L 72,17 L 73,16 L 73,15 L 74,14 L 74,11 L 75,10 L 75,9 L 76,8 L 76,6 L 77,5 L 77,3 L 78,2 L 78,1 L 79,0 Z" fill="none" stroke="black" stroke-width="1" /><path d="M 0,0 L 0,80 L 0,79 L 1,78 L 1,77 L 4,74 L 4,73 L 10,67 L 10,66 L 12,64 L 12,63 L 14,61 L 14,60 L 16,58 L 16,57 L 20,53 L 20,52 L 21,51 L 21,50 L 25,46 L 25,45 L 28,42 L 28,41 L 31,38 L 31,37 L 32,36 L 32,35 L 37,30 L 37,28 L 43,22 L 43,20 L 47,16 L 47,15 L 50,12 L 50,11 L 53,8 L 53,7 L 54,6 L 54,5 L 59,0 Z" fill="none" stroke="black" stroke-width="1" /></svg>