<?xml version='1.0' encoding='utf-8'?>
<svg width="260" height="218" xmlns="http://www.w3.org/2000/svg" viewBox="0 0 260 218"><rect width="260" height="218" fill="white" /><path d="M 207,212 L 206,213 L 206,214 L 205,215 L 204,215 L 202,217 L 205,217 L 207,215 L 208,215 L 209,214 L 209,213 L 208,212 Z" fill="black" /><path d="M 259,192 L 257,194 L 256,194 L 256,195 L 254,197 L 253,197 L 244,206 L 244,208 L 243,209 L 241,209 L 240,210 L 240,211 L 238,213 L 237,213 L 233,217 L 237,217 L 243,211 L 243,209 L 244,208 L 246,208 L 258,196 L 258,195 L 259,194 Z" fill="black" /><path d="M 257,163 L 256,164 L 256,166 L 253,169 L 252,169 L 247,174 L 246,174 L 246,175 L 241,180 L 240,180 L 239,181 L 239,182 L 237,184 L 236,184 L 234,186 L 233,186 L 233,187 L 228,192 L 228,193 L 226,195 L 225,195 L 216,204 L 216,205 L 215,206 L 213,206 L 212,207 L 212,208 L 210,210 L 211,211 L 212,211 L 215,208 L 215,207 L 217,205 L 218,205 L 219,204 L 220,204 L 221,203 L 221,202 L 225,198 L 226,198 L 227,197 L 227,196 L 228,195 L 229,195 L 232,192 L 232,191 L 236,187 L 237,187 L 247,177 L 248,177 L 249,176 L 249,175 L 252,172 L 253,172 L 256,169 L 256,168 L 258,166 L 259,166 L 259,164 L 258,163 Z" fill="black" /><path d="M 259,132 L 221,170 L 220,170 L 215,175 L 215,176 L 213,178 L 212,178 L 209,181 L 208,181 L 208,182 L 203,187 L 202,187 L 190,199 L 190,200 L 188,202 L 187,202 L 175,214 L 174,214 L 173,215 L 173,216 L 172,217 L 176,217 L 176,216 L 183,209 L 184,209 L 212,181 L 213,181 L 230,164 L 231,164 L 231,163 L 234,160 L 235,160 L 236,159 L 236,158 L 238,156 L 239,156 L 241,154 L 241,153 L 243,151 L 244,151 L 257,138 L 257,137 L 259,135 Z" fill="black" /><path d="M 127,0 L 121,6 L 121,7 L 118,10 L 117,10 L 98,29 L 97,29 L 78,48 L 77,48 L 77,49 L 73,53 L 72,53 L 71,54 L 71,55 L 69,57 L 68,57 L 60,65 L 59,65 L 46,78 L 45,78 L 45,79 L 42,82 L 41,82 L 30,93 L 29,93 L 28,94 L 28,95 L 26,97 L 25,97 L 24,98 L 24,99 L 22,101 L 21,101 L 10,112 L 9,112 L 8,113 L 8,114 L 5,117 L 4,117 L 0,121 L 0,124 L 0,123 L 1,122 L 3,122 L 9,116 L 10,116 L 11,115 L 11,114 L 15,110 L 16,110 L 19,107 L 19,106 L 21,104 L 22,104 L 34,92 L 35,92 L 36,91 L 36,90 L 41,85 L 42,85 L 43,84 L 44,85 L 45,85 L 46,86 L 46,87 L 47,88 L 47,89 L 48,89 L 49,90 L 49,91 L 53,95 L 53,96 L 55,98 L 55,99 L 54,100 L 53,100 L 51,102 L 50,102 L 49,103 L 49,104 L 47,106 L 46,106 L 42,110 L 42,111 L 39,114 L 38,114 L 35,117 L 34,117 L 33,118 L 33,119 L 28,124 L 27,124 L 24,127 L 24,128 L 23,129 L 22,129 L 16,135 L 16,136 L 15,137 L 14,137 L 11,140 L 10,140 L 9,141 L 9,142 L 3,148 L 2,148 L 1,149 L 1,150 L 0,151 L 0,153 L 1,153 L 3,151 L 4,151 L 5,150 L 5,149 L 6,148 L 7,148 L 9,146 L 9,145 L 10,144 L 11,144 L 16,139 L 17,139 L 18,138 L 18,137 L 24,131 L 25,131 L 25,130 L 29,126 L 30,126 L 30,125 L 35,120 L 36,120 L 50,106 L 51,106 L 52,105 L 52,104 L 55,101 L 58,101 L 61,104 L 61,105 L 63,107 L 63,108 L 67,112 L 67,115 L 65,117 L 64,117 L 63,118 L 63,119 L 60,122 L 59,122 L 55,126 L 55,127 L 50,132 L 49,132 L 39,142 L 38,142 L 37,143 L 37,144 L 34,147 L 33,147 L 33,148 L 30,151 L 29,151 L 21,159 L 20,159 L 18,161 L 18,162 L 17,163 L 16,163 L 12,167 L 12,168 L 11,169 L 10,169 L 3,176 L 3,177 L 1,179 L 0,179 L 0,183 L 22,161 L 23,161 L 32,152 L 33,152 L 35,150 L 35,149 L 36,148 L 37,148 L 54,131 L 55,131 L 56,130 L 56,129 L 58,127 L 59,127 L 64,122 L 64,121 L 68,117 L 71,117 L 74,120 L 74,121 L 79,126 L 79,127 L 81,129 L 81,131 L 80,132 L 79,132 L 78,133 L 77,133 L 75,135 L 75,136 L 73,138 L 72,138 L 71,139 L 71,140 L 67,144 L 66,144 L 63,147 L 63,148 L 59,152 L 58,152 L 53,157 L 52,157 L 52,158 L 50,160 L 49,160 L 48,161 L 48,162 L 45,165 L 44,165 L 37,172 L 36,172 L 35,173 L 35,174 L 31,178 L 30,178 L 25,183 L 25,184 L 22,187 L 21,187 L 17,191 L 17,192 L 16,193 L 15,193 L 10,198 L 9,198 L 8,199 L 8,200 L 5,203 L 4,203 L 0,207 L 0,211 L 14,197 L 15,197 L 28,184 L 29,184 L 47,166 L 48,166 L 48,165 L 50,163 L 51,163 L 67,147 L 68,147 L 78,137 L 78,136 L 82,132 L 83,132 L 89,138 L 89,139 L 90,139 L 91,140 L 91,141 L 94,144 L 94,145 L 93,146 L 93,147 L 88,152 L 87,152 L 86,153 L 86,154 L 85,155 L 84,155 L 80,159 L 80,160 L 77,163 L 76,163 L 70,169 L 70,170 L 69,171 L 68,171 L 66,173 L 66,174 L 65,175 L 64,175 L 53,186 L 52,186 L 49,189 L 49,190 L 47,192 L 46,192 L 42,196 L 41,196 L 41,198 L 39,200 L 38,200 L 37,201 L 36,201 L 36,202 L 33,205 L 33,206 L 31,208 L 30,208 L 29,209 L 28,209 L 23,214 L 23,215 L 21,217 L 24,217 L 29,212 L 30,212 L 46,196 L 47,196 L 49,194 L 49,193 L 51,191 L 52,191 L 77,166 L 78,166 L 84,160 L 84,159 L 87,156 L 88,156 L 88,155 L 94,149 L 95,149 L 96,148 L 97,148 L 99,150 L 99,151 L 100,151 L 101,152 L 101,153 L 102,153 L 103,154 L 103,155 L 106,158 L 106,159 L 107,160 L 107,161 L 108,162 L 108,164 L 107,165 L 106,165 L 105,166 L 104,166 L 101,169 L 100,169 L 100,170 L 94,176 L 93,176 L 93,177 L 90,180 L 89,180 L 89,181 L 85,185 L 84,185 L 69,200 L 68,200 L 67,201 L 67,202 L 65,204 L 64,204 L 60,208 L 59,208 L 57,210 L 57,211 L 56,212 L 56,213 L 55,214 L 54,214 L 54,215 L 52,217 L 55,217 L 67,205 L 68,205 L 71,202 L 71,201 L 72,200 L 73,200 L 75,198 L 75,197 L 76,196 L 77,196 L 79,194 L 79,193 L 80,192 L 81,192 L 94,179 L 95,179 L 98,176 L 98,175 L 100,173 L 101,173 L 107,167 L 107,166 L 109,164 L 111,164 L 113,166 L 113,167 L 114,167 L 115,168 L 115,169 L 119,173 L 119,174 L 121,176 L 121,178 L 116,183 L 115,183 L 106,192 L 106,193 L 105,194 L 104,194 L 102,196 L 101,196 L 99,198 L 99,199 L 94,204 L 93,204 L 93,205 L 91,207 L 90,207 L 88,209 L 88,210 L 86,212 L 85,212 L 80,217 L 84,217 L 96,205 L 97,205 L 98,204 L 98,203 L 102,199 L 103,199 L 106,196 L 106,195 L 107,194 L 108,194 L 114,188 L 114,187 L 115,186 L 116,186 L 122,180 L 124,180 L 131,187 L 131,188 L 135,192 L 135,194 L 133,196 L 132,196 L 130,198 L 130,199 L 128,201 L 127,201 L 122,206 L 121,206 L 121,207 L 115,213 L 114,213 L 113,214 L 113,215 L 111,217 L 114,217 L 126,205 L 127,205 L 133,199 L 133,198 L 136,195 L 137,195 L 141,199 L 141,200 L 145,204 L 145,205 L 146,205 L 149,208 L 149,210 L 145,214 L 144,214 L 142,216 L 141,216 L 140,217 L 145,217 L 152,210 L 152,209 L 156,205 L 157,205 L 169,193 L 170,193 L 170,192 L 177,185 L 178,185 L 183,180 L 184,180 L 185,179 L 185,178 L 202,161 L 203,161 L 219,145 L 220,145 L 228,137 L 228,136 L 233,131 L 234,131 L 255,110 L 256,110 L 257,109 L 257,108 L 259,106 L 259,104 L 258,104 L 251,111 L 250,111 L 249,112 L 249,113 L 245,117 L 244,117 L 230,131 L 230,132 L 228,134 L 227,134 L 215,146 L 214,146 L 214,147 L 212,149 L 211,149 L 208,152 L 208,153 L 206,155 L 205,155 L 205,156 L 203,158 L 202,158 L 201,159 L 201,160 L 200,161 L 199,161 L 198,162 L 197,162 L 196,163 L 196,164 L 192,168 L 191,168 L 191,169 L 183,177 L 182,177 L 182,178 L 179,181 L 178,181 L 172,187 L 171,187 L 171,188 L 169,190 L 168,190 L 167,191 L 167,192 L 165,194 L 164,194 L 163,195 L 163,196 L 155,204 L 155,205 L 154,206 L 153,206 L 152,205 L 152,203 L 154,201 L 154,198 L 156,196 L 156,195 L 157,194 L 157,193 L 158,192 L 158,191 L 159,190 L 159,189 L 160,188 L 160,187 L 161,186 L 161,185 L 162,184 L 162,181 L 164,179 L 164,177 L 165,176 L 165,175 L 166,174 L 166,172 L 168,170 L 168,168 L 169,167 L 169,166 L 170,165 L 170,164 L 171,163 L 171,162 L 172,161 L 172,160 L 173,159 L 175,159 L 181,153 L 181,152 L 182,151 L 183,151 L 201,133 L 202,133 L 206,129 L 206,128 L 209,125 L 210,125 L 211,124 L 211,123 L 213,121 L 214,121 L 238,97 L 239,97 L 240,96 L 240,95 L 242,93 L 243,93 L 253,83 L 254,83 L 254,82 L 258,78 L 259,78 L 259,74 L 247,86 L 246,86 L 245,87 L 245,88 L 243,90 L 242,90 L 239,93 L 238,93 L 238,94 L 232,100 L 231,100 L 205,126 L 204,126 L 199,131 L 199,132 L 189,142 L 188,142 L 178,152 L 177,152 L 176,151 L 176,148 L 177,147 L 178,147 L 178,144 L 180,142 L 180,140 L 181,139 L 181,138 L 182,137 L 182,136 L 183,135 L 183,134 L 184,133 L 184,131 L 185,130 L 185,129 L 186,128 L 186,126 L 187,125 L 187,124 L 188,123 L 188,120 L 190,118 L 190,116 L 191,115 L 191,114 L 192,113 L 192,112 L 195,109 L 196,109 L 196,108 L 197,107 L 198,107 L 202,103 L 203,103 L 203,102 L 232,73 L 233,73 L 241,65 L 242,65 L 259,48 L 259,45 L 257,47 L 256,47 L 237,66 L 236,66 L 222,80 L 221,80 L 220,81 L 220,82 L 216,86 L 215,86 L 207,94 L 207,95 L 199,103 L 198,103 L 197,102 L 197,100 L 198,99 L 198,98 L 199,97 L 199,96 L 200,95 L 200,94 L 201,93 L 201,91 L 203,89 L 203,86 L 204,85 L 204,84 L 206,82 L 206,79 L 208,77 L 208,74 L 209,73 L 210,73 L 210,70 L 211,69 L 211,68 L 212,67 L 212,66 L 213,65 L 213,64 L 214,63 L 214,62 L 217,59 L 218,59 L 230,47 L 231,47 L 232,46 L 232,45 L 234,43 L 235,43 L 245,33 L 246,33 L 246,32 L 248,30 L 249,30 L 259,20 L 259,16 L 237,38 L 236,38 L 221,53 L 220,53 L 219,52 L 219,50 L 220,49 L 220,48 L 221,47 L 221,46 L 222,45 L 222,44 L 223,43 L 223,42 L 224,41 L 224,40 L 225,39 L 225,38 L 226,37 L 226,32 L 225,31 L 224,32 L 223,32 L 223,33 L 222,34 L 221,34 L 220,35 L 219,35 L 218,36 L 213,36 L 212,35 L 216,31 L 217,31 L 219,29 L 220,29 L 220,28 L 224,24 L 225,24 L 226,23 L 226,22 L 229,19 L 230,19 L 232,17 L 232,16 L 237,11 L 238,11 L 239,10 L 239,9 L 241,7 L 242,7 L 249,0 L 245,0 L 211,34 L 210,34 L 207,37 L 207,38 L 206,39 L 205,39 L 204,40 L 201,40 L 200,41 L 197,41 L 196,42 L 194,42 L 192,44 L 187,44 L 185,46 L 181,46 L 180,47 L 177,47 L 176,48 L 172,48 L 171,47 L 171,46 L 173,44 L 174,44 L 178,40 L 179,40 L 182,37 L 182,36 L 185,33 L 186,33 L 205,14 L 206,14 L 207,13 L 207,12 L 213,6 L 214,6 L 216,4 L 216,3 L 219,0 L 216,0 L 200,16 L 199,16 L 194,21 L 194,22 L 190,26 L 189,26 L 171,44 L 170,44 L 170,45 L 168,47 L 167,47 L 167,48 L 165,50 L 164,50 L 163,51 L 161,51 L 160,52 L 158,52 L 157,53 L 156,53 L 155,54 L 149,54 L 148,55 L 145,55 L 144,56 L 142,56 L 141,57 L 139,57 L 138,58 L 136,58 L 134,60 L 132,60 L 130,58 L 135,53 L 136,53 L 157,32 L 158,32 L 159,31 L 159,30 L 163,26 L 164,26 L 165,25 L 165,24 L 167,22 L 168,22 L 190,0 L 187,0 L 184,3 L 183,3 L 155,31 L 154,31 L 153,32 L 153,33 L 147,39 L 146,39 L 145,40 L 145,41 L 142,44 L 141,44 L 131,54 L 129,54 L 129,57 L 126,60 L 125,60 L 123,62 L 121,62 L 120,63 L 118,63 L 117,64 L 113,64 L 111,66 L 106,66 L 105,67 L 104,67 L 103,68 L 101,68 L 100,69 L 98,69 L 97,70 L 93,70 L 91,72 L 89,72 L 88,71 L 88,70 L 92,66 L 93,66 L 106,53 L 107,53 L 108,52 L 108,51 L 114,45 L 115,45 L 130,30 L 131,30 L 154,7 L 155,7 L 156,6 L 156,5 L 157,4 L 158,4 L 162,0 L 158,0 L 150,8 L 149,8 L 148,9 L 148,10 L 144,14 L 143,14 L 127,30 L 126,30 L 126,31 L 120,37 L 119,37 L 119,38 L 117,40 L 116,40 L 109,47 L 108,47 L 107,48 L 107,49 L 101,55 L 100,55 L 94,61 L 94,62 L 92,64 L 91,64 L 89,66 L 88,66 L 88,67 L 85,70 L 85,71 L 84,72 L 82,72 L 80,74 L 79,74 L 78,75 L 77,75 L 76,76 L 72,76 L 71,77 L 70,77 L 69,78 L 65,78 L 64,79 L 63,79 L 62,80 L 58,80 L 56,82 L 52,82 L 50,84 L 46,84 L 44,82 L 46,80 L 47,80 L 51,76 L 52,76 L 65,63 L 66,63 L 86,43 L 87,43 L 106,24 L 107,24 L 108,23 L 108,22 L 113,17 L 114,17 L 131,0 Z" fill="black" /><path d="M 99,0 L 98,1 L 97,1 L 79,19 L 78,19 L 60,37 L 59,37 L 40,56 L 39,56 L 38,57 L 38,58 L 37,59 L 36,59 L 26,69 L 25,69 L 13,81 L 12,81 L 11,82 L 11,83 L 8,86 L 7,86 L 0,93 L 0,96 L 1,96 L 2,95 L 2,94 L 5,91 L 6,91 L 17,80 L 18,80 L 29,69 L 30,69 L 30,68 L 32,66 L 33,66 L 35,64 L 35,63 L 37,61 L 38,61 L 41,58 L 42,58 L 43,57 L 43,56 L 49,50 L 50,50 L 70,30 L 71,30 L 73,28 L 73,27 L 76,24 L 77,24 L 89,12 L 90,12 L 91,11 L 91,10 L 94,7 L 95,7 L 102,0 Z" fill="black" /><path d="M 68,0 L 61,7 L 60,7 L 57,10 L 57,11 L 53,15 L 52,15 L 40,27 L 39,27 L 16,50 L 15,50 L 8,57 L 7,57 L 2,62 L 2,63 L 1,64 L 0,64 L 0,67 L 1,66 L 2,66 L 15,53 L 16,53 L 18,51 L 19,51 L 19,50 L 21,48 L 21,47 L 23,45 L 24,45 L 25,44 L 26,44 L 27,43 L 27,42 L 35,34 L 36,34 L 47,23 L 48,23 L 50,21 L 50,20 L 54,16 L 55,16 L 67,4 L 68,4 L 69,3 L 69,2 L 71,0 L 72,0 Z" fill="black" /><path d="M 37,0 L 28,9 L 27,9 L 9,27 L 8,27 L 1,34 L 1,35 L 0,36 L 0,39 L 0,38 L 2,36 L 3,36 L 8,31 L 9,31 L 10,30 L 10,29 L 14,25 L 15,25 L 20,20 L 21,20 L 21,19 L 22,18 L 22,17 L 24,15 L 25,15 L 33,7 L 34,7 L 38,3 L 38,2 L 40,0 Z" fill="black" /><path d="M 7,0 L 0,7 L 0,10 L 6,4 L 7,4 L 11,0 Z" fill="black" /><path d="M 136,196 L 134,198 L 134,199 L 127,206 L 126,206 L 115,217 L 139,217 L 141,215 L 142,215 L 144,213 L 145,213 L 148,210 L 148,208 L 146,206 L 145,206 L 144,205 L 144,204 L 140,200 L 140,199 L 137,196 Z" fill="none" stroke="black" stroke-width="1" /><path d="M 122,181 L 116,187 L 115,187 L 115,188 L 108,195 L 107,195 L 107,196 L 103,200 L 102,200 L 99,203 L 99,204 L 97,206 L 96,206 L 85,217 L 110,217 L 112,215 L 112,214 L 114,212 L 115,212 L 120,207 L 120,206 L 121,205 L 122,205 L 127,200 L 128,200 L 129,199 L 129,198 L 132,195 L 133,195 L 134,194 L 134,192 L 130,188 L 130,187 L 124,181 Z" fill="none" stroke="black" stroke-width="1" /><path d="M 161,172 L 158,175 L 158,176 L 153,181 L 152,181 L 151,182 L 151,183 L 148,186 L 147,186 L 143,190 L 142,190 L 141,191 L 141,193 L 147,199 L 147,200 L 148,201 L 149,201 L 151,199 L 151,197 L 152,196 L 152,195 L 153,194 L 153,193 L 154,192 L 154,191 L 155,190 L 155,189 L 156,188 L 156,186 L 157,185 L 157,184 L 158,183 L 158,182 L 159,181 L 159,180 L 160,179 L 160,177 L 161,176 L 161,175 L 162,174 L 162,172 Z" fill="none" stroke="black" stroke-width="1" /><path d="M 109,165 L 108,166 L 108,167 L 101,174 L 100,174 L 99,175 L 99,176 L 95,180 L 94,180 L 81,193 L 80,193 L 80,194 L 77,197 L 76,197 L 76,198 L 73,201 L 72,201 L 72,202 L 68,206 L 67,206 L 56,217 L 79,217 L 85,211 L 86,211 L 87,210 L 87,209 L 90,206 L 91,206 L 92,205 L 92,204 L 93,203 L 94,203 L 98,199 L 98,198 L 101,195 L 102,195 L 104,193 L 105,193 L 105,192 L 115,182 L 116,182 L 120,178 L 120,176 L 118,174 L 118,173 L 114,169 L 114,168 L 113,168 L 112,167 L 112,166 L 111,165 Z" fill="none" stroke="black" stroke-width="1" /><path d="M 96,149 L 95,150 L 94,150 L 89,155 L 89,156 L 88,157 L 87,157 L 85,159 L 85,160 L 78,167 L 77,167 L 52,192 L 51,192 L 50,193 L 50,194 L 47,197 L 46,197 L 30,213 L 29,213 L 25,217 L 51,217 L 53,215 L 53,214 L 54,213 L 55,213 L 55,212 L 56,211 L 56,210 L 59,207 L 60,207 L 64,203 L 65,203 L 66,202 L 66,201 L 68,199 L 69,199 L 84,184 L 85,184 L 88,181 L 88,180 L 89,179 L 90,179 L 92,177 L 92,176 L 93,175 L 94,175 L 99,170 L 99,169 L 100,168 L 101,168 L 104,165 L 105,165 L 106,164 L 107,164 L 107,162 L 106,161 L 106,160 L 105,159 L 105,158 L 102,155 L 102,154 L 101,154 L 100,153 L 100,152 L 99,152 L 98,151 L 98,150 L 97,149 Z" fill="none" stroke="black" stroke-width="1" /><path d="M 259,136 L 258,137 L 258,138 L 244,152 L 243,152 L 242,153 L 242,154 L 239,157 L 238,157 L 237,158 L 237,159 L 235,161 L 234,161 L 232,163 L 232,164 L 231,165 L 230,165 L 213,182 L 212,182 L 184,210 L 183,210 L 177,216 L 177,217 L 201,217 L 204,214 L 205,214 L 205,213 L 207,211 L 208,211 L 210,213 L 210,214 L 208,216 L 207,216 L 206,217 L 232,217 L 237,212 L 238,212 L 239,211 L 239,210 L 241,208 L 243,208 L 244,209 L 244,211 L 238,217 L 259,217 L 259,195 L 259,196 L 246,209 L 244,209 L 243,208 L 243,206 L 253,196 L 254,196 L 255,195 L 255,194 L 256,193 L 257,193 L 259,191 L 259,167 L 258,167 L 257,168 L 257,169 L 253,173 L 252,173 L 250,175 L 250,176 L 248,178 L 247,178 L 237,188 L 236,188 L 233,191 L 233,192 L 229,196 L 228,196 L 228,197 L 226,199 L 225,199 L 222,202 L 222,203 L 220,205 L 219,205 L 218,206 L 217,206 L 216,207 L 216,208 L 212,212 L 211,212 L 209,210 L 211,208 L 211,207 L 213,205 L 215,205 L 215,204 L 225,194 L 226,194 L 227,193 L 227,192 L 232,187 L 232,186 L 233,185 L 234,185 L 236,183 L 237,183 L 238,182 L 238,181 L 240,179 L 241,179 L 245,175 L 245,174 L 246,173 L 247,173 L 252,168 L 253,168 L 255,166 L 255,164 L 257,162 L 258,162 L 259,163 Z" fill="none" stroke="black" stroke-width="1" /><path d="M 82,133 L 79,136 L 79,137 L 68,148 L 67,148 L 51,164 L 50,164 L 49,165 L 49,166 L 48,167 L 47,167 L 29,185 L 28,185 L 15,198 L 14,198 L 0,212 L 0,217 L 20,217 L 22,215 L 22,214 L 28,208 L 29,208 L 30,207 L 31,207 L 32,206 L 32,205 L 35,202 L 35,201 L 36,200 L 37,200 L 38,199 L 39,199 L 40,198 L 40,196 L 41,195 L 42,195 L 46,191 L 47,191 L 48,190 L 48,189 L 52,185 L 53,185 L 64,174 L 65,174 L 65,173 L 68,170 L 69,170 L 69,169 L 76,162 L 77,162 L 79,160 L 79,159 L 84,154 L 85,154 L 85,153 L 87,151 L 88,151 L 92,147 L 92,146 L 93,145 L 93,144 L 90,141 L 90,140 L 89,140 L 88,139 L 88,138 L 83,133 Z" fill="none" stroke="black" stroke-width="1" /><path d="M 183,121 L 181,123 L 181,124 L 160,145 L 159,145 L 133,171 L 132,171 L 129,174 L 128,174 L 127,175 L 127,177 L 129,179 L 130,179 L 131,180 L 131,181 L 137,187 L 137,188 L 138,189 L 139,189 L 158,170 L 159,170 L 162,167 L 163,167 L 166,164 L 166,163 L 168,161 L 168,158 L 170,156 L 170,154 L 171,153 L 171,152 L 172,151 L 172,150 L 173,149 L 173,147 L 174,146 L 174,144 L 176,142 L 176,140 L 177,139 L 177,138 L 178,137 L 178,135 L 179,134 L 179,133 L 180,132 L 180,130 L 182,128 L 182,126 L 184,124 L 184,121 Z" fill="none" stroke="black" stroke-width="1" /><path d="M 68,118 L 65,121 L 65,122 L 59,128 L 58,128 L 57,129 L 57,130 L 55,132 L 54,132 L 37,149 L 36,149 L 36,150 L 33,153 L 32,153 L 23,162 L 22,162 L 0,184 L 0,206 L 4,202 L 5,202 L 7,200 L 7,199 L 9,197 L 10,197 L 15,192 L 16,192 L 16,191 L 21,186 L 22,186 L 24,184 L 24,183 L 30,177 L 31,177 L 34,174 L 34,173 L 36,171 L 37,171 L 44,164 L 45,164 L 47,162 L 47,161 L 49,159 L 50,159 L 51,158 L 51,157 L 52,156 L 53,156 L 58,151 L 59,151 L 62,148 L 62,147 L 66,143 L 67,143 L 70,140 L 70,139 L 72,137 L 73,137 L 74,136 L 74,135 L 77,132 L 78,132 L 79,131 L 80,131 L 80,129 L 78,127 L 78,126 L 73,121 L 73,120 L 71,118 Z" fill="none" stroke="black" stroke-width="1" /><path d="M 259,107 L 258,108 L 258,109 L 256,111 L 255,111 L 234,132 L 233,132 L 229,136 L 229,137 L 220,146 L 219,146 L 203,162 L 202,162 L 186,178 L 186,179 L 184,181 L 183,181 L 178,186 L 177,186 L 171,192 L 171,193 L 170,194 L 169,194 L 157,206 L 156,206 L 153,209 L 153,210 L 146,217 L 171,217 L 172,216 L 172,215 L 174,213 L 175,213 L 187,201 L 188,201 L 189,200 L 189,199 L 202,186 L 203,186 L 207,182 L 207,181 L 208,180 L 209,180 L 212,177 L 213,177 L 214,176 L 214,175 L 220,169 L 221,169 L 259,131 Z" fill="none" stroke="black" stroke-width="1" /><path d="M 55,102 L 53,104 L 53,105 L 51,107 L 50,107 L 36,121 L 35,121 L 31,125 L 31,126 L 30,127 L 29,127 L 26,130 L 26,131 L 25,132 L 24,132 L 19,137 L 19,138 L 17,140 L 16,140 L 11,145 L 10,145 L 10,146 L 7,149 L 6,149 L 6,150 L 4,152 L 3,152 L 1,154 L 0,154 L 0,178 L 1,178 L 2,177 L 2,176 L 10,168 L 11,168 L 11,167 L 16,162 L 17,162 L 17,161 L 20,158 L 21,158 L 29,150 L 30,150 L 32,148 L 32,147 L 33,146 L 34,146 L 36,144 L 36,143 L 38,141 L 39,141 L 49,131 L 50,131 L 54,127 L 54,126 L 59,121 L 60,121 L 62,119 L 62,118 L 64,116 L 65,116 L 66,115 L 66,112 L 62,108 L 62,107 L 60,105 L 60,104 L 58,102 Z" fill="none" stroke="black" stroke-width="1" /><path d="M 43,85 L 42,86 L 41,86 L 37,90 L 37,91 L 35,93 L 34,93 L 22,105 L 21,105 L 20,106 L 20,107 L 16,111 L 15,111 L 12,114 L 12,115 L 10,117 L 9,117 L 3,123 L 1,123 L 1,124 L 0,125 L 0,150 L 0,149 L 2,147 L 3,147 L 8,142 L 8,141 L 10,139 L 11,139 L 14,136 L 15,136 L 15,135 L 22,128 L 23,128 L 23,127 L 27,123 L 28,123 L 32,119 L 32,118 L 34,116 L 35,116 L 38,113 L 39,113 L 41,111 L 41,110 L 46,105 L 47,105 L 48,104 L 48,103 L 50,101 L 51,101 L 53,99 L 54,99 L 54,98 L 52,96 L 52,95 L 48,91 L 48,90 L 47,90 L 46,89 L 46,88 L 45,87 L 45,86 L 44,86 Z" fill="none" stroke="black" stroke-width="1" /><path d="M 69,81 L 68,82 L 65,82 L 64,83 L 63,83 L 62,84 L 58,84 L 57,85 L 56,85 L 55,86 L 53,86 L 53,88 L 55,90 L 55,91 L 57,93 L 59,93 L 66,86 L 67,86 L 72,81 Z" fill="none" stroke="black" stroke-width="1" /><path d="M 258,79 L 255,82 L 255,83 L 254,84 L 253,84 L 243,94 L 242,94 L 241,95 L 241,96 L 239,98 L 238,98 L 214,122 L 213,122 L 212,123 L 212,124 L 210,126 L 209,126 L 207,128 L 207,129 L 202,134 L 201,134 L 183,152 L 182,152 L 182,153 L 175,160 L 173,160 L 173,161 L 172,162 L 172,163 L 171,164 L 171,165 L 170,166 L 170,167 L 169,168 L 169,170 L 167,172 L 167,174 L 166,175 L 166,176 L 165,177 L 165,179 L 163,181 L 163,184 L 162,185 L 162,186 L 161,187 L 161,188 L 160,189 L 160,190 L 159,191 L 159,192 L 158,193 L 158,194 L 157,195 L 157,196 L 155,198 L 155,201 L 153,203 L 153,205 L 154,205 L 154,204 L 162,196 L 162,195 L 164,193 L 165,193 L 166,192 L 166,191 L 168,189 L 169,189 L 170,188 L 170,187 L 171,186 L 172,186 L 178,180 L 179,180 L 181,178 L 181,177 L 182,176 L 183,176 L 190,169 L 190,168 L 191,167 L 192,167 L 195,164 L 195,163 L 197,161 L 198,161 L 199,160 L 200,160 L 200,159 L 202,157 L 203,157 L 204,156 L 204,155 L 205,154 L 206,154 L 207,153 L 207,152 L 211,148 L 212,148 L 213,147 L 213,146 L 214,145 L 215,145 L 227,133 L 228,133 L 229,132 L 229,131 L 244,116 L 245,116 L 248,113 L 248,112 L 250,110 L 251,110 L 258,103 L 259,103 L 259,79 Z" fill="none" stroke="black" stroke-width="1" /><path d="M 205,72 L 203,74 L 202,74 L 202,75 L 201,76 L 201,77 L 200,78 L 199,78 L 188,89 L 187,89 L 186,90 L 186,91 L 174,103 L 173,103 L 135,141 L 134,141 L 116,159 L 115,159 L 115,162 L 117,164 L 117,165 L 118,165 L 119,166 L 119,167 L 124,172 L 124,173 L 125,173 L 136,162 L 137,162 L 137,161 L 149,149 L 150,149 L 152,147 L 152,146 L 154,144 L 155,144 L 173,126 L 174,126 L 176,124 L 176,123 L 178,121 L 179,121 L 185,115 L 186,115 L 186,114 L 190,110 L 190,108 L 191,107 L 191,106 L 192,105 L 192,103 L 194,101 L 194,98 L 196,96 L 196,93 L 198,91 L 198,89 L 200,87 L 200,83 L 202,81 L 202,80 L 203,79 L 203,78 L 204,77 L 204,75 L 206,73 L 206,72 Z" fill="none" stroke="black" stroke-width="1" /><path d="M 112,69 L 111,70 L 107,70 L 106,71 L 105,71 L 104,72 L 101,72 L 100,73 L 98,73 L 97,74 L 93,74 L 92,75 L 91,75 L 90,76 L 86,76 L 85,77 L 84,77 L 83,78 L 81,78 L 80,79 L 79,79 L 78,80 L 77,80 L 77,81 L 63,95 L 62,95 L 61,96 L 61,98 L 65,102 L 65,103 L 66,103 L 67,104 L 67,105 L 71,109 L 72,109 L 78,103 L 79,103 L 80,102 L 80,101 L 84,97 L 85,97 L 88,94 L 88,93 L 90,91 L 91,91 L 93,89 L 94,89 L 95,88 L 95,87 L 96,86 L 97,86 L 98,85 L 98,84 L 101,81 L 102,81 L 109,74 L 110,74 L 110,73 L 111,72 L 112,72 L 114,70 L 114,69 Z" fill="none" stroke="black" stroke-width="1" /><path d="M 151,58 L 150,59 L 149,59 L 148,60 L 143,60 L 142,61 L 141,61 L 140,62 L 137,62 L 136,63 L 134,63 L 133,64 L 129,64 L 128,65 L 127,65 L 126,66 L 122,66 L 120,68 L 119,68 L 119,69 L 112,76 L 112,77 L 107,82 L 106,82 L 93,95 L 92,95 L 91,96 L 91,97 L 89,99 L 88,99 L 85,102 L 85,103 L 84,104 L 83,104 L 76,111 L 75,111 L 74,112 L 74,114 L 75,115 L 76,115 L 77,116 L 77,117 L 81,121 L 81,122 L 84,125 L 86,125 L 87,124 L 87,123 L 92,118 L 93,118 L 93,117 L 96,114 L 97,114 L 104,107 L 104,106 L 107,103 L 108,103 L 116,95 L 116,94 L 118,92 L 119,92 L 120,91 L 121,91 L 122,90 L 122,89 L 124,87 L 125,87 L 144,68 L 145,68 L 146,67 L 146,66 L 148,64 L 149,64 L 153,60 L 154,60 L 155,59 L 155,58 Z" fill="none" stroke="black" stroke-width="1" /><path d="M 259,49 L 242,66 L 241,66 L 233,74 L 232,74 L 204,102 L 204,103 L 203,104 L 202,104 L 198,108 L 197,108 L 197,109 L 196,110 L 195,110 L 193,112 L 193,113 L 192,114 L 192,115 L 191,116 L 191,118 L 189,120 L 189,123 L 188,124 L 188,125 L 187,126 L 187,128 L 186,129 L 186,130 L 185,131 L 185,133 L 184,134 L 184,135 L 183,136 L 183,137 L 182,138 L 182,139 L 181,140 L 181,142 L 179,144 L 179,147 L 178,148 L 177,148 L 177,151 L 178,151 L 188,141 L 189,141 L 198,132 L 198,131 L 204,125 L 205,125 L 231,99 L 232,99 L 237,94 L 237,93 L 238,92 L 239,92 L 242,89 L 243,89 L 244,88 L 244,87 L 246,85 L 247,85 L 259,73 Z" fill="none" stroke="black" stroke-width="1" /><path d="M 194,46 L 193,47 L 191,47 L 190,48 L 187,48 L 185,50 L 179,50 L 178,51 L 177,51 L 176,52 L 172,52 L 171,53 L 169,53 L 168,54 L 165,54 L 164,55 L 163,55 L 157,61 L 157,62 L 155,64 L 154,64 L 138,80 L 137,80 L 135,82 L 135,83 L 134,84 L 133,84 L 115,102 L 114,102 L 113,103 L 113,104 L 111,106 L 110,106 L 88,128 L 87,128 L 87,130 L 88,130 L 91,133 L 91,134 L 95,138 L 95,139 L 97,141 L 99,141 L 100,140 L 100,139 L 102,137 L 103,137 L 104,136 L 104,135 L 108,131 L 109,131 L 113,127 L 113,126 L 114,125 L 115,125 L 125,115 L 126,115 L 127,114 L 127,113 L 131,109 L 132,109 L 133,108 L 133,107 L 135,105 L 136,105 L 138,103 L 138,102 L 144,96 L 145,96 L 152,89 L 153,89 L 153,88 L 160,81 L 161,81 L 192,50 L 193,50 L 195,48 L 196,48 L 197,47 L 197,46 Z" fill="none" stroke="black" stroke-width="1" /><path d="M 215,40 L 214,41 L 211,41 L 210,42 L 207,42 L 206,43 L 205,43 L 204,44 L 203,44 L 203,45 L 181,67 L 180,67 L 179,68 L 179,69 L 176,72 L 175,72 L 159,88 L 158,88 L 155,91 L 155,92 L 151,96 L 150,96 L 120,126 L 119,126 L 101,144 L 101,146 L 107,152 L 107,153 L 108,153 L 109,154 L 109,155 L 112,158 L 114,156 L 114,155 L 118,151 L 119,151 L 124,146 L 124,145 L 126,143 L 127,143 L 128,142 L 128,141 L 130,139 L 131,139 L 138,132 L 138,131 L 140,129 L 141,129 L 157,113 L 158,113 L 161,110 L 161,109 L 163,107 L 164,107 L 164,106 L 165,105 L 166,105 L 168,103 L 168,102 L 169,101 L 170,101 L 171,100 L 172,100 L 172,99 L 193,78 L 194,78 L 205,67 L 206,67 L 206,66 L 207,65 L 208,65 L 210,63 L 210,61 L 212,59 L 212,56 L 213,55 L 213,54 L 214,53 L 214,52 L 215,51 L 215,50 L 216,49 L 216,46 L 218,44 L 218,42 L 219,41 L 219,40 Z" fill="none" stroke="black" stroke-width="1" /><path d="M 259,21 L 249,31 L 248,31 L 247,32 L 247,33 L 246,34 L 245,34 L 235,44 L 234,44 L 233,45 L 233,46 L 231,48 L 230,48 L 218,60 L 217,60 L 215,62 L 215,63 L 214,64 L 214,65 L 213,66 L 213,67 L 212,68 L 212,69 L 211,70 L 211,73 L 210,74 L 209,74 L 209,77 L 207,79 L 207,82 L 205,84 L 205,85 L 204,86 L 204,89 L 202,91 L 202,93 L 201,94 L 201,95 L 200,96 L 200,97 L 199,98 L 199,99 L 198,100 L 198,102 L 199,102 L 206,95 L 206,94 L 215,85 L 216,85 L 219,82 L 219,81 L 221,79 L 222,79 L 236,65 L 237,65 L 256,46 L 257,46 L 259,44 Z" fill="none" stroke="black" stroke-width="1" /><path d="M 250,0 L 242,8 L 241,8 L 240,9 L 240,10 L 238,12 L 237,12 L 233,16 L 233,17 L 230,20 L 229,20 L 227,22 L 227,23 L 225,25 L 224,25 L 221,28 L 221,29 L 220,30 L 219,30 L 217,32 L 216,32 L 213,35 L 218,35 L 219,34 L 220,34 L 221,33 L 222,33 L 222,32 L 223,31 L 224,31 L 225,30 L 227,32 L 227,37 L 226,38 L 226,39 L 225,40 L 225,41 L 224,42 L 224,43 L 223,44 L 223,45 L 222,46 L 222,47 L 221,48 L 221,49 L 220,50 L 220,52 L 221,52 L 236,37 L 237,37 L 259,15 L 259,0 Z" fill="none" stroke="black" stroke-width="1" /><path d="M 220,0 L 217,3 L 217,4 L 214,7 L 213,7 L 208,12 L 208,13 L 206,15 L 205,15 L 186,34 L 185,34 L 183,36 L 183,37 L 179,41 L 178,41 L 174,45 L 173,45 L 172,46 L 172,47 L 176,47 L 177,46 L 180,46 L 181,45 L 185,45 L 187,43 L 192,43 L 194,41 L 196,41 L 197,40 L 200,40 L 201,39 L 204,39 L 205,38 L 206,38 L 206,37 L 210,33 L 211,33 L 244,0 Z" fill="none" stroke="black" stroke-width="1" /><path d="M 191,0 L 168,23 L 167,23 L 166,24 L 166,25 L 164,27 L 163,27 L 160,30 L 160,31 L 158,33 L 157,33 L 136,54 L 135,54 L 131,58 L 132,59 L 134,59 L 136,57 L 138,57 L 139,56 L 141,56 L 142,55 L 144,55 L 145,54 L 148,54 L 149,53 L 155,53 L 156,52 L 157,52 L 158,51 L 160,51 L 161,50 L 163,50 L 164,49 L 165,49 L 166,48 L 166,47 L 167,46 L 168,46 L 169,45 L 169,44 L 170,43 L 171,43 L 189,25 L 190,25 L 193,22 L 193,21 L 199,15 L 200,15 L 215,0 Z" fill="none" stroke="black" stroke-width="1" /><path d="M 163,0 L 158,5 L 157,5 L 157,6 L 155,8 L 154,8 L 131,31 L 130,31 L 115,46 L 114,46 L 109,51 L 109,52 L 107,54 L 106,54 L 93,67 L 92,67 L 89,70 L 89,71 L 91,71 L 93,69 L 97,69 L 98,68 L 100,68 L 101,67 L 103,67 L 104,66 L 105,66 L 106,65 L 111,65 L 113,63 L 117,63 L 118,62 L 120,62 L 121,61 L 123,61 L 125,59 L 126,59 L 128,57 L 128,54 L 129,53 L 131,53 L 141,43 L 142,43 L 144,41 L 144,40 L 146,38 L 147,38 L 152,33 L 152,32 L 154,30 L 155,30 L 183,2 L 184,2 L 186,0 Z" fill="none" stroke="black" stroke-width="1" /><path d="M 132,0 L 114,18 L 113,18 L 109,22 L 109,23 L 107,25 L 106,25 L 87,44 L 86,44 L 66,64 L 65,64 L 52,77 L 51,77 L 47,81 L 46,81 L 45,82 L 46,83 L 50,83 L 52,81 L 56,81 L 58,79 L 62,79 L 63,78 L 64,78 L 65,77 L 69,77 L 70,76 L 71,76 L 72,75 L 76,75 L 77,74 L 78,74 L 79,73 L 80,73 L 82,71 L 84,71 L 84,70 L 87,67 L 87,66 L 88,65 L 89,65 L 91,63 L 92,63 L 93,62 L 93,61 L 100,54 L 101,54 L 106,49 L 106,48 L 108,46 L 109,46 L 116,39 L 117,39 L 118,38 L 118,37 L 119,36 L 120,36 L 125,31 L 125,30 L 126,29 L 127,29 L 143,13 L 144,13 L 147,10 L 147,9 L 149,7 L 150,7 L 157,0 Z" fill="none" stroke="black" stroke-width="1" /><path d="M 103,0 L 95,8 L 94,8 L 92,10 L 92,11 L 90,13 L 89,13 L 77,25 L 76,25 L 74,27 L 74,28 L 71,31 L 70,31 L 50,51 L 49,51 L 44,56 L 44,57 L 42,59 L 41,59 L 38,62 L 37,62 L 36,63 L 36,64 L 33,67 L 32,67 L 31,68 L 31,69 L 30,70 L 29,70 L 18,81 L 17,81 L 6,92 L 5,92 L 3,94 L 3,95 L 1,97 L 0,97 L 0,120 L 4,116 L 5,116 L 7,114 L 7,113 L 9,111 L 10,111 L 21,100 L 22,100 L 23,99 L 23,98 L 25,96 L 26,96 L 27,95 L 27,94 L 29,92 L 30,92 L 41,81 L 42,81 L 44,79 L 44,78 L 45,77 L 46,77 L 59,64 L 60,64 L 68,56 L 69,56 L 70,55 L 70,54 L 72,52 L 73,52 L 76,49 L 76,48 L 77,47 L 78,47 L 97,28 L 98,28 L 117,9 L 118,9 L 120,7 L 120,6 L 126,0 Z" fill="none" stroke="black" stroke-width="1" /><path d="M 73,0 L 72,1 L 71,1 L 70,2 L 70,3 L 68,5 L 67,5 L 55,17 L 54,17 L 51,20 L 51,21 L 48,24 L 47,24 L 36,35 L 35,35 L 28,42 L 28,43 L 26,45 L 25,45 L 24,46 L 23,46 L 22,47 L 22,48 L 20,50 L 20,51 L 19,52 L 18,52 L 16,54 L 15,54 L 2,67 L 1,67 L 0,68 L 0,92 L 7,85 L 8,85 L 10,83 L 10,82 L 12,80 L 13,80 L 25,68 L 26,68 L 36,58 L 37,58 L 37,57 L 39,55 L 40,55 L 59,36 L 60,36 L 78,18 L 79,18 L 97,0 L 98,0 Z" fill="none" stroke="black" stroke-width="1" /><path d="M 41,0 L 39,2 L 39,3 L 34,8 L 33,8 L 25,16 L 24,16 L 23,17 L 23,18 L 22,19 L 22,20 L 21,21 L 20,21 L 15,26 L 14,26 L 11,29 L 11,30 L 9,32 L 8,32 L 3,37 L 2,37 L 1,38 L 1,39 L 0,40 L 0,63 L 1,63 L 1,62 L 7,56 L 8,56 L 15,49 L 16,49 L 39,26 L 40,26 L 52,14 L 53,14 L 56,11 L 56,10 L 60,6 L 61,6 L 67,0 Z" fill="none" stroke="black" stroke-width="1" /><path d="M 12,0 L 7,5 L 6,5 L 0,11 L 0,35 L 0,34 L 8,26 L 9,26 L 27,8 L 28,8 L 36,0 Z" fill="none" stroke="black" stroke-width="1" /><path d="M 0,0 L 0,6 L 6,0 Z" fill="none" stroke="black" stroke-width="1" /></svg>