<?xml version='1.0' encoding='utf-8'?>
<svg width="260" height="217" xmlns="http://www.w3.org/2000/svg" viewBox="0 0 260 217"><rect width="260" height="217" fill="white" /><path d="M 147,181 L 147,182 L 146,183 L 146,184 L 144,186 L 144,187 L 142,189 L 142,190 L 140,192 L 140,194 L 138,196 L 138,197 L 136,199 L 136,200 L 133,203 L 133,204 L 131,206 L 130,206 L 130,209 L 133,209 L 134,210 L 162,210 L 163,209 L 163,205 L 161,203 L 161,201 L 160,201 L 159,200 L 159,198 L 157,196 L 157,195 L 155,193 L 155,191 L 153,189 L 153,187 L 152,186 L 152,185 L 151,184 L 151,183 L 149,181 Z" fill="black" /><path d="M 187,179 L 186,180 L 186,181 L 184,183 L 184,184 L 182,186 L 182,188 L 179,191 L 179,192 L 176,195 L 176,196 L 174,198 L 174,199 L 169,204 L 171,206 L 176,206 L 177,205 L 186,205 L 187,206 L 188,205 L 202,205 L 204,203 L 204,202 L 203,201 L 201,201 L 200,200 L 200,199 L 199,198 L 199,197 L 198,196 L 198,195 L 197,194 L 197,193 L 195,191 L 195,189 L 192,186 L 192,185 L 191,184 L 191,183 L 190,182 L 190,181 L 188,179 Z" fill="black" /><path d="M 118,169 L 117,170 L 114,170 L 112,172 L 112,173 L 110,175 L 110,179 L 111,180 L 111,182 L 112,183 L 112,185 L 115,188 L 117,188 L 118,189 L 120,189 L 121,190 L 122,189 L 123,189 L 124,188 L 126,188 L 129,185 L 129,184 L 131,182 L 131,177 L 130,176 L 130,175 L 129,174 L 129,172 L 128,171 L 127,171 L 125,169 Z" fill="black" /><path d="M 90,166 L 89,167 L 85,167 L 83,169 L 82,169 L 80,171 L 80,172 L 79,173 L 79,175 L 78,176 L 78,181 L 80,183 L 80,184 L 81,185 L 81,186 L 83,186 L 84,187 L 91,187 L 92,186 L 94,186 L 97,183 L 97,182 L 99,180 L 99,174 L 98,173 L 98,172 L 97,171 L 97,170 L 94,167 L 92,167 L 91,166 Z" fill="black" /><path d="M 56,158 L 55,159 L 54,159 L 52,161 L 51,161 L 48,164 L 48,172 L 49,173 L 49,174 L 51,176 L 52,176 L 54,178 L 63,178 L 69,172 L 69,164 L 64,159 L 62,159 L 61,158 Z" fill="black" /><path d="M 220,157 L 216,161 L 216,162 L 214,164 L 214,165 L 210,169 L 210,171 L 208,173 L 208,174 L 207,175 L 206,175 L 206,176 L 205,177 L 205,178 L 203,180 L 203,183 L 204,184 L 206,184 L 207,183 L 208,183 L 209,182 L 210,182 L 211,183 L 216,183 L 217,182 L 223,182 L 224,183 L 235,183 L 235,179 L 234,179 L 233,178 L 233,176 L 231,174 L 231,173 L 229,171 L 229,169 L 227,167 L 227,166 L 225,164 L 225,162 L 223,160 L 223,159 L 222,158 L 222,157 Z" fill="black" /><path d="M 156,153 L 155,154 L 154,154 L 151,157 L 151,158 L 150,159 L 150,160 L 149,161 L 149,166 L 150,167 L 150,169 L 152,171 L 153,171 L 154,172 L 155,172 L 156,173 L 161,173 L 162,172 L 164,172 L 166,170 L 167,170 L 167,169 L 168,168 L 168,167 L 169,166 L 169,158 L 164,153 Z" fill="black" /><path d="M 129,134 L 128,135 L 128,136 L 126,138 L 126,139 L 120,145 L 120,146 L 119,147 L 118,147 L 118,148 L 116,150 L 116,151 L 114,153 L 114,154 L 111,157 L 111,158 L 110,159 L 111,160 L 142,160 L 143,159 L 143,157 L 142,156 L 142,154 L 140,152 L 140,151 L 139,150 L 139,149 L 137,147 L 137,146 L 136,145 L 136,144 L 135,143 L 135,142 L 133,140 L 133,139 L 132,138 L 132,137 L 131,136 L 131,135 L 130,134 Z" fill="black" /><path d="M 41,130 L 40,131 L 38,131 L 36,133 L 34,133 L 34,134 L 32,136 L 32,138 L 31,139 L 31,145 L 36,150 L 37,150 L 38,151 L 41,151 L 42,150 L 45,150 L 46,149 L 47,149 L 48,148 L 49,148 L 50,147 L 51,147 L 51,145 L 52,144 L 52,140 L 53,139 L 53,138 L 51,136 L 51,135 L 50,134 L 50,133 L 49,132 L 48,132 L 47,131 L 43,131 L 42,130 Z" fill="black" /><path d="M 168,129 L 167,130 L 166,130 L 165,131 L 163,131 L 161,133 L 160,133 L 160,136 L 159,137 L 159,138 L 158,139 L 158,141 L 159,142 L 159,143 L 160,144 L 160,146 L 162,148 L 163,148 L 164,149 L 165,149 L 166,150 L 171,150 L 172,149 L 173,149 L 174,148 L 176,148 L 179,145 L 179,143 L 180,142 L 180,138 L 179,137 L 179,134 L 175,130 L 172,130 L 171,129 Z" fill="black" /><path d="M 225,116 L 222,119 L 222,121 L 220,123 L 220,124 L 219,125 L 218,125 L 218,126 L 217,127 L 217,128 L 215,130 L 215,131 L 214,132 L 214,133 L 211,136 L 211,140 L 239,140 L 239,135 L 238,135 L 237,134 L 237,133 L 235,131 L 235,129 L 234,128 L 234,127 L 233,126 L 233,125 L 231,123 L 231,122 L 229,120 L 229,119 L 228,118 L 228,117 L 227,116 Z" fill="black" /><path d="M 128,102 L 128,103 L 127,104 L 127,106 L 126,107 L 126,108 L 123,111 L 123,112 L 120,115 L 120,116 L 119,117 L 119,118 L 118,119 L 118,120 L 117,121 L 116,121 L 116,122 L 112,126 L 112,130 L 118,130 L 119,129 L 120,130 L 134,130 L 135,129 L 136,129 L 137,130 L 140,130 L 141,129 L 142,129 L 142,127 L 141,126 L 141,123 L 139,121 L 139,119 L 138,119 L 137,118 L 137,117 L 136,116 L 136,115 L 135,114 L 135,113 L 134,112 L 134,111 L 133,110 L 133,109 L 131,107 L 131,106 L 130,105 L 130,104 L 129,103 L 129,102 Z" fill="black" /><path d="M 171,98 L 169,100 L 168,100 L 168,101 L 165,104 L 165,106 L 164,107 L 164,111 L 165,112 L 165,113 L 166,114 L 166,115 L 169,118 L 175,118 L 176,119 L 177,119 L 178,118 L 180,118 L 182,116 L 182,115 L 183,114 L 183,113 L 185,111 L 185,105 L 184,104 L 184,103 L 182,101 L 181,101 L 179,99 L 178,99 L 177,98 Z" fill="black" /><path d="M 28,92 L 27,93 L 23,93 L 21,95 L 20,95 L 20,96 L 18,98 L 18,106 L 19,107 L 19,108 L 20,109 L 20,110 L 22,112 L 24,112 L 25,113 L 31,113 L 32,112 L 33,112 L 34,111 L 35,111 L 37,109 L 37,108 L 39,106 L 39,98 L 37,96 L 37,95 L 36,95 L 34,93 L 33,93 L 32,92 Z" fill="black" /><path d="M 221,78 L 220,79 L 220,81 L 218,83 L 218,84 L 216,86 L 216,87 L 214,89 L 214,90 L 211,93 L 211,94 L 210,95 L 210,96 L 208,98 L 208,99 L 206,101 L 206,105 L 207,106 L 216,106 L 217,105 L 219,105 L 220,106 L 221,106 L 222,105 L 228,105 L 229,104 L 230,105 L 234,105 L 236,103 L 236,100 L 235,99 L 234,99 L 233,98 L 233,95 L 232,95 L 231,94 L 231,93 L 230,92 L 230,91 L 229,90 L 229,88 L 227,86 L 227,85 L 223,81 L 223,78 Z" fill="black" /><path d="M 149,69 L 149,70 L 148,71 L 148,73 L 146,75 L 146,76 L 145,77 L 145,78 L 144,79 L 144,80 L 143,81 L 142,81 L 142,82 L 140,84 L 140,86 L 139,87 L 138,87 L 138,88 L 136,90 L 136,91 L 132,95 L 131,95 L 131,96 L 132,97 L 133,97 L 134,96 L 135,96 L 136,97 L 141,97 L 142,98 L 144,98 L 145,97 L 146,97 L 147,96 L 152,96 L 153,97 L 154,96 L 166,96 L 167,95 L 167,94 L 165,92 L 165,91 L 164,90 L 164,89 L 163,88 L 163,87 L 162,86 L 162,85 L 161,84 L 161,83 L 158,80 L 158,79 L 157,78 L 157,77 L 155,75 L 155,74 L 152,71 L 152,70 L 151,69 Z" fill="black" /><path d="M 36,59 L 35,60 L 34,60 L 33,61 L 30,61 L 30,62 L 29,63 L 28,63 L 27,64 L 26,64 L 26,66 L 24,68 L 24,74 L 30,80 L 37,80 L 38,79 L 39,79 L 40,78 L 42,78 L 43,77 L 43,76 L 45,74 L 45,66 L 43,64 L 43,63 L 41,61 L 40,61 L 38,59 Z" fill="black" /><path d="M 192,55 L 192,56 L 191,57 L 191,58 L 190,59 L 190,60 L 189,61 L 188,61 L 188,62 L 187,63 L 187,64 L 184,67 L 184,68 L 182,70 L 182,71 L 177,76 L 177,79 L 178,79 L 179,80 L 185,80 L 186,81 L 187,80 L 191,80 L 192,81 L 195,81 L 196,80 L 206,80 L 207,79 L 207,77 L 205,75 L 205,73 L 202,70 L 202,69 L 201,68 L 201,67 L 199,65 L 199,63 L 198,62 L 198,61 L 197,60 L 197,59 L 196,59 L 195,58 L 195,55 Z" fill="black" /><path d="M 168,43 L 166,45 L 165,45 L 162,48 L 162,50 L 161,51 L 161,52 L 160,53 L 160,57 L 162,59 L 162,60 L 163,61 L 163,62 L 164,62 L 166,64 L 175,64 L 179,60 L 179,59 L 180,58 L 180,57 L 181,56 L 181,53 L 180,52 L 180,51 L 179,50 L 179,47 L 178,47 L 176,45 L 174,45 L 173,44 L 172,44 L 171,43 Z" fill="black" /><path d="M 48,28 L 47,29 L 44,29 L 40,33 L 40,36 L 39,37 L 39,41 L 41,43 L 41,44 L 43,46 L 44,46 L 45,47 L 46,47 L 47,48 L 54,48 L 57,45 L 57,44 L 59,42 L 59,41 L 60,40 L 60,36 L 59,35 L 59,32 L 56,29 L 54,29 L 53,28 Z" fill="black" /><path d="M 148,25 L 147,26 L 146,26 L 145,27 L 143,27 L 140,30 L 140,32 L 139,33 L 139,35 L 138,36 L 139,37 L 139,38 L 140,39 L 140,41 L 141,42 L 141,43 L 142,44 L 145,44 L 147,46 L 151,46 L 154,43 L 155,43 L 157,41 L 157,40 L 159,38 L 159,31 L 158,30 L 158,29 L 156,27 L 154,27 L 152,25 Z" fill="black" /><path d="M 116,19 L 115,20 L 114,20 L 113,21 L 112,21 L 112,22 L 110,24 L 110,26 L 108,28 L 108,29 L 110,31 L 110,34 L 112,36 L 113,36 L 115,38 L 117,38 L 118,39 L 120,39 L 121,38 L 124,38 L 126,36 L 127,36 L 127,35 L 129,33 L 129,30 L 130,29 L 130,28 L 129,27 L 129,25 L 128,24 L 128,23 L 125,20 L 124,20 L 123,19 Z" fill="black" /><path d="M 81,17 L 79,19 L 77,19 L 74,22 L 74,28 L 73,29 L 73,31 L 76,34 L 76,35 L 77,35 L 78,36 L 79,36 L 81,38 L 86,38 L 88,36 L 89,36 L 91,34 L 91,33 L 93,31 L 93,23 L 91,21 L 91,20 L 90,19 L 88,19 L 87,18 L 84,18 L 83,17 Z" fill="black" /></svg>