<?xml version="1.0" encoding="utf-8" ?>
<svg baseProfile="full" height="222" version="1.1" width="257" xmlns="http://www.w3.org/2000/svg" xmlns:ev="http://www.w3.org/2001/xml-events" xmlns:xlink="http://www.w3.org/1999/xlink"><defs /><rect fill="white" height="222" width="257" x="0" y="0" /><circle cx="174.27049255371094" cy="213.20492553710938" fill="none" r="5.713224411010742" stroke="black" stroke-width="1" /><circle cx="134.68182373046875" cy="211.68182373046875" fill="none" r="5.956204414367676" stroke="black" stroke-width="1" /><circle cx="100.04545593261719" cy="208.86363220214844" fill="none" r="6.32628870010376" stroke="black" stroke-width="1" /><circle cx="100.46875" cy="208.08984375" fill="black" r="12.176267623901367" stroke="black" stroke-width="1" /><circle cx="211.0" cy="202.0" fill="none" r="6.324655532836914" stroke="black" stroke-width="1" /><circle cx="210.8125" cy="202.96875" fill="black" r="12.68024730682373" stroke="black" stroke-width="1" /><circle cx="69.71739196777344" cy="196.97825622558594" fill="none" r="6.064418792724609" stroke="black" stroke-width="1" /><circle cx="69.39928436279297" cy="196.62950134277344" fill="black" r="12.675135612487793" stroke="black" stroke-width="1" /><circle cx="34.75" cy="181.25" fill="none" r="6.174644470214844" stroke="black" stroke-width="1" /><circle cx="34.253013610839844" cy="180.98794555664062" fill="black" r="12.421581268310547" stroke="black" stroke-width="1" /><path d="M 179,179 L 169,167 L 161,181 Z" fill="none" stroke="black" stroke-width="1" /><path d="M 115,174 L 135,175 L 126,162 Z" fill="none" stroke="black" stroke-width="1" /><path d="M 168,159 L 184,177 L 182,186 L 153,183 Z" fill="black" stroke="black" stroke-width="1" /><circle cx="229.31817626953125" cy="162.5" fill="none" r="5.876588821411133" stroke="black" stroke-width="1" /><path d="M 85,154 L 78,169 L 95,168 Z" fill="none" stroke="black" stroke-width="1" /><path d="M 144,178 L 108,180 L 125,152 Z" fill="black" stroke="black" stroke-width="1" /><circle cx="229.1666717529297" cy="163.1666717529297" fill="black" r="12.304123878479004" stroke="black" stroke-width="1" /><path d="M 84,145 L 101,173 L 69,173 Z" fill="black" stroke="black" stroke-width="1" /><circle cx="17.421052932739258" cy="147.7105255126953" fill="none" r="5.88478422164917" stroke="black" stroke-width="1" /><circle cx="16.857797622680664" cy="148.2431182861328" fill="black" r="11.922881126403809" stroke="black" stroke-width="1" /><path d="M 55,130 L 49,141 L 62,142 L 63,138 Z" fill="none" stroke="black" stroke-width="1" /><path d="M 179,139 L 194,139 L 188,128 L 185,128 Z" fill="none" stroke="black" stroke-width="1" /><path d="M 168,143 L 190,120 L 202,145 Z" fill="black" stroke="black" stroke-width="1" /><path d="M 58,120 L 72,144 L 42,148 Z" fill="black" stroke="black" stroke-width="1" /><path d="M 232,117 L 224,119 L 226,127 L 235,125 Z" fill="none" stroke="black" stroke-width="1" /><circle cx="19.5" cy="121.5" fill="none" r="5.700977325439453" stroke="black" stroke-width="1" /><circle cx="229.10000610351562" cy="122.30000305175781" fill="black" r="12.12033748626709" stroke="black" stroke-width="1" /><circle cx="19.5" cy="121.5" fill="black" r="11.85336971282959" stroke="black" stroke-width="1" /><path d="M 163,93 L 158,104 L 171,104 L 171,100 Z" fill="none" stroke="black" stroke-width="1" /><path d="M 114,100 L 131,101 L 131,98 L 122,89 Z" fill="none" stroke="black" stroke-width="1" /><path d="M 162,82 L 178,109 L 149,109 Z" fill="black" stroke="black" stroke-width="1" /><circle cx="34.14706039428711" cy="88.85294342041016" fill="none" r="6.5113372802734375" stroke="black" stroke-width="1" /><path d="M 107,101 L 124,81 L 142,104 L 114,107 Z" fill="black" stroke="black" stroke-width="1" /><path d="M 73,94 L 92,95 L 92,91 L 81,81 Z" fill="none" stroke="black" stroke-width="1" /><circle cx="33.4315071105957" cy="88.85616302490234" fill="black" r="11.630894660949707" stroke="black" stroke-width="1" /><circle cx="218.0" cy="79.0" fill="none" r="6.082862854003906" stroke="black" stroke-width="1" /><path d="M 65,97 L 83,72 L 104,99 L 67,103 Z" fill="black" stroke="black" stroke-width="1" /><circle cx="217.27272033691406" cy="78.7727279663086" fill="black" r="12.181999206542969" stroke="black" stroke-width="1" /><circle cx="49.5" cy="55.5" fill="none" r="6.5193023681640625" stroke="black" stroke-width="1" /><circle cx="48.78571319580078" cy="55.5" fill="black" r="11.880884170532227" stroke="black" stroke-width="1" /><circle cx="193.5" cy="43.5" fill="none" r="5.147915363311768" stroke="black" stroke-width="1" /><circle cx="193.85882568359375" cy="43.62352752685547" fill="black" r="11.802265167236328" stroke="black" stroke-width="1" /><circle cx="165.31817626953125" cy="30.5" fill="none" r="5.876588821411133" stroke="black" stroke-width="1" /><circle cx="165.1666717529297" cy="31.16666603088379" fill="black" r="12.304123878479004" stroke="black" stroke-width="1" /><path d="M 122,20 L 121,27 L 128,28 L 130,26 L 129,20 Z" fill="none" stroke="black" stroke-width="1" /><circle cx="74.74359130859375" cy="24.935897827148438" fill="none" r="5.647254467010498" stroke="black" stroke-width="1" /><circle cx="125.19426727294922" cy="23.59554100036621" fill="black" r="11.629079818725586" stroke="black" stroke-width="1" /><circle cx="74.42877960205078" cy="24.63353157043457" fill="black" r="11.914381980895996" stroke="black" stroke-width="1" /><path d="M 0,0 L 0,221 L 256,221 L 256,0 Z" fill="none" stroke="black" stroke-width="1" /></svg>