<?xml version="1.0" encoding="utf-8" ?>
<svg baseProfile="full" height="221" version="1.1" width="261" xmlns="http://www.w3.org/2000/svg" xmlns:ev="http://www.w3.org/2001/xml-events" xmlns:xlink="http://www.w3.org/1999/xlink"><defs /><rect fill="white" height="221" width="261" x="0" y="0" /><path d="M 132,193 L 127,206 L 142,206 L 141,199 Z" fill="none" stroke="black" stroke-width="1" /><path d="M 118,206 L 137,185 L 154,209 L 119,211 Z" fill="black" stroke="black" stroke-width="1" /><path d="M 182,195 L 197,195 L 191,183 Z" fill="none" stroke="black" stroke-width="1" /><path d="M 173,196 L 191,176 L 205,199 L 179,201 Z" fill="black" stroke="black" stroke-width="1" /><path d="M 68,168 L 62,180 L 76,181 L 72,169 Z" fill="none" stroke="black" stroke-width="1" /><path d="M 54,179 L 69,160 L 87,185 L 55,186 Z" fill="black" stroke="black" stroke-width="1" /><path d="M 207,150 L 209,153 L 220,152 L 215,143 L 212,143 Z" fill="none" stroke="black" stroke-width="1" /><path d="M 215,133 L 227,157 L 201,158 L 198,153 Z" fill="black" stroke="black" stroke-width="1" /><circle cx="187.8947296142578" cy="133.42105102539062" fill="none" r="5.532678127288818" stroke="black" stroke-width="1" /><circle cx="152.875" cy="131.875" fill="none" r="5.876429557800293" stroke="black" stroke-width="1" /><circle cx="187.5" cy="133.5" fill="black" r="12.349188804626465" stroke="black" stroke-width="1" /><circle cx="153.12705993652344" cy="131.27227783203125" fill="black" r="11.919153213500977" stroke="black" stroke-width="1" /><circle cx="120.61111450195312" cy="124.30555725097656" fill="none" r="5.861472129821777" stroke="black" stroke-width="1" /><path d="M 35,127 L 35,130 L 53,129 L 44,117 Z" fill="none" stroke="black" stroke-width="1" /><circle cx="121.40721893310547" cy="124.64433288574219" fill="black" r="11.89064884185791" stroke="black" stroke-width="1" /><path d="M 59,128 L 54,136 L 27,134 L 44,109 Z" fill="black" stroke="black" stroke-width="1" /><circle cx="229.95782470703125" cy="108.3795166015625" fill="none" r="6.139159679412842" stroke="black" stroke-width="1" /><circle cx="229.0055694580078" cy="108.8754653930664" fill="black" r="12.1402587890625" stroke="black" stroke-width="1" /><path d="M 179,82 L 171,96 L 186,95 Z" fill="none" stroke="black" stroke-width="1" /><circle cx="132.5" cy="80.5" fill="none" r="5.700977325439453" stroke="black" stroke-width="1" /><path d="M 161,99 L 178,74 L 195,96 L 194,101 Z" fill="black" stroke="black" stroke-width="1" /><circle cx="132.44381713867188" cy="81.7846450805664" fill="black" r="11.887044906616211" stroke="black" stroke-width="1" /><path d="M 63,78 L 81,79 L 73,67 Z" fill="none" stroke="black" stroke-width="1" /><circle cx="244.5" cy="68.5" fill="none" r="5.700977325439453" stroke="black" stroke-width="1" /><circle cx="244.68182373046875" cy="68.31818389892578" fill="black" r="12.099041938781738" stroke="black" stroke-width="1" /><path d="M 69,58 L 87,75 L 88,85 L 56,84 Z" fill="black" stroke="black" stroke-width="1" /><circle cx="163.125" cy="45.875" fill="none" r="6.227559566497803" stroke="black" stroke-width="1" /><circle cx="162.5" cy="45.9375" fill="black" r="11.603070259094238" stroke="black" stroke-width="1" /><path d="M 112,36 L 105,43 L 103,51 L 119,49 Z" fill="none" stroke="black" stroke-width="1" /><circle cx="196.5" cy="33.5" fill="none" r="5.700977325439453" stroke="black" stroke-width="1" /><path d="M 112,28 L 127,54 L 94,56 Z" fill="black" stroke="black" stroke-width="1" /><circle cx="197.00413513183594" cy="33.285125732421875" fill="black" r="11.971776008605957" stroke="black" stroke-width="1" /><path d="M 235,15 L 231,21 L 232,24 L 238,25 L 242,19 L 240,16 Z" fill="none" stroke="black" stroke-width="1" /><circle cx="235.5" cy="20.5" fill="black" r="12.020915031433105" stroke="black" stroke-width="1" /><path d="M 0,0 L 0,220 L 260,220 L 260,0 Z" fill="none" stroke="black" stroke-width="1" /></svg>