<?xml version='1.0' encoding='utf-8'?>
<svg width="256" height="216" xmlns="http://www.w3.org/2000/svg" viewBox="0 0 256 216"><rect width="256" height="216" fill="white" /><path d="M 154,192 L 152,194 L 152,195 L 150,197 L 150,199 L 148,201 L 148,203 L 145,206 L 145,207 L 144,208 L 144,210 L 142,212 L 142,214 L 143,214 L 144,215 L 171,215 L 172,214 L 172,211 L 170,209 L 170,208 L 167,205 L 167,204 L 166,203 L 166,202 L 165,201 L 165,200 L 161,196 L 161,195 L 159,193 L 159,192 Z" fill="black" /><path d="M 110,190 L 108,192 L 107,192 L 105,194 L 105,195 L 104,196 L 104,197 L 103,198 L 103,199 L 102,200 L 102,202 L 100,204 L 100,206 L 98,208 L 98,212 L 104,212 L 105,211 L 116,211 L 117,212 L 121,212 L 122,211 L 126,211 L 126,209 L 123,206 L 123,205 L 121,203 L 121,202 L 118,199 L 118,198 L 116,196 L 116,195 L 115,194 L 115,193 L 113,191 L 113,190 Z" fill="black" /><path d="M 201,186 L 197,190 L 197,191 L 196,192 L 196,194 L 195,195 L 195,196 L 192,199 L 192,203 L 191,204 L 188,204 L 188,207 L 191,207 L 192,208 L 195,208 L 196,209 L 197,209 L 198,208 L 211,208 L 212,209 L 215,209 L 217,207 L 217,204 L 216,203 L 216,202 L 215,201 L 215,200 L 213,198 L 212,198 L 211,197 L 211,195 L 209,193 L 209,192 L 208,192 L 207,191 L 207,190 L 204,187 L 204,186 Z" fill="black" /><path d="M 73,166 L 72,167 L 72,168 L 68,172 L 68,173 L 67,174 L 67,175 L 66,176 L 66,177 L 65,178 L 65,179 L 62,182 L 62,185 L 59,188 L 59,189 L 58,190 L 58,191 L 57,192 L 58,193 L 89,193 L 89,188 L 88,187 L 88,186 L 87,185 L 87,184 L 85,182 L 85,181 L 84,180 L 84,179 L 82,177 L 82,176 L 79,173 L 79,172 L 75,168 L 75,166 Z" fill="black" /><path d="M 145,152 L 143,154 L 142,154 L 140,156 L 140,159 L 139,160 L 139,161 L 138,162 L 138,164 L 140,166 L 140,167 L 142,169 L 143,169 L 144,170 L 145,170 L 146,171 L 152,171 L 153,170 L 154,170 L 155,169 L 156,169 L 157,168 L 157,167 L 159,165 L 159,159 L 158,158 L 158,155 L 157,154 L 155,154 L 153,152 Z" fill="black" /><path d="M 113,147 L 112,148 L 111,148 L 109,150 L 108,150 L 108,151 L 105,154 L 105,159 L 106,160 L 106,163 L 109,166 L 110,166 L 111,167 L 120,167 L 125,162 L 125,152 L 121,148 L 116,148 L 115,147 Z" fill="black" /><path d="M 228,146 L 226,148 L 226,151 L 225,152 L 224,152 L 224,154 L 222,156 L 222,157 L 221,158 L 221,159 L 220,160 L 220,161 L 218,163 L 218,165 L 217,166 L 217,169 L 221,169 L 222,168 L 231,168 L 232,167 L 233,167 L 234,168 L 237,168 L 238,167 L 245,167 L 246,166 L 245,165 L 245,164 L 244,163 L 244,162 L 241,159 L 241,158 L 239,156 L 239,155 L 235,151 L 235,150 L 231,146 Z" fill="black" /><path d="M 40,140 L 39,141 L 38,141 L 38,144 L 35,147 L 35,150 L 32,153 L 32,155 L 30,157 L 30,159 L 28,161 L 28,162 L 27,163 L 27,165 L 55,165 L 55,162 L 54,161 L 54,160 L 53,159 L 53,158 L 52,157 L 52,156 L 51,155 L 51,154 L 48,151 L 48,150 L 47,149 L 47,148 L 45,146 L 45,145 L 42,142 L 42,141 L 41,141 Z" fill="black" /><path d="M 185,137 L 184,138 L 180,138 L 176,142 L 176,145 L 175,146 L 175,149 L 176,150 L 176,153 L 178,155 L 179,155 L 180,156 L 181,156 L 182,157 L 189,157 L 195,151 L 195,143 L 193,141 L 193,140 L 192,140 L 191,139 L 190,139 L 189,138 L 188,138 L 187,137 Z" fill="black" /><path d="M 97,123 L 96,124 L 95,124 L 93,126 L 93,127 L 91,129 L 91,133 L 90,134 L 90,135 L 92,137 L 92,139 L 94,141 L 95,141 L 97,143 L 102,143 L 105,140 L 108,140 L 109,139 L 109,136 L 111,134 L 111,131 L 109,129 L 109,126 L 108,125 L 107,125 L 106,124 L 104,124 L 103,123 Z" fill="black" /><path d="M 194,109 L 193,110 L 190,110 L 189,111 L 188,111 L 187,112 L 186,112 L 186,113 L 185,114 L 185,115 L 184,116 L 184,119 L 185,120 L 185,121 L 184,122 L 185,123 L 185,124 L 186,125 L 186,126 L 187,127 L 188,127 L 190,129 L 191,128 L 192,128 L 193,129 L 199,129 L 203,125 L 203,124 L 204,123 L 204,120 L 205,119 L 204,118 L 204,116 L 203,115 L 203,114 L 199,110 L 196,110 L 195,109 Z" fill="black" /><path d="M 237,101 L 235,103 L 235,105 L 234,106 L 234,107 L 233,108 L 232,108 L 232,110 L 231,111 L 231,112 L 228,115 L 228,117 L 227,118 L 227,119 L 224,122 L 224,124 L 231,124 L 232,123 L 234,123 L 235,124 L 238,124 L 239,123 L 248,123 L 249,124 L 254,124 L 254,122 L 253,121 L 253,120 L 251,118 L 251,117 L 247,113 L 247,112 L 243,108 L 243,106 L 241,104 L 241,103 L 240,102 L 240,101 Z" fill="black" /><path d="M 40,100 L 38,102 L 38,104 L 37,105 L 37,106 L 35,108 L 35,109 L 34,110 L 34,112 L 32,114 L 32,116 L 31,117 L 31,118 L 30,119 L 30,120 L 29,121 L 29,123 L 28,124 L 28,125 L 27,126 L 28,127 L 50,127 L 51,128 L 52,128 L 53,127 L 59,127 L 60,126 L 59,125 L 59,124 L 58,123 L 58,122 L 57,121 L 57,120 L 55,118 L 55,117 L 53,115 L 53,114 L 51,112 L 51,111 L 50,110 L 50,109 L 47,106 L 47,105 L 45,103 L 45,102 L 43,100 Z" fill="black" /><path d="M 109,91 L 108,92 L 106,92 L 104,94 L 104,95 L 101,98 L 101,103 L 102,104 L 102,105 L 103,106 L 103,107 L 106,110 L 110,110 L 111,111 L 112,110 L 115,110 L 116,109 L 117,109 L 119,107 L 119,106 L 120,105 L 120,104 L 121,103 L 121,97 L 119,95 L 119,94 L 118,94 L 115,91 L 112,91 L 111,92 L 110,92 Z" fill="black" /><path d="M 179,80 L 175,84 L 174,84 L 174,85 L 172,87 L 172,95 L 178,101 L 183,101 L 184,100 L 186,100 L 187,99 L 189,99 L 189,98 L 191,96 L 191,93 L 192,92 L 192,88 L 189,85 L 189,83 L 187,81 L 182,81 L 181,80 Z" fill="black" /><path d="M 124,64 L 120,68 L 120,69 L 119,70 L 119,71 L 118,72 L 118,76 L 119,77 L 119,78 L 120,79 L 120,80 L 122,82 L 125,82 L 126,83 L 126,84 L 131,84 L 132,83 L 133,83 L 134,82 L 135,82 L 137,80 L 137,78 L 138,77 L 138,76 L 139,75 L 139,73 L 137,71 L 137,69 L 135,67 L 135,66 L 133,64 Z" fill="black" /><path d="M 59,62 L 58,63 L 58,64 L 56,66 L 56,68 L 54,70 L 54,71 L 53,72 L 53,73 L 52,74 L 52,76 L 50,78 L 50,80 L 48,82 L 48,86 L 70,86 L 71,85 L 76,85 L 76,83 L 73,80 L 73,79 L 71,77 L 71,75 L 69,73 L 69,71 L 65,67 L 65,66 L 63,64 L 63,63 L 62,62 Z" fill="black" /><path d="M 155,60 L 153,62 L 152,62 L 151,63 L 150,63 L 150,64 L 148,66 L 148,75 L 154,81 L 160,81 L 162,79 L 163,79 L 167,75 L 167,64 L 165,62 L 164,62 L 163,61 L 162,61 L 161,60 Z" fill="black" /><path d="M 217,50 L 217,53 L 216,54 L 215,54 L 215,55 L 214,56 L 214,57 L 212,59 L 212,60 L 210,62 L 210,63 L 209,64 L 209,65 L 208,66 L 208,67 L 207,68 L 207,69 L 206,70 L 206,73 L 204,75 L 204,77 L 205,78 L 208,78 L 209,77 L 219,77 L 220,78 L 221,78 L 222,77 L 233,77 L 234,76 L 237,76 L 237,74 L 235,72 L 235,71 L 233,69 L 233,68 L 232,67 L 232,66 L 229,63 L 229,62 L 225,58 L 225,57 L 223,55 L 223,54 L 221,52 L 221,51 L 220,51 L 219,50 Z" fill="black" /><path d="M 89,37 L 89,39 L 87,41 L 87,42 L 85,44 L 85,47 L 84,48 L 84,49 L 81,52 L 81,53 L 80,54 L 80,55 L 79,56 L 79,58 L 80,59 L 104,59 L 105,58 L 105,56 L 104,55 L 104,54 L 103,53 L 103,52 L 101,50 L 101,49 L 99,47 L 99,46 L 96,43 L 96,42 L 93,39 L 93,38 L 92,38 L 91,37 Z" fill="black" /><path d="M 187,20 L 185,22 L 187,24 L 187,25 L 186,26 L 186,28 L 183,31 L 183,32 L 182,33 L 182,35 L 180,37 L 180,38 L 179,39 L 179,40 L 178,41 L 178,43 L 176,45 L 176,46 L 175,47 L 176,48 L 192,48 L 193,47 L 195,47 L 196,48 L 197,48 L 198,47 L 206,47 L 206,43 L 205,42 L 205,41 L 201,37 L 201,36 L 197,32 L 197,31 L 195,29 L 195,28 L 194,28 L 193,27 L 193,26 L 192,25 L 192,24 L 191,23 L 191,22 L 190,21 L 188,21 Z" fill="black" /><path d="M 160,9 L 159,10 L 159,11 L 158,12 L 158,13 L 156,15 L 156,17 L 155,18 L 155,19 L 152,22 L 152,24 L 150,26 L 150,27 L 148,29 L 148,30 L 147,31 L 149,33 L 150,32 L 151,32 L 152,31 L 173,31 L 174,30 L 175,30 L 175,27 L 173,25 L 173,24 L 172,24 L 171,23 L 171,22 L 169,20 L 169,18 L 165,14 L 165,13 L 163,11 L 163,10 L 162,9 Z" fill="black" /><path d="M 125,1 L 123,3 L 123,5 L 122,6 L 122,7 L 121,8 L 121,9 L 120,10 L 120,12 L 118,14 L 118,15 L 117,16 L 117,17 L 116,18 L 116,19 L 115,20 L 115,21 L 114,22 L 114,23 L 113,24 L 113,27 L 129,27 L 130,26 L 140,26 L 142,24 L 139,21 L 139,20 L 137,18 L 137,16 L 133,12 L 133,11 L 131,9 L 131,8 L 130,8 L 129,7 L 129,5 Z" fill="black" /></svg>