<?xml version="1.0" encoding="utf-8" ?>
<svg baseProfile="full" height="216" version="1.1" width="262" xmlns="http://www.w3.org/2000/svg" xmlns:ev="http://www.w3.org/2001/xml-events" xmlns:xlink="http://www.w3.org/1999/xlink"><defs /><rect fill="white" height="216" width="262" x="0" y="0" /><path d="M 143,201 L 138,211 L 148,212 L 150,210 L 147,207 L 147,203 Z" fill="none" stroke="black" stroke-width="1" /><path d="M 182,191 L 178,194 L 175,203 L 186,203 Z" fill="none" stroke="black" stroke-width="1" /><path d="M 118,183 L 110,191 L 110,195 L 121,194 Z" fill="none" stroke="black" stroke-width="1" /><path d="M 117,174 L 131,198 L 102,199 Z" fill="black" stroke="black" stroke-width="1" /><circle cx="136.5" cy="172.5" fill="none" r="5.700977325439453" stroke="black" stroke-width="1" /><circle cx="87.84782409667969" cy="173.06521606445312" fill="none" r="5.5035786628723145" stroke="black" stroke-width="1" /><path d="M 182,167 L 176,168 L 174,175 L 178,178 L 183,177 L 185,174 Z" fill="none" stroke="black" stroke-width="1" /><path d="M 176,161 L 190,166 L 185,185 L 193,208 L 167,207 L 179,186 L 168,171 Z" fill="black" stroke="black" stroke-width="1" /><circle cx="136.8913116455078" cy="172.5" fill="black" r="11.985645294189453" stroke="black" stroke-width="1" /><circle cx="87.5" cy="171.5" fill="black" r="12.349188804626465" stroke="black" stroke-width="1" /><circle cx="214.0" cy="166.0" fill="none" r="5.831051826477051" stroke="black" stroke-width="1" /><circle cx="49.0" cy="163.0" fill="none" r="5.385264873504639" stroke="black" stroke-width="1" /><circle cx="213.91378784179688" cy="165.62930297851562" fill="black" r="12.163782119750977" stroke="black" stroke-width="1" /><circle cx="49.11395263671875" cy="162.76512145996094" fill="black" r="12.3184814453125" stroke="black" stroke-width="1" /><circle cx="236.8333282470703" cy="146.1666717529297" fill="none" r="5.602685451507568" stroke="black" stroke-width="1" /><path d="M 108,150 L 100,139 L 92,151 Z" fill="none" stroke="black" stroke-width="1" /><circle cx="236.6516876220703" cy="145.98876953125" fill="black" r="12.02900505065918" stroke="black" stroke-width="1" /><circle cx="22.0" cy="137.3125" fill="none" r="5.676600456237793" stroke="black" stroke-width="1" /><path d="M 103,130 L 114,155 L 87,156 L 85,151 Z" fill="black" stroke="black" stroke-width="1" /><circle cx="22.079439163208008" cy="136.99533081054688" fill="black" r="12.157430648803711" stroke="black" stroke-width="1" /><path d="M 179,124 L 172,137 L 187,137 L 183,126 Z" fill="none" stroke="black" stroke-width="1" /><path d="M 179,115 L 194,142 L 165,141 Z" fill="black" stroke="black" stroke-width="1" /><circle cx="236.0" cy="112.0" fill="none" r="5.385264873504639" stroke="black" stroke-width="1" /><path d="M 82,105 L 74,119 L 90,118 Z" fill="none" stroke="black" stroke-width="1" /><circle cx="24.5" cy="108.5" fill="none" r="5.147915363311768" stroke="black" stroke-width="1" /><circle cx="235.0" cy="112.0" fill="black" r="11.70479965209961" stroke="black" stroke-width="1" /><circle cx="24.082317352294922" cy="108.5243911743164" fill="black" r="12.172191619873047" stroke="black" stroke-width="1" /><path d="M 83,96 L 97,123 L 65,124 Z" fill="black" stroke="black" stroke-width="1" /><circle cx="53.0" cy="93.64286041259766" fill="none" r="5.527862071990967" stroke="black" stroke-width="1" /><path d="M 178,84 L 172,97 L 185,97 Z" fill="none" stroke="black" stroke-width="1" /><circle cx="52.73214340209961" cy="93.375" fill="black" r="11.844246864318848" stroke="black" stroke-width="1" /><circle cx="209.8378448486328" cy="87.37837982177734" fill="none" r="5.683807849884033" stroke="black" stroke-width="1" /><circle cx="210.19627380371094" cy="87.73782348632812" fill="black" r="12.01864242553711" stroke="black" stroke-width="1" /><path d="M 162,100 L 178,75 L 195,100 Z" fill="black" stroke="black" stroke-width="1" /><circle cx="111.82203674316406" cy="75.7203369140625" fill="none" r="5.333845615386963" stroke="black" stroke-width="1" /><circle cx="154.31817626953125" cy="75.31818389892578" fill="none" r="5.956211090087891" stroke="black" stroke-width="1" /><circle cx="111.5" cy="75.5" fill="black" r="11.85336971282959" stroke="black" stroke-width="1" /><circle cx="154.5" cy="75.5" fill="black" r="12.020915031433105" stroke="black" stroke-width="1" /><path d="M 85,73 L 77,64 L 71,75 Z" fill="none" stroke="black" stroke-width="1" /><path d="M 81,55 L 94,80 L 63,82 L 69,65 Z" fill="black" stroke="black" stroke-width="1" /><path d="M 179,44 L 174,35 L 172,35 L 166,45 Z" fill="none" stroke="black" stroke-width="1" /><path d="M 175,26 L 186,49 L 159,50 Z" fill="black" stroke="black" stroke-width="1" /><path d="M 112,25 L 108,26 L 103,37 L 116,36 Z" fill="none" stroke="black" stroke-width="1" /><path d="M 146,16 L 142,18 L 138,28 L 150,27 Z" fill="none" stroke="black" stroke-width="1" /><path d="M 112,14 L 124,40 L 95,42 Z" fill="black" stroke="black" stroke-width="1" /><path d="M 144,5 L 157,34 L 130,32 Z" fill="black" stroke="black" stroke-width="1" /><path d="M 0,0 L 0,215 L 261,215 L 261,0 Z" fill="none" stroke="black" stroke-width="1" /></svg>