<?xml version="1.0" encoding="utf-8" ?>
<svg xmlns="http://www.w3.org/2000/svg" xmlns:ev="http://www.w3.org/2001/xml-events" xmlns:xlink="http://www.w3.org/1999/xlink" baseProfile="full" height="219" version="1.1" width="256">
  <defs/>
  <path d="M 171.223159,206.457783 C 165.901039,203.399307 160.475305,203.296279 154.427966,206.138864 C 148.999256,208.690659 146.770334,207.666170 148.938155,203.615559 C 150.882203,199.983071 149.497332,198.698333 144.453070,199.454767 C 140.293832,200.078483 140.131334,200.002907 139.821303,197.300580 C 139.553779,194.968759 138.968483,194.448480 136.324471,194.192196 C 131.453723,193.720074 130.607169,191.903214 133.702524,188.565013 C 137.014790,184.992882 135.853518,182.500000 130.877229,182.500000 C 125.333562,182.500000 124.404790,181.230703 127.547900,177.950004 C 131.168003,174.171429 130.279460,172.000000 125.113172,172.000000 C 122.940894,172.000000 120.451771,171.726855 119.581787,171.393011 C 117.826062,170.719276 117.439087,167.464697 119.000000,166.500000 C 119.550000,166.160081 120.000000,164.823078 120.000000,163.528881 C 120.000000,161.562914 119.341939,161.064617 116.000000,160.500000 C 111.725118,159.777763 111.241634,158.758538 113.168166,154.530261 C 114.164692,152.343125 114.054493,151.754094 112.418166,150.521364 C 111.363175,149.726585 108.738718,148.715066 106.586041,148.273544 C 102.935559,147.524816 102.784095,147.358762 104.336041,145.806817 C 105.251218,144.891639 106.000000,142.710633 106.000000,140.960138 C 106.000000,137.861411 105.907185,137.794830 102.482990,138.437213 C 97.698214,139.334843 96.364040,138.313367 98.835365,135.644504 C 99.927541,134.465027 100.973884,132.375000 101.160570,131.000000 C 101.450754,128.862710 101.064748,128.457491 98.500000,128.207005 C 93.009607,127.670785 92.698334,127.321352 94.688798,123.928581 C 96.454405,120.919081 96.449652,120.798432 94.500000,119.135909 C 91.219314,116.338378 87.848364,111.027084 88.196103,109.203443 C 88.468029,107.777391 90.174398,107.409379 98.674845,106.943500 C 109.980113,106.323900 111.992087,105.371345 112.015313,100.627555 C 112.042263,95.123152 113.084220,94.470255 118.838205,96.352288 C 126.316779,98.798406 126.653926,98.666485 127.405612,93.000000 C 128.000445,88.515932 128.325877,88.000000 130.559443,88.000000 C 132.530541,88.000000 133.176011,88.630054 133.654162,91.020809 C 134.965857,97.579287 138.758571,95.293388 139.200564,87.677949 C 139.562892,81.435111 141.968559,80.095668 144.001914,85.004621 C 144.947085,87.286464 145.839618,88.022572 147.392400,87.800890 C 149.240663,87.537024 149.536634,86.730948 149.797717,81.250000 C 150.078861,75.347940 150.233148,75.000000 152.569156,75.000000 C 154.249235,75.000000 155.415019,75.816762 156.202814,77.545783 C 157.894452,81.258524 161.227799,80.474469 162.105621,76.157351 C 163.011991,71.699831 164.107303,70.793289 168.122842,71.177158 C 170.979970,71.450287 171.651567,72.015502 172.484300,74.847750 C 173.460060,78.166454 173.509583,78.190063 178.192327,77.568875 C 182.455595,77.003332 183.073443,77.182455 184.530659,79.406447 C 185.445270,80.802321 186.005390,83.307684 185.822632,85.185322 C 185.573870,87.741071 185.843440,88.406121 187.000000,88.089976 C 191.908552,86.748225 195.009669,86.861623 195.601732,88.404513 C 195.943843,89.296039 195.766167,90.582239 195.206898,91.262735 C 194.647628,91.943231 194.034784,93.400000 193.845022,94.500000 C 193.558224,96.162491 194.175018,96.584377 197.500000,97.000000 C 201.849392,97.543674 201.673201,97.033725 200.782330,106.500000 C 200.501497,109.484096 200.524699,109.498285 205.158947,109.176564 L 209.817894,108.853129 L 209.621274,112.678504 C 209.513133,114.782460 209.116341,117.002740 208.739513,117.612459 C 207.623801,119.417720 209.028683,120.000000 214.500000,120.000000 C 220.560588,120.000000 221.473969,120.601645 219.692304,123.420174 C 218.969213,124.564078 218.314818,127.454109 218.238093,129.842465 L 218.098593,134.184931 L 224.049297,133.494279 L 230.000000,132.803626 L 230.000000,136.342796 C 230.000000,138.289340 229.550000,140.160081 229.000000,140.500000 C 228.450000,140.839919 228.000000,142.216476 228.000000,143.559017 C 228.000000,145.740164 228.425789,146.000000 232.000000,146.000000 C 235.777778,146.000000 236.000000,146.166667 236.000000,149.000000 C 236.000000,150.650000 235.604594,152.000000 235.121320,152.000000 C 234.638047,152.000000 233.680952,153.462500 232.994443,155.250000 C 229.505801,164.333568 229.635832,164.154197 227.000000,163.519019 C 225.625000,163.187674 222.317783,162.648795 219.650630,162.321509 L 214.801260,161.726445 L 215.040407,165.613223 C 215.575918,174.316689 215.860648,174.000000 207.500000,174.000000 L 200.000000,174.000000 L 200.015313,177.750000 C 200.023735,179.812500 200.447994,182.159908 200.958110,182.966462 C 202.602684,185.566724 200.326884,187.052227 197.198812,185.420301 C 195.714466,184.645912 193.487500,184.009549 192.250000,184.006161 C 190.215845,184.000591 190.000000,184.479656 190.000000,189.000000 L 190.000000,194.000000 L 184.000000,194.000000 L 178.000000,194.000000 L 178.000000,201.500000 C 178.000000,210.013755 177.740867,210.203331 171.223159,206.457783" fill="none" stroke="black" stroke-width="5"/>
</svg>
