<?xml version="1.0" encoding="utf-8" ?>
<svg xmlns="http://www.w3.org/2000/svg" xmlns:ev="http://www.w3.org/2001/xml-events" xmlns:xlink="http://www.w3.org/1999/xlink" baseProfile="full" height="216" version="1.1" width="259">
  <defs/>
  <path d="M 195.016557,184.818171 C 193.896228,182.993177 192.427531,180.269717 191.752786,178.766039 C 189.900785,174.638832 188.253841,174.646693 186.359441,178.791781 C 182.830103,186.514231 178.463174,188.565871 177.354485,183.022426 C 177.026952,181.384761 176.138202,179.529661 175.379485,178.899982 C 174.620768,178.270303 174.000000,177.190311 174.000000,176.500000 C 174.000000,174.761480 171.640726,172.966261 170.461129,173.807202 C 169.926642,174.188241 168.873894,176.300000 168.121689,178.500000 C 164.924211,187.851771 161.333458,188.362731 157.580487,180.000000 C 156.099536,176.700000 154.484139,174.000000 153.990718,174.000000 C 152.987085,174.000000 149.000000,182.490006 149.000000,184.627118 C 149.000000,185.485876 147.876544,186.000000 146.000000,186.000000 C 143.988047,186.000000 143.000000,185.501508 143.000000,184.486431 C 143.000000,183.653968 142.582849,182.191468 142.072998,181.236431 C 141.563147,180.281394 140.902270,178.712500 140.604383,177.750000 C 139.688808,174.791696 137.558909,175.798931 135.711131,180.064032 C 134.194915,183.563811 133.572089,184.084464 131.225231,183.814032 C 129.667410,183.634522 128.458597,182.857444 128.403347,182.000000 C 128.350188,181.175000 127.969518,179.600000 127.557413,178.500000 C 127.145309,177.400000 126.640425,175.937500 126.435451,175.250000 C 125.704861,172.799548 122.874247,174.056720 121.450623,177.463933 C 118.960766,183.423000 113.834875,184.833680 112.157342,180.021507 C 111.586272,178.383335 110.626903,176.470835 110.025411,175.771507 C 109.423918,175.072178 108.337209,173.639384 107.610502,172.587520 C 105.582097,169.651530 103.572216,171.242597 102.111936,176.940308 C 100.993908,181.302625 100.457389,182.063369 98.680680,181.805574 C 97.347349,181.612113 95.477141,179.573816 93.583250,176.250000 C 90.657210,171.114744 87.000000,169.084666 87.000000,172.595708 C 87.000000,173.473347 86.227977,175.498347 85.284392,177.095708 C 82.889338,181.150211 79.471283,180.996880 77.577881,176.750000 C 75.225531,171.473700 72.295766,168.312879 70.976256,169.627736 C 69.905759,170.694457 68.474817,175.209391 67.314056,181.182779 C 66.801728,183.819268 64.615233,185.498269 62.996770,184.498004 C 62.544260,184.218337 61.877071,182.079378 61.514127,179.744760 C 60.560144,173.608318 58.167569,168.821081 56.240178,169.192262 C 55.255167,169.381958 54.156967,171.357001 53.411390,174.279659 C 51.881771,180.275759 49.484783,184.000000 47.155204,184.000000 C 45.409172,184.000000 43.150160,179.879216 40.028609,171.000000 C 38.044429,165.356024 37.411550,163.764616 35.146325,158.723249 C 33.965846,156.096035 33.000000,152.671966 33.000000,151.114206 L 33.000000,148.281914 L 41.250000,147.738417 C 54.676527,146.853898 55.445672,145.929606 48.532731,138.986660 C 46.075733,136.518997 44.050733,133.712500 44.032731,132.750000 C 43.999605,130.978857 45.307951,130.755308 57.000000,130.534366 C 61.179297,130.455391 61.201761,128.952593 57.090204,124.500000 C 55.097807,122.342343 54.345255,120.517267 54.409991,118.000000 L 54.500000,114.500000 L 61.186303,114.500000 C 68.535855,114.500000 71.274872,113.137145 68.487817,110.866979 C 63.770542,107.024573 62.000000,104.906164 62.000000,103.104472 C 62.000000,100.378873 63.463816,99.693495 69.937227,99.388152 C 77.077493,99.051355 81.978206,98.355128 82.768005,97.565328 C 83.111164,97.222169 80.742575,94.475758 77.504474,91.462193 C 70.175338,84.641271 70.752181,83.771232 82.991623,83.186057 C 91.059560,82.800324 92.000000,82.554866 92.000000,80.834840 C 92.000000,79.778553 89.969348,76.743387 87.487441,74.090027 C 83.559281,69.890507 83.172477,69.101747 84.500651,67.999460 C 85.339825,67.303007 88.698213,66.680717 91.963736,66.616591 C 100.475283,66.449450 101.079972,65.237866 95.457809,59.615704 C 89.139201,53.297096 90.131992,52.168046 102.342315,51.786304 C 112.846804,51.457894 113.324451,50.775192 107.831749,43.940259 C 105.294509,40.783002 104.999675,39.869125 105.947161,38.098730 C 107.199936,35.757900 106.710504,35.834906 120.500000,35.809012 C 130.090159,35.791003 130.578817,35.895777 132.423108,38.365459 C 133.699363,40.074486 134.385737,42.716544 134.463710,46.220343 C 134.528332,49.124154 135.012933,51.599552 135.540602,51.721226 C 136.068271,51.842900 138.263216,51.467667 140.418258,50.887375 C 144.766372,49.716549 149.000000,50.926016 149.000000,53.339014 C 149.000000,54.099055 147.875000,56.378686 146.500000,58.404862 C 142.546707,64.230365 143.712721,67.200319 149.142619,65.135876 C 150.510752,64.615713 154.182845,63.871184 157.302824,63.481369 C 162.190137,62.870739 163.068927,63.016047 163.650236,64.530914 C 164.047439,65.566008 163.743993,66.753350 162.912480,67.417646 C 162.135616,68.038283 161.050000,69.260089 160.500000,70.132771 C 159.950000,71.005453 158.673712,72.887796 157.663804,74.315756 C 155.164440,77.849735 156.311896,79.407193 160.007091,77.496333 C 161.598565,76.673350 164.723027,76.000000 166.950340,76.000000 C 170.489909,76.000000 170.997199,76.283408 170.977764,78.250000 C 170.965534,79.487500 170.075541,81.625000 169.000000,83.000000 C 167.924459,84.375000 167.034466,85.885040 167.022236,86.355644 C 167.010006,86.826248 165.849651,88.578400 164.443670,90.249314 C 163.037688,91.920228 162.250188,93.645431 162.693670,94.083097 C 163.137151,94.520764 166.632079,94.488008 170.460177,94.010306 C 174.288274,93.532605 177.775774,93.361421 178.210177,93.629896 C 179.848200,94.642251 178.874208,97.217974 175.000000,102.119216 C 172.800000,104.902424 171.000000,107.637116 171.000000,108.196308 C 171.000000,108.812342 173.660125,109.103294 177.750000,108.934591 C 188.559449,108.488713 190.000000,108.731597 190.000000,111.000000 C 190.000000,112.123637 189.333333,113.000000 188.478561,113.000000 C 187.641770,113.000000 186.430107,114.237500 185.785978,115.750000 C 185.141848,117.262500 183.731255,119.229919 182.651326,120.122041 C 180.213375,122.136017 181.088889,125.590000 183.758429,124.489664 C 188.968443,122.342191 196.337060,120.937060 197.306219,121.906219 C 198.377020,122.977020 195.333175,130.000000 193.798276,130.000000 C 192.772217,130.000000 189.757430,135.976803 190.724320,136.094104 C 191.150944,136.145862 194.650000,136.258362 198.500000,136.344104 C 204.851076,136.485548 205.528500,136.700011 205.807434,138.657537 C 205.976523,139.844182 205.253880,141.644182 204.201560,142.657537 C 201.442248,145.314678 198.889956,149.556623 199.614548,150.281215 C 200.451955,151.118621 205.869577,150.031211 209.200340,148.357182 C 213.163062,146.365531 216.000000,146.612995 216.000000,148.950310 C 216.000000,150.022980 215.437500,151.260480 214.750000,151.700310 C 212.026270,153.442822 205.709725,164.863403 204.628726,170.000000 C 204.339357,171.375000 203.248050,175.875000 202.203600,180.000000 C 199.998773,188.707842 198.160769,189.940034 195.016557,184.818171" fill="none" stroke="black" stroke-width="5"/>
</svg>
