<?xml version="1.0" encoding="utf-8" ?>
<svg xmlns="http://www.w3.org/2000/svg" xmlns:ev="http://www.w3.org/2001/xml-events" xmlns:xlink="http://www.w3.org/1999/xlink" baseProfile="full" height="218" version="1.1" width="257">
  <defs/>
  <path d="M 122.515714,181.250152 C 81.735912,180.937459 86.742468,182.001519 78.992442,172.000000 C 77.074602,169.525000 74.522497,166.497811 73.321099,165.272914 C 72.119700,164.048017 69.873444,161.348017 68.329418,159.272914 C 66.785392,157.197811 64.840285,154.825000 64.006959,154.000000 C 63.173633,153.175000 60.785180,150.373662 58.699286,147.774804 C 56.613391,145.175946 54.358760,142.475946 53.688993,141.774804 C 53.019226,141.073662 50.915459,138.475000 49.013955,136.000000 C 47.112451,133.525000 44.860765,130.825000 44.010209,130.000000 C 43.159652,129.175000 40.453086,126.025000 37.995618,123.000000 C 35.538150,119.975000 33.266609,117.275000 32.947749,117.000000 C 31.631790,115.865056 26.000000,107.064157 26.000000,106.142629 C 26.000000,105.594267 27.544441,103.872549 29.432090,102.316589 C 31.319740,100.760629 34.193303,97.690367 35.817786,95.493785 C 37.442269,93.297203 40.285328,89.909047 42.135696,87.964549 C 43.986063,86.020051 47.127539,82.420051 49.116754,79.964549 C 51.105969,77.509047 55.084976,73.025000 57.958992,70.000000 C 60.833008,66.975000 64.379021,62.925000 65.839022,61.000000 C 67.299023,59.075000 69.628921,56.375000 71.016574,55.000000 C 72.404226,53.625000 75.105673,50.480106 77.019789,48.011346 C 78.933905,45.542587 81.850000,42.150888 83.500000,40.474239 C 85.150000,38.797590 86.999006,36.542484 87.608903,35.462893 C 88.677632,33.571112 90.076932,33.494752 126.233607,33.355152 L 163.749408,33.210304 L 167.598349,38.257368 C 169.715266,41.033253 171.915621,43.798435 172.488027,44.402216 C 173.060433,45.005997 175.085665,47.525000 176.988543,50.000000 C 178.891422,52.475000 180.687510,54.725000 180.979850,55.000000 C 181.272191,55.275000 182.739509,57.148548 184.240558,59.163441 C 185.741608,61.178333 187.553858,63.428333 188.267782,64.163441 C 188.981706,64.898548 190.654334,67.075000 191.984733,69.000000 C 193.315132,70.925000 194.652882,72.725000 194.957510,73.000000 C 195.262137,73.275000 196.695298,75.075000 198.142310,77.000000 C 199.589322,78.925000 201.611762,81.474341 202.636621,82.665202 C 203.661479,83.856063 206.975000,88.056632 210.000000,91.999800 C 213.025000,95.942967 216.473008,100.324418 217.662239,101.736356 C 221.776362,106.620931 222.484122,108.726892 220.965325,111.564791 C 220.210376,112.975427 218.446835,115.347909 217.046345,116.836975 C 215.645855,118.326040 213.269309,121.182933 211.765131,123.185624 C 210.260953,125.188316 208.458929,127.428333 207.760635,128.163441 C 207.062340,128.898548 204.476190,131.975000 202.013633,135.000000 C 199.551077,138.025000 196.848128,141.175000 196.007080,142.000000 C 195.166033,142.825000 193.214608,145.197811 191.670582,147.272914 C 190.126556,149.348017 187.881528,152.055102 186.681631,153.288659 C 185.481734,154.522216 182.791519,157.650742 180.703375,160.240941 C 178.615232,162.831139 176.349479,165.524054 175.668369,166.225196 C 174.987259,166.926338 171.807552,170.762500 168.602355,174.750000 C 164.280164,180.127121 162.222582,181.938786 160.637361,181.763037 C 159.461813,181.632708 142.307071,181.401909 122.515714,181.250152" fill="none" stroke="black" stroke-width="5"/>
</svg>
