<?xml version="1.0" encoding="utf-8" ?>
<svg xmlns="http://www.w3.org/2000/svg" xmlns:ev="http://www.w3.org/2001/xml-events" xmlns:xlink="http://www.w3.org/1999/xlink" baseProfile="full" height="220" version="1.1" width="256">
  <defs/>
  <path d="M 207.250000,214.779505 C 206.012500,214.182682 205.000000,213.313138 205.000000,212.847186 C 205.000000,212.381234 204.302038,212.000000 203.448973,212.000000 C 201.576266,212.000000 199.647397,207.582185 197.991330,199.500000 C 196.789770,193.635968 193.857408,185.958727 191.938871,183.654006 C 191.410521,183.019303 190.053607,181.266488 188.923507,179.758862 C 186.280204,176.232523 179.061532,174.225643 168.500000,174.080875 C 160.663200,173.973455 152.193608,171.980261 149.736617,169.665188 C 149.056477,169.024335 145.983126,166.587263 142.906947,164.249474 C 136.603028,159.458715 133.025328,153.543551 132.546214,147.119633 C 132.373041,144.797746 131.954300,142.620966 131.615677,142.282344 C 131.277055,141.943721 131.000000,140.596054 131.000000,139.287527 C 131.000000,135.643143 126.574160,128.139558 121.963444,123.966917 C 116.670842,119.177178 108.628113,116.526362 102.039978,117.400309 C 92.730256,118.635287 75.691477,111.943388 72.453030,105.780176 C 65.889432,93.288745 65.849404,93.163420 65.263631,83.271204 C 64.782541,75.146826 64.267823,72.867980 62.209626,69.750000 C 60.848157,67.687500 59.428879,66.000000 59.055675,66.000000 C 58.682471,66.000000 57.455560,65.141434 56.329206,64.092076 C 52.133345,60.183036 46.608972,58.258564 37.500000,57.532730 C 18.803719,56.042947 14.997134,54.445994 15.003738,48.095012 C 15.009126,42.913285 18.018196,38.690859 23.635638,35.982446 C 27.871188,33.940302 29.986595,33.636956 40.000000,33.635817 C 54.538336,33.634163 64.613528,34.756385 66.437716,36.580573 C 67.218401,37.361258 69.000598,38.000000 70.398155,38.000000 C 73.133396,38.000000 79.019052,40.954180 81.886080,43.766119 C 85.175153,46.991996 89.000000,52.679475 89.000000,54.344391 C 89.000000,55.254976 89.450000,56.000000 90.000000,56.000000 C 90.550000,56.000000 91.000000,56.873442 91.000000,57.940983 C 91.000000,59.008524 91.402465,60.130703 91.894367,60.434715 C 92.386269,60.738727 93.035783,62.677785 93.337733,64.743732 C 94.002251,69.290386 94.927879,74.640405 95.620695,77.938978 C 96.326209,81.298012 104.687190,89.162653 110.415012,91.855047 C 114.504059,93.777126 116.536260,94.042826 125.351008,93.807856 C 134.897933,93.553368 135.921964,93.722064 141.276989,96.431459 C 144.424645,98.024028 147.002082,99.590955 147.004627,99.913519 C 147.007173,100.236084 148.357173,101.938095 150.004627,103.695766 C 151.652082,105.453438 153.000000,107.590938 153.000000,108.445766 C 153.000000,109.300595 153.450000,110.000000 154.000000,110.000000 C 154.550000,110.000000 155.000000,110.590477 155.000000,111.312171 C 155.000000,112.033864 155.900000,114.487127 157.000000,116.763864 C 158.100000,119.040602 159.000000,122.936438 159.000000,125.421277 C 159.000000,128.109726 159.839412,131.469982 161.072966,133.719584 C 163.451622,138.057479 171.565347,146.000000 173.618092,146.000000 C 174.378141,146.000000 175.000000,146.399219 175.000000,146.887153 C 175.000000,147.701714 185.736233,149.004331 192.245011,148.979474 C 193.754768,148.973709 196.622224,149.650968 198.617135,150.484496 C 200.612047,151.318023 203.201792,152.003908 204.372124,152.008684 C 205.632405,152.013827 209.354098,154.765993 213.500000,158.758684 C 219.549806,164.584920 220.871030,166.518065 223.233346,173.000000 C 226.387777,181.655407 229.004719,193.714464 228.984125,199.500000 C 228.959337,206.463971 226.718125,211.072988 222.093420,213.670626 C 217.627087,216.179308 211.154982,216.662807 207.250000,214.779505" fill="none" stroke="black" stroke-width="5"/>
</svg>
