<?xml version="1.0" encoding="utf-8" ?>
<svg xmlns="http://www.w3.org/2000/svg" xmlns:ev="http://www.w3.org/2001/xml-events" xmlns:xlink="http://www.w3.org/1999/xlink" baseProfile="full" height="220" version="1.1" width="259">
  <defs/>
  <path d="M 190.000000,181.408722 C 182.674070,180.580755 175.424507,178.608886 173.500000,176.920749 C 172.400000,175.955852 168.350000,173.685506 164.500000,171.875535 C 160.650000,170.065564 157.275000,168.288576 157.000000,167.926673 C 156.725000,167.564771 154.551148,166.280527 152.169219,165.072799 C 147.107484,162.506308 138.164473,155.951451 132.554583,150.696083 C 130.384603,148.663237 128.012463,147.000000 127.283160,147.000000 C 125.802278,147.000000 118.322370,139.678463 113.052264,133.070413 C 111.156010,130.692748 109.018510,128.161367 108.302264,127.445121 C 107.586019,126.728876 107.000000,125.660714 107.000000,125.071429 C 107.000000,124.482143 106.613961,124.000000 106.142136,124.000000 C 105.158026,124.000000 99.412690,114.868312 95.760917,107.500000 C 93.186954,102.306424 91.612730,91.222606 91.571059,78.000000 C 91.536691,67.094612 96.199016,50.658127 100.565302,46.291841 C 101.303099,45.554044 103.615232,42.824054 105.703375,40.225196 C 111.061705,33.556337 120.014629,25.000000 121.634262,25.000000 C 122.385418,25.000000 123.000000,24.604594 123.000000,24.121320 C 123.000000,23.638047 124.350000,22.683452 126.000000,22.000000 C 127.650000,21.316548 129.000000,20.361953 129.000000,19.878680 C 129.000000,19.395406 130.035000,19.000000 131.300000,19.000000 C 132.565000,19.000000 134.027500,18.620572 134.550000,18.156827 C 136.893781,16.076603 156.678127,11.333636 165.845175,10.654330 C 170.819292,10.285733 192.468293,12.907461 194.500000,14.124473 C 195.050000,14.453929 196.850000,15.045401 198.500000,15.438856 C 203.897758,16.725991 217.000000,22.903784 217.000000,24.161726 C 217.000000,24.548650 217.798951,25.118802 218.775447,25.428730 C 221.624676,26.333040 236.519420,41.401741 240.803416,47.713964 C 242.963201,50.896284 246.530089,57.100000 248.729835,61.500000 C 252.064234,68.169570 252.776508,70.664126 253.012804,76.500000 C 253.530965,89.297127 253.543882,89.237090 248.453967,97.688981 C 244.262404,104.649143 233.514232,107.155076 227.506621,102.572848 C 225.084273,100.725232 223.777264,98.397202 222.032754,92.822848 C 218.878482,82.743785 216.907907,79.172038 211.850292,74.366722 C 209.457632,72.093419 205.250000,68.107158 202.500000,65.508364 C 199.750000,62.909570 195.587500,59.882488 193.250000,58.781515 C 190.912500,57.680542 189.000000,56.436147 189.000000,56.016193 C 189.000000,55.061770 176.433665,49.000000 174.455100,49.000000 C 173.654795,49.000000 173.000000,48.648242 173.000000,48.218315 C 173.000000,46.598384 163.242316,44.647541 154.947286,44.609056 C 144.527291,44.560713 138.625720,46.279571 134.083333,50.685770 C 132.204167,52.508596 130.291667,54.000000 129.833333,54.000000 C 129.375000,54.000000 129.000000,54.637500 129.000000,55.416667 C 129.000000,56.195833 128.658700,56.983333 128.241556,57.166667 C 127.824412,57.350000 126.024412,60.262990 124.241556,63.639977 C 121.414429,68.994966 121.000000,70.745342 121.000000,77.330960 C 121.000000,81.484014 121.450000,85.160081 122.000000,85.500000 C 122.550000,85.839919 123.000000,87.666476 123.000000,89.559017 C 123.000000,91.451558 123.450000,93.000000 124.000000,93.000000 C 124.550000,93.000000 125.000000,93.605863 125.000000,94.346362 C 125.000000,96.257508 127.901038,101.831594 129.367398,102.737928 C 130.045526,103.157067 131.699052,105.075000 133.041902,107.000000 C 135.926627,111.135307 140.027395,114.923996 141.666667,114.968399 C 142.308333,114.985779 142.983333,115.337500 143.166667,115.750000 C 143.822300,117.225175 149.753636,119.926243 160.044110,123.435809 C 165.794849,125.397098 171.400000,127.419002 172.500000,127.928928 C 173.600000,128.438855 176.300000,129.154739 178.500000,129.519782 C 180.700000,129.884825 183.625000,130.762391 185.000000,131.469928 C 186.375000,132.177465 188.625000,133.203267 190.000000,133.749488 C 200.357951,137.864204 210.123743,143.511113 215.000000,148.205328 C 221.889949,154.838059 223.000000,156.832922 223.000000,162.582061 C 223.000000,167.260006 220.586913,172.035396 216.840074,174.772277 C 215.882100,175.472029 214.433328,176.709529 213.620581,177.522277 C 212.807833,178.335024 211.473214,179.000000 210.654762,179.000000 C 209.836310,179.000000 209.016667,179.446574 208.833333,179.992388 C 208.469372,181.075959 195.611450,182.042921 190.000000,181.408722" fill="none" stroke="black" stroke-width="5"/>
</svg>
