<?xml version="1.0" encoding="utf-8" ?>
<svg xmlns="http://www.w3.org/2000/svg" xmlns:ev="http://www.w3.org/2001/xml-events" xmlns:xlink="http://www.w3.org/1999/xlink" baseProfile="full" height="225" version="1.1" width="262">
  <defs/>
  <path d="M 111.250000,175.192502 C 107.086245,174.891244 106.998704,174.810072 106.936155,171.192502 C 106.901040,169.161626 106.857246,157.302819 106.838833,144.839597 L 106.805356,122.179193 L 96.652678,121.512749 C 91.068705,121.146205 83.356138,120.993387 79.513640,121.173153 L 72.527279,121.500000 L 71.794870,125.500000 C 71.392044,127.700000 71.074454,138.050000 71.089113,148.500000 C 71.103772,158.950000 71.089718,169.187500 71.057883,171.250000 L 71.000000,175.000000 L 57.250000,174.988994 C 49.687500,174.982941 41.925000,174.717452 40.000000,174.399019 L 36.500000,173.820049 L 36.827449,103.169168 C 37.055588,53.945516 37.486664,32.118532 38.248814,31.200197 C 38.964946,30.337311 40.578614,30.076325 42.921365,30.444484 C 44.889614,30.753790 50.775000,31.044600 56.000000,31.090729 C 61.225000,31.136857 67.222557,31.405791 69.327905,31.688359 L 73.155810,32.202120 L 72.439813,55.946208 L 71.723815,79.690297 L 76.501479,80.345148 C 79.129194,80.705317 87.230473,81.000000 94.504321,81.000000 L 107.729500,81.000000 L 108.464581,55.750000 C 108.868875,41.862500 109.419800,30.140649 109.688858,29.701442 C 109.957917,29.262235 110.740012,29.369266 111.426848,29.939289 C 112.924700,31.182396 115.971621,31.356141 130.779577,31.042847 C 138.410034,30.881408 142.527382,31.192799 143.506468,32.005368 C 144.633282,32.940540 144.867534,35.232037 144.564301,42.353267 C 143.790202,60.532499 143.510510,78.840668 144.000000,79.291508 C 144.275000,79.544794 150.853246,80.037827 158.618324,80.387137 C 169.752512,80.888006 172.969992,80.741083 173.840630,79.692029 C 174.558523,78.827020 175.036075,70.221282 175.206142,55.084768 L 175.467672,31.807723 L 191.983836,32.519882 C 201.067726,32.911570 208.657417,33.374750 208.849816,33.549170 C 209.317738,33.973369 208.964197,78.509007 208.417564,88.000000 C 208.179985,92.125000 207.702736,113.050000 207.357010,134.500000 C 206.984325,157.622633 206.326739,174.008890 205.741764,174.750000 C 205.023821,175.659569 200.264459,176.000000 188.266264,176.000000 L 171.777418,176.000000 L 172.342114,172.750000 C 172.856544,169.789296 173.333802,140.719720 173.097332,126.750000 L 173.000000,121.000000 L 158.146736,121.000000 L 143.293472,121.000000 L 142.754504,128.250000 C 142.458071,132.237500 142.155095,142.700000 142.081224,151.500000 C 142.007353,160.300000 141.693801,169.338889 141.384443,171.586421 L 140.821973,175.672842 L 128.160986,175.586421 C 121.197444,175.538889 113.587500,175.361626 111.250000,175.192502" fill="none" stroke="black" stroke-width="5"/>
</svg>
