<?xml version="1.0" encoding="utf-8" ?>
<svg xmlns="http://www.w3.org/2000/svg" xmlns:ev="http://www.w3.org/2001/xml-events" xmlns:xlink="http://www.w3.org/1999/xlink" baseProfile="full" height="229" version="1.1" width="257">
  <defs/>
  <path d="M 199.500000,191.807645 C 197.850000,191.189606 195.986598,189.967551 195.359108,189.091968 C 194.731617,188.216386 192.899904,186.126131 191.288634,184.446959 C 189.677364,182.767786 187.560366,178.942786 186.584192,175.946959 C 185.608019,172.951131 184.461522,170.050000 184.036420,169.500000 C 183.611319,168.950000 182.694439,165.350000 181.998910,161.500000 C 181.303380,157.650000 180.329779,153.715342 179.835351,152.756315 C 179.340923,151.797288 178.870595,148.511836 178.790176,145.455310 C 178.709758,142.398784 178.274070,139.669384 177.821981,139.389978 C 175.761280,138.116395 177.558642,105.211903 180.000915,99.500000 C 180.471249,98.400000 181.142113,95.700000 181.491725,93.500000 C 182.456119,87.431366 185.316881,75.565036 185.951747,75.000000 C 186.260734,74.725000 187.536131,71.600252 188.785964,68.056116 C 193.471271,54.770045 198.345606,51.385175 210.668756,52.860113 C 214.013436,53.260433 225.000000,69.534581 225.000000,74.088660 C 225.000000,75.005561 225.734764,77.498208 226.632808,79.627876 C 229.943961,87.480111 232.121388,98.886295 233.130039,113.662824 C 234.488805,133.568455 233.323806,143.775020 227.456946,163.364835 C 226.655626,166.040494 226.000000,168.654700 226.000000,169.174181 C 226.000000,169.693663 224.108777,173.970971 221.797283,178.679310 C 218.736203,184.914497 216.630972,187.874553 214.047283,189.576178 C 209.773332,192.391015 203.589749,193.339540 199.500000,191.807645" fill="none" stroke="black" stroke-width="5"/>
</svg>
