<?xml version="1.0" encoding="utf-8" ?>
<svg xmlns="http://www.w3.org/2000/svg" xmlns:ev="http://www.w3.org/2001/xml-events" xmlns:xlink="http://www.w3.org/1999/xlink" baseProfile="full" height="218" version="1.1" width="262">
  <defs/>
  <path d="M 107.500000,196.787324 C 99.215320,195.814714 82.902581,192.090148 81.550000,190.862354 C 81.027500,190.388059 79.973478,190.000000 79.207729,190.000000 C 78.441980,190.000000 76.671294,189.100000 75.272871,188.000000 C 73.874447,186.900000 71.890969,186.000000 70.865141,186.000000 C 69.839314,186.000000 69.000000,185.550000 69.000000,185.000000 C 69.000000,184.450000 68.376845,184.000000 67.615212,184.000000 C 66.853578,184.000000 62.466017,180.452002 57.865077,176.115559 C 51.604493,170.214881 48.632968,166.503710 46.054790,161.365559 C 42.682481,154.644752 42.609475,154.236452 42.592161,142.000000 C 42.577817,131.863302 42.969998,128.365615 44.666486,123.500000 C 45.817092,120.200000 47.541012,114.800000 48.497418,111.500000 C 49.453824,108.200000 51.308162,103.530821 52.618169,101.124047 C 53.928176,98.717273 55.004368,96.242273 55.009706,95.624047 C 55.015044,95.005821 56.572972,92.545745 58.471768,90.157211 C 60.370564,87.768677 62.183327,84.997749 62.500129,83.999592 C 62.816932,83.001436 63.699997,81.945364 64.462496,81.652765 C 65.224994,81.360167 66.594231,79.550009 67.505244,77.630191 C 70.109780,72.141540 80.177995,61.131898 89.025348,54.097855 C 91.514289,52.119035 98.489289,48.081887 104.525348,45.126416 C 110.561406,42.170945 116.331091,39.327409 117.346869,38.807446 C 120.006569,37.445984 135.894666,37.494666 137.268487,38.868487 C 137.890819,39.490819 139.322500,40.001798 140.450000,40.003995 C 143.147798,40.009251 150.375144,47.655734 152.873829,53.148321 C 155.710687,59.384279 156.476268,66.924368 154.703395,71.167450 C 153.143905,74.899834 141.184854,88.000000 139.337076,88.000000 C 138.718015,88.000000 136.766331,89.350000 135.000000,91.000000 C 133.233669,92.650000 131.403681,94.000000 130.933359,94.000000 C 129.036445,94.000000 105.000000,118.642252 105.000000,120.586975 C 105.000000,121.694139 104.462234,123.137766 103.804963,123.795037 C 102.125557,125.474443 102.028577,133.824147 103.643584,137.689402 C 104.387798,139.470558 105.862354,141.391150 106.920374,141.957385 C 107.978394,142.523621 109.459037,143.552350 110.210692,144.243452 C 113.379856,147.157307 116.367129,148.000000 123.527334,148.000000 C 130.910059,148.000000 143.254908,145.014601 144.552242,142.915471 C 144.863428,142.411962 145.784698,142.000000 146.599510,142.000000 C 147.867229,142.000000 153.462272,138.637722 155.000000,136.951820 C 155.275000,136.650322 157.075000,135.305224 159.000000,133.962714 C 160.925000,132.620204 163.850000,130.234173 165.500000,128.660423 C 167.150000,127.086673 171.200000,123.800376 174.500000,121.357539 C 177.800000,118.914703 182.433633,115.302959 184.796962,113.331441 C 195.067106,104.763962 199.984910,102.262151 208.212885,101.419171 C 215.796066,100.642251 220.534100,102.320865 225.695810,107.613108 C 230.346196,112.381096 231.881303,115.976302 232.098912,122.609108 C 232.436164,132.888723 228.738612,148.000000 225.886059,148.000000 C 225.398726,148.000000 225.000000,148.520933 225.000000,149.157629 C 225.000000,151.434310 216.574034,161.180890 210.828105,165.550704 C 207.610363,167.997817 204.731303,170.000000 204.430194,170.000000 C 203.944010,170.000000 196.276558,175.702491 195.000000,177.013490 C 194.725000,177.295909 192.373198,178.598655 189.773773,179.908480 C 187.174348,181.218306 184.292103,183.124736 183.368785,184.144991 C 182.445467,185.165246 180.949769,186.000000 180.045012,186.000000 C 179.140256,186.000000 177.972500,186.371754 177.450000,186.826120 C 176.927500,187.280486 174.475000,188.215939 172.000000,188.904906 C 169.525000,189.593872 164.575000,190.986470 161.000000,191.999568 C 153.068219,194.247309 144.669319,195.622674 131.500000,196.830354 C 119.831027,197.900446 116.937359,197.895257 107.500000,196.787324" fill="none" stroke="black" stroke-width="5"/>
</svg>
