<?xml version="1.0" encoding="utf-8" ?>
<svg baseProfile="full" height="220" version="1.1" width="257" xmlns="http://www.w3.org/2000/svg" xmlns:ev="http://www.w3.org/2001/xml-events" xmlns:xlink="http://www.w3.org/1999/xlink"><defs /><rect fill="white" height="220" width="257" x="0" y="0" /><path d="M 61,98 L 58,111 L 65,131 L 75,139 L 84,137 L 90,132 L 88,110 L 78,100 Z" fill="none" stroke="black" stroke-width="5" /><path d="M 121,66 L 123,81 L 133,101 L 139,105 L 148,102 L 153,89 L 150,78 L 134,68 Z" fill="none" stroke="black" stroke-width="5" /><path d="M 184,44 L 177,50 L 174,60 L 180,76 L 186,75 L 192,63 L 190,51 Z" fill="none" stroke="black" stroke-width="5" /><path d="M 0,0 L 0,219 L 256,219 L 256,0 Z" fill="none" stroke="black" stroke-width="5" /></svg>