<?xml version="1.0" encoding="utf-8" ?>
<svg xmlns="http://www.w3.org/2000/svg" xmlns:ev="http://www.w3.org/2001/xml-events" xmlns:xlink="http://www.w3.org/1999/xlink" baseProfile="full" height="220" version="1.1" width="259">
  <defs/>
  <path d="M 167.123675,165.076436 C 166.265313,164.545938 165.773818,156.473729 165.378801,136.418956 C 165.044547,119.449084 164.422244,108.009783 163.791997,107.250000 C 163.047439,106.352411 158.558047,106.000000 147.868158,106.000000 L 132.981206,106.000000 L 133.589382,127.250000 C 133.923879,138.937500 134.412558,148.850270 134.675334,149.278377 C 134.938111,149.706485 134.838657,152.993075 134.454325,156.581911 C 133.821641,162.489828 133.554266,163.078355 131.627770,162.803533 C 129.209517,162.458562 129.360169,164.603477 129.130600,127.250000 L 129.000000,106.000000 L 114.000000,106.000000 L 99.000000,106.000000 L 98.848085,117.750000 C 98.764532,124.212500 98.813707,134.704308 98.957362,141.065130 C 99.209406,152.225220 97.717558,164.000000 96.051547,164.000000 C 93.761319,164.000000 92.838349,160.595162 93.013731,152.793488 C 93.116272,148.232069 93.155131,135.793228 93.100084,125.151618 L 93.000000,105.803235 L 80.513088,106.268311 C 72.392103,106.570777 67.481247,107.185637 66.467635,108.026861 C 65.115454,109.149071 64.983363,111.980362 65.470015,129.410168 C 65.778522,140.459575 66.294286,151.659914 66.616157,154.299810 C 67.187552,158.986235 65.682193,165.000000 63.937697,165.000000 C 61.879870,165.000000 61.468347,160.727457 61.000000,134.500000 C 60.567454,110.277444 60.297637,106.549997 59.000000,106.870602 C 58.175000,107.074433 53.900000,107.199782 49.500000,107.149154 C 45.100000,107.098527 39.587500,107.320351 37.250000,107.642096 L 33.000000,108.227088 L 33.000000,136.113544 C 33.000000,163.333333 32.952187,164.000000 31.000000,164.000000 C 29.047619,164.000000 29.000000,163.333333 29.000000,136.000000 L 29.000000,108.000000 L 24.622445,108.000000 C 22.099096,108.000000 19.754833,107.409519 19.087927,106.605946 C 17.285593,104.434266 20.410284,102.000000 25.000247,102.000000 L 28.857637,102.000000 L 28.444031,81.750000 C 28.216547,70.612500 27.745285,56.437500 27.396782,50.250000 L 26.763140,39.000000 L 29.867323,39.000000 L 32.971507,39.000000 L 33.235753,70.250000 L 33.500000,101.500000 L 45.953386,101.703650 C 54.080893,101.836558 58.883220,101.511882 59.778377,100.768967 C 60.904668,99.834229 61.021154,95.773627 60.429675,78.065318 C 59.130871,39.180383 59.177595,37.546045 61.597956,37.200373 C 63.541708,36.922770 63.743398,37.510786 64.341962,45.200373 C 64.697290,49.765168 65.005021,63.625000 65.025810,76.000000 C 65.066742,100.366614 65.565216,102.907546 70.026676,101.491534 C 71.222130,101.112111 76.606091,100.832749 81.991034,100.870729 L 91.781839,100.939783 L 92.169149,98.219891 C 92.382169,96.723951 92.199708,88.975000 91.763679,81.000000 C 91.327650,73.025000 91.089947,59.750000 91.235450,51.500000 C 91.492169,36.944000 91.564519,36.490814 93.679679,36.189664 C 95.567350,35.920904 95.950841,36.489376 96.542222,40.432990 C 96.917797,42.937504 96.873699,46.677155 96.444227,48.743326 C 96.014754,50.809497 95.798248,52.950000 95.963102,53.500000 C 96.127956,54.050000 96.422829,59.900000 96.618376,66.500000 C 96.813924,73.100000 97.249177,83.562500 97.585607,89.750000 L 98.197298,101.000000 L 112.563465,101.000000 C 129.976146,101.000000 129.531177,101.371423 128.601523,87.612764 C 127.238909,67.446390 126.913917,37.171236 128.052499,36.467554 C 130.996471,34.648079 131.529680,39.538052 132.581251,78.000000 C 132.919590,90.375000 133.300949,100.611228 133.428714,100.747174 C 133.840721,101.185560 138.302123,101.140568 147.000000,100.610310 C 151.675000,100.325303 157.707118,100.071390 160.404707,100.046058 L 165.309413,100.000000 L 164.632018,82.250000 C 164.259451,72.487500 163.682962,59.244722 163.350932,52.821604 C 162.652636,39.313077 163.178132,36.000000 166.019052,36.000000 C 167.716944,36.000000 168.028307,36.750168 168.198105,41.250000 C 168.307063,44.137500 168.482679,48.300000 168.588363,50.500000 C 168.694048,52.700000 168.854876,64.737500 168.945760,77.250000 L 169.111003,100.000000 L 185.483150,100.000000 L 201.855298,100.000000 L 201.278239,69.151357 C 200.907099,49.310807 201.053185,38.085164 201.687623,37.693060 C 202.230166,37.357750 203.632714,37.754869 204.804397,38.575548 C 206.899887,40.043286 206.933507,40.553663 206.859967,69.780514 L 206.785203,99.493337 L 210.999242,100.212728 C 219.455337,101.656292 219.702678,106.000000 211.328783,106.000000 L 206.902456,106.000000 L 207.071254,134.750000 C 207.164093,150.562500 207.186041,164.062500 207.120026,164.750000 C 207.054012,165.437500 206.100000,166.000000 205.000000,166.000000 C 202.804646,166.000000 202.689893,163.515813 202.979038,122.250000 L 203.092900,106.000000 L 186.657741,106.000000 L 170.222582,106.000000 L 169.713381,109.250000 C 169.433320,111.037500 169.396297,116.775000 169.631107,122.000000 C 171.242884,157.865364 171.267134,164.683513 169.784938,165.252285 C 168.978470,165.561756 167.780902,165.482624 167.123675,165.076436" fill="none" stroke="black" stroke-width="5"/>
</svg>
