<?xml version="1.0" encoding="utf-8" ?>
<svg xmlns="http://www.w3.org/2000/svg" xmlns:ev="http://www.w3.org/2001/xml-events" xmlns:xlink="http://www.w3.org/1999/xlink" baseProfile="full" height="220" version="1.1" width="257">
  <defs/>
  <path d="M 174.175869,210.046513 C 167.997767,207.942446 160.506968,200.484478 158.349835,194.289843 C 156.382246,188.639523 156.693587,180.270258 159.105152,173.985883 C 160.262985,170.968647 161.731166,167.150000 162.367775,165.500000 C 163.882110,161.575063 167.249276,156.000000 168.105481,156.000000 C 168.476327,156.000000 169.774467,153.862500 170.990237,151.250000 C 172.206007,148.637500 174.896060,144.250000 176.968132,141.500000 C 179.040205,138.750000 181.576353,135.150000 182.604017,133.500000 C 183.631681,131.850000 184.973563,130.050000 185.585977,129.500000 C 186.198391,128.950000 190.866168,122.260244 195.958815,114.633876 C 214.543489,86.802854 220.775506,70.649080 218.223007,56.923711 C 216.937019,50.008665 212.121953,43.106903 207.002719,40.840910 C 205.351224,40.109887 204.000000,39.171627 204.000000,38.755889 C 204.000000,37.385837 195.541242,38.032431 193.524945,39.556610 C 191.766931,40.885546 191.702730,41.294142 192.940722,43.274807 C 197.608793,50.743262 199.172657,55.248122 198.686835,59.827037 C 197.912029,67.129637 196.931295,70.153416 193.765625,75.000000 C 190.724760,79.655510 185.636174,83.000000 181.593758,83.000000 C 173.691904,83.000000 165.760425,65.106715 169.352474,55.383866 C 172.758638,46.164163 173.620816,44.430241 175.749242,42.519354 C 178.601504,39.958612 177.484731,37.987682 172.896884,37.485390 C 171.028598,37.280844 167.475000,36.601320 165.000000,35.975337 C 157.586372,34.100262 149.670580,35.508298 139.368344,40.534615 C 130.196796,45.009285 129.254619,45.890627 124.457975,54.482235 C 122.591925,57.824649 122.260642,59.140174 123.209106,59.441500 C 123.919098,59.667063 128.004592,60.855629 132.287983,62.082757 C 136.571374,63.309885 140.310431,64.693272 140.597000,65.156949 C 140.883569,65.620627 141.991476,66.000000 143.059017,66.000000 C 144.126558,66.000000 145.000000,66.367137 145.000000,66.815859 C 145.000000,67.264581 146.704849,68.589896 148.788552,69.761004 C 150.872256,70.932111 154.114067,73.802833 155.992576,76.140386 C 159.123424,80.036307 159.396520,80.916321 159.269728,86.700542 C 159.106519,94.146153 158.599354,95.996185 155.389963,100.853122 C 149.498658,109.768738 146.291294,112.000000 139.366702,112.000000 C 134.961429,112.000000 134.258546,111.634230 130.050960,107.152223 C 127.547932,104.485945 124.825000,100.998445 124.000000,99.402223 C 123.175000,97.806000 121.949297,95.917154 121.276215,95.204787 C 119.187381,92.994034 115.843198,80.861383 115.155799,73.000000 L 114.500000,65.500000 L 108.000000,65.843777 C 104.425000,66.032854 101.072500,66.595354 100.550000,67.093777 C 100.027500,67.592200 98.890655,68.000000 98.023678,68.000000 C 97.156701,68.000000 91.509201,70.454655 85.473678,73.454790 C 77.582809,77.377179 73.165594,80.298699 69.750000,83.854338 C 63.783136,90.065853 63.591039,92.000000 68.940983,92.000000 C 71.108524,92.000000 73.160081,92.450000 73.500000,93.000000 C 73.839919,93.550000 75.042707,94.000000 76.172862,94.000000 C 80.929012,94.000000 92.166329,102.869847 95.666007,109.386342 C 96.307311,110.580467 97.301313,114.931609 97.874899,119.055546 C 99.182167,128.454453 97.985224,132.420090 91.889302,138.886655 C 85.622780,145.534193 77.283020,147.704327 69.912651,144.605319 C 66.423994,143.138449 57.018659,131.729504 57.006680,128.950000 C 57.003006,128.097500 56.628246,126.972500 56.173880,126.450000 C 54.639547,124.685586 53.088261,117.540490 52.686268,110.386331 C 52.466422,106.473814 51.964214,102.751114 51.570249,102.113665 C 49.875377,99.371305 35.000000,110.620445 35.000000,114.644511 C 35.000000,115.298363 34.552086,115.983333 34.004635,116.166667 C 32.578600,116.644225 29.148700,126.034950 26.578020,136.500000 C 24.293634,145.799569 23.877620,160.897507 25.838308,163.345500 C 26.346884,163.980475 26.988887,166.075000 27.264982,168.000000 C 27.541077,169.925000 28.361798,174.085106 29.088806,177.244681 C 30.713047,184.303629 29.647762,186.083970 25.671320,182.956100 C 24.202094,181.800407 23.000000,179.927210 23.000000,178.793439 C 23.000000,176.763441 21.793413,171.516385 19.911592,165.362949 C 19.383943,163.637571 18.940836,156.882036 18.926910,150.350648 C 18.902311,138.812955 19.802690,133.214791 23.288772,123.230517 C 25.008609,118.304837 31.045506,108.000000 32.211287,108.000000 C 32.645079,108.000000 33.000000,107.505544 33.000000,106.901210 C 33.000000,105.087647 38.400145,100.612151 43.610828,98.107240 C 46.299873,96.814546 50.027670,95.024087 51.894822,94.128443 C 53.761973,93.232800 55.786973,91.600000 56.394822,90.500000 C 57.002670,89.400000 57.735394,88.275000 58.023098,88.000000 C 58.310802,87.725000 59.336012,86.258935 60.301342,84.742078 C 63.185012,80.210866 73.330178,70.001689 74.973085,69.977764 C 75.812888,69.965534 77.625000,69.075541 79.000000,68.000000 C 80.375000,66.924459 82.068606,66.034466 82.763569,66.022236 C 84.006644,66.000361 88.021387,64.024151 89.000000,62.952427 C 89.492171,62.413427 95.468985,61.239984 109.750000,58.878528 C 116.051802,57.836485 117.000670,57.406372 117.005123,55.589847 C 117.019874,49.572835 131.661347,34.000000 137.303751,34.000000 C 138.236688,34.000000 139.000000,33.608482 139.000000,33.129961 C 139.000000,31.314923 154.530029,28.514722 163.306614,28.747264 C 168.857937,28.894350 180.288314,32.437545 182.046762,34.556345 C 183.479932,36.283209 186.167656,36.432344 187.728397,34.871603 C 188.349015,34.250985 191.945640,33.522201 195.720896,33.252082 C 203.988128,32.660565 209.541324,34.797552 215.061986,40.694944 C 221.339792,47.401146 222.726115,50.143038 223.711559,57.802207 C 225.181956,69.230584 222.472855,81.965607 216.829335,90.154370 C 215.823201,91.614274 215.000000,93.526774 215.000000,94.404370 C 215.000000,95.281967 214.644009,96.000000 214.208909,96.000000 C 213.773809,96.000000 212.219661,98.362500 210.755246,101.250000 C 209.290832,104.137500 206.946823,108.049926 205.546337,109.944280 C 204.145852,111.838633 203.000000,113.770126 203.000000,114.236486 C 203.000000,114.702846 202.536038,115.627920 201.968974,116.292206 C 197.946679,121.004115 189.008625,133.729655 189.004748,134.750000 C 189.002137,135.437500 188.563713,136.000000 188.030474,136.000000 C 187.005887,136.000000 177.000000,150.301797 177.000000,151.766278 C 177.000000,152.237408 176.137527,153.548633 175.083394,154.680112 C 171.508101,158.517738 165.049710,173.003299 165.014553,177.263569 C 165.006549,178.233532 164.453245,179.902632 163.784989,180.972680 C 161.959164,183.896290 164.242125,193.891710 167.331439,196.500000 C 175.940585,203.768651 176.329537,203.963067 182.299660,203.981801 C 188.732945,204.001988 192.210924,202.580964 196.109823,198.339276 C 200.387003,193.686050 207.000000,183.254413 207.000000,181.160625 C 207.000000,180.088612 208.353952,177.762100 210.008782,175.990599 C 212.484851,173.339958 213.279711,172.987250 214.498184,173.998493 C 215.801850,175.080440 215.783736,175.602133 214.346612,178.363649 C 211.282374,184.251760 211.000000,184.974335 211.000000,186.927414 C 211.000000,188.002418 210.573945,189.145282 210.053212,189.467113 C 209.532479,189.788944 207.760084,192.047158 206.114556,194.485367 C 200.938451,202.154900 196.793867,205.996214 190.405171,209.045258 C 183.304276,212.434202 181.511519,212.544805 174.175869,210.046513" fill="none" stroke="black" stroke-width="5"/>
</svg>
