<?xml version="1.0" encoding="utf-8" ?>
<svg xmlns="http://www.w3.org/2000/svg" xmlns:ev="http://www.w3.org/2001/xml-events" xmlns:xlink="http://www.w3.org/1999/xlink" baseProfile="full" height="223" version="1.1" width="258">
  <defs/>
  <path d="M 49.201579,130.742888 C 48.350425,129.717309 48.793676,128.348513 51.077465,124.950000 C 55.401994,118.514656 57.424115,114.006575 56.391637,113.102681 C 55.901236,112.673355 50.904929,112.979451 45.288731,113.782895 C 39.672533,114.586339 34.385033,114.977992 33.538731,114.653236 C 31.131524,113.729504 31.638839,110.111521 34.250000,109.580726 C 36.556479,109.111866 48.135566,107.884680 53.500000,107.540554 C 55.150000,107.434707 57.402650,107.269781 58.505889,107.174052 C 59.724694,107.068296 61.061580,105.724745 61.912955,103.750000 C 62.683602,101.962500 64.143452,99.305533 65.157066,97.845630 C 66.170680,96.385726 67.000000,94.542970 67.000000,93.750617 C 67.000000,92.958264 67.900000,91.495486 69.000000,90.500000 C 71.050141,88.644648 71.802761,83.000000 70.000000,83.000000 C 69.450000,83.000000 68.998944,82.437500 68.997654,81.750000 C 68.996363,81.062500 67.647419,78.925000 66.000000,77.000000 C 64.352581,75.075000 63.003637,72.937500 63.002346,72.250000 C 63.001056,71.562500 62.622232,71.000000 62.160515,71.000000 C 61.162612,71.000000 59.000000,66.520117 59.000000,64.452947 C 59.000000,62.517890 63.390742,62.560962 65.009878,64.511903 C 66.491915,66.297648 69.416116,71.385100 71.181995,75.250000 C 73.050712,79.339974 75.413621,78.691061 77.554322,73.500000 C 78.574968,71.025000 79.767783,69.000000 80.205021,69.000000 C 80.642260,69.000000 81.000000,68.409853 81.000000,67.688561 C 81.000000,66.967270 81.844949,65.470177 82.877665,64.361687 C 83.910380,63.253197 85.061979,61.380082 85.436773,60.199211 C 86.471264,56.939819 90.971349,53.731332 92.605804,55.087810 C 93.675817,55.975841 93.169336,57.650386 89.957742,63.842930 C 85.584409,72.275517 83.207407,76.508318 80.673961,80.374846 C 78.348850,83.923415 78.554249,85.491773 82.000000,90.500000 C 83.650000,92.898193 85.000000,95.341772 85.000000,95.930175 C 85.000000,96.518579 85.367137,97.000000 85.815859,97.000000 C 86.264581,97.000000 87.677884,98.861401 88.956531,101.136446 L 91.281344,105.272893 L 104.623668,104.763770 C 118.586403,104.230974 121.737540,104.914426 120.475984,108.201989 C 120.005254,109.428690 118.646283,109.828112 115.171558,109.761035 C 106.596345,109.595499 96.940684,110.286959 96.436537,111.102685 C 95.977700,111.845099 101.785134,120.748600 104.732518,123.821429 C 106.476374,125.639507 106.333364,130.658099 104.517846,131.354778 C 103.650990,131.687422 102.397955,131.005347 101.499486,129.711767 C 100.654573,128.495295 98.009222,124.800000 95.620928,121.500000 C 93.232634,118.200000 90.747677,114.483040 90.098800,113.240089 C 88.956644,111.052241 88.533858,110.991108 76.839901,111.322931 C 65.442282,111.646345 64.655941,111.802060 62.902625,114.082842 C 61.880641,115.412279 61.034466,117.062500 61.022236,117.750000 C 61.010006,118.437500 60.550000,119.000000 60.000000,119.000000 C 59.450000,119.000000 59.000000,119.681106 59.000000,120.513569 C 59.000000,121.901655 57.194419,125.805581 56.000000,127.000000 C 55.725000,127.275000 55.001768,128.400000 54.392817,129.500000 C 53.026419,131.968242 50.683978,132.529070 49.201579,130.742888" fill="none" stroke="black" stroke-width="5"/>
</svg>
