<?xml version="1.0" encoding="utf-8" ?>
<svg xmlns="http://www.w3.org/2000/svg" xmlns:ev="http://www.w3.org/2001/xml-events" xmlns:xlink="http://www.w3.org/1999/xlink" baseProfile="full" height="221" version="1.1" width="263">
  <defs/>
  <path d="M 97.000000,161.077798 C 96.175000,160.501853 94.074203,160.023735 92.331563,160.015313 C 88.220244,159.995443 68.574170,150.150225 63.997902,145.816492 C 57.739968,139.890219 51.983261,132.610803 49.398760,127.355726 C 46.611682,121.688749 44.090964,112.266635 44.035622,107.309017 C 44.016030,105.553976 43.544657,103.836616 42.988126,103.492662 C 41.902460,102.821683 42.202713,90.463954 43.332122,89.334544 C 43.699455,88.967212 44.000000,87.556375 44.000000,86.199353 C 44.000000,82.844888 46.119559,76.000000 47.158288,76.000000 C 47.621229,76.000000 48.000000,74.650000 48.000000,73.000000 C 48.000000,71.350000 48.450000,70.000000 49.000000,70.000000 C 49.550000,70.000000 50.000000,69.137500 50.000000,68.083333 C 50.000000,67.029167 50.369150,66.016667 50.820332,65.833333 C 51.271515,65.650000 52.781397,63.803870 54.175625,61.730822 C 59.203428,54.255088 66.191555,47.665327 73.065778,43.917523 C 75.504600,42.587886 77.725000,41.242176 78.000000,40.927058 C 78.736847,40.082718 81.715979,38.920158 89.000000,36.634477 C 98.014204,33.805877 115.049425,33.708644 123.500000,36.437560 C 126.800000,37.503218 129.725000,38.628935 130.000000,38.939154 C 130.275000,39.249373 131.850000,40.177471 133.500000,41.001594 C 144.411872,46.451731 153.960680,57.844603 157.804692,70.000000 C 162.330927,84.312702 162.330688,84.310990 161.039943,93.155473 C 160.370162,97.744963 159.506032,101.950000 159.119653,102.500000 C 158.733274,103.050000 157.807921,105.300000 157.063312,107.500000 C 154.382631,115.420260 142.691363,129.919926 136.695362,132.760602 C 124.053252,138.749950 117.179347,140.360033 107.000000,139.716180 C 96.633440,139.060486 93.912108,138.362109 85.257352,134.136358 C 81.351641,132.229365 75.311732,126.673840 72.009097,121.950577 C 70.682091,120.052760 69.308411,118.275000 68.956473,118.000000 C 68.604536,117.725000 67.469348,115.258099 66.433833,112.517997 C 65.056330,108.872952 64.544225,104.847587 64.525539,97.517997 C 64.501915,88.251298 64.739821,87.010008 67.697839,80.966326 C 71.672691,72.845096 80.973951,62.840691 87.000000,60.204984 C 106.835984,51.529012 118.921561,52.409137 130.530244,63.375046 C 135.783054,68.337007 136.859474,70.150443 139.423815,78.357970 C 140.818056,82.820431 141.095868,85.760044 140.589994,90.697666 C 139.954702,96.898481 136.633755,106.000000 135.006505,106.000000 C 134.581222,106.000000 134.012336,106.844825 133.742314,107.877389 C 133.169049,110.069560 123.105844,117.006429 117.929002,118.777980 C 113.771983,120.200541 104.749866,120.395264 102.236431,119.116671 C 101.281394,118.630841 99.150000,117.618341 97.500000,116.866671 C 90.468099,113.663239 84.000000,104.865955 84.000000,98.505274 C 84.000000,87.172622 94.742603,76.000000 105.639077,76.000000 C 109.884764,76.000000 111.175828,76.412942 112.401594,78.162968 C 114.557493,81.240946 113.605424,82.000000 107.588866,82.000000 C 103.745929,82.000000 101.390032,82.616438 98.989831,84.250000 C 93.277396,88.137849 91.511331,91.407014 91.599947,97.929423 C 91.693074,104.783876 94.071752,108.857103 99.480265,111.423611 C 103.294141,113.233414 112.686710,113.793798 117.500000,112.498714 C 122.350775,111.193544 128.864356,105.162877 131.546227,99.493867 C 134.910174,92.383068 135.184998,81.472917 132.108987,77.153058 C 130.949044,75.524069 130.000000,73.791919 130.000000,73.303837 C 130.000000,71.043473 121.146178,64.043210 116.317192,62.485544 C 111.172158,60.825931 105.094251,61.126631 94.500000,63.564935 C 90.634946,64.454491 82.056333,70.988373 77.742885,76.327956 C 74.133917,80.795469 70.000000,92.323650 70.000000,97.920401 C 70.000000,102.852452 73.654716,114.293137 76.731448,118.992454 C 79.849441,123.754793 90.394216,130.876823 97.000000,132.682006 C 105.010474,134.871052 119.592920,133.968138 125.236431,130.933666 C 126.191468,130.420150 127.425074,130.000000 127.977778,130.000000 C 129.292045,130.000000 137.592248,123.856741 141.842092,119.738555 C 143.680243,117.957350 146.440215,113.909400 147.975364,110.743112 C 149.510513,107.576823 151.204725,104.426823 151.740278,103.743112 C 152.664845,102.562769 155.084050,91.193546 155.090183,88.000000 C 155.096809,84.549614 153.691744,75.424839 153.011405,74.500000 C 152.606808,73.950000 151.988050,72.293967 151.636386,70.819927 C 151.284722,69.345887 150.435173,67.545887 149.748499,66.819927 C 149.061824,66.093967 147.180195,63.700000 145.567099,61.500000 C 139.768839,53.592115 132.300274,47.346147 125.259553,44.516778 C 121.541799,43.022770 117.718606,41.395310 116.763569,40.900200 C 111.060758,37.943752 89.388653,41.895760 79.000000,47.786561 C 71.877619,51.825249 60.516476,61.729321 58.967367,65.250000 C 58.301863,66.762500 57.361953,68.000000 56.878680,68.000000 C 56.395406,68.000000 56.000000,68.632475 56.000000,69.405499 C 56.000000,70.178524 55.147733,72.541024 54.106074,74.655499 C 50.677778,81.614636 49.600706,87.102880 49.550026,97.870942 C 49.509101,106.566218 49.948556,109.864501 51.965495,116.000000 C 53.321517,120.125000 54.721228,123.725000 55.075963,124.000000 C 55.430697,124.275000 56.439837,125.903628 57.318494,127.619172 C 59.661053,132.192928 67.680850,141.279605 70.799143,142.893162 C 72.284614,143.661818 73.725000,144.612125 74.000000,145.004957 C 74.275000,145.397789 77.665820,147.350429 81.535155,149.344157 C 101.840443,159.806735 129.280823,155.984074 144.157296,140.620401 C 149.377274,135.229470 152.000000,134.959672 152.000000,139.813628 C 152.000000,142.534354 149.433141,146.000000 147.418012,146.000000 C 146.909533,146.000000 145.313106,147.250636 143.870395,148.779191 C 138.145465,154.844767 121.283673,160.807938 107.624597,161.597514 C 102.010780,161.922026 97.922860,161.722060 97.000000,161.077798" fill="black" stroke="black" stroke-width="1"/>
</svg>
