<?xml version="1.0" encoding="utf-8" ?>
<svg xmlns="http://www.w3.org/2000/svg" xmlns:ev="http://www.w3.org/2001/xml-events" xmlns:xlink="http://www.w3.org/1999/xlink" baseProfile="full" height="219" version="1.1" width="255">
  <defs/>
  <path d="M 96.500000,197.460572 C 91.550000,196.765446 85.475000,195.671417 83.000000,195.029395 C 80.525000,194.387374 77.417557,193.602284 76.094571,193.284752 C 71.946824,192.289245 55.809776,184.067944 48.412543,179.181660 C 41.618901,174.694081 37.482916,169.928165 33.935769,162.500000 C 33.147850,160.850000 32.275071,159.275000 31.996261,159.000000 C 31.717452,158.725000 30.868673,156.700000 30.110088,154.500000 C 29.351502,152.300000 27.929714,148.700000 26.950559,146.500000 C 25.971404,144.300000 24.936076,141.150000 24.649831,139.500000 C 24.363585,137.850000 23.666049,134.374193 23.099750,131.775985 C 19.303200,114.357209 23.902026,87.286566 33.934167,68.000000 C 44.157764,48.345366 62.914740,38.804906 79.225160,44.963402 C 85.970733,47.510398 99.000000,59.434622 99.000000,63.061091 C 99.000000,63.632117 99.712890,65.477896 100.584199,67.162823 C 102.064129,70.024693 105.000000,79.921713 105.000000,82.048790 C 105.000000,82.571956 103.640353,83.000000 101.978561,83.000000 C 98.645674,83.000000 98.037546,82.043393 95.939281,73.500000 C 94.612236,68.096741 91.135729,61.000000 89.815859,61.000000 C 89.367137,61.000000 89.000000,60.350441 89.000000,59.556536 C 89.000000,58.762631 87.650000,57.315608 86.000000,56.340929 C 84.350000,55.366250 83.000000,54.288040 83.000000,53.944907 C 83.000000,52.906252 78.072203,51.000000 75.387206,51.000000 C 74.001927,51.000000 71.925800,50.495473 70.773590,49.878829 C 69.202328,49.037915 67.332349,49.080634 63.292730,50.049723 C 60.330467,50.760359 57.676210,51.714886 57.394381,52.170894 C 57.112553,52.626902 56.121024,53.002804 55.190983,53.006231 C 53.508900,53.012429 43.002130,63.053031 42.997654,64.658562 C 42.996363,65.121353 41.647419,67.075000 40.000000,69.000000 C 38.352581,70.925000 37.003637,73.512500 37.002346,74.750000 C 37.001056,75.987500 36.608482,77.000000 36.129961,77.000000 C 35.651440,77.000000 34.709712,79.137500 34.037232,81.750000 C 33.364752,84.362500 32.446274,87.400000 31.996169,88.500000 C 31.546064,89.600000 30.704835,93.200000 30.126771,96.500000 C 29.548707,99.800000 28.744202,104.300000 28.338983,106.500000 C 27.172954,112.830560 27.225978,116.989988 28.568444,124.500000 C 29.256657,128.350000 30.094548,133.437079 30.430422,135.804620 C 30.766297,138.172161 31.906181,141.997161 32.963498,144.304620 C 34.020816,146.612079 35.655441,150.914708 36.595999,153.866018 C 38.314868,159.259536 43.246080,165.859537 49.261914,170.818249 C 51.042861,172.286243 53.065164,174.023201 53.755920,174.678156 C 54.446676,175.333110 55.909176,176.153786 57.005920,176.501879 C 58.102664,176.849972 59.000000,177.554451 59.000000,178.067388 C 59.000000,178.580324 59.681106,179.000000 60.513569,179.000000 C 61.346032,179.000000 62.808532,179.397182 63.763569,179.882626 C 65.861056,180.948777 79.315203,186.364357 83.500000,187.826959 C 91.238112,190.531459 124.663663,192.237465 127.490895,190.072209 C 128.045903,189.647152 131.325673,188.717733 134.779272,188.006834 C 138.232872,187.295934 141.296930,186.328574 141.588289,185.857145 C 141.879649,185.385715 143.146732,185.000000 144.404029,185.000000 C 145.661327,185.000000 147.504514,184.100000 148.500000,183.000000 C 149.495486,181.900000 150.721511,181.000000 151.224499,181.000000 C 152.399424,181.000000 164.998707,169.757266 164.999444,168.708187 C 164.999750,168.272689 165.952900,166.922689 167.117556,165.708187 C 168.282211,164.493684 169.831213,162.114177 170.559781,160.420394 C 171.288349,158.726610 172.585449,156.759010 173.442225,156.047949 C 174.299001,155.336888 175.000000,154.112864 175.000000,153.327895 C 175.000000,152.542927 175.750936,150.460527 176.668748,148.700340 C 177.586559,146.940153 178.671256,143.925000 179.079186,142.000000 C 180.224078,136.597310 182.942223,125.841593 184.024588,122.431012 C 184.560265,120.743069 185.031858,111.002101 185.072572,100.784417 C 185.139670,83.945177 184.952592,81.805264 183.073299,77.915575 C 181.932984,75.555397 181.000000,73.027759 181.000000,72.298602 C 181.000000,71.073501 179.980806,68.733151 177.821546,65.000000 C 174.456526,59.182205 172.203909,56.548356 168.290373,53.855773 C 164.235898,51.066221 163.237562,50.815557 157.609263,51.173940 C 149.726213,51.675895 140.996282,55.770595 135.266825,61.653472 C 132.938578,64.044062 130.576078,66.000000 130.016825,66.000000 C 129.457571,66.000000 128.977924,66.562500 128.950941,67.250000 C 128.923959,67.937500 127.236459,70.179596 125.200941,72.232435 C 122.596985,74.858550 121.089373,75.705484 120.114653,75.089769 C 118.555103,74.104627 119.202102,69.983538 121.255997,67.819927 C 121.945144,67.093967 124.470557,64.126530 126.868025,61.225621 C 129.265494,58.324713 133.313471,54.746318 135.863529,53.273634 C 138.413588,51.800949 140.725000,50.300337 141.000000,49.938941 C 141.275000,49.577545 143.300000,48.713199 145.500000,48.018173 C 147.700000,47.323147 150.281394,46.359729 151.236431,45.877244 C 156.523112,43.206415 170.895043,46.029382 175.940137,50.729602 C 179.973681,54.487420 186.004703,64.397882 187.971434,70.500000 C 188.680500,72.700000 189.610373,74.950000 190.037818,75.500000 C 190.937265,76.657332 192.846500,93.150959 192.931716,100.500000 C 193.106790,115.598332 186.040571,147.437134 180.801870,155.154370 C 179.810841,156.614274 179.000000,158.052665 179.000000,158.350794 C 179.000000,158.648923 177.447941,161.541033 175.550980,164.777705 C 171.704574,171.340597 161.236398,182.591261 156.250000,185.521418 C 154.462500,186.571806 153.000000,187.784192 153.000000,188.215608 C 153.000000,188.647023 152.362500,189.000000 151.583333,189.000000 C 150.804167,189.000000 150.016667,189.358708 149.833333,189.797129 C 149.268905,191.146895 140.793898,194.662795 135.000000,195.950813 C 131.975000,196.623289 127.872791,197.584459 125.883980,198.086748 C 121.061096,199.304802 107.588293,199.017696 96.500000,197.460572" fill="none" stroke="black" stroke-width="5"/>
</svg>
