<?xml version="1.0" encoding="utf-8" ?>
<svg xmlns="http://www.w3.org/2000/svg" xmlns:ev="http://www.w3.org/2001/xml-events" xmlns:xlink="http://www.w3.org/1999/xlink" baseProfile="full" height="222" version="1.1" width="256">
  <defs/>
  <path d="M 117.500000,182.446567 C 114.750000,181.713816 110.925000,180.709966 109.000000,180.215789 C 107.075000,179.721611 104.059847,178.570895 102.299660,177.658642 C 100.539473,176.746389 98.401973,176.000000 97.549660,176.000000 C 96.697347,176.000000 95.999195,175.662500 95.998212,175.250000 C 95.997228,174.837500 93.859728,173.154084 91.248212,171.509075 C 88.636695,169.864066 84.522197,166.601566 82.104881,164.259075 C 79.687566,161.916584 77.401107,160.000000 77.023861,160.000000 C 76.646615,160.000000 75.699419,158.762500 74.918980,157.250000 C 74.138541,155.737500 72.455897,153.375000 71.179770,152.000000 C 69.903644,150.625000 68.167283,147.812500 67.321191,145.750000 C 66.475098,143.687500 65.413974,142.000000 64.963137,142.000000 C 64.512299,142.000000 63.584955,139.504460 62.902372,136.454356 C 62.219788,133.404252 61.287516,130.677695 60.830656,130.395339 C 60.373795,130.112984 60.000000,128.423524 60.000000,126.640983 C 60.000000,124.858442 59.533437,122.933437 58.963193,122.363193 C 57.664583,121.064583 56.992555,104.288195 58.117440,101.250000 C 58.679938,99.730756 59.770488,99.000000 61.475249,99.000000 L 64.000000,99.000000 L 64.000000,108.985649 C 64.000000,119.655399 65.082804,125.922117 68.110781,132.776751 C 69.149852,135.128965 70.000000,137.505981 70.000000,138.059010 C 70.000000,139.940419 79.086401,152.865427 83.801919,157.691637 C 89.283358,163.301747 95.051762,167.955875 96.555720,167.981801 C 97.136367,167.991810 99.079799,169.083321 100.874459,170.407379 C 104.041059,172.743622 108.835258,174.599145 117.883565,176.990498 C 125.465796,178.994386 142.769841,178.417657 150.115189,175.916246 C 176.866814,166.806152 192.658529,150.844908 199.006571,126.500000 C 199.723645,123.750000 200.732246,120.953609 201.247906,120.285798 C 202.895967,118.151459 200.702627,88.000000 198.899306,88.000000 C 198.404688,88.000000 198.003724,87.212500 198.008275,86.250000 C 198.012826,85.287500 196.139959,80.772249 193.846349,76.216110 C 190.668517,69.903509 187.692760,65.935394 181.341415,59.541018 C 176.757312,54.925857 171.767678,50.505468 170.253341,49.717931 C 162.888433,45.887782 158.297532,43.638802 156.250000,42.858005 C 155.012500,42.386102 152.987500,41.583353 151.750000,41.074118 C 146.454329,38.894933 133.216043,37.758073 126.309430,38.889366 C 114.775873,40.778546 108.000000,42.376129 108.000000,43.206276 C 108.000000,43.642824 107.413355,44.000000 106.696344,44.000000 C 104.522010,44.000000 94.873918,49.164989 94.311766,50.629934 C 94.022607,51.383470 93.271667,52.007439 92.643011,52.016531 C 92.014355,52.025623 88.456570,54.973516 84.736821,58.567403 C 81.017073,62.161291 77.529573,64.827294 76.986821,64.491855 C 76.444070,64.156416 76.000000,62.639631 76.000000,61.121221 C 76.000000,56.987916 87.357778,46.790991 97.487452,41.829953 C 113.695886,33.891825 124.287286,31.800933 139.000000,33.634787 C 152.379655,35.302484 160.000000,37.337960 160.000000,39.244111 C 160.000000,39.659850 161.156421,40.000000 162.569825,40.000000 C 163.983228,40.000000 167.101807,41.350000 169.500000,43.000000 C 171.898193,44.650000 174.111628,46.000000 174.418744,46.000000 C 174.725861,46.000000 175.958049,46.787500 177.156939,47.750000 C 197.450050,64.041830 207.175507,83.792057 207.317820,109.000000 C 207.358820,116.262369 204.569167,131.516435 202.846421,133.450000 C 202.380889,133.972500 202.000000,135.408442 202.000000,136.640983 C 202.000000,137.873524 201.602254,139.127787 201.116119,139.428234 C 200.629985,139.728682 199.276806,141.892739 198.109055,144.237251 C 191.954786,156.593273 178.201074,170.340263 167.250000,175.081226 C 165.462500,175.855074 164.000000,176.828373 164.000000,177.244111 C 164.000000,177.659850 163.093894,178.000000 161.986431,178.000000 C 160.878968,178.000000 159.191468,178.406141 158.236431,178.902536 C 157.281394,179.398930 154.475000,180.345793 152.000000,181.006674 C 149.525000,181.667556 146.466326,182.611415 145.202947,183.104139 C 141.815008,184.425450 123.275126,183.985378 117.500000,182.446567" fill="none" stroke="black" stroke-width="5"/>
</svg>
