<?xml version="1.0" encoding="utf-8" ?>
<svg xmlns="http://www.w3.org/2000/svg" xmlns:ev="http://www.w3.org/2001/xml-events" xmlns:xlink="http://www.w3.org/1999/xlink" baseProfile="full" height="223" version="1.1" width="257">
  <defs/>
  <path d="M 55.000000,175.989020 C 48.891601,175.236096 40.671640,170.543706 35.651653,164.943957 C 30.937527,159.685393 25.602840,149.662223 23.972301,143.000000 C 23.366560,140.525000 22.468479,137.150000 21.976567,135.500000 C 18.912931,125.223776 20.371933,99.081003 24.767017,85.500000 C 26.535103,80.036537 32.875019,69.513709 37.437408,64.470014 C 39.910064,61.736506 41.948188,59.180030 41.966573,58.788955 C 42.085952,56.249573 60.016596,44.000000 63.614307,44.000000 C 64.376438,44.000000 65.000000,43.659850 65.000000,43.244111 C 65.000000,41.419648 74.852459,38.465439 86.000000,36.947370 C 96.377116,35.534216 108.684739,36.927263 113.005649,40.004022 C 114.547349,41.101810 116.421235,42.000000 117.169840,42.000000 C 119.128881,42.000000 129.892698,52.949609 132.481951,57.576411 C 135.505285,62.978881 137.567277,63.121953 139.588858,58.069526 C 140.484424,55.831287 141.618299,54.000000 142.108580,54.000000 C 142.598861,54.000000 143.000000,53.340833 143.000000,52.535184 C 143.000000,51.729535 143.900000,50.588702 145.000000,50.000000 C 146.100000,49.411298 147.000805,48.382965 147.001788,47.714816 C 147.003668,46.437330 152.521861,42.711452 159.860971,39.032309 C 174.909614,31.488327 194.701397,33.878464 205.000000,44.483482 C 206.925000,46.465757 209.280826,48.837198 210.235169,49.753351 C 214.148517,53.510100 219.940152,68.223936 221.156758,77.500000 C 223.874956,98.225034 221.448517,118.923193 214.885759,130.993240 C 210.735398,138.626474 204.968230,147.160518 202.538095,149.264863 C 199.091019,152.249816 189.593706,157.645435 186.465680,158.395933 C 178.496087,160.308054 174.036119,160.684107 169.000000,159.868594 C 165.975000,159.378747 161.805494,158.770005 159.734430,158.515833 C 157.663367,158.261661 155.188367,157.655002 154.234430,157.167703 C 153.280494,156.680403 151.029966,156.003063 149.233258,155.662503 C 147.436550,155.321943 143.485715,153.908560 140.453623,152.521652 C 137.421531,151.134743 134.697644,150.000000 134.400540,150.000000 C 134.103436,150.000000 131.898193,148.650000 129.500000,147.000000 C 127.101807,145.350000 124.819447,144.000000 124.428088,144.000000 C 124.036729,144.000000 122.426394,142.650000 120.849565,141.000000 C 119.272736,139.350000 117.588273,138.000000 117.106312,138.000000 C 116.624351,138.000000 115.426748,136.774052 114.444971,135.275671 C 113.463194,133.777291 111.836440,131.667438 110.829961,130.587110 C 109.823483,129.506782 109.000000,128.241897 109.000000,127.776255 C 109.000000,125.875301 105.756815,122.156089 104.514777,122.632703 C 103.111888,123.171042 101.794967,126.790282 101.470196,131.000000 C 101.224667,134.182578 97.651257,143.748743 96.145459,145.254541 C 95.515457,145.884543 95.000000,147.459405 95.000000,148.754234 C 95.000000,150.049062 93.652082,152.546562 92.004627,154.304234 C 90.357173,156.061905 89.007173,158.000921 89.004627,158.613158 C 88.999021,159.961934 79.495883,169.000000 78.083310,169.000000 C 77.532005,169.000000 76.050227,170.048289 74.790469,171.329532 C 71.205786,174.975350 62.811055,176.951814 55.000000,175.989020" fill="none" stroke="black" stroke-width="5"/>
</svg>
