<?xml version="1.0" encoding="utf-8" ?>
<svg xmlns="http://www.w3.org/2000/svg" xmlns:ev="http://www.w3.org/2001/xml-events" xmlns:xlink="http://www.w3.org/1999/xlink" baseProfile="full" height="222" version="1.1" width="256">
  <defs/>
  <path d="M 204.533885,197.054827 C 204.175329,196.474672 202.810081,196.000000 201.500000,196.000000 C 200.189919,196.000000 198.839919,195.550000 198.500000,195.000000 C 198.160081,194.450000 197.002418,194.000000 195.927414,194.000000 C 194.852411,194.000000 193.191468,193.588028 192.236431,193.084507 C 191.281394,192.580986 187.125000,191.218614 183.000000,190.057013 C 178.875000,188.895413 172.800000,187.052830 169.500000,185.962384 C 166.200000,184.871939 162.289058,183.984311 160.809017,183.989878 C 159.328976,183.995445 157.839919,183.550000 157.500000,183.000000 C 157.160081,182.450000 156.002418,182.000000 154.927414,182.000000 C 153.852411,182.000000 152.191468,181.602502 151.236431,181.116671 C 147.932472,179.435936 144.474630,178.193021 138.500000,176.538586 C 135.200000,175.624783 129.028208,173.779772 124.784906,172.438563 C 120.541605,171.097353 116.180663,170.000000 115.093923,170.000000 C 114.007184,170.000000 112.839919,169.550000 112.500000,169.000000 C 112.160081,168.450000 110.810081,168.000000 109.500000,168.000000 C 108.189919,168.000000 106.839919,167.550000 106.500000,167.000000 C 106.160081,166.450000 104.360081,166.000000 102.500000,166.000000 C 100.639919,166.000000 98.839919,165.550000 98.500000,165.000000 C 98.160081,164.450000 96.810081,164.000000 95.500000,164.000000 C 94.189919,164.000000 92.839919,163.550000 92.500000,163.000000 C 92.160081,162.450000 91.129720,162.000000 90.210309,162.000000 C 89.290898,162.000000 86.279956,161.138492 83.519326,160.085538 C 80.758697,159.032583 76.475000,157.644091 74.000000,157.000000 C 71.525000,156.355909 67.250000,155.008356 64.500000,154.005439 C 59.403764,152.146857 56.044743,151.278255 50.240732,150.318166 C 48.448134,150.021638 46.734076,149.378744 46.431715,148.889512 C 46.129353,148.400280 44.815667,148.000000 43.512412,148.000000 C 40.606455,148.000000 37.884378,145.464880 38.649478,143.471061 C 39.596615,141.002863 44.732777,141.775506 58.560947,146.466382 C 65.802459,148.922892 73.598656,151.232000 75.885829,151.597734 C 78.173003,151.963468 80.285911,152.653596 80.581180,153.131352 C 80.876450,153.609109 81.940697,154.000000 82.946173,154.000000 C 83.951650,154.000000 90.212473,155.779257 96.859114,157.953905 C 103.505755,160.128553 110.869034,162.400307 113.221958,163.002248 C 115.574881,163.604189 121.775000,165.400722 127.000000,166.994545 C 138.118603,170.386139 148.868225,173.564489 154.500000,175.125494 C 156.700000,175.735285 160.750000,177.028813 163.500000,178.000000 C 166.250000,178.971187 170.525000,180.319783 173.000000,180.996880 C 175.475000,181.673977 178.400000,182.589084 179.500000,183.030451 C 180.600000,183.471819 183.750000,184.330741 186.500000,184.939169 C 189.250000,185.547596 193.202426,186.785259 195.283169,187.689531 C 200.432594,189.927426 202.105486,188.295883 198.571417,184.482560 C 197.157138,182.956527 196.000000,181.355808 196.000000,180.925406 C 196.000000,180.495004 195.437500,179.548214 194.750000,178.821429 C 194.062500,178.094643 191.106063,174.184854 188.180141,170.133009 C 185.254218,166.081164 182.415035,162.256164 181.870844,161.633009 C 180.975410,160.607644 179.409362,158.265401 175.764419,152.500000 C 175.068989,151.400000 174.245301,150.275000 173.934001,150.000000 C 172.737308,148.942848 167.000000,140.098072 167.000000,139.310372 C 167.000000,138.854269 166.100000,137.919034 165.000000,137.232073 C 163.900000,136.545112 163.000000,135.459799 163.000000,134.820267 C 163.000000,134.180735 162.399113,132.947048 161.664695,132.078741 C 160.930277,131.210433 159.735795,129.001558 159.010290,127.170128 C 157.529562,123.432246 157.032216,124.017655 176.463129,106.626997 C 180.842850,102.707149 186.496349,97.475000 189.026459,95.000000 C 191.556570,92.525000 194.835662,89.861459 196.313330,89.081020 C 197.790999,88.300581 199.000000,87.149707 199.000000,86.523521 C 199.000000,85.897335 201.016685,83.963510 203.481521,82.226133 C 206.519335,80.084885 207.773456,78.573210 207.374532,77.533633 C 207.050852,76.690135 206.116134,76.000000 205.297382,76.000000 C 204.478629,76.000000 202.614274,75.150321 201.154370,74.111825 C 199.694467,73.073329 195.575000,70.767488 192.000000,68.987734 C 188.425000,67.207979 184.491011,65.245158 183.257802,64.625908 C 182.024593,64.006659 181.012093,63.162500 181.007802,62.750000 C 181.003511,62.337500 180.312167,62.000000 179.471483,62.000000 C 177.550724,62.000000 165.616415,56.055779 165.166667,54.875080 C 164.983333,54.393786 164.008333,54.000000 163.000000,54.000000 C 161.991667,54.000000 161.016667,53.662500 160.833333,53.250000 C 160.650000,52.837500 158.250000,51.442132 155.500000,50.149181 C 149.956261,47.542716 149.731764,47.424400 138.736299,41.314260 C 134.466263,38.941417 130.560906,37.000000 130.057727,37.000000 C 129.554549,37.000000 128.548214,36.437500 127.821429,35.750000 C 127.094643,35.062500 125.150000,33.884998 123.500000,33.133329 C 121.850000,32.381659 119.677238,31.343324 118.671639,30.825918 C 116.534201,29.726150 116.044611,30.061494 107.467779,38.500000 C 104.113684,41.800000 94.915647,50.575000 87.027695,58.000000 C 79.139744,65.425000 68.766975,75.325000 63.977098,80.000000 C 59.187221,84.675000 52.170379,91.276741 48.384115,94.670535 C 44.597852,98.064329 38.892028,103.351829 35.704506,106.420535 C 29.867274,112.040182 26.455086,113.349510 25.324604,110.403522 C 24.777255,108.977154 27.336853,106.140230 34.692112,100.021068 C 35.347773,99.475595 36.247773,98.460206 36.692112,97.764649 C 37.136450,97.069092 40.001845,94.400882 43.059656,91.835293 C 46.117467,89.269704 53.425686,82.519704 59.300142,76.835293 C 65.174598,71.150882 71.980899,64.700000 74.425255,62.500000 C 76.869610,60.300000 87.006597,50.512500 96.951891,40.750000 C 106.897185,30.987500 115.589039,23.002772 116.267122,23.006161 C 117.585865,23.012751 118.433104,23.444047 130.000000,29.997029 C 134.125000,32.333961 139.300000,35.137700 141.500000,36.227561 C 143.700000,37.317421 146.625000,38.804584 148.000000,39.532367 C 149.375000,40.260150 156.350000,43.874972 163.500000,47.565303 C 170.650000,51.255635 176.650000,54.663123 176.833333,55.137499 C 177.016667,55.611874 177.810273,56.000000 178.596902,56.000000 C 179.919628,56.000000 183.839749,57.837644 185.000000,59.001594 C 185.275000,59.277471 186.625000,60.011646 188.000000,60.633095 C 195.645364,64.088513 200.599835,66.640093 201.770966,67.725218 C 202.498246,68.399088 204.759802,69.725641 206.796646,70.673115 C 208.833491,71.620588 210.725000,72.689373 211.000000,73.048193 C 211.275000,73.407012 212.539808,74.248406 213.810684,74.917957 C 216.663149,76.420754 216.421797,79.992314 213.365239,81.509729 C 212.191121,82.092615 208.913621,84.803879 206.081906,87.534761 C 200.368145,93.045063 198.543514,94.729506 184.996675,107.000000 C 179.835393,111.675000 173.224708,117.703758 170.306263,120.397241 C 165.183378,125.125239 163.799588,128.140070 166.099830,129.561698 C 166.704737,129.935551 168.958610,132.999609 171.108437,136.370715 C 175.440405,143.163599 176.983015,145.386883 181.750000,151.707846 C 183.537500,154.078049 185.000000,156.463412 185.000000,157.008653 C 185.000000,157.553894 185.343769,158.000000 185.763932,158.000000 C 186.184095,158.000000 187.640325,159.800000 189.000000,162.000000 C 190.359675,164.200000 191.815905,166.000000 192.236068,166.000000 C 192.656231,166.000000 193.004730,166.562500 193.010511,167.250000 C 193.016292,167.937500 195.041292,171.191147 197.510511,174.480326 C 199.979730,177.769505 202.000000,180.774862 202.000000,181.158897 C 202.000000,181.542932 202.577311,182.451786 203.282913,183.178571 C 203.988514,183.905357 205.659493,186.075000 206.996197,188.000000 C 208.332902,189.925000 209.974472,191.950000 210.644131,192.500000 C 211.313789,193.050000 212.005311,194.400000 212.180846,195.500000 C 212.444392,197.151526 211.862799,197.553112 208.842902,197.804827 C 206.831498,197.972482 204.892440,197.634982 204.533885,197.054827" fill="black" stroke="black" stroke-width="1"/>
</svg>
