<?xml version="1.0" encoding="utf-8" ?>
<svg xmlns="http://www.w3.org/2000/svg" xmlns:ev="http://www.w3.org/2001/xml-events" xmlns:xlink="http://www.w3.org/1999/xlink" baseProfile="full" height="224" version="1.1" width="259">
  <defs/>
  <path d="M 62.462180,194.880840 C 62.092253,193.715303 62.347137,191.577803 63.028588,190.130840 C 69.339164,176.731266 71.283203,163.469486 71.403373,133.000000 C 71.456518,119.525000 71.154914,105.575000 70.733142,102.000000 C 68.585100,83.792869 68.121638,77.429395 68.074790,65.500000 C 68.016558,50.671687 69.327618,44.274383 73.871778,37.213660 C 77.492739,31.587406 79.082171,30.179340 85.002591,27.352954 C 94.975955,22.591709 97.224634,22.362459 113.000000,24.498648 C 120.982365,25.579564 129.933191,31.999721 134.693971,40.059080 C 135.649455,41.676586 136.784192,43.000000 137.215608,43.000000 C 137.647023,43.000000 138.000000,43.590477 138.000000,44.312171 C 138.000000,45.033864 138.900000,47.487127 140.000000,49.763864 C 141.100000,52.040602 142.000000,55.050125 142.000000,56.451694 C 142.000000,57.853262 142.450000,59.000000 143.000000,59.000000 C 143.550000,59.000000 144.001961,59.787500 144.004358,60.750000 C 144.011369,63.565287 151.339807,83.018606 154.799985,89.406964 C 160.553420,100.029250 173.020233,105.991288 186.574561,104.602606 C 196.767970,103.558261 210.137402,107.640928 214.758742,113.209301 C 215.434901,114.024024 216.270659,116.103297 216.615981,117.829907 C 217.539645,122.448226 214.777730,123.119508 210.684087,119.271653 C 203.963530,112.954606 197.499292,111.000000 183.328225,111.000000 C 171.314194,111.000000 167.585433,110.129991 161.500000,105.906955 C 154.208714,100.847108 152.353104,98.578880 148.077667,89.500000 C 145.746608,84.550000 143.425517,79.718606 142.919689,78.763569 C 142.413860,77.808532 142.000000,75.986032 142.000000,74.713569 C 142.000000,73.441106 141.628246,71.972500 141.173880,71.450000 C 140.719514,70.927500 139.738241,68.475000 138.993272,66.000000 C 135.748912,55.221310 128.353504,40.078203 124.695494,36.723351 C 113.749809,26.684787 92.221944,26.941077 81.000000,37.243547 C 73.425136,44.197762 71.877963,63.879563 76.341889,96.500000 C 77.466877,104.720931 77.986107,115.743215 77.990644,131.500000 C 77.997044,153.728777 77.570362,158.432531 74.044724,175.000000 C 72.090766,184.181922 72.895695,185.497682 78.668960,182.558916 C 84.178158,179.754569 90.997107,177.000000 92.430085,177.000000 C 93.228619,177.000000 94.160081,176.550000 94.500000,176.000000 C 94.839919,175.450000 96.447582,175.000000 98.072586,175.000000 C 99.697589,175.000000 101.808532,174.605240 102.763569,174.122756 C 106.166539,172.403576 112.004053,170.884471 112.953219,171.471087 C 113.483901,171.799067 116.074025,171.380372 118.709048,170.540652 C 121.344072,169.700932 126.200000,168.816549 129.500000,168.575355 C 143.155646,167.577278 159.849127,165.889446 165.000000,164.986048 C 168.025000,164.455502 177.250000,163.186667 185.500000,162.166415 C 194.498270,161.053627 201.900404,159.601703 204.000000,158.537651 C 209.658491,155.669992 214.000000,152.028099 214.000000,150.149109 C 214.000000,148.097943 215.859200,146.000000 217.676947,146.000000 C 219.789682,146.000000 222.507017,150.892983 221.148653,152.251347 C 220.516894,152.883106 220.000000,154.048782 220.000000,154.841737 C 220.000000,157.137046 214.271875,161.991522 208.659758,164.452376 C 201.909153,167.412444 195.984252,168.646780 182.000000,170.006407 C 175.675000,170.621359 164.425000,171.822532 157.000000,172.675679 C 149.575000,173.528826 140.125000,174.434633 136.000000,174.688582 C 131.875000,174.942532 128.072500,175.566489 127.550000,176.075154 C 127.027500,176.583819 125.227500,177.001438 123.550000,177.003195 C 118.830640,177.008138 103.775865,179.835375 97.082054,181.973787 C 93.767640,183.032613 85.258814,186.846667 78.173552,190.449463 C 71.088289,194.052258 64.806048,197.000000 64.213016,197.000000 C 63.619984,197.000000 62.832108,196.046378 62.462180,194.880840" fill="black" stroke="black" stroke-width="1"/>
</svg>
