<?xml version="1.0" encoding="utf-8" ?>
<svg xmlns="http://www.w3.org/2000/svg" xmlns:ev="http://www.w3.org/2001/xml-events" xmlns:xlink="http://www.w3.org/1999/xlink" baseProfile="full" height="223" version="1.1" width="256">
  <defs/>
  <path d="M 160.500000,160.760056 C 158.850000,160.195106 156.600000,159.372512 155.500000,158.932070 C 151.477376,157.321404 127.017649,149.700895 114.000000,146.002607 C 109.875000,144.830703 105.600000,143.469482 104.500000,142.977671 C 103.400000,142.485860 100.475000,141.572639 98.000000,140.948292 C 95.525000,140.323945 89.450000,138.539203 84.500000,136.982198 C 76.809916,134.563309 57.194799,128.563748 53.250000,127.423943 C 50.648981,126.672408 52.210034,124.375582 57.758746,120.790084 C 60.916436,118.749630 64.625000,116.187569 66.000000,115.096615 C 67.375000,114.005661 71.425000,110.816758 75.000000,108.010164 C 78.575000,105.203570 82.183815,102.365631 83.019588,101.703633 C 83.855362,101.041635 88.355362,97.610623 93.019588,94.079161 C 103.962462,85.793899 109.375467,81.624533 110.000000,81.000000 C 112.350542,78.649458 120.060849,73.000000 120.918297,73.000000 C 121.513234,73.000000 122.000000,73.878826 122.000000,74.952947 C 122.000000,76.027068 122.408617,77.939568 122.908038,79.202947 C 123.407458,80.466326 124.772034,84.875000 125.940428,89.000000 C 127.953354,96.106609 130.788449,105.624271 133.536298,114.500000 C 135.673654,121.403797 137.347543,129.985790 136.685818,130.647516 C 135.670154,131.663180 121.097437,127.881147 99.429002,120.978316 C 97.739953,120.440242 95.425598,120.000000 94.285991,120.000000 C 90.437049,120.000000 90.883051,117.262891 95.089234,115.070506 C 97.274028,113.931728 99.835230,112.999897 100.780794,112.999772 C 103.065085,112.999469 119.990202,117.808460 122.384019,119.137969 C 125.363796,120.792917 125.953243,118.450034 124.015579,112.652978 C 119.293757,98.526341 118.000000,94.028886 118.000000,91.741174 C 118.000000,87.343152 115.673512,86.571138 111.861887,89.704323 C 110.012849,91.224246 108.275000,92.715389 108.000000,93.017976 C 107.725000,93.320562 104.495341,95.689605 100.822981,98.282514 C 97.150620,100.875424 93.550620,103.574905 92.822981,104.281361 C 92.095341,104.987816 89.925000,106.661204 88.000000,108.000000 C 86.075000,109.338796 83.921126,110.995717 83.213613,111.682045 C 82.506101,112.368374 80.593601,113.717708 78.963613,114.680566 C 77.333626,115.643423 76.000000,116.784192 76.000000,117.215608 C 76.000000,117.647023 75.543689,118.000000 74.985976,118.000000 C 73.698268,118.000000 67.028896,122.289792 67.012379,123.128680 C 66.993437,124.090694 73.011562,126.078581 108.500000,136.832728 C 114.000000,138.499407 122.325000,141.052411 127.000000,142.506072 C 131.675000,143.959733 137.975000,145.810362 141.000000,146.618581 C 144.025000,147.426800 148.570082,148.698978 151.100183,149.445644 C 157.191122,151.243160 158.572659,150.358880 156.631476,145.905232 C 155.815157,144.032354 153.941215,138.450000 152.467161,133.500000 C 150.993106,128.550000 149.435790,123.600000 149.006459,122.500000 C 148.577127,121.400000 147.212151,117.125000 145.973178,113.000000 C 144.734205,108.875000 143.333388,104.466326 142.860250,103.202947 C 142.387113,101.939568 142.000000,100.087077 142.000000,99.086300 C 142.000000,98.085523 141.157077,95.069197 140.126838,92.383353 C 138.306787,87.638460 135.619133,79.185139 133.010260,70.000000 C 132.307281,67.525000 130.847683,62.869117 129.766708,59.653594 C 128.685734,56.438071 127.999189,52.458888 128.241052,50.810966 C 128.855032,46.627653 126.718353,46.182066 122.645431,49.644044 C 116.771176,54.637153 115.213668,55.815740 112.829106,57.072184 C 111.548098,57.747157 110.275000,58.603316 110.000000,58.974759 C 109.725000,59.346202 106.575000,61.607560 103.000000,64.000000 C 99.425000,66.392440 96.275000,68.630346 96.000000,68.973125 C 95.725000,69.315904 93.925000,70.677998 92.000000,72.000000 C 90.075000,73.322002 88.275000,74.672002 88.000000,75.000000 C 87.725000,75.327998 85.925000,76.689890 84.000000,78.026429 C 82.075000,79.362967 79.568805,81.366286 78.430677,82.478249 C 77.292549,83.590212 73.519562,86.525000 70.046261,89.000000 C 66.572961,91.475000 62.773569,94.400000 61.603169,95.500000 C 60.432769,96.600000 56.555755,99.511150 52.987584,101.969223 C 49.419413,104.427296 46.050000,106.791998 45.500000,107.224117 C 31.381988,118.316221 27.140304,120.828745 25.882612,118.844302 C 25.414019,118.104936 25.023735,116.568791 25.015313,115.430646 C 24.999041,113.231675 28.206122,110.642155 51.000000,94.449618 C 57.875000,89.565688 63.725000,85.307372 64.000000,84.986693 C 64.275000,84.666014 66.075000,83.322002 68.000000,82.000000 C 69.925000,80.677998 71.725000,79.327998 72.000000,79.000000 C 72.275000,78.672002 74.075000,77.312507 76.000000,75.978899 C 77.925000,74.645291 79.950000,73.191304 80.500000,72.747818 C 81.050000,72.304333 85.550000,69.012260 90.500000,65.432103 C 95.450000,61.851945 100.175000,58.371201 101.000000,57.697116 C 101.825000,57.023032 104.075000,55.374599 106.000000,54.033934 C 107.925000,52.693268 109.725000,51.327998 110.000000,51.000000 C 110.275000,50.672002 112.075000,49.322002 114.000000,48.000000 C 115.925000,46.677998 117.725000,45.312071 118.000000,44.964608 C 119.443781,43.140388 129.524121,37.135439 130.086202,37.764750 C 130.447389,38.169137 131.533750,41.200000 132.500338,44.500000 C 133.466926,47.800000 135.485843,54.325000 136.986820,59.000000 C 138.487796,63.675000 140.281090,69.525000 140.971917,72.000000 C 141.662744,74.475000 142.581259,77.400000 143.013062,78.500000 C 144.266999,81.694349 145.676317,86.154503 146.962810,91.000000 C 149.343321,99.966052 153.978591,115.167539 160.989228,137.000000 C 162.490421,141.675000 164.293697,147.649092 164.996509,150.275761 C 165.699320,152.902430 166.662619,155.291487 167.137174,155.584778 C 167.611728,155.878069 168.000000,157.441476 168.000000,159.059017 C 168.000000,162.320637 166.230190,162.722040 160.500000,160.760056" fill="black" stroke="black" stroke-width="1"/>
</svg>
