<?xml version="1.0" encoding="utf-8" ?>
<svg xmlns="http://www.w3.org/2000/svg" xmlns:ev="http://www.w3.org/2001/xml-events" xmlns:xlink="http://www.w3.org/1999/xlink" baseProfile="full" height="221" version="1.1" width="261">
  <defs/>
  <path d="M 102.000000,191.863311 C 100.075000,191.326320 97.118051,190.462397 95.429002,189.943482 C 93.739953,189.424567 91.519914,189.000000 90.495581,189.000000 C 87.270366,189.000000 76.673024,184.836499 72.319825,181.859078 C 70.020728,180.286585 67.433228,179.000000 66.569825,179.000000 C 65.706421,179.000000 65.000000,178.604594 65.000000,178.121320 C 65.000000,177.638047 63.650000,176.683452 62.000000,176.000000 C 60.350000,175.316548 59.000000,174.458977 59.000000,174.094287 C 59.000000,173.729598 57.752258,172.694156 56.227241,171.793306 C 52.946905,169.855564 36.000000,153.288598 36.000000,152.019547 C 36.000000,151.537368 35.416104,150.548214 34.702452,149.821429 C 32.483912,147.562056 27.000000,139.195272 27.000000,138.069825 C 27.000000,137.481421 26.550000,137.000000 26.000000,137.000000 C 25.450000,137.000000 25.000000,136.316717 25.000000,135.481594 C 25.000000,134.646471 23.817928,131.702519 22.373174,128.939478 C 18.955160,122.402650 14.983444,102.116555 15.052987,91.550597 C 15.082130,87.122768 15.778335,79.900000 16.600110,75.500000 C 17.421884,71.100000 18.347760,66.033329 18.657611,64.240732 C 18.967462,62.448134 19.621256,60.734076 20.110488,60.431715 C 20.599720,60.129353 21.000000,59.138438 21.000000,58.229682 C 21.000000,56.124451 28.933160,40.127917 31.250000,37.561439 C 32.212500,36.495230 33.000000,35.070230 33.000000,34.394772 C 33.000000,33.719314 33.354160,33.016667 33.787023,32.833333 C 34.219886,32.650000 36.095200,30.587500 37.954388,28.250000 C 39.813576,25.912500 41.709415,24.000000 42.167365,24.000000 C 42.625314,24.000000 43.900000,24.900000 45.000000,26.000000 C 47.060773,28.060773 47.700678,31.000000 46.088560,31.000000 C 45.019528,31.000000 35.207810,43.921741 32.420825,49.000000 C 31.364371,50.925000 30.162500,52.650000 29.750000,52.833333 C 29.337500,53.016667 29.000000,54.272094 29.000000,55.623171 C 29.000000,56.974249 28.100000,59.843822 27.000000,62.000000 C 25.900000,64.156178 25.000000,66.575751 25.000000,67.376829 C 25.000000,68.177906 24.582382,68.983333 24.071960,69.166667 C 23.561538,69.350000 22.847892,72.425000 22.486079,76.000000 C 21.652274,84.238659 21.327003,104.996860 22.031685,104.998650 C 22.627233,105.000162 24.567869,111.659663 25.528982,117.000000 C 26.308402,121.330776 35.387205,139.836809 38.333312,143.100066 C 39.524990,144.420030 41.838775,147.300000 43.475057,149.500000 C 48.272246,155.949879 57.010270,164.274939 64.000000,169.054923 C 67.575000,171.499715 70.725000,173.725000 71.000000,174.000000 C 71.693467,174.693467 80.762061,177.966301 85.000000,179.052566 C 86.925000,179.545981 92.342392,180.985787 97.038649,182.252136 C 104.869298,184.363676 106.652015,184.486890 118.538649,183.738128 C 131.480463,182.922899 131.516581,182.913655 142.500000,177.606106 C 151.026178,173.485976 154.895205,170.917412 159.703863,166.184830 C 163.115988,162.826688 166.666278,158.598816 167.593396,156.789558 C 168.520514,154.980301 169.564491,153.275000 169.913344,153.000000 C 171.321099,151.890273 176.802968,140.182476 178.107261,135.500000 C 179.881344,129.130956 179.862262,110.306748 178.074316,103.000000 C 176.440177,96.321812 174.570118,92.497976 168.541724,83.508064 C 163.468172,75.942070 154.599357,66.582843 150.267649,64.223500 C 140.453274,58.877924 129.652432,55.000000 124.578242,55.000000 C 122.877947,55.000000 120.105053,54.603721 118.416255,54.119380 C 114.285022,52.934558 101.651974,55.030760 96.358538,57.779418 C 90.399406,60.873743 84.419619,67.461738 80.345075,75.421622 C 77.081977,81.796294 76.796185,83.063047 76.728393,91.452299 C 76.660025,99.912846 76.886549,100.986333 79.910186,106.530677 C 83.663070,113.412215 86.684356,116.841405 92.418998,120.728302 C 94.663549,122.249642 96.725000,123.742549 97.000000,124.045872 C 98.218095,125.389425 106.241616,127.000000 111.716796,127.000000 C 124.052176,127.000000 133.055841,121.875465 136.109113,113.116844 C 136.919136,110.793211 136.792072,108.796575 135.565714,104.578051 C 133.439641,97.264617 127.702077,92.981703 119.642284,92.691703 C 113.681111,92.477214 111.000000,93.968901 111.000000,97.500000 C 111.000000,101.188629 113.238729,102.239027 119.447125,101.463339 C 124.451934,100.838030 124.997805,100.953650 124.977764,102.634777 C 124.918807,107.580277 117.943104,111.206472 111.566936,109.606156 C 106.300862,108.284455 102.891775,98.192069 105.700309,92.238377 C 108.391179,86.534117 112.382365,84.000000 118.675596,84.000000 C 121.712776,84.000000 125.840750,84.746460 127.848871,85.658800 C 132.087472,87.584504 139.000000,93.810820 139.000000,95.702948 C 139.000000,96.416326 139.378771,97.000000 139.841712,97.000000 C 141.247174,97.000000 143.000000,104.391928 143.000000,110.318967 C 143.000000,115.664955 141.481960,121.000000 139.960805,121.000000 C 139.565815,121.000000 138.728770,122.237500 138.100706,123.750000 C 135.813091,129.259023 122.687466,135.583647 115.521994,134.629625 C 103.347620,133.008709 95.000000,131.078123 95.000000,129.883423 C 95.000000,129.397540 94.394744,129.000000 93.654988,129.000000 C 92.915231,129.000000 91.495486,128.100000 90.500000,127.000000 C 89.504514,125.900000 88.120296,125.000000 87.423960,125.000000 C 85.419348,125.000000 77.466426,116.514588 75.536485,112.316596 C 74.571454,110.217468 73.155959,107.193363 72.390942,105.596362 C 71.625924,103.999361 71.000000,101.666156 71.000000,100.411462 C 71.000000,99.156767 70.618905,97.088404 70.153122,95.815100 C 68.724799,91.910509 72.722118,72.420739 75.526426,69.616431 C 76.336892,68.805965 77.000000,67.742771 77.000000,67.253777 C 77.000000,65.782615 87.295548,55.512104 90.250000,54.035998 C 91.762500,53.280321 93.000000,52.288081 93.000000,51.831020 C 93.000000,51.373959 93.681106,51.000000 94.513569,51.000000 C 95.346032,51.000000 96.808532,50.602502 97.763569,50.116671 C 105.066050,46.401874 111.283200,45.577707 121.078902,47.025909 C 132.634120,48.734240 141.432148,51.988879 153.670770,59.082561 C 158.796370,62.053433 168.215443,70.636009 169.972994,73.937003 C 170.686639,75.277355 172.079686,77.242533 173.068654,78.304066 C 174.755731,80.114931 181.308404,92.842577 183.975829,99.489721 C 184.635687,101.134068 185.538925,108.695873 185.983025,116.293732 C 186.784805,130.010949 186.649001,131.317535 183.259192,142.500000 C 182.057808,146.463183 174.993071,159.562400 172.523635,162.405539 C 171.135636,164.003586 170.000000,165.654366 170.000000,166.073940 C 170.000000,168.139276 154.826952,181.000000 152.390273,181.000000 C 151.959748,181.000000 149.963381,182.139376 147.953901,183.531947 C 143.608873,186.543053 129.285081,190.511622 119.500000,191.415422 C 115.650000,191.771028 110.925000,192.236957 109.000000,192.450819 C 107.075000,192.664681 103.925000,192.400302 102.000000,191.863311" fill="black" stroke="black" stroke-width="1"/>
</svg>
