<?xml version="1.0" encoding="utf-8" ?>
<svg xmlns="http://www.w3.org/2000/svg" xmlns:ev="http://www.w3.org/2001/xml-events" xmlns:xlink="http://www.w3.org/1999/xlink" baseProfile="full" height="218" version="1.1" width="260">
  <defs/>
  <path d="M 118.530786,162.646170 C 117.142120,161.630752 117.130689,161.258427 118.431181,159.401715 C 119.603321,157.728251 121.780009,157.044662 129.200130,156.019725 C 134.315059,155.313204 141.875000,153.446805 146.000000,151.872173 C 150.125000,150.297541 154.062500,149.007134 154.750000,149.004603 C 155.437500,149.002071 156.000000,148.659850 156.000000,148.244111 C 156.000000,147.828373 157.462500,146.851112 159.250000,146.072420 C 164.155355,143.935493 179.953749,127.309844 179.986586,124.250000 C 179.993963,123.562500 180.343845,123.000000 180.764100,123.000000 C 181.683799,123.000000 184.910953,115.865445 186.192028,111.000000 C 186.698882,109.075000 187.592144,105.700000 188.177054,103.500000 C 189.505371,98.503856 189.820599,92.273492 188.910687,89.000000 C 188.528486,87.625000 187.656580,83.800000 186.973116,80.500000 C 183.079282,61.699222 174.410267,47.803720 159.909131,37.119333 C 156.834154,34.853700 153.796654,33.000000 153.159131,33.000000 C 152.521609,33.000000 152.000000,32.659850 152.000000,32.244111 C 152.000000,31.180432 147.381740,29.292794 141.500000,27.952408 C 138.750000,27.325713 135.111863,26.469989 133.415251,26.050799 C 128.713947,24.889225 114.253950,27.326657 108.000000,30.334890 C 104.975000,31.789955 101.992600,32.984858 101.372445,32.990231 C 100.752289,32.995604 99.677797,33.683304 98.984684,34.518454 C 98.291571,35.353604 96.229734,36.746212 94.402823,37.613138 C 88.176272,40.567830 80.373466,51.627532 77.197481,62.000000 C 75.104739,68.834701 74.317353,80.099093 75.594831,84.927611 C 78.320114,95.228434 82.043908,105.000000 83.244111,105.000000 C 83.659850,105.000000 84.000000,105.716667 84.000000,106.592593 C 84.000000,109.213685 96.090788,120.438582 102.023635,123.325451 C 108.900523,126.671681 120.600815,129.182343 126.236999,128.521181 C 137.226500,127.232039 138.938610,126.559796 146.665850,120.500000 C 156.287860,112.954303 159.963464,104.471658 159.985447,89.760727 C 160.002505,78.345184 158.156000,72.336729 152.656105,65.911339 C 139.674701,50.745488 117.078689,49.183610 108.034425,62.827006 C 104.230113,68.565862 104.526220,76.097515 108.798041,82.250000 C 110.611963,84.862500 112.884463,87.000000 113.848041,87.000000 C 114.811618,87.000000 116.027500,87.419928 116.550000,87.933174 C 117.072500,88.446419 119.300000,89.008919 121.500000,89.183174 C 124.768777,89.442082 125.558377,89.911018 125.819340,91.748388 C 126.059597,93.439978 125.440490,94.262980 123.319340,95.071726 C 116.114902,97.818616 105.037240,91.953812 100.493470,82.987114 C 97.042789,76.177522 96.736344,64.974003 99.908409,61.597494 C 101.058784,60.372976 102.000000,58.837601 102.000000,58.185549 C 102.000000,57.533497 102.397516,57.000000 102.883369,57.000000 C 103.369221,57.000000 103.976219,56.198941 104.232252,55.219870 C 104.488285,54.240798 107.392042,52.003706 110.685045,50.248553 C 115.882651,47.478258 117.716092,47.043836 124.586162,46.954772 C 134.640666,46.824425 141.462694,48.763489 149.598492,54.064170 C 156.140861,58.326692 157.959685,60.294134 162.019392,67.500000 C 167.220434,76.731702 168.740770,95.192035 165.066599,104.500000 C 164.632391,105.600000 163.700943,108.283476 162.996714,110.463279 C 162.292486,112.643083 161.098322,115.044535 160.343019,115.799839 C 159.587715,116.555143 157.803466,118.702181 156.378021,120.571036 C 154.952576,122.439890 152.146885,124.964685 150.143151,126.181690 C 148.139418,127.398696 146.275000,128.689159 146.000000,129.049386 C 145.725000,129.409614 143.925000,130.376687 142.000000,131.198439 C 131.013397,135.888443 122.735023,136.910812 113.827175,134.677746 C 110.347229,133.805375 106.293967,132.845328 104.819927,132.544307 C 103.345887,132.243287 101.517677,131.374820 100.757239,130.614382 C 99.996800,129.853943 97.437995,128.243772 95.071004,127.036224 C 87.910224,123.383066 78.719060,113.476424 74.555814,104.924046 C 69.604022,94.751790 68.746620,91.261442 68.276370,79.361419 C 67.924097,70.446875 68.191676,68.273724 70.492704,61.361419 C 75.671805,45.803364 79.088942,40.594260 90.150384,31.395138 C 93.865825,28.305234 104.398589,23.157058 110.862665,21.271446 C 121.612438,18.135668 138.389818,18.538837 145.236431,22.097464 C 146.191468,22.593859 147.660074,23.000000 148.500000,23.000000 C 149.339926,23.000000 150.808532,23.379035 151.763569,23.842299 C 152.718606,24.305563 155.750000,25.757052 158.500000,27.067828 C 161.250000,28.378605 163.725000,29.693588 164.000000,29.990013 C 164.275000,30.286438 167.588396,33.209588 171.363101,36.485902 C 180.499287,44.415796 192.000000,61.712104 192.000000,67.522426 C 192.000000,68.665092 192.382851,70.027500 192.850780,70.550000 C 193.318709,71.072500 194.284739,75.395829 194.997514,80.157397 C 197.717702,98.329129 194.108630,115.653352 184.638585,129.882206 C 181.737645,134.240902 179.682908,136.711786 173.000000,143.877955 C 167.692590,149.569160 155.241492,156.723671 147.465309,158.550414 C 145.834389,158.933541 142.025000,160.052448 139.000000,161.036872 C 132.027567,163.305909 120.655730,164.199967 118.530786,162.646170" fill="black" stroke="black" stroke-width="1"/>
</svg>
