<?xml version="1.0" encoding="utf-8" ?>
<svg xmlns="http://www.w3.org/2000/svg" xmlns:ev="http://www.w3.org/2001/xml-events" xmlns:xlink="http://www.w3.org/1999/xlink" baseProfile="full" height="222" version="1.1" width="259">
  <defs/>
  <path d="M 108.895217,171.464359 C 101.325406,170.239020 88.952649,166.395626 88.000000,164.973603 C 87.725000,164.563109 84.701013,162.713619 81.280029,160.863625 C 74.447723,157.168862 64.577818,148.196450 60.174543,141.677308 C 57.635479,137.918170 51.945326,126.667300 49.969824,121.500000 C 46.780148,113.156796 45.820509,95.275837 47.974025,84.312258 C 49.188058,78.131603 52.267654,69.514980 55.095347,64.387005 C 58.626454,57.983400 59.514903,56.487042 60.075055,56.000000 C 60.391335,55.725000 62.521010,52.723715 64.807665,49.330477 C 67.094321,45.937239 70.431751,42.112239 72.224176,40.830477 C 77.020478,37.400644 86.112740,32.000000 87.090738,32.000000 C 87.557374,32.000000 89.415355,31.189503 91.219584,30.198896 C 95.863529,27.649151 101.944962,26.023270 109.464528,25.321082 C 116.783191,24.637655 118.628352,26.075362 115.348609,29.905823 C 113.890014,31.609337 112.410078,32.000000 107.415297,32.000000 C 100.444873,32.000000 90.211487,35.694357 82.516274,40.988803 C 76.987816,44.792482 68.294279,53.240605 65.010909,58.000000 C 63.682907,59.925000 62.343608,61.725000 62.034690,62.000000 C 59.606020,64.162011 55.324771,76.301266 52.865060,88.000000 C 51.777732,93.171490 52.650420,114.478287 54.057228,117.106932 C 54.575753,118.075804 55.000000,119.933101 55.000000,121.234259 C 55.000000,122.535416 55.407593,124.027500 55.905763,124.550000 C 56.403933,125.072500 57.711617,127.125848 58.811728,129.112995 C 62.709599,136.153777 63.506112,137.505575 64.048180,138.000000 C 64.349678,138.275000 65.684868,140.075000 67.015267,142.000000 C 68.345666,143.925000 69.898986,145.950000 70.467087,146.500000 C 73.102463,149.051402 82.975067,156.067303 87.299808,158.462062 C 92.546870,161.367541 106.233817,166.000000 109.571213,166.000000 C 110.723713,166.000000 111.954263,166.287597 112.305771,166.639104 C 113.929489,168.262822 131.808845,167.132005 139.500000,164.919148 C 144.280130,163.543836 152.365376,159.802905 152.833333,158.750000 C 153.016667,158.337500 153.823444,158.000000 154.626171,158.000000 C 156.208504,158.000000 173.000000,141.464575 173.000000,139.906373 C 173.000000,139.384284 174.102899,137.279268 175.450887,135.228560 C 181.077987,126.667994 183.922821,105.435448 181.206378,92.272189 C 179.349258,83.273009 169.680494,66.765126 164.211073,63.255399 C 161.100223,61.259166 159.558073,60.112970 157.140193,58.000000 C 153.666504,54.964365 142.303747,50.266074 135.500000,49.052179 C 123.988479,46.998343 109.944182,48.387034 101.963690,52.368227 C 100.164659,53.265702 98.138299,54.000000 97.460669,54.000000 C 93.908362,54.000000 86.280440,60.505524 81.045248,68.000000 C 79.700558,69.925000 78.029576,71.851858 77.331955,72.281907 C 76.170814,72.997693 74.379255,76.390710 72.464675,81.500000 C 72.052477,82.600000 71.346336,85.525000 70.895472,88.000000 C 70.444608,90.475000 69.773140,94.027002 69.403322,95.893338 C 67.547883,105.257063 75.130693,125.486911 83.624451,133.833266 C 92.612194,142.665032 102.501400,147.062923 117.500000,148.898274 C 126.418505,149.989615 132.674875,149.130078 140.000000,145.807093 C 144.918212,143.575985 158.972316,130.409764 159.007939,128.000000 C 159.032711,126.324234 161.118941,120.117822 162.247394,118.362809 C 162.649554,117.737354 163.491496,113.777107 164.118377,109.562260 C 165.354815,101.249038 165.252773,100.800837 159.209313,88.000000 C 156.848191,82.998836 150.097447,75.000000 148.237757,75.000000 C 147.820751,75.000000 146.312251,73.917607 144.885536,72.594682 C 140.312338,68.354174 134.498309,66.000000 128.598855,66.000000 C 125.584403,66.000000 122.839919,65.550000 122.500000,65.000000 C 121.740731,63.771477 116.321779,63.670334 115.579826,64.870838 C 115.283812,65.349799 113.646329,66.020734 111.940974,66.361805 C 107.921347,67.165731 102.018460,69.957773 99.561439,72.217277 C 98.495230,73.197775 97.321441,74.000000 96.953019,74.000000 C 95.503690,74.000000 89.281160,84.816657 87.586668,90.281575 C 84.753794,99.417903 80.984588,101.660179 81.015056,94.190983 C 81.036107,89.030472 85.032398,78.864920 88.379675,75.457257 C 88.995854,74.829962 90.578659,72.896954 91.897019,71.161684 C 95.200852,66.813071 101.948324,63.192647 111.992971,60.379000 C 121.142164,57.816183 125.600050,57.466352 130.429002,58.932239 C 132.118051,59.444970 135.525000,60.428979 138.000000,61.118924 C 145.795099,63.291931 162.953199,76.713741 162.989335,80.666667 C 162.995201,81.308333 163.337500,81.983333 163.750000,82.166667 C 164.902089,82.678706 167.733767,88.145934 169.421313,93.116486 C 171.346427,98.786778 171.879417,114.235441 170.218959,116.236171 C 169.558075,117.032487 169.263573,117.930239 169.564509,118.231176 C 169.865445,118.532112 168.961541,121.162427 167.555833,124.076320 C 166.150125,126.990213 165.000000,129.764493 165.000000,130.241387 C 165.000000,130.718281 163.652082,132.546562 162.004627,134.304234 C 160.357173,136.061905 159.007173,137.981349 159.004627,138.569665 C 158.999455,139.765414 156.234815,142.319936 151.000000,145.965929 C 149.075000,147.306670 147.275000,148.678279 147.000000,149.013949 C 146.725000,149.349618 144.025000,150.589012 141.000000,151.768158 C 134.485470,154.307524 119.594969,155.578459 113.000000,154.158017 C 103.881723,152.194098 96.392682,149.915330 92.329604,147.868422 C 88.143910,145.759741 79.000000,138.122972 79.000000,136.735863 C 79.000000,136.328275 77.246256,134.410393 75.102792,132.473901 C 70.802227,128.588599 68.050892,123.600459 66.843559,117.500000 C 63.321049,99.701337 63.221875,98.744937 64.215136,92.152435 C 65.192052,85.668416 67.069437,80.135663 71.382575,71.029618 C 73.465311,66.632473 88.934382,50.000000 90.941221,50.000000 C 91.506026,50.000000 94.562808,48.746214 97.734070,47.213809 C 106.632932,42.913735 113.046932,41.785348 126.000000,42.241108 C 141.430206,42.784027 152.663159,46.169447 160.922846,52.766257 C 166.305145,57.064967 176.602334,67.878164 178.119233,70.824379 C 178.876901,72.295971 179.728599,73.725000 180.011895,74.000000 C 180.768440,74.734390 184.629697,83.025436 185.833322,86.500000 C 190.309652,99.422049 189.712013,117.393330 184.398767,129.637693 C 183.476975,131.761962 182.389090,134.400000 181.981244,135.500000 C 181.573399,136.600000 180.848273,138.498220 180.369853,139.718266 C 178.024660,145.698885 156.217348,166.000000 152.138203,166.000000 C 151.603858,166.000000 151.016667,166.338373 150.833333,166.751940 C 150.650000,167.165507 147.350000,168.597822 143.500000,169.934861 C 135.220032,172.810353 121.073191,173.435630 108.895217,171.464359" fill="black" stroke="black" stroke-width="1"/>
</svg>
