<?xml version="1.0" encoding="utf-8" ?>
<svg xmlns="http://www.w3.org/2000/svg" xmlns:ev="http://www.w3.org/2001/xml-events" xmlns:xlink="http://www.w3.org/1999/xlink" baseProfile="full" height="218" version="1.1" width="259">
  <defs/>
  <path d="M 114.000000,191.924269 C 100.585475,190.353641 87.570303,186.611167 78.656191,181.761261 C 76.370286,180.517568 74.275000,179.275000 74.000000,179.000000 C 73.725000,178.725000 71.523374,177.422666 69.107498,176.105924 C 64.613091,173.656307 51.735905,161.296049 47.792901,155.646958 C 46.584803,153.916131 45.316118,152.275000 44.973602,152.000000 C 44.631085,151.725000 43.259404,149.475000 41.925422,147.000000 C 40.591440,144.525000 39.256129,142.275000 38.958064,142.000000 C 38.659999,141.725000 37.792808,139.475000 37.030973,137.000000 C 36.269139,134.525000 35.400699,132.050000 35.101108,131.500000 C 34.801517,130.950000 33.546750,126.675000 32.312735,122.000000 C 30.544714,115.301941 30.061752,110.703603 30.034537,100.309017 C 30.014234,92.554781 30.412156,86.863307 31.000000,86.500000 C 31.550000,86.160081 32.019860,84.446024 32.044133,82.690983 C 32.105670,78.241622 34.167054,70.912761 36.250000,67.737816 C 37.212500,66.270719 38.000000,64.537063 38.000000,63.885246 C 38.000000,62.323590 45.015572,50.193705 48.086663,46.445460 C 51.183751,42.665487 61.774819,32.085445 65.009431,29.540310 C 76.465065,20.526514 94.569108,13.501080 109.500000,12.275351 C 116.162614,11.728394 134.835351,13.535007 139.500000,15.177892 C 148.183430,18.236188 157.810618,23.018448 160.782760,25.750000 C 161.530813,26.437500 162.459395,27.000000 162.846275,27.000000 C 165.267255,27.000000 180.000000,44.117343 180.000000,46.930175 C 180.000000,47.518579 180.373078,48.000000 180.829063,48.000000 C 181.586892,48.000000 182.580732,50.001663 188.159693,62.764404 C 189.664904,66.207808 190.059203,69.865767 190.207739,81.764404 C 190.371062,94.847602 190.123850,97.341024 188.003172,104.000000 C 183.783519,117.249808 178.631846,126.155059 170.666056,133.969170 C 166.689992,137.869524 162.326058,141.661889 160.968425,142.396649 C 150.696084,147.956102 146.931536,149.735193 143.000000,150.888366 C 140.525000,151.614318 137.375000,152.653663 136.000000,153.198024 C 131.757540,154.877606 115.642256,155.385636 108.815596,154.055004 C 102.858355,152.893836 94.104573,149.020371 91.178571,146.250788 C 90.451786,145.562854 89.492377,145.000000 89.046551,145.000000 C 87.599714,145.000000 76.000000,132.959347 76.000000,131.457511 C 76.000000,130.655880 75.661727,130.000000 75.248283,130.000000 C 72.695730,130.000000 67.274288,114.083191 66.519236,104.372392 C 65.844402,95.693295 69.797413,78.686598 73.114071,76.000000 C 73.453564,75.725000 74.665758,73.656439 75.807834,71.403197 C 80.422560,62.298649 95.977634,51.786370 108.799221,49.107280 C 115.435563,47.720607 128.000000,47.650406 128.000000,49.000000 C 128.000000,49.550000 129.131106,50.000000 130.513569,50.000000 C 132.817724,50.000000 136.786729,51.643652 138.000000,53.100296 C 138.275000,53.430459 139.583860,54.271982 140.908579,54.970348 C 153.480426,61.597985 159.732151,81.523405 153.818488,96.116647 C 152.618656,99.077491 150.726033,102.850000 149.612658,104.500000 C 146.640415,108.904808 140.870305,114.000000 138.854273,114.000000 C 137.889082,114.000000 136.675968,114.756595 136.158465,115.681322 C 134.070740,119.411880 120.601250,121.134522 112.765113,118.673148 C 107.026131,116.870502 101.009028,111.269274 98.348197,105.252664 C 95.913980,99.748466 95.261284,93.574586 97.000000,92.500000 C 97.550000,92.160081 98.000000,90.981503 98.000000,89.880937 C 98.000000,86.600996 104.077381,78.324791 108.178470,76.019850 C 113.071825,73.269631 118.367464,73.571039 118.803114,76.624566 C 119.040138,78.285901 117.918054,79.419695 113.656780,81.824610 C 106.217635,86.023003 104.000000,89.371178 104.000000,96.404370 C 104.000000,99.481967 104.340150,102.000000 104.755889,102.000000 C 105.171627,102.000000 106.066398,103.237500 106.744268,104.750000 C 107.422139,106.262500 109.629599,108.620259 111.649736,109.989465 C 116.451988,113.244329 125.696957,113.240444 131.599357,109.981082 C 138.314776,106.272763 145.651479,98.308289 147.123069,93.129069 C 149.008202,86.494392 148.545476,77.138654 146.071932,71.876415 C 143.620675,66.661590 138.047816,59.984366 136.154370,59.993505 C 135.414274,59.997077 133.614274,59.163981 132.154370,58.142180 C 129.526075,56.302611 126.606450,55.368450 120.180998,54.311193 C 118.127488,53.973304 114.123973,54.622261 109.680998,56.013209 C 96.943415,60.000925 92.081208,63.178891 83.142989,73.358604 C 73.717201,84.093607 70.614201,108.187206 76.964278,121.333908 C 79.168170,125.896673 90.582590,139.734789 92.291813,139.916036 C 92.727311,139.962216 93.991424,140.845742 95.100954,141.879426 C 96.210483,142.913110 100.315389,144.767876 104.222966,146.001127 C 115.327828,149.505878 131.915179,148.297979 144.500000,143.068134 C 155.056760,138.681086 165.178264,131.181502 169.765744,124.347342 C 171.186151,122.231304 172.692902,120.265149 173.114081,119.978108 C 174.639676,118.938389 181.697660,102.362152 182.977533,96.813004 C 185.660521,85.180378 183.210907,65.859852 177.830768,56.219584 C 176.823846,54.415355 176.000000,52.277855 176.000000,51.469584 C 176.000000,50.661313 175.622232,50.000000 175.160515,50.000000 C 174.698798,50.000000 173.800738,48.858084 173.164826,47.462409 C 171.786681,44.437709 170.633196,42.999523 166.000000,38.529171 C 160.004500,32.744397 156.548159,30.002490 155.250000,30.001221 C 154.562500,30.000550 154.000000,29.626922 154.000000,29.170937 C 154.000000,28.141233 143.816488,23.539393 136.100777,21.082434 C 131.593359,19.647111 108.288011,19.695372 102.264351,21.152502 C 80.684835,26.372614 65.288299,34.931904 59.328065,45.021776 C 58.360461,46.659799 57.215808,48.000000 56.784392,48.000000 C 56.352977,48.000000 55.997918,48.562500 55.995373,49.250000 C 55.992827,49.937500 54.727544,51.850000 53.183631,53.500000 C 51.639718,55.150000 48.840016,59.425000 46.962070,63.000000 C 45.084125,66.575000 43.203649,69.748937 42.783235,70.053193 C 42.362821,70.357449 41.076569,74.182449 39.924897,78.553193 C 36.769099,90.529856 36.692142,122.092142 39.811134,125.211134 C 40.465011,125.865011 41.000000,127.109872 41.000000,127.977494 C 41.000000,128.845115 41.624361,130.446387 42.387468,131.535875 C 43.150575,132.625364 44.346805,135.425491 45.045755,137.758382 C 45.744706,140.091272 46.640752,142.000000 47.036967,142.000000 C 47.433183,142.000000 48.323671,143.367198 49.015830,145.038217 C 49.707989,146.709236 51.112583,148.525069 52.137150,149.073401 C 53.161718,149.621732 54.000000,150.732640 54.000000,151.542084 C 54.000000,153.763936 69.487495,169.003518 74.291157,171.508434 C 82.637527,175.860730 87.536396,178.298409 89.500000,179.076362 C 97.189842,182.122969 104.925428,183.994439 114.000000,185.003644 C 126.349379,186.377050 128.045006,187.258739 124.858997,190.650091 C 123.644803,191.942541 122.167313,192.929196 121.575686,192.842658 C 120.984059,192.756120 117.575000,192.342845 114.000000,191.924269" fill="black" stroke="black" stroke-width="1"/>
</svg>
