<?xml version="1.0" encoding="utf-8" ?>
<svg xmlns="http://www.w3.org/2000/svg" xmlns:ev="http://www.w3.org/2001/xml-events" xmlns:xlink="http://www.w3.org/1999/xlink" baseProfile="full" height="222" version="1.1" width="257">
  <defs/>
  <path d="M 45.184265,183.722025 C 44.600921,183.019140 43.841079,178.856640 43.495727,174.472025 C 43.150375,170.087411 42.010614,159.075000 40.962926,150.000000 C 39.915238,140.925000 38.829389,129.675000 38.549929,125.000000 C 38.013042,116.018592 36.623611,101.125972 35.004659,87.000000 C 34.468865,82.325000 33.782255,75.575000 33.478859,72.000000 C 33.175462,68.425000 32.493602,62.204938 31.963614,58.177641 C 30.299532,45.532529 29.810451,46.411042 39.250000,45.089460 C 43.787500,44.454189 49.750000,43.533931 52.500000,43.044443 C 63.577813,41.072639 70.001891,40.027485 80.500000,38.489031 C 91.877211,36.821748 95.598377,36.173249 110.000000,33.347972 C 117.282186,31.919370 119.717814,31.853248 127.000000,32.886460 C 136.623012,34.251794 141.312439,35.627824 145.154370,38.213541 C 146.614274,39.196094 148.303161,40.000000 148.907451,40.000000 C 150.693659,40.000000 165.156626,54.982632 169.903868,61.750832 C 177.404800,72.445002 177.329927,72.194164 177.291315,86.500000 C 177.251597,101.215304 175.117477,109.851706 169.539707,117.869371 C 167.867868,120.272525 166.050000,122.972525 165.500000,123.869371 C 163.380365,127.325709 151.553206,137.935847 148.601585,139.028930 C 146.895713,139.660671 144.176728,140.888709 142.559396,141.757903 C 140.942064,142.627098 137.792064,143.771594 135.559396,144.301229 C 129.700566,145.691063 114.009618,146.307855 111.575269,145.244016 C 102.676301,141.355063 95.261259,137.001672 91.525030,133.472469 C 87.086911,129.280268 82.487646,120.835263 81.337635,114.766742 C 80.997152,112.970034 80.378954,111.050000 79.963864,110.500000 C 78.659129,108.771211 80.515444,90.417506 82.093684,89.442100 C 82.592158,89.134026 83.000550,88.121024 83.001221,87.190983 C 83.001893,86.260942 84.126893,84.192507 85.501221,82.594461 C 86.875550,80.996414 88.000000,79.403403 88.000000,79.054436 C 88.000000,78.705469 89.687500,76.594342 91.750000,74.363043 C 94.978496,70.870321 97.780218,69.034050 106.049885,64.990782 C 110.086839,63.017003 118.963959,61.738504 121.690738,62.738156 C 123.235832,63.304597 126.459786,64.357869 128.855079,65.078763 C 133.768368,66.557478 143.000000,74.422981 143.000000,77.130470 C 143.000000,78.093793 143.450000,79.160081 144.000000,79.500000 C 144.550000,79.839919 145.000000,81.576476 145.000000,83.359017 C 145.000000,85.141558 145.416617,87.027500 145.925817,87.550000 C 147.078570,88.732865 145.140232,97.227348 142.672969,101.805132 C 140.414825,105.994915 135.243126,111.257434 132.000000,112.665530 C 123.383561,116.406603 119.383496,116.983496 117.200000,114.800000 C 115.286240,112.886240 115.806448,111.000530 118.250000,110.993839 C 119.487500,110.990451 121.788938,110.315451 123.364307,109.493839 C 124.939676,108.672228 126.852176,108.000000 127.614307,108.000000 C 128.376438,108.000000 130.712249,106.287751 132.804999,104.195001 C 136.041335,100.958665 136.797438,99.341148 137.864190,93.371966 C 139.251601,85.608490 138.672271,83.115608 134.175647,77.500000 C 129.952307,72.225684 125.241423,70.010853 118.234251,70.005123 C 114.788089,70.002306 110.108428,70.562500 107.835003,71.250000 C 103.100380,72.681784 94.113092,80.735261 91.527426,85.863163 C 86.916560,95.007447 85.594148,109.425865 88.834948,115.219584 C 89.844170,117.023813 91.005646,119.850000 91.416007,121.500000 C 92.350469,125.257332 100.108368,132.712839 106.507625,136.003367 C 110.672257,138.144841 112.652998,138.491429 120.431476,138.439749 C 125.419164,138.406610 131.975000,137.818330 135.000000,137.132459 C 138.025000,136.446587 141.429517,135.698455 142.565592,135.469941 C 143.701668,135.241428 145.726668,134.091188 147.065592,132.913852 C 148.404517,131.736516 151.064900,129.586762 152.977556,128.136621 C 154.890212,126.686479 157.466112,124.375000 158.701779,123.000000 C 162.064625,119.257960 169.000000,105.557435 169.000000,102.656322 C 169.000000,101.260264 169.434714,99.849366 169.966031,99.520994 C 171.551318,98.541233 170.497655,81.079621 168.456221,74.500000 C 166.547265,68.347357 161.651533,60.000000 159.951959,60.000000 C 159.428382,60.000000 159.000000,59.418629 159.000000,58.708063 C 159.000000,56.806442 151.047092,48.622066 147.000000,46.358805 C 138.117282,41.391310 119.829902,36.751024 116.717210,38.674774 C 116.082737,39.066900 112.174307,39.700403 108.031811,40.082559 C 103.889315,40.464716 97.350000,41.509959 93.500000,42.405323 C 89.650000,43.300687 84.475000,44.104523 82.000000,44.191624 C 79.525000,44.278726 77.050000,44.672955 76.500000,45.067689 C 75.950000,45.462423 73.475000,46.033884 71.000000,46.337602 C 65.529174,47.008952 55.413216,48.587165 52.000000,49.301834 C 50.625000,49.589736 46.897102,50.390167 43.715782,51.080570 L 37.931563,52.335847 L 38.546010,62.417924 C 38.883956,67.963066 39.415326,73.175000 39.726832,74.000000 C 40.038338,74.825000 40.638257,79.325000 41.059985,84.000000 C 42.160923,96.204292 43.763620,112.869352 45.002999,125.000000 C 46.423034,138.898847 47.963034,156.285139 48.811748,168.000000 L 49.500000,177.500000 L 55.500000,177.367749 C 58.800000,177.295011 67.125000,176.722777 74.000000,176.096118 C 80.875000,175.469458 91.450000,174.525584 97.500000,173.998620 C 114.639313,172.505761 128.642849,171.142345 139.000000,169.958086 C 144.225000,169.360648 152.100000,168.492930 156.500000,168.029824 C 160.900000,167.566718 169.900000,166.474151 176.500000,165.601896 C 183.100000,164.729641 190.799819,164.012383 193.610709,164.007989 L 198.721418,164.000000 L 199.430803,158.750000 C 200.739413,149.065256 203.809330,123.958817 204.658105,116.000000 C 205.340921,109.597343 206.339018,108.000000 209.656887,108.000000 C 211.972842,108.000000 212.046023,108.209051 211.494728,113.250000 C 210.788095,119.711341 209.247725,132.171772 208.002437,141.500000 C 207.488474,145.350000 206.829628,150.300000 206.538334,152.500000 C 205.329666,161.628484 204.218455,166.208540 202.898561,167.501982 C 201.545849,168.827585 193.296729,169.912227 169.000000,171.959162 C 163.225000,172.445691 157.825000,173.095022 157.000000,173.402120 C 156.175000,173.709218 152.800000,174.194578 149.500000,174.480698 C 134.379646,175.791679 121.955021,177.093376 96.000000,180.085760 C 50.556760,185.324963 46.741183,185.597998 45.184265,183.722025" fill="black" stroke="black" stroke-width="1"/>
</svg>
