<?xml version="1.0" encoding="utf-8" ?>
<svg xmlns="http://www.w3.org/2000/svg" xmlns:ev="http://www.w3.org/2001/xml-events" xmlns:xlink="http://www.w3.org/1999/xlink" baseProfile="full" height="221" version="1.1" width="262">
  <defs/>
  <path d="M 89.952781,197.443104 C 89.198066,196.533729 86.087444,194.081776 83.040286,191.994321 C 79.993129,189.906865 76.506316,187.254184 75.291813,186.099474 C 74.077311,184.944763 72.699663,184.000000 72.230375,184.000000 C 71.761086,184.000000 70.504770,183.200270 69.438561,182.222821 C 68.372353,181.245373 65.925000,179.354554 64.000000,178.021001 C 62.075000,176.687448 60.275000,175.327998 60.000000,175.000000 C 59.725000,174.672002 57.925000,173.322002 56.000000,172.000000 C 54.075000,170.677998 52.275000,169.327998 52.000000,169.000000 C 51.725000,168.672002 49.925000,167.315132 48.000000,165.984733 C 46.075000,164.654334 43.921126,163.004283 43.213613,162.317955 C 42.506101,161.631626 40.593601,160.282292 38.963613,159.319434 C 37.333626,158.356577 36.000000,157.237427 36.000000,156.832433 C 36.000000,156.427440 33.862500,154.641662 31.250000,152.864039 C 28.637500,151.086416 26.275000,149.355617 26.000000,149.017819 C 25.725000,148.680021 23.925000,147.306732 22.000000,145.966066 C 18.089356,143.242499 16.242900,141.799085 11.357261,137.646408 C 7.017214,133.957470 7.041677,131.299717 11.500000,122.138854 C 13.425000,118.183406 15.000000,114.709338 15.000000,114.418702 C 15.000000,113.871009 18.144123,106.666643 20.595914,101.596362 C 21.368161,99.999361 22.000000,98.306957 22.000000,97.835464 C 22.000000,97.363970 22.945787,94.845607 24.101748,92.239102 C 28.821258,81.597368 30.261085,78.417706 31.109440,76.763569 C 31.599248,75.808532 32.000000,74.591237 32.000000,74.058469 C 32.000000,73.525701 33.322108,70.257095 34.938019,66.794900 C 36.553929,63.332705 38.581163,58.340194 39.442983,55.700432 C 40.304803,53.060669 41.895493,49.165014 42.977849,47.043419 C 44.060206,44.921825 45.585819,41.456630 46.368102,39.342987 C 49.443653,31.033173 51.734286,25.336413 53.442134,21.750000 C 55.818992,16.758695 54.533062,16.745163 85.000000,22.082069 C 91.325000,23.190022 100.100000,24.787082 104.500000,25.631092 C 108.900000,26.475102 115.650000,27.608944 119.500000,28.150741 C 133.642732,30.140997 138.598800,30.954498 143.000000,32.008088 C 145.475000,32.600571 149.750000,33.344949 152.500000,33.662261 C 155.551775,34.014394 158.421448,35.069293 159.864839,36.369596 C 162.518785,38.760447 172.000000,52.404151 172.000000,53.832395 C 172.000000,54.339889 172.710104,55.344444 173.578008,56.064741 C 174.445913,56.785038 176.304929,59.652638 177.709154,62.437186 C 179.113379,65.221734 180.585759,67.725000 180.981108,68.000000 C 181.571472,68.410650 189.458288,80.144933 194.764419,88.507298 C 198.629694,94.598900 199.985819,96.619050 200.940703,97.707794 C 201.523316,98.372080 202.000000,99.183454 202.000000,99.510848 C 202.000000,99.838241 203.125000,101.761694 204.500000,103.785188 C 205.875000,105.808683 207.000000,108.052372 207.000000,108.771165 C 207.000000,110.299626 202.061579,115.301071 192.978847,122.971257 C 189.415481,125.980449 185.825000,129.166448 185.000000,130.051255 C 184.175000,130.936063 182.766821,132.073997 181.870714,132.579998 C 180.974607,133.085999 176.699607,136.707558 172.370714,140.627908 C 168.041821,144.548257 162.104874,149.851393 159.177498,152.412654 C 156.250121,154.973916 151.075121,159.794555 147.677498,163.125185 C 141.438578,169.241088 130.035112,178.000000 128.311571,178.000000 C 127.797624,178.000000 126.504770,177.208462 125.438561,176.241026 C 124.372353,175.273591 121.475000,172.917563 119.000000,171.005409 C 116.525000,169.093255 113.921126,166.975562 113.213613,166.299424 C 112.506101,165.623287 110.593601,164.282292 108.963613,163.319434 C 107.333626,162.356577 106.000000,161.237427 106.000000,160.832433 C 106.000000,160.427440 103.862500,158.641662 101.250000,156.864039 C 98.637500,155.086416 96.275000,153.355617 96.000000,153.017819 C 95.725000,152.680021 93.925000,151.322002 92.000000,150.000000 C 90.075000,148.677998 88.275000,147.347118 88.000000,147.042490 C 87.325949,146.295819 80.228772,140.992179 76.478605,138.432682 C 74.812639,137.295657 72.560922,135.623769 71.474788,134.717373 C 70.388655,133.810978 67.538861,131.665715 65.141914,129.950122 C 59.807272,126.131900 59.866553,125.460508 66.831081,110.819587 C 72.528908,98.841541 76.288211,90.720054 79.708312,83.000000 C 84.757103,71.603573 92.105350,57.157457 93.400133,56.082882 C 94.397235,55.255361 98.326350,55.467763 108.622078,56.905758 C 116.254935,57.971833 128.125000,59.624773 135.000000,60.578959 C 143.742299,61.792309 147.852634,62.792748 148.673038,63.906921 C 149.318210,64.783115 150.603220,68.650000 151.528617,72.500000 C 152.454014,76.350000 154.738646,84.144326 156.605578,89.820723 C 160.425591,101.435453 160.790918,105.296201 158.249475,107.193296 C 157.286686,107.911983 155.295985,110.075000 153.825696,112.000000 C 152.355408,113.925000 146.879922,119.949758 141.657951,125.388351 C 131.777464,135.678709 129.000000,136.977951 129.000000,131.309483 C 129.000000,129.295658 130.587291,126.937204 134.910061,122.528098 C 155.332831,101.697442 154.410636,102.897192 153.150005,98.798439 C 152.592039,96.984298 151.601101,93.475000 150.947920,91.000000 C 150.294740,88.525000 149.081070,84.700000 148.250878,82.500000 C 147.420686,80.300000 146.227686,76.250000 145.599768,73.500000 C 144.473394,68.566988 144.398090,68.491367 139.979049,67.855641 C 128.706265,66.233930 118.860425,64.919626 111.500000,64.054021 C 107.100000,63.536569 102.137561,62.826492 100.472358,62.476072 C 97.172365,61.781630 97.642973,61.064195 89.961314,78.500000 C 87.498428,84.090249 72.627266,115.028727 70.420063,119.154292 C 68.149206,123.398835 68.644308,124.384004 75.250000,128.765040 C 78.687500,131.044863 82.400000,133.610890 83.500000,134.467322 C 84.600000,135.323755 90.404237,139.651392 96.398304,144.084293 C 107.934378,152.615776 115.173696,158.142254 116.000000,159.048180 C 116.275000,159.349678 118.075000,160.681264 120.000000,162.007258 C 121.925000,163.333252 124.088017,165.224071 124.806704,166.209078 C 125.525391,167.194085 127.208997,168.000000 128.548051,168.000000 C 130.777159,168.000000 138.236026,163.118908 142.087270,159.139919 C 142.960268,158.237964 146.335268,155.174335 149.587270,152.331856 C 152.839271,149.489377 156.625000,146.176635 158.000000,144.970209 C 159.375000,143.763782 162.524388,141.139447 164.998640,139.138353 C 167.472892,137.137259 171.072892,133.922704 172.998640,131.994898 C 174.924388,130.067093 178.075000,127.204389 180.000000,125.633336 C 187.867470,119.212444 200.000000,107.675718 200.000000,106.615494 C 200.000000,105.991574 199.100000,104.919034 198.000000,104.232073 C 196.900000,103.545112 196.000000,102.311865 196.000000,101.491526 C 196.000000,100.671187 195.604594,100.000000 195.121320,100.000000 C 194.638047,100.000000 193.683452,98.650000 193.000000,97.000000 C 192.316548,95.350000 191.361953,94.000000 190.878680,94.000000 C 190.395406,94.000000 189.999450,93.437500 189.998779,92.750000 C 189.998107,92.062500 188.885966,90.207473 187.527355,88.627718 C 186.168744,87.047962 184.788970,84.910462 184.461189,83.877718 C 184.133409,82.844973 183.500143,82.000000 183.053933,82.000000 C 182.607722,82.000000 181.683452,80.650000 181.000000,79.000000 C 180.316548,77.350000 179.361953,76.000000 178.878680,76.000000 C 178.395406,76.000000 178.000000,75.325000 178.000000,74.500000 C 178.000000,73.675000 177.550000,73.000000 177.000000,73.000000 C 176.450000,73.000000 176.000000,72.531184 176.000000,71.958187 C 176.000000,71.385189 175.122436,69.974419 174.049859,68.823142 C 172.977281,67.671865 171.431163,65.321037 170.614040,63.599080 C 169.796918,61.877122 167.974482,58.767908 166.564182,56.689715 C 165.153882,54.611522 164.000000,52.566019 164.000000,52.144152 C 164.000000,51.722286 163.147841,50.462438 162.106313,49.344489 C 161.064786,48.226540 159.509566,45.952285 158.650269,44.290589 C 157.304502,41.688162 156.354009,41.174166 151.793956,40.582916 C 148.882280,40.205392 144.925000,39.502757 143.000000,39.021505 C 141.075000,38.540253 135.675000,37.630727 131.000000,37.000335 C 126.325000,36.369944 120.250000,35.460955 117.500000,34.980359 C 114.750000,34.499764 109.125000,33.611348 105.000000,33.006103 C 87.916146,30.499455 83.131852,29.657583 75.833387,27.873781 C 67.621937,25.866837 58.000000,25.379403 58.000000,26.970365 C 58.000000,27.504065 56.875000,30.400230 55.500000,33.406288 C 54.125000,36.412345 53.000000,39.150369 53.000000,39.490787 C 53.000000,39.831205 52.140826,41.997539 51.090725,44.304864 C 50.040624,46.612189 47.292384,53.225000 44.983524,59.000000 C 40.368318,70.543714 39.252182,73.217143 36.116359,80.239102 C 34.952361,82.845607 34.000000,85.348584 34.000000,85.801272 C 34.000000,86.253960 33.100000,88.487127 32.000000,90.763864 C 30.900000,93.040602 30.000000,95.426356 30.000000,96.065539 C 30.000000,96.704723 29.159189,98.863961 28.131532,100.863845 C 26.398239,104.236940 25.423534,106.442510 23.099660,112.250000 C 22.604473,113.487500 21.254473,116.632596 20.099660,119.239102 C 18.944847,121.845607 17.985688,124.545607 17.968197,125.239102 C 17.950705,125.932596 17.275705,127.373508 16.468197,128.441130 C 13.986259,131.722545 14.783844,133.498020 20.571410,137.575147 C 23.635685,139.733816 26.695189,142.004146 27.370307,142.620325 C 28.045424,143.236504 30.030448,144.481505 31.781470,145.386994 C 33.532492,146.292483 36.262850,148.263336 37.848931,149.766668 C 41.376257,153.109966 43.464653,154.801183 48.000000,157.987168 C 49.925000,159.339439 51.950000,160.799923 52.500000,161.232687 C 53.050000,161.665450 56.650000,164.375936 60.500000,167.255988 C 64.350000,170.136040 67.725000,172.740827 68.000000,173.044403 C 68.275000,173.347979 70.075000,174.687448 72.000000,176.021001 C 73.925000,177.354554 76.372353,179.245373 77.438561,180.222821 C 78.504770,181.200270 79.967270,182.000000 80.688561,182.000000 C 81.409853,182.000000 82.000000,182.352977 82.000000,182.784392 C 82.000000,183.215808 83.333626,184.356577 84.963613,185.319434 C 86.593601,186.282292 88.506101,187.622649 89.213613,188.298007 C 89.921126,188.973365 91.764671,190.335773 93.310380,191.325581 C 95.443625,192.691622 96.045977,193.772732 95.810380,195.812616 C 95.439951,199.019926 92.045574,199.964766 89.952781,197.443104" fill="black" stroke="black" stroke-width="1"/>
</svg>
