<?xml version="1.0" encoding="utf-8" ?>
<svg xmlns="http://www.w3.org/2000/svg" xmlns:ev="http://www.w3.org/2001/xml-events" xmlns:xlink="http://www.w3.org/1999/xlink" baseProfile="full" height="223" version="1.1" width="262">
  <defs/>
  <path d="M 63.254003,184.750000 C 62.709015,184.062500 61.973714,179.000000 61.619999,173.500000 C 60.927137,162.726509 60.283762,154.707074 59.413757,146.000000 C 58.737947,139.236448 57.228234,117.896228 56.194862,100.500000 L 55.422635,87.500000 L 58.981632,84.000000 C 60.939080,82.075000 64.106487,79.211509 66.020314,77.636686 C 71.425818,73.188682 90.388109,55.633023 102.054767,44.275287 C 107.859888,38.623879 113.117064,34.000000 113.737379,34.000000 C 114.357694,34.000000 115.115244,34.787743 115.420824,35.750539 C 115.726404,36.713336 119.663941,40.650836 124.170906,44.500539 C 128.677871,48.350243 133.295675,52.404367 134.432694,53.509705 C 135.569712,54.615042 137.850000,56.564355 139.500000,57.841511 C 141.150000,59.118667 144.300000,61.832947 146.500000,63.873245 C 148.700000,65.913542 151.558324,68.313694 152.851831,69.206914 C 154.145338,70.100135 158.030777,73.359396 161.486141,76.449718 L 167.768620,82.068484 L 168.840332,93.284242 C 169.429774,99.452909 170.418379,114.625000 171.037232,127.000000 C 171.656086,139.375000 172.575876,152.795062 173.081210,156.822359 C 173.586545,160.849657 174.000000,167.459584 174.000000,171.511087 L 174.000000,178.877454 L 169.750000,179.416601 C 165.467945,179.959814 116.639241,182.857172 99.000000,183.614706 C 93.775000,183.839099 85.094852,184.467587 79.710781,185.011347 C 66.965189,186.298576 64.449909,186.258632 63.254003,184.750000" fill="none" stroke="black" stroke-width="5"/>
</svg>
