<?xml version="1.0" encoding="utf-8" ?>
<svg xmlns="http://www.w3.org/2000/svg" xmlns:ev="http://www.w3.org/2001/xml-events" xmlns:xlink="http://www.w3.org/1999/xlink" baseProfile="full" height="223" version="1.1" width="262">
  <defs/>
  <path d="M 135.500000,173.051359 C 134.400000,172.550425 131.188938,172.108942 128.364307,172.070285 C 125.539676,172.031628 121.939676,171.327772 120.364307,170.506161 C 118.788938,169.684549 116.737430,169.009549 115.805401,169.006161 C 114.873372,169.002772 110.654692,167.425000 106.430557,165.500000 C 102.206423,163.575000 98.168993,162.000000 97.458490,162.000000 C 96.747987,162.000000 96.016667,161.662500 95.833333,161.250000 C 95.650000,160.837500 93.362500,159.384399 90.750000,158.020886 C 88.137500,156.657373 86.000000,155.194873 86.000000,154.770886 C 86.000000,154.346899 85.437500,153.989559 84.750000,153.976797 C 84.062500,153.964036 81.700000,152.352495 79.500000,150.395595 C 72.880189,144.507273 65.596489,137.485518 63.954506,135.409167 C 60.580143,131.142154 56.000000,124.085239 56.000000,123.153158 C 56.000000,122.610588 55.658700,122.016667 55.241556,121.833333 C 54.089312,121.326926 48.427359,110.146182 46.463919,104.500000 C 44.349286,98.419039 43.146178,92.733182 42.020393,83.500000 C 41.550969,79.650000 40.838625,74.111851 40.437406,71.193003 C 39.987687,67.921314 40.180942,63.702659 40.941313,60.193003 C 41.619680,57.061851 42.363503,53.509292 42.594252,52.298427 C 43.042812,49.944589 44.507082,49.834296 53.500000,51.476968 C 60.951563,52.838093 80.281467,60.599949 82.000000,62.921046 C 82.275000,63.292468 84.075000,64.649186 86.000000,65.935974 C 90.847611,69.176416 106.475463,85.143224 108.135938,88.552023 C 110.044014,92.469127 111.286190,92.520997 112.918017,88.751710 C 116.468228,80.551232 125.396168,69.633289 133.234511,63.906750 C 136.130530,61.790975 138.950000,59.691064 139.500000,59.240279 C 143.239747,56.175154 159.952472,49.487170 168.640918,47.578868 C 172.691748,46.689156 173.030838,47.626661 173.676115,61.500000 C 174.027702,69.059075 174.972144,75.158896 176.695319,81.000000 C 178.074484,85.675000 179.434701,90.512500 179.718023,91.750000 C 180.001345,92.987500 180.630695,94.000000 181.116577,94.000000 C 181.602460,94.000000 182.000000,94.598735 182.000000,95.330522 C 182.000000,96.926628 185.515023,103.870481 189.322001,109.794981 C 194.438605,117.757547 199.233561,123.474705 204.881441,128.346930 C 207.971649,131.012742 210.950000,133.746554 211.500000,134.422069 C 212.050000,135.097585 213.737500,136.455720 215.250000,137.440149 C 216.762500,138.424578 218.000000,139.778649 218.000000,140.449196 C 218.000000,143.005923 195.564004,162.000000 192.543971,162.000000 C 191.921376,162.000000 183.519103,165.624490 180.763569,167.081714 C 179.808532,167.586771 178.265481,168.000000 177.334567,168.000000 C 176.403653,168.000000 174.260047,168.425072 172.570998,168.944604 C 161.266778,172.421655 139.429457,174.840810 135.500000,173.051359" fill="none" stroke="black" stroke-width="5"/>
</svg>
