<?xml version="1.0" encoding="utf-8" ?>
<svg xmlns="http://www.w3.org/2000/svg" xmlns:ev="http://www.w3.org/2001/xml-events" xmlns:xlink="http://www.w3.org/1999/xlink" baseProfile="full" height="223" version="1.1" width="263">
  <defs/>
  <path d="M 144.463764,176.750000 C 143.119440,173.862500 142.015142,170.655667 142.009769,169.623705 C 141.999331,167.618837 137.099691,157.457719 133.752806,152.500000 C 129.829816,146.688902 117.263302,135.364733 111.408405,132.364602 C 108.158782,130.699449 104.600000,128.850945 103.500000,128.256815 C 100.639096,126.711588 91.497286,124.992826 84.492346,124.683165 C 81.188137,124.537099 77.972940,124.101310 77.347464,123.714745 C 75.951445,122.851958 65.944523,124.655477 64.585137,126.014863 C 64.043312,126.556688 62.353687,127.000000 60.830416,127.000000 C 58.157369,127.000000 51.077185,130.319351 49.950289,132.100851 C 49.647948,132.578819 48.004110,133.249178 46.297315,133.590537 C 43.498527,134.150295 43.046306,133.881957 41.688214,130.855595 C 36.785510,119.930450 37.009002,100.425640 42.225099,84.000000 C 44.440678,77.023077 49.541656,66.336845 51.686682,64.178571 C 52.409007,63.451786 53.000000,62.423795 53.000000,61.894147 C 53.000000,60.630145 65.386160,48.309800 70.498491,44.488635 C 75.465297,40.776242 82.440898,37.000000 84.331749,37.000000 C 85.114598,37.000000 86.308918,36.332703 86.985793,35.517118 C 88.235001,34.011915 91.115313,32.973855 101.000000,30.466420 C 110.677402,28.011567 140.364599,29.149473 143.450000,32.093522 C 143.972500,32.592085 145.028953,33.000000 145.797673,33.000000 C 147.439214,33.000000 163.589745,40.766839 166.500000,42.955812 C 171.658147,46.835555 186.700467,63.096298 188.360867,66.587401 C 189.384343,68.739331 190.621843,71.281394 191.110867,72.236431 C 191.599890,73.191468 192.000000,74.616468 192.000000,75.403098 C 192.000000,76.189727 192.490214,76.996738 193.089365,77.196455 C 194.721233,77.740411 198.282991,91.381255 199.666277,102.384754 C 200.423437,108.407669 198.580098,122.157254 195.762939,131.500000 C 191.747185,144.817733 186.402055,153.607463 176.151363,163.750000 C 171.009612,168.837500 166.227212,173.000000 165.523807,173.000000 C 164.820403,173.000000 163.707256,173.647809 163.050148,174.439575 C 161.841164,175.896312 149.563085,182.000000 147.841721,182.000000 C 147.328169,182.000000 145.808089,179.637500 144.463764,176.750000" fill="none" stroke="black" stroke-width="5"/>
</svg>
