<?xml version="1.0" encoding="utf-8" ?>
<svg xmlns="http://www.w3.org/2000/svg" xmlns:ev="http://www.w3.org/2001/xml-events" xmlns:xlink="http://www.w3.org/1999/xlink" baseProfile="full" height="221" version="1.1" width="259">
  <defs/>
  <path d="M 48.000000,150.076174 C 36.285110,145.311397 32.003490,140.795233 24.973136,125.787922 C 22.175720,119.816431 22.421422,106.257901 25.485757,97.500000 C 28.983144,87.504431 37.823805,77.485253 47.000000,73.117769 C 56.699770,68.501086 73.172305,70.138569 83.000000,76.696417 C 84.925000,77.980935 90.325000,80.176810 95.000000,81.576138 C 99.675000,82.975466 104.859978,84.535343 106.522174,85.042531 C 111.122019,86.446087 129.019862,86.619064 133.000000,85.298432 C 134.925000,84.659706 139.650000,83.632479 143.500000,83.015707 C 147.350000,82.398934 153.425000,80.612319 157.000000,79.045451 C 160.575000,77.478583 165.425897,75.402981 167.779770,74.433001 C 170.133644,73.463022 173.483570,71.618787 175.224050,70.334701 C 176.964530,69.050615 179.201133,68.000000 180.194280,68.000000 C 181.187426,68.000000 182.000000,67.550000 182.000000,67.000000 C 182.000000,66.450000 183.012500,65.995129 184.250000,65.989176 C 185.487500,65.983222 188.750000,65.281340 191.500000,64.429437 C 202.239122,61.102641 218.687524,66.202417 226.570057,75.302800 C 233.135482,82.882582 238.000000,95.857194 238.000000,105.788674 C 238.000000,113.174230 235.545172,121.334590 232.285042,124.786387 C 231.616815,125.493899 230.282292,127.406399 229.319434,129.036387 C 228.356577,130.666374 227.186756,132.000000 226.719832,132.000000 C 226.252909,132.000000 224.711964,133.377293 223.295512,135.060651 C 219.254315,139.863340 207.682622,144.000000 198.289007,144.000000 C 193.559354,144.000000 181.746317,141.894744 180.550000,140.838649 C 180.027500,140.377392 179.010096,140.000000 178.289102,140.000000 C 177.129845,140.000000 173.105265,138.379865 165.000000,134.650340 C 163.625000,134.017653 161.627647,132.712500 160.561439,131.750000 C 159.495230,130.787500 158.252825,130.000000 157.800540,130.000000 C 157.348255,130.000000 155.070607,129.157014 152.739102,128.126698 C 145.716543,125.023358 140.668690,124.000000 132.383607,124.000000 C 118.811439,124.000000 105.580761,127.962718 99.291813,133.911317 C 98.077311,135.060093 96.708504,136.000000 96.250021,136.000000 C 95.791538,136.000000 93.410222,138.045892 90.958208,140.546427 C 86.693676,144.895346 80.419154,148.533445 73.100777,150.900538 C 67.633240,152.668986 53.210180,152.195301 48.000000,150.076174" fill="none" stroke="black" stroke-width="5"/>
</svg>
