<?xml version="1.0" encoding="utf-8" ?>
<svg xmlns="http://www.w3.org/2000/svg" xmlns:ev="http://www.w3.org/2001/xml-events" xmlns:xlink="http://www.w3.org/1999/xlink" baseProfile="full" height="226" version="1.1" width="260">
  <defs/>
  <path d="M 151.916667,172.628356 C 151.505348,172.261482 83.070363,171.043573 61.251292,171.014822 L 50.002584,171.000000 L 50.509166,132.750000 C 51.204734,80.230415 51.900848,50.486296 52.581417,44.205148 L 53.155120,38.910296 L 92.827560,39.461455 C 173.444908,40.581451 189.302795,41.035994 191.945306,42.302516 C 195.196808,43.860921 195.185855,45.572791 191.910347,47.766014 C 190.486038,48.719706 186.737484,52.409680 183.580227,55.965956 C 177.490295,62.825542 169.491243,77.933385 166.619369,88.000000 C 163.098470,100.341604 161.981513,117.468964 164.075994,127.000000 C 164.619884,129.475000 165.334974,133.422832 165.665083,135.772959 C 165.995192,138.123087 166.655592,140.287144 167.132640,140.581976 C 167.609688,140.876808 168.000000,142.177671 168.000000,143.472782 C 168.000000,145.882822 173.801168,158.232110 175.215731,158.833333 C 175.647079,159.016667 176.000000,159.804667 176.000000,160.584444 C 176.000000,161.364222 177.849805,163.797397 180.110677,165.991499 C 186.735538,172.420708 185.709565,173.000000 167.698051,173.000000 C 159.247456,173.000000 152.145833,172.832760 151.916667,172.628356" fill="none" stroke="black" stroke-width="5"/>
</svg>
