<?xml version="1.0" encoding="utf-8" ?>
<svg xmlns="http://www.w3.org/2000/svg" xmlns:ev="http://www.w3.org/2001/xml-events" xmlns:xlink="http://www.w3.org/1999/xlink" baseProfile="full" height="227" version="1.1" width="261">
  <defs/>
  <path d="M 183.000000,203.831942 C 169.231050,202.118703 150.741501,196.021856 135.000000,188.004155 C 121.213603,180.982257 113.112298,176.357512 108.409131,172.824382 C 105.609154,170.720972 102.909154,168.997492 102.409131,168.994427 C 100.824469,168.984712 82.175081,153.807181 74.138228,145.986567 C 71.587203,143.504179 67.690730,139.904179 65.479401,137.986567 C 63.268071,136.068955 59.905823,132.475000 58.007738,130.000000 C 56.109654,127.525000 53.834989,124.825000 52.952927,124.000000 C 50.710892,121.903004 41.000000,107.315991 41.000000,106.045160 C 41.000000,105.470322 40.602484,105.000000 40.116631,105.000000 C 39.630779,105.000000 38.983520,104.212500 38.678279,103.250000 C 38.373038,102.287500 37.432755,100.375000 36.588762,99.000000 C 35.006296,96.421912 32.805081,91.443533 29.138976,82.151192 C 26.110998,74.476287 24.274199,60.888376 25.809261,57.519282 C 26.464167,56.081918 27.000000,54.027068 27.000000,52.952947 C 27.000000,51.878826 27.360330,51.000000 27.800734,51.000000 C 28.241138,51.000000 29.579997,48.985893 30.775977,46.524206 C 35.031052,37.765980 46.323432,32.474679 60.634438,32.533347 C 69.316286,32.568938 74.454871,34.390088 80.478862,39.566349 C 82.036581,40.904857 83.663731,42.000000 84.094751,42.000000 C 85.078026,42.000000 99.141901,56.486325 100.399957,58.794981 C 100.910971,59.732741 101.613523,60.725000 101.961183,61.000000 C 103.171447,61.957321 111.620064,73.537149 115.093943,79.000000 C 117.017569,82.025000 120.927965,89.225000 123.783712,95.000000 C 126.639459,100.775000 130.547751,107.300000 132.468806,109.500000 C 134.389860,111.700000 135.970265,113.786351 135.980816,114.136336 C 136.013686,115.226638 145.195126,124.348853 152.000000,130.052187 C 155.575000,133.048484 158.650000,135.837500 158.833333,136.250000 C 159.016667,136.662500 159.599489,137.000000 160.128494,137.000000 C 160.657498,137.000000 164.424676,139.250000 168.500000,142.000000 C 172.575324,144.750000 176.492502,147.001682 177.204840,147.003738 C 177.917178,147.005794 179.850000,147.818390 181.500000,148.809508 C 188.300746,152.894561 203.068231,157.538822 217.000000,159.973986 C 227.229205,161.761970 235.252925,164.188150 237.000000,166.021504 C 237.275000,166.310085 238.625000,167.262124 240.000000,168.137148 C 243.741820,170.518370 247.000000,177.389376 247.000000,182.899084 C 247.000000,186.858152 246.459631,188.199111 243.611004,191.309087 C 234.245567,201.533761 208.041475,206.947795 183.000000,203.831942" fill="none" stroke="black" stroke-width="5"/>
  <path d="M 256.250000,0.310674 C 257.212500,0.059147 258.787500,0.059147 259.750000,0.310674 C 260.712500,0.562202 259.925000,0.767997 258.000000,0.767997 C 256.075000,0.767997 255.287500,0.562202 256.250000,0.310674" fill="none" stroke="black" stroke-width="5"/>
</svg>
