<?xml version="1.0" encoding="utf-8" ?>
<svg xmlns="http://www.w3.org/2000/svg" xmlns:ev="http://www.w3.org/2001/xml-events" xmlns:xlink="http://www.w3.org/1999/xlink" baseProfile="full" height="222" version="1.1" width="264">
  <defs/>
  <path d="M 153.652197,169.318864 C 152.936983,168.603649 146.114845,167.371540 137.231540,166.353218 C 134.333886,166.021051 131.719829,165.355690 131.422523,164.874639 C 131.125216,164.393588 129.896024,164.005368 128.690983,164.011930 C 126.550945,164.023582 112.993250,159.806923 102.000000,155.710608 C 92.237204,152.072787 72.742578,141.913797 63.500000,135.647586 C 58.550000,132.291624 54.275000,129.307964 54.000000,129.017229 C 53.725000,128.726495 51.925000,127.315548 50.000000,125.881792 C 38.908350,117.620638 36.893285,113.747672 39.961989,106.588677 C 41.082895,103.973709 42.000000,100.888957 42.000000,99.733674 C 42.000000,98.578390 42.839726,95.128198 43.866058,92.066579 C 44.892390,89.004961 46.272883,84.475000 46.933819,82.000000 C 47.594756,79.525000 48.555030,76.118051 49.067761,74.429002 C 49.580492,72.739953 50.000000,70.388329 50.000000,69.203172 C 50.000000,68.018014 50.898318,65.574963 51.996262,63.774170 C 53.094206,61.973376 53.994206,59.493958 53.996262,58.264351 C 54.000670,55.628116 55.911169,47.147669 56.984493,45.000000 C 57.514820,43.938841 59.601533,43.438825 64.117068,43.290900 C 67.627681,43.175894 77.018357,42.792846 84.985238,42.439680 C 94.273124,42.027956 102.166799,42.215392 106.985238,42.962072 C 111.118357,43.602553 117.425000,44.570215 121.000000,45.112431 C 134.120462,47.102398 143.206813,49.523431 156.519470,54.576494 C 161.480179,56.459423 165.872583,58.000000 166.280369,58.000000 C 169.178946,58.000000 199.922637,73.471323 204.000000,76.981866 C 205.925000,78.639259 208.062500,79.996363 208.750000,79.997654 C 209.437500,79.998944 210.000000,80.450000 210.000000,81.000000 C 210.000000,81.550000 210.624087,82.000000 211.386860,82.000000 C 213.229812,82.000000 232.775097,101.168812 235.119840,105.275846 C 241.580755,116.592734 242.400253,119.216493 242.373610,128.500000 C 242.335013,141.948667 238.736099,150.622061 229.499195,159.527385 C 225.494726,163.388103 223.193676,164.396230 207.600777,169.121432 C 204.218788,170.146295 154.660991,170.327658 153.652197,169.318864" fill="none" stroke="black" stroke-width="5"/>
</svg>
