<?xml version="1.0" encoding="utf-8" ?>
<svg xmlns="http://www.w3.org/2000/svg" xmlns:ev="http://www.w3.org/2001/xml-events" xmlns:xlink="http://www.w3.org/1999/xlink" baseProfile="full" height="228" version="1.1" width="257">
  <defs/>
  <path d="M 158.891958,198.168229 C 153.115707,195.196210 148.331108,190.933857 145.884329,186.580402 C 144.043869,183.305745 143.575261,180.816576 143.425108,173.517430 C 143.194333,162.299064 143.314107,162.956720 140.994986,160.174109 C 137.640842,156.149622 129.703046,153.916889 118.852400,153.945870 C 113.546220,153.960042 108.004425,154.428019 106.537300,154.985819 C 105.070175,155.543618 101.311596,156.044856 98.184900,156.099680 C 95.058205,156.154504 91.375000,156.518307 90.000000,156.908132 C 85.221657,158.262834 62.002625,153.048397 60.065776,150.185624 C 59.754599,149.725687 57.938473,148.483265 56.029940,147.424687 C 54.121407,146.366109 51.674055,144.712500 50.591379,143.750000 C 49.508703,142.787500 48.115364,142.000000 47.495071,142.000000 C 46.344782,142.000000 38.241140,133.214392 36.588679,130.175776 C 36.087453,129.254099 35.077748,128.141703 34.344889,127.703785 C 32.661875,126.698103 25.686287,112.119237 23.720986,105.500000 C 22.904490,102.750000 22.177899,98.475000 22.106340,96.000000 C 21.948360,90.536017 23.803319,75.265262 24.960916,72.500000 C 25.421400,71.400000 26.341031,68.925000 27.004542,67.000000 C 35.134783,43.412264 53.494402,27.583633 79.177862,22.019100 C 95.543007,18.473456 112.207750,21.262257 126.500000,29.938335 C 140.198762,38.254137 147.377154,46.167036 155.548242,61.958850 C 158.787734,68.219638 159.580676,71.002633 160.484913,79.285125 C 161.077412,84.712209 161.271042,89.332487 160.915202,89.552408 C 160.559361,89.772330 160.468482,90.999877 160.713249,92.280290 C 161.185975,94.753198 159.747245,105.521626 157.944964,113.000000 C 154.844559,125.864802 153.654097,140.225265 155.494152,142.563962 C 157.429189,145.023379 164.395455,148.169214 169.885216,149.062696 C 173.104181,149.586595 177.740658,151.369055 180.960968,153.320687 C 185.726457,156.208758 187.029341,157.712555 190.290400,164.088777 C 193.520059,170.403605 194.027189,172.258329 193.718409,176.626019 C 193.147717,184.698444 188.939950,192.188289 182.740445,196.166843 C 178.197207,199.082482 176.604233,199.532860 170.023309,199.762327 C 164.272071,199.962864 161.650147,199.587383 158.891958,198.168229" fill="none" stroke="black" stroke-width="5"/>
  <path d="M 253.269032,0.307009 C 254.241999,0.053466 255.591999,0.070140 256.269032,0.344063 C 256.946064,0.617986 256.150000,0.825431 254.500000,0.805051 C 252.850000,0.784672 252.296064,0.560553 253.269032,0.307009" fill="none" stroke="black" stroke-width="5"/>
</svg>
