<?xml version="1.0" encoding="utf-8" ?>
<svg xmlns="http://www.w3.org/2000/svg" xmlns:ev="http://www.w3.org/2001/xml-events" xmlns:xlink="http://www.w3.org/1999/xlink" baseProfile="full" height="222" version="1.1" width="265">
  <defs/>
  <path d="M 58.094440,190.891402 C 55.121382,189.277359 52.098104,187.179003 51.376043,186.228389 C 48.222982,182.077292 46.000000,175.761248 46.000000,170.953718 C 46.000000,165.534333 47.714473,157.112906 49.135960,155.550000 C 49.611182,155.027500 50.000000,153.783894 50.000000,152.786431 C 50.000000,151.788968 50.420150,150.191468 50.933666,149.236431 C 54.913457,141.834816 54.885430,126.697433 50.877244,118.763569 C 50.394760,117.808532 50.000000,116.617023 50.000000,116.115773 C 50.000000,115.614522 48.200000,112.241548 46.000000,108.620274 C 43.800000,104.999001 42.000000,101.571903 42.000000,101.004501 C 42.000000,100.437100 41.590287,99.191468 41.089527,98.236431 C 39.337421,94.894856 37.882877,83.087364 38.972526,81.051336 C 39.537637,79.995417 40.000000,78.066899 40.000000,76.765741 C 40.000000,75.464584 40.457624,73.942376 41.016942,73.383058 C 42.448668,71.951332 43.024157,48.619690 41.791024,42.000000 C 38.312604,23.327193 44.491588,8.817404 57.985883,3.970450 C 64.543838,1.614927 66.210084,1.559203 73.478301,3.452332 C 80.423056,5.261211 88.544650,9.533859 92.554399,13.487977 C 96.397453,17.277713 104.000000,32.371922 104.000000,36.212240 C 104.000000,37.800134 104.713143,40.478387 105.584763,42.163914 C 107.025219,44.949448 107.503281,45.175739 110.834763,44.649006 C 112.850643,44.330280 127.909643,44.015692 144.299206,43.949921 C 175.767210,43.823640 175.429250,43.870125 182.103869,38.750000 C 184.075571,37.237500 186.658806,36.000000 187.844391,36.000000 C 189.029976,36.000000 190.000000,35.599233 190.000000,35.109406 C 190.000000,34.011649 195.088422,33.090726 205.232796,32.352513 C 212.320602,31.836729 213.339711,32.009040 217.450896,34.418355 C 225.612229,39.201215 229.582539,47.397080 234.018213,68.618071 C 235.930491,77.766726 236.087187,81.024280 235.653689,102.618071 C 235.190874,125.672267 234.225477,137.192154 232.227678,143.500000 C 230.748216,148.171250 222.222456,164.712328 219.735284,167.736862 C 214.966004,173.536563 209.273591,178.094346 203.140401,181.024003 C 197.091295,183.913496 196.063246,184.082208 184.033481,184.159622 C 176.396281,184.208769 170.483481,183.793935 169.225565,183.120719 C 168.073820,182.504324 166.215235,182.000000 165.095377,182.000000 C 161.294618,182.000000 152.452942,177.158511 147.417028,172.319761 C 142.725149,167.811577 141.759029,166.331919 138.883329,159.250000 C 138.269159,157.737500 137.293067,155.600000 136.714234,154.500000 C 136.135402,153.400000 135.467224,146.875000 135.229394,140.000000 C 134.829568,128.442145 134.999365,126.902630 137.482193,119.574330 C 140.775307,109.854396 148.014700,94.000000 149.159877,94.000000 C 149.621945,94.000000 150.000000,93.126558 150.000000,92.059017 C 150.000000,90.991476 150.450000,89.839919 151.000000,89.500000 C 151.550000,89.160081 152.000000,88.093376 152.000000,87.129544 C 152.000000,86.165713 152.900000,84.411086 154.000000,83.230375 C 155.100000,82.049663 156.000000,80.796778 156.000000,80.446184 C 156.000000,80.095590 156.929980,78.502705 158.066622,76.906438 C 159.277959,75.205272 160.002208,72.865174 159.816622,71.252068 L 159.500000,68.500000 L 139.500000,68.676531 C 128.500000,68.773623 115.232361,69.076985 110.016357,69.350668 C 101.117718,69.817579 100.395842,70.019928 98.313842,72.631005 C 95.870465,75.695291 95.886564,76.914805 98.582741,93.000000 C 99.948313,101.146905 100.999205,105.381422 104.664473,117.506035 C 105.775000,121.179627 106.316539,126.488948 106.291663,133.459223 C 106.259195,142.557238 105.840506,145.106960 103.049516,153.203188 C 97.312376,169.845738 92.674577,179.281127 87.952537,183.917297 C 77.232231,194.442657 68.425059,196.499792 58.094440,190.891402" fill="none" stroke="black" stroke-width="5"/>
</svg>
