<?xml version="1.0" encoding="utf-8" ?>
<svg xmlns="http://www.w3.org/2000/svg" xmlns:ev="http://www.w3.org/2001/xml-events" xmlns:xlink="http://www.w3.org/1999/xlink" baseProfile="full" height="219" version="1.1" width="259">
  <defs/>
  <path d="M 58.500000,201.914913 C 56.300000,201.455799 52.953404,200.773706 51.063120,200.399152 C 47.456655,199.684542 37.931904,194.485239 34.471662,191.342325 C 20.666175,178.802896 13.138412,146.395334 17.667687,119.000000 C 18.440606,114.325000 19.336176,107.905309 19.657844,104.734021 C 19.979511,101.562732 20.638087,98.723674 21.121347,98.425004 C 21.604606,98.126333 22.000000,95.235081 22.000000,92.000000 C 22.000000,88.764919 22.450000,85.839919 23.000000,85.500000 C 23.550000,85.160081 24.000000,84.051049 24.000000,83.035484 C 24.000000,80.838418 27.660178,73.741878 30.198739,71.017054 C 31.189433,69.953669 32.000000,68.722393 32.000000,68.280884 C 32.000000,66.516721 38.728934,60.186923 42.337146,58.556902 C 49.901921,55.139490 61.085165,54.664767 67.500000,57.488753 C 69.150000,58.215128 72.075000,59.473014 74.000000,60.284055 C 75.925000,61.095096 82.000000,66.406143 87.500000,72.086381 C 105.378633,90.550907 103.961616,89.426685 111.159892,90.857474 C 115.894309,91.798526 118.777957,91.876487 121.600459,91.139740 C 123.745206,90.579904 132.925000,89.838568 142.000000,89.492325 C 157.007585,88.919735 160.309469,88.735507 165.750000,88.167198 C 168.733233,87.855575 170.167700,83.299790 168.769945,78.576026 C 167.834483,75.414594 164.471414,71.380382 153.781928,60.596956 C 146.201868,52.950281 140.000000,46.087781 140.000000,45.346956 C 140.000000,44.606130 139.550000,44.000000 139.000000,44.000000 C 138.450000,44.000000 138.000000,43.318894 138.000000,42.486431 C 138.000000,41.653968 137.597989,40.191468 137.106642,39.236431 C 136.615294,38.281394 135.684554,35.179813 135.038329,32.344028 C 133.414893,25.220019 135.130242,19.799725 140.695859,14.466927 C 145.058493,10.286788 152.102217,6.000000 154.608070,6.000000 C 155.388557,6.000000 156.808532,5.587309 157.763569,5.082909 C 161.519801,3.099067 174.112185,1.713554 183.195727,2.284663 C 198.145652,3.224610 206.843400,6.858566 216.022907,16.000000 C 221.729847,21.683269 226.682052,30.385891 228.227950,37.448195 C 230.063012,45.831520 230.861317,52.464308 230.392488,55.432471 C 229.017226,64.139291 227.623353,70.114746 226.857145,70.588289 C 226.385715,70.879649 226.000000,72.110329 226.000000,73.323134 C 226.000000,74.535939 225.100000,77.990529 224.000000,81.000000 C 222.900000,84.009471 221.993451,87.378119 221.985447,88.485883 C 221.977442,89.593647 221.290021,92.454982 220.457844,94.844404 C 218.329795,100.954648 220.066081,110.756280 225.166790,121.427213 C 226.725056,124.687181 228.000000,127.949681 228.000000,128.677213 C 228.000000,129.404746 228.450000,130.000000 229.000000,130.000000 C 229.550000,130.000000 230.000000,130.810000 230.000000,131.800000 C 230.000000,132.790000 230.419317,134.027500 230.931816,134.550000 C 231.819177,135.454678 233.216930,140.523555 236.570945,155.000000 C 238.246622,162.232480 237.878307,167.155253 234.937270,176.835158 C 231.702448,187.482004 226.719272,194.153018 219.500000,197.501145 C 214.698357,199.728033 205.559757,200.714723 204.569923,199.113137 C 204.191547,198.500912 202.859789,198.000000 201.610461,198.000000 C 196.297689,198.000000 181.068195,187.837742 176.097425,180.975794 C 169.999859,172.558348 166.903123,164.388001 163.878986,148.738975 C 162.055025,139.300506 161.823626,136.338321 162.707223,133.738975 C 164.028484,129.852119 166.534985,114.193012 165.928289,113.615695 C 165.332157,113.048429 130.669411,114.816039 124.229559,115.742101 C 120.036038,116.345137 118.693036,117.010830 117.656916,119.000000 C 116.940706,120.375000 115.868100,122.400000 115.273349,123.500000 C 109.874466,133.485295 105.734974,144.396259 100.477205,162.500000 C 99.039604,167.450000 96.992873,173.300000 95.928915,175.500000 C 94.864956,177.700000 93.995695,180.062500 93.997222,180.750000 C 93.998750,181.437500 93.622232,182.000000 93.160515,182.000000 C 92.698798,182.000000 91.822343,183.094498 91.212837,184.432218 C 90.102607,186.868908 86.812464,191.116591 84.000000,193.744229 C 80.391545,197.115548 76.412208,199.997652 75.364307,199.998779 C 74.739676,199.999450 72.939676,200.672228 71.364307,201.493839 C 68.266946,203.109224 64.771229,203.223646 58.500000,201.914913" fill="none" stroke="black" stroke-width="5"/>
</svg>
