<?xml version="1.0" encoding="utf-8" ?>
<svg xmlns="http://www.w3.org/2000/svg" xmlns:ev="http://www.w3.org/2001/xml-events" xmlns:xlink="http://www.w3.org/1999/xlink" baseProfile="full" height="222" version="1.1" width="264">
  <defs/>
  <path d="M 138.250000,211.012992 C 137.012500,210.491293 136.000000,209.793526 136.000000,209.462399 C 136.000000,208.185410 141.979195,200.256099 145.894537,196.340757 C 148.152542,194.082753 150.000000,191.757870 150.000000,191.174351 C 150.000000,190.590832 150.787500,189.523828 151.750000,188.803229 C 154.128045,187.022850 163.999292,175.361984 164.002875,174.328955 C 164.004457,173.873030 165.307352,172.627995 166.898198,171.562211 C 168.489044,170.496426 170.497968,168.471426 171.362474,167.062211 C 172.226980,165.652995 174.754581,162.475000 176.979365,160.000000 C 181.739557,154.704440 181.705891,154.145496 175.935931,142.676560 C 173.771169,138.373668 172.000000,134.211168 172.000000,133.426560 C 172.000000,132.641952 171.659850,132.000000 171.244111,132.000000 C 170.828373,132.000000 169.851064,130.537500 169.072314,128.750000 C 168.293565,126.962500 166.592108,123.795135 165.291298,121.711411 L 162.926190,117.922822 L 152.213095,118.536274 C 146.320893,118.873672 134.300000,119.453537 125.500000,119.824863 L 109.500000,120.500000 L 109.804327,140.500000 C 110.166863,164.325371 110.743026,176.775190 111.543002,178.069578 C 112.816408,180.129993 110.606171,183.016180 102.725701,189.583448 C 98.201566,193.353681 93.351486,197.592562 91.947747,199.003184 C 90.544008,200.413805 86.742566,203.729011 83.500098,206.370307 C 78.636574,210.332105 77.070447,211.090735 74.552351,210.704581 C 70.941987,210.150927 59.910611,206.133852 58.550000,204.877326 C 58.027500,204.394797 57.022169,204.000000 56.315930,204.000000 C 55.158291,204.000000 49.189873,201.234041 40.244524,196.551989 C 38.454012,195.614824 36.446707,193.869741 35.783847,192.674026 C 35.107621,191.454204 34.259069,183.916339 33.850533,175.500000 C 33.450071,167.250000 32.632614,153.075000 32.033963,144.000000 C 31.435311,134.925000 30.514302,118.500000 29.987277,107.500000 C 29.460251,96.500000 28.582565,80.750000 28.036863,72.500000 C 27.491161,64.250000 26.737687,52.378734 26.362476,46.119410 L 25.680275,34.738819 L 29.543272,31.400465 C 31.667920,29.564371 36.127359,26.626020 39.453135,24.870797 C 42.778911,23.115575 47.300000,20.484068 49.500000,19.023005 C 51.700000,17.561942 55.224500,15.570388 57.332222,14.597329 C 61.043370,12.884027 67.236042,9.089411 69.707794,7.014085 C 71.587076,5.436206 72.926889,5.777876 76.856096,8.836994 C 78.860243,10.397340 83.425000,13.635098 87.000000,16.032011 C 90.575000,18.428924 94.094643,20.977277 94.821429,21.695018 C 95.548214,22.412758 96.528571,23.000000 97.000000,23.000000 C 97.471429,23.000000 98.473789,23.616646 99.227468,24.370325 C 99.981147,25.124004 102.038290,26.485560 103.798897,27.396005 C 106.892246,28.995639 107.004732,29.277711 107.140588,35.775680 C 107.217911,39.474056 107.417064,47.000000 107.583148,52.500000 C 107.749233,58.000000 107.993010,69.587500 108.124874,78.250000 L 108.364628,94.000000 L 121.432314,93.868440 C 128.619541,93.796082 139.670363,93.458582 145.989696,93.118440 C 156.437735,92.556068 157.512350,92.318680 157.842933,90.500000 C 158.042881,89.400000 158.774579,87.825000 159.468929,87.000000 C 160.163278,86.175000 161.025395,84.262500 161.384743,82.750000 C 161.744092,81.237500 162.479531,80.000000 163.019052,80.000000 C 163.558573,80.000000 164.000000,79.100000 164.000000,78.000000 C 164.000000,76.900000 164.340150,76.000000 164.755889,76.000000 C 165.171627,76.000000 166.106741,74.537500 166.833919,72.750000 C 167.561097,70.962500 170.370947,64.911788 173.078030,59.303972 C 175.785114,53.696157 178.000000,48.702794 178.000000,48.207610 C 178.000000,46.906341 180.977271,41.132081 181.962027,40.523469 C 183.264143,39.718717 233.557211,39.608307 234.850109,40.407362 C 236.203419,41.243754 236.391524,49.257486 235.116671,51.763569 C 232.855127,56.209272 229.000000,67.023012 229.000000,68.921006 C 229.000000,69.389117 230.476711,70.472863 232.281581,71.329329 C 234.086450,72.185796 236.528106,73.699569 237.707483,74.693271 C 238.886859,75.686972 241.235148,77.266570 242.925902,78.203490 C 246.410356,80.134375 247.041553,83.534649 244.089460,84.471607 C 243.038663,84.805117 241.518215,86.072941 240.710686,87.288994 C 239.903157,88.505047 236.953503,91.912982 234.155900,94.862183 L 229.069349,100.224366 L 231.784675,103.855658 C 234.543096,107.544583 236.768520,110.106211 245.234572,119.337484 C 247.838587,122.176868 249.976087,125.008238 249.984572,125.629418 C 250.001661,126.880407 245.355330,131.679401 236.103209,139.966877 C 232.746444,142.973659 230.000000,145.994391 230.000000,146.679615 C 230.000000,147.768155 240.984930,156.000000 242.437524,156.000000 C 243.543146,156.000000 247.998233,160.394021 247.943327,161.430335 C 247.912158,162.018651 244.799000,165.200000 241.025199,168.500000 C 237.251398,171.800000 234.152187,174.950000 234.138062,175.500000 C 234.123938,176.050000 236.787096,178.746824 240.056191,181.492942 C 243.325286,184.239061 246.000000,187.197445 246.000000,188.067129 C 246.000000,189.704366 237.368573,198.363296 228.295212,205.828332 L 223.090424,210.110530 L 196.295212,210.518108 C 181.557845,210.742276 162.975000,211.158753 155.000000,211.443611 C 146.798570,211.736558 139.522636,211.549504 138.250000,211.012992" fill="none" stroke="black" stroke-width="5"/>
</svg>
