<?xml version="1.0" encoding="utf-8" ?>
<svg xmlns="http://www.w3.org/2000/svg" xmlns:ev="http://www.w3.org/2001/xml-events" xmlns:xlink="http://www.w3.org/1999/xlink" baseProfile="full" height="224" version="1.1" width="259">
  <defs/>
  <path d="M 154.500000,214.776784 C 146.329728,212.794515 144.170666,211.347523 143.022849,207.084855 C 142.102861,203.668281 142.253850,202.438160 144.066537,198.581834 C 147.556570,191.157108 155.445878,186.292740 169.296602,183.025548 C 172.484732,182.273513 175.323790,181.285114 175.605619,180.829106 C 175.887447,180.373098 177.441476,180.000000 179.059017,180.000000 C 180.676558,180.000000 182.000000,179.550000 182.000000,179.000000 C 182.000000,178.450000 182.684783,178.000000 183.521739,178.000000 C 184.358696,178.000000 187.396196,175.637500 190.271739,172.750000 C 196.503621,166.492206 198.000000,161.984947 198.000000,149.471624 C 198.000000,139.506335 196.707875,136.863567 188.724229,130.500000 C 185.964139,128.300000 183.192158,126.050000 182.564273,125.500000 C 181.072609,124.193368 178.951677,123.010250 169.127796,118.004734 L 160.970611,113.848443 L 151.735305,114.386706 C 133.257985,115.463624 129.681417,116.078476 123.000000,119.326626 C 119.425000,121.064602 115.625561,123.279044 114.556803,124.247610 C 112.744767,125.889772 110.868989,126.862714 100.500000,131.538693 C 95.009198,134.014815 85.639841,135.922760 78.764351,135.964871 C 70.570763,136.015054 65.249412,134.621770 53.000000,129.219016 C 48.869937,127.397401 44.000000,123.150057 44.000000,121.369613 C 44.000000,120.678700 43.204189,119.525391 42.231531,118.806704 C 39.494305,116.784195 34.445070,106.156591 33.058805,99.500000 C 32.371565,96.200000 31.402191,92.466326 30.904639,91.202947 C 29.534729,87.724482 29.887453,75.363937 31.581033,67.500000 C 32.410170,63.650000 33.472766,58.700000 33.942356,56.500000 C 35.195912,50.627175 36.459511,47.110973 39.385014,41.354773 C 40.823256,38.524898 42.000000,35.792565 42.000000,35.282920 C 42.000000,33.950142 54.644175,18.930033 57.281215,17.130252 C 58.501547,16.297374 59.725000,15.344515 60.000000,15.012786 C 60.275000,14.681057 63.351306,12.967473 66.836235,11.204821 C 73.279262,7.945985 82.125218,6.775556 83.500000,9.000000 C 83.839919,9.550000 85.384797,10.000000 86.933064,10.000000 C 90.259093,10.000000 97.634661,13.924111 101.539129,17.771038 C 105.047617,21.227820 112.000000,31.848015 112.000000,33.750666 C 112.000000,34.542992 112.824490,36.385726 113.832199,37.845630 C 114.839909,39.305533 116.221357,43.875000 116.902084,48.000000 C 117.582811,52.125000 118.533732,57.075000 119.015241,59.000000 C 119.496750,60.925000 120.160920,63.625000 120.491174,65.000000 C 120.821427,66.375000 121.687740,69.750000 122.416313,72.500000 C 123.144886,75.250000 124.342093,80.312500 125.076772,83.750000 C 125.811451,87.187500 126.882228,90.050807 127.456276,90.112904 C 128.030324,90.175002 138.850000,90.149877 151.500000,90.057072 C 174.401901,89.889056 177.825055,89.480477 185.574371,85.990038 C 191.515450,83.314064 208.461757,81.521100 214.076204,82.974469 C 220.705194,84.690465 226.783962,87.727811 227.950105,89.906771 C 228.520344,90.972273 229.552350,92.441636 230.243452,93.172023 C 232.457632,95.512069 238.000000,105.082926 238.000000,106.566446 C 238.000000,107.354901 238.450000,108.000000 239.000000,108.000000 C 239.550000,108.000000 240.000000,109.098442 240.000000,110.440983 C 240.000000,111.783524 240.450000,113.160081 241.000000,113.500000 C 241.550000,113.839919 242.000000,115.126476 242.000000,116.359017 C 242.000000,117.591558 242.489359,119.089359 243.087464,119.687464 C 244.782651,121.382651 244.365182,144.391117 242.453567,154.624201 C 239.737197,169.165223 236.855775,176.558998 229.726793,187.281311 C 225.972548,192.927866 215.788677,201.998118 213.201694,201.999371 C 212.487625,201.999717 210.040602,202.900000 207.763864,204.000000 C 205.487127,205.100000 202.808864,206.000000 201.812171,206.000000 C 200.815477,206.000000 200.000000,206.398925 200.000000,206.886501 C 200.000000,207.374076 198.762500,208.028931 197.250000,208.341735 C 188.674317,210.115292 184.947169,210.901449 180.000000,211.980231 C 172.628673,213.587627 159.622489,215.986788 159.000000,215.853957 C 158.725000,215.795275 156.700000,215.310548 154.500000,214.776784" fill="none" stroke="black" stroke-width="5"/>
</svg>
