<?xml version="1.0" encoding="utf-8" ?>
<svg xmlns="http://www.w3.org/2000/svg" xmlns:ev="http://www.w3.org/2001/xml-events" xmlns:xlink="http://www.w3.org/1999/xlink" baseProfile="full" height="219" version="1.1" width="259">
  <defs/>
  <path d="M 130.875674,213.553584 C 130.669053,213.353148 122.850000,212.904326 113.500000,212.556202 C 77.671562,211.222219 63.611060,208.891709 54.845630,202.834316 C 53.385726,201.825442 51.751624,201.000000 51.214291,201.000000 C 49.804527,201.000000 41.001189,191.734461 41.000543,190.250000 C 41.000245,189.562500 40.659850,189.000000 40.244111,189.000000 C 38.164406,189.000000 36.503260,182.011116 36.560008,173.500000 C 36.610573,165.916408 36.990384,163.870486 38.973369,160.500000 C 40.267712,158.300000 41.917811,155.349409 42.640256,153.943131 C 43.362700,152.536853 45.606108,150.061853 47.625607,148.443131 C 49.645105,146.824409 52.614660,144.293639 54.224618,142.819197 C 58.230485,139.150516 65.631043,137.168452 77.500000,136.585434 C 90.338743,135.954780 98.103097,134.633779 101.305989,132.535164 C 103.437052,131.138838 103.967372,129.818199 104.538463,124.485438 C 105.111902,119.130736 103.846747,103.602868 102.487554,99.313645 C 102.050585,97.934695 92.392173,101.258589 78.750000,107.482807 C 76.962500,108.298351 71.812876,109.878410 67.306391,110.994051 C 60.316584,112.724470 58.406628,112.852099 54.306391,111.862746 C 46.949854,110.087676 43.100163,108.133517 38.369513,103.772957 C 31.383991,97.333927 28.602955,89.573230 27.879588,74.500000 C 27.774908,72.318732 31.321415,60.409268 32.495317,59.000000 C 33.182531,58.175000 34.554003,55.700000 35.543031,53.500000 C 38.367914,47.216315 56.180276,30.686100 63.000000,28.019403 C 64.925000,27.266676 67.694467,25.829377 69.154370,24.825404 C 70.614274,23.821432 72.500217,23.000000 73.345354,23.000000 C 74.190490,23.000000 75.129353,22.599720 75.431715,22.110488 C 75.734076,21.621256 77.448134,20.988127 79.240732,20.703533 C 81.033329,20.418940 84.300000,19.648208 86.500000,18.990796 C 88.700000,18.333385 92.300000,17.565898 94.500000,17.285272 C 96.700000,17.004645 98.950000,16.434180 99.500000,16.017571 C 100.050000,15.600962 104.325000,15.205774 109.000000,15.139375 C 113.675000,15.072976 119.318192,14.752501 121.540426,14.427209 C 125.982264,13.777009 138.830326,15.589524 161.500000,20.064428 C 164.800000,20.715835 169.879381,22.092824 172.787513,23.124402 C 175.695645,24.155981 178.963049,25.000000 180.048411,25.000000 C 181.133773,25.000000 183.929393,25.868683 186.260898,26.930406 C 188.592404,27.992129 193.650000,29.884448 197.500000,31.135559 C 201.350000,32.386670 205.694467,34.217988 207.154370,35.205153 C 208.614274,36.192319 210.252260,37.000000 210.794338,37.000000 C 212.245769,37.000000 222.269238,47.155472 223.918980,50.297484 C 224.699419,51.783868 225.676164,53.000000 226.089524,53.000000 C 226.502885,53.000000 227.142873,54.462500 227.511719,56.250000 C 227.880565,58.037500 228.816320,61.428226 229.591174,63.784947 C 233.312924,75.104659 229.653856,92.088733 221.186245,102.797603 C 216.029600,109.319140 208.386814,114.520105 199.704234,117.416250 C 184.957865,122.335021 168.605743,119.077500 158.500000,109.207916 C 152.431564,103.281292 143.855449,99.000000 138.051906,99.000000 C 132.217548,99.000000 132.277703,98.794838 132.833659,116.796867 C 133.193401,128.445425 133.339011,129.176023 135.595541,130.654558 C 138.309875,132.433057 150.484324,134.460471 171.000000,136.550469 C 174.575000,136.914666 179.525000,137.880060 182.000000,138.695790 C 184.475000,139.511520 187.850000,140.346908 189.500000,140.552207 C 196.672426,141.444628 201.425415,143.488067 205.468400,147.417455 C 210.445633,152.254840 212.508973,156.443380 213.773081,164.275791 C 215.548302,175.275066 209.330191,187.143273 197.129859,196.041901 C 191.129021,200.418767 177.353727,207.000000 174.193269,207.000000 C 173.187579,207.000000 169.020175,207.889409 164.932371,208.976464 C 160.844567,210.063519 155.677500,210.963519 153.450000,210.976464 C 151.222500,210.989409 148.972500,211.392321 148.450000,211.871824 C 147.510236,212.734255 131.600507,214.256723 130.875674,213.553584" fill="none" stroke="black" stroke-width="5"/>
</svg>
