<?xml version="1.0" encoding="utf-8" ?>
<svg xmlns="http://www.w3.org/2000/svg" xmlns:ev="http://www.w3.org/2001/xml-events" xmlns:xlink="http://www.w3.org/1999/xlink" baseProfile="full" height="219" version="1.1" width="259">
  <defs/>
  <path d="M 34.000000,218.016679 C 27.412133,216.598739 20.499805,212.741292 15.845898,207.885725 C 12.011417,203.885090 11.071112,202.152479 10.506511,198.047340 C 10.000381,194.367335 10.236741,192.271974 11.410613,190.032363 C 12.284776,188.364563 13.724476,185.616891 14.609946,183.926425 C 15.495416,182.235959 16.948152,180.573390 17.838248,180.231828 C 18.728344,179.890266 20.537452,178.326292 21.858488,176.756330 C 24.326494,173.823272 35.818196,168.000000 39.138315,168.000000 C 40.162242,168.000000 41.000000,167.550000 41.000000,167.000000 C 41.000000,166.450000 42.518423,166.000000 44.374273,166.000000 C 46.230124,166.000000 49.717624,165.302603 52.124273,164.450229 C 54.530923,163.597855 57.850000,162.985168 59.500000,163.088702 C 61.150000,163.192236 63.175000,163.026716 64.000000,162.720881 C 64.825000,162.415046 69.550000,161.919105 74.500000,161.618791 C 84.218519,161.029172 90.169550,159.687593 92.236895,157.620248 C 92.954302,156.902841 94.656985,155.724841 96.020636,155.002470 C 97.384286,154.280099 100.463262,152.088225 102.862804,150.131638 L 107.225608,146.574207 L 106.664788,127.037104 C 106.051139,105.659592 105.442802,102.042149 102.187174,100.411219 C 100.991803,99.812390 99.223173,98.638777 98.256886,97.803191 C 97.290599,96.967605 93.796232,94.865314 90.491627,93.131432 C 87.187022,91.397551 83.179529,88.858664 81.586088,87.489460 C 79.992646,86.120257 78.375352,85.000000 77.992099,85.000000 C 77.608847,85.000000 73.945356,81.735916 69.851008,77.746479 C 59.927307,68.077059 55.490179,59.423256 56.512985,51.733120 C 57.579503,43.714329 67.112328,27.529859 72.500000,24.590968 C 73.600000,23.990936 74.725000,23.218756 75.000000,22.875014 C 76.169478,21.413198 92.007641,13.955015 95.110136,13.405161 C 96.974561,13.074729 100.300000,12.183439 102.500000,11.424516 C 104.700000,10.665593 110.550000,9.582364 115.500000,9.017340 C 120.450000,8.452316 125.850000,7.803497 127.500000,7.575521 C 144.035140,5.290901 154.948922,4.580791 164.500000,5.168099 C 166.580337,5.296022 173.320863,5.253939 178.500000,5.080693 C 181.765780,4.971450 193.103247,6.365852 202.299869,8.007853 C 205.489797,8.577395 210.214797,10.056218 212.799869,11.294127 C 215.384941,12.532035 219.454644,14.183209 221.843653,14.963402 C 226.271844,16.409544 237.638918,26.317705 239.879303,30.684259 C 242.503403,35.798678 239.567442,56.644186 236.058259,57.813914 C 235.476217,58.007928 234.987824,58.691667 234.972942,59.333333 C 234.912997,61.918034 221.071112,74.000000 218.169856,74.000000 C 217.618102,74.000000 217.016667,74.397029 216.833333,74.882286 C 215.888201,77.383917 194.994251,85.707368 178.500000,90.153004 C 172.450000,91.783639 165.925000,93.571211 164.000000,94.125386 C 158.920943,95.587561 153.263617,96.885134 147.000000,98.024531 C 143.975000,98.574801 140.025018,99.297298 138.222262,99.630081 C 136.419506,99.962864 134.519887,101.028582 134.000887,101.998343 C 133.460242,103.008546 133.248179,111.376491 133.504326,121.592488 C 134.057782,143.666220 134.989295,146.825712 143.500000,155.495676 C 151.431997,163.576103 152.738779,165.494369 153.539317,170.232717 C 154.352000,175.042947 153.199030,188.758959 151.915305,189.552344 C 151.411887,189.863474 151.000000,190.928121 151.000000,191.918227 C 151.000000,195.187959 143.188102,202.809407 136.680984,205.888152 C 128.617584,209.703229 124.026345,211.060885 115.500000,212.151494 C 111.650000,212.643950 105.125000,213.481561 101.000000,214.012853 C 93.220070,215.014893 80.985351,216.361459 65.500000,217.920022 C 54.688908,219.008132 38.832430,219.056788 34.000000,218.016679" fill="none" stroke="black" stroke-width="5"/>
</svg>
