<?xml version="1.0" encoding="utf-8" ?>
<svg xmlns="http://www.w3.org/2000/svg" xmlns:ev="http://www.w3.org/2001/xml-events" xmlns:xlink="http://www.w3.org/1999/xlink" baseProfile="full" height="220" version="1.1" width="254">
  <defs/>
  <path d="M 56.523931,204.592300 C 54.589103,202.599957 51.808133,199.064141 50.343998,196.734929 C 48.879863,194.405718 46.853499,191.911983 45.840967,191.193296 C 44.828435,190.474609 44.000000,189.435722 44.000000,188.884658 C 44.000000,188.333594 42.574250,186.108568 40.831666,183.940155 C 37.865067,180.248620 37.752214,179.822565 39.059266,177.248794 C 39.827030,175.736957 43.615280,171.265736 47.477600,167.312747 C 51.339920,163.359757 57.547336,156.934045 61.271858,153.033386 C 71.889210,141.913927 70.803685,142.240966 99.143113,141.623815 C 112.539401,141.332083 137.616341,140.774614 154.869646,140.384996 L 186.239292,139.676598 L 185.657083,128.588299 C 184.505922,106.664166 183.170361,92.910199 182.063049,91.575970 C 179.741726,88.778946 163.837540,87.133428 157.550341,89.039776 C 149.632879,91.440437 141.485365,94.262832 140.500000,94.946214 C 137.578916,96.972080 115.100929,102.331501 102.000000,104.125760 C 88.876527,105.923107 70.040941,103.935609 70.007802,100.750000 C 70.003511,100.337500 69.347901,100.000000 68.550891,100.000000 C 66.622774,100.000000 62.719841,94.685044 60.073550,88.455681 C 55.792814,78.378844 57.924427,57.431671 63.935973,50.500000 C 64.889956,49.400000 66.477875,46.734247 67.464681,44.576103 C 69.561937,39.989407 81.354932,28.000000 83.769232,28.000000 C 84.238737,28.000000 85.495230,27.191348 86.561439,26.202995 C 90.748440,22.321736 112.454564,15.189660 122.721256,14.321807 C 126.724565,13.983404 130.000000,13.389399 130.000000,13.001796 C 130.000000,12.292165 139.283320,11.383980 157.199303,10.340896 C 169.321692,9.635120 176.574709,11.176981 191.710005,17.677252 C 195.006859,19.093176 204.262205,25.729935 204.802051,27.065204 C 204.968179,27.476109 206.324501,29.092036 207.816101,30.656152 C 210.140628,33.093690 214.090572,40.360153 216.972171,47.500000 C 219.540098,53.862650 220.809424,66.381714 219.000000,67.500000 C 218.450000,67.839919 218.000000,69.189919 218.000000,70.500000 C 218.000000,71.810081 217.550000,73.160081 217.000000,73.500000 C 216.450000,73.839919 216.000000,74.809510 216.000000,75.654646 C 216.000000,76.499783 215.165622,78.385726 214.145828,79.845630 C 213.126033,81.305533 212.000357,83.706033 211.644326,85.180073 C 211.288295,86.654113 210.398574,88.458569 209.667167,89.189976 C 208.935761,89.921382 208.071651,91.640349 207.746923,93.009903 C 207.038068,95.999529 208.486516,125.245710 209.554134,129.500000 C 209.968202,131.150000 212.393595,135.650000 214.943894,139.500000 C 217.494194,143.350000 221.100109,149.425000 222.957040,153.000000 C 224.813971,156.575000 226.634224,159.725000 227.002047,160.000000 C 227.369869,160.275000 229.131545,163.182021 230.916880,166.460047 C 232.702216,169.738074 235.026283,173.632540 236.081473,175.114418 C 237.136663,176.596296 238.000000,178.301774 238.000000,178.904370 C 238.000000,179.506967 238.338273,180.000000 238.751717,180.000000 C 239.165162,180.000000 240.601125,182.137500 241.942748,184.750000 C 243.284370,187.362500 246.321097,192.334060 248.691030,195.797910 C 251.060964,199.261761 253.000000,202.974261 253.000000,204.047910 C 253.000000,206.418947 249.818551,206.691220 247.981262,204.477422 C 247.286267,203.640004 245.993667,203.171812 245.108817,203.436996 C 244.223968,203.702179 236.075000,203.975012 227.000000,204.043291 C 217.925000,204.111569 198.350000,204.560917 183.500000,205.041842 C 168.650000,205.522767 136.250000,206.179199 111.500000,206.500581 C 86.750000,206.821963 65.046905,207.339123 63.270900,207.649826 C 60.507794,208.133217 59.534133,207.691983 56.523931,204.592300" fill="none" stroke="black" stroke-width="5"/>
</svg>
