<?xml version="1.0" encoding="utf-8" ?>
<svg xmlns="http://www.w3.org/2000/svg" xmlns:ev="http://www.w3.org/2001/xml-events" xmlns:xlink="http://www.w3.org/1999/xlink" baseProfile="full" height="224" version="1.1" width="263">
  <defs/>
  <path d="M 77.500000,158.873603 C 72.302259,157.062525 68.407855,156.000335 66.929002,155.990387 C 65.221124,155.978898 53.083045,147.008680 49.614712,143.194873 C 42.988871,135.909047 41.000000,133.481835 41.000000,132.681509 C 41.000000,132.201487 40.168447,130.614274 39.152104,129.154370 C 35.846892,124.406672 34.145470,115.879756 33.334773,100.000000 C 32.767089,88.880321 33.885443,81.193029 36.971794,75.000000 C 44.081946,60.732870 50.207280,54.421762 61.934001,49.280718 C 64.995301,47.938632 68.543562,46.333770 69.819027,45.714358 C 72.467283,44.428271 82.351050,44.278521 89.000000,45.423745 C 94.948048,46.448245 105.000000,51.004202 105.000000,52.675601 C 105.000000,53.404021 105.657242,54.000000 106.460538,54.000000 C 107.263834,54.000000 110.831715,56.925000 114.389162,60.500000 C 117.946609,64.075000 121.270512,67.000000 121.775614,67.000000 C 122.280716,67.000000 123.745818,67.912254 125.031398,69.027231 C 128.291655,71.854837 131.693889,72.497427 135.900967,71.080198 C 141.841618,69.078983 144.313509,67.717585 148.252881,64.277362 C 150.316965,62.474813 152.454465,61.000000 153.002881,61.000000 C 154.844385,61.000000 154.022174,57.141813 152.047079,56.514942 C 149.536356,55.718070 147.000000,50.624708 147.000000,46.379695 C 147.000000,42.365468 152.752207,36.000000 156.379695,36.000000 C 160.541734,36.000000 165.000000,38.898612 165.000000,41.604627 C 165.000000,46.745081 169.502841,45.664728 178.497010,38.366328 C 181.795366,35.689848 185.078857,32.948652 185.793657,32.274782 C 187.949838,30.242066 200.356557,24.821907 204.000000,24.320925 C 213.707067,22.986181 226.116326,24.672706 231.621158,28.074880 C 239.394807,32.879259 247.246888,45.728468 249.003052,56.518750 C 249.496296,59.549362 250.113993,62.375427 250.375710,62.798895 C 251.468242,64.566649 252.056768,108.684259 251.048725,113.250000 C 250.471926,115.862500 249.570390,119.912500 249.045310,122.250000 C 245.098198,139.821390 239.622163,148.143848 228.500000,153.474686 C 221.070195,157.035782 216.460123,157.988243 206.623705,157.994423 C 193.399496,158.002732 188.907634,155.452455 173.757792,139.334634 C 171.477614,136.908767 169.445326,137.189067 168.701893,140.031960 C 168.429539,141.073445 166.141764,142.928794 163.617949,144.154958 C 159.214983,146.294085 158.887919,146.316977 155.539799,144.720370 C 153.243043,143.625123 151.529104,141.808750 150.525201,139.406072 C 147.691064,132.623028 148.988896,128.551276 155.217852,124.683592 C 156.712671,123.755429 157.711058,122.410604 157.436491,121.695093 C 156.461594,119.154552 151.605236,117.303592 146.783199,117.634681 C 142.062401,117.958818 133.000000,121.505917 133.000000,123.029539 C 133.000000,123.474647 130.836814,126.237590 128.192920,129.169413 C 125.549025,132.101236 122.292874,136.075000 120.957028,138.000000 C 114.906426,146.719123 110.887327,150.358949 101.907391,155.251968 C 96.173013,158.376535 93.730794,159.104155 87.739337,159.473110 C 83.757702,159.718300 79.150000,159.448521 77.500000,158.873603" fill="none" stroke="black" stroke-width="5"/>
</svg>
