<?xml version="1.0" encoding="utf-8" ?>
<svg xmlns="http://www.w3.org/2000/svg" xmlns:ev="http://www.w3.org/2001/xml-events" xmlns:xlink="http://www.w3.org/1999/xlink" baseProfile="full" height="221" version="1.1" width="256">
  <defs/>
  <path d="M 150.585945,205.658363 C 144.985338,200.845904 145.633189,190.832014 151.728358,188.000000 C 155.526002,186.235491 155.999725,183.218064 153.117082,179.154370 C 152.081477,177.694467 150.218290,174.700000 148.976666,172.500000 C 147.735041,170.300000 145.956628,167.150000 145.024635,165.500000 C 144.092643,163.850000 143.049422,161.370735 142.706367,159.990523 C 142.363312,158.610311 140.599138,155.861450 138.785981,153.881943 C 136.972823,151.902436 134.857256,149.101797 134.084719,147.658300 C 133.312183,146.214802 131.952353,144.238663 131.062875,143.266879 C 130.173397,142.295096 128.449704,140.086615 127.232445,138.359145 C 125.195979,135.469098 113.921286,129.000000 110.920823,129.000000 C 109.748176,129.000000 102.240435,126.960101 89.000000,123.043980 C 85.425000,121.986602 79.125000,120.171830 75.000000,119.011151 C 61.939816,115.336321 60.643105,114.806433 53.773021,110.336955 C 46.383237,105.529375 35.706944,95.267759 33.347173,90.704465 C 31.087804,86.335328 29.023015,78.924165 29.010824,75.139977 C 28.979223,65.330389 45.824801,46.334006 56.000000,44.704886 C 57.925000,44.396680 61.300000,43.755504 63.500000,43.280052 C 67.181775,42.484365 76.225707,42.986282 86.750000,44.570372 L 91.000000,45.210071 L 91.000000,40.792127 C 91.000000,37.255096 91.548335,35.867621 93.750000,33.833684 C 97.320757,30.534955 99.511541,29.817738 103.647114,30.593577 C 107.870918,31.385967 111.101784,35.685654 111.723185,41.341338 C 112.123601,44.985727 111.797980,45.863210 109.090053,48.437091 C 105.800405,51.563897 105.075217,54.707897 107.434794,55.613352 C 108.223930,55.916172 110.804167,59.389548 113.168654,63.331967 C 115.533140,67.274385 117.812483,70.650000 118.233860,70.833333 C 118.655237,71.016667 119.000000,72.002609 119.000000,73.024316 C 119.000000,74.046024 119.450000,75.160081 120.000000,75.500000 C 120.550000,75.839919 121.000000,77.040986 121.000000,78.169040 C 121.000000,83.256421 135.975332,107.000000 139.183999,107.000000 C 139.632800,107.000000 140.900000,107.900000 142.000000,109.000000 C 143.100000,110.100000 144.675000,111.000000 145.500000,111.000000 C 146.325000,111.000000 147.000000,111.450000 147.000000,112.000000 C 147.000000,112.550000 148.410291,113.000000 150.133980,113.000000 C 153.637912,113.000000 160.991098,114.891776 162.450000,116.168578 C 162.972500,116.625860 164.413044,117.000000 165.651210,117.000000 C 166.889375,117.000000 170.511875,117.700954 173.701210,118.557676 C 176.890544,119.414397 182.736275,120.964280 186.691723,122.001859 C 190.647171,123.039439 195.237324,124.588485 196.892063,125.444184 C 198.546803,126.299883 200.364289,127.000000 200.930923,127.000000 C 204.343904,127.000000 217.000000,137.420407 217.000000,140.230488 C 217.000000,140.758912 217.930704,142.498312 219.068231,144.095821 C 222.199463,148.493232 221.686023,162.417063 218.117286,169.884215 C 215.515740,175.327636 206.025606,185.691240 201.797736,187.705813 C 190.527927,193.075859 189.883610,193.222530 179.286428,192.830252 L 169.000000,192.449477 L 169.000000,195.746179 C 169.000000,199.750293 164.709856,206.575461 161.682640,207.387329 C 157.212113,208.586279 153.280461,207.973691 150.585945,205.658363" fill="none" stroke="black" stroke-width="5"/>
</svg>
