<?xml version="1.0" encoding="utf-8" ?>
<svg baseProfile="full" height="221" version="1.1" width="256" xmlns="http://www.w3.org/2000/svg" xmlns:ev="http://www.w3.org/2001/xml-events" xmlns:xlink="http://www.w3.org/1999/xlink"><defs /><rect fill="white" height="221" width="256" x="0" y="0" /><path d="M 162,187 L 160,187 L 157,191 L 153,193 L 152,198 L 154,201 L 157,202 L 160,201 L 162,198 L 163,192 L 165,189 Z" fill="none" stroke="black" stroke-width="5" /><path d="M 39,66 L 50,100 L 128,130 L 163,181 L 192,184 L 211,168 L 206,137 L 139,115 L 94,53 Z" fill="none" stroke="black" stroke-width="5" /><path d="M 102,36 L 99,36 L 97,38 L 95,47 L 100,50 L 105,43 L 105,39 Z" fill="none" stroke="black" stroke-width="5" /></svg>