<?xml version="1.0" encoding="utf-8" ?>
<svg xmlns="http://www.w3.org/2000/svg" xmlns:ev="http://www.w3.org/2001/xml-events" xmlns:xlink="http://www.w3.org/1999/xlink" baseProfile="full" height="223" version="1.1" width="260">
  <defs/>
  <path d="M 104.000000,210.033336 C 101.525000,209.568452 97.925000,208.726152 96.000000,208.161557 C 94.075000,207.596963 91.375000,206.814648 90.000000,206.423079 C 88.625000,206.031510 87.050000,205.391542 86.500000,205.000927 C 85.950000,204.610312 83.362500,203.677065 80.750000,202.927044 C 78.137500,202.177023 76.000000,201.211611 76.000000,200.781685 C 76.000000,200.351758 75.418752,200.000000 74.708338,200.000000 C 72.980684,200.000000 66.000000,193.348398 66.000000,191.702188 C 66.000000,190.985985 65.453571,189.853571 64.785714,189.185714 C 62.735074,187.135074 63.334526,177.954014 65.877018,172.471589 C 68.295210,167.257192 74.546305,160.000000 76.619614,160.000000 C 77.287160,160.000000 77.983333,159.662500 78.166667,159.250000 C 78.774584,157.882186 87.446218,153.963598 90.788449,153.546396 C 92.597096,153.320627 95.072096,152.211470 96.288449,151.081603 C 97.504802,149.951736 100.425679,147.658787 102.779286,145.986162 C 105.233274,144.242200 107.737969,141.357214 108.651370,139.222513 C 109.527409,137.175131 110.639230,134.718606 111.122084,133.763569 C 115.102038,125.891615 106.323082,117.739356 84.500000,109.041935 C 70.919507,103.629535 60.726320,95.746710 55.997835,87.000000 C 53.936618,83.187180 53.564072,81.125640 53.558213,73.500000 C 53.551599,64.891001 53.699260,64.285218 56.957047,59.556173 C 58.830208,56.837068 61.782225,53.233891 63.517084,51.549114 C 65.251942,49.864337 66.857814,48.039059 67.085686,47.492941 C 67.675048,46.080481 75.672875,40.000000 76.941362,40.000000 C 77.523613,40.000000 78.000000,39.601274 78.000000,39.113941 C 78.000000,38.626609 79.462500,37.478944 81.250000,36.563575 C 83.037500,35.648206 86.525000,33.579223 89.000000,31.965837 C 91.475000,30.352450 94.175000,28.767265 95.000000,28.443205 C 95.825000,28.119145 97.281394,27.436853 98.236431,26.927002 C 99.191468,26.417151 101.291468,26.000000 102.903098,26.000000 C 104.514727,26.000000 105.996367,25.510898 106.195631,24.913107 C 106.394895,24.315315 109.469895,23.610970 113.028964,23.347894 C 116.588034,23.084819 125.800000,22.206970 133.500000,21.397119 C 149.056786,19.760928 177.474688,20.080754 185.000000,21.976720 C 187.475000,22.600284 190.850000,23.427798 192.500000,23.815639 C 197.532728,24.998609 204.016662,28.942464 205.200511,31.540728 C 205.816796,32.893328 206.698798,34.000000 207.160515,34.000000 C 207.622232,34.000000 208.000000,34.915832 208.000000,36.035183 C 208.000000,37.154534 208.752245,39.218438 209.671656,40.621635 C 212.908157,45.561161 214.888610,61.963943 213.030080,68.437250 C 212.388537,70.671763 210.544319,75.217790 208.931819,78.539534 C 205.427114,85.759212 205.316149,87.214884 208.171557,88.512872 C 211.922839,90.218098 214.346989,94.511998 214.166005,99.130842 C 213.918517,105.446904 208.728778,110.000000 201.777053,110.000000 C 199.143539,110.000000 197.738560,109.170743 195.000000,106.000000 C 192.517580,103.125819 190.764851,102.000000 188.772607,102.000000 C 187.247673,102.000000 186.000000,102.450000 186.000000,103.000000 C 186.000000,103.550000 185.394744,104.000000 184.654988,104.000000 C 183.915231,104.000000 182.495486,104.900000 181.500000,106.000000 C 180.504514,107.100000 179.259720,108.000000 178.733793,108.000000 C 178.207865,108.000000 175.577610,109.841903 172.888780,112.093118 C 168.797914,115.518185 168.000000,116.741262 168.000000,119.586846 C 168.000000,122.418648 168.686038,123.484418 172.101471,125.958546 C 174.357280,127.592645 177.169780,129.198751 178.351471,129.527669 C 179.533162,129.856587 181.400000,130.500962 182.500000,130.959613 C 187.222039,132.928494 196.817501,135.995756 198.102671,135.947124 C 198.871202,135.918043 200.675421,133.555543 202.112047,130.697124 C 204.604728,125.737499 204.958259,125.459404 209.848262,124.611653 C 214.397772,123.822930 215.351060,123.982746 218.348630,126.036714 C 221.763657,128.376728 224.000000,132.705829 224.000000,136.976607 C 224.000000,140.137521 219.662156,145.616993 216.539323,146.400774 C 214.002929,147.037369 213.145871,149.632873 214.839003,151.550000 C 215.300455,152.072500 216.282474,155.129799 217.021268,158.343997 C 218.095648,163.018198 218.123016,165.090985 217.157992,168.699101 C 215.186374,176.070760 208.536081,184.431731 202.432218,187.212837 C 201.094498,187.822343 200.000000,188.633628 200.000000,189.015693 C 200.000000,189.397757 196.062500,191.677135 191.250000,194.080977 C 186.437500,196.484819 182.275000,198.702647 182.000000,199.009483 C 180.869971,200.270331 156.767636,207.353763 149.500000,208.560903 C 138.831697,210.332886 110.479520,211.250396 104.000000,210.033336" fill="none" stroke="black" stroke-width="5"/>
</svg>
