<?xml version="1.0" encoding="utf-8" ?>
<svg xmlns="http://www.w3.org/2000/svg" xmlns:ev="http://www.w3.org/2001/xml-events" xmlns:xlink="http://www.w3.org/1999/xlink" baseProfile="full" height="220" version="1.1" width="256">
  <defs/>
  <path d="M 127.000000,218.417937 C 122.812259,217.663375 116.555776,215.700743 115.550000,214.826120 C 115.027500,214.371754 113.861875,214.000000 112.959722,214.000000 C 110.623218,214.000000 100.036302,208.517968 96.594461,205.525873 C 94.996414,204.136643 93.402667,203.000000 93.052799,203.000000 C 91.994331,203.000000 85.565150,196.611115 82.437337,192.451073 C 80.821802,190.302385 78.253006,187.220209 76.728903,185.601794 C 72.187730,180.779611 66.881975,168.789959 66.261601,161.948363 C 65.131355,149.483812 71.847240,135.925295 83.500000,127.146226 C 85.411102,125.706421 91.525981,122.843481 95.938867,121.322441 C 100.853880,119.628328 108.559984,120.149132 112.948618,122.472016 C 114.351878,123.214755 116.962500,124.366993 118.750000,125.032546 C 120.537500,125.698098 122.000000,126.638047 122.000000,127.121320 C 122.000000,127.604594 122.654333,128.000000 123.454074,128.000000 C 124.253815,128.000000 127.913285,130.946543 131.586230,134.547873 C 135.259176,138.149203 138.963915,140.961015 139.818985,140.796344 C 140.674055,140.631672 141.751844,139.037470 142.214073,137.253673 C 143.405348,132.656392 146.946278,130.621125 152.637290,131.262585 C 159.120951,131.993388 162.500000,135.521096 162.500000,141.559202 C 162.500000,144.041763 162.050000,146.394035 161.500000,146.786475 C 160.950000,147.178914 160.004043,148.400000 159.397872,149.500000 C 158.791702,150.600000 157.301685,151.647404 156.086724,151.827564 C 150.502896,152.655560 154.238459,158.510015 162.000000,161.094979 C 163.925000,161.736096 166.001795,162.656720 166.615099,163.140810 C 167.228404,163.624900 170.041884,164.215303 172.867276,164.452815 C 175.692669,164.690328 178.444821,165.156880 178.983170,165.489598 C 180.527954,166.444327 193.305128,161.864922 195.311636,159.637391 C 198.815721,155.747321 203.767220,146.257774 204.305811,142.400056 C 207.445390,119.912487 207.402373,114.727965 203.920816,96.000000 C 203.358464,92.975000 202.648692,88.809679 202.343546,86.743732 C 202.038399,84.677785 201.386269,82.738727 200.894367,82.434715 C 200.402465,82.130703 200.000000,81.211786 200.000000,80.392677 C 200.000000,79.573568 199.100000,77.040602 198.000000,74.763864 C 196.900000,72.487127 196.000000,70.139718 196.000000,69.547401 C 196.000000,67.972452 187.507524,60.000000 185.829844,60.000000 C 185.043430,60.000000 183.972500,59.611182 183.450000,59.135960 C 182.927500,58.660739 180.283551,57.734380 177.574558,57.077386 C 173.682445,56.133457 171.741850,56.150734 168.324558,57.159740 C 165.946051,57.862030 164.000000,58.788389 164.000000,59.218315 C 164.000000,59.648242 163.212500,60.007822 162.250000,60.017382 C 161.287500,60.026943 157.350000,62.802639 153.500000,66.185597 C 146.807921,72.065862 144.864262,74.852210 147.912291,74.195903 C 152.736353,73.157177 158.063998,79.011392 157.926912,85.200340 C 157.756828,92.878970 152.120061,97.590428 144.475060,96.443989 C 139.417002,95.685487 136.000000,92.117976 136.000000,87.595630 C 136.000000,85.539372 135.512706,85.000000 133.654988,85.000000 C 132.365231,85.000000 130.479080,85.918129 129.463541,87.040287 C 127.397124,89.323652 117.850985,94.108319 111.000000,96.294490 C 100.090087,99.775878 95.574247,100.291792 85.960772,99.155110 C 80.842479,98.549931 76.192458,97.592458 75.627393,97.027393 C 75.062327,96.462327 73.877938,96.000000 72.995417,96.000000 C 70.375870,96.000000 64.601303,89.922629 61.187036,83.572418 C 58.758786,79.056107 58.000000,76.391698 58.000000,72.381435 C 58.000000,69.486565 57.511922,66.816385 56.915382,66.447703 C 55.750734,65.727911 55.876569,52.985963 57.082751,49.500000 C 57.463363,48.400000 58.335710,45.025000 59.021298,42.000000 C 60.272472,36.479488 63.248741,29.650564 65.365883,27.442617 C 65.989647,26.792100 68.975000,23.452691 72.000000,20.021710 C 76.035052,15.445119 79.171384,13.013324 83.775042,10.891781 C 87.226315,9.301301 90.448236,8.000000 90.934865,8.000000 C 91.421494,8.000000 95.950805,6.650000 101.000000,5.000000 C 106.556442,3.184239 112.292566,2.000000 115.531160,2.000000 C 118.474103,2.000000 121.177747,1.521416 121.539257,0.936481 C 122.142761,-0.040009 125.685392,0.039220 143.000000,1.416441 C 150.561669,2.017903 157.655161,3.285812 160.872124,4.610949 C 162.726792,5.374927 165.201792,6.006549 166.372124,6.014553 C 171.956518,6.052747 190.082455,14.532772 196.133985,19.938320 C 207.277241,29.892069 209.708723,32.988028 215.181980,44.191758 C 221.192942,56.496170 224.951181,67.763066 227.459911,81.000000 C 228.842864,88.296946 228.927200,92.330715 228.055777,109.500000 C 226.694776,136.315210 226.405744,138.312132 222.883329,145.236431 C 222.397498,146.191468 221.998039,147.991468 221.995642,149.236431 C 221.990581,151.864863 218.145261,163.126346 215.759405,167.500000 C 214.859320,169.150000 213.107803,172.525000 211.867146,175.000000 C 210.626489,177.475000 209.357031,179.725000 209.046130,180.000000 C 208.735228,180.275000 207.585162,182.215771 206.490427,184.312824 C 205.395692,186.409877 202.700000,189.866671 200.500000,191.994588 C 198.300000,194.122506 194.733410,197.694235 192.574245,199.931764 C 190.415080,202.169294 188.052580,204.000000 187.324245,204.000000 C 186.595910,204.000000 186.000000,204.450000 186.000000,205.000000 C 186.000000,205.550000 185.169744,206.000000 184.154988,206.000000 C 183.140231,206.000000 181.495486,206.900000 180.500000,208.000000 C 179.504514,209.100000 178.266736,210.000000 177.749383,210.000000 C 177.232030,210.000000 175.614274,210.823201 174.154370,211.829335 C 167.321577,216.538350 161.114161,217.940179 145.000000,218.413304 C 136.475000,218.663605 128.375000,218.665690 127.000000,218.417937" fill="none" stroke="black" stroke-width="5"/>
</svg>
