<?xml version="1.0" encoding="utf-8" ?>
<svg xmlns="http://www.w3.org/2000/svg" xmlns:ev="http://www.w3.org/2001/xml-events" xmlns:xlink="http://www.w3.org/1999/xlink" baseProfile="full" height="220" version="1.1" width="256">
  <defs/>
  <path d="M 67.000000,206.885825 C 63.975000,206.354594 58.213550,204.925462 54.196778,203.709975 C 48.040908,201.847192 46.154648,200.714490 42.190188,196.500000 C 37.876534,191.914294 34.700853,187.570554 30.858233,181.000000 C 29.467534,178.622023 28.595584,175.952906 26.031782,166.225805 C 24.614554,160.848822 24.500189,143.181716 25.854244,138.799549 C 28.673952,129.674043 30.000000,124.594571 30.000000,122.919092 C 30.000000,121.900911 30.637459,119.590087 31.416575,117.783927 C 32.195692,115.977767 33.594768,112.700000 34.525634,110.500000 C 36.196447,106.551214 37.459812,103.940398 40.609946,97.926425 C 41.495416,96.235959 42.845416,94.612814 43.609946,94.319436 C 44.374476,94.026059 45.000000,93.204167 45.000000,92.493011 C 45.000000,90.754440 51.839527,84.000000 53.600000,84.000000 C 54.370000,84.000000 55.000000,83.626922 55.000000,83.170937 C 55.000000,82.714953 57.250000,81.288031 60.000000,80.000000 C 65.456187,77.444458 66.255497,75.446184 63.000000,72.500000 C 60.365256,70.115589 60.214985,61.960479 62.750000,58.932674 C 65.188627,56.019994 69.352149,54.000000 72.917007,54.000000 C 77.401866,54.000000 83.000000,59.906482 83.000000,64.638369 C 83.000000,68.685583 81.414072,68.533816 98.000000,66.073803 C 129.020924,61.472800 169.881952,63.257667 211.355643,71.025335 C 214.576247,71.628527 217.381051,71.952282 217.588541,71.744792 C 217.796032,71.537302 217.572002,69.994455 217.090698,68.316245 C 216.470668,66.154327 216.641775,64.384996 217.677736,62.245970 C 222.104697,53.105296 229.583295,51.442949 236.012510,58.170506 C 240.162122,62.512677 239.899509,68.243348 235.342064,72.800793 C 233.106054,75.036803 233.810724,77.500089 237.750000,81.218111 C 244.841193,87.911020 245.828785,89.488366 247.522956,96.827117 C 250.364444,109.135782 251.680293,132.653041 249.641575,134.691758 C 249.288709,135.044624 249.000000,136.913884 249.000000,138.845669 C 249.000000,142.293274 247.611035,147.804539 245.877244,151.236431 C 245.394760,152.191468 245.000000,153.756751 245.000000,154.714838 C 245.000000,156.989591 238.890981,170.000000 237.822874,170.000000 C 237.370293,170.000000 237.000000,170.571299 237.000000,171.269554 C 237.000000,174.406653 221.043302,190.656256 215.468476,193.196317 C 214.110814,193.814909 213.000000,194.646314 213.000000,195.043884 C 213.000000,196.096877 209.537109,197.077216 200.500000,198.582615 C 188.908901,200.513457 184.764545,200.322812 178.779635,197.583453 C 168.206113,192.743836 162.973908,185.336987 163.035622,175.295806 C 163.096131,165.450583 167.652822,150.192874 171.481546,147.015316 C 172.316696,146.322203 173.000000,144.979955 173.000000,144.032543 C 173.000000,143.085131 173.855438,141.535815 174.900972,140.589619 C 175.946507,139.643423 177.110086,137.226728 177.486703,135.219186 C 177.863320,133.211644 178.855171,130.246961 179.690816,128.631002 C 180.526461,127.015043 181.412589,122.274493 181.659989,118.096447 C 182.142097,109.954690 181.100569,106.575149 177.500000,104.598156 C 176.400000,103.994170 175.275000,103.248311 175.000000,102.940690 C 174.725000,102.633070 172.363443,101.202776 169.752095,99.762258 C 164.065916,96.625547 156.328325,94.287065 149.500000,93.641598 C 146.750000,93.381647 141.884760,92.840726 138.688355,92.439553 C 132.918875,91.715439 122.514390,93.358682 121.394381,95.170894 C 121.112553,95.626902 119.692893,96.000000 118.239582,96.000000 C 116.786271,96.000000 113.221470,97.439843 110.317801,99.199650 C 103.438100,103.369185 101.719262,106.892570 102.498047,115.229089 C 103.095225,121.621608 104.595619,124.156321 110.863173,129.360845 C 112.162918,130.440142 115.312918,133.262740 117.863173,135.633284 C 120.413428,138.003828 123.062500,139.956107 123.750000,139.971682 C 124.437500,139.987257 125.000000,140.360264 125.000000,140.800587 C 125.000000,141.240909 127.051508,142.897920 129.558907,144.482831 C 132.656345,146.440704 135.259245,149.309656 137.678396,153.432245 C 141.001086,159.094597 141.247698,160.101315 141.369489,168.500000 C 141.505596,177.885914 140.168373,182.564090 136.308302,186.206191 C 135.313736,187.144596 132.925000,189.534243 131.000000,191.516518 C 125.834165,196.836053 116.123967,201.464964 102.000000,205.340998 C 95.071130,207.242484 74.261208,208.160991 67.000000,206.885825" fill="none" stroke="black" stroke-width="5"/>
</svg>
