<?xml version="1.0" encoding="utf-8" ?>
<svg xmlns="http://www.w3.org/2000/svg" xmlns:ev="http://www.w3.org/2001/xml-events" xmlns:xlink="http://www.w3.org/1999/xlink" baseProfile="full" height="220" version="1.1" width="260">
  <defs/>
  <path d="M 97.170315,207.395886 C 83.787923,204.709429 75.349496,196.941957 65.974322,178.680345 C 63.550103,173.958285 57.853261,167.977188 51.039193,163.000000 C 45.702505,159.101932 35.598267,149.980959 34.589806,148.151338 C 34.089199,147.243102 32.514199,145.355306 31.089806,143.956235 C 27.395437,140.327545 22.839016,134.155077 20.419549,129.501509 C 17.620074,124.117042 15.572974,114.851911 16.409050,111.350074 C 16.783306,109.782533 17.522871,106.700000 18.052529,104.500000 C 20.637601,93.762586 20.671909,94.000000 16.535213,94.000000 C 8.952845,94.000000 3.003801,86.455817 5.367403,79.837724 C 7.449908,74.006708 8.977850,72.000000 11.335184,72.000000 C 12.580833,72.000000 14.114964,71.485036 14.744365,70.855635 C 15.603519,69.996481 16.712598,70.047173 19.194365,71.059028 C 22.983446,72.603894 24.521359,74.200232 26.537975,78.681619 C 27.325422,80.431509 28.352865,82.100049 28.821181,82.389484 C 29.289497,82.678919 31.310261,81.371102 33.311767,79.483223 C 41.338945,71.911757 52.336883,65.108223 59.959798,62.998244 C 63.616695,61.986036 74.000000,63.634577 74.000000,65.227385 C 74.000000,65.652323 75.055234,66.000000 76.344964,66.000000 C 79.149168,66.000000 90.395534,73.059233 92.203500,75.954247 C 92.906176,77.079411 93.941041,78.000000 94.503198,78.000000 C 95.065356,78.000000 96.395974,79.159397 97.460127,80.576438 C 100.303096,84.362175 104.742045,86.278988 111.428875,86.608379 C 117.013621,86.883481 117.536007,86.709001 120.428875,83.602325 C 124.251159,79.497542 127.818739,68.173500 130.516339,51.583180 C 132.077697,41.980786 142.578896,21.124848 148.500000,15.866678 C 154.271544,10.741324 156.881931,8.898635 159.000000,8.454663 C 160.375000,8.166447 162.881949,7.496241 164.570998,6.965317 C 168.611477,5.695260 174.995843,5.741744 180.807180,7.083531 C 189.113793,9.001456 198.408994,13.433199 200.979718,16.701345 C 201.974185,17.965605 203.286865,19.000000 203.896784,19.000000 C 204.506702,19.000000 208.266938,22.479294 212.252863,26.731764 C 216.238789,30.984234 220.850000,35.830881 222.500000,37.502090 C 224.150000,39.173300 226.794070,42.106507 228.375711,44.020327 C 229.957352,45.934147 233.878914,50.304009 237.090294,53.731131 C 244.241969,61.363258 245.569498,63.350430 248.049894,70.136503 C 251.844908,80.519220 249.867699,87.558243 241.014727,95.182256 L 236.000982,99.500000 L 236.000491,107.299660 C 236.000177,112.289455 235.457505,116.148389 234.494137,118.011338 C 233.096549,120.713974 233.127774,120.998015 234.928395,121.961678 C 235.995462,122.532755 237.973248,123.000000 239.323475,123.000000 C 242.955301,123.000000 245.791216,125.921932 247.120174,131.033183 C 248.213902,135.239726 248.114008,135.859143 245.733832,139.629587 C 243.697149,142.855900 242.211474,143.960851 238.520818,144.994171 C 234.274151,146.183165 233.640836,146.123727 231.186401,144.305820 C 229.708881,143.211477 227.456543,140.782497 226.181207,138.908087 C 224.067780,135.801904 223.924894,134.609985 225.113312,130.000000 C 225.410038,128.848972 224.376845,128.428353 220.672306,128.192036 C 218.017074,128.022655 215.260727,128.368653 214.547090,128.960918 C 213.689966,129.672269 205.485548,129.980176 190.374785,129.868092 C 170.903097,129.723661 166.904917,129.949346 163.500000,131.385090 C 161.300000,132.312760 158.712500,133.333099 157.750000,133.652512 C 156.787500,133.971925 156.000000,134.630779 156.000000,135.116631 C 156.000000,135.602484 155.384799,136.000000 154.632886,136.000000 C 153.070379,136.000000 148.000000,143.209729 148.000000,145.431507 C 148.000000,146.242420 147.594068,147.939568 147.097930,149.202947 C 146.601791,150.466326 145.661254,155.325000 145.007848,160.000000 C 144.354442,164.675000 142.960374,170.407596 141.909919,172.739102 C 140.859463,175.070607 140.000000,177.869649 140.000000,178.959193 C 140.000000,182.637576 133.908396,192.960641 128.487266,198.469110 C 119.443210,207.658876 110.780657,210.128103 97.170315,207.395886" fill="none" stroke="black" stroke-width="5"/>
</svg>
