<?xml version="1.0" encoding="utf-8" ?>
<svg xmlns="http://www.w3.org/2000/svg" xmlns:ev="http://www.w3.org/2001/xml-events" xmlns:xlink="http://www.w3.org/1999/xlink" baseProfile="full" height="223" version="1.1" width="258">
  <defs/>
  <path d="M 182.878481,173.903735 C 182.120316,173.423525 180.262500,173.023735 178.750000,173.015313 C 177.237500,173.006891 176.000000,172.550000 176.000000,172.000000 C 176.000000,171.450000 175.318894,171.000000 174.486431,171.000000 C 173.653968,171.000000 172.191468,170.602502 171.236431,170.116671 C 170.281394,169.630841 168.194039,168.618341 166.597865,167.866671 C 163.508985,166.412058 153.000000,156.998026 153.000000,155.685596 C 153.000000,155.255994 151.941488,153.913489 150.647752,152.702251 C 149.354016,151.491013 147.744117,148.812500 147.070200,146.750000 C 146.396283,144.687500 145.522619,143.000000 145.128724,143.000000 C 143.928545,143.000000 141.878556,131.869892 141.905502,125.500000 C 141.971385,109.925874 146.300258,99.624119 157.464598,88.472811 C 164.227109,81.718195 171.821042,77.000000 175.930085,77.000000 C 177.003619,77.000000 178.160081,76.550000 178.500000,76.000000 C 178.839919,75.450000 180.727093,75.000000 182.693720,75.000000 C 184.660347,75.000000 189.072385,74.483531 192.498248,73.852291 C 198.399387,72.764963 199.245210,72.873880 208.575257,75.922532 C 226.675803,81.837002 236.536419,92.233206 242.861435,112.070998 C 244.349104,116.736926 244.245461,132.272342 242.688453,138.000000 C 240.713979,145.263357 233.563287,156.337770 227.258756,161.896263 C 221.101278,167.325106 213.128407,171.726447 206.551805,173.327324 C 201.248398,174.618279 184.644886,175.022551 182.878481,173.903735" fill="none" stroke="black" stroke-width="5"/>
  <path d="M 75.000000,55.347931 C 69.103598,53.405366 66.143175,50.823623 63.355217,45.192679 C 61.929003,42.312102 61.889929,41.363548 63.052389,37.841258 C 66.767566,26.584162 79.214099,23.215800 87.686010,31.174747 C 91.120573,34.401352 91.778502,42.553686 89.037888,47.925734 C 86.296107,53.300067 79.573287,56.854597 75.000000,55.347931" fill="none" stroke="black" stroke-width="5"/>
</svg>
