<?xml version="1.0" encoding="utf-8" ?>
<svg xmlns="http://www.w3.org/2000/svg" xmlns:ev="http://www.w3.org/2001/xml-events" xmlns:xlink="http://www.w3.org/1999/xlink" baseProfile="full" height="218" version="1.1" width="262">
  <defs/>
  <path d="M 77.500000,195.504948 C 76.950000,195.319511 72.651596,194.005668 67.947990,192.585296 C 63.244385,191.164925 57.394385,188.717850 54.947990,187.147353 C 50.004617,183.973886 43.258235,176.969468 41.081020,172.750000 C 40.300581,171.237500 39.288081,170.000000 38.831020,170.000000 C 38.373959,170.000000 38.000000,169.100000 38.000000,168.000000 C 38.000000,166.900000 37.550000,166.000000 37.000000,166.000000 C 36.450000,166.000000 36.000000,164.965000 36.000000,163.700000 C 36.000000,162.435000 35.604884,160.972500 35.121966,160.450000 C 34.639047,159.927500 33.751740,156.079462 33.150173,151.898805 C 31.871824,143.014779 32.878911,134.799390 36.079817,128.000000 C 40.511330,118.586546 42.483737,115.000000 43.229114,115.000000 C 43.653101,115.000000 44.000000,114.529545 44.000000,113.954545 C 44.000000,111.965101 58.127931,100.000000 60.476990,100.000000 C 61.145644,100.000000 62.999361,99.353752 64.596362,98.563894 C 66.193363,97.774036 71.550000,96.430112 76.500000,95.577395 C 85.041808,94.105932 85.932737,94.128572 94.000000,96.022103 C 102.449448,98.005339 106.090279,99.388992 108.986008,101.717350 C 109.818704,102.386893 112.375674,104.186893 114.668164,105.717350 C 120.472191,109.592096 126.303460,117.320204 129.217951,125.000000 C 133.420781,136.074623 133.894121,139.552340 132.579326,149.696642 C 130.663418,164.478820 123.676445,176.471048 111.428077,186.000000 C 102.731422,192.765800 84.513412,197.869573 77.500000,195.504948" fill="none" stroke="black" stroke-width="5"/>
  <path d="M 198.000000,118.320172 C 192.049407,117.473311 184.000000,115.536146 184.000000,114.950941 C 184.000000,114.600863 181.882685,113.231187 179.294857,111.907218 C 173.292362,108.836257 163.761274,99.468826 161.488809,94.406916 C 160.524138,92.258112 158.878232,88.636783 157.831241,86.359518 C 155.500828,81.290736 154.025143,66.165393 155.313418,60.552554 C 155.825002,58.323649 157.651268,52.917607 159.371786,48.539126 C 161.969593,41.928064 163.639656,39.440081 169.221421,33.865584 C 172.918203,30.173617 176.855703,26.863186 177.971421,26.509071 C 179.087140,26.154955 180.000000,25.445549 180.000000,24.932612 C 180.000000,24.419676 180.900000,24.000000 182.000000,24.000000 C 183.100000,24.000000 184.000000,23.550000 184.000000,23.000000 C 184.000000,22.450000 184.906106,22.000000 186.013569,22.000000 C 187.121032,22.000000 188.808532,21.603158 189.763569,21.118129 C 195.194324,18.360044 212.168359,16.845360 213.500000,19.000000 C 213.839919,19.550000 215.072027,20.000000 216.238019,20.000000 C 218.635464,20.000000 224.501207,21.718846 227.500000,23.300113 C 228.600000,23.880144 230.473225,24.864872 231.662723,25.488396 C 234.812427,27.139445 238.462195,30.535455 244.930774,37.833957 C 250.901142,44.570327 254.938287,57.096965 254.976143,69.003182 C 255.004044,77.778237 252.458743,87.650113 248.362179,94.655255 C 245.628426,99.329984 236.582262,109.000000 234.942873,109.000000 C 234.502864,109.000000 233.548214,109.562500 232.821429,110.250000 C 231.528680,111.472870 227.746358,113.402790 223.250000,115.133796 C 222.012500,115.610208 219.987500,116.414650 218.750000,116.921445 C 216.292794,117.927747 202.008437,118.890634 198.000000,118.320172" fill="none" stroke="black" stroke-width="5"/>
</svg>
