<?xml version="1.0" encoding="utf-8" ?>
<svg xmlns="http://www.w3.org/2000/svg" xmlns:ev="http://www.w3.org/2001/xml-events" xmlns:xlink="http://www.w3.org/1999/xlink" baseProfile="full" height="214" version="1.1" width="260">
  <defs/>
  <path d="M 12.266501,202.861184 C 12.564691,201.562533 13.788826,197.350000 14.986800,193.500000 C 17.562151,185.223445 18.220689,182.920408 20.848629,173.000000 C 21.941352,168.875000 23.794584,162.125000 24.966922,158.000000 C 28.279766,146.343398 31.116036,135.745481 31.657552,133.000000 C 31.928756,131.625000 32.536210,129.600000 33.007450,128.500000 C 33.478690,127.400000 34.605609,123.575000 35.511714,120.000000 C 36.417819,116.425000 37.603282,111.925000 38.146077,110.000000 C 38.688872,108.075000 39.523137,104.925000 40.000000,103.000000 C 40.476863,101.075000 41.321570,97.925000 41.877127,96.000000 C 42.432685,94.075000 43.336776,90.925000 43.886219,89.000000 C 44.435662,87.075000 45.863234,82.125000 47.058601,78.000000 C 48.253968,73.875000 49.461116,69.226765 49.741152,67.670589 C 50.793180,61.824414 51.897556,62.460150 69.422177,79.000000 C 73.792776,83.125000 81.242380,90.325000 85.976853,95.000000 C 90.711326,99.675000 98.390864,106.868057 103.042493,110.984570 C 107.694122,115.101084 113.075000,120.083106 115.000000,122.055732 C 116.925000,124.028357 122.306513,128.985301 126.958919,133.071162 C 131.611324,137.157023 137.688733,142.750000 140.464273,145.500000 C 143.239812,148.250000 150.120799,154.734922 155.755354,159.910939 C 161.389909,165.086955 166.000000,169.762346 166.000000,170.300696 C 166.000000,171.777249 162.762153,173.932967 160.500000,173.962529 C 158.589146,173.987500 142.371475,177.199362 135.000000,179.012729 C 130.185710,180.197035 123.539663,181.635223 117.000000,182.907884 C 113.975000,183.496569 102.050000,186.063923 90.500000,188.613113 C 78.950000,191.162304 68.375000,193.446286 67.000000,193.688629 C 65.625000,193.930972 60.900000,194.951735 56.500000,195.956991 C 48.233155,197.845695 42.809188,198.977266 32.500000,200.963973 C 29.200000,201.599924 25.150000,202.507022 23.500000,202.979747 C 21.850000,203.452472 18.525476,204.150449 16.112169,204.530808 C 11.877408,205.198243 11.743251,205.139998 12.266501,202.861184" fill="none" stroke="black" stroke-width="5"/>
  <path d="M 183.000000,122.240409 C 175.646329,121.816200 164.262466,117.848816 162.851924,115.218615 C 162.179011,113.963853 160.924546,113.003172 160.064223,113.083769 C 156.957344,113.374828 155.951032,112.958894 153.813051,110.500000 C 152.617504,109.125000 151.098890,108.000000 150.438353,108.000000 C 149.777817,108.000000 147.952572,106.312500 146.382255,104.250000 C 144.811937,102.187500 142.283527,99.195759 140.763566,97.601686 C 139.243605,96.007613 138.000000,94.132613 138.000000,93.435019 C 138.000000,92.737425 137.662500,92.016667 137.250000,91.833333 C 135.829116,91.201829 132.210788,82.488259 131.090428,77.000000 C 128.211851,62.898840 128.214375,54.692226 131.100885,43.000000 C 132.286199,38.198711 137.787701,26.721864 139.170054,26.166667 C 139.626524,25.983333 140.000000,25.267417 140.000000,24.575741 C 140.000000,21.458986 155.439703,8.127629 162.750000,4.932336 C 164.537500,4.151029 166.000000,3.171627 166.000000,2.755889 C 166.000000,2.340150 166.900000,2.000000 168.000000,2.000000 C 169.100000,2.000000 170.000000,1.550000 170.000000,1.000000 C 170.000000,0.365991 177.471255,0.000000 190.413765,0.000000 L 210.827531,0.000000 L 216.663765,3.004875 C 227.143774,8.400668 240.188253,19.124201 243.027918,24.678173 C 243.821436,26.230178 245.714775,29.574769 247.235339,32.110599 C 248.755903,34.646428 250.000000,37.882370 250.000000,39.301582 C 250.000000,40.720793 250.450000,42.160081 251.000000,42.500000 C 251.550000,42.839919 252.000000,44.366476 252.000000,45.892350 C 252.000000,47.418224 252.310991,48.977658 252.691092,49.357759 C 253.823566,50.490233 254.292462,70.058262 253.242471,72.367959 C 252.709395,73.540581 251.479226,76.975000 250.508761,80.000000 C 249.538296,83.025000 248.126816,86.496668 247.372140,87.714817 C 246.617463,88.932966 245.998944,90.507966 245.997654,91.214817 C 245.996363,91.921668 244.647419,94.075000 243.000000,96.000000 C 241.352581,97.925000 240.003637,99.833586 240.002346,100.241302 C 239.999579,101.115544 233.982627,107.000000 233.091468,107.000000 C 232.754920,107.000000 231.271266,108.120397 229.794458,109.489771 C 224.526008,114.374953 215.463330,119.001089 207.500000,120.870203 C 202.386878,122.070330 191.046278,122.704573 183.000000,122.240409" fill="none" stroke="black" stroke-width="5"/>
</svg>
