<?xml version="1.0" encoding="utf-8" ?>
<svg xmlns="http://www.w3.org/2000/svg" xmlns:ev="http://www.w3.org/2001/xml-events" xmlns:xlink="http://www.w3.org/1999/xlink" baseProfile="full" height="219" version="1.1" width="258">
  <defs/>
  <path d="M 59.903540,214.865774 C 59.193628,213.564598 58.278640,210.025000 57.870233,207.000000 C 57.461826,203.975000 56.668602,199.025000 56.107512,196.000000 C 55.546423,192.975000 54.192720,185.325000 53.099282,179.000000 C 52.005845,172.675000 50.161888,162.325000 49.001600,156.000000 C 47.841311,149.675000 46.500979,141.800000 46.023084,138.500000 C 45.545188,135.200000 44.838464,131.038616 44.452587,129.252481 C 44.027288,127.283870 44.194773,125.470240 44.877879,124.647146 C 45.514064,123.880590 50.031632,122.769031 55.252383,122.094472 C 60.338572,121.437300 66.975000,120.484190 70.000000,119.976450 C 73.025000,119.468710 78.875000,118.557391 83.000000,117.951296 C 87.125000,117.345202 92.300000,116.451175 94.500000,115.964569 C 96.700000,115.477963 101.875000,114.574056 106.000000,113.955885 C 110.125000,113.337714 115.525000,112.434673 118.000000,111.949128 C 120.475000,111.463582 125.034168,110.781209 128.131485,110.432743 L 133.762970,109.799168 L 134.933256,118.649584 C 135.576913,123.517313 136.514380,129.750000 137.016516,132.500000 C 137.518651,135.250000 138.171414,139.300000 138.467099,141.500000 C 139.040104,145.763357 140.427425,154.019467 142.079865,163.000000 C 142.636472,166.025000 143.495267,171.200000 143.988298,174.500000 C 144.481329,177.800000 145.390203,183.425000 146.008019,187.000000 C 146.625834,190.575000 147.375518,195.548961 147.673983,198.053248 L 148.216648,202.606495 L 143.032034,203.803248 C 140.180496,204.461461 136.644250,205.000368 135.173710,205.000818 C 133.703169,205.001268 129.125000,205.716156 125.000000,206.589458 C 120.875000,207.462759 115.025000,208.563562 112.000000,209.035686 C 108.975000,209.507810 101.100000,210.867590 94.500000,212.057420 C 78.888466,214.871825 72.644019,215.885065 66.347144,216.625575 C 61.648981,217.178077 61.080392,217.022790 59.903540,214.865774" fill="none" stroke="black" stroke-width="5"/>
  <path d="M 186.714474,151.907795 C 180.277006,150.392091 167.672489,143.508796 162.886301,138.895289 C 156.075793,132.330500 151.020774,124.508119 148.396396,116.472916 C 144.105088,103.333978 146.441958,84.492598 153.726267,73.500000 C 156.778925,68.893298 168.016631,57.000000 169.316741,57.000000 C 169.797726,57.000000 171.385726,56.163675 172.845630,55.141499 C 179.160025,50.720372 186.500014,49.000000 199.048411,49.000000 C 211.245250,49.000000 214.788394,49.831980 223.000000,54.624171 C 224.375000,55.426604 226.850000,56.788022 228.500000,57.649543 C 230.150000,58.511065 233.750000,61.912508 236.500000,65.208305 C 239.250000,68.504103 242.087469,71.823341 242.805487,72.584390 C 244.944790,74.851905 249.675488,86.111046 250.878888,91.799221 C 252.335417,98.683878 252.247991,104.164640 250.569652,111.185157 C 247.820166,122.686303 242.125630,131.363915 230.316391,142.048069 C 226.803513,145.226270 216.048584,150.354948 209.735649,151.862361 C 204.224203,153.178392 192.211624,153.202100 186.714474,151.907795" fill="none" stroke="black" stroke-width="5"/>
  <path d="M 57.000000,111.029416 C 53.425000,109.958858 49.718606,108.614284 48.763569,108.041473 C 47.808532,107.468663 46.552810,107.000000 45.973076,107.000000 C 43.343062,107.000000 27.000000,92.449712 27.000000,90.108201 C 27.000000,89.577262 26.437500,88.548214 25.750000,87.821429 C 24.573377,86.577570 22.746480,83.041335 20.934346,78.500000 C 20.004798,76.170489 19.189297,71.655916 18.339472,64.134912 C 17.765480,59.055045 19.068094,49.877691 20.984472,45.500000 C 26.051663,33.924728 28.600991,29.624594 32.924336,25.360177 C 39.201657,19.168416 44.185403,15.000000 45.310934,15.000000 C 45.795113,15.000000 47.385726,14.160265 48.845630,13.133923 C 50.305533,12.107580 52.850000,11.011691 54.500000,10.698614 C 56.150000,10.385538 59.750000,9.622140 62.500000,9.002176 C 67.659940,7.838910 81.913799,8.462235 84.893683,9.981457 C 85.777157,10.431875 89.433584,11.976778 93.019076,13.414574 C 103.642068,17.674435 116.374162,31.212157 119.003552,41.043228 C 119.659149,43.494453 120.685719,46.097527 121.284819,46.827839 C 122.555027,48.376242 122.585538,71.967765 121.318536,72.898625 C 120.868341,73.229381 119.407735,76.875000 118.072745,81.000000 C 116.720516,85.178267 114.506027,89.653701 113.072745,91.104893 C 111.657735,92.537584 109.745956,94.725377 108.824347,95.966655 C 106.712100,98.811555 97.796211,105.548320 93.646950,107.434557 C 81.680094,112.874644 67.731209,114.242951 57.000000,111.029416" fill="none" stroke="black" stroke-width="5"/>
</svg>
