<?xml version="1.0" encoding="utf-8" ?>
<svg xmlns="http://www.w3.org/2000/svg" xmlns:ev="http://www.w3.org/2001/xml-events" xmlns:xlink="http://www.w3.org/1999/xlink" baseProfile="full" height="218" version="1.1" width="255">
  <defs/>
  <path d="M 103.762644,143.429311 C 103.448765,143.115431 103.820992,141.652931 104.589817,140.179311 C 105.358641,138.705690 105.990451,136.481394 105.993839,135.236431 C 105.997228,133.991468 106.429943,132.191468 106.955429,131.236431 C 107.480916,130.281394 109.092249,124.775000 110.536169,119.000000 C 113.008825,109.110544 113.909969,105.710667 115.969734,98.500000 C 118.091233,91.073217 119.816174,84.198427 120.436541,80.697443 C 121.313516,75.748312 123.264049,75.129647 126.887492,78.651349 C 132.370649,83.980547 135.701638,86.889193 140.604319,90.628994 C 143.296944,92.682947 146.009645,94.844177 146.632544,95.431727 C 147.255444,96.019277 149.674782,98.051481 152.008852,99.947736 C 154.342921,101.843990 156.758276,103.868990 157.376307,104.447736 C 157.994338,105.026481 160.197811,106.768266 162.272914,108.318369 C 164.348017,109.868472 167.048017,112.119700 168.272914,113.321099 C 169.497811,114.522497 172.525000,117.067604 175.000000,118.976891 C 177.475000,120.886178 179.725000,122.730083 180.000000,123.074457 C 180.275000,123.418831 181.539649,124.248321 182.810330,124.917768 C 184.121545,125.608568 184.981801,126.855983 184.799565,127.802258 C 184.477572,129.474232 182.574626,130.058557 171.000000,132.039601 C 167.975000,132.557342 163.475000,133.393590 161.000000,133.897929 C 155.117432,135.096641 146.306362,136.768552 139.750000,137.930142 C 128.550260,139.914398 117.342826,142.130347 113.883980,143.044406 C 109.861201,144.107493 104.639407,144.306073 103.762644,143.429311" fill="none" stroke="black" stroke-width="5"/>
</svg>
