<?xml version="1.0" encoding="utf-8" ?>
<svg baseProfile="full" height="218" version="1.1" width="259" xmlns="http://www.w3.org/2000/svg" xmlns:ev="http://www.w3.org/2001/xml-events" xmlns:xlink="http://www.w3.org/1999/xlink"><defs /><rect fill="white" height="218" width="259" x="0" y="0" /><path d="M 69,147 L 59,178 L 93,173 Z" fill="none" stroke="black" stroke-width="1" /><circle cx="201.83950805664062" cy="150.9197540283203" fill="none" r="18.20591926574707" stroke="black" stroke-width="1" /><path d="M 65,132 L 107,178 L 49,187 Z" fill="black" stroke="black" stroke-width="1" /><circle cx="201.50747680664062" cy="150.92518615722656" fill="black" r="25.079744338989258" stroke="black" stroke-width="1" /><path d="M 194,37 L 183,68 L 215,65 Z" fill="none" stroke="black" stroke-width="1" /><path d="M 46,34 L 45,68 L 81,68 L 81,34 Z" fill="none" stroke="black" stroke-width="1" /><path d="M 39,26 L 90,26 L 86,78 L 37,77 Z" fill="black" stroke="black" stroke-width="1" /><path d="M 192,22 L 229,72 L 172,77 Z" fill="black" stroke="black" stroke-width="1" /><path d="M 0,0 L 0,217 L 258,217 L 258,0 Z" fill="none" stroke="black" stroke-width="1" /></svg>