<?xml version="1.0" encoding="utf-8" ?>
<svg baseProfile="full" height="225" version="1.1" width="262" xmlns="http://www.w3.org/2000/svg" xmlns:ev="http://www.w3.org/2001/xml-events" xmlns:xlink="http://www.w3.org/1999/xlink"><defs /><rect fill="white" height="225" width="262" x="0" y="0" /><path d="M 182,167 L 182,200 L 222,200 L 222,167 Z" fill="none" stroke="black" stroke-width="1" /><path d="M 174,158 L 229,157 L 230,210 L 175,209 Z" fill="none" stroke="black" stroke-width="1" /><path d="M 60,150 L 47,184 L 77,184 Z" fill="none" stroke="black" stroke-width="1" /><path d="M 58,133 L 90,193 L 39,190 Z" fill="black" stroke="black" stroke-width="1" /><path d="M 184,83 L 205,111 L 221,85 Z" fill="none" stroke="black" stroke-width="1" /><path d="M 236,75 L 211,127 L 170,79 Z" fill="black" stroke="black" stroke-width="1" /><path d="M 78,64 L 77,100 L 111,100 L 111,65 Z" fill="none" stroke="black" stroke-width="1" /><path d="M 70,56 L 118,58 L 119,109 L 69,106 Z" fill="none" stroke="black" stroke-width="1" /><path d="M 154,17 L 138,47 L 174,47 Z" fill="none" stroke="black" stroke-width="1" /><path d="M 153,3 L 185,57 L 127,54 Z" fill="black" stroke="black" stroke-width="1" /><path d="M 0,0 L 0,224 L 261,224 L 261,0 Z" fill="none" stroke="black" stroke-width="1" /></svg>