<?xml version="1.0" encoding="utf-8" ?>
<svg xmlns="http://www.w3.org/2000/svg" xmlns:ev="http://www.w3.org/2001/xml-events" xmlns:xlink="http://www.w3.org/1999/xlink" baseProfile="full" height="220" version="1.1" width="255">
  <defs/>
  <path d="M 14.906241,196.277410 C 13.550418,195.967855 13.214478,193.207881 12.656019,177.790321 C 12.294964,167.822556 12.162707,159.503960 12.362114,159.304552 C 13.057459,158.609208 46.829224,158.505488 47.525075,159.196560 C 48.568236,160.232555 47.695609,194.500836 46.595085,195.717489 C 46.230897,196.120106 16.516839,196.645134 14.906241,196.277410" fill="none" stroke="black" stroke-width="5"/>
  <path d="M 78.200000,154.800000 C 76.330780,152.930780 76.902343,149.896972 80.046298,145.000000 C 81.635298,142.525000 84.126226,138.250000 85.581695,135.500000 C 87.037163,132.750000 88.784845,129.825000 89.465433,129.000000 C 90.146021,128.175000 91.782221,125.475000 93.101433,123.000000 C 94.420645,120.525000 95.777050,118.275000 96.115666,118.000000 C 96.454282,117.725000 97.700928,115.587500 98.885990,113.250000 C 102.295194,106.525444 104.782512,107.253871 110.416011,116.626639 C 112.937205,120.821290 115.000000,124.646290 115.000000,125.126639 C 115.000000,125.606987 115.397736,126.000000 115.883857,126.000000 C 116.369978,126.000000 117.796777,128.587500 119.054521,131.750000 C 120.312266,134.912500 122.111843,138.625000 123.053582,140.000000 C 129.475304,149.376127 130.406684,153.514681 126.434900,155.024751 C 122.564623,156.496228 79.696483,156.296483 78.200000,154.800000" fill="none" stroke="black" stroke-width="5"/>
  <path d="M 177.802097,120.148853 C 176.097906,118.955171 176.042729,118.605547 177.328644,117.148853 C 178.129195,116.241984 180.745248,111.675000 183.142095,107.000000 C 185.538943,102.325000 187.726407,98.275000 188.003126,98.000000 C 188.773925,97.233989 195.000000,86.928053 195.000000,86.418170 C 195.000000,85.129327 202.445288,75.000247 203.391580,75.001690 C 204.593129,75.003522 217.000000,93.171666 217.000000,94.929337 C 217.000000,95.518202 217.338273,96.000000 217.751717,96.000000 C 218.165162,96.000000 219.616650,98.137500 220.977247,100.750000 C 222.337844,103.362500 223.740555,105.725000 224.094384,106.000000 C 225.237895,106.888750 230.000000,116.887216 230.000000,118.399369 C 230.000000,120.924624 226.154541,121.349620 202.615548,121.425870 C 184.916930,121.483201 179.293966,121.193817 177.802097,120.148853" fill="none" stroke="black" stroke-width="5"/>
  <path d="M 138.275048,60.029061 C 129.591803,57.966009 122.768530,49.800116 120.408103,38.646425 C 118.833723,31.207032 119.896470,26.451242 124.451556,20.551981 C 128.706823,15.041015 131.613698,12.617091 138.270039,9.029317 C 143.876130,6.007627 144.217092,5.950876 150.270039,7.031961 C 153.696517,7.643946 157.499082,8.788695 158.720182,9.575846 C 161.735571,11.519641 168.000000,17.855789 168.000000,18.961905 C 168.000000,19.454286 168.592796,20.451786 169.317325,21.178571 C 172.469411,24.340475 174.465956,37.975955 172.000000,39.500000 C 171.450000,39.839919 171.000000,41.189919 171.000000,42.500000 C 171.000000,43.810081 170.550000,45.160081 170.000000,45.500000 C 169.450000,45.839919 169.000000,47.012905 169.000000,48.106636 C 169.000000,51.075834 160.065533,59.536893 156.090774,60.331845 C 151.837773,61.182445 142.458656,61.023044 138.275048,60.029061" fill="none" stroke="black" stroke-width="5"/>
  <path d="M 6.709512,59.376178 C 5.910896,58.577563 9.188881,52.147073 13.446342,46.160399 C 15.269192,43.597180 17.774926,39.475000 19.014641,37.000000 C 20.254356,34.525000 21.598195,32.275000 22.000950,32.000000 C 22.403704,31.725000 24.509475,28.125631 26.680441,24.001403 C 28.891298,19.801394 31.387880,16.356400 32.355861,16.169984 C 33.878295,15.876790 37.524745,19.311373 39.005871,22.433614 C 41.300141,27.269975 58.257687,53.813640 60.565310,56.180625 C 61.466472,57.104969 61.906377,58.342469 61.542876,58.930625 C 60.828099,60.087159 7.850963,60.517630 6.709512,59.376178" fill="none" stroke="black" stroke-width="5"/>
</svg>
