<?xml version="1.0" encoding="utf-8" ?>
<svg xmlns="http://www.w3.org/2000/svg" xmlns:ev="http://www.w3.org/2001/xml-events" xmlns:xlink="http://www.w3.org/1999/xlink" baseProfile="full" height="217" version="1.1" width="257">
  <defs/>
  <path d="M 133.000000,183.077016 C 127.080041,181.720989 124.517674,180.340579 120.174380,176.167545 C 112.787383,169.070120 110.213059,158.902125 113.250000,148.817817 C 115.261439,142.138737 124.090341,133.970091 131.245028,132.168520 C 137.869176,130.500540 142.160598,130.714010 148.317996,133.017788 C 158.036860,136.654081 163.890105,145.818148 164.184209,157.858546 C 164.312398,163.106527 163.877720,165.315874 162.112482,168.388551 C 159.335978,173.221498 153.297963,179.277437 149.082244,181.457470 C 145.260712,183.433661 137.825712,184.182395 133.000000,183.077016" fill="none" stroke="black" stroke-width="5"/>
  <path d="M 29.675386,131.596452 C 29.379160,130.824500 29.391232,129.219932 29.702211,128.030745 C 30.013191,126.841557 29.788556,124.885654 29.203022,123.684293 C 28.617489,122.482932 27.943855,116.262056 27.706059,109.860123 L 27.273701,98.220247 L 37.562041,97.518992 C 43.220628,97.133302 48.746175,97.102051 49.841034,97.449546 C 52.413786,98.266106 53.298048,96.789864 51.614940,94.488076 C 49.830030,92.047067 51.471516,87.797197 54.807288,86.222964 C 59.200266,84.149811 61.672214,88.208912 58.536880,92.347199 C 56.448838,95.103179 57.689770,97.227048 60.967451,96.507149 C 62.636831,96.140492 64.081719,96.409282 64.721674,97.205542 C 66.452223,99.358767 67.900189,129.734446 66.388851,132.179844 C 66.110064,132.630930 57.856669,133.000000 48.047972,133.000000 C 33.662714,133.000000 30.109825,132.728582 29.675386,131.596452" fill="none" stroke="black" stroke-width="5"/>
  <path d="M 196.250000,113.180449 C 194.513245,112.933790 194.000000,112.205899 194.000000,109.989466 C 194.000000,108.410178 194.450000,106.839919 195.000000,106.500000 C 195.550000,106.160081 196.000000,105.214187 196.000000,104.398012 C 196.000000,103.090190 202.342069,92.361686 204.871317,89.390928 C 205.390650,88.780939 206.807842,86.305939 208.020631,83.890928 C 213.195819,73.585646 216.988082,72.493050 221.456677,80.019844 C 223.082849,82.758930 224.740024,85.000000 225.139289,85.000000 C 225.538554,85.000000 226.153731,85.909002 226.506349,87.020004 C 226.858967,88.131006 228.726671,91.108870 230.656802,93.637479 C 232.586933,96.166088 234.967593,99.644586 235.947158,101.367475 C 236.926723,103.090364 238.732381,106.185108 239.959732,108.244684 C 241.694445,111.155648 241.891685,112.100108 240.845640,112.486757 C 239.314945,113.052546 199.689438,113.668927 196.250000,113.180449" fill="none" stroke="black" stroke-width="5"/>
  <path d="M 122.528748,61.046515 C 121.804372,59.874450 121.752290,26.209820 122.473048,25.043609 C 123.320788,23.671938 154.858631,24.637785 156.607199,26.088967 C 157.698508,26.994673 158.000000,30.956630 158.000000,44.391983 L 158.000000,61.539076 L 140.526198,61.716436 C 130.915608,61.813985 122.816755,61.512520 122.528748,61.046515" fill="none" stroke="black" stroke-width="5"/>
</svg>
