<?xml version="1.0" encoding="utf-8" ?>
<svg baseProfile="full" height="217" version="1.1" width="257" xmlns="http://www.w3.org/2000/svg" xmlns:ev="http://www.w3.org/2001/xml-events" xmlns:xlink="http://www.w3.org/1999/xlink"><defs /><rect fill="white" height="217" width="257" x="0" y="0" /><circle cx="137.2816925048828" cy="157.14083862304688" fill="none" r="20.377534866333008" stroke="black" stroke-width="1" /><circle cx="137.8090057373047" cy="156.8430633544922" fill="black" r="27.507015228271484" stroke="black" stroke-width="1" /><path d="M 35,105 L 36,126 L 59,125 L 59,105 Z" fill="none" stroke="black" stroke-width="1" /><path d="M 57,84 L 67,131 L 30,133 L 26,98 L 51,97 Z" fill="black" stroke="black" stroke-width="1" /><path d="M 201,105 L 231,107 L 215,82 Z" fill="none" stroke="black" stroke-width="1" /><path d="M 193,107 L 218,74 L 242,111 L 198,114 Z" fill="black" stroke="black" stroke-width="1" /><path d="M 129,31 L 128,53 L 150,53 L 150,32 Z" fill="none" stroke="black" stroke-width="1" /><path d="M 123,23 L 158,27 L 157,62 L 121,60 Z" fill="black" stroke="black" stroke-width="1" /><path d="M 0,0 L 0,216 L 256,216 L 256,0 Z" fill="none" stroke="black" stroke-width="1" /></svg>