<?xml version="1.0" encoding="utf-8" ?>
<svg baseProfile="full" height="216" version="1.1" width="263" xmlns="http://www.w3.org/2000/svg" xmlns:ev="http://www.w3.org/2001/xml-events" xmlns:xlink="http://www.w3.org/1999/xlink"><defs /><rect fill="white" height="216" width="263" x="0" y="0" /><path d="M 193,139 L 183,145 L 179,159 L 188,173 L 204,177 L 216,167 L 217,150 L 207,140 Z" fill="none" stroke="black" stroke-width="5" /><path d="M 72,138 L 69,141 L 71,161 L 92,161 L 91,139 Z" fill="none" stroke="black" stroke-width="5" /><path d="M 42,35 L 28,61 L 59,61 Z" fill="none" stroke="black" stroke-width="5" /><path d="M 213,33 L 196,56 L 224,56 Z" fill="none" stroke="black" stroke-width="5" /><path d="M 135,26 L 121,32 L 117,51 L 121,59 L 138,65 L 152,57 L 156,42 L 150,31 Z" fill="none" stroke="black" stroke-width="5" /><path d="M 0,0 L 0,215 L 262,215 L 262,0 Z" fill="none" stroke="black" stroke-width="5" /></svg>