<?xml version="1.0" encoding="utf-8" ?>
<svg baseProfile="full" height="219" version="1.1" width="264" xmlns="http://www.w3.org/2000/svg" xmlns:ev="http://www.w3.org/2001/xml-events" xmlns:xlink="http://www.w3.org/1999/xlink"><defs /><rect fill="white" height="219" width="264" x="0" y="0" /><path d="M 70,161 L 60,166 L 54,184 L 60,195 L 76,200 L 91,190 L 93,175 L 87,165 Z" fill="none" stroke="black" stroke-width="5" /><path d="M 207,158 L 198,164 L 194,180 L 203,194 L 217,197 L 231,187 L 233,172 L 223,159 Z" fill="none" stroke="black" stroke-width="5" /><path d="M 116,93 L 100,119 L 130,119 Z" fill="none" stroke="black" stroke-width="5" /><path d="M 198,44 L 184,51 L 180,67 L 186,78 L 201,83 L 215,77 L 219,57 L 208,45 Z" fill="none" stroke="black" stroke-width="5" /><path d="M 76,31 L 62,34 L 53,48 L 58,66 L 70,72 L 87,66 L 93,55 L 89,39 Z" fill="none" stroke="black" stroke-width="5" /><path d="M 0,0 L 0,218 L 263,218 L 263,0 Z" fill="none" stroke="black" stroke-width="5" /></svg>