<?xml version="1.0" encoding="utf-8" ?>
<svg baseProfile="full" height="220" version="1.1" width="255" xmlns="http://www.w3.org/2000/svg" xmlns:ev="http://www.w3.org/2001/xml-events" xmlns:xlink="http://www.w3.org/1999/xlink"><defs /><rect fill="white" height="220" width="255" x="0" y="0" /><path d="M 19,166 L 19,188 L 40,189 L 40,166 Z" fill="none" stroke="black" stroke-width="1" /><path d="M 12,158 L 48,159 L 46,196 L 12,195 Z" fill="black" stroke="black" stroke-width="1" /><path d="M 86,147 L 118,148 L 104,121 Z" fill="none" stroke="black" stroke-width="1" /><path d="M 101,108 L 127,155 L 76,153 Z" fill="black" stroke="black" stroke-width="1" /><path d="M 202,87 L 188,112 L 219,113 Z" fill="none" stroke="black" stroke-width="1" /><path d="M 175,118 L 202,74 L 230,116 Z" fill="black" stroke="black" stroke-width="1" /><path d="M 51,53 L 33,24 L 15,54 Z" fill="none" stroke="black" stroke-width="1" /><path d="M 5,58 L 31,15 L 62,57 Z" fill="black" stroke="black" stroke-width="1" /><circle cx="145.99737548828125" cy="34.01832580566406" fill="none" r="20.60611343383789" stroke="black" stroke-width="1" /><circle cx="146.66714477539062" cy="33.545326232910156" fill="black" r="28.780019760131836" stroke="black" stroke-width="1" /><path d="M 0,0 L 0,219 L 254,219 L 254,0 Z" fill="none" stroke="black" stroke-width="1" /></svg>