<?xml version="1.0" encoding="utf-8" ?>
<svg xmlns="http://www.w3.org/2000/svg" xmlns:ev="http://www.w3.org/2001/xml-events" xmlns:xlink="http://www.w3.org/1999/xlink" baseProfile="full" height="216" version="1.1" width="258">
  <defs/>
  <path d="M 110.000000,198.705062 C 106.425000,198.261666 103.072500,197.471638 102.550000,196.949444 C 102.027500,196.427250 101.008689,196.000000 100.285976,196.000000 C 98.005222,196.000000 92.025296,191.570831 92.012379,189.871972 C 92.005570,188.976557 91.123775,187.626557 90.052834,186.871972 C 87.072923,184.772329 85.291192,174.410893 86.730273,167.550030 C 88.619521,158.542986 98.385292,148.000000 104.839101,148.000000 C 105.975837,148.000000 108.051150,147.478186 109.450908,146.840414 C 112.205412,145.585378 120.757686,146.955280 125.487544,149.409159 C 131.215868,152.381050 137.151503,160.281768 138.848015,167.192820 C 140.566854,174.194824 140.263488,178.089694 137.572978,183.562847 C 132.154039,194.586285 121.954220,200.187706 110.000000,198.705062" fill="none" stroke="black" stroke-width="5"/>
  <path d="M 44.300891,144.250000 C 42.760401,142.187500 40.953269,139.921126 40.285042,139.213613 C 39.616815,138.506101 38.282292,136.593601 37.319434,134.963613 C 36.356577,133.333626 35.215808,132.000000 34.784392,132.000000 C 34.352977,132.000000 34.000000,131.325000 34.000000,130.500000 C 34.000000,129.675000 33.550000,129.000000 33.000000,129.000000 C 32.450000,129.000000 32.000000,128.581886 32.000000,128.070858 C 32.000000,127.559830 29.354995,123.147431 26.122212,118.265526 C 19.825276,108.756373 17.908351,103.632883 20.303598,102.713740 C 22.333116,101.934941 73.804781,101.471448 74.558518,102.225185 C 75.357097,103.023763 74.089408,109.000000 73.121433,109.000000 C 72.725622,109.000000 71.832250,110.575000 71.136160,112.500000 C 70.440071,114.425000 69.455711,116.000000 68.948692,116.000000 C 68.441673,116.000000 67.328347,117.671730 66.474633,119.714955 C 65.620919,121.758180 64.576046,123.670680 64.152693,123.964955 C 63.729340,124.259230 61.659438,127.875000 59.552910,132.000000 C 57.446382,136.125000 55.335216,139.650000 54.861429,139.833333 C 54.387643,140.016667 54.000000,140.622200 54.000000,141.178963 C 54.000000,142.952289 49.917154,148.000000 48.482797,148.000000 C 47.723239,148.000000 45.841381,146.312500 44.300891,144.250000" fill="none" stroke="black" stroke-width="5"/>
  <path d="M 178.359094,136.831027 C 177.609717,135.669989 177.056092,124.801488 176.920833,108.595764 C 176.857069,100.956172 177.265704,100.783914 196.789291,100.220286 C 206.623052,99.936395 213.954923,100.118047 214.286025,100.653781 C 214.599483,101.160967 215.129085,107.858851 215.462919,115.537968 C 215.796752,123.217086 216.318618,130.905851 216.622619,132.624114 L 217.175349,135.748228 L 210.837675,136.413766 C 207.351954,136.779812 200.000000,137.010843 194.500000,136.927168 C 189.000000,136.843493 183.311593,137.087112 181.859094,137.468543 C 180.109886,137.927891 178.928117,137.712635 178.359094,136.831027" fill="none" stroke="black" stroke-width="5"/>
  <path d="M 96.416275,73.414273 C 86.248240,69.905297 79.164752,59.843989 78.735417,48.300580 C 78.506111,42.135292 81.716104,33.367848 85.812549,28.970830 C 92.160993,22.156575 106.783816,18.750207 114.074452,22.387255 C 115.852505,23.274265 117.897306,24.000000 118.618454,24.000000 C 119.339602,24.000000 120.411298,24.900000 121.000000,26.000000 C 121.588702,27.100000 122.743658,28.000000 123.566569,28.000000 C 124.389479,28.000000 125.353323,28.787500 125.708443,29.750000 C 126.063564,30.712500 126.663990,31.725000 127.042724,32.000000 C 127.421458,32.275000 128.691782,34.394573 129.865666,36.710162 C 131.438880,39.813466 132.000000,42.755592 132.000000,47.901145 C 132.000000,51.740597 131.550000,55.160081 131.000000,55.500000 C 130.450000,55.839919 130.000000,56.888784 130.000000,57.830813 C 130.000000,60.621417 120.513802,70.021437 114.986008,72.708408 C 111.646554,74.331663 100.321981,74.762128 96.416275,73.414273" fill="none" stroke="black" stroke-width="5"/>
  <path d="M 154.060497,63.572894 C 153.261321,62.609946 153.373898,61.934582 154.487669,61.010234 C 155.319451,60.319916 156.007501,59.022711 156.016669,58.127555 C 156.031600,56.669727 157.878398,53.290734 167.690310,36.768888 C 169.235640,34.166776 170.837500,32.029276 171.250000,32.018888 C 171.662500,32.008499 172.000000,31.502761 172.000000,30.895025 C 172.000000,30.287288 173.238806,27.924788 174.752901,25.645025 C 176.266997,23.365261 178.587745,19.362500 179.910119,16.750000 C 181.232493,14.137500 182.806187,12.003075 183.407218,12.006833 C 184.587119,12.014211 187.326644,15.854867 191.248600,23.000000 C 192.607125,25.475000 195.027836,29.750000 196.627959,32.500000 C 198.228081,35.250000 200.653886,39.750000 202.018636,42.500000 C 203.383386,45.250000 204.837500,47.650000 205.250000,47.833333 C 205.662500,48.016667 206.000000,48.892479 206.000000,49.779583 C 206.000000,50.666687 207.158717,53.064528 208.574927,55.108119 C 210.203246,57.457785 211.030402,59.834910 210.824927,61.574289 L 210.500000,64.324839 L 182.822828,64.602635 C 160.984370,64.821827 154.916733,64.604595 154.060497,63.572894" fill="none" stroke="black" stroke-width="5"/>
</svg>
