<?xml version="1.0" encoding="utf-8" ?>
<svg xmlns="http://www.w3.org/2000/svg" xmlns:ev="http://www.w3.org/2001/xml-events" xmlns:xlink="http://www.w3.org/1999/xlink" baseProfile="full" height="218" version="1.1" width="258">
  <defs/>
  <path d="M 25.622091,173.581546 C 24.798486,156.150771 25.352856,154.018760 30.725249,153.955676 C 60.231053,153.609214 62.965196,153.745727 63.677102,155.600925 C 64.014985,156.481433 63.727760,157.550219 63.038825,157.976005 C 62.255171,158.460330 62.007907,159.826480 62.378367,161.625080 C 62.704050,163.206286 63.202843,169.351358 63.486794,175.280796 C 63.875342,183.394397 63.693437,186.168303 62.751535,186.492918 C 62.063191,186.730147 53.579596,187.141720 43.899102,187.407524 L 26.298204,187.890804 L 25.622091,173.581546" fill="none" stroke="black" stroke-width="5"/>
  <path d="M 227.617693,187.284570 C 227.186064,186.853056 217.458020,186.500000 205.999818,186.500000 C 194.541616,186.500000 184.898303,186.231593 184.570235,185.903540 C 183.735575,185.068919 186.559415,178.610543 188.442225,177.047949 C 189.299001,176.336888 190.000000,175.087468 190.000000,174.271460 C 190.000000,173.455452 191.350000,171.083295 193.000000,169.000000 C 194.650000,166.916705 196.000000,164.914757 196.000000,164.551226 C 196.000000,164.187695 197.687500,161.316772 199.750000,158.171396 C 201.812500,155.026020 203.980074,151.593285 204.566831,150.543096 C 207.561780,145.182677 211.000855,146.036067 214.812573,153.085528 C 216.125396,155.513488 218.795430,159.954677 220.745981,162.954838 C 222.696533,165.954999 225.650707,170.904999 227.310812,173.954838 C 228.970917,177.004677 230.738501,179.772189 231.238775,180.104865 C 232.741238,181.103981 231.676106,187.450332 229.951236,187.776380 C 229.099416,187.937398 228.049322,187.716083 227.617693,187.284570" fill="none" stroke="black" stroke-width="5"/>
  <path d="M 137.657132,148.465814 C 124.871129,145.017814 117.667876,136.249515 117.558198,124.000000 C 117.479538,115.214628 118.352837,112.657403 123.243740,107.351399 C 131.053944,98.878328 141.244825,95.996806 152.423838,99.100580 C 158.300132,100.732092 167.226372,109.658418 168.776218,115.453120 C 170.619616,122.345376 170.265600,127.360068 167.510409,133.383532 C 164.544729,139.867170 158.983824,144.926529 152.337581,147.187903 C 144.946202,149.702807 142.903555,149.880617 137.657132,148.465814" fill="none" stroke="black" stroke-width="5"/>
  <path d="M 40.724403,62.034557 C 36.964158,60.156473 30.000000,53.909418 30.000000,52.414451 C 30.000000,51.982399 29.164715,50.699899 28.143811,49.564451 C 27.069243,48.369318 25.826584,44.602242 25.192750,40.618420 C 24.113938,33.837782 24.148125,33.630953 27.523422,26.518192 C 30.913907,19.373425 33.631658,16.709505 41.000000,13.308547 C 45.356695,11.297656 54.845793,10.971375 59.823378,12.661309 C 64.554861,14.267690 72.000000,19.581988 72.000000,21.352913 C 72.000000,21.912915 72.837665,23.300101 73.861477,24.435549 C 77.906404,28.921533 79.133180,38.192965 76.750000,46.265749 C 75.365980,50.953981 68.393418,58.637440 63.500000,60.866671 C 61.850000,61.618341 59.718606,62.630841 58.763569,63.116671 C 55.636080,64.707636 44.771481,64.055902 40.724403,62.034557" fill="none" stroke="black" stroke-width="5"/>
  <path d="M 184.000000,47.113358 C 184.000000,35.432283 184.357838,29.896878 185.144389,29.410763 C 186.437089,28.611830 217.573317,28.226143 218.304950,29.000000 C 218.564946,29.275000 218.940194,37.150000 219.138835,46.500000 L 219.500000,63.500000 L 201.750000,63.804341 L 184.000000,64.108682 L 184.000000,47.113358" fill="none" stroke="black" stroke-width="5"/>
</svg>
