<?xml version="1.0" encoding="utf-8" ?>
<svg xmlns="http://www.w3.org/2000/svg" xmlns:ev="http://www.w3.org/2001/xml-events" xmlns:xlink="http://www.w3.org/1999/xlink" baseProfile="full" height="220" version="1.1" width="264">
  <defs/>
  <path d="M 97.684992,197.351659 C 97.132966,196.799633 101.490709,187.479102 102.992373,186.000000 C 103.271568,185.725000 104.290929,184.150000 105.257620,182.500000 C 111.517276,171.815682 118.510517,160.424322 119.070538,160.000000 C 119.433483,159.725000 120.046414,158.487500 120.432606,157.250000 C 121.270609,154.564740 124.117180,154.316050 126.155744,156.750000 C 126.961890,157.712500 129.131622,161.425000 130.977371,165.000000 C 132.823120,168.575000 134.656186,171.725000 135.050851,172.000000 C 135.445517,172.275000 136.801826,174.750000 138.064871,177.500000 C 139.327917,180.250000 141.630021,184.381079 143.180659,186.680175 C 144.731296,188.979272 146.000000,191.476772 146.000000,192.230175 C 146.000000,192.983579 146.500790,194.100790 147.112868,194.712868 C 149.952835,197.552835 146.619267,198.000000 122.607650,198.000000 C 109.256776,198.000000 98.041580,197.708246 97.684992,197.351659" fill="none" stroke="black" stroke-width="5"/>
  <path d="M 176.310476,132.933266 C 174.200208,132.139021 174.118804,131.583958 174.061628,117.599121 C 174.028999,109.618582 174.415176,102.056514 174.919797,100.794525 C 175.424418,99.532536 176.103484,97.663749 176.428832,96.641665 C 176.974095,94.928716 177.204358,94.903881 179.372060,96.324214 C 181.274222,97.570558 184.760761,97.830203 197.611873,97.682549 L 213.500000,97.500000 L 214.076989,114.000000 C 214.394333,123.075000 214.257038,131.304245 213.771891,132.287210 C 212.971149,133.909607 211.304115,134.059800 195.694902,133.915881 C 186.237706,133.828684 177.514714,133.386507 176.310476,132.933266" fill="none" stroke="black" stroke-width="5"/>
  <path d="M 39.420914,100.681726 C 39.780997,98.381777 41.375531,93.800000 42.964324,90.500000 C 44.553116,87.200000 47.297612,81.350000 49.063204,77.500000 C 53.365649,68.118210 58.069718,58.783804 59.268181,57.250000 C 59.805371,56.562500 61.518732,56.000000 63.075650,56.000000 C 65.465931,56.000000 66.213858,56.695034 67.882229,60.466664 C 68.968929,62.923329 71.239986,66.941908 72.929023,69.396839 C 74.618060,71.851770 76.000000,74.341772 76.000000,74.930175 C 76.000000,75.518579 76.397516,76.000000 76.883369,76.000000 C 77.369221,76.000000 78.016480,76.787500 78.321721,77.750000 C 78.865101,79.463411 82.010860,85.010860 83.000000,86.000000 C 84.194419,87.194419 86.000000,91.098345 86.000000,92.486431 C 86.000000,93.318894 86.337500,94.003511 86.750000,94.007802 C 87.648064,94.017144 90.000000,98.859645 90.000000,100.699365 C 90.000000,101.475868 88.799283,102.000000 87.020415,102.000000 C 85.381644,102.000000 77.169144,102.447505 68.770415,102.994456 C 60.371687,103.541407 50.184899,104.185683 46.133109,104.426182 L 38.766219,104.863451 L 39.420914,100.681726" fill="none" stroke="black" stroke-width="5"/>
  <path d="M 142.603162,59.927294 C 138.033981,57.478360 133.419959,53.334700 131.478017,49.936267 C 128.316560,44.403662 127.711704,42.191170 127.651458,35.939169 C 127.600022,30.601522 128.073809,28.550712 130.192723,24.939169 C 136.394943,14.367916 143.299561,9.988288 153.710162,10.021962 C 164.349850,10.056376 170.311186,13.417673 176.727011,23.000000 C 180.636912,28.839616 182.068476,35.488250 180.701851,41.460411 C 180.130508,43.957185 179.288860,46.000000 178.831523,46.000000 C 178.374185,46.000000 178.000000,46.742347 178.000000,47.649661 C 178.000000,49.913214 168.638995,58.706171 164.298453,60.519765 C 158.887675,62.780533 147.338217,62.465132 142.603162,59.927294" fill="none" stroke="black" stroke-width="5"/>
</svg>
