<?xml version="1.0" encoding="utf-8" ?>
<svg baseProfile="full" height="218" version="1.1" width="258" xmlns="http://www.w3.org/2000/svg" xmlns:ev="http://www.w3.org/2001/xml-events" xmlns:xlink="http://www.w3.org/1999/xlink"><defs /><rect fill="white" height="218" width="258" x="0" y="0" /><path d="M 55,159 L 32,160 L 32,179 L 55,180 Z" fill="none" stroke="black" stroke-width="1" /><path d="M 223,178 L 208,155 L 193,180 Z" fill="none" stroke="black" stroke-width="1" /><path d="M 25,155 L 62,153 L 64,185 L 26,188 Z" fill="black" stroke="black" stroke-width="1" /><path d="M 207,146 L 230,188 L 183,185 Z" fill="black" stroke="black" stroke-width="1" /><circle cx="143.21951293945312" cy="123.34146118164062" fill="none" r="20.251419067382812" stroke="black" stroke-width="1" /><circle cx="143.10105895996094" cy="122.71808624267578" fill="black" r="27.518644332885742" stroke="black" stroke-width="1" /><path d="M 211,34 L 190,35 L 192,57 L 213,57 Z" fill="none" stroke="black" stroke-width="1" /><path d="M 185,28 L 219,29 L 218,64 L 183,63 Z" fill="black" stroke="black" stroke-width="1" /><circle cx="50.9375" cy="36.9375" fill="none" r="20.168336868286133" stroke="black" stroke-width="1" /><circle cx="50.59090805053711" cy="37.5" fill="black" r="27.95556640625" stroke="black" stroke-width="1" /><path d="M 0,0 L 0,217 L 257,217 L 257,0 Z" fill="none" stroke="black" stroke-width="1" /></svg>