<?xml version="1.0" encoding="utf-8" ?>
<svg xmlns="http://www.w3.org/2000/svg" xmlns:ev="http://www.w3.org/2001/xml-events" xmlns:xlink="http://www.w3.org/1999/xlink" baseProfile="full" height="221" version="1.1" width="257">
  <defs/>
  <path d="M 198.022488,203.925070 C 189.670502,200.136596 183.000000,190.365521 183.000000,181.919850 C 183.000000,176.522867 184.963835,168.000000 186.207405,168.000000 C 186.643332,168.000000 187.000000,167.418694 187.000000,166.708208 C 187.000000,164.923864 194.780935,157.579345 198.830086,155.541647 C 200.912920,154.493480 204.867038,153.814033 209.387341,153.727565 C 215.375693,153.613016 217.145391,153.967339 219.711626,155.794659 C 221.415039,157.007597 223.229469,158.000000 223.743693,158.000000 C 225.685311,158.000000 231.328203,165.426158 233.127818,170.349696 C 235.122128,175.805894 235.664518,186.471272 234.000000,187.500000 C 233.450000,187.839919 233.000000,188.834939 233.000000,189.711156 C 233.000000,192.002011 227.023219,199.515660 223.500000,201.653983 C 215.565242,206.469771 205.592336,207.358764 198.022488,203.925070" fill="none" stroke="black" stroke-width="5"/>
  <path d="M 72.866886,174.104147 C 68.838956,173.521541 64.772900,171.365623 58.958101,166.729383 C 57.087325,165.237781 54.550883,159.914732 53.130780,154.500000 C 51.913157,149.857307 52.981919,139.931639 54.955511,137.553606 C 55.674819,136.686893 57.032567,134.543464 57.972729,132.790431 C 58.912891,131.037398 60.539208,129.129901 61.586767,128.551549 C 62.634326,127.973197 64.664147,126.729355 66.097480,125.787455 C 70.521075,122.880536 77.859470,121.708194 82.999412,123.087295 C 85.474735,123.751451 87.927500,124.678509 88.450000,125.147425 C 88.972500,125.616341 90.044211,126.000000 90.831579,126.000000 C 92.594576,126.000000 100.106954,133.587802 101.722237,137.000000 C 104.586790,143.051212 105.106356,148.686310 103.481738,156.083148 C 100.829212,168.160020 87.207297,176.178368 72.866886,174.104147" fill="none" stroke="black" stroke-width="5"/>
  <path d="M 178.000000,105.915511 C 169.734562,104.403630 162.615202,98.967625 159.096344,91.481577 C 156.712544,86.410261 156.289101,77.343169 158.181826,71.899223 C 159.610612,67.789682 166.032458,61.039104 171.500000,57.899298 C 180.153582,52.929867 195.651611,56.243260 201.750000,64.366581 C 203.537500,66.747609 205.000000,69.401685 205.000000,70.264528 C 205.000000,71.127371 205.562500,72.020918 206.250000,72.250189 C 207.131078,72.544015 207.486888,75.322490 207.455574,81.664349 C 207.411599,90.570397 207.372733,90.708535 203.623619,95.283834 C 196.904138,103.484075 187.053051,107.571459 178.000000,105.915511" fill="none" stroke="black" stroke-width="5"/>
  <path d="M 62.296539,72.998870 C 56.601622,71.808408 54.201443,70.420768 49.500000,65.600671 C 44.554867,60.530735 43.639760,58.884378 42.036211,52.172666 C 40.610553,46.205527 41.032763,41.906899 43.595110,36.301091 C 45.519193,32.091653 53.328709,24.000000 55.467291,24.000000 C 56.218614,24.000000 56.985544,23.543368 57.171580,22.985261 C 57.357615,22.427155 60.488266,21.692391 64.128583,21.352453 C 77.068412,20.144113 86.617133,25.683875 92.013786,37.530262 C 93.811431,41.476338 94.052024,43.266207 93.471937,48.378047 C 93.089844,51.745121 92.439397,54.950000 92.026499,55.500000 C 91.613601,56.050000 90.982306,57.728920 90.623621,59.230933 C 89.209966,65.150694 78.163117,72.839469 70.031712,73.563214 C 68.089270,73.736104 64.608442,73.482149 62.296539,72.998870" fill="none" stroke="black" stroke-width="5"/>
</svg>
