<?xml version="1.0" encoding="utf-8" ?>
<svg baseProfile="full" height="221" version="1.1" width="259" xmlns="http://www.w3.org/2000/svg" xmlns:ev="http://www.w3.org/2001/xml-events" xmlns:xlink="http://www.w3.org/1999/xlink"><defs /><rect fill="white" height="221" width="259" x="0" y="0" /><path d="M 75,158 L 43,158 L 59,188 Z" fill="none" stroke="black" stroke-width="1" /><path d="M 32,151 L 88,152 L 61,202 Z" fill="black" stroke="black" stroke-width="1" /><path d="M 196,148 L 177,178 L 211,178 Z" fill="none" stroke="black" stroke-width="1" /><path d="M 199,135 L 224,184 L 169,186 Z" fill="black" stroke="black" stroke-width="1" /><path d="M 117,82 L 117,105 L 137,105 L 136,83 Z" fill="none" stroke="black" stroke-width="1" /><path d="M 111,72 L 144,75 L 143,114 L 109,112 Z" fill="black" stroke="black" stroke-width="1" /><path d="M 23,49 L 23,69 L 45,69 L 44,48 Z" fill="none" stroke="black" stroke-width="1" /><path d="M 52,38 L 55,76 L 17,78 L 15,41 Z" fill="black" stroke="black" stroke-width="1" /><circle cx="213.3046875" cy="46.7578125" fill="none" r="21.282316207885742" stroke="black" stroke-width="1" /><circle cx="213.29566955566406" cy="46.63470458984375" fill="black" r="27.76681137084961" stroke="black" stroke-width="1" /><path d="M 0,0 L 0,220 L 258,220 L 258,0 Z" fill="none" stroke="black" stroke-width="1" /></svg>