<?xml version="1.0" encoding="utf-8" ?>
<svg baseProfile="full" height="221" version="1.1" width="257" xmlns="http://www.w3.org/2000/svg" xmlns:ev="http://www.w3.org/2001/xml-events" xmlns:xlink="http://www.w3.org/1999/xlink"><defs /><rect fill="white" height="221" width="257" x="0" y="0" /><path d="M 204,159 L 192,168 L 188,182 L 196,196 L 211,200 L 226,190 L 229,177 L 221,163 Z" fill="none" stroke="black" stroke-width="5" /><path d="M 88,132 L 70,132 L 60,144 L 61,158 L 71,167 L 86,165 L 96,155 L 94,138 Z" fill="none" stroke="black" stroke-width="5" /><path d="M 185,61 L 171,64 L 163,78 L 167,92 L 181,100 L 195,95 L 200,86 L 198,70 Z" fill="none" stroke="black" stroke-width="5" /><path d="M 59,29 L 51,36 L 50,53 L 59,65 L 74,65 L 84,57 L 86,42 L 73,28 Z" fill="none" stroke="black" stroke-width="5" /><path d="M 0,0 L 0,220 L 256,220 L 256,0 Z" fill="none" stroke="black" stroke-width="5" /></svg>