<?xml version="1.0" encoding="utf-8" ?>
<svg baseProfile="full" height="217" version="1.1" width="258" xmlns="http://www.w3.org/2000/svg" xmlns:ev="http://www.w3.org/2001/xml-events" xmlns:xlink="http://www.w3.org/1999/xlink"><defs /><rect fill="white" height="217" width="258" x="0" y="0" /><path d="M 197,164 L 181,193 L 215,193 Z" fill="none" stroke="black" stroke-width="1" /><path d="M 196,152 L 223,201 L 171,199 Z" fill="black" stroke="black" stroke-width="1" /><path d="M 64,147 L 62,171 L 84,171 L 84,147 Z" fill="none" stroke="black" stroke-width="1" /><path d="M 58,140 L 92,140 L 89,180 L 57,179 Z" fill="black" stroke="black" stroke-width="1" /><path d="M 188,53 L 175,81 L 205,80 Z" fill="none" stroke="black" stroke-width="1" /><path d="M 188,39 L 214,88 L 162,86 Z" fill="black" stroke="black" stroke-width="1" /><circle cx="57.0" cy="53.53845977783203" fill="none" r="21.06368064880371" stroke="black" stroke-width="1" /><circle cx="56.604881286621094" cy="53.668243408203125" fill="none" r="27.702178955078125" stroke="black" stroke-width="1" /><path d="M 0,0 L 0,216 L 257,216 L 257,0 Z" fill="none" stroke="black" stroke-width="1" /></svg>