<?xml version="1.0" encoding="utf-8" ?>
<svg baseProfile="full" height="219" version="1.1" width="258" xmlns="http://www.w3.org/2000/svg" xmlns:ev="http://www.w3.org/2001/xml-events" xmlns:xlink="http://www.w3.org/1999/xlink"><defs /><rect fill="white" height="219" width="258" x="0" y="0" /><circle cx="144.15745544433594" cy="173.68785095214844" fill="none" r="20.881528854370117" stroke="black" stroke-width="1" /><circle cx="144.83990478515625" cy="173.74630737304688" fill="black" r="27.985519409179688" stroke="black" stroke-width="1" /><path d="M 71,140 L 37,142 L 54,169 Z" fill="none" stroke="black" stroke-width="1" /><path d="M 29,134 L 80,135 L 56,179 Z" fill="black" stroke="black" stroke-width="1" /><path d="M 217,122 L 200,152 L 233,151 Z" fill="none" stroke="black" stroke-width="1" /><path d="M 215,112 L 242,157 L 191,157 Z" fill="black" stroke="black" stroke-width="1" /><circle cx="178.0" cy="48.77777862548828" fill="none" r="21.11734962463379" stroke="black" stroke-width="1" /><path d="M 36,26 L 53,55 L 69,28 Z" fill="none" stroke="black" stroke-width="1" /><circle cx="177.9901885986328" cy="48.51960754394531" fill="black" r="27.75736427307129" stroke="black" stroke-width="1" /><path d="M 28,20 L 79,20 L 55,67 Z" fill="black" stroke="black" stroke-width="1" /><path d="M 0,0 L 0,218 L 257,218 L 257,0 Z" fill="none" stroke="black" stroke-width="1" /></svg>