<?xml version="1.0" encoding="utf-8" ?>
<svg baseProfile="full" height="217" version="1.1" width="261" xmlns="http://www.w3.org/2000/svg" xmlns:ev="http://www.w3.org/2001/xml-events" xmlns:xlink="http://www.w3.org/1999/xlink"><defs /><rect fill="white" height="217" width="261" x="0" y="0" /><path d="M 57,157 L 42,159 L 32,173 L 35,188 L 48,196 L 62,193 L 70,183 L 70,169 Z" fill="none" stroke="black" stroke-width="5" /><path d="M 189,178 L 219,178 L 204,156 Z" fill="none" stroke="black" stroke-width="5" /><path d="M 135,84 L 121,93 L 117,106 L 125,120 L 138,124 L 154,116 L 157,99 L 148,87 Z" fill="none" stroke="black" stroke-width="5" /><path d="M 213,35 L 202,38 L 191,52 L 194,68 L 207,76 L 225,71 L 232,59 L 228,44 Z" fill="none" stroke="black" stroke-width="5" /><ellipse cx="49.65419006347656" cy="40.59492874145508" fill="none" rx="19.859403610229492" ry="20.15599822998047" stroke="black" stroke-width="5" transform="rotate(12.126216888427734, 49.65419006347656, 40.59492874145508)" /><path d="M 0,0 L 0,216 L 260,216 L 260,0 Z" fill="none" stroke="black" stroke-width="5" /></svg>