<?xml version="1.0" encoding="utf-8" ?>
<svg xmlns="http://www.w3.org/2000/svg" xmlns:ev="http://www.w3.org/2001/xml-events" xmlns:xlink="http://www.w3.org/1999/xlink" baseProfile="full" height="217" version="1.1" width="259">
  <defs/>
  <path d="M 99.579826,212.129162 C 99.283812,211.650201 97.758133,211.001627 96.189429,210.687886 C 92.820965,210.014193 88.309529,205.967543 85.144520,200.780865 C 81.037638,194.050690 82.397516,178.009065 87.531031,172.628697 C 94.092781,165.751415 99.943003,163.688637 109.902442,164.740577 C 120.327515,165.841698 125.363938,170.320201 129.421504,182.097374 C 132.899776,192.193135 124.983778,208.853244 115.839568,210.682086 C 114.254915,210.999017 112.716188,211.650201 112.420174,212.129162 C 112.124159,212.608123 109.235081,213.000000 106.000000,213.000000 C 102.764919,213.000000 99.875841,212.608123 99.579826,212.129162" fill="none" stroke="black" stroke-width="5"/>
  <path d="M 212.500000,204.986058 C 203.721801,203.990732 194.723245,197.906757 193.323643,192.020814 C 192.993963,190.634366 192.277128,188.932625 191.730677,188.239167 C 190.337030,186.470599 190.582824,176.665243 192.154213,171.343280 C 193.417956,167.063247 200.444724,159.000000 202.910843,159.000000 C 203.476421,159.000000 205.541542,158.100000 207.500000,157.000000 C 216.221297,152.101541 230.966182,156.531962 235.662909,165.462158 C 240.764701,175.162532 240.987433,175.879860 240.497055,181.030937 C 239.903178,187.269187 238.019327,191.449148 233.335615,196.921012 C 227.591802,203.631366 221.465725,206.002647 212.500000,204.986058" fill="none" stroke="black" stroke-width="5"/>
  <path d="M 24.750000,146.292391 C 21.355170,145.767445 21.311420,144.769332 24.500000,140.588887 C 25.875000,138.786169 27.000000,136.828694 27.000000,136.238942 C 27.000000,135.649191 27.337500,135.016667 27.750000,134.833333 C 28.918224,134.314123 39.000000,119.306382 39.000000,118.086573 C 39.000000,117.488958 39.337500,116.995189 39.750000,116.989309 C 40.162500,116.983429 42.525000,113.829721 45.000000,109.981069 C 49.504489,102.976538 52.107999,101.491964 52.838347,105.511484 C 53.037069,106.605168 54.002099,108.400000 54.982857,109.500000 C 55.963615,110.600000 57.560388,113.075000 58.531240,115.000000 C 59.502093,116.925000 61.354731,119.892476 62.648213,121.594391 C 63.941696,123.296306 65.000000,125.171306 65.000000,125.761058 C 65.000000,126.350809 65.353755,126.983333 65.786122,127.166667 C 67.020763,127.690182 71.000000,133.676233 71.000000,135.010015 C 71.000000,135.670715 72.148166,137.575806 73.551479,139.243549 C 74.957984,140.915084 75.967670,143.223612 75.801479,144.387905 C 75.504736,146.466822 75.122989,146.501709 51.500000,146.608813 C 38.300000,146.668660 26.262500,146.526270 24.750000,146.292391" fill="none" stroke="black" stroke-width="5"/>
  <path d="M 116.882874,132.347133 C 116.716092,131.140846 117.163831,95.525813 117.347671,95.375220 C 117.431452,95.306592 125.412325,94.944902 135.082944,94.571467 C 150.345780,93.982085 152.836738,94.098355 153.960679,95.452621 C 154.948763,96.643189 155.150859,101.033556 154.813845,113.986931 C 154.570952,123.322731 154.026438,131.307362 153.603816,131.730556 C 152.538444,132.797368 117.027564,133.393627 116.882874,132.347133" fill="none" stroke="black" stroke-width="5"/>
  <path d="M 191.000000,119.766971 C 191.000000,116.707145 194.710879,109.000000 196.184141,109.000000 C 196.632863,109.000000 197.000000,108.479067 197.000000,107.842371 C 197.000000,107.205676 198.743589,104.393176 200.874643,101.592371 C 203.005696,98.791567 205.260415,95.508266 205.885129,94.296148 C 207.519784,91.124462 218.039619,76.552601 218.936238,76.218017 C 219.351850,76.062927 220.951225,77.839007 222.490403,80.164863 C 224.029582,82.490718 225.678561,84.867611 226.154803,85.446846 C 227.291572,86.829457 236.981700,101.515541 239.345199,105.437838 C 240.360058,107.122027 242.047558,109.429003 243.095199,110.564451 C 244.142839,111.699899 245.000000,112.980433 245.000000,113.410081 C 245.000000,113.839729 245.901553,115.457374 247.003452,117.004847 C 250.880802,122.450084 250.566190,122.514547 219.484086,122.643478 L 191.000000,122.761633 L 191.000000,119.766971" fill="none" stroke="black" stroke-width="5"/>
  <path d="M 41.118927,67.632952 C 38.073452,66.819148 35.593057,65.172228 32.982651,62.230669 C 27.373218,55.909629 25.494658,51.437823 25.534177,44.500000 C 25.562726,39.488017 26.139505,37.529655 29.036825,32.607316 C 30.944484,29.366340 33.402174,26.216340 34.498358,25.607316 C 35.594542,24.998292 37.618350,23.767371 38.995710,22.871936 C 42.490305,20.600064 48.870185,19.714926 55.647458,20.561691 C 60.855656,21.212412 61.874011,21.764004 66.348737,26.358035 C 73.833567,34.042425 74.991942,36.443588 74.996262,44.283244 C 74.999175,49.569068 74.453486,52.107724 72.524316,55.783244 C 68.568038,63.320875 67.323473,64.409739 58.702947,67.875488 C 55.199488,69.284000 46.867528,69.169077 41.118927,67.632952" fill="none" stroke="black" stroke-width="5"/>
  <path d="M 144.022366,55.526950 C 143.192639,54.527189 142.751673,49.145424 142.649921,38.776950 L 142.500000,23.500000 L 158.727539,23.370474 C 169.715111,23.282772 175.256780,23.605678 175.889409,24.370474 C 176.403291,24.991713 176.975898,31.841086 177.161870,39.591302 C 177.422587,50.456481 177.185787,54.062353 176.127555,55.341302 C 174.962563,56.749279 172.524801,57.000000 160.000000,57.000000 C 148.224273,57.000000 144.998035,56.702559 144.022366,55.526950" fill="none" stroke="black" stroke-width="5"/>
</svg>
