<?xml version="1.0" encoding="utf-8" ?>
<svg baseProfile="full" height="220" version="1.1" width="260" xmlns="http://www.w3.org/2000/svg" xmlns:ev="http://www.w3.org/2001/xml-events" xmlns:xlink="http://www.w3.org/1999/xlink"><defs /><rect fill="white" height="220" width="260" x="0" y="0" /><path d="M 216,156 L 203,164 L 200,180 L 210,193 L 225,195 L 237,187 L 240,171 L 230,158 Z" fill="none" stroke="black" stroke-width="5" /><path d="M 71,116 L 67,116 L 53,143 L 85,142 Z" fill="none" stroke="black" stroke-width="5" /><path d="M 171,94 L 155,96 L 145,109 L 148,125 L 158,134 L 177,131 L 186,116 L 182,102 Z" fill="none" stroke="black" stroke-width="5" /><path d="M 196,50 L 180,26 L 165,51 Z" fill="none" stroke="black" stroke-width="5" /><path d="M 64,18 L 52,26 L 50,45 L 58,55 L 74,57 L 85,51 L 89,36 L 79,20 Z" fill="none" stroke="black" stroke-width="5" /><path d="M 0,0 L 0,219 L 259,219 L 259,0 Z" fill="none" stroke="black" stroke-width="5" /></svg>