<?xml version="1.0" encoding="utf-8" ?>
<svg xmlns="http://www.w3.org/2000/svg" xmlns:ev="http://www.w3.org/2001/xml-events" xmlns:xlink="http://www.w3.org/1999/xlink" baseProfile="full" height="219" version="1.1" width="259">
  <defs/>
  <path d="M 79.486656,199.153323 C 78.474801,198.141467 79.055950,195.067518 80.404266,194.299690 C 81.176613,193.859861 83.270281,190.800000 85.056863,187.500000 C 86.843445,184.200000 89.047743,180.375000 89.955303,179.000000 C 90.862863,177.625000 92.705922,174.362500 94.050989,171.750000 C 95.396056,169.137500 96.834838,167.000000 97.248283,167.000000 C 97.661727,167.000000 98.000000,166.503414 98.000000,165.896475 C 98.000000,164.116900 106.378489,153.118595 107.781385,153.056613 C 108.486146,153.025476 109.306495,153.787500 109.604383,154.750000 C 110.567235,157.861063 115.013154,165.656544 120.079431,173.116968 C 122.235744,176.292279 124.000000,179.327452 124.000000,179.861797 C 124.000000,180.396142 124.337500,180.983333 124.750000,181.166667 C 125.918224,181.685877 136.000000,196.693618 136.000000,197.913427 C 136.000000,199.163607 134.707488,199.224757 103.236656,199.463499 C 90.441817,199.560563 79.754317,199.420983 79.486656,199.153323" fill="none" stroke="black" stroke-width="5"/>
  <path d="M 187.750000,185.929073 C 186.787500,185.363424 186.000000,184.229759 186.000000,183.409817 C 186.000000,182.169040 189.189197,176.806637 191.001594,175.000000 C 191.277471,174.725000 192.177471,173.163672 193.001594,171.530383 C 193.825717,169.897093 195.287500,167.759593 196.250000,166.780383 C 197.212500,165.801172 198.000000,164.306778 198.000000,163.459507 C 198.000000,161.897650 201.874089,155.778183 203.250000,155.166667 C 203.662500,154.983333 204.000000,153.970833 204.000000,152.916667 C 204.000000,151.862500 204.377768,151.000000 204.839485,151.000000 C 205.301202,151.000000 206.204249,149.847138 206.846257,148.438084 C 209.011757,143.685329 213.425554,139.000060 215.737455,139.000029 C 218.332573,138.999995 220.758991,142.480269 228.645595,157.514512 C 231.534951,163.022493 235.271701,168.844184 236.949485,170.451603 C 238.627268,172.059022 240.000000,174.388434 240.000000,175.628074 C 240.000000,176.867715 240.450000,178.160081 241.000000,178.500000 C 241.550000,178.839919 242.000000,180.441476 242.000000,182.059017 C 242.000000,184.762993 241.697796,185.012614 238.250000,185.156524 C 236.187500,185.242612 233.150000,185.446722 231.500000,185.610102 C 229.850000,185.773483 222.425000,185.874441 215.000000,185.834455 C 197.288782,185.739073 198.101893,185.718392 193.500000,186.381311 C 191.300000,186.698230 188.712500,186.494722 187.750000,185.929073" fill="none" stroke="black" stroke-width="5"/>
  <path d="M 43.750000,97.207936 C 36.411432,96.931377 36.000000,96.793615 36.000000,94.612972 C 36.000000,93.346377 37.800000,89.525123 40.000000,86.121295 C 42.200000,82.717467 44.000000,79.702379 44.000000,79.421098 C 44.000000,79.139818 46.148494,75.667502 48.774431,71.704840 C 51.400368,67.742178 54.176409,63.262500 54.943411,61.750000 C 55.710412,60.237500 56.711919,59.000000 57.168980,59.000000 C 57.626041,59.000000 58.000000,58.462123 58.000000,57.804719 C 58.000000,57.147314 59.209191,55.347314 60.687091,53.804719 C 64.001216,50.345518 67.711894,50.112024 68.918916,53.286733 C 70.124241,56.456979 87.475034,83.040853 89.966862,85.535169 C 91.085088,86.654512 92.000000,88.123118 92.000000,88.798738 C 92.000000,89.474358 92.535426,90.884491 93.189836,91.932368 C 94.119684,93.421292 94.099971,94.174616 93.099615,95.379971 C 92.039231,96.657656 88.359908,96.971911 71.659779,97.211172 C 60.571901,97.370028 48.012500,97.368571 43.750000,97.207936" fill="none" stroke="black" stroke-width="5"/>
  <path d="M 191.000000,83.215389 C 189.075000,83.018499 187.072500,82.439490 186.550000,81.928703 C 186.027500,81.417917 184.835154,81.000000 183.900343,81.000000 C 181.361710,81.000000 172.616100,70.896831 171.051829,66.157044 C 169.156509,60.414166 170.992728,47.024172 174.203465,43.174834 C 181.213844,34.770123 189.420874,31.504650 199.834434,32.976597 C 206.309359,33.891822 213.697406,37.457025 215.414472,40.494958 C 216.011512,41.551276 217.084598,43.051282 217.799107,43.828304 C 218.513616,44.605326 219.357366,46.536830 219.674107,48.120536 C 219.990848,49.704241 220.643750,51.000000 221.125000,51.000000 C 222.428248,51.000000 222.182398,61.659171 220.770454,66.371819 C 219.113767,71.901347 210.792898,80.295627 205.500000,81.776996 C 200.475933,83.183126 195.505375,83.676203 191.000000,83.215389" fill="none" stroke="black" stroke-width="5"/>
</svg>
