<?xml version="1.0" encoding="utf-8" ?>
<svg xmlns="http://www.w3.org/2000/svg" xmlns:ev="http://www.w3.org/2001/xml-events" xmlns:xlink="http://www.w3.org/1999/xlink" baseProfile="full" height="225" version="1.1" width="259">
  <defs/>
  <path d="M 125.666667,199.333333 C 124.101624,197.768291 125.276890,193.085902 129.369546,184.580664 C 131.772796,179.586299 135.224036,171.900000 137.038969,167.500000 C 138.853901,163.100000 141.119885,157.700000 142.074489,155.500000 C 143.029093,153.300000 144.086426,150.262500 144.424118,148.750000 C 144.841157,146.882113 145.673530,146.000000 147.019052,146.000000 C 148.108573,146.000000 149.000000,146.405019 149.000000,146.900043 C 149.000000,147.675853 161.319588,163.610105 162.994005,165.000000 C 163.325300,165.275000 164.689890,167.075000 166.026429,169.000000 C 167.362967,170.925000 169.478786,173.532955 170.728249,174.795455 C 171.977712,176.057955 173.000000,177.412553 173.000000,177.805673 C 173.000000,178.198793 174.075912,179.680759 175.390915,181.098931 C 178.427762,184.374035 181.000000,189.322220 181.000000,191.889067 C 181.000000,193.482686 180.156219,193.977433 176.750000,194.381035 C 171.629709,194.987735 151.275028,197.006913 145.000000,197.530624 C 142.525000,197.737187 137.575000,198.368251 134.000000,198.932989 C 126.149913,200.173058 126.490051,200.156717 125.666667,199.333333" fill="none" stroke="black" stroke-width="5"/>
  <path d="M 61.810757,195.529692 C 54.552778,193.530758 50.098999,190.220654 45.875909,183.686712 C 42.292715,178.142815 42.001659,177.154103 42.021962,170.594964 C 42.049384,161.736150 44.011988,157.174326 50.789366,150.216250 C 54.689968,146.211650 56.568376,145.000000 58.876059,145.000000 C 60.529308,145.000000 62.160081,144.550000 62.500000,144.000000 C 63.398159,142.546749 73.847407,142.802949 78.406704,144.390010 C 87.042526,147.396080 92.906591,154.856258 95.101386,165.628741 C 96.186859,170.956451 96.126253,172.469027 94.637689,177.201560 C 92.869838,182.822016 88.606095,190.000000 87.035378,190.000000 C 86.544491,190.000000 85.530988,190.611869 84.783148,191.359709 C 82.964831,193.178026 71.986694,197.022777 68.933421,196.910583 C 67.595039,196.861403 64.389841,196.240002 61.810757,195.529692" fill="none" stroke="black" stroke-width="5"/>
  <path d="M 193.430294,161.519871 C 193.818881,159.448524 194.521681,157.021683 194.992072,156.126892 C 196.964782,152.374343 205.765249,132.834899 206.984689,129.500000 C 207.386916,128.400000 208.660768,125.580833 209.815471,123.235185 C 210.970175,120.889536 212.209154,117.402036 212.568757,115.485185 C 213.382697,111.146512 215.992570,110.843720 218.905589,114.750000 C 220.033502,116.262500 221.566512,118.175000 222.312278,119.000000 C 223.058045,119.825000 225.179173,122.750000 227.025897,125.500000 C 228.872620,128.250000 230.747271,130.650000 231.191788,130.833333 C 231.636305,131.016667 232.000000,131.610588 232.000000,132.153158 C 232.000000,133.088638 237.688458,141.937935 238.972510,143.000000 C 241.200265,144.842621 248.000000,156.411942 248.000000,158.359706 C 248.000000,160.644025 247.619466,160.772711 238.750000,161.487795 C 233.662500,161.897965 222.525000,162.585420 214.000000,163.015473 C 205.475000,163.445525 197.200349,164.132315 195.611886,164.541673 C 192.728957,165.284622 192.725041,165.279197 193.430294,161.519871" fill="none" stroke="black" stroke-width="5"/>
  <path d="M 170.500000,94.643838 C 157.788084,90.534595 150.936926,80.530102 151.021962,66.200779 C 151.067475,58.531390 158.869655,47.623715 166.629032,44.381640 C 172.866873,41.775304 190.000000,43.079387 190.000000,46.160515 C 190.000000,46.622232 190.827768,47.000000 191.839485,47.000000 C 192.868666,47.000000 194.222255,48.192381 194.912291,49.706845 C 195.590618,51.195609 196.999664,53.011890 198.043504,53.743025 C 199.087345,54.474160 200.483370,56.968579 201.145781,59.286180 C 201.808193,61.603781 202.769118,64.053631 203.281170,64.730290 C 204.656224,66.547377 202.349712,78.287730 199.743119,82.739289 C 195.091783,90.682875 189.289774,94.471491 180.432007,95.349126 C 176.720426,95.716873 173.002749,95.452874 170.500000,94.643838" fill="none" stroke="black" stroke-width="5"/>
  <path d="M 52.068094,83.095630 C 50.930642,81.498226 50.000000,79.891805 50.000000,79.525805 C 50.000000,79.159805 48.650000,76.898193 47.000000,74.500000 C 45.350000,72.101807 44.000000,69.813204 44.000000,69.414216 C 44.000000,69.015227 42.941696,67.296306 41.648213,65.594391 C 40.354731,63.892476 38.551751,61.054084 37.641591,59.286853 C 36.731431,57.519623 33.739735,53.067719 30.993378,49.393734 C 28.247020,45.719748 26.000000,41.893997 26.000000,40.892064 C 26.000000,37.351171 29.181011,36.952318 55.973954,37.133759 L 82.000000,37.310007 L 82.000000,40.588558 C 82.000000,43.555285 77.563302,52.312275 74.315509,55.755920 C 73.664039,56.446676 72.846214,57.909176 72.498121,59.005920 C 72.150028,60.102664 71.445549,61.000000 70.932612,61.000000 C 70.419676,61.000000 70.000000,61.810000 70.000000,62.800000 C 70.000000,63.790000 69.561584,65.038416 69.025742,65.574258 C 68.489900,66.110100 66.294578,69.943653 64.147248,74.093265 C 57.182130,87.553021 55.914665,88.497639 52.068094,83.095630" fill="none" stroke="black" stroke-width="5"/>
  <path d="M 0.345393,0.750000 C 0.090508,0.337500 55.783524,-0.000000 124.107650,-0.000000 C 192.431776,-0.000000 248.113160,0.220174 247.844059,0.489275 C 247.032982,1.300351 0.845706,1.559695 0.345393,0.750000" fill="none" stroke="black" stroke-width="5"/>
  <path d="M 252.263750,0.282419 C 253.783812,0.052564 256.033812,0.058707 257.263750,0.296069 C 258.493687,0.533431 257.250000,0.721493 254.500000,0.713986 C 251.750000,0.706478 250.743687,0.512273 252.263750,0.282419" fill="none" stroke="black" stroke-width="5"/>
</svg>
