<?xml version="1.0" encoding="utf-8" ?>
<svg xmlns="http://www.w3.org/2000/svg" xmlns:ev="http://www.w3.org/2001/xml-events" xmlns:xlink="http://www.w3.org/1999/xlink" baseProfile="full" height="218" version="1.1" width="258">
  <defs/>
  <path d="M 169.749474,208.416141 C 169.046125,207.712792 171.015017,203.877241 177.880026,192.577207 C 180.146012,188.847319 182.000000,185.450367 182.000000,185.028424 C 182.000000,184.606482 183.687500,182.064974 185.750000,179.380628 C 189.501723,174.497757 191.175256,171.860257 193.731043,166.802446 C 194.883912,164.520959 198.691286,162.054753 199.356334,163.158694 C 199.469422,163.346412 201.410252,166.200000 203.669290,169.500000 C 205.928328,172.800000 209.251823,178.425000 211.054835,182.000000 C 212.857846,185.575000 214.649088,188.725000 215.035373,189.000000 C 215.421658,189.275000 216.919257,191.842672 218.363372,194.705937 C 219.807487,197.569203 221.949314,200.806510 223.122989,201.899955 C 227.063720,205.571304 225.074688,206.744598 213.820147,207.387534 C 193.750923,208.534023 170.412084,209.078750 169.749474,208.416141" fill="none" stroke="black" stroke-width="5"/>
  <path d="M 61.500000,202.000000 C 61.160081,201.450000 59.883811,201.000000 58.663844,201.000000 C 55.554347,201.000000 48.306271,193.961789 45.163870,187.890912 C 43.320781,184.330205 43.266211,170.249336 45.082260,166.832819 C 49.769169,158.015381 60.809501,151.000000 69.998878,151.000000 C 79.663999,151.000000 92.735597,159.729860 94.550784,167.396977 C 94.954835,169.103640 95.333703,173.914699 95.392712,178.088219 C 95.489980,184.967783 95.219833,186.086598 92.500000,190.068395 C 87.821721,196.917328 86.840755,197.873658 81.778488,200.520645 C 77.965464,202.514421 75.575898,203.000000 69.577423,203.000000 C 65.474759,203.000000 61.839919,202.550000 61.500000,202.000000" fill="none" stroke="black" stroke-width="5"/>
  <path d="M 134.121855,134.721855 C 133.504835,134.104835 133.000000,133.047143 133.000000,132.371429 C 133.000000,131.695714 132.377147,130.520005 131.615883,129.758740 C 130.854619,128.997476 129.244670,126.602833 128.038218,124.437312 C 122.048120,113.685378 116.411273,104.162706 112.768197,98.640723 C 109.190773,93.218251 109.161242,90.393493 112.674956,89.721804 C 117.552444,88.789413 157.470255,88.958424 158.943831,89.917705 C 160.165986,90.713314 160.012453,91.597836 157.943831,95.678811 C 156.599724,98.330465 155.162500,100.650000 154.750000,100.833333 C 154.337500,101.016667 154.000000,101.588109 154.000000,102.103205 C 154.000000,102.618301 152.774033,104.943301 151.275630,107.269872 C 147.666406,112.873912 146.000000,116.013666 146.000000,117.209936 C 146.000000,117.749664 145.152687,119.385726 144.117082,120.845630 C 140.746729,125.596854 138.000000,131.020100 138.000000,132.923428 C 138.000000,135.184557 135.666623,136.266623 134.121855,134.721855" fill="none" stroke="black" stroke-width="5"/>
  <path d="M 194.000000,93.377597 C 190.108842,92.645106 186.000000,90.848044 186.000000,89.878680 C 186.000000,89.395406 185.339195,89.000000 184.531544,89.000000 C 182.111768,89.000000 174.633989,77.977975 174.016000,73.500399 C 173.115505,66.975957 174.388680,60.489636 177.431755,56.098477 C 184.015384,46.598297 189.245474,43.213007 198.500000,42.461591 C 203.421207,42.062017 211.853669,44.095058 214.820698,46.396462 C 218.552235,49.290865 221.747977,53.121349 223.864516,57.236575 C 227.896629,65.076290 226.795665,78.180937 221.800299,81.806704 C 220.810135,82.525391 220.000000,83.737450 220.000000,84.500168 C 220.000000,85.262886 218.650000,86.684392 217.000000,87.659071 C 215.350000,88.633750 214.000000,89.711960 214.000000,90.055093 C 214.000000,92.275678 200.266290,94.557194 194.000000,93.377597" fill="none" stroke="black" stroke-width="5"/>
  <path d="M 49.500000,85.771109 C 47.850000,85.182060 46.275000,84.429369 46.000000,84.098462 C 45.725000,83.767554 44.335014,82.897796 42.911142,82.165667 C 39.331015,80.324829 34.394060,71.643056 33.013756,64.760839 C 31.831022,58.863707 32.743510,53.632803 35.588663,50.000000 C 36.234790,49.175000 37.072085,47.487199 37.449320,46.249330 C 38.225667,43.701800 42.505040,40.230253 48.710162,37.114221 C 57.361015,32.770014 72.574018,35.646333 77.811443,42.616395 C 79.003178,44.202378 80.385244,45.992244 80.882702,46.593876 C 83.340209,49.566018 85.268417,54.876236 85.718738,59.912150 C 86.129459,64.505217 85.752003,66.516406 83.598508,71.209313 C 80.993300,76.886597 75.637375,82.986535 73.250000,82.995373 C 72.562500,82.997918 72.000000,83.378771 72.000000,83.841712 C 72.000000,86.530555 55.573051,87.939181 49.500000,85.771109" fill="none" stroke="black" stroke-width="5"/>
</svg>
