<?xml version="1.0" encoding="utf-8" ?>
<svg xmlns="http://www.w3.org/2000/svg" xmlns:ev="http://www.w3.org/2001/xml-events" xmlns:xlink="http://www.w3.org/1999/xlink" baseProfile="full" height="217" version="1.1" width="261">
  <defs/>
  <path d="M 42.489674,201.691417 C 30.301738,196.867715 22.917556,182.446370 26.531543,170.525103 C 30.367590,157.871338 39.488779,151.047391 52.609535,151.015056 C 60.419472,150.995810 69.291591,155.250129 73.001385,160.793266 C 74.365805,162.831970 75.713565,164.725000 75.996407,165.000000 C 77.070877,166.044679 79.000000,172.759616 79.000000,175.454978 C 79.000000,179.510511 76.955336,186.037189 74.621666,189.430856 C 71.539580,193.912883 66.642804,199.000000 65.410563,199.000000 C 64.803755,199.000000 62.843084,199.730435 61.053515,200.623190 C 56.967976,202.661325 46.467082,203.265582 42.489674,201.691417" fill="none" stroke="black" stroke-width="5"/>
  <path d="M 179.000000,183.712226 C 179.000000,183.003950 180.331712,180.866450 181.959359,178.962226 C 183.587007,177.058002 184.937007,175.162186 184.959359,174.749301 C 184.995597,174.079929 196.471676,156.003303 200.512921,150.250000 C 203.244515,146.361177 206.285169,147.513305 209.750000,153.750000 C 210.437500,154.987500 211.562500,157.006916 212.250000,158.237591 C 212.937500,159.468266 215.141483,162.404344 217.147740,164.762207 C 219.153996,167.120071 221.550504,170.640328 222.473311,172.585000 C 223.396119,174.529673 224.750935,176.350930 225.484015,176.632239 C 227.195327,177.288932 229.394619,182.552475 228.537303,183.939643 C 227.502514,185.613967 179.000000,185.391300 179.000000,183.712226" fill="none" stroke="black" stroke-width="5"/>
  <path d="M 128.768882,129.009599 C 120.388729,125.821226 113.016486,117.777024 113.005123,111.809017 C 113.002306,110.328976 112.550000,108.839919 112.000000,108.500000 C 108.855404,106.556533 114.135794,90.295613 119.373988,85.791860 C 124.876646,81.060722 129.938051,78.888829 136.801902,78.313388 C 142.994560,77.794218 144.351878,78.025060 149.278120,80.435246 C 155.055886,83.262043 161.000000,88.859418 161.000000,91.473350 C 161.000000,92.313008 161.340150,93.000000 161.755889,93.000000 C 162.171627,93.000000 163.129812,94.396237 163.885187,96.102748 C 165.555880,99.877106 164.888933,108.204885 162.477335,113.681770 C 159.104502,121.341677 158.459131,122.309713 155.010486,124.881795 C 153.079719,126.321808 151.350000,127.837500 151.166667,128.250000 C 150.983333,128.662500 149.772391,129.000000 148.475684,129.000000 C 147.178976,129.000000 145.839919,129.450000 145.500000,130.000000 C 144.511262,131.599812 133.930680,130.973492 128.768882,129.009599" fill="none" stroke="black" stroke-width="5"/>
  <path d="M 204.678009,81.495828 C 194.804965,78.782194 189.646522,73.642919 186.383672,63.269470 C 184.940428,58.681024 184.893348,57.214780 186.018950,51.910703 C 187.078909,46.915948 188.193419,44.855384 192.214987,40.455149 C 199.693174,32.272820 202.854546,30.686497 211.884484,30.585325 C 218.471436,30.511524 220.128778,30.869632 224.155490,33.236767 C 232.756757,38.293092 238.320454,47.371387 238.196029,56.146743 C 238.015306,68.892572 229.423732,78.782519 215.807180,81.919030 C 210.339743,83.178429 210.873715,83.198734 204.678009,81.495828" fill="none" stroke="black" stroke-width="5"/>
  <path d="M 41.138611,65.721306 C 35.653563,63.967928 27.746608,55.267476 25.870932,48.921450 C 23.742849,41.721444 23.631689,37.444664 25.476516,33.746621 C 26.314432,32.066978 27.000000,30.027651 27.000000,29.214783 C 27.000000,27.025443 35.184643,19.238625 39.287856,17.524193 C 49.444438,13.280502 60.724978,15.355631 68.509366,22.899681 C 70.979215,25.293275 73.000000,27.800907 73.000000,28.472197 C 73.000000,29.143487 73.731138,31.158324 74.624751,32.949614 C 77.757080,39.228518 75.925345,48.670680 69.826533,57.683293 C 68.269580,59.984104 66.096675,62.151929 64.997855,62.500681 C 63.899035,62.849433 63.000000,63.492327 63.000000,63.929335 C 63.000000,64.971314 52.663348,67.028403 48.083219,66.897912 C 46.112448,66.841764 42.987375,66.312291 41.138611,65.721306" fill="none" stroke="black" stroke-width="5"/>
</svg>
