<?xml version="1.0" encoding="utf-8" ?>
<svg xmlns="http://www.w3.org/2000/svg" xmlns:ev="http://www.w3.org/2001/xml-events" xmlns:xlink="http://www.w3.org/1999/xlink" baseProfile="full" height="220" version="1.1" width="260">
  <defs/>
  <path d="M 214.500000,200.771210 C 206.385985,198.023187 202.116706,194.692071 198.565504,188.338281 C 191.374372,175.471946 193.909694,163.943884 205.895231,155.010141 C 211.602452,150.756110 214.958227,149.785424 222.255302,150.277852 C 228.082543,150.671091 229.782522,151.267195 234.629342,154.616859 C 237.719648,156.752587 241.624212,160.414611 243.306151,162.754692 C 246.184078,166.758750 246.357259,167.517840 246.246018,175.640785 C 246.181005,180.388056 245.649056,184.750944 245.063907,185.336093 C 244.478758,185.921242 243.995208,187.097500 243.989352,187.950000 C 243.966245,191.313558 234.672953,198.284127 227.180058,200.558056 C 221.853744,202.174476 218.795196,202.225891 214.500000,200.771210" fill="none" stroke="black" stroke-width="5"/>
  <path d="M 48.250000,150.192502 C 44.447074,149.917351 44.000000,149.618008 44.000000,147.346873 C 44.000000,145.950900 44.831331,143.614274 45.847403,142.154370 C 50.145483,135.978837 66.000000,105.430720 66.000000,103.324811 C 66.000000,101.204241 69.465238,101.794899 71.569665,104.274175 C 73.310822,106.325474 76.418010,111.670369 79.399134,117.742198 C 80.004610,118.975407 80.837500,119.987907 81.250000,119.992198 C 81.662500,119.996489 82.000000,120.701387 82.000000,121.558638 C 82.000000,122.415889 83.295163,124.778389 84.878141,126.808638 C 89.376835,132.578442 95.151340,143.926383 94.809520,146.325584 C 94.549104,148.153418 93.627455,148.606001 89.000000,149.178397 C 82.721407,149.955032 54.630046,150.654114 48.250000,150.192502" fill="none" stroke="black" stroke-width="5"/>
  <path d="M 158.500000,140.358518 C 154.602304,139.458902 151.454783,137.461164 147.816003,133.577363 C 141.860109,127.220423 139.816968,122.289541 139.766011,114.149647 C 139.726394,107.821241 140.086991,106.449024 143.110803,101.421348 C 152.787217,85.332432 174.051346,83.621117 185.937375,97.974710 C 192.479936,105.875520 193.748347,114.416552 189.819660,124.116647 C 187.157876,130.688704 183.913558,134.336687 178.000000,137.406932 C 173.579677,139.701909 162.754388,141.340461 158.500000,140.358518" fill="none" stroke="black" stroke-width="5"/>
  <path d="M 59.039720,62.609387 C 55.023718,61.321832 48.021847,54.876714 45.644356,50.279155 C 44.739960,48.530245 43.993109,45.614473 43.984687,43.799660 C 43.976265,41.984847 43.592685,39.905912 43.132287,39.179805 C 42.245129,37.780641 43.996458,28.717495 45.788913,25.431737 C 47.232928,22.784707 54.389945,16.366832 57.951930,14.524858 C 59.560739,13.692911 61.917204,13.040349 63.188519,13.074722 C 64.459833,13.109095 67.318248,12.834735 69.540550,12.465033 C 75.088795,11.542028 82.051484,14.841277 88.589487,21.491311 C 93.881016,26.873513 96.000000,31.993166 96.000000,39.395767 C 96.000000,42.651861 95.514342,44.353378 92.687842,51.000000 C 91.233969,54.418839 85.389604,59.596611 80.266119,62.004933 C 75.507008,64.241979 65.059851,64.539478 59.039720,62.609387" fill="none" stroke="black" stroke-width="5"/>
  <path d="M 160.500000,57.291439 C 154.874295,56.583670 154.783184,56.306421 158.483629,51.155673 C 160.417633,48.463680 162.000000,45.752384 162.000000,45.130570 C 162.000000,44.508757 162.450000,44.000000 163.000000,44.000000 C 163.550000,44.000000 164.000000,43.334129 164.000000,42.520286 C 164.000000,41.706444 165.796845,38.668944 167.992989,35.770286 C 170.189133,32.871629 172.551633,29.359039 173.242989,27.964531 C 175.755584,22.896470 180.524110,16.004217 181.500000,16.030150 C 182.360844,16.053026 188.743841,25.509110 189.899944,28.474239 C 190.119913,29.038408 190.590007,29.725000 190.944598,30.000000 C 191.538944,30.460941 192.736176,32.412907 198.304761,42.000000 C 199.422882,43.925000 201.152646,47.146974 202.148682,49.159943 C 203.144718,51.172911 204.531233,53.027555 205.229828,53.281373 C 206.136701,53.610865 206.213977,54.224118 205.500000,55.425440 C 204.623869,56.899600 201.960690,57.142755 184.000000,57.388444 C 172.725000,57.542678 162.150000,57.499026 160.500000,57.291439" fill="none" stroke="black" stroke-width="5"/>
</svg>
