<?xml version="1.0" encoding="utf-8" ?>
<svg baseProfile="full" height="218" version="1.1" width="259" xmlns="http://www.w3.org/2000/svg" xmlns:ev="http://www.w3.org/2001/xml-events" xmlns:xlink="http://www.w3.org/1999/xlink"><defs /><rect fill="white" height="218" width="259" x="0" y="0" /><path d="M 231,189 L 212,161 L 194,191 Z" fill="none" stroke="black" stroke-width="5" /><path d="M 42,145 L 31,152 L 26,168 L 35,183 L 52,186 L 63,179 L 69,164 L 58,147 Z" fill="none" stroke="black" stroke-width="5" /><path d="M 142,88 L 162,115 L 175,88 Z" fill="none" stroke="black" stroke-width="5" /><path d="M 71,29 L 59,36 L 54,53 L 63,67 L 79,70 L 92,61 L 95,43 L 84,30 Z" fill="none" stroke="black" stroke-width="5" /><ellipse cx="74.89429473876953" cy="49.35757827758789" fill="none" rx="26.884031295776367" ry="27.344385147094727" stroke="black" stroke-width="5" transform="rotate(29.737930297851562, 74.89429473876953, 49.35757827758789)" /><path d="M 217,14 L 209,24 L 211,40 L 222,48 L 234,47 L 244,35 L 242,21 L 229,12 Z" fill="none" stroke="black" stroke-width="5" /><path d="M 0,0 L 0,217 L 258,217 L 258,0 Z" fill="none" stroke="black" stroke-width="5" /></svg>