<?xml version="1.0" encoding="utf-8" ?>
<svg baseProfile="full" height="217" version="1.1" width="259" xmlns="http://www.w3.org/2000/svg" xmlns:ev="http://www.w3.org/2001/xml-events" xmlns:xlink="http://www.w3.org/1999/xlink"><defs /><rect fill="white" height="217" width="259" x="0" y="0" /><path d="M 97,171 L 88,184 L 90,198 L 104,207 L 116,204 L 124,190 L 121,177 L 111,170 Z" fill="none" stroke="black" stroke-width="5" /><path d="M 213,161 L 199,171 L 197,187 L 205,196 L 219,198 L 230,190 L 233,176 L 224,163 Z" fill="none" stroke="black" stroke-width="5" /><path d="M 67,140 L 50,113 L 31,140 Z" fill="none" stroke="black" stroke-width="5" /><path d="M 125,101 L 124,125 L 146,125 L 147,102 Z" fill="none" stroke="black" stroke-width="5" /><path d="M 236,114 L 218,88 L 200,113 Z" fill="none" stroke="black" stroke-width="5" /><path d="M 148,28 L 148,50 L 170,51 L 171,29 Z" fill="none" stroke="black" stroke-width="5" /><ellipse cx="49.530887603759766" cy="44.361907958984375" fill="none" rx="18.472841262817383" ry="18.754987716674805" stroke="black" stroke-width="5" transform="rotate(62.756874084472656, 49.530887603759766, 44.361907958984375)" /><path d="M 0,0 L 0,216 L 258,216 L 258,0 Z" fill="none" stroke="black" stroke-width="5" /></svg>