<?xml version="1.0" encoding="utf-8" ?>
<svg baseProfile="full" height="220" version="1.1" width="259" xmlns="http://www.w3.org/2000/svg" xmlns:ev="http://www.w3.org/2001/xml-events" xmlns:xlink="http://www.w3.org/1999/xlink"><defs /><rect fill="white" height="220" width="259" x="0" y="0" /><path d="M 191,156 L 190,181 L 214,182 L 215,156 Z" fill="none" stroke="black" stroke-width="5" /><path d="M 75,153 L 61,181 L 90,181 L 88,173 Z" fill="none" stroke="black" stroke-width="5" /><path d="M 55,41 L 47,55 L 51,68 L 60,74 L 74,73 L 83,62 L 81,47 L 71,39 Z" fill="none" stroke="black" stroke-width="5" /><path d="M 197,36 L 188,48 L 191,63 L 201,70 L 214,69 L 224,56 L 221,41 L 211,34 Z" fill="none" stroke="black" stroke-width="5" /><path d="M 0,0 L 0,219 L 258,219 L 258,0 Z" fill="none" stroke="black" stroke-width="5" /></svg>