<?xml version="1.0" encoding="utf-8" ?>
<svg baseProfile="full" height="222" version="1.1" width="260" xmlns="http://www.w3.org/2000/svg" xmlns:ev="http://www.w3.org/2001/xml-events" xmlns:xlink="http://www.w3.org/1999/xlink"><defs /><rect fill="white" height="222" width="260" x="0" y="0" /><circle cx="168.413818359375" cy="181.7024688720703" fill="none" r="18.888063430786133" stroke="black" stroke-width="1" /><path d="M 60,161 L 44,189 L 77,190 Z" fill="none" stroke="black" stroke-width="1" /><circle cx="168.44090270996094" cy="181.9443817138672" fill="black" r="26.064672470092773" stroke="black" stroke-width="1" /><path d="M 58,152 L 86,196 L 35,194 Z" fill="black" stroke="black" stroke-width="1" /><path d="M 219,110 L 205,138 L 236,138 Z" fill="none" stroke="black" stroke-width="1" /><path d="M 219,99 L 243,144 L 196,143 Z" fill="black" stroke="black" stroke-width="1" /><path d="M 135,99 L 134,124 L 157,124 L 158,100 Z" fill="none" stroke="black" stroke-width="1" /><path d="M 128,94 L 161,93 L 164,128 L 128,130 Z" fill="black" stroke="black" stroke-width="1" /><path d="M 67,39 L 54,65 L 83,65 Z" fill="none" stroke="black" stroke-width="1" /><path d="M 65,25 L 93,71 L 41,72 Z" fill="black" stroke="black" stroke-width="1" /><circle cx="195.80551147460938" cy="36.14333724975586" fill="none" r="18.67466926574707" stroke="black" stroke-width="1" /><circle cx="196.0327911376953" cy="36.04917907714844" fill="black" r="25.5537109375" stroke="black" stroke-width="1" /><path d="M 0,0 L 0,221 L 259,221 L 259,0 Z" fill="none" stroke="black" stroke-width="1" /></svg>