<?xml version="1.0" encoding="utf-8" ?>
<svg baseProfile="full" height="221" version="1.1" width="261" xmlns="http://www.w3.org/2000/svg" xmlns:ev="http://www.w3.org/2001/xml-events" xmlns:xlink="http://www.w3.org/1999/xlink"><defs /><rect fill="white" height="221" width="261" x="0" y="0" /><path d="M 72,165 L 49,165 L 50,188 L 72,187 Z" fill="none" stroke="black" stroke-width="1" /><circle cx="220.0" cy="177.5370330810547" fill="none" r="19.502037048339844" stroke="black" stroke-width="1" /><path d="M 38,158 L 80,157 L 81,192 L 39,195 Z" fill="black" stroke="black" stroke-width="1" /><circle cx="220.0" cy="177.5" fill="none" r="26.725555419921875" stroke="black" stroke-width="1" /><path d="M 109,108 L 127,137 L 143,109 Z" fill="none" stroke="black" stroke-width="1" /><path d="M 100,103 L 155,104 L 126,150 Z" fill="black" stroke="black" stroke-width="1" /><path d="M 200,99 L 201,119 L 222,118 L 221,98 Z" fill="none" stroke="black" stroke-width="1" /><path d="M 226,92 L 228,121 L 197,125 L 194,94 Z" fill="none" stroke="black" stroke-width="1" /><path d="M 150,35 L 135,64 L 167,64 Z" fill="none" stroke="black" stroke-width="1" /><circle cx="60.84895324707031" cy="53.04007339477539" fill="none" r="19.129735946655273" stroke="black" stroke-width="1" /><circle cx="61.020084381103516" cy="53.15961837768555" fill="none" r="25.860607147216797" stroke="black" stroke-width="1" /><path d="M 149,23 L 179,63 L 174,71 L 126,70 Z" fill="black" stroke="black" stroke-width="1" /><path d="M 0,0 L 0,220 L 260,220 L 260,0 Z" fill="none" stroke="black" stroke-width="1" /></svg>