<?xml version="1.0" encoding="utf-8" ?>
<svg xmlns="http://www.w3.org/2000/svg" xmlns:ev="http://www.w3.org/2001/xml-events" xmlns:xlink="http://www.w3.org/1999/xlink" baseProfile="full" height="222" version="1.1" width="260">
  <defs/>
  <path d="M 164.416110,206.427672 C 157.972377,204.527139 153.797247,202.018252 149.722181,197.597910 C 145.111588,192.596665 144.691871,191.098744 145.143728,181.257914 C 145.444134,174.715493 145.970423,172.753447 148.500000,168.745484 C 152.631686,162.199075 160.923715,158.000000 169.719403,158.000000 C 175.427380,158.000000 181.000000,159.454786 181.000000,160.944907 C 181.000000,161.288040 182.367461,162.376564 184.038802,163.363850 C 186.029060,164.539524 188.119043,167.363122 190.095811,171.546959 C 195.210250,182.371689 193.980657,192.500612 186.729523,199.277147 C 179.742364,205.806986 171.388377,208.484093 164.416110,206.427672" fill="none" stroke="black" stroke-width="5"/>
  <path d="M 36.367177,194.514464 C 36.052742,193.695060 37.866495,189.492045 40.397739,185.174430 C 42.928982,180.856815 45.000000,177.088591 45.000000,176.800599 C 45.000000,176.512606 46.723649,173.177157 48.830331,169.388488 C 60.029051,149.248647 59.531468,149.455311 67.345986,161.698273 C 70.435899,166.539223 73.316103,170.950000 73.746440,171.500000 C 74.176778,172.050000 76.533486,175.875000 78.983570,180.000000 C 81.433654,184.125000 83.722291,187.725000 84.069430,188.000000 C 85.185960,188.884504 87.000000,192.822337 87.000000,194.361545 C 87.000000,196.606390 37.227607,196.756710 36.367177,194.514464" fill="none" stroke="black" stroke-width="5"/>
  <path d="M 197.000000,142.495635 C 197.000000,140.938294 206.757235,121.381386 213.960933,108.500000 C 218.849334,99.758742 220.185080,98.794444 222.894855,102.050453 C 224.016088,103.397704 224.948433,105.217756 224.966731,106.095012 C 224.985029,106.972269 225.900000,108.504514 227.000000,109.500000 C 228.100000,110.495486 229.000000,111.721652 229.000000,112.224812 C 229.000000,112.727973 230.350000,115.101807 232.000000,117.500000 C 233.650000,119.898193 235.000000,122.341772 235.000000,122.930175 C 235.000000,123.518579 235.366654,124.000000 235.814788,124.000000 C 236.262921,124.000000 237.377634,125.462500 238.291928,127.250000 C 239.206222,129.037500 241.113662,132.467474 242.530682,134.872165 C 243.947703,137.276856 244.970490,140.201856 244.803542,141.372165 C 244.504902,143.465639 244.116482,143.504329 220.750000,143.768099 C 199.911614,144.003330 197.000000,143.847333 197.000000,142.495635" fill="none" stroke="black" stroke-width="5"/>
  <path d="M 128.421496,116.250000 C 128.611477,108.687500 128.819359,100.595694 128.883458,98.268208 L 129.000000,94.036416 L 145.484726,94.055410 C 165.356309,94.078307 164.516391,93.435437 164.187128,108.370148 C 164.067445,113.798730 163.778999,118.548570 163.546138,118.925348 C 163.313276,119.302126 163.484179,121.212917 163.925922,123.171550 C 165.429428,129.837897 164.991731,130.000000 145.488348,130.000000 L 128.076077,130.000000 L 128.421496,116.250000" fill="none" stroke="black" stroke-width="5"/>
  <path d="M 42.221061,72.133692 C 41.910699,71.324903 42.466322,69.276455 43.455778,67.581584 C 47.515212,60.628049 49.435124,57.241380 52.147299,52.250000 C 53.716284,49.362500 56.283716,44.637500 57.852701,41.750000 C 59.421687,38.862500 61.671687,34.798813 62.852701,32.719584 C 64.033716,30.640355 65.000000,28.277855 65.000000,27.469584 C 65.000000,24.680562 69.752753,25.772860 71.659071,29.000000 C 72.633750,30.650000 73.784192,32.000000 74.215608,32.000000 C 74.647023,32.000000 75.000000,32.681106 75.000000,33.513569 C 75.000000,35.032940 76.948295,39.065047 78.134212,40.000000 C 78.483029,40.275000 79.770086,42.637500 80.994339,45.250000 C 82.218592,47.862500 83.620697,50.000000 84.110127,50.000000 C 84.599557,50.000000 85.000000,50.862500 85.000000,51.916667 C 85.000000,52.970833 85.337500,53.983333 85.750000,54.166667 C 87.136344,54.782820 92.792856,64.780394 93.451308,67.778306 C 94.302374,71.653183 93.712512,71.843537 78.702943,72.537738 C 51.516089,73.795145 42.821669,73.698852 42.221061,72.133692" fill="none" stroke="black" stroke-width="5"/>
  <path d="M 190.827722,59.467398 C 183.643026,57.590563 179.095246,53.904098 175.101479,46.719584 C 173.512997,43.862014 173.000000,41.188640 173.000000,35.768183 C 173.000000,29.475026 173.389757,27.954102 176.183934,23.343732 C 178.049908,20.264889 180.533553,17.607422 182.183934,16.923812 C 183.732770,16.282263 185.000000,15.454778 185.000000,15.084956 C 185.000000,14.715134 187.620948,13.831097 190.824329,13.120429 C 195.324710,12.122023 197.614529,12.088387 200.897724,12.972460 C 205.325677,14.164784 211.409823,17.242471 213.411407,19.302552 C 215.774474,21.734680 219.000000,27.798617 219.000000,29.809017 C 219.000000,30.949139 219.450000,32.160081 220.000000,32.500000 C 220.550000,32.839919 221.000000,34.090800 221.000000,35.279736 C 221.000000,38.663846 218.631231,48.000000 217.772615,48.000000 C 217.347677,48.000000 216.985779,48.562500 216.968399,49.250000 C 216.913560,51.419177 212.649675,55.418899 207.990963,57.671250 C 202.275540,60.434491 196.745320,61.013233 190.827722,59.467398" fill="none" stroke="black" stroke-width="5"/>
  <path d="M 204.789838,53.106410 C 209.372575,50.767475 211.477060,48.495819 213.461862,43.745520 C 215.667197,38.467411 215.369682,34.134543 212.391565,28.158242 C 210.300789,23.962600 208.818970,22.435218 204.924809,20.461898 C 186.553327,11.152364 169.554971,32.433338 182.794566,48.167702 C 188.150282,54.532609 197.765399,56.691539 204.789838,53.106410" fill="none" stroke="black" stroke-width="5"/>
</svg>
