<?xml version="1.0" encoding="utf-8" ?>
<svg baseProfile="full" height="220" version="1.1" width="260" xmlns="http://www.w3.org/2000/svg" xmlns:ev="http://www.w3.org/2001/xml-events" xmlns:xlink="http://www.w3.org/1999/xlink"><defs /><rect fill="white" height="220" width="260" x="0" y="0" /><path d="M 111,157 L 102,162 L 98,179 L 104,190 L 121,193 L 133,181 L 132,167 L 120,157 Z" fill="none" stroke="black" stroke-width="5" /><path d="M 178,156 L 180,180 L 197,180 L 199,178 L 197,157 Z" fill="none" stroke="black" stroke-width="5" /><path d="M 44,112 L 36,118 L 33,133 L 40,144 L 58,146 L 68,136 L 67,122 L 59,112 Z" fill="none" stroke="black" stroke-width="5" /><path d="M 135,79 L 122,89 L 121,103 L 128,112 L 140,116 L 154,108 L 158,95 L 150,83 Z" fill="none" stroke="black" stroke-width="5" /><path d="M 216,76 L 206,91 L 208,101 L 217,109 L 232,109 L 241,101 L 241,86 L 230,76 Z" fill="none" stroke="black" stroke-width="5" /><path d="M 53,46 L 53,49 L 82,49 L 68,25 L 65,26 Z" fill="none" stroke="black" stroke-width="5" /><path d="M 188,22 L 174,47 L 203,48 Z" fill="none" stroke="black" stroke-width="5" /><path d="M 0,0 L 0,219 L 259,219 L 259,0 Z" fill="none" stroke="black" stroke-width="5" /></svg>