<?xml version="1.0" encoding="utf-8" ?>
<svg xmlns="http://www.w3.org/2000/svg" xmlns:ev="http://www.w3.org/2001/xml-events" xmlns:xlink="http://www.w3.org/1999/xlink" baseProfile="full" height="220" version="1.1" width="259">
  <defs/>
  <path d="M 200.728028,188.268131 L 184.956057,187.948991 L 185.228028,169.224495 L 185.500000,150.500000 L 203.000000,150.500000 L 220.500000,150.500000 L 220.500000,169.500000 C 220.500000,187.818788 220.428293,188.501564 218.500000,188.543636 C 217.400000,188.567635 209.402613,188.443658 200.728028,188.268131" fill="none" stroke="black" stroke-width="5"/>
  <path d="M 56.500000,187.276390 C 52.912889,186.394666 51.868083,184.882702 52.571015,181.590658 C 52.933977,179.890796 53.589813,178.050000 54.028429,177.500000 C 54.467044,176.950000 56.488911,173.350000 58.521466,169.500000 C 63.918888,159.276375 65.434561,156.559263 66.052103,156.000000 C 66.355760,155.725000 67.351122,153.893109 68.264018,151.929130 C 70.584230,146.937492 75.469921,141.582346 77.123423,142.218443 C 77.880540,142.509704 79.443216,144.492206 80.596036,146.624004 C 81.748855,148.755802 83.661355,152.187500 84.846036,154.250000 C 87.937305,159.631826 90.982611,164.971951 93.257499,169.000000 C 94.344665,170.925000 96.020390,173.625000 96.981333,175.000000 C 97.942275,176.375000 99.319275,179.157875 100.041333,181.184166 C 102.401109,187.806343 101.727397,188.017130 78.627555,187.883999 C 67.557400,187.820198 57.600000,187.546774 56.500000,187.276390" fill="none" stroke="black" stroke-width="5"/>
  <path d="M 60.639789,80.229858 C 54.448423,79.398691 45.000000,71.729492 45.000000,67.535183 C 45.000000,66.690832 44.594184,66.000000 44.098187,66.000000 C 42.667211,66.000000 41.732123,54.629701 42.834700,50.636496 C 46.011897,39.129640 55.545748,32.405446 67.309789,33.374299 C 73.762265,33.905707 76.788132,35.041927 81.031806,38.526948 C 89.161797,45.203518 92.158316,58.930598 87.465554,68.000000 C 85.719882,71.373748 80.251604,76.818530 76.834063,78.585809 C 73.965622,80.069138 65.696164,80.908656 60.639789,80.229858" fill="none" stroke="black" stroke-width="5"/>
  <path d="M 201.000000,76.279142 C 199.625000,76.032470 198.072500,75.418752 197.550000,74.915324 C 197.027500,74.411896 195.945324,74.000000 195.145164,74.000000 C 193.035297,74.000000 186.244345,66.518603 184.434229,62.200070 C 182.418595,57.391217 182.450713,47.532286 184.497926,42.647480 C 186.288322,38.375462 192.121430,32.533946 195.991627,31.137211 C 204.511302,28.062504 206.865492,27.728700 211.608171,28.922921 C 221.376116,31.382518 228.773793,38.946834 230.521355,48.262142 C 230.885938,50.205534 230.658178,54.329573 230.015223,57.426673 C 229.026968,62.187069 227.969020,63.966769 223.173106,68.936607 C 216.108006,76.257924 210.757713,78.029652 201.000000,76.279142" fill="none" stroke="black" stroke-width="5"/>
</svg>
