<?xml version="1.0" encoding="utf-8" ?>
<svg baseProfile="full" height="221" version="1.1" width="263" xmlns="http://www.w3.org/2000/svg" xmlns:ev="http://www.w3.org/2001/xml-events" xmlns:xlink="http://www.w3.org/1999/xlink"><defs /><rect fill="white" height="221" width="263" x="0" y="0" /><path d="M 211,170 L 197,196 L 230,198 L 215,170 Z" fill="none" stroke="black" stroke-width="5" /><path d="M 124,161 L 114,172 L 114,184 L 123,196 L 139,197 L 149,188 L 149,172 L 139,161 Z" fill="none" stroke="black" stroke-width="5" /><path d="M 34,156 L 70,156 L 51,130 Z" fill="none" stroke="black" stroke-width="5" /><path d="M 140,103 L 131,101 L 116,103 L 114,123 L 139,124 Z" fill="none" stroke="black" stroke-width="5" /><path d="M 216,87 L 216,108 L 239,107 L 239,87 Z" fill="none" stroke="black" stroke-width="5" /><ellipse cx="61.93776321411133" cy="51.23079299926758" fill="none" rx="18.929454803466797" ry="19.269575119018555" stroke="black" stroke-width="5" transform="rotate(45.94316864013672, 61.93776321411133, 51.23079299926758)" /><path d="M 165,26 L 153,34 L 149,48 L 158,62 L 171,64 L 184,56 L 188,44 L 180,30 Z" fill="none" stroke="black" stroke-width="5" /><path d="M 0,0 L 0,220 L 262,220 L 262,0 Z" fill="none" stroke="black" stroke-width="5" /></svg>