<?xml version="1.0" encoding="utf-8" ?>
<svg baseProfile="full" height="222" version="1.1" width="259" xmlns="http://www.w3.org/2000/svg" xmlns:ev="http://www.w3.org/2001/xml-events" xmlns:xlink="http://www.w3.org/1999/xlink"><defs /><rect fill="white" height="222" width="259" x="0" y="0" /><path d="M 56,167 L 41,193 L 71,193 Z" fill="none" stroke="black" stroke-width="5" /><path d="M 135,143 L 120,153 L 118,165 L 126,178 L 140,181 L 153,172 L 156,161 L 148,147 Z" fill="none" stroke="black" stroke-width="5" /><path d="M 234,146 L 217,120 L 201,147 Z" fill="none" stroke="black" stroke-width="5" /><path d="M 90,88 L 76,92 L 68,106 L 73,119 L 88,126 L 99,122 L 106,110 L 102,96 Z" fill="none" stroke="black" stroke-width="5" /><path d="M 165,53 L 166,76 L 192,75 L 191,52 Z" fill="none" stroke="black" stroke-width="5" /><path d="M 38,33 L 40,58 L 60,58 L 59,33 Z" fill="none" stroke="black" stroke-width="5" /><path d="M 0,0 L 0,221 L 258,221 L 258,0 Z" fill="none" stroke="black" stroke-width="5" /></svg>