<?xml version="1.0" encoding="utf-8" ?>
<svg baseProfile="full" height="223" version="1.1" width="260" xmlns="http://www.w3.org/2000/svg" xmlns:ev="http://www.w3.org/2001/xml-events" xmlns:xlink="http://www.w3.org/1999/xlink"><defs /><rect fill="white" height="223" width="260" x="0" y="0" /><path d="M 156,168 L 141,195 L 172,196 Z" fill="none" stroke="black" stroke-width="1" /><path d="M 158,153 L 186,202 L 128,204 Z" fill="black" stroke="black" stroke-width="1" /><circle cx="51.765625" cy="170.328125" fill="none" r="19.59697723388672" stroke="black" stroke-width="1" /><circle cx="52.219478607177734" cy="170.3573455810547" fill="black" r="26.78746223449707" stroke="black" stroke-width="1" /><path d="M 197,127 L 230,128 L 213,101 Z" fill="none" stroke="black" stroke-width="1" /><path d="M 212,92 L 236,134 L 188,133 Z" fill="black" stroke="black" stroke-width="1" /><circle cx="143.125" cy="105.70833587646484" fill="none" r="19.10552978515625" stroke="black" stroke-width="1" /><circle cx="142.7469940185547" cy="105.49397277832031" fill="black" r="25.846399307250977" stroke="black" stroke-width="1" /><path d="M 75,37 L 51,37 L 51,58 L 72,58 Z" fill="none" stroke="black" stroke-width="1" /><path d="M 43,29 L 82,28 L 83,65 L 46,66 Z" fill="black" stroke="black" stroke-width="1" /><circle cx="200.17791748046875" cy="38.91257858276367" fill="none" r="19.295019149780273" stroke="black" stroke-width="1" /><circle cx="200.299072265625" cy="38.788551330566406" fill="black" r="26.470924377441406" stroke="black" stroke-width="1" /><path d="M 0,0 L 0,222 L 259,222 L 259,0 Z" fill="none" stroke="black" stroke-width="1" /></svg>