<?xml version="1.0" encoding="utf-8" ?>
<svg xmlns="http://www.w3.org/2000/svg" xmlns:ev="http://www.w3.org/2001/xml-events" xmlns:xlink="http://www.w3.org/1999/xlink" baseProfile="full" height="221" version="1.1" width="261">
  <defs/>
  <path d="M 209.000000,200.886059 C 204.261551,198.216227 199.321211,192.528820 197.915699,188.125616 C 197.279182,186.131527 196.362756,184.072500 195.879198,183.550000 C 194.383761,181.934135 194.907481,174.264944 196.865086,169.112946 C 199.575155,161.980623 202.743503,158.474994 209.724619,154.884474 C 217.021829,151.131381 227.354261,151.718267 233.500000,156.234925 C 242.999952,163.216678 245.346735,167.570853 245.299582,178.127637 C 245.272295,184.236902 244.791197,186.621475 242.882757,190.106689 C 240.320877,194.785221 236.568011,198.479847 231.606367,201.208084 C 227.035492,203.721451 213.695012,203.531418 209.000000,200.886059" fill="none" stroke="black" stroke-width="5"/>
  <path d="M 38.635323,194.218957 C 38.275785,193.637212 38.720437,192.422420 39.623439,191.519419 C 40.903876,190.238981 41.036511,189.375548 40.226018,187.596710 C 39.633415,186.296089 39.551007,184.726486 40.034270,183.944551 C 41.191515,182.072088 40.943025,162.802039 39.741784,161.262735 C 37.512572,158.406158 41.956291,155.356291 44.557532,157.957532 C 45.147726,158.547726 51.685885,158.643634 61.600375,158.207532 C 70.447295,157.818390 78.456960,157.650417 79.399629,157.834260 C 82.107229,158.362307 82.919710,162.107552 81.953531,169.606820 C 81.465079,173.398069 81.050714,180.185942 81.032719,184.690983 C 81.014723,189.196024 80.592567,193.133773 80.094594,193.441537 C 78.253417,194.579448 39.309440,195.309702 38.635323,194.218957" fill="none" stroke="black" stroke-width="5"/>
  <path d="M 124.654988,148.171259 C 123.744744,147.165452 123.000000,146.020130 123.000000,145.626099 C 123.000000,145.232068 120.750000,141.575324 118.000000,137.500000 C 115.250000,133.424676 113.000000,129.836867 113.000000,129.527090 C 113.000000,129.217313 111.200000,126.000999 109.000000,122.379726 C 106.800000,118.758452 105.000000,115.592710 105.000000,115.344742 C 105.000000,115.096775 103.875000,113.238306 102.500000,111.214812 C 99.623703,106.981960 99.321071,104.474507 101.581787,103.606989 C 103.958079,102.695120 153.805411,102.876131 154.375589,103.798699 C 154.647082,104.237983 153.811611,106.375483 152.518988,108.548699 C 151.226364,110.721915 148.078162,116.465064 145.522984,121.311253 C 142.967805,126.157442 139.104834,132.864708 136.938602,136.216289 C 134.772371,139.567870 133.000000,142.733339 133.000000,143.250666 C 133.000000,144.902509 128.911706,150.000000 127.586893,150.000000 C 126.884588,150.000000 125.565231,149.177067 124.654988,148.171259" fill="none" stroke="black" stroke-width="5"/>
  <path d="M 195.957007,123.448197 C 194.480874,121.669565 194.211532,95.384819 195.654741,93.950417 C 196.988647,92.624651 225.861416,92.461416 227.172231,93.772231 C 227.812019,94.412019 228.475685,100.108671 228.735645,107.191968 C 229.156920,118.670692 229.041394,119.685293 227.021098,122.250000 L 224.854840,125.000000 L 211.049865,125.000000 C 199.793905,125.000000 197.007089,124.713468 195.957007,123.448197" fill="none" stroke="black" stroke-width="5"/>
  <path d="M 59.542134,78.068174 C 59.179041,77.480678 57.290490,77.000000 55.345354,77.000000 C 49.476266,77.000000 42.201513,70.934151 38.875839,63.267357 C 35.187146,54.763685 37.504402,42.649444 44.076923,36.076923 C 50.831904,29.321943 62.803972,27.041787 70.563115,31.032461 C 73.003402,32.287547 75.000000,33.641203 75.000000,34.040586 C 75.000000,34.439969 75.838294,34.985956 76.862876,35.253890 C 77.887458,35.521824 80.178994,37.853258 81.955178,40.434853 C 84.912590,44.733304 85.178152,45.756345 85.107998,52.580654 C 85.048290,58.388754 84.511381,61.009481 82.674112,64.460781 C 78.419348,72.453334 74.818732,75.334421 67.000000,77.002660 C 65.075000,77.413387 62.758018,78.061491 61.851151,78.442892 C 60.944283,78.824292 59.905226,78.655669 59.542134,78.068174" fill="none" stroke="black" stroke-width="5"/>
  <path d="M 127.000000,68.125459 C 127.000000,66.544461 129.186110,61.031961 131.858023,55.875459 C 134.529936,50.718956 138.691593,42.675000 141.106149,38.000000 C 143.520705,33.325000 145.849943,29.050000 146.282232,28.500000 C 146.714521,27.950000 147.657848,26.646143 148.378515,25.602541 C 150.701265,22.238950 154.471310,24.259064 158.944966,31.264391 C 161.135125,34.693976 163.393482,38.043507 163.963537,38.707794 C 164.533592,39.372080 165.000000,40.167712 165.000000,40.475864 C 165.000000,40.784016 166.859355,44.065509 169.131900,47.768070 C 180.491916,66.276461 180.216461,65.508566 176.685549,68.825686 C 174.443734,70.931761 173.627751,71.000000 150.685549,71.000000 L 127.000000,71.000000 L 127.000000,68.125459" fill="none" stroke="black" stroke-width="5"/>
</svg>
