<?xml version="1.0" encoding="utf-8" ?>
<svg xmlns="http://www.w3.org/2000/svg" xmlns:ev="http://www.w3.org/2001/xml-events" xmlns:xlink="http://www.w3.org/1999/xlink" baseProfile="full" height="222" version="1.1" width="259">
  <defs/>
  <path d="M 130.667000,187.381774 C 130.575150,187.316750 108.900000,186.988348 82.500000,186.651992 C 56.100000,186.315635 34.356434,186.031337 34.180964,186.020217 C 34.005494,186.009098 34.080778,180.937500 34.348261,174.750000 C 34.812081,164.020801 36.204278,155.532000 38.118129,151.763569 C 38.603158,150.808532 39.000000,149.040481 39.000000,147.834567 C 39.000000,145.521408 40.645501,139.687669 42.122756,136.763569 C 42.605240,135.808532 43.000000,133.896032 43.000000,132.513569 C 43.000000,131.131106 43.390004,130.000000 43.866675,130.000000 C 44.343346,130.000000 45.674867,127.862500 46.825612,125.250000 C 50.866133,116.076925 57.667813,104.059460 60.320432,101.406841 C 61.794194,99.933078 63.000000,98.251073 63.000000,97.669052 C 63.000000,97.087030 64.355494,95.235894 66.012209,93.555415 C 67.668924,91.874937 70.481424,88.977306 72.262209,87.116236 C 77.881398,81.243711 83.395917,76.324950 86.500000,74.416618 C 88.150000,73.402228 91.346346,71.093512 93.602992,69.286137 C 95.859637,67.478762 98.443324,66.000000 99.344518,66.000000 C 100.245712,66.000000 101.545112,65.100000 102.232073,64.000000 C 102.919034,62.900000 104.203103,62.000000 105.085559,62.000000 C 105.968015,62.000000 107.504514,61.100000 108.500000,60.000000 C 109.495486,58.900000 110.915231,58.000000 111.654988,58.000000 C 112.394744,58.000000 113.000000,57.600081 113.000000,57.111291 C 113.000000,56.622501 114.462500,55.943407 116.250000,55.602193 C 118.037500,55.260980 121.907183,53.860899 124.849297,52.490902 C 127.791410,51.120906 131.391410,49.994659 132.849297,49.988131 C 134.307183,49.981603 137.975000,49.267082 141.000000,48.400307 C 151.461362,45.402737 182.994946,43.087680 187.500000,44.986481 C 188.600000,45.450112 193.677610,46.385240 198.783577,47.064543 C 203.889544,47.743846 208.303602,48.682221 208.592594,49.149820 C 208.881586,49.617419 209.878976,50.002071 210.809017,50.004603 C 214.804889,50.015480 237.720913,59.982845 243.000000,64.006128 C 245.174461,65.663322 245.337230,66.175853 244.250000,67.942142 C 243.562500,69.059038 243.000000,70.660074 243.000000,71.500000 C 243.000000,72.339926 242.577116,73.808532 242.060258,74.763569 C 239.243930,79.967510 235.000000,89.202884 235.000000,90.127660 C 235.000000,90.714974 233.237096,94.864015 231.082436,99.347752 C 228.927776,103.831488 225.726770,111.100000 223.969089,115.500000 C 222.211409,119.900000 220.434165,123.950000 220.019659,124.500000 C 219.605152,125.050000 218.316214,128.077504 217.155352,131.227787 C 215.994489,134.378069 214.637139,137.753069 214.139018,138.727787 C 213.640897,139.702504 212.754591,141.625000 212.169449,143.000000 C 211.584308,144.375000 208.831805,150.364302 206.052778,156.309561 C 203.273750,162.254819 201.000000,167.767319 201.000000,168.559561 C 201.000000,169.351802 200.659850,170.000000 200.244111,170.000000 C 199.479693,170.000000 197.983616,173.016499 196.028412,178.500000 C 194.126416,183.834278 192.794975,185.817172 190.626099,186.545583 C 188.983917,187.097106 131.399277,187.900182 130.667000,187.381774" fill="none" stroke="black" stroke-width="5"/>
</svg>
