<?xml version="1.0" encoding="utf-8" ?>
<svg xmlns="http://www.w3.org/2000/svg" xmlns:ev="http://www.w3.org/2001/xml-events" xmlns:xlink="http://www.w3.org/1999/xlink" baseProfile="full" height="220" version="1.1" width="257">
  <defs/>
  <path d="M 98.000000,197.359587 C 95.525000,194.867348 92.237691,192.167503 90.694868,191.359932 C 89.152045,190.552360 86.245793,188.341005 84.236530,186.445810 C 82.227266,184.550614 80.308124,183.000000 79.971770,183.000000 C 79.635416,183.000000 77.816668,181.610881 75.930108,179.913069 C 71.060637,175.530780 49.923962,159.635264 47.868998,158.810136 C 46.313482,158.185551 44.440110,154.936631 42.500645,149.500000 C 42.108231,148.400000 41.351107,142.325000 40.818147,136.000000 C 38.353636,106.751961 35.675485,84.025343 33.955933,77.767706 C 32.700633,73.199530 34.260887,69.614573 39.092671,65.965153 C 43.144039,62.905177 48.103661,58.887924 49.723477,57.354287 C 50.396389,56.717176 52.487327,55.243900 54.370006,54.080341 C 56.252685,52.916781 58.524994,50.847703 59.419582,49.482389 C 60.314170,48.117075 61.598232,46.995149 62.273053,46.989221 C 62.947874,46.983292 65.300000,45.273953 67.500000,43.190690 C 69.700000,41.107426 72.522075,38.700703 73.771278,37.842415 C 75.020481,36.984127 77.720481,34.743018 79.771278,32.862173 C 81.822075,30.981328 85.473196,27.880403 87.884881,25.971228 C 90.296565,24.062052 93.606655,21.262500 95.240636,19.750000 C 99.595228,15.719157 100.253195,15.828594 115.614077,23.138624 C 120.076819,25.262381 124.219516,27.000000 124.820071,27.000000 C 125.420625,27.000000 128.069290,28.269291 130.705994,29.820648 C 133.342697,31.372004 137.637500,33.270246 140.250000,34.038963 C 142.862500,34.807680 145.000000,35.788389 145.000000,36.218315 C 145.000000,36.648242 145.873442,37.000000 146.940983,37.000000 C 148.008524,37.000000 149.182616,37.486462 149.550077,38.081027 C 149.917539,38.675592 151.224104,38.909585 152.453556,38.601013 C 154.023566,38.206965 155.382404,38.778148 157.018776,40.519986 C 158.300194,41.883994 159.925384,43.000000 160.630308,43.000000 C 161.335232,43.000000 164.201593,44.350000 167.000000,46.000000 C 169.798407,47.650000 172.569440,49.000000 173.157852,49.000000 C 173.746263,49.000000 175.863961,49.840811 177.863845,50.868468 C 181.277243,52.622471 183.434043,53.573617 189.500000,56.000000 C 195.279393,58.311757 197.353611,59.610045 198.803902,61.823470 C 199.773631,63.303462 202.119302,76.547294 205.181567,97.832235 C 207.845648,116.349506 210.501917,134.650000 211.084387,138.500000 C 211.666858,142.350000 212.364138,148.200000 212.633899,151.500000 C 212.903660,154.800000 213.590776,158.453353 214.160824,159.618563 C 216.561247,164.525167 215.503298,165.238927 198.500000,170.184356 C 196.300000,170.824229 194.072500,171.719514 193.550000,172.173880 C 193.027500,172.628246 191.340000,173.000000 189.800000,173.000000 C 188.260000,173.000000 187.000000,173.378392 187.000000,173.840870 C 187.000000,174.303349 184.506066,175.239858 181.457924,175.922003 C 178.409782,176.604147 174.698291,177.793941 173.210165,178.565990 C 171.722040,179.338039 168.028474,180.698705 165.002241,181.589692 C 157.112033,183.912737 150.434598,186.135104 134.001384,191.907319 C 126.027146,194.708293 118.354646,197.000000 116.951384,197.000000 C 115.548123,197.000000 113.972500,197.390188 113.450000,197.867085 C 112.721029,198.532432 102.917640,202.207872 102.571861,201.945466 C 102.532338,201.915472 100.475000,199.851826 98.000000,197.359587" fill="none" stroke="black" stroke-width="5"/>
</svg>
