<?xml version="1.0" encoding="utf-8" ?>
<svg xmlns="http://www.w3.org/2000/svg" xmlns:ev="http://www.w3.org/2001/xml-events" xmlns:xlink="http://www.w3.org/1999/xlink" baseProfile="full" height="220" version="1.1" width="257">
  <defs/>
  <path d="M 149.500000,196.280761 C 148.400000,196.012781 146.824177,195.196303 145.998170,194.466366 C 145.172164,193.736428 143.278060,192.676017 141.789050,192.109897 C 135.633219,189.769454 133.050978,177.655851 135.381423,162.050956 C 137.278365,149.348846 136.027060,140.867520 131.813431,137.867151 C 129.520571,136.234491 127.877056,135.913114 123.718241,136.284200 C 119.141656,136.692563 107.330971,140.211067 101.500000,142.903204 C 100.400000,143.411070 96.007420,144.380137 91.738712,145.056687 C 82.252737,146.560125 67.771416,144.900723 61.500000,141.591660 C 56.355342,138.877123 51.000000,134.872782 51.000000,133.740513 C 51.000000,133.254659 50.325676,132.182819 49.501501,131.358644 C 48.677327,130.534470 47.742319,128.654113 47.423705,127.180073 C 46.861653,124.579788 46.078169,122.422642 43.998663,117.750000 C 43.447928,116.512500 43.162490,112.575000 43.364356,109.000000 C 43.746913,102.225023 46.872193,90.000000 48.221634,90.000000 C 48.649735,90.000000 49.000000,88.901558 49.000000,87.559017 C 49.000000,86.216476 49.450000,84.839919 50.000000,84.500000 C 50.550000,84.160081 51.000000,83.208832 51.000000,82.386114 C 51.000000,80.227466 58.851904,68.980849 60.829217,68.307305 C 61.748148,67.994285 63.627100,66.512555 65.004666,65.014573 C 66.382232,63.516590 69.307232,61.320787 71.504666,60.135011 C 73.702100,58.949235 76.175000,57.570155 77.000000,57.070389 C 83.708620,53.006457 97.803308,48.000000 102.535883,48.000000 C 104.771147,48.000000 107.082912,47.517088 107.673137,46.926863 C 108.263363,46.336637 112.412749,45.707242 116.893995,45.528206 C 121.922248,45.327317 125.911376,44.632863 127.313180,43.714366 C 130.725147,41.478760 164.292526,40.914770 166.450000,43.056800 C 166.972500,43.575560 168.681738,44.000000 170.248306,44.000000 C 171.814875,44.000000 174.959398,44.900000 177.236136,46.000000 C 179.512873,47.100000 182.191136,48.000000 183.187829,48.000000 C 184.184523,48.000000 185.000000,48.419676 185.000000,48.932612 C 185.000000,49.445549 185.947434,50.165928 187.105408,50.533455 C 189.378976,51.255058 201.136983,60.839988 204.660100,64.843747 C 206.881601,67.368316 213.000000,78.598440 213.000000,80.151363 C 213.000000,80.630102 213.858470,82.929393 214.907711,85.260898 C 215.956952,87.592404 217.109723,90.850000 217.469425,92.500000 C 220.106703,104.597559 221.254754,115.874884 220.014467,117.500000 C 219.269328,118.476337 218.728910,120.833300 217.148395,130.000000 C 216.721657,132.475000 215.613694,135.940153 214.686254,137.700340 C 213.758814,139.460527 213.000000,141.353043 213.000000,141.905931 C 213.000000,142.458819 211.863594,144.585769 210.474654,146.632487 C 209.085713,148.679206 207.662489,151.496569 207.311933,152.893296 C 206.961377,154.290023 206.304566,155.897919 205.852354,156.466400 C 205.400142,157.034880 203.959941,158.850000 202.651907,160.500000 C 201.343874,162.150000 199.978441,164.444209 199.617611,165.598243 C 199.256781,166.752277 197.832577,168.210884 196.452713,168.839591 C 195.072850,169.468299 193.645124,170.774090 193.279989,171.741348 C 192.914854,172.708607 189.327484,176.681946 185.308054,180.570991 C 181.288624,184.460036 178.000000,188.172536 178.000000,188.820991 C 178.000000,189.469446 177.325000,190.000000 176.500000,190.000000 C 175.675000,190.000000 175.000000,190.450000 175.000000,191.000000 C 175.000000,191.550000 174.318894,192.000000 173.486431,192.000000 C 172.653968,192.000000 171.191468,192.408477 170.236431,192.907726 C 164.343253,195.988409 154.723203,197.553228 149.500000,196.280761" fill="none" stroke="black" stroke-width="5"/>
</svg>
