<?xml version="1.0" encoding="utf-8" ?>
<svg xmlns="http://www.w3.org/2000/svg" xmlns:ev="http://www.w3.org/2001/xml-events" xmlns:xlink="http://www.w3.org/1999/xlink" baseProfile="full" height="219" version="1.1" width="258">
  <defs/>
  <path d="M 56.975911,206.683436 C 49.511772,204.176880 43.604798,199.519293 39.541928,192.936923 C 36.027609,187.243275 35.604488,185.864071 35.582569,180.031007 C 35.553210,172.218117 37.409561,168.094224 43.345982,162.784547 C 47.986348,158.634092 60.631982,152.000000 63.903041,152.000000 C 65.071294,152.000000 66.808532,151.579850 67.763569,151.066334 C 75.294651,147.016930 91.544069,147.026008 114.406092,151.092393 C 121.137776,152.289733 121.458906,152.086656 127.993406,142.500000 C 131.191361,137.808335 140.247437,125.863074 142.488931,123.379929 C 143.045019,122.763890 145.968874,119.388890 148.986388,115.879929 C 156.826981,106.762377 176.900789,87.166264 179.122263,86.461195 C 180.155018,86.133411 181.000000,85.445549 181.000000,84.932612 C 181.000000,84.419676 181.900000,84.000000 183.000000,84.000000 C 184.100000,84.000000 185.000000,83.610249 185.000000,83.133887 C 185.000000,82.043992 198.393576,76.000000 200.808801,76.000000 C 201.793960,76.000000 203.027500,75.584580 203.550000,75.076845 C 204.072500,74.569110 207.425000,73.613635 211.000000,72.953567 C 214.575000,72.293500 218.400000,71.421274 219.500000,71.015287 C 224.055519,69.333943 228.731222,67.999961 230.070998,67.999371 C 232.884395,67.998133 242.711060,59.228319 244.850015,54.809827 C 248.628106,47.005334 246.457309,40.718193 238.169423,35.461250 C 234.063093,32.856636 233.388425,32.743580 225.140421,33.277945 C 220.356286,33.587896 215.105046,34.383186 213.470997,35.045258 C 207.499636,37.464689 205.460408,38.535741 203.561439,40.250000 C 202.495230,41.212500 201.231342,42.000000 200.752800,42.000000 C 199.788389,42.000000 192.353244,47.596524 190.000984,50.093023 C 188.055596,52.157700 184.549575,54.000000 182.565741,54.000000 C 180.100296,54.000000 180.605526,48.719217 183.314451,46.174314 C 184.587399,44.978441 186.049899,43.999450 186.564451,43.998779 C 187.079003,43.998107 188.807493,42.873107 190.405539,41.498779 C 192.003586,40.124450 193.621093,39.000000 194.000000,39.000000 C 194.378907,39.000000 195.952206,37.914492 197.496220,36.587761 C 199.040233,35.261029 201.247726,33.730876 202.401759,33.187421 C 210.092187,29.565854 214.271064,28.000000 216.245703,28.000000 C 217.492829,28.000000 219.988679,27.576839 221.792038,27.059643 C 226.341452,25.754888 241.000000,28.843618 241.000000,31.106989 C 241.000000,31.598145 242.102099,32.000000 243.449109,32.000000 C 246.290434,32.000000 251.000000,37.486987 251.000000,40.797338 C 251.000000,41.957044 251.514903,44.035983 252.144229,45.417203 C 253.015503,47.329441 252.982907,49.368333 252.007585,53.964256 C 251.303106,57.283915 250.448053,60.000000 250.107468,60.000000 C 249.766883,60.000000 248.915437,61.237500 248.215366,62.750000 C 246.914605,65.560286 240.958843,70.000000 238.489677,70.000000 C 237.735273,70.000000 236.861316,70.415379 236.547549,70.923063 C 236.233783,71.430748 234.519725,72.153213 232.738532,72.528541 C 230.957340,72.903869 228.150000,73.814317 226.500000,74.551758 C 222.304971,76.426660 212.265818,79.097015 207.500000,79.605645 C 205.300000,79.840439 203.350000,80.475221 203.166667,81.016272 C 202.983333,81.557322 201.558333,82.000000 200.000000,82.000000 C 198.441667,82.000000 197.016667,82.366117 196.833333,82.813594 C 196.650000,83.261071 194.025000,84.986729 191.000000,86.648390 C 178.232222,93.661852 179.057132,93.030475 165.419065,106.227763 C 158.911776,112.524738 158.549987,112.932735 154.980081,118.000000 C 153.623912,119.925000 150.823597,123.056485 148.757160,124.958855 C 146.690722,126.861225 145.000000,128.982892 145.000000,129.673671 C 145.000000,130.364450 144.101470,131.410511 143.003266,131.998252 C 141.905063,132.585993 140.145235,134.755154 139.092537,136.818612 C 138.039840,138.882069 134.946547,142.910576 132.218553,145.770849 C 126.654610,151.604587 126.806921,153.292712 133.000000,154.431907 C 134.925000,154.786003 138.750000,155.536781 141.500000,156.100302 C 155.336705,158.935674 178.519369,158.730204 191.499626,155.657150 C 199.768662,153.699470 202.624277,153.583051 203.601227,155.163789 C 204.842245,157.171798 199.404081,160.828257 194.268737,161.438677 C 191.645932,161.750440 186.956998,162.462728 183.848885,163.021539 C 176.104290,164.413947 150.055243,164.455243 148.677297,163.077297 C 148.084784,162.484784 146.115000,162.000000 144.300000,162.000000 C 142.485000,162.000000 141.000000,161.542852 141.000000,160.984116 C 141.000000,160.425379 139.762500,160.021486 138.250000,160.086576 C 136.737500,160.151665 132.747503,159.875979 129.383340,159.473940 C 123.912165,158.820100 122.936021,158.987427 120.133340,161.059539 C 118.410003,162.333657 117.000000,163.796845 117.000000,164.311068 C 117.000000,165.352132 109.101933,176.644365 105.085779,181.345384 C 99.370167,188.035665 87.265852,199.140778 83.500000,201.149275 C 79.597587,203.230606 68.002739,206.835766 63.000000,207.523295 C 61.625000,207.712262 58.914160,207.334325 56.975911,206.683436" fill="none" stroke="black" stroke-width="5"/>
  <path d="M 74.886936,114.549125 C 67.694337,112.565786 61.215746,108.947054 56.035836,104.019509 C 45.309803,93.816048 40.525905,82.257638 40.509423,66.506031 C 40.494968,52.690587 43.901458,43.583697 52.391155,34.741484 C 60.534510,26.259994 69.706569,21.161260 80.776052,18.962362 C 91.952073,16.742302 105.065780,19.198094 113.680175,25.124287 C 115.979272,26.705929 118.246188,28.000000 118.717767,28.000000 C 120.060723,28.000000 128.405592,37.021322 131.667994,42.000000 C 134.903319,46.937357 136.282365,51.039555 138.139312,61.250000 C 140.139405,72.247534 136.780788,85.755113 129.623158,95.500000 C 124.627725,102.301124 112.938130,112.000000 109.736491,112.000000 C 108.964754,112.000000 108.024931,112.308402 107.647995,112.685338 C 104.395690,115.937643 84.108024,117.091815 74.886936,114.549125" fill="none" stroke="black" stroke-width="5"/>
</svg>
