<?xml version="1.0" encoding="utf-8" ?>
<svg xmlns="http://www.w3.org/2000/svg" xmlns:ev="http://www.w3.org/2001/xml-events" xmlns:xlink="http://www.w3.org/1999/xlink" baseProfile="full" height="216" version="1.1" width="260">
  <defs/>
  <path d="M 114.268785,192.076804 C 100.153995,187.266096 89.765603,164.049042 91.489792,141.167949 C 91.835113,136.585320 92.494314,131.860320 92.954685,130.667949 C 93.415055,129.475577 94.360611,126.587500 95.055921,124.250000 C 95.751230,121.912500 96.698092,120.000000 97.160060,120.000000 C 97.622027,120.000000 98.000000,119.303131 98.000000,118.451403 C 98.000000,117.599675 99.880896,114.112175 102.179769,110.701403 L 106.359538,104.500000 L 106.124539,95.774943 C 105.903422,87.565295 107.188353,76.990797 108.952730,72.500000 C 111.555139,65.876193 114.446611,60.000000 115.103550,60.000000 C 115.522471,60.000000 116.137443,59.142317 116.470154,58.094038 C 117.445084,55.022306 125.416712,47.650371 130.658753,44.972826 C 134.747871,42.884174 136.898226,42.500000 144.500000,42.500000 C 152.382688,42.500000 154.206440,42.852350 159.190411,45.338196 C 162.320137,46.899204 167.566006,50.836704 170.847899,54.088196 C 177.488682,60.667465 179.210150,61.123351 186.167095,58.145083 C 192.683445,55.355434 208.489446,51.590104 210.478833,52.353504 C 212.042964,52.953717 212.074602,53.255042 210.778455,55.207145 C 208.855535,58.103216 208.081299,58.456153 197.000000,61.488079 C 184.110794,65.014661 182.000000,66.027422 182.000000,68.685094 C 182.000000,69.893374 182.400280,71.129353 182.889512,71.431715 C 183.378744,71.734076 184.017161,73.448134 184.308218,75.240732 C 184.599275,77.033329 185.533187,81.425000 186.383577,85.000000 C 189.754731,99.172167 187.699742,123.352169 182.006740,136.500000 C 181.054141,138.700000 179.691426,142.300000 178.978482,144.500000 C 178.265539,146.700000 176.896038,149.900848 175.935146,151.612995 C 174.974255,153.325141 173.583255,155.800141 172.844035,157.112995 C 172.104816,158.425848 171.229867,159.725000 170.899704,160.000000 C 170.569541,160.275000 169.721169,161.596656 169.014433,162.937014 C 167.570585,165.675340 167.218657,166.160004 163.294439,170.814403 C 150.526512,185.958067 136.505938,194.143612 123.701210,193.929872 C 121.390544,193.891302 117.145953,193.057421 114.268785,192.076804" fill="none" stroke="black" stroke-width="5"/>
</svg>
