<?xml version="1.0" encoding="utf-8" ?>
<svg xmlns="http://www.w3.org/2000/svg" xmlns:ev="http://www.w3.org/2001/xml-events" xmlns:xlink="http://www.w3.org/1999/xlink" baseProfile="full" height="218" version="1.1" width="256">
  <defs/>
  <path d="M 178.000000,197.698225 C 173.323605,193.838117 171.116460,182.982383 172.989628,173.054968 C 173.731201,169.124781 174.711906,165.678052 175.168971,165.395570 C 175.626037,165.113088 176.000000,163.873524 176.000000,162.640983 C 176.000000,161.408442 176.374140,159.972500 176.831422,159.450000 C 178.470480,157.577177 180.000000,150.157421 180.000000,144.079111 C 180.000000,138.469635 179.611398,137.318020 175.848974,131.777605 C 167.923730,120.107165 164.691237,112.379736 164.202437,103.935995 C 163.487478,91.585514 167.672189,81.805440 182.629473,60.870229 C 188.582476,52.538008 190.000000,49.209635 190.000000,43.564084 C 190.000000,38.904204 187.436135,31.436135 185.000000,29.000000 C 184.725000,28.725000 184.007757,27.600000 183.406128,26.500000 C 182.804498,25.400000 181.720978,23.547110 180.998307,22.382466 C 179.276443,19.607542 180.354163,16.998254 183.218615,17.006833 C 185.712179,17.014302 188.032069,19.940272 192.727538,29.000000 C 197.672819,38.541731 198.164513,41.538913 196.061050,49.319841 C 195.047045,53.070753 193.362168,57.120753 192.316880,58.319841 C 191.271591,59.518928 189.618379,62.264203 188.643074,64.420450 C 186.791885,68.513143 184.698369,71.522801 179.250000,77.924019 C 177.462500,80.024129 176.000000,82.437861 176.000000,83.287867 C 176.000000,84.137874 175.662402,84.983333 175.249782,85.166667 C 174.837162,85.350000 173.495686,88.655459 172.268725,92.512131 C 169.831545,100.172848 170.031024,109.690939 172.649817,110.695864 C 173.392418,110.980826 174.000000,111.892063 174.000000,112.720834 C 174.000000,114.065412 177.726524,121.726524 179.000000,123.000000 C 179.865360,123.865360 184.046796,131.350343 185.703719,135.000000 C 187.751603,139.510814 188.592691,147.515663 187.114744,148.429084 C 186.501635,148.808007 186.000000,150.238823 186.000000,151.608677 C 186.000000,152.978531 185.249064,155.539473 184.331252,157.299660 C 181.634742,162.471053 180.650719,167.891049 180.573019,178.000000 C 180.516760,185.319423 180.921436,188.347261 182.336046,191.191214 C 185.265194,197.080019 182.421310,201.347775 178.000000,197.698225" fill="none" stroke="black" stroke-width="5"/>
  <path d="M 75.612670,190.376647 C 74.725701,187.773539 74.000000,183.551468 74.000000,180.994269 C 74.000000,174.595387 78.696577,163.440263 84.735915,155.494750 C 85.156162,154.941862 86.962500,151.704185 88.750000,148.299912 C 92.774898,140.634539 93.325173,131.799529 90.000000,128.230375 C 88.900000,127.049663 88.000000,125.820995 88.000000,125.500000 C 88.000000,125.179005 87.122436,123.974419 86.049859,122.823142 C 84.977281,121.671865 83.353205,119.103181 82.440800,117.114956 C 81.528396,115.126730 80.155959,112.193363 79.390942,110.596362 C 78.625924,108.999361 78.000000,106.104322 78.000000,104.162941 C 78.000000,100.847465 81.348477,89.700901 83.005621,87.500000 C 83.419737,86.950000 84.529449,83.812763 85.471647,80.528362 C 87.555015,73.265961 87.030585,69.178690 82.860248,60.175818 C 74.430992,41.978844 73.929513,35.066084 80.199639,23.500000 C 81.094126,21.850000 82.427634,19.370427 83.162989,17.989838 C 86.184274,12.317547 91.446761,6.000000 93.150468,6.000000 C 94.262176,6.000000 95.211244,6.993483 95.607407,8.571920 C 96.116165,10.598973 95.590569,11.827211 93.126459,14.369528 C 91.406906,16.143655 90.000000,18.345459 90.000000,19.262423 C 90.000000,20.179388 89.100000,21.411298 88.000000,22.000000 C 86.900000,22.588702 86.000000,23.660398 86.000000,24.381546 C 86.000000,25.102694 85.234344,27.224361 84.298543,29.096362 C 82.413272,32.867706 81.244072,43.860480 82.621729,44.861707 C 84.821426,46.460360 91.839362,62.154874 93.005695,68.083818 C 94.245070,74.384064 94.183302,75.008596 91.571609,82.583818 C 90.070524,86.937718 87.674800,92.649468 86.247778,95.276596 C 84.262437,98.931579 83.928724,100.328724 84.826596,101.226596 C 85.471968,101.871968 86.000000,103.833336 86.000000,105.585190 C 86.000000,109.386749 87.481970,112.966676 91.511716,118.899592 C 93.155272,121.319368 94.950000,124.019368 95.500000,124.899592 C 96.050000,125.779816 96.846952,126.757399 97.271003,127.071998 C 97.695055,127.386597 98.291634,130.536597 98.596735,134.071998 C 99.248169,141.620600 96.779011,148.981301 90.354371,158.642950 C 83.452403,169.022428 82.616352,171.520236 82.034378,183.500000 C 81.535134,193.776769 81.359474,194.520039 79.362670,194.804786 C 77.611467,195.054510 76.933996,194.254528 75.612670,190.376647" fill="black" stroke="black" stroke-width="1"/>
</svg>
