<?xml version="1.0" encoding="utf-8" ?>
<svg xmlns="http://www.w3.org/2000/svg" xmlns:ev="http://www.w3.org/2001/xml-events" xmlns:xlink="http://www.w3.org/1999/xlink" baseProfile="full" height="217" version="1.1" width="252">
  <defs/>
  <path d="M 69.500000,185.422490 C 68.400000,185.160848 64.912500,184.415929 61.750000,183.767113 C 58.587500,183.118297 56.000000,182.230272 56.000000,181.793724 C 56.000000,181.357176 55.300309,181.000000 54.445131,181.000000 C 52.103238,181.000000 41.893414,173.744040 37.963977,169.287106 C 28.997732,159.117210 29.425721,159.844190 26.464356,149.753869 C 18.174240,121.506775 32.970897,94.516772 61.915156,85.089455 C 70.512021,82.289404 83.417084,82.239817 91.594774,84.975412 C 94.842648,86.061888 98.257373,86.961888 99.183050,86.975412 C 100.108728,86.988935 102.581992,84.862500 104.679193,82.250000 C 106.776394,79.637500 111.981522,74.150787 116.246143,70.057304 C 120.510764,65.963821 124.000000,61.790472 124.000000,60.783197 C 124.000000,59.775921 122.415815,56.648785 120.479588,53.834007 C 116.303987,47.763750 114.813961,44.650750 111.989543,36.096379 C 109.797055,29.455945 107.529612,13.570121 108.540764,11.934043 C 109.379699,10.576618 113.583277,10.789622 114.776090,12.250000 C 115.337629,12.937500 116.030749,16.875000 116.316358,21.000000 C 116.949080,30.138291 118.790151,36.331936 123.768843,46.071298 C 126.630778,51.669842 128.137545,53.582009 129.884884,53.832880 C 133.713831,54.382613 136.286628,53.261847 140.615494,49.158395 C 144.913281,45.084404 154.705388,38.249796 159.000000,36.326540 C 160.375000,35.710773 164.200000,33.951206 167.500000,32.416391 C 171.901020,30.369496 175.513256,29.516576 181.054523,29.215901 C 188.638317,28.804396 189.817657,29.104773 200.620544,34.199357 C 203.986783,35.786857 209.741868,44.089225 211.034479,49.222649 C 212.241216,54.015037 211.213994,61.647262 208.712560,66.474427 C 205.668536,72.348660 198.205189,78.107217 188.500000,82.070001 C 185.924781,83.121504 177.943673,84.510193 176.000000,84.244963 C 175.175000,84.132386 171.862847,83.824726 168.639660,83.561275 C 165.416474,83.297824 161.141474,82.572422 159.139660,81.949269 C 153.467181,80.183461 142.660850,74.886096 141.000000,73.057037 C 138.262839,70.042659 133.222306,67.000000 130.965786,67.000000 C 129.714129,67.000000 126.787959,68.859703 124.278577,71.250000 C 112.734326,82.246408 109.369539,85.702344 107.726947,88.250000 C 106.079331,90.805447 106.068965,91.175621 107.580418,93.482389 C 108.475006,94.847703 110.629515,96.843977 112.368217,97.918553 C 114.106918,98.993130 116.485939,101.165994 117.654931,102.747140 C 120.749235,106.932409 126.000000,117.644224 126.000000,119.771483 C 126.000000,120.777167 126.475411,122.075411 127.056468,122.656468 C 127.637525,123.237525 128.169440,127.940025 128.238500,133.106468 C 128.337577,140.518530 127.886398,143.871109 126.099600,149.000000 C 122.671730,158.839486 121.402816,161.277950 117.750455,165.044498 C 115.907545,166.945024 114.124562,169.220622 113.788270,170.101383 C 113.144582,171.787222 99.814300,181.000000 98.018690,181.000000 C 97.443485,181.000000 96.191468,181.389680 95.236431,181.865956 C 89.543542,184.704994 74.957661,186.720626 69.500000,185.422490" fill="none" stroke="black" stroke-width="5"/>
</svg>
