<?xml version="1.0" encoding="utf-8" ?>
<svg baseProfile="full" height="217" version="1.1" width="260" xmlns="http://www.w3.org/2000/svg" xmlns:ev="http://www.w3.org/2001/xml-events" xmlns:xlink="http://www.w3.org/1999/xlink"><defs /><rect fill="white" height="217" width="260" x="0" y="0" /><path d="M 169,144 L 168,143 L 167,143 L 162,148 L 163,148 L 165,146 L 166,146 Z" fill="none" stroke="black" stroke-width="5" /><path d="M 66,110 L 65,111 L 65,113 L 66,114 L 68,119 L 68,115 L 67,114 L 67,111 Z" fill="none" stroke="black" stroke-width="5" /><path d="M 90,29 L 64,62 L 63,105 L 90,56 L 143,48 L 179,81 L 176,139 L 200,95 L 183,39 L 139,17 Z" fill="none" stroke="black" stroke-width="5" /><path d="M 0,0 L 0,216 L 259,216 L 259,0 Z" fill="none" stroke="black" stroke-width="5" /></svg>