<?xml version="1.0" encoding="utf-8" ?>
<svg xmlns="http://www.w3.org/2000/svg" xmlns:ev="http://www.w3.org/2001/xml-events" xmlns:xlink="http://www.w3.org/1999/xlink" baseProfile="full" height="220" version="1.1" width="256">
  <defs/>
  <path d="M 97.913513,200.925386 C 97.136081,200.433268 94.818958,200.023735 92.764351,200.015313 C 77.468759,199.952615 55.063411,187.648511 44.487831,173.503816 C 40.233310,167.813452 37.673948,163.879297 36.353482,161.000000 C 30.845545,148.989855 29.427875,145.559835 27.282094,139.051983 C 24.969924,132.039502 24.895203,131.133113 26.004302,123.551983 C 26.652193,119.123392 27.591271,114.718606 28.091143,113.763569 C 28.591014,112.808532 29.000000,110.745352 29.000000,109.178725 C 29.000000,105.384815 32.728585,94.189908 35.102622,90.855881 C 36.146180,89.390339 37.000000,87.698226 37.000000,87.095630 C 37.000000,86.493033 37.450000,86.000000 38.000000,86.000000 C 38.550000,86.000000 39.001596,85.437500 39.003546,84.750000 C 39.007630,83.310585 44.716526,76.216471 50.260890,70.761152 C 54.728240,66.365552 61.809306,62.901830 67.701772,62.229902 C 71.951573,61.745290 81.000000,63.778677 81.000000,65.218315 C 81.000000,65.648242 81.567418,66.000000 82.260929,66.000000 C 82.954440,66.000000 85.316940,67.566367 87.510929,69.480816 C 89.704918,71.395265 91.821842,72.970265 92.215204,72.980816 C 92.608566,72.991367 94.408566,74.269587 96.215204,75.821306 C 101.193360,80.097035 108.401480,83.736392 114.248573,84.926296 C 124.106345,86.932388 134.606018,82.258068 146.648614,70.502213 C 162.311698,55.212076 164.161164,53.879114 173.750000,50.969494 C 178.099273,49.649758 182.265976,50.303995 189.000000,53.363983 C 193.462425,55.391740 200.450364,63.345774 203.615411,70.000000 C 208.469338,80.204947 209.403615,85.878267 208.063796,97.012470 C 207.435878,102.230611 206.522270,107.850000 206.033557,109.500000 C 205.544843,111.150000 204.166142,115.875000 202.969776,120.000000 C 201.773410,124.125000 200.390788,128.281394 199.897282,129.236431 C 199.403777,130.191468 198.989994,131.541468 198.977764,132.236431 C 198.965534,132.931394 198.075541,134.625000 197.000000,136.000000 C 195.924459,137.375000 195.034466,139.295632 195.022236,140.268070 C 194.975751,143.964269 181.658732,163.683137 177.264594,166.562287 C 176.019067,167.378388 175.000000,168.787870 175.000000,169.694470 C 175.000000,171.877328 159.810725,186.000000 157.463009,186.000000 C 157.103162,186.000000 155.614274,186.848167 154.154370,187.884816 C 145.122714,194.298018 134.985800,198.162476 122.314319,200.023078 C 111.765555,201.571994 99.643162,202.020263 97.913513,200.925386" fill="none" stroke="black" stroke-width="5"/>
</svg>
