<?xml version="1.0" encoding="utf-8" ?>
<svg xmlns="http://www.w3.org/2000/svg" xmlns:ev="http://www.w3.org/2001/xml-events" xmlns:xlink="http://www.w3.org/1999/xlink" baseProfile="full" height="219" version="1.1" width="259">
  <defs/>
  <path d="M 107.500000,198.629919 C 94.109503,194.497262 84.936117,188.995576 75.750000,179.588037 C 72.037500,175.786052 69.000000,172.330528 69.000000,171.909097 C 69.000000,171.487665 68.412393,170.548214 67.694206,169.821429 C 62.792439,164.860972 56.000000,145.258732 56.000000,136.073224 C 56.000000,133.089705 58.047197,130.715952 60.833427,130.468801 C 77.512099,128.989326 96.588010,114.004654 104.777998,95.949088 C 109.312655,85.952028 110.000000,83.012078 110.000000,73.613261 C 110.000000,63.366047 110.927572,61.000000 114.944832,61.000000 C 117.739370,61.000000 117.851682,61.201592 118.983969,68.250000 C 120.127101,75.365913 123.772301,86.176578 125.250000,86.833333 C 125.662500,87.016667 126.000000,88.029167 126.000000,89.083333 C 126.000000,90.137500 126.401216,91.000000 126.891592,91.000000 C 127.381968,91.000000 128.070568,92.145029 128.421815,93.544509 C 128.773062,94.943989 132.771090,99.781489 137.306322,104.294509 C 145.298308,112.247353 147.847202,113.851014 162.500000,120.145340 C 168.148660,122.571806 182.732701,124.483751 190.000000,123.750548 C 196.452063,123.099594 197.674656,123.230588 198.750000,124.688063 C 200.222368,126.683647 200.416879,138.003482 199.054845,142.429002 C 198.535010,144.118051 197.379562,148.051149 196.487182,151.169220 C 194.662312,157.545510 189.179717,168.554012 185.762682,172.702944 C 177.210997,183.086317 161.292056,195.000000 155.969584,195.000000 C 154.886313,195.000000 154.000000,195.351758 154.000000,195.781685 C 154.000000,196.492303 152.180464,197.084508 140.883980,200.050562 C 134.146402,201.819610 115.226356,201.014475 107.500000,198.629919" fill="none" stroke="black" stroke-width="5"/>
</svg>
