<?xml version="1.0" encoding="utf-8" ?>
<svg xmlns="http://www.w3.org/2000/svg" xmlns:ev="http://www.w3.org/2001/xml-events" xmlns:xlink="http://www.w3.org/1999/xlink" baseProfile="full" height="218" version="1.1" width="260">
  <defs/>
  <path d="M 106.783915,161.450582 C 106.481736,161.148402 102.310322,160.496295 97.514108,160.001456 C 91.321541,159.362550 87.301772,158.327776 83.646859,156.431730 C 77.980703,153.492320 68.000000,143.689809 68.000000,141.064225 C 68.000000,140.148901 67.543957,138.943957 66.986571,138.386571 C 66.429185,137.829185 65.925472,133.801685 65.867210,129.436571 C 65.779854,122.891784 66.301186,120.024157 68.840077,113.084086 C 70.533416,108.455333 72.285344,104.405333 72.733250,104.084086 C 73.181155,103.762839 75.074396,100.575000 76.940451,97.000000 C 78.806506,93.425000 80.617471,90.275000 80.964819,90.000000 C 81.312166,89.725000 82.686380,87.925000 84.018627,86.000000 C 93.645332,72.090110 105.696750,60.442479 115.449114,55.622599 C 128.222291,49.309752 138.117367,50.852448 147.136137,60.562777 C 152.563576,66.406392 161.219815,78.716977 163.791906,84.250000 C 168.893619,95.224687 173.037448,105.129215 175.940540,113.287513 C 183.656098,134.969844 169.290778,155.922988 144.500000,159.146440 C 140.650000,159.647041 134.454148,160.493884 130.731441,161.028312 C 123.449618,162.073684 107.684997,162.351663 106.783915,161.450582" fill="none" stroke="black" stroke-width="5"/>
</svg>
