<?xml version="1.0" encoding="utf-8" ?>
<svg xmlns="http://www.w3.org/2000/svg" xmlns:ev="http://www.w3.org/2001/xml-events" xmlns:xlink="http://www.w3.org/1999/xlink" baseProfile="full" height="222" version="1.1" width="259">
  <defs/>
  <path d="M 63.416110,178.512710 C 47.619145,173.524570 35.522977,161.128264 29.251125,143.500000 C 25.392645,132.654990 24.243390,105.874125 26.933807,89.500000 C 29.041370,76.673182 35.730987,59.049935 41.500000,51.126564 C 45.865949,45.130212 52.011955,40.322571 59.861740,36.763308 C 65.490961,34.210898 67.488176,33.827434 74.744211,33.905884 C 83.195199,33.997253 85.716096,34.725951 89.375565,38.135265 C 90.476422,39.160869 91.913872,40.000000 92.569900,40.000000 C 95.121148,40.000000 103.337788,49.799159 106.953627,57.154024 C 109.023230,61.363737 110.975588,65.798647 111.292202,67.009380 C 112.100772,70.101356 114.319900,68.979703 115.118408,65.075433 C 115.486807,63.274163 116.808753,59.816165 118.056065,57.390992 C 131.027772,32.169857 166.428365,26.763537 184.945505,47.175747 C 193.452979,56.553888 198.919743,74.055118 199.727924,94.500000 C 200.609582,116.803678 193.525077,143.854753 184.276197,153.500000 C 179.775009,158.194089 175.459356,161.711098 172.014744,163.492375 C 167.181744,165.991617 155.378455,167.968928 151.659460,166.902334 C 149.929019,166.406050 146.773223,166.000000 144.646579,166.000000 C 136.241956,166.000000 124.618846,157.165232 119.000000,146.505943 C 117.158024,143.011604 115.192697,142.221127 114.427528,144.666842 C 114.112090,145.675079 113.436853,147.281394 112.927002,148.236431 C 112.417151,149.191468 112.000000,150.823868 112.000000,151.863986 C 112.000000,152.904105 111.319059,154.320241 110.486798,155.010957 C 109.654536,155.701673 109.070963,156.769273 109.189967,157.383402 C 109.513150,159.051202 106.556513,164.031507 102.814010,168.123377 C 98.882949,172.421408 91.838113,177.226700 87.100777,178.841394 C 82.669490,180.351773 68.622918,180.156842 63.416110,178.512710" fill="none" stroke="black" stroke-width="5"/>
</svg>
