<?xml version="1.0" encoding="utf-8" ?>
<svg xmlns="http://www.w3.org/2000/svg" xmlns:ev="http://www.w3.org/2001/xml-events" xmlns:xlink="http://www.w3.org/1999/xlink" baseProfile="full" height="218" version="1.1" width="256">
  <defs/>
  <path d="M 115.197024,186.891933 C 102.970152,185.471187 90.377405,180.264983 81.595270,173.000000 C 76.540267,168.818270 70.930515,162.667832 69.282057,159.500000 C 68.423440,157.850000 67.442793,156.275000 67.102841,156.000000 C 65.873677,155.005684 61.110335,145.391359 59.669652,140.996862 C 53.755834,122.958014 55.170149,105.139795 63.955633,87.000000 C 66.415743,81.920497 68.264731,78.869291 70.251143,76.611130 C 71.214271,75.516242 72.980104,73.193391 74.175216,71.449240 C 79.281928,63.996481 96.316260,54.184204 109.646437,51.016772 C 117.739171,49.093828 120.599736,48.876735 130.271172,49.451531 C 140.508940,50.059985 143.529966,50.617482 149.500000,53.000000 C 150.600000,53.438987 153.033343,54.377512 154.907430,55.085609 C 159.296171,56.743835 171.908060,65.026278 174.500000,67.952386 C 176.204264,69.876374 176.513633,71.710339 176.592197,80.355119 C 176.642906,85.934803 176.980534,97.250000 177.342482,105.500000 C 177.704430,113.750000 178.263970,129.050000 178.585905,139.500000 C 178.907840,149.950000 179.348529,162.212652 179.565214,166.750338 L 179.959187,175.000675 L 175.999465,177.500338 C 173.821618,178.875152 170.825251,180.000000 169.340870,180.000000 C 167.856489,180.000000 165.260047,180.421949 163.570998,180.937665 C 154.645626,183.662841 131.016133,188.011366 126.000000,187.851839 C 124.075000,187.790619 119.213661,187.358661 115.197024,186.891933" fill="none" stroke="black" stroke-width="5"/>
</svg>
