<?xml version="1.0" encoding="utf-8" ?>
<svg xmlns="http://www.w3.org/2000/svg" xmlns:ev="http://www.w3.org/2001/xml-events" xmlns:xlink="http://www.w3.org/1999/xlink" baseProfile="full" height="222" version="1.1" width="257">
  <defs/>
  <path d="M 117.182633,212.814703 C 104.381019,210.149905 86.737476,202.533428 81.000000,197.195151 C 79.625000,195.915820 77.262500,194.211993 75.750000,193.408867 C 73.202840,192.056346 71.802971,188.000000 73.883369,188.000000 C 74.369221,188.000000 75.016480,187.212500 75.321721,186.250000 C 75.626962,185.287500 76.647530,183.150000 77.589649,181.500000 C 80.399319,176.579229 81.000000,175.119702 81.000000,173.213569 C 81.000000,172.216106 81.378860,170.972500 81.841912,170.450000 C 82.304963,169.927500 83.451863,166.350000 84.390578,162.500000 C 85.329293,158.650000 86.518242,153.896790 87.032687,151.937312 C 89.854147,141.190618 88.347537,113.554211 84.428945,104.175698 C 83.643025,102.294728 83.000000,99.904602 83.000000,98.864307 C 83.000000,97.824013 82.577116,96.191468 82.060258,95.236431 C 78.820525,89.250133 75.000000,80.718477 75.000000,79.470091 C 75.000000,78.661541 74.659850,78.000000 74.244111,78.000000 C 73.828373,78.000000 72.853312,76.537500 72.077311,74.750000 C 71.301309,72.962500 68.941459,70.002435 66.833199,68.172077 C 64.724940,66.341719 63.000000,63.991979 63.000000,62.950433 C 63.000000,60.805382 75.581879,48.000000 77.689490,48.000000 C 78.444794,48.000000 79.317548,47.336058 79.628944,46.524573 C 79.940340,45.713088 81.388717,44.445872 82.847559,43.708537 C 86.937282,41.641491 90.448006,39.564022 91.000000,38.884334 C 91.275000,38.545718 93.300000,37.360599 95.500000,36.250737 C 113.202490,27.320134 138.518254,24.883924 159.500000,30.091831 C 168.288284,32.273182 185.692920,40.473926 191.242369,45.048251 C 195.328759,48.416599 196.757943,52.451775 194.720196,54.867594 C 192.865914,57.065909 187.468788,68.542986 185.958258,73.500000 C 185.287861,75.700000 184.354102,77.988755 183.883239,78.586123 C 182.428256,80.432005 180.838514,99.084209 181.243953,109.552457 C 181.644057,119.882973 184.551007,134.601226 186.609406,136.718425 C 187.260929,137.388558 188.568050,140.397778 189.514119,143.405580 C 190.460189,146.413382 191.969616,149.690091 192.868401,150.687155 C 193.767186,151.684220 195.540630,154.550786 196.809387,157.057302 C 198.078145,159.563819 201.790070,164.214496 205.058110,167.392141 C 211.675584,173.826573 212.518636,176.806181 208.750000,180.440418 C 207.512500,181.633785 205.600000,183.748853 204.500000,185.140568 C 202.226344,188.017188 187.617674,199.988390 186.339637,200.022236 C 185.877836,200.034466 184.375000,200.924459 183.000000,202.000000 C 181.625000,203.075541 179.894467,203.965534 179.154370,203.977764 C 178.414274,203.989994 176.614274,204.813645 175.154370,205.808101 C 172.565041,207.571897 163.045674,210.790540 154.000000,212.960714 C 146.231077,214.824580 126.461381,214.746176 117.182633,212.814703" fill="none" stroke="black" stroke-width="5"/>
</svg>
