<?xml version="1.0" encoding="utf-8" ?>
<svg xmlns="http://www.w3.org/2000/svg" xmlns:ev="http://www.w3.org/2001/xml-events" xmlns:xlink="http://www.w3.org/1999/xlink" baseProfile="full" height="217" version="1.1" width="257">
  <defs/>
  <path d="M 147.500000,183.644001 C 144.024473,182.070759 134.420540,178.080286 131.500000,176.995937 C 129.156155,176.125705 120.271200,172.176645 117.763569,170.890560 C 116.808532,170.400752 115.339926,170.000000 114.500000,170.000000 C 113.660074,170.000000 112.191468,169.602502 111.236431,169.116671 C 110.281394,168.630841 108.375000,167.796687 107.000000,167.262997 C 105.625000,166.729306 102.350462,165.326804 99.723249,164.146325 C 97.096035,162.965846 94.503631,162.000000 93.962350,162.000000 C 93.421069,162.000000 91.070607,161.158784 88.739102,160.130631 C 86.407596,159.102479 82.581059,157.678326 80.235687,156.965848 C 77.890314,156.253370 75.608871,155.182086 75.165814,154.585217 C 74.214360,153.303458 72.281362,146.747534 71.602517,142.500000 C 71.338813,140.850000 70.642668,137.475000 70.055529,135.000000 C 68.916620,130.199092 67.451938,123.318102 66.011204,116.000000 C 65.165063,111.702087 64.127806,107.295789 61.891645,98.500000 C 61.332338,96.300000 60.482518,92.475000 60.003157,90.000000 C 59.523797,87.525000 58.638085,83.250000 58.034910,80.500000 C 56.779008,74.774086 57.166089,72.281596 59.746291,69.480101 C 60.749320,68.391045 62.278309,66.477925 63.144045,65.228722 C 64.009780,63.979519 66.244034,61.275600 68.109054,59.220013 C 69.974075,57.164427 73.300000,53.244574 75.500000,50.509230 C 77.700000,47.773886 80.850000,44.130922 82.500000,42.413754 C 84.150000,40.696587 88.425000,35.963753 92.000000,31.896345 C 95.575000,27.828938 99.703457,23.150820 101.174349,21.500529 C 104.572343,17.688094 106.875402,14.918489 109.925024,10.977175 C 112.086096,8.184216 112.735920,7.915478 115.895211,8.508164 C 121.913304,9.637165 138.399569,15.472821 140.450000,17.199842 C 140.972500,17.639929 142.413826,18.000000 143.652947,18.000000 C 144.892068,18.000000 146.939568,18.403137 148.202947,18.895861 C 149.466326,19.388585 152.525000,20.339877 155.000000,21.009844 C 159.617795,22.259852 163.179690,23.561696 166.236431,25.116671 C 167.191468,25.602502 168.788968,26.000000 169.786431,26.000000 C 170.783894,26.000000 172.027500,26.377552 172.550000,26.839003 C 173.072500,27.300455 176.200000,28.240185 179.500000,28.927292 C 182.800000,29.614399 186.281394,30.586848 187.236431,31.088289 C 188.191468,31.589730 189.541468,32.016183 190.236431,32.035963 C 190.931394,32.055743 192.770827,33.111721 194.324060,34.382581 C 197.226399,36.757284 197.484119,37.495749 203.613366,61.000000 C 205.823707,69.476151 208.063888,77.201546 211.028348,86.570998 C 211.562756,88.260047 212.000000,90.820989 212.000000,92.261981 C 212.000000,93.702973 212.450000,95.160081 213.000000,95.500000 C 213.550000,95.839919 214.000000,97.447582 214.000000,99.072586 C 214.000000,100.697589 214.408259,102.808532 214.907242,103.763569 C 215.879267,105.623992 218.888905,117.472276 219.698765,122.626744 C 220.078129,125.041256 219.698329,126.097890 218.031421,127.265438 C 216.844185,128.097011 213.313928,131.101703 210.186405,133.942532 C 207.058882,136.783361 201.624598,141.670948 198.110217,144.803838 C 194.595837,147.936727 190.477792,151.737500 188.959007,153.250000 C 187.440223,154.762500 185.847745,156.000000 185.420169,156.000000 C 184.992593,156.000000 181.235637,159.521513 177.071379,163.825586 C 172.907121,168.129658 167.925000,172.722281 166.000000,174.031416 C 164.075000,175.340551 160.925000,178.090718 159.000000,180.142900 C 154.887871,184.526710 151.636668,185.516518 147.500000,183.644001" fill="none" stroke="black" stroke-width="5"/>
</svg>
