<?xml version="1.0" encoding="utf-8" ?>
<svg xmlns="http://www.w3.org/2000/svg" xmlns:ev="http://www.w3.org/2001/xml-events" xmlns:xlink="http://www.w3.org/1999/xlink" baseProfile="full" height="219" version="1.1" width="259">
  <defs/>
  <path d="M 63.552956,134.085685 C 62.735442,132.762919 68.914263,125.024626 73.594518,121.509736 C 75.798707,119.854381 79.604154,116.107251 82.051067,113.182780 C 84.497980,110.258309 87.287500,107.014625 88.250000,105.974593 C 89.212500,104.934562 90.000000,103.815120 90.000000,103.486944 C 90.000000,103.158768 91.800000,100.239644 94.000000,97.000000 C 96.200000,93.760356 98.000000,90.855143 98.000000,90.543971 C 98.000000,89.921376 101.624490,81.519103 103.081714,78.763569 C 103.586771,77.808532 104.000000,76.415169 104.000000,75.667207 C 104.000000,74.919245 104.751316,72.801227 105.669592,70.960499 C 106.587868,69.119772 107.689873,66.013135 108.118493,64.056861 C 108.547113,62.100588 109.628051,57.125000 110.520577,53.000000 C 112.385769,44.379624 115.175622,40.747051 117.865282,43.436710 C 118.980336,44.551765 119.475467,47.611797 119.693089,54.733021 C 119.857251,60.104859 120.418072,66.300000 120.939357,68.500000 C 121.460643,70.700000 122.166372,73.850000 122.507644,75.500000 C 123.356104,79.602180 130.456488,93.527271 133.936406,97.913796 C 138.409449,103.552180 143.772209,109.000000 144.849514,109.000000 C 145.390615,109.000000 145.983333,109.371992 146.166667,109.826650 C 146.613644,110.935131 158.880036,119.000000 160.119020,119.000000 C 160.656696,119.000000 162.959398,119.900000 165.236136,121.000000 C 167.512873,122.100000 169.896391,123.000000 170.532842,123.000000 C 172.359840,123.000000 175.000000,126.444876 175.000000,128.828741 C 175.000000,130.676164 174.433242,131.000000 171.200000,131.000000 C 169.110000,131.000000 166.972500,130.585278 166.450000,130.078395 C 165.500121,129.156907 156.679172,126.997951 143.500000,124.461309 C 137.638280,123.333083 130.119539,122.494433 118.500000,121.672778 C 114.675167,121.402311 98.967254,123.243967 98.488237,124.019033 C 98.223098,124.448036 95.642279,125.331210 92.753083,125.981640 C 87.069150,127.261237 72.709477,133.028678 72.166667,134.250000 C 71.690090,135.322297 64.229264,135.179975 63.552956,134.085685" fill="none" stroke="black" stroke-width="5"/>
</svg>
