<?xml version="1.0" encoding="utf-8" ?>
<svg xmlns="http://www.w3.org/2000/svg" xmlns:ev="http://www.w3.org/2001/xml-events" xmlns:xlink="http://www.w3.org/1999/xlink" baseProfile="full" height="218" version="1.1" width="262">
  <defs/>
  <path d="M 45.354734,189.482040 C 44.702301,187.781825 45.475709,185.493813 51.264122,172.000000 C 52.089886,170.075000 53.313685,166.925000 53.983676,165.000000 C 54.653667,163.075000 55.666635,160.375000 56.234716,159.000000 C 58.346699,153.888099 58.897573,152.406240 60.138041,148.500000 C 60.836674,146.300000 61.766419,144.072500 62.204141,143.550000 C 62.641864,143.027500 63.000000,141.783894 63.000000,140.786431 C 63.000000,139.788968 63.412170,138.191468 63.915933,137.236431 C 65.439331,134.348363 68.000000,128.243718 68.000000,127.500000 C 68.000000,127.116242 68.619425,125.384250 69.376500,123.651129 C 72.596555,116.279673 75.000000,109.618972 75.000000,108.066647 C 75.000000,107.149991 75.385016,105.972500 75.855591,105.450000 C 76.837226,104.360049 85.740263,81.681495 88.987231,72.000000 C 90.186210,68.425000 92.029574,63.592404 93.083596,61.260898 C 94.137618,58.929393 95.000000,56.578931 95.000000,56.037650 C 95.000000,55.496369 95.858634,53.128965 96.908075,50.776751 C 97.957517,48.424538 99.195017,44.725910 99.658075,42.557579 C 100.352906,39.303946 101.024136,38.484376 103.500000,37.866601 C 108.093756,36.720373 128.128088,34.791398 163.500000,32.089591 C 170.650000,31.543454 178.183691,30.791615 180.241536,30.418838 C 184.411099,29.663526 187.000000,31.069284 187.000000,34.088646 C 187.000000,35.920840 184.871697,38.506213 173.631650,50.327952 C 170.404058,53.722579 166.581324,58.075000 165.136686,60.000000 C 163.692048,61.925000 161.348354,64.625000 159.928478,66.000000 C 158.508602,67.375000 154.906336,71.420300 151.923442,74.989556 C 148.940549,78.558812 145.518266,82.486000 144.318369,83.716642 C 143.118472,84.947283 140.869737,87.651983 139.321181,89.727086 C 137.772624,91.802189 135.045761,95.075000 133.261486,97.000000 C 131.477210,98.925000 130.013444,100.797574 130.008674,101.161276 C 130.003903,101.524977 127.637500,104.249950 124.750000,107.216771 C 121.862500,110.183591 118.269309,114.234566 116.765131,116.218936 C 115.260953,118.203306 113.460953,120.428970 112.765131,121.164856 C 112.069309,121.900741 108.578149,125.877193 105.006997,130.001415 C 101.435846,134.125637 97.550586,138.400000 96.373086,139.500000 C 95.195587,140.600000 92.060291,144.200000 89.405763,147.500000 C 86.751234,150.800000 83.661494,154.446360 82.539673,155.603022 C 81.417853,156.759684 79.531166,158.850387 78.347034,160.249029 C 77.162903,161.647670 75.585244,163.176310 74.841124,163.646007 C 74.097004,164.115703 72.225704,166.193706 70.682679,168.263792 C 69.139654,170.333877 65.767314,174.184422 63.188589,176.820559 C 60.609865,179.456696 57.920209,182.487990 57.211575,183.556768 C 56.502941,184.625545 55.602941,185.976084 55.211575,186.557964 C 53.963095,188.414195 49.617286,191.000000 47.746109,191.000000 C 46.751226,191.000000 45.675107,190.316918 45.354734,189.482040" fill="none" stroke="black" stroke-width="5"/>
</svg>
