<?xml version="1.0" encoding="utf-8" ?>
<svg xmlns="http://www.w3.org/2000/svg" xmlns:ev="http://www.w3.org/2001/xml-events" xmlns:xlink="http://www.w3.org/1999/xlink" baseProfile="full" height="217" version="1.1" width="261">
  <defs/>
  <path d="M 169.500000,200.727029 C 167.300000,199.502163 165.350000,198.162500 165.166667,197.750000 C 164.983333,197.337500 164.280686,197.000000 163.605228,197.000000 C 162.929770,197.000000 161.504770,196.200270 160.438561,195.222821 C 159.372353,194.245373 156.925000,192.345736 155.000000,191.001405 C 153.075000,189.657075 149.822075,187.018380 147.771278,185.137639 C 145.720481,183.256897 143.020481,181.009927 141.771278,180.144372 C 137.628955,177.274213 117.592253,156.625408 111.226557,148.666538 C 97.557853,131.576898 85.252537,109.766612 79.389524,92.237689 C 77.966083,87.981960 76.450447,84.050000 76.021445,83.500000 C 74.941171,82.115041 71.952499,71.533696 70.937395,65.500000 C 70.474737,62.750000 69.423227,57.125000 68.600706,53.000000 C 67.778184,48.875000 67.081540,42.777500 67.052606,39.450000 C 67.023673,36.122500 66.564739,32.964739 66.032753,32.432753 C 65.500768,31.900768 65.328252,30.460768 65.649385,29.232753 C 66.496983,25.991533 72.498716,26.141333 76.405539,29.501221 C 78.003586,30.875550 79.658943,32.000000 80.084111,32.000000 C 80.509278,32.000000 81.451786,32.562500 82.178571,33.250000 C 82.905357,33.937500 85.191831,35.763704 87.259624,37.308232 C 90.155703,39.471443 110.121416,58.354789 116.500000,64.963449 C 117.050000,65.533288 119.630518,68.137127 122.234485,70.749760 C 124.838452,73.362392 126.975952,76.205756 126.984485,77.068347 C 126.993018,77.930938 128.601897,80.405938 130.559770,82.568347 C 132.517644,84.730756 134.825997,87.827996 135.689445,89.451103 C 136.552892,91.074210 137.869428,93.012286 138.615080,93.757938 C 140.023747,95.166604 145.306324,103.858064 150.006308,112.500000 C 157.567804,126.403445 159.000000,129.196045 159.000000,130.036551 C 159.000000,130.538901 160.350000,133.897454 162.000000,137.500000 C 163.650000,141.102546 165.000000,144.494921 165.000000,145.038611 C 165.000000,145.582301 165.429720,146.808532 165.954933,147.763569 C 167.942777,151.378223 173.528729,170.507992 175.076069,179.000000 C 175.627258,182.025000 176.522124,186.750000 177.064659,189.500000 C 178.286157,195.691523 178.401575,196.805677 178.178281,200.250000 C 177.952815,203.727837 175.165030,203.881077 169.500000,200.727029" fill="none" stroke="black" stroke-width="5"/>
</svg>
