<?xml version="1.0" encoding="utf-8" ?>
<svg xmlns="http://www.w3.org/2000/svg" xmlns:ev="http://www.w3.org/2001/xml-events" xmlns:xlink="http://www.w3.org/1999/xlink" baseProfile="full" height="218" version="1.1" width="258">
  <defs/>
  <path d="M 140.843404,201.756871 C 136.896313,201.081549 132.168489,200.141253 124.819927,198.570032 C 123.345887,198.254863 121.545887,197.416007 120.819927,196.705907 C 119.099314,195.022885 104.896484,192.044852 93.500000,190.977497 C 80.394970,189.750125 60.343029,189.737802 54.000000,190.953222 C 50.975000,191.532858 47.600000,192.175500 46.500000,192.381316 C 42.093050,193.205880 34.470396,195.358990 34.000000,195.912091 C 33.122077,196.944369 27.137363,198.804029 26.557935,198.224601 C 25.566463,197.233129 25.966612,163.557333 27.042629,157.433659 C 29.698570,142.318548 33.020773,131.006616 38.477059,118.500000 C 39.196907,116.850000 40.073412,114.825000 40.424847,114.000000 C 41.573036,111.304603 52.422756,94.486778 55.908020,90.000000 C 60.694970,83.837486 75.741825,68.000000 76.809747,68.000000 C 77.200626,68.000000 78.640838,66.968311 80.010218,65.707358 C 83.401908,62.584221 91.634319,57.000000 92.846842,57.000000 C 93.389412,57.000000 93.983333,56.638064 94.166667,56.195698 C 94.638965,55.056085 114.706457,45.000000 116.508321,45.000000 C 117.328744,45.000000 118.000000,44.602460 118.000000,44.116577 C 118.000000,43.630695 119.237500,42.935554 120.750000,42.571820 C 122.262500,42.208086 125.075000,41.513380 127.000000,41.028030 C 138.010472,38.251959 145.118657,36.995947 149.999626,36.964010 C 153.024832,36.944216 159.775000,36.354921 165.000000,35.654466 C 175.831824,34.202369 186.232317,29.641368 193.008720,23.371604 C 195.180518,21.362182 197.960916,19.015249 199.187383,18.156198 C 200.413850,17.297147 202.785926,15.032692 204.458662,13.124075 C 209.739028,7.099097 210.098352,6.836736 211.488992,7.990864 C 212.523697,8.849593 212.509718,9.947501 211.415343,13.775381 C 210.672431,16.373922 209.665219,23.889811 209.177095,30.477358 C 208.252301,42.958049 209.132666,48.508129 213.701416,59.000000 C 214.539669,60.925000 216.050933,65.071500 217.059781,68.214445 C 218.584522,72.964595 223.263130,82.665341 228.772547,92.500000 C 231.605811,97.557555 235.368396,109.002433 235.795180,113.861159 C 236.054184,116.809796 235.721903,121.759796 235.056777,124.861159 C 231.852224,139.803413 229.478652,148.847832 227.819694,152.437829 C 226.818862,154.603636 226.000000,156.966136 226.000000,157.687829 C 226.000000,158.409523 225.550000,159.000000 225.000000,159.000000 C 224.450000,159.000000 224.000000,159.699405 224.000000,160.554234 C 224.000000,161.409062 222.652082,163.546562 221.004627,165.304234 C 219.357173,167.061905 218.007173,168.856493 218.004627,169.292206 C 217.993882,171.131747 201.597829,187.000000 199.707848,187.000000 C 199.430956,187.000000 196.241548,188.800000 192.620274,191.000000 C 188.999001,193.200000 185.128009,195.000000 184.018070,195.000000 C 182.908132,195.000000 182.000000,195.397516 182.000000,195.883369 C 182.000000,197.402621 175.658954,199.062440 162.000000,201.118527 C 152.647009,202.526435 146.436533,202.713820 140.843404,201.756871" fill="none" stroke="black" stroke-width="5"/>
</svg>
