<?xml version="1.0" encoding="utf-8" ?>
<svg xmlns="http://www.w3.org/2000/svg" xmlns:ev="http://www.w3.org/2001/xml-events" xmlns:xlink="http://www.w3.org/1999/xlink" baseProfile="full" height="218" version="1.1" width="258">
  <defs/>
  <path d="M 137.250000,204.684333 C 133.262500,204.120796 130.000000,203.286284 130.000000,202.829860 C 130.000000,202.373437 128.856594,202.000000 127.459097,202.000000 C 124.075241,202.000000 112.137655,198.142039 109.000000,196.034433 C 107.625000,195.110827 104.826858,193.585941 102.781907,192.645798 C 100.736956,191.705655 98.711956,190.364909 98.281907,189.666362 C 97.851858,188.967815 95.483655,186.844614 93.019234,184.948138 C 82.010897,176.476760 71.873913,161.940707 67.447882,148.279785 C 66.596145,145.650903 65.519495,142.600000 65.055325,141.500000 C 62.426464,135.270062 60.880398,106.715976 62.893737,101.577910 C 64.301702,97.984766 61.440803,84.874966 57.796343,78.219584 C 56.808354,76.415355 55.990909,74.390355 55.979797,73.719584 C 55.912812,69.675887 34.922627,52.000000 30.187707,52.000000 C 29.049387,52.000000 27.879649,51.614285 27.588289,51.142855 C 27.296930,50.671426 24.350310,49.710984 21.040246,49.008541 C 14.391111,47.597498 12.684615,46.251848 13.173236,42.805042 L 13.500000,40.500000 L 69.000000,40.740995 C 99.525000,40.873542 144.037740,41.258779 167.917200,41.597076 L 211.334400,42.212163 L 214.496970,45.565465 C 217.612855,48.869265 222.087538,57.188131 225.488621,66.000000 C 230.086124,77.911674 230.702081,79.790821 232.863799,88.500000 C 236.768584,104.231691 237.684007,131.657816 234.599443,140.500000 C 231.730384,148.724419 224.409410,164.819091 223.000273,166.000000 C 222.672125,166.275000 221.304901,168.075000 219.961997,170.000000 C 216.404376,175.099708 205.961467,185.309784 200.061594,189.456707 C 197.250222,191.432773 192.373757,194.201950 189.225004,195.610433 C 186.076252,197.018916 182.718606,198.582766 181.763569,199.085655 C 180.808532,199.588545 179.121032,200.000000 178.013569,200.000000 C 176.906106,200.000000 176.000000,200.378128 176.000000,200.840285 C 176.000000,202.395923 157.119377,205.830901 149.000000,205.752434 C 146.525000,205.728515 141.237500,205.247869 137.250000,204.684333" fill="none" stroke="black" stroke-width="5"/>
</svg>
