<?xml version="1.0" encoding="utf-8" ?>
<svg xmlns="http://www.w3.org/2000/svg" xmlns:ev="http://www.w3.org/2001/xml-events" xmlns:xlink="http://www.w3.org/1999/xlink" baseProfile="full" height="217" version="1.1" width="256">
  <defs/>
  <path d="M 150.000000,208.663331 C 147.525000,207.428380 142.800000,204.600597 139.500000,202.379368 C 136.200000,200.158138 131.475000,197.251596 129.000000,195.920384 C 126.525000,194.589173 124.275000,193.222950 124.000000,192.884334 C 123.725000,192.545718 121.475000,191.247768 119.000000,190.000000 C 116.525000,188.752232 114.275000,187.450850 114.000000,187.108039 C 113.725000,186.765228 111.029395,185.163755 108.009767,183.549210 C 104.990139,181.934665 101.031888,179.604130 99.213655,178.370243 C 97.395421,177.136357 94.578526,175.538430 92.953888,174.819295 C 91.329250,174.100160 90.000000,173.171627 90.000000,172.755889 C 90.000000,172.340150 89.525309,172.000000 88.945131,172.000000 C 88.364952,172.000000 85.327452,170.277379 82.195131,168.171954 C 79.062809,166.066528 75.825000,164.051776 75.000000,163.694728 C 74.175000,163.337679 71.250000,161.665402 68.500000,159.978558 C 65.750000,158.291713 62.712500,156.653981 61.750000,156.339152 C 60.787500,156.024324 60.000000,155.423816 60.000000,155.004689 C 60.000000,154.585562 58.650000,153.683452 57.000000,153.000000 C 55.350000,152.316548 54.000000,151.361953 54.000000,150.878680 C 54.000000,150.395406 53.556239,150.000000 53.013863,150.000000 C 51.961269,150.000000 34.840748,140.023033 34.000000,138.919690 C 33.725000,138.558798 31.700000,137.380214 29.500000,136.300615 C 22.710970,132.969056 17.573893,129.904282 15.862636,128.164580 C 14.434458,126.712663 14.146042,122.028486 13.605105,91.500000 C 13.264012,72.250000 12.875826,50.875000 12.742468,44.000000 L 12.500000,31.500000 L 20.500000,31.433223 C 24.900000,31.396496 34.350000,31.043566 41.500000,30.648934 C 55.400617,29.881715 64.719164,29.438682 88.500000,28.414408 L 103.500000,27.768337 L 116.000000,35.869978 C 122.875000,40.325881 129.035507,44.420532 129.690015,44.969202 C 130.344524,45.517873 132.447178,46.846999 134.362580,47.922816 C 136.277982,48.998632 140.522064,51.706106 143.793874,53.939423 C 147.065684,56.172740 150.250530,58.000000 150.871310,58.000000 C 151.492089,58.000000 152.000000,58.395406 152.000000,58.878680 C 152.000000,59.361953 153.350000,60.316548 155.000000,61.000000 C 156.650000,61.683452 158.000000,62.638047 158.000000,63.121320 C 158.000000,63.604594 158.474691,64.000000 159.054869,64.000000 C 159.635048,64.000000 162.760356,65.800000 166.000000,68.000000 C 169.239644,70.200000 172.158768,72.000000 172.486944,72.000000 C 172.815120,72.000000 173.972407,72.828024 175.058693,73.840054 C 176.144979,74.852084 178.263663,76.312776 179.766879,77.086036 C 182.419830,78.450725 192.693027,84.775901 196.266321,87.244693 C 197.237798,87.915887 199.297967,89.147910 200.844474,89.982523 C 204.012286,91.692113 215.858616,99.417512 217.707794,100.979672 C 218.372080,101.540853 219.164807,102.000000 219.469409,102.000000 C 220.961154,102.000000 230.028809,108.749895 230.888115,110.500000 C 231.428217,111.600000 232.116868,122.850000 232.418450,135.500000 C 232.720031,148.150000 233.267032,169.560065 233.634007,183.077923 L 234.301235,207.655846 L 207.400618,208.837264 C 153.976935,211.183519 155.057345,211.186793 150.000000,208.663331" fill="none" stroke="black" stroke-width="5"/>
</svg>
