<?xml version="1.0" encoding="utf-8" ?>
<svg xmlns="http://www.w3.org/2000/svg" xmlns:ev="http://www.w3.org/2001/xml-events" xmlns:xlink="http://www.w3.org/1999/xlink" baseProfile="full" height="215" version="1.1" width="258">
  <defs/>
  <path d="M 91.000000,194.994756 C 91.000000,193.029037 93.706667,187.653331 97.117082,182.845630 C 98.152687,181.385726 99.000000,179.783078 99.000000,179.284191 C 99.000000,178.785304 99.800267,177.504770 100.778371,176.438561 C 101.756475,175.372353 103.755539,172.439125 105.220735,169.920278 C 106.685932,167.401431 108.585664,164.758831 109.442364,164.047833 C 110.299064,163.336836 111.000000,161.910211 111.000000,160.877555 C 111.000000,159.844900 111.381657,159.000000 111.848126,159.000000 C 112.314595,159.000000 113.517520,157.178751 114.521293,154.952781 C 115.525066,152.726810 116.830909,150.589310 117.423167,150.202781 C 118.015425,149.816251 119.256711,148.150000 120.181580,146.500000 C 121.106449,144.850000 122.602430,143.348056 123.505984,143.162347 C 125.419819,142.768992 129.000000,145.696626 129.000000,147.654988 C 129.000000,148.394744 129.450000,149.000000 130.000000,149.000000 C 130.550000,149.000000 131.000000,149.474691 131.000000,150.054869 C 131.000000,150.635048 132.699624,153.672548 134.776943,156.804869 C 136.854261,159.937191 139.216761,163.850000 140.026943,165.500000 C 140.837124,167.150000 142.062500,169.094643 142.750000,169.821429 C 143.437500,170.548214 144.000000,171.490722 144.000000,171.915889 C 144.000000,172.341057 145.124450,173.996414 146.498779,175.594461 C 147.873107,177.192507 148.998107,179.007400 148.998779,179.627555 C 148.999450,180.247711 149.664136,181.306295 150.475858,181.979964 C 153.020999,184.092243 157.512872,193.887128 156.432062,194.967938 C 155.854145,195.545855 142.234815,196.148876 123.226148,196.438191 C 91.864610,196.915520 91.000000,196.876793 91.000000,194.994756" fill="none" stroke="black" stroke-width="5"/>
  <path d="M 129.000000,61.839552 C 127.625000,61.266575 125.033033,60.173426 123.240073,59.410333 C 119.265178,57.718595 111.000000,50.265331 111.000000,48.372640 C 111.000000,47.617688 110.622027,47.000000 110.160060,47.000000 C 108.640397,47.000000 106.645509,39.008567 106.572083,32.626724 C 106.517329,27.867782 107.079784,25.234277 108.911755,21.672011 C 112.231107,15.217535 120.331413,7.000000 123.374460,7.000000 C 124.176841,7.000000 125.017290,6.448131 125.242125,5.773625 C 125.528283,4.915151 128.628187,4.546650 135.575458,4.545252 C 144.090265,4.543539 146.139204,4.880229 150.000000,6.915550 C 152.475000,8.220312 155.133094,10.187436 155.906876,11.286937 C 156.680657,12.386438 158.354531,14.190976 159.626595,15.297022 C 162.112904,17.458840 165.728964,27.291729 166.136891,33.000000 C 166.433318,37.148004 165.140526,43.795116 163.886637,44.570062 C 163.398987,44.871447 163.000000,45.897783 163.000000,46.850809 C 163.000000,48.677931 156.567154,55.305064 151.500000,58.698136 C 146.818325,61.833084 133.460128,63.698135 129.000000,61.839552" fill="none" stroke="black" stroke-width="5"/>
</svg>
