<?xml version="1.0" encoding="utf-8" ?>
<svg xmlns="http://www.w3.org/2000/svg" xmlns:ev="http://www.w3.org/2001/xml-events" xmlns:xlink="http://www.w3.org/1999/xlink" baseProfile="full" height="221" version="1.1" width="257">
  <defs/>
  <path d="M 18.278943,206.184242 L 16.057885,205.868484 L 15.778943,159.684242 C 15.507729,114.779616 15.554439,113.458440 17.464834,112.000000 C 18.545493,111.175000 22.145493,108.488867 25.464834,106.030815 C 28.784175,103.572763 31.725000,101.301082 32.000000,100.982635 C 32.275000,100.664188 34.075000,99.322002 36.000000,98.000000 C 37.925000,96.677998 39.725000,95.327998 40.000000,95.000000 C 40.275000,94.672002 42.075000,93.312552 44.000000,91.978999 C 45.925000,90.645446 48.400000,88.721943 49.500000,87.704548 C 50.600000,86.687152 56.000000,82.637746 61.500000,78.705868 C 67.000000,74.773990 71.725000,71.307546 72.000000,71.002660 C 72.447634,70.506379 79.966142,64.628314 82.500000,62.793627 C 83.050000,62.395389 85.075000,60.781646 87.000000,59.207532 C 88.925000,57.633418 92.598191,54.923194 95.162647,53.184813 C 97.727102,51.446432 99.977102,49.663127 100.162647,49.221913 C 100.348191,48.780700 106.125000,44.190322 113.000000,39.021074 C 119.875000,33.851826 127.075000,28.139205 129.000000,26.326361 L 132.500000,23.030280 L 143.500000,23.535416 C 166.473211,24.590380 178.244606,24.995205 202.000000,25.547265 C 215.475000,25.860415 227.400000,26.296062 228.500000,26.515371 C 230.462002,26.906537 230.500000,27.713693 230.500000,68.999766 L 230.500000,111.085420 L 227.000000,114.163663 C 225.075000,115.856696 221.933877,118.424976 220.019728,119.870953 C 218.105578,121.316929 215.630578,123.248850 214.519728,124.164112 C 210.257896,127.675557 197.453078,138.052850 196.500000,138.767676 C 189.520085,144.002746 186.152312,146.694036 184.416766,148.423757 C 183.270987,149.565691 180.838924,151.625000 179.012182,153.000000 C 177.185440,154.375000 174.254958,156.625000 172.500000,158.000000 C 170.745042,159.375000 167.815938,161.625000 165.990880,163.000000 C 164.165823,164.375000 160.833760,167.181527 158.586297,169.236726 C 156.338834,171.291925 152.700000,174.215659 150.500000,175.733913 C 148.300000,177.252167 146.275000,178.732268 146.000000,179.023026 C 145.725000,179.313785 143.475000,181.103423 141.000000,183.000000 C 138.525000,184.896577 136.275000,186.687510 136.000000,186.979850 C 135.725000,187.272191 133.925000,188.695980 132.000000,190.143826 C 130.075000,191.591673 127.150000,193.977940 125.500000,195.446643 C 123.850000,196.915345 121.262500,198.777240 119.750000,199.584186 C 118.237500,200.391132 117.000000,201.456845 117.000000,201.952438 C 117.000000,202.448031 115.537500,203.673975 113.750000,204.676758 C 110.739000,206.365921 107.190766,206.500000 65.500000,206.500000 C 40.750000,206.500000 19.500524,206.357909 18.278943,206.184242" fill="none" stroke="black" stroke-width="5"/>
</svg>
