<?xml version="1.0" encoding="utf-8" ?>
<svg xmlns="http://www.w3.org/2000/svg" xmlns:ev="http://www.w3.org/2001/xml-events" xmlns:xlink="http://www.w3.org/1999/xlink" baseProfile="full" height="222" version="1.1" width="257">
  <defs/>
  <path d="M 55.570916,215.114744 C 55.191993,214.501635 53.108524,214.000000 50.940983,214.000000 C 48.773442,214.000000 47.000000,213.550000 47.000000,213.000000 C 47.000000,212.450000 46.437500,211.997918 45.750000,211.995373 C 44.058477,211.989111 38.528828,206.703818 36.343766,203.004804 C 35.367527,201.352162 34.215808,200.000000 33.784392,200.000000 C 33.352977,200.000000 33.000000,198.451558 33.000000,196.559017 C 33.000000,194.666476 32.511608,192.816191 31.914684,192.447272 C 30.582471,191.623919 30.980932,179.560090 32.458829,175.972711 C 34.699437,170.533965 39.650057,164.004899 42.641204,162.543809 C 44.368866,161.699895 46.010856,160.414093 46.290070,159.686472 C 46.901097,158.094163 56.119982,156.045002 61.000000,156.416771 C 71.313003,157.202434 74.696266,158.821210 83.593264,167.226877 C 88.268196,171.643639 88.794664,172.611961 90.003085,179.016349 C 91.409216,186.468557 90.517724,193.650374 87.414324,199.871287 C 85.659521,203.388873 78.115098,210.511306 75.145575,211.453796 C 73.965509,211.828335 73.000000,212.505218 73.000000,212.957982 C 73.000000,214.566739 56.494545,216.609207 55.570916,215.114744" fill="none" stroke="black" stroke-width="5"/>
  <path d="M 152.199836,146.950816 L 149.899673,146.027335 L 152.639146,141.263668 C 154.145855,138.643650 157.016756,134.025000 159.018925,131.000000 C 161.021093,127.975000 163.748404,123.475000 165.079616,121.000000 C 166.410827,118.525000 168.062181,115.905677 168.749290,115.179281 C 169.436400,114.452886 171.214794,111.752886 172.701278,109.179281 C 174.187761,106.605677 175.658714,104.275000 175.970060,104.000000 C 176.281407,103.725000 177.960740,100.800000 179.701912,97.500000 C 181.443083,94.200000 183.459950,91.384524 184.183839,91.243387 C 185.680465,90.951590 191.375476,98.833224 197.273052,109.358259 C 199.474035,113.286217 203.087691,119.650000 205.303398,123.500000 C 212.671793,136.303281 217.846097,146.440003 217.389923,147.178108 C 216.726880,148.250934 154.901199,148.035372 152.199836,146.950816" fill="none" stroke="black" stroke-width="5"/>
</svg>
