<?xml version="1.0" encoding="utf-8" ?>
<svg xmlns="http://www.w3.org/2000/svg" xmlns:ev="http://www.w3.org/2001/xml-events" xmlns:xlink="http://www.w3.org/1999/xlink" baseProfile="full" height="212" version="1.1" width="258">
  <defs/>
  <path d="M 46.500000,210.419667 C 40.045543,208.902075 36.319238,207.506041 34.961439,206.096824 C 34.115231,205.218571 32.090231,203.753163 30.461439,202.840361 C 28.832648,201.927560 27.032431,200.288054 26.460958,199.197014 C 25.889485,198.105974 24.764512,196.421180 23.961017,195.453028 C 23.157522,194.484876 22.625226,192.954270 22.778136,192.051681 C 22.931046,191.149092 22.368519,188.461646 21.528077,186.079579 C 20.687635,183.697511 20.000000,180.515133 20.000000,179.007626 C 20.000000,175.801480 23.868053,166.000000 25.133325,166.000000 C 25.609996,166.000000 26.000000,165.391741 26.000000,164.648314 C 26.000000,162.514912 31.498076,157.317627 35.683874,155.494229 C 37.782743,154.579929 40.370653,153.363952 41.434785,152.792059 C 44.400421,151.198244 57.001551,151.684874 61.506567,153.567191 C 73.844492,158.722305 80.137375,167.738171 80.332234,180.538879 C 80.419934,186.300093 79.960288,188.646776 77.970564,192.596178 C 75.389951,197.718436 67.123405,206.868971 63.244473,208.897014 C 60.799205,210.175487 49.739039,211.181239 46.500000,210.419667" fill="none" stroke="black" stroke-width="5"/>
  <path d="M 208.026533,67.750000 C 204.889275,62.897102 202.919479,59.423354 202.356012,57.750000 C 202.031911,56.787500 201.369221,56.000000 200.883369,56.000000 C 200.397516,56.000000 200.000000,55.506967 200.000000,54.904370 C 200.000000,54.301774 199.153171,52.614274 198.118157,51.154370 C 195.329145,47.220425 190.993943,39.749956 190.339440,37.750000 C 190.024453,36.787500 189.369221,36.000000 188.883369,36.000000 C 188.397516,36.000000 188.000000,35.325000 188.000000,34.500000 C 188.000000,33.675000 187.550000,33.000000 187.000000,33.000000 C 186.450000,33.000000 186.000000,32.394744 186.000000,31.654988 C 186.000000,30.915231 185.100000,29.495486 184.000000,28.500000 C 182.900000,27.504514 182.000000,25.650602 182.000000,24.380196 C 182.000000,23.093823 181.113825,21.596101 180.000000,21.000000 C 178.900000,20.411298 178.000000,19.193398 178.000000,18.293557 C 178.000000,17.393715 177.270423,15.851308 176.378719,14.865986 C 175.487014,13.880663 175.022891,12.382730 175.347334,11.537245 C 175.818671,10.308960 177.903119,9.980520 185.718615,9.903077 C 200.367912,9.757917 221.209676,9.084458 228.258561,8.528485 C 235.260141,7.976243 244.000000,8.832711 244.000000,10.071077 C 244.000000,11.173527 236.089147,23.990451 233.819970,26.564451 C 232.818987,27.699899 232.000000,29.205433 232.000000,29.910081 C 232.000000,30.614729 231.094640,32.462720 229.988088,34.016729 C 226.426121,39.019051 214.653228,61.490669 213.050924,66.345699 C 211.667962,70.536116 210.109306,70.971756 208.026533,67.750000" fill="none" stroke="black" stroke-width="5"/>
</svg>
