<?xml version="1.0" encoding="utf-8" ?>
<svg xmlns="http://www.w3.org/2000/svg" xmlns:ev="http://www.w3.org/2001/xml-events" xmlns:xlink="http://www.w3.org/1999/xlink" baseProfile="full" height="213" version="1.1" width="258">
  <defs/>
  <path d="M 104.500000,112.678282 C 96.480994,111.360411 86.994943,106.276833 83.250000,101.290401 C 81.462500,98.910325 80.000000,96.322875 80.000000,95.540512 C 80.000000,94.758149 79.626902,93.887447 79.170894,93.605619 C 78.714886,93.323790 77.749193,90.622987 77.024909,87.603834 C 75.569786,81.538200 76.462218,76.286259 80.271112,68.500000 C 83.316791,62.273928 92.774314,54.000000 96.845354,54.000000 C 97.965490,54.000000 99.160081,53.550000 99.500000,53.000000 C 100.582655,51.248227 110.009731,51.922967 116.868729,54.243161 C 121.940375,55.958747 124.734760,57.707351 128.750000,61.677943 C 131.637500,64.533335 134.000000,67.573913 134.000000,68.434783 C 134.000000,69.295652 134.405979,70.000000 134.902175,70.000000 C 138.040782,70.000000 139.176374,88.940293 136.431627,95.509398 C 134.778309,99.466344 125.733908,109.000000 123.633345,109.000000 C 122.955005,109.000000 121.848261,109.551739 121.173913,110.226087 C 119.170499,112.229501 109.987201,113.580068 104.500000,112.678282" fill="none" stroke="black" stroke-width="5"/>
  <path d="M 181.540164,60.250000 C 178.617976,55.537231 178.098427,54.629289 173.753113,46.641693 C 172.513901,44.363762 171.245301,42.275000 170.934001,42.000000 C 169.544596,40.772607 164.000000,32.032573 164.000000,31.069825 C 164.000000,30.481421 163.659850,30.000000 163.244111,30.000000 C 162.828373,30.000000 161.917617,28.710912 161.220210,27.135359 C 160.522802,25.559807 158.647765,22.297307 157.053460,19.885359 C 155.459155,17.473412 153.846127,14.262500 153.468953,12.750000 L 152.783184,10.000000 L 159.141592,9.850232 C 162.638716,9.767859 172.025000,9.554799 180.000000,9.376766 C 187.975000,9.198733 199.821310,8.928629 206.325133,8.776535 L 218.150265,8.500000 L 217.566835,11.416488 C 217.245948,13.020556 215.862139,15.803031 214.491702,17.599766 C 213.121266,19.396501 212.000000,21.295143 212.000000,21.818971 C 212.000000,22.926018 210.457332,25.884353 206.951682,31.500000 C 205.578300,33.700000 203.790551,36.850000 202.978906,38.500000 C 202.167262,40.150000 201.232338,41.725000 200.901298,42.000000 C 200.570259,42.275000 199.729642,43.625000 199.033262,45.000000 C 194.593940,53.765420 187.269240,64.998785 185.992718,64.999342 C 185.163713,64.999704 183.160064,62.862500 181.540164,60.250000" fill="none" stroke="black" stroke-width="5"/>
</svg>
