<?xml version="1.0" encoding="utf-8" ?>
<svg xmlns="http://www.w3.org/2000/svg" xmlns:ev="http://www.w3.org/2001/xml-events" xmlns:xlink="http://www.w3.org/1999/xlink" baseProfile="full" height="221" version="1.1" width="257">
  <defs/>
  <path d="M 48.875855,191.047871 C 44.593763,189.416428 37.000097,184.231156 37.000029,182.938561 C 37.000013,182.629770 36.212500,181.481857 35.250000,180.387643 C 32.211026,176.932799 31.110855,174.332225 29.893694,167.726455 C 28.778468,161.673907 28.863860,160.898699 31.367522,154.346690 C 33.182246,149.597614 35.369140,146.075938 38.262583,143.243194 C 42.865350,138.736985 48.970782,135.667821 51.444103,136.616924 C 52.299846,136.945303 53.000000,136.715833 53.000000,136.106989 C 53.000000,135.396069 55.683424,135.000000 60.500000,135.000000 C 64.833333,135.000000 68.000000,135.422222 68.000000,136.000000 C 68.000000,136.550000 68.929584,137.000000 70.065741,137.000000 C 72.065312,137.000000 75.978751,138.649522 77.000000,139.922802 C 77.275000,140.265669 78.737500,141.333676 80.250000,142.296151 C 81.762500,143.258626 83.000000,144.710732 83.000000,145.523053 C 83.000000,146.335374 83.360330,147.000000 83.800734,147.000000 C 84.241138,147.000000 85.591138,149.037038 86.800734,151.526751 C 89.850439,157.803962 89.963433,170.959735 87.000000,174.727129 C 85.900000,176.125553 85.000000,178.003177 85.000000,178.899628 C 85.000000,180.936255 77.515831,188.087593 73.500000,189.888206 C 71.850000,190.628031 69.718606,191.630841 68.763569,192.116671 C 65.876902,193.585129 53.837172,192.938093 48.875855,191.047871" fill="none" stroke="black" stroke-width="5"/>
  <path d="M 90.250000,66.282394 C 89.562500,66.035411 89.000000,65.265578 89.000000,64.571654 C 89.000000,63.877731 88.100000,62.495486 87.000000,61.500000 C 85.900000,60.504514 85.000000,59.228467 85.000000,58.664341 C 85.000000,58.100215 82.750000,54.383917 80.000000,50.405902 C 77.250000,46.427886 74.999412,42.796688 74.998693,42.336573 C 74.997975,41.876458 73.197975,38.907756 70.998693,35.739458 C 68.799412,32.571159 67.000000,29.618512 67.000000,29.178019 C 67.000000,28.737526 66.141434,27.455560 65.092076,26.329206 C 64.042717,25.202852 62.201283,22.354709 61.000000,20.000000 C 59.798717,17.645291 57.957283,14.797148 56.907924,13.670794 C 55.858566,12.544440 55.000000,10.757649 55.000000,9.700148 C 55.000000,8.017211 55.467680,7.867060 58.750000,8.496196 C 62.493987,9.213822 82.812200,9.243164 105.500000,8.563710 C 112.100000,8.366054 119.444820,8.448955 121.821823,8.747936 C 125.811232,9.249726 126.096553,9.479167 125.531381,11.730991 C 125.194636,13.072690 124.037316,15.116947 122.959559,16.273784 C 121.881801,17.430620 121.000000,18.967270 121.000000,19.688561 C 121.000000,20.409853 120.550000,21.000000 120.000000,21.000000 C 119.450000,21.000000 119.000000,21.481421 119.000000,22.069825 C 119.000000,22.658228 117.724926,25.020728 116.166502,27.319825 C 114.608078,29.618921 112.245578,33.525000 110.916502,36.000000 C 109.587426,38.475000 108.261110,40.725000 107.969134,41.000000 C 107.677158,41.275000 105.441047,44.875000 103.000000,49.000000 C 100.558953,53.125000 98.318535,56.725000 98.021293,57.000000 C 97.724052,57.275000 96.585162,59.220432 95.490427,61.323182 C 93.173769,65.772984 91.979079,66.903563 90.250000,66.282394" fill="none" stroke="black" stroke-width="5"/>
</svg>
