<?xml version="1.0" encoding="utf-8" ?>
<svg xmlns="http://www.w3.org/2000/svg" xmlns:ev="http://www.w3.org/2001/xml-events" xmlns:xlink="http://www.w3.org/1999/xlink" baseProfile="full" height="215" version="1.1" width="257">
  <defs/>
  <path d="M 127.982068,178.708968 C 119.692758,175.444909 114.759424,172.692757 111.682764,169.616098 C 104.039571,161.972904 101.926376,145.920458 107.345979,136.672605 C 113.773205,125.705373 122.203335,120.500000 133.537602,120.500000 C 139.587738,120.500000 141.552118,120.991095 147.537602,124.000000 C 153.392589,126.943304 155.141712,128.457115 158.534502,133.517471 C 163.846053,141.439663 165.833471,149.372462 163.979345,155.250605 C 160.754277,165.475045 155.693545,172.019415 148.298448,175.528619 C 141.155514,178.918163 132.109538,180.334230 127.982068,178.708968" fill="none" stroke="black" stroke-width="5"/>
  <path d="M 88.000000,62.034716 C 88.000000,60.918168 89.575000,57.812344 91.500000,55.132885 C 93.425000,52.453425 95.000000,49.847885 95.000000,49.342796 C 95.000000,48.837707 96.331712,46.866450 97.959359,44.962226 C 99.587007,43.058002 100.937007,40.750000 100.959359,39.833333 C 100.981712,38.916667 101.354183,38.016667 101.787074,37.833333 C 102.219964,37.650000 103.795284,35.394323 105.287784,32.820719 C 106.780284,30.247114 108.563600,27.529713 109.250710,26.782050 C 111.204384,24.656202 113.000000,21.175170 113.000000,19.513569 C 113.000000,18.681106 113.450000,18.000000 114.000000,18.000000 C 114.550000,18.000000 115.000000,17.432582 115.000000,16.739071 C 115.000000,15.104586 121.171086,7.985033 122.580480,7.993505 C 124.042456,8.002293 129.635216,15.921109 132.075231,21.437168 C 133.165174,23.901164 134.465636,26.169745 134.965148,26.478460 C 135.464660,26.787176 136.509653,28.268315 137.287354,29.769881 C 142.394069,39.629794 145.719718,45.395404 147.244024,47.031554 C 148.209811,48.068205 149.000000,49.140386 149.000000,49.414180 C 149.000000,49.687974 150.350000,52.201593 152.000000,55.000000 C 155.302484,60.601026 155.685094,62.523127 153.652784,63.302998 C 152.911814,63.587334 137.836814,63.875060 120.152784,63.942388 C 88.467630,64.063021 88.000000,64.035276 88.000000,62.034716" fill="none" stroke="black" stroke-width="5"/>
</svg>
