<?xml version="1.0" encoding="utf-8" ?>
<svg xmlns="http://www.w3.org/2000/svg" xmlns:ev="http://www.w3.org/2001/xml-events" xmlns:xlink="http://www.w3.org/1999/xlink" baseProfile="full" height="216" version="1.1" width="253">
  <defs/>
  <path d="M 34.500000,91.064381 C 30.834746,90.239002 30.976526,89.397393 36.035923,81.947102 C 38.216165,78.736552 40.000000,75.906039 40.000000,75.657073 C 40.000000,75.408107 41.800000,72.241548 44.000000,68.620274 C 46.200000,64.999001 48.000000,61.615509 48.000000,61.101404 C 48.000000,60.587298 48.354183,60.016667 48.787074,59.833333 C 49.219964,59.650000 50.813934,57.362500 52.329228,54.750000 C 54.595161,50.843332 55.589035,50.000000 57.927144,50.000000 C 60.807043,50.000000 64.000000,53.334662 64.000000,56.342372 C 64.000000,57.119378 64.664136,58.306295 65.475858,58.979964 C 66.287580,59.653634 68.175615,62.621934 69.671490,65.576187 C 71.167365,68.530441 73.350830,72.064274 74.523633,73.429150 C 75.696436,74.794026 77.476745,77.730826 78.479875,79.955371 C 79.483006,82.179917 80.685405,84.000000 81.151874,84.000000 C 81.618343,84.000000 82.000000,84.675000 82.000000,85.500000 C 82.000000,86.325000 82.450000,87.000000 83.000000,87.000000 C 84.959657,87.000000 83.960205,89.779282 81.750000,90.476008 C 78.752072,91.421049 38.319648,91.924527 34.500000,91.064381" fill="none" stroke="black" stroke-width="5"/>
  <path d="M 205.542134,67.068174 C 205.179041,66.480678 203.390203,66.000000 201.566936,66.000000 C 194.641297,66.000000 182.010684,55.878101 180.531297,49.142495 C 180.151683,47.414123 179.426844,46.000000 178.920545,46.000000 C 177.604391,46.000000 177.782655,35.489237 179.181459,30.616020 C 182.170126,20.203969 191.715975,11.457117 202.246455,9.481588 C 204.246254,9.106423 209.036863,9.331530 212.892254,9.981826 C 219.288534,11.060699 220.378605,11.616495 225.346887,16.332091 C 236.346852,26.772600 239.467542,44.129025 231.861477,52.564451 C 230.837665,53.699899 230.000000,55.168743 230.000000,55.828548 C 230.000000,57.686898 223.818308,62.836210 220.750000,63.533741 C 219.237500,63.877584 218.000000,64.527843 218.000000,64.978762 C 218.000000,65.429680 216.087500,65.992382 213.750000,66.229210 C 211.412500,66.466039 208.758018,66.992029 207.851151,67.398078 C 206.942705,67.804833 205.905858,67.656692 205.542134,67.068174" fill="none" stroke="black" stroke-width="5"/>
  <path d="M 107.827839,52.290201 C 107.274539,51.624812 106.895318,48.474812 106.985125,45.290201 C 107.074932,42.105591 107.227519,35.360499 107.324206,30.301110 C 107.438776,24.305924 107.952054,20.649081 108.797995,19.801110 C 109.763096,18.833692 114.507742,18.500000 127.297995,18.500000 L 144.500000,18.500000 L 144.500000,28.500000 C 144.500000,34.000000 144.749551,38.950000 145.054557,39.500000 C 145.359563,40.050000 145.736320,43.275215 145.891794,46.667144 L 146.174475,52.834288 L 140.837238,53.399255 C 131.531955,54.384254 108.937896,53.625136 107.827839,52.290201" fill="none" stroke="black" stroke-width="5"/>
</svg>
