<?xml version="1.0" encoding="utf-8" ?>
<svg xmlns="http://www.w3.org/2000/svg" xmlns:ev="http://www.w3.org/2001/xml-events" xmlns:xlink="http://www.w3.org/1999/xlink" baseProfile="full" height="216" version="1.1" width="261">
  <defs/>
  <path d="M 186.250000,167.263199 C 183.223992,166.900156 183.005417,166.619197 183.078604,163.186642 C 183.126892,160.921814 184.277740,157.764501 186.062652,155.000000 C 187.660647,152.525000 189.487732,149.375000 190.122841,148.000000 C 194.694829,138.101722 196.091608,135.199946 197.343138,133.000000 C 198.125363,131.625000 199.379941,129.150000 200.131089,127.500000 C 200.882236,125.850000 201.772239,124.275000 202.108873,124.000000 C 202.445507,123.725000 203.470281,122.037500 204.386148,120.250000 C 206.040113,117.021952 209.000000,115.787462 209.000000,118.325686 C 209.000000,119.054813 210.048534,120.636418 211.330075,121.840364 C 212.611617,123.044310 214.684396,126.080209 215.936252,128.586807 C 217.188107,131.093404 218.839573,133.384944 219.606176,133.679117 C 220.372779,133.973290 221.000000,134.755980 221.000000,135.418427 C 221.000000,136.080875 221.787500,137.495230 222.750000,138.561439 C 224.446572,140.440815 225.578388,142.107726 233.372467,154.205948 C 235.394246,157.344220 237.487533,160.183278 238.024215,160.514965 C 238.560897,160.846653 239.000000,161.939626 239.000000,162.943794 C 239.000000,165.231211 235.231789,165.706114 210.500000,166.535614 C 200.600000,166.867658 191.825000,167.254932 191.000000,167.396222 C 190.175000,167.537513 188.037500,167.477652 186.250000,167.263199" fill="none" stroke="black" stroke-width="5"/>
  <path d="M 33.098946,122.531410 C 27.610958,120.546713 20.105057,113.273233 17.158918,107.084967 C 11.789825,95.807369 14.686962,81.032735 23.899504,72.709757 C 30.748849,66.521785 33.517209,65.489717 43.000000,65.588932 C 53.603486,65.699872 59.193951,68.112711 65.469697,75.286831 C 73.629825,84.615083 75.334169,96.659246 69.983938,107.187812 C 66.196741,114.640528 63.640528,117.196741 56.187812,120.983938 C 51.172181,123.532698 49.187192,123.981514 43.376295,123.880690 C 39.594333,123.815070 34.969525,123.207893 33.098946,122.531410" fill="none" stroke="black" stroke-width="5"/>
  <path d="M 110.750000,123.381690 C 109.336490,122.954941 108.990884,121.665702 108.952591,116.676676 C 108.926516,113.279504 108.658408,106.150266 108.356796,100.833925 L 107.808411,91.167850 L 113.654205,90.370564 C 121.868768,89.250212 143.762453,89.360860 144.920703,90.528583 C 146.480366,92.101002 147.537052,121.550050 146.066422,122.458949 C 144.640943,123.339944 113.322128,124.158236 110.750000,123.381690" fill="none" stroke="black" stroke-width="5"/>
</svg>
