<?xml version="1.0" encoding="utf-8" ?>
<svg xmlns="http://www.w3.org/2000/svg" xmlns:ev="http://www.w3.org/2001/xml-events" xmlns:xlink="http://www.w3.org/1999/xlink" baseProfile="full" height="215" version="1.1" width="257">
  <defs/>
  <path d="M 176.500000,184.001586 C 173.750000,183.599432 165.978152,183.194866 159.229227,183.102550 C 152.480301,183.010234 145.900795,182.532581 144.608101,182.041100 C 143.315407,181.549619 137.362255,181.126480 131.378874,181.100791 C 108.337528,181.001868 101.597484,179.545373 105.610502,175.532355 C 106.856307,174.286550 108.911300,174.114852 116.818012,174.595950 C 122.143106,174.919965 130.775000,175.326429 136.000000,175.499204 C 146.859863,175.858306 178.697685,177.698737 190.332838,178.639990 C 197.073251,179.185272 198.277216,179.568366 198.965425,181.386823 C 199.405287,182.549071 199.566452,183.837500 199.323570,184.250000 C 198.781616,185.170429 183.343766,185.002402 176.500000,184.001586" fill="none" stroke="black" stroke-width="5"/>
  <path d="M 194.941054,105.651273 C 194.698474,105.432646 187.300000,104.955855 178.500000,104.591738 C 169.700000,104.227620 156.425000,103.521783 149.000000,103.023210 C 119.946907,101.072359 114.207607,100.794314 74.500000,99.414002 C 61.599427,98.965554 55.862572,98.386794 54.250000,97.371091 C 51.410365,95.582504 51.410365,94.422304 54.250000,92.610562 C 56.054840,91.459039 58.379564,91.339336 66.000000,92.005536 C 71.225000,92.462321 82.475000,93.103162 91.000000,93.429629 C 129.150008,94.890592 134.587877,95.160404 136.000000,95.662411 C 136.825000,95.955696 142.675000,96.357631 149.000000,96.555599 C 159.133349,96.872765 168.230060,97.448097 180.000000,98.516230 C 181.925000,98.690926 189.044316,98.937372 195.820703,99.063888 C 205.408910,99.242902 208.568010,99.649442 210.064948,100.896959 C 211.126847,101.781924 211.655108,102.994353 211.244245,103.603600 C 210.538476,104.650146 195.873904,106.492009 194.941054,105.651273" fill="black" stroke="black" stroke-width="1"/>
  <path d="M 145.749465,38.416132 C 144.176354,36.843021 145.047567,34.028165 147.250000,33.567960 C 148.487500,33.309381 163.523603,32.885256 180.663562,32.625460 C 205.892876,32.243052 212.176823,32.411342 213.663562,33.509232 C 216.210930,35.390349 214.315783,37.117385 208.782745,37.957090 C 202.563491,38.900937 146.641523,39.308190 145.749465,38.416132" fill="none" stroke="black" stroke-width="5"/>
</svg>
