<?xml version="1.0" encoding="utf-8" ?>
<svg xmlns="http://www.w3.org/2000/svg" xmlns:ev="http://www.w3.org/2001/xml-events" xmlns:xlink="http://www.w3.org/1999/xlink" baseProfile="full" height="218" version="1.1" width="256">
  <defs/>
  <path d="M 215.992828,208.126415 C 213.879504,207.248070 209.000000,202.815789 209.000000,201.774504 C 209.000000,201.298851 206.637500,197.481805 203.750000,193.292180 C 200.862500,189.102555 196.316290,182.485377 193.647311,178.587340 C 190.978332,174.689303 188.390832,171.350000 187.897311,171.166667 C 187.403790,170.983333 187.000000,170.112336 187.000000,169.231118 C 187.000000,168.349899 186.170639,166.699899 185.156975,165.564451 C 184.143311,164.429003 180.882120,159.900000 177.909884,155.500000 C 174.937648,151.100000 171.971488,146.934836 171.318418,146.244080 C 170.665348,145.553324 169.846214,144.090824 169.498121,142.994080 C 169.150028,141.897336 168.445549,141.000000 167.932612,141.000000 C 166.750298,141.000000 166.702286,136.302031 167.877180,135.575907 C 169.583809,134.521152 175.530349,139.576218 177.748883,143.967694 C 178.985768,146.416047 180.673268,148.797276 181.498883,149.259313 C 182.324497,149.721350 183.000000,150.752020 183.000000,151.549690 C 183.000000,152.347361 183.398726,153.000000 183.886059,153.000000 C 184.373391,153.000000 185.490086,154.513008 186.367604,156.362240 C 187.245122,158.211471 188.679285,160.318867 189.554634,161.045342 C 190.429982,161.771816 192.073737,164.196309 193.207422,166.433102 C 194.341108,168.669896 195.567399,170.725000 195.932514,171.000000 C 197.438185,172.134053 201.000000,177.909782 201.000000,179.217279 C 201.000000,179.991975 202.350000,181.919200 204.000000,183.500000 C 205.650000,185.080800 207.000000,186.964991 207.000000,187.687091 C 207.000000,188.409191 207.338273,189.000000 207.751717,189.000000 C 208.165162,189.000000 209.626221,191.137500 210.998515,193.750000 C 212.370810,196.362500 214.237037,199.175000 215.145687,200.000000 C 216.054337,200.825000 217.528416,202.673986 218.421418,204.108857 C 219.720347,206.195968 219.790566,206.921217 218.772530,207.735273 C 218.072638,208.294930 216.821772,208.470944 215.992828,208.126415" fill="none" stroke="black" stroke-width="5"/>
  <path d="M 37.175759,103.941374 C 33.484767,102.461553 34.796445,99.615388 39.513115,98.869625 C 41.705902,98.522918 45.975000,97.703344 49.000000,97.048349 C 52.025000,96.393354 56.750000,95.493802 59.500000,95.049346 C 62.250000,94.604890 69.450000,93.290135 75.500000,92.127669 C 90.578818,89.230377 102.542908,87.171668 108.500000,86.449225 C 111.250000,86.115720 115.750000,85.260827 118.500000,84.549463 C 121.250000,83.838098 126.875000,82.714026 131.000000,82.051524 C 135.125000,81.389023 140.300000,80.452260 142.500000,79.969829 C 149.115857,78.519059 157.417732,77.930239 158.773634,78.815603 C 161.733693,80.748432 153.468199,84.678860 144.966450,85.381228 C 142.509902,85.584175 137.890544,86.481422 134.701210,87.375111 C 131.511875,88.268800 127.548644,89.000000 125.894030,89.000000 C 124.239416,89.000000 120.998871,89.438984 118.692820,89.975520 C 116.386769,90.512055 107.075000,92.320132 98.000000,93.993468 C 88.925000,95.666804 79.250000,97.480241 76.500000,98.023329 C 73.750000,98.566417 64.717408,100.358340 56.427573,102.005381 C 39.774122,105.314121 40.434137,105.247749 37.175759,103.941374" fill="none" stroke="black" stroke-width="5"/>
  <path d="M 30.068268,39.582258 C 28.016332,37.109826 29.519122,35.000000 33.332125,35.000000 C 35.199318,35.000000 38.925941,34.583605 41.613510,34.074679 C 44.301080,33.565752 52.350000,32.894861 59.500000,32.583811 C 66.650000,32.272760 83.262499,31.270174 96.416664,30.355842 L 120.333327,28.693419 L 122.206582,31.006791 C 124.831919,34.248945 123.213104,35.438845 115.700545,35.789016 C 112.290245,35.947974 100.950000,36.548022 90.500000,37.122455 C 80.050000,37.696889 67.225000,38.309543 62.000000,38.483909 C 49.080162,38.915063 35.937862,39.873128 33.430143,40.566631 C 32.184107,40.911220 30.846053,40.519431 30.068268,39.582258" fill="none" stroke="black" stroke-width="5"/>
</svg>
