<?xml version="1.0" encoding="utf-8" ?>
<svg xmlns="http://www.w3.org/2000/svg" xmlns:ev="http://www.w3.org/2001/xml-events" xmlns:xlink="http://www.w3.org/1999/xlink" baseProfile="full" height="220" version="1.1" width="257">
  <defs/>
  <path d="M 199.666667,204.333333 C 198.448700,203.115367 198.976213,199.106373 200.924145,194.776751 C 205.502694,184.600120 207.000000,180.958605 207.000000,180.000000 C 207.000000,179.438012 207.846731,177.070607 208.881625,174.739102 C 209.916519,172.407596 211.318020,168.925000 211.996071,167.000000 C 213.097770,163.872257 215.818885,157.585126 218.157701,152.763569 C 218.620965,151.808532 219.000000,150.346032 219.000000,149.513569 C 219.000000,148.681106 219.450000,148.000000 220.000000,148.000000 C 220.550000,148.000000 221.000000,147.095096 221.000000,145.989102 C 221.000000,144.883107 221.843921,142.070607 222.875380,139.739102 C 226.222390,132.173534 229.000000,124.764328 229.000000,123.401831 C 229.000000,121.657391 232.741619,119.686872 234.657777,120.422171 C 235.778737,120.852324 235.985671,121.822231 235.474284,124.249175 C 235.097539,126.037129 234.386703,127.927500 233.894647,128.450000 C 233.402591,128.972500 233.000000,130.151865 233.000000,131.070810 C 233.000000,131.989756 231.597131,136.062256 229.882514,140.120810 C 226.220730,148.788372 225.605485,150.340262 223.983676,155.000000 C 223.313685,156.925000 222.065957,160.075000 221.210948,162.000000 C 219.452689,165.958610 216.641279,173.335358 214.350826,180.000000 C 213.500237,182.475000 212.398333,184.927500 211.902151,185.450000 C 211.405968,185.972500 211.000000,187.216106 211.000000,188.213569 C 211.000000,189.211032 210.556130,190.808532 210.013623,191.763569 C 209.471116,192.718606 207.920879,196.087500 206.568652,199.250000 C 204.814695,203.352041 203.568851,205.000000 202.221696,205.000000 C 201.183096,205.000000 200.033333,204.700000 199.666667,204.333333" fill="none" stroke="black" stroke-width="5"/>
  <path d="M 158.825006,154.960046 C 157.903759,154.423535 156.623881,152.300542 155.980832,150.242285 C 152.878617,140.312781 147.851850,126.633253 145.883329,122.763569 C 145.397498,121.808532 145.000000,120.147589 145.000000,119.072586 C 145.000000,117.997582 144.626902,116.887447 144.170894,116.605619 C 143.714886,116.323790 142.728668,113.484732 141.979297,110.296602 C 141.229927,107.108471 140.356484,104.275000 140.038313,104.000000 C 139.523142,103.554730 135.554651,92.628428 131.321387,80.000000 C 130.491725,77.525000 127.852095,70.100000 125.455542,63.500000 C 117.470648,41.509949 115.565681,34.912091 116.687853,33.133080 C 117.975728,31.091374 120.032232,31.029029 121.077602,33.000000 C 123.193249,36.988904 125.000000,41.442857 125.000000,42.669387 C 125.000000,44.974677 127.442121,52.000000 128.243479,52.000000 C 128.659565,52.000000 129.000000,52.679904 129.000000,53.510898 C 129.000000,54.341893 129.841216,56.929393 130.869369,59.260898 C 131.897521,61.592404 133.328579,65.525000 134.049496,68.000000 C 134.770413,70.475000 135.648140,72.950000 136.000000,73.500000 C 136.351860,74.050000 137.222095,76.525000 137.933856,79.000000 C 138.645616,81.475000 139.595333,84.400000 140.044338,85.500000 C 140.493344,86.600000 141.436699,89.975000 142.140683,93.000000 C 142.844667,96.025000 144.226007,99.976187 145.210327,101.780416 C 146.194647,103.584645 147.000000,105.862926 147.000000,106.843263 C 147.000000,107.823600 148.178355,111.068306 149.618567,114.053720 C 151.058778,117.039135 153.053460,122.037072 154.051193,125.160247 C 155.048925,128.283421 156.570570,132.202681 157.432626,133.869713 C 158.294682,135.536745 159.000000,138.048027 159.000000,139.450340 C 159.000000,140.852653 159.351758,142.000000 159.781685,142.000000 C 160.910518,142.000000 163.224005,150.400154 162.832100,153.075907 C 162.444343,155.723345 161.166987,156.323959 158.825006,154.960046" fill="none" stroke="black" stroke-width="5"/>
  <path d="M 6.374258,66.532916 C 6.022355,65.615873 6.235515,64.364485 6.847946,63.752054 C 8.143645,62.456355 26.894757,57.536667 38.500000,55.447574 C 42.900000,54.655517 49.425000,53.141244 53.000000,52.082521 C 59.766951,50.078515 61.915133,49.515934 76.000000,46.059119 C 86.999800,43.359465 88.000000,43.393280 88.000000,46.464816 C 88.000000,49.195965 85.581175,50.901306 80.000000,52.105044 C 78.075000,52.520225 73.125000,53.582511 69.000000,54.465680 C 64.875000,55.348849 60.600000,56.474704 59.500000,56.967580 C 58.400000,57.460455 56.150000,58.061403 54.500000,58.303019 C 49.595180,59.021251 34.619027,62.117668 33.000000,62.748283 C 30.217298,63.832153 15.533390,67.166343 11.257040,67.685332 C 7.905469,68.092086 6.879662,67.849980 6.374258,66.532916" fill="black" stroke="black" stroke-width="1"/>
</svg>
