<?xml version="1.0" encoding="utf-8" ?>
<svg xmlns="http://www.w3.org/2000/svg" xmlns:ev="http://www.w3.org/2001/xml-events" xmlns:xlink="http://www.w3.org/1999/xlink" baseProfile="full" height="219" version="1.1" width="257">
  <defs/>
  <path d="M 55.750000,209.919901 C 54.787500,209.359296 54.000000,208.331156 54.000000,207.635146 C 54.000000,206.939135 51.806561,202.123995 49.125691,196.934836 C 38.154009,175.697773 30.026027,160.058355 26.032403,152.500000 C 13.091990,128.008896 13.089064,128.000000 17.974320,128.000000 C 20.256581,128.000000 21.303632,128.686479 22.474320,130.950340 C 23.313444,132.573027 24.000000,134.450094 24.000000,135.121599 C 24.000000,135.793105 24.609505,137.052952 25.354456,137.921259 C 26.099407,138.789567 27.834783,141.750000 29.210848,144.500000 C 30.586913,147.250000 32.653592,151.300000 33.803469,153.500000 C 34.953346,155.700000 37.359885,160.425000 39.151333,164.000000 C 40.942780,167.575000 43.666596,172.500601 45.204255,174.945781 C 46.741915,177.390960 48.000000,179.987402 48.000000,180.715653 C 48.000000,181.443903 49.232228,183.943301 50.738284,186.269872 C 53.968496,191.259934 56.000000,195.662759 56.000000,197.673448 C 56.000000,198.467554 57.393062,200.850756 59.095694,202.969454 C 63.652960,208.640363 61.441358,213.234813 55.750000,209.919901" fill="black" stroke="black" stroke-width="1"/>
  <path d="M 167.356963,205.807310 C 165.595913,203.039895 162.983613,198.356111 161.329372,195.000000 C 160.380531,193.075000 159.291691,191.275000 158.909727,191.000000 C 158.527763,190.725000 156.752281,187.575000 154.964213,184.000000 C 153.176144,180.425000 150.288460,175.475000 148.547137,173.000000 C 146.805814,170.525000 144.061513,166.025000 142.448691,163.000000 C 140.835869,159.975000 137.487622,154.286373 135.008143,150.358608 C 132.528665,146.430842 129.280754,141.030842 127.790565,138.358608 C 124.099397,131.739540 121.607665,127.598838 120.955346,127.000000 C 120.274097,126.374603 116.640915,120.200525 112.716943,113.000000 C 111.068450,109.975000 109.149012,106.825000 108.451524,106.000000 C 107.754036,105.175000 105.964426,101.912500 104.474612,98.750000 C 102.984798,95.587500 101.423136,93.000000 101.004250,93.000000 C 100.585365,93.000000 99.696134,91.680617 99.028182,90.068038 C 98.360230,88.455459 96.699376,85.642959 95.337394,83.818038 C 93.975413,81.993117 92.220199,79.150000 91.436920,77.500000 C 90.653640,75.850000 88.997401,72.898813 87.756387,70.941806 C 86.515374,68.984799 84.171606,65.159799 82.548012,62.441806 C 80.924419,59.723813 79.349419,57.275000 79.048012,57.000000 C 77.867515,55.922929 76.000000,51.948696 76.000000,50.513569 C 76.000000,47.677113 81.624020,48.663244 83.931906,51.904370 C 85.069358,53.501774 86.000000,55.214415 86.000000,55.710238 C 86.000000,56.206062 88.250000,60.073580 91.000000,64.304723 C 93.750000,68.535867 96.000000,72.422504 96.000000,72.941695 C 96.000000,74.272728 100.058893,81.000000 100.861971,81.000000 C 101.227401,81.000000 103.057669,84.150000 104.929232,88.000000 C 106.800796,91.850000 108.707358,95.000000 109.166037,95.000000 C 109.624717,95.000000 110.000000,95.715973 110.000000,96.591052 C 110.000000,98.086535 116.641090,108.412166 120.051261,112.218849 C 122.058937,114.459964 126.000000,121.845431 126.000000,123.366657 C 126.000000,124.014367 127.250874,126.109342 128.779719,128.022156 C 130.308564,129.934970 132.671064,133.750000 134.029719,136.500000 C 135.388374,139.250000 136.837500,141.650000 137.250000,141.833333 C 137.662500,142.016667 138.000000,142.804167 138.000000,143.583333 C 138.000000,144.362500 138.450000,145.000000 139.000000,145.000000 C 139.550000,145.000000 140.000000,145.590147 140.000000,146.311439 C 140.000000,147.032730 140.900000,148.588914 142.000000,149.769625 C 143.100000,150.950337 144.000000,152.584672 144.000000,153.401483 C 144.000000,154.218293 144.808786,155.474609 145.797303,156.193296 C 146.785820,156.911983 148.561390,159.379488 149.743016,161.676641 C 152.785504,167.591427 154.408826,170.422580 155.088827,171.000000 C 155.767078,171.575934 160.926745,180.514009 164.180802,186.750000 C 165.400553,189.087500 166.758862,191.000000 167.199266,191.000000 C 167.639670,191.000000 168.012500,192.012500 168.027778,193.250000 C 168.043056,194.487500 169.413715,196.833159 171.073687,198.462576 C 174.941693,202.259383 174.829419,206.346156 170.844436,206.807310 C 169.383876,206.976330 167.814513,206.526330 167.356963,205.807310" fill="black" stroke="black" stroke-width="1"/>
  <path d="M 186.475396,91.540283 C 185.113928,88.461763 184.000000,85.462771 184.000000,84.875857 C 184.000000,84.288943 183.196284,82.614274 182.213964,81.154370 C 180.416569,78.483119 179.616638,76.847083 176.515621,69.500000 C 175.587057,67.300000 173.291175,62.450884 171.413661,58.724188 C 169.536148,54.997491 168.000000,51.284991 168.000000,50.474188 C 168.000000,49.663384 167.550000,49.000000 167.000000,49.000000 C 166.450000,49.000000 166.000000,48.409523 166.000000,47.687829 C 166.000000,46.295832 165.180241,44.490316 155.887410,25.414895 C 149.051453,11.382704 148.627224,9.000000 152.964816,9.000000 C 156.116362,9.000000 158.000000,11.219978 158.000000,14.934259 C 158.000000,16.070416 158.450000,17.000000 159.000000,17.000000 C 159.550000,17.000000 160.000000,18.125000 160.000000,19.500000 C 160.000000,20.875000 160.450000,22.000000 161.000000,22.000000 C 161.550000,22.000000 162.000000,23.125000 162.000000,24.500000 C 162.000000,25.875000 162.412782,27.000000 162.917292,27.000000 C 163.421803,27.000000 164.605500,29.018614 165.547731,31.485810 C 166.489961,33.953005 167.877180,36.483105 168.630439,37.108254 C 169.383697,37.733404 170.000000,39.470045 170.000000,40.967457 C 170.000000,42.464869 170.868140,44.475681 171.929200,45.435927 C 173.847327,47.171808 174.348029,48.111066 180.492671,61.500000 C 185.118602,71.579723 186.000000,73.877668 186.000000,75.858492 C 186.000000,76.828904 186.900000,78.588914 188.000000,79.769625 C 189.100000,80.950337 190.000000,82.169132 190.000000,82.478058 C 190.000000,82.786985 191.151675,84.864116 192.559279,87.093903 C 195.919191,92.416350 195.579667,96.375948 191.725396,96.818797 C 189.219282,97.106744 188.711255,96.595958 186.475396,91.540283" fill="black" stroke="black" stroke-width="1"/>
</svg>
