<?xml version="1.0" encoding="utf-8" ?>
<svg xmlns="http://www.w3.org/2000/svg" xmlns:ev="http://www.w3.org/2001/xml-events" xmlns:xlink="http://www.w3.org/1999/xlink" baseProfile="full" height="220" version="1.1" width="258">
  <defs/>
  <path d="M 57.500000,213.000000 C 57.160081,212.450000 55.821024,212.000000 54.524316,212.000000 C 53.227609,212.000000 52.016667,211.644392 51.833333,211.209761 C 51.650000,210.775129 48.897972,209.199075 45.717716,207.707418 C 42.537460,206.215761 39.637496,204.218904 39.273351,203.269959 C 38.909207,202.321014 37.187470,200.120803 35.447269,198.380602 C 33.707068,196.640401 31.279389,193.142865 30.052427,190.608300 C 28.825465,188.073735 27.411730,186.000000 26.910794,186.000000 C 26.409857,186.000000 26.000000,185.318894 26.000000,184.486431 C 26.000000,183.653968 25.550000,182.078968 25.000000,180.986431 C 24.450000,179.893894 23.578133,178.151154 23.062517,177.113675 C 22.546902,176.076196 21.823756,172.564396 21.455526,169.309674 C 20.622037,161.942607 22.377468,158.237871 30.259521,150.729345 C 33.278740,147.853205 36.762056,143.475000 38.000224,141.000000 C 39.238391,138.525000 40.644864,135.718606 41.125718,134.763569 C 41.606573,133.808532 42.000000,130.915481 42.000000,128.334567 C 42.000000,125.753653 42.410821,122.260047 42.912935,120.570998 C 43.415050,118.881949 44.337285,115.272907 44.962347,112.550905 C 46.492112,105.889127 51.459935,99.237384 57.000000,96.432906 C 65.610924,92.073904 66.720227,91.759135 71.148590,92.418184 C 73.541865,92.774362 79.121784,93.318432 83.548410,93.627228 L 91.596819,94.188675 L 95.069696,90.344337 C 96.979778,88.229952 100.781264,83.350000 103.517442,79.500000 C 106.253619,75.650000 110.344268,70.688161 112.607771,68.473690 C 114.871274,66.259220 117.040829,63.446720 117.429003,62.223690 C 117.817178,61.000661 118.524126,60.000000 119.000000,60.000000 C 119.475874,60.000000 120.124870,59.212500 120.442215,58.250000 C 120.933467,56.760041 122.477843,54.724638 127.840096,48.500000 C 135.566802,39.530644 148.198752,35.319299 162.501058,36.944439 C 166.962035,37.451330 171.936742,38.402226 173.555963,39.057541 C 178.499614,41.058288 181.475274,42.468934 182.000000,43.060534 C 182.275000,43.370582 185.068159,44.653214 188.207020,45.910827 L 193.914039,48.197398 L 197.062361,45.955595 C 198.793938,44.722603 202.652276,41.577209 205.636446,38.965830 C 208.620615,36.354451 212.285711,33.971117 213.781104,33.669532 C 215.276497,33.367947 217.735718,32.816808 219.246041,32.444778 C 222.321838,31.687132 228.033519,33.921136 231.848985,37.374155 C 233.140927,38.543370 235.357628,41.750000 236.774988,44.500000 C 239.683149,50.142494 239.996919,55.249636 238.126613,66.500000 C 237.486573,70.350000 236.090376,80.475000 235.023951,89.000000 C 231.557324,116.712242 230.454173,121.940483 226.349046,130.113608 C 223.592380,135.602007 221.284901,138.704985 216.508759,143.346315 C 213.420176,146.347719 202.610476,154.000000 201.459240,154.000000 C 201.101466,154.000000 199.614274,154.847313 198.154370,155.882918 C 193.081958,159.481110 188.463391,161.696413 183.246674,163.033417 C 180.361003,163.772992 178.000000,164.743027 178.000000,165.189050 C 178.000000,165.635072 177.212500,166.010006 176.250000,166.022236 C 175.287500,166.034466 173.375000,166.924459 172.000000,168.000000 C 170.625000,169.075541 169.050000,169.966590 168.500000,169.980110 C 167.950000,169.993630 165.925000,171.352581 164.000000,173.000000 C 162.075000,174.647419 160.018773,175.996363 159.430606,175.997654 C 158.454343,175.999796 151.889170,180.538071 144.615189,186.239036 C 140.300250,189.620859 132.138314,194.000000 130.150140,194.000000 C 129.187563,194.000000 127.972500,194.386211 127.450000,194.858246 C 126.927500,195.330281 123.575000,196.279486 120.000000,196.967589 C 111.572532,198.589678 104.944615,200.993349 95.179272,205.969037 C 90.828105,208.186067 86.082746,210.000000 84.634030,210.000000 C 83.185313,210.000000 82.000000,210.358403 82.000000,210.796451 C 82.000000,212.915107 58.740449,215.007089 57.500000,213.000000" fill="none" stroke="black" stroke-width="5"/>
  <path d="M 241.000000,73.500000 C 241.000000,72.675000 241.450000,72.000000 242.000000,72.000000 C 242.550000,72.000000 243.000000,72.675000 243.000000,73.500000 C 243.000000,74.325000 242.550000,75.000000 242.000000,75.000000 C 241.450000,75.000000 241.000000,74.325000 241.000000,73.500000" fill="none" stroke="black" stroke-width="5"/>
</svg>
