<?xml version="1.0" encoding="utf-8" ?>
<svg xmlns="http://www.w3.org/2000/svg" xmlns:ev="http://www.w3.org/2001/xml-events" xmlns:xlink="http://www.w3.org/1999/xlink" baseProfile="full" height="219" version="1.1" width="256">
  <defs/>
  <path d="M 204.156219,209.250000 C 201.236156,196.969852 197.094921,177.670431 196.324115,172.750000 L 195.736662,169.000000 L 199.618331,169.071149 C 201.753249,169.110281 207.100000,169.550853 211.500000,170.050198 C 215.900000,170.549543 221.750000,171.183372 224.500000,171.458705 C 227.250000,171.734039 231.862500,172.490339 234.750000,173.139371 C 241.011972,174.546894 241.638428,176.742355 237.145620,181.535002 C 235.580801,183.204253 233.747999,185.602351 233.072727,186.864108 C 232.397456,188.125865 231.215833,189.910114 230.446900,190.829106 C 229.677967,191.748098 226.564648,196.100000 223.528413,200.500000 C 220.492179,204.900000 216.367479,210.862500 214.362413,213.750000 C 211.906039,217.287431 210.024930,219.000000 208.595742,219.000000 C 206.737836,219.000000 206.186968,217.790195 204.156219,209.250000" fill="none" stroke="black" stroke-width="5"/>
</svg>
