<?xml version="1.0" encoding="utf-8" ?>
<svg xmlns="http://www.w3.org/2000/svg" xmlns:ev="http://www.w3.org/2001/xml-events" xmlns:xlink="http://www.w3.org/1999/xlink" baseProfile="full" height="218" version="1.1" width="260">
  <defs/>
  <path d="M 130.105230,67.922920 C 126.033670,65.440716 124.962004,64.410004 122.433940,60.544795 C 116.357818,51.254889 116.759257,42.637985 123.602511,35.461357 C 133.810546,24.756030 146.259633,23.669041 155.932740,32.638452 C 157.333493,33.937303 159.237135,35.000000 160.163056,35.000000 C 161.989867,35.000000 168.000000,30.365301 168.000000,28.956561 C 168.000000,27.411577 173.393862,22.578062 177.704194,20.260497 C 182.133722,17.878843 186.462808,17.321788 187.500000,19.000000 C 187.839919,19.550000 188.940203,20.000000 189.945076,20.000000 C 193.333022,20.000000 195.345440,26.364517 194.681177,34.978501 C 194.086059,42.695831 193.270767,45.056893 189.275857,50.632132 C 186.654552,54.290389 181.900311,55.389994 175.000000,53.933985 C 164.378740,51.692832 164.241139,51.692105 161.195053,53.861110 C 159.573389,55.015836 157.533107,57.464132 156.661092,59.301766 C 152.451185,68.173487 138.138102,72.820118 130.105230,67.922920" fill="none" stroke="black" stroke-width="5"/>
</svg>
