<?xml version="1.0" encoding="utf-8" ?>
<svg baseProfile="full" height="214" version="1.1" width="260" xmlns="http://www.w3.org/2000/svg" xmlns:ev="http://www.w3.org/2001/xml-events" xmlns:xlink="http://www.w3.org/1999/xlink"><defs /><rect fill="white" height="214" width="260" x="0" y="0" /><path d="M 212,138 L 209,142 L 210,149 L 214,151 L 219,151 L 223,145 L 221,139 L 217,137 Z" fill="none" stroke="black" stroke-width="5" /><path d="M 33,127 L 32,129 L 33,136 L 37,138 L 41,138 L 45,135 L 46,130 L 43,126 L 38,125 Z" fill="none" stroke="black" stroke-width="5" /><path d="M 126,79 L 121,83 L 121,89 L 123,91 L 128,92 L 134,89 L 135,84 L 132,80 Z" fill="none" stroke="black" stroke-width="5" /><path d="M 214,33 L 210,34 L 206,39 L 207,44 L 211,47 L 217,46 L 220,41 L 218,35 Z" fill="none" stroke="black" stroke-width="5" /><path d="M 0,0 L 0,213 L 259,213 L 259,0 Z" fill="none" stroke="black" stroke-width="5" /></svg>