<?xml version="1.0" encoding="utf-8" ?>
<svg xmlns="http://www.w3.org/2000/svg" xmlns:ev="http://www.w3.org/2001/xml-events" xmlns:xlink="http://www.w3.org/1999/xlink" baseProfile="full" height="219" version="1.1" width="259">
  <defs/>
  <path d="M 200.353565,205.457817 C 192.373536,201.960291 190.512890,193.210382 196.320521,186.491944 C 199.423528,182.902294 199.984457,182.658490 204.883531,182.770082 C 211.974149,182.931594 216.102735,185.458253 217.960909,190.773323 C 219.322681,194.668500 219.276138,195.251923 217.275031,199.370804 C 213.919522,206.277452 207.495864,208.588179 200.353565,205.457817" fill="none" stroke="black" stroke-width="5"/>
  <path d="M 10.250000,117.337870 C 5.986232,112.547579 5.716587,106.371423 9.551693,101.343339 C 14.395734,94.992475 20.036376,93.536404 26.000000,97.097386 C 31.175729,100.187903 32.952493,102.913047 32.977764,107.799660 C 33.022948,116.536623 28.222491,121.004199 18.799660,120.994603 C 13.964132,120.989678 13.215373,120.669430 10.250000,117.337870" fill="none" stroke="black" stroke-width="5"/>
  <path d="M 189.000000,113.000000 C 185.400000,109.400000 185.000000,108.500000 185.000000,104.000000 C 185.000000,99.500000 185.400000,98.600000 189.000000,95.000000 C 192.655063,91.344937 193.454641,91.000000 198.272156,91.000000 C 202.654818,91.000000 204.158439,91.506215 207.184327,94.000408 C 216.668760,101.818279 210.285523,117.000000 197.514024,117.000000 C 193.580996,117.000000 192.485164,116.485164 189.000000,113.000000" fill="none" stroke="black" stroke-width="5"/>
  <path d="M 88.500000,65.237851 C 86.697587,64.991083 84.202614,63.414267 82.250000,61.287869 C 79.451428,58.240221 79.004621,57.036844 79.033269,52.624308 C 79.069183,47.092656 80.264502,45.035281 85.654370,41.228111 C 91.032178,37.429460 97.149710,38.823910 102.380884,45.040808 C 104.389342,47.427725 104.999715,49.243044 104.998779,52.826725 C 104.996611,61.118494 97.823617,66.514344 88.500000,65.237851" fill="none" stroke="black" stroke-width="5"/>
</svg>
