<?xml version="1.0" encoding="utf-8" ?>
<svg baseProfile="full" height="219" version="1.1" width="259" xmlns="http://www.w3.org/2000/svg" xmlns:ev="http://www.w3.org/2001/xml-events" xmlns:xlink="http://www.w3.org/1999/xlink"><defs /><rect fill="white" height="219" width="259" x="0" y="0" /><path d="M 230,179 L 227,183 L 228,189 L 232,192 L 237,191 L 241,185 L 240,181 L 237,179 Z" fill="none" stroke="black" stroke-width="5" /><path d="M 39,174 L 34,177 L 32,180 L 32,183 L 35,186 L 40,188 L 45,185 L 46,179 L 42,175 Z" fill="none" stroke="black" stroke-width="5" /><path d="M 133,132 L 131,134 L 132,141 L 137,144 L 141,143 L 145,138 L 144,134 L 141,131 Z" fill="none" stroke="black" stroke-width="5" /><path d="M 133,19 L 127,23 L 127,29 L 132,33 L 136,33 L 140,29 L 140,23 L 139,21 Z" fill="none" stroke="black" stroke-width="5" /><path d="M 0,0 L 0,218 L 258,218 L 258,0 Z" fill="none" stroke="black" stroke-width="5" /></svg>