<?xml version="1.0" encoding="utf-8" ?>
<svg baseProfile="full" height="219" version="1.1" width="257" xmlns="http://www.w3.org/2000/svg" xmlns:ev="http://www.w3.org/2001/xml-events" xmlns:xlink="http://www.w3.org/1999/xlink"><defs /><rect fill="white" height="219" width="257" x="0" y="0" /><path d="M 41,167 L 36,171 L 35,175 L 39,181 L 44,182 L 49,179 L 51,172 L 48,168 Z" fill="none" stroke="black" stroke-width="5" /><path d="M 41,114 L 37,113 L 30,117 L 30,123 L 34,127 L 39,127 L 44,124 L 45,119 Z" fill="none" stroke="black" stroke-width="5" /><path d="M 30,54 L 26,58 L 25,63 L 30,69 L 35,69 L 40,65 L 40,59 L 36,54 Z" fill="none" stroke="black" stroke-width="5" /><path d="M 211,33 L 207,37 L 207,44 L 212,48 L 216,48 L 220,46 L 222,39 L 218,34 Z" fill="none" stroke="black" stroke-width="5" /><path d="M 0,0 L 0,218 L 256,218 L 256,0 Z" fill="none" stroke="black" stroke-width="5" /></svg>