<?xml version="1.0" encoding="utf-8" ?>
<svg baseProfile="full" height="213" version="1.1" width="260" xmlns="http://www.w3.org/2000/svg" xmlns:ev="http://www.w3.org/2001/xml-events" xmlns:xlink="http://www.w3.org/1999/xlink"><defs /><rect fill="white" height="213" width="260" x="0" y="0" /><path d="M 198,124 L 193,127 L 192,133 L 196,138 L 200,139 L 206,135 L 206,128 L 203,125 Z" fill="none" stroke="black" stroke-width="5" /><path d="M 45,59 L 41,64 L 42,69 L 46,73 L 53,72 L 56,68 L 55,62 L 52,59 Z" fill="none" stroke="black" stroke-width="5" /><path d="M 139,52 L 136,56 L 136,61 L 140,65 L 147,65 L 150,62 L 151,56 L 145,51 Z" fill="none" stroke="black" stroke-width="5" /><path d="M 223,47 L 220,49 L 218,54 L 219,58 L 226,62 L 231,59 L 232,51 L 227,47 Z" fill="none" stroke="black" stroke-width="5" /><path d="M 0,0 L 0,212 L 259,212 L 259,0 Z" fill="none" stroke="black" stroke-width="5" /></svg>