<?xml version="1.0" encoding="utf-8" ?>
<svg baseProfile="full" height="218" version="1.1" width="257" xmlns="http://www.w3.org/2000/svg" xmlns:ev="http://www.w3.org/2001/xml-events" xmlns:xlink="http://www.w3.org/1999/xlink"><defs /><rect fill="white" height="218" width="257" x="0" y="0" /><path d="M 44,161 L 39,165 L 38,170 L 41,175 L 47,176 L 52,172 L 53,168 L 49,162 Z" fill="none" stroke="black" stroke-width="5" /><path d="M 226,126 L 223,129 L 223,135 L 227,139 L 235,138 L 238,133 L 236,127 L 232,125 Z" fill="none" stroke="black" stroke-width="5" /><path d="M 140,97 L 135,98 L 132,102 L 132,108 L 138,112 L 146,108 L 146,102 Z" fill="none" stroke="black" stroke-width="5" /><path d="M 44,71 L 39,70 L 33,74 L 32,78 L 36,84 L 42,84 L 45,82 L 47,76 Z" fill="none" stroke="black" stroke-width="5" /><path d="M 0,0 L 0,217 L 256,217 L 256,0 Z" fill="none" stroke="black" stroke-width="5" /></svg>