<?xml version="1.0" encoding="utf-8" ?>
<svg baseProfile="full" height="218" version="1.1" width="260" xmlns="http://www.w3.org/2000/svg" xmlns:ev="http://www.w3.org/2001/xml-events" xmlns:xlink="http://www.w3.org/1999/xlink"><defs /><rect fill="white" height="218" width="260" x="0" y="0" /><path d="M 218,187 L 214,188 L 209,194 L 211,200 L 215,202 L 222,200 L 224,196 L 223,191 Z" fill="none" stroke="black" stroke-width="5" /><path d="M 39,154 L 33,155 L 29,161 L 30,166 L 36,170 L 40,169 L 44,163 L 43,158 Z" fill="none" stroke="black" stroke-width="5" /><path d="M 24,88 L 21,92 L 22,98 L 26,101 L 31,101 L 36,95 L 35,91 L 29,87 Z" fill="none" stroke="black" stroke-width="5" /><path d="M 202,16 L 198,18 L 196,25 L 200,30 L 204,31 L 209,28 L 211,23 L 208,18 Z" fill="none" stroke="black" stroke-width="5" /><path d="M 0,0 L 0,217 L 259,217 L 259,0 Z" fill="none" stroke="black" stroke-width="5" /></svg>