<?xml version="1.0" encoding="utf-8" ?>
<svg xmlns="http://www.w3.org/2000/svg" xmlns:ev="http://www.w3.org/2001/xml-events" xmlns:xlink="http://www.w3.org/1999/xlink" baseProfile="full" height="219" version="1.1" width="258">
  <defs/>
  <path d="M 142.767107,197.625705 C 133.263180,193.411340 131.110922,181.516664 138.647621,174.858934 C 141.163841,172.636168 149.262466,171.007751 151.519359,172.270772 C 162.594272,178.468605 163.041336,193.031102 152.294545,197.521398 C 148.150157,199.253034 146.478220,199.271338 142.767107,197.625705" fill="none" stroke="black" stroke-width="5"/>
  <path d="M 161.500000,118.459944 C 157.603386,116.518760 153.999007,110.895087 154.003738,106.764024 C 154.010837,100.565031 160.987352,93.013401 166.716073,93.003738 C 170.515603,92.997329 175.942496,96.237364 178.014614,99.749341 C 180.485959,103.937960 180.621237,111.122239 178.295596,114.671615 C 175.094156,119.557631 167.253435,121.326144 161.500000,118.459944" fill="none" stroke="black" stroke-width="5"/>
  <path d="M 85.000000,103.825921 C 77.334627,98.674102 76.181896,89.618104 82.400000,83.400000 C 86.772803,79.027197 91.512199,78.200333 96.784985,80.890308 C 104.331919,84.740466 106.591873,95.470903 101.212841,101.914115 C 98.901413,104.682833 97.578591,105.331672 93.462841,105.715459 C 89.422204,106.092241 87.849624,105.741124 85.000000,103.825921" fill="none" stroke="black" stroke-width="5"/>
  <path d="M 175.835195,32.829162 C 168.282380,28.449951 166.870735,17.372208 173.104452,11.399928 C 175.802526,8.815010 176.829238,8.500000 182.556188,8.500000 C 188.203988,8.500000 189.275052,8.817068 191.411904,11.121567 C 194.348535,14.288591 196.488972,20.915646 195.652139,24.249854 C 194.343493,29.463914 186.754919,35.058164 181.100777,34.977029 C 180.220350,34.964396 177.850838,33.997855 175.835195,32.829162" fill="none" stroke="black" stroke-width="5"/>
</svg>
