<?xml version="1.0" encoding="utf-8" ?>
<svg xmlns="http://www.w3.org/2000/svg" xmlns:ev="http://www.w3.org/2001/xml-events" xmlns:xlink="http://www.w3.org/1999/xlink" baseProfile="full" height="218" version="1.1" width="257">
  <defs/>
  <path d="M 37.844203,179.745033 C 34.268359,176.722254 33.000000,173.922420 33.000000,169.051717 C 33.000000,164.390565 36.237599,158.673127 39.797053,157.048460 C 41.060432,156.471807 44.097932,156.000000 46.547053,156.000000 C 50.408824,156.000000 51.531042,156.531042 55.000000,160.000000 C 58.468958,163.468958 59.000000,164.591176 59.000000,168.452947 C 59.000000,170.902068 58.525271,173.947811 57.945046,175.221266 C 54.985954,181.715765 43.289474,184.348100 37.844203,179.745033" fill="none" stroke="black" stroke-width="5"/>
  <path d="M 223.897883,143.736803 C 216.184800,138.599421 215.176304,129.399242 221.656325,123.287796 C 224.779313,120.342439 225.751904,120.000000 230.994279,120.000000 C 236.179679,120.000000 237.192258,120.346104 239.885063,123.038909 C 243.197760,126.351606 244.591951,131.290246 243.606050,136.219752 C 242.816292,140.168538 240.502331,142.763273 236.148178,144.582554 C 231.344381,146.589709 227.815338,146.346066 223.897883,143.736803" fill="none" stroke="black" stroke-width="5"/>
  <path d="M 130.375692,114.445325 C 126.634190,111.013725 126.506179,110.680874 126.678465,104.831853 C 126.843705,99.222044 127.130914,98.522097 130.554158,95.386528 C 137.418205,89.099306 147.029608,91.379576 151.706256,100.404787 C 153.413788,103.700060 152.928129,108.934552 150.582753,112.514048 C 148.478098,115.726157 143.458399,118.000000 138.472054,118.000000 C 135.029605,118.000000 133.536772,117.344578 130.375692,114.445325" fill="none" stroke="black" stroke-width="5"/>
  <path d="M 35.500000,90.280761 C 30.635519,89.095685 27.000000,83.291506 27.000000,76.710338 C 27.000000,72.920199 27.506303,71.860630 30.710747,68.944652 C 33.908459,66.034799 35.267820,65.514058 40.542915,65.178165 C 46.658016,64.788785 46.667608,64.792512 49.832168,68.788095 C 58.375729,79.575220 49.037604,93.578767 35.500000,90.280761" fill="none" stroke="black" stroke-width="5"/>
</svg>
