<?xml version="1.0" encoding="utf-8" ?>
<svg baseProfile="full" height="219" version="1.1" width="258" xmlns="http://www.w3.org/2000/svg" xmlns:ev="http://www.w3.org/2001/xml-events" xmlns:xlink="http://www.w3.org/1999/xlink"><defs /><rect fill="white" height="219" width="258" x="0" y="0" /><path d="M 148,177 L 143,178 L 139,184 L 141,189 L 145,192 L 151,191 L 154,186 L 153,181 Z" fill="none" stroke="black" stroke-width="5" /><path d="M 164,99 L 160,103 L 159,106 L 160,109 L 164,113 L 171,113 L 174,108 L 173,103 L 169,99 Z" fill="none" stroke="black" stroke-width="5" /><path d="M 88,85 L 84,89 L 84,95 L 88,99 L 91,100 L 95,99 L 98,94 L 97,89 L 93,85 Z" fill="none" stroke="black" stroke-width="5" /><path d="M 178,14 L 175,17 L 175,24 L 179,28 L 186,27 L 189,23 L 188,16 L 186,14 Z" fill="none" stroke="black" stroke-width="5" /><path d="M 0,0 L 0,218 L 257,218 L 257,0 Z" fill="none" stroke="black" stroke-width="5" /></svg>