<?xml version="1.0" encoding="utf-8" ?>
<svg xmlns="http://www.w3.org/2000/svg" xmlns:ev="http://www.w3.org/2001/xml-events" xmlns:xlink="http://www.w3.org/1999/xlink" baseProfile="full" height="219" version="1.1" width="259">
  <defs/>
  <path d="M 228.433385,180.502848 C 224.983408,177.342792 224.615385,176.523080 224.615385,171.998867 C 224.615385,167.688996 225.074782,166.518059 227.915615,163.587063 C 235.703066,155.552453 249.310155,159.158651 251.153762,169.745717 C 252.558768,177.814077 246.588049,183.989542 237.375692,183.996262 C 232.912034,183.999518 231.759151,183.549131 228.433385,180.502848" fill="none" stroke="black" stroke-width="5"/>
  <path d="M 147.017010,132.693558 C 144.543300,131.845862 142.848696,130.256330 141.168994,127.208139 C 138.953579,123.187782 138.889243,122.626019 140.151984,118.327953 C 143.622759,106.514265 158.411690,103.711064 164.848249,113.646843 C 166.861924,116.755248 167.101913,118.028751 166.532637,122.585080 C 165.916297,127.518102 165.539078,128.116829 161.262943,130.949223 C 156.314327,134.227051 152.761465,134.662079 147.017010,132.693558" fill="none" stroke="black" stroke-width="5"/>
  <path d="M 64.406556,79.483611 C 60.855488,77.667841 57.000000,71.468289 57.000000,67.574007 C 57.000000,63.558528 60.654285,57.230137 63.960151,55.520607 C 65.577442,54.684273 68.723027,54.000000 70.950340,54.000000 C 74.314173,54.000000 75.650955,54.650955 78.843750,57.843750 C 80.957813,59.957813 82.971562,63.107813 83.318750,64.843750 C 84.043009,68.465046 83.170262,74.000000 81.875000,74.000000 C 81.393750,74.000000 81.000000,74.623246 81.000000,75.384990 C 81.000000,79.398857 69.699570,82.190090 64.406556,79.483611" fill="none" stroke="black" stroke-width="5"/>
  <path d="M 220.805339,36.991074 C 213.597109,31.049442 214.350315,19.903155 222.298549,14.893880 C 227.006422,11.926802 235.642649,12.829395 238.659362,16.603789 C 241.104739,19.663348 242.432012,26.430546 241.396177,30.557640 C 239.151771,39.500066 228.055265,42.967076 220.805339,36.991074" fill="none" stroke="black" stroke-width="5"/>
</svg>
