<?xml version="1.0" encoding="utf-8" ?>
<svg baseProfile="full" height="218" version="1.1" width="264" xmlns="http://www.w3.org/2000/svg" xmlns:ev="http://www.w3.org/2001/xml-events" xmlns:xlink="http://www.w3.org/1999/xlink"><defs /><rect fill="white" height="218" width="264" x="0" y="0" /><path d="M 133,194 L 131,196 L 130,202 L 133,205 L 139,205 L 142,202 L 142,198 L 140,196 L 140,194 Z" fill="none" stroke="black" stroke-width="5" /><path d="M 234,149 L 230,154 L 230,159 L 233,163 L 239,164 L 243,161 L 244,154 L 241,150 Z" fill="none" stroke="black" stroke-width="5" /><path d="M 72,145 L 67,149 L 66,152 L 69,158 L 75,160 L 81,156 L 81,149 L 76,145 Z" fill="none" stroke="black" stroke-width="5" /><path d="M 132,108 L 128,108 L 121,113 L 121,118 L 124,121 L 131,121 L 136,116 Z" fill="none" stroke="black" stroke-width="5" /><path d="M 188,64 L 183,68 L 182,74 L 184,78 L 192,80 L 196,78 L 197,72 L 192,65 Z" fill="none" stroke="black" stroke-width="5" /><path d="M 33,44 L 33,47 L 37,51 L 43,51 L 47,48 L 47,44 L 42,40 L 38,40 Z" fill="none" stroke="black" stroke-width="5" /><path d="M 0,0 L 0,217 L 263,217 L 263,0 Z" fill="none" stroke="black" stroke-width="5" /></svg>