<?xml version="1.0" encoding="utf-8" ?>
<svg xmlns="http://www.w3.org/2000/svg" xmlns:ev="http://www.w3.org/2001/xml-events" xmlns:xlink="http://www.w3.org/1999/xlink" baseProfile="full" height="218" version="1.1" width="259">
  <defs/>
  <path d="M 87.000000,198.913659 C 80.993609,196.683015 78.089231,186.917333 81.736248,181.214817 C 84.146153,177.446664 85.936144,176.216864 90.044867,175.506445 C 94.108016,174.803905 97.240924,175.879497 101.464286,179.426968 C 104.088770,181.631439 104.428571,182.547223 104.428571,187.415882 C 104.428571,193.877264 101.904119,197.376452 96.074257,198.995944 C 91.848108,200.169937 90.346068,200.156317 87.000000,198.913659" fill="none" stroke="black" stroke-width="5"/>
  <path d="M 229.343103,188.453548 C 224.637445,186.391601 221.907832,181.930982 221.774684,176.085556 C 221.674230,171.675474 222.049696,170.750304 225.230994,167.569006 C 228.126717,164.673283 229.550415,164.000000 232.777876,164.000000 C 241.105132,164.000000 248.000000,169.214699 248.000000,175.512735 C 248.000000,181.075769 245.380130,185.765424 241.033575,187.982871 C 236.496106,190.297715 233.799525,190.406284 229.343103,188.453548" fill="none" stroke="black" stroke-width="5"/>
  <path d="M 120.457205,156.136969 C 115.775153,153.281764 113.651754,149.311270 113.780648,143.652633 C 113.878944,139.337270 114.339587,138.330960 117.571962,135.370220 C 120.787772,132.424652 121.923249,132.000000 126.583586,132.000000 C 131.401222,132.000000 132.305855,132.371064 135.957893,135.845164 C 139.563010,139.274629 140.000000,140.198929 140.000000,144.394824 C 140.000000,146.982297 139.317383,150.419356 138.483073,152.032733 C 135.519706,157.763252 126.493947,159.818290 120.457205,156.136969" fill="none" stroke="black" stroke-width="5"/>
  <path d="M 71.419965,126.114322 C 64.739704,122.040707 63.742354,113.121868 69.310461,107.250000 C 72.074343,104.335338 72.965384,104.002294 77.946167,104.022236 C 86.168637,104.055156 90.000000,107.852627 90.000000,115.969442 C 90.000000,125.626009 79.774780,131.209079 71.419965,126.114322" fill="none" stroke="black" stroke-width="5"/>
  <path d="M 159.724801,63.540069 C 151.256287,59.122692 149.356039,50.391831 155.353163,43.454182 C 158.557371,39.747460 158.978541,39.573476 164.834214,39.537572 C 170.548483,39.502536 171.203170,39.740915 174.533620,43.069236 C 177.631613,46.165249 178.120364,47.306868 178.219971,51.679772 C 178.366009,58.091092 175.495079,62.490621 170.206902,63.959319 C 165.218973,65.344629 163.015337,65.256491 159.724801,63.540069" fill="none" stroke="black" stroke-width="5"/>
  <path d="M 58.682420,44.306965 C 53.055521,41.349552 50.468792,33.643334 53.176827,27.905052 C 55.151069,23.721666 58.781125,21.669255 63.895746,21.844643 C 70.860756,22.083483 73.599472,23.616484 75.934062,28.583110 C 78.540413,34.127882 78.527691,34.423848 75.457846,39.662142 C 73.579535,42.867239 72.289277,44.000000 70.516863,44.000000 C 69.197507,44.000000 67.839919,44.450000 67.500000,45.000000 C 66.624733,46.416211 62.004668,46.053088 58.682420,44.306965" fill="none" stroke="black" stroke-width="5"/>
</svg>
