<?xml version="1.0" encoding="utf-8" ?>
<svg baseProfile="full" height="217" version="1.1" width="258" xmlns="http://www.w3.org/2000/svg" xmlns:ev="http://www.w3.org/2001/xml-events" xmlns:xlink="http://www.w3.org/1999/xlink"><defs /><rect fill="white" height="217" width="258" x="0" y="0" /><path d="M 179,178 L 176,182 L 178,189 L 181,191 L 189,190 L 191,186 L 190,181 L 186,177 Z" fill="none" stroke="black" stroke-width="5" /><path d="M 57,151 L 53,154 L 53,162 L 60,163 L 63,161 L 64,155 L 59,151 Z" fill="none" stroke="black" stroke-width="5" /><path d="M 222,104 L 217,107 L 216,112 L 221,118 L 225,119 L 230,116 L 231,108 L 228,105 Z" fill="none" stroke="black" stroke-width="5" /><path d="M 137,93 L 136,95 L 133,96 L 132,103 L 135,106 L 140,106 L 144,103 L 144,96 L 141,93 Z" fill="none" stroke="black" stroke-width="5" /><path d="M 216,35 L 213,37 L 213,44 L 216,47 L 220,47 L 224,44 L 224,37 L 222,35 Z" fill="none" stroke="black" stroke-width="5" /><path d="M 94,28 L 92,32 L 93,36 L 97,40 L 105,39 L 107,35 L 106,30 L 101,26 Z" fill="none" stroke="black" stroke-width="5" /><path d="M 0,0 L 0,216 L 257,216 L 257,0 Z" fill="none" stroke="black" stroke-width="5" /></svg>