<?xml version="1.0" encoding="utf-8" ?>
<svg baseProfile="full" height="220" version="1.1" width="261" xmlns="http://www.w3.org/2000/svg" xmlns:ev="http://www.w3.org/2001/xml-events" xmlns:xlink="http://www.w3.org/1999/xlink"><defs /><rect fill="white" height="220" width="261" x="0" y="0" /><path d="M 135,190 L 132,193 L 132,198 L 135,201 L 140,201 L 144,198 L 144,193 L 141,190 Z" fill="none" stroke="black" stroke-width="5" /><path d="M 60,183 L 56,185 L 54,189 L 54,194 L 57,198 L 63,199 L 68,195 L 68,189 L 64,184 Z" fill="none" stroke="black" stroke-width="5" /><path d="M 52,118 L 47,122 L 46,126 L 51,133 L 57,133 L 61,129 L 61,123 L 57,119 Z" fill="none" stroke="black" stroke-width="5" /><path d="M 214,115 L 209,118 L 207,125 L 210,130 L 215,132 L 222,127 L 223,122 L 221,118 Z" fill="none" stroke="black" stroke-width="5" /><path d="M 49,54 L 46,57 L 46,62 L 51,65 L 54,65 L 58,62 L 58,56 L 56,54 Z" fill="none" stroke="black" stroke-width="5" /><path d="M 217,50 L 217,56 L 220,59 L 226,59 L 230,56 L 230,51 L 227,48 L 222,47 Z" fill="none" stroke="black" stroke-width="5" /><path d="M 0,0 L 0,219 L 260,219 L 260,0 Z" fill="none" stroke="black" stroke-width="5" /></svg>