<?xml version="1.0" encoding="utf-8" ?>
<svg xmlns="http://www.w3.org/2000/svg" xmlns:ev="http://www.w3.org/2001/xml-events" xmlns:xlink="http://www.w3.org/1999/xlink" baseProfile="full" height="218" version="1.1" width="264">
  <defs/>
  <path d="M 129.319937,209.003896 C 123.844504,204.977218 122.464879,201.518113 124.124724,195.978044 C 125.669070,190.823476 129.717758,188.009102 135.596362,188.003738 C 143.468189,187.996555 149.000000,192.707233 149.000000,199.417764 C 149.000000,204.274582 147.471659,207.127841 143.465564,209.750000 C 138.687943,212.877156 134.269884,212.644128 129.319937,209.003896" fill="none" stroke="black" stroke-width="5"/>
  <path d="M 235.275048,169.947107 C 224.245467,167.606877 220.614233,155.515176 228.447585,147.212233 C 231.457042,144.022365 232.402398,143.615385 236.802531,143.615385 C 242.878407,143.615385 246.281150,145.670614 248.987137,150.974787 C 251.388972,155.682771 251.479809,157.607407 249.521398,162.294545 C 247.075643,168.148060 241.333408,171.232556 235.275048,169.947107" fill="none" stroke="black" stroke-width="5"/>
  <path d="M 67.652939,164.031865 C 63.929798,161.649291 61.000000,156.730339 61.000000,152.861985 C 61.000000,148.464401 64.744588,142.348436 68.351922,140.854229 C 71.905567,139.382261 78.839398,139.439398 80.353122,140.953122 C 80.928905,141.528905 82.210000,142.000000 83.200000,142.000000 C 84.307246,142.000000 85.000000,142.737654 85.000000,143.916667 C 85.000000,144.970833 85.545343,146.015114 86.211873,146.237291 C 86.979321,146.493107 87.437727,148.888281 87.461873,152.768547 C 87.498323,158.626383 87.329557,159.052057 83.624308,162.447923 C 80.309063,165.486349 79.079913,165.989429 75.124308,165.926901 C 72.472636,165.884985 69.285501,165.076600 67.652939,164.031865" fill="none" stroke="black" stroke-width="5"/>
  <path d="M 121.482135,124.325849 C 116.793733,121.177414 115.842110,119.986037 116.527758,118.123252 C 116.806469,117.366040 116.524077,116.131474 115.900218,115.379770 C 113.810838,112.862222 118.170680,106.119757 123.855153,103.077520 C 126.848959,101.475284 129.349634,101.753737 133.931816,104.199570 C 140.463251,107.685856 142.778572,114.659941 139.505711,120.988956 C 136.100004,127.574868 128.433850,128.994183 121.482135,124.325849" fill="none" stroke="black" stroke-width="5"/>
  <path d="M 186.941601,86.027120 C 179.812249,83.932484 177.000000,80.043035 177.000000,72.277504 C 177.000000,66.455153 180.719711,61.226340 186.296145,59.209875 C 196.311714,55.588199 207.360731,70.483382 202.037229,80.430436 C 199.826578,84.561077 191.923961,87.490961 186.941601,86.027120" fill="none" stroke="black" stroke-width="5"/>
  <path d="M 35.356652,56.612910 C 29.512222,53.365337 27.301945,48.306093 28.989544,42.038830 C 30.240116,37.394559 33.143008,35.097830 39.290783,33.888628 C 49.838188,31.814066 57.493737,42.343177 52.483073,52.032733 C 49.744908,57.327760 40.900004,59.693183 35.356652,56.612910" fill="none" stroke="black" stroke-width="5"/>
</svg>
