<?xml version="1.0" encoding="utf-8" ?>
<svg baseProfile="full" height="217" version="1.1" width="258" xmlns="http://www.w3.org/2000/svg" xmlns:ev="http://www.w3.org/2001/xml-events" xmlns:xlink="http://www.w3.org/1999/xlink"><defs /><rect fill="white" height="217" width="258" x="0" y="0" /><path d="M 203,175 L 198,182 L 200,187 L 206,189 L 212,185 L 213,181 L 211,177 L 208,175 Z" fill="none" stroke="black" stroke-width="5" /><path d="M 68,171 L 64,174 L 63,178 L 65,182 L 72,183 L 75,181 L 76,175 L 74,173 Z" fill="none" stroke="black" stroke-width="5" /><path d="M 29,119 L 26,124 L 27,129 L 31,131 L 37,130 L 39,128 L 37,120 L 36,119 Z" fill="none" stroke="black" stroke-width="5" /><path d="M 130,116 L 127,119 L 127,126 L 132,129 L 137,128 L 140,124 L 140,121 L 137,117 Z" fill="none" stroke="black" stroke-width="5" /><path d="M 225,113 L 223,115 L 223,122 L 225,124 L 232,124 L 234,122 L 234,116 L 230,112 Z" fill="none" stroke="black" stroke-width="5" /><path d="M 137,35 L 129,40 L 128,43 L 132,49 L 137,49 L 142,45 L 142,39 Z" fill="none" stroke="black" stroke-width="5" /><path d="M 0,0 L 0,216 L 257,216 L 257,0 Z" fill="none" stroke="black" stroke-width="5" /></svg>