<?xml version="1.0" encoding="utf-8" ?>
<svg baseProfile="full" height="218" version="1.1" width="259" xmlns="http://www.w3.org/2000/svg" xmlns:ev="http://www.w3.org/2001/xml-events" xmlns:xlink="http://www.w3.org/1999/xlink"><defs /><rect fill="white" height="218" width="259" x="0" y="0" /><path d="M 90,181 L 86,185 L 85,191 L 89,195 L 93,195 L 94,193 L 99,191 L 100,184 Z" fill="none" stroke="black" stroke-width="5" /><path d="M 232,169 L 228,172 L 227,178 L 230,182 L 237,183 L 240,181 L 242,175 L 239,171 Z" fill="none" stroke="black" stroke-width="5" /><path d="M 125,137 L 120,140 L 119,146 L 123,151 L 128,152 L 132,150 L 134,143 L 130,138 Z" fill="none" stroke="black" stroke-width="5" /><path d="M 70,116 L 70,118 L 76,122 L 83,121 L 85,117 L 83,111 L 80,109 L 75,110 Z" fill="none" stroke="black" stroke-width="5" /><path d="M 161,45 L 157,51 L 159,56 L 162,58 L 170,57 L 172,54 L 171,48 L 168,45 Z" fill="none" stroke="black" stroke-width="5" /><path d="M 68,27 L 61,28 L 57,31 L 57,36 L 60,39 L 67,39 L 71,36 L 71,30 Z" fill="none" stroke="black" stroke-width="5" /><path d="M 0,0 L 0,217 L 258,217 L 258,0 Z" fill="none" stroke="black" stroke-width="5" /></svg>