<?xml version="1.0" encoding="utf-8" ?>
<svg xmlns="http://www.w3.org/2000/svg" xmlns:ev="http://www.w3.org/2001/xml-events" xmlns:xlink="http://www.w3.org/1999/xlink" baseProfile="full" height="220" version="1.1" width="261">
  <defs/>
  <path d="M 130.316161,204.750000 C 124.656750,198.770789 123.731522,194.850000 126.615664,189.068600 C 129.981726,182.321169 139.872951,179.752423 145.486321,184.167900 C 150.284801,187.942385 152.371141,195.901884 149.951540,201.202947 C 148.286180,204.851555 142.615897,208.000000 137.710191,208.000000 C 134.136439,208.000000 132.862211,207.439921 130.316161,204.750000" fill="none" stroke="black" stroke-width="5"/>
  <path d="M 56.458089,204.120094 C 51.238675,201.749248 48.779232,197.935859 48.709284,192.105502 C 48.517050,176.082183 67.139946,172.506117 73.750000,187.297053 C 76.985492,194.536927 73.294263,201.958760 65.024207,204.841717 C 60.889333,206.283142 61.295330,206.317344 56.458089,204.120094" fill="none" stroke="black" stroke-width="5"/>
  <path d="M 49.500000,138.840347 C 38.736123,132.926480 38.220052,118.976437 48.579625,113.961454 C 52.349308,112.136582 53.220927,112.058419 56.936567,113.212044 C 59.218133,113.920420 62.502313,115.960708 64.234743,117.746018 C 66.908312,120.501195 67.384615,121.742116 67.384615,125.952430 C 67.384615,132.211839 65.795648,135.184539 61.013117,137.872472 C 56.879065,140.195939 52.619141,140.554059 49.500000,138.840347" fill="none" stroke="black" stroke-width="5"/>
  <path d="M 208.865542,136.394733 C 205.774972,134.760430 203.768755,131.920325 202.092887,126.807008 C 201.002175,123.479086 201.139604,122.589394 203.483099,117.807008 C 207.426061,109.760583 214.212205,107.743170 222.211881,112.239240 C 231.210495,117.296744 231.430110,128.756471 222.656661,135.448307 C 218.873856,138.333593 213.260522,138.718812 208.865542,136.394733" fill="none" stroke="black" stroke-width="5"/>
  <path d="M 46.346265,69.004907 C 39.964847,64.797332 38.671897,56.452558 43.469201,50.436166 C 45.390196,48.027009 46.432105,47.617788 50.609207,47.631856 C 62.980293,47.673520 69.073246,57.954730 61.748493,66.428218 C 57.582783,71.247234 51.332854,72.292805 46.346265,69.004907" fill="none" stroke="black" stroke-width="5"/>
  <path d="M 217.500000,64.804867 C 212.707029,62.086495 211.000000,59.094842 211.000000,53.413295 C 211.000000,46.992961 212.920502,43.446217 217.382981,41.625336 C 223.690027,39.051793 235.000000,43.260046 235.000000,48.180335 C 235.000000,49.181151 235.450000,50.000000 236.000000,50.000000 C 237.754822,50.000000 237.074042,55.760188 234.879659,59.479391 C 233.713471,61.455932 231.485818,63.731654 229.929319,64.536551 C 226.583114,66.266940 220.316420,66.402222 217.500000,64.804867" fill="none" stroke="black" stroke-width="5"/>
</svg>
