<?xml version="1.0" encoding="utf-8" ?>
<svg baseProfile="full" height="224" version="1.1" width="259" xmlns="http://www.w3.org/2000/svg" xmlns:ev="http://www.w3.org/2001/xml-events" xmlns:xlink="http://www.w3.org/1999/xlink"><defs /><rect fill="white" height="224" width="259" x="0" y="0" /><path d="M 193,162 L 190,166 L 190,173 L 195,177 L 200,177 L 205,173 L 205,167 L 199,162 Z" fill="none" stroke="black" stroke-width="5" /><path d="M 138,110 L 136,113 L 137,121 L 142,124 L 148,123 L 151,117 L 150,113 L 145,109 Z" fill="none" stroke="black" stroke-width="5" /><path d="M 15,97 L 12,101 L 12,107 L 16,111 L 19,112 L 23,111 L 26,107 L 25,101 L 20,97 Z" fill="none" stroke="black" stroke-width="5" /><path d="M 189,50 L 185,53 L 184,58 L 186,62 L 192,66 L 198,62 L 199,57 L 196,52 Z" fill="none" stroke="black" stroke-width="5" /><path d="M 59,106 L 63,126 L 126,145 L 185,193 L 222,177 L 222,64 L 203,35 Z" fill="none" stroke="black" stroke-width="5" /><path d="M 0,0 L 0,223 L 258,223 L 258,0 Z" fill="none" stroke="black" stroke-width="5" /></svg>