<?xml version="1.0" encoding="utf-8" ?>
<svg baseProfile="full" height="222" version="1.1" width="256" xmlns="http://www.w3.org/2000/svg" xmlns:ev="http://www.w3.org/2001/xml-events" xmlns:xlink="http://www.w3.org/1999/xlink"><defs /><rect fill="white" height="222" width="256" x="0" y="0" /><path d="M 126,149 L 122,153 L 122,159 L 126,163 L 131,163 L 136,158 L 136,152 L 133,149 Z" fill="none" stroke="black" stroke-width="5" /><path d="M 39,139 L 34,139 L 29,142 L 28,147 L 31,152 L 36,153 L 41,150 L 43,143 Z" fill="none" stroke="black" stroke-width="5" /><path d="M 158,99 L 151,101 L 149,104 L 150,111 L 155,114 L 159,113 L 163,108 L 162,101 Z" fill="none" stroke="black" stroke-width="5" /><path d="M 68,52 L 61,53 L 58,56 L 57,60 L 61,66 L 65,67 L 71,64 L 72,55 Z" fill="none" stroke="black" stroke-width="5" /><path d="M 186,49 L 182,50 L 178,54 L 178,59 L 183,64 L 189,63 L 192,59 L 191,51 Z" fill="none" stroke="black" stroke-width="5" /><ellipse cx="150.75579833984375" cy="108.67034149169922" fill="none" rx="49.265350341796875" ry="87.48238372802734" stroke="black" stroke-width="5" transform="rotate(34.452545166015625, 150.75579833984375, 108.67034149169922)" /><path d="M 0,0 L 0,221 L 255,221 L 255,0 Z" fill="none" stroke="black" stroke-width="5" /></svg>