<?xml version="1.0" encoding="utf-8" ?>
<svg baseProfile="full" height="220" version="1.1" width="257" xmlns="http://www.w3.org/2000/svg" xmlns:ev="http://www.w3.org/2001/xml-events" xmlns:xlink="http://www.w3.org/1999/xlink"><defs /><rect fill="white" height="220" width="257" x="0" y="0" /><path d="M 56,108 L 52,111 L 51,117 L 54,122 L 60,123 L 65,118 L 65,113 L 62,109 Z" fill="none" stroke="black" stroke-width="5" /><path d="M 122,100 L 117,103 L 116,110 L 118,114 L 123,116 L 128,113 L 130,107 L 126,101 Z" fill="none" stroke="black" stroke-width="5" /><path d="M 192,95 L 186,95 L 182,99 L 182,105 L 184,108 L 188,110 L 196,105 L 195,98 Z" fill="none" stroke="black" stroke-width="5" /><path d="M 226,98 L 192,58 L 32,72 L 33,165 L 201,147 Z" fill="none" stroke="black" stroke-width="5" /><path d="M 103,11 L 99,14 L 98,20 L 101,25 L 106,26 L 112,22 L 112,17 L 108,12 Z" fill="none" stroke="black" stroke-width="5" /></svg>