<?xml version="1.0" encoding="utf-8" ?>
<svg xmlns="http://www.w3.org/2000/svg" xmlns:ev="http://www.w3.org/2001/xml-events" xmlns:xlink="http://www.w3.org/1999/xlink" baseProfile="full" height="217" version="1.1" width="258">
  <defs/>
  <path d="M 78.000000,180.120582 C 75.525000,179.742561 71.968363,178.660784 70.096362,177.716635 C 68.224361,176.772486 66.129386,176.000000 65.440863,176.000000 C 60.775436,176.000000 44.369818,162.239635 41.000000,155.500000 C 40.175000,153.850000 38.780673,151.700822 37.901495,150.724049 C 37.022317,149.747277 35.703760,147.047277 34.971368,144.724049 C 34.238976,142.400822 33.316900,140.050000 32.922311,139.500000 C 31.423743,137.411213 29.780168,122.919845 30.352500,116.842017 C 31.300144,106.778593 32.554648,99.814051 34.196779,95.500000 C 35.034202,93.300000 37.196596,87.000000 39.002098,81.500000 C 40.807599,76.000000 42.597168,71.050000 42.978917,70.500000 C 43.360665,69.950000 44.723378,66.800000 46.007167,63.500000 C 47.290956,60.200000 49.164530,56.305533 50.170665,54.845630 C 51.176799,53.385726 52.000000,51.898534 52.000000,51.540760 C 52.000000,49.714828 61.198199,37.735102 66.870609,32.173293 C 73.473465,25.699179 84.515648,17.760909 91.267669,14.634148 C 99.134996,10.990905 114.518899,9.327614 124.000000,11.095162 C 140.749227,14.217698 150.188029,19.511125 164.727613,33.935844 C 174.837034,43.965399 190.000000,67.209506 190.000000,72.677213 C 190.000000,73.404746 190.388546,74.000000 190.863436,74.000000 C 191.338326,74.000000 192.921125,76.587500 194.380767,79.750000 C 197.289454,86.052043 201.190996,93.025563 204.118157,97.154370 C 205.153171,98.614274 206.000000,100.276257 206.000000,100.847667 C 206.000000,101.419076 206.828585,102.474609 207.841301,103.193296 C 208.854016,103.911983 210.230302,105.532032 210.899713,106.793403 C 211.569125,108.054775 214.163871,111.204775 216.665815,113.793403 C 226.004255,123.455388 232.151927,134.095949 232.252850,140.771878 C 232.288658,143.140506 232.687200,145.306679 233.138499,145.585597 C 233.589798,145.864515 233.518258,146.971859 232.979521,148.046360 C 232.440785,149.120862 231.550000,150.893894 231.000000,151.986431 C 230.450000,153.078968 230.000000,154.562642 230.000000,155.283483 C 230.000000,156.004325 228.178371,158.372931 225.951935,160.547052 L 221.903870,164.500000 L 212.701935,164.500000 C 204.357686,164.500000 196.883835,163.253542 191.500000,160.964028 C 187.160553,159.118647 160.157806,156.776075 152.000000,157.537280 C 142.963527,158.380474 138.882631,159.703988 128.332868,165.212994 C 123.290945,167.845847 118.453445,170.000000 117.582868,170.000000 C 116.712290,170.000000 116.000000,170.363441 116.000000,170.807646 C 116.000000,172.068268 103.452240,178.000000 100.785568,178.000000 C 99.473506,178.000000 97.972500,178.404598 97.450000,178.899106 C 96.125911,180.152260 83.428307,180.949680 78.000000,180.120582" fill="none" stroke="black" stroke-width="5"/>
  <path d="M 216.908979,51.694246 C 215.137252,50.487411 213.377876,48.825000 212.999255,48.000000 C 212.620633,47.175000 211.766759,45.454934 211.101758,44.177632 C 208.864701,39.880805 212.477673,32.355706 218.197980,29.397621 C 221.902674,27.481849 224.200555,27.637593 229.383703,30.155761 C 234.208940,32.500042 236.000000,35.272614 236.000000,40.397830 C 236.000000,46.547089 234.208897,49.698700 229.680305,51.517918 C 223.271164,54.092585 220.486370,54.131034 216.908979,51.694246" fill="none" stroke="black" stroke-width="5"/>
</svg>
