<?xml version="1.0" encoding="utf-8" ?>
<svg xmlns="http://www.w3.org/2000/svg" xmlns:ev="http://www.w3.org/2001/xml-events" xmlns:xlink="http://www.w3.org/1999/xlink" baseProfile="full" height="214" version="1.1" width="259">
  <defs/>
  <path d="M 189.531475,196.167967 C 184.896632,195.632454 181.776502,192.738316 178.211520,185.667918 C 174.659365,178.622959 173.353204,170.139491 169.486624,129.000000 C 168.581998,119.375000 167.461017,108.125000 166.995555,104.000000 C 166.530093,99.875000 165.636698,90.650000 165.010234,83.500000 C 164.383769,76.350000 163.450186,68.872791 162.935604,66.883980 C 162.421022,64.895170 162.000000,62.377414 162.000000,61.288968 C 162.000000,58.569019 158.922365,56.023938 154.830262,55.359881 C 151.594463,54.834783 151.225071,55.089994 147.893257,60.152625 C 145.957691,63.093681 143.578535,68.200000 142.606243,71.500000 C 139.473371,82.133104 136.876389,91.399863 135.880315,95.500000 C 133.094392,106.967693 132.979278,107.478756 130.474451,119.500000 C 130.130646,121.150000 129.467143,123.400000 129.000000,124.500000 C 128.532857,125.600000 127.943599,127.625000 127.690538,129.000000 C 125.890688,138.779418 119.416111,150.108303 113.335847,154.117108 C 104.219380,160.127723 92.609202,150.141827 89.946540,134.000000 C 89.538279,131.525000 88.523345,125.450000 87.691133,120.500000 C 86.858920,115.550000 85.871626,107.981076 85.497146,103.680170 C 84.909016,96.925495 84.406039,95.393108 81.804544,92.430170 C 80.018822,90.396345 77.859462,89.000000 76.500000,89.000000 C 73.851606,89.000000 68.000000,95.113075 68.000000,97.879809 C 68.000000,98.875428 67.169058,100.442017 66.153462,101.361119 C 65.137866,102.280220 63.743949,104.937465 63.055869,107.266106 C 62.367788,109.594748 61.004692,113.075000 60.026767,115.000000 C 59.048841,116.925000 57.189442,120.750000 55.894767,123.500000 C 51.570352,132.685431 45.877930,138.000000 40.363852,138.000000 C 38.631350,138.000000 32.029204,133.794483 32.012379,132.680175 C 31.994242,131.478973 25.867177,122.704099 24.053454,121.281803 C 22.078319,119.732931 18.491358,119.673821 15.684259,121.143887 C 12.926252,122.588243 8.215007,127.747211 7.448475,130.162341 C 6.740513,132.392930 3.714284,132.565586 1.978758,130.474405 C 0.942618,129.225933 1.056613,128.298876 2.606313,125.370846 C 5.197872,120.474310 11.453682,116.397794 18.660719,114.909204 C 26.121165,113.368274 27.237277,114.009100 33.887389,123.651739 C 38.672520,130.590162 42.359036,132.833900 43.611460,129.570137 C 43.942844,128.706562 44.767274,128.000000 45.443526,128.000000 C 46.613103,128.000000 53.859563,114.298256 55.492082,109.000000 C 55.915752,107.625000 57.008965,105.375000 57.921444,104.000000 C 58.833923,102.625000 61.081282,98.560599 62.915576,94.967999 C 65.465081,89.974604 67.396144,87.678001 71.113713,85.217999 C 73.788394,83.448099 76.952021,82.000000 78.143994,82.000000 C 81.249823,82.000000 86.697094,86.485931 88.947324,90.896746 C 91.061447,95.040769 93.991751,110.035549 93.996805,116.735649 C 93.998562,119.065256 94.440298,122.890256 94.978441,125.235649 C 95.516583,127.581042 96.527187,132.392643 97.224227,135.928094 C 98.091575,140.327364 99.533120,143.720262 101.791593,146.678094 C 105.408596,151.415139 105.543923,151.475262 108.626257,149.714565 C 114.992865,146.077818 121.778430,131.222953 124.940338,114.000000 C 125.596662,110.425000 126.517030,105.700000 126.985601,103.500000 C 127.454172,101.300000 128.371213,96.800000 129.023470,93.500000 C 129.675727,90.200000 130.546061,86.600000 130.957546,85.500000 C 132.635820,81.013563 135.263475,73.204947 136.678168,68.500000 C 137.505044,65.750000 138.590723,63.072500 139.090789,62.550000 C 139.590855,62.027500 140.000000,60.924395 140.000000,60.098656 C 140.000000,59.272916 142.011750,56.696952 144.470556,54.374291 C 148.255427,50.798988 149.801171,50.043813 154.548568,49.450665 C 157.987503,49.020998 161.076908,49.169642 162.537284,49.835034 C 166.394376,51.592443 169.114375,58.289300 170.086285,68.421281 C 171.105578,79.047216 172.606725,93.046001 174.008771,105.000000 C 174.557087,109.675000 175.236040,117.100000 175.517556,121.500000 C 175.799072,125.900000 176.454263,132.650000 176.973536,136.500000 C 177.492810,140.350000 178.416207,150.250000 179.025531,158.500000 C 180.281643,175.507258 181.977375,182.586779 185.828859,186.903251 C 190.352245,191.972744 192.859648,191.855796 198.585061,186.308287 C 201.316914,183.661320 204.148266,179.921606 204.876954,177.997810 C 205.605642,176.074015 206.564699,173.600000 207.008191,172.500000 C 207.939606,170.189803 209.694907,162.865872 210.363523,158.500000 C 210.616214,156.850000 211.537795,152.350168 212.411480,148.500374 C 213.285166,144.650579 214.003692,138.800579 214.008205,135.500374 C 214.012717,132.200168 214.447304,125.675000 214.973952,121.000000 C 216.174070,110.346682 216.765329,100.922242 217.546160,80.000000 C 218.116846,64.708554 219.954752,44.421343 221.849390,32.500000 C 222.286443,29.750000 224.524695,23.796355 226.823283,19.269677 C 231.639484,9.784991 235.509734,6.914350 242.337440,7.762522 C 247.137387,8.358796 249.466239,11.801433 250.390720,19.667326 C 251.115665,25.835478 250.125376,28.000000 246.578444,28.000000 C 244.009275,28.000000 242.000000,23.442769 242.000000,17.615644 C 242.000000,14.018407 241.877880,13.885435 238.850849,14.186642 C 237.118816,14.358989 235.354400,15.175000 234.929926,16.000000 C 233.153007,19.453583 230.134785,28.910908 229.025816,34.500000 C 228.371040,37.800000 227.422369,42.386769 226.917658,44.692820 C 226.412946,46.998871 226.000000,52.635677 226.000000,57.219054 C 226.000000,61.802432 225.570515,69.140663 225.045590,73.526234 C 224.520664,77.911805 223.841826,88.025000 223.537062,96.000000 C 222.871254,113.422719 220.772744,135.936821 218.130959,154.000000 C 217.194290,160.404463 214.778012,169.589330 213.001062,173.500000 C 212.501239,174.600000 211.550297,177.412500 210.887859,179.750000 C 210.225420,182.087500 209.304654,184.000000 208.841712,184.000000 C 208.378771,184.000000 208.000000,184.640205 208.000000,185.422677 C 208.000000,187.427263 198.011591,195.645039 195.000000,196.118184 C 193.625000,196.334207 191.164164,196.356609 189.531475,196.167967" fill="none" stroke="black" stroke-width="5"/>
</svg>
