<?xml version="1.0" encoding="utf-8" ?>
<svg xmlns="http://www.w3.org/2000/svg" xmlns:ev="http://www.w3.org/2001/xml-events" xmlns:xlink="http://www.w3.org/1999/xlink" baseProfile="full" height="216" version="1.1" width="260">
  <defs/>
  <path d="M 127.106265,206.973048 C 124.689712,206.617913 122.182597,205.602619 121.534899,204.716840 C 120.887201,203.831061 119.762102,198.019908 119.034678,191.803166 C 118.307254,185.586425 117.563105,179.375000 117.381013,178.000000 C 117.198922,176.625000 116.561237,171.675000 115.963937,167.000000 C 115.366637,162.325000 114.468941,155.800000 113.969057,152.500000 C 113.469173,149.200000 112.568659,143.125000 111.967914,139.000000 C 111.367169,134.875000 110.441802,128.575000 109.911542,125.000000 C 109.381281,121.425000 108.530711,115.575000 108.021385,112.000000 C 107.512060,108.425000 106.640185,102.350000 106.083886,98.500000 C 104.922989,90.465737 103.266851,77.230974 102.329822,68.500000 C 101.431811,60.132584 99.843578,58.000000 94.509990,58.000000 C 89.620616,58.000000 89.625141,57.989952 87.979475,72.500000 C 87.480447,76.900000 86.580730,84.325000 85.980105,89.000000 C 85.379479,93.675000 84.467788,101.775000 83.954124,107.000000 C 83.440459,112.225000 82.352759,122.125000 81.537011,129.000000 C 80.721264,135.875000 79.333157,147.575000 78.452330,155.000000 C 74.477664,188.504741 74.213741,190.595688 72.862739,199.283922 L 71.807854,206.067845 L 61.653927,205.783922 L 51.500000,205.500000 L 50.206256,198.000000 C 49.494696,193.875000 48.510923,188.025000 48.020093,185.000000 C 46.196141,173.758933 43.750321,161.095628 41.646396,152.000000 C 40.819457,148.425000 39.384709,141.675000 38.458068,137.000000 C 37.531427,132.325000 36.362560,126.700000 35.860587,124.500000 C 35.358613,122.300000 34.524536,118.025000 34.007082,115.000000 C 33.489629,111.975000 32.618952,107.250000 32.072245,104.500000 C 30.410621,96.141846 28.942406,87.813151 28.017714,81.500000 C 27.534361,78.200000 26.629452,73.475000 26.006806,71.000000 C 25.384160,68.525000 24.516496,64.475000 24.078664,62.000000 C 23.279059,57.479950 20.865075,46.183266 19.000468,38.235649 C 17.223342,30.660903 17.582930,29.000000 21.000000,29.000000 C 23.653289,29.000000 24.000000,29.339891 24.000000,31.940983 C 24.000000,33.558524 24.450000,35.160081 25.000000,35.500000 C 25.550000,35.839919 26.000000,37.692207 26.000000,39.616197 C 26.000000,41.540187 26.477763,45.226129 27.061695,47.807180 C 29.185121,57.192971 29.887299,60.620858 30.993209,67.000000 C 31.612983,70.575000 32.506514,75.075000 32.978833,77.000000 C 33.451151,78.925000 34.820693,86.125000 36.022259,93.000000 C 37.223824,99.875000 38.870884,108.425000 39.682392,112.000000 C 41.566130,120.298585 42.348399,124.301057 44.373104,136.000000 C 45.277381,141.225000 46.433292,147.300000 46.941796,149.500000 C 47.450299,151.700000 48.344214,156.200000 48.928275,159.500000 C 49.512336,162.800000 50.709683,168.875000 51.589046,173.000000 C 53.411636,181.549578 54.843255,189.574123 55.647759,195.750000 C 56.086794,199.120310 56.608125,200.000000 58.166435,200.000000 C 59.247211,200.000000 61.054398,200.493929 62.182406,201.097621 C 63.742287,201.932444 64.542599,201.872588 65.525048,200.847621 C 66.662713,199.660721 68.367312,188.005676 69.484360,173.776177 C 69.688316,171.178074 70.308415,165.778074 70.862357,161.776177 C 71.416299,157.774279 72.371775,150.000000 72.985637,144.500000 C 73.599499,139.000000 74.510589,131.575000 75.010283,128.000000 C 75.509976,124.425000 76.429980,116.100000 77.054735,109.500000 C 77.679491,102.900000 78.597757,96.195350 79.095327,94.600777 C 79.592897,93.006204 80.000000,89.387513 80.000000,86.559241 C 80.000000,81.383150 82.622025,59.030175 83.617078,55.723359 C 84.490972,52.819186 88.620766,50.806677 94.576458,50.382692 C 101.780105,49.869865 105.520338,52.207015 106.355154,57.742814 C 106.666781,59.809266 107.384088,64.200000 107.949170,67.500000 C 108.514251,70.800000 109.204734,76.200000 109.483576,79.500000 C 109.762418,82.800000 110.419871,87.300000 110.944584,89.500000 C 111.469296,91.700000 112.389102,98.000000 112.988598,103.500000 C 113.588093,109.000000 114.489548,115.525000 114.991831,118.000000 C 115.494114,120.475000 116.407864,127.000000 117.022388,132.500000 C 117.636911,138.000000 119.007882,148.575000 120.068991,156.000000 C 121.130099,163.425000 122.463006,173.100000 123.031007,177.500000 C 123.599008,181.900000 124.538705,187.975000 125.119222,191.000000 C 125.699739,194.025000 126.368972,197.512500 126.606406,198.750000 C 127.067662,201.154057 129.040821,201.541836 134.875000,200.375000 C 137.425111,199.864978 137.998784,199.267093 137.993392,197.125000 C 137.986297,194.306776 138.993941,186.384365 142.079340,165.000000 C 143.150640,157.575000 144.480545,148.350000 145.034684,144.500000 C 145.588823,140.650000 146.482398,133.225000 147.020406,128.000000 C 147.558415,122.775000 148.467222,114.004196 149.039978,108.509324 C 149.612734,103.014452 150.535032,98.064452 151.089529,97.509324 C 151.644026,96.954196 156.086959,96.344173 160.962713,96.153717 C 169.629215,95.815188 169.866826,95.867117 171.574122,98.472781 C 173.583737,101.539841 174.833134,108.002720 177.958907,131.500000 C 178.397896,134.800000 179.952109,144.250000 181.412714,152.500000 C 184.165359,168.047891 186.832062,185.201840 187.708726,193.000000 C 188.364368,198.832106 189.424599,200.000000 194.063428,200.000000 C 196.163624,200.000000 198.246024,199.437500 198.690983,198.750000 C 199.135942,198.062500 200.285541,193.225000 201.245647,188.000000 C 202.205753,182.775000 203.162691,177.600000 203.372175,176.500000 C 203.581659,175.400000 204.289097,169.775000 204.944259,164.000000 C 206.195483,152.970954 207.517048,144.926573 209.070425,138.883980 C 209.581691,136.895170 210.000000,133.687770 210.000000,131.756425 C 210.000000,127.698238 211.518848,126.123432 216.520896,124.995287 C 223.709178,123.374066 228.949255,126.632043 228.861405,132.667902 C 228.846739,133.675556 229.809240,137.875000 231.000297,142.000000 C 232.191353,146.125000 233.509053,151.300000 233.928517,153.500000 C 234.347982,155.700000 235.810557,160.875000 237.178683,165.000000 C 238.546810,169.125000 240.242587,174.525000 240.947076,177.000000 C 241.651565,179.475000 242.605907,182.400000 243.067836,183.500000 C 243.529765,184.600000 244.435004,187.525000 245.079477,190.000000 C 245.723951,192.475000 246.869716,195.918008 247.625624,197.651129 C 248.381531,199.384250 249.000000,202.196750 249.000000,203.901129 C 249.000000,206.497367 248.614363,207.000000 246.622445,207.000000 C 242.970163,207.000000 241.384156,204.006852 238.939197,192.500000 C 238.238017,189.200000 237.343179,186.050000 236.950667,185.500000 C 236.558155,184.950000 236.000552,182.925000 235.711550,181.000000 C 235.114511,177.023220 233.902176,172.521072 231.672361,166.000000 C 230.826060,163.525000 229.211775,158.350000 228.085062,154.500000 C 221.437998,131.786857 221.323357,131.500000 218.893232,131.500000 C 215.978193,131.500000 215.551147,133.298645 212.007867,160.500000 C 210.430500,172.609266 209.137152,181.427791 208.634626,183.500000 C 208.367868,184.600000 207.593150,190.112500 206.913030,195.750000 L 205.676449,206.000000 L 195.993212,206.000000 C 188.029894,206.000000 186.033889,205.689168 184.755593,204.250000 C 183.104180,202.390757 182.566027,199.622085 178.001153,169.500000 C 177.501052,166.200000 176.621206,160.912500 176.045939,157.750000 C 173.919729,146.061264 172.970995,140.330711 172.031175,133.500000 C 171.501463,129.650000 170.580292,123.350000 169.984128,119.500000 C 169.387963,115.650000 168.647033,110.700000 168.337617,108.500000 C 167.604980,103.290837 166.452149,102.000000 162.532543,102.000000 C 158.612483,102.000000 156.012791,104.603940 155.964533,108.578741 C 155.945027,110.185433 155.269221,115.550000 154.462742,120.500000 C 153.656264,125.450000 152.560463,133.325000 152.027630,138.000000 C 151.494796,142.675000 150.606943,150.100000 150.054623,154.500000 C 149.502303,158.900000 148.609582,166.100000 148.070797,170.500000 C 147.532013,174.900000 146.396287,182.325000 145.546962,187.000000 C 144.697637,191.675000 144.002119,197.648638 144.001367,200.274751 C 144.000211,204.312680 143.652788,205.177803 141.750000,205.880921 C 138.172270,207.202964 131.869380,207.673032 127.106265,206.973048" fill="black" stroke="black" stroke-width="1"/>
</svg>
