<?xml version="1.0" encoding="utf-8" ?>
<svg baseProfile="full" height="216" version="1.1" width="260" xmlns="http://www.w3.org/2000/svg" xmlns:ev="http://www.w3.org/2001/xml-events" xmlns:xlink="http://www.w3.org/1999/xlink"><defs /><rect fill="white" height="216" width="260" x="0" y="0" /><path d="M 66,205 L 87,52" fill="none" stroke="black" stroke-width="5" /><path d="M 28,77 L 55,205" fill="none" stroke="black" stroke-width="5" /><path d="M 102,65 L 126,206" fill="none" stroke="black" stroke-width="5" /><path d="M 20,29 L 47,156" fill="none" stroke="black" stroke-width="5" /><path d="M 113,133 L 122,205" fill="none" stroke="black" stroke-width="5" /><path d="M 138,206 L 153,97" fill="none" stroke="black" stroke-width="5" /><path d="M 167,96 L 186,205" fill="none" stroke="black" stroke-width="5" /><path d="M 141,205 L 151,133" fill="none" stroke="black" stroke-width="5" /><path d="M 169,96 L 180,167" fill="none" stroke="black" stroke-width="5" /><path d="M 221,125 L 244,206" fill="none" stroke="black" stroke-width="5" /><path d="M 103,52 L 117,142" fill="none" stroke="black" stroke-width="5" /><path d="M 200,195 L 217,125" fill="none" stroke="black" stroke-width="5" /><path d="M 0,0 L 0,215 L 259,215 L 259,0 Z" fill="none" stroke="black" stroke-width="5" /></svg>