<?xml version="1.0" encoding="utf-8" ?>
<svg xmlns="http://www.w3.org/2000/svg" xmlns:ev="http://www.w3.org/2001/xml-events" xmlns:xlink="http://www.w3.org/1999/xlink" baseProfile="full" height="216" version="1.1" width="256">
  <defs/>
  <path d="M 36.253521,205.750000 C 35.708268,205.062500 34.974763,198.200000 34.623509,190.500000 C 33.721485,170.726322 32.107487,147.055748 30.941472,136.500000 C 30.394683,131.550000 29.701331,123.450000 29.400691,118.500000 C 29.100051,113.550000 28.483604,107.025000 28.030809,104.000000 C 27.578014,100.975000 26.900325,96.025000 26.524832,93.000000 C 26.149340,89.975000 25.453182,86.600000 24.977816,85.500000 C 24.502450,84.400000 23.910504,81.700000 23.662381,79.500000 C 23.055003,74.114633 19.998409,60.744696 19.090043,59.500000 C 18.688659,58.950000 17.757170,56.587500 17.020067,54.250000 C 16.282965,51.912500 15.301908,50.000000 14.839940,50.000000 C 14.377973,50.000000 14.000000,49.338687 14.000000,48.530416 C 14.000000,46.964345 11.000888,41.240990 7.860586,36.814267 C 6.761465,35.264893 4.801235,33.995565 3.227668,33.814267 C 0.936902,33.550337 0.448316,32.959425 0.177324,30.125075 L -0.145351,26.750150 L 3.677324,27.447097 C 7.606652,28.163489 9.311974,29.583438 14.549625,36.500000 C 22.395498,46.860840 29.390650,69.683692 32.173245,94.000000 C 32.708220,98.675000 33.381722,104.525000 33.669916,107.000000 C 33.958110,109.475000 34.583554,111.910778 35.059792,112.412839 C 36.270064,113.688738 38.000000,108.708999 38.000000,103.949252 C 38.000000,100.335560 38.525354,97.442962 41.169136,86.500000 C 43.941333,75.025511 48.649008,64.490455 53.234305,59.500000 C 54.750347,57.850000 55.992827,56.168539 55.995373,55.763420 C 56.003791,54.423387 63.177696,52.000000 67.136148,52.000000 C 74.996053,52.000000 80.920366,58.932307 82.518853,70.000000 C 83.779253,78.726822 84.597946,93.530011 83.956788,96.000000 C 83.599867,97.375000 83.501076,99.062500 83.737253,99.750000 C 84.516210,102.017502 86.951605,101.050990 87.516919,98.250000 C 89.839957,86.739928 95.284884,75.530572 100.327059,71.878040 C 104.653361,68.744083 107.572694,68.398822 113.084709,70.369230 C 122.392276,73.696455 128.759465,84.266058 130.482650,99.250000 C 131.262405,106.030353 133.257925,106.914952 134.994344,101.250000 C 138.418323,90.079497 144.296504,82.700402 150.583687,81.680132 C 155.847014,80.826012 159.449776,81.833258 162.781090,85.090234 C 165.751470,87.994331 170.000000,97.877963 170.000000,101.884056 C 170.000000,103.082348 170.696620,104.330088 171.548044,104.656810 C 173.228801,105.301777 175.008885,103.401017 177.478447,98.324376 C 179.192191,94.801457 184.580976,91.000000 187.861174,91.000000 C 193.017616,91.000000 197.856985,94.331395 201.208335,100.188110 C 203.018751,103.351937 204.825944,105.953904 205.224320,105.970261 C 205.622696,105.986617 206.591335,104.762500 207.376851,103.250000 C 209.259793,99.624425 214.288796,96.000000 217.436455,96.000000 C 219.018240,96.000000 220.562711,96.929172 221.591957,98.500000 C 223.925819,102.061924 226.705448,101.685536 228.682368,97.539891 C 230.820386,93.056420 235.110046,91.370774 238.585900,93.648241 C 242.796208,96.406940 244.358901,101.179031 243.684844,109.219186 C 243.100127,116.193685 241.973844,118.310929 239.378267,117.314913 C 238.479149,116.969889 237.986010,114.130918 237.787583,108.157433 C 237.510659,99.820878 237.412983,99.500000 235.152247,99.500000 C 231.589375,99.500000 228.473248,105.880692 227.643251,114.875690 C 226.873320,123.219734 226.574022,124.000000 224.143311,124.000000 C 222.695833,124.000000 222.200104,122.380456 221.183244,114.329467 C 219.440629,100.532329 216.777942,98.398050 211.577220,106.629752 C 209.165475,110.447062 208.575335,112.622408 208.202016,119.071273 C 207.829611,125.504354 207.356119,127.256266 205.524887,128.976620 C 202.175412,132.123289 201.135954,129.970303 199.947155,117.423695 C 199.095718,108.437608 198.457884,105.852814 196.218346,102.312867 C 193.461703,97.955553 189.207409,95.322696 186.562993,96.337454 C 184.536615,97.115048 178.055255,106.113077 178.024791,108.190983 C 178.011156,109.121024 177.597535,110.130703 177.105633,110.434715 C 175.889637,111.186242 174.883085,118.162860 174.883303,125.838131 C 174.883540,134.154349 173.772354,137.000000 170.524751,137.000000 C 168.016870,137.000000 168.000000,136.941359 168.000000,128.223766 C 168.000000,117.763296 166.474516,104.853669 164.664901,100.000000 C 161.068741,90.354546 159.764290,88.145007 156.986845,86.994551 C 153.521431,85.559129 147.226127,87.231736 146.237125,89.850658 C 145.894556,90.757796 144.351061,93.500601 142.807136,95.945781 C 141.263211,98.390960 140.000000,101.434566 140.000000,102.709350 C 140.000000,103.984133 139.598440,105.808532 139.107644,106.763569 C 137.453299,109.982754 136.019896,120.462774 135.448001,133.520279 C 134.724581,150.037374 134.033260,153.500000 131.459005,153.500000 C 129.822570,153.500000 129.479236,152.759030 129.373897,149.000000 C 129.223422,143.630253 128.456405,132.516883 126.923777,113.500000 C 124.826876,87.481622 118.721473,75.085773 107.851154,74.776705 C 105.280527,74.703616 103.929181,75.474169 101.305855,78.508910 C 99.487635,80.612280 98.000000,83.131688 98.000000,84.107593 C 98.000000,85.083498 97.550000,86.160081 97.000000,86.500000 C 96.450000,86.839919 96.000000,88.072027 96.000000,89.238019 C 96.000000,91.205215 94.780074,95.725654 92.960741,100.500000 C 92.541570,101.600000 91.672476,105.875000 91.029421,110.000000 C 90.386366,114.125000 89.468694,119.075000 88.990151,121.000000 C 86.272257,131.933058 85.066528,144.164230 84.921133,162.276971 C 84.856858,170.284026 84.477216,173.188982 83.375583,174.103257 C 82.324265,174.975773 81.610836,175.010836 80.828440,174.228440 C 79.548567,172.948567 79.236155,164.959701 78.531812,115.500000 C 77.941844,74.071893 77.206930,66.271148 73.427042,61.315460 C 71.212479,58.412018 70.328924,58.000000 66.317186,58.000000 C 62.380663,58.000000 61.273614,58.490435 58.448521,61.485906 C 54.590886,65.576191 50.492517,73.649591 49.050055,80.000000 C 48.487871,82.475000 47.136940,88.325000 46.047986,93.000000 C 44.959032,97.675000 43.578002,106.000000 42.979031,111.500000 C 42.380060,117.000000 41.431810,124.763915 40.871808,128.753145 C 39.605967,137.770490 39.594344,192.370359 40.857362,196.617617 C 41.471150,198.681656 41.400241,200.962772 40.647537,203.367617 C 39.474481,207.115458 37.979367,207.926091 36.253521,205.750000" fill="black" stroke="black" stroke-width="1"/>
</svg>
