<?xml version="1.0" encoding="utf-8" ?>
<svg xmlns="http://www.w3.org/2000/svg" xmlns:ev="http://www.w3.org/2001/xml-events" xmlns:xlink="http://www.w3.org/1999/xlink" baseProfile="full" height="213" version="1.1" width="257">
  <defs/>
  <path d="M 210.587945,196.832727 C 204.177812,189.519894 201.748177,181.426944 199.530165,160.000000 C 197.913129,144.378748 196.798504,113.906840 196.618631,80.403737 C 196.489055,56.268849 196.202304,55.000000 190.877555,55.000000 C 188.666667,55.000000 188.000000,55.463356 188.000000,57.000000 C 188.000000,58.100000 187.585755,59.000000 187.079455,59.000000 C 186.573156,59.000000 185.839141,60.455900 185.448312,62.235333 C 185.057483,64.014766 184.187087,66.377266 183.514098,67.485333 C 182.808112,68.647731 182.212007,73.692521 182.104974,79.410645 C 182.002944,84.861500 181.648131,89.760319 181.316501,90.296908 C 180.525621,91.576578 177.589479,114.349461 176.455385,128.000000 C 176.204066,131.025000 175.581530,135.075000 175.071971,137.000000 C 174.562412,138.925000 173.637881,143.054477 173.017457,146.176615 C 169.929953,161.713755 159.732662,172.242180 150.171350,169.764596 C 146.523055,168.819227 141.101604,162.086057 139.637898,156.682575 C 137.733993,149.654038 137.218672,133.455179 137.538672,90.694435 C 137.821006,52.966724 137.652582,45.803914 136.472481,45.351066 C 134.566009,44.619484 129.271273,48.534868 128.460274,51.275982 C 128.098370,52.499192 126.718293,55.841955 125.393436,58.704344 C 123.188709,63.467718 121.695315,69.965744 120.384297,80.500000 C 120.110501,82.700000 119.488132,85.400000 119.001256,86.500000 C 118.514379,87.600000 117.599261,91.762500 116.967661,95.750000 C 116.336061,99.737500 115.409955,103.000000 114.909649,103.000000 C 114.409342,103.000000 114.000000,104.323442 114.000000,105.940983 C 114.000000,107.558524 113.550000,109.160081 113.000000,109.500000 C 112.450000,109.839919 111.995208,111.103976 111.989352,112.309017 C 111.977372,114.774023 106.095346,121.000000 103.778498,121.000000 C 100.883181,121.000000 97.233978,117.011523 95.623014,112.086285 C 93.943217,106.950602 93.346516,91.521910 94.793114,90.627863 C 95.893671,89.947681 96.525137,76.512465 96.364027,57.204739 C 96.246699,43.143972 95.985477,40.641433 94.459039,38.954739 C 93.486081,37.879632 91.713211,37.000000 90.519326,37.000000 C 87.798404,37.000000 84.000000,40.935970 84.000000,43.755434 C 84.000000,44.925027 83.606698,46.125040 83.125997,46.422130 C 82.645295,46.719220 81.038682,49.333278 79.555747,52.231147 C 72.484742,66.048910 72.042156,66.577736 66.854525,67.407272 C 61.658022,68.238226 59.143171,66.680844 56.299153,60.870602 C 53.372551,54.891643 53.149658,53.832217 50.365369,32.666956 C 49.865962,28.870622 49.214597,27.599269 47.328769,26.740028 C 45.186869,25.764113 44.419583,26.123930 40.213978,30.076496 C 34.005721,35.911220 31.878627,37.000000 26.687883,37.000000 C 23.448484,37.000000 21.840574,36.429700 20.344207,34.750000 C 18.092635,32.222568 16.000000,25.759978 16.000000,21.333980 C 16.000000,17.504082 14.373095,16.000000 10.230449,16.000000 C 7.308085,16.000000 6.903307,15.701393 7.180449,13.750000 C 7.456664,11.805131 8.181998,11.460049 12.528972,11.205406 C 17.085768,10.938471 17.760436,11.184698 19.714624,13.827879 C 21.239452,15.890319 21.946287,18.466915 22.127237,22.622473 C 22.272881,25.967223 23.013787,29.254120 23.846572,30.250000 C 25.946359,32.761015 30.485022,32.469988 32.677420,29.683750 C 35.942544,25.534222 44.044452,20.000000 46.854090,20.000000 C 50.340324,20.000000 53.425814,22.196558 54.875129,25.710173 C 55.508049,27.244578 56.713715,33.450000 57.554387,39.500000 C 58.395058,45.550000 59.337975,52.300000 59.649758,54.500000 C 60.661299,61.637620 65.135738,64.199252 68.677420,59.668367 C 70.246761,57.660704 73.305039,51.428698 77.347948,42.000000 C 78.530041,39.243172 83.485885,34.038192 87.321663,31.524894 C 91.647032,28.690803 97.443645,31.252760 100.835434,37.497639 C 102.860700,41.226509 103.466492,66.506876 101.877878,81.000000 C 101.305157,86.225000 100.610562,94.790993 100.334332,100.035540 C 99.889595,108.479395 100.057557,109.849512 101.801432,112.003107 C 104.643821,115.513308 106.272542,113.637779 108.516250,104.270760 C 109.539993,99.996842 110.742641,96.072500 111.188801,95.550000 C 111.634960,95.027500 112.000000,93.221147 112.000000,91.535883 C 112.000000,89.850619 112.900000,86.009471 114.000000,83.000000 C 115.100000,79.990529 116.000000,75.528830 116.000000,73.085115 C 116.000000,66.966524 118.845692,58.283216 124.548610,47.000000 C 128.174755,39.825678 136.236827,37.032157 141.288570,41.199578 C 144.662802,43.983140 144.459106,39.491292 144.076407,102.676139 C 143.919251,128.623016 144.135072,150.409533 144.556008,151.090623 C 144.976945,151.771713 145.429403,153.702570 145.561471,155.381416 C 145.693539,157.060263 146.296235,158.598745 146.900797,158.800266 C 147.505359,159.001786 148.000000,159.974067 148.000000,160.960889 C 148.000000,163.673593 150.585177,165.320930 153.639307,164.554392 C 158.588322,163.312269 166.000000,153.145445 166.000000,147.598855 C 166.000000,146.234403 166.373963,144.886912 166.831029,144.604430 C 168.040426,143.856982 172.000000,119.647118 172.000000,113.000000 C 172.000000,110.651827 172.473839,105.753711 173.052975,102.115297 C 173.632112,98.476884 174.563953,92.350000 175.123733,88.500000 C 180.001338,54.953295 182.625341,49.000000 192.533945,49.000000 C 201.137660,49.000000 202.996712,53.883135 202.813082,76.000000 C 202.677677,92.308613 203.758792,138.028503 204.421044,144.000000 C 204.634530,145.925000 205.299419,153.350000 205.898575,160.500000 C 207.311263,177.358266 208.228390,182.724148 210.427907,187.000000 C 212.817470,191.645299 216.976971,196.000000 219.024481,196.000000 C 220.813176,196.000000 226.927266,189.476406 230.036901,184.250000 C 232.228580,180.566414 236.000000,179.739688 236.000000,182.942840 C 236.000000,187.149084 229.085688,196.164950 223.110505,199.750000 C 221.964653,200.437500 219.500214,201.000000 217.633973,201.000000 C 214.903620,201.000000 213.527267,200.185976 210.587945,196.832727" fill="none" stroke="black" stroke-width="5"/>
</svg>
