<?xml version="1.0" encoding="utf-8" ?>
<svg xmlns="http://www.w3.org/2000/svg" xmlns:ev="http://www.w3.org/2001/xml-events" xmlns:xlink="http://www.w3.org/1999/xlink" baseProfile="full" height="219" version="1.1" width="257">
  <defs/>
  <path d="M 51.383912,216.135443 C 49.120064,215.080680 46.079124,212.659225 44.626267,210.754432 L 41.984709,207.291170 L 41.578972,174.895585 C 39.884588,39.609523 39.710827,31.462312 38.467300,28.997639 C 36.247247,24.597490 33.571328,22.946662 28.286262,22.716756 C 21.740178,22.431995 18.559408,24.278481 15.918720,29.896303 C 13.839468,34.319719 13.781567,35.314565 14.428580,55.499274 C 15.246013,81.000535 15.201132,79.072759 15.033911,81.500000 C 14.958129,82.600000 15.147798,86.425000 15.455400,90.000000 C 16.292544,99.729453 16.724158,133.052446 16.018681,133.488454 C 15.101771,134.055136 13.636091,132.801243 11.941012,130.000000 C 10.723231,127.987527 10.371929,122.722235 10.139567,103.000000 C 9.980808,89.525000 9.446069,74.225000 8.951257,69.000000 C 7.673311,55.505437 7.792850,36.050004 9.190923,29.993219 C 10.134400,25.905855 11.287698,24.036496 14.741579,20.996269 C 19.652285,16.673693 24.206962,15.475915 31.666512,16.545393 C 36.900867,17.295844 39.957527,19.485886 43.466676,25.000000 L 45.694056,28.500000 L 46.541087,99.500000 C 47.006954,138.550000 47.488292,173.087500 47.610726,176.250000 C 47.733160,179.412500 47.889122,187.062500 47.957307,193.250000 C 48.077039,204.115018 48.179734,204.615103 50.958264,207.863552 C 53.212730,210.499304 54.772680,211.319682 58.167624,211.654957 C 63.447446,212.176376 66.649507,210.620574 69.836312,205.985431 L 72.232654,202.500000 L 71.529511,148.000000 C 70.787053,90.452657 70.760126,56.099214 71.442368,36.824990 C 71.854815,25.172804 73.059281,21.008459 76.676629,18.727935 C 77.350183,18.303300 78.589773,17.267370 79.431274,16.425869 C 81.636485,14.220658 92.025720,14.315521 95.470027,16.572318 C 101.250745,20.359990 101.682852,22.774892 102.346029,55.000000 C 103.367058,104.613893 104.920388,152.016063 105.842870,161.711331 C 106.381728,167.374721 107.371266,171.917678 108.411952,173.505966 C 112.216470,179.312395 120.905389,179.023216 124.460388,172.971853 C 126.470707,169.549863 126.494736,168.490373 126.133452,99.202093 C 125.749035,25.477066 125.960384,21.161937 130.063303,18.966121 C 131.042712,18.441957 132.441636,17.434033 133.172023,16.726288 C 133.902411,16.018544 136.439065,14.809804 138.809033,14.040198 C 142.389491,12.877507 143.742136,12.860142 146.809033,13.937493 C 150.845568,15.355463 156.000000,19.654819 156.000000,21.603758 C 156.000000,22.280024 156.402406,22.983333 156.894235,23.166667 C 157.395905,23.353668 158.037547,48.083747 158.355850,79.500000 C 158.667909,110.300000 159.218906,136.742433 159.580288,138.260963 C 159.941670,139.779493 161.620392,142.185683 163.310782,143.608052 C 165.909347,145.794600 167.003529,146.095146 170.392494,145.553228 C 172.597047,145.200706 174.952373,144.454490 175.626554,143.894970 C 179.497106,140.682696 181.253349,119.789224 182.594454,61.000000 C 183.101350,38.779513 183.302897,32.517506 183.792069,23.790400 C 183.948660,20.996740 184.944722,19.116995 187.826169,16.177342 C 191.050824,12.887549 192.523105,12.165089 197.191190,11.581850 C 203.804621,10.755557 208.147255,12.680947 211.843316,18.078152 L 214.186633,21.500000 L 213.493178,47.000000 C 211.940947,104.079238 212.014318,110.961562 214.217216,114.916590 C 217.157402,120.195325 217.752035,120.732418 221.282167,121.297894 C 225.352623,121.949923 232.000000,117.994291 232.000000,114.920070 C 232.000000,113.791716 232.467916,111.994207 233.039814,110.925606 C 234.170464,108.812968 234.217291,106.062499 234.039284,52.219764 C 233.973315,32.265634 234.189046,15.503134 234.518687,14.969764 C 235.521202,13.347661 238.836139,13.886890 239.315227,15.750000 C 239.562728,16.712500 239.822085,39.325000 239.891577,66.000000 L 240.017925,114.500000 L 237.715807,119.000000 C 231.806021,130.551983 215.033683,130.739100 208.346132,119.327656 L 205.694436,114.802879 L 206.398916,98.151440 C 206.786380,88.993148 207.293944,68.968518 207.526836,53.652262 C 207.896720,29.326663 207.744266,25.405831 206.321463,22.652262 C 204.179707,18.507296 202.164176,17.070503 198.437091,17.031803 C 196.368842,17.010328 194.513311,17.898556 192.723256,19.766971 C 190.478867,22.109608 189.920817,23.911552 189.084358,31.516971 C 188.540974,36.457637 188.065077,49.725000 188.026810,61.000000 C 187.915422,93.819262 186.117123,137.060771 184.699823,141.000000 C 182.538212,147.007956 181.059980,148.928753 177.006402,150.996734 C 170.718100,154.204786 165.395988,153.670175 159.567340,149.244962 C 156.637092,147.020266 154.261870,144.282151 153.716316,142.500000 C 152.772721,139.417579 152.484110,126.003391 152.117277,68.179121 C 151.894027,32.987852 151.140743,24.908747 147.741677,21.250000 C 143.578012,16.768240 135.845272,19.591707 133.363294,26.500000 C 131.806758,30.832435 131.515961,64.278376 132.563397,118.500000 C 133.452110,164.505204 133.226837,171.624452 130.729923,176.442958 C 126.674483,184.269083 116.530088,186.911080 107.823445,182.408700 C 104.278236,180.575401 100.378172,173.724947 99.620361,168.000000 C 99.292745,165.525000 98.766719,150.675000 98.451413,135.000000 C 98.136108,119.325000 97.714211,102.900000 97.513864,98.500000 C 97.313517,94.100000 96.869835,80.825000 96.527903,69.000000 C 95.310497,26.898513 95.112684,24.923939 91.854176,22.346790 C 89.607692,20.570050 85.082761,19.885340 82.989831,21.005442 C 81.906809,21.585058 80.228543,23.508449 79.260350,25.279644 C 77.611547,28.295938 77.517918,34.044816 77.782772,116.004138 C 78.094315,212.411686 78.294790,209.060069 71.913225,214.133540 C 67.141690,217.927005 57.290895,218.887599 51.383912,216.135443" fill="none" stroke="black" stroke-width="5"/>
</svg>
