<?xml version="1.0" encoding="utf-8" ?>
<svg xmlns="http://www.w3.org/2000/svg" xmlns:ev="http://www.w3.org/2001/xml-events" xmlns:xlink="http://www.w3.org/1999/xlink" baseProfile="full" height="218" version="1.1" width="259">
  <defs/>
  <path d="M 33.667623,203.708219 C 30.569420,196.539602 30.000000,194.801318 30.000000,192.511964 C 30.000000,191.195302 29.550000,189.839919 29.000000,189.500000 C 28.450000,189.160081 28.000000,187.648524 28.000000,186.140983 C 28.000000,184.633442 27.628246,182.972500 27.173880,182.450000 C 26.719514,181.927500 25.784061,179.475000 25.095094,177.000000 C 21.772582,165.064415 19.714855,158.345745 18.897282,156.763569 C 18.403777,155.808532 18.000000,154.263492 18.000000,153.330148 C 18.000000,152.396804 17.160274,149.128198 16.133942,146.066579 C 15.107610,143.004961 13.783952,138.700000 13.192480,136.500000 C 11.124073,128.806494 7.726340,117.468218 6.368940,113.729764 C 4.589167,108.828041 4.642493,107.351166 6.626748,106.589736 C 8.991093,105.682451 10.861021,107.680409 11.550385,111.850483 C 11.882205,113.857717 12.994981,117.750000 14.023220,120.500000 C 15.051459,123.250000 16.876577,129.325000 18.079038,134.000000 C 19.281499,138.675000 20.655631,142.927500 21.132665,143.450000 C 21.609699,143.972500 22.000000,145.633442 22.000000,147.140983 C 22.000000,148.648524 22.450000,150.160081 23.000000,150.500000 C 23.550000,150.839919 24.000000,152.447582 24.000000,154.072586 C 24.000000,155.697589 24.411972,157.808532 24.915493,158.763569 C 26.231507,161.259675 30.000000,174.241035 30.000000,176.278214 C 30.000000,177.225196 30.394900,178.000000 30.877555,178.000000 C 33.056290,178.000000 33.862847,174.784349 33.892058,165.981523 C 33.922366,156.847919 35.042947,119.194667 35.498576,112.000000 C 35.620484,110.075000 35.783176,102.087500 35.860113,94.250000 L 36.000000,80.000000 L 38.940983,80.000000 C 42.502458,80.000000 42.570816,80.102367 45.097052,89.218672 C 46.206810,93.223402 47.510488,97.850000 47.994114,99.500000 C 48.736661,102.033367 51.570013,111.970720 56.120073,128.000000 C 56.666502,129.925000 57.561588,133.282284 58.109153,135.460631 C 60.627650,145.479821 63.269930,143.234764 63.631239,130.768700 C 63.888102,121.906252 64.535914,107.132414 65.616207,85.500000 C 66.149850,74.814020 67.313208,71.000000 70.039019,71.000000 C 71.217715,71.000000 72.142597,72.458634 73.050870,75.750000 C 73.771805,78.362500 75.088642,81.850000 75.977174,83.500000 C 76.865705,85.150000 78.227960,88.525000 79.004406,91.000000 C 79.780853,93.475000 80.672419,95.725000 80.985664,96.000000 C 81.564009,96.507732 84.373831,103.056063 85.383836,106.250000 C 85.688203,107.212500 86.353209,108.000000 86.861626,108.000000 C 88.745624,108.000000 89.215869,104.033544 89.647680,84.500000 C 89.890847,73.500000 90.478475,62.700000 90.953519,60.500000 C 91.428564,58.300000 91.867349,53.179981 91.928598,49.122181 C 91.989847,45.064380 92.282526,41.351880 92.578997,40.872181 C 93.710566,39.041263 97.761325,39.983451 98.502664,42.250000 C 98.907424,43.487500 99.807481,46.300000 100.502791,48.500000 C 102.308029,54.211873 104.130830,59.224769 105.134044,61.236431 C 105.610320,62.191468 106.000000,63.598868 106.000000,64.363986 C 106.000000,65.129105 106.648288,66.293142 107.440639,66.950735 C 108.232991,67.608328 109.020491,69.350928 109.190639,70.823180 C 109.368380,72.361124 110.120746,73.500000 110.959005,73.500000 C 112.418703,73.500000 113.637208,69.844922 114.459422,63.000000 C 114.690653,61.075000 115.340522,56.800000 115.903575,53.500000 C 116.466627,50.200000 117.430630,44.350000 118.045804,40.500000 C 118.660978,36.650000 119.397346,32.073655 119.682177,30.330344 C 120.339340,26.308183 124.240727,22.341341 125.694956,24.216689 C 126.758205,25.587837 129.559810,33.350254 130.968899,38.829224 C 131.991247,42.804424 132.720135,43.686088 133.948482,42.433333 C 135.268660,41.086923 137.908944,29.947514 139.409283,19.394112 C 140.121286,14.385874 141.022029,9.773374 141.410934,9.144112 C 142.487302,7.402511 144.377678,7.773857 145.767927,10.000000 C 146.454888,11.100000 147.639351,12.000000 148.400066,12.000000 C 149.160781,12.000000 150.065541,13.125000 150.410644,14.500000 C 150.755747,15.875000 151.660509,17.000000 152.421227,17.000000 C 153.781255,17.000000 156.000000,12.156019 156.000000,9.186796 C 156.000000,7.013695 159.227601,0.000000 160.227631,-0.000000 C 161.914625,-0.000000 166.000000,3.266258 166.000000,4.615010 C 166.000000,5.376754 166.377768,6.000000 166.839485,6.000000 C 168.034745,6.000000 170.000000,10.656172 170.000000,13.488036 C 170.000000,17.061520 168.333210,17.424119 165.398214,14.489123 C 162.082526,11.173435 160.374962,11.824413 159.662953,16.675586 C 157.536517,31.163763 155.862799,36.268318 153.532013,35.373911 C 152.689406,35.050572 152.000000,33.735725 152.000000,32.452028 C 152.000000,31.168331 151.550000,29.839919 151.000000,29.500000 C 150.450000,29.160081 149.985688,27.671024 149.968197,26.190983 C 149.930591,23.009038 147.890812,20.000000 145.771427,20.000000 C 144.775822,20.000000 144.020812,21.444249 143.549655,24.250000 C 143.157130,26.587500 142.464556,30.750000 142.010604,33.500000 C 139.668974,47.685354 139.049113,50.785125 137.911215,54.000000 C 136.660211,57.534431 135.156174,59.214555 133.924571,58.453382 C 132.683807,57.686548 128.000000,47.320612 128.000000,45.341458 C 128.000000,44.263899 127.333551,42.508751 126.519003,41.441130 C 125.250197,39.778116 124.899045,39.711982 124.068120,40.979545 C 123.534682,41.793295 122.870258,44.043295 122.591621,45.979545 C 117.453525,81.684275 115.539019,90.625781 112.883527,91.320207 C 111.397477,91.708818 110.630695,91.161823 109.870378,89.170734 C 108.274110,84.990487 105.067075,76.196642 102.154226,68.012667 C 98.474970,57.675386 96.357597,57.386436 96.263438,67.208773 C 96.224996,71.218948 95.703845,79.675000 95.105325,86.000000 C 94.506804,92.325000 94.013257,103.436983 94.008553,110.693296 C 94.000458,123.179740 93.881185,123.969814 91.782328,125.439910 C 88.717041,127.586920 87.721507,126.230010 83.022281,113.500000 C 82.616221,112.400000 81.320092,109.544975 80.141995,107.155499 C 78.963898,104.766024 78.000000,102.178524 78.000000,101.405499 C 78.000000,100.632475 77.550000,100.000000 77.000000,100.000000 C 76.450000,100.000000 76.000000,99.136804 76.000000,98.081787 C 76.000000,93.023719 71.511675,90.679139 70.578992,95.250000 C 70.127658,97.461884 69.380271,114.945615 68.131696,152.500000 C 67.526243,170.710673 67.414062,171.512288 65.431375,171.795783 C 62.982642,172.145916 61.080995,168.775335 59.904695,162.000000 C 58.696321,155.039921 57.922560,151.678182 57.027611,149.500000 C 56.575654,148.400000 54.794255,142.775000 53.068946,137.000000 C 51.343637,131.225000 49.301392,124.475000 48.530624,122.000000 C 47.759856,119.525000 46.847015,115.925000 46.502089,114.000000 C 45.548546,108.678368 43.853083,104.882575 42.613068,105.293280 C 41.079310,105.801276 40.340741,115.868373 39.479902,148.000000 C 39.074689,163.125000 38.669510,177.750000 38.579506,180.500000 C 38.489501,183.250000 38.322293,190.064355 38.207931,195.643011 C 38.046555,203.515040 37.670221,205.912570 36.527091,206.351231 C 35.543970,206.728489 34.593108,205.849606 33.667623,203.708219" fill="black" stroke="black" stroke-width="1"/>
</svg>
