<?xml version="1.0" encoding="utf-8" ?>
<svg xmlns="http://www.w3.org/2000/svg" xmlns:ev="http://www.w3.org/2001/xml-events" xmlns:xlink="http://www.w3.org/1999/xlink" baseProfile="full" height="218" version="1.1" width="257">
  <defs/>
  <path d="M 10.716925,177.826215 C 8.811036,176.646270 11.980904,174.026689 16.114431,173.365711 C 19.357859,172.847066 20.353426,172.061719 22.392626,168.413193 C 23.725556,166.028322 26.044009,160.463780 27.544744,156.047545 C 30.533235,147.253267 31.745892,145.682294 35.166863,146.173236 C 36.780240,146.404771 37.748286,147.520005 38.488572,150.000000 C 39.063190,151.925000 40.313333,154.940153 41.266666,156.700340 C 42.220000,158.460527 43.000000,160.807194 43.000000,161.915156 C 43.000000,163.023118 43.900000,164.411298 45.000000,165.000000 C 46.309599,165.700876 47.000000,167.093823 47.000000,169.035184 C 47.000000,171.936613 47.109763,172.000000 52.133980,172.000000 C 54.957670,172.000000 58.905806,171.509290 60.907617,170.909533 C 64.290271,169.896065 64.764320,169.242908 67.621101,161.659533 C 69.311707,157.171790 71.256849,151.700000 71.943638,149.500000 C 73.908352,143.206412 76.959945,137.229348 78.512620,136.633531 C 79.511579,136.250194 80.982260,138.328179 83.466670,143.633309 C 85.410002,147.783037 87.000000,151.770633 87.000000,152.494634 C 87.000000,153.218634 87.943971,155.766024 89.097713,158.155499 C 90.251454,160.544975 91.938954,164.075000 92.847713,166.000000 C 94.408703,169.306607 94.803903,169.515993 100.000000,169.789443 C 106.878841,170.151450 113.090993,168.905526 114.035027,166.974547 C 114.431516,166.163546 115.290581,163.700000 115.944059,161.500000 C 116.597537,159.300000 117.509918,156.600000 117.971572,155.500000 C 118.433226,154.400000 119.796018,150.125000 121.000000,146.000000 C 122.203982,141.875000 123.562624,137.600000 124.019204,136.500000 C 124.475785,135.400000 125.065196,133.375000 125.329008,132.000000 C 125.913778,128.952147 129.381614,117.526342 130.868049,113.750000 C 131.631825,111.809602 132.660372,111.000000 134.361750,111.000000 C 136.199928,111.000000 136.896147,111.653582 137.291147,113.750000 C 137.955732,117.277213 140.195667,124.528006 143.546835,134.000000 C 145.006249,138.125000 146.835950,143.975000 147.612836,147.000000 C 148.389723,150.025000 149.438299,153.400000 149.943007,154.500000 C 150.447714,155.600000 151.392161,158.300000 152.041778,160.500000 C 153.992071,167.104881 155.632761,169.000000 159.400608,169.000000 C 161.245585,169.000000 163.190384,168.437500 163.722384,167.750000 C 164.960375,166.150154 167.355998,156.379826 169.300542,145.000000 C 169.710417,142.601336 173.996698,123.039383 176.025742,114.307180 C 176.561584,112.001129 177.000000,108.978896 177.000000,107.591107 C 177.000000,104.935445 179.860510,97.962382 181.409316,96.842520 C 183.335280,95.449955 184.750349,97.315020 185.929580,102.800239 C 186.603525,105.935108 187.995859,110.975000 189.023657,114.000000 C 190.051454,117.025000 192.014192,123.775000 193.385297,129.000000 C 194.756401,134.225000 196.850725,141.875000 198.039349,146.000000 C 199.227973,150.125000 200.568480,155.075000 201.018253,157.000000 C 203.230463,166.468122 203.235165,166.474323 208.456498,166.810489 C 211.108886,166.981258 213.631290,166.756258 214.061839,166.310489 C 215.380710,164.944997 220.038634,140.024047 222.998000,118.500000 C 223.451720,115.200000 224.487658,108.675000 225.300083,104.000000 C 226.112508,99.325000 227.343122,91.900000 228.034780,87.500000 C 230.771447,70.090644 233.617157,72.083067 238.032641,94.500000 C 239.366862,101.273693 241.515060,111.380542 243.665183,121.000000 C 244.464260,124.575000 245.570788,129.750000 246.124134,132.500000 C 247.580941,139.739985 250.963085,154.909241 252.058454,159.116020 C 253.254188,163.708252 253.263713,167.718983 252.080620,168.450174 C 250.753860,169.270157 248.106767,166.304320 247.376906,163.180073 C 247.032552,161.706033 246.106676,158.025000 245.319402,155.000000 C 244.532128,151.975000 243.485583,147.475000 242.993745,145.000000 C 241.524683,137.607464 238.173622,121.819176 237.050750,117.000000 C 236.474074,114.525000 235.646349,110.927717 235.211363,109.006038 C 234.776377,107.084359 233.715239,105.376259 232.853279,105.210261 C 231.632534,104.975167 231.140760,106.189694 230.628723,110.704223 C 230.267176,113.891900 229.536368,118.975000 229.004703,122.000000 C 228.473039,125.025000 227.583247,131.100000 227.027388,135.500000 C 226.471530,139.900000 225.609025,145.750000 225.110711,148.500000 C 224.612397,151.250000 223.520449,157.420899 222.684160,162.213108 C 221.847871,167.005317 220.875259,171.392817 220.522801,171.963108 C 219.806939,173.121396 210.736476,173.336815 203.639571,172.364076 C 200.068554,171.874614 199.000000,171.312423 199.000000,169.923093 C 199.000000,168.930311 198.550000,167.839919 198.000000,167.500000 C 197.450000,167.160081 197.000000,165.423524 197.000000,163.640983 C 197.000000,161.858442 196.622448,159.972500 196.160997,159.450000 C 195.699545,158.927500 194.724018,155.800000 193.993159,152.500000 C 193.262301,149.200000 192.374493,146.050000 192.020254,145.500000 C 191.666015,144.950000 190.800191,142.025000 190.096200,139.000000 C 189.392210,135.975000 188.002353,131.025000 187.007630,128.000000 C 186.012906,124.975000 184.920684,121.262500 184.580469,119.750000 C 183.213724,113.673842 180.611866,117.582386 179.088569,128.000000 C 178.206280,134.033856 175.103820,150.492299 172.867983,161.000000 C 172.341350,163.475000 171.649078,166.850000 171.329600,168.500000 C 170.367094,173.471037 169.378632,174.000000 161.051869,174.000000 C 154.337205,174.000000 153.085630,173.711252 151.299277,171.750000 C 148.562432,168.745194 147.000000,165.584252 147.000000,163.052173 C 147.000000,161.908552 146.593859,160.191468 146.097464,159.236431 C 145.601070,158.281394 144.649778,155.475000 143.983482,153.000000 C 143.317186,150.525000 142.419778,147.600000 141.989242,146.500000 C 141.558706,145.400000 140.025063,141.125000 138.581147,137.000000 C 137.137230,132.875000 135.566091,128.879848 135.089726,128.121885 C 133.766587,126.016588 132.145621,127.655555 131.466766,131.785079 C 131.130881,133.828286 130.454986,136.400000 129.964775,137.500000 C 128.770974,140.178812 125.916654,150.704593 125.287022,154.750000 C 125.008813,156.537500 124.380421,158.000000 123.890594,158.000000 C 123.400767,158.000000 123.000000,159.018853 123.000000,160.264117 C 123.000000,162.841990 119.505257,172.894743 118.131517,174.268483 C 117.631113,174.768887 111.884310,175.420335 105.360845,175.716145 C 90.824430,176.375306 90.745694,176.324812 85.532305,163.000000 C 83.488002,157.775000 81.351827,152.937500 80.785250,152.250000 C 79.280142,150.423660 77.002114,150.723509 76.986622,152.750000 C 76.979264,153.712500 75.635284,158.325000 74.000000,163.000000 C 72.364716,167.675000 71.020736,172.271667 71.013378,173.214816 C 70.991419,176.029561 67.178385,177.244314 56.952078,177.694453 L 47.274293,178.120447 L 44.137147,174.983300 C 42.411716,173.257870 41.000000,171.274906 41.000000,170.576715 C 41.000000,169.878524 40.352584,168.000639 39.561297,166.403638 C 38.770010,164.806637 37.643699,162.229757 37.058383,160.677237 C 35.263357,155.916024 33.012109,157.723147 29.804597,166.500000 C 25.595276,178.018143 26.165569,177.435422 18.549851,178.000000 C 14.840318,178.275000 11.315501,178.196797 10.716925,177.826215" fill="black" stroke="black" stroke-width="1"/>
</svg>
