<?xml version="1.0" encoding="utf-8" ?>
<svg xmlns="http://www.w3.org/2000/svg" xmlns:ev="http://www.w3.org/2001/xml-events" xmlns:xlink="http://www.w3.org/1999/xlink" baseProfile="full" height="216" version="1.1" width="258">
  <defs/>
  <path d="M 85.021707,164.013416 C 83.559109,163.109480 83.843955,160.958924 87.010265,149.000000 C 90.291634,136.606508 89.791680,121.627869 85.595063,106.600509 C 81.558213,92.145246 66.072397,68.883780 61.622705,70.591287 C 60.641004,70.968001 59.962121,72.175465 60.055901,73.378014 C 60.423781,78.095386 59.863569,79.759869 56.881343,82.810162 C 54.217276,85.535033 53.051156,86.000000 48.881343,86.000000 C 46.196604,86.000000 44.000000,85.656708 44.000000,85.237128 C 44.000000,84.817549 43.002606,84.030049 41.783569,83.487128 C 38.597039,82.067948 35.574524,75.831369 36.427051,72.434628 C 37.367803,68.686373 42.422317,64.199000 46.582679,63.418512 C 48.474355,63.063631 50.231508,62.434428 50.487464,62.020284 C 51.116684,61.002185 48.338633,58.720023 43.500000,56.280099 C 35.590803,52.291816 30.959828,50.713591 23.000000,49.293746 C 19.438193,48.658405 18.500000,48.075011 18.500000,46.495527 C 18.500000,44.856784 19.273913,44.444335 22.828564,44.188663 C 28.023568,43.815007 43.562164,48.406827 46.000000,51.036069 C 46.275000,51.332660 49.080585,52.907919 52.234633,54.536643 C 55.388682,56.165368 59.424628,58.768632 61.203402,60.321674 C 62.982176,61.874716 65.576591,63.820907 66.968768,64.646541 C 72.361036,67.844441 82.977210,83.303694 88.184661,95.541084 C 94.028299,109.273499 94.973927,113.547336 95.115164,126.864027 C 95.184815,133.431106 95.664578,138.292698 96.280564,138.673398 C 96.856421,139.029298 98.415713,138.010878 99.745658,136.410244 C 101.075602,134.809610 104.714397,130.633448 107.831869,127.129885 C 110.949341,123.626322 113.674681,120.251322 113.888181,119.629885 C 114.338613,118.318804 121.249399,111.631370 133.126046,101.013774 C 137.731721,96.896350 141.725000,93.296350 142.000000,93.013774 C 143.725838,91.240392 151.037798,86.000000 151.786374,86.000000 C 152.283382,86.000000 153.547269,85.044596 154.595012,83.876881 C 156.816357,81.401180 173.607785,70.000000 175.032603,70.000000 C 175.564671,70.000000 176.000000,69.604594 176.000000,69.121320 C 176.000000,68.638047 177.350000,67.683452 179.000000,67.000000 C 180.650000,66.316548 182.000000,65.361953 182.000000,64.878680 C 182.000000,64.395406 182.900000,64.000000 184.000000,64.000000 C 185.100000,64.000000 186.000000,63.640400 186.000000,63.200888 C 186.000000,62.761377 187.687500,61.800290 189.750000,61.065139 C 191.812500,60.329988 194.694467,58.889588 196.154370,57.864250 C 197.614274,56.838913 199.344808,56.000000 200.000000,56.000000 C 200.655192,56.000000 202.385726,55.196284 203.845630,54.213964 C 205.305533,53.231644 207.625000,51.959614 209.000000,51.387230 C 210.375000,50.814847 213.525000,49.367313 216.000000,48.170489 C 220.537502,45.976310 225.464432,45.324415 226.375000,46.797746 C 227.500149,48.618274 225.268649,49.988676 214.500000,54.090383 C 211.200000,55.347331 208.275000,56.628701 208.000000,56.937872 C 207.013420,58.047041 203.001379,60.000000 201.709350,60.000000 C 200.984566,60.000000 198.274970,61.342303 195.688025,62.982895 C 193.101080,64.623487 189.896096,66.238958 188.565840,66.572831 C 187.235584,66.906704 185.384653,68.022469 184.452661,69.052309 C 182.838682,70.835736 182.924266,71.022766 186.253066,72.986807 C 190.797745,75.668233 194.568500,82.598780 193.594386,86.479958 C 193.202635,88.040820 191.378636,90.821364 189.541055,92.658945 C 186.575966,95.624034 185.590890,96.000000 180.787091,96.000000 C 176.170940,96.000000 174.996409,95.595211 172.807717,93.250000 C 171.396160,91.737500 169.702789,88.700000 169.044669,86.500000 C 168.386550,84.300000 167.663945,81.918094 167.438881,81.206876 C 166.866833,79.399164 164.413688,80.855273 157.711355,86.980828 C 154.690880,89.741373 151.828422,92.000000 151.350337,92.000000 C 150.872253,92.000000 149.919034,92.900000 149.232073,94.000000 C 148.545112,95.100000 147.598940,96.000000 147.129470,96.000000 C 145.436060,96.000000 127.925071,112.528918 120.058763,121.552497 C 118.166082,123.723624 114.007661,128.650000 110.817827,132.500000 C 107.627993,136.350000 103.439050,141.121512 101.509064,143.103359 C 99.579079,145.085206 98.000000,147.417064 98.000000,148.285265 C 98.000000,149.153466 96.650000,150.825096 95.000000,152.000000 C 93.350000,153.174904 92.000000,155.005546 92.000000,156.068094 C 92.000000,157.130642 91.550000,158.000000 91.000000,158.000000 C 90.450000,158.000000 90.000000,158.830256 90.000000,159.845012 C 90.000000,162.456050 86.815803,165.122228 85.021707,164.013416" fill="none" stroke="black" stroke-width="5"/>
</svg>
