<?xml version="1.0" encoding="utf-8" ?>
<svg xmlns="http://www.w3.org/2000/svg" xmlns:ev="http://www.w3.org/2001/xml-events" xmlns:xlink="http://www.w3.org/1999/xlink" baseProfile="full" height="216" version="1.1" width="261">
  <defs/>
  <path d="M 80.298486,164.595842 C 78.537653,163.954797 76.775153,163.108486 76.381819,162.715152 C 75.988485,162.321819 74.911411,162.000000 73.988321,162.000000 C 73.065231,162.000000 71.495486,161.100000 70.500000,160.000000 C 69.504514,158.900000 68.294768,158.000000 67.811677,158.000000 C 67.328586,158.000000 62.160306,154.737500 56.326612,150.750000 C 50.492917,146.762500 45.020395,143.050000 44.165451,142.500000 C 43.310507,141.950000 39.509303,138.494861 35.718331,134.821914 C 31.193181,130.437647 28.945411,127.521973 29.174310,126.333397 C 29.833000,122.913093 32.811838,123.862876 38.667725,129.360309 C 47.836318,137.967671 55.262546,144.000000 56.690231,144.000000 C 57.410604,144.000000 58.000000,144.379252 58.000000,144.842782 C 58.000000,145.306313 60.137500,146.762742 62.750000,148.079293 C 65.362500,149.395843 67.725000,150.713301 68.000000,151.006976 C 68.275000,151.300652 72.085896,153.292434 76.468658,155.433158 C 83.623696,158.927979 85.411245,159.372282 93.976070,159.784708 C 101.070950,160.126350 104.719796,159.834932 108.217987,158.647265 C 126.079838,152.583009 139.802042,137.805973 142.249254,122.000000 C 144.334959,108.528916 143.896858,104.872244 139.010484,94.967177 C 137.263582,91.426068 137.067170,87.459482 138.542937,85.524945 C 139.892896,83.755326 140.281067,83.697604 142.274807,84.970010 C 153.135774,91.901485 164.599128,94.210847 175.700551,91.703827 C 183.472497,89.948699 192.012924,86.287197 196.444727,82.810262 C 202.810770,77.815834 208.000000,72.679439 208.000000,71.372640 C 208.000000,70.617688 208.395406,70.000000 208.878680,70.000000 C 209.361953,70.000000 210.307368,68.537500 210.979600,66.750000 C 212.448012,62.845418 213.817857,59.529920 215.627694,55.500000 C 216.735912,53.032359 219.000000,42.580025 219.000000,39.931493 C 219.000000,39.545840 216.164075,39.457946 212.697944,39.736174 C 206.647993,40.221806 206.267960,40.114114 203.197944,37.044098 C 200.056381,33.902535 199.623627,32.496470 199.952716,26.500000 C 200.329599,19.632661 202.844592,17.378051 211.190880,16.425348 C 215.707762,15.909760 216.829510,16.131253 218.708187,17.909664 C 222.805036,21.787865 223.996490,20.745006 224.031803,13.250000 C 224.065553,6.086893 225.732366,2.299586 228.400527,3.323455 C 229.437606,3.721419 229.989696,5.678995 230.198571,9.698880 C 230.518594,15.857853 227.938868,36.968490 226.098614,43.250000 C 225.494376,45.312500 224.619774,48.475753 224.155053,50.279450 C 223.268459,53.720542 219.227404,63.468802 215.624679,70.857319 C 213.218387,75.792174 205.840187,83.799903 201.143031,86.574581 C 199.414364,87.595730 198.000000,88.715848 198.000000,89.063733 C 198.000000,89.411618 196.200000,90.507938 194.000000,91.500000 C 191.800000,92.492062 190.000000,93.630449 190.000000,94.029750 C 190.000000,94.429051 190.719098,96.476795 191.597995,98.580292 C 192.569710,100.905934 192.977146,103.753406 192.637595,105.845812 C 192.045537,109.494243 188.550269,114.000000 186.312117,114.000000 C 185.575527,114.000000 184.116913,114.534550 183.070752,115.187888 C 181.586084,116.115078 180.275454,116.080997 177.098773,115.032598 C 171.853142,113.301384 170.386520,111.589029 168.923097,105.487086 C 168.265270,102.744189 167.603933,100.006160 167.453458,99.402577 C 167.302984,98.798994 164.085767,98.045755 160.304088,97.728713 C 156.522408,97.411671 152.174712,96.581096 150.642540,95.882992 C 148.329489,94.829095 147.708943,94.852907 146.985589,96.023317 C 146.506438,96.798600 146.496550,97.898015 146.963616,98.466462 C 147.883250,99.585708 148.937993,105.831720 149.417846,113.000000 C 149.764924,118.184820 148.033594,126.896304 145.527120,132.576857 C 141.990376,140.592362 141.461620,141.528658 139.750000,142.806704 C 138.787500,143.525391 138.000000,144.732764 138.000000,145.489754 C 138.000000,146.246745 135.862500,148.583728 133.250000,150.683050 C 130.637500,152.782373 128.275000,154.726407 128.000000,155.003126 C 126.827513,156.182942 116.784437,162.000000 115.919986,162.000000 C 115.399068,162.000000 114.191468,162.420150 113.236431,162.933666 C 107.603505,165.962447 86.919414,167.006246 80.298486,164.595842" fill="none" stroke="black" stroke-width="5"/>
</svg>
