<?xml version="1.0" encoding="utf-8" ?>
<svg xmlns="http://www.w3.org/2000/svg" xmlns:ev="http://www.w3.org/2001/xml-events" xmlns:xlink="http://www.w3.org/1999/xlink" baseProfile="full" height="221" version="1.1" width="262">
  <defs/>
  <path d="M 172.015964,216.310576 L 169.811675,211.621152 L 172.405837,206.817903 C 173.832627,204.176116 175.000000,201.399014 175.000000,200.646566 C 175.000000,199.819734 172.131688,198.397259 167.750000,197.051093 C 155.964582,193.430311 153.553899,192.618738 152.500000,191.917076 C 151.950000,191.550899 148.125000,189.527316 144.000000,187.420225 C 132.432855,181.511613 122.050791,173.886113 113.110741,164.732440 C 108.626515,160.141063 104.198058,155.285474 103.269726,153.942241 C 102.341393,152.599008 101.030411,150.934836 100.356433,150.244080 C 99.682455,149.553324 98.846214,148.090824 98.498121,146.994080 C 98.150028,145.897336 97.500143,145.000000 97.053933,145.000000 C 96.607722,145.000000 95.683452,143.650000 95.000000,142.000000 C 94.316548,140.350000 93.423407,139.000000 93.015243,139.000000 C 92.607079,139.000000 91.054398,136.412500 89.564841,133.250000 C 88.075284,130.087500 86.140841,126.150000 85.266081,124.500000 C 82.539206,119.356488 82.000000,118.068996 82.000000,116.701398 C 82.000000,115.972241 81.100000,113.512873 80.000000,111.236136 C 78.900000,108.959398 77.993225,106.062375 77.984944,104.798306 C 77.968756,102.327353 75.806533,95.473199 74.691469,94.358136 C 73.873092,93.539759 70.000000,96.864382 70.000000,98.385246 C 70.000000,99.356964 57.690719,111.703433 50.412210,118.032213 C 39.960382,127.120246 18.604665,138.619561 14.221758,137.519522 C 11.210384,136.763715 11.634075,133.989381 15.007075,132.377252 C 16.378184,131.721929 20.650000,129.681461 24.500000,127.842878 C 28.350000,126.004295 31.725000,124.225290 32.000000,123.889532 C 32.275000,123.553775 34.075000,122.485238 36.000000,121.515004 C 43.358979,117.805952 53.756034,108.145744 66.151890,93.500000 C 72.421638,86.092274 72.863774,85.513872 74.602128,82.445419 C 75.208298,81.375439 76.615962,80.363388 77.730271,80.196418 C 80.060496,79.847252 80.683033,81.563546 82.193050,92.500000 C 82.724626,96.350000 83.396188,101.190321 83.685409,103.256268 C 83.974631,105.322215 84.613731,107.261273 85.105633,107.565285 C 85.597535,107.869297 86.000000,108.974596 86.000000,110.021504 C 86.000000,111.068413 86.932332,114.416855 88.071849,117.462487 C 90.511775,123.983773 92.291905,124.488078 96.178279,119.759015 C 98.606417,116.804380 99.367131,116.500000 104.323292,116.500000 C 110.698411,116.500000 113.066442,118.124677 114.911524,123.764452 C 117.333812,131.168548 112.251346,138.728969 104.718615,138.926912 C 101.507539,139.011291 100.064058,141.536057 102.219513,143.298044 C 103.028213,143.959120 104.753739,146.075000 106.054016,148.000000 C 107.354293,149.925000 109.289657,152.133955 110.354825,152.908789 C 111.419993,153.683623 113.013408,155.228149 113.895747,156.341069 C 116.073789,159.088297 125.915588,168.683940 129.000000,171.067545 C 136.185121,176.620140 145.627675,181.851591 161.000000,188.796478 C 172.109535,193.815527 188.724283,196.730554 207.366151,196.931333 C 223.128140,197.101094 231.505767,195.957683 244.920898,191.805713 C 247.795964,190.915884 248.542906,191.021984 249.602214,192.470674 C 251.273165,194.755835 250.307065,196.996462 247.643011,197.014553 C 246.464355,197.022558 243.475000,197.736154 241.000000,198.600322 C 235.737649,200.437720 211.605290,203.097160 201.500000,202.953311 C 197.650000,202.898506 193.960462,202.886591 193.301027,202.926833 C 192.418105,202.980713 192.493345,203.936492 193.586457,206.552679 C 195.360199,210.797840 194.645927,215.929556 191.865987,218.913471 C 190.214070,220.686596 188.742855,221.000000 182.071172,221.000000 L 174.220254,221.000000 L 172.015964,216.310576" fill="none" stroke="black" stroke-width="5"/>
</svg>
