<?xml version="1.0" encoding="utf-8" ?>
<svg xmlns="http://www.w3.org/2000/svg" xmlns:ev="http://www.w3.org/2001/xml-events" xmlns:xlink="http://www.w3.org/1999/xlink" baseProfile="full" height="216" version="1.1" width="258">
  <defs/>
  <path d="M 168.491669,194.651952 C 163.073634,191.544239 161.822669,190.083758 161.379356,186.348448 C 160.808561,181.538974 164.424100,174.662432 167.777031,174.180449 C 171.208096,173.687235 170.542553,170.485341 166.622292,168.625056 C 164.764553,167.743501 162.549411,165.961260 161.699755,164.664521 C 160.850099,163.367781 158.770067,161.733186 157.077463,161.032086 C 155.384858,160.330986 154.000000,159.226049 154.000000,158.576670 C 154.000000,157.927291 151.756942,154.944385 149.015428,151.947990 C 146.273913,148.951596 144.023913,145.937500 144.015428,145.250000 C 144.006942,144.562500 143.550000,144.000000 143.000000,144.000000 C 142.450000,144.000000 142.000000,143.420149 142.000000,142.711442 C 142.000000,142.002735 141.100000,139.657586 140.000000,137.500000 C 138.900000,135.342414 138.000000,132.793439 138.000000,131.835611 C 138.000000,130.877783 137.583539,129.060432 137.074532,127.797053 C 136.565525,126.533674 135.575966,122.012500 134.875512,117.750000 C 134.175059,113.487500 133.210098,110.000000 132.731156,110.000000 C 132.252213,110.000000 129.809963,111.410704 127.303934,113.134897 C 123.256120,115.919866 113.029728,120.336984 107.500000,121.688872 C 106.400000,121.957796 104.825000,122.415510 104.000000,122.706014 C 101.182186,123.698238 92.506662,123.726336 87.653549,122.758955 C 81.770035,121.586182 79.652621,122.853681 82.408375,125.898755 C 86.573738,130.501430 84.938229,141.028692 79.504688,144.588886 C 76.112816,146.811325 69.201158,146.833135 65.841801,144.631999 C 62.423504,142.392246 59.616162,135.052381 60.534299,130.755407 C 60.958646,128.769418 62.974182,125.861146 65.703117,123.297178 C 68.163395,120.985626 69.906511,118.657748 69.576707,118.124115 C 69.246904,117.590482 67.519725,116.837134 65.738532,116.450008 C 59.827439,115.165287 44.408425,99.396152 39.930982,90.056442 C 34.981807,79.732722 33.916222,75.603374 33.795145,66.278878 C 33.678202,57.272753 35.652072,52.664945 39.397884,53.199828 C 41.072535,53.438960 41.446688,54.110049 41.237831,56.500000 C 40.847666,60.964650 40.857383,61.801696 41.399863,70.457081 C 41.861579,77.823860 42.974503,81.423920 47.286797,89.500000 C 47.874152,90.600000 48.898913,92.538839 49.564043,93.808531 C 50.767151,96.105189 51.685869,97.229882 56.255342,102.000000 C 60.036351,105.947033 62.705926,107.859602 67.262079,109.885579 C 88.458702,119.311045 100.154883,119.755941 117.000000,111.777497 C 125.232900,107.878104 129.706256,104.188683 137.352670,94.991540 C 140.123131,91.659217 140.247421,91.617102 141.665526,93.530167 C 142.646878,94.854038 142.944018,96.811709 142.571644,99.500000 C 141.188970,109.481978 142.613751,128.313881 144.992695,131.500000 C 145.403358,132.050000 146.313051,134.300000 147.014236,136.500000 C 147.715421,138.700000 149.520683,142.300000 151.025929,144.500000 C 155.238763,150.657287 167.003383,161.202659 173.980956,165.076039 C 175.542463,165.942861 177.969713,167.405361 179.374846,168.326039 C 180.779979,169.246718 182.957966,170.009883 184.214817,170.021962 C 185.471668,170.034041 188.525000,170.974621 191.000000,172.112139 C 194.668648,173.798261 197.716939,174.209880 207.500000,174.340177 C 220.885443,174.518452 224.523045,173.705844 236.095451,167.952205 C 241.087389,165.470282 244.000000,165.816038 244.000000,168.890553 C 244.000000,171.204370 232.789640,176.897246 224.000000,179.047008 C 216.756406,180.818639 195.732483,180.587045 190.181187,178.674468 C 185.634395,177.107971 183.251038,178.201993 185.041890,181.033538 C 187.510032,184.935959 183.514704,193.963860 179.309017,193.987621 C 178.103976,193.994430 176.839919,194.450000 176.500000,195.000000 C 175.689015,196.312202 171.033420,196.109866 168.491669,194.651952" fill="none" stroke="black" stroke-width="5"/>
</svg>
