<?xml version="1.0" encoding="utf-8" ?>
<svg xmlns="http://www.w3.org/2000/svg" xmlns:ev="http://www.w3.org/2001/xml-events" xmlns:xlink="http://www.w3.org/1999/xlink" baseProfile="full" height="215" version="1.1" width="262">
  <defs/>
  <path d="M 91.877297,174.745346 C 88.985118,173.596401 84.000000,166.649247 84.000000,163.767713 C 84.000000,162.760140 84.685327,160.295543 85.522950,158.290831 C 87.328132,153.970423 86.111750,151.737881 83.273629,154.162436 C 82.298133,154.995785 78.800000,156.537652 75.500000,157.588808 C 66.947900,160.312926 45.040096,160.310745 36.500000,157.584926 C 25.307456,154.012501 18.678243,150.002060 19.674428,147.406044 C 20.390910,145.538921 25.480977,145.613817 28.412489,147.534617 C 33.641763,150.960970 46.750445,153.921324 56.883980,153.964378 C 64.661450,153.997423 67.736935,153.523888 77.000000,150.867100 C 81.272030,149.641816 89.375999,145.779001 89.833333,144.750000 C 90.016667,144.337500 90.737609,144.000000 91.435428,144.000000 C 94.172156,144.000000 109.323790,127.745982 116.956256,116.622360 C 117.757197,115.455062 119.639727,112.898083 121.139656,110.940185 C 123.747673,107.535870 128.638375,98.609420 137.125198,81.763569 C 137.606339,80.808532 138.000000,79.401132 138.000000,78.636014 C 138.000000,77.870895 138.665663,76.692438 139.479251,76.017220 C 140.292839,75.342002 141.560055,73.599402 142.295287,72.144775 C 144.810687,67.168155 146.500382,64.539638 147.902775,63.421675 C 149.765847,61.936467 148.604516,60.279423 144.498037,58.563626 C 137.783248,55.758008 136.036612,45.927212 141.048511,39.148256 C 143.219353,36.212034 143.789484,36.000000 149.513744,36.000000 C 154.604810,36.000000 156.000819,36.383660 157.700723,38.250000 C 160.433163,41.249970 162.000000,44.414878 162.000000,46.934259 C 162.000000,49.367120 163.896250,49.571111 168.348871,47.617245 C 174.855791,44.761926 177.724742,44.085374 186.006341,43.453283 C 193.846702,42.854870 194.662740,42.969851 196.429313,44.921892 C 198.321017,47.012201 198.317683,47.090029 196.172972,50.906027 C 194.977837,53.032482 194.000000,55.696982 194.000000,56.827138 C 194.000000,57.957293 193.550000,59.160081 193.000000,59.500000 C 192.450000,59.839919 192.000000,61.414919 192.000000,63.000000 C 192.000000,64.585081 191.550000,66.160081 191.000000,66.500000 C 190.450000,66.839919 190.000000,68.639919 190.000000,70.500000 C 190.000000,72.360081 189.608155,74.124140 189.129233,74.420130 C 188.188044,75.001817 187.550620,79.195471 185.697157,97.000000 C 184.451390,108.966952 185.195627,125.214867 187.017870,125.833333 C 187.558041,126.016667 188.000000,126.941065 188.000000,127.887553 C 188.000000,128.834040 189.350000,131.737168 191.000000,134.338948 C 192.650000,136.940728 194.000000,139.498206 194.000000,140.022232 C 194.000000,141.339144 207.090569,154.000000 208.452177,154.000000 C 209.058723,154.000000 210.667615,154.787500 212.027494,155.750000 C 215.149986,157.960049 220.750159,159.955832 224.000000,160.016747 C 227.782913,160.087654 230.319819,162.416978 229.483605,165.051656 C 228.846067,167.060360 228.333732,167.197056 223.549952,166.634817 C 215.548731,165.694430 203.776397,159.170382 195.707879,151.205163 C 191.972212,147.517323 188.342496,143.375000 187.641843,142.000000 C 185.548779,137.892456 183.540987,134.532115 182.861870,134.000000 C 182.510898,133.725000 181.243945,130.202586 180.046419,126.172413 C 176.612000,114.614176 177.423373,93.122382 181.978315,75.000000 C 182.600389,72.525000 183.462805,68.700000 183.894794,66.500000 C 184.326782,64.300000 185.427176,60.757544 186.340114,58.627876 C 188.744640,53.018683 188.558575,49.000000 185.894345,49.000000 C 181.930644,49.000000 172.197306,52.003062 166.347556,55.030841 C 160.380964,58.119097 153.626363,64.451144 152.494523,68.017257 C 152.148409,69.107766 151.522471,70.000000 151.103550,70.000000 C 150.684628,70.000000 149.288031,72.250000 148.000000,75.000000 C 146.711969,77.750000 145.285047,80.000000 144.829063,80.000000 C 144.373078,80.000000 143.967110,80.787500 143.926912,81.750000 C 143.886713,82.712500 142.999397,84.850000 141.955097,86.500000 C 139.598505,90.223430 134.695910,98.601912 132.885408,102.000000 C 129.922094,107.561773 120.692764,121.932428 118.756249,124.000000 C 117.468406,125.375000 115.002432,128.525000 113.276305,131.000000 C 109.539123,136.358546 103.370735,142.914780 100.104502,145.000000 C 98.812243,145.825000 97.068824,147.160898 96.230236,147.968663 C 94.874001,149.275048 95.080903,149.580839 98.102766,150.736173 C 105.364450,153.512496 108.199907,156.846711 108.355818,162.792744 C 108.487800,167.826191 106.837431,170.900519 102.473715,173.750000 C 98.789277,176.155916 96.070832,176.411266 91.877297,174.745346" fill="none" stroke="black" stroke-width="5"/>
</svg>
