<?xml version="1.0" encoding="utf-8" ?>
<svg xmlns="http://www.w3.org/2000/svg" xmlns:ev="http://www.w3.org/2001/xml-events" xmlns:xlink="http://www.w3.org/1999/xlink" baseProfile="full" height="218" version="1.1" width="257">
  <defs/>
  <path d="M 127.000000,211.334851 C 125.625000,211.057539 124.072500,210.418752 123.550000,209.915324 C 123.027500,209.411896 121.865314,209.000000 120.967365,209.000000 C 118.639200,209.000000 113.512520,202.233978 111.448240,196.436975 C 109.302529,190.411295 109.279488,182.030796 111.392051,176.000000 C 112.259034,173.525000 113.265523,168.659354 113.628695,165.187453 L 114.289006,158.874906 L 81.500318,159.582361 L 48.711629,160.289817 L 49.308855,106.394908 C 49.637329,76.752709 50.199334,51.508006 50.557755,50.295570 C 51.060862,48.593700 52.154460,47.989201 55.354715,47.643995 C 57.634622,47.398065 81.775000,47.265059 109.000000,47.348425 L 158.500000,47.500000 L 158.348307,50.000000 C 158.264876,51.375000 157.880829,60.258761 157.494869,69.741692 C 156.665161,90.127403 156.946858,90.653926 164.745082,83.293121 C 171.866781,76.570894 182.097970,67.688695 184.088672,66.500000 C 185.009753,65.950000 188.439282,63.623244 191.709846,61.329431 C 197.029853,57.598239 200.649858,55.374792 206.612995,52.175749 C 214.690471,47.842427 223.644872,45.395952 229.481648,45.927695 C 233.941979,46.334041 240.446340,50.293117 240.819551,52.828852 C 240.995304,54.022983 241.503210,55.000000 241.948231,55.000000 C 244.875562,55.000000 246.534774,73.263732 244.032246,77.939747 C 243.464511,79.000571 243.000000,81.446543 243.000000,83.375242 C 243.000000,85.303940 242.550000,87.160081 242.000000,87.500000 C 241.450000,87.839919 241.000000,88.997582 241.000000,90.072586 C 241.000000,91.147589 240.602502,92.808532 240.116671,93.763569 C 239.630841,94.718606 238.791049,96.625000 238.250467,98.000000 C 237.709886,99.375000 236.757384,101.737500 236.133796,103.250000 C 235.510208,104.762500 234.586303,107.012500 234.080673,108.250000 C 230.065146,118.077772 222.554226,133.505071 220.570334,136.000000 C 219.914319,136.825000 218.280897,139.637500 216.940507,142.250000 C 215.600117,144.862500 214.165162,147.000000 213.751717,147.000000 C 213.338273,147.000000 213.000000,147.444975 213.000000,147.988833 C 213.000000,149.783279 203.680823,161.270706 201.833087,161.753900 C 200.837261,162.014314 200.271124,162.629672 200.575005,163.121361 C 200.878886,163.613050 200.536325,164.670826 199.813758,165.471974 C 199.091191,166.273121 196.250000,169.617912 193.500000,172.904843 C 190.750000,176.191773 187.262500,179.467687 185.750000,180.184651 C 184.237500,180.901616 183.000000,182.001618 183.000000,182.629101 C 183.000000,183.256585 181.762500,184.546254 180.250000,185.495034 C 178.737500,186.443814 176.375000,188.409234 175.000000,189.862634 C 171.350077,193.720669 157.539096,202.546950 149.785032,205.976941 C 147.201857,207.119603 144.443246,208.699611 143.654785,209.488072 C 142.140088,211.002769 131.308640,212.203822 127.000000,211.334851" fill="none" stroke="black" stroke-width="5"/>
</svg>
