<?xml version="1.0" encoding="utf-8" ?>
<svg xmlns="http://www.w3.org/2000/svg" xmlns:ev="http://www.w3.org/2001/xml-events" xmlns:xlink="http://www.w3.org/1999/xlink" baseProfile="full" height="214" version="1.1" width="259">
  <defs/>
  <path d="M 99.000000,158.561888 C 95.425000,157.919564 91.156757,156.826306 89.515016,156.132424 C 83.767314,153.703158 79.495689,151.598581 79.000000,150.951807 C 78.725000,150.592988 77.449042,149.745626 76.164538,149.068782 C 70.507248,146.087785 59.000000,134.383262 59.000000,131.609983 C 59.000000,130.816159 58.662500,130.016667 58.250000,129.833333 C 55.036722,128.405210 49.000000,108.974950 49.000000,100.060569 C 49.000000,88.540645 54.022526,72.879397 60.404191,64.500000 C 68.340071,54.079854 76.433285,48.193744 89.861801,43.075788 C 97.555030,40.143699 99.170014,39.888889 110.060353,39.888889 C 116.570567,39.888889 123.726077,40.436862 125.961487,41.106607 C 129.671669,42.218205 130.226440,42.135899 132.327386,40.162163 C 133.593220,38.972973 135.136883,38.000000 135.757747,38.000000 C 136.378612,38.000000 137.474609,37.195355 138.193296,36.211901 C 139.765568,34.060396 146.539887,30.000000 148.557160,30.000000 C 149.350722,30.000000 150.000000,29.550000 150.000000,29.000000 C 150.000000,28.450000 151.050000,28.000000 152.333333,28.000000 C 153.616667,28.000000 154.988470,27.678197 155.381785,27.284882 C 156.958146,25.708521 165.933842,24.085813 173.307371,24.044133 C 182.070695,23.994596 195.000000,25.843709 195.000000,27.146551 C 195.000000,27.615948 195.873442,28.000000 196.940983,28.000000 C 198.008524,28.000000 199.124159,28.391877 199.420174,28.870838 C 199.716188,29.349799 201.236603,29.997321 202.798875,30.309775 C 205.492586,30.848517 216.147087,38.166496 220.536530,42.492776 C 231.917464,53.709940 237.853068,74.344942 234.920976,92.500000 C 233.785748,99.529159 232.730049,102.667359 228.697526,111.000000 C 225.824047,116.937641 225.564918,117.276530 217.976362,125.021165 C 204.292157,138.986822 194.576899,143.119082 175.000000,143.300607 C 168.125000,143.364355 160.475000,143.067218 158.000000,142.640302 C 153.756706,141.908372 153.271817,142.070137 149.500000,145.476007 C 144.398673,150.082397 134.071096,155.366413 127.000000,156.987937 C 123.975000,157.681622 120.195350,158.643117 118.600777,159.124591 C 114.859452,160.254269 107.194643,160.034226 99.000000,158.561888" fill="none" stroke="black" stroke-width="5"/>
</svg>
