<?xml version="1.0" encoding="utf-8" ?>
<svg xmlns="http://www.w3.org/2000/svg" xmlns:ev="http://www.w3.org/2001/xml-events" xmlns:xlink="http://www.w3.org/1999/xlink" baseProfile="full" height="215" version="1.1" width="258">
  <defs/>
  <path d="M 178.000000,189.000000 C 178.000000,188.450000 176.334386,188.000000 174.298635,188.000000 C 172.262885,188.000000 166.075385,187.107770 160.548635,186.017267 C 155.021886,184.926764 146.450000,183.325176 141.500000,182.458183 C 136.550000,181.591190 130.475000,180.458390 128.000000,179.940850 C 121.683041,178.619930 113.452248,177.077809 107.000000,176.006292 C 103.975000,175.503934 99.700000,174.584748 97.500000,173.963657 C 95.300000,173.342566 89.450000,172.247973 84.500000,171.531229 C 72.928510,169.855715 63.310930,168.087569 59.429002,166.922046 C 57.739953,166.414921 55.039953,165.999923 53.429002,165.999829 C 51.818051,165.999734 46.900000,165.307645 42.500000,164.461852 C 38.100000,163.616058 31.125000,162.452040 27.000000,161.875144 C 22.875000,161.298249 18.946956,160.368086 18.271013,159.808116 C 16.382738,158.243816 18.442675,155.334140 22.763504,153.462441 C 24.818577,152.572223 28.424538,150.978994 30.776751,149.921931 C 33.128965,148.864869 35.716465,148.000000 36.526751,148.000000 C 37.337038,148.000000 38.000000,147.550000 38.000000,147.000000 C 38.000000,146.450000 38.683283,146.000000 39.518406,146.000000 C 40.353529,146.000000 43.166029,144.912755 45.768406,143.583899 C 48.370783,142.255044 52.750000,140.179652 55.500000,138.971918 C 58.250000,137.764184 62.875836,135.701429 65.779635,134.388019 C 68.683435,133.074608 71.283738,132.000000 71.558087,132.000000 C 73.649967,132.000000 87.000000,124.612090 87.000000,123.454443 C 87.000000,122.654500 86.637938,122.000000 86.195417,122.000000 C 85.752897,122.000000 83.615397,120.368094 81.445417,118.373542 C 79.275438,116.378990 75.482085,113.116490 73.015745,111.123542 C 70.549404,109.130594 67.561607,106.600000 66.376194,105.500000 C 65.190782,104.400000 62.596197,102.051401 60.610450,100.280891 C 55.745529,95.943286 55.717507,96.150740 62.134233,89.000000 C 63.861634,87.075000 66.448036,83.925000 67.881792,82.000000 C 69.315548,80.075000 70.718982,78.275000 71.000533,78.000000 C 72.368962,76.663412 81.892419,65.054388 84.350011,61.727086 C 85.882711,59.651983 88.119700,56.951983 89.321099,55.727086 C 90.522497,54.502189 93.078818,51.475000 95.001812,49.000000 C 98.929640,43.944668 101.995508,41.082736 103.536235,41.033269 C 104.106165,41.014971 106.581165,42.803928 109.036235,45.008729 C 111.491306,47.213530 116.650000,51.584788 120.500000,54.722636 C 128.774834,61.466837 136.118959,67.829140 141.103359,72.571568 C 143.085206,74.457206 145.163428,76.000000 145.721628,76.000000 C 146.279829,76.000000 149.911622,79.150000 153.792280,83.000000 C 160.836882,89.988948 162.490685,90.826881 165.763569,89.065496 C 166.718606,88.551518 168.962500,87.541668 170.750000,86.821384 C 172.537500,86.101100 174.000000,85.171627 174.000000,84.755889 C 174.000000,84.340150 174.661541,84.000000 175.470091,84.000000 C 176.278642,84.000000 179.596809,82.650000 182.843796,81.000000 C 186.090784,79.350000 189.260348,78.000000 189.887274,78.000000 C 190.514199,78.000000 191.808532,77.590889 192.763569,77.090864 C 195.801655,75.500225 208.070173,70.000000 208.580083,70.000000 C 208.849739,70.000000 210.271876,69.212741 211.740388,68.250535 C 215.023111,66.099612 220.736856,64.070189 221.463663,64.796997 C 222.436221,65.769555 222.000496,70.414749 220.412807,76.000000 C 219.552907,79.025000 218.182596,84.200000 217.367672,87.500000 C 213.936075,101.396111 210.697018,113.135758 208.814539,118.500000 C 208.235503,120.150000 207.155347,123.975000 206.414192,127.000000 C 204.403351,135.207187 202.186193,142.889716 201.515076,143.975606 C 200.920945,144.936930 197.612741,156.394334 196.021984,163.000000 C 193.350157,174.094839 191.792061,179.696872 190.949878,181.236431 C 190.427445,182.191468 190.000000,184.013968 190.000000,185.286431 C 190.000000,186.558894 189.460000,188.140000 188.800000,188.800000 C 187.354521,190.245479 178.000000,190.418711 178.000000,189.000000" fill="none" stroke="black" stroke-width="5"/>
</svg>
