<?xml version="1.0" encoding="utf-8" ?>
<svg xmlns="http://www.w3.org/2000/svg" xmlns:ev="http://www.w3.org/2001/xml-events" xmlns:xlink="http://www.w3.org/1999/xlink" baseProfile="full" height="217" version="1.1" width="254">
  <defs/>
  <path d="M 95.000000,145.926965 C 84.278870,143.121855 74.866407,138.676039 69.227471,133.753750 C 53.116596,119.690392 48.000000,108.640448 48.000000,87.910307 C 48.000000,76.260665 50.228846,66.441094 54.143141,60.845630 C 55.164413,59.385726 56.000000,57.489058 56.000000,56.630813 C 56.000000,55.772568 56.900000,54.588702 58.000000,54.000000 C 59.100000,53.411298 60.000000,52.309344 60.000000,51.551213 C 60.000000,48.877851 70.864570,39.366720 77.709784,36.047601 C 85.752498,32.147836 87.203350,31.569929 92.616020,30.110108 C 97.323877,28.840379 120.117646,28.594698 121.550000,29.798246 C 122.072500,30.237281 124.975000,31.417557 128.000000,32.421082 C 131.025000,33.424606 135.811187,35.343098 138.635972,36.684397 C 143.701916,39.089872 143.818573,39.098423 147.191887,37.311562 C 157.584443,31.806572 163.701672,29.001490 165.315741,29.000789 C 166.314399,29.000355 167.971669,28.550346 168.998564,28.000769 C 172.470243,26.142782 191.915322,26.452515 198.000000,28.462720 C 205.736564,31.018662 216.902163,36.735735 220.784796,40.129119 C 222.591434,41.708104 224.427893,43.000000 224.865817,43.000000 C 225.303740,43.000000 226.279102,44.237500 227.033288,45.750000 C 227.787474,47.262500 229.398193,49.625000 230.612664,51.000000 C 234.520434,55.424302 239.348280,66.091230 241.022451,74.000000 C 242.307582,80.070948 241.883731,93.544712 240.236014,99.000000 C 236.676181,110.785953 232.643347,119.165271 228.326825,123.744604 C 227.681579,124.429136 226.327492,126.039497 225.317744,127.323184 C 221.795917,131.800461 212.821674,137.310339 200.910655,142.308302 C 192.324736,145.911025 174.268441,146.743681 165.087709,143.960257 C 160.438280,142.550639 148.597966,136.842989 148.166667,135.803431 C 147.439284,134.050226 142.954988,135.173015 137.453552,138.485807 C 134.269736,140.403001 130.727717,142.231284 129.582398,142.548658 C 128.437079,142.866032 126.600000,143.497870 125.500000,143.952742 C 118.504577,146.845493 102.475975,147.883002 95.000000,145.926965" fill="none" stroke="black" stroke-width="5"/>
</svg>
