<?xml version="1.0" encoding="utf-8" ?>
<svg xmlns="http://www.w3.org/2000/svg" xmlns:ev="http://www.w3.org/2001/xml-events" xmlns:xlink="http://www.w3.org/1999/xlink" baseProfile="full" height="218" version="1.1" width="260">
  <defs/>
  <path d="M 130.950395,200.954966 C 121.307181,199.849367 110.013568,196.238441 105.808638,192.916349 C 103.778389,191.312357 101.802642,190.000000 101.418088,190.000000 C 100.034769,190.000000 90.744974,179.404461 88.266617,175.000000 C 86.873953,172.525000 84.504716,168.700000 83.001644,166.500000 C 81.498573,164.300000 79.930509,161.375000 79.517056,160.000000 C 79.103604,158.625000 77.693127,155.124164 76.382663,152.220365 C 75.072198,149.316565 73.993225,146.166565 73.984944,145.220365 C 73.943152,140.445174 71.218422,135.774623 67.396352,133.926641 C 65.253359,132.890497 62.825000,131.635276 62.000000,131.137261 C 61.175000,130.639246 59.150000,129.630888 57.500000,128.896464 C 55.850000,128.162040 52.700000,126.391186 50.500000,124.961233 C 45.497968,121.710018 37.509464,118.000000 35.510898,118.000000 C 34.679904,118.000000 34.000000,117.626041 34.000000,117.168980 C 34.000000,116.711919 32.762500,115.700136 31.250000,114.920574 C 29.737500,114.141012 28.275000,113.277471 28.000000,113.001594 C 26.682772,111.680166 19.040654,108.000000 17.613845,108.000000 C 15.699504,108.000000 15.448497,104.699158 17.250000,103.215274 C 17.937500,102.648986 21.200000,100.752326 24.500000,99.000474 C 39.300187,91.143587 54.210408,83.409526 62.500000,79.289544 C 73.214878,73.964179 74.677364,72.772217 75.558792,68.646308 C 75.928476,66.915838 76.547926,65.050000 76.935346,64.500000 C 77.322766,63.950000 78.264432,61.475000 79.027937,59.000000 C 79.791442,56.525000 80.659999,54.275000 80.958064,54.000000 C 82.250711,52.807380 86.000000,45.084020 86.000000,43.613845 C 86.000000,42.726230 86.373959,42.000000 86.831020,42.000000 C 87.288081,42.000000 88.277752,40.762500 89.030288,39.250000 C 91.131211,35.027416 94.984890,30.000000 96.120716,30.000000 C 96.681129,30.000000 99.101807,28.650000 101.500000,27.000000 C 103.898193,25.350000 106.476772,24.000000 107.230175,24.000000 C 107.983579,24.000000 109.027500,23.641864 109.550000,23.204141 C 111.194429,21.826528 117.222941,20.186130 125.230189,18.937460 C 131.198952,18.006675 134.325323,18.000531 138.950577,18.910494 C 148.104269,20.711373 156.333383,23.671221 162.148869,27.254457 C 167.744682,30.702341 175.985079,38.700681 175.994411,40.693296 C 175.997485,41.349609 176.817446,42.474609 177.816548,43.193296 C 180.291813,44.973838 188.000000,56.518448 188.000000,58.445131 C 188.000000,59.300309 188.343845,60.000000 188.764100,60.000000 C 190.078079,60.000000 192.974431,67.776191 196.163582,79.866293 C 201.177904,98.875640 201.248434,119.872907 196.373929,142.488296 C 195.545490,146.331859 194.288463,150.831859 193.580536,152.488296 C 192.872609,154.144733 191.285047,157.975000 190.052622,161.000000 C 185.346161,172.552051 181.325899,179.521327 176.500000,184.493978 C 171.195612,189.959669 158.686992,197.990193 155.439887,198.014553 C 154.372949,198.022558 151.700000,198.638569 149.500000,199.383468 C 143.679671,201.354174 138.361853,201.804693 130.950395,200.954966" fill="none" stroke="black" stroke-width="5"/>
</svg>
