<?xml version="1.0" encoding="utf-8" ?>
<svg xmlns="http://www.w3.org/2000/svg" xmlns:ev="http://www.w3.org/2001/xml-events" xmlns:xlink="http://www.w3.org/1999/xlink" baseProfile="full" height="218" version="1.1" width="258">
  <defs/>
  <path d="M 117.933286,197.250000 C 117.896593,196.837500 117.649469,189.090376 117.384122,180.034170 C 117.118775,170.977963 116.685222,163.351889 116.420671,163.087338 C 116.156120,162.822787 113.590744,163.332543 110.719835,164.220130 C 105.899080,165.710543 103.709003,166.303292 93.250000,168.948376 C 87.370622,170.435272 69.888089,172.000000 59.154548,172.000000 C 48.230216,172.000000 34.140658,169.025655 30.115141,165.869699 C 28.803469,164.841365 27.280071,164.000000 26.729812,164.000000 C 25.425480,164.000000 22.180072,160.437583 18.792204,155.287055 C 12.723877,146.061461 15.341132,127.946159 24.371631,116.669112 C 31.296115,108.021999 44.300914,96.000000 46.730446,96.000000 C 47.428701,96.000000 48.000000,95.604594 48.000000,95.121320 C 48.000000,94.638047 49.350000,93.683452 51.000000,93.000000 C 52.650000,92.316548 54.000000,91.469706 54.000000,91.118129 C 54.000000,90.766552 57.037500,88.908646 60.750000,86.989449 C 64.462500,85.070252 67.650000,83.162500 67.833333,82.750000 C 68.016667,82.337500 68.939167,82.000000 69.883333,82.000000 C 70.827500,82.000000 72.027500,81.622751 72.550000,81.161669 C 73.907341,79.963879 89.384082,74.000000 91.135103,74.000000 C 91.940796,74.000000 93.027500,73.592744 93.550000,73.094987 C 94.072500,72.597230 98.775000,71.608218 104.000000,70.897183 C 109.225000,70.186148 113.813189,69.143682 114.195976,68.580591 C 114.578763,68.017501 114.625010,61.651117 114.298747,54.433071 C 113.972484,47.215026 114.005368,40.114748 114.371823,38.654676 C 115.767041,33.095683 119.910500,36.200501 128.177917,49.000000 C 129.066054,50.375000 132.783329,55.100000 136.438529,59.500000 C 140.093729,63.900000 143.629113,68.175000 144.294938,69.000000 C 151.028285,77.343049 154.623797,81.555021 155.250000,81.833333 C 155.662500,82.016667 156.000000,82.749067 156.000000,83.460889 C 156.000000,84.172711 156.701341,85.337172 157.558535,86.048580 C 158.415729,86.759988 161.183853,90.077588 163.709921,93.421024 C 166.235990,96.764461 168.834990,99.818079 169.485478,100.206843 C 170.135965,100.595606 171.980341,102.836686 173.584091,105.187019 C 176.520615,109.490564 177.698448,111.028623 181.662239,115.735776 C 186.923883,121.984178 186.888875,122.446968 180.677629,128.752010 C 177.563265,131.913404 174.246711,135.625000 173.307510,137.000000 C 172.368308,138.375000 170.404423,140.625000 168.943320,142.000000 C 167.482217,143.375000 165.231427,146.075000 163.941564,148.000000 C 162.651701,149.925000 161.323594,151.725000 160.990215,152.000000 C 160.656836,152.275000 159.686081,153.522075 158.832981,154.771278 C 157.979882,156.020481 155.743018,158.720481 153.862173,160.771278 C 151.981328,162.822075 148.880403,166.525000 146.971228,169.000000 C 145.062052,171.475000 143.272440,173.725000 142.994311,174.000000 C 142.716182,174.275000 141.230781,176.187500 139.693420,178.250000 C 138.156058,180.312500 136.246119,182.000000 135.449109,182.000000 C 134.652099,182.000000 134.000000,182.652639 134.000000,183.450310 C 134.000000,184.247980 133.436185,185.260480 132.747077,185.700310 C 132.057969,186.140139 129.803372,189.087500 127.736862,192.250000 C 124.548032,197.130051 123.527230,198.000000 120.989785,198.000000 C 119.345403,198.000000 117.969979,197.662500 117.933286,197.250000" fill="none" stroke="black" stroke-width="5"/>
</svg>
