<?xml version="1.0" encoding="utf-8" ?>
<svg xmlns="http://www.w3.org/2000/svg" xmlns:ev="http://www.w3.org/2001/xml-events" xmlns:xlink="http://www.w3.org/1999/xlink" baseProfile="full" height="217" version="1.1" width="255">
  <defs/>
  <path d="M 52.432937,177.891490 C 52.056134,177.281810 51.594415,172.669310 51.406895,167.641490 C 51.219374,162.613671 50.823102,151.975000 50.526290,144.000000 C 50.229477,136.025000 49.530559,116.225000 48.973139,100.000000 C 48.415719,83.775000 47.572866,61.950000 47.100132,51.500000 C 46.581267,40.030233 46.605904,31.801388 47.162296,30.737287 C 48.767492,27.667348 48.677126,27.586910 71.091166,52.037413 C 76.366308,57.791836 83.065608,65.200000 85.978501,68.500000 C 88.891393,71.800000 91.662868,74.927500 92.137334,75.450000 C 95.285923,78.917345 96.061452,63.296930 94.071141,36.500000 C 92.788105,19.225603 94.344178,18.933138 108.702619,33.750000 C 114.432191,39.662500 120.024505,45.625000 121.129983,47.000000 C 122.235462,48.375000 129.329156,56.025000 136.893747,64.000000 C 144.458339,71.975000 153.729746,81.875000 157.496874,86.000000 C 161.264002,90.125000 165.908334,94.897765 167.817612,96.606145 C 172.422250,100.726273 171.846161,102.530642 162.902749,112.000000 C 159.006860,116.125000 154.172468,121.485923 152.159657,123.913162 C 150.146846,126.340400 146.250000,130.670146 143.500000,133.534818 C 130.081450,147.512908 114.655129,164.725352 111.042839,169.750000 C 109.319336,172.147370 107.171739,174.000000 106.116172,174.000000 C 102.054704,174.000000 101.523040,171.600078 100.993984,150.878538 C 100.573394,134.405295 100.214495,130.785924 98.868080,129.439509 C 97.374898,127.946327 97.038498,128.041776 94.567287,130.659811 C 93.092788,132.221915 91.139921,134.737500 90.227583,136.250000 C 89.315244,137.762500 88.237427,139.000000 87.832433,139.000000 C 87.427440,139.000000 85.700278,141.028730 83.994297,143.508289 C 82.288315,145.987849 79.904197,149.090754 78.696256,150.403635 C 71.708894,157.998025 63.000000,168.574447 63.000000,169.465784 C 63.000000,169.838174 62.437500,170.738668 61.750000,171.466882 C 61.062500,172.195095 59.379939,174.187952 58.010977,175.895453 C 55.418896,179.128543 53.599786,179.779491 52.432937,177.891490" fill="none" stroke="black" stroke-width="5"/>
</svg>
