<?xml version="1.0" encoding="utf-8" ?>
<svg xmlns="http://www.w3.org/2000/svg" xmlns:ev="http://www.w3.org/2001/xml-events" xmlns:xlink="http://www.w3.org/1999/xlink" baseProfile="full" height="218" version="1.1" width="260">
  <defs/>
  <path d="M 201.500000,169.888872 C 194.900000,166.593038 187.025000,162.956071 184.000000,161.806724 C 180.975000,160.657377 177.375000,158.976960 176.000000,158.072465 C 174.625000,157.167969 172.375000,155.940269 171.000000,155.344242 C 169.625000,154.748215 165.350000,152.769789 161.500000,150.947741 C 157.650000,149.125693 152.700000,146.844587 150.500000,145.878617 C 148.300000,144.912646 141.550000,141.795881 135.500000,138.952470 C 129.450000,136.109060 122.700000,132.985209 120.500000,132.010580 C 118.300000,131.035951 113.648694,128.834859 110.163765,127.119264 C 106.678836,125.403669 103.191336,124.000000 102.413765,124.000000 C 101.636194,124.000000 101.000000,123.550000 101.000000,123.000000 C 101.000000,122.450000 100.281213,122.000000 99.402695,122.000000 C 97.943156,122.000000 82.165343,114.322181 81.000000,113.044858 C 79.809682,111.740159 66.245692,106.000000 64.353010,106.000000 C 61.518754,106.000000 55.000000,101.015070 55.000000,98.847698 C 55.000000,96.529203 55.598557,95.957658 64.500000,89.776418 C 67.800000,87.484869 71.065164,85.052202 71.755920,84.370491 C 72.446676,83.688781 73.909176,82.846214 75.005920,82.498121 C 76.102664,82.150028 77.000000,81.445549 77.000000,80.932612 C 77.000000,80.419676 77.422227,80.000000 77.938282,80.000000 C 78.454337,80.000000 80.354624,78.650000 82.161143,77.000000 C 83.967662,75.350000 85.907935,73.989559 86.472861,73.976797 C 87.037788,73.964036 89.137918,72.501536 91.139819,70.726797 C 93.141719,68.952059 97.603620,65.475000 101.055154,63.000000 C 104.506688,60.525000 107.818770,58.050000 108.415335,57.500000 C 109.011901,56.950000 114.450000,53.172204 120.500000,49.104897 C 126.550000,45.037591 132.400000,40.927729 133.500000,39.971871 C 134.600000,39.016012 136.937145,37.507864 138.693656,36.620430 C 140.910800,35.500272 142.981737,32.941935 145.466601,28.253457 C 150.776624,18.234428 162.837494,6.000000 167.404370,6.000000 C 168.281967,6.000000 169.000000,5.627287 169.000000,5.171748 C 169.000000,3.775824 178.748287,2.000000 186.411134,2.000000 C 194.871361,2.000000 204.741107,4.852544 209.966368,8.807910 C 214.353576,12.128895 223.000000,20.924600 223.000000,22.066569 C 223.000000,22.541755 224.350000,25.059272 226.000000,27.661052 C 228.756744,32.007986 229.000000,33.116319 229.000000,41.329761 C 229.000000,56.161728 225.467128,64.949941 214.730920,76.824878 C 211.574485,80.316098 210.945536,81.646862 211.468035,83.728665 C 212.091061,86.210997 213.476798,103.696614 214.540667,122.500000 C 214.820732,127.450000 215.285655,134.200000 215.573831,137.500000 C 215.862007,140.800000 216.323891,148.675000 216.600240,155.000000 C 216.876588,161.325000 217.521655,167.781902 218.033723,169.348670 C 219.144212,172.746428 217.740891,176.028078 215.214816,175.940649 C 214.271667,175.908005 208.100000,173.184706 201.500000,169.888872" fill="none" stroke="black" stroke-width="5"/>
</svg>
