<?xml version="1.0" encoding="utf-8" ?>
<svg xmlns="http://www.w3.org/2000/svg" xmlns:ev="http://www.w3.org/2001/xml-events" xmlns:xlink="http://www.w3.org/1999/xlink" baseProfile="full" height="216" version="1.1" width="260">
  <defs/>
  <path d="M 78.000000,181.000000 C 77.175000,180.466844 75.150000,180.016959 73.500000,180.000256 C 70.449824,179.969379 63.598880,177.932213 62.352005,176.685338 C 61.975069,176.308402 60.926190,176.000000 60.021163,176.000000 C 57.937574,176.000000 50.702683,172.536461 45.500000,169.048325 C 43.300000,167.573336 39.925000,165.614826 38.000000,164.696079 C 31.013010,161.361392 25.000000,153.060288 25.000000,146.749268 C 25.000000,141.989163 27.338524,136.191063 29.609946,135.319436 C 30.374476,135.026059 31.000000,134.332359 31.000000,133.777882 C 31.000000,131.593272 46.088816,119.201556 54.285483,114.654639 C 56.917499,113.194588 60.153441,112.000000 61.476466,112.000000 C 62.799491,112.000000 64.160081,111.550000 64.500000,111.000000 C 64.839919,110.450000 66.103976,109.993451 67.309017,109.985447 C 68.514058,109.977442 71.483007,109.280366 73.906683,108.436387 C 76.330359,107.592409 83.911673,106.505143 90.754048,106.020242 C 97.596424,105.535340 103.435576,104.897757 103.729942,104.603391 C 104.775420,103.557913 104.756605,69.502262 103.708801,66.337836 C 102.912408,63.932683 103.010499,62.256906 104.118544,59.337836 C 105.496786,55.706949 105.849319,55.472210 110.656208,54.984633 C 113.450684,54.701181 138.390755,54.328927 166.078587,54.157401 C 197.365889,53.963577 217.132848,53.464086 218.303191,52.837737 C 219.338891,52.283448 221.210889,52.087098 222.463187,52.401405 C 224.670707,52.955457 224.731750,53.285641 224.466331,63.236436 C 224.206620,72.973229 224.005398,90.796668 224.056925,99.500000 C 224.113000,108.971521 222.976685,155.356648 222.681348,155.651985 C 222.502808,155.830526 207.268822,155.999360 188.828046,156.027172 L 155.299363,156.077739 L 150.966049,161.038870 C 148.582727,163.767491 146.125223,166.000000 145.504929,166.000000 C 144.884636,166.000000 143.504770,166.791754 142.438561,167.759454 C 137.254406,172.464635 124.665072,177.599174 111.000374,180.581469 C 103.615161,182.193277 80.303947,182.488925 78.000000,181.000000" fill="none" stroke="black" stroke-width="5"/>
</svg>
