<?xml version="1.0" encoding="utf-8" ?>
<svg xmlns="http://www.w3.org/2000/svg" xmlns:ev="http://www.w3.org/2001/xml-events" xmlns:xlink="http://www.w3.org/1999/xlink" baseProfile="full" height="219" version="1.1" width="260">
  <defs/>
  <path d="M 43.000000,185.313901 C 43.000000,184.229844 44.264373,181.353239 45.809718,178.921445 C 50.487008,171.561139 55.239044,163.657537 56.723334,160.769881 C 57.495157,159.268315 58.536110,157.786700 59.036564,157.477402 C 59.537018,157.168105 60.732007,155.246658 61.692095,153.207522 C 62.652183,151.168385 64.689225,147.634739 66.218855,145.354975 C 67.748485,143.075212 69.000000,140.712712 69.000000,140.104975 C 69.000000,139.497239 69.338273,139.000000 69.751717,139.000000 C 70.165162,139.000000 71.616650,136.862500 72.977247,134.250000 C 74.337844,131.637500 75.708676,129.275000 76.023542,129.000000 C 76.338407,128.725000 77.823610,126.374920 79.323992,123.777600 C 82.266491,118.683821 82.203814,116.243235 78.982554,110.482384 C 76.379531,105.827179 75.692213,101.472092 75.592209,89.000000 C 75.521342,80.161656 75.948445,76.111310 77.437560,71.500000 C 78.503218,68.200000 79.671431,65.275000 80.033588,65.000000 C 80.395745,64.725000 80.973639,63.347278 81.317796,61.938395 C 81.661953,60.529512 83.080691,58.054512 84.470547,56.438395 C 85.860402,54.822278 86.998107,53.057116 86.998779,52.515813 C 87.001147,50.607095 100.107224,39.326138 105.767644,36.360653 C 111.148648,33.541553 113.305612,32.782441 123.616020,30.079172 C 128.802258,28.719401 146.671937,28.660166 147.500000,30.000000 C 147.839919,30.550000 149.434308,31.000000 151.043087,31.000000 C 154.592619,31.000000 165.917053,36.296341 172.424705,41.000000 C 175.879544,43.497119 185.989288,54.332223 187.353580,57.000000 C 188.056750,58.375000 189.139675,60.400000 189.760080,61.500000 C 192.279639,65.967270 195.174658,77.855875 195.589501,85.438939 C 196.043010,93.728797 194.205341,104.639336 191.396908,110.331040 C 189.383949,114.410598 189.663112,116.754021 192.500000,119.590909 C 193.875000,120.965909 195.000000,122.334390 195.000000,122.631977 C 195.000000,123.550509 201.358789,132.223409 204.019314,134.933629 C 205.404937,136.345133 207.168477,138.737500 207.938294,140.250000 C 208.708110,141.762500 209.711919,143.000000 210.168980,143.000000 C 210.626041,143.000000 211.000550,143.562500 211.001221,144.250000 C 211.001893,144.937500 212.014393,146.704275 213.251221,148.176167 C 217.043233,152.688862 225.395144,164.051115 227.355505,167.364161 C 228.376033,169.088873 229.613533,170.650000 230.105505,170.833333 C 230.597477,171.016667 231.000000,171.759718 231.000000,172.484557 C 231.000000,173.209397 232.575000,174.731721 234.500000,175.867499 C 238.103162,177.993417 238.941871,179.724559 236.750000,180.511625 C 234.228696,181.416985 221.623229,181.980259 182.500000,182.935781 C 160.500000,183.473096 136.875000,184.157757 130.000000,184.457250 C 123.125000,184.756743 103.550000,185.214731 86.500000,185.475001 C 69.450000,185.735271 52.687500,186.248975 49.250000,186.616566 C 43.471248,187.234520 43.000000,187.136299 43.000000,185.313901" fill="none" stroke="black" stroke-width="5"/>
</svg>
