<?xml version="1.0" encoding="utf-8" ?>
<svg xmlns="http://www.w3.org/2000/svg" xmlns:ev="http://www.w3.org/2001/xml-events" xmlns:xlink="http://www.w3.org/1999/xlink" baseProfile="full" height="215" version="1.1" width="258">
  <defs/>
  <path d="M 220.651528,184.322058 C 220.555784,184.224189 211.932523,183.894730 201.488724,183.589925 C 191.044926,183.285120 178.900000,182.818321 174.500000,182.552592 C 160.417486,181.702110 145.898278,181.008335 130.500000,180.450129 C 122.250000,180.151056 113.025000,179.700723 110.000000,179.449389 C 106.975000,179.198054 96.625000,178.716560 87.000000,178.379402 C 77.375000,178.042244 65.900000,177.481450 61.500000,177.133194 C 54.033894,176.542257 53.477412,176.340214 53.161543,174.105724 C 52.924806,172.431029 53.723174,170.928319 55.817970,169.105724 C 57.465157,167.672576 60.505188,164.250000 62.573594,161.500000 C 64.642000,158.750000 67.159108,155.911983 68.167166,155.193296 C 69.175225,154.474609 70.000000,153.421694 70.000000,152.853486 C 70.000000,151.812512 73.058174,148.178988 78.389126,142.886073 C 81.443077,139.853913 84.000000,135.595137 84.000000,133.540681 C 84.000000,132.863793 83.100000,131.495486 82.000000,130.500000 C 80.900000,129.504514 80.000000,128.277626 80.000000,127.773584 C 80.000000,127.269541 79.356845,126.213987 78.570766,125.427909 C 75.873608,122.730751 73.683093,112.826221 73.590016,102.907185 C 73.539190,97.490725 73.965783,92.701734 74.569873,91.907185 C 75.158303,91.133233 76.242830,88.587500 76.979933,86.250000 C 77.717035,83.912500 78.667768,82.000000 79.092672,82.000000 C 79.517576,82.000000 80.165636,81.053487 80.532806,79.896637 C 80.899976,78.739787 83.742800,75.152161 86.850194,71.924134 C 96.204082,62.207113 109.282378,57.181404 122.111969,58.373789 C 128.854139,59.000407 136.676796,61.035875 140.396427,63.131433 C 141.965776,64.015569 142.677697,63.708311 144.524213,61.349919 C 145.751461,59.782464 148.830770,56.250000 151.367122,53.500000 C 153.903473,50.750000 155.983469,48.109752 155.989335,47.632783 C 155.995201,47.155814 158.250000,44.491811 161.000000,41.712777 C 163.750000,38.933744 166.000000,36.349941 166.000000,35.970993 C 166.000000,35.040685 177.395487,23.000000 178.275945,23.000000 C 179.118428,23.000000 181.294505,28.083417 184.483012,37.500000 C 185.786644,41.350000 188.711689,49.675000 190.983112,56.000000 C 196.669414,71.834065 201.700728,86.178556 209.397429,108.500000 C 213.000714,118.950000 216.381109,128.400000 216.909418,129.500000 C 217.437727,130.600000 220.621901,139.825000 223.985359,150.000000 C 227.348817,160.175000 230.465717,169.400000 230.911804,170.500000 C 232.624880,174.724258 234.000000,179.727308 234.000000,181.735671 C 234.000000,183.614740 233.324800,183.863718 227.412804,184.164673 C 223.789846,184.349103 220.747272,184.419926 220.651528,184.322058" fill="none" stroke="black" stroke-width="5"/>
</svg>
