<?xml version="1.0" encoding="utf-8" ?>
<svg xmlns="http://www.w3.org/2000/svg" xmlns:ev="http://www.w3.org/2001/xml-events" xmlns:xlink="http://www.w3.org/1999/xlink" baseProfile="full" height="213" version="1.1" width="257">
  <defs/>
  <path d="M 59.000000,174.440055 C 59.000000,172.365179 68.165311,152.834689 70.000000,151.000000 C 70.471578,150.528422 73.339161,145.175509 80.071651,132.199266 C 83.426836,125.732462 83.774797,123.009573 81.250000,122.978379 C 78.736651,122.947326 70.238485,118.227899 63.282157,113.000000 C 57.901169,108.956018 52.248895,101.862025 48.189535,94.057722 C 43.351501,84.756382 41.278673,63.055479 44.493361,55.361647 C 45.314709,53.395884 45.768943,51.435159 45.502769,51.004480 C 44.669348,49.655977 49.301351,39.641752 52.211704,36.500000 C 53.740176,34.850000 54.992827,33.072034 54.995373,32.548965 C 55.002260,31.133552 67.832813,19.000000 69.322646,19.000000 C 70.028488,19.000000 72.382146,17.708504 74.552997,16.130009 C 81.837330,10.833338 90.033698,8.705784 103.573695,8.597023 C 110.711942,8.539685 116.643871,8.964661 118.076245,9.636017 C 119.409310,10.260827 122.525000,11.378710 125.000000,12.120202 C 132.463726,14.356279 152.000000,28.801669 152.000000,32.084373 C 152.000000,32.509396 152.622853,33.479995 153.384117,34.241260 C 155.277392,36.134535 159.000000,43.571224 159.000000,45.460162 C 159.000000,46.307073 159.398905,47.000000 159.886456,47.000000 C 160.374007,47.000000 161.082206,49.062520 161.460232,51.583377 C 161.838258,54.104235 162.772733,57.938706 163.536843,60.104424 C 164.723810,63.468647 164.721776,65.458930 163.522876,73.771047 C 161.618651,86.973272 161.121591,88.740713 157.842188,93.970404 C 156.279972,96.461682 154.290939,100.032895 153.422115,101.906434 C 151.566793,105.907264 142.864629,114.449642 138.820856,116.239591 C 135.382260,117.761661 135.254178,119.268176 138.355936,121.708019 C 139.651700,122.727268 141.317100,125.234929 142.056824,127.280599 C 142.796548,129.326270 143.761377,131.000000 144.200888,131.000000 C 144.640400,131.000000 145.000000,131.520933 145.000000,132.157629 C 145.000000,133.366752 152.944113,144.252939 154.250000,144.833333 C 154.662500,145.016667 155.000000,145.637126 155.000000,146.212133 C 155.000000,146.787139 156.462500,148.931677 158.250000,150.977772 C 163.977419,157.533770 169.000000,165.043180 169.000000,167.050417 C 169.000000,168.642627 168.300436,169.000000 165.183659,169.000000 C 163.084672,169.000000 158.922172,169.421843 155.933659,169.937428 C 152.945147,170.453014 144.875000,171.120264 138.000000,171.420207 C 131.125000,171.720150 119.200000,172.424250 111.500000,172.984873 C 103.800000,173.545497 93.225000,174.259376 88.000000,174.571272 C 82.775000,174.883168 74.911805,175.557226 70.526234,176.069178 C 59.090005,177.404193 59.000000,177.391471 59.000000,174.440055" fill="none" stroke="black" stroke-width="5"/>
</svg>
