<?xml version="1.0" encoding="utf-8" ?>
<svg xmlns="http://www.w3.org/2000/svg" xmlns:ev="http://www.w3.org/2001/xml-events" xmlns:xlink="http://www.w3.org/1999/xlink" baseProfile="full" height="219" version="1.1" width="252">
  <defs/>
  <path d="M 113.000000,218.000000 C 112.175000,217.466844 109.806394,217.023735 107.736431,217.015313 C 105.666468,217.006891 103.191468,216.593859 102.236431,216.097464 C 101.281394,215.601070 98.475000,214.606732 96.000000,213.887824 C 87.856573,211.522422 78.258997,205.837081 68.864213,197.813327 L 63.228426,193.000000 L 43.614213,193.000000 C 24.865461,193.000000 24.000000,192.914356 24.000000,191.059017 C 24.000000,189.991476 24.442290,188.844684 24.982867,188.510589 C 25.523444,188.176494 29.553970,180.635079 33.939590,171.751889 C 39.654144,160.176909 41.624079,155.251969 40.892169,154.370072 C 39.374837,152.541799 36.795916,136.773365 36.334030,126.500000 C 35.947129,117.894489 37.141032,108.472285 39.088289,104.763569 C 39.589730,103.808532 40.000000,101.731718 40.000000,100.148428 C 40.000000,98.565137 40.951302,96.060333 42.114004,94.582196 C 43.276707,93.104060 43.967594,91.634261 43.649310,91.315976 C 43.331025,90.997692 43.729723,89.796262 44.535305,88.646132 C 45.340887,87.496003 46.000000,85.755115 46.000000,84.777494 C 46.000000,83.799872 46.360330,83.000000 46.800734,83.000000 C 47.241138,83.000000 48.565700,81.087500 49.744205,78.750000 C 53.585454,71.131091 64.735708,59.273622 73.578203,53.404309 C 76.457950,51.492841 79.361033,49.269908 80.029498,48.464457 C 80.697963,47.659006 81.864789,47.000000 82.622445,47.000000 C 83.380100,47.000000 84.000000,46.622027 84.000000,46.160060 C 84.000000,45.698092 85.912500,44.704204 88.250000,43.951419 C 90.587500,43.198633 93.850000,41.778289 95.500000,40.795097 C 97.150000,39.811906 99.297147,39.005794 100.271439,39.003738 C 101.245730,39.001682 102.586571,37.762500 103.251084,36.250000 C 103.915598,34.737500 104.702628,33.275000 105.000039,33.000000 C 105.297450,32.725000 107.115122,29.384663 109.039310,25.577028 C 110.963498,21.769393 113.022498,18.492501 113.614865,18.295045 C 114.207233,18.097589 115.951225,19.839007 117.490403,22.164863 C 119.029582,24.490718 120.700588,26.867611 121.203752,27.446846 C 121.706915,28.026081 122.961116,29.922740 123.990866,31.661643 C 125.707738,34.560870 126.387569,34.866258 132.181569,35.341012 C 139.121191,35.909636 147.311812,37.256619 153.500000,38.846921 C 158.389811,40.103553 177.064138,49.602147 180.223880,52.439876 C 181.485523,53.572944 184.538777,56.126113 187.008889,58.113585 C 193.353036,63.218137 197.247603,67.027737 199.671560,70.500000 C 204.652816,77.635532 214.000000,95.626826 214.000000,98.079127 C 214.000000,99.070688 214.391845,100.124140 214.870767,100.420130 C 216.749477,101.581236 218.720879,123.373929 217.772764,132.500000 C 216.247610,147.180360 215.806139,149.620745 213.930564,153.739102 C 212.868754,156.070607 212.000000,158.202749 212.000000,158.477194 C 212.000000,159.516161 219.459506,170.000000 220.198756,170.000000 C 220.624678,170.000000 221.645152,171.462500 222.466476,173.250000 C 223.974361,176.531708 226.060566,180.079970 227.023098,181.000000 C 228.689453,182.592775 231.000000,187.220267 231.000000,188.964817 C 231.000000,190.940873 230.443678,191.000000 211.851227,191.000000 L 192.702454,191.000000 L 187.101227,195.552496 C 184.020552,198.056369 180.707356,200.756369 179.738569,201.552496 C 178.769782,202.348623 177.779841,203.000000 177.538701,203.000000 C 177.297561,203.000000 175.165205,204.264883 172.800132,205.810852 C 170.435059,207.356821 166.475000,209.423280 164.000000,210.402983 C 161.525000,211.382687 158.150000,212.788052 156.500000,213.526016 C 152.109401,215.489718 140.295322,217.889989 137.989066,217.286890 C 136.880636,216.997029 136.000000,217.261113 136.000000,217.883369 C 136.000000,219.296365 115.169433,219.401995 113.000000,218.000000" fill="none" stroke="black" stroke-width="5"/>
</svg>
