<?xml version="1.0" encoding="utf-8" ?>
<svg xmlns="http://www.w3.org/2000/svg" xmlns:ev="http://www.w3.org/2001/xml-events" xmlns:xlink="http://www.w3.org/1999/xlink" baseProfile="full" height="214" version="1.1" width="255">
  <defs/>
  <path d="M 130.500000,188.346853 C 123.823545,187.199732 113.690593,184.023926 112.313680,182.647013 C 111.957823,182.291156 110.841667,182.000000 109.833333,182.000000 C 108.825000,182.000000 108.000000,181.550000 108.000000,181.000000 C 108.000000,180.450000 107.298613,180.000000 106.441362,180.000000 C 105.584111,180.000000 102.996611,178.537500 100.691362,176.750000 C 94.678265,172.087419 80.113121,156.861702 79.406686,154.500000 C 78.874957,152.722364 74.869175,143.721020 71.662713,137.098612 C 71.023221,135.777849 70.500000,132.290349 70.500000,129.348612 C 70.500000,126.406875 70.190073,124.000000 69.811273,124.000000 C 68.376538,124.000000 67.892002,115.226104 68.955290,108.500000 C 69.563912,104.650000 70.047540,100.421606 70.030020,99.103569 C 70.012500,97.785531 70.389902,96.210531 70.868692,95.603569 C 71.347482,94.996606 72.064182,92.700000 72.461358,90.500000 C 73.181757,86.509638 75.828400,80.798489 77.250000,80.166667 C 77.662500,79.983333 78.000000,78.970833 78.000000,77.916667 C 78.000000,76.862500 78.450000,76.000000 79.000000,76.000000 C 79.550000,76.000000 80.000000,75.497790 80.000000,74.883977 C 80.000000,74.270164 81.575000,71.622375 83.500000,69.000000 C 85.425000,66.377625 86.986086,63.617336 86.969079,62.866023 C 86.952073,62.114710 85.039573,60.057694 82.719079,58.294875 C 80.398586,56.532056 77.375000,54.057056 76.000000,52.794875 C 74.625000,51.532694 71.925000,49.322119 70.000000,47.882486 C 68.075000,46.442853 64.700000,43.631027 62.500000,41.633983 C 60.300000,39.636940 57.150000,37.636216 55.500000,37.187930 C 49.824391,35.645933 51.906090,33.592386 60.500000,32.255550 C 64.900000,31.571102 70.750000,30.608496 73.500000,30.116426 C 76.250000,29.624356 83.450000,28.482736 89.500000,27.579493 C 95.550000,26.676250 102.525000,25.537261 105.000000,25.048406 C 107.475000,24.559551 113.100000,23.638016 117.500000,23.000551 C 121.900000,22.363085 130.225000,21.019079 136.000000,20.013870 C 149.884557,17.597095 154.693523,16.865189 159.500000,16.437261 C 161.700000,16.241391 165.075000,15.643802 167.000000,15.109284 C 170.829973,14.045808 179.336576,12.718567 194.000000,10.896613 C 199.225000,10.247399 204.042788,9.291333 204.706195,8.772022 C 205.989055,7.767808 208.000000,8.522942 208.000000,10.008885 C 208.000000,10.498853 206.537500,12.993300 204.750000,15.552101 C 202.962500,18.110901 201.050000,20.916374 200.500000,21.786484 C 199.950000,22.656594 197.367157,26.773089 194.760348,30.934251 C 192.153539,35.095413 189.566039,39.043507 189.010348,39.707794 C 188.454657,40.372080 188.000000,41.314836 188.000000,41.802806 C 188.000000,42.290776 187.100000,43.504514 186.000000,44.500000 C 183.138275,47.089826 183.399441,50.821170 186.525626,52.009743 C 187.914720,52.537876 189.312865,53.651738 189.632615,54.484992 C 189.952364,55.318246 190.788666,56.000000 191.491063,56.000000 C 192.193460,56.000000 194.732815,58.277431 197.134074,61.060958 C 199.535333,63.844486 202.062500,66.737343 202.750000,67.489530 C 203.437500,68.241717 204.000000,69.254433 204.000000,69.740010 C 204.000000,70.225587 204.896031,71.584654 205.991181,72.760159 C 212.280823,79.511298 216.121594,90.945086 217.936213,108.319946 C 218.455500,113.292086 218.488877,119.181620 218.012720,121.819946 C 216.077978,132.540095 212.958106,142.390192 210.073677,146.885184 C 208.383155,149.519635 207.000000,152.061511 207.000000,152.533797 C 207.000000,155.371977 196.807159,166.946706 188.999977,172.974161 C 186.524990,174.884950 184.275000,176.741576 184.000000,177.099998 C 182.432196,179.143399 166.234627,186.117154 158.822546,187.939982 C 149.442477,190.246791 142.166342,190.351318 130.500000,188.346853" fill="none" stroke="black" stroke-width="5"/>
</svg>
