<?xml version="1.0" encoding="utf-8" ?>
<svg baseProfile="full" height="216" version="1.1" width="259" xmlns="http://www.w3.org/2000/svg" xmlns:ev="http://www.w3.org/2001/xml-events" xmlns:xlink="http://www.w3.org/1999/xlink"><defs /><rect fill="white" height="216" width="259" x="0" y="0" /><path d="M 191,198 L 191,199 L 192,199 Z" fill="none" stroke="black" stroke-width="5" /><path d="M 129,204 L 186,197 L 136,182 Z" fill="none" stroke="black" stroke-width="5" /><path d="M 220,126 L 206,133 L 203,150 L 211,161 L 224,164 L 238,155 L 240,139 L 233,128 Z" fill="none" stroke="black" stroke-width="5" /><path d="M 30,117 L 17,126 L 14,140 L 21,152 L 40,155 L 52,144 L 52,129 L 49,122 Z" fill="none" stroke="black" stroke-width="5" /><path d="M 129,111 L 125,114 L 123,122 L 128,128 L 135,128 L 140,124 L 140,116 L 134,111 Z" fill="none" stroke="black" stroke-width="5" /><path d="M 132,72 L 86,152 L 173,146 Z" fill="none" stroke="black" stroke-width="5" /><path d="M 206,24 L 199,29 L 185,58 L 223,54 Z" fill="none" stroke="black" stroke-width="5" /><ellipse cx="43.783660888671875" cy="38.07748794555664" fill="none" rx="17.827051162719727" ry="18.186378479003906" stroke="black" stroke-width="5" transform="rotate(74.20191192626953, 43.783660888671875, 38.07748794555664)" /><path d="M 0,0 L 0,215 L 258,215 L 258,0 Z" fill="none" stroke="black" stroke-width="5" /></svg>