<?xml version="1.0" encoding="utf-8" ?>
<svg xmlns="http://www.w3.org/2000/svg" xmlns:ev="http://www.w3.org/2001/xml-events" xmlns:xlink="http://www.w3.org/1999/xlink" baseProfile="full" height="220" version="1.1" width="256">
  <defs/>
  <path d="M 78.040428,182.512514 C 72.528828,180.522889 67.106200,175.150783 65.960351,170.544986 C 65.406871,168.320244 64.523583,165.733362 63.997490,164.796360 C 63.383686,163.703140 63.391923,162.875812 64.020479,162.487343 C 64.559215,162.154386 65.000000,159.652213 65.000000,156.926959 C 65.000000,147.470932 71.905332,141.362990 83.816957,140.282881 C 90.203184,139.703799 94.527978,141.330361 100.847458,146.688083 C 109.943768,154.400030 108.725351,172.015083 98.620609,178.882377 C 91.111458,183.985678 85.072273,185.050930 78.040428,182.512514" fill="none" stroke="black" stroke-width="5"/>
  <path d="M 184.637422,125.298287 C 184.523289,125.187345 170.270678,124.794304 152.964954,124.424864 C 132.445251,123.986811 121.264316,123.381525 120.822466,122.684812 C 120.449822,122.097224 121.157964,120.412550 122.396115,118.941091 C 123.634265,117.469633 125.231250,114.855927 125.944969,113.132856 C 126.658689,111.409785 127.638047,110.000000 128.121320,110.000000 C 128.604594,110.000000 129.000000,109.525309 129.000000,108.945131 C 129.000000,108.364952 130.800000,105.239644 133.000000,102.000000 C 135.200000,98.760356 137.000000,95.841232 137.000000,95.513056 C 137.000000,95.184880 137.900000,93.950337 139.000000,92.769625 C 140.100000,91.588914 141.000000,90.032730 141.000000,89.311439 C 141.000000,88.590147 141.450000,88.000000 142.000000,88.000000 C 142.550000,88.000000 143.000000,87.529678 143.000000,86.954840 C 143.000000,86.380002 145.172138,82.667502 147.826974,78.704840 C 150.481810,74.742178 153.744310,69.475000 155.076974,67.000000 C 156.409638,64.525000 157.726266,62.275000 158.002812,62.000000 C 159.235957,60.773754 172.460198,39.966902 174.408175,36.188015 C 175.674017,33.732401 176.679675,32.956699 178.297518,33.188015 C 179.538780,33.365488 180.641637,34.362297 180.855467,35.500000 C 181.062210,36.600000 181.530697,37.725000 181.896548,38.000000 C 182.262399,38.275000 184.566297,41.875000 187.016322,46.000000 C 189.466346,50.125000 192.264957,54.372353 193.235456,55.438561 C 194.205955,56.504770 195.010006,58.079770 195.022236,58.938561 C 195.034466,59.797353 195.924459,61.625000 197.000000,63.000000 C 198.075541,64.375000 198.965534,66.025000 198.977764,66.666667 C 198.989994,67.308333 199.344763,67.983333 199.766140,68.166667 C 200.187517,68.350000 202.519591,71.875000 204.948527,76.000000 C 207.377464,80.125000 209.899371,84.175000 210.552766,85.000000 C 211.733136,86.490378 214.603389,91.467595 220.356294,102.000000 C 222.008580,105.025000 223.655282,107.725000 224.015632,108.000000 C 224.375983,108.275000 226.135380,111.200000 227.925404,114.500000 C 229.715427,117.800000 231.814494,121.210433 232.589996,122.078741 C 233.365498,122.947048 234.000000,124.114123 234.000000,124.672240 C 234.000000,125.333595 225.440550,125.654436 209.422469,125.593499 C 195.904826,125.542075 184.751555,125.409229 184.637422,125.298287" fill="none" stroke="black" stroke-width="5"/>
  <path d="M 45.500000,94.769164 C 38.468710,93.049839 29.654722,87.861654 24.250000,82.260760 C 21.362500,79.268455 19.000000,76.185658 19.000000,75.410102 C 19.000000,74.634546 18.659850,74.000000 18.244111,74.000000 C 17.299858,74.000000 15.454168,69.747963 14.120426,64.500000 C 12.958699,59.928874 13.400371,50.380693 15.045570,44.500000 C 15.661048,42.300000 16.398424,39.298146 16.684184,37.829213 C 16.969943,36.360281 18.057904,34.241597 19.101873,33.121027 C 20.145843,32.000457 21.004799,30.727311 21.010665,30.291813 C 21.016531,29.856316 22.990554,27.364880 25.397382,24.755289 C 29.975748,19.791220 38.108570,15.219099 46.287105,13.011478 C 55.715138,10.466581 70.717531,13.013276 78.619576,18.500000 C 83.724679,22.044689 90.436649,29.659284 92.850819,34.645058 C 94.143769,37.315276 95.605392,40.279990 96.098871,41.233312 C 96.592349,42.186633 97.031121,47.586633 97.073919,53.233312 C 97.144643,62.564411 96.880423,64.103578 94.174508,70.123364 C 91.334257,76.442004 89.451973,79.348596 85.900285,82.900285 C 75.364205,93.436365 59.322540,98.149118 45.500000,94.769164" fill="none" stroke="black" stroke-width="5"/>
</svg>
