<?xml version="1.0" encoding="utf-8" ?>
<svg baseProfile="full" height="218" version="1.1" width="256" xmlns="http://www.w3.org/2000/svg" xmlns:ev="http://www.w3.org/2001/xml-events" xmlns:xlink="http://www.w3.org/1999/xlink"><defs /><rect fill="white" height="218" width="256" x="0" y="0" /><path d="M 138,175 L 139,196 L 162,196 L 160,174 Z" fill="none" stroke="black" stroke-width="1" /><path d="M 131,167 L 169,167 L 171,200 L 135,205 Z" fill="black" stroke="black" stroke-width="1" /><path d="M 34,130 L 35,153 L 57,154 L 57,130 Z" fill="none" stroke="black" stroke-width="1" /><circle cx="202.7084503173828" cy="139.08575439453125" fill="none" r="12.746768951416016" stroke="black" stroke-width="1" /><path d="M 28,124 L 62,123 L 64,157 L 30,160 Z" fill="none" stroke="black" stroke-width="1" /><circle cx="202.90029907226562" cy="139.15139770507812" fill="none" r="19.148983001708984" stroke="black" stroke-width="1" /><path d="M 139,103 L 119,133 L 154,132 Z" fill="none" stroke="black" stroke-width="1" /><path d="M 138,89 L 164,137 L 107,138 Z" fill="black" stroke="black" stroke-width="1" /><circle cx="37.63114929199219" cy="40.66393280029297" fill="none" r="12.70171070098877" stroke="black" stroke-width="1" /><circle cx="37.74576187133789" cy="40.71186447143555" fill="none" r="19.328969955444336" stroke="black" stroke-width="1" /><circle cx="175.76922607421875" cy="18.098901748657227" fill="none" r="12.28014087677002" stroke="black" stroke-width="1" /><circle cx="175.8092803955078" cy="18.0463924407959" fill="none" r="19.05448341369629" stroke="black" stroke-width="1" /><path d="M 0,0 L 0,217 L 255,217 L 255,0 Z" fill="none" stroke="black" stroke-width="1" /></svg>