<?xml version="1.0" encoding="utf-8" ?>
<svg baseProfile="full" height="218" version="1.1" width="256" xmlns="http://www.w3.org/2000/svg" xmlns:ev="http://www.w3.org/2001/xml-events" xmlns:xlink="http://www.w3.org/1999/xlink"><defs /><rect fill="white" height="218" width="256" x="0" y="0" /><path d="M 138,175 L 139,196 L 162,196 L 163,186 L 160,174 Z" fill="none" stroke="black" stroke-width="5" /><path d="M 34,130 L 35,153 L 57,154 L 57,130 Z" fill="none" stroke="black" stroke-width="5" /><path d="M 198,128 L 192,134 L 192,146 L 199,151 L 207,151 L 214,145 L 215,136 L 209,128 Z" fill="none" stroke="black" stroke-width="5" /><path d="M 139,103 L 117,131 L 119,133 L 154,132 Z" fill="none" stroke="black" stroke-width="5" /><ellipse cx="37.78171157836914" cy="40.72555923461914" fill="none" rx="11.745461463928223" ry="12.35617733001709" stroke="black" stroke-width="5" transform="rotate(97.594482421875, 37.78171157836914, 40.72555923461914)" /><path d="M 172,7 L 166,11 L 164,21 L 169,28 L 178,30 L 186,24 L 188,17 L 184,9 Z" fill="none" stroke="black" stroke-width="5" /><path d="M 0,0 L 0,217 L 255,217 L 255,0 Z" fill="none" stroke="black" stroke-width="5" /></svg>