<?xml version="1.0" encoding="utf-8" ?>
<svg baseProfile="full" height="214" version="1.1" width="258" xmlns="http://www.w3.org/2000/svg" xmlns:ev="http://www.w3.org/2001/xml-events" xmlns:xlink="http://www.w3.org/1999/xlink"><defs /><rect fill="white" height="214" width="258" x="0" y="0" /><path d="M 154,196 L 134,166 L 114,197 Z" fill="none" stroke="black" stroke-width="1" /><path d="M 163,200 L 104,202 L 135,155 Z" fill="none" stroke="black" stroke-width="1" /><path d="M 236,158 L 216,125 L 195,157 Z" fill="none" stroke="black" stroke-width="1" /><path d="M 33,121 L 34,144 L 62,144 L 60,121 Z" fill="none" stroke="black" stroke-width="1" /><path d="M 244,159 L 186,163 L 216,116 Z" fill="none" stroke="black" stroke-width="1" /><path d="M 26,116 L 66,116 L 70,149 L 28,150 Z" fill="none" stroke="black" stroke-width="1" /><circle cx="132.2437286376953" cy="95.1863784790039" fill="none" r="15.351336479187012" stroke="black" stroke-width="1" /><circle cx="132.20657348632812" cy="95.08946990966797" fill="none" r="21.983903884887695" stroke="black" stroke-width="1" /><path d="M 198,21 L 199,47 L 224,48 L 224,20 Z" fill="none" stroke="black" stroke-width="1" /><path d="M 191,16 L 231,14 L 232,54 L 194,53 Z" fill="none" stroke="black" stroke-width="1" /><circle cx="50.97142791748047" cy="28.042856216430664" fill="none" r="14.816204071044922" stroke="black" stroke-width="1" /><circle cx="50.78474044799805" cy="28.084468841552734" fill="none" r="21.700851440429688" stroke="black" stroke-width="1" /><path d="M 0,0 L 0,213 L 257,213 L 257,0 Z" fill="none" stroke="black" stroke-width="1" /></svg>