<?xml version="1.0" encoding="utf-8" ?>
<svg baseProfile="full" height="214" version="1.1" width="262" xmlns="http://www.w3.org/2000/svg" xmlns:ev="http://www.w3.org/2001/xml-events" xmlns:xlink="http://www.w3.org/1999/xlink"><defs /><rect fill="white" height="214" width="262" x="0" y="0" /><circle cx="72.24260711669922" cy="178.84024047851562" fill="none" r="15.800114631652832" stroke="black" stroke-width="1" /><path d="M 157,163 L 160,189 L 186,188 L 185,162 Z" fill="none" stroke="black" stroke-width="1" /><circle cx="72.22093200683594" cy="179.0" fill="black" r="22.345746994018555" stroke="black" stroke-width="1" /><path d="M 151,158 L 191,156 L 192,194 L 153,194 Z" fill="black" stroke="black" stroke-width="1" /><path d="M 225,75 L 204,107 L 242,104 Z" fill="none" stroke="black" stroke-width="1" /><path d="M 226,64 L 252,111 L 194,113 Z" fill="black" stroke="black" stroke-width="1" /><path d="M 123,64 L 124,89 L 150,88 L 149,64 Z" fill="none" stroke="black" stroke-width="1" /><path d="M 152,56 L 156,93 L 120,96 L 114,59 Z" fill="black" stroke="black" stroke-width="1" /><path d="M 48,21 L 27,56 L 67,55 Z" fill="none" stroke="black" stroke-width="1" /><circle cx="224.9563751220703" cy="25.171140670776367" fill="none" r="15.138089179992676" stroke="black" stroke-width="1" /><path d="M 15,59 L 49,11 L 77,61 Z" fill="black" stroke="black" stroke-width="1" /><circle cx="224.5" cy="25.0" fill="black" r="22.07383918762207" stroke="black" stroke-width="1" /><path d="M 0,0 L 0,213 L 261,213 L 261,0 Z" fill="none" stroke="black" stroke-width="1" /></svg>