<?xml version="1.0" encoding="utf-8" ?>
<svg baseProfile="full" height="217" version="1.1" width="259" xmlns="http://www.w3.org/2000/svg" xmlns:ev="http://www.w3.org/2001/xml-events" xmlns:xlink="http://www.w3.org/1999/xlink"><defs /><rect fill="white" height="217" width="259" x="0" y="0" /><circle cx="224.68182373046875" cy="148.68182373046875" fill="none" r="4.047844409942627" stroke="black" stroke-width="1" /><circle cx="224.5" cy="148.5" fill="black" r="9.823541641235352" stroke="black" stroke-width="1" /><circle cx="133.0" cy="116.69999694824219" fill="none" r="4.206045627593994" stroke="black" stroke-width="1" /><circle cx="133.3380889892578" cy="116.95714569091797" fill="black" r="9.55903148651123" stroke="black" stroke-width="1" /><circle cx="105.31818389892578" cy="110.68181610107422" fill="none" r="4.047849655151367" stroke="black" stroke-width="1" /><circle cx="105.25" cy="110.75" fill="black" r="9.519816398620605" stroke="black" stroke-width="1" /><circle cx="227.5" cy="100.0" fill="none" r="4.031229019165039" stroke="black" stroke-width="1" /><circle cx="227.60203552246094" cy="100.11224365234375" fill="black" r="9.83171558380127" stroke="black" stroke-width="1" /><circle cx="126.0" cy="94.28571319580078" fill="none" r="3.8466451168060303" stroke="black" stroke-width="1" /><circle cx="126.0" cy="94.0" fill="black" r="9.219644546508789" stroke="black" stroke-width="1" /><circle cx="117.46878814697266" cy="118.36638641357422" fill="none" r="73.84117126464844" stroke="black" stroke-width="1" /><circle cx="116.49060821533203" cy="119.1141586303711" fill="none" r="80.09713745117188" stroke="black" stroke-width="1" /><path d="M 37,31 L 34,29 L 30,31 L 30,36 L 36,36 Z" fill="none" stroke="black" stroke-width="1" /><circle cx="33.5" cy="33.0" fill="black" r="9.394247055053711" stroke="black" stroke-width="1" /><path d="M 0,0 L 0,216 L 258,216 L 258,0 Z" fill="none" stroke="black" stroke-width="1" /></svg>