<?xml version="1.0" encoding="utf-8" ?>
<svg baseProfile="full" height="222" version="1.1" width="259" xmlns="http://www.w3.org/2000/svg" xmlns:ev="http://www.w3.org/2001/xml-events" xmlns:xlink="http://www.w3.org/1999/xlink"><defs /><rect fill="white" height="222" width="259" x="0" y="0" /><path d="M 132,111 L 131,117 L 138,118 L 138,112 Z" fill="none" stroke="black" stroke-width="1" /><circle cx="134.15383911132812" cy="114.15384674072266" fill="black" r="9.646201133728027" stroke="black" stroke-width="1" /><circle cx="192.8333282470703" cy="104.5" fill="none" r="4.1164655685424805" stroke="black" stroke-width="1" /><circle cx="192.72727966308594" cy="104.61363983154297" fill="black" r="9.871831893920898" stroke="black" stroke-width="1" /><circle cx="60.925926208496094" cy="95.48148345947266" fill="none" r="4.644522190093994" stroke="black" stroke-width="1" /><circle cx="61.16666793823242" cy="95.16666412353516" fill="black" r="10.069305419921875" stroke="black" stroke-width="1" /><circle cx="42.19696807861328" cy="79.07575988769531" fill="none" r="4.332747459411621" stroke="black" stroke-width="1" /><circle cx="41.657894134521484" cy="78.5" fill="black" r="9.976317405700684" stroke="black" stroke-width="1" /><circle cx="67.80769348144531" cy="70.80769348144531" fill="none" r="4.731024265289307" stroke="black" stroke-width="1" /><circle cx="67.8125" cy="70.65178680419922" fill="black" r="10.164603233337402" stroke="black" stroke-width="1" /><circle cx="158.34616088867188" cy="55.346153259277344" fill="none" r="4.939070224761963" stroke="black" stroke-width="1" /><circle cx="158.13194274902344" cy="55.45833206176758" fill="black" r="9.963492393493652" stroke="black" stroke-width="1" /><path d="M 153,17 L 114,139 L 220,115 Z" fill="none" stroke="black" stroke-width="1" /><path d="M 149,1 L 232,118 L 106,147 Z" fill="none" stroke="black" stroke-width="1" /><path d="M 0,0 L 0,221 L 258,221 L 258,0 Z" fill="none" stroke="black" stroke-width="1" /></svg>