<?xml version="1.0" encoding="utf-8" ?>
<svg baseProfile="full" height="220" version="1.1" width="255" xmlns="http://www.w3.org/2000/svg" xmlns:ev="http://www.w3.org/2001/xml-events" xmlns:xlink="http://www.w3.org/1999/xlink"><defs /><rect fill="white" height="220" width="255" x="0" y="0" /><circle cx="126.33870697021484" cy="201.35484313964844" fill="none" r="4.943195819854736" stroke="black" stroke-width="1" /><circle cx="126.67857360839844" cy="201.0" fill="black" r="10.143524169921875" stroke="black" stroke-width="1" /><circle cx="125.7127685546875" cy="177.1170196533203" fill="none" r="5.166523456573486" stroke="black" stroke-width="1" /><circle cx="125.5" cy="177.0" fill="black" r="10.30786418914795" stroke="black" stroke-width="1" /><circle cx="126.0" cy="151.0" fill="none" r="4.472236156463623" stroke="black" stroke-width="1" /><circle cx="126.11904907226562" cy="151.26190185546875" fill="black" r="10.065926551818848" stroke="black" stroke-width="1" /><circle cx="80.0" cy="83.5" fill="none" r="4.272101879119873" stroke="black" stroke-width="1" /><circle cx="79.81578826904297" cy="83.0" fill="black" r="10.017569541931152" stroke="black" stroke-width="1" /><circle cx="199.35714721679688" cy="76.07142639160156" fill="none" r="4.764975547790527" stroke="black" stroke-width="1" /><circle cx="199.5869598388672" cy="75.58695983886719" fill="black" r="9.717519760131836" stroke="black" stroke-width="1" /><circle cx="133.31817626953125" cy="48.318180084228516" fill="none" r="4.047858238220215" stroke="black" stroke-width="1" /><circle cx="133.2413787841797" cy="48.4568977355957" fill="black" r="9.866873741149902" stroke="black" stroke-width="1" /><path d="M 37,67 L 124,124 L 236,74 L 146,18 Z" fill="none" stroke="black" stroke-width="1" /><path d="M 30,65 L 150,12 L 241,79 L 125,130 Z" fill="none" stroke="black" stroke-width="1" /><path d="M 0,0 L 0,219 L 254,219 L 254,0 Z" fill="none" stroke="black" stroke-width="1" /></svg>