<?xml version="1.0" encoding="utf-8" ?>
<svg xmlns="http://www.w3.org/2000/svg" xmlns:ev="http://www.w3.org/2001/xml-events" xmlns:xlink="http://www.w3.org/1999/xlink" baseProfile="full" height="218" version="1.1" width="261">
  <defs/>
  <path d="M 134.000000,185.288282 C 131.703383,184.470966 125.999352,178.824478 124.414681,175.799660 C 121.593681,170.414941 123.285376,161.860331 129.477100,150.199884 C 131.414695,146.550945 133.000000,142.853223 133.000000,141.982725 C 133.000000,141.112226 133.405968,139.972500 133.902151,139.450000 C 136.381614,136.839027 141.713021,117.262038 142.680250,107.216712 C 143.556199,98.119398 138.457565,90.069538 130.082378,87.326852 C 120.925482,84.328174 112.019706,86.189371 105.186034,92.529879 C 103.708715,93.900585 101.712500,95.272430 100.750000,95.578423 C 99.787500,95.884417 99.000000,96.593400 99.000000,97.153941 C 99.000000,98.993734 86.618606,111.153385 81.000000,114.831572 C 76.089934,118.045918 74.780205,118.435756 68.789296,118.466058 C 62.259856,118.499083 61.978607,118.393996 58.376936,114.575548 C 52.798596,108.661459 48.907384,96.411342 52.000000,94.500000 C 52.550000,94.160081 53.000000,93.008524 53.000000,91.940983 C 53.000000,90.873442 53.450000,90.000000 54.000000,90.000000 C 54.550000,90.000000 55.000000,89.105623 55.000000,88.012497 C 55.000000,86.090306 64.230461,76.318145 72.339855,69.655031 C 74.451775,67.919764 77.376775,65.488050 78.839855,64.251221 C 80.302935,63.014393 82.175000,61.969003 83.000000,61.928133 C 83.825000,61.887263 85.850000,60.993278 87.500000,59.941500 C 92.045943,57.043728 100.023772,53.340185 104.500000,52.049598 C 123.714137,46.509777 131.242344,45.436842 140.158734,46.967447 C 148.569819,48.411311 155.000000,50.253057 155.000000,51.218315 C 155.000000,51.648242 155.900000,52.000000 157.000000,52.000000 C 158.100000,52.000000 159.000000,52.393750 159.000000,52.875000 C 159.000000,53.356250 160.462500,54.037286 162.250000,54.388414 C 166.263612,55.176829 179.861590,69.079440 180.698292,73.250000 C 181.001732,74.762500 181.545508,76.000000 181.906685,76.000000 C 182.267861,76.000000 183.129498,78.137500 183.821432,80.750000 C 184.513367,83.362500 185.544632,86.973274 186.113133,88.773942 C 188.239009,95.507435 186.844069,122.110415 183.977643,129.500000 C 183.550952,130.600000 182.654023,133.075000 181.984468,135.000000 C 178.647615,144.593600 176.342453,149.886732 173.797001,153.800132 C 172.258650,156.165205 171.000000,158.320926 171.000000,158.590625 C 171.000000,159.772721 166.079294,165.878558 161.260093,170.676347 C 153.581085,178.321237 147.253893,182.860665 142.605838,184.059795 C 135.856726,185.800967 135.559743,185.843361 134.000000,185.288282" fill="none" stroke="black" stroke-width="5"/>
</svg>
