<?xml version="1.0" encoding="utf-8" ?>
<svg xmlns="http://www.w3.org/2000/svg" xmlns:ev="http://www.w3.org/2001/xml-events" xmlns:xlink="http://www.w3.org/1999/xlink" baseProfile="full" height="220" version="1.1" width="260">
  <defs/>
  <path d="M 102.267209,213.010078 C 92.575659,210.949609 88.818460,207.910864 80.870841,195.705133 C 70.462893,179.720898 69.362012,163.761856 77.614555,148.500000 C 81.261705,141.755137 87.942664,133.125318 89.575686,133.049767 C 90.167313,133.022395 91.718875,131.863695 93.023601,130.474878 C 98.921660,124.196682 112.032891,119.468936 120.448828,120.585685 C 129.687644,121.811625 133.030082,123.799477 145.054424,135.219397 C 148.150982,138.160302 154.091455,141.000000 157.147088,141.000000 C 161.420562,141.000000 172.606744,134.138943 178.583359,127.852040 C 186.106981,119.937814 192.314961,115.000000 194.741362,115.000000 C 195.763613,115.000000 197.027500,114.579696 197.550000,114.065991 C 198.072500,113.552286 200.300000,112.883139 202.500000,112.578996 C 204.700000,112.274854 207.751129,111.740093 209.280287,111.390638 C 214.640631,110.165652 232.000000,121.022548 232.000000,125.600000 C 232.000000,126.370000 232.340435,127.000000 232.756521,127.000000 C 233.661678,127.000000 236.000000,134.155403 236.000000,136.925234 C 236.000000,138.001437 236.450000,139.160081 237.000000,139.500000 C 238.472127,140.409825 238.217374,148.833200 236.465153,157.184624 C 234.286359,167.569179 229.782963,175.884015 222.349105,183.247764 C 210.151085,195.330742 200.480235,195.958094 172.340479,186.491844 C 165.045730,184.037881 160.310513,182.956234 158.667551,183.368591 C 155.605721,184.137062 150.000000,188.705100 150.000000,190.431680 C 150.000000,191.121320 147.187500,194.623721 143.750000,198.214793 C 137.628695,204.609570 131.278062,209.388381 125.708802,211.790681 C 122.002408,213.389434 107.580241,214.139654 102.267209,213.010078" fill="none" stroke="black" stroke-width="5"/>
</svg>
