<?xml version="1.0" encoding="utf-8" ?>
<svg xmlns="http://www.w3.org/2000/svg" xmlns:ev="http://www.w3.org/2001/xml-events" xmlns:xlink="http://www.w3.org/1999/xlink" baseProfile="full" height="218" version="1.1" width="261">
  <defs/>
  <path d="M 119.500000,203.841723 C 106.743177,202.865343 99.958995,201.678769 96.500000,199.818952 C 94.850000,198.931788 90.350000,196.736391 86.500000,194.940294 C 82.650000,193.144196 79.275000,191.360652 79.000000,190.976863 C 78.725000,190.593074 77.150000,189.574664 75.500000,188.713730 C 72.252309,187.019156 63.000000,177.849384 63.000000,176.325239 C 63.000000,175.811317 61.509378,173.763454 59.687506,171.774433 C 57.865634,169.785413 55.554515,166.209975 54.551687,163.829016 C 53.548859,161.448057 52.147059,158.150000 51.436576,156.500000 C 49.137112,151.159809 47.286738,144.657126 45.988920,137.355558 C 44.555712,129.292285 45.728017,112.066286 48.565157,99.500000 C 49.434387,95.650000 50.504174,90.925000 50.942461,89.000000 C 52.455455,82.354784 57.098714,69.477588 60.497829,62.500000 C 63.402080,56.538252 66.619635,51.922095 73.392703,44.000000 C 75.338937,41.723594 79.557771,38.307041 82.107496,36.942470 C 83.360627,36.271815 85.418220,34.765890 86.679926,33.595970 C 87.941631,32.426051 90.667300,30.638464 92.736968,29.623555 C 94.806636,28.608647 97.281394,27.378157 98.236431,26.889133 C 99.191468,26.400110 100.852411,26.000000 101.927414,26.000000 C 103.002418,26.000000 104.160081,25.550000 104.500000,25.000000 C 104.839919,24.450000 106.126476,24.000000 107.359017,24.000000 C 108.591558,24.000000 110.027500,23.573938 110.550000,23.053196 C 112.082973,21.525380 128.859734,20.768422 137.000000,21.859787 C 144.204827,22.825737 154.302752,25.200105 158.500000,26.915174 C 163.273992,28.865909 166.591678,30.586722 167.821429,31.750000 C 168.548214,32.437500 169.572556,33.000000 170.097744,33.000000 C 171.811405,33.000000 179.881192,41.779890 181.309519,45.198357 C 184.500829,52.836237 184.154092,63.975654 180.496840,71.306788 C 179.673578,72.957057 178.996717,74.800639 178.992704,75.403638 C 178.988691,76.006637 176.626191,79.002906 173.742704,82.062014 C 169.815573,86.228329 165.865192,88.964122 158.000000,92.964449 C 152.225000,95.901681 147.275000,98.573775 147.000000,98.902435 C 146.725000,99.231096 145.150000,100.251119 143.500000,101.169152 C 138.343469,104.038164 134.523312,109.597618 134.640386,114.062504 C 134.696965,116.220271 135.304939,118.662502 135.991438,119.489684 C 138.062695,121.985396 148.881179,124.699310 159.758177,125.451784 C 170.981643,126.228227 173.886574,127.267501 181.439699,133.208613 C 187.601829,138.055601 190.068536,141.733507 192.701386,150.000000 C 194.485067,155.600313 194.639595,157.461404 193.817813,163.445890 C 193.032289,169.166333 192.060070,171.590036 188.307238,177.183538 C 184.495618,182.864660 179.046270,188.629993 173.345994,193.012319 C 172.244350,193.859254 168.960029,195.394565 159.000000,199.718594 C 150.494350,203.411223 135.002817,205.028275 119.500000,203.841723" fill="none" stroke="black" stroke-width="5"/>
</svg>
