<?xml version="1.0" encoding="utf-8" ?>
<svg baseProfile="full" height="220" version="1.1" width="258" xmlns="http://www.w3.org/2000/svg" xmlns:ev="http://www.w3.org/2001/xml-events" xmlns:xlink="http://www.w3.org/1999/xlink"><defs /><rect fill="white" height="220" width="258" x="0" y="0" /><path d="M 187,150 L 172,181 L 207,181 Z" fill="none" stroke="black" stroke-width="1" /><path d="M 188,134 L 216,187 L 161,186 Z" fill="black" stroke="black" stroke-width="1" /><circle cx="65.9183578491211" cy="154.72946166992188" fill="none" r="21.762348175048828" stroke="black" stroke-width="1" /><circle cx="65.8396224975586" cy="154.3745880126953" fill="black" r="28.235979080200195" stroke="black" stroke-width="1" /><path d="M 44,52 L 44,76 L 68,77 L 69,52 Z" fill="none" stroke="black" stroke-width="1" /><path d="M 188,51 L 174,83 L 210,83 Z" fill="none" stroke="black" stroke-width="1" /><path d="M 38,44 L 76,45 L 74,83 L 36,81 Z" fill="black" stroke="black" stroke-width="1" /><path d="M 189,40 L 219,90 L 163,88 Z" fill="black" stroke="black" stroke-width="1" /><path d="M 0,0 L 0,219 L 257,219 L 257,0 Z" fill="none" stroke="black" stroke-width="1" /></svg>