<?xml version="1.0" encoding="utf-8" ?>
<svg baseProfile="full" height="221" version="1.1" width="262" xmlns="http://www.w3.org/2000/svg" xmlns:ev="http://www.w3.org/2001/xml-events" xmlns:xlink="http://www.w3.org/1999/xlink"><defs /><rect fill="white" height="221" width="262" x="0" y="0" /><path d="M 213,164 L 175,201 L 212,202 Z" fill="none" stroke="black" stroke-width="1" /><path d="M 34,162 L 35,198 L 74,199 Z" fill="none" stroke="black" stroke-width="1" /><path d="M 216,149 L 220,206 L 162,208 Z" fill="black" stroke="black" stroke-width="1" /><path d="M 27,147 L 85,203 L 29,204 Z" fill="black" stroke="black" stroke-width="1" /><circle cx="123.57080841064453" cy="118.6075668334961" fill="none" r="27.953264236450195" stroke="black" stroke-width="1" /><circle cx="122.85201263427734" cy="118.91856384277344" fill="none" r="34.3721809387207" stroke="black" stroke-width="1" /><path d="M 167,45 L 214,87 L 213,46 Z" fill="none" stroke="black" stroke-width="1" /><path d="M 74,44 L 35,44 L 34,83 Z" fill="none" stroke="black" stroke-width="1" /><path d="M 155,39 L 219,40 L 220,98 Z" fill="black" stroke="black" stroke-width="1" /><path d="M 86,38 L 29,97 L 29,39 Z" fill="black" stroke="black" stroke-width="1" /><path d="M 0,0 L 0,220 L 261,220 L 261,0 Z" fill="none" stroke="black" stroke-width="1" /></svg>