<?xml version="1.0" encoding="utf-8" ?>
<svg xmlns="http://www.w3.org/2000/svg" xmlns:ev="http://www.w3.org/2001/xml-events" xmlns:xlink="http://www.w3.org/1999/xlink" baseProfile="full" height="218" version="1.1" width="262">
  <defs/>
  <path d="M 169.767156,193.433823 C 169.455759,193.122426 150.143259,192.626143 126.850490,192.330973 C 103.557720,192.035803 84.147748,191.465830 83.717217,191.064367 C 83.286687,190.662905 83.222332,189.584187 83.574206,188.667217 C 84.265869,186.864773 84.003094,186.884811 110.260159,186.632319 L 124.020318,186.500000 L 124.395283,170.000000 C 124.601514,160.925000 125.254575,142.930133 125.846530,130.011406 C 126.438484,117.092679 126.573136,106.173136 126.145756,105.745756 C 125.398505,104.998505 95.110508,135.148740 91.660861,140.073801 C 90.298432,142.018941 89.647326,142.267652 88.239128,141.380844 C 85.085366,139.394772 85.815412,137.225119 91.452897,131.829712 C 94.515760,128.898370 97.804348,125.685175 98.760870,124.689278 C 99.717391,123.693380 106.116927,117.168380 112.982059,110.189278 L 125.464118,97.500000 L 126.663837,88.253194 C 127.973317,78.160415 128.119212,51.810923 126.876746,49.800571 C 126.103631,48.549645 112.867604,61.545620 96.152109,79.967979 C 88.611772,88.278279 85.000000,90.123439 85.000000,85.665298 C 85.000000,84.381212 86.237500,82.159401 87.750000,80.727940 C 89.262500,79.296479 91.026055,77.534595 91.669012,76.812642 C 92.311969,76.090689 95.461969,72.929238 98.669012,69.787195 C 101.876055,66.645152 105.562682,62.820152 106.861515,61.287195 C 114.300745,52.506993 126.317733,40.958358 128.614656,40.381867 C 131.419768,39.677829 134.699556,42.729542 153.000000,63.071463 C 156.575000,67.045267 161.862500,72.765252 164.750000,75.782542 C 168.956810,80.178444 170.000000,81.937306 170.000000,84.634262 C 170.000000,87.333333 169.603851,88.000000 168.000000,88.000000 C 166.900000,88.000000 166.000000,87.408481 166.000000,86.685513 C 166.000000,85.962545 162.737500,81.909501 158.750000,77.678749 C 147.342882,65.575756 139.243510,56.709656 137.201986,54.090891 C 135.174629,51.490299 132.572008,52.000878 133.413270,54.834157 C 133.685314,55.750371 133.548190,63.925000 133.108552,73.000000 C 132.668913,82.075000 132.688179,90.850000 133.151366,92.500000 C 133.614553,94.150000 135.245771,96.625000 136.776294,98.000000 C 138.306817,99.375000 140.583837,101.850000 141.836339,103.500000 C 143.088840,105.150000 147.691419,110.100000 152.064291,114.500000 C 163.888764,126.397826 167.620727,130.680197 170.485915,135.638533 C 172.387595,138.929476 172.011145,142.000000 169.705992,142.000000 C 168.959764,142.000000 165.964498,139.060786 163.049845,135.468413 C 160.135192,131.876040 156.906619,128.485208 155.875238,127.933229 C 154.843857,127.381251 154.000000,126.598554 154.000000,126.193902 C 154.000000,125.789250 149.910270,121.192583 144.911710,115.979086 C 139.913151,110.765589 135.382684,105.685156 134.844006,104.689235 C 132.570663,100.486224 131.729113,103.782808 131.834536,116.478162 C 131.893395,123.566197 131.600309,129.845761 131.183232,130.432749 C 130.766155,131.019737 130.441806,143.865022 130.462455,158.977827 L 130.500000,186.455654 L 150.500000,186.719438 C 173.345159,187.020748 178.311807,187.665020 178.837628,190.395386 C 179.035165,191.421114 178.590009,192.644877 177.848393,193.114860 C 176.330352,194.076885 170.635011,194.301678 169.767156,193.433823" fill="black" stroke="black" stroke-width="1"/>
</svg>
