<?xml version="1.0" encoding="utf-8" ?>
<svg baseProfile="full" height="218" version="1.1" width="265" xmlns="http://www.w3.org/2000/svg" xmlns:ev="http://www.w3.org/2001/xml-events" xmlns:xlink="http://www.w3.org/1999/xlink"><defs /><rect fill="white" height="218" width="265" x="0" y="0" /><path d="M 145,154 L 142,158 L 141,165 L 144,169 L 155,169 L 157,165 L 157,158 L 154,154 Z" fill="none" stroke="black" stroke-width="5" /><path d="M 100,135 L 96,140 L 96,145 L 100,149 L 110,149 L 113,143 L 111,137 L 107,134 Z" fill="none" stroke="black" stroke-width="5" /><path d="M 50,110 L 50,119 L 52,121 L 63,121 L 65,119 L 67,112 L 61,106 L 55,106 Z" fill="none" stroke="black" stroke-width="5" /><path d="M 222,20 L 216,24 L 214,30 L 216,35 L 223,38 L 229,35 L 230,25 L 228,22 Z" fill="none" stroke="black" stroke-width="5" /><path d="M 0,0 L 0,217 L 264,217 L 264,0 Z" fill="none" stroke="black" stroke-width="5" /></svg>