<?xml version="1.0" encoding="utf-8" ?>
<svg baseProfile="full" height="219" version="1.1" width="258" xmlns="http://www.w3.org/2000/svg" xmlns:ev="http://www.w3.org/2001/xml-events" xmlns:xlink="http://www.w3.org/1999/xlink"><defs /><rect fill="white" height="219" width="258" x="0" y="0" /><path d="M 28,184 L 25,190 L 28,198 L 39,198 L 41,194 L 41,187 L 37,183 Z" fill="none" stroke="black" stroke-width="5" /><path d="M 215,177 L 212,183 L 213,188 L 218,192 L 223,192 L 227,188 L 227,180 L 222,176 Z" fill="none" stroke="black" stroke-width="5" /><path d="M 139,96 L 131,97 L 128,101 L 128,108 L 133,112 L 139,112 L 143,108 L 143,99 Z" fill="none" stroke="black" stroke-width="5" /><path d="M 224,15 L 220,19 L 220,25 L 224,30 L 233,30 L 236,25 L 235,18 L 231,15 Z" fill="none" stroke="black" stroke-width="5" /><path d="M 0,0 L 0,218 L 257,218 L 257,0 Z" fill="none" stroke="black" stroke-width="5" /></svg>