<?xml version="1.0" encoding="utf-8" ?>
<svg xmlns="http://www.w3.org/2000/svg" xmlns:ev="http://www.w3.org/2001/xml-events" xmlns:xlink="http://www.w3.org/1999/xlink" baseProfile="full" height="216" version="1.1" width="255">
  <defs/>
  <path d="M 127.500000,172.368740 C 122.104713,171.570192 115.852674,167.722365 113.133329,163.526751 C 109.653125,158.157224 108.000000,154.266191 108.000000,151.444207 C 108.000000,150.164812 107.519322,148.820959 106.931826,148.457866 C 106.344331,148.094774 106.096356,147.191283 106.380771,146.450109 C 106.665186,145.708935 106.286496,141.141953 105.539237,136.301260 C 102.889012,119.133287 102.000000,110.281980 102.000000,101.063398 C 102.000000,91.872922 100.582362,80.416768 98.960410,76.500000 C 98.504895,75.400000 97.589160,72.700000 96.925442,70.500000 C 96.261725,68.300000 94.562238,63.125000 93.148804,59.000000 C 85.724653,37.333171 63.588502,32.162393 50.403230,49.015071 C 48.256454,51.758961 45.543222,55.177474 44.373827,56.611767 C 42.368978,59.070765 40.934741,62.908503 38.996665,71.000000 C 38.535589,72.925000 37.672717,76.352209 37.079172,78.616020 C 36.485628,80.879830 36.000000,91.242203 36.000000,101.643513 C 36.000000,116.730995 36.299591,120.982714 37.481623,122.670301 C 38.781623,124.526311 38.783833,124.934513 37.499651,126.000290 C 36.270882,127.020077 35.608661,126.229476 33.372249,121.072743 C 31.907155,117.694520 30.284413,115.071862 29.766156,115.244615 C 29.247899,115.417367 28.635143,120.270500 28.404477,126.029355 C 28.173810,131.788210 27.491794,140.100000 26.888886,144.500000 C 26.285978,148.900000 25.829857,154.576333 25.875283,157.114073 C 25.934428,160.418202 25.429794,162.206054 24.097792,163.411499 C 22.453927,164.899177 22.065337,164.922480 20.754825,163.611968 C 19.583671,162.440814 19.358935,160.065879 19.685767,152.314542 C 19.913371,146.916544 20.527184,140.613231 21.049796,138.307180 C 21.572408,136.001129 22.005341,132.176129 22.011869,129.807180 C 22.018397,127.438231 22.688056,123.025000 23.500000,120.000000 C 24.311944,116.975000 24.981603,114.387500 24.988131,114.250000 C 24.994659,114.112500 24.315353,114.000000 23.478561,114.000000 C 22.641770,114.000000 21.439229,115.136653 20.806247,116.525895 C 19.624658,119.119202 17.363468,119.383678 17.672988,116.892371 C 17.768132,116.126567 18.792647,112.800000 19.949688,109.500000 C 21.106729,106.200000 22.425980,102.150000 22.881357,100.500000 C 23.336734,98.850000 25.101993,93.000000 26.804155,87.500000 C 28.506318,82.000000 30.415581,75.475000 31.046962,73.000000 C 31.678344,70.525000 32.601070,67.718606 33.097464,66.763569 C 33.593859,65.808532 34.000000,64.134491 34.000000,63.043477 C 34.000000,59.715403 39.678629,49.653252 44.213947,44.945045 C 50.162176,38.770067 55.719309,35.214860 62.388869,33.317535 C 67.365693,31.901752 68.792476,31.868937 73.788843,33.055346 C 76.929979,33.801222 80.400000,34.905706 81.500000,35.509754 C 88.216635,39.198093 91.257923,41.598089 92.666225,44.321445 C 93.542444,46.015864 94.875996,48.018853 95.629675,48.772532 C 96.383354,49.526211 97.000000,50.828783 97.000000,51.667137 C 97.000000,52.505490 97.658367,54.385847 98.463037,55.845708 C 100.636971,59.789733 105.092189,74.844930 105.610911,80.000000 C 105.859954,82.475000 106.484465,86.075000 106.998714,88.000000 C 107.512962,89.925000 107.926422,96.094457 107.917515,101.709905 C 107.908607,107.325353 108.393663,113.748236 108.995417,115.982979 C 109.597170,118.217721 109.861244,120.415494 109.582248,120.866919 C 109.303252,121.318345 109.488333,123.220462 109.993539,125.093846 C 110.498746,126.967231 111.345780,132.100000 111.875839,136.500000 C 112.405897,140.900000 113.035229,145.705023 113.274355,147.177828 C 113.891641,150.979776 118.074797,161.000000 119.044715,161.000000 C 119.491550,161.000000 120.469187,161.562500 121.217240,162.250000 C 124.598269,165.357341 127.740400,166.331421 133.849626,166.166117 C 138.459515,166.041382 140.993288,165.428905 143.097292,163.930722 C 148.210965,160.289466 156.000000,147.681816 156.000000,143.045874 C 156.000000,140.034433 156.794652,135.642964 160.079756,120.500000 C 164.949316,98.053353 165.500000,93.024268 165.500000,71.000000 L 165.500000,49.500000 L 167.750000,49.180449 C 169.852262,48.881880 170.000000,49.226603 170.000000,54.430449 C 170.000000,58.576040 170.363189,60.000000 171.420545,60.000000 C 172.220409,60.000000 173.131063,58.579972 173.504749,56.750000 C 174.935249,49.744711 178.202886,39.290741 180.253522,35.159025 C 183.072717,29.478778 189.702269,22.000000 191.918320,22.000000 C 192.879911,22.000000 193.997966,21.662500 194.402887,21.250000 C 196.134084,19.486400 203.769823,18.438665 209.344131,19.199843 C 214.692683,19.930194 218.113195,21.594415 223.270645,25.975672 C 228.413613,30.344625 232.005015,43.293373 228.451956,44.656810 C 226.679017,45.337150 224.079845,42.420613 224.031803,39.696946 C 223.988364,37.234222 220.217966,31.888074 216.059134,28.392287 C 212.928908,25.761114 211.935834,25.500000 205.059134,25.500000 C 198.354372,25.500000 197.012854,25.830332 193.189929,28.422640 C 188.917608,31.319681 185.760858,36.259349 184.493105,42.031392 C 184.137267,43.651512 183.430748,45.233783 182.923063,45.547549 C 182.415379,45.861316 182.000000,47.414919 182.000000,49.000000 C 182.000000,50.585081 181.550000,52.160081 181.000000,52.500000 C 180.450000,52.839919 180.000000,54.386376 180.000000,55.936572 C 180.000000,57.486768 179.329955,59.311199 178.511010,59.990862 C 177.692066,60.670525 177.268624,61.625626 177.570027,62.113307 C 178.644907,63.852499 181.980912,62.958766 183.591957,60.500000 C 185.204421,58.039068 188.000000,57.070803 188.000000,58.973249 C 188.000000,59.508535 187.130635,61.871035 186.068077,64.223249 C 185.005520,66.575462 182.492335,72.775000 180.483222,78.000000 C 178.474109,83.225000 176.244704,88.850000 175.528988,90.500000 C 174.813273,92.150000 173.240497,96.200000 172.033931,99.500000 C 170.827365,102.800000 169.426135,106.281394 168.920087,107.236431 C 168.414039,108.191468 168.000000,110.977411 168.000000,113.427414 C 168.000000,115.877418 167.548783,118.160833 166.997296,118.501671 C 166.342799,118.906173 166.330580,119.749178 166.962112,120.929205 C 167.494248,121.923511 167.693544,122.973122 167.404992,123.261675 C 167.116439,123.550227 165.811944,127.996895 164.506113,133.143158 C 163.200282,138.289421 161.402736,144.975000 160.511566,148.000000 C 159.620396,151.025000 158.638265,154.512500 158.329052,155.750000 C 158.019838,156.987500 157.369305,158.000000 156.883423,158.000000 C 156.397540,158.000000 156.000000,158.755548 156.000000,159.678995 C 156.000000,161.797425 149.749584,167.576943 144.638770,170.184286 C 140.694690,172.196405 132.979524,173.179756 127.500000,172.368740" fill="none" stroke="black" stroke-width="5"/>
</svg>
