<?xml version="1.0" encoding="utf-8" ?>
<svg xmlns="http://www.w3.org/2000/svg" xmlns:ev="http://www.w3.org/2001/xml-events" xmlns:xlink="http://www.w3.org/1999/xlink" baseProfile="full" height="216" version="1.1" width="259">
  <defs/>
  <path d="M 137.500000,164.511618 C 130.383942,163.029127 123.704878,160.766959 115.488047,157.056274 C 112.181473,155.563039 108.918973,154.527009 108.238047,154.753984 C 106.400951,155.366350 106.735591,157.450738 109.000000,159.500000 C 110.100000,160.495486 111.000000,161.915231 111.000000,162.654988 C 111.000000,165.043586 108.402197,164.088838 105.136427,160.500000 C 103.384716,158.575000 101.561195,157.000000 101.084157,157.000000 C 100.607120,157.000000 99.941179,155.901773 99.604288,154.559495 C 98.999940,152.151581 88.678386,141.196965 75.992970,129.500000 C 69.427002,123.445654 68.456307,122.349881 64.033934,116.000000 C 62.693268,114.075000 61.327998,112.275000 61.000000,112.000000 C 57.109784,108.738362 43.769491,81.756942 42.459056,74.500000 C 42.061788,72.300000 41.310455,69.675702 40.789427,68.668227 C 40.268400,67.660752 39.842105,63.343926 39.842105,59.075282 C 39.842105,44.025642 47.498006,35.107559 62.500000,32.681916 C 70.608313,31.370899 99.853993,31.922341 106.853527,33.518224 C 119.950492,36.504311 129.207322,39.527373 136.236431,43.113984 C 137.191468,43.601293 138.551439,44.000000 139.258587,44.000000 C 139.965736,44.000000 142.253218,45.408624 144.341880,47.130276 C 149.421421,51.317263 151.264338,49.754533 147.602383,44.365482 C 144.820024,40.270872 144.402483,38.487320 145.995747,37.502629 C 146.543407,37.164156 147.493113,37.988159 148.106204,39.333747 C 148.719295,40.679335 150.344800,42.381756 151.718438,43.116904 C 153.092076,43.852053 155.596554,46.488992 157.283945,48.976769 C 158.971336,51.464546 161.535565,54.658100 162.982231,56.073556 C 164.428897,57.489012 166.675039,60.189012 167.973658,62.073556 C 169.272277,63.958100 171.595700,66.850000 173.136820,68.500000 C 186.587066,82.900506 192.000000,89.271212 192.000000,90.700859 C 192.000000,91.415386 192.450000,92.000000 193.000000,92.000000 C 193.550000,92.000000 194.000000,92.900000 194.000000,94.000000 C 194.000000,95.100000 194.373959,96.000000 194.831020,96.000000 C 195.726725,96.000000 195.861098,96.252586 201.746869,109.000000 C 206.546210,119.394422 208.000000,125.082320 208.000000,133.465130 C 208.000000,140.198424 206.317238,150.000000 205.161247,150.000000 C 204.791084,150.000000 203.920938,151.237500 203.227590,152.750000 C 201.640558,156.212021 194.736934,161.369788 189.500000,163.006022 C 187.300000,163.693392 184.466326,164.648234 183.202947,165.127893 C 179.760073,166.435026 144.446811,165.958849 137.500000,164.511618" fill="none" stroke="black" stroke-width="5"/>
</svg>
