<?xml version="1.0" encoding="utf-8" ?>
<svg xmlns="http://www.w3.org/2000/svg" xmlns:ev="http://www.w3.org/2001/xml-events" xmlns:xlink="http://www.w3.org/1999/xlink" baseProfile="full" height="221" version="1.1" width="256">
  <defs/>
  <path d="M 158.301710,197.901710 C 156.792104,196.392104 157.967198,192.000000 159.880694,192.000000 C 161.765110,192.000000 169.395348,189.260338 176.000000,186.212311 C 178.475000,185.070106 181.175000,183.881592 182.000000,183.571169 C 186.807124,181.762390 198.343912,174.537847 204.590742,169.424444 C 214.693630,161.154627 216.667494,156.376876 213.609990,147.593296 C 210.569268,138.857926 203.287102,133.661476 191.832949,132.053509 C 188.349827,131.564539 183.700000,130.666988 181.500000,130.058952 C 179.300000,129.450917 174.593560,128.704468 171.041244,128.400177 C 167.488928,128.095887 163.741264,127.396713 162.713103,126.846457 C 161.684942,126.296202 160.203882,126.091522 159.421859,126.391612 C 157.033010,127.308299 157.837460,129.713767 160.750000,130.363022 C 164.385663,131.173473 168.354019,134.635058 167.675251,136.403898 C 167.212178,137.610648 166.526007,137.602764 162.886579,136.348879 C 160.550099,135.543896 156.719474,134.011087 154.374080,132.942637 C 152.028687,131.874187 149.815547,131.000000 149.455993,131.000000 C 149.096439,131.000000 147.384250,130.363696 145.651129,129.585992 C 140.110625,127.099798 121.808593,122.200824 112.000000,120.578467 C 106.775000,119.714244 100.475000,118.530937 98.000000,117.948896 C 87.574684,115.497195 84.267399,114.826269 80.076583,114.312895 C 77.643704,114.014868 74.142517,112.922547 72.296167,111.885514 C 70.449817,110.848481 68.291542,110.000000 67.500000,110.000000 C 64.106592,110.000000 55.000000,103.694605 55.000000,101.345012 C 55.000000,100.605256 54.625815,100.000000 54.168477,100.000000 C 52.869470,100.000000 50.992828,90.651781 52.070655,89.550000 C 52.581795,89.027500 53.000000,87.606209 53.000000,86.391576 C 53.000000,84.994829 55.864152,81.209200 60.792830,76.091576 C 65.078887,71.641209 68.922880,68.000000 69.335037,68.000000 C 69.747193,68.000000 70.627920,67.540853 71.292206,66.979672 C 73.693909,64.950746 84.590649,58.378330 88.500000,56.600716 C 90.700000,55.600358 93.850000,54.090711 95.500000,53.245945 C 97.150000,52.401179 101.499484,50.211759 105.165521,48.380567 C 108.831557,46.549375 114.744286,43.014624 118.304919,40.525564 C 121.865552,38.036504 125.039651,36.000000 125.358472,36.000000 C 125.677293,36.000000 129.384801,33.750000 133.597379,31.000000 C 143.272984,24.683697 146.321186,24.233631 141.971320,29.763590 C 139.025488,33.508608 140.908959,34.573812 146.068717,32.080888 C 148.437535,30.936399 151.326136,30.000000 152.487829,30.000000 C 153.649523,30.000000 155.027500,29.587296 155.550000,29.082880 C 156.378225,28.283320 171.901515,23.837743 179.000000,22.367243 C 180.375000,22.082402 182.400000,21.463790 183.500000,20.992550 C 184.600000,20.521310 188.425000,19.395076 192.000000,18.489808 C 195.575000,17.584540 201.650000,15.952715 205.500000,14.863530 C 217.314258,11.521215 224.956456,10.527811 226.554758,12.126636 C 228.959687,14.532353 226.580490,16.088387 217.393653,18.118149 C 212.502144,19.198891 206.025000,20.909215 203.000000,21.918868 C 199.975000,22.928521 194.800000,24.284330 191.500000,24.931777 C 188.200000,25.579223 184.600000,26.472958 183.500000,26.917855 C 180.183398,28.259259 171.892514,30.784896 165.000000,32.553477 C 161.425000,33.470801 156.592404,35.071538 154.260898,36.110670 C 151.929393,37.149801 149.363066,38.000000 148.557951,38.000000 C 146.092392,38.000000 141.926852,40.280380 142.306456,41.422314 C 142.503493,42.015041 143.888376,42.545731 145.383976,42.601624 C 148.170444,42.705760 150.834014,44.499319 149.774965,45.558369 C 149.072187,46.261146 147.337683,46.594239 140.000000,47.435547 C 131.462755,48.414392 122.597777,50.195174 121.550000,51.141754 C 121.027500,51.613789 119.452500,52.019860 118.050000,52.044133 C 112.319761,52.143306 103.234058,55.778437 90.803446,62.945303 C 89.320341,63.800386 84.820341,66.299666 80.803446,68.499257 C 72.665966,72.955218 59.887366,84.443495 57.999922,89.000188 C 57.325357,90.628732 57.067616,93.133266 57.427164,94.565820 C 58.230785,97.767701 62.632877,102.000000 65.159592,102.000000 C 66.186742,102.000000 67.808532,102.397498 68.763569,102.883329 C 75.543968,106.332541 96.565232,112.000000 102.578363,112.000000 C 104.395345,112.000000 106.113324,112.374345 106.396094,112.831877 C 106.678865,113.289409 110.663966,114.247695 115.251875,114.961401 C 123.609025,116.261459 144.406629,115.928759 160.725344,114.233959 C 168.676514,113.408181 170.000000,113.573329 170.000000,115.391272 C 170.000000,116.064805 168.087500,117.039805 165.750000,117.557939 C 163.057583,118.154744 161.500000,119.049735 161.500000,120.000000 C 161.500000,121.168303 163.435827,121.647507 170.254205,122.167059 C 179.432392,122.866425 192.493842,125.283125 199.827784,127.638923 C 213.534840,132.041882 220.933482,141.149047 220.978038,153.673275 C 220.996503,158.863573 220.590511,160.333200 218.428331,162.902804 C 217.013914,164.583744 216.093810,166.342770 216.383656,166.811751 C 216.673502,167.280732 215.018253,169.331354 212.705324,171.368688 C 207.021751,176.375043 206.800082,176.537111 202.906124,178.533118 C 201.032756,179.493389 199.275000,180.614116 199.000000,181.023623 C 198.559373,181.679769 195.699301,183.409218 189.387005,186.836479 C 188.349152,187.399982 184.800000,188.904798 181.500000,190.180515 C 178.200000,191.456232 175.350000,192.837500 175.166667,193.250000 C 174.983333,193.662500 173.858333,194.006775 172.666667,194.015056 C 170.305252,194.031466 164.727065,195.872722 161.403196,197.732919 C 159.998812,198.518880 158.974619,198.574619 158.301710,197.901710" fill="black" stroke="black" stroke-width="1"/>
</svg>
