<?xml version="1.0" encoding="utf-8" ?>
<svg xmlns="http://www.w3.org/2000/svg" xmlns:ev="http://www.w3.org/2001/xml-events" xmlns:xlink="http://www.w3.org/1999/xlink" baseProfile="full" height="216" version="1.1" width="260">
  <defs/>
  <path d="M 122.000000,188.403103 C 111.712493,187.395190 99.136857,185.731102 96.500000,185.028780 C 94.850000,184.589306 90.800000,183.641657 87.500000,182.922894 C 84.200000,182.204130 80.072143,180.829585 78.326984,179.868349 C 74.373277,177.690640 70.000000,173.938494 70.000000,172.724035 C 70.000000,172.220623 69.161087,170.614274 68.135750,169.154370 C 67.110412,167.694467 65.666554,164.700000 64.927177,162.500000 C 64.187799,160.300000 63.283477,158.050000 62.917571,157.500000 C 62.551666,156.950000 61.957742,154.461133 61.597740,151.969185 C 60.823515,146.609964 63.606127,136.761396 67.663638,130.500000 C 70.772898,125.701909 78.597973,118.000000 80.363533,118.000000 C 81.737160,118.000000 87.000000,112.901115 87.000000,111.570281 C 87.000000,111.119127 85.537500,111.083614 83.750000,111.491365 C 77.873168,112.831942 73.102655,112.828618 71.986032,111.483170 C 70.710075,109.945736 71.317357,109.489227 75.967177,108.490442 C 77.874124,108.080828 80.124124,107.396768 80.967177,106.970309 C 81.810230,106.543850 84.300000,105.707489 86.500000,105.111730 C 88.700000,104.515970 93.386820,103.122111 96.915156,102.014265 C 100.443492,100.906419 103.805795,100.000000 104.386942,100.000000 C 106.012004,100.000000 119.257871,95.960721 121.404422,94.810581 C 122.451854,94.249358 126.031528,92.896365 129.359252,91.803929 C 132.686977,90.711494 137.229987,89.017488 139.454830,88.039473 C 141.679674,87.061457 145.525000,85.674232 148.000000,84.956751 C 150.475000,84.239270 152.927500,83.280486 153.450000,82.826120 C 153.972500,82.371754 155.237946,82.000000 156.262103,82.000000 C 158.153765,82.000000 165.645445,79.880449 172.000000,77.547423 C 173.925000,76.840674 177.300000,75.694370 179.500000,75.000079 C 193.061896,70.720127 205.665266,62.130231 208.564721,55.190858 C 210.658279,50.180269 210.409712,41.184182 208.071768,37.349990 C 206.175989,34.240941 198.157644,28.000000 196.058926,28.000000 C 195.464529,28.000000 193.070607,27.135584 190.739102,26.079076 C 188.407596,25.022568 184.925000,23.943638 183.000000,23.681454 C 181.075000,23.419270 176.800000,22.534444 173.500000,21.715173 C 164.181532,19.401736 132.158064,17.180282 127.847816,18.548301 C 125.207675,19.386250 127.151941,21.766353 130.823180,22.190639 C 132.398415,22.372690 133.500000,23.117291 133.500000,24.000000 C 133.500000,24.928915 132.738553,25.390829 131.500000,25.213255 C 118.469514,23.345042 82.828945,23.159816 73.500000,24.911826 C 69.650000,25.634871 65.600000,26.564138 64.500000,26.976864 C 58.286635,29.308155 49.531368,30.819563 47.753091,29.867858 C 44.357938,28.050827 47.743780,24.861769 55.080548,22.966271 C 68.841835,19.410958 75.629367,17.983540 78.735649,17.991602 C 82.771166,18.002076 88.930518,16.605835 100.500000,13.057922 C 105.450000,11.539949 111.525000,9.734065 114.000000,9.044846 C 116.475000,8.355628 119.533674,7.388585 120.797053,6.895861 C 122.060432,6.403137 124.332932,6.000000 125.847053,6.000000 C 127.361174,6.000000 129.100790,5.499210 129.712868,4.887132 C 130.324945,4.275055 131.351844,4.099417 131.994865,4.496827 C 132.798736,4.993646 132.301999,6.119118 130.404900,8.099263 C 128.887397,9.683194 127.988133,11.321332 128.406535,11.739569 C 128.824937,12.157806 134.417131,12.580826 140.833633,12.679613 C 147.250135,12.778400 156.325000,13.365243 161.000000,13.983709 C 165.675000,14.602176 172.200000,15.346764 175.500000,15.638351 C 178.800000,15.929938 181.927500,16.580594 182.450000,17.084254 C 182.972500,17.587914 184.125477,18.000000 185.012171,18.000000 C 185.898864,18.000000 188.487127,18.900000 190.763864,20.000000 C 193.040602,21.100000 195.487625,22.010006 196.201694,22.022236 C 196.915762,22.034466 198.625000,22.924459 200.000000,24.000000 C 201.375000,25.075541 202.907524,25.965534 203.405609,25.977764 C 205.448204,26.027917 210.925937,31.209488 213.998945,35.998356 C 217.171090,40.941716 217.260610,41.367306 216.736543,49.013287 C 216.318819,55.107760 215.659744,57.671356 213.858273,60.208872 C 210.512741,64.921322 206.469746,69.000000 205.144056,69.000000 C 204.517377,69.000000 202.392475,70.520640 200.422053,72.379199 C 197.916590,74.742424 194.232864,76.592706 188.169733,78.533361 C 183.401380,80.059590 179.050000,81.629585 178.500000,82.022239 C 177.950000,82.414894 173.675000,83.974698 169.000000,85.488472 C 164.325000,87.002245 159.718606,88.636610 158.763569,89.120393 C 157.808532,89.604177 156.147589,90.000000 155.072586,90.000000 C 153.997582,90.000000 152.839919,90.450000 152.500000,91.000000 C 152.160081,91.550000 151.002418,92.000000 149.927414,92.000000 C 148.852411,92.000000 147.191468,92.406141 146.236431,92.902536 C 145.281394,93.398930 142.475000,94.396846 140.000000,95.120126 C 137.525000,95.843406 134.375000,97.009493 133.000000,97.711430 C 131.625000,98.413367 130.118008,98.990451 129.651129,98.993839 C 128.660156,99.001031 122.875833,101.478647 118.320785,103.846999 C 116.572216,104.756149 110.497216,108.869793 104.820785,112.988429 C 91.491566,122.659682 92.203470,122.109391 89.379844,124.924037 C 87.643790,126.654571 86.640162,127.040162 85.871812,126.271812 C 85.103462,125.503462 85.452239,124.307330 87.090909,122.090909 C 90.835055,117.026681 88.137732,116.474279 83.233779,121.300983 C 74.098170,130.292682 71.699517,133.350320 69.883316,138.319234 C 67.504441,144.827558 67.275967,157.154217 69.500000,159.000000 C 70.325000,159.684689 71.000000,160.907858 71.000000,161.718153 C 71.000000,165.645626 79.785527,175.918451 83.190983,175.972942 C 84.121024,175.987824 85.125216,176.393588 85.422523,176.874639 C 85.719829,177.355690 88.333886,178.007401 91.231540,178.322885 C 94.129193,178.638369 98.525000,179.381648 101.000000,179.974617 C 113.690288,183.014994 122.321711,183.495513 160.500000,183.287031 C 181.950000,183.169898 201.075000,182.944898 203.000000,182.787031 C 206.143208,182.529260 206.500000,182.754851 206.500000,185.000000 C 206.500000,187.312396 206.124793,187.511784 201.500000,187.657027 C 186.876708,188.116278 124.999444,188.696972 122.000000,188.403103" fill="black" stroke="black" stroke-width="1"/>
</svg>
