<?xml version="1.0" encoding="utf-8" ?>
<svg xmlns="http://www.w3.org/2000/svg" xmlns:ev="http://www.w3.org/2001/xml-events" xmlns:xlink="http://www.w3.org/1999/xlink" baseProfile="full" height="217" version="1.1" width="257">
  <defs/>
  <path d="M 215.676626,195.599685 C 215.391525,194.856723 215.797652,193.016417 216.579130,191.510115 C 217.360609,190.003814 218.000000,188.367920 218.000000,187.874795 C 218.000000,187.381669 218.869126,185.070607 219.931391,182.739102 C 222.286797,177.569352 224.988321,169.713919 226.031958,165.000000 C 226.458143,163.075000 227.471211,159.025000 228.283220,156.000000 C 229.095229,152.975000 230.343791,146.112500 231.057802,140.750000 C 231.971905,133.884727 232.754539,131.000000 233.703002,131.000000 C 234.443851,131.000000 235.325625,132.378125 235.662500,134.062500 C 235.999375,135.746875 236.608111,136.759375 237.015247,136.312500 C 238.181512,135.032401 241.305479,111.131109 241.155887,104.632702 C 240.967564,96.451811 238.325053,81.553819 235.899826,75.000000 C 233.753277,69.199268 225.939110,52.850995 224.906258,52.000000 C 224.572490,51.725000 223.773765,50.501619 223.131312,49.281375 C 222.488859,48.061132 219.921070,45.865973 217.425114,44.403246 C 213.735738,42.241128 211.539553,41.720948 205.682210,41.621870 C 192.455697,41.398142 185.458322,47.051563 183.761147,59.332655 C 181.547499,75.351041 181.022450,78.844122 180.128530,83.500000 C 178.563158,91.653053 175.725421,101.475260 174.831840,101.833333 C 174.374328,102.016667 173.998318,102.916667 173.996262,103.833333 C 173.994206,104.750000 173.094206,106.973376 171.996262,108.774170 C 170.898318,110.574963 170.000000,112.518884 170.000000,113.093994 C 170.000000,113.978716 166.426026,119.642070 162.541376,124.913003 C 160.641945,127.490267 149.568980,138.440994 144.999201,142.261523 C 131.930215,153.187751 105.699253,162.000000 86.244708,162.000000 C 77.233894,162.000000 73.354181,161.160150 61.499292,156.643303 C 56.204857,154.626064 44.041314,146.638448 39.198403,141.998644 C 30.610309,133.770727 22.000000,120.359553 22.000000,115.210898 C 22.000000,114.214904 21.571359,112.971359 21.047464,112.447464 C 19.431951,110.831951 17.763575,97.016857 18.346351,90.080729 C 18.896471,83.533280 20.042071,76.583262 21.986009,68.000000 C 23.551133,61.089353 25.150837,52.667061 25.214938,51.000000 C 25.293643,48.953113 27.028765,46.899744 28.113307,47.570027 C 28.600988,47.871431 29.000000,49.441476 29.000000,51.059017 C 29.000000,55.612585 32.140337,54.804334 37.000000,49.000000 C 39.302430,46.250000 41.781833,44.000000 42.509785,44.000000 C 43.237737,44.000000 43.983333,43.580727 44.166667,43.068283 C 44.350000,42.555838 47.162148,40.537690 50.415884,38.583510 C 54.863870,35.912068 56.657587,35.300859 57.644871,36.120232 C 59.681766,37.810705 57.727130,40.386058 51.772786,43.857066 C 45.419978,47.560353 42.684232,49.852984 41.111637,52.791404 C 40.461535,54.006132 39.286298,55.000000 38.500000,55.000000 C 36.863143,55.000000 34.595642,58.632059 35.776771,59.362037 C 36.206970,59.627915 40.097975,58.284706 44.423449,56.377128 C 52.013595,53.029798 55.576355,52.406776 55.157834,54.500000 C 55.047867,55.050000 53.203575,56.485378 51.059407,57.689730 C 46.516411,60.241473 39.826848,66.607206 34.970293,73.000000 C 33.090054,75.475000 31.277484,77.725000 30.942358,78.000000 C 28.717997,79.825281 24.002499,91.595771 24.019675,95.279909 C 24.049904,101.763990 26.519152,114.334586 28.504522,118.111638 C 29.484104,119.975237 30.751136,122.400000 31.320148,123.500000 C 31.889160,124.600000 32.894985,126.531269 33.555315,127.791709 C 35.075903,130.694211 40.902730,136.890897 44.564780,139.500000 C 46.108703,140.600000 48.590693,142.512500 50.080312,143.750000 C 51.569932,144.987500 53.305068,146.000000 53.936169,146.000000 C 54.567271,146.000000 56.049663,146.900000 57.230375,148.000000 C 58.411086,149.100000 60.390713,150.000000 61.629544,150.000000 C 62.868376,150.000000 64.160081,150.450000 64.500000,151.000000 C 64.839919,151.550000 66.328976,152.011065 67.809017,152.024588 C 69.289058,152.038112 73.157352,152.938112 76.405226,154.024588 C 82.767195,156.152789 94.154986,156.668753 99.429002,155.067761 C 101.118051,154.555030 104.300000,153.683442 106.500000,153.130900 C 108.700000,152.578358 112.673323,151.579353 115.329606,150.910890 C 119.765920,149.794475 134.834316,142.619804 136.000000,141.068882 C 136.275000,140.702999 138.075000,139.306670 140.000000,137.965929 C 151.413711,130.016402 159.463754,120.722474 165.955334,108.000000 C 167.218191,105.525000 168.678287,102.665087 169.199992,101.644639 C 171.272659,97.590526 174.707267,79.934834 175.939503,67.000000 C 177.388252,51.792432 178.430118,48.551026 183.492974,43.500000 C 195.409436,31.611382 214.818971,31.906747 226.859875,44.159938 C 231.631532,49.015721 238.000000,59.156364 238.000000,61.898589 C 238.000000,62.883879 238.900000,64.504514 240.000000,65.500000 C 241.100000,66.495486 242.000000,68.119057 242.000000,69.107935 C 242.000000,70.096812 242.413390,71.939568 242.918645,73.202947 C 245.484514,79.618850 245.202076,77.995674 247.030848,96.835870 C 247.910898,105.902232 247.932971,109.467029 247.114130,110.285870 C 246.501359,110.898641 246.000000,114.370000 246.000000,118.000000 C 246.000000,121.630000 245.575949,125.027500 245.057664,125.550000 C 243.998385,126.617894 243.325440,137.658774 244.262516,138.595849 C 245.308849,139.642182 246.978382,137.987501 248.464125,134.431619 C 249.252727,132.544229 250.385032,131.000000 250.980358,131.000000 C 253.392330,131.000000 252.964015,134.208966 249.572186,141.550136 C 247.607483,145.802476 246.000000,149.855789 246.000000,150.557498 C 246.000000,151.259208 245.660528,151.983333 245.245617,152.166667 C 244.830707,152.350000 242.983427,155.650000 241.140550,159.500000 C 235.603763,171.067043 234.070977,173.792785 227.150549,184.378305 C 224.317747,188.711373 222.000000,192.637317 222.000000,193.102625 C 222.000000,193.567933 220.693873,194.624064 219.097496,195.449583 C 216.698028,196.690396 216.105154,196.716411 215.676626,195.599685" fill="none" stroke="black" stroke-width="5"/>
</svg>
