<?xml version="1.0" encoding="utf-8" ?>
<svg xmlns="http://www.w3.org/2000/svg" xmlns:ev="http://www.w3.org/2001/xml-events" xmlns:xlink="http://www.w3.org/1999/xlink" baseProfile="full" height="220" version="1.1" width="256">
  <defs/>
  <path d="M 197.854308,177.128368 C 192.075535,172.777612 185.384982,168.216727 182.986412,166.993068 C 180.587843,165.769409 178.002524,164.145381 177.241260,163.384117 C 176.479995,162.622853 175.471429,162.000000 175.000000,162.000000 C 174.528571,162.000000 173.542436,161.399579 172.808588,160.665731 C 172.074741,159.931884 166.980098,157.020837 161.487160,154.196738 C 152.237243,149.441054 137.081838,140.440504 134.309985,138.056653 C 133.655476,137.493762 131.405476,136.070398 129.309985,134.893622 C 125.979030,133.023040 109.355747,121.409859 108.000000,120.006267 C 107.725000,119.721562 105.802189,118.222916 103.727086,116.675942 C 101.651983,115.128968 98.951983,112.868104 97.727086,111.651799 C 96.502189,110.435494 94.558243,108.778760 93.407206,107.970168 C 83.916812,101.303258 59.676795,78.603082 48.742286,66.142575 C 47.225543,64.414159 45.538043,63.000000 44.992286,63.000000 C 43.641281,63.000000 43.732733,67.332733 45.112868,68.712868 C 45.724945,69.324945 45.923387,70.314945 45.553851,70.912868 C 44.597342,72.460531 42.000000,72.260773 42.000000,70.639547 C 42.000000,69.891298 40.807110,67.528798 39.349133,65.389547 C 37.891155,63.250296 35.525247,59.247671 34.091557,56.494825 C 32.657868,53.741978 30.363258,49.920774 28.992425,48.003259 C 25.964135,43.767305 20.000000,33.963264 20.000000,33.221217 C 20.000000,32.619813 12.455012,22.567741 9.750000,19.565299 C 7.828250,17.432242 7.710377,16.918319 8.606989,14.581787 C 9.850492,11.341269 13.759324,12.789097 17.160500,17.750000 C 18.951620,20.362500 21.223238,23.372353 22.208541,24.438561 C 23.193843,25.504770 24.004792,26.854770 24.010648,27.438561 C 24.022864,28.656232 27.744844,32.278749 36.968411,40.050051 C 40.526037,43.047523 44.126037,46.229808 44.968411,47.121796 C 45.810785,48.013784 49.762500,51.326972 53.750000,54.484435 C 57.737500,57.641898 61.000000,60.664144 61.000000,61.200537 C 61.000000,61.784305 59.394310,61.904516 57.000000,61.500000 C 54.800000,61.128312 53.000000,61.227014 53.000000,61.719337 C 53.000000,62.888307 80.698180,91.000000 81.849955,91.000000 C 82.334792,91.000000 85.307348,93.475000 88.455636,96.500000 C 91.603924,99.525000 94.476842,102.003903 94.839898,102.008674 C 95.202954,102.013444 97.075000,103.492313 99.000000,105.295049 C 100.925000,107.097785 104.075000,109.666571 106.000000,111.003463 C 107.925000,112.340354 110.097589,114.014432 110.827977,114.723636 C 111.558364,115.432839 113.133364,116.530109 114.327977,117.162014 C 115.522589,117.793918 118.346346,119.815972 120.602992,121.655466 C 122.859637,123.494960 125.184637,125.000000 125.769659,125.000000 C 126.354680,125.000000 126.983333,125.382743 127.166667,125.850539 C 127.547048,126.821128 134.399079,131.296940 140.908813,134.827041 C 143.333661,136.141989 145.808661,137.625176 146.408813,138.123012 C 151.221478,142.115197 171.587901,153.000000 174.244966,153.000000 C 175.145316,153.000000 176.134985,153.409394 176.444231,153.909763 C 176.753476,154.410133 180.267534,155.351182 184.253248,156.000982 C 197.852615,158.218119 214.822394,162.426767 216.362868,163.964438 C 217.834238,165.433131 215.982920,167.065888 213.174870,166.776072 C 211.341176,166.586817 210.500000,166.971710 210.500000,168.000000 C 210.500000,168.825000 211.400000,169.549758 212.500000,169.610573 C 213.600000,169.671387 216.173047,170.458887 218.217881,171.360573 C 220.262716,172.262258 222.512716,173.006775 223.217881,173.015056 C 225.616151,173.043220 232.101990,175.673418 233.690639,177.262068 C 234.601372,178.172800 234.998218,179.562260 234.625221,180.534274 C 234.089874,181.929366 233.151569,182.109095 229.238477,181.566084 C 224.809702,180.951512 215.711363,178.011915 211.763569,175.920087 C 206.984615,173.387851 204.383191,176.650083 208.060242,180.564125 C 209.611883,182.215771 210.042236,183.357764 209.367340,184.032660 C 208.692443,184.707557 204.901850,182.434362 197.854308,177.128368" fill="none" stroke="black" stroke-width="5"/>
</svg>
