<?xml version="1.0" encoding="utf-8" ?>
<svg xmlns="http://www.w3.org/2000/svg" xmlns:ev="http://www.w3.org/2001/xml-events" xmlns:xlink="http://www.w3.org/1999/xlink" baseProfile="full" height="217" version="1.1" width="255">
  <defs/>
  <path d="M 71.500000,206.309749 C 66.339050,205.637816 57.189992,201.923931 52.892306,198.756312 C 49.142987,195.992869 43.398736,188.151612 39.758656,180.828072 C 36.748227,174.771336 36.614390,173.981888 36.637310,162.416669 C 36.658695,151.626365 36.985678,149.379174 39.692967,141.416669 C 41.360407,136.512501 43.285705,130.475000 43.971407,128.000000 C 46.129219,120.211502 58.145769,96.867846 62.684023,91.648396 C 63.802328,90.362232 65.861398,87.626231 67.259736,85.568393 C 68.658073,83.510555 70.727830,81.178509 71.859197,80.386069 C 73.030061,79.565964 73.672782,78.310859 73.351125,77.472634 C 72.710755,75.803856 69.436418,75.484844 68.500000,77.000000 C 67.739339,78.230776 63.000000,78.336286 63.000000,77.122445 C 63.000000,75.800679 64.855934,74.524505 72.000000,70.933879 C 75.575000,69.137075 78.725000,67.384066 79.000000,67.038303 C 79.275000,66.692540 82.425000,64.900767 86.000000,63.056585 C 96.817411,57.476370 100.318680,55.553158 104.500000,52.894723 C 109.247682,49.876201 115.079546,46.804633 120.250000,44.599400 C 122.312500,43.719730 125.462500,42.355785 127.250000,41.568411 C 132.180309,39.396663 142.787179,36.259523 149.500000,34.987640 C 152.800000,34.362386 157.090185,33.394472 159.033744,32.836719 C 160.977303,32.278966 167.978991,31.975033 174.593050,32.161312 C 186.220858,32.488798 186.881258,32.628443 194.559307,36.383309 C 198.926688,38.519129 203.995287,41.817434 205.822860,43.712874 C 216.749601,55.045384 220.666577,73.156576 216.590511,93.500000 C 214.984219,101.516919 211.037570,115.061687 210.034505,116.000000 C 209.473446,116.524840 207.537395,121.256192 205.635646,126.750000 C 205.016881,128.537500 204.170730,130.000000 203.755310,130.000000 C 203.339889,130.000000 203.000000,130.900000 203.000000,132.000000 C 203.000000,133.100000 202.604594,134.000000 202.121320,134.000000 C 201.638047,134.000000 200.683452,135.350000 200.000000,137.000000 C 199.316548,138.650000 198.434185,140.000000 198.039195,140.000000 C 197.644204,140.000000 196.824697,141.089333 196.218067,142.420739 C 194.878637,145.360468 184.578163,161.250733 182.785000,163.143572 C 182.078250,163.889607 180.312838,166.075000 178.861863,168.000000 C 177.410887,169.925000 175.048937,172.850000 173.613084,174.500000 C 172.177231,176.150000 171.001893,177.954598 171.001221,178.510218 C 170.999659,179.802400 166.208197,185.000000 165.018548,185.000000 C 163.204755,185.000000 162.924247,182.946239 164.442067,180.779248 C 166.460943,177.896899 166.408252,177.000000 164.220045,177.000000 C 163.241070,177.000000 160.954511,178.575000 159.138802,180.500000 C 157.323093,182.425000 155.199073,184.000000 154.418756,184.000000 C 153.638440,184.000000 153.000000,184.420872 153.000000,184.935272 C 153.000000,185.449672 151.425000,186.440071 149.500000,187.136160 C 147.575000,187.832250 146.000000,188.726479 146.000000,189.123336 C 146.000000,189.520194 144.312500,190.383268 142.250000,191.041278 C 140.187500,191.699288 134.900000,193.903992 130.500000,195.940619 C 113.068146,204.009301 87.859449,208.439678 71.500000,206.309749" fill="none" stroke="black" stroke-width="5"/>
</svg>
