<?xml version="1.0" encoding="utf-8" ?>
<svg xmlns="http://www.w3.org/2000/svg" xmlns:ev="http://www.w3.org/2001/xml-events" xmlns:xlink="http://www.w3.org/1999/xlink" baseProfile="full" height="216" version="1.1" width="259">
  <defs/>
  <path d="M 89.000000,185.004595 C 87.625000,184.514753 83.800000,183.340438 80.500000,182.395005 C 66.877957,178.492363 57.000000,161.943029 57.000000,143.023569 C 57.000000,133.021335 59.984211,111.323487 62.023265,106.500000 C 62.488273,105.400000 63.850677,101.575000 65.050829,98.000000 C 66.250981,94.425000 67.630516,91.072500 68.116462,90.550000 C 68.602408,90.027500 69.000000,89.022169 69.000000,88.315930 C 69.000000,87.609692 70.248430,84.437192 71.774288,81.265930 C 73.300147,78.094669 75.160421,73.475000 75.908230,71.000000 C 76.656040,68.525000 78.062825,64.025000 79.034421,61.000000 C 81.477529,53.393539 82.374865,49.838845 82.442319,47.500000 C 82.528248,44.520531 85.194453,45.083360 86.269288,48.307864 C 86.979493,50.438479 86.830897,51.529375 85.653211,52.830703 C 84.561674,54.036839 84.392991,54.983958 85.084690,56.022839 C 85.914887,57.269734 86.335682,57.142743 87.784100,55.208193 C 88.727845,53.947699 90.850000,51.175780 92.500000,49.048372 C 94.150000,46.920964 97.750000,42.225070 100.500000,38.613054 C 105.475015,32.078567 108.470434,30.456398 109.690532,33.635923 C 110.035801,34.535680 109.793814,35.998180 109.152782,36.885923 C 108.511751,37.773665 107.685458,39.175000 107.316577,40.000000 C 106.947695,40.825000 106.361975,41.725000 106.014977,42.000000 C 105.667979,42.275000 104.639402,43.588718 103.729250,44.919374 C 102.819099,46.250030 100.164240,49.343017 97.829563,51.792679 C 95.494886,54.242340 93.003139,57.367560 92.292348,58.737611 C 89.717243,63.701130 91.483260,67.682606 94.891754,64.597961 C 96.994139,62.695329 100.004902,62.489760 99.987991,64.250000 C 99.981386,64.937500 94.806386,70.809519 88.487991,77.298932 C 82.169596,83.788344 77.000000,89.750844 77.000000,90.548932 C 77.000000,91.347019 76.528277,92.000000 75.951726,92.000000 C 75.375175,92.000000 74.361060,93.237500 73.698135,94.750000 C 73.035211,96.262500 71.739847,98.625000 70.819548,100.000000 C 69.899250,101.375000 68.706814,104.750000 68.169691,107.500000 C 67.632569,110.250000 66.513236,114.967895 65.682286,117.984211 C 64.851335,121.000527 64.384444,123.813027 64.644750,124.234211 C 64.905056,124.655395 64.807393,125.502628 64.427720,126.116952 C 63.508573,127.604163 63.578479,148.868796 64.528511,156.776419 C 65.177370,162.177210 65.820900,163.624437 69.141284,167.150015 C 71.263578,169.403463 73.000000,171.604873 73.000000,172.042037 C 73.000000,173.409733 80.052834,177.269186 84.371136,178.264552 C 93.165010,180.291536 100.011306,180.230439 109.347325,178.041663 C 114.381296,176.861478 119.400000,175.500653 120.500000,175.017608 C 121.600000,174.534563 124.300000,173.624010 126.500000,172.994157 C 131.187541,171.652129 132.763425,170.966159 148.000000,163.635369 C 159.960191,157.880950 175.511524,146.967955 182.250000,139.600769 C 184.312500,137.345834 186.000000,135.228898 186.000000,134.896467 C 186.000000,134.564035 187.125000,133.078150 188.500000,131.594501 C 189.875000,130.110851 191.000000,128.421357 191.000000,127.840070 C 191.000000,126.845099 190.330086,126.921395 184.250000,128.608815 C 180.851925,129.551891 181.525003,127.849979 186.380086,123.222789 C 192.014418,117.852926 205.000000,100.745792 205.000000,98.693017 C 205.000000,97.826776 205.450000,96.839919 206.000000,96.500000 C 206.550000,96.160081 207.000000,95.228619 207.000000,94.430085 C 207.000000,93.631550 207.859809,91.070607 208.910686,88.739102 C 214.879209,75.497167 221.000000,51.180536 221.000000,40.710765 C 221.000000,37.641862 222.436944,35.000000 224.106162,35.000000 C 224.494551,35.000000 225.119058,37.230222 225.493955,39.956048 C 226.827544,49.652400 218.426053,85.859933 210.571053,104.268618 C 209.173237,107.544486 208.061720,111.463547 205.967536,120.500000 C 205.330227,123.250000 204.452328,126.625000 204.016647,128.000000 C 203.580967,129.375000 202.705925,132.412500 202.072109,134.750000 C 200.588112,140.222951 198.046951,140.526377 197.884650,135.250000 C 197.702226,129.319404 197.567677,128.694902 196.386932,128.298398 C 195.774744,128.092821 194.716830,129.404081 194.036011,131.212311 C 192.040098,136.513381 190.797258,138.840495 188.840054,140.941307 C 187.828024,142.027593 187.000000,143.333435 187.000000,143.843177 C 187.000000,144.352919 185.987500,145.438863 184.750000,146.256387 C 183.512500,147.073911 180.475200,149.600665 178.000444,151.871397 C 175.525688,154.142129 172.938188,156.000000 172.250444,156.000000 C 171.562700,156.000000 171.000000,156.419676 171.000000,156.932612 C 171.000000,157.445549 170.102664,158.150028 169.005920,158.498121 C 167.909176,158.846214 166.446676,159.695797 165.755920,160.386084 C 165.065164,161.076370 160.675000,163.633585 156.000000,166.068784 C 151.325000,168.503982 147.275000,170.722223 147.000000,170.998208 C 146.257040,171.743831 140.838871,173.807839 128.000000,178.236106 C 111.100119,184.065059 94.466144,186.951903 89.000000,185.004595" fill="none" stroke="black" stroke-width="5"/>
</svg>
