<?xml version="1.0" encoding="utf-8" ?>
<svg xmlns="http://www.w3.org/2000/svg" xmlns:ev="http://www.w3.org/2001/xml-events" xmlns:xlink="http://www.w3.org/1999/xlink" baseProfile="full" height="222" version="1.1" width="259">
  <defs/>
  <path d="M 206.666667,112.333333 C 206.300000,111.966667 206.000000,109.491667 206.000000,106.833333 L 206.000000,102.000000 L 202.191130,102.000000 C 197.956081,102.000000 194.308231,99.928323 195.408510,98.148034 C 195.820807,97.480923 197.156256,97.252098 198.568571,97.606566 C 200.086575,97.987561 201.987388,97.583059 203.578711,96.540384 C 205.633418,95.194088 206.109410,94.129138 205.974533,91.180147 C 205.720515,85.626215 205.873155,85.000000 207.480948,85.000000 C 209.317132,85.000000 210.429682,89.101591 209.650397,92.998017 C 208.922108,96.639461 209.539421,97.015960 217.238447,97.625960 C 220.655661,97.896708 223.585554,98.252220 223.749320,98.415987 C 223.913087,98.579753 223.741843,99.509171 223.368779,100.481360 C 222.787955,101.994964 221.775289,102.175513 216.321826,101.737761 L 209.953171,101.226546 L 210.494825,105.738833 C 211.132340,111.049691 209.020663,114.687329 206.666667,112.333333" fill="none" stroke="black" stroke-width="5"/>
  <path d="M 139.972456,81.189797 C 138.275090,80.367738 135.561910,77.770158 133.943168,75.417397 C 126.870750,65.137991 133.271828,50.625403 145.485387,49.248757 C 148.036651,48.961193 151.104618,49.228121 152.310082,49.842540 C 153.514537,50.456444 155.756365,51.414049 157.291922,51.970552 C 161.570529,53.521167 166.848386,65.739601 164.000000,67.500000 C 163.450000,67.839919 163.000000,69.307081 163.000000,70.760361 C 163.000000,72.599944 161.617510,74.708630 158.449376,77.701344 C 155.946533,80.065605 153.359033,82.072889 152.699376,82.161975 C 147.672565,82.840845 142.577961,82.451681 139.972456,81.189797" fill="none" stroke="black" stroke-width="5"/>
  <path d="M 225.682526,65.354155 C 225.380273,65.112645 195.055597,64.062117 187.000000,64.014090 C 176.761821,63.953049 175.943398,63.302766 179.046111,57.694266 C 180.395750,55.254643 182.286000,52.187905 183.246668,50.879294 C 184.207335,49.570682 186.440717,46.250000 188.209740,43.500000 C 189.978763,40.750000 191.681652,38.275000 191.993939,38.000000 C 192.306225,37.725000 194.558953,34.125000 197.000000,30.000000 C 199.441047,25.875000 201.677158,22.275000 201.969134,22.000000 C 202.261110,21.725000 203.602562,19.475000 204.950138,17.000000 C 206.297713,14.525000 208.210213,11.627647 209.200138,10.561439 C 210.190062,9.495230 211.000000,8.257730 211.000000,7.811439 C 211.000000,7.365147 211.900000,7.000000 213.000000,7.000000 C 214.100000,7.000000 215.000000,7.427441 215.000000,7.949868 C 215.000000,8.472295 216.350000,10.900056 218.000000,13.344893 C 219.650000,15.789729 221.000000,18.217522 221.000000,18.739988 C 221.000000,19.262455 222.800000,22.474877 225.000000,25.878705 C 227.200000,29.282533 229.000000,32.464799 229.000000,32.950408 C 229.000000,33.436017 229.337500,33.983333 229.750000,34.166667 C 230.410612,34.460272 237.628064,47.655016 240.457708,53.742198 C 241.030969,54.975407 241.837500,55.987907 242.250000,55.992198 C 242.662500,55.996489 243.000000,56.873442 243.000000,57.940983 C 243.000000,59.008524 243.450000,60.160081 244.000000,60.500000 C 244.550000,60.839919 245.000000,62.245974 245.000000,63.624566 L 245.000000,66.131099 L 235.432526,65.815550 C 230.170416,65.641997 225.782916,65.434370 225.682526,65.354155" fill="none" stroke="black" stroke-width="5"/>
</svg>
