<?xml version="1.0" encoding="utf-8" ?>
<svg xmlns="http://www.w3.org/2000/svg" xmlns:ev="http://www.w3.org/2001/xml-events" xmlns:xlink="http://www.w3.org/1999/xlink" baseProfile="full" height="223" version="1.1" width="258">
  <defs/>
  <path d="M 196.606989,194.418213 C 196.273145,193.548229 196.000000,191.073229 196.000000,188.918213 C 196.000000,185.875197 195.609109,184.987131 194.250000,184.942384 C 188.665481,184.758522 184.557157,183.905749 183.844399,182.782472 C 182.438719,180.567180 182.903123,180.004015 186.250000,179.865291 C 188.037500,179.791201 190.850000,179.678701 192.500000,179.615291 L 195.500000,179.500000 L 195.800758,172.527647 C 196.104283,165.491174 197.327044,163.196606 199.716462,165.179647 C 200.536869,165.860525 201.000000,168.763705 201.000000,173.225625 L 201.000000,180.206360 L 208.750000,179.853180 C 216.444181,179.502544 216.500000,179.518006 216.500000,182.000000 C 216.500000,184.417854 216.309781,184.488848 210.710931,184.160589 C 203.384864,183.731065 199.487646,185.822483 200.452267,189.665840 C 201.649835,194.437332 198.234214,198.658693 196.606989,194.418213" fill="none" stroke="black" stroke-width="5"/>
  <path d="M 32.253457,145.000000 C 16.415711,144.639263 9.869097,144.140455 8.749031,143.209120 C 7.382796,142.073096 7.964519,140.793546 13.598280,132.542773 C 17.119226,127.386266 20.000000,122.717162 20.000000,122.166986 C 20.000000,121.616810 20.368713,121.016667 20.819361,120.833333 C 21.710916,120.470630 30.000000,108.469009 30.000000,107.540845 C 30.000000,106.462570 34.501500,100.024733 35.264096,100.012379 C 36.438499,99.993353 41.937570,106.337818 41.970687,107.750000 C 41.986809,108.437500 42.359600,109.000000 42.799112,109.000000 C 43.238623,109.000000 44.136081,110.487419 44.793462,112.305375 C 45.450843,114.123330 46.783243,116.485830 47.754351,117.555375 C 48.725458,118.624919 50.639728,121.637500 52.008283,124.250000 C 53.376839,126.862500 54.834838,129.000000 55.248283,129.000000 C 55.661727,129.000000 56.000000,129.406770 56.000000,129.903934 C 56.000000,130.401097 57.575000,133.594327 59.500000,137.000000 C 64.144097,145.216247 64.062302,146.011898 58.602706,145.728365 C 56.184194,145.602764 44.327032,145.275000 32.253457,145.000000" fill="none" stroke="black" stroke-width="5"/>
  <path d="M 198.577237,64.986074 C 194.748355,62.539311 189.996017,55.386780 190.015056,52.099519 C 190.035300,48.604328 192.139102,42.773338 194.527303,39.593177 C 197.987205,34.985924 208.774725,31.208446 210.500000,34.000000 C 210.839919,34.550000 212.103976,35.014971 213.309017,35.033269 C 218.160411,35.106936 223.990322,43.068319 223.996262,49.627876 C 224.002698,56.734571 220.434091,62.723891 214.315741,65.875037 C 210.895635,67.636501 201.932589,67.130239 198.577237,64.986074" fill="none" stroke="black" stroke-width="5"/>
</svg>
