<?xml version="1.0" encoding="utf-8" ?>
<svg xmlns="http://www.w3.org/2000/svg" xmlns:ev="http://www.w3.org/2001/xml-events" xmlns:xlink="http://www.w3.org/1999/xlink" baseProfile="full" height="218" version="1.1" width="261">
  <defs/>
  <path d="M 136.209393,141.592670 C 130.098483,140.296234 126.772609,136.885047 124.608474,129.694171 C 123.434305,125.792703 123.492670,124.730511 125.116238,120.453382 C 127.209728,114.938290 128.043655,113.981725 133.280416,111.088569 C 139.336899,107.742540 148.311294,108.850083 152.251948,113.429872 C 156.820665,118.739590 158.336965,127.540165 155.589276,132.799660 C 153.810695,136.204137 149.118107,140.567320 146.500000,141.250899 C 145.400000,141.538106 143.825000,141.985040 143.000000,142.244086 C 142.175000,142.503132 139.119227,142.209995 136.209393,141.592670" fill="none" stroke="black" stroke-width="5"/>
  <path d="M 39.000000,117.431097 C 39.000000,116.568201 43.326988,107.455701 48.615530,97.181097 C 60.551598,73.991647 62.247771,71.007723 63.500000,70.996207 C 64.808534,70.984172 71.000000,78.132864 71.000000,79.655738 C 71.000000,80.303415 71.353755,80.983333 71.786122,81.166667 C 72.989758,81.677035 77.000000,87.660632 77.000000,88.946184 C 77.000000,89.571778 77.939187,91.077311 79.087082,92.291813 C 80.234977,93.506316 82.096558,96.300000 83.223928,98.500000 C 84.351298,100.700000 86.562111,104.381079 88.136846,106.680175 C 91.423791,111.479081 91.960261,115.984370 89.250000,116.028485 C 88.287500,116.044152 79.175000,116.706334 69.000000,117.500000 C 44.047404,119.446343 39.000000,119.434750 39.000000,117.431097" fill="none" stroke="black" stroke-width="5"/>
  <path d="M 139.535513,41.823907 C 139.283372,41.095758 138.947233,38.956362 138.788537,37.069694 C 138.501931,33.662348 138.463527,33.637254 133.050765,33.320459 C 130.053686,33.145048 127.190395,32.590395 126.687897,32.087897 C 124.921372,30.321372 127.167384,29.000000 131.936572,29.000000 C 137.764342,29.000000 139.175205,27.596253 138.852048,22.119407 C 138.720130,19.883691 138.913579,17.753088 139.281933,17.384733 C 140.731752,15.934914 143.000000,19.399264 143.000000,23.063428 C 143.000000,27.590363 143.897163,28.298376 150.500000,28.982185 C 154.047638,29.349589 155.500000,29.935709 155.500000,31.000000 C 155.500000,32.090237 154.141059,32.585767 150.525391,32.813964 C 144.260485,33.209364 142.877331,34.354451 143.224622,38.858133 C 143.435666,41.594970 143.090460,42.513188 141.746976,42.788533 C 140.782813,42.986137 139.787654,42.552055 139.535513,41.823907" fill="none" stroke="black" stroke-width="5"/>
</svg>
