<?xml version="1.0" encoding="utf-8" ?>
<svg xmlns="http://www.w3.org/2000/svg" xmlns:ev="http://www.w3.org/2001/xml-events" xmlns:xlink="http://www.w3.org/1999/xlink" baseProfile="full" height="219" version="1.1" width="261">
  <defs/>
  <path d="M 55.250000,169.337719 C 54.449216,169.014596 54.000000,166.723465 54.000000,162.962357 L 54.000000,157.091380 L 47.250000,156.795690 C 41.265230,156.533522 40.500000,156.273265 40.500000,154.500000 C 40.500000,152.756410 41.333333,152.435897 47.000000,152.000000 L 53.500000,151.500000 L 53.814212,146.519332 C 54.334887,138.265952 58.536119,138.022375 59.618638,146.182805 C 60.279623,151.165553 62.565774,153.472691 65.671859,152.291595 C 67.390573,151.638051 71.000000,153.835346 71.000000,155.535184 C 71.000000,156.644052 69.663509,157.000000 65.500000,157.000000 L 60.000000,157.000000 L 60.000000,161.928571 C 60.000000,165.075758 59.432022,167.425121 58.428571,168.428571 C 57.564286,169.292857 56.776786,169.964474 56.678571,169.921053 C 56.580357,169.877632 55.937500,169.615132 55.250000,169.337719" fill="none" stroke="black" stroke-width="5"/>
  <path d="M 188.556949,120.953106 C 182.845165,118.103477 180.633456,115.666607 179.126385,110.562473 C 178.054556,106.932412 178.028734,105.048689 178.995561,101.018505 C 180.581741,94.406563 184.236074,90.658229 191.252190,88.446593 C 196.751178,86.713190 197.046034,86.717010 201.166396,88.575034 C 210.159390,92.630309 213.420153,98.041880 212.491577,107.370330 C 211.970044,112.609633 208.100291,119.000000 205.449109,119.000000 C 204.652099,119.000000 204.000000,119.377768 204.000000,119.839485 C 204.000000,121.189788 199.178111,123.003386 195.702947,122.960154 C 193.941326,122.938239 190.725627,122.035067 188.556949,120.953106" fill="none" stroke="black" stroke-width="5"/>
  <path d="M 142.569719,62.236386 C 142.410635,62.077302 133.366562,61.748229 122.471779,61.505112 C 111.576995,61.261995 102.256130,60.656130 101.758744,60.158744 C 100.493935,58.893935 102.543456,51.832419 104.996146,49.004443 C 106.098266,47.733689 107.000000,46.344978 107.000000,45.918419 C 107.000000,45.491860 107.562500,44.530813 108.250000,43.782760 C 108.937500,43.034706 109.992243,41.540063 110.593872,40.461331 C 113.530944,35.195113 114.583019,33.485483 115.534556,32.432684 C 116.103561,31.803125 118.803561,27.854037 121.534556,23.656932 C 124.578547,18.978799 127.177189,16.020834 128.250000,16.012916 C 129.212500,16.005812 130.000000,16.566754 130.000000,17.259453 C 130.000000,17.952152 130.900000,19.080966 132.000000,19.767927 C 133.100000,20.454888 134.000000,21.633034 134.000000,22.386029 C 134.000000,23.139024 134.645202,24.290580 135.433781,24.945043 C 136.222361,25.599506 138.300666,28.917106 140.052237,32.317488 C 141.803808,35.717870 143.858606,39.210433 144.618456,40.078741 C 145.378305,40.947048 146.000000,42.114804 146.000000,42.673753 C 146.000000,43.232703 146.900000,44.504514 148.000000,45.500000 C 149.100000,46.495486 150.000000,47.860131 150.000000,48.532543 C 150.000000,49.204955 150.663092,50.305428 151.473538,50.978038 C 153.496672,52.657090 154.515750,58.673633 153.071724,60.413578 C 152.090543,61.595828 143.432003,63.098670 142.569719,62.236386" fill="none" stroke="black" stroke-width="5"/>
</svg>
