<?xml version="1.0" encoding="utf-8" ?>
<svg baseProfile="full" height="213" version="1.1" width="255" xmlns="http://www.w3.org/2000/svg" xmlns:ev="http://www.w3.org/2001/xml-events" xmlns:xlink="http://www.w3.org/1999/xlink"><defs /><rect fill="white" height="213" width="255" x="0" y="0" /><path d="M 40,148 L 41,166 L 61,165 L 60,148 Z" fill="none" stroke="black" stroke-width="1" /><path d="M 36,141 L 67,144 L 64,173 L 34,170 Z" fill="black" stroke="black" stroke-width="1" /><path d="M 129,131 L 131,170 L 169,168 Z" fill="none" stroke="black" stroke-width="1" /><path d="M 123,117 L 185,173 L 124,176 Z" fill="black" stroke="black" stroke-width="1" /><path d="M 40,44 L 41,80 L 74,80 Z" fill="none" stroke="black" stroke-width="1" /><path d="M 128,35 L 129,79 L 175,78 L 172,34 Z" fill="none" stroke="black" stroke-width="1" /><path d="M 36,30 L 87,86 L 36,86 Z" fill="black" stroke="black" stroke-width="1" /><path d="M 121,29 L 178,28 L 181,84 L 123,85 Z" fill="none" stroke="black" stroke-width="1" /><path d="M 0,0 L 0,212 L 254,212 L 254,0 Z" fill="none" stroke="black" stroke-width="1" /></svg>