<?xml version="1.0" encoding="utf-8" ?>
<svg baseProfile="full" height="218" version="1.1" width="254" xmlns="http://www.w3.org/2000/svg" xmlns:ev="http://www.w3.org/2001/xml-events" xmlns:xlink="http://www.w3.org/1999/xlink"><defs /><rect fill="white" height="218" width="254" x="0" y="0" /><path d="M 33,133 L 32,179 L 78,180 L 79,134 Z" fill="none" stroke="black" stroke-width="1" /><path d="M 174,133 L 126,134 L 128,181 L 175,178 Z" fill="none" stroke="black" stroke-width="1" /><path d="M 28,127 L 86,132 L 83,186 L 26,183 Z" fill="none" stroke="black" stroke-width="1" /><path d="M 179,127 L 182,185 L 122,188 L 121,128 Z" fill="none" stroke="black" stroke-width="1" /><path d="M 192,42 L 193,60 L 213,59 L 211,41 Z" fill="none" stroke="black" stroke-width="1" /><path d="M 219,35 L 217,66 L 185,65 L 189,35 Z" fill="black" stroke="black" stroke-width="1" /><path d="M 75,30 L 19,80 L 74,79 Z" fill="none" stroke="black" stroke-width="1" /><path d="M 79,18 L 80,86 L 7,86 Z" fill="black" stroke="black" stroke-width="1" /><path d="M 0,0 L 0,217 L 253,217 L 253,0 Z" fill="none" stroke="black" stroke-width="1" /></svg>