<?xml version="1.0" encoding="utf-8" ?>
<svg baseProfile="full" height="219" version="1.1" width="259" xmlns="http://www.w3.org/2000/svg" xmlns:ev="http://www.w3.org/2001/xml-events" xmlns:xlink="http://www.w3.org/1999/xlink"><defs /><rect fill="white" height="219" width="259" x="0" y="0" /><path d="M 52,159 L 32,159 L 30,179 L 51,180 Z" fill="none" stroke="black" stroke-width="1" /><path d="M 27,153 L 58,153 L 56,186 L 25,184 Z" fill="none" stroke="black" stroke-width="1" /><path d="M 212,115 L 151,114 L 151,172 L 211,173 Z" fill="none" stroke="black" stroke-width="1" /><path d="M 144,110 L 217,108 L 218,177 L 146,179 Z" fill="none" stroke="black" stroke-width="1" /><path d="M 33,59 L 34,75 L 55,74 L 54,58 Z" fill="none" stroke="black" stroke-width="1" /><path d="M 27,53 L 59,52 L 62,78 L 28,81 Z" fill="none" stroke="black" stroke-width="1" /><path d="M 148,43 L 148,65 L 166,65 L 167,43 Z" fill="none" stroke="black" stroke-width="1" /><path d="M 144,37 L 173,39 L 173,71 L 142,71 Z" fill="none" stroke="black" stroke-width="1" /><path d="M 0,0 L 0,218 L 258,218 L 258,0 Z" fill="none" stroke="black" stroke-width="1" /></svg>