<?xml version="1.0" encoding="utf-8" ?>
<svg baseProfile="full" height="219" version="1.1" width="253" xmlns="http://www.w3.org/2000/svg" xmlns:ev="http://www.w3.org/2001/xml-events" xmlns:xlink="http://www.w3.org/1999/xlink"><defs /><rect fill="white" height="219" width="253" x="0" y="0" /><path d="M 170,134 L 169,179 L 215,180 L 215,135 Z" fill="none" stroke="black" stroke-width="5" /><path d="M 73,136 L 75,181 L 122,179 L 121,134 Z" fill="none" stroke="black" stroke-width="5" /><path d="M 163,129 L 219,128 L 222,185 L 164,186 Z" fill="none" stroke="black" stroke-width="5" /><path d="M 67,131 L 127,128 L 128,185 L 69,187 Z" fill="none" stroke="black" stroke-width="5" /><path d="M 169,44 L 170,81 L 210,81 Z" fill="none" stroke="black" stroke-width="5" /><path d="M 34,20 L 33,40 L 53,41 L 54,21 Z" fill="none" stroke="black" stroke-width="5" /><path d="M 0,0 L 0,218 L 252,218 L 252,0 Z" fill="none" stroke="black" stroke-width="5" /></svg>