<?xml version="1.0" encoding="utf-8" ?>
<svg xmlns="http://www.w3.org/2000/svg" xmlns:ev="http://www.w3.org/2001/xml-events" xmlns:xlink="http://www.w3.org/1999/xlink" baseProfile="full" height="217" version="1.1" width="254">
  <defs/>
  <path d="M 142.538370,205.439616 C 141.609138,203.481404 140.207864,201.633259 139.424428,201.332627 C 138.640993,201.031994 138.000000,200.244020 138.000000,199.581573 C 138.000000,198.919125 137.193843,197.504770 136.208541,196.438561 C 133.893954,193.933917 129.381050,187.292129 124.019804,178.500000 C 117.048073,167.066771 116.000000,165.037169 116.000000,162.969584 C 116.000000,161.058770 116.805654,161.000000 143.000000,161.000000 L 170.000000,161.000000 L 170.000000,163.549660 C 170.000000,166.530227 167.328923,172.148433 165.364520,173.299690 C 164.614034,173.739520 164.000000,174.967150 164.000000,176.027756 C 164.000000,178.417940 158.072316,191.179311 154.586097,196.294409 C 153.163744,198.381334 152.000000,200.467396 152.000000,200.930102 C 152.000000,202.410880 149.176942,207.271875 147.815647,208.135098 C 145.430618,209.647489 144.248657,209.043777 142.538370,205.439616" fill="none" stroke="black" stroke-width="5"/>
  <path d="M 41.500000,139.798245 C 39.850000,139.229820 37.718606,138.367677 36.763569,137.882372 C 35.808532,137.397067 34.444726,137.000000 33.732890,137.000000 C 31.452949,137.000000 21.960595,126.138829 20.400625,121.745194 C 19.571629,119.410337 18.813414,115.025000 18.715702,112.000000 C 18.490618,105.031724 19.889457,89.131581 20.959104,86.500000 C 21.406216,85.400000 22.353974,82.475000 23.065232,80.000000 C 25.457997,71.673786 31.478620,61.789575 39.857659,52.431446 C 42.763100,49.186504 53.180215,41.000000 54.403879,41.000000 C 54.801056,41.000000 57.910165,39.693481 61.313010,38.096625 C 64.715854,36.499769 68.850000,34.900586 70.500000,34.542885 C 72.150000,34.185185 75.300000,33.524780 77.500000,33.075319 C 79.700000,32.625858 84.875000,31.534772 89.000000,30.650684 C 93.125000,29.766596 99.875000,28.559490 104.000000,27.968227 C 113.760931,26.569128 143.693150,26.520774 149.767892,27.894291 C 152.370551,28.482759 159.225000,29.869900 165.000000,30.976825 C 182.091119,34.252770 188.268331,35.762831 192.500000,37.699385 C 199.251250,40.788983 211.163436,48.262334 211.742604,49.771621 C 212.044007,50.557065 213.237723,52.189154 214.395305,53.398484 C 218.579877,57.770124 222.000000,61.999597 222.000000,62.802781 C 222.000000,63.253834 222.859299,64.545226 223.909554,65.672542 C 226.517092,68.471406 230.000000,75.880633 230.000000,78.628812 C 230.000000,79.868047 230.390312,81.123192 230.867360,81.418024 C 232.740698,82.575811 233.478778,91.722581 232.770260,105.000000 C 231.799599,123.189900 222.353136,133.578219 205.686022,134.784662 C 195.216677,135.542483 188.331772,132.771918 180.940025,124.826589 C 178.982039,122.721965 177.026091,121.000000 176.593475,121.000000 C 176.160859,121.000000 173.884101,119.307485 171.534014,117.238856 C 164.736876,111.255775 162.727870,110.465350 157.953588,111.895759 C 154.602941,112.899638 153.183428,114.195913 149.940779,119.212921 C 147.773351,122.566354 146.000000,125.753775 146.000000,126.296078 C 146.000000,128.000023 137.421764,135.705538 133.373753,137.637772 C 128.839851,139.801937 118.763196,139.951106 113.732521,137.928530 C 108.676336,135.895698 102.120617,128.769549 99.834761,122.821492 C 98.709976,119.894671 97.145868,115.925000 96.358967,114.000000 C 95.572066,112.075000 94.681245,109.767354 94.379365,108.871898 C 94.077485,107.976443 92.722457,106.738943 91.368193,106.121898 C 84.782064,103.121057 78.657177,106.988307 77.620641,114.802093 C 77.267076,117.467401 76.322102,120.514784 75.520701,121.574054 C 74.719299,122.633324 74.049295,124.308929 74.031803,125.297619 C 74.014312,126.286310 71.862213,129.233025 69.249362,131.845876 C 65.526034,135.569204 63.201380,136.948162 58.499362,138.222655 C 50.009605,140.523824 44.963730,140.991502 41.500000,139.798245" fill="none" stroke="black" stroke-width="5"/>
</svg>
