<?xml version="1.0" encoding="utf-8" ?>
<svg xmlns="http://www.w3.org/2000/svg" xmlns:ev="http://www.w3.org/2001/xml-events" xmlns:xlink="http://www.w3.org/1999/xlink" baseProfile="full" height="223" version="1.1" width="260">
  <defs/>
  <path d="M 116.000000,198.545276 C 100.240697,195.753241 91.805252,191.984132 75.021165,180.235196 C 69.955438,176.689164 63.771874,170.481604 61.881905,167.044948 C 56.449322,157.166521 53.592846,152.468070 52.836486,152.166667 C 52.376419,151.983333 52.000000,150.772391 52.000000,149.475684 C 52.000000,148.178976 51.603731,146.873126 51.119402,146.573795 C 50.118097,145.954954 49.223846,142.727794 48.050836,135.500000 C 47.604534,132.750000 46.728698,127.998977 46.104532,124.942171 C 45.303130,121.017359 45.252115,116.316196 45.930908,108.942171 C 47.211575,95.029717 47.885447,92.131675 50.117570,90.937078 C 51.176757,90.370219 52.000000,88.855020 52.000000,87.472422 C 52.000000,83.030333 60.509827,74.337334 69.219554,69.882222 C 75.223910,66.810934 91.380315,66.610846 97.939566,69.526540 C 106.095106,73.151812 109.751381,75.463753 115.142119,80.404085 C 118.085272,83.101331 121.942859,85.913831 123.714534,86.654085 C 127.658201,88.301854 134.575847,88.392423 138.988789,86.854063 C 143.163815,85.398642 154.247345,78.686047 158.007860,75.335413 C 159.589651,73.926031 161.922479,72.218727 163.191922,71.541405 C 164.461365,70.864082 167.595812,69.123994 170.157360,67.674542 C 172.718908,66.225090 176.993908,64.296987 179.657360,63.389869 C 185.634389,61.354213 198.719158,60.948508 199.848716,62.763818 C 200.281235,63.458918 202.854713,64.192992 205.567557,64.395094 C 210.456005,64.759275 216.000000,66.681473 216.000000,68.012201 C 216.000000,68.392345 217.266866,70.029025 218.815257,71.649268 C 222.197789,75.188764 228.000000,85.630075 228.000000,88.177582 C 228.000000,89.179912 228.352347,90.000000 228.782994,90.000000 C 229.535540,90.000000 231.307392,98.574800 232.502419,108.000000 C 233.512326,115.965152 230.594684,133.957072 227.029385,141.750000 C 226.463223,142.987500 225.497498,145.237500 224.883329,146.750000 C 224.269159,148.262500 223.369159,150.281394 222.883329,151.236431 C 222.397498,152.191468 222.000000,153.827530 222.000000,154.872124 C 222.000000,157.480228 219.821423,161.451305 216.651571,164.621156 C 215.193207,166.079520 214.000000,167.886364 214.000000,168.636364 C 214.000000,169.386364 213.662500,170.002409 213.250000,170.005354 C 212.837500,170.008299 210.707730,172.491409 208.517177,175.523375 C 205.439151,179.783703 203.053816,181.777517 198.017177,184.299940 C 194.432730,186.095085 189.700000,188.502786 187.500000,189.650388 C 181.899245,192.571949 178.968401,193.751132 175.500000,194.478415 C 173.850000,194.824401 170.475000,195.557165 168.000000,196.106780 C 152.314416,199.590028 128.263086,200.717895 116.000000,198.545276" fill="none" stroke="black" stroke-width="5"/>
</svg>
