<?xml version="1.0" encoding="utf-8" ?>
<svg xmlns="http://www.w3.org/2000/svg" xmlns:ev="http://www.w3.org/2001/xml-events" xmlns:xlink="http://www.w3.org/1999/xlink" baseProfile="full" height="221" version="1.1" width="261">
  <defs/>
  <path d="M 235.010573,186.107731 C 233.243502,185.615883 231.688236,183.686161 229.650725,179.457411 C 225.937945,171.751723 225.516018,170.892056 224.272799,168.500000 C 223.701098,167.400000 222.634445,165.150000 221.902458,163.500000 C 217.760841,154.164219 206.970897,141.637666 200.374923,138.507671 C 192.813784,134.919676 179.578502,132.613626 171.000000,133.389531 C 165.522738,133.884936 151.500932,132.119772 145.177230,130.138778 C 137.881743,127.853358 125.775155,117.647864 118.957129,108.036011 C 117.605708,106.130817 114.982581,102.887086 113.127958,100.827720 C 111.273334,98.768354 109.206375,96.052149 108.534715,94.791709 C 103.174209,84.732166 97.327231,76.000000 95.951959,76.000000 C 95.428382,76.000000 95.000000,75.403734 95.000000,74.674965 C 95.000000,73.946196 94.212500,72.606094 93.250000,71.696959 C 92.287500,70.787825 89.887859,68.467655 87.917464,66.541026 C 85.947070,64.614396 81.672070,61.844483 78.417464,60.385661 C 72.769357,57.853994 71.782274,57.739216 56.732414,57.864121 C 46.534373,57.948759 40.176279,57.587741 38.732414,56.842066 C 37.504586,56.207961 35.851784,55.389440 35.059519,55.023131 C 30.237092,52.793447 33.048442,40.769131 38.636173,39.725560 C 40.211278,39.431391 43.975000,38.478140 47.000000,37.607223 C 50.025000,36.736306 55.700679,36.018397 59.612620,36.011869 C 67.374029,35.998917 81.780794,39.155040 85.708915,41.728843 C 87.067979,42.619336 89.457537,44.057139 91.019044,44.923961 C 95.039880,47.156002 99.890238,51.000684 103.099942,54.500000 C 108.634220,60.533637 110.997801,63.522279 111.008485,64.500000 C 111.014495,65.050000 112.590044,67.475829 114.509706,69.890731 C 116.429368,72.305633 118.007188,74.555633 118.015973,74.890731 C 118.024758,75.225829 119.423061,77.075000 121.123311,79.000000 C 122.823562,80.925000 126.139726,85.471692 128.492564,89.103760 C 130.845403,92.735829 135.945915,98.810829 139.827037,102.603760 C 146.065238,108.700213 147.731183,109.756012 154.191810,111.707485 C 165.529740,115.132179 171.252830,116.000000 182.500000,116.000000 C 192.813921,116.000000 202.622229,117.388259 204.450000,119.106782 C 204.972500,119.598052 206.322500,120.000550 207.450000,120.001221 C 209.301854,120.002325 210.738292,120.951322 216.665982,126.089853 C 219.861883,128.860280 227.000000,137.264923 227.000000,138.257449 C 227.000000,138.782060 228.195849,140.626248 229.657442,142.355644 C 231.119036,144.085040 233.384255,147.975000 234.691263,151.000000 C 238.068831,158.817202 239.211929,161.162439 241.027626,164.000000 C 241.907460,165.375000 243.242234,168.525000 243.993789,171.000000 C 244.745345,173.475000 245.779447,176.056656 246.291794,176.737014 C 247.556316,178.416202 246.381446,182.618554 243.974564,185.025436 C 241.960513,187.039487 239.447988,187.342844 235.010573,186.107731" fill="none" stroke="black" stroke-width="5"/>
</svg>
