<?xml version="1.0" encoding="utf-8" ?>
<svg xmlns="http://www.w3.org/2000/svg" xmlns:ev="http://www.w3.org/2001/xml-events" xmlns:xlink="http://www.w3.org/1999/xlink" baseProfile="full" height="219" version="1.1" width="259">
  <defs/>
  <path d="M 133.247825,179.798611 C 132.617004,179.038518 131.965680,175.285383 131.800438,171.458311 L 131.500000,164.500000 L 124.044682,164.202046 C 116.696683,163.908382 113.579762,162.756012 114.301661,160.599915 C 114.504210,159.994962 116.206697,159.477386 118.084966,159.449748 C 119.963235,159.422109 123.637500,159.309609 126.250000,159.199748 L 131.000000,159.000000 L 131.015313,152.250000 C 131.023735,148.537500 131.482286,144.825000 132.034316,144.000000 C 133.772262,141.402666 136.000000,145.654403 136.000000,151.568685 C 136.000000,158.158013 137.507177,159.500000 144.907606,159.500000 C 149.833333,159.500000 150.500000,159.738419 150.500000,161.500000 C 150.500000,163.273265 149.734770,163.533522 143.750000,163.795690 L 137.000000,164.091380 L 137.000000,170.854560 C 137.000000,178.263952 135.312514,182.286409 133.247825,179.798611" fill="none" stroke="black" stroke-width="5"/>
  <path d="M 74.200000,164.800000 C 72.208235,162.808235 72.801412,161.018458 77.236253,155.638780 C 79.566192,152.812451 81.712305,150.275000 82.005394,150.000000 C 82.298483,149.725000 85.454669,146.125000 89.019141,142.000000 C 92.583614,137.875000 95.727800,134.275000 96.006222,134.000000 C 96.284644,133.725000 98.979322,130.575000 101.994395,127.000000 C 105.009469,123.425000 108.161991,119.825000 109.000000,119.000000 C 109.838009,118.175000 112.990531,114.575000 116.005605,111.000000 C 119.020678,107.425000 121.726914,104.275000 122.019461,104.000000 C 122.790956,103.274781 134.895002,89.118148 139.000000,84.139925 C 140.925000,81.805434 143.625000,78.663306 145.000000,77.157418 C 146.375000,75.651530 148.625000,72.908363 150.000000,71.061491 C 151.375000,69.214619 153.799367,66.307745 155.387481,64.601771 C 156.975596,62.895797 159.445624,59.925000 160.876433,58.000000 C 162.307241,56.075000 164.166933,53.825000 165.009081,53.000000 C 166.835983,51.210298 170.555866,46.640839 174.000000,41.955665 C 178.361588,36.022445 182.206400,32.926407 183.687002,34.155197 C 185.767703,35.882026 184.818101,41.752838 182.094607,44.000000 C 181.761315,44.275000 180.315548,46.075000 178.881792,48.000000 C 177.448036,49.925000 174.801230,53.075000 173.000000,55.000000 C 171.198770,56.925000 168.554376,60.075000 167.123567,62.000000 C 165.692759,63.925000 163.833967,66.175000 162.992920,67.000000 C 162.151872,67.825000 159.446900,70.964901 156.981871,73.977558 C 154.516842,76.990214 150.995199,81.040214 149.155998,82.977558 C 147.316797,84.914901 144.621769,88.075000 143.167047,90.000000 C 141.712325,91.925000 139.836804,94.175000 138.999222,95.000000 C 138.161641,95.825000 135.006669,99.425000 131.988174,103.000000 C 128.969678,106.575000 126.050000,109.995782 125.500000,110.601739 C 124.950000,111.207695 122.475000,114.086913 120.000000,117.000000 C 117.525000,119.913087 115.047977,122.792305 114.495504,123.398261 C 113.943032,124.004218 111.476190,126.975000 109.013633,130.000000 C 106.551077,133.025000 103.844942,136.175000 103.000000,137.000000 C 102.155058,137.825000 99.446900,140.974844 96.981871,143.999653 C 94.516842,147.024463 91.785536,150.174463 90.912302,150.999653 C 90.039068,151.824844 86.922995,155.537500 83.987695,159.250000 C 78.718550,165.914294 76.546136,167.146136 74.200000,164.800000" fill="black" stroke="black" stroke-width="1"/>
  <path d="M 87.312950,75.750000 C 86.870154,75.062500 86.281097,71.800000 86.003933,68.500000 L 85.500000,62.500000 L 77.500000,62.000000 C 70.333333,61.552083 69.500000,61.291667 69.500000,59.500000 C 69.500000,57.719136 70.266975,57.467028 76.500000,57.199074 C 80.350000,57.033565 83.918299,56.480266 84.429554,55.969520 C 84.940809,55.458774 85.279577,52.154350 85.182371,48.626354 C 85.051489,43.876099 85.375116,42.070032 86.429704,41.665349 C 88.758675,40.771639 90.274588,43.692589 90.905852,50.290254 L 91.500000,56.500000 L 97.500000,56.648108 C 100.800000,56.729567 104.093798,56.842067 104.819551,56.898108 C 105.596572,56.958107 106.007719,57.925081 105.819551,59.250000 C 105.526637,61.312444 104.900861,61.524386 98.312500,61.792548 L 91.125000,62.085096 L 91.125000,68.536912 C 91.125000,72.085411 90.845317,75.441265 90.503483,75.994364 C 89.657259,77.363584 88.284489,77.258443 87.312950,75.750000" fill="none" stroke="black" stroke-width="5"/>
</svg>
