<?xml version="1.0" encoding="utf-8" ?>
<svg baseProfile="full" height="220" version="1.1" width="250" xmlns="http://www.w3.org/2000/svg" xmlns:ev="http://www.w3.org/2001/xml-events" xmlns:xlink="http://www.w3.org/1999/xlink"><defs /><rect fill="white" height="220" width="250" x="0" y="0" /><path d="M 132,172 L 134,187 L 149,191 L 134,193 L 131,207 L 129,195 L 114,189 L 128,186 Z" fill="black" stroke="black" stroke-width="1" /><path d="M 202,126 L 46,130 Z" fill="black" stroke="black" stroke-width="1" /><path d="M 137,79 L 142,93 L 154,95 L 141,99 L 138,111 L 133,99 L 122,96 L 134,93 Z" fill="black" stroke="black" stroke-width="1" /><path d="M 63,22 L 68,37 L 79,39 L 68,44 L 66,57 L 61,42 L 48,40 L 61,35 Z" fill="black" stroke="black" stroke-width="1" /><path d="M 189,18 L 194,31 L 206,33 L 193,39 L 192,51 L 186,37 L 173,35 L 187,31 Z" fill="black" stroke="black" stroke-width="1" /><path d="M 0,0 L 0,219 L 249,219 L 249,0 Z" fill="none" stroke="black" stroke-width="1" /></svg>