<?xml version="1.0" encoding="utf-8" ?>
<svg baseProfile="full" height="219" version="1.1" width="258" xmlns="http://www.w3.org/2000/svg" xmlns:ev="http://www.w3.org/2001/xml-events" xmlns:xlink="http://www.w3.org/1999/xlink"><defs /><rect fill="white" height="219" width="258" x="0" y="0" /><path d="M 200,157 L 206,173 L 221,175 L 206,178 L 204,194 L 199,178 L 186,175 L 199,172 Z" fill="black" stroke="black" stroke-width="1" /><path d="M 24,149 L 31,163 L 44,164 L 29,170 L 27,183 L 23,169 L 11,166 L 23,161 Z" fill="black" stroke="black" stroke-width="1" /><path d="M 34,104 L 38,115 L 49,118 L 38,121 L 36,135 L 31,120 L 18,120 L 29,116 Z" fill="black" stroke="black" stroke-width="1" /><path d="M 145,68 L 150,81 L 163,82 L 148,88 L 147,99 L 141,86 L 130,85 L 143,81 Z" fill="black" stroke="black" stroke-width="1" /><path d="M 42,54 L 46,67 L 60,69 L 48,72 L 44,85 L 38,72 L 26,70 L 40,67 Z" fill="black" stroke="black" stroke-width="1" /><path d="M 105,26 L 50,189 Z" fill="black" stroke="black" stroke-width="1" /><path d="M 68,21 L 86,35 L 75,37 L 71,50 L 67,38 L 56,34 L 67,31 Z" fill="black" stroke="black" stroke-width="1" /><path d="M 0,0 L 0,218 L 257,218 L 257,0 Z" fill="none" stroke="black" stroke-width="1" /></svg>