<?xml version="1.0" encoding="utf-8" ?>
<svg baseProfile="full" height="221" version="1.1" width="259" xmlns="http://www.w3.org/2000/svg" xmlns:ev="http://www.w3.org/2001/xml-events" xmlns:xlink="http://www.w3.org/1999/xlink"><defs /><rect fill="white" height="221" width="259" x="0" y="0" /><path d="M 148,156 L 153,172 L 169,174 L 153,180 L 151,194 L 147,179 L 132,177 L 146,172 Z" fill="black" stroke="black" stroke-width="1" /><path d="M 222,95 L 226,110 L 241,113 L 226,117 L 224,129 L 219,117 L 206,114 L 219,111 Z" fill="black" stroke="black" stroke-width="1" /><path d="M 22,87 L 26,102 L 38,105 L 26,107 L 24,119 L 19,107 L 6,105 L 19,102 Z" fill="black" stroke="black" stroke-width="1" /><path d="M 86,33 L 36,184 Z" fill="black" stroke="black" stroke-width="1" /><path d="M 46,29 L 50,44 L 64,46 L 50,49 L 48,64 L 43,49 L 29,47 L 44,45 Z" fill="black" stroke="black" stroke-width="1" /><path d="M 0,0 L 0,220 L 258,220 L 258,0 Z" fill="none" stroke="black" stroke-width="1" /></svg>