<?xml version="1.0" encoding="utf-8" ?>
<svg baseProfile="full" height="218" version="1.1" width="260" xmlns="http://www.w3.org/2000/svg" xmlns:ev="http://www.w3.org/2001/xml-events" xmlns:xlink="http://www.w3.org/1999/xlink"><defs /><rect fill="white" height="218" width="260" x="0" y="0" /><path d="M 226,174 L 229,193 L 244,194 L 230,199 L 229,214 L 223,199 L 210,197 L 223,193 Z" fill="black" stroke="black" stroke-width="1" /><path d="M 65,158 L 68,173 L 80,178 L 69,179 L 62,196 L 61,180 L 45,176 L 60,174 Z" fill="black" stroke="black" stroke-width="1" /><path d="M 161,126 L 165,140 L 178,142 L 165,147 L 162,161 L 157,146 L 143,145 L 157,139 Z" fill="black" stroke="black" stroke-width="1" /><path d="M 92,85 L 95,100 L 109,104 L 95,107 L 93,124 L 89,108 L 75,106 L 89,102 Z" fill="black" stroke="black" stroke-width="1" /><path d="M 24,85 L 29,100 L 43,103 L 30,106 L 29,120 L 23,106 L 9,104 L 23,100 Z" fill="black" stroke="black" stroke-width="1" /><path d="M 220,56 L 226,71 L 239,73 L 226,77 L 223,95 L 219,78 L 206,76 L 219,72 Z" fill="black" stroke="black" stroke-width="1" /><path d="M 167,13 L 171,29 L 183,31 L 171,35 L 170,47 L 164,35 L 150,33 L 165,29 Z" fill="black" stroke="black" stroke-width="1" /><path d="M 58,13 L 62,27 L 77,30 L 62,35 L 59,49 L 55,34 L 40,31 L 55,27 Z" fill="black" stroke="black" stroke-width="1" /><path d="M 129,6 L 129,207 Z" fill="black" stroke="black" stroke-width="1" /><path d="M 0,0 L 0,217 L 259,217 L 259,0 Z" fill="none" stroke="black" stroke-width="1" /></svg>