<?xml version="1.0" encoding="utf-8" ?>
<svg baseProfile="full" height="220" version="1.1" width="259" xmlns="http://www.w3.org/2000/svg" xmlns:ev="http://www.w3.org/2001/xml-events" xmlns:xlink="http://www.w3.org/1999/xlink"><defs /><rect fill="white" height="220" width="259" x="0" y="0" /><path d="M 113,182 L 120,193 L 131,193 L 119,198 L 116,213 L 112,198 L 99,196 L 112,192 Z" fill="black" stroke="black" stroke-width="1" /><path d="M 228,171 L 232,185 L 246,186 L 231,192 L 230,205 L 225,190 L 209,189 L 224,185 Z" fill="black" stroke="black" stroke-width="1" /><path d="M 157,135 L 160,149 L 171,155 L 161,156 L 155,171 L 154,158 L 140,152 L 153,150 Z" fill="black" stroke="black" stroke-width="1" /><path d="M 42,89 L 49,101 L 60,101 L 47,108 L 46,121 L 41,107 L 28,105 L 41,101 Z" fill="black" stroke="black" stroke-width="1" /><path d="M 85,50 L 91,62 L 102,64 L 89,69 L 88,80 L 84,68 L 71,66 L 83,62 Z" fill="black" stroke="black" stroke-width="1" /><path d="M 227,49 L 38,158 Z" fill="black" stroke="black" stroke-width="1" /><path d="M 137,47 L 142,61 L 156,63 L 141,69 L 140,82 L 136,69 L 123,64 L 135,62 Z" fill="black" stroke="black" stroke-width="1" /><path d="M 26,7 L 31,19 L 44,22 L 31,26 L 30,41 L 23,25 L 10,22 L 24,19 Z" fill="black" stroke="black" stroke-width="1" /><path d="M 160,4 L 165,17 L 177,20 L 165,22 L 162,35 L 156,22 L 144,21 L 158,17 Z" fill="black" stroke="black" stroke-width="1" /><path d="M 0,0 L 0,219 L 258,219 L 258,0 Z" fill="none" stroke="black" stroke-width="1" /></svg>