<?xml version="1.0" encoding="utf-8" ?>
<svg baseProfile="full" height="217" version="1.1" width="260" xmlns="http://www.w3.org/2000/svg" xmlns:ev="http://www.w3.org/2001/xml-events" xmlns:xlink="http://www.w3.org/1999/xlink"><defs /><rect fill="white" height="217" width="260" x="0" y="0" /><path d="M 136,162 L 142,179 L 157,182 L 142,185 L 140,199 L 134,184 L 116,183 L 133,178 Z" fill="black" stroke="black" stroke-width="1" /><path d="M 72,112 L 74,124 L 91,127 L 74,130 L 69,145 L 67,130 L 50,127 L 67,124 Z" fill="black" stroke="black" stroke-width="1" /><path d="M 184,82 L 37,88 Z" fill="black" stroke="black" stroke-width="1" /><path d="M 71,28 L 76,41 L 89,46 L 76,49 L 75,62 L 69,48 L 54,45 L 67,43 Z" fill="black" stroke="black" stroke-width="1" /><path d="M 166,14 L 172,27 L 185,30 L 173,33 L 167,46 L 164,33 L 148,32 L 164,27 Z" fill="black" stroke="black" stroke-width="1" /><path d="M 0,0 L 0,216 L 259,216 L 259,0 Z" fill="none" stroke="black" stroke-width="1" /></svg>