<?xml version="1.0" encoding="utf-8" ?>
<svg xmlns="http://www.w3.org/2000/svg" xmlns:ev="http://www.w3.org/2001/xml-events" xmlns:xlink="http://www.w3.org/1999/xlink" baseProfile="full" height="219" version="1.1" width="258">
  <defs/>
  <path d="M 200.708849,193.375516 C 200.318982,192.985649 200.000000,189.366667 200.000000,185.333333 L 200.000000,178.000000 L 194.622445,178.000000 C 189.012551,178.000000 186.455881,176.498436 187.949869,174.081114 C 188.485777,173.213996 189.685168,172.955150 191.294986,173.359189 C 192.675296,173.705625 195.198596,173.710281 196.902320,173.369536 L 200.000000,172.750000 L 200.000000,165.375000 C 200.000000,158.741414 200.195128,158.000000 201.940983,158.000000 C 204.585445,158.000000 204.862792,158.673938 205.634241,166.974432 L 206.305810,174.200245 L 212.479789,173.539067 C 217.366823,173.015711 218.916246,173.194156 219.912974,174.395140 C 222.069941,176.994126 220.136265,178.000000 212.983047,178.000000 L 206.084129,178.000000 L 205.792064,185.750000 C 205.531045,192.676212 205.283035,193.531058 203.458849,193.792183 C 202.336216,193.952883 201.098716,193.765383 200.708849,193.375516" fill="none" stroke="black" stroke-width="5"/>
  <path d="M 49.356387,187.486346 C 48.872723,186.225939 53.948897,169.557749 56.965794,162.500000 C 57.435998,161.400000 59.249737,156.225000 60.996324,151.000000 C 65.178429,138.489028 69.917648,124.996496 71.006879,122.500000 C 71.918548,120.410472 76.102190,108.496022 83.647924,86.500000 C 86.100731,79.350000 88.495809,72.600000 88.970319,71.500000 C 89.444830,70.400000 90.046749,68.600000 90.307916,67.500000 C 90.569084,66.400000 92.664192,60.325000 94.963711,54.000000 C 97.263231,47.675000 100.067648,39.575000 101.195750,36.000000 C 103.893338,27.451241 104.952696,26.331360 108.004336,28.802428 C 110.238562,30.611594 110.285604,30.908272 109.042351,35.348739 C 108.326101,37.906932 107.348560,40.000000 106.870039,40.000000 C 106.391518,40.000000 106.000000,41.050000 106.000000,42.333333 C 106.000000,43.616667 105.719296,44.947370 105.376214,45.290453 C 105.033132,45.633535 103.671267,49.196035 102.349849,53.207119 C 101.028431,57.218204 99.569343,61.400000 99.107431,62.500000 C 98.645520,63.600000 97.799112,65.625000 97.226525,67.000000 C 96.653938,68.375000 95.615871,71.750000 94.919709,74.500000 C 94.223548,77.250000 92.383362,82.650000 90.830409,86.500000 C 89.277456,90.350000 88.005315,94.197500 88.003429,95.050000 C 88.001543,95.902500 87.636786,97.027500 87.192858,97.550000 C 86.748929,98.072500 85.350951,101.650000 84.086240,105.500000 C 82.821528,109.350000 80.934742,114.407596 79.893382,116.739102 C 78.852022,119.070607 78.000000,121.373099 78.000000,121.855749 C 78.000000,122.851405 74.291755,132.599633 72.909963,135.236431 C 72.409483,136.191468 72.000000,137.788968 72.000000,138.786431 C 72.000000,139.783894 71.621321,141.027500 71.158491,141.550000 C 70.695662,142.072500 69.336204,145.875000 68.137475,150.000000 C 64.747577,161.665123 63.882938,164.209741 61.872459,168.437829 C 60.842607,170.603636 60.000000,172.972241 60.000000,173.701398 C 60.000000,174.430555 59.605240,175.808532 59.122756,176.763569 C 58.640271,177.718606 57.683113,180.300000 56.995737,182.500000 C 56.308360,184.700000 55.298020,187.062500 54.750536,187.750000 C 53.372969,189.479873 50.059222,189.317904 49.356387,187.486346" fill="black" stroke="black" stroke-width="1"/>
  <path d="M 25.178776,181.715412 C 24.592414,181.008888 23.974813,177.746388 23.806331,174.465412 L 23.500000,168.500000 L 18.008669,168.000000 C 13.816505,167.618293 12.438793,167.085976 12.185345,165.750000 C 11.905961,164.277316 12.625608,164.000000 16.726676,164.000000 C 19.407004,164.000000 22.140000,163.460000 22.800000,162.800000 C 23.460915,162.139085 24.000000,158.961484 24.000000,155.726676 C 24.000000,150.672101 24.243952,149.900044 25.750000,150.188300 C 27.004312,150.428374 27.783250,152.077831 28.500000,156.011624 C 29.933931,163.881579 30.402411,164.349357 36.166531,163.666683 C 42.043543,162.970638 44.000000,163.580119 44.000000,166.106989 C 44.000000,167.766454 43.213185,168.000000 37.622445,168.000000 C 29.699421,168.000000 28.500561,169.135211 29.299508,175.881068 C 30.009938,181.879531 27.851389,184.935714 25.178776,181.715412" fill="none" stroke="black" stroke-width="5"/>
  <path d="M 34.142988,134.108590 C 33.366942,133.617405 33.041424,132.444844 33.382649,131.369741 C 33.710819,130.335768 33.639763,127.500725 33.224746,125.069645 L 32.470170,120.649500 L 25.735085,120.893667 C 19.513205,121.119229 19.000000,120.980186 19.000000,119.068917 C 19.000000,117.371157 19.672737,116.973439 22.750000,116.851940 C 29.310203,116.592926 29.645543,116.525765 31.331516,115.133243 C 32.572500,114.108257 32.835126,112.821131 32.381768,109.985981 C 31.862648,106.739584 32.074271,106.111203 33.879672,105.538191 C 37.118603,104.510194 38.000000,105.691177 38.000000,111.059017 L 38.000000,116.000000 L 42.893011,116.000000 C 46.168243,116.000000 47.963931,116.463622 48.324110,117.402234 C 49.096568,119.415226 48.286892,119.893057 42.890436,120.608922 L 38.085766,121.246284 L 37.792883,127.793445 C 37.500219,134.335710 36.697149,135.725203 34.142988,134.108590" fill="none" stroke="black" stroke-width="5"/>
  <path d="M 144.000000,93.769551 C 144.000000,90.816298 143.460000,87.860000 142.800000,87.200000 C 142.140000,86.540000 139.215000,86.000000 136.300000,86.000000 C 133.385000,86.000000 131.006891,85.662500 131.015313,85.250000 C 131.062953,82.916660 133.076219,81.846116 137.110980,82.008659 C 144.246394,82.296115 144.000000,82.508911 144.000000,76.059017 C 144.000000,67.139388 148.107701,66.311290 148.385373,75.174941 C 148.583902,81.512238 149.293773,82.130322 156.091896,81.885002 C 159.344079,81.767643 162.218490,81.885156 162.479476,82.146143 C 162.740463,82.407130 162.269813,83.597475 161.433588,84.791355 C 160.205946,86.544059 158.980274,86.941027 155.068413,86.852894 C 148.441318,86.703589 147.820952,87.289151 148.187904,93.347395 C 148.472179,98.040688 148.299431,98.528485 146.250000,98.819551 C 144.156345,99.116897 144.000000,98.765989 144.000000,93.769551" fill="none" stroke="black" stroke-width="5"/>
  <path d="M 42.250000,84.333333 C 41.493348,84.030673 41.000000,81.941156 41.000000,79.039111 C 41.000000,73.032237 39.645954,71.812658 33.857632,72.606035 C 30.504963,73.065570 29.105807,72.832416 28.125134,71.650777 C 25.961280,69.043493 27.798908,68.000000 34.554279,68.000000 L 40.990524,68.000000 L 40.862187,62.433075 C 40.726744,56.557930 41.841784,54.341573 44.432783,55.335833 C 45.946487,55.916695 46.442333,58.969183 46.035557,65.202705 C 45.861767,67.865907 45.958726,67.909756 52.669256,68.202705 C 58.218615,68.444964 59.541092,68.823967 59.812986,70.250000 C 60.100507,71.757997 59.323716,72.000000 54.195769,72.000000 C 47.154207,72.000000 46.239368,72.812833 45.813964,79.447221 C 45.505298,84.261039 44.729221,85.325022 42.250000,84.333333" fill="none" stroke="black" stroke-width="5"/>
  <path d="M 68.883817,49.750000 C 68.819917,49.612500 68.667919,47.212649 68.546045,44.416999 C 68.245524,37.523400 67.600046,36.722827 62.972782,37.504598 C 59.873343,38.028245 58.973058,37.805277 58.210535,36.325158 C 56.576541,33.153446 57.870953,32.000000 63.064281,32.000000 C 67.403873,32.000000 68.030724,31.725768 68.565979,29.593141 C 68.898225,28.269368 68.697631,26.303535 68.120215,25.224624 C 66.805861,22.768730 67.547366,22.000000 71.230637,22.000000 C 73.776730,22.000000 74.101906,22.333354 73.913170,24.750000 C 73.372328,31.675148 73.598678,32.000000 78.964816,32.000000 C 82.918363,32.000000 84.149270,32.410396 85.007940,34.014837 C 86.293041,36.416069 85.560225,36.806768 79.000000,37.217949 L 74.500000,37.500000 L 74.610730,43.169789 C 74.707829,48.141652 74.461638,48.909318 72.610730,49.406134 C 70.308151,50.024186 69.064564,50.138927 68.883817,49.750000" fill="none" stroke="black" stroke-width="5"/>
</svg>
