<?xml version="1.0" encoding="utf-8" ?>
<svg xmlns="http://www.w3.org/2000/svg" xmlns:ev="http://www.w3.org/2001/xml-events" xmlns:xlink="http://www.w3.org/1999/xlink" baseProfile="full" height="217" version="1.1" width="258">
  <defs/>
  <path d="M 170.721871,164.250000 C 169.295116,160.537500 167.570235,155.475000 166.888802,153.000000 C 166.207370,150.525000 165.323295,148.050000 164.924193,147.500000 C 164.525090,146.950000 163.052480,143.125000 161.651726,139.000000 C 157.393839,126.461192 155.359488,121.026154 154.663579,120.330245 C 154.298610,119.965277 154.000000,118.835561 154.000000,117.819764 C 154.000000,116.803968 153.571254,115.191468 153.047231,114.236431 C 152.523209,113.281394 151.143674,109.575000 149.981598,106.000000 C 147.847050,99.433292 147.148201,97.538252 145.187488,93.000000 C 144.593431,91.625000 142.709061,86.225000 141.000000,81.000000 C 139.290939,75.775000 137.496312,70.600000 137.011941,69.500000 C 136.527570,68.400000 135.180477,64.575000 134.018402,61.000000 C 132.856326,57.425000 131.451520,53.678141 130.896611,52.673646 C 130.341701,51.669151 129.626399,48.641149 129.307051,45.944753 C 128.827144,41.892693 129.024811,40.927710 130.446486,40.382162 C 131.514574,39.972298 132.839166,40.438102 133.941052,41.611055 C 136.188302,44.003242 137.212582,46.599913 149.478369,81.000000 C 152.714234,90.075167 155.909378,98.787417 156.996568,101.500000 C 157.437443,102.600000 158.338987,105.075000 159.000000,107.000000 C 159.661013,108.925000 160.561013,111.400000 161.000000,112.500000 C 161.438987,113.600000 162.338987,116.075000 163.000000,118.000000 C 163.661013,119.925000 164.574409,122.400000 165.029769,123.500000 C 165.485130,124.600000 167.058782,128.875000 168.526774,133.000000 C 169.994767,137.125000 173.012047,145.450000 175.231841,151.500000 C 177.451636,157.550000 179.473802,164.124233 179.725543,166.109407 C 180.122120,169.236716 179.870490,169.802553 177.841628,170.345753 C 173.736472,171.444851 173.364561,171.126430 170.721871,164.250000" fill="black" stroke="black" stroke-width="1"/>
  <path d="M 224.486587,123.825642 C 224.203631,123.088272 223.865895,119.338350 223.736061,115.492484 L 223.500000,108.500000 L 216.331645,107.859476 C 208.340024,107.145390 206.841910,106.575550 207.620692,104.546078 C 207.972831,103.628419 210.676019,102.919876 215.577018,102.460615 L 223.000000,101.765025 L 223.000000,95.382512 C 223.000000,89.786908 223.233392,89.000000 224.893011,89.000000 C 227.274665,89.000000 228.000000,90.876895 228.000000,97.039723 L 228.000000,101.915871 L 235.750000,102.207936 C 242.735979,102.471207 243.500000,102.697167 243.500000,104.500000 C 243.500000,106.252307 242.544969,106.607139 235.788583,107.365093 L 228.077165,108.230186 L 227.788583,116.284604 C 227.597388,121.620895 227.078340,124.478615 226.250526,124.752668 C 225.563315,124.980175 224.769543,124.563013 224.486587,123.825642" fill="none" stroke="black" stroke-width="5"/>
  <path d="M 42.371517,63.792110 C 41.960933,63.127771 41.625000,59.792146 41.625000,56.379610 C 41.625000,50.383261 41.530964,50.156193 38.823438,49.614688 C 37.282579,49.306516 35.333871,49.318387 34.492977,49.641068 C 32.817211,50.284120 27.000000,48.222587 27.000000,46.985668 C 27.000000,45.712297 29.877919,45.000000 35.022770,45.000000 C 37.814131,45.000000 40.224531,44.468061 40.686958,43.750000 C 41.129704,43.062500 41.493761,39.800000 41.495975,36.500000 C 41.499552,31.168008 41.722669,30.500000 43.500000,30.500000 C 45.242255,30.500000 45.539478,31.268777 45.806331,36.465412 C 45.974813,39.746388 46.592414,43.008888 47.178776,43.715412 C 47.805118,44.470108 50.463128,45.000000 53.622445,45.000000 C 58.333333,45.000000 59.000000,45.247944 59.000000,47.000000 C 59.000000,48.777778 58.333333,49.000000 53.000000,49.000000 C 47.157770,49.000000 46.996035,49.072311 46.849200,51.750000 C 46.766260,53.262500 46.802004,55.789454 46.928631,57.365453 C 47.415461,63.424519 44.599057,67.396345 42.371517,63.792110" fill="none" stroke="black" stroke-width="5"/>
</svg>
