<?xml version="1.0" encoding="utf-8" ?>
<svg xmlns="http://www.w3.org/2000/svg" xmlns:ev="http://www.w3.org/2001/xml-events" xmlns:xlink="http://www.w3.org/1999/xlink" baseProfile="full" height="219" version="1.1" width="257">
  <defs/>
  <path d="M 196.479250,185.934623 C 195.973592,184.341435 196.974477,182.683930 200.857168,178.684623 C 208.841564,170.460413 216.032222,160.998471 219.236411,154.500000 C 220.863536,151.200000 222.819351,147.375000 223.582668,146.000000 C 224.345985,144.625000 224.977150,142.064058 224.985258,140.309017 C 224.993366,138.553976 225.508830,136.803560 226.130734,136.419202 C 226.898274,135.944836 227.093620,132.954767 226.738907,127.110185 C 226.239592,118.883003 224.652138,112.421663 221.349433,105.173664 C 220.515790,103.344180 218.513304,98.190746 216.899464,93.721589 C 215.285624,89.252432 213.298038,84.577615 212.482605,83.333108 C 211.667172,82.088600 211.000000,79.929534 211.000000,78.535183 C 211.000000,77.140832 210.550000,76.000000 210.000000,76.000000 C 209.450000,76.000000 209.000000,75.126558 209.000000,74.059017 C 209.000000,72.991476 208.550000,71.839919 208.000000,71.500000 C 207.450000,71.160081 207.000000,69.528940 207.000000,67.875242 C 207.000000,66.221543 206.537712,64.004724 205.972694,62.948977 C 205.407675,61.893231 204.861239,56.386988 204.758390,50.712884 C 204.586695,41.240544 204.796815,39.950500 207.326117,34.948165 C 208.841216,31.951674 210.609236,28.734084 211.255051,27.797964 C 211.900866,26.861844 212.219823,25.886490 211.963844,25.630511 C 211.534284,25.200951 206.677825,26.021805 198.000000,27.990725 C 196.075000,28.427490 189.775000,29.781664 184.000000,31.000000 C 178.225000,32.218336 171.925000,33.591340 170.000000,34.051120 C 165.020552,35.240446 148.325157,38.870328 143.000000,39.921411 C 140.525000,40.409928 131.975000,42.211269 124.000000,43.924391 C 102.190934,48.609230 99.799113,49.130854 96.000000,50.030814 C 94.075000,50.486821 89.125000,51.574492 85.000000,52.447860 C 71.280815,55.352562 68.853693,56.176347 69.448423,57.726189 C 69.751790,58.516751 70.000000,59.351771 70.000000,59.581787 C 70.000000,59.811804 70.831482,60.000000 71.847739,60.000000 C 73.863192,60.000000 82.573786,68.411258 86.345963,74.000000 C 87.645261,75.925000 89.315814,79.300000 90.058303,81.500000 C 90.800792,83.700000 91.687978,85.849059 92.029827,86.275686 C 92.809627,87.248874 91.388923,99.323439 89.944369,104.000000 C 88.405283,108.982599 84.837176,116.000000 83.842782,116.000000 C 83.379252,116.000000 83.000000,116.623246 83.000000,117.384990 C 83.000000,118.146735 81.987500,119.449687 80.750000,120.280439 C 79.512500,121.111192 77.600000,122.644103 76.500000,123.686908 C 72.345517,127.625379 65.046060,132.000000 62.628842,132.000000 C 61.247897,132.000000 59.839919,132.450000 59.500000,133.000000 C 59.160081,133.550000 55.088351,134.000000 50.451710,134.000000 C 39.829074,134.000000 34.101215,131.928024 27.367810,125.649709 C 16.654713,115.660679 14.472063,104.241126 20.617184,90.330666 C 21.864227,87.507787 29.473204,82.000000 32.125953,82.000000 C 32.606679,82.000000 33.000000,83.800000 33.000000,86.000000 C 33.000000,88.200000 32.584526,90.000000 32.076725,90.000000 C 29.978229,90.000000 25.000000,95.297005 25.000000,97.529877 C 25.000000,98.823526 24.550000,100.160081 24.000000,100.500000 C 22.140287,101.649366 22.948036,108.993999 25.451316,113.696397 C 28.157448,118.779852 33.831746,124.605332 37.397752,125.961125 C 38.663884,126.442508 43.360328,127.155678 47.834294,127.545947 C 54.840182,128.157079 56.768708,127.955506 61.734388,126.093086 C 69.530019,123.169269 77.840251,115.388200 82.125930,107.000000 C 85.013574,101.348121 85.447071,99.521399 85.448252,93.000000 C 85.449367,86.841946 84.979253,84.600493 82.820834,80.472748 C 79.280937,73.703075 71.302516,64.367947 67.825789,62.927839 C 66.271605,62.284075 65.000000,61.361953 65.000000,60.878680 C 65.000000,60.395406 64.100000,60.000000 63.000000,60.000000 C 61.900000,60.000000 61.000000,59.550000 61.000000,59.000000 C 61.000000,58.450000 60.212500,57.983817 59.250000,57.964037 C 56.827909,57.914263 51.596556,53.461803 52.411289,52.143538 C 52.790276,51.530323 54.354340,51.320868 56.038773,51.657755 C 57.667448,51.983490 59.000000,51.833309 59.000000,51.324020 C 59.000000,50.814730 62.487500,49.830731 66.750000,49.137355 C 71.012500,48.443979 76.300000,47.490972 78.500000,47.019562 C 80.700000,46.548151 84.975000,45.691390 88.000000,45.115647 C 91.025000,44.539904 97.325000,43.325201 102.000000,42.416309 C 106.675000,41.507416 112.750000,40.327339 115.500000,39.793917 C 124.774834,37.994862 128.430119,37.255710 154.000000,32.008655 C 179.280426,26.820998 181.827378,26.279622 191.500000,24.037713 C 194.250000,23.400321 198.755291,22.509448 201.511758,22.057996 C 205.970429,21.327757 208.977889,20.615298 223.116020,16.940006 C 228.345713,15.580516 233.698639,15.772282 234.300491,17.340684 C 235.048274,19.289374 234.019238,20.326214 229.250000,22.429475 C 226.912500,23.460325 225.000000,24.630811 225.000000,25.030554 C 225.000000,25.430297 223.762500,26.272352 222.250000,26.901787 C 219.120239,28.204255 213.931161,33.292436 211.951545,37.000000 C 208.706607,43.077344 212.050251,63.803393 218.727224,79.000000 C 220.491779,83.016079 221.885483,86.315787 226.646698,97.750000 C 227.391014,99.537500 228.646216,102.462500 229.436035,104.250000 C 230.225855,106.037500 231.348345,109.300000 231.930458,111.500000 C 233.220737,116.376391 233.342055,135.028839 232.104139,138.202947 C 231.611415,139.466326 230.620002,142.525000 229.900997,145.000000 C 228.567463,149.590372 221.286350,165.093723 220.038396,166.000000 C 219.659718,166.275000 217.435001,169.341062 215.094582,172.813471 C 206.689249,185.284205 198.177095,191.284059 196.479250,185.934623" fill="black" stroke="black" stroke-width="1"/>
</svg>
