<?xml version="1.0" encoding="utf-8" ?>
<svg xmlns="http://www.w3.org/2000/svg" xmlns:ev="http://www.w3.org/2001/xml-events" xmlns:xlink="http://www.w3.org/1999/xlink" baseProfile="full" height="220" version="1.1" width="259">
  <defs/>
  <path d="M 61.500000,180.697109 C 54.433340,179.650852 51.885425,178.605842 46.500000,174.544964 C 39.268489,169.092045 36.751026,165.502494 35.022599,158.179797 C 33.009144,149.649539 35.670921,139.419988 41.392865,133.698044 C 44.348744,130.742166 53.969677,126.000000 57.010702,126.000000 C 60.750220,126.000000 71.561381,132.104746 72.719986,134.870573 C 75.760062,142.127857 75.481078,146.792439 71.749746,151.092884 C 68.543493,154.788164 65.781548,156.000000 60.565741,156.000000 C 56.238992,156.000000 56.000000,155.854394 56.000000,153.218315 C 56.000000,150.789918 56.564800,150.269865 60.447072,149.123567 C 64.846162,147.824670 68.000000,144.641336 68.000000,141.500000 C 68.000000,137.578992 61.540115,132.000000 57.000000,132.000000 C 52.973213,132.000000 44.000000,137.987420 44.000000,140.674314 C 44.000000,141.403441 43.659565,142.000000 43.243479,142.000000 C 42.827392,142.000000 41.933801,143.772376 41.257722,145.938614 C 38.074739,156.137265 45.188248,168.584963 56.500000,172.610578 C 62.822995,174.860800 74.930421,174.503067 81.212650,171.880404 C 84.120692,170.666374 86.927500,169.296634 87.450000,168.836538 C 87.972500,168.376442 89.189545,168.000000 90.154545,168.000000 C 91.119545,168.000000 92.990469,166.987500 94.312153,165.750000 C 95.633837,164.512500 99.299310,161.250000 102.457649,158.500000 C 119.313139,143.823740 130.000249,130.989725 137.116124,116.879079 C 138.885426,113.370586 140.648105,110.275000 141.033188,110.000000 C 141.994598,109.313427 152.000000,88.366516 152.000000,87.040320 C 152.000000,86.453218 152.412170,85.191468 152.915933,84.236431 C 154.824093,80.618928 157.127248,74.862224 158.953411,69.145838 C 159.994020,65.888449 161.716456,61.485567 162.781047,59.361656 C 163.845638,57.237745 165.529627,52.800000 166.523244,49.500000 C 167.516862,46.200000 169.605612,41.564941 171.164911,39.199868 C 172.724210,36.834795 174.000000,34.458547 174.000000,33.919317 C 174.000000,31.156314 187.084559,22.013091 191.050000,22.005123 C 192.452500,22.002306 194.084648,21.515352 194.676995,20.923005 C 195.446321,20.153679 197.003239,20.192190 200.126995,21.057814 C 205.942472,22.669341 210.000000,24.341859 210.000000,25.127480 C 210.000000,25.479072 210.801059,25.976219 211.780130,26.232252 C 212.759202,26.488285 215.009202,29.416259 216.780130,32.738861 C 220.260750,39.269173 221.039763,46.319642 218.875488,51.702947 C 214.971728,61.412957 214.105583,62.434688 207.030799,65.675294 C 201.538918,68.190850 201.464817,68.196537 196.500000,66.483412 C 188.308289,63.656839 184.626650,60.807786 183.468352,56.398813 C 181.276983,48.057535 185.346153,37.475763 190.463384,38.208412 C 193.049548,38.578680 193.668980,42.330063 191.652198,45.408061 C 189.346561,48.926907 190.579969,55.564723 193.990748,57.993412 C 201.180744,63.113141 209.479120,60.692437 213.144567,52.406088 C 215.484567,47.116128 215.096417,42.880554 211.646426,36.058089 C 208.976142,30.777520 205.388130,28.552266 198.175035,27.703248 C 191.662078,26.936640 187.332885,28.915469 181.696667,35.235338 C 177.858204,39.539392 172.000000,50.473598 172.000000,53.333950 C 172.000000,54.185359 171.550000,55.160081 171.000000,55.500000 C 170.450000,55.839919 170.000000,56.997582 170.000000,58.072586 C 170.000000,59.147589 169.560267,60.808532 169.022816,61.763569 C 168.485365,62.718606 166.881332,67.100000 165.458297,71.500000 C 164.035263,75.900000 161.809693,81.750000 160.512587,84.500000 C 159.215481,87.250000 157.399296,91.300000 156.476622,93.500000 C 151.930723,104.339116 141.341288,124.033245 139.001533,126.000000 C 136.971006,127.706824 129.000000,139.100453 129.000000,140.296033 C 129.000000,141.778847 119.439868,151.614705 116.279653,153.383250 C 115.313731,153.923808 113.645806,155.183714 112.573154,156.183041 C 111.500502,157.182368 110.294432,158.000000 109.892998,158.000000 C 109.491565,158.000000 108.223660,159.520076 107.075433,161.377947 C 104.864117,164.955932 92.640971,173.521730 84.840618,176.959774 C 82.277958,178.089279 78.002958,179.297751 75.340618,179.645266 C 72.678278,179.992782 69.825000,180.571487 69.000000,180.931277 C 68.175000,181.291068 64.800000,181.185692 61.500000,180.697109" fill="black" stroke="black" stroke-width="1"/>
</svg>
