<?xml version="1.0" encoding="utf-8" ?>
<svg xmlns="http://www.w3.org/2000/svg" xmlns:ev="http://www.w3.org/2001/xml-events" xmlns:xlink="http://www.w3.org/1999/xlink" baseProfile="full" height="219" version="1.1" width="253">
  <defs/>
  <path d="M 42.448840,176.709840 C 35.375848,173.615466 27.561061,167.164938 25.695588,162.881272 C 24.828842,160.890971 23.500982,158.640971 22.744788,157.881272 C 21.988593,157.121572 20.836664,153.837448 20.184945,150.583219 C 18.742594,143.381134 18.619509,127.353190 20.000000,126.500000 C 20.550000,126.160081 21.000000,124.777418 21.000000,123.427414 C 21.000000,122.077411 21.412463,120.191468 21.916585,119.236431 C 22.420707,118.281394 23.404646,115.966657 24.103115,114.092570 C 26.562865,107.492735 34.821349,96.221588 40.910067,91.154505 C 48.050591,85.212099 57.232777,80.719518 67.110423,78.335419 C 73.057672,76.899972 75.059666,76.818718 79.891330,77.816682 C 83.042313,78.467507 87.843303,79.002510 90.560195,79.005577 C 93.277088,79.008644 97.300000,79.467954 99.500000,80.026265 C 109.567698,82.581222 115.892164,84.495644 119.500000,86.080285 C 120.600000,86.563429 122.737500,87.406877 124.250000,87.954614 C 126.391297,88.730063 127.000000,89.594212 127.000000,91.858672 C 127.000000,94.219610 126.495067,94.863370 124.316635,95.279803 C 122.840784,95.561930 120.028284,95.102016 118.066635,94.257771 C 111.450513,91.410359 110.516511,91.073502 103.500000,89.004177 C 99.650000,87.868726 95.069512,86.485732 93.321137,85.930856 C 88.796876,84.495007 70.423083,84.567385 64.500000,86.044389 C 57.097279,87.890361 46.820407,93.490185 42.043215,98.280994 C 38.041565,102.294051 33.844291,109.897126 28.965061,121.971173 C 27.210151,126.313841 26.727905,129.629467 26.627056,138.045864 C 26.555424,144.023931 26.986909,149.707348 27.616204,151.074692 C 28.230116,152.408611 29.355116,154.840208 30.116204,156.478239 C 32.376591,161.343099 40.469862,168.406839 45.477444,169.885401 C 54.682934,172.603458 61.378814,172.800765 66.390432,170.501640 C 71.803593,168.018304 74.037482,165.807016 77.000607,159.998810 C 78.551328,156.959147 78.998438,154.814312 78.541255,152.608165 C 77.712419,148.608604 76.084582,138.695969 75.362287,133.250000 C 74.811508,129.097229 74.864973,129.000000 77.699306,129.000000 C 79.294688,129.000000 81.027500,128.603343 81.550000,128.118540 C 82.072500,127.633737 103.650000,126.938335 129.500000,126.573202 C 155.350000,126.208069 180.900355,125.846152 186.278566,125.768942 C 194.384457,125.652574 196.351593,125.927367 197.778566,127.375399 C 199.328975,128.948687 199.345003,129.240352 197.939891,130.311118 C 189.609042,136.659647 185.826108,141.920489 184.309387,149.266758 C 183.215320,154.565895 183.295650,155.364888 185.300024,159.120013 C 188.478743,165.075231 191.847013,167.098035 198.733412,167.187390 C 209.121651,167.322184 217.344284,161.472688 222.893716,150.000000 C 226.315113,142.926733 228.513054,122.053153 226.000000,120.500000 C 225.450000,120.160081 225.000000,119.207136 225.000000,118.382345 C 225.000000,114.727592 215.567356,105.831673 208.000000,102.349660 C 197.499420,97.517964 193.593303,96.200865 187.500000,95.437289 C 185.850000,95.230521 182.708683,94.765450 180.519296,94.403798 C 173.509277,93.245856 161.728784,93.200616 153.673213,94.300703 C 147.130965,95.194128 145.695114,95.134071 144.924467,93.934774 C 142.007978,89.396073 148.806041,86.970366 164.500000,86.949768 C 177.883108,86.932204 200.149097,90.720175 206.236431,94.050122 C 207.191468,94.572555 209.103968,95.000000 210.486431,95.000000 C 211.868894,95.000000 213.003075,95.337500 213.006833,95.750000 C 213.010591,96.162500 214.698091,97.623606 216.756833,98.996902 C 228.414047,106.772918 233.572369,115.463363 234.590624,129.042252 C 235.126618,136.189966 234.889841,138.486390 233.061962,143.868259 C 228.014064,158.730908 223.116273,165.375743 213.634486,170.225520 C 208.136083,173.037862 206.574198,173.366597 198.571429,173.395890 C 192.432539,173.418360 189.516392,173.049175 189.238095,172.214286 C 189.015476,171.546429 188.262575,171.000000 187.564981,171.000000 C 184.491025,171.000000 177.060993,161.688209 176.830297,157.546609 C 176.206756,146.352397 178.975653,137.698363 184.126716,134.742059 C 188.107489,132.457409 186.932015,130.921771 181.706492,131.580282 C 179.392921,131.871834 162.200000,132.551459 143.500000,133.090560 C 108.426790,134.101682 84.665228,135.026981 84.279286,135.396674 C 84.157893,135.512956 84.526979,138.058774 85.099477,141.054048 C 87.231956,152.211048 87.261993,154.184903 85.383401,159.711629 C 83.447759,165.406194 78.003091,171.912801 73.015214,174.492133 C 63.195474,179.570117 51.007932,180.454370 42.448840,176.709840" fill="black" stroke="black" stroke-width="1"/>
</svg>
