<?xml version="1.0" encoding="utf-8" ?>
<svg xmlns="http://www.w3.org/2000/svg" xmlns:ev="http://www.w3.org/2001/xml-events" xmlns:xlink="http://www.w3.org/1999/xlink" baseProfile="full" height="221" version="1.1" width="259">
  <defs/>
  <path d="M 177.026961,165.650025 C 170.887837,163.238335 163.000000,156.139595 163.000000,153.026316 C 163.000000,151.911842 162.608482,151.000000 162.129961,151.000000 C 160.190541,151.000000 158.779043,141.852376 159.167696,131.802182 C 159.657548,119.135100 160.608378,116.847373 174.408581,95.132113 C 175.935284,92.729775 179.611921,88.229775 182.578885,85.132113 C 185.545849,82.034451 187.979357,78.937500 187.986682,78.250000 C 188.004299,76.596513 184.944163,76.656383 182.472506,78.357881 C 180.607262,79.641923 176.863838,80.336319 165.644930,81.479353 C 157.246585,82.335016 141.014081,78.195116 136.513647,74.049780 C 135.406141,73.029659 132.818075,71.261956 130.762390,70.121550 C 126.985412,68.026246 120.901726,62.721958 111.591012,53.406268 C 106.069676,47.881983 100.024351,44.000000 96.942840,44.000000 C 95.874278,44.000000 95.000000,43.550000 95.000000,43.000000 C 95.000000,41.519166 89.752881,41.787479 85.714513,43.474818 C 81.546645,45.216264 78.000000,49.367581 78.000000,52.504587 C 78.000000,56.736661 81.866790,66.830992 85.429715,71.900005 C 87.393372,74.693721 89.000000,77.434104 89.000000,77.989744 C 89.000000,78.545385 89.340133,79.000000 89.755852,79.000000 C 90.171571,79.000000 91.550600,81.137500 92.820363,83.750000 C 94.090125,86.362500 95.956342,90.075000 96.967512,92.000000 C 99.746429,97.290324 101.765722,102.164127 102.560773,105.500000 C 102.954024,107.150000 103.676098,109.011016 104.165382,109.635592 C 105.481793,111.316003 106.690094,130.475069 105.650108,133.177719 C 103.707874,138.225079 100.644962,144.000000 99.910170,144.000000 C 99.483703,144.000000 98.866650,144.844788 98.538941,145.877307 C 97.591740,148.861674 87.517475,155.782289 81.011120,157.918215 C 71.502066,161.039877 62.280160,161.563822 54.299192,159.435862 C 50.559637,158.438786 47.275000,157.370323 47.000000,157.061499 C 46.725000,156.752674 44.856002,155.600000 42.846670,154.500000 C 38.795399,152.282148 32.000000,146.411101 32.000000,145.128759 C 32.000000,144.676252 31.103140,143.271931 30.006977,142.008045 C 25.725525,137.071489 24.762303,125.937791 27.856529,117.151428 C 30.952161,108.361071 42.651889,99.460144 50.164130,100.180237 C 52.862270,100.438870 53.437897,100.882347 53.175151,102.500000 C 52.713539,105.342009 49.025511,107.951717 45.433999,107.977764 C 42.146703,108.001605 37.438787,112.392312 34.245927,118.412010 C 32.221985,122.227873 32.267446,131.157481 34.335466,136.000000 C 36.317282,140.640659 41.649383,146.767329 45.389748,148.701546 C 47.046600,149.558338 48.987011,150.844154 49.701773,151.558916 C 50.416535,152.273678 53.541244,153.385765 56.645572,154.030221 C 65.705160,155.910984 79.321087,153.738238 84.095971,149.649856 C 85.155761,148.742435 86.365188,148.000000 86.783587,148.000000 C 88.575008,148.000000 95.000000,141.687306 95.000000,139.927196 C 95.000000,138.867238 95.388510,138.000000 95.863357,138.000000 C 97.540628,138.000000 99.295356,126.063001 98.686193,118.796915 C 98.232293,113.382796 97.167525,109.753875 94.293533,103.825940 C 92.207090,99.522413 90.162500,96.001043 89.750000,96.000673 C 89.337500,96.000303 89.000000,95.100000 89.000000,94.000000 C 89.000000,92.900000 88.550000,92.000000 88.000000,92.000000 C 87.450000,92.000000 87.000000,91.100000 87.000000,90.000000 C 87.000000,88.900000 86.550000,88.000000 86.000000,88.000000 C 85.450000,88.000000 85.000000,87.247933 85.000000,86.328741 C 85.000000,85.409548 84.357868,83.947048 83.573040,83.078741 C 82.788212,82.210433 80.003783,77.225000 77.385421,72.000000 C 72.854523,62.958493 72.621752,62.089769 72.562381,54.000000 C 72.488970,43.997079 73.886091,41.313681 80.921210,37.945516 C 90.739136,33.245042 106.649269,38.484628 118.243826,50.236744 C 121.684722,53.724398 126.300000,57.907738 128.500000,59.533056 C 130.700000,61.158374 132.864705,63.061995 133.310455,63.763325 C 134.684999,65.925993 150.192029,73.251330 156.000000,74.481596 C 162.021886,75.757175 177.729521,74.321274 183.500000,71.967706 C 185.150000,71.294731 188.075000,70.387129 190.000000,69.950812 C 195.700982,68.658638 201.541458,66.250901 205.513610,63.555326 C 209.820176,60.632812 211.000000,60.959335 211.000000,65.073715 C 211.000000,67.245563 210.247681,68.489591 208.163156,69.764698 C 201.533898,73.819824 195.214256,79.516834 185.887201,89.845951 C 184.450161,91.437381 182.200161,94.708071 180.887201,97.114151 C 179.574240,99.520231 177.821669,102.246526 176.992598,103.172584 C 175.486637,104.854717 168.190111,119.010071 166.103769,124.297053 C 164.248201,128.999234 164.781229,139.599996 167.232356,146.742178 C 169.921899,154.579063 174.495576,158.754658 183.356747,161.463139 C 190.681477,163.701996 197.551269,163.039057 203.568566,159.512685 C 207.899059,156.974848 213.000000,151.373278 213.000000,149.155609 C 213.000000,148.520024 213.373078,148.000000 213.829063,148.000000 C 214.790066,148.000000 218.447245,140.110240 219.855016,135.000000 C 220.385316,133.075000 221.309878,129.893051 221.909599,127.929002 C 223.469145,122.821581 223.252712,105.950170 221.500000,96.000000 C 219.393427,84.040957 219.399667,84.000000 223.328252,84.000000 C 226.508271,84.000000 226.708690,84.226086 227.828252,89.076290 C 229.169621,94.887419 229.441850,129.101331 228.158245,130.550000 C 227.695279,131.072500 226.742012,134.200000 226.039874,137.500000 C 224.716264,143.720874 222.172796,149.549684 219.214144,153.142379 C 213.904582,159.589785 209.778608,163.375555 205.688214,165.553040 C 201.703857,167.674077 199.853457,167.986684 191.795806,167.900025 C 184.827035,167.825078 181.129925,167.261831 177.026961,165.650025" fill="black" stroke="black" stroke-width="1"/>
</svg>
