<?xml version="1.0" encoding="utf-8" ?>
<svg xmlns="http://www.w3.org/2000/svg" xmlns:ev="http://www.w3.org/2001/xml-events" xmlns:xlink="http://www.w3.org/1999/xlink" baseProfile="full" height="217" version="1.1" width="256">
  <defs/>
  <path d="M 107.000000,195.234904 C 103.425000,195.089102 99.600000,194.560498 98.500000,194.060229 C 96.593777,193.193298 94.201855,192.593083 87.500000,191.299949 C 84.070011,190.638128 78.088017,186.789985 69.662554,179.825341 C 66.451959,177.171403 63.490500,175.000000 63.081534,175.000000 C 62.672568,175.000000 61.699419,173.803683 60.918980,172.341519 C 60.138541,170.879354 58.349589,168.449993 56.943531,166.942939 C 55.537474,165.435886 53.756345,162.244702 52.985468,159.851421 C 52.214590,157.458139 51.321130,155.275000 51.000000,155.000000 C 50.678870,154.725000 49.791442,152.475000 49.027937,150.000000 C 48.264432,147.525000 47.224248,144.947795 46.716416,144.272879 C 45.644404,142.848157 46.427195,120.910160 47.814453,113.500000 C 48.983717,107.254274 53.863990,93.993153 55.650813,92.206330 C 56.386536,91.470606 58.865376,87.635705 61.159346,83.684326 C 65.291633,76.566432 80.700256,60.145664 88.102658,54.971191 C 89.971196,53.665034 91.725000,52.313422 92.000000,51.967610 C 93.126057,50.551595 107.734004,41.278313 110.750000,40.064909 C 112.537500,39.345757 114.000000,38.361953 114.000000,37.878680 C 114.000000,37.395406 114.531110,37.000000 115.180245,37.000000 C 117.068124,37.000000 126.000000,32.725268 126.000000,31.821743 C 126.000000,31.369784 126.667831,31.000000 127.484070,31.000000 C 128.782125,31.000000 136.549292,27.526323 142.500000,24.284491 C 143.600000,23.685232 146.525000,22.642771 149.000000,21.967911 C 151.475000,21.293051 155.075000,20.042111 157.000000,19.188043 C 161.658927,17.121011 168.279831,15.816909 175.000000,15.642633 C 179.967889,15.513799 180.530468,15.714262 180.814919,17.714654 C 181.049307,19.362974 180.537864,20.041003 178.814919,20.366092 C 169.283085,22.164575 160.069785,24.470468 157.799660,25.625763 C 156.314473,26.381593 154.240182,27.000000 153.190125,27.000000 C 152.140068,27.000000 148.630221,28.286839 145.390465,29.859642 C 129.590753,37.529924 110.783957,47.113886 109.706045,48.044459 C 109.042720,48.617115 106.025000,50.640004 103.000000,52.539769 C 94.542641,57.851172 92.433088,59.632338 79.777840,72.147017 C 73.300028,78.552876 68.000000,84.515376 68.000000,85.397017 C 68.000000,86.278657 67.620748,87.000000 67.157218,87.000000 C 66.693687,87.000000 65.231187,89.137500 63.907218,91.750000 C 62.583248,94.362500 61.162500,96.650000 60.750000,96.833333 C 60.337500,97.016667 60.000000,98.029167 60.000000,99.083333 C 60.000000,100.137500 59.659565,101.000000 59.243479,101.000000 C 58.258914,101.000000 56.000000,108.260634 56.000000,111.425234 C 56.000000,112.776437 55.608809,114.123736 55.130686,114.419232 C 54.133905,115.035276 52.413465,131.757947 52.807561,137.000000 C 53.386355,144.698806 61.705246,163.395369 65.191788,164.833333 C 65.636305,165.016667 66.000000,165.762466 66.000000,166.490664 C 66.000000,169.101436 83.129210,183.000000 86.346842,183.000000 C 87.164412,183.000000 87.983333,183.337598 88.166667,183.750218 C 88.350000,184.162838 91.681926,185.512838 95.570947,186.750218 C 101.084531,188.504490 105.006530,189.000000 113.378127,189.000000 C 119.283055,189.000000 126.001129,188.584420 128.307180,188.076490 C 130.613231,187.568559 135.875000,186.639332 140.000000,186.011541 C 147.371759,184.889620 154.617854,182.508718 161.791705,178.851280 C 163.788854,177.833076 165.933598,177.000000 166.557804,177.000000 C 168.070476,177.000000 173.818368,174.102903 174.502771,172.995517 C 174.801163,172.512708 176.979322,171.151786 179.343123,169.971247 C 181.706924,168.790707 185.859231,165.851404 188.570471,163.439462 C 191.281712,161.027520 193.981349,159.041937 194.569665,159.027056 C 195.157980,159.012175 196.556428,157.987500 197.677326,156.750000 C 198.798225,155.512500 200.566876,153.755515 201.607662,152.845589 C 207.707389,147.512793 215.604637,136.181984 217.104883,130.610493 C 219.495792,121.731335 220.726526,104.326526 219.079918,102.679918 C 218.485963,102.085963 218.000000,100.115000 218.000000,98.300000 C 218.000000,96.485000 217.550000,95.000000 217.000000,95.000000 C 216.450000,95.000000 216.000000,94.544773 216.000000,93.988385 C 216.000000,91.938590 209.412389,83.089286 206.685420,81.475876 C 205.137401,80.559992 203.377669,78.728239 202.774905,77.405316 C 202.172141,76.082392 200.920339,75.000000 199.993123,75.000000 C 199.065907,75.000000 196.984878,74.340301 195.368613,73.534002 C 190.915253,71.312373 181.948328,70.584589 175.856149,71.950308 C 158.151365,75.919291 149.761767,82.186388 142.233414,97.066762 C 138.709869,104.031324 137.969717,106.474390 137.983414,111.095012 C 138.003609,117.907458 139.988409,120.352318 144.729021,119.404196 C 149.039248,118.542150 154.591155,112.355599 155.437885,107.471190 C 155.816516,105.287036 157.335386,101.032157 158.813152,98.015905 C 161.000504,93.551327 162.615425,91.843117 167.500000,88.827246 C 174.052294,84.781680 176.185990,84.402393 182.383980,86.181459 C 189.382448,88.190294 198.000000,95.283111 198.000000,99.034478 C 198.000000,100.115515 198.464469,101.000000 199.032153,101.000000 C 199.689796,101.000000 200.015527,105.184515 199.929871,112.532555 C 199.782547,125.170762 199.228233,126.907892 191.803266,138.000000 C 183.239030,150.794053 171.096968,159.771246 156.750000,163.916513 C 154.687500,164.512431 151.401258,165.487713 149.447239,166.083807 C 144.717914,167.526536 122.071683,167.641499 119.499344,166.235836 C 116.278392,164.475736 108.429377,161.000000 107.675618,161.000000 C 105.688944,161.000000 92.000000,147.169511 92.000000,145.162296 C 92.000000,144.692035 91.236878,142.777561 90.304172,140.907909 C 87.884887,136.058336 86.784627,129.888028 86.397659,119.000000 C 85.914616,105.408719 88.991931,94.119433 94.250000,90.193296 C 95.212500,89.474609 96.000000,88.204966 96.000000,87.371867 C 96.000000,86.538769 96.562500,85.269424 97.250000,84.551101 C 97.937500,83.832778 99.175000,82.254838 100.000000,81.044568 C 102.236102,77.764220 109.923800,69.990026 115.013995,65.861647 C 117.481298,63.860553 120.565950,61.286413 121.868778,60.141336 C 123.171606,58.996259 125.162012,57.765967 126.291903,57.407354 C 127.421794,57.048740 129.252872,55.910682 130.360966,54.878336 C 131.469060,53.845989 133.641154,52.441190 135.187841,51.756560 C 136.734528,51.071929 138.000000,50.243654 138.000000,49.915948 C 138.000000,49.588242 139.800000,48.726065 142.000000,48.000000 C 144.200000,47.273935 146.000000,46.301908 146.000000,45.839940 C 146.000000,45.377973 147.098442,45.000000 148.440983,45.000000 C 149.783524,45.000000 151.160081,44.550000 151.500000,44.000000 C 151.839919,43.450000 152.997582,43.000000 154.072586,43.000000 C 155.147589,43.000000 156.808532,42.588275 157.763569,42.085056 C 161.154652,40.298258 175.583366,35.111754 181.000000,33.732555 C 187.262352,32.138017 193.610497,32.542588 194.394707,34.586207 C 195.062664,36.326875 192.747811,37.560842 187.038621,38.507481 C 179.936473,39.685085 169.953487,42.996397 162.000000,46.812680 C 159.525000,48.000248 155.025000,49.990718 152.000000,51.235947 C 144.902271,54.157699 131.596144,61.576764 129.996240,63.504530 C 129.313619,64.327039 128.135211,65.000000 127.377555,65.000000 C 126.619900,65.000000 126.000000,65.450000 126.000000,66.000000 C 126.000000,66.550000 125.409853,67.000000 124.688561,67.000000 C 123.967270,67.000000 122.504770,67.787968 121.438561,68.751040 C 120.372353,69.714113 117.943350,71.789283 116.040777,73.362530 C 111.071644,77.471531 100.859195,90.096903 98.401772,95.169149 C 94.189853,103.862765 93.526765,107.177487 93.734596,118.500000 C 94.148659,141.057987 101.149341,151.796078 120.436815,159.457560 C 124.976773,161.260948 129.309524,162.231276 132.976355,162.265816 C 138.573123,162.318534 151.954545,159.718507 155.236431,157.940654 C 156.191468,157.423294 157.653968,157.000000 158.486431,157.000000 C 159.318894,157.000000 160.000000,156.550000 160.000000,156.000000 C 160.000000,155.450000 160.900000,155.000000 162.000000,155.000000 C 163.100000,155.000000 164.000000,154.636602 164.000000,154.192448 C 164.000000,153.748294 165.870892,152.559460 168.157538,151.550594 C 171.997560,149.856381 174.324724,148.044181 181.000000,141.549967 C 182.375000,140.212263 184.618368,136.953777 185.985263,134.308889 C 187.352158,131.664000 189.038982,128.906033 189.733762,128.180073 C 190.428541,127.454113 191.238280,125.654113 191.533182,124.180073 C 191.828084,122.706033 192.503759,120.118051 193.034683,118.429002 C 195.156823,111.677759 193.427442,101.682140 189.226278,96.416871 C 187.726825,94.537624 185.739058,93.000046 184.809017,93.000029 C 183.878976,93.000013 182.839919,92.550000 182.500000,92.000000 C 181.411226,90.238327 173.978400,90.879192 171.013516,92.990376 C 168.447306,94.817678 162.000000,106.302881 162.000000,109.047013 C 162.000000,109.692180 160.564923,112.912525 158.810940,116.203334 C 155.435560,122.536196 151.663909,125.999482 146.122611,127.854285 C 143.202956,128.831563 142.209122,128.683471 138.789598,126.761591 C 133.535806,123.808795 132.000000,119.865675 132.000000,109.329570 C 132.000000,103.128386 132.488881,99.925927 133.851418,97.201694 C 139.951891,85.004509 143.689302,80.265813 151.000000,75.458856 C 153.475000,73.831485 156.353587,71.729983 157.396861,70.788850 C 158.440134,69.847718 161.815134,68.568204 164.896861,67.945487 C 167.978587,67.322769 171.533674,66.405286 172.797053,65.906636 C 177.566882,64.024007 196.104085,65.537377 198.000000,67.964194 C 198.275000,68.316201 200.076254,69.336583 202.002787,70.231710 C 208.415262,73.211146 213.827602,77.855871 217.935045,83.904350 C 220.170770,87.196601 222.000000,90.724952 222.000000,91.745131 C 222.000000,92.765309 222.410617,94.027500 222.912483,94.550000 C 224.052382,95.736766 225.995295,111.480106 225.991606,119.500000 C 225.988772,125.661639 224.811307,131.595024 222.717223,136.000000 C 221.513820,138.531400 217.957859,144.082382 216.951820,145.000000 C 216.650322,145.275000 215.352549,147.004111 214.067882,148.842469 C 209.225117,155.772464 198.873072,165.138607 190.130629,170.500000 C 189.233783,171.050000 188.275000,171.725000 188.000000,172.000000 C 186.787627,173.212373 181.242003,176.644976 178.500000,177.880264 C 176.850000,178.623597 174.825000,179.627041 174.000000,180.110139 C 172.158869,181.188255 164.312768,184.874090 161.250000,186.099660 C 160.012500,186.594847 157.987500,187.441147 156.750000,187.980327 C 146.587363,192.408197 122.787112,195.878765 107.000000,195.234904" fill="black" stroke="black" stroke-width="1"/>
</svg>
