<?xml version="1.0" encoding="utf-8" ?>
<svg xmlns="http://www.w3.org/2000/svg" xmlns:ev="http://www.w3.org/2001/xml-events" xmlns:xlink="http://www.w3.org/1999/xlink" baseProfile="full" height="215" version="1.1" width="258">
  <defs/>
  <path d="M 106.750000,161.068873 C 105.237500,158.930239 104.000000,156.689847 104.000000,156.090224 C 104.000000,155.490601 103.550000,155.000000 103.000000,155.000000 C 102.450000,155.000000 102.000000,154.409853 102.000000,153.688561 C 102.000000,152.967270 101.212500,151.502260 100.250000,150.432983 C 99.287500,149.363706 97.408560,146.466353 96.074578,143.994421 C 94.740596,141.522490 93.390596,139.275000 93.074578,139.000000 C 92.758560,138.725000 92.007757,137.600000 91.406128,136.500000 C 88.805641,131.745356 87.467348,129.467348 87.000000,129.000000 C 86.725000,128.725000 85.937500,127.487500 85.250000,126.250000 C 84.562500,125.012500 83.437500,122.987500 82.750000,121.750000 C 82.062500,120.512500 81.275000,119.275000 81.000000,119.000000 C 79.817985,117.817985 78.000000,113.908561 78.000000,112.548753 C 78.000000,111.735641 77.100000,110.588702 76.000000,110.000000 C 73.925567,108.889797 73.357742,106.101508 74.869763,104.450000 C 75.633548,103.615754 78.012192,99.286256 86.379779,83.500000 C 87.545901,81.300000 88.725717,79.275000 89.001594,79.000000 C 89.277471,78.725000 90.172777,77.150000 90.991163,75.500000 C 91.809548,73.850000 93.789278,70.250000 95.390563,67.500000 C 96.991848,64.750000 99.696542,60.003547 101.400995,56.952326 C 107.523098,45.992865 106.728340,46.489035 118.010883,46.582713 C 126.168352,46.650444 128.337552,46.995506 129.986409,48.487700 C 131.093884,49.489952 132.000000,50.915231 132.000000,51.654988 C 132.000000,52.394744 132.397516,53.000000 132.883369,53.000000 C 133.369221,53.000000 134.016480,53.787500 134.321721,54.750000 C 134.994986,56.872971 138.034537,61.935718 139.749290,63.790285 C 140.436400,64.533419 142.223674,67.247114 143.721012,69.820719 C 145.218349,72.394323 146.802839,74.950000 147.242100,75.500000 C 150.395912,79.448893 164.080342,101.471925 164.554745,103.362099 C 164.956078,104.961135 163.947729,108.078577 161.402826,113.106666 C 159.344704,117.173000 157.366049,120.725000 157.005815,121.000000 C 156.645581,121.275000 155.259404,123.525000 153.925422,126.000000 C 152.591440,128.475000 151.275000,130.725000 151.000000,131.000000 C 150.725000,131.275000 149.556784,133.300000 148.403964,135.500000 C 146.098045,139.900534 143.886873,143.789546 139.139697,151.794006 C 137.412864,154.705710 136.000000,157.518210 136.000000,158.044006 C 136.000000,158.569803 135.659850,159.000000 135.244111,159.000000 C 134.828373,159.000000 133.890655,160.350000 133.160294,162.000000 L 131.832365,165.000000 L 120.666182,164.978649 L 109.500000,164.957297 L 106.750000,161.068873" fill="none" stroke="black" stroke-width="5"/>
</svg>
