<?xml version="1.0" encoding="utf-8" ?>
<svg xmlns="http://www.w3.org/2000/svg" xmlns:ev="http://www.w3.org/2001/xml-events" xmlns:xlink="http://www.w3.org/1999/xlink" baseProfile="full" height="216" version="1.1" width="260">
  <defs/>
  <path d="M 120.250000,213.277624 C 117.912500,213.061683 116.000000,212.460878 116.000000,211.942502 C 116.000000,211.424126 113.551558,211.000000 110.559017,211.000000 C 107.566476,211.000000 104.839919,210.550000 104.500000,210.000000 C 104.160081,209.450000 102.783524,209.000000 101.440983,209.000000 C 100.098442,209.000000 99.000000,208.550000 99.000000,208.000000 C 99.000000,207.450000 98.325000,207.000000 97.500000,207.000000 C 96.675000,207.000000 96.000000,206.550000 96.000000,206.000000 C 96.000000,205.450000 95.310877,205.000000 94.468615,205.000000 C 93.626354,205.000000 92.664981,204.290528 92.332231,203.423396 C 91.999481,202.556264 90.677538,201.447699 89.394580,200.959919 C 85.628533,199.528071 80.000000,187.322144 80.000000,180.587017 C 80.000000,174.211763 82.262866,163.722592 84.934224,157.715167 C 85.965136,155.396825 87.588291,151.475000 88.541236,149.000000 C 89.494181,146.525000 91.106454,142.604724 92.124063,140.288276 C 93.213576,137.808149 94.020557,133.491206 94.086863,129.788276 C 94.203854,123.254750 93.520225,121.153264 86.511009,106.500000 C 78.711213,90.193970 76.133726,84.247341 75.024940,80.000000 C 74.378831,77.525000 73.433902,73.872791 72.925098,71.883980 C 71.647721,66.890974 71.767347,58.538953 73.186750,53.616020 C 75.523201,45.512478 84.798106,35.000000 89.611213,35.000000 C 90.836719,35.000000 91.967520,34.232205 92.232097,33.220464 C 92.558297,31.973069 95.807792,30.422100 103.098728,28.033870 C 108.819428,26.159989 114.060931,24.206983 114.746512,23.693857 C 116.543953,22.348555 153.337426,22.235489 155.092683,23.569873 C 155.866707,24.158303 158.525000,25.254515 161.000000,26.005899 C 177.670611,31.066921 183.229706,38.360344 183.834738,55.964624 C 184.139792,64.840624 183.843303,67.497282 181.881700,73.464624 C 180.609720,77.334081 179.305036,80.725000 178.982402,81.000000 C 178.659767,81.275000 177.631740,83.187500 176.697897,85.250000 C 175.764053,87.312500 174.227710,90.687500 173.283800,92.750000 C 172.339890,94.812500 170.534924,97.625000 169.272765,99.000000 C 168.010605,100.375000 166.727570,102.287500 166.421577,103.250000 C 166.115583,104.212500 165.445549,105.000000 164.932612,105.000000 C 164.419676,105.000000 164.000000,105.481421 164.000000,106.069825 C 164.000000,106.658228 162.703899,109.023468 161.119775,111.325913 C 154.114059,121.508372 151.759245,131.076056 154.743114,137.234479 C 155.346842,138.480516 156.510830,141.525000 157.329755,144.000000 C 159.533245,150.659507 164.621016,164.365794 166.303015,168.173664 C 171.863519,180.762065 172.346268,182.873337 171.023474,188.818269 C 169.681028,194.851519 167.421550,198.748338 162.623297,203.305666 C 158.855164,206.884597 155.216670,208.378867 146.500000,209.927239 C 142.650000,210.611127 138.150000,211.545841 136.500000,212.004380 C 132.248345,213.185925 125.219200,213.736683 120.250000,213.277624" fill="none" stroke="black" stroke-width="5"/>
</svg>
