<?xml version="1.0" encoding="utf-8" ?>
<svg baseProfile="full" height="219" version="1.1" width="260" xmlns="http://www.w3.org/2000/svg" xmlns:ev="http://www.w3.org/2001/xml-events" xmlns:xlink="http://www.w3.org/1999/xlink"><defs /><rect fill="white" height="219" width="260" x="0" y="0" /><path d="M 39,176 L 41,184 L 45,190 L 42,185 Z" fill="none" stroke="black" stroke-width="5" /><path d="M 124,153 L 112,156 L 95,197 L 86,206 L 109,195 Z" fill="none" stroke="black" stroke-width="5" /><path d="M 181,39 L 125,119 L 66,43 L 43,162 L 60,198 L 87,198 L 116,146 L 169,146 Z" fill="none" stroke="black" stroke-width="5" /><path d="M 188,37 L 185,111 L 174,149 L 186,144 L 196,107 L 200,56 Z" fill="none" stroke="black" stroke-width="5" /><path d="M 83,37 L 101,71 L 107,105 L 117,113 L 130,110 L 119,101 L 106,46 Z" fill="none" stroke="black" stroke-width="5" /><path d="M 0,0 L 0,218 L 259,218 L 259,0 Z" fill="none" stroke="black" stroke-width="5" /></svg>