<?xml version="1.0" encoding="utf-8" ?>
<svg xmlns="http://www.w3.org/2000/svg" xmlns:ev="http://www.w3.org/2001/xml-events" xmlns:xlink="http://www.w3.org/1999/xlink" baseProfile="full" height="215" version="1.1" width="258">
  <defs/>
  <path d="M 97.250000,194.601809 C 94.362500,194.070077 92.000000,193.267143 92.000000,192.817511 C 92.000000,192.367880 90.901558,192.000000 89.559017,192.000000 C 88.216476,192.000000 86.839919,191.550000 86.500000,191.000000 C 86.160081,190.450000 85.043050,190.000000 84.017708,190.000000 C 82.992367,190.000000 80.831376,188.887548 79.215508,187.527884 C 77.599639,186.168220 75.974283,185.359050 75.603605,185.729728 C 75.232927,186.100406 73.802264,185.187859 72.424353,183.701844 C 71.046443,182.215830 69.563314,181.000000 69.128511,181.000000 C 68.693707,181.000000 67.713211,179.762500 66.949630,178.250000 C 66.186048,176.737500 64.872508,174.734103 64.030650,173.798007 C 61.099311,170.538529 60.479037,169.451735 57.068780,161.599973 C 53.726580,153.904904 53.641080,153.375530 53.773225,141.195528 C 53.851087,134.018896 54.354372,128.245628 54.954445,127.645555 C 55.529500,127.070500 56.000000,125.034449 56.000000,123.120998 C 56.000000,121.207547 56.417378,118.260047 56.927507,116.570998 C 57.437635,114.881949 58.866694,110.125000 60.103193,106.000000 C 62.299053,98.674539 70.092125,82.352692 73.254895,78.455012 C 82.084886,67.573263 86.079317,63.090245 94.707705,54.378155 C 104.634588,44.354975 113.399825,37.557802 120.056013,34.721316 C 121.950206,33.914120 124.544765,32.328341 125.821700,31.197363 C 127.098634,30.066385 130.600426,28.368210 133.603459,27.423640 C 136.606492,26.479070 139.300785,25.322336 139.590777,24.853120 C 139.880768,24.383904 141.126476,24.000000 142.359017,24.000000 C 143.591558,24.000000 145.081690,23.518310 145.670421,22.929579 C 146.259153,22.340847 152.311653,21.067403 159.120421,20.099703 C 171.828822,18.293514 174.443161,18.449978 187.000000,21.768244 C 190.635946,22.729079 200.158153,27.301977 202.753365,29.333564 C 206.680160,32.407542 210.000000,36.388095 210.000000,38.022422 C 210.000000,39.018423 210.337500,39.983333 210.750000,40.166667 C 212.360777,40.882567 216.000000,49.358723 216.000000,52.394501 C 216.000000,54.157525 216.518644,56.118644 217.152542,56.752542 C 218.718331,58.318331 218.673981,78.786414 217.088086,86.500000 C 211.515939,113.602192 200.574994,137.517321 188.250000,149.535375 C 187.012500,150.742057 186.000000,152.070451 186.000000,152.487362 C 186.000000,153.706023 172.758021,166.054280 169.799702,167.594277 C 168.314539,168.367400 166.739539,169.593381 166.299702,170.318679 C 165.400118,171.802108 158.056039,176.799813 153.500000,179.028980 C 151.850000,179.836287 150.275000,180.722529 150.000000,180.998406 C 148.849206,182.152869 140.700118,186.000000 139.405499,186.000000 C 138.632475,186.000000 138.000000,186.398925 138.000000,186.886501 C 138.000000,187.374076 136.762500,188.012036 135.250000,188.304190 C 133.737500,188.596344 130.925000,189.303428 129.000000,189.875487 C 120.647556,192.357615 109.229599,195.049952 106.000000,195.298854 C 104.075000,195.447212 100.137500,195.133542 97.250000,194.601809" fill="none" stroke="black" stroke-width="5"/>
</svg>
