<?xml version="1.0" encoding="utf-8" ?>
<svg xmlns="http://www.w3.org/2000/svg" xmlns:ev="http://www.w3.org/2001/xml-events" xmlns:xlink="http://www.w3.org/1999/xlink" baseProfile="full" height="217" version="1.1" width="256">
  <defs/>
  <path d="M 76.984027,187.525261 C 76.975242,186.961368 75.737742,185.101269 74.234027,183.391709 C 72.730312,181.682150 70.375000,178.768513 69.000000,176.916962 C 67.625000,175.065411 63.498072,170.389142 59.829049,166.525253 C 56.160025,162.661364 52.110025,158.236460 50.829049,156.692132 C 49.548072,155.147805 46.925000,152.188145 45.000000,150.115111 L 41.500000,146.345956 L 41.500000,113.852902 C 41.500000,84.240985 41.655171,81.204557 43.250000,79.608496 C 44.212500,78.645252 45.007029,77.551786 45.015620,77.178571 C 45.024212,76.805357 46.820055,74.475000 49.006385,72.000000 C 51.192714,69.525000 53.241009,66.712500 53.558152,65.750000 C 53.875295,64.787500 54.548806,64.000000 55.054843,64.000000 C 55.560880,64.000000 57.065836,62.271863 58.399189,60.159695 C 59.732542,58.047527 61.425687,55.674159 62.161734,54.885543 C 62.897780,54.096927 65.502178,50.987564 67.949284,47.975848 C 76.191551,37.831880 70.447088,38.807417 124.644972,38.347657 C 156.659539,38.076078 173.280681,38.288881 174.973075,38.992013 C 176.362884,39.569433 178.288004,41.269946 179.251121,42.770933 C 182.106791,47.221406 185.876829,52.195889 190.030118,56.993588 C 192.175738,59.472115 196.307516,64.650000 199.211846,68.500000 C 202.116176,72.350000 204.719146,75.728900 204.996223,76.008667 C 210.493356,81.559165 210.149476,79.150837 210.181796,112.325321 C 210.205306,136.457395 209.927265,143.259334 208.855772,144.764897 C 206.420856,148.186215 197.870506,158.032843 189.000000,167.630909 C 186.525000,170.308909 182.094879,175.493188 179.155288,179.151528 C 175.884138,183.222494 172.780416,186.058024 171.155288,186.460248 C 169.694879,186.821704 152.525000,187.321569 133.000000,187.571061 C 113.475000,187.820553 92.887500,188.142997 87.250000,188.287603 C 80.751527,188.454293 76.994154,188.175275 76.984027,187.525261" fill="none" stroke="black" stroke-width="5"/>
</svg>
