<?xml version="1.0" encoding="utf-8" ?>
<svg baseProfile="full" height="217" version="1.1" width="261" xmlns="http://www.w3.org/2000/svg" xmlns:ev="http://www.w3.org/2001/xml-events" xmlns:xlink="http://www.w3.org/1999/xlink"><defs /><rect fill="white" height="217" width="261" x="0" y="0" /><path d="M 201,154 L 203,198 L 210,199 L 210,155 Z" fill="none" stroke="black" stroke-width="5" /><path d="M 144,103 L 145,148 L 154,150 L 153,103 Z" fill="none" stroke="black" stroke-width="5" /><path d="M 192,40 L 56,42 L 58,98 L 107,105 L 62,198 L 198,197 L 137,118 L 195,96 Z" fill="none" stroke="black" stroke-width="5" /><path d="M 198,38 L 199,99 L 207,99 L 206,39 Z" fill="none" stroke="black" stroke-width="5" /><path d="M 48,34 L 213,34 L 214,105 L 158,128 L 214,205 L 53,206 L 51,149 L 100,144 Z" fill="none" stroke="black" stroke-width="5" /><path d="M 0,0 L 0,216 L 260,216 L 260,0 Z" fill="none" stroke="black" stroke-width="5" /></svg>