<?xml version="1.0" encoding="utf-8" ?>
<svg xmlns="http://www.w3.org/2000/svg" xmlns:ev="http://www.w3.org/2001/xml-events" xmlns:xlink="http://www.w3.org/1999/xlink" baseProfile="full" height="219" version="1.1" width="256">
  <defs/>
  <path d="M 166.500000,163.052317 C 162.676698,162.415631 156.132306,159.729480 153.052156,157.532639 C 152.255841,156.964688 148.268526,153.176327 144.191456,149.114059 C 134.555653,139.513242 129.146533,128.734966 127.550521,115.955135 C 126.023265,103.725862 128.027297,97.914498 135.024809,94.280921 C 138.616763,92.415738 140.271248,92.160990 145.399146,92.683544 C 148.754616,93.025481 151.725000,93.574066 152.000000,93.902623 C 152.843488,94.910384 156.910652,97.000000 158.028637,97.000000 C 159.341749,97.000000 160.931832,98.243084 167.302429,104.250000 C 170.073099,106.862500 172.601009,109.012104 172.920006,109.026897 C 173.239003,109.041691 174.602963,110.841691 175.951028,113.026897 C 177.299094,115.212104 178.761594,117.000000 179.201028,117.000000 C 179.640463,117.000000 180.000000,117.605863 180.000000,118.346362 C 180.000000,119.086861 180.724452,121.144923 181.609893,122.919832 C 185.949427,131.618632 187.623485,150.959845 184.551112,156.901160 C 181.827595,162.167862 175.052537,164.476554 166.500000,163.052317" fill="none" stroke="black" stroke-width="5"/>
  <path d="M 210.160081,94.760081 C 209.522037,94.122037 208.955144,92.227500 208.900320,90.550000 C 208.666140,83.384580 207.933882,82.543110 201.460008,82.000000 C 197.051112,81.630127 195.500000,81.109620 195.500000,80.000000 C 195.500000,78.839767 196.591153,78.556449 200.317216,78.749211 C 207.605908,79.126279 208.886214,78.045817 208.601839,71.757734 C 208.321372,65.556061 208.723569,64.000000 210.606989,64.000000 C 212.162095,64.000000 212.233138,64.382283 212.019632,71.601498 C 211.878610,76.369829 212.061935,76.783014 214.826724,77.928227 C 216.859116,78.770071 218.835334,78.865983 221.142346,78.234744 C 225.033064,77.170175 227.000000,77.602442 227.000000,79.522060 C 227.000000,81.114398 219.273166,82.538863 216.099538,81.531592 C 213.315385,80.647936 211.617903,84.923246 212.474638,90.661332 C 213.123069,95.004280 212.141861,96.741861 210.160081,94.760081" fill="none" stroke="black" stroke-width="5"/>
  <path d="M 81.605727,43.750000 C 78.212274,40.791250 77.861286,40.003826 77.689117,34.963290 C 77.532175,30.368553 77.925331,28.909402 80.000000,26.386730 C 82.596899,23.229057 87.963852,20.973934 92.734251,21.035963 C 97.671841,21.100166 104.000000,28.503135 104.000000,34.215149 C 104.000000,36.960575 100.424530,43.948731 98.123624,45.700362 C 97.230631,46.380179 93.987474,46.950705 90.916610,46.968197 C 86.025476,46.996057 84.871067,46.597049 81.605727,43.750000" fill="none" stroke="black" stroke-width="5"/>
</svg>
