<?xml version="1.0" encoding="utf-8" ?>
<svg xmlns="http://www.w3.org/2000/svg" xmlns:ev="http://www.w3.org/2001/xml-events" xmlns:xlink="http://www.w3.org/1999/xlink" baseProfile="full" height="214" version="1.1" width="255">
  <defs/>
  <path d="M 90.875006,150.541673 C 90.622927,150.289593 87.285427,149.635169 83.458340,149.087396 C 72.441636,147.510570 68.018517,146.479988 60.004350,143.622641 C 50.225051,140.135959 47.000000,138.681017 47.000000,137.755889 C 47.000000,137.340150 46.388355,137.000000 45.640790,137.000000 C 44.893224,137.000000 42.301917,135.257431 39.882329,133.127625 C 34.297344,128.211524 32.338487,122.181191 34.249799,115.787897 C 36.687357,107.634320 48.699767,98.304761 63.654248,92.950637 C 66.869411,91.799518 70.400000,90.452012 71.500000,89.956179 C 79.284724,86.447157 121.637425,83.237425 124.350838,85.950838 C 124.927877,86.527877 127.191778,87.000000 129.381729,87.000000 C 133.260714,87.000000 146.490838,91.104967 150.500000,93.552457 C 151.600000,94.223978 154.784694,95.509711 157.577099,96.409640 C 160.944701,97.494944 164.732658,99.936528 168.827099,103.660995 C 174.321174,108.658627 175.000000,109.693649 175.000000,113.072958 C 175.000000,115.161221 174.520214,118.136596 173.933808,119.684900 C 172.643418,123.091956 164.735044,131.000000 162.618236,131.000000 C 161.782865,131.000000 160.733318,131.654117 160.285909,132.453593 C 159.495194,133.866523 155.413605,136.261047 144.013569,142.000000 C 142.921032,142.550000 140.971032,143.000000 139.680236,143.000000 C 138.389439,143.000000 137.007818,143.325515 136.609966,143.723367 C 135.942110,144.391223 124.815674,147.462891 119.000000,148.584939 C 117.625000,148.850224 114.101338,149.582686 111.169641,150.212631 C 106.935532,151.122430 105.676301,151.094278 105.046815,150.075748 C 104.445714,149.103146 103.756551,149.059922 102.192915,149.896755 C 100.179757,150.974164 91.785803,151.452469 90.875006,150.541673" fill="none" stroke="black" stroke-width="5"/>
  <path d="M 230.067704,122.126507 C 229.480467,121.029244 229.000000,118.036507 229.000000,115.475981 L 229.000000,110.820478 L 222.063998,111.140904 C 214.578285,111.486725 213.003888,110.905168 214.979944,108.524166 C 215.819602,107.512440 218.011710,107.000000 221.500000,107.000000 C 228.701862,107.000000 229.715457,105.650829 227.972365,98.384803 C 226.837185,93.652845 226.850431,92.710473 228.062648,91.961281 C 230.348703,90.548422 231.461626,92.622548 232.000000,99.299222 L 232.500000,105.500000 L 239.408332,105.500000 C 244.040111,105.500000 246.456660,105.911748 246.741490,106.749474 C 247.312472,108.428813 245.250236,109.100163 238.851902,109.317885 L 233.500000,109.500000 L 233.457496,116.430835 C 233.413562,123.594756 232.065614,125.859636 230.067704,122.126507" fill="none" stroke="black" stroke-width="5"/>
  <path d="M 176.000000,60.902614 C 174.075000,59.753163 171.722506,57.842345 170.772236,56.656352 C 168.898529,54.317855 168.380217,47.501081 170.000000,46.500000 C 170.550000,46.160081 171.000000,45.031425 171.000000,43.991874 C 171.000000,39.766402 182.450667,34.684109 184.500000,38.000000 C 184.839919,38.550000 186.146732,39.000000 187.404029,39.000000 C 191.014487,39.000000 195.000000,45.140244 195.000000,50.702662 C 195.000000,55.877382 187.346371,63.005278 181.799660,62.996262 C 180.534847,62.994206 177.925000,62.052064 176.000000,60.902614" fill="none" stroke="black" stroke-width="5"/>
</svg>
