<?xml version="1.0" encoding="utf-8" ?>
<svg xmlns="http://www.w3.org/2000/svg" xmlns:ev="http://www.w3.org/2001/xml-events" xmlns:xlink="http://www.w3.org/1999/xlink" baseProfile="full" height="217" version="1.1" width="260">
  <defs/>
  <path d="M 85.500000,149.411155 C 73.721179,148.303487 60.800284,145.522779 52.500000,142.309221 C 50.300000,141.457464 47.600000,140.411247 46.500000,139.984295 C 39.557583,137.289678 27.080310,130.368077 24.799090,127.946005 C 21.722553,124.679510 19.574735,117.961796 20.564283,114.700834 C 21.932120,110.193257 26.133476,106.122407 33.182599,102.474482 C 37.173252,100.409317 41.928395,97.882718 43.749583,96.859818 C 45.570770,95.836918 48.145588,95.000000 49.471399,95.000000 C 50.797211,95.000000 52.129353,94.599720 52.431715,94.110488 C 52.734076,93.621256 54.448134,92.982839 56.240732,92.691782 C 58.033329,92.400725 62.412098,91.486002 65.971328,90.659065 C 69.530559,89.832128 72.680559,89.293465 72.971328,89.462036 C 73.262098,89.630607 76.055675,89.251359 79.179279,88.619264 C 89.691483,86.492003 116.286052,89.397782 129.000000,94.062781 C 136.471739,96.804311 138.000000,97.514329 138.000000,98.244111 C 138.000000,98.659850 138.787500,99.000355 139.750000,99.000789 C 142.225531,99.001905 153.163715,104.400060 155.215125,106.633056 C 156.158443,107.659875 157.811159,109.329596 158.887825,110.343546 C 159.964492,111.357497 161.364508,114.350972 161.998972,116.995714 C 162.984136,121.102340 162.901466,122.293075 161.432687,125.152168 C 159.746686,128.434099 153.322866,134.876241 151.654370,134.958373 C 151.189274,134.981268 149.614274,135.836502 148.154370,136.858893 C 145.487077,138.726836 133.525349,143.397052 127.000000,145.118191 C 115.694714,148.100096 94.677613,150.274208 85.500000,149.411155" fill="none" stroke="black" stroke-width="5"/>
  <path d="M 230.379258,134.900002 C 225.466526,132.515242 222.330380,126.815341 223.453164,122.311925 C 224.606072,117.687683 227.142401,113.000000 228.491497,113.000000 C 229.186484,113.000000 230.260468,112.391081 230.878127,111.646848 C 231.663326,110.700741 233.580241,110.434604 237.250572,110.762123 C 241.371686,111.129867 243.198557,111.892760 245.750000,114.311443 C 248.672159,117.081551 249.000000,117.964186 249.000000,123.061308 C 249.000000,129.699476 246.827393,133.209626 241.285487,135.525182 C 236.763794,137.414467 235.397889,137.336169 230.379258,134.900002" fill="none" stroke="black" stroke-width="5"/>
  <path d="M 256.335833,90.432783 C 255.502373,88.260821 257.618268,86.218268 259.132783,87.732783 C 260.412816,89.012816 259.619834,92.000000 258.000000,92.000000 C 257.415477,92.000000 256.666601,91.294752 256.335833,90.432783" fill="none" stroke="black" stroke-width="5"/>
  <path d="M 13.687500,88.354167 C 13.309375,87.976042 13.000000,85.293224 13.000000,82.392350 C 13.000000,79.491476 12.497957,76.807754 11.884348,76.428523 C 11.270740,76.049292 8.319815,75.761018 5.326738,75.787913 C 0.770606,75.828853 -0.063719,75.565235 0.201177,74.168407 C 0.441303,72.902193 1.961841,72.379468 6.508788,72.000000 L 12.500000,71.500000 L 12.673308,67.000000 C 12.768628,64.525000 12.881128,61.937500 12.923308,61.250000 C 12.965489,60.562500 13.675000,60.000000 14.500000,60.000000 C 15.325000,60.000000 16.047835,60.562500 16.106299,61.250000 C 16.164764,61.937500 16.312791,63.175000 16.435249,64.000000 C 16.557707,64.825000 16.734872,66.665268 16.828950,68.089485 C 17.027441,71.094397 20.467727,73.108320 23.500000,71.994678 C 26.040482,71.061653 30.301103,72.598661 29.748354,74.248756 C 29.485765,75.032652 27.419181,75.500000 24.215436,75.500000 C 21.402859,75.500000 18.654564,75.950000 18.108113,76.500000 C 17.561663,77.050000 16.976289,79.939629 16.807284,82.921397 C 16.522256,87.950135 15.340817,90.007484 13.687500,88.354167" fill="none" stroke="black" stroke-width="5"/>
</svg>
