<?xml version="1.0" encoding="utf-8" ?>
<svg xmlns="http://www.w3.org/2000/svg" xmlns:ev="http://www.w3.org/2001/xml-events" xmlns:xlink="http://www.w3.org/1999/xlink" baseProfile="full" height="216" version="1.1" width="256">
  <defs/>
  <path d="M 138.899668,156.008698 C 133.907657,153.370235 131.802072,149.767849 131.847193,143.942816 C 131.895245,137.739275 134.037550,134.532978 139.537978,132.432346 C 145.349582,130.212874 149.967819,131.160833 154.592542,135.522508 C 158.119186,138.848561 158.228647,139.162232 157.822435,144.778055 C 157.295590,152.061612 154.982670,155.322366 149.256871,156.853784 C 143.746876,158.327483 143.202857,158.283094 138.899668,156.008698" fill="none" stroke="black" stroke-width="5"/>
  <path d="M 159.807755,89.474422 C 159.449140,89.115807 157.227113,88.389064 154.869916,87.859437 C 144.938869,85.628079 135.463170,80.469621 128.498413,73.503104 C 122.850572,67.853834 121.567318,66.149944 118.328803,60.000000 C 114.198389,52.156339 120.424103,42.582689 131.981266,39.005798 C 144.358767,35.175017 158.128125,36.096764 169.777335,41.535940 C 172.679870,42.891173 175.454870,44.000000 175.944002,44.000000 C 176.433134,44.000000 176.983333,44.337500 177.166667,44.750000 C 177.350000,45.162500 179.300000,46.395606 181.500000,47.490236 C 183.700000,48.584865 188.299387,52.382977 191.720859,55.930483 C 196.791033,61.187423 198.152328,63.321595 199.080316,67.468286 C 200.099887,72.024209 199.992273,73.023568 198.050895,77.028039 C 195.277298,82.749125 191.683309,85.543102 184.361590,87.670143 C 178.428396,89.393803 161.007284,90.673950 159.807755,89.474422" fill="none" stroke="black" stroke-width="5"/>
  <path d="M 36.666667,54.333333 C 35.641534,53.308201 35.876615,49.194290 37.000000,48.500000 C 37.550000,48.160081 38.000000,46.270633 38.000000,44.301226 C 38.000000,39.928792 35.867023,38.075310 30.785184,38.031803 C 28.039876,38.008300 26.773256,37.444841 25.931939,35.872826 C 24.284433,32.794433 26.265864,31.981002 31.238666,33.694271 C 36.917773,35.650882 40.179877,35.087651 41.051478,32.000000 C 43.493724,23.348335 44.459410,20.989143 45.418973,21.330117 C 46.823746,21.829293 46.409893,31.801183 44.909367,33.609206 C 43.286276,35.564911 44.550723,38.000000 47.189335,38.000000 C 48.427992,38.000000 51.817115,38.552323 54.720719,39.227385 C 58.777523,40.170556 60.000000,40.888557 60.000000,42.328079 C 60.000000,43.949400 59.428312,44.129273 55.750000,43.665280 C 53.412500,43.370420 50.033379,42.823429 48.240841,42.449742 C 43.912355,41.547393 42.000000,43.260593 42.000000,48.040657 C 42.000000,50.128330 41.726855,52.548229 41.393011,53.418213 C 40.781376,55.012107 37.902795,55.569462 36.666667,54.333333" fill="none" stroke="black" stroke-width="5"/>
</svg>
