<?xml version="1.0" encoding="utf-8" ?>
<svg xmlns="http://www.w3.org/2000/svg" xmlns:ev="http://www.w3.org/2001/xml-events" xmlns:xlink="http://www.w3.org/1999/xlink" baseProfile="full" height="219" version="1.1" width="257">
  <defs/>
  <path d="M 179.860376,214.378240 L 178.500000,209.756480 L 170.670899,210.408235 C 163.544117,211.001524 162.872182,210.902221 163.180501,209.301252 C 163.410137,208.108846 165.126162,207.170510 168.509601,206.387259 C 175.954887,204.663709 177.218418,203.981910 176.416041,202.120958 C 176.031646,201.229431 175.499249,199.150000 175.232937,197.500000 C 174.966624,195.850000 174.381008,194.034908 173.931568,193.466462 C 173.482128,192.898015 173.525854,191.773015 174.028736,190.966462 C 175.409608,188.751732 178.435872,191.061557 178.790419,194.600862 C 178.950149,196.195388 179.571144,198.746917 180.170408,200.270927 C 181.160888,202.789856 181.589195,202.982954 184.879989,202.394195 C 186.870995,202.037983 190.042173,201.118238 191.927050,200.350318 C 196.479482,198.495608 198.338476,200.105968 195.231571,203.212873 C 193.842283,204.602162 191.295838,205.604075 188.270460,205.951762 C 183.572838,206.491629 183.501044,206.553440 183.568387,210.000000 C 183.606000,211.925000 183.992284,214.737500 184.426795,216.250000 C 185.100763,218.596030 184.923309,219.000000 183.218785,219.000000 C 181.705843,219.000000 180.890475,217.877910 179.860376,214.378240" fill="none" stroke="black" stroke-width="5"/>
  <path d="M 156.275048,162.059552 C 154.501325,161.621363 151.801325,160.446130 150.275048,159.447924 C 146.970975,157.287013 140.000000,150.191853 140.000000,148.989829 C 140.000000,148.523995 139.412393,147.548214 138.694206,146.821429 C 135.184678,143.269880 131.000000,132.789075 131.000000,127.550777 C 131.000000,125.817850 130.502094,123.902094 129.893542,123.293542 C 127.629158,121.029158 130.924598,93.976729 133.687207,92.151163 C 134.229176,91.793023 135.283920,89.398368 136.031083,86.829707 C 137.217323,82.751550 137.967107,81.891189 141.944781,80.043868 C 147.284422,77.564018 152.563445,77.169950 156.028542,78.992545 C 158.199420,80.134397 163.384433,84.167079 170.734660,90.430335 C 171.980597,91.492020 173.000000,93.110383 173.000000,94.026697 C 173.000000,95.953485 175.714190,101.705326 176.997739,102.498602 C 177.904472,103.058994 180.643412,112.017328 180.972814,115.500000 C 182.124802,127.679629 180.129573,148.000000 177.781685,148.000000 C 177.351758,148.000000 177.000000,148.900000 177.000000,150.000000 C 177.000000,151.100000 176.604594,152.000000 176.121320,152.000000 C 175.638047,152.000000 174.683452,153.350000 174.000000,155.000000 C 173.316548,156.650000 172.278457,158.000000 171.693131,158.000000 C 171.107805,158.000000 169.699899,158.863559 168.564451,159.919021 C 166.091570,162.217700 160.709673,163.155103 156.275048,162.059552" fill="none" stroke="black" stroke-width="5"/>
  <path d="M 24.011126,49.704753 C 19.438171,48.125652 15.721693,41.220022 16.635492,36.000000 C 17.555098,30.746804 21.249195,26.433851 25.823496,25.272770 C 29.816864,24.259145 31.332116,24.659905 38.000000,28.493260 C 44.074367,31.985403 42.793813,46.303783 36.179838,48.845217 C 31.440580,50.666286 27.584439,50.938665 24.011126,49.704753" fill="none" stroke="black" stroke-width="5"/>
</svg>
