<?xml version="1.0" encoding="utf-8" ?>
<svg xmlns="http://www.w3.org/2000/svg" xmlns:ev="http://www.w3.org/2001/xml-events" xmlns:xlink="http://www.w3.org/1999/xlink" baseProfile="full" height="215" version="1.1" width="257">
  <defs/>
  <path d="M 54.314147,199.312088 C 52.444823,196.413155 49.013343,193.091912 47.826923,193.033269 C 47.456731,193.014971 45.803846,194.350000 44.153846,196.000000 C 41.127715,199.026131 37.672195,199.896652 36.461587,197.937847 C 36.100541,197.353662 37.648984,195.121687 39.902570,192.977902 C 42.156157,190.834117 44.000000,188.673065 44.000000,188.175564 C 44.000000,187.678064 42.684065,185.763814 41.075701,183.921677 C 37.890770,180.273823 36.807655,176.875452 38.173142,174.814646 C 38.822029,173.835340 40.085449,174.711630 43.126178,178.250000 C 45.371252,180.862500 47.728720,183.000000 48.364995,183.000000 C 49.001270,183.000000 51.316940,181.433633 53.510929,179.519184 C 57.445889,176.085585 60.345575,175.132101 61.444625,176.910401 C 62.078468,177.935980 55.593081,185.000000 54.017666,185.000000 C 51.720026,185.000000 53.073098,190.575488 56.053381,193.388397 C 58.195987,195.410673 59.016268,197.027263 58.803381,198.808030 C 58.374993,202.391425 56.439905,202.608699 54.314147,199.312088" fill="none" stroke="black" stroke-width="5"/>
  <path d="M 177.678412,180.588546 C 171.112937,178.179758 167.854622,171.500559 170.029800,164.909707 C 172.129173,158.548542 179.633265,153.662994 183.843531,155.916260 C 184.957273,156.512317 186.992458,157.000000 188.366164,157.000000 C 192.564075,157.000000 195.503781,162.266677 195.480848,169.746424 C 195.464550,175.062409 195.092161,176.354890 192.980848,178.423384 C 189.804503,181.535311 182.915656,182.510023 177.678412,180.588546" fill="none" stroke="black" stroke-width="5"/>
  <path d="M 125.389958,120.905038 C 120.298393,118.433272 119.019413,115.734871 118.891148,107.193808 C 118.808993,101.723117 119.360812,99.220934 121.911117,93.500000 C 123.627388,89.650000 125.516813,85.650848 126.109840,84.612995 C 126.702867,83.575141 128.081499,81.135315 129.173467,79.191157 C 131.353953,75.308983 138.354759,64.850662 140.892585,61.684271 C 144.656355,56.988297 159.279648,43.000000 160.425026,43.000000 C 160.801618,43.000000 163.760356,41.200000 167.000000,39.000000 C 170.239644,36.800000 173.364952,35.000000 173.945131,35.000000 C 174.525309,35.000000 175.000000,34.636936 175.000000,34.193191 C 175.000000,32.067914 197.827608,23.184147 210.326398,20.445299 C 217.043887,18.973303 218.744147,18.915912 222.326398,20.040249 C 229.800721,22.386164 231.000000,24.208860 231.000000,33.222620 C 231.000000,39.050105 230.480185,42.172504 229.000000,45.236136 C 227.900000,47.512873 227.000000,49.920440 227.000000,50.586284 C 227.000000,52.230669 221.873321,61.860702 217.880329,67.716816 C 210.918291,77.927324 198.543371,91.288808 191.870321,95.800418 C 189.323997,97.521972 186.980241,99.609107 186.661975,100.438496 C 186.343708,101.267885 183.364564,103.159507 180.041654,104.642101 C 176.718744,106.124694 174.000000,107.711737 174.000000,108.168863 C 174.000000,108.625988 173.325000,109.000000 172.500000,109.000000 C 171.675000,109.000000 171.000000,109.450000 171.000000,110.000000 C 171.000000,110.550000 170.190000,111.000000 169.200000,111.000000 C 168.210000,111.000000 166.972500,111.411793 166.450000,111.915097 C 165.147526,113.169717 147.593038,119.000000 145.117955,119.000000 C 144.017999,119.000000 142.839919,119.450000 142.500000,120.000000 C 142.160081,120.550000 139.910081,121.000000 137.500000,121.000000 C 135.089919,121.000000 132.839919,121.450000 132.500000,122.000000 C 131.622630,123.419615 130.080503,123.182124 125.389958,120.905038" fill="none" stroke="black" stroke-width="5"/>
</svg>
