<?xml version="1.0" encoding="utf-8" ?>
<svg xmlns="http://www.w3.org/2000/svg" xmlns:ev="http://www.w3.org/2001/xml-events" xmlns:xlink="http://www.w3.org/1999/xlink" baseProfile="full" height="220" version="1.1" width="258">
  <defs/>
  <path d="M 22.238017,197.964405 C 16.438905,195.634431 13.610101,189.544855 14.622448,181.570341 C 14.976466,178.781653 15.601165,176.050000 16.010670,175.500000 C 16.420174,174.950000 17.088289,173.375000 17.495370,172.000000 C 19.568128,164.998839 29.220307,148.510209 35.912856,140.537769 C 43.401413,131.617090 55.183891,121.167810 62.312457,117.125306 C 64.615606,115.819225 68.300000,113.520443 70.500000,112.016903 C 72.700000,110.513363 76.300000,108.666224 78.500000,107.912150 C 80.700000,107.158077 83.976187,105.744358 85.780416,104.770554 C 87.584645,103.796749 89.857145,103.000000 90.830416,103.000000 C 91.803687,103.000000 93.027500,102.586130 93.550000,102.080289 C 95.194991,100.487744 106.239831,97.728446 112.817361,97.266784 C 118.333522,96.879616 119.621654,97.145619 122.974129,99.364182 C 128.153637,102.791818 129.681147,107.378449 128.058265,114.630248 C 127.401529,117.564854 126.444755,120.225126 125.932100,120.541965 C 125.419445,120.858803 125.000000,122.596732 125.000000,124.404029 C 125.000000,126.420033 124.227028,128.389555 123.000000,129.500000 C 121.900000,130.495486 121.000000,132.061789 121.000000,132.980674 C 121.000000,133.899558 119.830712,135.742313 118.401583,137.075686 C 116.972453,138.409059 115.123592,141.187500 114.293003,143.250000 C 113.462414,145.312500 112.381701,147.000000 111.891420,147.000000 C 111.401139,147.000000 111.000000,147.497743 111.000000,148.106096 C 111.000000,148.714448 109.650000,150.916705 108.000000,153.000000 C 106.350000,155.083295 105.000000,157.091532 105.000000,157.462749 C 105.000000,158.468442 85.848873,177.000000 84.809557,177.000000 C 84.317874,177.000000 83.372080,177.456338 82.707794,178.014085 C 73.766232,185.521577 52.032464,195.226936 39.093465,197.490355 C 29.437370,199.179496 25.535412,199.289237 22.238017,197.964405" fill="none" stroke="black" stroke-width="5"/>
  <path d="M 12.988889,129.645147 C 5.978530,127.358723 3.000000,123.742026 3.000000,117.516082 C 3.000000,109.650541 7.955678,104.914836 16.351242,104.757474 C 22.663137,104.639168 25.815800,106.476585 28.757705,111.988140 C 30.578794,115.399887 30.730483,116.480374 29.776944,119.248212 C 27.857009,124.821201 24.672546,128.974268 22.309017,128.987621 C 21.103976,128.994430 19.839919,129.450000 19.500000,130.000000 C 18.753779,131.207411 17.583337,131.143623 12.988889,129.645147" fill="none" stroke="black" stroke-width="5"/>
  <path d="M 210.917795,46.000000 C 207.978408,42.700000 205.007899,40.000000 204.316665,40.000000 C 203.625430,40.000000 202.061777,41.350000 200.841879,43.000000 C 198.646176,45.969847 193.852512,47.188410 192.564377,45.104164 C 191.812742,43.887993 194.934625,40.201868 198.000000,38.686121 C 201.882643,36.766256 201.589898,33.981916 197.038083,29.537187 C 192.943466,25.538901 191.796050,21.675977 194.405600,20.674598 C 195.290266,20.335120 197.538539,22.333845 200.471951,26.067609 C 203.035364,29.330424 205.665344,31.993018 206.316351,31.984485 C 206.967358,31.975952 209.681750,29.725952 212.348334,26.984485 C 217.423105,21.767203 219.634856,20.884874 220.697396,23.653810 C 221.323260,25.284787 218.577332,28.340033 211.625248,33.747898 L 208.750495,35.984101 L 211.417842,39.481172 C 212.884882,41.404561 215.498991,44.299557 217.226972,45.914496 C 219.902920,48.415386 220.174992,49.084221 219.061934,50.425375 C 218.343181,51.291419 217.419191,52.000000 217.008623,52.000000 C 216.598054,52.000000 213.857182,49.300000 210.917795,46.000000" fill="none" stroke="black" stroke-width="5"/>
</svg>
