<?xml version="1.0" encoding="utf-8" ?>
<svg baseProfile="full" height="219" version="1.1" width="260" xmlns="http://www.w3.org/2000/svg" xmlns:ev="http://www.w3.org/2001/xml-events" xmlns:xlink="http://www.w3.org/1999/xlink"><defs /><rect fill="white" height="219" width="260" x="0" y="0" /><circle cx="232.30487060546875" cy="206.76829528808594" fill="none" r="8.44217586517334" stroke="black" stroke-width="1" /><path d="M 89,177 L 76,198 L 100,197 Z" fill="none" stroke="black" stroke-width="1" /><path d="M 88,166 L 109,206 L 66,204 Z" fill="black" stroke="black" stroke-width="1" /><circle cx="24.269229888916016" cy="150.11538696289062" fill="none" r="8.758023262023926" stroke="black" stroke-width="1" /><circle cx="24.673593521118164" cy="150.2995147705078" fill="none" r="13.896700859069824" stroke="black" stroke-width="1" /><path d="M 95,130 L 87,146 L 106,146 L 100,132 Z" fill="none" stroke="black" stroke-width="1" /><path d="M 98,116 L 118,151 L 78,154 Z" fill="black" stroke="black" stroke-width="1" /><path d="M 97,95 L 117,96 L 107,80 Z" fill="none" stroke="black" stroke-width="1" /><path d="M 107,66 L 127,103 L 88,101 Z" fill="black" stroke="black" stroke-width="1" /><path d="M 101,23 L 93,41 L 114,41 Z" fill="none" stroke="black" stroke-width="1" /><circle cx="202.06756591796875" cy="28.472972869873047" fill="none" r="8.078176498413086" stroke="black" stroke-width="1" /><circle cx="202.59799194335938" cy="28.68844223022461" fill="black" r="14.090705871582031" stroke="black" stroke-width="1" /><path d="M 103,11 L 124,48 L 82,47 Z" fill="black" stroke="black" stroke-width="1" /><path d="M 0,0 L 0,218 L 259,218 L 259,0 Z" fill="none" stroke="black" stroke-width="1" /></svg>