<?xml version="1.0" encoding="utf-8" ?>
<svg baseProfile="full" height="216" version="1.1" width="259" xmlns="http://www.w3.org/2000/svg" xmlns:ev="http://www.w3.org/2001/xml-events" xmlns:xlink="http://www.w3.org/1999/xlink"><defs /><rect fill="white" height="216" width="259" x="0" y="0" /><path d="M 75,192 L 71,196 L 71,206 L 75,209 L 82,209 L 86,206 L 88,200 L 84,194 Z" fill="none" stroke="black" stroke-width="5" /><path d="M 131,174 L 119,191 L 118,197 L 144,197 Z" fill="none" stroke="black" stroke-width="5" /><path d="M 181,99 L 177,104 L 179,112 L 183,115 L 192,113 L 194,110 L 194,102 L 189,98 Z" fill="none" stroke="black" stroke-width="5" /><path d="M 123,96 L 110,118 L 136,119 L 130,104 Z" fill="none" stroke="black" stroke-width="5" /><path d="M 30,58 L 25,64 L 25,70 L 27,73 L 34,75 L 40,72 L 42,69 L 42,64 L 38,59 Z" fill="none" stroke="black" stroke-width="5" /><path d="M 122,26 L 111,43 L 111,49 L 135,49 L 128,32 Z" fill="none" stroke="black" stroke-width="5" /><path d="M 233,6 L 226,7 L 221,14 L 221,18 L 225,23 L 234,23 L 238,19 L 238,11 Z" fill="none" stroke="black" stroke-width="5" /><path d="M 0,0 L 0,215 L 258,215 L 258,0 Z" fill="none" stroke="black" stroke-width="5" /></svg>