<?xml version="1.0" encoding="utf-8" ?>
<svg baseProfile="full" height="218" version="1.1" width="257" xmlns="http://www.w3.org/2000/svg" xmlns:ev="http://www.w3.org/2001/xml-events" xmlns:xlink="http://www.w3.org/1999/xlink"><defs /><rect fill="white" height="218" width="257" x="0" y="0" /><path d="M 166,183 L 162,187 L 161,194 L 164,198 L 171,199 L 177,194 L 177,188 L 172,183 Z" fill="none" stroke="black" stroke-width="5" /><path d="M 100,200 L 100,203 L 126,204 L 114,182 Z" fill="none" stroke="black" stroke-width="5" /><path d="M 64,178 L 58,183 L 58,190 L 63,194 L 70,194 L 75,190 L 75,184 L 73,180 Z" fill="none" stroke="black" stroke-width="5" /><path d="M 165,143 L 151,120 L 136,142 L 142,145 Z" fill="none" stroke="black" stroke-width="5" /><path d="M 97,86 L 88,100 L 88,106 L 111,106 L 102,88 Z" fill="none" stroke="black" stroke-width="5" /><path d="M 145,69 L 141,75 L 142,81 L 146,84 L 154,84 L 157,81 L 156,71 L 151,68 Z" fill="none" stroke="black" stroke-width="5" /><path d="M 46,29 L 43,35 L 44,40 L 49,44 L 54,44 L 57,42 L 60,37 L 59,31 L 55,28 Z" fill="none" stroke="black" stroke-width="5" /><path d="M 119,20 L 107,45 L 134,45 L 134,40 L 122,20 Z" fill="none" stroke="black" stroke-width="5" /><path d="M 0,0 L 0,217 L 256,217 L 256,0 Z" fill="none" stroke="black" stroke-width="5" /></svg>