<?xml version="1.0" encoding="utf-8" ?>
<svg baseProfile="full" height="218" version="1.1" width="257" xmlns="http://www.w3.org/2000/svg" xmlns:ev="http://www.w3.org/2001/xml-events" xmlns:xlink="http://www.w3.org/1999/xlink"><defs /><rect fill="white" height="218" width="257" x="0" y="0" /><circle cx="169.0" cy="191.0" fill="none" r="8.602425575256348" stroke="black" stroke-width="1" /><path d="M 100,200 L 104,204 L 126,204 L 114,182 Z" fill="none" stroke="black" stroke-width="1" /><circle cx="168.9662628173828" cy="191.30368041992188" fill="none" r="14.22425651550293" stroke="black" stroke-width="1" /><circle cx="66.5" cy="186.5" fill="none" r="9.192488670349121" stroke="black" stroke-width="1" /><circle cx="66.18711853027344" cy="185.77301025390625" fill="none" r="14.395506858825684" stroke="black" stroke-width="1" /><path d="M 114,169 L 134,208 L 93,209 Z" fill="black" stroke="black" stroke-width="1" /><path d="M 165,143 L 151,120 L 136,142 Z" fill="none" stroke="black" stroke-width="1" /><path d="M 150,111 L 170,150 L 129,149 Z" fill="black" stroke="black" stroke-width="1" /><path d="M 97,86 L 88,106 L 111,106 Z" fill="none" stroke="black" stroke-width="1" /><path d="M 100,74 L 121,109 L 79,112 Z" fill="black" stroke="black" stroke-width="1" /><circle cx="149.5" cy="76.5" fill="none" r="8.746527671813965" stroke="black" stroke-width="1" /><circle cx="149.1666717529297" cy="76.5" fill="none" r="14.385668754577637" stroke="black" stroke-width="1" /><circle cx="51.46531677246094" cy="35.56358337402344" fill="none" r="8.80905818939209" stroke="black" stroke-width="1" /><circle cx="51.5" cy="35.75925827026367" fill="none" r="13.984636306762695" stroke="black" stroke-width="1" /><path d="M 119,20 L 107,45 L 134,45 Z" fill="none" stroke="black" stroke-width="1" /><path d="M 118,10 L 142,51 L 99,48 Z" fill="none" stroke="black" stroke-width="1" /><path d="M 0,0 L 0,217 L 256,217 L 256,0 Z" fill="none" stroke="black" stroke-width="1" /></svg>