<?xml version="1.0" encoding="utf-8" ?>
<svg baseProfile="full" height="216" version="1.1" width="259" xmlns="http://www.w3.org/2000/svg" xmlns:ev="http://www.w3.org/2001/xml-events" xmlns:xlink="http://www.w3.org/1999/xlink"><defs /><rect fill="white" height="216" width="259" x="0" y="0" /><path d="M 148,202 L 175,203 L 163,182 Z" fill="none" stroke="black" stroke-width="1" /><path d="M 40,182 L 28,204 L 56,205 Z" fill="none" stroke="black" stroke-width="1" /><path d="M 213,179 L 201,200 L 226,202 Z" fill="none" stroke="black" stroke-width="1" /><path d="M 100,177 L 87,202 L 116,203 Z" fill="none" stroke="black" stroke-width="1" /><path d="M 39,171 L 64,212 L 18,211 Z" fill="black" stroke="black" stroke-width="1" /><path d="M 99,168 L 122,208 L 78,207 Z" fill="black" stroke="black" stroke-width="1" /><circle cx="145.55882263183594" cy="143.2058868408203" fill="none" r="9.029561996459961" stroke="black" stroke-width="1" /><circle cx="146.93478393554688" cy="99.8043441772461" fill="none" r="8.7997465133667" stroke="black" stroke-width="1" /><circle cx="146.94642639160156" cy="99.71428680419922" fill="black" r="14.432658195495605" stroke="black" stroke-width="1" /><circle cx="142.9705810546875" cy="59.5" fill="none" r="9.153264045715332" stroke="black" stroke-width="1" /><circle cx="143.403076171875" cy="59.262115478515625" fill="black" r="14.57973575592041" stroke="black" stroke-width="1" /><circle cx="145.69021606445312" cy="16.228260040283203" fill="none" r="8.869087219238281" stroke="black" stroke-width="1" /><circle cx="145.6882781982422" cy="16.49163246154785" fill="black" r="14.40648078918457" stroke="black" stroke-width="1" /><path d="M 0,0 L 0,215 L 258,215 L 258,0 Z" fill="none" stroke="black" stroke-width="1" /></svg>