<?xml version="1.0" encoding="utf-8" ?>
<svg baseProfile="full" height="218" version="1.1" width="258" xmlns="http://www.w3.org/2000/svg" xmlns:ev="http://www.w3.org/2001/xml-events" xmlns:xlink="http://www.w3.org/1999/xlink"><defs /><rect fill="white" height="218" width="258" x="0" y="0" /><circle cx="145.83871459960938" cy="203.9193572998047" fill="none" r="9.360285758972168" stroke="black" stroke-width="1" /><circle cx="145.89495849609375" cy="203.0840301513672" fill="none" r="14.258269309997559" stroke="black" stroke-width="1" /><path d="M 194,174 L 184,195 L 208,195 Z" fill="none" stroke="black" stroke-width="1" /><path d="M 194,163 L 215,200 L 175,200 Z" fill="black" stroke="black" stroke-width="1" /><circle cx="142.60714721679688" cy="147.0" fill="none" r="8.925024032592773" stroke="black" stroke-width="1" /><circle cx="142.67202758789062" cy="146.60018920898438" fill="none" r="14.380400657653809" stroke="black" stroke-width="1" /><path d="M 38,127 L 29,136 L 36,144 L 47,137 L 45,130 Z" fill="none" stroke="black" stroke-width="1" /><circle cx="38.5" cy="135.5" fill="none" r="14.57748031616211" stroke="black" stroke-width="1" /><path d="M 221,113 L 206,136 L 233,136 Z" fill="none" stroke="black" stroke-width="1" /><path d="M 218,103 L 241,140 L 199,144 Z" fill="none" stroke="black" stroke-width="1" /><circle cx="87.32926940917969" cy="103.17804718017578" fill="none" r="8.940204620361328" stroke="black" stroke-width="1" /><circle cx="87.41999816894531" cy="103.61333465576172" fill="none" r="14.812455177307129" stroke="black" stroke-width="1" /><path d="M 180,69 L 167,92 L 191,91 Z" fill="none" stroke="black" stroke-width="1" /><path d="M 181,59 L 198,95 L 159,98 Z" fill="black" stroke="black" stroke-width="1" /><circle cx="118.88764190673828" cy="53.30337142944336" fill="none" r="8.914999961853027" stroke="black" stroke-width="1" /><circle cx="119.09259033203125" cy="53.0" fill="black" r="14.233901977539062" stroke="black" stroke-width="1" /><circle cx="50.723880767822266" cy="40.69403076171875" fill="none" r="9.329384803771973" stroke="black" stroke-width="1" /><circle cx="50.75925827026367" cy="40.37036895751953" fill="none" r="14.436765670776367" stroke="black" stroke-width="1" /><path d="M 216,17 L 204,40 L 229,41 Z" fill="none" stroke="black" stroke-width="1" /><path d="M 215,8 L 235,46 L 195,45 Z" fill="black" stroke="black" stroke-width="1" /><path d="M 0,0 L 0,217 L 257,217 L 257,0 Z" fill="none" stroke="black" stroke-width="1" /></svg>