<?xml version="1.0" encoding="utf-8" ?>
<svg baseProfile="full" height="222" version="1.1" width="260" xmlns="http://www.w3.org/2000/svg" xmlns:ev="http://www.w3.org/2001/xml-events" xmlns:xlink="http://www.w3.org/1999/xlink"><defs /><rect fill="white" height="222" width="260" x="0" y="0" /><circle cx="157.07554626464844" cy="167.4568328857422" fill="none" r="9.091872215270996" stroke="black" stroke-width="1" /><circle cx="156.92857360839844" cy="167.35714721679688" fill="black" r="14.237513542175293" stroke="black" stroke-width="1" /><circle cx="235.69297790527344" cy="159.874267578125" fill="none" r="8.925664901733398" stroke="black" stroke-width="1" /><circle cx="235.46153259277344" cy="160.46153259277344" fill="black" r="14.105569839477539" stroke="black" stroke-width="1" /><circle cx="72.0" cy="134.5" fill="none" r="8.500100135803223" stroke="black" stroke-width="1" /><path d="M 202,97 L 191,119 L 217,120 Z" fill="none" stroke="black" stroke-width="1" /><path d="M 148,92 L 138,114 L 163,114 Z" fill="none" stroke="black" stroke-width="1" /><circle cx="183.875" cy="74.125" fill="none" r="8.77684497833252" stroke="black" stroke-width="1" /><path d="M 231,64 L 221,85 L 246,86 Z" fill="none" stroke="black" stroke-width="1" /><path d="M 105,63 L 94,88 L 119,88 Z" fill="none" stroke="black" stroke-width="1" /><path d="M 52,62 L 37,87 L 66,87 Z" fill="none" stroke="black" stroke-width="1" /><path d="M 103,54 L 127,95 L 84,92 Z" fill="black" stroke="black" stroke-width="1" /><path d="M 52,51 L 74,91 L 29,92 Z" fill="black" stroke="black" stroke-width="1" /><circle cx="138.5" cy="53.5" fill="none" r="8.860122680664062" stroke="black" stroke-width="1" /><circle cx="78.62621307373047" cy="31.645631790161133" fill="none" r="8.781881332397461" stroke="black" stroke-width="1" /><circle cx="223.55404663085938" cy="19.12162208557129" fill="none" r="8.249435424804688" stroke="black" stroke-width="1" /><path d="M 0,0 L 0,221 L 259,221 L 259,0 Z" fill="none" stroke="black" stroke-width="1" /></svg>