<?xml version="1.0" encoding="utf-8" ?>
<svg baseProfile="full" height="218" version="1.1" width="258" xmlns="http://www.w3.org/2000/svg" xmlns:ev="http://www.w3.org/2001/xml-events" xmlns:xlink="http://www.w3.org/1999/xlink"><defs /><rect fill="white" height="218" width="258" x="0" y="0" /><circle cx="145.83871459960938" cy="203.9193572998047" fill="none" r="9.360285758972168" stroke="black" stroke-width="5" /><path d="M 194,174 L 184,195 L 208,195 Z" fill="none" stroke="black" stroke-width="5" /><circle cx="142.60714721679688" cy="147.0" fill="none" r="8.925024032592773" stroke="black" stroke-width="5" /><path d="M 38,127 L 29,136 L 36,144 L 47,137 L 45,130 Z" fill="none" stroke="black" stroke-width="5" /><path d="M 221,113 L 206,136 L 233,136 Z" fill="none" stroke="black" stroke-width="5" /><circle cx="87.32926940917969" cy="103.17804718017578" fill="none" r="8.940204620361328" stroke="black" stroke-width="5" /><path d="M 180,69 L 167,92 L 191,91 Z" fill="none" stroke="black" stroke-width="5" /><circle cx="118.88764190673828" cy="53.30337142944336" fill="none" r="8.914999961853027" stroke="black" stroke-width="5" /><circle cx="50.723880767822266" cy="40.69403076171875" fill="none" r="9.329384803771973" stroke="black" stroke-width="5" /><path d="M 216,17 L 204,40 L 229,41 Z" fill="none" stroke="black" stroke-width="5" /><path d="M 0,0 L 0,217 L 257,217 L 257,0 Z" fill="none" stroke="black" stroke-width="5" /></svg>