<?xml version="1.0" encoding="utf-8" ?>
<svg baseProfile="full" height="220" version="1.1" width="258" xmlns="http://www.w3.org/2000/svg" xmlns:ev="http://www.w3.org/2001/xml-events" xmlns:xlink="http://www.w3.org/1999/xlink"><defs /><rect fill="white" height="220" width="258" x="0" y="0" /><circle cx="62.52027130126953" cy="196.1621551513672" fill="none" r="8.942081451416016" stroke="black" stroke-width="1" /><circle cx="219.92857360839844" cy="185.2142791748047" fill="none" r="8.786099433898926" stroke="black" stroke-width="1" /><circle cx="119.23184204101562" cy="148.2374267578125" fill="none" r="8.848832130432129" stroke="black" stroke-width="1" /><path d="M 40,117 L 25,141 L 54,143 Z" fill="none" stroke="black" stroke-width="1" /><path d="M 178,113 L 164,139 L 194,139 Z" fill="none" stroke="black" stroke-width="1" /><path d="M 38,107 L 61,149 L 15,146 Z" fill="black" stroke="black" stroke-width="1" /><path d="M 176,103 L 200,146 L 155,144 Z" fill="black" stroke="black" stroke-width="1" /><path d="M 115,87 L 101,110 L 129,112 Z" fill="none" stroke="black" stroke-width="1" /><path d="M 223,84 L 212,106 L 241,107 Z" fill="none" stroke="black" stroke-width="1" /><path d="M 116,77 L 140,114 L 94,118 Z" fill="black" stroke="black" stroke-width="1" /><path d="M 223,72 L 249,112 L 202,110 Z" fill="black" stroke="black" stroke-width="1" /><circle cx="66.55555725097656" cy="64.44444274902344" fill="none" r="8.822769165039062" stroke="black" stroke-width="1" /><circle cx="179.6039581298828" cy="44.886138916015625" fill="none" r="8.878350257873535" stroke="black" stroke-width="1" /><path d="M 0,0 L 0,219 L 257,219 L 257,0 Z" fill="none" stroke="black" stroke-width="1" /></svg>