<?xml version="1.0" encoding="utf-8" ?>
<svg xmlns="http://www.w3.org/2000/svg" xmlns:ev="http://www.w3.org/2001/xml-events" xmlns:xlink="http://www.w3.org/1999/xlink" baseProfile="full" height="215" version="1.1" width="261">
  <defs/>
  <path d="M 126.573242,211.846362 C 125.707959,210.111861 125.000000,207.341837 125.000000,205.690753 C 125.000000,202.052342 128.963302,196.587458 133.185414,194.404119 C 136.018625,192.939009 136.700480,192.946548 141.631374,194.497504 C 148.466860,196.647529 151.012124,199.961549 150.968197,206.654370 C 150.926619,212.989259 149.332660,215.006020 144.389757,214.977764 C 140.512015,214.955597 140.506868,214.950191 142.723377,213.227764 C 143.946235,212.277494 145.441071,210.071019 146.045236,208.324487 C 146.949113,205.711542 146.834289,204.676727 145.397095,202.483291 C 141.532744,196.585547 134.079750,196.963192 130.888559,203.218443 C 128.888709,207.138472 128.888142,207.196353 130.811481,211.083767 L 132.749079,215.000000 L 130.447782,215.000000 C 128.865113,215.000000 127.655205,214.015209 126.573242,211.846362" fill="none" stroke="black" stroke-width="5"/>
  <path d="M 17.035446,204.780395 C 15.679942,204.063131 13.247942,201.336456 11.631004,198.721119 C 8.828928,194.188869 8.753716,193.776279 10.026538,189.919589 C 12.149679,183.486408 16.222542,180.816503 24.000000,180.759493 C 24.275000,180.757477 26.161803,181.051337 28.192895,181.412514 C 31.776147,182.049703 32.009957,181.901122 36.067826,176.408188 L 40.249861,170.747175 L 38.624930,167.339661 C 35.413337,160.604878 37.504231,153.635778 44.074917,149.174464 C 46.622885,147.444465 48.332279,146.996315 50.750000,147.424464 C 61.390074,149.308693 59.907611,149.841689 66.750000,141.671926 C 72.509773,134.794799 74.398394,131.000000 72.061273,131.000000 C 71.544973,131.000000 70.807718,128.900581 70.422930,126.334625 C 68.707620,114.896123 80.679988,106.897600 90.008288,113.250000 C 93.900513,115.900533 94.683001,117.195571 95.511902,122.358630 C 96.269638,127.078413 98.393545,129.110340 109.134961,135.391714 C 113.735733,138.082156 120.875000,142.310458 125.000000,144.787939 C 129.125000,147.265421 134.300000,150.185942 136.500000,151.277987 C 138.700000,152.370031 140.725000,153.541730 141.000000,153.881761 C 141.768061,154.831452 145.860189,157.000000 146.884227,157.000000 C 147.385478,157.000000 150.758452,158.800000 154.379726,161.000000 C 158.000999,163.200000 161.421991,165.000000 161.981930,165.000000 C 162.541868,165.000000 163.000000,165.450000 163.000000,166.000000 C 163.000000,166.550000 163.590147,167.000000 164.311439,167.000000 C 165.032730,167.000000 166.495230,167.792000 167.561439,168.760000 C 168.627647,169.728001 171.637500,171.639728 174.250000,173.008283 C 176.862500,174.376839 179.000000,175.834838 179.000000,176.248283 C 179.000000,176.661727 179.810000,177.000000 180.800000,177.000000 C 181.790000,177.000000 183.091894,177.491894 183.693098,178.093098 C 184.483895,178.883895 185.576284,178.691043 187.643098,177.395758 C 189.214394,176.411017 190.603757,175.552866 190.730570,175.488756 C 190.857384,175.424647 189.825783,170.900950 188.438124,165.436097 C 187.050465,159.971243 185.459031,153.700000 184.901603,151.500000 C 183.664688,146.618265 181.413577,143.000000 179.613311,143.000000 C 177.213689,143.000000 173.273859,138.075019 172.663210,134.312032 C 170.335375,119.967267 190.084436,112.486005 196.844954,125.151599 C 200.075656,131.204205 199.718767,135.932796 195.750000,139.659182 C 193.962500,141.337516 191.712500,142.986668 190.750000,143.323964 C 189.368164,143.808212 189.000000,145.100922 189.000000,149.468615 C 189.000000,152.510877 189.450000,155.000000 190.000000,155.000000 C 190.550000,155.000000 191.000000,156.548442 191.000000,158.440983 C 191.000000,160.333524 191.450000,162.160081 192.000000,162.500000 C 192.550000,162.839919 193.000000,164.414919 193.000000,166.000000 C 193.000000,167.585081 193.450000,169.160081 194.000000,169.500000 C 194.550000,169.839919 195.000000,171.666476 195.000000,173.559017 C 195.000000,177.036010 196.228146,178.046493 197.662931,175.750000 C 198.092462,175.062500 200.163095,169.352810 202.264337,163.061801 C 204.365580,156.770792 206.671523,150.245792 207.388655,148.561801 C 208.105788,146.877810 209.241458,143.700000 209.912367,141.500000 C 210.583276,139.300000 211.531942,136.600000 212.020514,135.500000 C 214.339368,130.279197 229.000000,84.546505 229.000000,82.533827 C 229.000000,81.274911 228.295329,79.660064 227.434063,78.945277 C 223.748513,75.886543 221.491634,67.050255 224.000000,65.500000 C 225.707958,64.444424 225.209056,59.000000 223.404370,59.000000 C 222.526774,59.000000 220.614274,58.173226 219.154370,57.162725 C 217.694467,56.152224 215.825000,55.036754 215.000000,54.683902 C 214.175000,54.331051 211.842054,53.020324 209.815677,51.771177 C 185.244179,36.624239 184.006951,35.960151 181.521262,36.584020 C 180.134568,36.932058 179.000000,37.618032 179.000000,38.108408 C 179.000000,38.598784 176.637500,38.998318 173.750000,38.996262 C 166.842088,38.991343 162.738307,36.457492 160.145642,30.596344 C 158.769395,27.485109 157.420919,25.934257 155.822733,25.624661 C 154.545230,25.377187 151.025000,24.693160 148.000000,24.104602 C 144.975000,23.516044 140.475000,22.791707 138.000000,22.494965 C 135.525000,22.198222 130.350000,21.532146 126.500000,21.014796 C 122.650000,20.497446 117.700000,19.837104 115.500000,19.547369 C 113.300000,19.257635 109.925000,18.586508 108.000000,18.055976 C 106.075000,17.525443 102.250000,16.884216 99.500000,16.631027 C 94.594746,16.179405 94.414729,16.262363 90.000000,21.008944 C 87.525000,23.669988 84.222495,26.165408 82.661101,26.554323 C 79.363756,27.375631 72.059694,25.299355 70.345568,23.053470 C 69.334067,21.728180 68.405487,21.893890 62.845568,24.391887 C 59.355506,25.959926 55.712500,27.638221 54.750000,28.121433 C 52.465982,29.268097 50.995596,29.980446 41.857289,34.367481 C 37.653798,36.385454 33.777071,38.590806 33.242341,39.268262 C 32.707611,39.945718 32.022466,42.447427 31.719798,44.827616 C 30.754865,52.415870 24.902204,56.622305 16.666313,55.646886 C 10.567793,54.924606 7.652746,52.403027 5.970553,46.394825 C 4.831096,42.325086 4.921292,41.541671 6.993077,37.513461 C 8.649158,34.293510 10.422695,32.551508 13.533645,31.089189 C 18.096550,28.944370 20.596440,29.188591 26.772904,32.382564 C 29.557230,33.822395 30.374847,33.849613 33.714484,32.613642 C 41.717784,29.651690 44.517514,28.478435 45.000000,27.884334 C 45.941611,26.724899 53.918757,23.000000 55.460162,23.000000 C 56.307073,23.000000 57.000000,22.550000 57.000000,22.000000 C 57.000000,21.450000 57.681106,21.000000 58.513569,21.000000 C 62.699202,21.000000 66.921502,16.756916 66.971935,12.500000 C 67.055364,5.457895 74.571692,-0.733781 81.466715,0.559733 C 85.104528,1.242191 89.691644,5.074701 91.010497,8.533512 C 92.138274,11.491205 101.655910,13.527970 130.500000,16.984230 C 134.350000,17.445559 142.392857,18.570727 148.373016,19.484605 L 159.246033,21.146200 L 163.278818,17.073100 C 166.974418,13.340556 167.749595,13.000000 172.550046,13.000000 C 176.910475,13.000000 178.292267,13.470599 180.794145,15.807703 C 183.898387,18.707499 186.311038,25.025872 185.310093,27.634295 C 184.704836,29.211569 189.563602,35.000000 191.492812,35.000000 C 192.108058,35.000000 194.161367,36.151179 196.055720,37.558176 C 197.950074,38.965172 201.075000,40.854226 203.000000,41.756072 C 204.925000,42.657919 206.725000,43.644240 207.000000,43.947897 C 207.480349,44.478302 210.266193,46.145797 214.500000,48.437099 C 218.922352,50.830440 227.000000,56.515085 227.000000,57.233975 C 227.000000,57.655289 227.900000,58.000000 229.000000,58.000000 C 231.742449,58.000000 231.641449,53.997333 228.568003,40.879809 C 225.000987,25.655721 224.606628,24.614742 221.909203,23.302718 C 216.675234,20.756921 214.571429,17.328110 214.571429,11.343512 C 214.571429,6.327227 214.893256,5.484567 217.801491,2.886060 C 220.646912,0.343677 221.791369,-0.000000 227.412184,-0.000000 C 233.458662,-0.000000 233.954594,0.184256 236.881959,3.518340 C 238.580987,5.453426 240.261428,8.193431 240.616271,9.607239 C 241.700184,13.925891 239.140575,19.641199 234.851326,22.479690 C 232.733097,23.881468 231.015960,25.359492 231.035467,25.764188 C 231.122641,27.572762 234.015667,44.071434 235.195606,49.489097 C 236.437981,55.193436 236.717466,55.581251 241.073818,57.645737 C 247.084691,60.494304 249.261386,63.946847 249.360291,70.789246 C 249.430888,75.673172 249.119714,76.503844 246.263610,79.055772 C 244.517269,80.616127 241.381045,82.200581 239.294223,82.576781 C 234.400659,83.458963 233.000866,84.635984 232.996262,87.872445 C 232.994206,89.317600 232.094206,91.973376 230.996262,93.774170 C 229.898318,95.574963 229.000000,97.990891 229.000000,99.142899 C 229.000000,101.436547 224.908937,114.196147 223.915797,115.000000 C 223.576041,115.275000 223.043134,116.625000 222.731560,118.000000 C 222.147500,120.577497 211.554112,151.938480 210.064480,155.500000 C 209.604397,156.600000 208.656177,159.525000 207.957324,162.000000 C 207.258472,164.475000 205.382067,169.238028 203.787537,172.584506 L 200.888391,178.669011 L 203.944195,181.940261 C 209.210418,187.577771 207.267828,196.427299 199.759140,201.005402 C 195.620448,203.528793 193.068329,203.512420 187.568493,200.927192 C 182.038419,198.327750 179.821702,194.105330 180.217189,186.924369 L 180.500000,181.789286 L 168.939387,175.144643 C 162.581050,171.490089 154.449677,166.587500 150.869669,164.250000 C 147.289661,161.912500 144.054437,160.000000 143.680282,160.000000 C 142.195311,160.000000 143.134567,162.531020 145.558388,165.060944 C 149.300593,168.966964 150.059422,177.427396 147.012668,181.275182 C 144.799381,184.070371 139.197362,187.000000 136.065705,187.000000 C 135.136180,187.000000 132.527658,186.107143 130.268990,185.015874 C 123.650684,181.818256 121.339648,174.909543 124.421222,167.534299 C 126.178337,163.328932 130.465713,161.000000 136.450340,161.000000 C 138.952653,161.000000 141.000000,160.628441 141.000000,160.174314 C 141.000000,158.699973 136.569913,155.278984 133.819927,154.629737 C 132.345887,154.281730 130.465530,153.322673 129.641356,152.498499 C 128.817181,151.674324 127.849475,151.000000 127.490896,151.000000 C 127.132318,151.000000 124.512675,149.464259 121.669468,147.587242 C 118.826260,145.710225 114.812500,143.376880 112.750000,142.402030 C 110.687500,141.427180 109.000000,140.262921 109.000000,139.814788 C 109.000000,139.366654 108.293579,139.000000 107.430175,139.000000 C 106.566772,139.000000 103.935855,137.675912 101.583694,136.057583 C 96.179767,132.339584 92.486674,131.333892 91.346767,133.269894 C 89.958166,135.628275 86.409123,137.000000 81.695924,137.000000 C 77.731167,137.000000 76.914303,137.424570 74.000000,141.000000 C 72.206799,143.200000 70.123216,145.000000 69.369817,145.000000 C 68.616418,145.000000 68.000000,145.661528 68.000000,146.470063 C 68.000000,147.278597 66.712816,148.891781 65.139591,150.054917 C 62.374768,152.099039 62.295514,152.397963 62.767907,159.000280 C 63.185063,164.830573 62.947606,166.264840 61.146394,168.794409 C 58.463494,172.562194 49.650849,175.785046 47.320178,173.850761 C 46.057779,172.803063 44.962988,173.542874 40.487765,178.467801 L 35.158629,184.332450 L 35.329315,191.638353 C 35.492021,198.602744 35.352423,199.092235 32.342904,202.109993 C 29.866105,204.593571 28.142247,205.362871 24.342904,205.680122 C 21.509390,205.916726 18.477421,205.543416 17.035446,204.780395" fill="none" stroke="black" stroke-width="5"/>
</svg>
