<?xml version="1.0" encoding="utf-8" ?>
<svg baseProfile="full" height="218" version="1.1" width="261" xmlns="http://www.w3.org/2000/svg" xmlns:ev="http://www.w3.org/2001/xml-events" xmlns:xlink="http://www.w3.org/1999/xlink"><defs /><rect fill="white" height="218" width="261" x="0" y="0" /><path d="M 213,194 L 208,199 L 208,206 L 212,210 L 220,209 L 223,206 L 223,200 L 220,196 Z" fill="none" stroke="black" stroke-width="5" /><path d="M 87,192 L 84,196 L 83,202 L 88,207 L 95,207 L 99,203 L 98,194 L 95,192 Z" fill="none" stroke="black" stroke-width="5" /><path d="M 158,168 L 154,170 L 151,178 L 154,183 L 161,185 L 165,183 L 167,179 L 167,173 L 164,170 Z" fill="none" stroke="black" stroke-width="5" /><path d="M 158,134 L 152,139 L 154,142 L 154,147 L 158,150 L 163,150 L 169,145 L 169,138 L 165,134 Z" fill="none" stroke="black" stroke-width="5" /><path d="M 112,136 L 110,139 L 113,149 L 123,149 L 126,144 L 125,137 L 122,134 L 116,134 Z" fill="none" stroke="black" stroke-width="5" /><path d="M 236,126 L 229,126 L 224,132 L 224,136 L 229,141 L 235,141 L 240,135 L 240,130 Z" fill="none" stroke="black" stroke-width="5" /><path d="M 59,126 L 53,128 L 50,132 L 50,138 L 53,141 L 59,141 L 65,137 L 65,130 Z" fill="none" stroke="black" stroke-width="5" /><path d="M 159,84 L 154,89 L 154,97 L 158,100 L 166,99 L 169,96 L 169,88 L 163,84 Z" fill="none" stroke="black" stroke-width="5" /><path d="M 200,76 L 198,80 L 198,85 L 200,88 L 204,90 L 211,89 L 213,86 L 213,78 L 205,74 Z" fill="none" stroke="black" stroke-width="5" /><path d="M 104,70 L 98,76 L 98,81 L 101,85 L 108,86 L 113,82 L 115,78 L 113,72 Z" fill="none" stroke="black" stroke-width="5" /><path d="M 22,69 L 15,70 L 13,72 L 11,80 L 15,83 L 23,83 L 27,79 L 27,73 Z" fill="none" stroke="black" stroke-width="5" /><path d="M 56,68 L 51,72 L 50,79 L 57,85 L 60,85 L 63,83 L 66,77 L 66,72 L 61,68 Z" fill="none" stroke="black" stroke-width="5" /><path d="M 156,48 L 152,52 L 152,61 L 163,63 L 168,55 L 167,50 L 162,47 Z" fill="none" stroke="black" stroke-width="5" /><path d="M 63,10 L 60,13 L 60,21 L 66,25 L 70,25 L 75,19 L 75,12 L 70,9 Z" fill="none" stroke="black" stroke-width="5" /><path d="M 200,8 L 192,7 L 188,10 L 186,15 L 190,21 L 193,22 L 202,18 L 202,12 Z" fill="none" stroke="black" stroke-width="5" /><path d="M 160,6 L 154,12 L 155,19 L 158,21 L 165,21 L 166,19 L 168,19 L 170,11 L 167,7 Z" fill="none" stroke="black" stroke-width="5" /><path d="M 123,3 L 116,4 L 113,10 L 114,14 L 119,19 L 125,17 L 129,13 L 128,6 Z" fill="none" stroke="black" stroke-width="5" /><path d="M 0,0 L 0,217 L 260,217 L 260,0 L 75,28 L 131,131 L 206,6 L 244,141 L 68,147 L 217,216 L 84,212 L 5,72 L 65,121 L 112,0 Z" fill="none" stroke="black" stroke-width="5" /></svg>