<?xml version="1.0" encoding="utf-8" ?>
<svg xmlns="http://www.w3.org/2000/svg" xmlns:ev="http://www.w3.org/2001/xml-events" xmlns:xlink="http://www.w3.org/1999/xlink" baseProfile="full" height="218" version="1.1" width="255">
  <defs/>
  <path d="M 94.541681,213.270556 C 91.259881,212.436931 87.974342,209.851063 86.448888,206.901160 C 84.807217,203.726518 84.478070,195.000000 86.000000,195.000000 C 86.550000,195.000000 87.000000,194.458923 87.000000,193.797607 C 87.000000,193.136291 88.426154,191.123797 90.169231,189.325398 C 93.268956,186.127293 93.310536,185.961763 92.065092,181.777790 C 91.364739,179.425006 90.388585,176.466326 89.895861,175.202947 C 89.403137,173.939568 89.000000,171.577068 89.000000,169.952947 C 89.000000,167.521365 88.585732,167.000000 86.653638,167.000000 C 82.771837,167.000000 78.410331,164.218443 75.575703,159.935030 C 72.936567,155.947027 72.820133,155.893214 67.199682,156.063834 C 54.325456,156.454656 53.037736,156.865215 51.334475,161.122083 C 50.481076,163.254937 49.156701,165.000000 48.391420,165.000000 C 47.626139,165.000000 47.000000,165.377768 47.000000,165.839485 C 47.000000,167.041232 42.337601,169.000000 39.477117,169.000000 C 36.622804,169.000000 31.411751,166.032870 29.518234,163.329495 C 28.785959,162.284026 27.881442,159.392204 27.508196,156.903223 C 26.659808,151.245767 29.006672,146.542267 34.028044,143.836377 C 39.306640,140.991876 47.406585,143.032553 50.303590,147.936791 C 52.236296,151.208601 55.448001,151.822589 67.166215,151.160450 C 73.064007,150.827195 74.332265,150.445422 74.741608,148.880092 C 75.012018,147.846041 75.630779,147.000000 76.116631,147.000000 C 76.602484,147.000000 77.000000,146.302038 77.000000,145.448973 C 77.000000,143.674142 82.699688,141.000000 86.482580,141.000000 C 88.294167,141.000000 89.585407,140.061772 90.955402,137.750000 C 92.014704,135.962500 93.245590,134.047449 93.690703,133.494331 C 94.135816,132.941213 95.591440,130.466213 96.925422,127.994331 C 98.259404,125.522449 99.615474,123.275000 99.938912,123.000000 C 100.262349,122.725000 101.628383,120.250000 102.974542,117.500000 C 104.320702,114.750000 106.677132,110.618921 108.211053,108.319825 C 109.744974,106.020728 111.000000,103.470728 111.000000,102.653158 C 111.000000,101.835588 111.339472,101.016667 111.754383,100.833333 C 112.169293,100.650000 114.081793,97.351693 116.004383,93.503762 C 117.926972,89.655831 121.412784,82.939778 123.750632,78.579199 C 127.638049,71.328348 127.879251,70.464660 126.573372,68.471636 C 125.788032,67.273055 124.844796,64.689612 124.477293,62.730651 C 123.738572,58.792932 123.056877,58.461317 112.500000,56.904220 C 109.200000,56.417483 104.025000,55.546136 101.000000,54.967894 C 95.075623,53.835423 71.932363,50.034328 70.831559,50.012970 C 70.463917,50.005836 69.189715,51.575000 68.000000,53.500000 C 66.810285,55.425000 65.236083,57.000000 64.501774,57.000000 C 63.767465,57.000000 63.016667,57.418554 62.833333,57.930119 C 62.470866,58.941534 59.298910,59.400029 54.355755,59.155525 C 50.278634,58.953857 45.508626,54.501622 44.168072,49.646536 C 42.781963,44.626464 44.244979,40.359594 48.761449,36.250000 C 52.793811,32.580902 57.999598,31.914192 62.886011,34.441054 C 65.667705,35.879524 71.000000,42.031029 71.000000,43.801609 C 71.000000,44.315888 72.687500,45.016485 74.750000,45.358491 C 76.812500,45.700496 80.750000,46.415269 83.500000,46.946875 C 94.986307,49.167306 111.960792,52.171962 118.403960,53.125229 C 125.081016,54.113100 125.376808,54.066605 127.403960,51.710531 C 129.659803,49.088659 133.756445,47.255497 138.399138,46.790419 C 141.871269,46.442601 142.350689,45.606823 144.428934,36.278620 L 146.037797,29.057240 L 142.365776,23.946055 C 138.861079,19.067773 138.529856,18.863379 135.096878,19.460510 C 133.118595,19.804611 129.475000,20.716511 127.000000,21.486952 C 124.525000,22.257394 120.028908,23.478462 117.008685,24.200436 C 112.238181,25.340809 111.450597,25.874284 111.008685,28.264574 C 110.297641,32.110584 105.589589,36.743072 100.991923,38.120566 C 97.764935,39.087395 96.531688,39.005654 93.639546,37.633243 C 89.144269,35.500094 85.000000,30.538248 85.000000,27.289294 C 85.000000,19.038245 89.870978,12.993785 96.500000,13.018794 C 101.002725,13.035782 107.082418,15.457805 108.998418,17.997903 C 110.620834,20.148788 110.965133,20.197767 116.598908,19.079118 C 119.844509,18.434667 125.015979,17.494281 128.091065,16.989371 C 136.531891,15.603439 138.540107,14.528782 141.949604,9.573249 C 145.587091,4.286342 147.621662,2.986675 152.184259,3.035435 C 156.360295,3.080065 158.832269,4.510687 162.977449,9.281852 C 165.964027,12.719446 166.206536,13.476504 165.641547,17.598547 C 165.299684,20.092711 164.379509,23.047787 163.596715,24.165382 C 161.733899,26.824924 157.451164,29.000000 154.077327,29.000000 C 151.590421,29.000000 151.249029,29.519024 149.637455,35.750000 C 145.820699,50.507078 145.704519,51.808899 147.949585,54.663037 C 150.318772,57.674970 150.367548,58.187739 148.924798,64.915053 C 148.047830,69.004214 147.282027,70.211689 144.771160,71.464274 C 143.078020,72.308923 139.802127,73.000000 137.491397,73.000000 C 133.979494,73.000000 132.840973,73.533315 130.553295,76.250000 C 129.048070,78.037500 126.747931,81.884290 125.441875,84.798423 C 124.135819,87.712555 122.152102,91.382022 121.033614,92.952793 C 119.915126,94.523565 119.000000,96.281971 119.000000,96.860364 C 119.000000,97.438757 117.575268,100.294290 115.833928,103.205994 C 114.092588,106.117697 111.384590,110.975000 109.816153,114.000000 C 108.247717,117.025000 105.622449,121.966092 103.982225,124.980205 C 102.342001,127.994318 101.000000,131.031818 101.000000,131.730205 C 101.000000,132.428592 100.360755,133.000000 99.579455,133.000000 C 98.798156,133.000000 97.863534,134.344840 97.502519,135.988532 C 97.141503,137.632225 96.430748,139.233783 95.923063,139.547549 C 94.481396,140.438549 94.831997,142.441990 96.800489,144.561439 C 97.790758,145.627647 98.878793,147.227974 99.218344,148.117720 C 99.956931,150.053086 103.547406,150.877315 107.000000,149.904076 C 108.375000,149.516482 113.362186,149.154504 118.082635,149.099680 L 126.665271,149.000000 L 129.727160,145.189889 C 133.295013,140.750173 139.327228,138.413515 143.310829,139.928077 C 144.686787,140.451216 147.424606,142.491272 149.394870,144.461536 C 152.257502,147.324169 153.483597,147.916729 155.498032,147.411138 C 156.884508,147.063155 158.266203,146.378292 158.568465,145.889221 C 158.870728,145.400149 159.878976,145.002568 160.809017,145.005706 C 161.739058,145.008844 169.475000,142.793838 178.000000,140.083471 C 186.525000,137.373103 196.650000,134.179836 200.500000,132.987320 C 208.774315,130.424399 209.717212,129.747229 211.614689,125.004968 C 212.414784,123.005334 214.440511,120.580284 216.158521,119.565431 L 219.258610,117.734163 L 218.651784,108.617081 C 217.821404,96.141303 214.540685,70.325969 211.975563,56.083219 C 211.439003,53.103989 211.000000,48.321589 211.000000,45.455663 C 211.000000,39.615353 210.172108,38.561816 204.826389,37.599408 C 202.394983,37.161674 200.112520,35.753246 198.076389,33.434221 C 195.517266,30.519541 195.000000,29.088459 195.000000,24.922997 C 195.000000,22.168922 195.562500,19.216739 196.250000,18.362591 C 201.874207,11.375090 205.148470,9.947938 210.900967,11.976680 C 217.157314,14.183116 221.000000,19.268534 221.000000,25.341758 C 221.000000,28.235218 217.331771,34.978756 215.750000,34.993167 C 214.675415,35.002957 214.821254,47.797494 215.919338,49.849282 C 216.424974,50.794072 217.096419,54.251988 217.411437,57.533541 C 219.860773,83.048310 221.154945,93.821182 222.008129,95.797053 C 222.553658,97.060432 223.000000,99.498571 223.000000,101.215140 C 223.000000,107.131836 225.170000,117.000000 226.471076,117.000000 C 227.167247,117.000000 229.821053,119.084211 232.368421,121.631579 C 236.609014,125.872172 237.000000,126.674231 237.000000,131.132690 C 237.000000,135.529983 236.597292,136.393037 232.847440,140.032144 L 228.694881,144.062066 L 230.376682,156.281033 C 233.375452,178.068312 233.101504,177.118324 237.000000,179.249137 C 243.620677,182.867822 245.387414,185.379477 245.446518,191.256997 C 245.489062,195.487765 244.988701,197.208637 243.000000,199.671209 C 240.401501,202.888884 235.382065,205.000000 230.330147,205.000000 C 225.824760,205.000000 219.000000,197.140421 219.000000,191.951896 C 219.000000,188.691542 222.725929,182.693013 226.134381,180.465958 C 229.435507,178.309029 229.396106,179.045673 226.961614,165.000000 C 226.341971,161.425000 225.534617,155.350000 225.167495,151.500000 L 224.500000,144.500000 L 220.135483,143.447564 C 217.198201,142.739284 214.898012,141.325541 213.101454,139.124307 C 210.145875,135.502982 209.757746,135.498941 199.000000,138.977476 C 195.975000,139.955615 190.125000,141.762046 186.000000,142.991768 C 181.875000,144.221490 178.072500,145.626411 177.550000,146.113813 C 177.027500,146.601216 175.333894,147.000000 173.786431,147.000000 C 172.238968,147.000000 170.191468,147.406141 169.236431,147.902536 C 168.281394,148.398930 165.475000,149.345793 163.000000,150.006674 C 155.127941,152.108695 153.986244,152.818779 153.348049,156.009754 C 153.014544,157.677280 152.349799,159.283812 151.870838,159.579826 C 149.758883,160.885087 151.420429,163.826098 156.627878,168.000000 C 159.715740,170.475000 163.168835,173.512500 164.301422,174.750000 C 166.023196,176.631264 167.402121,177.000000 172.715519,177.000000 C 181.943892,177.000000 184.413895,179.075585 187.832924,189.703409 C 188.702086,192.405144 188.521803,193.411354 186.681739,196.128492 C 182.470661,202.346796 175.032826,204.619695 169.038636,201.519980 C 162.707512,198.246028 159.348218,190.169883 162.387881,185.530771 C 163.274547,184.177548 164.000000,182.456430 164.000000,181.706064 C 164.000000,180.955698 161.193580,177.902365 157.763511,174.920881 C 154.333443,171.939396 150.496759,168.409183 149.237549,167.075963 C 147.484974,165.220382 146.672753,164.927247 145.774037,165.825963 C 143.799990,167.800010 136.553522,167.269117 134.500000,165.000000 C 133.504514,163.900000 132.136524,163.000000 131.460022,163.000000 C 129.824130,163.000000 127.000000,158.589809 127.000000,156.035183 C 127.000000,154.162594 126.380840,154.000694 119.250000,154.008692 C 108.056267,154.021247 101.000000,155.022074 101.000000,156.597184 C 101.000000,157.322415 99.200000,159.807980 97.000000,162.120660 C 93.085340,166.235823 92.000987,169.264542 94.000000,170.500000 C 94.550000,170.839919 95.000000,172.065025 95.000000,173.222457 C 95.000000,174.379890 95.787500,177.788501 96.750000,180.797147 C 98.249394,185.484052 99.184139,186.692573 103.277391,189.236335 C 108.900398,192.730767 111.000000,196.272488 111.000000,202.263249 C 111.000000,205.745219 110.429709,207.172191 108.174723,209.332604 C 106.620821,210.821337 103.811292,212.480528 101.931325,213.019696 C 98.335776,214.050886 97.698799,214.072510 94.541681,213.270556" fill="none" stroke="black" stroke-width="5"/>
  <path d="M 10.449452,109.118359 C 3.176458,107.644092 -0.525399,102.127417 0.411152,94.158827 C 1.140958,87.949319 1.902650,86.693914 6.258863,84.520749 C 14.973269,80.173431 25.089660,86.477800 24.926912,96.154370 C 24.842297,101.185305 22.191004,106.339366 19.419087,106.861469 C 18.363589,107.060276 17.140139,107.847776 16.700310,108.611469 C 15.858824,110.072571 15.357442,110.113229 10.449452,109.118359" fill="none" stroke="black" stroke-width="5"/>
  <path d="M 239.379122,105.566103 C 232.564537,102.594357 228.235272,91.539410 232.500000,88.000000 C 233.325000,87.315311 234.000000,86.146767 234.000000,85.403235 C 234.000000,83.574811 239.206236,81.000000 242.903287,81.000000 C 246.770605,81.000000 251.039611,82.836937 253.227764,85.442583 C 255.346494,87.965561 255.689350,99.674999 253.723224,102.363836 C 253.020997,103.324189 250.883497,104.483334 248.973224,104.939714 C 247.062951,105.396094 244.825000,106.029951 244.000000,106.348285 C 243.175000,106.666619 241.095605,106.314637 239.379122,105.566103" fill="none" stroke="black" stroke-width="5"/>
</svg>
