<?xml version="1.0" encoding="utf-8" ?>
<svg xmlns="http://www.w3.org/2000/svg" xmlns:ev="http://www.w3.org/2001/xml-events" xmlns:xlink="http://www.w3.org/1999/xlink" baseProfile="full" height="214" version="1.1" width="260">
  <defs/>
  <path d="M 231.722002,205.864518 C 228.152690,203.202152 226.000000,198.998326 226.000000,194.690450 C 226.000000,192.122143 227.013680,190.129979 230.110941,186.611305 C 234.624341,181.483811 234.580249,182.267102 231.046010,170.000000 C 229.857568,165.875000 228.485770,160.937049 227.997569,159.026776 C 227.036906,155.267812 224.929035,153.249142 221.000000,152.325332 C 217.763244,151.564293 214.465334,148.537628 212.988849,144.973078 C 211.544872,141.487010 210.376050,141.005746 205.079079,141.716219 C 201.568996,142.187020 200.701394,142.778901 199.577116,145.469679 C 195.596531,154.996558 183.329550,156.365865 177.135639,147.974719 C 175.147837,145.281762 174.842932,143.907576 175.221181,139.346395 C 175.603074,134.741264 176.231818,133.346922 179.380541,130.122337 L 183.090000,126.323506 L 180.575735,115.911753 C 179.192890,110.185289 176.874543,100.325000 175.423854,94.000000 C 173.973164,87.675000 171.906649,78.675000 170.831597,74.000000 C 169.756546,69.325000 168.628568,64.262500 168.324980,62.750000 C 167.973294,60.997874 167.132890,60.000000 166.008945,60.000000 C 163.678480,60.000000 162.414919,61.737885 161.646533,66.000000 C 161.299489,67.925000 160.534360,71.525000 159.946246,74.000000 C 159.358132,76.475000 158.484561,81.208630 158.004975,84.519178 C 157.525390,87.829726 156.486309,92.554726 155.695906,95.019178 C 154.905503,97.483630 153.709975,102.875000 153.039177,107.000000 C 152.368379,111.125000 151.410147,115.533674 150.909772,116.797053 C 150.409397,118.060432 150.000000,120.175977 150.000000,121.498263 C 150.000000,122.820549 149.277557,126.511875 148.394572,129.701210 C 146.597666,136.191614 145.341123,142.309209 144.430636,149.000000 C 143.832223,153.397492 143.922851,153.586557 148.409137,157.299772 C 152.482139,160.670920 153.000000,161.556291 153.000000,165.148642 C 153.000000,169.862524 150.390377,176.000000 148.386059,176.000000 C 147.623726,176.000000 147.000000,176.395406 147.000000,176.878680 C 147.000000,177.361953 145.626695,178.326201 143.948212,179.021451 C 141.611111,179.989510 140.020629,180.023149 137.156686,179.165090 C 131.634736,177.510674 128.280735,173.440467 126.698957,166.474241 C 125.671834,161.950738 124.875891,160.425367 123.421212,160.192657 C 121.217723,159.840157 111.350148,156.290645 108.763569,154.920087 C 107.808532,154.414039 106.549294,154.000000 105.965263,154.000000 C 105.381231,154.000000 103.040602,153.100000 100.763864,152.000000 C 98.487127,150.900000 95.835422,150.000000 94.871188,150.000000 C 93.906953,150.000000 92.839919,149.550000 92.500000,149.000000 C 92.160081,148.450000 90.810081,148.000000 89.500000,148.000000 C 88.189919,148.000000 86.839919,147.550000 86.500000,147.000000 C 86.160081,146.450000 84.810081,146.000000 83.500000,146.000000 C 82.189919,146.000000 80.839919,145.550000 80.500000,145.000000 C 80.160081,144.450000 78.810081,144.000000 77.500000,144.000000 C 76.189919,144.000000 74.875841,143.608123 74.579826,143.129162 C 73.950664,142.111156 68.177995,140.639058 66.000000,140.941206 C 65.175000,141.055656 62.925000,142.192348 61.000000,143.467188 C 59.075000,144.742028 55.820072,146.315835 53.766827,146.964538 C 49.772934,148.226369 46.000000,152.528640 46.000000,155.821037 C 46.000000,156.927800 45.662500,157.983333 45.250000,158.166667 C 44.062818,158.694303 40.000000,166.602860 40.000000,168.386155 C 40.000000,169.273770 39.659850,170.000000 39.244111,170.000000 C 38.828373,170.000000 37.874613,171.386240 37.124646,173.080534 C 36.118583,175.353387 36.054580,176.454580 36.880534,177.280534 C 37.496240,177.896240 38.000000,179.101754 38.000000,179.959453 C 38.000000,180.817152 38.900000,182.080966 40.000000,182.767927 C 41.382038,183.631024 42.000000,185.099955 42.000000,187.522043 C 42.000000,193.520579 38.198682,198.204401 31.885410,199.984811 C 21.908885,202.798297 13.775682,194.855435 15.798398,184.274282 C 16.448259,180.874750 21.399107,176.000000 24.201845,176.000000 C 29.832680,176.000000 31.537122,174.034135 38.395061,159.629864 C 44.947663,145.866915 45.007945,145.663721 43.264896,143.214938 C 39.854976,138.424394 39.029352,136.470038 39.014742,133.154292 C 38.993594,128.354760 41.769845,124.328439 46.697529,122.012154 C 51.678026,119.671044 52.274872,119.611351 55.263569,121.155426 C 56.493606,121.790910 58.152417,122.613209 58.949815,122.982757 C 61.269512,124.057801 64.143616,128.467135 64.883861,132.086530 C 65.495074,135.075023 66.196543,135.655211 71.533577,137.586532 C 74.815109,138.774026 79.525000,140.331095 82.000000,141.046686 C 84.475000,141.762277 86.927500,142.719514 87.450000,143.173880 C 87.972500,143.628246 89.322500,143.998750 90.450000,143.997222 C 91.577500,143.995695 94.300000,144.874684 96.500000,145.950532 C 101.812376,148.548399 125.867524,156.026613 128.863845,156.011736 C 132.714825,155.992617 138.998068,151.912658 139.588051,149.048084 C 139.876691,147.646638 140.512970,144.700000 141.002005,142.500000 C 141.491040,140.300000 142.164831,137.150000 142.499319,135.500000 C 143.599317,130.073812 146.203052,118.590964 148.168069,110.500000 C 148.702374,108.300000 149.529479,104.250000 150.006082,101.500000 C 151.902630,90.556906 154.889339,75.068939 156.628995,67.156015 C 158.411133,59.049866 158.410792,58.773547 156.617032,57.461917 C 153.692141,55.323185 151.762775,50.855723 151.791571,46.288525 C 151.810892,43.224077 151.366266,41.936375 150.159062,41.560542 C 147.186177,40.635006 134.738783,38.957972 123.500000,37.968773 C 117.450000,37.436273 108.900000,36.561650 104.500000,36.025167 C 100.100000,35.488683 91.325000,34.630348 85.000000,34.117756 C 78.675000,33.605164 69.562500,32.857088 64.750000,32.455366 C 57.384756,31.840553 56.000000,31.957744 56.000000,33.195871 C 56.000000,34.004871 54.506371,36.394654 52.680824,38.506501 C 49.644645,42.018841 48.847796,42.383390 43.334868,42.782159 C 37.452645,43.207640 37.220444,43.127852 33.654044,39.455647 C 30.370880,36.075082 30.000000,35.149035 30.000000,30.331914 C 30.000000,25.625664 30.416687,24.515945 33.410475,21.249157 C 36.687722,17.673062 37.064149,17.533275 43.046541,17.670802 C 49.650626,17.822620 51.090297,18.714400 55.282249,25.250000 C 56.998400,27.925622 57.297016,28.000000 66.323053,28.000000 C 71.425374,28.000000 76.027500,28.420140 76.550000,28.933644 C 77.072500,29.447149 81.550000,30.127907 86.500000,30.446440 C 91.450000,30.764972 99.550000,31.466277 104.500000,32.004895 C 119.736849,33.662841 134.016028,34.931468 145.176183,35.618752 C 153.874368,36.154418 156.614856,35.971143 159.967880,34.629529 C 166.541149,31.999428 173.230900,34.752127 176.376713,41.381435 C 178.957529,46.820102 178.386536,50.837391 174.294755,56.029287 C 173.404330,57.159112 173.342295,59.118170 174.057266,63.529287 C 174.589531,66.813179 175.275055,71.075000 175.580652,73.000000 C 175.886249,74.925000 176.527715,77.400000 177.006132,78.500000 C 177.484549,79.600000 178.087015,82.075000 178.344945,84.000000 C 178.602875,85.925000 179.306385,89.300000 179.908300,91.500000 C 180.510215,93.700000 181.258270,97.525000 181.570646,100.000000 C 181.883021,102.475000 182.557415,104.927500 183.069300,105.450000 C 183.581185,105.972500 184.015932,107.997500 184.035404,109.950000 C 184.054876,111.902500 185.067376,116.397794 186.285404,119.939542 C 188.116302,125.263379 189.106405,126.700210 192.000000,128.232533 C 193.925000,129.251929 196.850000,131.582154 198.500000,133.410811 C 201.131607,136.327360 202.142700,136.749617 206.733816,136.849456 C 211.562268,136.954456 212.085208,136.735905 213.485696,134.027661 C 214.938773,131.217721 219.298311,128.499500 223.452176,127.813450 C 225.066225,127.546875 225.789509,125.683612 227.628066,117.055877 C 228.851109,111.316542 230.340847,105.547339 230.938594,104.235426 C 231.536342,102.923512 231.791585,101.471794 231.505800,101.009385 C 231.032864,100.244159 232.813931,90.795211 235.088948,82.000000 C 235.586880,80.075000 236.943763,73.360395 238.104244,67.078655 L 240.214210,55.657309 L 236.107105,52.245720 C 232.314134,49.095067 232.000000,48.456973 232.000000,43.903041 C 232.000000,38.364817 234.937023,32.810321 238.797053,31.048460 C 242.705607,29.264451 249.451466,29.780683 252.385121,32.088296 C 255.800009,34.774448 258.000000,39.067822 258.000000,43.045970 C 258.000000,47.796991 251.657029,55.889369 247.872445,55.966731 C 245.259721,56.020138 244.362246,57.954994 242.522783,67.500000 C 240.344016,78.805661 239.395571,83.326302 238.012015,89.000000 C 237.408476,91.475000 236.650715,95.646884 236.328102,98.270853 C 236.005490,100.894823 235.349689,103.283880 234.870767,103.579870 C 234.391845,103.875860 233.990261,105.553976 233.978358,107.309017 C 233.966455,109.064058 233.082542,114.453587 232.014108,119.285750 L 230.071499,128.071499 L 234.035750,132.035750 C 237.495266,135.495266 238.000000,136.580412 238.000000,140.558638 C 238.000000,144.170727 237.349351,145.926923 234.866435,149.016579 L 231.732870,152.915882 L 234.479721,163.207941 C 239.511826,182.062523 239.272269,181.468988 242.000000,181.840447 C 245.686591,182.342482 251.263528,186.884265 250.724489,188.945554 C 250.478203,189.887354 250.854863,191.448610 251.561513,192.415011 C 253.775633,195.443001 252.251914,201.106122 248.242661,204.750000 C 245.177039,207.536242 243.941407,207.995479 239.583390,207.968320 C 236.038665,207.946229 233.659142,207.309440 231.722002,205.864518" fill="none" stroke="black" stroke-width="5"/>
  <path d="M 99.893269,22.503091 C 93.985343,19.291963 91.616961,10.973873 95.035624,5.442359 C 97.903648,0.801799 99.734244,-0.009937 107.184259,0.055329 C 112.931180,0.105675 113.706452,0.372194 115.792285,3.014549 C 117.159784,4.746910 118.324498,7.944255 118.679284,10.939867 C 119.253294,15.786481 119.134069,16.101225 115.254646,19.980648 C 111.765927,23.469367 110.658679,23.994714 106.867647,23.959962 C 104.465441,23.937942 101.326971,23.282350 99.893269,22.503091" fill="none" stroke="black" stroke-width="5"/>
</svg>
