<?xml version="1.0" encoding="utf-8" ?>
<svg baseProfile="full" height="218" version="1.1" width="255" xmlns="http://www.w3.org/2000/svg" xmlns:ev="http://www.w3.org/2001/xml-events" xmlns:xlink="http://www.w3.org/1999/xlink"><defs /><rect fill="white" height="218" width="255" x="0" y="0" /><path d="M 211,32 L 223,121" fill="none" stroke="black" stroke-width="5" /><path d="M 90,144 L 130,68" fill="none" stroke="black" stroke-width="5" /><circle cx="98.05914306640625" cy="200.64515686035156" fill="none" r="8.860442161560059" stroke="black" stroke-width="5" /><circle cx="231.57586669921875" cy="190.6448211669922" fill="none" r="8.583308219909668" stroke="black" stroke-width="5" /><circle cx="174.06179809570312" cy="189.32583618164062" fill="none" r="8.376626968383789" stroke="black" stroke-width="5" /><circle cx="39.58139419555664" cy="154.88372802734375" fill="none" r="8.62688159942627" stroke="black" stroke-width="5" /><circle cx="139.5616455078125" cy="153.26712036132812" fill="none" r="8.655004501342773" stroke="black" stroke-width="5" /><circle cx="86.27777862548828" cy="153.05555725097656" fill="none" r="8.722498893737793" stroke="black" stroke-width="5" /><circle cx="223.17999267578125" cy="130.28399658203125" fill="none" r="8.481669425964355" stroke="black" stroke-width="5" /><circle cx="89.04166412353516" cy="97.95833587646484" fill="none" r="8.544310569763184" stroke="black" stroke-width="5" /><circle cx="50.38372039794922" cy="96.81977081298828" fill="none" r="8.520567893981934" stroke="black" stroke-width="5" /><circle cx="11.676470756530762" cy="95.5" fill="none" r="8.69096565246582" stroke="black" stroke-width="5" /><circle cx="144.0142822265625" cy="94.26571655273438" fill="none" r="8.301012992858887" stroke="black" stroke-width="5" /><circle cx="243.29042053222656" cy="92.21257781982422" fill="none" r="8.891200065612793" stroke="black" stroke-width="5" /><circle cx="189.5" cy="92.5" fill="none" r="8.631438255310059" stroke="black" stroke-width="5" /><circle cx="136.5" cy="60.5" fill="none" r="8.860122680664062" stroke="black" stroke-width="5" /><circle cx="56.233943939208984" cy="45.58256912231445" fill="none" r="9.0173921585083" stroke="black" stroke-width="5" /><circle cx="97.5" cy="25.5" fill="none" r="9.192488670349121" stroke="black" stroke-width="5" /><circle cx="207.0611572265625" cy="23.974821090698242" fill="none" r="8.546462059020996" stroke="black" stroke-width="5" /><circle cx="152.0" cy="16.5" fill="none" r="9.013978004455566" stroke="black" stroke-width="5" /><path d="M 0,0 L 0,217 L 254,217 L 254,0 Z" fill="none" stroke="black" stroke-width="5" /></svg>