<?xml version="1.0" encoding="utf-8" ?>
<svg baseProfile="full" height="218" version="1.1" width="261" xmlns="http://www.w3.org/2000/svg" xmlns:ev="http://www.w3.org/2001/xml-events" xmlns:xlink="http://www.w3.org/1999/xlink"><defs /><rect fill="white" height="218" width="261" x="0" y="0" /><circle cx="215.2903289794922" cy="202.25807189941406" fill="none" r="8.569875717163086" stroke="black" stroke-width="1" /><circle cx="91.19930267333984" cy="199.31118774414062" fill="none" r="8.629016876220703" stroke="black" stroke-width="1" /><circle cx="159.37942504882812" cy="176.52127075195312" fill="none" r="8.63231372833252" stroke="black" stroke-width="1" /><circle cx="160.6764678955078" cy="141.5" fill="none" r="9.029561996459961" stroke="black" stroke-width="1" /><circle cx="117.93478393554688" cy="141.80435180664062" fill="none" r="8.799752235412598" stroke="black" stroke-width="1" /><circle cx="232.22727966308594" cy="133.36363220214844" fill="none" r="8.639445304870605" stroke="black" stroke-width="1" /><circle cx="57.5" cy="134.0" fill="none" r="8.500100135803223" stroke="black" stroke-width="1" /><circle cx="161.44000244140625" cy="92.4000015258789" fill="none" r="8.74730396270752" stroke="black" stroke-width="1" /><circle cx="206.0" cy="82.03333282470703" fill="none" r="8.575323104858398" stroke="black" stroke-width="1" /><circle cx="106.32758331298828" cy="77.87931060791016" fill="none" r="8.893211364746094" stroke="black" stroke-width="1" /><circle cx="19.0" cy="76.5" fill="none" r="8.732224464416504" stroke="black" stroke-width="1" /><circle cx="58.5" cy="76.16666412353516" fill="none" r="8.959885597229004" stroke="black" stroke-width="1" /><circle cx="159.5" cy="55.5" fill="none" r="9.300638198852539" stroke="black" stroke-width="1" /><circle cx="67.55999755859375" cy="16.600000381469727" fill="none" r="8.747307777404785" stroke="black" stroke-width="1" /><circle cx="194.41488647460938" cy="14.28723430633545" fill="none" r="8.4451322555542" stroke="black" stroke-width="1" /><circle cx="162.0" cy="14.0" fill="none" r="8.602425575256348" stroke="black" stroke-width="1" /><circle cx="121.03448486328125" cy="10.793103218078613" fill="none" r="8.455409049987793" stroke="black" stroke-width="1" /><path d="M 0,0 L 0,217 L 260,217 L 260,0 L 75,28 L 206,6 L 244,141 L 68,147 L 217,216 Z" fill="none" stroke="black" stroke-width="1" /></svg>