<?xml version="1.0" encoding="utf-8" ?>
<svg baseProfile="full" height="218" version="1.1" width="257" xmlns="http://www.w3.org/2000/svg" xmlns:ev="http://www.w3.org/2001/xml-events" xmlns:xlink="http://www.w3.org/1999/xlink"><defs /><rect fill="white" height="218" width="257" x="0" y="0" /><path d="M 44,56 L 126,141" fill="none" stroke="black" stroke-width="5" /><path d="M 133,137 L 134,61" fill="none" stroke="black" stroke-width="5" /><path d="M 209,52 L 214,144" fill="none" stroke="black" stroke-width="5" /><path d="M 141,149 L 208,149" fill="none" stroke="black" stroke-width="5" /><circle cx="65.86363983154297" cy="194.13636779785156" fill="none" r="8.412264823913574" stroke="black" stroke-width="5" /><circle cx="125.38461303710938" cy="190.15383911132812" fill="none" r="8.656940460205078" stroke="black" stroke-width="5" /><circle cx="215.36264038085938" cy="152.8351593017578" fill="none" r="8.8302640914917" stroke="black" stroke-width="5" /><circle cx="132.13636779785156" cy="146.5" fill="none" r="9.060271263122559" stroke="black" stroke-width="5" /><circle cx="27.0" cy="140.5" fill="none" r="8.90234661102295" stroke="black" stroke-width="5" /><circle cx="237.35714721679688" cy="98.07142639160156" fill="none" r="8.855510711669922" stroke="black" stroke-width="5" /><circle cx="188.94444274902344" cy="97.38888549804688" fill="none" r="9.076254844665527" stroke="black" stroke-width="5" /><circle cx="157.5" cy="95.0" fill="none" r="9.013978004455566" stroke="black" stroke-width="5" /><circle cx="38.42253494262695" cy="95.85211181640625" fill="none" r="8.500496864318848" stroke="black" stroke-width="5" /><circle cx="109.5" cy="94.5" fill="none" r="8.860122680664062" stroke="black" stroke-width="5" /><circle cx="134.5" cy="52.5" fill="none" r="8.746527671813965" stroke="black" stroke-width="5" /><circle cx="41.04166793823242" cy="48.95833206176758" fill="none" r="8.544304847717285" stroke="black" stroke-width="5" /><circle cx="208.23394775390625" cy="42.58256912231445" fill="none" r="9.017391204833984" stroke="black" stroke-width="5" /><circle cx="106.0" cy="18.636363983154297" fill="none" r="8.423307418823242" stroke="black" stroke-width="5" /><path d="M 0,0 L 0,217 L 256,217 L 256,0 Z" fill="none" stroke="black" stroke-width="5" /></svg>