<?xml version="1.0" encoding="utf-8" ?>
<svg baseProfile="full" height="217" version="1.1" width="262" xmlns="http://www.w3.org/2000/svg" xmlns:ev="http://www.w3.org/2001/xml-events" xmlns:xlink="http://www.w3.org/1999/xlink"><defs /><rect fill="white" height="217" width="262" x="0" y="0" /><circle cx="132.125" cy="196.40625" fill="none" r="8.884393692016602" stroke="black" stroke-width="1" /><circle cx="26.033742904663086" cy="181.9846649169922" fill="none" r="8.570354461669922" stroke="black" stroke-width="1" /><circle cx="25.97953224182129" cy="181.8157958984375" fill="black" r="14.377604484558105" stroke="black" stroke-width="1" /><circle cx="188.5" cy="155.0" fill="none" r="8.90234661102295" stroke="black" stroke-width="1" /><circle cx="82.47368621826172" cy="144.26315307617188" fill="none" r="8.649948120117188" stroke="black" stroke-width="1" /><circle cx="25.37417221069336" cy="141.53311157226562" fill="none" r="8.621670722961426" stroke="black" stroke-width="1" /><circle cx="25.83333396911621" cy="141.5" fill="black" r="14.385663986206055" stroke="black" stroke-width="1" /><circle cx="130.35714721679688" cy="104.4142837524414" fill="none" r="8.7481107711792" stroke="black" stroke-width="1" /><circle cx="26.07594871520996" cy="101.98734283447266" fill="none" r="8.548154830932617" stroke="black" stroke-width="1" /><circle cx="26.254716873168945" cy="101.51886749267578" fill="black" r="14.469135284423828" stroke="black" stroke-width="1" /><circle cx="223.7142791748047" cy="87.07142639160156" fill="none" r="8.251572608947754" stroke="black" stroke-width="1" /><circle cx="77.1956558227539" cy="74.8043441772461" fill="none" r="8.329615592956543" stroke="black" stroke-width="1" /><circle cx="25.5" cy="64.83333587646484" fill="none" r="8.579793930053711" stroke="black" stroke-width="1" /><circle cx="25.595890045166016" cy="64.71917724609375" fill="black" r="14.773120880126953" stroke="black" stroke-width="1" /><circle cx="192.91175842285156" cy="58.5" fill="none" r="9.255890846252441" stroke="black" stroke-width="1" /><circle cx="126.69767761230469" cy="42.41279220581055" fill="none" r="8.72224235534668" stroke="black" stroke-width="1" /><circle cx="25.0" cy="29.0" fill="none" r="8.602425575256348" stroke="black" stroke-width="1" /><circle cx="25.314815521240234" cy="28.685184478759766" fill="black" r="14.781660079956055" stroke="black" stroke-width="1" /><circle cx="187.68605041503906" cy="15.284883499145508" fill="none" r="9.017171859741211" stroke="black" stroke-width="1" /><path d="M 191,2 L 203,69 L 90,70 L 237,81 L 128,209 L 63,72 Z" fill="black" stroke="black" stroke-width="1" /><path d="M 0,0 L 0,216 L 261,216 L 261,0 Z" fill="none" stroke="black" stroke-width="1" /></svg>