<?xml version="1.0" encoding="utf-8" ?>
<svg xmlns="http://www.w3.org/2000/svg" xmlns:ev="http://www.w3.org/2001/xml-events" xmlns:xlink="http://www.w3.org/1999/xlink" baseProfile="full" height="221" version="1.1" width="257">
  <defs/>
  <path d="M 166.500000,195.342408 C 162.005132,194.160364 157.965814,187.916220 158.073088,182.315741 C 158.212662,175.028965 163.232341,169.881811 171.541752,168.505040 C 175.504964,167.848383 175.608502,167.725234 176.869941,162.167685 C 177.577482,159.050458 179.085484,153.749286 180.221058,150.387303 C 183.246921,141.428923 181.621441,137.143955 176.236431,139.883329 C 175.281394,140.369159 173.150000,141.380942 171.500000,142.131734 C 169.850000,142.882527 168.275000,143.728599 168.000000,144.011895 C 167.725000,144.295191 165.250000,145.582657 162.500000,146.872929 C 159.750000,148.163202 156.600000,149.702416 155.500000,150.293404 C 154.400000,150.884393 152.150000,151.988680 150.500000,152.747376 C 148.850000,153.506072 146.825000,154.519651 146.000000,154.999774 C 144.578439,155.827075 141.665458,157.241711 127.384820,164.039894 C 121.977882,166.613823 121.205367,167.347048 120.714682,170.370786 C 119.727337,176.455079 114.161369,181.000000 107.697543,181.000000 C 104.204676,181.000000 98.259269,177.677871 96.959719,175.000000 C 94.140925,169.191557 93.806077,167.847235 94.395497,164.705358 C 95.934297,156.502848 105.678883,151.721150 113.081479,155.536088 C 114.961666,156.505045 117.088017,158.130816 117.806704,159.148914 C 118.525391,160.167011 119.993997,161.000000 121.070273,161.000000 C 122.837204,161.000000 126.726165,159.305074 128.000000,157.979816 C 128.275000,157.693714 131.425000,156.082227 135.000000,154.398733 C 138.575000,152.715239 148.025000,148.141795 156.000000,144.235525 C 163.975000,140.329255 171.737500,136.664380 173.250000,136.091359 C 175.565315,135.214185 176.007592,134.452837 176.048032,131.274751 C 176.123823,125.318420 178.860668,120.982932 184.493944,117.895426 C 188.103313,115.917191 189.676045,114.373939 190.166540,112.329164 C 190.539798,110.773124 191.757983,106.125000 192.873619,102.000000 C 193.989255,97.875000 195.629549,91.575000 196.518716,88.000000 C 200.556798,71.764416 202.224906,65.272498 203.116607,62.322431 C 203.644863,60.574768 204.341913,56.908704 204.665606,54.175621 C 205.183410,49.803579 204.998510,49.069570 203.127069,48.068005 C 199.972837,46.379912 197.936647,42.716166 197.168600,37.346848 C 196.400491,31.977100 197.272302,32.637995 181.500000,25.468938 C 176.000000,22.968998 170.718606,20.490784 169.763569,19.961796 C 166.939890,18.397782 165.007659,18.849655 164.079425,21.291097 C 162.742420,24.807687 160.857746,25.881718 154.768021,26.597445 C 150.005863,27.157143 148.720559,26.937209 146.179511,25.127823 C 144.535972,23.957520 142.542992,23.000000 141.750666,23.000000 C 140.958339,23.000000 137.525123,24.800000 134.121295,27.000000 C 130.717467,29.200000 127.535201,31.000000 127.049592,31.000000 C 126.563983,31.000000 126.016667,31.363695 125.833333,31.808212 C 125.351408,32.976706 116.336713,39.000000 115.069825,39.000000 C 114.481421,39.000000 114.000000,39.366009 114.000000,39.813354 C 114.000000,40.260698 112.425000,41.244689 110.500000,42.000000 C 107.165740,43.308261 107.000000,43.604385 107.000000,48.253368 C 107.000000,56.573391 101.050455,61.974982 91.865010,61.994423 C 89.256309,61.999944 86.026244,65.412793 85.977764,68.214817 C 85.965534,68.921668 85.075541,70.625000 84.000000,72.000000 C 82.924459,73.375000 82.034466,75.105533 82.022236,75.845630 C 82.010006,76.585726 81.151069,78.385726 80.113486,79.845630 C 79.075904,81.305533 77.762214,84.075000 77.194176,86.000000 C 75.406124,92.059451 73.747613,96.316192 70.829254,102.336235 C 69.273164,105.546164 68.000000,108.766138 68.000000,109.491734 C 68.000000,110.217329 67.153194,112.541024 66.118209,114.655499 C 65.083225,116.769975 63.170725,120.750000 61.868209,123.500000 C 60.565694,126.250000 59.162500,128.650000 58.750000,128.833333 C 58.337500,129.016667 58.000000,129.991667 58.000000,131.000000 C 58.000000,132.008333 57.485471,133.004843 56.856602,133.214466 C 56.021814,133.492729 56.062220,134.257463 57.006306,136.047799 C 57.717512,137.396510 58.600526,138.725000 58.968558,139.000000 C 60.575324,140.200601 62.711682,147.777569 62.269528,150.707468 C 61.547769,155.490153 56.293987,160.963501 51.740783,161.676231 C 45.956740,162.581630 39.448489,159.670709 36.376450,154.804283 C 34.873500,152.423458 34.122440,150.145559 34.514432,149.156952 C 34.875780,148.245629 35.344342,146.200368 35.555680,144.611928 C 36.203846,139.740247 42.036269,135.000000 47.382246,135.000000 C 49.525805,135.000000 54.000000,130.700428 54.000000,128.640530 C 54.000000,128.085966 57.672872,119.828688 63.078216,108.231066 C 64.685197,104.783153 66.000000,101.295653 66.000000,100.481066 C 66.000000,99.666480 66.337500,98.996489 66.750000,98.992198 C 67.518589,98.984203 70.000000,94.248555 70.000000,92.789737 C 70.000000,91.972424 71.791017,87.795155 77.110715,76.205100 C 78.699822,72.742905 80.000000,69.564928 80.000000,69.142929 C 80.000000,68.720930 80.943952,66.421902 82.097672,64.033978 L 84.195344,59.692298 L 82.097672,55.959994 C 80.943952,53.907227 80.000000,51.141461 80.000000,49.813845 C 80.000000,46.946741 78.296013,45.000000 75.786431,45.000000 C 74.788968,45.000000 73.191468,44.571254 72.236431,44.047231 C 69.618753,42.610928 58.999821,39.272693 54.736943,38.545981 C 51.888660,38.060421 50.834080,38.268806 50.398771,39.403203 C 50.082457,40.227504 47.842480,41.658549 45.421044,42.583304 C 37.478503,45.616588 30.616615,42.775779 27.412682,35.127876 C 25.595291,30.789697 25.633049,28.837358 27.614709,24.681774 C 29.619210,20.478292 33.664135,18.000000 38.520315,18.000000 C 43.890669,18.000000 51.699060,23.878929 52.582354,28.587293 C 53.351955,32.689620 53.456476,32.752515 67.209867,37.389301 C 78.842282,41.311026 82.461071,41.785431 83.710694,39.552477 C 84.156236,38.756339 86.002439,37.481958 87.813370,36.720519 C 91.433145,35.198518 98.220414,36.278185 101.347485,38.873423 C 103.098089,40.326296 108.000000,39.668675 108.000000,37.980948 C 108.000000,37.441427 108.470322,37.000000 109.045160,37.000000 C 109.619998,37.000000 113.424676,34.750000 117.500000,32.000000 C 121.575324,29.250000 125.202240,27.000000 125.559815,27.000000 C 125.917390,27.000000 128.210271,25.650000 130.655107,24.000000 C 133.099944,22.350000 135.343073,21.000000 135.639839,21.000000 C 137.195014,21.000000 139.937757,16.078516 139.966731,13.235976 C 140.004123,9.567450 143.470765,3.621345 146.500000,2.029883 C 150.293434,0.036936 157.308393,0.020005 159.750000,1.997904 C 160.987500,3.000379 162.000000,4.280629 162.000000,4.842905 C 162.000000,5.405181 162.900000,6.150874 164.000000,6.500000 C 165.483879,6.970965 166.000000,8.013034 166.000000,10.538078 C 166.000000,13.674173 166.412200,14.128609 171.250000,16.326011 C 174.137500,17.637558 178.187500,19.260645 180.250000,19.932873 C 182.312500,20.605100 184.000000,21.570206 184.000000,22.077552 C 184.000000,22.584898 184.661664,23.000000 185.470365,23.000000 C 186.279065,23.000000 189.400230,24.125000 192.406288,25.500000 C 198.694114,28.376114 199.821126,28.503729 202.527494,26.646055 C 206.902010,23.643349 210.291826,23.221495 214.759891,25.123765 C 221.952614,28.186052 224.273277,31.021996 224.161066,36.612380 C 224.031613,43.061702 222.392071,46.659394 218.874367,48.213122 C 216.339666,49.332670 216.038063,49.890083 216.554840,52.500000 C 217.529640,57.423111 218.820764,63.218576 220.007959,68.000000 C 220.622484,70.475000 221.476432,74.525000 221.905620,77.000000 C 222.334808,79.475000 223.197548,82.625000 223.822819,84.000000 C 225.150288,86.919167 228.443879,99.105395 230.985016,110.500000 C 231.966270,114.900000 234.203042,123.900000 235.955621,130.500000 C 239.342886,143.256031 240.812003,149.342289 241.869492,155.000000 C 242.417228,157.930457 242.995070,158.553982 245.420496,158.831732 C 251.801693,159.562482 256.091939,167.365925 254.570697,175.474847 C 253.668999,180.281307 247.357393,185.000000 241.830090,185.000000 C 237.474634,185.000000 230.000000,180.885163 230.000000,178.487455 C 230.000000,177.669355 229.550000,177.000000 229.000000,177.000000 C 227.569406,177.000000 227.762530,168.378236 229.250000,165.839050 C 229.937500,164.665453 231.984493,162.309059 233.798873,160.602618 C 237.096344,157.501318 237.097277,157.497663 235.994061,152.000000 C 235.387034,148.975000 234.273563,144.925000 233.519681,143.000000 C 232.765799,141.075000 231.893962,137.925000 231.582265,136.000000 C 231.012641,132.482073 230.548857,130.391439 227.478245,117.500000 C 226.561213,113.650000 225.713305,109.825000 225.594004,109.000000 C 225.474704,108.175000 224.639358,105.025000 223.737680,102.000000 C 220.963424,92.692769 218.772635,83.690227 218.262253,79.500000 C 217.994287,77.300000 217.437091,75.050000 217.024041,74.500000 C 216.610990,73.950000 215.997571,71.700000 215.660886,69.500000 C 214.770824,63.684058 212.052347,55.000000 211.121775,55.000000 C 209.917441,55.000000 208.004282,59.730185 207.968197,62.797053 C 207.950705,64.283674 207.273594,66.376395 206.463507,67.447543 C 205.653419,68.518692 205.254909,70.227787 205.577929,71.245531 C 205.900948,72.263276 205.734594,73.636881 205.208253,74.297988 C 204.681911,74.959094 204.029024,76.850000 203.757393,78.500000 C 203.485761,80.150000 202.553775,83.525000 201.686313,86.000000 C 200.818850,88.475000 199.586394,93.200000 198.947520,96.500000 C 198.308647,99.800000 197.416663,103.625000 196.965334,105.000000 C 196.514005,106.375000 195.863690,109.610213 195.520189,112.189362 C 194.946118,116.499723 195.165877,117.186707 198.239263,120.689362 C 203.173670,126.312975 204.101867,129.018152 202.597994,133.392629 C 200.714100,138.872510 195.597444,143.000000 190.688186,143.000000 C 186.787974,143.000000 186.676585,143.263485 182.867276,161.500000 C 182.292846,164.250000 181.370779,167.046639 180.818237,167.714753 C 180.121018,168.557806 180.392529,169.781759 181.705563,171.714753 C 184.209118,175.400382 186.000000,179.661528 186.000000,181.932746 C 186.000000,185.029980 181.205846,193.000000 179.342787,193.000000 C 178.695921,193.000000 178.016667,193.443819 177.833333,193.986264 C 177.442422,195.142889 169.400531,196.105180 166.500000,195.342408" fill="none" stroke="black" stroke-width="5"/>
</svg>
