<?xml version="1.0" encoding="utf-8" ?>
<svg xmlns="http://www.w3.org/2000/svg" xmlns:ev="http://www.w3.org/2001/xml-events" xmlns:xlink="http://www.w3.org/1999/xlink" baseProfile="full" height="220" version="1.1" width="256">
  <defs/>
  <path d="M 78.976883,185.812879 C 75.444982,183.119008 74.382045,181.592107 73.855952,178.456693 C 72.632242,171.163613 74.214313,167.527107 80.038838,164.244868 C 82.827731,162.673271 83.471487,161.731700 83.353200,159.397217 C 82.816445,148.803908 81.711961,133.000138 80.425114,117.500000 C 78.197726,90.671013 78.206657,90.789040 78.099481,86.763420 C 78.010829,83.433599 77.595764,82.857940 74.286598,81.475282 C 72.244228,80.621925 69.732078,79.162522 68.704045,78.232164 C 66.564361,76.295777 64.000000,70.651244 64.000000,67.877876 C 64.000000,66.681748 63.290998,66.000000 62.047053,66.000000 C 60.972932,66.000000 59.060432,65.596863 57.797053,65.104139 C 56.533674,64.611415 53.475000,63.630141 51.000000,62.923530 C 48.525000,62.216919 44.700000,60.874208 42.500000,59.939728 C 40.300000,59.005248 35.681492,57.260158 32.236649,56.061750 L 25.973297,53.882826 L 23.082278,55.941413 C 19.638362,58.393697 13.183280,58.663258 9.052752,56.527279 C 6.063959,54.981714 2.000000,47.902327 2.000000,44.241436 C 2.000000,40.749163 5.958998,35.113291 9.638836,33.367094 C 12.154860,32.173162 14.504358,31.901445 18.376719,32.356565 C 23.418840,32.949167 23.739400,32.847482 25.050586,30.239534 C 25.808124,28.732790 27.273951,26.246119 28.307978,24.713598 C 30.073465,22.096990 30.090896,21.684435 28.594015,17.943362 C 26.604894,12.972060 26.598389,11.044197 28.554243,6.156037 C 30.404127,1.532723 33.278896,0.000000 40.100482,0.000000 C 44.059791,0.000000 45.827690,0.575153 48.553399,2.750000 C 50.646074,4.419748 51.999953,6.383843 51.999971,7.750000 C 51.999987,8.987500 52.450000,10.000000 53.000000,10.000000 C 53.550000,10.000000 54.000000,11.055863 54.000000,12.346362 C 54.000000,19.417823 45.258278,26.700365 37.947059,25.719725 C 34.568497,25.266565 33.706350,25.557856 31.997947,27.729740 C 30.899076,29.126727 30.000000,30.736098 30.000000,31.306118 C 30.000000,31.876138 29.349022,33.061841 28.553382,33.941013 C 27.438639,35.172790 27.318179,36.452635 28.028303,39.519754 C 28.535149,41.708889 28.698648,44.895326 28.391634,46.600724 C 27.871553,49.489664 28.145728,49.848246 32.405815,51.850724 C 34.920629,53.032826 37.798584,54.000000 38.801272,54.000000 C 39.803960,54.000000 42.487127,54.900000 44.763864,56.000000 C 47.040602,57.100000 49.529678,58.000000 50.295143,58.000000 C 51.060609,58.000000 54.302795,58.900000 57.500000,60.000000 C 65.143628,62.629794 66.205207,62.544867 70.000000,59.000000 C 72.753417,56.427923 73.987435,56.000000 78.651210,56.000000 C 83.105234,56.000000 84.539277,56.448368 86.565341,58.474432 C 87.926278,59.835369 89.310055,62.300277 89.640401,63.952005 C 90.788504,69.692522 89.491216,69.453259 130.750000,71.533957 C 143.606524,72.182317 144.000000,72.142044 144.000000,70.177805 C 144.000000,69.064410 145.175201,66.756804 146.611557,65.049791 L 149.223115,61.946132 L 146.999219,56.723066 C 145.776077,53.850380 143.992192,49.700000 143.035030,47.500000 C 142.077868,45.300000 141.017544,42.712500 140.678753,41.750000 C 140.228146,40.469833 138.967107,40.000000 135.981725,40.000000 C 122.314769,40.000000 116.883726,24.603346 127.435580,15.772236 C 132.419401,11.601152 144.786339,14.730048 147.111977,20.750460 C 148.519651,24.394527 147.612803,32.078739 145.601513,33.549430 C 143.821094,34.851304 143.448132,38.540893 145.000000,39.500000 C 145.550000,39.839919 146.000000,40.903375 146.000000,41.863236 C 146.000000,42.823098 147.350000,45.737168 149.000000,48.338948 C 150.650000,50.940728 152.000000,54.100388 152.000000,55.360414 C 152.000000,58.234277 155.902187,62.000000 158.880193,62.000000 C 161.569858,62.000000 165.069070,63.742155 166.628766,65.857788 C 167.632163,67.218834 168.076434,67.181802 170.628766,65.524363 C 172.207945,64.498873 174.088017,62.836373 174.806704,61.829918 C 175.525391,60.823463 176.517437,60.000000 177.011249,60.000000 C 177.505062,60.000000 178.980071,58.987500 180.289048,57.750000 C 181.598024,56.512500 185.668478,52.859513 189.334502,49.632251 C 195.622470,44.096848 196.000000,43.519636 196.000000,39.441268 C 196.000000,37.063489 196.450000,34.839919 197.000000,34.500000 C 199.000113,33.263862 197.896012,31.424373 192.948505,27.750000 C 187.541230,23.734171 185.516421,23.322199 180.356579,25.188022 C 176.547242,26.565496 173.571070,25.399369 168.833606,20.673077 C 166.381071,18.226326 166.000000,17.075984 166.000000,12.119244 C 166.000000,6.910247 166.309926,6.091941 169.427057,3.070700 C 172.708004,-0.109320 173.119206,-0.231759 179.071980,0.198826 C 184.729119,0.608026 185.600861,0.987960 188.738651,4.411882 C 191.783226,7.734089 192.132114,8.663048 191.715296,12.337589 C 191.455608,14.626915 190.921652,17.471562 190.528727,18.659027 C 189.928507,20.472960 190.428548,21.106246 193.657159,22.621086 C 195.770721,23.612754 198.094643,25.003692 198.821429,25.712060 C 200.519048,27.366657 201.803742,27.333347 207.000000,25.500000 C 209.338299,24.675000 211.581521,24.000000 211.984937,24.000000 C 212.388352,24.000000 214.806776,25.838244 217.359210,28.084987 C 221.896987,32.079298 222.000000,32.301295 222.000000,38.086098 C 222.000000,43.703452 221.791907,44.204170 217.879418,48.001111 C 215.009358,50.786409 212.884984,52.000000 210.879418,52.000000 C 208.746533,52.000000 208.000000,52.478698 208.000000,53.846362 C 208.000000,54.861861 207.350961,56.999361 206.557692,58.596362 C 205.764422,60.193363 204.589079,63.750000 203.945818,66.500000 C 203.302557,69.250000 201.879132,74.200000 200.782652,77.500000 C 199.686172,80.800000 198.545093,84.842073 198.246920,86.482384 C 197.948747,88.122695 196.871211,90.948882 195.852394,92.762800 C 194.833577,94.576718 193.998318,97.284645 193.996262,98.780416 C 193.994206,100.276187 193.079248,102.997973 191.963021,104.828830 C 189.045956,109.613457 184.432590,127.078971 185.411804,129.630761 C 185.654486,130.263181 184.986110,131.711161 183.926522,132.848494 C 182.866935,133.985828 182.000000,135.369922 182.000000,135.924260 C 182.000000,136.478597 181.361751,138.409913 180.581669,140.216073 C 177.687422,146.917258 173.824907,160.577936 173.666401,164.673520 C 173.427883,170.836524 174.660787,171.583470 181.668658,169.521633 C 184.875896,168.578007 189.697509,166.949611 192.383353,165.902975 C 195.069197,164.856339 198.129044,164.000000 199.183013,164.000000 C 200.236982,164.000000 202.501722,163.274789 204.215770,162.388421 C 205.929817,161.502053 209.169970,160.245288 211.416110,159.595611 C 215.150743,158.515399 215.545710,158.075958 216.034495,154.457190 C 216.726078,149.336985 220.507074,144.267175 224.246616,143.445834 C 231.518653,141.848627 237.180313,144.349743 240.750000,150.736431 C 244.394246,157.256516 238.688946,167.411274 231.000000,168.090277 C 225.692318,168.558993 223.179775,167.907048 220.687037,165.414310 L 218.101348,162.828620 L 212.300674,164.452807 C 209.110303,165.346109 205.600000,166.480134 204.500000,166.972863 C 200.002960,168.987246 190.224464,172.000000 188.183421,172.000000 C 186.982539,172.000000 186.000000,172.374580 186.000000,172.832400 C 186.000000,173.290220 183.862500,174.077720 181.250000,174.582400 C 177.183571,175.367948 176.456999,175.869474 176.201198,178.067401 C 176.036856,179.479472 174.409243,182.362613 172.584279,184.474381 C 169.418180,188.138052 168.979622,188.317853 163.011768,188.398934 C 156.941178,188.481411 156.658081,188.369044 153.378687,184.575344 C 149.576489,180.176850 148.978506,175.689028 151.416987,169.852921 C 153.134515,165.742299 159.286829,162.000000 164.327138,162.000000 C 166.282293,162.000000 168.242380,161.437500 168.682887,160.750000 C 170.037930,158.635178 171.969069,152.611439 171.984944,150.450000 C 171.993225,149.322500 172.371754,147.972500 172.826120,147.450000 C 173.280486,146.927500 174.230152,144.475000 174.936490,142.000000 C 175.642828,139.525000 177.071074,135.302491 178.110371,132.616647 C 179.149667,129.930803 180.000000,126.870956 180.000000,125.816987 C 180.000000,124.763018 180.614858,122.685527 181.366352,121.200340 C 182.117845,119.715153 183.048629,116.757101 183.434760,114.626892 C 183.820891,112.496683 184.527317,110.021683 185.004596,109.126892 C 185.481874,108.232101 187.304464,102.775000 189.054795,97.000000 C 190.805125,91.225000 192.633841,85.718606 193.118607,84.763569 C 193.603373,83.808532 194.000000,82.147589 194.000000,81.072586 C 194.000000,79.997582 194.450000,78.839919 195.000000,78.500000 C 195.550000,78.160081 196.000000,77.133720 196.000000,76.219197 C 196.000000,73.237367 200.259527,59.853796 203.321337,53.215318 C 204.171937,51.371085 204.001556,50.558680 202.437541,49.001231 C 200.522963,47.094692 200.446667,47.118350 196.000000,50.997400 C 193.525000,53.156467 190.375000,55.497118 189.000000,56.198847 C 187.625000,56.900577 184.426820,59.656844 181.892933,62.323886 C 179.359046,64.990928 176.280883,67.696616 175.052572,68.336526 C 172.496613,69.668098 170.741445,72.660056 168.930938,78.771812 C 165.898728,89.007689 149.634733,90.331684 144.913924,80.726954 L 143.327847,77.500000 L 129.913924,76.402300 C 122.536266,75.798565 116.500000,75.209828 116.500000,75.093997 C 116.500000,74.978165 113.125000,74.705294 109.000000,74.487616 C 104.875000,74.269937 99.350839,73.802343 96.724087,73.448517 C 92.174959,72.835745 91.791705,72.976020 88.653082,76.402598 C 86.840782,78.381169 84.553210,80.000000 83.569589,80.000000 C 82.048316,80.000000 81.883139,80.560126 82.463743,83.750000 C 82.839149,85.812500 83.304994,94.025000 83.498955,102.000000 C 83.692916,109.975000 84.324624,117.739508 84.902751,119.254461 C 85.480878,120.769415 85.983677,125.494415 86.020082,129.754461 C 86.135822,143.297926 86.498713,148.460874 87.438957,149.941183 C 87.942423,150.733834 88.484280,153.789483 88.643084,156.731515 C 88.979949,162.972349 89.453282,164.000000 91.990923,164.000000 C 96.092837,164.000000 98.576583,170.738427 98.139777,180.681906 C 97.964073,184.681666 93.934996,187.773040 87.802114,188.613645 C 83.910495,189.147051 82.947649,188.841483 78.976883,185.812879" fill="none" stroke="black" stroke-width="5"/>
</svg>
