<?xml version="1.0" encoding="utf-8" ?>
<svg baseProfile="full" height="220" version="1.1" width="260" xmlns="http://www.w3.org/2000/svg" xmlns:ev="http://www.w3.org/2001/xml-events" xmlns:xlink="http://www.w3.org/1999/xlink"><defs /><rect fill="white" height="220" width="260" x="0" y="0" /><path d="M 185,219" fill="none" stroke="black" stroke-width="5" /><circle cx="186.00282287597656" cy="206.22882080078125" fill="none" r="8.46914005279541" stroke="black" stroke-width="5" /><circle cx="45.5" cy="203.9166717529297" fill="none" r="8.461206436157227" stroke="black" stroke-width="5" /><circle cx="105.5" cy="196.8333282470703" fill="none" r="8.959881782531738" stroke="black" stroke-width="5" /><circle cx="209.125" cy="177.875" fill="none" r="8.77684497833252" stroke="black" stroke-width="5" /><circle cx="185.0" cy="153.0" fill="none" r="8.602425575256348" stroke="black" stroke-width="5" /><circle cx="57.673553466796875" cy="150.39256286621094" fill="none" r="8.709145545959473" stroke="black" stroke-width="5" /><circle cx="233.5" cy="140.5" fill="none" r="8.514793395996094" stroke="black" stroke-width="5" /><path d="M 108,105 L 107,114 L 110,118 L 118,119 L 123,115 L 121,106 Z" fill="none" stroke="black" stroke-width="5" /><circle cx="186.5" cy="96.5" fill="none" r="8.860122680664062" stroke="black" stroke-width="5" /><circle cx="58.81097412109375" cy="89.4756088256836" fill="none" r="8.56938648223877" stroke="black" stroke-width="5" /><circle cx="186.88255310058594" cy="52.72147750854492" fill="none" r="8.766114234924316" stroke="black" stroke-width="5" /><circle cx="89.66666412353516" cy="41.66666793823242" fill="none" r="8.36005973815918" stroke="black" stroke-width="5" /><circle cx="224.11538696289062" cy="41.269229888916016" fill="none" r="8.75801944732666" stroke="black" stroke-width="5" /><circle cx="146.4383544921875" cy="40.26712417602539" fill="none" r="8.655004501342773" stroke="black" stroke-width="5" /><circle cx="186.6999969482422" cy="15.5" fill="none" r="8.363116264343262" stroke="black" stroke-width="5" /><path d="M 0,0 L 0,219 L 259,219 L 259,0 Z" fill="none" stroke="black" stroke-width="5" /></svg>