<?xml version="1.0" encoding="utf-8" ?>
<svg xmlns="http://www.w3.org/2000/svg" xmlns:ev="http://www.w3.org/2001/xml-events" xmlns:xlink="http://www.w3.org/1999/xlink" baseProfile="full" height="218" version="1.1" width="261">
  <defs/>
  <path d="M 209.492282,214.158301 C 207.838037,213.149478 205.229126,210.678114 203.694702,208.666380 C 201.463051,205.740535 200.264081,205.025872 197.702420,205.094594 C 191.669858,205.256430 118.507787,203.968845 111.453175,203.576687 C 104.618956,203.196780 104.370718,203.265463 103.225287,205.853169 C 101.915627,208.811896 96.824027,211.974770 92.988372,212.212284 C 85.364747,212.684358 84.048961,212.146660 80.977976,207.304219 C 79.340089,204.721540 78.001682,201.459040 78.003738,200.054219 C 78.007823,197.262986 81.313263,191.222640 83.852786,189.365695 C 85.677891,188.031145 85.069363,186.615115 75.960269,171.000000 C 73.233103,166.325000 69.327705,159.237500 67.281607,155.250000 L 63.561429,148.000000 L 58.508559,148.000000 C 54.350308,148.000000 52.799976,147.459507 49.752187,144.947262 C 41.655202,138.273042 43.230002,126.215914 52.643306,122.812019 L 56.000000,121.598223 L 56.000000,107.346165 C 56.000000,93.114445 55.045743,88.000000 52.390376,88.000000 C 50.732557,88.000000 46.000000,81.820347 46.000000,79.655609 C 46.000000,78.316322 44.953572,78.000000 40.523053,78.000000 C 35.644954,78.000000 34.852241,78.300641 33.273053,80.749602 C 28.789077,87.703228 25.229616,90.040977 19.299660,89.926912 C 14.276897,89.830297 9.903852,87.186517 7.751554,82.945358 C 1.221845,70.078398 15.263620,58.366683 27.256018,66.677421 C 29.380954,68.150002 31.561530,70.180711 32.101742,71.190107 C 32.741725,72.385926 34.037453,72.952718 35.820591,72.816847 C 37.325745,72.702159 39.073136,72.927167 39.703682,73.316865 C 41.571014,74.470940 45.775772,71.955547 47.026419,68.936218 C 48.154331,66.213199 55.098520,62.000000 58.458685,62.000000 C 60.476078,62.000000 67.149554,65.829874 68.659530,67.854214 C 69.334716,68.759396 70.396019,71.589988 71.017982,74.144417 C 71.910541,77.810198 71.869754,79.285184 70.824412,81.144417 C 68.803802,84.738249 65.785577,88.000000 64.480674,88.000000 C 63.836789,88.000000 62.530542,88.861263 61.577902,89.913919 C 60.071920,91.578011 59.888525,93.662229 60.172915,105.881063 C 60.440132,117.362039 60.804862,120.238627 62.165584,121.597014 C 63.718740,123.147504 63.988745,123.094377 66.165584,120.809966 C 67.449513,119.462590 70.975000,115.078058 74.000000,111.066561 C 77.025000,107.055064 79.952023,103.261521 80.504496,102.636465 C 81.056968,102.011409 83.531968,99.025000 86.004496,96.000000 C 88.477023,92.975000 91.287500,89.627647 92.250000,88.561439 C 93.552495,87.118601 94.000000,84.896167 94.000000,79.870456 C 94.000000,76.156624 94.450000,72.839919 95.000000,72.500000 C 96.892394,71.330436 95.989524,67.493242 93.000000,64.000000 C 91.352581,62.075000 90.003637,59.975000 90.002346,59.333333 C 90.001056,58.691667 89.628008,58.016667 89.173350,57.833333 C 88.134925,57.414605 80.000000,45.158399 80.000000,44.012619 C 80.000000,43.547345 79.631287,43.016667 79.180639,42.833333 C 78.729990,42.650000 76.463222,39.687500 74.143378,36.250000 C 70.203362,30.411764 69.674024,30.000000 66.108762,30.000000 C 58.960897,30.000000 52.855267,21.138187 55.154973,14.101488 C 56.666750,9.475716 62.514114,3.995226 65.916610,4.015056 C 70.625670,4.042501 76.251719,6.632809 77.729924,9.454064 C 79.095440,12.060244 79.389088,12.142361 85.823424,11.717360 C 89.495541,11.474810 95.708549,10.717823 99.630109,10.035168 C 106.394612,8.857620 106.919138,8.568514 109.859502,4.396988 L 112.958785,0.000000 L 120.860703,0.000000 C 128.687059,0.000000 128.787664,0.032831 131.381311,3.433278 C 134.944493,8.104851 135.137379,16.615422 131.750000,19.700723 C 128.188740,22.944399 125.463009,24.000000 120.648580,24.000000 C 116.470045,24.000000 115.837552,23.627508 111.332839,18.513703 L 106.500000,13.027406 L 101.000000,14.501834 C 97.975000,15.312770 93.319467,15.981603 90.654370,15.988131 C 85.257581,16.001350 80.000000,18.915593 80.000000,21.893780 C 80.000000,22.860456 78.875000,24.708255 77.500000,26.000000 C 76.125000,27.291745 75.000000,28.786340 75.000000,29.321322 C 75.000000,29.856304 76.575000,32.216096 78.500000,34.565305 C 80.425000,36.914514 82.000000,39.105283 82.000000,39.433681 C 82.000000,40.361317 88.878562,50.731916 94.812036,58.750000 L 100.177119,66.000000 L 105.629052,66.000000 C 114.262060,66.000000 120.000000,71.572850 120.000000,79.957471 C 120.000000,82.773624 119.246522,84.337966 116.702393,86.803833 C 114.888709,88.561725 112.665266,90.000000 111.761410,90.000000 C 110.857553,90.000000 109.839919,90.450000 109.500000,91.000000 C 108.695303,92.302027 104.000000,92.302027 104.000000,91.000000 C 104.000000,90.450000 102.738426,90.000000 101.196501,90.000000 C 99.036987,90.000000 97.256755,91.301600 93.446501,95.666342 C 90.725926,98.782831 87.600000,102.348235 86.500000,103.589462 C 85.400000,104.830690 83.600000,107.089516 82.500000,108.609076 C 79.688653,112.492722 76.044675,116.875672 72.250000,120.937699 C 68.574707,124.871934 68.422589,125.682297 70.448973,130.532119 C 71.697703,133.520749 72.365655,134.000000 75.282307,134.000000 C 77.143705,134.000000 78.948406,134.281739 79.292754,134.626087 C 79.637101,134.970435 85.798768,135.470132 92.985346,135.736525 L 106.051851,136.220876 L 108.775926,133.492881 C 113.466461,128.795595 119.872798,127.642141 125.364307,130.506161 C 128.647734,132.218586 132.000000,132.468067 132.000000,131.000000 C 132.000000,130.450000 132.562500,129.998944 133.250000,129.997654 C 133.937500,129.996363 136.075000,128.647419 138.000000,127.000000 C 139.925000,125.352581 142.062500,124.003637 142.750000,124.002346 C 143.437500,124.001056 144.000000,123.622232 144.000000,123.160515 C 144.000000,122.698798 145.141916,121.800738 146.537591,121.164826 C 147.933267,120.528914 149.620767,119.544849 150.287591,118.978014 C 150.954416,118.411180 153.750000,116.513357 156.500000,114.760631 C 159.250000,113.007904 161.725000,111.306689 162.000000,110.980153 C 162.275000,110.653617 163.979698,109.787783 165.788217,109.056076 C 167.596736,108.324369 169.525069,106.887417 170.073401,105.862850 C 170.621732,104.838282 171.522756,104.000000 172.075676,104.000000 C 173.233312,104.000000 179.335363,99.870433 179.833333,98.750000 C 180.016667,98.337500 180.603858,98.000000 181.138203,98.000000 C 181.672548,98.000000 184.756615,96.202541 187.991685,94.005647 L 193.873631,90.011293 L 193.689855,83.397251 L 193.506079,76.783209 L 198.177519,72.641604 L 202.848959,68.500000 L 201.878566,63.500000 C 201.344850,60.750000 200.452392,56.250000 199.895325,53.500000 C 199.338259,50.750000 198.635632,46.475000 198.333932,44.000000 C 198.032232,41.525000 197.440440,39.050000 197.018838,38.500000 C 196.597236,37.950000 195.942951,35.362500 195.564872,32.750000 C 194.956848,28.548603 194.591729,28.000000 192.403544,28.000000 C 186.681742,28.000000 182.000000,22.149816 182.000000,15.000000 C 182.000000,6.877288 186.877288,2.000000 195.000000,2.000000 C 200.960184,2.000000 204.632447,4.302898 207.016118,9.535381 C 209.640556,15.296380 208.544641,20.102965 203.527758,24.835016 C 199.419737,28.709805 199.362265,29.237095 201.976464,39.067629 C 203.063519,43.155433 203.963519,49.087500 203.976464,52.250000 C 203.989409,55.412500 204.450000,58.000000 205.000000,58.000000 C 205.550000,58.000000 206.000000,60.160000 206.000000,62.800000 C 206.000000,67.803411 207.240201,70.000000 210.065141,70.000000 C 212.479744,70.000000 216.634993,73.561959 218.439048,77.178273 C 220.531746,81.373186 220.399663,84.832231 217.996262,88.774170 C 215.514242,92.845056 215.515506,93.510849 218.011912,97.016729 C 220.967977,101.168140 226.000000,110.985652 226.000000,112.601546 C 226.000000,113.370696 226.405979,114.000000 226.902175,114.000000 C 227.398371,114.000000 228.274962,115.350000 228.850155,117.000000 C 229.625211,119.223325 230.525041,120.000000 232.325857,120.000000 C 236.538456,120.000000 242.000000,122.825546 242.000000,125.004946 C 242.000000,126.092904 242.900000,127.545112 244.000000,128.232073 C 245.485374,129.159704 245.981193,130.512778 245.926912,133.490547 C 245.713977,145.171639 233.368431,150.685625 224.131942,143.225001 C 220.786314,140.522624 220.476968,139.823746 220.207835,134.359605 C 219.948773,129.099925 220.203700,128.157262 222.457835,126.039612 C 223.856026,124.726080 224.973145,122.942313 224.940323,122.075686 C 224.907500,121.209059 222.091716,115.100000 218.683024,108.500000 L 212.485403,96.500000 L 207.492702,96.190005 C 204.746716,96.019507 202.072500,95.457007 201.550000,94.940005 C 199.894624,93.302046 198.045612,93.894503 192.000000,98.000000 C 188.760356,100.200000 185.635048,102.000000 185.054869,102.000000 C 184.474691,102.000000 184.000000,102.373959 184.000000,102.831020 C 184.000000,103.288081 182.767159,104.300581 181.260352,105.081020 C 179.011944,106.245566 170.589147,111.480576 162.887940,116.500000 C 153.867951,122.378968 151.140686,124.236751 149.000000,125.960311 C 147.625000,127.067384 145.937500,127.979208 145.250000,127.986586 C 144.562500,127.993963 144.000000,128.373959 144.000000,128.831020 C 144.000000,129.288081 142.762500,130.291436 141.250000,131.060696 C 134.229539,134.631316 132.000000,137.067576 132.000000,141.168349 C 132.000000,145.458915 130.246579,149.592914 127.352379,152.125933 C 124.727302,154.423414 118.416433,156.266946 115.905155,155.469897 C 112.333422,154.336273 106.000000,147.965344 106.000000,145.506082 C 106.000000,144.262426 105.388041,142.737008 104.640090,142.116265 C 103.892140,141.495521 96.192231,140.515844 87.529182,139.939203 C 73.175547,138.983780 71.610590,139.042436 69.889091,140.600371 C 68.850091,141.540653 68.000000,143.220782 68.000000,144.333990 C 68.000000,147.152792 70.260417,153.352189 71.605272,154.221770 C 72.219213,154.618743 74.868772,159.118743 77.493180,164.221770 C 80.117588,169.324796 82.543461,173.725000 82.884010,174.000000 C 83.636041,174.607281 85.396156,178.209176 87.404149,183.250000 C 88.731901,186.583161 89.286470,187.000000 92.393210,187.000000 C 96.547981,187.000000 100.133616,189.786888 103.329389,195.500000 L 105.566889,199.500000 L 125.033444,199.564762 C 135.740050,199.600382 157.219297,199.762341 172.765104,199.924672 C 201.662347,200.226420 204.000000,199.961889 204.000000,196.390100 C 204.000000,194.196564 211.571946,190.000000 215.529788,190.000000 C 220.716551,190.000000 224.456515,192.344721 226.974136,197.174882 C 230.872023,204.653142 228.477260,210.872427 220.282119,214.554290 C 216.001581,216.477424 213.121823,216.371736 209.492282,214.158301" fill="none" stroke="black" stroke-width="5"/>
</svg>
