<?xml version="1.0" encoding="utf-8" ?>
<svg baseProfile="full" height="214" version="1.1" width="260" xmlns="http://www.w3.org/2000/svg" xmlns:ev="http://www.w3.org/2001/xml-events" xmlns:xlink="http://www.w3.org/1999/xlink"><defs /><rect fill="white" height="214" width="260" x="0" y="0" /><path d="M 238,187 L 232,191 L 231,197 L 236,203 L 241,203 L 247,198 L 247,191 L 244,188 Z" fill="none" stroke="black" stroke-width="5" /><path d="M 22,180 L 20,185 L 21,191 L 27,195 L 31,195 L 34,193 L 36,186 L 33,180 Z" fill="none" stroke="black" stroke-width="5" /><path d="M 98,170 L 92,173 L 91,181 L 92,185 L 101,187 L 105,184 L 106,176 L 103,172 Z" fill="none" stroke="black" stroke-width="5" /><path d="M 136,158 L 132,162 L 132,169 L 136,173 L 143,173 L 147,168 L 147,162 L 143,158 Z" fill="none" stroke="black" stroke-width="5" /><path d="M 220,133 L 216,138 L 219,147 L 229,147 L 233,140 L 231,134 L 227,132 Z" fill="none" stroke="black" stroke-width="5" /><path d="M 184,132 L 180,136 L 178,142 L 182,147 L 189,148 L 195,144 L 195,136 L 191,132 Z" fill="none" stroke="black" stroke-width="5" /><path d="M 48,126 L 44,129 L 44,138 L 49,142 L 55,141 L 59,137 L 60,132 L 57,127 Z" fill="none" stroke="black" stroke-width="5" /><path d="M 98,118 L 92,123 L 92,129 L 96,133 L 104,133 L 107,130 L 107,122 L 102,118 Z" fill="none" stroke="black" stroke-width="5" /><path d="M 98,84 L 95,90 L 96,95 L 100,99 L 107,98 L 111,91 L 109,86 L 104,83 Z" fill="none" stroke="black" stroke-width="5" /><path d="M 107,48 L 101,47 L 96,50 L 94,55 L 96,63 L 106,63 L 109,60 L 110,53 Z" fill="none" stroke="black" stroke-width="5" /><path d="M 162,39 L 157,44 L 157,50 L 158,52 L 165,55 L 171,51 L 172,44 L 169,40 Z" fill="none" stroke="black" stroke-width="5" /><path d="M 242,34 L 237,39 L 237,45 L 239,49 L 245,51 L 251,48 L 253,40 L 250,36 Z" fill="none" stroke="black" stroke-width="5" /><path d="M 43,21 L 37,24 L 34,29 L 36,37 L 38,38 L 47,37 L 51,31 L 50,26 Z" fill="none" stroke="black" stroke-width="5" /><path d="M 104,3 L 99,6 L 98,15 L 104,19 L 107,19 L 113,15 L 114,9 L 111,4 Z" fill="none" stroke="black" stroke-width="5" /><path d="M 0,0 L 0,213 L 259,213 L 259,0 L 114,0 L 110,24 L 99,0 Z" fill="none" stroke="black" stroke-width="5" /></svg>