<?xml version="1.0" encoding="utf-8" ?>
<svg baseProfile="full" height="217" version="1.1" width="256" xmlns="http://www.w3.org/2000/svg" xmlns:ev="http://www.w3.org/2001/xml-events" xmlns:xlink="http://www.w3.org/1999/xlink"><defs /><rect fill="white" height="217" width="256" x="0" y="0" /><circle cx="198.14102172851562" cy="178.7179412841797" fill="none" r="8.91403865814209" stroke="black" stroke-width="5" /><circle cx="99.0" cy="175.0" fill="none" r="8.944372177124023" stroke="black" stroke-width="5" /><circle cx="241.68988037109375" cy="150.53797912597656" fill="none" r="9.03200912475586" stroke="black" stroke-width="5" /><circle cx="48.27631759643555" cy="148.5394744873047" fill="none" r="8.634425163269043" stroke="black" stroke-width="5" /><circle cx="143.8625030517578" cy="135.4499969482422" fill="none" r="8.980430603027344" stroke="black" stroke-width="5" /><circle cx="202.42462158203125" cy="122.680908203125" fill="none" r="9.054974555969238" stroke="black" stroke-width="5" /><circle cx="228.26922607421875" cy="76.11538696289062" fill="none" r="8.758026123046875" stroke="black" stroke-width="5" /><circle cx="182.5" cy="76.0" fill="none" r="8.500100135803223" stroke="black" stroke-width="5" /><circle cx="90.0" cy="76.5" fill="none" r="8.732224464416504" stroke="black" stroke-width="5" /><circle cx="28.19565200805664" cy="75.93478393554688" fill="none" r="8.799751281738281" stroke="black" stroke-width="5" /><circle cx="148.125" cy="73.875" fill="none" r="8.77684497833252" stroke="black" stroke-width="5" /><circle cx="209.5" cy="29.5" fill="none" r="8.860122680664062" stroke="black" stroke-width="5" /><circle cx="249.5" cy="28.5" fill="none" r="8.860122680664062" stroke="black" stroke-width="5" /><circle cx="47.17741775512695" cy="27.532258987426758" fill="none" r="8.943937301635742" stroke="black" stroke-width="5" /><circle cx="163.27272033691406" cy="26.727272033691406" fill="none" r="8.896659851074219" stroke="black" stroke-width="5" /><circle cx="107.36842346191406" cy="26.421052932739258" fill="none" r="8.747871398925781" stroke="black" stroke-width="5" /><path d="M 0,0 L 0,216 L 255,216 L 255,39 L 34,149 L 255,0 Z" fill="none" stroke="black" stroke-width="5" /></svg>