<?xml version="1.0" encoding="utf-8" ?>
<svg baseProfile="full" height="220" version="1.1" width="256" xmlns="http://www.w3.org/2000/svg" xmlns:ev="http://www.w3.org/2001/xml-events" xmlns:xlink="http://www.w3.org/1999/xlink"><defs /><rect fill="white" height="220" width="256" x="0" y="0" /><path d="M 160,167 L 156,169 L 154,173 L 154,179 L 158,183 L 164,183 L 170,179 L 171,173 L 166,167 Z" fill="none" stroke="black" stroke-width="5" /><path d="M 83,167 L 77,174 L 78,179 L 82,183 L 89,183 L 93,179 L 93,170 L 91,168 Z" fill="none" stroke="black" stroke-width="5" /><path d="M 224,148 L 220,155 L 222,160 L 226,162 L 234,161 L 236,157 L 235,150 L 231,147 Z" fill="none" stroke="black" stroke-width="5" /><path d="M 106,115 L 101,119 L 100,128 L 109,131 L 115,127 L 116,122 L 113,116 Z" fill="none" stroke="black" stroke-width="5" /><path d="M 204,114 L 200,118 L 200,126 L 204,129 L 212,129 L 216,121 L 215,116 L 213,114 Z" fill="none" stroke="black" stroke-width="5" /><path d="M 149,114 L 143,120 L 144,126 L 146,129 L 155,129 L 159,124 L 159,119 L 155,115 Z" fill="none" stroke="black" stroke-width="5" /><path d="M 18,114 L 12,120 L 12,125 L 16,130 L 22,130 L 27,127 L 27,118 L 22,114 Z" fill="none" stroke="black" stroke-width="5" /><path d="M 61,113 L 52,114 L 49,119 L 50,125 L 56,129 L 63,127 L 66,123 L 65,118 Z" fill="none" stroke="black" stroke-width="5" /><path d="M 154,66 L 150,69 L 148,76 L 154,82 L 161,81 L 163,79 L 164,72 L 160,67 Z" fill="none" stroke="black" stroke-width="5" /><path d="M 77,60 L 70,64 L 68,71 L 72,75 L 79,77 L 85,73 L 86,69 L 85,64 Z" fill="none" stroke="black" stroke-width="5" /><path d="M 13,36 L 8,42 L 8,51 L 10,53 L 19,53 L 23,49 L 23,41 L 17,36 Z" fill="none" stroke="black" stroke-width="5" /><path d="M 207,30 L 200,36 L 200,38 L 207,46 L 213,45 L 217,41 L 217,34 L 212,30 Z" fill="none" stroke="black" stroke-width="5" /><path d="M 137,18 L 130,20 L 127,25 L 127,31 L 132,35 L 140,33 L 143,29 L 141,21 Z" fill="none" stroke="black" stroke-width="5" /><path d="M 176,4 L 170,11 L 171,17 L 175,20 L 183,19 L 187,11 L 181,4 Z" fill="none" stroke="black" stroke-width="5" /><path d="M 44,4 L 38,3 L 33,7 L 32,16 L 37,21 L 44,19 L 47,16 L 47,7 Z" fill="none" stroke="black" stroke-width="5" /><path d="M 27,35 L 48,57 L 143,71 L 126,15 L 147,19 L 167,66 L 197,31 L 167,20 L 171,0 L 46,0 L 52,19 Z" fill="none" stroke="black" stroke-width="5" /></svg>