<?xml version="1.0" encoding="utf-8" ?>
<svg baseProfile="full" height="215" version="1.1" width="261" xmlns="http://www.w3.org/2000/svg" xmlns:ev="http://www.w3.org/2001/xml-events" xmlns:xlink="http://www.w3.org/1999/xlink"><defs /><rect fill="white" height="215" width="261" x="0" y="0" /><path d="M 91,125 L 187,183" fill="none" stroke="black" stroke-width="5" /><circle cx="137.57691955566406" cy="206.5" fill="none" r="8.786355972290039" stroke="black" stroke-width="5" /><circle cx="22.5" cy="193.0" fill="none" r="8.90234661102295" stroke="black" stroke-width="5" /><circle cx="193.3524627685547" cy="188.98634338378906" fill="none" r="8.413846969604492" stroke="black" stroke-width="5" /><circle cx="135.56593322753906" cy="173.3351593017578" fill="none" r="8.683392524719238" stroke="black" stroke-width="5" /><circle cx="49.67647171020508" cy="160.5" fill="none" r="9.029558181762695" stroke="black" stroke-width="5" /><circle cx="185.45706176757812" cy="131.5613555908203" fill="none" r="8.578654289245605" stroke="black" stroke-width="5" /><circle cx="137.02174377441406" cy="123.97826385498047" fill="none" r="8.572099685668945" stroke="black" stroke-width="5" /><circle cx="82.5" cy="124.16666412353516" fill="none" r="8.579791069030762" stroke="black" stroke-width="5" /><circle cx="136.25881958007812" cy="86.88235473632812" fill="none" r="8.34549331665039" stroke="black" stroke-width="5" /><circle cx="235.9662628173828" cy="69.01533508300781" fill="none" r="8.570348739624023" stroke="black" stroke-width="5" /><circle cx="137.9705810546875" cy="47.02941131591797" fill="none" r="8.561406135559082" stroke="black" stroke-width="5" /><circle cx="18.5" cy="42.88461685180664" fill="none" r="9.0784912109375" stroke="black" stroke-width="5" /><path d="M 170,18 L 163,29 L 173,34 L 180,28 L 180,23 L 177,19 Z" fill="none" stroke="black" stroke-width="5" /><circle cx="79.22881317138672" cy="13.002824783325195" fill="none" r="8.46914291381836" stroke="black" stroke-width="5" /><circle cx="227.36842346191406" cy="10.578947067260742" fill="none" r="8.747873306274414" stroke="black" stroke-width="5" /><path d="M 81,0 L 177,12 L 230,57 L 220,0 Z" fill="none" stroke="black" stroke-width="5" /><path d="M 0,0 L 0,214 L 260,214 L 260,0 L 200,201 L 26,206 L 228,80 Z" fill="none" stroke="black" stroke-width="5" /></svg>