<?xml version="1.0" encoding="utf-8" ?>
<svg xmlns="http://www.w3.org/2000/svg" xmlns:ev="http://www.w3.org/2001/xml-events" xmlns:xlink="http://www.w3.org/1999/xlink" baseProfile="full" height="222" version="1.1" width="256">
  <defs/>
  <path d="M 134.376145,185.556038 C 132.794265,183.052184 131.162500,181.002772 130.750000,181.001788 C 130.337500,181.000805 130.000000,180.553894 130.000000,180.008653 C 130.000000,179.463412 128.503395,177.056646 126.674210,174.660284 C 122.440335,169.113606 116.000000,156.714938 116.000000,154.110734 C 116.000000,153.014749 115.550000,151.839919 115.000000,151.500000 C 114.450000,151.160081 114.000000,149.585081 114.000000,148.000000 C 114.000000,146.414919 113.550000,144.839919 113.000000,144.500000 C 112.450000,144.160081 112.000000,142.810081 112.000000,141.500000 C 112.000000,140.189919 111.550000,138.839919 111.000000,138.500000 C 110.450000,138.160081 110.000000,137.002418 110.000000,135.927414 C 110.000000,134.852411 109.605240,133.191468 109.122756,132.236431 C 107.702458,129.425073 106.128149,123.827560 105.399988,119.000000 C 105.026673,116.525000 103.996457,113.718072 103.110617,112.762383 C 102.224778,111.806693 100.744896,110.231693 99.821992,109.262383 C 98.899088,108.293072 95.974088,106.375000 93.321992,105.000000 C 90.669896,103.625000 88.275000,102.268924 88.000000,101.986499 C 87.725000,101.704073 84.863556,99.683066 81.641236,97.495373 C 78.418916,95.307679 73.918916,91.263754 71.641236,88.508874 C 69.363556,85.753993 66.712500,82.627647 65.750000,81.561439 C 64.787500,80.495230 64.000000,79.235992 64.000000,78.763132 C 64.000000,78.290273 63.100000,76.040602 62.000000,73.763864 C 60.900000,71.487127 60.000000,68.835422 60.000000,67.871188 C 60.000000,66.906953 59.601013,65.871447 59.113363,65.570062 C 58.093017,64.939454 56.809806,59.239142 56.438301,53.686834 C 56.223077,50.470217 56.572095,49.696459 58.669240,48.740935 C 63.327215,46.618620 65.339897,50.190893 67.694254,64.759268 C 67.983951,66.551866 68.621256,68.265924 69.110488,68.568285 C 69.599720,68.870647 70.000000,69.991476 70.000000,71.059017 C 70.000000,72.126558 70.450000,73.000000 71.000000,73.000000 C 71.550000,73.000000 72.000000,73.810172 72.000000,74.800383 C 72.000000,77.772337 84.032304,90.702898 89.468194,93.572642 C 93.379681,95.637616 96.512646,97.509874 98.000000,98.671245 C 101.764202,101.610448 102.003011,100.944750 102.545612,86.000000 C 103.022863,72.855197 103.713089,66.206210 105.504176,57.500000 C 105.843623,55.850000 106.327621,53.487500 106.579728,52.250000 C 107.211830,49.147243 110.361152,49.376049 112.527366,52.682110 C 114.037646,54.987088 114.125096,56.006513 113.149300,59.932110 C 111.099448,68.178599 110.654314,72.322180 110.241466,87.000000 C 109.784435,103.248665 110.713728,110.734366 115.046465,125.705514 C 116.670909,131.318546 118.000000,136.579488 118.000000,137.396497 C 118.000000,138.213505 118.391265,139.123781 118.869477,139.419332 C 119.775158,139.979074 128.205196,131.936020 133.644140,125.322904 C 135.373418,123.220307 138.185918,120.041596 139.894140,118.259102 C 141.602363,116.476608 143.003903,114.676608 143.008674,114.259102 C 143.013444,113.841596 144.475944,111.925000 146.258674,110.000000 C 148.041403,108.075000 151.137259,104.475000 153.138353,102.000000 C 155.139447,99.525000 157.739201,96.404517 158.915584,95.065592 C 160.091967,93.726668 161.331921,91.476668 161.671036,90.065592 C 162.010151,88.654517 163.183724,85.563525 164.278975,83.196723 C 166.069705,79.327011 166.583342,78.924002 169.376981,79.196723 C 173.309815,79.580655 173.687799,81.381768 171.390019,88.788941 C 169.820752,93.847665 164.852365,101.904096 162.723399,102.842200 C 162.296269,103.030410 160.941695,104.663543 159.713236,106.471384 C 156.994066,110.473002 148.511572,120.283141 144.750000,123.776604 C 143.237500,125.181300 142.000000,126.736251 142.000000,127.232052 C 142.000000,127.727853 140.405765,129.790969 138.457255,131.816754 C 136.508745,133.842539 134.204314,136.625000 133.336297,138.000000 C 132.468279,139.375000 129.900015,141.865497 127.629042,143.534438 C 121.289576,148.193318 121.471812,149.799690 130.177658,166.000000 C 133.686277,172.529029 136.184731,176.493859 138.095199,178.564451 C 139.142839,179.699899 140.000000,180.969542 140.000000,181.385880 C 140.000000,181.802217 140.698948,182.841805 141.553217,183.696074 C 143.924596,186.067453 142.998005,189.442254 139.876145,189.804250 C 137.707769,190.055685 136.753016,189.318232 134.376145,185.556038" fill="black" stroke="black" stroke-width="1"/>
</svg>
