<?xml version="1.0" encoding="utf-8" ?>
<svg xmlns="http://www.w3.org/2000/svg" xmlns:ev="http://www.w3.org/2001/xml-events" xmlns:xlink="http://www.w3.org/1999/xlink" baseProfile="full" height="213" version="1.1" width="257">
  <defs/>
  <path d="M 108.355892,195.485056 C 108.036156,194.651837 108.013134,193.189337 108.304732,192.235056 C 109.664563,187.784895 114.280135,176.102248 116.664851,171.074442 C 118.119045,168.008499 119.351851,163.599572 119.404420,161.276827 C 119.485172,157.708825 118.934078,156.467729 115.852113,153.276827 C 108.241069,145.396758 107.036160,143.875113 103.965090,138.265044 C 102.229342,135.094270 100.446077,132.050000 100.002280,131.500000 C 99.558483,130.950000 98.198923,127.575000 96.981035,124.000000 C 95.068861,118.386985 94.782495,115.535464 94.882494,103.103490 C 95.007351,87.581173 95.569020,85.694320 99.914404,86.199442 L 102.500000,86.500000 L 102.776543,102.476543 C 102.928642,111.263642 103.491142,118.891142 104.026543,119.426543 C 104.561944,119.961944 105.000000,121.171194 105.000000,122.113765 C 105.000000,124.848955 111.046461,136.121475 114.936228,140.638042 C 116.896302,142.913965 119.331723,145.982242 120.348274,147.456435 C 121.364824,148.930628 122.450935,149.882398 122.761853,149.571481 C 126.161457,146.171876 130.572549,119.228833 131.532529,96.000000 C 131.884843,87.475000 132.321190,78.475000 132.502189,76.000000 C 132.683188,73.525000 133.357158,63.175000 133.999900,53.000000 C 134.642643,42.825000 135.247702,33.825000 135.344477,33.000000 C 135.441252,32.175000 136.464254,31.364599 137.617816,31.199110 C 139.164346,30.977245 140.056769,31.722840 141.015728,34.037971 C 142.067885,36.578101 142.088991,39.786692 141.126244,50.838862 C 139.491146,69.609525 139.122185,75.401605 138.567944,91.000000 C 137.793589,112.793187 136.534589,125.169783 133.888626,137.000000 C 132.368715,143.795593 127.087942,160.767471 124.490206,167.205585 C 121.839139,173.775874 122.723768,175.955823 127.039059,173.486601 C 128.392577,172.712114 130.175000,171.769262 131.000000,171.391375 C 135.862039,169.164344 143.688634,161.701651 150.053998,153.223306 C 161.034617,138.597673 162.000000,137.217412 162.000000,136.143447 C 162.000000,135.598949 163.039394,133.881424 164.309765,132.326725 C 166.887190,129.172433 173.000000,117.148895 173.000000,115.233544 C 173.000000,113.607022 177.033269,113.709307 179.250000,115.392046 C 181.442802,117.056620 181.433827,117.567396 179.154180,120.845630 C 178.138978,122.305533 175.780732,126.425000 173.913633,130.000000 C 172.046534,133.575000 169.727154,137.372353 168.759454,138.438561 C 167.791754,139.504770 167.000000,140.751918 167.000000,141.210002 C 167.000000,141.986433 165.566367,144.398272 159.100228,154.500000 C 154.834163,161.164661 142.245478,172.905654 135.918345,176.120871 C 132.694290,177.759218 129.792173,179.527255 129.469196,180.049842 C 129.146220,180.572429 128.097175,181.000000 127.137986,181.000000 C 124.861148,181.000000 117.000000,186.794060 117.000000,188.472204 C 117.000000,190.330034 114.367457,195.151067 112.815647,196.135098 C 110.791956,197.418358 108.997395,197.156788 108.355892,195.485056" fill="black" stroke="black" stroke-width="1"/>
</svg>
