<?xml version="1.0" encoding="utf-8" ?>
<svg xmlns="http://www.w3.org/2000/svg" xmlns:ev="http://www.w3.org/2001/xml-events" xmlns:xlink="http://www.w3.org/1999/xlink" baseProfile="full" height="219" version="1.1" width="259">
  <defs/>
  <path d="M 114.571751,194.326385 C 114.218527,193.405896 114.188606,190.818396 114.505262,188.576385 C 114.821917,186.334373 115.218890,181.472483 115.387424,177.772185 L 115.693849,171.044370 L 105.315050,160.772185 C 99.606710,155.122483 93.402601,148.214428 91.528141,145.420950 C 86.348931,137.702458 82.000000,129.414100 82.000000,127.261859 C 82.000000,126.201170 81.670134,125.003467 81.266964,124.600297 C 79.839197,123.172531 78.393033,116.464719 78.981603,114.000000 C 79.431034,112.117942 80.324457,111.426106 82.596110,111.201050 C 85.579585,110.905472 85.628134,110.978795 86.900001,117.701050 C 88.112424,124.109126 92.898495,135.921208 95.375241,138.618049 C 95.993859,139.291639 98.525000,142.207289 101.000000,145.097271 C 103.475000,147.987253 107.409985,152.410132 109.744411,154.925892 C 112.078837,157.441651 113.991337,159.837500 113.994411,160.250000 C 113.997485,160.662500 114.377768,161.000000 114.839485,161.000000 C 116.494389,161.000000 118.000000,155.802408 118.000000,150.089437 C 118.000000,146.890385 118.414457,142.074059 118.921015,139.386490 C 119.427573,136.698920 119.955335,126.400000 120.093820,116.500000 C 120.232305,106.600000 120.784009,97.500826 121.319828,96.279614 C 121.999248,94.731111 121.928943,93.619308 121.087488,92.605417 C 120.378119,91.750679 120.116272,89.781141 120.452048,87.825803 C 121.592646,81.183703 122.955659,60.025070 123.036344,47.708653 C 123.084434,40.367914 123.233586,39.850693 125.615306,38.765509 C 127.645909,37.840304 128.333295,37.897621 129.109367,39.056856 C 130.087254,40.517544 129.658685,59.632767 128.146569,82.000000 C 127.718974,88.325000 127.640220,93.831649 127.971560,94.236999 C 128.698919,95.126821 136.000000,90.331498 136.000000,88.963949 C 136.000000,88.433777 136.602315,88.000000 137.338477,88.000000 C 138.074640,88.000000 141.112140,85.244243 144.088477,81.876095 C 147.064815,78.507947 150.962500,74.145009 152.750000,72.180678 C 154.537500,70.216346 156.000000,68.285735 156.000000,67.890432 C 156.000000,67.495128 157.497377,65.629811 159.327504,63.745281 C 161.157631,61.860752 163.967571,58.559619 165.571815,56.409432 C 167.176059,54.259244 168.745881,52.275000 169.060309,52.000000 C 169.730966,51.413441 175.006246,43.356638 176.600862,40.483503 C 177.206336,39.392576 178.893836,38.357610 180.350862,38.183578 C 182.489117,37.928177 183.000000,38.279534 183.000000,40.005508 C 183.000000,42.147099 178.710130,50.324273 176.268636,52.836559 C 175.554242,53.571667 173.744019,55.821667 172.245918,57.836559 C 170.747817,59.851452 168.820777,62.175000 167.963608,63.000000 C 167.106439,63.825000 165.328225,66.075000 164.012021,68.000000 C 162.695817,69.925000 160.441846,72.658100 159.003195,74.073556 C 157.564545,75.489012 155.398481,78.036014 154.189721,79.733561 C 150.586554,84.793743 138.228886,96.238218 133.192664,99.179002 C 127.346439,102.592768 127.155372,103.337825 126.442755,125.500000 C 126.142109,134.850000 125.694438,144.300000 125.447932,146.500000 C 124.932420,151.100805 123.313569,171.543738 122.480790,183.969234 C 121.890983,192.769463 120.406376,196.000000 116.952001,196.000000 C 115.996088,196.000000 114.924976,195.246873 114.571751,194.326385" fill="black" stroke="black" stroke-width="1"/>
</svg>
