<?xml version="1.0" encoding="utf-8" ?>
<svg xmlns="http://www.w3.org/2000/svg" xmlns:ev="http://www.w3.org/2001/xml-events" xmlns:xlink="http://www.w3.org/1999/xlink" baseProfile="full" height="217" version="1.1" width="260">
  <defs/>
  <path d="M 90.666667,189.333333 C 88.923468,187.590135 91.380898,183.121973 98.241026,175.561439 C 99.208462,174.495230 100.000000,173.070230 100.000000,172.394772 C 100.000000,171.719314 100.337500,171.016667 100.750000,170.833333 C 101.734582,170.395742 106.000000,162.535520 106.000000,161.158746 C 106.000000,160.570826 107.315646,157.257095 108.923659,153.794900 C 116.644399,137.171452 118.228318,131.264303 115.558946,129.048921 C 114.701526,128.337325 114.000000,127.135211 114.000000,126.377555 C 114.000000,125.619900 113.602691,125.000000 113.117091,125.000000 C 112.349623,125.000000 109.015847,121.246184 98.463389,108.500000 C 92.831393,101.697181 86.352677,90.226558 85.049166,84.750000 C 84.296438,81.587500 83.351675,79.000000 82.949691,79.000000 C 82.547708,79.000000 81.974998,77.537500 81.677002,75.750000 C 81.379007,73.962500 80.429095,68.450000 79.566087,63.500000 C 77.698797,52.789688 77.639916,52.285808 77.842466,48.750000 C 77.975733,46.423612 78.443261,46.000000 80.877555,46.000000 C 82.460211,46.000000 84.209346,46.562500 84.764523,47.250000 C 85.319700,47.937500 86.483656,53.000000 87.351092,58.500000 C 90.253178,76.900761 90.930477,79.418594 95.546734,88.966994 C 98.073278,94.192970 100.456683,98.700796 100.843188,98.984385 C 101.229694,99.267973 105.351662,104.562500 110.003117,110.750000 C 114.654571,116.937500 118.776413,122.000000 119.162766,122.000000 C 121.692107,122.000000 123.858202,101.698803 124.551011,71.500000 C 124.916929,55.550000 125.419203,42.162500 125.667176,41.750000 C 125.915148,41.337500 126.936376,41.000000 127.936572,41.000000 C 131.702071,41.000000 132.169527,43.233236 131.900119,59.935523 C 131.757827,68.757092 131.886134,76.219467 132.185245,76.518578 C 133.271993,77.605326 141.332572,63.790307 145.178179,54.250000 C 145.898703,52.462500 146.828373,51.000000 147.244111,51.000000 C 147.659850,51.000000 148.000000,50.386892 148.000000,49.637538 C 148.000000,47.415921 153.954645,33.647877 155.279577,32.806050 C 160.247457,29.649590 161.980637,38.189777 157.976771,46.096384 C 156.889547,48.243373 155.082944,51.912500 153.962098,54.250000 C 152.841253,56.587500 151.268217,59.625000 150.466463,61.000000 C 149.664710,62.375000 147.790470,65.975000 146.301486,69.000000 C 144.812503,72.025000 143.314264,74.725000 142.972067,75.000000 C 142.629870,75.275000 140.525880,78.200000 138.296534,81.500000 C 136.067188,84.800000 133.288463,88.357244 132.121589,89.404988 C 130.411512,90.940476 129.991781,92.492188 129.957626,97.404988 C 129.908201,104.514384 127.832657,119.500677 126.747115,120.586218 C 126.336202,120.997132 126.000000,122.362159 126.000000,123.619614 C 126.000000,124.877068 125.588376,126.939568 125.085280,128.202947 C 124.582184,129.466326 123.197387,133.875000 122.007954,138.000000 C 120.818520,142.125000 118.530144,148.273994 116.922674,151.664432 C 115.315203,155.054870 114.000000,158.323476 114.000000,158.928001 C 114.000000,159.532526 113.577116,160.808532 113.060258,161.763569 C 112.543400,162.718606 110.724096,166.363947 109.017360,169.864327 C 107.310624,173.364707 105.221952,176.920905 104.375866,177.766991 C 103.529781,178.613076 101.059890,181.711629 98.887221,184.652664 C 95.277186,189.539388 92.470697,191.137364 90.666667,189.333333" fill="black" stroke="black" stroke-width="1"/>
</svg>
