<?xml version="1.0" encoding="utf-8" ?>
<svg xmlns="http://www.w3.org/2000/svg" xmlns:ev="http://www.w3.org/2001/xml-events" xmlns:xlink="http://www.w3.org/1999/xlink" baseProfile="full" height="219" version="1.1" width="260">
  <defs/>
  <path d="M 134.356943,197.487795 C 133.285006,194.694373 133.537591,184.562000 134.863368,177.172713 C 135.586427,173.142705 135.924482,168.867705 135.614602,167.672713 C 135.304722,166.477721 132.804969,163.025000 130.059596,160.000000 C 127.314223,156.975000 125.052707,154.237072 125.034004,153.915715 C 125.015302,153.594359 121.807157,150.219359 117.904793,146.415715 C 105.474105,134.299494 102.543939,130.756076 94.998412,118.715272 C 93.349286,116.083671 92.000000,113.271171 92.000000,112.465272 C 92.000000,111.659372 91.550000,111.000000 91.000000,111.000000 C 90.450000,111.000000 89.998318,110.212500 89.996262,109.250000 C 89.994206,108.287500 89.094206,106.026624 87.996262,104.225830 C 86.898318,102.425037 86.000000,100.089095 86.000000,99.034847 C 86.000000,97.980600 85.519322,96.820959 84.931826,96.457866 C 84.344331,96.094774 84.092582,95.201117 84.372385,94.471962 C 84.652188,93.742808 84.232867,92.608225 83.440559,91.950668 C 82.648252,91.293112 82.000000,89.936768 82.000000,88.936572 C 82.000000,87.936376 81.550000,86.839919 81.000000,86.500000 C 80.450000,86.160081 80.000000,84.400674 80.000000,82.590206 C 80.000000,79.503038 78.916272,75.120804 77.010087,70.500000 C 76.034847,68.135910 73.796968,46.869699 74.454263,46.212404 C 74.703127,45.963540 76.502726,46.059331 78.453372,46.425275 C 81.757243,47.045085 82.000094,47.344202 82.001367,50.795313 C 82.003788,57.356402 86.508243,79.211585 88.948060,84.500000 C 91.699808,90.464541 94.000000,96.410997 94.000000,97.560273 C 94.000000,99.396457 102.936639,116.582922 106.988480,122.539020 C 108.844662,125.267559 113.554803,130.650000 117.455459,134.500000 C 124.249904,141.206209 132.598214,150.686840 134.311460,153.642261 C 135.832433,156.266003 136.951019,153.923913 136.429992,149.206492 C 135.572953,141.446791 133.771024,132.976519 132.857145,132.411711 C 132.385715,132.120351 132.000000,131.140098 132.000000,130.233371 C 132.000000,128.674485 125.346627,109.966631 122.492383,103.500000 C 121.764106,101.850000 119.962150,97.350000 118.488036,93.500000 C 111.581670,75.462378 110.000000,69.486098 110.000000,61.428277 C 110.000000,54.755772 111.784150,42.173945 113.072137,39.763569 C 113.582461,38.808532 114.000000,36.965776 114.000000,35.668556 C 114.000000,31.385053 119.394711,28.360819 121.820912,31.284213 C 122.944311,32.637825 122.470570,35.465301 119.606621,44.500000 C 118.582653,47.730239 118.017511,53.216499 118.009958,60.000000 C 117.999572,69.328533 118.400370,71.755143 121.602365,81.750000 C 124.274217,90.090043 125.632421,92.996936 126.853232,92.988154 C 128.639443,92.975306 134.391601,85.226350 138.878849,76.787980 C 140.425434,73.879591 142.618072,69.874152 143.751376,67.887005 C 148.015830,60.409671 149.408183,57.262635 151.112141,51.250000 C 152.064775,47.888509 152.780537,47.000000 154.535843,47.000000 C 157.872837,47.000000 158.930429,48.946097 158.068223,53.500000 C 156.725318,60.592797 140.523164,89.225255 133.750000,96.475182 C 129.418476,101.111600 129.273831,102.140105 132.044324,108.603404 C 135.389445,116.407253 140.844482,133.378321 142.355989,140.683841 C 143.852634,147.917522 143.730782,163.076874 142.027907,181.500000 C 140.824522,194.519215 139.517082,199.000000 136.921611,199.000000 C 135.830202,199.000000 134.676101,198.319508 134.356943,197.487795" fill="black" stroke="black" stroke-width="1"/>
</svg>
