<?xml version="1.0" encoding="utf-8" ?>
<svg xmlns="http://www.w3.org/2000/svg" xmlns:ev="http://www.w3.org/2001/xml-events" xmlns:xlink="http://www.w3.org/1999/xlink" baseProfile="full" height="213" version="1.1" width="259">
  <defs/>
  <path d="M 149.000000,186.801245 C 145.425000,182.854106 141.774660,178.871247 140.888134,177.950448 C 140.001607,177.029649 138.426607,174.751607 137.388134,172.888134 C 134.651936,167.978204 123.233757,157.003803 115.221834,151.583348 C 112.868843,149.991435 108.952159,146.846444 106.518091,144.594480 C 104.084024,142.342516 100.672691,139.375000 98.937351,138.000000 C 91.750395,132.305401 86.000000,126.455282 86.000000,124.838288 C 86.000000,123.889604 85.160632,122.525391 84.134737,121.806704 C 81.387756,119.882315 76.000000,111.524967 76.000000,109.188309 C 76.000000,108.076406 75.592808,107.016667 75.095129,106.833333 C 74.597449,106.650000 73.443729,100.650000 72.531306,93.500000 C 71.618883,86.350000 69.974849,75.325000 68.877898,69.000000 C 66.480045,55.174023 65.605929,28.037412 67.307578,20.250000 C 68.365769,15.407308 68.676738,15.000000 71.315819,15.000000 L 74.176867,15.000000 L 73.582334,24.250000 C 73.255341,29.337500 72.964796,33.950000 72.936678,34.500000 C 72.908561,35.050000 73.131089,39.100000 73.431186,43.500000 C 73.731283,47.900000 74.184454,54.673819 74.438234,58.552931 C 74.692013,62.432043 75.404499,66.932043 76.021536,68.552931 C 76.638573,70.173819 78.006829,77.800000 79.062104,85.500000 C 80.117380,93.200000 81.359002,101.326728 81.821265,103.559396 C 82.661078,107.615580 85.833488,114.203772 87.250000,114.833333 C 87.662500,115.016667 88.000000,115.723032 88.000000,116.403034 C 88.000000,117.941731 100.961126,131.288658 107.011614,135.980548 C 109.480226,137.894849 112.110649,140.289661 112.856999,141.302353 C 114.610915,143.682174 118.181885,145.025276 119.640106,143.853594 C 120.476516,143.181538 120.180619,141.147807 118.529276,136.218759 C 117.291261,132.523442 115.774392,125.900000 115.158456,121.500000 C 112.484636,102.399304 110.738827,87.719721 109.866171,77.000000 C 109.351275,70.675000 108.780040,63.925000 108.596760,62.000000 C 108.413480,60.075000 108.745347,53.887500 109.334242,48.250000 L 110.404960,38.000000 L 113.662750,38.000000 L 116.920540,38.000000 L 116.328947,52.750000 C 115.801607,65.897976 116.827818,80.161151 118.415352,81.748686 C 118.880257,82.213590 128.000000,73.444275 128.000000,72.532331 C 128.000000,72.317334 129.756948,69.496291 131.904330,66.263345 C 134.051711,63.030399 136.811377,58.252072 138.036921,55.644841 C 140.810629,49.744030 143.346510,49.644621 143.819894,55.418143 C 144.045520,58.169946 143.529825,60.144671 142.069894,62.119334 C 140.931452,63.659159 140.000000,65.387237 140.000000,65.959507 C 140.000000,66.531778 139.550000,67.000000 139.000000,67.000000 C 138.450000,67.000000 138.000000,67.900000 138.000000,69.000000 C 138.000000,70.100000 137.647023,71.000000 137.215608,71.000000 C 136.784192,71.000000 135.643423,72.333626 134.680566,73.963613 C 133.717708,75.593601 132.383185,77.522023 131.714958,78.248996 C 131.046731,78.975969 127.866935,82.381706 124.648745,85.817301 L 118.797489,92.063837 L 119.439799,100.281919 C 120.457116,113.298077 122.105537,123.397199 125.269853,136.000000 C 127.131387,143.414099 141.532014,169.914380 145.647882,173.500000 C 146.279217,174.050000 148.957901,177.200000 151.600513,180.500000 C 154.243125,183.800000 157.439078,187.320161 158.702631,188.322580 C 161.998650,190.937423 161.753767,194.003034 158.250000,193.988931 C 156.115888,193.980340 154.044265,192.370592 149.000000,186.801245" fill="black" stroke="black" stroke-width="1"/>
</svg>
