<?xml version="1.0" encoding="utf-8" ?>
<svg xmlns="http://www.w3.org/2000/svg" xmlns:ev="http://www.w3.org/2001/xml-events" xmlns:xlink="http://www.w3.org/1999/xlink" baseProfile="full" height="218" version="1.1" width="261">
  <defs/>
  <path d="M 137.944791,207.250000 C 137.279119,205.187500 135.916055,202.715313 134.915761,201.756251 C 133.915468,200.797188 131.486403,196.522188 129.517840,192.256251 C 127.549277,187.990313 125.578112,183.825000 125.137474,183.000000 C 124.696835,182.175000 123.698724,179.316181 122.919449,176.647069 C 121.883512,173.098855 120.737983,171.398746 118.658627,170.323469 C 115.327062,168.600650 106.853159,160.054729 103.371488,154.906407 C 102.034850,152.929931 99.379459,150.067613 97.470619,148.545701 C 95.561779,147.023790 94.000000,145.394034 94.000000,144.924023 C 94.000000,144.454012 92.748374,142.095847 91.218609,139.683658 C 88.199259,134.922638 84.818787,124.998388 82.980989,115.500000 C 80.439896,102.366731 80.112910,100.016698 79.015468,87.000000 C 78.389464,79.575000 77.649765,72.375000 77.371693,71.000000 C 77.093621,69.625000 76.418702,64.914392 75.871874,60.531983 C 74.706155,51.189642 75.609108,48.000000 79.419544,48.000000 C 83.416917,48.000000 83.118644,46.577370 85.919107,79.000000 C 87.087515,92.527354 89.697442,110.797050 90.919050,114.000000 C 91.443477,115.375000 92.336900,118.817839 92.904436,121.650754 C 95.183523,133.027057 99.110399,139.172998 115.866071,157.587936 C 118.513554,160.497591 119.506534,158.570040 119.306144,150.910142 C 119.069358,141.858977 117.347358,114.355593 116.588215,107.500000 C 116.091251,103.012069 114.927823,71.070279 114.748835,57.000000 C 114.612880,46.312540 116.285944,22.483412 117.258874,21.250000 C 117.801183,20.562500 119.550927,20.000000 121.147196,20.000000 C 125.491064,20.000000 126.412242,23.366681 125.114625,34.500000 C 121.641213,64.301275 121.489173,73.701863 123.826084,114.170215 C 124.745993,130.100302 125.299474,130.420168 131.318138,118.500000 C 137.011741,107.223629 138.063738,104.463932 141.038751,93.000000 C 142.547610,87.185756 143.594498,86.000000 147.218958,86.000000 C 150.162754,86.000000 150.188498,86.048350 149.748065,90.750000 C 149.503335,93.362500 148.303624,98.200000 147.082039,101.500000 C 143.138558,112.152954 131.997521,132.795911 127.652782,137.500000 C 126.002172,139.287131 125.866792,140.723999 126.380832,151.000000 C 126.990622,163.190103 127.791217,168.033517 130.265277,174.500000 C 134.400062,185.307143 136.131641,189.028270 139.937038,195.284408 C 144.612741,202.971344 145.844371,207.277669 144.002059,209.497519 C 141.753886,212.206402 139.243886,211.275080 137.944791,207.250000" fill="black" stroke="black" stroke-width="1"/>
</svg>
