<?xml version="1.0" encoding="utf-8" ?>
<svg xmlns="http://www.w3.org/2000/svg" xmlns:ev="http://www.w3.org/2001/xml-events" xmlns:xlink="http://www.w3.org/1999/xlink" baseProfile="full" height="219" version="1.1" width="260">
  <defs/>
  <path d="M 116.755394,192.250000 C 116.219108,191.140870 116.705107,167.298241 117.382190,161.500000 C 117.703318,158.750000 118.195890,151.662500 118.476795,145.750000 C 118.968919,135.391739 118.912343,135.000000 116.924248,135.000000 C 113.611373,135.000000 100.110586,128.989462 96.991005,126.125738 C 87.730222,117.624495 84.014194,106.078370 85.589697,90.700568 C 86.230820,84.442833 86.370639,84.175872 89.315409,83.586918 C 90.998184,83.250363 92.770334,83.370334 93.253521,83.853521 C 93.758215,84.358215 93.660832,88.173554 93.024665,92.819856 C 91.684503,102.607842 93.066106,108.601539 98.606747,117.036153 C 102.564880,123.061688 103.120286,123.500665 110.860714,126.721346 C 118.926009,130.077200 119.960481,129.130557 120.156479,118.214816 C 120.242543,113.421667 120.403512,107.250000 120.514188,104.500000 C 120.976874,93.003513 120.954846,70.735956 120.480027,69.967683 C 120.198069,69.511465 120.424717,68.855545 120.983688,68.510081 C 122.168512,67.777820 122.357634,63.339064 121.233607,62.644377 C 120.812091,62.383866 120.736709,58.869808 121.066091,54.835360 C 121.395473,50.800912 121.255698,46.677337 120.755480,45.671859 C 119.419222,42.985875 120.583019,41.000000 123.493366,41.000000 C 125.235472,41.000000 126.309642,41.716537 126.866369,43.250000 C 127.687448,45.511604 127.593519,66.894724 126.585236,107.250000 L 126.041809,129.000000 L 129.160335,129.000000 C 136.795662,129.000000 158.042364,119.827086 159.833333,115.757439 C 160.016667,115.340847 160.715361,115.000000 161.385987,115.000000 C 163.217611,115.000000 170.120840,107.804643 174.551290,101.277574 C 176.708229,98.099908 178.713053,95.275000 179.006453,95.000000 C 180.861693,93.261111 191.351086,70.024088 193.000121,64.000000 C 193.677628,61.525000 194.742263,58.150000 195.365976,56.500000 C 196.076248,54.621014 196.489279,46.098034 196.471309,33.691242 C 196.443180,14.269930 196.482298,13.893146 198.471309,14.427588 C 199.587089,14.727394 201.287500,14.978835 202.250000,14.986345 C 203.847931,14.998813 204.000000,16.486423 204.000000,32.105655 C 204.000000,49.235445 203.403723,53.631129 199.334389,66.500000 C 195.766515,77.783053 189.478767,91.397293 183.697565,100.356871 C 176.496397,111.517078 159.014071,127.000000 153.613845,127.000000 C 152.726230,127.000000 152.000000,127.450000 152.000000,128.000000 C 152.000000,128.550000 151.137500,129.000000 150.083333,129.000000 C 149.029167,129.000000 148.016667,129.337598 147.833333,129.750218 C 147.311257,130.925232 133.703423,135.000000 130.301497,135.000000 C 124.565409,135.000000 124.374550,136.013591 123.566219,170.768787 C 123.306945,181.916621 122.821921,191.479121 122.488389,192.018787 C 121.779157,193.166348 117.286083,193.347554 116.755394,192.250000" fill="none" stroke="black" stroke-width="5"/>
</svg>
