<?xml version="1.0" encoding="utf-8" ?>
<svg xmlns="http://www.w3.org/2000/svg" xmlns:ev="http://www.w3.org/2001/xml-events" xmlns:xlink="http://www.w3.org/1999/xlink" baseProfile="full" height="214" version="1.1" width="259">
  <defs/>
  <path d="M 79.750000,207.919901 C 77.273064,206.477218 77.560423,203.120656 80.250000,202.079536 C 82.586442,201.175112 89.261897,195.688386 94.327647,190.508759 C 97.729868,187.030058 105.000000,176.559455 105.000000,175.138203 C 105.000000,174.603858 105.337500,174.016667 105.750000,173.833333 C 106.162500,173.650000 107.557261,171.413027 108.849469,168.862282 L 111.198937,164.224564 L 106.752592,160.126066 C 102.138595,155.873032 93.000000,139.308207 93.000000,135.197805 C 93.000000,134.053931 92.550000,132.839919 92.000000,132.500000 C 91.450000,132.160081 91.000000,129.877418 91.000000,127.427414 C 91.000000,124.977411 90.598440,122.191468 90.107644,121.236431 C 88.195148,117.514911 87.095690,106.807508 87.017407,91.141223 C 86.929002,73.449096 87.307951,72.000000 92.022980,72.000000 L 94.801070,72.000000 L 95.372946,93.250000 C 95.973353,115.560189 96.560657,123.187690 97.933136,126.500000 C 98.388928,127.600000 99.800014,131.788216 101.068881,135.807147 C 102.337749,139.826077 103.741333,143.340135 104.187957,143.616164 C 104.634580,143.892192 105.000000,144.991476 105.000000,146.059017 C 105.000000,147.126558 105.450000,148.000000 106.000000,148.000000 C 106.550000,148.000000 107.000000,148.586725 107.000000,149.303833 C 107.000000,150.020941 108.606465,152.158441 110.569922,154.053833 C 114.024227,157.388392 114.186158,157.437134 115.569922,155.558870 C 116.356465,154.491249 117.000000,153.113272 117.000000,152.496700 C 117.000000,151.880127 117.841896,149.603636 118.870880,147.437829 C 119.899864,145.272023 121.297853,141.025000 121.977522,138.000000 C 122.657190,134.975000 123.562869,131.802552 123.990142,130.950115 C 124.417414,130.097678 125.343774,126.722678 126.048720,123.450115 C 126.753666,120.177552 127.640544,117.050000 128.019560,116.500000 C 128.398576,115.950000 128.785275,111.907059 128.878890,107.515688 C 128.972505,103.124316 129.527263,97.755611 130.111685,95.585232 C 130.760955,93.174030 131.226780,76.928327 131.309266,53.819545 L 131.444260,16.000000 L 134.222130,16.000000 L 137.000000,16.000000 L 137.195851,26.250000 C 137.303568,31.887500 137.315402,44.693256 137.222148,54.707236 C 137.118060,65.884648 137.436446,73.151705 138.046768,73.528905 C 139.283987,74.293548 144.672781,69.946183 148.000000,65.499219 C 149.375000,63.661475 151.970449,60.434846 153.767665,58.328933 C 158.020749,53.345321 166.209806,40.462702 167.961433,36.000000 C 169.826461,31.248382 170.906809,30.000000 173.153830,30.000000 C 175.849337,30.000000 176.568096,32.724995 174.836801,36.380564 C 174.024241,38.096254 172.289622,41.750000 170.982090,44.500000 C 168.990232,48.689277 161.710594,60.289406 160.000000,62.000000 C 159.725000,62.275000 157.700000,64.741124 155.500000,67.480275 C 153.300000,70.219426 148.312956,75.619426 144.417679,79.480275 C 137.404575,86.431396 137.328811,86.563525 136.665403,93.000000 C 136.051975,98.951567 135.211876,104.870593 133.046141,118.500000 C 132.192063,123.874880 129.489963,135.571769 127.947516,140.570998 C 127.426382,142.260047 127.000000,144.757547 127.000000,146.120998 C 127.000000,147.484449 126.641864,149.027500 126.204141,149.550000 C 125.766419,150.072500 124.823546,152.300000 124.108869,154.500000 C 122.206415,160.356346 118.743450,168.000000 117.992680,168.000000 C 117.634737,168.000000 116.288031,170.250000 115.000000,173.000000 C 113.711969,175.750000 112.285047,178.000000 111.829063,178.000000 C 111.373078,178.000000 110.997471,178.562500 110.994379,179.250000 C 110.984470,181.453584 100.336081,193.062663 87.604590,204.750000 C 82.596766,209.347116 82.362618,209.441611 79.750000,207.919901" fill="black" stroke="black" stroke-width="1"/>
</svg>
