<?xml version="1.0" encoding="utf-8" ?>
<svg xmlns="http://www.w3.org/2000/svg" xmlns:ev="http://www.w3.org/2001/xml-events" xmlns:xlink="http://www.w3.org/1999/xlink" baseProfile="full" height="218" version="1.1" width="260">
  <defs/>
  <path d="M 109.547826,203.077385 C 108.718898,201.736151 111.658167,172.588212 113.565241,163.237760 C 113.931184,161.443528 114.628708,159.729471 115.115296,159.428743 C 116.452366,158.602389 116.175226,156.000171 114.750000,155.998779 C 114.062500,155.998107 112.192507,154.873107 110.594461,153.498779 C 108.996414,152.124450 107.419439,151.000000 107.090072,151.000000 C 106.760704,151.000000 103.203429,147.808498 99.185015,143.907774 C 91.069653,136.030091 85.507035,126.241532 83.041514,115.500000 C 82.284060,112.200000 81.344900,109.050000 80.954491,108.500000 C 80.564082,107.950000 79.987898,105.025000 79.674082,102.000000 C 79.360266,98.975000 78.615571,94.475000 78.019204,92.000000 C 77.422838,89.525000 76.501011,84.125000 75.970701,80.000000 C 75.440391,75.875000 74.601272,70.700000 74.105991,68.500000 C 73.610710,66.300000 72.897779,62.925000 72.521700,61.000000 C 72.145621,59.075000 71.471501,56.600000 71.023656,55.500000 C 70.575811,54.400000 69.677492,50.800000 69.027392,47.500000 C 68.377292,44.200000 67.165556,39.025000 66.334646,36.000000 C 65.503736,32.975000 64.421656,28.558283 63.930024,26.185073 C 63.438392,23.811862 62.168559,19.908818 61.108174,17.511640 C 60.047788,15.114461 59.439654,12.893679 59.756766,12.576567 C 61.129528,11.203805 64.884079,12.182626 66.175705,14.250000 C 68.506816,17.981169 74.353245,37.746567 76.010760,47.500000 C 76.478100,50.250000 77.318364,54.300000 77.878014,56.500000 C 79.063403,61.159800 81.053937,71.466467 85.989502,98.500000 C 87.977094,109.386620 89.250117,114.682849 91.277514,120.500000 C 94.307266,129.193182 103.930912,140.819706 110.299270,143.480576 C 112.334671,144.331021 114.000000,145.503797 114.000000,146.086744 C 114.000000,146.669691 114.769608,146.998435 115.710240,146.817286 C 117.349871,146.501522 118.528228,143.382674 119.608296,136.500000 C 121.191695,126.409874 124.396307,111.356284 125.132539,110.550000 C 125.609643,110.027500 126.000000,108.504709 126.000000,107.166020 C 126.000000,104.687591 127.569288,98.117244 129.025202,94.500000 C 129.467944,93.400000 130.596531,90.025000 131.533173,87.000000 C 132.469815,83.975000 133.858023,80.022233 134.618079,78.216073 C 135.378136,76.409913 136.000000,74.475675 136.000000,73.917767 C 136.000000,73.359858 136.836450,71.172135 137.858779,69.056159 C 138.881107,66.940183 140.329349,63.136921 141.077094,60.604465 C 141.824839,58.072009 142.788389,56.000000 143.218315,56.000000 C 143.648242,56.000000 143.998325,55.437500 143.996279,54.750000 C 143.989702,52.540848 154.184094,28.000000 155.108363,28.000000 C 155.598763,28.000000 156.000000,27.409523 156.000000,26.687829 C 156.000000,24.577765 159.737666,17.777606 162.882339,14.166380 C 164.941882,11.801276 166.470156,10.929686 168.142635,11.166380 C 170.120997,11.446362 170.474735,12.036852 170.342854,14.839165 C 170.256424,16.675706 169.356424,19.016603 168.342854,20.041158 C 167.329284,21.065714 165.954510,22.563388 165.287799,23.369323 C 163.682102,25.310327 158.000000,37.377735 158.000000,38.846843 C 158.000000,39.481079 157.608482,40.000000 157.129961,40.000000 C 156.651440,40.000000 155.678358,42.137500 154.967558,44.750000 C 154.256758,47.362500 152.848276,50.694467 151.837597,52.154370 C 150.826919,53.614274 150.000000,55.950217 150.000000,57.345354 C 150.000000,58.740490 149.622766,60.115110 149.161701,60.400063 C 148.700637,60.685017 146.811906,65.549074 144.964520,71.209080 C 143.117135,76.869086 140.794370,82.976187 139.802819,84.780416 C 138.811269,86.584645 138.000000,88.857145 138.000000,89.830416 C 138.000000,90.803687 137.615045,92.027500 137.144545,92.550000 C 136.082784,93.729107 133.000000,103.315348 133.000000,105.437897 C 133.000000,107.718933 134.252918,107.376152 138.612495,103.902398 C 140.750623,102.198717 144.525000,99.626412 147.000000,98.186165 C 149.475000,96.745917 152.094643,94.989838 152.821429,94.283767 C 153.548214,93.577695 154.484673,93.000000 154.902449,93.000000 C 155.320224,93.000000 156.264122,91.875000 157.000000,90.500000 C 157.735878,89.125000 158.824419,87.993668 159.418980,87.985929 C 161.056932,87.964608 179.389680,69.893370 180.962216,66.750000 C 181.718875,65.237500 182.711919,64.000000 183.168980,64.000000 C 183.626041,64.000000 184.000000,63.409853 184.000000,62.688561 C 184.000000,61.967270 184.787500,60.504770 185.750000,59.438561 C 188.546479,56.340764 192.000000,48.097498 192.000000,44.520335 C 192.000000,41.122036 195.608002,40.163557 198.293016,42.848571 C 200.208695,44.764250 200.256183,45.203574 198.979917,49.203262 C 197.091884,55.120169 192.542725,64.048281 190.060599,66.708187 C 188.927269,67.922689 188.000000,69.385189 188.000000,69.958187 C 188.000000,70.531184 187.632863,71.000000 187.184141,71.000000 C 186.735419,71.000000 185.356625,72.800000 184.120156,75.000000 C 182.883687,77.200000 181.537962,79.000000 181.129657,79.000000 C 180.721351,79.000000 177.037644,82.147821 172.943642,85.995157 C 168.849639,89.842493 165.158404,92.992493 164.740898,92.995157 C 164.323392,92.997821 162.669775,94.237500 161.066192,95.750000 C 156.497883,100.058831 154.733274,101.437794 146.864016,106.848369 C 142.813807,109.633124 138.375000,112.821453 137.000000,113.933544 C 135.625000,115.045635 134.007244,115.965534 133.404988,115.977764 C 131.101200,116.024546 128.840896,120.019269 127.934197,125.646502 C 127.415462,128.865926 126.525106,133.750000 125.955630,136.500000 C 125.386153,139.250000 124.480861,144.200000 123.943869,147.500000 C 123.406877,150.800000 122.049747,158.225000 120.928024,164.000000 C 119.806301,169.775000 118.461013,179.675000 117.938495,186.000000 C 116.511644,203.271812 116.309743,204.000000 112.947726,204.000000 C 111.391395,204.000000 109.861441,203.584823 109.547826,203.077385" fill="black" stroke="black" stroke-width="1"/>
</svg>
