<?xml version="1.0" encoding="utf-8" ?>
<svg xmlns="http://www.w3.org/2000/svg" xmlns:ev="http://www.w3.org/2001/xml-events" xmlns:xlink="http://www.w3.org/1999/xlink" baseProfile="full" height="215" version="1.1" width="258">
  <defs/>
  <path d="M 195.000000,210.472129 C 194.175000,210.309401 189.450000,209.643505 184.500000,208.992360 C 179.550000,208.341215 174.600000,207.431302 173.500000,206.970330 C 172.400000,206.509359 169.700000,205.601014 167.500000,204.951786 C 160.148899,202.782448 145.687500,194.976578 141.600010,190.971676 C 134.198115,183.719337 125.809851,173.001206 122.447894,166.500000 C 121.310212,164.300000 119.896523,161.600000 119.306362,160.500000 C 116.368977,155.025011 112.000000,142.574702 112.000000,139.679002 C 112.000000,138.669140 111.206438,138.000000 110.008801,138.000000 C 107.662184,138.000000 95.127440,132.605500 89.716148,129.266777 C 85.831491,126.869975 78.000000,119.143090 78.000000,117.707122 C 78.000000,117.265068 77.102349,115.045463 76.005219,112.774667 C 74.160992,108.957556 74.132755,108.510789 75.631086,106.855151 C 77.964321,104.276956 80.014780,105.766549 84.362898,113.198537 C 86.491498,116.836829 89.623970,120.552796 91.774799,121.991074 C 93.823660,123.361165 95.725000,124.711165 96.000000,124.991074 C 97.708640,126.730215 105.209992,130.000000 107.491190,130.000000 C 110.046633,130.000000 110.182922,129.774579 109.758431,126.250000 C 109.510030,124.187500 108.128745,116.875000 106.688910,110.000000 C 105.249074,103.125000 103.825671,93.675000 103.525790,89.000000 C 103.225910,84.325000 102.549511,77.125000 102.022681,73.000000 C 99.258127,51.353927 101.163780,23.778517 106.247048,11.872077 C 108.171087,7.365437 109.750973,6.322402 111.700379,8.271807 C 113.290189,9.861617 112.855718,13.165511 109.829333,22.500000 C 108.419343,26.848932 108.186417,64.338328 109.459654,82.000000 C 110.081829,90.630494 110.895291,96.099360 115.558164,123.000000 C 118.643110,140.797398 119.004473,142.073639 124.477280,154.500000 C 125.203972,156.150000 126.403717,158.962500 127.143380,160.750000 C 127.883044,162.537500 128.828373,164.000000 129.244111,164.000000 C 129.659850,164.000000 130.000550,164.562500 130.001221,165.250000 C 130.001893,165.937500 131.150245,167.834669 132.553115,169.465931 C 133.955984,171.097193 135.989541,173.865043 137.072129,175.616708 C 140.112857,180.536708 141.871862,180.653524 142.618384,175.985036 C 142.965541,173.814033 143.868424,171.524162 144.624789,170.896434 C 145.381155,170.268706 146.000000,169.129105 146.000000,168.363986 C 146.000000,167.598868 146.397498,166.191468 146.883329,165.236431 C 148.746488,161.573867 152.801699,150.006172 153.977483,145.000000 C 154.429601,143.075000 155.744225,138.125000 156.898869,134.000000 C 160.127692,122.464933 163.140335,100.650533 163.113523,89.000000 C 163.091723,79.527563 161.611415,61.824552 160.521334,58.000000 C 160.286191,57.175000 159.848302,54.475000 159.548246,52.000000 C 159.248191,49.525000 158.572054,45.700000 158.045721,43.500000 C 156.775492,38.190617 158.535673,35.993675 161.886104,38.706689 C 163.752643,40.218121 164.495277,42.905427 166.527743,55.503000 C 167.858514,63.751350 169.322947,72.075000 169.782037,74.000000 C 171.330604,80.493253 169.250835,110.794277 166.963205,115.068753 C 166.433442,116.058623 166.004555,119.035601 166.010122,121.684259 C 166.015689,124.332916 165.151105,129.200000 164.088825,132.500000 C 163.026545,135.800000 160.298960,144.575000 158.027527,152.000000 C 155.756093,159.425000 153.066060,167.750000 152.049676,170.500000 C 151.033292,173.250000 149.373335,177.915591 148.360883,180.867980 L 146.520061,186.235960 L 149.885590,189.045627 C 151.736630,190.590944 155.332116,192.900353 157.875559,194.177647 C 160.419002,195.454941 162.725000,196.774082 163.000000,197.109071 C 163.275000,197.444061 165.300000,198.323424 167.500000,199.063213 C 169.700000,199.803001 171.927500,200.766419 172.450000,201.204141 C 172.972500,201.641864 174.630705,202.000000 176.134900,202.000000 C 177.639096,202.000000 179.994235,202.427509 181.368543,202.950020 C 182.742852,203.472531 187.578473,204.132429 192.114368,204.416460 C 200.689719,204.953434 203.814319,206.435536 202.668129,209.422459 C 202.107705,210.882901 199.141246,211.288972 195.000000,210.472129" fill="black" stroke="black" stroke-width="1"/>
</svg>
