<?xml version="1.0" encoding="utf-8" ?>
<svg xmlns="http://www.w3.org/2000/svg" xmlns:ev="http://www.w3.org/2001/xml-events" xmlns:xlink="http://www.w3.org/1999/xlink" baseProfile="full" height="217" version="1.1" width="259">
  <defs/>
  <path d="M 31.405549,206.614460 C 30.554383,204.396358 32.036002,202.835954 37.660430,200.026979 C 42.202422,197.758598 45.009271,196.950721 55.000000,195.036239 C 59.630988,194.148822 67.403072,191.734861 72.250000,189.678496 C 76.585023,187.839313 75.746003,184.995187 69.000000,178.661572 C 65.700000,175.563304 63.000000,172.571977 63.000000,172.014179 C 63.000000,171.456380 62.639225,171.000000 62.198277,171.000000 C 61.487880,171.000000 57.715141,163.420150 51.129147,148.760898 C 49.958116,146.154393 49.000000,143.206893 49.000000,142.210898 C 49.000000,141.214904 48.588959,139.972500 48.086575,139.450000 C 47.584191,138.927500 46.244488,134.000000 45.109457,128.500000 C 40.255697,104.980219 39.979742,68.395248 44.483400,45.500000 C 45.546313,40.096471 45.929457,39.468489 48.337507,39.183029 C 50.146714,38.968558 51.224851,39.422378 51.671536,40.586420 C 52.034627,41.532619 51.576293,48.200256 50.653016,55.403391 C 49.729739,62.606526 48.980106,71.735942 48.987165,75.690983 C 48.994507,79.804367 48.534735,83.169516 47.912882,83.553842 C 47.314967,83.923374 47.101992,85.187431 47.439604,86.362859 C 47.777216,87.538287 48.277894,91.875000 48.552221,96.000000 C 49.024112,103.095736 50.807293,120.159559 51.530489,124.500000 C 52.750509,131.822246 58.837620,150.205609 60.250000,150.833333 C 60.662500,151.016667 61.000000,151.803208 61.000000,152.581202 C 61.000000,157.542573 73.214639,175.010982 80.648702,180.681218 L 84.103099,183.316015 L 88.301549,181.008873 C 90.610697,179.739945 93.508989,178.206342 94.742198,177.600866 C 95.975407,176.995390 96.987907,176.162500 96.992198,175.750000 C 96.996489,175.337500 97.562500,174.999450 98.250000,174.998779 C 98.937500,174.998107 100.705719,173.985607 102.179375,172.748779 C 103.653031,171.511950 106.465531,169.243316 108.429375,167.707368 C 111.848704,165.033067 113.049366,161.766578 111.064038,160.539578 C 109.989807,159.875666 105.511568,150.721265 104.440616,147.000000 C 104.044901,145.625000 102.671748,142.250000 101.389164,139.500000 C 99.028661,134.438822 96.415724,125.808037 95.031496,118.500000 C 94.614790,116.300000 93.729036,113.150000 93.063154,111.500000 C 92.397272,109.850000 91.411826,106.475000 90.873273,104.000000 C 86.992644,86.165996 86.567183,80.644244 86.847307,51.750000 L 87.000000,36.000000 L 89.950310,36.000000 C 91.586664,36.000000 93.290411,36.696519 93.775844,37.563939 C 94.257218,38.424106 94.471106,46.973476 94.251153,56.562540 C 93.762840,77.850959 94.967001,90.659077 99.040862,107.508507 C 102.526441,121.924806 104.246432,127.544862 107.068609,133.739102 C 108.130874,136.070607 109.010006,138.545607 109.022236,139.239102 C 109.034466,139.932596 109.924459,141.625000 111.000000,143.000000 C 112.075541,144.375000 112.965534,146.293606 112.977764,147.263569 C 112.989994,148.233532 113.412463,149.808532 113.916585,150.763569 C 114.420707,151.718606 115.375301,153.962500 116.037906,155.750000 C 117.717885,160.282061 119.910301,159.872387 125.403231,154.000000 C 127.975534,151.250000 130.459629,149.000000 130.923441,149.000000 C 131.387254,149.000000 132.031157,148.212500 132.354336,147.250000 C 132.953872,145.464448 135.059413,141.901864 136.048180,141.000000 C 136.349678,140.725000 137.687448,138.925000 139.021001,137.000000 C 140.354554,135.075000 142.245373,132.627647 143.222821,131.561439 C 145.385154,129.202747 145.388959,129.086964 143.432987,125.166125 C 142.571130,123.438492 140.950011,118.981854 139.830500,115.262487 C 138.710989,111.543119 136.885759,105.575000 135.774433,102.000000 C 131.383475,87.874819 128.653183,59.223911 130.386524,45.460804 L 131.273048,38.421609 L 127.281905,34.460804 C 125.086776,32.282362 122.987535,29.245640 122.616925,27.712534 C 120.985782,20.964962 126.817689,11.993041 132.826725,12.005577 C 137.188046,12.014675 142.879613,13.954407 144.896189,16.118947 C 145.931931,17.230686 147.321001,20.074854 147.983011,22.439320 C 149.488562,27.816621 147.995160,31.176839 141.820061,36.306219 L 137.579794,39.828421 L 137.210580,55.664210 C 136.935959,67.442834 137.272155,73.933922 138.522806,81.000000 C 139.447598,86.225000 140.515887,92.525000 140.896781,95.000000 C 141.277675,97.475000 142.356720,101.031637 143.294658,102.903638 C 144.232596,104.775639 145.000000,107.086701 145.000000,108.039331 C 145.000000,108.991961 145.672228,111.060324 146.493839,112.635693 C 147.315451,114.211062 147.990451,116.512500 147.993839,117.750000 C 147.997228,118.987500 148.590374,120.000000 149.311942,120.000000 C 150.870865,120.000000 155.000000,114.682814 155.000000,112.675351 C 155.000000,111.902253 155.900000,110.125553 157.000000,108.727129 C 158.100000,107.328706 159.000000,105.693020 159.000000,105.092271 C 159.000000,104.491522 159.450000,104.000000 160.000000,104.000000 C 160.550000,104.000000 161.000000,103.152108 161.000000,102.115795 C 161.000000,101.079483 162.800000,96.635301 165.000000,92.239835 C 167.200000,87.844370 169.000000,83.517262 169.000000,82.624040 C 169.000000,81.730818 169.450000,81.000000 170.000000,81.000000 C 170.550000,81.000000 171.000000,80.300177 171.000000,79.444838 C 171.000000,78.589499 172.407771,75.101999 174.128381,71.694838 C 175.848991,68.287677 177.648991,64.718606 178.128381,63.763569 C 178.607771,62.808532 179.000000,61.147589 179.000000,60.072586 C 179.000000,58.997582 179.450000,57.839919 180.000000,57.500000 C 180.550000,57.160081 181.000000,55.810081 181.000000,54.500000 C 181.000000,53.189919 181.450000,51.839919 182.000000,51.500000 C 182.550000,51.160081 183.000000,50.002418 183.000000,48.927414 C 183.000000,47.852411 183.423214,46.191468 183.940476,45.236431 C 184.457737,44.281394 185.643873,41.362500 186.576333,38.750000 C 188.361231,33.749202 190.014674,32.937617 193.317275,35.441239 C 194.933715,36.666622 195.002899,37.298567 193.943296,41.159435 C 193.288105,43.546746 191.745576,47.750000 190.515453,50.500000 C 189.285330,53.250000 187.956919,56.625000 187.563428,58.000000 C 187.169938,59.375000 186.010258,62.300000 184.986361,64.500000 C 183.962464,66.700000 182.377245,70.300000 181.463652,72.500000 C 180.550058,74.700000 178.983030,78.132220 177.981367,80.127156 C 176.979703,82.122093 174.745011,87.153654 173.015384,91.308405 C 171.285757,95.463155 169.224721,99.398535 168.435304,100.053693 C 166.878999,101.345311 166.457722,105.000000 167.865141,105.000000 C 168.340969,105.000000 169.803469,104.185292 171.115141,103.189539 C 172.426814,102.193785 176.089368,100.134774 179.254151,98.613959 C 182.418935,97.093144 185.568935,95.302808 186.254151,94.635436 C 186.939368,93.968064 189.750000,91.724945 192.500000,89.650727 C 198.930001,84.800829 213.830110,68.344919 217.370995,62.182816 C 217.991948,61.102190 220.183451,57.320477 222.241002,53.779010 C 224.298553,50.237544 226.272095,45.889526 226.626650,44.116748 C 227.205696,41.221519 227.588218,40.924375 230.385648,41.196759 C 232.927114,41.444219 233.557017,41.993539 233.809957,44.182998 C 234.311803,48.526994 227.192648,62.157661 219.107415,72.333173 C 212.929307,80.108510 198.495207,94.791460 193.003528,98.887102 C 191.076588,100.324196 188.890552,102.077306 188.145670,102.782901 C 187.400789,103.488497 185.062421,104.947831 182.949297,106.025867 C 180.836173,107.103902 178.745622,108.551597 178.303627,109.242966 C 177.861632,109.934334 176.375000,111.150407 175.000000,111.945349 C 166.146844,117.063707 162.281917,118.965968 160.703490,118.981885 C 159.715409,118.991848 158.140409,120.396420 157.203490,122.103156 C 154.841325,126.406184 143.015109,144.358015 142.128751,144.986142 C 141.729940,145.268764 140.311147,147.075000 138.975876,149.000000 C 135.871563,153.475349 117.375952,171.664847 113.754133,173.804308 C 112.239360,174.699107 111.000000,175.784192 111.000000,176.215608 C 111.000000,176.647023 110.212500,177.018288 109.250000,177.040641 C 108.287500,177.062993 105.941998,178.412993 104.037774,180.040641 C 102.133550,181.668288 100.151026,183.000000 99.632165,183.000000 C 99.113304,183.000000 97.157906,184.167656 95.286835,185.594791 C 93.415765,187.021926 89.668668,188.970052 86.959952,189.923959 C 84.251237,190.877867 81.204204,192.410211 80.188767,193.329168 C 79.173330,194.248126 77.963842,195.000000 77.501016,195.000000 C 77.038189,195.000000 73.698622,196.286836 70.079756,197.859634 C 66.460890,199.432433 60.125000,201.742459 56.000000,202.993024 C 51.875000,204.243590 47.524575,205.630214 46.332389,206.074412 C 45.140203,206.518610 41.435544,207.190822 38.099813,207.568217 C 32.992915,208.145997 31.935440,207.995335 31.405549,206.614460" fill="black" stroke="black" stroke-width="1"/>
</svg>
