<?xml version="1.0" encoding="utf-8" ?>
<svg xmlns="http://www.w3.org/2000/svg" xmlns:ev="http://www.w3.org/2001/xml-events" xmlns:xlink="http://www.w3.org/1999/xlink" baseProfile="full" height="219" version="1.1" width="260">
  <defs/>
  <path d="M 118.056526,195.568109 C 117.387858,194.762414 116.609438,189.231915 116.276550,182.921784 C 115.686206,171.731390 115.678845,171.705049 112.842469,170.634437 C 111.279111,170.044335 110.000000,169.210182 110.000000,168.780762 C 110.000000,168.351343 109.338687,168.000000 108.530416,168.000000 C 107.722145,168.000000 105.359645,167.036813 103.280416,165.859583 C 101.201187,164.682354 98.010898,162.875101 96.190884,161.843464 C 94.370871,160.811828 91.923518,159.075015 90.752323,157.983881 C 89.581128,156.892746 88.032730,156.000000 87.311439,156.000000 C 86.590147,156.000000 86.000000,155.647023 86.000000,155.215608 C 86.000000,154.784192 84.604148,153.606665 82.898107,152.598882 C 79.261359,150.450602 66.816935,137.657397 61.436954,130.536235 C 49.823599,115.164325 41.198180,99.484118 38.975497,89.703398 C 38.250990,86.515268 37.285114,83.676210 36.829106,83.394381 C 36.373098,83.112553 36.000000,81.443053 36.000000,79.684381 C 36.000000,77.925709 35.548004,74.914767 34.995564,72.993398 C 34.443124,71.072029 33.911927,66.663875 33.815127,63.197501 C 33.718326,59.731126 33.270322,56.667068 32.819563,56.388484 C 31.868844,55.800907 31.722674,27.310982 32.641848,21.750000 C 33.143779,18.713327 33.689056,18.000000 35.508398,18.000000 C 39.636618,18.000000 39.947795,19.634262 39.954513,41.350430 C 39.958270,53.494899 40.382538,62.846262 40.980460,63.963489 C 41.541207,65.011254 42.000000,67.328652 42.000000,69.113261 C 42.000000,70.897869 42.419508,73.739953 42.932239,75.429002 C 43.444970,77.118051 44.376415,80.525000 45.002116,83.000000 C 47.313087,92.141192 50.290772,100.573173 52.119465,103.154370 C 53.153759,104.614274 54.000000,106.097492 54.000000,106.450409 C 54.000000,107.539186 68.111249,128.000000 68.862147,128.000000 C 69.250798,128.000000 70.301356,129.237500 71.196721,130.750000 C 73.511849,134.660844 86.184268,146.948849 89.616723,148.611236 C 91.203933,149.379945 93.794511,151.119029 95.373562,152.475867 C 96.952613,153.832706 99.089538,155.211030 100.122282,155.538811 C 101.155027,155.866591 102.000000,156.499857 102.000000,156.946067 C 102.000000,157.392278 103.350000,158.316548 105.000000,159.000000 C 106.650000,159.683452 108.000000,160.638047 108.000000,161.121320 C 108.000000,161.604594 109.094676,162.000000 110.432612,162.000000 C 112.008686,162.000000 113.094885,162.723595 113.517471,164.055047 C 114.909117,168.439736 116.441156,165.219195 116.670424,157.427136 C 116.798707,153.067211 117.184998,141.140744 117.528848,130.923876 L 118.154030,112.347753 L 115.327015,110.180494 C 113.772157,108.988502 108.900000,105.700508 104.500000,102.873841 C 93.815086,96.009594 84.947013,86.803870 81.020151,78.500000 C 80.239874,76.850000 78.574884,74.078995 77.320174,72.342211 C 76.065464,70.605427 74.332470,67.005427 73.469077,64.342211 C 72.605683,61.678995 71.522752,58.600000 71.062563,57.500000 C 68.102575,50.424674 62.000000,25.870567 62.000000,21.036188 C 62.000000,18.337319 62.329390,18.000000 64.964816,18.000000 C 68.503139,18.000000 69.984847,20.245369 70.035622,25.684259 C 70.073447,29.736094 71.733377,37.279462 74.396107,45.500000 C 75.286864,48.250000 76.491886,52.075000 77.073933,54.000000 C 82.078458,70.551420 94.530456,88.729726 105.694544,95.782385 C 108.060578,97.277073 109.997228,98.837500 109.998212,99.250000 C 109.999195,99.662500 110.689123,100.000000 111.531385,100.000000 C 112.373646,100.000000 113.321791,100.675000 113.638374,101.500000 C 113.954956,102.325000 115.020520,103.000000 116.006295,103.000000 C 117.388571,103.000000 117.944112,101.913307 118.434598,98.250000 C 119.627964,89.337085 119.865865,69.543900 118.795137,68.253448 C 118.080720,67.392425 118.107095,65.631768 118.880417,62.560628 C 119.496188,60.115180 120.000000,53.906961 120.000000,48.764585 L 120.000000,39.414810 L 115.328416,38.165351 C 106.458315,35.792961 101.635830,27.548175 105.103491,20.684259 C 108.688252,13.588554 118.126070,10.137431 124.217321,13.694913 C 126.019057,14.747184 128.507233,17.112850 129.746602,18.951949 C 133.209403,24.090399 132.621835,28.804766 127.808526,34.502153 C 126.440383,36.121588 126.084404,38.893310 125.946258,49.002153 C 125.638847,71.496802 125.978205,83.000000 126.949233,83.000000 C 128.207590,83.000000 141.000000,70.302868 141.000000,69.053883 C 141.000000,68.518763 142.047197,67.050227 143.327105,65.790469 C 145.860836,63.296628 160.000000,40.019269 160.000000,38.341820 C 160.000000,37.774305 160.900000,36.495486 162.000000,35.500000 C 163.100000,34.504514 164.000000,33.122077 164.000000,32.427918 C 164.000000,31.733759 164.884008,29.103503 165.964463,26.582905 C 168.064258,21.684282 170.609150,20.619202 173.085260,23.602732 C 174.217562,24.967073 173.923014,26.194184 171.104983,31.852732 C 169.284248,35.508729 167.280301,39.625000 166.651767,41.000000 C 166.023233,42.375000 163.466342,46.650000 160.969786,50.500000 C 158.473231,54.350000 155.811736,58.729904 155.055352,60.233121 C 154.298968,61.736337 152.952353,63.761337 152.062875,64.733121 C 151.173397,65.704904 149.349436,68.075000 148.009628,70.000000 C 146.669820,71.925000 140.690736,78.369102 134.722776,84.320226 C 124.515826,94.498380 123.912226,95.323880 124.550868,98.231601 C 125.532848,102.702528 125.567337,117.826172 124.623884,130.250000 C 123.868499,140.197253 123.940497,141.000000 125.588045,141.000000 C 127.903990,141.000000 136.000000,137.078239 136.000000,135.956380 C 136.000000,135.480516 140.228551,130.908159 145.396780,125.795586 C 150.565009,120.683014 157.427509,113.286791 160.646780,109.359534 C 169.119649,99.023304 179.304399,85.817041 180.589809,83.500000 C 181.200049,82.400000 183.935254,77.900000 186.668043,73.500000 C 189.400831,69.100000 192.280981,64.375000 193.068375,63.000000 C 193.855769,61.625000 194.750548,60.275000 195.056774,60.000000 C 195.363000,59.725000 196.246330,57.925000 197.019730,56.000000 C 197.793131,54.075000 199.230082,51.627647 200.212956,50.561439 C 201.195830,49.495230 202.000000,48.043999 202.000000,47.336481 C 202.000000,46.628963 203.350000,43.102546 205.000000,39.500000 C 206.650000,35.897454 208.000000,32.286185 208.000000,31.474958 C 208.000000,30.502782 209.022638,30.000000 211.000000,30.000000 C 216.125160,30.000000 215.179196,35.010031 206.903925,51.693696 C 203.001083,59.562163 199.448110,66.000000 199.008428,66.000000 C 198.568747,66.000000 196.752082,69.037500 194.971396,72.750000 C 192.224700,78.476505 184.797727,90.353595 182.934001,92.000000 C 182.622702,92.275000 180.913584,94.637500 179.135961,97.250000 C 177.358338,99.862500 175.475537,102.000000 174.951959,102.000000 C 174.428382,102.000000 174.000000,102.601824 174.000000,103.337386 C 174.000000,104.642428 162.101797,119.017800 156.897976,124.000000 C 155.461812,125.375000 153.239454,128.075000 151.959402,130.000000 C 147.626564,136.515919 139.346309,143.808439 131.900939,147.665729 L 124.500000,151.500000 L 123.756921,160.500000 C 123.348227,165.450000 123.021534,175.065871 123.030935,181.868601 C 123.050156,195.776622 121.582978,199.817225 118.056526,195.568109" fill="black" stroke="black" stroke-width="1"/>
</svg>
