<?xml version="1.0" encoding="utf-8" ?>
<svg xmlns="http://www.w3.org/2000/svg" xmlns:ev="http://www.w3.org/2001/xml-events" xmlns:xlink="http://www.w3.org/1999/xlink" baseProfile="full" height="216" version="1.1" width="257">
  <defs/>
  <path d="M 118.465859,195.892430 C 118.097955,194.733267 118.297914,190.345767 118.910213,186.142430 C 123.125198,157.207212 123.142092,157.704406 117.750000,151.997855 C 115.412500,149.524035 110.125000,144.825411 106.000000,141.556468 C 101.875000,138.287526 94.375983,131.443103 89.335518,126.346640 C 81.633928,118.559488 79.359253,115.467616 75.085518,106.977206 C 72.288483,101.420481 70.000000,96.092404 70.000000,95.137035 C 70.000000,94.181666 69.628246,92.972500 69.173880,92.450000 C 66.936645,89.877282 65.962620,81.969632 65.688503,64.153867 L 65.390840,44.807735 L 62.771412,43.218360 C 59.345463,41.139616 58.000000,38.000976 58.000000,32.087806 C 58.000000,27.003678 60.770800,22.000000 63.586149,22.000000 C 64.378693,22.000000 65.857346,21.481526 66.872045,20.847836 C 68.282450,19.967024 69.785733,20.011246 73.255023,21.035606 C 78.550299,22.599114 79.906909,23.529632 82.263752,27.214817 C 85.637032,32.489315 83.385087,40.362816 77.454963,44.027834 C 75.474559,45.251792 73.461581,47.285951 72.981679,48.548188 C 71.032423,53.675121 73.700773,82.488647 77.129971,93.342503 C 79.016787,99.314519 83.900995,109.233776 85.250000,109.833333 C 85.662500,110.016667 86.000000,110.771235 86.000000,111.510152 C 86.000000,113.286421 101.942586,130.000000 103.636916,130.000000 C 104.361254,130.000000 105.679525,131.107453 106.566407,132.461006 C 107.453289,133.814559 108.926163,135.174170 109.839460,135.482364 C 110.752757,135.790557 113.750000,138.053671 116.500000,140.511504 C 119.250000,142.969337 121.931954,144.840742 122.459897,144.670180 C 124.153858,144.122916 125.879025,127.969782 126.002498,111.500000 C 126.068471,102.700000 126.271900,94.150000 126.454562,92.500000 C 126.637224,90.850000 127.297460,84.100000 127.921753,77.500000 C 128.546045,70.900000 129.279267,64.375000 129.551135,63.000000 C 129.823003,61.625000 130.250240,57.382476 130.500551,53.572169 C 131.005494,45.885788 131.672642,44.675503 135.134665,45.165335 C 137.356051,45.479633 137.494454,45.895576 137.408874,52.000000 C 137.358755,55.575000 136.766136,63.900000 136.091944,70.500000 C 134.194673,89.073297 133.402756,103.033638 134.175505,104.283973 C 134.669368,105.083061 135.438956,104.912726 136.767691,103.710237 C 137.807076,102.769607 139.319548,102.000000 140.128741,102.000000 C 140.937933,102.000000 142.027500,101.587058 142.550000,101.082351 C 143.072500,100.577645 146.200000,98.700998 149.500000,96.912025 C 155.312854,93.760803 169.262082,80.828424 173.674243,74.500000 C 177.386741,69.175112 180.880538,62.691332 186.471974,50.750000 C 188.350967,46.737135 190.849045,45.908258 193.054638,48.565834 C 194.120806,49.850489 194.119891,50.793241 193.049541,53.815834 C 190.611399,60.700977 186.776731,67.946718 183.750000,71.387643 C 182.787500,72.481857 182.000000,73.967270 182.000000,74.688561 C 182.000000,75.409853 181.647023,76.000000 181.215608,76.000000 C 180.784192,76.000000 179.632964,77.351331 178.657324,79.002958 C 176.438918,82.758419 166.654161,92.740996 162.000000,95.997044 C 160.075000,97.343773 157.627647,99.245373 156.561439,100.222821 C 155.495230,101.200270 154.032730,102.000000 153.311439,102.000000 C 152.590147,102.000000 152.000000,102.397516 152.000000,102.883369 C 152.000000,103.369221 151.212500,104.024324 150.250000,104.339152 C 149.287500,104.653981 146.250000,106.289964 143.500000,107.974670 C 140.750000,109.659376 137.514861,111.457733 136.310802,111.971019 C 133.317654,113.246985 131.709906,116.606309 132.293580,120.364840 C 132.754904,123.335512 132.226832,132.019926 129.913892,159.500000 C 127.987050,182.392837 127.146861,190.512778 126.447566,193.000000 C 125.080472,197.862425 119.708923,199.808980 118.465859,195.892430" fill="black" stroke="black" stroke-width="1"/>
</svg>
