<?xml version="1.0" encoding="utf-8" ?>
<svg xmlns="http://www.w3.org/2000/svg" xmlns:ev="http://www.w3.org/2001/xml-events" xmlns:xlink="http://www.w3.org/1999/xlink" baseProfile="full" height="219" version="1.1" width="260">
  <defs/>
  <path d="M 90.984227,200.970528 C 90.088806,199.297419 90.457474,198.112161 93.083780,194.220528 C 94.835912,191.624238 97.108842,188.911983 98.134737,188.193296 C 99.160632,187.474609 100.000000,186.284699 100.000000,185.549051 C 100.000000,184.813404 101.350000,182.766331 103.000000,181.000000 C 104.650000,179.233669 106.010512,177.273579 106.023359,176.644245 C 106.036207,176.014910 107.345508,173.250000 108.932918,170.500000 C 110.520327,167.750000 114.052138,161.198749 116.781387,155.941665 C 119.510636,150.684581 122.219096,145.509581 122.800185,144.441665 C 127.008168,136.708315 128.638919,130.782522 131.030324,114.535130 L 132.202650,106.570260 L 129.085549,103.785130 C 127.371143,102.253308 125.113046,101.000000 124.067557,101.000000 C 123.022067,101.000000 122.016667,100.645817 121.833333,100.212926 C 121.650000,99.780036 119.281690,98.138709 116.570423,96.565533 C 113.859155,94.992357 108.146282,90.125096 103.875149,85.749396 C 95.119889,76.779789 91.596686,70.438597 86.900156,55.197175 C 85.256694,49.863729 83.458067,44.052325 82.903207,42.282944 C 81.699239,38.443640 83.122254,35.000000 85.912739,35.000000 C 87.865903,35.000000 90.026774,37.037821 90.366654,39.200288 C 91.222839,44.647707 99.958779,68.200057 102.878708,72.933150 C 107.064158,79.717604 119.043249,91.037453 124.652724,93.508882 C 126.768726,94.441152 129.521593,95.688945 130.770206,96.281753 C 132.263559,96.990758 133.378119,97.021881 134.027294,96.372706 C 136.602063,93.797937 137.488759,54.593063 135.364471,37.250000 L 134.721418,32.000000 L 137.738264,32.000000 C 139.397530,32.000000 141.233880,32.576882 141.819042,33.281959 C 145.000291,37.115130 145.275381,66.644493 142.338101,89.000000 C 141.507062,95.325000 140.449738,103.425000 139.988493,107.000000 C 136.754006,132.069707 136.309075,134.018733 132.130225,141.423249 C 130.020009,145.162346 129.395171,147.126195 130.164449,147.601635 C 131.611826,148.496163 140.000000,143.949876 140.000000,142.270886 C 140.000000,141.571899 140.727861,141.000000 141.617470,141.000000 C 144.938578,141.000000 161.938455,122.064616 164.286504,115.750000 C 164.644404,114.787500 165.358397,114.000000 165.873157,114.000000 C 166.673712,114.000000 168.727790,110.806504 174.556447,100.500000 C 175.178532,99.400000 177.028893,96.250000 178.668360,93.500000 C 181.640218,88.515082 191.638591,68.297693 193.010115,64.500000 C 193.407376,63.400000 194.212871,61.375000 194.800103,60.000000 C 195.387336,58.625000 196.441402,55.700000 197.142473,53.500000 C 197.843543,51.300000 198.731175,49.050000 199.114987,48.500000 C 199.498799,47.950000 200.130258,45.367685 200.518229,42.761523 C 201.128268,38.663642 200.971932,37.941221 199.361816,37.417788 C 190.787314,34.630301 188.009960,31.387040 188.003738,24.154370 C 187.999126,18.792801 190.816806,14.521210 195.705455,12.478602 C 200.399263,10.517404 202.085820,10.608964 206.655499,13.073059 C 215.098676,17.625848 216.735943,25.616408 211.059619,34.567042 C 209.376829,37.220528 208.000000,40.284011 208.000000,41.374783 C 208.000000,42.465554 207.587694,44.739953 207.083765,46.429002 C 203.910022,57.066619 201.535233,63.999391 199.887288,67.437829 C 198.849280,69.603636 198.000000,72.017366 198.000000,72.801675 C 198.000000,74.100118 194.210940,81.807737 192.986510,83.000000 C 192.704091,83.275000 191.371617,85.750000 190.025458,88.500000 C 188.679298,91.250000 186.322868,95.381079 184.788947,97.680175 C 183.255026,99.979272 182.000000,102.566772 182.000000,103.430175 C 182.000000,104.293579 181.645079,105.000000 181.211287,105.000000 C 180.777495,105.000000 178.876365,107.587500 176.986553,110.750000 C 175.096741,113.912500 173.280387,116.725000 172.950211,117.000000 C 172.620034,117.275000 170.387174,120.411491 167.988298,123.969980 C 165.589423,127.528469 162.248198,131.818444 160.563353,133.503258 C 155.774890,138.291634 142.792722,149.000000 141.776051,149.000000 C 141.272416,149.000000 138.979272,150.286282 136.680175,151.858403 C 134.381079,153.430525 130.794564,155.327411 128.710143,156.073704 C 123.446296,157.958340 123.809085,157.444320 111.583432,180.339832 C 110.455725,182.451740 107.388117,186.841506 104.766527,190.094868 C 102.144937,193.348231 100.000000,196.473638 100.000000,197.040219 C 100.000000,197.606800 99.273246,199.179534 98.384990,200.535183 C 96.399108,203.566022 92.496165,203.795610 90.984227,200.970528" fill="none" stroke="black" stroke-width="5"/>
</svg>
