<?xml version="1.0" encoding="utf-8" ?>
<svg xmlns="http://www.w3.org/2000/svg" xmlns:ev="http://www.w3.org/2001/xml-events" xmlns:xlink="http://www.w3.org/1999/xlink" baseProfile="full" height="218" version="1.1" width="258">
  <defs/>
  <path d="M 66.359405,200.276475 C 66.890779,193.990322 67.786060,191.012672 71.170074,184.276475 C 73.456859,179.724414 75.704096,176.000000 76.163933,176.000000 C 76.623770,176.000000 77.000000,175.268167 77.000000,174.373705 C 77.000000,171.998920 82.541613,161.458545 87.605248,154.202090 C 90.022362,150.738239 92.000000,147.320483 92.000000,146.607077 C 92.000000,144.790702 89.900350,143.188328 81.500000,138.593872 C 80.400000,137.992243 79.275000,137.253319 79.000000,136.951820 C 78.725000,136.650322 76.925000,135.327595 75.000000,134.012427 C 73.075000,132.697260 70.600000,130.510874 69.500000,129.153792 C 68.400000,127.796710 65.925000,124.742618 64.000000,122.366920 C 57.173360,113.941967 55.502774,111.555852 50.481006,103.057600 C 41.159236,87.282528 39.055647,80.055615 38.311772,61.250000 L 37.748098,47.000000 L 40.815032,47.000000 C 44.698681,47.000000 45.101632,47.715907 45.175835,54.747653 C 45.266732,63.361494 46.997305,76.914717 48.655610,82.000000 C 50.138385,86.547011 54.942230,97.077626 55.954473,98.000000 C 56.256266,98.275000 57.177471,99.850000 58.001594,101.500000 C 58.825717,103.150000 61.001768,106.525000 62.837262,109.000000 C 64.672755,111.475000 67.147755,114.845795 68.337262,116.490656 C 72.994253,122.930391 84.066809,132.792354 89.670165,135.491176 C 96.518520,138.789644 98.172627,138.491819 101.993636,133.272313 C 103.915135,130.647541 105.742844,128.275000 106.055210,128.000000 C 106.367576,127.725000 109.510127,123.225000 113.038656,118.000000 C 116.567185,112.775000 119.715560,108.275000 120.035046,108.000000 C 123.157950,105.311934 125.184079,99.000000 122.924044,99.000000 C 121.139577,99.000000 110.563264,90.420344 105.754436,85.071770 C 101.351244,80.174361 97.000000,72.469427 97.000000,69.569915 C 97.000000,68.771381 96.550000,67.839919 96.000000,67.500000 C 95.450000,67.160081 95.000000,65.810081 95.000000,64.500000 C 95.000000,63.189919 94.550000,61.839919 94.000000,61.500000 C 93.450000,61.160081 93.000000,59.333524 93.000000,57.440983 C 93.000000,54.776180 93.411819,54.000000 94.825686,54.000000 C 97.655539,54.000000 100.771487,58.019026 103.003305,64.547695 C 104.122439,67.821463 105.771613,72.059389 106.668135,73.965309 C 108.335025,77.508956 122.279465,92.008830 125.866837,93.928734 C 128.004299,95.072669 127.341213,96.145135 135.587186,78.207191 C 138.122161,72.692712 139.734157,64.518539 140.690279,52.330222 L 141.252718,45.160443 L 136.517817,44.450401 C 133.913622,44.059878 130.031761,42.593844 127.891459,41.192547 C 123.910758,38.586308 123.231727,36.519480 123.909962,29.073703 C 124.529556,22.271694 130.124423,18.000000 138.413786,18.000000 C 141.854800,18.000000 143.274944,18.652174 146.541662,21.732573 C 150.289750,25.266887 150.490793,25.758208 150.326671,30.982573 C 150.231340,34.017158 149.716084,39.875000 149.181659,44.000000 C 148.647233,48.125000 147.871701,55.001751 147.458254,59.281669 C 147.044808,63.561588 146.322563,67.300645 145.853266,67.590686 C 145.383970,67.880728 145.000000,69.299016 145.000000,70.742438 C 145.000000,72.185860 144.069441,76.096802 142.932092,79.433421 C 141.107418,84.786430 139.879514,87.729105 135.713369,96.733121 C 135.145076,97.961337 133.852084,99.855021 132.840054,100.941307 C 131.828024,102.027593 131.000000,103.174981 131.000000,103.491058 C 131.000000,104.235631 112.914462,131.064343 111.181631,132.890311 C 110.455964,133.654982 109.113554,135.454982 108.198498,136.890311 C 107.283443,138.325640 105.801457,140.044578 104.905198,140.710173 C 104.008938,141.375768 102.709023,143.288268 102.016497,144.960173 C 101.323971,146.632078 100.361953,148.000000 99.878680,148.000000 C 99.395406,148.000000 98.985485,148.562500 98.967743,149.250000 C 98.950002,149.937500 97.156947,152.959445 94.983177,155.965434 C 92.809407,158.971423 91.368586,161.768586 91.781353,162.181353 C 93.895139,164.295139 119.745532,155.265227 129.500000,149.005691 C 131.700000,147.593930 134.777469,145.792679 136.338820,145.002911 C 142.685528,141.792600 164.480198,120.135672 173.000000,108.573430 C 174.925000,105.961008 177.737500,102.446527 179.250000,100.763472 C 180.762500,99.080417 182.000000,97.352256 182.000000,96.923115 C 182.000000,96.493973 182.649288,95.493569 183.442862,94.699995 C 186.413531,91.729327 200.985528,63.959417 200.995431,61.250000 C 200.997944,60.562500 201.351758,60.000000 201.781685,60.000000 C 202.211611,60.000000 203.141449,57.862500 203.847990,55.250000 C 204.554531,52.637500 205.477103,49.825000 205.898149,49.000000 C 206.319195,48.175000 207.287599,45.362500 208.050159,42.750000 C 208.812718,40.137500 209.752634,38.000000 210.138860,38.000000 C 210.525086,38.000000 211.135440,36.537500 211.495202,34.750000 C 212.679582,28.865328 213.115862,28.000000 214.898408,28.000000 C 217.522129,28.000000 219.597700,32.446049 218.282962,35.250000 C 217.702714,36.487500 216.672925,39.525000 215.994541,42.000000 C 212.315156,55.423796 200.356778,82.298632 195.526123,88.000000 C 194.827117,88.825000 193.433728,91.300000 192.429705,93.500000 C 191.425681,95.700000 190.339143,97.725000 190.015176,98.000000 C 189.691209,98.275000 188.076260,100.569720 186.426401,103.099378 C 179.237185,114.122289 153.901028,140.299534 142.988890,147.978889 C 141.070001,149.329296 138.859986,151.056856 138.077747,151.817912 C 137.295508,152.578967 131.445508,155.663399 125.077747,158.672205 C 118.709986,161.681011 112.774352,164.525827 111.887448,164.994017 C 111.000545,165.462207 107.502086,166.390789 104.113095,167.057533 C 100.724104,167.724276 97.710694,168.659090 97.416629,169.134896 C 97.122565,169.610703 95.625071,170.000000 94.088866,170.000000 C 92.552661,170.000000 89.766719,171.026433 87.897883,172.280962 C 84.404617,174.625953 83.503711,176.143585 77.973016,189.000000 C 76.198484,193.125000 74.353611,197.281394 73.873297,198.236431 C 73.392984,199.191468 73.000000,200.908552 73.000000,202.052173 C 73.000000,205.594126 71.106181,208.000000 68.318080,208.000000 L 65.706528,208.000000 L 66.359405,200.276475" fill="black" stroke="black" stroke-width="1"/>
</svg>
