<?xml version="1.0" encoding="utf-8" ?>
<svg xmlns="http://www.w3.org/2000/svg" xmlns:ev="http://www.w3.org/2001/xml-events" xmlns:xlink="http://www.w3.org/1999/xlink" baseProfile="full" height="218" version="1.1" width="258">
  <defs/>
  <path d="M 170.242976,206.842976 C 169.559339,206.159339 168.980364,204.002500 168.956365,202.050000 C 168.932366,200.097500 168.368086,195.883097 167.702409,192.684660 C 166.578121,187.282690 166.101416,186.587860 160.996044,182.909694 C 157.973220,180.731899 153.025000,177.818110 150.000000,176.434607 C 146.975000,175.051104 142.475000,172.984015 140.000000,171.841074 C 137.525000,170.698134 134.600000,169.403943 133.500000,168.965094 C 132.400000,168.526245 128.125000,166.618479 124.000000,164.725615 C 119.875000,162.832751 115.375000,160.936096 114.000000,160.510826 C 112.625000,160.085556 110.375000,158.956270 109.000000,158.001301 C 107.625000,157.046333 103.350000,154.771574 99.500000,152.946282 C 95.650000,151.120989 90.934970,148.361366 89.022156,146.813784 C 87.109342,145.266203 84.971842,144.000000 84.272156,144.000000 C 83.572470,144.000000 83.000000,143.550000 83.000000,143.000000 C 83.000000,142.450000 82.453326,142.000000 81.785169,142.000000 C 81.117012,142.000000 79.654512,141.091252 78.535169,139.980560 C 77.415826,138.869868 74.025000,136.063824 71.000000,133.744906 C 64.090571,128.448245 45.000000,109.128137 45.000000,107.432292 C 45.000000,106.736198 44.662500,106.016667 44.250000,105.833333 C 41.389319,104.561919 36.306405,89.599828 34.075868,75.884703 C 32.918897,68.770719 32.610875,50.177619 33.606989,47.581787 C 34.492410,45.274417 37.729734,45.648549 39.388973,48.250000 C 40.430804,49.883444 40.816540,53.710352 40.796641,62.215542 C 40.770274,73.485308 42.439902,86.467954 44.170513,88.450000 C 44.626731,88.972500 45.000000,90.259510 45.000000,91.310023 C 45.000000,95.924489 51.755961,105.750203 62.000000,116.034430 C 67.775000,121.832085 74.300000,127.908607 76.500000,129.537811 C 78.700000,131.167015 81.078874,133.046731 81.786387,133.714958 C 82.493899,134.383185 84.406399,135.717708 86.036387,136.680566 C 87.666374,137.643423 89.000000,138.784192 89.000000,139.215608 C 89.000000,139.647023 89.481421,140.000000 90.069825,140.000000 C 90.658228,140.000000 93.020728,141.293913 95.319825,142.875362 C 99.423216,145.697907 116.699982,154.250199 132.500000,161.280179 C 136.900000,163.237893 142.750000,165.838854 145.500000,167.060094 C 152.477592,170.158753 155.515030,170.917762 157.076314,169.952835 C 158.170225,169.276761 158.102071,168.770269 156.710237,167.232309 C 155.769607,166.192924 155.000000,164.815452 155.000000,164.171259 C 155.000000,163.527067 154.550000,163.000000 154.000000,163.000000 C 153.450000,163.000000 153.000000,162.531007 153.000000,161.957794 C 153.000000,160.720083 153.322418,161.129409 142.399568,148.500000 C 137.642760,143.000000 132.043446,136.206199 129.956648,133.402664 C 127.869851,130.599129 125.563415,127.668121 124.831235,126.889313 C 122.908740,124.844385 117.000000,116.285771 117.000000,115.546030 C 117.000000,114.838268 113.153692,109.259135 111.250000,107.205559 C 110.562500,106.463930 110.000000,105.471429 110.000000,105.000000 C 110.000000,104.528571 109.409498,103.548214 108.687774,102.821429 C 107.080159,101.202538 97.699904,81.854394 96.134758,76.929002 C 95.510641,74.964953 95.000000,72.404011 95.000000,71.238019 C 95.000000,70.072027 94.617302,68.881514 94.149561,68.592434 C 93.446538,68.157942 91.690537,54.937223 91.879311,51.500000 C 91.909518,50.950000 92.125822,47.800000 92.359987,44.500000 C 92.594153,41.200000 92.833951,34.998377 92.892871,30.718615 C 93.008733,22.302913 93.738469,21.215576 98.473070,22.403885 C 100.716434,22.966933 100.898276,23.410163 100.466081,27.261732 C 98.179836,47.635963 99.189623,65.197930 103.121138,73.437829 C 104.154512,75.603636 105.000000,77.799340 105.000000,78.317172 C 105.000000,78.835005 108.011778,85.275482 111.692841,92.629343 C 116.043522,101.320937 118.938363,106.000000 119.964997,106.000000 C 121.757260,106.000000 129.000000,100.337156 129.000000,98.935849 C 129.000000,98.430651 130.512705,96.035555 132.361567,93.613414 C 134.210428,91.191274 137.404382,85.674880 139.459241,81.354761 C 141.514100,77.034643 144.051395,71.769975 145.097674,69.655499 C 146.143953,67.541024 147.000000,65.172418 147.000000,64.391930 C 147.000000,63.611443 147.450000,62.078968 148.000000,60.986431 C 148.550000,59.893894 149.398812,58.188071 149.886249,57.195714 C 150.373685,56.203356 151.770016,51.409673 152.989207,46.543084 C 154.998210,38.523831 155.055716,37.610685 153.602936,36.797668 C 152.721297,36.304278 151.324966,34.595308 150.499978,32.999958 C 147.470924,27.142412 149.310314,20.051414 154.889282,16.078838 C 158.369104,13.600986 160.054640,13.527127 166.000000,15.591974 C 171.356360,17.452258 173.403436,19.145553 175.023042,23.055629 C 177.632202,29.354698 173.792989,36.429481 165.913240,39.842889 C 161.636071,41.695705 161.427889,41.997382 159.161205,49.627324 C 157.874867,53.957296 156.176547,58.712749 155.387159,60.194999 C 154.597771,61.677248 153.109563,65.502248 152.080031,68.694999 C 149.985615,75.190135 145.444715,84.607117 143.966672,85.520598 C 143.435003,85.849188 143.000000,86.991476 143.000000,88.059017 C 143.000000,89.126558 142.580324,90.000000 142.067388,90.000000 C 141.554451,90.000000 140.849972,90.897336 140.501879,91.994080 C 140.153786,93.090824 139.320766,94.553324 138.650724,95.244080 C 137.980683,95.934836 136.183221,98.651103 134.656364,101.280229 C 133.129508,103.909355 130.332203,107.469160 128.440131,109.190907 C 124.260723,112.994083 124.114320,115.545346 127.846994,119.527098 C 129.407750,121.192002 130.868167,123.017708 131.092366,123.584222 C 132.312661,126.667710 142.750603,138.938253 144.177420,138.966634 C 145.100001,138.984985 146.739765,137.875000 147.821340,136.500000 C 148.902915,135.125000 150.006314,134.000000 150.273338,134.000000 C 150.540362,134.000000 152.592277,132.312500 154.833149,130.250000 C 157.074021,128.187500 160.989686,124.700000 163.534627,122.500000 C 166.079568,120.300000 170.245247,115.800000 172.791692,112.500000 C 175.338137,109.200000 178.226733,105.911983 179.210796,105.193296 C 180.194858,104.474609 181.000000,103.325047 181.000000,102.638713 C 181.000000,101.952380 182.607351,99.636016 184.571892,97.491237 C 186.536432,95.346459 188.803886,92.011792 189.610679,90.080865 C 190.417471,88.149939 191.397620,86.329320 191.788787,86.035045 C 195.172689,83.489337 207.000000,55.631127 207.000000,50.206346 C 207.000000,49.057775 207.398076,47.872010 207.884612,47.571314 C 208.371149,47.270617 209.077793,44.966909 209.454933,42.451961 C 210.049128,38.489586 210.431539,37.920745 212.320321,38.189664 C 216.698515,38.813018 215.493613,50.207836 209.883329,61.236431 C 209.397498,62.191468 209.000000,63.723047 209.000000,64.639940 C 209.000000,67.496413 200.619420,84.751964 195.867249,91.680175 C 194.290262,93.979272 193.000000,96.304272 193.000000,96.846842 C 193.000000,97.389412 192.643678,97.983333 192.208174,98.166667 C 191.772669,98.350000 189.440387,101.425000 187.025324,105.000000 C 184.610261,108.575000 175.066583,119.026531 165.817150,128.225625 C 156.567718,137.424719 149.000000,145.182075 149.000000,145.464194 C 149.000000,145.976737 150.450672,147.813565 154.820468,152.834018 C 158.901218,157.522385 165.000000,166.839989 165.000000,168.386114 C 165.000000,169.208832 165.473972,170.174897 166.053271,170.532923 C 166.632570,170.890949 168.838187,174.855007 170.954644,179.341940 C 174.640039,187.155057 176.220176,194.144473 176.416192,203.500000 C 176.490608,207.051729 176.219043,207.532833 173.992976,207.792976 C 172.614113,207.954113 170.926613,207.526613 170.242976,206.842976" fill="black" stroke="black" stroke-width="1"/>
</svg>
