<?xml version="1.0" encoding="utf-8" ?>
<svg xmlns="http://www.w3.org/2000/svg" xmlns:ev="http://www.w3.org/2001/xml-events" xmlns:xlink="http://www.w3.org/1999/xlink" baseProfile="full" height="216" version="1.1" width="261">
  <defs/>
  <path d="M 83.000000,197.401129 C 83.000000,195.971750 83.609096,193.384250 84.353547,191.651129 C 86.603027,186.414222 90.000000,175.365178 90.000000,173.285396 C 90.000000,172.211761 90.308402,171.024931 90.685338,170.647995 C 91.685248,169.648085 93.967387,162.792851 93.984944,160.736431 C 93.993225,159.766468 94.408477,158.191468 94.907726,157.236431 C 96.240688,154.686549 99.000000,145.058807 99.000000,142.957746 C 99.000000,141.960824 97.875000,140.260235 96.500000,139.178660 C 95.125000,138.097085 94.000000,136.714424 94.000000,136.106080 C 94.000000,135.497736 93.578846,135.000000 93.064103,135.000000 C 91.886834,135.000000 73.000000,116.180404 73.000000,115.007326 C 73.000000,114.531868 72.437500,113.530813 71.750000,112.782760 C 71.062500,112.034706 70.007757,110.540063 69.406128,109.461331 C 66.396168,104.064423 65.358438,102.440902 63.750000,100.612357 C 62.787500,99.518143 61.989994,98.145230 61.977764,97.561439 C 61.965534,96.977647 61.075541,95.375000 60.000000,94.000000 C 58.924459,92.625000 58.034466,90.750000 58.022236,89.833333 C 58.010006,88.916667 57.626524,88.016667 57.170054,87.833333 C 55.920557,87.331495 50.430396,76.416566 47.445472,68.500000 C 40.062317,48.918519 36.522571,31.129119 39.064356,26.379749 C 42.031320,20.835927 45.298588,26.058016 47.395017,39.694681 C 48.642732,47.810709 52.235988,60.228996 55.440543,67.500000 C 56.167748,69.150000 57.528950,72.300000 58.465435,74.500000 C 59.401920,76.700000 60.668084,79.400000 61.279132,80.500000 C 61.890181,81.600000 63.449167,84.600506 64.743546,87.167791 C 66.037925,89.735076 67.750146,92.377676 68.548481,93.040236 C 69.346817,93.702795 70.000000,94.709813 70.000000,95.278054 C 70.000000,95.846294 71.125000,97.786169 72.500000,99.588887 C 73.875000,101.391605 75.000000,103.155126 75.000000,103.507823 C 75.000000,104.790080 86.072114,118.634482 91.218900,123.787687 C 100.691653,133.272256 101.553926,134.000000 103.319039,134.000000 C 104.278091,134.000000 105.313284,133.212500 105.619469,132.250000 C 105.925654,131.287500 106.997019,128.925000 108.000280,127.000000 C 114.561658,114.410403 116.000000,111.431593 116.000000,110.432561 C 116.000000,109.815139 116.848350,108.542229 117.885223,107.603872 C 118.922096,106.665515 120.051578,104.492111 120.395183,102.774086 C 120.965523,99.922386 120.431322,99.067528 114.259960,92.956156 C 106.279298,85.053073 103.503142,81.668139 99.743438,75.256338 C 96.864008,70.345756 96.506451,69.566914 94.805344,64.500000 C 93.588782,60.876352 92.714380,58.662378 90.582609,53.808092 C 89.690888,51.777542 88.544563,48.177542 88.035220,45.808092 C 85.151686,32.393962 84.983768,32.009193 81.230814,30.216358 C 76.654617,28.030250 74.165905,23.744384 74.073088,17.889879 C 73.878656,5.625858 90.658605,0.689961 97.912672,10.877359 C 102.549915,17.389766 101.312156,23.920605 94.188806,30.525748 C 91.747015,32.789904 91.696441,33.063532 92.956438,37.193399 C 93.679092,39.562029 94.722300,43.075000 95.274678,45.000000 C 98.420983,55.964663 106.328688,73.415615 109.694206,76.821429 C 110.412393,77.548214 111.000000,78.517927 111.000000,78.976345 C 111.000000,79.434763 113.903210,82.814813 117.451577,86.487566 C 123.867614,93.128513 126.343733,94.174941 128.129156,91.000000 C 128.832822,89.748700 135.908472,74.593767 139.101014,67.500000 C 142.331521,60.321876 144.662594,45.274880 144.949227,29.750000 C 145.009865,26.465677 147.778651,25.992943 150.345012,28.828741 C 152.777354,31.516448 152.049037,47.506754 149.039110,57.500000 C 148.542137,59.150000 147.568890,62.525000 146.876340,65.000000 C 146.183790,67.475000 144.803297,71.068336 143.808579,72.985191 C 142.813861,74.902046 142.000000,77.000326 142.000000,77.648037 C 142.000000,78.991442 132.046977,98.907173 130.510404,100.638409 C 124.011831,107.960262 124.231027,109.347348 131.750000,108.482650 C 137.700670,107.798311 142.331792,106.606191 147.500000,104.428366 C 149.150000,103.733075 152.525000,102.370740 155.000000,101.400955 C 157.475000,100.431169 159.725000,99.381724 160.000000,99.068854 C 160.275000,98.755985 162.525000,97.400107 165.000000,96.055794 C 167.475000,94.711481 170.094643,93.023981 170.821429,92.305794 C 171.548214,91.587607 172.490722,91.000000 172.915889,91.000000 C 173.341057,91.000000 174.996414,89.845497 176.594461,88.434439 C 178.192507,87.023380 181.333956,84.580801 183.575459,83.006485 C 185.816961,81.432170 189.611865,77.524173 192.008579,74.322047 C 194.405293,71.119921 196.622474,68.275000 196.935647,68.000000 C 199.193466,66.017391 214.658274,43.525906 218.566831,36.540351 C 220.049391,33.890650 222.426399,32.565911 224.364077,33.309468 C 226.149489,33.994595 226.612649,38.503328 225.000000,39.500000 C 224.450000,39.839919 224.000000,40.991476 224.000000,42.059017 C 224.000000,43.126558 223.580324,44.000000 223.067388,44.000000 C 222.554451,44.000000 221.849972,44.897336 221.501879,45.994080 C 221.153786,47.090824 220.320766,48.553324 219.650724,49.244080 C 218.980683,49.934836 217.253170,52.525000 215.811807,55.000000 C 214.370444,57.475000 212.248139,60.581354 211.095574,61.903010 C 209.943008,63.224665 209.000000,64.599227 209.000000,64.957593 C 209.000000,65.315958 207.425000,67.328665 205.500000,69.430275 C 203.575000,71.531885 202.000000,73.733854 202.000000,74.323539 C 202.000000,76.549294 178.311411,98.139430 173.000000,100.754575 C 169.837355,102.311746 166.962110,104.154472 165.248057,105.722746 C 161.056807,109.557534 139.661203,115.998666 131.104791,116.001554 C 126.247192,116.003193 120.184427,118.478951 118.864334,121.000000 C 117.217124,124.145762 110.172209,139.738342 108.020847,145.000000 C 106.783999,148.025000 105.373325,151.281394 104.886016,152.236431 C 104.398707,153.191468 104.000000,154.852411 104.000000,155.927414 C 104.000000,157.002418 103.611728,158.121931 103.137174,158.415222 C 102.662619,158.708513 101.706867,161.097570 101.013281,163.724239 C 100.319694,166.350908 98.939411,171.200000 97.945984,174.500000 C 96.952558,177.800000 95.658310,182.412500 95.069877,184.750000 C 92.598777,194.566243 91.568878,197.052462 89.379391,198.487069 C 85.680231,200.910852 83.000000,200.454606 83.000000,197.401129" fill="none" stroke="black" stroke-width="5"/>
</svg>
