<?xml version="1.0" encoding="utf-8" ?>
<svg xmlns="http://www.w3.org/2000/svg" xmlns:ev="http://www.w3.org/2001/xml-events" xmlns:xlink="http://www.w3.org/1999/xlink" baseProfile="full" height="219" version="1.1" width="259">
  <defs/>
  <path d="M 149.049753,200.750000 C 149.065054,183.623923 148.765421,183.007126 131.682797,165.000000 C 125.682528,158.675000 119.744528,151.925000 118.487242,150.000000 C 117.229956,148.075000 113.905982,144.045184 111.100633,141.044853 C 108.295285,138.044522 106.000000,135.264165 106.000000,134.866281 C 106.000000,134.468398 105.420427,133.548214 104.712060,132.821429 C 103.237424,131.308450 101.097971,126.902904 98.000000,119.000000 C 96.814187,115.975000 95.257173,112.150000 94.539968,110.500000 C 93.822763,108.850000 92.697519,104.800000 92.039425,101.500000 C 90.032375,91.435686 89.098200,89.617262 84.881179,87.566072 C 82.746530,86.527763 81.000000,85.412361 81.000000,85.087402 C 81.000000,84.762442 78.862500,83.395056 76.250000,82.048767 C 67.768372,77.677963 59.907652,67.913647 55.279553,56.000000 C 49.794009,41.879116 49.774678,39.652314 55.142276,40.186129 C 58.671019,40.537067 59.161471,41.210672 61.507165,48.927906 C 63.154227,54.346671 66.718314,62.607948 68.225290,64.500000 C 68.663352,65.050000 69.920253,66.700281 71.018404,68.167290 C 73.726873,71.785510 84.749687,79.195390 86.824961,78.792952 C 88.251276,78.516360 88.512367,76.985606 88.583287,68.484064 C 88.629094,62.992829 88.783326,56.475000 88.926024,54.000000 C 89.454691,44.830604 89.248568,44.130699 85.566418,42.592198 C 81.372930,40.840047 78.992495,36.550531 79.022236,30.799660 C 79.046655,26.077821 80.593545,23.631115 85.825131,20.039562 C 88.415273,18.261395 90.033622,17.875300 93.146637,18.292843 C 102.983345,19.612222 108.654745,27.823912 105.380665,36.006643 C 104.490896,38.230394 102.299788,41.276116 100.511534,42.774913 L 97.260165,45.500000 L 96.187109,61.205442 C 95.502382,71.227242 95.455306,78.100763 96.057027,80.198840 C 96.575662,82.007216 97.000000,85.277071 97.000000,87.465184 C 97.000000,91.277784 100.170370,103.605855 102.084507,107.236431 C 102.588028,108.191468 103.000000,109.878968 103.000000,110.986431 C 103.000000,113.352785 104.264204,113.591506 105.962028,111.545753 C 107.700498,109.451026 111.000000,102.787892 111.000000,101.371891 C 111.000000,100.709018 111.381707,100.016667 111.848237,99.833333 C 112.314767,99.650000 114.147323,96.350000 115.920584,92.500000 C 121.498293,80.390000 123.476794,76.510314 124.250000,76.166667 C 124.662500,75.983333 125.000000,75.380951 125.000000,74.828040 C 125.000000,74.275129 126.998633,69.658523 129.441408,64.568915 C 131.884182,59.479307 134.196231,54.006689 134.579295,52.407541 C 134.962359,50.808394 135.597065,49.050000 135.989753,48.500000 C 136.382440,47.950000 137.543859,45.110879 138.570682,42.190843 C 140.876895,35.632533 142.214474,34.357332 144.446338,36.589195 C 146.868654,39.011511 145.859130,43.045385 138.893646,58.776751 C 137.852141,61.128965 137.000000,63.527088 137.000000,64.105915 C 137.000000,64.684742 134.300000,70.712080 131.000000,77.500000 C 127.700000,84.287920 125.000000,90.327296 125.000000,90.920836 C 125.000000,91.514376 124.550000,92.000000 124.000000,92.000000 C 123.450000,92.000000 123.000000,92.648093 123.000000,93.440207 C 123.000000,94.688445 121.368123,98.125914 116.206685,107.750000 C 108.799823,121.560930 108.517852,122.464176 110.384975,126.398845 C 111.300499,128.328169 112.615723,130.490198 113.307695,131.203354 C 113.999666,131.916509 115.628037,134.075000 116.926297,136.000000 C 118.224557,137.925000 120.459746,140.625000 121.893384,142.000000 C 123.327023,143.375000 126.273963,146.706250 128.442140,149.402778 C 134.891621,157.423898 140.497211,163.000000 142.111268,163.000000 C 142.945553,163.000000 144.601367,160.867550 145.799568,158.250000 C 146.995458,155.637500 149.150205,151.475000 150.587894,149.000000 C 152.025584,146.525000 154.168954,142.700000 155.350938,140.500000 C 156.532922,138.300000 157.734159,136.275000 158.020354,136.000000 C 158.306549,135.725000 159.102973,134.375000 159.790185,133.000000 C 160.477397,131.625000 162.118814,128.700000 163.437779,126.500000 C 167.256883,120.129828 169.900398,114.432133 174.572867,102.500000 C 176.080477,98.650000 177.612275,95.050000 177.976861,94.500000 C 178.341448,93.950000 179.249049,91.475000 179.993753,89.000000 C 180.738457,86.525000 181.719514,84.072500 182.173880,83.550000 C 182.628246,83.027500 183.000000,81.366558 183.000000,79.859017 C 183.000000,78.351476 183.400280,76.870647 183.889512,76.568285 C 184.378744,76.265924 185.013612,74.551866 185.300330,72.759268 C 186.105085,67.727845 188.968703,54.060624 190.383242,48.500000 C 191.368010,44.628828 192.145259,43.427904 193.825971,43.180660 C 198.915685,42.431930 198.394340,51.185407 191.990414,74.000000 C 190.832550,78.125000 189.508531,82.850000 189.048149,84.500000 C 187.554692,89.852524 184.519288,97.491428 183.750000,97.833333 C 183.337500,98.016667 183.000000,99.062250 183.000000,100.156853 C 183.000000,101.251455 180.750000,106.893325 178.000000,112.694341 C 175.250000,118.495358 173.000000,123.762146 173.000000,124.398316 C 173.000000,125.034485 172.213173,126.667615 171.251495,128.027494 C 169.436039,130.594673 166.708134,135.568592 161.920904,145.040405 C 160.380782,148.087628 158.193528,151.419872 157.060341,152.445393 C 155.927153,153.470913 155.000000,154.924879 155.000000,155.676428 C 155.000000,156.427977 153.836496,158.801054 152.414435,160.949934 C 148.518559,166.836999 148.203729,171.778369 151.401751,176.844363 C 152.844587,179.129963 154.262469,181.000000 154.552600,181.000000 C 154.842731,181.000000 156.905536,179.087500 159.136612,176.750000 C 163.331091,172.355440 165.332330,170.123221 175.500000,158.497970 C 178.800000,154.724900 182.287500,150.944320 183.250000,150.096681 C 184.212500,149.249041 185.000000,148.186711 185.000000,147.735946 C 185.000000,147.285181 185.900000,145.950337 187.000000,144.769625 C 188.100000,143.588914 189.000000,142.032730 189.000000,141.311439 C 189.000000,140.590147 189.354921,140.000000 189.788713,140.000000 C 190.222505,140.000000 192.128255,137.412500 194.023713,134.250000 C 195.919170,131.087500 198.078970,127.865637 198.823266,127.090305 C 199.567563,126.314973 201.243579,123.990300 202.547746,121.924365 C 203.851914,119.858430 205.387194,117.878735 205.959480,117.525043 C 206.531766,117.171351 207.000000,115.783524 207.000000,114.440983 C 207.000000,113.098442 207.395406,112.000000 207.878680,112.000000 C 208.361953,112.000000 209.316548,110.650000 210.000000,109.000000 C 210.683452,107.350000 211.638047,106.000000 212.121320,106.000000 C 212.604594,106.000000 213.000000,105.100000 213.000000,104.000000 C 213.000000,102.900000 213.450000,102.000000 214.000000,102.000000 C 214.550000,102.000000 215.000000,101.390347 215.000000,100.645215 C 215.000000,99.900084 216.759934,95.808163 218.910964,91.552059 C 221.061995,87.295955 224.255563,79.693108 226.007783,74.656844 C 227.760003,69.620580 229.578859,64.600000 230.049685,63.500000 C 231.638583,59.787829 235.000000,47.300996 235.000000,45.110802 C 235.000000,42.542288 237.038854,41.541952 240.502236,42.411205 C 242.957924,43.027544 244.014365,46.255054 242.139666,47.413682 C 241.666482,47.706125 241.009535,49.913785 240.679782,52.319593 C 239.734218,59.218232 235.237380,72.000000 233.755889,72.000000 C 233.340150,72.000000 233.000000,73.153354 233.000000,74.563010 C 233.000000,75.972665 231.705405,79.910165 230.123122,83.313010 C 228.540839,86.715854 226.663371,91.075000 225.950972,93.000000 C 224.154233,97.855033 214.817683,115.426386 213.818465,115.833333 C 213.368309,116.016667 213.000000,117.029167 213.000000,118.083333 C 213.000000,119.137500 212.604594,120.000000 212.121320,120.000000 C 211.638047,120.000000 210.683452,121.350000 210.000000,123.000000 C 209.316548,124.650000 208.437994,126.000000 208.047659,126.000000 C 207.657324,126.000000 206.711051,127.237500 205.944831,128.750000 C 205.178610,130.262500 203.415069,132.896021 202.025851,134.602270 C 200.636633,136.308518 198.711996,139.008518 197.748879,140.602270 C 195.319269,144.622755 191.421607,150.112889 189.289218,152.518306 C 188.305148,153.628374 186.001623,156.328374 184.170274,158.518306 C 179.797031,163.747839 173.791063,170.658752 166.975857,178.303480 C 158.225178,188.119259 157.000000,191.076956 157.000000,202.386155 L 157.000000,212.000000 L 153.019851,212.000000 L 149.039702,212.000000 L 149.049753,200.750000" fill="black" stroke="black" stroke-width="1"/>
</svg>
