<?xml version="1.0" encoding="utf-8" ?>
<svg baseProfile="full" height="215" version="1.1" width="256" xmlns="http://www.w3.org/2000/svg" xmlns:ev="http://www.w3.org/2001/xml-events" xmlns:xlink="http://www.w3.org/1999/xlink"><defs /><rect fill="white" height="215" width="256" x="0" y="0" /><path d="M 155,89 L 217,18" fill="none" stroke="black" stroke-width="5" /><path d="M 53,184 L 60,40" fill="none" stroke="black" stroke-width="5" /><path d="M 88,162 L 168,82" fill="none" stroke="black" stroke-width="5" /><path d="M 129,156 L 194,135" fill="none" stroke="black" stroke-width="5" /><path d="M 52,181 L 56,106" fill="none" stroke="black" stroke-width="5" /><path d="M 51,136 L 54,62" fill="none" stroke="black" stroke-width="5" /><path d="M 137,109 L 134,108 L 133,114 L 137,111 Z" fill="none" stroke="black" stroke-width="5" /><path d="M 163,75 L 162,76 L 162,79 L 163,79 L 163,78 L 164,77 L 164,76 Z" fill="none" stroke="black" stroke-width="5" /><path d="M 0,0 L 0,214 L 255,214 L 255,0 Z" fill="none" stroke="black" stroke-width="5" /></svg>