<?xml version="1.0" encoding="utf-8" ?>
<svg xmlns="http://www.w3.org/2000/svg" xmlns:ev="http://www.w3.org/2001/xml-events" xmlns:xlink="http://www.w3.org/1999/xlink" baseProfile="full" height="214" version="1.1" width="260">
  <defs/>
  <path d="M 38.366841,204.513588 C 36.859864,200.586471 40.332457,186.066767 44.622037,178.359185 C 49.830078,169.001298 64.168576,152.000000 66.852759,152.000000 C 67.297864,152.000000 68.260132,150.882457 68.991132,149.516570 C 69.722132,148.150684 71.148173,146.770359 72.160112,146.449183 C 73.979250,145.871810 74.700758,143.478115 73.250000,142.833333 C 72.837500,142.650000 71.408560,140.475000 70.074578,138.000000 C 68.740596,135.525000 67.353084,133.275000 66.991217,133.000000 C 66.629350,132.725000 64.802172,129.575000 62.930820,126.000000 C 61.059468,122.425000 58.960157,118.906033 58.265683,118.180073 C 57.571209,117.454113 56.719700,115.731376 56.373440,114.351768 C 56.027181,112.972160 54.607211,109.516127 53.217952,106.671695 C 51.828693,103.827263 50.341240,99.925000 49.912502,98.000000 C 49.483763,96.075000 48.615537,92.700000 47.983110,90.500000 C 46.384518,84.939038 45.084877,77.854668 43.981672,68.688084 C 43.464578,64.391531 42.800695,60.486535 42.506376,60.010316 C 41.717006,58.733090 41.770899,22.207760 42.571053,16.175905 C 43.167537,11.679391 43.552830,11.000000 45.506386,11.000000 C 49.274861,11.000000 49.950657,12.860542 48.964296,20.520018 C 47.736988,30.050538 47.797725,50.160411 49.059373,52.000000 C 49.941206,53.285786 50.307792,53.187219 51.626327,51.309799 C 52.472341,50.105189 54.297169,47.855189 55.681501,46.309799 C 57.065833,44.764410 60.399157,40.125000 63.088886,36.000000 C 65.778616,31.875000 68.433961,27.956493 68.989652,27.292206 C 69.545343,26.627920 70.000000,25.835026 70.000000,25.530221 C 70.000000,25.225415 72.091022,21.831423 74.646716,17.988015 C 79.605263,10.531050 82.477118,9.068490 83.574616,13.441272 C 84.003159,15.148722 83.558000,16.558058 82.093668,18.129834 C 80.942151,19.365843 80.000000,20.825767 80.000000,21.374110 C 80.000000,21.922453 79.143925,23.300101 78.097611,24.435549 C 77.051297,25.570997 74.865315,28.975000 73.239872,32.000000 C 71.614429,35.025000 68.870504,39.010090 67.142261,40.855755 C 65.414017,42.701421 64.000000,44.769176 64.000000,45.450768 C 64.000000,46.132359 63.100000,47.504514 62.000000,48.500000 C 60.900000,49.495486 60.000000,50.915231 60.000000,51.654988 C 60.000000,52.394744 59.550000,53.000000 59.000000,53.000000 C 58.450000,53.000000 58.000000,53.590147 58.000000,54.311439 C 58.000000,55.032730 57.107254,56.581128 56.016119,57.752323 C 49.782079,64.443779 49.174621,70.064616 53.044373,85.250000 C 55.754886,95.886388 56.274947,97.000000 58.531670,97.000000 C 60.886089,97.000000 78.756919,79.965555 89.000000,67.957641 C 92.025000,64.411448 95.332476,60.607764 96.349946,59.505009 C 98.508909,57.165081 106.000000,41.859186 106.000000,39.787891 C 106.000000,39.011163 106.900000,36.512873 108.000000,34.236136 C 109.100000,31.959398 110.000000,29.264875 110.000000,28.248306 C 110.000000,27.231738 110.395061,25.972500 110.877914,25.450000 C 111.360766,24.927500 112.657537,22.025000 113.759626,19.000000 C 115.547222,14.093431 116.099877,13.466190 118.881712,13.186642 C 121.654433,12.908009 122.000000,13.161768 122.000000,15.476480 C 122.000000,16.908238 121.100000,19.843822 120.000000,22.000000 C 118.900000,24.156178 118.000000,26.393155 118.000000,26.971060 C 118.000000,27.548965 117.128454,29.929393 116.063231,32.260898 C 114.998008,34.592404 112.663036,40.893854 110.874405,46.264120 C 109.085773,51.634385 106.907589,56.809385 106.033995,57.764120 C 105.160401,58.718854 103.336933,61.075000 101.981843,63.000000 C 100.626754,64.925000 95.913984,70.145061 91.509022,74.600135 C 87.104060,79.055210 80.123255,86.255210 75.996122,90.600135 C 71.868989,94.945061 66.560107,100.136469 64.198608,102.136598 C 60.428429,105.329841 59.988905,106.122287 60.593430,108.636598 C 60.972082,110.211469 62.136599,112.321925 63.181244,113.326500 C 64.225890,114.331076 65.343715,116.468576 65.665300,118.076500 C 65.986885,119.684425 66.643750,121.000000 67.125000,121.000000 C 67.606250,121.000000 68.000000,121.851855 68.000000,122.893011 C 68.000000,123.934167 68.576656,125.007306 69.281458,125.277764 C 70.578970,125.775666 78.000000,137.583209 78.000000,139.149768 C 78.000000,140.880770 80.835792,139.911338 84.612495,136.889248 C 86.750623,135.178334 90.975000,132.193519 94.000000,130.256325 C 97.025000,128.319131 99.725000,126.455752 100.000000,126.115483 C 100.275000,125.775214 101.737500,124.858988 103.250000,124.079426 C 104.762500,123.299864 106.000000,122.288081 106.000000,121.831020 C 106.000000,121.373959 106.439368,121.000000 106.976374,121.000000 C 107.513379,121.000000 112.474011,118.300000 118.000000,115.000000 C 123.525989,111.700000 128.599121,108.981712 129.273626,108.959359 C 129.948132,108.937007 132.058002,107.587007 133.962226,105.959359 C 135.866450,104.331712 138.003950,103.000000 138.712226,103.000000 C 139.420502,103.000000 140.000000,102.550000 140.000000,102.000000 C 140.000000,101.450000 140.469337,101.000000 141.042971,101.000000 C 142.046391,101.000000 153.223910,94.167998 155.707794,92.036463 C 156.372080,91.466408 157.276998,91.000000 157.718723,91.000000 C 159.302360,91.000000 165.773691,84.456948 166.257843,82.366241 C 166.529610,81.192674 166.166810,76.867496 165.451621,72.754735 C 162.418497,55.312475 162.203328,42.082052 164.695306,26.250000 L 166.466065,15.000000 L 169.384024,15.000000 L 172.301983,15.000000 L 171.531666,28.250000 C 170.533232,45.423760 170.530836,45.664878 171.236044,58.000000 C 171.786396,67.626466 173.463814,73.932551 175.869605,75.419411 C 176.713536,75.940990 182.564723,70.028355 185.743469,65.441853 C 189.117641,60.573380 194.000000,50.719241 194.000000,48.777574 C 194.000000,47.799908 194.356811,47.000000 194.792914,47.000000 C 195.229017,47.000000 196.401464,44.412500 197.398352,41.250000 C 200.334880,31.934235 202.234240,26.567697 202.972693,25.500000 C 203.624701,24.557292 205.654669,15.876680 206.246606,11.500000 C 206.429239,10.149636 207.407573,9.397220 209.258551,9.183578 C 211.518715,8.922706 212.024539,9.273823 212.139777,11.183578 C 212.419822,15.824549 211.797739,21.522889 210.909830,22.450000 C 210.409423,22.972500 210.000000,24.388374 210.000000,25.596387 C 210.000000,26.804399 208.651543,31.101899 207.003429,35.146387 C 205.355315,39.190874 204.005315,43.011439 204.003429,43.636532 C 203.999514,44.934314 192.380153,67.596152 190.643368,69.693347 C 186.277817,74.964819 171.456132,89.000000 170.254809,89.000000 C 169.798113,89.000000 167.903034,90.270136 166.043523,91.822524 C 161.068238,95.976076 162.554347,97.356765 171.384941,96.785038 C 180.205785,96.213943 186.130130,93.648626 192.000000,87.858455 C 199.608042,80.353711 210.533729,66.239536 214.094862,59.315558 C 215.282739,57.005946 216.848620,54.888332 217.574596,54.609748 C 218.300573,54.331165 219.705779,52.367686 220.697277,50.246461 C 223.789326,43.631286 233.437136,29.100491 234.771439,29.049033 C 235.470730,29.022065 236.554629,30.123172 237.180103,31.495938 C 238.092274,33.497935 238.012490,34.339000 236.776945,35.745938 C 235.929734,36.710672 234.961046,38.400000 234.624306,39.500000 C 234.287566,40.600000 232.884340,42.807493 231.506026,44.405539 C 230.127712,46.003586 229.000000,47.658943 229.000000,48.084111 C 229.000000,48.509278 228.422305,49.451786 227.716233,50.178571 C 227.010162,50.905357 225.189154,53.525000 223.669551,56.000000 C 220.860628,60.574932 216.751609,66.635962 215.152592,68.562986 C 214.667464,69.147628 213.692303,70.722628 212.985567,72.062986 C 212.278831,73.403344 211.408778,74.725000 211.052116,75.000000 C 210.695455,75.275000 209.309438,77.075000 207.972080,79.000000 C 206.634721,80.925000 201.360143,86.616069 196.250794,91.646821 C 188.705429,99.076115 186.260576,100.896038 183.230535,101.338964 C 181.178741,101.638891 176.800000,102.372898 173.500000,102.970091 C 170.200000,103.567284 163.000000,104.209069 157.500000,104.396279 C 150.437312,104.636680 146.471941,105.259444 144.000000,106.516462 C 139.190607,108.962109 129.007801,115.054548 126.115141,117.217089 C 124.803469,118.197690 122.960713,119.000000 122.020129,119.000000 C 121.079544,119.000000 119.511407,119.882408 118.535378,120.960907 C 117.559350,122.039406 114.002106,124.349135 110.630391,126.093638 C 107.258676,127.838140 104.140134,129.880742 103.700298,130.632752 C 103.260461,131.384763 101.460461,132.737824 99.700298,133.639554 C 97.940134,134.541285 96.275000,135.575456 96.000000,135.937712 C 95.725000,136.299968 93.925000,137.687493 92.000000,139.021101 C 78.706643,148.230519 59.132688,166.773281 52.387266,176.546962 C 51.266325,178.171133 49.775209,181.075000 49.073675,183.000000 C 48.372141,184.925000 47.455928,187.400000 47.037645,188.500000 C 45.256886,193.183039 44.000000,197.775260 44.000000,199.598492 C 44.000000,201.852899 41.351606,206.000000 39.911911,206.000000 C 39.375837,206.000000 38.680555,205.331115 38.366841,204.513588" fill="black" stroke="black" stroke-width="1"/>
</svg>
