<?xml version="1.0" encoding="utf-8" ?>
<svg xmlns="http://www.w3.org/2000/svg" xmlns:ev="http://www.w3.org/2001/xml-events" xmlns:xlink="http://www.w3.org/1999/xlink" baseProfile="full" height="218" version="1.1" width="255">
  <defs/>
  <path d="M 116.413346,192.634780 C 116.100751,191.820169 116.554868,188.382749 117.422496,184.996068 C 118.290123,181.609387 119.000000,175.799811 119.000000,172.085900 C 119.000000,168.371988 119.304396,165.028937 119.676435,164.656898 C 120.667719,163.665614 120.866209,151.000000 119.890460,151.000000 C 119.434407,151.000000 116.439375,148.412500 113.234832,145.250000 C 110.030289,142.087500 105.404002,137.811273 102.954195,135.747274 C 85.466786,121.013868 68.377725,104.249615 66.001594,99.497021 C 65.177471,97.848659 64.236316,96.275000 63.910138,96.000000 C 62.913438,95.159684 55.000000,79.499870 55.000000,78.367828 C 55.000000,77.784524 54.323546,75.951291 53.496768,74.293976 C 52.669990,72.636661 51.302963,66.605024 50.458930,60.890338 C 49.614896,55.175652 48.510592,48.652983 48.004920,46.395517 C 46.047854,37.658611 45.687297,29.504410 47.202439,28.246954 C 48.321670,27.318075 49.086059,27.371977 50.685975,28.492602 C 53.478920,30.448857 53.831722,32.235637 56.512247,58.000000 C 57.144000,64.072208 58.893970,70.978161 60.173880,72.450000 C 60.628246,72.972500 61.000000,74.435000 61.000000,75.700000 C 61.000000,76.965000 61.393750,78.000000 61.875000,78.000000 C 62.356250,78.000000 63.022301,79.361506 63.355114,81.025568 C 63.687926,82.689631 65.094176,85.185085 66.480114,86.571023 C 67.866051,87.956960 69.000000,89.984578 69.000000,91.076839 C 69.000000,92.169101 69.700862,93.331715 70.557471,93.660427 C 71.466169,94.009127 71.867746,94.902264 71.521515,95.804529 C 71.115998,96.861288 73.710183,99.986895 79.714044,105.675308 C 84.546320,110.253692 88.934376,113.999723 89.465281,113.999821 C 89.996186,113.999920 92.921186,116.620377 95.965281,119.823061 C 99.009376,123.025744 103.454769,127.147036 105.843932,128.981486 C 108.233095,130.815936 112.226933,134.270558 114.719128,136.658425 C 119.055312,140.813087 120.929879,141.874853 121.060114,140.250000 C 121.093177,139.837500 121.329409,137.025000 121.585073,134.000000 C 121.840738,130.975000 122.285746,118.088445 122.573981,105.363212 L 123.098044,82.226424 L 119.321178,79.113212 C 117.243902,77.400945 115.084342,75.989994 114.522156,75.977764 C 113.959970,75.965534 112.375000,75.075541 111.000000,74.000000 C 109.625000,72.924459 107.911113,72.034466 107.191362,72.022236 C 105.875495,71.999877 100.503181,68.070633 94.171952,62.500000 C 90.573210,59.333589 83.000000,48.854492 83.000000,47.041301 C 83.000000,46.453660 82.587830,45.191468 82.084067,44.236431 C 81.580304,43.281394 80.463609,40.874492 79.602522,38.887760 C 78.741434,36.901029 77.353604,34.708429 76.518454,34.015316 C 74.270518,32.149694 74.673669,29.512607 77.432539,28.036104 C 80.263505,26.521017 83.000000,27.248862 83.000000,29.516921 C 83.000000,30.385751 83.954354,32.987375 85.120787,35.298306 C 86.287220,37.609238 88.099615,41.191418 89.148332,43.258706 C 94.207940,53.232480 102.703352,64.000000 105.512903,64.000000 C 106.252235,64.000000 107.484590,64.627448 108.251471,65.394328 C 109.018351,66.161208 111.723204,67.735023 114.262255,68.891695 C 116.801306,70.048366 119.145412,71.426265 119.471381,71.953693 C 119.797349,72.481120 120.702574,72.667628 121.482992,72.368153 C 122.641129,71.923734 122.825949,69.312586 122.488531,58.161827 C 121.962850,40.789508 121.972227,41.317863 122.152904,39.250000 C 122.237001,38.287500 121.977929,32.035116 121.577188,25.355812 C 121.150463,18.243433 121.226754,12.977892 121.761316,12.647515 C 122.263328,12.337254 123.616266,12.743349 124.767846,13.549946 C 127.627947,15.553239 128.963816,22.802395 129.258177,37.916935 C 129.397948,45.093814 129.922009,50.469613 130.500000,50.655530 C 132.374639,51.258528 145.994946,36.821681 146.823324,33.353619 C 147.001152,32.609129 147.491421,32.000000 147.912809,32.000000 C 148.936089,32.000000 151.000000,27.370620 151.000000,25.075392 C 151.000000,22.397611 153.574713,20.676444 156.487014,21.407385 C 159.516924,22.167844 159.701954,24.545749 157.000000,28.000000 C 155.924459,29.375000 155.034466,31.287500 155.022236,32.250000 C 155.010006,33.212500 154.604594,34.000000 154.121320,34.000000 C 153.638047,34.000000 152.683452,35.350000 152.000000,37.000000 C 151.316548,38.650000 150.458977,40.000000 150.094287,40.000000 C 149.729598,40.000000 148.684648,41.263837 147.772177,42.808527 C 146.859706,44.353218 142.437506,49.277912 137.945065,53.752293 L 129.776991,61.887531 L 129.381366,78.496186 C 128.986916,95.055524 129.564704,99.000000 132.384770,99.000000 C 133.851402,99.000000 150.137656,81.746838 156.778522,73.158002 C 161.654864,66.851278 163.973157,63.368297 165.464886,60.107690 C 166.318476,58.241920 168.588073,54.528378 170.508434,51.855375 C 172.428795,49.182373 174.000000,46.503344 174.000000,45.901977 C 174.000000,45.300611 174.739256,43.389153 175.642790,41.654292 C 178.190681,36.762131 178.567174,35.830648 180.050159,30.750000 C 181.388433,26.165121 181.568091,26.000000 185.218315,26.000000 C 188.753521,26.000000 189.000000,26.195531 189.000000,29.000000 C 189.000000,30.650000 188.550000,32.000000 188.000000,32.000000 C 187.450000,32.000000 187.000000,32.873442 187.000000,33.940983 C 187.000000,35.008524 186.588935,36.136018 186.086523,36.446526 C 184.964643,37.139886 181.000000,45.195761 181.000000,46.781983 C 181.000000,47.414777 179.200000,50.717467 177.000000,54.121295 C 174.800000,57.525123 173.000000,60.627626 173.000000,61.015746 C 173.000000,61.403867 169.878848,66.464943 166.064107,72.262582 C 159.838901,81.723642 147.848025,94.895233 134.203234,107.260726 C 131.599823,109.620048 131.078767,110.928630 130.619583,116.260726 C 129.347890,131.027750 127.703254,159.524615 127.402710,172.000000 C 127.223834,179.425000 126.704734,187.300000 126.249154,189.500000 C 125.455516,193.332483 125.244115,193.512897 121.201264,193.807945 C 118.185246,194.028055 116.819590,193.693433 116.413346,192.634780" fill="black" stroke="black" stroke-width="1"/>
</svg>
