<?xml version="1.0" encoding="utf-8" ?>
<svg xmlns="http://www.w3.org/2000/svg" xmlns:ev="http://www.w3.org/2001/xml-events" xmlns:xlink="http://www.w3.org/1999/xlink" baseProfile="full" height="217" version="1.1" width="256">
  <defs/>
  <path d="M 187.870157,212.250000 C 187.798743,211.837500 187.845297,207.768090 187.973610,203.206866 C 188.101923,198.645642 187.762542,193.695642 187.219430,192.206866 C 186.676317,190.718090 185.637947,187.475000 184.911940,185.000000 C 182.942333,178.285492 179.727862,171.653727 176.696968,168.051714 C 175.213636,166.288874 174.000000,164.234040 174.000000,163.485418 C 174.000000,161.892427 149.175251,136.516413 143.906770,132.723930 C 141.930494,131.301320 137.864533,127.707845 134.871301,124.738431 C 131.878070,121.769016 128.623300,118.888568 127.638479,118.337435 C 125.088438,116.910360 98.936221,90.908991 93.805039,84.699149 C 91.442213,81.839617 88.943770,78.904659 88.252944,78.177019 C 82.601012,72.223905 72.858182,54.950667 71.513862,48.500000 C 68.425171,33.679043 68.596478,26.776816 72.320482,16.000000 C 75.683367,6.268219 76.682250,4.827886 79.817258,5.190068 C 82.005453,5.442866 82.457699,5.960860 82.270530,8.000000 C 81.993158,11.021869 80.146550,17.695991 78.770452,20.650194 C 78.219582,21.832801 77.708374,28.167868 77.634435,34.728121 C 77.515488,45.281708 77.774276,47.280507 79.880748,52.077926 C 81.190159,55.060067 82.749605,58.625000 83.346184,60.000000 C 85.446993,64.841967 92.520610,73.887440 94.250000,73.943387 C 95.212500,73.974524 96.000550,73.662500 96.001221,73.250000 C 96.001893,72.837500 97.171426,71.150000 98.600182,69.500000 C 101.739703,65.874323 106.132252,57.312311 108.347707,50.500000 C 110.281265,44.554494 115.100422,22.260231 115.742234,16.291624 C 116.318658,10.931102 118.064659,9.308978 120.436784,11.930147 C 121.832434,13.472323 122.082166,15.105714 121.697599,20.176616 C 121.326441,25.070705 118.189151,40.840050 116.957968,44.000000 C 116.850823,44.275000 116.812680,44.826197 116.873206,45.224882 C 117.036165,46.298279 111.908628,62.335558 111.030174,63.500000 C 110.615255,64.050000 109.991298,65.693091 109.643604,67.151314 C 109.295910,68.609537 106.983861,72.291686 104.505717,75.333868 C 99.360020,81.650750 98.950770,83.650585 102.525626,85.009743 C 103.914720,85.537876 105.342844,86.729862 105.699234,87.658601 C 106.055625,88.587340 107.056594,90.106466 107.923609,91.034435 C 108.790624,91.962405 110.850000,94.344116 112.500000,96.327125 C 114.150000,98.310135 118.987500,102.509318 123.250000,105.658643 C 127.512500,108.807969 131.000000,111.748134 131.000000,112.192345 C 131.000000,112.636555 131.680161,113.000000 132.511470,113.000000 C 133.919323,113.000000 137.732527,105.748179 140.924704,97.000000 C 141.627130,95.075000 142.561013,92.600000 143.000000,91.500000 C 143.438987,90.400000 144.346333,87.925000 145.016324,86.000000 C 146.375729,82.094195 148.513068,76.971814 150.609058,72.596362 C 151.374076,70.999361 152.000000,68.501861 152.000000,67.046362 C 152.000000,65.590863 152.395639,63.972500 152.879198,63.450000 C 153.362756,62.927500 154.321402,60.700000 155.009520,58.500000 C 155.697639,56.300000 156.628437,54.032284 157.077960,53.460631 C 157.527482,52.888978 158.338092,50.638978 158.879315,48.460631 C 161.871453,36.417685 164.956434,33.232179 168.455490,38.572414 C 169.768324,40.576051 169.960186,41.777765 169.221873,43.372585 C 166.436794,49.388600 163.957373,55.052744 161.943395,60.000000 C 160.711948,63.025000 158.870910,67.407596 157.852200,69.739102 C 156.833490,72.070607 156.000000,74.889213 156.000000,76.002670 C 156.000000,77.116127 155.591736,78.808532 155.092746,79.763569 C 154.593756,80.718606 152.773098,85.325000 151.046839,90.000000 C 147.411339,99.845547 147.231964,100.281538 143.108531,109.294900 C 138.796239,118.721087 138.976023,120.144086 145.089798,124.976746 C 147.889186,127.189536 150.505934,129.000000 150.904793,129.000000 C 151.509680,129.000000 157.454061,134.772543 162.821429,140.572154 C 164.785923,142.694853 166.000000,142.306995 166.000000,139.556704 C 166.000000,138.212891 166.789052,136.525391 167.753449,135.806704 C 168.717845,135.088017 171.020218,130.900000 172.869833,126.500000 C 178.669086,112.704306 179.143887,111.619618 181.600951,106.553656 C 182.920428,103.833166 184.000000,101.240762 184.000000,100.792757 C 184.000000,100.344753 184.860673,98.070607 185.912606,95.739102 C 187.970516,91.177948 190.119997,84.729634 190.659067,81.500000 C 191.306692,77.620000 193.000901,69.446821 194.079332,65.000000 C 194.679562,62.525000 195.399919,56.900000 195.680125,52.500000 C 195.960330,48.100000 196.596932,44.072500 197.094795,43.550000 C 197.592658,43.027500 198.000000,41.536489 198.000000,40.236642 C 198.000000,38.172676 198.411714,37.912980 201.250000,38.186642 L 204.500000,38.500000 L 204.465334,44.500000 C 204.369037,61.167267 200.330316,79.990123 193.522534,95.500000 C 189.254026,105.224758 185.657742,113.655020 184.990691,115.500000 C 183.607854,119.324751 179.504504,128.991503 177.390942,133.403638 C 176.625924,135.000639 176.000000,136.716005 176.000000,137.215563 C 176.000000,137.715122 174.806770,140.646132 173.348377,143.728921 L 170.696755,149.333991 L 174.273914,152.612213 C 178.159604,156.173182 183.956115,164.466408 188.325066,172.715580 C 192.750278,181.070981 194.234140,187.526454 194.302408,198.719743 C 194.354687,207.291293 194.068419,209.266917 192.527382,210.969743 C 190.706085,212.982254 188.120003,213.693160 187.870157,212.250000" fill="black" stroke="black" stroke-width="1"/>
</svg>
