<?xml version="1.0" encoding="utf-8" ?>
<svg xmlns="http://www.w3.org/2000/svg" xmlns:ev="http://www.w3.org/2001/xml-events" xmlns:xlink="http://www.w3.org/1999/xlink" baseProfile="full" height="214" version="1.1" width="256">
  <defs/>
  <path d="M 236.513420,179.377876 C 235.681039,177.385708 235.000000,174.995231 235.000000,174.065705 C 235.000000,173.136180 234.100000,170.512873 233.000000,168.236136 C 231.900000,165.959398 231.000000,163.638562 231.000000,163.078723 C 231.000000,161.544100 227.205771,154.971662 223.916555,150.808638 C 222.312450,148.778389 221.000000,146.646535 221.000000,146.071183 C 221.000000,145.495831 219.237827,143.912678 217.084060,142.553065 C 214.930293,141.193451 212.861580,139.585049 212.486920,138.978837 C 212.112261,138.372625 210.615038,137.423937 209.159759,136.870640 C 207.031150,136.061345 205.437055,136.354279 201.006898,138.368827 C 197.978104,139.746125 192.858679,142.065224 189.630398,143.522379 C 181.918517,147.003305 175.293083,148.620544 165.379041,149.442027 C 158.887098,149.979954 157.150459,149.834474 156.721561,148.716784 C 155.754979,146.197910 157.390099,145.335716 165.500000,144.087941 C 173.629147,142.837205 179.103818,141.459840 182.236431,139.877244 C 183.191468,139.394760 184.930199,139.000000 186.100277,139.000000 C 189.218917,139.000000 196.000000,134.894144 196.000000,133.005849 C 196.000000,131.888439 193.889069,130.673339 189.250000,129.120396 C 185.537500,127.877625 180.592404,125.992129 178.260898,124.930406 C 175.929393,123.868683 173.545155,123.000000 172.962592,123.000000 C 172.380030,123.000000 170.141759,122.148874 167.988658,121.108608 C 165.835556,120.068343 161.694794,118.686041 158.786964,118.036828 C 155.879134,117.387614 152.600000,116.485853 151.500000,116.032915 C 150.400000,115.579977 146.800000,114.678712 143.500000,114.030103 C 140.200000,113.381495 135.774556,112.349832 133.665680,111.737520 C 130.779486,110.899513 129.361017,110.917958 127.929248,111.812112 C 126.883087,112.465450 125.542677,113.000000 124.950559,113.000000 C 123.099880,113.000000 111.000000,119.162021 111.000000,120.104504 C 111.000000,120.597027 110.337038,121.000000 109.526751,121.000000 C 107.995243,121.000000 98.876001,125.041977 98.000000,126.109071 C 97.725000,126.444061 95.700000,127.323424 93.500000,128.063213 C 91.300000,128.803001 89.072500,129.766419 88.550000,130.204141 C 88.027500,130.641864 86.591558,131.000000 85.359017,131.000000 C 84.126476,131.000000 82.839919,131.450000 82.500000,132.000000 C 82.160081,132.550000 80.873524,133.000000 79.640983,133.000000 C 78.408442,133.000000 76.972500,133.420221 76.450000,133.933824 C 75.927500,134.447427 72.575000,134.979547 69.000000,135.116314 C 65.425000,135.253080 61.775764,135.714834 60.890587,136.142434 C 58.183194,137.450286 52.000000,135.977066 52.000000,134.024145 C 52.000000,130.682952 55.472490,128.885597 62.651475,128.510960 C 72.431784,128.000572 91.742117,123.793709 93.021892,121.894597 C 93.308932,121.468645 97.438065,119.304126 102.197743,117.084554 C 106.957420,114.864982 111.163315,112.544768 111.544175,111.928523 C 112.933955,109.679812 109.138353,107.637200 102.780286,107.212216 C 90.431299,106.386789 68.986277,97.638151 56.045152,88.146310 L 50.109355,83.792620 L 38.982484,83.524117 C 32.415535,83.365650 27.393425,82.793425 26.727807,82.127807 C 26.107513,81.507513 24.783894,81.000000 23.786431,81.000000 C 22.788968,81.000000 21.191468,80.606573 20.236431,80.125718 C 12.725869,76.344200 9.428720,74.565972 9.000000,74.065652 C 8.725000,73.744725 6.815575,72.361165 4.756833,70.991074 C 0.584230,68.214211 -0.308086,64.549946 2.937452,63.519852 C 4.853515,62.911717 9.000000,64.772539 9.000000,66.240547 C 9.000000,66.658246 9.430197,67.000000 9.955994,67.000000 C 10.481790,67.000000 13.085927,68.281801 15.742965,69.848447 C 22.565919,73.871405 31.023595,76.857304 36.381410,77.134646 C 41.746265,77.412353 42.884143,76.676458 40.832316,74.256131 C 39.465209,72.643496 37.925219,70.124909 32.897620,61.279276 C 28.315279,53.217038 27.000000,46.358478 27.000000,30.525974 C 27.000000,13.987768 27.674611,11.536588 32.056028,12.155030 C 34.452665,12.493319 34.502099,12.692833 34.608353,22.456263 C 34.667948,27.932207 34.417352,33.531854 34.051474,34.899923 C 33.448421,37.154822 34.737443,45.812051 36.580940,51.888124 C 39.205768,60.539427 49.686743,76.665757 55.669435,81.258233 C 57.226246,82.453283 58.725000,83.695012 59.000000,84.017629 C 59.275000,84.340247 61.151314,85.372202 63.169586,86.310862 C 65.187859,87.249522 66.987859,88.371244 67.169586,88.803577 C 67.690734,90.043396 75.734991,93.931675 76.400991,93.265676 C 77.768919,91.897747 76.306500,81.401012 73.925852,75.500000 C 72.730271,72.536463 71.000000,63.333044 71.000000,59.937210 C 71.000000,58.306819 70.596182,56.191468 70.102627,55.236431 C 68.950301,53.006664 66.866657,37.024770 67.578179,35.873503 C 67.875099,35.393076 68.974132,35.000000 70.020473,35.000000 C 72.140969,35.000000 72.687149,36.565406 75.951879,52.000000 C 77.057073,57.225000 78.666726,64.650000 79.528885,68.500000 C 80.391044,72.350000 81.215425,76.419036 81.360842,77.542302 C 81.506259,78.665568 81.854868,80.015568 82.135528,80.542302 C 82.416188,81.069036 83.240755,83.525000 83.967898,86.000000 C 87.723395,98.782704 87.527573,98.443153 91.647826,99.316867 C 93.766522,99.766143 97.300000,100.354184 99.500000,100.623624 C 101.700000,100.893063 104.400000,101.483413 105.500000,101.935512 C 108.337718,103.101813 121.238983,105.000000 126.328169,105.000000 C 130.093283,105.000000 139.606447,106.929206 151.116020,110.026810 C 155.461581,111.196344 158.710335,111.277704 159.355895,110.233167 C 159.616555,109.811409 158.806310,107.223909 157.555348,104.483167 C 156.304387,101.742425 154.808357,97.925000 154.230838,96.000000 C 153.653318,94.075000 152.690122,90.893051 152.090401,88.929002 C 151.490681,86.964953 151.000000,82.418163 151.000000,78.825025 C 151.000000,73.109198 151.337720,71.929808 153.700004,69.396023 L 156.400007,66.500000 L 157.194828,70.000000 C 157.631979,71.925000 158.226220,76.636743 158.515364,80.470540 C 158.804507,84.304337 159.481837,87.881837 160.020540,88.420540 C 160.559243,88.959243 161.000000,90.653542 161.000000,92.185649 C 161.000000,101.724926 167.120277,111.378240 176.500000,116.633295 C 184.015178,120.843725 183.024978,120.417484 192.500000,123.520636 C 206.553649,128.123327 215.492412,133.253092 223.936142,141.561164 C 228.151340,145.708640 232.473300,150.766573 233.540497,152.801015 C 234.607693,154.835457 235.743476,156.725000 236.064458,157.000000 C 236.385440,157.275000 237.254945,159.750000 237.996692,162.500000 C 238.738439,165.250000 240.167625,169.449807 241.172662,171.832905 C 243.291318,176.856571 243.495731,180.104269 241.800000,181.800000 C 239.723945,183.876055 238.077741,183.121822 236.513420,179.377876" fill="black" stroke="black" stroke-width="1"/>
</svg>
