<?xml version="1.0" encoding="utf-8" ?>
<svg xmlns="http://www.w3.org/2000/svg" xmlns:ev="http://www.w3.org/2001/xml-events" xmlns:xlink="http://www.w3.org/1999/xlink" baseProfile="full" height="216" version="1.1" width="260">
  <defs/>
  <path d="M 143.607866,208.833158 C 143.391614,208.099921 142.735070,202.463993 142.148880,196.308873 L 141.083079,185.117745 L 119.791539,163.684630 C 108.081193,151.896417 97.262500,141.468170 95.750000,140.510748 C 94.237500,139.553326 93.000000,138.222049 93.000000,137.552355 C 93.000000,136.882661 91.087500,134.804601 88.750000,132.934445 C 86.412500,131.064288 82.043629,126.889936 79.041397,123.658108 C 75.664662,120.023135 71.586445,116.868905 68.348420,115.387801 C 65.469514,114.070961 62.836828,112.544999 62.498006,111.996773 C 62.159184,111.448548 61.181618,111.000000 60.325637,111.000000 C 57.814420,111.000000 44.557773,104.453298 37.863111,99.907040 C 32.278727,96.114758 25.000000,89.571874 25.000000,88.344326 C 25.000000,88.078140 23.748742,85.979272 22.219426,83.680175 C 20.690110,81.381079 18.947118,78.375000 18.346111,77.000000 C 17.745103,75.625000 16.239353,72.250000 15.000000,69.500000 C 13.760647,66.750000 12.409669,63.600000 11.997827,62.500000 C 11.585985,61.400000 10.742993,59.241326 10.124512,57.702947 C 9.506030,56.164568 9.000000,53.828625 9.000000,52.511964 C 9.000000,51.195302 8.603731,49.873126 8.119402,49.573795 C 7.635073,49.274463 6.935890,47.785405 6.565662,46.264778 C 5.291687,41.032215 3.887859,34.493321 3.326666,31.177854 C 2.774624,27.916446 2.825917,27.861597 6.132171,28.177854 L 9.500000,28.500000 L 10.404406,36.250000 C 10.901829,40.512500 11.689329,44.000000 12.154406,44.000000 C 12.619483,44.000000 13.000000,45.548442 13.000000,47.440983 C 13.000000,49.333524 13.450000,51.160081 14.000000,51.500000 C 14.550000,51.839919 15.000000,53.126476 15.000000,54.359017 C 15.000000,55.591558 15.383659,57.027500 15.852575,57.550000 C 16.321491,58.072500 17.306878,60.733597 18.042325,63.463548 C 19.503492,68.887344 23.214529,76.103228 25.531818,78.026406 C 26.339318,78.696572 27.000000,79.801340 27.000000,80.481446 C 27.000000,81.870326 36.725055,91.878040 42.633895,96.569740 C 48.920842,101.561662 61.000000,106.525441 61.000000,104.117061 C 61.000000,103.512196 59.537500,101.090908 57.750000,98.736422 C 55.962500,96.381936 53.600000,92.558205 52.500000,90.239242 C 51.400000,87.920279 50.162500,86.017783 49.750000,86.011473 C 49.337500,86.005163 49.000000,85.569803 49.000000,85.044006 C 49.000000,84.518210 47.747493,81.930710 46.216651,79.294006 C 44.685808,76.657303 42.352133,71.125000 41.030705,67.000000 C 39.709277,62.875000 38.315830,59.050000 37.934157,58.500000 C 36.906517,57.019149 33.000000,39.676181 33.000000,36.594830 C 33.000000,32.972520 35.797691,32.031936 38.103208,34.879129 C 39.510764,36.617387 39.768714,38.157221 39.306343,42.061225 C 38.861765,45.814991 39.105090,47.458642 40.301003,48.780111 C 41.781286,50.415805 43.015597,54.270743 44.928256,63.231718 C 45.366336,65.284163 46.249511,67.595716 46.890866,68.368501 C 48.467666,70.268429 52.990276,79.253648 52.997121,80.500000 C 53.000142,81.050000 54.715061,83.975000 56.808053,87.000000 C 58.901045,90.025000 60.911334,93.287500 61.275362,94.250000 C 61.639389,95.212500 62.513854,96.023592 63.218615,96.052426 C 63.923377,96.081261 66.750000,98.866764 69.500000,102.242433 C 78.315518,113.063622 88.745845,124.019666 106.527843,141.136579 C 111.462529,145.886697 118.588954,153.204151 122.364343,157.397587 C 126.139732,161.591023 130.527810,165.789427 132.115627,166.727374 C 133.703445,167.665321 135.244121,169.193796 135.539351,170.123985 C 136.080163,171.827931 138.880478,173.452855 139.760161,172.573172 C 140.020809,172.312524 140.146804,169.489432 140.040149,166.299633 C 139.933494,163.109835 139.747259,157.575000 139.626292,154.000000 C 139.505326,150.425000 139.306126,142.775000 139.183627,137.000000 L 138.960900,126.500000 L 133.853203,121.000000 C 112.652520,98.170972 105.306749,91.174502 100.000000,88.756562 C 86.719660,82.705576 84.221992,81.421606 79.500000,78.218180 C 71.098231,72.518373 59.000000,55.384405 59.000000,49.185312 C 59.000000,48.048309 58.604606,46.873667 58.121347,46.574996 C 57.638087,46.276326 56.978953,43.437268 56.656604,40.265979 C 56.334255,37.094691 55.778574,33.037500 55.421758,31.250000 C 54.801011,28.140315 54.907423,28.000000 57.886501,28.000000 C 60.520826,28.000000 61.000000,28.375672 61.000000,30.440983 C 61.000000,31.783524 61.400280,33.129353 61.889512,33.431715 C 62.378744,33.734076 63.021638,35.448134 63.318166,37.240732 C 64.356391,43.517096 65.199967,46.534196 67.092289,50.739102 C 68.141530,53.070607 69.000000,55.798255 69.000000,56.800540 C 69.000000,57.802825 69.900000,59.588914 71.000000,60.769625 C 72.100000,61.950337 73.014221,63.272689 73.031601,63.708187 C 73.158385,66.884935 90.486665,80.000000 94.557160,80.000000 C 96.920230,80.000000 96.216269,76.462299 92.512311,69.723774 C 90.594082,66.233985 88.877590,62.035643 88.697885,60.394124 C 88.518179,58.752606 88.105835,56.979897 87.781565,56.454772 C 87.280096,55.642689 86.018677,49.118116 83.298730,33.267721 C 82.870633,30.773002 83.146561,29.880990 84.507956,29.358573 C 87.286948,28.292174 89.494986,30.380054 89.546334,34.122771 C 89.571818,35.980247 89.856258,38.175000 90.178424,39.000000 C 90.500589,39.825000 91.327512,42.525000 92.016031,45.000000 C 95.920843,59.036522 104.302830,77.392643 109.596352,83.500000 C 111.026482,85.150000 113.754781,88.837895 115.659239,91.695323 C 119.348764,97.231046 137.277778,116.000000 138.876243,116.000000 C 139.400457,116.000000 140.134995,112.512500 140.508547,108.250000 C 141.254443,99.738803 143.474324,84.094864 144.557680,79.714959 C 145.483790,75.970785 143.280489,73.676771 134.514918,69.258725 C 123.742277,63.829070 114.616634,52.531673 112.008719,41.396420 C 111.249190,38.153389 110.026374,34.551014 109.291349,33.391143 C 108.189644,31.652649 108.185286,31.091116 109.266529,30.193763 C 110.805024,28.916927 114.831878,30.577648 116.070983,33.000000 C 117.603928,35.996785 121.000000,43.994018 121.000000,44.607087 C 121.000000,44.952972 122.237500,46.741332 123.750000,48.581218 C 125.262500,50.421105 127.460300,53.180511 128.633999,54.713233 C 130.617005,57.302820 143.927829,66.000000 145.908122,66.000000 C 146.882437,66.000000 147.634815,61.776177 148.936283,49.000000 C 149.708249,41.421806 150.185486,38.743664 151.570902,34.215146 C 151.871971,33.231043 152.573502,33.329667 154.567960,34.636486 C 157.121526,36.309647 157.161045,36.508769 156.609166,44.921340 C 156.009182,54.067189 155.196818,58.880944 153.980129,60.500000 C 153.566815,61.050000 153.169525,64.756123 153.097263,68.735828 C 153.025002,72.715534 152.317880,78.565534 151.525881,81.735828 C 148.810998,92.603251 146.872389,109.514710 146.107852,129.000000 C 145.687039,139.725000 145.571021,148.924616 145.850033,149.443592 C 146.129045,149.962568 146.447750,154.305376 146.558266,159.094276 C 146.784144,168.882045 147.175085,170.000000 150.371926,170.000000 C 153.133810,170.000000 156.859124,166.134084 160.490045,159.500000 C 161.995156,156.750000 163.566331,154.275000 163.981544,154.000000 C 165.053253,153.290196 169.000000,144.884791 169.000000,143.312171 C 169.000000,142.590477 169.450000,142.000000 170.000000,142.000000 C 170.550000,142.000000 171.000000,141.137500 171.000000,140.083333 C 171.000000,139.029167 171.352426,138.016667 171.783169,137.833333 C 172.762792,137.416385 177.954477,122.043621 179.156716,116.000000 C 179.649060,113.525000 180.490212,108.012500 181.025944,103.750000 C 182.850619,89.232116 184.120812,79.508772 184.977602,73.500000 C 185.448149,70.200000 186.312492,64.125000 186.898366,60.000000 C 187.484239,55.875000 188.451329,49.575000 189.047455,46.000000 C 189.643580,42.425000 190.384025,37.362500 190.692889,34.750000 C 191.222830,30.267528 191.422875,30.000000 194.244717,30.000000 L 197.234975,30.000000 L 196.568669,37.250000 C 196.202201,41.237500 195.514378,49.675000 195.040174,56.000000 C 194.565971,62.325000 193.491312,71.550000 192.652045,76.500000 C 190.770809,87.595533 187.775892,108.654661 187.617307,111.902383 C 187.422887,115.883986 189.716014,115.391561 192.683836,110.814398 C 194.222431,108.441479 195.732174,106.275000 196.038820,106.000000 C 196.345467,105.725000 197.677998,103.925000 199.000000,102.000000 C 200.322002,100.075000 201.650322,98.275000 201.951820,98.000000 C 202.253319,97.725000 202.992243,96.600000 203.593872,95.500000 C 206.272886,90.601781 207.537330,88.464903 208.031810,88.000000 C 208.955876,87.131207 217.030754,68.554253 217.015028,67.333333 C 217.006762,66.691667 217.355720,66.016667 217.790488,65.833333 C 218.225257,65.650000 219.317097,63.250000 220.216801,60.500000 C 221.116505,57.750000 223.022981,52.125000 224.453415,48.000000 C 228.280722,36.963037 229.000000,34.539228 229.000000,32.679002 C 229.000000,31.628412 229.803474,31.000000 231.146736,31.000000 C 233.211589,31.000000 233.268816,31.291686 232.647050,38.647158 C 232.291519,42.853095 231.505975,46.890338 230.901397,47.618809 C 230.296820,48.347280 229.422051,50.418559 228.957467,52.221651 C 228.492883,54.024743 227.696693,57.134702 227.188157,59.132672 C 226.679620,61.130642 225.529248,64.237279 224.631773,66.036310 C 223.734298,67.835341 223.000000,70.111581 223.000000,71.094621 C 223.000000,72.077661 222.550000,73.160081 222.000000,73.500000 C 221.450000,73.839919 221.000000,74.991476 221.000000,76.059017 C 221.000000,77.126558 220.580324,78.000000 220.067388,78.000000 C 219.554451,78.000000 218.852841,79.012500 218.508254,80.250000 C 217.460609,84.012363 214.546604,89.976341 213.750000,89.988527 C 213.337500,89.994837 213.000000,90.629008 213.000000,91.397796 C 213.000000,93.274064 200.283838,114.155243 198.017819,116.000000 C 197.680021,116.275000 196.320198,118.075000 194.995990,120.000000 C 193.671782,121.925000 190.951033,125.075000 188.949882,127.000000 C 186.948730,128.925000 184.241085,132.075000 182.932891,134.000000 C 181.624698,135.925000 179.861772,138.257346 179.015280,139.182990 C 178.168787,140.108635 176.869387,142.921135 176.127724,145.432990 C 175.386062,147.944846 174.427777,150.000000 173.998203,150.000000 C 173.568629,150.000000 172.540096,151.687500 171.712573,153.750000 C 170.885051,155.812500 168.797999,158.972208 167.074679,160.771573 C 165.351359,162.570939 163.670116,165.399421 163.338582,167.057089 C 163.007049,168.714757 161.895240,170.520882 160.867897,171.070699 C 159.840554,171.620517 159.000000,172.547568 159.000000,173.130813 C 159.000000,173.714058 158.152687,175.385726 157.117082,176.845630 C 151.177382,185.218892 149.430369,192.741359 151.910509,199.264621 C 152.987316,202.096837 150.789323,207.469984 148.171661,208.404498 C 147.252248,208.732732 145.937737,209.263418 145.250526,209.583801 C 144.563315,209.904184 143.824118,209.566395 143.607866,208.833158" fill="black" stroke="black" stroke-width="1"/>
</svg>
