<?xml version="1.0" encoding="utf-8" ?>
<svg baseProfile="full" height="216" version="1.1" width="256" xmlns="http://www.w3.org/2000/svg" xmlns:ev="http://www.w3.org/2001/xml-events" xmlns:xlink="http://www.w3.org/1999/xlink"><defs /><rect fill="white" height="216" width="256" x="0" y="0" /><path d="M 75,142 L 68,156 L 82,158 L 83,155 Z" fill="none" stroke="black" stroke-width="5" /><path d="M 190,130 L 167,175 L 217,176 Z" fill="none" stroke="black" stroke-width="5" /><path d="M 80,97 L 79,106 L 80,110 L 90,109 L 91,98 Z" fill="none" stroke="black" stroke-width="5" /><path d="M 74,81 L 61,98 L 64,114 L 80,125 L 101,120 L 107,110 L 107,94 L 93,81 Z" fill="none" stroke="black" stroke-width="5" /><ellipse cx="83.92412567138672" cy="103.16204071044922" fill="none" rx="66.64842987060547" ry="67.28054809570312" stroke="black" stroke-width="5" transform="rotate(16.928234100341797, 83.92412567138672, 103.16204071044922)" /><path d="M 0,0 L 0,215 L 255,215 L 255,0 Z" fill="none" stroke="black" stroke-width="5" /></svg>