<?xml version="1.0" encoding="utf-8" ?>
<svg baseProfile="full" height="215" version="1.1" width="257" xmlns="http://www.w3.org/2000/svg" xmlns:ev="http://www.w3.org/2001/xml-events" xmlns:xlink="http://www.w3.org/1999/xlink"><defs /><rect fill="white" height="215" width="257" x="0" y="0" /><path d="M 228,162 L 201,164 L 199,186 L 228,186 Z" fill="none" stroke="black" stroke-width="1" /><path d="M 192,159 L 233,157 L 235,191 L 195,194 Z" fill="none" stroke="black" stroke-width="1" /><path d="M 79,118 L 72,132 L 86,133 Z" fill="none" stroke="black" stroke-width="1" /><path d="M 77,109 L 95,139 L 64,139 Z" fill="black" stroke="black" stroke-width="1" /><circle cx="81.0882339477539" cy="126.73529052734375" fill="none" r="23.752901077270508" stroke="black" stroke-width="1" /><circle cx="80.0" cy="127.86885070800781" fill="black" r="31.446659088134766" stroke="black" stroke-width="1" /><path d="M 67,48 L 29,166 L 155,163 Z" fill="none" stroke="black" stroke-width="1" /><path d="M 63,38 L 163,168 L 22,173 Z" fill="none" stroke="black" stroke-width="1" /><path d="M 174,54 L 207,56 L 191,29 Z" fill="none" stroke="black" stroke-width="1" /><path d="M 190,18 L 214,62 L 167,59 Z" fill="none" stroke="black" stroke-width="1" /><path d="M 0,0 L 0,214 L 256,214 L 256,0 Z" fill="none" stroke="black" stroke-width="1" /></svg>