<?xml version="1.0" encoding="utf-8" ?>
<svg xmlns="http://www.w3.org/2000/svg" xmlns:ev="http://www.w3.org/2001/xml-events" xmlns:xlink="http://www.w3.org/1999/xlink" baseProfile="full" height="219" version="1.1" width="256">
  <defs/>
  <path d="M 11.750000,200.295025 C 9.489054,199.724397 9.565145,198.112784 12.000000,195.000000 C 13.075541,193.625000 13.965534,191.894467 13.977764,191.154370 C 13.989994,190.414274 14.935448,188.495025 16.078773,186.889373 C 17.222099,185.283721 19.839768,180.714254 21.895817,176.735003 C 26.568878,167.690817 28.168007,164.938572 29.750000,163.217240 C 30.437500,162.469187 31.000000,161.023812 31.000000,160.005297 C 31.000000,158.986781 32.125000,156.816464 33.500000,155.182369 C 34.875000,153.548275 36.000000,151.782885 36.000000,151.259282 C 36.000000,150.735679 36.724687,148.775639 37.610415,146.903638 C 42.882657,135.760666 46.584763,128.435508 47.168659,127.991255 C 47.536421,127.711445 50.177528,122.761445 53.037785,116.991255 C 55.898042,111.221065 58.634646,106.350000 59.119126,106.166667 C 59.603607,105.983333 60.000000,105.177906 60.000000,104.376829 C 60.000000,102.896146 63.758895,94.912933 64.885929,94.000000 C 65.225422,93.725000 66.033469,92.375000 66.681590,91.000000 C 69.815959,84.350383 74.613888,74.822880 78.012304,68.500000 C 80.081598,64.650000 81.825359,60.712500 81.887329,59.750000 C 81.949298,58.787500 82.373959,58.000000 82.831020,58.000000 C 83.288081,58.000000 84.300581,56.762500 85.081020,55.250000 C 85.861459,53.737500 88.697575,48.900000 91.383500,44.500000 C 100.414394,29.705865 102.985211,25.000589 102.993839,23.250000 C 102.997228,22.562500 103.809194,22.000000 104.798208,22.000000 C 106.606827,22.000000 109.634217,24.661733 129.070946,43.341007 C 148.495233,62.008322 166.015866,78.265895 171.149725,82.386331 C 173.278099,84.094564 180.005132,89.782877 187.250000,96.000567 C 188.762500,97.298624 190.000000,98.846959 190.000000,99.441312 C 190.000000,100.362704 192.971894,103.260699 196.519016,105.798227 C 197.058557,106.184202 197.980074,107.369926 198.566831,108.433169 C 199.153588,109.496412 200.441106,110.846412 201.427984,111.433169 C 202.414861,112.019926 204.718738,113.850000 206.547711,115.500000 C 208.376684,117.150000 210.464166,119.007311 211.186559,119.627359 C 211.908951,120.247406 213.211925,121.597406 214.082055,122.627359 C 214.952186,123.657311 216.977186,125.724043 218.582055,127.220096 C 220.186925,128.716149 222.850000,131.303144 224.500000,132.968973 C 226.150000,134.634802 227.922815,135.998259 228.439590,135.998877 C 229.444546,136.000078 239.000000,145.987031 239.000000,147.036167 C 239.000000,147.380398 240.125000,148.264122 241.500000,149.000000 C 242.875000,149.735878 244.000000,151.161919 244.000000,152.168980 C 244.000000,153.407698 244.736728,154.000000 246.277494,154.000000 C 249.291047,154.000000 253.050467,156.704909 252.398450,158.404038 C 252.113673,159.146157 249.995021,160.017835 247.690336,160.341100 C 245.385651,160.664365 241.250000,161.418582 238.500000,162.017138 C 235.750000,162.615694 228.325000,164.001356 222.000000,165.096386 C 215.675000,166.191417 208.025000,167.542214 205.000000,168.098158 C 201.975000,168.654102 197.025000,169.552050 194.000000,170.093598 C 190.975000,170.635147 186.250000,171.531162 183.500000,172.084743 C 180.750000,172.638325 176.025000,173.500190 173.000000,174.000000 C 169.975000,174.499810 165.025000,175.362508 162.000000,175.917107 C 158.975000,176.471706 153.125000,177.409008 149.000000,178.000000 C 140.460562,179.223452 133.512457,180.438971 127.008657,181.847220 C 124.538418,182.382093 122.194222,182.620036 121.799334,182.375981 C 121.404445,182.131927 120.275550,182.352561 119.290677,182.866280 C 118.305805,183.379998 114.125000,184.260130 110.000000,184.822128 C 101.881464,185.928213 95.930596,186.985761 83.500000,189.531528 C 79.100000,190.432641 72.125000,191.570238 68.000000,192.059521 C 63.875000,192.548804 58.025000,193.386896 55.000000,193.921948 C 51.975000,194.457000 46.800000,195.205232 43.500000,195.584686 C 40.200000,195.964139 37.050000,196.572798 36.500000,196.937259 C 35.950000,197.301721 33.056259,197.717582 30.069465,197.861394 C 27.082671,198.005206 23.932671,198.483530 23.069465,198.924335 C 20.973509,199.994657 13.936269,200.846806 11.750000,200.295025" fill="none" stroke="black" stroke-width="5"/>
</svg>
