<?xml version="1.0" encoding="utf-8" ?>
<svg xmlns="http://www.w3.org/2000/svg" xmlns:ev="http://www.w3.org/2001/xml-events" xmlns:xlink="http://www.w3.org/1999/xlink" baseProfile="full" height="217" version="1.1" width="257">
  <defs/>
  <path d="M 125.352119,176.869144 C 124.752325,176.116115 123.948421,173.250000 123.565664,170.500000 C 123.182907,167.750000 122.455021,163.025000 121.948140,160.000000 C 120.531566,151.546077 118.642741,138.402254 116.056261,119.000000 C 115.506364,114.875000 114.589418,109.025000 114.018603,106.000000 C 112.929940,100.230701 112.139278,95.301443 109.527353,78.000000 C 108.655526,72.225000 107.547185,66.600000 107.064372,65.500000 C 106.581559,64.400000 105.628854,58.775000 104.947250,53.000000 C 104.265645,47.225000 103.323676,42.072500 102.853984,41.550000 C 99.927257,38.294214 103.815088,35.282976 112.232513,34.286056 C 114.886759,33.971700 117.296829,33.328737 117.588224,32.857250 C 117.879620,32.385762 120.453976,31.991928 123.309017,31.982063 C 126.164058,31.972198 132.775000,31.249730 138.000000,30.376579 C 143.225000,29.503427 148.850000,28.605531 150.500000,28.381254 C 152.150000,28.156976 158.900000,27.089760 165.500000,26.009663 C 183.863276,23.004492 192.118632,21.799094 196.500000,21.483227 C 198.700000,21.324622 201.850000,20.645450 203.500000,19.973955 C 205.150000,19.302459 209.875000,18.352049 214.000000,17.861931 C 218.125000,17.371813 223.412500,16.705110 225.750000,16.380368 C 229.908805,15.802599 230.000000,15.852163 230.000000,18.690215 C 230.000000,21.230279 231.413557,29.045307 234.998723,46.326290 C 235.549425,48.980750 236.000000,53.053250 236.000000,55.376290 C 236.000000,57.699331 236.412086,60.027500 236.915746,60.550000 C 237.419406,61.072500 238.070444,64.425000 238.362497,68.000000 C 239.088691,76.889289 239.059438,76.688641 240.686017,83.937232 C 241.480498,87.477709 242.149684,92.202709 242.173097,94.437232 C 242.196510,96.671754 242.565781,98.950000 242.993699,99.500000 C 243.421617,100.050000 244.315631,104.325000 244.980397,109.000000 C 245.645162,113.675000 246.370475,118.625000 246.592203,120.000000 C 246.813931,121.375000 247.415906,125.425000 247.929925,129.000000 C 248.443944,132.575000 249.354923,137.975000 249.954322,141.000000 C 250.553722,144.025000 251.315119,149.473846 251.646316,153.108547 L 252.248493,159.717093 L 244.874246,160.534030 C 233.822570,161.758361 222.333312,163.616383 196.018619,168.434873 C 191.353859,169.289038 186.788701,169.750324 185.873823,169.459953 C 184.958944,169.169582 182.475566,169.584245 180.355204,170.381427 C 178.234842,171.178608 174.025000,172.086595 171.000000,172.399175 C 167.975000,172.711755 162.350000,173.466129 158.500000,174.075561 C 135.388609,177.733956 126.628954,178.472188 125.352119,176.869144" fill="none" stroke="black" stroke-width="5"/>
  <path d="M 47.609147,141.176604 C 47.329260,140.723736 45.220062,139.732686 42.922041,138.974271 C 40.320462,138.115673 36.401507,135.313263 32.536508,131.547667 C 24.487068,123.705250 20.000000,114.224881 20.000000,105.060273 C 20.000000,100.526145 23.810640,88.000000 25.189990,88.000000 C 25.635495,88.000000 26.000000,87.172305 26.000000,86.160678 C 26.000000,85.149051 27.575000,82.888138 29.500000,81.136427 C 31.425000,79.384716 33.000000,77.515033 33.000000,76.981574 C 33.000000,76.448116 36.487500,74.323615 40.750000,72.260461 C 47.433648,69.025411 49.655365,68.459285 56.896924,68.145985 C 65.871119,67.757725 76.902385,69.972529 79.083387,72.600475 C 79.722213,73.370214 80.700687,74.000000 81.257774,74.000000 C 82.436708,74.000000 87.000000,78.711781 87.000000,79.929077 C 87.000000,80.383396 87.670045,81.311199 88.488990,81.990862 C 89.307934,82.670525 89.731376,83.625626 89.429973,84.113307 C 89.128569,84.600988 89.383419,85.000000 89.996307,85.000000 C 91.905718,85.000000 96.283765,95.831174 95.651727,98.991363 C 95.303998,100.730008 95.589028,102.243961 96.389100,102.907961 C 97.460740,103.797343 97.452279,105.284065 96.341651,111.245180 C 95.598237,115.235331 94.455380,119.815402 93.801968,121.423116 C 92.055236,125.720929 80.911257,136.736138 77.451914,137.584243 C 75.828361,137.982279 74.275000,138.585316 74.000000,138.924326 C 73.725000,139.263337 72.241326,140.094049 70.702947,140.770354 C 67.575427,142.145281 48.416123,142.482317 47.609147,141.176604" fill="none" stroke="black" stroke-width="5"/>
</svg>
