<?xml version="1.0" encoding="utf-8" ?>
<svg xmlns="http://www.w3.org/2000/svg" xmlns:ev="http://www.w3.org/2001/xml-events" xmlns:xlink="http://www.w3.org/1999/xlink" baseProfile="full" height="220" version="1.1" width="265">
  <defs/>
  <path d="M 86.500000,152.549058 C 79.025541,150.209769 78.000000,149.767496 78.000000,148.883369 C 78.000000,148.397516 77.188101,148.000000 76.195781,148.000000 C 73.612755,148.000000 65.383968,142.554620 60.590651,137.673342 C 55.847273,132.842921 51.052961,124.378580 49.759599,118.551159 C 46.718072,104.847136 46.571583,102.211954 47.838915,84.000000 L 48.500000,74.500000 L 51.500000,74.500000 C 54.086827,74.500000 54.472372,74.844311 54.299400,77.000000 C 53.460581,87.453876 53.853150,108.025727 54.955173,111.364557 C 57.073624,117.782887 65.778434,131.226134 70.771254,135.790074 C 80.589238,144.764698 93.726246,148.573784 109.000000,146.874527 C 113.675000,146.354417 117.650000,145.494877 117.833333,144.964436 C 118.016667,144.433996 118.783962,144.000000 119.538433,144.000000 C 120.292905,144.000000 123.954646,142.545752 127.675635,140.768337 C 140.425906,134.677881 150.687764,120.781806 154.466053,104.490145 C 155.339988,100.721808 156.432258,97.157433 156.893318,96.569312 C 157.354379,95.981190 157.970426,94.375000 158.262313,93.000000 C 159.382704,87.722146 162.710828,80.065594 165.494470,76.361983 C 171.157742,68.827050 173.611250,67.446711 187.112844,64.199523 C 197.552710,61.688694 237.094363,60.003498 239.462037,61.968493 C 243.329919,65.178550 236.268369,68.277227 227.078510,67.402506 C 221.926117,66.912084 198.817085,68.255178 189.500000,69.586563 C 187.300000,69.900937 183.475000,71.055480 181.000000,72.152214 C 176.476135,74.156852 170.000000,80.389753 170.000000,82.739071 C 170.000000,83.432582 169.550000,84.000000 169.000000,84.000000 C 168.450000,84.000000 168.000000,84.900000 168.000000,86.000000 C 168.000000,87.100000 167.550000,88.000000 167.000000,88.000000 C 166.450000,88.000000 166.000000,88.625858 166.000000,89.390796 C 166.000000,90.155734 165.109883,92.743234 164.021962,95.140796 C 162.934041,97.538358 162.034041,101.022791 162.021962,102.883980 C 161.975264,110.079422 157.750645,119.837178 150.500000,129.496679 C 145.413363,136.273232 143.643342,138.115909 139.500000,140.948212 C 133.868896,144.797518 124.260322,149.926989 123.710605,149.377272 C 123.457075,149.123741 121.505972,149.545658 119.374820,150.314864 C 117.243669,151.084070 113.925000,152.182054 112.000000,152.754828 C 107.163219,154.193989 91.348091,154.066370 86.500000,152.549058" fill="black" stroke="black" stroke-width="1"/>
</svg>
