<?xml version="1.0" encoding="utf-8" ?>
<svg baseProfile="full" height="217" version="1.1" width="257" xmlns="http://www.w3.org/2000/svg" xmlns:ev="http://www.w3.org/2001/xml-events" xmlns:xlink="http://www.w3.org/1999/xlink"><defs /><rect fill="white" height="217" width="257" x="0" y="0" /><path d="M 189,84 L 172,87 L 176,100 L 191,97 L 191,88 Z" fill="none" stroke="black" stroke-width="5" /><path d="M 46,74 L 27,94 L 28,120 L 48,135 L 69,135 L 88,119 L 89,92 L 71,74 Z" fill="none" stroke="black" stroke-width="5" /><ellipse cx="58.26860427856445" cy="104.52460479736328" fill="none" rx="38.092559814453125" ry="38.70210266113281" stroke="black" stroke-width="5" transform="rotate(91.28334045410156, 58.26860427856445, 104.52460479736328)" /><path d="M 178,62 L 156,75 L 152,99 L 166,119 L 192,123 L 211,107 L 213,82 L 199,66 Z" fill="none" stroke="black" stroke-width="5" /><path d="M 223,22 L 108,40 L 129,172 L 246,153 Z" fill="none" stroke="black" stroke-width="5" /><path d="M 0,0 L 0,216 L 256,216 L 256,0 Z" fill="none" stroke="black" stroke-width="5" /></svg>