<?xml version="1.0" encoding="utf-8" ?>
<svg baseProfile="full" height="216" version="1.1" width="257" xmlns="http://www.w3.org/2000/svg" xmlns:ev="http://www.w3.org/2001/xml-events" xmlns:xlink="http://www.w3.org/1999/xlink"><defs /><rect fill="white" height="216" width="257" x="0" y="0" /><path d="M 60,132 L 61,154 L 80,154 L 80,133 Z" fill="none" stroke="black" stroke-width="1" /><path d="M 55,127 L 86,128 L 84,160 L 55,159 Z" fill="black" stroke="black" stroke-width="1" /><circle cx="122.2272720336914" cy="126.7727279663086" fill="none" r="19.52895164489746" stroke="black" stroke-width="1" /><circle cx="121.82278442382812" cy="126.94303894042969" fill="black" r="25.18868637084961" stroke="black" stroke-width="1" /><path d="M 26,178 L 203,152 L 73,35 Z" fill="none" stroke="black" stroke-width="1" /><path d="M 19,183 L 70,27 L 214,156 Z" fill="none" stroke="black" stroke-width="1" /><path d="M 209,21 L 209,45 L 231,44 L 230,21 Z" fill="none" stroke="black" stroke-width="1" /><path d="M 201,16 L 235,15 L 238,49 L 203,50 Z" fill="black" stroke="black" stroke-width="1" /><path d="M 0,0 L 0,215 L 256,215 L 256,0 Z" fill="none" stroke="black" stroke-width="1" /></svg>