<?xml version="1.0" encoding="utf-8" ?>
<svg xmlns="http://www.w3.org/2000/svg" xmlns:ev="http://www.w3.org/2001/xml-events" xmlns:xlink="http://www.w3.org/1999/xlink" baseProfile="full" height="220" version="1.1" width="260">
  <defs/>
  <path d="M 107.549510,185.406652 C 105.652710,183.509853 105.740462,176.272061 107.887854,157.500000 C 110.235631,136.976209 111.942683,129.508391 115.109526,125.907453 C 116.274004,124.583354 118.408266,121.925000 119.852330,120.000000 C 122.635087,116.290466 122.922993,116.022406 131.666717,109.000000 C 142.636980,100.189378 153.453150,88.423056 155.288155,83.303522 C 157.916709,75.970046 157.523655,69.024656 154.066035,61.708299 C 151.235531,55.718926 145.709882,50.000000 142.753429,50.000000 C 142.009043,50.000000 140.972500,49.612176 140.450000,49.138170 C 137.800237,46.734332 129.236591,45.749610 108.852620,45.504830 C 96.946560,45.361857 86.709060,44.938223 86.102620,44.563422 C 85.496179,44.188621 85.000000,42.558524 85.000000,40.940983 L 85.000000,38.000000 L 98.750000,38.043589 C 131.739207,38.148168 144.770535,41.155950 154.216451,50.845892 C 156.711748,53.405651 159.738722,57.525000 160.943062,60.000000 C 163.394086,65.037023 164.914044,78.147867 163.287869,80.225823 C 162.739436,80.926620 161.662807,83.733227 160.895359,86.462726 C 159.744927,90.554346 157.989742,92.923997 150.895995,99.962726 C 146.163792,104.658227 139.413792,110.916330 135.895995,113.869622 C 128.429831,120.137681 120.537286,129.126531 119.209474,132.873963 C 116.595234,140.252034 115.966795,143.214689 115.810117,148.899584 C 115.716054,152.312573 115.270297,155.332947 114.819546,155.611526 C 114.368796,155.890106 114.000000,160.291476 114.000000,165.392350 C 114.000000,170.493224 113.682766,174.983901 113.295035,175.371631 C 112.907305,175.759362 112.545127,177.867968 112.490196,180.057423 C 112.435266,182.246877 111.691785,184.736786 110.838018,185.590553 C 109.434946,186.993625 109.118803,186.975946 107.549510,185.406652" fill="black" stroke="black" stroke-width="1"/>
</svg>
