<?xml version="1.0" encoding="utf-8" ?>
<svg xmlns="http://www.w3.org/2000/svg" xmlns:ev="http://www.w3.org/2001/xml-events" xmlns:xlink="http://www.w3.org/1999/xlink" baseProfile="full" height="220" version="1.1" width="264">
  <defs/>
  <path d="M 20.345077,197.456872 C 20.019392,196.608151 19.921015,195.725114 20.126461,195.494567 C 20.331908,195.264020 27.992270,187.491629 37.149490,178.222588 C 55.970930,159.171312 63.879063,148.464500 64.183185,141.621695 C 64.449805,135.622699 64.223165,132.928690 63.121354,129.000000 C 62.581483,127.075000 61.582397,122.217657 60.901162,118.205905 C 59.817691,111.825402 59.876327,110.233646 61.369310,105.497359 C 66.216210,90.121223 81.822059,89.375902 107.500000,103.294201 C 122.456630,111.401192 131.713963,113.755788 137.315741,110.877814 C 140.821999,109.076436 145.015479,104.759836 146.697241,101.220874 C 149.127394,96.107058 147.902511,90.470044 141.760157,78.500000 C 136.373753,68.003130 134.000000,62.859309 134.000000,61.684070 C 134.000000,60.977831 133.625860,59.972500 133.168578,59.450000 C 130.311931,56.185934 128.407089,40.016756 130.121668,33.586422 C 131.450312,28.603497 136.778539,23.405993 141.999313,22.000185 C 144.265995,21.389831 148.804909,21.175242 152.279059,21.514183 C 158.384999,22.109883 170.814156,25.258969 174.236431,27.077363 C 175.191468,27.584814 176.460389,28.000000 177.056256,28.000000 C 177.652122,28.000000 180.101807,29.350000 182.500000,31.000000 C 184.898193,32.650000 187.141463,34.000000 187.485045,34.000000 C 187.828626,34.000000 190.760356,35.800000 194.000000,38.000000 C 197.239644,40.200000 200.364952,42.000000 200.945131,42.000000 C 201.525309,42.000000 202.000000,42.450000 202.000000,43.000000 C 202.000000,43.550000 202.809350,44.000000 203.798555,44.000000 C 204.787760,44.000000 207.470373,45.800000 209.759917,48.000000 C 212.049462,50.200000 214.758961,52.000000 215.781027,52.000000 C 216.803093,52.000000 218.576993,53.012500 219.723026,54.250000 C 222.023835,56.734441 226.101363,60.248224 230.877810,63.862562 C 232.595014,65.161971 234.000000,66.797716 234.000000,67.497552 C 234.000000,68.197387 235.237500,69.580202 236.750000,70.570473 C 238.262500,71.560745 240.322071,73.414927 241.326825,74.690880 C 242.331579,75.966832 243.837786,77.694929 244.673952,78.531095 C 245.510118,79.367261 245.925919,80.750669 245.597953,81.605335 C 244.429784,84.649535 238.882024,82.119337 232.465767,75.616066 C 224.094415,67.131186 219.482872,63.286638 208.973289,56.030872 C 205.412980,53.572852 201.704904,50.832328 200.733121,49.940818 C 199.761337,49.049309 197.736337,47.696410 196.233121,46.934377 C 194.729904,46.172344 190.290763,43.422596 186.368363,40.823827 C 172.661885,31.742662 167.576742,29.732770 153.353917,27.774942 C 144.499934,26.556157 141.516976,27.747946 138.536497,33.694986 C 136.282997,38.191464 135.278398,48.435992 136.987391,49.492207 C 137.544326,49.836412 138.000000,51.415754 138.000000,53.001857 C 138.000000,55.745688 141.554553,63.125578 143.217022,63.833333 C 143.647660,64.016667 144.000000,65.227609 144.000000,66.524316 C 144.000000,67.821024 144.400919,69.129747 144.890930,69.432591 C 146.101138,70.180541 154.000000,86.679660 154.000000,88.459588 C 154.000000,89.241896 154.450000,90.160081 155.000000,90.500000 C 155.550000,90.839919 156.000000,93.089919 156.000000,95.500000 C 156.000000,97.910081 155.550000,100.160081 155.000000,100.500000 C 154.450000,100.839919 154.000000,101.835142 154.000000,102.711608 C 154.000000,104.987920 142.402838,116.000000 140.005584,116.000000 C 138.902513,116.000000 138.000000,116.450000 138.000000,117.000000 C 138.000000,118.776993 125.931185,118.106852 120.066579,116.004217 C 117.004961,114.906536 110.029324,111.756536 104.565164,109.004217 C 99.101005,106.251898 94.038505,104.000000 93.315164,104.000000 C 92.591824,104.000000 92.000000,103.550000 92.000000,103.000000 C 92.000000,102.450000 91.126558,102.000000 90.059017,102.000000 C 88.991476,102.000000 87.875860,101.608155 87.579870,101.129233 C 87.283880,100.650311 84.679738,100.031511 81.792888,99.754121 C 75.617069,99.160703 70.753953,101.049837 69.097258,104.685886 C 67.761949,107.616572 67.679246,113.997938 68.913252,118.883980 C 72.474583,132.985065 73.113481,142.605396 70.846883,148.000000 C 68.840672,152.774873 65.661502,157.985993 64.750000,157.993677 C 64.337500,157.997155 63.999450,158.562500 63.998779,159.250000 C 63.997265,160.799036 61.226092,164.071432 50.442526,175.258179 C 45.799137,180.075178 42.000000,184.462678 42.000000,185.008179 C 42.000000,185.553681 41.324500,186.000000 40.498889,186.000000 C 39.673278,186.000000 37.310778,187.694451 35.248889,189.765448 C 27.120100,197.930141 21.616577,200.770349 20.345077,197.456872" fill="black" stroke="black" stroke-width="1"/>
</svg>
