<?xml version="1.0" encoding="utf-8" ?>
<svg xmlns="http://www.w3.org/2000/svg" xmlns:ev="http://www.w3.org/2001/xml-events" xmlns:xlink="http://www.w3.org/1999/xlink" baseProfile="full" height="215" version="1.1" width="262">
  <defs/>
  <path d="M 150.000000,198.268666 C 148.075000,198.042474 146.072500,197.439490 145.550000,196.928703 C 145.027500,196.417917 143.790000,196.000000 142.800000,196.000000 C 141.810000,196.000000 141.000000,195.550000 141.000000,195.000000 C 141.000000,194.450000 140.396584,194.000000 139.659075,194.000000 C 137.884725,194.000000 130.297521,186.747970 125.558349,180.522192 C 117.619976,170.093670 105.818165,158.520341 101.508373,156.937820 C 99.853768,156.330263 97.825000,155.503202 97.000000,155.099906 C 96.175000,154.696611 92.350000,154.268094 88.500000,154.147645 C 82.475430,153.959164 77.308761,153.190437 62.737760,150.314586 C 61.218528,150.014739 59.729471,149.371292 59.428743,148.884704 C 59.128016,148.398117 58.085674,148.000000 57.112428,148.000000 C 54.680962,148.000000 46.483896,142.431264 41.332264,137.279632 C 29.762011,125.709380 24.169321,101.943709 30.732677,92.237570 C 31.750816,90.731906 33.464975,87.781354 34.541920,85.680787 C 37.265402,80.368667 43.690449,73.896508 50.630465,69.474272 C 53.858709,67.417207 56.725000,65.440943 57.000000,65.082572 C 57.450610,64.495353 63.038070,62.656259 76.000000,58.828786 C 82.405639,56.937292 140.579967,57.203797 144.964825,59.144724 C 148.554473,60.733656 148.889136,62.736056 145.750000,63.842691 C 144.512500,64.278945 129.550000,64.494314 112.500000,64.321288 C 92.260122,64.115891 80.111597,64.385072 77.500000,65.096801 C 65.128063,68.468482 62.352324,69.395542 60.921259,70.633877 C 60.052952,71.385245 58.815452,72.000000 58.171259,72.000000 C 57.527067,72.000000 57.000000,72.398726 57.000000,72.886059 C 57.000000,73.373391 55.464625,74.500700 53.588055,75.391191 C 49.851459,77.164322 41.000000,86.418134 41.000000,88.551450 C 41.000000,89.285778 40.157816,90.476481 39.128480,91.197456 C 38.055364,91.949096 37.026685,94.212972 36.717178,96.504160 C 36.420297,98.701872 35.770693,102.075000 35.273613,104.000000 C 33.682312,110.162492 36.934856,119.204762 44.802813,130.491753 C 46.333231,132.687218 48.466179,134.940433 49.542696,135.498898 C 50.619213,136.057363 52.750094,137.699348 54.277987,139.147753 C 55.805880,140.596158 58.280880,142.039218 59.777987,142.354553 C 72.656191,145.067086 79.129690,146.093487 89.449316,147.059067 C 106.522589,148.656569 108.522974,149.782021 122.226342,165.500000 C 124.623868,168.250000 128.328545,173.087500 130.458958,176.250000 C 132.589370,179.412500 134.660047,182.000000 135.060462,182.000000 C 135.460877,182.000000 137.175087,183.295276 138.869817,184.878391 C 146.913445,192.392264 161.302081,194.768348 169.808485,189.987481 C 174.154270,187.545013 179.000000,181.342004 179.000000,178.221440 C 179.000000,177.219648 179.518473,175.881527 180.152161,175.247839 C 181.625911,173.774089 181.547341,140.771867 180.051850,133.113510 C 179.473333,130.150941 178.985742,124.975941 178.968316,121.613510 C 178.950890,118.251080 178.270517,110.775000 177.456377,105.000000 C 173.632969,77.879147 173.678550,75.000000 177.931315,75.000000 C 182.165088,75.000000 182.984998,77.031616 183.177791,88.000000 C 183.279300,93.775000 183.590621,98.931735 183.869617,99.459412 C 184.333458,100.336696 185.128965,111.730454 185.059382,116.500000 C 185.043334,117.600000 185.462124,119.625000 185.990025,121.000000 C 187.886289,125.939107 189.613278,174.000000 187.894493,174.000000 C 187.402522,174.000000 187.000000,175.080317 187.000000,176.400703 C 187.000000,179.523241 183.075660,187.947683 180.431290,190.501853 C 175.382214,195.378706 173.723458,196.307755 167.794562,197.579530 C 161.613454,198.905405 156.954468,199.085835 150.000000,198.268666" fill="black" stroke="black" stroke-width="1"/>
</svg>
