<?xml version="1.0" encoding="utf-8" ?>
<svg xmlns="http://www.w3.org/2000/svg" xmlns:ev="http://www.w3.org/2001/xml-events" xmlns:xlink="http://www.w3.org/1999/xlink" baseProfile="full" height="214" version="1.1" width="254">
  <defs/>
  <path d="M 120.000000,200.831529 C 118.075000,200.288077 116.072500,199.428662 115.550000,198.921717 C 115.027500,198.414773 114.022169,198.000000 113.315930,198.000000 C 111.902379,198.000000 102.859240,193.699392 96.320259,189.917439 C 88.045943,185.131819 62.053137,159.939747 52.025839,146.987551 C 50.115050,144.519398 48.308864,142.275000 48.012092,142.000000 C 47.715319,141.725000 45.459878,139.025000 43.000000,136.000000 C 40.540122,132.975000 38.262534,130.275000 37.938692,130.000000 C 37.614851,129.725000 35.456501,126.690597 33.142358,123.256883 C 26.706797,113.707827 25.000000,108.945761 25.000000,100.539219 C 25.000000,89.456180 27.478037,84.822344 36.445781,79.136041 C 40.792705,76.379726 42.251771,76.000000 48.495781,76.000000 C 52.403101,76.000000 56.027500,76.377876 56.550000,76.839724 C 57.072500,77.301573 59.075000,78.280141 61.000000,79.014320 C 62.925000,79.748499 65.694467,81.170623 67.154370,82.174596 C 68.614274,83.178568 70.526774,84.000000 71.404370,84.000000 C 72.281967,84.000000 73.000000,84.373959 73.000000,84.831020 C 73.000000,85.288081 74.237500,86.294113 75.750000,87.066647 C 79.524514,88.994540 83.646845,91.934943 87.573234,95.500000 C 89.390467,97.150000 92.314469,99.625000 94.071016,101.000000 C 95.827562,102.375000 97.767671,104.094166 98.382368,104.820370 C 98.997066,105.546573 100.336274,106.896573 101.358387,107.820370 C 106.587496,112.546497 110.669881,117.005291 112.146522,119.603206 C 113.052109,121.196443 114.627109,122.901897 115.646522,123.393105 C 116.665935,123.884313 118.486794,125.789301 119.692876,127.626412 L 121.885752,130.966614 L 119.720370,132.483307 C 118.529410,133.317488 116.964283,134.000000 116.242310,134.000000 C 113.748275,134.000000 109.971812,130.742722 108.274628,127.127708 C 107.337900,125.132469 104.034232,121.025000 100.933145,118.000000 C 89.844729,107.183645 82.212547,100.218949 78.882862,97.878166 C 77.022288,96.570175 75.275000,95.245301 75.000000,94.934001 C 73.679646,93.439364 64.948327,87.983541 60.493911,85.869775 C 56.593353,84.018832 53.826107,83.500000 47.854462,83.500000 C 39.509258,83.500000 37.276382,84.631069 34.314512,90.358694 C 32.555300,93.760635 32.258768,103.658768 33.867857,105.267857 C 34.490536,105.890536 35.000000,106.989904 35.000000,107.710898 C 35.000000,108.886455 37.150624,114.195456 40.349660,120.916997 C 40.982347,122.246345 44.086824,126.071345 47.248499,129.416997 C 50.410173,132.762648 52.997673,136.003918 52.998499,136.619817 C 52.999324,137.235716 54.773554,139.185243 56.941231,140.952098 C 59.108909,142.718954 61.021409,145.123835 61.191231,146.296279 C 61.361054,147.468723 63.750000,150.124905 66.500000,152.198907 C 69.250000,154.272909 71.901848,156.866709 72.392997,157.962907 C 72.884145,159.059106 74.121645,160.221221 75.142997,160.545385 C 76.164348,160.869550 77.000000,161.533996 77.000000,162.021933 C 77.000000,162.932241 81.715285,168.000000 82.562279,168.000000 C 82.821533,168.000000 84.942448,169.912500 87.275425,172.250000 C 92.437860,177.422446 95.390761,179.765290 98.577949,181.217470 C 99.910077,181.824428 101.000000,182.668474 101.000000,183.093127 C 101.000000,183.517781 101.897336,184.150028 102.994080,184.498121 C 104.090824,184.846214 105.560362,185.703219 106.259720,186.402577 C 106.959077,187.101934 110.674241,189.182934 114.515639,191.027021 C 120.223775,193.767247 122.687720,194.380850 128.000000,194.385068 C 135.660926,194.391151 140.304423,191.858594 146.704390,184.183720 C 152.725914,176.962676 153.425954,174.351458 153.309661,159.545414 C 153.215862,147.603317 153.414835,146.077124 155.662278,141.500000 C 157.331210,138.101065 159.631820,135.466291 162.846903,133.271806 C 168.501990,129.411874 171.010223,128.562856 181.500000,126.957869 C 188.760233,125.847018 189.829551,125.383399 193.063840,121.944191 C 197.287870,117.452532 199.332674,110.415582 197.813198,105.599833 C 195.475102,98.189593 191.246278,89.378568 188.033500,85.223209 C 184.444121,80.580760 172.811235,68.501648 170.881280,67.413047 C 169.990985,66.910871 165.940985,63.515639 161.881280,59.868087 C 157.821576,56.220535 152.925000,51.952776 151.000000,50.384178 C 149.075000,48.815580 147.275000,47.254807 147.000000,46.915795 C 146.725000,46.576782 145.451902,45.747157 144.170894,45.072184 C 142.889886,44.397211 141.005742,43.129115 139.983907,42.254192 C 137.213494,39.882091 127.731879,36.110912 119.648542,34.166088 C 113.256841,32.628265 110.989787,32.448568 103.450168,32.882126 C 100.327057,33.061718 93.000000,38.209024 93.000000,40.223440 C 93.000000,41.333333 92.249486,42.000000 91.000000,42.000000 C 89.337380,42.000000 88.974561,42.716933 88.849200,46.250000 C 88.616922,52.796287 88.981680,56.227934 90.257572,59.500000 C 92.204843,64.493835 99.520480,73.379163 112.842492,86.930890 C 119.804121,94.012560 126.017309,100.412657 126.649576,101.153327 C 127.281844,101.893997 129.685118,104.285339 131.990186,106.467420 L 136.181219,110.434839 L 133.979826,112.217420 C 132.769059,113.197839 130.792834,114.000000 129.588214,114.000000 C 127.156228,114.000000 120.475794,107.420685 93.700837,78.655833 C 88.495239,73.063359 83.000000,65.669411 83.000000,64.257654 C 83.000000,63.772557 82.100000,61.512873 81.000000,59.236136 C 78.285170,53.617084 78.454025,48.007346 81.514150,42.154967 C 85.064920,35.364248 87.396299,33.182807 94.905847,29.624531 C 100.659512,26.898252 102.519677,26.510126 109.500000,26.579445 C 113.900000,26.623140 119.300000,27.165499 121.500000,27.784688 C 123.700000,28.403876 126.850000,29.196661 128.500000,29.546431 C 132.292779,30.350431 137.738204,32.767388 138.487174,33.979247 C 138.801846,34.488396 142.458366,36.562027 146.612776,38.587316 C 150.767185,40.612604 154.402800,42.886104 154.691920,43.639539 C 154.981040,44.392973 156.631134,45.681684 158.358796,46.503341 C 162.134716,48.299126 164.723769,50.471913 176.599568,61.811383 C 181.604331,66.590122 186.554331,71.212210 187.599568,72.082689 C 190.818196,74.763177 197.000000,81.859046 197.000000,82.873104 C 197.000000,83.401230 197.337500,83.983333 197.750000,84.166667 C 199.119805,84.775469 204.079352,94.879587 205.634275,100.229351 C 207.723884,107.418722 207.369596,114.565593 204.685662,119.365198 C 201.703279,124.698513 196.714919,130.000000 194.678995,130.000000 C 193.755548,130.000000 193.000000,130.414245 193.000000,130.920545 C 193.000000,131.426844 191.537500,132.154106 189.750000,132.536681 C 187.962500,132.919256 184.700000,133.805646 182.500000,134.506437 C 180.300000,135.207227 177.372108,136.036030 175.993574,136.348220 C 172.399461,137.162161 167.124110,141.836400 164.917043,146.162609 C 163.307945,149.316702 163.104930,151.294215 163.579571,159.190568 C 164.242276,170.215639 162.984825,176.798234 159.250568,181.852346 C 154.841141,187.820264 144.788758,196.770963 140.500000,198.547960 C 138.300000,199.459504 135.718606,200.609117 134.763569,201.102656 C 132.536848,202.253370 124.514548,202.106043 120.000000,200.831529" fill="black" stroke="black" stroke-width="1"/>
</svg>
