<?xml version="1.0" encoding="utf-8" ?>
<svg xmlns="http://www.w3.org/2000/svg" xmlns:ev="http://www.w3.org/2001/xml-events" xmlns:xlink="http://www.w3.org/1999/xlink" baseProfile="full" height="217" version="1.1" width="260">
  <defs/>
  <path d="M 44.371152,142.750000 C 45.174847,106.627322 47.951943,82.656510 52.941094,68.777586 C 60.656253,47.315400 69.848313,38.796450 85.488149,38.613862 C 94.326705,38.510675 98.665354,40.497375 105.805208,47.917194 C 111.370367,53.700571 113.408087,57.250152 114.409131,62.904692 C 114.740641,64.777273 115.492106,66.888025 116.079052,67.595251 C 117.514192,69.324490 120.000000,68.245302 120.000000,65.893011 C 120.000000,64.851855 120.337500,63.994837 120.750000,63.988527 C 121.162500,63.982217 122.374964,62.151240 123.444364,59.919690 C 124.513764,57.688140 126.170788,55.443781 127.126639,54.932225 C 128.082491,54.420669 129.120210,53.196614 129.432681,52.212103 C 129.745153,51.227592 132.475629,48.922186 135.500406,47.088980 C 138.525183,45.255773 141.000000,43.459462 141.000000,43.097176 C 141.000000,41.693844 147.836496,39.848877 155.038201,39.308683 C 161.546797,38.820478 163.171952,39.047076 166.936699,40.967706 C 173.773517,44.455591 178.589140,49.977113 182.663654,59.000000 C 183.532936,60.925000 184.698410,63.376156 185.253595,64.447013 C 186.594854,67.034075 186.479260,105.449309 185.074396,124.000000 C 183.252289,148.060219 181.752144,161.431029 180.726819,162.750000 C 178.073107,166.163718 173.801375,162.494621 174.686149,157.561517 C 177.532580,141.691095 179.548755,93.039829 178.128331,74.500000 C 177.291230,63.573886 175.672790,59.060324 170.637336,53.608842 C 162.826741,45.152937 155.437087,44.001282 144.274795,49.500319 C 137.456511,52.859306 136.009225,54.219704 127.705049,65.075295 C 125.477131,67.987729 124.000000,70.961664 124.000000,72.534737 C 124.000000,73.393769 123.100000,75.959398 122.000000,78.236136 C 120.900000,80.512873 119.998185,83.303636 119.995967,84.437829 C 119.988038,88.491644 116.465429,96.479268 114.520399,96.853846 C 110.947078,97.542005 110.000000,94.351294 110.000000,81.624595 C 110.000000,69.027646 110.037095,69.177667 103.702683,56.156943 C 100.854194,50.301721 91.401629,44.000000 85.467298,44.000000 C 79.378255,44.000000 73.740301,46.488134 69.872375,50.882329 C 67.742569,53.301917 66.000000,55.877257 66.000000,56.605307 C 66.000000,57.333357 64.842772,60.001827 63.428382,62.535240 C 59.647750,69.306998 51.902605,101.415361 53.446988,103.914225 C 53.759014,104.419094 53.581884,105.969529 53.053366,107.359637 C 52.524848,108.749745 51.881860,121.050007 51.624503,134.693553 C 51.061708,164.529696 50.835217,166.000000 46.801931,166.000000 L 43.853862,166.000000 L 44.371152,142.750000" fill="black" stroke="black" stroke-width="1"/>
</svg>
