<?xml version="1.0" encoding="utf-8" ?>
<svg xmlns="http://www.w3.org/2000/svg" xmlns:ev="http://www.w3.org/2001/xml-events" xmlns:xlink="http://www.w3.org/1999/xlink" baseProfile="full" height="217" version="1.1" width="265">
  <defs/>
  <path d="M 124.500000,201.970030 C 120.650000,201.525035 113.450000,200.905494 108.500000,200.593272 C 89.141550,199.372236 85.104695,198.317050 69.350757,190.360118 C 56.464470,183.851567 53.569592,181.663368 42.750000,170.252968 C 39.587500,166.917779 37.000000,163.690359 37.000000,163.080925 C 37.000000,162.471490 36.582849,161.191468 36.072998,160.236431 C 30.841859,150.437627 27.644175,130.708364 29.958855,122.513034 C 31.114844,118.420157 33.057243,113.899772 34.046585,113.000000 C 34.348961,112.725000 35.594201,111.070671 36.813786,109.323713 C 39.206619,105.896169 48.001297,99.000000 49.979607,99.000000 C 50.646015,99.000000 52.385726,98.196094 53.845630,97.213541 C 62.284890,91.533705 85.114099,88.463219 112.000000,89.391885 C 122.175000,89.743340 132.300000,90.231687 134.500000,90.477101 C 136.700000,90.722514 141.754508,91.008798 145.732239,91.113287 C 151.143629,91.255437 153.358544,91.738705 154.529665,93.032780 C 155.952257,94.604726 155.941447,94.915696 154.411012,96.446131 C 153.046034,97.811109 151.569468,98.014890 146.613586,97.522254 C 131.255418,95.995585 124.301185,95.652054 107.500000,95.590086 C 88.760950,95.520972 72.311012,96.687754 71.407219,98.150123 C 71.118330,98.617555 69.873524,99.000000 68.640983,99.000000 C 67.408442,99.000000 65.972500,99.379428 65.450000,99.843173 C 64.927500,100.306918 61.944765,101.463652 58.821700,102.413693 C 55.698634,103.363734 52.098634,105.048945 50.821700,106.158607 C 49.544765,107.268270 47.350257,108.856720 45.945016,109.688496 C 44.539775,110.520273 42.356907,113.293133 41.094198,115.850409 C 39.831488,118.407684 38.393731,121.281394 37.899181,122.236431 C 35.403486,127.055930 37.616414,144.440828 41.764796,152.604941 C 42.294404,153.647224 43.917665,157.027232 45.372042,160.116072 C 46.826419,163.204911 49.206220,166.579911 50.660489,167.616072 C 52.114758,168.652232 54.159027,170.400000 55.203309,171.500000 C 60.978367,177.583190 62.456404,178.762068 65.815813,179.964507 C 67.842116,180.689784 71.381079,182.569475 73.680175,184.141597 C 75.979272,185.713718 78.476772,187.000000 79.230175,187.000000 C 79.983579,187.000000 81.050272,187.450272 81.600605,188.000605 C 82.734932,189.134932 104.389520,193.907690 108.686875,193.970527 C 168.518756,194.845402 171.823132,194.823353 179.080580,193.500811 C 183.249899,192.741025 188.649899,191.327585 191.080580,190.359833 C 199.461790,187.022934 213.000000,178.763680 213.000000,176.987455 C 213.000000,176.444355 213.847751,175.152249 214.883890,174.116110 C 215.920030,173.079970 218.617846,169.507878 220.879037,166.178126 C 223.140228,162.848375 225.442477,159.844568 225.995146,159.503000 C 226.547816,159.161431 227.000000,158.096625 227.000000,157.136764 C 227.000000,156.176902 228.350000,153.262832 230.000000,150.661052 C 231.650000,148.059272 233.000000,145.265065 233.000000,144.451703 C 233.000000,143.638341 233.397498,142.191468 233.883329,141.236431 C 241.868775,125.538788 241.442216,104.203195 232.778996,86.000000 C 230.554082,81.325000 228.343615,77.350000 227.866849,77.166667 C 227.390082,76.983333 227.000000,76.396142 227.000000,75.861797 C 227.000000,74.697786 219.382076,63.329736 218.274985,62.841662 C 217.848743,62.653748 215.048134,59.575000 212.051409,56.000000 C 205.328828,47.980169 201.529206,44.203796 197.000000,41.040689 C 195.075000,39.696308 193.275000,38.327998 193.000000,38.000000 C 191.029530,35.649784 173.649211,26.244479 167.500000,24.200755 C 159.364526,21.496886 149.927433,20.649516 141.075543,21.828065 C 136.234324,22.472629 130.946352,23.000000 129.324493,23.000000 C 125.799457,23.000000 119.024814,26.118558 115.754268,29.246754 C 110.842819,33.944434 109.000000,38.625078 109.000000,46.402173 C 109.000000,52.192534 109.375765,54.030088 110.828741,55.345012 C 111.834548,56.255256 113.184548,57.000000 113.828741,57.000000 C 114.472933,57.000000 115.000000,57.347668 115.000000,57.772596 C 115.000000,58.197524 116.462500,59.325168 118.250000,60.278471 C 120.950449,61.718666 123.093919,61.908985 130.926312,61.404004 C 140.311222,60.798926 143.743072,61.331943 152.000000,64.677054 C 153.925000,65.456925 156.175000,66.519612 157.000000,67.038580 C 157.825000,67.557548 160.750000,69.172489 163.500000,70.627336 C 166.250000,72.082184 169.442244,74.283576 170.593875,75.519317 C 171.745506,76.755059 173.658006,78.074068 174.843875,78.450448 C 176.029744,78.826828 177.000000,79.524126 177.000000,80.000000 C 177.000000,80.475874 177.900000,81.150874 179.000000,81.500000 C 180.100000,81.849126 181.000000,82.800381 181.000000,83.613898 C 181.000000,84.427415 182.247240,85.808838 183.771646,86.683727 C 187.639995,88.903855 193.000000,96.998223 193.000000,100.619853 C 193.000000,102.258934 193.562500,104.162570 194.250000,104.850155 C 195.823079,106.423429 195.630322,126.070901 193.969673,133.423422 C 191.991332,142.182530 188.027080,149.117204 180.913048,156.263404 C 174.191489,163.015356 172.242969,164.167927 160.004332,168.631144 C 152.757151,171.274064 148.796092,171.513236 139.115297,169.892444 C 129.004125,168.199596 119.000000,162.465869 119.000000,158.363636 C 119.000000,157.613636 118.662500,156.996489 118.250000,156.992198 C 117.248364,156.981778 115.000000,152.047452 115.000000,149.859652 C 115.000000,148.901762 114.550000,147.839919 114.000000,147.500000 C 113.450000,147.160081 112.998190,144.996024 112.995979,142.690983 C 112.993767,140.385942 112.289776,134.225000 111.431554,129.000000 C 110.496226,123.305565 110.126076,117.396925 110.507532,114.250000 C 111.127709,109.133674 111.226014,109.000000 114.368424,109.000000 C 117.557909,109.000000 117.611791,109.081051 119.328888,116.461655 C 120.748945,122.565491 120.836033,124.289691 119.807461,125.936695 C 118.881134,127.419981 118.844280,128.244280 119.667485,129.067485 C 120.297579,129.697579 120.565838,131.818032 120.282604,133.929697 C 119.964210,136.303499 120.369696,138.814233 121.390160,140.787593 C 122.275572,142.499791 123.010512,144.935527 123.023359,146.200340 C 123.036207,147.465153 124.273707,150.734438 125.773359,153.465417 C 127.995351,157.511831 129.138740,158.560284 131.951145,159.130256 C 133.849274,159.514938 135.947966,160.575936 136.614904,161.488028 C 137.632081,162.879101 139.251660,163.075287 146.663760,162.705289 C 151.523692,162.462690 157.396354,161.818131 159.714120,161.272936 C 163.758335,160.321636 177.000000,152.506631 177.000000,151.071103 C 177.000000,150.689414 177.852159,149.462438 178.893687,148.344489 C 181.228556,145.838301 183.428170,141.648020 185.726578,135.327784 C 187.066876,131.642188 187.478921,127.424376 187.468203,117.500000 C 187.451942,102.443796 186.606978,99.296499 180.890613,93.000000 C 178.643649,90.525000 176.286549,87.796950 175.652612,86.937666 C 175.018676,86.078382 172.925000,84.278382 171.000000,82.937666 C 169.075000,81.596950 167.275000,80.275000 167.000000,80.000000 C 165.490087,78.490087 154.728228,73.101522 146.733303,69.852272 C 142.478765,68.123168 139.239399,67.702626 129.412918,67.603701 C 118.686930,67.495721 116.789362,67.206100 112.561716,65.031742 C 105.798789,61.553440 101.508436,56.156864 100.157276,49.428942 C 99.080227,44.065919 99.155637,43.686600 102.774135,36.265822 C 105.943584,29.765948 107.434585,27.938417 112.758157,24.028334 C 119.670859,18.951060 123.840766,17.514518 135.000000,16.365970 C 148.826744,14.942874 161.305988,15.768145 167.500000,18.515245 C 169.150000,19.247035 171.741752,20.155324 173.259448,20.533665 C 174.777145,20.912007 176.266203,21.621708 176.568465,22.110779 C 176.870728,22.599851 178.027716,23.000000 179.139549,23.000000 C 181.484114,23.000000 191.938212,29.675409 192.699165,31.658421 C 192.982312,32.396289 194.178333,33.004799 195.356989,33.010665 C 197.257704,33.020124 200.208737,35.282555 210.290732,44.459726 C 211.825634,45.856877 213.513134,47.000000 214.040732,47.000000 C 214.568329,47.000000 215.000000,47.869358 215.000000,48.931906 C 215.000000,49.994454 216.350000,51.825096 218.000000,53.000000 C 219.650000,54.174904 221.000000,55.791684 221.000000,56.592845 C 221.000000,57.394006 222.103447,58.469031 223.452104,58.981790 C 224.800761,59.494548 226.648602,61.353578 227.558417,63.112967 C 228.468232,64.872355 230.064786,67.226540 231.106313,68.344489 C 232.147841,69.462438 233.000000,70.967270 233.000000,71.688561 C 233.000000,72.409853 233.450000,73.000000 234.000000,73.000000 C 234.550000,73.000000 235.000000,73.844900 235.000000,74.877555 C 235.000000,75.910211 235.713463,77.347232 236.585473,78.070936 C 237.457483,78.794640 238.856343,81.099740 239.694052,83.193381 C 240.531761,85.287021 241.565839,87.000000 241.992003,87.000000 C 242.804961,87.000000 243.379389,88.941344 245.246814,98.000000 C 246.486963,104.015815 246.792116,125.416990 245.717351,131.000000 C 243.783081,141.047827 231.810949,165.963215 226.000000,172.034085 C 225.175000,172.895986 223.506646,174.928413 222.292546,176.550589 C 221.078446,178.172765 219.503446,180.243951 218.792546,181.153225 C 216.999263,183.446915 203.733903,192.124982 196.500000,195.736787 C 189.137652,199.412724 180.289352,200.733618 158.000000,201.484155 C 148.925000,201.789732 139.250000,202.206106 136.500000,202.409430 C 133.750000,202.612755 128.350000,202.415024 124.500000,201.970030" fill="black" stroke="black" stroke-width="1"/>
</svg>
