<?xml version="1.0" encoding="utf-8" ?>
<svg xmlns="http://www.w3.org/2000/svg" xmlns:ev="http://www.w3.org/2001/xml-events" xmlns:xlink="http://www.w3.org/1999/xlink" baseProfile="full" height="219" version="1.1" width="260">
  <defs/>
  <path d="M 36.935195,215.721840 C 36.899552,215.599828 36.690871,209.200000 36.471459,201.500000 C 35.716797,175.016009 34.645872,149.508683 33.443746,129.385862 L 32.899273,120.271723 L 37.126989,119.595684 C 39.452233,119.223863 47.462397,118.702096 54.927353,118.436202 C 62.392309,118.170308 71.318709,117.429597 74.763799,116.790178 C 79.647849,115.883683 81.297259,115.897259 82.251809,116.851809 C 83.021112,117.621112 83.566503,121.870728 83.719517,128.288011 C 83.853440,133.904605 84.218308,141.200000 84.530334,144.500000 C 84.842360,147.800000 85.517516,159.275000 86.030681,170.000000 C 86.543846,180.725000 87.255753,194.942297 87.612698,201.593993 L 88.261687,213.687987 L 80.880844,214.382630 C 73.745726,215.054147 37.066673,216.171913 36.935195,215.721840" fill="none" stroke="black" stroke-width="5"/>
  <path d="M 129.236909,176.750000 C 128.376581,175.683103 126.686468,144.767009 126.817862,132.500000 C 126.841426,130.300000 126.861653,124.337500 126.862809,119.250000 C 126.864788,110.547166 126.988017,110.000000 128.946025,110.000000 C 130.090637,110.000000 131.808532,110.431128 132.763569,110.958062 C 134.376814,111.848158 150.330168,116.713187 159.500000,119.111428 C 163.272534,120.098081 174.495531,123.324526 180.000000,125.004874 C 181.375000,125.424619 184.300000,126.249889 186.500000,126.838806 C 188.700000,127.427723 193.650000,128.833688 197.500000,129.963173 C 201.350000,131.092657 206.300000,132.506865 208.500000,133.105855 C 210.700000,133.704846 213.281394,134.601070 214.236431,135.097464 C 215.191468,135.593859 216.502759,136.000000 217.150412,136.000000 C 219.832930,136.000000 226.000000,139.489425 226.000000,141.007236 C 226.000000,142.750284 220.158365,146.000000 217.025090,146.000000 C 215.976209,146.000000 214.875841,146.391877 214.579826,146.870838 C 214.283812,147.349799 212.682266,148.013547 211.020835,148.345833 C 209.359404,148.678119 206.087540,149.819432 203.750026,150.882084 C 199.528680,152.801139 194.382775,154.742298 180.000000,159.841161 C 175.875000,161.303523 172.350000,162.837500 172.166667,163.250000 C 171.983333,163.662500 170.759521,164.000000 169.447083,164.000000 C 168.134645,164.000000 165.458458,164.900000 163.500000,166.000000 C 161.541542,167.100000 159.359845,168.000000 158.651783,168.000000 C 157.943722,168.000000 151.800420,170.250000 145.000000,173.000000 C 131.601329,178.418246 130.746201,178.621678 129.236909,176.750000" fill="none" stroke="black" stroke-width="5"/>
  <path d="M 144.500000,82.856979 C 136.809215,81.056727 126.488865,77.537258 125.169380,76.264807 C 124.437539,75.559053 123.405327,75.249494 122.875575,75.576899 C 122.345824,75.904303 121.369602,75.745489 120.706195,75.223977 C 120.042788,74.702466 118.293967,73.988050 116.819927,73.636386 C 115.345887,73.284722 113.539022,72.435173 112.804672,71.748499 C 112.070321,71.061824 109.757818,69.624924 107.665775,68.555387 C 105.573731,67.485849 103.375729,65.685849 102.781326,64.555387 C 102.186922,63.424924 101.427899,62.275000 101.094607,62.000000 C 100.761315,61.725000 99.257837,59.847973 97.753545,57.828829 C 94.908750,54.010387 94.781659,51.190770 97.168118,44.840661 C 98.190872,42.119225 102.923063,37.345745 106.500000,35.427358 C 110.285905,33.396897 113.501049,31.498951 114.000000,31.000000 C 114.938610,30.061390 124.491225,26.752418 128.500000,25.977282 C 130.700000,25.551890 134.075000,24.687422 136.000000,24.056241 C 140.527792,22.571640 155.948893,20.684209 163.000000,20.751636 C 170.180031,20.820297 182.464810,21.965971 187.446168,23.031477 C 189.616560,23.495721 191.726457,23.669059 192.134828,23.416672 C 192.951030,22.912231 210.145088,28.172762 216.500000,30.871209 C 226.361059,35.058449 234.977306,40.159389 237.009231,43.012963 C 240.563012,48.003789 240.669529,52.775376 237.335232,57.616660 C 230.905557,66.952326 229.011810,68.429304 215.072787,74.979663 C 211.537819,76.640848 207.600319,78.000000 206.322787,78.000000 C 205.045254,78.000000 204.000000,78.450000 204.000000,79.000000 C 204.000000,79.550000 202.418894,80.000000 200.486431,80.000000 C 198.553968,80.000000 196.191468,80.404733 195.236431,80.899407 C 189.984058,83.619942 153.734435,85.018567 144.500000,82.856979" fill="none" stroke="black" stroke-width="5"/>
</svg>
