<?xml version="1.0" encoding="utf-8" ?>
<svg xmlns="http://www.w3.org/2000/svg" xmlns:ev="http://www.w3.org/2001/xml-events" xmlns:xlink="http://www.w3.org/1999/xlink" baseProfile="full" height="219" version="1.1" width="260">
  <defs/>
  <path d="M 114.500000,168.970825 C 102.774931,167.378391 93.337534,165.161116 87.984518,162.741128 C 86.068033,161.874725 82.700000,160.582440 80.500000,159.869383 C 78.300000,159.156327 75.375000,157.865294 74.000000,157.000422 C 72.625000,156.135550 70.262500,154.805603 68.750000,154.044984 C 67.237500,153.284365 66.000000,152.342676 66.000000,151.952341 C 66.000000,151.562006 64.752783,150.726027 63.228407,150.094609 C 61.704031,149.463192 58.534871,146.715339 56.185830,143.988269 C 51.963756,139.086742 51.927968,138.981222 53.060816,134.774147 C 54.159389,130.694359 57.544136,124.872895 59.231735,124.160714 C 59.673924,123.974107 60.598420,123.299107 61.286172,122.660714 C 62.632724,121.410801 64.743749,120.200682 75.333053,114.608510 C 79.091232,112.623829 82.809838,111.000000 83.596622,111.000000 C 84.383406,111.000000 85.808532,110.604423 86.763569,110.120941 C 88.995484,108.991046 99.796099,106.158409 107.500000,104.682475 C 114.334442,103.373114 141.506675,103.198960 150.500000,104.406877 C 163.564277,106.161573 188.063925,116.202830 195.048532,122.665231 C 197.103483,124.566543 199.452616,126.657175 200.268827,127.311081 C 202.392823,129.012714 203.179301,134.620409 201.939637,139.224171 C 200.924087,142.995636 193.282755,152.000000 191.097744,152.000000 C 190.572556,152.000000 189.548214,152.585675 188.821429,153.301500 C 187.065581,155.030868 171.171926,162.700879 168.000000,163.349572 C 166.625000,163.630774 163.700000,164.373467 161.500000,165.000000 C 159.300000,165.626533 156.375000,166.369338 155.000000,166.650679 C 153.625000,166.932019 151.825000,167.413190 151.000000,167.719947 C 147.182693,169.139327 122.075967,169.999750 114.500000,168.970825" fill="none" stroke="black" stroke-width="5"/>
  <path d="M 224.010122,144.816422 C 224.015689,143.542390 223.115542,139.800000 222.009795,136.500000 C 220.904048,133.200000 217.741779,123.525000 214.982531,115.000000 C 212.223282,106.475000 209.574722,98.600000 209.096841,97.500000 C 208.618959,96.400000 207.648427,93.475000 206.940102,91.000000 C 206.231778,88.525000 205.280486,86.072500 204.826120,85.550000 C 204.371754,85.027500 204.000000,83.710120 204.000000,82.622488 C 204.000000,80.693255 198.921066,65.661857 196.803490,61.324003 C 196.219258,60.127204 195.686969,57.427204 195.620625,55.324003 C 195.517736,52.062266 195.794072,51.531011 197.500000,51.710910 C 200.152383,51.990617 204.240231,52.019758 232.000000,51.956854 C 244.925000,51.927566 255.837500,51.925292 256.250000,51.951801 C 257.478193,52.030731 257.092886,55.298274 255.493839,58.364307 C 254.672228,59.939676 254.000000,62.437176 254.000000,63.914307 C 254.000000,65.391438 253.586116,67.027500 253.080258,67.550000 C 251.995755,68.670181 246.964999,85.058994 246.265684,89.750000 C 245.999211,91.537500 245.437934,93.000000 245.018402,93.000000 C 244.598870,93.000000 243.977300,94.687500 243.637134,96.750000 C 243.296969,98.812500 242.339456,101.788938 241.509326,103.364307 C 240.679197,104.939676 240.000000,106.905604 240.000000,107.733036 C 240.000000,109.694949 236.128591,121.784932 234.470516,125.001002 C 233.244814,127.378424 231.694805,133.709614 230.186392,142.500000 C 229.600212,145.916006 229.098504,146.546197 226.750000,146.816422 C 224.448157,147.081279 224.001650,146.755346 224.010122,144.816422" fill="none" stroke="black" stroke-width="5"/>
  <path d="M 84.391487,74.500000 C 84.197465,73.950000 83.793294,64.050000 83.493328,52.500000 C 83.193362,40.950000 82.687383,29.587500 82.368932,27.250000 L 81.789929,23.000000 L 130.835948,23.000000 C 175.809114,23.000000 183.428972,23.380779 180.064638,25.460051 C 179.475772,25.823991 179.259318,32.607150 179.511976,42.779150 C 180.234021,71.848558 180.258101,74.075233 179.854783,74.478550 C 178.906187,75.427147 84.726018,75.448308 84.391487,74.500000" fill="none" stroke="black" stroke-width="5"/>
</svg>
