<?xml version="1.0" encoding="utf-8" ?>
<svg xmlns="http://www.w3.org/2000/svg" xmlns:ev="http://www.w3.org/2001/xml-events" xmlns:xlink="http://www.w3.org/1999/xlink" baseProfile="full" height="223" version="1.1" width="259">
  <defs/>
  <path d="M 212.000000,215.045962 C 211.175000,214.585929 207.125000,212.670405 203.000000,210.789240 C 196.305128,207.736111 192.735844,206.359448 180.000000,201.918203 C 175.067289,200.198067 168.000000,196.790523 168.000000,196.132317 C 168.000000,195.828030 169.326782,192.861278 170.948404,189.539534 C 175.437604,180.343821 178.000000,174.177432 178.000000,172.569915 C 178.000000,171.771381 178.400149,170.870728 178.889221,170.568465 C 179.378292,170.266203 180.087993,168.777145 180.466335,167.259448 C 180.844676,165.741752 181.840409,162.925000 182.679074,161.000000 C 183.517739,159.075000 184.562156,156.600000 185.000000,155.500000 C 185.437844,154.400000 186.484498,151.925000 187.325898,150.000000 C 188.167297,148.075000 190.422212,142.171993 192.336820,136.882206 C 194.251427,131.592419 196.256038,126.417419 196.791509,125.382206 C 198.498833,122.081480 202.000000,112.509683 202.000000,111.142776 C 202.000000,109.281986 209.041906,110.524000 215.870843,113.589240 C 218.824807,114.915158 221.681798,116.000000 222.219714,116.000000 C 222.757629,116.000000 224.615750,116.626264 226.348871,117.391698 C 228.081992,118.157132 232.650000,119.994987 236.500000,121.475820 C 248.914302,126.250756 250.000000,126.935604 250.000000,129.991497 C 250.000000,131.511484 249.328230,133.312630 248.507177,133.994044 C 247.686124,134.675457 246.549233,136.960306 245.980751,139.071486 C 245.412269,141.182666 244.284039,143.573103 243.473574,144.383569 C 242.663108,145.194035 242.000000,146.986569 242.000000,148.366978 C 242.000000,149.747388 240.650000,153.336694 239.000000,156.343215 C 237.350000,159.349735 236.000000,162.476014 236.000000,163.290501 C 236.000000,164.104988 235.327772,166.060324 234.506161,167.635693 C 233.684549,169.211062 233.009549,171.201492 233.006161,172.058870 C 233.002772,172.916249 232.339312,174.491249 231.531803,175.558870 C 230.724295,176.626492 230.049295,178.293606 230.031803,179.263569 C 230.014312,180.233532 229.586771,181.808532 229.081714,182.763569 C 227.180597,186.358480 224.000000,194.017149 224.000000,195.000000 C 224.000000,197.198083 215.247659,216.017462 214.260865,215.941193 C 213.842389,215.908849 212.825000,215.505995 212.000000,215.045962" fill="none" stroke="black" stroke-width="5"/>
  <path d="M 44.736107,200.250000 C 44.526048,199.837500 43.773198,197.475000 43.063108,195.000000 C 42.353017,192.525000 41.410422,189.600000 40.968452,188.500000 C 39.206813,184.115541 38.000000,179.582865 38.000000,177.350777 C 38.000000,176.057850 37.550000,175.000000 37.000000,175.000000 C 36.450000,175.000000 36.000000,174.340267 36.000000,173.533927 C 36.000000,172.727587 35.379428,170.590087 34.620952,168.783927 C 33.862475,166.977767 31.543869,160.100000 29.468494,153.500000 C 27.393119,146.900000 25.146597,140.150000 24.476223,138.500000 C 22.577479,133.826594 18.000000,119.011816 18.000000,117.540034 C 18.000000,116.813139 17.109883,114.256766 16.021962,111.859204 C 14.934041,109.461642 14.034041,106.037500 14.021962,104.250000 C 14.000036,101.005266 14.008506,100.999845 19.250000,100.904264 C 23.880316,100.819828 50.006850,100.849421 69.250000,100.960897 L 76.000000,101.000000 L 76.000000,104.064619 C 76.000000,105.750159 75.158098,109.237659 74.129107,111.814619 C 71.952578,117.265421 68.116280,129.809820 64.821432,142.250000 C 64.129498,144.862500 63.211611,147.000000 62.781685,147.000000 C 62.351758,147.000000 61.985309,148.237500 61.967354,149.750000 C 61.949399,151.262500 61.064090,154.975000 60.000000,158.000000 C 58.935910,161.025000 58.050601,164.518606 58.032646,165.763569 C 58.014691,167.008532 57.562789,168.808532 57.028420,169.763569 C 56.494051,170.718606 55.130245,174.875000 53.997740,179.000000 C 49.769556,194.400600 47.466074,200.990130 46.309017,200.994994 C 45.653976,200.997747 44.946167,200.662500 44.736107,200.250000" fill="none" stroke="black" stroke-width="5"/>
  <path d="M 146.000000,108.887784 C 127.486822,104.468057 124.644243,103.496646 109.398916,96.379885 C 104.126838,93.918795 90.000000,83.332585 90.000000,81.842944 C 90.000000,81.379325 89.247862,81.000000 88.328583,81.000000 C 86.594697,81.000000 80.513276,75.094016 75.765131,68.798978 C 74.260953,66.804755 72.447010,64.571667 71.734148,63.836559 C 69.461796,61.493299 66.000000,54.952217 66.000000,53.001857 C 66.000000,51.965754 65.501524,50.809959 64.892275,50.433422 C 62.927914,49.219380 64.865468,42.030958 68.277883,37.872649 C 70.050047,35.713121 73.075000,33.245501 75.000000,32.389050 C 76.925000,31.532598 79.281394,30.419696 80.236431,29.915933 C 82.370126,28.790451 102.656492,28.837245 109.500000,29.983434 C 116.618866,31.175741 130.325982,34.979412 131.450000,36.074474 C 131.972500,36.583513 133.216106,37.000000 134.213569,37.000000 C 135.211032,37.000000 136.808532,37.414709 137.763569,37.921575 C 138.718606,38.428442 142.875000,40.448109 147.000000,42.409726 C 161.651625,49.377210 167.241142,53.227474 179.500000,64.796921 C 190.350610,75.037316 196.137335,82.849164 198.546724,90.509238 C 200.106822,95.469197 200.087777,95.835059 198.043051,100.185028 C 194.541959,107.633279 187.734269,110.019124 168.500000,110.538781 C 156.961033,110.850533 153.005801,110.560307 146.000000,108.887784" fill="none" stroke="black" stroke-width="5"/>
</svg>
