<?xml version="1.0" encoding="utf-8" ?>
<svg xmlns="http://www.w3.org/2000/svg" xmlns:ev="http://www.w3.org/2001/xml-events" xmlns:xlink="http://www.w3.org/1999/xlink" baseProfile="full" height="217" version="1.1" width="260">
  <defs/>
  <path d="M 28.000000,206.265474 C 25.292486,205.224650 20.000000,200.788208 20.000000,199.559450 C 20.000000,198.897706 18.662519,196.588616 17.027820,194.428139 C 15.393121,192.267663 14.043121,189.723376 14.027820,188.774170 C 14.012519,187.824963 13.101682,185.574963 12.003738,183.774170 C 10.905794,181.973376 10.005794,179.514058 10.003738,178.309017 C 10.001682,177.103976 9.603731,175.873126 9.119402,175.573795 C 8.635073,175.274463 7.991382,174.010405 7.688977,172.764778 C 7.386573,171.519150 6.635808,168.700000 6.020611,166.500000 C 2.860369,155.198691 1.962043,139.383956 3.436069,121.000000 C 4.770664,104.355027 13.760588,80.273106 21.636944,72.244080 C 22.314565,71.553324 23.136060,70.146674 23.462488,69.118189 C 23.788916,68.089705 26.180895,66.179869 28.777997,64.874109 C 31.375099,63.568349 33.798538,62.086484 34.163418,61.581076 C 36.133841,58.851771 52.000000,69.116339 52.000000,73.120404 C 52.000000,74.154182 52.388546,75.000000 52.863436,75.000000 C 53.338326,75.000000 54.963278,77.812500 56.474440,81.250000 C 57.985602,84.687500 59.847055,88.806637 60.611003,90.403638 C 61.374952,92.000639 62.006549,94.250639 62.014553,95.403638 C 62.022558,96.556637 62.765043,99.525000 63.664520,102.000000 C 65.181368,106.173757 66.927629,121.783178 67.188496,133.500000 C 67.347718,140.651471 65.913914,151.000000 64.763845,151.000000 C 64.226043,151.000000 64.029210,151.633738 64.326440,152.408306 C 64.913887,153.939167 62.377496,166.422414 60.907242,169.236431 C 60.408259,170.191468 60.000000,171.878968 60.000000,172.986431 C 60.000000,174.093894 59.550000,175.000000 59.000000,175.000000 C 58.450000,175.000000 58.000000,175.900000 58.000000,177.000000 C 58.000000,178.100000 57.550000,179.000000 57.000000,179.000000 C 56.450000,179.000000 56.000000,179.943033 56.000000,181.095630 C 56.000000,182.248226 55.179908,184.385726 54.177574,185.845630 C 53.175240,187.305533 51.602360,190.138542 50.682284,192.141204 C 49.762209,194.143866 48.332300,196.042243 47.504710,196.359819 C 46.677119,196.677395 46.000000,197.547912 46.000000,198.294301 C 46.000000,202.827094 33.479261,208.371815 28.000000,206.265474" fill="none" stroke="black" stroke-width="5"/>
  <path d="M 108.130633,197.250000 C 106.098885,195.549537 106.036988,194.650798 105.944004,165.500000 C 105.891373,149.000000 105.382842,128.147099 104.813936,119.160219 C 103.688569,101.383056 104.034259,99.629459 108.229794,101.832455 C 109.852376,102.684443 116.573107,102.913991 131.788894,102.637121 L 153.077787,102.249744 L 154.383365,104.874872 C 155.694397,107.510965 155.836846,126.836938 154.560467,128.902163 C 154.234267,129.429965 154.344398,130.094816 154.805202,130.379608 C 156.150118,131.210812 156.224328,196.024775 154.882216,197.641921 C 153.995863,198.709911 149.105668,199.000000 131.988339,199.000000 C 112.721294,199.000000 109.981442,198.799028 108.130633,197.250000" fill="none" stroke="black" stroke-width="5"/>
  <path d="M 230.500000,79.379685 C 228.300000,78.536794 223.575000,77.024544 220.000000,76.019131 C 216.425000,75.013717 210.125000,73.070447 206.000000,71.700753 C 196.663465,68.600586 181.862551,63.975631 172.000000,61.076513 C 167.875000,59.863961 163.600000,58.480447 162.500000,58.002037 C 161.400000,57.523627 158.700000,56.588911 156.500000,55.924889 C 154.300000,55.260867 151.825000,54.482351 151.000000,54.194855 C 136.122859,49.010455 135.170255,46.287468 147.000000,42.760985 C 156.378349,39.965271 185.392553,30.828544 187.500000,30.007320 C 188.600000,29.578675 191.525000,28.661794 194.000000,27.969806 C 196.475000,27.277819 200.525000,26.057549 203.000000,25.258096 C 205.475000,24.458643 209.525000,23.210059 212.000000,22.483465 C 214.475000,21.756870 219.650000,20.019955 223.500000,18.623652 C 231.565558,15.698468 233.335930,15.494918 234.849556,17.318726 C 235.557620,18.171891 236.105726,28.363726 236.402094,46.187630 C 236.654045,61.340228 237.166725,75.371801 237.541384,77.368904 C 238.337035,81.610089 237.182228,81.939863 230.500000,79.379685" fill="none" stroke="black" stroke-width="5"/>
</svg>
