<?xml version="1.0" encoding="utf-8" ?>
<svg xmlns="http://www.w3.org/2000/svg" xmlns:ev="http://www.w3.org/2001/xml-events" xmlns:xlink="http://www.w3.org/1999/xlink" baseProfile="full" height="217" version="1.1" width="259">
  <defs/>
  <path d="M 201.071507,208.688079 C 200.585381,207.409469 200.193800,200.994084 200.201327,194.431667 C 200.208854,187.869250 200.150682,167.913453 200.072055,150.085452 C 199.993428,132.257450 200.321689,117.278311 200.801525,116.798475 C 201.844003,115.755997 247.512709,115.189057 248.535266,116.205899 C 249.296211,116.962593 250.168390,206.468178 249.439785,209.030452 C 249.067323,210.340285 245.613433,210.593477 225.479981,210.786864 L 201.955374,211.012823 L 201.071507,208.688079" fill="none" stroke="black" stroke-width="5"/>
  <path d="M 31.478108,155.038997 C 28.605163,153.690369 26.132799,151.201157 22.823597,146.325513 C 16.433506,136.910611 14.000000,132.326881 14.000000,129.705467 C 14.000000,128.476931 13.100000,125.009471 12.000000,122.000000 C 10.900000,118.990529 10.000000,115.374381 10.000000,113.964117 C 10.000000,112.553853 9.578131,110.972500 9.062514,110.450000 C 8.546897,109.927500 7.866238,104.325000 7.549938,98.000000 C 7.233638,91.675000 6.741973,83.800000 6.457349,80.500000 C 6.146404,76.894822 6.513203,72.140254 7.376329,68.587880 C 8.166392,65.336213 8.591567,62.099215 8.321162,61.394550 C 8.050756,60.689885 8.767875,57.470379 9.914758,54.240092 C 11.061641,51.009804 12.000000,47.754994 12.000000,47.007180 C 12.000000,46.259365 14.250000,40.994851 17.000000,35.308259 C 19.750000,29.621667 22.000000,24.726933 22.000000,24.431072 C 22.000000,24.135211 23.237500,22.309826 24.750000,20.374660 C 29.567148,14.211371 37.360212,11.658602 44.669391,13.849680 C 48.002361,14.848807 54.899758,21.733385 55.619600,24.779537 C 55.973183,26.275792 57.011420,28.400000 57.926793,29.500000 C 59.633826,31.551334 60.835037,34.051995 62.850456,39.750000 C 63.482705,41.537500 64.517295,44.462500 65.149544,46.250000 C 65.781794,48.037500 66.653890,50.400000 67.087535,51.500000 C 68.745663,55.706065 69.279853,62.050696 69.318718,78.000000 C 69.365332,97.128949 68.693081,106.836450 67.117960,109.779590 C 66.503082,110.928500 66.000000,112.933101 66.000000,114.234259 C 66.000000,115.535416 65.631033,117.027500 65.180073,117.550000 C 64.729113,118.072500 63.297593,121.875000 61.998919,126.000000 C 60.700245,130.125000 58.912892,134.400000 58.027024,135.500000 C 57.141156,136.600000 55.625000,139.075000 54.657788,141.000000 C 51.179385,147.922913 49.876598,150.000000 49.012822,150.000000 C 48.529896,150.000000 47.880029,150.802635 47.568672,151.783634 C 46.798347,154.210714 41.817586,157.008035 38.345708,156.963484 C 36.780569,156.943401 33.690148,156.077381 31.478108,155.038997" fill="none" stroke="black" stroke-width="5"/>
  <path d="M 183.000000,102.042456 C 179.975000,101.052649 175.475000,99.694316 173.000000,99.023939 C 170.525000,98.353562 167.718606,97.398930 166.763569,96.902536 C 165.808532,96.406141 164.265481,96.000000 163.334567,96.000000 C 162.403653,96.000000 160.260047,95.559458 158.570998,95.021017 C 156.881949,94.482576 152.125000,93.086948 148.000000,91.919621 C 140.675934,89.846996 139.462048,89.439869 133.702947,87.124512 C 132.164568,86.506030 130.020962,86.000000 128.939378,86.000000 C 127.857794,86.000000 126.191468,85.600965 125.236431,85.113255 C 124.281394,84.625545 120.350000,83.243278 116.500000,82.041551 C 112.650000,80.839823 108.718606,79.438859 107.763569,78.928296 C 106.808532,78.417733 104.783532,77.985688 103.263569,77.968197 C 101.743606,77.950705 99.656059,77.297325 98.624575,76.516241 C 95.966553,74.503473 97.265917,72.000000 100.968615,72.000000 C 102.635877,72.000000 104.000000,71.602460 104.000000,71.116577 C 104.000000,70.630695 105.012500,69.992575 106.250000,69.698533 C 109.585544,68.905976 117.248087,66.129305 119.236431,64.992648 C 120.191468,64.446692 121.852411,64.000000 122.927414,64.000000 C 124.002418,64.000000 125.160081,63.550000 125.500000,63.000000 C 125.839919,62.450000 127.234403,62.000000 128.598855,62.000000 C 129.963307,62.000000 132.749249,61.182953 134.789838,60.184341 C 136.830427,59.185728 141.875000,57.339505 146.000000,56.081623 C 150.125000,54.823741 154.281394,53.390788 155.236431,52.897282 C 156.191468,52.403777 157.660074,52.000000 158.500000,52.000000 C 159.339926,52.000000 160.808532,51.585961 161.763569,51.079913 C 164.037461,49.875039 172.796487,46.744142 181.270999,44.107019 C 191.532099,40.913940 193.987391,41.352267 191.532665,45.938965 C 190.703352,47.488550 190.523829,49.339687 191.031271,51.109035 C 191.466029,52.624947 191.877273,64.866495 191.945147,78.312477 C 192.054489,99.973306 191.884361,102.830397 190.452490,103.379858 C 189.563654,103.720936 188.760729,103.964474 188.668213,103.921053 C 188.575696,103.877632 186.025000,103.032263 183.000000,102.042456" fill="none" stroke="black" stroke-width="5"/>
</svg>
