<?xml version="1.0" encoding="utf-8" ?>
<svg xmlns="http://www.w3.org/2000/svg" xmlns:ev="http://www.w3.org/2001/xml-events" xmlns:xlink="http://www.w3.org/1999/xlink" baseProfile="full" height="218" version="1.1" width="259">
  <defs/>
  <path d="M 101.500000,210.309835 C 100.400000,210.012175 99.275000,209.483193 99.000000,209.134318 C 98.725000,208.785443 97.600000,208.006965 96.500000,207.404366 C 89.587491,203.617577 88.633297,177.113432 94.703359,157.500000 C 98.031796,146.745236 110.668925,123.787718 117.238957,116.560212 C 118.208788,115.493328 119.986982,113.183353 121.190500,111.426934 C 122.394018,109.670514 124.369963,107.618419 125.581488,106.866722 C 126.793013,106.115025 130.300394,103.167318 133.375667,100.316261 C 136.450941,97.465205 140.324482,94.330681 141.983537,93.350654 C 143.642592,92.370626 145.000000,91.292730 145.000000,90.955330 C 145.000000,89.919904 156.319704,85.168387 161.000000,84.239229 C 168.599552,82.730524 173.902037,84.473916 176.835486,89.445743 C 181.098205,96.670514 181.188921,117.147515 177.013500,129.628385 C 175.933122,132.857773 175.038112,136.485942 175.024588,137.690983 C 175.011065,138.896024 174.616096,140.119232 174.146880,140.409223 C 173.677664,140.699215 172.506312,143.439981 171.543876,146.499816 C 170.581440,149.559650 169.165344,152.691799 168.396996,153.460147 C 167.628648,154.228495 167.000000,155.474286 167.000000,156.228571 C 167.000000,156.982857 166.587058,158.027500 166.082351,158.550000 C 165.577645,159.072500 163.699819,162.200000 161.909407,165.500000 C 160.118994,168.800000 157.831936,172.088017 156.827055,172.806704 C 155.822175,173.525391 155.000000,174.747058 155.000000,175.521520 C 155.000000,176.295982 154.100000,177.411298 153.000000,178.000000 C 151.900000,178.588702 151.000000,179.501112 151.000000,180.027578 C 151.000000,181.136767 147.607710,185.295178 144.000000,188.608470 C 133.702797,198.065340 130.846460,200.262833 125.052989,203.185154 C 121.448845,205.003144 117.600000,207.240495 116.500000,208.157046 C 114.416767,209.892855 104.969596,211.248706 101.500000,210.309835" fill="none" stroke="black" stroke-width="5"/>
  <path d="M 178.250000,195.358375 C 175.717379,194.798410 175.160415,191.536157 177.447589,190.658485 C 178.243763,190.352965 179.387544,188.167320 179.989324,185.801497 C 180.591103,183.435673 181.477018,180.600000 181.958023,179.500000 C 182.439027,178.400000 183.418489,175.362500 184.134604,172.750000 C 184.850718,170.137500 185.788389,168.000000 186.218315,168.000000 C 186.648242,168.000000 187.000000,167.055429 187.000000,165.900953 C 187.000000,163.638050 194.364547,140.626582 196.005036,137.763569 C 196.552266,136.808532 197.000000,135.406040 197.000000,134.646922 C 197.000000,133.887803 197.856339,131.069197 198.902975,128.383353 C 199.949611,125.697509 201.581118,120.800000 202.528545,117.500000 C 204.507113,110.608416 211.795027,92.115041 213.272150,90.237669 C 214.556294,88.605568 217.000000,90.457929 217.000000,93.063428 C 217.000000,94.063624 217.450000,95.160081 218.000000,95.500000 C 218.550000,95.839919 219.000000,97.202789 219.000000,98.528601 C 219.000000,99.854412 219.900000,102.541542 221.000000,104.500000 C 222.100000,106.458458 223.000000,108.728251 223.000000,109.543985 C 223.000000,110.359719 223.398144,111.808532 223.884765,112.763569 C 225.389867,115.717469 229.000000,127.657321 229.000000,129.681271 C 229.000000,130.736572 229.383659,132.027500 229.852575,132.550000 C 230.321491,133.072500 231.264512,135.750000 231.948178,138.500000 C 233.728189,145.659977 235.871743,151.823391 238.116671,156.236431 C 238.602502,157.191468 239.006775,158.991468 239.015056,160.236431 C 239.031352,162.686324 241.201886,169.535220 242.314662,170.647995 C 242.691598,171.024931 243.000000,172.356776 243.000000,173.607650 C 243.000000,174.858524 243.404784,176.132136 243.899520,176.437900 C 244.394255,176.743663 245.326557,179.357721 245.971300,182.246917 C 246.616044,185.136113 247.652964,188.541766 248.275567,189.815036 C 249.144086,191.591224 249.115203,192.310767 248.151476,192.906383 C 247.460623,193.333353 235.597886,193.981921 221.789837,194.347645 C 207.981788,194.713370 193.042828,195.202330 188.592147,195.434225 C 184.141466,195.666120 179.487500,195.631987 178.250000,195.358375" fill="none" stroke="black" stroke-width="5"/>
  <path d="M 92.908035,84.311800 C 85.533616,80.586112 79.275000,77.280061 79.000000,76.965021 C 78.725000,76.649981 75.575000,74.882061 72.000000,73.036310 C 66.077217,69.978412 56.730481,65.043562 42.000000,57.197036 C 38.975000,55.585701 34.475000,53.190800 32.000000,51.875033 C 28.577929,50.055782 27.424204,48.826064 27.183578,46.741365 C 27.009545,45.233614 27.347045,44.000000 27.933578,44.000000 C 28.520110,44.000000 29.000000,43.376125 29.000000,42.613610 C 29.000000,41.851096 31.639256,36.113596 34.865014,29.863610 C 43.512417,13.109054 45.284304,10.000000 46.185523,10.000000 C 46.633485,10.000000 47.000000,9.190000 47.000000,8.200000 C 47.000000,7.210000 47.540000,5.860000 48.200000,5.200000 C 49.557829,3.842171 55.000000,3.553644 55.000000,4.839485 C 55.000000,5.301202 56.012500,6.205982 57.250000,6.850107 C 58.487500,7.494232 60.850000,8.883574 62.500000,9.937534 C 64.150000,10.991493 66.287500,11.886713 67.250000,11.926912 C 68.212500,11.967110 69.000000,12.450000 69.000000,13.000000 C 69.000000,13.550000 69.830256,14.000000 70.845012,14.000000 C 71.859769,14.000000 73.504514,14.900000 74.500000,16.000000 C 75.495486,17.100000 76.872705,18.000000 77.560487,18.000000 C 79.257489,18.000000 87.000000,22.188117 87.000000,23.106068 C 87.000000,23.510330 88.313002,24.129473 89.917782,24.481942 C 91.522562,24.834411 93.855545,26.007420 95.102189,27.088628 C 96.348834,28.169837 98.523332,29.327648 99.934408,29.661540 C 101.345483,29.995433 103.175000,30.807511 104.000000,31.466157 C 104.825000,32.124804 109.727811,34.797533 114.895136,37.405555 C 120.062460,40.013578 124.932103,42.789246 125.716564,43.573707 C 126.501025,44.358168 127.730614,45.000000 128.448984,45.000000 C 129.167354,45.000000 130.275744,45.627324 130.912073,46.394054 C 131.800557,47.464612 131.732467,48.124676 130.618647,49.238496 C 128.321620,51.535522 115.000000,78.153846 115.000000,80.446575 C 115.000000,81.209292 114.662500,81.983333 114.250000,82.166667 C 113.837500,82.350000 112.579183,84.297846 111.453740,86.495214 C 110.328297,88.692581 108.711913,90.624382 107.861775,90.788103 C 107.011637,90.951825 100.282454,88.037488 92.908035,84.311800" fill="none" stroke="black" stroke-width="5"/>
</svg>
