<?xml version="1.0" encoding="utf-8" ?>
<svg xmlns="http://www.w3.org/2000/svg" xmlns:ev="http://www.w3.org/2001/xml-events" xmlns:xlink="http://www.w3.org/1999/xlink" baseProfile="full" height="219" version="1.1" width="252">
  <defs/>
  <path d="M 120.092217,197.248030 C 116.647318,196.634982 110.745842,192.500079 107.983773,188.764181 C 104.676953,184.291468 100.570252,175.427876 99.058245,169.500000 C 98.356810,166.750000 97.200001,163.150000 96.487558,161.500000 C 92.245503,151.675513 90.128648,120.304233 92.810036,107.000000 C 95.033957,95.965578 96.034957,92.576578 99.308117,85.000000 C 100.139737,83.075000 101.322511,79.607751 101.936503,77.295002 C 102.550495,74.982254 103.609842,72.507254 104.290607,71.795002 C 104.971373,71.082751 107.070731,67.575000 108.955848,64.000000 C 114.772711,52.968705 119.350857,49.950966 127.128891,52.021022 C 132.055195,53.332116 138.000000,57.404212 138.000000,59.467558 C 138.000000,60.218734 138.353755,60.983333 138.786122,61.166667 C 140.004218,61.683167 144.000000,67.667885 144.000000,68.975799 C 144.000000,69.617681 144.674324,70.817181 145.498499,71.641356 C 146.322673,72.465530 147.264893,74.345887 147.592321,75.819927 C 147.919749,77.293967 148.898447,80.075000 149.767205,82.000000 C 153.415211,90.083274 155.507466,105.379524 155.443666,123.500000 C 155.388716,139.106774 154.723788,146.439406 152.995287,150.500000 C 152.527042,151.600000 151.868452,154.175266 151.531754,156.222814 C 151.195055,158.270362 150.319118,160.295362 149.585227,160.722814 C 148.851336,161.150266 147.990787,163.075000 147.672895,165.000000 C 146.364350,172.923934 145.700717,174.960873 143.895348,176.594709 C 142.852906,177.538105 142.000000,178.994798 142.000000,179.831803 C 142.000000,182.373460 134.953830,191.764988 131.111204,194.344998 C 127.136055,197.013987 123.766096,197.901827 120.092217,197.248030" fill="none" stroke="black" stroke-width="5"/>
  <path d="M 199.298621,181.207172 L 192.097242,180.914344 L 191.717307,156.207172 C 191.508342,142.618227 191.148963,120.700000 190.918686,107.500000 L 190.500000,83.500000 L 214.104783,83.222561 C 232.332827,83.008318 237.939797,83.236100 238.720317,84.222561 C 240.161236,86.043668 241.254988,179.724374 239.845502,180.595485 C 238.727693,181.286329 211.388241,181.698770 199.298621,181.207172" fill="none" stroke="black" stroke-width="5"/>
  <path d="M 34.456257,132.746603 C 34.134264,131.907504 34.164842,116.883750 34.524207,99.360484 C 34.883572,81.837218 35.250139,59.737508 35.338799,50.250017 L 35.500000,33.000034 L 39.190983,33.000017 C 41.221024,33.000008 43.160081,33.450000 43.500000,34.000000 C 43.839919,34.550000 44.997582,35.000000 46.072586,35.000000 C 47.147589,35.000000 48.808532,35.397498 49.763569,35.883329 C 50.718606,36.369159 52.625000,37.240081 54.000000,37.818710 C 55.375000,38.397338 58.694703,39.799840 61.377118,40.935381 C 64.059533,42.070921 66.876938,43.000000 67.638017,43.000000 C 68.399096,43.000000 70.929393,43.859949 73.260898,44.910997 C 78.414823,47.234398 91.613800,52.023953 94.858557,52.748209 C 96.938792,53.212535 97.149482,53.691423 96.643989,56.806414 C 96.328770,58.748880 95.705792,60.599582 95.259593,60.919085 C 94.813394,61.238588 92.884950,63.522023 90.974161,65.993384 C 89.063372,68.464745 86.262500,71.793986 84.750000,73.391698 C 83.237500,74.989409 82.000000,76.698703 82.000000,77.190128 C 82.000000,77.681552 81.067225,79.077311 79.927167,80.291813 C 78.787109,81.506316 76.874609,83.771044 75.677167,85.324543 C 73.937746,87.581176 67.404785,95.897965 62.185590,102.500000 C 61.750791,103.050000 58.831161,106.523950 55.697523,110.219889 C 52.563885,113.915828 50.000000,117.399514 50.000000,117.961415 C 50.000000,118.523315 49.100000,119.545112 48.000000,120.232073 C 46.900000,120.919034 45.989559,121.935348 45.976797,122.490547 C 45.952362,123.553620 40.978198,129.190896 37.245239,132.386119 C 35.343154,134.014208 34.961607,134.063524 34.456257,132.746603" fill="none" stroke="black" stroke-width="5"/>
</svg>
