<?xml version="1.0" encoding="utf-8" ?>
<svg xmlns="http://www.w3.org/2000/svg" xmlns:ev="http://www.w3.org/2001/xml-events" xmlns:xlink="http://www.w3.org/1999/xlink" baseProfile="full" height="220" version="1.1" width="256">
  <defs/>
  <path d="M 159.000000,139.249614 C 158.175000,138.968790 156.748236,138.085340 155.829414,137.286393 C 153.745753,135.474580 148.078192,132.139981 145.750000,131.356012 C 144.787500,131.031911 144.000000,130.369221 144.000000,129.883369 C 144.000000,129.397516 143.302653,129.000000 142.450340,129.000000 C 141.598027,129.000000 139.460527,128.249064 137.700340,127.331252 C 134.433063,125.627602 131.104686,124.782215 120.500000,122.962472 C 105.791835,120.438580 89.248092,113.292088 83.804990,107.111126 C 76.244231,98.525440 74.824133,96.254569 73.417158,90.500000 C 72.608874,87.194092 72.681610,77.266141 73.571013,69.500000 C 74.034465,65.453198 73.783554,64.116487 72.254855,62.488285 C 71.216030,61.381842 69.946214,59.729867 69.433041,58.817230 C 68.566051,57.275357 62.909685,50.698717 52.000000,38.547882 C 49.525000,35.791312 44.687500,30.704799 41.250000,27.244521 C 34.856749,20.808904 34.098755,19.301245 36.200000,17.200000 C 38.213469,15.186531 40.708655,15.850202 42.651799,18.916053 C 44.622902,22.026019 52.989777,31.501439 62.000000,40.827739 C 65.025000,43.958855 68.371937,47.782028 69.437638,49.323678 C 70.503340,50.865328 72.232197,53.110676 73.279543,54.313339 C 74.326890,55.516003 76.025004,57.625000 77.053131,59.000000 L 78.922453,61.500000 L 84.211226,58.603850 C 92.598848,54.010761 105.396488,53.901580 115.000000,58.341182 C 118.520798,59.968809 126.356484,67.447316 129.685560,72.357322 C 131.230408,74.635795 132.726711,76.725000 133.010677,77.000000 C 134.022782,77.980148 142.000000,95.465646 142.000000,96.703961 C 142.000000,97.337229 148.703612,111.874646 150.897946,116.000000 C 151.336775,116.825000 153.410759,120.875000 155.506798,125.000000 C 157.602837,129.125000 160.233432,133.521774 161.352565,134.770610 C 163.118246,136.740925 163.196422,137.221016 161.943676,138.400712 C 161.149654,139.148433 159.825000,139.530439 159.000000,139.249614" fill="none" stroke="black" stroke-width="5"/>
</svg>
