<?xml version="1.0" encoding="utf-8" ?>
<svg xmlns="http://www.w3.org/2000/svg" xmlns:ev="http://www.w3.org/2001/xml-events" xmlns:xlink="http://www.w3.org/1999/xlink" baseProfile="full" height="219" version="1.1" width="260">
  <defs/>
  <path d="M 157.500000,158.876659 C 154.750000,157.890244 151.706394,157.064463 150.736431,157.041589 C 149.766468,157.018715 148.191468,156.615131 147.236431,156.144735 C 146.281394,155.674340 141.562500,153.349587 136.750000,150.978619 C 131.937500,148.607650 128.000000,146.292520 128.000000,145.833884 C 128.000000,145.375248 127.570455,145.000000 127.045455,145.000000 C 126.520455,145.000000 125.029123,143.987500 123.731385,142.750000 C 122.433646,141.512500 118.746566,138.250000 115.537875,135.500000 C 110.386398,131.084942 100.667098,121.640985 96.301447,116.808531 C 95.461005,115.878223 94.223852,114.057865 93.552219,112.763292 C 90.575459,107.025580 80.590384,97.001928 70.506051,89.628083 C 69.315832,88.757774 68.913257,87.668433 69.355724,86.515380 C 69.911402,85.067309 70.813575,84.845545 74.268204,85.307839 C 77.733763,85.771596 79.197843,86.700328 82.354066,90.437067 C 84.473802,92.946680 87.061302,95.000000 88.104066,95.000000 C 89.146830,95.000000 90.000000,95.450000 90.000000,96.000000 C 90.000000,96.550000 90.573957,97.000000 91.275461,97.000000 C 91.976965,97.000000 95.239465,98.335878 98.525461,99.968617 C 104.192927,102.784656 105.154573,102.938847 117.235649,102.968617 C 124.240256,102.985878 132.115256,102.492036 134.735649,101.871190 C 143.942495,99.689827 157.937413,95.008611 161.201543,93.018508 C 163.015695,91.912440 165.287500,91.005794 166.250000,91.003738 C 167.212500,91.001682 168.000000,90.550000 168.000000,90.000000 C 168.000000,89.450000 168.605867,89.000000 169.346371,89.000000 C 170.086875,89.000000 174.376174,87.200000 178.878146,85.000000 C 183.380118,82.800000 187.430114,81.000000 187.878137,81.000000 C 188.326160,81.000000 190.134470,80.280762 191.896605,79.401694 C 200.485572,75.116953 216.864676,73.765303 221.000000,77.000000 C 222.375000,78.075541 224.442756,78.965534 225.595012,78.977764 C 226.747269,78.989994 228.504514,79.900000 229.500000,81.000000 C 232.501178,84.316265 235.534967,83.536253 238.951959,78.569825 C 240.628382,76.133228 242.000000,73.640301 242.000000,73.029987 C 242.000000,72.419672 242.900000,70.156178 244.000000,68.000000 C 246.085330,63.912416 246.662923,56.276024 245.116671,53.236431 C 244.630841,52.281394 243.622265,50.150000 242.875392,48.500000 C 240.802225,43.919935 231.091185,34.163833 226.548056,32.096899 C 217.243269,27.863609 214.849048,27.050264 209.803061,26.408423 C 203.862602,25.652808 201.857742,24.534293 202.666430,22.426887 C 203.629580,19.916957 214.012630,20.902638 224.500000,24.499586 C 232.369662,27.198716 239.498270,32.503456 243.985926,39.000000 C 245.315669,40.925000 246.702371,42.725000 247.067486,43.000000 C 247.432601,43.275000 248.691782,45.394573 249.865666,47.710162 C 251.483803,50.902079 252.000000,53.743864 252.000000,59.460162 C 252.000000,63.820054 251.578247,67.000000 251.000000,67.000000 C 250.450000,67.000000 250.000000,68.289314 250.000000,69.865141 C 250.000000,71.440969 249.100000,73.874447 248.000000,75.272871 C 246.900000,76.671294 246.000000,78.506464 246.000000,79.351025 C 246.000000,80.195587 245.139285,81.489460 244.087300,82.226299 C 243.035315,82.963138 241.382058,85.227984 240.413396,87.259289 C 238.859755,90.517309 238.805023,91.515165 239.948993,95.726286 C 242.393655,104.725453 242.395103,113.630472 239.953163,121.367801 C 238.730187,125.242818 237.115418,129.027439 236.364786,129.778071 C 235.614154,130.528704 235.000000,131.530720 235.000000,132.004774 C 235.000000,133.365018 225.909848,142.226866 221.500000,145.165713 C 215.310529,149.290550 204.030478,155.000000 202.070585,155.000000 C 201.100765,155.000000 198.905279,155.699408 197.191727,156.554241 C 189.036541,160.622583 166.107636,161.964185 157.500000,158.876659" fill="none" stroke="black" stroke-width="5"/>
</svg>
