<?xml version="1.0" encoding="utf-8" ?>
<svg xmlns="http://www.w3.org/2000/svg" xmlns:ev="http://www.w3.org/2001/xml-events" xmlns:xlink="http://www.w3.org/1999/xlink" baseProfile="full" height="218" version="1.1" width="257">
  <defs/>
  <path d="M 85.000000,207.570221 C 68.193408,203.117631 62.050329,196.051416 62.015056,181.131271 C 62.000760,175.084092 65.438446,161.968864 67.248060,161.166667 C 67.661627,160.983333 68.000000,160.128445 68.000000,159.266914 C 68.000000,157.647187 73.042064,143.162573 75.751067,137.000000 C 77.194469,133.716476 77.825814,131.402050 79.979259,121.500000 C 80.457703,119.300000 81.382709,115.700000 82.034827,113.500000 C 82.686946,111.300000 83.441198,107.587500 83.710942,105.250000 C 83.980687,102.912500 84.606075,101.000000 85.100694,101.000000 C 85.595312,101.000000 86.019107,100.212500 86.042460,99.250000 C 86.097115,96.997392 89.967448,86.136413 93.357840,78.721487 C 94.811028,75.543304 96.000000,72.753364 96.000000,72.521619 C 96.000000,71.856987 101.920353,63.034430 106.409271,57.009638 C 112.444738,48.909150 125.913445,35.626453 130.500000,33.251615 C 137.442220,29.657056 143.865407,28.496502 155.719514,28.694906 C 166.925142,28.882456 166.950748,28.888507 176.409580,33.584116 C 190.889231,40.772188 197.559458,48.091867 202.465043,62.176491 C 204.172158,67.077860 204.566460,83.531875 203.000000,84.500000 C 202.450000,84.839919 202.000000,86.153267 202.000000,87.418552 C 202.000000,91.420095 195.915967,101.712272 189.596399,108.401353 C 185.041344,113.222746 181.419776,115.883959 175.272197,118.927107 C 170.746906,121.167198 166.353300,123.000000 165.508629,123.000000 C 164.663957,123.000000 163.191468,123.397498 162.236431,123.883329 C 159.179690,125.438304 155.617795,126.740148 151.000000,127.990156 C 148.525000,128.660123 145.466326,129.611415 144.202947,130.104139 C 142.939568,130.596863 140.828625,131.000000 139.511964,131.000000 C 138.195302,131.000000 136.870647,131.400280 136.568285,131.889512 C 136.044397,132.737181 133.643535,133.304077 125.250000,134.562009 C 123.187500,134.871114 120.600000,135.511578 119.500000,135.985261 C 118.400000,136.458944 114.155380,137.624638 110.067511,138.575692 C 105.979643,139.526746 99.679643,141.802865 96.067511,143.633735 C 92.455380,145.464605 88.793651,146.971007 87.930335,146.981295 C 87.067020,146.991583 85.382496,148.125000 84.186949,149.500000 C 82.991402,150.875000 81.368210,152.000000 80.579855,152.000000 C 79.791501,152.000000 78.502885,153.237500 77.716265,154.750000 C 73.523781,162.811235 71.436361,166.551252 70.879160,167.000000 C 68.748836,168.715677 67.850274,187.671396 69.840948,188.901700 C 70.525086,189.324521 71.428700,190.982111 71.848978,192.585233 C 72.714357,195.886162 80.289017,200.612724 86.109131,201.483519 C 87.974109,201.762553 90.175000,202.101324 91.000000,202.236343 C 96.441304,203.126863 116.470772,198.654339 119.450000,195.883538 C 119.972500,195.397592 121.216106,195.000000 122.213569,195.000000 C 123.211032,195.000000 124.808532,194.595368 125.763569,194.100819 C 126.718606,193.606269 129.750000,192.143769 132.500000,190.850819 C 135.250000,189.557868 137.650000,188.162500 137.833333,187.750000 C 138.016667,187.337500 138.916667,186.989994 139.833333,186.977764 C 140.750000,186.965534 142.625000,186.075541 144.000000,185.000000 C 145.375000,183.924459 147.087191,183.034466 147.804869,183.022236 C 148.522548,183.010006 151.672548,181.273852 154.804869,179.164115 C 157.937191,177.054379 163.332453,173.831047 166.794341,172.001157 C 170.256229,170.171266 175.050281,166.947414 177.447791,164.837041 C 179.845301,162.726669 182.300347,161.000000 182.903450,161.000000 C 183.506552,161.000000 184.000000,160.626041 184.000000,160.168980 C 184.000000,159.711919 185.237500,158.699419 186.750000,157.918980 C 188.262500,157.138541 190.002971,156.050000 190.617713,155.500000 C 215.380062,133.345516 217.130951,132.033864 219.413413,133.928139 C 220.831383,135.104950 220.822510,135.491882 219.319202,138.036780 C 218.406421,139.581995 216.872927,141.218353 215.911437,141.673131 C 214.949947,142.127909 210.505155,145.987500 206.034122,150.250000 C 201.563089,154.512500 197.514896,158.000000 197.038137,158.000000 C 196.561378,158.000000 194.220260,159.787970 191.835651,161.973266 C 189.451043,164.158563 187.194643,165.958563 186.821429,165.973266 C 186.448214,165.987970 185.520005,166.622853 184.758740,167.384117 C 183.997476,168.145381 181.377833,169.780831 178.937312,171.018451 C 176.496790,172.256071 174.275000,173.600930 174.000000,174.007027 C 173.047840,175.413098 160.684150,183.000000 159.344964,183.000000 C 158.605234,183.000000 158.000000,183.361451 158.000000,183.803225 C 158.000000,184.244998 155.756997,185.707498 153.015549,187.053225 C 150.274101,188.398951 148.024101,189.837500 148.015549,190.250000 C 148.006997,190.662500 147.437500,191.010006 146.750000,191.022236 C 146.062500,191.034466 144.375000,191.924459 143.000000,193.000000 C 141.625000,194.075541 139.726187,194.965534 138.780416,194.977764 C 137.834645,194.989994 135.584645,195.822184 133.780416,196.827076 C 126.588791,200.832557 110.373654,206.117488 99.566341,207.978324 C 92.539893,209.188160 90.937566,209.143267 85.000000,207.570221" fill="none" stroke="black" stroke-width="5"/>
  <path d="M 177.500000,1.000000 C 177.126194,0.395170 178.509288,-0.000000 181.000000,-0.000000 C 183.490712,-0.000000 184.873806,0.395170 184.500000,1.000000 C 183.697569,2.298360 178.302431,2.298360 177.500000,1.000000" fill="none" stroke="black" stroke-width="5"/>
</svg>
