<?xml version="1.0" encoding="utf-8" ?>
<svg baseProfile="full" height="216" version="1.1" width="261" xmlns="http://www.w3.org/2000/svg" xmlns:ev="http://www.w3.org/2001/xml-events" xmlns:xlink="http://www.w3.org/1999/xlink"><defs /><rect fill="white" height="216" width="261" x="0" y="0" /><path d="M 75,153 L 74,154 L 74,156 L 75,157 L 77,157 L 78,156 L 78,154 L 77,153 Z" fill="none" stroke="black" stroke-width="5" /><path d="M 75,124 L 74,125 L 74,127 L 75,128 L 77,128 L 78,127 L 78,125 L 77,124 Z" fill="none" stroke="black" stroke-width="5" /><path d="M 186,54 L 85,96 L 62,124 L 69,156 L 77,150 L 90,167 L 118,157 L 163,106 Z" fill="none" stroke="black" stroke-width="5" /><path d="M 0,0 L 0,215 L 260,215 L 260,0 Z" fill="none" stroke="black" stroke-width="5" /></svg>