<?xml version="1.0" encoding="utf-8" ?>
<svg xmlns="http://www.w3.org/2000/svg" xmlns:ev="http://www.w3.org/2001/xml-events" xmlns:xlink="http://www.w3.org/1999/xlink" baseProfile="full" height="216" version="1.1" width="261">
  <defs/>
  <path d="M 22.786950,191.835094 C 22.080675,189.919844 22.944185,188.000000 24.511905,188.000000 C 25.251786,188.000000 26.451786,187.408321 27.178571,186.685158 C 27.905357,185.961996 31.200000,183.898347 34.500000,182.099272 C 37.800000,180.300198 41.429003,177.966876 42.564451,176.914114 C 43.699899,175.861351 45.162399,175.000000 45.814451,175.000000 C 46.466503,175.000000 47.000000,174.566767 47.000000,174.037261 C 47.000000,173.507755 49.812500,171.207357 53.250000,168.925267 C 60.444485,164.148986 63.987939,160.370415 63.995033,157.467275 C 63.997765,156.349277 62.338784,152.306097 60.308408,148.482430 C 57.117981,142.474118 56.557947,140.408700 56.183182,133.268505 C 55.944684,128.724513 56.174843,124.442694 56.694647,123.753351 C 57.214452,123.064008 58.271848,120.475000 59.044417,118.000000 C 60.587378,113.056973 61.194968,112.075627 65.250000,107.977087 C 66.762500,106.448358 68.000000,104.800148 68.000000,104.314398 C 68.000000,103.828647 69.237500,102.673462 70.750000,101.747320 C 72.262500,100.821177 75.910107,97.799154 78.855792,95.031712 C 81.801478,92.264271 84.543986,90.000000 84.950253,90.000000 C 85.356521,90.000000 86.996414,88.875550 88.594461,87.501221 C 90.192507,86.126893 91.856316,85.001893 92.291813,85.001221 C 92.727311,85.000550 94.049663,84.100000 95.230375,83.000000 C 96.411086,81.900000 97.967270,81.000000 98.688561,81.000000 C 99.409853,81.000000 100.000000,80.630216 100.000000,80.178257 C 100.000000,79.726298 102.250000,78.339641 105.000000,77.096796 C 107.750000,75.853952 110.000000,74.510672 110.000000,74.111731 C 110.000000,73.025785 136.242535,61.000000 138.612274,61.000000 C 139.375523,61.000000 140.000000,60.648242 140.000000,60.218315 C 140.000000,59.788389 142.072009,58.824839 144.604465,58.077094 C 147.136921,57.329349 150.940183,55.881107 153.056159,54.858779 C 155.172135,53.836450 157.606231,53.000000 158.465263,53.000000 C 159.324294,53.000000 160.808532,52.585805 161.763569,52.079567 C 165.090450,50.316081 182.872139,46.751093 185.300850,47.360660 C 190.466483,48.657152 192.357785,51.269961 192.228824,56.931569 C 192.163285,59.808822 191.690063,62.688778 191.177220,63.331469 C 190.664377,63.974161 189.919286,65.625000 189.521462,67.000000 C 188.382180,70.937708 174.352986,99.211304 169.815386,106.714444 C 164.874931,114.883722 160.071671,122.014754 158.282417,123.836559 C 157.560444,124.571667 155.739047,126.821667 154.234869,128.836559 C 147.432872,137.948041 122.743207,162.185871 116.811731,165.574832 C 101.979827,174.049071 91.614320,175.259704 80.836235,169.776566 C 77.351306,168.003677 73.679839,165.528677 72.677420,164.276566 C 70.213055,161.198353 68.944004,161.437258 66.000000,165.533623 C 64.625000,167.446833 61.025000,170.891850 58.000000,173.189214 C 54.975000,175.486579 52.275000,177.621337 52.000000,177.933120 C 50.972709,179.097821 39.335363,186.859984 34.958923,189.299597 C 29.221031,192.498140 23.472998,193.695491 22.786950,191.835094" fill="none" stroke="black" stroke-width="5"/>
</svg>
