<?xml version="1.0" encoding="utf-8" ?>
<svg xmlns="http://www.w3.org/2000/svg" xmlns:ev="http://www.w3.org/2001/xml-events" xmlns:xlink="http://www.w3.org/1999/xlink" baseProfile="full" height="219" version="1.1" width="256">
  <defs/>
  <path d="M 99.913156,135.342096 C 97.425644,134.674458 94.000000,127.290015 94.000000,122.595481 C 94.000000,113.198159 104.577805,98.297292 115.000000,93.012954 C 117.475000,91.758062 119.725000,90.411069 120.000000,90.019638 C 120.275000,89.628206 121.706033,89.012981 123.180073,88.652471 C 124.654113,88.291960 126.454113,87.435173 127.180073,86.748499 C 128.852328,85.166739 132.396071,83.461362 137.500000,81.782179 C 141.245453,80.549932 150.889392,75.356342 152.000000,73.973434 C 152.275000,73.631010 154.522490,72.259404 156.994421,70.925422 C 159.466353,69.591440 162.350657,67.724656 163.403986,66.777014 C 164.457315,65.829372 169.158014,63.178536 173.849984,60.886267 C 181.862902,56.971543 182.962187,56.705299 191.956143,56.500996 C 205.153797,56.201204 206.000288,55.850472 205.998779,50.682612 C 205.997909,47.705196 205.283210,45.635567 203.518426,43.500000 C 197.428138,36.130137 196.000000,33.500692 196.000000,29.657307 C 196.000000,21.885056 200.178176,16.740808 208.675647,14.050817 C 213.789672,12.431902 216.000000,13.150922 216.000000,16.433431 C 216.000000,19.078019 213.533026,21.000000 210.138545,21.000000 C 207.990381,21.000000 202.000000,27.538670 202.000000,29.883453 C 202.000000,31.112022 204.936309,35.578365 208.463752,39.715296 C 209.033688,40.383709 210.106420,41.649233 210.847600,42.527571 C 212.611027,44.617327 212.827291,55.085676 211.170972,58.180535 C 209.115407,62.021395 206.729385,62.902753 196.813117,63.484098 C 188.718020,63.958676 186.519109,64.512095 180.000000,67.715602 C 175.875000,69.742638 172.275000,71.671816 172.000000,72.002664 C 171.725000,72.333513 169.846900,73.373049 167.826444,74.312746 C 160.951578,77.510186 152.943520,86.668520 147.101214,98.014943 C 141.305888,109.270127 139.250221,112.534406 134.523260,117.987996 C 122.219598,132.182980 110.338702,138.140265 99.913156,135.342096" fill="none" stroke="black" stroke-width="5"/>
</svg>
