<?xml version="1.0" encoding="utf-8" ?>
<svg xmlns="http://www.w3.org/2000/svg" xmlns:ev="http://www.w3.org/2001/xml-events" xmlns:xlink="http://www.w3.org/1999/xlink" baseProfile="full" height="218" version="1.1" width="255">
  <defs/>
  <path d="M 161.000000,127.000000 C 159.625000,126.559648 156.344094,126.154504 153.709097,126.099680 C 151.074100,126.044856 145.899100,125.079652 142.209097,123.954782 C 138.519094,122.829912 133.700000,121.428620 131.500000,120.840799 C 129.300000,120.252979 126.600000,119.401823 125.500000,118.949342 C 119.473738,116.470461 100.939634,110.848370 97.500000,110.455889 C 95.300000,110.204856 87.200000,109.797050 79.500000,109.549653 C 61.974021,108.986553 56.472577,108.182906 46.500000,104.729038 C 42.308655,103.277422 36.356525,96.647264 33.332171,90.061216 C 31.209697,85.439164 30.777032,83.008651 30.770166,75.669048 C 30.765310,70.477691 31.223110,66.376890 31.880952,65.719048 C 32.496429,65.103571 33.000000,63.874219 33.000000,62.987153 C 33.000000,58.664450 38.243652,50.958571 46.150691,43.661381 C 50.716607,39.447621 55.025576,36.000000 55.726178,36.000000 C 56.426780,36.000000 57.000000,35.656155 57.000000,35.235900 C 57.000000,34.080893 64.664772,31.000000 67.538245,31.000000 C 73.168911,31.000000 71.334623,36.909386 65.061306,38.979767 C 62.827588,39.716961 61.000000,40.643498 61.000000,41.038739 C 61.000000,41.433980 59.650000,42.316548 58.000000,43.000000 C 56.350000,43.683452 55.000000,44.638047 55.000000,45.121320 C 55.000000,45.604594 54.313158,46.000000 53.473684,46.000000 C 51.719907,46.000000 43.000000,54.383246 43.000000,56.069314 C 43.000000,56.686384 42.168393,58.385726 41.151985,59.845630 C 38.717193,63.342808 37.000000,70.578275 37.000000,77.340196 C 37.000000,83.441987 41.751982,94.624542 44.803606,95.703955 C 45.736622,96.033979 47.175000,96.834338 48.000000,97.482531 C 48.825000,98.130724 51.750000,99.518178 54.500000,100.565763 C 60.484811,102.845618 78.950242,103.249929 85.750000,101.250000 C 88.087500,100.562500 91.912500,99.473477 94.250000,98.829950 C 98.427041,97.679986 108.585917,92.718252 110.450000,90.917649 C 110.972500,90.412942 112.172500,90.000000 113.116667,90.000000 C 114.060833,90.000000 114.983333,89.633883 115.166667,89.186406 C 115.453039,88.487432 118.420099,86.737926 128.500000,81.324499 C 129.600000,80.733742 132.300000,79.372637 134.500000,78.299820 C 136.700000,77.227003 139.400000,75.879177 140.500000,75.304652 C 145.759151,72.557821 151.958526,70.192337 156.500000,69.199562 C 172.314943,65.742387 178.365157,65.163786 179.500000,67.000000 C 179.839919,67.550000 181.179169,68.000000 182.476112,68.000000 C 190.142898,68.000000 200.900687,76.921265 203.496045,85.431501 C 205.659661,92.526046 205.446648,101.143948 203.000000,105.500000 C 201.900000,107.458458 200.997850,109.609645 200.995222,110.280416 C 200.987927,112.142774 194.688323,118.592694 191.027896,120.485574 C 186.088545,123.039812 180.191204,125.037984 173.000374,126.593765 C 165.856293,128.139432 164.682003,128.179184 161.000000,127.000000" fill="none" stroke="black" stroke-width="5"/>
</svg>
