<?xml version="1.0" encoding="utf-8" ?>
<svg xmlns="http://www.w3.org/2000/svg" xmlns:ev="http://www.w3.org/2001/xml-events" xmlns:xlink="http://www.w3.org/1999/xlink" baseProfile="full" height="221" version="1.1" width="257">
  <defs/>
  <path d="M 145.460610,144.034648 C 136.027617,142.954266 114.904108,134.999236 111.919734,131.403286 C 111.279191,130.631479 110.219734,130.000000 109.565385,130.000000 C 108.153361,130.000000 100.084733,126.232300 98.133832,124.661959 C 96.797705,123.586470 94.096463,122.504010 85.000000,119.398882 C 82.525000,118.554027 78.592404,116.993656 76.260898,115.931391 C 73.929393,114.869126 71.261342,114.000000 70.331896,114.000000 C 68.443002,114.000000 62.424939,112.221768 59.763569,110.877244 C 58.808532,110.394760 53.521032,110.000000 48.013569,110.000000 C 39.016719,110.000000 38.000000,109.816207 38.000000,108.189838 C 38.000000,104.726269 44.322079,99.957746 58.138032,93.000425 C 65.783883,89.150191 72.502412,86.000000 73.068096,86.000000 C 73.633780,86.000000 75.959398,85.100000 78.236136,84.000000 C 80.512873,82.900000 82.746040,82.000000 83.198728,82.000000 C 83.651416,82.000000 85.929393,81.120682 88.260898,80.045961 C 91.846905,78.392970 102.190482,75.608596 112.000000,73.655664 C 113.375000,73.381921 117.425000,72.405946 121.000000,71.486830 C 128.495210,69.559847 153.054911,68.999104 155.198551,70.706014 C 155.914348,71.275980 158.975000,72.334936 162.000000,73.059249 C 165.025000,73.783563 167.950000,74.676738 168.500000,75.044084 C 169.050000,75.411430 172.200000,77.166940 175.500000,78.945218 C 178.800000,80.723496 182.979495,83.299163 184.787766,84.668922 C 188.814094,87.718852 193.000000,94.146983 193.000000,97.280128 C 193.000000,98.556058 193.424222,100.027500 193.942716,100.550000 C 194.461211,101.072500 195.023711,103.928653 195.192716,106.897006 C 195.397034,110.485560 196.002626,112.527756 197.000000,112.991580 C 197.825000,113.375242 199.533990,114.226324 200.797757,114.882872 C 207.620800,118.427561 219.802410,115.029743 226.946167,107.589292 C 230.705510,103.673817 233.896468,103.039325 236.538991,105.681848 C 238.114789,107.257646 238.042626,107.493516 235.394572,109.422489 C 233.840125,110.554825 231.684285,112.497993 230.603817,113.740641 C 229.523349,114.983288 228.045480,116.000000 227.319665,116.000000 C 226.593849,116.000000 226.000000,116.387467 226.000000,116.861038 C 226.000000,117.334610 223.862500,118.755575 221.250000,120.018740 C 218.637500,121.281904 215.718606,122.694437 214.763569,123.157701 C 211.670109,124.658261 205.089864,124.052487 200.366687,121.832332 C 194.984714,119.302505 193.371283,119.868338 190.816935,125.181447 C 189.891250,127.106897 187.877802,129.505272 186.342607,130.511171 C 184.807412,131.517070 182.692966,133.139777 181.643838,134.117188 C 177.626116,137.860266 157.403599,145.378375 152.738842,144.863176 C 152.057479,144.787923 148.782275,144.415085 145.460610,144.034648" fill="none" stroke="black" stroke-width="5"/>
</svg>
