<?xml version="1.0" encoding="utf-8" ?>
<svg xmlns="http://www.w3.org/2000/svg" xmlns:ev="http://www.w3.org/2001/xml-events" xmlns:xlink="http://www.w3.org/1999/xlink" baseProfile="full" height="216" version="1.1" width="256">
  <defs/>
  <path d="M 106.500000,145.069425 C 98.965743,142.958087 94.416364,139.960424 90.174930,134.312556 C 85.726164,128.388606 84.000000,123.981292 84.000000,118.546470 C 84.000000,113.841469 85.596768,105.759175 87.118129,102.763569 C 87.603158,101.808532 88.000000,100.336862 88.000000,99.493191 C 88.000000,98.649521 89.748896,94.255915 91.886436,89.729623 C 94.023975,85.203330 97.238332,77.225000 99.029450,72.000000 C 101.869582,63.714846 102.271615,61.285154 102.173319,53.000000 C 102.057325,43.223148 100.692727,30.298340 98.846826,21.493069 C 97.402679,14.604239 97.960970,11.576559 100.748388,11.180660 C 102.403937,10.945522 103.257408,11.546835 103.985244,13.461188 C 105.167838,16.571647 106.981646,28.174664 107.586718,36.500000 C 109.211858,58.860680 110.129838,65.373600 112.033120,68.046513 C 113.114904,69.565738 114.000000,71.094996 114.000000,71.444863 C 114.000000,72.270691 118.064865,78.061232 120.004090,79.997896 C 120.831339,80.824053 123.267860,83.691066 125.418581,86.369037 C 127.569302,89.047007 130.351455,92.260545 131.601143,93.510234 C 134.606642,96.515733 141.667469,110.530289 142.522111,115.186522 C 143.199917,118.879324 140.797070,131.069770 138.936801,133.375999 C 138.438143,133.994200 136.878602,135.938448 135.471155,137.696552 C 134.063707,139.454656 131.919424,141.195382 130.706080,141.564833 C 129.492736,141.934283 127.825000,142.803523 127.000000,143.496475 C 125.564244,144.702429 121.978542,145.603953 115.500000,146.387828 C 113.850000,146.587471 109.800000,145.994190 106.500000,145.069425" fill="none" stroke="black" stroke-width="5"/>
</svg>
