<?xml version="1.0" encoding="utf-8" ?>
<svg xmlns="http://www.w3.org/2000/svg" xmlns:ev="http://www.w3.org/2001/xml-events" xmlns:xlink="http://www.w3.org/1999/xlink" baseProfile="full" height="216" version="1.1" width="256">
  <defs/>
  <path d="M 81.977456,179.860001 C 80.064855,178.755961 76.925000,175.748308 75.000000,173.176328 C 73.075000,170.604348 70.944067,167.911925 70.264594,167.193166 C 68.392745,165.213090 62.578558,154.957051 61.084628,151.000000 C 60.357870,149.075000 58.978507,145.700000 58.019375,143.500000 C 57.060244,141.300000 55.689717,137.025000 54.973760,134.000000 C 53.179148,126.417559 53.127721,101.105253 54.891477,93.500000 C 58.102643,79.653568 63.795683,65.399370 66.534445,64.348408 C 67.217065,64.086463 68.026420,62.617902 68.333012,61.084939 C 68.818136,58.659318 75.921638,50.048488 84.058045,42.023132 C 89.708648,36.449652 97.858721,30.794651 99.118548,31.573267 C 99.603347,31.872889 100.000000,33.416753 100.000000,35.004076 C 100.000000,37.307271 98.840559,38.834591 94.258877,42.566803 C 91.101260,45.138981 87.971296,48.023668 87.303403,48.977219 C 86.635510,49.930770 84.606515,52.282701 82.794526,54.203732 C 79.258767,57.952266 73.149888,64.937320 71.474544,67.147300 C 70.910543,67.891285 69.816986,70.525000 69.044417,73.000000 C 68.271848,75.475000 67.331502,77.950000 66.954759,78.500000 C 65.927048,80.000336 62.356808,91.774964 61.102951,97.799221 C 58.649083,109.589036 60.219928,131.931714 64.121923,140.739102 C 65.154865,143.070607 66.000000,145.658107 66.000000,146.489102 C 66.000000,147.320096 66.450000,148.000000 67.000000,148.000000 C 67.550000,148.000000 68.000000,148.532924 68.000000,149.184276 C 68.000000,150.818775 72.106979,159.206334 73.698147,160.821429 C 74.414166,161.548214 75.000000,162.582143 75.000000,163.119048 C 75.000000,163.655952 77.249016,166.344255 79.997814,169.093053 C 86.157832,175.253071 88.494209,179.344953 86.701120,180.833085 C 85.815627,181.567979 84.448365,181.286321 81.977456,179.860001" fill="black" stroke="black" stroke-width="1"/>
  <path d="M 181.672730,157.562300 C 179.652729,154.519958 178.000000,151.611346 178.000000,151.098718 C 178.000000,150.586090 177.622719,150.016667 177.161599,149.833333 C 176.008403,149.374843 158.000000,122.301598 158.000000,121.026410 C 158.000000,120.461885 157.626041,120.000000 157.168980,120.000000 C 156.711919,120.000000 155.699419,118.762500 154.918980,117.250000 C 154.138541,115.737500 152.784476,113.704904 151.909946,112.733121 C 151.035416,111.761337 149.701414,109.736337 148.945497,108.233121 C 148.189579,106.729904 145.342188,102.125000 142.617961,98.000000 C 139.893734,93.875000 136.579183,88.848787 135.252292,86.830639 C 133.925401,84.812490 132.988317,82.112490 133.169882,80.830639 C 133.477387,78.659649 134.082252,78.455438 142.000000,77.849458 C 165.287922,76.067132 177.515516,74.973538 178.933840,74.546224 C 179.795228,74.286704 183.875000,74.009305 188.000000,73.929782 C 192.125000,73.850259 198.875000,73.405639 203.000000,72.941738 C 207.125000,72.477836 215.831041,71.886026 222.346758,71.626605 L 234.193517,71.154930 L 233.551411,74.577648 C 233.198253,76.460143 230.518965,82.620457 227.597437,88.267235 C 224.675910,93.914013 217.641056,107.751431 211.964429,119.017052 C 206.287802,130.282674 201.273549,139.650000 200.821644,139.833333 C 200.369740,140.016667 200.000000,140.758471 200.000000,141.481788 C 200.000000,142.205104 198.720011,145.205104 197.155580,148.148454 C 187.986301,165.399712 187.195661,165.880435 181.672730,157.562300" fill="none" stroke="black" stroke-width="5"/>
</svg>
