<?xml version="1.0" encoding="utf-8" ?>
<svg xmlns="http://www.w3.org/2000/svg" xmlns:ev="http://www.w3.org/2001/xml-events" xmlns:xlink="http://www.w3.org/1999/xlink" baseProfile="full" height="224" version="1.1" width="258">
  <defs/>
  <path d="M 158.328319,163.953834 C 157.429034,163.034966 157.897489,161.680632 160.343325,158.128319 C 164.238488,152.471015 170.132112,142.724084 172.514208,138.000000 C 173.484879,136.075000 174.605825,134.275000 175.005198,134.000000 C 175.404571,133.725000 176.756308,131.475000 178.009056,129.000000 C 179.261805,126.525000 182.472255,121.257822 185.143391,117.295160 C 187.814526,113.332498 190.000000,109.698440 190.000000,109.219474 C 190.000000,108.072343 194.365763,103.993995 195.564451,104.021351 C 196.497346,104.042642 202.000000,111.251172 202.000000,112.451982 C 202.000000,112.799819 202.441798,113.627920 202.981772,114.292206 C 203.521747,114.956493 207.206066,120.450000 211.169148,126.500000 C 215.132230,132.550000 218.664189,137.725000 219.017945,138.000000 C 219.949035,138.723802 229.539153,153.118667 231.950603,157.412053 C 235.779491,164.229068 236.510859,163.994573 211.250000,164.049168 C 198.737500,164.076211 181.975000,164.335193 174.000000,164.624683 C 163.454904,165.007468 159.180422,164.824492 158.328319,163.953834" fill="none" stroke="black" stroke-width="5"/>
  <path d="M 37.361626,162.500000 C 36.480544,160.203935 37.716537,158.000000 39.885282,158.000000 C 40.956710,158.000000 41.983333,157.662500 42.166667,157.250000 C 42.350000,156.837500 44.637500,155.416752 47.250000,154.092782 C 49.862500,152.768813 52.000000,151.306313 52.000000,150.842782 C 52.000000,150.379252 52.585416,150.000000 53.300924,150.000000 C 54.491647,150.000000 66.709646,140.257111 71.488778,135.496624 C 73.308521,133.683979 81.458441,123.956276 83.215221,121.500000 C 83.608592,120.950000 85.296092,118.865593 86.965221,116.867985 C 88.634349,114.870377 90.000000,112.507877 90.000000,111.617985 C 90.000000,110.728093 90.379252,110.000000 90.842782,110.000000 C 91.306313,110.000000 92.762742,107.862500 94.079293,105.250000 C 95.395843,102.637500 96.722962,100.275000 97.028447,100.000000 C 97.333931,99.725000 98.208558,97.475000 98.972063,95.000000 C 99.735568,92.525000 100.688411,90.050000 101.089492,89.500000 C 101.490573,88.950000 102.796964,84.450000 103.992582,79.500000 C 105.188201,74.550000 106.546315,69.150000 107.010613,67.500000 C 108.892667,60.811656 109.222430,41.729400 107.613836,32.593558 C 106.144971,24.251290 106.155042,23.604024 107.772817,22.375362 C 110.211590,20.523171 112.772592,20.693834 113.394702,22.750000 C 114.717468,27.121941 115.985556,38.197956 115.992446,45.439805 C 116.000834,54.256309 115.057939,60.471796 111.356437,76.000000 C 107.421929,92.505690 107.333914,92.797215 104.595015,98.395325 C 103.167757,101.312535 102.000000,103.962090 102.000000,104.283226 C 102.000000,105.226348 95.571053,115.468421 94.750000,115.833333 C 94.337500,116.016667 93.999450,116.691667 93.998779,117.333333 C 93.998107,117.975000 92.873107,119.807493 91.498779,121.405539 C 90.124450,123.003586 89.000000,124.661611 89.000000,125.090039 C 89.000000,126.291366 67.948331,147.284326 64.000000,150.020320 C 62.075000,151.354247 59.627647,153.245373 58.561439,154.222821 C 57.495230,155.200270 56.032730,156.000000 55.311439,156.000000 C 54.590147,156.000000 54.000000,156.450000 54.000000,157.000000 C 54.000000,157.550000 53.277257,158.000000 52.393904,158.000000 C 51.510552,158.000000 49.083295,159.350000 47.000000,161.000000 C 42.935954,164.218784 38.298155,164.940555 37.361626,162.500000" fill="black" stroke="black" stroke-width="1"/>
</svg>
