<?xml version="1.0" encoding="utf-8" ?>
<svg xmlns="http://www.w3.org/2000/svg" xmlns:ev="http://www.w3.org/2001/xml-events" xmlns:xlink="http://www.w3.org/1999/xlink" baseProfile="full" height="218" version="1.1" width="260">
  <defs/>
  <path d="M 47.200000,130.800000 C 45.617579,129.217579 45.680866,125.833599 47.368618,121.783927 C 48.121358,119.977767 49.969698,114.675000 51.476041,110.000000 C 56.555665,94.235163 64.794945,79.311370 76.000000,65.579799 C 82.204075,57.976829 83.888840,56.129848 90.000000,50.231819 C 102.414402,38.250378 104.635897,36.265334 107.061343,34.986446 C 108.402604,34.279226 109.725000,33.400759 110.000000,33.034297 C 110.275000,32.667835 112.527248,30.989439 115.004995,29.304529 C 128.406156,20.191508 146.178604,12.000000 152.549221,12.000000 C 152.797149,12.000000 153.000000,13.069900 153.000000,14.377555 C 153.000000,17.276385 151.315474,18.786905 147.154692,19.619062 C 145.419612,19.966078 144.000000,20.643750 144.000000,21.125000 C 144.000000,21.606250 143.100000,22.000000 142.000000,22.000000 C 140.900000,22.000000 140.000000,22.450000 140.000000,23.000000 C 140.000000,23.550000 138.650000,24.000000 137.000000,24.000000 C 135.350000,24.000000 134.000000,24.347668 134.000000,24.772596 C 134.000000,25.197524 132.312500,26.423182 130.250000,27.496281 C 128.187500,28.569381 125.107524,30.471712 123.405609,31.723685 C 121.703694,32.975658 119.791194,34.000000 119.155609,34.000000 C 118.520024,34.000000 118.000000,34.373959 118.000000,34.831020 C 118.000000,35.288081 116.762500,36.300581 115.250000,37.081020 C 113.737500,37.861459 110.938882,39.850000 109.030848,41.500000 C 103.084156,46.642489 85.684701,64.263791 81.495768,69.386158 C 79.298095,72.073545 76.712500,74.986053 75.750000,75.858399 C 74.787500,76.730744 74.000000,78.050894 74.000000,78.792066 C 74.000000,79.533237 72.744974,82.020728 71.211053,84.319825 C 68.578675,88.265328 66.385876,92.555642 62.546100,101.273213 C 61.613978,103.389438 60.423383,104.761665 59.834934,104.397983 C 59.158803,103.980112 59.025134,104.503829 59.459010,105.870853 C 60.061924,107.770467 59.214895,111.682634 56.941165,117.500000 C 56.511228,118.600000 55.919150,121.235097 55.625437,123.355771 C 54.652103,130.383450 50.474521,134.074521 47.200000,130.800000" fill="black" stroke="black" stroke-width="1"/>
  <path d="M 26.507489,63.750000 C 27.819501,22.865778 28.290130,15.004103 29.484959,14.012483 C 30.452686,13.209341 79.592498,12.274081 87.750000,12.903545 C 89.798751,13.061635 89.166150,16.812491 86.973359,17.508456 C 85.858706,17.862233 84.171206,19.355057 83.223359,20.825843 C 82.275511,22.296630 77.422278,27.550000 72.438396,32.500000 C 67.454513,37.450000 59.354513,45.976431 54.438396,51.447624 C 37.021164,70.831423 31.617201,76.000000 28.767863,76.000000 L 26.114376,76.000000 L 26.507489,63.750000" fill="none" stroke="black" stroke-width="5"/>
</svg>
