<?xml version="1.0" encoding="utf-8" ?>
<svg xmlns="http://www.w3.org/2000/svg" xmlns:ev="http://www.w3.org/2001/xml-events" xmlns:xlink="http://www.w3.org/1999/xlink" baseProfile="full" height="216" version="1.1" width="256">
  <defs/>
  <path d="M 93.250000,202.281721 C 92.562500,202.035108 92.000000,200.997391 92.000000,199.975684 C 92.000000,198.953976 91.525053,197.824501 90.944563,197.465738 C 90.364073,197.106975 88.428890,193.817918 86.644158,190.156721 C 83.503398,183.713773 78.016519,173.370633 71.707444,162.000000 C 70.029002,158.975000 67.352783,154.025000 65.760291,151.000000 C 64.167799,147.975000 61.732882,143.475000 60.349364,141.000000 C 58.965845,138.525000 56.419469,133.800000 54.690750,130.500000 C 52.962030,127.200000 51.309510,124.275000 51.018483,124.000000 C 50.727455,123.725000 48.955371,120.350000 47.080517,116.500000 C 45.205663,112.650000 42.492276,107.700000 41.050767,105.500000 C 39.609258,103.300000 37.816281,100.007919 37.066372,98.184264 C 35.864745,95.262104 35.900502,94.670926 37.367616,93.203812 C 38.640247,91.931181 39.440694,91.792129 40.766166,92.613421 C 41.719774,93.204299 43.625000,94.320502 45.000000,95.093872 C 46.375000,95.867243 47.725000,96.773098 48.000000,97.106884 C 48.275000,97.440670 58.400000,102.678789 70.500000,108.747149 C 82.600000,114.815508 94.300000,120.724221 96.500000,121.877620 C 98.700000,123.031020 101.737500,124.419263 103.250000,124.962605 C 106.278964,126.050712 106.566872,127.516895 105.084956,134.307180 C 103.305022,142.463007 101.258168,157.555496 98.090373,185.881765 C 96.316655,201.742266 95.879091,203.224803 93.250000,202.281721" fill="none" stroke="black" stroke-width="5"/>
  <path d="M 228.750000,137.639531 C 226.195967,136.687003 226.000000,136.211715 226.000000,130.969829 C 226.000000,122.567651 223.444890,107.553794 220.474173,98.500000 C 217.927300,90.737947 210.609020,75.028731 209.063221,74.005567 C 208.643124,73.727505 207.747157,72.451902 207.072184,71.170894 C 206.397211,69.889886 205.225412,68.089886 204.468187,67.170894 C 203.710961,66.251902 200.330470,62.012500 196.955984,57.750000 C 193.581497,53.487500 190.495782,50.000000 190.098839,50.000000 C 189.701895,50.000000 188.489497,49.212500 187.404621,48.250000 C 174.983241,37.229777 156.867354,26.000000 151.510898,26.000000 C 149.469954,26.000000 149.530496,21.394143 151.581787,20.606989 C 154.815819,19.365974 158.011271,20.093043 164.666947,23.584287 C 170.763059,26.782011 178.641997,31.621784 180.000000,33.002877 C 180.275000,33.282553 182.253431,34.819507 184.396514,36.418332 C 190.613568,41.056501 202.291926,53.164362 208.644670,61.558280 C 216.140851,71.463028 215.381391,70.214290 219.556494,79.500000 C 228.049336,98.388649 228.298334,99.094568 230.843806,111.500000 C 232.246720,118.337145 233.309289,137.707541 232.310428,138.236209 C 231.864692,138.472124 230.262500,138.203619 228.750000,137.639531" fill="black" stroke="black" stroke-width="1"/>
</svg>
