<?xml version="1.0" encoding="utf-8" ?>
<svg xmlns="http://www.w3.org/2000/svg" xmlns:ev="http://www.w3.org/2001/xml-events" xmlns:xlink="http://www.w3.org/1999/xlink" baseProfile="full" height="222" version="1.1" width="260">
  <defs/>
  <path d="M 150.250000,191.386975 C 147.899855,190.346065 148.393110,188.985704 156.735673,173.500000 C 157.328272,172.400000 159.711046,167.675000 162.030726,163.000000 C 164.350406,158.325000 166.539035,154.275000 166.894347,154.000000 C 167.249659,153.725000 169.061112,150.462500 170.919798,146.750000 C 175.782560,137.037222 177.105599,137.336805 185.425274,150.034552 C 189.041373,155.553556 192.000000,160.503556 192.000000,161.034552 C 192.000000,161.565549 192.342248,162.000000 192.760551,162.000000 C 193.178854,162.000000 195.045172,164.911331 196.907924,168.469625 C 198.770677,172.027919 201.015929,175.740419 201.897373,176.719625 C 204.426584,179.529352 209.126873,188.806571 208.272667,189.302893 C 206.396551,190.392976 152.385817,192.332956 150.250000,191.386975" fill="none" stroke="black" stroke-width="5"/>
  <path d="M 240.173373,86.415230 C 230.242419,76.494855 228.212415,74.710508 224.829106,72.927816 C 223.548098,72.252843 222.275000,71.383605 222.000000,70.996176 C 221.725000,70.608748 218.575000,68.816100 215.000000,67.012515 C 211.425000,65.208930 207.338199,63.137560 205.918221,62.409469 C 195.753749,57.197663 162.493633,53.894044 152.134781,57.067337 C 144.018724,59.553580 142.289271,60.000000 140.773503,60.000000 C 139.902027,60.000000 137.458976,60.887995 135.344501,61.973322 C 133.230025,63.058649 128.800000,65.145220 125.500000,66.610146 C 122.200000,68.075072 118.159366,70.579389 116.520814,72.175294 C 114.882262,73.771199 112.519762,75.333412 111.270814,75.646878 C 110.021866,75.960344 109.000000,76.527465 109.000000,76.907148 C 109.000000,78.516348 94.344369,93.021035 92.728561,93.011001 C 91.754270,93.004950 90.432631,91.848867 89.791586,90.441927 C 88.687470,88.018656 89.070653,87.451439 97.063025,79.678175 C 107.722666,69.310765 110.633316,67.143382 120.500000,62.226092 C 141.009845,52.004538 154.098991,48.938638 173.969381,49.701840 C 178.627541,49.880755 184.027541,50.468524 185.969381,51.007993 C 187.911221,51.547462 191.337500,51.991356 193.583333,51.994423 C 195.829167,51.997490 197.996533,52.329866 198.399703,52.733036 C 198.802873,53.136206 200.790373,53.993880 202.816370,54.638978 C 209.480274,56.760832 217.345363,59.943138 217.927880,60.753270 C 218.242546,61.190889 220.637500,62.662156 223.250000,64.022753 C 225.862500,65.383350 228.000000,66.834838 228.000000,67.248283 C 228.000000,67.661727 228.590580,68.000000 229.312400,68.000000 C 231.193929,68.000000 248.572152,85.435992 250.457629,89.215521 C 251.850706,92.008009 251.864081,92.564491 250.569241,93.859331 C 249.274401,95.154170 248.028632,94.262120 240.173373,86.415230" fill="black" stroke="black" stroke-width="1"/>
</svg>
