<?xml version="1.0" encoding="utf-8" ?>
<svg xmlns="http://www.w3.org/2000/svg" xmlns:ev="http://www.w3.org/2001/xml-events" xmlns:xlink="http://www.w3.org/1999/xlink" baseProfile="full" height="216" version="1.1" width="261">
  <defs/>
  <path d="M 98.000000,190.530002 C 94.425000,189.844840 90.150000,188.743314 88.500000,188.082167 C 83.684683,186.152690 74.544359,181.652066 74.000000,180.942480 C 73.725000,180.584011 72.290909,179.662806 70.813130,178.895359 C 65.065080,175.910252 48.000000,159.840451 48.000000,157.412747 C 48.000000,156.635736 47.632487,156.000000 47.183305,156.000000 C 46.017024,156.000000 38.383452,140.309765 37.088070,135.250000 C 36.489631,132.912500 35.550000,129.260291 35.000000,127.133980 C 31.361163,113.066164 37.785276,80.000000 44.157218,80.000000 C 45.188134,80.000000 46.066437,80.770989 46.150800,81.750000 C 46.409875,84.756503 45.835854,89.477296 45.147648,90.000000 C 43.557976,91.207382 41.755403,98.801076 41.870751,103.804566 C 41.939946,106.806037 41.527490,112.198042 40.954184,115.786798 C 40.230221,120.318626 40.230746,122.630746 40.955904,123.355904 C 41.530157,123.930157 42.000000,125.433208 42.000000,126.696018 C 42.000000,129.800335 45.868126,140.906504 48.026739,144.000000 C 48.986201,145.375000 50.470973,148.178509 51.326233,150.230020 C 52.207578,152.344101 57.075799,158.086956 62.563396,163.486071 C 70.084439,170.885845 73.947977,173.843202 79.872771,176.735585 C 84.067747,178.783501 87.725000,180.708012 88.000000,181.012277 C 88.275000,181.316542 90.862500,182.113252 93.750000,182.782743 C 96.637500,183.452234 101.259809,184.537586 104.021799,185.194637 C 107.951187,186.129399 111.233397,186.115986 119.110077,185.132975 C 128.467328,183.965190 131.105663,183.309539 136.600759,180.786380 C 139.839564,179.299232 143.455338,180.187833 143.793885,182.554139 C 144.029363,184.200038 142.936293,185.113150 138.293885,187.148646 C 135.107248,188.545849 130.356042,190.208987 127.735649,190.844508 C 121.690735,192.310573 106.449459,192.149370 98.000000,190.530002" fill="none" stroke="black" stroke-width="5"/>
  <path d="M 134.500000,78.207005 C 128.987904,77.668666 128.699829,77.333759 130.688798,73.776214 C 131.684959,71.994442 133.062181,69.934064 133.749290,69.197596 C 134.436400,68.461128 136.214794,65.752886 137.701278,63.179281 C 139.187761,60.605677 140.684471,58.275000 141.027300,58.000000 C 141.370129,57.725000 142.503609,55.925000 143.546146,54.000000 C 144.588682,52.075000 146.917291,48.173740 148.720833,45.330532 C 150.524375,42.487325 152.000000,39.674825 152.000000,39.080532 C 152.000000,38.486240 152.381657,38.000000 152.848126,38.000000 C 153.314595,38.000000 154.516994,36.179917 155.520125,33.955371 C 156.523255,31.730826 158.401108,28.693326 159.693130,27.205371 C 160.985153,25.717417 162.794355,22.812500 163.713579,20.750000 C 166.077339,15.446339 168.193806,15.935458 172.367770,22.750000 C 174.304828,25.912500 180.703939,35.925000 186.588017,45.000000 C 192.472094,54.075000 199.246913,64.532107 201.643170,68.238015 C 204.039426,71.943923 206.000000,75.644984 206.000000,76.462596 C 206.000000,77.743722 201.266708,77.987225 171.750000,78.224581 C 152.912500,78.376062 136.150000,78.368152 134.500000,78.207005" fill="none" stroke="black" stroke-width="5"/>
</svg>
