<?xml version="1.0" encoding="utf-8" ?>
<svg xmlns="http://www.w3.org/2000/svg" xmlns:ev="http://www.w3.org/2001/xml-events" xmlns:xlink="http://www.w3.org/1999/xlink" baseProfile="full" height="222" version="1.1" width="256">
  <defs/>
  <path d="M 106.250000,199.337719 C 104.348789,198.570564 104.728919,194.216055 106.750000,193.610064 C 107.712500,193.321473 111.650000,193.054001 115.500000,193.015683 C 132.217600,192.849297 150.923286,188.160468 160.154370,181.822472 C 161.614274,180.820112 163.301774,180.000000 163.904370,180.000000 C 164.506967,180.000000 165.005163,179.662500 165.011473,179.250000 C 165.017783,178.837500 166.889736,177.605105 169.171369,176.511344 C 178.316241,172.127509 198.797173,149.020242 204.191917,137.000000 C 213.852701,115.474426 216.188018,104.172520 213.955244,89.749802 C 212.589567,80.928142 213.433739,78.678595 217.914404,79.199442 C 220.302662,79.477061 220.560628,79.996094 221.294370,86.000000 C 222.283494,94.093596 222.281060,94.704692 221.220680,104.500000 C 220.744363,108.900000 219.065216,116.325000 217.489242,121.000000 C 214.533752,129.767224 205.636152,148.485324 203.313704,150.821429 C 202.591167,151.548214 202.000000,152.528571 202.000000,153.000000 C 202.000000,153.471429 201.437500,154.451786 200.750000,155.178571 C 200.062500,155.905357 198.159717,158.300000 196.521593,160.500000 C 191.393851,167.386558 175.634427,182.000000 173.335570,182.000000 C 172.808424,182.000000 171.487513,182.787500 170.400211,183.750000 C 167.469173,186.344611 151.164840,194.000000 148.569915,194.000000 C 147.771381,194.000000 146.839919,194.450000 146.500000,195.000000 C 146.160081,195.550000 144.648524,196.000000 143.140983,196.000000 C 141.633442,196.000000 139.972500,196.391768 139.450000,196.870596 C 137.451742,198.701834 109.771716,200.758763 106.250000,199.337719" fill="black" stroke="black" stroke-width="1"/>
  <path d="M 78.796421,128.250000 C 78.231235,119.888788 78.964676,81.358889 79.800551,75.500000 C 80.488458,70.678261 80.638426,70.488236 84.006945,70.170023 C 85.928125,69.988535 89.975000,69.168059 93.000000,68.346742 C 96.025000,67.525425 103.450000,65.753318 109.500000,64.408727 C 119.681767,62.145864 123.574879,61.197977 131.500000,59.052214 C 134.510597,58.237081 148.886399,54.533917 154.500000,53.127483 C 159.383682,51.903923 162.233788,53.093146 162.597688,56.506289 C 162.947468,59.786997 162.953600,59.780111 147.496777,73.465974 C 142.548549,77.847259 135.764309,84.051093 132.420686,87.252270 C 129.077063,90.453448 125.477063,93.681628 124.420686,94.426005 C 123.364309,95.170381 118.875838,99.316548 114.446308,103.639708 C 110.016777,107.962869 102.591777,114.861759 97.946308,118.970575 C 93.300838,123.079392 87.777860,128.141892 85.673023,130.220575 C 80.345643,135.481759 79.264315,135.171891 78.796421,128.250000" fill="none" stroke="black" stroke-width="5"/>
</svg>
