<?xml version="1.0" encoding="utf-8" ?>
<svg xmlns="http://www.w3.org/2000/svg" xmlns:ev="http://www.w3.org/2001/xml-events" xmlns:xlink="http://www.w3.org/1999/xlink" baseProfile="full" height="224" version="1.1" width="257">
  <defs/>
  <path d="M 220.000000,181.812466 C 213.804347,179.204906 212.158600,178.327477 206.808581,174.779463 C 203.678300,172.703531 199.628300,169.186708 197.808581,166.964302 C 195.988861,164.741896 193.470049,161.703262 192.211220,160.211782 C 188.876787,156.261093 183.272248,144.424142 181.457686,137.500000 C 180.480160,133.769886 179.908218,127.527699 179.945868,121.000000 C 180.000011,111.612738 180.562578,108.120278 183.731258,97.500000 C 184.059456,96.400000 186.054185,92.641508 188.163990,89.147796 C 190.273796,85.654084 192.000000,82.499830 192.000000,82.138343 C 192.000000,81.776856 192.900000,80.919034 194.000000,80.232073 C 195.100000,79.545112 196.000000,78.418438 196.000000,77.728354 C 196.000000,75.060049 217.588192,60.481096 223.270809,59.311812 C 224.794755,58.998237 226.283812,58.349799 226.579826,57.870838 C 226.875841,57.391877 228.216476,57.000000 229.559017,57.000000 C 231.604554,57.000000 232.000000,57.486009 232.000000,60.000000 C 232.000000,62.268632 231.542051,63.000000 230.121538,63.000000 C 228.059777,63.000000 212.702132,70.846873 212.166667,72.173906 C 211.983333,72.628258 211.420833,73.000000 210.916667,73.000000 C 208.284025,73.000000 194.015984,88.045149 193.977764,90.861479 C 193.965534,91.762666 193.075541,93.625000 192.000000,95.000000 C 190.924459,96.375000 190.034466,98.084238 190.022236,98.798306 C 190.010006,99.512375 189.084923,101.987375 187.966495,104.298306 C 185.023587,110.379036 185.010602,129.822151 187.943547,138.658335 C 191.277050,148.701295 196.327953,157.149684 201.148771,160.746046 C 203.541947,162.531371 207.717049,165.906371 210.426775,168.246046 C 213.136502,170.585721 218.086502,173.663423 221.426775,175.085384 C 226.457204,177.226847 227.554331,178.128292 227.816422,180.335384 C 228.094640,182.678273 227.792788,182.991828 225.316422,182.932320 C 223.767390,182.895096 221.375000,182.391162 220.000000,181.812466" fill="black" stroke="black" stroke-width="1"/>
  <path d="M 72.074567,104.580216 C 64.323268,88.949335 57.454545,75.984848 56.810738,75.770246 C 56.166931,75.555644 55.921789,74.646197 56.265979,73.749254 C 56.867148,72.182631 60.452907,71.911107 79.000000,72.027770 C 89.746141,72.095365 124.808620,73.221081 125.750000,73.528727 C 127.468065,74.090195 127.333017,77.000000 125.588894,77.000000 C 123.855798,77.000000 119.596397,81.940928 117.474241,86.413040 C 116.608564,88.237319 115.135219,90.580691 114.200141,91.620534 C 113.265064,92.660377 111.408560,95.533647 110.074578,98.005579 C 108.740596,100.477510 107.390596,102.725000 107.074578,103.000000 C 106.758560,103.275000 105.937500,104.512500 105.250000,105.750000 C 104.562500,106.987500 103.437500,109.012500 102.750000,110.250000 C 102.062500,111.487500 101.270919,112.725000 100.990932,113.000000 C 100.710944,113.275000 98.739187,116.425000 96.609250,120.000000 C 90.385788,130.445791 88.572493,132.985909 87.333919,132.993167 C 86.692575,132.996925 79.825866,120.211097 72.074567,104.580216" fill="none" stroke="black" stroke-width="5"/>
</svg>
