<?xml version="1.0" encoding="utf-8" ?>
<svg xmlns="http://www.w3.org/2000/svg" xmlns:ev="http://www.w3.org/2001/xml-events" xmlns:xlink="http://www.w3.org/1999/xlink" baseProfile="full" height="217" version="1.1" width="264">
  <defs/>
  <path d="M 179.000000,180.171374 C 179.000000,179.010576 179.973512,176.359645 181.163360,174.280416 C 182.353208,172.201187 183.995807,169.150000 184.813580,167.500000 C 185.631353,165.850000 188.879990,160.225000 192.032773,155.000000 C 195.185556,149.775000 198.633086,143.925000 199.693951,142.000000 C 204.847103,132.649315 206.256562,130.894482 208.370411,131.197456 C 209.543651,131.365614 211.109617,132.814817 211.895873,134.460049 C 213.269393,137.334124 225.990595,157.273934 228.006376,159.712409 C 228.557612,160.379233 229.528914,162.066733 230.164826,163.462409 C 230.800738,164.858084 231.698798,166.000000 232.160515,166.000000 C 232.622232,166.000000 233.000000,166.481421 233.000000,167.069825 C 233.000000,167.658228 234.350000,170.101807 236.000000,172.500000 C 239.707043,177.888003 239.749045,178.987653 236.250000,179.045329 C 230.911281,179.133327 196.385804,180.965825 187.750000,181.619548 C 179.304679,182.258851 179.000000,182.208424 179.000000,180.171374" fill="none" stroke="black" stroke-width="5"/>
  <path d="M 55.133617,126.660999 C 53.242176,124.381952 56.524818,101.395277 60.012023,92.500000 C 65.506674,78.484063 75.515845,60.423015 80.695018,55.178571 C 81.412758,54.451786 82.004888,53.551786 82.010863,53.178571 C 82.031578,51.884517 93.535757,40.274481 100.664518,34.353274 C 104.605002,31.080274 109.892502,27.341085 112.414518,26.043965 C 114.936533,24.746845 117.000000,23.306313 117.000000,22.842782 C 117.000000,22.379252 117.862500,22.000000 118.916667,22.000000 C 119.970833,22.000000 120.983333,21.589801 121.166667,21.088446 C 121.350000,20.587092 123.075000,20.024592 125.000000,19.838446 C 128.166492,19.532250 128.529924,19.759682 128.814032,22.225231 C 129.084464,24.572089 128.563811,25.194915 125.064032,26.711131 C 122.828815,27.679499 121.000000,28.815645 121.000000,29.235900 C 121.000000,29.656155 120.518579,30.000000 119.930175,30.000000 C 119.341772,30.000000 116.898193,31.350000 114.500000,33.000000 C 112.101807,34.650000 109.939794,36.000000 109.695527,36.000000 C 107.974620,36.000000 88.794800,54.790167 86.473760,58.750000 C 85.426024,60.537500 84.215808,62.000000 83.784392,62.000000 C 83.352977,62.000000 83.000000,62.474691 83.000000,63.054869 C 83.000000,63.635048 81.200000,66.760356 79.000000,70.000000 C 76.800000,73.239644 75.000000,76.364952 75.000000,76.945131 C 75.000000,77.525309 74.550000,78.000000 74.000000,78.000000 C 73.450000,78.000000 73.000000,78.810000 73.000000,79.800000 C 73.000000,80.790000 72.589460,82.027500 72.087689,82.550000 C 71.585918,83.072500 69.938524,87.100000 68.426815,91.500000 C 65.730701,99.347340 64.740292,104.426982 63.151604,118.555674 C 62.715251,122.436294 62.026074,126.148794 61.620100,126.805674 C 60.625914,128.414301 56.512588,128.322557 55.133617,126.660999" fill="black" stroke="black" stroke-width="1"/>
</svg>
