<?xml version="1.0" encoding="utf-8" ?>
<svg xmlns="http://www.w3.org/2000/svg" xmlns:ev="http://www.w3.org/2001/xml-events" xmlns:xlink="http://www.w3.org/1999/xlink" baseProfile="full" height="221" version="1.1" width="260">
  <defs/>
  <path d="M 121.197597,136.750000 C 108.994022,123.894279 108.372357,123.071201 100.993531,110.000000 C 94.966403,99.323262 89.742424,79.752788 90.993315,72.536420 C 91.408140,70.143305 92.180069,69.408563 95.003512,68.719415 C 105.086339,66.258391 105.794790,65.922794 108.122410,62.504918 C 110.911426,58.409528 112.099475,58.226166 116.345630,61.235754 C 125.373057,67.634212 130.947860,73.433036 133.258200,78.827949 C 133.887559,80.297577 135.159242,82.625000 136.084162,84.000000 C 139.480022,89.048335 142.000000,94.107503 142.000000,95.876778 C 142.000000,96.875548 142.751316,99.198773 143.669592,101.039501 C 145.928040,105.566667 147.070639,111.013909 147.689026,120.201801 L 148.207392,127.903603 L 143.054658,128.587137 C 138.343411,129.212106 137.464873,129.773158 132.800994,135.135336 C 129.995483,138.360901 127.144751,141.000000 126.466034,141.000000 C 125.787317,141.000000 123.416521,139.087500 121.197597,136.750000" fill="none" stroke="black" stroke-width="5"/>
</svg>
