<?xml version="1.0" encoding="utf-8" ?>
<svg xmlns="http://www.w3.org/2000/svg" xmlns:ev="http://www.w3.org/2001/xml-events" xmlns:xlink="http://www.w3.org/1999/xlink" baseProfile="full" height="218" version="1.1" width="259">
  <defs/>
  <path d="M 120.000000,163.861526 C 116.975000,163.337729 112.025000,162.665011 109.000000,162.366597 C 105.975000,162.068183 103.072500,161.413620 102.550000,160.912013 C 102.027500,160.410406 100.141558,160.000000 98.359017,160.000000 C 96.576476,160.000000 94.839919,159.550000 94.500000,159.000000 C 94.160081,158.450000 92.585081,158.000000 91.000000,158.000000 C 89.414919,158.000000 87.847476,157.562229 87.516795,157.027175 C 87.186114,156.492121 85.022056,155.557139 82.707778,154.949436 C 76.071878,153.206926 57.608498,143.632707 52.084112,139.069477 C 50.660740,137.893750 48.547562,136.384638 47.388162,135.715896 C 41.073593,132.073651 37.000000,128.554862 37.000000,126.742553 C 37.000000,125.647131 39.212473,122.607152 41.916607,119.987043 C 48.067390,114.027382 49.757027,110.773552 51.540019,101.454696 C 53.980083,88.701631 50.048809,76.679927 41.090362,69.500000 C 35.307089,64.864880 34.770205,62.395627 38.788952,58.915298 C 42.403251,55.785230 57.518048,48.000000 59.980686,48.000000 C 61.026390,48.000000 62.160081,47.550000 62.500000,47.000000 C 62.839919,46.450000 64.430600,46.000000 66.034847,46.000000 C 67.639095,46.000000 70.425037,45.101682 72.225830,44.003738 C 74.026624,42.905794 76.287500,42.005794 77.250000,42.003738 C 78.212500,42.001682 79.000000,41.627783 79.000000,41.172852 C 79.000000,40.717921 82.011972,39.790726 85.693272,39.112420 C 89.374572,38.434114 92.843036,37.597009 93.400970,37.252187 C 94.569971,36.529704 93.615804,36.632060 114.500000,34.988838 C 131.939040,33.616690 139.509351,33.887337 154.000000,36.401005 C 166.036612,38.488976 178.369910,41.930988 186.500000,45.471200 C 188.150000,46.189685 190.625000,47.113242 192.000000,47.523549 C 193.375000,47.933857 194.725000,48.546411 195.000000,48.884781 C 195.275000,49.223152 197.975000,50.763757 201.000000,52.308349 C 212.753403,58.309742 217.538681,61.054975 218.500000,62.347802 C 219.050000,63.087468 220.908346,64.420355 222.629659,65.309774 C 225.693576,66.892929 230.000000,72.811818 230.000000,75.439810 C 230.000000,76.168829 227.604757,77.937182 224.677237,79.369484 C 220.176405,81.571536 218.748039,83.005339 215.427237,88.654689 C 210.285230,97.402278 209.618478,99.861237 209.639416,110.000000 C 209.664140,121.972066 211.626591,125.931405 222.250000,135.442451 C 225.559830,138.405714 225.765064,141.041116 222.828803,142.874842 C 209.624019,151.121365 183.023913,160.420499 165.500000,162.916422 C 155.301853,164.368940 126.397686,164.969324 120.000000,163.861526" fill="none" stroke="black" stroke-width="5"/>
</svg>
