<?xml version="1.0" encoding="utf-8" ?>
<svg xmlns="http://www.w3.org/2000/svg" xmlns:ev="http://www.w3.org/2001/xml-events" xmlns:xlink="http://www.w3.org/1999/xlink" baseProfile="full" height="219" version="1.1" width="258">
  <defs/>
  <path d="M 148.458274,172.227764 C 145.668714,169.867162 144.178783,166.345183 143.708502,161.000000 C 143.192388,155.133869 140.138403,140.195687 138.801906,137.000000 C 138.226855,135.625000 137.136178,133.305569 136.378179,131.845708 C 135.620181,130.385847 135.000000,128.688747 135.000000,128.074374 C 135.000000,126.579418 125.370975,107.087347 123.641952,105.082235 C 122.891546,104.212006 121.094681,101.475000 119.648919,99.000000 C 118.203156,96.525000 115.778201,93.101269 114.260130,91.391709 C 112.742058,89.682150 110.375000,86.777498 109.000000,84.936928 C 104.256242,78.586952 96.841845,71.551988 87.987766,65.000000 C 78.688665,58.118697 78.000000,57.179782 78.000000,51.382839 C 78.000000,48.407352 78.379035,45.191468 78.842299,44.236431 C 83.210375,35.231476 84.377559,33.161914 86.364399,30.898817 C 87.620409,29.468167 91.314741,26.809434 94.574027,24.990522 C 100.091908,21.911153 101.167954,21.677094 110.199466,21.591705 C 116.734838,21.529915 120.306872,21.907766 121.149466,22.750000 C 121.837259,23.437500 123.055197,24.000000 123.855993,24.000000 C 124.656789,24.000000 126.999619,25.721642 129.062281,27.825871 C 132.277577,31.105962 132.902888,32.496849 133.445660,37.575871 C 134.136307,44.038638 135.286412,49.057555 137.667622,56.000000 C 138.516530,58.475000 139.548386,61.850000 139.960636,63.500000 C 140.660314,66.300412 148.769226,83.149802 154.027714,92.729776 C 155.304672,95.056152 157.958328,98.916920 159.924728,101.309260 C 161.891128,103.701600 165.075000,107.638149 167.000000,110.057148 C 168.925000,112.476146 172.750000,116.771716 175.500000,119.602859 C 188.808545,133.304090 190.000000,134.964922 190.000000,139.815169 C 190.000000,146.782823 186.100962,158.162765 182.208144,162.556897 C 178.422857,166.829652 171.196645,171.574474 166.480744,172.883708 C 160.266822,174.608823 150.867759,174.266736 148.458274,172.227764" fill="none" stroke="black" stroke-width="5"/>
</svg>
