<?xml version="1.0" encoding="utf-8" ?>
<svg xmlns="http://www.w3.org/2000/svg" xmlns:ev="http://www.w3.org/2001/xml-events" xmlns:xlink="http://www.w3.org/1999/xlink" baseProfile="full" height="218" version="1.1" width="260">
  <defs/>
  <path d="M 109.000000,152.526751 C 109.000000,146.319759 98.818193,134.000000 93.688353,134.000000 C 90.445971,134.000000 88.000000,132.028534 88.000000,129.415156 C 88.000000,121.750081 107.372965,96.196778 121.018317,85.863379 C 122.933243,84.413238 125.625000,82.236098 127.000000,81.025292 C 128.375000,79.814485 130.737500,78.091441 132.250000,77.196305 C 133.762500,76.301169 135.000000,75.215808 135.000000,74.784392 C 135.000000,74.352977 135.458132,74.000000 136.018070,74.000000 C 136.578009,74.000000 139.999001,72.200000 143.620274,70.000000 C 147.241548,67.800000 150.614522,66.000000 151.115773,66.000000 C 152.066600,66.000000 156.132939,63.897847 157.000000,62.958064 C 157.275000,62.659999 159.525000,61.812355 162.000000,61.074411 C 164.475000,60.336466 168.879381,58.892838 171.787513,57.866347 C 177.651665,55.796462 181.000000,55.481583 181.000000,57.000000 C 181.000000,57.550000 181.900000,58.900000 183.000000,60.000000 C 184.100000,61.100000 185.000000,62.857475 185.000000,63.905499 C 185.000000,67.535476 189.461213,74.143738 194.219703,77.562373 C 196.848867,79.451239 199.000000,81.469769 199.000000,82.047997 C 199.000000,84.702808 188.675587,100.391327 181.554209,108.557846 C 169.686117,122.167711 152.953426,136.634749 144.250000,140.810960 C 142.462500,141.668665 141.000000,142.737079 141.000000,143.185212 C 141.000000,143.633346 140.318894,144.000000 139.486431,144.000000 C 138.653968,144.000000 137.191468,144.390978 136.236431,144.868841 C 135.281394,145.346703 132.167890,146.907070 129.317534,148.336324 C 123.075209,151.466411 113.247666,155.000000 110.784659,155.000000 C 109.552837,155.000000 109.000000,154.233857 109.000000,152.526751" fill="none" stroke="black" stroke-width="5"/>
</svg>
