<?xml version="1.0" encoding="utf-8" ?>
<svg xmlns="http://www.w3.org/2000/svg" xmlns:ev="http://www.w3.org/2001/xml-events" xmlns:xlink="http://www.w3.org/1999/xlink" baseProfile="full" height="216" version="1.1" width="260">
  <defs/>
  <path d="M 92.000000,153.000000 C 92.000000,152.449412 89.415881,151.999471 86.250000,151.998822 C 80.841503,151.997714 70.901408,150.346996 63.000000,148.137773 C 61.075000,147.599545 56.575000,146.389624 53.000000,145.449058 C 38.798299,141.712658 38.028893,139.701526 47.341381,130.658137 C 51.656107,126.468092 53.943566,123.381428 54.498815,121.000000 C 57.283600,109.056236 57.465407,107.218953 56.576858,100.000000 C 56.069131,95.875000 55.394131,92.275000 55.076858,92.000000 C 54.087311,91.142296 52.000000,87.077276 52.000000,86.007845 C 52.000000,85.447233 49.975000,82.992220 47.500000,80.552259 C 45.025000,78.112298 43.000000,75.503740 43.000000,74.755464 C 43.000000,73.954742 44.954396,72.938605 47.750000,72.285825 C 50.362500,71.675801 54.300000,70.657015 56.500000,70.021857 C 58.700000,69.386698 62.075000,68.493160 64.000000,68.036216 C 65.925000,67.579272 71.100000,66.243055 75.500000,65.066844 C 91.734470,60.727036 108.120989,58.949437 135.111679,58.600206 C 145.898103,58.460641 157.823103,58.737973 161.611679,59.216501 C 169.743380,60.243599 187.521715,63.831182 190.797053,65.105969 C 192.060432,65.597686 194.557932,66.000000 196.347053,66.000000 C 198.136174,66.000000 200.027500,66.375622 200.550000,66.834716 C 201.072500,67.293809 203.637500,68.456028 206.250000,69.417423 C 211.905450,71.498620 212.375108,73.607222 207.917300,76.903022 C 206.110710,78.238691 203.419979,82.133979 201.417300,86.312868 C 198.326048,92.763229 198.000000,94.283834 198.000000,102.250305 C 198.000000,110.014112 198.349182,111.748759 200.948592,116.898161 C 202.570318,120.110782 205.945318,124.787423 208.448592,127.290697 C 210.951866,129.793972 213.000000,132.500877 213.000000,133.306043 C 213.000000,134.864636 209.803017,137.295405 206.500000,138.248203 C 205.400000,138.565512 201.800000,139.835066 198.500000,141.069434 C 195.200000,142.303802 190.475000,143.645284 188.000000,144.050505 C 183.961902,144.711646 177.129749,146.324312 167.000000,149.007359 C 165.075000,149.517230 160.350000,150.392201 156.500000,150.951739 C 152.650000,151.511276 146.538139,152.426037 142.918087,152.984540 C 134.222839,154.326046 92.000000,154.338866 92.000000,153.000000" fill="none" stroke="black" stroke-width="5"/>
</svg>
