<?xml version="1.0" encoding="utf-8" ?>
<svg xmlns="http://www.w3.org/2000/svg" xmlns:ev="http://www.w3.org/2001/xml-events" xmlns:xlink="http://www.w3.org/1999/xlink" baseProfile="full" height="216" version="1.1" width="257">
  <defs/>
  <path d="M 133.654988,202.171259 C 132.744744,201.165452 132.000000,199.882399 132.000000,199.320030 C 132.000000,196.776530 120.457337,185.805748 115.118599,183.275017 C 107.439419,179.634844 95.032831,179.535294 87.500000,183.053408 C 84.750000,184.337761 82.275000,185.638661 82.000000,185.944297 C 80.800936,187.276943 74.993658,191.000000 74.114041,191.000000 C 70.997205,191.000000 65.061343,171.199686 63.025000,154.010172 C 61.615862,142.115121 61.628585,115.292567 63.046826,108.000000 C 63.635120,104.975000 64.586092,100.025000 65.160096,97.000000 C 66.824604,88.228044 72.086372,71.720475 75.116671,65.763569 C 75.602502,64.808532 76.000000,63.346032 76.000000,62.513569 C 76.000000,61.681106 76.414245,61.000000 76.920545,61.000000 C 77.426844,61.000000 78.138616,59.645371 78.502259,57.989714 C 78.865902,56.334057 79.749510,54.393347 80.465831,53.677026 C 81.182153,52.960705 82.738286,50.473163 83.923906,48.149156 C 88.656203,38.873087 93.231263,36.543794 96.492748,41.750000 C 98.664399,45.216537 105.070802,51.000000 106.739071,51.000000 C 107.432582,51.000000 108.003511,51.337500 108.007802,51.750000 C 108.020022,52.924745 113.122955,55.000000 115.999365,55.000000 C 117.429714,55.000000 119.104673,55.504673 119.721495,56.121495 C 120.408553,56.808553 123.294479,57.085616 127.171495,56.836732 C 133.676827,56.419124 144.315885,52.256486 149.697753,48.023107 C 154.071717,44.582547 155.740217,45.346000 158.935469,52.250000 C 160.526384,55.687500 162.111873,59.850000 162.458778,61.500000 C 162.805683,63.150000 163.558686,66.300000 164.132117,68.500000 C 165.225527,72.694931 166.456336,81.400321 167.737427,94.000000 C 169.087007,107.273280 167.320002,133.552652 164.140128,147.500000 C 160.755645,162.344794 152.951948,181.381166 144.347523,195.782171 C 138.993903,204.742386 137.038968,205.910515 133.654988,202.171259" fill="none" stroke="black" stroke-width="5"/>
</svg>
