<?xml version="1.0" encoding="utf-8" ?>
<svg xmlns="http://www.w3.org/2000/svg" xmlns:ev="http://www.w3.org/2001/xml-events" xmlns:xlink="http://www.w3.org/1999/xlink" baseProfile="full" height="222" version="1.1" width="257">
  <defs/>
  <path d="M 134.500000,215.910977 C 126.840087,214.925369 118.597266,213.377446 113.500000,211.967378 C 111.300000,211.358787 108.487500,210.614698 107.250000,210.313847 C 106.012500,210.012996 105.000000,209.369305 105.000000,208.883423 C 105.000000,208.397540 104.318894,208.000000 103.486431,208.000000 C 102.653968,208.000000 101.191468,207.601611 100.236431,207.114691 C 99.281394,206.627771 95.932737,204.968343 92.794972,203.427073 C 89.657206,201.885803 84.716146,198.509906 81.814838,195.925079 L 76.539731,191.225395 L 79.306982,186.362697 C 83.432832,179.112627 89.583566,165.823058 90.370859,162.457558 C 90.751384,160.830901 91.892691,157.700000 92.907097,155.500000 C 93.921504,153.300000 95.276198,149.025000 95.917529,146.000000 C 96.558860,142.975000 97.485105,138.925000 97.975850,137.000000 C 102.311764,119.991916 102.251746,81.585767 97.862552,64.500000 C 95.508704,55.337202 94.608795,52.450041 93.826120,51.550000 C 93.371754,51.027500 93.000000,49.684905 93.000000,48.566456 C 93.000000,47.448007 91.704622,43.825507 90.121382,40.516456 C 82.451631,24.486295 82.432463,22.905051 89.841982,17.467756 C 92.403892,15.587760 95.062500,14.038426 95.750000,14.024791 C 96.437500,14.011156 97.000000,13.656155 97.000000,13.235900 C 97.000000,12.378969 103.912568,9.169930 108.500000,7.897225 C 110.150000,7.439461 115.550000,5.940860 120.500000,4.567000 C 125.450000,3.193140 131.892084,2.053532 134.815741,2.034537 C 137.739399,2.015541 141.045754,1.510697 142.163198,0.912659 C 144.558751,-0.369402 161.902346,1.252704 171.500000,3.656462 C 174.800000,4.482955 179.075000,5.546855 181.000000,6.020684 C 186.003490,7.252267 205.118046,17.144049 205.768154,18.838203 C 206.302258,20.230055 204.231296,25.008555 200.930725,30.000000 C 200.021513,31.375000 198.733796,34.300000 198.069134,36.500000 C 197.404471,38.700000 196.487019,41.400000 196.030351,42.500000 C 194.807262,45.446122 192.159357,54.776655 190.922146,60.500000 C 186.179689,82.438622 185.864206,109.167626 190.095933,130.500000 C 191.855153,139.368326 194.945975,150.863610 196.011236,152.500000 C 196.369277,153.050000 197.687974,156.425000 198.941675,160.000000 C 200.195375,163.575000 201.621376,166.927500 202.110565,167.450000 C 202.599754,167.972500 203.000000,169.210000 203.000000,170.200000 C 203.000000,171.190000 203.450000,172.000000 204.000000,172.000000 C 204.550000,172.000000 205.000000,172.623222 205.000000,173.384937 C 205.000000,174.146653 207.021653,178.309153 209.492563,182.634937 C 211.963473,186.960722 213.988473,190.814691 213.992563,191.199314 C 214.005817,192.445632 207.589236,197.952615 204.292478,199.524339 C 202.528342,200.365388 200.803939,201.508216 200.460474,202.063955 C 199.806213,203.122571 190.226833,208.000000 188.801948,208.000000 C 188.348888,208.000000 186.070607,208.836262 183.739102,209.858361 C 175.419348,213.505621 173.865118,214.000071 170.702947,214.005577 C 168.941326,214.008644 165.925000,214.415055 164.000000,214.908712 C 158.907539,216.214649 141.465558,216.807242 134.500000,215.910977" fill="none" stroke="black" stroke-width="5"/>
</svg>
