<?xml version="1.0" encoding="utf-8" ?>
<svg xmlns="http://www.w3.org/2000/svg" xmlns:ev="http://www.w3.org/2001/xml-events" xmlns:xlink="http://www.w3.org/1999/xlink" baseProfile="full" height="219" version="1.1" width="256">
  <defs/>
  <path d="M 113.000000,189.029045 C 112.175000,188.559708 109.375990,187.429104 106.779977,186.516593 C 98.444153,183.586509 85.466939,173.737427 82.575974,168.146917 C 80.385861,163.911707 80.602212,161.049666 83.426688,156.893076 C 85.644686,153.629000 88.212701,149.282223 90.815101,144.387005 C 93.524434,139.290643 98.000000,128.743542 98.000000,127.455100 C 98.000000,126.654795 98.367528,126.000000 98.816729,126.000000 C 99.265930,126.000000 100.599689,122.737500 101.780639,118.750000 C 102.961588,114.762500 104.675889,109.025000 105.590196,106.000000 C 107.219677,100.608832 107.809489,97.612804 110.019650,83.500000 C 110.695347,79.185395 110.921845,68.391355 110.610063,55.363256 L 110.104227,34.226512 L 113.363903,31.363256 C 117.535475,27.699003 119.278677,26.588616 126.000000,23.314302 C 132.711954,20.044553 147.080562,18.922686 154.748812,21.069663 C 171.656300,25.803467 185.274471,39.356941 187.574285,53.739190 C 188.170304,57.466486 187.763296,58.427930 181.906639,67.127431 C 174.847108,77.613685 165.086368,96.146340 163.013349,103.000000 C 162.264739,105.475000 161.280486,107.927500 160.826120,108.450000 C 160.371754,108.972500 160.000000,110.216106 160.000000,111.213569 C 160.000000,112.211032 159.605240,113.808532 159.122756,114.763569 C 157.663167,117.652701 156.000000,123.510411 156.000000,125.761981 C 156.000000,126.927973 155.609688,128.123192 155.132640,128.418024 C 153.568759,129.384556 151.022970,151.296664 150.586401,167.548400 C 150.408390,174.175021 149.946737,180.592456 149.560504,181.809368 C 148.712805,184.480233 144.252235,187.023103 137.500000,188.684789 C 131.815903,190.083613 115.262572,190.316208 113.000000,189.029045" fill="none" stroke="black" stroke-width="5"/>
</svg>
