<?xml version="1.0" encoding="utf-8" ?>
<svg xmlns="http://www.w3.org/2000/svg" xmlns:ev="http://www.w3.org/2001/xml-events" xmlns:xlink="http://www.w3.org/1999/xlink" baseProfile="full" height="221" version="1.1" width="260">
  <defs/>
  <path d="M 69.557534,146.483455 C 68.700890,144.433218 68.000000,142.415371 68.000000,141.999350 C 68.000000,141.126231 76.849423,133.527439 82.000000,129.977878 C 83.925000,128.651249 86.094643,126.988514 86.821429,126.282913 C 87.548214,125.577311 88.471619,125.000000 88.873438,125.000000 C 89.275258,125.000000 92.055615,122.721475 95.052010,119.936611 C 98.048404,117.151748 102.187500,113.771103 104.250000,112.424067 C 106.312500,111.077031 108.000000,109.627579 108.000000,109.203063 C 108.000000,108.778547 109.237500,107.682910 110.750000,106.768314 C 112.262500,105.853719 115.409094,103.394196 117.742431,101.302707 C 120.075768,99.211218 123.409139,96.375000 125.149923,95.000000 C 126.890707,93.625000 129.481613,91.507684 130.907492,90.294854 C 132.333371,89.082023 138.000000,84.367864 143.500000,79.818944 C 149.000000,75.270024 154.372353,70.749840 155.438561,69.774090 C 156.504770,68.798341 157.902005,68.000000 158.543527,68.000000 C 159.185049,68.000000 160.787696,66.746990 162.104965,65.215534 C 165.148119,61.677566 187.740348,42.972486 191.880529,40.563062 C 192.766011,40.047746 194.617634,38.573177 195.995248,37.286240 L 198.500000,34.946356 L 200.250000,37.083962 C 201.212500,38.259645 202.000000,39.774410 202.000000,40.450106 C 202.000000,41.667612 197.451102,46.202286 193.392170,49.031020 C 192.232864,49.838959 188.006387,53.425000 184.000000,57.000000 C 179.993613,60.575000 175.767136,64.157074 174.607830,64.960165 C 173.448523,65.763256 171.150000,67.673673 169.500000,69.205537 C 167.850000,70.737402 165.963017,71.992827 165.306704,71.995373 C 164.650391,71.997918 163.525391,72.791042 162.806704,73.757871 C 161.694050,75.254692 155.994190,80.178337 148.634598,86.000000 C 144.299069,89.429536 137.273680,95.512977 134.029158,98.647176 C 132.120195,100.491229 129.986508,102.000000 129.287632,102.000000 C 128.588756,102.000000 127.454888,102.900000 126.767927,104.000000 C 126.080966,105.100000 124.938029,106.000000 124.228068,106.000000 C 123.518108,106.000000 122.679017,106.672893 122.363424,107.495317 C 122.047830,108.317741 117.786953,112.182597 112.894808,116.083886 C 108.002664,119.985175 104.000000,123.560725 104.000000,124.029552 C 104.000000,126.110152 106.054368,125.743241 109.866415,122.981809 C 112.130362,121.341814 114.324079,120.001250 114.741341,120.002778 C 115.158604,120.004305 117.300000,119.139369 119.500000,118.080697 C 121.700000,117.022025 126.650000,114.917326 130.500000,113.403589 C 134.350000,111.889851 141.848626,108.522450 147.163613,105.920475 C 152.478600,103.318500 157.878600,100.862546 159.163613,100.462799 C 160.448626,100.063053 167.125000,97.065120 174.000000,93.800726 C 180.875000,90.536333 187.400000,87.491618 188.500000,87.034693 C 189.600000,86.577767 192.143008,85.483038 194.151129,84.601960 C 196.159250,83.720882 198.075106,83.000000 198.408587,83.000000 C 198.911852,83.000000 216.830143,74.685243 224.715911,70.792417 C 227.365255,69.484563 230.000000,71.155667 230.000000,74.143884 C 230.000000,75.907794 229.188447,76.435701 222.500000,79.022552 C 219.262150,80.274837 212.861118,83.111461 207.562847,85.641967 C 204.847412,86.938885 201.766879,88.000000 200.717217,88.000000 C 199.667555,88.000000 197.598150,88.862017 196.118539,89.915593 C 194.638928,90.969169 190.744461,93.027924 187.464169,94.490603 C 178.416653,98.524883 166.562140,104.290957 166.000000,104.930846 C 164.874422,106.212100 157.113420,110.000000 155.613845,110.000000 C 154.726230,110.000000 154.000000,110.340150 154.000000,110.755889 C 154.000000,111.171627 152.537500,112.092537 150.750000,112.802354 C 147.583271,114.059863 132.004882,121.670287 127.000000,124.404809 C 125.625000,125.156069 122.137500,126.799243 119.250000,128.056306 C 116.362500,129.313369 114.000000,130.692592 114.000000,131.121247 C 114.000000,132.534448 117.339446,133.801422 118.934710,132.993459 C 121.486953,131.700808 135.505826,129.873137 137.372960,130.589624 C 138.406535,130.986244 139.577082,130.630234 140.298044,129.699990 C 141.022628,128.765074 143.684397,127.961677 147.000000,127.677151 C 150.025000,127.417563 154.525000,126.699722 157.000000,126.081950 C 159.475000,125.464178 164.875000,124.528022 169.000000,124.001605 C 173.125000,123.475187 179.875000,122.369415 184.000000,121.544333 C 188.125000,120.719252 199.150000,118.655916 208.500000,116.959142 C 217.850000,115.262368 227.386769,113.452426 229.692820,112.937049 C 236.459496,111.424772 241.482731,111.770943 243.392438,113.881146 C 244.934503,115.585108 244.947976,115.909167 243.535479,117.321664 C 242.677823,118.179320 239.843982,119.158793 237.238053,119.498271 C 230.983694,120.313037 211.429326,123.875839 207.000000,125.007638 C 205.075000,125.499522 201.700000,126.147069 199.500000,126.446632 C 197.300000,126.746194 193.250000,127.464381 190.500000,128.042602 C 185.325240,129.130658 179.176410,130.196565 168.000000,131.943004 C 164.425000,132.501637 159.475000,133.449388 157.000000,134.049116 C 152.400667,135.163601 146.382721,136.215966 137.500000,137.459101 C 134.750000,137.843963 131.600000,138.537586 130.500000,139.000485 C 129.400000,139.463383 126.250000,140.110267 123.500000,140.438005 C 120.750000,140.765742 111.750000,142.400585 103.500000,144.070990 C 95.250000,145.741395 85.800000,147.497257 82.500000,147.972906 C 79.200000,148.448554 75.288390,149.146745 73.807534,149.524440 C 71.395933,150.139523 70.952593,149.822302 69.557534,146.483455" fill="none" stroke="black" stroke-width="5"/>
</svg>
