<?xml version="1.0" encoding="utf-8" ?>
<svg xmlns="http://www.w3.org/2000/svg" xmlns:ev="http://www.w3.org/2001/xml-events" xmlns:xlink="http://www.w3.org/1999/xlink" baseProfile="full" height="219" version="1.1" width="258">
  <defs/>
  <path d="M 37.412828,173.858952 C 37.024964,173.231376 36.355399,160.068876 35.924905,144.608952 C 35.494411,129.149028 34.889696,112.900000 34.581094,108.500000 C 33.952443,99.536803 32.672178,56.342842 32.880999,51.141700 C 33.048533,46.968912 33.625452,46.000000 35.942520,46.000000 C 38.367155,46.000000 38.776674,50.372827 40.016330,89.500000 C 41.717543,143.195251 42.168201,153.480639 42.851550,154.208359 C 43.217393,154.597957 44.016164,154.597957 44.626598,154.208359 C 45.949816,153.363841 50.000000,145.171039 50.000000,143.338922 C 50.000000,141.682310 54.266032,132.603986 55.250000,132.166667 C 55.662500,131.983333 56.000000,130.952906 56.000000,129.876829 C 56.000000,128.800751 56.900000,126.156178 58.000000,124.000000 C 59.100000,121.843822 60.000000,119.606845 60.000000,119.028940 C 60.000000,118.451035 60.833490,116.070607 61.852200,113.739102 C 62.870910,111.407596 64.719546,107.025000 65.960280,104.000000 C 67.201014,100.975000 69.967524,94.865545 72.108080,90.423433 C 74.248636,85.981321 76.000000,81.694864 76.000000,80.897972 C 76.000000,80.101080 77.335878,76.760535 78.968617,73.474539 C 80.601356,70.188543 81.951356,66.983196 81.968617,66.351546 C 81.985878,65.719896 83.350000,62.636700 85.000000,59.500000 C 86.650000,56.363300 88.000000,53.161498 88.000000,52.384885 C 88.000000,51.608273 88.413229,50.191468 88.918286,49.236431 C 90.704171,45.859417 94.000000,38.009760 94.000000,37.133343 C 94.000000,36.644694 94.675000,35.684689 95.500000,35.000000 C 96.325000,34.315311 97.000000,32.965311 97.000000,32.000000 C 97.000000,29.179227 99.665301,27.477335 101.586203,29.071542 C 103.470417,30.635301 102.991830,34.043760 100.026173,40.181963 C 98.911778,42.488496 98.000000,44.785426 98.000000,45.286252 C 98.000000,45.787079 96.267886,49.865056 94.150859,54.348423 C 92.033831,58.831790 89.729867,64.075000 89.030939,66.000000 C 88.332011,67.925000 86.416981,72.425000 84.775317,76.000000 C 83.133653,79.575000 81.408602,83.400000 80.941871,84.500000 C 80.475139,85.600000 78.817101,89.425000 77.257342,93.000000 C 75.697582,96.575000 73.772086,101.525000 72.978463,104.000000 C 72.184839,106.475000 69.840021,111.786715 67.767755,115.803811 C 65.695490,119.820908 64.000000,123.763312 64.000000,124.564710 C 64.000000,126.148471 61.034785,133.311894 57.942671,139.198118 C 56.874202,141.232083 56.000000,143.819583 56.000000,144.948118 C 56.000000,146.076653 55.550000,147.000000 55.000000,147.000000 C 54.450000,147.000000 54.000000,147.681106 54.000000,148.513569 C 54.000000,149.346032 53.586771,150.808532 53.081714,151.763569 C 50.756475,156.160473 48.000000,163.133068 48.000000,164.617932 C 48.000000,166.015266 48.776090,166.157646 53.250000,165.581086 C 56.137500,165.208970 59.850000,164.508618 61.500000,164.024749 C 74.556251,160.195949 79.209744,158.926262 84.000000,157.885713 C 87.025000,157.228617 90.175000,156.361257 91.000000,155.958247 C 91.825000,155.555236 96.100000,154.477659 100.500000,153.563632 C 104.900000,152.649605 109.625000,151.664971 111.000000,151.375557 C 112.375000,151.086144 114.400000,150.460020 115.500000,149.984171 C 116.600000,149.508322 119.750000,148.638619 122.500000,148.051497 C 125.250000,147.464375 129.975000,146.268191 133.000000,145.393309 C 136.025000,144.518427 139.625000,143.588131 141.000000,143.325983 C 142.375000,143.063835 144.400000,142.463910 145.500000,141.992817 C 146.600000,141.521723 148.850000,140.928026 150.500000,140.673490 C 154.347645,140.079935 165.897371,137.110768 168.500000,136.046108 C 170.329023,135.297907 173.094388,134.510862 183.000000,131.919293 C 184.925000,131.415662 188.300000,130.890290 190.500000,130.751800 C 193.911958,130.537017 194.544536,130.812147 194.802948,132.623301 C 195.020013,134.144667 194.453033,134.904541 192.802948,135.303726 C 191.536327,135.610144 188.700000,136.376098 186.500000,137.005846 C 184.300000,137.635594 180.700000,138.532964 178.500000,139.000000 C 176.300000,139.467036 172.700000,140.363017 170.500000,140.991067 C 168.300000,141.619118 164.925000,142.531352 163.000000,143.018254 C 155.460218,144.925337 145.425934,147.687251 144.000000,148.247960 C 143.175000,148.572369 141.375000,149.056475 140.000000,149.323753 C 138.625000,149.591031 131.425000,151.469852 124.000000,153.498912 C 116.575000,155.527973 108.025000,157.771384 105.000000,158.484272 C 101.975000,159.197160 96.125000,160.784360 92.000000,162.011384 C 87.875000,163.238409 82.925000,164.440716 81.000000,164.683178 C 79.075000,164.925640 76.600000,165.504386 75.500000,165.969280 C 74.400000,166.434174 71.250000,167.334682 68.500000,167.970410 C 60.782366,169.754523 55.719569,171.122645 53.202947,172.104139 C 51.939568,172.596863 49.603625,173.000000 48.011964,173.000000 C 46.420302,173.000000 44.839919,173.450000 44.500000,174.000000 C 43.652308,175.371594 38.281632,175.264707 37.412828,173.858952" fill="black" stroke="black" stroke-width="1"/>
</svg>
