<?xml version="1.0" encoding="utf-8" ?>
<svg xmlns="http://www.w3.org/2000/svg" xmlns:ev="http://www.w3.org/2001/xml-events" xmlns:xlink="http://www.w3.org/1999/xlink" baseProfile="full" height="218" version="1.1" width="258">
  <defs/>
  <path d="M 52.000000,195.173607 C 52.000000,192.393042 52.450000,189.839919 53.000000,189.500000 C 53.550000,189.160081 54.000000,187.783524 54.000000,186.440983 C 54.000000,185.098442 54.450000,184.000000 55.000000,184.000000 C 55.550000,184.000000 56.000000,183.448642 56.000000,182.774761 C 56.000000,182.100880 57.071424,178.613380 58.380943,175.024761 C 59.690461,171.436142 61.569985,165.800000 62.557662,162.500000 C 63.545339,159.200000 64.723915,156.072500 65.176719,155.550000 C 65.629524,155.027500 66.000000,153.618477 66.000000,152.418837 C 66.000000,151.219197 68.018094,144.671697 70.484653,137.868837 C 72.951212,131.065977 74.976212,124.929049 74.984653,124.231219 C 75.008800,122.234887 79.917858,108.682142 81.013784,107.586216 C 81.556203,107.043797 82.000000,105.141558 82.000000,103.359017 C 82.000000,101.576476 82.450000,99.839919 83.000000,99.500000 C 83.550000,99.160081 84.000000,97.664671 84.000000,96.176866 C 84.000000,94.689061 84.945283,91.003119 86.100629,87.985883 C 87.255974,84.968647 88.770711,80.250000 89.466710,77.500000 C 90.162709,74.750000 91.467426,70.757544 92.366081,68.627876 C 93.264736,66.498208 94.000000,63.995231 94.000000,63.065705 C 94.000000,62.136180 94.900000,59.512873 96.000000,57.236136 C 97.100000,54.959398 97.995445,52.512375 97.989878,51.798306 C 97.980004,50.531819 101.433514,39.490671 103.087750,35.500000 C 103.543728,34.400000 104.048021,32.379597 104.208401,31.010216 C 104.572872,27.898223 107.502399,27.201708 108.938745,29.885543 C 109.756859,31.414203 109.563851,33.154306 108.127901,37.195873 C 107.091409,40.113143 105.247811,45.875000 104.031016,50.000000 C 101.840480,57.426036 90.444589,92.645831 88.985246,96.500000 C 88.568741,97.600000 87.663178,100.525000 86.972882,103.000000 C 86.282586,105.475000 84.911088,109.975000 83.925107,113.000000 C 82.939127,116.025000 80.705468,123.225000 78.961422,129.000000 C 71.604065,153.362162 65.818960,171.614224 64.940411,173.236431 C 64.423185,174.191468 64.000000,175.926116 64.000000,177.091204 C 64.000000,178.256292 62.875000,181.449371 61.500000,184.186935 C 58.540934,190.078304 58.606556,189.635044 60.581250,190.392805 C 61.450938,190.726536 63.126066,190.324681 64.303757,189.499794 C 65.481447,188.674907 67.379885,188.000000 68.522506,188.000000 C 69.665128,188.000000 71.027500,187.620973 71.550000,187.157717 C 72.072500,186.694461 77.225000,184.830462 83.000000,183.015496 C 88.775000,181.200531 94.850000,179.158475 96.500000,178.477594 C 98.150000,177.796713 101.975000,176.470618 105.000000,175.530717 C 108.025000,174.590816 112.407596,172.961900 114.739102,171.910903 C 117.070607,170.859906 119.889213,170.000000 121.002670,170.000000 C 122.116127,170.000000 123.808532,169.610320 124.763569,169.134044 C 126.441852,168.297086 130.246029,166.895928 136.500000,164.811271 C 138.150000,164.261271 140.850000,163.359958 142.500000,162.808354 C 149.596649,160.435903 157.524649,157.504466 163.000000,155.228325 C 164.375000,154.656728 168.875000,153.179610 173.000000,151.945842 C 186.241634,147.985328 204.447078,141.974610 206.236431,140.972486 C 207.191468,140.437619 208.660074,140.000000 209.500000,140.000000 C 210.339926,140.000000 211.808532,139.608514 212.763569,139.130030 C 218.468269,136.271918 224.305866,134.000000 225.944964,134.000000 C 229.123510,134.000000 231.000000,135.123518 231.000000,137.026622 C 231.000000,138.336889 229.544953,139.297058 225.750000,140.491039 C 222.862500,141.399513 219.600000,142.537570 218.500000,143.020053 C 217.400000,143.502536 213.350000,144.879448 209.500000,146.079856 C 205.650000,147.280264 201.600000,148.621355 200.500000,149.060057 C 195.933792,150.881153 183.286548,155.250091 180.500000,155.968975 C 178.850000,156.394648 175.475000,157.517620 173.000000,158.464470 C 162.094083,162.636697 149.019203,167.095921 146.000000,167.672896 C 144.625000,167.935660 142.375000,168.626961 141.000000,169.209121 C 136.623589,171.062042 134.552553,171.820246 132.500000,172.320957 C 128.689370,173.250544 115.495656,178.250344 114.550000,179.123168 C 114.027500,179.605425 112.626892,180.000000 111.437538,180.000000 C 110.248183,180.000000 106.175683,181.258966 102.387538,182.797703 C 98.599392,184.336439 93.475000,186.173568 91.000000,186.880210 C 88.525000,187.586853 84.860817,188.633967 82.857372,189.207131 C 77.903821,190.624288 76.603664,191.549698 77.508728,193.014122 C 78.060883,193.907527 80.113403,194.070784 84.886843,193.600973 C 88.524080,193.242990 99.825000,192.531470 110.000000,192.019818 C 120.175000,191.508166 135.025000,190.606187 143.000000,190.015421 C 163.522442,188.495175 187.565058,187.041492 208.500000,186.055108 C 227.035037,185.181801 229.000000,185.462782 229.000000,188.986521 C 229.000000,191.198416 225.045380,191.732338 207.000000,191.956791 C 199.575000,192.049145 190.350000,192.532754 186.500000,193.031478 C 182.650000,193.530202 175.675000,193.952519 171.000000,193.969960 C 166.325000,193.987401 157.775000,194.422914 152.000000,194.937766 C 146.225000,195.452619 135.425000,196.140304 128.000000,196.465957 C 120.575000,196.791610 112.925000,197.258537 111.000000,197.503574 C 106.733485,198.046665 91.459132,198.815993 68.907783,199.623645 L 52.000000,200.229179 L 52.000000,195.173607" fill="black" stroke="black" stroke-width="1"/>
</svg>
