<?xml version="1.0" encoding="utf-8" ?>
<svg xmlns="http://www.w3.org/2000/svg" xmlns:ev="http://www.w3.org/2001/xml-events" xmlns:xlink="http://www.w3.org/1999/xlink" baseProfile="full" height="219" version="1.1" width="257">
  <defs/>
  <path d="M 115.000000,193.222506 C 115.000000,191.694885 115.724837,189.410163 116.610748,188.145347 C 117.496660,186.880531 119.909037,182.617903 121.971585,178.672841 C 129.345491,164.568680 132.148034,159.486006 133.067146,158.550000 C 133.580216,158.027500 134.000000,156.790000 134.000000,155.800000 C 134.000000,154.810000 134.337500,153.996489 134.750000,153.992198 C 135.162500,153.987907 135.974547,152.975407 136.554549,151.742198 C 139.262230,145.985084 144.576513,136.465994 145.250000,136.166667 C 145.662500,135.983333 146.000000,135.008333 146.000000,134.000000 C 146.000000,132.991667 146.337500,132.016667 146.750000,131.833333 C 147.396000,131.546222 157.498652,112.216833 167.307865,92.500000 C 168.949630,89.200000 170.592343,86.275000 170.958338,86.000000 C 171.324334,85.725000 173.916457,81.000000 176.718612,75.500000 C 179.520767,70.000000 182.834539,63.668229 184.082549,61.429397 C 186.675736,56.777426 186.166063,54.000000 182.719214,54.000000 C 181.430259,54.000000 178.512873,53.100000 176.236136,52.000000 C 173.959398,50.900000 171.393769,50.000000 170.534737,50.000000 C 169.675706,50.000000 168.191468,49.563310 167.236431,49.029579 C 164.461979,47.479049 150.784123,42.836784 147.500000,42.331032 C 145.850000,42.076933 142.925000,41.056017 141.000000,40.062329 C 139.075000,39.068641 135.573264,37.965514 133.218365,37.610935 C 129.255829,37.014294 117.798181,33.077229 113.763569,30.925898 C 112.808532,30.416654 111.147589,30.000000 110.072586,30.000000 C 108.997582,30.000000 107.839919,29.550000 107.500000,29.000000 C 107.160081,28.450000 105.585081,28.000000 104.000000,28.000000 C 102.414919,28.000000 100.839919,27.550000 100.500000,27.000000 C 100.160081,26.450000 98.868047,26.000000 97.628812,26.000000 C 96.389578,26.000000 93.512873,25.100000 91.236136,24.000000 C 88.959398,22.900000 86.512375,21.981843 85.798306,21.959650 C 85.084238,21.937458 80.000000,20.323972 74.500000,18.374126 C 69.000000,16.424280 62.631643,14.600636 60.348095,14.321584 C 57.542714,13.978763 55.323118,12.902925 53.504136,11.004317 C 50.841903,8.225545 50.835745,8.186908 52.948214,7.516436 C 55.831870,6.601199 62.118735,7.755717 66.942619,10.086365 C 69.121042,11.138864 72.261438,12.000000 73.921277,12.000000 C 75.581117,12.000000 78.415355,12.808354 80.219584,13.796343 C 83.224667,15.441914 86.183367,16.467998 96.000000,19.269028 C 97.925000,19.818298 101.697509,21.107468 104.383353,22.133850 C 107.069197,23.160233 110.016697,24.000000 110.933353,24.000000 C 111.850009,24.000000 113.027500,24.371754 113.550000,24.826120 C 114.072500,25.280486 116.525000,26.231778 119.000000,26.940102 C 121.475000,27.648427 124.400000,28.560456 125.500000,28.966833 C 131.776448,31.285565 138.151609,33.336303 143.000000,34.596169 C 148.176726,35.941354 151.163499,37.044756 155.236431,39.116671 C 156.191468,39.602502 157.852411,40.000000 158.927414,40.000000 C 160.002418,40.000000 161.160081,40.450000 161.500000,41.000000 C 161.839919,41.550000 163.189919,42.000000 164.500000,42.000000 C 165.810081,42.000000 167.160081,42.450000 167.500000,43.000000 C 167.839919,43.550000 169.414919,44.000000 171.000000,44.000000 C 172.585081,44.000000 174.107111,44.364293 174.382289,44.809540 C 174.657467,45.254787 177.860437,46.240494 181.500000,47.000000 C 185.139563,47.759506 188.342533,48.745213 188.617711,49.190460 C 188.892889,49.635707 190.603443,50.000000 192.418944,50.000000 L 195.719854,50.000000 L 196.395000,66.750000 C 196.766331,75.962500 197.489135,93.625000 198.001231,106.000000 C 198.513327,118.375000 199.189759,135.700000 199.504413,144.500000 C 199.819066,153.300000 200.471296,163.200000 200.953812,166.500000 C 201.436327,169.800000 201.894993,176.072347 201.973069,180.438548 C 202.051144,184.804749 202.312137,188.696031 202.553053,189.085842 C 203.380665,190.424946 201.749418,196.000000 200.529988,196.000000 C 199.858981,196.000000 198.546185,195.156021 197.612664,194.124492 C 196.213556,192.578496 195.949521,190.408823 196.109832,181.775194 C 196.216796,176.014610 196.030880,170.858982 195.696686,170.318245 C 195.362491,169.777507 194.621313,158.347191 194.049622,144.917542 C 193.477931,131.487894 192.788488,116.225000 192.517527,111.000000 C 192.246566,105.775000 191.738930,94.750000 191.389447,86.500000 C 191.039964,78.250000 190.696868,70.187500 190.627012,68.583333 C 190.395363,63.263810 188.399357,64.846309 183.512019,74.224335 C 179.163923,82.567643 174.109142,92.094963 170.367133,99.000000 C 169.621987,100.375000 169.009549,102.030357 169.006161,102.678571 C 169.002772,103.326786 168.430032,104.451786 167.733405,105.178571 C 167.036778,105.905357 162.820224,113.700000 158.363285,122.500000 C 153.906346,131.300000 149.322211,140.075000 148.176317,142.000000 C 147.030423,143.925000 142.929257,151.681950 139.062613,159.237666 C 131.511079,173.993942 129.781897,177.218103 129.000000,178.000000 C 127.844576,179.155424 124.000000,187.301697 124.000000,188.594501 C 124.000000,189.367525 123.550000,190.000000 123.000000,190.000000 C 122.450000,190.000000 122.000000,190.605256 122.000000,191.345012 C 122.000000,193.154854 118.743053,196.000000 116.671259,196.000000 C 115.510723,196.000000 115.000000,195.151220 115.000000,193.222506" fill="black" stroke="black" stroke-width="1"/>
</svg>
