<?xml version="1.0" encoding="utf-8" ?>
<svg xmlns="http://www.w3.org/2000/svg" xmlns:ev="http://www.w3.org/2001/xml-events" xmlns:xlink="http://www.w3.org/1999/xlink" baseProfile="full" height="223" version="1.1" width="259">
  <defs/>
  <path d="M 206.035184,188.065741 C 205.465833,187.001899 205.000000,185.201899 205.000000,184.065741 C 205.000000,182.929584 204.606250,182.000000 204.125000,182.000000 C 203.643750,182.000000 202.990848,180.704241 202.674107,179.120536 C 202.357366,177.536830 201.401116,175.543973 200.549107,174.691964 C 199.697098,173.839955 199.000000,172.678330 199.000000,172.110575 C 199.000000,171.542821 196.300000,165.679542 193.000000,159.081069 C 189.700000,152.482595 186.989994,146.502479 186.977764,145.791922 C 186.965534,145.081365 186.075541,143.375000 185.000000,142.000000 C 183.924459,140.625000 183.034466,139.053986 183.022236,138.508858 C 183.010006,137.963730 181.474744,134.363730 179.610543,130.508858 C 177.746342,126.653986 174.562774,119.900000 172.535947,115.500000 C 170.509121,111.100000 168.434377,106.718606 167.925404,105.763569 C 167.416432,104.808532 167.000000,103.401132 167.000000,102.636014 C 167.000000,99.877767 164.529019,98.943863 161.931850,100.720513 C 160.594332,101.635470 159.275000,102.635155 159.000000,102.942036 C 157.544920,104.565802 149.984958,110.000000 149.181083,110.000000 C 148.666177,110.000000 147.633895,110.736203 146.887125,111.636006 C 146.140354,112.535810 143.947754,114.288958 142.014680,115.531890 C 140.081606,116.774823 136.700000,119.468764 134.500000,121.518426 C 132.300000,123.568088 128.187136,126.727599 125.360302,128.539562 C 122.533467,130.351525 119.914949,132.328598 119.541372,132.933059 C 119.167794,133.537520 115.405658,136.363461 111.181070,139.212927 C 106.956481,142.062394 102.600000,145.249939 101.500000,146.296361 C 100.400000,147.342783 97.025000,149.909421 94.000000,152.000000 C 90.975000,154.090579 87.600000,156.645546 86.500000,157.677705 C 85.400000,158.709864 82.925000,160.654897 81.000000,162.000000 C 79.075000,163.345103 76.627647,165.245373 75.561439,166.222821 C 74.495230,167.200270 73.262874,168.000000 72.822869,168.000000 C 71.968549,168.000000 69.389007,169.957578 64.916543,174.000000 C 60.842987,177.681870 58.893153,179.252322 55.000000,181.987067 C 53.075000,183.339284 50.627647,185.245373 49.561439,186.222821 C 46.108243,189.388542 43.000000,188.035789 43.000000,183.367186 C 43.000000,182.559104 44.462500,181.278120 46.250000,180.520553 C 48.037500,179.762987 50.211925,178.323449 51.082055,177.321580 C 53.742223,174.258661 58.924387,170.000000 59.991342,170.000000 C 60.546104,170.000000 61.000000,169.647023 61.000000,169.215608 C 61.000000,168.784192 62.401599,167.603270 64.114665,166.591337 C 65.827731,165.579404 68.158882,163.682381 69.295001,162.375730 C 70.431119,161.069078 71.842020,159.993963 72.430335,159.986586 C 73.018651,159.979208 74.625000,159.079596 76.000000,157.987448 C 77.375000,156.895301 83.450000,152.292485 89.500000,147.758969 C 95.550000,143.225453 100.650000,139.175064 100.833333,138.758106 C 101.016667,138.341148 101.594827,138.000000 102.118135,138.000000 C 102.641443,138.000000 105.641443,135.980987 108.784802,133.513304 C 111.928161,131.045621 118.365523,125.983121 123.090051,122.263304 C 127.814579,118.543487 133.173573,114.375000 134.998927,113.000000 C 138.512927,110.352980 148.806200,102.264185 153.000000,98.854161 C 154.375000,97.736134 156.512500,96.339341 157.750000,95.750177 C 160.712517,94.339746 160.605736,92.233114 157.500000,90.818046 C 156.125000,90.191554 155.000000,89.407432 155.000000,89.075553 C 155.000000,88.743674 153.200000,87.359675 151.000000,86.000000 C 148.800000,84.640325 147.000000,83.184095 147.000000,82.763932 C 147.000000,82.343769 146.421194,82.000000 145.713765,82.000000 C 145.006335,82.000000 142.418835,80.212772 139.963765,78.028382 C 137.508694,75.843992 135.109407,74.043992 134.632015,74.028382 C 134.154623,74.012772 132.279199,72.762500 130.464405,71.250000 C 128.649611,69.737500 124.990204,66.925000 122.332390,65.000000 C 119.674575,63.075000 116.905357,60.937500 116.178571,60.250000 C 115.451786,59.562500 114.547187,59.000000 114.168353,59.000000 C 113.789519,59.000000 112.359162,57.974718 110.989782,56.721596 C 109.620402,55.468474 106.925000,53.345785 105.000000,52.004509 C 103.075000,50.663233 100.905357,48.988514 100.178571,48.282913 C 99.451786,47.577311 98.471429,47.000000 98.000000,47.000000 C 97.528571,47.000000 96.542206,46.437500 95.808078,45.750000 C 93.323407,43.423144 85.179438,38.000000 84.169856,38.000000 C 83.618102,38.000000 83.016667,37.662500 82.833333,37.250000 C 82.378411,36.226425 75.630103,31.181877 69.528568,27.304317 C 66.762856,25.546691 63.600000,23.275566 62.500000,22.257373 C 60.567712,20.468787 57.389979,18.785385 53.750000,17.622062 C 51.156626,16.793231 51.318383,11.000000 53.934900,11.000000 C 56.925366,11.000000 60.212634,12.534846 63.500000,15.466005 C 65.150000,16.937217 68.975000,19.910578 72.000000,22.073474 C 75.025000,24.236370 80.650000,28.286206 84.500000,31.073109 C 88.350000,33.860013 94.650000,38.351970 98.500000,41.055236 C 112.432201,50.837691 114.521342,52.424110 115.806704,54.197334 C 116.525391,55.188800 117.569312,56.000000 118.126529,56.000000 C 119.047835,56.000000 127.811413,61.588525 129.000000,62.934001 C 129.275000,63.245301 131.075000,64.604941 133.000000,65.955424 C 134.925000,67.305908 136.950000,68.781882 137.500000,69.235368 C 138.846988,70.345985 148.251480,77.130071 151.036298,79.000000 C 152.264940,79.825000 156.769595,83.200000 161.046640,86.500000 C 167.355237,91.367464 169.406051,93.663573 171.911544,98.664432 C 173.610195,102.054870 175.000000,105.254160 175.000000,105.773967 C 175.000000,106.645103 178.590308,114.313049 183.129373,123.136155 C 184.158218,125.136039 185.000000,127.498539 185.000000,128.386155 C 185.000000,129.273770 185.450000,130.000000 186.000000,130.000000 C 186.550000,130.000000 187.000000,130.681106 187.000000,131.513569 C 187.000000,132.346032 187.402921,133.808532 187.895381,134.763569 C 188.387840,135.718606 190.712402,140.550000 193.061074,145.500000 C 195.409746,150.450000 197.799122,155.400000 198.370799,156.500000 C 203.414376,166.204669 206.953673,173.711990 206.974690,174.750000 C 206.988611,175.437500 207.450000,176.000000 208.000000,176.000000 C 208.550000,176.000000 209.000000,176.471738 209.000000,177.048306 C 209.000000,177.624875 209.900000,179.959398 211.000000,182.236136 C 213.875225,188.187166 213.649944,190.000000 210.035184,190.000000 C 208.127413,190.000000 206.701294,189.310379 206.035184,188.065741" fill="black" stroke="black" stroke-width="1"/>
</svg>
