<?xml version="1.0" encoding="utf-8" ?>
<svg xmlns="http://www.w3.org/2000/svg" xmlns:ev="http://www.w3.org/2001/xml-events" xmlns:xlink="http://www.w3.org/1999/xlink" baseProfile="full" height="221" version="1.1" width="258">
  <defs/>
  <path d="M 38.196563,200.142644 C 37.232504,199.531171 37.003292,197.056020 37.316237,190.636428 C 37.548948,185.862711 37.347994,181.715072 36.869674,181.419454 C 35.591795,180.629682 35.791583,162.608417 37.092641,161.307359 C 37.820990,160.579010 37.864584,159.595467 37.223393,158.357359 C 36.158280,156.300678 35.644064,139.696814 36.556455,136.822126 C 37.310091,134.447630 39.656517,134.489679 40.946913,136.900806 C 41.569076,138.063329 41.945499,149.424184 41.916062,166.150806 C 41.889590,181.192863 42.157298,194.252337 42.510969,195.171859 C 43.162983,196.867057 41.525369,201.012762 40.214816,200.984687 C 39.821667,200.976265 38.913453,200.597346 38.196563,200.142644" fill="none" stroke="black" stroke-width="5"/>
  <path d="M 209.109383,156.631799 C 208.484855,155.879288 208.050039,153.250040 208.143126,150.789024 C 208.236213,148.328009 208.040715,145.874895 207.708686,145.337661 C 207.376657,144.800426 206.844801,131.792175 206.526784,116.430435 C 206.208767,101.068696 205.731716,84.477754 205.466670,79.561675 C 205.201624,74.645597 205.243520,69.808097 205.559772,68.811675 C 206.236322,66.680055 210.533068,66.340811 211.307098,68.357902 C 211.593690,69.104749 211.918528,77.542249 212.028960,87.107902 C 212.243750,105.713043 212.668558,119.599071 213.585289,137.980824 C 214.438085,155.080579 212.954082,161.264378 209.109383,156.631799" fill="none" stroke="black" stroke-width="5"/>
  <path d="M 93.606338,47.273005 C 93.006952,46.673619 86.382413,46.488190 53.356989,46.146379 C 41.927406,46.028084 39.105675,45.717767 38.649478,44.528939 C 38.339004,43.719855 38.781740,42.361117 39.633337,41.509520 C 40.943736,40.199121 43.511416,40.041146 56.340847,40.481599 C 64.678381,40.767839 87.025000,41.232627 106.000000,41.514461 C 124.975000,41.796295 142.205148,42.205384 144.289219,42.423547 C 148.705834,42.885884 151.111831,44.544999 150.327966,46.587717 C 149.863829,47.797238 145.306321,48.019279 122.006980,47.967511 C 106.734672,47.933577 93.954383,47.621050 93.606338,47.273005" fill="none" stroke="black" stroke-width="5"/>
</svg>
