<?xml version="1.0" encoding="utf-8" ?>
<svg xmlns="http://www.w3.org/2000/svg" xmlns:ev="http://www.w3.org/2001/xml-events" xmlns:xlink="http://www.w3.org/1999/xlink" baseProfile="full" height="221" version="1.1" width="259">
  <defs/>
  <path d="M 20.029313,199.250000 C 20.068832,196.890745 25.544680,191.000000 27.698249,191.000000 C 28.647792,191.000000 30.566636,189.832515 31.962345,188.405589 C 35.227775,185.067126 48.707663,175.000000 49.912437,175.000000 C 50.418930,175.000000 50.983333,174.645840 51.166667,174.212977 C 51.350000,173.780114 53.513889,171.867614 55.975308,169.962977 C 58.436727,168.058340 61.056370,165.937500 61.796737,165.250000 C 62.537103,164.562500 63.511026,164.000000 63.961010,164.000000 C 64.410994,164.000000 66.516351,162.435441 68.639582,160.523203 C 70.762812,158.610964 73.062500,157.035964 73.750000,157.023203 C 74.437500,157.010441 75.003075,156.662500 75.006833,156.250000 C 75.019091,154.904590 81.567681,151.000000 83.811880,151.000000 C 86.952952,151.000000 86.631853,154.381134 83.250000,156.916537 C 81.737500,158.050470 80.050000,159.320631 79.500000,159.739117 C 78.950000,160.157603 76.815575,161.625000 74.756833,163.000000 C 72.698091,164.375000 71.010591,165.837500 71.006833,166.250000 C 71.003075,166.662500 70.412938,167.000000 69.695417,167.000000 C 68.977897,167.000000 66.747681,168.462500 64.739382,170.250000 C 62.731084,172.037500 59.380646,174.531875 57.293965,175.793055 C 55.207284,177.054236 51.475000,179.859707 49.000000,182.027435 C 46.525000,184.195163 44.223479,185.975788 43.885509,185.984380 C 43.547539,185.992971 41.747539,187.342812 39.885509,188.984027 C 38.023479,190.625242 36.231354,191.975242 35.903010,191.984027 C 35.574665,191.992812 34.224665,192.951021 32.903010,194.113379 C 24.986268,201.075930 19.965170,203.079355 20.029313,199.250000" fill="none" stroke="black" stroke-width="5"/>
  <path d="M 218.940815,192.428686 C 218.277838,191.629849 215.135966,189.590769 211.958876,187.897397 C 208.781786,186.204026 205.353820,184.063394 204.341174,183.140438 C 203.328528,182.217482 200.250000,180.020144 197.500000,178.257464 C 194.750000,176.494785 191.956493,174.590760 191.292206,174.026297 C 190.627920,173.461834 189.810069,173.000000 189.474760,173.000000 C 189.139451,173.000000 186.424076,171.011549 183.440593,168.581221 C 180.457109,166.150892 176.723271,163.878494 175.143173,163.531446 C 173.563076,163.184399 171.328275,162.022849 170.176948,160.950225 C 169.025621,159.877601 167.560691,159.000000 166.921546,159.000000 C 165.423000,159.000000 157.777099,154.287609 153.530487,150.746700 C 151.714369,149.232386 148.705416,147.357035 146.843925,146.579254 C 142.315045,144.686967 139.276348,141.323652 140.757440,139.842560 C 141.571016,139.028984 143.134562,139.502842 146.609721,141.616189 C 149.217875,143.202285 152.510170,145.175000 153.925932,146.000000 C 155.341695,146.825000 158.075035,148.672555 160.000023,150.105677 C 163.342338,152.593977 167.973816,155.144759 174.500000,158.091525 C 176.150000,158.836549 180.062809,161.145739 183.195131,163.223057 C 186.327452,165.300376 189.252452,167.004792 189.695131,167.010648 C 190.137809,167.016505 192.003977,168.569287 193.842170,170.461276 C 195.680364,172.353264 200.405364,175.471993 204.342170,177.391784 C 208.278977,179.311575 212.400000,181.696292 213.500000,182.691156 C 214.600000,183.686020 217.184425,185.625000 219.243167,187.000000 C 223.079852,189.562459 224.109140,192.360406 221.573113,193.333570 C 220.788325,193.634722 219.603791,193.227524 218.940815,192.428686" fill="none" stroke="black" stroke-width="5"/>
  <path d="M 140.500000,37.975427 C 132.800000,37.686912 111.087500,37.524998 92.250000,37.615617 L 58.000000,37.780379 L 58.000000,34.310914 L 58.000000,30.841448 L 107.460529,31.214586 C 134.663820,31.419812 157.180073,31.846740 157.496648,32.163314 C 157.813222,32.479889 164.281104,32.548817 171.869718,32.316489 C 186.512247,31.868202 188.647105,32.455497 187.811221,36.701961 C 187.505937,38.252869 186.360668,38.500000 179.478646,38.500000 C 175.090391,38.500000 169.250000,38.265505 166.500000,37.978901 C 163.750000,37.692297 159.925000,37.692297 158.000000,37.978901 C 156.075000,38.265505 148.200000,38.263942 140.500000,37.975427" fill="none" stroke="black" stroke-width="5"/>
</svg>
