<?xml version="1.0" encoding="utf-8" ?>
<svg xmlns="http://www.w3.org/2000/svg" xmlns:ev="http://www.w3.org/2001/xml-events" xmlns:xlink="http://www.w3.org/1999/xlink" baseProfile="full" height="220" version="1.1" width="260">
  <defs/>
  <path d="M 34.750000,173.204348 C 32.016717,172.967406 31.004152,172.421168 31.015313,171.189635 C 31.053172,167.012187 30.816105,167.034465 76.049301,166.957711 C 99.947186,166.917160 123.775000,166.758318 129.000000,166.604730 C 139.067647,166.308791 142.000000,167.324874 142.000000,171.109329 C 142.000000,172.819433 139.476666,172.904099 91.127935,172.816257 C 63.148299,172.765422 39.860799,172.905089 39.377935,173.126628 C 38.895071,173.348167 36.812500,173.383141 34.750000,173.204348" fill="black" stroke="black" stroke-width="1"/>
  <path d="M 68.000000,126.587843 C 68.000000,124.761887 69.455367,123.182262 73.988691,120.087843 C 77.282470,117.839529 80.225692,116.000000 80.529183,116.000000 C 81.073227,116.000000 87.027896,111.995209 88.000000,110.975530 C 88.275000,110.687071 90.637500,109.337844 93.250000,107.977247 C 95.862500,106.616650 98.000000,105.165162 98.000000,104.751717 C 98.000000,104.338273 98.681106,104.000000 99.513569,104.000000 C 100.925586,104.000000 104.870035,102.160796 106.000000,100.975530 C 106.275000,100.687071 108.637500,99.337844 111.250000,97.977247 C 113.862500,96.616650 116.000000,95.219756 116.000000,94.873037 C 116.000000,94.526319 117.350000,93.683452 119.000000,93.000000 C 120.650000,92.316548 122.000000,91.418203 122.000000,91.003680 C 122.000000,90.589156 123.295759,89.990848 124.879464,89.674107 C 126.463170,89.357366 128.375670,88.499685 129.129464,87.768150 C 131.455779,85.510529 149.671336,75.000000 151.257651,75.000000 C 153.796897,75.000000 155.464137,77.735823 154.000000,79.500000 C 153.315311,80.325000 152.340610,81.000000 151.833998,81.000000 C 151.327387,81.000000 145.312493,84.375000 138.467569,88.500000 C 131.622644,92.625000 125.760823,96.000000 125.441301,96.000000 C 125.121778,96.000000 122.898193,97.350000 120.500000,99.000000 C 118.101807,100.650000 115.658228,102.000000 115.069825,102.000000 C 114.481421,102.000000 114.000000,102.338273 114.000000,102.751717 C 114.000000,103.165162 111.862500,104.616650 109.250000,105.977247 C 106.637500,107.337844 104.275000,108.688477 104.000000,108.978655 C 103.247297,109.772901 92.940571,116.000000 92.378685,116.000000 C 92.110052,116.000000 89.239644,117.800000 86.000000,120.000000 C 82.760356,122.200000 79.836173,124.000000 79.501816,124.000000 C 79.167458,124.000000 77.238306,125.125000 75.214812,126.500000 C 70.455744,129.733870 68.000000,129.763770 68.000000,126.587843" fill="none" stroke="black" stroke-width="5"/>
  <path d="M 15.250000,20.368662 C 13.355351,19.557254 13.753481,17.202301 15.987431,16.006727 C 17.080518,15.421724 21.243018,14.962546 25.237431,14.986330 C 29.231844,15.010115 33.850000,14.979477 35.500000,14.918247 C 37.150000,14.857017 78.437500,14.622128 127.250000,14.396272 L 216.000000,13.985625 L 216.000000,16.899503 L 216.000000,19.813381 L 124.250000,19.928475 C 73.787500,19.991776 28.900000,20.237164 24.500000,20.473780 C 20.100000,20.710396 15.937500,20.663093 15.250000,20.368662" fill="black" stroke="black" stroke-width="1"/>
</svg>
