<?xml version="1.0" encoding="utf-8" ?>
<svg xmlns="http://www.w3.org/2000/svg" xmlns:ev="http://www.w3.org/2001/xml-events" xmlns:xlink="http://www.w3.org/1999/xlink" baseProfile="full" height="217" version="1.1" width="261">
  <defs/>
  <path d="M 234.340114,208.793328 C 232.657061,206.981998 227.617013,202.868619 223.140009,199.652487 C 218.663004,196.436355 215.000000,193.429179 215.000000,192.969875 C 215.000000,192.510570 214.153450,191.866091 213.118778,191.537699 C 212.084106,191.209306 210.171606,190.009386 208.868778,188.871209 C 207.565950,187.733032 204.745759,185.383892 202.601686,183.650898 C 200.457613,181.917904 197.788962,179.487500 196.671350,178.250000 C 195.553739,177.012500 194.133418,176.000000 193.515082,176.000000 C 192.469760,176.000000 188.067602,172.386929 181.916667,166.480601 C 180.495833,165.116270 178.878078,164.000000 178.321654,164.000000 C 177.765231,164.000000 176.495486,163.100000 175.500000,162.000000 C 174.504514,160.900000 173.122269,160.000000 172.428346,160.000000 C 171.734422,160.000000 171.016667,159.645840 170.833333,159.212977 C 170.650000,158.780114 168.476455,156.867614 166.003234,154.962977 C 163.530012,153.058340 160.916995,150.712500 160.196530,149.750000 C 159.476064,148.787500 158.230495,148.000000 157.428598,148.000000 C 155.790111,148.000000 151.825296,142.091693 152.610842,140.820653 C 153.639120,139.156865 158.971861,139.982080 160.232073,142.000000 C 160.919034,143.100000 161.935348,144.002082 162.490547,144.004627 C 163.045746,144.007173 164.850000,145.259092 166.500000,146.786670 C 168.150000,148.314249 171.075000,150.652986 173.000000,151.983863 C 174.925000,153.314741 176.725000,154.672002 177.000000,155.000000 C 177.275000,155.327998 179.075000,156.678330 181.000000,158.000739 C 182.925000,159.323148 185.175000,161.114219 186.000000,161.980897 C 186.825000,162.847575 189.525000,165.077264 192.000000,166.935761 C 194.475000,168.794258 197.850000,171.726836 199.500000,173.452601 C 202.946778,177.057649 209.449645,182.000000 210.746187,182.000000 C 211.229984,182.000000 212.919200,183.350000 214.500000,185.000000 C 216.080800,186.650000 217.932330,188.000000 218.614511,188.000000 C 219.296692,188.000000 220.675001,189.012500 221.677420,190.250000 C 222.679839,191.487500 225.506349,193.850000 227.958552,195.500000 C 235.219442,200.385592 242.236368,207.531860 241.835659,209.632903 C 241.235195,212.781327 237.675168,212.382569 234.340114,208.793328" fill="none" stroke="black" stroke-width="5"/>
  <path d="M 74.038846,184.800890 C 72.576439,180.926549 71.692073,178.143057 69.971774,172.000000 C 69.278676,169.525000 67.907932,164.800000 66.925675,161.500000 C 65.943419,158.200000 64.614451,153.475000 63.972413,151.000000 C 63.330375,148.525000 62.398930,145.718606 61.902536,144.763569 C 61.406141,143.808532 61.000000,142.133070 61.000000,141.040320 C 61.000000,139.947571 60.127804,137.128965 59.061787,134.776751 C 57.995770,132.424538 56.552946,127.687500 55.855511,124.250000 C 55.158076,120.812500 54.230272,118.000000 53.793724,118.000000 C 53.357176,118.000000 53.000000,116.935009 53.000000,115.633353 C 53.000000,114.331697 52.146130,111.069197 51.102511,108.383353 C 48.425312,101.493347 44.000000,86.711902 44.000000,84.659516 C 44.000000,82.460320 46.609400,81.430941 48.405520,82.921589 C 49.730493,84.021218 52.481738,91.991795 57.061967,108.000000 C 58.242202,112.125000 59.564716,116.625000 60.000886,118.000000 C 60.437057,119.375000 62.256951,125.225000 64.045094,131.000000 C 65.833238,136.775000 68.550412,145.100000 70.083259,149.500000 C 72.744626,157.139391 73.832233,160.596190 77.477023,173.000000 C 78.365902,176.025000 79.184704,180.525000 79.296583,183.000000 C 79.472547,186.892681 79.215559,187.540608 77.392400,187.800890 C 75.799853,188.028249 74.980315,187.295112 74.038846,184.800890" fill="none" stroke="black" stroke-width="5"/>
  <path d="M 221.500000,93.978511 C 211.925686,91.370108 205.732098,90.000000 203.515098,90.000000 C 202.131794,90.000000 201.000000,89.600081 201.000000,89.111291 C 201.000000,88.622501 199.312500,87.933327 197.250000,87.579793 C 176.874426,84.087210 169.989454,82.579237 166.763569,80.902536 C 165.808532,80.406141 163.022589,80.000000 160.572586,80.000000 C 158.122582,80.000000 155.839919,79.550000 155.500000,79.000000 C 155.160081,78.450000 153.135081,78.000000 151.000000,78.000000 C 148.864919,78.000000 146.839919,77.550000 146.500000,77.000000 C 146.160081,76.450000 144.423524,76.000000 142.640983,76.000000 C 140.858442,76.000000 138.972500,75.596092 138.450000,75.102426 C 137.927500,74.608760 135.700000,73.962862 133.500000,73.667098 C 131.300000,73.371334 127.475000,72.669261 125.000000,72.106936 C 122.525000,71.544611 117.841384,70.598114 114.591964,70.003609 C 107.348001,68.678273 107.000000,68.471837 107.000000,65.500000 C 107.000000,62.266578 108.151964,61.781601 113.198704,62.890343 C 115.564417,63.410078 120.200000,64.358921 123.500000,64.998884 C 134.046533,67.044153 141.228630,68.678984 152.000000,71.486222 C 155.575000,72.417939 160.525000,73.531654 163.000000,73.961145 C 165.475000,74.390635 170.647125,75.510330 174.493612,76.449357 C 178.340099,77.388384 182.615099,78.328635 183.993612,78.538805 C 186.489296,78.919300 196.885268,81.212110 204.500000,83.061447 C 206.700000,83.595745 212.100000,84.717708 216.500000,85.554698 C 220.900000,86.391688 225.512500,87.499638 226.750000,88.016810 C 229.194569,89.038436 229.711947,91.888053 227.800000,93.800000 C 226.463126,95.136874 225.818853,95.155130 221.500000,93.978511" fill="black" stroke="black" stroke-width="1"/>
</svg>
