<?xml version="1.0" encoding="utf-8" ?>
<svg xmlns="http://www.w3.org/2000/svg" xmlns:ev="http://www.w3.org/2001/xml-events" xmlns:xlink="http://www.w3.org/1999/xlink" baseProfile="full" height="221" version="1.1" width="262">
  <defs/>
  <path d="M 36.361626,206.500000 C 35.356977,203.881927 36.711270,202.282709 42.177801,199.631965 C 45.105010,198.212548 48.370105,196.477185 49.433566,195.775604 C 56.479433,191.127335 63.452596,187.000000 64.260012,187.000000 C 64.782478,187.000000 67.210271,185.650000 69.655107,184.000000 C 72.099944,182.350000 74.640205,180.989994 75.300132,180.977764 C 75.960059,180.965534 77.625000,180.075541 79.000000,179.000000 C 80.375000,177.924459 81.977647,177.034466 82.561439,177.022236 C 83.145230,177.010006 84.636127,176.056014 85.874543,174.902254 C 87.112959,173.748494 88.660311,172.714353 89.313104,172.604162 C 89.965897,172.493971 91.400000,171.887036 92.500000,171.255418 C 93.600000,170.623800 96.075000,169.198396 98.000000,168.087854 C 99.925000,166.977312 104.087500,164.866779 107.250000,163.397780 C 110.412500,161.928781 113.000000,160.338326 113.000000,159.863436 C 113.000000,159.388546 113.900000,159.000000 115.000000,159.000000 C 116.100000,159.000000 117.000000,158.602808 117.000000,158.117350 C 117.000000,157.011707 127.117605,152.000000 129.349672,152.000000 C 132.330325,152.000000 131.264950,156.310324 127.681287,158.750000 C 125.863512,159.987500 124.035165,161.000000 123.618296,161.000000 C 123.201426,161.000000 120.898193,162.350000 118.500000,164.000000 C 116.101807,165.650000 113.615195,167.000000 112.974195,167.000000 C 112.333195,167.000000 110.614274,167.847313 109.154370,168.882918 C 106.026660,171.101606 100.947844,174.035663 92.000000,178.793080 C 88.425000,180.693846 84.825000,182.790822 84.000000,183.453025 C 83.175000,184.115227 78.675000,186.606341 74.000000,188.988832 C 69.325000,191.371323 65.350000,193.698491 65.166667,194.160317 C 64.983333,194.622143 64.008333,195.000000 63.000000,195.000000 C 61.991667,195.000000 61.016667,195.341300 60.833333,195.758444 C 60.650000,196.175588 57.575000,198.051897 54.000000,199.928020 C 50.425000,201.804142 45.821442,204.387843 43.769872,205.669576 C 39.455180,208.365210 37.175437,208.620757 36.361626,206.500000" fill="none" stroke="black" stroke-width="5"/>
  <path d="M 72.185354,98.140525 C 71.462299,97.679369 69.887299,97.485381 68.685354,97.709440 C 65.675941,98.270436 62.747223,95.960698 63.981833,94.000000 C 65.044521,92.312333 67.762482,92.174880 104.000000,91.976198 C 138.644686,91.786249 140.420243,91.853603 142.558870,93.438882 C 144.355182,94.770416 144.378250,95.001409 142.868072,96.535095 C 141.435680,97.989786 138.623477,98.166112 119.868072,97.977203 C 108.115633,97.858829 93.550000,97.714199 87.500000,97.655802 C 81.450000,97.597405 75.825000,97.871233 75.000000,98.264309 C 74.175000,98.657384 72.908409,98.601681 72.185354,98.140525" fill="none" stroke="black" stroke-width="5"/>
  <path d="M 187.000000,74.366912 C 179.635965,71.026695 175.345139,69.243141 171.000000,67.716244 C 165.594405,65.816699 152.636280,60.453886 148.596362,58.444337 C 146.999361,57.649952 145.119004,57.000000 144.417791,57.000000 C 143.716577,57.000000 142.420181,56.277324 141.536911,55.394054 C 140.296986,54.154129 140.194655,53.470381 141.087927,52.394054 C 142.710743,50.438681 145.938698,50.665250 149.774170,53.003738 C 151.574963,54.101682 153.718569,55.000000 154.537738,55.000000 C 155.356908,55.000000 156.808532,55.397498 157.763569,55.883329 C 158.718606,56.369159 160.625000,57.208951 162.000000,57.749533 C 163.375000,58.290114 165.625000,59.212871 167.000000,59.800103 C 168.375000,60.387336 171.300000,61.417153 173.500000,62.088586 C 175.700000,62.760019 179.750000,64.326853 182.500000,65.570439 C 185.250000,66.814024 189.187500,68.521453 191.250000,69.364725 C 195.096103,70.937239 195.915734,72.684266 193.800000,74.800000 C 192.245869,76.354131 191.239884,76.290060 187.000000,74.366912" fill="none" stroke="black" stroke-width="5"/>
</svg>
