<?xml version="1.0" encoding="utf-8" ?>
<svg baseProfile="full" height="221" version="1.1" width="259" xmlns="http://www.w3.org/2000/svg" xmlns:ev="http://www.w3.org/2001/xml-events" xmlns:xlink="http://www.w3.org/1999/xlink"><defs /><rect fill="white" height="221" width="259" x="0" y="0" /><path d="M 31,101 L 26,108 L 28,120 L 34,124 L 43,124 L 50,117 L 49,106 L 42,100 Z" fill="none" stroke="black" stroke-width="5" /><path d="M 93,98 L 84,105 L 83,116 L 91,125 L 102,125 L 109,119 L 111,108 L 106,100 Z" fill="none" stroke="black" stroke-width="5" /><path d="M 229,96 L 213,125 L 247,125 Z" fill="none" stroke="black" stroke-width="5" /><path d="M 0,0 L 0,220 L 258,220 L 258,133 L 201,132 L 226,84 L 258,128 L 258,0 Z" fill="none" stroke="black" stroke-width="5" /></svg>