<?xml version="1.0" encoding="utf-8" ?>
<svg xmlns="http://www.w3.org/2000/svg" xmlns:ev="http://www.w3.org/2001/xml-events" xmlns:xlink="http://www.w3.org/1999/xlink" baseProfile="full" height="219" version="1.1" width="260">
  <defs/>
  <path d="M 220.750000,209.884913 C 218.557954,208.249466 218.000000,207.029318 218.000000,203.871139 C 218.000000,195.619759 227.150457,191.895783 233.195281,197.687091 C 237.126049,201.453006 236.627643,206.878359 232.000000,210.698225 C 229.691424,212.603829 223.825895,212.179784 220.750000,209.884913" fill="none" stroke="black" stroke-width="5"/>
  <path d="M 194.708849,63.375516 C 194.318982,62.985649 194.000000,59.609866 194.000000,55.873776 L 194.000000,49.080885 L 185.750000,48.790442 C 178.106318,48.521346 177.476915,48.337689 177.185885,46.291478 C 176.886218,44.184547 177.254212,44.069549 185.185885,43.791478 L 193.500000,43.500000 L 193.774525,37.000000 C 193.991789,31.855779 194.482823,30.136101 196.128689,28.755360 C 199.251938,26.135221 200.286886,27.548275 199.552082,33.429448 C 199.189460,36.331777 199.361491,39.820593 199.942589,41.348997 C 200.952533,44.005353 201.176868,44.074164 208.056346,43.837764 C 213.345638,43.656008 215.356749,43.959199 216.024080,45.038962 C 217.479977,47.394654 215.595845,48.233150 207.861995,48.671338 C 203.858496,48.898170 200.339252,49.328186 200.041453,49.626929 C 199.743654,49.925671 199.500000,53.169325 199.500000,56.835049 C 199.500000,62.782692 199.280324,63.531446 197.458849,63.792183 C 196.336216,63.952883 195.098716,63.765383 194.708849,63.375516" fill="none" stroke="black" stroke-width="5"/>
  <path d="M 25.703929,60.403886 C 17.201067,55.793607 22.332562,42.864951 32.000000,44.541114 C 38.152587,45.607865 40.000000,47.462133 40.000000,52.570802 C 40.000000,60.512790 32.989342,64.354060 25.703929,60.403886" fill="none" stroke="black" stroke-width="5"/>
</svg>
