<?xml version="1.0" encoding="utf-8" ?>
<svg xmlns="http://www.w3.org/2000/svg" xmlns:ev="http://www.w3.org/2001/xml-events" xmlns:xlink="http://www.w3.org/1999/xlink" baseProfile="full" height="219" version="1.1" width="259">
  <defs/>
  <path d="M 107.364082,192.830410 C 104.793460,191.585694 103.000000,187.958332 103.000000,184.003838 C 103.000000,181.888081 103.906147,180.410631 106.344391,178.550891 C 108.183806,177.147901 110.193806,176.000000 110.811058,176.000000 C 111.428309,176.000000 113.523333,177.590000 115.466667,179.533333 C 120.127007,184.193674 120.365327,188.891613 116.095630,191.931906 C 112.926506,194.188521 110.652217,194.422552 107.364082,192.830410" fill="none" stroke="black" stroke-width="5"/>
  <path d="M 153.523038,184.691193 C 148.133706,181.443920 147.437274,175.780547 151.823602,170.871393 C 154.333720,168.062084 155.050559,167.786903 158.280271,168.392801 C 165.887963,169.820012 168.431321,177.926387 162.894245,183.098790 C 159.609203,186.167479 156.773008,186.649419 153.523038,184.691193" fill="none" stroke="black" stroke-width="5"/>
  <path d="M 113.309017,95.750000 C 112.864058,95.062500 112.275000,91.350000 112.000000,87.500000 L 111.500000,80.500000 L 103.530579,80.203986 C 95.504565,79.905870 93.107372,78.780478 95.179647,76.283538 C 95.881718,75.437595 98.930571,75.000000 104.122445,75.000000 L 112.000000,75.000000 L 112.000000,68.200000 C 112.000000,60.881540 113.176577,58.488950 116.025665,60.013736 C 117.442260,60.771874 117.679258,62.058694 117.371858,67.323105 L 116.998776,73.712346 L 125.215997,74.397636 C 133.273852,75.069636 135.314573,76.016661 134.315440,78.620361 C 133.975211,79.506982 131.214429,80.014234 125.657960,80.211045 L 117.500000,80.500000 L 117.714762,87.962762 C 117.857883,92.936086 117.524301,95.683023 116.714762,96.197449 C 115.002620,97.285437 114.237733,97.184946 113.309017,95.750000" fill="none" stroke="black" stroke-width="5"/>
</svg>
