<?xml version="1.0" encoding="utf-8" ?>
<svg xmlns="http://www.w3.org/2000/svg" xmlns:ev="http://www.w3.org/2001/xml-events" xmlns:xlink="http://www.w3.org/1999/xlink" baseProfile="full" height="217" version="1.1" width="260">
  <defs/>
  <path d="M 126.319979,136.788991 C 125.749859,135.530046 125.500357,131.912500 125.765529,128.750000 L 126.247660,123.000000 L 118.557408,123.000000 L 110.867155,123.000000 L 111.183578,120.250000 C 111.494746,117.545661 111.602458,117.504696 117.670714,117.782796 C 121.671012,117.966125 124.102500,117.643169 124.583681,116.864600 C 124.991921,116.204055 125.382085,112.637994 125.450713,108.940019 C 125.579689,101.990155 127.044069,98.695944 129.573113,99.666430 C 130.652131,100.080488 131.000000,102.260160 131.000000,108.606989 L 131.000000,117.000000 L 134.750000,117.195245 C 136.812500,117.302629 140.198529,117.463658 142.274509,117.553087 C 147.049775,117.758795 147.468167,118.216877 145.275004,120.838219 C 143.548951,122.901255 140.298175,123.458936 134.000000,122.772482 C 131.554844,122.505978 131.489031,122.675288 131.000000,130.490346 C 130.611639,136.696621 130.149069,138.547373 128.928280,138.779336 C 128.063834,138.943591 126.890099,138.047935 126.319979,136.788991" fill="none" stroke="black" stroke-width="5"/>
  <path d="M 174.076923,50.923077 C 169.803043,46.649197 169.727779,41.042090 173.904370,38.068094 C 175.501774,36.930642 177.505600,36.000000 178.357317,36.000000 C 185.997238,36.000000 189.982126,46.331757 184.353977,51.547749 C 180.820683,54.822296 177.792052,54.638206 174.076923,50.923077" fill="none" stroke="black" stroke-width="5"/>
  <path d="M 223.395223,29.592889 C 220.155883,28.159112 219.036953,25.779087 219.013655,20.273053 C 218.999063,16.824654 221.225347,14.693993 226.091666,13.499054 C 228.038154,13.021088 229.469580,13.524245 231.841666,15.520225 C 234.475125,17.736134 235.000000,18.885100 235.000000,22.433906 C 235.000000,29.088494 229.676017,32.372857 223.395223,29.592889" fill="none" stroke="black" stroke-width="5"/>
</svg>
