<?xml version="1.0" encoding="utf-8" ?>
<svg xmlns="http://www.w3.org/2000/svg" xmlns:ev="http://www.w3.org/2001/xml-events" xmlns:xlink="http://www.w3.org/1999/xlink" baseProfile="full" height="218" version="1.1" width="259">
  <defs/>
  <path d="M 60.250000,181.269359 C 59.402417,180.973705 59.000000,178.459199 59.000000,173.458731 L 59.000000,166.084129 L 51.250000,165.792064 C 45.157584,165.562467 43.500000,165.179177 43.500000,164.000000 C 43.500000,162.844444 45.222222,162.385185 51.000000,162.000000 L 58.500000,161.500000 L 58.795690,154.750000 C 59.091091,148.006590 59.094264,148.000000 62.045690,148.000000 L 65.000000,148.000000 L 65.000000,154.971965 L 65.000000,161.943930 L 72.373340,161.420704 C 78.112560,161.013437 79.865060,161.205967 80.280820,162.289422 C 81.470357,165.389306 79.228523,166.500000 71.782158,166.500000 L 64.500000,166.500000 L 64.356286,172.000000 C 64.277243,175.025000 64.164743,178.239355 64.106286,179.143011 C 63.989142,180.953862 62.189816,181.946007 60.250000,181.269359" fill="none" stroke="black" stroke-width="5"/>
  <path d="M 186.500000,118.280761 C 182.722410,117.360472 181.000000,114.896594 181.000000,110.413107 C 181.000000,106.833644 181.473628,105.798935 183.904370,104.068094 C 187.948138,101.188678 191.912870,101.446771 195.995621,104.855203 L 199.415694,107.710406 L 198.024004,111.927268 C 195.993824,118.078772 192.830264,119.822928 186.500000,118.280761" fill="none" stroke="black" stroke-width="5"/>
  <path d="M 79.359471,36.687223 C 76.052546,35.038481 74.850619,29.806752 76.856228,25.791143 C 78.228799,23.042996 79.137520,22.447672 82.364055,22.182835 C 87.564275,21.755997 91.000000,24.865978 91.000000,30.000000 C 91.000000,36.374411 85.299931,39.648973 79.359471,36.687223" fill="none" stroke="black" stroke-width="5"/>
</svg>
