<?xml version="1.0" encoding="utf-8" ?>
<svg xmlns="http://www.w3.org/2000/svg" xmlns:ev="http://www.w3.org/2001/xml-events" xmlns:xlink="http://www.w3.org/1999/xlink" baseProfile="full" height="217" version="1.1" width="260">
  <defs/>
  <path d="M 165.738962,180.249423 C 162.142436,176.495458 162.104209,172.168519 165.636364,168.636364 C 172.656152,161.616575 184.691469,171.007069 178.971037,179.040674 C 177.748464,180.757620 175.947807,182.005732 174.681906,182.013655 C 173.481858,182.021165 171.595033,182.270528 170.488962,182.567796 C 169.118362,182.936159 167.605670,182.197846 165.738962,180.249423" fill="none" stroke="black" stroke-width="5"/>
  <path d="M 222.925364,96.718197 C 220.510386,94.849880 218.924434,89.328952 219.994341,86.514883 C 222.445473,80.067919 231.577839,79.454518 235.104005,85.500000 C 237.431085,89.489693 237.394540,90.418949 234.750000,94.501646 C 232.794351,97.520818 231.976710,97.972702 228.500000,97.955818 C 226.300000,97.945134 223.791414,97.388205 222.925364,96.718197" fill="none" stroke="black" stroke-width="5"/>
  <path d="M 62.235938,66.145817 C 61.640455,65.777789 60.835638,62.669423 60.447455,59.238338 L 59.741667,53.000000 L 52.977823,53.000000 C 46.260974,53.000000 44.703652,52.194175 45.730641,49.250000 C 46.021696,48.415602 48.423372,48.000000 52.954123,48.000000 L 59.741579,48.000000 L 60.431341,41.000000 C 61.113480,34.077371 61.153593,34.000000 64.060552,34.000000 L 67.000000,34.000000 L 67.000000,41.111291 L 67.000000,48.222582 L 70.750000,47.523361 C 75.142422,46.704354 74.861358,46.730008 77.781385,46.881579 C 80.854049,47.041073 81.656655,49.616924 79.407927,52.101739 C 77.846573,53.827016 76.842032,54.028414 72.664077,53.453799 C 66.744542,52.639655 66.036864,53.404857 66.015313,60.643011 C 66.000133,65.741337 64.683439,67.658456 62.235938,66.145817" fill="none" stroke="black" stroke-width="5"/>
</svg>
