<?xml version="1.0" encoding="utf-8" ?>
<svg xmlns="http://www.w3.org/2000/svg" xmlns:ev="http://www.w3.org/2001/xml-events" xmlns:xlink="http://www.w3.org/1999/xlink" baseProfile="full" height="218" version="1.1" width="258">
  <defs/>
  <path d="M 145.235455,197.963457 C 140.862376,196.206594 140.112911,188.809695 143.746153,183.264667 C 145.635369,180.381359 149.837136,180.297451 153.365141,183.072580 C 155.551358,184.792259 156.000000,185.954480 156.000000,189.898266 C 156.000000,197.212856 151.590542,200.516583 145.235455,197.963457" fill="none" stroke="black" stroke-width="5"/>
  <path d="M 93.528939,164.386082 C 92.474134,163.331276 92.000000,160.863602 92.000000,156.428571 L 92.000000,150.000000 L 85.622445,150.000000 C 78.957933,150.000000 76.362642,148.649301 77.984587,146.024939 C 78.577292,145.065921 80.870876,144.598308 85.177385,144.558477 L 91.500000,144.500000 L 91.792064,136.750000 L 92.084129,129.000000 L 95.118533,129.000000 C 97.989109,129.000000 98.143578,129.202464 97.979577,132.750000 C 97.884228,134.812500 97.849817,138.391027 97.903108,140.702283 L 98.000000,144.904565 L 104.250000,145.202283 C 109.945214,145.473573 110.529502,145.708400 110.832361,147.847753 C 111.148641,150.081911 110.906716,150.184773 105.832361,149.973675 C 96.696650,149.593619 97.242266,149.094566 97.771832,157.346331 C 98.162427,163.432637 97.970113,164.797491 96.650584,165.303842 C 95.774596,165.639990 94.369855,165.226998 93.528939,164.386082" fill="none" stroke="black" stroke-width="5"/>
  <path d="M 235.588894,15.923275 C 230.635485,10.036483 233.103695,3.611558 240.664998,2.709820 C 244.233377,2.284266 245.200286,2.599616 247.414998,4.911277 C 251.566575,9.244590 250.630877,15.005800 245.315741,17.836657 C 241.550110,19.842244 238.358150,19.214349 235.588894,15.923275" fill="none" stroke="black" stroke-width="5"/>
</svg>
