<?xml version="1.0" encoding="utf-8" ?>
<svg xmlns="http://www.w3.org/2000/svg" xmlns:ev="http://www.w3.org/2001/xml-events" xmlns:xlink="http://www.w3.org/1999/xlink" baseProfile="full" height="217" version="1.1" width="260">
  <defs/>
  <path d="M 123.525680,162.049660 C 120.584772,156.362571 122.267259,151.028344 127.611486,149.095847 C 130.606560,148.012814 131.479532,148.095217 134.278894,149.725210 C 137.154499,151.399597 137.532082,152.148721 137.799100,156.709291 C 138.054758,161.075833 137.768266,162.048905 135.826594,163.408905 C 134.577210,164.284007 131.641671,165.000000 129.303174,165.000000 C 125.606254,165.000000 124.852248,164.614959 123.525680,162.049660" fill="none" stroke="black" stroke-width="5"/>
  <path d="M 44.321473,123.711137 C 43.913275,123.050659 43.665279,119.608806 43.770372,116.062575 C 44.032970,107.201469 42.907373,106.077200 34.452663,106.755863 C 30.039379,107.110119 27.952592,106.914498 27.850000,106.136910 C 27.767500,105.511610 27.655000,104.437500 27.600000,103.750000 C 27.531388,102.892352 29.854111,102.343059 35.000000,102.000000 L 42.500000,101.500000 L 42.191404,94.793747 C 41.765906,85.547040 44.274447,81.358653 47.607954,85.750000 C 48.426754,86.828634 48.948594,90.337017 48.968197,94.895037 L 49.000000,102.290074 L 55.930666,101.709032 C 61.468040,101.244799 63.118974,101.438429 64.142919,102.672207 C 66.256058,105.218384 62.619357,107.000000 55.308870,107.000000 L 49.000000,107.000000 L 48.894037,110.250000 C 48.835758,112.037500 48.879151,114.625000 48.990466,116.000000 C 49.549738,122.908313 49.478884,123.243106 47.281825,124.073565 C 45.819590,124.626271 44.810721,124.502757 44.321473,123.711137" fill="none" stroke="black" stroke-width="5"/>
  <path d="M 231.989040,20.750000 C 227.725201,13.756797 230.215734,7.751643 237.444207,7.596542 C 243.365077,7.469497 246.207586,10.139574 246.360518,15.971969 C 246.495165,21.107077 243.438662,23.944078 237.735302,23.977764 C 234.549924,23.996578 233.665675,23.499882 231.989040,20.750000" fill="none" stroke="black" stroke-width="5"/>
</svg>
