<?xml version="1.0" encoding="utf-8" ?>
<svg xmlns="http://www.w3.org/2000/svg" xmlns:ev="http://www.w3.org/2001/xml-events" xmlns:xlink="http://www.w3.org/1999/xlink" baseProfile="full" height="220" version="1.1" width="259">
  <defs/>
  <path d="M 50.588894,208.923275 C 47.626293,205.402424 47.392323,203.399912 49.474611,199.386299 C 52.221938,194.090820 58.520662,193.453194 62.411106,198.076725 C 65.928340,202.256720 65.909401,207.139505 62.365141,209.927420 C 58.396872,213.048861 53.725155,212.650510 50.588894,208.923275" fill="none" stroke="black" stroke-width="5"/>
  <path d="M 187.535560,181.039293 C 186.092443,179.444667 185.822519,177.943211 186.227816,173.764962 C 186.508707,170.869233 186.534858,167.937500 186.285930,167.250000 C 185.983003,166.413364 183.535671,166.000000 178.885282,166.000000 C 173.545421,166.000000 171.800171,165.642829 171.345077,164.456872 C 170.435092,162.085491 171.614034,161.541070 178.830914,161.000000 L 185.500000,160.500000 L 185.792926,152.702143 C 186.014369,146.807182 186.460341,144.760581 187.620467,144.315399 C 190.648654,143.153374 192.402953,146.574254 192.452881,153.738595 L 192.500000,160.500000 L 199.500000,161.339302 C 203.350000,161.800918 206.623092,162.299011 206.773539,162.446174 C 206.923985,162.593337 206.763340,163.453151 206.416550,164.356872 C 205.916552,165.659845 204.367427,166.000000 198.933454,166.000000 L 192.080885,166.000000 L 191.790442,174.169510 C 191.482288,182.837213 190.539793,184.358933 187.535560,181.039293" fill="none" stroke="black" stroke-width="5"/>
  <path d="M 104.500000,56.251204 C 101.383374,55.524374 100.104386,54.073346 99.434925,50.504814 C 98.334728,44.640256 102.093031,40.085015 108.075686,40.031803 C 112.756366,39.990172 116.000000,43.309130 116.000000,48.140137 C 116.000000,53.591632 110.308604,57.605832 104.500000,56.251204" fill="none" stroke="black" stroke-width="5"/>
</svg>
