<?xml version="1.0" encoding="utf-8" ?>
<svg xmlns="http://www.w3.org/2000/svg" xmlns:ev="http://www.w3.org/2001/xml-events" xmlns:xlink="http://www.w3.org/1999/xlink" baseProfile="full" height="221" version="1.1" width="260">
  <defs/>
  <path d="M 152.000000,165.118359 C 148.948654,164.579265 148.378188,164.006756 147.549731,160.652151 C 146.186832,155.133472 148.305110,151.605401 153.229221,151.192747 C 158.973504,150.711359 162.000000,153.252962 162.000000,158.558306 C 162.000000,161.897416 161.492074,163.242357 159.777494,164.443296 C 158.555115,165.299483 157.092615,165.940761 156.527494,165.868359 C 155.962372,165.795956 153.925000,165.458456 152.000000,165.118359" fill="none" stroke="black" stroke-width="5"/>
  <path d="M 201.121855,158.721855 C 200.504835,158.104835 200.000000,154.540000 200.000000,150.800000 L 200.000000,144.000000 L 194.191130,144.000000 C 190.996251,144.000000 187.586318,143.417993 186.613500,142.706652 C 184.932685,141.477610 184.944513,141.291158 186.851388,138.956652 C 188.461518,136.985439 189.109183,136.747002 190.129017,137.750000 C 193.093666,140.665706 199.000000,138.856439 199.000000,135.032582 C 199.000000,126.165739 201.342627,120.018920 203.793128,122.455892 C 204.181908,122.842525 204.725000,126.610618 205.000000,130.829431 L 205.500000,138.500000 L 212.500000,138.800926 C 220.140542,139.129388 222.034550,140.048518 220.035174,142.457618 C 219.130746,143.547387 216.915009,144.000000 212.484544,144.000000 C 205.219484,144.000000 205.000000,144.263186 205.000000,152.974799 C 205.000000,158.914613 203.515099,161.115099 201.121855,158.721855" fill="none" stroke="black" stroke-width="5"/>
  <path d="M 133.889332,41.337507 C 131.998761,40.832207 130.000000,36.869845 130.000000,33.627261 C 130.000000,27.409672 140.905170,24.153940 144.312549,29.354258 C 146.191033,32.221186 145.073324,38.741998 142.363836,40.723224 C 140.668363,41.962984 137.176538,42.216093 133.889332,41.337507" fill="none" stroke="black" stroke-width="5"/>
</svg>
