<?xml version="1.0" encoding="utf-8" ?>
<svg baseProfile="full" height="222" version="1.1" width="259" xmlns="http://www.w3.org/2000/svg" xmlns:ev="http://www.w3.org/2001/xml-events" xmlns:xlink="http://www.w3.org/1999/xlink"><defs /><rect fill="white" height="222" width="259" x="0" y="0" /><circle cx="41.60305404663086" cy="187.1374053955078" fill="none" r="13.622632026672363" stroke="black" stroke-width="1" /><circle cx="41.397525787353516" cy="186.82420349121094" fill="black" r="22.412784576416016" stroke="black" stroke-width="1" /><path d="M 108,154 L 92,178 L 120,176 Z" fill="none" stroke="black" stroke-width="1" /><path d="M 79,180 L 108,140 L 135,183 Z" fill="black" stroke="black" stroke-width="1" /><circle cx="30.68854331970215" cy="131.21360778808594" fill="none" r="13.369979858398438" stroke="black" stroke-width="1" /><circle cx="30.576642990112305" cy="131.97080993652344" fill="black" r="21.788341522216797" stroke="black" stroke-width="1" /><circle cx="157.5" cy="106.05882263183594" fill="none" r="17.12474250793457" stroke="black" stroke-width="1" /><path d="M 86,86 L 72,109 L 98,106 Z" fill="none" stroke="black" stroke-width="1" /><circle cx="157.74935913085938" cy="106.32442474365234" fill="none" r="23.708675384521484" stroke="black" stroke-width="1" /><path d="M 85,73 L 109,112 L 59,117 Z" fill="black" stroke="black" stroke-width="1" /><path d="M 196,95 L 230,96 L 212,68 Z" fill="none" stroke="black" stroke-width="1" /><path d="M 210,59 L 238,102 L 187,101 Z" fill="black" stroke="black" stroke-width="1" /><circle cx="132.5" cy="55.5" fill="none" r="17.10272979736328" stroke="black" stroke-width="1" /><circle cx="132.2971649169922" cy="55.293212890625" fill="none" r="23.76797103881836" stroke="black" stroke-width="1" /><path d="M 162,23 L 179,48 L 192,22 Z" fill="none" stroke="black" stroke-width="1" /><path d="M 153,17 L 203,19 L 179,60 Z" fill="black" stroke="black" stroke-width="1" /><path d="M 0,0 L 0,221 L 258,221 L 258,0 Z" fill="none" stroke="black" stroke-width="1" /></svg>