<?xml version="1.0" encoding="utf-8" ?>
<svg baseProfile="full" height="216" version="1.1" width="260" xmlns="http://www.w3.org/2000/svg" xmlns:ev="http://www.w3.org/2001/xml-events" xmlns:xlink="http://www.w3.org/1999/xlink"><defs /><rect fill="white" height="216" width="260" x="0" y="0" /><path d="M 125,168 L 111,189 L 138,190 Z" fill="none" stroke="black" stroke-width="5" /><path d="M 121,96 L 114,103 L 114,117 L 122,122 L 132,121 L 139,113 L 139,104 L 131,96 Z" fill="none" stroke="black" stroke-width="5" /><path d="M 193,52 L 185,57 L 181,68 L 186,78 L 198,82 L 208,77 L 212,65 L 207,56 Z" fill="none" stroke="black" stroke-width="5" /><path d="M 60,53 L 51,61 L 50,75 L 57,83 L 74,83 L 80,78 L 83,66 L 75,55 Z" fill="none" stroke="black" stroke-width="5" /><path d="M 0,0 L 0,215 L 259,215 L 259,0 Z" fill="none" stroke="black" stroke-width="5" /></svg>