<?xml version="1.0" encoding="utf-8" ?>
<svg baseProfile="full" height="222" version="1.1" width="261" xmlns="http://www.w3.org/2000/svg" xmlns:ev="http://www.w3.org/2001/xml-events" xmlns:xlink="http://www.w3.org/1999/xlink"><defs /><rect fill="white" height="222" width="261" x="0" y="0" /><path d="M 53,177 L 37,204 L 67,204 Z" fill="none" stroke="black" stroke-width="1" /><path d="M 156,194 L 139,171 L 122,197 Z" fill="none" stroke="black" stroke-width="1" /><circle cx="214.94444274902344" cy="181.5" fill="none" r="14.166876792907715" stroke="black" stroke-width="1" /><path d="M 52,165 L 77,210 L 28,208 Z" fill="black" stroke="black" stroke-width="1" /><circle cx="215.52871704101562" cy="181.51858520507812" fill="black" r="22.623291015625" stroke="black" stroke-width="1" /><path d="M 168,201 L 112,203 L 139,159 Z" fill="black" stroke="black" stroke-width="1" /><path d="M 43,52 L 27,78 L 57,76 Z" fill="none" stroke="black" stroke-width="1" /><path d="M 41,41 L 69,86 L 18,83 Z" fill="black" stroke="black" stroke-width="1" /><circle cx="211.35743713378906" cy="55.31341552734375" fill="none" r="15.73332405090332" stroke="black" stroke-width="1" /><circle cx="211.32057189941406" cy="55.34449768066406" fill="black" r="22.40505599975586" stroke="black" stroke-width="1" /><circle cx="133.23973083496094" cy="41.99314880371094" fill="none" r="14.103530883789062" stroke="black" stroke-width="1" /><circle cx="133.63768005371094" cy="42.5797119140625" fill="black" r="22.30634880065918" stroke="black" stroke-width="1" /><path d="M 0,0 L 0,221 L 260,221 L 260,0 Z" fill="none" stroke="black" stroke-width="1" /></svg>