<?xml version="1.0" encoding="utf-8" ?>
<svg baseProfile="full" height="217" version="1.1" width="261" xmlns="http://www.w3.org/2000/svg" xmlns:ev="http://www.w3.org/2001/xml-events" xmlns:xlink="http://www.w3.org/1999/xlink"><defs /><rect fill="white" height="217" width="261" x="0" y="0" /><path d="M 194,123 L 178,151 L 212,152 Z" fill="none" stroke="black" stroke-width="5" /><path d="M 87,118 L 75,125 L 71,136 L 81,152 L 93,154 L 105,147 L 108,133 L 103,123 Z" fill="none" stroke="black" stroke-width="5" /><path d="M 121,34 L 111,40 L 107,51 L 115,65 L 129,67 L 137,62 L 141,48 L 134,37 Z" fill="none" stroke="black" stroke-width="5" /><path d="M 227,13 L 221,18 L 218,29 L 225,38 L 236,39 L 244,32 L 244,18 L 237,13 Z" fill="none" stroke="black" stroke-width="5" /><path d="M 0,0 L 0,216 L 260,216 L 260,0 Z" fill="none" stroke="black" stroke-width="5" /></svg>