<?xml version="1.0" encoding="utf-8" ?>
<svg baseProfile="full" height="217" version="1.1" width="259" xmlns="http://www.w3.org/2000/svg" xmlns:ev="http://www.w3.org/2001/xml-events" xmlns:xlink="http://www.w3.org/1999/xlink"><defs /><rect fill="white" height="217" width="259" x="0" y="0" /><path d="M 207,138 L 195,145 L 192,157 L 199,169 L 212,171 L 221,165 L 224,150 L 218,142 Z" fill="none" stroke="black" stroke-width="5" /><path d="M 114,155 L 98,129 L 82,154 L 84,157 Z" fill="none" stroke="black" stroke-width="5" /><path d="M 56,58 L 49,65 L 50,78 L 57,83 L 67,83 L 75,75 L 73,62 L 65,57 Z" fill="none" stroke="black" stroke-width="5" /><path d="M 193,50 L 183,58 L 184,68 L 190,75 L 200,76 L 207,71 L 209,58 L 202,50 Z" fill="none" stroke="black" stroke-width="5" /><path d="M 123,24 L 117,32 L 118,43 L 125,49 L 135,49 L 141,43 L 143,33 L 139,26 L 132,22 Z" fill="none" stroke="black" stroke-width="5" /><path d="M 0,0 L 0,216 L 258,216 L 258,0 Z" fill="none" stroke="black" stroke-width="5" /></svg>