<?xml version="1.0" encoding="utf-8" ?>
<svg baseProfile="full" height="220" version="1.1" width="260" xmlns="http://www.w3.org/2000/svg" xmlns:ev="http://www.w3.org/2001/xml-events" xmlns:xlink="http://www.w3.org/1999/xlink"><defs /><rect fill="white" height="220" width="260" x="0" y="0" /><path d="M 77,176 L 57,201 L 88,200 Z" fill="none" stroke="black" stroke-width="1" /><circle cx="198.21482849121094" cy="187.99156188964844" fill="none" r="14.356231689453125" stroke="black" stroke-width="1" /><circle cx="198.28512573242188" cy="187.3429718017578" fill="black" r="22.95965576171875" stroke="black" stroke-width="1" /><path d="M 77,162 L 100,205 L 50,207 Z" fill="black" stroke="black" stroke-width="1" /><path d="M 190,138 L 175,114 L 160,137 Z" fill="none" stroke="black" stroke-width="1" /><circle cx="94.75" cy="127.25" fill="none" r="15.76794719696045" stroke="black" stroke-width="1" /><circle cx="94.89130401611328" cy="127.10869598388672" fill="black" r="22.40986442565918" stroke="black" stroke-width="1" /><path d="M 151,140 L 176,104 L 201,143 Z" fill="black" stroke="black" stroke-width="1" /><path d="M 126,59 L 106,91 L 142,90 Z" fill="none" stroke="black" stroke-width="1" /><path d="M 127,49 L 153,95 L 98,97 Z" fill="black" stroke="black" stroke-width="1" /><circle cx="193.92105102539062" cy="32.921051025390625" fill="none" r="14.658020973205566" stroke="black" stroke-width="1" /><circle cx="67.83980560302734" cy="29.393203735351562" fill="none" r="14.34351921081543" stroke="black" stroke-width="1" /><circle cx="194.5" cy="33.08139419555664" fill="black" r="22.222566604614258" stroke="black" stroke-width="1" /><circle cx="67.87150573730469" cy="29.217876434326172" fill="black" r="21.905487060546875" stroke="black" stroke-width="1" /><path d="M 0,0 L 0,219 L 259,219 L 259,0 Z" fill="none" stroke="black" stroke-width="1" /></svg>