<?xml version="1.0" encoding="utf-8" ?>
<svg xmlns="http://www.w3.org/2000/svg" xmlns:ev="http://www.w3.org/2001/xml-events" xmlns:xlink="http://www.w3.org/1999/xlink" baseProfile="full" height="220" version="1.1" width="261">
  <defs/>
  <path d="M 37.524459,153.457534 C 32.734028,150.621093 31.282856,148.764163 29.929826,143.739394 C 28.740104,139.321103 30.128296,133.970288 33.454704,130.152682 C 44.251396,117.761681 65.729963,128.091892 60.946537,143.375000 C 59.244627,148.812623 55.368907,154.000000 53.008126,154.000000 C 51.968575,154.000000 50.839919,154.450000 50.500000,155.000000 C 49.377160,156.816794 41.645643,155.897711 37.524459,153.457534" fill="none" stroke="black" stroke-width="5"/>
  <path d="M 197.081179,88.832266 C 197.232559,86.449520 197.002439,83.262500 196.569800,81.750000 C 195.818173,79.122320 195.501511,79.000000 189.450609,79.000000 C 182.914544,79.000000 181.555091,78.322989 182.603744,75.590242 C 183.054757,74.414921 184.589158,74.000000 188.484544,74.000000 C 191.508993,74.000000 194.174884,73.467297 194.740119,72.750000 C 195.281873,72.062500 196.000015,69.059459 196.335988,66.076575 C 197.056162,59.682634 198.098569,58.241426 200.364286,60.507143 C 201.424786,61.567643 202.000000,63.832977 202.000000,66.948984 C 202.000000,69.624964 202.565272,72.224245 203.275391,72.813591 C 203.976856,73.395755 206.789356,74.013355 209.525391,74.186036 C 213.902269,74.462275 214.540608,74.787234 214.837962,76.890499 C 215.164920,79.203159 215.016816,79.259892 210.289613,78.632806 C 203.507493,77.733126 202.147946,78.991188 201.787788,86.500000 C 201.527075,91.935513 201.279189,92.531260 199.152971,92.832266 C 196.966430,93.141812 196.824762,92.868294 197.081179,88.832266" fill="none" stroke="black" stroke-width="5"/>
  <path d="M 233.944935,43.965968 C 233.177909,43.491920 232.434192,41.016109 232.260921,38.359938 C 231.821611,31.625491 227.620866,27.779134 224.315335,31.084665 C 223.718769,31.681231 222.166269,32.018731 220.865335,31.834665 C 219.098222,31.584641 218.500000,30.867720 218.500000,29.000000 C 218.500000,26.641026 218.866667,26.471795 225.000000,26.000000 L 231.500000,25.500000 L 232.206534,19.093466 C 232.976304,12.113535 233.954720,10.384911 236.568046,11.387738 C 238.005816,11.939462 238.190417,13.039030 237.755306,18.459597 C 237.166531,25.794495 237.363290,26.000000 244.974799,26.000000 C 248.074850,26.000000 249.969000,26.476831 250.300491,27.340684 C 251.230900,29.765290 249.562865,30.827631 243.490726,31.677699 L 237.500000,32.516370 L 237.833373,38.119203 C 238.179797,43.941377 236.934604,45.813685 233.944935,43.965968" fill="none" stroke="black" stroke-width="5"/>
  <path d="M 177.471687,38.954188 C 177.078554,38.318086 176.470677,35.480671 176.120848,32.648820 L 175.484796,27.500000 L 168.172621,27.500000 C 162.326401,27.500000 160.669324,27.158688 159.907137,25.797539 C 158.488455,23.263994 161.673394,22.000000 169.475959,22.000000 L 176.083401,22.000000 L 175.395733,14.411321 L 174.708065,6.822642 L 177.103068,7.161321 C 179.224637,7.461333 179.582928,8.185012 180.241333,13.500000 C 181.341188,22.378592 181.325081,22.358516 186.825758,21.707042 C 192.190520,21.071666 194.591878,22.015208 193.677102,24.399075 C 193.208262,25.620852 191.641689,26.000000 187.062359,26.000000 L 181.061948,26.000000 L 181.280974,32.715508 C 181.462286,38.274682 181.214724,39.489536 179.843237,39.770876 C 178.932017,39.957800 177.864819,39.590290 177.471687,38.954188" fill="none" stroke="black" stroke-width="5"/>
</svg>
