<?xml version="1.0" encoding="utf-8" ?>
<svg baseProfile="full" height="216" version="1.1" width="258" xmlns="http://www.w3.org/2000/svg" xmlns:ev="http://www.w3.org/2001/xml-events" xmlns:xlink="http://www.w3.org/1999/xlink"><defs /><rect fill="white" height="216" width="258" x="0" y="0" /><path d="M 46,179 L 50,193 L 65,196 L 50,199 L 48,213 L 42,198 L 30,197 L 44,192 Z" fill="black" stroke="black" stroke-width="1" /><path d="M 183,171 L 186,188 L 203,192 L 186,194 L 181,211 L 179,194 L 164,191 L 179,187 Z" fill="black" stroke="black" stroke-width="1" /><circle cx="120.97058868408203" cy="149.5" fill="none" r="11.251935005187988" stroke="black" stroke-width="1" /><circle cx="120.84394836425781" cy="149.65286254882812" fill="none" r="17.235586166381836" stroke="black" stroke-width="1" /><path d="M 116,66 L 120,78 L 133,80 L 120,83 L 117,100 L 113,84 L 98,82 L 113,78 Z" fill="black" stroke="black" stroke-width="1" /><path d="M 0,0 L 0,215 L 257,215 L 257,0 Z" fill="none" stroke="black" stroke-width="1" /></svg>