<?xml version="1.0" encoding="utf-8" ?>
<svg xmlns="http://www.w3.org/2000/svg" xmlns:ev="http://www.w3.org/2001/xml-events" xmlns:xlink="http://www.w3.org/1999/xlink" baseProfile="full" height="215" version="1.1" width="258">
  <defs/>
  <path d="M 215.500000,192.597485 C 204.970692,187.949739 204.058919,170.640733 214.070681,165.463449 C 217.505054,163.687466 228.871991,163.565767 231.036715,165.281803 C 239.645923,172.106559 238.962892,186.393806 229.759140,192.005402 C 226.010860,194.290756 219.909953,194.544085 215.500000,192.597485" fill="none" stroke="black" stroke-width="5"/>
  <path d="M 50.511234,148.096792 L 49.813739,142.087134 L 43.156870,141.793567 C 37.127147,141.527657 36.469996,141.288796 36.181520,139.258175 C 35.874147,137.094533 36.069860,137.037966 41.793384,137.636193 C 48.732259,138.361449 49.088806,138.034733 49.348552,130.713130 C 49.510511,126.147882 49.811042,125.460287 51.766748,125.180449 C 53.555855,124.924450 54.000000,125.347066 54.000000,127.305449 C 54.000000,128.649952 54.281250,131.156250 54.625000,132.875000 C 55.207353,135.786765 55.540000,136.000000 59.500000,136.000000 C 67.084246,136.000000 70.141594,137.004700 69.801813,139.385363 C 69.524357,141.329347 68.918527,141.489191 62.294705,141.366062 L 55.089410,141.232124 L 54.794705,147.356019 C 54.566599,152.096007 54.128111,153.550707 52.854364,153.793182 C 51.532749,154.044769 51.071394,152.923167 50.511234,148.096792" fill="none" stroke="black" stroke-width="5"/>
  <path d="M 180.241474,144.170401 C 179.482745,143.688723 178.914139,140.874737 178.809680,137.084568 C 178.608546,129.786605 177.799817,129.103813 171.388099,130.818686 C 166.429399,132.144936 164.000000,131.546904 164.000000,129.000000 C 164.000000,126.747926 165.932125,126.004039 171.831787,125.984687 C 178.727443,125.962068 179.417932,125.213043 178.640548,118.598720 C 178.148688,114.413759 178.300378,113.003867 179.241264,113.015313 C 181.932192,113.048048 182.891338,114.750002 183.189827,120.021828 L 183.500000,125.500000 L 190.500000,126.000000 C 195.833333,126.380952 197.500000,126.857143 197.500000,128.000000 C 197.500000,129.131466 196.034363,129.575262 191.534588,129.806331 C 188.253612,129.974813 184.991112,130.592414 184.284588,131.178776 C 183.484197,131.843042 183.000000,134.648768 183.000000,138.622445 C 183.000000,144.969268 182.640075,145.693150 180.241474,144.170401" fill="none" stroke="black" stroke-width="5"/>
  <path d="M 107.571625,111.823907 C 107.339346,111.095758 106.858875,108.334097 106.503912,105.686882 L 105.858524,100.873764 L 100.573548,101.534078 C 96.283201,102.070121 95.175315,101.899247 94.686776,100.626135 C 93.749041,98.182437 96.744482,96.000000 101.036245,96.000000 C 105.719280,96.000000 107.000000,94.188738 107.000000,87.565741 C 107.000000,82.691834 107.006334,82.681464 109.418213,83.606989 C 110.613055,84.065493 111.000000,85.655974 111.000000,90.108693 L 111.000000,96.003409 L 116.470711,95.613950 C 120.233154,95.346102 122.289707,95.644149 123.056801,96.568441 C 125.008842,98.920507 123.054827,100.000000 116.845257,100.000000 L 110.808549,100.000000 L 111.154274,106.223544 C 111.448483,111.519717 111.238782,112.499296 109.746976,112.797451 C 108.782813,112.990150 107.803905,112.552055 107.571625,111.823907" fill="none" stroke="black" stroke-width="5"/>
  <path d="M 104.274393,38.190746 C 103.600309,37.762500 102.889539,34.731891 102.694903,31.456059 L 102.341021,25.500000 L 96.177653,25.850400 C 91.036008,26.142714 89.903279,25.911525 89.344662,24.455793 C 88.450796,22.126415 91.745275,19.739644 95.000000,20.358636 C 96.375000,20.620137 98.724983,20.592675 100.222184,20.297609 C 102.896146,19.770630 102.933736,19.659403 102.344166,14.018700 C 101.721660,8.062882 102.478592,6.478951 105.409758,7.603744 C 106.614478,8.066039 107.000000,9.642619 107.000000,14.106989 C 107.000000,18.092595 107.404590,20.037709 108.250000,20.116505 C 108.937500,20.180582 112.290172,20.220070 115.700382,20.204256 C 122.705245,20.171771 125.128886,21.675572 122.246469,24.265917 C 120.934891,25.444594 119.503953,25.654788 116.500000,25.110029 C 110.312055,23.987861 107.522180,25.042056 107.384709,28.554376 C 107.321299,30.174469 107.208799,33.187500 107.134709,35.250000 C 106.998046,39.054407 106.477025,39.590079 104.274393,38.190746" fill="none" stroke="black" stroke-width="5"/>
</svg>
