<?xml version="1.0" encoding="utf-8" ?>
<svg xmlns="http://www.w3.org/2000/svg" xmlns:ev="http://www.w3.org/2001/xml-events" xmlns:xlink="http://www.w3.org/1999/xlink" baseProfile="full" height="217" version="1.1" width="255">
  <defs/>
  <path d="M 14.494708,192.750000 C 14.251320,192.062500 13.912918,188.813779 13.742703,185.530619 L 13.433221,179.561239 L 6.716610,179.732268 C 0.296614,179.895744 -0.000000,179.800179 -0.000000,177.568280 C -0.000000,174.858690 2.135855,174.034166 9.207936,174.013655 L 13.915871,174.000000 L 14.207936,166.250000 C 14.491412,158.727884 14.573511,158.500000 17.000000,158.500000 C 19.400000,158.500000 19.520000,158.800000 20.000000,166.000000 L 20.500000,173.500000 L 26.660430,173.795392 C 30.549556,173.981876 33.004118,174.568349 33.317910,175.386076 C 34.329181,178.021407 32.285074,179.108994 26.157433,179.195877 L 20.000000,179.283183 L 19.968197,184.891592 C 19.936921,190.406939 18.414308,194.000000 16.108373,194.000000 C 15.464244,194.000000 14.738095,193.437500 14.494708,192.750000" fill="none" stroke="black" stroke-width="5"/>
  <path d="M 175.500000,179.577144 C 170.292031,176.603075 167.723471,171.498336 167.788589,164.251541 C 167.841072,158.410799 168.260124,157.747790 175.384859,152.232986 C 178.799616,149.589839 185.273815,149.251914 190.518056,151.443098 C 194.879168,153.265287 200.000000,161.014257 200.000000,165.791410 C 200.000000,170.553821 195.055194,177.411682 189.214229,180.750000 C 185.909104,182.638996 179.972653,182.131304 175.500000,179.577144" fill="none" stroke="black" stroke-width="5"/>
  <path d="M 34.000000,50.266422 C 34.000000,47.589890 33.461686,44.861686 32.803747,44.203747 C 31.875409,43.275409 32.043380,42.685788 33.553747,41.571067 C 36.939460,39.072252 34.123508,37.846852 29.028990,39.602056 C 25.748122,40.732407 23.992002,40.861756 22.312956,40.096731 C 18.798855,38.495599 20.505417,36.438078 26.550334,34.987925 C 30.702072,33.991938 32.000000,33.242276 32.000000,31.840285 C 32.000000,30.828128 32.450000,30.000000 33.000000,30.000000 C 33.550000,30.000000 34.000000,28.226558 34.000000,26.059017 C 34.000000,21.379515 34.916587,20.552847 37.837032,22.598406 C 39.558301,23.804030 40.000000,25.122876 40.000000,29.056704 C 40.000000,34.490912 39.862487,34.408175 48.250000,34.020423 C 51.808281,33.855925 52.000000,34.004347 52.000000,36.923531 C 52.000000,39.938330 51.902225,40.000000 47.122445,40.000000 C 44.370308,40.000000 41.780325,40.559766 41.178776,41.284588 C 40.592414,41.991112 39.974813,45.253612 39.806331,48.534588 C 39.514829,54.211218 39.366874,54.515318 36.750000,54.816422 C 34.083384,55.123250 34.000000,54.985289 34.000000,50.266422" fill="none" stroke="black" stroke-width="5"/>
  <path d="M 188.666667,38.333333 C 188.300000,37.966667 188.000000,35.518224 188.000000,32.892350 C 188.000000,27.307607 187.115623,26.500000 181.000000,26.500000 C 176.834284,26.500000 176.476494,26.295715 176.183578,23.750000 C 175.897405,21.262901 176.184206,20.985845 179.183578,20.851940 C 181.007610,20.770507 183.390176,20.658007 184.478169,20.601940 C 186.764467,20.484121 188.246826,14.659742 187.345432,9.336100 C 186.922535,6.838465 187.242083,5.940809 188.862874,5.073388 C 190.550805,4.170034 191.101377,4.320907 191.958013,5.921546 C 192.531106,6.992380 193.000000,9.191851 193.000000,10.809259 C 193.000000,12.426666 193.281250,15.156250 193.625000,16.875000 L 194.250000,20.000000 L 201.125000,20.000000 L 208.000000,20.000000 L 208.000000,23.000000 L 208.000000,26.000000 L 201.000000,26.000000 L 194.000000,26.000000 L 194.000000,31.893011 C 194.000000,36.344176 193.612983,37.934535 192.418213,38.393011 C 190.384849,39.173286 189.492423,39.159090 188.666667,38.333333" fill="none" stroke="black" stroke-width="5"/>
</svg>
