<?xml version="1.0" encoding="utf-8" ?>
<svg baseProfile="full" height="215" version="1.1" width="258" xmlns="http://www.w3.org/2000/svg" xmlns:ev="http://www.w3.org/2001/xml-events" xmlns:xlink="http://www.w3.org/1999/xlink"><defs /><rect fill="white" height="215" width="258" x="0" y="0" /><circle cx="221.2752227783203" cy="177.63302612304688" fill="none" r="11.592547416687012" stroke="black" stroke-width="1" /><circle cx="221.80322265625" cy="177.94869995117188" fill="none" r="16.590984344482422" stroke="black" stroke-width="1" /><path d="M 50,124 L 55,135 L 70,137 L 55,141 L 53,154 L 49,142 L 35,140 L 48,136 Z" fill="black" stroke="black" stroke-width="1" /><path d="M 178,112 L 184,125 L 198,127 L 183,132 L 182,145 L 177,130 L 163,130 L 178,124 Z" fill="black" stroke="black" stroke-width="1" /><path d="M 107,82 L 111,95 L 124,97 L 111,100 L 110,113 L 105,101 L 93,99 L 105,94 Z" fill="black" stroke="black" stroke-width="1" /><path d="M 103,6 L 107,19 L 124,22 L 108,25 L 106,39 L 101,25 L 88,24 L 102,19 Z" fill="black" stroke="black" stroke-width="1" /><path d="M 0,0 L 0,214 L 257,214 L 257,0 Z" fill="none" stroke="black" stroke-width="1" /></svg>