<?xml version="1.0" encoding="utf-8" ?>
<svg xmlns="http://www.w3.org/2000/svg" xmlns:ev="http://www.w3.org/2001/xml-events" xmlns:xlink="http://www.w3.org/1999/xlink" baseProfile="full" height="218" version="1.1" width="258">
  <defs/>
  <path d="M 193.986345,215.750000 C 193.947597,209.365053 193.417654,208.990203 185.389154,209.668860 C 180.172202,210.109854 177.955904,209.956364 177.850000,209.146736 C 177.767500,208.516031 177.655000,207.487169 177.600000,206.860377 C 177.539184,206.167298 179.845836,205.547093 183.486783,205.277556 C 186.779514,205.033798 190.154514,204.457103 190.986783,203.996013 C 191.836938,203.525014 192.950829,200.603587 193.528866,197.328834 C 194.373612,192.543098 194.910476,191.500000 196.528866,191.500000 C 198.273582,191.500000 198.464586,192.087355 198.191697,196.613339 C 197.888238,201.646348 197.933404,201.736681 201.066697,202.363339 C 202.817514,202.713503 205.977917,203.000000 208.089816,203.000000 C 210.866123,203.000000 212.217095,203.537129 212.967521,204.939312 C 214.353593,207.529212 213.297152,208.070101 205.937500,208.538627 C 202.637498,208.748710 199.501559,209.190019 198.968748,209.519315 C 198.435937,209.848610 198.000000,211.891476 198.000000,214.059017 C 198.000000,217.333333 197.661675,218.000000 196.000000,218.000000 C 194.596638,218.000000 193.995927,217.328782 193.986345,215.750000" fill="none" stroke="black" stroke-width="5"/>
  <path d="M 152.118070,162.093190 C 151.182801,161.501478 150.697978,159.001814 150.618070,154.359446 L 150.500000,147.500000 L 143.394164,147.846876 C 137.646223,148.127465 136.173350,147.894126 135.686653,146.625815 C 134.590992,143.770567 137.673340,142.055346 143.618928,142.211777 C 150.214062,142.385297 150.908870,141.620780 150.539677,134.596669 C 150.214708,128.413935 150.672637,127.000000 153.000000,127.000000 C 155.353614,127.000000 156.000000,128.946936 156.000000,136.036098 L 156.000000,141.908620 L 162.750000,142.204310 C 168.862538,142.472075 169.529908,142.710426 169.816690,144.728171 C 170.124908,146.896728 169.944314,146.941064 163.066690,146.385299 C 155.070245,145.739125 155.829183,144.768752 155.620204,155.906328 C 155.499838,162.321285 154.703164,163.728688 152.118070,162.093190" fill="none" stroke="black" stroke-width="5"/>
  <path d="M 142.500000,113.000000 C 142.160081,112.450000 140.896024,111.999987 139.690983,111.999971 C 136.168939,111.999923 132.139401,106.037434 131.397945,99.728799 C 130.291486,90.314563 134.961893,84.026978 144.223517,82.462237 C 147.911669,81.839128 151.029497,82.548904 156.912605,85.350921 C 159.299759,86.487878 164.000000,95.349244 164.000000,98.712789 C 164.000000,102.589642 159.726683,109.075867 155.566094,111.514134 C 151.203598,114.070727 143.689831,114.925187 142.500000,113.000000" fill="none" stroke="black" stroke-width="5"/>
  <path d="M 51.358795,107.771526 C 50.941214,107.095865 50.657557,104.065796 50.728446,101.038039 C 50.799336,98.010283 50.384336,94.963096 49.806224,94.266514 C 48.529606,92.728284 44.793799,92.606201 43.344645,94.055355 C 41.842385,95.557615 36.828144,94.111122 37.199971,92.282759 C 37.582360,90.402463 44.154953,88.115803 47.396197,88.735406 C 50.033317,89.239523 50.583280,87.846648 51.240130,79.000000 C 51.444069,76.253290 51.930451,75.500000 53.500000,75.500000 C 55.305201,75.500000 55.483076,76.108746 55.326239,81.750000 L 55.152478,88.000000 L 59.826239,88.155525 C 62.396808,88.241063 65.451235,88.233635 66.613856,88.139018 C 67.776477,88.044401 69.244526,88.589709 69.876187,89.350815 C 72.080931,92.007369 68.235006,93.401497 57.325098,93.900519 C 55.269100,93.994561 55.176263,94.364048 55.626991,100.658911 C 55.971269,105.467090 55.741947,107.547333 54.801893,108.143599 C 53.003971,109.284000 52.242714,109.201736 51.358795,107.771526" fill="none" stroke="black" stroke-width="5"/>
  <path d="M 198.163051,97.304663 C 197.628254,96.305386 197.430109,93.363698 197.722730,90.767578 C 198.218275,86.371110 198.073815,85.978563 195.616518,85.044300 C 194.165481,84.492617 191.017492,84.309994 188.620987,84.638471 C 185.795075,85.025806 184.011385,84.827438 183.545763,84.074047 C 182.160383,81.832455 185.116833,80.097439 190.833086,79.797425 L 196.500000,79.500000 L 196.693553,75.118291 C 196.949749,69.318442 197.547109,68.000000 199.918711,68.000000 C 201.629511,68.000000 201.941161,68.785482 202.200096,73.750000 L 202.500000,79.500000 L 206.500000,79.593345 C 213.475820,79.756134 214.000000,79.924337 214.000000,82.000000 C 214.000000,83.611828 213.333333,84.000000 210.565100,84.000000 C 208.675904,84.000000 205.997883,84.430506 204.613942,84.956680 C 202.350208,85.817349 202.067693,86.536974 201.798842,92.127311 C 201.492549,98.496194 199.964934,100.671512 198.163051,97.304663" fill="none" stroke="black" stroke-width="5"/>
  <path d="M 223.250000,39.337719 C 222.562500,39.060307 222.000000,37.325128 222.000000,35.481766 C 222.000000,33.638404 221.570347,31.000127 221.045216,29.618927 C 220.215767,27.437312 219.395326,27.067772 214.795216,26.803828 C 210.890059,26.579758 209.500000,26.106232 209.500000,25.000000 C 209.500000,23.949325 211.193803,23.231173 215.154487,22.602565 C 220.199180,21.801911 220.867293,21.413536 221.349750,19.001251 C 221.647176,17.514118 221.649704,15.376468 221.355366,14.250919 C 220.631523,11.482941 222.637503,7.923667 224.515254,8.644227 C 225.568378,9.048349 226.000000,10.746153 226.000000,14.484544 C 226.000000,17.537008 226.536745,20.200569 227.275391,20.813591 C 227.976856,21.395755 230.789356,22.013355 233.525391,22.186036 C 237.141059,22.414233 238.500000,22.909763 238.500000,24.000000 C 238.500000,25.090237 237.141059,25.585767 233.525391,25.813964 C 230.789356,25.986645 227.976856,26.604245 227.275391,27.186409 C 226.506258,27.824733 226.000000,30.577945 226.000000,34.122445 C 226.000000,39.895139 225.759897,40.350485 223.250000,39.337719" fill="none" stroke="black" stroke-width="5"/>
</svg>
