<?xml version="1.0" encoding="utf-8" ?>
<svg baseProfile="full" height="216" version="1.1" width="258" xmlns="http://www.w3.org/2000/svg" xmlns:ev="http://www.w3.org/2001/xml-events" xmlns:xlink="http://www.w3.org/1999/xlink"><defs /><rect fill="white" height="216" width="258" x="0" y="0" /><path d="M 64,157 L 68,169 L 82,173 L 67,177 L 65,191 L 61,176 L 44,173 L 61,169 Z" fill="black" stroke="black" stroke-width="1" /><path d="M 223,138 L 227,152 L 244,155 L 229,158 L 225,173 L 221,158 L 207,159 L 220,152 Z" fill="black" stroke="black" stroke-width="1" /><path d="M 143,126 L 146,138 L 161,141 L 146,146 L 145,159 L 139,145 L 125,144 L 139,138 Z" fill="black" stroke="black" stroke-width="1" /><circle cx="232.5" cy="22.978260040283203" fill="none" r="12.279032707214355" stroke="black" stroke-width="1" /><path d="M 128,8 L 132,23 L 147,26 L 132,29 L 129,43 L 125,29 L 112,28 L 125,23 Z" fill="black" stroke="black" stroke-width="1" /><circle cx="231.82305908203125" cy="23.131366729736328" fill="none" r="17.27365493774414" stroke="black" stroke-width="1" /><path d="M 0,0 L 0,215 L 257,215 L 257,0 Z" fill="none" stroke="black" stroke-width="1" /></svg>