<?xml version="1.0" encoding="utf-8" ?>
<svg xmlns="http://www.w3.org/2000/svg" xmlns:ev="http://www.w3.org/2001/xml-events" xmlns:xlink="http://www.w3.org/1999/xlink" baseProfile="full" height="219" version="1.1" width="258">
  <defs/>
  <path d="M 40.641848,205.250000 C 40.300938,203.187500 40.017059,199.167824 40.011006,196.317388 C 39.998374,190.369168 40.022718,190.384394 30.009521,190.061605 C 26.439757,189.946529 23.391665,189.724998 23.235982,189.569316 C 23.080300,189.413633 23.236660,188.546849 23.583450,187.643128 C 23.966272,186.645511 25.344874,186.000000 27.092638,186.000000 C 28.675901,186.000000 32.002756,185.456668 34.485649,184.792595 L 39.000000,183.585190 L 39.000000,178.399584 C 39.000000,174.757985 39.438007,173.045899 40.471061,172.649478 C 42.938895,171.702482 45.000000,174.816415 45.000000,179.491835 L 45.000000,183.840812 L 51.387053,184.524807 C 56.814194,185.106005 57.938150,185.568838 58.865615,187.604401 C 59.465944,188.921981 59.629270,190.013982 59.228561,190.031070 C 53.128090,190.291230 45.612008,191.054659 45.211885,191.454781 C 44.929264,191.737402 44.757738,195.202007 44.830717,199.153903 C 44.951596,205.699744 44.005599,209.000000 42.008398,209.000000 C 41.597706,209.000000 40.982758,207.312500 40.641848,205.250000" fill="none" stroke="black" stroke-width="5"/>
  <path d="M 121.467023,146.946642 C 121.108967,146.367295 121.113536,143.329795 121.477177,140.196642 L 122.138343,134.500000 L 115.032697,134.500000 C 109.804662,134.500000 107.676493,134.103637 106.978838,133.000000 C 105.398976,130.500779 105.756654,130.293354 112.592252,129.744658 C 116.217991,129.453618 119.629460,128.770540 120.173294,128.226706 C 120.717129,127.682871 121.184896,124.699305 121.212776,121.596559 C 121.267254,115.533958 121.901122,114.516454 125.008949,115.502840 C 126.725175,116.047549 127.000000,117.022671 127.000000,122.567388 L 127.000000,129.000000 L 131.750000,129.171044 C 134.362500,129.265119 137.400000,129.377619 138.500000,129.421044 C 141.154979,129.525857 143.000000,130.795194 143.000000,132.516953 C 143.000000,133.570050 141.084152,133.988072 135.250000,134.207936 L 127.500000,134.500000 L 127.204310,141.250000 C 126.925163,147.622351 126.774608,148.000000 124.513327,148.000000 C 123.195916,148.000000 121.825079,147.525989 121.467023,146.946642" fill="none" stroke="black" stroke-width="5"/>
  <path d="M 229.000000,140.021258 C 228.002636,139.392101 227.332455,136.800597 227.000000,132.287514 L 226.500000,125.500000 L 219.898498,125.495687 C 212.917725,125.491126 209.675208,124.009970 210.714862,121.300675 C 211.201035,120.033727 212.414839,119.862967 217.302863,120.373867 C 224.323690,121.107688 226.000000,120.168779 226.000000,115.502555 C 226.000000,113.713650 226.281250,110.843750 226.625000,109.125000 C 227.154087,106.479563 227.698944,106.000000 230.175471,106.000000 C 233.069532,106.000000 233.098270,106.056366 232.852175,111.250000 C 232.715353,114.137500 231.947897,117.287500 231.146717,118.250000 C 229.453708,120.283900 229.446906,120.282164 238.111030,120.027577 C 243.042973,119.882657 244.860849,120.194996 245.268510,121.257343 C 246.248971,123.812384 244.550291,124.874335 238.978172,125.189827 L 233.500000,125.500000 L 233.000000,132.921349 C 232.495527,140.409095 231.740180,141.749818 229.000000,140.021258" fill="none" stroke="black" stroke-width="5"/>
  <path d="M 152.479078,117.070789 C 142.472385,114.670950 136.413150,103.882551 140.250000,95.297053 C 143.515466,87.990108 148.976248,85.365173 159.904836,85.849200 C 165.219154,86.084571 170.508315,92.200681 171.319315,99.048308 C 172.255755,106.955076 169.671267,112.119413 163.115325,115.441561 C 157.787463,118.141393 157.272269,118.220309 152.479078,117.070789" fill="none" stroke="black" stroke-width="5"/>
  <path d="M 103.000000,69.700000 C 103.000000,65.355556 102.514155,61.914155 101.800000,61.200000 C 101.074010,60.474010 97.551852,60.000000 92.883333,60.000000 C 85.193306,60.000000 83.638942,59.282957 84.754296,56.250000 C 85.071624,55.387100 87.788519,55.000000 93.527534,55.000000 C 101.789327,55.000000 101.844708,54.982878 102.422193,52.250000 C 102.741800,50.737500 102.623576,47.161642 102.159474,44.303650 C 101.109907,37.840304 102.045264,35.826001 104.897512,38.407250 C 106.496362,39.854189 106.977841,41.720945 107.208562,47.367487 L 107.500000,54.500000 L 113.465412,54.806331 C 119.584426,55.120550 122.000000,56.200638 122.000000,58.622445 C 122.000000,59.648518 120.372773,60.000000 115.622445,60.000000 C 107.644804,60.000000 106.726688,60.948170 107.375706,68.516698 C 107.952801,75.246496 107.439626,77.000000 104.893011,77.000000 C 103.208541,77.000000 103.000000,76.195807 103.000000,69.700000" fill="none" stroke="black" stroke-width="5"/>
</svg>
