<?xml version="1.0" encoding="utf-8" ?>
<svg xmlns="http://www.w3.org/2000/svg" xmlns:ev="http://www.w3.org/2001/xml-events" xmlns:xlink="http://www.w3.org/1999/xlink" baseProfile="full" height="220" version="1.1" width="258">
  <defs/>
  <path d="M 33.635924,206.360429 C 33.286166,203.808665 33.000000,200.433665 33.000000,198.860429 C 33.000000,196.163612 32.756907,195.999370 28.750000,195.988994 C 20.959309,195.968820 17.000000,194.917552 17.000000,192.869158 C 17.000000,191.192147 17.862422,191.000000 25.389412,191.000000 L 33.778823,191.000000 L 33.737805,183.800536 C 33.695875,176.441062 34.663976,174.646309 37.435105,176.946142 C 38.428371,177.770480 38.658500,179.674566 38.275437,183.899052 L 37.747908,189.716739 L 44.786910,190.410344 C 51.647830,191.086402 53.671812,192.294952 52.127581,194.793570 C 51.715011,195.461122 48.853501,195.824660 44.970101,195.702886 L 38.500000,195.500000 L 38.199242,202.472353 C 37.931115,208.688207 37.058325,210.930516 34.885924,210.984687 C 34.548182,210.993109 33.985682,208.912193 33.635924,206.360429" fill="none" stroke="black" stroke-width="5"/>
  <path d="M 168.702693,210.302786 C 167.797545,208.790805 165.883604,198.125533 166.191951,196.311891 C 166.469624,194.678667 165.773953,194.527483 159.137057,194.778711 C 151.461451,195.069257 149.000000,194.153855 149.000000,191.008788 C 149.000000,189.479050 150.021546,189.276746 157.236749,189.377605 L 165.473498,189.492745 L 166.260762,184.022359 C 167.131619,177.971124 168.089143,176.436494 170.432783,177.335833 C 171.556499,177.767043 172.000000,179.304445 172.000000,182.768615 C 172.000000,185.425877 172.540000,188.140000 173.200000,188.800000 C 173.860000,189.460000 176.736855,190.000000 179.593011,190.000000 C 183.405868,190.000000 184.947343,190.420394 185.393011,191.581787 C 186.303047,193.953303 186.253173,193.999143 182.750000,194.011006 C 180.962500,194.017059 177.830421,194.298030 175.789825,194.635385 L 172.079651,195.248759 L 171.789825,202.794125 C 171.613343,207.388710 171.046998,210.489288 170.341641,210.722532 C 169.704543,210.933205 168.967017,210.744319 168.702693,210.302786" fill="none" stroke="black" stroke-width="5"/>
  <path d="M 149.647357,122.307828 C 145.779015,121.683389 138.499239,114.246194 137.662829,110.064145 C 136.742519,105.462596 136.835201,102.000000 137.878680,102.000000 C 138.361953,102.000000 139.321384,100.638324 140.010747,98.974054 C 142.127945,93.862687 146.096623,91.814551 153.979354,91.765203 C 160.076253,91.727036 161.260413,92.041336 164.136008,94.460989 C 168.514881,98.145568 170.000000,101.312704 170.000000,106.966424 C 170.000000,116.815985 160.409526,124.045087 149.647357,122.307828" fill="none" stroke="black" stroke-width="5"/>
  <path d="M 106.046971,59.556597 C 105.388117,58.762726 104.790509,55.612726 104.718956,52.556597 C 104.574853,46.401860 104.588056,46.410032 95.668131,46.954221 C 92.168503,47.167727 91.865037,46.984761 92.168131,44.843998 C 92.466321,42.737877 93.083530,42.469565 98.250000,42.200096 L 104.000000,41.900192 L 104.000000,35.509113 C 104.000000,31.954018 104.486323,28.817470 105.095961,28.440693 C 107.061778,27.225751 109.175652,30.648799 109.844657,36.130371 L 110.500000,41.500000 L 116.813083,41.799355 C 122.634313,42.075387 123.101774,42.266721 122.813083,44.255188 C 122.547456,46.084792 121.742112,46.457740 117.500000,46.715632 C 110.006364,47.171195 110.000000,47.177774 110.000000,54.468615 C 110.000000,61.208438 108.751516,62.815374 106.046971,59.556597" fill="none" stroke="black" stroke-width="5"/>
  <path d="M 217.024309,58.545422 C 216.165324,56.940394 215.915645,54.360054 216.302920,51.090128 L 216.895181,46.089411 L 209.996724,46.393938 C 202.561831,46.722146 200.636153,45.506704 203.714259,42.428598 C 204.904180,41.238677 206.354448,40.960969 209.092301,41.398769 C 215.241181,42.382015 216.000000,41.624177 216.000000,34.500000 C 216.000000,29.889875 216.392195,28.063478 217.471061,27.649478 C 220.041553,26.663088 222.000000,29.819610 222.000000,34.948984 C 222.000000,37.656663 222.563976,40.223169 223.291689,40.827117 C 224.002117,41.416720 227.709965,42.034320 231.531350,42.199562 C 237.210685,42.445143 238.540247,42.819535 238.812986,44.250000 C 239.109555,45.805450 238.202806,46.000000 230.656657,46.000000 C 224.762354,46.000000 222.034232,46.382169 221.733500,47.250000 C 221.495258,47.937500 221.519367,51.312500 221.787077,54.750000 C 222.232099,60.464275 222.105138,61.000000 220.305890,61.000000 C 219.223528,61.000000 217.746817,59.895440 217.024309,58.545422" fill="none" stroke="black" stroke-width="5"/>
</svg>
