<?xml version="1.0" encoding="utf-8" ?>
<svg xmlns="http://www.w3.org/2000/svg" xmlns:ev="http://www.w3.org/2001/xml-events" xmlns:xlink="http://www.w3.org/1999/xlink" baseProfile="full" height="218" version="1.1" width="255">
  <defs/>
  <path d="M 89.119430,196.094030 C 88.235390,195.534717 87.642117,192.933056 87.469874,188.860286 C 87.321931,185.362129 87.155688,182.197202 87.100444,181.827115 C 87.045200,181.457028 83.635497,181.408686 79.523326,181.719689 C 72.956259,182.216355 71.963218,182.067721 71.360846,180.497967 C 70.445352,178.112228 73.604159,175.848461 77.500000,176.098326 C 79.150000,176.204151 81.962500,176.225319 83.750000,176.145367 L 87.000000,176.000000 L 87.000000,169.106989 C 87.000000,161.536215 88.439547,159.618237 91.545715,163.050514 C 92.946235,164.598071 93.154754,166.026196 92.630935,170.483075 C 91.897861,176.720393 91.271522,176.317795 101.246994,176.021296 C 106.726489,175.858430 108.113427,176.132012 108.629776,177.477595 C 109.753784,180.406714 107.321974,181.452803 100.023132,181.179906 L 93.085559,180.920516 L 92.792780,188.630004 C 92.502083,196.284635 91.770448,197.771274 89.119430,196.094030" fill="none" stroke="black" stroke-width="5"/>
  <path d="M 178.677007,187.195590 C 177.688917,186.103764 177.000000,183.679258 177.000000,181.293704 C 177.000000,175.762153 175.144094,174.455857 167.608218,174.683214 C 161.542097,174.866228 159.690409,173.970356 160.699509,171.340684 C 161.057321,170.408241 163.236789,169.995337 167.856989,169.984687 C 176.362773,169.965081 177.730907,169.178779 176.101938,165.246100 C 174.729163,161.931929 175.449892,157.701438 177.706326,155.828765 C 179.986982,153.935988 181.769231,157.056361 181.769231,162.942127 C 181.769231,165.623632 182.052229,168.275492 182.398117,168.835149 C 182.763943,169.427069 185.217398,169.638440 188.263501,169.340466 C 192.039816,168.971061 194.057695,169.251673 195.500000,170.346791 C 198.672291,172.755460 196.091406,174.298658 189.057592,174.198926 C 182.287155,174.102928 182.730332,173.473564 182.576140,183.403359 C 182.492258,188.805294 181.237860,190.025301 178.677007,187.195590" fill="none" stroke="black" stroke-width="5"/>
  <path d="M 133.135028,160.276039 C 122.738608,158.318617 117.093853,146.616842 121.952213,137.093670 C 123.699024,133.669638 125.196605,132.360747 129.591012,130.417331 C 132.597320,129.087799 136.174100,128.000000 137.539412,128.000000 C 141.627965,128.000000 148.341710,131.772490 150.871023,135.491106 C 152.865617,138.423574 153.175360,139.898922 152.822009,144.783938 C 152.364305,151.111639 150.465447,154.483189 145.500000,157.784662 C 142.280106,159.925535 136.963250,160.996810 133.135028,160.276039" fill="none" stroke="black" stroke-width="5"/>
  <path d="M 127.303533,122.208756 C 126.635331,121.783965 125.973051,118.589707 125.803533,114.974068 L 125.500000,108.500000 L 119.302677,108.203650 C 114.191787,107.959252 112.997150,107.566380 112.488129,105.962598 C 111.528389,102.938723 112.485144,102.324463 119.087247,101.725805 C 125.779272,101.118994 128.188981,99.788981 126.200000,97.800000 C 125.540000,97.140000 125.000000,94.920324 125.000000,92.867388 C 125.000000,90.018626 125.471464,88.985139 126.991051,88.502840 C 130.249808,87.468551 131.000000,88.780488 131.000000,95.513704 L 131.000000,101.909374 L 134.250000,102.468333 C 136.037500,102.775760 139.525000,102.908651 142.000000,102.763646 C 146.276377,102.513102 146.516186,102.641448 146.825722,105.346372 L 147.151444,108.192745 L 141.325722,107.976967 C 130.543576,107.577608 130.827559,107.459893 131.017208,112.250000 C 131.433533,122.765379 130.809874,124.437810 127.303533,122.208756" fill="none" stroke="black" stroke-width="5"/>
  <path d="M 34.502061,70.750000 C 34.178350,68.962500 33.777886,64.800000 33.612141,61.500000 L 33.310788,55.500000 L 25.429579,55.224185 C 21.094915,55.072487 17.149197,54.549197 16.661318,54.061318 C 14.630502,52.030502 17.457340,51.000000 25.059017,51.000000 L 33.000000,51.000000 L 33.000000,44.106989 C 33.000000,39.266408 33.399196,37.060792 34.340684,36.699509 C 36.738341,35.779441 38.497740,37.848914 38.604893,41.715236 C 38.662584,43.796856 38.775084,46.708526 38.854893,48.185613 L 39.000000,50.871226 L 46.750000,50.685613 C 54.399497,50.502407 54.500000,50.532420 54.500000,53.000000 C 54.500000,55.426489 54.272116,55.508588 46.750000,55.792064 L 39.000000,56.084129 L 39.000000,63.842064 C 39.000000,71.002203 38.068993,74.000000 35.845313,74.000000 C 35.430235,74.000000 34.825772,72.537500 34.502061,70.750000" fill="none" stroke="black" stroke-width="5"/>
  <path d="M 211.231729,72.143527 C 209.394472,71.007590 207.906972,65.012806 208.576632,61.443206 C 209.444862,56.815147 207.339643,55.618646 199.443632,56.252462 C 192.537544,56.806816 189.490825,55.490462 190.655459,52.455477 C 191.098702,51.300404 192.871656,51.011320 198.604721,51.159330 C 202.663052,51.264104 206.236936,51.096397 206.546686,50.786647 C 206.856436,50.476898 207.148863,47.473186 207.196525,44.111733 C 207.281771,38.099616 207.328995,38.000000 210.093874,38.000000 C 212.843232,38.000000 212.911062,38.136384 213.202283,44.250000 L 213.500000,50.500000 L 219.465412,50.806331 C 225.836551,51.133497 228.216295,52.272769 227.333570,54.573113 C 226.939076,55.601149 225.015510,56.000000 220.452028,56.000000 C 216.968331,56.000000 213.845142,56.441548 213.511608,56.981219 C 213.178073,57.520889 213.408079,60.735754 214.022733,64.125362 C 214.917037,69.057156 214.876567,70.551915 213.820142,71.607980 C 213.074892,72.352976 211.947696,72.586195 211.231729,72.143527" fill="none" stroke="black" stroke-width="5"/>
</svg>
