<?xml version="1.0" encoding="utf-8" ?>
<svg baseProfile="full" height="217" version="1.1" width="258" xmlns="http://www.w3.org/2000/svg" xmlns:ev="http://www.w3.org/2001/xml-events" xmlns:xlink="http://www.w3.org/1999/xlink"><defs /><rect fill="white" height="217" width="258" x="0" y="0" /><path d="M 101,145 L 105,159 L 119,162 L 104,165 L 100,179 L 98,166 L 83,162 L 98,159 Z" fill="black" stroke="black" stroke-width="1" /><path d="M 161,117 L 168,130 L 182,133 L 167,136 L 165,152 L 160,136 L 143,134 L 160,130 Z" fill="black" stroke="black" stroke-width="1" /><circle cx="113.0" cy="107.15789794921875" fill="none" r="11.526899337768555" stroke="black" stroke-width="1" /><circle cx="112.16981506347656" cy="107.13207244873047" fill="none" r="16.964799880981445" stroke="black" stroke-width="1" /><path d="M 45,72 L 49,87 L 62,90 L 49,94 L 48,108 L 43,94 L 26,90 L 42,87 Z" fill="black" stroke="black" stroke-width="1" /><path d="M 162,48 L 165,63 L 181,67 L 165,70 L 162,87 L 157,69 L 143,69 L 159,62 Z" fill="black" stroke="black" stroke-width="1" /><path d="M 104,24 L 107,39 L 122,43 L 107,46 L 105,61 L 100,46 L 87,44 L 101,39 Z" fill="black" stroke="black" stroke-width="1" /><path d="M 0,0 L 0,216 L 257,216 L 257,0 Z" fill="none" stroke="black" stroke-width="1" /></svg>