<?xml version="1.0" encoding="utf-8" ?>
<svg xmlns="http://www.w3.org/2000/svg" xmlns:ev="http://www.w3.org/2001/xml-events" xmlns:xlink="http://www.w3.org/1999/xlink" baseProfile="full" height="219" version="1.1" width="258">
  <defs/>
  <path d="M 85.250000,215.333333 C 84.447183,215.012207 84.000000,212.716667 84.000000,208.916667 L 84.000000,203.000000 L 76.433578,203.000000 L 68.867155,203.000000 L 69.183578,200.250000 C 69.490244,197.584791 69.709645,197.490848 76.299349,197.203185 C 83.574680,196.885592 85.031771,195.796399 83.074299,192.138829 C 82.360417,190.804928 82.334327,189.911409 82.997296,189.501671 C 83.548783,189.160833 84.000000,187.783524 84.000000,186.440983 C 84.000000,182.743344 87.939992,183.035243 88.171050,186.750000 C 88.265128,188.262500 88.442293,190.175000 88.564751,191.000000 C 88.687209,191.825000 88.835236,193.512500 88.893701,194.750000 C 88.985532,196.693769 89.578436,197.016103 93.250000,197.118315 C 100.648268,197.324274 103.468997,198.295189 103.819551,200.756431 C 104.124754,202.899262 103.822530,203.000000 97.088603,203.000000 C 89.254150,203.000000 89.345111,202.907939 88.766543,211.422700 C 88.501398,215.324822 87.635649,216.287593 85.250000,215.333333" fill="none" stroke="black" stroke-width="5"/>
  <path d="M 112.250000,143.779505 C 111.012500,143.182682 110.000000,142.313138 110.000000,141.847186 C 110.000000,141.381234 109.343969,141.000000 108.542154,141.000000 C 106.374126,141.000000 102.000000,132.855991 102.000000,128.819426 C 102.000000,120.777446 110.054265,112.049014 117.500000,112.022027 C 122.105026,112.005336 127.717997,113.853363 130.605163,116.336799 C 133.516994,118.841450 135.987039,124.939581 135.936912,129.500000 C 135.847249,137.657340 128.054508,144.958054 119.500000,144.899098 C 116.750000,144.880146 113.487500,144.376329 112.250000,143.779505" fill="none" stroke="black" stroke-width="5"/>
  <path d="M 208.517805,65.028809 C 208.148802,64.431749 208.158763,61.031015 208.539942,57.471623 C 208.921121,53.912230 208.843070,50.940975 208.366497,50.868834 C 207.889924,50.796692 204.619876,50.601332 201.099724,50.434699 C 194.972536,50.144657 192.583203,48.932129 193.346247,46.500000 C 193.518801,45.950000 196.886486,45.367786 200.829991,45.206190 C 208.751942,44.881568 208.550379,45.113067 208.067817,36.893389 C 207.834343,32.916536 210.115730,29.723443 212.528939,30.649478 C 213.591078,31.057059 214.000000,32.835697 214.000000,37.047972 C 214.000000,40.256669 214.480558,43.178967 215.067906,43.541968 C 215.655254,43.904970 218.818040,44.445186 222.096319,44.742450 C 225.374598,45.039714 228.322287,45.712454 228.646738,46.237426 C 229.928654,48.311611 226.178458,50.170049 220.380425,50.333861 L 214.500000,50.500000 L 214.000000,58.000000 C 213.551122,64.733166 213.279598,65.531408 211.344360,65.807186 C 210.158758,65.976138 208.886808,65.625868 208.517805,65.028809" fill="none" stroke="black" stroke-width="5"/>
  <path d="M 58.184502,62.690559 C 57.655553,62.035752 56.903468,58.687500 56.513201,55.250000 L 55.803626,49.000000 L 50.651813,48.968197 C 45.218224,48.934654 42.000000,47.340896 42.000000,44.683567 C 42.000000,43.396074 43.401235,43.030833 49.250000,42.793810 L 56.500000,42.500000 L 56.164828,36.906601 C 55.916093,32.755681 56.245918,30.896939 57.443767,29.699090 C 60.524408,26.618449 62.000000,28.660018 62.000000,36.002908 L 62.000000,42.791838 L 69.930593,43.493856 C 77.781254,44.188798 79.702152,45.245861 78.030244,47.951064 C 77.475792,48.848187 75.082103,49.115012 69.872765,48.860380 L 62.500000,48.500000 L 62.208025,55.659119 C 61.915818,62.823916 60.413303,65.449685 58.184502,62.690559" fill="none" stroke="black" stroke-width="5"/>
</svg>
