<?xml version="1.0" encoding="utf-8" ?>
<svg xmlns="http://www.w3.org/2000/svg" xmlns:ev="http://www.w3.org/2001/xml-events" xmlns:xlink="http://www.w3.org/1999/xlink" baseProfile="full" height="222" version="1.1" width="254">
  <defs/>
  <path d="M 98.666667,175.333333 C 98.300000,174.966667 98.000000,172.093421 98.000000,168.948343 C 98.000000,163.905756 97.695277,163.030358 95.421321,161.540405 C 93.567482,160.325723 91.778713,160.030540 89.057620,160.490265 C 84.882098,161.195715 81.621274,159.150518 82.649478,156.471061 C 83.071943,155.370137 84.975618,155.000000 90.215397,155.000000 C 97.165293,155.000000 97.212245,154.981788 96.595657,152.525106 C 95.821771,149.441697 97.986939,142.218990 99.905889,141.482619 C 102.166623,140.615095 102.848390,142.073931 103.185366,148.500000 L 103.500000,154.500000 L 108.500000,154.584007 C 117.943623,154.742674 118.166589,154.806457 117.819551,157.250000 C 117.531079,159.281167 116.819186,159.548630 110.500000,160.000000 L 103.500000,160.500000 L 103.433310,164.500000 C 103.258977,174.956406 103.053285,176.000000 101.166667,176.000000 C 100.158333,176.000000 99.033333,175.700000 98.666667,175.333333" fill="none" stroke="black" stroke-width="5"/>
  <path d="M 180.791042,119.250000 C 180.676115,117.187500 180.524091,113.700000 180.453211,111.500000 L 180.324338,107.500000 L 175.412169,107.770718 C 168.185908,108.168970 165.805972,107.380721 166.185081,104.714654 C 166.461815,102.768536 167.187136,102.463936 172.166914,102.202575 C 175.283717,102.038992 178.295868,101.348427 178.860583,100.667987 C 179.425298,99.987547 180.025187,96.746388 180.193669,93.465412 C 180.485171,87.788782 180.633126,87.484682 183.250000,87.183578 L 186.000000,86.867155 L 186.000000,94.571673 L 186.000000,102.276190 L 192.386776,101.621845 C 197.726007,101.074825 198.874663,101.230994 199.390020,102.573993 C 200.383494,105.162944 199.395630,105.724638 192.561806,106.456478 L 186.095808,107.148928 L 186.117642,114.057118 C 186.142150,121.811755 185.720066,123.000000 182.940983,123.000000 C 181.401884,123.000000 180.956735,122.223556 180.791042,119.250000" fill="none" stroke="black" stroke-width="5"/>
  <path d="M 55.336375,110.157480 C 54.011382,109.270589 52.630479,105.822145 52.916969,104.115651 C 53.044794,103.354259 52.882194,101.666759 52.555637,100.365651 C 52.015245,98.212558 51.431845,98.000000 46.062735,98.000000 C 39.288552,98.000000 37.000000,97.350559 37.000000,95.428195 C 37.000000,93.380720 40.347617,92.000000 45.311814,92.000000 C 47.755627,92.000000 50.231355,91.426161 50.813431,90.724802 C 51.395508,90.023443 52.013108,87.071546 52.185876,84.165032 C 52.413591,80.334144 53.089267,78.326658 54.642161,76.867225 L 56.784323,74.853990 L 58.309173,77.031018 C 59.429730,78.630839 59.683676,80.664761 59.266968,84.702274 C 58.568775,91.467112 59.181841,91.964116 68.250000,91.984687 C 75.196234,92.000445 75.879401,92.488307 73.964816,96.065741 C 73.097206,97.686885 71.829158,98.000000 66.131483,98.000000 C 58.555014,98.000000 57.618062,98.417826 59.077868,101.145497 C 61.156222,105.028938 58.224433,112.090619 55.336375,110.157480" fill="none" stroke="black" stroke-width="5"/>
  <path d="M 118.714516,76.158574 C 117.182500,75.246358 114.760664,72.124155 113.332657,69.220345 C 111.199066,64.881750 110.850494,63.107419 111.377051,59.265763 C 112.483813,51.191053 119.169066,45.948537 128.200340,46.073088 C 134.848842,46.164779 138.506246,48.267650 141.599036,53.776841 C 145.283799,60.340516 144.708714,66.176164 139.864735,71.375565 C 138.839131,72.476422 138.000000,73.709311 138.000000,74.115320 C 138.000000,74.521328 136.580863,75.561475 134.846362,76.426758 C 130.808253,78.441232 122.310868,78.299967 118.714516,76.158574" fill="none" stroke="black" stroke-width="5"/>
</svg>
