<?xml version="1.0" encoding="utf-8" ?>
<svg baseProfile="full" height="220" version="1.1" width="260" xmlns="http://www.w3.org/2000/svg" xmlns:ev="http://www.w3.org/2001/xml-events" xmlns:xlink="http://www.w3.org/1999/xlink"><defs /><rect fill="white" height="220" width="260" x="0" y="0" /><path d="M 78,173 L 83,188 L 98,191 L 83,194 L 80,209 L 76,194 L 62,192 L 76,187 Z" fill="black" stroke="black" stroke-width="1" /><path d="M 25,134 L 29,146 L 46,149 L 30,152 L 27,166 L 23,152 L 9,151 L 23,147 Z" fill="black" stroke="black" stroke-width="1" /><path d="M 132,119 L 137,135 L 151,136 L 136,141 L 134,155 L 130,142 L 115,140 L 130,135 Z" fill="black" stroke="black" stroke-width="1" /><path d="M 75,80 L 77,93 L 91,98 L 78,100 L 72,114 L 70,100 L 54,96 L 67,95 Z" fill="black" stroke="black" stroke-width="1" /><circle cx="213.0" cy="62.0" fill="none" r="11.180439949035645" stroke="black" stroke-width="1" /><circle cx="213.5" cy="61.0" fill="black" r="19.006677627563477" stroke="black" stroke-width="1" /><path d="M 0,0 L 0,219 L 259,219 L 259,0 Z" fill="none" stroke="black" stroke-width="1" /></svg>