<?xml version="1.0" encoding="utf-8" ?>
<svg xmlns="http://www.w3.org/2000/svg" xmlns:ev="http://www.w3.org/2001/xml-events" xmlns:xlink="http://www.w3.org/1999/xlink" baseProfile="full" height="218" version="1.1" width="262">
  <defs/>
  <path d="M 19.327182,205.821213 C 13.203798,202.055561 11.999214,199.816010 12.002346,192.202947 C 12.004357,187.315816 12.433176,185.999319 15.000000,183.000000 C 16.647419,181.075000 17.996363,179.211361 17.997654,178.858580 C 17.998944,178.505799 19.808890,177.493385 22.019757,176.608772 C 26.441896,174.839382 33.014611,175.653017 37.374135,178.509487 C 40.745702,180.718622 44.000000,187.228601 44.000000,191.764031 C 44.000000,199.114530 40.961363,204.006056 34.299660,207.379411 C 29.440383,209.840053 25.133403,209.391822 19.327182,205.821213" fill="none" stroke="black" stroke-width="5"/>
  <path d="M 101.144036,204.983338 C 100.546070,203.268010 100.330205,199.870035 100.664336,197.432280 C 101.234708,193.270964 101.125986,192.995553 98.885924,192.927252 C 86.346881,192.544927 86.511233,192.578966 86.186626,190.297135 C 85.893296,188.235172 86.309058,188.075263 92.686626,187.797135 L 99.500000,187.500000 L 99.576044,180.723956 C 99.703205,169.393146 104.182164,168.901268 105.351585,180.089687 C 105.701129,183.433937 106.235149,186.571462 106.538297,187.061966 C 106.841446,187.552471 110.165834,187.725208 113.925827,187.445828 C 119.728689,187.014655 120.860698,187.194603 121.413872,188.636149 C 122.446068,191.326008 120.644573,192.220921 113.112760,192.759819 L 106.082314,193.262845 L 105.791157,200.370818 C 105.560321,206.006185 105.161395,207.543359 103.865624,207.790452 C 102.794601,207.994687 101.856496,207.027102 101.144036,204.983338" fill="none" stroke="black" stroke-width="5"/>
  <path d="M 197.326621,201.223025 C 196.681263,200.812532 195.829008,197.556923 195.432722,193.988338 C 195.036435,190.419752 194.214456,187.169129 193.606100,186.764731 C 192.997745,186.360334 190.455478,186.293473 187.956617,186.616153 C 184.622752,187.046658 183.088732,186.811842 182.194286,185.734101 C 180.371599,183.537897 183.170077,181.691587 188.668780,181.462519 C 194.124450,181.235243 195.073656,180.041112 194.826448,173.715978 C 194.593882,167.765472 196.713948,164.856805 199.357143,167.500000 C 200.511474,168.654332 201.000000,170.905797 201.000000,175.071429 L 201.000000,181.000000 L 204.750000,181.150800 C 206.812500,181.233740 209.740426,181.204562 211.256503,181.085959 C 213.028588,180.947329 214.236667,181.453168 214.639286,182.502377 C 215.623591,185.067435 213.642205,186.188958 207.476751,186.556583 C 204.337927,186.743740 201.537659,187.129008 201.253933,187.412733 C 200.970208,187.696459 200.511538,191.094663 200.234667,194.964299 C 199.728029,202.045229 199.475093,202.589601 197.326621,201.223025" fill="none" stroke="black" stroke-width="5"/>
  <path d="M 58.604128,118.168483 C 58.321480,117.711149 57.785334,114.361084 57.412693,110.723895 L 56.735164,104.110824 L 51.117582,103.420124 C 45.993397,102.790089 44.056952,101.789424 44.015313,99.750000 C 44.006891,99.337500 46.194900,99.000000 48.877555,99.000000 C 51.629692,99.000000 54.219675,98.440234 54.821224,97.715412 C 55.407586,97.008888 56.025187,93.746388 56.193669,90.465412 C 56.485171,84.788782 56.633126,84.484682 59.250000,84.183578 C 61.977054,83.869796 62.000000,83.916752 62.000000,89.811133 C 62.000000,97.301527 63.049617,98.235890 71.409779,98.187660 C 76.395069,98.158900 77.981342,98.508994 78.454678,99.742488 C 79.611244,102.756450 77.844900,103.324221 65.611111,103.870906 L 62.722223,104.000000 L 63.250190,109.822514 C 63.540572,113.024896 63.355711,116.399896 62.839388,117.322514 C 61.847972,119.094076 59.469763,119.569110 58.604128,118.168483" fill="none" stroke="black" stroke-width="5"/>
  <path d="M 211.381842,113.808817 C 210.976937,113.153666 210.513351,110.166638 210.351653,107.170978 C 210.189954,104.175317 209.878407,101.545073 209.659325,101.325992 C 209.440244,101.106910 206.743911,100.897596 203.667475,100.860850 C 197.828258,100.791103 195.293486,99.283529 196.356740,96.512735 C 196.792915,95.376080 198.560993,95.000000 203.468615,95.000000 L 210.000000,95.000000 L 210.158444,90.750000 C 210.245588,88.412500 210.245636,85.682827 210.158550,84.684060 C 209.944880,82.233527 211.769639,79.000000 213.366204,79.000000 C 215.661309,79.000000 217.220401,83.528160 216.852826,89.126391 L 216.500000,94.500000 L 223.750000,94.793810 C 227.737500,94.955405 230.993109,95.405405 230.984687,95.793810 C 230.935990,98.039635 228.725268,99.182885 223.894476,99.460433 C 220.927514,99.630897 218.162500,99.822035 217.750000,99.885184 C 217.337500,99.948333 217.000000,102.835000 217.000000,106.300000 C 217.000000,112.450839 215.933167,115.000000 213.359017,115.000000 C 212.676476,115.000000 211.786748,114.463967 211.381842,113.808817" fill="none" stroke="black" stroke-width="5"/>
  <path d="M 124.708849,67.375516 C 124.318982,66.985649 124.000000,64.546767 124.000000,61.955778 C 124.000000,56.195619 122.537830,54.785368 116.802631,55.013972 C 108.884274,55.329597 107.000000,55.049923 107.000000,53.559017 C 107.000000,51.232472 108.849227,50.699668 116.643808,50.780419 L 124.000000,50.856628 L 124.000000,43.035303 C 124.000000,37.010119 124.344013,35.081967 125.498011,34.639137 C 126.407347,34.290192 127.610021,35.001377 128.558475,36.448899 C 129.850882,38.421363 129.901491,39.184875 128.851293,40.866510 C 127.797327,42.554177 127.871681,43.507700 129.289009,46.479868 C 130.959841,49.983640 131.108688,50.054228 136.248180,49.780109 C 141.313854,49.509928 141.511215,49.597471 141.816422,52.250000 C 142.130594,54.980443 142.090041,55.000000 136.114140,55.000000 L 130.095435,55.000000 L 129.797717,61.250000 C 129.539882,66.662751 129.226568,67.539141 127.458849,67.792183 C 126.336216,67.952883 125.098716,67.765383 124.708849,67.375516" fill="none" stroke="black" stroke-width="5"/>
</svg>
