<?xml version="1.0" encoding="utf-8" ?>
<svg baseProfile="full" height="218" version="1.1" width="257" xmlns="http://www.w3.org/2000/svg" xmlns:ev="http://www.w3.org/2001/xml-events" xmlns:xlink="http://www.w3.org/1999/xlink"><defs /><rect fill="white" height="218" width="257" x="0" y="0" /><circle cx="149.5" cy="205.1666717529297" fill="none" r="4.1164655685424805" stroke="black" stroke-width="1" /><circle cx="177.0" cy="203.5" fill="none" r="4.031229019165039" stroke="black" stroke-width="1" /><circle cx="121.5" cy="201.0" fill="none" r="4.031229019165039" stroke="black" stroke-width="1" /><circle cx="96.5" cy="193.0" fill="none" r="4.609872341156006" stroke="black" stroke-width="1" /><circle cx="199.5" cy="187.0" fill="none" r="4.272101879119873" stroke="black" stroke-width="1" /><circle cx="72.5" cy="181.5" fill="none" r="4.301262855529785" stroke="black" stroke-width="1" /><path d="M 212,167 L 215,171 L 221,168 L 219,164 L 215,164 Z" fill="none" stroke="black" stroke-width="1" /><circle cx="55.0" cy="161.0" fill="none" r="4.123205661773682" stroke="black" stroke-width="1" /><circle cx="230.2142791748047" cy="141.2142791748047" fill="none" r="4.385839939117432" stroke="black" stroke-width="1" /><circle cx="50.0" cy="134.5" fill="none" r="4.272101879119873" stroke="black" stroke-width="1" /><circle cx="233.5" cy="115.0" fill="none" r="4.272101879119873" stroke="black" stroke-width="1" /><circle cx="51.5" cy="103.5" fill="none" r="4.301262855529785" stroke="black" stroke-width="1" /><circle cx="229.0833282470703" cy="89.08333587646484" fill="none" r="4.360595703125" stroke="black" stroke-width="1" /><path d="M 59,73 L 58,79 L 62,80 L 63,73 Z" fill="none" stroke="black" stroke-width="1" /><path d="M 143,72 L 144,92 L 163,91 L 163,72 Z" fill="none" stroke="black" stroke-width="1" /><path d="M 165,63 L 170,96 L 136,99 L 135,67 Z" fill="black" stroke="black" stroke-width="1" /><circle cx="219.31817626953125" cy="64.31818389892578" fill="none" r="4.047856330871582" stroke="black" stroke-width="1" /><circle cx="77.0" cy="59.0" fill="none" r="4.472236156463623" stroke="black" stroke-width="1" /><circle cx="205.625" cy="39.5" fill="none" r="4.403578758239746" stroke="black" stroke-width="1" /><circle cx="99.16666412353516" cy="39.5" fill="none" r="4.1164655685424805" stroke="black" stroke-width="1" /><circle cx="122.14102935791016" cy="25.243589401245117" fill="none" r="4.323823928833008" stroke="black" stroke-width="1" /><circle cx="184.0" cy="24.0" fill="none" r="4.472236156463623" stroke="black" stroke-width="1" /><circle cx="153.7857208251953" cy="19.214284896850586" fill="none" r="4.38583517074585" stroke="black" stroke-width="1" /><path d="M 0,0 L 0,217 L 256,217 L 256,0 Z" fill="none" stroke="black" stroke-width="1" /></svg>