<?xml version="1.0" encoding="utf-8" ?>
<svg baseProfile="full" height="220" version="1.1" width="261" xmlns="http://www.w3.org/2000/svg" xmlns:ev="http://www.w3.org/2001/xml-events" xmlns:xlink="http://www.w3.org/1999/xlink"><defs /><rect fill="white" height="220" width="261" x="0" y="0" /><circle cx="203.5" cy="179.5" fill="none" r="4.301262855529785" stroke="black" stroke-width="1" /><circle cx="175.5" cy="180.0" fill="none" r="4.717090606689453" stroke="black" stroke-width="1" /><circle cx="102.32608795166016" cy="179.8913116455078" fill="none" r="4.72155237197876" stroke="black" stroke-width="1" /><circle cx="78.0" cy="180.0" fill="none" r="4.472236156463623" stroke="black" stroke-width="1" /><circle cx="235.31817626953125" cy="178.68182373046875" fill="none" r="4.0478596687316895" stroke="black" stroke-width="1" /><circle cx="150.05555725097656" cy="179.0" fill="none" r="5.044652938842773" stroke="black" stroke-width="1" /><circle cx="54.25" cy="178.625" fill="none" r="4.550168991088867" stroke="black" stroke-width="1" /><circle cx="30.625" cy="178.875" fill="none" r="4.759958267211914" stroke="black" stroke-width="1" /><circle cx="127.19999694824219" cy="178.0" fill="none" r="4.386444091796875" stroke="black" stroke-width="1" /><circle cx="46.78571319580078" cy="155.7857208251953" fill="none" r="4.385843753814697" stroke="black" stroke-width="1" /><circle cx="223.85484313964844" cy="150.46774291992188" fill="none" r="4.612269878387451" stroke="black" stroke-width="1" /><circle cx="61.95454406738281" cy="133.13636779785156" fill="none" r="4.371782302856445" stroke="black" stroke-width="1" /><path d="M 166,126 L 164,147 L 185,147 L 186,127 Z" fill="none" stroke="black" stroke-width="1" /><circle cx="213.5" cy="126.0" fill="none" r="4.272101879119873" stroke="black" stroke-width="1" /><path d="M 157,121 L 191,119 L 194,151 L 159,154 Z" fill="black" stroke="black" stroke-width="1" /><circle cx="75.78571319580078" cy="114.21428680419922" fill="none" r="4.385838985443115" stroke="black" stroke-width="1" /><circle cx="199.9545440673828" cy="103.86363983154297" fill="none" r="4.371781826019287" stroke="black" stroke-width="1" /><path d="M 87,90 L 86,96 L 93,97 L 93,91 Z" fill="none" stroke="black" stroke-width="1" /><circle cx="188.75" cy="79.0" fill="none" r="4.366162300109863" stroke="black" stroke-width="1" /><circle cx="102.5" cy="73.5" fill="none" r="4.743516445159912" stroke="black" stroke-width="1" /><circle cx="176.80435180664062" cy="57.065216064453125" fill="none" r="4.328858375549316" stroke="black" stroke-width="1" /><circle cx="116.4000015258789" cy="55.400001525878906" fill="none" r="4.808424949645996" stroke="black" stroke-width="1" /><circle cx="163.8000030517578" cy="35.0" fill="none" r="4.386440277099609" stroke="black" stroke-width="1" /><circle cx="129.0" cy="33.5" fill="none" r="4.717090606689453" stroke="black" stroke-width="1" /><circle cx="146.0" cy="17.33333396911621" fill="none" r="4.772707462310791" stroke="black" stroke-width="1" /><path d="M 0,0 L 0,219 L 260,219 L 260,0 Z" fill="none" stroke="black" stroke-width="1" /></svg>