<?xml version="1.0" encoding="utf-8" ?>
<svg baseProfile="full" height="222" version="1.1" width="257" xmlns="http://www.w3.org/2000/svg" xmlns:ev="http://www.w3.org/2001/xml-events" xmlns:xlink="http://www.w3.org/1999/xlink"><defs /><rect fill="white" height="222" width="257" x="0" y="0" /><circle cx="203.5" cy="191.25" fill="none" r="4.5070390701293945" stroke="black" stroke-width="5" /><path d="M 173,179 L 167,184 L 169,189 L 173,189 L 175,186 Z" fill="none" stroke="black" stroke-width="5" /><circle cx="225.7142791748047" cy="180.42857360839844" fill="none" r="4.748897552490234" stroke="black" stroke-width="5" /><circle cx="140.23684692382812" cy="169.9736785888672" fill="none" r="5.176353931427002" stroke="black" stroke-width="5" /><path d="M 54,164 L 55,185 L 73,185 L 74,165 Z" fill="none" stroke="black" stroke-width="5" /><path d="M 224,152 L 222,155 L 223,158 L 230,159 L 231,153 Z" fill="none" stroke="black" stroke-width="5" /><circle cx="119.5" cy="155.0" fill="none" r="4.717090606689453" stroke="black" stroke-width="5" /><circle cx="96.0" cy="138.0" fill="none" r="4.472236156463623" stroke="black" stroke-width="5" /><circle cx="224.53225708007812" cy="127.1451644897461" fill="none" r="4.612271785736084" stroke="black" stroke-width="5" /><circle cx="74.5" cy="118.5" fill="none" r="4.743516445159912" stroke="black" stroke-width="5" /><circle cx="225.0" cy="100.0" fill="none" r="4.472236156463623" stroke="black" stroke-width="5" /><circle cx="49.89024353027344" cy="96.5243911743164" fill="none" r="4.611242771148682" stroke="black" stroke-width="5" /><circle cx="32.0" cy="73.0" fill="none" r="4.472236156463623" stroke="black" stroke-width="5" /><path d="M 226,64 L 224,71 L 226,73 L 230,73 L 231,66 Z" fill="none" stroke="black" stroke-width="5" /><circle cx="144.0" cy="43.0" fill="none" r="4.472236156463623" stroke="black" stroke-width="5" /><circle cx="32.5" cy="43.0" fill="none" r="4.924529075622559" stroke="black" stroke-width="5" /><circle cx="172.14285278320312" cy="42.85714340209961" fill="none" r="5.200180530548096" stroke="black" stroke-width="5" /><circle cx="113.73076629638672" cy="41.269229888916016" fill="none" r="4.623492240905762" stroke="black" stroke-width="5" /><circle cx="86.03191375732422" cy="42.32978820800781" fill="none" r="4.782958984375" stroke="black" stroke-width="5" /><path d="M 61,38 L 55,39 L 58,48 L 64,44 L 63,39 Z" fill="none" stroke="black" stroke-width="5" /><circle cx="225.375" cy="40.75" fill="none" r="4.550168991088867" stroke="black" stroke-width="5" /><circle cx="199.55882263183594" cy="40.617645263671875" fill="none" r="4.651439666748047" stroke="black" stroke-width="5" /><path d="M 0,0 L 0,221 L 256,221 L 256,0 Z" fill="none" stroke="black" stroke-width="5" /></svg>