<?xml version="1.0" encoding="utf-8" ?>
<svg baseProfile="full" height="221" version="1.1" width="258" xmlns="http://www.w3.org/2000/svg" xmlns:ev="http://www.w3.org/2001/xml-events" xmlns:xlink="http://www.w3.org/1999/xlink"><defs /><rect fill="white" height="221" width="258" x="0" y="0" /><circle cx="110.5" cy="187.5" fill="none" r="5.147915363311768" stroke="black" stroke-width="1" /><circle cx="86.33333587646484" cy="186.0" fill="none" r="4.772704601287842" stroke="black" stroke-width="1" /><circle cx="198.38235473632812" cy="184.73529052734375" fill="none" r="4.933038711547852" stroke="black" stroke-width="1" /><circle cx="141.5" cy="184.5" fill="none" r="5.147915363311768" stroke="black" stroke-width="1" /><path d="M 174,178 L 178,191 L 170,197 L 173,183 L 166,184 L 164,194 L 160,185 Z" fill="black" stroke="black" stroke-width="1" /><circle cx="110.75" cy="187.375" fill="black" r="10.097284317016602" stroke="black" stroke-width="1" /><path d="M 227,178 L 242,182 L 237,194 L 224,190 L 224,186 L 237,189 L 235,181 L 223,183 Z" fill="black" stroke="black" stroke-width="1" /><circle cx="85.84302520751953" cy="186.06976318359375" fill="black" r="9.85046100616455" stroke="black" stroke-width="1" /><circle cx="198.2558135986328" cy="184.71511840820312" fill="black" r="9.973674774169922" stroke="black" stroke-width="1" /><circle cx="141.5" cy="184.5" fill="black" r="10.12432861328125" stroke="black" stroke-width="1" /><circle cx="85.5" cy="155.0" fill="none" r="4.924529075622559" stroke="black" stroke-width="1" /><circle cx="234.3333282470703" cy="153.0" fill="none" r="4.772712230682373" stroke="black" stroke-width="1" /><circle cx="84.81578826904297" cy="155.0" fill="black" r="10.017569541931152" stroke="black" stroke-width="1" /><circle cx="233.65383911132812" cy="152.8076934814453" fill="black" r="10.168061256408691" stroke="black" stroke-width="1" /><circle cx="87.02631378173828" cy="124.7631607055664" fill="none" r="5.176355361938477" stroke="black" stroke-width="1" /><circle cx="234.2142791748047" cy="122.5" fill="none" r="5.0153889656066895" stroke="black" stroke-width="1" /><circle cx="86.83464813232422" cy="124.30708312988281" fill="black" r="10.196771621704102" stroke="black" stroke-width="1" /><circle cx="234.09375" cy="122.3125" fill="black" r="10.445503234863281" stroke="black" stroke-width="1" /><circle cx="85.0" cy="96.0" fill="none" r="5.000100135803223" stroke="black" stroke-width="1" /><circle cx="84.8828125" cy="96.36328125" fill="black" r="10.22860336303711" stroke="black" stroke-width="1" /><path d="M 229,85 L 243,89 L 238,102 L 225,97 L 226,89 L 232,97 L 240,93 L 228,90 Z" fill="black" stroke="black" stroke-width="1" /><circle cx="85.5" cy="66.5" fill="none" r="4.743516445159912" stroke="black" stroke-width="1" /><circle cx="231.84616088867188" cy="65.13461303710938" fill="none" r="5.203962326049805" stroke="black" stroke-width="1" /><circle cx="85.17796325683594" cy="66.65254211425781" fill="black" r="10.518033027648926" stroke="black" stroke-width="1" /><circle cx="232.0" cy="65.5" fill="black" r="10.062405586242676" stroke="black" stroke-width="1" /><circle cx="176.0" cy="39.0" fill="none" r="5.099119663238525" stroke="black" stroke-width="1" /><circle cx="84.7127685546875" cy="39.11701965332031" fill="none" r="5.166523456573486" stroke="black" stroke-width="1" /><circle cx="144.3000030517578" cy="36.70000076293945" fill="none" r="5.420431613922119" stroke="black" stroke-width="1" /><path d="M 114,32 L 110,34 L 110,40 L 114,43 L 118,40 L 118,37 Z" fill="none" stroke="black" stroke-width="1" /><circle cx="175.68919372558594" cy="39.10135269165039" fill="black" r="9.751687049865723" stroke="black" stroke-width="1" /><circle cx="84.5" cy="39.25" fill="black" r="9.890120506286621" stroke="black" stroke-width="1" /><circle cx="113.5" cy="38.5" fill="black" r="10.606701850891113" stroke="black" stroke-width="1" /><path d="M 230,27 L 242,33 L 234,47 L 230,45 L 238,35 L 230,33 L 230,44 L 223,36 Z" fill="black" stroke="black" stroke-width="1" /><circle cx="144.4130401611328" cy="36.74347686767578" fill="black" r="10.330798149108887" stroke="black" stroke-width="1" /><path d="M 203,26 L 213,33 L 213,40 L 207,32 L 199,34 L 201,41 L 211,42 L 208,46 L 196,42 L 195,34 Z" fill="black" stroke="black" stroke-width="1" /><path d="M 29,17 L 29,38 L 48,38 L 49,19 Z" fill="none" stroke="black" stroke-width="1" /><path d="M 22,11 L 53,10 L 56,41 L 23,45 Z" fill="none" stroke="black" stroke-width="1" /><path d="M 0,0 L 0,220 L 257,220 L 257,0 Z" fill="none" stroke="black" stroke-width="1" /></svg>