<?xml version="1.0" encoding="utf-8" ?>
<svg baseProfile="full" height="222" version="1.1" width="258" xmlns="http://www.w3.org/2000/svg" xmlns:ev="http://www.w3.org/2001/xml-events" xmlns:xlink="http://www.w3.org/1999/xlink"><defs /><rect fill="white" height="222" width="258" x="0" y="0" /><circle cx="180.5" cy="200.5" fill="none" r="4.527792930603027" stroke="black" stroke-width="5" /><path d="M 207,193 L 206,199 L 210,200 L 211,194 Z" fill="none" stroke="black" stroke-width="5" /><circle cx="145.31817626953125" cy="196.68182373046875" fill="none" r="4.0478596687316895" stroke="black" stroke-width="5" /><circle cx="118.5" cy="183.2142791748047" fill="none" r="4.072150230407715" stroke="black" stroke-width="5" /><circle cx="229.26922607421875" cy="173.73077392578125" fill="none" r="4.623497486114502" stroke="black" stroke-width="5" /><circle cx="90.31818389892578" cy="165.68182373046875" fill="none" r="4.047856330871582" stroke="black" stroke-width="5" /><path d="M 64,144 L 64,150 L 69,150 L 70,145 Z" fill="none" stroke="black" stroke-width="5" /><circle cx="236.14102172851562" cy="143.24359130859375" fill="none" r="4.3238301277160645" stroke="black" stroke-width="5" /><circle cx="46.5" cy="122.0" fill="none" r="4.272101879119873" stroke="black" stroke-width="5" /><circle cx="234.5" cy="113.5" fill="none" r="4.301262855529785" stroke="black" stroke-width="5" /><path d="M 172,92 L 172,112 L 193,111 L 192,92 Z" fill="none" stroke="black" stroke-width="5" /><circle cx="33.065216064453125" cy="92.1956558227539" fill="none" r="4.328862190246582" stroke="black" stroke-width="5" /><circle cx="220.9166717529297" cy="81.66666412353516" fill="none" r="4.1374921798706055" stroke="black" stroke-width="5" /><circle cx="30.799999237060547" cy="63.0" fill="none" r="4.386443138122559" stroke="black" stroke-width="5" /><path d="M 191,54 L 190,60 L 196,61 L 197,55 Z" fill="none" stroke="black" stroke-width="5" /><circle cx="169.0454559326172" cy="37.8636360168457" fill="none" r="4.371777057647705" stroke="black" stroke-width="5" /><circle cx="49.5" cy="38.0" fill="none" r="4.272101879119873" stroke="black" stroke-width="5" /><circle cx="73.96154022216797" cy="26.576923370361328" fill="none" r="3.9841647148132324" stroke="black" stroke-width="5" /><circle cx="106.31818389892578" cy="22.68181800842285" fill="none" r="4.047851085662842" stroke="black" stroke-width="5" /><circle cx="140.4512176513672" cy="21.792682647705078" fill="none" r="4.096826553344727" stroke="black" stroke-width="5" /><path d="M 0,0 L 0,221 L 257,221 L 257,0 Z" fill="none" stroke="black" stroke-width="5" /></svg>