<?xml version="1.0" encoding="utf-8" ?>
<svg baseProfile="full" height="216" version="1.1" width="258" xmlns="http://www.w3.org/2000/svg" xmlns:ev="http://www.w3.org/2001/xml-events" xmlns:xlink="http://www.w3.org/1999/xlink"><defs /><rect fill="white" height="216" width="258" x="0" y="0" /><path d="M 31,166 L 32,188 L 54,189 L 53,167 Z" fill="none" stroke="black" stroke-width="5" /><path d="M 143,168 L 145,173 L 152,172 L 151,166 L 147,165 Z" fill="none" stroke="black" stroke-width="5" /><path d="M 115,166 L 114,171 L 121,173 L 122,166 Z" fill="none" stroke="black" stroke-width="5" /><circle cx="175.78787231445312" cy="162.09091186523438" fill="none" r="5.224634170532227" stroke="black" stroke-width="5" /><circle cx="93.33333587646484" cy="151.0" fill="none" r="4.772704601287842" stroke="black" stroke-width="5" /><circle cx="200.7391357421875" cy="141.6521759033203" fill="none" r="5.018964767456055" stroke="black" stroke-width="5" /><circle cx="77.0" cy="127.5" fill="none" r="5.02503776550293" stroke="black" stroke-width="5" /><circle cx="215.61111450195312" cy="117.5" fill="none" r="4.638236999511719" stroke="black" stroke-width="5" /><path d="M 67,96 L 66,103 L 69,106 L 74,102 L 74,98 Z" fill="none" stroke="black" stroke-width="5" /><circle cx="220.0" cy="88.5" fill="none" r="4.924529075622559" stroke="black" stroke-width="5" /><circle cx="77.5" cy="70.5" fill="none" r="5.147915363311768" stroke="black" stroke-width="5" /><circle cx="210.5" cy="57.5" fill="none" r="4.301262855529785" stroke="black" stroke-width="5" /><path d="M 94,37 L 89,39 L 89,44 L 92,47 L 97,43 L 96,38 Z" fill="none" stroke="black" stroke-width="5" /><circle cx="189.64285278320312" cy="38.0" fill="none" r="4.794339656829834" stroke="black" stroke-width="5" /><circle cx="123.0" cy="29.200000762939453" fill="none" r="4.386442184448242" stroke="black" stroke-width="5" /><path d="M 155,24 L 153,30 L 158,32 L 162,29 L 161,24 Z" fill="none" stroke="black" stroke-width="5" /><path d="M 0,0 L 0,215 L 257,215 L 257,0 Z" fill="none" stroke="black" stroke-width="5" /></svg>