<?xml version="1.0" encoding="utf-8" ?>
<svg baseProfile="full" height="216" version="1.1" width="258" xmlns="http://www.w3.org/2000/svg" xmlns:ev="http://www.w3.org/2001/xml-events" xmlns:xlink="http://www.w3.org/1999/xlink"><defs /><rect fill="white" height="216" width="258" x="0" y="0" /><path d="M 31,166 L 32,188 L 54,189 L 53,167 Z" fill="none" stroke="black" stroke-width="5" /><path d="M 143,168 L 143,171 L 144,171 L 145,173 L 151,173 L 152,172 L 152,167 L 151,166 L 147,165 Z" fill="none" stroke="black" stroke-width="5" /><path d="M 115,166 L 114,168 L 114,171 L 117,173 L 121,173 L 122,172 L 122,166 L 120,165 L 117,165 Z" fill="none" stroke="black" stroke-width="5" /><path d="M 179,158 L 173,158 L 171,160 L 171,164 L 174,167 L 176,167 L 180,164 L 180,159 Z" fill="none" stroke="black" stroke-width="5" /><path d="M 89,149 L 89,153 L 91,155 L 95,155 L 98,152 L 96,148 L 90,148 Z" fill="none" stroke="black" stroke-width="5" /><path d="M 205,139 L 202,137 L 198,138 L 196,140 L 197,145 L 203,145 L 204,144 Z" fill="none" stroke="black" stroke-width="5" /><path d="M 79,124 L 75,124 L 73,125 L 72,127 L 74,131 L 77,132 L 82,128 L 82,127 Z" fill="none" stroke="black" stroke-width="5" /><path d="M 213,114 L 213,115 L 211,117 L 212,120 L 213,121 L 218,121 L 220,119 L 220,116 L 218,114 Z" fill="none" stroke="black" stroke-width="5" /><path d="M 67,96 L 66,103 L 69,106 L 74,102 L 74,98 Z" fill="none" stroke="black" stroke-width="5" /><path d="M 222,84 L 220,84 L 217,86 L 217,92 L 218,93 L 222,93 L 224,91 L 224,86 Z" fill="none" stroke="black" stroke-width="5" /><path d="M 75,66 L 73,70 L 73,73 L 75,75 L 80,75 L 80,72 L 81,71 L 80,67 L 79,66 Z" fill="none" stroke="black" stroke-width="5" /><path d="M 208,54 L 207,55 L 207,59 L 209,61 L 213,61 L 214,60 L 214,55 L 213,54 Z" fill="none" stroke="black" stroke-width="5" /><path d="M 94,37 L 89,39 L 89,44 L 92,47 L 93,46 L 95,46 L 97,43 L 96,38 Z" fill="none" stroke="black" stroke-width="5" /><path d="M 187,34 L 185,38 L 186,41 L 187,42 L 192,42 L 194,40 L 192,37 L 192,35 L 191,34 Z" fill="none" stroke="black" stroke-width="5" /><path d="M 126,26 L 124,25 L 120,26 L 119,28 L 119,31 L 121,33 L 125,33 L 127,31 L 127,28 Z" fill="none" stroke="black" stroke-width="5" /><path d="M 155,24 L 153,28 L 153,30 L 158,32 L 162,29 L 162,26 L 161,24 Z" fill="none" stroke="black" stroke-width="5" /><path d="M 0,0 L 0,215 L 257,215 L 257,0 Z" fill="none" stroke="black" stroke-width="5" /></svg>