<?xml version="1.0" encoding="utf-8" ?>
<svg baseProfile="full" height="218" version="1.1" width="254" xmlns="http://www.w3.org/2000/svg" xmlns:ev="http://www.w3.org/2001/xml-events" xmlns:xlink="http://www.w3.org/1999/xlink"><defs /><rect fill="white" height="218" width="254" x="0" y="0" /><circle cx="184.8333282470703" cy="196.5" fill="none" r="4.859230995178223" stroke="black" stroke-width="1" /><circle cx="159.5" cy="196.5" fill="none" r="4.301262855529785" stroke="black" stroke-width="1" /><circle cx="136.0" cy="196.5" fill="none" r="4.609872341156006" stroke="black" stroke-width="1" /><path d="M 115,192 L 112,190 L 108,192 L 108,199 L 113,198 L 115,196 Z" fill="none" stroke="black" stroke-width="1" /><circle cx="185.36956787109375" cy="197.5869598388672" fill="black" r="10.646728515625" stroke="black" stroke-width="1" /><circle cx="159.5" cy="196.5" fill="black" r="10.79361629486084" stroke="black" stroke-width="1" /><circle cx="136.5" cy="196.5" fill="black" r="10.12432861328125" stroke="black" stroke-width="1" /><path d="M 211,186 L 209,188 L 210,193 L 212,195 L 216,195 L 218,193 L 216,190 L 217,188 Z" fill="none" stroke="black" stroke-width="1" /><circle cx="110.73403930664062" cy="195.05319213867188" fill="black" r="10.201742172241211" stroke="black" stroke-width="1" /><circle cx="82.28947448730469" cy="189.3947296142578" fill="none" r="4.912769794464111" stroke="black" stroke-width="1" /><circle cx="212.91175842285156" cy="190.26470947265625" fill="black" r="10.984904289245605" stroke="black" stroke-width="1" /><circle cx="81.57142639160156" cy="189.42857360839844" fill="black" r="10.546401023864746" stroke="black" stroke-width="1" /><circle cx="231.5" cy="170.375" fill="none" r="4.403578758239746" stroke="black" stroke-width="1" /><circle cx="231.5" cy="170.5" fill="black" r="10.79361629486084" stroke="black" stroke-width="1" /><circle cx="93.45454406738281" cy="164.22727966308594" fill="none" r="4.501025199890137" stroke="black" stroke-width="1" /><circle cx="92.96428680419922" cy="163.60203552246094" fill="black" r="10.595460891723633" stroke="black" stroke-width="1" /><circle cx="118.57142639160156" cy="157.2857208251953" fill="none" r="4.748897552490234" stroke="black" stroke-width="1" /><circle cx="119.0" cy="157.5" fill="black" r="10.688879013061523" stroke="black" stroke-width="1" /><circle cx="241.875" cy="145.125" fill="none" r="4.419517517089844" stroke="black" stroke-width="1" /><circle cx="139.0" cy="143.5" fill="none" r="4.717090606689453" stroke="black" stroke-width="1" /><circle cx="242.031494140625" cy="145.3031463623047" fill="black" r="10.501619338989258" stroke="black" stroke-width="1" /><circle cx="139.0454559326172" cy="143.43505859375" fill="black" r="10.6166353225708" stroke="black" stroke-width="1" /><circle cx="146.625" cy="117.5625" fill="none" r="4.64574670791626" stroke="black" stroke-width="1" /><circle cx="242.0" cy="116.0" fill="none" r="4.472236156463623" stroke="black" stroke-width="1" /><circle cx="146.8297882080078" cy="118.13298034667969" fill="black" r="10.058645248413086" stroke="black" stroke-width="1" /><circle cx="241.8715362548828" cy="116.06916809082031" fill="black" r="10.337750434875488" stroke="black" stroke-width="1" /><path d="M 99,103 L 100,123 L 120,122 L 118,102 Z" fill="none" stroke="black" stroke-width="1" /><path d="M 91,99 L 126,96 L 128,129 L 93,130 Z" fill="black" stroke="black" stroke-width="1" /><circle cx="235.5" cy="96.25" fill="none" r="4.5070390701293945" stroke="black" stroke-width="1" /><circle cx="235.09735107421875" cy="96.65929412841797" fill="black" r="10.549267768859863" stroke="black" stroke-width="1" /><circle cx="144.0" cy="92.0" fill="none" r="4.472236156463623" stroke="black" stroke-width="1" /><circle cx="143.0" cy="91.0" fill="black" r="11.180439949035645" stroke="black" stroke-width="1" /><circle cx="123.5" cy="78.75" fill="none" r="4.5070390701293945" stroke="black" stroke-width="1" /><circle cx="218.6568603515625" cy="75.95098114013672" fill="none" r="4.761317253112793" stroke="black" stroke-width="1" /><circle cx="123.81474304199219" cy="78.85060119628906" fill="black" r="10.061314582824707" stroke="black" stroke-width="1" /><circle cx="218.73281860351562" cy="76.07633209228516" fill="black" r="10.494047164916992" stroke="black" stroke-width="1" /><circle cx="99.80000305175781" cy="70.0" fill="none" r="4.386440277099609" stroke="black" stroke-width="1" /><circle cx="99.5" cy="70.5" fill="black" r="10.12432861328125" stroke="black" stroke-width="1" /><circle cx="78.46226501464844" cy="57.74528121948242" fill="none" r="4.524172306060791" stroke="black" stroke-width="1" /><circle cx="202.0" cy="56.0" fill="none" r="4.472236156463623" stroke="black" stroke-width="1" /><circle cx="78.07471466064453" cy="58.04022979736328" fill="black" r="10.380579948425293" stroke="black" stroke-width="1" /><circle cx="201.57691955566406" cy="56.19230651855469" fill="black" r="10.578767776489258" stroke="black" stroke-width="1" /><path d="M 99,38 L 94,38 L 92,42 L 95,47 L 99,45 L 101,41 Z" fill="none" stroke="black" stroke-width="1" /><circle cx="177.0" cy="40.25" fill="none" r="5.153982162475586" stroke="black" stroke-width="1" /><circle cx="96.13636016845703" cy="41.8636360168457" fill="black" r="10.350367546081543" stroke="black" stroke-width="1" /><circle cx="176.76922607421875" cy="40.230770111083984" fill="black" r="10.471246719360352" stroke="black" stroke-width="1" /><circle cx="149.1923065185547" cy="30.19230842590332" fill="none" r="4.7310261726379395" stroke="black" stroke-width="1" /><circle cx="121.5" cy="28.214284896850586" fill="none" r="4.473377227783203" stroke="black" stroke-width="1" /><circle cx="149.04470825195312" cy="30.280487060546875" fill="black" r="10.481950759887695" stroke="black" stroke-width="1" /><circle cx="121.28082275390625" cy="28.21232795715332" fill="black" r="10.158468246459961" stroke="black" stroke-width="1" /><path d="M 0,0 L 0,217 L 253,217 L 253,0 Z" fill="none" stroke="black" stroke-width="1" /></svg>