<?xml version="1.0" encoding="utf-8" ?>
<svg baseProfile="full" height="222" version="1.1" width="257" xmlns="http://www.w3.org/2000/svg" xmlns:ev="http://www.w3.org/2001/xml-events" xmlns:xlink="http://www.w3.org/1999/xlink"><defs /><rect fill="white" height="222" width="257" x="0" y="0" /><circle cx="182.6999969482422" cy="213.0" fill="none" r="4.20604944229126" stroke="black" stroke-width="1" /><circle cx="158.13636779785156" cy="213.0454559326172" fill="none" r="4.371775150299072" stroke="black" stroke-width="1" /><circle cx="129.5" cy="212.5" fill="none" r="3.8079864978790283" stroke="black" stroke-width="1" /><circle cx="207.5" cy="211.0" fill="none" r="4.031229019165039" stroke="black" stroke-width="1" /><path d="M 104,208 L 100,212 L 103,216 L 107,215 L 108,213 Z" fill="none" stroke="black" stroke-width="1" /><circle cx="77.73912811279297" cy="211.56521606445312" fill="none" r="4.496057510375977" stroke="black" stroke-width="1" /><path d="M 59,197 L 53,199 L 56,205 L 60,203 Z" fill="none" stroke="black" stroke-width="1" /><path d="M 217,188 L 217,193 L 222,194 L 224,188 Z" fill="none" stroke="black" stroke-width="1" /><circle cx="192.7941131591797" cy="181.61764526367188" fill="none" r="4.038201332092285" stroke="black" stroke-width="1" /><circle cx="44.83333206176758" cy="178.5" fill="none" r="4.116463661193848" stroke="black" stroke-width="1" /><circle cx="170.0" cy="172.0" fill="none" r="4.472236156463623" stroke="black" stroke-width="1" /><circle cx="145.85897827148438" cy="161.24359130859375" fill="none" r="4.323822975158691" stroke="black" stroke-width="1" /><circle cx="40.681819915771484" cy="149.68182373046875" fill="none" r="4.047846794128418" stroke="black" stroke-width="1" /><path d="M 125,138 L 125,144 L 131,144 L 130,138 Z" fill="none" stroke="black" stroke-width="1" /><circle cx="146.5" cy="122.5" fill="none" r="4.301262855529785" stroke="black" stroke-width="1" /><circle cx="42.56060791015625" cy="120.6515121459961" fill="none" r="3.6943979263305664" stroke="black" stroke-width="1" /><circle cx="168.1875" cy="116.0" fill="none" r="4.305347442626953" stroke="black" stroke-width="1" /><circle cx="191.0" cy="109.5" fill="none" r="4.031229019165039" stroke="black" stroke-width="1" /><circle cx="212.0" cy="96.33333587646484" fill="none" r="4.772709369659424" stroke="black" stroke-width="1" /><circle cx="49.55263137817383" cy="95.81578826904297" fill="none" r="4.081168174743652" stroke="black" stroke-width="1" /><path d="M 166,68 L 147,69 L 149,88 L 167,86 Z" fill="none" stroke="black" stroke-width="1" /><circle cx="213.0" cy="70.5" fill="none" r="4.031229019165039" stroke="black" stroke-width="1" /><circle cx="60.0" cy="70.5" fill="none" r="4.031229019165039" stroke="black" stroke-width="1" /><path d="M 172,60 L 175,92 L 141,96 L 140,62 Z" fill="black" stroke="black" stroke-width="1" /><path d="M 76,48 L 75,53 L 80,54 L 82,49 Z" fill="none" stroke="black" stroke-width="1" /><circle cx="200.0833282470703" cy="49.72222137451172" fill="none" r="4.278693675994873" stroke="black" stroke-width="1" /><circle cx="174.0" cy="36.28571319580078" fill="none" r="3.8466451168060303" stroke="black" stroke-width="1" /><circle cx="100.5" cy="35.16666793823242" fill="none" r="4.116463661193848" stroke="black" stroke-width="1" /><circle cx="149.85897827148438" cy="25.756410598754883" fill="none" r="4.323824882507324" stroke="black" stroke-width="1" /><circle cx="122.0" cy="26.0" fill="none" r="4.472236156463623" stroke="black" stroke-width="1" /><path d="M 0,0 L 0,221 L 256,221 L 256,0 Z" fill="none" stroke="black" stroke-width="1" /></svg>