<?xml version="1.0" encoding="utf-8" ?>
<svg baseProfile="full" height="222" version="1.1" width="261" xmlns="http://www.w3.org/2000/svg" xmlns:ev="http://www.w3.org/2001/xml-events" xmlns:xlink="http://www.w3.org/1999/xlink"><defs /><rect fill="white" height="222" width="261" x="0" y="0" /><circle cx="93.72222137451172" cy="189.72222900390625" fill="none" r="4.611549377441406" stroke="black" stroke-width="1" /><circle cx="67.5" cy="187.5" fill="none" r="4.301262855529785" stroke="black" stroke-width="1" /><circle cx="120.5" cy="187.0" fill="none" r="4.609872341156006" stroke="black" stroke-width="1" /><path d="M 144,183 L 144,188 L 148,190 L 152,188 L 151,183 Z" fill="none" stroke="black" stroke-width="1" /><circle cx="225.1842041015625" cy="183.44737243652344" fill="none" r="4.0811767578125" stroke="black" stroke-width="1" /><circle cx="200.0" cy="182.5" fill="none" r="4.031229019165039" stroke="black" stroke-width="1" /><circle cx="173.31817626953125" cy="182.68182373046875" fill="none" r="4.0478596687316895" stroke="black" stroke-width="1" /><circle cx="223.3275909423828" cy="159.2586212158203" fill="none" r="4.3114752769470215" stroke="black" stroke-width="1" /><circle cx="65.93478393554688" cy="157.19564819335938" fill="none" r="4.328858375549316" stroke="black" stroke-width="1" /><circle cx="224.85897827148438" cy="132.75640869140625" fill="none" r="4.323822975158691" stroke="black" stroke-width="1" /><path d="M 102,126 L 103,147 L 123,144 L 121,125 Z" fill="none" stroke="black" stroke-width="1" /><circle cx="66.5" cy="128.3000030517578" fill="none" r="4.81050443649292" stroke="black" stroke-width="1" /><path d="M 96,119 L 129,120 L 130,150 L 97,153 Z" fill="black" stroke="black" stroke-width="1" /><circle cx="223.73077392578125" cy="103.73076629638672" fill="none" r="4.6234893798828125" stroke="black" stroke-width="1" /><circle cx="64.55882263183594" cy="97.38235473632812" fill="none" r="4.651439666748047" stroke="black" stroke-width="1" /><circle cx="223.0757598876953" cy="75.19696807861328" fill="none" r="4.332742214202881" stroke="black" stroke-width="1" /><circle cx="63.875" cy="70.125" fill="none" r="4.419517517089844" stroke="black" stroke-width="1" /><circle cx="65.04545593261719" cy="46.1363639831543" fill="none" r="4.371777057647705" stroke="black" stroke-width="1" /><circle cx="222.0" cy="44.33333206176758" fill="none" r="4.772706031799316" stroke="black" stroke-width="1" /><circle cx="119.1875" cy="44.0" fill="none" r="4.305347442626953" stroke="black" stroke-width="1" /><circle cx="91.0" cy="44.0" fill="none" r="4.472236156463623" stroke="black" stroke-width="1" /><circle cx="197.7857208251953" cy="42.21428680419922" fill="none" r="4.385831832885742" stroke="black" stroke-width="1" /><circle cx="145.93478393554688" cy="42.80434799194336" fill="none" r="4.328862190246582" stroke="black" stroke-width="1" /><circle cx="174.3000030517578" cy="41.70000076293945" fill="none" r="4.356701374053955" stroke="black" stroke-width="1" /><path d="M 0,0 L 0,221 L 260,221 L 260,0 Z" fill="none" stroke="black" stroke-width="1" /></svg>