<?xml version="1.0" encoding="utf-8" ?>
<svg baseProfile="full" height="217" version="1.1" width="258" xmlns="http://www.w3.org/2000/svg" xmlns:ev="http://www.w3.org/2001/xml-events" xmlns:xlink="http://www.w3.org/1999/xlink"><defs /><rect fill="white" height="217" width="258" x="0" y="0" /><circle cx="206.6568603515625" cy="192.9509735107422" fill="none" r="4.761314392089844" stroke="black" stroke-width="5" /><circle cx="144.5" cy="193.0" fill="none" r="4.717090606689453" stroke="black" stroke-width="5" /><path d="M 112,189 L 108,191 L 108,196 L 111,198 L 116,194 L 116,191 Z" fill="none" stroke="black" stroke-width="5" /><circle cx="49.125" cy="192.875" fill="none" r="4.419517517089844" stroke="black" stroke-width="5" /><circle cx="237.7142791748047" cy="191.42857360839844" fill="none" r="4.748897552490234" stroke="black" stroke-width="5" /><circle cx="50.75531768798828" cy="162.5425567626953" fill="none" r="4.488024711608887" stroke="black" stroke-width="5" /><circle cx="238.5" cy="156.1666717529297" fill="none" r="4.859230995178223" stroke="black" stroke-width="5" /><circle cx="50.07143020629883" cy="126.21428680419922" fill="none" r="4.315474510192871" stroke="black" stroke-width="5" /><circle cx="238.76922607421875" cy="122.44230651855469" fill="none" r="4.508520603179932" stroke="black" stroke-width="5" /><circle cx="153.86363220214844" cy="116.04545593261719" fill="none" r="4.371782302856445" stroke="black" stroke-width="5" /><circle cx="175.8333282470703" cy="105.5" fill="none" r="4.859230995178223" stroke="black" stroke-width="5" /><circle cx="125.92857360839844" cy="105.35713958740234" fill="none" r="4.764981269836426" stroke="black" stroke-width="5" /><circle cx="50.5" cy="92.5" fill="none" r="4.743516445159912" stroke="black" stroke-width="5" /><circle cx="235.8913116455078" cy="91.67391204833984" fill="none" r="4.721541404724121" stroke="black" stroke-width="5" /><circle cx="195.9583282470703" cy="85.91666412353516" fill="none" r="5.0424604415893555" stroke="black" stroke-width="5" /><circle cx="102.31818389892578" cy="84.68181610107422" fill="none" r="4.047849655151367" stroke="black" stroke-width="5" /><circle cx="234.5" cy="63.78571319580078" fill="none" r="5.015381813049316" stroke="black" stroke-width="5" /><circle cx="49.83333206176758" cy="61.5" fill="none" r="4.859227657318115" stroke="black" stroke-width="5" /><circle cx="202.89999389648438" cy="57.900001525878906" fill="none" r="5.02205753326416" stroke="black" stroke-width="5" /><circle cx="89.0" cy="58.0" fill="none" r="4.472236156463623" stroke="black" stroke-width="5" /><path d="M 139,53 L 139,74 L 157,73 L 157,53 Z" fill="none" stroke="black" stroke-width="5" /><circle cx="235.77420043945312" cy="35.90322494506836" fill="none" r="5.214440822601318" stroke="black" stroke-width="5" /><circle cx="208.75454711914062" cy="34.42727279663086" fill="none" r="4.96425199508667" stroke="black" stroke-width="5" /><circle cx="78.0" cy="32.0" fill="none" r="5.099119663238525" stroke="black" stroke-width="5" /><circle cx="50.900001525878906" cy="29.100000381469727" fill="none" r="5.022050380706787" stroke="black" stroke-width="5" /><path d="M 0,0 L 0,216 L 257,216 L 257,0 Z" fill="none" stroke="black" stroke-width="5" /></svg>