<?xml version="1.0" encoding="utf-8" ?>
<svg baseProfile="full" height="222" version="1.1" width="261" xmlns="http://www.w3.org/2000/svg" xmlns:ev="http://www.w3.org/2001/xml-events" xmlns:xlink="http://www.w3.org/1999/xlink"><defs /><rect fill="white" height="222" width="261" x="0" y="0" /><circle cx="128.0" cy="203.0" fill="none" r="4.472236156463623" stroke="black" stroke-width="1" /><circle cx="97.0" cy="198.0" fill="none" r="4.472236156463623" stroke="black" stroke-width="1" /><circle cx="152.5" cy="193.0" fill="none" r="4.272101879119873" stroke="black" stroke-width="1" /><circle cx="68.5" cy="185.0" fill="none" r="4.031229019165039" stroke="black" stroke-width="1" /><circle cx="178.2142791748047" cy="172.2142791748047" fill="none" r="4.385839939117432" stroke="black" stroke-width="1" /><circle cx="52.0" cy="159.5" fill="none" r="4.272101879119873" stroke="black" stroke-width="1" /><circle cx="193.5" cy="148.0" fill="none" r="4.031229019165039" stroke="black" stroke-width="1" /><circle cx="41.0" cy="130.0" fill="none" r="4.472236156463623" stroke="black" stroke-width="1" /><circle cx="206.0" cy="121.5" fill="none" r="4.924529075622559" stroke="black" stroke-width="1" /><circle cx="34.5" cy="98.5" fill="none" r="4.301262855529785" stroke="black" stroke-width="1" /><path d="M 76,93 L 76,112 L 97,110 L 96,93 Z" fill="none" stroke="black" stroke-width="1" /><circle cx="216.2142791748047" cy="92.21428680419922" fill="none" r="4.385843753814697" stroke="black" stroke-width="1" /><path d="M 68,87 L 101,86 L 107,117 L 69,119 Z" fill="black" stroke="black" stroke-width="1" /><circle cx="43.0" cy="69.07142639160156" fill="none" r="4.192539215087891" stroke="black" stroke-width="1" /><circle cx="214.0" cy="63.0" fill="none" r="4.472236156463623" stroke="black" stroke-width="1" /><circle cx="62.1363639831543" cy="47.8636360168457" fill="none" r="4.289718151092529" stroke="black" stroke-width="1" /><circle cx="188.8125" cy="42.0" fill="none" r="4.305347442626953" stroke="black" stroke-width="1" /><circle cx="91.5" cy="31.5" fill="none" r="4.301262855529785" stroke="black" stroke-width="1" /><circle cx="158.5" cy="30.5" fill="none" r="4.743516445159912" stroke="black" stroke-width="1" /><circle cx="123.86363983154297" cy="27.954545974731445" fill="none" r="4.3717756271362305" stroke="black" stroke-width="1" /><path d="M 0,0 L 0,221 L 260,221 L 260,0 Z" fill="none" stroke="black" stroke-width="1" /></svg>