<?xml version="1.0" encoding="utf-8" ?>
<svg xmlns="http://www.w3.org/2000/svg" xmlns:ev="http://www.w3.org/2001/xml-events" xmlns:xlink="http://www.w3.org/1999/xlink" baseProfile="full" height="219" version="1.1" width="252">
  <defs/>
  <path d="M 123.106738,187.628612 C 122.480755,186.874348 121.280367,183.836848 120.439210,180.878612 C 119.598052,177.920375 118.540328,174.600000 118.088712,173.500000 C 117.637096,172.400000 116.801254,170.375000 116.231285,169.000000 C 115.661316,167.625000 114.199878,163.800000 112.983645,160.500000 C 111.767412,157.200000 110.148542,153.081992 109.386156,151.348871 C 108.623770,149.615750 108.000000,147.504808 108.000000,146.657888 C 108.000000,145.810968 107.566337,144.850016 107.036306,144.522438 C 106.506274,144.194860 88.884779,143.920872 67.877428,143.913576 C 45.266205,143.905723 28.946245,143.506415 27.878361,142.934901 C 25.823817,141.835342 26.418014,139.000000 28.702990,139.000000 C 29.521947,139.000000 33.510999,137.425000 37.567550,135.500000 C 41.624101,133.575000 45.405901,132.000000 45.971549,132.000000 C 46.537197,132.000000 47.000000,131.550000 47.000000,131.000000 C 47.000000,130.450000 47.583922,130.000000 48.297605,130.000000 C 49.011287,130.000000 52.498787,128.537500 56.047605,126.750000 C 59.596422,124.962500 64.300000,122.765536 66.500000,121.867858 C 81.484537,115.753635 88.795337,112.586577 90.750000,111.362696 C 93.105597,109.887776 93.620709,107.173983 92.102656,104.236431 C 91.609117,103.281394 90.439882,100.475000 89.504356,98.000000 C 88.568830,95.525000 86.501343,90.575000 84.909941,87.000000 C 81.454254,79.236981 79.034570,72.156947 79.014553,69.750000 C 79.006549,68.787500 78.550000,68.000000 78.000000,68.000000 C 77.450000,68.000000 77.000000,67.394137 77.000000,66.653638 C 77.000000,65.913139 76.374076,64.000639 75.609058,62.403638 C 72.437164,55.782200 71.142709,52.303657 70.557208,48.827981 C 69.364253,41.746301 73.759380,43.496932 76.010271,51.000000 C 76.752762,53.475000 77.680226,55.950000 78.071304,56.500000 C 78.462381,57.050000 79.462982,59.525000 80.294862,62.000000 C 82.526264,68.638842 88.201197,83.335181 89.948515,87.000000 C 90.341859,87.825000 91.287599,90.637500 92.050159,93.250000 C 92.812718,95.862500 93.788389,98.000000 94.218315,98.000000 C 94.648242,98.000000 95.000000,99.098442 95.000000,100.440983 C 95.000000,101.783524 95.450000,103.160081 96.000000,103.500000 C 96.550000,103.839919 97.000000,104.991476 97.000000,106.059017 C 97.000000,108.447481 96.630826,108.475158 102.562847,105.641967 C 105.278281,104.345049 109.300000,102.522296 111.500000,101.591405 C 115.565887,99.870996 135.067584,90.638667 138.236431,88.934068 C 139.191468,88.420331 140.433688,88.000000 140.996920,88.000000 C 141.907733,88.000000 150.853727,83.900774 169.559822,74.911928 C 172.892725,73.310368 176.353667,72.000000 177.250805,72.000000 C 178.147944,72.000000 179.162133,71.546680 179.504560,70.992622 C 180.130125,69.980437 187.763815,66.000000 189.079421,66.000000 C 190.633931,66.000000 191.068494,71.267405 189.646001,72.867594 C 188.847879,73.765417 186.480394,77.875000 184.384924,82.000000 C 182.289454,86.125000 180.266150,89.725000 179.888694,90.000000 C 179.205154,90.498000 172.977585,102.057503 164.938653,117.750000 C 162.614189,122.287500 160.327075,126.000000 159.856177,126.000000 C 159.385280,126.000000 159.000000,126.900000 159.000000,128.000000 C 159.000000,129.100000 158.550000,130.000000 158.000000,130.000000 C 157.450000,130.000000 157.000000,130.675000 157.000000,131.500000 C 157.000000,132.325000 156.550000,133.000000 156.000000,133.000000 C 155.450000,133.000000 155.000000,134.134060 155.000000,135.520133 L 155.000000,138.040266 L 167.750000,137.524989 C 174.762500,137.241586 189.050000,136.750598 199.500000,136.433905 C 212.051423,136.053527 218.897329,135.457931 219.670684,134.679050 C 220.817816,133.523720 221.243938,125.667606 222.555162,81.500000 C 222.849068,71.600000 223.476409,61.250000 223.949253,58.500000 C 224.422096,55.750000 224.864294,47.200000 224.931915,39.500000 C 225.055708,25.403551 226.210362,18.564951 228.344643,19.287649 C 229.841955,19.794660 230.027746,32.995790 228.805033,52.000000 C 228.291929,59.975000 227.914023,68.525000 227.965242,71.000000 C 228.016461,73.475000 228.036048,75.950000 228.008769,76.500000 C 227.981489,77.050000 227.754498,84.640467 227.504344,93.367704 C 227.250335,102.229431 226.587571,109.792020 226.003264,110.496068 C 225.384141,111.242064 225.283017,112.724945 225.755561,114.128363 C 226.194764,115.432764 226.462316,117.625000 226.350121,119.000000 C 226.237926,120.375000 225.856652,125.325000 225.502846,130.000000 C 225.149040,134.675000 224.553661,138.792066 224.179781,139.149035 C 222.775595,140.489710 203.641732,141.642763 178.529030,141.900060 C 164.244997,142.046410 151.757497,142.594600 150.779030,143.118259 C 149.800564,143.641919 149.000000,144.701818 149.000000,145.473591 C 149.000000,146.878062 143.495995,157.660378 141.865519,159.450000 C 141.389484,159.972500 141.000000,161.210000 141.000000,162.200000 C 141.000000,163.190000 140.550000,164.000000 140.000000,164.000000 C 139.450000,164.000000 139.000000,164.693222 139.000000,165.540493 C 139.000000,166.820088 135.840768,172.163494 133.998406,174.000000 C 133.722529,174.275000 133.012999,175.625000 132.421672,177.000000 C 127.476337,188.499290 125.603170,190.636628 123.106738,187.628612" fill="none" stroke="black" stroke-width="5"/>
</svg>
