<?xml version="1.0" encoding="utf-8" ?>
<svg xmlns="http://www.w3.org/2000/svg" xmlns:ev="http://www.w3.org/2001/xml-events" xmlns:xlink="http://www.w3.org/1999/xlink" baseProfile="full" height="220" version="1.1" width="259">
  <defs/>
  <path d="M 68.514260,197.023073 C 68.182184,196.485763 68.468660,194.123263 69.150874,191.773073 C 69.833087,189.422883 70.483261,186.825000 70.595705,186.000000 C 70.708149,185.175000 71.484969,182.475000 72.321971,180.000000 C 75.797396,169.723227 78.000881,162.124355 78.014553,160.368729 C 78.022558,159.340928 78.752034,156.475000 79.635612,154.000000 C 81.125111,149.827746 86.092040,131.208915 89.569442,116.762438 C 90.442387,113.135888 88.576501,112.477506 81.790329,114.017564 C 78.880648,114.677889 72.225000,115.597950 67.000000,116.062145 C 58.021695,116.859788 54.208430,117.351479 37.546341,119.859968 C 30.350166,120.943357 27.593572,120.222711 28.627495,117.528348 C 29.278128,115.832828 32.263806,115.343826 62.000000,112.062523 C 93.558654,108.580117 92.308160,108.963248 93.761763,102.331238 C 94.769881,97.731737 100.026265,77.446795 102.139674,70.000000 C 103.432652,65.444068 104.748709,60.248245 105.559108,56.500000 C 105.915850,54.850000 107.060991,51.670424 108.103865,49.434276 C 109.146739,47.198127 110.000000,43.554764 110.000000,41.337914 C 110.000000,36.435481 112.544613,30.888021 114.456776,31.621787 C 115.204836,31.908845 116.343000,33.573875 116.986029,35.321855 C 117.629058,37.069835 119.020258,40.424538 120.077586,42.776751 C 121.134914,45.128965 122.000000,47.496369 122.000000,48.037650 C 122.000000,48.578931 122.846731,50.929393 123.881625,53.260898 C 124.916519,55.592404 126.319279,59.075000 126.998870,61.000000 C 127.678461,62.925000 128.824152,65.850000 129.544851,67.500000 C 130.265549,69.150000 131.597615,72.750000 132.504998,75.500000 C 134.864910,82.652174 136.375932,86.000000 137.244111,86.000000 C 137.659850,86.000000 138.000000,86.906106 138.000000,88.013569 C 138.000000,89.121032 138.395062,90.808532 138.877916,91.763569 C 139.360770,92.718606 140.478490,95.187500 141.361738,97.250000 C 143.199138,101.540571 144.367364,101.727678 158.000000,99.914843 C 162.125000,99.366310 169.100000,98.458607 173.500000,97.897724 C 177.900000,97.336841 184.425000,96.444427 188.000000,95.914583 C 191.575000,95.384738 197.987500,94.689554 202.250000,94.369729 C 208.979943,93.864767 210.000000,94.002419 210.000000,95.415554 C 210.000000,96.310582 208.987500,97.436568 207.750000,97.917745 C 204.135278,99.323256 174.473312,103.311137 158.500000,104.539124 C 144.530481,105.613064 144.712810,105.445037 148.107317,114.116647 C 152.739985,125.951266 154.026327,129.093052 155.116671,131.236431 C 155.602502,132.191468 156.000000,133.433873 156.000000,133.997330 C 156.000000,134.560787 156.844740,136.929393 157.877199,139.260898 C 160.831127,145.931474 171.000000,171.621930 171.000000,172.414103 C 171.000000,172.806831 172.125000,175.587655 173.500000,178.593712 C 176.336712,184.795398 176.639187,187.540743 174.573113,188.333570 C 172.757119,189.030433 171.608875,187.614001 169.438742,182.000000 C 168.482013,179.525000 167.316906,177.072500 166.849617,176.550000 C 166.382328,176.027500 166.000000,174.783894 166.000000,173.786431 C 166.000000,172.788968 165.606339,171.191468 165.125198,170.236431 C 161.373625,162.789777 160.000000,159.615284 160.000000,158.391930 C 160.000000,157.611443 159.602502,156.191468 159.116671,155.236431 C 157.954721,152.952290 156.485839,149.315219 154.982546,145.000000 C 154.311933,143.075000 152.916519,139.592404 151.881625,137.260898 C 150.846731,134.929393 150.000000,132.353162 150.000000,131.535941 C 150.000000,130.718720 148.650000,127.102546 147.000000,123.500000 C 145.350000,119.897454 143.997765,116.173685 143.995033,115.224958 C 143.992301,114.276231 142.935708,112.182295 141.647048,110.571766 L 139.304030,107.643531 L 125.902015,108.891114 C 118.530907,109.577285 110.613231,110.557490 108.307180,111.069349 C 106.001129,111.581207 102.583373,112.000000 100.712168,112.000000 C 96.523871,112.000000 94.439185,114.193835 93.585312,119.500000 C 92.172970,128.276619 91.743335,130.040594 90.889512,130.568285 C 90.400280,130.870647 90.000000,132.390038 90.000000,133.944710 C 90.000000,135.499382 89.328119,138.060324 88.506931,139.635693 C 87.685743,141.211062 86.726429,144.647600 86.375123,147.272445 C 86.023816,149.897290 85.345697,152.286347 84.868192,152.581462 C 84.390686,152.876577 84.000000,154.210018 84.000000,155.544666 C 84.000000,158.527369 81.783154,167.313991 80.856710,168.003313 C 80.484663,168.280136 79.734304,170.755136 79.189246,173.503313 C 78.644187,176.251491 77.741555,179.850000 77.183396,181.500000 C 74.965118,188.057556 74.000000,191.732310 74.000000,193.620998 C 74.000000,197.023184 70.034314,199.482572 68.514260,197.023073" fill="none" stroke="black" stroke-width="5"/>
</svg>
