<?xml version="1.0" encoding="utf-8" ?>
<svg xmlns="http://www.w3.org/2000/svg" xmlns:ev="http://www.w3.org/2001/xml-events" xmlns:xlink="http://www.w3.org/1999/xlink" baseProfile="full" height="220" version="1.1" width="256">
  <defs/>
  <path d="M 109.240239,186.250000 C 109.736109,180.813643 112.599300,165.987837 114.033721,161.429002 C 114.565175,159.739953 115.000000,157.181748 115.000000,155.744102 C 115.000000,154.306455 115.384701,152.088404 115.854892,150.815100 C 116.325082,149.541795 117.006547,146.580327 117.369258,144.234059 C 118.025117,139.991510 118.003269,139.953126 113.384984,137.234059 C 110.830923,135.730327 107.204474,133.487500 105.326209,132.250000 C 103.447944,131.012500 101.459297,130.000000 100.906994,130.000000 C 100.354691,130.000000 97.192854,128.200000 93.880689,126.000000 C 90.568525,123.800000 87.398871,122.000000 86.837015,122.000000 C 86.275159,122.000000 84.671294,121.100000 83.272871,120.000000 C 81.874447,118.900000 80.164114,118.000000 79.472130,118.000000 C 77.721568,118.000000 76.671634,114.820975 78.125447,113.922470 C 79.647629,112.981709 81.521114,113.677237 86.500000,117.031511 C 88.700000,118.513649 92.300000,120.692602 94.500000,121.873627 C 98.888517,124.229513 99.708587,124.716178 108.527231,130.198004 C 111.842208,132.258652 115.667208,134.069594 117.027231,134.222319 C 119.248390,134.471745 119.608604,133.991238 120.567336,129.500000 C 121.154371,126.750000 121.911093,123.825000 122.248941,123.000000 C 122.586788,122.175000 123.100243,119.925000 123.389952,118.000000 C 123.929059,114.417851 125.168674,107.990512 126.861542,100.000000 C 127.385894,97.525000 128.291413,93.025000 128.873806,90.000000 C 129.456198,86.975000 130.243293,83.418800 130.622906,82.097332 C 131.295827,79.754827 131.202772,79.711688 126.906555,80.374529 C 115.910291,82.071084 106.116370,84.012266 100.741931,85.560427 C 98.124992,86.314263 95.358010,86.690876 94.593081,86.397345 C 93.828152,86.103814 92.905226,86.344331 92.542134,86.931826 C 92.179041,87.519322 90.648524,88.000000 89.140983,88.000000 C 87.633442,88.000000 85.972500,88.392218 85.450000,88.871594 C 84.139953,90.073520 71.190278,91.116893 70.544822,90.072524 C 70.257282,89.607273 70.700293,88.663698 71.529292,87.975690 C 72.965067,86.784103 75.058895,86.232790 86.500000,84.033847 C 89.250000,83.505307 95.775000,82.126994 101.000000,80.970930 C 106.225000,79.814867 112.750000,78.485433 115.500000,78.016634 C 125.201970,76.362715 130.879363,74.849108 131.762015,73.681139 C 132.895632,72.181081 137.263613,52.539548 137.398481,48.335594 C 137.454317,46.595170 137.837500,44.832670 138.250000,44.418927 C 138.662500,44.005184 139.000000,42.594320 139.000000,41.283673 C 139.000000,38.511647 141.633700,33.000000 142.958292,33.000000 C 144.456919,33.000000 145.278872,37.088178 144.238851,39.369160 C 142.872596,42.365641 141.000000,50.551763 141.000000,53.527920 C 141.000000,54.902490 140.603158,56.808532 140.118129,57.763569 C 138.986323,59.992130 137.000000,68.433196 137.000000,71.014351 C 137.000000,72.106458 137.440862,73.000000 137.979693,73.000000 C 140.422844,73.000000 155.681115,69.783781 157.236431,68.940963 C 158.191468,68.423433 159.872510,68.000000 160.972080,68.000000 C 163.239649,68.000000 171.489583,66.133504 174.500000,64.939393 C 177.747512,63.651236 185.981498,63.161046 186.634124,64.217018 C 187.939407,66.329010 184.025570,67.919038 173.500000,69.552863 C 167.450000,70.491970 161.600000,71.602311 160.500000,72.020286 C 159.400000,72.438262 154.900000,73.547955 150.500000,74.486271 C 146.100000,75.424587 140.919533,76.635736 138.987851,77.177712 L 135.475703,78.163123 L 133.205427,88.831562 C 131.956775,94.699203 130.949742,100.260942 130.967575,101.190983 C 130.985409,102.121024 130.550000,103.160081 130.000000,103.500000 C 129.450000,103.839919 129.000000,106.089919 129.000000,108.500000 C 129.000000,110.910081 128.614318,113.120331 128.142929,113.411665 C 127.671539,113.703000 127.033687,116.384661 126.725479,119.370911 C 126.417270,122.357162 125.386122,127.271661 124.434038,130.292020 C 123.481953,133.312379 122.954497,136.439037 123.261912,137.240149 C 123.569328,138.041261 126.223658,139.947856 129.160425,141.477026 C 132.097191,143.006197 134.725000,144.536936 135.000000,144.878668 C 135.275000,145.220401 137.975000,146.792999 141.000000,148.373331 C 147.168579,151.595942 152.143626,154.351426 159.500000,158.619754 C 162.250000,160.215364 165.725194,162.148124 167.222654,162.914776 C 168.720114,163.681429 171.420114,165.576142 173.222654,167.125251 C 175.731133,169.281046 176.188908,170.149461 175.173951,170.826924 C 173.498015,171.945578 167.075170,169.823287 165.462649,167.618032 C 164.811925,166.728114 163.541624,166.000000 162.639757,166.000000 C 161.737891,166.000000 161.000000,165.580324 161.000000,165.067388 C 161.000000,164.554451 160.102664,163.849972 159.005920,163.501879 C 157.909176,163.153786 156.427671,162.335961 155.713688,161.684491 C 153.648467,159.800092 150.833727,158.127523 146.020066,155.924366 C 143.556103,154.796639 141.306103,153.564813 141.020066,153.186976 C 140.734030,152.809139 137.575000,150.971854 134.000000,149.104120 C 130.425000,147.236386 127.224109,145.284514 126.886910,144.766628 C 126.549710,144.248741 125.199710,143.976887 123.886910,144.162508 C 121.693661,144.472618 121.390612,145.230212 120.151768,153.500000 C 119.410241,158.450000 118.397741,163.281394 117.901768,164.236431 C 117.405796,165.191468 117.000000,167.077411 117.000000,168.427414 C 117.000000,169.777418 116.564740,171.150972 116.032755,171.479756 C 115.500770,171.808541 115.330968,173.404842 115.655418,175.027092 C 116.035360,176.926798 115.667768,178.858104 114.622664,180.453135 C 113.730199,181.815209 113.000000,184.472321 113.000000,186.357828 C 113.000000,189.386548 111.721555,191.000000 109.321699,191.000000 C 109.038600,191.000000 109.001943,188.862500 109.240239,186.250000" fill="none" stroke="black" stroke-width="5"/>
</svg>
