<?xml version="1.0" encoding="utf-8" ?>
<svg xmlns="http://www.w3.org/2000/svg" xmlns:ev="http://www.w3.org/2001/xml-events" xmlns:xlink="http://www.w3.org/1999/xlink" baseProfile="full" height="221" version="1.1" width="256">
  <defs/>
  <path d="M 130.200000,193.800000 C 129.540000,193.140000 129.000000,191.594295 129.000000,190.365100 C 129.000000,189.135904 128.551533,186.950643 128.003407,185.508962 C 127.455281,184.067282 126.526987,178.750487 125.940532,173.693862 C 124.662447,162.673768 123.438941,153.776841 121.994553,145.000000 C 121.406221,141.425000 120.698560,136.925000 120.421972,135.000000 C 120.145384,133.075000 119.374790,127.900000 118.709542,123.500000 L 117.500000,115.500000 L 113.500000,115.744517 C 111.300000,115.879001 109.008046,116.656032 108.406768,117.471254 C 107.805490,118.286475 103.980490,120.595145 99.906768,122.601632 C 95.833046,124.608120 91.375000,127.027966 90.000000,127.979068 C 88.625000,128.930170 86.293967,129.999643 84.819927,130.355674 C 83.345887,130.711705 81.465530,131.677327 80.641356,132.501501 C 79.817181,133.325676 78.548214,134.010006 77.821429,134.022236 C 77.094643,134.034466 75.375000,134.924459 74.000000,136.000000 C 72.625000,137.075541 70.895978,137.965534 70.157729,137.977764 C 69.419480,137.989994 67.671294,138.900000 66.272871,140.000000 C 64.874447,141.100000 62.890969,142.000000 61.865141,142.000000 C 60.839314,142.000000 60.000000,142.401139 60.000000,142.891420 C 60.000000,143.886342 52.785155,147.000000 50.479764,147.000000 C 49.665894,147.000000 49.000000,146.137809 49.000000,145.084019 C 49.000000,143.674634 51.445751,141.918868 58.250000,138.443591 C 63.337500,135.845144 67.650000,133.332336 67.833333,132.859571 C 68.016667,132.386807 68.714453,132.000000 69.383969,132.000000 C 71.158385,132.000000 75.983073,129.627165 75.992198,128.750000 C 75.996489,128.337500 76.810000,128.000000 77.800000,128.000000 C 78.790000,128.000000 80.027500,127.592407 80.550000,127.094237 C 82.274627,125.449917 89.033561,122.000000 90.530416,122.000000 C 91.338687,122.000000 92.000000,121.550000 92.000000,121.000000 C 92.000000,120.450000 92.900000,120.000000 94.000000,120.000000 C 95.100000,120.000000 96.000000,119.602484 96.000000,119.116631 C 96.000000,118.630779 96.787500,117.983520 97.750000,117.678279 C 99.872500,117.005163 104.935514,113.965629 106.789494,112.251501 C 107.532192,111.564827 109.233387,110.728544 110.569927,110.393093 C 113.322331,109.702284 113.994315,105.660534 111.583020,104.299690 C 110.079385,103.451095 101.185935,94.960192 99.500000,92.763587 C 96.863908,89.329023 89.565642,81.295535 77.742289,68.814020 C 70.611921,61.286731 64.090109,54.145962 63.249374,52.945644 C 62.408639,51.745326 58.801678,47.779017 55.233906,44.131624 C 45.247910,33.922774 42.396871,29.593916 43.976186,27.038532 C 44.536356,26.132157 47.282868,28.268312 53.383666,34.355388 C 58.122650,39.083714 62.000000,43.231409 62.000000,43.572489 C 62.000000,44.175949 72.800385,56.972392 74.201590,58.029098 C 78.043788,60.926658 84.000000,66.681398 84.000000,67.496071 C 84.000000,68.061735 89.062500,73.746646 95.250000,80.129206 C 101.437500,86.511766 109.349901,94.718742 112.833113,98.366930 C 116.316326,102.015119 119.691326,104.994430 120.333113,104.987621 C 121.384708,104.976466 126.000000,98.845562 126.000000,97.459791 C 126.000000,97.147249 127.347918,95.453438 128.995373,93.695766 C 130.642827,91.938095 131.992827,90.031485 131.995373,89.458855 C 131.997918,88.886225 133.800000,86.762709 136.000000,84.739931 C 138.200000,82.717152 140.000000,80.827061 140.000000,80.539729 C 140.000000,80.252396 141.614268,77.875912 143.587262,75.258653 C 145.560255,72.641394 148.147755,69.183875 149.337262,67.575279 C 150.526768,65.966682 153.412500,62.284533 155.750000,59.392725 C 158.087500,56.500917 160.000000,53.654542 160.000000,53.067446 C 160.000000,52.480351 160.337500,51.996925 160.750000,51.993167 C 161.162500,51.989409 162.620983,50.301909 163.991074,48.243167 C 165.361165,46.184425 166.722793,44.275000 167.016913,44.000000 C 167.311034,43.725000 169.108578,41.475000 171.011457,39.000000 C 172.914335,36.525000 174.927707,33.991083 175.485618,33.369074 C 176.043528,32.747065 178.477078,29.484565 180.893507,26.119074 C 185.476866,19.735583 188.000000,18.381133 188.000000,22.304219 C 188.000000,25.468400 176.074781,42.705348 168.270640,50.821429 C 167.571788,51.548214 167.000000,52.528571 167.000000,53.000000 C 167.000000,53.471429 166.422689,54.451786 165.717087,55.178571 C 165.011486,55.905357 163.338796,58.075000 162.000000,60.000000 C 160.661204,61.925000 158.988514,64.094643 158.282913,64.821429 C 157.577311,65.548214 156.996097,66.448214 156.991326,66.821429 C 156.986556,67.194643 155.411556,69.157461 153.491326,71.183246 C 151.571097,73.209031 150.000000,75.276787 150.000000,75.778259 C 150.000000,76.279730 149.100000,77.504514 148.000000,78.500000 C 146.900000,79.495486 146.000000,80.802930 146.000000,81.405431 C 146.000000,82.007932 144.146413,84.525688 141.880918,87.000444 C 139.615423,89.475200 136.443805,93.412500 134.832878,95.750000 C 133.221950,98.087500 131.475537,100.000000 130.951959,100.000000 C 130.428382,100.000000 129.989994,100.562500 129.977764,101.250000 C 129.965534,101.937500 129.075541,103.625000 128.000000,105.000000 C 125.132798,108.665508 125.493580,109.429242 130.750000,110.821432 C 133.362500,111.513367 136.850000,112.495156 138.500000,113.003187 C 142.233006,114.152569 153.172826,116.890893 158.500000,118.009347 C 160.700000,118.471243 164.075000,119.302717 166.000000,119.857068 C 167.925000,120.411418 170.625000,121.160369 172.000000,121.521402 C 173.375000,121.882435 175.175000,122.422317 176.000000,122.721141 C 176.825000,123.019965 178.618299,123.410536 179.985110,123.589076 C 181.351920,123.767616 183.376920,124.318080 184.485110,124.812330 C 186.552621,125.734433 196.481817,128.425013 203.371757,129.930169 C 207.202367,130.766992 209.273777,132.563668 208.640373,134.500000 C 208.225686,135.767709 202.629606,135.571026 197.750000,134.117241 C 191.564271,132.274321 186.701086,130.916836 183.000000,130.000000 C 181.075000,129.523137 177.700000,128.619118 175.500000,127.991067 C 173.300000,127.363017 169.700000,126.467036 167.500000,126.000000 C 161.815294,124.793198 157.181110,123.488829 152.000000,121.637264 C 149.525000,120.752777 146.631949,120.022558 145.570998,120.014553 C 143.733613,120.000691 138.819343,118.634499 134.500000,116.936760 C 133.400000,116.504399 131.375000,115.953263 130.000000,115.712013 C 128.625000,115.470763 126.825000,115.099367 126.000000,114.886688 C 124.134464,114.405768 124.104898,118.838067 125.892514,131.000000 C 126.579667,135.675000 127.590253,142.875000 128.138262,147.000000 C 128.686270,151.125000 129.572707,157.425000 130.108120,161.000000 C 130.643534,164.575000 131.453959,170.875000 131.909065,175.000000 C 132.364171,179.125000 133.329825,184.602661 134.054963,187.172580 C 135.141680,191.023949 135.143313,192.122392 134.064253,193.422580 C 132.494060,195.314547 131.783907,195.383907 130.200000,193.800000" fill="black" stroke="black" stroke-width="1"/>
</svg>
