<?xml version="1.0" encoding="utf-8" ?>
<svg xmlns="http://www.w3.org/2000/svg" xmlns:ev="http://www.w3.org/2001/xml-events" xmlns:xlink="http://www.w3.org/1999/xlink" baseProfile="full" height="220" version="1.1" width="258">
  <defs/>
  <path d="M 128.729899,196.302786 C 127.247986,193.678822 124.000000,171.416318 124.000000,163.882882 C 124.000000,160.712215 123.604606,157.873667 123.121347,157.574996 C 122.638087,157.276326 121.970529,154.437268 121.637885,151.265979 C 121.305240,148.094691 120.590666,142.575000 120.049943,139.000000 C 117.814777,124.222148 116.853384,117.195908 116.321355,111.750000 C 115.969277,108.146093 115.297175,106.000000 114.520599,106.000000 C 113.839139,106.000000 111.236672,104.200000 108.737340,102.000000 C 106.238008,99.800000 103.909486,98.000000 103.562846,98.000000 C 103.216207,98.000000 101.612926,96.650000 100.000000,95.000000 C 98.387074,93.350000 96.806918,92.000000 96.488543,92.000000 C 95.677198,92.000000 82.506034,82.785232 76.500000,78.015679 C 73.750000,75.831830 69.816169,72.797409 67.758153,71.272522 C 65.700137,69.747635 63.150796,67.825000 62.092951,67.000000 C 61.035106,66.175000 56.900394,63.025000 52.904702,60.000000 C 48.909011,56.975000 44.683730,53.600000 43.515189,52.500000 C 42.346649,51.400000 37.815192,48.049402 33.445285,45.054226 C 19.178706,35.275776 12.934068,27.936814 20.099709,29.369942 C 22.616776,29.873355 29.791719,34.487152 32.000000,37.022341 C 32.275000,37.338051 33.902284,38.574944 35.616187,39.770991 C 39.032183,42.154844 43.324344,45.741282 48.755591,50.750000 C 50.693883,52.537500 52.853668,54.000000 53.555113,54.000000 C 54.256558,54.000000 56.104651,55.350000 57.661987,57.000000 C 59.219322,58.650000 60.987722,60.000000 61.591765,60.000000 C 62.195808,60.000000 63.504514,60.900000 64.500000,62.000000 C 65.495486,63.100000 66.807670,64.000000 67.415964,64.000000 C 68.024258,64.000000 69.637074,65.350000 71.000000,67.000000 C 72.362926,68.650000 73.964335,70.000000 74.558688,70.000000 C 75.153041,70.000000 76.559125,71.012500 77.683319,72.250000 C 78.807514,73.487500 81.185711,75.625000 82.968202,77.000000 C 84.750693,78.375000 86.724548,79.967073 87.354547,80.537940 C 87.984546,81.108808 90.126929,82.338677 92.115397,83.270984 C 94.103865,84.203291 97.478865,86.679975 99.615397,88.774725 C 105.832252,94.870006 112.467019,99.918241 115.777982,101.072449 C 119.241984,102.280007 117.673242,103.570061 133.000000,86.909940 C 137.675000,81.828235 144.162777,75.157119 147.417281,72.085238 C 150.671786,69.013357 154.721786,64.969041 156.417281,63.097869 C 158.112777,61.226697 162.162257,57.176697 165.416126,54.097869 C 168.669996,51.019041 175.419996,44.235056 180.416126,39.022346 C 198.127413,20.543285 205.951648,13.000000 207.407674,13.000000 C 210.901927,13.000000 209.597357,15.491179 201.798233,23.711661 C 197.234205,28.522268 191.025000,35.126223 188.000000,38.387118 C 184.975000,41.648012 181.896046,44.807413 181.157880,45.408008 C 180.419714,46.008604 174.344714,51.991635 167.657880,58.703632 C 141.506463,84.953462 126.000000,101.003780 126.000000,101.822572 C 126.000000,102.293591 124.837311,103.208726 123.416247,103.856207 C 120.876404,105.013437 120.842936,105.164866 121.446891,112.766722 C 121.784809,117.020025 122.470656,122.975000 122.970996,126.000000 C 123.471335,129.025000 124.400642,135.550000 125.036122,140.500000 C 125.671602,145.450000 126.552793,150.400000 126.994323,151.500000 C 127.781559,153.461269 130.062278,171.612425 130.512563,179.500000 C 130.638157,181.700000 131.051124,184.232177 131.430270,185.127060 C 133.188959,189.278032 130.664064,199.727536 128.729899,196.302786" fill="black" stroke="black" stroke-width="1"/>
</svg>
