<?xml version="1.0" encoding="utf-8" ?>
<svg xmlns="http://www.w3.org/2000/svg" xmlns:ev="http://www.w3.org/2001/xml-events" xmlns:xlink="http://www.w3.org/1999/xlink" baseProfile="full" height="221" version="1.1" width="252">
  <defs/>
  <path d="M 66.701850,205.368517 C 66.354535,205.021201 66.520368,203.896201 67.070368,202.868517 C 67.777719,201.546819 69.183001,201.000000 71.872313,201.000000 C 73.963383,201.000000 80.135050,200.314979 85.587129,199.477732 C 95.330940,197.981425 104.120800,196.726512 117.014726,194.990867 C 120.597825,194.508548 125.772825,193.601746 128.514726,192.975752 C 131.256627,192.349758 137.550000,191.398113 142.500000,190.860985 C 154.731804,189.533703 162.835921,188.420870 173.500000,186.604157 C 178.450000,185.760884 182.612500,185.054973 182.750000,185.035467 C 183.826175,184.882794 182.425828,180.372292 179.496919,174.557334 C 177.573613,170.738868 176.000000,167.063868 176.000000,166.390668 C 176.000000,165.717467 175.608574,165.016667 175.130164,164.833333 C 174.085905,164.433159 156.000000,128.054745 156.000000,126.354472 C 156.000000,125.701179 155.662500,125.016667 155.250000,124.833333 C 154.529036,124.512905 151.197308,118.218797 142.104705,100.000000 C 132.875101,81.506693 128.378830,73.089225 126.907868,71.550000 C 126.408541,71.027500 126.000000,69.790000 126.000000,68.800000 C 126.000000,67.810000 125.550000,67.000000 125.000000,67.000000 C 124.450000,67.000000 124.000000,66.409523 124.000000,65.687829 C 124.000000,64.966136 123.075807,62.462799 121.946237,60.124859 C 118.657119,53.317168 116.711774,54.753409 113.988535,66.000000 C 113.522417,67.925000 111.539551,75.800000 109.582166,83.500000 C 107.624780,91.200000 106.018045,98.737500 106.011642,100.250000 C 106.005239,101.762500 105.550000,103.000000 105.000000,103.000000 C 104.450000,103.000000 104.000000,103.659274 104.000000,104.465053 C 104.000000,105.270832 103.289803,108.021943 102.421784,110.578634 C 100.855394,115.192327 99.352303,122.043687 98.324176,129.256268 C 98.029683,131.322215 97.386269,133.261273 96.894367,133.565285 C 96.402465,133.869297 96.000000,135.351476 96.000000,136.859017 C 96.000000,138.366558 95.622448,140.027500 95.160997,140.550000 C 94.036288,141.823503 91.904750,151.989516 92.236060,154.500000 C 92.381227,155.600000 91.970663,156.500000 91.323696,156.500000 C 89.790999,156.500000 72.000000,133.102706 72.000000,131.087026 C 72.000000,130.623851 71.256481,129.627823 70.347735,128.873631 C 68.417631,127.271787 62.943532,119.995312 54.511098,107.822697 C 40.073778,86.981748 32.521590,77.000000 31.190650,77.000000 C 30.007997,77.000000 29.865973,78.681992 30.367379,86.750000 C 30.700645,92.112500 31.202226,101.000000 31.482004,106.500000 C 31.761782,112.000000 32.429384,120.325000 32.965564,125.000000 C 33.501744,129.675000 34.207938,137.325000 34.534884,142.000000 C 34.861830,146.675000 35.481972,154.100000 35.912977,158.500000 C 36.772825,167.277934 36.085753,169.292568 33.141101,166.627695 C 31.534151,165.173425 31.133009,162.908942 30.585540,152.201323 C 30.228368,145.215596 29.508007,135.675000 28.984738,131.000000 C 28.461469,126.325000 27.836868,118.225000 27.596736,113.000000 C 27.356603,107.775000 26.910633,102.825000 26.605692,102.000000 C 26.300750,101.175000 25.839453,95.775000 25.580586,90.000000 C 25.321720,84.225000 24.678847,76.160529 24.151981,72.078954 C 23.625115,67.997379 23.423528,64.059879 23.704010,63.328954 C 24.599301,60.995864 26.771687,61.894513 29.016392,65.526523 C 30.215123,67.466111 31.739067,69.603611 32.402934,70.276523 C 33.066801,70.949435 35.482255,74.200000 37.770610,77.500000 C 40.058965,80.800000 43.804973,86.200000 46.095073,89.500000 C 48.385172,92.800000 51.259673,96.625000 52.482853,98.000000 C 53.706032,99.375000 54.956540,101.175000 55.261759,102.000000 C 55.566979,102.825000 58.107945,106.314766 60.908352,109.755036 C 63.708758,113.195306 66.000000,116.388062 66.000000,116.850049 C 66.000000,117.312036 66.900000,118.504514 68.000000,119.500000 C 69.100000,120.495486 70.000000,121.743324 70.000000,122.272973 C 70.000000,122.802621 71.237500,124.720801 72.750000,126.535595 C 76.122034,130.581577 80.949290,137.246100 84.123312,142.237621 C 86.826821,146.489207 90.000000,147.288514 90.000000,143.717928 C 90.000000,142.462789 90.702163,138.975289 91.560363,135.967928 C 92.418563,132.960568 93.509623,128.700000 93.984942,126.500000 C 94.460260,124.300000 95.363017,120.700000 95.991067,118.500000 C 96.619118,116.300000 97.518916,112.925000 97.990620,111.000000 C 98.462323,109.075000 99.561824,104.575000 100.433955,101.000000 C 101.306085,97.425000 102.449152,93.600000 102.974102,92.500000 C 103.499053,91.400000 104.561632,87.316292 105.335389,83.425092 C 106.109146,79.533893 107.192701,75.483893 107.743291,74.425092 C 108.293880,73.366292 109.066715,70.250000 109.460702,67.500000 C 110.311433,61.561958 112.323793,53.669737 114.050345,49.500000 C 114.733556,47.850000 115.339223,45.639470 115.396273,44.587712 C 115.619799,40.466825 117.739518,42.316068 121.299131,49.737367 C 123.346964,54.006815 125.760174,58.850000 126.661820,60.500000 C 129.259305,65.253366 129.059832,64.860730 146.475249,99.500000 C 155.600436,117.650000 163.706284,133.625000 164.488245,135.000000 C 165.270206,136.375000 168.554548,142.900000 171.786783,149.500000 C 175.019018,156.100000 178.136767,162.400000 178.715115,163.500000 C 179.293463,164.600000 180.321310,166.850000 180.999218,168.500000 C 181.677127,170.150000 182.623180,172.175000 183.101559,173.000000 C 187.786578,181.079670 189.435719,187.994643 187.031914,189.480276 C 186.499467,189.809346 181.661967,190.515653 176.281914,191.049845 C 170.901861,191.584038 163.800000,192.467265 160.500000,193.012571 C 154.566558,193.993039 145.615259,195.306542 133.000000,197.047887 C 129.425000,197.541362 123.350000,198.393741 119.500000,198.942063 C 115.650000,199.490385 109.125000,200.400292 105.000000,200.964079 C 96.104885,202.179824 86.932300,203.529198 78.000000,204.936036 C 70.403962,206.132412 67.574071,206.240738 66.701850,205.368517" fill="none" stroke="black" stroke-width="5"/>
</svg>
