<?xml version="1.0" encoding="utf-8" ?>
<svg xmlns="http://www.w3.org/2000/svg" xmlns:ev="http://www.w3.org/2001/xml-events" xmlns:xlink="http://www.w3.org/1999/xlink" baseProfile="full" height="219" version="1.1" width="257">
  <defs/>
  <path d="M 96.416554,194.465394 C 95.494050,192.521361 94.005909,190.383861 93.109574,189.715394 C 92.213239,189.046927 90.198654,186.925000 88.632719,185.000000 C 87.066784,183.075000 82.997455,178.575000 79.589765,175.000000 C 76.182076,171.425000 72.309346,166.925000 70.983699,165.000000 C 69.658051,163.075000 68.065058,161.050000 67.443713,160.500000 C 64.297694,157.715216 48.457888,139.698987 36.671835,125.500000 C 32.563023,120.550000 26.913646,114.066102 24.117664,111.091338 C 18.031497,104.616006 17.025083,102.190786 19.627449,100.270986 C 21.276754,99.054271 21.678830,99.146596 23.000000,101.045394 C 23.825000,102.231092 26.550673,105.293437 29.057051,107.850604 C 31.563429,110.407772 34.938300,114.300000 36.556764,116.500000 C 38.175228,118.700000 41.459521,122.525000 43.855192,125.000000 C 46.250864,127.475000 49.226827,131.075000 50.468444,133.000000 C 51.710062,134.925000 54.587596,138.413015 56.862965,140.751145 C 59.138334,143.089275 61.000000,145.441401 61.000000,145.978092 C 61.000000,146.514783 62.110348,147.681422 63.467439,148.570622 C 64.824531,149.459823 67.187031,152.169392 68.717439,154.591887 C 70.247848,157.014382 72.010746,158.997228 72.634990,158.998212 C 73.259235,158.999195 74.451448,160.012500 75.284353,161.250000 C 76.117258,162.487500 78.531513,165.300418 80.649363,167.500930 C 82.767213,169.701441 85.733089,172.993225 87.240197,174.816005 C 89.872992,178.000252 92.000000,178.334252 92.000000,175.563428 C 92.000000,174.838232 91.328230,173.687370 90.507177,173.005956 C 89.686124,172.324543 88.531083,169.906943 87.940418,167.633512 C 86.886423,163.576750 85.352407,160.081899 77.110631,142.960714 C 74.849784,138.264107 73.000000,133.890294 73.000000,133.241130 C 73.000000,132.591967 72.190761,130.584645 71.201690,128.780416 C 70.212620,126.976187 67.434424,120.550000 65.027921,114.500000 C 62.621418,108.450000 60.280658,103.350000 59.826231,103.166667 C 59.371804,102.983333 59.000000,102.240517 59.000000,101.515963 C 59.000000,100.791410 57.879396,97.791410 56.509769,94.849297 C 53.700517,88.814707 53.337503,85.468202 55.406044,84.674428 C 57.068297,84.036562 60.000000,86.969120 60.000000,89.269724 C 60.000000,90.156457 60.398987,91.128553 60.886637,91.429938 C 61.374287,91.731322 62.069678,93.557880 62.431950,95.488955 C 62.794222,97.420030 63.410385,99.000000 63.801202,99.000000 C 64.192018,99.000000 65.105657,100.462500 65.831509,102.250000 C 66.557362,104.037500 68.017212,107.230025 69.075621,109.344501 C 70.134029,111.458976 71.000000,113.585207 71.000000,114.069459 C 71.000000,114.553710 72.350000,117.897454 74.000000,121.500000 C 75.650000,125.102546 77.000000,128.476777 77.000000,128.998291 C 77.000000,129.928159 77.783912,131.778017 83.831123,145.118221 C 85.481171,148.758243 87.557830,153.876649 88.445920,156.492457 C 89.334010,159.108265 90.721987,162.192694 91.530314,163.346742 C 92.338641,164.500791 93.000000,166.668327 93.000000,168.163489 C 93.000000,169.658651 93.450843,171.160602 94.001873,171.501157 C 95.800887,172.613009 97.000000,167.050746 97.000000,157.593905 C 97.000000,152.492162 97.435471,144.758956 97.967713,140.409004 C 98.499956,136.059052 99.169604,125.750000 99.455820,117.500000 C 100.434806,89.281358 101.056694,76.499496 101.563170,74.186943 C 101.964733,72.353418 102.632642,71.938788 104.784878,72.186943 C 107.741734,72.527872 107.536551,71.491110 108.013349,88.500000 C 108.090438,91.250000 107.688548,97.325000 107.120259,102.000000 C 106.551971,106.675000 105.794013,115.450000 105.435909,121.500000 C 105.077804,127.550000 104.655547,133.850000 104.497560,135.500000 C 103.943069,141.291041 102.983361,153.568910 102.543418,160.500000 C 102.299044,164.350000 101.564928,169.440624 100.912049,171.812498 C 100.082731,174.825365 100.041539,176.441539 100.775366,177.175366 C 102.569369,178.969369 103.784390,177.207833 104.518287,171.748883 C 104.906397,168.861997 105.560234,166.050000 105.971258,165.500000 C 106.382282,164.950000 107.002830,163.001574 107.350254,161.170165 C 107.697678,159.338755 108.623905,156.413755 109.408536,154.670165 C 110.193166,152.926574 111.809849,148.575000 113.001165,145.000000 C 114.192480,141.425000 116.029574,136.592404 117.083596,134.260898 C 118.137618,131.929393 119.000000,128.918450 119.000000,127.569915 C 119.000000,126.221381 119.450000,124.839919 120.000000,124.500000 C 120.550000,124.160081 121.000000,122.873524 121.000000,121.640983 C 121.000000,120.408442 121.383659,118.972500 121.852575,118.450000 C 122.321491,117.927500 123.289953,115.250000 124.004714,112.500000 C 124.719475,109.750000 126.040239,105.925000 126.939745,104.000000 C 127.839252,102.075000 130.543877,94.425000 132.950024,87.000000 C 135.356171,79.575000 137.756848,72.937500 138.284863,72.250000 C 138.812878,71.562500 140.372763,71.000000 141.751275,71.000000 C 144.176349,71.000000 144.236421,71.160121 143.602928,75.935620 C 143.242825,78.650211 142.287284,82.137711 141.479503,83.685620 C 140.671723,85.233529 139.732366,87.967470 139.392043,89.761045 C 139.051720,91.554620 138.374287,93.268678 137.886637,93.570062 C 137.398987,93.871447 136.998318,95.103976 136.996262,96.309017 C 136.994206,97.514058 136.094206,99.973376 134.996262,101.774170 C 133.898318,103.574963 133.000000,106.387463 133.000000,108.024170 C 133.000000,109.660876 132.550000,111.000000 132.000000,111.000000 C 131.450000,111.000000 131.000000,111.614991 131.000000,112.366647 C 131.000000,113.118303 130.051708,116.155803 128.892683,119.116647 C 126.229180,125.920836 125.755518,127.171005 123.064266,134.500000 C 121.852486,137.800000 120.374569,141.389845 119.780006,142.477433 C 119.185444,143.565021 118.112429,146.490021 117.395530,148.977433 C 115.576837,155.287713 112.420590,163.912744 111.647013,164.686320 C 111.291156,165.042177 111.000000,166.471646 111.000000,167.862916 C 111.000000,169.254187 109.802011,172.121198 108.337802,174.234052 C 106.332913,177.127107 105.959286,178.359286 106.824558,179.224558 C 107.689830,180.089830 108.594044,179.790553 110.486756,178.012442 C 111.869040,176.713853 113.000000,175.228622 113.000000,174.711928 C 113.000000,173.227691 164.133194,123.000000 165.644188,123.000000 C 166.389885,123.000000 167.000000,122.368438 167.000000,121.596528 C 167.000000,119.239429 186.197863,101.000000 188.678821,101.000000 C 191.599146,101.000000 192.722468,102.998550 190.652775,104.511946 C 189.743749,105.176643 189.000000,106.270886 189.000000,106.943598 C 189.000000,108.127537 167.460390,129.801255 155.154326,141.000000 C 151.830217,144.025000 149.085631,146.860121 149.055246,147.300270 C 148.977869,148.421118 136.165720,161.000000 135.101463,161.000000 C 134.622169,161.000000 133.447086,162.194908 132.490167,163.655352 C 130.287122,167.017622 125.881970,170.927141 124.250000,170.968399 C 123.562500,170.985779 123.000000,171.384290 123.000000,171.853977 C 123.000000,172.798932 121.622506,174.269669 111.155718,184.500000 C 102.276016,193.179099 101.478468,194.074855 100.693949,196.250000 C 99.719559,198.951581 98.255538,198.340765 96.416554,194.465394" fill="black" stroke="black" stroke-width="1"/>
</svg>
