<?xml version="1.0" encoding="utf-8" ?>
<svg xmlns="http://www.w3.org/2000/svg" xmlns:ev="http://www.w3.org/2001/xml-events" xmlns:xlink="http://www.w3.org/1999/xlink" baseProfile="full" height="220" version="1.1" width="258">
  <defs/>
  <path d="M 116.843775,192.250000 C 116.757852,190.737500 116.537143,188.150000 116.353312,186.500000 C 116.169481,184.850000 116.070434,181.025000 116.133208,178.000000 C 116.195983,174.975000 116.278732,170.925000 116.317096,169.000000 C 116.355460,167.075000 116.012733,132.087500 115.555481,91.250000 C 114.936061,35.929143 115.014218,17.000000 115.862057,17.000000 C 116.487926,17.000000 117.305124,16.887500 117.678053,16.750000 C 119.460926,16.092650 119.970765,25.540778 120.146353,62.491552 C 120.250918,84.496198 120.654115,103.400000 121.042347,104.500000 C 121.641187,106.196731 127.213462,100.986462 157.790436,70.139269 C 178.311502,49.436852 194.299322,34.066957 194.916325,34.448286 C 197.166147,35.838753 195.705681,38.010391 185.250000,48.821613 C 145.009239,90.430746 136.583854,99.104930 129.081439,106.648810 L 120.662879,115.113900 L 120.899928,153.621963 C 121.134985,191.806368 120.901713,195.000000 117.877555,195.000000 C 117.394900,195.000000 116.929699,193.762500 116.843775,192.250000" fill="none" stroke="black" stroke-width="5"/>
</svg>
