<?xml version="1.0" encoding="utf-8" ?>
<svg xmlns="http://www.w3.org/2000/svg" xmlns:ev="http://www.w3.org/2001/xml-events" xmlns:xlink="http://www.w3.org/1999/xlink" baseProfile="full" height="217" version="1.1" width="258">
  <defs/>
  <path d="M 140.187133,183.725481 C 138.279082,181.426421 136.292087,173.717942 134.071476,160.000000 C 132.197278,148.422049 130.440821,139.235491 127.475123,125.500000 C 127.118863,123.850000 126.528718,120.025000 126.163689,117.000000 C 125.560937,112.004983 125.258414,111.472000 122.868777,111.195039 C 120.571462,110.928778 111.032849,115.979557 106.309985,119.963065 C 105.655476,120.515111 103.405476,121.911809 101.309985,123.066838 C 99.214493,124.221867 95.925000,126.391450 94.000000,127.888134 C 92.075000,129.384818 89.037500,131.201862 87.250000,131.926009 C 85.462500,132.650156 84.000000,133.638047 84.000000,134.121320 C 84.000000,134.604594 83.380100,135.000000 82.622445,135.000000 C 81.864789,135.000000 80.736173,135.612966 80.114409,136.362146 C 79.492644,137.111326 75.435963,139.819376 71.099562,142.380035 C 66.763161,144.940694 62.661677,147.702728 61.985153,148.517889 C 59.098713,151.995837 57.074390,150.271842 52.276960,140.250000 C 49.709945,134.887500 43.924998,122.850000 39.421521,113.500000 C 30.122588,94.193798 25.000000,82.434859 25.000000,80.395291 C 25.000000,78.428736 28.013604,78.658923 29.643851,80.750000 C 30.394235,81.712500 31.727549,84.075000 32.606771,86.000000 C 34.471037,90.081693 39.922544,101.714636 41.152849,104.236431 C 41.618782,105.191468 42.000000,106.653968 42.000000,107.486431 C 42.000000,108.318894 42.900000,109.900000 44.000000,111.000000 C 45.100000,112.100000 46.000000,113.900000 46.000000,115.000000 C 46.000000,116.100000 46.450000,117.000000 47.000000,117.000000 C 47.550000,117.000000 48.000000,118.350000 48.000000,120.000000 C 48.000000,121.650000 48.414245,123.000000 48.920545,123.000000 C 49.426844,123.000000 50.136466,124.344840 50.497481,125.988532 C 50.858497,127.632225 51.569252,129.233783 52.076937,129.547549 C 52.584621,129.861316 53.000000,131.216476 53.000000,132.559017 C 53.000000,133.909287 53.587491,135.000000 54.314788,135.000000 C 55.037921,135.000000 56.380641,136.575000 57.298609,138.500000 C 59.305979,142.709498 60.883692,142.843197 66.912142,139.314670 C 72.546156,136.017013 92.048937,123.433099 93.707794,122.025127 C 94.372080,121.461307 95.609580,121.000000 96.457794,121.000000 C 97.306007,121.000000 98.000000,120.620748 98.000000,120.157218 C 98.000000,119.693687 99.945093,118.314037 102.322429,117.091328 C 104.699765,115.868619 108.983894,113.097871 111.842715,110.934111 C 114.701537,108.770350 117.418498,107.000000 117.880407,107.000000 C 118.342316,107.000000 120.283977,105.525208 122.195208,103.722685 C 125.579509,100.530878 125.688644,100.185174 126.378061,90.472685 C 126.767399,84.987708 127.515231,76.000000 128.039911,70.500000 C 128.564590,65.000000 129.282669,56.562500 129.635642,51.750000 C 130.187634,44.224038 130.529532,43.000000 132.079689,43.000000 C 133.070941,43.000000 134.107808,42.634580 134.383836,42.187957 C 134.659865,41.741333 138.173923,40.294360 142.192853,38.972461 C 146.211784,37.650563 149.725000,36.285270 150.000000,35.938477 C 150.275000,35.591684 151.850000,34.983711 153.500000,34.587425 C 155.150000,34.191140 158.750000,32.830517 161.500000,31.563818 C 164.250000,30.297119 168.525000,28.672375 171.000000,27.953274 C 173.475000,27.234174 175.942088,26.409313 176.482419,26.120250 C 177.022749,25.831187 178.349883,25.529477 179.431604,25.449785 C 180.513325,25.370092 181.571237,24.786289 181.782518,24.152445 C 181.993800,23.518600 182.939167,23.000000 183.883333,23.000000 C 184.827500,23.000000 186.027500,22.604656 186.550000,22.121457 C 187.072500,21.638259 190.875000,20.231101 195.000000,18.994439 C 199.125000,17.757777 203.210433,16.128121 204.078741,15.372982 C 206.089073,13.624658 208.635945,13.608905 209.300491,15.340684 C 210.334186,18.034450 208.016475,19.371742 193.500000,24.457378 C 180.592049,28.979491 177.277737,30.207407 174.348871,31.552660 C 172.615750,32.348697 170.504808,33.000000 169.657888,33.000000 C 168.810968,33.000000 167.839919,33.450000 167.500000,34.000000 C 167.160081,34.550000 165.883651,35.000000 164.663489,35.000000 C 163.443327,35.000000 161.332385,35.787500 159.972506,36.750000 C 156.910617,38.917156 151.242318,40.964920 148.250000,40.984944 C 147.012500,40.993225 146.000000,41.450000 146.000000,42.000000 C 146.000000,42.550000 145.350722,43.000000 144.557160,43.000000 C 142.449863,43.000000 136.272378,46.847812 135.610485,48.572676 C 135.298018,49.386954 134.796360,53.528716 134.495692,57.776591 C 134.195023,62.024466 133.771517,67.975000 133.554567,71.000000 C 133.337617,74.025000 132.577098,82.800000 131.864526,90.500000 C 131.151953,98.200000 130.616106,106.975000 130.673754,110.000000 C 130.822560,117.808404 132.096399,126.941544 133.125361,127.577477 C 133.606412,127.874784 134.000000,130.116476 134.000000,132.559017 C 134.000000,135.001558 134.337500,137.000166 134.750000,137.000368 C 135.162500,137.000571 135.596977,139.298258 135.715504,142.106340 C 135.834031,144.914422 136.331392,147.726756 136.820751,148.355972 C 137.310109,148.985187 138.290885,153.662500 139.000254,158.750000 C 139.709622,163.837500 140.674761,168.000000 141.145007,168.000000 C 141.615253,168.000000 142.000000,169.744900 142.000000,171.877555 C 142.000000,177.998559 143.745294,178.522225 150.062544,174.296680 C 153.053145,172.296298 155.650000,170.286206 155.833333,169.829810 C 156.016667,169.373415 156.691667,168.991810 157.333333,168.981801 C 157.975000,168.971791 159.850000,167.870296 161.500000,166.534034 C 163.150000,165.197771 169.225000,160.631577 175.000000,156.386935 C 180.775000,152.142293 185.725000,148.406288 186.000000,148.084702 C 186.551182,147.440148 190.751695,144.449696 197.560464,139.854513 C 200.006641,138.203608 202.000000,136.065238 202.000000,135.092015 C 202.000000,134.120555 194.912500,126.094396 186.250000,117.256106 C 177.587500,108.417816 168.925000,99.568159 167.000000,97.590201 C 165.075000,95.612243 162.712500,93.241549 161.750000,92.321992 C 160.787500,91.402434 160.000000,90.124766 160.000000,89.482729 C 160.000000,88.488468 174.341494,81.000000 176.245647,81.000000 C 176.606895,81.000000 185.173567,76.950000 195.282697,72.000000 C 205.391826,67.050000 214.612214,63.000000 215.772449,63.000000 C 218.449290,63.000000 219.516878,64.672274 218.003881,66.495324 C 216.784428,67.964675 207.268703,73.000000 205.711385,73.000000 C 205.218625,73.000000 203.671294,73.900000 202.272871,75.000000 C 200.874447,76.100000 199.083551,77.000000 198.293100,77.000000 C 197.502650,77.000000 190.813336,79.981978 183.427959,83.626619 C 173.513494,88.519348 170.000000,90.730957 170.000000,92.078999 C 170.000000,93.083169 172.206468,96.063690 174.903262,98.702381 C 198.678671,121.965536 211.000000,134.599908 211.000000,135.716212 C 211.000000,136.445878 209.875000,137.555462 208.500000,138.181954 C 207.125000,138.808446 206.000000,139.698798 206.000000,140.160515 C 206.000000,140.622232 205.437300,141.000000 204.749556,141.000000 C 204.061812,141.000000 201.529941,142.800000 199.123176,145.000000 C 196.716410,147.200000 194.192466,149.000000 193.514409,149.000000 C 192.836353,149.000000 190.236672,150.800000 187.737340,153.000000 C 185.238008,155.200000 182.795154,157.000000 182.308776,157.000000 C 181.822397,157.000000 179.866450,158.331712 177.962226,159.959359 C 176.058002,161.587007 174.165923,162.937007 173.757606,162.959359 C 173.009108,163.000334 169.206977,166.016832 165.828598,169.250000 C 164.822869,170.212500 163.634853,171.000000 163.188561,171.000000 C 162.742270,171.000000 161.469425,171.845649 160.360016,172.879221 C 159.250607,173.912792 156.537617,175.898072 154.331150,177.290954 C 152.124682,178.683836 149.667626,180.425687 148.871026,181.161734 C 147.016444,182.875340 143.288299,185.000000 142.136014,185.000000 C 141.645895,185.000000 140.768899,184.426466 140.187133,183.725481" fill="black" stroke="black" stroke-width="1"/>
</svg>
