<?xml version="1.0" encoding="utf-8" ?>
<svg xmlns="http://www.w3.org/2000/svg" xmlns:ev="http://www.w3.org/2001/xml-events" xmlns:xlink="http://www.w3.org/1999/xlink" baseProfile="full" height="218" version="1.1" width="258">
  <defs/>
  <path d="M 155.747212,187.413879 C 155.336245,187.002912 155.000000,186.312779 155.000000,185.880251 C 155.000000,184.722542 160.780636,182.249338 166.500000,180.960057 C 169.250000,180.340141 172.400000,179.476557 173.500000,179.040981 C 174.600000,178.605404 176.850000,177.699603 178.500000,177.028088 C 180.150000,176.356573 183.525000,175.439971 186.000000,174.991195 C 192.887465,173.742334 210.341193,167.146900 211.766297,165.254598 C 213.134693,163.437596 212.754815,145.720253 210.938448,126.644045 C 210.422302,121.223270 210.000000,111.863424 210.000000,105.844386 C 210.000000,98.294339 209.555137,94.040411 208.565429,92.126525 C 207.243677,89.570538 200.145279,84.000000 198.210002,84.000000 C 197.751918,84.000000 196.480208,83.212500 195.383978,82.250000 C 194.287749,81.287500 192.687604,80.050000 191.828101,79.500000 C 190.968598,78.950000 186.140989,75.687500 181.100081,72.250000 C 176.059173,68.812500 171.524982,66.000000 171.024101,66.000000 C 170.523220,66.000000 169.519855,65.152584 168.794401,64.116854 C 168.068947,63.081123 165.343430,61.231566 162.737697,60.006727 C 160.131964,58.781888 158.000000,57.433898 158.000000,57.011194 C 158.000000,56.588489 156.650000,55.683452 155.000000,55.000000 C 153.350000,54.316548 152.000000,53.392278 152.000000,52.946067 C 152.000000,52.499857 151.102664,51.849972 150.005920,51.501879 C 148.909176,51.153786 147.428660,50.285803 146.715884,49.573027 C 144.509688,47.366831 131.879360,40.000000 130.303064,40.000000 C 129.007249,40.000000 128.899654,42.603029 129.486705,59.750000 C 130.147756,79.058408 130.469642,85.270851 131.546275,99.500000 C 131.837581,103.350000 132.207060,114.406238 132.367338,124.069417 C 132.527616,133.732596 132.987091,142.170096 133.388393,142.819417 C 134.486871,144.596791 133.335007,145.769835 129.738532,146.536387 C 127.957340,146.916031 123.350000,148.232687 119.500000,149.462291 C 115.650000,150.691895 110.475000,152.259149 108.000000,152.945077 C 105.525000,153.631005 102.082823,154.795077 100.350719,155.531902 C 98.618614,156.268727 95.576144,157.176491 93.589673,157.549155 C 91.603203,157.921819 89.731322,158.625713 89.429938,159.113363 C 89.128553,159.601013 87.810081,160.000000 86.500000,160.000000 C 85.189919,160.000000 83.839919,160.450000 83.500000,161.000000 C 82.599180,162.457558 79.299704,162.223399 78.699509,160.659316 C 77.818580,158.363653 79.418358,157.061541 85.056886,155.484835 C 95.974498,152.431933 98.538256,151.579891 100.500000,150.352456 C 101.600000,149.664201 104.422473,148.794231 106.772163,148.419190 C 109.121853,148.044148 111.285911,147.346404 111.581180,146.868648 C 111.876450,146.390891 113.351476,146.000000 114.859017,146.000000 C 116.366558,146.000000 118.035273,145.564727 118.567274,145.032726 C 119.099274,144.500726 121.326774,143.692426 123.517274,143.236504 L 127.500000,142.407555 L 127.500000,128.953777 C 127.500000,121.554200 127.123446,106.950000 126.663213,96.500000 C 124.562126,48.792907 123.859053,38.883144 122.539514,38.376790 C 121.906304,38.133804 117.416728,41.774623 112.562680,46.467499 C 107.708631,51.160374 103.433316,55.000000 103.061979,55.000000 C 102.690642,55.000000 96.968096,60.287500 90.345209,66.750000 C 83.722323,73.212500 75.924368,80.525000 73.016422,83.000000 C 70.108475,85.475000 62.815990,92.337500 56.810899,98.250000 C 50.805808,104.162500 45.522452,109.000000 45.070106,109.000000 C 44.617761,109.000000 43.990226,106.637500 43.675584,103.750000 C 43.360942,100.862500 42.626721,96.475000 42.043982,94.000000 C 41.461243,91.525000 40.727075,87.925000 40.412497,86.000000 C 40.097920,84.075000 39.454322,81.600000 38.982279,80.500000 C 38.099595,78.443085 37.287218,73.878830 36.401472,66.000000 C 36.123231,63.525000 35.502969,60.600000 35.023114,59.500000 C 34.133310,57.460253 33.537471,54.978786 32.021665,47.000000 C 31.551466,44.525000 30.647928,40.700000 30.013803,38.500000 C 27.877280,31.087655 27.760814,29.993128 28.955437,28.553695 C 30.755950,26.384210 32.865303,27.779105 33.944360,31.852823 C 36.190159,40.331293 40.954890,66.288976 41.680797,74.000000 C 41.913791,76.475000 42.483814,79.400000 42.947515,80.500000 C 43.411216,81.600000 44.361999,85.200000 45.060366,88.500000 C 46.513555,95.366773 47.631633,98.000000 49.094098,98.000000 C 49.657150,98.000000 54.028818,94.223646 58.808915,89.608101 C 72.878543,76.022814 84.115207,65.551581 85.439543,64.791529 C 86.118495,64.401870 89.839232,61.026870 93.707846,57.291529 C 97.576461,53.556188 104.512311,47.137252 109.120846,43.027226 C 113.729381,38.917200 118.577766,34.304700 119.895035,32.777226 C 122.735074,29.483983 124.827494,29.289866 128.272871,32.000000 C 129.671294,33.100000 131.531980,34.000000 132.407729,34.000000 C 133.283478,34.000000 134.000000,34.352977 134.000000,34.784392 C 134.000000,35.215808 135.430404,36.453308 137.178675,37.534392 C 144.427160,42.016661 147.028489,43.713241 153.110282,47.924945 C 156.624627,50.358665 159.725000,52.611079 160.000000,52.930309 C 160.275000,53.249539 163.087500,54.840830 166.250000,56.466510 C 169.412500,58.092191 172.000000,59.697512 172.000000,60.033891 C 172.000000,60.370270 174.018486,61.653570 176.485524,62.885668 C 178.952562,64.117767 181.315062,65.660032 181.735524,66.312924 C 182.155986,66.965816 183.400000,67.992243 184.500000,68.593872 C 189.501443,71.329343 191.533769,72.619087 193.334126,74.200141 C 194.398906,75.135219 196.722327,76.589415 198.497284,77.431687 C 200.272241,78.273959 202.291571,79.646396 202.984684,80.481546 C 203.677797,81.316696 204.752289,82.014221 205.372445,82.031601 C 206.863261,82.073383 211.502577,86.202039 212.815626,88.655495 C 213.388263,89.725476 214.088383,95.528209 214.371449,101.550457 C 214.654515,107.572706 215.147596,116.100000 215.467184,120.500000 C 216.163360,130.084750 216.980932,148.108532 217.281613,160.500000 L 217.500000,169.500000 L 213.000000,170.827215 C 210.525000,171.557184 207.600000,172.548918 206.500000,173.031069 C 205.400000,173.513220 202.475000,174.454333 200.000000,175.122432 C 197.525000,175.790530 195.072500,176.711296 194.550000,177.168578 C 194.027500,177.625860 192.677500,178.006775 191.550000,178.015056 C 189.268966,178.031810 182.418292,180.248375 181.352005,181.314662 C 180.975069,181.691598 179.637841,182.000000 178.380386,182.000000 C 176.093335,182.000000 170.942122,183.900266 170.000000,185.091498 C 169.534825,185.679671 166.934853,186.307584 159.497212,187.628001 C 157.845679,187.921200 156.158179,187.824845 155.747212,187.413879" fill="black" stroke="black" stroke-width="1"/>
</svg>
