<?xml version="1.0" encoding="utf-8" ?>
<svg xmlns="http://www.w3.org/2000/svg" xmlns:ev="http://www.w3.org/2001/xml-events" xmlns:xlink="http://www.w3.org/1999/xlink" baseProfile="full" height="221" version="1.1" width="260">
  <defs/>
  <path d="M 108.500000,166.834363 C 107.400000,165.755299 102.900000,162.552292 98.500000,159.716570 C 94.100000,156.880847 89.627647,153.759551 88.561439,152.780355 C 87.495230,151.801160 86.285073,151.000000 85.872202,151.000000 C 85.282062,151.000000 73.977082,143.353989 68.499102,139.249875 C 61.518349,134.019881 59.988386,133.000000 59.123426,133.000000 C 58.567916,133.000000 57.525391,132.171415 56.806704,131.158699 C 56.088017,130.145984 54.375000,128.724764 53.000000,128.000433 C 51.625000,127.276102 48.604760,125.292187 46.288356,123.591734 C 43.971951,121.891280 38.930019,118.250000 35.084062,115.500000 C 31.238105,112.750000 27.657208,109.375000 27.126514,108.000000 C 26.595820,106.625000 25.893937,93.350000 25.566775,78.500000 C 25.239613,63.650000 24.693786,44.033463 24.353825,34.907696 C 23.807529,20.243110 23.921978,18.243917 25.338919,17.700186 C 29.023494,16.286282 29.867874,19.354598 30.033371,34.758929 C 30.279810,57.697247 30.706684,74.089760 31.516030,91.694916 L 32.260543,107.889831 L 37.380272,111.405006 C 40.196122,113.338353 45.049368,116.850641 48.165262,119.210091 C 55.010952,124.393855 61.591562,129.138039 63.842212,130.512132 C 68.676421,133.463571 71.953129,135.779872 76.138780,139.204561 C 78.690110,141.292053 81.192757,143.000000 81.700219,143.000000 C 82.207681,143.000000 83.537562,143.852159 84.655511,144.893687 C 85.773460,145.935214 88.220812,147.566252 90.094073,148.518215 C 91.967333,149.470177 95.375734,151.768018 97.668297,153.624528 C 99.960860,155.481038 102.381320,157.000000 103.047096,157.000000 C 103.712872,157.000000 106.017864,158.590294 108.169299,160.533987 C 110.320735,162.477679 112.565384,163.768607 113.157409,163.402716 C 114.286259,162.705048 113.732151,102.702027 112.389521,80.250000 L 111.716772,69.000000 L 114.858386,69.000000 L 118.000000,69.000000 L 118.012712,87.250000 C 118.045738,134.663740 118.560796,160.543470 119.484543,161.203972 C 120.026041,161.591157 121.376041,161.092663 122.484543,160.096207 C 123.593044,159.099752 126.975000,156.982964 130.000000,155.392235 C 133.025000,153.801506 136.295096,151.784476 137.266879,150.909946 C 138.238663,150.035416 140.263663,148.708021 141.766879,147.960180 C 143.270096,147.212338 147.747186,144.440362 151.715969,141.800234 C 155.684752,139.160105 159.203673,137.000000 159.535794,137.000000 C 159.867914,137.000000 162.101807,135.650000 164.500000,134.000000 C 166.898193,132.350000 169.141121,131.000000 169.484285,131.000000 C 169.827448,131.000000 174.696370,128.131251 180.304109,124.625002 C 185.911849,121.118754 192.343760,117.319676 194.597245,116.182608 C 202.292107,112.299919 202.000000,114.253080 202.000000,66.684407 C 202.000000,38.081826 202.362726,23.257931 203.115436,21.098704 C 204.181545,18.040463 204.314248,17.974415 206.116217,19.605175 C 207.925373,21.242439 207.981981,23.187015 207.517016,67.724917 C 207.250516,93.252357 206.781049,114.545253 206.473757,115.042462 C 206.166464,115.539672 204.246658,116.722576 202.207522,117.671137 C 200.168385,118.619698 198.275000,119.664334 198.000000,119.992550 C 197.006637,121.178143 189.856202,125.000000 188.631401,125.000000 C 187.941548,125.000000 186.455560,125.858566 185.329206,126.907924 C 184.202852,127.957283 181.354709,129.798717 179.000000,131.000000 C 176.645291,132.201283 173.797148,134.042717 172.670794,135.092076 C 171.544440,136.141434 170.032730,137.000000 169.311439,137.000000 C 168.590147,137.000000 168.000000,137.450000 168.000000,138.000000 C 168.000000,138.550000 167.409853,139.000000 166.688561,139.000000 C 165.967270,139.000000 164.411086,139.900000 163.230375,141.000000 C 162.049663,142.100000 160.595995,143.000000 160.000000,143.000000 C 159.404005,143.000000 157.950337,143.900000 156.769625,145.000000 C 155.588914,146.100000 154.032730,147.000000 153.311439,147.000000 C 152.590147,147.000000 152.000000,147.395406 152.000000,147.878680 C 152.000000,148.361953 150.537500,149.348028 148.750000,150.069956 C 146.962500,150.791884 145.140139,151.971478 144.700310,152.691276 C 144.260480,153.411074 143.315498,154.000000 142.600348,154.000000 C 141.885199,154.000000 139.536607,155.277451 137.381255,156.838780 C 135.225903,158.400109 131.445886,160.811486 128.981217,162.197396 C 126.516548,163.583306 122.798813,165.680855 120.719584,166.858616 C 116.106333,169.471752 111.178591,169.461971 108.500000,166.834363" fill="black" stroke="black" stroke-width="1"/>
</svg>
