<?xml version="1.0" encoding="utf-8" ?>
<svg xmlns="http://www.w3.org/2000/svg" xmlns:ev="http://www.w3.org/2001/xml-events" xmlns:xlink="http://www.w3.org/1999/xlink" baseProfile="full" height="220" version="1.1" width="258">
  <defs/>
  <path d="M 104.388216,175.569291 C 103.020311,172.004588 106.504308,171.280449 126.426986,170.988595 C 136.917144,170.834921 148.200000,170.548086 151.500000,170.351183 C 154.800000,170.154281 162.900000,169.795023 169.500000,169.552834 C 176.100000,169.310644 184.696769,168.849370 188.603932,168.527780 C 194.344050,168.055324 195.958146,168.244643 197.011550,169.513917 C 199.298848,172.269942 196.631172,173.233686 185.826036,173.554874 C 180.146716,173.723695 170.325000,174.125300 164.000000,174.447329 C 157.675000,174.769359 147.100000,175.236536 140.500000,175.485501 C 133.900000,175.734465 123.218638,176.229878 116.763641,176.586417 C 106.365049,177.160780 104.954438,177.044843 104.388216,175.569291" fill="none" stroke="black" stroke-width="5"/>
  <path d="M 58.549722,146.080452 C 58.237150,145.574700 58.206987,122.062200 58.482691,93.830452 C 58.758396,65.598703 58.987579,41.037500 58.991987,39.250000 C 58.998052,36.790005 59.437541,36.000000 60.800000,36.000000 C 61.790000,36.000000 63.070979,36.470979 63.646621,37.046621 C 64.949925,38.349925 64.211095,141.035149 62.888233,142.450000 C 62.399705,142.972500 62.000000,144.210000 62.000000,145.200000 C 62.000000,147.067229 59.546526,147.693314 58.549722,146.080452" fill="none" stroke="black" stroke-width="5"/>
  <path d="M 179.462960,141.250000 C 177.987705,138.087500 176.212589,134.150000 175.518259,132.500000 C 174.823929,130.850000 173.022107,126.575000 171.514212,123.000000 C 170.006316,119.425000 168.148752,115.503332 167.386292,114.285183 C 166.623831,113.067034 166.000000,111.599630 166.000000,111.024285 C 166.000000,110.448940 165.047639,107.845607 163.883641,105.239102 C 162.719644,102.632596 161.090755,98.925000 160.263888,97.000000 C 159.437021,95.075000 157.670573,91.288079 156.338449,88.584620 C 153.161373,82.136955 152.195157,75.522825 154.311687,74.710636 C 156.354196,73.926852 157.460774,75.430191 159.541000,81.814905 C 160.493417,84.738103 161.773817,87.663103 162.386334,88.314905 C 162.998850,88.966707 164.119893,91.300000 164.877541,93.500000 C 165.635189,95.700000 167.128184,99.300000 168.195309,101.500000 C 169.262435,103.700000 171.252107,108.425000 172.616805,112.000000 C 173.981502,115.575000 176.148295,120.750000 177.431901,123.500000 C 181.916050,133.106853 184.000000,137.985022 184.000000,138.874795 C 184.000000,139.367920 184.651970,141.028059 185.448822,142.563993 C 187.101666,145.749853 186.697196,147.000000 184.013604,147.000000 C 182.716733,147.000000 181.324792,145.241203 179.462960,141.250000" fill="none" stroke="black" stroke-width="5"/>
  <path d="M 100.754296,75.750000 C 100.129394,74.050718 100.932427,72.000000 102.222744,72.000000 C 102.803587,72.000000 106.253587,69.617030 109.889411,66.704511 C 113.525235,63.791992 118.075000,60.319303 120.000000,58.987424 C 121.925000,57.655545 124.101452,55.981706 124.836559,55.267782 C 125.571667,54.553858 127.821667,52.739047 129.836559,51.234869 C 131.851452,49.730691 134.101452,47.930691 134.836559,47.234869 C 135.571667,46.539047 137.821667,44.741608 139.836559,43.240558 C 141.851452,41.739509 143.725000,40.238685 144.000000,39.905393 C 144.275000,39.572101 145.625000,38.710048 147.000000,37.989718 C 149.532234,36.663142 155.190523,32.172877 161.793495,26.250000 C 163.786245,24.462500 165.960425,23.000000 166.625005,23.000000 C 167.289586,23.000000 168.010320,22.469040 168.226637,21.820090 C 168.854934,19.935199 172.000000,21.725976 172.000000,23.968615 C 172.000000,25.085877 171.547024,26.000000 170.993387,26.000000 C 170.439749,26.000000 169.008598,27.125000 167.813051,28.500000 C 166.617504,29.875000 165.274374,31.000000 164.828318,31.000000 C 163.897978,31.000000 151.906469,39.843685 147.540079,43.750000 C 146.771607,44.437500 145.886758,45.000000 145.573748,45.000000 C 145.260738,45.000000 143.375032,46.537092 141.383291,48.415761 C 139.391549,50.294429 135.230954,53.556929 132.137524,55.665761 C 129.044093,57.774592 125.457654,60.737500 124.167659,62.250000 C 122.877663,63.762500 120.987732,65.000000 119.967810,65.000000 C 118.947889,65.000000 117.525391,65.805915 116.806704,66.790922 C 116.088017,67.775929 113.925000,69.676198 112.000000,71.013743 C 110.075000,72.351288 107.627647,74.245373 106.561439,75.222821 C 104.309236,77.287531 101.416295,77.550156 100.754296,75.750000" fill="none" stroke="black" stroke-width="5"/>
</svg>
