<?xml version="1.0" encoding="utf-8" ?>
<svg xmlns="http://www.w3.org/2000/svg" xmlns:ev="http://www.w3.org/2001/xml-events" xmlns:xlink="http://www.w3.org/1999/xlink" baseProfile="full" height="219" version="1.1" width="257">
  <defs/>
  <path d="M 161.750000,151.406591 C 160.237500,148.914985 159.000000,146.454209 159.000000,145.938199 C 159.000000,145.422190 158.550000,145.000000 158.000000,145.000000 C 157.450000,145.000000 156.998944,144.437500 156.997654,143.750000 C 156.996363,143.062500 155.647419,140.925000 154.000000,139.000000 C 152.352581,137.075000 151.003637,134.975000 151.002346,134.333333 C 151.001056,133.691667 150.662500,133.016667 150.250000,132.833333 C 149.124839,132.333262 143.000000,123.324699 143.000000,122.169856 C 143.000000,121.618102 142.662500,121.016667 142.250000,120.833333 C 141.489887,120.495505 133.834556,109.338797 133.101148,107.500000 C 132.881779,106.950000 131.600013,105.175366 130.252779,103.556370 C 128.905545,101.937373 127.408666,99.574873 126.926382,98.306370 C 126.444098,97.037866 125.475864,96.027854 124.774751,96.061898 C 123.423637,96.127503 117.000000,104.353829 117.000000,106.018505 C 117.000000,106.558327 116.604724,107.000000 116.121610,107.000000 C 115.638495,107.000000 113.275995,109.587500 110.871610,112.750000 C 108.467224,115.912500 105.937500,119.094643 105.250000,119.821429 C 104.562500,120.548214 103.992971,121.448214 103.984380,121.821429 C 103.975788,122.194643 102.182818,124.525000 100.000000,127.000000 C 97.817182,129.475000 96.024212,131.787812 96.015620,132.139582 C 96.007029,132.491351 94.435441,134.516351 92.523203,136.639582 C 90.610964,138.762812 89.035964,140.981349 89.023203,141.569665 C 89.010441,142.157980 87.987500,143.569604 86.750000,144.706607 C 85.512500,145.843611 83.600000,147.928953 82.500000,149.340702 C 80.227394,152.257383 78.208699,152.707435 77.356770,150.487344 C 76.891767,149.275565 83.178043,139.537645 86.063472,137.000000 C 86.376161,136.725000 88.086416,134.362500 89.864039,131.750000 C 91.641662,129.137500 93.411963,126.996925 93.798041,126.993167 C 94.184118,126.989409 95.624409,125.301909 96.998687,123.243167 C 98.372965,121.184425 100.038982,118.926840 100.700947,118.226312 C 101.362911,117.525783 104.017385,114.263283 106.599776,110.976312 C 109.182167,107.689340 111.678651,105.000000 112.147517,105.000000 C 112.616382,105.000000 113.000000,104.409853 113.000000,103.688561 C 113.000000,102.967270 113.801117,101.504770 114.780259,100.438561 C 118.466351,96.424699 122.175737,91.032171 121.844086,90.169509 C 121.654838,89.677256 120.504472,87.975241 119.287716,86.387252 C 118.070959,84.799263 111.128312,74.507656 103.859611,63.517014 C 96.590910,52.526371 89.823938,42.654018 88.821895,41.578452 C 87.819853,40.502886 87.000000,39.032730 87.000000,38.311439 C 87.000000,37.590147 86.550000,37.000000 86.000000,37.000000 C 85.450000,37.000000 85.000000,36.380100 85.000000,35.622445 C 85.000000,34.864789 84.319451,33.680084 83.487669,32.989766 C 82.337365,32.035099 82.246984,31.407328 83.110114,30.367321 C 84.760934,28.378205 86.227420,28.761906 88.606113,31.805329 C 90.766496,34.569434 110.114647,63.540649 115.783664,72.500000 C 117.523722,75.250000 119.300273,77.950000 119.731555,78.500000 C 120.162836,79.050000 121.310044,80.737500 122.280905,82.250000 C 124.512694,85.726895 126.290045,85.726895 128.958306,82.250000 C 130.119038,80.737500 132.965765,77.083970 135.284364,74.131044 C 137.602964,71.178118 141.302201,66.228118 143.504891,63.131044 C 149.953347,54.064247 153.447385,49.523385 154.250000,49.166667 C 154.662500,48.983333 155.000550,48.308333 155.001221,47.666667 C 155.001893,47.025000 156.126893,45.192507 157.501221,43.594461 C 158.875550,41.996414 160.007188,40.421414 160.015973,40.094461 C 160.024758,39.767507 161.374758,37.976521 163.015973,36.114491 C 164.657188,34.252461 166.000000,32.447863 166.000000,32.104273 C 166.000000,31.760683 167.045774,30.351743 168.323943,28.973295 C 169.602112,27.594847 171.453866,25.236946 172.438953,23.733513 C 174.561814,20.493619 177.000000,20.147786 177.000000,23.086573 C 177.000000,25.104987 168.145719,38.951601 164.905722,42.000000 C 162.534314,44.231175 153.000000,56.835046 153.000000,57.738751 C 153.000000,58.168678 151.762500,59.834625 150.250000,61.440855 C 148.737500,63.047085 146.375000,66.013415 145.000000,68.032700 C 143.625000,70.051984 141.251541,73.233198 139.725647,75.102063 C 134.075078,82.022697 129.000000,89.400450 129.000000,90.694175 C 129.000000,92.089811 130.792909,95.611756 132.500000,97.569484 C 133.050000,98.200236 134.625000,100.644973 136.000000,103.002234 C 137.375000,105.359494 139.512500,108.368780 140.750000,109.689536 C 141.987500,111.010291 143.000000,112.741641 143.000000,113.536981 C 143.000000,114.332320 143.900000,115.545112 145.000000,116.232073 C 146.100000,116.919034 147.000000,118.000258 147.000000,118.634792 C 147.000000,119.269325 148.394093,121.280871 150.097985,123.104893 C 151.801876,124.928915 153.366335,127.305932 153.574559,128.387153 C 153.782783,129.468375 154.302465,130.611083 154.729407,130.926505 C 157.880523,133.254530 169.318849,152.726709 168.614092,154.563276 C 167.547621,157.342456 164.503471,155.942500 161.750000,151.406591" fill="none" stroke="black" stroke-width="5"/>
</svg>
