<?xml version="1.0" encoding="utf-8" ?>
<svg xmlns="http://www.w3.org/2000/svg" xmlns:ev="http://www.w3.org/2001/xml-events" xmlns:xlink="http://www.w3.org/1999/xlink" baseProfile="full" height="216" version="1.1" width="256">
  <defs/>
  <path d="M 64.724865,181.250000 C 64.324650,180.486558 62.939941,173.904332 61.095966,164.000000 C 60.532776,160.975000 59.814691,156.025000 59.500222,153.000000 C 59.185753,149.975000 58.496012,144.800000 57.967463,141.500000 C 57.438914,138.200000 56.581038,131.900000 56.061071,127.500000 C 55.541104,123.100000 54.625155,115.900000 54.025628,111.500000 C 52.559179,100.737566 51.921526,95.307668 51.539865,90.332625 C 51.364029,88.040568 50.980745,85.777861 50.688122,85.304387 C 50.152875,84.438340 48.161063,70.998015 47.447403,63.436706 C 47.236474,61.201894 46.381171,56.476894 45.546729,52.936706 C 43.819366,45.608224 43.557593,39.391457 44.940387,38.536843 C 45.457599,38.217188 46.755706,38.894782 47.825067,40.042607 C 49.239544,41.560870 50.088857,44.768767 50.941831,51.814781 C 51.586689,57.141651 52.813517,65.325000 53.668114,70.000000 C 54.522711,74.675000 55.405746,81.411253 55.630414,84.969450 C 55.855081,88.527648 56.480148,91.880148 57.019450,92.419450 C 57.558753,92.958753 58.000000,94.885000 58.000000,96.700000 L 58.000000,100.000000 L 64.950779,100.000000 C 68.773707,100.000000 74.061207,99.563606 76.700779,99.030235 C 79.340351,98.496864 84.875000,97.835511 89.000000,97.560560 C 93.125000,97.285610 100.550000,96.585803 105.500000,96.005434 C 110.450000,95.425065 119.450000,94.508678 125.500000,93.969019 C 131.550000,93.429360 141.000000,92.531204 146.500000,91.973117 C 152.000000,91.415030 161.000000,90.530427 166.500000,90.007332 C 172.000000,89.484238 180.325000,88.577752 185.000000,87.992918 C 189.675000,87.408085 195.646884,86.662273 198.270853,86.335559 C 200.894823,86.008845 203.258775,85.390310 203.524080,84.961037 C 203.988256,84.209985 203.550674,81.505773 200.860442,68.500000 C 200.177840,65.200000 199.558844,61.375000 199.484896,60.000000 C 199.328382,57.089782 198.570415,51.635985 196.253064,36.746013 C 194.785592,27.316881 194.759306,25.812178 196.039701,24.532177 C 198.885498,21.687256 202.000000,27.150873 202.000000,34.988036 C 202.000000,37.679698 202.450000,40.160081 203.000000,40.500000 C 203.550000,40.839919 204.000000,42.632146 204.000000,44.482727 C 204.000000,46.333308 204.427369,50.019250 204.949709,52.673710 C 205.472049,55.328169 206.854521,64.475000 208.021870,73.000000 C 209.189218,81.525000 210.777860,92.464467 211.552185,97.309927 C 212.326510,102.155387 212.897596,106.430387 212.821266,106.809927 C 212.744935,107.189467 212.946603,108.175000 213.269417,109.000000 C 213.592231,109.825000 214.130833,113.200000 214.466311,116.500000 C 215.475826,126.430332 215.710714,128.209047 216.975349,135.500000 C 217.643141,139.350000 218.322543,143.850000 218.485131,145.500000 C 218.647719,147.150000 218.871729,148.500000 218.982930,148.500000 C 219.094132,148.500000 219.327225,151.117448 219.500915,154.316552 C 219.740739,158.733764 219.461722,160.269326 218.341139,160.699334 C 215.922042,161.627629 214.647480,159.367339 213.859763,152.752122 C 213.450298,149.313455 212.597665,143.575000 211.965023,140.000000 C 210.073693,129.312271 209.286260,124.212802 207.178170,109.000000 C 206.073048,101.025000 204.850333,93.693254 204.461028,92.707232 C 203.715741,90.819591 202.759293,90.834614 189.500000,92.942214 C 186.750000,93.379334 181.800000,93.822954 178.500000,93.928036 C 175.200000,94.033117 167.550000,94.809428 161.500000,95.653169 C 155.450000,96.496911 147.800000,97.362057 144.500000,97.575716 C 141.200000,97.789375 135.575000,98.203249 132.000000,98.495435 C 128.425000,98.787621 121.900000,99.246169 117.500000,99.514430 C 113.100000,99.782690 108.825000,100.273414 108.000000,100.604928 C 107.175000,100.936442 102.000000,101.593610 96.500000,102.065303 C 91.000000,102.536996 83.125000,103.439138 79.000000,104.070064 C 74.875000,104.700989 68.934945,105.280831 65.799878,105.358601 C 59.156315,105.523403 56.903916,107.015244 58.775041,110.011391 C 59.448768,111.090200 60.000000,113.527411 60.000000,115.427414 C 60.000000,117.327418 60.386100,119.120589 60.858001,119.412240 C 61.329901,119.703890 61.754019,122.623741 61.800484,125.900797 C 61.846949,129.177853 62.344055,133.578288 62.905163,135.679540 C 63.466271,137.780793 64.145716,141.750000 64.415040,144.500000 C 64.684365,147.250000 65.393497,152.875000 65.990889,157.000000 C 68.207780,172.307664 69.012676,180.170472 68.455141,181.072583 C 67.767520,182.185178 65.277200,182.303621 64.724865,181.250000" fill="black" stroke="black" stroke-width="1"/>
</svg>
