<?xml version="1.0" encoding="utf-8" ?>
<svg xmlns="http://www.w3.org/2000/svg" xmlns:ev="http://www.w3.org/2001/xml-events" xmlns:xlink="http://www.w3.org/1999/xlink" baseProfile="full" height="219" version="1.1" width="255">
  <defs/>
  <path d="M 100.701825,166.861071 C 99.048059,165.928162 98.958999,164.673962 99.592853,151.243849 C 100.417254,133.776418 100.347804,137.772828 100.157534,118.750000 L 100.000000,103.000000 L 67.500000,103.000000 C 38.981748,103.000000 35.000000,102.812382 35.000000,101.468615 C 35.000000,100.626354 35.562500,99.752714 36.250000,99.527193 C 36.937500,99.301673 49.876067,98.902941 65.002371,98.641121 C 80.128675,98.379302 92.953675,98.056500 93.502371,97.923784 C 94.051067,97.791069 95.317748,98.038676 96.317217,98.474024 C 97.316687,98.909372 98.542924,98.857076 99.042188,98.357812 C 99.541452,97.858548 100.086454,82.627168 100.253303,64.510301 L 100.556666,31.570543 L 106.515292,30.376905 C 110.517781,29.575122 113.078355,29.506750 114.315100,30.168637 C 115.327750,30.710590 116.908618,30.852668 117.828141,30.484365 C 119.739252,29.718894 125.286302,29.284733 143.000000,28.514194 C 149.875000,28.215134 158.468242,27.735039 162.096094,27.447316 C 167.203873,27.042220 168.971975,27.261306 169.932184,28.418286 C 172.958771,32.065101 169.384399,32.772901 144.000000,33.553396 C 122.232007,34.222698 113.263061,34.550714 109.821956,34.803370 C 107.359992,34.984135 107.100279,35.423599 106.603132,40.250000 C 106.305703,43.137500 105.877295,57.077192 105.651113,71.227094 C 105.304242,92.927369 105.468593,97.144008 106.701139,98.166930 C 107.721080,99.013406 108.666404,99.074950 109.831201,98.370710 C 110.810242,97.778779 122.147671,97.264960 137.260934,97.127580 C 160.224543,96.918839 163.089393,97.069379 163.643716,98.513923 C 163.985733,99.405204 163.809076,100.590924 163.251145,101.148855 C 162.637003,101.762997 151.049446,102.354717 133.884888,102.648445 C 118.291377,102.915289 105.462132,103.216052 105.375453,103.316808 C 105.288775,103.417564 105.040113,117.556225 104.822872,134.736056 C 104.593315,152.889856 104.024170,166.370688 103.463944,166.923777 C 102.853760,167.526188 101.840083,167.503176 100.701825,166.861071" fill="black" stroke="black" stroke-width="1"/>
</svg>
