<?xml version="1.0" encoding="utf-8" ?>
<svg xmlns="http://www.w3.org/2000/svg" xmlns:ev="http://www.w3.org/2001/xml-events" xmlns:xlink="http://www.w3.org/1999/xlink" baseProfile="full" height="219" version="1.1" width="256">
  <defs/>
  <path d="M 85.250000,192.316321 C 83.697824,191.716576 83.572919,174.555460 84.978399,155.000000 C 85.512044,147.575000 86.201567,136.100000 86.510671,129.500000 C 87.147383,115.904905 88.052858,109.808301 89.503614,109.348385 C 91.648588,108.668388 93.182211,110.882769 93.151625,114.615707 C 93.110208,119.670510 91.181514,160.033669 90.457386,171.000000 C 90.148686,175.675000 89.937798,181.565035 89.988747,184.088966 C 90.086673,188.940118 87.615599,193.230365 85.250000,192.316321" fill="none" stroke="black" stroke-width="5"/>
  <path d="M 146.106453,171.613314 C 144.947904,170.380095 144.000000,168.793748 144.000000,168.088098 C 144.000000,166.957264 138.929444,156.005698 128.680269,135.000000 C 126.935942,131.425000 125.169293,128.350000 124.754383,128.166667 C 124.339472,127.983333 124.000000,127.188847 124.000000,126.401142 C 124.000000,125.219734 118.691921,113.717658 114.937481,106.763569 C 114.421866,105.808532 114.000000,103.671032 114.000000,102.013569 C 114.000000,99.711614 114.452046,99.000000 115.914343,99.000000 C 117.325398,99.000000 118.869917,101.168955 121.789192,107.250000 C 123.967471,111.787500 126.353614,117.207407 127.091734,119.294237 C 127.829854,121.381067 129.236171,123.949751 130.216885,125.002424 C 131.197598,126.055096 132.000000,127.438031 132.000000,128.075612 C 132.000000,128.713193 135.550121,136.494509 139.889158,145.367425 C 147.971580,161.895208 151.000000,168.994371 151.000000,171.413248 C 151.000000,173.820824 148.284595,173.931840 146.106453,171.613314" fill="none" stroke="black" stroke-width="5"/>
  <path d="M 35.240539,117.338358 C 35.530709,115.227261 36.928027,110.979082 38.345691,107.897959 C 39.763356,104.816837 41.641492,100.091837 42.519328,97.397959 C 43.397164,94.704082 44.374662,91.825000 44.691545,91.000000 C 46.757361,85.621679 51.728479,71.906816 54.881983,62.885508 C 56.922714,57.047537 59.359113,51.100870 60.296202,49.670691 C 61.233291,48.240513 62.000000,46.136607 62.000000,44.995345 C 62.000000,43.854083 62.900000,41.156178 64.000000,39.000000 C 65.100000,36.843822 66.000000,34.386749 66.000000,33.539838 C 66.000000,32.495574 66.965505,32.000000 69.000000,32.000000 C 71.537652,32.000000 72.000000,32.387381 72.000000,34.513569 C 72.000000,35.896032 71.550000,37.921032 71.000000,39.013569 C 70.450000,40.106106 69.550000,41.893894 69.000000,42.986431 C 68.450000,44.078968 68.000000,45.653968 68.000000,46.486431 C 68.000000,47.318894 67.580324,48.000000 67.067388,48.000000 C 65.950184,48.000000 65.003039,50.748756 64.382666,55.791464 C 64.131734,57.831159 63.492981,59.650000 62.963214,59.833333 C 62.433446,60.016667 61.989994,61.141667 61.977764,62.333333 C 61.965534,63.525000 61.075541,65.625000 60.000000,67.000000 C 58.924459,68.375000 58.034466,70.710942 58.022236,72.190983 C 58.010006,73.671024 57.595216,75.132136 57.100480,75.437900 C 56.605745,75.743663 55.660861,78.245221 55.000740,80.996917 C 54.340618,83.748613 53.395402,86.000000 52.900259,86.000000 C 52.405117,86.000000 52.000000,86.900000 52.000000,88.000000 C 52.000000,89.100000 51.550000,90.000000 51.000000,90.000000 C 50.450000,90.000000 50.000000,90.900000 50.000000,92.000000 C 50.000000,93.100000 49.493750,94.000000 48.875000,94.000000 C 48.165819,94.000000 47.965323,95.076614 48.332556,96.912781 C 48.717223,98.836116 48.419994,100.236473 47.457556,101.035225 C 46.655900,101.700541 46.000000,103.513232 46.000000,105.063428 C 46.000000,106.613624 45.550000,108.160081 45.000000,108.500000 C 44.450000,108.839919 44.000000,110.178976 44.000000,111.475684 C 44.000000,112.772391 43.619881,113.983333 43.155291,114.166667 C 42.690702,114.350000 41.673987,115.850000 40.895925,117.500000 C 40.018300,119.361137 38.576192,120.628448 37.097113,120.838358 C 34.867109,121.154840 34.747070,120.928544 35.240539,117.338358" fill="none" stroke="black" stroke-width="5"/>
  <path d="M 201.500000,101.503043 C 177.329455,98.366874 172.759567,97.818297 160.000000,96.521313 C 139.838113,94.471898 136.159982,93.859289 135.623526,92.461308 C 134.780514,90.264454 138.553092,87.744718 141.682838,88.414244 C 143.232277,88.745706 147.875000,89.459293 152.000000,89.999993 C 156.125000,90.540693 164.450000,91.658152 170.500000,92.483235 C 176.550000,93.308319 183.337500,93.987125 185.583333,93.991693 C 187.829167,93.996262 189.932688,94.266021 190.257825,94.591158 C 190.582962,94.916295 193.470462,95.371214 196.674492,95.602089 C 199.878521,95.832963 204.300000,96.216015 206.500000,96.453314 C 208.700000,96.690614 211.707176,96.910695 213.182612,96.942384 C 214.988859,96.981178 216.080409,97.677986 216.523918,99.075361 C 216.886200,100.216809 217.028102,101.305231 216.839256,101.494077 C 215.698113,102.635221 210.250271,102.638405 201.500000,101.503043" fill="none" stroke="black" stroke-width="5"/>
  <path d="M 114.151607,55.143176 C 111.693482,53.533773 113.290589,50.575630 117.010765,49.847476 C 118.929844,49.471853 123.650000,48.442825 127.500000,47.560747 C 131.350000,46.678668 137.875000,45.266505 142.000000,44.422605 C 146.125000,43.578705 151.975000,42.272460 155.000000,41.519839 C 158.025000,40.767217 163.875000,39.622675 168.000000,38.976412 C 172.125000,38.330148 176.400000,37.429971 177.500000,36.976018 C 179.824869,36.016581 183.335822,35.233063 191.000000,33.963303 C 194.025000,33.462138 198.380637,32.656622 200.679193,32.173269 C 205.132692,31.236762 207.721939,32.022861 206.530976,33.949880 C 205.319794,35.909613 198.488805,38.072492 184.500000,40.925492 C 181.200000,41.598523 176.758041,42.655618 174.628979,43.274592 C 172.499918,43.893567 169.237418,44.400000 167.378979,44.400000 C 165.520541,44.400000 164.000000,44.674537 164.000000,45.010083 C 164.000000,45.345628 158.937500,46.434120 152.750000,47.428953 C 146.562500,48.423786 139.475000,49.897856 137.000000,50.704663 C 134.525000,51.511471 129.575000,52.776818 126.000000,53.516546 C 122.425000,54.256274 118.600000,55.123518 117.500000,55.443756 C 116.400000,55.763994 114.893223,55.628733 114.151607,55.143176" fill="none" stroke="black" stroke-width="5"/>
</svg>
