<?xml version="1.0" encoding="utf-8" ?>
<svg xmlns="http://www.w3.org/2000/svg" xmlns:ev="http://www.w3.org/2001/xml-events" xmlns:xlink="http://www.w3.org/1999/xlink" baseProfile="full" height="217" version="1.1" width="257">
  <defs/>
  <path d="M 119.386140,184.885399 C 117.904367,182.990740 116.102707,163.997724 115.460360,143.500000 C 115.167354,134.150000 114.743023,122.450000 114.517401,117.500000 C 114.291779,112.550000 113.850811,101.300000 113.537472,92.500000 C 112.936522,75.622598 112.185614,64.852281 111.566720,64.233386 C 111.362395,64.029062 99.788796,63.938192 85.847610,64.031452 C 39.512965,64.341411 37.912149,64.312149 36.733676,63.133676 C 33.633637,60.033637 34.206730,60.004625 127.000000,58.564176 C 146.525000,58.261085 167.450000,57.709453 173.500000,57.338327 C 188.200457,56.436554 198.199835,56.841359 199.800188,58.403038 C 202.818360,61.348271 198.549476,61.815928 162.500000,62.489285 C 142.700000,62.859123 124.475000,63.237832 122.000000,63.330859 L 117.500000,63.500000 L 117.852858,73.500000 C 118.046930,79.000000 118.400851,83.821097 118.639348,84.213550 C 118.877845,84.606002 119.506287,98.106002 120.035886,114.213550 C 120.565485,130.321097 121.149929,146.425000 121.334649,150.000000 C 121.519370,153.575000 121.744641,161.787500 121.835253,168.250000 L 122.000000,180.000000 L 137.316341,180.000000 C 145.740328,180.000000 155.077828,179.582421 158.066341,179.072048 C 167.104022,177.528606 195.776703,177.026017 196.909689,178.391182 C 197.446438,179.037924 197.573836,180.050062 197.192798,180.640376 C 196.507825,181.701553 191.141081,182.146282 157.000000,183.971055 C 147.375000,184.485493 135.218167,185.213386 129.984816,185.588597 C 122.447710,186.128977 120.244388,185.982792 119.386140,184.885399" fill="black" stroke="black" stroke-width="1"/>
</svg>
