<?xml version="1.0" encoding="utf-8" ?>
<svg xmlns="http://www.w3.org/2000/svg" xmlns:ev="http://www.w3.org/2001/xml-events" xmlns:xlink="http://www.w3.org/1999/xlink" baseProfile="full" height="217" version="1.1" width="257">
  <defs/>
  <path d="M 125.446149,170.912868 C 125.076613,170.314945 125.183829,169.416171 125.684407,168.915593 C 126.726322,167.873678 122.752630,136.881174 119.989678,124.500000 C 119.111913,120.566614 117.790482,111.179202 117.071149,103.766846 C 117.032017,103.363611 114.659918,101.847882 111.799817,100.398560 C 107.005665,97.969179 99.180840,93.212302 98.000000,92.009359 C 96.805936,90.792944 91.217612,87.165279 88.000000,85.517850 C 86.075000,84.532243 81.228818,81.537524 77.230706,78.862919 C 73.232594,76.188313 69.557594,74.000000 69.064039,74.000000 C 68.570484,74.000000 68.016667,73.662500 67.833333,73.250000 C 67.469133,72.430549 57.516778,66.275898 52.117299,63.531022 C 47.862159,61.367883 46.769944,62.701637 48.600090,67.826049 C 49.321758,69.846722 49.931966,73.835942 49.956107,76.690983 C 49.980248,79.546024 50.383970,82.119272 50.853266,82.409314 C 51.901933,83.057425 53.226256,95.550106 53.466227,107.058035 C 53.564379,111.764955 53.962234,116.129877 54.350350,116.757862 C 55.232919,118.185887 51.821960,120.126033 50.195758,119.120985 C 49.091408,118.438459 48.377876,114.410080 46.011859,95.500000 C 45.530150,91.650000 44.181200,82.875000 43.014192,76.000000 C 38.255188,47.964066 38.223610,48.631658 44.194365,51.050347 C 47.250085,52.288186 48.635742,53.110978 56.209507,58.184833 C 57.699737,59.183175 59.306237,60.000000 59.779509,60.000000 C 60.252781,60.000000 62.480036,61.575000 64.728966,63.500000 C 66.977895,65.425000 69.274426,67.000000 69.832368,67.000000 C 70.390310,67.000000 72.910170,68.575000 75.432057,70.500000 C 77.953944,72.425000 80.463412,74.000000 81.008653,74.000000 C 81.553894,74.000000 82.000000,74.415102 82.000000,74.922448 C 82.000000,75.429794 83.662146,76.393454 85.693658,77.063913 C 87.725171,77.734373 90.285023,79.119271 91.382220,80.141465 C 92.479417,81.163659 93.761086,82.000000 94.230375,82.000000 C 94.699663,82.000000 96.049663,82.900000 97.230375,84.000000 C 98.411086,85.100000 100.137170,86.000000 101.066117,86.000000 C 101.995063,86.000000 103.342607,86.707890 104.060658,87.573088 C 104.778709,88.438286 107.028308,89.994118 109.059768,91.030491 C 111.091227,92.066865 113.019708,93.608975 113.345280,94.457403 C 113.670853,95.305831 114.592127,96.000000 115.392557,96.000000 C 117.041508,96.000000 119.096879,93.512363 125.720485,83.500000 C 128.267425,79.650000 130.722246,76.350000 131.175642,76.166667 C 131.629039,75.983333 132.000000,75.350809 132.000000,74.761058 C 132.000000,74.171306 133.237500,72.071316 134.750000,70.094414 C 136.262500,68.117511 138.175000,65.298276 139.000000,63.829446 C 139.825000,62.360617 141.272246,60.110607 142.216102,58.829424 C 143.159958,57.548241 146.280882,52.900000 149.151488,48.500000 C 152.022094,44.100000 155.401504,39.240862 156.661286,37.701916 C 157.921069,36.162969 159.645754,33.441432 160.493920,31.654056 C 161.342086,29.866679 163.968773,26.207878 166.331004,23.523386 C 172.022732,17.055179 173.445831,17.658841 174.948641,27.178889 C 175.584271,31.205500 176.572125,36.902696 177.143872,39.839324 C 177.715619,42.775952 178.202208,47.275952 178.225181,49.839324 C 178.248154,52.402696 178.598029,54.950000 179.002682,55.500000 C 179.407335,56.050000 180.022915,58.525000 180.370638,61.000000 C 181.252676,67.278116 182.706984,76.499586 183.840233,83.000000 C 184.875082,88.935986 184.125933,91.000000 180.936572,91.000000 C 178.464717,91.000000 177.600863,89.316431 177.344813,84.000000 C 177.225612,81.525000 176.656850,76.800000 176.080897,73.500000 C 175.504945,70.200000 174.738543,64.675379 174.377783,61.223066 C 174.017023,57.770752 173.334438,54.706694 172.860928,54.414049 C 172.387417,54.121403 171.972252,51.771024 171.938338,49.190983 C 171.904424,46.610942 171.319039,41.575000 170.637482,38.000000 C 169.280422,30.881758 167.189565,29.356369 165.840017,34.500000 C 165.407102,36.150000 164.028497,38.625000 162.776450,40.000000 C 159.136313,43.997602 155.512223,49.223751 153.761555,53.000000 C 152.869126,54.925000 150.757691,57.821691 149.069478,59.437091 C 147.381265,61.052491 146.000000,63.189991 146.000000,64.187091 C 146.000000,65.184191 145.661727,66.000000 145.248283,66.000000 C 144.834838,66.000000 143.422306,68.025000 142.109321,70.500000 C 140.796337,72.975000 139.389204,75.000000 138.982359,75.000000 C 138.575514,75.000000 137.683452,76.350000 137.000000,78.000000 C 136.316548,79.650000 135.413583,81.000000 134.993411,81.000000 C 134.573240,81.000000 132.279224,84.262500 129.895598,88.250000 C 127.511972,92.237500 125.143780,95.792696 124.632949,96.150435 C 124.112610,96.514833 123.987051,99.373287 124.347435,102.650435 C 125.457327,112.743233 126.842366,123.257017 127.950347,130.000000 C 129.415831,138.918691 130.897455,149.109416 133.511496,168.250000 L 134.023635,172.000000 L 130.070835,172.000000 C 127.896794,172.000000 125.815686,171.510790 125.446149,170.912868" fill="black" stroke="black" stroke-width="1"/>
</svg>
