<?xml version="1.0" encoding="utf-8" ?>
<svg baseProfile="full" height="216" version="1.1" width="253" xmlns="http://www.w3.org/2000/svg" xmlns:ev="http://www.w3.org/2001/xml-events" xmlns:xlink="http://www.w3.org/1999/xlink"><defs /><rect fill="white" height="216" width="253" x="0" y="0" /><path d="M 194,129 L 211,144 L 210,177 L 196,189 L 178,175 L 180,138 Z" fill="black" stroke="black" stroke-width="1" /><circle cx="107.34693908691406" cy="122.66326904296875" fill="black" r="28.895217895507812" stroke="black" stroke-width="1" /><path d="M 216,34 L 235,44 L 236,83 L 224,95 L 204,82 L 204,45 Z" fill="black" stroke="black" stroke-width="1" /><path d="M 162,17 L 180,32 L 179,68 L 166,77 L 147,60 L 148,29 Z" fill="black" stroke="black" stroke-width="1" /><path d="M 47,10 L 59,20 L 60,48 L 43,69 L 29,60 L 27,22 Z" fill="black" stroke="black" stroke-width="1" /><path d="M 0,0 L 0,215 L 252,215 L 252,0 Z" fill="none" stroke="black" stroke-width="1" /></svg>