<?xml version="1.0" encoding="utf-8" ?>
<svg baseProfile="full" height="216" version="1.1" width="253" xmlns="http://www.w3.org/2000/svg" xmlns:ev="http://www.w3.org/2001/xml-events" xmlns:xlink="http://www.w3.org/1999/xlink"><defs /><rect fill="white" height="216" width="253" x="0" y="0" /><path d="M 198,137 L 185,150 L 190,182 L 204,175 L 204,143 Z" fill="none" stroke="black" stroke-width="5" /><path d="M 106,100 L 99,105 L 99,135 L 111,144 L 118,137 L 118,114 Z" fill="none" stroke="black" stroke-width="5" /><path d="M 216,41 L 210,78 L 224,88 L 229,48 Z" fill="none" stroke="black" stroke-width="5" /><path d="M 167,24 L 160,24 L 154,37 L 155,64 L 163,71 L 174,57 Z" fill="none" stroke="black" stroke-width="5" /><path d="M 42,16 L 33,28 L 33,53 L 47,61 L 51,18 Z" fill="none" stroke="black" stroke-width="5" /><path d="M 0,0 L 0,215 L 252,215 L 252,0 Z" fill="none" stroke="black" stroke-width="5" /></svg>