<?xml version="1.0" encoding="utf-8" ?>
<svg baseProfile="full" height="214" version="1.1" width="260" xmlns="http://www.w3.org/2000/svg" xmlns:ev="http://www.w3.org/2001/xml-events" xmlns:xlink="http://www.w3.org/1999/xlink"><defs /><rect fill="white" height="214" width="260" x="0" y="0" /><path d="M 117,80 L 112,83 L 109,92 L 110,117 L 116,124 L 125,124 L 129,120 L 129,87 L 124,80 Z" fill="none" stroke="black" stroke-width="5" /><path d="M 149,79 L 143,79 L 136,85 L 136,117 L 144,125 L 151,124 L 156,113 L 155,86 Z" fill="none" stroke="black" stroke-width="5" /><path d="M 90,79 L 82,87 L 83,116 L 90,126 L 98,126 L 103,120 L 103,95 L 99,83 Z" fill="none" stroke="black" stroke-width="5" /><path d="M 0,0 L 0,213 L 259,213 L 259,0 Z" fill="none" stroke="black" stroke-width="5" /></svg>