<?xml version="1.0" encoding="utf-8" ?>
<svg baseProfile="full" height="216" version="1.1" width="255" xmlns="http://www.w3.org/2000/svg" xmlns:ev="http://www.w3.org/2001/xml-events" xmlns:xlink="http://www.w3.org/1999/xlink"><defs /><rect fill="white" height="216" width="255" x="0" y="0" /><path d="M 190,143 L 183,150 L 181,172 L 185,185 L 196,188 L 202,180 L 202,154 L 196,144 Z" fill="none" stroke="black" stroke-width="5" /><path d="M 91,75 L 84,82 L 83,109 L 87,117 L 95,118 L 101,113 L 103,83 L 97,75 Z" fill="none" stroke="black" stroke-width="5" /><path d="M 117,74 L 108,79 L 107,113 L 121,119 L 128,111 L 129,81 L 127,77 Z" fill="none" stroke="black" stroke-width="5" /><ellipse cx="46.04849624633789" cy="43.920448303222656" fill="none" rx="11.546393394470215" ry="22.817649841308594" stroke="black" stroke-width="5" transform="rotate(2.1205458641052246, 46.04849624633789, 43.920448303222656)" /><path d="M 201,21 L 194,29 L 193,56 L 196,61 L 206,63 L 212,55 L 212,31 L 207,23 Z" fill="none" stroke="black" stroke-width="5" /><path d="M 0,0 L 0,215 L 254,215 L 254,0 Z" fill="none" stroke="black" stroke-width="5" /></svg>