<?xml version="1.0" encoding="utf-8" ?>
<svg baseProfile="full" height="216" version="1.1" width="255" xmlns="http://www.w3.org/2000/svg" xmlns:ev="http://www.w3.org/2001/xml-events" xmlns:xlink="http://www.w3.org/1999/xlink"><defs /><rect fill="white" height="216" width="255" x="0" y="0" /><path d="M 190,143 L 181,172 L 185,185 L 196,188 L 202,154 Z" fill="none" stroke="black" stroke-width="1" /><circle cx="193.0" cy="165.5" fill="none" r="29.517044067382812" stroke="black" stroke-width="1" /><path d="M 91,75 L 84,82 L 83,109 L 95,118 L 101,113 L 103,83 Z" fill="none" stroke="black" stroke-width="1" /><path d="M 117,74 L 108,79 L 107,113 L 121,119 L 128,111 L 129,81 Z" fill="none" stroke="black" stroke-width="1" /><path d="M 131,72 L 128,122 L 79,119 L 84,72 Z" fill="none" stroke="black" stroke-width="1" /><path d="M 45,22 L 37,29 L 35,54 L 39,64 L 48,66 L 55,60 L 57,35 Z" fill="none" stroke="black" stroke-width="1" /><path d="M 201,21 L 194,29 L 193,56 L 206,63 L 212,55 L 212,31 Z" fill="none" stroke="black" stroke-width="1" /><circle cx="202.5" cy="42.5" fill="none" r="27.865848541259766" stroke="black" stroke-width="1" /><path d="M 47,15 L 62,26 L 63,53 L 55,70 L 41,72 L 29,57 L 30,30 Z" fill="none" stroke="black" stroke-width="1" /><path d="M 0,0 L 0,215 L 254,215 L 254,0 Z" fill="none" stroke="black" stroke-width="1" /></svg>