<?xml version="1.0" encoding="utf-8" ?>
<svg xmlns="http://www.w3.org/2000/svg" xmlns:ev="http://www.w3.org/2001/xml-events" xmlns:xlink="http://www.w3.org/1999/xlink" baseProfile="full" height="218" version="1.1" width="256">
  <defs/>
  <path d="M 123.554583,215.691193 C 122.484604,215.036037 120.712251,213.712500 119.616022,212.750000 C 117.096986,210.538262 116.098938,210.575975 113.000000,213.000000 C 109.968704,215.371114 102.167621,215.671228 98.200340,213.569354 C 94.287727,211.496444 90.383831,206.050830 89.528752,201.473200 C 89.120555,199.287940 88.627462,191.480113 88.432988,184.122474 L 88.079399,170.744948 L 91.017971,166.473879 C 93.213709,163.282484 95.144611,161.797996 98.656411,160.601406 C 104.726728,158.533041 106.195812,158.582483 110.500000,161.000000 C 115.008360,163.532194 117.457845,163.522237 121.060289,160.957071 C 125.377048,157.883267 132.629907,157.406113 137.370415,159.884054 C 140.940279,161.750081 141.561506,161.795437 145.370415,160.468145 C 151.739512,158.248703 159.076208,158.580452 163.102117,161.269933 C 168.801011,165.077041 170.155853,168.993396 169.581686,180.000000 C 169.309120,185.225000 169.066737,193.454925 169.043056,198.288723 L 169.000000,207.077446 L 165.071763,211.288723 C 161.238688,215.397981 160.986867,215.500000 154.676750,215.500000 C 149.921242,215.500000 147.698263,215.036907 146.276247,213.750000 C 143.752523,211.466062 143.026962,211.529620 137.852074,214.487955 C 133.132352,217.186083 126.858312,217.714089 123.554583,215.691193" fill="none" stroke="black" stroke-width="5"/>
  <path d="M 198.685884,159.308625 C 197.138120,158.495056 195.627475,157.192791 195.328895,156.414704 C 194.591368,154.492738 192.978942,154.669838 190.000000,157.000000 C 188.245323,158.372528 185.915222,158.962157 182.184259,158.977764 C 176.189307,159.002841 174.281731,158.204590 169.453389,153.650358 L 166.068505,150.457638 L 165.933359,131.291908 C 165.783922,110.099490 165.852478,109.823317 172.360381,105.401083 C 176.950658,102.281909 185.268793,102.081408 189.000000,105.000000 C 191.455800,106.920955 196.000000,107.728596 196.000000,106.244111 C 196.000000,104.717468 202.192442,102.809510 207.025785,102.846949 C 213.147776,102.894370 217.139074,105.123459 219.900957,110.037565 C 221.818944,113.450164 221.976529,115.181000 221.821114,131.127636 C 221.629905,150.746947 221.508615,151.203151 214.644245,158.121703 C 212.193890,160.591399 211.058217,160.984941 206.644245,160.893921 C 203.814910,160.835578 200.233648,160.122195 198.685884,159.308625" fill="none" stroke="black" stroke-width="5"/>
  <path d="M 42.178184,148.805367 C 34.924798,145.289381 34.668070,144.420680 33.849060,120.621702 C 33.001931,96.005675 33.352325,94.464808 40.568493,91.072808 C 46.544162,88.263912 49.760054,88.461970 55.308350,91.980596 L 60.008262,94.961192 L 63.534548,92.980596 C 68.292002,90.308493 75.153032,90.396008 80.128279,93.192253 L 84.028867,95.384506 L 88.541185,93.192253 C 94.882026,90.111635 98.838851,90.372037 104.613656,94.250000 C 108.347247,96.757223 109.711660,98.414187 110.583608,101.500000 C 111.865133,106.035303 112.482768,140.985607 111.282120,141.026897 C 110.851954,141.041691 109.424559,142.798137 108.110130,144.930111 C 106.795702,147.062085 104.637028,149.299981 103.313077,149.903214 C 99.314912,151.724900 90.844899,151.225312 88.000000,149.000000 C 85.506425,147.049498 82.000000,146.322434 82.000000,147.755889 C 82.000000,148.171627 80.612537,149.125928 78.916748,149.876557 C 74.800588,151.698547 67.578101,150.803525 63.788645,148.001860 L 60.785460,145.781509 L 55.628377,148.390754 C 49.478122,151.502500 47.846084,151.552808 42.178184,148.805367" fill="none" stroke="black" stroke-width="5"/>
  <path d="M 90.109941,77.867223 C 87.695408,77.421310 84.959975,76.368766 84.031200,75.528236 C 81.918978,73.616701 80.026379,73.592795 77.383040,75.444262 C 73.870795,77.904334 65.802257,78.466224 62.026468,76.513687 C 58.703008,74.795059 58.065671,74.823446 48.403637,77.120438 C 43.623238,78.256901 42.975586,78.166729 37.957293,75.666008 C 31.606685,72.501367 30.296155,72.421710 27.000000,75.000000 C 22.203018,78.752253 12.077973,76.726984 8.165661,71.232649 C 5.307382,67.218567 3.907536,49.942638 5.319926,36.112589 C 6.001619,29.437494 9.551588,23.000000 12.550891,23.000000 C 13.347901,23.000000 14.000000,22.550000 14.000000,22.000000 C 14.000000,20.183469 22.937589,20.927512 27.192625,23.098270 L 31.305574,25.196540 L 35.038941,23.098270 C 39.925194,20.352043 46.774686,20.345950 51.648657,23.083496 L 55.358148,25.166992 L 59.065228,23.083496 C 63.830776,20.405108 69.800131,20.425749 75.575699,23.140587 L 80.129601,25.281173 L 84.934506,23.030676 C 90.464112,20.440747 96.249101,20.834902 100.378292,24.082924 C 103.474369,26.518299 103.450438,26.520954 107.713606,23.269277 C 110.736945,20.963264 112.197769,20.559335 117.106142,20.672172 C 121.246302,20.767348 123.765822,21.409125 125.863629,22.902895 C 129.349853,25.385306 131.748652,25.533393 135.635693,23.506161 C 139.570680,21.453923 146.821683,21.619480 150.993431,23.856813 C 157.291214,27.234351 157.844975,29.297665 157.926912,49.690983 C 157.971630,60.820932 157.611839,68.121863 157.000000,68.500000 C 156.450000,68.839919 156.000000,69.916162 156.000000,70.891652 C 156.000000,71.867143 154.263898,74.060441 152.141995,75.765648 C 148.481445,78.707346 147.993474,78.826602 142.607734,78.095741 C 139.308536,77.648031 135.661742,76.386700 133.899433,75.083769 L 130.867388,72.842081 L 126.444593,74.921041 C 120.628244,77.655047 113.873384,77.618839 108.906027,74.827028 C 105.313398,72.807857 104.911884,72.769768 103.233274,74.288890 C 99.836777,77.362678 94.805849,78.734458 90.109941,77.867223" fill="none" stroke="black" stroke-width="5"/>
  <path d="M 204.500000,77.582642 C 202.850000,76.846151 200.274952,74.939638 198.777671,73.345947 L 196.055342,70.448327 L 195.827435,49.066788 L 195.599527,27.685249 L 199.466373,24.342625 C 203.309930,21.020133 205.301896,20.482181 212.000000,20.957786 C 216.500229,21.277329 218.847831,22.487864 222.256633,26.246597 L 225.013266,29.286213 L 224.626017,43.893106 C 224.399501,52.437233 224.650943,59.286264 225.231811,60.394329 C 226.477031,62.769715 224.418933,69.579609 221.526567,72.654347 C 218.471647,75.901888 212.811400,78.996934 210.000000,78.957120 C 208.625000,78.937648 206.150000,78.319133 204.500000,77.582642" fill="none" stroke="black" stroke-width="5"/>
</svg>
