<?xml version="1.0" encoding="utf-8" ?>
<svg xmlns="http://www.w3.org/2000/svg" xmlns:ev="http://www.w3.org/2001/xml-events" xmlns:xlink="http://www.w3.org/1999/xlink" baseProfile="full" height="219" version="1.1" width="257">
  <defs/>
  <path d="M 173.866271,193.041299 C 168.242651,188.405837 167.880029,186.613824 168.206983,165.074122 L 168.500000,145.770163 L 172.726953,142.019664 C 182.146838,133.661571 195.462507,136.587239 198.806907,147.749850 C 199.496777,150.052430 199.990737,157.798919 199.978038,166.116020 C 199.959664,178.149742 199.641320,181.193408 198.029717,184.743776 C 194.468375,192.589423 189.700410,196.000000 182.293585,196.000000 C 178.408599,196.000000 176.748687,195.417230 173.866271,193.041299" fill="none" stroke="black" stroke-width="5"/>
  <path d="M 87.985613,187.997931 C 82.689120,187.083884 78.444731,184.138046 76.102875,179.750662 C 74.204804,176.194691 74.000000,174.170102 74.000000,158.962659 C 74.000000,143.772844 74.201839,141.772229 76.050404,138.639144 C 79.335419,133.071458 82.485504,131.519295 90.500000,131.519295 C 98.705490,131.519295 102.292161,133.370140 104.547690,138.768382 C 106.394388,143.188152 106.638575,175.938294 104.849753,179.280739 C 101.208323,186.084813 95.123997,189.229843 87.985613,187.997931" fill="none" stroke="black" stroke-width="5"/>
  <path d="M 178.591782,90.904231 C 173.691011,89.727105 169.444889,85.365907 168.009453,80.035106 C 167.401867,77.778703 166.903615,70.660231 166.902228,64.216278 C 166.900840,57.772325 166.896925,50.942148 166.893529,49.038106 C 166.883062,43.170366 169.634767,38.575975 174.606168,36.160682 C 186.532390,30.366476 197.922943,37.026428 198.043551,49.864307 C 198.067504,52.413938 198.483564,56.525000 198.968129,59.000000 C 199.497189,61.702270 199.479791,63.879521 198.924578,64.450000 C 198.416060,64.972500 198.000000,69.257470 198.000000,73.972156 C 198.000000,81.998059 197.811134,82.773439 195.036199,86.139916 C 193.406109,88.117498 190.818609,90.009195 189.286199,90.343687 C 187.753790,90.678178 185.600000,91.152351 184.500000,91.397403 C 183.400000,91.642456 180.741302,91.420528 178.591782,90.904231" fill="none" stroke="black" stroke-width="5"/>
  <path d="M 52.655189,81.552927 C 47.400707,79.663626 44.000000,76.257798 44.000000,72.884703 C 44.000000,71.363035 43.594736,69.867567 43.099414,69.561441 C 42.284061,69.057526 42.402407,47.299686 43.282572,35.887639 C 43.688028,30.630589 46.509809,26.389379 51.330155,23.791916 C 58.450283,19.955205 68.195353,23.102553 71.980029,30.461170 C 74.039102,34.464665 74.170688,35.684199 73.566382,45.163394 C 73.203950,50.848527 72.815746,59.325000 72.703707,64.000000 C 72.533597,71.098105 72.115908,73.038507 70.171162,75.765089 C 66.089490,81.487693 58.994233,83.832193 52.655189,81.552927" fill="none" stroke="black" stroke-width="5"/>
</svg>
