<?xml version="1.0" encoding="utf-8" ?>
<svg baseProfile="full" height="220" version="1.1" width="258" xmlns="http://www.w3.org/2000/svg" xmlns:ev="http://www.w3.org/2001/xml-events" xmlns:xlink="http://www.w3.org/1999/xlink"><defs /><rect fill="white" height="220" width="258" x="0" y="0" /><path d="M 172,156 L 241,154" fill="none" stroke="black" stroke-width="5" /><path d="M 178,158 L 172,191 L 186,201 L 190,165 Z" fill="none" stroke="black" stroke-width="5" /><path d="M 227,156 L 220,160 L 221,196 L 234,199 L 240,167 Z" fill="none" stroke="black" stroke-width="5" /><path d="M 202,156 L 195,187 L 207,202 L 215,193 L 215,164 Z" fill="none" stroke="black" stroke-width="5" /><path d="M 60,114 L 52,122 L 54,152 L 64,157 L 71,149 L 71,121 Z" fill="none" stroke="black" stroke-width="5" /><path d="M 136,113 L 131,148 L 140,157 L 148,151 L 149,126 L 148,118 Z" fill="none" stroke="black" stroke-width="5" /><path d="M 89,113 L 76,124 L 77,152 L 84,159 L 94,152 Z" fill="none" stroke="black" stroke-width="5" /><path d="M 196,43 L 186,72 L 190,85 L 200,87 L 207,52 Z" fill="none" stroke="black" stroke-width="5" /><path d="M 172,42 L 161,56 L 167,87 L 179,81 L 180,50 Z" fill="none" stroke="black" stroke-width="5" /><path d="M 80,24 L 71,33 L 71,59 L 83,68 L 90,60 L 89,30 Z" fill="none" stroke="black" stroke-width="5" /><path d="M 52,24 L 46,27 L 47,63 L 58,68 L 66,64 L 65,30 Z" fill="none" stroke="black" stroke-width="5" /><path d="M 29,24 L 22,33 L 22,56 L 33,71 L 40,67 L 41,32 Z" fill="none" stroke="black" stroke-width="5" /><path d="M 0,0 L 0,219 L 257,219 L 257,0 Z" fill="none" stroke="black" stroke-width="5" /></svg>