<?xml version="1.0" encoding="utf-8" ?>
<svg baseProfile="full" height="219" version="1.1" width="255" xmlns="http://www.w3.org/2000/svg" xmlns:ev="http://www.w3.org/2001/xml-events" xmlns:xlink="http://www.w3.org/1999/xlink"><defs /><rect fill="white" height="219" width="255" x="0" y="0" /><path d="M 173,166 L 222,163 L 226,210 L 176,214 Z" fill="black" stroke="black" stroke-width="1" /><path d="M 29,161 L 76,164 L 72,212 L 25,207 Z" fill="black" stroke="black" stroke-width="1" /><path d="M 194,112 L 152,113 L 152,150 L 193,151 Z" fill="none" stroke="black" stroke-width="1" /><path d="M 202,114 L 193,158 L 99,153 L 110,103 Z" fill="black" stroke="black" stroke-width="1" /><path d="M 63,73 L 68,121 L 18,126 L 17,78 Z" fill="black" stroke="black" stroke-width="1" /><path d="M 115,39 L 209,27 L 218,71 L 122,80 Z" fill="black" stroke="black" stroke-width="1" /><path d="M 0,0 L 0,218 L 254,218 L 254,0 Z" fill="none" stroke="black" stroke-width="1" /></svg>