<?xml version="1.0" encoding="utf-8" ?>
<svg baseProfile="full" height="218" version="1.1" width="256" xmlns="http://www.w3.org/2000/svg" xmlns:ev="http://www.w3.org/2001/xml-events" xmlns:xlink="http://www.w3.org/1999/xlink"><defs /><rect fill="white" height="218" width="256" x="0" y="0" /><path d="M 150,165 L 144,200 L 157,209 L 163,201 L 163,171 Z" fill="none" stroke="black" stroke-width="5" /><path d="M 126,165 L 118,193 L 131,210 L 138,204 L 137,167 Z" fill="none" stroke="black" stroke-width="5" /><path d="M 102,165 L 95,170 L 96,197 L 108,208 L 113,173 Z" fill="none" stroke="black" stroke-width="5" /><path d="M 173,111 L 172,148 L 210,154 L 215,113 Z" fill="none" stroke="black" stroke-width="5" /><path d="M 217,105 L 217,156 L 172,157 L 167,108 Z" fill="none" stroke="black" stroke-width="5" /><path d="M 93,97 L 86,118 L 88,141 L 97,145 L 105,138 L 105,105 Z" fill="none" stroke="black" stroke-width="5" /><path d="M 70,96 L 62,105 L 64,139 L 77,144 L 80,103 Z" fill="none" stroke="black" stroke-width="5" /><path d="M 44,95 L 38,103 L 39,133 L 51,144 L 57,113 L 53,98 Z" fill="none" stroke="black" stroke-width="5" /><path d="M 141,27 L 131,30 L 131,67 L 146,72 L 152,35 Z" fill="none" stroke="black" stroke-width="5" /><path d="M 87,27 L 84,64 L 95,71 L 101,62 L 100,33 Z" fill="none" stroke="black" stroke-width="5" /><path d="M 64,27 L 58,32 L 60,67 L 71,71 L 77,65 L 77,38 Z" fill="none" stroke="black" stroke-width="5" /><path d="M 14,27 L 10,62 L 23,70 L 27,31 Z" fill="none" stroke="black" stroke-width="5" /><path d="M 208,26 L 201,31 L 202,68 L 212,72 L 219,43 L 217,30 Z" fill="none" stroke="black" stroke-width="5" /><path d="M 116,26 L 108,31 L 106,57 L 118,71 L 127,61 L 127,39 Z" fill="none" stroke="black" stroke-width="5" /><path d="M 41,26 L 33,30 L 33,67 L 54,69 L 52,29 Z" fill="none" stroke="black" stroke-width="5" /><path d="M 0,0 L 0,217 L 255,217 L 255,0 Z" fill="none" stroke="black" stroke-width="5" /></svg>