<?xml version="1.0" encoding="utf-8" ?>
<svg baseProfile="full" height="219" version="1.1" width="255" xmlns="http://www.w3.org/2000/svg" xmlns:ev="http://www.w3.org/2001/xml-events" xmlns:xlink="http://www.w3.org/1999/xlink"><defs /><rect fill="white" height="219" width="255" x="0" y="0" /><path d="M 210,166 L 202,174 L 202,197 L 216,209 L 221,172 Z" fill="none" stroke="black" stroke-width="5" /><path d="M 183,165 L 176,196 L 187,211 L 194,205 L 196,181 L 191,166 Z" fill="none" stroke="black" stroke-width="5" /><path d="M 63,165 L 52,175 L 52,197 L 60,207 L 69,207 L 72,168 Z" fill="none" stroke="black" stroke-width="5" /><path d="M 37,165 L 29,174 L 29,198 L 41,206 L 47,183 L 45,169 Z" fill="none" stroke="black" stroke-width="5" /><path d="M 112,109 L 104,119 L 104,147 L 117,153 L 121,113 Z" fill="none" stroke="black" stroke-width="5" /><path d="M 194,112 L 152,113 L 152,150 L 193,151 Z" fill="none" stroke="black" stroke-width="5" /><path d="M 137,108 L 128,116 L 128,147 L 141,153 L 146,120 Z" fill="none" stroke="black" stroke-width="5" /><path d="M 34,79 L 19,90 L 20,117 L 27,123 L 37,116 Z" fill="none" stroke="black" stroke-width="5" /><path d="M 52,77 L 44,85 L 47,119 L 55,122 L 63,114 L 63,84 Z" fill="none" stroke="black" stroke-width="5" /><path d="M 209,33 L 200,34 L 194,45 L 195,67 L 202,75 L 212,68 Z" fill="none" stroke="black" stroke-width="5" /><path d="M 177,32 L 169,62 L 181,75 L 188,67 L 188,40 Z" fill="none" stroke="black" stroke-width="5" /><path d="M 154,32 L 146,40 L 145,64 L 149,74 L 158,75 L 163,36 Z" fill="none" stroke="black" stroke-width="5" /><path d="M 128,32 L 121,66 L 133,75 L 139,69 L 139,35 Z" fill="none" stroke="black" stroke-width="5" /><path d="M 0,0 L 0,218 L 254,218 L 254,0 Z" fill="none" stroke="black" stroke-width="5" /></svg>