<?xml version="1.0" encoding="utf-8" ?>
<svg baseProfile="full" height="220" version="1.1" width="256" xmlns="http://www.w3.org/2000/svg" xmlns:ev="http://www.w3.org/2001/xml-events" xmlns:xlink="http://www.w3.org/1999/xlink"><defs /><rect fill="white" height="220" width="256" x="0" y="0" /><path d="M 91,161 L 170,162" fill="none" stroke="black" stroke-width="5" /><path d="M 56,112 L 121,112" fill="none" stroke="black" stroke-width="5" /><path d="M 115,160 L 180,160" fill="none" stroke="black" stroke-width="5" /><path d="M 189,115 L 176,118 L 174,156 L 181,160 L 195,156 Z" fill="none" stroke="black" stroke-width="5" /><path d="M 111,115 L 105,121 L 103,153 L 114,160 L 120,156 L 121,119 Z" fill="none" stroke="black" stroke-width="5" /><path d="M 40,114 L 33,124 L 32,153 L 44,159 L 52,147 L 52,124 Z" fill="none" stroke="black" stroke-width="5" /><path d="M 213,113 L 199,122 L 199,151 L 206,160 L 218,153 Z" fill="none" stroke="black" stroke-width="5" /><path d="M 140,113 L 127,122 L 129,159 L 144,155 L 146,117 Z" fill="none" stroke="black" stroke-width="5" /><path d="M 58,117 L 56,154 L 96,158 L 100,117 Z" fill="none" stroke="black" stroke-width="5" /><path d="M 232,112 L 225,119 L 225,151 L 240,159 L 243,120 Z" fill="none" stroke="black" stroke-width="5" /><path d="M 164,112 L 150,126 L 155,159 L 168,154 L 170,118 Z" fill="none" stroke="black" stroke-width="5" /><path d="M 233,26 L 225,34 L 227,71 L 237,74 L 244,32 Z" fill="none" stroke="black" stroke-width="5" /><path d="M 206,26 L 198,30 L 198,67 L 211,72 L 220,69 L 220,31 Z" fill="none" stroke="black" stroke-width="5" /><path d="M 179,26 L 174,67 L 184,73 L 192,67 L 191,30 Z" fill="none" stroke="black" stroke-width="5" /><path d="M 30,26 L 23,34 L 23,65 L 36,71 L 42,64 L 42,31 Z" fill="none" stroke="black" stroke-width="5" /><path d="M 158,25 L 147,34 L 149,67 L 156,73 L 166,67 L 168,34 Z" fill="none" stroke="black" stroke-width="5" /><path d="M 57,25 L 48,30 L 48,67 L 63,72 L 69,30 Z" fill="none" stroke="black" stroke-width="5" /><path d="M 0,0 L 0,219 L 255,219 L 255,0 Z" fill="none" stroke="black" stroke-width="5" /></svg>