<?xml version="1.0" encoding="utf-8" ?>
<svg xmlns="http://www.w3.org/2000/svg" xmlns:ev="http://www.w3.org/2001/xml-events" xmlns:xlink="http://www.w3.org/1999/xlink" baseProfile="full" height="218" version="1.1" width="259">
  <defs/>
  <path d="M 106.274268,204.307367 C 104.151116,204.024039 102.333350,202.872518 100.956174,200.938451 C 98.332735,197.254172 97.218403,197.267215 91.284728,201.051647 C 85.789648,204.556348 83.006815,204.455266 74.702931,200.449340 L 69.729308,198.049985 L 66.835217,200.485202 C 59.116611,206.979981 46.669243,202.912810 44.007029,193.026104 C 43.237812,190.169451 42.002763,173.270409 41.713354,161.641994 C 41.613793,157.641672 42.355179,155.665066 45.148444,152.483713 C 49.244702,147.818333 53.225945,145.830990 58.639803,145.749146 C 62.119908,145.696536 63.830978,146.333063 66.952330,148.841450 C 69.114046,150.578652 71.246611,151.981712 71.691362,151.959359 C 72.136113,151.937007 74.058002,150.587007 75.962226,148.959359 C 78.639171,146.671223 80.404263,146.000000 83.744344,146.000000 C 88.789928,146.000000 94.772698,148.244085 95.621047,150.454847 C 96.409917,152.510609 98.574672,152.413881 100.205474,150.250000 C 102.402972,147.334182 105.724800,146.000000 110.787067,146.000000 C 115.485069,146.000000 120.976582,147.748867 120.992198,149.250000 C 121.007502,150.721146 124.242039,149.963841 127.327686,147.766667 C 129.683171,146.089414 131.870342,145.533333 136.111811,145.533333 C 147.811074,145.533333 150.553361,149.937160 151.441211,170.150756 C 152.491887,194.071361 151.012528,198.610425 141.068556,201.976792 C 135.131906,203.986546 133.244845,203.621043 127.316722,199.313214 C 125.565919,198.040946 123.906759,197.000000 123.629700,197.000000 C 123.352642,197.000000 121.635117,198.548812 119.812978,200.441804 C 116.356946,204.032225 112.488748,205.136670 106.274268,204.307367" fill="none" stroke="black" stroke-width="5"/>
  <path d="M 161.353172,122.820044 C 159.622417,122.366977 157.147417,120.879896 155.853172,119.515419 C 153.244950,116.765663 150.522710,116.283229 149.299690,118.354015 C 147.885308,120.748813 144.263868,122.000554 138.815741,121.977764 C 132.832759,121.952737 130.375174,120.489353 127.097386,115.000000 C 125.211968,111.842465 125.007110,109.941394 125.003738,95.570998 C 124.998871,74.829627 126.232475,71.257982 134.717881,67.445710 C 138.423814,65.780731 143.000000,65.534460 143.000000,67.000000 C 143.000000,67.550000 143.605256,68.000000 144.345012,68.000000 C 145.084769,68.000000 146.504514,68.900000 147.500000,70.000000 C 149.773907,72.512639 154.462055,72.598223 156.193296,70.158699 C 161.073255,63.282259 172.190801,65.092196 178.195536,73.740663 L 181.500000,78.500000 L 181.288735,94.411265 C 181.164230,103.788224 180.650890,110.749110 180.038735,111.361265 C 179.467431,111.932569 179.000000,113.030000 179.000000,113.800000 C 179.000000,116.258324 172.638174,121.619826 168.500000,122.648996 C 166.203673,123.220096 163.159708,123.292948 161.353172,122.820044" fill="none" stroke="black" stroke-width="5"/>
  <path d="M 55.729840,68.462390 C 49.767458,64.410847 49.000000,61.292424 49.000000,41.116947 L 49.000000,23.478142 L 52.447851,19.489071 C 55.885086,15.512283 55.917828,15.500178 63.081429,15.557693 C 69.848406,15.612024 70.431335,15.799135 73.084487,18.768528 C 77.983653,24.251647 78.997117,30.536107 77.978029,49.113235 C 77.444398,58.840877 76.999799,61.044798 74.926692,64.239013 C 70.427017,71.172050 62.336791,72.951929 55.729840,68.462390" fill="none" stroke="black" stroke-width="5"/>
</svg>
