<?xml version="1.0" encoding="utf-8" ?>
<svg baseProfile="full" height="218" version="1.1" width="259" xmlns="http://www.w3.org/2000/svg" xmlns:ev="http://www.w3.org/2001/xml-events" xmlns:xlink="http://www.w3.org/1999/xlink"><defs /><rect fill="white" height="218" width="259" x="0" y="0" /><path d="M 55,152 L 49,155 L 47,182 L 50,194 L 61,198 L 66,195 L 68,167 L 65,157 Z" fill="none" stroke="black" stroke-width="5" /><path d="M 81,151 L 74,160 L 75,192 L 80,197 L 88,197 L 94,187 L 94,159 L 89,152 Z" fill="none" stroke="black" stroke-width="5" /><path d="M 132,150 L 127,156 L 127,191 L 139,197 L 146,191 L 146,162 L 141,150 Z" fill="none" stroke="black" stroke-width="5" /><path d="M 109,150 L 101,156 L 101,191 L 106,198 L 112,199 L 120,191 L 120,162 L 116,152 Z" fill="none" stroke="black" stroke-width="5" /><path d="M 170,73 L 148,77 L 136,72 L 132,76 L 130,108 L 134,115 L 153,111 L 165,117 L 172,113 L 176,83 Z" fill="none" stroke="black" stroke-width="5" /><path d="M 61,20 L 53,30 L 54,58 L 57,63 L 65,65 L 72,58 L 72,30 L 69,22 Z" fill="none" stroke="black" stroke-width="5" /><path d="M 0,0 L 0,217 L 258,217 L 258,0 Z" fill="none" stroke="black" stroke-width="5" /></svg>