<?xml version="1.0" encoding="utf-8" ?>
<svg baseProfile="full" height="218" version="1.1" width="256" xmlns="http://www.w3.org/2000/svg" xmlns:ev="http://www.w3.org/2001/xml-events" xmlns:xlink="http://www.w3.org/1999/xlink"><defs /><rect fill="white" height="218" width="256" x="0" y="0" /><path d="M 87,170 L 159,158 L 169,206 L 100,215 Z" fill="black" stroke="black" stroke-width="1" /><path d="M 173,111 L 172,148 L 210,154 L 215,113 Z" fill="none" stroke="black" stroke-width="1" /><path d="M 217,105 L 217,156 L 172,157 L 167,108 Z" fill="black" stroke="black" stroke-width="1" /><path d="M 35,93 L 103,92 L 112,140 L 41,149 Z" fill="black" stroke="black" stroke-width="1" /><path d="M 208,19 L 225,29 L 226,64 L 212,79 L 195,70 L 195,27 Z" fill="black" stroke="black" stroke-width="1" /><path d="M 158,31 L 148,79 L 5,68 L 14,20 Z" fill="black" stroke="black" stroke-width="1" /><path d="M 0,0 L 0,217 L 255,217 L 255,0 Z" fill="none" stroke="black" stroke-width="1" /></svg>