<?xml version="1.0" encoding="utf-8" ?>
<svg baseProfile="full" height="219" version="1.1" width="257" xmlns="http://www.w3.org/2000/svg" xmlns:ev="http://www.w3.org/2001/xml-events" xmlns:xlink="http://www.w3.org/1999/xlink"><defs /><rect fill="white" height="219" width="257" x="0" y="0" /><path d="M 182,142 L 175,147 L 174,181 L 186,189 L 194,161 L 191,145 Z" fill="none" stroke="black" stroke-width="1" /><circle cx="182.56796264648438" cy="166.16018676757812" fill="black" r="30.354944229125977" stroke="black" stroke-width="1" /><path d="M 86,136 L 80,169 L 86,181 L 94,181 L 99,143 Z" fill="none" stroke="black" stroke-width="1" /><circle cx="90.0" cy="159.3728790283203" fill="black" r="29.644092559814453" stroke="black" stroke-width="1" /><path d="M 180,39 L 173,46 L 172,73 L 185,85 L 193,73 L 193,53 Z" fill="none" stroke="black" stroke-width="1" /><path d="M 178,33 L 196,40 L 198,82 L 184,92 L 166,77 L 166,44 Z" fill="black" stroke="black" stroke-width="1" /><path d="M 61,28 L 54,28 L 48,41 L 48,68 L 55,76 L 67,64 Z" fill="none" stroke="black" stroke-width="1" /><path d="M 54,21 L 74,33 L 73,70 L 58,83 L 41,68 L 42,33 Z" fill="black" stroke="black" stroke-width="1" /><path d="M 0,0 L 0,218 L 256,218 L 256,0 Z" fill="none" stroke="black" stroke-width="1" /></svg>