<?xml version="1.0" encoding="utf-8" ?>
<svg xmlns="http://www.w3.org/2000/svg" xmlns:ev="http://www.w3.org/2001/xml-events" xmlns:xlink="http://www.w3.org/1999/xlink" baseProfile="full" height="218" version="1.1" width="259">
  <defs/>
  <path d="M 16.013309,121.868886 C 8.743327,120.382016 5.302327,112.244587 4.576459,94.822515 C 4.200911,85.808720 4.476757,83.009997 6.346823,76.860446 C 8.228359,70.673180 9.079591,69.273602 11.997755,67.569303 C 17.068020,64.608109 25.477445,64.770702 29.886332,67.915171 L 33.272665,70.330343 L 37.886332,68.497530 C 43.458633,66.283893 52.000000,65.319203 52.000000,66.903487 C 52.000000,68.451525 56.585855,68.265523 59.834215,66.585731 C 65.362754,63.726812 69.817372,63.572587 75.120615,66.056493 L 80.059375,68.369685 L 84.556439,66.184842 C 90.126382,63.478755 94.528222,63.414964 98.734120,65.979382 C 101.959122,67.945730 101.977950,67.945559 105.412820,65.918936 C 111.377422,62.399735 121.353534,63.414862 124.641787,67.875596 C 125.518997,69.065588 126.103986,69.158589 127.166306,68.276941 C 129.751322,66.131569 137.867000,63.929484 140.715109,64.600649 C 142.246799,64.961595 144.955682,66.131597 146.734850,67.200654 C 149.855627,69.075849 154.000000,68.949759 154.000000,66.979616 C 154.000000,65.368067 160.971210,64.040143 163.835107,65.106156 C 169.292458,67.137518 172.000000,68.509696 172.000000,69.244111 C 172.000000,70.964461 175.372978,69.794513 179.139372,66.767756 C 182.733609,63.879349 183.796163,63.550103 189.127943,63.672673 C 194.168635,63.788551 195.467595,64.212498 197.499460,66.404917 C 200.448950,69.587469 201.432601,69.595010 206.500000,66.473914 C 212.198970,62.963822 217.714835,63.273457 222.735021,67.385271 C 226.144039,70.177448 228.000000,72.505177 228.000000,73.988561 C 228.000000,74.874853 228.424937,76.027500 228.944303,76.550000 C 229.463670,77.072500 230.111852,82.337079 230.384708,88.249064 C 230.657563,94.161049 231.129571,99.400633 231.433614,99.892585 C 231.737656,100.384536 231.314474,102.691534 230.493209,105.019247 C 229.671944,107.346960 229.000000,110.258897 229.000000,111.490218 C 229.000000,112.721538 227.676403,115.244961 226.058674,117.097824 C 223.331549,120.221332 222.680704,120.466667 217.121497,120.466667 C 212.293136,120.466667 210.662752,120.031800 208.748372,118.233333 C 205.665378,115.337011 203.455707,115.415038 199.324441,118.566108 C 197.474053,119.977467 194.506577,121.360359 192.730050,121.639200 C 188.991719,122.225964 183.297748,120.091477 180.574710,117.082554 C 178.504309,114.794787 175.004539,114.272845 174.992198,116.250000 C 174.987907,116.937500 173.773193,118.062500 172.292833,118.750000 C 169.085202,120.239670 160.000000,120.424436 160.000000,119.000000 C 160.000000,118.450000 159.247933,118.000000 158.328741,118.000000 C 157.409548,118.000000 155.910130,117.323656 154.996700,116.497013 C 153.499361,115.141941 153.068925,115.293681 150.622942,118.038880 C 145.818080,123.431517 140.880064,123.904043 132.607793,119.762774 C 129.311731,118.112697 128.354457,118.007525 126.357793,119.076107 C 125.061007,119.770126 124.000000,120.711919 124.000000,121.168980 C 124.000000,121.626041 121.703821,122.000000 118.897380,122.000000 C 115.183904,122.000000 112.463330,121.251567 108.904142,119.250849 C 104.784167,116.934898 103.736701,116.701703 102.256762,117.770953 C 97.362165,121.307283 93.776861,122.197447 89.383048,120.967256 C 87.027436,120.307725 84.332846,118.920284 83.395071,117.884054 C 81.056560,115.300029 79.096686,115.571260 75.037774,119.040641 C 70.711266,122.738751 66.730255,122.863716 60.403975,119.500000 C 55.042741,116.649404 53.000000,116.362818 53.000000,118.461259 C 53.000000,119.356950 50.994542,120.518076 47.818499,121.461259 C 41.279283,123.403198 41.558593,123.419282 36.311217,120.798615 C 32.124849,118.707842 31.742498,118.679014 28.701685,120.224889 C 24.717375,122.250416 20.530940,122.792841 16.013309,121.868886" fill="none" stroke="black" stroke-width="5"/>
</svg>
