<?xml version="1.0" encoding="utf-8" ?>
<svg baseProfile="full" height="219" version="1.1" width="256" xmlns="http://www.w3.org/2000/svg" xmlns:ev="http://www.w3.org/2001/xml-events" xmlns:xlink="http://www.w3.org/1999/xlink"><defs /><rect fill="white" height="219" width="256" x="0" y="0" /><path d="M 217,158 L 209,169 L 210,197 L 223,203 L 227,165 Z" fill="none" stroke="black" stroke-width="1" /><path d="M 213,153 L 233,164 L 234,197 L 223,209 L 204,196 L 204,162 Z" fill="none" stroke="black" stroke-width="1" /><path d="M 70,121 L 63,127 L 62,154 L 73,166 L 81,157 L 82,129 Z" fill="none" stroke="black" stroke-width="1" /><path d="M 156,120 L 148,126 L 146,150 L 148,160 L 159,164 L 167,145 L 165,124 Z" fill="none" stroke="black" stroke-width="1" /><circle cx="155.5" cy="142.0" fill="none" r="28.35940170288086" stroke="black" stroke-width="1" /><path d="M 72,114 L 88,126 L 87,160 L 77,172 L 56,157 L 57,124 Z" fill="none" stroke="black" stroke-width="1" /><path d="M 209,32 L 201,41 L 201,69 L 212,76 L 218,37 Z" fill="none" stroke="black" stroke-width="1" /><path d="M 32,32 L 22,36 L 20,71 L 29,78 L 38,71 L 38,36 Z" fill="none" stroke="black" stroke-width="1" /><path d="M 29,26 L 44,34 L 45,71 L 34,84 L 18,79 L 15,35 Z" fill="none" stroke="black" stroke-width="1" /><path d="M 213,25 L 225,37 L 224,73 L 204,82 L 195,73 L 195,38 Z" fill="none" stroke="black" stroke-width="1" /><path d="M 0,0 L 0,218 L 255,218 L 255,0 Z" fill="none" stroke="black" stroke-width="1" /></svg>