<?xml version="1.0" encoding="utf-8" ?>
<svg xmlns="http://www.w3.org/2000/svg" xmlns:ev="http://www.w3.org/2001/xml-events" xmlns:xlink="http://www.w3.org/1999/xlink" baseProfile="full" height="218" version="1.1" width="254">
  <defs/>
  <path d="M 44.370048,205.559609 C 42.648574,204.810449 40.934517,203.703063 40.561031,203.098750 C 39.535319,201.439113 35.840233,201.775542 31.369363,203.935632 C 26.735086,206.174670 22.038055,205.587411 17.236891,202.168681 C 12.550824,198.831907 11.392619,193.429332 12.136826,178.378856 C 13.305005,154.754173 14.421624,151.996051 23.812856,149.538283 C 29.773212,147.978406 34.494142,148.935051 36.806704,152.171345 C 38.465868,154.493247 39.656502,154.467609 44.763864,152.000000 C 49.237294,149.838674 53.510975,149.399723 54.500000,151.000000 C 54.839919,151.550000 56.176474,152.000000 57.470123,152.000000 C 60.135142,152.000000 64.658213,156.790031 65.623009,160.634084 C 66.332016,163.458992 65.380774,190.119526 64.426448,194.170194 C 64.080448,195.638801 63.032732,197.663801 62.098189,198.670194 C 61.163647,199.676587 60.090568,201.307819 59.713569,202.295153 C 58.936695,204.329731 53.210881,207.019667 49.782119,206.960858 C 48.526953,206.939330 46.091522,206.308768 44.370048,205.559609" fill="none" stroke="black" stroke-width="5"/>
  <path d="M 156.928708,179.025980 C 154.964497,177.986263 152.771897,176.430079 152.056263,175.567793 C 150.185070,173.313143 148.862109,173.609464 145.661987,177.000000 C 143.216500,179.590998 142.116475,180.000000 137.593373,180.000000 C 133.333030,180.000000 131.623656,179.445670 128.428139,177.027820 C 126.267663,175.393121 124.247353,174.043121 123.938561,174.027820 C 123.629770,174.012519 122.290332,175.012500 120.962031,176.250000 C 117.235217,179.722055 110.484060,179.382559 106.161352,175.505716 C 101.004623,170.880878 100.014671,167.455592 100.592369,156.236758 C 100.868128,150.881541 101.112776,146.050000 101.136030,145.500000 C 101.159285,144.950000 100.854623,141.740477 100.459004,138.367728 C 99.835756,133.054379 100.039448,131.702120 101.984299,128.241725 C 105.656466,121.707986 113.672348,120.223367 122.186935,124.500000 C 124.924498,125.875000 127.605217,127.000000 128.144087,127.000000 C 128.682957,127.000000 131.475085,125.887688 134.348816,124.528196 C 139.008631,122.323750 140.002446,122.181828 143.536891,123.216091 C 145.716601,123.853925 148.694467,125.191237 150.154370,126.187895 C 152.933049,128.084864 156.000000,128.595155 156.000000,127.160515 C 156.000000,125.657397 160.995996,123.998294 165.297053,124.073088 C 167.612976,124.113362 170.846929,125.006370 172.500000,126.062076 C 177.422630,129.205830 177.593991,129.215251 181.510470,126.557457 C 189.300467,121.271022 201.813049,124.220958 204.595807,132.000000 C 206.144180,136.328389 206.329160,143.004043 204.997761,146.505889 C 204.446530,147.955737 203.826355,153.722532 203.619596,159.320989 C 203.216697,170.230335 202.344352,173.534375 199.170401,176.172480 C 194.343351,180.184599 186.070482,181.994778 183.994313,179.493147 C 183.312752,178.671916 182.338626,178.000000 181.829589,178.000000 C 181.320553,178.000000 179.851685,176.776532 178.565440,175.281182 L 176.226811,172.562365 L 172.110525,176.281182 C 169.753806,178.410337 166.961769,180.000000 165.578907,180.000000 C 164.250474,180.000000 162.564271,180.206184 161.831787,180.458187 C 161.099304,180.710189 158.892919,180.065696 156.928708,179.025980" fill="none" stroke="black" stroke-width="5"/>
  <path d="M 138.836077,96.086454 C 134.786355,95.264517 130.000000,92.496783 130.000000,90.976947 C 130.000000,89.319863 127.490683,89.894203 125.132714,92.090985 C 121.831118,95.166890 111.403893,95.135848 107.052188,92.037161 C 103.968515,89.841393 102.579532,90.048640 100.000000,93.089402 C 99.725000,93.413573 96.716116,94.218088 93.313590,94.877214 C 87.859191,95.933822 86.675936,95.864080 83.313590,94.287812 C 81.216116,93.304515 79.055792,91.487500 78.512872,90.250000 C 77.325820,87.544308 75.613564,87.386436 73.236490,89.763510 C 65.456420,97.543580 56.880739,98.050637 50.592652,91.102379 C 48.239059,88.501688 47.667402,88.498504 42.382972,91.056652 C 38.782847,92.799443 37.533963,92.951597 34.199353,92.053680 C 25.595581,89.736925 21.333830,81.973688 22.298236,70.374517 C 22.983140,62.136993 25.668103,43.839373 26.491808,41.795950 C 27.365558,39.628380 34.787671,36.000000 38.347843,36.000000 C 42.010876,36.000000 47.889834,38.549337 48.621047,40.454847 C 49.446950,42.607116 52.343395,42.383022 54.500000,40.000000 C 55.495486,38.900000 57.338673,38.000000 58.595971,38.000000 C 59.853268,38.000000 61.160081,37.550000 61.500000,37.000000 C 62.898117,34.737800 73.288780,37.306863 75.616550,40.490279 C 76.790862,42.096246 77.312615,41.999883 83.099164,39.108311 C 86.520318,37.398740 89.970734,36.000000 90.766755,36.000000 C 91.562776,36.000000 95.147599,37.400047 98.733030,39.111215 L 105.251994,42.222430 L 110.240832,40.611215 C 116.918354,38.454616 120.080434,38.579234 125.500717,41.212611 C 129.881929,43.341168 130.177357,43.360580 133.277469,41.723610 C 139.972627,38.188327 147.501358,38.977158 152.541662,43.742037 L 156.500000,47.484074 L 156.279992,67.569920 C 156.049924,88.574217 155.497114,91.562652 151.297618,94.504094 C 148.733290,96.300219 143.292963,96.991029 138.836077,96.086454" fill="none" stroke="black" stroke-width="5"/>
</svg>
