<?xml version="1.0" encoding="utf-8" ?>
<svg baseProfile="full" height="218" version="1.1" width="260" xmlns="http://www.w3.org/2000/svg" xmlns:ev="http://www.w3.org/2001/xml-events" xmlns:xlink="http://www.w3.org/1999/xlink"><defs /><rect fill="white" height="218" width="260" x="0" y="0" /><path d="M 85,65 L 77,65 L 69,71 L 68,104 L 78,108 L 90,103 L 92,69 Z" fill="none" stroke="black" stroke-width="5" /><path d="M 164,64 L 153,68 L 148,81 L 149,105 L 155,110 L 162,109 L 167,98 L 169,70 Z" fill="none" stroke="black" stroke-width="5" /><path d="M 111,64 L 103,64 L 97,74 L 95,99 L 102,109 L 110,107 L 116,95 L 116,72 Z" fill="none" stroke="black" stroke-width="5" /><path d="M 51,64 L 43,76 L 44,104 L 47,109 L 56,111 L 62,103 L 64,74 L 60,66 Z" fill="none" stroke="black" stroke-width="5" /><path d="M 32,64 L 23,64 L 18,70 L 18,103 L 26,109 L 32,107 L 38,97 L 39,81 Z" fill="none" stroke="black" stroke-width="5" /><path d="M 136,63 L 121,69 L 119,104 L 128,110 L 143,104 L 145,69 Z" fill="none" stroke="black" stroke-width="5" /><path d="M 0,0 L 0,217 L 259,217 L 259,0 Z" fill="none" stroke="black" stroke-width="5" /></svg>