<?xml version="1.0" encoding="utf-8" ?>
<svg xmlns="http://www.w3.org/2000/svg" xmlns:ev="http://www.w3.org/2001/xml-events" xmlns:xlink="http://www.w3.org/1999/xlink" baseProfile="full" height="223" version="1.1" width="256">
  <defs/>
  <path d="M 118.500000,214.170676 C 116.300000,213.151130 113.882400,211.570641 113.127555,210.658478 C 111.300063,208.450116 108.162670,208.574309 104.500000,211.000000 C 100.037135,213.955639 92.893017,213.720158 89.854960,210.517277 C 86.888850,207.390247 85.257689,207.387550 79.403975,210.500000 C 73.855819,213.449983 71.866989,213.590408 68.214817,211.290030 C 63.366770,208.236411 61.330666,205.607105 59.084752,199.500000 C 56.479924,192.416933 55.181237,175.554020 56.794034,169.755985 C 58.493731,163.645547 63.079211,157.464588 66.769593,156.309517 C 71.038633,154.973329 79.801406,156.510376 82.564451,159.080038 C 85.209424,161.539891 86.836361,161.502359 89.587256,158.918027 C 92.902107,155.803887 98.793918,155.372904 104.364582,157.837073 C 106.927055,158.970577 109.291454,160.595942 109.618801,161.448995 C 110.265044,163.133078 114.000000,163.620134 114.000000,162.020324 C 114.000000,160.370429 121.471732,157.120219 125.088084,157.196996 C 128.865285,157.277189 132.953977,159.034694 134.945277,161.434063 C 136.374593,163.156283 140.000000,163.576767 140.000000,162.020324 C 140.000000,160.507149 147.571346,157.000000 150.838038,157.000000 C 155.018929,157.000000 160.750528,159.638621 161.465946,161.892706 C 161.802274,162.952382 162.751295,164.378630 163.574882,165.062147 C 164.803250,166.081601 165.559943,165.864647 167.786156,163.854719 C 176.292573,156.174733 187.775538,156.740619 191.510768,165.023878 C 193.258538,168.899741 193.290731,177.962159 191.630812,198.816227 C 191.084790,205.676054 187.459353,212.559330 183.514280,214.226318 C 178.784423,216.224916 170.611228,215.647356 167.901707,213.123053 C 165.014216,210.432946 163.572610,210.455136 159.654370,213.250000 C 154.940664,216.612268 145.414612,216.316355 140.619178,212.658699 C 137.035416,209.925230 135.000000,209.297875 135.000000,210.926758 C 135.000000,212.166220 129.565100,214.816062 125.649341,215.485769 C 123.673752,215.823651 121.009210,215.333519 118.500000,214.170676" fill="none" stroke="black" stroke-width="5"/>
  <path d="M 44.750000,101.353344 C 43.787500,101.078348 43.000000,100.436348 43.000000,99.926676 C 43.000000,99.417004 42.384799,99.000000 41.632886,99.000000 C 39.651596,99.000000 35.253887,91.893915 33.894732,86.496224 C 33.141679,83.505578 32.903798,76.896576 33.226365,67.927086 C 33.697684,54.821333 33.886736,53.770941 36.436422,50.091744 C 39.756723,45.300547 43.611064,43.583342 49.543858,44.252054 C 52.894960,44.629772 54.821032,45.562504 57.035984,47.880238 C 58.675761,49.596107 60.492534,51.000000 61.073258,51.000000 C 61.653982,51.000000 63.265070,49.650000 64.653454,48.000000 C 66.892442,45.339114 67.796878,45.000000 72.654635,45.000000 C 78.566232,45.000000 81.436057,46.098293 84.143467,49.396821 C 85.708855,51.303985 86.085510,51.365843 88.184871,50.060531 C 94.362093,46.219741 98.028488,44.944879 99.945890,45.971041 C 101.003335,46.536969 102.953356,47.000000 104.279271,47.000000 C 105.605186,47.000000 107.504514,47.900000 108.500000,49.000000 C 110.855010,51.602256 113.741598,51.540681 115.927208,48.841567 C 117.142655,47.340553 119.321720,46.471880 123.081496,45.989545 C 129.754560,45.133470 134.309131,46.306244 136.848434,49.534445 C 139.260243,52.600563 140.878828,52.620885 143.722116,49.620747 C 146.456454,46.735570 154.358087,44.970344 158.550186,46.308155 C 160.172584,46.825905 162.649623,48.318377 164.054719,49.624760 C 167.309276,52.650672 168.388408,52.610583 170.744464,49.376239 C 172.466989,47.011592 173.314862,46.746276 179.329910,46.689688 C 184.689683,46.639265 186.586517,47.057514 188.961547,48.813450 C 192.566864,51.478975 193.458143,51.515260 196.845630,49.134415 C 200.835525,46.330176 207.953603,45.597509 212.711681,47.501314 C 218.777231,49.928266 221.000000,54.898776 221.000000,66.035484 C 221.000000,70.901049 220.616426,75.119028 220.147613,75.408770 C 219.678800,75.698513 219.015841,78.927440 218.674371,82.584166 C 217.825945,91.669754 215.545327,95.950435 210.000000,98.865807 C 205.974249,100.982284 205.056890,101.111248 201.295469,100.089506 C 198.982977,99.461347 195.754160,97.822575 194.120321,96.447790 C 191.255406,94.037123 191.102562,94.014969 189.824852,95.825176 C 187.734094,98.787277 182.499551,101.000000 177.582993,101.000000 C 173.754810,101.000000 172.533379,100.466712 169.566667,97.500000 C 165.640204,93.573537 163.475360,93.074219 162.730332,95.923210 C 162.449684,96.996409 160.143742,98.795636 157.512973,99.994090 C 150.979642,102.970366 146.036885,102.081273 142.019177,97.207098 L 139.037539,93.589853 L 136.268769,96.153646 C 132.283542,99.843842 122.408371,101.779657 118.329310,99.670293 C 116.693074,98.824162 114.769509,97.427202 114.054723,96.565937 C 112.353075,94.515576 110.181065,94.592741 106.500000,96.834331 C 102.600134,99.209160 96.279657,100.201927 93.609413,98.859075 C 92.449236,98.275629 90.301445,96.389328 88.836545,94.667296 L 86.173091,91.536328 L 84.367881,94.681725 C 81.483164,99.708054 77.820174,101.332921 71.230052,100.509539 C 66.853993,99.962787 65.028855,99.171896 62.910847,96.904562 C 59.736869,93.506807 59.000000,93.314703 59.000000,95.884990 C 59.000000,99.425817 50.039126,102.864500 44.750000,101.353344" fill="none" stroke="black" stroke-width="5"/>
</svg>
