<?xml version="1.0" encoding="utf-8" ?>
<svg baseProfile="full" height="221" version="1.1" width="259" xmlns="http://www.w3.org/2000/svg" xmlns:ev="http://www.w3.org/2001/xml-events" xmlns:xlink="http://www.w3.org/1999/xlink"><defs /><rect fill="white" height="221" width="259" x="0" y="0" /><path d="M 205,86 L 199,93 L 198,124 L 209,129 L 216,92 Z" fill="none" stroke="black" stroke-width="1" /><path d="M 179,86 L 175,121 L 188,129 L 192,94 Z" fill="none" stroke="black" stroke-width="1" /><path d="M 161,86 L 150,89 L 148,126 L 156,131 L 171,127 L 169,89 Z" fill="none" stroke="black" stroke-width="1" /><path d="M 110,86 L 103,90 L 103,121 L 114,129 L 120,95 Z" fill="none" stroke="black" stroke-width="1" /><path d="M 85,86 L 77,98 L 77,117 L 83,129 L 96,123 L 96,93 Z" fill="none" stroke="black" stroke-width="1" /><path d="M 138,85 L 129,89 L 125,102 L 127,124 L 134,129 L 142,125 L 144,89 Z" fill="none" stroke="black" stroke-width="1" /><path d="M 54,87 L 52,126 L 59,130 L 73,126 L 74,89 Z" fill="none" stroke="black" stroke-width="1" /><path d="M 13,85 L 7,93 L 7,117 L 12,127 L 20,127 L 24,88 Z" fill="none" stroke="black" stroke-width="1" /><path d="M 229,84 L 221,119 L 234,127 L 241,98 Z" fill="none" stroke="black" stroke-width="1" /><path d="M 39,84 L 30,92 L 30,123 L 43,129 L 50,98 Z" fill="none" stroke="black" stroke-width="1" /><path d="M 247,89 L 233,137 L 0,120 L 11,79 Z" fill="black" stroke="black" stroke-width="1" /><path d="M 0,0 L 0,220 L 258,220 L 258,0 Z" fill="none" stroke="black" stroke-width="1" /></svg>