<?xml version="1.0" encoding="utf-8" ?>
<svg baseProfile="full" height="221" version="1.1" width="259" xmlns="http://www.w3.org/2000/svg" xmlns:ev="http://www.w3.org/2001/xml-events" xmlns:xlink="http://www.w3.org/1999/xlink"><defs /><rect fill="white" height="221" width="259" x="0" y="0" /><path d="M 205,86 L 199,93 L 198,124 L 202,129 L 209,129 L 214,120 L 216,92 L 212,86 Z" fill="none" stroke="black" stroke-width="5" /><path d="M 179,86 L 174,94 L 175,121 L 180,129 L 188,129 L 192,94 L 187,86 Z" fill="none" stroke="black" stroke-width="5" /><path d="M 161,86 L 150,89 L 148,126 L 156,131 L 171,127 L 167,110 L 169,89 Z" fill="none" stroke="black" stroke-width="5" /><path d="M 110,86 L 103,90 L 103,121 L 107,127 L 114,129 L 119,121 L 120,95 L 118,89 Z" fill="none" stroke="black" stroke-width="5" /><path d="M 85,86 L 77,98 L 77,117 L 83,129 L 90,129 L 96,123 L 96,93 L 90,86 Z" fill="none" stroke="black" stroke-width="5" /><path d="M 138,85 L 129,89 L 125,102 L 127,124 L 134,129 L 142,125 L 145,112 L 144,89 Z" fill="none" stroke="black" stroke-width="5" /><path d="M 65,85 L 54,87 L 56,114 L 52,126 L 59,130 L 73,126 L 71,97 L 74,89 Z" fill="none" stroke="black" stroke-width="5" /><path d="M 13,85 L 7,93 L 7,117 L 12,127 L 20,127 L 24,116 L 24,88 Z" fill="none" stroke="black" stroke-width="5" /><path d="M 229,84 L 223,90 L 221,119 L 224,126 L 234,127 L 240,117 L 241,98 L 240,90 Z" fill="none" stroke="black" stroke-width="5" /><path d="M 39,84 L 30,92 L 30,123 L 36,129 L 43,129 L 49,117 L 50,98 L 46,86 Z" fill="none" stroke="black" stroke-width="5" /><path d="M 0,0 L 0,220 L 258,220 L 258,0 Z" fill="none" stroke="black" stroke-width="5" /></svg>