<?xml version="1.0" encoding="utf-8" ?>
<svg baseProfile="full" height="219" version="1.1" width="261" xmlns="http://www.w3.org/2000/svg" xmlns:ev="http://www.w3.org/2001/xml-events" xmlns:xlink="http://www.w3.org/1999/xlink"><defs /><rect fill="white" height="219" width="261" x="0" y="0" /><path d="M 144,159 L 136,168 L 138,203 L 151,193 L 153,169 Z" fill="none" stroke="black" stroke-width="5" /><path d="M 94,158 L 88,199 L 99,201 L 104,168 Z" fill="none" stroke="black" stroke-width="5" /><path d="M 118,157 L 112,200 L 121,202 L 129,166 Z" fill="none" stroke="black" stroke-width="5" /><path d="M 141,62 L 135,67 L 134,103 L 145,107 L 152,70 Z" fill="none" stroke="black" stroke-width="5" /><path d="M 90,62 L 84,100 L 95,108 L 103,69 Z" fill="none" stroke="black" stroke-width="5" /><path d="M 192,61 L 184,65 L 182,102 L 195,108 L 205,76 L 203,65 Z" fill="none" stroke="black" stroke-width="5" /><path d="M 169,61 L 158,72 L 158,101 L 166,108 L 178,88 L 179,69 Z" fill="none" stroke="black" stroke-width="5" /><path d="M 108,65 L 106,105 L 114,110 L 128,104 L 130,64 Z" fill="none" stroke="black" stroke-width="5" /><path d="M 72,61 L 60,70 L 58,101 L 64,108 L 77,99 L 78,68 Z" fill="none" stroke="black" stroke-width="5" /><path d="M 44,61 L 36,67 L 35,100 L 46,108 L 53,105 L 55,65 Z" fill="none" stroke="black" stroke-width="5" /><path d="M 0,0 L 0,218 L 260,218 L 260,0 Z" fill="none" stroke="black" stroke-width="5" /></svg>