<?xml version="1.0" encoding="utf-8" ?>
<svg baseProfile="full" height="218" version="1.1" width="254" xmlns="http://www.w3.org/2000/svg" xmlns:ev="http://www.w3.org/2001/xml-events" xmlns:xlink="http://www.w3.org/1999/xlink"><defs /><rect fill="white" height="218" width="254" x="0" y="0" /><path d="M 50,156 L 42,162 L 39,181 L 44,197 L 52,200 L 59,190 L 60,166 Z" fill="none" stroke="black" stroke-width="5" /><path d="M 30,154 L 18,164 L 17,191 L 24,199 L 36,196 L 37,159 Z" fill="none" stroke="black" stroke-width="5" /><path d="M 143,130 L 134,132 L 128,146 L 129,166 L 136,173 L 147,158 L 149,135 Z" fill="none" stroke="black" stroke-width="5" /><path d="M 192,129 L 179,134 L 177,168 L 187,174 L 197,168 L 200,138 Z" fill="none" stroke="black" stroke-width="5" /><path d="M 165,129 L 154,140 L 154,167 L 160,173 L 169,170 L 173,135 Z" fill="none" stroke="black" stroke-width="5" /><path d="M 113,127 L 105,134 L 105,163 L 116,172 L 123,168 L 126,132 Z" fill="none" stroke="black" stroke-width="5" /><path d="M 138,45 L 131,48 L 130,85 L 146,90 L 151,53 Z" fill="none" stroke="black" stroke-width="5" /><path d="M 117,44 L 110,48 L 106,69 L 114,89 L 123,86 L 125,51 Z" fill="none" stroke="black" stroke-width="5" /><path d="M 67,43 L 58,45 L 54,85 L 64,89 L 73,73 Z" fill="none" stroke="black" stroke-width="5" /><path d="M 93,42 L 84,46 L 80,61 L 88,89 L 97,83 L 101,59 Z" fill="none" stroke="black" stroke-width="5" /><path d="M 34,42 L 27,75 L 39,86 L 48,83 L 50,47 Z" fill="none" stroke="black" stroke-width="5" /><path d="M 0,0 L 0,217 L 253,217 L 253,0 Z" fill="none" stroke="black" stroke-width="5" /></svg>