<?xml version="1.0" encoding="utf-8" ?>
<svg xmlns="http://www.w3.org/2000/svg" xmlns:ev="http://www.w3.org/2001/xml-events" xmlns:xlink="http://www.w3.org/1999/xlink" baseProfile="full" height="218" version="1.1" width="255">
  <defs/>
  <path d="M 88.976036,189.750000 C 82.548258,185.393472 81.871161,182.818215 82.332631,164.482590 C 82.734432,148.517815 82.801526,148.095665 85.543301,144.281358 C 88.851418,139.679166 91.984953,138.000000 97.265106,138.000000 C 107.620071,138.000000 112.447348,145.983831 110.869318,160.500000 C 110.510580,163.800000 110.168227,170.376814 110.108534,175.115141 C 110.019985,182.143891 109.627184,184.204242 107.975365,186.304189 C 103.397141,192.124458 94.784162,193.686549 88.976036,189.750000" fill="none" stroke="black" stroke-width="5"/>
  <path d="M 169.491614,124.525002 C 162.254487,121.316921 160.026130,114.785004 160.010824,96.734251 C 159.998424,82.110365 161.144073,77.230965 165.606917,72.900080 C 168.037546,70.541321 169.887755,69.767630 174.106917,69.345689 C 178.937484,68.862604 179.883999,69.103282 183.181558,71.653175 C 189.290120,76.376721 190.257500,79.755498 189.608636,94.101089 C 188.286114,123.340441 188.208972,123.506160 175.000000,125.484191 C 173.625000,125.690096 171.146226,125.258461 169.491614,124.525002" fill="none" stroke="black" stroke-width="5"/>
  <path d="M 60.720894,84.903613 C 59.742386,84.334049 57.819920,82.090889 56.448748,79.918812 C 54.040170,76.103378 53.951574,75.349594 53.833671,57.669659 C 53.696255,37.063671 53.970701,36.070843 60.877221,32.189162 C 65.718732,29.468080 67.786746,29.447695 72.655499,32.073059 C 80.051105,36.060970 80.202366,36.611631 80.261769,59.763546 L 80.314651,80.373948 L 76.945100,83.186974 C 74.127065,85.539574 72.669145,85.995023 68.037774,85.969591 C 64.991998,85.952867 61.699402,85.473176 60.720894,84.903613" fill="none" stroke="black" stroke-width="5"/>
</svg>
