<?xml version="1.0" encoding="utf-8" ?>
<svg baseProfile="full" height="220" version="1.1" width="256" xmlns="http://www.w3.org/2000/svg" xmlns:ev="http://www.w3.org/2001/xml-events" xmlns:xlink="http://www.w3.org/1999/xlink"><defs /><rect fill="white" height="220" width="256" x="0" y="0" /><path d="M 66,144 L 62,183 L 72,186 L 79,149 Z" fill="none" stroke="black" stroke-width="1" /><path d="M 154,142 L 138,152 L 138,184 L 145,188 L 155,179 Z" fill="none" stroke="black" stroke-width="1" /><path d="M 94,142 L 86,150 L 88,183 L 98,187 L 105,178 L 106,149 Z" fill="none" stroke="black" stroke-width="1" /><path d="M 41,142 L 36,185 L 46,187 L 55,151 Z" fill="none" stroke="black" stroke-width="1" /><path d="M 126,141 L 112,146 L 110,183 L 120,188 L 132,182 L 134,147 Z" fill="none" stroke="black" stroke-width="1" /><path d="M 179,140 L 165,152 L 168,187 L 183,178 L 185,146 Z" fill="none" stroke="black" stroke-width="1" /><path d="M 200,139 L 191,143 L 188,180 L 198,186 L 208,173 L 208,146 Z" fill="none" stroke="black" stroke-width="1" /><path d="M 214,143 L 201,193 L 28,183 L 41,135 Z" fill="black" stroke="black" stroke-width="1" /><path d="M 53,45 L 48,84 L 58,90 L 65,81 L 65,52 Z" fill="none" stroke="black" stroke-width="1" /><path d="M 155,43 L 147,50 L 150,87 L 159,86 L 164,70 L 163,49 Z" fill="none" stroke="black" stroke-width="1" /><path d="M 128,43 L 121,76 L 124,87 L 132,89 L 140,56 Z" fill="none" stroke="black" stroke-width="1" /><path d="M 107,43 L 95,48 L 93,85 L 103,90 L 116,86 L 117,46 Z" fill="none" stroke="black" stroke-width="1" /><path d="M 82,43 L 73,52 L 76,90 L 87,86 L 89,47 Z" fill="none" stroke="black" stroke-width="1" /><path d="M 170,46 L 159,94 L 41,87 L 53,38 Z" fill="black" stroke="black" stroke-width="1" /><path d="M 0,0 L 0,219 L 255,219 L 255,0 Z" fill="none" stroke="black" stroke-width="1" /></svg>