<?xml version="1.0" encoding="utf-8" ?>
<svg xmlns="http://www.w3.org/2000/svg" xmlns:ev="http://www.w3.org/2001/xml-events" xmlns:xlink="http://www.w3.org/1999/xlink" baseProfile="full" height="218" version="1.1" width="260">
  <defs/>
  <path d="M 152.917033,116.747346 C 150.839061,116.156677 148.528832,114.526902 147.417033,112.867314 C 145.348476,109.779570 142.558305,109.102697 141.650500,111.468400 C 140.850438,113.553326 134.458741,116.000000 129.812135,116.000000 C 125.409797,116.000000 122.370506,114.679124 119.979974,111.726942 C 118.548552,109.959210 118.116351,109.894704 115.938570,111.123762 C 114.597356,111.880693 113.275000,112.750548 113.000000,113.056774 C 112.725000,113.363000 111.044999,114.201988 109.266665,114.921191 C 104.836276,116.712954 99.711627,115.563714 95.451143,111.822959 L 91.945047,108.744566 L 86.880237,111.372283 C 79.620982,115.138519 74.650608,114.809180 68.840561,110.176969 C 67.446800,109.065757 67.041979,109.102570 66.312038,110.406903 C 64.269784,114.056208 58.693361,117.002128 54.055720,116.881685 C 46.916537,116.696276 44.027825,115.712295 42.686115,113.008858 C 41.425391,110.468601 38.239293,109.119330 37.119827,110.651607 C 36.778922,111.118223 35.002865,112.333401 33.173033,113.352002 C 26.889484,116.849825 18.613323,113.964513 14.132126,106.713784 C 11.791212,102.926105 11.519825,98.209858 12.579109,79.724901 C 13.299619,67.151710 13.361733,66.896209 16.509225,63.558896 C 18.268145,61.693897 21.541703,59.618378 23.783799,58.946629 C 27.443718,57.850091 28.301819,57.954355 32.180168,59.966833 C 34.556076,61.199693 36.859861,62.836507 37.299690,63.604198 C 38.500898,65.700821 41.221922,65.258730 43.790585,62.549609 C 45.407423,60.844360 47.655178,59.937112 51.432440,59.465174 C 57.932546,58.653039 60.102740,59.273298 64.611183,63.231763 L 68.090954,66.287043 L 70.795477,63.707140 C 72.282965,62.288193 74.840574,60.620558 76.479053,60.001283 C 80.479265,58.489376 88.378594,59.655873 90.574961,62.082831 C 92.991958,64.753583 95.894473,64.475283 99.260944,61.250000 C 103.364764,57.318291 111.106384,57.318291 116.261120,61.250000 C 118.244110,62.762500 120.073991,64.000000 120.327523,64.000000 C 120.581054,64.000000 122.233669,62.650000 124.000000,61.000000 C 128.997727,56.331424 138.722367,56.366452 143.216583,61.069218 C 146.089121,64.075053 148.400487,64.779049 149.508832,62.985710 C 150.728498,61.012249 157.968616,58.000000 161.492281,58.000000 C 166.858639,58.000000 171.642910,60.408783 173.531912,64.061710 C 175.031308,66.961223 175.083857,68.980375 174.060978,84.390488 C 172.723225,104.544303 172.412650,106.465375 169.795583,110.774244 C 166.513235,116.178465 159.565483,118.637185 152.917033,116.747346" fill="none" stroke="black" stroke-width="5"/>
</svg>
