<?xml version="1.0" encoding="utf-8" ?>
<svg baseProfile="full" height="216" version="1.1" width="259" xmlns="http://www.w3.org/2000/svg" xmlns:ev="http://www.w3.org/2001/xml-events" xmlns:xlink="http://www.w3.org/1999/xlink"><defs /><rect fill="white" height="216" width="259" x="0" y="0" /><path d="M 179,121 L 182,129 L 189,134 L 201,131 L 200,119 L 194,114 L 187,114 Z" fill="none" stroke="black" stroke-width="5" /><path d="M 98,111 L 89,115 L 91,124 L 95,128 L 101,130 L 108,125 L 111,119 L 105,112 Z" fill="none" stroke="black" stroke-width="5" /><path d="M 63,44 L 53,47 L 49,52 L 51,61 L 56,65 L 64,62 L 68,57 L 68,51 Z" fill="none" stroke="black" stroke-width="5" /><path d="M 0,0 L 0,215 L 258,215 L 258,0 Z" fill="none" stroke="black" stroke-width="5" /></svg>