<?xml version="1.0" encoding="utf-8" ?>
<svg baseProfile="full" height="221" version="1.1" width="260" xmlns="http://www.w3.org/2000/svg" xmlns:ev="http://www.w3.org/2001/xml-events" xmlns:xlink="http://www.w3.org/1999/xlink"><defs /><rect fill="white" height="221" width="260" x="0" y="0" /><path d="M 170,167 L 156,181 L 158,196 L 170,206 L 186,204 L 195,194 L 195,178 L 186,169 Z" fill="none" stroke="black" stroke-width="5" /><path d="M 89,133 L 74,133 L 62,144 L 60,157 L 69,170 L 86,172 L 99,161 L 99,142 Z" fill="none" stroke="black" stroke-width="5" /><path d="M 189,87 L 179,96 L 178,114 L 189,124 L 204,124 L 216,112 L 216,99 L 204,87 Z" fill="none" stroke="black" stroke-width="5" /><path d="M 98,35 L 86,39 L 78,49 L 82,68 L 96,76 L 111,72 L 119,58 L 113,41 Z" fill="none" stroke="black" stroke-width="5" /><path d="M 0,0 L 0,220 L 259,220 L 259,0 Z" fill="none" stroke="black" stroke-width="5" /></svg>