<?xml version="1.0" encoding="utf-8" ?>
<svg xmlns="http://www.w3.org/2000/svg" xmlns:ev="http://www.w3.org/2001/xml-events" xmlns:xlink="http://www.w3.org/1999/xlink" baseProfile="full" height="216" version="1.1" width="259">
  <defs/>
  <path d="M 203.666667,195.333333 C 202.404779,194.071445 203.006300,192.285247 205.655948,189.426230 C 215.404026,178.907880 216.751409,157.293205 208.567290,142.722606 C 205.233264,136.786872 203.989600,136.250097 198.297801,138.290213 C 193.026675,140.179546 186.593161,140.536356 184.707794,139.043930 C 179.238984,134.714908 176.923934,131.887851 175.664023,128.000000 C 174.206399,123.502041 174.203083,123.499639 168.352869,122.704848 C 159.845833,121.549110 120.088164,122.387238 116.750000,123.792683 C 115.237500,124.429482 114.000000,125.640732 114.000000,126.484351 C 114.000000,128.269106 109.483136,133.187795 106.315741,134.852208 C 103.758262,136.196121 95.000000,136.404411 95.000000,135.121320 C 95.000000,134.638047 93.718013,133.711624 92.151141,133.062605 C 89.083367,131.791891 85.000000,125.547212 85.000000,122.126390 C 85.000000,120.776951 83.625910,119.157664 81.159695,117.600811 C 79.047527,116.267458 76.685027,114.574313 75.909695,113.838266 C 75.134363,113.102220 72.867549,111.281587 70.872331,109.792415 C 68.877113,108.303243 65.851447,104.928243 64.148628,102.292415 C 62.445809,99.656587 60.703260,97.050000 60.276297,96.500000 C 58.214907,93.844586 53.050704,76.626627 53.017099,72.297123 C 53.006582,70.942234 51.460217,68.856843 49.000000,66.879759 C 46.800000,65.111790 45.000000,62.867143 45.000000,61.891652 C 45.000000,60.916162 44.498574,59.808136 43.885720,59.429371 C 42.115247,58.335158 43.547172,51.282661 46.421770,46.938848 C 49.042271,42.979005 54.227949,40.000000 58.500514,40.000000 C 60.054387,40.000000 62.077730,38.287805 65.000000,34.500000 C 67.333770,31.475000 69.530593,29.000000 69.881828,29.000000 C 70.233063,29.000000 71.763011,27.847820 73.281712,26.439601 C 74.800414,25.031381 79.965830,21.860889 84.760415,19.394062 C 94.809118,14.223978 99.500000,13.768173 99.500000,17.961842 C 99.500000,20.045750 98.655659,20.719383 94.000000,22.349857 C 89.391549,23.963798 80.828351,28.864313 79.000000,30.934001 C 78.725000,31.245301 76.362500,33.217627 73.750000,35.316950 C 68.667163,39.401356 67.647488,42.633446 70.654904,45.127555 C 72.634837,46.769553 75.000000,52.131863 75.000000,54.978780 C 75.000000,56.102439 74.077879,58.983524 72.950843,61.381191 C 70.939053,65.661091 66.976110,68.371578 61.500000,69.213092 C 58.454709,69.681061 58.583585,72.806053 62.073316,83.114918 C 66.221666,95.369383 73.275251,104.961274 80.443630,108.095981 C 81.574634,108.590565 83.290543,109.558417 84.256762,110.246763 C 85.727982,111.294878 86.808438,111.051458 90.904142,108.749151 C 94.643701,106.647042 97.131500,106.000000 101.474303,106.000000 C 107.407877,106.000000 107.743039,106.209454 114.309805,114.021343 C 115.716413,115.694658 117.777636,115.811581 141.640895,115.571703 C 155.836255,115.429008 169.036747,115.678108 170.975321,116.125258 C 175.617509,117.196021 177.155520,116.612328 179.203490,113.002573 C 180.200996,111.244368 181.730664,110.000000 182.894473,110.000000 C 183.987594,110.000000 185.160081,109.550000 185.500000,109.000000 C 186.418001,107.514644 193.252168,107.789589 197.283699,109.474070 C 199.224069,110.284809 202.204025,112.637339 203.905823,114.701914 C 206.672787,118.058722 207.000000,119.153417 207.000000,125.053530 C 207.000000,130.887964 207.303108,131.931879 209.619648,134.075686 C 219.192231,142.934487 223.425736,160.589389 219.547668,175.478301 C 216.266824,188.074309 207.441455,199.108122 203.666667,195.333333" fill="none" stroke="black" stroke-width="5"/>
</svg>
