<?xml version="1.0" encoding="utf-8" ?>
<svg baseProfile="full" height="219" version="1.1" width="256" xmlns="http://www.w3.org/2000/svg" xmlns:ev="http://www.w3.org/2001/xml-events" xmlns:xlink="http://www.w3.org/1999/xlink"><defs /><rect fill="white" height="219" width="256" x="0" y="0" /><circle cx="201.5" cy="190.5" fill="none" r="5.147915363311768" stroke="black" stroke-width="1" /><circle cx="227.5" cy="181.5" fill="none" r="5.147915363311768" stroke="black" stroke-width="1" /><circle cx="179.8333282470703" cy="173.1666717529297" fill="none" r="5.296855926513672" stroke="black" stroke-width="1" /><circle cx="239.0737762451172" cy="154.82786560058594" fill="none" r="5.254505157470703" stroke="black" stroke-width="1" /><circle cx="159.14999389648438" cy="153.0" fill="none" r="5.246294975280762" stroke="black" stroke-width="1" /><circle cx="12.699999809265137" cy="128.10000610351562" fill="none" r="5.37597131729126" stroke="black" stroke-width="1" /><circle cx="140.734375" cy="126.0625" fill="none" r="5.1155877113342285" stroke="black" stroke-width="1" /><circle cx="123.5" cy="101.5" fill="none" r="5.700977325439453" stroke="black" stroke-width="1" /><circle cx="16.7391300201416" cy="97.34782409667969" fill="none" r="5.018969535827637" stroke="black" stroke-width="1" /><circle cx="149.5" cy="83.5" fill="none" r="5.147915363311768" stroke="black" stroke-width="1" /><circle cx="108.30000305175781" cy="78.9000015258789" fill="none" r="5.375970840454102" stroke="black" stroke-width="1" /><circle cx="23.842105865478516" cy="68.57894897460938" fill="none" r="5.486169815063477" stroke="black" stroke-width="1" /><circle cx="172.0" cy="59.0" fill="none" r="5.385264873504639" stroke="black" stroke-width="1" /><circle cx="80.2272720336914" cy="57.5" fill="none" r="5.794441223144531" stroke="black" stroke-width="1" /><circle cx="49.342105865478516" cy="52.73684310913086" fill="none" r="5.431682109832764" stroke="black" stroke-width="1" /><circle cx="243.24545288085938" cy="41.42727279663086" fill="none" r="4.964254379272461" stroke="black" stroke-width="1" /><circle cx="194.91378784179688" cy="40.36206817626953" fill="none" r="5.343539714813232" stroke="black" stroke-width="1" /><circle cx="217.4545440673828" cy="21.136363983154297" fill="none" r="5.448013782501221" stroke="black" stroke-width="1" /><path d="M 0,0 L 0,218 L 255,218 L 255,0 Z" fill="none" stroke="black" stroke-width="1" /></svg>