<?xml version="1.0" encoding="utf-8" ?>
<svg baseProfile="full" height="218" version="1.1" width="263" xmlns="http://www.w3.org/2000/svg" xmlns:ev="http://www.w3.org/2001/xml-events" xmlns:xlink="http://www.w3.org/1999/xlink"><defs /><rect fill="white" height="218" width="263" x="0" y="0" /><path d="M 127,190 L 125,192 L 125,196 L 127,199 L 131,199 L 133,198 L 135,195 L 135,192 L 133,190 Z" fill="none" stroke="black" stroke-width="5" /><path d="M 159,189 L 157,191 L 157,192 L 159,195 L 161,195 L 163,193 L 163,190 L 162,189 Z" fill="none" stroke="black" stroke-width="5" /><path d="M 97,188 L 95,190 L 95,195 L 96,197 L 102,197 L 105,193 L 104,190 L 102,188 Z" fill="none" stroke="black" stroke-width="5" /><path d="M 73,187 L 70,186 L 67,187 L 64,190 L 66,195 L 68,196 L 73,195 L 74,193 Z" fill="none" stroke="black" stroke-width="5" /><path d="M 184,184 L 181,187 L 181,190 L 184,193 L 188,193 L 191,190 L 191,186 L 189,184 Z" fill="none" stroke="black" stroke-width="5" /><path d="M 34,186 L 35,192 L 36,193 L 41,193 L 43,192 L 44,189 L 43,185 L 41,184 L 36,184 Z" fill="none" stroke="black" stroke-width="5" /><path d="M 208,178 L 206,180 L 206,182 L 205,183 L 208,187 L 211,187 L 214,185 L 215,180 L 213,178 Z" fill="none" stroke="black" stroke-width="5" /><path d="M 228,159 L 226,160 L 225,166 L 228,169 L 230,169 L 233,167 L 235,163 L 233,160 Z" fill="none" stroke="black" stroke-width="5" /><path d="M 27,158 L 26,159 L 26,163 L 28,167 L 33,167 L 36,163 L 35,159 L 34,158 Z" fill="none" stroke="black" stroke-width="5" /><path d="M 231,132 L 229,134 L 229,140 L 230,141 L 235,141 L 237,139 L 238,136 L 237,134 L 233,132 Z" fill="none" stroke="black" stroke-width="5" /><path d="M 107,115 L 105,118 L 107,121 L 111,121 L 112,120 L 112,116 L 111,115 Z" fill="none" stroke="black" stroke-width="5" /><path d="M 81,112 L 77,111 L 72,115 L 72,117 L 75,121 L 79,121 L 82,117 Z" fill="none" stroke="black" stroke-width="5" /><path d="M 232,103 L 228,106 L 228,108 L 230,112 L 235,113 L 238,109 L 238,106 L 237,104 Z" fill="none" stroke="black" stroke-width="5" /><path d="M 132,102 L 129,106 L 129,109 L 131,111 L 137,111 L 138,110 L 138,104 L 137,102 Z" fill="none" stroke="black" stroke-width="5" /><path d="M 50,103 L 50,107 L 53,110 L 58,109 L 59,107 L 59,103 L 57,101 L 53,101 Z" fill="none" stroke="black" stroke-width="5" /><path d="M 157,81 L 152,82 L 150,86 L 150,88 L 154,91 L 157,91 L 160,87 L 160,84 L 159,82 Z" fill="none" stroke="black" stroke-width="5" /><path d="M 235,76 L 232,76 L 229,78 L 229,83 L 230,85 L 232,86 L 236,85 L 238,83 L 238,80 Z" fill="none" stroke="black" stroke-width="5" /><path d="M 62,76 L 59,80 L 60,83 L 62,85 L 67,85 L 69,83 L 69,79 L 66,76 Z" fill="none" stroke="black" stroke-width="5" /><path d="M 173,62 L 171,64 L 171,68 L 175,71 L 177,71 L 180,67 L 180,64 L 178,62 Z" fill="none" stroke="black" stroke-width="5" /><path d="M 79,51 L 76,54 L 76,58 L 80,60 L 84,60 L 85,59 L 85,52 L 83,51 Z" fill="none" stroke="black" stroke-width="5" /><path d="M 225,46 L 222,49 L 222,52 L 224,55 L 229,55 L 231,53 L 231,48 L 228,46 Z" fill="none" stroke="black" stroke-width="5" /><path d="M 196,44 L 193,47 L 193,50 L 195,53 L 200,53 L 203,50 L 203,48 L 202,46 L 198,44 Z" fill="none" stroke="black" stroke-width="5" /><path d="M 98,32 L 96,35 L 96,39 L 98,41 L 103,41 L 105,39 L 105,34 L 103,32 Z" fill="none" stroke="black" stroke-width="5" /><path d="M 125,12 L 121,12 L 118,15 L 118,19 L 122,22 L 125,21 L 128,17 L 127,14 Z" fill="none" stroke="black" stroke-width="5" /><path d="M 0,0 L 0,217 L 262,217 L 262,0 Z" fill="none" stroke="black" stroke-width="5" /></svg>