<?xml version="1.0" encoding="utf-8" ?>
<svg baseProfile="full" height="217" version="1.1" width="256" xmlns="http://www.w3.org/2000/svg" xmlns:ev="http://www.w3.org/2001/xml-events" xmlns:xlink="http://www.w3.org/1999/xlink"><defs /><rect fill="white" height="217" width="256" x="0" y="0" /><circle cx="166.1666717529297" cy="201.5" fill="none" r="3.2059926986694336" stroke="black" stroke-width="1" /><circle cx="194.77272033691406" cy="200.77272033691406" fill="none" r="5.519791126251221" stroke="black" stroke-width="1" /><circle cx="135.5" cy="199.5" fill="none" r="5.700977325439453" stroke="black" stroke-width="1" /><circle cx="166.33673095703125" cy="201.25509643554688" fill="black" r="10.363636016845703" stroke="black" stroke-width="1" /><circle cx="17.38888931274414" cy="197.5" fill="none" r="5.633443832397461" stroke="black" stroke-width="1" /><circle cx="194.3474578857422" cy="200.82203674316406" fill="black" r="10.518037796020508" stroke="black" stroke-width="1" /><circle cx="135.11111450195312" cy="199.37037658691406" fill="black" r="10.385345458984375" stroke="black" stroke-width="1" /><circle cx="17.5" cy="197.5" fill="black" r="10.79361629486084" stroke="black" stroke-width="1" /><circle cx="20.85714340209961" cy="170.0" fill="none" r="5.75885534286499" stroke="black" stroke-width="1" /><circle cx="20.5" cy="169.7857208251953" fill="black" r="10.392892837524414" stroke="black" stroke-width="1" /><circle cx="136.2857208251953" cy="165.07142639160156" fill="none" r="5.626652240753174" stroke="black" stroke-width="1" /><circle cx="136.5" cy="165.2142791748047" fill="black" r="10.392892837524414" stroke="black" stroke-width="1" /><circle cx="25.384614944458008" cy="143.15383911132812" fill="none" r="5.506949424743652" stroke="black" stroke-width="1" /><circle cx="25.176469802856445" cy="143.86764526367188" fill="black" r="10.983582496643066" stroke="black" stroke-width="1" /><circle cx="161.28125" cy="137.5625" fill="none" r="5.311221122741699" stroke="black" stroke-width="1" /><circle cx="190.7857208251953" cy="134.64285278320312" fill="none" r="3.2341599464416504" stroke="black" stroke-width="1" /><circle cx="136.5" cy="135.0" fill="none" r="5.590270042419434" stroke="black" stroke-width="1" /><circle cx="161.13792419433594" cy="137.5402374267578" fill="black" r="10.451431274414062" stroke="black" stroke-width="1" /><circle cx="136.34873962402344" cy="134.82772827148438" fill="black" r="10.38270092010498" stroke="black" stroke-width="1" /><circle cx="191.11764526367188" cy="134.26470947265625" fill="black" r="10.480966567993164" stroke="black" stroke-width="1" /><circle cx="32.16666793823242" cy="115.5" fill="none" r="3.20599627494812" stroke="black" stroke-width="1" /><circle cx="219.23973083496094" cy="116.89726257324219" fill="none" r="5.572738170623779" stroke="black" stroke-width="1" /><circle cx="218.92857360839844" cy="117.07142639160156" fill="black" r="10.392897605895996" stroke="black" stroke-width="1" /><circle cx="32.134979248046875" cy="115.09315490722656" fill="black" r="10.31290054321289" stroke="black" stroke-width="1" /><circle cx="135.31817626953125" cy="101.0" fill="none" r="5.681923866271973" stroke="black" stroke-width="1" /><circle cx="134.974365234375" cy="101.0897445678711" fill="black" r="10.36193561553955" stroke="black" stroke-width="1" /><circle cx="44.95454406738281" cy="91.40908813476562" fill="none" r="5.509293556213379" stroke="black" stroke-width="1" /><circle cx="44.828243255615234" cy="91.40076446533203" fill="black" r="10.466659545898438" stroke="black" stroke-width="1" /><circle cx="226.28378295898438" cy="86.17567443847656" fill="none" r="5.332616806030273" stroke="black" stroke-width="1" /><circle cx="226.1144561767578" cy="86.21084594726562" fill="black" r="10.27157974243164" stroke="black" stroke-width="1" /><circle cx="73.5" cy="75.5" fill="none" r="5.700977325439453" stroke="black" stroke-width="1" /><circle cx="73.61475372314453" cy="75.54098510742188" fill="black" r="10.5985107421875" stroke="black" stroke-width="1" /><circle cx="135.3000030517578" cy="69.69999694824219" fill="none" r="5.420428276062012" stroke="black" stroke-width="1" /><circle cx="104.5" cy="70.5" fill="none" r="5.700977325439453" stroke="black" stroke-width="1" /><circle cx="136.0" cy="70.0" fill="black" r="10.440406799316406" stroke="black" stroke-width="1" /><circle cx="104.84517669677734" cy="70.18020629882812" fill="black" r="10.346172332763672" stroke="black" stroke-width="1" /><circle cx="227.5" cy="54.0" fill="none" r="5.590270042419434" stroke="black" stroke-width="1" /><circle cx="227.44595336914062" cy="54.75225067138672" fill="black" r="10.308359146118164" stroke="black" stroke-width="1" /><circle cx="133.0" cy="44.0" fill="none" r="5.099119663238525" stroke="black" stroke-width="1" /><circle cx="133.44737243652344" cy="43.97368240356445" fill="black" r="10.346258163452148" stroke="black" stroke-width="1" /><circle cx="228.875" cy="25.5" fill="none" r="5.4787516593933105" stroke="black" stroke-width="1" /><circle cx="228.88888549804688" cy="25.44444465637207" fill="black" r="10.186629295349121" stroke="black" stroke-width="1" /><circle cx="133.0" cy="15.5" fill="none" r="5.4084272384643555" stroke="black" stroke-width="1" /><circle cx="133.30435180664062" cy="15.086956977844238" fill="black" r="10.521932601928711" stroke="black" stroke-width="1" /><path d="M 0,0 L 0,216 L 255,216 L 255,0 Z" fill="none" stroke="black" stroke-width="1" /></svg>