<?xml version="1.0" encoding="utf-8" ?>
<svg baseProfile="full" height="218" version="1.1" width="261" xmlns="http://www.w3.org/2000/svg" xmlns:ev="http://www.w3.org/2001/xml-events" xmlns:xlink="http://www.w3.org/1999/xlink"><defs /><rect fill="white" height="218" width="261" x="0" y="0" /><circle cx="124.30000305175781" cy="202.6999969482422" fill="none" r="5.420428276062012" stroke="black" stroke-width="1" /><circle cx="164.86363220214844" cy="201.5454559326172" fill="none" r="5.44801664352417" stroke="black" stroke-width="1" /><circle cx="88.65093994140625" cy="200.91510009765625" fill="none" r="5.096978664398193" stroke="black" stroke-width="1" /><circle cx="124.5999984741211" cy="203.0" fill="black" r="10.824146270751953" stroke="black" stroke-width="1" /><circle cx="49.588233947753906" cy="199.19117736816406" fill="none" r="5.37982177734375" stroke="black" stroke-width="1" /><circle cx="12.0" cy="198.0" fill="none" r="5.385264873504639" stroke="black" stroke-width="1" /><circle cx="196.0" cy="196.6666717529297" fill="none" r="5.270564556121826" stroke="black" stroke-width="1" /><circle cx="164.920166015625" cy="201.7436981201172" fill="black" r="11.150927543640137" stroke="black" stroke-width="1" /><circle cx="88.07894897460938" cy="200.9736785888672" fill="black" r="11.121752738952637" stroke="black" stroke-width="1" /><circle cx="49.34955596923828" cy="199.25221252441406" fill="black" r="11.25774097442627" stroke="black" stroke-width="1" /><circle cx="195.88095092773438" cy="197.0" fill="black" r="10.881051063537598" stroke="black" stroke-width="1" /><circle cx="12.005263328552246" cy="197.67893981933594" fill="black" r="11.495545387268066" stroke="black" stroke-width="1" /><circle cx="202.5" cy="166.07142639160156" fill="none" r="4.953968048095703" stroke="black" stroke-width="1" /><circle cx="202.0" cy="166.0" fill="black" r="11.180439949035645" stroke="black" stroke-width="1" /><path d="M 178,136 L 180,143 L 187,142 L 187,136 Z" fill="none" stroke="black" stroke-width="1" /><circle cx="182.70619201660156" cy="139.60824584960938" fill="black" r="10.744684219360352" stroke="black" stroke-width="1" /><circle cx="160.27049255371094" cy="117.4344253540039" fill="none" r="4.981993675231934" stroke="black" stroke-width="1" /><circle cx="159.71621704101562" cy="117.14865112304688" fill="black" r="11.089171409606934" stroke="black" stroke-width="1" /><circle cx="136.5454559326172" cy="92.86363983154297" fill="none" r="5.448015213012695" stroke="black" stroke-width="1" /><circle cx="136.1458282470703" cy="93.34027862548828" fill="black" r="11.035309791564941" stroke="black" stroke-width="1" /><circle cx="111.0" cy="74.5" fill="none" r="5.4084272384643555" stroke="black" stroke-width="1" /><circle cx="111.02941131591797" cy="74.5" fill="black" r="11.251935005187988" stroke="black" stroke-width="1" /><circle cx="83.80882263183594" cy="57.67647171020508" fill="none" r="5.455270290374756" stroke="black" stroke-width="1" /><circle cx="83.3427963256836" cy="57.80131149291992" fill="black" r="11.019329071044922" stroke="black" stroke-width="1" /><circle cx="57.0" cy="38.0" fill="none" r="5.099119663238525" stroke="black" stroke-width="1" /><circle cx="56.568321228027344" cy="37.618011474609375" fill="black" r="10.978195190429688" stroke="black" stroke-width="1" /><circle cx="26.5" cy="22.5" fill="none" r="5.147915363311768" stroke="black" stroke-width="1" /><circle cx="25.672637939453125" cy="23.12540626525879" fill="black" r="11.120952606201172" stroke="black" stroke-width="1" /><path d="M 0,0 L 0,217 L 260,217 L 260,0 Z" fill="none" stroke="black" stroke-width="1" /></svg>