<?xml version="1.0" encoding="utf-8" ?>
<svg xmlns="http://www.w3.org/2000/svg" xmlns:ev="http://www.w3.org/2001/xml-events" xmlns:xlink="http://www.w3.org/1999/xlink" baseProfile="full" height="217" version="1.1" width="256">
  <defs/>
  <path d="M 91.000513,213.876547 C 82.473927,210.476535 81.678077,201.472358 89.500000,196.899889 C 93.735187,194.424122 95.357074,194.596997 98.894245,197.901210 C 101.580031,200.410110 102.000000,201.489144 102.000000,205.880886 C 102.000000,210.790474 101.868310,211.026536 98.039838,212.979676 C 95.861749,214.090854 93.949249,214.971476 93.789838,214.936614 C 93.630427,214.901751 92.375231,214.424721 91.000513,213.876547" fill="none" stroke="black" stroke-width="5"/>
  <path d="M 124.269925,211.296878 C 121.205278,210.704916 118.000000,206.343366 118.000000,202.765141 C 118.000000,199.047471 123.699858,193.000000 127.203833,193.000000 C 128.610143,193.000000 130.933985,194.368414 132.803833,196.297607 C 137.075063,200.704398 137.253554,205.992607 133.250000,209.516365 C 130.581008,211.865498 128.919368,212.194957 124.269925,211.296878" fill="none" stroke="black" stroke-width="5"/>
  <path d="M 157.654988,209.171259 C 156.631463,208.040277 156.000000,205.626703 156.000000,202.845573 C 156.000000,195.609369 161.227147,192.234866 168.281546,194.916944 C 171.147490,196.006574 174.375120,202.242741 173.500075,204.999764 C 171.773660,210.439215 161.298272,213.197044 157.654988,209.171259" fill="none" stroke="black" stroke-width="5"/>
  <path d="M 223.749978,207.919889 C 221.147600,206.404144 219.020459,201.647342 219.717913,198.903218 C 221.296918,192.690654 225.856000,189.370188 231.196486,190.543156 C 234.731091,191.319485 238.486259,197.926452 237.538696,201.701847 C 236.059218,207.596556 228.808569,210.866246 223.749978,207.919889" fill="none" stroke="black" stroke-width="5"/>
  <path d="M 52.238966,207.292821 C 49.523778,206.770669 47.000000,202.280886 47.000000,197.972737 C 47.000000,194.426618 51.644634,188.997542 54.673077,189.003738 C 57.237027,189.008984 62.594708,192.451813 64.453408,195.288548 C 66.527768,198.454421 65.491952,203.467870 62.234031,206.030551 C 59.842337,207.911858 57.195886,208.246076 52.238966,207.292821" fill="none" stroke="black" stroke-width="5"/>
  <path d="M 188.392335,204.016672 C 185.819943,200.129525 185.796178,199.949295 187.408118,196.552384 C 190.558557,189.913326 196.208982,188.176559 201.328735,192.273614 C 205.075618,195.272037 205.769064,200.332528 203.038393,204.750000 C 201.205237,207.715539 200.591719,208.000000 196.028887,208.000000 C 191.306293,208.000000 190.881872,207.778617 188.392335,204.016672" fill="none" stroke="black" stroke-width="5"/>
  <path d="M 20.269925,193.305731 C 17.107942,192.682415 14.000000,188.302000 14.000000,184.468734 C 14.000000,181.987141 14.845300,180.465001 17.534796,178.103592 C 19.478934,176.396616 22.171835,175.000000 23.519020,175.000000 C 27.035932,175.000000 31.702994,179.792749 32.439752,184.160973 C 33.475908,190.304324 27.567271,194.744245 20.269925,193.305731" fill="none" stroke="black" stroke-width="5"/>
  <path d="M 49.076725,174.411106 C 45.698198,171.568263 45.213471,168.744650 47.385321,164.558405 C 50.492050,158.570178 57.192392,157.101483 61.545455,161.454545 C 65.126227,165.035318 65.032444,172.042719 61.365141,174.927420 C 57.715491,177.798235 52.859629,177.594210 49.076725,174.411106" fill="none" stroke="black" stroke-width="5"/>
  <path d="M 19.500000,164.054643 C 14.213362,161.890864 11.761379,154.905402 14.601097,150.098143 C 16.042037,147.658826 17.230047,147.018501 21.371653,146.448885 C 26.124801,145.795160 26.545180,145.926549 29.197313,148.894801 C 32.954902,153.100274 32.862803,156.947729 28.896408,161.465204 C 25.784143,165.009877 23.423379,165.660451 19.500000,164.054643" fill="none" stroke="black" stroke-width="5"/>
  <path d="M 78.687091,154.195281 C 74.962158,150.307288 75.098952,146.054894 79.076923,142.076923 C 83.127770,138.026076 87.128629,137.974783 91.076923,141.923077 C 95.019353,145.865507 95.064637,150.605831 91.195281,154.312909 C 87.317892,158.027683 82.313679,157.980623 78.687091,154.195281" fill="none" stroke="black" stroke-width="5"/>
  <path d="M 105.196167,137.702393 C 101.653749,134.047545 101.315778,132.223820 103.425004,128.145025 C 106.202459,122.774020 113.506602,121.415693 117.599879,125.508970 C 119.695478,127.604569 120.058693,128.798425 119.804425,132.755109 C 119.528015,137.056333 119.177907,137.649259 116.000000,139.198107 C 110.895435,141.685969 108.772312,141.392038 105.196167,137.702393" fill="none" stroke="black" stroke-width="5"/>
  <path d="M 16.969123,128.320565 C 14.138424,125.938689 13.843169,125.205931 14.310425,121.722272 C 15.046883,116.231569 18.348611,113.000000 23.222063,113.000000 C 28.450392,113.000000 32.000000,116.716835 32.000000,122.191477 C 32.000000,130.363886 23.511179,133.825342 16.969123,128.320565" fill="none" stroke="black" stroke-width="5"/>
  <path d="M 138.216360,112.730305 C 133.962410,108.202182 136.116176,100.200957 142.155735,98.095555 C 146.142014,96.705931 150.506944,98.898196 152.633708,103.358067 C 154.071899,106.373985 154.049516,106.929100 152.343200,110.562876 C 150.589166,114.298273 150.236675,114.515102 145.463581,114.794756 C 141.249790,115.041640 140.072758,114.706350 138.216360,112.730305" fill="none" stroke="black" stroke-width="5"/>
  <path d="M 20.250000,95.083577 C 18.476065,93.582306 18.000000,92.131913 18.000000,88.228669 C 18.000000,83.403904 18.111110,83.218980 22.366331,80.961590 C 26.594400,78.718604 26.845393,78.698751 30.292737,80.334623 C 35.296063,82.708857 36.870975,87.554925 34.329516,92.755949 C 32.612155,96.270478 32.193484,96.514950 27.500000,96.743869 C 23.782927,96.925165 21.922683,96.499159 20.250000,95.083577" fill="none" stroke="black" stroke-width="5"/>
  <path d="M 164.522003,94.750000 C 162.951613,93.385511 161.694284,91.004388 161.327249,88.699793 C 160.809269,85.447414 161.129421,84.474352 163.548101,81.949793 C 167.411499,77.917275 171.756169,77.969005 176.465204,82.103592 C 180.753269,85.868563 180.990343,88.835037 177.381311,93.566722 C 175.202644,96.423101 174.119810,97.000000 170.937075,97.000000 C 168.403774,97.000000 166.236802,96.239964 164.522003,94.750000" fill="none" stroke="black" stroke-width="5"/>
  <path d="M 191.356652,73.612910 C 187.003593,71.194047 186.000000,69.753608 186.000000,65.924608 C 186.000000,58.498817 188.391905,56.045055 195.661106,56.013655 C 197.973209,56.003667 199.517533,56.826341 201.411106,59.076725 C 204.913638,63.239248 204.754436,67.071153 200.896408,71.465204 C 197.652734,75.159544 195.152858,75.722347 191.356652,73.612910" fill="none" stroke="black" stroke-width="5"/>
  <path d="M 24.000000,61.293772 C 17.424263,58.889974 15.852707,50.984615 21.076725,46.588894 C 25.294656,43.039739 29.346487,43.192640 33.200237,47.046391 C 35.832402,49.678556 36.166465,50.596372 35.657075,53.796391 C 34.702008,59.796175 29.338982,63.245467 24.000000,61.293772" fill="none" stroke="black" stroke-width="5"/>
  <path d="M 219.284134,50.298740 C 218.065408,50.062847 215.892254,48.472230 214.454902,46.764035 C 212.288232,44.189094 211.955005,43.046456 212.505381,40.079113 C 213.530635,34.551476 215.501374,33.000000 221.497517,33.000000 C 226.326457,33.000000 226.805368,33.224664 228.425456,36.250000 C 231.098304,41.241249 230.248382,46.914571 226.500000,49.102625 C 223.372554,50.928218 222.922080,51.002889 219.284134,50.298740" fill="none" stroke="black" stroke-width="5"/>
  <path d="M 20.663434,26.415703 C 19.186044,24.387375 18.961649,22.914279 19.516041,18.883366 C 20.089506,14.713782 20.642167,13.706347 22.807741,12.882997 C 26.153576,11.610913 32.398368,12.665045 34.299648,14.822852 C 35.112419,15.745283 36.097283,18.003628 36.488235,19.841395 C 37.089260,22.666656 36.768618,23.632073 34.412438,26.091395 C 32.119076,28.485149 30.818140,28.994437 27.062909,28.968575 C 23.357951,28.943059 22.154676,28.463050 20.663434,26.415703" fill="none" stroke="black" stroke-width="5"/>
  <path d="M 58.687091,25.195281 C 55.767269,22.147644 55.188854,17.874377 57.121898,13.631807 C 58.315879,11.011306 60.643903,10.015174 65.500000,10.046924 C 73.806111,10.101231 76.778106,21.725081 69.604345,26.099539 C 65.218654,28.773871 61.848131,28.494696 58.687091,25.195281" fill="none" stroke="black" stroke-width="5"/>
  <path d="M 94.619302,24.124525 C 92.421335,21.830341 91.928665,20.485877 92.182211,17.473866 C 92.643390,11.995275 96.163203,9.602009 102.386861,10.535305 C 106.544138,11.158727 107.239502,11.637446 108.552565,14.780048 C 110.295844,18.952302 109.850936,20.876336 106.328320,24.398953 C 102.733202,27.994070 98.225341,27.888418 94.619302,24.124525" fill="none" stroke="black" stroke-width="5"/>
</svg>
