<?xml version="1.0" encoding="utf-8" ?>
<svg baseProfile="full" height="221" version="1.1" width="260" xmlns="http://www.w3.org/2000/svg" xmlns:ev="http://www.w3.org/2001/xml-events" xmlns:xlink="http://www.w3.org/1999/xlink"><defs /><rect fill="white" height="221" width="260" x="0" y="0" /><path d="M 84,195 L 84,202 L 92,202 L 92,195 Z" fill="none" stroke="black" stroke-width="1" /><circle cx="119.83333587646484" cy="196.5" fill="none" r="5.190901279449463" stroke="black" stroke-width="1" /><circle cx="54.59677505493164" cy="197.2096710205078" fill="none" r="5.44898796081543" stroke="black" stroke-width="1" /><circle cx="88.11764526367188" cy="198.26470947265625" fill="black" r="10.480966567993164" stroke="black" stroke-width="1" /><circle cx="119.87154388427734" cy="196.0691680908203" fill="black" r="10.33775806427002" stroke="black" stroke-width="1" /><circle cx="54.543479919433594" cy="196.45652770996094" fill="black" r="10.56991958618164" stroke="black" stroke-width="1" /><circle cx="24.399999618530273" cy="187.14999389648438" fill="none" r="5.411434173583984" stroke="black" stroke-width="1" /><circle cx="24.5" cy="187.5" fill="black" r="10.511998176574707" stroke="black" stroke-width="1" /><path d="M 239,176 L 237,177 L 236,180 L 237,182 L 240,183 L 243,181 L 243,178 Z" fill="none" stroke="black" stroke-width="1" /><circle cx="239.6714324951172" cy="179.56121826171875" fill="black" r="10.641499519348145" stroke="black" stroke-width="1" /><circle cx="127.04545593261719" cy="163.40908813476562" fill="none" r="5.509293556213379" stroke="black" stroke-width="1" /><path d="M 14,160 L 16,166 L 23,166 L 22,158 L 18,157 Z" fill="none" stroke="black" stroke-width="1" /><circle cx="127.0" cy="163.5" fill="black" r="10.965956687927246" stroke="black" stroke-width="1" /><circle cx="19.344898223876953" cy="162.1857147216797" fill="black" r="10.720973014831543" stroke="black" stroke-width="1" /><circle cx="237.23684692382812" cy="150.2894744873047" fill="none" r="5.2849202156066895" stroke="black" stroke-width="1" /><circle cx="237.35714721679688" cy="150.5" fill="black" r="10.932642936706543" stroke="black" stroke-width="1" /><circle cx="136.0" cy="137.0" fill="none" r="5.385264873504639" stroke="black" stroke-width="1" /><circle cx="135.73809814453125" cy="137.5" fill="black" r="10.842459678649902" stroke="black" stroke-width="1" /><circle cx="17.16666603088379" cy="131.5" fill="none" r="4.859226703643799" stroke="black" stroke-width="1" /><circle cx="16.835403442382812" cy="131.20806884765625" fill="black" r="10.541158676147461" stroke="black" stroke-width="1" /><circle cx="228.2058868408203" cy="124.73529052734375" fill="none" r="5.324355125427246" stroke="black" stroke-width="1" /><circle cx="227.8103485107422" cy="124.57389068603516" fill="black" r="10.798332214355469" stroke="black" stroke-width="1" /><circle cx="146.3333282470703" cy="113.66666412353516" fill="none" r="5.374941825866699" stroke="black" stroke-width="1" /><circle cx="145.88461303710938" cy="113.73076629638672" fill="black" r="10.477606773376465" stroke="black" stroke-width="1" /><circle cx="202.6764678955078" cy="106.64705657958984" fill="none" r="5.362812042236328" stroke="black" stroke-width="1" /><circle cx="202.5" cy="106.5" fill="black" r="10.79361629486084" stroke="black" stroke-width="1" /><circle cx="174.5" cy="101.5" fill="none" r="5.147915363311768" stroke="black" stroke-width="1" /><circle cx="18.0" cy="99.0" fill="none" r="3.6056511402130127" stroke="black" stroke-width="1" /><circle cx="174.57894897460938" cy="101.78947448730469" fill="black" r="10.904495239257812" stroke="black" stroke-width="1" /><circle cx="17.85714340209961" cy="98.85713958740234" fill="black" r="10.618719100952148" stroke="black" stroke-width="1" /><circle cx="21.5" cy="64.5" fill="none" r="5.147915363311768" stroke="black" stroke-width="1" /><circle cx="21.426109313964844" cy="65.18965148925781" fill="black" r="10.798332214355469" stroke="black" stroke-width="1" /><circle cx="203.0" cy="53.5" fill="black" r="4.031229019165039" stroke="black" stroke-width="1" /><circle cx="36.79999923706055" cy="39.20000076293945" fill="none" r="5.280252456665039" stroke="black" stroke-width="1" /><circle cx="36.65254211425781" cy="38.8220329284668" fill="black" r="10.518035888671875" stroke="black" stroke-width="1" /><circle cx="67.5" cy="24.05555534362793" fill="none" r="5.273489952087402" stroke="black" stroke-width="1" /><circle cx="98.5" cy="21.5" fill="none" r="5.147915363311768" stroke="black" stroke-width="1" /><circle cx="201.02174377441406" cy="19.775362014770508" fill="none" r="5.169005393981934" stroke="black" stroke-width="1" /><circle cx="167.68182373046875" cy="18.31818199157715" fill="none" r="4.047847747802734" stroke="black" stroke-width="1" /><circle cx="132.5" cy="19.5" fill="none" r="5.147915363311768" stroke="black" stroke-width="1" /><circle cx="67.740966796875" cy="24.319276809692383" fill="black" r="10.821784973144531" stroke="black" stroke-width="1" /><circle cx="98.23309326171875" cy="21.57117462158203" fill="black" r="10.783791542053223" stroke="black" stroke-width="1" /><circle cx="200.73077392578125" cy="20.0" fill="black" r="10.52093505859375" stroke="black" stroke-width="1" /><circle cx="133.38198852539062" cy="19.431676864624023" fill="black" r="10.97819709777832" stroke="black" stroke-width="1" /><circle cx="235.88235473632812" cy="13.764705657958984" fill="none" r="5.123151779174805" stroke="black" stroke-width="1" /><circle cx="167.55404663085938" cy="18.189189910888672" fill="black" r="10.922029495239258" stroke="black" stroke-width="1" /><circle cx="235.5" cy="14.0" fill="black" r="10.688879013061523" stroke="black" stroke-width="1" /><path d="M 0,0 L 0,220 L 259,220 L 259,0 Z" fill="none" stroke="black" stroke-width="1" /></svg>