<?xml version="1.0" encoding="utf-8" ?>
<svg xmlns="http://www.w3.org/2000/svg" xmlns:ev="http://www.w3.org/2001/xml-events" xmlns:xlink="http://www.w3.org/1999/xlink" baseProfile="full" height="217" version="1.1" width="256">
  <defs/>
  <path d="M 161.771275,209.623510 C 154.205628,203.877770 158.053129,193.000000 167.651062,193.000000 C 171.517581,193.000000 172.261037,193.379917 174.010960,196.250000 C 176.235970,199.899281 176.549385,204.701600 174.718197,207.086657 C 171.806525,210.879004 165.143524,212.184570 161.771275,209.623510" fill="none" stroke="black" stroke-width="5"/>
  <path d="M 193.500000,210.286761 C 192.400000,210.022082 190.262500,208.640091 188.750000,207.215672 C 186.579842,205.171893 186.000000,203.721294 186.000000,200.335962 C 186.000000,195.421999 188.204784,193.327860 194.444436,192.315304 C 197.536079,191.813599 198.555742,192.158253 201.050207,194.548101 C 203.413133,196.811928 204.000000,198.222119 204.000000,201.636200 C 204.000000,205.294147 203.525988,206.259764 200.655609,208.449109 C 197.240712,211.053778 196.973205,211.122477 193.500000,210.286761" fill="none" stroke="black" stroke-width="5"/>
  <path d="M 130.749978,207.919889 C 128.662351,206.703958 126.000000,201.842168 126.000000,199.245827 C 126.000000,198.226405 127.483923,195.954059 129.297607,194.196167 C 133.161157,190.451467 138.159956,189.948630 141.750000,192.943562 C 144.998481,195.653551 144.960898,203.748656 141.685549,206.825686 C 139.194777,209.165644 133.813301,209.704110 130.749978,207.919889" fill="none" stroke="black" stroke-width="5"/>
  <path d="M 15.500000,207.050563 C 11.933182,205.583417 7.839903,201.086837 8.388731,199.238638 C 8.672692,198.282387 9.191865,196.295618 9.542449,194.823596 C 10.388561,191.270956 12.740879,189.352506 17.000000,188.741536 C 21.417439,188.107855 23.436472,189.164015 25.424026,193.148162 C 28.090330,198.492894 27.499975,202.381273 23.566722,205.381311 C 19.950600,208.139462 18.750826,208.387732 15.500000,207.050563" fill="none" stroke="black" stroke-width="5"/>
  <path d="M 14.634859,176.927420 C 12.490008,175.240280 12.000000,174.023013 12.000000,170.381965 C 12.000000,164.347375 15.211095,161.000000 21.000000,161.000000 C 26.747500,161.000000 30.000000,164.353772 30.000000,170.280231 C 30.000000,173.556365 29.420211,175.196056 27.685549,176.825686 C 24.608698,179.716237 18.243347,179.765857 14.634859,176.927420" fill="none" stroke="black" stroke-width="5"/>
  <path d="M 130.454545,172.545455 C 127.074082,169.164991 127.002011,162.286190 130.314451,159.174314 C 133.391302,156.283763 139.756653,156.234143 143.365141,159.072580 C 145.509992,160.759720 146.000000,161.976987 146.000000,165.618035 C 146.000000,171.652625 142.788905,175.000000 137.000000,175.000000 C 133.989899,175.000000 132.260606,174.351515 130.454545,172.545455" fill="none" stroke="black" stroke-width="5"/>
  <path d="M 18.600253,150.669763 C 15.929930,148.533040 15.744072,147.962944 16.251147,143.464191 C 16.958025,137.192784 19.472170,135.000000 25.955796,135.000000 C 30.795735,135.000000 31.972956,135.767898 34.750000,140.736431 C 36.646033,144.128709 36.303052,145.536267 32.631923,149.428798 C 28.448607,153.864405 23.175503,154.330760 18.600253,150.669763" fill="none" stroke="black" stroke-width="5"/>
  <path d="M 156.361675,145.227764 C 155.185596,144.277494 153.633273,141.814097 152.912069,139.753548 C 151.634935,136.104654 151.689216,135.915863 154.996561,132.503548 C 156.914116,130.525133 159.380449,129.000000 160.662240,129.000000 C 164.164308,129.000000 170.000000,132.162411 170.000000,134.060212 C 170.000000,134.989596 170.275284,137.126420 170.611742,138.808712 C 171.909149,145.295746 161.980830,149.768034 156.361675,145.227764" fill="none" stroke="black" stroke-width="5"/>
  <path d="M 132.395223,143.570194 C 124.489936,140.128989 127.879523,126.000000 136.610366,126.000000 C 146.370461,126.000000 149.654357,139.024658 141.020016,143.489650 C 137.497958,145.310977 136.417407,145.321067 132.395223,143.570194" fill="none" stroke="black" stroke-width="5"/>
  <path d="M 187.429674,143.035304 C 185.056155,142.074668 182.000000,137.825188 182.000000,135.485523 C 182.000000,132.822985 184.751927,128.392564 187.540775,126.565240 C 189.799184,125.085474 190.624493,125.016033 193.212505,126.088023 C 197.804628,127.990142 200.000000,130.890035 200.000000,135.053703 C 200.000000,142.208006 194.310888,145.820340 187.429674,143.035304" fill="none" stroke="black" stroke-width="5"/>
  <path d="M 213.368077,123.428798 C 207.046821,116.726314 210.305996,109.000000 219.454545,109.000000 C 225.491230,109.000000 228.000000,111.440499 228.000000,117.312909 C 228.000000,120.732925 227.419345,122.182121 225.195281,124.312909 C 221.210366,128.130700 217.544065,127.856635 213.368077,123.428798" fill="none" stroke="black" stroke-width="5"/>
  <path d="M 26.316845,121.516845 C 23.272005,118.472005 22.922388,117.622595 23.538543,114.766845 C 23.926213,112.970080 24.940565,111.050000 25.792659,110.500000 C 30.855628,107.232013 33.240162,106.323254 35.579034,106.770357 C 38.508033,107.330271 41.990434,112.222296 41.996262,115.785183 C 42.000953,118.652806 39.222491,123.000000 37.384990,123.000000 C 36.623246,123.000000 36.000000,123.450000 36.000000,124.000000 C 36.000000,124.550000 34.605000,125.000000 32.900000,125.000000 C 30.693332,125.000000 28.796254,123.996254 26.316845,121.516845" fill="none" stroke="black" stroke-width="5"/>
  <path d="M 130.076725,108.411106 C 127.598213,106.325576 127.000000,105.054929 127.000000,101.875923 C 127.000000,95.908691 129.362994,93.000000 134.210718,93.000000 C 136.400102,93.000000 139.498347,93.772023 141.095708,94.715608 C 143.710478,96.260190 144.000000,96.950768 144.000000,101.643027 C 144.000000,106.082361 143.609470,107.162031 141.365141,108.927420 C 137.811958,111.722354 133.793488,111.538556 130.076725,108.411106" fill="none" stroke="black" stroke-width="5"/>
  <path d="M 38.687091,98.195281 C 34.887506,94.229369 35.013613,89.319201 39.013474,85.487091 C 45.253245,79.509012 54.000000,83.264051 54.000000,91.920905 C 54.000000,97.674321 50.928390,101.000000 45.614511,101.000000 C 42.274017,101.000000 40.803958,100.404814 38.687091,98.195281" fill="none" stroke="black" stroke-width="5"/>
  <path d="M 222.249014,94.968473 C 221.010972,94.470858 219.267110,92.530968 218.373766,90.657605 C 216.246235,86.196128 217.503347,82.279655 222.052058,79.198055 C 226.295072,76.323554 229.501520,76.909480 233.250000,81.244297 C 237.549898,86.216785 236.646976,91.579835 231.020016,94.489650 C 227.750879,96.180186 225.561115,96.299729 222.249014,94.968473" fill="none" stroke="black" stroke-width="5"/>
  <path d="M 71.000000,85.293772 C 65.094844,83.135109 63.280933,76.331736 66.989040,70.250000 C 68.699573,67.444521 69.524529,67.000000 73.020485,67.000000 C 80.540076,67.000000 84.038346,71.651605 82.537071,79.654084 C 82.019962,82.410514 81.158536,83.453640 78.472565,84.575910 C 74.904136,86.066895 73.487271,86.203008 71.000000,85.293772" fill="none" stroke="black" stroke-width="5"/>
  <path d="M 102.269925,79.296878 C 99.124630,78.689338 96.000000,74.310960 96.000000,70.511164 C 96.000000,64.463210 103.176841,59.464279 108.156859,62.043468 C 112.963090,64.532651 114.000000,66.137476 114.000000,71.086893 C 114.000000,75.218253 113.607500,76.143296 111.095630,77.931906 C 108.258806,79.951902 106.816154,80.175021 102.269925,79.296878" fill="none" stroke="black" stroke-width="5"/>
  <path d="M 128.984286,76.252893 C 124.613567,70.696425 129.086859,61.000000 136.020967,61.000000 C 140.007077,61.000000 146.001253,66.320143 145.996262,69.853592 C 145.994206,71.309116 145.100820,73.962500 144.010960,75.750000 C 142.166098,78.775793 141.653963,79.000000 136.587279,79.000000 C 131.842879,79.000000 130.868121,78.647801 128.984286,76.252893" fill="none" stroke="black" stroke-width="5"/>
  <path d="M 224.500000,63.276390 C 220.885052,62.387823 219.999278,60.871521 220.031803,55.627555 C 220.073271,48.941855 221.599598,47.000000 226.813190,47.000000 C 234.793773,47.000000 237.926026,50.376790 236.439972,57.378348 C 235.185232,63.290065 231.653371,65.034714 224.500000,63.276390" fill="none" stroke="black" stroke-width="5"/>
  <path d="M 132.500000,53.270091 C 127.878255,52.607264 125.000000,49.341348 125.000000,44.759945 C 125.000000,39.415583 126.223750,37.576305 130.780069,36.072584 C 134.099600,34.977040 135.128247,35.014959 137.664208,36.326355 C 142.338387,38.743467 143.329896,40.503776 142.692762,45.253966 C 142.286816,48.280517 141.322327,50.130944 139.312376,51.739430 C 137.765569,52.977280 136.275000,53.924876 136.000000,53.845201 C 135.725000,53.765525 134.150000,53.506726 132.500000,53.270091" fill="none" stroke="black" stroke-width="5"/>
  <path d="M 223.368077,31.428798 C 219.807384,27.653363 219.320622,25.585178 221.082592,21.718076 C 222.194031,19.278732 226.919431,17.000000 230.866453,17.000000 C 237.495693,17.000000 240.789277,28.660794 235.365141,32.927420 C 231.305121,36.121032 227.324459,35.623785 223.368077,31.428798" fill="none" stroke="black" stroke-width="5"/>
  <path d="M 127.672043,22.956669 C 124.103801,20.149890 123.326726,15.280601 125.752161,10.926355 C 127.477082,7.829700 128.134125,7.473820 132.580367,7.227931 C 136.497424,7.011308 138.085136,7.429599 140.371256,9.280483 C 143.013013,11.419297 143.183663,11.953433 142.506249,15.963015 C 141.117329,24.183962 133.686197,27.687403 127.672043,22.956669" fill="none" stroke="black" stroke-width="5"/>
</svg>
