<?xml version="1.0" encoding="utf-8" ?>
<svg baseProfile="full" height="216" version="1.1" width="260" xmlns="http://www.w3.org/2000/svg" xmlns:ev="http://www.w3.org/2001/xml-events" xmlns:xlink="http://www.w3.org/1999/xlink"><defs /><rect fill="white" height="216" width="260" x="0" y="0" /><circle cx="129.7857208251953" cy="200.35714721679688" fill="none" r="5.414555072784424" stroke="black" stroke-width="5" /><circle cx="97.4000015258789" cy="200.14999389648438" fill="none" r="5.41143274307251" stroke="black" stroke-width="5" /><circle cx="165.5" cy="199.0" fill="none" r="5.4084272384643555" stroke="black" stroke-width="5" /><circle cx="200.5" cy="196.5" fill="none" r="5.700977325439453" stroke="black" stroke-width="5" /><circle cx="66.5" cy="195.5" fill="none" r="3.8079864978790283" stroke="black" stroke-width="5" /><circle cx="34.0" cy="186.5" fill="none" r="5.590270042419434" stroke="black" stroke-width="5" /><circle cx="231.3000030517578" cy="176.6999969482422" fill="none" r="5.420428276062012" stroke="black" stroke-width="5" /><circle cx="27.5" cy="154.5" fill="none" r="5.147915363311768" stroke="black" stroke-width="5" /><circle cx="244.3333282470703" cy="139.0" fill="none" r="5.426376819610596" stroke="black" stroke-width="5" /><circle cx="139.0" cy="135.0" fill="none" r="5.099119663238525" stroke="black" stroke-width="5" /><circle cx="103.86363983154297" cy="134.4545440673828" fill="none" r="5.448009490966797" stroke="black" stroke-width="5" /><circle cx="30.0" cy="122.0" fill="none" r="5.385264873504639" stroke="black" stroke-width="5" /><circle cx="162.5" cy="111.5" fill="none" r="5.700977325439453" stroke="black" stroke-width="5" /><circle cx="89.57894897460938" cy="105.28947448730469" fill="none" r="5.884782314300537" stroke="black" stroke-width="5" /><circle cx="244.36363220214844" cy="104.0" fill="none" r="5.724490165710449" stroke="black" stroke-width="5" /><path d="M 30,81 L 25,82 L 23,86 L 24,89 L 28,91 L 33,88 L 32,82 Z" fill="none" stroke="black" stroke-width="5" /><circle cx="166.0" cy="82.5" fill="none" r="5.590270042419434" stroke="black" stroke-width="5" /><circle cx="89.35713958740234" cy="72.5" fill="none" r="3.6771137714385986" stroke="black" stroke-width="5" /><circle cx="235.55555725097656" cy="64.88888549804688" fill="none" r="5.516627311706543" stroke="black" stroke-width="5" /><circle cx="27.15671730041504" cy="52.93283462524414" fill="none" r="5.266080379486084" stroke="black" stroke-width="5" /><circle cx="170.0" cy="50.77777862548828" fill="none" r="5.179593563079834" stroke="black" stroke-width="5" /><circle cx="95.0" cy="39.5" fill="none" r="5.590270042419434" stroke="black" stroke-width="5" /><circle cx="222.0" cy="30.0" fill="none" r="5.385264873504639" stroke="black" stroke-width="5" /><circle cx="187.8333282470703" cy="24.16666603088379" fill="none" r="5.296854496002197" stroke="black" stroke-width="5" /><circle cx="19.5625" cy="18.28125" fill="none" r="5.311221122741699" stroke="black" stroke-width="5" /><circle cx="102.625" cy="9.375" fill="none" r="5.876429557800293" stroke="black" stroke-width="5" /><path d="M 0,0 L 0,215 L 259,215 L 259,0 Z" fill="none" stroke="black" stroke-width="5" /></svg>