<?xml version="1.0" encoding="utf-8" ?>
<svg baseProfile="full" height="217" version="1.1" width="256" xmlns="http://www.w3.org/2000/svg" xmlns:ev="http://www.w3.org/2001/xml-events" xmlns:xlink="http://www.w3.org/1999/xlink"><defs /><rect fill="white" height="217" width="256" x="0" y="0" /><circle cx="93.15217590332031" cy="204.93478393554688" fill="none" r="5.5035786628723145" stroke="black" stroke-width="1" /><circle cx="126.79032135009766" cy="202.40322875976562" fill="none" r="5.448995590209961" stroke="black" stroke-width="1" /><circle cx="163.60000610351562" cy="202.39999389648438" fill="none" r="5.632147312164307" stroke="black" stroke-width="1" /><circle cx="228.5" cy="199.1999969482422" fill="none" r="5.412120819091797" stroke="black" stroke-width="1" /><circle cx="195.5" cy="199.0" fill="none" r="5.590270042419434" stroke="black" stroke-width="1" /><circle cx="55.66216278076172" cy="198.21621704101562" fill="none" r="5.474740505218506" stroke="black" stroke-width="1" /><circle cx="22.867088317871094" cy="184.19619750976562" fill="none" r="5.617019176483154" stroke="black" stroke-width="1" /><circle cx="55.07143020629883" cy="167.57142639160156" fill="none" r="5.309407711029053" stroke="black" stroke-width="1" /><circle cx="22.0" cy="154.5" fill="none" r="5.590270042419434" stroke="black" stroke-width="1" /><circle cx="84.83333587646484" cy="147.8333282470703" fill="none" r="5.296844005584717" stroke="black" stroke-width="1" /><circle cx="111.0" cy="131.35714721679688" fill="none" r="5.52786111831665" stroke="black" stroke-width="1" /><circle cx="23.0" cy="121.5" fill="none" r="5.590270042419434" stroke="black" stroke-width="1" /><path d="M 144,103 L 142,104 L 142,108 L 145,109 L 147,106 Z" fill="none" stroke="black" stroke-width="1" /><circle cx="170.5" cy="88.0" fill="none" r="5.590270042419434" stroke="black" stroke-width="1" /><circle cx="26.345069885253906" cy="88.14788818359375" fill="none" r="5.65696382522583" stroke="black" stroke-width="1" /><circle cx="194.0" cy="64.36363983154297" fill="none" r="5.724489212036133" stroke="black" stroke-width="1" /><circle cx="26.46875" cy="52.40625" fill="none" r="5.619020462036133" stroke="black" stroke-width="1" /><circle cx="221.1521759033203" cy="40.934783935546875" fill="none" r="5.5035786628723145" stroke="black" stroke-width="1" /><circle cx="100.28947448730469" cy="17.552631378173828" fill="none" r="2.766387939453125" stroke="black" stroke-width="1" /><circle cx="27.285715103149414" cy="20.64285659790039" fill="none" r="5.787577152252197" stroke="black" stroke-width="1" /><circle cx="64.5" cy="18.0" fill="none" r="5.590270042419434" stroke="black" stroke-width="1" /><circle cx="27.16666603088379" cy="20.16666603088379" fill="black" r="10.233487129211426" stroke="black" stroke-width="1" /><path d="M 0,0 L 0,216 L 255,216 L 255,0 Z" fill="none" stroke="black" stroke-width="1" /></svg>