<?xml version="1.0" encoding="utf-8" ?>
<svg baseProfile="full" height="218" version="1.1" width="258" xmlns="http://www.w3.org/2000/svg" xmlns:ev="http://www.w3.org/2001/xml-events" xmlns:xlink="http://www.w3.org/1999/xlink"><defs /><rect fill="white" height="218" width="258" x="0" y="0" /><circle cx="14.5" cy="196.0" fill="none" r="5.590270042419434" stroke="black" stroke-width="1" /><circle cx="14.12882137298584" cy="196.13319396972656" fill="black" r="10.351116180419922" stroke="black" stroke-width="1" /><circle cx="210.60000610351562" cy="186.14999389648438" fill="none" r="5.411422252655029" stroke="black" stroke-width="1" /><circle cx="210.8018798828125" cy="187.00942993164062" fill="black" r="10.24804401397705" stroke="black" stroke-width="1" /><circle cx="40.5" cy="180.5" fill="none" r="2.9155757427215576" stroke="black" stroke-width="1" /><circle cx="184.5" cy="178.0" fill="none" r="5.4084272384643555" stroke="black" stroke-width="1" /><circle cx="40.349998474121094" cy="180.35000610351562" fill="black" r="9.932119369506836" stroke="black" stroke-width="1" /><circle cx="184.36956787109375" cy="177.78260803222656" fill="black" r="10.346761703491211" stroke="black" stroke-width="1" /><circle cx="158.5" cy="162.5" fill="none" r="5.147915363311768" stroke="black" stroke-width="1" /><circle cx="230.0" cy="161.5" fill="none" r="5.590270042419434" stroke="black" stroke-width="1" /><circle cx="68.5" cy="160.5" fill="none" r="5.147915363311768" stroke="black" stroke-width="1" /><circle cx="158.5" cy="162.5" fill="black" r="10.12432861328125" stroke="black" stroke-width="1" /><circle cx="229.9308319091797" cy="161.8715362548828" fill="black" r="10.337756156921387" stroke="black" stroke-width="1" /><circle cx="68.5" cy="160.5" fill="black" r="10.12432861328125" stroke="black" stroke-width="1" /><circle cx="138.85714721679688" cy="142.85714721679688" fill="none" r="5.200172424316406" stroke="black" stroke-width="1" /><circle cx="95.5" cy="140.0" fill="none" r="2.6926822662353516" stroke="black" stroke-width="1" /><circle cx="138.5" cy="143.5" fill="black" r="10.12432861328125" stroke="black" stroke-width="1" /><circle cx="95.43617248535156" cy="139.79786682128906" fill="black" r="9.91126537322998" stroke="black" stroke-width="1" /><circle cx="238.07142639160156" cy="135.35714721679688" fill="none" r="5.463339328765869" stroke="black" stroke-width="1" /><circle cx="237.85365295410156" cy="135.5731658935547" fill="black" r="10.432629585266113" stroke="black" stroke-width="1" /><circle cx="117.38679504394531" cy="123.08490753173828" fill="none" r="5.717190742492676" stroke="black" stroke-width="1" /><circle cx="117.08333587646484" cy="123.08333587646484" fill="none" r="10.263978004455566" stroke="black" stroke-width="1" /><circle cx="142.6999969482422" cy="104.30000305175781" fill="none" r="5.420436382293701" stroke="black" stroke-width="1" /><circle cx="142.35714721679688" cy="104.35713958740234" fill="black" r="10.321964263916016" stroke="black" stroke-width="1" /><circle cx="103.0" cy="101.0" fill="none" r="5.385264873504639" stroke="black" stroke-width="1" /><circle cx="102.86842346191406" cy="100.86842346191406" fill="black" r="10.353483200073242" stroke="black" stroke-width="1" /><circle cx="169.5" cy="80.0" fill="none" r="5.590270042419434" stroke="black" stroke-width="1" /><circle cx="168.91026306152344" cy="79.97435760498047" fill="black" r="10.361945152282715" stroke="black" stroke-width="1" /><circle cx="89.75" cy="75.5" fill="none" r="5.551001071929932" stroke="black" stroke-width="1" /><circle cx="89.13636016845703" cy="75.13636016845703" fill="black" r="10.350369453430176" stroke="black" stroke-width="1" /><circle cx="200.2142791748047" cy="59.21428680419922" fill="none" r="2.525485038757324" stroke="black" stroke-width="1" /><circle cx="200.0" cy="59.235294342041016" fill="black" r="9.634417533874512" stroke="black" stroke-width="1" /><circle cx="72.0" cy="48.0" fill="none" r="3.1623775959014893" stroke="black" stroke-width="1" /><circle cx="71.62389373779297" cy="48.10619354248047" fill="black" r="10.235930442810059" stroke="black" stroke-width="1" /><circle cx="224.23333740234375" cy="34.766666412353516" fill="none" r="5.326968193054199" stroke="black" stroke-width="1" /><circle cx="224.0" cy="34.71052551269531" fill="black" r="9.761981964111328" stroke="black" stroke-width="1" /><circle cx="43.11538314819336" cy="28.884614944458008" fill="none" r="5.235675811767578" stroke="black" stroke-width="1" /><circle cx="43.1875" cy="29.0" fill="black" r="10.388081550598145" stroke="black" stroke-width="1" /><circle cx="12.833333015441895" cy="23.5" fill="none" r="5.441709518432617" stroke="black" stroke-width="1" /><circle cx="12.91287899017334" cy="23.621212005615234" fill="black" r="10.553694725036621" stroke="black" stroke-width="1" /><path d="M 0,0 L 0,217 L 257,217 L 257,0 Z" fill="none" stroke="black" stroke-width="1" /></svg>