<?xml version="1.0" encoding="utf-8" ?>
<svg baseProfile="full" height="221" version="1.1" width="260" xmlns="http://www.w3.org/2000/svg" xmlns:ev="http://www.w3.org/2001/xml-events" xmlns:xlink="http://www.w3.org/1999/xlink"><defs /><rect fill="white" height="221" width="260" x="0" y="0" /><path d="M 84,195 L 83,197 L 84,202 L 86,203 L 92,202 L 93,200 L 92,195 L 90,194 Z" fill="none" stroke="black" stroke-width="5" /><path d="M 116,193 L 115,195 L 116,200 L 118,201 L 122,201 L 125,197 L 124,194 L 122,192 L 118,192 Z" fill="none" stroke="black" stroke-width="5" /><path d="M 53,192 L 50,195 L 50,198 L 52,202 L 56,202 L 59,200 L 59,194 L 56,192 Z" fill="none" stroke="black" stroke-width="5" /><path d="M 20,184 L 20,190 L 22,192 L 25,192 L 29,190 L 29,185 L 27,183 L 22,183 Z" fill="none" stroke="black" stroke-width="5" /><path d="M 239,176 L 237,177 L 237,179 L 236,180 L 237,182 L 240,183 L 243,181 L 243,178 Z" fill="none" stroke="black" stroke-width="5" /><path d="M 126,158 L 123,162 L 123,166 L 124,168 L 129,168 L 132,164 L 132,161 L 130,159 Z" fill="none" stroke="black" stroke-width="5" /><path d="M 14,160 L 14,163 L 16,166 L 23,166 L 23,159 L 22,158 L 18,157 L 17,159 Z" fill="none" stroke="black" stroke-width="5" /><path d="M 236,146 L 233,148 L 232,151 L 234,154 L 239,155 L 241,154 L 242,152 L 242,148 L 240,146 Z" fill="none" stroke="black" stroke-width="5" /><path d="M 137,132 L 134,133 L 131,136 L 131,139 L 134,142 L 137,142 L 141,139 L 141,135 Z" fill="none" stroke="black" stroke-width="5" /><path d="M 16,127 L 14,128 L 13,130 L 13,134 L 16,136 L 19,136 L 21,134 L 21,129 L 19,127 Z" fill="none" stroke="black" stroke-width="5" /><path d="M 227,120 L 223,125 L 224,128 L 226,128 L 229,130 L 232,128 L 233,123 L 232,121 Z" fill="none" stroke="black" stroke-width="5" /><path d="M 144,109 L 141,113 L 142,116 L 144,118 L 147,119 L 151,115 L 151,111 L 149,109 Z" fill="none" stroke="black" stroke-width="5" /><path d="M 200,102 L 198,105 L 198,107 L 200,110 L 203,112 L 207,109 L 208,106 L 205,102 Z" fill="none" stroke="black" stroke-width="5" /><path d="M 170,99 L 170,104 L 172,106 L 177,106 L 179,104 L 179,99 L 177,97 L 173,97 Z" fill="none" stroke="black" stroke-width="5" /><path d="M 16,96 L 15,97 L 15,100 L 17,102 L 20,102 L 21,101 L 21,98 L 19,96 Z" fill="none" stroke="black" stroke-width="5" /><path d="M 19,60 L 17,63 L 17,67 L 20,69 L 25,68 L 26,67 L 26,63 L 25,61 L 23,60 Z" fill="none" stroke="black" stroke-width="5" /><path d="M 34,35 L 32,37 L 33,42 L 35,44 L 39,44 L 41,42 L 41,36 L 40,35 Z" fill="none" stroke="black" stroke-width="5" /><path d="M 64,21 L 64,28 L 71,28 L 72,26 L 72,22 L 69,19 L 67,19 Z" fill="none" stroke="black" stroke-width="5" /><path d="M 96,17 L 94,19 L 94,24 L 97,26 L 101,26 L 103,23 L 103,19 L 101,17 Z" fill="none" stroke="black" stroke-width="5" /><path d="M 200,15 L 196,21 L 200,24 L 204,24 L 205,23 L 205,17 L 203,15 Z" fill="none" stroke="black" stroke-width="5" /><path d="M 170,15 L 166,15 L 164,17 L 164,20 L 166,22 L 168,22 L 170,21 L 171,19 L 171,16 Z" fill="none" stroke="black" stroke-width="5" /><path d="M 128,17 L 128,21 L 131,24 L 133,24 L 137,22 L 137,17 L 135,15 L 130,15 Z" fill="none" stroke="black" stroke-width="5" /><path d="M 234,9 L 232,11 L 232,17 L 233,18 L 237,18 L 239,17 L 241,14 L 239,10 Z" fill="none" stroke="black" stroke-width="5" /><path d="M 0,0 L 0,220 L 259,220 L 259,0 Z" fill="none" stroke="black" stroke-width="5" /></svg>