<?xml version="1.0" encoding="utf-8" ?>
<svg baseProfile="full" height="221" version="1.1" width="259" xmlns="http://www.w3.org/2000/svg" xmlns:ev="http://www.w3.org/2001/xml-events" xmlns:xlink="http://www.w3.org/1999/xlink"><defs /><rect fill="white" height="221" width="259" x="0" y="0" /><circle cx="183.1666717529297" cy="200.27777099609375" fill="none" r="5.840035438537598" stroke="black" stroke-width="1" /><circle cx="183.0" cy="199.73684692382812" fill="black" r="10.526543617248535" stroke="black" stroke-width="1" /><circle cx="212.19619750976562" cy="193.86709594726562" fill="none" r="5.617033004760742" stroke="black" stroke-width="1" /><circle cx="154.40322875976562" cy="190.7903289794922" fill="none" r="5.448996543884277" stroke="black" stroke-width="1" /><circle cx="212.5" cy="193.35000610351562" fill="black" r="10.647747039794922" stroke="black" stroke-width="1" /><circle cx="153.8333282470703" cy="190.1666717529297" fill="black" r="10.98746109008789" stroke="black" stroke-width="1" /><circle cx="130.87078857421875" cy="170.96067810058594" fill="none" r="5.9621710777282715" stroke="black" stroke-width="1" /><circle cx="130.22882080078125" cy="171.07627868652344" fill="black" r="11.011222839355469" stroke="black" stroke-width="1" /><circle cx="241.0" cy="139.0" fill="none" r="5.831051826477051" stroke="black" stroke-width="1" /><circle cx="123.0999984741211" cy="136.10000610351562" fill="none" r="5.515529632568359" stroke="black" stroke-width="1" /><circle cx="240.97116088867188" cy="138.78846740722656" fill="black" r="10.977672576904297" stroke="black" stroke-width="1" /><circle cx="123.21626281738281" cy="135.9636688232422" fill="black" r="10.658023834228516" stroke="black" stroke-width="1" /><circle cx="217.5" cy="121.5" fill="none" r="3.8079864978790283" stroke="black" stroke-width="1" /><circle cx="217.3760986328125" cy="121.34955596923828" fill="black" r="10.70936107635498" stroke="black" stroke-width="1" /><circle cx="191.12025451660156" cy="108.04430389404297" fill="none" r="5.9570088386535645" stroke="black" stroke-width="1" /><circle cx="156.73077392578125" cy="105.88461303710938" fill="none" r="5.596215724945068" stroke="black" stroke-width="1" /><circle cx="124.72222137451172" cy="103.27777862548828" fill="none" r="3.221365213394165" stroke="black" stroke-width="1" /><circle cx="66.9756088256836" cy="106.90243530273438" fill="none" r="5.902592182159424" stroke="black" stroke-width="1" /><circle cx="97.5" cy="105.21428680419922" fill="none" r="5.782726764678955" stroke="black" stroke-width="1" /><circle cx="190.7142791748047" cy="107.71428680419922" fill="black" r="10.797870635986328" stroke="black" stroke-width="1" /><circle cx="156.5483856201172" cy="105.6021499633789" fill="black" r="10.512604713439941" stroke="black" stroke-width="1" /><circle cx="66.5" cy="106.64286041259766" fill="black" r="10.932636260986328" stroke="black" stroke-width="1" /><circle cx="97.34375" cy="105.0078125" fill="black" r="10.53691577911377" stroke="black" stroke-width="1" /><circle cx="125.0" cy="103.5" fill="black" r="10.30786418914795" stroke="black" stroke-width="1" /><circle cx="44.125" cy="89.5" fill="none" r="5.4787516593933105" stroke="black" stroke-width="1" /><circle cx="44.06774139404297" cy="89.69355010986328" fill="black" r="10.596893310546875" stroke="black" stroke-width="1" /><circle cx="121.33333587646484" cy="74.33333587646484" fill="none" r="5.82151460647583" stroke="black" stroke-width="1" /><circle cx="121.65789794921875" cy="74.34210205078125" fill="black" r="10.678284645080566" stroke="black" stroke-width="1" /><circle cx="35.16666793823242" cy="60.0" fill="none" r="5.540356159210205" stroke="black" stroke-width="1" /><circle cx="35.18421173095703" cy="60.18421173095703" fill="black" r="10.67049503326416" stroke="black" stroke-width="1" /><circle cx="122.0882339477539" cy="43.20588302612305" fill="none" r="5.865518569946289" stroke="black" stroke-width="1" /><circle cx="122.19999694824219" cy="43.5" fill="black" r="10.783881187438965" stroke="black" stroke-width="1" /><circle cx="33.14788818359375" cy="28.345069885253906" fill="none" r="5.6569623947143555" stroke="black" stroke-width="1" /><circle cx="32.92335891723633" cy="28.1788330078125" fill="black" r="10.633743286132812" stroke="black" stroke-width="1" /><circle cx="125.57058715820312" cy="14.31176471710205" fill="none" r="5.901183128356934" stroke="black" stroke-width="1" /><circle cx="125.4000015258789" cy="14.399999618530273" fill="black" r="10.720175743103027" stroke="black" stroke-width="1" /><path d="M 0,0 L 0,220 L 258,220 L 258,0 Z" fill="none" stroke="black" stroke-width="1" /></svg>