<?xml version="1.0" encoding="utf-8" ?>
<svg xmlns="http://www.w3.org/2000/svg" xmlns:ev="http://www.w3.org/2001/xml-events" xmlns:xlink="http://www.w3.org/1999/xlink" baseProfile="full" height="220" version="1.1" width="255">
  <defs/>
  <path d="M 207.250000,209.325576 C 205.357268,208.005273 205.000000,206.838393 205.000000,201.976804 C 205.000000,196.412564 205.132549,196.119346 208.562756,194.095474 C 212.635766,191.692339 216.194791,192.077304 219.750000,195.305553 C 222.966153,198.225927 222.930154,205.777538 219.685549,208.825686 C 216.907553,211.435478 210.636075,211.687581 207.250000,209.325576" fill="none" stroke="black" stroke-width="5"/>
  <path d="M 6.853954,208.293777 C 2.675304,207.651736 0.484997,204.474568 0.599973,199.222011 C 0.722903,193.606078 4.194880,190.000000 9.479038,190.000000 C 18.122440,190.000000 22.205280,199.948567 16.076923,206.076923 C 13.228497,208.925350 12.345622,209.137559 6.853954,208.293777" fill="none" stroke="black" stroke-width="5"/>
  <path d="M 236.750000,199.512817 C 233.412384,197.212159 233.000000,196.461470 233.000000,192.686455 C 233.000000,187.257338 234.836124,184.704233 239.955726,183.014612 C 244.005856,181.677948 244.097693,181.702355 247.527790,185.026936 C 256.524935,193.747311 246.985752,206.568443 236.750000,199.512817" fill="none" stroke="black" stroke-width="5"/>
  <path d="M 190.297863,184.750000 C 187.730752,181.933492 186.635437,176.054198 188.283420,173.937126 C 188.952539,173.077546 190.899250,171.555385 192.609445,170.554547 C 196.724861,168.146128 202.887791,169.407895 204.722981,173.034611 C 206.772892,177.085661 206.308713,182.361351 203.685549,184.825686 C 200.411120,187.901852 193.133120,187.860706 190.297863,184.750000" fill="none" stroke="black" stroke-width="5"/>
  <path d="M 17.000000,178.131685 C 13.463170,177.238020 11.468503,175.836476 10.145985,173.315741 C 8.448466,170.080254 8.718930,168.381846 11.632886,163.978560 C 14.006546,160.391718 14.678584,160.000000 18.458572,160.000000 C 21.536218,160.000000 23.193349,160.598430 24.689117,162.250000 C 29.457218,167.514756 29.533304,171.147082 24.977637,176.023940 C 22.147778,179.053313 21.414375,179.247083 17.000000,178.131685" fill="none" stroke="black" stroke-width="5"/>
  <path d="M 36.873070,157.295621 C 35.428259,157.073028 33.225188,155.804153 31.977357,154.475898 C 29.924272,152.290488 29.793731,151.563040 30.604287,146.824321 C 31.390739,142.226523 31.932411,141.360640 35.044852,139.725911 C 38.561242,137.879019 38.625226,137.882681 43.013785,140.182035 C 46.898567,142.217438 47.545395,143.044085 48.319974,146.963350 C 49.170944,151.269146 49.075486,151.542717 45.615726,154.713350 C 43.643231,156.521008 41.460262,157.932576 40.764685,157.850168 C 40.069108,157.767760 38.317882,157.518214 36.873070,157.295621" fill="none" stroke="black" stroke-width="5"/>
  <path d="M 187.491600,152.400099 C 184.901944,149.004885 184.818765,148.579178 186.028703,144.913030 C 187.588350,140.187251 190.681913,137.989517 195.714817,138.031803 C 201.502454,138.080432 203.213312,139.935693 203.368258,146.331227 C 203.481294,150.996907 203.145023,152.064681 201.000000,153.851243 C 199.377877,155.202289 197.049288,155.945144 194.368689,155.966731 C 190.782543,155.995610 189.875047,155.524960 187.491600,152.400099" fill="none" stroke="black" stroke-width="5"/>
  <path d="M 61.224312,137.738770 C 58.028124,134.336583 57.446789,128.236370 59.938867,124.250000 C 61.613510,121.571213 62.597067,121.000000 65.534961,121.000000 C 70.187910,121.000000 74.313644,123.198196 75.805315,126.472058 C 77.722385,130.679568 77.221887,132.978113 73.600000,136.600000 C 69.413027,140.786973 64.511651,141.237981 61.224312,137.738770" fill="none" stroke="black" stroke-width="5"/>
  <path d="M 166.534796,132.896408 C 161.983824,128.900601 161.710609,124.428823 165.750000,120.051470 C 169.958529,115.490827 173.040886,115.218990 177.376918,119.026076 C 180.487954,121.757602 181.000000,122.815960 181.000000,126.514699 C 181.000000,130.097066 180.482050,131.258039 177.923275,133.411106 C 173.877141,136.815703 170.842418,136.678550 166.534796,132.896408" fill="none" stroke="black" stroke-width="5"/>
  <path d="M 89.000000,129.293772 C 88.175000,128.992188 86.487500,127.824273 85.250000,126.698405 C 80.451065,122.332370 83.820143,112.712306 90.605705,111.405729 C 93.148655,110.916078 94.371758,111.387511 97.355705,114.007451 C 100.492856,116.761906 101.000000,117.808893 101.000000,121.531012 C 101.000000,125.011043 100.485806,126.259305 98.365141,127.927420 C 95.834199,129.918259 92.170536,130.452779 89.000000,129.293772" fill="none" stroke="black" stroke-width="5"/>
  <path d="M 137.687091,120.195281 C 134.323975,116.684944 134.064891,111.121980 137.068094,106.904370 C 138.794761,104.479490 139.836976,104.000000 143.381003,104.000000 C 151.163598,104.000000 155.575187,111.818625 151.295891,118.027494 C 147.255702,123.889439 142.024644,124.722711 137.687091,120.195281" fill="none" stroke="black" stroke-width="5"/>
  <path d="M 113.772332,114.285900 C 110.604626,113.804607 107.000000,109.285256 107.000000,105.794994 C 107.000000,100.152663 111.003627,96.000000 116.443461,96.000000 C 119.747743,96.000000 125.000000,102.206873 125.000000,106.111719 C 125.000000,109.367162 120.272518,115.126317 117.826923,114.850168 C 117.097115,114.767760 115.272549,114.513840 113.772332,114.285900" fill="none" stroke="black" stroke-width="5"/>
  <path d="M 108.819682,81.250000 C 106.464675,78.484596 104.758718,73.335572 105.462663,71.117639 C 106.407758,68.139909 111.767032,64.000000 114.676725,64.000000 C 116.230404,64.000000 118.554125,65.354125 120.723975,67.523975 C 123.968434,70.768434 124.196689,71.383149 123.601691,75.273975 C 122.775174,80.678745 120.053887,83.000000 114.544204,83.000000 C 111.746002,83.000000 109.804546,82.406492 108.819682,81.250000" fill="none" stroke="black" stroke-width="5"/>
  <path d="M 109.068094,48.095630 C 102.371395,38.690983 112.754078,28.894809 122.877325,35.066471 C 126.091990,37.026299 126.225503,37.338124 125.649452,41.540871 C 124.601358,49.187555 122.571614,50.957591 114.818094,50.986345 C 111.887045,50.997215 110.714439,50.407707 109.068094,48.095630" fill="none" stroke="black" stroke-width="5"/>
  <path d="M 117.601446,19.750000 C 114.085441,16.598304 113.395424,11.367753 115.952440,7.250000 C 117.737918,4.374710 118.482281,4.000000 122.408576,4.000000 C 131.910787,4.000000 136.218496,12.343079 130.098790,18.894245 C 126.464392,22.784880 121.375848,23.133318 117.601446,19.750000" fill="none" stroke="black" stroke-width="5"/>
</svg>
