<?xml version="1.0" encoding="utf-8" ?>
<svg baseProfile="full" height="221" version="1.1" width="259" xmlns="http://www.w3.org/2000/svg" xmlns:ev="http://www.w3.org/2001/xml-events" xmlns:xlink="http://www.w3.org/1999/xlink"><defs /><rect fill="white" height="221" width="259" x="0" y="0" /><circle cx="183.1666717529297" cy="200.27777099609375" fill="none" r="5.840035438537598" stroke="black" stroke-width="5" /><circle cx="212.19619750976562" cy="193.86709594726562" fill="none" r="5.617033004760742" stroke="black" stroke-width="5" /><circle cx="154.40322875976562" cy="190.7903289794922" fill="none" r="5.448996543884277" stroke="black" stroke-width="5" /><circle cx="130.87078857421875" cy="170.96067810058594" fill="none" r="5.9621710777282715" stroke="black" stroke-width="5" /><circle cx="241.0" cy="139.0" fill="none" r="5.831051826477051" stroke="black" stroke-width="5" /><circle cx="123.0999984741211" cy="136.10000610351562" fill="none" r="5.515529632568359" stroke="black" stroke-width="5" /><circle cx="217.5" cy="121.5" fill="none" r="3.8079864978790283" stroke="black" stroke-width="5" /><circle cx="191.12025451660156" cy="108.04430389404297" fill="none" r="5.9570088386535645" stroke="black" stroke-width="5" /><circle cx="156.73077392578125" cy="105.88461303710938" fill="none" r="5.596215724945068" stroke="black" stroke-width="5" /><circle cx="124.72222137451172" cy="103.27777862548828" fill="none" r="3.221365213394165" stroke="black" stroke-width="5" /><circle cx="66.9756088256836" cy="106.90243530273438" fill="none" r="5.902592182159424" stroke="black" stroke-width="5" /><circle cx="97.5" cy="105.21428680419922" fill="none" r="5.782726764678955" stroke="black" stroke-width="5" /><circle cx="44.125" cy="89.5" fill="none" r="5.4787516593933105" stroke="black" stroke-width="5" /><circle cx="121.33333587646484" cy="74.33333587646484" fill="none" r="5.82151460647583" stroke="black" stroke-width="5" /><circle cx="35.16666793823242" cy="60.0" fill="none" r="5.540356159210205" stroke="black" stroke-width="5" /><circle cx="122.0882339477539" cy="43.20588302612305" fill="none" r="5.865518569946289" stroke="black" stroke-width="5" /><circle cx="33.14788818359375" cy="28.345069885253906" fill="none" r="5.6569623947143555" stroke="black" stroke-width="5" /><circle cx="125.57058715820312" cy="14.31176471710205" fill="none" r="5.901183128356934" stroke="black" stroke-width="5" /><path d="M 0,0 L 0,220 L 258,220 L 258,0 Z" fill="none" stroke="black" stroke-width="5" /></svg>