<?xml version="1.0" encoding="utf-8" ?>
<svg baseProfile="full" height="220" version="1.1" width="255" xmlns="http://www.w3.org/2000/svg" xmlns:ev="http://www.w3.org/2001/xml-events" xmlns:xlink="http://www.w3.org/1999/xlink"><defs /><rect fill="white" height="220" width="255" x="0" y="0" /><path d="M 214,196 L 209,198 L 207,201 L 208,204 L 211,207 L 215,207 L 218,203 L 217,198 Z" fill="none" stroke="black" stroke-width="5" /><path d="M 6,194 L 4,197 L 5,203 L 7,204 L 14,203 L 14,196 L 12,194 Z" fill="none" stroke="black" stroke-width="5" /><path d="M 237,188 L 236,192 L 239,196 L 242,197 L 246,195 L 247,190 L 244,187 L 239,187 Z" fill="none" stroke="black" stroke-width="5" /><path d="M 196,173 L 192,176 L 192,179 L 193,182 L 199,183 L 202,179 L 202,176 L 200,174 Z" fill="none" stroke="black" stroke-width="5" /><path d="M 15,168 L 15,170 L 17,172 L 19,172 L 20,171 L 21,171 L 21,167 L 20,166 L 17,166 Z" fill="none" stroke="black" stroke-width="5" /><path d="M 195,143 L 194,144 L 192,144 L 192,145 L 191,146 L 192,149 L 193,149 L 194,150 L 197,148 L 197,144 L 196,144 Z" fill="none" stroke="black" stroke-width="5" /><path d="M 36,143 L 33,147 L 35,152 L 37,153 L 42,152 L 44,149 L 43,145 L 40,143 Z" fill="none" stroke="black" stroke-width="5" /><path d="M 66,124 L 63,126 L 62,132 L 65,135 L 69,135 L 73,130 L 70,125 Z" fill="none" stroke="black" stroke-width="5" /><path d="M 169,121 L 166,125 L 167,129 L 169,131 L 174,131 L 177,127 L 177,124 L 174,121 Z" fill="none" stroke="black" stroke-width="5" /><path d="M 89,116 L 87,118 L 87,123 L 89,125 L 95,125 L 96,124 L 96,118 L 94,116 Z" fill="none" stroke="black" stroke-width="5" /><path d="M 142,108 L 139,110 L 138,114 L 140,117 L 146,118 L 148,116 L 148,110 L 146,108 Z" fill="none" stroke="black" stroke-width="5" /><path d="M 114,102 L 113,103 L 113,107 L 114,107 L 115,108 L 117,108 L 118,107 L 118,104 L 116,102 Z" fill="none" stroke="black" stroke-width="5" /><path d="M 113,68 L 110,70 L 109,76 L 113,79 L 116,79 L 119,75 L 119,71 L 116,68 Z" fill="none" stroke="black" stroke-width="5" /><path d="M 115,36 L 111,39 L 111,45 L 113,47 L 118,47 L 120,46 L 121,40 L 118,36 Z" fill="none" stroke="black" stroke-width="5" /><path d="M 126,8 L 123,7 L 120,8 L 117,11 L 117,13 L 120,17 L 126,17 L 128,14 L 128,10 Z" fill="none" stroke="black" stroke-width="5" /><path d="M 0,0 L 0,219 L 254,219 L 254,0 Z" fill="none" stroke="black" stroke-width="5" /></svg>