<?xml version="1.0" encoding="utf-8" ?>
<svg baseProfile="full" height="219" version="1.1" width="261" xmlns="http://www.w3.org/2000/svg" xmlns:ev="http://www.w3.org/2001/xml-events" xmlns:xlink="http://www.w3.org/1999/xlink"><defs /><rect fill="white" height="219" width="261" x="0" y="0" /><circle cx="14.083333015441895" cy="198.77777099609375" fill="none" r="5.228301048278809" stroke="black" stroke-width="1" /><path d="M 42,180 L 41,184 L 46,185 L 47,181 Z" fill="none" stroke="black" stroke-width="1" /><circle cx="215.1999969482422" cy="183.8000030517578" fill="none" r="5.2802534103393555" stroke="black" stroke-width="1" /><circle cx="191.09091186523438" cy="174.78787231445312" fill="none" r="5.2246222496032715" stroke="black" stroke-width="1" /><circle cx="234.89999389648438" cy="165.89999389648438" fill="none" r="5.515541076660156" stroke="black" stroke-width="1" /><circle cx="70.69999694824219" cy="165.10000610351562" fill="none" r="5.375974178314209" stroke="black" stroke-width="1" /><circle cx="166.3000030517578" cy="158.6999969482422" fill="none" r="5.420428276062012" stroke="black" stroke-width="1" /><circle cx="99.5" cy="146.5" fill="none" r="5.147915363311768" stroke="black" stroke-width="1" /><circle cx="243.5" cy="139.0" fill="none" r="3.6401548385620117" stroke="black" stroke-width="1" /><circle cx="145.1999969482422" cy="140.1999969482422" fill="none" r="5.2802534103393555" stroke="black" stroke-width="1" /><circle cx="122.0" cy="125.83333587646484" fill="none" r="5.540358543395996" stroke="black" stroke-width="1" /><circle cx="143.46774291992188" cy="107.40322875976562" fill="none" r="5.616388320922852" stroke="black" stroke-width="1" /><circle cx="109.0" cy="102.0" fill="none" r="5.385264873504639" stroke="black" stroke-width="1" /><circle cx="167.5" cy="90.0" fill="none" r="3.6401548385620117" stroke="black" stroke-width="1" /><circle cx="91.9375" cy="74.9375" fill="none" r="5.74534273147583" stroke="black" stroke-width="1" /><circle cx="189.1999969482422" cy="64.80000305175781" fill="none" r="5.2802534103393555" stroke="black" stroke-width="1" /><circle cx="74.17213439941406" cy="50.926231384277344" fill="none" r="5.254512310028076" stroke="black" stroke-width="1" /><path d="M 214,40 L 208,44 L 208,47 L 211,50 L 216,49 L 218,45 Z" fill="none" stroke="black" stroke-width="1" /><circle cx="51.16666793823242" cy="28.83333396911621" fill="none" r="5.296848297119141" stroke="black" stroke-width="1" /><circle cx="237.0" cy="22.0" fill="none" r="5.385264873504639" stroke="black" stroke-width="1" /><circle cx="28.5" cy="12.0" fill="none" r="5.590270042419434" stroke="black" stroke-width="1" /><path d="M 0,0 L 0,218 L 260,218 L 260,0 Z" fill="none" stroke="black" stroke-width="1" /></svg>