<?xml version="1.0" encoding="utf-8" ?>
<svg baseProfile="full" height="220" version="1.1" width="255" xmlns="http://www.w3.org/2000/svg" xmlns:ev="http://www.w3.org/2001/xml-events" xmlns:xlink="http://www.w3.org/1999/xlink"><defs /><rect fill="white" height="220" width="255" x="0" y="0" /><circle cx="212.756103515625" cy="201.65853881835938" fill="none" r="5.7937469482421875" stroke="black" stroke-width="1" /><circle cx="9.5" cy="198.94444274902344" fill="none" r="6.057950019836426" stroke="black" stroke-width="1" /><circle cx="212.85592651367188" cy="201.3432159423828" fill="black" r="10.508508682250977" stroke="black" stroke-width="1" /><circle cx="241.5" cy="191.5" fill="none" r="5.700977325439453" stroke="black" stroke-width="1" /><circle cx="241.671875" cy="191.4375" fill="black" r="10.694097518920898" stroke="black" stroke-width="1" /><circle cx="197.0" cy="178.25" fill="none" r="5.483028411865234" stroke="black" stroke-width="1" /><circle cx="196.21121215820312" cy="177.89654541015625" fill="black" r="10.61418628692627" stroke="black" stroke-width="1" /><circle cx="18.258621215820312" cy="168.94827270507812" fill="none" r="3.424236536026001" stroke="black" stroke-width="1" /><circle cx="18.384614944458008" cy="168.6923065185547" fill="black" r="10.638035774230957" stroke="black" stroke-width="1" /><path d="M 195,143 L 192,144 L 191,146 L 192,149 L 194,150 L 197,148 L 197,144 Z" fill="none" stroke="black" stroke-width="1" /><circle cx="38.5" cy="148.0" fill="none" r="5.590270042419434" stroke="black" stroke-width="1" /><circle cx="194.31817626953125" cy="146.22727966308594" fill="black" r="10.68432903289795" stroke="black" stroke-width="1" /><circle cx="38.80479431152344" cy="147.59588623046875" fill="black" r="10.748598098754883" stroke="black" stroke-width="1" /><circle cx="67.19230651855469" cy="129.8076934814453" fill="none" r="5.928919315338135" stroke="black" stroke-width="1" /><circle cx="171.63043212890625" cy="125.93478393554688" fill="none" r="5.707608222961426" stroke="black" stroke-width="1" /><circle cx="66.45833587646484" cy="129.8020782470703" fill="black" r="10.768465995788574" stroke="black" stroke-width="1" /><circle cx="172.0" cy="125.57142639160156" fill="black" r="10.618722915649414" stroke="black" stroke-width="1" /><circle cx="91.69999694824219" cy="120.69999694824219" fill="none" r="5.420436382293701" stroke="black" stroke-width="1" /><circle cx="91.72262573242188" cy="120.27007293701172" fill="black" r="10.413639068603516" stroke="black" stroke-width="1" /><circle cx="143.5" cy="113.0" fill="none" r="5.590270042419434" stroke="black" stroke-width="1" /><circle cx="143.07664489746094" cy="112.8211669921875" fill="black" r="10.633744239807129" stroke="black" stroke-width="1" /><circle cx="115.5" cy="105.0" fill="none" r="3.3542017936706543" stroke="black" stroke-width="1" /><circle cx="115.5" cy="105.0" fill="black" r="10.30786418914795" stroke="black" stroke-width="1" /><circle cx="114.21428680419922" cy="73.5" fill="none" r="5.782726764678955" stroke="black" stroke-width="1" /><circle cx="114.13491821289062" cy="73.31349182128906" fill="black" r="10.532240867614746" stroke="black" stroke-width="1" /><circle cx="115.80555725097656" cy="41.63888931274414" fill="none" r="6.050939083099365" stroke="black" stroke-width="1" /><circle cx="116.20188903808594" cy="41.53773498535156" fill="black" r="10.797975540161133" stroke="black" stroke-width="1" /><circle cx="122.66000366210938" cy="12.260000228881836" fill="none" r="5.798648357391357" stroke="black" stroke-width="1" /><circle cx="123.07142639160156" cy="12.071428298950195" fill="black" r="10.392895698547363" stroke="black" stroke-width="1" /><path d="M 0,0 L 0,219 L 254,219 L 254,0 Z" fill="none" stroke="black" stroke-width="1" /></svg>