<?xml version="1.0" encoding="utf-8" ?>
<svg baseProfile="full" height="222" version="1.1" width="264" xmlns="http://www.w3.org/2000/svg" xmlns:ev="http://www.w3.org/2001/xml-events" xmlns:xlink="http://www.w3.org/1999/xlink"><defs /><rect fill="white" height="222" width="264" x="0" y="0" /><circle cx="71.0" cy="202.0" fill="none" r="5.385264873504639" stroke="black" stroke-width="1" /><circle cx="105.54225158691406" cy="198.83802795410156" fill="none" r="5.465407848358154" stroke="black" stroke-width="1" /><circle cx="40.0" cy="195.0" fill="none" r="5.385264873504639" stroke="black" stroke-width="1" /><circle cx="130.3000030517578" cy="184.6999969482422" fill="none" r="5.420428276062012" stroke="black" stroke-width="1" /><circle cx="24.83333396911621" cy="169.8333282470703" fill="none" r="5.296844482421875" stroke="black" stroke-width="1" /><circle cx="136.90908813476562" cy="151.78787231445312" fill="none" r="5.2246222496032715" stroke="black" stroke-width="1" /><circle cx="104.5" cy="118.5" fill="none" r="5.147915363311768" stroke="black" stroke-width="1" /><circle cx="162.25" cy="118.25" fill="none" r="5.256049156188965" stroke="black" stroke-width="1" /><circle cx="134.5" cy="116.80000305175781" fill="none" r="5.412126541137695" stroke="black" stroke-width="1" /><circle cx="71.69999694824219" cy="115.69999694824219" fill="none" r="4.356703281402588" stroke="black" stroke-width="1" /><circle cx="194.5" cy="112.5" fill="none" r="5.147915363311768" stroke="black" stroke-width="1" /><circle cx="42.23684310913086" cy="100.13157653808594" fill="none" r="4.325024127960205" stroke="black" stroke-width="1" /><circle cx="222.41175842285156" cy="94.19117736816406" fill="none" r="5.379825592041016" stroke="black" stroke-width="1" /><circle cx="136.77777099609375" cy="86.08333587646484" fill="none" r="5.228306770324707" stroke="black" stroke-width="1" /><circle cx="38.06716537475586" cy="71.1567153930664" fill="none" r="5.2660813331604" stroke="black" stroke-width="1" /><circle cx="232.0" cy="63.0" fill="none" r="5.385264873504639" stroke="black" stroke-width="1" /><circle cx="136.06716918945312" cy="53.156715393066406" fill="none" r="5.266077518463135" stroke="black" stroke-width="1" /><circle cx="39.5" cy="44.0" fill="none" r="5.4084272384643555" stroke="black" stroke-width="1" /><circle cx="241.5" cy="33.0" fill="none" r="4.031229019165039" stroke="black" stroke-width="1" /><circle cx="133.5" cy="18.75" fill="none" r="5.551001071929932" stroke="black" stroke-width="1" /><path d="M 0,0 L 0,221 L 263,221 L 263,0 Z" fill="none" stroke="black" stroke-width="1" /></svg>