<?xml version="1.0" encoding="utf-8" ?>
<svg baseProfile="full" height="217" version="1.1" width="263" xmlns="http://www.w3.org/2000/svg" xmlns:ev="http://www.w3.org/2001/xml-events" xmlns:xlink="http://www.w3.org/1999/xlink"><defs /><rect fill="white" height="217" width="263" x="0" y="0" /><path d="M 30,189 L 28,191 L 28,196 L 30,198 L 35,198 L 36,197 L 36,190 L 34,189 Z" fill="none" stroke="black" stroke-width="5" /><path d="M 239,188 L 237,190 L 238,196 L 240,197 L 245,196 L 246,195 L 246,190 L 244,188 Z" fill="none" stroke="black" stroke-width="5" /><path d="M 66,176 L 63,174 L 59,175 L 57,177 L 57,182 L 58,183 L 64,183 L 66,181 Z" fill="none" stroke="black" stroke-width="5" /><path d="M 235,160 L 234,165 L 236,168 L 240,168 L 243,166 L 242,160 Z" fill="none" stroke="black" stroke-width="5" /><path d="M 85,148 L 83,150 L 82,155 L 83,157 L 86,159 L 88,159 L 92,155 L 92,152 L 91,150 Z" fill="none" stroke="black" stroke-width="5" /><path d="M 157,140 L 153,144 L 153,146 L 155,149 L 161,149 L 162,148 L 162,142 L 160,142 Z" fill="none" stroke="black" stroke-width="5" /><path d="M 128,135 L 127,136 L 127,143 L 128,144 L 134,143 L 136,138 L 133,135 Z" fill="none" stroke="black" stroke-width="5" /><path d="M 237,126 L 235,128 L 235,133 L 237,135 L 241,135 L 243,133 L 244,130 L 242,126 Z" fill="none" stroke="black" stroke-width="5" /><path d="M 178,121 L 177,122 L 177,125 L 179,128 L 182,128 L 184,126 L 184,123 L 182,121 Z" fill="none" stroke="black" stroke-width="5" /><path d="M 101,118 L 98,121 L 99,126 L 100,127 L 106,127 L 108,121 L 105,118 Z" fill="none" stroke="black" stroke-width="5" /><path d="M 74,102 L 72,102 L 68,105 L 69,111 L 70,112 L 76,111 L 77,110 L 77,105 Z" fill="none" stroke="black" stroke-width="5" /><path d="M 199,94 L 197,98 L 199,100 L 199,102 L 203,103 L 206,100 L 206,95 L 205,94 Z" fill="none" stroke="black" stroke-width="5" /><path d="M 230,93 L 227,96 L 227,99 L 229,102 L 233,102 L 236,100 L 236,95 L 233,93 Z" fill="none" stroke="black" stroke-width="5" /><path d="M 112,89 L 108,90 L 106,96 L 109,99 L 113,98 L 116,94 L 116,91 Z" fill="none" stroke="black" stroke-width="5" /><path d="M 48,78 L 46,80 L 46,83 L 48,85 L 52,85 L 53,84 L 53,80 L 51,78 Z" fill="none" stroke="black" stroke-width="5" /><path d="M 118,60 L 117,62 L 118,65 L 119,66 L 123,66 L 125,63 L 124,61 L 121,59 Z" fill="none" stroke="black" stroke-width="5" /><path d="M 31,48 L 29,51 L 29,54 L 32,57 L 34,57 L 35,58 L 38,55 L 38,50 L 36,48 Z" fill="none" stroke="black" stroke-width="5" /><path d="M 129,28 L 127,30 L 127,34 L 130,37 L 134,37 L 136,35 L 136,29 L 135,28 Z" fill="none" stroke="black" stroke-width="5" /><path d="M 42,20 L 38,24 L 38,28 L 40,30 L 45,30 L 48,27 L 48,24 Z" fill="none" stroke="black" stroke-width="5" /><path d="M 161,13 L 159,14 L 158,19 L 159,22 L 164,23 L 167,21 L 168,17 L 166,14 Z" fill="none" stroke="black" stroke-width="5" /><path d="M 191,11 L 191,15 L 193,17 L 196,17 L 198,16 L 198,12 L 196,10 L 192,10 Z" fill="none" stroke="black" stroke-width="5" /><path d="M 0,0 L 0,216 L 262,216 L 262,0 Z" fill="none" stroke="black" stroke-width="5" /></svg>