<?xml version="1.0" encoding="utf-8" ?>
<svg baseProfile="full" height="220" version="1.1" width="265" xmlns="http://www.w3.org/2000/svg" xmlns:ev="http://www.w3.org/2001/xml-events" xmlns:xlink="http://www.w3.org/1999/xlink"><defs /><rect fill="white" height="220" width="265" x="0" y="0" /><circle cx="38.0" cy="185.0" fill="none" r="5.385264873504639" stroke="black" stroke-width="1" /><circle cx="68.53704071044922" cy="179.05555725097656" fill="none" r="3.971616506576538" stroke="black" stroke-width="1" /><circle cx="38.230770111083984" cy="185.53846740722656" fill="black" r="11.192344665527344" stroke="black" stroke-width="1" /><circle cx="202.78787231445312" cy="176.09091186523438" fill="none" r="5.224634170532227" stroke="black" stroke-width="1" /><circle cx="68.16666412353516" cy="179.1666717529297" fill="black" r="10.987462043762207" stroke="black" stroke-width="1" /><circle cx="202.591552734375" cy="176.55633544921875" fill="black" r="10.86989688873291" stroke="black" stroke-width="1" /><circle cx="227.2796630859375" cy="167.17796325683594" fill="none" r="5.333848476409912" stroke="black" stroke-width="1" /><circle cx="227.03030395507812" cy="167.9242401123047" fill="black" r="10.770737648010254" stroke="black" stroke-width="1" /><circle cx="176.82786560058594" cy="162.0737762451172" fill="none" r="5.254513740539551" stroke="black" stroke-width="1" /><circle cx="176.85484313964844" cy="162.7096710205078" fill="black" r="10.988758087158203" stroke="black" stroke-width="1" /><circle cx="87.23332977294922" cy="156.76666259765625" fill="none" r="5.32697057723999" stroke="black" stroke-width="1" /><circle cx="25.407691955566406" cy="154.1769256591797" fill="none" r="5.390744209289551" stroke="black" stroke-width="1" /><circle cx="87.31818389892578" cy="157.31817626953125" fill="black" r="10.955497741699219" stroke="black" stroke-width="1" /><circle cx="25.437007904052734" cy="154.8346405029297" fill="black" r="11.237591743469238" stroke="black" stroke-width="1" /><circle cx="248.13999938964844" cy="141.74000549316406" fill="none" r="5.579278945922852" stroke="black" stroke-width="1" /><circle cx="248.0" cy="141.55555725097656" fill="black" r="10.576687812805176" stroke="black" stroke-width="1" /><circle cx="155.5" cy="137.5" fill="none" r="5.700977325439453" stroke="black" stroke-width="1" /><circle cx="155.5" cy="138.5" fill="black" r="11.068072319030762" stroke="black" stroke-width="1" /><circle cx="108.5" cy="133.0" fill="none" r="5.590270042419434" stroke="black" stroke-width="1" /><circle cx="108.09140014648438" cy="132.51075744628906" fill="black" r="11.193917274475098" stroke="black" stroke-width="1" /><circle cx="24.23134422302246" cy="124.08209228515625" fill="none" r="5.139987945556641" stroke="black" stroke-width="1" /><circle cx="24.0" cy="124.5" fill="black" r="11.280613899230957" stroke="black" stroke-width="1" /><circle cx="132.0" cy="112.66666412353516" fill="none" r="5.270562171936035" stroke="black" stroke-width="1" /><circle cx="131.5625" cy="112.78125" fill="black" r="10.92263412475586" stroke="black" stroke-width="1" /><circle cx="28.236841201782227" cy="93.02631378173828" fill="none" r="5.176356315612793" stroke="black" stroke-width="1" /><circle cx="154.3333282470703" cy="91.0" fill="none" r="5.270564556121826" stroke="black" stroke-width="1" /><circle cx="28.706422805786133" cy="92.61467742919922" fill="black" r="11.300250053405762" stroke="black" stroke-width="1" /><circle cx="154.4705810546875" cy="91.70587921142578" fill="black" r="10.814666748046875" stroke="black" stroke-width="1" /><circle cx="179.5" cy="66.0" fill="none" r="4.031229019165039" stroke="black" stroke-width="1" /><circle cx="179.5" cy="66.0" fill="black" r="10.920265197753906" stroke="black" stroke-width="1" /><circle cx="198.39999389648438" cy="36.849998474121094" fill="none" r="5.411435127258301" stroke="black" stroke-width="1" /><circle cx="198.3554229736328" cy="37.04216766357422" fill="black" r="10.588019371032715" stroke="black" stroke-width="1" /><circle cx="174.0" cy="11.5" fill="none" r="5.315173149108887" stroke="black" stroke-width="1" /><circle cx="139.7857208251953" cy="8.214285850524902" fill="none" r="5.273244857788086" stroke="black" stroke-width="1" /><circle cx="173.59524536132812" cy="11.5" fill="black" r="10.700998306274414" stroke="black" stroke-width="1" /><path d="M 0,0 L 0,219 L 264,219 L 264,0 Z" fill="none" stroke="black" stroke-width="1" /></svg>