<?xml version="1.0" encoding="utf-8" ?>
<svg baseProfile="full" height="216" version="1.1" width="262" xmlns="http://www.w3.org/2000/svg" xmlns:ev="http://www.w3.org/2001/xml-events" xmlns:xlink="http://www.w3.org/1999/xlink"><defs /><rect fill="white" height="216" width="262" x="0" y="0" /><circle cx="235.91175842285156" cy="197.88235473632812" fill="none" r="5.002265453338623" stroke="black" stroke-width="5" /><path d="M 205,188 L 204,195 L 211,195 L 212,189 Z" fill="none" stroke="black" stroke-width="5" /><circle cx="175.85000610351562" cy="187.0" fill="none" r="5.246283531188965" stroke="black" stroke-width="5" /><circle cx="148.5370330810547" cy="174.94444274902344" fill="none" r="3.971623182296753" stroke="black" stroke-width="5" /><circle cx="132.67391967773438" cy="151.1086883544922" fill="none" r="4.721537113189697" stroke="black" stroke-width="5" /><path d="M 235,129 L 234,136 L 241,137 L 241,130 Z" fill="none" stroke="black" stroke-width="5" /><circle cx="51.0" cy="120.0" fill="none" r="3.6056511402130127" stroke="black" stroke-width="5" /><circle cx="127.0" cy="116.5" fill="none" r="4.924529075622559" stroke="black" stroke-width="5" /><circle cx="223.1666717529297" cy="106.5" fill="none" r="4.859224796295166" stroke="black" stroke-width="5" /><circle cx="80.20689392089844" cy="104.68965148925781" fill="none" r="4.842566967010498" stroke="black" stroke-width="5" /><circle cx="24.347457885742188" cy="95.7203369140625" fill="none" r="4.908995628356934" stroke="black" stroke-width="5" /><circle cx="197.0" cy="88.0" fill="none" r="5.000100135803223" stroke="black" stroke-width="5" /><circle cx="105.29310607910156" cy="87.87931060791016" fill="none" r="5.169351577758789" stroke="black" stroke-width="5" /><circle cx="161.25" cy="83.0" fill="none" r="5.483028411865234" stroke="black" stroke-width="5" /><circle cx="133.43443298339844" cy="82.72950744628906" fill="none" r="4.981991291046143" stroke="black" stroke-width="5" /><circle cx="18.601694107055664" cy="64.8559341430664" fill="none" r="4.893167972564697" stroke="black" stroke-width="5" /><circle cx="132.5" cy="44.5" fill="none" r="5.147915363311768" stroke="black" stroke-width="5" /><circle cx="29.83333396911621" cy="36.5" fill="none" r="4.859226226806641" stroke="black" stroke-width="5" /><circle cx="123.5" cy="9.800000190734863" fill="none" r="5.412123680114746" stroke="black" stroke-width="5" /><path d="M 0,0 L 0,215 L 261,215 L 261,0 Z" fill="none" stroke="black" stroke-width="5" /></svg>