<?xml version="1.0" encoding="utf-8" ?>
<svg baseProfile="full" height="221" version="1.1" width="256" xmlns="http://www.w3.org/2000/svg" xmlns:ev="http://www.w3.org/2001/xml-events" xmlns:xlink="http://www.w3.org/1999/xlink"><defs /><rect fill="white" height="221" width="256" x="0" y="0" /><path d="M 198,166 L 195,169 L 195,172 L 198,173 L 199,175 L 203,175 L 205,172 L 204,166 Z" fill="none" stroke="black" stroke-width="5" /><path d="M 171,160 L 169,160 L 165,163 L 165,167 L 169,170 L 173,169 L 175,165 L 174,162 Z" fill="none" stroke="black" stroke-width="5" /><path d="M 225,156 L 223,160 L 223,164 L 225,165 L 231,165 L 232,163 L 232,158 L 230,156 Z" fill="none" stroke="black" stroke-width="5" /><path d="M 141,150 L 137,153 L 137,158 L 143,160 L 146,158 L 146,153 L 143,150 Z" fill="none" stroke="black" stroke-width="5" /><path d="M 22,145 L 20,146 L 19,148 L 19,153 L 20,153 L 21,155 L 25,155 L 28,153 L 28,147 Z" fill="none" stroke="black" stroke-width="5" /><path d="M 114,128 L 112,131 L 112,134 L 115,137 L 119,137 L 121,135 L 121,130 L 120,128 Z" fill="none" stroke="black" stroke-width="5" /><path d="M 13,117 L 13,121 L 14,123 L 16,124 L 20,124 L 22,122 L 22,116 L 20,115 L 16,115 Z" fill="none" stroke="black" stroke-width="5" /><path d="M 106,95 L 106,97 L 108,99 L 109,99 L 112,97 L 112,95 L 111,94 L 107,94 Z" fill="none" stroke="black" stroke-width="5" /><path d="M 13,86 L 12,88 L 12,93 L 15,95 L 17,95 L 20,93 L 20,87 L 19,86 Z" fill="none" stroke="black" stroke-width="5" /><path d="M 135,68 L 132,72 L 132,76 L 133,77 L 139,78 L 141,76 L 142,72 L 139,68 Z" fill="none" stroke="black" stroke-width="5" /><path d="M 246,64 L 244,67 L 244,71 L 246,73 L 252,73 L 254,71 L 254,67 L 252,64 Z" fill="none" stroke="black" stroke-width="5" /><path d="M 17,58 L 13,61 L 13,65 L 16,68 L 20,68 L 22,66 L 23,61 L 20,58 Z" fill="none" stroke="black" stroke-width="5" /><path d="M 160,52 L 158,54 L 159,59 L 161,61 L 166,61 L 166,60 L 168,59 L 168,54 L 167,54 L 166,52 Z" fill="none" stroke="black" stroke-width="5" /><path d="M 222,42 L 221,45 L 219,46 L 219,50 L 222,52 L 227,51 L 228,50 L 228,44 L 226,42 Z" fill="none" stroke="black" stroke-width="5" /><path d="M 76,42 L 74,44 L 73,47 L 76,51 L 80,51 L 83,48 L 83,43 L 82,42 Z" fill="none" stroke="black" stroke-width="5" /><path d="M 191,37 L 190,40 L 191,43 L 193,45 L 198,45 L 200,41 L 197,36 L 193,36 Z" fill="none" stroke="black" stroke-width="5" /><path d="M 29,30 L 26,32 L 25,37 L 27,40 L 32,40 L 34,39 L 35,34 L 32,31 Z" fill="none" stroke="black" stroke-width="5" /><path d="M 52,20 L 50,23 L 51,28 L 57,30 L 60,27 L 60,22 L 58,20 Z" fill="none" stroke="black" stroke-width="5" /><path d="M 0,0 L 0,220 L 255,220 L 255,0 Z" fill="none" stroke="black" stroke-width="5" /></svg>