<?xml version="1.0" encoding="utf-8" ?>
<svg baseProfile="full" height="216" version="1.1" width="262" xmlns="http://www.w3.org/2000/svg" xmlns:ev="http://www.w3.org/2001/xml-events" xmlns:xlink="http://www.w3.org/1999/xlink"><defs /><rect fill="white" height="216" width="262" x="0" y="0" /><path d="M 233,194 L 232,195 L 232,201 L 239,201 L 240,199 L 240,195 L 237,193 Z" fill="none" stroke="black" stroke-width="5" /><path d="M 205,188 L 204,189 L 204,195 L 211,195 L 212,194 L 212,189 L 211,188 Z" fill="none" stroke="black" stroke-width="5" /><path d="M 171,185 L 171,189 L 173,191 L 179,191 L 181,188 L 179,183 L 175,183 Z" fill="none" stroke="black" stroke-width="5" /><path d="M 152,173 L 149,171 L 147,172 L 145,175 L 146,178 L 151,178 L 152,176 Z" fill="none" stroke="black" stroke-width="5" /><path d="M 131,147 L 129,149 L 129,154 L 130,155 L 135,155 L 137,153 L 137,150 L 135,147 Z" fill="none" stroke="black" stroke-width="5" /><path d="M 235,129 L 234,130 L 234,136 L 235,137 L 241,137 L 242,135 L 242,132 L 240,129 Z" fill="none" stroke="black" stroke-width="5" /><path d="M 49,117 L 48,118 L 48,122 L 49,123 L 53,123 L 54,122 L 54,119 L 53,118 L 53,117 Z" fill="none" stroke="black" stroke-width="5" /><path d="M 125,112 L 123,114 L 123,119 L 125,121 L 128,121 L 131,119 L 131,114 L 129,112 Z" fill="none" stroke="black" stroke-width="5" /><path d="M 222,102 L 219,104 L 219,107 L 222,111 L 225,111 L 227,109 L 227,104 L 225,102 Z" fill="none" stroke="black" stroke-width="5" /><path d="M 79,100 L 76,103 L 76,106 L 78,109 L 82,109 L 84,107 L 85,104 L 84,102 L 81,100 Z" fill="none" stroke="black" stroke-width="5" /><path d="M 23,91 L 20,94 L 20,98 L 21,99 L 28,99 L 28,93 L 25,91 Z" fill="none" stroke="black" stroke-width="5" /><path d="M 194,84 L 194,92 L 200,92 L 201,91 L 201,86 L 199,84 Z" fill="none" stroke="black" stroke-width="5" /><path d="M 107,83 L 105,83 L 101,85 L 102,91 L 105,93 L 106,93 L 110,89 L 110,86 Z" fill="none" stroke="black" stroke-width="5" /><path d="M 159,78 L 158,79 L 158,84 L 157,86 L 159,88 L 165,87 L 166,85 L 165,80 L 163,78 Z" fill="none" stroke="black" stroke-width="5" /><path d="M 132,78 L 129,82 L 129,85 L 131,87 L 136,87 L 137,86 L 137,80 L 135,78 Z" fill="none" stroke="black" stroke-width="5" /><path d="M 18,60 L 14,64 L 14,66 L 16,69 L 21,69 L 23,67 L 23,63 L 21,61 Z" fill="none" stroke="black" stroke-width="5" /><path d="M 130,40 L 128,43 L 128,47 L 132,49 L 135,49 L 137,47 L 137,42 L 135,40 Z" fill="none" stroke="black" stroke-width="5" /><path d="M 28,32 L 26,34 L 26,39 L 28,41 L 31,41 L 34,39 L 34,35 L 33,33 L 31,32 Z" fill="none" stroke="black" stroke-width="5" /><path d="M 121,5 L 119,8 L 119,12 L 123,15 L 125,15 L 127,13 L 128,8 L 126,5 Z" fill="none" stroke="black" stroke-width="5" /><path d="M 0,0 L 0,215 L 261,215 L 261,0 Z" fill="none" stroke="black" stroke-width="5" /></svg>