<?xml version="1.0" encoding="utf-8" ?>
<svg baseProfile="full" height="220" version="1.1" width="255" xmlns="http://www.w3.org/2000/svg" xmlns:ev="http://www.w3.org/2001/xml-events" xmlns:xlink="http://www.w3.org/1999/xlink"><defs /><rect fill="white" height="220" width="255" x="0" y="0" /><circle cx="212.756103515625" cy="201.65853881835938" fill="none" r="5.7937469482421875" stroke="black" stroke-width="1" /><circle cx="9.5" cy="198.94444274902344" fill="none" r="6.057950019836426" stroke="black" stroke-width="1" /><circle cx="241.5" cy="191.5" fill="none" r="5.700977325439453" stroke="black" stroke-width="1" /><circle cx="197.0" cy="178.25" fill="none" r="5.483028411865234" stroke="black" stroke-width="1" /><circle cx="18.258621215820312" cy="168.94827270507812" fill="none" r="3.424236536026001" stroke="black" stroke-width="1" /><path d="M 195,143 L 192,144 L 191,146 L 192,149 L 194,150 L 197,148 L 197,144 Z" fill="none" stroke="black" stroke-width="1" /><circle cx="38.5" cy="148.0" fill="none" r="5.590270042419434" stroke="black" stroke-width="1" /><circle cx="67.19230651855469" cy="129.8076934814453" fill="none" r="5.928919315338135" stroke="black" stroke-width="1" /><circle cx="171.63043212890625" cy="125.93478393554688" fill="none" r="5.707608222961426" stroke="black" stroke-width="1" /><circle cx="91.69999694824219" cy="120.69999694824219" fill="none" r="5.420436382293701" stroke="black" stroke-width="1" /><circle cx="143.5" cy="113.0" fill="none" r="5.590270042419434" stroke="black" stroke-width="1" /><circle cx="115.5" cy="105.0" fill="none" r="3.3542017936706543" stroke="black" stroke-width="1" /><circle cx="114.21428680419922" cy="73.5" fill="none" r="5.782726764678955" stroke="black" stroke-width="1" /><circle cx="115.80555725097656" cy="41.63888931274414" fill="none" r="6.050939083099365" stroke="black" stroke-width="1" /><circle cx="122.66000366210938" cy="12.260000228881836" fill="none" r="5.798648357391357" stroke="black" stroke-width="1" /><path d="M 0,0 L 0,219 L 254,219 L 254,0 Z" fill="none" stroke="black" stroke-width="1" /></svg>