<?xml version="1.0" encoding="utf-8" ?>
<svg baseProfile="full" height="218" version="1.1" width="257" xmlns="http://www.w3.org/2000/svg" xmlns:ev="http://www.w3.org/2001/xml-events" xmlns:xlink="http://www.w3.org/1999/xlink"><defs /><rect fill="white" height="218" width="257" x="0" y="0" /><path d="M 200,199 L 199,206 L 206,206 L 207,200 Z" fill="none" stroke="black" stroke-width="1" /><circle cx="74.5" cy="198.5" fill="none" r="2.9155757427215576" stroke="black" stroke-width="1" /><circle cx="202.3235321044922" cy="202.44117736816406" fill="black" r="9.979753494262695" stroke="black" stroke-width="1" /><circle cx="74.66901397705078" cy="198.71127319335938" fill="black" r="10.042054176330566" stroke="black" stroke-width="1" /><circle cx="42.5" cy="191.0" fill="none" r="5.4084272384643555" stroke="black" stroke-width="1" /><circle cx="228.0" cy="189.5" fill="none" r="4.924529075622559" stroke="black" stroke-width="1" /><circle cx="42.45161437988281" cy="190.60215759277344" fill="black" r="10.51261043548584" stroke="black" stroke-width="1" /><circle cx="227.13194274902344" cy="189.4583282470703" fill="black" r="9.963496208190918" stroke="black" stroke-width="1" /><circle cx="101.24390411376953" cy="182.65853881835938" fill="none" r="5.7937445640563965" stroke="black" stroke-width="1" /><circle cx="101.0" cy="183.0" fill="black" r="10.440406799316406" stroke="black" stroke-width="1" /><circle cx="115.40625" cy="161.46875" fill="none" r="5.619020462036133" stroke="black" stroke-width="1" /><circle cx="40.57143020629883" cy="162.64285278320312" fill="none" r="5.671813488006592" stroke="black" stroke-width="1" /><circle cx="40.735294342041016" cy="163.0294189453125" fill="black" r="10.19585132598877" stroke="black" stroke-width="1" /><circle cx="230.4574432373047" cy="158.0957489013672" fill="none" r="4.925645351409912" stroke="black" stroke-width="1" /><circle cx="115.13157653808594" cy="161.86842346191406" fill="black" r="10.353479385375977" stroke="black" stroke-width="1" /><circle cx="230.98226928710938" cy="158.41844177246094" fill="black" r="10.605441093444824" stroke="black" stroke-width="1" /><circle cx="55.065216064453125" cy="144.36956787109375" fill="none" r="5.707607746124268" stroke="black" stroke-width="1" /><circle cx="55.25" cy="144.0" fill="black" r="10.680105209350586" stroke="black" stroke-width="1" /><circle cx="121.83870697021484" cy="129.40322875976562" fill="none" r="5.402750015258789" stroke="black" stroke-width="1" /><path d="M 210,123 L 212,130 L 217,130 L 219,128 L 215,121 Z" fill="none" stroke="black" stroke-width="1" /><circle cx="121.74691009521484" cy="129.30247497558594" fill="black" r="10.228720664978027" stroke="black" stroke-width="1" /><circle cx="214.375" cy="126.0625" fill="black" r="10.339080810546875" stroke="black" stroke-width="1" /><path d="M 186,103 L 180,107 L 184,113 L 188,112 L 191,108 Z" fill="none" stroke="black" stroke-width="1" /><circle cx="152.0" cy="106.0" fill="none" r="5.385264873504639" stroke="black" stroke-width="1" /><circle cx="185.38780212402344" cy="108.0268325805664" fill="black" r="10.583789825439453" stroke="black" stroke-width="1" /><circle cx="152.2957763671875" cy="105.94366455078125" fill="black" r="10.205347061157227" stroke="black" stroke-width="1" /><circle cx="119.5" cy="95.5" fill="none" r="2.9155757427215576" stroke="black" stroke-width="1" /><circle cx="119.97058868408203" cy="95.85294342041016" fill="black" r="10.199243545532227" stroke="black" stroke-width="1" /><circle cx="20.0" cy="85.0" fill="none" r="5.385264873504639" stroke="black" stroke-width="1" /><circle cx="19.870370864868164" cy="84.87036895751953" fill="black" r="10.60217571258545" stroke="black" stroke-width="1" /><circle cx="92.29310607910156" cy="79.12068939208984" fill="none" r="5.169351577758789" stroke="black" stroke-width="1" /><circle cx="92.13636016845703" cy="79.13636016845703" fill="black" r="10.350369453430176" stroke="black" stroke-width="1" /><circle cx="125.80379486083984" cy="67.1329116821289" fill="none" r="5.617026329040527" stroke="black" stroke-width="1" /><circle cx="125.90331268310547" cy="67.58287048339844" fill="black" r="10.421916961669922" stroke="black" stroke-width="1" /><circle cx="19.0" cy="57.5" fill="none" r="5.4084272384643555" stroke="black" stroke-width="1" /><circle cx="78.5" cy="55.125" fill="none" r="5.4787516593933105" stroke="black" stroke-width="1" /><circle cx="19.0" cy="57.32143020629883" fill="black" r="10.143522262573242" stroke="black" stroke-width="1" /><circle cx="78.21428680419922" cy="55.5" fill="black" r="10.39289665222168" stroke="black" stroke-width="1" /><circle cx="139.229736328125" cy="40.486488342285156" fill="none" r="5.790835380554199" stroke="black" stroke-width="1" /><circle cx="139.1380157470703" cy="40.45927429199219" fill="black" r="10.45163345336914" stroke="black" stroke-width="1" /><circle cx="62.400001525878906" cy="30.850000381469727" fill="none" r="5.4114298820495605" stroke="black" stroke-width="1" /><circle cx="62.16535568237305" cy="30.692913055419922" fill="black" r="10.196768760681152" stroke="black" stroke-width="1" /><circle cx="33.5" cy="26.5" fill="none" r="5.700977325439453" stroke="black" stroke-width="1" /><circle cx="33.653846740722656" cy="26.19230842590332" fill="black" r="10.168068885803223" stroke="black" stroke-width="1" /><circle cx="166.72222900390625" cy="19.44444465637207" fill="none" r="2.75836181640625" stroke="black" stroke-width="1" /><circle cx="166.94920349121094" cy="19.483957290649414" fill="black" r="9.962677955627441" stroke="black" stroke-width="1" /><circle cx="197.23333740234375" cy="12.766666412353516" fill="none" r="5.326968193054199" stroke="black" stroke-width="1" /><circle cx="234.72535705566406" cy="10.711267471313477" fill="none" r="5.757242679595947" stroke="black" stroke-width="1" /><circle cx="197.1666717529297" cy="12.833333015441895" fill="black" r="10.069307327270508" stroke="black" stroke-width="1" /><circle cx="234.1995849609375" cy="11.179012298583984" fill="black" r="10.557302474975586" stroke="black" stroke-width="1" /><path d="M 0,0 L 0,217 L 256,217 L 256,0 Z" fill="none" stroke="black" stroke-width="1" /></svg>