<?xml version="1.0" encoding="utf-8" ?>
<svg baseProfile="full" height="219" version="1.1" width="261" xmlns="http://www.w3.org/2000/svg" xmlns:ev="http://www.w3.org/2001/xml-events" xmlns:xlink="http://www.w3.org/1999/xlink"><defs /><rect fill="white" height="219" width="261" x="0" y="0" /><path d="M 12,194 L 9,198 L 10,202 L 11,203 L 17,203 L 19,197 L 16,194 Z" fill="none" stroke="black" stroke-width="5" /><path d="M 42,180 L 41,181 L 41,184 L 42,185 L 46,185 L 47,184 L 47,181 L 46,180 Z" fill="none" stroke="black" stroke-width="5" /><path d="M 213,179 L 210,183 L 211,184 L 211,187 L 212,188 L 219,187 L 220,186 L 220,182 L 217,179 Z" fill="none" stroke="black" stroke-width="5" /><path d="M 189,170 L 186,174 L 187,178 L 188,179 L 194,179 L 196,176 L 196,173 L 193,170 Z" fill="none" stroke="black" stroke-width="5" /><path d="M 236,161 L 231,162 L 230,164 L 230,167 L 233,171 L 237,171 L 240,168 L 240,165 L 238,162 Z" fill="none" stroke="black" stroke-width="5" /><path d="M 69,160 L 67,162 L 67,169 L 70,170 L 74,169 L 76,166 L 75,163 L 73,161 Z" fill="none" stroke="black" stroke-width="5" /><path d="M 164,154 L 162,158 L 162,162 L 163,163 L 169,163 L 171,160 L 171,156 L 169,154 Z" fill="none" stroke="black" stroke-width="5" /><path d="M 97,142 L 95,144 L 95,149 L 97,151 L 102,151 L 104,149 L 104,144 L 101,142 Z" fill="none" stroke="black" stroke-width="5" /><path d="M 240,138 L 240,140 L 243,142 L 244,141 L 246,141 L 247,140 L 247,138 L 244,136 L 242,136 Z" fill="none" stroke="black" stroke-width="5" /><path d="M 142,136 L 141,137 L 141,143 L 143,145 L 147,145 L 150,142 L 150,138 L 148,136 Z" fill="none" stroke="black" stroke-width="5" /><path d="M 126,122 L 124,121 L 118,122 L 117,127 L 120,131 L 126,129 L 127,126 Z" fill="none" stroke="black" stroke-width="5" /><path d="M 145,102 L 139,104 L 139,109 L 143,113 L 148,110 L 148,105 Z" fill="none" stroke="black" stroke-width="5" /><path d="M 107,97 L 105,99 L 104,103 L 107,107 L 111,107 L 114,103 L 114,100 L 110,97 Z" fill="none" stroke="black" stroke-width="5" /><path d="M 166,87 L 164,89 L 164,91 L 166,93 L 169,93 L 171,91 L 171,90 L 170,89 L 170,88 L 169,88 L 168,87 Z" fill="none" stroke="black" stroke-width="5" /><path d="M 89,70 L 89,71 L 87,72 L 87,77 L 91,80 L 96,79 L 96,72 L 95,72 L 94,70 Z" fill="none" stroke="black" stroke-width="5" /><path d="M 187,60 L 185,62 L 185,68 L 186,69 L 192,69 L 194,67 L 194,63 L 190,60 Z" fill="none" stroke="black" stroke-width="5" /><path d="M 70,48 L 69,51 L 72,55 L 77,55 L 79,53 L 78,48 L 76,46 L 73,46 L 72,48 Z" fill="none" stroke="black" stroke-width="5" /><path d="M 214,40 L 209,42 L 208,44 L 208,47 L 209,49 L 211,50 L 216,49 L 218,45 Z" fill="none" stroke="black" stroke-width="5" /><path d="M 49,24 L 47,26 L 46,30 L 49,33 L 54,33 L 54,32 L 56,31 L 56,27 L 53,24 Z" fill="none" stroke="black" stroke-width="5" /><path d="M 232,20 L 232,23 L 235,27 L 238,27 L 241,25 L 242,23 L 242,20 L 240,18 L 234,18 Z" fill="none" stroke="black" stroke-width="5" /><path d="M 25,8 L 23,11 L 24,15 L 26,17 L 31,17 L 34,12 L 30,8 Z" fill="none" stroke="black" stroke-width="5" /><path d="M 0,0 L 0,218 L 260,218 L 260,0 Z" fill="none" stroke="black" stroke-width="5" /></svg>