<?xml version="1.0" encoding="utf-8" ?>
<svg xmlns="http://www.w3.org/2000/svg" xmlns:ev="http://www.w3.org/2001/xml-events" xmlns:xlink="http://www.w3.org/1999/xlink" baseProfile="full" height="217" version="1.1" width="257">
  <defs/>
  <path d="M 170.891730,175.407285 C 169.457181,174.647978 166.998645,172.108213 165.428317,169.763363 C 163.086349,166.266282 162.582994,164.466515 162.627800,159.750000 L 162.682424,154.000000 L 159.406312,154.000000 C 153.143832,154.000000 149.038793,151.309558 145.205576,144.692840 C 142.828063,140.588890 142.340067,136.059933 144.087132,134.312868 C 145.547160,132.852840 144.336179,132.246136 138.386631,131.456900 L 133.388161,130.793830 L 132.053931,134.836586 C 131.320105,137.060102 129.320269,140.179490 127.609851,141.768559 C 124.611731,144.553972 118.105670,147.172509 115.000000,146.843728 C 110.591342,146.377007 109.461142,147.082713 108.213124,151.081510 C 106.267626,157.315115 104.149675,159.890462 98.695890,162.654104 C 93.811513,165.129206 90.921489,165.318318 85.391662,163.524682 C 83.643476,162.957646 82.825425,163.622174 80.602772,167.414845 C 77.171126,173.270507 73.765394,175.000000 65.666022,175.000000 C 59.448783,175.000000 59.113507,174.868040 55.682909,171.070779 C 52.390230,167.426176 50.018858,161.875067 50.005577,157.780794 C 49.995915,154.802394 53.880656,148.464352 57.236623,145.983178 C 59.933433,143.989340 61.695991,143.585549 67.963768,143.525656 C 74.675511,143.461521 75.580218,143.220624 76.570718,141.233880 C 78.395455,137.573820 80.954884,135.241461 85.481388,133.113753 C 89.034173,131.443747 90.406686,131.273506 93.478877,132.121779 C 95.518643,132.684986 97.383741,132.949592 97.623539,132.709794 C 97.863337,132.469996 99.069989,129.665122 100.304989,126.476739 C 101.826029,122.549888 103.782153,119.682858 106.368361,117.589840 C 109.803393,114.809870 110.825709,114.513524 116.562298,114.634854 C 121.988034,114.749610 123.027053,114.490124 123.533706,112.893803 C 124.358459,110.295236 123.554804,109.360961 119.858963,108.621793 C 116.306385,107.911277 109.008875,100.922552 108.984944,98.207893 C 108.976663,97.268552 108.341463,94.700000 107.573389,92.500000 C 106.204556,88.579239 106.090948,88.506176 101.838446,88.811766 C 92.900826,89.454035 84.958760,82.901053 84.000000,74.093304 L 83.500000,69.500000 L 78.500000,68.913582 C 69.424128,67.849130 66.818748,65.966854 62.963138,57.688864 C 61.375165,54.279489 61.033207,52.566793 61.789466,51.810534 C 62.545725,51.054275 62.532083,50.223607 61.742641,48.959511 C 60.842164,47.517618 61.154870,46.485737 63.373984,43.576329 C 68.559014,36.778403 79.813243,34.762441 86.648573,39.407167 C 90.963169,42.339011 92.967154,45.982067 93.713205,52.250000 L 94.278582,57.000000 L 99.017167,57.000000 C 107.681985,57.000000 112.623829,60.410877 115.908928,68.658750 C 116.600893,70.396062 117.079650,72.871062 116.972832,74.158750 C 116.585999,78.822018 116.781182,78.989375 120.697995,77.352826 C 124.822085,75.629671 130.351836,76.096341 135.138213,78.571473 C 139.577029,80.866874 143.428487,89.656970 142.553119,95.494344 L 141.877454,100.000000 L 145.438727,100.000000 C 148.612114,100.000000 149.000000,99.715306 149.000000,97.386155 C 149.000000,89.905063 157.206410,83.000000 166.097409,83.000000 C 170.484350,83.000000 170.585981,82.924801 171.841326,78.750000 C 172.719061,75.830983 174.568894,73.252418 177.748079,70.516309 C 182.064167,66.801746 182.796792,66.531516 188.592538,66.516309 C 194.062300,66.501957 195.267266,66.871254 198.633645,69.593698 C 206.735549,76.145836 206.698012,88.107430 198.556757,94.094577 C 196.383838,95.692560 193.457146,97.004953 192.052997,97.011006 C 190.648849,97.017059 187.812500,97.300938 185.750000,97.641848 C 182.799180,98.129588 181.996494,98.713308 181.983550,100.380842 C 181.953687,104.227706 177.662594,110.150763 173.042743,112.721965 C 169.294589,114.808020 167.798060,115.098218 163.635905,114.546089 C 158.282612,113.835950 157.043401,114.622817 157.015313,118.750000 C 157.003968,120.416950 157.583050,121.003771 159.250000,121.014553 C 161.543849,121.029390 168.892922,123.337142 172.082751,125.044287 C 174.923241,126.564471 177.121284,132.095016 177.132471,137.750000 C 177.141799,142.464919 177.364898,143.002871 179.321429,143.028170 C 180.519643,143.043663 183.457361,144.057716 185.849692,145.281621 C 191.872768,148.362999 195.000000,154.087843 195.000000,162.032566 C 195.000000,167.806182 194.843487,168.165746 190.441184,172.505724 C 185.988006,176.895858 185.738904,176.997542 179.691184,176.893921 C 176.286033,176.835578 172.326278,176.166592 170.891730,175.407285" fill="none" stroke="black" stroke-width="5"/>
</svg>
