<?xml version="1.0" encoding="utf-8" ?>
<svg baseProfile="full" height="218" version="1.1" width="262" xmlns="http://www.w3.org/2000/svg" xmlns:ev="http://www.w3.org/2001/xml-events" xmlns:xlink="http://www.w3.org/1999/xlink"><defs /><rect fill="white" height="218" width="262" x="0" y="0" /><path d="M 143,171 L 136,173 L 131,184 L 134,194 L 141,197 L 152,189 L 152,182 Z" fill="none" stroke="black" stroke-width="5" /><circle cx="137.0357208251953" cy="156.60203552246094" fill="none" r="10.595454216003418" stroke="black" stroke-width="5" /><circle cx="44.19230651855469" cy="148.8076934814453" fill="none" r="11.26939582824707" stroke="black" stroke-width="5" /><circle cx="70.07142639160156" cy="140.125" fill="none" r="11.300514221191406" stroke="black" stroke-width="5" /><path d="M 113,129 L 113,132 L 116,132 L 115,129 Z" fill="none" stroke="black" stroke-width="5" /><circle cx="97.5" cy="133.5" fill="none" r="10.977349281311035" stroke="black" stroke-width="5" /><circle cx="131.91378784179688" cy="126.9137954711914" fill="none" r="11.296164512634277" stroke="black" stroke-width="5" /><circle cx="158.40322875976562" cy="123.20967864990234" fill="none" r="11.072299003601074" stroke="black" stroke-width="5" /><circle cx="191.67466735839844" cy="114.00218200683594" fill="none" r="11.087735176086426" stroke="black" stroke-width="5" /><circle cx="223.8699951171875" cy="110.6500015258789" fill="none" r="10.813027381896973" stroke="black" stroke-width="5" /><circle cx="129.44444274902344" cy="95.5" fill="none" r="10.567493438720703" stroke="black" stroke-width="5" /><circle cx="125.98332977294922" cy="64.13333129882812" fill="none" r="11.307238578796387" stroke="black" stroke-width="5" /><circle cx="118.74427795410156" cy="34.35877990722656" fill="none" r="11.257134437561035" stroke="black" stroke-width="5" /><path d="M 0,0 L 0,217 L 261,217 L 261,0 Z" fill="none" stroke="black" stroke-width="5" /></svg>