<?xml version="1.0" encoding="utf-8" ?>
<svg xmlns="http://www.w3.org/2000/svg" xmlns:ev="http://www.w3.org/2001/xml-events" xmlns:xlink="http://www.w3.org/1999/xlink" baseProfile="full" height="219" version="1.1" width="257">
  <defs/>
  <path d="M 170.657824,136.225903 C 167.714356,135.951930 165.797515,134.850146 162.462906,131.515538 C 158.561501,127.614133 158.078531,126.609983 157.805083,121.831398 L 157.500000,116.500000 L 152.751326,116.832379 C 149.286178,117.074918 147.111993,116.614300 144.707473,115.128225 C 139.915514,112.166632 136.000000,107.391301 136.000000,104.508658 C 136.000000,102.515597 135.498312,102.000000 133.559017,102.000000 C 132.216476,102.000000 130.839919,102.450000 130.500000,103.000000 C 129.433347,104.725881 121.818365,104.090485 117.288536,101.897632 C 112.408352,99.535175 108.000000,94.420650 108.000000,91.121166 C 108.000000,89.062204 107.685751,88.970550 102.750000,89.589949 C 99.862500,89.952308 97.275000,90.246096 97.000000,90.242813 C 89.878973,90.157780 88.897884,89.822749 85.049476,86.161846 C 82.649562,83.878863 80.751020,81.005098 80.363881,79.069407 C 79.772563,76.112816 79.451716,75.869316 76.856512,76.407560 C 75.285430,76.733402 72.654048,77.275481 71.008996,77.612179 C 64.942986,78.853730 54.000000,72.207352 54.000000,67.281524 C 54.000000,64.581644 51.204408,63.051227 49.957622,65.068568 C 48.887438,66.800162 38.515158,66.915158 36.814286,65.214286 C 36.146429,64.546429 34.790000,64.000000 33.800000,64.000000 C 32.810000,64.000000 32.000000,63.647023 32.000000,63.215608 C 32.000000,62.784192 30.650000,61.633750 29.000000,60.659071 C 27.004321,59.480195 26.000000,58.090714 26.000000,56.508564 C 26.000000,55.200463 25.588228,53.047158 25.084952,51.723440 C 23.902934,48.614498 26.239240,41.300009 29.557210,37.721727 C 31.938447,35.153670 37.512286,32.973073 41.500000,33.049470 C 47.434708,33.163167 54.937774,38.021346 57.048454,43.116979 C 58.400406,46.380880 58.503648,46.405582 64.491509,44.897821 C 72.169185,42.964560 80.406317,46.964954 84.750000,54.736431 C 85.437500,55.966468 86.000000,57.653968 86.000000,58.486431 C 86.000000,60.513862 87.306827,60.393155 91.225830,58.003738 C 93.026624,56.905794 95.293606,56.005794 96.263569,56.003738 C 97.233532,56.001682 98.901974,55.453655 99.971219,54.785901 C 101.604573,53.765855 102.291996,53.925688 104.272102,55.785901 C 105.568342,57.003655 107.083958,58.000000 107.640137,58.000000 C 109.656428,58.000000 113.283482,63.005727 114.932584,68.064369 C 116.486860,72.832126 116.746170,73.110973 118.238154,71.618989 C 120.123558,69.733585 127.050126,69.446398 130.315741,71.118233 C 134.650027,73.337173 139.977939,79.365481 140.617405,82.774131 C 141.335691,86.602926 143.778462,88.147250 145.173480,85.654492 C 145.877260,84.396906 147.564167,84.000000 152.205299,84.000000 C 157.214444,84.000000 158.913612,84.459468 161.664840,86.557932 C 165.755013,89.677659 169.000000,95.752377 169.000000,100.289584 C 169.000000,103.656575 169.003410,103.658922 174.064618,103.774207 C 180.422006,103.919017 183.693243,105.396619 187.500000,109.842903 C 190.174022,112.966155 190.500000,114.061501 190.500000,119.923448 C 190.500000,125.549797 190.105160,127.016066 187.767233,130.071798 C 183.680259,135.413578 179.209038,137.021837 170.657824,136.225903" fill="none" stroke="black" stroke-width="5"/>
</svg>
