<?xml version="1.0" encoding="utf-8" ?>
<svg xmlns="http://www.w3.org/2000/svg" xmlns:ev="http://www.w3.org/2001/xml-events" xmlns:xlink="http://www.w3.org/1999/xlink" baseProfile="full" height="218" version="1.1" width="256">
  <defs/>
  <path d="M 198.807694,163.751825 C 193.827892,161.413678 192.397912,159.340597 191.381826,152.986344 C 190.607797,148.145836 188.340399,145.820125 186.641787,148.124404 C 181.446607,155.172011 169.022287,152.289506 163.202126,142.686284 C 161.440957,139.780368 160.000000,136.360416 160.000000,135.086391 C 160.000000,132.921379 159.852942,132.864717 157.750000,134.219458 C 153.259123,137.112536 149.395652,137.902031 145.845061,136.652218 C 138.846545,134.188731 136.150944,131.803759 133.869473,126.056642 C 132.656251,123.000489 131.530393,120.328591 131.367565,120.119091 C 131.204737,119.909590 129.524916,120.472090 127.634628,121.369091 C 123.259372,123.445286 118.733582,123.441942 114.344683,121.359273 C 110.553367,119.560176 106.000000,114.265266 106.000000,111.655609 C 106.000000,110.269317 104.820649,109.995967 98.750000,109.975209 C 92.097337,109.952460 91.117856,109.669978 86.861850,106.546662 C 82.236310,103.152161 81.493211,101.454616 80.931804,93.000000 C 80.671601,89.081422 80.005312,88.817743 76.921213,91.412841 C 73.701403,94.122133 72.369671,94.415429 65.000000,94.038334 C 59.540086,93.758958 54.411305,90.228640 52.370913,85.345294 C 51.160217,82.447690 50.675913,82.103079 49.042760,82.977116 C 45.708187,84.761725 39.177516,84.123646 34.018003,81.509123 C 28.051449,78.485641 25.476538,73.892776 25.549961,66.404685 C 25.594925,61.818988 26.025043,60.855799 29.850414,56.774426 C 34.167141,52.168813 38.854923,50.371529 45.000000,50.966112 C 50.549145,51.503034 57.582354,57.088174 58.207192,61.454073 C 58.470625,63.294748 59.209183,63.500000 65.569043,63.500000 C 71.439165,63.500000 73.248080,63.917483 76.234713,65.961553 C 80.271591,68.724415 83.000000,73.593148 83.000000,78.033927 C 83.000000,81.501950 84.728685,81.846963 90.345757,79.500000 C 96.043388,77.119378 100.540922,77.597614 105.819825,81.145403 C 111.261087,84.802309 113.946446,87.792983 113.977764,90.230870 C 113.996704,91.705147 114.667082,91.870305 118.499873,91.344963 C 127.180673,90.155127 135.092292,95.211460 136.637330,102.936651 C 136.978877,104.644384 137.605959,106.256469 138.030847,106.519064 C 138.455734,106.781659 141.700295,106.236705 145.240981,105.308054 C 151.242585,103.733955 151.914996,103.731780 155.169074,105.275941 C 160.408818,107.762363 163.642913,111.524800 164.928287,116.629482 C 165.830407,120.212126 166.454941,121.103840 167.791062,120.716975 C 179.059688,117.454220 178.793876,117.471489 181.940292,119.797735 C 183.578589,121.008981 185.818267,122.000000 186.917354,122.000000 C 189.198728,122.000000 194.000000,129.346902 194.000000,132.837858 C 194.000000,135.354880 193.979649,135.352603 203.066012,133.852022 C 209.215294,132.836490 210.485009,132.914960 214.071327,134.532164 C 221.720430,137.981429 226.752284,146.492513 224.996786,153.011934 C 223.963936,156.847647 219.266506,162.512653 215.263569,164.750000 C 211.794144,166.689153 204.065132,166.220329 198.807694,163.751825" fill="none" stroke="black" stroke-width="5"/>
</svg>
