<?xml version="1.0" encoding="utf-8" ?>
<svg xmlns="http://www.w3.org/2000/svg" xmlns:ev="http://www.w3.org/2001/xml-events" xmlns:xlink="http://www.w3.org/1999/xlink" baseProfile="full" height="216" version="1.1" width="265">
  <defs/>
  <path d="M 152.500000,195.000000 C 152.160081,194.450000 151.048526,194.000000 150.029877,194.000000 C 147.450914,194.000000 143.269182,188.713384 141.938147,183.770297 C 140.603463,178.813659 141.255958,174.853651 144.055066,170.922666 C 146.407129,167.619499 145.926660,166.000000 142.594621,166.000000 C 139.067392,166.000000 134.287638,163.212119 131.774724,159.689092 C 128.778727,155.488798 128.424351,143.461282 131.250000,141.879969 C 133.785687,140.460927 133.396157,137.501531 130.500000,136.181954 C 129.125000,135.555462 128.000000,134.564414 128.000000,133.979625 C 128.000000,133.394837 127.100000,131.950337 126.000000,130.769625 C 123.242890,127.810215 123.274635,119.547948 126.063188,114.323692 L 128.126375,110.458382 L 124.063188,106.187084 C 120.465782,102.405425 120.000000,101.363606 120.000000,97.098907 L 120.000000,92.282028 L 112.182335,92.391014 C 105.093636,92.489838 104.024634,92.241366 100.718018,89.726325 C 96.488963,86.509670 94.208296,82.153439 93.793489,76.500000 C 93.501452,72.519791 93.481045,72.501501 89.668836,72.803408 C 84.233613,73.233849 76.284166,70.360192 74.212159,67.215951 C 73.270472,65.786954 72.050000,62.802403 71.500000,60.583616 L 70.500000,56.549459 L 63.922885,56.524730 C 59.449345,56.507909 56.238316,55.903781 53.883163,54.635838 C 44.130262,49.385174 42.101565,35.776722 49.939094,28.179109 C 58.083912,20.283612 67.744244,20.488893 75.750000,28.727588 C 79.338960,32.420974 80.000000,33.734972 80.000000,37.175624 C 80.000000,41.208478 80.031953,41.243609 83.135410,40.622918 C 93.148915,38.620217 102.971777,47.303508 102.994423,58.178044 C 102.999663,60.694037 103.347937,60.896101 108.750000,61.517350 C 116.087528,62.361181 121.101151,64.081584 121.803008,65.996432 C 122.106118,66.823395 122.611941,67.725000 122.927058,68.000000 C 124.764097,69.603164 127.000000,75.314758 127.000000,78.404292 C 127.000000,82.189541 127.852339,82.733674 130.849582,80.861865 C 132.876002,79.596344 141.563947,80.485435 142.535709,82.057778 C 143.903612,84.271093 145.991200,82.744642 147.059454,78.750000 C 148.680286,72.689042 153.708909,67.956052 159.167413,67.353871 C 167.745459,66.407542 167.682586,66.450436 168.398133,61.056382 C 168.760824,58.322279 169.719618,55.423239 170.528786,54.614071 C 171.337954,53.804903 172.000000,52.683615 172.000000,52.122320 C 172.000000,51.561024 173.462500,49.991779 175.250000,48.635107 C 178.660740,46.046434 183.792934,44.677079 190.500000,44.566154 C 194.305640,44.503214 194.564923,44.294851 195.836141,40.277959 C 197.293233,35.673729 202.890605,30.000000 205.975779,30.000000 C 207.024182,30.000000 208.160081,29.550000 208.500000,29.000000 C 211.001741,24.952099 225.556903,32.074169 228.019458,38.551178 C 229.579389,42.654109 228.024195,50.514959 224.903532,54.300865 C 220.517848,59.621460 215.916145,61.370052 208.341976,60.594055 C 202.030586,59.947434 202.000000,59.956684 202.000000,62.511988 C 202.000000,65.042740 199.256428,71.072072 196.772523,74.000000 C 194.547668,76.622572 190.674595,77.958502 184.500000,78.233134 L 178.500000,78.500000 L 177.991697,83.500000 C 176.804693,95.176164 166.197244,102.616214 156.508755,98.568105 C 153.206234,97.188223 152.868105,97.205768 152.373439,98.782674 C 152.077146,99.727203 150.982393,102.210389 149.940654,104.300865 C 148.390799,107.410985 148.267799,108.455953 149.263838,110.050865 C 149.933329,111.122889 150.822848,112.000000 151.240547,112.000000 C 151.658246,112.000000 152.000000,112.619900 152.000000,113.377555 C 152.000000,114.135211 152.626080,115.274711 153.391288,115.909777 C 155.162922,117.380103 156.383391,125.292162 155.207177,127.681826 C 154.714970,128.681822 153.730690,130.604564 153.019887,131.954587 C 151.987454,133.915480 151.980426,134.493475 152.984945,134.828315 C 153.676529,135.058843 155.987838,137.046041 158.121186,139.244311 C 161.516353,142.742799 162.000000,143.831004 162.000000,147.971643 C 162.000000,151.057321 161.157247,154.287123 159.576224,157.260618 C 156.956276,162.188062 157.128188,163.256915 160.408247,162.433673 C 161.684467,162.113362 163.306782,162.634957 164.509789,163.752370 C 165.604405,164.769105 167.284924,165.900647 168.244277,166.266908 C 171.396662,167.470425 173.992250,173.113105 173.996262,178.771440 C 174.000838,185.224696 170.816685,190.610684 165.096288,193.825727 C 161.081665,196.082071 153.599826,196.779556 152.500000,195.000000" fill="none" stroke="black" stroke-width="5"/>
</svg>
