<?xml version="1.0" encoding="utf-8" ?>
<svg xmlns="http://www.w3.org/2000/svg" xmlns:ev="http://www.w3.org/2001/xml-events" xmlns:xlink="http://www.w3.org/1999/xlink" baseProfile="full" height="215" version="1.1" width="257">
  <defs/>
  <path d="M 131.500000,168.227621 C 129.332957,167.727960 123.962104,164.241957 122.749737,162.548180 C 122.337092,161.971681 121.532248,159.812500 120.961193,157.750000 C 119.765247,153.430556 119.230787,153.279061 114.774170,155.996262 C 109.178451,159.407973 99.079957,158.061182 94.801179,153.332554 C 93.889159,152.324649 92.226787,149.362500 91.107018,146.750000 L 89.071075,142.000000 L 83.649844,142.000000 C 73.181702,142.000000 65.973585,135.000244 65.630618,124.501646 C 65.504246,120.633259 65.369980,120.483651 61.500000,119.899065 C 55.583406,119.005323 52.919848,117.623324 48.713772,113.264868 C 45.295449,109.722706 44.906771,108.772230 44.713772,103.483233 C 44.501811,97.674626 44.470347,97.617813 41.000000,96.777413 C 35.185606,95.369366 33.111716,93.865971 31.080167,89.586369 C 27.688603,82.441800 27.987584,74.690001 31.828007,70.196767 C 39.633431,61.064546 51.972546,61.900522 58.795229,72.023797 C 60.836388,75.052402 61.052775,76.234906 60.475767,81.207541 C 59.818214,86.874305 59.833796,86.919395 62.656741,87.518632 C 68.025643,88.658309 71.805349,90.878243 74.587626,94.525996 C 76.837807,97.476135 77.390804,99.268398 77.461300,103.839564 L 77.548594,109.500000 L 82.024297,109.790454 C 84.485934,109.950204 87.959731,110.757502 89.743846,111.584451 C 93.715853,113.425501 98.000000,119.481550 98.000000,123.255310 L 98.000000,126.046350 L 104.750000,125.842528 C 113.689595,125.572589 117.468112,127.521653 120.217313,133.820999 C 121.340434,136.394449 122.421410,138.682912 122.619481,138.906472 C 122.817552,139.130031 124.777378,138.502263 126.974649,137.511432 C 130.255454,136.031995 132.402640,135.829424 138.984844,136.378359 L 147.000000,137.046797 L 147.000000,134.223399 C 147.000000,132.670529 147.411896,130.972500 147.915324,130.450000 C 148.418752,129.927500 148.981252,128.417125 149.165324,127.093612 C 149.628959,123.759982 160.468318,117.645085 163.262837,119.140666 C 164.304231,119.698003 165.844869,119.889771 166.686476,119.566816 C 168.032864,119.050159 168.042766,118.710580 166.768911,116.739813 C 162.013448,109.382684 165.324706,96.728042 172.743295,93.907500 C 174.752733,93.143513 175.080999,92.540347 174.471426,90.732179 C 174.057542,89.504481 173.519563,85.959657 173.275917,82.854794 C 172.893359,77.979723 173.199053,76.656329 175.516704,73.154123 C 178.485968,68.667262 181.946357,66.000000 184.798150,66.000000 C 187.650219,66.000000 187.956116,65.139220 186.414895,61.450557 C 184.444262,56.734170 184.684613,53.233050 187.338271,48.000000 C 189.006362,44.710502 190.752568,42.961999 193.829734,41.500000 C 197.592825,39.712110 197.958131,39.234863 197.274238,37.000000 C 196.853472,35.625000 196.565859,31.988228 196.635098,28.918285 C 196.885388,17.820770 204.374802,11.901127 216.120958,13.516636 C 222.577576,14.404648 228.468963,19.897346 229.498050,25.988457 C 231.047547,35.159854 227.064016,43.334561 220.439719,44.577287 C 217.141926,45.195956 215.895806,47.199536 218.000000,48.500000 C 219.490835,49.421387 219.207708,58.258637 217.561095,62.199536 C 216.180153,65.504597 209.700500,71.000000 207.184432,71.000000 C 206.320895,71.000000 206.174442,72.212065 206.670907,75.250000 C 207.052905,77.587500 207.363449,80.175000 207.361006,81.000000 C 207.340263,88.002922 206.866594,89.069438 200.984465,95.357453 C 195.466266,101.256425 195.052889,102.008910 195.984465,104.459139 C 197.666064,108.882080 197.156255,111.912541 193.945536,116.579161 C 190.627711,121.401454 185.876741,124.000000 180.377876,124.000000 C 176.837199,124.000000 175.969657,125.569657 178.250000,127.850000 C 178.984516,128.584516 179.500000,131.688902 179.500000,135.377842 C 179.500000,140.713766 179.079638,142.206808 176.698307,145.328894 C 171.691329,151.893380 167.146702,152.992549 155.400124,150.480095 C 152.308115,149.818751 152.298731,149.829876 151.702548,154.863709 C 151.052959,160.348471 149.092012,164.063761 145.680517,166.273299 C 143.328749,167.796478 134.754880,168.978106 131.500000,168.227621" fill="none" stroke="black" stroke-width="5"/>
</svg>
