<?xml version="1.0" encoding="utf-8" ?>
<svg xmlns="http://www.w3.org/2000/svg" xmlns:ev="http://www.w3.org/2001/xml-events" xmlns:xlink="http://www.w3.org/1999/xlink" baseProfile="full" height="223" version="1.1" width="258">
  <defs/>
  <path d="M 119.000000,168.831078 C 114.829993,167.653294 110.000000,163.350216 110.000000,160.812909 C 110.000000,159.666667 109.264534,159.000000 108.000000,159.000000 C 106.900000,159.000000 106.000000,159.417041 106.000000,159.926758 C 106.000000,161.442130 99.836735,164.086945 94.914942,164.683640 C 87.763018,165.550707 81.776565,162.465990 78.654513,156.304918 C 76.131765,151.326512 76.024495,147.814781 78.255118,143.229794 C 79.979305,139.685775 77.872253,138.374399 74.820827,141.092377 C 73.461902,142.302804 71.033792,143.441347 69.425027,143.622474 C 66.036886,144.003936 60.000000,142.274525 60.000000,140.922448 C 60.000000,140.415102 59.355642,140.000000 58.568094,140.000000 C 56.401837,140.000000 52.862971,134.397260 52.278942,130.043001 C 51.925227,127.405855 52.274816,125.445733 53.380379,123.867320 C 55.754356,120.477993 55.440106,120.000000 50.837858,120.000000 C 41.446842,120.000000 33.080785,111.149916 34.439511,102.652910 C 36.025612,92.733981 41.618225,88.000000 51.750110,88.000000 C 56.174833,88.000000 57.996514,88.522701 60.664840,90.557932 C 64.918836,93.802613 68.000000,99.798212 68.000000,104.831331 L 68.000000,108.742339 L 72.837834,109.384100 C 78.043438,110.074648 80.085898,111.732461 83.831223,118.307160 C 86.218468,122.497829 86.746594,129.853406 84.800000,131.800000 C 82.911085,133.688915 85.396313,135.745905 87.479034,134.017400 C 88.595289,133.090991 90.813689,132.904655 95.230541,133.366308 C 100.361476,133.902597 101.980287,134.557798 104.709126,137.202692 C 106.519106,138.956995 108.000000,140.923958 108.000000,141.573722 C 108.000000,142.223486 108.644894,143.290325 109.433098,143.944477 C 110.588104,144.903046 111.192572,144.635731 112.548108,142.566921 C 113.473160,141.155115 115.051708,140.000000 116.055993,140.000000 C 117.060278,140.000000 118.160081,139.550000 118.500000,139.000000 C 118.839919,138.450000 121.764919,138.000000 125.000000,138.000000 C 128.235081,138.000000 131.160081,138.450000 131.500000,139.000000 C 131.839919,139.550000 133.416922,140.000000 135.004451,140.000000 C 137.138082,140.000000 138.231102,139.304866 139.195434,137.334636 C 140.596657,134.471793 146.216315,131.109545 151.339879,130.068602 C 154.401206,129.446639 154.515631,129.234346 155.000000,123.277972 C 155.412080,118.210551 156.018643,116.588203 158.449503,114.051734 C 160.071730,112.359030 162.996730,110.192420 164.949503,109.237045 L 168.500000,107.500000 L 168.150434,100.314380 C 167.780442,92.708896 167.940701,92.303260 173.436376,86.934964 C 175.407323,85.009700 177.873191,83.845667 180.936376,83.394529 C 186.204872,82.618597 187.537366,81.251264 185.364664,78.850455 C 183.251818,76.515787 182.532257,69.947305 183.926539,65.722590 C 185.658002,60.476204 189.419483,56.704486 194.742065,54.877628 C 197.358929,53.979447 199.399400,52.852043 199.276444,52.372286 C 199.153488,51.892529 198.334344,49.489223 197.456124,47.031608 C 195.127676,40.515670 196.208986,36.635652 201.931408,30.973134 C 205.825312,27.119993 207.509738,26.161460 210.966190,25.831834 C 218.795060,25.085231 221.989870,25.989870 226.123867,30.123867 C 229.773924,33.773924 230.000000,34.354024 230.000000,40.069825 C 230.000000,45.194447 229.527225,46.826804 226.963973,50.552363 C 224.437601,54.224319 223.010715,55.231723 218.463973,56.553497 C 215.458788,57.427128 213.000000,58.479823 213.000000,58.892820 C 213.000000,59.305816 213.718816,61.753332 214.597370,64.331745 C 215.917343,68.205652 215.994372,69.842929 215.040940,73.759883 C 214.406350,76.366948 213.334716,79.240604 212.659530,80.145786 C 210.607857,82.896348 204.145272,86.000000 200.469584,86.000000 C 198.561313,86.000000 197.000000,86.255025 197.000000,86.566722 C 197.000000,86.878419 198.125000,88.608395 199.500000,90.411113 C 202.858067,94.813766 202.970515,102.279062 199.750000,107.008288 C 197.301692,110.603552 196.387632,111.265110 190.743177,113.527047 L 186.986353,115.032542 L 187.627242,120.485502 C 188.889363,131.224180 182.117461,140.000000 172.568790,140.000000 L 169.038261,140.000000 L 169.630573,144.321392 C 170.926675,153.777483 162.297651,162.380648 151.755265,162.143133 C 148.935054,162.079595 146.171397,161.571397 145.613805,161.013805 C 143.558395,158.958395 140.312828,160.027100 137.304209,163.750000 C 135.367970,166.145924 132.785615,167.951359 130.152593,168.750000 C 125.415224,170.186926 123.840976,170.198371 119.000000,168.831078" fill="none" stroke="black" stroke-width="5"/>
</svg>
