<?xml version="1.0" encoding="utf-8" ?>
<svg xmlns="http://www.w3.org/2000/svg" xmlns:ev="http://www.w3.org/2001/xml-events" xmlns:xlink="http://www.w3.org/1999/xlink" baseProfile="full" height="216" version="1.1" width="256">
  <defs/>
  <path d="M 214.485191,205.945380 C 212.293336,204.815340 208.999906,202.227840 207.166457,200.195380 C 204.428513,197.160248 203.925411,195.922601 204.350613,193.268323 C 205.010461,189.149295 204.102352,188.634558 200.437617,191.050347 C 195.900834,194.040990 187.633204,193.720346 183.259179,190.384115 C 177.409225,185.922137 174.146468,174.940838 177.212145,170.031910 C 178.783972,167.515014 177.742086,166.532480 175.036678,167.980371 C 172.058807,169.574079 167.149705,167.798544 163.288223,163.731163 C 159.650090,159.899041 158.796727,157.457924 158.846553,151.025401 C 158.881921,146.459394 158.735035,146.197007 155.816862,145.613372 C 154.130088,145.276018 151.911394,145.000000 150.886431,145.000000 C 147.633263,145.000000 140.256692,137.944887 139.385228,134.000000 C 138.306657,129.117587 138.160171,129.000000 133.156385,129.000000 C 130.457873,129.000000 126.843750,128.718750 125.125000,128.375000 C 122.607166,127.871433 122.000000,128.079702 122.000000,129.446930 C 122.000000,132.832755 116.861336,139.971966 113.160098,141.728318 C 109.225130,143.595583 103.398235,143.972561 98.347696,142.686625 C 95.255988,141.899433 95.182001,141.963272 94.498706,146.007660 C 93.039966,154.641865 82.375198,160.726021 74.480970,157.427602 C 69.705872,155.432439 68.000000,156.142223 68.000000,160.124224 C 68.000000,167.464129 59.321461,173.777925 51.662742,172.009878 C 49.373234,171.481336 46.262500,171.037891 44.750000,171.024446 C 42.470634,171.004184 42.000000,171.431519 42.000000,173.521440 C 42.000000,176.869433 37.343118,183.771207 33.873475,185.565429 C 31.009276,187.046563 20.000000,187.585131 20.000000,186.244111 C 20.000000,185.828373 18.740891,184.930887 17.201980,184.249699 C 13.860257,182.770508 10.000000,175.451797 10.000000,170.595373 C 10.000000,166.513087 12.173445,161.057997 14.717093,158.756028 C 19.463002,154.461039 28.319060,153.308777 33.192370,156.352210 C 34.589818,157.224931 35.256601,157.045027 36.443390,155.475055 C 37.264542,154.388775 37.950705,152.539863 37.968197,151.366362 C 38.006483,148.797796 44.894313,142.315614 48.564002,141.394581 C 50.001935,141.033682 53.807579,140.976805 57.020987,141.268187 C 63.315375,141.838942 64.000000,141.356625 64.000000,136.351491 C 64.000000,133.184533 68.668857,127.000000 71.059672,127.000000 C 72.061934,127.000000 73.160081,126.550000 73.500000,126.000000 C 74.331049,124.655334 82.321761,124.721761 83.684665,126.084665 C 84.281231,126.681231 85.817068,127.018731 87.097636,126.834665 C 88.854517,126.582135 89.599296,125.641010 90.132280,123.000000 C 90.571440,120.823903 92.147678,118.365226 94.299381,116.500000 C 97.938216,113.345636 106.099872,110.810830 108.240973,112.170091 C 108.933438,112.609697 110.678621,112.976265 112.119158,112.984687 C 114.364965,112.997817 114.823257,112.476566 115.334206,109.327956 C 115.950004,105.533236 122.180337,98.000000 124.702948,98.000000 C 127.018479,98.000000 126.083605,96.014719 122.000000,92.260069 C 118.298233,88.856500 118.000000,88.186780 118.000000,83.277576 C 118.000000,75.894173 122.173387,69.000000 126.642929,69.000000 C 129.277885,69.000000 128.917882,66.433054 126.157619,65.539572 C 123.725709,64.752377 122.000000,60.274339 122.000000,54.750976 C 122.000000,46.953767 125.246247,42.297509 132.250000,40.048875 C 134.312500,39.386687 136.000000,38.571870 136.000000,38.238172 C 136.000000,37.904474 135.126699,35.801873 134.059331,33.565724 C 128.004696,20.881189 142.897753,6.752172 156.383462,12.386861 C 162.834123,15.082119 167.265786,25.526524 164.987287,32.664085 C 163.575543,37.086476 158.391435,43.000000 155.926278,43.000000 C 155.001514,43.000000 153.654363,43.711541 152.932609,44.581201 C 151.849543,45.886216 151.849664,46.529627 152.933302,48.264807 C 154.647859,51.010250 154.473463,57.622596 152.566097,62.187564 C 151.153845,65.567559 148.858196,67.924147 144.368994,70.602261 C 142.608069,71.652773 142.649932,71.940819 145.260662,76.737590 C 148.943035,83.503323 148.809445,86.864908 144.678995,91.374308 C 142.852443,93.368438 140.677443,95.000000 139.845662,95.000000 C 139.013881,95.000000 138.064339,95.268995 137.735568,95.597766 C 136.844786,96.488547 138.041670,98.999996 139.356989,99.000029 C 141.301418,99.000080 145.819235,105.519521 146.541017,109.366948 C 147.390810,113.896734 147.882103,114.200640 154.275095,114.151119 C 160.237392,114.104935 164.426023,115.832350 168.857578,120.165015 C 171.676351,122.920888 172.000000,123.843054 172.000000,129.118657 C 172.000000,134.861172 172.064913,135.000665 174.750000,135.028170 C 176.262500,135.043663 179.525000,136.086986 182.000000,137.346665 C 188.339416,140.573183 191.149819,146.273224 190.319247,154.219708 L 189.715087,160.000000 L 192.889662,160.000000 C 200.434439,160.000000 206.682963,165.224357 208.988947,173.460524 C 210.139071,177.568362 210.564891,178.066283 212.401522,177.450916 C 216.919961,175.937005 224.525072,176.195865 228.679311,178.004974 C 232.125442,179.505712 233.328658,180.818577 235.537953,185.488643 C 238.026385,190.748756 238.128205,191.470446 236.967031,195.617754 C 235.342811,201.418898 230.254034,206.531293 225.286817,207.352177 C 219.632553,208.286604 218.821368,208.180956 214.485191,205.945380" fill="none" stroke="black" stroke-width="5"/>
</svg>
