<?xml version="1.0" encoding="utf-8" ?>
<svg baseProfile="full" height="218" version="1.1" width="255" xmlns="http://www.w3.org/2000/svg" xmlns:ev="http://www.w3.org/2001/xml-events" xmlns:xlink="http://www.w3.org/1999/xlink"><defs /><rect fill="white" height="218" width="255" x="0" y="0" /><path d="M 167,175 L 160,175 L 154,180 L 154,190 L 159,195 L 167,195 L 173,189 L 173,182 Z" fill="none" stroke="black" stroke-width="5" /><path d="M 144,150 L 138,158 L 140,167 L 146,171 L 155,169 L 160,163 L 159,154 L 155,150 Z" fill="none" stroke="black" stroke-width="5" /><path d="M 142,121 L 134,122 L 130,126 L 129,131 L 132,140 L 138,143 L 145,141 L 151,131 L 149,126 Z" fill="none" stroke="black" stroke-width="5" /><path d="M 138,89 L 129,94 L 128,105 L 134,109 L 137,115 L 142,115 L 154,103 L 153,94 Z" fill="none" stroke="black" stroke-width="5" /><path d="M 110,88 L 103,93 L 102,101 L 106,107 L 117,109 L 122,103 L 123,94 L 117,89 Z" fill="none" stroke="black" stroke-width="5" /><path d="M 175,86 L 169,86 L 160,91 L 159,99 L 163,103 L 172,105 L 179,101 L 181,93 Z" fill="none" stroke="black" stroke-width="5" /><path d="M 76,86 L 72,90 L 74,103 L 76,105 L 87,105 L 91,101 L 91,90 L 84,85 Z" fill="none" stroke="black" stroke-width="5" /><path d="M 47,86 L 42,93 L 44,101 L 49,105 L 59,104 L 63,98 L 62,90 L 56,85 Z" fill="none" stroke="black" stroke-width="5" /><path d="M 198,82 L 190,88 L 190,97 L 196,103 L 205,103 L 211,95 L 211,89 L 207,84 Z" fill="none" stroke="black" stroke-width="5" /><path d="M 222,82 L 218,88 L 220,97 L 225,101 L 233,101 L 239,95 L 239,86 L 233,81 L 228,80 Z" fill="none" stroke="black" stroke-width="5" /><path d="M 0,0 L 0,217 L 254,217 L 254,0 Z" fill="none" stroke="black" stroke-width="5" /></svg>