<?xml version="1.0" encoding="utf-8" ?>
<svg baseProfile="full" height="223" version="1.1" width="258" xmlns="http://www.w3.org/2000/svg" xmlns:ev="http://www.w3.org/2001/xml-events" xmlns:xlink="http://www.w3.org/1999/xlink"><defs /><rect fill="white" height="223" width="258" x="0" y="0" /><path d="M 119,144 L 114,152 L 116,159 L 121,163 L 130,163 L 133,161 L 136,151 L 132,144 L 126,142 Z" fill="none" stroke="black" stroke-width="5" /><path d="M 91,138 L 84,144 L 84,153 L 92,159 L 99,158 L 103,155 L 105,146 L 99,138 Z" fill="none" stroke="black" stroke-width="5" /><path d="M 148,136 L 142,144 L 144,151 L 151,156 L 159,155 L 164,148 L 163,140 L 159,136 Z" fill="none" stroke="black" stroke-width="5" /><path d="M 169,113 L 163,118 L 161,127 L 164,133 L 173,135 L 180,131 L 182,121 L 177,114 Z" fill="none" stroke="black" stroke-width="5" /><path d="M 59,118 L 58,131 L 65,137 L 79,135 L 80,125 L 74,115 L 66,113 Z" fill="none" stroke="black" stroke-width="5" /><path d="M 44,94 L 41,102 L 42,109 L 47,113 L 56,113 L 59,111 L 63,104 L 60,96 L 55,92 Z" fill="none" stroke="black" stroke-width="5" /><path d="M 188,87 L 181,88 L 176,94 L 176,103 L 182,108 L 192,107 L 195,103 L 195,93 Z" fill="none" stroke="black" stroke-width="5" /><path d="M 195,60 L 190,65 L 188,73 L 194,80 L 203,81 L 209,76 L 209,65 L 203,60 Z" fill="none" stroke="black" stroke-width="5" /><path d="M 211,30 L 204,37 L 204,45 L 210,51 L 219,51 L 222,49 L 225,39 L 223,34 L 218,30 Z" fill="none" stroke="black" stroke-width="5" /><path d="M 0,0 L 0,222 L 257,222 L 257,0 Z" fill="none" stroke="black" stroke-width="5" /></svg>