<?xml version="1.0" encoding="utf-8" ?>
<svg xmlns="http://www.w3.org/2000/svg" xmlns:ev="http://www.w3.org/2001/xml-events" xmlns:xlink="http://www.w3.org/1999/xlink" baseProfile="full" height="215" version="1.1" width="257">
  <defs/>
  <path d="M 58.000000,182.076698 C 52.289824,180.314170 51.399387,179.742802 49.249852,176.461983 C 45.645475,170.960646 44.312789,164.660169 46.055399,161.359706 C 49.473318,154.886245 55.412147,151.122584 63.531209,150.284623 L 68.837380,149.736978 L 68.668690,141.550644 C 68.519760,134.323251 68.790177,132.940188 70.977191,129.743662 C 73.730803,125.718999 78.394342,124.000000 86.559397,124.000000 C 91.158144,124.000000 91.222114,123.955864 90.545231,121.250000 C 88.724690,113.972312 88.789097,111.720369 90.949723,107.107344 C 92.502366,103.792387 94.071054,102.051795 96.321406,101.147009 C 98.069633,100.444109 100.281394,99.448482 101.236431,98.934504 C 109.151677,94.674714 123.444047,103.761951 121.360467,111.729575 C 120.401669,115.396022 125.292560,115.804308 126.450956,112.154523 C 127.369892,109.259212 139.040639,106.638704 140.500000,109.000000 C 140.839919,109.550000 141.991476,110.000000 143.059017,110.000000 C 144.126558,110.000000 145.000000,110.343292 145.000000,110.762872 C 145.000000,111.182451 146.010505,111.969951 147.245566,112.512872 C 150.019882,113.732433 152.133428,118.004156 152.773882,123.686242 C 153.253488,127.941294 153.312576,128.000000 157.115701,128.000000 C 167.955769,128.000000 173.984814,132.221405 175.682403,141.000000 C 176.435445,144.894135 176.919315,145.542602 179.276303,145.816422 C 180.774336,145.990455 182.000000,145.664511 182.000000,145.092102 C 182.000000,143.115364 187.919117,141.000000 193.450340,141.000000 C 196.502653,141.000000 198.988999,140.662500 198.975554,140.250000 C 198.962109,139.837500 198.505831,137.569647 197.961602,135.210327 C 196.801438,130.180821 197.546765,128.267700 202.812526,122.758864 C 204.945393,120.527540 207.727129,118.766615 209.705338,118.395501 C 211.529552,118.053276 213.272145,117.368677 213.577768,116.874169 C 213.883391,116.379661 213.002585,113.584622 211.620423,110.662970 C 209.352149,105.868232 209.223910,104.956860 210.303700,101.305200 C 211.819503,96.179022 215.444860,91.423424 219.304907,89.497779 C 226.203074,86.056520 237.558979,88.704761 241.579907,94.692394 C 244.450531,98.967091 244.240638,109.461629 241.199237,113.725660 C 238.913551,116.930183 231.457778,121.000000 227.872882,121.000000 C 225.540667,121.000000 225.510650,121.800997 227.750000,124.279095 C 229.079976,125.750866 229.500000,127.967682 229.500000,133.515299 C 229.500000,140.188975 229.233763,141.144430 226.395246,144.657464 C 222.695702,149.236129 216.035186,152.163181 211.000000,151.423109 L 207.500000,150.908679 L 207.495097,157.704339 C 207.489798,165.050044 205.476397,169.114174 200.050167,172.732230 C 196.263449,175.257107 187.125141,174.937360 183.200346,172.142659 C 178.945987,169.113288 175.659586,163.435026 175.812133,159.377262 C 175.915722,156.621788 175.570006,156.000000 173.934365,156.000000 C 172.831763,156.000000 170.829572,156.720788 169.485053,157.601751 C 163.411804,161.581096 154.010114,161.223163 149.306027,156.833512 C 145.828573,153.588500 142.817757,147.355627 143.188907,144.170085 C 143.495631,141.537501 143.425714,141.504850 138.210795,141.845338 C 134.755887,142.070912 131.729596,141.625037 129.484470,140.559654 C 125.755575,138.790178 121.000000,133.275415 121.000000,130.720709 C 121.000000,129.845929 120.546916,127.938498 119.993146,126.481973 L 118.986292,123.833747 L 115.916074,126.417165 C 112.016581,129.698372 109.374052,130.339772 101.963556,129.803745 C 95.800748,129.357968 94.357170,130.391683 97.500000,133.000000 C 99.518839,134.675487 99.471663,143.747253 97.422754,147.854389 C 96.555268,149.593305 94.286191,152.205403 92.380360,153.659051 C 89.476965,155.873579 87.827812,156.318341 82.207607,156.402556 C 76.776729,156.483933 75.572560,156.788283 75.881214,158.001532 C 78.143539,166.894235 78.093050,168.546040 75.370880,174.697612 C 72.757060,180.604335 64.539383,184.095174 58.000000,182.076698" fill="none" stroke="black" stroke-width="5"/>
</svg>
