<?xml version="1.0" encoding="utf-8" ?>
<svg baseProfile="full" height="219" version="1.1" width="257" xmlns="http://www.w3.org/2000/svg" xmlns:ev="http://www.w3.org/2001/xml-events" xmlns:xlink="http://www.w3.org/1999/xlink"><defs /><rect fill="white" height="219" width="257" x="0" y="0" /><path d="M 171,110 L 166,114 L 164,121 L 170,130 L 179,131 L 185,125 L 185,115 L 180,110 Z" fill="none" stroke="black" stroke-width="5" /><path d="M 148,90 L 142,97 L 143,105 L 150,111 L 156,111 L 163,104 L 163,96 L 157,90 Z" fill="none" stroke="black" stroke-width="5" /><path d="M 116,80 L 114,90 L 118,96 L 127,98 L 134,93 L 135,84 L 133,80 L 130,78 L 120,78 Z" fill="none" stroke="black" stroke-width="5" /><path d="M 86,65 L 83,72 L 90,83 L 108,83 L 112,75 L 105,63 L 97,61 Z" fill="none" stroke="black" stroke-width="5" /><path d="M 66,50 L 60,54 L 60,67 L 65,71 L 73,71 L 79,66 L 80,58 L 76,52 Z" fill="none" stroke="black" stroke-width="5" /><path d="M 39,40 L 32,46 L 32,53 L 39,61 L 46,61 L 53,54 L 53,46 L 47,40 Z" fill="none" stroke="black" stroke-width="5" /><path d="M 0,0 L 0,218 L 256,218 L 256,0 Z" fill="none" stroke="black" stroke-width="5" /></svg>