<?xml version="1.0" encoding="utf-8" ?>
<svg baseProfile="full" height="216" version="1.1" width="254" xmlns="http://www.w3.org/2000/svg" xmlns:ev="http://www.w3.org/2001/xml-events" xmlns:xlink="http://www.w3.org/1999/xlink"><defs /><rect fill="white" height="216" width="254" x="0" y="0" /><path d="M 32,130 L 26,136 L 25,143 L 30,151 L 39,151 L 43,149 L 45,145 L 45,135 L 37,130 Z" fill="none" stroke="black" stroke-width="5" /><path d="M 208,126 L 203,132 L 205,143 L 210,146 L 219,145 L 223,138 L 221,130 L 215,126 Z" fill="none" stroke="black" stroke-width="5" /><path d="M 51,109 L 45,112 L 42,122 L 47,129 L 54,130 L 61,124 L 61,116 L 59,110 Z" fill="none" stroke="black" stroke-width="5" /><path d="M 189,103 L 185,106 L 182,115 L 188,123 L 198,123 L 203,119 L 203,108 L 197,103 Z" fill="none" stroke="black" stroke-width="5" /><path d="M 66,89 L 62,94 L 62,99 L 66,105 L 72,108 L 81,105 L 83,102 L 83,92 L 75,87 Z" fill="none" stroke="black" stroke-width="5" /><path d="M 170,82 L 159,84 L 156,87 L 154,93 L 159,101 L 167,103 L 175,97 L 175,86 Z" fill="none" stroke="black" stroke-width="5" /><path d="M 106,75 L 99,76 L 90,91 L 103,99 L 118,91 L 118,82 Z" fill="none" stroke="black" stroke-width="5" /><path d="M 128,76 L 124,81 L 124,90 L 130,95 L 139,95 L 145,89 L 143,78 L 137,74 Z" fill="none" stroke="black" stroke-width="5" /><path d="M 0,0 L 0,215 L 253,215 L 253,0 Z" fill="none" stroke="black" stroke-width="5" /></svg>