<?xml version="1.0" encoding="utf-8" ?>
<svg xmlns="http://www.w3.org/2000/svg" xmlns:ev="http://www.w3.org/2001/xml-events" xmlns:xlink="http://www.w3.org/1999/xlink" baseProfile="full" height="218" version="1.1" width="262">
  <defs/>
  <path d="M 136.514759,201.918680 C 131.394788,199.976623 128.061482,196.793589 128.022236,193.809017 C 128.010006,192.878976 127.550000,191.839919 127.000000,191.500000 C 126.450000,191.160081 126.000000,188.480756 126.000000,185.545943 C 126.000000,181.163113 126.443498,179.789245 128.482723,177.854960 C 131.797046,174.711196 131.618178,172.919085 127.737621,170.389620 C 121.916489,166.595228 119.740174,152.471624 124.314451,148.174314 C 125.587399,146.978441 127.162399,146.000000 127.814451,146.000000 C 129.670767,146.000000 129.202368,143.000977 127.250000,142.385978 C 126.287500,142.082789 123.769975,140.971912 121.655499,139.917362 C 116.582503,137.387314 115.565261,137.488357 113.438953,140.733513 C 110.140903,145.766973 107.535216,147.664154 102.374270,148.789622 C 97.160311,149.926651 90.747428,149.018382 89.477116,146.962973 C 88.355944,145.148879 85.143339,145.971762 84.452453,148.250000 C 83.542466,151.250735 80.273443,154.717105 76.647794,156.525817 C 73.281680,158.205056 66.425018,158.496711 65.500000,157.000000 C 64.222489,154.932943 60.581255,156.131266 56.384174,160.000000 C 53.997456,162.200000 51.161189,164.000000 50.081360,164.000000 C 49.001531,164.000000 47.839919,164.450000 47.500000,165.000000 C 45.469834,168.284878 34.361672,163.656015 30.587103,157.952256 C 27.066419,152.632144 27.186975,150.036894 31.369570,141.107846 C 34.108744,135.260228 44.829684,132.142755 51.596855,135.226084 C 54.032561,136.335866 54.438960,136.217296 55.881220,133.976084 C 56.757593,132.614238 58.765424,130.262500 60.343068,128.750000 C 62.842441,126.353830 64.009638,126.000000 69.414626,126.000000 C 73.320707,126.000000 76.336547,126.543678 77.558870,127.468197 C 80.564503,129.741543 81.746084,129.299403 83.025542,125.422606 C 84.791112,120.072876 88.908195,118.008289 97.819825,118.003738 C 104.320580,118.000418 105.627562,118.335692 109.500000,121.000000 C 114.382250,124.359076 116.000000,124.723119 116.000000,122.462696 C 116.000000,121.617178 118.033542,118.949015 120.518982,116.533444 C 125.163314,112.019669 125.164389,111.885150 120.575156,109.500278 C 117.978579,108.150922 114.062974,100.254371 114.028170,96.297053 C 113.991902,92.173296 115.727535,88.247886 119.217675,84.560162 C 120.747954,82.943251 122.000000,81.284544 122.000000,80.874147 C 122.000000,80.463749 120.267971,79.154515 118.151047,77.964737 C 114.326197,75.815051 109.981956,69.011688 110.015056,65.223249 C 110.042140,62.123450 112.453514,56.531239 114.750000,54.242455 C 117.349146,51.652025 117.702306,49.000000 115.448118,49.000000 C 113.478005,49.000000 106.017950,44.778403 106.007702,43.657729 C 106.003466,43.194480 105.100000,41.671294 104.000000,40.272871 C 101.399689,36.967110 101.467592,32.785105 104.210765,27.292435 C 106.010868,23.688077 107.447318,22.396601 111.943782,20.339875 C 119.942754,16.681066 126.720774,18.145225 131.639912,24.594546 C 134.024242,27.720565 134.463982,29.224016 134.398730,34.026813 C 134.342181,38.189031 133.734490,40.564133 132.160552,42.774525 C 129.644471,46.308036 129.414198,48.000000 131.449376,48.000000 C 132.246533,48.000000 135.043338,50.025840 137.664498,52.501866 C 142.364971,56.942074 142.428264,57.084981 142.285645,62.935835 C 142.117548,69.831880 141.014344,72.327062 136.226008,76.641275 L 132.739513,79.782549 L 135.119757,80.503619 C 140.527631,82.141878 146.000000,89.897148 146.000000,95.922759 C 146.000000,98.862200 143.938853,103.979831 142.750000,103.992198 C 142.337500,103.996489 141.997155,104.787500 141.993677,105.750000 C 141.990200,106.712500 140.533340,108.327899 138.756211,109.339776 C 135.617999,111.126639 135.582229,111.221361 137.512534,112.633206 C 141.341459,115.433721 144.046518,115.463086 146.354984,112.729198 C 147.701362,111.134698 150.461827,109.709180 153.769160,108.900480 C 159.583378,107.478803 163.824673,108.391144 169.303736,112.242107 C 171.985520,114.127001 172.192126,114.136104 174.053736,112.451370 C 175.124181,111.482630 176.000000,110.123013 176.000000,109.429999 C 176.000000,108.736985 178.020331,106.391607 180.489625,104.218047 C 183.666050,101.422046 186.207411,100.101390 189.178141,99.702932 C 194.486943,98.990872 200.890916,101.130137 203.283730,104.414942 C 205.411995,107.336581 207.378307,106.906288 208.935532,103.178145 C 210.847746,98.600126 216.064758,96.000000 223.338092,96.000000 C 230.846230,96.000000 235.486679,98.508703 238.201968,104.035655 C 240.089256,107.877215 240.553062,114.540155 239.000000,115.500000 C 238.450000,115.839919 238.000000,116.958715 238.000000,117.986213 C 238.000000,121.067528 231.334200,125.766360 225.903435,126.513281 C 219.447246,127.401234 216.094737,126.529237 212.288499,122.971998 C 209.051942,119.947172 206.000000,119.065640 206.000000,121.155609 C 206.000000,123.224733 201.093367,128.806939 197.854389,130.422754 C 192.768098,132.960130 187.088268,132.441838 181.559918,128.935863 C 176.525563,125.743169 175.772914,125.850700 173.634184,130.068206 C 171.829439,133.627105 165.909389,137.793592 160.698772,139.172054 C 156.237192,140.352359 155.578585,140.273006 151.388786,138.050323 L 146.880029,135.658432 L 143.815394,138.723068 C 140.642642,141.895819 140.722997,144.000000 144.016910,144.000000 C 145.061292,144.000000 147.793327,145.786061 150.088099,147.969025 C 154.080519,151.766923 154.240183,152.148565 153.791259,156.820609 C 153.533225,159.506016 152.282009,163.851722 151.010779,166.477734 C 149.074273,170.478021 148.931571,171.382201 150.130813,172.053330 C 150.918062,172.493897 153.089820,174.188143 154.956942,175.818322 C 158.150406,178.606525 158.351623,179.159354 158.350230,185.141142 C 158.348057,194.474860 155.537420,198.476515 146.127876,202.542766 C 142.157362,204.258589 142.792281,204.299808 136.514759,201.918680" fill="none" stroke="black" stroke-width="5"/>
</svg>
