<?xml version="1.0" encoding="utf-8" ?>
<svg xmlns="http://www.w3.org/2000/svg" xmlns:ev="http://www.w3.org/2001/xml-events" xmlns:xlink="http://www.w3.org/1999/xlink" baseProfile="full" height="218" version="1.1" width="256">
  <defs/>
  <path d="M 126.895360,198.345353 C 125.577912,196.919199 121.575000,193.565742 118.000000,190.893224 C 114.425000,188.220707 111.050000,185.685396 110.500000,185.259199 C 109.950000,184.833003 108.325640,183.731327 106.890311,182.811031 C 105.454982,181.890734 103.654982,180.544267 102.890311,179.818882 C 102.125640,179.093497 97.675000,175.594062 93.000000,172.042360 C 88.325000,168.490658 84.275000,165.318977 84.000000,164.994180 C 83.725000,164.669383 81.925000,163.306732 80.000000,161.966066 C 78.075000,160.625401 75.825000,158.984660 75.000000,158.319976 C 74.175000,157.655291 70.575000,154.962747 67.000000,152.336544 C 63.425000,149.710341 60.275000,147.301082 60.000000,146.982635 C 59.725000,146.664188 57.925000,145.306732 56.000000,143.966066 C 54.075000,142.625401 51.825000,140.978743 51.000000,140.306828 C 42.820561,133.645141 32.933099,126.210418 30.500000,124.892174 C 27.135636,123.069373 26.072972,120.174272 28.177975,118.566097 C 28.945476,117.979744 30.663494,115.925000 31.995794,114.000000 C 33.328093,112.075000 35.224071,109.911983 36.209078,109.193296 C 37.194085,108.474609 38.000000,107.431758 38.000000,106.875850 C 38.000000,106.018575 41.300040,101.607531 48.678591,92.602168 C 49.533836,91.558360 52.993525,87.058360 56.366791,82.602168 C 59.740056,78.145975 63.735418,73.150000 65.245373,71.500000 C 66.755327,69.850000 67.992827,67.963017 67.995373,67.306704 C 67.997918,66.650391 68.805915,65.525391 69.790922,64.806704 C 70.775929,64.088017 72.674009,61.925000 74.008879,60.000000 C 75.343748,58.075000 77.685751,55.150000 79.213330,53.500000 C 80.740908,51.850000 81.992827,49.963017 81.995373,49.306704 C 81.997918,48.650391 82.806350,47.525391 83.791889,46.806704 C 84.777428,46.088017 87.139928,43.475000 89.041889,41.000000 C 90.943850,38.525000 92.950000,36.197091 93.500000,35.826870 C 94.050000,35.456648 96.750000,31.986550 99.500000,28.115539 C 102.250000,24.244529 104.950000,21.113649 105.500000,21.158030 C 106.050000,21.202410 110.759075,25.797509 115.964612,31.369360 C 130.490655,46.917605 168.139085,85.967154 171.425531,88.894306 C 181.905389,98.228441 186.000000,103.233637 186.000000,106.709936 C 186.000000,107.524664 185.164163,109.385726 184.142585,110.845630 C 183.121006,112.305533 182.108506,113.965042 181.892585,114.533427 C 181.358482,115.939383 169.726836,135.373803 169.044681,136.000000 C 168.122527,136.846509 165.028477,142.304215 163.233814,146.250000 C 162.295726,148.312500 161.184355,150.000000 160.764100,150.000000 C 160.343845,150.000000 160.000000,150.474691 160.000000,151.054869 C 160.000000,151.635048 158.300376,154.672548 156.223057,157.804869 C 154.145739,160.937191 151.823763,164.729904 151.063111,166.233121 C 150.302459,167.736337 148.852084,169.855021 147.840054,170.941307 C 146.828024,172.027593 146.000000,173.151451 146.000000,173.438769 C 146.000000,173.726087 144.493046,176.332403 142.651212,179.230583 C 139.262928,184.562149 134.840002,192.234649 132.275112,197.230119 C 130.277773,201.120209 129.590350,201.262713 126.895360,198.345353" fill="none" stroke="black" stroke-width="5"/>
</svg>
