<?xml version="1.0" encoding="utf-8" ?>
<svg baseProfile="full" height="217" version="1.1" width="258" xmlns="http://www.w3.org/2000/svg" xmlns:ev="http://www.w3.org/2001/xml-events" xmlns:xlink="http://www.w3.org/1999/xlink"><defs /><rect fill="white" height="217" width="258" x="0" y="0" /><path d="M 126,192 L 164,193 Z" fill="none" stroke="black" stroke-width="1" /><path d="M 90,175 L 127,188 L 200,178 Z" fill="none" stroke="black" stroke-width="1" /><path d="M 74,158 L 219,160 Z" fill="none" stroke="black" stroke-width="1" /><path d="M 64,142 L 229,143 Z" fill="none" stroke="black" stroke-width="1" /><path d="M 58,125 L 234,127 Z" fill="none" stroke="black" stroke-width="1" /><path d="M 55,109 L 237,116 Z" fill="none" stroke="black" stroke-width="1" /><path d="M 56,97 L 237,104 Z" fill="none" stroke="black" stroke-width="1" /><path d="M 151,85 L 236,87 L 229,74 Z" fill="none" stroke="black" stroke-width="1" /><path d="M 58,85 L 130,86 L 62,73 Z" fill="none" stroke="black" stroke-width="1" /><path d="M 66,67 L 98,68 L 83,59 Z" fill="none" stroke="black" stroke-width="1" /><path d="M 181,68 L 231,71 L 221,57 L 196,57 Z" fill="none" stroke="black" stroke-width="1" /><path d="M 206,52 L 206,53 L 209,54 L 212,54 L 213,53 L 212,52 Z" fill="none" stroke="black" stroke-width="1" /><path d="M 236,59 L 240,137 L 185,195 L 104,193 L 55,141 L 70,54 Z" fill="black" stroke="black" stroke-width="1" /><path d="M 0,0 L 0,216 L 257,216 L 257,0 Z" fill="none" stroke="black" stroke-width="1" /></svg>