<?xml version="1.0" encoding="utf-8" ?>
<svg xmlns="http://www.w3.org/2000/svg" xmlns:ev="http://www.w3.org/2001/xml-events" xmlns:xlink="http://www.w3.org/1999/xlink" baseProfile="full" height="217" version="1.1" width="257">
  <defs/>
  <path d="M 120.864114,186.250000 C 119.543202,184.187500 117.798304,181.198861 116.986563,179.608580 C 116.174821,178.018299 113.998916,175.093299 112.151218,173.108580 C 110.303520,171.123861 107.707975,167.812500 106.383339,165.750000 C 105.058704,163.687500 103.530556,162.000000 102.987455,162.000000 C 102.444355,162.000000 102.000000,161.553894 102.000000,161.008653 C 102.000000,160.463412 100.385732,157.875912 98.412738,155.258653 C 96.439745,152.641394 93.852245,149.201390 92.662738,147.614200 C 89.188871,142.978925 75.070187,124.639937 73.712940,123.000000 C 73.030152,122.175000 71.374599,119.925000 70.033934,118.000000 C 68.693268,116.075000 67.347118,114.275000 67.042490,114.000000 C 66.737863,113.725000 65.260491,111.851452 63.759442,109.836559 C 62.258392,107.821667 60.439556,105.571667 59.717583,104.836559 C 58.995610,104.101452 56.894508,101.293207 55.048467,98.596015 C 53.202426,95.898823 50.973823,92.961382 50.096015,92.068370 C 49.218207,91.175357 47.327337,88.657151 45.894083,86.472355 C 44.460829,84.287560 41.873329,80.989910 40.144083,79.144245 C 38.414837,77.298579 37.000000,75.493981 37.000000,75.134026 C 37.000000,74.774072 35.987500,73.341386 34.750000,71.950280 C 28.364748,64.772454 28.611770,65.278142 30.894077,64.056688 C 32.818290,63.026881 40.575038,62.196854 69.000000,59.979084 C 75.325000,59.485595 85.225000,58.600864 91.000000,58.013014 C 96.775000,57.425163 106.450000,56.506738 112.500000,55.972069 C 128.552219,54.553452 143.076938,53.194098 155.000000,51.994535 C 164.885938,50.999925 171.979288,50.335586 198.500000,47.920473 C 204.550000,47.369529 213.059059,46.675523 217.409019,46.378238 C 221.956135,46.067479 226.308793,45.188552 227.648832,44.310525 C 229.725969,42.949532 230.042787,42.947927 230.560004,44.295773 C 231.075483,45.639089 223.955047,57.108593 220.300635,60.821429 C 219.585286,61.548214 219.000000,62.491860 219.000000,62.918419 C 219.000000,63.344978 218.051569,64.775335 216.892375,66.096990 C 215.733182,67.418646 212.711012,71.425000 210.176442,75.000000 C 207.641872,78.575000 205.306122,81.725000 204.985887,82.000000 C 204.665651,82.275000 203.322002,84.075000 202.000000,86.000000 C 200.677998,87.925000 199.315904,89.725000 198.973125,90.000000 C 198.630346,90.275000 196.380549,93.425000 193.973577,97.000000 C 191.566605,100.575000 189.224425,103.950000 188.768734,104.500000 C 188.313043,105.050000 182.969287,112.204014 176.893721,120.397810 C 170.818155,128.591605 165.206609,135.936248 164.423619,136.719238 C 163.640629,137.502229 163.000000,138.452813 163.000000,138.831647 C 163.000000,139.210481 161.974718,140.640838 160.721596,142.010218 C 159.468474,143.379598 157.352655,146.075000 156.019776,148.000000 C 154.686897,149.925000 153.333061,151.725000 153.011252,152.000000 C 152.689443,152.275000 150.978763,154.750000 149.209740,157.500000 C 145.378285,163.456115 145.460194,163.340763 134.475414,178.250000 C 129.713994,184.712500 125.243970,190.000000 124.542029,190.000000 C 123.840088,190.000000 122.185026,188.312500 120.864114,186.250000" fill="none" stroke="black" stroke-width="5"/>
</svg>
