<?xml version="1.0" encoding="utf-8" ?>
<svg baseProfile="full" height="218" version="1.1" width="256" xmlns="http://www.w3.org/2000/svg" xmlns:ev="http://www.w3.org/2001/xml-events" xmlns:xlink="http://www.w3.org/1999/xlink"><defs /><rect fill="white" height="218" width="256" x="0" y="0" /><path d="M 44,111 L 45,133 Z" fill="none" stroke="black" stroke-width="1" /><path d="M 169,87 L 170,157 L 179,115 Z" fill="none" stroke="black" stroke-width="1" /><path d="M 60,78 L 48,146 L 62,167 Z" fill="none" stroke="black" stroke-width="1" /><path d="M 153,68 L 150,177 L 164,164 L 165,85 Z" fill="none" stroke="black" stroke-width="1" /><path d="M 77,64 L 65,78 L 65,171 L 78,181 Z" fill="none" stroke="black" stroke-width="1" /><path d="M 137,59 L 133,185 L 146,180 Z" fill="none" stroke="black" stroke-width="1" /><path d="M 96,57 L 83,62 L 92,187 Z" fill="none" stroke="black" stroke-width="1" /><path d="M 117,56 L 124,189 L 130,58 Z" fill="none" stroke="black" stroke-width="1" /><path d="M 114,55 L 100,58 L 100,189 L 113,189 Z" fill="none" stroke="black" stroke-width="1" /><circle cx="111.47901153564453" cy="122.71916961669922" fill="none" r="77.94347381591797" stroke="black" stroke-width="1" /><path d="M 0,0 L 0,217 L 255,217 L 255,0 Z" fill="none" stroke="black" stroke-width="1" /></svg>