<?xml version="1.0" encoding="utf-8" ?>
<svg xmlns="http://www.w3.org/2000/svg" xmlns:ev="http://www.w3.org/2001/xml-events" xmlns:xlink="http://www.w3.org/1999/xlink" baseProfile="full" height="219" version="1.1" width="258">
  <defs/>
  <path d="M 93.000000,193.510411 C 92.175000,193.330094 88.125000,192.617735 84.000000,191.927390 C 79.875000,191.237044 74.475000,189.774200 72.000000,188.676624 C 67.017071,186.466869 62.000000,182.304897 62.000000,180.381003 C 62.000000,179.696355 60.682512,178.198054 59.072249,177.051446 C 56.845181,175.465634 56.154298,174.192881 56.185449,171.733351 C 56.207972,169.955008 55.752020,164.000000 55.172221,158.500000 C 54.236512,149.623817 54.329870,147.825710 56.002945,142.500000 C 57.039643,139.200000 59.076832,132.675000 60.530034,128.000000 C 62.843288,120.558178 69.303499,106.418830 71.038641,105.000000 C 71.374949,104.725000 73.616593,101.575000 76.020072,98.000000 C 78.423552,94.425000 80.984086,90.898548 81.710148,90.163441 C 82.436210,89.428333 84.260953,87.195157 85.765131,85.200827 C 89.615098,80.096308 99.196244,71.000000 100.722869,71.000000 C 101.425291,71.000000 102.000000,70.564578 102.000000,70.032395 C 102.000000,69.500212 104.587500,67.137712 107.750000,64.782395 C 110.912500,62.427078 113.650000,60.162500 113.833333,59.750000 C 114.016667,59.337500 114.691667,58.987481 115.333333,58.972180 C 115.975000,58.956879 118.267663,57.606879 120.428139,55.972180 C 122.588616,54.337481 124.706313,53.000000 125.134133,53.000000 C 125.561953,53.000000 128.069290,51.729116 130.705994,50.175813 C 135.635999,47.271508 155.239295,40.305074 165.000000,37.988733 C 176.664891,35.220505 200.000000,36.642338 200.000000,40.121320 C 200.000000,40.604594 200.681311,41.000000 201.514024,41.000000 C 202.346738,41.000000 204.580762,42.012500 206.478522,43.250000 C 209.546906,45.250846 210.930823,47.372448 215.346478,56.844947 C 215.994084,58.234195 216.400084,65.049723 216.342661,73.567844 C 216.258775,86.011326 215.960115,88.553422 214.122867,92.461998 C 212.955290,94.945911 212.000000,97.446667 212.000000,98.019234 C 212.000000,100.092337 206.230612,113.175849 202.257395,120.112995 C 201.119267,122.100141 199.583255,124.800141 198.844035,126.112995 C 198.104816,127.425848 197.251246,128.725000 196.947214,129.000000 C 196.643181,129.275000 195.325760,131.300000 194.019612,133.500000 C 191.456771,137.816699 191.278539,138.041146 184.519691,145.463146 C 182.033861,148.192877 180.000000,150.755030 180.000000,151.156819 C 180.000000,151.888339 162.172569,166.632455 156.469319,170.617788 C 154.802444,171.782572 151.652444,173.715091 149.469319,174.912275 C 147.286193,176.109460 143.235774,178.340772 140.468386,179.870747 C 137.700998,181.400721 134.550998,182.910720 133.468386,183.226300 C 132.385774,183.541879 128.350000,184.991866 124.500000,186.448492 C 115.027122,190.032504 96.298242,194.231292 93.000000,193.510411" fill="none" stroke="black" stroke-width="5"/>
</svg>
