<?xml version="1.0" encoding="utf-8" ?>
<svg xmlns="http://www.w3.org/2000/svg" xmlns:ev="http://www.w3.org/2001/xml-events" xmlns:xlink="http://www.w3.org/1999/xlink" baseProfile="full" height="217" version="1.1" width="259">
  <defs/>
  <path d="M 54.931819,191.620350 C 54.298410,190.962566 54.812029,47.167308 55.454280,45.349661 C 56.052036,43.657942 61.218124,43.042497 84.000000,41.948961 C 116.105606,40.407882 134.656422,39.224547 145.500000,38.025947 C 151.000000,37.418002 163.375000,36.510004 173.000000,36.008173 C 182.625000,35.506342 196.125000,34.785396 203.000000,34.406071 L 215.500000,33.716389 L 215.500000,107.718803 L 215.500000,181.721217 L 196.000000,182.893458 C 185.275000,183.538191 174.025000,184.303339 171.000000,184.593786 C 167.975000,184.884233 156.500000,185.529590 145.500000,186.027912 C 134.500000,186.526233 119.200000,187.407297 111.500000,187.985830 C 103.800000,188.564364 90.750000,189.476943 82.500000,190.013785 C 74.250000,190.550627 64.800000,191.264481 61.500000,191.600128 C 58.200000,191.935775 55.244319,191.944875 54.931819,191.620350" fill="none" stroke="black" stroke-width="5"/>
</svg>
