<?xml version="1.0" encoding="utf-8" ?>
<svg xmlns="http://www.w3.org/2000/svg" xmlns:ev="http://www.w3.org/2001/xml-events" xmlns:xlink="http://www.w3.org/1999/xlink" baseProfile="full" height="218" version="1.1" width="259">
  <defs/>
  <path d="M 138.831846,194.645147 C 136.814361,194.015316 134.826861,193.162500 134.415179,192.750000 C 134.003497,192.337500 133.080003,192.000000 132.362969,192.000000 C 131.645935,192.000000 128.683435,190.940490 125.779635,189.645533 C 122.875836,188.350576 119.825000,186.996707 119.000000,186.636935 C 113.733442,184.340257 107.315833,179.328101 101.126566,172.677772 C 93.726746,164.726711 92.000000,162.393988 92.000000,160.348366 C 92.000000,159.119139 91.082306,157.470630 89.960680,156.685013 C 83.753073,152.337036 80.066117,125.343300 83.379300,108.500000 C 88.668680,81.610262 102.519236,63.994418 123.753250,57.150349 C 127.168296,56.049623 144.513423,57.411632 146.497525,58.936320 C 148.163674,60.216676 162.623325,62.292777 165.662031,61.687938 C 173.618255,60.104292 176.801683,59.180281 179.945068,57.542194 C 181.839855,56.554778 185.664855,55.691342 188.445068,55.623446 C 192.720242,55.519042 194.264470,56.039899 198.455822,59.000000 C 209.592112,66.864893 214.008940,71.253176 220.621662,81.022585 C 224.160799,86.251184 230.013162,100.464375 230.005377,103.812103 C 230.002420,105.083759 230.699236,108.261997 231.553859,110.874855 C 232.843055,114.816346 232.944324,117.488398 232.148420,126.562752 C 231.061709,138.952674 229.634349,143.762819 223.294791,156.399107 C 218.804358,165.349637 211.161799,174.205510 201.613850,181.522061 C 193.506422,187.734747 182.461668,192.597073 171.200779,194.911066 C 164.407401,196.307033 143.607886,196.136160 138.831846,194.645147" fill="none" stroke="black" stroke-width="5"/>
</svg>
