<?xml version="1.0" encoding="utf-8" ?>
<svg baseProfile="full" height="218" version="1.1" width="258" xmlns="http://www.w3.org/2000/svg" xmlns:ev="http://www.w3.org/2001/xml-events" xmlns:xlink="http://www.w3.org/1999/xlink"><defs /><rect fill="white" height="218" width="258" x="0" y="0" /><path d="M 71,149 L 58,174 L 71,172 Z" fill="none" stroke="black" stroke-width="1" /><path d="M 195,127 L 194,150 L 210,149 Z" fill="none" stroke="black" stroke-width="1" /><path d="M 89,115 L 76,138 L 76,171 L 89,169 Z" fill="none" stroke="black" stroke-width="1" /><path d="M 178,103 L 177,153 L 191,149 L 191,120 Z" fill="none" stroke="black" stroke-width="1" /><path d="M 106,83 L 93,107 L 93,167 L 107,165 Z" fill="none" stroke="black" stroke-width="1" /><path d="M 161,81 L 165,156 L 173,155 L 174,98 Z" fill="none" stroke="black" stroke-width="1" /><path d="M 144,60 L 149,159 L 157,75 Z" fill="none" stroke="black" stroke-width="1" /><path d="M 122,53 L 110,165 L 123,163 Z" fill="none" stroke="black" stroke-width="1" /><path d="M 130,39 L 127,162 L 140,159 Z" fill="none" stroke="black" stroke-width="1" /><path d="M 224,152 L 39,183 L 127,25 Z" fill="none" stroke="black" stroke-width="1" /><path d="M 0,0 L 0,217 L 257,217 L 257,0 Z" fill="none" stroke="black" stroke-width="1" /></svg>