<?xml version="1.0" encoding="utf-8" ?>
<svg xmlns="http://www.w3.org/2000/svg" xmlns:ev="http://www.w3.org/2001/xml-events" xmlns:xlink="http://www.w3.org/1999/xlink" baseProfile="full" height="221" version="1.1" width="262">
  <defs/>
  <path d="M 213.427364,192.233744 C 212.437906,191.556898 207.740397,184.957707 197.148171,169.364283 C 194.855859,165.989638 192.262877,162.633132 191.385990,161.905380 C 190.509102,161.177628 189.383163,159.663701 188.883902,158.541097 C 188.384642,157.418494 186.142680,154.025000 183.901766,151.000000 C 181.660851,147.975000 178.255366,143.103074 176.334021,140.173497 C 174.412676,137.243920 170.267475,131.393920 167.122464,127.173497 C 163.977453,122.953074 158.640758,115.675000 155.263143,111.000000 C 151.885528,106.325000 147.712990,100.700000 145.990836,98.500000 C 139.352084,90.019194 132.000000,79.981537 132.000000,79.398585 C 132.000000,79.063155 130.987500,77.514311 129.750000,75.956710 C 124.785410,69.707942 121.000000,64.253316 121.000000,63.348305 C 121.000000,62.822521 119.425000,60.865783 117.500000,59.000000 C 115.575000,57.134217 113.995632,55.133441 113.990294,54.553833 C 113.984956,53.974225 112.398173,51.509282 110.464111,49.076183 C 107.132692,44.885172 106.947392,42.196475 110.082783,43.543134 C 110.862252,43.877918 113.750000,47.302054 116.500000,51.152325 C 119.250000,55.002596 123.637500,61.064004 126.250000,64.622121 C 128.862500,68.180239 131.000000,71.442414 131.000000,71.871399 C 131.000000,72.300384 132.125000,73.708255 133.500000,75.000000 C 134.875000,76.291745 136.000000,77.704812 136.000000,78.140149 C 136.000000,78.575485 139.439511,83.559544 143.643359,89.215835 C 147.847206,94.872126 152.581789,101.300000 154.164654,103.500000 C 155.747518,105.700000 159.985828,111.475601 163.583119,116.334668 C 175.977218,133.076087 190.000000,153.005863 190.000000,153.879465 C 190.000000,154.361070 190.728340,155.359579 191.618533,156.098373 C 192.508726,156.837168 195.520037,160.829768 198.310335,164.970818 C 201.100633,169.111868 206.288969,176.312552 209.839970,180.972339 C 213.390971,185.632125 216.342160,190.083692 216.398168,190.864710 C 216.518564,192.543611 214.942259,193.270019 213.427364,192.233744" fill="none" stroke="black" stroke-width="5"/>
  <path d="M 193.604322,184.250000 C 191.556545,181.637500 187.655496,176.125000 184.935323,172.000000 C 182.215150,167.875000 176.620145,159.775000 172.501978,154.000000 C 168.383812,148.225000 162.957381,140.575000 160.443243,137.000000 C 157.929105,133.425000 154.332100,128.475000 152.449898,126.000000 C 150.567696,123.525000 147.474346,119.250000 145.575787,116.500000 C 143.677228,113.750000 139.402485,107.900000 136.076359,103.500000 C 129.706836,95.074012 127.969072,92.680496 121.500000,83.423192 C 119.300000,80.274971 114.668566,73.898588 111.207925,69.253452 C 107.747283,64.608316 102.834015,57.588506 100.289552,53.653875 C 97.745088,49.719244 94.526988,45.259533 93.138219,43.743407 C 91.266243,41.699761 90.904455,40.695545 91.739375,39.860625 C 93.307287,38.292713 95.573510,39.388056 97.606185,42.696256 C 100.590947,47.553984 110.004350,61.314067 113.548500,66.000000 C 115.420436,68.475000 118.629769,72.975000 120.680351,76.000000 C 122.730934,79.025000 126.679229,84.483990 129.454341,88.131088 C 132.229454,91.778187 135.273515,96.053187 136.218922,97.631088 C 137.164329,99.208990 140.089329,103.237081 142.718922,106.582402 C 145.348515,109.927723 149.975000,116.177836 153.000000,120.471543 C 156.025000,124.765249 161.195543,131.928168 164.490095,136.389141 C 167.784648,140.850113 172.059648,146.795120 173.990095,149.600267 C 178.361947,155.953035 185.044697,165.274492 191.250000,173.675308 C 193.862500,177.212142 196.000000,180.394961 196.000000,180.748239 C 196.000000,181.101517 197.174157,182.616119 198.609239,184.114021 C 201.159587,186.776011 201.157548,189.000000 198.604759,189.000000 C 197.902295,189.000000 195.652098,186.862500 193.604322,184.250000" fill="none" stroke="black" stroke-width="5"/>
  <path d="M 177.618689,180.566722 C 176.178410,178.678419 175.000000,176.844239 175.000000,176.490766 C 175.000000,176.137293 173.066450,173.294768 170.703221,170.174044 C 168.339993,167.053320 164.858357,162.025000 162.966253,159.000000 C 161.074148,155.975000 155.245199,147.777244 150.013031,140.782765 C 140.149559,127.597053 133.803455,118.881218 121.046722,101.000000 C 116.926749,95.225000 111.293293,87.474156 108.527931,83.775901 C 105.762569,80.077647 102.375000,75.446636 101.000000,73.484766 C 99.625000,71.522896 97.375000,68.381135 96.000000,66.503075 C 94.625000,64.625015 91.775881,60.706026 89.668625,57.794210 C 87.561369,54.882395 83.826902,49.800000 81.369809,46.500000 C 75.634037,38.796567 71.715458,31.293891 73.009946,30.493853 C 74.508760,29.567535 75.551683,30.554545 78.564325,35.750455 C 80.078934,38.362705 82.259074,41.710390 83.409080,43.189756 C 84.559086,44.669121 88.425000,49.969763 92.000000,54.968961 C 95.575000,59.968158 100.637500,66.950340 103.250000,70.484922 C 105.862500,74.019504 108.000000,77.355845 108.000000,77.899013 C 108.000000,78.442182 108.787500,79.474609 109.750000,80.193296 C 110.712500,80.911983 113.515712,84.425000 115.979361,88.000000 C 118.443009,91.575000 123.168009,98.146585 126.479361,102.603523 C 129.790712,107.060461 137.000000,116.880596 142.500000,124.426045 C 148.000000,131.971495 154.340702,140.474909 156.590449,143.322522 C 158.840195,146.170135 163.183153,152.345433 166.241465,157.045406 C 169.299778,161.745380 172.521576,166.187980 173.401017,166.917851 C 174.280458,167.647722 175.000000,168.687329 175.000000,169.228089 C 175.000000,169.768848 176.012500,171.506343 177.250000,173.089188 C 183.378802,180.928334 184.087472,182.049451 183.507283,182.988216 C 182.341853,184.873921 180.246850,184.012418 177.618689,180.566722" fill="none" stroke="black" stroke-width="5"/>
  <path d="M 218.174314,180.685549 C 216.978441,179.412601 216.000000,177.907345 216.000000,177.340536 C 216.000000,176.773728 215.053929,175.453793 213.897621,174.407348 C 212.741312,173.360903 211.109119,171.153659 210.270524,169.502361 C 209.431930,167.851062 208.015501,165.772519 207.122904,164.883376 C 206.230307,163.994233 204.265172,161.294233 202.755937,158.883376 C 201.246702,156.472519 197.783129,151.575000 195.059108,148.000000 C 192.335087,144.425000 187.216135,137.225000 183.683658,132.000000 C 180.151182,126.775000 175.845236,120.700000 174.114888,118.500000 C 169.475021,112.600775 168.315891,111.038880 164.220002,105.166918 C 162.174001,102.233722 158.968623,97.958722 157.096941,95.666918 C 155.225258,93.375113 152.113969,89.025000 150.182964,86.000000 C 148.251959,82.975000 146.393487,80.275000 146.053026,80.000000 C 145.712565,79.725000 143.663724,77.025000 141.500047,74.000000 C 139.336369,70.975000 134.279369,64.084656 130.262268,58.688124 C 126.245167,53.291592 123.219355,48.454092 123.538241,47.938124 C 124.671881,46.103857 126.534294,47.065013 129.000000,50.756833 C 130.375000,52.815575 133.525000,57.190705 136.000000,60.479344 C 142.802447,69.518048 144.518520,71.905119 149.507816,79.268820 C 152.030244,82.991671 156.041799,88.428951 158.422382,91.351665 C 160.802965,94.274379 163.322497,97.753410 164.021342,99.082845 C 164.720187,100.412280 165.857148,101.835165 166.547922,102.244812 C 167.238696,102.654458 169.046549,105.129458 170.565373,107.744812 C 172.084196,110.360165 173.657966,112.725000 174.062640,113.000000 C 175.051872,113.672243 184.851623,127.141489 188.500000,132.843397 C 189.050000,133.702971 191.553808,137.127350 194.064017,140.453129 C 198.444534,146.256881 209.319043,161.716728 213.500000,168.084474 C 214.600000,169.759814 217.187500,173.153542 219.250000,175.626092 C 223.103312,180.245491 224.008910,183.000000 221.674314,183.000000 C 220.945187,183.000000 219.370187,181.958497 218.174314,180.685549" fill="none" stroke="black" stroke-width="5"/>
  <path d="M 160.560337,174.250000 C 159.080249,172.737500 155.443850,167.900000 152.479450,163.500000 C 142.594140,148.827429 131.907554,133.602391 124.403106,123.500000 C 120.317493,118.000000 111.834750,106.300000 105.552566,97.500000 C 99.270383,88.700000 92.989970,79.925000 91.596092,78.000000 C 88.637408,73.913940 73.243824,51.859133 70.891897,48.336536 C 70.007441,47.011842 68.532104,45.378351 67.613372,44.706558 C 65.680474,43.293189 64.961490,37.910305 66.626371,37.317091 C 67.245874,37.096355 68.697325,38.397209 69.851817,40.207876 C 71.006309,42.018544 72.974442,44.902225 74.225447,46.616056 C 75.476451,48.329887 80.026396,54.854887 84.336436,61.116056 C 93.901571,75.011272 110.018858,97.648083 118.922423,109.692251 C 121.440090,113.097989 125.075000,118.205820 127.000000,121.042985 C 128.925000,123.880151 131.716617,127.654260 133.203593,129.429895 C 134.690570,131.205529 138.965570,137.133614 142.703593,142.603417 C 150.764639,154.399042 154.849161,160.154497 161.250000,168.736957 C 163.862500,172.239884 166.000000,175.532084 166.000000,176.052958 C 166.000000,177.889290 163.219944,176.967850 160.560337,174.250000" fill="none" stroke="black" stroke-width="5"/>
  <path d="M 222.121848,167.750000 C 216.988448,159.712462 214.609188,156.443127 213.352673,155.700298 C 212.608679,155.260461 211.295380,153.538096 210.434232,151.872819 C 209.573084,150.207542 207.435594,146.927426 205.684254,144.583673 C 203.932914,142.239920 200.025000,136.843746 197.000000,132.592174 C 193.975000,128.340603 187.876513,120.055584 183.447806,114.181022 C 179.019099,108.306460 173.421377,100.575000 171.008422,97.000000 C 168.595467,93.425000 162.775183,85.325000 158.074456,79.000000 C 145.622854,62.245911 142.851077,58.049980 143.520082,56.967506 C 144.726902,55.014831 146.059575,56.169904 151.922314,64.250000 C 155.214623,68.787500 158.828956,73.696172 159.954165,75.158161 C 161.079374,76.620149 162.000000,78.237905 162.000000,78.753173 C 162.000000,79.268442 162.913080,80.516351 164.029068,81.526306 C 165.145055,82.536260 168.145043,86.543505 170.695708,90.431293 C 173.246373,94.319082 178.070792,101.017429 181.416640,105.316508 C 193.322239,120.614010 201.622468,132.020894 212.000000,147.346773 C 215.559288,152.603246 223.484912,163.541810 224.066230,164.000000 C 225.446037,165.087554 227.058211,169.096796 226.487227,170.020667 C 225.439744,171.715530 224.263925,171.103924 222.121848,167.750000" fill="none" stroke="black" stroke-width="5"/>
  <path d="M 138.301106,162.306429 C 135.077929,158.012893 129.828403,150.567444 126.635494,145.760988 C 123.442584,140.954531 118.955908,134.547865 116.665102,131.523952 C 114.374296,128.500039 110.250000,122.814285 107.500000,118.888942 C 104.750000,114.963599 101.375000,110.343784 100.000000,108.622687 C 98.625000,106.901589 97.050000,104.774715 96.500000,103.896301 C 94.959544,101.436013 90.553649,95.219485 84.762587,87.335316 C 65.838806,61.571771 57.908007,49.957865 58.540150,48.935036 C 59.733467,47.004208 61.702663,48.126229 63.861259,51.966932 C 65.985165,55.745915 79.967095,74.983081 85.426194,81.637246 C 86.841787,83.362731 88.000000,85.133770 88.000000,85.572889 C 88.000000,86.012008 89.700655,88.425247 91.779233,90.935643 C 93.857811,93.446039 96.327821,96.625000 97.268143,98.000000 C 103.886679,107.678048 108.125577,113.592723 112.250000,118.904680 C 114.862500,122.269390 117.000000,125.266332 117.000000,125.564550 C 117.000000,125.862768 119.402526,129.120243 122.338946,132.803382 C 125.275366,136.486522 128.312866,140.602087 129.088946,141.949082 C 129.865026,143.296077 131.215524,145.216173 132.090054,146.215961 C 132.964584,147.215750 134.314584,149.263663 135.090054,150.766879 C 135.865524,152.270096 138.870556,156.625831 141.767903,160.446291 C 144.665250,164.266751 146.887125,167.838626 146.705403,168.383791 C 145.826240,171.021279 143.676260,169.466573 138.301106,162.306429" fill="none" stroke="black" stroke-width="5"/>
  <path d="M 121.704545,157.627261 C 119.388531,155.134550 117.645043,152.645904 110.756447,142.000000 C 108.443189,138.425000 105.189155,133.654926 103.525261,131.399836 C 101.861367,129.144745 98.700000,124.713490 96.500000,121.552602 C 94.300000,118.391714 91.972231,115.241162 91.327181,114.551376 C 90.228446,113.376441 86.114950,107.700320 82.231174,102.000000 C 81.294351,100.625000 78.271591,96.458405 75.513929,92.740899 C 72.756268,89.023393 68.925000,83.691449 67.000000,80.892133 C 65.075000,78.092817 61.883465,73.699927 59.907699,71.130156 C 55.054671,64.818085 53.618903,61.981097 54.720138,60.879862 C 55.698741,59.901259 60.259596,65.228011 68.500000,76.973751 C 71.250000,80.893557 75.862500,87.234816 78.750000,91.065438 C 81.637500,94.896060 84.000000,98.301502 84.000000,98.633087 C 84.000000,98.964673 85.237500,100.734176 86.750000,102.565316 C 88.262500,104.396457 90.850000,107.729072 92.500000,109.971128 C 94.150000,112.213184 96.850000,115.813581 98.500000,117.972011 C 100.150000,120.130441 102.748206,123.832233 104.273790,126.198215 C 105.799375,128.564197 109.306042,133.650000 112.066385,137.500000 C 114.826727,141.350000 118.204063,146.075000 119.571575,148.000000 C 120.939087,149.925000 123.162319,153.017769 124.512090,154.872820 C 128.178053,159.911117 125.901593,162.144518 121.704545,157.627261" fill="none" stroke="black" stroke-width="5"/>
  <path d="M 227.500000,156.000000 C 227.150874,154.900000 226.451194,154.000000 225.945157,154.000000 C 225.439120,154.000000 223.781944,152.139822 222.262545,149.866272 C 215.806452,140.205709 214.361483,138.068649 211.794054,134.383728 C 210.305784,132.247678 207.265904,128.025000 205.038765,125.000000 C 202.811627,121.975000 200.701501,118.825000 200.349598,118.000000 C 199.997695,117.175000 198.864930,115.600000 197.832342,114.500000 C 195.706736,112.235623 192.247489,107.689665 186.694598,99.863369 C 184.601627,96.913516 178.412896,88.203693 172.941862,80.508207 C 167.470829,72.812721 163.145760,66.062721 163.330598,65.508207 C 164.080882,63.257354 166.485649,64.771623 169.669854,69.500000 C 177.395151,80.971661 200.225914,112.533793 216.226695,133.861982 C 219.677013,138.461071 222.947876,142.961071 223.495280,143.861982 C 224.042683,144.762892 226.201349,147.871225 228.292313,150.769389 C 230.383278,153.667553 231.821345,156.480053 231.488017,157.019389 C 230.457165,158.687343 228.167144,158.101983 227.500000,156.000000" fill="none" stroke="black" stroke-width="5"/>
  <path d="M 106.992111,154.718197 C 105.431702,153.457570 104.987731,152.857922 97.575739,142.000000 C 95.135321,138.425000 90.294927,131.567399 86.819308,126.760887 C 83.343688,121.954376 78.700000,115.518978 76.500000,112.460004 C 74.300000,109.401030 71.375000,105.395061 70.000000,103.557851 C 68.625000,101.720641 64.575000,96.068071 61.000000,90.996585 C 57.425000,85.925099 52.766922,79.531747 50.648716,76.789135 C 48.124570,73.520920 47.136303,71.463697 47.780818,70.819182 C 49.399776,69.200224 52.156133,71.696843 57.000000,79.169619 C 59.475000,82.987874 63.075000,88.087807 65.000000,90.502802 C 66.925000,92.917798 69.530726,96.380120 70.790503,98.196852 C 72.937154,101.292551 76.279457,105.888586 88.500000,122.549361 C 93.575891,129.469534 94.956535,131.417588 98.458793,136.600966 C 99.536129,138.195435 102.831181,142.752801 105.781131,146.728446 C 108.731081,150.704092 110.860566,154.416592 110.513321,154.978446 C 109.702370,156.290593 108.861503,156.228445 106.992111,154.718197" fill="none" stroke="black" stroke-width="5"/>
  <path d="M 88.375321,148.234687 C 87.756748,147.830609 86.406748,145.924908 85.375321,143.999796 C 83.341398,140.203568 82.135138,138.500521 70.936644,123.614683 C 61.953706,111.673921 59.991429,108.943372 52.528961,98.000000 C 49.341000,93.325000 45.835887,88.510396 44.739820,87.300881 C 43.572804,86.013072 43.006816,84.424620 43.374012,83.467723 C 44.630695,80.192861 45.771801,81.454794 58.771831,100.495951 C 60.272324,102.693725 65.100000,109.310126 69.500000,115.199065 C 79.142300,128.104273 86.143611,137.771616 87.500000,140.053293 C 88.050000,140.978486 89.326288,142.900195 90.336196,144.323755 C 92.712597,147.673518 91.430568,150.230503 88.375321,148.234687" fill="none" stroke="black" stroke-width="5"/>
  <path d="M 227.980895,138.750000 C 223.069868,131.978894 214.917565,120.569265 209.500000,112.884897 C 206.750000,108.984250 203.125340,104.151929 201.445200,102.146406 C 199.765060,100.140883 196.645905,95.800000 194.513743,92.500000 C 192.381582,89.200000 190.043742,86.140139 189.318543,85.700310 C 188.593344,85.260480 188.000000,84.303080 188.000000,83.572755 C 188.000000,82.842429 187.292110,81.657393 186.426912,80.939342 C 183.818822,78.774820 180.708931,71.891069 181.831846,70.768154 C 183.350886,69.249114 184.632445,70.530440 188.098785,77.033962 C 189.847711,80.315283 191.654398,83.000000 192.113645,83.000000 C 192.572892,83.000000 193.699883,84.462500 194.618068,86.250000 C 195.536254,88.037500 198.858200,92.875000 202.000170,97.000000 C 208.054824,104.948977 215.506755,115.022746 218.000000,118.629104 C 218.825000,119.822426 221.291833,123.431555 223.481851,126.649391 C 225.671869,129.867226 228.937273,134.450773 230.738304,136.835050 C 233.768674,140.846777 234.199801,143.000000 231.972675,143.000000 C 231.472565,143.000000 229.676264,141.087500 227.980895,138.750000" fill="none" stroke="black" stroke-width="5"/>
  <path d="M 69.399048,139.750000 C 65.844789,135.648049 61.000000,129.127541 61.000000,128.445884 C 61.000000,127.727270 57.730771,123.523947 51.875882,116.714797 C 45.790173,109.637206 36.850548,95.831850 37.409670,94.374799 C 38.304407,92.043153 39.869199,92.832541 42.446935,96.915940 C 43.806549,99.069707 45.393624,101.125239 45.973770,101.483789 C 46.553915,101.842339 47.979488,104.017665 49.141710,106.317849 C 50.303931,108.618032 53.110001,112.616852 55.377420,115.204116 C 61.346542,122.015248 65.000000,126.672950 65.000000,127.471700 C 65.000000,127.855164 67.025000,130.746410 69.500000,133.896689 C 71.975000,137.046969 74.000000,140.158964 74.000000,140.812235 C 74.000000,142.747378 71.495124,142.169070 69.399048,139.750000" fill="none" stroke="black" stroke-width="5"/>
  <path d="M 48.314854,129.919382 C 46.766684,127.675042 43.812500,123.638280 41.750000,120.948800 C 39.687500,118.259320 38.000000,115.727071 38.000000,115.321581 C 38.000000,114.916090 36.334329,112.878523 34.298509,110.793654 C 31.749074,108.182796 30.918926,106.681074 31.631291,105.968709 C 33.629226,103.970774 36.193562,106.362513 44.134492,117.630364 C 48.541456,123.883664 52.515899,129.000000 52.966588,129.000000 C 54.445205,129.000000 55.098410,132.320639 53.783870,133.154738 C 51.713029,134.468721 51.273796,134.208880 48.314854,129.919382" fill="none" stroke="black" stroke-width="5"/>
  <path d="M 232.042627,126.243167 C 230.691073,124.184425 227.520617,119.800000 224.997172,116.500000 C 222.473726,113.200000 217.954544,106.900000 214.954544,102.500000 C 211.954545,98.100000 209.162500,94.350000 208.750000,94.166667 C 208.337500,93.983333 208.000000,93.379506 208.000000,92.824828 C 208.000000,91.720761 205.360212,88.074107 200.093940,81.903242 C 197.637959,79.025394 196.991600,77.608400 197.776723,76.823277 C 199.668872,74.931128 201.535105,76.583194 207.598132,85.517591 C 215.815014,97.625879 215.824252,97.638941 221.984806,105.858531 C 230.693194,117.477514 237.000000,127.017605 237.000000,128.571502 C 237.000000,131.190870 234.528814,130.030225 232.042627,126.243167" fill="none" stroke="black" stroke-width="5"/>
  <path d="M 28.989040,122.750000 C 26.941822,119.392319 26.565940,117.767393 27.597766,116.735568 C 28.743508,115.589826 30.922345,117.203209 33.011774,120.744528 C 34.680840,123.573385 34.845388,124.481895 33.807859,125.139911 C 31.693311,126.480988 31.077719,126.175683 28.989040,122.750000" fill="none" stroke="black" stroke-width="5"/>
  <path d="M 237.616071,116.473214 C 236.727232,115.584375 236.000000,114.440582 236.000000,113.931452 C 236.000000,113.422322 234.489943,111.316965 232.644317,109.252881 C 230.798691,107.188796 228.704331,104.375000 227.990182,103.000000 C 227.276034,101.625000 223.597017,96.317301 219.814590,91.205113 C 216.032163,86.092925 213.203081,81.480425 213.527742,80.955113 C 215.310114,78.071174 218.209974,81.080214 226.447027,94.360810 C 227.517892,96.087364 231.292155,101.283078 234.834278,105.906841 C 238.376402,110.530603 241.325239,114.982171 241.387251,115.799212 C 241.551909,117.968670 239.481551,118.338694 237.616071,116.473214" fill="none" stroke="black" stroke-width="5"/>
  <path d="M 240.273465,101.250000 C 239.298512,99.737500 237.736773,97.825000 236.802933,97.000000 C 234.518707,94.982002 229.893346,85.981587 230.574293,84.879791 C 231.617532,83.191795 232.686167,84.035489 236.018336,89.177901 C 237.863677,92.025746 240.687143,95.851958 242.292706,97.680593 C 243.964501,99.584662 244.966391,101.645201 244.637341,102.502692 C 243.773739,104.753202 242.249593,104.315682 240.273465,101.250000" fill="none" stroke="black" stroke-width="5"/>
</svg>
