<?xml version="1.0" encoding="utf-8" ?>
<svg xmlns="http://www.w3.org/2000/svg" xmlns:ev="http://www.w3.org/2001/xml-events" xmlns:xlink="http://www.w3.org/1999/xlink" baseProfile="full" height="218" version="1.1" width="257">
  <defs/>
  <path d="M 43.505616,174.875230 C 43.197644,174.072668 43.070391,166.459920 43.222833,157.958013 C 43.446274,145.496362 43.771758,142.500000 44.901979,142.500000 C 46.047898,142.500000 46.294211,145.395121 46.250594,158.351385 C 46.217550,168.166875 45.791382,174.608618 45.131398,175.268602 C 44.376954,176.023046 43.901973,175.908120 43.505616,174.875230" fill="none" stroke="black" stroke-width="5"/>
  <path d="M 31.497336,173.995690 C 30.604376,172.550849 31.197571,160.841634 32.275131,158.642641 C 32.775872,157.620769 33.563388,157.170944 34.025845,157.642641 C 35.082082,158.719983 35.559374,172.285897 34.595890,173.844846 C 33.716930,175.267034 32.324951,175.334799 31.497336,173.995690" fill="none" stroke="black" stroke-width="5"/>
  <path d="M 53.608330,174.175281 C 53.292106,173.663621 53.115482,162.820594 53.215831,150.079666 C 53.353699,132.575160 53.713278,126.652921 54.687309,125.844547 C 55.625502,125.065917 56.119545,125.147953 56.502518,126.145966 C 56.791919,126.900134 56.909744,138.051142 56.764351,150.925984 C 56.576394,167.569985 56.165251,174.446160 55.341641,174.720180 C 54.704543,174.932146 53.924553,174.686941 53.608330,174.175281" fill="none" stroke="black" stroke-width="5"/>
  <path d="M 85.944318,172.895957 C 84.985398,171.104198 84.868445,163.181887 85.429738,138.038597 C 85.829250,120.142369 86.265996,99.077499 86.400285,91.227776 C 86.639927,77.219760 87.402643,73.894745 90.007037,75.504349 C 90.700229,75.932765 90.947024,77.322291 90.604320,78.867217 C 90.283109,80.315248 89.739709,102.200000 89.396764,127.500000 C 89.053818,152.800000 88.415939,173.885812 87.979254,174.357359 C 87.542569,174.828907 86.626848,174.171276 85.944318,172.895957" fill="none" stroke="black" stroke-width="5"/>
  <path d="M 96.580197,174.129761 C 96.181397,173.484490 96.130070,161.603819 96.466136,147.728270 C 96.802203,133.852722 97.045889,109.404149 97.007661,93.398108 C 96.949891,69.209827 97.181607,64.094169 98.380050,63.099550 C 99.173564,62.440991 100.071013,62.305885 100.375834,62.799095 C 100.680473,63.292011 100.737360,74.901362 100.502250,88.597653 C 100.267140,102.293944 99.983338,126.678534 99.871578,142.785630 C 99.728255,163.441673 99.320212,172.547406 98.486832,173.687121 C 97.634902,174.852205 97.103008,174.975688 96.580197,174.129761" fill="none" stroke="black" stroke-width="5"/>
  <path d="M 119.205233,173.747291 C 117.884401,172.155786 118.576197,49.023803 119.913484,47.686516 C 120.415222,47.184778 121.355472,47.101660 122.002928,47.501810 C 122.877156,48.042112 123.031158,53.926163 122.601316,70.364677 C 122.282972,82.539105 121.904945,111.062187 121.761255,133.749304 C 121.617565,156.436420 121.217600,174.998920 120.872445,174.999304 C 120.527289,174.999687 119.777044,174.436281 119.205233,173.747291" fill="none" stroke="black" stroke-width="5"/>
  <path d="M 129.272689,173.333158 C 128.423520,171.195953 128.419371,170.573983 128.857324,111.062989 C 129.041233,86.072634 129.601339,64.548557 130.102005,63.231707 C 133.318606,54.771405 133.760582,68.670019 132.272939,131.500000 C 131.718473,154.917629 131.699859,167.595371 132.213621,171.898791 C 132.559941,174.799664 130.294402,175.904625 129.272689,173.333158" fill="none" stroke="black" stroke-width="5"/>
  <path d="M 150.807050,173.750000 C 150.428870,172.588305 150.804631,106.814178 151.285505,90.000000 C 151.454221,84.100712 151.819641,82.500000 152.997649,82.500000 C 154.309806,82.500000 154.460645,88.073509 154.215506,127.500000 C 154.061621,152.250000 153.950178,173.062500 153.967857,173.750000 C 153.985536,174.437500 153.373145,175.000000 152.606989,175.000000 C 151.840833,175.000000 151.030860,174.437500 150.807050,173.750000" fill="none" stroke="black" stroke-width="5"/>
  <path d="M 184.154082,173.685658 C 182.459214,171.643466 183.539814,115.500000 185.273989,115.500000 C 186.207396,115.500000 186.565756,122.403225 186.775517,144.424483 C 186.927052,160.332948 186.660480,173.739520 186.183136,174.216864 C 185.692604,174.707396 184.810361,174.476425 184.154082,173.685658" fill="none" stroke="black" stroke-width="5"/>
  <path d="M 63.534220,173.055368 C 63.175480,172.474916 63.147897,171.569715 63.472923,171.043811 C 63.797950,170.517907 64.275507,157.601907 64.534162,142.341589 C 64.792817,127.081271 65.414234,114.185766 65.915089,113.684911 C 67.610894,111.989106 69.076678,114.072726 68.477912,117.327981 C 68.157012,119.072591 67.787629,132.422318 67.657061,146.994040 C 67.446617,170.480189 67.236132,173.523426 65.803069,173.799409 C 64.913941,173.970639 63.892959,173.635821 63.534220,173.055368" fill="none" stroke="black" stroke-width="5"/>
  <path d="M 75.388323,172.819303 C 74.953971,172.116506 74.765240,157.582155 74.968922,140.520745 C 75.172604,123.459335 75.379622,106.125000 75.428962,102.000000 C 75.500000,96.060996 75.828927,94.500000 77.009336,94.500000 C 78.304629,94.500000 78.500000,99.589332 78.500000,133.331228 C 78.500000,161.585954 78.183785,172.425929 77.339028,173.129787 C 76.569781,173.770728 75.911590,173.665967 75.388323,172.819303" fill="none" stroke="black" stroke-width="5"/>
  <path d="M 107.546020,173.074462 C 106.947488,172.106017 107.558106,88.102787 108.359328,61.187072 C 108.733075,48.631668 109.597990,45.605755 111.989404,48.487232 C 112.917629,49.605675 113.013875,50.699854 112.322990,52.279614 C 111.756165,53.575699 111.223286,73.856992 111.042890,101.000000 C 110.590875,169.011707 110.485040,173.338320 109.263438,173.745521 C 108.669352,173.943549 107.896514,173.641573 107.546020,173.074462" fill="none" stroke="black" stroke-width="5"/>
  <path d="M 161.768682,173.302786 C 161.010742,171.835191 162.209602,95.278890 163.010827,93.982482 C 163.443855,93.281828 164.537972,92.992462 165.442199,93.339446 C 166.702843,93.823201 166.853373,94.405458 166.087673,95.836181 C 165.489265,96.954316 164.971062,112.856450 164.794549,135.518321 C 164.580041,163.058401 164.185227,173.439359 163.341641,173.720090 C 162.704543,173.932106 161.996712,173.744319 161.768682,173.302786" fill="none" stroke="black" stroke-width="5"/>
  <path d="M 172.709267,173.375934 C 172.366031,173.032698 172.311393,157.845198 172.587848,139.625934 C 172.864304,121.406670 173.070134,105.937500 173.045247,105.250000 C 172.991898,103.776175 175.681348,103.549833 176.166667,104.987304 C 176.350000,105.530321 176.252728,120.042821 175.950507,137.237304 C 175.648285,154.431787 175.739724,169.218562 176.153703,170.096804 C 177.218484,172.355702 174.385787,175.052453 172.709267,173.375934" fill="none" stroke="black" stroke-width="5"/>
  <path d="M 194.531845,152.827427 C 194.841733,141.182512 195.340079,131.258758 195.639280,130.774641 C 195.938481,130.290523 196.660161,130.053387 197.243014,130.247671 C 197.953849,130.484616 198.229876,137.492975 198.081411,151.534680 C 197.866908,171.822300 197.552908,173.928325 194.734206,173.984687 C 194.313019,173.993109 194.221956,164.472342 194.531845,152.827427" fill="none" stroke="black" stroke-width="5"/>
  <path d="M 205.704374,173.330683 C 205.417625,172.866714 205.048869,164.165004 204.884917,153.993551 C 204.632438,138.330032 204.809721,135.500000 206.043411,135.500000 C 208.077927,135.500000 208.748284,141.719772 208.501016,158.302398 C 208.317114,170.635423 207.326977,175.956112 205.704374,173.330683" fill="none" stroke="black" stroke-width="5"/>
  <path d="M 140.662457,172.329124 C 139.827472,171.494138 139.990454,106.800856 140.879947,86.000000 C 141.390813,74.053357 141.764140,71.500000 143.000000,71.500000 C 144.082669,71.500000 144.448804,72.473772 144.315988,75.000000 C 144.214781,76.925000 143.907244,99.372537 143.632573,124.883415 C 143.357902,150.394293 142.735707,171.664293 142.249919,172.150081 C 141.764130,172.635870 141.049772,172.716439 140.662457,172.329124" fill="none" stroke="black" stroke-width="5"/>
  <path d="M 216.123540,163.384717 C 216.013323,158.096311 215.827937,153.258811 215.711572,152.634717 C 215.595207,152.010622 216.400000,151.500000 217.500000,151.500000 C 219.293245,151.500000 219.530700,152.265656 219.796967,158.906415 C 219.960298,162.979944 219.778639,167.029944 219.393279,167.906415 C 219.007920,168.782887 218.790071,170.287500 218.909171,171.250000 C 219.028271,172.212500 218.495316,173.000000 217.724826,173.000000 C 216.634663,173.000000 216.279487,170.867265 216.123540,163.384717" fill="none" stroke="black" stroke-width="5"/>
  <path d="M 227.230221,170.777400 C 226.633463,170.058350 226.000035,167.676778 225.822603,165.485018 C 225.580684,162.496664 225.868233,161.500000 226.972324,161.500000 C 227.935135,161.500000 228.708450,163.045292 229.206946,165.965378 C 230.009515,170.666653 229.058886,172.980806 227.230221,170.777400" fill="none" stroke="black" stroke-width="5"/>
</svg>
