<?xml version="1.0" encoding="utf-8" ?>
<svg baseProfile="full" height="218" version="1.1" width="257" xmlns="http://www.w3.org/2000/svg" xmlns:ev="http://www.w3.org/2001/xml-events" xmlns:xlink="http://www.w3.org/1999/xlink"><defs /><rect fill="white" height="218" width="257" x="0" y="0" /><path d="M 226,160 L 229,162 L 230,170 L 228,172 L 225,169 L 224,164 Z" fill="black" stroke="black" stroke-width="1" /><path d="M 33,156 L 36,172 L 32,175 L 30,160 Z" fill="black" stroke="black" stroke-width="1" /><path d="M 216,150 L 220,152 L 218,173 L 215,172 Z" fill="black" stroke="black" stroke-width="1" /><path d="M 45,141 L 44,176 Z" fill="black" stroke="black" stroke-width="1" /><path d="M 205,134 L 209,143 L 206,174 Z" fill="black" stroke="black" stroke-width="1" /><path d="M 197,129 L 194,174 Z" fill="black" stroke="black" stroke-width="1" /><path d="M 55,124 L 54,175 Z" fill="black" stroke="black" stroke-width="1" /><path d="M 184,114 L 185,175 Z" fill="black" stroke="black" stroke-width="1" /><path d="M 67,112 L 64,174 Z" fill="black" stroke="black" stroke-width="1" /><path d="M 173,103 L 174,174 Z" fill="black" stroke="black" stroke-width="1" /><path d="M 77,93 L 76,174 Z" fill="black" stroke="black" stroke-width="1" /><path d="M 165,92 L 162,174 Z" fill="black" stroke="black" stroke-width="1" /><path d="M 152,81 L 153,175 Z" fill="black" stroke="black" stroke-width="1" /><path d="M 89,74 L 87,175 Z" fill="black" stroke="black" stroke-width="1" /><path d="M 143,70 L 141,173 Z" fill="black" stroke="black" stroke-width="1" /><path d="M 99,61 L 97,175 Z" fill="black" stroke="black" stroke-width="1" /><path d="M 132,60 L 130,175 Z" fill="black" stroke="black" stroke-width="1" /><path d="M 120,46 L 121,175 Z" fill="black" stroke="black" stroke-width="1" /><path d="M 110,46 L 108,174 Z" fill="black" stroke="black" stroke-width="1" /><path d="M 0,0 L 0,217 L 256,217 L 256,0 Z" fill="none" stroke="black" stroke-width="1" /></svg>