<?xml version="1.0" encoding="utf-8" ?>
<svg baseProfile="full" height="222" version="1.1" width="259" xmlns="http://www.w3.org/2000/svg" xmlns:ev="http://www.w3.org/2001/xml-events" xmlns:xlink="http://www.w3.org/1999/xlink"><defs /><rect fill="white" height="222" width="259" x="0" y="0" /><circle cx="131.0" cy="204.5" fill="black" r="4.272101879119873" stroke="black" stroke-width="1" /><path d="M 119,193 L 138,191 L 140,194 L 124,197 Z" fill="black" stroke="black" stroke-width="1" /><path d="M 144,182 L 142,186 L 115,184 L 117,181 Z" fill="black" stroke="black" stroke-width="1" /><path d="M 110,173 L 151,171 L 147,175 Z" fill="black" stroke="black" stroke-width="1" /><path d="M 103,162 L 155,161 Z" fill="black" stroke="black" stroke-width="1" /><path d="M 99,151 L 162,149 Z" fill="black" stroke="black" stroke-width="1" /><path d="M 95,141 L 167,139 Z" fill="black" stroke="black" stroke-width="1" /><path d="M 87,130 L 173,129 Z" fill="black" stroke="black" stroke-width="1" /><path d="M 179,117 L 83,120 Z" fill="black" stroke="black" stroke-width="1" /><path d="M 82,108 L 180,107 Z" fill="black" stroke="black" stroke-width="1" /><path d="M 89,98 L 174,96 Z" fill="black" stroke="black" stroke-width="1" /><path d="M 168,85 L 96,87 Z" fill="black" stroke="black" stroke-width="1" /><path d="M 102,75 L 163,76 Z" fill="black" stroke="black" stroke-width="1" /><path d="M 156,64 L 106,66 Z" fill="black" stroke="black" stroke-width="1" /><path d="M 112,53 L 151,54 Z" fill="black" stroke="black" stroke-width="1" /><path d="M 119,43 L 123,40 L 146,42 L 143,46 L 121,46 Z" fill="black" stroke="black" stroke-width="1" /><path d="M 127,33 L 131,28 L 142,31 L 140,34 Z" fill="black" stroke="black" stroke-width="1" /><path d="M 0,0 L 0,221 L 258,221 L 258,0 Z" fill="none" stroke="black" stroke-width="1" /></svg>