<?xml version="1.0" encoding="utf-8" ?>
<svg xmlns="http://www.w3.org/2000/svg" xmlns:ev="http://www.w3.org/2001/xml-events" xmlns:xlink="http://www.w3.org/1999/xlink" baseProfile="full" height="220" version="1.1" width="260">
  <defs/>
  <path d="M 145.000000,194.153638 C 145.000000,192.659953 147.992661,187.250980 149.520749,185.982780 C 150.334337,185.307562 151.000000,184.323971 151.000000,183.797023 C 151.000000,183.270075 152.643287,180.287675 154.651748,177.169468 C 159.624123,169.449679 162.200240,165.351783 165.608794,159.739808 C 167.198958,157.121703 170.412500,151.992482 172.750000,148.341539 C 175.087500,144.690596 177.000000,141.150283 177.000000,140.474175 C 177.000000,139.798068 177.721879,138.645783 178.604176,137.913542 C 179.486472,137.181301 180.620507,135.663701 181.124254,134.541097 C 181.628000,133.418494 183.373830,130.475000 185.003875,128.000000 C 186.633921,125.525000 188.274621,122.825000 188.649876,122.000000 C 189.025131,121.175000 190.534789,118.700000 192.004673,116.500000 C 193.474556,114.300000 195.987321,110.475000 197.588594,108.000000 C 199.189867,105.525000 201.062500,102.905357 201.750000,102.178571 C 202.437500,101.451786 203.000000,100.259506 203.000000,99.529061 C 203.000000,98.798615 204.554505,95.890993 206.454457,93.067677 C 208.354408,90.244362 210.937724,86.036642 212.195159,83.717188 C 213.452594,81.397735 215.498088,78.107524 216.740702,76.405609 C 217.983316,74.703694 219.000000,72.963984 219.000000,72.539586 C 219.000000,72.115189 220.502215,69.682664 222.338256,67.133977 C 224.174297,64.585290 227.132323,59.912500 228.911647,56.750000 C 231.881251,51.471942 233.683283,50.016616 235.276441,51.609774 C 236.094162,52.427496 232.647006,58.694525 225.986034,68.500000 C 224.491549,70.700000 222.971822,73.453152 222.608865,74.618116 C 222.245907,75.783080 221.060429,77.540325 219.974471,78.523104 C 218.888512,79.505883 218.000000,80.681493 218.000000,81.135570 C 218.000000,81.589647 216.312500,84.505597 214.250000,87.615459 C 210.598578,93.121115 209.507720,94.907658 207.909229,98.000000 C 207.088805,99.587143 195.703348,118.066703 188.809795,129.000000 C 186.555722,132.575000 183.259709,137.975000 181.485323,141.000000 C 179.710936,144.025000 175.729338,150.550000 172.637327,155.500000 C 169.545317,160.450000 166.101175,166.075000 164.983680,168.000000 C 163.866185,169.925000 161.159657,174.200000 158.969174,177.500000 C 156.778691,180.800000 154.355398,184.850000 153.584079,186.500000 C 151.536656,190.879833 148.067641,195.000000 146.427420,195.000000 C 145.642339,195.000000 145.000000,194.619137 145.000000,194.153638" fill="none" stroke="black" stroke-width="5"/>
  <path d="M 137.749986,186.416652 C 136.683959,185.350626 138.748514,181.454567 147.509124,168.000000 C 149.836898,164.425000 152.955547,159.475000 154.439456,157.000000 C 155.923365,154.525000 159.559656,148.675000 162.520101,144.000000 C 165.480547,139.325000 169.817986,132.350000 172.158854,128.500000 C 174.499722,124.650000 179.543256,116.775000 183.366709,111.000000 C 187.190161,105.225000 191.624680,98.025000 193.221197,95.000000 C 197.072835,87.702107 197.946624,86.279756 201.760369,81.099962 C 203.542166,78.679940 205.000000,76.303311 205.000000,75.818563 C 205.000000,75.333815 207.025000,71.918636 209.500000,68.229277 C 211.975000,64.539918 214.000000,61.009147 214.000000,60.383120 C 214.000000,59.757093 214.707890,58.657393 215.573088,57.939342 C 216.438286,57.221291 218.022432,54.916191 219.093412,52.816898 C 220.164392,50.717604 221.495625,49.000000 222.051709,49.000000 C 224.047901,49.000000 224.124658,51.915510 222.201283,54.681392 C 221.123261,56.231626 216.954851,63.125000 212.938150,70.000000 C 208.921448,76.875000 204.873896,83.400000 203.943589,84.500000 C 203.013282,85.600000 201.022360,88.750000 199.519318,91.500000 C 195.442305,98.959396 189.828851,108.155514 187.531781,111.138321 C 186.414301,112.589398 183.250000,117.480621 180.500000,122.007706 C 177.750000,126.534791 174.065722,132.438329 172.312715,135.126679 C 169.226414,139.859725 161.135196,153.154242 157.351967,159.708384 C 156.333385,161.472995 152.947464,166.647995 149.827697,171.208384 C 146.707930,175.768773 143.362085,181.187500 142.392485,183.250000 C 140.754662,186.733920 139.157012,187.823678 137.749986,186.416652" fill="none" stroke="black" stroke-width="5"/>
  <path d="M 131.000000,174.634859 C 131.000000,173.884031 131.900000,172.125553 133.000000,170.727129 C 134.100000,169.328706 135.000000,167.870781 135.000000,167.487295 C 135.000000,167.103810 136.350000,164.789729 138.000000,162.344893 C 139.650000,159.900056 141.000000,157.675309 141.000000,157.401008 C 141.000000,157.126708 142.884607,154.111768 145.188016,150.701140 C 152.560308,139.785082 153.000000,139.092908 153.000000,138.403321 C 153.000000,138.030606 155.045484,134.620808 157.545520,130.825992 C 160.045557,127.031176 162.367269,123.155403 162.704881,122.213163 C 163.042493,121.270924 165.206539,117.575000 167.513872,114.000000 C 169.821205,110.425000 173.686992,104.334752 176.104511,100.466116 C 178.522030,96.597480 181.057787,92.547480 181.739527,91.466116 C 182.421268,90.384752 183.877337,87.843032 184.975238,85.817849 C 186.073138,83.792665 187.455608,81.836453 188.047393,81.470709 C 188.639178,81.104966 189.564931,79.836934 190.104622,78.652861 C 191.186495,76.279249 192.158214,74.644956 196.403119,68.059683 C 199.710729,62.928469 204.339176,54.938584 206.720060,50.250000 C 208.368081,47.004615 210.322248,46.094357 211.511271,48.018237 C 211.857389,48.578268 211.097191,50.715768 209.821942,52.768237 C 205.687414,59.422621 203.989284,62.424890 201.988364,66.617892 C 200.907571,68.882733 199.343047,71.300333 198.511643,71.990337 C 197.680239,72.680341 196.974059,73.752289 196.942354,74.372445 C 196.910649,74.992600 195.898149,76.910054 194.692354,78.633453 C 188.623596,87.307310 181.956286,97.619746 180.231686,101.000000 C 179.530163,102.375000 177.184237,106.200000 175.018516,109.500000 C 172.852795,112.800000 168.791058,119.325000 165.992434,124.000000 C 163.193811,128.675000 160.472355,133.175000 159.944756,134.000000 C 159.417156,134.825000 158.444180,136.625000 157.782586,138.000000 C 157.120992,139.375000 155.324258,141.978158 153.789844,143.784796 C 152.255430,145.591434 151.000000,147.535903 151.000000,148.105837 C 151.000000,148.675772 148.070561,153.584878 144.490135,159.014961 C 140.909709,164.445045 137.691310,169.700576 137.338135,170.693920 C 135.831203,174.932345 131.000000,177.936301 131.000000,174.634859" fill="none" stroke="black" stroke-width="5"/>
  <path d="M 125.385098,165.601784 C 125.716150,164.282766 128.970336,158.770266 132.616621,153.351784 C 136.262906,147.933303 140.234230,141.700000 141.441787,139.500000 C 144.783717,133.411467 150.852046,124.209474 151.988383,123.507180 C 152.544772,123.163312 153.000000,122.046024 153.000000,121.024316 C 153.000000,120.002609 153.386742,119.016667 153.859427,118.833333 C 154.332111,118.650000 155.683591,116.475000 156.862715,114.000000 C 158.041840,111.525000 160.017598,108.049899 161.253289,106.277553 C 162.488980,104.505208 165.075000,100.518737 167.000000,97.418729 C 168.925000,94.318721 173.312500,87.482496 176.750000,82.227116 C 180.187500,76.971737 183.000000,72.070708 183.000000,71.335940 C 183.000000,70.601173 183.337500,69.999542 183.750000,69.998983 C 184.162500,69.998424 185.802716,67.635924 187.394924,64.748983 C 188.987132,61.862042 190.844292,58.825000 191.521945,58.000000 C 192.199599,57.175000 193.364377,54.772142 194.110340,52.660315 C 195.471740,48.806186 198.215993,46.397423 199.993769,47.496149 C 200.521201,47.822120 199.228279,51.365676 197.096321,55.437289 C 193.528846,62.250448 191.058357,66.315237 182.471536,79.500000 C 178.743929,85.223611 169.493992,100.241944 157.219239,120.500000 C 143.452143,143.220995 137.722332,152.375337 135.938234,154.500000 C 134.183538,156.589648 131.904371,160.581669 129.800729,165.250000 C 128.183052,168.839894 124.498714,169.133418 125.385098,165.601784" fill="none" stroke="black" stroke-width="5"/>
  <path d="M 118.396261,157.590257 C 117.718176,155.823196 119.029957,153.414217 127.479568,140.909508 C 131.369469,135.152784 132.138186,133.919971 134.356628,129.880587 C 135.377773,128.021264 137.693000,124.250000 139.501576,121.500000 C 142.723069,116.601612 154.040899,98.451031 156.337479,94.500000 C 156.976865,93.400000 158.908769,90.436248 160.630597,87.913885 C 162.352426,85.391522 164.051414,82.413370 164.406127,81.295769 C 164.760839,80.178168 165.939571,78.459675 167.025529,77.476896 C 168.111488,76.494117 169.000000,75.146646 169.000000,74.482517 C 169.000000,73.818388 170.350000,71.576255 172.000000,69.500000 C 173.650000,67.423745 175.000000,65.172554 175.000000,64.497354 C 175.000000,63.822154 176.012500,61.996671 177.250000,60.440725 C 178.487500,58.884780 180.625000,55.336593 182.000000,52.555867 C 184.448195,47.604768 187.175194,45.955642 187.773845,49.064189 C 187.939525,49.924493 185.762843,54.170370 182.936775,58.499472 C 180.110708,62.828573 177.506315,67.074688 177.149235,67.935283 C 176.792156,68.795877 174.250000,72.801850 171.500000,76.837445 C 168.750000,80.873040 166.195376,84.698040 165.823057,85.337445 C 159.943648,95.434508 154.408717,104.605273 153.955902,105.000000 C 153.640434,105.275000 151.711621,108.425000 149.669653,112.000000 C 147.627684,115.575000 144.090696,121.425000 141.809679,125.000000 C 139.528662,128.575000 135.569350,134.875000 133.011207,139.000000 C 119.712137,160.444725 119.563954,160.633215 118.396261,157.590257" fill="none" stroke="black" stroke-width="5"/>
  <path d="M 112.582156,146.132932 C 112.287423,145.656044 114.960866,140.906698 118.523139,135.578830 C 122.085413,130.250962 125.000000,125.716288 125.000000,125.501777 C 125.000000,125.287266 127.473020,121.149112 130.495600,116.305878 C 133.518180,111.462645 137.356503,104.898940 139.025206,101.719866 C 140.693910,98.540793 143.567767,93.963420 145.411554,91.547927 C 147.255342,89.132434 150.279519,84.596526 152.131948,81.468132 C 153.984376,78.339737 156.336000,74.376430 157.357778,72.660783 C 158.379556,70.945135 160.067056,68.458917 161.107778,67.135853 C 162.148500,65.812789 163.000000,63.906802 163.000000,62.900325 C 163.000000,61.893848 163.845886,60.617663 164.879747,60.064357 C 165.913608,59.511052 167.471562,57.357719 168.341866,55.279173 C 169.212171,53.200628 170.813364,50.377936 171.900074,49.006525 C 173.711398,46.720661 173.934221,46.665007 174.576247,48.338102 C 175.327249,50.295181 172.387640,56.409488 168.331636,61.326725 C 167.049236,62.881424 166.000000,64.702398 166.000000,65.373334 C 166.000000,66.044271 165.315401,67.472244 164.478669,68.546609 C 163.641937,69.620974 161.279437,73.212453 159.228669,76.527673 C 157.177901,79.842894 154.942213,83.442894 154.260473,84.527673 C 153.578732,85.612453 152.137742,88.127411 151.058271,90.116470 C 149.978800,92.105528 148.009467,95.030528 146.681976,96.616470 C 145.354485,98.202411 143.113752,101.750000 141.702570,104.500000 C 140.291388,107.250000 137.643508,111.829471 135.818392,114.676602 C 133.993277,117.523733 129.800000,124.200966 126.500000,129.514896 C 123.200000,134.828827 119.939247,139.777966 119.253882,140.512983 C 118.568518,141.248000 117.567155,143.008268 117.028633,144.424689 C 116.073009,146.938172 113.654146,147.867447 112.582156,146.132932" fill="none" stroke="black" stroke-width="5"/>
  <path d="M 105.000000,135.468615 C 105.000000,134.626354 105.659969,133.683977 106.466598,133.374444 C 107.273226,133.064912 109.543519,130.041535 111.511693,126.655829 C 113.479867,123.270123 116.404661,118.475000 118.011235,116.000000 C 119.617809,113.525000 121.960016,109.751480 123.216139,107.614400 C 124.472263,105.477320 125.966361,102.940238 126.536357,101.976438 C 127.651013,100.091680 132.159762,93.194748 135.156438,88.790493 C 136.170397,87.300263 137.000000,85.789093 137.000000,85.432336 C 137.000000,85.075580 139.311409,81.344858 142.136465,77.141844 C 144.961521,72.938830 148.393448,67.475000 149.762970,65.000000 C 151.132492,62.525000 153.321082,59.067525 154.626505,57.316722 C 155.931927,55.565919 157.014312,53.540919 157.031803,52.816722 C 157.087108,50.527007 159.831203,47.721249 161.419281,48.330652 C 164.002196,49.321809 162.460313,52.235099 145.123882,79.119778 C 143.130747,82.210656 140.763572,86.035656 139.863492,87.619778 C 138.963413,89.203900 135.700913,94.465811 132.613492,99.312914 C 129.526072,104.160017 127.000000,108.299957 127.000000,108.512782 C 127.000000,108.725607 125.650000,110.900056 124.000000,113.344893 C 122.350000,115.789729 121.000000,118.217544 121.000000,118.740037 C 121.000000,119.262530 120.100000,120.504514 119.000000,121.500000 C 117.900000,122.495486 117.000000,123.660330 117.000000,124.088542 C 117.000000,125.174797 110.726712,135.338535 109.503126,136.234687 C 107.745590,137.521903 105.000000,137.054823 105.000000,135.468615" fill="none" stroke="black" stroke-width="5"/>
  <path d="M 99.666667,129.333333 C 98.646113,128.312779 98.862132,127.280725 100.423004,125.719853 C 101.205656,124.937201 104.693156,119.701747 108.173004,114.085512 C 111.652852,108.469277 116.247120,101.089985 118.382489,97.687087 C 120.517859,94.284189 123.598580,89.250000 125.228536,86.500000 C 126.858493,83.750000 128.997152,80.600000 129.981112,79.500000 C 130.965072,78.400000 132.103874,76.375000 132.511783,75.000000 C 132.919692,73.625000 133.915838,71.825000 134.725439,71.000000 C 135.535041,70.175000 138.740518,65.037449 141.848721,59.583220 C 144.956925,54.128991 148.062263,49.479070 148.749474,49.250062 C 151.176130,48.441396 151.148480,51.939402 148.702434,55.201069 C 147.341738,57.015481 145.248933,60.300000 144.051755,62.500000 C 142.854577,64.700000 139.765678,69.953470 137.187534,74.174378 C 120.533150,101.440749 116.400599,108.145652 112.949283,113.500000 C 110.822163,116.800000 108.365952,120.901730 107.491037,122.614956 C 104.681200,128.117073 101.328874,130.995540 99.666667,129.333333" fill="none" stroke="black" stroke-width="5"/>
  <path d="M 93.243519,118.843519 C 92.493022,118.093022 93.145420,116.516725 95.463330,113.480097 C 97.268806,111.114795 100.900313,105.651649 103.533346,101.339774 C 106.166379,97.027898 111.012781,89.225000 114.303130,84.000000 C 117.593478,78.775000 121.458825,72.614520 122.892790,70.310043 C 124.326756,68.005567 127.187500,63.436433 129.250000,60.156412 C 131.312500,56.876391 133.014141,53.361871 133.031425,52.346369 C 133.048709,51.330866 134.129099,49.725141 135.432293,48.778090 C 137.376452,47.365241 137.998843,47.293679 138.899901,48.379388 C 139.729757,49.379304 139.307728,50.655577 137.172562,53.603087 C 135.618536,55.748359 133.706471,58.693477 132.923530,60.147794 C 128.327268,68.685373 123.006995,77.436253 118.329531,84.152264 C 115.398289,88.361008 113.000000,92.120747 113.000000,92.507239 C 113.000000,92.893730 111.650000,95.210271 110.000000,97.655107 C 108.350000,100.099944 107.000000,102.267488 107.000000,102.471872 C 107.000000,102.676257 104.975000,105.863285 102.500000,109.554158 C 100.025000,113.245030 98.000000,116.639414 98.000000,117.097234 C 98.000000,118.650261 94.379489,119.979489 93.243519,118.843519" fill="none" stroke="black" stroke-width="5"/>
  <path d="M 87.706549,110.373216 C 86.860669,109.527336 88.751157,106.045923 95.328788,96.336545 C 98.370477,91.846645 101.617199,86.671645 102.543727,84.836545 C 103.470255,83.001445 105.227204,80.375000 106.448058,79.000000 C 108.721074,76.439991 118.350628,60.463518 121.656890,53.766900 C 122.670600,51.713695 124.321412,49.760107 125.325361,49.425594 C 129.033160,48.190163 128.666567,50.424194 124.000391,57.500000 C 122.912290,59.150000 121.715693,61.175000 121.341288,62.000000 C 120.400840,64.072272 112.220227,76.948126 109.905073,80.000000 C 108.861997,81.375000 107.052781,84.300000 105.884593,86.500000 C 104.716405,88.700000 102.269192,92.597180 100.446342,95.160399 C 98.623492,97.723618 96.217160,101.614170 95.098936,103.806069 C 92.113214,109.658568 89.401180,112.067847 87.706549,110.373216" fill="none" stroke="black" stroke-width="5"/>
  <path d="M 80.646763,100.237468 C 80.052065,99.275226 80.020166,99.327480 91.691891,82.144187 C 96.197431,75.511062 101.376357,67.252568 103.200616,63.791980 C 107.381810,55.860321 113.220145,47.000000 114.265360,47.000000 C 116.534078,47.000000 115.885564,50.598823 112.771745,55.288573 C 110.864581,58.160970 108.499948,62.083613 107.517005,64.005557 C 105.629188,67.696800 101.876408,73.696817 95.415941,83.352971 C 93.262173,86.572105 89.887951,91.747105 87.917669,94.852971 C 84.525888,100.199627 81.848694,102.182233 80.646763,100.237468" fill="none" stroke="black" stroke-width="5"/>
  <path d="M 75.318869,89.388575 C 74.640409,87.620538 77.522199,81.387386 81.046513,77.000000 C 82.151028,75.625000 84.954909,71.622172 87.277361,68.104826 C 89.599812,64.587480 92.290455,60.537480 93.256568,59.104826 C 94.222680,57.672172 95.928593,54.593478 97.047485,52.263285 C 99.390236,47.384298 102.452820,45.131688 103.397260,47.592860 C 103.746247,48.502305 102.060772,52.334495 99.341845,56.813481 C 95.062833,63.862451 92.867805,67.251086 83.345254,81.508659 C 81.505365,84.263422 80.000000,87.060089 80.000000,87.723476 C 80.000000,88.386862 79.093324,89.414871 77.985163,90.007940 C 76.369142,90.872809 75.841378,90.750212 75.318869,89.388575" fill="none" stroke="black" stroke-width="5"/>
  <path d="M 68.578581,80.127147 C 68.281882,79.647078 69.907187,76.384578 72.190370,72.877147 C 79.703756,61.335063 86.121099,51.136377 87.479568,48.578969 C 88.850987,45.997182 90.856343,45.462061 91.627655,47.472069 C 92.013185,48.476744 90.911430,51.119738 88.779195,54.305227 C 83.731975,61.845607 77.901625,71.025271 74.774619,76.354897 C 72.226007,80.698716 69.832452,82.155952 68.578581,80.127147" fill="none" stroke="black" stroke-width="5"/>
  <path d="M 62.538316,70.061996 C 61.632099,68.595706 74.698160,45.357760 76.917217,44.489168 C 79.973688,43.292792 80.329425,45.903815 77.659613,49.938173 C 76.196826,52.148593 75.000000,54.169208 75.000000,54.428428 C 75.000000,54.687647 73.650000,56.900056 72.000000,59.344893 C 70.350000,61.789729 69.000000,64.105321 69.000000,64.490654 C 69.000000,65.687535 64.911947,71.000000 63.990923,71.000000 C 63.510834,71.000000 62.857161,70.577898 62.538316,70.061996" fill="none" stroke="black" stroke-width="5"/>
  <path d="M 56.177462,61.314567 C 55.435865,59.915754 56.189866,57.790584 59.468314,52.039228 C 64.152868,43.821151 66.236263,41.836263 68.159232,43.759232 C 69.111605,44.711605 68.945350,45.461669 67.388421,47.236756 C 66.296621,48.481540 64.075081,52.124476 62.451665,55.332168 C 58.826756,62.494593 57.482564,63.776268 56.177462,61.314567" fill="none" stroke="black" stroke-width="5"/>
  <path d="M 50.361626,49.500000 C 49.468545,47.172668 50.727239,45.000000 52.968615,45.000000 C 55.227166,45.000000 55.514071,46.170932 53.964816,49.065741 C 52.727364,51.377942 51.154980,51.567446 50.361626,49.500000" fill="none" stroke="black" stroke-width="5"/>
</svg>
