<?xml version="1.0" encoding="utf-8" ?>
<svg xmlns="http://www.w3.org/2000/svg" xmlns:ev="http://www.w3.org/2001/xml-events" xmlns:xlink="http://www.w3.org/1999/xlink" baseProfile="full" height="216" version="1.1" width="259">
  <defs/>
  <path d="M 114.897018,150.250000 C 114.840377,149.837500 114.836219,136.225000 114.887776,120.000000 C 114.939334,103.775000 114.985676,88.587500 114.990758,86.250000 C 114.998731,82.583618 115.292381,82.000000 117.129166,82.000000 C 119.128610,82.000000 119.219403,82.350326 118.619372,87.750000 C 118.026489,93.085352 117.898795,114.493788 118.325614,137.000000 C 118.510951,146.772822 117.816225,151.000000 116.024751,151.000000 C 115.461138,151.000000 114.953658,150.662500 114.897018,150.250000" fill="none" stroke="black" stroke-width="5"/>
  <path d="M 103.903549,148.823324 C 103.160049,138.622429 103.253633,81.965721 104.014173,81.850000 C 104.556378,81.767500 105.538345,81.655000 106.196323,81.600000 C 107.106422,81.523925 107.350401,89.634610 107.216076,115.500000 C 107.062797,145.015203 106.839043,149.542648 105.519753,149.823324 C 104.683889,150.001152 103.956597,149.551152 103.903549,148.823324" fill="none" stroke="black" stroke-width="5"/>
  <path d="M 94.689271,141.845983 C 93.021725,140.912778 92.906973,138.787110 93.062102,111.704388 C 93.153897,95.678717 93.450622,81.989273 93.721490,81.283402 C 94.354252,79.634451 96.977587,79.608294 97.071523,81.250000 C 97.262683,84.590899 96.937543,142.395791 96.726403,142.606931 C 96.592718,142.740616 95.676008,142.398189 94.689271,141.845983" fill="none" stroke="black" stroke-width="5"/>
  <path d="M 125.687500,142.354167 C 125.309375,141.976042 125.000000,128.746767 125.000000,112.955778 C 125.000000,89.038794 125.243143,84.043098 126.456195,83.036355 C 128.440767,81.389307 130.118202,82.642027 129.502405,85.311285 C 129.224690,86.515078 128.826671,99.857122 128.617919,114.960272 C 128.269497,140.168447 127.808765,144.475431 125.687500,142.354167" fill="none" stroke="black" stroke-width="5"/>
  <path d="M 135.646133,137.312800 C 135.268173,136.934840 135.254055,124.897340 135.614761,110.562800 C 136.215872,86.674446 136.983127,80.310030 138.972809,82.707618 C 139.334474,83.143428 139.440706,95.762500 139.208881,110.750000 C 138.794844,137.517473 138.446672,140.113339 135.646133,137.312800" fill="none" stroke="black" stroke-width="5"/>
  <path d="M 146.482223,133.814269 C 146.196867,133.070644 146.084130,121.445722 146.231697,107.981111 C 146.461575,87.006036 146.714821,83.500000 148.000000,83.500000 C 149.299262,83.500000 149.473549,86.910217 149.302350,108.982550 C 149.172303,125.749290 148.744944,134.585019 148.052876,134.815708 C 147.474373,135.008542 146.767579,134.557895 146.482223,133.814269" fill="none" stroke="black" stroke-width="5"/>
  <path d="M 83.000000,107.573324 C 83.000000,92.957996 83.188196,81.000000 83.418213,81.000000 C 83.648229,81.000000 84.564047,80.720785 85.453363,80.379523 C 86.922157,79.815894 87.044175,82.219693 86.785150,106.616193 C 86.523414,131.268095 86.356307,133.500983 84.750000,133.809994 C 83.118791,134.123796 83.000000,132.342834 83.000000,107.573324" fill="none" stroke="black" stroke-width="5"/>
  <path d="M 157.045743,129.555117 C 156.347521,128.713811 156.038735,127.341442 156.359551,126.505408 C 156.680367,125.669375 157.008488,116.016536 157.088709,105.054657 C 157.233303,85.296310 157.445333,84.000000 160.532498,84.000000 C 161.345967,84.000000 160.053023,129.346977 159.215680,130.184320 C 158.681756,130.718244 157.798498,130.462132 157.045743,129.555117" fill="none" stroke="black" stroke-width="5"/>
  <path d="M 72.390192,123.822327 C 71.149649,121.815087 71.747923,83.008661 73.043477,81.447613 C 73.649989,80.716811 74.827646,80.380367 75.660493,80.699960 C 76.906884,81.178245 77.052323,82.500204 76.482644,88.172822 C 76.101981,91.963303 75.690415,101.661651 75.568054,109.724706 C 75.355534,123.728780 74.547575,127.313046 72.390192,123.822327" fill="none" stroke="black" stroke-width="5"/>
  <path d="M 167.420293,121.538445 C 166.540866,118.034527 167.909384,84.723423 168.977391,83.637132 C 170.622688,81.963669 172.188746,84.178510 171.612933,87.364521 C 171.044183,90.511449 170.743173,117.786219 171.236630,121.461685 C 171.656578,124.589630 168.203523,124.659082 167.420293,121.538445" fill="none" stroke="black" stroke-width="5"/>
  <path d="M 62.281322,115.881322 C 60.925404,114.525404 61.739194,81.049559 63.165540,79.508359 C 65.164128,77.348839 65.682895,81.716196 65.339778,97.812663 C 65.144136,106.990699 64.987651,115.062500 64.992033,115.750000 C 65.001920,117.301210 63.761312,117.361312 62.281322,115.881322" fill="none" stroke="black" stroke-width="5"/>
  <path d="M 177.666667,116.333333 C 175.948651,114.615317 177.722893,85.000000 179.543834,85.000000 C 181.468745,85.000000 181.609431,86.467566 181.197476,102.250000 C 180.914006,113.110070 180.485567,117.000000 179.572902,117.000000 C 178.891139,117.000000 178.033333,116.700000 177.666667,116.333333" fill="none" stroke="black" stroke-width="5"/>
  <path d="M 188.613187,112.183141 C 188.299635,111.675803 188.258397,106.016179 188.521546,99.606199 C 188.784696,93.196218 189.000000,87.512559 189.000000,86.975844 C 189.000000,85.528884 191.980015,85.790789 192.119406,87.250000 C 192.185079,87.937500 192.119623,91.200000 191.973948,94.500000 C 191.828274,97.800000 191.662041,103.160332 191.604543,106.411850 C 191.508012,111.870623 190.099515,114.588069 188.613187,112.183141" fill="none" stroke="black" stroke-width="5"/>
  <path d="M 51.666667,107.333333 C 51.300000,106.966667 51.000000,100.946767 51.000000,93.955778 C 51.000000,83.603999 51.292542,81.002101 52.576215,79.936747 C 55.146753,77.803390 55.520768,79.868117 55.195884,94.398476 C 54.967337,104.620225 54.573902,108.000000 53.612551,108.000000 C 52.908981,108.000000 52.033333,107.700000 51.666667,107.333333" fill="none" stroke="black" stroke-width="5"/>
  <path d="M 198.684517,103.750000 C 197.849272,100.219461 198.689602,85.603466 199.748118,85.250627 C 202.016271,84.494576 203.057964,87.807522 202.228773,93.139969 C 201.770358,96.087986 201.680873,99.625000 202.029917,101.000000 C 202.378961,102.375000 202.466875,104.062500 202.225282,104.750000 C 201.504187,106.802017 199.256366,106.167177 198.684517,103.750000" fill="none" stroke="black" stroke-width="5"/>
  <path d="M 209.803261,100.305368 C 209.592495,99.862416 209.447338,96.575000 209.480691,93.000000 C 209.534418,87.241166 209.763860,86.500000 211.492888,86.500000 C 213.242212,86.500000 213.444444,87.224519 213.444444,93.491654 C 213.444444,99.157452 213.135533,100.542800 211.815459,100.797023 C 210.919517,100.969566 210.014028,100.748321 209.803261,100.305368" fill="none" stroke="black" stroke-width="5"/>
  <path d="M 40.493475,98.833158 C 40.214308,98.099921 40.101571,93.450000 40.242949,88.500000 C 40.449135,81.280911 40.796819,79.500000 42.000000,79.500000 C 43.232493,79.500000 43.500000,81.268519 43.500000,89.416667 C 43.500000,96.458885 43.137827,99.454058 42.250526,99.749825 C 41.563315,99.978895 40.772642,99.566395 40.493475,98.833158" fill="none" stroke="black" stroke-width="5"/>
  <path d="M 219.354734,94.482040 C 218.698909,92.772986 220.795209,87.000000 222.071630,87.000000 C 223.861919,87.000000 224.710191,90.307532 223.644199,93.131668 C 222.472907,96.234776 220.290917,96.921691 219.354734,94.482040" fill="none" stroke="black" stroke-width="5"/>
  <path d="M 30.067704,90.126507 C 28.727027,87.621429 28.703339,83.910476 30.006153,80.483817 C 31.737276,75.930617 33.352941,78.110807 33.352941,85.000000 C 33.352941,91.622006 31.998890,93.734960 30.067704,90.126507" fill="none" stroke="black" stroke-width="5"/>
</svg>
