<?xml version="1.0" encoding="utf-8" ?>
<svg baseProfile="full" height="221" version="1.1" width="257" xmlns="http://www.w3.org/2000/svg" xmlns:ev="http://www.w3.org/2001/xml-events" xmlns:xlink="http://www.w3.org/1999/xlink"><defs /><rect fill="white" height="221" width="257" x="0" y="0" /><path d="M 85,147 L 88,146 L 100,157 L 97,159 L 87,153 Z" fill="black" stroke="black" stroke-width="1" /><path d="M 83,133 L 86,131 L 110,151 L 106,153 Z" fill="black" stroke="black" stroke-width="1" /><path d="M 81,119 L 87,118 L 118,144 Z" fill="black" stroke="black" stroke-width="1" /><path d="M 79,103 L 128,137 Z" fill="black" stroke="black" stroke-width="1" /><path d="M 173,93 L 177,91 L 180,94 L 183,94 L 184,98 L 181,100 Z" fill="black" stroke="black" stroke-width="1" /><path d="M 77,87 L 134,128 Z" fill="black" stroke="black" stroke-width="1" /><path d="M 147,86 L 153,85 L 176,104 L 171,105 Z" fill="black" stroke="black" stroke-width="1" /><path d="M 115,74 L 165,111 Z" fill="black" stroke="black" stroke-width="1" /><path d="M 74,72 L 145,123 Z" fill="black" stroke="black" stroke-width="1" /><path d="M 83,65 L 155,117 Z" fill="black" stroke="black" stroke-width="1" /><path d="M 0,0 L 0,220 L 256,220 L 256,0 Z" fill="none" stroke="black" stroke-width="1" /></svg>