<?xml version="1.0" encoding="utf-8" ?>
<svg xmlns="http://www.w3.org/2000/svg" xmlns:ev="http://www.w3.org/2001/xml-events" xmlns:xlink="http://www.w3.org/1999/xlink" baseProfile="full" height="217" version="1.1" width="258">
  <defs/>
  <path d="M 99.428171,197.673414 C 99.056785,196.705595 98.921015,195.738319 99.126461,195.523910 C 110.992112,183.140633 212.498525,82.000000 213.060936,82.000000 C 213.512502,82.000000 214.152231,82.437298 214.482554,82.971772 C 214.812878,83.506247 189.212705,109.928691 157.593281,141.688314 C 112.155421,187.327644 99.961863,199.064192 99.428171,197.673414" fill="none" stroke="black" stroke-width="5"/>
  <path d="M 68.495278,195.992360 C 68.152763,195.438159 96.420937,166.300659 131.313443,131.242360 C 166.205949,96.184062 197.622132,64.410943 201.127182,60.635429 C 218.604320,41.809685 218.959653,41.507666 220.568626,44.111039 C 220.947169,44.723535 219.724379,46.630584 217.843547,48.361039 C 215.967091,50.087468 208.173309,58.025000 200.524032,66.000000 C 179.131572,88.303398 70.723699,197.000000 69.872005,197.000000 C 69.457321,197.000000 68.837794,196.546562 68.495278,195.992360" fill="none" stroke="black" stroke-width="5"/>
  <path d="M 57.448918,191.917347 C 57.073913,191.310577 62.965900,184.607399 70.853426,176.667347 C 89.773244,157.621533 145.307917,101.533833 178.374905,68.075142 C 196.098794,50.141301 205.743477,41.071321 206.699620,41.438228 C 207.914150,41.904287 207.853310,42.362719 206.324715,44.263118 C 204.323952,46.750532 158.459056,93.352314 114.500000,137.563128 C 99.100000,153.051326 80.581408,171.860703 73.347573,179.361744 C 66.113739,186.862785 59.727796,193.000000 59.156590,193.000000 C 58.585384,193.000000 57.816932,192.512806 57.448918,191.917347" fill="none" stroke="black" stroke-width="5"/>
</svg>
