<?xml version="1.0" encoding="utf-8" ?>
<svg xmlns="http://www.w3.org/2000/svg" xmlns:ev="http://www.w3.org/2001/xml-events" xmlns:xlink="http://www.w3.org/1999/xlink" baseProfile="full" height="217" version="1.1" width="259">
  <defs/>
  <path d="M 105.484921,204.975601 C 105.136708,204.412182 105.148648,202.599695 105.511453,200.947854 C 106.077304,198.371550 106.778721,165.398963 107.014682,130.283266 C 107.082498,120.190862 108.190988,116.684872 109.891045,121.185755 C 110.371816,122.458590 110.574366,123.824695 110.341157,124.221543 C 110.107948,124.618392 109.905294,138.168774 109.890816,154.333502 C 109.876338,170.498230 109.536678,187.155826 109.136016,191.350382 C 108.735354,195.544939 108.714336,199.544558 109.089310,200.238424 C 109.915990,201.768145 108.448415,206.000000 107.091241,206.000000 C 106.555977,206.000000 105.833133,205.539020 105.484921,204.975601" fill="none" stroke="black" stroke-width="5"/>
  <path d="M 117.519886,195.912417 C 117.219762,195.130307 117.092510,178.292559 117.237103,158.495200 C 117.465067,127.282976 117.699317,122.500000 119.000000,122.500000 C 120.307043,122.500000 120.491036,127.165662 120.430318,158.769682 C 120.380613,184.641178 120.031648,195.368352 119.213101,196.186899 C 118.349720,197.050280 117.930443,196.982312 117.519886,195.912417" fill="none" stroke="black" stroke-width="5"/>
  <path d="M 95.378948,190.545140 C 94.533824,188.342783 95.443316,119.223350 96.329074,118.337592 C 98.205990,116.460676 99.180419,120.484696 99.067080,129.644513 C 99.000010,135.065031 98.844979,151.162314 98.722567,165.416254 C 98.553585,185.092944 98.199178,191.432881 97.250526,191.749412 C 96.563315,191.978709 95.721105,191.436787 95.378948,190.545140" fill="none" stroke="black" stroke-width="5"/>
  <path d="M 127.944699,185.250000 C 127.414582,178.060422 128.267069,123.332931 128.919339,122.680661 C 129.417857,122.182143 130.250604,122.036848 130.769887,122.357782 C 131.668514,122.913164 131.384087,181.936468 130.469225,184.750000 C 130.032081,186.094377 128.036107,186.489694 127.944699,185.250000" fill="none" stroke="black" stroke-width="5"/>
  <path d="M 138.926879,176.750000 C 138.584837,170.902841 139.207951,120.472545 139.630691,119.788537 C 139.931742,119.301427 140.799347,119.418510 141.558704,120.048720 C 142.692837,120.989967 142.854371,126.042680 142.463402,148.347278 C 142.201630,163.281275 141.990276,176.062500 141.993726,176.750000 C 141.997177,177.437500 141.325000,178.000000 140.500000,178.000000 C 139.675000,178.000000 138.967095,177.437500 138.926879,176.750000" fill="none" stroke="black" stroke-width="5"/>
  <path d="M 84.968304,170.823324 C 84.828968,143.025603 85.160217,113.549780 85.620311,112.805333 C 85.930040,112.304181 86.826016,112.440643 87.635207,113.112212 C 88.866192,114.133838 89.046389,119.144944 88.796180,145.397736 C 88.522977,174.063087 88.364238,176.500025 86.750000,176.810290 C 85.234927,177.101494 84.995745,176.297782 84.968304,170.823324" fill="none" stroke="black" stroke-width="5"/>
  <path d="M 149.426889,167.881704 C 148.219504,165.928113 148.938769,118.778705 150.199124,117.260070 C 150.796357,116.540449 151.550166,116.216833 151.874257,116.540924 C 152.858712,117.525379 152.111980,168.462673 151.108188,168.797271 C 150.599490,168.966837 149.842905,168.554832 149.426889,167.881704" fill="none" stroke="black" stroke-width="5"/>
  <path d="M 73.655979,161.252380 C 73.364208,160.780284 73.209751,149.205309 73.312743,135.530214 C 73.446852,117.723350 73.828770,110.556853 74.658359,110.280416 C 75.295457,110.068122 76.128105,110.398262 76.508689,111.014060 C 77.048726,111.887857 77.220139,128.237439 76.791616,138.000000 C 76.755404,138.825000 76.846276,144.450000 76.993555,150.500000 C 77.218492,159.740077 77.015357,161.548857 75.723904,161.805368 C 74.878317,161.973321 73.947751,161.724476 73.655979,161.252380" fill="none" stroke="black" stroke-width="5"/>
  <path d="M 159.380002,156.547887 C 159.073527,155.749225 159.139225,154.583746 159.525998,153.957934 C 159.912771,153.332122 160.157035,144.607779 160.068807,134.570505 C 159.937806,119.667062 160.175500,116.099238 161.365169,115.111900 C 162.365941,114.281333 163.026692,114.234172 163.476044,114.961238 C 164.376024,116.417436 163.797303,152.962234 162.830116,155.750000 C 161.943380,158.305878 160.208562,158.707079 159.380002,156.547887" fill="none" stroke="black" stroke-width="5"/>
  <path d="M 171.631911,149.213437 C 170.866822,147.975496 170.723738,140.772331 171.141003,124.500000 C 171.438925,112.881776 171.755190,110.500000 173.000000,110.500000 C 174.279601,110.500000 174.502489,113.265415 174.516939,129.320979 C 174.528856,142.561931 174.184652,148.431789 173.355967,149.119537 C 172.691945,149.670626 171.939788,149.711592 171.631911,149.213437" fill="none" stroke="black" stroke-width="5"/>
  <path d="M 64.160081,147.760081 C 62.382177,145.982177 62.549483,108.618785 64.342009,107.131121 C 65.080114,106.518548 65.980114,106.313448 66.342009,106.675343 C 67.316678,107.650012 67.141645,147.794425 66.160081,148.401064 C 65.698126,148.686568 64.798126,148.398126 64.160081,147.760081" fill="none" stroke="black" stroke-width="5"/>
  <path d="M 182.166958,140.701172 C 181.393352,139.769034 181.097204,134.616117 181.259339,124.908790 C 181.460339,112.874604 181.747204,110.500000 183.000000,110.500000 C 184.253912,110.500000 184.545562,112.948129 184.777720,125.422280 C 185.050274,140.066988 184.468121,143.473904 182.166958,140.701172" fill="none" stroke="black" stroke-width="5"/>
  <path d="M 51.881579,133.750000 C 51.816447,133.062500 51.797940,132.218023 51.840450,131.873385 C 51.882961,131.528747 51.985860,125.923772 52.069115,119.417884 C 52.232380,106.659528 52.514903,105.000000 54.523655,105.000000 C 56.296883,105.000000 56.886753,107.029278 55.894326,109.715397 C 55.444144,110.933865 55.174576,117.121365 55.295286,123.465397 C 55.493556,133.885773 55.344997,135.000000 53.757378,135.000000 C 52.790820,135.000000 51.946711,134.437500 51.881579,133.750000" fill="none" stroke="black" stroke-width="5"/>
  <path d="M 193.069069,130.583224 C 192.242076,129.586757 191.939340,126.211275 192.146795,120.299919 C 192.316649,115.459963 192.180942,111.050000 191.845224,110.500000 C 190.911553,108.970388 192.831660,104.777046 194.248756,105.250899 C 195.126594,105.544434 195.556591,108.777527 195.689629,116.084647 C 195.793925,121.813091 196.018925,127.579456 196.189629,128.898791 C 196.557023,131.738301 194.810230,132.681194 193.069069,130.583224" fill="none" stroke="black" stroke-width="5"/>
  <path d="M 203.177984,122.310765 C 201.857168,119.812723 202.315268,102.728244 203.715582,102.261473 C 205.644357,101.618548 206.111227,103.758701 206.209859,113.695345 C 206.305428,123.323551 205.269677,126.266758 203.177984,122.310765" fill="none" stroke="black" stroke-width="5"/>
  <path d="M 41.457395,120.749569 C 41.158383,119.970357 41.045647,115.545436 41.206869,110.916411 C 41.439673,104.232104 41.808701,102.500000 43.000000,102.500000 C 44.227139,102.500000 44.500000,104.212963 44.500000,111.916667 C 44.500000,118.558997 44.131880,121.456040 43.250526,121.749825 C 42.563315,121.978895 41.756406,121.528780 41.457395,120.749569" fill="none" stroke="black" stroke-width="5"/>
  <path d="M 213.790433,114.250000 C 213.610253,113.837500 213.471195,110.125000 213.481416,106.000000 C 213.496263,100.008260 213.801652,98.500000 215.000000,98.500000 C 216.137933,98.500000 216.620689,100.147067 217.000000,105.323603 C 217.275000,109.076585 217.140139,112.789085 216.700310,113.573603 C 215.838212,115.111317 214.320733,115.464052 213.790433,114.250000" fill="none" stroke="black" stroke-width="5"/>
  <path d="M 29.642736,107.230952 C 29.343680,106.747070 29.270719,105.034654 29.480599,103.425583 C 29.690480,101.816512 29.893205,100.162500 29.931100,99.750000 C 29.968995,99.337500 30.675000,99.000000 31.500000,99.000000 C 33.143292,99.000000 33.132575,98.971131 33.349363,103.981526 C 33.458512,106.504187 33.043702,107.552242 31.843237,107.786894 C 30.932017,107.965008 29.941791,107.714833 29.642736,107.230952" fill="none" stroke="black" stroke-width="5"/>
  <path d="M 224.212500,104.812500 C 222.747014,103.347014 222.691809,101.940804 223.967987,98.584200 C 225.538978,94.452181 228.172344,96.317131 227.801308,101.298957 C 227.482658,105.577408 226.216759,106.816759 224.212500,104.812500" fill="none" stroke="black" stroke-width="5"/>
</svg>
