<?xml version="1.0" encoding="utf-8" ?>
<svg baseProfile="full" height="217" version="1.1" width="260" xmlns="http://www.w3.org/2000/svg" xmlns:ev="http://www.w3.org/2001/xml-events" xmlns:xlink="http://www.w3.org/1999/xlink"><defs /><rect fill="white" height="217" width="260" x="0" y="0" /><circle cx="160.0" cy="192.125" fill="black" r="3.1250998973846436" stroke="black" stroke-width="1" /><path d="M 161,181 L 152,188 L 148,186 L 157,179 Z" fill="black" stroke="black" stroke-width="1" /><path d="M 159,170 L 141,183 L 138,181 L 151,170 Z" fill="black" stroke="black" stroke-width="1" /><path d="M 156,160 L 136,174 L 128,174 L 146,161 Z" fill="black" stroke="black" stroke-width="1" /><path d="M 153,148 L 117,168 Z" fill="black" stroke="black" stroke-width="1" /><path d="M 150,138 L 107,161 Z" fill="black" stroke="black" stroke-width="1" /><path d="M 147,127 L 98,153 Z" fill="black" stroke="black" stroke-width="1" /><path d="M 144,117 L 90,147 Z" fill="black" stroke="black" stroke-width="1" /><path d="M 145,104 L 82,139 Z" fill="black" stroke="black" stroke-width="1" /><path d="M 160,84 L 69,133 Z" fill="black" stroke="black" stroke-width="1" /><path d="M 171,66 L 58,128 Z" fill="black" stroke="black" stroke-width="1" /><path d="M 187,44 L 48,121 Z" fill="black" stroke="black" stroke-width="1" /><path d="M 201,24 L 38,115 Z" fill="black" stroke="black" stroke-width="1" /><path d="M 211,7 L 30,109 Z" fill="black" stroke="black" stroke-width="1" /><path d="M 0,0 L 0,216 L 259,216 L 259,0 Z" fill="none" stroke="black" stroke-width="1" /></svg>