<?xml version="1.0" encoding="utf-8" ?>
<svg xmlns="http://www.w3.org/2000/svg" xmlns:ev="http://www.w3.org/2001/xml-events" xmlns:xlink="http://www.w3.org/1999/xlink" baseProfile="full" height="219" version="1.1" width="265">
  <defs/>
  <path d="M 238.400505,191.572415 C 234.668221,189.947641 231.000000,184.369671 231.000000,180.319057 C 231.000000,176.161178 235.328313,172.400364 241.051785,171.585194 C 245.322610,170.976919 245.826356,171.159689 249.212898,174.546232 C 251.198029,176.531362 253.083965,179.198408 253.403867,180.472999 C 254.124971,183.346104 251.463763,190.000000 249.593569,190.000000 C 248.834794,190.000000 247.954956,190.675000 247.638374,191.500000 C 246.927498,193.352512 242.568084,193.386685 238.400505,191.572415" fill="none" stroke="black" stroke-width="5"/>
  <path d="M 49.817025,189.250000 C 44.926267,183.990417 45.743123,175.364007 51.488389,171.599565 C 55.204767,169.164500 62.193060,169.507388 64.744707,172.250000 C 69.134217,176.968021 68.684948,183.966190 63.621240,189.750000 C 60.602578,193.197942 53.240146,192.931269 49.817025,189.250000" fill="none" stroke="black" stroke-width="5"/>
  <path d="M 145.076923,188.923077 C 143.384615,187.230769 141.993855,184.868269 141.986345,183.673077 C 141.978835,182.477885 141.719305,180.556154 141.409611,179.402565 C 141.007927,177.906321 141.833922,176.258189 144.291342,173.652565 C 147.263040,170.501647 148.353579,170.000000 152.231713,170.000000 C 157.426157,170.000000 161.433874,173.145959 162.516017,178.072925 C 164.975996,189.273136 152.924876,196.771030 145.076923,188.923077" fill="none" stroke="black" stroke-width="5"/>
  <path d="M 175.250000,190.010960 C 172.733608,188.476686 171.965961,187.292471 171.849200,184.764698 C 171.344325,173.834567 173.239288,171.500000 182.616131,171.500000 C 188.316622,171.500000 189.428984,171.811550 191.101038,173.876449 C 195.029212,178.727539 194.801023,183.706156 190.411398,188.922928 C 188.200759,191.550123 187.140746,191.999453 183.161106,191.996262 C 180.280178,191.993952 177.258754,191.235722 175.250000,190.010960" fill="none" stroke="black" stroke-width="5"/>
  <path d="M 20.718050,190.155421 C 18.233916,189.173997 15.011563,183.995227 15.021331,181.000000 C 15.041240,174.894914 20.434081,170.201157 27.575686,170.073088 C 32.289527,169.988556 34.983493,172.291655 37.054814,178.176891 C 38.271249,181.633142 38.182520,182.071922 35.576186,185.489002 C 31.746493,190.509989 26.102322,192.282625 20.718050,190.155421" fill="none" stroke="black" stroke-width="5"/>
  <path d="M 83.250000,190.276604 C 80.880476,189.982549 80.000000,189.364605 80.000000,187.995659 C 80.000000,186.962965 79.550000,185.839919 79.000000,185.500000 C 78.450000,185.160081 78.000000,182.511965 78.000000,179.615297 C 78.000000,173.379529 80.516023,170.277353 86.340087,169.332237 C 96.109680,167.746851 103.366143,177.463947 98.019694,184.972343 C 95.991382,187.820844 90.261851,191.126251 87.848871,190.839963 C 87.106992,190.751943 85.037500,190.498431 83.250000,190.276604" fill="none" stroke="black" stroke-width="5"/>
  <path d="M 113.500000,189.159408 C 111.850000,188.151195 109.873226,186.149864 109.107169,184.712006 C 107.883162,182.414595 107.943767,181.472784 109.607169,176.941853 C 111.258527,172.443733 112.010291,171.608630 115.500000,170.395755 C 120.619919,168.616288 124.011052,169.358323 127.526125,173.027268 C 129.746351,175.344685 130.333333,176.891621 130.333333,180.425397 C 130.333333,185.419578 129.199630,187.255062 124.741137,189.479251 C 120.701740,191.494368 117.156199,191.393487 113.500000,189.159408" fill="none" stroke="black" stroke-width="5"/>
  <path d="M 206.809445,189.186749 C 202.090992,186.327503 200.945043,181.769115 203.442225,175.792518 C 205.200439,171.584520 206.541633,170.435861 210.746538,169.536778 C 215.432375,168.534863 220.630977,170.553909 222.376970,174.053835 C 225.345428,180.004251 225.282563,182.309856 222.029410,186.800703 C 219.167611,190.751302 218.706514,190.994585 214.243728,190.908574 C 211.634677,190.858290 208.289250,190.083469 206.809445,189.186749" fill="none" stroke="black" stroke-width="5"/>
  <path d="M 222.641742,164.025211 C 217.886643,158.761886 216.998324,155.229526 219.849246,152.920989 C 221.032161,151.963123 222.000000,150.508930 222.000000,149.689448 C 222.000000,148.727410 223.777657,147.773028 227.017058,146.995908 C 232.808685,145.606518 235.034388,146.556394 239.400726,152.280958 C 241.711144,155.310073 241.832604,155.935469 240.777896,159.372021 C 239.199146,164.516059 234.863082,168.000000 230.039637,168.000000 C 226.871224,168.000000 225.630442,167.333345 222.641742,164.025211" fill="none" stroke="black" stroke-width="5"/>
  <path d="M 41.533333,159.466667 C 38.659922,156.593256 38.000000,155.181949 38.000000,151.910296 C 38.000000,143.348524 48.317425,138.953786 55.520119,144.447548 C 59.129328,147.200426 60.596511,151.968701 58.869186,155.331862 C 54.509245,163.820819 47.547858,165.481191 41.533333,159.466667" fill="none" stroke="black" stroke-width="5"/>
  <path d="M 209.750000,140.189635 C 207.523790,140.005385 206.000000,139.357261 206.000000,138.594622 C 206.000000,137.888066 205.100000,136.495486 204.000000,135.500000 C 200.954948,132.744265 201.213607,125.087406 204.454608,122.042644 C 208.099865,118.618102 216.284474,118.940300 220.168291,122.661233 C 221.712033,124.140232 223.253430,126.833976 223.593617,128.647332 C 224.102056,131.357543 223.661066,132.640131 221.115853,135.853724 C 217.866269,139.956658 215.917508,140.700083 209.750000,140.189635" fill="none" stroke="black" stroke-width="5"/>
  <path d="M 57.977959,135.972171 C 55.213796,132.482131 54.879593,131.447365 55.474909,128.222171 C 56.358991,123.432549 59.371692,120.246274 64.261199,118.929666 C 68.420322,117.809731 68.804050,117.961758 74.250000,122.887080 C 77.182303,125.539057 77.837189,129.667826 76.064908,134.329278 C 74.888055,137.424638 69.831307,140.000000 64.930391,140.000000 C 61.731347,140.000000 60.690444,139.396962 57.977959,135.972171" fill="none" stroke="black" stroke-width="5"/>
  <path d="M 192.250000,116.968838 C 191.012500,116.471424 190.000000,115.430048 190.000000,114.654669 C 190.000000,113.879290 189.353925,112.708695 188.564279,112.053347 C 186.219939,110.107718 185.575171,105.126912 187.405793,103.104097 C 188.282607,102.135229 189.000000,100.827008 189.000000,100.196939 C 189.000000,98.481714 194.447939,95.999344 198.200340,96.004778 C 200.557451,96.008190 202.559376,96.982581 205.208643,99.415907 C 211.175026,104.895970 211.170564,108.838626 205.190722,115.250000 C 203.175901,117.410220 201.754463,117.986406 198.562909,117.936614 C 196.328309,117.901751 193.487500,117.466252 192.250000,116.968838" fill="none" stroke="black" stroke-width="5"/>
  <path d="M 78.878356,113.714037 C 73.491721,109.164902 72.235579,101.857650 76.250000,98.424314 C 79.538577,95.611757 82.704076,94.000000 84.939378,94.000000 C 87.690117,94.000000 92.000000,96.098761 92.000000,97.438274 C 92.000000,98.052758 92.935205,99.356266 94.078234,100.334958 C 95.824577,101.830224 96.045703,102.783982 95.462881,106.307199 C 94.569808,111.705911 94.602074,111.662431 89.748594,114.007378 C 84.506488,116.540088 82.149367,116.476479 78.878356,113.714037" fill="none" stroke="black" stroke-width="5"/>
  <path d="M 173.291605,89.491695 C 171.108063,87.962282 168.000000,82.680944 168.000000,80.500000 C 168.000000,78.319056 171.108063,73.037718 173.291605,71.508305 C 174.528065,70.642255 177.618010,70.000000 180.548192,70.000000 C 186.546561,70.000000 189.731311,72.569411 190.634944,78.137849 C 191.314030,82.322566 187.926543,88.697231 184.288732,90.080324 C 180.669425,91.456382 175.718225,91.191365 173.291605,89.491695" fill="none" stroke="black" stroke-width="5"/>
  <path d="M 97.727844,86.927196 C 93.902653,83.774151 93.426081,82.119597 94.621480,76.142598 C 95.397629,72.261855 102.992588,67.530340 106.879720,68.505948 C 110.507604,69.416488 116.000000,75.346528 116.000000,78.352947 C 116.000000,88.713945 105.737666,93.529568 97.727844,86.927196" fill="none" stroke="black" stroke-width="5"/>
  <path d="M 160.322929,66.333361 C 159.125540,66.084019 156.988040,64.362034 155.572929,62.506728 C 152.006995,57.831547 152.128482,53.006636 155.918914,48.765777 C 158.565512,45.804677 159.315091,45.519813 163.953526,45.712374 C 170.222114,45.972610 170.528310,46.155087 173.075949,51.148873 C 177.555096,59.928727 170.411587,68.434205 160.322929,66.333361" fill="none" stroke="black" stroke-width="5"/>
  <path d="M 116.250000,65.337719 C 115.562500,65.060307 115.000000,63.745833 115.000000,62.416667 C 115.000000,61.021261 114.413144,60.000000 113.611291,60.000000 C 112.815746,60.000000 111.941930,58.503998 111.565523,56.497577 C 110.736243,52.077134 113.369360,46.000000 116.113941,46.000000 C 117.151274,46.000000 118.000000,45.550000 118.000000,45.000000 C 118.000000,43.585848 123.605380,43.756842 126.195265,45.250000 C 130.841077,47.928471 132.967761,51.286831 132.369458,55.000000 C 131.478953,60.526627 129.892174,63.503093 127.145317,64.799402 C 124.606843,65.997371 118.618088,66.293264 116.250000,65.337719" fill="none" stroke="black" stroke-width="5"/>
  <path d="M 138.720007,37.407624 C 134.969875,34.952467 134.945319,34.892922 135.611589,29.870331 C 136.582686,22.549848 139.597044,19.807832 146.241281,20.201016 C 150.678476,20.463594 151.649937,20.941230 154.219419,24.123610 C 156.951799,27.507743 157.072618,28.016600 156.047575,31.823318 C 153.938143,39.657151 146.042699,42.201684 138.720007,37.407624" fill="none" stroke="black" stroke-width="5"/>
</svg>
