<?xml version="1.0" encoding="utf-8" ?>
<svg xmlns="http://www.w3.org/2000/svg" xmlns:ev="http://www.w3.org/2001/xml-events" xmlns:xlink="http://www.w3.org/1999/xlink" baseProfile="full" height="218" version="1.1" width="257">
  <defs/>
  <path d="M 126.481871,202.970667 C 126.058800,202.286123 123.740674,201.967555 120.640230,202.167881 C 115.536948,202.497613 115.499407,202.478436 115.417506,199.500000 C 115.372134,197.850000 115.259634,195.953333 115.167506,195.285184 C 114.905824,193.387366 111.063948,191.767134 108.406859,192.434021 C 106.530739,192.904897 106.000000,193.702357 106.000000,196.050437 C 106.000000,197.707220 105.372167,199.303692 104.604815,199.598152 C 102.089646,200.563313 94.811843,197.996491 94.278258,195.956059 C 93.766475,193.998998 89.096499,192.531092 85.411667,193.169038 C 83.714957,193.462785 83.537389,192.965886 83.832511,188.750000 L 84.165022,184.000000 L 79.082511,184.000000 C 75.231390,184.000000 74.000000,184.363420 74.000000,185.500000 C 74.000000,187.307530 72.936271,187.383716 69.508063,185.821720 C 66.342866,184.379560 66.609259,181.798425 70.005251,181.004352 C 72.030669,180.530755 72.558388,179.722965 72.810365,176.710507 C 73.115168,173.066496 73.056925,173.000000 69.560365,173.000000 C 66.073272,173.000000 66.000000,173.082320 66.000000,177.000000 C 66.000000,179.977329 65.596421,181.000000 64.421472,181.000000 C 62.645551,181.000000 55.000000,173.894393 55.000000,172.243891 C 55.000000,171.656439 56.800000,170.871688 59.000000,170.500000 C 62.869858,169.846192 63.000000,169.696922 63.000000,165.912102 C 63.000000,162.048966 62.952437,162.000000 59.200000,162.000000 C 54.851023,162.000000 53.000000,163.403195 53.000000,166.700000 C 53.000000,169.769407 52.482576,169.619217 48.865856,165.500000 C 47.175684,163.575000 45.164432,162.000000 44.396408,162.000000 C 43.628384,162.000000 43.000000,161.325000 43.000000,160.500000 C 43.000000,159.416667 44.111111,159.000000 47.000000,159.000000 C 50.893741,159.000000 51.000000,158.908349 51.000000,155.549904 L 51.000000,152.099808 L 45.250000,151.799904 C 40.706937,151.562950 39.588017,151.185147 39.919322,150.000000 C 40.149949,149.175000 40.534715,146.812500 40.774357,144.750000 C 41.178318,141.273285 41.022098,141.000000 38.630716,141.000000 C 35.726687,141.000000 33.624266,137.844547 32.486139,131.777809 L 31.800817,128.124728 L 36.150409,127.812364 C 40.422097,127.505595 40.505716,127.430203 40.819131,123.602962 L 41.138262,119.705924 L 35.448230,120.293188 L 29.758197,120.880451 L 30.411624,115.954682 C 30.899862,112.274161 30.662246,110.414156 29.471698,108.597150 C 27.797770,106.042413 28.232032,99.795759 30.261247,97.239864 C 30.830642,96.522684 31.055901,92.772732 30.784047,88.536674 C 30.516662,84.370240 30.732812,80.667188 31.275046,80.124954 C 32.935938,78.464062 35.000000,80.083756 35.000000,83.047972 C 35.000000,86.283166 36.498484,87.661111 38.347709,86.126390 C 40.200219,84.588944 39.179477,78.166421 36.887684,76.939890 C 35.849458,76.384249 35.000000,75.414355 35.000000,74.784571 C 35.000000,72.922691 39.284267,64.000000 40.178257,64.000000 C 40.630216,64.000000 41.014312,62.987500 41.031803,61.750000 C 41.077099,58.545477 42.938727,56.510566 47.250000,54.953008 C 50.453485,53.795666 51.004635,53.153854 51.031803,50.549112 C 51.077392,46.178390 53.109764,44.000000 57.141927,44.000000 C 60.328817,44.000000 60.653630,43.694308 61.879999,39.540851 C 63.450520,34.221827 64.891141,32.863722 69.802404,32.072223 C 72.900744,31.572894 73.550937,31.036121 73.814299,28.760162 C 74.158855,25.782531 78.223219,22.000000 81.078155,22.000000 C 82.072795,22.000000 83.480089,21.212500 84.205474,20.250000 C 87.486728,15.896167 94.395450,14.519870 95.500000,18.000000 C 95.992323,19.551172 97.013034,20.000000 100.048336,20.000000 C 104.113487,20.000000 104.275174,19.796912 105.223257,13.500000 C 105.995757,8.369269 148.450817,8.893020 156.847552,14.136867 C 157.985838,14.847739 159.048301,16.345255 159.208582,17.464681 C 159.464828,19.254354 160.339810,19.536260 166.458311,19.800438 C 170.285383,19.965680 173.997883,20.583280 174.708311,21.172883 C 176.854571,22.954120 176.165922,24.848064 173.250000,25.183578 C 171.067713,25.434677 170.500000,26.016102 170.500000,28.000000 C 170.500000,30.167046 170.999431,30.541335 174.250000,30.810365 C 177.687723,31.094885 178.000000,30.907519 178.000000,28.560365 C 178.000000,25.018528 180.871585,25.212751 184.500000,29.000000 C 186.080800,30.650000 188.077491,32.002155 188.937091,32.004789 C 189.796691,32.007423 193.027232,34.636152 196.116072,37.846407 C 199.204911,41.056663 202.425927,43.949466 203.273885,44.274858 C 205.145280,44.992979 206.145799,56.789665 204.424589,57.842309 C 203.833113,58.204039 203.054208,59.301906 202.693689,60.282013 C 202.208018,61.602358 202.725288,62.325256 204.690326,63.072362 C 208.372010,64.472136 210.318326,63.887077 210.956155,61.188866 C 211.490026,58.930426 211.561696,58.951894 214.864092,62.359437 L 218.228184,65.830641 L 215.114092,67.441001 C 213.401341,68.326698 212.006891,69.377304 212.015313,69.775680 C 212.054888,71.647632 213.939158,73.117285 216.588367,73.342473 C 218.767197,73.527678 219.456961,74.067586 219.328995,75.487680 C 219.234942,76.531422 220.022442,78.484366 221.078995,79.827555 C 222.135548,81.170744 223.000000,83.784031 223.000000,85.634859 C 223.000000,88.885791 222.866248,89.000000 219.059017,89.000000 C 214.560078,89.000000 213.441777,90.088434 214.982620,92.967526 C 216.467045,95.741199 220.978280,96.790195 222.180848,94.641326 C 224.151551,91.119875 224.728289,93.418379 224.466385,103.750000 C 224.175423,115.227872 222.953754,125.705813 221.668119,127.750000 C 221.235735,128.437500 220.056669,129.000000 219.047972,129.000000 C 218.039275,129.000000 216.954956,129.675000 216.638374,130.500000 C 216.321791,131.325000 215.400204,132.000000 214.590402,132.000000 C 213.780599,132.000000 212.865016,132.409391 212.555773,132.909758 C 211.476767,134.655625 213.232384,137.000000 215.618806,137.000000 C 217.878568,137.000000 217.983635,137.250150 217.360532,141.146816 C 216.995826,143.427565 214.944004,148.179830 212.800929,151.707403 C 210.657853,155.234977 208.501710,159.180404 208.009498,160.475018 C 207.517287,161.769632 206.237186,163.107332 205.164830,163.447685 C 204.092474,163.788037 202.654679,165.419466 201.969729,167.073081 C 200.419653,170.815295 197.399937,173.000000 193.777494,173.000000 C 191.421877,173.000000 190.995169,173.417701 190.968197,175.750000 C 190.919975,179.919654 188.813520,182.000000 184.639757,182.000000 C 182.071084,182.000000 181.000000,182.441410 181.000000,183.500000 C 181.000000,184.325000 180.550000,185.000000 180.000000,185.000000 C 179.450000,185.000000 179.000000,185.666427 179.000000,186.480948 C 179.000000,187.295469 177.875000,188.244253 176.500000,188.589356 C 175.125000,188.934459 173.987642,189.730532 173.972538,190.358408 C 173.932373,192.028093 165.517079,196.000000 162.019677,196.000000 C 160.099955,196.000000 158.566458,195.278652 157.767927,194.000000 C 156.878719,192.576151 155.435900,192.000000 152.759453,192.000000 C 149.248950,192.000000 149.000000,192.198659 149.000000,195.000000 C 149.000000,198.589660 145.965266,201.935649 142.500000,202.166667 C 136.234540,202.584364 136.570724,202.881673 136.872805,197.190183 L 137.154628,191.880366 L 133.327314,192.571522 C 131.222291,192.951657 129.119472,193.481725 128.654383,193.749451 C 127.876014,194.197512 128.111726,198.594479 129.089976,201.875000 C 129.603220,203.596144 127.432132,204.508221 126.481871,202.970667" fill="none" stroke="black" stroke-width="5"/>
</svg>
