<?xml version="1.0" encoding="utf-8" ?>
<svg baseProfile="full" height="219" version="1.1" width="265" xmlns="http://www.w3.org/2000/svg" xmlns:ev="http://www.w3.org/2001/xml-events" xmlns:xlink="http://www.w3.org/1999/xlink"><defs /><rect fill="white" height="219" width="265" x="0" y="0" /><circle cx="241.5" cy="181.5" fill="none" r="6.5193023681640625" stroke="black" stroke-width="5" /><circle cx="213.06451416015625" cy="179.96774291992188" fill="none" r="7.139636516571045" stroke="black" stroke-width="5" /><circle cx="182.15516662597656" cy="180.6896514892578" fill="none" r="6.742887496948242" stroke="black" stroke-width="5" /><circle cx="151.64285278320312" cy="180.5" fill="none" r="6.640269756317139" stroke="black" stroke-width="5" /><circle cx="119.25" cy="179.5" fill="none" r="6.731555938720703" stroke="black" stroke-width="5" /><circle cx="87.58654022216797" cy="179.51922607421875" fill="none" r="6.582284927368164" stroke="black" stroke-width="5" /><circle cx="56.5" cy="180.5" fill="none" r="6.96429443359375" stroke="black" stroke-width="5" /><circle cx="26.276119232177734" cy="179.91790771484375" fill="none" r="6.992161273956299" stroke="black" stroke-width="5" /><circle cx="229.10345458984375" cy="156.48275756835938" fill="none" r="6.8483734130859375" stroke="black" stroke-width="5" /><circle cx="47.94117736816406" cy="151.8235321044922" fill="none" r="6.57808780670166" stroke="black" stroke-width="5" /><circle cx="212.3163299560547" cy="129.19387817382812" fill="none" r="6.686581611633301" stroke="black" stroke-width="5" /><circle cx="66.0" cy="129.0" fill="none" r="6.708303928375244" stroke="black" stroke-width="5" /><circle cx="197.14035034179688" cy="106.45613861083984" fill="none" r="6.803069114685059" stroke="black" stroke-width="5" /><circle cx="84.22222137451172" cy="104.77777862548828" fill="none" r="7.007152080535889" stroke="black" stroke-width="5" /><path d="M 176,74 L 173,82 L 182,86 L 185,76 Z" fill="none" stroke="black" stroke-width="5" /><circle cx="104.5" cy="79.5" fill="none" r="7.106435298919678" stroke="black" stroke-width="5" /><circle cx="163.5" cy="55.5" fill="none" r="6.5193023681640625" stroke="black" stroke-width="5" /><circle cx="121.88888549804688" cy="55.11111068725586" fill="none" r="6.559423446655273" stroke="black" stroke-width="5" /><circle cx="145.31967163085938" cy="29.38524627685547" fill="none" r="6.522806167602539" stroke="black" stroke-width="5" /><path d="M 0,0 L 0,218 L 264,218 L 264,0 Z" fill="none" stroke="black" stroke-width="5" /></svg>