<?xml version="1.0" encoding="utf-8" ?>
<svg baseProfile="full" height="219" version="1.1" width="258" xmlns="http://www.w3.org/2000/svg" xmlns:ev="http://www.w3.org/2001/xml-events" xmlns:xlink="http://www.w3.org/1999/xlink"><defs /><rect fill="white" height="219" width="258" x="0" y="0" /><path d="M 118,180 L 115,182 L 114,189 L 121,188 Z" fill="none" stroke="black" stroke-width="5" /><path d="M 161,171 L 159,170 L 157,172 L 155,180 L 163,180 Z" fill="none" stroke="black" stroke-width="5" /><path d="M 81,167 L 77,177 L 87,178 Z" fill="none" stroke="black" stroke-width="5" /><path d="M 182,141 L 178,152 L 188,152 L 184,141 Z" fill="none" stroke="black" stroke-width="5" /><path d="M 55,140 L 51,149 L 61,150 L 58,142 Z" fill="none" stroke="black" stroke-width="5" /><path d="M 191,105 L 187,115 L 195,116 L 197,112 L 194,106 Z" fill="none" stroke="black" stroke-width="5" /><path d="M 45,104 L 43,106 L 42,112 L 49,112 L 50,111 Z" fill="none" stroke="black" stroke-width="5" /><path d="M 181,70 L 178,77 L 185,78 L 185,72 Z" fill="none" stroke="black" stroke-width="5" /><path d="M 56,66 L 54,73 L 61,74 L 62,73 L 59,68 Z" fill="none" stroke="black" stroke-width="5" /><path d="M 87,41 L 86,49 L 93,49 L 94,48 L 90,41 Z" fill="none" stroke="black" stroke-width="5" /><path d="M 150,39 L 147,48 L 156,49 L 157,47 L 152,39 Z" fill="none" stroke="black" stroke-width="5" /><path d="M 119,29 L 116,40 L 126,40 L 121,29 Z" fill="none" stroke="black" stroke-width="5" /><path d="M 0,0 L 0,218 L 257,218 L 257,0 Z" fill="none" stroke="black" stroke-width="5" /></svg>