<?xml version="1.0" encoding="utf-8" ?>
<svg baseProfile="full" height="219" version="1.1" width="265" xmlns="http://www.w3.org/2000/svg" xmlns:ev="http://www.w3.org/2001/xml-events" xmlns:xlink="http://www.w3.org/1999/xlink"><defs /><rect fill="white" height="219" width="265" x="0" y="0" /><path d="M 236,178 L 236,184 L 239,187 L 245,187 L 247,185 L 247,178 L 245,176 L 239,176 Z" fill="none" stroke="black" stroke-width="5" /><path d="M 210,174 L 206,179 L 208,185 L 211,186 L 217,185 L 219,183 L 219,176 L 216,174 Z" fill="none" stroke="black" stroke-width="5" /><path d="M 183,174 L 178,176 L 176,179 L 176,183 L 180,187 L 184,187 L 188,183 L 187,176 Z" fill="none" stroke="black" stroke-width="5" /><path d="M 153,174 L 146,178 L 146,184 L 151,187 L 155,186 L 158,182 L 157,177 Z" fill="none" stroke="black" stroke-width="5" /><path d="M 116,174 L 114,176 L 113,182 L 116,185 L 123,185 L 125,183 L 125,176 L 121,174 Z" fill="none" stroke="black" stroke-width="5" /><path d="M 84,174 L 82,177 L 82,183 L 84,185 L 91,185 L 94,181 L 93,176 L 91,174 Z" fill="none" stroke="black" stroke-width="5" /><path d="M 54,174 L 50,180 L 50,183 L 57,187 L 61,185 L 63,178 L 59,175 Z" fill="none" stroke="black" stroke-width="5" /><path d="M 23,174 L 20,178 L 20,183 L 25,186 L 30,185 L 33,181 L 33,178 L 30,174 Z" fill="none" stroke="black" stroke-width="5" /><path d="M 225,151 L 224,161 L 227,163 L 231,163 L 234,161 L 235,153 L 229,150 Z" fill="none" stroke="black" stroke-width="5" /><path d="M 45,146 L 42,149 L 42,154 L 44,157 L 48,158 L 52,157 L 54,152 L 53,148 L 51,146 Z" fill="none" stroke="black" stroke-width="5" /><path d="M 209,124 L 206,127 L 207,133 L 209,135 L 215,135 L 218,132 L 219,129 L 218,126 L 216,124 Z" fill="none" stroke="black" stroke-width="5" /><path d="M 60,126 L 60,132 L 64,135 L 67,135 L 71,133 L 72,126 L 70,124 L 62,124 Z" fill="none" stroke="black" stroke-width="5" /><path d="M 196,100 L 192,102 L 191,108 L 194,112 L 199,113 L 203,109 L 203,103 L 199,100 Z" fill="none" stroke="black" stroke-width="5" /><path d="M 86,98 L 79,101 L 78,108 L 80,110 L 86,111 L 89,109 L 91,103 Z" fill="none" stroke="black" stroke-width="5" /><path d="M 176,74 L 174,76 L 173,82 L 182,86 L 185,81 L 185,76 L 183,74 Z" fill="none" stroke="black" stroke-width="5" /><path d="M 100,75 L 98,78 L 100,82 L 100,85 L 107,85 L 110,81 L 109,74 Z" fill="none" stroke="black" stroke-width="5" /><path d="M 159,52 L 158,59 L 161,61 L 165,61 L 169,59 L 169,53 L 167,50 L 161,50 Z" fill="none" stroke="black" stroke-width="5" /><path d="M 120,49 L 116,54 L 116,58 L 119,61 L 123,61 L 127,59 L 127,51 Z" fill="none" stroke="black" stroke-width="5" /><path d="M 142,24 L 139,28 L 140,33 L 142,35 L 149,34 L 151,31 L 151,27 L 149,24 Z" fill="none" stroke="black" stroke-width="5" /><path d="M 0,0 L 0,218 L 264,218 L 264,0 Z" fill="none" stroke="black" stroke-width="5" /></svg>