<?xml version="1.0" encoding="utf-8" ?>
<svg xmlns="http://www.w3.org/2000/svg" xmlns:ev="http://www.w3.org/2001/xml-events" xmlns:xlink="http://www.w3.org/1999/xlink" baseProfile="full" height="217" version="1.1" width="257">
  <defs/>
  <path d="M 120.975885,203.954940 C 120.148205,202.408406 119.877163,191.873534 120.028816,167.144175 C 120.145667,148.089879 120.180095,131.825000 120.105323,131.000000 C 119.881281,128.528011 118.033770,132.001137 118.015313,134.929002 C 118.006891,136.264953 117.580492,138.739953 117.067761,140.429002 C 115.500701,145.591240 114.476923,149.767873 107.858347,178.000000 C 107.278122,180.475000 106.362880,184.300000 105.824474,186.500000 C 105.286069,188.700000 104.297802,193.394168 103.628325,196.931484 C 102.449729,203.158840 100.594451,205.712688 99.438143,202.699400 C 99.128544,201.892596 100.943668,192.742675 103.471753,182.366242 C 105.999839,171.989809 109.461779,157.650000 111.164954,150.500000 C 112.868129,143.350000 115.143149,134.800000 116.220555,131.500000 C 117.297960,128.200000 118.251591,124.600000 118.339736,123.500000 C 118.628268,119.899289 116.541616,120.424852 114.500000,124.467112 C 105.215584,142.849621 78.100445,189.841822 75.562568,191.948073 C 74.290576,193.003732 73.913858,192.939092 73.390552,191.575379 C 73.042339,190.667951 73.374514,189.154770 74.128719,188.212755 C 74.882923,187.270740 76.143729,185.375000 76.930508,184.000000 C 80.137242,178.395815 85.149128,169.724976 93.349682,155.593924 C 98.107357,147.395583 102.000000,140.555642 102.000000,140.394056 C 102.000000,140.232471 103.350000,138.099944 105.000000,135.655107 C 106.650000,133.210271 108.000000,130.937712 108.000000,130.604975 C 108.000000,128.663037 105.183975,131.112628 96.912175,140.250000 C 76.324548,162.991941 60.223187,179.022875 58.596083,178.398497 C 56.135617,177.454327 56.602567,176.511851 62.103960,171.318330 C 72.149726,161.834750 112.269612,119.936278 111.776770,119.443436 C 111.314282,118.980948 106.567149,121.973578 74.806161,142.750000 C 68.710456,146.737500 63.405116,150.000000 63.016518,150.000000 C 62.627919,150.000000 61.495486,150.900000 60.500000,152.000000 C 59.504514,153.100000 58.232703,154.000000 57.673753,154.000000 C 57.114804,154.000000 55.947048,154.616670 55.078741,155.370379 C 53.465407,156.770784 44.304510,162.000000 43.464517,162.000000 C 43.209033,162.000000 43.000000,161.105645 43.000000,160.012545 C 43.000000,158.304582 49.483599,153.000000 51.571180,153.000000 C 51.907188,153.000000 54.728630,151.277721 57.841052,149.172713 C 60.953473,147.067706 65.975000,143.842720 69.000000,142.006079 C 72.025000,140.169438 80.350000,135.071730 87.500000,130.677841 C 94.650000,126.283951 102.960500,121.400936 105.967778,119.826697 C 112.731685,116.285952 113.742415,115.342415 112.307990,113.907990 C 111.518642,113.118642 110.146693,113.386564 107.357990,114.874652 C 103.066435,117.164681 91.096483,121.000000 88.240903,121.000000 C 87.228406,121.000000 85.972500,121.397206 85.450000,121.882680 C 84.927500,122.368155 81.575000,123.528970 78.000000,124.462269 C 69.093972,126.787302 67.045046,127.369707 55.000000,131.000000 C 33.294424,137.541909 29.916123,138.316123 28.640806,137.040806 C 27.119912,135.519912 29.114325,133.908873 33.669566,132.978697 C 38.145746,132.064665 52.844472,127.871647 61.631271,125.002229 C 65.003470,123.901003 68.689413,123.000000 69.822254,123.000000 C 70.955096,123.000000 72.160081,122.550000 72.500000,122.000000 C 72.839919,121.450000 74.103976,120.988935 75.309017,120.975412 C 76.514058,120.961888 80.087011,120.085094 83.248913,119.026980 C 86.410815,117.968866 91.476463,116.526875 94.505909,115.822556 C 97.535355,115.118237 99.866080,114.098240 99.685299,113.555897 C 99.382914,112.648741 82.366826,112.655255 80.897920,113.563089 C 80.563004,113.770078 68.567540,114.229905 54.241333,114.584926 C 28.422592,115.224747 28.183736,115.211831 27.061658,113.115210 C 26.439044,111.951844 26.282965,110.985025 26.714816,110.966721 C 29.316368,110.856459 70.743781,109.922933 88.000000,109.585720 C 107.471286,109.205221 112.777968,108.355035 105.000000,106.862141 C 103.075000,106.492659 97.900000,105.452535 93.500000,104.550755 C 89.100000,103.648974 83.475000,102.519777 81.000000,102.041429 C 78.525000,101.563081 75.308770,100.711801 73.852823,100.149697 C 72.396875,99.587592 71.003468,99.329865 70.756363,99.576970 C 70.509257,99.824076 68.775487,99.395273 66.903540,98.624075 C 65.031593,97.852877 61.034077,96.890519 58.020170,96.485501 C 55.006264,96.080483 50.884448,95.164872 48.860580,94.450810 C 46.836711,93.736747 44.953676,93.379658 44.676056,93.657278 C 44.398436,93.934897 43.221060,93.653492 42.059665,93.031932 C 40.898270,92.410372 38.284676,91.688860 36.251679,91.428572 C 31.915271,90.873375 30.105932,89.494068 31.666689,87.933311 C 32.422275,87.177725 34.303439,87.283066 38.116689,88.294496 C 43.136126,89.625857 51.550309,91.726659 55.000000,92.509819 C 55.825000,92.697113 59.528489,93.566763 63.229976,94.442375 C 66.931463,95.317987 71.206463,96.234975 72.729976,96.480128 C 74.253489,96.725281 77.300000,97.371970 79.500000,97.917215 C 81.700000,98.462459 85.300000,99.315072 87.500000,99.811909 C 91.823435,100.788293 101.140488,103.619412 104.714289,105.042716 C 106.060286,105.578774 107.161789,105.547236 107.523306,104.962290 C 108.478286,103.417100 107.068279,102.000000 104.575842,102.000000 C 103.307473,102.000000 101.196531,101.157484 99.884859,100.127743 C 97.271706,98.076261 89.519789,93.685651 56.500000,75.554984 C 40.872964,66.974415 40.144654,66.455346 41.637532,64.962468 C 42.354242,64.245758 44.657908,65.067129 49.087532,67.618761 C 52.614390,69.650365 63.375000,75.640345 73.000000,80.929828 C 82.625000,86.219310 92.300000,91.695104 94.500000,93.098259 C 102.028989,97.900229 104.938809,99.394524 105.556942,98.776391 C 105.897104,98.436230 94.648110,86.555377 80.559179,72.374497 C 57.558326,49.223533 53.208221,44.000000 56.929189,44.000000 C 57.474766,44.000000 58.501389,44.686207 59.210573,45.524905 C 64.404408,51.667249 108.296652,96.000000 109.184129,96.000000 C 110.567671,96.000000 110.206717,95.294407 103.165534,84.234859 C 95.774266,72.625433 76.741066,40.839199 73.872198,35.313770 C 72.725388,33.105019 73.243990,30.000000 74.759706,30.000000 C 75.212068,30.000000 76.831653,32.362500 78.358783,35.250000 C 79.885914,38.137500 82.067400,42.075000 83.206530,44.000000 C 84.345660,45.925000 88.443284,52.900000 92.312362,59.500000 C 96.181440,66.100000 101.467241,75.100000 104.058587,79.500000 C 106.649933,83.900000 109.954428,89.862500 111.401908,92.750000 C 112.849389,95.637500 114.476111,98.000000 115.016846,98.000000 C 116.244102,98.000000 116.288653,94.834233 115.104139,91.797053 C 114.611415,90.533674 113.659226,87.475000 112.988163,85.000000 C 112.317099,82.525000 111.422426,79.375000 111.000000,78.000000 C 110.577574,76.625000 109.685904,73.475000 109.018512,71.000000 C 108.351119,68.525000 107.398930,65.718606 106.902536,64.763569 C 106.406141,63.808532 106.000000,62.142206 106.000000,61.060622 C 106.000000,59.979038 105.493970,57.835432 104.875488,56.297053 C 104.257007,54.758674 103.387670,52.600000 102.943630,51.500000 C 102.499589,50.400000 101.932076,48.150000 101.682489,46.500000 C 101.432903,44.850000 100.737942,42.150000 100.138132,40.500000 C 96.830035,31.399846 94.958041,23.641959 95.854044,22.745956 C 97.429262,21.170738 98.645090,22.640107 99.973322,27.724239 C 101.382007,33.116324 108.478034,58.357943 111.717495,69.500000 C 114.789822,80.067204 115.218910,81.725094 116.835356,89.274138 C 118.086785,95.118498 118.872346,96.970716 120.000000,96.735823 C 120.832313,96.562451 121.389705,95.550176 121.252217,94.461685 C 120.497271,88.484832 120.387309,22.126753 121.129105,20.168718 C 121.614865,18.886512 122.492811,17.997604 123.080095,18.193365 C 123.812915,18.437638 124.113777,29.574336 124.039160,53.694134 C 123.933197,87.946853 124.570408,95.301497 126.862322,86.278864 C 128.128079,81.295932 130.967773,69.028026 131.440604,66.500000 C 131.896749,64.061183 135.696079,47.922181 137.031660,42.750000 C 137.564247,40.687500 138.477713,37.087500 139.061585,34.750000 C 139.645457,32.412500 140.504572,29.267258 140.970730,27.760573 C 141.436888,26.253888 141.594972,24.167174 141.322027,23.123432 C 141.049082,22.079689 141.334679,20.911191 141.956687,20.526769 C 143.617016,19.500629 146.211431,22.035047 145.420227,23.910214 C 145.051292,24.784596 144.396116,27.075000 143.964280,29.000000 C 143.532444,30.925000 142.435271,35.425000 141.526117,39.000000 C 140.616963,42.575000 139.186357,48.200000 138.346993,51.500000 C 136.009413,60.690304 134.947082,65.260648 134.511732,68.000000 C 134.293211,69.375000 132.963676,74.712250 131.557211,79.860556 C 128.561518,90.826155 128.664342,90.000000 130.295255,90.000000 C 131.007645,90.000000 133.073902,87.187500 134.886936,83.750000 C 136.699971,80.312500 139.245365,75.700000 140.543368,73.500000 C 141.841371,71.300000 143.486230,68.375000 144.198611,67.000000 C 144.910992,65.625000 147.577979,61.330593 150.125248,57.456873 C 154.318109,51.080646 157.088094,46.265427 162.257870,36.366063 C 163.358054,34.259370 164.761070,33.000000 166.007870,33.000000 C 167.103541,33.000000 168.000000,33.247347 168.000000,33.549660 C 168.000000,34.678345 164.467326,40.933873 155.321657,56.000000 C 150.146681,64.525000 145.523193,72.175000 145.047238,73.000000 C 144.571282,73.825000 142.340945,77.563489 140.090932,81.307754 C 137.840920,85.052018 136.000000,88.402395 136.000000,88.753035 C 136.000000,89.103675 134.816546,90.625822 133.370103,92.135583 C 131.706453,93.872059 130.972998,95.487251 131.373811,96.531753 C 132.051846,98.298683 148.340518,82.003158 172.550123,55.338119 C 179.122555,48.099085 184.950000,42.286585 185.500000,42.421452 C 186.050000,42.556320 186.500000,43.648089 186.500000,44.847605 C 186.500000,46.348423 178.661574,55.054170 161.364567,72.764272 C 147.540079,86.918922 136.065079,98.800000 135.864567,99.166667 C 135.664055,99.533333 135.780046,100.113379 136.122324,100.455657 C 136.464602,100.797935 138.725915,99.565645 141.147464,97.717235 C 143.569013,95.868824 148.688967,92.454164 152.525140,90.129101 C 156.361313,87.804038 163.325000,83.458643 168.000000,80.472668 C 172.675000,77.486692 177.453321,74.617444 178.618491,74.096561 C 179.783662,73.575678 185.055173,70.242062 190.332960,66.688527 C 198.048466,61.493675 200.226192,60.450213 201.445811,61.363777 C 203.420650,62.843042 202.542071,63.966827 196.610951,67.548012 C 193.921974,69.171606 190.249071,71.400000 188.448943,72.500000 C 186.648816,73.600000 182.998888,75.802453 180.337992,77.394339 C 177.677096,78.986226 173.812500,81.348726 171.750000,82.644339 C 169.687500,83.939953 166.312500,86.060047 164.250000,87.355661 C 159.546553,90.310254 151.986625,94.658048 145.536606,98.117928 C 140.149279,101.007766 137.973758,103.841621 142.116119,102.573488 C 143.427254,102.172100 147.200000,101.052181 150.500000,100.084778 C 153.800000,99.117375 157.175000,98.080604 158.000000,97.780842 C 158.825000,97.481081 161.300000,96.739181 163.500000,96.132176 C 165.700000,95.525171 170.386820,94.122111 173.915156,93.014265 C 177.443492,91.906419 181.129434,91.000000 182.106139,91.000000 C 183.082844,91.000000 184.160081,90.550000 184.500000,90.000000 C 184.839919,89.450000 186.414919,89.000000 188.000000,89.000000 C 189.585081,89.000000 191.128016,88.601883 191.428743,88.115296 C 191.729471,87.628708 193.218528,87.004266 194.737760,86.727645 C 196.256992,86.451025 200.109456,85.499142 203.298790,84.612349 C 210.414329,82.633879 210.000000,82.619807 210.000000,84.839940 C 210.000000,86.680247 208.676856,87.249905 197.750000,90.113983 C 195.412500,90.726673 192.600000,91.592777 191.500000,92.038658 C 190.400000,92.484539 188.375000,93.065266 187.000000,93.329162 C 185.625000,93.593058 179.775000,95.243508 174.000000,96.996829 C 168.225000,98.750150 161.925000,100.563211 160.000000,101.025854 C 158.075000,101.488497 154.700000,102.385489 152.500000,103.019169 C 150.300000,103.652849 146.736628,104.470269 144.581396,104.835658 C 142.426163,105.201046 140.456907,106.120269 140.205271,106.878375 C 139.828903,108.012260 141.410845,108.148465 149.123875,107.646263 C 154.280744,107.310495 170.475565,106.745485 185.112367,106.390685 C 205.487211,105.896794 211.900640,106.030216 212.475235,106.959930 C 212.888010,107.627814 212.837445,108.533820 212.362868,108.973276 C 211.244042,110.009302 186.928094,110.964462 161.166667,110.984323 C 145.351420,110.996517 140.925293,111.277751 141.247192,112.250000 C 141.474814,112.937500 143.649814,113.872831 146.080525,114.328513 C 148.511236,114.784195 156.125000,116.442733 163.000000,118.014153 C 169.875000,119.585573 177.300000,121.167927 179.500000,121.530495 C 183.799518,122.239073 188.267114,123.483082 194.270236,125.643290 C 196.343866,126.389481 199.216658,127.000000 200.654217,127.000000 C 205.717246,127.000000 211.000000,129.182827 211.000000,131.274865 C 211.000000,133.477015 212.077502,133.609581 196.500000,129.490913 C 191.000000,128.036721 182.675000,125.994989 178.000000,124.953730 C 159.172340,120.760262 142.973705,116.277324 137.229794,113.670662 C 134.998291,112.657977 131.725466,114.124319 133.662868,115.268771 C 134.123290,115.540750 139.675000,118.452030 146.000000,121.738282 C 152.325000,125.024534 159.300000,128.750500 161.500000,130.018206 C 163.700000,131.285912 173.071542,136.542869 182.325649,141.700333 C 202.345962,152.857977 203.000000,153.255683 203.000000,154.271932 C 203.000000,156.685742 199.120094,155.661955 191.935155,151.352261 C 187.485939,148.683518 180.167895,144.547298 175.672835,142.160663 C 162.747678,135.298097 153.000889,129.767647 140.081772,121.965847 C 136.551747,119.834080 133.310198,118.308287 132.878331,118.575196 C 132.446463,118.842104 144.447166,131.328074 159.546559,146.321796 C 174.645951,161.315517 187.000000,174.100350 187.000000,174.732537 C 187.000000,175.364723 186.584173,176.138961 186.075941,176.453066 C 185.567709,176.767171 173.451641,165.209796 159.151346,150.770012 C 144.851051,136.330227 132.870279,124.796387 132.527410,125.139257 C 132.184540,125.482127 135.188108,130.736369 139.202005,136.815352 C 143.215902,142.894334 148.699555,151.385236 151.387900,155.684023 C 154.076245,159.982811 156.995785,164.625000 157.875767,166.000000 C 158.755750,167.375000 159.931195,169.249357 160.487868,170.165237 C 161.044540,171.081117 163.663247,175.301987 166.307215,179.544946 C 170.720863,186.627835 171.737733,190.745911 168.834051,189.778017 C 168.193357,189.564452 165.216385,185.364531 162.218556,180.444859 C 143.555005,149.816502 133.665408,133.215544 132.911974,131.250000 C 131.921584,128.666291 130.000000,128.229178 130.000000,130.587597 C 130.000000,132.333436 135.692621,150.463337 137.111524,153.236431 C 137.600186,154.191468 138.000000,155.594377 138.000000,156.354006 C 138.000000,157.113636 139.353240,161.957242 141.007200,167.117575 C 142.661160,172.277909 144.457000,178.075000 144.997954,180.000000 C 145.538909,181.925000 147.158161,187.255007 148.596293,191.844461 C 150.593502,198.218075 150.934065,200.461844 150.038219,201.344461 C 149.148724,202.220820 148.519221,202.031020 147.432679,200.558870 C 146.644706,199.491249 146.000000,197.946210 146.000000,197.125449 C 146.000000,196.304689 145.160274,193.128198 144.133942,190.066579 C 143.107610,187.004961 141.692719,182.475000 140.989740,180.000000 C 140.286761,177.525000 138.838793,172.575000 137.772033,169.000000 C 136.705274,165.425000 135.390419,160.925000 134.850134,159.000000 C 134.309850,157.075000 133.498836,154.600000 133.047882,153.500000 C 132.596928,152.400000 131.674484,149.475000 130.998007,147.000000 C 130.321529,144.525000 129.404279,141.375000 128.959673,140.000000 C 128.002858,137.040931 126.732740,130.322582 126.596521,127.500000 C 126.543434,126.400000 125.825000,125.500000 125.000000,125.500000 C 123.970396,125.500000 123.541777,126.440792 123.633218,128.500000 C 123.706488,130.150000 123.860894,148.136031 123.976343,168.468958 C 124.184406,205.113196 123.831226,209.290195 120.975885,203.954940" fill="none" stroke="black" stroke-width="5"/>
</svg>
