<?xml version="1.0" encoding="utf-8" ?>
<svg xmlns="http://www.w3.org/2000/svg" xmlns:ev="http://www.w3.org/2001/xml-events" xmlns:xlink="http://www.w3.org/1999/xlink" baseProfile="full" height="215" version="1.1" width="258">
  <defs/>
  <path d="M 118.500000,186.975475 C 110.898149,185.941478 107.000000,184.452823 107.000000,182.583768 C 107.000000,180.206420 108.448911,179.940293 115.153341,181.086212 C 118.644003,181.682835 123.824811,182.245010 126.666246,182.335491 C 132.530101,182.522214 133.895223,183.351880 132.363354,185.797964 C 131.117470,187.787385 127.024775,188.135006 118.500000,186.975475" fill="none" stroke="black" stroke-width="5"/>
  <path d="M 141.166650,183.938221 C 141.449726,182.008547 142.480295,181.469027 148.000000,180.360844 C 151.575000,179.643097 155.478328,178.618500 156.674063,178.083963 C 158.278155,177.366874 159.162304,177.490638 160.046507,178.556038 C 162.509118,181.523302 157.440642,184.067134 146.166650,185.522240 C 141.024401,186.185938 140.845244,186.129181 141.166650,183.938221" fill="none" stroke="black" stroke-width="5"/>
  <path d="M 87.775489,176.038040 C 86.350468,174.917118 84.799513,174.000000 84.328922,174.000000 C 83.073165,174.000000 72.704172,166.902958 71.281803,165.069919 C 69.802111,163.163004 69.631108,159.346022 70.987805,158.507537 C 71.531097,158.171764 74.118597,159.849719 76.737805,162.236326 C 82.070204,167.095178 88.445078,171.977196 91.484326,173.529533 C 92.592947,174.095776 93.500000,175.214613 93.500000,176.015838 C 93.500000,178.277268 90.636326,178.288374 87.775489,176.038040" fill="none" stroke="black" stroke-width="5"/>
  <path d="M 168.000000,174.513420 C 168.000000,172.629552 168.826163,171.681647 171.408465,170.602693 C 173.283120,169.819411 176.247493,167.900872 177.995959,166.339273 C 182.239585,162.549183 184.559819,161.764688 186.086209,163.603876 C 187.104809,164.831213 186.648151,165.776000 183.456483,169.044565 C 181.332175,171.220054 178.855175,173.000000 177.952040,173.000000 C 177.048904,173.000000 175.495486,173.900000 174.500000,175.000000 C 173.504514,176.100000 171.634769,177.000000 170.345012,177.000000 C 168.513707,177.000000 168.000000,176.455280 168.000000,174.513420" fill="none" stroke="black" stroke-width="5"/>
  <path d="M 191.558276,157.094292 C 190.710079,155.721881 194.279856,147.817033 197.183453,144.638001 C 198.688372,142.990326 200.188447,140.418489 200.516954,138.922808 C 201.175069,135.926433 204.334631,134.493353 205.961331,136.453407 C 207.259018,138.017023 205.315695,142.206821 199.386202,150.629367 C 195.178255,156.606543 192.582010,158.750729 191.558276,157.094292" fill="none" stroke="black" stroke-width="5"/>
  <path d="M 61.282894,152.750000 C 57.165383,148.265203 53.000000,138.347469 53.000000,133.028517 C 53.000000,130.262833 53.438444,128.000000 53.974320,128.000000 C 55.130980,128.000000 57.141962,131.901520 58.951238,137.655753 C 59.669908,139.941418 62.029504,144.152185 64.194784,147.013015 C 66.360065,149.873844 67.891158,152.841255 67.597214,153.607261 C 66.789817,155.711304 63.604662,155.278873 61.282894,152.750000" fill="none" stroke="black" stroke-width="5"/>
  <path d="M 206.631483,129.298150 C 205.621188,128.287854 205.903083,125.000000 207.000000,125.000000 C 207.550000,125.000000 208.000000,124.325000 208.000000,123.500000 C 208.000000,122.675000 207.550000,122.000000 207.000000,122.000000 C 206.450000,122.000000 206.000000,121.325000 206.000000,120.500000 C 206.000000,119.675000 206.717227,119.000000 207.593838,119.000000 C 208.931467,119.000000 209.077132,118.196251 208.500000,114.000000 C 208.058492,110.789850 208.181205,109.000000 208.842804,109.000000 C 209.409567,109.000000 210.014294,107.537500 210.186642,105.750000 C 210.387476,103.667048 211.038638,102.500000 212.000000,102.500000 C 215.328326,102.500000 212.489816,127.132307 208.942735,129.030647 C 208.018862,129.525089 206.978799,129.645465 206.631483,129.298150" fill="none" stroke="black" stroke-width="5"/>
  <path d="M 48.648588,115.823907 C 48.458638,115.095758 47.794642,112.959489 47.173041,111.076643 C 46.482328,108.984451 46.398501,107.224762 46.957465,106.551252 C 47.460498,105.945134 48.013355,103.210644 48.186036,100.474609 C 48.451319,96.271321 48.810103,95.500000 50.500000,95.500000 C 52.225216,95.500000 52.613329,96.441619 53.324858,102.353518 C 54.286301,110.341882 53.202846,116.337254 50.711064,116.817127 C 49.766652,116.999005 48.838538,116.552055 48.648588,115.823907" fill="none" stroke="black" stroke-width="5"/>
  <path d="M 208.352019,93.525037 C 208.700461,92.617012 207.413801,87.677647 205.492775,82.548671 C 201.940863,73.065368 201.289385,69.557218 202.895836,68.564377 C 206.031206,66.626612 211.856835,79.403236 212.271046,89.125857 C 212.483336,94.108864 212.325998,94.524600 210.109244,94.837996 C 208.232447,95.103331 207.854683,94.821074 208.352019,93.525037" fill="none" stroke="black" stroke-width="5"/>
  <path d="M 50.966028,80.459066 C 49.914754,79.192358 49.876607,78.463618 50.793658,77.166177 C 52.756635,74.388965 56.000000,67.701246 56.000000,66.430860 C 56.000000,65.774445 57.510951,64.084919 59.357669,62.676358 C 61.875019,60.756283 63.001229,60.401229 63.857669,61.257669 C 65.551865,62.951865 65.259585,64.826884 62.752789,68.345630 C 61.516823,70.080533 59.342726,73.750000 57.921462,76.500000 C 55.139984,81.881875 53.107158,83.038970 50.966028,80.459066" fill="none" stroke="black" stroke-width="5"/>
  <path d="M 194.250000,60.529659 C 193.012500,58.603773 192.000000,56.369639 192.000000,55.564916 C 192.000000,53.771842 185.934710,49.000000 183.655609,49.000000 C 182.482710,49.000000 182.000000,48.125319 182.000000,46.000000 C 182.000000,43.539291 182.412007,43.000000 184.291937,43.000000 C 186.553063,43.000000 196.000000,50.622610 196.000000,52.447083 C 196.000000,52.955291 196.919138,54.349475 198.042530,55.545271 C 199.165921,56.741066 200.178421,59.019612 200.292530,60.608707 C 200.610388,65.035244 197.115740,64.989527 194.250000,60.529659" fill="none" stroke="black" stroke-width="5"/>
  <path d="M 69.494469,50.991051 C 68.732193,49.757661 69.824225,46.000000 70.944943,46.000000 C 71.390535,46.000000 72.311199,46.670045 72.990862,47.488990 C 74.783197,49.648621 76.178867,48.280414 75.814964,44.720458 C 75.541990,42.050026 76.118134,41.195071 80.136589,38.307490 C 85.230770,34.646912 88.000000,34.747968 88.000000,38.594444 C 88.000000,40.273187 86.852543,41.699269 84.107470,43.432157 C 81.966579,44.783643 79.235936,47.264288 78.039376,48.944702 C 76.477666,51.137921 75.053201,52.000000 72.990923,52.000000 C 71.410834,52.000000 69.837430,51.545973 69.494469,50.991051" fill="none" stroke="black" stroke-width="5"/>
  <path d="M 169.694236,37.494982 C 168.151066,36.122742 165.788566,35.000000 164.444236,35.000000 C 163.099906,35.000000 162.000000,34.550000 162.000000,34.000000 C 162.000000,33.450000 161.126558,33.000000 160.059017,33.000000 C 158.991476,33.000000 157.837430,32.545973 157.494469,31.991051 C 156.452165,30.304567 158.023691,27.000000 159.868023,27.000000 C 162.049178,27.000000 166.981798,29.250227 166.992198,30.250000 C 166.996489,30.662500 168.072516,31.000000 169.383369,31.000000 C 170.890590,31.000000 171.950856,31.704072 172.267594,32.915277 C 172.543864,33.971736 173.829274,34.980646 175.134225,35.165277 C 176.721759,35.389890 177.500000,36.157916 177.500000,37.500000 C 177.500000,40.529202 173.103229,40.526376 169.694236,37.494982" fill="none" stroke="black" stroke-width="5"/>
  <path d="M 93.872445,33.337379 C 92.785301,32.020380 92.764187,31.585854 93.770878,31.247086 C 94.469860,31.011867 97.081172,29.735047 99.573792,28.409707 C 102.066413,27.084368 104.892018,26.000000 105.852915,26.000000 C 106.813812,26.000000 108.027500,25.597409 108.550000,25.105353 C 109.072500,24.613297 110.963679,23.902283 112.752619,23.525322 C 115.558314,22.934114 116.126149,23.160095 116.885206,25.169970 C 118.059896,28.280384 117.817539,28.531108 112.275761,29.938546 C 109.649092,30.605637 106.718606,31.567365 105.763569,32.075719 C 104.808532,32.584074 103.121032,33.000000 102.013569,33.000000 C 100.906106,33.000000 100.000000,33.450000 100.000000,34.000000 C 100.000000,35.636741 95.355950,35.134543 93.872445,33.337379" fill="none" stroke="black" stroke-width="5"/>
  <path d="M 144.588495,28.789586 C 143.548800,28.207744 138.603560,27.503843 133.599071,27.225362 C 125.226843,26.759478 122.389330,25.797101 123.602116,23.834773 C 124.587737,22.240004 131.323821,21.023858 132.725966,22.187536 C 133.736341,23.026072 134.381600,23.018400 135.242382,22.157618 C 137.949951,19.450049 147.293069,22.188688 148.284663,25.980550 C 148.977359,28.629423 146.994737,30.136187 144.588495,28.789586" fill="none" stroke="black" stroke-width="5"/>
</svg>
