<?xml version="1.0" encoding="utf-8" ?>
<svg baseProfile="full" height="218" version="1.1" width="261" xmlns="http://www.w3.org/2000/svg" xmlns:ev="http://www.w3.org/2001/xml-events" xmlns:xlink="http://www.w3.org/1999/xlink"><defs /><rect fill="white" height="218" width="261" x="0" y="0" /><path d="M 120,181 L 124,189 L 131,194 Z" fill="none" stroke="black" stroke-width="5" /><path d="M 144,193 L 180,217 L 237,217 L 194,162 L 165,157 Z" fill="none" stroke="black" stroke-width="5" /><path d="M 0,157 L 0,217 L 65,217 L 47,172 Z" fill="none" stroke="black" stroke-width="5" /><path d="M 92,140 L 113,165 L 110,150 Z" fill="none" stroke="black" stroke-width="5" /><path d="M 88,88 L 73,118 L 139,193 L 160,156 L 145,114 Z" fill="none" stroke="black" stroke-width="5" /><path d="M 0,75 L 0,149 L 69,216 L 177,217 Z" fill="none" stroke="black" stroke-width="5" /><path d="M 136,41 L 190,109 L 168,153 L 260,217 L 247,122 Z" fill="none" stroke="black" stroke-width="5" /><path d="M 121,31 L 92,83 L 139,101 L 163,149 L 185,109 Z" fill="none" stroke="black" stroke-width="5" /><path d="M 192,0 L 238,14 L 260,65 L 260,0 Z" fill="none" stroke="black" stroke-width="5" /><path d="M 126,0 L 260,154 L 241,23 Z" fill="none" stroke="black" stroke-width="5" /><path d="M 22,0 L 31,30 L 80,45 L 88,76 L 119,24 L 130,35 L 121,0 Z" fill="none" stroke="black" stroke-width="5" /><path d="M 0,0 L 0,70 L 44,80 L 77,135 L 80,54 Z" fill="none" stroke="black" stroke-width="5" /></svg>