<?xml version="1.0" encoding="utf-8" ?>
<svg xmlns="http://www.w3.org/2000/svg" xmlns:ev="http://www.w3.org/2001/xml-events" xmlns:xlink="http://www.w3.org/1999/xlink" baseProfile="full" height="218" version="1.1" width="260">
  <defs/>
  <path d="M 23.227043,214.750000 C 24.592892,212.962500 27.209135,210.476028 29.040916,209.224506 C 30.872698,207.972984 33.300357,205.634336 34.435714,204.027511 C 35.571071,202.420686 37.512500,200.641805 38.750000,200.074444 C 39.987500,199.507082 41.000000,198.358230 41.000000,197.521439 C 41.000000,196.684647 41.360145,196.000000 41.800323,196.000000 C 42.746063,196.000000 47.843562,191.195345 74.250000,165.414504 C 85.112500,154.809349 94.000000,145.756839 94.000000,145.297816 C 94.000000,144.838793 91.583660,141.782942 88.630355,138.507036 L 83.260711,132.550843 L 75.380355,140.581393 C 67.835938,148.269603 48.082642,167.090210 15.250000,197.872582 C 2.520136,209.807515 0.000000,211.776662 -0.000000,209.788400 C -0.000000,208.098561 2.206889,205.386295 7.595724,200.453260 C 11.773372,196.628967 20.261394,188.550000 26.457994,182.500000 C 32.654594,176.450000 42.370566,167.225000 48.049042,162.000000 C 53.727519,156.775000 62.999751,147.887500 68.654002,142.250000 C 74.308253,136.612500 79.399205,132.000000 79.967229,132.000000 C 80.535253,132.000000 80.997766,131.437500 80.995036,130.750000 C 80.987773,128.921269 71.880912,118.000000 70.363261,118.000000 C 69.652431,118.000000 64.442403,122.557943 58.785421,128.128763 C 53.128440,133.699583 42.879449,143.487083 36.009887,149.878763 C 29.140325,156.270443 18.227825,166.651061 11.759887,172.946803 C 2.061144,182.387335 0.000000,183.985708 0.000000,182.066340 C -0.000000,179.578580 9.401064,169.893893 35.495466,145.500000 C 54.263801,127.954753 67.000000,115.244514 67.000000,114.059683 C 67.000000,112.247563 58.725377,102.000000 57.262141,102.000000 C 55.856805,102.000000 47.458817,109.750008 26.379247,130.500000 C 11.317780,145.325982 1.913085,154.000000 0.899666,154.000000 C 0.404850,154.000000 0.000000,153.361000 0.000000,152.580000 C 0.000000,151.034375 4.800464,146.116890 24.971275,127.000000 C 32.225297,120.125000 41.174908,111.540491 44.859301,107.923313 C 48.543694,104.306135 52.420611,100.863994 53.474672,100.274113 C 55.322551,99.239987 55.298724,99.081668 52.808952,95.850800 C 51.388745,94.007860 49.275738,91.418646 48.113379,90.096990 C 46.951021,88.775335 46.000000,87.360980 46.000000,86.953979 C 46.000000,86.546978 45.298755,85.944885 44.441678,85.615993 C 43.382940,85.209718 39.776293,88.031003 33.191678,94.416260 C 9.454979,117.434302 3.448684,123.000000 2.345166,123.000000 C 1.696991,123.000000 0.939693,123.562500 0.662281,124.250000 C 0.384868,124.937500 0.122368,124.607495 0.078947,123.516655 C 0.031648,122.328376 2.305008,119.379732 5.750000,116.161061 C 11.741556,110.563125 35.228910,88.375549 49.960523,74.397124 C 54.657235,69.940542 61.200000,63.888587 64.500000,60.948334 C 67.800000,58.008082 76.350000,49.930394 83.500000,42.997916 C 90.650000,36.065438 101.888406,25.242393 108.474236,18.946705 C 115.060065,12.651017 121.974929,5.812500 123.840598,3.750000 C 126.162711,1.182902 128.063481,0.012078 129.866362,0.038291 C 132.165868,0.071723 130.660371,1.863499 118.000000,14.161109 C 90.374273,40.995268 53.259691,76.079838 49.188896,79.208534 C 46.939624,80.937260 45.328524,82.722545 45.608672,83.175836 C 46.325886,84.336311 50.755830,84.204092 51.500000,83.000000 C 51.839919,82.450000 52.997582,82.000000 54.072586,82.000000 C 55.147589,82.000000 56.808532,81.593859 57.763569,81.097464 C 58.718606,80.601070 61.525000,79.640240 64.000000,78.962287 C 66.475000,78.284334 70.075000,77.295239 72.000000,76.764297 C 77.298312,75.302951 84.343573,71.749677 85.772277,69.818256 C 86.472029,68.872282 87.679014,67.513686 88.454465,66.799152 C 94.141328,61.559040 118.688973,38.265322 129.434771,27.912175 C 158.037152,0.354926 158.423078,0.013855 161.000000,0.015628 C 163.396871,0.017277 163.334994,0.170028 159.500000,3.718556 C 157.300000,5.754220 149.871005,12.837817 142.991123,19.459882 C 121.876326,39.783420 94.661178,65.584646 91.500000,68.275859 C 88.218137,71.069816 88.675888,72.930227 92.251507,71.330160 C 96.023648,69.642151 107.776221,66.000000 109.450985,66.000000 C 110.317869,66.000000 111.808532,65.592126 112.763569,65.093613 C 113.718606,64.595100 116.525000,63.644298 119.000000,62.980719 C 124.703493,61.451541 129.000000,58.423013 129.000000,55.931906 C 129.000000,54.869358 129.602641,54.000000 130.339203,54.000000 C 131.075765,54.000000 143.206710,42.717253 157.296859,28.927228 C 185.663899,1.164414 187.295872,-0.287083 189.622025,0.176822 C 190.687946,0.389399 182.046398,9.439803 164.371265,26.622269 C 149.592069,40.989517 136.010349,53.989865 134.189663,55.511932 C 129.935755,59.068140 131.296140,61.036418 136.350301,58.638061 C 138.257167,57.733194 142.895930,56.274522 146.658665,55.396567 C 163.143134,51.550262 164.303921,50.905423 176.865848,38.615917 C 209.491302,6.697985 216.650046,0.032741 218.322580,0.017073 C 220.086020,0.000554 220.086020,0.073328 218.322580,2.259818 C 217.320161,3.502718 209.781021,11.040218 201.568935,19.009818 C 193.356849,26.979418 184.806849,35.312135 182.568935,37.526967 C 180.331021,39.741798 176.938723,42.755522 175.030496,44.224129 C 173.122269,45.692737 171.873623,47.206957 172.255729,47.589062 C 173.076977,48.410310 185.072774,46.102456 186.450000,44.858246 C 186.972500,44.386211 188.570000,44.000000 190.000000,44.000000 C 191.430000,44.000000 193.027500,43.586130 193.550000,43.080289 C 194.072500,42.574447 197.067127,41.497487 200.204727,40.687043 C 205.657898,39.278486 206.774470,38.359953 225.526074,19.856754 C 239.587599,5.981505 245.901243,0.406830 247.821347,0.170990 C 249.998201,-0.096385 247.556927,2.713602 234.789575,15.170990 C 226.148842,23.601946 217.598842,31.713393 215.789575,33.196429 L 212.500000,35.892857 L 215.315741,35.946429 C 218.266305,36.002565 221.527752,34.615105 223.809984,32.332873 C 224.553175,31.589682 225.574961,31.237311 226.080620,31.549826 C 227.880179,32.662015 226.950155,37.148907 223.500000,44.000000 C 219.935343,51.078464 219.255421,53.429266 220.945139,52.833333 C 221.464966,52.650000 230.464966,44.250753 240.945139,34.168339 C 256.880812,18.837482 260.000000,16.239145 260.000000,18.295313 C 260.000000,20.150170 257.007269,23.546871 247.813341,32.126974 C 241.110679,38.382138 231.843296,47.100000 227.219157,51.500000 C 222.595019,55.900000 218.173780,59.862790 217.394183,60.306200 C 215.727697,61.254045 211.000000,70.245252 211.000000,72.466756 C 211.000000,73.310040 210.550000,74.000000 210.000000,74.000000 C 209.450000,74.000000 209.000000,74.681106 209.000000,75.513569 C 209.000000,76.346032 208.599890,77.808532 208.110867,78.763569 C 207.621843,79.718606 206.533132,82.075000 205.691508,84.000000 C 204.849883,85.925000 202.774993,90.557705 201.080641,94.294900 C 197.983395,101.126426 197.457951,103.000000 198.639293,103.000000 C 198.990905,103.000000 204.511042,97.712500 210.906265,91.250000 C 217.301488,84.787500 230.848696,71.643447 241.011171,62.040993 C 255.367262,48.476021 259.569496,45.003089 259.852000,46.470012 C 260.107329,47.795829 257.389179,51.059153 250.723815,57.429018 C 245.503333,62.418058 232.391375,75.050000 221.586130,85.500000 C 210.780885,95.950000 199.965473,106.300000 197.551880,108.500000 C 193.240445,112.429893 191.505703,115.535990 186.940468,127.500000 C 185.681251,130.800000 183.379512,136.167246 181.825492,139.427213 C 180.271471,142.687181 179.000000,145.949681 179.000000,146.677213 C 179.000000,147.404746 178.550000,148.000000 178.000000,148.000000 C 177.450000,148.000000 177.000000,148.900000 177.000000,150.000000 C 177.000000,151.100000 177.363797,152.000000 177.808437,152.000000 C 178.253077,152.000000 187.815577,142.980264 199.058437,131.956141 C 210.301297,120.932019 224.627969,107.094519 230.895486,101.206141 C 237.163003,95.317764 246.163003,86.813095 250.895486,82.306877 C 257.578021,75.943841 259.568193,74.523481 259.805291,75.948061 C 260.007629,77.163785 257.327201,80.432597 251.856921,85.641184 C 242.046263,94.982512 217.333972,118.851466 208.001484,128.000000 C 204.354600,131.575000 195.524784,140.237500 188.379670,147.250000 C 181.234556,154.262500 174.923680,160.000000 174.355502,160.000000 C 173.444277,160.000000 168.483703,169.901005 164.335157,180.000000 C 163.132799,182.926956 159.753393,190.182566 153.739715,202.748493 C 151.778224,206.847142 153.759143,206.217961 158.159342,201.344727 C 160.546704,198.700717 166.084389,193.154013 170.465310,189.018718 C 174.846230,184.883423 182.946230,177.126256 188.465310,171.780570 C 193.984389,166.434883 202.363625,158.334883 207.085834,153.780570 C 211.808043,149.226256 225.265916,136.162500 236.992219,124.750000 C 248.718522,113.337500 258.692396,104.000000 259.156385,104.000000 C 261.848406,104.000000 258.598888,108.148319 247.294512,119.142808 C 240.306494,125.939264 231.193994,134.875000 227.044512,139.000000 C 222.895031,143.125000 210.284394,155.275000 199.020874,166.000000 C 160.616732,202.568005 157.573974,205.503771 151.512335,211.837993 C 146.443354,217.134919 144.983225,218.120468 142.623105,217.837993 C 139.800270,217.500137 139.800992,217.498687 144.399561,214.270608 C 146.929802,212.494442 149.000000,210.521906 149.000000,209.887196 C 149.000000,209.252485 147.462527,207.105711 145.583393,205.116588 C 143.704260,203.127465 141.097919,200.213588 139.791524,198.641307 L 137.416262,195.782614 L 125.958131,206.882560 C 119.656159,212.987531 113.657400,217.986443 112.627555,217.991253 C 109.834766,218.004299 109.832524,218.006743 131.125572,197.828401 C 133.256507,195.809021 134.993635,193.784021 134.985855,193.328401 C 134.961963,191.929125 124.909148,180.998622 123.667161,181.021497 C 123.025222,181.033321 113.950000,189.350657 103.500000,199.504467 C 89.500842,213.106839 83.859470,217.970422 82.066397,217.982970 C 79.560247,218.000508 85.644154,211.664273 112.095156,186.708778 C 121.096610,178.216254 121.363718,177.838674 119.956605,175.595942 C 117.749262,172.077764 111.665494,165.000000 110.848749,165.000000 C 110.452142,165.000000 106.587326,168.487500 102.260268,172.750000 C 93.487473,181.391908 73.295714,200.910236 62.328357,211.350111 C 58.344700,215.142171 54.465664,218.026395 53.602138,217.838414 C 52.298509,217.554629 52.406929,217.026424 54.273781,214.566283 C 55.498201,212.952739 58.258542,210.027739 60.407872,208.066283 C 67.685497,201.424798 84.399631,185.547655 94.423367,175.754175 C 99.909596,170.393972 105.208704,165.751147 106.199164,165.436788 C 107.189624,165.122428 108.000000,164.283345 108.000000,163.572159 C 108.000000,160.973072 98.507959,149.000000 96.447448,149.000000 C 95.987634,149.000000 91.533405,153.162500 86.549161,158.250000 C 59.501106,185.858396 25.150220,218.000000 22.692193,218.000000 C 20.870557,218.000000 20.905383,217.788379 23.227043,214.750000" fill="none" stroke="black" stroke-width="5"/>
</svg>
