<?xml version="1.0" encoding="utf-8" ?>
<svg baseProfile="full" height="220" version="1.1" width="257" xmlns="http://www.w3.org/2000/svg" xmlns:ev="http://www.w3.org/2001/xml-events" xmlns:xlink="http://www.w3.org/1999/xlink"><defs /><rect fill="white" height="220" width="257" x="0" y="0" /><path d="M 9,0 L 245,120" fill="none" stroke="black" stroke-width="5" /><path d="M 14,118 L 213,219" fill="none" stroke="black" stroke-width="5" /><path d="M 73,54 L 256,147" fill="none" stroke="black" stroke-width="5" /><path d="M 0,64 L 155,143" fill="none" stroke="black" stroke-width="5" /><path d="M 52,138 L 181,204" fill="none" stroke="black" stroke-width="5" /><path d="M 0,206 L 0,219 L 25,219 Z" fill="none" stroke="black" stroke-width="5" /><path d="M 0,183 L 0,202 L 71,219 Z" fill="none" stroke="black" stroke-width="5" /><path d="M 56,182 L 123,218 L 162,219 L 78,176 Z" fill="none" stroke="black" stroke-width="5" /><path d="M 51,162 L 51,179 L 70,173 Z" fill="none" stroke="black" stroke-width="5" /><path d="M 0,160 L 0,179 L 118,219 Z" fill="none" stroke="black" stroke-width="5" /><path d="M 112,165 L 215,219 L 255,219 L 136,158 Z" fill="none" stroke="black" stroke-width="5" /><path d="M 169,146 L 256,192 L 255,173 L 190,140 Z" fill="none" stroke="black" stroke-width="5" /><path d="M 50,138 L 51,159 L 73,171 L 98,164 Z" fill="none" stroke="black" stroke-width="5" /><path d="M 0,137 L 0,156 L 46,177 L 44,159 Z" fill="none" stroke="black" stroke-width="5" /><path d="M 49,115 L 52,136 L 103,162 L 126,155 Z" fill="none" stroke="black" stroke-width="5" /><path d="M 187,94 L 189,112 L 256,146 L 255,127 Z" fill="none" stroke="black" stroke-width="5" /><path d="M 0,90 L 13,116 L 0,113 L 0,132 L 44,155 L 44,135 L 13,119 L 44,131 L 44,112 Z" fill="none" stroke="black" stroke-width="5" /><path d="M 47,67 L 49,88 L 156,143 L 184,137 Z" fill="none" stroke="black" stroke-width="5" /><path d="M 0,66 L 0,85 L 44,107 L 42,88 Z" fill="none" stroke="black" stroke-width="5" /><path d="M 167,54 L 180,60 L 180,54 Z" fill="none" stroke="black" stroke-width="5" /><path d="M 120,52 L 182,83 L 180,64 Z" fill="none" stroke="black" stroke-width="5" /><path d="M 0,43 L 0,62 L 43,82 L 42,64 Z" fill="none" stroke="black" stroke-width="5" /><path d="M 0,20 L 1,39 L 41,60 L 41,48 L 53,47 Z" fill="none" stroke="black" stroke-width="5" /><path d="M 243,0 L 256,6 L 256,0 Z" fill="none" stroke="black" stroke-width="5" /><path d="M 199,0 L 256,29 L 256,11 L 237,0 Z" fill="none" stroke="black" stroke-width="5" /><path d="M 108,0 L 256,76 L 159,7 L 256,53 L 209,9 Z" fill="none" stroke="black" stroke-width="5" /><path d="M 15,0 L 107,47 L 146,48 L 55,0 Z" fill="none" stroke="black" stroke-width="5" /></svg>