<?xml version="1.0" encoding="utf-8" ?>
<svg baseProfile="full" height="216" version="1.1" width="260" xmlns="http://www.w3.org/2000/svg" xmlns:ev="http://www.w3.org/2001/xml-events" xmlns:xlink="http://www.w3.org/1999/xlink"><defs /><rect fill="white" height="216" width="260" x="0" y="0" /><path d="M 119,215 L 103,198 L 103,176 L 59,182 L 66,215 Z" fill="none" stroke="black" stroke-width="5" /><path d="M 154,178 L 176,215 L 211,215 L 189,173 Z" fill="none" stroke="black" stroke-width="5" /><path d="M 25,172 L 0,190 L 0,215 L 12,215 L 11,197 Z" fill="none" stroke="black" stroke-width="5" /><path d="M 33,169 L 16,215 L 58,215 L 57,176 Z" fill="none" stroke="black" stroke-width="5" /><path d="M 236,166 L 235,183 L 259,215 L 259,172 Z" fill="none" stroke="black" stroke-width="5" /><path d="M 110,172 L 107,196 L 124,215 L 171,215 L 147,168 L 127,161 Z" fill="none" stroke="black" stroke-width="5" /><path d="M 196,163 L 194,186 L 216,215 L 253,215 L 229,181 L 231,160 Z" fill="none" stroke="black" stroke-width="5" /><path d="M 0,130 L 3,185 L 27,164 Z" fill="none" stroke="black" stroke-width="5" /><path d="M 99,116 L 72,128 L 48,117 L 72,149 L 66,177 L 115,160 L 118,138 Z" fill="none" stroke="black" stroke-width="5" /><path d="M 240,111 L 250,129 L 240,160 L 259,167 L 259,112 Z" fill="none" stroke="black" stroke-width="5" /><path d="M 6,123 L 30,165 L 62,170 L 67,148 L 41,112 Z" fill="none" stroke="black" stroke-width="5" /><path d="M 187,106 L 164,120 L 172,144 L 163,175 L 203,146 L 205,129 Z" fill="none" stroke="black" stroke-width="5" /><path d="M 122,103 L 134,123 L 141,113 Z" fill="none" stroke="black" stroke-width="5" /><path d="M 112,103 L 103,114 L 122,159 L 154,166 L 165,129 L 148,116 L 131,133 Z" fill="none" stroke="black" stroke-width="5" /><path d="M 191,101 L 210,131 L 204,154 L 236,155 L 246,131 L 216,96 Z" fill="none" stroke="black" stroke-width="5" /><path d="M 104,83 L 98,94 L 100,105 L 112,100 Z" fill="none" stroke="black" stroke-width="5" /><path d="M 166,82 L 148,84 L 148,103 Z" fill="none" stroke="black" stroke-width="5" /><path d="M 108,80 L 118,99 L 145,109 L 143,80 Z" fill="none" stroke="black" stroke-width="5" /><path d="M 12,67 L 0,71 L 0,125 L 1,108 L 15,88 Z" fill="none" stroke="black" stroke-width="5" /><path d="M 0,54 L 0,66 L 8,64 L 9,60 Z" fill="none" stroke="black" stroke-width="5" /><path d="M 110,52 L 83,64 L 59,51 L 46,109 L 88,119 Z" fill="none" stroke="black" stroke-width="5" /><path d="M 196,48 L 163,57 L 153,76 L 174,82 L 158,115 L 183,104 Z" fill="none" stroke="black" stroke-width="5" /><path d="M 47,46 L 16,62 L 5,119 L 41,106 L 56,67 Z" fill="none" stroke="black" stroke-width="5" /><path d="M 242,44 L 225,93 L 259,108 L 259,50 Z" fill="none" stroke="black" stroke-width="5" /><path d="M 113,48 L 110,73 L 148,76 L 158,60 L 140,40 Z" fill="none" stroke="black" stroke-width="5" /><path d="M 232,34 L 199,44 L 188,98 L 221,91 Z" fill="none" stroke="black" stroke-width="5" /><path d="M 217,0 L 242,38 L 259,45 L 259,0 Z" fill="none" stroke="black" stroke-width="5" /><path d="M 175,0 L 200,38 L 228,26 L 213,0 Z" fill="none" stroke="black" stroke-width="5" /><path d="M 139,0 L 164,51 L 195,43 L 171,0 Z" fill="none" stroke="black" stroke-width="5" /><path d="M 92,0 L 110,44 L 138,35 L 157,47 L 135,0 Z" fill="none" stroke="black" stroke-width="5" /><path d="M 40,0 L 34,23 L 46,41 L 83,59 L 107,49 L 88,0 Z" fill="none" stroke="black" stroke-width="5" /><path d="M 34,0 L 0,0 L 0,47 L 12,59 L 41,42 L 30,25 Z" fill="none" stroke="black" stroke-width="5" /></svg>