<?xml version="1.0" encoding="utf-8" ?>
<svg xmlns="http://www.w3.org/2000/svg" xmlns:ev="http://www.w3.org/2001/xml-events" xmlns:xlink="http://www.w3.org/1999/xlink" baseProfile="full" height="214" version="1.1" width="261">
  <defs/>
  <path d="M 82.087836,211.750000 C 81.609729,210.512500 80.523901,207.700000 79.674885,205.500000 C 78.825869,203.300000 76.090836,196.775000 73.597034,191.000000 C 65.789064,172.918762 56.935864,151.748856 54.536020,145.421021 C 53.268015,142.077582 51.770236,138.477582 51.207623,137.421021 C 50.645010,136.364459 48.499927,131.321903 46.440771,126.215339 C 44.381616,121.108776 42.315061,116.694718 41.848426,116.406322 C 41.381792,116.117926 41.000000,115.019400 41.000000,113.965153 C 41.000000,112.910905 40.101682,110.574963 39.003738,108.774170 C 37.905794,106.973376 37.005794,104.951767 37.003738,104.281704 C 37.000313,103.165409 31.493112,89.531462 26.897009,79.260898 C 25.853654,76.929393 25.000000,74.570853 25.000000,74.019700 C 25.000000,73.468546 23.593104,69.751142 21.873564,65.758801 C 20.154025,61.766460 18.183439,57.150000 17.494486,55.500000 C 16.805532,53.850000 14.638509,48.675000 12.678878,44.000000 C 2.510420,19.741586 -0.084153,12.442582 0.243717,9.017627 C 0.520557,6.125722 0.720668,5.855763 1.368681,7.500000 C 3.932211,14.004578 6.479046,19.979535 8.122426,23.344501 C 9.155092,25.458976 10.000000,27.722637 10.000000,28.374859 C 10.000000,29.027081 11.632241,33.372056 13.627203,38.030359 C 20.387831,53.816654 33.348158,85.629721 37.460587,96.532976 C 39.512250,101.972536 42.599985,109.130263 46.505442,117.500000 C 48.858678,122.543191 57.708200,144.342409 58.481142,147.000000 C 58.881052,148.375000 59.837212,150.497916 60.605943,151.717590 C 61.374673,152.937265 62.937525,156.304479 64.078947,159.200289 C 65.220368,162.096099 67.244550,166.849019 68.577129,169.762334 C 69.909708,172.675649 71.000000,175.727041 71.000000,176.543204 C 71.000000,177.359368 71.446462,178.808532 71.992139,179.763569 C 74.130925,183.506850 86.000000,212.193126 86.000000,213.619059 C 86.000000,213.828577 85.315353,214.000000 84.478561,214.000000 C 83.641770,214.000000 82.565944,212.987500 82.087836,211.750000" fill="none" stroke="black" stroke-width="5"/>
  <path d="M 102.748422,205.750000 C 100.786051,201.212500 97.510453,193.450000 95.469316,188.500000 C 93.428178,183.550000 91.183826,178.150000 90.481866,176.500000 C 89.779906,174.850000 87.077845,168.325000 84.477286,162.000000 C 81.876727,155.675000 79.124375,149.069140 78.360946,147.320312 C 75.107789,139.868117 70.797486,129.177311 69.361876,125.000000 C 67.708798,120.189903 64.069061,116.000000 61.543644,116.000000 C 60.694640,116.000000 60.000000,115.550000 60.000000,115.000000 C 60.000000,114.450000 59.126558,114.000000 58.059017,114.000000 C 56.991476,114.000000 55.875841,113.608123 55.579826,113.129162 C 55.283812,112.650201 53.682255,111.986451 52.020809,111.654162 C 49.054425,111.060885 47.623195,108.000000 50.312171,108.000000 C 52.406243,108.000000 60.000000,104.051845 60.000000,102.963092 C 60.000000,102.014876 59.565533,100.976011 57.283400,96.467364 C 56.717529,95.349414 53.911651,88.599414 51.048115,81.467364 C 45.449280,67.522658 41.824787,58.860668 38.927111,52.500000 C 37.029332,48.334198 35.734173,44.974254 35.586367,43.833333 C 35.538865,43.466667 35.162500,42.829167 34.750000,42.416667 C 34.337500,42.004167 34.000000,40.949201 34.000000,40.072298 C 34.000000,39.195395 32.211389,34.882895 30.025310,30.488964 C 27.839230,26.095034 26.039230,21.938701 26.025310,21.252668 C 26.011389,20.566636 24.650000,17.148056 23.000000,13.655825 C 21.350000,10.163594 20.000000,6.588951 20.000000,5.712174 C 20.000000,4.835397 19.550000,3.839919 19.000000,3.500000 C 17.240405,2.412510 17.929694,0.000000 20.000000,0.000000 C 21.268519,0.000000 22.000000,0.666667 22.000000,1.822787 C 22.000000,2.825319 23.284625,6.312819 24.854723,9.572787 C 26.424821,12.832754 28.282855,17.300000 28.983689,19.500000 C 29.684523,21.700000 30.850407,24.625000 31.574543,26.000000 C 32.298678,27.375000 33.636526,30.300000 34.547536,32.500000 C 35.458547,34.700000 36.604894,37.400000 37.094974,38.500000 C 37.585054,39.600000 38.680636,42.515739 39.529600,44.979420 C 40.378563,47.443101 41.956707,50.956323 43.036585,52.786580 C 44.116463,54.616837 45.000000,56.769704 45.000000,57.570729 C 45.000000,58.371754 45.405395,59.808532 45.900877,60.763569 C 46.818846,62.532943 50.862031,72.224734 58.498223,90.960266 C 60.843079,96.713413 63.207099,101.569033 63.751600,101.750533 C 64.907231,102.135744 78.198966,96.018495 79.133927,94.671133 C 79.482586,94.168683 79.148130,92.574630 78.390689,91.128794 C 75.988144,86.542705 69.000000,71.069686 69.000000,70.336102 C 69.000000,69.948543 68.059474,67.576873 66.909942,65.065724 C 64.606172,60.033145 64.482971,59.750226 59.913927,49.000000 C 58.160726,44.875000 55.384141,38.350000 53.743738,34.500000 C 52.103336,30.650000 49.962051,25.475000 48.985327,23.000000 C 48.008604,20.525000 45.597036,14.477801 43.626287,9.561780 C 41.655538,4.645758 40.239001,0.427666 40.478426,0.188241 C 42.353829,-1.687162 45.003060,3.060276 50.678057,18.466044 C 51.481588,20.647368 53.232742,24.823204 54.569511,27.745680 C 55.906280,30.668155 57.000000,33.250814 57.000000,33.484922 C 57.000000,33.895628 64.340317,51.301054 67.971229,59.500000 C 68.945502,61.700000 70.981936,66.425000 72.496638,70.000000 C 74.011341,73.575000 76.071498,78.300000 77.074765,80.500000 C 78.078032,82.700000 79.709137,86.635813 80.699444,89.246252 C 81.689750,91.856690 82.737408,93.994190 83.027574,93.996252 C 83.317739,93.998313 86.157146,92.650000 89.337366,91.000000 C 92.517587,89.350000 95.741121,88.000000 96.500776,88.000000 C 97.260430,88.000000 98.114496,87.623759 98.398699,87.163908 C 98.858371,86.420143 94.150223,74.559617 89.005086,63.500000 C 87.981605,61.300000 85.073788,54.550000 82.543269,48.500000 C 80.012750,42.450000 77.551184,36.600000 77.073122,35.500000 C 74.383337,29.310916 72.931577,25.893841 70.700304,20.500000 C 69.335191,17.200000 66.844689,11.237500 65.165856,7.250000 C 62.287091,0.412469 62.225210,-0.000000 64.078155,0.000000 C 65.293454,0.000000 66.454124,1.048960 67.121021,2.750000 C 67.713999,4.262500 69.249298,7.750000 70.532794,10.500000 C 71.816291,13.250000 73.532720,17.300000 74.347080,19.500000 C 75.161441,21.700000 76.571550,25.525000 77.480656,28.000000 C 78.389762,30.475000 80.194827,34.750000 81.491912,37.500000 C 84.937078,44.804230 87.633225,51.152136 88.499960,54.000000 C 88.918435,55.375000 90.552139,59.074667 92.130412,62.221483 C 93.708685,65.368299 95.000000,68.530671 95.000000,69.248977 C 95.000000,69.967283 95.787500,71.667615 96.750000,73.027494 C 97.712500,74.387372 98.950000,77.295999 99.500000,79.491109 C 100.880496,85.000818 102.714644,85.218392 111.236431,80.883329 C 112.191468,80.397498 113.598868,80.000000 114.363986,80.000000 C 117.091944,80.000000 118.267054,77.342770 116.656105,74.816924 C 115.843370,73.542616 111.964712,64.850000 108.036866,55.500000 C 101.921995,40.943919 93.573400,21.373497 88.254954,9.128081 C 87.449481,7.273526 86.410917,4.432783 85.947034,2.815319 C 85.184461,0.156383 85.313350,-0.095543 87.291590,0.187238 C 88.568167,0.369719 89.609434,1.333099 89.791333,2.500000 C 89.962803,3.600000 90.476028,5.400000 90.931834,6.500000 C 91.387640,7.600000 92.524559,10.525000 93.458321,13.000000 C 94.392083,15.475000 96.091874,19.287379 97.235634,21.471952 C 99.539859,25.873005 105.932123,41.067207 109.566865,50.782882 C 115.602857,66.917105 119.925639,76.000000 121.568336,76.000000 C 123.575113,76.000000 138.000000,68.981419 138.000000,68.005000 C 138.000000,67.517169 137.562813,66.847837 137.028472,66.517597 C 135.888911,65.813309 133.358266,60.302158 127.836669,46.500000 C 125.636377,41.000000 123.198007,35.037500 122.418069,33.250000 C 121.638131,31.462500 120.378385,28.537500 119.618633,26.750000 C 118.858881,24.962500 117.462999,21.700000 116.516673,19.500000 C 115.570347,17.300000 114.432488,14.600000 113.988098,13.500000 C 113.543708,12.400000 112.239590,9.445424 111.090058,6.934276 C 109.940526,4.423127 109.000000,1.835627 109.000000,1.184276 C 109.000000,-0.674124 112.003206,-0.200053 112.583817,1.750000 C 112.870394,2.712500 113.916246,5.300000 114.907933,7.500000 C 115.899621,9.700000 117.725061,13.975000 118.964468,17.000000 C 120.203874,20.025000 122.482579,25.425000 124.028256,29.000000 C 125.573933,32.575000 127.549898,37.187500 128.419289,39.250000 C 129.288680,41.312500 130.627576,44.462500 131.394612,46.250000 C 132.161649,48.037500 134.392963,53.325000 136.353088,58.000000 C 138.313213,62.675000 140.563331,66.636386 141.353351,66.803079 C 142.143371,66.969772 145.171276,65.957272 148.082029,64.553079 C 150.992782,63.148886 153.965088,62.000000 154.687153,62.000000 C 157.413101,62.000000 156.379450,58.493270 148.907011,42.390469 C 147.858155,40.130227 147.000000,38.003312 147.000000,37.663992 C 147.000000,37.324671 143.400000,28.925875 139.000000,19.000000 C 134.600000,9.074125 131.000000,0.738540 131.000000,0.476477 C 131.000000,0.214415 131.900000,0.000000 133.000000,0.000000 C 134.100000,0.000000 135.000000,0.529635 135.000000,1.176967 C 135.000000,1.824300 136.731966,5.986800 138.848813,10.426967 C 140.965660,14.867135 143.924019,21.650000 145.422944,25.500000 C 146.921869,29.350000 149.308458,34.975000 150.726476,38.000000 C 152.144494,41.025000 153.727761,44.625000 154.244847,46.000000 C 154.761934,47.375000 155.818379,49.773968 156.592502,51.331040 C 157.366626,52.888111 158.000000,55.039734 158.000000,56.112424 C 158.000000,59.159812 160.378067,59.345977 165.648770,56.711201 C 168.316946,55.377403 171.737500,53.988166 173.250000,53.624005 C 174.762500,53.259845 176.000000,52.351463 176.000000,51.605378 C 176.000000,50.298539 173.410080,44.013373 168.539341,33.500000 C 167.265294,30.750000 164.126608,23.550000 161.564483,17.500000 C 159.002358,11.450000 156.259488,5.037500 155.469216,3.250000 C 154.152404,0.271530 154.179102,0.000000 155.788775,0.000000 C 157.716604,0.000000 159.486415,3.065087 163.304043,13.015488 C 166.429204,21.161016 173.659593,37.542986 176.606186,43.154292 C 177.372784,44.614153 178.000000,46.540776 178.000000,47.435677 C 178.000000,50.022249 180.419076,50.274617 185.130690,48.179580 C 187.533810,47.111023 190.962500,45.678887 192.750000,44.997054 C 194.537500,44.315222 196.000000,43.629479 196.000000,43.473180 C 196.000000,43.316882 195.120091,41.458976 194.044647,39.344501 C 191.368504,34.082826 186.000000,22.205150 186.000000,21.545928 C 186.000000,21.250317 184.374001,17.519052 182.386669,13.254227 C 177.457634,2.676492 176.639790,-0.218042 178.694445,0.186618 C 179.569599,0.358978 180.604946,1.175000 180.995216,2.000000 C 187.569962,15.898474 190.000000,21.617709 190.000000,23.193280 C 190.000000,24.052287 190.617349,25.267465 191.371887,25.893676 C 192.126425,26.519887 193.687091,29.619375 194.840033,32.781427 C 195.992975,35.943480 197.559575,39.383006 198.321367,40.424818 C 199.625374,42.208154 199.845119,42.221891 202.075728,40.659511 C 203.378834,39.746780 205.271993,39.000000 206.282747,39.000000 C 207.999676,39.000000 208.076973,39.772396 207.458624,50.750000 C 206.859528,61.385782 206.994861,62.926722 208.885773,67.000000 C 210.034726,69.475000 211.413989,72.175000 211.950801,73.000000 C 213.357835,75.162403 222.586655,96.236508 233.190032,121.500000 C 234.805922,125.350000 236.713625,129.850000 237.429372,131.500000 C 241.116778,140.000506 242.299546,142.651964 243.110867,144.236431 C 243.599890,145.191468 244.000000,146.384286 244.000000,146.887137 C 244.000000,147.389989 245.746001,151.558595 247.880003,156.150706 C 250.014005,160.742818 253.241341,168.100000 255.051862,172.500000 C 256.862383,176.900000 258.965833,181.470830 259.726196,182.657401 C 260.748677,184.253015 260.807859,185.000716 259.953470,185.528757 C 258.204256,186.609831 255.554686,183.174504 252.989845,176.500000 C 251.721740,173.200000 249.180254,167.227630 247.342099,163.228066 C 245.503945,159.228503 244.000000,155.754339 244.000000,155.507702 C 244.000000,155.261065 242.923073,152.683435 241.606828,149.779635 C 238.059327,141.953407 231.000000,125.180787 231.000000,124.578324 C 231.000000,124.290315 229.918249,121.679870 228.596109,118.777335 C 227.273970,115.874801 225.023970,110.940366 223.596109,107.811925 C 222.168249,104.683484 221.000000,101.883285 221.000000,101.589261 C 221.000000,100.924145 216.882617,91.616447 212.776795,83.000000 C 211.073272,79.425000 209.381948,75.851784 209.018297,75.059519 C 208.654647,74.267255 207.826764,73.442255 207.178557,73.226186 C 206.299272,72.933091 205.996181,78.123550 205.984962,93.666667 L 205.969925,114.500000 L 209.424942,121.500000 C 211.325201,125.350000 215.425970,134.575000 218.537761,142.000000 C 223.868684,154.720041 228.093261,164.297389 230.110673,168.236431 C 230.599803,169.191468 231.000000,170.427768 231.000000,170.983763 C 231.000000,171.539758 232.301596,174.808364 233.892435,178.247332 C 235.483275,181.686299 238.013326,187.425000 239.514772,191.000000 C 241.016217,194.575000 243.474839,200.200000 244.978376,203.500000 C 249.001938,212.331017 249.420126,214.000000 247.609302,214.000000 C 246.275596,214.000000 240.000000,203.033575 240.000000,200.702963 C 240.000000,200.248215 238.920595,197.541516 237.601323,194.688075 C 230.970336,180.345978 229.000000,175.756379 229.000000,174.652594 C 229.000000,173.988268 227.200000,169.925014 225.000000,165.623142 C 222.800000,161.321269 221.000000,157.212734 221.000000,156.493064 C 221.000000,155.773394 219.897394,153.005544 218.549764,150.342286 C 216.473874,146.239802 214.134420,140.498049 207.816706,124.000000 C 205.998606,119.252223 205.241013,124.089042 204.507774,145.125737 C 203.995603,159.819960 204.106797,165.947970 204.894429,166.434754 C 206.272560,167.286485 206.364435,173.000000 205.000000,173.000000 C 204.450000,173.000000 204.000000,174.350000 204.000000,176.000000 C 204.000000,180.291331 201.900830,179.982288 189.608448,173.881252 C 187.468094,172.818937 185.550381,172.116285 185.346864,172.319803 C 185.143346,172.523321 187.023144,177.372122 189.524192,183.094918 C 192.025240,188.817713 194.464122,194.400000 194.943928,195.500000 C 195.423735,196.600000 197.032893,200.650000 198.519835,204.500000 C 200.006777,208.350000 201.446254,212.062500 201.718672,212.750000 C 201.994310,213.445625 201.480875,214.000000 200.560984,214.000000 C 198.902549,214.000000 194.029473,205.053432 194.009769,201.972506 C 194.004396,201.132385 193.381904,199.557385 192.626453,198.472506 C 191.871002,197.387628 188.860764,190.489015 185.937035,183.142257 C 181.601091,172.246879 180.149147,169.593077 178.060582,168.746015 C 176.652262,168.174842 171.779128,165.973326 167.231395,163.853759 C 159.443925,160.224244 156.000000,159.225215 156.000000,160.595708 C 156.000000,160.923347 156.640206,162.385847 157.422680,163.845708 C 159.692432,168.080381 163.000000,175.556760 163.000000,176.452602 C 163.000000,176.904236 164.721297,180.924661 166.825105,185.386878 C 168.928913,189.849095 172.115887,197.100000 173.907270,201.500000 C 175.698654,205.900000 177.577356,210.281394 178.082165,211.236431 C 179.363464,213.660493 179.252902,214.000000 177.182197,214.000000 C 175.855930,214.000000 174.501739,211.904393 172.174111,206.250000 C 170.419455,201.987500 168.987467,197.937500 168.991914,197.250000 C 168.996361,196.562500 168.550000,196.000000 168.000000,196.000000 C 167.450000,196.000000 167.000000,195.267722 167.000000,194.372715 C 167.000000,193.477708 165.700011,189.990208 164.111134,186.622715 C 160.461792,178.888232 157.247687,171.168530 154.483969,163.500000 C 152.130721,156.970406 151.394506,156.414553 136.268326,149.746925 C 126.998187,145.660643 126.163886,146.131151 130.500000,153.000000 C 131.875000,155.178141 133.000000,157.431651 133.000000,158.007800 C 133.000000,158.583949 135.250000,163.980439 138.000000,170.000000 C 140.750000,176.019561 143.000000,181.169807 143.000000,181.444993 C 143.000000,181.720178 144.185322,184.545130 145.634049,187.722665 C 148.550691,194.119819 151.695190,201.300933 153.090058,204.750000 C 153.994098,206.985406 156.080231,211.814675 156.761862,213.250000 C 156.957756,213.662500 156.177353,214.000000 155.027632,214.000000 C 153.877911,214.000000 152.677665,213.212500 152.360418,212.250000 C 152.043171,211.287500 150.932294,208.592404 149.891803,206.260898 C 148.851311,203.929393 148.000000,201.609418 148.000000,201.105399 C 148.000000,200.601380 147.143391,198.458976 146.096424,196.344501 C 142.459208,188.998707 139.000000,181.296285 139.000000,180.543296 C 139.000000,180.126747 137.730329,177.021599 136.178509,173.642967 C 134.626689,170.264335 132.330343,165.025000 131.075518,162.000000 C 129.820693,158.975000 128.186576,155.150000 127.444147,153.500000 C 126.701718,151.850000 125.960563,149.387487 125.797138,148.027748 C 125.492294,145.491378 123.444441,144.241249 108.722665,137.604493 C 100.148384,133.739103 98.944778,134.268684 101.950490,140.584222 C 103.856989,144.590117 106.599739,150.928009 107.972601,154.500000 C 108.395376,155.600000 110.023872,159.177875 111.591481,162.450833 C 113.159089,165.723791 114.527768,168.988237 114.632990,169.705156 C 114.884165,171.416526 121.702580,187.451809 129.003005,203.500000 C 133.022108,212.335011 133.429556,214.000000 131.572511,214.000000 C 130.671124,214.000000 129.118985,211.990628 127.903375,209.250000 C 123.077641,198.370244 121.701099,195.366635 120.385353,192.845708 C 119.623409,191.385847 119.000000,189.724956 119.000000,189.154838 C 119.000000,188.584720 117.200000,184.294122 115.000000,179.620174 C 112.800000,174.946226 111.000000,170.786694 111.000000,170.376768 C 111.000000,169.581753 108.072759,162.977445 104.918293,156.655499 C 103.863232,154.541024 103.000000,152.163564 103.000000,151.372256 C 103.000000,150.580947 101.875000,147.713432 100.500000,145.000000 C 99.125000,142.286568 97.998318,139.264028 97.996262,138.283244 C 97.991105,135.823317 94.310186,130.000000 92.760423,130.000000 C 92.062487,130.000000 87.780516,128.200000 83.244930,126.000000 C 78.709345,123.800000 74.323769,122.000000 73.499206,122.000000 C 71.845303,122.000000 71.494003,124.062663 72.894591,125.550000 C 73.386616,126.072500 74.914402,129.650000 76.289671,133.500000 C 77.664940,137.350000 79.476556,141.850000 80.315483,143.500000 C 81.154411,145.150000 82.504409,148.300000 83.315478,150.500000 C 85.134569,155.434224 91.281296,170.175912 94.990422,178.500000 C 98.192594,185.686373 101.778797,194.451839 102.488060,196.825868 C 102.870241,198.105096 104.705413,202.492596 106.566220,206.575868 C 109.573604,213.175137 109.747675,214.000000 108.132938,214.000000 C 106.812627,214.000000 105.341666,211.746236 102.748422,205.750000" fill="none" stroke="black" stroke-width="5"/>
</svg>
