<?xml version="1.0" encoding="utf-8" ?>
<svg baseProfile="full" height="217" version="1.1" width="259" xmlns="http://www.w3.org/2000/svg" xmlns:ev="http://www.w3.org/2001/xml-events" xmlns:xlink="http://www.w3.org/1999/xlink"><defs /><rect fill="white" height="217" width="259" x="0" y="0" /><path d="M 0,194 L 0,216 L 48,216 Z" fill="none" stroke="black" stroke-width="1" /><path d="M 0,172 L 0,190 L 54,216 L 96,216 Z" fill="none" stroke="black" stroke-width="1" /><path d="M 138,181 L 258,215 L 158,163 L 245,213 Z" fill="none" stroke="black" stroke-width="1" /><path d="M 124,160 L 128,184 L 143,168 Z" fill="none" stroke="black" stroke-width="1" /><path d="M 0,160 L 122,216 Z" fill="none" stroke="black" stroke-width="1" /><path d="M 122,148 L 123,155 L 146,165 L 151,161 Z" fill="none" stroke="black" stroke-width="1" /><path d="M 0,148 L 148,216 Z" fill="none" stroke="black" stroke-width="1" /><path d="M 160,159 L 258,203 L 258,172 L 181,138 L 240,186 Z" fill="none" stroke="black" stroke-width="1" /><path d="M 0,125 L 199,216 Z" fill="none" stroke="black" stroke-width="1" /><path d="M 184,135 L 258,168 L 258,150 L 197,122 Z" fill="none" stroke="black" stroke-width="1" /><path d="M 199,119 L 258,146 L 251,135 L 205,114 Z" fill="none" stroke="black" stroke-width="1" /><path d="M 116,110 L 120,131 L 154,146 L 122,144 L 155,157 L 174,138 Z" fill="none" stroke="black" stroke-width="1" /><path d="M 208,110 L 258,135 L 258,127 Z" fill="none" stroke="black" stroke-width="1" /><path d="M 0,91 L 120,175 Z" fill="none" stroke="black" stroke-width="1" /><path d="M 215,102 L 258,123 L 258,104 L 227,90 Z" fill="none" stroke="black" stroke-width="1" /><path d="M 113,85 L 117,107 L 176,133 L 190,121 Z" fill="none" stroke="black" stroke-width="1" /><path d="M 230,86 L 258,100 L 256,92 L 235,83 Z" fill="none" stroke="black" stroke-width="1" /><path d="M 0,79 L 115,140 Z" fill="none" stroke="black" stroke-width="1" /><path d="M 111,73 L 198,113 Z" fill="none" stroke="black" stroke-width="1" /><path d="M 110,61 L 206,104 Z" fill="none" stroke="black" stroke-width="1" /><path d="M 0,57 L 4,77 L 113,127 L 109,105 Z" fill="none" stroke="black" stroke-width="1" /><path d="M 106,37 L 110,58 L 207,101 L 221,89 Z" fill="none" stroke="black" stroke-width="1" /><path d="M 0,34 L 0,52 L 109,103 L 105,81 Z" fill="none" stroke="black" stroke-width="1" /><path d="M 120,27 L 234,75 Z" fill="none" stroke="black" stroke-width="1" /><path d="M 104,26 L 228,82 Z" fill="none" stroke="black" stroke-width="1" /><path d="M 116,25 L 116,27 L 117,27 L 117,26 Z" fill="none" stroke="black" stroke-width="1" /><path d="M 0,24 L 105,77 Z" fill="none" stroke="black" stroke-width="1" /><path d="M 110,23 L 110,24 L 111,24 L 111,23 Z" fill="none" stroke="black" stroke-width="1" /><path d="M 0,13 L 103,65 Z" fill="none" stroke="black" stroke-width="1" /><path d="M 234,0 L 258,10 L 258,0 Z" fill="none" stroke="black" stroke-width="1" /><path d="M 210,0 L 258,21 L 257,14 L 226,0 Z" fill="none" stroke="black" stroke-width="1" /><path d="M 185,0 L 258,33 L 218,7 Z" fill="none" stroke="black" stroke-width="1" /><path d="M 131,0 L 258,55 L 258,37 L 183,3 Z" fill="none" stroke="black" stroke-width="1" /><path d="M 107,0 L 258,66 Z" fill="none" stroke="black" stroke-width="1" /><path d="M 57,0 L 258,89 Z" fill="none" stroke="black" stroke-width="1" /><path d="M 33,0 L 97,29 L 94,20 Z" fill="none" stroke="black" stroke-width="1" /><path d="M 0,0 L 101,53 L 99,34 Z" fill="none" stroke="black" stroke-width="1" /></svg>