<?xml version="1.0" encoding="utf-8" ?>
<svg baseProfile="full" height="214" version="1.1" width="261" xmlns="http://www.w3.org/2000/svg" xmlns:ev="http://www.w3.org/2001/xml-events" xmlns:xlink="http://www.w3.org/1999/xlink"><defs /><rect fill="white" height="214" width="261" x="0" y="0" /><path d="M 0,179 L 0,213 L 15,213 Z" fill="none" stroke="black" stroke-width="5" /><path d="M 156,160 L 179,213 L 198,213 L 180,170 Z" fill="none" stroke="black" stroke-width="5" /><path d="M 128,147 L 156,212 L 174,213 L 152,158 Z" fill="none" stroke="black" stroke-width="5" /><path d="M 206,122 L 204,178 L 185,172 L 200,209 L 221,213 L 208,174 L 225,213 L 245,213 Z" fill="none" stroke="black" stroke-width="5" /><path d="M 72,122 L 109,212 L 129,213 L 95,132 Z" fill="none" stroke="black" stroke-width="5" /><path d="M 0,122 L 0,169 L 19,213 L 38,213 Z" fill="none" stroke="black" stroke-width="5" /><path d="M 59,109 L 59,110 L 60,111 L 63,111 L 63,109 L 62,108 L 60,108 Z" fill="none" stroke="black" stroke-width="5" /><path d="M 66,106 L 69,115 L 91,124 L 81,100 Z" fill="none" stroke="black" stroke-width="5" /><path d="M 84,98 L 96,127 L 120,137 L 101,91 Z" fill="none" stroke="black" stroke-width="5" /><path d="M 122,80 L 152,152 L 176,163 L 140,74 Z" fill="none" stroke="black" stroke-width="5" /><path d="M 0,68 L 0,114 L 41,212 L 60,213 Z" fill="none" stroke="black" stroke-width="5" /><path d="M 176,56 L 161,65 L 200,151 L 201,108 Z" fill="none" stroke="black" stroke-width="5" /><path d="M 194,48 L 181,55 L 201,100 L 203,61 L 198,49 Z" fill="none" stroke="black" stroke-width="5" /><path d="M 201,45 L 201,47 L 202,48 L 203,48 L 204,47 L 204,46 L 203,45 Z" fill="none" stroke="black" stroke-width="5" /><path d="M 250,0 L 260,23 L 260,0 Z" fill="none" stroke="black" stroke-width="5" /><path d="M 228,0 L 260,75 L 260,31 L 246,0 Z" fill="none" stroke="black" stroke-width="5" /><path d="M 205,0 L 260,131 L 260,84 L 223,0 Z" fill="none" stroke="black" stroke-width="5" /><path d="M 158,0 L 178,48 L 195,43 L 177,1 Z" fill="none" stroke="black" stroke-width="5" /><path d="M 135,0 L 158,57 L 175,52 L 154,1 Z" fill="none" stroke="black" stroke-width="5" /><path d="M 89,0 L 120,75 L 136,69 L 108,0 Z" fill="none" stroke="black" stroke-width="5" /><path d="M 43,0 L 82,93 L 97,87 L 62,1 Z" fill="none" stroke="black" stroke-width="5" /></svg>