<?xml version="1.0" encoding="utf-8" ?>
<svg baseProfile="full" height="216" version="1.1" width="260" xmlns="http://www.w3.org/2000/svg" xmlns:ev="http://www.w3.org/2001/xml-events" xmlns:xlink="http://www.w3.org/1999/xlink"><defs /><rect fill="white" height="216" width="260" x="0" y="0" /><path d="M 174,164 L 126,169 L 136,215 L 165,215 Z" fill="none" stroke="black" stroke-width="5" /><path d="M 187,119 L 180,157 L 213,154 Z" fill="none" stroke="black" stroke-width="5" /><path d="M 259,116 L 217,215 L 259,215 Z" fill="none" stroke="black" stroke-width="5" /><path d="M 249,116 L 193,117 L 225,156 L 178,165 L 168,215 L 212,215 Z" fill="none" stroke="black" stroke-width="5" /><path d="M 113,115 L 125,164 L 177,157 L 183,115 Z" fill="none" stroke="black" stroke-width="5" /><path d="M 108,114 L 84,116 L 55,171 L 121,164 Z" fill="none" stroke="black" stroke-width="5" /><path d="M 48,114 L 17,215 L 132,215 L 122,170 L 47,176 L 78,117 Z" fill="none" stroke="black" stroke-width="5" /><path d="M 43,114 L 0,114 L 0,215 L 14,212 Z" fill="none" stroke="black" stroke-width="5" /><path d="M 259,106 L 258,107 L 257,112 L 259,112 Z" fill="none" stroke="black" stroke-width="5" /><path d="M 103,84 L 88,111 L 109,110 Z" fill="none" stroke="black" stroke-width="5" /><path d="M 204,40 L 189,110 L 250,113 L 259,70 Z" fill="none" stroke="black" stroke-width="5" /><path d="M 127,38 L 105,78 L 112,110 L 183,112 Z" fill="none" stroke="black" stroke-width="5" /><path d="M 212,0 L 204,36 L 259,66 L 259,0 Z" fill="none" stroke="black" stroke-width="5" /><path d="M 139,0 L 201,32 L 208,0 Z" fill="none" stroke="black" stroke-width="5" /><path d="M 83,0 L 49,111 L 81,111 L 100,75 Z" fill="none" stroke="black" stroke-width="5" /><path d="M 79,0 L 0,85 L 0,110 L 45,109 Z" fill="none" stroke="black" stroke-width="5" /><path d="M 59,0 L 0,0 L 0,80 Z" fill="none" stroke="black" stroke-width="5" /></svg>