<?xml version="1.0" encoding="utf-8" ?>
<svg xmlns="http://www.w3.org/2000/svg" xmlns:ev="http://www.w3.org/2001/xml-events" xmlns:xlink="http://www.w3.org/1999/xlink" baseProfile="full" height="216" version="1.1" width="260">
  <defs/>
  <path d="M 13.888049,213.750000 C 14.352893,212.512500 15.700876,208.350000 16.883566,204.500000 C 18.066257,200.650000 20.422121,193.225000 22.118821,188.000000 C 25.320541,178.140274 25.454490,177.678258 28.931987,164.500000 C 30.093065,160.100000 31.639526,154.700000 32.368567,152.500000 C 33.692579,148.504578 34.598929,145.477182 37.008999,137.000000 C 37.712643,134.525000 38.951876,130.475000 39.762848,128.000000 C 40.573821,125.525000 41.582078,122.150000 42.003420,120.500000 C 42.424762,118.850000 43.051359,116.825000 43.395858,116.000000 C 43.940559,114.695561 41.706638,114.523994 26.261110,114.684038 C 5.585220,114.898278 0.000000,114.395935 -0.000000,112.322074 C -0.000000,111.091609 3.373296,110.902778 22.208331,111.078897 C 40.356835,111.248597 44.539074,111.031858 45.086289,109.893280 C 46.294433,107.379520 48.000000,101.392557 48.000000,99.665433 C 48.000000,98.734519 48.409550,97.191468 48.910111,96.236431 C 49.410671,95.281394 52.152563,87.075000 55.003202,78.000000 C 57.853841,68.925000 60.563318,60.375000 61.024262,59.000000 C 61.485205,57.625000 63.484877,51.100000 65.467976,44.500000 C 67.451075,37.900000 69.732048,31.022233 70.536805,29.216073 C 71.341562,27.409913 72.000000,25.039695 72.000000,23.948921 C 72.000000,21.949009 77.466601,4.996593 79.158428,1.750000 C 79.659995,0.787500 80.524926,0.000000 81.080497,0.000000 C 82.389826,0.000000 81.251153,6.203604 78.953142,11.590035 C 77.993431,13.839554 76.632176,18.339554 75.928131,21.590035 C 75.224085,24.840516 74.505667,27.950000 74.331645,28.500000 C 74.157622,29.050000 71.761812,36.232179 69.007620,44.460397 C 66.253429,52.688616 64.000000,60.199558 64.000000,61.151380 C 64.000000,62.103202 63.550000,63.160081 63.000000,63.500000 C 62.450000,63.839919 62.000000,65.351476 62.000000,66.859017 C 62.000000,68.366558 61.628246,70.027500 61.173880,70.550000 C 60.719514,71.072500 59.775655,73.525000 59.076416,76.000000 C 58.377176,78.475000 57.398930,81.281394 56.902536,82.236431 C 56.406141,83.191468 55.997215,84.766468 55.993810,85.736431 C 55.990406,86.706394 54.218868,92.665962 52.057060,98.979917 C 49.895252,105.293871 48.285014,110.618347 48.478754,110.812087 C 48.672493,111.005827 56.275315,111.208612 65.373912,111.262721 L 81.916817,111.361101 L 85.774720,103.930551 C 87.896567,99.843748 90.552201,94.911125 91.676129,92.969166 C 92.800058,91.027208 95.398140,86.194849 97.449646,82.230592 C 101.438451,74.522764 101.597444,71.633943 98.508044,63.000000 C 97.819240,61.075000 96.721471,57.025000 96.068558,54.000000 C 95.415644,50.975000 93.983583,44.675000 92.886198,40.000000 C 88.432999,21.028791 86.413458,11.641533 85.463992,5.500000 C 85.208906,3.850000 84.789278,1.937500 84.531484,1.250000 C 84.017990,-0.119420 86.570770,-0.503526 87.388799,0.820073 C 87.667557,1.271112 88.096322,2.746887 88.341610,4.099572 C 88.586899,5.452256 89.258819,8.345723 89.834766,10.529499 C 90.410713,12.713275 91.358506,16.637500 91.940971,19.250000 C 92.523437,21.862500 93.450000,26.025000 94.000000,28.500000 C 95.476370,35.143664 96.732597,40.713681 98.397911,48.000000 C 99.214990,51.575000 100.416668,57.304373 101.068307,60.731941 C 101.719946,64.159508 102.803808,67.717014 103.476891,68.637509 C 104.543801,70.096596 105.066342,69.554106 107.553217,64.405568 C 109.122114,61.157506 110.652679,58.275000 110.954473,58.000000 C 111.256266,57.725000 112.171991,56.150000 112.989416,54.500000 C 116.998020,46.408495 127.274790,30.003631 128.317986,30.030921 C 128.968094,30.047927 131.067304,32.185427 132.982897,34.780921 C 134.898491,37.376414 138.160991,41.553961 140.232897,44.064357 C 142.304804,46.574753 144.000000,49.049953 144.000000,49.564801 C 144.000000,50.079649 145.709915,52.371508 147.799812,54.657822 C 149.889709,56.944136 152.927209,60.768936 154.549812,63.157378 C 156.172415,65.545820 157.950000,68.007362 158.500000,68.627471 C 159.050000,69.247579 160.072442,70.597579 160.772094,71.627471 C 162.060895,73.524593 164.938698,77.558456 175.157954,91.792362 C 178.269829,96.126741 181.532329,100.389472 182.407954,101.265097 C 183.283579,102.140722 184.000000,103.339286 184.000000,103.928571 C 184.000000,104.517857 184.900000,105.000000 186.000000,105.000000 C 187.515217,105.000000 188.000000,104.333333 188.000000,102.249626 C 188.000000,99.779958 188.560450,96.823356 192.028052,81.000000 C 192.570434,78.525000 193.453462,74.025000 193.990335,71.000000 C 194.527209,67.975000 195.918121,61.225000 197.081252,56.000000 C 200.736557,39.579692 200.882603,38.568882 199.790334,37.250000 C 199.220961,36.562500 198.422530,36.000000 198.016043,36.000000 C 197.609557,36.000000 194.002337,34.200000 190.000000,32.000000 C 185.997663,29.800000 182.265319,28.000000 181.705903,28.000000 C 181.146486,28.000000 179.213831,26.875000 177.411113,25.500000 C 175.608395,24.125000 173.623394,23.000000 173.000000,23.000000 C 172.376606,23.000000 170.434081,21.920845 168.683278,20.601878 C 166.932475,19.282910 164.825000,18.045410 164.000000,17.851878 C 163.175000,17.658345 155.525000,13.675000 147.000000,9.000000 C 132.914158,1.275506 131.801379,0.471048 134.803292,0.182667 C 136.892165,-0.018002 139.465636,0.675330 141.803292,2.068574 C 148.272310,5.924113 152.274541,8.140064 161.500000,12.974225 C 166.450000,15.568036 172.141177,18.626235 174.147060,19.770221 C 176.152944,20.914208 182.227944,24.202778 187.647060,27.078156 C 193.066177,29.953533 198.081572,32.758167 198.792382,33.310676 C 199.565630,33.911717 200.443533,33.950658 200.977920,33.407618 C 201.820550,32.551344 203.927724,22.685228 206.042026,9.696682 C 207.155199,2.858257 208.497028,0.000000 210.594201,-0.000000 C 211.432309,-0.000000 211.861429,0.415196 211.547800,0.922658 C 211.050060,1.728018 209.532619,8.400735 208.460180,14.500000 C 208.266766,15.600000 207.379139,20.100000 206.487675,24.500000 C 204.146179,36.056932 204.147400,37.377956 206.500000,37.825774 C 207.600000,38.035160 209.175000,38.767224 210.000000,39.452584 C 210.825000,40.137944 215.775000,42.960441 221.000000,45.724801 C 226.225000,48.489160 233.425000,52.435098 237.000000,54.493552 C 240.575000,56.552006 246.425000,59.826933 250.000000,61.771169 C 259.215601,66.783001 260.000000,67.329678 260.000000,68.740547 C 260.000000,70.483545 256.513541,70.323706 255.009765,68.511766 C 254.330447,67.693238 250.112847,65.201924 245.637321,62.975512 C 241.161794,60.749101 235.250000,57.611727 232.500000,56.003571 C 229.750000,54.395414 226.825000,52.763502 226.000000,52.377099 C 225.175000,51.990697 223.305533,50.847776 221.845630,49.837275 C 220.385726,48.826774 218.730047,48.000000 218.166344,48.000000 C 217.602640,48.000000 214.336970,46.137228 210.909299,43.860506 C 205.021495,39.949719 204.603212,39.822154 203.338585,41.551636 C 202.602363,42.558479 202.000000,44.606665 202.000000,46.103161 C 202.000000,48.813065 200.860753,54.936421 196.995858,73.000000 C 195.877914,78.225000 194.705020,84.075000 194.389428,86.000000 C 194.073836,87.925000 192.704247,94.174637 191.345895,99.888083 C 189.533352,107.511936 189.172118,110.572043 189.988364,111.388083 C 190.698464,112.098003 196.595791,112.532137 206.300281,112.588890 C 214.660127,112.637780 228.235018,112.858730 236.466707,113.079890 L 251.433413,113.482000 L 252.719222,110.991000 C 254.031311,108.449087 258.301880,98.711081 259.293472,96.000000 C 259.595220,95.175000 259.877632,96.811062 259.921053,99.635693 C 259.964474,102.460324 259.327772,106.060324 258.506161,107.635693 C 256.603880,111.283150 256.601909,113.000000 258.500000,113.000000 C 259.325000,113.000000 260.000000,113.675000 260.000000,114.500000 C 260.000000,115.410347 259.070651,116.000000 257.635858,116.000000 C 255.724979,116.000000 254.939995,116.910690 253.541518,120.750000 C 252.589909,123.362500 251.211351,126.850000 250.478055,128.500000 C 249.744758,130.150000 248.383780,133.750000 247.453658,136.500000 C 246.523537,139.250000 244.965715,143.300000 243.991832,145.500000 C 242.186570,149.578083 233.284448,172.449902 229.979986,181.500000 C 227.328601,188.761480 223.223379,199.608070 220.517974,206.500000 C 219.222569,209.800000 217.915210,213.287500 217.612731,214.250000 C 217.310252,215.212500 216.100501,216.000000 214.924396,216.000000 C 213.271970,216.000000 212.954571,215.602311 213.527708,214.250000 C 213.935635,213.287500 214.915665,210.700000 215.705553,208.500000 C 216.495441,206.300000 219.167860,199.325000 221.644264,193.000000 C 224.120667,186.675000 227.052029,179.025000 228.158402,176.000000 C 229.264775,172.975000 230.983845,168.475000 231.978558,166.000000 C 232.973272,163.525000 234.449605,159.700000 235.259298,157.500000 C 236.068992,155.300000 237.719579,151.025000 238.927268,148.000000 C 240.134958,144.975000 242.703378,138.450000 244.634870,133.500000 C 246.566362,128.550000 248.563671,123.718606 249.073336,122.763569 C 249.583001,121.808532 249.998777,120.008532 249.997282,118.763569 L 249.994564,116.500000 L 222.074446,116.220638 C 206.718381,116.066989 193.918683,116.322556 193.630674,116.788565 C 193.342665,117.254574 194.108223,118.730287 195.331914,120.067927 C 196.555606,121.405567 198.656841,124.075000 200.001326,126.000000 C 201.345810,127.925000 202.805949,129.950000 203.246078,130.500000 C 203.686207,131.050000 206.294251,134.425000 209.041732,138.000000 C 214.738452,145.412525 214.596059,145.226110 218.398849,150.250000 C 219.960040,152.312500 221.810823,154.000000 222.511700,154.000000 C 223.940165,154.000000 225.303013,156.701829 224.206326,157.359573 C 223.817847,157.592566 219.225000,158.309553 214.000000,158.952877 C 208.775000,159.596202 201.488317,160.544983 197.807371,161.061279 C 194.126426,161.577576 189.401426,162.006634 187.307371,162.014742 C 179.402337,162.045349 178.319449,163.520662 175.941107,177.500000 C 174.464364,186.179945 173.055421,193.852467 171.992956,199.000000 C 171.482110,201.475000 170.694564,205.751997 170.242854,208.504438 C 169.341424,213.997205 168.431107,216.000000 166.835948,216.000000 C 165.597632,216.000000 166.006442,212.523752 168.952768,198.000000 C 170.124299,192.225000 171.471880,185.250000 171.947392,182.500000 C 172.422904,179.750000 173.042975,176.825000 173.325328,176.000000 C 173.607680,175.175000 174.115489,172.137500 174.453791,169.250000 L 175.068886,164.000000 L 170.866356,164.000000 C 168.554964,164.000000 163.926965,164.420033 160.581913,164.933406 C 157.236861,165.446780 149.100000,166.370723 142.500000,166.986614 C 123.815538,168.730188 124.450694,168.274818 127.816107,177.514117 C 128.814966,180.256353 130.156102,185.200000 130.796408,188.500000 C 132.154056,195.497030 134.192503,205.843353 134.638324,208.000000 C 136.208637,215.596342 136.211393,216.000000 134.692955,216.000000 C 133.787469,216.000000 132.842182,214.668347 132.385911,212.750000 C 131.960762,210.962500 131.553857,209.275000 131.481678,209.000000 C 131.409500,208.725000 131.005417,206.250000 130.583717,203.500000 C 130.162017,200.750000 129.425463,197.150000 128.946930,195.500000 C 126.779697,188.027295 123.772275,175.270124 123.642698,173.000000 C 123.458170,169.767164 121.270173,169.448573 109.000000,170.867895 C 103.775000,171.472284 94.325000,172.449249 88.000000,173.038928 C 81.675000,173.628608 73.350000,174.514596 69.500000,175.007791 C 65.650000,175.500986 59.237500,176.196666 55.250000,176.553746 C 48.150309,177.189523 48.000000,177.154974 48.000000,174.887302 C 48.000000,172.862914 55.320493,157.342492 56.908544,156.000000 C 57.233845,155.725000 58.443216,153.700000 59.596036,151.500000 C 60.748855,149.300000 62.724543,145.700000 63.986452,143.500000 C 68.047574,136.419882 69.583255,133.627570 73.060916,127.000000 C 74.936813,123.425000 77.040519,119.905357 77.735819,119.178571 C 78.431118,118.451786 79.000000,117.101786 79.000000,116.178571 C 79.000000,114.679774 77.349893,114.500000 63.592770,114.500000 L 48.185540,114.500000 L 46.627299,117.500000 C 45.770266,119.150000 44.783735,121.850000 44.435008,123.500000 C 44.086280,125.150000 43.006016,128.975000 42.034421,132.000000 C 41.062825,135.025000 39.717658,139.525000 39.045161,142.000000 C 38.372663,144.475000 36.575427,150.550000 35.051304,155.500000 C 33.527180,160.450000 31.714943,166.525000 31.024109,169.000000 C 30.333275,171.475000 29.433662,174.625000 29.024967,176.000000 C 28.616273,177.375000 27.514895,181.200000 26.577460,184.500000 C 25.640025,187.800000 24.451600,191.737500 23.936516,193.250000 C 23.421432,194.762500 22.577713,197.237500 22.061585,198.750000 C 21.545457,200.262500 20.593268,203.525000 19.945609,206.000000 C 17.858266,213.976690 16.837407,216.000000 14.900118,216.000000 C 13.390336,216.000000 13.200995,215.579062 13.888049,213.750000" fill="none" stroke="black" stroke-width="5"/>
</svg>
