<?xml version="1.0" encoding="utf-8" ?>
<svg baseProfile="full" height="218" version="1.1" width="260" xmlns="http://www.w3.org/2000/svg" xmlns:ev="http://www.w3.org/2001/xml-events" xmlns:xlink="http://www.w3.org/1999/xlink"><defs /><rect fill="white" height="218" width="260" x="0" y="0" /><path d="M 148,208 L 136,196 L 115,217 L 139,217 Z" fill="none" stroke="black" stroke-width="5" /><path d="M 134,192 L 122,181 L 85,217 L 110,217 Z" fill="none" stroke="black" stroke-width="5" /><path d="M 162,172 L 141,191 L 148,201 Z" fill="none" stroke="black" stroke-width="5" /><path d="M 118,173 L 109,165 L 56,217 L 79,217 Z" fill="none" stroke="black" stroke-width="5" /><path d="M 102,154 L 25,217 L 51,217 L 107,164 Z" fill="none" stroke="black" stroke-width="5" /><path d="M 259,136 L 177,217 L 259,217 L 259,167 L 209,210 Z" fill="none" stroke="black" stroke-width="5" /><path d="M 90,140 L 0,217 L 20,217 Z" fill="none" stroke="black" stroke-width="5" /><path d="M 184,121 L 127,175 L 138,189 L 166,164 Z" fill="none" stroke="black" stroke-width="5" /><path d="M 71,118 L 0,184 L 0,206 L 80,131 Z" fill="none" stroke="black" stroke-width="5" /><path d="M 259,107 L 146,217 L 213,177 Z" fill="none" stroke="black" stroke-width="5" /><path d="M 58,102 L 0,154 L 0,178 L 66,115 Z" fill="none" stroke="black" stroke-width="5" /><path d="M 45,86 L 1,123 L 0,150 L 54,99 Z" fill="none" stroke="black" stroke-width="5" /><path d="M 72,81 L 58,84 L 53,88 L 59,93 Z" fill="none" stroke="black" stroke-width="5" /><path d="M 259,79 L 153,205 L 259,103 Z" fill="none" stroke="black" stroke-width="5" /><path d="M 206,72 L 115,159 L 124,173 L 186,115 Z" fill="none" stroke="black" stroke-width="5" /><path d="M 114,69 L 77,80 L 61,98 L 72,109 Z" fill="none" stroke="black" stroke-width="5" /><path d="M 155,58 L 119,68 L 74,114 L 86,125 Z" fill="none" stroke="black" stroke-width="5" /><path d="M 259,49 L 193,112 L 177,151 L 259,73 Z" fill="none" stroke="black" stroke-width="5" /><path d="M 197,46 L 163,55 L 87,130 L 99,141 Z" fill="none" stroke="black" stroke-width="5" /><path d="M 219,40 L 101,144 L 112,158 Z" fill="none" stroke="black" stroke-width="5" /><path d="M 259,21 L 215,62 L 198,102 L 259,44 Z" fill="none" stroke="black" stroke-width="5" /><path d="M 259,0 L 213,35 L 227,32 L 220,52 L 259,15 Z" fill="none" stroke="black" stroke-width="5" /><path d="M 244,0 L 220,0 L 172,47 L 206,38 Z" fill="none" stroke="black" stroke-width="5" /><path d="M 215,0 L 191,0 L 131,58 L 165,49 Z" fill="none" stroke="black" stroke-width="5" /><path d="M 186,0 L 163,0 L 89,71 L 126,59 Z" fill="none" stroke="black" stroke-width="5" /><path d="M 157,0 L 132,0 L 45,82 L 84,71 Z" fill="none" stroke="black" stroke-width="5" /><path d="M 126,0 L 5,92 L 0,120 Z" fill="none" stroke="black" stroke-width="5" /><path d="M 98,0 L 71,1 L 23,46 L 0,92 Z" fill="none" stroke="black" stroke-width="5" /><path d="M 67,0 L 41,0 L 1,38 L 0,63 Z" fill="none" stroke="black" stroke-width="5" /><path d="M 36,0 L 6,5 L 0,11 L 0,35 Z" fill="none" stroke="black" stroke-width="5" /><path d="M 6,0 L 0,0 L 0,6 Z" fill="none" stroke="black" stroke-width="5" /></svg>