<?xml version="1.0" encoding="utf-8" ?>
<svg xmlns="http://www.w3.org/2000/svg" xmlns:ev="http://www.w3.org/2001/xml-events" xmlns:xlink="http://www.w3.org/1999/xlink" baseProfile="full" height="216" version="1.1" width="257">
  <defs/>
  <path d="M 29.225053,171.999571 C 29.532296,122.830718 30.106994,126.384810 22.372124,129.619111 C 18.827812,131.101149 13.750593,132.203664 3.750000,133.662893 C 0.762970,134.098743 -0.000000,133.887389 -0.000000,132.624088 C -0.000000,131.697443 1.143255,130.803417 2.750000,130.473585 C 4.262500,130.163100 7.127209,129.479526 9.116020,128.954533 C 11.104830,128.429540 13.890773,128.000000 15.307003,128.000000 C 16.723232,128.000000 18.123423,127.609314 18.418538,127.131808 C 18.713653,126.654303 21.215210,125.963803 23.977555,125.597365 L 29.000000,124.931114 L 29.000000,105.465557 C 29.000000,94.250261 28.609144,86.000000 28.077819,86.000000 C 27.570619,86.000000 23.633119,88.245415 19.327819,90.989811 C 12.542122,95.315326 3.301101,100.695867 0.665853,101.855653 C 0.207072,102.057564 -0.017928,101.210905 0.165853,99.974187 C 0.385350,98.497126 2.128173,96.829121 5.245293,95.112804 C 7.855205,93.675762 13.688888,90.250000 18.209035,87.500000 C 22.729181,84.750000 27.267313,82.163679 28.293772,81.752619 C 29.726086,81.179029 30.018516,80.360788 29.551353,78.233807 C 28.693161,74.326486 27.934796,11.605051 28.668905,5.250000 C 29.069445,1.782594 29.737927,0.000000 30.637681,0.000000 C 31.764152,0.000000 32.000000,6.751777 32.000000,39.000000 C 32.000000,73.824288 32.168623,78.000000 33.574894,78.000000 C 34.441086,78.000000 38.153586,76.070475 41.824894,73.712166 C 45.496202,71.353857 51.537500,67.660358 55.250000,65.504389 C 62.182944,61.478206 63.104227,60.161316 60.500000,58.000000 C 57.820269,55.776021 58.870291,55.264480 67.092071,54.788528 C 71.542710,54.530885 75.480210,53.904496 75.842071,53.396553 C 76.203932,52.888610 78.557022,51.437235 81.071160,50.171274 L 85.642320,47.869527 L 85.546825,25.184763 C 85.494303,12.708143 85.622926,1.937500 85.832654,1.250000 C 86.042382,0.562500 86.820945,0.000000 87.562794,0.000000 C 88.654730,0.000000 88.907824,4.237474 88.891733,22.250000 C 88.869662,46.956155 88.603962,46.164136 95.416375,41.699156 C 97.261816,40.489620 100.060585,38.767306 101.635861,37.871792 C 103.211138,36.976278 108.242687,33.938778 112.817083,31.121792 C 117.391479,28.304806 121.372012,26.000000 121.662712,26.000000 C 123.314943,26.000000 127.920634,21.680600 127.314373,20.699649 C 126.924344,20.068570 126.581553,15.153765 126.552615,9.777860 C 126.505990,1.116199 126.699219,0.003290 128.250000,0.001744 C 129.800116,0.000199 130.000000,1.142193 130.000000,10.000000 C 130.000000,16.259444 130.389202,20.000000 131.040493,20.000000 C 131.612763,20.000000 133.300263,19.168149 134.790493,18.151443 C 136.280722,17.134737 142.000000,13.692100 147.500000,10.501138 C 153.000000,7.310177 159.177852,3.642027 161.228560,2.349695 C 163.279268,1.057363 166.429268,0.010006 168.228560,0.022236 L 171.500000,0.044472 L 169.272028,1.772236 C 167.070192,3.479731 167.042938,3.816742 166.948808,30.500000 C 166.896422,45.350000 166.886509,58.446287 166.926780,59.602860 C 166.995847,61.586458 167.677075,61.736915 178.938379,62.255759 C 185.504488,62.558281 191.354488,63.101052 191.938379,63.461916 C 192.582540,63.860030 193.000000,68.420346 193.000000,75.059017 C 193.000000,87.428666 192.930952,87.346926 200.980753,84.506791 C 203.308466,83.685526 205.581322,83.241243 206.031544,83.519495 C 207.182501,84.230826 211.982853,81.906268 212.082190,80.589485 C 212.127394,79.990268 212.115683,61.612500 212.056166,39.750000 C 211.950575,0.963696 211.995247,-0.000000 213.898775,0.000000 C 215.804570,0.000000 215.844228,0.923270 215.616941,40.000000 C 215.456714,67.547275 215.713614,80.036867 216.442142,80.118421 C 217.023964,80.183553 217.950000,80.120547 218.500000,79.978408 C 219.050000,79.836269 222.425000,79.165770 226.000000,78.488410 C 229.575000,77.811050 236.775000,76.248966 242.000000,75.017112 C 256.515906,71.594821 257.000000,71.541582 257.000000,73.367449 C 257.000000,74.299747 255.857968,75.202463 254.250000,75.541179 C 252.737500,75.859785 250.600000,76.351658 249.500000,76.634230 C 248.400000,76.916803 242.550000,78.243298 236.500000,79.581998 C 218.196056,83.632161 216.899872,83.943849 215.969422,84.518898 C 214.676817,85.317772 214.876152,128.000000 216.172489,128.000000 C 217.056112,128.000000 224.563135,121.929172 251.750000,99.228948 C 256.641466,95.144719 256.997728,95.004292 256.966731,97.172677 C 256.922242,100.284846 255.184637,102.151125 243.974602,111.126908 C 238.735634,115.321707 233.843033,119.484207 233.102158,120.376908 C 232.361282,121.269608 231.313079,122.000000 230.772819,122.000000 C 228.627167,122.000000 214.999538,134.485655 214.979801,136.469587 C 214.968691,137.586314 214.926512,155.962373 214.886069,177.305273 C 214.818686,212.864928 214.674008,216.083704 213.156268,215.789620 C 211.648607,215.497489 211.500000,211.993259 211.500000,176.733942 C 211.500000,155.429829 211.266751,137.999372 210.981669,137.999595 C 210.696587,137.999818 208.398537,139.687500 205.874892,141.750000 C 203.351247,143.812500 199.184295,146.962179 196.614999,148.749287 L 191.943552,151.998573 L 192.221776,165.749287 C 192.495056,179.255649 192.541007,179.505813 194.807632,179.827103 C 196.076830,180.007010 196.939399,180.681804 196.724451,181.326646 C 196.091864,183.224407 187.176202,183.989683 177.500000,182.976778 C 172.550000,182.458612 167.937500,182.026860 167.250000,182.017329 C 166.298132,182.004133 166.000000,186.072089 166.000000,199.073324 C 166.000000,214.796190 165.861579,216.119817 164.250000,215.807435 C 162.658316,215.498909 162.515410,213.954351 162.670337,198.734111 L 162.840675,182.000000 L 158.604188,182.000000 C 154.833581,182.000000 153.584709,182.687303 147.247546,188.250000 C 143.331460,191.687500 137.848727,196.261199 135.063695,198.413776 L 130.000000,202.327552 L 130.000000,209.163776 C 130.000000,215.333333 129.804961,216.000000 128.000000,216.000000 C 126.476190,216.000000 126.000000,215.333333 126.000000,213.200000 C 126.000000,211.660000 126.431262,209.968738 126.958359,209.441641 C 127.520221,208.879779 127.555205,207.898340 127.042918,207.069442 C 126.354396,205.955391 124.903173,206.752308 120.198771,210.827801 C 116.915081,213.672511 113.291153,216.000000 112.145598,216.000000 C 108.748725,216.000000 110.520718,213.695060 118.927012,207.178999 L 126.726175,201.133550 L 127.253051,190.816775 C 127.542832,185.142549 127.489918,180.182975 127.135464,179.795501 C 126.315590,178.899249 91.260267,176.686148 89.370465,177.411334 C 88.363215,177.797852 88.019741,179.460740 88.169365,183.226325 C 88.284616,186.126846 88.218925,194.687500 88.023385,202.250000 C 87.704486,214.583398 87.486202,216.000000 85.904646,216.000000 C 84.292291,216.000000 84.177364,214.934798 84.561392,203.549950 C 84.792369,196.702422 85.191322,187.905922 85.447954,184.002171 C 85.777705,178.986184 85.560467,176.791637 84.707279,176.519829 C 84.043276,176.308291 78.636643,175.834725 72.692541,175.467460 L 61.885081,174.799707 L 62.421007,172.149853 C 63.097007,168.807415 63.187100,164.136372 63.036283,140.250000 L 62.914739,121.000000 L 60.667468,121.000000 C 59.431469,121.000000 55.738153,121.711457 52.460099,122.581015 C 49.182044,123.450573 43.431667,124.688165 39.681482,125.331218 L 32.862964,126.500407 L 32.681482,171.249797 C 32.510651,213.372863 32.395829,215.999210 30.725053,215.999593 C 29.047846,215.999978 28.965247,213.577063 29.225053,171.999571" fill="none" stroke="black" stroke-width="5"/>
</svg>
