<?xml version="1.0" encoding="utf-8" ?>
<svg baseProfile="full" height="216" version="1.1" width="257" xmlns="http://www.w3.org/2000/svg" xmlns:ev="http://www.w3.org/2001/xml-events" xmlns:xlink="http://www.w3.org/1999/xlink"><defs /><rect fill="white" height="216" width="257" x="0" y="0" /><path d="M 126,206 L 115,215 L 125,215 Z" fill="none" stroke="black" stroke-width="1" /><path d="M 162,182 L 130,202 L 130,215 L 162,215 Z" fill="none" stroke="black" stroke-width="1" /><path d="M 130,196 L 149,181 L 130,180 Z" fill="none" stroke="black" stroke-width="1" /><path d="M 88,178 L 88,215 L 109,215 L 126,200 L 126,179 Z" fill="none" stroke="black" stroke-width="1" /><path d="M 188,158 L 168,171 L 166,177 L 186,178 Z" fill="none" stroke="black" stroke-width="1" /><path d="M 211,138 L 192,152 L 195,183 L 166,182 L 166,215 L 211,215 Z" fill="none" stroke="black" stroke-width="1" /><path d="M 29,128 L 0,134 L 0,215 L 28,215 Z" fill="none" stroke="black" stroke-width="1" /><path d="M 33,126 L 33,215 L 83,215 L 85,177 L 61,174 L 62,121 Z" fill="none" stroke="black" stroke-width="1" /><path d="M 81,115 L 68,118 L 68,169 L 83,171 Z" fill="none" stroke="black" stroke-width="1" /><path d="M 125,105 L 88,115 L 88,171 L 126,173 Z" fill="none" stroke="black" stroke-width="1" /><path d="M 256,100 L 215,134 L 215,215 L 256,215 Z" fill="none" stroke="black" stroke-width="1" /><path d="M 162,98 L 130,105 L 132,175 L 162,171 Z" fill="none" stroke="black" stroke-width="1" /><path d="M 187,91 L 166,97 L 166,167 L 188,150 Z" fill="none" stroke="black" stroke-width="1" /><path d="M 211,86 L 193,90 L 193,146 L 211,132 Z" fill="none" stroke="black" stroke-width="1" /><path d="M 28,86 L 0,102 L 0,130 L 28,124 Z" fill="none" stroke="black" stroke-width="1" /><path d="M 256,75 L 215,85 L 215,127 L 256,94 Z" fill="none" stroke="black" stroke-width="1" /><path d="M 167,66 L 167,91 L 187,87 L 188,69 Z" fill="none" stroke="black" stroke-width="1" /><path d="M 61,66 L 32,83 L 32,123 L 62,115 Z" fill="none" stroke="black" stroke-width="1" /><path d="M 130,64 L 130,100 L 163,93 L 162,66 Z" fill="none" stroke="black" stroke-width="1" /><path d="M 90,61 L 88,109 L 125,102 L 127,65 Z" fill="none" stroke="black" stroke-width="1" /><path d="M 81,60 L 66,63 L 68,115 L 85,110 Z" fill="none" stroke="black" stroke-width="1" /><circle cx="82.0" cy="55.0" fill="none" r="2.2361679077148438" stroke="black" stroke-width="1" /><path d="M 126,28 L 88,55 L 126,58 Z" fill="none" stroke="black" stroke-width="1" /><path d="M 163,6 L 130,25 L 130,58 L 163,61 Z" fill="none" stroke="black" stroke-width="1" /><path d="M 216,0 L 215,79 L 256,71 L 256,0 Z" fill="none" stroke="black" stroke-width="1" /><path d="M 171,0 L 167,61 L 191,62 L 193,85 L 207,83 L 211,0 Z" fill="none" stroke="black" stroke-width="1" /><path d="M 130,19 L 163,0 L 130,0 Z" fill="none" stroke="black" stroke-width="1" /><path d="M 125,0 L 89,0 L 89,44 L 127,21 Z" fill="none" stroke="black" stroke-width="1" /><path d="M 85,0 L 32,0 L 32,77 L 85,47 Z" fill="none" stroke="black" stroke-width="1" /><path d="M 28,0 L 0,0 L 0,97 L 29,80 Z" fill="none" stroke="black" stroke-width="1" /></svg>