<?xml version="1.0" encoding="utf-8" ?>
<svg baseProfile="full" height="217" version="1.1" width="259" xmlns="http://www.w3.org/2000/svg" xmlns:ev="http://www.w3.org/2001/xml-events" xmlns:xlink="http://www.w3.org/1999/xlink"><defs /><rect fill="white" height="217" width="259" x="0" y="0" /><path d="M 0,172 L 0,190 L 54,216 L 96,216 Z" fill="none" stroke="black" stroke-width="1" /><path d="M 138,181 L 258,215 L 158,163 L 245,213 Z" fill="none" stroke="black" stroke-width="1" /><path d="M 160,159 L 258,203 L 258,172 L 181,138 L 240,186 Z" fill="none" stroke="black" stroke-width="1" /><path d="M 0,125 L 199,216 Z" fill="none" stroke="black" stroke-width="1" /><path d="M 184,135 L 258,168 L 258,150 L 197,122 Z" fill="none" stroke="black" stroke-width="1" /><path d="M 116,110 L 120,131 L 154,146 L 122,144 L 155,157 L 174,138 Z" fill="none" stroke="black" stroke-width="1" /><path d="M 0,91 L 120,175 Z" fill="none" stroke="black" stroke-width="1" /><path d="M 113,85 L 117,107 L 176,133 L 190,121 Z" fill="none" stroke="black" stroke-width="1" /><path d="M 0,57 L 4,77 L 113,127 L 109,105 Z" fill="none" stroke="black" stroke-width="1" /><path d="M 106,37 L 110,58 L 207,101 L 221,89 Z" fill="none" stroke="black" stroke-width="1" /><path d="M 0,34 L 0,52 L 109,103 L 105,81 Z" fill="none" stroke="black" stroke-width="1" /><path d="M 131,0 L 258,55 L 258,37 L 183,3 Z" fill="none" stroke="black" stroke-width="1" /><path d="M 57,0 L 258,89 Z" fill="none" stroke="black" stroke-width="1" /><path d="M 0,0 L 101,53 L 99,34 Z" fill="none" stroke="black" stroke-width="1" /></svg>