<?xml version="1.0" encoding="utf-8" ?>
<svg baseProfile="full" height="219" version="1.1" width="257" xmlns="http://www.w3.org/2000/svg" xmlns:ev="http://www.w3.org/2001/xml-events" xmlns:xlink="http://www.w3.org/1999/xlink"><defs /><rect fill="white" height="219" width="257" x="0" y="0" /><path d="M 209,143 L 210,180 L 256,180 L 256,142 Z" fill="none" stroke="black" stroke-width="1" /><path d="M 124,142 L 124,160 L 161,179 L 163,141 Z" fill="none" stroke="black" stroke-width="1" /><path d="M 41,140 L 40,180 L 77,179 L 78,142 Z" fill="none" stroke="black" stroke-width="1" /><path d="M 35,141 L 0,141 L 0,180 L 35,181 Z" fill="none" stroke="black" stroke-width="1" /><path d="M 210,79 L 222,101 L 213,117 L 256,116 L 256,78 Z" fill="none" stroke="black" stroke-width="1" /><path d="M 40,78 L 40,116 L 65,117 L 79,79 Z" fill="none" stroke="black" stroke-width="1" /><path d="M 0,78 L 0,117 L 36,117 L 37,78 Z" fill="none" stroke="black" stroke-width="1" /><path d="M 163,78 L 126,78 L 124,115 L 163,117 Z" fill="none" stroke="black" stroke-width="1" /><path d="M 190,16 L 191,55 L 207,54 L 208,25 L 212,54 L 256,54 L 256,17 Z" fill="none" stroke="black" stroke-width="1" /><path d="M 127,16 L 126,35 L 164,54 L 165,17 Z" fill="none" stroke="black" stroke-width="1" /><path d="M 41,16 L 40,53 L 78,54 L 79,16 Z" fill="none" stroke="black" stroke-width="1" /><path d="M 0,16 L 0,53 L 36,54 L 37,16 Z" fill="none" stroke="black" stroke-width="1" /></svg>