<?xml version="1.0" encoding="utf-8" ?>
<svg xmlns="http://www.w3.org/2000/svg" xmlns:ev="http://www.w3.org/2001/xml-events" xmlns:xlink="http://www.w3.org/1999/xlink" baseProfile="full" height="216" version="1.1" width="260">
  <defs/>
  <path d="M 12.426280,214.880719 C 12.045816,214.265114 11.711872,210.243240 11.684184,205.943221 C 11.635865,198.439270 11.791937,197.896352 15.566921,192.436632 C 21.812548,183.403645 26.000000,175.946941 26.000000,173.858178 C 26.000000,172.171292 25.718060,172.079165 23.750000,173.122963 C 22.512500,173.779295 19.025000,176.784765 16.000000,179.801787 C 7.010292,188.767784 0.000000,192.359776 0.000000,188.000000 C 0.000000,186.679089 0.666667,186.000000 1.963414,186.000000 C 3.043291,186.000000 6.755791,183.412500 10.213414,180.250000 C 17.635615,173.461314 22.392163,170.000000 24.298992,170.000000 C 26.093258,170.000000 28.322070,165.128466 27.209684,163.638077 C 26.742497,163.012135 25.759555,160.594726 25.025367,158.266058 C 23.744634,154.203878 17.549509,146.999080 10.178958,141.000000 C 8.489614,139.625000 6.151684,136.587500 4.983558,134.250000 C 3.815432,131.912500 2.163802,130.000000 1.313269,130.000000 C 0.118712,130.000000 -0.069638,129.374277 0.485487,127.250000 C 0.880740,125.737500 1.345409,121.101089 1.518085,116.946865 C 1.852316,108.905985 3.749648,104.736136 12.514893,92.778698 C 16.528631,87.303207 17.881770,79.976268 16.099938,73.366488 C 14.491327,67.399279 12.843585,66.339017 8.227024,68.300550 C 1.316144,71.236918 -0.000000,71.359595 -0.000000,69.067388 C -0.000000,67.888139 0.650221,67.000000 1.513569,67.000000 C 2.346032,67.000000 3.808532,66.582849 4.763569,66.072998 C 5.718606,65.563147 7.287500,64.902270 8.250000,64.604383 C 11.431575,63.619707 10.116327,60.581920 4.998067,57.093493 C 1.025913,54.386213 0.000000,53.119115 0.000000,50.920417 L -0.000000,48.153846 L 2.914120,50.826923 C 8.733235,56.164706 13.314859,60.000000 13.872234,60.000000 C 14.185608,60.000000 16.930054,57.576617 19.971003,54.614705 C 26.364659,48.387225 33.806601,44.000000 37.976466,44.000000 C 42.240013,44.000000 42.799715,42.048516 39.389706,39.072524 C 37.768472,37.657636 35.164995,33.914657 33.604202,30.754794 C 31.113490,25.712285 30.833587,24.244564 31.315733,18.754794 C 31.617867,15.314657 32.473916,9.800000 33.218063,6.500000 C 34.431451,1.119100 34.851146,0.467350 37.285529,0.183578 C 40.408372,-0.180448 40.541387,0.208446 38.538104,3.845708 C 36.956641,6.717091 34.000000,17.954825 34.000000,21.094336 C 34.000000,22.157377 34.400110,23.808532 34.889133,24.763569 C 35.378157,25.718606 36.615657,28.262793 37.639133,30.417318 C 40.869145,37.216829 47.148624,42.657638 53.977748,44.573793 C 57.996715,45.701458 61.615573,47.631201 64.763086,50.325037 C 67.368389,52.554815 70.244150,54.999377 71.153667,55.757397 C 73.244365,57.499850 83.247740,59.920543 88.500000,59.954994 C 92.938354,59.984107 100.291764,56.218008 105.793896,51.097806 C 109.677586,47.483703 109.497513,46.890863 102.271107,39.500000 C 90.603062,27.566418 84.821296,16.905240 86.430040,10.290168 C 86.803243,8.755576 87.428504,5.929844 87.819509,4.010765 C 88.616904,0.097098 92.000000,-1.637229 92.000000,1.867659 C 92.000000,2.975528 91.550000,4.160081 91.000000,4.500000 C 90.450000,4.839919 90.000000,7.584403 90.000000,10.598855 C 90.000000,18.579447 93.840851,25.519611 104.708288,37.175763 C 107.618730,40.297432 110.000000,43.334932 110.000000,43.925763 C 110.000000,45.742913 112.045774,45.129282 115.856096,42.169223 C 117.860243,40.612296 121.450078,38.575904 123.833506,37.643907 C 133.647951,33.806148 150.467066,38.080586 154.571443,45.455698 C 156.259477,48.488908 158.000000,48.497038 158.000000,45.471712 C 158.000000,43.401667 156.146810,41.020610 150.008020,35.203283 C 141.404873,27.050645 137.645223,21.070623 135.291294,11.795164 C 134.056502,6.929569 134.035220,5.541718 135.156554,3.008450 C 136.974218,-1.097939 139.022026,-0.943788 138.365413,3.250000 C 137.787798,6.939232 140.210073,17.145473 142.488570,20.622899 C 144.481775,23.664914 150.417181,29.572016 153.529818,31.611494 C 154.888418,32.501683 156.000000,34.008521 156.000000,34.960022 C 156.000000,35.911524 156.830120,37.441273 157.844710,38.359465 C 158.859301,39.277656 160.252813,41.934901 160.941405,44.264452 C 162.801834,50.558408 163.200912,51.083125 167.163487,52.445393 C 171.232421,53.844226 181.678035,52.913399 186.000000,50.766839 C 190.665563,48.449625 196.000000,43.673131 196.000000,41.812764 C 196.000000,39.074915 191.428523,32.137996 186.145023,26.858477 C 177.612388,18.332271 176.800024,17.260793 174.398458,11.365214 C 171.679557,4.690613 171.274549,0.000000 173.417136,0.000000 C 174.315997,0.000000 175.243636,1.908800 175.953610,5.219292 C 177.314299,11.563968 181.673452,18.599228 186.793452,22.713772 C 188.887010,24.396201 192.377439,28.411369 194.549960,31.636367 C 196.722482,34.861365 198.925225,37.805775 199.444944,38.179499 C 199.964663,38.553224 202.214663,36.916997 204.444944,34.543440 C 208.125376,30.626573 209.146690,30.126989 215.500000,29.135774 C 219.350000,28.535115 223.850000,27.921341 225.500000,27.771833 C 229.652277,27.395591 229.258673,25.839533 224.000000,21.841793 C 218.896706,17.962176 215.488386,11.829215 214.446965,4.651978 C 213.809131,0.256178 213.918715,-0.162816 215.621757,0.160168 C 216.950956,0.412252 217.593921,1.537097 217.821297,4.008189 C 217.998010,5.928685 218.560510,7.927500 219.071297,8.450000 C 219.582083,8.972500 220.000000,10.113260 220.000000,10.985023 C 220.000000,11.856785 222.587500,15.390126 225.750000,18.836892 C 234.823292,28.725750 239.567330,34.281623 241.455582,37.230132 C 243.596856,40.573734 253.324682,46.000000 257.177582,46.000000 C 259.246237,46.000000 260.000000,46.488868 260.000000,47.830536 C 260.000000,49.541487 259.602338,49.579124 253.912859,48.406663 C 250.564932,47.716737 247.041999,46.442996 246.084119,45.576126 C 243.711791,43.429199 242.000000,43.595646 242.000000,45.973249 C 242.000000,47.058535 241.134135,49.871035 240.075855,52.223249 C 239.017575,54.575462 237.231921,58.602076 236.107735,61.171280 C 234.983548,63.740484 233.596094,66.131594 233.024502,66.484857 C 232.452910,66.838120 231.173825,68.786044 230.182091,70.813577 C 229.190358,72.841110 227.898918,75.400000 227.312225,76.500000 C 225.012664,80.811487 224.170861,85.623018 224.912150,90.218221 C 225.514752,93.953715 226.592512,95.840503 230.086642,99.276981 C 238.273577,107.328835 239.811319,108.017497 250.171418,108.271736 C 258.127180,108.466972 259.521777,108.753210 259.809847,110.250000 C 260.102333,111.769739 259.248850,112.015582 253.323324,112.118421 C 245.200874,112.259389 246.101870,112.314656 242.731356,111.468711 C 238.895161,110.505887 239.216181,112.286253 243.884047,117.861507 C 246.020273,120.412994 248.267763,124.300445 248.878470,126.500287 C 250.250223,131.441511 250.341822,140.670708 249.027175,141.483205 C 248.492121,141.813886 247.593605,143.795518 247.030474,145.886830 C 246.467342,147.978142 244.663302,151.671642 243.021496,154.094608 C 241.379690,156.517573 240.028206,158.987526 240.018197,159.583390 C 240.008189,160.179255 241.462500,162.339552 243.250000,164.384050 C 246.375319,167.958713 246.758953,168.105036 253.250000,168.198194 C 259.300131,168.285024 260.000000,168.502354 260.000000,170.294270 C 260.000000,172.176000 259.548774,172.255329 252.320822,171.644344 C 247.510709,171.237740 243.722140,170.342281 242.180554,169.247608 C 240.826955,168.286423 239.079393,167.050000 238.297083,166.500000 C 237.248053,165.762484 236.379971,166.102633 234.989900,167.795888 C 230.991152,172.666789 234.722372,185.490630 242.389942,193.229109 C 247.335639,198.220544 254.000000,206.380846 254.000000,207.445263 C 254.000000,207.851866 254.900000,209.328706 256.000000,210.727129 C 258.465989,213.862126 258.568781,216.013323 256.250000,215.959010 C 255.154627,215.933353 253.646708,214.097161 252.218911,211.050355 C 250.116891,206.564811 238.717890,194.000000 236.750552,194.000000 C 236.281619,194.000000 235.203031,192.312500 234.353691,190.250000 C 233.504350,188.187500 232.139290,185.065427 231.320225,183.312060 C 229.838019,180.139112 229.910155,170.635781 231.470611,163.500000 C 232.075809,160.732500 231.788419,160.323038 227.762350,158.216621 C 221.032192,154.695438 212.333161,154.897369 203.817508,158.772454 C 198.012006,161.414272 196.875871,162.383356 195.160390,166.156675 C 193.472984,169.868242 193.282806,171.741779 193.852916,179.037202 C 194.603459,188.641532 195.190419,189.707639 204.000000,197.467537 C 207.025000,200.132101 209.911542,203.029454 210.414537,203.906099 C 210.917532,204.782745 211.618616,205.725000 211.972501,206.000000 C 215.877433,209.034476 217.289692,216.000000 214.000000,216.000000 C 212.722141,216.000000 212.000000,215.333333 212.000000,214.153638 C 212.000000,210.885420 209.155254,206.600314 204.267748,202.506370 C 192.596289,192.729953 190.000000,188.430298 190.000000,178.877876 C 190.000000,175.183500 189.581239,173.000000 188.872715,173.000000 C 188.252708,173.000000 184.845732,174.427517 181.301657,176.172259 C 175.951031,178.806363 173.757325,179.327829 168.370425,179.246140 C 164.802323,179.192031 161.240143,178.614264 160.454470,177.962213 C 158.535011,176.369204 154.000000,177.592538 154.000000,179.703328 C 154.000000,180.619201 154.841382,183.198127 155.869737,185.434276 C 156.898093,187.670424 158.654577,191.525000 159.773036,194.000000 C 160.891495,196.475000 164.437614,201.182155 167.653299,204.460344 C 172.600688,209.503897 176.000000,214.046506 176.000000,215.614307 C 176.000000,215.826438 175.100000,216.000000 174.000000,216.000000 C 172.900000,216.000000 172.000000,215.559216 172.000000,215.020480 C 172.000000,214.481745 168.625000,210.632941 164.500000,206.467584 C 160.375000,202.302227 157.000000,198.044568 157.000000,197.006121 C 157.000000,195.967673 156.578496,194.857530 156.063324,194.539136 C 153.600270,193.016886 151.691854,187.092891 151.540611,180.500000 C 151.452291,176.650000 150.852507,172.532003 150.207758,171.348895 C 149.563008,170.165787 145.391015,167.321377 140.936661,165.027984 C 133.128064,161.007606 132.606002,160.883006 126.368445,161.550991 C 122.810279,161.932039 119.359266,162.801293 118.699526,163.482669 C 109.582123,172.899072 106.517774,178.448212 106.139896,186.226536 C 105.736877,194.522342 107.309033,197.831608 116.008891,207.000000 C 121.494840,212.781397 123.583008,215.603379 122.537769,215.823226 C 120.490280,216.253877 114.582280,211.308171 108.782379,204.308311 C 105.320405,200.130078 103.874930,197.401666 103.351548,194.057323 C 102.494762,188.582575 102.548718,183.642030 103.513260,179.250000 C 104.359250,175.397797 103.065775,175.016501 99.272871,178.000000 C 97.874447,179.100000 95.946069,180.000000 94.987586,180.000000 C 94.029103,180.000000 92.688801,180.670045 92.009138,181.488990 C 91.329475,182.307934 90.422180,182.760921 89.992927,182.495629 C 89.563675,182.230336 87.604116,182.685291 85.638353,183.506639 C 81.171294,185.373096 73.736575,185.357706 68.500000,183.471164 C 59.109755,180.088208 57.360671,181.866508 56.668782,195.500000 C 56.285102,203.060304 56.428444,203.747329 59.276797,208.000000 C 60.934502,210.475000 63.237875,213.277494 64.395403,214.227764 C 66.476702,215.936402 66.461255,215.955422 63.000000,215.945961 C 59.148714,215.935433 56.000000,214.082921 56.000000,211.827587 C 56.000000,211.029026 55.099077,208.510963 53.997950,206.231892 C 52.365511,202.853133 52.075386,200.649209 52.426448,194.294062 C 52.900358,185.715047 53.392726,183.845427 56.271817,179.692425 C 57.342318,178.148258 58.056592,176.782139 57.859091,176.656604 C 48.714548,170.844164 42.482209,168.652157 35.638100,168.841147 C 32.916056,168.916312 30.000000,171.948946 30.000000,174.704647 C 30.000000,177.810505 27.716694,182.175697 22.522514,189.000000 C 20.220096,192.025000 17.274699,196.649851 15.977187,199.277448 C 13.911287,203.461108 13.766098,204.464249 14.809037,207.348446 C 16.457355,211.906789 16.339066,216.000000 14.559017,216.000000 C 13.766476,216.000000 12.806745,215.496323 12.426280,214.880719" fill="none" stroke="black" stroke-width="5"/>
</svg>
