<?xml version="1.0" encoding="utf-8" ?>
<svg baseProfile="full" height="217" version="1.1" width="259" xmlns="http://www.w3.org/2000/svg" xmlns:ev="http://www.w3.org/2001/xml-events" xmlns:xlink="http://www.w3.org/1999/xlink"><defs /><rect fill="white" height="217" width="259" x="0" y="0" /><path d="M 0,194 L 0,216 L 48,216 Z" fill="none" stroke="black" stroke-width="5" /><path d="M 0,172 L 0,190 L 54,216 L 96,216 Z" fill="none" stroke="black" stroke-width="5" /><path d="M 138,181 L 208,216 L 258,215 L 158,163 L 245,213 L 150,170 Z" fill="none" stroke="black" stroke-width="5" /><path d="M 124,160 L 128,184 L 143,168 Z" fill="none" stroke="black" stroke-width="5" /><path d="M 122,148 L 123,155 L 146,165 L 151,161 Z" fill="none" stroke="black" stroke-width="5" /><path d="M 0,125 L 0,144 L 129,204 L 199,216 L 137,186 L 124,194 L 119,178 Z" fill="none" stroke="black" stroke-width="5" /><path d="M 184,135 L 258,168 L 258,150 L 197,122 Z" fill="none" stroke="black" stroke-width="5" /><path d="M 116,110 L 120,131 L 154,146 L 121,135 L 122,144 L 155,157 L 153,148 L 174,138 Z" fill="none" stroke="black" stroke-width="5" /><path d="M 0,91 L 67,130 L 0,103 L 0,121 L 120,175 L 117,156 L 66,133 L 115,144 Z" fill="none" stroke="black" stroke-width="5" /><path d="M 215,102 L 258,123 L 258,104 L 227,90 Z" fill="none" stroke="black" stroke-width="5" /><path d="M 113,85 L 117,107 L 176,133 L 190,121 Z" fill="none" stroke="black" stroke-width="5" /><path d="M 106,37 L 110,58 L 207,101 L 221,89 Z" fill="none" stroke="black" stroke-width="5" /><path d="M 0,34 L 0,52 L 109,103 L 105,81 Z" fill="none" stroke="black" stroke-width="5" /><path d="M 116,25 L 116,27 L 117,27 L 117,26 Z" fill="none" stroke="black" stroke-width="5" /><path d="M 110,23 L 110,24 L 111,24 L 111,23 Z" fill="none" stroke="black" stroke-width="5" /><path d="M 234,0 L 258,10 L 258,0 Z" fill="none" stroke="black" stroke-width="5" /><path d="M 210,0 L 258,21 L 257,14 L 226,0 Z" fill="none" stroke="black" stroke-width="5" /><path d="M 131,0 L 258,55 L 258,37 L 183,3 Z" fill="none" stroke="black" stroke-width="5" /><path d="M 57,0 L 239,69 L 258,89 L 256,69 L 98,0 Z" fill="none" stroke="black" stroke-width="5" /><path d="M 33,0 L 97,29 L 94,20 L 48,0 Z" fill="none" stroke="black" stroke-width="5" /><path d="M 0,0 L 0,8 L 101,53 L 99,34 L 24,0 Z" fill="none" stroke="black" stroke-width="5" /></svg>