<?xml version="1.0" encoding="utf-8" ?>
<svg baseProfile="full" height="216" version="1.1" width="260" xmlns="http://www.w3.org/2000/svg" xmlns:ev="http://www.w3.org/2001/xml-events" xmlns:xlink="http://www.w3.org/1999/xlink"><defs /><rect fill="white" height="216" width="260" x="0" y="0" /><path d="M 119,215 L 103,198 L 103,176 L 82,185 L 59,182 L 56,203 L 66,215 Z" fill="none" stroke="black" stroke-width="5" /><path d="M 154,178 L 161,197 L 176,215 L 211,215 L 191,190 L 189,173 L 170,180 Z" fill="none" stroke="black" stroke-width="5" /><path d="M 25,172 L 0,190 L 0,215 L 12,215 L 11,197 Z" fill="none" stroke="black" stroke-width="5" /><path d="M 33,169 L 14,202 L 16,215 L 58,215 L 51,202 L 57,176 Z" fill="none" stroke="black" stroke-width="5" /><path d="M 236,166 L 233,170 L 235,183 L 259,215 L 259,172 L 244,171 Z" fill="none" stroke="black" stroke-width="5" /><path d="M 110,172 L 107,196 L 124,215 L 171,215 L 156,198 L 147,168 L 127,161 Z" fill="none" stroke="black" stroke-width="5" /><path d="M 196,163 L 194,186 L 216,215 L 253,215 L 229,181 L 231,160 L 214,155 Z" fill="none" stroke="black" stroke-width="5" /><path d="M 0,130 L 0,185 L 27,164 L 23,154 Z" fill="none" stroke="black" stroke-width="5" /><path d="M 99,116 L 72,128 L 48,117 L 72,149 L 66,177 L 88,179 L 115,160 L 118,138 Z" fill="none" stroke="black" stroke-width="5" /><path d="M 240,111 L 250,129 L 250,140 L 240,160 L 246,167 L 259,167 L 259,112 Z" fill="none" stroke="black" stroke-width="5" /><path d="M 6,123 L 30,165 L 62,170 L 67,148 L 41,112 L 23,112 Z" fill="none" stroke="black" stroke-width="5" /><path d="M 187,106 L 164,120 L 172,144 L 158,170 L 163,175 L 182,171 L 203,146 L 205,129 Z" fill="none" stroke="black" stroke-width="5" /><path d="M 122,103 L 121,106 L 131,123 L 134,123 L 141,113 L 131,105 Z" fill="none" stroke="black" stroke-width="5" /><path d="M 112,103 L 103,114 L 122,135 L 122,159 L 138,157 L 154,166 L 167,145 L 165,129 L 148,116 L 131,133 Z" fill="none" stroke="black" stroke-width="5" /><path d="M 191,101 L 210,131 L 204,154 L 236,155 L 246,131 L 235,112 L 216,96 Z" fill="none" stroke="black" stroke-width="5" /><path d="M 104,83 L 102,84 L 98,94 L 98,103 L 100,105 L 104,105 L 108,101 L 112,100 Z" fill="none" stroke="black" stroke-width="5" /><path d="M 166,82 L 151,81 L 148,84 L 148,103 L 150,103 Z" fill="none" stroke="black" stroke-width="5" /><path d="M 108,80 L 118,99 L 135,101 L 145,109 L 143,80 Z" fill="none" stroke="black" stroke-width="5" /><path d="M 12,67 L 0,71 L 0,125 L 1,108 L 15,88 L 16,75 Z" fill="none" stroke="black" stroke-width="5" /><path d="M 0,54 L 0,66 L 8,64 L 9,60 Z" fill="none" stroke="black" stroke-width="5" /><path d="M 110,52 L 83,64 L 59,51 L 60,72 L 46,109 L 67,123 L 88,119 L 95,111 L 97,74 L 108,70 Z" fill="none" stroke="black" stroke-width="5" /><path d="M 196,48 L 163,57 L 153,76 L 174,82 L 151,109 L 158,115 L 170,115 L 183,104 L 180,78 Z" fill="none" stroke="black" stroke-width="5" /><path d="M 242,44 L 226,77 L 225,93 L 240,107 L 259,108 L 259,50 Z" fill="none" stroke="black" stroke-width="5" /><path d="M 113,48 L 116,66 L 110,73 L 148,76 L 158,60 L 158,53 L 140,40 L 125,40 Z" fill="none" stroke="black" stroke-width="5" /><path d="M 232,34 L 214,32 L 199,44 L 198,59 L 185,81 L 188,98 L 221,91 L 221,74 L 237,49 Z" fill="none" stroke="black" stroke-width="5" /><path d="M 217,0 L 220,12 L 242,38 L 259,45 L 259,0 Z" fill="none" stroke="black" stroke-width="5" /><path d="M 175,0 L 178,12 L 200,38 L 209,29 L 228,26 L 217,16 L 213,0 Z" fill="none" stroke="black" stroke-width="5" /><path d="M 139,0 L 140,16 L 164,51 L 184,51 L 195,43 L 175,16 L 171,0 Z" fill="none" stroke="black" stroke-width="5" /><path d="M 92,0 L 90,16 L 110,44 L 138,35 L 157,47 L 135,16 L 135,0 Z" fill="none" stroke="black" stroke-width="5" /><path d="M 40,0 L 34,23 L 46,41 L 83,59 L 107,49 L 87,21 L 88,0 Z" fill="none" stroke="black" stroke-width="5" /><path d="M 34,0 L 0,0 L 0,47 L 12,59 L 41,42 L 30,25 Z" fill="none" stroke="black" stroke-width="5" /></svg>