<?xml version="1.0" encoding="utf-8" ?>
<svg baseProfile="full" height="216" version="1.1" width="256" xmlns="http://www.w3.org/2000/svg" xmlns:ev="http://www.w3.org/2001/xml-events" xmlns:xlink="http://www.w3.org/1999/xlink"><defs /><rect fill="white" height="216" width="256" x="0" y="0" /><path d="M 148,209 L 166,210 L 157,198 Z" fill="none" stroke="black" stroke-width="1" /><path d="M 104,207 L 118,207 L 112,196 Z" fill="none" stroke="black" stroke-width="1" /><path d="M 201,192 L 194,204 L 208,205 L 209,200 Z" fill="none" stroke="black" stroke-width="1" /><path d="M 97,208 L 113,189 L 127,211 L 98,213 Z" fill="black" stroke="black" stroke-width="1" /><path d="M 201,185 L 216,200 L 215,210 L 187,207 Z" fill="black" stroke="black" stroke-width="1" /><path d="M 65,185 L 66,188 L 83,187 L 75,174 L 72,174 Z" fill="none" stroke="black" stroke-width="1" /><path d="M 73,165 L 89,194 L 56,192 Z" fill="black" stroke="black" stroke-width="1" /><circle cx="149.30645751953125" cy="161.0806427001953" fill="none" r="6.061906814575195" stroke="black" stroke-width="1" /><path d="M 223,162 L 238,164 L 232,153 L 229,153 Z" fill="none" stroke="black" stroke-width="1" /><circle cx="148.64846801757812" cy="161.0851593017578" fill="black" r="12.007726669311523" stroke="black" stroke-width="1" /><circle cx="115.39473724365234" cy="157.0263214111328" fill="none" r="6.1857147216796875" stroke="black" stroke-width="1" /><circle cx="115.38999938964844" cy="157.2899932861328" fill="black" r="11.855737686157227" stroke="black" stroke-width="1" /><path d="M 216,166 L 228,145 L 247,166 L 221,170 Z" fill="black" stroke="black" stroke-width="1" /><path d="M 40,145 L 33,161 L 49,161 Z" fill="none" stroke="black" stroke-width="1" /><circle cx="185.0" cy="147.5" fill="none" r="6.265082359313965" stroke="black" stroke-width="1" /><path d="M 38,140 L 52,154 L 55,166 L 26,165 Z" fill="black" stroke="black" stroke-width="1" /><circle cx="185.22027587890625" cy="147.41258239746094" fill="black" r="11.647982597351074" stroke="black" stroke-width="1" /><circle cx="100.14286041259766" cy="132.14285278320312" fill="none" r="6.202465057373047" stroke="black" stroke-width="1" /><circle cx="100.5" cy="132.8333282470703" fill="black" r="11.702427864074707" stroke="black" stroke-width="1" /><circle cx="194.3000030517578" cy="119.30000305175781" fill="none" r="5.9482102394104" stroke="black" stroke-width="1" /><path d="M 232,120 L 246,118 L 239,110 L 236,110 Z" fill="none" stroke="black" stroke-width="1" /><circle cx="194.25" cy="119.25" fill="black" r="11.752758979797363" stroke="black" stroke-width="1" /><path d="M 33,120 L 34,123 L 52,123 L 43,108 Z" fill="none" stroke="black" stroke-width="1" /><path d="M 223,122 L 240,100 L 255,124 Z" fill="black" stroke="black" stroke-width="1" /><path d="M 40,99 L 59,128 L 26,126 Z" fill="black" stroke="black" stroke-width="1" /><circle cx="111.5" cy="100.78571319580078" fill="none" r="5.929101943969727" stroke="black" stroke-width="1" /><circle cx="111.14726257324219" cy="100.7397232055664" fill="black" r="11.479104995727539" stroke="black" stroke-width="1" /><circle cx="181.5" cy="90.5" fill="none" r="6.041623115539551" stroke="black" stroke-width="1" /><circle cx="181.61553955078125" cy="90.63545989990234" fill="black" r="11.925908088684082" stroke="black" stroke-width="1" /><circle cx="128.27777099609375" cy="73.72222137451172" fill="none" r="5.7484283447265625" stroke="black" stroke-width="1" /><path d="M 60,69 L 54,81 L 69,82 Z" fill="none" stroke="black" stroke-width="1" /><circle cx="157.5" cy="70.0" fill="none" r="5.852449893951416" stroke="black" stroke-width="1" /><circle cx="128.42225646972656" cy="73.7120132446289" fill="black" r="11.649255752563477" stroke="black" stroke-width="1" /><path d="M 59,61 L 76,86 L 47,86 Z" fill="black" stroke="black" stroke-width="1" /><circle cx="157.96939086914062" cy="70.64286041259766" fill="black" r="12.030921936035156" stroke="black" stroke-width="1" /><path d="M 210,70 L 211,74 L 230,73 L 219,57 Z" fill="none" stroke="black" stroke-width="1" /><path d="M 217,49 L 237,77 L 203,77 Z" fill="black" stroke="black" stroke-width="1" /><path d="M 90,44 L 86,55 L 97,55 L 97,50 L 93,44 Z" fill="none" stroke="black" stroke-width="1" /><path d="M 89,36 L 104,52 L 104,60 L 78,58 Z" fill="black" stroke="black" stroke-width="1" /><path d="M 182,40 L 182,44 L 200,43 L 191,30 L 188,30 Z" fill="none" stroke="black" stroke-width="1" /><path d="M 187,19 L 206,48 L 174,47 Z" fill="black" stroke="black" stroke-width="1" /><path d="M 160,16 L 155,27 L 168,27 L 165,20 Z" fill="none" stroke="black" stroke-width="1" /><path d="M 125,10 L 120,23 L 133,22 Z" fill="none" stroke="black" stroke-width="1" /><path d="M 162,8 L 176,30 L 149,34 L 146,31 Z" fill="black" stroke="black" stroke-width="1" /><path d="M 125,0 L 143,24 L 112,27 Z" fill="black" stroke="black" stroke-width="1" /><path d="M 0,0 L 0,215 L 255,215 L 255,0 Z" fill="none" stroke="black" stroke-width="1" /></svg>