<?xml version="1.0" encoding="utf-8" ?>
<svg baseProfile="full" height="222" version="1.1" width="262" xmlns="http://www.w3.org/2000/svg" xmlns:ev="http://www.w3.org/2001/xml-events" xmlns:xlink="http://www.w3.org/1999/xlink"><defs /><rect fill="white" height="222" width="262" x="0" y="0" /><path d="M 200,214 L 192,202 L 184,215 Z" fill="none" stroke="black" stroke-width="1" /><path d="M 146,201 L 140,213 L 153,213 L 153,208 Z" fill="none" stroke="black" stroke-width="1" /><circle cx="71.0" cy="206.36363220214844" fill="none" r="5.72448205947876" stroke="black" stroke-width="1" /><circle cx="29.0" cy="196.5" fill="none" r="5.590270042419434" stroke="black" stroke-width="1" /><path d="M 101,180 L 96,192 L 108,192 L 108,188 Z" fill="none" stroke="black" stroke-width="1" /><circle cx="128.1914825439453" cy="182.97872924804688" fill="none" r="6.268476963043213" stroke="black" stroke-width="1" /><path d="M 225,175 L 220,177 L 215,187 L 229,187 Z" fill="none" stroke="black" stroke-width="1" /><circle cx="34.04545593261719" cy="161.59091186523438" fill="none" r="5.509293556213379" stroke="black" stroke-width="1" /><path d="M 69,162 L 80,164 L 80,161 L 76,156 L 73,156 Z" fill="none" stroke="black" stroke-width="1" /><circle cx="174.34210205078125" cy="151.6052703857422" fill="none" r="5.643847465515137" stroke="black" stroke-width="1" /><path d="M 202,129 L 198,140 L 209,140 L 209,136 Z" fill="none" stroke="black" stroke-width="1" /><path d="M 53,130 L 44,121 L 37,135 L 53,133 Z" fill="none" stroke="black" stroke-width="1" /><circle cx="225.78378295898438" cy="103.33783721923828" fill="none" r="5.474740505218506" stroke="black" stroke-width="1" /><path d="M 163,110 L 179,111 L 179,108 L 171,98 Z" fill="none" stroke="black" stroke-width="1" /><circle cx="66.42105102539062" cy="102.89473724365234" fill="none" r="5.532679080963135" stroke="black" stroke-width="1" /><path d="M 29,80 L 25,77 L 19,88 L 31,88 Z" fill="none" stroke="black" stroke-width="1" /><circle cx="92.0" cy="76.0" fill="none" r="5.385264873504639" stroke="black" stroke-width="1" /><path d="M 131,63 L 125,71 L 127,75 L 136,73 Z" fill="none" stroke="black" stroke-width="1" /><circle cx="239.8333282470703" cy="67.16666412353516" fill="none" r="5.602678298950195" stroke="black" stroke-width="1" /><path d="M 90,36 L 83,49 L 98,49 Z" fill="none" stroke="black" stroke-width="1" /><circle cx="147.1666717529297" cy="38.16666793823242" fill="none" r="5.296845436096191" stroke="black" stroke-width="1" /><path d="M 33,32 L 25,45 L 39,45 L 39,40 Z" fill="none" stroke="black" stroke-width="1" /><circle cx="221.64285278320312" cy="30.0" fill="none" r="5.52786111831665" stroke="black" stroke-width="1" /><circle cx="189.0" cy="28.66666603088379" fill="none" r="5.270562648773193" stroke="black" stroke-width="1" /><path d="M 0,0 L 0,221 L 261,221 L 261,0 Z" fill="none" stroke="black" stroke-width="1" /></svg>