<?xml version="1.0" encoding="utf-8" ?>
<svg baseProfile="full" height="222" version="1.1" width="261" xmlns="http://www.w3.org/2000/svg" xmlns:ev="http://www.w3.org/2001/xml-events" xmlns:xlink="http://www.w3.org/1999/xlink"><defs /><rect fill="white" height="222" width="261" x="0" y="0" /><circle cx="137.0" cy="209.0" fill="none" r="5.831051826477051" stroke="black" stroke-width="1" /><circle cx="102.08490753173828" cy="208.6132049560547" fill="none" r="5.71719217300415" stroke="black" stroke-width="1" /><circle cx="59.58695602416992" cy="206.7608642578125" fill="none" r="5.857975006103516" stroke="black" stroke-width="1" /><circle cx="19.370967864990234" cy="208.15591430664062" fill="none" r="6.30682897567749" stroke="black" stroke-width="1" /><circle cx="175.05172729492188" cy="206.1436767578125" fill="none" r="5.950108051300049" stroke="black" stroke-width="1" /><circle cx="19.701030731201172" cy="208.82473754882812" fill="black" r="12.355095863342285" stroke="black" stroke-width="1" /><circle cx="137.10606384277344" cy="208.8030242919922" fill="black" r="11.85484790802002" stroke="black" stroke-width="1" /><circle cx="102.0" cy="208.5" fill="black" r="12.257750511169434" stroke="black" stroke-width="1" /><circle cx="174.77928161621094" cy="206.2117156982422" fill="black" r="11.985222816467285" stroke="black" stroke-width="1" /><circle cx="60.35843276977539" cy="206.9036102294922" fill="black" r="12.448271751403809" stroke="black" stroke-width="1" /><circle cx="165.3783721923828" cy="179.1621551513672" fill="none" r="5.683821201324463" stroke="black" stroke-width="1" /><circle cx="19.58823585510254" cy="173.8235321044922" fill="none" r="5.710832118988037" stroke="black" stroke-width="1" /><path d="M 140,164 L 134,178 L 149,179 Z" fill="none" stroke="black" stroke-width="1" /><circle cx="19.663461685180664" cy="173.74038696289062" fill="black" r="12.110486030578613" stroke="black" stroke-width="1" /><path d="M 125,179 L 139,155 L 154,173 L 168,167 L 177,176 L 168,190 Z" fill="black" stroke="black" stroke-width="1" /><path d="M 190,146 L 182,162 L 199,163 Z" fill="none" stroke="black" stroke-width="1" /><path d="M 105,142 L 99,156 L 112,157 L 112,151 Z" fill="none" stroke="black" stroke-width="1" /><path d="M 193,139 L 206,166 L 175,169 L 185,142 Z" fill="black" stroke="black" stroke-width="1" /><path d="M 104,134 L 121,162 L 90,160 Z" fill="black" stroke="black" stroke-width="1" /><circle cx="158.25640869140625" cy="136.06410217285156" fill="none" r="5.647256851196289" stroke="black" stroke-width="1" /><circle cx="20.690475463867188" cy="134.7857208251953" fill="none" r="6.027715682983398" stroke="black" stroke-width="1" /><circle cx="158.04347229003906" cy="136.0" fill="black" r="12.122735023498535" stroke="black" stroke-width="1" /><circle cx="20.733333587646484" cy="134.26666259765625" fill="black" r="12.047599792480469" stroke="black" stroke-width="1" /><path d="M 215,112 L 208,127 L 224,127 L 222,119 Z" fill="none" stroke="black" stroke-width="1" /><path d="M 74,110 L 68,125 L 83,125 L 78,112 Z" fill="none" stroke="black" stroke-width="1" /><path d="M 214,103 L 228,120 L 229,133 L 198,130 Z" fill="black" stroke="black" stroke-width="1" /><path d="M 78,100 L 92,128 L 60,131 Z" fill="black" stroke="black" stroke-width="1" /><circle cx="19.514925003051758" cy="101.7686538696289" fill="none" r="5.791695594787598" stroke="black" stroke-width="1" /><circle cx="154.83871459960938" cy="98.40322875976562" fill="none" r="5.402742385864258" stroke="black" stroke-width="1" /><circle cx="128.5" cy="98.5" fill="none" r="5.147915363311768" stroke="black" stroke-width="1" /><circle cx="94.875" cy="98.5" fill="none" r="5.340102672576904" stroke="black" stroke-width="1" /><circle cx="55.5" cy="98.5" fill="none" r="5.700977325439453" stroke="black" stroke-width="1" /><circle cx="19.9375" cy="102.0" fill="black" r="12.10398006439209" stroke="black" stroke-width="1" /><circle cx="95.5" cy="98.9375" fill="black" r="11.603070259094238" stroke="black" stroke-width="1" /><circle cx="154.6746063232422" cy="98.48412322998047" fill="black" r="12.192631721496582" stroke="black" stroke-width="1" /><circle cx="128.3896484375" cy="98.6827621459961" fill="black" r="12.180526733398438" stroke="black" stroke-width="1" /><circle cx="55.022796630859375" cy="97.98936462402344" fill="black" r="11.687024116516113" stroke="black" stroke-width="1" /><path d="M 203,74 L 198,86 L 209,86 L 209,82 Z" fill="none" stroke="black" stroke-width="1" /><path d="M 202,65 L 217,92 L 189,90 Z" fill="black" stroke="black" stroke-width="1" /><path d="M 86,43 L 80,58 L 96,58 L 91,46 Z" fill="none" stroke="black" stroke-width="1" /><path d="M 174,42 L 167,58 L 185,59 Z" fill="none" stroke="black" stroke-width="1" /><path d="M 172,35 L 182,40 L 190,64 L 158,62 Z" fill="black" stroke="black" stroke-width="1" /><path d="M 85,36 L 102,54 L 101,63 L 72,62 Z" fill="black" stroke="black" stroke-width="1" /><path d="M 135,27 L 128,43 L 143,42 Z" fill="none" stroke="black" stroke-width="1" /><path d="M 134,20 L 142,26 L 149,48 L 119,46 Z" fill="black" stroke="black" stroke-width="1" /><path d="M 0,0 L 0,221 L 260,221 L 260,0 Z" fill="none" stroke="black" stroke-width="1" /></svg>