<?xml version="1.0" encoding="utf-8" ?>
<svg baseProfile="full" height="221" version="1.1" width="258" xmlns="http://www.w3.org/2000/svg" xmlns:ev="http://www.w3.org/2001/xml-events" xmlns:xlink="http://www.w3.org/1999/xlink"><defs /><rect fill="white" height="221" width="258" x="0" y="0" /><path d="M 194,214 L 211,215 L 204,203 L 199,205 Z" fill="none" stroke="black" stroke-width="1" /><path d="M 158,208 L 161,211 L 173,210 L 166,199 Z" fill="none" stroke="black" stroke-width="1" /><path d="M 125,190 L 116,201 L 117,206 L 133,203 Z" fill="none" stroke="black" stroke-width="1" /><circle cx="40.3636360168457" cy="193.0" fill="none" r="5.724486827850342" stroke="black" stroke-width="1" /><circle cx="73.625" cy="190.625" fill="none" r="5.876429557800293" stroke="black" stroke-width="1" /><path d="M 211,169 L 207,175 L 207,180 L 219,180 L 219,175 L 214,169 Z" fill="none" stroke="black" stroke-width="1" /><circle cx="19.214284896850586" cy="166.5" fill="none" r="5.929102420806885" stroke="black" stroke-width="1" /><circle cx="95.5" cy="163.8000030517578" fill="none" r="6.685160160064697" stroke="black" stroke-width="1" /><path d="M 141,163 L 132,152 L 124,166 L 140,166 Z" fill="none" stroke="black" stroke-width="1" /><circle cx="116.36363983154297" cy="135.0" fill="none" r="5.724482536315918" stroke="black" stroke-width="1" /><circle cx="18.600000381469727" cy="134.0" fill="none" r="6.161268711090088" stroke="black" stroke-width="1" /><path d="M 230,132 L 222,122 L 215,131 L 215,135 L 225,135 Z" fill="none" stroke="black" stroke-width="1" /><path d="M 142,127 L 156,128 L 157,126 L 153,119 L 148,117 Z" fill="none" stroke="black" stroke-width="1" /><circle cx="30.5" cy="105.5" fill="none" r="5.700977325439453" stroke="black" stroke-width="1" /><circle cx="135.11538696289062" cy="97.73076629638672" fill="none" r="5.596217155456543" stroke="black" stroke-width="1" /><path d="M 220,77 L 214,90 L 230,90 Z" fill="none" stroke="black" stroke-width="1" /><path d="M 163,72 L 158,83 L 171,83 L 168,75 Z" fill="none" stroke="black" stroke-width="1" /><circle cx="49.0" cy="74.0" fill="none" r="5.385264873504639" stroke="black" stroke-width="1" /><circle cx="140.5" cy="64.59091186523438" fill="none" r="5.6133198738098145" stroke="black" stroke-width="1" /><circle cx="74.8125" cy="46.1875" fill="none" r="6.088639736175537" stroke="black" stroke-width="1" /><path d="M 194,40 L 189,52 L 202,52 L 202,47 L 197,40 Z" fill="none" stroke="black" stroke-width="1" /><circle cx="131.0" cy="30.6875" fill="none" r="5.676600456237793" stroke="black" stroke-width="1" /><circle cx="99.28873443603516" cy="28.725351333618164" fill="none" r="5.757242679595947" stroke="black" stroke-width="1" /><path d="M 0,0 L 0,220 L 257,220 L 257,0 Z" fill="none" stroke="black" stroke-width="1" /></svg>