<?xml version="1.0" encoding="utf-8" ?>
<svg xmlns="http://www.w3.org/2000/svg" xmlns:ev="http://www.w3.org/2001/xml-events" xmlns:xlink="http://www.w3.org/1999/xlink" baseProfile="full" height="220" version="1.1" width="257">
  <defs/>
  <path d="M 151.072676,209.587569 C 149.656931,207.881701 152.149050,205.000000 155.040044,205.000000 C 156.319907,205.000000 156.748971,204.509404 156.358664,203.492280 C 155.800630,202.038067 157.437710,198.782297 160.181118,195.890311 C 160.906503,195.125640 162.798700,192.587500 164.386001,190.250000 C 165.973301,187.912500 167.881429,186.000000 168.626285,186.000000 C 170.072728,186.000000 175.981350,193.535406 178.427717,198.500000 C 179.240776,200.150000 181.052155,202.717860 182.453003,204.206356 C 187.560229,209.633128 186.421162,210.120200 167.534321,210.585677 C 155.399316,210.884751 151.977031,210.677250 151.072676,209.587569" fill="none" stroke="black" stroke-width="5"/>
  <path d="M 205.750000,207.195209 C 201.260834,206.907154 201.000000,206.733265 201.000000,204.028542 C 201.000000,202.454511 201.363695,201.016667 201.808212,200.833333 C 202.252729,200.650000 204.165229,198.335761 206.058212,195.690581 C 213.459801,185.347892 214.579436,183.969323 216.882776,182.362662 C 219.161221,180.773367 219.349109,180.805665 221.173844,183.100296 C 224.291133,187.020333 231.000000,196.842904 231.000000,197.486944 C 231.000000,197.815120 231.900000,199.049663 233.000000,200.230375 C 234.100000,201.411086 235.000000,203.391551 235.000000,204.631408 C 235.000000,206.831058 234.703102,206.893138 222.750000,207.192847 C 216.012500,207.361781 208.362500,207.362844 205.750000,207.195209" fill="none" stroke="black" stroke-width="5"/>
  <path d="M 109.421301,205.087967 C 108.322538,203.989205 109.204653,200.157454 111.000000,198.230375 C 112.100000,197.049663 113.002082,195.727311 113.004627,195.291813 C 113.007173,194.856316 114.357173,193.061905 116.004627,191.304234 C 117.652082,189.546562 119.014221,187.746562 119.031601,187.304234 C 119.048982,186.861905 120.203991,185.202519 121.598287,183.616709 C 123.905554,180.992528 124.352043,180.850448 126.566686,182.035689 C 127.905009,182.751938 129.000000,183.634768 129.000000,183.997535 C 129.000000,184.593206 134.324548,193.046262 136.245359,195.500000 C 139.705583,199.920260 141.768224,204.025212 140.822703,204.609576 C 139.654755,205.331407 110.114774,205.781441 109.421301,205.087967" fill="none" stroke="black" stroke-width="5"/>
  <path d="M 66.015973,203.281758 C 66.024758,202.301791 67.374758,199.976521 69.015973,198.114491 C 70.657188,196.252461 72.000000,194.400940 72.000000,194.000000 C 72.000000,193.599060 73.371921,191.747539 75.048714,189.885509 C 76.725506,188.023479 78.856661,184.812500 79.784614,182.750000 C 80.767410,180.565603 82.176022,179.000000 83.158584,179.000000 C 84.766908,179.000000 91.408652,187.583576 95.567811,195.037287 C 96.630515,196.941779 98.062500,198.859861 98.750000,199.299690 C 99.437500,199.739520 100.000000,201.153441 100.000000,202.441738 L 100.000000,204.784096 L 83.000000,204.923805 C 67.303024,205.052807 66.001224,204.926946 66.015973,203.281758" fill="none" stroke="black" stroke-width="5"/>
  <path d="M 31.346679,203.252871 C 19.839190,203.003583 17.084966,202.663801 16.613538,201.435279 C 16.289001,200.589549 16.686715,199.673713 17.516859,199.355157 C 18.332586,199.042133 19.000000,198.244020 19.000000,197.581573 C 19.000000,196.919125 19.852159,195.462438 20.893687,194.344489 C 21.935214,193.226540 23.510204,190.914054 24.393665,189.205630 C 25.277125,187.497206 26.642793,185.739539 27.428483,185.299702 C 28.214173,184.859866 29.789255,182.325024 30.928666,179.666720 C 32.129063,176.866131 33.525955,174.999963 34.250161,175.229393 C 34.937572,175.447167 36.850000,178.180831 38.500000,181.304201 C 41.413899,186.820071 43.443435,190.034463 45.500000,192.390844 C 47.581540,194.775841 50.000000,199.888706 50.000000,201.904292 C 50.000000,203.476215 49.437652,203.944949 47.750000,203.779738 C 46.512500,203.658594 39.131006,203.421504 31.346679,203.252871" fill="none" stroke="black" stroke-width="5"/>
  <path d="M 186.250000,168.314529 C 184.039747,167.463677 184.900329,164.815973 189.247474,159.092371 C 191.583584,156.016567 193.723644,153.275000 194.003163,153.000000 C 194.282681,152.725000 195.769219,150.812500 197.306580,148.750000 C 201.578188,143.019277 204.677531,143.494621 209.608420,150.636726 C 217.759501,162.443090 219.072255,164.996473 218.010793,166.979833 C 217.104934,168.672446 215.647835,168.842670 202.256307,168.820336 C 194.140338,168.806800 186.937500,168.579187 186.250000,168.314529" fill="none" stroke="black" stroke-width="5"/>
  <path d="M 129.765777,164.078645 C 126.747962,161.379101 126.510372,160.718612 126.636609,155.379673 C 126.798388,148.537515 128.630956,146.477806 135.469159,145.452354 C 142.440784,144.406894 147.501833,149.266555 147.288968,156.801831 C 147.205199,159.767201 146.439673,161.143994 143.425639,163.750000 C 138.510270,167.999946 134.263608,168.102118 129.765777,164.078645" fill="none" stroke="black" stroke-width="5"/>
  <path d="M 92.750247,159.283769 C 89.201305,158.746132 85.000000,153.287784 85.000000,149.214626 C 85.000000,147.511500 85.450000,145.839919 86.000000,145.500000 C 86.550000,145.160081 87.000000,144.041482 87.000000,143.014225 C 87.000000,140.168002 92.023260,138.135582 97.525160,138.755726 C 101.409207,139.193514 102.522639,139.809414 104.097781,142.391402 C 108.318111,149.309406 107.473772,154.069959 101.305066,158.137300 C 98.501781,159.985647 97.908327,160.065179 92.750247,159.283769" fill="none" stroke="black" stroke-width="5"/>
  <path d="M 40.987113,156.484472 C 40.225259,155.566495 40.628495,154.406527 42.470413,152.217531 C 43.861686,150.564098 45.000000,148.954687 45.000000,148.641062 C 45.000000,148.327438 46.375663,146.142398 48.057029,143.785418 C 49.738395,141.428438 52.032844,138.037500 53.155805,136.250000 C 55.536878,132.459870 58.604253,132.016087 60.067690,135.250000 C 61.675095,138.802056 63.538960,141.833075 65.338781,143.821855 C 66.252451,144.831449 67.018288,146.072048 67.040641,146.578741 C 67.062993,147.085433 68.412993,149.058002 70.040641,150.962226 C 74.847283,156.585632 74.342580,156.984710 62.250000,157.122427 C 56.337500,157.189761 49.370015,157.357425 46.766699,157.495012 C 43.895426,157.646760 41.621802,157.249225 40.987113,156.484472" fill="none" stroke="black" stroke-width="5"/>
  <path d="M 165.575101,151.822023 C 162.118239,149.815753 159.063856,145.557922 159.031601,142.700340 C 158.959738,136.333708 164.187713,131.000000 170.500000,131.000000 C 175.304174,131.000000 178.433314,133.252893 179.930623,137.789785 C 181.918282,143.812452 180.331449,147.915745 174.950475,150.667636 C 169.940050,153.230025 168.340487,153.426979 165.575101,151.822023" fill="none" stroke="black" stroke-width="5"/>
  <path d="M 165.701799,126.368466 C 164.236448,124.903115 165.244232,122.306749 169.532263,116.500000 C 171.969169,113.200000 174.983826,108.802802 176.231501,106.728448 C 179.279800,101.660421 181.514199,102.167323 186.244391,109.000000 C 189.963535,114.372238 191.785571,116.772598 194.729505,120.178336 C 195.527423,121.101421 195.909099,122.711042 195.577674,123.755271 C 195.034784,125.465766 193.812180,125.669224 183.237541,125.808838 C 176.781893,125.894070 170.353310,126.212759 168.951799,126.517035 C 167.550289,126.821312 166.087789,126.754456 165.701799,126.368466" fill="none" stroke="black" stroke-width="5"/>
  <path d="M 55.000000,118.714994 C 55.000000,117.356437 55.704671,115.660064 56.565937,114.945277 C 57.427202,114.230491 58.798780,112.356009 59.613889,110.779763 C 60.428998,109.203516 62.872390,105.570741 65.043650,102.706930 C 67.214910,99.843118 68.993331,96.985645 68.995697,96.356989 C 68.998064,95.728333 69.663658,94.959308 70.474796,94.648045 C 71.470566,94.265932 73.744225,96.466620 77.474796,101.423388 C 80.513658,105.461090 83.010006,109.155114 83.022236,109.632332 C 83.034466,110.109549 83.924459,111.625000 85.000000,113.000000 C 86.075541,114.375000 86.965534,116.529784 86.977764,117.788409 C 86.999531,120.028499 86.783576,120.075852 76.750000,120.031099 C 71.112500,120.005953 63.912500,120.255317 60.750000,120.585240 C 55.139992,121.170495 55.000000,121.124961 55.000000,118.714994" fill="none" stroke="black" stroke-width="5"/>
  <path d="M 37.232073,113.000000 C 36.545112,111.900000 35.311865,111.000000 34.491526,111.000000 C 33.061172,111.000000 32.424536,107.715549 32.843941,102.500000 C 33.327065,96.492085 39.568326,92.289426 45.206581,94.175407 C 58.719215,98.695345 56.435834,115.000000 42.290207,115.000000 C 39.564100,115.000000 38.125972,114.431360 37.232073,113.000000" fill="none" stroke="black" stroke-width="5"/>
  <path d="M 217.299277,98.750000 C 211.204049,92.057997 211.700369,85.943313 218.630615,82.347858 C 226.751210,78.134843 235.000000,83.061183 235.000000,92.123976 C 235.000000,94.139447 234.021355,96.132491 232.076923,98.076923 C 229.641126,100.512721 228.336577,101.000000 224.251237,101.000000 C 220.440932,101.000000 218.892032,100.498699 217.299277,98.750000" fill="none" stroke="black" stroke-width="5"/>
  <path d="M 147.000000,85.109440 C 147.000000,84.069632 149.691710,79.119632 152.981578,74.109440 C 157.858944,66.681621 159.421566,65.000000 161.446394,65.000000 C 162.812175,65.000000 164.354149,65.787500 164.873002,66.750000 C 165.391856,67.712500 168.107689,71.599007 170.908186,75.386682 C 173.708684,79.174358 176.000000,83.336858 176.000000,84.636682 L 176.000000,87.000000 L 161.500000,87.000000 C 147.946457,87.000000 147.000000,86.876598 147.000000,85.109440" fill="none" stroke="black" stroke-width="5"/>
  <path d="M 181.000000,81.500000 C 181.000000,80.675000 181.675000,80.000000 182.500000,80.000000 C 183.325000,80.000000 184.000000,80.675000 184.000000,81.500000 C 184.000000,82.325000 183.325000,83.000000 182.500000,83.000000 C 181.675000,83.000000 181.000000,82.325000 181.000000,81.500000" fill="none" stroke="black" stroke-width="5"/>
  <path d="M 74.825448,76.895317 C 74.253906,76.540208 74.501821,75.641036 75.426111,74.716746 C 76.291750,73.851107 77.000000,72.660714 77.000000,72.071429 C 77.000000,71.482143 77.395406,71.000000 77.878680,71.000000 C 78.361953,71.000000 79.303072,69.682532 79.970055,68.072294 C 80.637037,66.462056 82.090270,64.324556 83.199461,63.322294 C 84.308652,62.320032 86.300113,59.362500 87.624932,56.750000 C 89.199252,53.645489 90.678963,52.000000 91.896384,52.000000 C 95.552115,52.000000 107.000000,68.671336 107.000000,73.995106 L 107.000000,76.902200 L 91.399336,77.201100 C 82.818971,77.365495 75.360721,77.227893 74.825448,76.895317" fill="none" stroke="black" stroke-width="5"/>
  <path d="M 21.691473,73.238208 C 14.975011,72.323841 12.516221,58.923041 18.278139,54.634988 C 22.180663,51.730707 29.595789,52.084513 32.594105,55.318062 C 35.766315,58.739149 36.464168,63.219580 34.477045,67.407130 C 33.563344,69.332613 32.294722,71.315385 31.657885,71.813291 C 30.127776,73.009594 25.193822,73.715011 21.691473,73.238208" fill="none" stroke="black" stroke-width="5"/>
  <path d="M 118.253199,70.750000 C 116.482948,69.512500 115.026785,67.712500 115.017281,66.750000 C 115.007776,65.787500 114.550000,65.000000 114.000000,65.000000 C 112.340245,65.000000 112.880856,60.707667 114.972719,57.276837 C 117.231919,53.571559 120.235200,52.540977 126.662577,53.265435 C 132.245422,53.894703 133.993676,55.533962 134.700270,60.802016 C 135.495567,66.731393 134.443087,69.632475 130.845597,71.427140 C 126.440120,73.624881 122.026198,73.387528 118.253199,70.750000" fill="none" stroke="black" stroke-width="5"/>
  <path d="M 184.700255,71.704359 C 180.572356,70.697772 178.580337,68.339983 177.505097,63.188041 C 176.533839,58.534320 180.830629,52.310001 185.636895,51.408340 C 192.402688,50.139070 199.000000,54.384246 199.000000,60.007104 C 199.000000,67.773018 192.013797,73.487763 184.700255,71.704359" fill="none" stroke="black" stroke-width="5"/>
  <path d="M 60.373441,69.285811 C 55.522202,68.674294 52.659843,64.928965 52.572982,59.079096 C 52.485577,53.192619 55.258581,49.549274 60.587110,48.549636 C 70.649528,46.661915 77.181035,58.877672 70.411106,66.923275 C 67.841076,69.977583 67.150599,70.140098 60.373441,69.285811" fill="none" stroke="black" stroke-width="5"/>
  <path d="M 218.395655,67.099539 C 213.525335,64.129687 213.196327,56.076734 217.730662,50.822852 C 220.005757,48.186724 226.265622,47.557680 230.452449,49.544460 C 234.986956,51.696224 235.031888,51.781765 235.211395,58.604399 C 235.347774,63.787870 235.097641,64.511143 232.430627,66.645140 C 228.787637,69.560059 222.751213,69.755496 218.395655,67.099539" fill="none" stroke="black" stroke-width="5"/>
  <path d="M 107.999664,41.099680 C 108.000266,38.591742 121.346750,19.000000 123.054631,19.000000 C 124.821400,19.000000 129.993694,24.236015 132.035413,28.091421 C 132.736948,29.416140 134.853004,32.391540 136.737760,34.703421 C 142.502548,41.774634 141.885301,42.137143 123.749664,42.331343 C 110.833893,42.469647 107.999389,42.247986 107.999664,41.099680" fill="none" stroke="black" stroke-width="5"/>
</svg>
