<?xml version="1.0" encoding="utf-8" ?>
<svg baseProfile="full" height="220" version="1.1" width="257" xmlns="http://www.w3.org/2000/svg" xmlns:ev="http://www.w3.org/2001/xml-events" xmlns:xlink="http://www.w3.org/1999/xlink"><defs /><rect fill="white" height="220" width="257" x="0" y="0" /><path d="M 161,201 L 161,205 L 176,205 L 169,193 Z" fill="none" stroke="black" stroke-width="1" /><path d="M 227,199 L 218,188 L 208,201 L 226,202 Z" fill="none" stroke="black" stroke-width="1" /><path d="M 116,200 L 132,200 L 124,187 Z" fill="none" stroke="black" stroke-width="1" /><path d="M 75,199 L 91,199 L 84,187 Z" fill="none" stroke="black" stroke-width="1" /><path d="M 34,184 L 27,198 L 41,198 Z" fill="none" stroke="black" stroke-width="1" /><path d="M 192,163 L 212,164 L 203,151 Z" fill="none" stroke="black" stroke-width="1" /><circle cx="136.63888549804688" cy="155.80555725097656" fill="none" r="6.050943374633789" stroke="black" stroke-width="1" /><circle cx="95.3072280883789" cy="148.42770385742188" fill="none" r="5.897846221923828" stroke="black" stroke-width="1" /><path d="M 49,152 L 64,152 L 56,140 Z" fill="none" stroke="black" stroke-width="1" /><circle cx="170.1666717529297" cy="141.1666717529297" fill="none" r="5.892658710479736" stroke="black" stroke-width="1" /><path d="M 173,119 L 174,122 L 187,120 L 181,110 Z" fill="none" stroke="black" stroke-width="1" /><path d="M 63,115 L 79,115 L 72,103 L 69,103 Z" fill="none" stroke="black" stroke-width="1" /><circle cx="43.75" cy="104.0" fill="none" r="5.6181511878967285" stroke="black" stroke-width="1" /><circle cx="223.74359130859375" cy="90.93589782714844" fill="none" r="5.647254467010498" stroke="black" stroke-width="1" /><circle cx="182.0" cy="81.0" fill="black" r="2.2361679077148438" stroke="black" stroke-width="1" /><path d="M 155,78 L 157,82 L 170,81 L 161,71 Z" fill="none" stroke="black" stroke-width="1" /><path d="M 84,69 L 84,72 L 100,71 L 93,59 Z" fill="none" stroke="black" stroke-width="1" /><circle cx="124.625" cy="62.375" fill="none" r="5.876429557800293" stroke="black" stroke-width="1" /><circle cx="24.633333206176758" cy="62.63333511352539" fill="none" r="5.865439414978027" stroke="black" stroke-width="1" /><path d="M 185,55 L 182,63 L 190,67 L 193,59 Z" fill="none" stroke="black" stroke-width="1" /><circle cx="225.5" cy="58.5" fill="none" r="5.700977325439453" stroke="black" stroke-width="1" /><path d="M 57,57 L 59,63 L 68,63 L 65,54 Z" fill="none" stroke="black" stroke-width="1" /><path d="M 121,25 L 116,35 L 129,36 L 124,25 Z" fill="none" stroke="black" stroke-width="1" /><path d="M 0,0 L 0,219 L 256,219 L 256,0 Z" fill="none" stroke="black" stroke-width="1" /></svg>