<?xml version="1.0" encoding="utf-8" ?>
<svg baseProfile="full" height="223" version="1.1" width="256" xmlns="http://www.w3.org/2000/svg" xmlns:ev="http://www.w3.org/2001/xml-events" xmlns:xlink="http://www.w3.org/1999/xlink"><defs /><rect fill="white" height="223" width="256" x="0" y="0" /><path d="M 196,207 L 194,209 L 194,216 L 195,218 L 200,218 L 205,213 L 203,209 Z" fill="none" stroke="black" stroke-width="5" /><path d="M 237,204 L 232,206 L 232,214 L 236,215 L 239,214 L 243,210 L 242,207 Z" fill="none" stroke="black" stroke-width="5" /><path d="M 96,210 L 97,212 L 98,211 L 111,211 L 110,207 L 106,202 L 102,202 Z" fill="none" stroke="black" stroke-width="5" /><path d="M 133,211 L 149,210 L 149,208 L 143,199 L 140,199 Z" fill="none" stroke="black" stroke-width="5" /><path d="M 60,206 L 60,208 L 71,208 L 71,206 L 67,202 L 66,199 L 63,201 L 62,204 Z" fill="none" stroke="black" stroke-width="5" /><path d="M 10,205 L 10,207 L 14,208 L 26,207 L 25,202 L 19,194 L 16,195 Z" fill="none" stroke="black" stroke-width="5" /><path d="M 170,184 L 168,186 L 167,191 L 169,194 L 172,195 L 174,194 L 175,195 L 179,192 L 177,186 Z" fill="none" stroke="black" stroke-width="5" /><path d="M 236,174 L 231,178 L 231,183 L 237,186 L 241,181 L 241,177 Z" fill="none" stroke="black" stroke-width="5" /><path d="M 100,167 L 100,172 L 114,170 L 107,161 L 104,161 Z" fill="none" stroke="black" stroke-width="5" /><path d="M 148,159 L 146,162 L 146,166 L 150,170 L 153,170 L 157,166 L 157,163 L 153,159 Z" fill="none" stroke="black" stroke-width="5" /><path d="M 18,153 L 11,167 L 26,167 L 27,164 L 23,157 Z" fill="none" stroke="black" stroke-width="5" /><path d="M 186,140 L 183,141 L 180,144 L 181,148 L 185,151 L 187,151 L 191,146 L 191,143 Z" fill="none" stroke="black" stroke-width="5" /><path d="M 239,136 L 235,139 L 235,144 L 237,146 L 243,146 L 245,144 L 245,140 L 242,137 Z" fill="none" stroke="black" stroke-width="5" /><path d="M 73,136 L 73,138 L 93,136 L 83,123 L 81,123 Z" fill="none" stroke="black" stroke-width="5" /><path d="M 30,128 L 24,122 L 20,114 L 9,127 L 10,129 Z" fill="none" stroke="black" stroke-width="5" /><path d="M 146,124 L 146,128 L 166,128 L 155,113 Z" fill="none" stroke="black" stroke-width="5" /><path d="M 112,119 L 113,122 L 129,120 L 121,110 L 119,110 Z" fill="none" stroke="black" stroke-width="5" /><path d="M 207,101 L 202,105 L 202,110 L 204,112 L 209,112 L 211,111 L 211,104 Z" fill="none" stroke="black" stroke-width="5" /><path d="M 240,99 L 237,101 L 238,102 L 237,106 L 238,109 L 243,110 L 247,107 L 247,101 L 243,99 Z" fill="none" stroke="black" stroke-width="5" /><path d="M 164,83 L 164,85 L 167,86 L 181,85 L 179,79 L 174,72 L 171,72 Z" fill="none" stroke="black" stroke-width="5" /><path d="M 27,78 L 23,71 L 19,69 L 11,80 L 21,81 L 27,80 Z" fill="none" stroke="black" stroke-width="5" /><path d="M 244,62 L 238,63 L 236,66 L 236,68 L 240,72 L 244,72 L 247,69 L 247,65 Z" fill="none" stroke="black" stroke-width="5" /><path d="M 199,60 L 196,63 L 196,70 L 204,70 L 205,69 L 205,62 Z" fill="none" stroke="black" stroke-width="5" /><path d="M 143,54 L 133,42 L 124,54 L 124,58 L 143,56 Z" fill="none" stroke="black" stroke-width="5" /><path d="M 176,35 L 173,35 L 168,39 L 168,43 L 172,46 L 176,45 L 179,42 L 179,40 Z" fill="none" stroke="black" stroke-width="5" /><path d="M 104,39 L 94,27 L 86,38 L 85,42 L 101,42 L 104,41 Z" fill="none" stroke="black" stroke-width="5" /><path d="M 55,33 L 55,35 L 67,35 L 67,31 L 62,26 L 60,26 Z" fill="none" stroke="black" stroke-width="5" /><path d="M 242,21 L 238,23 L 236,25 L 236,27 L 238,30 L 244,32 L 247,28 L 247,25 L 245,22 Z" fill="none" stroke="black" stroke-width="5" /><path d="M 15,29 L 15,32 L 28,32 L 29,31 L 29,29 L 24,21 L 21,21 Z" fill="none" stroke="black" stroke-width="5" /><path d="M 203,18 L 200,21 L 200,25 L 202,27 L 207,28 L 211,24 L 211,20 L 207,18 Z" fill="none" stroke="black" stroke-width="5" /><path d="M 0,0 L 0,222 L 255,222 L 255,0 Z" fill="none" stroke="black" stroke-width="5" /></svg>