<?xml version="1.0" encoding="utf-8" ?>
<svg baseProfile="full" height="220" version="1.1" width="257" xmlns="http://www.w3.org/2000/svg" xmlns:ev="http://www.w3.org/2001/xml-events" xmlns:xlink="http://www.w3.org/1999/xlink"><defs /><rect fill="white" height="220" width="257" x="0" y="0" /><path d="M 161,201 L 161,205 L 176,205 L 169,193 Z" fill="none" stroke="black" stroke-width="1" /><path d="M 227,199 L 218,188 L 208,201 L 226,202 Z" fill="none" stroke="black" stroke-width="1" /><path d="M 116,200 L 132,200 L 124,187 Z" fill="none" stroke="black" stroke-width="1" /><path d="M 75,199 L 91,199 L 84,187 Z" fill="none" stroke="black" stroke-width="1" /><path d="M 185,206 L 181,211 L 149,208 L 167,185 Z" fill="black" stroke="black" stroke-width="1" /><path d="M 34,184 L 27,198 L 41,198 Z" fill="none" stroke="black" stroke-width="1" /><path d="M 235,202 L 234,207 L 200,206 L 218,180 Z" fill="black" stroke="black" stroke-width="1" /><path d="M 108,200 L 125,180 L 142,203 L 110,206 Z" fill="black" stroke="black" stroke-width="1" /><path d="M 65,201 L 84,178 L 100,204 Z" fill="black" stroke="black" stroke-width="1" /><path d="M 15,200 L 34,174 L 50,203 Z" fill="black" stroke="black" stroke-width="1" /><path d="M 192,163 L 212,164 L 203,151 Z" fill="none" stroke="black" stroke-width="1" /><circle cx="136.63888549804688" cy="155.80555725097656" fill="none" r="6.050943374633789" stroke="black" stroke-width="1" /><path d="M 184,164 L 205,144 L 219,165 L 187,169 Z" fill="black" stroke="black" stroke-width="1" /><circle cx="136.179443359375" cy="155.40243530273438" fill="black" r="12.025583267211914" stroke="black" stroke-width="1" /><circle cx="95.3072280883789" cy="148.42770385742188" fill="none" r="5.897846221923828" stroke="black" stroke-width="1" /><path d="M 49,152 L 64,152 L 56,140 Z" fill="none" stroke="black" stroke-width="1" /><circle cx="95.5" cy="148.40908813476562" fill="black" r="12.047697067260742" stroke="black" stroke-width="1" /><circle cx="170.1666717529297" cy="141.1666717529297" fill="none" r="5.892658710479736" stroke="black" stroke-width="1" /><path d="M 39,155 L 55,132 L 73,154 Z" fill="black" stroke="black" stroke-width="1" /><circle cx="169.45057678222656" cy="141.18060302734375" fill="black" r="12.070871353149414" stroke="black" stroke-width="1" /><path d="M 173,119 L 174,122 L 187,120 L 181,110 Z" fill="none" stroke="black" stroke-width="1" /><path d="M 164,122 L 178,102 L 196,121 L 194,126 L 168,127 Z" fill="black" stroke="black" stroke-width="1" /><path d="M 63,115 L 79,115 L 72,103 L 69,103 Z" fill="none" stroke="black" stroke-width="1" /><circle cx="43.75" cy="104.0" fill="none" r="5.6181511878967285" stroke="black" stroke-width="1" /><path d="M 87,115 L 86,120 L 54,120 L 71,93 Z" fill="black" stroke="black" stroke-width="1" /><circle cx="42.83333206176758" cy="104.16666412353516" fill="black" r="12.304119110107422" stroke="black" stroke-width="1" /><circle cx="223.74359130859375" cy="90.93589782714844" fill="none" r="5.647254467010498" stroke="black" stroke-width="1" /><circle cx="223.5" cy="90.5" fill="black" r="12.020915031433105" stroke="black" stroke-width="1" /><circle cx="182.0" cy="81.0" fill="none" r="2.2361679077148438" stroke="black" stroke-width="1" /><path d="M 155,78 L 157,82 L 170,81 L 161,71 Z" fill="none" stroke="black" stroke-width="1" /><path d="M 146,83 L 163,64 L 176,86 L 147,87 Z" fill="black" stroke="black" stroke-width="1" /><path d="M 84,69 L 84,72 L 100,71 L 93,59 Z" fill="none" stroke="black" stroke-width="1" /><circle cx="124.625" cy="62.375" fill="none" r="5.876429557800293" stroke="black" stroke-width="1" /><circle cx="24.633333206176758" cy="62.63333511352539" fill="none" r="5.865439414978027" stroke="black" stroke-width="1" /><path d="M 185,55 L 182,63 L 190,67 L 193,59 Z" fill="none" stroke="black" stroke-width="1" /><circle cx="225.5" cy="58.5" fill="none" r="5.700977325439453" stroke="black" stroke-width="1" /><path d="M 57,57 L 59,63 L 68,63 L 65,54 Z" fill="none" stroke="black" stroke-width="1" /><circle cx="123.81818389892578" cy="62.5" fill="black" r="12.079813003540039" stroke="black" stroke-width="1" /><path d="M 73,76 L 90,51 L 107,70 L 106,77 Z" fill="black" stroke="black" stroke-width="1" /><circle cx="24.5" cy="62.5" fill="black" r="11.85336971282959" stroke="black" stroke-width="1" /><circle cx="187.96478271484375" cy="61.06338119506836" fill="black" r="12.141499519348145" stroke="black" stroke-width="1" /><circle cx="224.5" cy="58.0" fill="black" r="12.093486785888672" stroke="black" stroke-width="1" /><circle cx="62.13414764404297" cy="58.93902587890625" fill="black" r="12.084046363830566" stroke="black" stroke-width="1" /><path d="M 121,25 L 116,35 L 129,36 L 124,25 Z" fill="none" stroke="black" stroke-width="1" /><path d="M 107,39 L 124,18 L 140,41 L 108,43 Z" fill="black" stroke="black" stroke-width="1" /><path d="M 0,0 L 0,219 L 256,219 L 256,0 Z" fill="none" stroke="black" stroke-width="1" /></svg>