<?xml version="1.0" encoding="utf-8" ?>
<svg baseProfile="full" height="217" version="1.1" width="260" xmlns="http://www.w3.org/2000/svg" xmlns:ev="http://www.w3.org/2001/xml-events" xmlns:xlink="http://www.w3.org/1999/xlink"><defs /><rect fill="white" height="217" width="260" x="0" y="0" /><path d="M 148,190 L 139,206 L 156,206 Z" fill="none" stroke="black" stroke-width="5" /><path d="M 186,188 L 179,201 L 194,201 L 191,191 Z" fill="none" stroke="black" stroke-width="5" /><circle cx="120.5" cy="178.5" fill="none" r="5.700977325439453" stroke="black" stroke-width="5" /><circle cx="89.0" cy="177.0" fill="none" r="5.385264873504639" stroke="black" stroke-width="5" /><path d="M 219,164 L 211,177 L 227,178 L 222,165 Z" fill="none" stroke="black" stroke-width="5" /><circle cx="58.5" cy="168.0" fill="none" r="5.852449893951416" stroke="black" stroke-width="5" /><circle cx="159.6999969482422" cy="163.3000030517578" fill="none" r="5.420436382293701" stroke="black" stroke-width="5" /><path d="M 128,143 L 122,156 L 135,156 L 135,151 Z" fill="none" stroke="black" stroke-width="5" /><circle cx="42.0" cy="140.5" fill="none" r="5.590270042419434" stroke="black" stroke-width="5" /><circle cx="169.0" cy="139.5" fill="none" r="5.590270042419434" stroke="black" stroke-width="5" /><path d="M 224,125 L 219,136 L 231,135 L 228,126 Z" fill="none" stroke="black" stroke-width="5" /><path d="M 120,124 L 135,125 L 136,123 L 130,113 L 127,113 Z" fill="none" stroke="black" stroke-width="5" /><circle cx="173.85714721679688" cy="108.28571319580078" fill="none" r="6.1029558181762695" stroke="black" stroke-width="5" /><circle cx="28.5" cy="103.0" fill="none" r="5.4084272384643555" stroke="black" stroke-width="5" /><path d="M 222,87 L 213,101 L 228,100 Z" fill="none" stroke="black" stroke-width="5" /><path d="M 141,91 L 159,92 L 150,77 Z" fill="none" stroke="black" stroke-width="5" /><circle cx="35.2746467590332" cy="70.10563659667969" fill="none" r="5.389382839202881" stroke="black" stroke-width="5" /><path d="M 185,74 L 200,74 L 194,64 Z" fill="none" stroke="black" stroke-width="5" /><circle cx="169.5" cy="54.5" fill="none" r="5.700977325439453" stroke="black" stroke-width="5" /><circle cx="49.32143020629883" cy="37.53571319580078" fill="none" r="5.864422798156738" stroke="black" stroke-width="5" /><circle cx="149.5" cy="36.0" fill="none" r="5.852449893951416" stroke="black" stroke-width="5" /><circle cx="118.83333587646484" cy="28.72222137451172" fill="none" r="5.8400421142578125" stroke="black" stroke-width="5" /><circle cx="83.2272720336914" cy="27.5" fill="none" r="5.794441223144531" stroke="black" stroke-width="5" /><path d="M 0,0 L 0,216 L 259,216 L 259,0 Z" fill="none" stroke="black" stroke-width="5" /></svg>