<?xml version="1.0" encoding="utf-8" ?>
<svg baseProfile="full" height="223" version="1.1" width="256" xmlns="http://www.w3.org/2000/svg" xmlns:ev="http://www.w3.org/2001/xml-events" xmlns:xlink="http://www.w3.org/1999/xlink"><defs /><rect fill="white" height="223" width="256" x="0" y="0" /><circle cx="198.71697998046875" cy="212.79244995117188" fill="none" r="6.398108959197998" stroke="black" stroke-width="1" /><path d="M 237,204 L 232,206 L 232,214 L 239,214 L 243,210 Z" fill="none" stroke="black" stroke-width="1" /><path d="M 96,210 L 97,212 L 111,211 L 106,202 L 102,202 Z" fill="none" stroke="black" stroke-width="1" /><circle cx="236.5" cy="208.73809814453125" fill="black" r="11.642979621887207" stroke="black" stroke-width="1" /><path d="M 133,211 L 149,210 L 143,199 L 140,199 Z" fill="none" stroke="black" stroke-width="1" /><path d="M 60,206 L 60,208 L 71,208 L 66,199 Z" fill="none" stroke="black" stroke-width="1" /><path d="M 10,205 L 14,208 L 26,207 L 19,194 Z" fill="none" stroke="black" stroke-width="1" /><path d="M 88,214 L 102,192 L 119,212 L 110,217 Z" fill="black" stroke="black" stroke-width="1" /><path d="M 67,192 L 78,212 L 53,215 L 50,212 Z" fill="black" stroke="black" stroke-width="1" /><path d="M 126,211 L 142,191 L 159,213 L 127,215 Z" fill="black" stroke="black" stroke-width="1" /><path d="M 20,185 L 33,210 L 3,213 Z" fill="black" stroke="black" stroke-width="1" /><path d="M 170,184 L 167,191 L 169,194 L 175,195 L 179,192 L 178,188 Z" fill="none" stroke="black" stroke-width="1" /><circle cx="172.4326934814453" cy="189.92308044433594" fill="black" r="11.931023597717285" stroke="black" stroke-width="1" /><circle cx="236.25" cy="180.0" fill="none" r="6.046793460845947" stroke="black" stroke-width="1" /><circle cx="236.11764526367188" cy="179.94117736816406" fill="black" r="11.530860900878906" stroke="black" stroke-width="1" /><path d="M 100,167 L 100,172 L 114,170 L 107,161 L 104,161 Z" fill="none" stroke="black" stroke-width="1" /><circle cx="151.1875" cy="164.1875" fill="none" r="6.088639736175537" stroke="black" stroke-width="1" /><circle cx="151.5" cy="164.81817626953125" fill="black" r="11.716890335083008" stroke="black" stroke-width="1" /><path d="M 107,152 L 120,174 L 92,177 Z" fill="black" stroke="black" stroke-width="1" /><path d="M 18,153 L 11,167 L 26,167 L 27,164 Z" fill="none" stroke="black" stroke-width="1" /><path d="M 21,146 L 35,170 L 4,173 Z" fill="black" stroke="black" stroke-width="1" /><circle cx="185.6666717529297" cy="145.3333282470703" fill="none" r="5.821509838104248" stroke="black" stroke-width="1" /><circle cx="240.0" cy="141.5" fill="none" r="5.590270042419434" stroke="black" stroke-width="1" /><circle cx="185.55882263183594" cy="145.5" fill="black" r="11.477849960327148" stroke="black" stroke-width="1" /><circle cx="239.5" cy="142.0" fill="black" r="11.412812232971191" stroke="black" stroke-width="1" /><path d="M 73,136 L 93,136 L 83,123 Z" fill="none" stroke="black" stroke-width="1" /><path d="M 64,141 L 80,114 L 100,137 L 97,142 Z" fill="black" stroke="black" stroke-width="1" /><path d="M 30,128 L 20,114 L 9,127 Z" fill="none" stroke="black" stroke-width="1" /><path d="M 146,124 L 146,128 L 166,128 L 155,113 Z" fill="none" stroke="black" stroke-width="1" /><path d="M 112,119 L 113,122 L 129,120 L 121,110 Z" fill="none" stroke="black" stroke-width="1" /><path d="M 3,129 L 21,106 L 38,132 L 5,135 Z" fill="black" stroke="black" stroke-width="1" /><path d="M 139,129 L 154,105 L 173,130 Z" fill="black" stroke="black" stroke-width="1" /><circle cx="206.8378448486328" cy="106.8648681640625" fill="none" r="5.867199420928955" stroke="black" stroke-width="1" /><path d="M 137,122 L 104,125 L 120,99 Z" fill="black" stroke="black" stroke-width="1" /><path d="M 240,99 L 237,101 L 238,109 L 243,110 L 247,107 L 247,101 Z" fill="none" stroke="black" stroke-width="1" /><circle cx="206.15516662597656" cy="107.29310607910156" fill="black" r="11.177641868591309" stroke="black" stroke-width="1" /><circle cx="242.5" cy="104.5" fill="black" r="12.020915031433105" stroke="black" stroke-width="1" /><path d="M 164,83 L 167,86 L 181,85 L 174,72 L 171,72 Z" fill="none" stroke="black" stroke-width="1" /><path d="M 27,78 L 19,69 L 11,80 L 21,81 Z" fill="none" stroke="black" stroke-width="1" /><path d="M 156,88 L 171,64 L 178,65 L 189,85 L 184,90 Z" fill="black" stroke="black" stroke-width="1" /><circle cx="241.63636779785156" cy="67.0" fill="none" r="5.72448205947876" stroke="black" stroke-width="1" /><path d="M 3,83 L 19,61 L 35,80 L 34,85 Z" fill="black" stroke="black" stroke-width="1" /><circle cx="200.26470947265625" cy="65.73529052734375" fill="none" r="6.031300067901611" stroke="black" stroke-width="1" /><circle cx="242.22000122070312" cy="67.0999984741211" fill="black" r="12.085564613342285" stroke="black" stroke-width="1" /><circle cx="200.04275512695312" cy="65.51115417480469" fill="black" r="11.885046005249023" stroke="black" stroke-width="1" /><path d="M 143,54 L 133,42 L 124,58 Z" fill="none" stroke="black" stroke-width="1" /><circle cx="173.3000030517578" cy="40.29999923706055" fill="none" r="5.948206901550293" stroke="black" stroke-width="1" /><path d="M 117,58 L 134,34 L 152,59 L 137,63 Z" fill="black" stroke="black" stroke-width="1" /><circle cx="173.6081085205078" cy="40.18918991088867" fill="black" r="12.095449447631836" stroke="black" stroke-width="1" /><path d="M 104,39 L 94,27 L 85,42 L 101,42 Z" fill="none" stroke="black" stroke-width="1" /><path d="M 55,33 L 55,35 L 67,35 L 67,31 L 62,26 Z" fill="none" stroke="black" stroke-width="1" /><circle cx="241.5689697265625" cy="26.70689582824707" fill="none" r="5.824775218963623" stroke="black" stroke-width="1" /><path d="M 15,29 L 15,32 L 29,31 L 24,21 L 21,21 Z" fill="none" stroke="black" stroke-width="1" /><path d="M 78,41 L 96,19 L 112,44 L 79,47 Z" fill="black" stroke="black" stroke-width="1" /><circle cx="205.5" cy="22.5" fill="none" r="6.041623115539551" stroke="black" stroke-width="1" /><path d="M 48,36 L 62,17 L 76,38 L 49,40 Z" fill="black" stroke="black" stroke-width="1" /><circle cx="241.92105102539062" cy="26.307018280029297" fill="black" r="11.886791229248047" stroke="black" stroke-width="1" /><path d="M 37,31 L 36,36 L 6,36 L 21,13 Z" fill="black" stroke="black" stroke-width="1" /><circle cx="204.65383911132812" cy="22.5" fill="black" r="12.60903263092041" stroke="black" stroke-width="1" /><path d="M 0,0 L 0,222 L 255,222 L 255,0 Z" fill="none" stroke="black" stroke-width="1" /></svg>