<?xml version="1.0" encoding="utf-8" ?>
<svg baseProfile="full" height="217" version="1.1" width="260" xmlns="http://www.w3.org/2000/svg" xmlns:ev="http://www.w3.org/2001/xml-events" xmlns:xlink="http://www.w3.org/1999/xlink"><defs /><rect fill="white" height="217" width="260" x="0" y="0" /><path d="M 148,190 L 142,200 L 139,202 L 139,206 L 156,206 L 157,204 L 153,200 Z" fill="none" stroke="black" stroke-width="5" /><path d="M 186,188 L 181,195 L 179,201 L 194,201 L 191,191 L 188,188 Z" fill="none" stroke="black" stroke-width="5" /><path d="M 122,173 L 121,174 L 118,174 L 116,176 L 116,181 L 119,184 L 122,184 L 126,179 L 126,177 Z" fill="none" stroke="black" stroke-width="5" /><path d="M 87,172 L 84,175 L 84,179 L 86,181 L 90,182 L 94,178 L 94,175 L 92,173 Z" fill="none" stroke="black" stroke-width="5" /><path d="M 219,164 L 211,177 L 227,178 L 228,177 L 222,165 Z" fill="none" stroke="black" stroke-width="5" /><path d="M 56,163 L 53,166 L 54,170 L 57,173 L 62,172 L 64,170 L 64,166 L 61,163 Z" fill="none" stroke="black" stroke-width="5" /><path d="M 157,159 L 155,161 L 155,166 L 157,168 L 161,168 L 164,165 L 163,163 L 163,159 Z" fill="none" stroke="black" stroke-width="5" /><path d="M 128,143 L 122,152 L 122,156 L 135,156 L 136,155 L 135,151 L 131,146 L 131,144 Z" fill="none" stroke="black" stroke-width="5" /><path d="M 39,136 L 37,138 L 37,143 L 39,145 L 43,145 L 47,142 L 47,138 L 45,136 Z" fill="none" stroke="black" stroke-width="5" /><path d="M 166,135 L 164,137 L 164,141 L 167,144 L 172,144 L 174,142 L 174,137 L 172,135 Z" fill="none" stroke="black" stroke-width="5" /><path d="M 224,125 L 219,133 L 219,136 L 231,135 L 231,131 L 229,130 L 228,126 Z" fill="none" stroke="black" stroke-width="5" /><path d="M 120,124 L 135,125 L 136,123 L 133,120 L 130,113 L 127,113 Z" fill="none" stroke="black" stroke-width="5" /><path d="M 174,103 L 170,105 L 168,108 L 168,110 L 171,113 L 176,114 L 179,110 L 179,105 L 176,103 Z" fill="none" stroke="black" stroke-width="5" /><path d="M 27,98 L 24,100 L 24,105 L 29,108 L 31,106 L 33,106 L 33,101 L 30,98 Z" fill="none" stroke="black" stroke-width="5" /><path d="M 222,87 L 220,87 L 218,92 L 214,96 L 213,101 L 228,100 L 222,90 Z" fill="none" stroke="black" stroke-width="5" /><path d="M 141,91 L 159,92 L 159,89 L 153,78 L 150,77 Z" fill="none" stroke="black" stroke-width="5" /><path d="M 30,69 L 30,71 L 33,74 L 39,74 L 39,68 L 37,65 L 35,65 Z" fill="none" stroke="black" stroke-width="5" /><path d="M 185,74 L 186,75 L 199,75 L 200,74 L 194,64 L 192,64 L 189,67 L 188,71 Z" fill="none" stroke="black" stroke-width="5" /><path d="M 168,49 L 165,51 L 164,56 L 170,60 L 175,56 L 175,53 L 171,49 Z" fill="none" stroke="black" stroke-width="5" /><path d="M 48,33 L 46,35 L 46,37 L 44,40 L 47,42 L 53,42 L 55,39 L 54,34 L 53,33 Z" fill="none" stroke="black" stroke-width="5" /><path d="M 144,34 L 144,38 L 146,40 L 149,40 L 150,41 L 153,40 L 155,36 L 155,34 L 151,31 L 148,31 Z" fill="none" stroke="black" stroke-width="5" /><path d="M 120,23 L 114,27 L 114,32 L 117,34 L 123,32 L 124,26 Z" fill="none" stroke="black" stroke-width="5" /><path d="M 82,22 L 78,25 L 78,30 L 81,32 L 85,32 L 89,27 L 86,23 Z" fill="none" stroke="black" stroke-width="5" /><path d="M 0,0 L 0,216 L 259,216 L 259,0 Z" fill="none" stroke="black" stroke-width="5" /></svg>