<?xml version="1.0" encoding="utf-8" ?>
<svg baseProfile="full" height="217" version="1.1" width="258" xmlns="http://www.w3.org/2000/svg" xmlns:ev="http://www.w3.org/2001/xml-events" xmlns:xlink="http://www.w3.org/1999/xlink"><defs /><rect fill="white" height="217" width="258" x="0" y="0" /><path d="M 213,193 L 205,207 L 220,205 Z" fill="none" stroke="black" stroke-width="5" /><path d="M 167,192 L 161,205 L 176,205 Z" fill="none" stroke="black" stroke-width="5" /><path d="M 140,172 L 134,185 L 148,185 Z" fill="none" stroke="black" stroke-width="5" /><path d="M 230,162 L 225,173 L 237,174 L 235,167 Z" fill="none" stroke="black" stroke-width="5" /><path d="M 148,134 L 145,143 L 155,142 L 152,136 Z" fill="none" stroke="black" stroke-width="5" /><path d="M 222,120 L 214,135 L 231,135 Z" fill="none" stroke="black" stroke-width="5" /><circle cx="55.0" cy="113.5" fill="none" r="5.852449893951416" stroke="black" stroke-width="5" /><circle cx="94.0" cy="111.6875" fill="none" r="5.676600456237793" stroke="black" stroke-width="5" /><path d="M 169,98 L 164,109 L 178,109 L 172,98 Z" fill="none" stroke="black" stroke-width="5" /><circle cx="119.63157653808594" cy="94.90789794921875" fill="none" r="6.105494499206543" stroke="black" stroke-width="5" /><path d="M 205,81 L 199,93 L 213,94 L 213,90 Z" fill="none" stroke="black" stroke-width="5" /><path d="M 30,76 L 30,84 L 33,86 L 37,85 L 40,80 L 39,76 Z" fill="none" stroke="black" stroke-width="5" /><circle cx="132.94444274902344" cy="57.5" fill="none" r="6.23867130279541" stroke="black" stroke-width="5" /><circle cx="34.0" cy="40.5" fill="none" r="5.590270042419434" stroke="black" stroke-width="5" /><circle cx="112.24390411376953" cy="29.341463088989258" fill="none" r="5.793744087219238" stroke="black" stroke-width="5" /><circle cx="73.38135528564453" cy="24.991525650024414" fill="none" r="6.165318489074707" stroke="black" stroke-width="5" /><path d="M 0,0 L 0,216 L 257,216 L 257,0 Z" fill="none" stroke="black" stroke-width="5" /></svg>