<?xml version="1.0" encoding="utf-8" ?>
<svg baseProfile="full" height="216" version="1.1" width="262" xmlns="http://www.w3.org/2000/svg" xmlns:ev="http://www.w3.org/2001/xml-events" xmlns:xlink="http://www.w3.org/1999/xlink"><defs /><rect fill="white" height="216" width="262" x="0" y="0" /><path d="M 143,201 L 140,205 L 138,211 L 140,212 L 148,212 L 150,210 L 147,207 L 147,203 L 146,201 Z" fill="none" stroke="black" stroke-width="5" /><path d="M 182,191 L 178,194 L 175,200 L 175,203 L 186,203 L 186,199 Z" fill="none" stroke="black" stroke-width="5" /><path d="M 118,183 L 116,183 L 110,191 L 110,195 L 121,194 L 121,190 L 119,188 Z" fill="none" stroke="black" stroke-width="5" /><path d="M 133,168 L 132,169 L 132,176 L 133,177 L 139,177 L 141,175 L 141,169 L 140,168 Z" fill="none" stroke="black" stroke-width="5" /><path d="M 86,168 L 84,170 L 84,177 L 89,178 L 93,175 L 93,172 L 90,168 Z" fill="none" stroke="black" stroke-width="5" /><path d="M 182,167 L 176,168 L 176,170 L 174,172 L 174,175 L 178,178 L 183,177 L 185,174 L 185,172 Z" fill="none" stroke="black" stroke-width="5" /><path d="M 211,161 L 209,163 L 209,168 L 212,171 L 218,170 L 219,169 L 218,162 Z" fill="none" stroke="black" stroke-width="5" /><path d="M 46,159 L 44,161 L 44,164 L 47,167 L 52,167 L 54,165 L 54,161 L 51,158 Z" fill="none" stroke="black" stroke-width="5" /><path d="M 236,141 L 232,144 L 232,149 L 234,151 L 239,151 L 242,148 L 242,144 L 239,141 Z" fill="none" stroke="black" stroke-width="5" /><path d="M 108,150 L 105,147 L 103,140 L 100,139 L 92,151 Z" fill="none" stroke="black" stroke-width="5" /><path d="M 24,132 L 22,132 L 17,135 L 17,140 L 18,141 L 21,141 L 22,142 L 27,140 L 27,135 Z" fill="none" stroke="black" stroke-width="5" /><path d="M 179,124 L 172,137 L 187,137 L 187,133 L 183,128 L 183,126 Z" fill="none" stroke="black" stroke-width="5" /><path d="M 233,108 L 231,110 L 231,114 L 234,117 L 239,116 L 241,110 L 239,108 Z" fill="none" stroke="black" stroke-width="5" /><path d="M 82,105 L 74,115 L 74,119 L 90,118 Z" fill="none" stroke="black" stroke-width="5" /><path d="M 22,104 L 20,106 L 20,111 L 22,113 L 27,113 L 29,110 L 28,105 L 27,104 Z" fill="none" stroke="black" stroke-width="5" /><path d="M 56,89 L 50,90 L 48,92 L 48,96 L 51,97 L 53,99 L 58,96 L 58,93 Z" fill="none" stroke="black" stroke-width="5" /><path d="M 178,84 L 172,93 L 172,97 L 185,97 L 186,96 L 180,84 Z" fill="none" stroke="black" stroke-width="5" /><path d="M 208,82 L 206,84 L 205,90 L 210,93 L 215,89 L 215,85 L 211,82 Z" fill="none" stroke="black" stroke-width="5" /><path d="M 108,72 L 107,78 L 109,80 L 114,80 L 117,77 L 117,75 L 115,72 Z" fill="none" stroke="black" stroke-width="5" /><path d="M 149,75 L 149,78 L 150,79 L 159,79 L 159,72 L 157,70 L 154,70 L 151,72 Z" fill="none" stroke="black" stroke-width="5" /><path d="M 85,73 L 79,64 L 77,64 L 71,73 L 71,75 L 74,74 L 79,75 Z" fill="none" stroke="black" stroke-width="5" /><path d="M 179,44 L 175,39 L 174,35 L 172,35 L 166,45 L 178,45 Z" fill="none" stroke="black" stroke-width="5" /><path d="M 112,25 L 108,26 L 106,31 L 102,35 L 103,37 L 104,36 L 116,36 L 116,33 Z" fill="none" stroke="black" stroke-width="5" /><path d="M 146,16 L 144,16 L 142,18 L 138,28 L 149,28 L 150,27 L 147,22 Z" fill="none" stroke="black" stroke-width="5" /><path d="M 0,0 L 0,215 L 129,215 L 144,191 L 158,215 L 261,215 L 261,0 Z" fill="none" stroke="black" stroke-width="5" /></svg>