<?xml version="1.0" encoding="utf-8" ?>
<svg xmlns="http://www.w3.org/2000/svg" xmlns:ev="http://www.w3.org/2001/xml-events" xmlns:xlink="http://www.w3.org/1999/xlink" baseProfile="full" height="221" version="1.1" width="258">
  <defs/>
  <path d="M 98.224312,218.738770 C 95.826015,216.185899 94.033052,208.000000 95.872192,208.000000 C 96.492486,208.000000 97.000000,207.394744 97.000000,206.654988 C 97.000000,204.308391 100.364162,202.200943 104.500000,201.956683 C 110.707708,201.590059 111.544727,201.817455 114.363636,204.636364 C 117.948563,208.221290 117.968123,213.696001 114.411106,217.923275 C 112.074215,220.700513 111.263796,221.000000 106.085420,221.000000 C 101.420680,221.000000 99.951651,220.577437 98.224312,218.738770" fill="none" stroke="black" stroke-width="5"/>
  <path d="M 132.216031,219.750000 C 131.650159,219.062500 130.868304,216.358097 130.478575,213.740216 C 129.793973,209.141609 129.899007,208.862246 133.580406,205.490216 C 137.663725,201.750042 140.286737,201.251020 145.656533,203.192763 C 150.027937,204.773484 152.095289,209.108992 151.085046,214.577063 C 150.670758,216.819448 150.005584,219.181948 149.606881,219.827063 C 148.591163,221.470529 133.577416,221.403999 132.216031,219.750000" fill="none" stroke="black" stroke-width="5"/>
  <path d="M 168.581061,218.654166 C 163.417483,214.217236 164.095773,203.878701 169.722912,201.250000 C 172.779812,199.821978 181.000000,199.554730 181.000000,200.883369 C 181.000000,201.369221 181.864726,201.992868 182.921614,202.269251 C 185.410607,202.920137 186.754857,210.763400 185.073228,214.823213 C 182.573028,220.859228 173.578704,222.948513 168.581061,218.654166" fill="none" stroke="black" stroke-width="5"/>
  <path d="M 62.836854,217.781382 C 57.060543,214.561566 56.657963,209.067550 61.698774,202.250000 C 65.455231,197.169501 72.925776,197.960776 77.180006,203.889762 C 80.863122,209.022806 80.219993,214.625375 75.582907,217.802757 C 71.666587,220.486263 67.677375,220.479573 62.836854,217.781382" fill="none" stroke="black" stroke-width="5"/>
  <path d="M 30.165183,205.003690 C 27.313239,202.398842 26.924841,201.464944 27.192322,197.855488 C 27.613777,192.168260 33.123658,187.500190 39.132217,187.739796 C 43.758407,187.924276 45.339549,188.969728 47.479251,193.258863 C 49.819182,197.949366 49.345369,200.587964 45.466667,204.466667 C 40.688269,209.245064 35.026451,209.443772 30.165183,205.003690" fill="none" stroke="black" stroke-width="5"/>
  <path d="M 195.120148,206.942567 C 188.724213,205.536377 185.073864,198.580840 187.927002,193.236431 C 188.436853,192.281394 189.100322,190.705746 189.401376,189.734992 C 190.593721,185.890264 198.652398,184.880908 203.680153,187.946563 C 206.246975,189.511674 206.991260,190.758910 207.539306,194.413544 C 208.774609,202.651134 202.838709,208.639545 195.120148,206.942567" fill="none" stroke="black" stroke-width="5"/>
  <path d="M 216.405303,192.613819 C 216.061279,191.717308 216.531540,189.524944 217.450327,187.741899 C 221.664513,179.563639 225.033995,173.823148 226.453224,172.403918 C 227.303951,171.553192 228.000000,170.037431 228.000000,169.035560 C 228.000000,167.067874 230.115336,165.776488 231.592278,166.842520 C 232.093279,167.204134 233.176737,168.850000 233.999963,170.500000 C 234.823189,172.150000 236.009829,173.831799 236.636940,174.237332 C 237.264052,174.642864 239.002639,177.342864 240.500468,180.237332 C 241.998297,183.131799 243.848440,186.210433 244.611897,187.078741 C 245.375354,187.947048 246.000000,189.634548 246.000000,190.828741 C 246.000000,192.929833 245.632403,193.000000 234.625000,193.000000 C 228.368750,193.000000 221.850680,193.279864 220.140400,193.621920 C 217.795929,194.090814 216.876895,193.842768 216.405303,192.613819" fill="none" stroke="black" stroke-width="5"/>
  <path d="M 161.392706,184.843182 C 158.853289,183.612265 155.994405,177.962976 156.014742,174.216073 C 156.039739,169.610558 158.191842,166.760344 162.800816,165.228697 C 167.966702,163.511977 171.241889,164.565573 174.852374,169.105566 C 176.930672,171.718916 177.105127,172.608843 176.349701,176.743744 C 175.668583,180.471912 174.804014,181.889359 172.099443,183.711968 C 168.500873,186.137044 164.856365,186.522103 161.392706,184.843182" fill="none" stroke="black" stroke-width="5"/>
  <path d="M 186.700183,172.767987 C 185.087921,171.587164 185.181690,171.087547 188.064239,165.500000 C 189.766671,162.200000 191.573666,159.072500 192.079785,158.550000 C 192.585903,158.027500 193.000000,157.008689 193.000000,156.285976 C 193.000000,153.912483 197.461830,148.025024 199.270172,148.012379 C 202.076451,147.992755 214.000000,166.934228 214.000000,171.411841 L 214.000000,173.830932 L 201.215728,173.933452 C 192.325309,174.004747 187.904142,173.649768 186.700183,172.767987" fill="none" stroke="black" stroke-width="5"/>
  <path d="M 29.237759,169.150320 C 27.993527,168.792644 26.081808,167.027909 24.989496,165.228686 C 23.250201,162.363775 23.151620,161.482695 24.195969,158.136476 C 25.683665,153.369724 30.499432,149.987558 35.735976,150.031803 C 41.821307,150.083220 45.000000,153.777305 45.000000,160.797895 C 45.000000,168.203390 38.297932,171.754822 29.237759,169.150320" fill="none" stroke="black" stroke-width="5"/>
  <path d="M 128.000000,168.784746 C 124.646709,167.440086 121.666667,163.296524 121.666667,159.978643 C 121.666667,158.491866 122.645073,155.692317 123.840904,153.757423 C 127.891944,147.202702 137.188567,147.060266 141.400435,153.488389 C 144.729934,158.569847 142.246791,166.163284 136.465701,168.578778 C 132.629802,170.181519 131.548835,170.207818 128.000000,168.784746" fill="none" stroke="black" stroke-width="5"/>
  <path d="M 225.000000,152.057160 C 225.000000,150.039881 228.844805,142.750854 230.217022,142.166667 C 230.647660,141.983333 231.000000,141.186185 231.000000,140.395226 C 231.000000,139.604268 232.199086,137.145178 233.664636,134.930583 C 236.926716,130.001248 239.473170,130.020815 242.698317,135.000000 C 243.945189,136.925000 245.375265,138.992244 245.876264,139.593876 C 246.377262,140.195508 247.480385,142.028283 248.327648,143.666709 C 249.174912,145.305135 250.572798,147.230491 251.434063,147.945277 C 252.295329,148.660064 253.000000,150.314789 253.000000,151.622445 L 253.000000,154.000000 L 239.000000,154.000000 C 225.803964,154.000000 225.000000,153.888430 225.000000,152.057160" fill="none" stroke="black" stroke-width="5"/>
  <path d="M 156.006161,150.250000 C 156.009549,149.287500 156.614008,147.375000 157.349404,146.000000 C 160.521246,140.069471 163.252590,135.432752 164.094237,134.550000 C 164.592407,134.027500 165.000000,132.790000 165.000000,131.800000 C 165.000000,130.810000 165.450000,130.000000 166.000000,130.000000 C 166.550000,130.000000 167.000000,129.100000 167.000000,128.000000 C 167.000000,126.683074 167.666667,126.000000 168.951959,126.000000 C 171.029093,126.000000 175.086146,131.250265 178.997489,139.000000 C 180.246638,141.475000 181.590851,143.725000 181.984630,144.000000 C 183.157074,144.818789 185.000000,148.751264 185.000000,150.434259 C 185.000000,151.783259 182.992808,152.000000 170.500000,152.000000 C 157.354796,152.000000 156.000576,151.836490 156.006161,150.250000" fill="none" stroke="black" stroke-width="5"/>
  <path d="M 117.500000,139.150320 C 113.080775,137.713365 110.246755,134.907997 109.678818,131.408211 C 108.464970,123.928144 116.485173,116.684898 123.439956,118.980184 C 128.464461,120.638420 131.247000,124.186150 131.182605,128.852044 C 131.113745,133.841539 129.556259,136.364314 125.288230,138.399595 C 121.736230,140.093426 120.705879,140.192744 117.500000,139.150320" fill="none" stroke="black" stroke-width="5"/>
  <path d="M 37.038838,131.854155 C 32.553137,129.198036 31.070955,127.165847 31.031803,123.618034 C 30.990355,119.862026 34.641607,114.000000 37.022542,114.000000 C 38.045225,114.000000 39.160081,113.550000 39.500000,113.000000 C 40.805628,110.887449 45.621223,112.188774 50.250000,115.904988 C 52.202306,117.472397 52.604395,123.280121 51.044635,127.382601 C 49.007496,132.740683 42.204214,134.912729 37.038838,131.854155" fill="none" stroke="black" stroke-width="5"/>
  <path d="M 184.696755,121.193034 C 180.047739,120.895925 177.349463,118.732744 179.652462,117.149075 C 181.217645,116.072770 184.564565,110.723342 186.002328,107.000000 C 188.181998,101.355358 192.300985,96.042948 194.500000,96.040239 C 195.843148,96.038585 197.485278,97.701175 199.500000,101.102537 C 201.150000,103.888155 202.963942,106.692156 203.530983,107.333649 C 206.121381,110.264166 209.000000,116.373195 209.000000,118.940043 L 209.000000,121.765766 L 199.250000,121.632883 C 193.887500,121.559797 187.338540,121.361865 184.696755,121.193034" fill="none" stroke="black" stroke-width="5"/>
  <path d="M 136.893269,114.503091 C 130.638620,111.103509 129.370022,104.500434 133.944226,99.153263 C 136.498152,96.167764 137.348728,95.810721 141.824485,95.845390 C 147.466433,95.889093 150.355159,97.289312 151.928836,100.743157 C 153.279960,103.708550 153.328326,110.000000 152.000000,110.000000 C 151.450000,110.000000 151.000000,110.623246 151.000000,111.384990 C 151.000000,115.274156 141.980037,117.267896 136.893269,114.503091" fill="none" stroke="black" stroke-width="5"/>
  <path d="M 225.668077,111.271954 C 225.163129,110.454932 226.336367,107.868588 232.142231,97.000000 C 235.187874,91.298551 236.007540,90.461440 238.814100,90.186129 C 241.175712,89.954465 242.189282,90.347339 242.683934,91.686129 C 243.052534,92.683758 243.611941,93.725000 243.927058,94.000000 C 245.287176,95.186960 251.000000,103.915375 251.000000,104.806489 C 251.000000,105.345232 251.706562,106.057156 252.570137,106.388540 C 253.511938,106.749943 254.012162,107.893250 253.820137,109.245529 C 253.508033,111.443428 253.156879,111.506969 239.826151,111.777724 C 232.305534,111.930472 225.934401,111.702875 225.668077,111.271954" fill="none" stroke="black" stroke-width="5"/>
  <path d="M 49.250000,96.968838 C 48.012500,96.471424 47.000000,95.297881 47.000000,94.360965 C 47.000000,93.424049 46.296135,91.879719 45.435855,90.929121 C 43.309183,88.579174 44.446270,82.868831 47.637951,79.870401 C 49.583399,78.042748 51.221179,77.571429 55.626610,77.571429 C 60.337039,77.571429 61.452205,77.941009 63.062312,80.035714 C 67.301275,85.550492 65.911014,94.352623 60.404755,96.861443 C 57.471090,98.198110 52.429034,98.246653 49.250000,96.968838" fill="none" stroke="black" stroke-width="5"/>
  <path d="M 166.795782,92.852980 C 165.308463,92.308961 163.815638,90.994488 163.478395,89.931927 C 163.141151,88.869367 162.445549,88.000000 161.932612,88.000000 C 160.362215,88.000000 160.897374,80.086261 162.648500,77.413705 C 164.465930,74.639955 168.890801,72.000000 171.722496,72.000000 C 174.570255,72.000000 180.773080,77.690356 181.491665,80.962053 C 182.254628,84.435800 179.784085,90.337398 176.647131,92.534606 C 174.279322,94.193083 170.769654,94.306508 166.795782,92.852980" fill="none" stroke="black" stroke-width="5"/>
  <path d="M 219.250000,80.319232 C 218.012500,80.067148 217.000000,79.422859 217.000000,78.887478 C 217.000000,78.352097 218.800000,75.143919 221.000000,71.758194 C 223.200000,68.372468 225.000000,65.071905 225.000000,64.423609 C 225.000000,63.775313 225.721879,62.645783 226.604176,61.913542 C 227.486472,61.181301 228.600334,59.551201 229.079425,58.291097 C 229.920666,56.078465 234.000000,54.948882 234.000000,56.928571 C 234.000000,57.439286 234.579573,58.451786 235.287940,59.178571 C 235.996308,59.905357 237.338003,62.125508 238.269486,64.112240 C 239.200969,66.098971 240.646396,68.291571 241.481546,68.984684 C 242.316696,69.677797 243.000000,70.864789 243.000000,71.622445 C 243.000000,72.380100 243.340150,73.000000 243.755889,73.000000 C 244.793236,73.000000 247.264975,78.762244 246.652632,79.753036 C 246.124050,80.608299 223.013234,81.085817 219.250000,80.319232" fill="none" stroke="black" stroke-width="5"/>
  <path d="M 192.750000,71.426606 C 189.317793,69.178992 189.000000,68.581811 189.000000,64.379797 C 189.000000,55.276962 196.508892,50.348740 204.590434,54.147513 C 208.363726,55.921170 208.858616,56.571513 209.453438,60.538071 C 211.086963,71.431195 201.901043,77.419256 192.750000,71.426606" fill="none" stroke="black" stroke-width="5"/>
  <path d="M 65.683278,64.940381 C 62.364161,61.412895 61.954952,60.467891 62.544572,57.692026 C 64.373646,49.080939 74.546715,45.223372 81.033084,50.681292 C 84.001761,53.179269 84.186711,53.705063 83.738287,58.371902 C 83.120333,64.803066 78.970866,69.000882 73.234223,68.998356 C 70.164001,68.997004 68.821330,68.275435 65.683278,64.940381" fill="none" stroke="black" stroke-width="5"/>
  <path d="M 94.250000,49.365007 C 92.462500,48.476860 91.000000,47.179545 91.000000,46.482086 C 91.000000,45.784626 90.265052,44.931951 89.366781,44.587253 C 87.047658,43.697322 88.273569,35.402153 91.181692,32.306597 C 94.514803,28.758664 101.773688,29.052034 105.894245,32.901210 C 107.846433,34.724827 109.000000,36.779615 109.000000,38.433328 C 109.000000,41.646210 106.813325,47.093386 104.904904,48.634527 C 102.310226,50.729854 97.641157,51.049957 94.250000,49.365007" fill="none" stroke="black" stroke-width="5"/>
  <path d="M 166.615010,42.535183 C 165.726754,41.179534 165.000000,39.604534 165.000000,39.035183 C 165.000000,38.465832 164.550000,38.000000 164.000000,38.000000 C 162.012553,38.000000 163.062896,33.213251 165.913961,29.277470 C 168.045991,26.334288 169.782723,25.075742 172.386102,24.587345 C 182.244610,22.737878 188.887845,34.363676 182.277316,41.897172 C 179.833911,44.681727 178.973819,45.000000 173.892326,45.000000 C 168.977570,45.000000 168.016803,44.674590 166.615010,42.535183" fill="none" stroke="black" stroke-width="5"/>
  <path d="M 126.250000,36.010960 C 123.740235,34.480727 123.000000,33.342755 123.000000,31.014698 C 123.000000,29.356614 122.550000,28.000000 122.000000,28.000000 C 119.940162,28.000000 121.017239,22.332433 123.524757,19.976742 C 125.512905,18.108974 127.190457,17.593713 131.417682,17.552428 C 137.622650,17.491827 140.272906,19.266853 142.059316,24.679728 C 143.528025,29.129962 142.105285,32.716213 137.667506,35.750000 C 133.616294,38.519520 130.481838,38.591162 126.250000,36.010960" fill="none" stroke="black" stroke-width="5"/>
</svg>
