<?xml version="1.0" encoding="utf-8" ?>
<svg baseProfile="full" height="221" version="1.1" width="258" xmlns="http://www.w3.org/2000/svg" xmlns:ev="http://www.w3.org/2001/xml-events" xmlns:xlink="http://www.w3.org/1999/xlink"><defs /><rect fill="white" height="221" width="258" x="0" y="0" /><circle cx="141.0" cy="212.5" fill="none" r="5.590270042419434" stroke="black" stroke-width="5" /><circle cx="106.0" cy="211.0" fill="none" r="5.385264873504639" stroke="black" stroke-width="5" /><circle cx="175.0" cy="209.6875" fill="none" r="5.676600456237793" stroke="black" stroke-width="5" /><circle cx="68.67283630371094" cy="209.40122985839844" fill="none" r="5.843436241149902" stroke="black" stroke-width="5" /><circle cx="197.0" cy="196.0" fill="none" r="5.385264873504639" stroke="black" stroke-width="5" /><path d="M 37,191 L 34,192 L 33,199 L 38,203 L 45,198 Z" fill="none" stroke="black" stroke-width="5" /><path d="M 223,187 L 239,187 L 231,175 Z" fill="none" stroke="black" stroke-width="5" /><path d="M 167,168 L 160,172 L 161,178 L 165,180 L 169,179 L 172,173 Z" fill="none" stroke="black" stroke-width="5" /><path d="M 198,156 L 192,168 L 206,168 L 204,160 Z" fill="none" stroke="black" stroke-width="5" /><circle cx="34.33333206176758" cy="159.6666717529297" fill="none" r="5.821516513824463" stroke="black" stroke-width="5" /><circle cx="132.11538696289062" cy="158.26922607421875" fill="none" r="5.596215724945068" stroke="black" stroke-width="5" /><path d="M 244,145 L 237,138 L 231,149 L 244,148 Z" fill="none" stroke="black" stroke-width="5" /><path d="M 169,134 L 163,147 L 176,147 Z" fill="none" stroke="black" stroke-width="5" /><circle cx="120.0" cy="128.75" fill="none" r="5.6181511878967285" stroke="black" stroke-width="5" /><circle cx="40.8636360168457" cy="122.0" fill="none" r="5.948397159576416" stroke="black" stroke-width="5" /><path d="M 193,103 L 187,116 L 202,116 Z" fill="none" stroke="black" stroke-width="5" /><path d="M 140,100 L 137,107 L 143,110 L 148,104 Z" fill="none" stroke="black" stroke-width="5" /><path d="M 232,104 L 232,107 L 246,106 L 240,96 L 237,96 Z" fill="none" stroke="black" stroke-width="5" /><circle cx="54.5" cy="86.5" fill="none" r="6.041623115539551" stroke="black" stroke-width="5" /><circle cx="171.0" cy="82.5" fill="none" r="5.590270042419434" stroke="black" stroke-width="5" /><path d="M 230,64 L 225,76 L 237,76 L 236,69 Z" fill="none" stroke="black" stroke-width="5" /><circle cx="199.5" cy="62.5" fill="none" r="5.700977325439453" stroke="black" stroke-width="5" /><circle cx="73.78571319580078" cy="57.5" fill="none" r="6.165342330932617" stroke="black" stroke-width="5" /><circle cx="97.78571319580078" cy="39.5" fill="none" r="5.78272819519043" stroke="black" stroke-width="5" /><circle cx="174.0" cy="34.0" fill="none" r="5.385264873504639" stroke="black" stroke-width="5" /><circle cx="131.0" cy="26.5" fill="none" r="5.590270042419434" stroke="black" stroke-width="5" /><path d="M 0,0 L 0,220 L 257,220 L 257,0 Z" fill="none" stroke="black" stroke-width="5" /></svg>