<?xml version="1.0" encoding="utf-8" ?>
<svg baseProfile="full" height="220" version="1.1" width="257" xmlns="http://www.w3.org/2000/svg" xmlns:ev="http://www.w3.org/2001/xml-events" xmlns:xlink="http://www.w3.org/1999/xlink"><defs /><rect fill="white" height="220" width="257" x="0" y="0" /><path d="M 161,201 L 161,205 L 176,205 L 176,203 L 172,199 L 169,193 L 167,193 L 163,200 Z" fill="none" stroke="black" stroke-width="5" /><path d="M 227,199 L 218,188 L 208,201 L 226,202 Z" fill="none" stroke="black" stroke-width="5" /><path d="M 116,198 L 116,200 L 132,200 L 132,197 L 124,187 Z" fill="none" stroke="black" stroke-width="5" /><path d="M 75,197 L 75,199 L 85,200 L 91,199 L 91,196 L 88,194 L 84,187 L 81,188 Z" fill="none" stroke="black" stroke-width="5" /><path d="M 34,184 L 27,194 L 27,198 L 41,198 L 41,194 L 36,190 Z" fill="none" stroke="black" stroke-width="5" /><path d="M 192,163 L 212,164 L 209,157 L 203,151 L 199,153 Z" fill="none" stroke="black" stroke-width="5" /><path d="M 133,151 L 131,154 L 131,158 L 133,160 L 141,160 L 142,153 L 140,151 L 136,150 Z" fill="none" stroke="black" stroke-width="5" /><path d="M 93,143 L 90,148 L 90,151 L 95,154 L 96,153 L 99,153 L 100,152 L 100,145 L 96,143 Z" fill="none" stroke="black" stroke-width="5" /><path d="M 49,150 L 49,152 L 64,152 L 61,145 L 56,140 L 54,141 L 53,145 Z" fill="none" stroke="black" stroke-width="5" /><path d="M 169,136 L 165,139 L 165,144 L 168,146 L 172,146 L 176,142 L 174,140 L 174,137 L 173,136 Z" fill="none" stroke="black" stroke-width="5" /><path d="M 173,119 L 174,122 L 179,121 L 184,122 L 187,120 L 187,118 L 181,110 L 179,110 L 177,112 L 177,114 Z" fill="none" stroke="black" stroke-width="5" /><path d="M 63,113 L 63,115 L 79,115 L 79,112 L 72,103 L 69,103 Z" fill="none" stroke="black" stroke-width="5" /><path d="M 40,100 L 39,101 L 39,107 L 40,108 L 46,108 L 48,106 L 49,102 L 44,99 Z" fill="none" stroke="black" stroke-width="5" /><path d="M 219,88 L 219,94 L 228,94 L 229,93 L 229,90 L 226,86 L 221,86 Z" fill="none" stroke="black" stroke-width="5" /><path d="M 155,78 L 155,81 L 157,82 L 160,81 L 169,82 L 170,81 L 161,71 L 158,73 Z" fill="none" stroke="black" stroke-width="5" /><path d="M 84,69 L 84,72 L 100,71 L 100,68 L 93,59 L 89,61 Z" fill="none" stroke="black" stroke-width="5" /><path d="M 123,57 L 120,60 L 119,64 L 121,67 L 126,68 L 129,66 L 130,60 L 127,57 Z" fill="none" stroke="black" stroke-width="5" /><path d="M 23,57 L 19,61 L 19,64 L 21,66 L 24,66 L 27,68 L 28,67 L 29,61 L 25,57 Z" fill="none" stroke="black" stroke-width="5" /><path d="M 185,55 L 182,59 L 182,63 L 186,66 L 190,67 L 193,62 L 193,59 L 190,56 Z" fill="none" stroke="black" stroke-width="5" /><path d="M 222,54 L 220,57 L 221,62 L 225,64 L 229,63 L 230,62 L 230,56 L 226,54 Z" fill="none" stroke="black" stroke-width="5" /><path d="M 57,57 L 57,61 L 61,64 L 68,63 L 68,59 L 65,54 L 59,55 Z" fill="none" stroke="black" stroke-width="5" /><path d="M 121,25 L 121,28 L 116,35 L 121,37 L 122,36 L 129,36 L 130,35 L 124,27 L 124,25 Z" fill="none" stroke="black" stroke-width="5" /><path d="M 0,0 L 0,219 L 256,219 L 256,0 Z" fill="none" stroke="black" stroke-width="5" /></svg>