<?xml version="1.0" encoding="utf-8" ?>
<svg baseProfile="full" height="217" version="1.1" width="258" xmlns="http://www.w3.org/2000/svg" xmlns:ev="http://www.w3.org/2001/xml-events" xmlns:xlink="http://www.w3.org/1999/xlink"><defs /><rect fill="white" height="217" width="258" x="0" y="0" /><path d="M 70,163 L 61,170 L 59,176 L 61,184 L 67,190 L 80,190 L 88,181 L 88,171 L 79,163 Z" fill="none" stroke="black" stroke-width="5" /><path d="M 198,106 L 167,123 L 158,152 L 174,182 L 202,192 L 236,175 L 244,142 L 229,115 Z" fill="none" stroke="black" stroke-width="5" /><ellipse cx="94.65538787841797" cy="70.82986450195312" fill="none" rx="48.40164566040039" ry="48.86901092529297" stroke="black" stroke-width="5" transform="rotate(77.18183135986328, 94.65538787841797, 70.82986450195312)" /><path d="M 201,19 L 197,23 L 196,30 L 199,34 L 206,36 L 212,32 L 213,24 L 207,19 Z" fill="none" stroke="black" stroke-width="5" /><path d="M 0,0 L 0,216 L 257,216 L 257,0 Z" fill="none" stroke="black" stroke-width="5" /></svg>