<?xml version="1.0" encoding="utf-8" ?>
<svg baseProfile="full" height="214" version="1.1" width="258" xmlns="http://www.w3.org/2000/svg" xmlns:ev="http://www.w3.org/2001/xml-events" xmlns:xlink="http://www.w3.org/1999/xlink"><defs /><rect fill="white" height="214" width="258" x="0" y="0" /><path d="M 77,162 L 76,190 L 96,191 L 95,162 Z" fill="none" stroke="black" stroke-width="5" /><path d="M 197,143 L 182,152 L 180,168 L 188,179 L 203,182 L 213,177 L 217,156 L 209,146 Z" fill="none" stroke="black" stroke-width="5" /><path d="M 54,66 L 41,75 L 36,90 L 45,104 L 59,107 L 75,97 L 78,84 L 72,72 Z" fill="none" stroke="black" stroke-width="5" /><ellipse cx="57.02265167236328" cy="86.90271759033203" fill="none" rx="26.275365829467773" ry="27.440919876098633" stroke="black" stroke-width="5" transform="rotate(46.91921615600586, 57.02265167236328, 86.90271759033203)" /><path d="M 195,35 L 179,65 L 215,65 Z" fill="none" stroke="black" stroke-width="5" /><path d="M 0,0 L 0,213 L 257,213 L 257,0 Z" fill="none" stroke="black" stroke-width="5" /></svg>