<?xml version="1.0" encoding="utf-8" ?>
<svg baseProfile="full" height="220" version="1.1" width="258" xmlns="http://www.w3.org/2000/svg" xmlns:ev="http://www.w3.org/2001/xml-events" xmlns:xlink="http://www.w3.org/1999/xlink"><defs /><rect fill="white" height="220" width="258" x="0" y="0" /><path d="M 202,168 L 203,193 L 225,193 L 225,168 Z" fill="none" stroke="black" stroke-width="5" /><path d="M 34,161 L 22,176 L 26,192 L 38,199 L 51,197 L 59,188 L 61,176 L 53,164 Z" fill="none" stroke="black" stroke-width="5" /><path d="M 129,91 L 114,100 L 110,117 L 117,128 L 133,133 L 147,125 L 151,111 L 141,94 Z" fill="none" stroke="black" stroke-width="5" /><path d="M 23,79 L 56,79 L 42,52 L 39,52 Z" fill="none" stroke="black" stroke-width="5" /><path d="M 215,36 L 202,44 L 198,56 L 208,73 L 220,75 L 233,67 L 237,53 L 227,38 Z" fill="none" stroke="black" stroke-width="5" /><path d="M 0,0 L 0,219 L 257,219 L 257,0 Z" fill="none" stroke="black" stroke-width="5" /></svg>