<?xml version="1.0" encoding="utf-8" ?>
<svg baseProfile="full" height="216" version="1.1" width="258" xmlns="http://www.w3.org/2000/svg" xmlns:ev="http://www.w3.org/2001/xml-events" xmlns:xlink="http://www.w3.org/1999/xlink"><defs /><rect fill="white" height="216" width="258" x="0" y="0" /><path d="M 105,153 L 93,164 L 92,179 L 103,191 L 122,191 L 132,181 L 132,165 L 120,153 Z" fill="none" stroke="black" stroke-width="5" /><path d="M 29,109 L 47,136 L 64,110 Z" fill="none" stroke="black" stroke-width="5" /><path d="M 207,108 L 185,107 L 185,128 L 206,129 L 208,127 Z" fill="none" stroke="black" stroke-width="5" /><path d="M 102,28 L 88,37 L 86,54 L 95,64 L 109,66 L 121,58 L 124,44 L 117,32 Z" fill="none" stroke="black" stroke-width="5" /><path d="M 183,25 L 165,57 L 199,57 Z" fill="none" stroke="black" stroke-width="5" /><path d="M 0,0 L 0,215 L 257,215 L 257,0 Z" fill="none" stroke="black" stroke-width="5" /></svg>