<?xml version="1.0" encoding="utf-8" ?>
<svg baseProfile="full" height="219" version="1.1" width="261" xmlns="http://www.w3.org/2000/svg" xmlns:ev="http://www.w3.org/2001/xml-events" xmlns:xlink="http://www.w3.org/1999/xlink"><defs /><rect fill="white" height="219" width="261" x="0" y="0" /><path d="M 42,158 L 33,173 L 36,189 L 47,197 L 65,194 L 74,181 L 73,167 L 62,157 Z" fill="none" stroke="black" stroke-width="5" /><path d="M 203,148 L 192,152 L 183,167 L 186,179 L 194,187 L 206,190 L 222,180 L 226,167 L 220,155 Z" fill="none" stroke="black" stroke-width="5" /><path d="M 124,95 L 121,96 L 107,122 L 138,120 Z" fill="none" stroke="black" stroke-width="5" /><path d="M 192,39 L 179,52 L 180,67 L 193,78 L 208,77 L 218,68 L 219,50 L 210,41 Z" fill="none" stroke="black" stroke-width="5" /><path d="M 59,30 L 50,36 L 46,55 L 54,66 L 69,69 L 81,61 L 85,46 L 75,32 Z" fill="none" stroke="black" stroke-width="5" /><path d="M 0,0 L 0,218 L 260,218 L 260,0 Z" fill="none" stroke="black" stroke-width="5" /></svg>