<?xml version="1.0" encoding="utf-8" ?>
<svg baseProfile="full" height="220" version="1.1" width="258" xmlns="http://www.w3.org/2000/svg" xmlns:ev="http://www.w3.org/2001/xml-events" xmlns:xlink="http://www.w3.org/1999/xlink"><defs /><rect fill="white" height="220" width="258" x="0" y="0" /><path d="M 65,165 L 63,173 L 50,192 L 82,193 L 78,182 Z" fill="none" stroke="black" stroke-width="5" /><path d="M 191,187 L 225,189 L 207,161 Z" fill="none" stroke="black" stroke-width="5" /><path d="M 125,100 L 139,127 L 143,127 L 157,100 Z" fill="none" stroke="black" stroke-width="5" /><ellipse cx="64.26580047607422" cy="64.947021484375" fill="none" rx="20.754711151123047" ry="21.21234703063965" stroke="black" stroke-width="5" transform="rotate(53.99908447265625, 64.26580047607422, 64.947021484375)" /><path d="M 203,30 L 193,42 L 193,56 L 207,67 L 224,65 L 232,51 L 228,36 L 216,29 Z" fill="none" stroke="black" stroke-width="5" /><path d="M 0,0 L 0,219 L 257,219 L 257,0 Z" fill="none" stroke="black" stroke-width="5" /></svg>