<?xml version="1.0" encoding="utf-8" ?>
<svg baseProfile="full" height="217" version="1.1" width="252" xmlns="http://www.w3.org/2000/svg" xmlns:ev="http://www.w3.org/2001/xml-events" xmlns:xlink="http://www.w3.org/1999/xlink"><defs /><rect fill="white" height="217" width="252" x="0" y="0" /><path d="M 64,89 L 37,108 L 32,148 L 53,174 L 87,178 L 117,154 L 121,126 L 101,97 L 77,136 L 94,93 Z" fill="none" stroke="black" stroke-width="5" /><path d="M 131,59 L 130,59 L 129,60 L 130,61 L 131,60 Z" fill="none" stroke="black" stroke-width="5" /><path d="M 203,49 L 193,37 L 178,35 L 136,61 L 162,76 L 184,76 L 199,67 Z" fill="none" stroke="black" stroke-width="5" /><path d="M 202,34 L 196,79 L 128,67 L 109,85 L 129,137 L 107,176 L 64,185 L 29,160 L 33,103 L 123,62 L 109,10 L 128,53 Z" fill="none" stroke="black" stroke-width="5" /></svg>