<?xml version="1.0" encoding="utf-8" ?>
<svg baseProfile="full" height="220" version="1.1" width="259" xmlns="http://www.w3.org/2000/svg" xmlns:ev="http://www.w3.org/2001/xml-events" xmlns:xlink="http://www.w3.org/1999/xlink"><defs /><rect fill="white" height="220" width="259" x="0" y="0" /><path d="M 172,158 L 170,162 L 171,169 L 175,172 L 182,171 L 185,168 L 185,162 L 180,157 Z" fill="none" stroke="black" stroke-width="5" /><path d="M 28,105 L 25,110 L 26,114 L 32,119 L 37,119 L 40,115 L 39,108 L 33,104 Z" fill="none" stroke="black" stroke-width="5" /><path d="M 225,98 L 222,102 L 223,108 L 228,112 L 233,112 L 237,108 L 236,101 L 230,97 Z" fill="none" stroke="black" stroke-width="5" /><path d="M 159,50 L 157,53 L 157,58 L 159,62 L 163,64 L 169,63 L 172,57 L 171,54 L 167,50 Z" fill="none" stroke="black" stroke-width="5" /><path d="M 0,0 L 0,219 L 258,219 L 258,0 Z" fill="none" stroke="black" stroke-width="5" /></svg>