<?xml version="1.0" encoding="utf-8" ?>
<svg baseProfile="full" height="220" version="1.1" width="259" xmlns="http://www.w3.org/2000/svg" xmlns:ev="http://www.w3.org/2001/xml-events" xmlns:xlink="http://www.w3.org/1999/xlink"><defs /><rect fill="white" height="220" width="259" x="0" y="0" /><path d="M 52,198 L 47,202 L 47,204 L 51,209 L 56,210 L 60,206 L 60,201 L 58,199 Z" fill="none" stroke="black" stroke-width="5" /><path d="M 82,167 L 79,170 L 78,175 L 81,178 L 90,178 L 93,175 L 92,169 L 90,167 Z" fill="none" stroke="black" stroke-width="5" /><path d="M 234,165 L 228,165 L 224,167 L 222,174 L 227,178 L 233,176 L 236,172 L 236,167 Z" fill="none" stroke="black" stroke-width="5" /><path d="M 129,117 L 127,122 L 131,127 L 136,128 L 140,125 L 141,123 L 139,117 L 137,116 Z" fill="none" stroke="black" stroke-width="5" /><path d="M 201,50 L 196,54 L 195,58 L 199,64 L 205,65 L 210,62 L 211,56 L 207,52 Z" fill="none" stroke="black" stroke-width="5" /><path d="M 37,48 L 34,51 L 34,57 L 38,60 L 43,59 L 45,57 L 45,49 Z" fill="none" stroke="black" stroke-width="5" /><path d="M 0,0 L 0,219 L 258,219 L 258,0 Z" fill="none" stroke="black" stroke-width="5" /></svg>