<?xml version="1.0" encoding="utf-8" ?>
<svg baseProfile="full" height="219" version="1.1" width="261" xmlns="http://www.w3.org/2000/svg" xmlns:ev="http://www.w3.org/2001/xml-events" xmlns:xlink="http://www.w3.org/1999/xlink"><defs /><rect fill="white" height="219" width="261" x="0" y="0" /><path d="M 95,182 L 92,187 L 94,193 L 97,195 L 103,195 L 107,189 L 106,185 L 100,181 Z" fill="none" stroke="black" stroke-width="5" /><path d="M 31,143 L 27,147 L 26,153 L 29,156 L 36,156 L 39,153 L 38,147 L 35,144 Z" fill="none" stroke="black" stroke-width="5" /><path d="M 230,136 L 225,140 L 225,143 L 228,146 L 234,147 L 238,143 L 238,138 L 236,136 Z" fill="none" stroke="black" stroke-width="5" /><path d="M 159,115 L 155,120 L 155,124 L 159,129 L 166,129 L 169,126 L 169,119 L 164,115 Z" fill="none" stroke="black" stroke-width="5" /><path d="M 96,87 L 96,92 L 98,94 L 106,94 L 110,91 L 110,87 L 106,83 L 101,83 Z" fill="none" stroke="black" stroke-width="5" /><path d="M 220,53 L 216,59 L 217,64 L 221,67 L 226,67 L 231,61 L 230,57 L 224,53 Z" fill="none" stroke="black" stroke-width="5" /><path d="M 0,0 L 0,218 L 260,218 L 260,0 Z" fill="none" stroke="black" stroke-width="5" /></svg>