<?xml version="1.0" encoding="utf-8" ?>
<svg baseProfile="full" height="219" version="1.1" width="261" xmlns="http://www.w3.org/2000/svg" xmlns:ev="http://www.w3.org/2001/xml-events" xmlns:xlink="http://www.w3.org/1999/xlink"><defs /><rect fill="white" height="219" width="261" x="0" y="0" /><path d="M 33,186 L 31,188 L 31,194 L 33,197 L 38,197 L 42,193 L 42,189 L 39,186 Z" fill="none" stroke="black" stroke-width="5" /><path d="M 164,168 L 161,171 L 161,175 L 165,179 L 169,179 L 173,176 L 173,170 L 172,168 Z" fill="none" stroke="black" stroke-width="5" /><path d="M 87,154 L 83,160 L 84,165 L 88,168 L 94,168 L 97,165 L 98,160 L 95,155 L 90,153 Z" fill="none" stroke="black" stroke-width="5" /><path d="M 147,66 L 143,69 L 142,76 L 145,80 L 152,81 L 157,74 L 154,68 Z" fill="none" stroke="black" stroke-width="5" /><path d="M 47,57 L 42,60 L 40,65 L 43,71 L 49,73 L 55,69 L 55,62 L 53,59 Z" fill="none" stroke="black" stroke-width="5" /><path d="M 207,20 L 201,24 L 201,27 L 203,31 L 210,32 L 213,29 L 213,23 L 211,21 Z" fill="none" stroke="black" stroke-width="5" /><path d="M 0,0 L 0,218 L 260,218 L 260,0 Z" fill="none" stroke="black" stroke-width="5" /></svg>