<?xml version="1.0" encoding="utf-8" ?>
<svg baseProfile="full" height="223" version="1.1" width="261" xmlns="http://www.w3.org/2000/svg" xmlns:ev="http://www.w3.org/2001/xml-events" xmlns:xlink="http://www.w3.org/1999/xlink"><defs /><rect fill="white" height="223" width="261" x="0" y="0" /><path d="M 199,164 L 196,168 L 196,173 L 198,177 L 201,179 L 205,179 L 210,175 L 210,168 L 206,164 Z" fill="none" stroke="black" stroke-width="5" /><path d="M 88,156 L 84,162 L 85,167 L 90,171 L 94,171 L 99,167 L 99,159 L 94,156 Z" fill="none" stroke="black" stroke-width="5" /><path d="M 210,95 L 205,99 L 204,103 L 209,110 L 214,110 L 219,106 L 219,101 L 216,97 Z" fill="none" stroke="black" stroke-width="5" /><path d="M 58,90 L 54,96 L 55,100 L 59,104 L 62,105 L 65,104 L 69,99 L 69,95 L 64,90 Z" fill="none" stroke="black" stroke-width="5" /><path d="M 103,89 L 100,91 L 98,97 L 101,102 L 108,104 L 112,100 L 113,95 L 108,89 Z" fill="none" stroke="black" stroke-width="5" /><ellipse cx="84.99063873291016" cy="123.97782135009766" fill="none" rx="46.26900863647461" ry="64.69078063964844" stroke="black" stroke-width="5" transform="rotate(2.836637496948242, 84.99063873291016, 123.97782135009766)" /><path d="M 0,0 L 0,222 L 260,222 L 260,0 Z" fill="none" stroke="black" stroke-width="5" /></svg>