<?xml version="1.0" encoding="utf-8" ?>
<svg baseProfile="full" height="222" version="1.1" width="259" xmlns="http://www.w3.org/2000/svg" xmlns:ev="http://www.w3.org/2001/xml-events" xmlns:xlink="http://www.w3.org/1999/xlink"><defs /><rect fill="white" height="222" width="259" x="0" y="0" /><path d="M 132,111 L 131,112 L 131,117 L 132,118 L 138,118 L 139,116 L 138,112 L 137,111 Z" fill="none" stroke="black" stroke-width="5" /><path d="M 189,103 L 189,106 L 191,108 L 195,108 L 196,107 L 196,102 L 195,101 L 192,101 Z" fill="none" stroke="black" stroke-width="5" /><path d="M 61,91 L 57,93 L 57,97 L 59,99 L 61,99 L 62,100 L 65,97 L 65,94 L 64,92 Z" fill="none" stroke="black" stroke-width="5" /><path d="M 41,75 L 38,78 L 39,82 L 45,82 L 46,81 L 46,77 L 43,75 Z" fill="none" stroke="black" stroke-width="5" /><path d="M 65,67 L 64,69 L 64,72 L 66,75 L 70,75 L 72,73 L 72,69 L 70,67 Z" fill="none" stroke="black" stroke-width="5" /><path d="M 157,51 L 154,53 L 154,57 L 157,60 L 160,60 L 163,57 L 163,55 L 160,51 Z" fill="none" stroke="black" stroke-width="5" /><path d="M 153,17 L 114,139 L 220,115 Z" fill="none" stroke="black" stroke-width="5" /><path d="M 0,0 L 0,221 L 258,221 L 258,0 Z" fill="none" stroke="black" stroke-width="5" /></svg>