<?xml version="1.0" encoding="utf-8" ?>
<svg baseProfile="full" height="213" version="1.1" width="257" xmlns="http://www.w3.org/2000/svg" xmlns:ev="http://www.w3.org/2001/xml-events" xmlns:xlink="http://www.w3.org/1999/xlink"><defs /><rect fill="white" height="213" width="257" x="0" y="0" /><path d="M 84,176 L 83,177 L 83,181 L 85,183 L 87,183 L 89,181 L 89,178 L 87,176 Z" fill="none" stroke="black" stroke-width="5" /><path d="M 85,140 L 85,144 L 86,145 L 91,145 L 92,144 L 92,140 L 91,138 L 88,138 Z" fill="none" stroke="black" stroke-width="5" /><path d="M 59,100 L 56,103 L 56,105 L 57,107 L 59,109 L 60,109 L 62,107 L 63,107 L 63,103 L 60,100 Z" fill="none" stroke="black" stroke-width="5" /><path d="M 180,94 L 178,96 L 178,101 L 179,102 L 183,102 L 185,101 L 185,96 L 183,94 Z" fill="none" stroke="black" stroke-width="5" /><path d="M 210,81 L 208,85 L 210,89 L 213,89 L 215,87 L 215,83 L 213,81 Z" fill="none" stroke="black" stroke-width="5" /><path d="M 54,68 L 44,87 L 50,146 L 74,190 L 98,203 L 108,185 L 103,142 L 89,106 Z" fill="none" stroke="black" stroke-width="5" /><path d="M 189,67 L 187,69 L 187,71 L 190,74 L 193,74 L 194,73 L 194,69 L 192,67 Z" fill="none" stroke="black" stroke-width="5" /><ellipse cx="74.30223083496094" cy="137.15016174316406" fill="none" rx="31.570280075073242" ry="76.9029312133789" stroke="black" stroke-width="5" transform="rotate(160.71444702148438, 74.30223083496094, 137.15016174316406)" /><path d="M 0,0 L 0,212 L 256,212 L 256,0 Z" fill="none" stroke="black" stroke-width="5" /></svg>