<?xml version="1.0" encoding="utf-8" ?>
<svg baseProfile="full" height="218" version="1.1" width="259" xmlns="http://www.w3.org/2000/svg" xmlns:ev="http://www.w3.org/2001/xml-events" xmlns:xlink="http://www.w3.org/1999/xlink"><defs /><rect fill="white" height="218" width="259" x="0" y="0" /><path d="M 50,163 L 50,189 L 73,191 L 73,162 Z" fill="none" stroke="black" stroke-width="5" /><path d="M 200,152 L 184,162 L 181,175 L 189,189 L 205,193 L 218,185 L 221,167 L 211,154 Z" fill="none" stroke="black" stroke-width="5" /><path d="M 81,122 L 64,95 L 46,123 Z" fill="none" stroke="black" stroke-width="5" /><path d="M 216,120 L 200,93 L 181,122 Z" fill="none" stroke="black" stroke-width="5" /><path d="M 182,27 L 183,51 L 209,49 L 207,26 Z" fill="none" stroke="black" stroke-width="5" /><ellipse cx="66.6929931640625" cy="38.053749084472656" fill="none" rx="19.617046356201172" ry="20.533220291137695" stroke="black" stroke-width="5" transform="rotate(118.0743408203125, 66.6929931640625, 38.053749084472656)" /><path d="M 0,0 L 0,217 L 258,217 L 258,0 Z" fill="none" stroke="black" stroke-width="5" /></svg>