<?xml version="1.0" encoding="utf-8" ?>
<svg baseProfile="full" height="215" version="1.1" width="261" xmlns="http://www.w3.org/2000/svg" xmlns:ev="http://www.w3.org/2001/xml-events" xmlns:xlink="http://www.w3.org/1999/xlink"><defs /><rect fill="white" height="215" width="261" x="0" y="0" /><path d="M 142,199 L 137,198 L 132,200 L 129,207 L 133,214 L 140,214 L 144,211 L 146,204 Z" fill="none" stroke="black" stroke-width="5" /><path d="M 19,185 L 15,189 L 15,197 L 17,200 L 21,201 L 28,199 L 30,197 L 29,187 L 26,185 Z" fill="none" stroke="black" stroke-width="5" /><path d="M 191,181 L 186,185 L 185,190 L 189,196 L 198,196 L 201,192 L 201,187 L 196,181 Z" fill="none" stroke="black" stroke-width="5" /><path d="M 138,165 L 131,167 L 128,171 L 129,179 L 135,182 L 140,180 L 144,174 L 142,168 Z" fill="none" stroke="black" stroke-width="5" /><path d="M 46,153 L 43,156 L 41,163 L 46,168 L 52,169 L 58,164 L 58,157 L 54,153 Z" fill="none" stroke="black" stroke-width="5" /><path d="M 185,123 L 179,127 L 177,133 L 181,138 L 187,140 L 192,136 L 193,128 Z" fill="none" stroke="black" stroke-width="5" /><path d="M 136,116 L 133,117 L 129,122 L 129,127 L 134,132 L 139,132 L 144,128 L 145,121 L 141,117 Z" fill="none" stroke="black" stroke-width="5" /><path d="M 81,116 L 75,120 L 75,128 L 79,132 L 85,132 L 90,128 L 90,120 L 87,117 Z" fill="none" stroke="black" stroke-width="5" /><path d="M 134,79 L 129,83 L 128,88 L 132,94 L 138,95 L 144,90 L 144,85 L 139,79 Z" fill="none" stroke="black" stroke-width="5" /><path d="M 239,61 L 235,61 L 229,66 L 229,74 L 233,77 L 240,76 L 244,72 L 244,67 Z" fill="none" stroke="black" stroke-width="5" /><path d="M 135,39 L 130,45 L 131,52 L 135,55 L 140,55 L 146,50 L 146,45 L 144,41 L 140,39 Z" fill="none" stroke="black" stroke-width="5" /><path d="M 19,34 L 15,35 L 10,41 L 11,48 L 17,51 L 26,48 L 26,38 Z" fill="none" stroke="black" stroke-width="5" /><path d="M 170,18 L 166,21 L 165,27 L 163,29 L 173,34 L 180,28 L 180,23 L 177,19 Z" fill="none" stroke="black" stroke-width="5" /><path d="M 77,5 L 71,11 L 71,15 L 77,21 L 84,20 L 87,15 L 87,10 L 82,5 Z" fill="none" stroke="black" stroke-width="5" /><path d="M 223,3 L 219,11 L 220,15 L 225,19 L 232,18 L 236,12 L 234,7 L 230,3 Z" fill="none" stroke="black" stroke-width="5" /><path d="M 81,0 L 147,19 L 177,12 L 190,34 L 230,57 L 213,13 L 220,0 Z" fill="none" stroke="black" stroke-width="5" /><path d="M 0,0 L 0,214 L 260,214 L 260,0 L 200,201 L 92,132 L 26,206 L 79,110 L 196,176 L 228,80 Z" fill="none" stroke="black" stroke-width="5" /></svg>