<?xml version="1.0" encoding="utf-8" ?>
<svg baseProfile="full" height="220" version="1.1" width="261" xmlns="http://www.w3.org/2000/svg" xmlns:ev="http://www.w3.org/2001/xml-events" xmlns:xlink="http://www.w3.org/1999/xlink"><defs /><rect fill="white" height="220" width="261" x="0" y="0" /><path d="M 95,196 L 93,199 L 94,207 L 96,209 L 104,209 L 108,204 L 107,198 L 103,195 Z" fill="none" stroke="black" stroke-width="5" /><path d="M 190,194 L 187,198 L 187,204 L 192,209 L 200,207 L 202,204 L 202,198 L 198,194 Z" fill="none" stroke="black" stroke-width="5" /><path d="M 52,180 L 47,184 L 47,191 L 51,195 L 58,195 L 62,191 L 62,185 L 57,180 Z" fill="none" stroke="black" stroke-width="5" /><path d="M 122,157 L 117,162 L 119,171 L 129,171 L 132,169 L 133,166 L 132,160 L 128,157 Z" fill="none" stroke="black" stroke-width="5" /><path d="M 249,149 L 243,154 L 243,161 L 247,164 L 255,164 L 258,160 L 259,154 L 255,150 Z" fill="none" stroke="black" stroke-width="5" /><path d="M 97,130 L 93,134 L 94,141 L 98,144 L 106,143 L 108,139 L 108,135 L 104,130 Z" fill="none" stroke="black" stroke-width="5" /><path d="M 183,128 L 179,131 L 179,141 L 183,143 L 189,143 L 192,140 L 193,134 L 189,129 Z" fill="none" stroke="black" stroke-width="5" /><path d="M 11,129 L 7,134 L 8,141 L 10,143 L 21,142 L 22,132 L 16,128 Z" fill="none" stroke="black" stroke-width="5" /><path d="M 127,104 L 121,108 L 121,117 L 123,119 L 132,119 L 136,114 L 136,110 L 134,106 Z" fill="none" stroke="black" stroke-width="5" /><path d="M 48,90 L 43,94 L 42,102 L 47,106 L 54,105 L 58,100 L 58,96 L 54,91 Z" fill="none" stroke="black" stroke-width="5" /><path d="M 224,83 L 221,88 L 221,93 L 223,97 L 232,97 L 236,93 L 236,88 L 234,84 Z" fill="none" stroke="black" stroke-width="5" /><path d="M 123,67 L 119,72 L 119,78 L 123,81 L 130,81 L 134,77 L 134,71 L 132,68 Z" fill="none" stroke="black" stroke-width="5" /><path d="M 159,50 L 155,53 L 153,59 L 155,63 L 162,66 L 168,62 L 170,56 L 166,51 Z" fill="none" stroke="black" stroke-width="5" /><path d="M 39,30 L 36,34 L 37,42 L 41,45 L 48,44 L 52,39 L 52,34 L 49,30 L 46,29 Z" fill="none" stroke="black" stroke-width="5" /><path d="M 225,18 L 221,22 L 221,29 L 223,32 L 230,35 L 236,29 L 236,22 L 232,18 Z" fill="none" stroke="black" stroke-width="5" /><path d="M 121,16 L 119,19 L 119,26 L 124,31 L 130,31 L 134,27 L 134,19 L 128,15 Z" fill="none" stroke="black" stroke-width="5" /><path d="M 189,12 L 182,10 L 177,14 L 177,27 L 188,25 L 190,23 L 191,15 Z" fill="none" stroke="black" stroke-width="5" /><path d="M 0,0 L 0,219 L 260,219 L 230,104 L 196,215 L 86,205 L 170,138 L 59,202 L 88,126 L 1,138 L 37,24 L 185,4 L 52,83 L 171,132 L 232,12 L 260,145 L 260,0 Z" fill="none" stroke="black" stroke-width="5" /></svg>