<?xml version="1.0" encoding="utf-8" ?>
<svg baseProfile="full" height="214" version="1.1" width="257" xmlns="http://www.w3.org/2000/svg" xmlns:ev="http://www.w3.org/2001/xml-events" xmlns:xlink="http://www.w3.org/1999/xlink"><defs /><rect fill="white" height="214" width="257" x="0" y="0" /><path d="M 120,145 L 119,170 L 144,171 L 144,144 Z" fill="none" stroke="black" stroke-width="5" /><path d="M 79,98 L 75,104 L 75,109 L 78,113 L 88,112 L 92,105 L 90,100 L 87,98 Z" fill="none" stroke="black" stroke-width="5" /><path d="M 167,95 L 167,117 L 195,115 L 192,94 Z" fill="none" stroke="black" stroke-width="5" /><path d="M 115,71 L 148,71 L 148,67 L 133,44 L 130,44 Z" fill="none" stroke="black" stroke-width="5" /><ellipse cx="129.01132202148438" cy="108.6168441772461" fill="none" rx="90.96060180664062" ry="92.51235961914062" stroke="black" stroke-width="5" transform="rotate(89.86597442626953, 129.01132202148438, 108.6168441772461)" /><path d="M 0,0 L 0,213 L 256,213 L 256,0 Z" fill="none" stroke="black" stroke-width="5" /></svg>