<?xml version="1.0" encoding="utf-8" ?>
<svg baseProfile="full" height="220" version="1.1" width="260" xmlns="http://www.w3.org/2000/svg" xmlns:ev="http://www.w3.org/2001/xml-events" xmlns:xlink="http://www.w3.org/1999/xlink"><defs /><rect fill="white" height="220" width="260" x="0" y="0" /><path d="M 155,163 L 141,193 L 176,192 L 177,189 L 160,165 Z" fill="none" stroke="black" stroke-width="5" /><path d="M 107,71 L 95,98 L 125,96 Z" fill="none" stroke="black" stroke-width="5" /><path d="M 203,76 L 203,80 L 234,79 L 219,54 L 215,56 Z" fill="none" stroke="black" stroke-width="5" /><path d="M 65,52 L 61,58 L 61,62 L 67,66 L 73,65 L 76,61 L 76,56 L 72,52 Z" fill="none" stroke="black" stroke-width="5" /><path d="M 205,38 L 189,60 L 192,82 L 218,45 L 243,82 L 196,87 L 214,97 L 236,93 L 250,77 L 250,55 L 228,36 Z" fill="none" stroke="black" stroke-width="5" /><path d="M 138,17 L 39,22 L 45,122 L 144,115 Z" fill="none" stroke="black" stroke-width="5" /><ellipse cx="89.79331970214844" cy="69.8008804321289" fill="none" rx="61.785972595214844" ry="66.55248260498047" stroke="black" stroke-width="5" transform="rotate(83.84795379638672, 89.79331970214844, 69.8008804321289)" /><path d="M 0,0 L 0,219 L 259,219 L 259,0 Z" fill="none" stroke="black" stroke-width="5" /></svg>