<?xml version="1.0" encoding="utf-8" ?>
<svg baseProfile="full" height="217" version="1.1" width="258" xmlns="http://www.w3.org/2000/svg" xmlns:ev="http://www.w3.org/2001/xml-events" xmlns:xlink="http://www.w3.org/1999/xlink"><defs /><rect fill="white" height="217" width="258" x="0" y="0" /><path d="M 57,86 L 51,94 L 51,120 L 56,128 L 64,128 L 73,122 L 71,90 Z" fill="none" stroke="black" stroke-width="5" /><path d="M 163,85 L 158,89 L 158,126 L 168,130 L 176,122 L 176,94 L 171,86 Z" fill="none" stroke="black" stroke-width="5" /><path d="M 139,84 L 132,91 L 132,117 L 135,127 L 143,130 L 153,121 L 153,92 L 147,85 Z" fill="none" stroke="black" stroke-width="5" /><path d="M 110,84 L 106,88 L 106,124 L 112,129 L 119,129 L 125,122 L 125,92 L 119,84 Z" fill="none" stroke="black" stroke-width="5" /><path d="M 84,84 L 77,93 L 79,121 L 84,129 L 91,130 L 98,124 L 99,102 L 95,89 Z" fill="none" stroke="black" stroke-width="5" /><path d="M 0,0 L 0,216 L 257,216 L 257,0 Z" fill="none" stroke="black" stroke-width="5" /></svg>