<?xml version="1.0" encoding="utf-8" ?>
<svg baseProfile="full" height="218" version="1.1" width="254" xmlns="http://www.w3.org/2000/svg" xmlns:ev="http://www.w3.org/2001/xml-events" xmlns:xlink="http://www.w3.org/1999/xlink"><defs /><rect fill="white" height="218" width="254" x="0" y="0" /><path d="M 178,149 L 165,153 L 164,188 L 173,192 L 180,190 L 184,184 L 185,156 Z" fill="none" stroke="black" stroke-width="5" /><path d="M 146,148 L 140,162 L 142,187 L 145,191 L 155,192 L 159,183 L 159,154 L 154,148 Z" fill="none" stroke="black" stroke-width="5" /><path d="M 35,44 L 30,50 L 30,76 L 34,87 L 41,90 L 50,83 L 49,56 L 43,44 Z" fill="none" stroke="black" stroke-width="5" /><path d="M 88,42 L 80,51 L 82,85 L 93,89 L 100,80 L 97,44 Z" fill="none" stroke="black" stroke-width="5" /><path d="M 62,42 L 53,47 L 56,86 L 68,88 L 75,85 L 75,46 Z" fill="none" stroke="black" stroke-width="5" /><path d="M 0,0 L 0,217 L 253,217 L 253,0 Z" fill="none" stroke="black" stroke-width="5" /></svg>