<?xml version="1.0" encoding="utf-8" ?>
<svg baseProfile="full" height="219" version="1.1" width="259" xmlns="http://www.w3.org/2000/svg" xmlns:ev="http://www.w3.org/2001/xml-events" xmlns:xlink="http://www.w3.org/1999/xlink"><defs /><rect fill="white" height="219" width="259" x="0" y="0" /><path d="M 217,158 L 212,165 L 211,193 L 214,200 L 223,201 L 229,189 L 229,169 L 224,158 Z" fill="none" stroke="black" stroke-width="5" /><path d="M 59,158 L 54,165 L 54,193 L 60,201 L 67,201 L 71,197 L 71,162 L 67,158 Z" fill="none" stroke="black" stroke-width="5" /><path d="M 114,93 L 102,95 L 100,128 L 110,133 L 117,130 L 120,116 L 120,99 Z" fill="none" stroke="black" stroke-width="5" /><path d="M 87,90 L 80,93 L 75,112 L 76,127 L 83,135 L 93,130 L 96,120 L 95,94 Z" fill="none" stroke="black" stroke-width="5" /><path d="M 178,26 L 171,36 L 170,64 L 175,71 L 184,71 L 188,65 L 189,32 L 183,26 Z" fill="none" stroke="black" stroke-width="5" /><path d="M 154,25 L 148,30 L 146,63 L 149,69 L 158,71 L 165,62 L 166,34 L 161,26 Z" fill="none" stroke="black" stroke-width="5" /><ellipse cx="48.382686614990234" cy="44.03379440307617" fill="none" rx="10.19741439819336" ry="23.34699058532715" stroke="black" stroke-width="5" transform="rotate(5.70877742767334, 48.382686614990234, 44.03379440307617)" /><path d="M 0,0 L 0,218 L 258,218 L 258,0 Z" fill="none" stroke="black" stroke-width="5" /></svg>