<?xml version="1.0" encoding="utf-8" ?>
<svg baseProfile="full" height="214" version="1.1" width="260" xmlns="http://www.w3.org/2000/svg" xmlns:ev="http://www.w3.org/2001/xml-events" xmlns:xlink="http://www.w3.org/1999/xlink"><defs /><rect fill="white" height="214" width="260" x="0" y="0" /><path d="M 189,74 L 180,90 L 178,120 L 182,136 L 195,151 L 207,124 L 207,102 L 197,78 Z" fill="none" stroke="black" stroke-width="5" /><path d="M 73,73 L 62,92 L 60,122 L 70,147 L 78,153 L 89,132 L 91,108 L 83,82 Z" fill="none" stroke="black" stroke-width="5" /><path d="M 113,71 L 102,88 L 98,115 L 104,139 L 116,152 L 130,115 L 125,89 Z" fill="none" stroke="black" stroke-width="5" /><path d="M 151,70 L 140,86 L 137,117 L 146,143 L 158,153 L 169,134 L 171,104 L 165,85 Z" fill="none" stroke="black" stroke-width="5" /><path d="M 0,0 L 0,213 L 259,213 L 259,0 Z" fill="none" stroke="black" stroke-width="5" /></svg>