<?xml version="1.0" encoding="utf-8" ?>
<svg baseProfile="full" height="217" version="1.1" width="256" xmlns="http://www.w3.org/2000/svg" xmlns:ev="http://www.w3.org/2001/xml-events" xmlns:xlink="http://www.w3.org/1999/xlink"><defs /><rect fill="white" height="217" width="256" x="0" y="0" /><path d="M 92,200 L 88,203 L 88,206 L 91,210 L 95,210 L 98,207 L 98,204 L 97,201 Z" fill="none" stroke="black" stroke-width="5" /><path d="M 124,198 L 122,200 L 122,205 L 126,207 L 129,207 L 132,204 L 131,199 L 130,198 Z" fill="none" stroke="black" stroke-width="5" /><path d="M 165,197 L 162,197 L 159,201 L 160,206 L 163,208 L 169,204 L 169,201 L 167,198 Z" fill="none" stroke="black" stroke-width="5" /><path d="M 228,194 L 224,197 L 224,202 L 226,204 L 231,204 L 233,201 L 233,197 L 230,194 Z" fill="none" stroke="black" stroke-width="5" /><path d="M 192,195 L 190,199 L 191,202 L 193,204 L 198,204 L 201,199 L 200,196 L 198,194 Z" fill="none" stroke="black" stroke-width="5" /><path d="M 54,193 L 51,196 L 51,201 L 53,203 L 57,203 L 60,201 L 61,197 L 58,194 Z" fill="none" stroke="black" stroke-width="5" /><path d="M 21,179 L 18,182 L 18,187 L 20,188 L 27,188 L 28,182 L 25,179 Z" fill="none" stroke="black" stroke-width="5" /><path d="M 53,163 L 50,166 L 50,169 L 54,172 L 58,172 L 60,169 L 59,164 L 57,163 Z" fill="none" stroke="black" stroke-width="5" /><path d="M 21,149 L 18,151 L 17,156 L 18,158 L 23,160 L 27,157 L 27,153 L 25,150 Z" fill="none" stroke="black" stroke-width="5" /><path d="M 83,143 L 80,146 L 80,150 L 82,152 L 88,152 L 90,149 L 90,147 L 87,143 Z" fill="none" stroke="black" stroke-width="5" /><path d="M 108,127 L 106,129 L 106,133 L 109,136 L 114,136 L 116,132 L 116,129 L 114,127 Z" fill="none" stroke="black" stroke-width="5" /><path d="M 22,116 L 18,119 L 18,124 L 20,126 L 25,126 L 28,124 L 28,120 L 26,117 Z" fill="none" stroke="black" stroke-width="5" /><path d="M 144,103 L 143,104 L 142,104 L 142,108 L 145,109 L 147,107 L 147,106 L 146,105 L 146,104 L 145,104 Z" fill="none" stroke="black" stroke-width="5" /><path d="M 168,83 L 166,85 L 166,91 L 168,93 L 173,92 L 175,89 L 173,83 Z" fill="none" stroke="black" stroke-width="5" /><path d="M 24,83 L 21,87 L 21,90 L 25,93 L 29,93 L 32,88 L 28,83 Z" fill="none" stroke="black" stroke-width="5" /><path d="M 196,59 L 192,59 L 190,61 L 190,68 L 193,70 L 197,69 L 199,67 L 199,62 Z" fill="none" stroke="black" stroke-width="5" /><path d="M 28,47 L 22,49 L 22,55 L 26,58 L 31,55 L 31,50 Z" fill="none" stroke="black" stroke-width="5" /><path d="M 216,39 L 216,42 L 219,46 L 225,44 L 226,42 L 225,37 L 218,37 Z" fill="none" stroke="black" stroke-width="5" /><path d="M 98,16 L 98,19 L 99,20 L 101,20 L 103,18 L 103,17 L 102,16 Z" fill="none" stroke="black" stroke-width="5" /><path d="M 23,17 L 22,20 L 22,23 L 26,25 L 32,24 L 32,18 L 30,16 L 26,15 Z" fill="none" stroke="black" stroke-width="5" /><path d="M 63,13 L 59,17 L 60,21 L 64,23 L 68,22 L 70,19 L 69,16 L 66,13 Z" fill="none" stroke="black" stroke-width="5" /><path d="M 0,0 L 0,216 L 255,216 L 255,0 Z" fill="none" stroke="black" stroke-width="5" /></svg>