<?xml version="1.0" encoding="utf-8" ?>
<svg baseProfile="full" height="218" version="1.1" width="258" xmlns="http://www.w3.org/2000/svg" xmlns:ev="http://www.w3.org/2001/xml-events" xmlns:xlink="http://www.w3.org/1999/xlink"><defs /><rect fill="white" height="218" width="258" x="0" y="0" /><path d="M 12,191 L 10,193 L 10,199 L 12,201 L 16,201 L 19,198 L 19,193 L 17,191 Z" fill="none" stroke="black" stroke-width="5" /><path d="M 209,182 L 206,185 L 206,189 L 209,191 L 213,191 L 215,189 L 215,183 L 214,182 Z" fill="none" stroke="black" stroke-width="5" /><path d="M 39,178 L 38,179 L 38,182 L 39,183 L 41,183 L 43,181 L 43,179 L 42,178 Z" fill="none" stroke="black" stroke-width="5" /><path d="M 181,174 L 180,175 L 180,180 L 182,182 L 187,182 L 189,181 L 189,176 L 188,174 L 185,173 Z" fill="none" stroke="black" stroke-width="5" /><path d="M 156,158 L 154,160 L 154,165 L 155,165 L 156,167 L 161,167 L 163,165 L 163,160 L 161,158 Z" fill="none" stroke="black" stroke-width="5" /><path d="M 229,156 L 226,158 L 225,163 L 226,165 L 231,167 L 235,163 L 235,159 L 233,157 Z" fill="none" stroke="black" stroke-width="5" /><path d="M 64,158 L 64,162 L 66,165 L 70,165 L 73,163 L 73,158 L 71,156 L 66,156 Z" fill="none" stroke="black" stroke-width="5" /><path d="M 137,138 L 134,141 L 135,146 L 136,147 L 142,147 L 143,146 L 143,141 L 140,138 Z" fill="none" stroke="black" stroke-width="5" /><path d="M 94,138 L 93,139 L 93,141 L 94,142 L 97,142 L 97,141 L 98,140 L 98,139 L 97,138 Z" fill="none" stroke="black" stroke-width="5" /><path d="M 237,130 L 234,133 L 233,136 L 234,139 L 239,140 L 243,137 L 243,133 L 241,131 Z" fill="none" stroke="black" stroke-width="5" /><path d="M 115,118 L 112,122 L 112,125 L 116,128 L 121,127 L 123,124 L 122,120 L 120,118 Z" fill="none" stroke="black" stroke-width="5" /><path d="M 140,100 L 138,102 L 138,107 L 139,107 L 140,109 L 145,109 L 147,106 L 147,101 L 146,100 Z" fill="none" stroke="black" stroke-width="5" /><path d="M 101,96 L 98,99 L 98,103 L 101,106 L 106,105 L 108,103 L 107,98 L 105,96 Z" fill="none" stroke="black" stroke-width="5" /><path d="M 171,75 L 167,76 L 164,79 L 164,81 L 167,85 L 168,84 L 172,84 L 175,80 Z" fill="none" stroke="black" stroke-width="5" /><path d="M 89,70 L 85,73 L 85,77 L 90,81 L 93,79 L 94,74 L 93,71 Z" fill="none" stroke="black" stroke-width="5" /><path d="M 199,57 L 198,58 L 198,60 L 199,61 L 202,61 L 202,58 L 201,57 Z" fill="none" stroke="black" stroke-width="5" /><path d="M 73,45 L 71,45 L 69,47 L 69,49 L 71,51 L 74,50 L 74,46 Z" fill="none" stroke="black" stroke-width="5" /><path d="M 222,30 L 220,32 L 220,38 L 225,40 L 228,38 L 229,33 L 228,31 L 226,30 Z" fill="none" stroke="black" stroke-width="5" /><path d="M 42,24 L 39,26 L 38,30 L 40,33 L 44,34 L 47,32 L 48,27 L 46,26 L 45,24 Z" fill="none" stroke="black" stroke-width="5" /><path d="M 8,21 L 8,25 L 11,28 L 15,28 L 17,27 L 18,25 L 17,20 L 15,19 L 10,19 Z" fill="none" stroke="black" stroke-width="5" /><path d="M 0,0 L 0,217 L 257,217 L 257,0 Z" fill="none" stroke="black" stroke-width="5" /></svg>