<?xml version="1.0" encoding="utf-8" ?>
<svg baseProfile="full" height="218" version="1.1" width="257" xmlns="http://www.w3.org/2000/svg" xmlns:ev="http://www.w3.org/2001/xml-events" xmlns:xlink="http://www.w3.org/1999/xlink"><defs /><rect fill="white" height="218" width="257" x="0" y="0" /><path d="M 200,199 L 199,201 L 199,206 L 201,206 L 202,207 L 206,206 L 207,205 L 207,200 L 206,199 Z" fill="none" stroke="black" stroke-width="5" /><path d="M 72,197 L 72,200 L 73,201 L 76,201 L 77,200 L 77,197 L 76,196 L 74,196 L 73,197 Z" fill="none" stroke="black" stroke-width="5" /><path d="M 41,186 L 38,189 L 38,194 L 41,196 L 43,196 L 47,193 L 47,188 Z" fill="none" stroke="black" stroke-width="5" /><path d="M 226,185 L 224,187 L 224,191 L 226,194 L 230,194 L 232,189 L 229,185 Z" fill="none" stroke="black" stroke-width="5" /><path d="M 102,177 L 100,177 L 96,181 L 96,185 L 99,188 L 105,186 L 107,183 Z" fill="none" stroke="black" stroke-width="5" /><path d="M 112,157 L 110,160 L 110,163 L 113,166 L 117,166 L 117,165 L 121,162 L 120,159 L 118,157 Z" fill="none" stroke="black" stroke-width="5" /><path d="M 40,157 L 36,161 L 36,166 L 42,168 L 45,166 L 46,161 L 43,158 Z" fill="none" stroke="black" stroke-width="5" /><path d="M 232,154 L 230,154 L 226,156 L 226,159 L 228,162 L 230,163 L 231,162 L 233,162 L 235,160 L 235,157 Z" fill="none" stroke="black" stroke-width="5" /><path d="M 54,139 L 50,144 L 50,147 L 56,150 L 59,148 L 60,143 L 57,139 Z" fill="none" stroke="black" stroke-width="5" /><path d="M 119,125 L 117,127 L 117,131 L 119,134 L 124,134 L 127,131 L 127,128 L 124,125 Z" fill="none" stroke="black" stroke-width="5" /><path d="M 210,123 L 211,125 L 210,127 L 212,130 L 217,130 L 219,128 L 219,126 L 215,121 L 213,121 Z" fill="none" stroke="black" stroke-width="5" /><path d="M 186,103 L 183,105 L 181,105 L 180,107 L 180,109 L 182,112 L 184,113 L 188,112 L 191,108 L 191,107 Z" fill="none" stroke="black" stroke-width="5" /><path d="M 150,101 L 147,104 L 147,107 L 150,111 L 153,111 L 157,108 L 157,105 L 153,101 Z" fill="none" stroke="black" stroke-width="5" /><path d="M 119,93 L 117,95 L 117,97 L 118,98 L 121,98 L 122,97 L 122,94 L 121,93 Z" fill="none" stroke="black" stroke-width="5" /><path d="M 19,80 L 15,83 L 15,87 L 18,90 L 22,90 L 25,86 L 25,83 L 23,81 Z" fill="none" stroke="black" stroke-width="5" /><path d="M 92,74 L 88,77 L 88,82 L 92,84 L 94,84 L 97,81 L 97,77 L 95,75 Z" fill="none" stroke="black" stroke-width="5" /><path d="M 122,63 L 122,66 L 121,67 L 122,71 L 123,72 L 128,72 L 131,69 L 131,65 L 129,63 Z" fill="none" stroke="black" stroke-width="5" /><path d="M 16,53 L 14,56 L 15,60 L 17,62 L 22,62 L 24,58 L 23,54 L 22,53 Z" fill="none" stroke="black" stroke-width="5" /><path d="M 74,52 L 74,58 L 76,60 L 80,60 L 83,58 L 83,52 L 82,51 L 75,51 Z" fill="none" stroke="black" stroke-width="5" /><path d="M 138,35 L 134,38 L 134,41 L 138,46 L 141,46 L 144,43 L 145,40 L 142,36 Z" fill="none" stroke="black" stroke-width="5" /><path d="M 60,26 L 58,29 L 58,34 L 60,35 L 65,35 L 67,33 L 67,28 L 63,26 Z" fill="none" stroke="black" stroke-width="5" /><path d="M 32,21 L 29,24 L 29,29 L 31,31 L 35,32 L 38,29 L 39,26 L 37,22 Z" fill="none" stroke="black" stroke-width="5" /><path d="M 168,17 L 166,17 L 164,19 L 166,22 L 169,21 L 169,18 Z" fill="none" stroke="black" stroke-width="5" /><path d="M 194,9 L 193,10 L 193,16 L 194,17 L 199,17 L 202,14 L 201,9 Z" fill="none" stroke="black" stroke-width="5" /><path d="M 234,5 L 230,8 L 230,14 L 233,16 L 237,16 L 239,14 L 239,9 Z" fill="none" stroke="black" stroke-width="5" /><path d="M 0,0 L 0,217 L 256,217 L 256,0 Z" fill="none" stroke="black" stroke-width="5" /></svg>