<?xml version="1.0" encoding="utf-8" ?>
<svg baseProfile="full" height="218" version="1.1" width="262" xmlns="http://www.w3.org/2000/svg" xmlns:ev="http://www.w3.org/2001/xml-events" xmlns:xlink="http://www.w3.org/1999/xlink"><defs /><rect fill="white" height="218" width="262" x="0" y="0" /><path d="M 143,171 L 136,173 L 131,184 L 134,194 L 141,197 L 150,193 L 152,189 L 152,182 Z" fill="none" stroke="black" stroke-width="5" /><path d="M 141,148 L 134,148 L 128,153 L 127,160 L 135,167 L 141,165 L 147,157 L 147,153 Z" fill="none" stroke="black" stroke-width="5" /><path d="M 41,138 L 34,144 L 35,154 L 40,159 L 49,159 L 54,153 L 53,146 L 50,140 Z" fill="none" stroke="black" stroke-width="5" /><path d="M 63,132 L 60,135 L 60,145 L 67,151 L 77,149 L 81,143 L 79,134 L 73,130 Z" fill="none" stroke="black" stroke-width="5" /><path d="M 113,129 L 113,132 L 116,132 L 116,131 L 115,130 L 115,129 Z" fill="none" stroke="black" stroke-width="5" /><path d="M 92,124 L 87,131 L 88,139 L 90,141 L 99,142 L 105,138 L 107,128 L 102,124 Z" fill="none" stroke="black" stroke-width="5" /><path d="M 175,118 L 175,120 L 176,120 L 175,119 Z" fill="none" stroke="black" stroke-width="5" /><path d="M 129,116 L 123,120 L 121,124 L 122,131 L 129,137 L 137,137 L 142,131 L 141,122 L 138,118 Z" fill="none" stroke="black" stroke-width="5" /><path d="M 153,114 L 148,120 L 148,127 L 155,133 L 163,133 L 169,125 L 169,120 L 163,114 Z" fill="none" stroke="black" stroke-width="5" /><path d="M 184,106 L 181,117 L 186,123 L 195,124 L 201,120 L 202,112 L 199,106 L 195,104 L 187,104 Z" fill="none" stroke="black" stroke-width="5" /><path d="M 222,100 L 214,107 L 214,114 L 217,119 L 227,121 L 233,116 L 234,108 L 229,102 Z" fill="none" stroke="black" stroke-width="5" /><path d="M 126,86 L 120,91 L 120,100 L 126,105 L 133,105 L 139,99 L 139,92 L 136,88 Z" fill="none" stroke="black" stroke-width="5" /><path d="M 122,54 L 116,60 L 115,66 L 119,73 L 129,75 L 135,70 L 136,62 L 131,54 Z" fill="none" stroke="black" stroke-width="5" /><path d="M 115,24 L 108,31 L 108,37 L 113,43 L 123,44 L 129,39 L 129,30 L 123,24 Z" fill="none" stroke="black" stroke-width="5" /><path d="M 0,0 L 0,217 L 261,217 L 261,0 Z" fill="none" stroke="black" stroke-width="5" /></svg>