<?xml version="1.0" encoding="utf-8" ?>
<svg baseProfile="full" height="218" version="1.1" width="256" xmlns="http://www.w3.org/2000/svg" xmlns:ev="http://www.w3.org/2001/xml-events" xmlns:xlink="http://www.w3.org/1999/xlink"><defs /><rect fill="white" height="218" width="256" x="0" y="0" /><path d="M 203,140 L 198,144 L 198,155 L 206,160 L 211,160 L 217,155 L 218,145 L 211,140 Z" fill="none" stroke="black" stroke-width="5" /><path d="M 175,124 L 167,129 L 166,138 L 170,144 L 178,146 L 187,140 L 188,132 L 185,126 Z" fill="none" stroke="black" stroke-width="5" /><path d="M 155,111 L 150,109 L 143,110 L 138,117 L 138,125 L 143,129 L 155,127 L 158,124 L 158,116 Z" fill="none" stroke="black" stroke-width="5" /><path d="M 116,96 L 110,105 L 112,113 L 118,117 L 128,115 L 131,111 L 131,103 L 126,97 Z" fill="none" stroke="black" stroke-width="5" /><path d="M 95,84 L 88,90 L 86,97 L 93,105 L 100,105 L 107,98 L 109,91 L 105,86 Z" fill="none" stroke="black" stroke-width="5" /><path d="M 63,68 L 56,77 L 56,81 L 60,87 L 69,89 L 77,82 L 77,75 L 70,68 Z" fill="none" stroke="black" stroke-width="5" /><path d="M 37,57 L 31,64 L 33,74 L 41,78 L 50,77 L 54,70 L 51,60 L 44,56 Z" fill="none" stroke="black" stroke-width="5" /><path d="M 0,0 L 0,217 L 255,217 L 255,0 Z" fill="none" stroke="black" stroke-width="5" /></svg>