<?xml version="1.0" encoding="utf-8" ?>
<svg baseProfile="full" height="215" version="1.1" width="257" xmlns="http://www.w3.org/2000/svg" xmlns:ev="http://www.w3.org/2001/xml-events" xmlns:xlink="http://www.w3.org/1999/xlink"><defs /><rect fill="white" height="215" width="257" x="0" y="0" /><path d="M 134,142 L 127,146 L 125,157 L 132,163 L 138,163 L 145,159 L 147,152 L 143,144 Z" fill="none" stroke="black" stroke-width="5" /><path d="M 112,132 L 106,131 L 97,137 L 96,145 L 99,151 L 108,153 L 116,147 L 116,136 Z" fill="none" stroke="black" stroke-width="5" /><path d="M 162,125 L 157,128 L 154,137 L 158,145 L 166,147 L 174,140 L 174,132 L 169,125 Z" fill="none" stroke="black" stroke-width="5" /><path d="M 79,115 L 73,120 L 73,131 L 77,135 L 85,135 L 91,129 L 91,119 L 88,116 Z" fill="none" stroke="black" stroke-width="5" /><path d="M 173,98 L 169,104 L 171,114 L 177,118 L 186,117 L 190,113 L 190,104 L 183,98 Z" fill="none" stroke="black" stroke-width="5" /><path d="M 59,93 L 53,98 L 51,107 L 56,113 L 64,114 L 72,108 L 72,99 L 68,94 Z" fill="none" stroke="black" stroke-width="5" /><path d="M 187,70 L 181,75 L 178,87 L 187,93 L 195,93 L 202,87 L 202,79 L 197,72 Z" fill="none" stroke="black" stroke-width="5" /><path d="M 51,72 L 45,70 L 40,71 L 35,76 L 33,83 L 36,89 L 39,91 L 47,91 L 54,86 L 54,76 Z" fill="none" stroke="black" stroke-width="5" /><path d="M 202,44 L 195,46 L 191,50 L 191,60 L 199,66 L 206,65 L 212,58 L 210,50 Z" fill="none" stroke="black" stroke-width="5" /><path d="M 217,19 L 208,19 L 202,25 L 203,38 L 212,43 L 222,36 L 224,30 L 222,23 Z" fill="none" stroke="black" stroke-width="5" /><path d="M 0,0 L 0,214 L 256,214 L 256,0 Z" fill="none" stroke="black" stroke-width="5" /></svg>