<?xml version="1.0" encoding="utf-8" ?>
<svg baseProfile="full" height="219" version="1.1" width="257" xmlns="http://www.w3.org/2000/svg" xmlns:ev="http://www.w3.org/2001/xml-events" xmlns:xlink="http://www.w3.org/1999/xlink"><defs /><rect fill="white" height="219" width="257" x="0" y="0" /><path d="M 106,218 L 113,218 L 112,218 L 110,216 L 109,216 L 107,218 Z" fill="none" stroke="black" stroke-width="5" /><path d="M 192,218 L 205,218 L 200,215 L 197,215 Z" fill="none" stroke="black" stroke-width="5" /><path d="M 148,218 L 159,218 L 158,218 L 154,215 Z" fill="none" stroke="black" stroke-width="5" /><path d="M 233,218 L 251,218 L 249,218 L 244,214 L 240,214 L 237,217 Z" fill="none" stroke="black" stroke-width="5" /><path d="M 0,208 L 0,218 L 17,217 L 16,215 L 11,214 L 8,211 Z" fill="none" stroke="black" stroke-width="5" /><path d="M 27,216 L 29,218 L 60,217 L 43,207 Z" fill="none" stroke="black" stroke-width="5" /><path d="M 70,216 L 73,218 L 99,218 L 105,214 L 89,206 L 84,206 Z" fill="none" stroke="black" stroke-width="5" /><path d="M 256,205 L 247,210 L 246,213 L 251,213 L 256,217 Z" fill="none" stroke="black" stroke-width="5" /><path d="M 114,215 L 120,218 L 141,218 L 149,213 L 130,204 Z" fill="none" stroke="black" stroke-width="5" /><path d="M 158,213 L 167,218 L 184,218 L 190,215 L 192,211 L 173,203 Z" fill="none" stroke="black" stroke-width="5" /><path d="M 202,212 L 212,218 L 226,218 L 237,211 L 217,202 Z" fill="none" stroke="black" stroke-width="5" /><path d="M 5,204 L 6,207 L 22,214 L 38,205 L 23,196 L 18,196 Z" fill="none" stroke="black" stroke-width="5" /><path d="M 47,204 L 67,213 L 82,203 L 63,194 Z" fill="none" stroke="black" stroke-width="5" /><path d="M 135,202 L 154,211 L 171,200 L 155,192 L 150,192 Z" fill="none" stroke="black" stroke-width="5" /><path d="M 179,200 L 198,210 L 214,199 L 195,190 Z" fill="none" stroke="black" stroke-width="5" /><path d="M 256,196 L 241,188 L 223,200 L 242,209 L 255,201 Z" fill="none" stroke="black" stroke-width="5" /><path d="M 0,184 L 1,203 L 16,194 L 16,192 L 13,192 Z" fill="none" stroke="black" stroke-width="5" /><path d="M 25,193 L 44,202 L 60,192 L 42,182 Z" fill="none" stroke="black" stroke-width="5" /><path d="M 103,189 L 86,181 L 69,192 L 84,200 L 89,200 L 103,192 Z" fill="none" stroke="black" stroke-width="5" /><path d="M 256,180 L 254,182 L 252,182 L 247,185 L 246,188 L 249,188 L 256,192 Z" fill="none" stroke="black" stroke-width="5" /><path d="M 148,189 L 129,180 L 91,203 L 110,212 L 127,202 L 115,192 L 133,199 Z" fill="none" stroke="black" stroke-width="5" /><path d="M 157,189 L 176,198 L 192,188 L 174,179 Z" fill="none" stroke="black" stroke-width="5" /><path d="M 201,188 L 220,197 L 235,186 L 222,178 L 216,178 Z" fill="none" stroke="black" stroke-width="5" /><path d="M 3,182 L 21,191 L 38,180 L 19,171 Z" fill="none" stroke="black" stroke-width="5" /><path d="M 47,180 L 62,189 L 67,189 L 82,179 L 67,170 L 62,170 Z" fill="none" stroke="black" stroke-width="5" /><path d="M 125,177 L 108,169 L 91,179 L 109,188 Z" fill="none" stroke="black" stroke-width="5" /><path d="M 135,178 L 154,187 L 170,177 L 151,167 Z" fill="none" stroke="black" stroke-width="5" /><path d="M 223,176 L 242,184 L 255,176 L 256,173 L 243,166 L 237,166 Z" fill="none" stroke="black" stroke-width="5" /><path d="M 1,161 L 0,179 L 3,175 L 9,173 L 14,169 Z" fill="none" stroke="black" stroke-width="5" /><path d="M 25,169 L 40,177 L 45,177 L 59,167 L 39,159 Z" fill="none" stroke="black" stroke-width="5" /><path d="M 69,166 L 70,169 L 85,177 L 103,167 L 86,157 Z" fill="none" stroke="black" stroke-width="5" /><path d="M 112,166 L 127,175 L 132,175 L 147,165 L 128,156 Z" fill="none" stroke="black" stroke-width="5" /><path d="M 256,155 L 253,158 L 245,162 L 246,164 L 256,169 Z" fill="none" stroke="black" stroke-width="5" /><path d="M 235,162 L 215,154 L 201,163 L 210,173 L 194,166 L 179,177 L 198,185 L 213,176 L 213,170 L 220,173 Z" fill="none" stroke="black" stroke-width="5" /><path d="M 80,155 L 45,156 L 65,165 Z" fill="none" stroke="black" stroke-width="5" /><path d="M 125,154 L 91,155 L 108,164 Z" fill="none" stroke="black" stroke-width="5" /><path d="M 156,166 L 176,174 L 191,164 L 187,157 L 196,162 L 212,152 L 179,152 L 184,160 L 172,154 Z" fill="none" stroke="black" stroke-width="5" /><path d="M 168,153 L 135,154 L 153,163 Z" fill="none" stroke="black" stroke-width="5" /><path d="M 56,149 L 57,150 L 58,149 L 66,149 L 67,150 L 70,150 L 70,149 L 66,146 L 60,146 Z" fill="none" stroke="black" stroke-width="5" /><path d="M 2,156 L 15,165 L 21,166 L 34,158 L 35,155 L 17,146 Z" fill="none" stroke="black" stroke-width="5" /><path d="M 99,148 L 99,149 L 116,149 L 116,148 L 114,148 L 108,144 L 106,144 Z" fill="none" stroke="black" stroke-width="5" /><path d="M 143,149 L 160,149 L 161,148 L 156,146 L 153,143 L 151,143 L 144,147 Z" fill="none" stroke="black" stroke-width="5" /><path d="M 186,147 L 187,148 L 189,147 L 202,147 L 203,148 L 205,146 L 198,144 L 196,142 L 193,142 Z" fill="none" stroke="black" stroke-width="5" /><path d="M 222,150 L 237,160 L 256,151 L 239,141 Z" fill="none" stroke="black" stroke-width="5" /><path d="M 200,138 L 200,139 L 199,140 L 202,142 L 204,142 L 204,139 L 203,138 Z" fill="none" stroke="black" stroke-width="5" /><path d="M 45,149 L 51,149 L 54,146 L 57,145 L 58,143 L 49,138 L 47,138 L 47,142 L 45,144 Z" fill="none" stroke="black" stroke-width="5" /><path d="M 0,137 L 0,152 L 14,145 L 13,143 Z" fill="none" stroke="black" stroke-width="5" /><path d="M 67,142 L 77,149 L 93,149 L 102,143 L 86,133 Z" fill="none" stroke="black" stroke-width="5" /><path d="M 43,134 L 35,136 L 22,144 L 38,151 Z" fill="none" stroke="black" stroke-width="5" /><path d="M 111,141 L 125,149 L 135,149 L 146,142 L 145,139 L 131,132 Z" fill="none" stroke="black" stroke-width="5" /><path d="M 243,138 L 244,140 L 247,140 L 256,146 L 256,131 Z" fill="none" stroke="black" stroke-width="5" /><path d="M 155,141 L 168,148 L 178,148 L 190,140 L 171,131 Z" fill="none" stroke="black" stroke-width="5" /><path d="M 208,134 L 211,147 L 214,149 L 218,149 L 233,140 L 233,138 L 218,130 L 214,130 Z" fill="none" stroke="black" stroke-width="5" /><path d="M 1,134 L 18,142 L 36,131 L 17,123 Z" fill="none" stroke="black" stroke-width="5" /><path d="M 49,134 L 63,141 L 80,130 L 61,121 L 51,127 Z" fill="none" stroke="black" stroke-width="5" /><path d="M 89,129 L 90,132 L 105,139 L 124,130 L 108,120 Z" fill="none" stroke="black" stroke-width="5" /><path d="M 133,129 L 152,139 L 168,128 L 149,119 Z" fill="none" stroke="black" stroke-width="5" /><path d="M 202,134 L 196,118 L 191,119 L 177,128 L 192,137 Z" fill="none" stroke="black" stroke-width="5" /><path d="M 221,126 L 238,137 L 256,127 L 238,117 Z" fill="none" stroke="black" stroke-width="5" /><path d="M 53,121 L 55,121 L 57,119 L 58,119 L 58,118 L 57,118 L 56,117 L 54,117 L 54,118 L 53,119 Z" fill="none" stroke="black" stroke-width="5" /><path d="M 0,113 L 0,128 L 14,121 L 13,119 Z" fill="none" stroke="black" stroke-width="5" /><path d="M 23,119 L 41,129 L 46,125 L 49,114 L 43,110 L 38,110 Z" fill="none" stroke="black" stroke-width="5" /><path d="M 111,118 L 130,127 L 145,116 L 130,108 L 125,108 Z" fill="none" stroke="black" stroke-width="5" /><path d="M 66,117 L 83,128 L 102,118 L 84,108 Z" fill="none" stroke="black" stroke-width="5" /><path d="M 232,114 L 212,106 L 201,113 L 201,116 L 206,122 L 207,131 L 210,129 L 208,122 L 217,125 Z" fill="none" stroke="black" stroke-width="5" /><path d="M 154,117 L 172,126 L 189,115 L 169,106 Z" fill="none" stroke="black" stroke-width="5" /><path d="M 256,105 L 244,112 L 242,115 L 256,122 Z" fill="none" stroke="black" stroke-width="5" /><path d="M 0,109 L 18,118 L 36,107 L 16,98 Z" fill="none" stroke="black" stroke-width="5" /><path d="M 195,96 L 199,108 L 210,104 L 209,102 L 207,102 L 198,96 Z" fill="none" stroke="black" stroke-width="5" /><path d="M 175,104 L 191,113 L 194,113 L 194,108 L 189,96 Z" fill="none" stroke="black" stroke-width="5" /><path d="M 61,96 L 56,114 L 62,117 L 79,105 Z" fill="none" stroke="black" stroke-width="5" /><path d="M 132,106 L 150,114 L 166,104 L 147,95 L 133,103 Z" fill="none" stroke="black" stroke-width="5" /><path d="M 88,106 L 108,115 L 123,105 L 103,95 Z" fill="none" stroke="black" stroke-width="5" /><path d="M 219,103 L 237,112 L 254,102 L 235,92 Z" fill="none" stroke="black" stroke-width="5" /><path d="M 0,88 L 0,104 L 13,96 Z" fill="none" stroke="black" stroke-width="5" /><path d="M 23,95 L 39,105 L 51,98 L 53,100 L 45,108 L 52,109 L 56,94 L 39,85 Z" fill="none" stroke="black" stroke-width="5" /><path d="M 65,94 L 80,103 L 86,103 L 100,93 L 81,84 Z" fill="none" stroke="black" stroke-width="5" /><path d="M 153,92 L 167,101 L 173,101 L 187,93 L 187,90 L 169,82 Z" fill="none" stroke="black" stroke-width="5" /><path d="M 109,94 L 128,103 L 144,92 L 125,82 Z" fill="none" stroke="black" stroke-width="5" /><path d="M 255,81 L 241,89 L 241,91 L 256,99 Z" fill="none" stroke="black" stroke-width="5" /><path d="M 197,93 L 215,101 L 232,90 L 213,81 L 197,90 Z" fill="none" stroke="black" stroke-width="5" /><path d="M 78,82 L 68,76 L 65,82 L 64,91 Z" fill="none" stroke="black" stroke-width="5" /><path d="M 175,79 L 176,81 L 181,83 L 184,86 L 186,85 L 186,83 L 184,81 L 184,76 L 183,75 L 181,75 Z" fill="none" stroke="black" stroke-width="5" /><path d="M 0,85 L 15,93 L 20,93 L 35,82 L 15,74 Z" fill="none" stroke="black" stroke-width="5" /><path d="M 62,74 L 59,73 L 44,83 L 58,90 Z" fill="none" stroke="black" stroke-width="5" /><path d="M 87,82 L 106,91 L 121,81 L 106,72 L 102,72 Z" fill="none" stroke="black" stroke-width="5" /><path d="M 187,71 L 192,88 L 208,80 L 207,77 L 192,70 Z" fill="none" stroke="black" stroke-width="5" /><path d="M 147,70 L 131,81 L 148,91 L 164,79 Z" fill="none" stroke="black" stroke-width="5" /><path d="M 218,78 L 235,88 L 251,79 L 235,69 Z" fill="none" stroke="black" stroke-width="5" /><path d="M 0,65 L 0,79 L 11,73 L 12,71 Z" fill="none" stroke="black" stroke-width="5" /><path d="M 70,73 L 80,79 L 84,79 L 99,69 L 87,62 L 77,62 L 71,66 Z" fill="none" stroke="black" stroke-width="5" /><path d="M 22,70 L 39,81 L 56,71 L 41,62 Z" fill="none" stroke="black" stroke-width="5" /><path d="M 109,70 L 127,78 L 142,68 L 130,61 L 120,61 Z" fill="none" stroke="black" stroke-width="5" /><path d="M 93,63 L 101,67 L 105,67 L 112,63 L 113,61 L 97,61 Z" fill="none" stroke="black" stroke-width="5" /><path d="M 151,68 L 167,77 L 171,77 L 181,71 L 179,64 L 173,60 L 163,60 Z" fill="none" stroke="black" stroke-width="5" /><path d="M 138,62 L 145,66 L 148,66 L 151,63 L 153,63 L 155,60 L 139,60 Z" fill="none" stroke="black" stroke-width="5" /><path d="M 195,68 L 214,77 L 230,66 L 215,58 L 209,58 Z" fill="none" stroke="black" stroke-width="5" /><path d="M 239,65 L 239,67 L 256,76 L 256,56 Z" fill="none" stroke="black" stroke-width="5" /><path d="M 1,59 L 15,69 L 19,69 L 34,60 L 18,50 Z" fill="none" stroke="black" stroke-width="5" /><path d="M 89,56 L 90,58 L 116,57 L 113,53 L 104,48 L 101,48 Z" fill="none" stroke="black" stroke-width="5" /><path d="M 131,56 L 162,55 L 145,47 Z" fill="none" stroke="black" stroke-width="5" /><path d="M 175,55 L 181,56 L 184,61 L 191,65 L 207,56 L 191,46 Z" fill="none" stroke="black" stroke-width="5" /><path d="M 217,54 L 233,64 L 250,55 L 250,53 L 234,45 Z" fill="none" stroke="black" stroke-width="5" /><path d="M 12,48 L 0,42 L 0,56 L 7,51 L 11,50 Z" fill="none" stroke="black" stroke-width="5" /><path d="M 98,45 L 79,37 L 64,46 L 75,56 L 37,38 L 21,48 L 37,57 L 53,49 L 43,59 L 61,69 Z" fill="none" stroke="black" stroke-width="5" /><path d="M 107,46 L 126,55 L 141,44 L 122,36 Z" fill="none" stroke="black" stroke-width="5" /><path d="M 151,45 L 165,53 L 170,53 L 184,43 L 165,35 Z" fill="none" stroke="black" stroke-width="5" /><path d="M 238,41 L 239,44 L 255,52 L 256,51 L 256,33 L 252,33 Z" fill="none" stroke="black" stroke-width="5" /><path d="M 194,42 L 211,53 L 228,44 L 210,33 Z" fill="none" stroke="black" stroke-width="5" /><path d="M 0,35 L 0,38 L 16,46 L 33,37 L 16,27 Z" fill="none" stroke="black" stroke-width="5" /><path d="M 42,35 L 59,45 L 76,36 L 61,26 L 57,26 Z" fill="none" stroke="black" stroke-width="5" /><path d="M 85,35 L 100,43 L 105,43 L 119,33 L 100,25 Z" fill="none" stroke="black" stroke-width="5" /><path d="M 129,34 L 146,43 L 162,32 L 143,23 Z" fill="none" stroke="black" stroke-width="5" /><path d="M 215,32 L 234,40 L 249,30 L 234,22 L 229,22 Z" fill="none" stroke="black" stroke-width="5" /><path d="M 172,33 L 191,41 L 206,31 L 188,22 Z" fill="none" stroke="black" stroke-width="5" /><path d="M 10,24 L 0,19 L 0,31 L 2,29 L 9,26 Z" fill="none" stroke="black" stroke-width="5" /><path d="M 63,23 L 81,33 L 97,22 L 83,14 L 77,14 Z" fill="none" stroke="black" stroke-width="5" /><path d="M 19,25 L 38,34 L 54,23 L 34,14 Z" fill="none" stroke="black" stroke-width="5" /><path d="M 106,23 L 126,31 L 140,21 L 121,12 Z" fill="none" stroke="black" stroke-width="5" /><path d="M 149,20 L 165,30 L 184,20 L 167,11 Z" fill="none" stroke="black" stroke-width="5" /><path d="M 193,20 L 212,29 L 227,19 L 212,10 L 207,10 Z" fill="none" stroke="black" stroke-width="5" /><path d="M 236,18 L 250,27 L 256,27 L 255,9 L 251,8 L 246,13 Z" fill="none" stroke="black" stroke-width="5" /><path d="M 0,15 L 15,23 L 31,12 L 17,4 L 12,4 L 0,11 Z" fill="none" stroke="black" stroke-width="5" /><path d="M 40,11 L 57,21 L 75,12 L 58,2 L 54,2 Z" fill="none" stroke="black" stroke-width="5" /><path d="M 85,10 L 85,12 L 101,20 L 118,11 L 118,9 L 102,1 Z" fill="none" stroke="black" stroke-width="5" /><path d="M 245,0 L 252,4 L 256,2 L 256,0 Z" fill="none" stroke="black" stroke-width="5" /><path d="M 215,6 L 216,9 L 230,17 L 248,7 L 235,0 L 226,0 Z" fill="none" stroke="black" stroke-width="5" /><path d="M 198,0 L 207,5 L 211,5 L 218,0 Z" fill="none" stroke="black" stroke-width="5" /><path d="M 170,8 L 187,18 L 204,9 L 204,7 L 189,0 L 184,0 Z" fill="none" stroke="black" stroke-width="5" /><path d="M 153,0 L 161,3 L 165,7 L 177,0 Z" fill="none" stroke="black" stroke-width="5" /><path d="M 128,10 L 146,19 L 161,8 L 143,0 Z" fill="none" stroke="black" stroke-width="5" /><path d="M 107,0 L 120,7 L 125,7 L 136,0 Z" fill="none" stroke="black" stroke-width="5" /><path d="M 62,0 L 78,9 L 96,0 Z" fill="none" stroke="black" stroke-width="5" /><path d="M 19,1 L 33,9 L 38,9 L 52,0 Z" fill="none" stroke="black" stroke-width="5" /><path d="M 0,7 L 6,3 L 9,3 L 10,1 L 9,0 L 0,0 Z" fill="none" stroke="black" stroke-width="5" /></svg>