<?xml version="1.0" encoding="utf-8" ?>
<svg baseProfile="full" height="221" version="1.1" width="258" xmlns="http://www.w3.org/2000/svg" xmlns:ev="http://www.w3.org/2001/xml-events" xmlns:xlink="http://www.w3.org/1999/xlink"><defs /><rect fill="white" height="221" width="258" x="0" y="0" /><path d="M 194,214 L 194,216 L 211,215 L 204,203 L 201,203 Z" fill="none" stroke="black" stroke-width="5" /><path d="M 158,208 L 158,210 L 161,211 L 173,210 L 172,206 L 169,204 L 166,199 L 162,201 Z" fill="none" stroke="black" stroke-width="5" /><path d="M 125,190 L 116,201 L 115,204 L 117,206 L 133,203 Z" fill="none" stroke="black" stroke-width="5" /><path d="M 37,189 L 35,191 L 35,195 L 38,198 L 42,198 L 46,194 L 44,191 L 44,189 Z" fill="none" stroke="black" stroke-width="5" /><path d="M 69,187 L 69,193 L 71,195 L 76,196 L 79,193 L 78,187 L 75,187 L 74,186 Z" fill="none" stroke="black" stroke-width="5" /><path d="M 211,169 L 207,175 L 207,180 L 219,180 L 220,179 L 219,175 L 214,169 Z" fill="none" stroke="black" stroke-width="5" /><path d="M 17,161 L 14,165 L 15,170 L 17,172 L 21,172 L 24,170 L 24,164 L 20,161 Z" fill="none" stroke="black" stroke-width="5" /><path d="M 100,159 L 95,158 L 90,160 L 90,166 L 93,170 L 97,169 L 101,165 L 101,160 Z" fill="none" stroke="black" stroke-width="5" /><path d="M 141,163 L 138,161 L 135,154 L 132,152 L 124,166 L 140,166 Z" fill="none" stroke="black" stroke-width="5" /><path d="M 111,133 L 111,137 L 114,140 L 120,139 L 122,136 L 122,134 L 118,131 L 113,131 Z" fill="none" stroke="black" stroke-width="5" /><path d="M 15,129 L 15,131 L 13,134 L 15,138 L 18,140 L 20,140 L 23,138 L 23,132 L 20,128 Z" fill="none" stroke="black" stroke-width="5" /><path d="M 230,132 L 222,122 L 217,130 L 215,131 L 215,135 L 230,134 Z" fill="none" stroke="black" stroke-width="5" /><path d="M 142,127 L 143,128 L 156,128 L 157,126 L 154,123 L 153,119 L 148,117 Z" fill="none" stroke="black" stroke-width="5" /><path d="M 29,101 L 25,104 L 25,106 L 28,109 L 31,110 L 36,107 L 36,105 L 32,101 Z" fill="none" stroke="black" stroke-width="5" /><path d="M 134,93 L 130,96 L 130,100 L 134,103 L 137,103 L 140,100 L 140,95 L 137,93 Z" fill="none" stroke="black" stroke-width="5" /><path d="M 220,77 L 217,81 L 217,84 L 214,87 L 214,90 L 230,90 L 224,79 Z" fill="none" stroke="black" stroke-width="5" /><path d="M 163,72 L 158,83 L 160,84 L 161,83 L 166,84 L 171,83 L 168,75 L 165,72 Z" fill="none" stroke="black" stroke-width="5" /><path d="M 47,69 L 44,72 L 44,75 L 48,79 L 51,79 L 54,76 L 54,72 L 50,69 Z" fill="none" stroke="black" stroke-width="5" /><path d="M 141,59 L 139,61 L 136,62 L 136,67 L 139,70 L 142,70 L 145,67 L 144,61 Z" fill="none" stroke="black" stroke-width="5" /><path d="M 78,41 L 73,41 L 69,46 L 69,48 L 73,52 L 75,52 L 78,50 L 80,47 L 80,44 Z" fill="none" stroke="black" stroke-width="5" /><path d="M 194,40 L 193,44 L 189,49 L 189,52 L 202,52 L 203,51 L 202,47 L 200,46 L 197,40 Z" fill="none" stroke="black" stroke-width="5" /><path d="M 128,26 L 126,28 L 126,32 L 129,36 L 132,36 L 136,31 L 136,28 L 132,26 Z" fill="none" stroke="black" stroke-width="5" /><path d="M 96,24 L 94,31 L 97,34 L 100,34 L 105,28 L 102,24 Z" fill="none" stroke="black" stroke-width="5" /><path d="M 0,0 L 0,220 L 187,220 L 199,196 L 257,220 L 257,0 Z" fill="none" stroke="black" stroke-width="5" /></svg>