<?xml version="1.0" encoding="utf-8" ?>
<svg baseProfile="full" height="217" version="1.1" width="258" xmlns="http://www.w3.org/2000/svg" xmlns:ev="http://www.w3.org/2001/xml-events" xmlns:xlink="http://www.w3.org/1999/xlink"><defs /><rect fill="white" height="217" width="258" x="0" y="0" /><path d="M 213,193 L 211,194 L 208,201 L 205,204 L 205,207 L 212,205 L 220,205 L 220,203 Z" fill="none" stroke="black" stroke-width="5" /><path d="M 167,192 L 161,205 L 176,205 L 172,196 L 169,192 Z" fill="none" stroke="black" stroke-width="5" /><path d="M 140,172 L 134,185 L 148,185 L 147,181 L 142,173 Z" fill="none" stroke="black" stroke-width="5" /><path d="M 230,162 L 228,169 L 225,173 L 226,174 L 237,174 L 238,173 L 235,167 Z" fill="none" stroke="black" stroke-width="5" /><path d="M 148,134 L 148,137 L 146,139 L 145,143 L 155,142 L 152,136 L 150,134 Z" fill="none" stroke="black" stroke-width="5" /><path d="M 222,120 L 214,135 L 231,135 L 231,132 L 225,122 Z" fill="none" stroke="black" stroke-width="5" /><path d="M 57,108 L 55,108 L 50,112 L 50,116 L 53,119 L 57,119 L 60,116 L 60,113 L 57,110 Z" fill="none" stroke="black" stroke-width="5" /><path d="M 91,107 L 89,109 L 89,113 L 92,117 L 96,117 L 99,113 L 99,109 L 97,107 Z" fill="none" stroke="black" stroke-width="5" /><path d="M 169,98 L 164,109 L 178,109 L 179,108 L 173,101 L 172,98 Z" fill="none" stroke="black" stroke-width="5" /><path d="M 116,90 L 114,94 L 114,97 L 118,100 L 123,100 L 125,97 L 125,92 L 123,90 Z" fill="none" stroke="black" stroke-width="5" /><path d="M 205,81 L 199,93 L 213,94 L 214,93 L 208,82 Z" fill="none" stroke="black" stroke-width="5" /><path d="M 30,76 L 29,80 L 30,84 L 33,86 L 37,85 L 40,80 L 39,76 L 37,75 Z" fill="none" stroke="black" stroke-width="5" /><path d="M 130,52 L 128,54 L 128,61 L 130,63 L 137,62 L 139,59 L 139,56 L 137,53 Z" fill="none" stroke="black" stroke-width="5" /><path d="M 37,36 L 34,36 L 29,39 L 29,43 L 31,45 L 37,45 L 39,43 L 39,38 Z" fill="none" stroke="black" stroke-width="5" /><path d="M 110,24 L 107,28 L 107,31 L 108,33 L 111,35 L 113,35 L 118,29 L 114,24 Z" fill="none" stroke="black" stroke-width="5" /><path d="M 77,20 L 72,20 L 68,25 L 68,28 L 70,30 L 74,31 L 79,27 L 79,24 Z" fill="none" stroke="black" stroke-width="5" /><path d="M 0,0 L 0,216 L 257,216 L 257,0 Z" fill="none" stroke="black" stroke-width="5" /></svg>